<?xml version="1.0" encoding="utf-8"?>
<!-- Generator: Adobe Illustrator 24.1.3, SVG Export Plug-In . SVG Version: 6.00 Build 0)  -->
<svg version="1.1" id="Layer_1" xmlns="http://www.w3.org/2000/svg" xmlns:xlink="http://www.w3.org/1999/xlink" x="0px" y="0px"
	 viewBox="0 0 140 60" style="enable-background:new 0 0 140 60;" xml:space="preserve">
<style type="text/css">
	.st0{fill:#0C87A2;}
	.st1{fill:#00ABD2;}
	.st2{fill:url(#SVGID_1_);}
	.st3{fill:url(#SVGID_2_);}
</style>
<g id="Layer_2_1_">
	<rect class="st0" width="140" height="60"/>
</g>
<circle class="st1" cx="3" cy="2.8" r="0.8"/>
<circle class="st1" cx="3" cy="7.8" r="0.8"/>
<circle class="st1" cx="3" cy="5.3" r="0.8"/>
<circle class="st1" cx="3" cy="10.3" r="0.8"/>
<circle class="st1" cx="5.7" cy="2.8" r="0.8"/>
<circle class="st1" cx="5.7" cy="5.3" r="0.8"/>
<circle class="st1" cx="5.7" cy="7.8" r="0.8"/>
<circle class="st1" cx="3" cy="12.9" r="0.8"/>
<circle class="st1" cx="3" cy="15.4" r="0.8"/>
<circle class="st1" cx="5.7" cy="10.3" r="0.8"/>
<circle class="st1" cx="5.7" cy="12.9" r="0.8"/>
<circle class="st1" cx="3" cy="17.9" r="0.8"/>
<circle class="st1" cx="3" cy="20.4" r="0.8"/>
<circle class="st1" cx="5.7" cy="15.4" r="0.8"/>
<circle class="st1" cx="5.7" cy="17.9" r="0.8"/>
<circle class="st1" cx="8.4" cy="2.8" r="0.8"/>
<circle class="st1" cx="8.4" cy="5.3" r="0.8"/>
<circle class="st1" cx="8.4" cy="7.8" r="0.8"/>
<circle class="st1" cx="8.4" cy="10.3" r="0.8"/>
<circle class="st1" cx="8.4" cy="12.9" r="0.8"/>
<circle class="st1" cx="8.4" cy="15.4" r="0.8"/>
<circle class="st1" cx="136.5" cy="57.8" r="0.8"/>
<circle class="st1" cx="136.5" cy="52.8" r="0.8"/>
<circle class="st1" cx="136.5" cy="55.3" r="0.8"/>
<circle class="st1" cx="133.9" cy="57.8" r="0.8"/>
<circle class="st1" cx="133.9" cy="55.3" r="0.8"/>
<circle class="st1" cx="133.8" cy="52.8" r="0.8"/>
<circle class="st1" cx="131.1" cy="57.9" r="0.8"/>
<circle class="st1" cx="131.1" cy="55.3" r="0.8"/>
<circle class="st1" cx="131.1" cy="52.8" r="0.8"/>
<circle class="st1" cx="123" cy="57.8" r="0.8"/>
<circle class="st1" cx="125.7" cy="57.8" r="0.8"/>
<circle class="st1" cx="128.4" cy="57.8" r="0.8"/>
<circle class="st1" cx="117.6" cy="57.8" r="0.8"/>
<circle class="st1" cx="120.4" cy="57.8" r="0.8"/>
<circle class="st1" cx="123" cy="55.3" r="0.8"/>
<circle class="st1" cx="125.6" cy="55.3" r="0.8"/>
<circle class="st1" cx="128.4" cy="55.3" r="0.8"/>
<circle class="st1" cx="120.3" cy="55.3" r="0.8"/>
<circle class="st1" cx="122.9" cy="52.8" r="0.8"/>
<circle class="st1" cx="125.5" cy="52.8" r="0.8"/>
<circle class="st1" cx="128.3" cy="52.8" r="0.8"/>
<linearGradient id="SVGID_1_" gradientUnits="userSpaceOnUse" x1="96.2882" y1="-9.1163" x2="162.9311" y2="61.1694">
	<stop  offset="0" style="stop-color:#0C9DA2"/>
	<stop  offset="0.5195" style="stop-color:#CCCCCC"/>
	<stop  offset="1" style="stop-color:#606060"/>
</linearGradient>
<path class="st2" d="M140,18.6v13.8c-5.6-5.4-12.8-11.4-21.7-17.2C106.9,7.8,96.2,3.1,87.5,0c7.9,0,15.8,0,23.7,0
	c4.4,1.5,9.9,3.9,15.8,7.8C132.6,11.5,136.9,15.4,140,18.6z"/>
<linearGradient id="SVGID_2_" gradientUnits="userSpaceOnUse" x1="47.4741" y1="-3.6614" x2="-15.9545" y2="106.2671">
	<stop  offset="0" style="stop-color:#0C9DA2"/>
	<stop  offset="0.5195" style="stop-color:#CCCCCC"/>
	<stop  offset="1" style="stop-color:#606060"/>
</linearGradient>
<path class="st3" d="M63.2,0c-6.4,8.8-13.9,18.3-22.7,27.9C28.8,40.7,19,51.3,8.4,60c-2.2,0-6.2,0-8.4,0V47.7
	c7.8-5.6,16.9-13.2,26.1-23.1C34.2,15.9,40.5,7.4,45.2,0C52.9,0,55.6,0,63.2,0z"/>
</svg>
