<?xml version="1.0" encoding="utf-8"?>
<!-- Generator: Adobe Illustrator 25.1.0, SVG Export Plug-In . SVG Version: 6.00 Build 0)  -->
<svg version="1.1" xmlns="http://www.w3.org/2000/svg" xmlns:xlink="http://www.w3.org/1999/xlink" x="0px" y="0px"
	 viewBox="0 0 300 265" style="enable-background:new 0 0 300 265;" xml:space="preserve">
<style type="text/css">
	.st0{opacity:0.3;fill:#4771DE;}
	.st1{fill:#243D7D;}
	.st2{fill:#2B6A94;}
	.st3{fill:#398CC4;}
	.st4{fill:#3357B3;}
	.st5{fill:#4771DE;}
	.st6{opacity:0.51;}
	.st7{fill:#1A1A1A;}
	.st8{fill:#B3B3B3;}
	.st9{fill:#F2F2F2;}
	.st10{fill:#9D9D9C;}
	.st11{opacity:0.5;}
	.st12{fill:#F6F6F6;}
	.st13{fill:#CF3149;}
	.st14{fill:#1D1D1B;}
	.st15{clip-path:url(#SVGID_2_);}
	.st16{fill:#706F6F;}
	.st17{fill:#4D4D4D;}
	.st18{fill:#8A1224;}
	.st19{fill:#FFD89E;}
	.st20{fill:#FFFFFF;}
	.st21{fill:#575756;}
	.st22{fill:#EDEDED;}
	.st23{enable-background:new    ;}
	.st24{fill:#4771DF;}
	.st25{fill:#CF3148;}
	.st26{fill:#1D3253;}
	.st27{fill:#B6B1B3;}
	.st28{fill:#F7F1DA;}
	.st29{fill:#4572E1;}
	.st30{fill:#223250;}
	.st31{fill:#B5B3B2;}
	.st32{fill:#4971E2;}
	.st33{fill:#24304E;}
	.st34{fill:#E0DFE1;}
	.st35{fill:#3457B3;}
	.st36{fill:none;stroke:#4771DF;stroke-width:0.25;stroke-miterlimit:10;}
	.st37{fill:#243E7D;}
	.st38{fill:#233D80;}
	.st39{fill:#4471DE;}
	.st40{fill:#F4F1F0;}
	.st41{fill:#F2EFF0;}
	.st42{fill:#476EDC;}
	.st43{fill:#3457B5;}
	.st44{fill:#4871DF;}
	.st45{fill:#030F3F;}
	.st46{fill:#1B181A;}
	.st47{fill:#585655;}
	.st48{fill:#6E706E;}
	.st49{fill:#FFFEFD;}
	.st50{fill:#CF3049;}
	.st51{fill:#FEFEFE;}
	.st52{fill:#B3B3B7;}
	.st53{fill:#8A1222;}
	.st54{fill:#CC3547;}
	.st55{fill:#F5F3F4;}
	.st56{fill:#B2B3B2;}
	.st57{fill:#B4B4B6;}
	.st58{fill:#F2F4F1;}
	.st59{fill:#AFB2B2;}
	.st60{fill:#F0F3F2;}
	.st61{fill:#F2F3F0;}
	.st62{fill:#B0B5AB;}
	.st63{fill:#22334E;}
	.st64{fill:#F4F2FA;}
	.st65{fill:#CC2F45;}
	.st66{fill:#FFFEF4;}
</style>
<g id="Layer_2">
</g>
<g id="Layer_1">
</g>
<g id="Layer_3">
	<g>
		<path class="st0" d="M205.78,232.46c-2.23-4.26-2.34-6.03-6.54-8.42c-4.21-2.39-11.49-6.39-15.89-8.46
			c-5.83-2.75-10.85-5.8-16.01-9.44l5.92-2.93l-60.94-30.13c-11.17-5.52-11.17-5.52-11.86-5.52h-0.69l-52.61,26.01
			c-0.44-0.23-0.89-0.44-1.34-0.62c-7.92-3.2-17.27-3.69-25.59-1.34c-4.06,1.15-7.91,2.97-10.87,5.62
			c-1.16,1.04-2.19,2.22-2.82,3.56c-1.84,3.97,0.29,8.65,3.87,11.62c2.37,1.97,5.82,3.95,9.13,5c-0.01,0.26-0.04,0.52-0.04,0.79
			c0,7.08,5.38,13.63,15.17,18.47l0.68,0.33c9.33,4.61,21.68,7.15,34.78,7.15s25.44-2.54,34.78-7.15l37.68-18.63
			c1.98,1.93,4.84,3.37,6.48,5.31c3.88,4.61-3.49,8.41,6.53,12.26c2.81,1.28,10.2,2.92,12.91,4.37c4.24,2.26,6.76,2.86,11,5.13
			c1.41,0.75,5.09,2.09,6.73,2.31c2.88,0.39,6.83-3.02,9.92-5.14c2.93-2.01,6.88-2.88,9.81-4.89c0.35-0.24-0.31-1.63-0.05-1.97
			C206.69,234.75,206.3,233.44,205.78,232.46z M157.78,218.75c-2.54-2.9-3.31-3.36-5.48-5.09c5.08-2.51,3.91-1.99,6.4-3.23
			c2.1,1.39,5.42,2.54,7.19,4.02C165.02,215.06,158.56,219.65,157.78,218.75z"/>
		<path class="st0" d="M201.3,148.32c-4.51-1.14-9.18,1.02-13.85,1.48c-3.49,0.35-7-0.26-10.49-0.55
			c-11.72-0.99-24.59,2.08-31.65,10.16c-2.48,2.85-4.12,6.85-1.98,9.89c0.69,0.98,1.71,1.75,2.77,2.45
			c5.64,3.73,12.84,5.61,19.94,5.42c7.68-0.2,12.27-3.6,18.44-7.13c2.21-1.26,4.42-2.53,6.82-3.5c2.88-1.16,5.98-1.88,8.84-3.08
			c2.86-1.2,5.57-3,6.7-5.55C208.5,154.16,205.78,149.45,201.3,148.32z"/>
	</g>
	<g>
		<g>
			<polygon class="st1" points="168.12,120.32 100.46,86.79 100.46,169.15 168.12,202.68 			"/>
			<polygon class="st2" points="100.46,169.15 77.92,180.3 77.92,97.94 100.46,86.79 			"/>
			<path class="st3" d="M168.13,182.68v20l-20.21-10.01l-47.47-23.52v-19.93C100.47,149.22,168.13,182.68,168.13,182.68z"/>
			<polygon class="st4" points="168.13,202.66 22.09,217.49 22.09,197.67 168.13,182.68 			"/>
			<path class="st4" d="M168.13,202.66l-67.67-33.46l-64.5,31.89c-18.5,9.15-18.5,23.98,0,33.12l0.68,0.33
				c18.5,9.15,48.49,9.15,66.99,0L168.13,202.66z"/>
			<path class="st5" d="M168.13,182.68l-20.21,9.99l-44.29,21.89c-18.5,9.14-48.49,9.14-66.99,0l-0.69-0.34
				c-18.5-9.14-18.5-23.98,0-33.12l64.5-31.89C100.47,149.22,168.13,182.68,168.13,182.68z"/>
			<path class="st4" d="M70.14,219.03c-12.17,0-23.57-2.32-32.1-6.54l-0.68-0.33c-8.04-3.98-12.47-9.12-12.47-14.49
				c0-5.36,4.43-10.51,12.47-14.49l63.1-31.2l62.07,30.69l-60.3,29.82C93.7,216.71,82.3,219.03,70.14,219.03z"/>
			<polygon class="st4" points="168.12,202.68 145.59,213.83 145.58,131.47 168.12,120.32 			"/>
			<path class="st1" d="M145.58,131.47v62.35l-67.66-33.46c-0.01,0,0-62.43,0-62.43L145.58,131.47z"/>
			<g class="st6">
				<path class="st1" d="M101.41,144.95l0,2.48l-19.04-9.41v-2.48L101.41,144.95z M82.37,141.98l19.04,9.41v-2.48l-19.04-9.41
					V141.98z M82.37,145.95l19.04,9.41v-2.48l-19.04-9.41V145.95z M82.37,149.91l19.04,9.41v-2.48l-19.04-9.41V149.91z
					 M82.37,153.88l19.04,9.41v-2.48l-19.04-9.41L82.37,153.88z M82.37,157.84l19.04,9.41v-2.48l-19.04-9.41V157.84z"/>
			</g>
			<polygon class="st5" points="148.25,89.16 125.72,100.3 145.58,131.47 168.12,120.32 			"/>
			<polygon class="st1" points="129.48,101.21 147.17,92.46 164.36,119.42 146.67,128.17 			"/>
			<g>
				<g>
					<g>
						<g>
							<rect x="42.42" y="183.81" class="st7" width="49.48" height="12.23"/>
							<path class="st7" d="M49.66,187.39c-9.66,4.78-9.66,12.52,0,17.3c9.66,4.78,25.32,4.78,34.98,0c9.66-4.78,9.66-12.52,0-17.3
								C74.99,182.62,59.32,182.62,49.66,187.39z"/>
							<path class="st7" d="M49.66,175.16c-9.66,4.78-9.66,12.52,0,17.3c9.66,4.78,25.32,4.78,34.98,0c9.66-4.78,9.66-12.52,0-17.3
								C74.99,170.38,59.32,170.38,49.66,175.16z"/>
						</g>
						<g>
							<rect x="42.42" y="183.81" class="st7" width="49.48" height="12.23"/>
							<path class="st7" d="M49.66,187.39c-9.66,4.78-9.66,12.52,0,17.3c9.66,4.78,25.32,4.78,34.98,0c9.66-4.78,9.66-12.52,0-17.3
								C74.99,182.62,59.32,182.62,49.66,187.39z"/>
							<path class="st7" d="M49.66,175.16c-9.66,4.78-9.66,12.52,0,17.3c9.66,4.78,25.32,4.78,34.98,0c9.66-4.78,9.66-12.52,0-17.3
								C74.99,170.38,59.32,170.38,49.66,175.16z"/>
						</g>
					</g>
					<g>
						<rect x="36.05" y="174.55" class="st8" width="62.2" height="15.38"/>
						<path class="st8" d="M45.16,179.05c-12.15,6.01-12.15,15.74,0,21.75c12.15,6.01,31.84,6.01,43.98,0
							c12.15-6.01,12.15-15.74,0-21.75C77,173.05,57.31,173.05,45.16,179.05z"/>
						<path class="st9" d="M45.16,163.67c-12.15,6.01-12.15,15.74,0,21.75c12.15,6.01,31.84,6.01,43.98,0
							c12.15-6.01,12.15-15.74,0-21.75C77,157.67,57.31,157.67,45.16,163.67z"/>
					</g>
					<path class="st7" d="M61.16,171.58c-3.31,1.64-3.31,4.29,0,5.93c3.31,1.64,8.68,1.64,12,0c3.31-1.64,3.31-4.29,0-5.93
						C69.84,169.94,64.47,169.94,61.16,171.58z"/>
					<g>
						<polygon class="st7" points="78.47,171.55 89.27,166.21 89.27,157.98 72.28,160.26 72.28,168.48 						"/>
						<polygon class="st7" points="56.01,170.64 56.01,162.41 38.98,164.64 38.98,172.87 53.74,174.82 						"/>
						<polygon class="st9" points="78.47,163.32 89.27,157.98 83.08,154.92 72.28,160.26 						"/>
						<polygon class="st9" points="56.01,162.41 41.25,160.46 38.98,164.64 53.74,166.6 						"/>
						<g>
							<rect x="55.28" y="151.4" class="st8" width="22.79" height="23.22"/>
							<ellipse class="st8" cx="66.67" cy="174.62" rx="11.39" ry="5.63"/>
							<path class="st9" d="M58.62,147.41c-4.45,2.2-4.45,5.77,0,7.97c4.45,2.2,11.66,2.2,16.11,0c4.45-2.2,4.45-5.77,0-7.97
								C70.28,145.21,63.07,145.21,58.62,147.41z"/>
						</g>
						<polygon class="st7" points="65.65,180.71 69.6,188.01 78.07,186.89 78.07,178.66 65.65,172.49 						"/>
						<polygon class="st9" points="65.65,172.49 69.6,179.78 78.07,178.66 74.11,171.37 						"/>
					</g>
				</g>
				<path class="st8" d="M52.61,180.22c1.17,0.58,1.17,1.52,0,2.1c-1.17,0.58-3.07,0.58-4.24,0c-1.17-0.58-1.17-1.52,0-2.1
					C49.54,179.64,51.44,179.64,52.61,180.22z"/>
				<path class="st8" d="M89.39,173.77c1.17,0.58,1.17,1.52,0,2.1c-1.17,0.58-3.07,0.58-4.24,0c-1.17-0.58-1.17-1.52,0-2.1
					C86.32,173.2,88.21,173.2,89.39,173.77z"/>
				<path class="st7" d="M72.68,154.36c-0.81,0.41-1.75,0.71-2.76,0.91c-2.07,0.43-4.42,0.43-6.49,0c-1.01-0.2-1.95-0.5-2.76-0.91
					c-3.33-1.64-3.33-4.3,0-5.94c3.32-1.63,8.69-1.63,12.01,0C76.01,150.06,76.01,152.72,72.68,154.36z"/>
			</g>
			<g>
				<g>
					<path class="st10" d="M70.51,151.95l-0.59,3.32c-2.07,0.43-4.42,0.43-6.49,0l-0.59-3.32H70.51z"/>
					<path class="st7" d="M69.39,150.61c1.5,0.74,1.5,1.94,0,2.68c-1.5,0.74-3.93,0.74-5.43,0c-1.5-0.74-1.5-1.94,0-2.68
						C65.46,149.87,67.89,149.87,69.39,150.61z"/>
				</g>
				<g>
					<rect x="63.78" y="129.04" class="st8" width="5.78" height="22.01"/>
					<path class="st8" d="M68.72,150.04c1.13,0.56,1.13,1.46,0,2.02c-1.13,0.56-2.96,0.56-4.09,0c-1.13-0.56-1.13-1.46,0-2.02
						C65.76,149.48,67.59,149.48,68.72,150.04z"/>
					<path class="st10" d="M68.72,128.03c1.13,0.56,1.13,1.46,0,2.02c-1.13,0.56-2.96,0.56-4.09,0c-1.13-0.56-1.13-1.46,0-2.02
						C65.76,127.47,67.59,127.47,68.72,128.03z"/>
				</g>
				<g>
					<rect x="61.28" y="123.41" class="st9" width="10.8" height="6.05"/>
					<path class="st9" d="M70.49,127.57c2.11,1.04,2.11,2.73,0,3.77c-2.11,1.04-5.53,1.04-7.63,0c-2.11-1.04-2.11-2.73,0-3.77
						C64.96,126.53,68.38,126.53,70.49,127.57z"/>
					<path class="st10" d="M70.49,121.52c2.11,1.04,2.11,2.73,0,3.77c-2.11,1.04-5.53,1.04-7.63,0c-2.11-1.04-2.11-2.73,0-3.77
						C64.96,120.48,68.38,120.48,70.49,121.52z"/>
				</g>
				<g>
					<rect x="59.04" y="114.11" class="st7" width="15.27" height="8.55"/>
					<path class="st7" d="M72.07,119.99c2.98,1.47,2.98,3.86,0,5.34c-2.98,1.47-7.81,1.47-10.8,0c-2.98-1.47-2.98-3.86,0-5.34
						C64.26,118.52,69.09,118.52,72.07,119.99z"/>
					<path class="st10" d="M72.07,111.44c2.98,1.47,2.98,3.86,0,5.34c-2.98,1.47-7.81,1.47-10.8,0c-2.98-1.47-2.98-3.86,0-5.34
						C64.26,109.97,69.09,109.97,72.07,111.44z"/>
				</g>
			</g>
			<path class="st4" d="M148.25,65.14v24.02l-19.94,9.85l-20.04,9.91L83.9,120.97c-8.37,4.13-21.91,4.13-30.27,0l-0.31-0.16
				c-4.18-2.06-6.27-4.77-6.27-7.48c0-2.71,2.09-5.42,6.27-7.49l12.47-6.17l24.47-12.09l20.04-9.91l31.64-15.65l4.3,2.12l1.74,0.85
				L148.25,65.14z"/>
			<polygon class="st4" points="148.25,65.14 148.25,83.57 121.85,91.34 99.1,98.04 47.05,113.34 47.05,89.05 82.67,78.57 
				105.42,71.88 140.82,61.46 141.94,62.02 146.24,64.15 147.97,65 			"/>
			<path class="st5" d="M147.97,65l-34.12,16.87l-20.05,9.91l-9.91,4.9c-4.94,2.44-11.7,3.44-18.11,3c-4.45-0.3-8.73-1.31-12.16-3
				l-0.31-0.16c-4.18-2.06-6.27-4.77-6.27-7.48c0-2.71,2.09-5.42,6.27-7.49l22.49-11.12l20.04-9.91l21.54-10.64l0.29,0.14
				l23.15,11.43l1.12,0.56l4.3,2.12L147.97,65z"/>
			<g class="st11">
				<path class="st1" d="M104.39,89.59v1.95l-14.92,7.38v-1.95L104.39,89.59z M104.39,92.69l-14.92,7.38v1.95l14.92-7.38V92.69z
					 M104.39,95.8l-14.92,7.38v1.95l14.92-7.38V95.8z M104.39,98.91l-14.92,7.38v1.95l14.93-7.38L104.39,98.91z M104.39,102.02
					l-14.93,7.38v1.95l14.93-7.38V102.02z M104.39,105.12l-14.93,7.38v1.95l14.93-7.38V105.12z"/>
			</g>
			<g>
				<rect x="59.12" y="86.33" class="st7" width="15.03" height="3.13"/>
				<path class="st7" d="M71.95,86.83c2.94,1.45,2.94,3.8,0,5.26c-2.94,1.45-7.7,1.45-10.63,0c-2.94-1.45-2.94-3.81,0-5.26
					C64.25,85.38,69.01,85.38,71.95,86.83z"/>
				<path class="st8" d="M71.95,83.7c2.94,1.45,2.94,3.81,0,5.26c-2.94,1.45-7.7,1.45-10.63,0c-2.94-1.45-2.94-3.8,0-5.26
					C64.25,82.25,69.01,82.25,71.95,83.7z"/>
				<path class="st9" d="M69.89,82.88c1.8,0.89,1.8,2.33,0,3.22c-1.8,0.89-4.71,0.89-6.51,0c-1.8-0.89-1.8-2.33,0-3.22
					C65.18,81.99,68.09,81.99,69.89,82.88z"/>
			</g>
			<polygon class="st4" points="126.08,203.69 145.8,193.94 145.8,156.86 126.08,166.61 			"/>
			<polygon class="st5" points="113.73,146.77 117.41,148.56 137.13,138.81 133.44,137.02 			"/>
			<polygon class="st1" points="126.08,203.69 113.73,197.61 113.73,146.77 117.41,148.56 126.08,166.61 			"/>
			<polygon class="st5" points="126.08,166.61 117.41,148.56 137.13,138.81 145.8,156.86 			"/>
			<g>
				<polygon class="st1" points="125,160.86 119.36,149.13 136.37,140.72 142,152.45 				"/>
				<polygon class="st1" points="142.71,153.92 143.85,156.29 126.84,164.7 125.71,162.33 				"/>
			</g>
			<g>
				<polygon class="st12" points="126.88,158.31 139.01,152.37 134.46,143.27 122.33,149.21 				"/>
				<g>
					<polygon class="st13" points="133.97,144.31 132.13,145.21 132.72,146.41 134.56,145.51 					"/>
					<polygon class="st8" points="131.75,145.4 129.91,146.3 130.51,147.49 132.35,146.59 					"/>
					<polygon class="st4" points="135.52,147.43 133.68,148.33 134.28,149.52 136.12,148.62 					"/>
					<polygon class="st8" points="133.31,148.51 131.47,149.41 132.07,150.6 133.91,149.7 					"/>
					<path class="st5" d="M129.78,147.35l1.36,2.72c0.19,0.38,0.03,0.84-0.36,1.03l-4.54,2.22c-0.39,0.19-0.86,0.04-1.05-0.34
						l-1.36-2.72c-0.19-0.38-0.03-0.84,0.36-1.03l4.54-2.22C129.12,146.82,129.59,146.97,129.78,147.35z"/>
					<polygon class="st8" points="136.3,148.99 134.46,149.89 135.06,151.08 136.9,150.18 					"/>
					<polygon class="st13" points="134.76,145.9 130.7,147.88 131.3,149.08 135.35,147.09 					"/>
					<polygon class="st8" points="127.45,153.32 125.61,154.22 126.21,155.41 128.05,154.51 					"/>
					<polygon class="st13" points="137.08,150.54 135.24,151.44 135.84,152.64 137.67,151.74 					"/>
					<polygon class="st8" points="134.87,151.63 133.03,152.53 133.62,153.72 135.46,152.82 					"/>
					<polygon class="st4" points="131.29,152.27 129.45,153.17 130.05,154.36 131.89,153.46 					"/>
					<polygon class="st8" points="128.23,154.88 126.39,155.78 126.99,156.97 128.83,156.07 					"/>
				</g>
			</g>
			<polygon class="st14" points="163.14,158.05 133.37,172.77 133.37,209.57 163.14,194.85 			"/>
			<g>
				<defs>
					<polygon id="SVGID_1_" points="163.14,158.05 133.37,172.77 133.37,206.62 163.14,191.9 					"/>
				</defs>
				<clipPath id="SVGID_2_">
					<use xlink:href="#SVGID_1_"  style="overflow:visible;"/>
				</clipPath>
				<g class="st15">
					<g>
						<rect x="151.82" y="199.58" class="st10" width="4.35" height="4.26"/>
						<path class="st10" d="M152.46,203.08c-0.85,0.42-0.85,1.1,0,1.52c0.85,0.42,2.22,0.42,3.07,0c0.85-0.42,0.85-1.1,0-1.52
							C154.68,202.66,153.3,202.66,152.46,203.08z"/>
						<path class="st8" d="M152.46,198.82c-0.85,0.42-0.85,1.1,0,1.52c0.85,0.42,2.22,0.42,3.07,0c0.85-0.42,0.85-1.1,0-1.52
							C154.68,198.4,153.3,198.4,152.46,198.82z"/>
					</g>
					<g>
						<path class="st10" d="M158.05,199.42v-5.57l-8.11,0v5.57c0,0.51,0.4,1.03,1.19,1.42c1.58,0.78,4.15,0.78,5.74,0
							C157.65,200.44,158.05,199.93,158.05,199.42z"/>
						<path class="st8" d="M151.12,192.43c-1.58,0.78-1.58,2.05,0,2.84c1.58,0.78,4.15,0.78,5.74,0c1.58-0.78,1.58-2.05,0-2.84
							C155.28,191.64,152.71,191.64,151.12,192.43z"/>
					</g>
					<g>
						<path class="st7" d="M157.08,190.47c-1.88-0.6-4.3-0.6-6.18,0h-2.65v4.16c0,0.73,0.56,1.45,1.68,2.01
							c2.24,1.11,5.87,1.11,8.11,0c1.12-0.55,1.68-1.28,1.68-2.01l0-4.16H157.08z"/>
						<path class="st16" d="M149.94,188.46c-2.24,1.11-2.24,2.9,0,4.01c2.24,1.11,5.87,1.11,8.11,0c2.24-1.11,2.24-2.9,0-4.01
							C155.81,187.35,152.18,187.35,149.94,188.46z"/>
					</g>
					<g>
						<rect x="150.7" y="183.71" class="st9" width="6.59" height="6.45"/>
						<path class="st9" d="M151.66,189.02c-1.29,0.64-1.29,1.67,0,2.3c1.29,0.64,3.37,0.64,4.66,0c1.29-0.64,1.29-1.67,0-2.3
							C155.03,188.38,152.95,188.38,151.66,189.02z"/>
						<path class="st8" d="M151.66,182.56c-1.29,0.64-1.29,1.67,0,2.3c1.29,0.64,3.37,0.64,4.66,0c1.29-0.64,1.29-1.67,0-2.3
							C155.03,181.93,152.95,181.93,151.66,182.56z"/>
					</g>
					<g>
						<path class="st17" d="M159.73,173.17h-11.48v10.59c0,0.73,0.56,1.45,1.68,2.01c2.24,1.11,5.87,1.11,8.11,0
							c1.12-0.55,1.68-1.28,1.68-2.01V173.17z"/>
						<path class="st8" d="M149.94,171.16c-2.24,1.11-2.24,2.9,0,4.01c2.24,1.11,5.87,1.11,8.11,0c2.24-1.11,2.24-2.9,0-4.01
							C153.17,168.75,154.82,168.75,149.94,171.16z"/>
					</g>
					<g>
						<rect x="149.94" y="169.04" class="st10" width="8.11" height="3.56"/>
						<path class="st10" d="M151.12,171.18c-1.58,0.78-1.58,2.05,0,2.84c1.58,0.78,4.15,0.78,5.74,0c1.58-0.78,1.58-2.05,0-2.84
							C155.28,170.4,152.71,170.4,151.12,171.18z"/>
						<path class="st8" d="M151.12,167.62c-1.58,0.78-1.58,2.05,0,2.84c1.58,0.78,4.15,0.78,5.74,0c1.58-0.78,1.58-2.05,0-2.84
							C155.28,166.84,152.71,166.84,151.12,167.62z"/>
					</g>
					<path class="st7" d="M157.08,165.71c-1.88-0.6-4.3-0.6-6.18,0h-2.65v4.16c0,0.73,0.56,1.45,1.68,2.01
						c2.24,1.11,5.87,1.11,8.11,0c1.12-0.55,1.68-1.28,1.68-2.01l0-4.16H157.08z"/>
					<path class="st16" d="M149.94,163.71c-2.24,1.11-2.24,2.9,0,4.01c2.24,1.11,5.87,1.11,8.11,0c2.24-1.11,2.24-2.9,0-4.01
						C155.81,162.6,152.18,162.6,149.94,163.71z"/>
					<g>
						<path class="st9" d="M158.05,165.5v-5.57l-8.11,0v5.57c0,0.51,0.4,1.03,1.19,1.42c1.58,0.78,4.15,0.78,5.74,0
							C157.65,166.52,158.05,166.01,158.05,165.5z"/>
						<path class="st8" d="M151.12,158.51c-1.58,0.78-1.58,2.05,0,2.84c1.58,0.78,4.15,0.78,5.74,0c1.58-0.78,1.58-2.05,0-2.84
							C155.28,157.72,152.71,157.72,151.12,158.51z"/>
					</g>
					<g>
						<rect x="151.82" y="155.49" class="st10" width="4.35" height="4.26"/>
						<path class="st10" d="M152.46,158.99c-0.85,0.42-0.85,1.1,0,1.52c0.85,0.42,2.22,0.42,3.07,0c0.85-0.42,0.85-1.1,0-1.52
							C154.68,158.57,153.3,158.57,152.46,158.99z"/>
						<path class="st8" d="M152.46,154.73c-0.85,0.42-0.85,1.1,0,1.52c0.85,0.42,2.22,0.42,3.07,0c0.85-0.42,0.85-1.1,0-1.52
							C154.68,154.31,153.3,154.31,152.46,154.73z"/>
					</g>
				</g>
				<g class="st15">
					<g>
						<path class="st10" d="M146.06,209.96v-14.09l-8.11,0v14.09c0,0.51,0.4,1.03,1.19,1.42c1.58,0.78,4.15,0.78,5.74,0
							C145.67,210.98,146.06,210.47,146.06,209.96z"/>
						<path class="st8" d="M139.13,194.45c-1.58,0.78-1.58,2.05,0,2.84c1.58,0.78,4.15,0.78,5.74,0c1.58-0.78,1.58-2.05,0-2.84
							C143.29,193.67,140.72,193.67,139.13,194.45z"/>
					</g>
					<g>
						<path class="st7" d="M147.74,185.49h-11.48v10.59c0,0.73,0.56,1.45,1.68,2.01c2.24,1.11,5.87,1.11,8.11,0
							c1.12-0.55,1.68-1.28,1.68-2.01V185.49z"/>
						<path class="st8" d="M137.95,183.48c-2.24,1.11-2.24,2.9,0,4.01c2.24,1.11,5.87,1.11,8.11,0c2.24-1.11,2.24-2.9,0-4.01
							C141.18,181.07,142.83,181.07,137.95,183.48z"/>
					</g>
					<g>
						<rect x="137.95" y="181.36" class="st10" width="8.11" height="3.56"/>
						<path class="st10" d="M139.13,183.51c-1.58,0.78-1.58,2.05,0,2.84c1.58,0.78,4.15,0.78,5.74,0c1.58-0.78,1.58-2.05,0-2.84
							C143.29,182.72,140.72,182.72,139.13,183.51z"/>
						<path class="st8" d="M139.13,179.94c-1.58,0.78-1.58,2.05,0,2.84c1.58,0.78,4.15,0.78,5.74,0c1.58-0.78,1.58-2.05,0-2.84
							C143.29,179.16,140.72,179.16,139.13,179.94z"/>
					</g>
					<g>
						<rect x="139.83" y="176.96" class="st10" width="4.35" height="4.26"/>
						<path class="st10" d="M140.47,180.46c-0.85,0.42-0.85,1.1,0,1.52c0.85,0.42,2.22,0.42,3.07,0c0.85-0.42,0.85-1.1,0-1.52
							C142.69,180.04,141.32,180.04,140.47,180.46z"/>
						<path class="st8" d="M140.47,176.2c-0.85,0.42-0.85,1.1,0,1.52c0.85,0.42,2.22,0.42,3.07,0c0.85-0.42,0.85-1.1,0-1.52
							C142.69,175.78,141.32,175.78,140.47,176.2z"/>
					</g>
					<path class="st7" d="M145.09,171.93c-1.88-0.6-4.3-0.6-6.18,0h-2.65v4.16c0,0.73,0.56,1.45,1.68,2.01
						c2.24,1.11,5.87,1.11,8.11,0c1.12-0.55,1.68-1.28,1.68-2.01l0-4.16H145.09z"/>
					<path class="st16" d="M137.95,169.92c-2.24,1.11-2.24,2.9,0,4.01c2.24,1.11,5.87,1.11,8.11,0c2.24-1.11,2.24-2.9,0-4.01
						C143.82,168.81,140.19,168.81,137.95,169.92z"/>
					<g>
						<path class="st9" d="M146.06,171.71v-5.57l-8.11,0v5.57c0,0.51,0.4,1.03,1.19,1.42c1.58,0.78,4.15,0.78,5.74,0
							C145.67,172.74,146.06,172.23,146.06,171.71z"/>
						<path class="st8" d="M139.13,164.72c-1.58,0.78-1.58,2.05,0,2.84c1.58,0.78,4.15,0.78,5.74,0c1.58-0.78,1.58-2.05,0-2.84
							C143.29,163.94,140.72,163.94,139.13,164.72z"/>
					</g>
					<g>
						<rect x="139.83" y="161.7" class="st10" width="4.35" height="4.26"/>
						<path class="st10" d="M140.47,165.2c-0.85,0.42-0.85,1.1,0,1.52c0.85,0.42,2.22,0.42,3.07,0c0.85-0.42,0.85-1.1,0-1.52
							C142.69,164.78,141.32,164.78,140.47,165.2z"/>
						<path class="st8" d="M140.47,160.94c-0.85,0.42-0.85,1.1,0,1.52c0.85,0.42,2.22,0.42,3.07,0c0.85-0.42,0.85-1.1,0-1.52
							C142.69,160.52,141.32,160.52,140.47,160.94z"/>
					</g>
				</g>
			</g>
		</g>
		<polygon class="st5" points="181.62,162.46 163.14,158.05 163.14,194.85 181.62,199.26 		"/>
		<g>
			<path class="st18" d="M164.9,226.85c8.6,3.81,18.13,5.18,27.96,6.05c5.25,0,5.61-9.63,2.91-10.42l-8.69-2.29l-23.81,5.31
				C163.7,225.99,164.24,226.44,164.9,226.85z"/>
			<path d="M193.54,224.46l5.9,0.27l3.75-0.2c3.21,0.34,3.55,7.06,2.78,13.18l-5.9,3.18c-2.01-0.09-2.51-0.22-4.03-1.2
				c-0.64-0.96-0.56-2.02,1.48-3.48l-0.4-3.52l-4.04-0.65C190.35,231.16,190.51,225.69,193.54,224.46z"/>
			<path class="st13" d="M152.9,234.84c8.6,3.81,18.12,5.18,27.96,6.05c3.56,0,4.87-4.44,4.5-7.55c-0.19-1.45-0.75-2.62-1.61-2.87
				l-8.8-2.32c0,0,14.2-5.06,17.8-8.16c4.22-3.65,2.75-8.81,2.15-10.87c-0.01-0.1-0.04-0.18-0.06-0.26
				c-0.05-0.16-0.39-0.74-0.71-1.29c-0.3-0.51-0.57-0.98-0.57-1.03c0-0.25-2.17,0.34-5.11,1.25c-0.76,0.24-1.57,0.48-2.39,0.75
				c-3.49,1.11-7.44,2.44-10.11,3.36c-0.43,0.15-0.82,0.29-1.18,0.41c-1.23,0.42-1.99,0.68-1.99,0.68c-0.04,0.02-0.06,0.04-0.1,0.05
				c-0.35,0.18-0.7,0.36-1.03,0.54c-1.53,0.8-3.04,1.6-4.49,2.42c-2.66,1.48-5.18,2.99-7.52,4.52c-3.02,1.98-5.73,4.01-8.04,6.12
				C149.25,230.34,149.91,232.99,152.9,234.84z"/>
			<path d="M181.36,231.5l5.9,0.27l3.75-0.2c3.21,0.34,3.55,7.06,2.79,13.18l-5.9,3.18c-2.01-0.09-2.51-0.22-4.03-1.2
				c-0.64-0.96-0.56-2.02,1.48-3.48l-0.4-3.52l-4.04-0.65C178.17,238.19,178.33,232.73,181.36,231.5z"/>
			<path class="st13" d="M192.76,219.99c-3.6,3.11-17.79,8.16-17.79,8.16l8.8,2.32c0.86,0.25,1.41,1.42,1.59,2.88l-6.44,1.24
				c-2.35-4.07-9.61-5.57-17.47-6.2c12.13-1.83,19.44-5.55,17.53-12.29c7.59,5.6,15.75-1.14,15.87-7.24
				C195.38,210.73,197.16,216.18,192.76,219.99z"/>
			<g>
				<path class="st19" d="M164.3,172.32l-0.45-0.01l-1.59,0.26l-0.76,0.21l-1.62,0.59l-0.35,0.33l-3.74-1.6
					c-1.14-0.46-1.7,0.28-0.75,0.78c1.45,0.69,2.74,1.52,3.86,2.53c0.76,0.97,1.33,2.05,0.86,2.75l-2.54,0.4
					c-1.27,0.33-0.57,1.21,0.14,1.12c1.3-0.01,2.53,0.1,3.63,0.36c1.57-0.4,3.09-0.6,4.52-0.42l3.23-1.99
					c-0.56-0.59-0.91-1.29-1.22-1.97c-0.4-0.89-0.75-1.75-1.39-2.31L164.3,172.32z"/>
				<path class="st19" d="M144.68,182.36l-1.66-4.19c-0.39-0.84-1.47-0.67-1.18,0.25l0.91,3.41l-2.89-4.45
					c-0.6-0.73-1.62-0.28-1.22,0.51l2.21,4.22l-3.47-3.74c-0.61-0.69-1.54-0.13-0.82,0.8l2.37,3.68l-2.62-2.16
					c-0.76-0.51-1.32,0.12-0.73,0.66l3.18,3c0.12,1.91,0.95,3.66,2.35,5.29c1.08,1.07,3.89,2.8,4.21,2.61l3.12-2.73l-2.65-0.85
					c0.33-0.38,0.5-0.82,0.56-1.33c0.01-0.08,0.02-0.16,0.02-0.25c0.01-0.2,0-0.38-0.01-0.56l-0.05-0.14l-0.41-4.12
					C145.79,181.24,144.78,181.46,144.68,182.36z"/>
				<path class="st18" d="M196.13,184.87c-3.2,3.95-18.48,3.91-21.04,3.94c-4.85-2.39-5.79-4.32-10.51-8.84
					c-1.27-2.5,1.01-4.28,3.14-3.88c4.51,1.88,5.2,2.72,7.8,4.07c4.37-2.57,11.94-2.64,15.41-3.83
					C195.34,178.16,199.41,180.82,196.13,184.87z"/>
				<path class="st13" d="M198.26,184.45c-0.79,9.84-3.1,19.48-4.33,22.3c-6.47,8.13-21.29,7.16-22,6.9
					c-1.5-4.79-3.05-13.64-3.42-20.13c-0.13-2.4-0.35-4.77-0.8-7.01c7.26-5.61,13.73-8.14,23.2-10.21
					C195.61,176.26,198.16,179.95,198.26,184.45z"/>
				<path class="st13" d="M171.93,213.66c-1.5-4.79-3.05-13.64-3.42-20.13l3.99-0.7C171.79,207.87,175.24,209.45,171.93,213.66z"/>
				<path class="st19" d="M176.09,176.52l-0.01,4.88c6,2.51,12.73-1.66,11.79-3.76l-2.51-3.99L176.09,176.52z"/>
				<path class="st13" d="M172.92,195.07c-3.2,3.95-15.48,4.52-18.05,4.55c-4.85-2.39-6.47-3.55-11.19-8.07
					c-1.27-2.5,0.6-4.48,2.73-4.09c4.34,1.63,6.29,2.16,8.9,3.51c5.57-2.32,8.94-3.25,12.41-4.44
					C172.14,188.36,176.21,191.02,172.92,195.07z"/>
				<path class="st19" d="M173.49,176.57c1.87,1.78,4.65,1.5,7.48,0.83c4.12-1.69,7.06-4.15,6.58-8.76
					c0.28-3.36-1.55-6.85-8.22-6.59c-4.24,0.16-7.84,1.53-8.03,5.42C171.29,167.47,171.18,174.8,173.49,176.57z"/>
				<path d="M187.62,170.8c-0.15,1.15-0.38,2.18-0.65,2.96c-0.21,0.59-0.43,1.03-0.65,1.28c-1.41,1.79-6.11,3.34-9.31,1.42
					l-0.98-2.27c0,0-1.86-1.34-2.06-1.39c-0.19-0.05,0.08-3.07,0.08-3.07c-1.39-0.85-2.41-1.87-2.76-3.21
					c-0.49-3.04,2.75-5.71,8.01-5.57c5.32,0.13,7.86,2.98,8.41,5.94C187.82,168.22,187.77,169.58,187.62,170.8z"/>
				<path class="st19" d="M174.56,173.22c-0.52-0.48,0.25-1.62,0.82-1.78c0.79-0.23,1.24,0.75,1.33,1.29
					c0.12,0.72,0.03,1.28-0.44,1.89c-0.53,0.69-1.39,0.03-1.67-0.52C174.41,173.7,174.89,173.53,174.56,173.22z"/>
				<g>
					<path class="st20" d="M183.87,172.48l0.29,0.84c1.21-0.29,2.21-0.71,2.95-1.29l0.19-1.07
						C186.29,171.77,185.34,172.25,183.87,172.48z"/>
					<path class="st18" d="M172.9,168.95c-3.46-2.34-6.43-4.01-6.53-5.64c-0.02-2.24,2.86-3.96,5.3-3.85
						c1.93,0.12,4.15,0.92,6.5,2.03L172.9,168.95z"/>
					<path class="st13" d="M171.78,165.96c-0.29,4.37,4.94,7.16,10.87,7.46c0.76-0.01,1.03-0.03,1.5-0.1
						c-0.27-0.98,0.16-2.1,1.58-2.64c1.08-0.42,1.51,0.17,1.37,1.36c1.26-1.14,1.21-2.82,0.87-4.94c-1.37-3.85-3.78-6.49-9.28-6.8
						C175.44,160.58,172.51,162.02,171.78,165.96z"/>
				</g>
				<path class="st19" d="M169.87,177.04c-2.69-0.12-4.68,2.19-3.85,4.34l-2.5-1.8l0.65-3.52l3.39-0.29L169.87,177.04z"/>
				<path class="st19" d="M148.4,188.19c-2.68-0.2-4.24,2.62-3.4,4.6l-1.99-1.65l-0.06-3.61l2.9-0.34L148.4,188.19z"/>
			</g>
		</g>
		<polygon class="st5" points="143.85,187.96 133.37,172.77 133.37,209.57 143.85,224.76 		"/>
		<g>
			<path class="st7" d="M135.25,240.25l7.04,3.48c0.19,0.09,0.27,0.28,0.18,0.42c-0.1,0.14-0.33,0.18-0.52,0.08l-7.04-3.48
				C134.7,240.6,135.04,240.18,135.25,240.25z"/>
			<g>
				<path class="st4" d="M141.49,244.34c0,0.14,0.04,0.25,0.12,0.32c0.02,0.02,0.03,0.03,0.05,0.04c0.04,0.02,1.08,0.53,1.08,0.53
					c-0.1-0.07-0.16-0.19-0.16-0.35c0-0.36,0.3-0.81,0.67-0.99c0.17-0.09,0.33-0.1,0.45-0.05c0,0-1.05-0.52-1.05-0.52l-0.06-0.03
					c-0.16-0.04-0.29-0.02-0.44,0.05C141.79,243.53,141.49,243.97,141.49,244.34z"/>
			</g>
			<path class="st4" d="M144.46,243.7l4.18,2.07c0.7,0.35,0.94,1.12,0.54,1.72c-0.42,0.62-1.32,0.83-2.02,0.48l-4.18-2.07
				c-0.7-0.35-0.94-1.12-0.54-1.72C142.86,243.56,143.76,243.36,144.46,243.7z"/>
			<path class="st4" d="M143.02,243.65c0.44-0.22,0.8-0.04,0.8,0.39c0,0.44-0.36,0.96-0.8,1.18c-0.44,0.22-0.8,0.04-0.8-0.39
				C142.22,244.39,142.58,243.86,143.02,243.65z"/>
			<path class="st5" d="M142.7,244.87l4.19,2.07c0.14,0.07,0.25,0.23,0.25,0.37c0,0.16-0.11,0.21-0.25,0.15l-4.19-2.07
				c-0.14-0.07-0.25-0.23-0.25-0.37C142.45,244.85,142.56,244.8,142.7,244.87z"/>
			<path class="st5" d="M143.88,243.71l4.19,2.07c0.14,0.07,0.14,0.18,0,0.24c-0.16,0.08-0.38,0.08-0.52,0.01l-4.19-2.07
				c-0.14-0.07-0.14-0.18,0-0.24C143.52,243.64,143.74,243.64,143.88,243.71z"/>
			<path class="st5" d="M143.1,244.18l4.34,2.12c0.11,0.05,0.13,0.17,0.06,0.27c-0.09,0.12-0.24,0.16-0.34,0.11l-4.34-2.12
				c-0.11-0.05-0.13-0.17-0.05-0.27C142.85,244.17,142.99,244.13,143.1,244.18z"/>
			<polygon class="st7" points="135.8,240.72 135.39,240.92 134.31,240.58 133.65,240 134.06,239.79 135.12,240.19 			"/>
			<path class="st8" d="M135.82,240.57c0.29,0.22,0.01,0.34-0.41,0.2l-1.08-0.34l-0.69-0.43l0.41-0.2l1.08,0.24L135.82,240.57z"/>
		</g>
		<g>
			<g>
				<path class="st8" d="M146.02,239.47c-0.24-0.12-0.57-0.15-0.8-0.07c0-0.15,0-0.3,0-0.46l0-0.06c0.23-0.07,0.57-0.04,0.8,0.07
					C146.02,239.13,146.02,239.3,146.02,239.47z"/>
			</g>
			<g>
				<path class="st8" d="M146.08,239.5c-0.02-0.01-0.04-0.02-0.06-0.03c0-0.17,0-0.34,0-0.52c0,0.17,0,0.34,0,0.51
					c0-0.17,0-0.34,0-0.51c0.02,0.01,0.04,0.02,0.06,0.03C146.08,239.16,146.08,239.33,146.08,239.5c0-0.17,0-0.34,0-0.52
					C146.08,239.16,146.08,239.33,146.08,239.5L146.08,239.5z"/>
			</g>
			<g>
				<path class="st8" d="M146.27,239.75c0-0.08-0.06-0.17-0.19-0.25c0-0.17,0-0.34,0-0.52c0.13,0.08,0.19,0.17,0.19,0.25
					C146.27,239.39,146.27,239.6,146.27,239.75z"/>
			</g>
			<g>
				<path class="st21" d="M146.27,239.24l0,0.52c0,0.07-0.05,0.14-0.14,0.19l0-0.52C146.22,239.38,146.27,239.31,146.27,239.24z"/>
			</g>
			<g>
				<polygon class="st7" points="146.42,239.6 146.42,240.12 144.24,238.81 144.24,238.3 				"/>
			</g>
			<g>
				<polygon class="st8" points="147.75,239.41 147.75,239.93 147.59,240.04 147.6,239.52 				"/>
			</g>
			<g>
				<path class="st8" d="M147.63,240.06c-0.39-0.1-0.87-0.08-1.21,0.06c0-0.15,0-0.3,0-0.46l0-0.06c0.34-0.14,0.82-0.16,1.21-0.06
					C147.63,239.7,147.63,239.9,147.63,240.06z"/>
			</g>
			<g>
				<path class="st8" d="M147.6,239.52c-0.35-0.08-0.84-0.06-1.18,0.08l-2.18-1.3l0.31-0.13l1.78,0.49l1.42,0.75L147.6,239.52z
					 M145.22,238.88l0.91,0.54c0.21-0.11,0.19-0.3-0.05-0.44c-0.02-0.01-0.04-0.02-0.06-0.03
					C145.79,238.84,145.45,238.81,145.22,238.88L145.22,238.88z"/>
			</g>
			<polygon class="st22" points="143.53,238.8 143.44,238.71 143.43,239.23 143.53,239.32 144.39,240.12 144.39,239.61 			"/>
			<g>
				<path class="st21" d="M144.77,239.72l0-0.52c0,0.09,0.08,0.19,0.23,0.26c0.33,0.14,0.71,0.15,0.93,0.05l0,0.52
					c-0.22,0.1-0.6,0.09-0.88-0.03C144.85,239.91,144.77,239.81,144.77,239.72z"/>
			</g>
			<g>
				<path class="st8" d="M148.21,240.54c0-0.08-0.03-0.16-0.1-0.23l0-0.52c0.07,0.07,0.1,0.15,0.1,0.23
					C148.21,240.18,148.21,240.38,148.21,240.54z"/>
			</g>
			<g>
				<polygon class="st8" points="146.25,240.31 146.25,240.83 146.14,240.78 146.14,240.27 				"/>
			</g>
			<g>
				<polygon class="st8" points="146.53,240.15 146.53,240.66 146.25,240.83 146.25,240.31 				"/>
			</g>
			<path class="st7" d="M146.08,238.99c-0.02-0.01-0.04-0.02-0.06-0.03c-0.24-0.12-0.57-0.15-0.8-0.07c-0.04,0.12-0.04,0.36,0,0.45
				c0.04,0.09,0.37,0.27,0.53,0.33c0.13,0.05,0.31-0.09,0.38-0.24C146.33,239.32,146.32,239.13,146.08,238.99z"/>
			<g>
				<polygon class="st10" points="145.88,240.32 145.88,240.84 144.39,240.12 144.39,239.61 				"/>
			</g>
			<g>
				<path class="st8" d="M146.63,239.81c-0.16,0.09-0.2,0.23-0.1,0.34l-0.28,0.16l-0.1-0.04c-0.04-0.02-0.27,0.06-0.27,0.06
					l-1.48-0.72l-0.86-0.8l-0.1-0.09l0.26-0.15l1.16,0.49c-0.16,0.12-0.09,0.29,0.15,0.41c0.33,0.14,0.71,0.15,0.93,0.05l0.35,0.15
					L146.63,239.81z"/>
			</g>
			<g>
				<path class="st8" d="M147.57,239.79c0.27,0.16,0.23,0.36-0.04,0.47c-0.26,0.11-0.63,0.1-0.86-0.02
					c-0.08-0.05-0.11-0.07-0.14-0.1c-0.1-0.11-0.06-0.24,0.1-0.34c0.02-0.01,0.05-0.03,0.08-0.04
					C146.96,239.67,147.34,239.68,147.57,239.79z"/>
			</g>
			<path class="st7" d="M148.03,240.32c-0.03,0.02-0.05,0.04-0.08,0.06c-0.07,0.04-0.16,0.08-0.25,0.11
				c-0.32,0.1-0.72,0.11-1.06,0.03c-0.08-0.02-0.16-0.05-0.24-0.08c-0.02-0.01-0.04-0.02-0.06-0.03c-0.08-0.04-0.15-0.09-0.2-0.14
				c-0.04-0.02-0.27,0.06-0.27,0.06l0,0.52l0.23-0.07c0.09,0.07,0.16,0.11,0.24,0.15c0.02,0.01,0.04,0.02,0.06,0.03
				c0.07,0.03,0.15,0.06,0.24,0.08c0.34,0.08,0.74,0.07,1.06-0.03c0.09-0.03,0.17-0.06,0.25-0.11c0.03-0.02,0.06-0.04,0.08-0.06
				c0.12-0.09,0.18-0.19,0.18-0.29l0-0.52C148.21,240.13,148.15,240.23,148.03,240.32z"/>
			<g>
				<path class="st8" d="M147.89,239.64c0.09,0.05,0.17,0.1,0.22,0.16c0.16,0.17,0.13,0.37-0.08,0.52
					c-0.03,0.02-0.05,0.04-0.08,0.06c-0.07,0.04-0.16,0.08-0.25,0.11c-0.32,0.1-0.72,0.11-1.06,0.03c-0.08-0.02-0.16-0.05-0.24-0.08
					c-0.02-0.01-0.04-0.02-0.06-0.03c-0.08-0.04-0.15-0.09-0.2-0.14l0.1,0.04l0.28-0.16c0.02,0.03,0.05,0.05,0.09,0.07
					c0.27,0.14,0.65,0.15,0.91,0.04c0.27-0.11,0.31-0.31,0.08-0.45c-0.27-0.14-0.65-0.15-0.91-0.04c-0.03,0.01-0.05,0.02-0.08,0.04
					l-0.34-0.14c0.04-0.02,0.08-0.04,0.13-0.06c0.34-0.14,0.82-0.16,1.21-0.06c0.07,0.02,0.13,0.04,0.19,0.07
					C147.85,239.62,147.87,239.63,147.89,239.64z"/>
			</g>
			<g>
				<path class="st8" d="M148.56,239.8c-0.04,0.14,0.06,0.25,0.29,0.36c0.07,0.03,0.14,0.07,0.23,0.1l-0.25,0.37l-0.79-0.31
					c0.21-0.16,0.23-0.36,0.08-0.52l0.18-0.1L148.56,239.8z"/>
			</g>
			<polygon class="st7" points="148.82,240.63 148.03,240.32 148.03,240.83 148.82,241.15 149.07,240.78 149.08,240.26 			"/>
			<g>
				<polygon class="st22" points="146.65,240.73 146.65,241.25 146.43,241.11 146.43,240.6 				"/>
			</g>
			<g>
				<path class="st8" d="M147.7,240.48l0.62,0.4l-0.75,0.12c-0.08-0.05-0.16-0.09-0.23-0.13c-0.21-0.1-0.41-0.15-0.68-0.13
					l-0.23-0.14l0.21-0.09C146.98,240.59,147.38,240.58,147.7,240.48z"/>
			</g>
			<g>
				<polygon class="st16" points="148.32,240.88 148.32,241.39 147.57,241.51 147.57,241 				"/>
			</g>
			<g>
				<path class="st7" d="M147.57,241l0,0.52c-0.08-0.05-0.16-0.09-0.23-0.13c-0.21-0.1-0.41-0.15-0.68-0.13l0-0.52
					c0.28-0.02,0.48,0.03,0.68,0.13C147.41,240.9,147.49,240.95,147.57,241z"/>
			</g>
			<g>
				<path class="st18" d="M157.77,243.44c0-0.03-0.01-0.07-0.04-0.1l-0.14-0.13c-0.55-0.56-1.29-1.07-2.16-1.5
					c-1.43-0.71-3.24-1.22-5.23-1.46c-0.1-0.01-0.19-0.04-0.26-0.07c-0.13-0.06-0.19-0.15-0.15-0.26c-0.07-0.05-0.24-0.07-0.24-0.07
					c-0.14,0.1-0.19,0.14-0.26,0.16c-0.08,0.02-0.17,0.03-0.26,0.02l-0.07-0.01c-0.03,0-0.07,0-0.1,0.01
					c-0.03,0.01-0.05,0.02-0.06,0.04l-0.08,0.2l-0.13,0.31l0,0.69c-0.02-0.05-0.04-0.1-0.05-0.14c-0.01-0.05-0.02-0.09-0.03-0.13
					c-0.02-0.08-0.07-0.16-0.24-0.26l-0.64,0.06l-0.4,0.04c-0.03,0-0.06,0.01-0.08,0.03c0.01,0.13-0.01,0.17-0.06,0.21
					c-0.05,0.04-0.13,0.06-0.22,0.07c-0.07,0.01-0.09,0.01-0.1,0.03c-0.01,0.02-0.02,0.85-0.02,0.85c0,0.01,0.03,0.09,0.03,0.09
					c0.05,0.03,0.08,0.04,0.1,0.04c0.21-0.02,0.39,0.01,0.52,0.08c0.07,0.04,0.13,0.08,0.15,0.14c0.47,1.03,1.52,1.97,3,2.7
					c0.82,0.41,1.77,0.75,2.83,1.02l0.26,0.07c0.18,0.05,0.41,0.02,0.5-0.07l0.12-0.11l0.15-0.14c0.03-0.03,0.04-0.05,0.04-0.08
					l0-0.82c0-0.05-0.04-0.09-0.11-0.13c-0.03-0.01-0.06-0.02-0.09-0.03l-0.73-0.2c-0.02-0.01-0.05-0.01-0.08,0
					c-0.03,0-0.05,0.01-0.06,0.02c-0.81-0.2-1.46-0.45-2.04-0.73c-1.32-0.66-2.27-1.49-2.7-2.41c0.17,0.06,0.31,0.09,0.45,0.1
					c0.09,0.01,0.17,0.01,0.29,0.02c2.01,0.18,3.84,0.67,5.26,1.37c0.59,0.29,1.1,0.62,1.54,0.98l0,0.17
					c0.01,0.02,0.4,0.39,0.4,0.39c0.02,0.02,0.04,0.03,0.07,0.05c0.11,0.06,0.28,0.07,0.42,0.04l0.29-0.07l0.23-0.06
					c0.12-0.03,0.19-0.09,0.19-0.16L157.77,243.44C157.78,243.44,157.77,243.44,157.77,243.44z"/>
				<g class="st23">
					<g>
						<path class="st13" d="M148.26,240.75c0.17,0.1,0.22,0.18,0.24,0.26c0.01,0.04,0.02,0.09,0.03,0.13
							c0.35,1.05,1.35,1.99,2.82,2.72c0.58,0.29,1.23,0.54,1.94,0.75c0.11-0.03,0.14-0.03,0.16-0.04c0.03,0,0.06,0,0.08,0l0.73,0.2
							c0.03,0.01,0.06,0.02,0.09,0.03c0.11,0.06,0.15,0.14,0.07,0.21l-0.15,0.14l-0.12,0.11c-0.09,0.09-0.32,0.12-0.5,0.07
							l-0.26-0.07c-1.06-0.27-2.01-0.61-2.83-1.02c-1.49-0.73-2.54-1.67-3-2.7c-0.03-0.05-0.08-0.1-0.15-0.14
							c-0.12-0.06-0.31-0.09-0.49-0.08c-0.05,0-0.08,0-0.1-0.01c-0.03-0.03-0.06-0.11-0.06-0.11c0.02-0.04,0.04-0.05,0.07-0.05
							c0.13-0.01,0.21-0.04,0.26-0.08c0.05-0.04,0.07-0.08,0.05-0.13c0.02-0.1,0.05-0.11,0.09-0.11l0.4-0.04L148.26,240.75z"/>
					</g>
				</g>
				<g>
					<path class="st13" d="M155.44,241.71c0.87,0.43,1.61,0.94,2.16,1.5l0.14,0.13c0.1,0.09,0.03,0.2-0.14,0.25l-0.23,0.06
						l-0.29,0.07c-0.14,0.04-0.31,0.02-0.42-0.04c-0.03-0.01-0.05-0.03-0.07-0.05l-0.39-0.37c-0.37-0.51-0.92-0.86-1.55-1.17
						c-1.42-0.7-3.24-1.18-5.26-1.37c-0.11-0.01-0.2-0.01-0.29-0.02c-0.16-0.01-0.32-0.04-0.52-0.12l0.13-0.31l0.08-0.2
						c0.01-0.02,0.03-0.03,0.06-0.04c0.03-0.01,0.06-0.01,0.1-0.01l0.07,0.01c0.09,0.01,0.18,0,0.26-0.02
						c0.08-0.02,0.13-0.06,0.15-0.11c0.12-0.06,0.29-0.04,0.29-0.04c0.03,0.16,0.1,0.25,0.22,0.31c0.07,0.03,0.16,0.06,0.26,0.07
						C152.2,240.5,154.01,241,155.44,241.71z"/>
				</g>
			</g>
			<g>
				<path class="st7" d="M144.86,239.06c-0.14,0.1-0.1,0.25,0.08,0.37C144.88,239.33,144.85,239.22,144.86,239.06z"/>
			</g>
		</g>
		<g>
			<g>
				<path class="st8" d="M141.53,229.64H124.3v2.73c0,1.09,0.84,2.18,2.52,3.01c3.36,1.66,8.82,1.66,12.18,0
					c1.68-0.83,2.52-1.92,2.52-3.01L141.53,229.64z"/>
				<path class="st22" d="M126.82,226.63c-3.36,1.66-3.36,4.36,0,6.02c3.36,1.66,8.82,1.66,12.18,0c3.36-1.66,3.36-4.36,0-6.02
					C135.64,224.97,130.19,224.97,126.82,226.63z"/>
			</g>
			<g>
				<path class="st7" d="M128.67,231.74c0.4,0.2,0.4,0.52,0,0.72c-0.4,0.2-1.05,0.2-1.45,0c-0.4-0.2-0.4-0.52,0-0.72
					C127.62,231.54,128.27,231.54,128.67,231.74z"/>
				<path class="st7" d="M138.62,226.82c0.4,0.2,0.4,0.52,0,0.72c-0.4,0.2-1.05,0.2-1.45,0c-0.4-0.2-0.4-0.52,0-0.72
					C137.56,226.63,138.22,226.63,138.62,226.82z"/>
				<path class="st7" d="M137.16,231.74c0.4-0.2,1.05-0.2,1.45,0c0.4,0.2,0.4,0.52,0,0.72c-0.4,0.2-1.05,0.2-1.45,0
					C136.76,232.26,136.76,231.94,137.16,231.74z"/>
				<path class="st7" d="M127.22,226.82c0.4-0.2,1.05-0.2,1.45,0c0.4,0.2,0.4,0.52,0,0.72c-0.4,0.2-1.05,0.2-1.45,0
					C126.81,227.34,126.81,227.02,127.22,226.82z"/>
				<ellipse class="st7" cx="132.92" cy="233.12" rx="1.03" ry="0.51"/>
				<path class="st7" d="M132.92,225.66c0.57,0,1.03,0.23,1.03,0.51c0,0.28-0.46,0.51-1.03,0.51c-0.57,0-1.03-0.23-1.03-0.51
					C131.89,225.88,132.35,225.66,132.92,225.66z"/>
				<path class="st7" d="M138.92,229.64c0-0.28,0.46-0.51,1.03-0.51c0.57,0,1.03,0.23,1.03,0.51s-0.46,0.51-1.03,0.51
					C139.38,230.15,138.92,229.92,138.92,229.64z"/>
				<ellipse class="st7" cx="125.88" cy="229.64" rx="1.03" ry="0.51"/>
			</g>
			<g>
				<rect x="127.93" y="225.35" class="st8" width="9.96" height="4.29"/>
				<ellipse class="st8" cx="132.92" cy="229.64" rx="4.98" ry="2.46"/>
				<path class="st22" d="M129.39,223.6c-1.95,0.96-1.95,2.52,0,3.48c1.95,0.96,5.1,0.96,7.05,0c1.95-0.96,1.95-2.52,0-3.48
					C134.49,222.64,131.34,222.64,129.39,223.6z"/>
			</g>
			<ellipse class="st7" cx="132.92" cy="225.35" rx="2.64" ry="1.31"/>
		</g>
	</g>
	<g id="Layer_1_1_">
		<g>
			<polygon class="st24" points="270.77,34.07 256.28,25.56 251.24,23.18 248.15,21.43 226.68,10.77 212.81,13.88 195.93,22.47 
				244.61,48.06 			"/>
			<path class="st9" d="M226.82,23.58l0.09-16.93c0,0,0.18-4.69-4.59-6.2c-4.77-1.51-9.27,0.87-9.72,5.8l0.09,17.73
				c0,0,1.24,3.1,7.16,2.7C225.76,26.29,224.69,25.88,226.82,23.58z"/>
			<path class="st25" d="M248.13,21.47c0,0,2.91,1.64,3.44,1.96l-0.09-2.06c0,0,0.19-1.73-2.03-0.7L248.13,21.47z"/>
			<path class="st26" d="M256.96,31.76c0,0-2.45,2.32-6.12,0C250.84,31.76,254.22,35.74,256.96,31.76z"/>
			<path class="st27" d="M243.02,24.09l0.09-4.89l4.86-2.54c0,0,8.74-2.46,8.22,5.8l0.09,8.59c0,0-1.5,2.7-4.68,0.16l-0.29-8.64
				c0,0,0.71-3.55-2.3-1.54L243.02,24.09z"/>
			<path class="st28" d="M256.19,25.88c0,0-2.74,2.15-4.68-0.16v1.43c0,0,1.77,2.15,4.59,0.32L256.19,25.88z"/>
			<path class="st28" d="M256.1,28.03c0,0-2.12,1.43-4.5,0.08l-0.18,1.43c0,0,3,1.51,4.59-0.08L256.1,28.03z"/>
			<path class="st29" d="M243.11,32.17l-0.18,0.64c0,0-1.15,2.7-6.1,2.7s-7.6-1.59-7.95-3.1c0,0-0.44-0.08-1.15,0.72
				c0,0,0.53,2.7,4.5,3.26c3.97,0.56,6.98,0.72,10.34-1.19C245.94,33.28,243.11,32.17,243.11,32.17z"/>
			<path class="st30" d="M244.35,33.35c0,0-1.86,3.82-8.3,3.66c-6.45-0.16-8.48-3.82-8.48-3.82l0.18,2.07c0,0,1.5,3.9,8.04,3.49
				c6.54-0.4,8.3-3.18,8.3-3.18L244.35,33.35z"/>
			<path class="st9" d="M242.89,32.62c0.14-0.25,0.22-0.53,0.22-0.81l0.09-16.51c0,0,0.18-4.69-4.59-6.2
				c-4.77-1.51-9.27,0.87-9.72,5.8l0.09,17.73c0,0,1.24,3.1,7.16,2.7C241.71,34.97,241.77,34.58,242.89,32.62z"/>
			<path class="st31" d="M228.89,15.15l-2.48-1.19c0,0-3.53,0.56-2.21,3.58l4.59,2.39L228.89,15.15z"/>
			<path class="st32" d="M226.82,23.5l-0.18,0.64c0,0-1.15,2.7-6.1,2.7c-4.95,0-7.6-1.59-7.95-3.1c0,0-0.44-0.08-1.15,0.72
				c0,0,0.53,2.7,4.5,3.26c3.97,0.56,6.98,0.72,10.34-1.19C229.64,24.61,226.82,23.5,226.82,23.5z"/>
			<path class="st33" d="M228.06,24.69c0,0-1.86,3.82-8.3,3.66c-6.45-0.16-8.48-3.82-8.48-3.82l0.18,2.07c0,0,1.5,3.9,8.04,3.49
				s8.3-3.18,8.3-3.18L228.06,24.69z"/>
			<path class="st34" d="M227.65,14.51c0,0,0.29-1.8-2.12-1.38c-2.42,0.42-3.69,6.21-0.5,4.84l-0.81-0.44c0,0-1.08-2.96,2.21-3.58
				L227.65,14.51z"/>
			<polygon class="st35" points="195.93,22.47 196.2,59.09 199.08,76.15 220.99,87.76 220.82,97.78 221.22,97.94 221.22,102.23 
				244.08,114.16 244.26,47.85 			"/>
			<polygon class="st36" points="202.79,96.88 220.99,87.76 199.08,76.15 181.05,85.54 			"/>
			<polygon class="st37" points="202.97,108.91 202.79,96.88 220.99,87.76 220.82,97.78 219.34,97.04 218.2,97.62 214.1,95.45 
				209.33,98.04 209.39,104.67 210.39,105.1 			"/>
			<polygon class="st35" points="181.05,85.54 181.18,97.46 202.97,108.91 202.79,96.88 			"/>
			<polygon class="st38" points="184.11,90.94 185.59,91.79 185.71,94.76 184.35,95.55 			"/>
			<polygon class="st39" points="197.37,100.91 185.71,94.76 184.35,95.55 197.43,102.4 			"/>
			<polygon class="st40" points="197.55,97.99 197.37,100.91 185.71,94.76 185.59,91.79 			"/>
			<polygon class="st41" points="221.22,97.94 219.34,97.04 213.34,100.27 215.1,101.22 			"/>
			<polygon class="st8" points="215.16,108.54 215.1,101.22 213.34,100.27 213.16,108.01 			"/>
			<polygon class="st7" points="221.11,105.73 221.22,97.94 215.1,101.22 215.16,108.54 			"/>
			<polygon class="st42" points="218.2,97.63 214.1,95.45 209.33,98.04 213.34,100.27 			"/>
			<polygon class="st35" points="213.18,107.77 212.89,106.45 209.21,104.56 209.33,98.04 213.34,100.27 			"/>
			<polygon class="st24" points="244.08,114.16 221.22,102.23 221.11,105.73 215.16,108.54 213.16,108.01 212.86,106.42 
				210.39,105.1 202.97,108.91 181.18,97.46 181.11,88.19 168.92,94.39 225.06,123.91 			"/>
			<polygon class="st43" points="225.12,154.92 225.06,123.86 168.92,94.39 168.74,125.5 			"/>
			<polygon class="st9" points="182,110.34 181.88,117.71 212.51,133.83 212.63,126.19 			"/>
			<polygon class="st37" points="178.11,108.49 182,110.34 181.88,117.71 178.17,119.88 			"/>
			<polygon class="st44" points="212.51,133.83 181.88,117.71 178.17,119.88 212.51,137.64 			"/>
			<polygon class="st37" points="271.3,131.07 225.12,154.92 225.06,123.86 244.08,114.16 244.26,47.85 270.94,33.97 271.12,37.15 
				296.92,35.29 297.21,104.04 270.88,106.05 			"/>
			<polygon class="st35" points="270.88,40.28 293.79,38.58 293.74,101.22 271,102.97 			"/>
			<path class="st45" d="M262.28,48.52l-9.72,5.05c-0.2,0.1-0.27,0.33-0.15,0.51l0.34,0.53c0.11,0.18,0.37,0.24,0.57,0.14l9.72-5.05
				c0.2-0.1,0.27-0.33,0.15-0.51l-0.34-0.53C262.73,48.47,262.47,48.41,262.28,48.52z"/>
			<path class="st45" d="M262.26,51.34l-9.72,5.05c-0.2,0.1-0.27,0.33-0.15,0.51l0.34,0.53c0.11,0.18,0.37,0.24,0.57,0.14l9.72-5.05
				c0.2-0.1,0.27-0.33,0.15-0.51l-0.34-0.53C262.71,51.29,262.46,51.24,262.26,51.34z"/>
			<path class="st45" d="M262.32,54.04l-9.72,5.05c-0.2,0.1-0.27,0.33-0.15,0.51l0.34,0.53c0.11,0.18,0.37,0.24,0.57,0.14l9.72-5.05
				c0.2-0.1,0.27-0.33,0.15-0.51l-0.34-0.53C262.77,54,262.51,53.94,262.32,54.04z"/>
			<path class="st45" d="M262.14,56.91l-9.72,5.05c-0.2,0.1-0.27,0.33-0.15,0.51l0.34,0.53c0.11,0.18,0.37,0.24,0.57,0.14l9.72-5.05
				c0.2-0.1,0.27-0.33,0.15-0.51l-0.34-0.53C262.59,56.86,262.34,56.8,262.14,56.91z"/>
			<path class="st45" d="M262.32,59.82l-9.72,5.05c-0.2,0.1-0.27,0.33-0.15,0.51l0.34,0.53c0.11,0.18,0.37,0.24,0.57,0.14l9.72-5.05
				c0.2-0.1,0.27-0.33,0.15-0.51l-0.34-0.53C262.77,59.78,262.51,59.72,262.32,59.82z"/>
			<path class="st45" d="M262.37,62.58l-9.72,5.05c-0.2,0.1-0.27,0.33-0.15,0.51l0.34,0.53c0.11,0.18,0.37,0.24,0.57,0.14l9.72-5.05
				c0.2-0.1,0.27-0.33,0.15-0.51l-0.34-0.53C262.83,62.53,262.58,62.47,262.37,62.58z"/>
			<path class="st45" d="M262.26,65.12l-9.72,5.05c-0.2,0.1-0.27,0.33-0.15,0.51l0.34,0.53c0.11,0.18,0.37,0.24,0.57,0.14l9.72-5.05
				c0.2-0.1,0.27-0.33,0.15-0.51l-0.34-0.53C262.71,65.07,262.46,65.02,262.26,65.12z"/>
			<path class="st46" d="M267.82,77.54l-5.66-2.97c0,0-4.59-1.27-8.13,4.67c-3.53,5.93-1.18,9.54-1.18,9.54v9.11l1.89,0.53v-9.01
				l4.01,2.12c0,0-3.18-3.29,0.82-9.22C263.58,76.36,267.82,77.54,267.82,77.54z"/>
			<path class="st47" d="M263.93,91.85c0,0-3.72,1.14-5.25-0.55l-3.94-1.89v8.9l9.31-4.67L263.93,91.85z"/>
			<path class="st48" d="M267.5,77.44c0,0-4.19-0.67-7.92,4.86c-3.76,5.59-0.96,9.23-0.96,9.23s4.49,3.44,9.44-3.08
				C272.99,81.96,268.5,77.31,267.5,77.44z"/>
			<path class="st49" d="M268.29,79.02l-7.89,3.92c-0.25,0.32-2.87,3.71-1.29,6.78c0.24,0.45,0.62,1.03,1.29,1.59
				c2.2-1.13,4.4-2.26,6.59-3.39c0.44-0.4,2.57-2.4,2.48-5.41C269.42,80.87,268.72,79.64,268.29,79.02z"/>
			<path class="st50" d="M267.29,81.14l-6.95,3.61c-0.33,0.18-0.45,0.56-0.25,0.86l0.24,0.38c0.2,0.3,0.62,0.4,0.95,0.23l6.95-3.61
				c0.33-0.18,0.45-0.56,0.25-0.86l-0.24-0.38C268.06,81.08,267.63,80.97,267.29,81.14z"/>
			<polygon class="st45" points="262.14,86.57 266.85,84.08 266.97,84.64 262.25,87.05 			"/>
			<polygon class="st51" points="267.41,128.21 267.28,111.99 263.96,110.08 256.54,114.18 259.54,115.72 259.9,132.02 			"/>
			<polygon class="st7" points="256.8,130.67 259.9,132.02 259.54,115.72 256.54,114.18 			"/>
			<polygon class="st51" points="252.43,116.48 255.39,118.11 255.48,134.65 248.23,138.46 247.97,122.08 244.97,120.41 			"/>
			<polygon class="st7" points="244.97,136.87 248.23,138.46 247.97,122.08 244.97,120.41 			"/>
			<polygon class="st45" points="265.85,126.64 261.32,129 261.19,128.63 265.67,126.45 			"/>
			<polygon class="st45" points="265.87,124.97 261.33,127.33 261.21,126.96 265.69,124.78 			"/>
			<polygon class="st45" points="265.92,123.25 261.39,125.6 261.27,125.24 265.75,123.06 			"/>
			<polygon class="st45" points="265.78,121.66 261.24,124.02 261.13,123.64 265.6,121.47 			"/>
			<polygon class="st45" points="265.78,119.88 261.24,122.24 261.13,121.87 265.6,119.69 			"/>
			<polygon class="st45" points="265.69,118.29 261.15,120.65 261.04,120.28 265.52,118.1 			"/>
			<polygon class="st45" points="265.96,116.49 261.42,118.85 261.3,118.48 265.78,116.3 			"/>
			<polygon class="st45" points="265.91,114.77 261.37,117.13 261.14,116.62 265.58,114.34 			"/>
			<polygon class="st45" points="254.17,132.78 249.64,135.14 249.52,134.78 254,132.6 			"/>
			<polygon class="st45" points="254.12,131.14 249.58,133.5 249.46,133.13 253.94,130.96 			"/>
			<polygon class="st45" points="254.29,129.34 249.75,131.7 249.64,131.33 254.12,129.16 			"/>
			<polygon class="st45" points="254.03,127.8 249.49,130.16 249.37,129.8 253.85,127.62 			"/>
			<polygon class="st45" points="254.21,126.08 249.66,128.44 249.55,128.07 254.03,125.9 			"/>
			<polygon class="st45" points="254.12,124.36 249.58,126.72 249.46,126.34 253.94,124.18 			"/>
			<polygon class="st45" points="254.21,122.64 249.66,125 249.55,124.62 254.03,122.45 			"/>
			<polygon class="st45" points="254.1,120.94 249.57,123.3 249.33,122.79 253.78,120.51 			"/>
			<polygon class="st51" points="243.7,124.31 240.76,122.62 233.33,126.54 236.45,128.1 			"/>
			<polygon class="st7" points="236.26,143.87 233.3,142.2 233.33,126.54 236.45,128.1 			"/>
			<polygon class="st52" points="243.7,124.31 243.64,140.21 236.22,143.87 236.45,128.1 			"/>
			<polygon class="st51" points="236.52,132.21 236.87,132.21 243.97,128.71 243.64,128.37 244.14,128.65 244.26,129.69 
				236.92,133.48 236.52,133.32 			"/>
			<polygon class="st51" points="236.54,138.88 236.89,138.88 243.99,135.39 243.66,135.04 244.17,135.33 244.28,136.37 
				236.95,140.15 236.54,139.99 			"/>
			<polygon class="st7" points="242.76,131.3 240.72,132.18 240.64,134.65 242.67,133.53 			"/>
			<polygon class="st7" points="239.27,137.07 239.27,134.13 238.43,134.65 237.19,134.33 237.28,137.91 			"/>
			<polygon class="st53" points="243.86,134.33 242.67,133.53 240.64,134.65 240.68,136.27 241.91,136.67 241.87,135.16 			"/>
			<polygon class="st54" points="243.86,135.68 243.86,134.33 241.87,135.16 241.91,136.67 			"/>
			<polygon class="st54" points="240.2,133.73 238.43,134.65 238.3,133.09 240.15,132.18 			"/>
			<polygon class="st53" points="237.19,134.33 238.43,134.65 238.3,133.09 240.15,132.18 239.71,131.91 237.41,133.06 			"/>
			<path class="st7" d="M238.36,140.41c0.4,0,0.73,0.33,0.73,0.73c0,0.4-0.33,0.73-0.73,0.73s-0.73-0.33-0.73-0.73
				C237.63,140.74,237.96,140.41,238.36,140.41z"/>
			<ellipse class="st7" cx="241.99" cy="139.24" rx="0.73" ry="0.73"/>
			<ellipse class="st7" cx="238.31" cy="129.06" rx="0.73" ry="0.73"/>
			<ellipse class="st7" cx="241.85" cy="126.99" rx="0.73" ry="0.73"/>
			<path class="st55" d="M229.68,61.98c0,0,2.56-0.56,2.3-3.34c-0.27-2.78-1.86-5.17-3.53-6.12c-1.68-0.96-4.15-0.87-4.95,0.32
				L229.68,61.98z"/>
			<path class="st56" d="M222.26,54.98c0,0,0.44-3.26,3.53-2.31s4.68,5.17,4.68,5.17s1.86,5.01-3.71,3.9L222.26,54.98z"/>
			<path class="st57" d="M213.63,46.58c0,0,3.12-2.07,6.24,2.33c3.12,4.4,0.71,7.26-0.53,7.26L213.63,46.58z"/>
			<path class="st58" d="M211.63,49.49c0,0,0.71-6.73,6.77,0.05c0,0,5.3,8.64-2.48,6.57L211.63,49.49z"/>
			<path class="st59" d="M200.73,82.89c0,0,1.42,3.71-5.72,3.82c-7.12,0.1-6.07-4.61-6.07-4.61L200.73,82.89z"/>
			<path class="st60" d="M190.77,80.08c0,0-6.24,3.98,3.83,5.3c0,0,10.01-0.53,4.59-5.3H190.77z"/>
			<path class="st61" d="M211.54,88.51c0,0,1.42,3.71-5.72,3.82c-7.12,0.1-6.07-4.61-6.07-4.61L211.54,88.51z"/>
			<path class="st62" d="M201.73,85.57c0,0-6.24,3.98,3.83,5.3c0,0,10.01-0.53,4.59-5.3H201.73z"/>
			<path class="st63" d="M226.44,13.04c0,0-2.85-0.97-3.74,1.58c0,0-1.24,3.13,0.65,3.23c0,0-0.65-1.54,0.35-3.13
				C224.7,13.13,226.44,13.04,226.44,13.04z"/>
			<path class="st64" d="M256.16,29.94l0.02,1.11c0,0-1.77,2.54-4.68,0.16l0.09-1.27c0,0-2.21,1.34,0.09,2.39
				c2.36,1.08,4.86,0,4.86,0S258.11,31.21,256.16,29.94z"/>
			<polygon class="st45" points="262.85,87.39 266.17,85.7 266.26,86.01 263.05,87.71 			"/>
			<path class="st36" d="M219.29,65.24c0,0,2.18-4.98-4.18-6.31l2.53-1.27c0,0,5.59,1.49,4.06,6.47L219.29,65.24z"/>
			<path class="st9" d="M229.15,60.15c0.09-0.43,0.42-2.23-0.8-4.03c-1.1-1.64-2.77-2.25-3.27-2.41c-3.59,1.9-7.19,3.82-10.78,5.72
				c0,0-8.34,3.15-11.34,11.47c-3,8.32-0.89,17.01-1.35,17.39c0.2,0.21,1.69,1.76,4.18,1.75c2.46-0.01,3.92-1.53,4.12-1.75
				c-0.04-3.69-0.08-7.38-0.11-11.08c0,0,1.06-7.21,6.89-10.39C222.52,63.65,229.15,60.15,229.15,60.15z"/>
			<path class="st65" d="M219.29,65.24c0,0,2.18-4.98-4.18-6.31l2.53-1.27c0,0,5.59,1.49,4.06,6.47L219.29,65.24z"/>
			<path class="st65" d="M222.63,63.53c0,0,2.18-4.98-4.18-6.31l2.53-1.27c0,0,5.59,1.49,4.06,6.47L222.63,63.53z"/>
			<path class="st65" d="M201.67,78.39c0,0,3.47,4.35,8.16,0.26l-0.19,2.61c0,0-4.42,3.42-8.24-0.43L201.67,78.39z"/>
			<path class="st65" d="M201.69,81.79c0,0,3.47,4.35,8.16,0.26l-0.19,2.61c0,0-4.42,3.42-8.24-0.43L201.69,81.79z"/>
			<path class="st8" d="M213.92,48.28l-14.26,7.58c0,0-8.13,5.72-8.78,14.26c-0.65,8.54-0.11,12.62-0.11,12.62
				c0.28,0.25,1.78,1.58,4.18,1.59c2.44,0.01,3.97-1.35,4.24-1.59c-0.02-3.48-0.04-6.96-0.06-10.44c0,0,0.42-7.69,6.83-11.08
				c6.42-3.39,12.43-6.57,12.43-6.57c0.08-0.27,0.71-2.47-0.89-4.4C216.23,48.67,214.35,48.34,213.92,48.28z"/>
			<path class="st66" d="M214.01,56.76c0,0,2.18-4.98-4.18-6.31l2.53-1.27c0,0,5.59,1.49,4.06,6.47L214.01,56.76z"/>
			<path class="st66" d="M210.83,58.4c0,0,2.18-4.98-4.18-6.31l2.53-1.27c0,0,5.59,1.49,4.06,6.47L210.83,58.4z"/>
			<path class="st66" d="M191.03,74.45c0,0,3.36,4.42,8.15,0.42l-0.25,2.6c0,0-4.5,3.33-8.23-0.6L191.03,74.45z"/>
			<path class="st66" d="M190.9,78.09c0,0,3.36,4.42,8.15,0.42l-0.25,2.6c0,0-4.5,3.33-8.23-0.6L190.9,78.09z"/>
		</g>
	</g>
</g>
</svg>
