<?xml version="1.0" encoding="utf-8"?>
<!-- Generator: Adobe Illustrator 25.1.0, SVG Export Plug-In . SVG Version: 6.00 Build 0)  -->
<svg version="1.1" id="Layer_1" xmlns="http://www.w3.org/2000/svg" xmlns:xlink="http://www.w3.org/1999/xlink" x="0px" y="0px"
	 viewBox="0 0 300 265" style="enable-background:new 0 0 300 265;" xml:space="preserve">
<style type="text/css">
	.st0{fill:#60B8BC;}
	.st1{fill:#219B9B;}
	.st2{fill:#F9F0D6;}
	.st3{fill:#70A400;}
	.st4{fill:#5D7D00;}
	.st5{fill:#FF9695;}
	.st6{fill:#E96767;}
	.st7{fill:#FFFFFF;}
	.st8{fill:#57474C;}
	.st9{fill:#FFAE80;}
	.st10{fill:#E99161;}
	.st11{fill:#DFBD98;}
	.st12{fill:#8F8962;}
	.st13{fill:#736B43;}
	.st14{fill:#CECAC8;}
	.st15{fill:#B58F9C;}
	.st16{fill:#905745;}
	.st17{fill:#A36350;}
	.st18{fill:#FFAEAF;}
	.st19{fill:#F9B9AC;}
	.st20{fill:#F69679;}
	.st21{fill:#3F0727;}
	.st22{fill:#F79679;}
	.st23{fill:#FABFB7;}
	.st24{fill:#FF7D6F;}
	.st25{fill:#FC5B68;}
	.st26{fill:#CF4A57;}
	.st27{fill:#55062C;}
	.st28{fill:#161818;}
	.st29{fill:#F9B4A3;}
	.st30{fill:#6F0A32;}
	.st31{fill:#FBBEA7;}
	.st32{fill:#414156;}
	.st33{fill:#313044;}
	.st34{fill:#696969;}
	.st35{fill:#C0C0C0;}
	.st36{fill:#F8B4A3;}
</style>
<g id="OBJECTS">
	<g>
		<g>
			<g>
				<g>
					<g>
						<g>
							
								<rect x="19.1" y="144.6" transform="matrix(0.9938 -0.1115 0.1115 0.9938 -19.9669 3.7557)" class="st0" width="8.9" height="71.6"/>
							
								<rect x="19.1" y="144.8" transform="matrix(0.9938 -0.1115 0.1115 0.9938 -20.0038 3.5076)" class="st1" width="4.5" height="71.6"/>
						</g>
						<polygon class="st2" points="24,144.3 15.1,145.3 17.4,137.9 18.4,134.8 20,137.6 						"/>
						<polygon class="st1" points="20,137.6 17.4,137.9 18.4,134.8 						"/>
					</g>
					<g>
						<g>
							
								<rect x="11.3" y="180.2" transform="matrix(6.079113e-02 -0.9982 0.9982 6.079113e-02 -140.0748 220.4779)" class="st3" width="71.6" height="8.9"/>
							
								<rect x="9.1" y="182.2" transform="matrix(6.079152e-02 -0.9982 0.9982 6.079152e-02 -141.964 218.0634)" class="st4" width="71.6" height="4.5"/>
						</g>
						<polygon class="st2" points="53.7,149.2 44.9,148.7 48.4,141.7 50,138.7 51.1,141.9 						"/>
						<polygon class="st4" points="51.1,141.9 48.4,141.7 50,138.7 						"/>
					</g>
					<g>
						<g>
							
								<rect x="32.7" y="155.7" transform="matrix(0.9987 -5.017886e-02 5.017886e-02 0.9987 -9.565 2.107)" class="st5" width="8.9" height="71.6"/>
							
								<rect x="32.7" y="155.8" transform="matrix(0.9987 -5.017204e-02 5.017204e-02 0.9987 -9.5717 1.9948)" class="st6" width="4.5" height="71.6"/>
						</g>
						<polygon class="st2" points="39.8,155.6 30.9,156.1 33.7,148.8 34.8,145.7 36.4,148.7 						"/>
						<polygon class="st6" points="36.4,148.7 33.7,148.8 34.8,145.7 						"/>
					</g>
					<g>
						<g>
							<g>
								<path class="st7" d="M33.4,177.5c0-7-4.5-12.8-9.9-12.8s-9.9,5.7-9.9,12.8c0,0.7,0,1.4,0.1,2.1c0.4,3.2,1.8,6.1,3.8,8
									c0,0,0,0,0.1,0.1c0.6,0.6,5.7,6,6,8c0.3,2.2,1.6,19.9,1.6,19.9h4.5c0,0-3.3-18.8-3-20c0.1-0.4,0.7-1.8,1.5-3.4
									c1.3-2.8,3.1-6.5,3.8-7.6c0.1-0.2,0.2-0.3,0.2-0.3l0,0l0,0C32.9,182.3,33.4,180,33.4,177.5z M29.8,183.3
									c-1.4,2.7-3.7,4.6-6.3,4.6c-1.3,0-2.6-0.5-3.8-1.3c-2.3-1.8-3.9-5.2-3.9-9.1c0-5.8,3.4-10.4,7.6-10.4s7.6,4.7,7.6,10.4
									C31.1,179.7,30.7,181.7,29.8,183.3z"/>
								<g>
									<g>
										<path class="st8" d="M23.5,166.7c-4.5,0-8.1,4.9-8.1,10.8c0,6,3.7,10.8,8.1,10.8s8.1-4.9,8.1-10.8
											C31.7,171.6,28.1,166.7,23.5,166.7z M23.5,187.2c-3.9,0-7-4.4-7-9.6c0-5.3,3.1-9.6,7-9.6s7,4.4,7,9.6
											C30.5,182.8,27.3,187.2,23.5,187.2z"/>
									</g>
								</g>
								<path class="st2" d="M29.6,215.6h-4.5c0,0-1.4-17.6-1.6-19.9c-0.3-2-5.4-7.4-6-8l-0.1-0.1c-1.9-1.9-3.3-4.8-3.8-8
									c0.9,1.9,5.7,11.9,10.8,12.5c1.3,0.2,2.5,0.1,3.6,0c-0.8,1.6-1.4,3-1.5,3.4C26.3,196.8,29.6,215.6,29.6,215.6z"/>
								<path class="st7" d="M46.2,164.8c-5.5,0-9.9,5.7-9.9,12.8c0,2.5,0.5,4.9,1.5,6.8l0,0l0,0c0,0,0.1,0.1,0.2,0.3
									c0.9,1.8,5,9.9,5.2,11c0,0-1.8,6-2.9,7.5c-0.1,0.1-0.1,0.1-0.2,0.2c-1.1,1.1-2.4,2.1-1.4,4.1c1,1.9,1.5,8.1,1.5,8.1h4.5
									c0,0,1.4-17.6,1.6-19.9c0.3-2,5.4-7.4,6-8l0.1-0.1c2.3-2.2,3.9-5.8,4-9.7c0-0.1,0-0.3,0-0.4C56,170.6,51.7,164.8,46.2,164.8
									z M39.8,183.4c-0.8-1.6-1.3-3.7-1.3-5.9c0-5.8,3.4-10.4,7.6-10.4s7.6,4.7,7.6,10.4c0,3.9-1.6,7.3-3.9,9.1
									c-1.1,0.8-2.3,1.3-3.8,1.3C43.6,188,41.2,186.2,39.8,183.4z"/>
								<g>
									<g>
										<path class="st8" d="M46.2,166.7c-4.5,0-8.1,4.9-8.1,10.8c0,6,3.7,10.8,8.1,10.8s8.1-4.9,8.1-10.8S50.7,166.7,46.2,166.7z
											 M46.2,187.2c-3.9,0-7-4.4-7-9.6c0-5.3,3.1-9.6,7-9.6s7,4.4,7,9.6C53.2,182.8,50.1,187.2,46.2,187.2z"/>
									</g>
								</g>
							</g>
						</g>
						<path class="st2" d="M56,178c-0.1,4-1.6,7.5-4,9.7c0,0,0,0-0.1,0.1c-0.6,0.6-5.7,6-6,8c-0.3,2.2-1.6,19.9-1.6,19.9h-4.5
							c0,0-0.5-6.2-1.5-8.1c-1-1.9,0.3-2.9,1.4-4.1c0.1-0.1,0.1-0.1,0.2-0.2c0.6,1.5,1.4,2.7,2.3,2.2c2.1-1.2,2.8-11.9,3.7-13.5
							C47,190.5,52.7,188.2,56,178z"/>
					</g>
					<polygon class="st8" points="58.2,265 24.3,265 18.4,213.5 64.1,213.5 					"/>
				</g>
				<g>
					<g>
						<g>
							<rect x="0.9" y="263" class="st9" width="27.9" height="1.9"/>
							<polygon class="st10" points="14.9,256.8 7.2,256.8 2.9,263.1 14.9,263.1 26.9,263.1 22.6,256.8 							"/>
						</g>
						<g>
							<rect x="1" y="220.7" class="st9" width="27.9" height="1.9"/>
							<polygon class="st10" points="14.9,228.9 7.2,228.9 2.9,222.6 14.9,222.6 26.9,222.6 22.6,228.9 							"/>
						</g>
						<rect x="4.4" y="228.9" class="st2" width="22.5" height="27.9"/>
						<path class="st11" d="M30.1,236c-8.5,4-17.4,7.1-26.5,9.4c-1,0.3-0.8,1.6,0.2,1.6l19.1,0.4c-6.7,1.7-13.4,3.7-20.1,5.7
							c-1,0.3-0.6,1.9,0.4,1.6c8.6-2.5,17.2-5,25.9-7.1c0.9-0.2,0.7-1.6-0.2-1.6c-6.5-0.1-13-0.2-19.5-0.4
							c7.4-2.2,14.6-4.9,21.6-8.1C31.8,237,31,235.6,30.1,236z"/>
						<path class="st11" d="M29.6,230.3l-27.3,8.9c-1,0.3-0.6,1.9,0.4,1.6l27.3-8.9C31,231.5,30.6,230,29.6,230.3z"/>
					</g>
					<g>
						<g>
							<rect x="61.5" y="236.6" class="st9" width="1.9" height="27.9"/>
							<polygon class="st10" points="55.2,250.5 55.2,258.2 61.4,262.6 61.4,250.5 61.4,238.5 55.2,242.8 							"/>
						</g>
						<g>
							<rect x="19.1" y="236.6" class="st9" width="1.9" height="27.9"/>
							<polygon class="st10" points="27.2,250.5 27.2,258.2 21.1,262.6 21.1,250.5 21.1,238.5 27.2,242.8 							"/>
						</g>
						<rect x="27.3" y="238.4" class="st12" width="27.9" height="22.5"/>
						<path class="st13" d="M34.3,235.4c4,8.5,7.1,17.4,9.4,26.5c0.2,0.9,1.6,0.7,1.6-0.2l0.4-19.1c1.7,6.7,3.7,13.4,5.7,20.1
							c0.3,1,1.9,0.6,1.6-0.4c-2.5-8.6-5-17.2-7.1-25.9c-0.2-0.9-1.6-0.7-1.6,0.2c-0.1,6.5-0.2,13-0.4,19.5
							c-2.2-7.4-4.9-14.6-8.1-21.6C35.4,233.6,33.9,234.4,34.3,235.4z"/>
						<path class="st13" d="M28.7,235.9l8.9,27.3c0.3,1,1.9,0.6,1.6-0.4l-8.9-27.3C30,234.4,28.4,234.9,28.7,235.9z"/>
					</g>
				</g>
			</g>
			<g>
				<g>
					<rect y="48.5" class="st8" width="104.2" height="78.7"/>
					<rect x="5.8" y="54.4" class="st14" width="92.5" height="67"/>
				</g>
				<g>
					<g>
						<g>
							<rect x="13.9" y="67.8" class="st7" width="21.6" height="21.6"/>
							<rect x="21.1" y="66.5" class="st5" width="7.3" height="2.6"/>
						</g>
						<g>
							<rect x="16.8" y="73.3" class="st15" width="15.9" height="1.5"/>
							<rect x="16.8" y="80.9" class="st15" width="15.9" height="1.5"/>
							<rect x="16.8" y="85" class="st15" width="15.9" height="1.5"/>
						</g>
					</g>
					<g>
						<rect x="13.9" y="97.5" class="st5" width="11.9" height="11.9"/>
						<g>
							<rect x="15.9" y="99.9" class="st6" width="7.7" height="1.1"/>
							<rect x="15.9" y="102.4" class="st6" width="7.7" height="1.1"/>
							<rect x="15.9" y="104.8" class="st6" width="7.7" height="1.1"/>
						</g>
					</g>
				</g>
				<g>
					<g>
						
							<rect x="46.9" y="62.6" transform="matrix(0.9962 -8.721302e-02 8.721302e-02 0.9962 -7.5468 6.1046)" class="st7" width="38.3" height="53.6"/>
						<g>
							<g>
								<g>
									<g>
										<path class="st15" d="M76.4,105.8l-17.6,1.5l-2.3-27.2l0.1-0.1c2.7-3.4,2.1-7.2,2.1-7.2v-0.2l2.6-0.2v0.2
											c0.6,3.1,3.2,4.6,3.9,4.9c0.5-0.4,2.8-2.3,2.9-5.5v-0.2l2.6-0.2v0.2c0,0,0,3.9,3.3,6.8l0.1,0.1L76.4,105.8z M59.2,107
											l16.7-1.4L73.6,79c-2.9-2.6-3.3-5.9-3.3-6.8l-1.8,0.1c-0.2,3.7-3,5.7-3.1,5.7l-0.1,0.1h-0.1C65,78,61.7,76.5,60.9,73
											l-1.8,0.2c0.1,0.9,0.3,4.2-2.1,7.3L59.2,107z"/>
									</g>
								</g>
							</g>
						</g>
						<polygon class="st15" points="78.4,72.8 77.2,71.1 76.3,73 77.2,72.9 80.1,105.5 80.4,105.5 77.6,72.9 						"/>
						<polygon class="st15" points="78.9,108.2 55.9,110.2 55.8,109.3 54.2,110.5 56,111.3 55.9,110.5 78.9,108.5 						"/>
					</g>
					<g>
						<path class="st5" d="M51.8,67.9c0,1.3-1.1,2.3-2.3,2.3c-1.3,0-2.3-1.1-2.3-2.3c0-1.3,1.1-2.3,2.3-2.3
							C50.7,65.6,51.8,66.6,51.8,67.9z"/>
						<path class="st6" d="M49.8,67.3c0,0.8-0.6,1.4-1.4,1.4s-1.4-0.6-1.4-1.4s0.6-1.4,1.4-1.4C49.2,65.8,49.8,66.5,49.8,67.3z"/>
					</g>
				</g>
			</g>
		</g>
		<g>
			<g>
				<rect x="134.1" y="84.8" class="st8" width="48.5" height="5.6"/>
				<g>
					<g>
						<rect x="145.8" y="66.1" class="st9" width="11.8" height="0.8"/>
						<polygon class="st10" points="151.7,69.5 154.9,69.5 156.8,66.9 151.7,66.9 146.6,66.9 148.4,69.5 						"/>
					</g>
					<g>
						<rect x="145.8" y="83.9" class="st9" width="11.8" height="0.8"/>
						<polygon class="st10" points="151.7,81.3 154.9,81.3 156.8,83.9 151.7,83.9 146.6,83.9 148.4,81.3 						"/>
					</g>
					<rect x="146.7" y="69.5" class="st3" width="9.4" height="11.8"/>
					<path class="st4" d="M145.3,78.4c3.6-1.6,7.3-2.9,11.2-4c0.4-0.1,0.3-0.7-0.1-0.7l-8-0.2c2.8-0.7,5.7-1.5,8.4-2.3
						c0.4-0.1,0.2-0.8-0.2-0.7c-3.7,1.1-7.3,2.1-11,3c-0.4,0.1-0.3,0.7,0.1,0.7c2.7,0.1,5.5,0.1,8.2,0.2c-3.1,0.9-6.2,2-9.1,3.4
						C144.5,78,144.9,78.5,145.3,78.4z"/>
					<path class="st4" d="M145.5,80.7l11.6-3.8c0.4-0.1,0.2-0.8-0.2-0.7L145.3,80C144.9,80.2,145,80.9,145.5,80.7z"/>
				</g>
				<g>
					<g>
						<rect x="177.2" y="73" class="st9" width="0.8" height="11.8"/>
						<polygon class="st10" points="174.6,78.9 174.6,82.1 177.3,83.9 177.3,78.9 177.3,73.8 174.6,75.6 						"/>
					</g>
					<g>
						<rect x="159.4" y="73" class="st9" width="0.8" height="11.8"/>
						<polygon class="st10" points="162.9,78.9 162.9,82.1 160.2,83.9 160.2,78.9 160.2,73.8 162.9,75.6 						"/>
					</g>
					<rect x="162.8" y="73.9" class="st0" width="11.8" height="9.4"/>
					<path class="st1" d="M165.8,72.5c1.6,3.6,2.9,7.3,4,11.2c0.1,0.4,0.7,0.3,0.7-0.1l0.2-8c0.7,2.8,1.5,5.7,2.3,8.4
						c0.1,0.4,0.8,0.2,0.7-0.2c-1.1-3.7-2.1-7.3-3-11c-0.1-0.4-0.7-0.3-0.7,0.1c-0.1,2.7-0.1,5.5-0.2,8.2c-0.9-3.1-2-6.2-3.4-9.1
						C166.3,71.8,165.7,72.1,165.8,72.5z"/>
					<path class="st1" d="M163.5,72.7l3.8,11.6c0.1,0.4,0.8,0.2,0.7-0.2l-3.9-11.6C164,72.1,163.3,72.3,163.5,72.7z"/>
				</g>
			</g>
			<g>
				<path class="st6" d="M286.3,155.3c0,0,13,84.4,11.7,109.7H231V163.3L286.3,155.3z"/>
				<g>
					<g>
						<rect x="251.7" y="221.6" class="st16" width="7.5" height="39"/>
						<rect x="251.7" y="221.6" class="st17" width="7.5" height="10.9"/>
						<path class="st16" d="M288.5,265h-66.1l0,0c0-3.7,2.9-6.6,6.6-6.6h52.9C285.6,258.4,288.5,261.3,288.5,265L288.5,265z"/>
					</g>
					<g>
						<g>
							<g>
								<path class="st8" d="M219.5,171.9c1.7-8.1-7.4-28.4-10.9-34.2c-3.3-5.8-4.6-19,5.6-22.7c10.1-3.8,12-0.6,20.5-0.6
									c8.4,0,8.8-18.6,8.8-18.6h8.1h8.1c0,0,0.3,18.6,8.8,18.6c8.4,0,14.9-2.7,25.2,1c10.1,3.8,4.4,16.6,0.9,22.3
									c-3.3,5.8-12.5,26.1-10.9,34.2c0.4,1.8,1.3,3.8,2.5,5.8c8.8,14.7,13.7,31.3,13.7,48.5v0.8h-96.7v-0.8
									c0-17.1,4.9-33.8,13.7-48.5C218.2,175.5,219.2,173.6,219.5,171.9z"/>
							</g>
							<g>
								<g>
									<path class="st7" d="M252,97.5c0-1.1,0-1.7,0-1.7h-0.7c0,0,0,0.7,0,1.8L252,97.5z"/>
								</g>
								<g>
									<path class="st7" d="M260,218l0.7-0.1c0.1,1.1,0.2,2.3,0.3,3.6h-0.7C260.2,220.4,260.1,219.2,260,218z M259.2,210.9
										l0.7-0.1c0.2,1.1,0.3,2.3,0.5,3.6l-0.7,0.1C259.5,213.3,259.3,212.1,259.2,210.9z M258,203.9l0.7-0.1
										c0.2,1.1,0.4,2.3,0.6,3.6l-0.7,0.1C258.4,206.3,258.2,205.1,258,203.9z M256.5,196.9l0.7-0.2c0.3,1.1,0.5,2.2,0.8,3.4
										l-0.7,0.2C257,199.3,256.7,198.1,256.5,196.9z M255,191.1l-0.3-1.1l0.7-0.2l0.3,1.1c0.2,0.8,0.4,1.5,0.6,2.4l-0.7,0.2
										C255.4,192.7,255.2,191.9,255,191.1z M253.1,183l0.7-0.1c0.2,1,0.4,2.1,0.7,3.4l-0.7,0.2
										C253.4,185.2,253.2,184.1,253.1,183z M252.8,179.4v-0.2c0.1-0.9,0.4-2,1-3.3l0.6,0.3c-0.6,1.2-0.9,2.2-1,3v0.2H252.8z
										 M255.8,172.8c0.6-0.8,1.2-1.7,2.1-2.9l0.6,0.4c-0.9,1.1-1.5,2.1-2,2.9L255.8,172.8z M260,167c0.7-0.9,1.4-1.9,2.1-2.8
										l0.6,0.4c-0.7,1-1.4,1.9-2.1,2.8L260,167z M264.2,161.2c0.7-1.1,1.3-2,1.9-3l0.6,0.4c-0.6,1-1.2,1.9-1.9,3L264.2,161.2z
										 M267.7,155c0.5-1.1,1-2.2,1.3-3.2l0.7,0.2c-0.3,1.1-0.8,2.2-1.3,3.3L267.7,155z M269.9,148.3c0.1-0.6,0.1-1.2,0.1-1.8
										c0-0.5,0-1.1-0.1-1.6l0.7-0.1c0.1,0.6,0.1,1.1,0.1,1.7c0,0.6,0,1.3-0.1,1.9L269.9,148.3z M267.9,138.1l0.6-0.3
										c0.5,1.1,0.9,2.2,1.2,3.4l-0.7,0.2C268.9,140.3,268.5,139.2,267.9,138.1z M264.2,132.2l0.5-0.4c0.8,0.9,1.5,1.9,2.1,2.9
										l-0.6,0.4C265.6,134,264.9,133.1,264.2,132.2z M259.1,127.3l0.5-0.5c1,0.9,1.8,1.6,2.6,2.4l-0.5,0.5
										C260.9,128.9,260.1,128.1,259.1,127.3z M253.7,122.4l0.5-0.4c0.6,0.7,1.4,1.4,2.5,2.4l-0.5,0.5
										C255.3,123.9,254.4,123.2,253.7,122.4z M251.8,115.4l0.7-0.1c0.2,1.3,0.3,2.5,0.5,3.6l-0.7,0.1
										C252.1,117.9,252,116.8,251.8,115.4z M251.3,108.2h0.7c0,1.2,0.1,2.4,0.2,3.6h-0.7C251.4,110.7,251.4,109.5,251.3,108.2z
										 M251.2,101.7v-0.6h0.7v0.6c0,0.9,0,1.9,0,2.9h-0.7C251.2,103.6,251.2,102.6,251.2,101.7z"/>
								</g>
								<g>
									<path class="st7" d="M260.5,227h0.7c0-0.6,0-1.2-0.1-1.8h-0.7C260.5,225.7,260.5,226.4,260.5,227z"/>
								</g>
							</g>
							<g>
								<path class="st7" d="M251.7,122.2l0.1-0.7c1.1,0.1,2.3,0.1,3.4,0l0.1,0.7c-0.6,0.1-1.2,0.1-1.7,0.1
									C253,122.3,252.4,122.3,251.7,122.2z M244.8,120l0.3-0.6c1.1,0.5,2.1,1,3.2,1.3l-0.2,0.7C247.2,121.1,245.9,120.7,244.8,120
									z M258.7,120.8c1.1-0.3,2.1-0.8,3.1-1.4l0.3,0.6c-1.1,0.6-2.2,1.1-3.3,1.4L258.7,120.8z M238.8,116.1l0.4-0.5
									c0.9,0.8,1.9,1.5,2.8,2.1l-0.4,0.6C240.8,117.6,239.8,116.9,238.8,116.1z M264.8,117.4c1.6-1.3,2.4-2.4,2.5-2.4l0.6,0.4
									c0,0-0.9,1.2-2.6,2.5L264.8,117.4z"/>
							</g>
							<g>
								<path class="st7" d="M256.8,180.7c1.2,0,2.3-0.1,3.6-0.2l0.1,0.7c-1.1,0.1-2.3,0.2-3.6,0.2L256.8,180.7z M249.7,181.1
									l0.1-0.7c1.2,0.1,2.3,0.2,3.6,0.2v0.7C252.1,181.3,250.9,181.2,249.7,181.1z M263.9,180.1c1.2-0.2,2.3-0.4,3.4-0.7l0.2,0.7
									c-1.1,0.3-2.3,0.5-3.6,0.7L263.9,180.1z M242.6,180.1l0.1-0.7c1.2,0.2,2.3,0.4,3.4,0.6l-0.1,0.7
									C244.9,180.5,243.8,180.4,242.6,180.1z M235.6,178.5l0.2-0.7c1.1,0.3,2.3,0.6,3.4,0.9l-0.2,0.7
									C237.9,179.1,236.8,178.9,235.6,178.5z M270.7,178.4c1.1-0.4,2.2-0.8,3.2-1.3l0.3,0.6c-1,0.5-2.1,0.9-3.3,1.3L270.7,178.4z
									 M228.8,176.4l0.2-0.7c1.1,0.4,2.2,0.7,3.3,1.1l-0.2,0.7C231.1,177.2,229.9,176.8,228.8,176.4z M277.1,175.3
									c1.8-1.1,2.7-2,2.7-2.1l0.5,0.5c0,0-1,1-2.9,2.2L277.1,175.3z M222.1,173.9l0.3-0.6c1.1,0.4,2.2,0.9,3.3,1.3l-0.2,0.7
									C224.3,174.8,223.2,174.3,222.1,173.9z"/>
							</g>
						</g>
					</g>
				</g>
				<path class="st5" d="M242.2,265h-48.5c0-0.5,0-1.1-0.1-1.7c-0.3-14.9,4.6-58.3,8.6-76.8c4.2-19.2,0-18.9-1.9-38.1
					c-1.9-19.3,0.3-32.9,10.2-38.4c5-2.8,12.5-2.8,18.8-2.1c6.3,0.7,11.3,2.1,11.3,2.1c-6.1,10.8,0,32.2,0,43.5
					c0,11.5-7.7,35.9-8.1,40C232,197.5,242.2,265,242.2,265z"/>
				<path class="st6" d="M233.4,128.7c-0.3-5.3-0.3-10.5,0.8-15.7c0.2-1.1-1.5-1.6-1.7-0.5c-1.9,9.3-0.6,18.8,0.3,28.1
					c0.5,4.8,0.9,9.5,0.8,14.3c-0.1,4.8-0.8,9.5-1.8,14.2c-1.1,5.3-2.6,10.5-4.2,15.7c-0.3,1.1,1.4,1.6,1.7,0.5
					c2.6-9.2,5.4-18.6,6-28.2C235.8,147.6,234,138.2,233.4,128.7z"/>
				<path class="st6" d="M236.7,258.9c-1.6-7.4-3-14.9-4.3-22.4c-1.2-7.5-2.3-15-3.2-22.6c-0.5-4.3-1-8.6-1.4-12.9
					c0-0.5-0.4-0.9-0.9-0.9c-0.4,0-0.9,0.4-0.9,0.9c0.7,7.7,1.6,15.3,2.6,22.9c1,7.6,2.3,15.2,3.7,22.7c0.8,4.3,1.6,8.5,2.5,12.7
					C235.2,260.5,236.9,260,236.7,258.9z"/>
				<path class="st18" d="M229.3,107.9c-0.5,0.2-0.9,0.5-1.4,0.7c-7.5,4.2-13,12-14.3,20.5c-1.7,11.3,3.4,22.3,3.9,33.7
					c0.5,13.3-5.5,25.8-10.2,38.1c-7.6,20-12.3,41-13.7,62.3c-0.3-14.9,4.6-58.3,8.6-76.8c4.2-19.2,0-18.9-1.9-38.1
					c-1.9-19.3,0.3-32.9,10.2-38.4C215.4,107.2,223,107.2,229.3,107.9z"/>
			</g>
			<g>
				<g>
					<g>
						<g>
							<polygon class="st19" points="137.9,218.4 156.9,238.5 158.4,236.7 162.6,231.8 144.6,206 140.7,213.3 							"/>
							<polygon class="st20" points="137.9,218.4 156.9,238.5 158.4,236.7 140.7,213.3 							"/>
						</g>
						<g>
							<g>
								<g>
									<g>
										<g>
											<g>
												<path class="st8" d="M155.4,238.1c1.7,2.9,5.8,8.1,6.7,9.1l0.5,0.5l1.5,1.6l2.8-2.7l-1.1-2.3l-0.5-1l1.2,0.3l2.9,0.6
													l14.7-14l-2-2.1c-0.1-0.1-0.2-0.2-0.4-0.3c-0.3-0.2-0.8-0.3-1.2-0.2c-1.9,0.6-8.6,3-11,3.1c-1.8,0.1-4.5-1-5.5-1.5
													L155.4,238.1z"/>
											</g>
										</g>
									</g>
								</g>
							</g>
							<g>
								<g>
									<g>
										<path class="st7" d="M166.4,233.7v0.1c0.1,0.3,0.3,0.6,0.6,0.5c0.2-0.1,0.3-0.2,0.4-0.3c0.4-0.5,0.6-1.1,0.7-1.7
											c0.2-0.6,0.4-1.3,0.2-2c-0.1-0.7-0.9-0.8-1.3-0.2C166.4,230.9,166.1,232.4,166.4,233.7z"/>
									</g>
									<g>
										<path class="st7" d="M169,233.4v0.1c0.1,0.3,0.3,0.6,0.6,0.5c0.2-0.1,0.3-0.2,0.4-0.3c0.4-0.5,0.6-1.1,0.7-1.7
											c0.2-0.6,0.4-1.3,0.2-2c-0.1-0.7-0.9-0.8-1.3-0.2C169,230.6,168.7,232.1,169,233.4z"/>
									</g>
									<g>
										<path class="st7" d="M171.6,232.3v0.1c0.1,0.3,0.3,0.6,0.6,0.5c0.2-0.1,0.3-0.2,0.4-0.3c0.4-0.5,0.6-1.1,0.7-1.7
											c0.2-0.6,0.4-1.3,0.2-2c-0.1-0.7-0.9-0.8-1.3-0.2C171.7,229.6,171.3,231.1,171.6,232.3z"/>
									</g>
								</g>
							</g>
							<path class="st7" d="M181.7,228l-15.2,15.7l2.9,0.6l14.7-14l-2-2.1C182,228.1,181.8,228.1,181.7,228z"/>
							<polygon class="st7" points="162.5,247.9 164.1,249.5 166.9,246.7 165.8,244.4 							"/>
						</g>
					</g>
					<path class="st21" d="M118.9,143.1l-14.3,7.4l-15.8-20.6c0-0.1,0-10.4,0-10.5c0-0.2,0-0.3,0-0.5c0-0.6,0.1-1.3,0.1-2
						c0-0.2,0-0.3,0-0.5c0.1-1.2,0.2-2.4,0.3-3.8c0-0.2,0-0.4,0.1-0.6c0-0.1,0-0.2,0-0.2c0-0.4,0.1-0.7,0.1-1.1
						c0.2-1.4,0.4-2.8,0.7-4.3c0-0.2,0.1-0.4,0.1-0.6c0.2-0.9,0.4-1.8,0.7-2.6c0.1-0.2,0.1-0.4,0.2-0.6s0.1-0.4,0.2-0.5
						c0.2-0.5,0.4-1,0.6-1.5c0-0.1,0.1-0.2,0.1-0.2c0-0.1,0.1-0.2,0.1-0.3c0.1-0.2,0.1-0.3,0.2-0.5c0.3-0.6,0.6-1.2,1-1.6
						c0.1-0.1,0.1-0.2,0.2-0.3c0.1-0.1,0.2-0.3,0.3-0.4c0.1-0.1,0.2-0.2,0.2-0.3c0.3-0.3,0.6-0.6,0.9-0.8c7.3-4.7,14.7-3.4,20.6,1.8
						c0,0,2.4,2.4,2.7,5.6v0.1c0,0.1,0,0.1,0,0.2s0,0.1,0,0.2s0,0.1,0,0.2c0,0.1,0,0.1,0,0.2s0,0.1,0,0.2c0,0.2,0,0.5,0,0.8
						c0,0.3,0,0.7,0,1.1c0,0.1,0,0.3,0,0.4c0,0.9,0,1.8,0.1,2.9c0,0.4,0,0.9,0,1.4c0,0.2,0,0.4,0,0.6c0,0.4,0,0.7,0,1.1
						c0,0.2,0,0.4,0,0.6c0,0.4,0,0.9,0,1.3c0,0.5,0,1,0,1.6v0.1c0,0.4,0,0.7,0,1.1c0,0.4,0,0.7,0,1.1c0,0.3,0,0.5,0,0.8
						c0,0.2,0,0.4,0,0.6c0,0.3,0,0.5,0,0.8c0,0.3,0,0.6,0,0.9c0,0.2,0,0.3,0,0.5c0,0.3,0,0.5,0,0.7c0,0.3,0,0.7,0,1c0,0.7,0,1.3,0,2
						c0,0.2,0,0.3,0,0.5C118.9,129.4,118.9,143.1,118.9,143.1z"/>
					<g>
						<g>
							<g>
								<g>
									<path class="st19" d="M92.1,128.9l4.7-2l9.5,1.2l4,2.9c0,0-2.1,0.1-4.6,0.3s-6.6-0.8-6.6-0.8S92.5,134.6,92.1,128.9z"/>
									<path class="st19" d="M96.7,126.8c0,0,6.2,2.2,7.2,1.9c1-0.3,2.4-0.7,2.4-0.7c-0.2-0.3-1.3-2.7-1.2-3.4
										c0.3-1.7,1.2-4.1,1.2-4.1l-5.7-2.5c0,0-0.4,1.6-0.9,3.3C99.2,123.1,97,126.6,96.7,126.8z"/>
									<path class="st22" d="M99.7,121.4c1.5,1.3,3.3,2.9,4,3.2c0.5,0.2,1,0.2,1.4,0c0.3-1.7,1.2-4.1,1.2-4.1l-5.7-2.5
										C100.6,117.9,100.2,119.5,99.7,121.4z"/>
									<g>
										<path class="st23" d="M98.9,101.3c3.6-3.3,9-4,13-1.1c0.9,0.6,1.6,1.3,1.9,2.1c1.1,2.9,2.1,13.4-0.4,18.2
											c-2.6,4.8-5.9,3.8-7.1,3.3c-1.1-0.5-6.6-3.3-7.7-5.3c-1.1-1.9-3-11.7-2.2-14.1C96.7,103.5,97.7,102.4,98.9,101.3z"/>
										<path class="st19" d="M98.5,100.5c3.6-3.3,9-4,13-1.1c0.9,0.6,1.6,1.3,1.9,2.1c1.1,2.9,2.1,13.4-0.4,18.2
											c-2.6,4.8-5.9,3.8-7.1,3.3c-1.1-0.5-6.6-3.3-7.7-5.3c-1.1-1.9-3-11.7-2.2-14.1C96.4,102.7,97.4,101.6,98.5,100.5z"/>
										<g>
											<path class="st24" d="M108.2,114.4c-0.2-0.1-0.5-0.2-0.8-0.1c0.3,0.6,0.9,1,1.5,1.2h0.1c0.1,0,0.1,0,0.2-0.1
												c0.3-0.2,0.6-0.5,0.8-0.8c0-0.1,0.1-0.1,0.1-0.2c0-0.3-0.1-0.2-0.3-0.1c-0.2,0.1-0.3,0.1-0.5,0.2
												C108.9,114.5,108.5,114.5,108.2,114.4z"/>
											<path class="st25" d="M108.9,115.3c0.1-0.2,0.3-0.3,0.4-0.4c0.2-0.2,0.3-0.4,0.5-0.6c-0.9-0.5-0.9-1.3-1-2.3
												c0-0.4,0.1-0.9,0.2-1.3c0.1-0.2,0.2-0.4,0.3-0.6c0.1-0.1,0.1-0.2,0.2-0.3c0.1-0.1,0.2-0.1,0.3-0.2c0,0.1-0.1,0.1-0.1,0.2
												c-0.1,0.2-0.2,0.3-0.3,0.5c-0.1,0.2-0.2,0.4-0.2,0.5c-0.1,0.4-0.2,0.8-0.1,1.2c0,0.4,0.1,0.8,0.3,1.1
												c0.2,0.4,0.5,0.8,0.9,1c0,0-0.5,0.7-0.5,0.8c-0.1,0.1-0.3,0.3-0.4,0.4c-0.2,0.1-0.3,0.3-0.5,0.3c-0.1,0-0.1,0-0.2,0
												l0.1-0.1l0,0C108.8,115.4,108.9,115.4,108.9,115.3z"/>
											<g>
												<path class="st25" d="M103.7,116.4c1.9,1.3,4.4,1.7,6.5,1.1c-1.1,0.6-2.3,1-3.6,0.8C105.4,118,104.5,117.3,103.7,116.4z
													"/>
												<path class="st24" d="M105.4,118.7c0.8,0.6,1.8,0.7,2.7,0.4c-0.4,0.4-0.9,0.6-1.4,0.6
													C106.3,119.6,105.8,119.1,105.4,118.7z"/>
											</g>
										</g>
										<path class="st19" d="M98.5,113.3c-0.3-0.2-1.6-2.3-2.8-1.2c-1.2,1.1-1.6,3-0.7,4.3c0.8,1.1,2,2.3,3.6,2V113.3z"/>
										<path class="st20" d="M95.7,113.6c-0.1,0.3-0.1,0.5,0,0.8c0.3,1.1,1.2,2,2.2,2.9c-0.3-0.6-0.3-1.2-0.2-1.7
											c0-0.2,0.1-0.4,0.1-0.6C97.8,114.1,96.1,112,95.7,113.6z"/>
										<g>
											<path class="st26" d="M98.3,117.7C98.3,117.7,98.2,117.7,98.3,117.7c-0.1-0.1-0.1-0.1-0.2-0.2s-0.3-0.3-0.5-0.5
												c-0.2-0.2-0.3-0.5-0.3-0.9c0-0.4,0-0.8,0.2-1.1l0.1-0.1l0,0l0,0l0,0l0,0l0,0l0,0l0,0v-0.1c0,0,0-0.1-0.1-0.1
												c-0.1-0.2-0.2-0.3-0.3-0.5c-0.1-0.1-0.2-0.3-0.3-0.4c-0.1-0.1-0.2-0.2-0.3-0.3c-0.1-0.1-0.2-0.2-0.3-0.2
												c-0.1,0-0.2,0-0.3,0c-0.1,0-0.1,0.1-0.1,0.1v0.1c0,0,0,0,0-0.1c0,0,0-0.1,0.1-0.1s0.2-0.1,0.3-0.1s0.3,0.1,0.4,0.2
												s0.2,0.2,0.4,0.3c0.1,0.1,0.2,0.3,0.3,0.4c0.1,0.2,0.2,0.3,0.3,0.5c0,0,0,0.1,0.1,0.1v0.1v0.1v0.1c0,0,0,0,0,0.1
												l-0.1,0.1l-0.1,0.1c-0.2,0.3-0.2,0.7-0.2,1c0,0.3,0.1,0.6,0.2,0.9c0.1,0.2,0.2,0.4,0.3,0.5
												C98.2,117.6,98.2,117.6,98.3,117.7L98.3,117.7z"/>
										</g>
										<path class="st27" d="M114.3,107.4c0,0-1.4-1.3-2.3-1.3s-1.3,0.8-0.9,1C111.3,107.4,114.3,107.4,114.3,107.4z"/>
										<path class="st27" d="M101,107.7c0,0,2.3-1.7,3.8-1.8c1.4-0.1,1.9,0.7,1.3,1C105.5,107.2,101,107.7,101,107.7z"/>
										<g>
											<path class="st28" d="M103.3,108.9c0.1,0.4,0.5,0.7,0.9,0.9c0.2-0.2,0.4-0.3,0.6-0.2c0.6,0.1,1,0.9,0.8,1.8
												c-0.1,0.9-0.7,1.6-1.3,1.6c-0.6-0.1-1-0.9-0.8-1.8c0-0.3,0.1-0.6,0.2-0.8C103.4,109.9,103.3,108.9,103.3,108.9z"/>
											<g>
												<path class="st28" d="M114.3,109.9c-0.1,0.3-0.5,0.5-0.8,0.6c-0.1-0.2-0.3-0.3-0.5-0.3c-0.5,0-0.9,0.5-1,1.3
													s0.3,1.4,0.7,1.4c0.5,0,0.9-0.5,1-1.3c0-0.2,0-0.5,0-0.7C114.1,110.7,114.3,109.9,114.3,109.9z"/>
												<path class="st7" d="M112.9,111.6c0,0,0.5,0.2,0.9,0.1c0.5-0.1,0.7-0.6,0.7-0.6s-0.5-0.2-0.9-0.1
													C113.2,111.2,112.9,111.6,112.9,111.6z"/>
											</g>
											<path class="st7" d="M104.6,111.3c0,0-0.6,0.1-1.1-0.2c-0.5-0.3-0.8-0.9-0.8-0.9s0.6-0.1,1.1,0.2
												C104.3,110.8,104.6,111.3,104.6,111.3z"/>
										</g>
									</g>
								</g>
							</g>
						</g>
						<path class="st21" d="M92,104.9c0.2-0.9,0.9-1.7,1.4-2.4c1.1-1.5,2.6-2.9,4.4-4.1c2.1-1.4,4.6-2.4,6.9-2.6c1-0.1,2,0,3,0.2
							c2.1,0.4,4.4,1.3,6.3,2.6c0.4,0.3,0.8,1.3,1,1.8c0.3,0.7,0.5,1.4,0.7,2.2c0.2,1.5-0.2,3.2-0.8,4.7c0,0-5.8-3.6-6.6-4.9
							l1.3,2.6c0,0-3.3-0.5-3.8-2.4c0,0-2.6,4.3-7.6,5.1c-0.1,1.5-0.4,4.5-0.6,5.1c0,0-0.8-0.8-1.7-0.3c-0.9,0.5-1.2,2-1.2,2
							c-0.5-0.8-0.9-1.7-1.3-2.7c-0.1-0.3-0.3-0.7-0.4-1.1C92.3,109,91.6,106.8,92,104.9z"/>
					</g>
					<path class="st29" d="M118.4,154l3.9,8.1l9.1-11.7l6.6,2.7l-13.5,19.1c0,0-5.7,0.8-7.2,0c-1.5-0.8-5.9-10.1-5.9-10.1l0.8-2.8
						L118.4,154z"/>
					<path class="st3" d="M113.9,132c0,0,1.5,1.2,2.7,2.8c1.2,1.6,5.7,19.8,5.7,19.8l-10,4.7L113.9,132z"/>
					<g>
						<g>
							<g>
								<polygon class="st16" points="77.1,207.5 67.2,158.7 72,158.7 82.9,208.3 								"/>
							</g>
							<g>
								<path class="st17" d="M63.8,150.6c1.9-2,15.9-2,29.2-1.5v11.5H62C62,160.5,59.9,154.6,63.8,150.6z"/>
							</g>
						</g>
					</g>
					<path class="st3" d="M118,153.4c-1.2,1.8-3.9,4.3-5.7,5.9l-3.7,12.4l3.4,12.9c-21.3,5.5-35.2-1.2-35.2-1.2l4.8-14.5
						c0,0,5.1-40,5.1-40.1c0-0.1,7.1-0.8,7.1-0.8s3.2,2.7,7.9,2.9c4.6,0.1,6.9-0.8,7.1-1l5.1,2.1C113.9,132,120,150.4,118,153.4z"/>
					<path class="st3" d="M86.7,128.9c0,0,4.1,2.4,5.2,6.5c1.1,4.2,7.8,18.3,7.8,18.3l-16.7,6.9c0,0-4.4-20.3-3.6-24.5
						C80.3,131.7,86.7,128.9,86.7,128.9z"/>
					<polygon class="st4" points="93,136.7 99.9,155 83.3,160.4 96.9,153.3 					"/>
					<g>
						<path class="st19" d="M84.8,159.9c0,0,3.2,11.1,4.8,12.1c1.6,1,37.2,2.7,37.2,2.7v-6.2l-27.9-6.1l-2.1-6.4L84.8,159.9z"/>
						<path class="st19" d="M126.7,168.5c0,0,4.5-2.4,6.3-1.9c1.8,0.5,9.1,3.3,9.1,3.3s4.3,5.3,3.8,5.8h-4.8c0,0-2.8-1.2-3.4-0.9
							c-0.6,0.3-5.4,0.9-5.4,0.9l-5.6-0.9V168.5z"/>
					</g>
					<path class="st4" d="M113.8,135.2c0,0,3.6,12.6,3.2,15.4c-0.3,2.8-4.7,8.8-4.7,8.8s2.7-8.6,2.7-9.1
						C115,149.7,113.8,135.2,113.8,135.2z"/>
					<path class="st27" d="M116.7,105.8c0,0-0.5-0.3-1.2-0.8c-0.3-0.2-0.7-0.5-1.2-0.8c-0.1,0-0.1-0.1-0.2-0.1
						c-2.4-1.7-5.8-4.2-6.4-5.2v2.2l-2.2-2.2c0,0-2.1,4.3-5.5,5.6c-2.2,0.9-3.3,1.2-3.8,1.3c-0.2,0-0.3,0.1-0.3,0.1l0,0
						c0,0-1.3,2.2-2.8,5.3c-1.3,2.6-4.4,8.6-4.4,8.6c0-0.1,0-0.3,0-0.4c0-0.2,0-0.3,0-0.5c0-0.6,0.1-1.3,0.1-2c0-0.2,0-0.3,0-0.5
						c0.1-1.2,0.2-2.4,0.3-3.8c0-0.2,0-0.4,0.1-0.6c0-0.1,0-0.2,0-0.2c0-0.3,0.1-0.7,0.1-1.1c0.2-1.4,0.4-2.8,0.7-4.3
						c0-0.2,0.1-0.4,0.1-0.6c0.2-0.9,0.4-1.8,0.7-2.6c0.1-0.2,0.1-0.4,0.2-0.6c0.1-0.2,0.1-0.4,0.2-0.5c0.2-0.5,0.4-1,0.6-1.5
						c0-0.1,0.1-0.2,0.1-0.2c0-0.1,0.1-0.2,0.1-0.3c0.1-0.2,0.1-0.3,0.2-0.5c0.3-0.6,0.6-1.2,1-1.6c0.1-0.1,0.1-0.2,0.2-0.3
						c0.1-0.1,0.2-0.3,0.3-0.4c0.1-0.1,0.2-0.2,0.2-0.3c0.3-0.3,0.6-0.6,0.9-0.8c7.3-4.7,14.7-3.4,20.6,1.8c0,0,2.4,2.4,2.7,5.6v0.1
						c0,0.1,0,0.1,0,0.2s0,0.1,0,0.2s0,0.1,0,0.2c0,0.1,0,0.1,0,0.2s0,0.1,0,0.2c0,0.2,0,0.5,0,0.8c0,0.3,0,0.7,0,1.1
						c0,0.1,0,0.3,0,0.4c0,0.9,0,1.8,0.1,2.9c0,0.4,0,0.9,0,1.4c0,0.2,0,0.4,0,0.6c0,0.4,0,0.7,0,1.1c0,0.2,0,0.4,0,0.6
						c0,0.4,0,0.9,0,1.3c0,0.5,0,1,0,1.6v0.1c0,0.4,0,0.7,0,1.1c0,0.4,0,0.7,0,1.1c0,0.3,0,0.5,0,0.8c0,0.2,0,0.4,0,0.6
						c0,0.3,0,0.5,0,0.8c0,0.3,0,0.6,0,0.9c0,0.2,0,0.3,0,0.5c0,0.3,0,0.5,0,0.7c0,0.3,0,0.7,0,1c0,0.7,0,1.3,0,2c0,0.2,0,0.3,0,0.5
						C118.9,129.4,117.8,106.9,116.7,105.8z"/>
					<g>
						<polygon class="st7" points="99.7,107.7 96.2,105.4 95.6,106.3 98.7,109.1 						"/>
						<polygon class="st7" points="99.1,109.8 95.6,107.6 95,108.4 98,111.2 						"/>
					</g>
					<path class="st30" d="M89.3,112.5l4.9-8.4c6.5-0.1,10.9-7.8,10.9-7.8l1.8,2l0.5-2c1.4,1.6,8.6,6.5,11.1,8.2
						c0-0.5,0-0.8-0.1-1.1c-0.2-3.1-2.7-5.6-2.7-5.6c-5.9-5.3-13.2-6.4-20.6-1.8C91.7,98.2,90,105.7,89.3,112.5z"/>
					<g>
						<g>
							<rect x="163" y="176.4" class="st16" width="6.4" height="82"/>
							<rect x="163" y="177.2" class="st17" width="6.4" height="11"/>
							<path class="st16" d="M145.9,262.7h40.5l0,0c0-3.4-2.7-6.2-6.2-6.2h-28.1C148.7,256.5,145.9,259.2,145.9,262.7L145.9,262.7z"
								/>
						</g>
						<rect x="105.5" y="175.6" class="st8" width="114.7" height="5.6"/>
					</g>
					<g>
						<g>
							<polygon class="st16" points="121.2,211.2 130.2,262.7 127.1,262.7 114.5,213.7 							"/>
							<polygon class="st16" points="76.2,211.2 67.2,262.7 70.4,262.7 82.9,213.7 							"/>
						</g>
						<rect x="71.9" y="245.9" class="st16" width="53.2" height="3.2"/>
					</g>
					<path class="st17" d="M128.8,206c0,0-50.6-4.1-54.5,0s-1.7,9.9-1.7,9.9h57.6L128.8,206z"/>
					<g>
						<g>
							<polygon class="st31" points="130.2,226.4 140,252.1 142.1,251 147.8,248.1 141.1,217.4 134.7,222.6 							"/>
							<polygon class="st20" points="130.2,226.4 140,252.1 142.1,251 134.7,222.6 							"/>
						</g>
						<g>
							<g>
								<g>
									<g>
										<g>
											<g>
												<path class="st8" d="M138.7,251.2c0.5,3.4,2.3,9.7,2.6,11.1l0.3,0.6l0.8,2.1l3.7-1.4l-0.2-2.5l-0.1-1.1l1,0.7l2.5,1.7
													l18.9-7.4l-1.1-2.7c-0.1-0.1-0.2-0.3-0.2-0.4c-0.3-0.3-0.6-0.6-1.1-0.6c-2-0.2-9.1-0.4-11.3-1.2
													c-1.7-0.6-3.8-2.6-4.6-3.4L138.7,251.2z"/>
											</g>
										</g>
									</g>
								</g>
							</g>
							<g>
								<g>
									<g>
										<path class="st7" d="M150.7,251.2v0.1c0,0.3,0,0.7,0.4,0.7c0.2,0,0.3-0.1,0.5-0.2c0.5-0.3,0.9-0.8,1.3-1.3
											c0.4-0.5,0.8-1.1,1-1.8c0.1-0.7-0.6-1.1-1.1-0.7C151.8,248.8,150.9,250,150.7,251.2z"/>
									</g>
									<g>
										<path class="st7" d="M153.2,252v0.1c0,0.3,0,0.7,0.4,0.7c0.2,0,0.3-0.1,0.5-0.2c0.5-0.3,0.9-0.8,1.3-1.3
											c0.4-0.5,0.8-1.1,1-1.8c0.1-0.7-0.6-1.1-1.1-0.7C154.3,249.5,153.4,250.7,153.2,252z"/>
									</g>
									<g>
										<path class="st7" d="M156,252v0.1c0,0.3,0,0.7,0.4,0.7c0.2,0,0.3-0.1,0.5-0.2c0.5-0.3,0.9-0.8,1.3-1.3
											c0.4-0.5,0.8-1.1,1-1.8c0.1-0.7-0.6-1.1-1.1-0.7C157.1,249.5,156.2,250.8,156,252z"/>
									</g>
								</g>
							</g>
							<path class="st7" d="M167,251.8l-20.1,8.8l2.5,1.7l18.9-7.4l-1.1-2.7C167.2,252,167.1,251.9,167,251.8z"/>
							<polygon class="st7" points="141.7,262.9 142.6,265 146.2,263.6 146,261 							"/>
						</g>
					</g>
					<g>
						<path class="st32" d="M75,203.9L75,203.9c0,0.1,0,0.2,0.1,0.3c1,3.4,44.6,4.2,44.6,4.2l10.4,18.1l4.2-2.8l16.9-11.6
							c0,0-14.7-20-19.5-22.4c-4.7-2.4-19.8-5-19.8-5l-28.1,0.5l-5.2-0.9C77.3,189.6,74.5,200.8,75,203.9z"/>
						<path class="st33" d="M75,203.9L75,203.9c0,0.1,0,0.2,0.1,0.3c1,3.4,44.6,4.2,44.6,4.2l10.4,18.1l4.2-2.8
							c-4.1-6.6-11.8-18.8-13.1-19.4c-1.9-0.8-36,0-38.2-1.3c-2-1.1,0.5-14.7,1-17.8l-5.2-0.9C77.3,189.6,74.5,200.8,75,203.9z"/>
					</g>
					<g>
						<path class="st34" d="M130.2,161.4v14.2H172v-28.7c0-0.7-0.1-1.4-0.3-2.1c-0.1-0.3-0.2-0.5-0.3-0.8c0-0.1,0-0.1-0.1-0.2
							c-0.4-0.9-0.9-1.6-1.6-2.3c-1.4-1.4-3.4-2.2-5.5-2.2h-28.9c-0.7,0-1.3,0.1-1.9,0.4c-0.6,0.2-1.1,0.6-1.6,1.1
							c-0.8,0.8-1.3,1.9-1.4,3.1c0,0.1,0,0.2,0,0.4v12.2h7.8c0,0,1.4-6.1,5.1-6.1h9.4c0.6,0,1.4,0.3,2.1,0.7c1.5,0.7,2.5,2.2,2.5,4
							v6.5h-27.1V161.4z"/>
						<rect x="172" y="147" width="2.5" height="7"/>
						<rect x="133.5" y="156.4" width="1.3" height="3.8"/>
						<rect x="168" y="164" class="st35" width="1.5" height="8.3"/>
						<rect x="164.8" y="164" class="st35" width="1.5" height="8.3"/>
						<rect x="161.5" y="164" class="st35" width="1.5" height="8.3"/>
						<rect x="130.1" y="167.7" class="st35" width="25.7" height="1.3"/>
						<path class="st35" d="M130.3,144.2c0-0.1,0-0.2,0-0.4h41c0,0,0,0.1,0.1,0.2c0.1,0.3,0.2,0.5,0.3,0.8h-37v11.7h-1v-11.7h-3.3
							L130.3,144.2L130.3,144.2z"/>
					</g>
					<path class="st36" d="M139.7,135.5c1.1-0.6,6.8-0.6,7.3-0.2c0.5,0.4,1.3,5.6,0.7,5.8c-0.6,0.2-1.8-2.8-1.8-2.8s1.3,4.2,0.5,4.2
						c-0.7,0-2.4-3.4-2.4-3.4s1.2,4.6,0.1,4.6c-1.1,0-2.8-4.3-2.8-4.3s0.5,3-0.5,2.9c-1,0-2.2-2.9-2.2-2.9h-2.2
						C136.3,139.2,138.6,136.2,139.7,135.5z"/>
					<path class="st7" d="M110,130.4l-3-3.6c0,0-3.2,2.2-5.5,1.5c-2.2-0.7-4-2.5-4-2.5l-4.1,2.3c0,0,2.2,6.4,4.9,8.1l3.8-4.3
						l2.4,4.3C104.5,136.3,107.7,133.8,110,130.4z"/>
					<g>
						<g>
							<rect x="182.1" y="174.9" class="st9" width="11.8" height="0.8"/>
							<polygon class="st10" points="187.9,172.3 191.2,172.3 193,174.9 187.9,174.9 182.8,174.9 184.7,172.3 							"/>
						</g>
						<g>
							<rect x="182" y="157" class="st9" width="11.8" height="0.8"/>
							<polygon class="st10" points="187.9,160.5 191.2,160.5 193,157.9 187.9,157.9 182.8,157.9 184.7,160.5 							"/>
						</g>
						<rect x="182.9" y="160.5" class="st0" width="9.4" height="11.8"/>
						<path class="st1" d="M181.5,163.5c3.6,1.6,7.3,2.9,11.2,4c0.4,0.1,0.3,0.7-0.1,0.7l-8,0.2c2.8,0.7,5.7,1.5,8.4,2.3
							c0.4,0.1,0.2,0.8-0.2,0.7c-3.7-1.1-7.3-2.1-11-3c-0.4-0.1-0.3-0.7,0.1-0.7c2.7-0.1,5.5-0.1,8.2-0.2c-3.1-0.9-6.2-2-9.1-3.4
							C180.8,163.9,181.1,163.3,181.5,163.5z"/>
						<path class="st1" d="M181.7,161l11.6,3.8c0.4,0.1,0.2,0.8-0.2,0.7l-11.6-3.8C181.1,161.6,181.3,160.9,181.7,161z"/>
					</g>
					<g>
						<g>
							<rect x="196.3" y="157" class="st9" width="11.8" height="0.8"/>
							<polygon class="st10" points="202.2,160.5 205.6,160.5 207.3,157.9 202.2,157.9 197.1,157.9 199,160.5 							"/>
						</g>
						<g>
							<rect x="196.4" y="174.9" class="st9" width="11.8" height="0.8"/>
							<polygon class="st10" points="202.2,172.3 205.6,172.3 207.3,174.9 202.2,174.9 197.1,174.9 199,172.3 							"/>
						</g>
						<rect x="197.2" y="160.5" class="st12" width="9.4" height="11.8"/>
						<path class="st13" d="M195.8,169.2c3.6-1.6,7.3-2.9,11.2-4c0.4-0.1,0.3-0.7-0.1-0.7l-8-0.2c2.8-0.7,5.7-1.5,8.4-2.3
							c0.4-0.1,0.2-0.8-0.2-0.7c-3.7,1.1-7.3,2.1-11,3c-0.4,0.1-0.3,0.7,0.1,0.7c2.7,0.1,5.5,0.1,8.2,0.2c-3.1,0.9-6.2,2-9.1,3.4
							C195.1,168.8,195.4,169.4,195.8,169.2z"/>
						<path class="st13" d="M196,171.7l11.6-3.8c0.4-0.1,0.2-0.8-0.2-0.7l-11.6,3.8C195.4,171.2,195.6,171.8,196,171.7z"/>
					</g>
				</g>
			</g>
		</g>
	</g>
</g>
</svg>
