<?xml version="1.0" encoding="utf-8"?>
<!-- Generator: Adobe Illustrator 25.1.0, SVG Export Plug-In . SVG Version: 6.00 Build 0)  -->
<svg version="1.1" xmlns="http://www.w3.org/2000/svg" xmlns:xlink="http://www.w3.org/1999/xlink" x="0px" y="0px"
	 viewBox="0 0 300 265" style="enable-background:new 0 0 300 265;" xml:space="preserve">
<style type="text/css">
	.st0{fill:#EFE5DC;}
	.st1{fill:#FF6648;}
	.st2{fill:#E84E3A;}
	.st3{fill:#FFB5AB;}
	.st4{fill:#F9F1EA;}
	.st5{font-family:'Montserrat-Bold';}
	.st6{font-size:16.2245px;}
	.st7{fill:#152344;}
	.st8{fill:#3D6091;}
	.st9{fill:#2E456D;}
	.st10{fill:#101523;}
	.st11{fill:#1A2C51;}
	.st12{fill:#608CAD;}
	.st13{fill:#527594;}
	.st14{fill:#E0380B;}
	.st15{fill:#DE9983;}
	.st16{fill:#EDA591;}
	.st17{fill:#D68570;}
	.st18{fill:#FFFFFF;}
	.st19{fill:#F7C377;}
	.st20{fill:#F45227;}
	.st21{fill:#5E3112;}
	.st22{fill:#CE7F6A;}
	.st23{fill:#EA8913;}
	.st24{fill:#5A819E;}
	.st25{fill:#C5BEB4;}
	.st26{fill:#E0D9D1;}
	.st27{fill:#777777;}
	.st28{fill:#C9C3BD;}
	.st29{fill:#FF9688;}
	.st30{fill:#606060;}
	.st31{fill:#EFEBEA;}
	.st32{fill:#1D335E;}
</style>
<g id="BACKGROUND">
</g>
<g id="OBJECTS">
	<g>
		<g>
			<g>
				<g>
					
						<ellipse transform="matrix(0.7071 -0.7071 0.7071 0.7071 -61.7096 166.5151)" class="st0" cx="170.1" cy="157.7" rx="91.3" ry="91.3"/>
				</g>
				<g>
					<g>
						<path class="st1" d="M136.2,88.1l-75.1,5.4c-2.6,0.2-5-1.5-5.6-4.1L50,66.6c-0.8-3.4,1.7-6.6,5.2-6.6h84.3
							c3.4,0,5.9,3.1,5.2,6.4L141,83.9C140.5,86.2,138.6,87.9,136.2,88.1z"/>
						<path class="st2" d="M139.5,60H55.2c-2,0-3.7,1.1-4.6,2.6c0.4-0.1,0.8-0.1,1.2-0.1h87.6c1.7,0,2.9,1.6,2.6,3.2l-4.3,20.6
							c-0.1,0.6-0.3,1.1-0.6,1.6c2-0.5,3.5-2.1,4-4.1l3.7-17.4C145.4,63.2,142.9,60,139.5,60z"/>
						<path class="st3" d="M60.7,94.6c-3,0-5.6-2-6.3-4.9l-5.5-22.8c-0.5-1.9,0-3.9,1.2-5.5c1.2-1.6,3.1-2.5,5.1-2.5h84.3
							c2,0,3.8,0.9,5,2.4c1.2,1.5,1.7,3.5,1.3,5.4l-3.7,17.4c-0.6,2.8-3,4.9-5.9,5.1l-75.1,5.4C61,94.6,60.9,94.6,60.7,94.6z
							 M55.2,61.1c-1.3,0-2.5,0.6-3.3,1.6c-0.8,1-1.1,2.3-0.8,3.6l5.5,22.8c0.5,2,2.4,3.4,4.4,3.2l75.1-5.4c1.9-0.1,3.4-1.5,3.8-3.3
							l3.7-17.4c0.3-1.3,0-2.5-0.9-3.5c-0.8-1-2-1.6-3.3-1.6H55.2z"/>
					</g>
					<text transform="matrix(1 0 0 1 65.7412 80.2422)" class="st4 st5 st6">ON AIR</text>
				</g>
				<g>
					<g>
						<g>
							<g>
								<g>
									<g>
										<path class="st7" d="M184.5,233.2c-0.2-1.3-1.8-14.5-2.2-20.1c-0.4-5.6-0.1-10.4,5-14.1c5.1-3.7,18.7-8.1,18.7-8.1
											l14.9,5.1l-10.6,68.8c0,0-14-2.6-19.7-4.9C186,258.1,186,242,184.5,233.2z"/>
									</g>
								</g>
							</g>
							<g>
								<g>
									<g>
										<g>
											<g>
												<path class="st8" d="M207,261.2c0.5,1.5,1.3,2.9,3.8,3.8h56.6c1.2,0,2.2-0.1,2.9-0.1c5.1-0.1,5.4-7.8,5.5-20.4
													c0,0,0.6-45-3.1-50c-3.7-5.1-56-5.4-64-4.3c-8,1.1-9,6.4-8.2,12.5C201.4,208.8,205.9,258,207,261.2z"/>
											</g>
										</g>
									</g>
									<g>
										<g>
											<g>
												<path class="st9" d="M271.8,242.8c0,0,0.6-40.2-2.7-44.8c-3.3-4.5-50.1-4.8-57.2-3.8c-7.1,1-8.1,5.7-7.3,11.2
													c0.8,5.5,4.8,49.5,5.8,52.4c1,2.9,3,4.9,17.4,4.5c14.4-0.3,34.7-1.2,39.3-1.2C271.5,261,271.8,254.2,271.8,242.8z"/>
											</g>
										</g>
									</g>
								</g>
								<g>
									<g>
										<g>
											<g>
												<g>
													
														<ellipse transform="matrix(8.225074e-02 -0.9966 0.9966 8.225074e-02 -5.9936 451.3804)" class="st7" cx="242.1" cy="228.9" rx="20.2" ry="19.3"/>
												</g>
											</g>
										</g>
										<g>
											<g>
												<g>
													
														<ellipse transform="matrix(8.226838e-02 -0.9966 0.9966 8.226838e-02 -7.5779 448.4107)" class="st10" cx="239.7" cy="228.3" rx="17.6" ry="16.8"/>
												</g>
											</g>
										</g>
									</g>
									<g>
										<g>
											<g>
												<g>
													<path class="st7" d="M223.8,206.6c-0.3,4.2-3.9,7.3-7.9,7c-4-0.3-6.9-4-6.6-8.2c0.3-4.2,3.9-7.3,7.9-7
														C221.2,198.8,224.2,202.4,223.8,206.6z"/>
												</g>
											</g>
										</g>
										<g>
											<g>
												<g>
													<path class="st10" d="M221,206.4c-0.3,3.4-3.1,5.9-6.3,5.6c-3.2-0.3-5.6-3.2-5.3-6.6c0.3-3.4,3.1-5.9,6.3-5.6
														C218.9,200.1,221.3,203,221,206.4z"/>
												</g>
											</g>
										</g>
									</g>
									<g>
										<g>
											<g>
												<g>
													<path class="st7" d="M268,206.5c-0.3,4.2-3.9,7.3-7.9,7c-4-0.3-6.9-4-6.6-8.2c0.3-4.2,3.9-7.3,7.9-7
														C265.4,198.6,268.3,202.3,268,206.5z"/>
												</g>
											</g>
										</g>
										<g>
											<g>
												<g>
													<path class="st10" d="M265.2,206.2c-0.3,3.4-3.1,5.9-6.3,5.6c-3.2-0.3-5.6-3.2-5.3-6.6c0.3-3.4,3.1-5.9,6.3-5.6
														C263.1,199.9,265.5,202.9,265.2,206.2z"/>
												</g>
											</g>
										</g>
									</g>
								</g>
							</g>
						</g>
						<g>
							<g>
								<g>
									<g>
										<path class="st7" d="M270.8,102.6c0.3-1,2.2-10.5,2.8-14.6c0.7-4.1,0.7-7.7-2.8-10.6c-3.5-3-13.2-7.1-13.2-7.1l-11.2,2.9
											l3.6,51.1c0,0,10.4-1.1,14.8-2.4C268.1,120.7,269.1,108.9,270.8,102.6z"/>
									</g>
								</g>
							</g>
							<g>
								<g>
									<g>
										<g>
											<path class="st11" d="M273.7,87.9c0.3-1.8,0.5-3.5,0.3-5.1l-22.5-11l-5,1.3l0.8,12.1l24.9,11
												C272.7,93.3,273.3,90,273.7,87.9z"/>
										</g>
									</g>
								</g>
							</g>
							<g>
								<g>
									<g>
										<g>
											<g>
												<path class="st12" d="M203.2,105.3c0,0,2.3-33,5.3-36.5c3-3.5,41.4-0.5,47.1,0.7c5.8,1.3,6.2,5.2,5.2,9.6
													c-1,4.4-7.3,40.2-8.3,42.5c-1,2.3-2.8,3.8-14.5,2.5c-11.8-1.3-28.3-3.3-32.1-3.6C202.2,120.3,202.5,114.6,203.2,105.3z"
													/>
											</g>
										</g>
									</g>
									<g>
										<g>
											<g>
												<path class="st8" d="M203.2,105.3c0,0,2.3-33,5.3-36.5c3-3.5,40,0.1,45.8,1.4c5.8,1.3,6,7.2,5,11.6
													c-1,4.4-5.6,37.6-6.6,39.9c-1,2.3-2.8,3.8-14.5,2.5c-11.8-1.3-28.3-3.3-32.1-3.6C202.2,120.3,202.5,114.6,203.2,105.3z"
													/>
											</g>
										</g>
									</g>
									<g>
										<g>
											<path class="st12" d="M256.1,95.7l-0.2,0c0-0.1,2.7-12.9,3.1-17.2c0.3-4.2-1.4-5.8-7.8-7.4c-6.2-1.6-29.1-1.7-29.3-1.7
												l0-0.2c0.2,0,23.1,0.2,29.3,1.7c6.6,1.7,8.3,3.3,8,7.6C258.9,82.8,256.1,95.5,256.1,95.7z"/>
										</g>
									</g>
									<g>
										<g>
											<g>
												<path class="st9" d="M206.2,104.3c0,0,2-29.5,4.7-32.6c2.7-3.1,37-0.5,42.2,0.7c5.2,1.2,5.6,4.7,4.7,8.6
													c-0.9,4-6.5,36-7.4,38c-0.9,2-2.5,3.4-13,2.3c-10.5-1.1-25.3-2.9-28.7-3.3C205.3,117.7,205.6,112.7,206.2,104.3z"/>
											</g>
										</g>
									</g>
								</g>
								<g>
									<g>
										<g>
											<g>
												<g>
													<g>
														<ellipse class="st7" cx="228.8" cy="96" rx="14.2" ry="14.8"/>
													</g>
												</g>
											</g>
										</g>
										<g>
											<g>
												<g>
													<ellipse class="st10" cx="230.6" cy="95.7" rx="12.4" ry="12.9"/>
												</g>
											</g>
										</g>
									</g>
									<g>
										<g>
											<g>
												<g>
													<g>
														<path class="st7" d="M243.6,80.7c0,3.1,2.4,5.6,5.3,5.6c2.9,0,5.3-2.5,5.3-5.6c0-3.1-2.4-5.6-5.3-5.6
															C246,75.1,243.6,77.6,243.6,80.7z"/>
													</g>
												</g>
											</g>
										</g>
										<g>
											<g>
												<g>
													<ellipse class="st10" cx="249.9" cy="80.7" rx="4.3" ry="4.5"/>
												</g>
											</g>
										</g>
									</g>
									<g>
										<g>
											<g>
												<g>
													<ellipse class="st7" cx="216.6" cy="77.9" rx="5.3" ry="5.6"/>
												</g>
											</g>
										</g>
										<g>
											<g>
												<g>
													<path class="st10" d="M213.3,77.9c0,2.5,1.9,4.5,4.3,4.5s4.3-2,4.3-4.5c0-2.5-1.9-4.5-4.3-4.5S213.3,75.5,213.3,77.9z"
														/>
												</g>
											</g>
										</g>
									</g>
								</g>
							</g>
						</g>
						<g>
							<g>
								<g>
									<g>
										<g>
											<path class="st7" d="M183.3,160.9c-0.2-1.3-1.8-14.5-2.2-20.1c-0.4-5.6-0.1-10.4,5-14.1c5.1-3.7,18.7-8.1,18.7-8.1
												l14.9,5.1l-10.6,68.8c0,0-14-2.6-19.7-4.9C184.9,185.8,184.8,169.7,183.3,160.9z"/>
										</g>
									</g>
								</g>
							</g>
							<g>
								<g>
									<g>
										<g>
											<g>
												<path class="st12" d="M274.6,172.3c0,0,0.6-45-3.1-50c-3.7-5.1-56-5.4-64-4.3c-8,1.1-9,6.4-8.2,12.5
													c0.8,6.1,5.3,55.3,6.4,58.5c1.1,3.2,3.4,5.4,19.4,5.1c16.1-0.4,38.7-1.3,43.9-1.4C274.3,192.6,274.6,185,274.6,172.3z"
													/>
											</g>
										</g>
									</g>
									<g>
										<g>
											<g>
												<path class="st8" d="M274.6,172.3c0,0-0.9-43.4-4.6-48.4c-3.7-5.1-54.5-7-62.4-5.9c-8,1.1-9,6.4-8.2,12.5
													c0.8,6.1,5.3,55.3,6.4,58.5c1.1,3.2,3.4,5.4,19.4,5.1c16.1-0.4,38.7-1.3,43.9-1.4C274.3,192.6,274.6,185,274.6,172.3z"
													/>
											</g>
										</g>
									</g>
									<g>
										<g>
											<path class="st12" d="M203.8,154c0-0.2-2.2-17.2-2.3-22l0-0.4c-0.1-4.6-0.1-8.6,5.2-10.4c5.4-1.9,38-0.4,38.3-0.3l0,0.2
												c-0.3,0-32.9-1.5-38.2,0.3c-5.2,1.8-5.2,5.5-5.1,10.2l0,0.4c0.1,4.7,2.2,21.8,2.3,21.9L203.8,154z"/>
										</g>
									</g>
									<g>
										<g>
											<g>
												<path class="st9" d="M270.6,170.6c0,0,0.6-40.2-2.7-44.8c-3.3-4.5-50.1-4.8-57.2-3.8c-7.1,1-8.1,5.7-7.3,11.2
													c0.8,5.5,4.8,49.5,5.8,52.4c1,2.9,3,4.9,17.4,4.5s34.7-1.2,39.3-1.2C270.4,188.8,270.6,181.9,270.6,170.6z"/>
											</g>
										</g>
									</g>
								</g>
								<g>
									<g>
										<g>
											<g>
												<g>
													<g>
														
															<ellipse transform="matrix(8.224314e-02 -0.9966 0.9966 8.224314e-02 64.9194 383.9339)" class="st7" cx="240.9" cy="156.7" rx="20.2" ry="19.3"/>
													</g>
												</g>
											</g>
										</g>
										<g>
											<g>
												<g>
													
														<ellipse transform="matrix(8.218984e-02 -0.9966 0.9966 8.218984e-02 63.3511 380.9779)" class="st10" cx="238.5" cy="156.1" rx="17.6" ry="16.8"/>
												</g>
											</g>
										</g>
									</g>
									<g>
										<g>
											<g>
												<g>
													<path class="st7" d="M222.7,134.4c-0.3,4.2-3.9,7.3-7.9,7c-4-0.3-6.9-4-6.6-8.2c0.3-4.2,3.9-7.3,7.9-7
														C220,126.6,223,130.2,222.7,134.4z"/>
												</g>
											</g>
										</g>
										<g>
											<g>
												<g>
													<path class="st10" d="M219.9,134.2c-0.3,3.4-3.1,5.9-6.3,5.6c-3.2-0.3-5.6-3.2-5.3-6.6c0.3-3.4,3.1-5.9,6.3-5.6
														C217.8,127.8,220.2,130.8,219.9,134.2z"/>
												</g>
											</g>
										</g>
									</g>
									<g>
										<g>
											<g>
												<g>
													<g>
														<path class="st7" d="M266.8,134.2c-0.3,4.2-3.9,7.3-7.9,7c-4-0.3-6.9-4-6.6-8.2c0.3-4.2,3.9-7.3,7.9-7
															C264.2,126.4,267.1,130.1,266.8,134.2z"/>
													</g>
												</g>
											</g>
										</g>
										<g>
											<g>
												<g>
													
														<ellipse transform="matrix(8.219157e-02 -0.9966 0.9966 8.219157e-02 103.88 379.8729)" class="st10" cx="258.2" cy="133.5" rx="6.1" ry="5.9"/>
												</g>
											</g>
										</g>
									</g>
								</g>
							</g>
						</g>
					</g>
					<g>
						<polygon class="st1" points="269.8,139.1 282.5,129.4 284.1,132.6 293.6,126 294.3,132.6 283.3,138.6 281.5,134.1 						"/>
					</g>
					<g>
						<polygon class="st1" points="273.1,148.9 284,150.2 283.3,152.6 291.2,154 291.8,158.5 280,155.2 281.3,152.1 						"/>
					</g>
					<g>
						<polygon class="st1" points="212.7,96.3 190.8,79.8 188.1,85.3 171.7,74.1 170.5,85.3 189.5,95.7 192.5,87.9 						"/>
					</g>
					<g>
						<polygon class="st1" points="230.7,74.8 231.1,47.4 225.1,48.5 224.4,28.6 214.7,34.3 217.5,55.7 225.6,53.6 						"/>
					</g>
					<g>
						<polygon class="st1" points="238.9,76.8 252.3,62.3 248.6,60 257.8,49 249.9,47.4 241.1,60.2 246.4,62.9 						"/>
					</g>
					<g>
						<polygon class="st1" points="266.2,128.7 274.9,113.6 277.9,116.1 287.8,102.3 292.5,107.7 279.7,122.5 276,118.8 						"/>
					</g>
					<g>
						<g>
							<g>
								<g>
									<g>
										<g>
											<path class="st13" d="M147.2,141.2c0,0-19.4,9.3-25.4,13.9c2.5,14.6,6.1,24.7,7,33c0.9,8.3,1.3,25.6,1.3,25.6h54.5
												c0,0,5.3-32.3,7.9-40.6c2.6-8.3,8-17.2,8-17.2s-16.7-12.5-30.4-16.1C156.4,136.1,147.2,141.2,147.2,141.2z"/>
										</g>
									</g>
								</g>
							</g>
							<path class="st12" d="M178.6,168.9c0,0-15.6,23.9-44.5,35.9C153.5,202.8,173.8,189.7,178.6,168.9z"/>
							<g>
								<g>
									<g>
										<path class="st12" d="M195.1,166.3c2.6-5.8,5.4-10.4,5.4-10.4s-16.7-12.5-30.4-16.1c-1.2-0.3-2.4-0.6-3.5-0.8
											c-1.7,3.6-3,7.1-5.4,10C173.5,152.2,184.6,158.7,195.1,166.3z"/>
									</g>
								</g>
							</g>
							<g>
								<g>
									<g>
										<g>
											
												<ellipse transform="matrix(8.483400e-02 -0.9964 0.9964 8.483400e-02 3.9833 246.829)" class="st14" cx="136.4" cy="121.2" rx="8.9" ry="5.5"/>
										</g>
									</g>
								</g>
								<g>
									<g>
										<g>
											<g>
												<g>
													<path class="st15" d="M145.9,136.9c0,0,0.3,4.5-1.5,8.8c5.6,9.5,15.8,6.7,20.6,4.2c4.8-2.5,5.9-9,5.9-9
														s-9.4-13-5.4-27.5C158,118.7,145.9,136.9,145.9,136.9z"/>
												</g>
											</g>
										</g>
									</g>
									<path class="st16" d="M165.6,113.5c-4.6,3.1-10.7,11-15,16.7h0v6.3c4.1-5.5,9-12.3,13.1-15.2c-3.1,11,2.2,21.2,4.7,25.5
										c1.9-2.7,2.3-5.1,2.3-5.1S160.7,129.8,165.6,113.5z"/>
									<g>
										<g>
											<g>
												<path class="st17" d="M162.4,116.2c-7.4,7-16.5,20.8-16.5,20.8s0.3,3.9-1.1,7.9c2.3-0.1,4.6-0.6,6.6-1.2
													C161.5,139.8,162.8,126.7,162.4,116.2z"/>
											</g>
										</g>
									</g>
									<g>
										<g>
											<g>
												<g>
													<path class="st15" d="M155.8,97.1c0,0-12-2.9-16.8,0.6c-4.8,3.6-4.6,11.3-4.9,13.4c-0.3,2.1-2.5,9.1-0.4,14.5
														c2,5.4,5.6,11.8,9.3,12.5c3.7,0.7,15-3.6,18.2-10.8c3.2-7.2,2.3-17.6,1.4-21.7C161.6,101.5,157.2,97.4,155.8,97.1z"/>
												</g>
											</g>
										</g>
									</g>
									<g>
										<g>
											<g>
												<path class="st16" d="M162.5,105.6c-1-4.1-5.3-8.2-6.7-8.5c0,0-12-2.9-16.8,0.6c-1.7,1.2-2.7,3-3.4,4.8
													c1.3-1,2.8-1.6,4.6-1.9c7.7-0.7,14,4.9,15.4,12.6c1.9,9.7-2.1,19.9-10.3,24.8c4.8-0.7,13.2-4.7,15.9-10.8
													C164.4,120,163.5,109.7,162.5,105.6z"/>
											</g>
										</g>
									</g>
									<g>
										<g>
											<g>
												<path class="st10" d="M138.5,125.6c0,0,2.8-2.1,11.7-3c-1.5,7.4-4.3,8.4-7.1,7.8C140.4,129.8,140.7,127,138.5,125.6z"/>
											</g>
										</g>
									</g>
									<g>
										<g>
											<g>
												<path class="st18" d="M140.4,126.2c0.3,0.3,6.9-1.2,9.4-1.8c0.1-0.6,0.3-1.1,0.4-1.8c-5.8,0.6-9,1.7-10.5,2.4
													C139.8,125.4,140.2,126,140.4,126.2z"/>
											</g>
										</g>
									</g>
									<g>
										<g>
											<g>
												<path class="st7" d="M155.4,98.7c0,0-0.6,3.4,2.9,6.6c3.5,3.2,4.5,8.5,3.1,12.9c1.8,0.7,1.8,0.4,1.8,0.4
													s1.1-2.6,2.3-3.6c1.2-1.1,0.2,3.9-0.8,6.9c-1,3,0.8,6.7,0.8,6.7s2.6-5.7,5.3-12.3c4.6-11.7,2.2-17.4-2.1-17.5
													c-4.2-6.1-10.1-11.2-14.8-11.6c1.4,1.5,2.8,3,2.8,3s-10.1-6.3-16.7-3.3c1.7,0.2,3.6,1.1,3.6,1.1s-5.7-0.7-9.4,1.2
													c-3.7,1.9-6.2,0.7-7.4,0.6c2,3.9,5.2,5.7,5.2,5.7c-2.8,0-6.9-1.7-6.9-1.7c2.3,5.6,6.4,7.1,6.4,7.1
													c-1.3,0.4-5.8-1.2-5.8-1.2c2.8,4,6.5,6.6,8.8,7.6c2.3-4.9,5.3-7.8,9.9-9.2C148.9,96.8,151.8,99.9,155.4,98.7z"/>
											</g>
										</g>
									</g>
									<g>
										<g>
											<g>
												<g>
													<path class="st10" d="M155.4,98.7c0,0-0.6,3.4,2.9,6.6c3.5,3.2,4.5,8.5,3.1,12.9c1.8,0.7,1.8,0.4,1.8,0.4
														s1.1-2.6,2.3-3.6c1.2-1.1,0.2,3.9-0.8,6.9c-1,3,0.8,6.7,0.8,6.7s-0.3-4.9,2.3-11.6c4.6-11.7,2.7-15.4-1.6-15.5
														c0.1-6.1-7.7-14-12.4-14.5c1.4,1.5,2.8,3,2.8,3s-10.1-6.3-16.7-3.3c1.7,0.2,3.6,1.1,3.6,1.1s-5.7-0.7-9.4,1.2
														c-3.7,1.9-6.2,0.7-7.4,0.6c2,3.9,5.2,5.7,5.2,5.7c-2.8,0-6.9-1.7-6.9-1.7c2.3,5.6,6.4,7.1,6.4,7.1
														c-1.3,0.4-5.8-1.2-5.8-1.2c2.8,4,6.5,6.6,8.8,7.6c2.3-4.9,5.3-7.8,9.9-9.2C148.9,96.8,151.8,99.9,155.4,98.7z"/>
												</g>
											</g>
										</g>
									</g>
									<path class="st7" d="M168.2,99.6c-0.4-1.1-0.7-2.1-1.1-3c-4-5.2-9.1-9.1-13.3-9.6c1.4,1.5,2.8,3,2.8,3s-10.1-6.3-16.7-3.3
										c1.7,0.2,3.6,1.1,3.6,1.1s-5.7-0.7-9.4,1.2c-3.7,1.9-6.2,0.7-7.4,0.6c0.1,0.2,0.2,0.4,0.4,0.7c2.2,3,8,8.7,19.5,7.4
										c-3.2-0.2-9.1-1.9-12.3-6.8c4.3,3.4,10.7,5.3,10.7,5.3c-3.4-1.5-6.3-4.4-6.8-5.7c5.2,3.9,7.9,5.3,9.6,6
										c1.7,0.7,4.6,1.5,4.6,1.5s-5.4-2-8.7-7.5c3.9,3.6,10.1,5.3,10.1,5.3s-5-2.7-6.9-6.4c2.2-0.8,9.9,1.8,14.4,6.9
										c0-2.9-2-5-2-5S164.6,93.5,168.2,99.6z"/>
									<g>
										<g>
											<g>
												<path class="st10" d="M144.4,108.4c0,0,4.6-5.6,8.6-3.3c2.3,1.5,2.7,2.8,2.7,2.8s-2.2-2.1-5.1-1.4
													c-2.9,0.7-4.4,2.2-5.2,2.8S143.8,109,144.4,108.4z"/>
											</g>
										</g>
									</g>
									<g>
										<g>
											<g>
												<path class="st10" d="M139.6,109.4c0,0-1.3-1.6-3.7-1.1c-2.4,0.4-2.5,2-2.5,2.9c0.4-1.1,2.5-1.5,3.8-1.2
													C138.6,110.2,140.3,110.3,139.6,109.4z"/>
											</g>
										</g>
									</g>
									<g>
										<g>
											<g>
												<path class="st19" d="M163.3,117.7c0,0,0.6-5.9,3.4-5.6s2.8,4.7,1.4,7.5c-1.4,2.8-3.8,6-6.1,4.9
													C159.6,123.4,163.3,117.7,163.3,117.7z"/>
											</g>
										</g>
									</g>
								</g>
								<g>
									<g>
										<g>
											<g>
												<path class="st20" d="M163,92.1c0,0,5.6,3.1,3.2,19.2c2.3,1.1,4.8,1.2,4.8,1.2s1.4-10.3-1.7-15.7
													C167.2,93.2,163,92.1,163,92.1z"/>
											</g>
										</g>
									</g>
									<g>
										<g>
											<path class="st1" d="M169.3,96.8c-1.3-2.3-3.6-3.6-5-4.2c1.2,0.9,2.5,2.1,3.4,3.8c2.9,5,1.7,14.5,1.5,15.9
												c1,0.2,1.7,0.2,1.7,0.2S172.4,102.2,169.3,96.8z"/>
										</g>
									</g>
									<g>
										<g>
											<g>
												<path class="st14" d="M172.4,119.3c-0.5,4.5,0,8.7-2.8,9.3c-0.2,0-3.5-0.5-3.8-0.5c-3.1,0-5.1-4-4.6-8.8
													c0.5-4.8,3.5-8.8,6.6-8.7c0.7,0,4.4,0.3,5,0.6C174.8,112.4,172.8,115.5,172.4,119.3z"/>
											</g>
										</g>
									</g>
									<g>
										<g>
											<g>
												<path class="st20" d="M176.6,119.8c-0.5,4.8-3.5,8.8-6.6,8.7c-3.1,0-5.1-4-4.6-8.8c0.5-4.8,3.5-8.8,6.6-8.7
													C175,111,177.1,115,176.6,119.8z"/>
											</g>
										</g>
									</g>
									<g>
										<g>
											<path class="st1" d="M172,111c-0.4,0-0.8,0.1-1.2,0.2c-0.6,1.2-1,2.6-1.1,4.1c-0.5,4.8,1.5,8.8,4.6,8.8
												c0.4,0,0.8-0.1,1.2-0.2c0.6-1.2,1-2.6,1.1-4.1C177.1,115,175,111,172,111z"/>
										</g>
									</g>
								</g>
								<g>
									<g>
										<path class="st21" d="M166.3,111l-0.2,0c0,0,0.9-4.7,0.4-9.8c-0.4-4.5-1.6-7.3-3.7-9.1L163,92c2.1,1.8,3.3,4.7,3.7,9.2
											C167.2,106.3,166.3,111,166.3,111z"/>
									</g>
								</g>
							</g>
						</g>
						<g>
							<g>
								<path class="st21" d="M152,123.6c-1.2-0.6-2-1.6-2-1.6l0.1-0.1c0,0,0.8,1,2,1.6L152,123.6z"/>
							</g>
						</g>
						<g>
							<g>
								<path class="st21" d="M138.2,125.9l-0.1-0.1c0,0,1.6-1.2,4-1.8c2.5-0.6,7.5-1.5,8.5-1.6l0,0.2c-1,0-5.9,0.9-8.4,1.5
									C139.8,124.8,138.2,125.9,138.2,125.9z"/>
							</g>
						</g>
						<g>
							<g>
								<path class="st21" d="M140.1,111l0.2,0c0,0.1-1.4,5.6-2.7,8.7c2.8,1.2,5.5,1.4,5.5,1.4l0,0.2c0,0-2.8-0.2-5.7-1.5l-0.1,0
									l0-0.1"/>
							</g>
						</g>
						<g>
							<g>
								<path class="st21" d="M143.1,129.3l-0.1-0.1c2.4-2.3,6-2.6,6.1-2.6l0,0.2C149,126.7,145.5,127.1,143.1,129.3z"/>
							</g>
						</g>
						<g>
							<g>
								<path class="st21" d="M154.8,112c-2.1-1.2-6-0.6-7.3-0.4c-0.2,0-0.3,0.1-0.4,0.1v-0.2c0,0,0.2,0,0.3-0.1
									c1.3-0.2,5.2-0.8,7.4,0.4L154.8,112z"/>
							</g>
						</g>
						<g>
							<g>
								<path class="st21" d="M134.4,114.6l-0.1-0.1c0,0,1.5-1.4,4.2-1.8l0,0.2C135.9,113.3,134.5,114.6,134.4,114.6z"/>
							</g>
						</g>
						<g>
							<g>
								<path class="st21" d="M147.7,110.9l-0.1-0.1c0,0,2.5-1.3,5.2-0.9l0,0.2C150.2,109.6,147.8,110.9,147.7,110.9z"/>
							</g>
						</g>
						<g>
							<g>
								<path class="st21" d="M135.1,112.9l-0.1-0.1c1.5-0.9,3.4-0.5,3.5-0.4l0,0.2C138.5,112.5,136.6,112,135.1,112.9z"/>
							</g>
						</g>
						<g>
							<g>
								<g>
									<g>
										<g>
											<path class="st22" d="M45.6,132.5L32.9,143c1.7,1.7,3.1,3.1,3.5,3.5c1,1.1,11.2,2.2,11.2,2.2l-0.8-14.7
												C46.8,133.9,46.3,133.3,45.6,132.5z"/>
										</g>
									</g>
								</g>
								<g>
									<g>
										<g>
											<path class="st22" d="M37.3,123.1c-1.7-1.4-8.5-4.3-8.7-4.3c-0.2,0-7.9,0-7.9,0s2.7,12.6,3.1,14.1
												c0.2,1,5.5,6.4,9.2,10.1l12.7-10.5C43.4,129.8,38.6,124.1,37.3,123.1z"/>
										</g>
									</g>
								</g>
								<g>
									<g>
										<g>
											<path class="st22" d="M51.1,153.8c0,0,0.3-8.7-1.9-15.4c-2.2-6.7-1.4-11.2-1.7-13.3c-0.3-2.1-3.9-0.4-3.8,3.3
												c0.2,3.7,0.5,4.4,0,7.7c-0.5,3.2-1.4,12-1.4,12l4.2,9.3L51.1,153.8z"/>
										</g>
									</g>
								</g>
								<g>
									<g>
										<g>
											<path class="st15" d="M49.8,155.9c0,0-0.6-10.1-2.8-16.9c-2.2-6.7-0.2-10.9-0.6-13c-0.3-2.1-2.9-1.4-2.7,2.3
												c0.2,3.7,0.5,4.4,0,7.7c-0.5,3.2-1.4,12-1.4,12l4.2,9.3L49.8,155.9z"/>
										</g>
									</g>
								</g>
								<g>
									<g>
										<g>
											<g>
												<path class="st15" d="M46,152.9c0,0-3.1-7.4-8.1-10.4c-5-3-10.1-6.7-10.5-7.7c-0.4-1,0.9-5,1.1-5.5
													c0.3-0.4,2.3-0.7,3.8-1.7c1.4-1,1.3-3.2,1-3.2s-4.5,1.4-6.4,1.9c-1.9,0.5-4.1,8.9-4.1,8.9s5,6.2,8.7,10.2
													c3.8,4,7.8,11.5,7.9,11.7C39.6,157.4,46,152.9,46,152.9z"/>
											</g>
										</g>
									</g>
								</g>
								<g>
									<g>
										<g>
											<path class="st10" d="M35.1,143.9c-0.3-0.7-13.7-23.1-17.1-28.7c-0.4-0.7-0.2-1.6,0.5-2.1l1.3-1l30.1,24.3l-0.7,1.2
												c-0.2,0.3-0.5,0.6-0.8,0.8L35.1,143.9z"/>
										</g>
									</g>
								</g>
								<g>
									<g>
										<g>
											<g>
												<path class="st7" d="M36.2,141.3c-2.5-4.3-13.5-22.6-16.6-27.7c-0.4-0.7,0-1.5,0.7-1.7l13.5-3.5c0.5-0.1,1,0.1,1.3,0.6
													l14.8,26.5c0.3,0.6,0.1,1.4-0.6,1.6l-11.7,4.7C37.1,142,36.4,141.8,36.2,141.3z"/>
											</g>
										</g>
									</g>
								</g>
								<g>
									<g>
										<g>
											<path class="st4" d="M36.2,138.2c-2.2-3.8-10.6-17.7-13.3-22.2c-0.4-0.7,0-1.6,0.8-1.8l10.5-2.7c0.5-0.1,1.1,0.1,1.4,0.6
												l11.9,21.3c0.4,0.7,0.1,1.5-0.6,1.8l-9.1,3.7C37.1,139,36.5,138.8,36.2,138.2z"/>
										</g>
									</g>
								</g>
								<g>
									<g>
										<g>
											<g>
												<path class="st15" d="M27.4,134.7c-0.4-1,0.9-5,1.1-5.5c0.3-0.4,2.3-0.7,3.8-1.7c1.4-1,1.3-3.2,1-3.2s-4.5,1.4-6.4,1.9
													c-1.1,0.3-2.3,3.3-3.1,5.7L27.4,134.7C27.4,134.7,27.4,134.7,27.4,134.7z"/>
											</g>
										</g>
									</g>
								</g>
								<g>
									<g>
										<g>
											<g>
												<path class="st15" d="M48.9,156.6c0,0-3.1-7.4-8.1-10.4c-5-3-10.1-6.7-10.5-7.7c-0.4-1,0.9-5,1.1-5.5
													c0.3-0.4,2.3-0.7,3.8-1.7c1.4-1,1.3-3.2,1-3.2s-4.5,1.4-6.4,1.9c-1.9,0.5-4.1,8.9-4.1,8.9s4.7,8.2,8.4,12.2
													c3.8,4,8.1,9.5,8.2,9.7C42.5,161.1,48.9,156.6,48.9,156.6z"/>
											</g>
										</g>
									</g>
								</g>
								<g>
									<g>
										<g>
											<g>
												<path class="st15" d="M31.4,133c0.3-0.4,2.3-0.7,3.8-1.7c1.4-1,1.3-3.2,1-3.2s-4.5,1.4-6.4,1.9
													c-0.9,0.3-1.9,2.4-2.7,4.5l3.2,2.4C30.6,135.4,31.3,133.3,31.4,133z"/>
											</g>
										</g>
									</g>
								</g>
							</g>
							<g>
								<g>
									<path class="st21" d="M26.1,137.8l-0.2,0c0,0,0.4-1.4,1.1-3.2c0.7-1.9,1.7-4.2,2.8-4.6c1.7-0.6,6.4-1.9,6.4-1.9l0,0.2
										c0,0-4.6,1.3-6.4,1.9c-1,0.4-2,2.6-2.7,4.5C26.6,136.3,26.1,137.8,26.1,137.8z"/>
								</g>
							</g>
							<g>
								<g>
									<path class="st21" d="M22.9,135.2l-0.2,0c0.1-0.2,1.8-6,2.8-7.6c0.9-1.3,1.1-1.4,1.7-1.5c0.1,0,0.3-0.1,0.5-0.1
										c0.9-0.3,5.6-1.6,5.6-1.6l0,0.2c0,0-4.7,1.4-5.6,1.6c-0.2,0.1-0.3,0.1-0.5,0.1c-0.5,0.1-0.7,0.1-1.6,1.4
										C24.6,129.2,22.9,135.2,22.9,135.2z"/>
								</g>
							</g>
							<g>
								<g>
									<path class="st21" d="M45.6,148.5c-3.1-2.7-8.9-5.1-8.9-5.1l0.1-0.2c0.1,0,5.9,2.4,9,5.1L45.6,148.5z"/>
								</g>
							</g>
							<path class="st13" d="M128.4,185.6c0,0,0-23.7-6.7-30.4c0,0-22.7,18.2-33.9,29.3c-11-10.4-28.9-27.2-35.1-33.3
								c-4.8,2.3-12.6,11.2-12.6,11.2s25.1,30,32.7,38.5c7.6,8.4,12.8,11.4,16.6,10.7c1-0.2,2.5-1.1,3.9-2.5
								C103,203.2,128.4,185.6,128.4,185.6z"/>
							<path class="st12" d="M113.7,166.2l-23.6,20.7l-38.5-35.2c-1.4,0.8-2.9,2-4.4,3.4l42,39.3c1.1,1.1,2.9,1,4-0.1
								c4.6-5,16.1-17.6,16.5-18.1C116.9,166.1,120.6,159.5,113.7,166.2z"/>
						</g>
						<g>
							<g>
								<path class="st9" d="M155.9,152.5c-4.8,0-7.9-2.2-9.7-4.2c-2.4-2.6-1.9-3.4-1.8-3.5l0.1,0.1l-0.1,0l0.1,0
									c0,0-0.4,0.8,1.8,3.3c2.2,2.4,6.2,5.1,13,3.8c8.3-1.5,10.7-7.5,11.2-9.3l0.2,0c-0.5,1.8-2.9,7.8-11.3,9.4
									C158,152.4,156.9,152.5,155.9,152.5z"/>
							</g>
						</g>
						<g>
							<g>
								<path class="st9" d="M130.1,180.3l-0.2,0c2-13.3-1.6-27.7-1.6-27.9l0.2,0C128.5,152.5,132.2,167,130.1,180.3z"/>
							</g>
						</g>
						<g>
							<g>
								<path class="st9" d="M185.9,176.1c-4.1-16.8,2.8-27.4,2.9-27.5l0.1,0.1c-0.1,0.1-6.9,10.6-2.8,27.3L185.9,176.1z"/>
							</g>
						</g>
						<g>
							<g>
								<path class="st9" d="M130,190.9l-0.1-0.1c0.1,0,7.4-4.1,11.3-9.5l0.1,0.1C137.4,186.8,130.1,190.9,130,190.9z"/>
							</g>
						</g>
						<g>
							<g>
								<path class="st9" d="M131.3,206l-0.1-0.2l0.1,0c4.9-1.8,30.1-12,45.9-36.3l0.1,0.1c-6.9,10.7-16.5,19.9-28.5,27.5
									C140.4,202.5,133.3,205.2,131.3,206L131.3,206z"/>
							</g>
						</g>
						<g>
							<g>
								<g>
									<g>
										<path class="st23" d="M200.4,155.8c0,0,37.6,30.3,44.8,39.4c7.3,9.1-4.1,21.3-11.9,17.1c-7.8-4.2-39.6-26-39.6-26
											S193.8,162.6,200.4,155.8z"/>
									</g>
								</g>
							</g>
							<g>
								<g>
									<g>
										<path class="st12" d="M245.3,195.1c-7.3-9.1-44.8-39.4-44.8-39.4c-2.3,2.3-3.7,6.5-4.7,11.1l49.8,41.1
											C248,204.4,248.7,199.4,245.3,195.1z"/>
									</g>
								</g>
							</g>
							<g>
								<g>
									<g>
										<path class="st24" d="M237.4,213.1c0,0-32.8,4.1-45.8,3.1c-1.4-5.1,0-13,0-13s23.7-10.1,35-9.9c11.4,0.2,17,2.1,19,5.5
											C247.6,202.1,246.6,213,237.4,213.1z"/>
									</g>
								</g>
							</g>
						</g>
						<g>
							<g>
								<g>
									<g>
										<g>
											<polygon class="st25" points="300,265 300,231.8 151.4,228 0,231.8 0,265 											"/>
										</g>
									</g>
								</g>
							</g>
							<g>
								<g>
									<g>
										<g>
											<polygon class="st26" points="300,231.8 0,231.8 54.4,211.5 252.3,211.5 											"/>
										</g>
									</g>
								</g>
							</g>
							<ellipse class="st25" cx="68.9" cy="224.4" rx="19.4" ry="4.2"/>
						</g>
						<g>
							<g>
								<g>
									<g>
										<path class="st10" d="M64.9,88.5c0,2.8,1.6,5,3.6,5s3.6-2.2,3.6-5s-1.6-5-3.6-5S64.9,85.7,64.9,88.5z"/>
									</g>
								</g>
							</g>
							<g>
								<g>
									<g>
										<path class="st10" d="M59.5,88c0,2.8,1.6,5,3.6,5c2,0,3.6-2.2,3.6-5c0-2.8-1.6-5-3.6-5C61.1,83,59.5,85.2,59.5,88z"/>
									</g>
								</g>
							</g>
							<g>
								<g>
									<g>
										<g>
											<path class="st10" d="M43.4,265L62.2,89.1c0-0.4,0.3-0.8,0.7-1c0.4-0.2,0.8-0.2,1.2-0.1l48.1,22l3,9.5l1.7-0.5l-3.2-10.3
												L64.8,86.5c-0.9-0.4-1.9-0.4-2.8,0.1c-0.9,0.5-1.4,1.4-1.5,2.4L41.6,265H43.4z"/>
										</g>
									</g>
								</g>
								<g>
									<g>
										<g>
											<g>
												
													<ellipse transform="matrix(0.3854 -0.9228 0.9228 0.3854 -41.5071 202.5273)" class="st14" cx="131.3" cy="132.4" rx="8.5" ry="8.5"/>
											</g>
										</g>
									</g>
									<path class="st1" d="M131.3,124c-1,0-1.9,0.2-2.8,0.5c0.2,0,0.5,0,0.7,0c4,0,7.3,3.3,7.3,7.3c0,4-3.3,7.3-7.3,7.3
										c-2,0-3.9-0.8-5.2-2.2c1.5,2.4,4.2,4.1,7.2,4.1c4.7,0,8.5-3.8,8.5-8.5C139.7,127.7,135.9,124,131.3,124z"/>
									<g>
										<g>
											<g>
												<path class="st10" d="M131.8,126.9c0,0-13.9-10-16.7-11.5c-2-1-4.2,3-3.2,4.5c0.9,1.5,13.2,12.9,14.9,14.3
													c1.8,1.4,4.8,0.9,6.3-1C134.6,131.3,133.4,127.8,131.8,126.9z"/>
											</g>
										</g>
									</g>
									<g>
										<g>
											<g>
												<g>
													<path class="st7" d="M113.4,115.6c-0.4,0.3-0.7,0.6-1,1.1l20.6,16.5c0,0,0,0,0.1-0.1c0.6-0.8,0.8-1.8,0.6-2.8
														L113.4,115.6z"/>
												</g>
											</g>
										</g>
									</g>
									<g>
										<g>
											<g>
												<g>
													<path class="st7" d="M111.4,117.7c-0.4,1.4,0.3,2.6,1.5,2.6c1.2,0,2.4-1.1,2.8-2.6c0.4-1.4-0.3-2.6-1.5-2.6
														S111.8,116.2,111.4,117.7z"/>
												</g>
											</g>
										</g>
									</g>
								</g>
								<g>
									<g>
										<g>
											<ellipse class="st10" cx="117.5" cy="109.4" rx="2.9" ry="4.1"/>
										</g>
									</g>
								</g>
								<g>
									<g>
										<g>
											<ellipse class="st10" cx="113.6" cy="109.4" rx="2.7" ry="3.8"/>
										</g>
									</g>
								</g>
								<g>
									<g>
										<g>
											<path class="st10" d="M48.9,265L67.3,89.1c0-0.4,0.3-0.8,0.7-1c0.4-0.2,0.8-0.2,1.2-0.1l48.1,22l4.6,14.7
												c0.1,0.5,0.6,0.7,1.1,0.6c0.5-0.1,0.7-0.6,0.6-1.1l-4.9-15.4L69.9,86.5c-0.9-0.4-1.9-0.4-2.8,0.1
												c-0.9,0.5-1.4,1.4-1.5,2.4L47.2,265H48.9z"/>
										</g>
									</g>
								</g>
								<g>
									<g>
										<g>
											<path class="st10" d="M57.1,222.7c3.4,11.9,3.2,18.6,2.9,21.4c-0.1,0.6-2,12.1-3.5,20.9h0.6c1.5-8.9,3.4-20.3,3.5-21
												c0.3-2.9,0.4-9.6-2.9-21.5c-1.5-5.2-3.7-10.3-5.8-15.2c-4.8-11.2-9.3-21.7-6.1-33.1c2.7-9.4,8.1-19.5,12.8-28.4
												c3.7-6.9,6.9-12.8,8.1-17.2c2.3-8,1.4-19.5-2.9-35.4c-1.6-6.1,1.3-11.1,5-13.3c2.7-1.7,5.7-1.7,7.4,0
												c2.9,2.7,2.2,9.3,1.2,18.3c-0.6,5.2-1.2,11.2-1.3,17.7c-0.1,10,5.2,15,10.6,15.6c4.8,0.5,8.8-2.6,9.8-7.5
												c0.9-4.3,2.7-7.2,5.5-8.5c2.9-1.4,6.1-0.6,7.2,0c1.9,1,4.1,2.4,4.1,2.4l0.3-0.5c0,0-2.3-1.4-4.2-2.5
												c-1.2-0.6-4.6-1.4-7.7,0c-3,1.4-5,4.4-5.9,8.9c-1.1,5.4-5.4,7.5-9.2,7c-5.1-0.5-10.2-5.4-10.1-15
												c0.1-6.5,0.7-12.4,1.3-17.6c1-9.3,1.7-15.9-1.4-18.8c-2-1.8-5.1-1.8-8.1,0c-3.9,2.3-7,7.6-5.3,14
												c4.3,15.8,5.2,27.2,2.9,35.1c-1.3,4.3-4.4,10.2-8.1,17c-4.8,8.9-10.2,19-12.9,28.5c-3.3,11.6,1.3,22.2,6.1,33.5
												C53.4,212.5,55.6,217.6,57.1,222.7z"/>
										</g>
									</g>
								</g>
							</g>
						</g>
						<g>
							<g>
								<path class="st21" d="M131.3,138.6c-0.8,0-1.6-0.1-2.4-0.4c-5.6-1.6-5-6.6-5-6.7l0.2,0c0,0-0.5,4.9,4.9,6.5
									c2.2,0.6,4,0.4,5.6-0.6c1.8-1.2,2.7-3.2,2.9-4.6l0.2,0c-0.2,1.4-1.1,3.5-3,4.7C133.7,138.3,132.6,138.6,131.3,138.6z"/>
							</g>
						</g>
						<g>
							<g>
								<g>
									<g>
										<polygon class="st4" points="142.7,218.1 198.3,214.7 231.6,218.9 179.1,225.6 										"/>
									</g>
								</g>
							</g>
							<g>
								<g>
									<g>
										<path class="st10" d="M180,222.8c0,0-35-5.1-37.3-4.7c-3.5,0.5-3.7,6.2,0,6.4c3.7,0.2,36.1,3.5,40.8,3.5s60.7-5.7,65-6.6
											c4.3-0.8,1-4.5-1.2-4.5C245.2,216.9,180,222.8,180,222.8z"/>
									</g>
								</g>
							</g>
							<g>
								<g>
									<g>
										<g>
											<path class="st10" d="M177.3,219.6l4.8-50.4c-0.3-3,2.1-5.6,5.1-5.7l68.5-1.5c3.1-0.1,5.6,2.5,5.4,5.6l-12.3,46.1
												c-0.2,2.6-2.2,4.6-4.8,4.9l-61,5.8C180.1,224.7,177.5,222.6,177.3,219.6z"/>
										</g>
									</g>
								</g>
								<g>
									<g>
										<g>
											<path class="st26" d="M179.4,220.8l4.8-50.4c-0.3-3,2.1-5.6,5.1-5.7l68.5-1.5c3.1-0.1,5.6,2.5,5.4,5.6L250.9,215
												c-0.2,2.6-2.2,4.6-4.8,4.9l-61,5.8C182.3,225.9,179.7,223.7,179.4,220.8z"/>
										</g>
									</g>
								</g>
								<g>
									<g>
										<g>
											<path class="st4" d="M257.9,163.2l-54.5,1.2c8.5,3.3,15.8,9.4,20.2,17.4c6.6,11.9,9.2,25.9,8,39.4l14.5-1.4
												c2.6-0.2,4.6-2.3,4.8-4.9l12.3-46.1C263.5,165.8,261,163.2,257.9,163.2z"/>
										</g>
									</g>
								</g>
							</g>
						</g>
					</g>
					<g>
						<g>
							<g>
								<g>
									<path class="st10" d="M88.3,203.4c0,0,5.4-3.5,9.4-1.3c4,2.2,0.5,13.6-0.9,16.5c-1.3,2.9-5.7,4.9-9.4,2.4
										c-0.7-2.2,0-4.3,0-4.3s1.3,2,5.3,1.9s4.7-8.8,4.9-11.3c0.2-2.5-0.7-4.4-3.4-3.8c-2.7,0.6-3.9,1.6-5.3,4.9
										C87.2,207.2,88.3,203.4,88.3,203.4z"/>
								</g>
							</g>
						</g>
						<g>
							<g>
								<g>
									<g>
										<path class="st10" d="M62,199.2l2.5,25.2c0,1.2,5.3,2.2,11.8,2.2c6.5,0,11.8-1,11.8-2.2l2.5-25.2H62z"/>
									</g>
								</g>
							</g>
							<g>
								<g>
									<g>
										<path class="st7" d="M88.1,199.2h-8.4l-0.1,27.3c2.8-0.2,5.2-0.5,6.7-1L88.1,199.2z"/>
									</g>
								</g>
							</g>
							<g>
								<g>
									<g>
										<ellipse class="st7" cx="76.3" cy="199.2" rx="14.3" ry="2.7"/>
									</g>
								</g>
							</g>
							<g>
								<g>
									<g>
										<ellipse class="st10" cx="76.3" cy="198.8" rx="12.7" ry="1.9"/>
									</g>
								</g>
							</g>
						</g>
					</g>
					<g>
						<g>
							<path class="st27" d="M217.7,184.8c0,0-0.1,0-0.1,0c-0.2-0.1-0.3-0.3-0.2-0.5l19.7-51.7c0.1-0.2,0.3-0.3,0.5-0.2
								c0.2,0.1,0.3,0.3,0.2,0.5l-19.7,51.7C218,184.7,217.9,184.8,217.7,184.8z"/>
						</g>
						<g>
							<path class="st28" d="M246.2,219.9c2.6-0.2,4.6-2.3,4.8-4.9l8.7-32.4l-51.9,0.9c-1.8,0-3.2,1.5-3.2,3.3l-3.9,37.4
								L246.2,219.9z"/>
							<path class="st1" d="M207.7,183.5l52.4-0.9c0.4,0,0.8,0.1,1.2,0.2l11.7,0.7l-0.4,6.4c0,0-6.2-2.8-9.4-5.1
								c0.1,0.3,0.2,0.6,0.2,1v31.5c0,1.7-1.3,3.1-2.9,3.3l-37.3,4.1l-7.4,6.2l-9.3-2.9c-0.2-0.1-0.4-0.2-0.5-0.3l0,0l0,0
								c-0.9-0.6-1.5-1.6-1.5-2.8v-38.1C204.5,185,205.9,183.5,207.7,183.5z"/>
							<g>
								<path class="st26" d="M272.7,184.5l-55,0.9c-1.9,0-3.4,1.6-3.4,3.5V227c0,2.1,1.8,3.7,3.8,3.4l55-6.1
									c1.7-0.2,3.1-1.7,3.1-3.4v-33C276.2,186,274.7,184.4,272.7,184.5z"/>
								<path class="st4" d="M276.2,218.3v-30.4c0-1.9-1.6-3.5-3.5-3.5l-35.6,0.6C242.1,202.8,258.6,213.4,276.2,218.3z"/>
								<path class="st26" d="M237.2,185.1l-19.4,0.3c-1.9,0-3.4,1.6-3.4,3.5V227c0,2.1,1.8,3.7,3.8,3.4l55-6.1
									c1.7-0.2,3.1-1.7,3.1-3.4v-2.6C258.6,213.4,242.1,202.8,237.2,185.1z"/>
								<path class="st29" d="M217.8,231.4c-1.1,0-2.1-0.4-2.9-1.1c-0.9-0.8-1.5-2-1.5-3.3v-38.1c0-2.4,1.9-4.4,4.3-4.4l55-0.9
									c1.2,0,2.3,0.4,3.2,1.3c0.8,0.8,1.3,1.9,1.3,3.1v33c0,2.2-1.7,4.1-3.9,4.4l-55,6.1C218.1,231.4,218,231.4,217.8,231.4z
									 M272.7,185.4l-55,0.9c-1.4,0-2.5,1.1-2.5,2.5V227c0,0.7,0.3,1.4,0.8,1.9c0.5,0.5,1.2,0.7,1.9,0.6l55-6.1
									c1.3-0.1,2.2-1.2,2.2-2.5v-33c0-0.7-0.3-1.3-0.8-1.8C274.1,185.7,273.4,185.4,272.7,185.4
									C272.8,185.4,272.8,185.4,272.7,185.4L272.7,185.4z"/>
							</g>
							<g>
								<polygon class="st30" points="270.9,191.4 269.1,191.4 269.1,214.9 270.9,214.8 								"/>
							</g>
							<g>
								<polygon class="st30" points="267.4,191.5 265.6,191.5 265.6,215.2 267.4,215 								"/>
							</g>
							<g>
								<polygon class="st30" points="263.9,191.6 262.1,191.6 262.1,215.5 263.9,215.3 								"/>
							</g>
							<g>
								<polygon class="st30" points="260.4,191.7 258.6,191.7 258.6,215.7 260.4,215.6 								"/>
							</g>
							<g>
								<polygon class="st30" points="256.9,191.8 255.1,191.8 255.1,216 256.9,215.9 								"/>
							</g>
							<g>
								<polygon class="st30" points="253.4,191.9 251.6,191.9 251.6,216.3 253.4,216.1 								"/>
							</g>
							<g>
								<polygon class="st30" points="249.9,192 248.1,192 248.1,216.6 249.9,216.4 								"/>
							</g>
							<g>
								<path class="st27" d="M233.4,212.3c-5.6,0.1-10.2-4.6-10.2-10.5c0-5.9,4.6-10.8,10.2-10.9c5.6-0.1,10.2,4.6,10.2,10.5
									C243.6,207.3,239,212.2,233.4,212.3z"/>
							</g>
							<g>
								<path class="st30" d="M233.4,212.3c-5.6,0.1-10.2-4.6-10.2-10.5c0-5.9,4.6-10.8,10.2-10.9c5.6-0.1,10.2,4.6,10.2,10.5
									C243.6,207.3,239,212.2,233.4,212.3z M233.4,192.8c-4.6,0.1-8.4,4.2-8.4,9.1c0,4.9,3.8,8.8,8.4,8.7c4.6-0.1,8.7-4.2,8.7-9.1
									C242.1,196.6,238,192.7,233.4,192.8z"/>
							</g>
							<ellipse class="st1" cx="241.4" cy="218.8" rx="2.6" ry="2.9"/>
							<ellipse class="st29" cx="243.5" cy="219" rx="2.2" ry="2.4"/>
							<ellipse class="st1" cx="232.7" cy="219.9" rx="2.6" ry="2.9"/>
							<ellipse class="st29" cx="234.8" cy="220.1" rx="2.2" ry="2.4"/>
							<path class="st1" d="M221,220.9c0,1.6,1.1,2.9,2.6,2.9c1.4,0,2.6-1.3,2.6-2.9s-1.1-2.9-2.6-2.9
								C222.1,217.9,221,219.2,221,220.9z"/>
							<ellipse class="st29" cx="225.7" cy="221.1" rx="2.2" ry="2.4"/>
						</g>
					</g>
					<g>
						<g>
							<g>
								<g>
									<path class="st31" d="M176.2,44.8c0,0-2.7-1.1-3.6,2.3c-0.9,3.5,12.7,12.7,23,21.3c10.2,8.6,31.6,27.4,35.9,30.2
										c4.3,2.8,9.4-2.3,9.4-2.3L176.2,44.8z"/>
								</g>
							</g>
						</g>
						<g>
							<g>
								<g>
									<path class="st10" d="M239.5,97.5l-64.9-52.2c-1-0.8-0.5-2.4,0.8-2.5l8.5-0.6c0.3,0,0.7,0.1,1,0.3l63.8,50.8
										c0.9,0.7,0.6,2.1-0.5,2.4l-7.4,2C240.3,97.9,239.9,97.8,239.5,97.5z"/>
								</g>
							</g>
						</g>
						<polygon class="st11" points="233.6,88.7 180.4,45.8 183.9,45.4 244.5,93.9 240.5,94.5 						"/>
						<g>
							<g>
								<g>
									<g>
										<g>
											<path class="st10" d="M282.8,265h1.8c-6.6-35.2-27.6-139.5-32-161.2l-0.1-0.3l-71.2-57.6l3.5-0.3l69.8,56.5
												c9.2,44.7,27.1,134.2,32.4,162.8h1.7c-6-32.6-28-141.4-32.5-163.5l-0.1-0.3L185.6,44l-0.3-0.2l-8.6,0.7l74.2,60
												C259.8,148.1,277,234.1,282.8,265z"/>
										</g>
									</g>
								</g>
								<g>
									<g>
										<g>
											<path class="st10" d="M246.4,104.5c0,2.8,1.6,5,3.6,5c2,0,3.6-2.2,3.6-5s-1.6-5-3.6-5C248,99.5,246.4,101.8,246.4,104.5z
												"/>
										</g>
									</g>
								</g>
								<g>
									<g>
										<g>
											<path class="st10" d="M250.4,102.6c0,2.8,1.6,5,3.6,5c2,0,3.6-2.2,3.6-5c0-2.8-1.6-5-3.6-5
												C252,97.6,250.4,99.9,250.4,102.6z"/>
										</g>
									</g>
								</g>
							</g>
						</g>
					</g>
				</g>
				<g>
					<g>
						<path class="st32" d="M113,120.4c-0.3,0-0.5-0.1-0.8-0.2c-1.5-0.9-0.8-2.7-0.8-2.8l0.2,0.1c0,0.1-0.6,1.7,0.7,2.5
							c0.4,0.2,0.8,0.3,1.2,0.1c1-0.3,1.7-1.4,1.9-1.7l0.2,0.1c-0.2,0.4-1,1.5-2,1.8C113.4,120.4,113.2,120.4,113,120.4z"/>
					</g>
				</g>
			</g>
			<g>
				<g>
					<g>
						<path class="st13" d="M109.8,54.9l0-0.3c-0.1-3-2-4.7-3.7-5.6l-12.3,3.3c-1.2,0.3-2.4-0.4-2.7-1.6l-2.5-9.3
							c-0.3-1.2,0.4-2.4,1.6-2.7l18-4.8c1.2-0.3,2.4,0.4,2.7,1.6l2.5,9.3c0.3,1.1-0.3,2.2-1.4,2.6c0,1.2,0,4.8-2.1,7.3L109.8,54.9z
							 M90.3,38.9c-1,0.3-1.7,1.4-1.4,2.4l2.5,9.3c0.3,1,1.4,1.7,2.4,1.4l12.4-3.3l0,0c1.6,0.9,3.6,2.6,3.8,5.5c1.8-2.5,1.9-6,1.8-7
							l0-0.1l0.1,0c1-0.3,1.6-1.4,1.3-2.4l-2.5-9.3c-0.3-1-1.4-1.7-2.4-1.4L90.3,38.9z"/>
					</g>
					<g>
						
							<rect x="92" y="39.9" transform="matrix(0.9661 -0.2581 0.2581 0.9661 -6.9413 27.2315)" class="st13" width="16.5" height="0.2"/>
					</g>
					<g>
						
							<rect x="92.7" y="42.8" transform="matrix(0.9661 -0.2581 0.2581 0.9661 -7.6425 27.5211)" class="st13" width="16.5" height="0.2"/>
					</g>
					<g>
						
							<rect x="93.5" y="45.6" transform="matrix(0.9661 -0.2581 0.2581 0.9661 -8.3436 27.8102)" class="st13" width="16.5" height="0.2"/>
					</g>
				</g>
				<g>
					<g>
						<path class="st13" d="M161.2,80.7c-4.8,0-8.6-3.9-8.6-8.6c0-4.8,3.9-8.6,8.6-8.6c4.8,0,8.6,3.9,8.6,8.6
							C169.8,76.8,165.9,80.7,161.2,80.7z M161.2,63.6c-4.6,0-8.4,3.8-8.4,8.4c0,4.6,3.8,8.4,8.4,8.4c4.6,0,8.4-3.8,8.4-8.4
							C169.6,67.4,165.8,63.6,161.2,63.6z"/>
					</g>
					<g>
						<path class="st13" d="M158.6,77.1c-0.2,0-0.3,0-0.5-0.1c-0.3-0.2-0.4-0.4-0.4-0.7v-7.6c0-0.3,0.2-0.6,0.4-0.7
							c0.3-0.2,0.6-0.2,0.9,0l7.5,3.8c0.3,0.1,0.5,0.4,0.5,0.8c0,0.3-0.2,0.6-0.5,0.8L159,77C158.9,77,158.7,77.1,158.6,77.1z
							 M158.6,67.9c-0.1,0-0.2,0-0.3,0.1c-0.2,0.1-0.3,0.3-0.3,0.5v7.6c0,0.2,0.1,0.4,0.3,0.5c0.2,0.1,0.4,0.1,0.6,0l7.5-3.8
							c0.2-0.1,0.4-0.3,0.4-0.6c0-0.2-0.1-0.5-0.4-0.6l-7.5-3.8C158.8,68,158.7,67.9,158.6,67.9z"/>
					</g>
				</g>
				<g>
					<g>
						<g>
							<path class="st13" d="M124.2,48.6c-0.6,0-1.1-0.1-1.5-0.4c-0.3-0.2-0.4-0.5-0.4-0.8c0-1,1.4-2.3,3.3-2.8
								c1.2-0.3,2.3-0.3,2.9,0.2c0.3,0.2,0.4,0.5,0.4,0.8c0,1-1.4,2.3-3.3,2.8C125.1,48.5,124.6,48.6,124.2,48.6z M127,44.6
								c-0.4,0-0.9,0.1-1.4,0.2c-1.7,0.5-3.1,1.6-3.1,2.6c0,0.3,0.1,0.5,0.3,0.6c0.5,0.4,1.6,0.5,2.7,0.1c1.7-0.5,3.1-1.6,3.1-2.6
								c0-0.3-0.1-0.5-0.3-0.6C128,44.7,127.6,44.6,127,44.6z"/>
						</g>
						<g>
							<polygon class="st13" points="128.9,45.6 128.7,45.6 128.7,33.9 136.7,35.5 136.7,35.7 128.9,34.2 							"/>
						</g>
					</g>
					<g>
						<g>
							<path class="st13" d="M132.1,48.6c-0.6,0-1.1-0.1-1.5-0.4c-0.3-0.2-0.4-0.5-0.4-0.8c0-1,1.4-2.3,3.3-2.8
								c1.2-0.3,2.3-0.3,2.9,0.2c0.3,0.2,0.4,0.5,0.4,0.8c0,1-1.4,2.3-3.3,2.8C133,48.5,132.5,48.6,132.1,48.6z M134.9,44.6
								c-0.4,0-0.9,0.1-1.4,0.2c-1.7,0.5-3.1,1.6-3.1,2.6c0,0.3,0.1,0.5,0.3,0.6c0.5,0.4,1.6,0.5,2.7,0.1c1.7-0.5,3.1-1.6,3.1-2.6
								c0-0.3-0.1-0.5-0.3-0.6C135.9,44.7,135.5,44.6,134.9,44.6z"/>
						</g>
						<g>
							<rect x="136.6" y="35.6" class="st13" width="0.2" height="10"/>
						</g>
					</g>
					<g>
						
							<rect x="132.6" y="33.5" transform="matrix(0.2137 -0.9769 0.9769 0.2137 67.6642 159.234)" class="st13" width="0.2" height="8.1"/>
					</g>
				</g>
				<g>
					<g>
						<g>
							<path class="st13" d="M162.5,46.4c-0.6-0.3-1.1-0.7-1.3-1.2c-0.2-0.4-0.2-0.7,0-1.1c0.5-1.1,2.7-1.6,4.8-1.2
								c1.4,0.3,2.6,0.9,2.9,1.7c0.2,0.4,0.2,0.7,0,1.1c-0.5,1.1-2.7,1.6-4.8,1.2C163.5,46.8,163,46.6,162.5,46.4z M167.5,43.7
								c-0.4-0.2-1-0.4-1.6-0.5c-2-0.4-4.1,0.1-4.5,1.1c-0.1,0.3-0.1,0.6,0,0.8c0.3,0.7,1.4,1.3,2.8,1.5c2,0.4,4.1-0.1,4.5-1.1
								c0.1-0.3,0.1-0.6,0-0.8C168.5,44.3,168.1,44,167.5,43.7z"/>
						</g>
						<g>
							<polygon class="st13" points="155.4,56.5 147.9,50.7 148,50.5 155.3,56.1 161.2,44.1 161.4,44.3 							"/>
						</g>
					</g>
					<g>
						<g>
							<path class="st13" d="M154.3,42.3c-0.6-0.3-1.1-0.7-1.3-1.2c-0.2-0.4-0.2-0.7,0-1.1c0.5-1.1,2.7-1.6,4.8-1.2
								c1.4,0.3,2.6,0.9,2.9,1.7c0.2,0.4,0.2,0.7,0,1.1c-0.5,1.1-2.7,1.6-4.8,1.2C155.3,42.7,154.8,42.6,154.3,42.3z M159.3,39.6
								c-0.4-0.2-1-0.4-1.6-0.5c-2-0.4-4.1,0.1-4.5,1.1c-0.1,0.3-0.1,0.6,0,0.8c0.3,0.7,1.4,1.3,2.8,1.5c2,0.4,4.1-0.1,4.5-1.1
								c0.1-0.3,0.1-0.6,0-0.8C160.3,40.3,159.9,39.9,159.3,39.6z"/>
						</g>
						<g>
							
								<rect x="144.7" y="45.2" transform="matrix(0.4401 -0.898 0.898 0.4401 43.5389 160.5638)" class="st13" width="11.6" height="0.3"/>
						</g>
					</g>
					<g>
						
							<rect x="153" y="45.9" transform="matrix(0.6218 -0.7832 0.7832 0.6218 18.3109 139.0027)" class="st13" width="0.3" height="9.4"/>
					</g>
				</g>
			</g>
		</g>
	</g>
</g>
</svg>
