<?xml version="1.0" encoding="utf-8"?>
<!-- Generator: Adobe Illustrator 25.1.0, SVG Export Plug-In . SVG Version: 6.00 Build 0)  -->
<svg version="1.1" id="Layer_1" xmlns="http://www.w3.org/2000/svg" xmlns:xlink="http://www.w3.org/1999/xlink" x="0px" y="0px"
	 viewBox="0 0 300 265" style="enable-background:new 0 0 300 265;" xml:space="preserve">
<style type="text/css">
	.st0{fill:#31814A;}
	.st1{fill:#966432;}
	.st2{fill:#263238;}
	.st3{fill:#FAFAFA;}
	.st4{display:none;}
	.st5{display:inline;fill:#EBEBEB;}
	.st6{fill:#455A64;}
	.st7{fill:#FFFFFF;}
	.st8{fill:#764E28;}
	.st9{fill:#553716;}
	.st10{fill:#FF725E;}
	.st11{opacity:0.3;}
	.st12{fill:#E0E0E0;}
	.st13{fill:#FFBE9D;}
	.st14{fill:#EB996E;}
	.st15{fill:#005BA4;}
</style>
<g id="Background_Complete">
	<g>
		<g>
			<g>
				<path class="st0" d="M245.4,213.4c-2.6-1.5-5.6-2.4-8.8-2.7c-1.5-0.1-3-0.1-4.2,0.7c-0.2,0.2-0.4,0.4-0.4,0.7
					c0,0.2,0.2,0.3,0.4,0.5C236.1,215,241.5,215.3,245.4,213.4"/>
			</g>
			<g>
				<path class="st0" d="M245.2,213.2c-2-1.4-3.9-2.8-5.6-4.4c-1.7-1.7-3-3.6-3.5-5.8c-0.1-0.7-0.2-1.4,0.2-1.9
					C240.8,204.1,244.3,208.2,245.2,213.2"/>
			</g>
			<g>
				<path class="st0" d="M245.4,213.4c-0.3-2.2-0.4-4.4,0.1-6.6c0.6-2.2,1.9-4.2,3.9-5.4c0.8,1.6,0.4,3.5-0.1,5.2
					c-0.9,2.6-2.1,5.1-3.9,7.3"/>
			</g>
			<g>
				<path class="st0" d="M249.8,220.4c-2.7,0.3-5.1,1.5-7,3.2c-2,1.6-3.4,3.8-4,6.1c2.6-0.1,4.8-1.8,6.5-3.6
					C246.9,224.2,248,222.2,249.8,220.4"/>
			</g>
			<g>
				<path class="st0" d="M250.7,221.5c-2.1-4.7-1.3-10.4,2-14.5C254.3,211.8,253.7,217.3,250.7,221.5"/>
			</g>
			<g>
				<path class="st0" d="M256.5,227.7c-2.5-0.1-4.9,0.4-7,1.5c-2.1,1.1-3.8,2.7-4.9,4.7c-0.1,0.3-0.2,0.6-0.1,0.8
					c0.2,0.2,0.4,0.2,0.8,0.2c2.4-0.1,4.5-1.4,6.2-2.8C253.3,230.6,254.7,228.9,256.5,227.7"/>
			</g>
			<g>
				<path class="st0" d="M256.4,227.4c-1.2-3.6-1.3-7.5-0.2-11.1c0.4-1.4,1.1-2.9,2.7-3.6c0.1-0.1,0.2-0.1,0.4-0.1
					c0.1,0,0.2,0.2,0.2,0.3c0.6,1,0.7,2.1,0.7,3.2c0,1.1-0.3,2.2-0.6,3.2c-0.4,2-0.7,4.1-1.9,5.8c-0.3,0.4-0.6,0.8-0.8,1.3
					c-0.2,0.4-0.2,0.6-0.4,0.9"/>
			</g>
			<g>
				<path class="st0" d="M271.8,229.4c-1.1-3.9,0.1-8.6,2.8-11.7c0.2-0.2,0.4-0.5,0.8-0.5c0.4,0,0.7,0.6,0.6,1.1
					C275.8,222.3,274.3,226.2,271.8,229.4"/>
			</g>
			<g>
				<path class="st0" d="M273.1,230.3c5.3,1.2,11.3,0,15.7-2.8c-2.6-1.2-5.6-1.5-8.5-0.9C277.5,227.1,274.9,228.2,273.1,230.3"/>
			</g>
			<g>
				<path class="st0" d="M274.4,227.7c2.9-4.3,8.7-7.1,14.3-7.3c-0.7,2-2.6,3.6-4.7,4.6c-2.1,1-4.5,1.4-6.9,1.8
					C276.2,226.9,274.9,227,274.4,227.7"/>
			</g>
			<g>
				<path class="st0" d="M272,215.2c0.8-2.4,1.6-4.9,1.8-7.4c0.2-2.5-0.2-5.2-1.7-7.4c-2.8,4.8-3,10.3-0.2,15.1"/>
			</g>
			<g>
				<path class="st0" d="M281.3,211c3.3-5.2,9.8-9.4,16.5-10C295.3,206.7,288.3,211.1,281.3,211"/>
			</g>
			<g>
				<path class="st0" d="M279.3,212c4.8,0.7,8.9,3.4,13.4,5.1c1,0.4,2,0.6,3,0.5c1-0.1,2-0.7,2.2-1.6c0.2-0.8-0.2-1.5-0.8-2.1
					s-1.5-0.9-2.2-1.2c-4.9-1.8-10.1-1.9-15.3-0.8"/>
			</g>
			<g>
				<path class="st0" d="M276.5,215c1.1,0.3,1.5,0.8,2.4,1.4c2.9,2.2,6.4,3.8,10.2,4.7c0.3,0.1,0.9,0.1,1.1-0.2
					c0.1-0.3,0-0.6-0.2-0.8c-1.6-1.7-3.8-2.9-6.2-3.7s-4.4-1.7-7.2-1.5"/>
			</g>
			<g>
				<path class="st0" d="M273.4,196.9c3.9,3.3,9.4,4.9,14.7,4.5c0.2,0,0.6-0.1,0.7-0.2c0.3-0.4-0.1-0.9-0.6-1.2
					C284,196.9,278.8,195.7,273.4,196.9"/>
			</g>
			<g>
				<path class="st0" d="M277.2,195.7c5.2-3.5,12.2-4.5,18.4-2.7c-2.4,2-5.5,3.1-8.8,3.4C283.6,196.7,280.3,196.4,277.2,195.7"/>
			</g>
			<g>
				<path class="st0" d="M275.6,187.3c-0.4-3.9-0.1-6.9-0.4-10.8c0-0.3-0.1-0.7-0.4-0.8c-0.4-0.2-0.8,0.3-1,0.8
					C272.5,180.1,273.3,184.2,275.6,187.3"/>
			</g>
			<g>
				<path class="st0" d="M275.4,187.7c2.9-1.6,5.2-3.7,7.2-6.2c1.5-1.7,2.6-3.8,2.2-5.9c-2,0-3.9,0.9-5.2,2.3c-1.3,1.3-2,3-2.6,4.7
					C276.4,184.3,276.1,186.1,275.4,187.7"/>
			</g>
			<g>
				<path class="st0" d="M282.4,186c6.4-2.1,12.5-5.3,17.6-9.3c-2.1-0.8-4.5-0.3-6.6,0.5C288.7,178.9,284.7,181.8,282.4,186"/>
			</g>
			<g>
				<path class="st0" d="M277.3,189.9c3.3,0.3,6.6,0.5,9.8,0c3.1-0.5,6.2-1.6,9.1-2.7c0.2-0.1,0.6-0.2,0.7-0.4s0-0.5-0.2-0.7
					s-0.4-0.3-0.8-0.3c-3.3-0.8-6.7-0.4-9.9,0.5C282.8,187.2,280.2,188.4,277.3,189.9"/>
			</g>
			<g>
				<path class="st0" d="M258.8,197c-2.2-4-2.1-8.7-0.1-12.8c1.3,1.8,1.6,4.2,1.2,6.4c-0.2,2.2-1,4.4-1,6.6"/>
			</g>
			<g>
				<path class="st0" d="M249.8,193c-5.5-0.1-11.1,2-14.8,5.6c2.8,0.4,5.6-0.2,8.2-1.3c2.5-1.1,4.7-2.6,7-4.2"/>
			</g>
			<g>
				<path class="st0" d="M243.8,191.2c-2.7-0.2-5.3-0.5-8,0.2c-2.6,0.7-4.9,2.3-6.1,4.6c2.6,0.3,5.2-0.3,7.4-1.3
					C239.7,193.8,241.8,192.5,243.8,191.2"/>
			</g>
			<g>
				<path class="st0" d="M252.7,191.3c-2.5-1.4-4.9-2.9-7.8-3.5s-6.2-0.2-8.1,1.8c2.4,1.2,5.1,1.3,7.8,1.3s6,0,8.4,0.8"/>
			</g>
			<g>
				<path class="st0" d="M252.7,191.4c-4.2-3.7-5.7-10.2-4-15.2C251.9,180.7,253.4,186.2,252.7,191.4"/>
			</g>
			<g>
				<path class="st0" d="M264.2,181.1c0.8-1.6,1.3-3.3,2-5c0.7-1.7,1.6-3.3,2.9-4.6s3.1-2.3,5.2-2.4
					C273.1,174.1,269.3,178.6,264.2,181.1"/>
			</g>
			<g>
				<path class="st0" d="M262.1,183.2c-1.3-1.6-2.8-3.8-4.6-5s-4-1.9-6.2-1.5C253.5,180.3,257.6,182.8,262.1,183.2"/>
			</g>
			<g>
				<path class="st0" d="M262.6,181.2c-0.9-1.9-1.7-3.9-2-5.9c-0.3-2.1-0.1-4.2,1-6c2.2,3.9,3,8,1.1,12"/>
			</g>
			<g>
				<path class="st0" d="M264.3,169.2c1.3-3.8,5.3-6.6,9.4-7.9c0.6-0.2,1.1-0.3,1.7-0.2s1.1,0.4,1.2,0.9c0.1,0.7-0.4,1.2-1,1.7
					C272.2,166.2,268.4,168.1,264.3,169.2"/>
			</g>
			<g>
				<path class="st0" d="M264.3,166.1c0.1-2.5,0.3-5,1.2-7.3c0.9-2.3,2.6-4.5,5.2-5.6c0.4,2.5-0.8,5-2.2,7.1s-3.3,4.2-4.2,6.6"/>
			</g>
			<g>
				<path class="st0" d="M264.2,167.8c-1.1-2.8-1.2-6.3-3-8.8c-1.3-1.7-3.4-2.9-4.5-4.7c-0.8,1.7-0.6,3.6,0.2,5.3
					c0.8,1.7,2.1,3.1,3.5,4.4C261.7,165.4,262.9,166.4,264.2,167.8"/>
			</g>
			<g>
				<g>
					<path class="st1" d="M264.3,249.9c-0.1,0-0.1-18.6-0.1-41.5s0.1-41.5,0.1-41.5c0.1,0,0.1,18.6,0.1,41.5
						S264.3,249.9,264.3,249.9z"/>
				</g>
			</g>
			<g>
				<g>
					<path class="st1" d="M282.5,194.2c0,0-0.2,0.1-0.8,0.3s-1.2,0.4-2.1,0.6c-1.8,0.6-4.4,1.4-7.1,2.3c-2.7,1-5.3,1.9-6.6,3
						c-0.7,0.6-1.1,1.1-1.3,1.6c-0.2,0.4-0.2,0.7-0.2,0.7s0-0.1,0-0.2c0-0.1,0.1-0.3,0.1-0.5c0.2-0.5,0.6-1.1,1.3-1.7
						c0.7-0.6,1.7-1.1,2.9-1.6c1.1-0.5,2.5-1,3.8-1.5c2.7-1,5.3-1.8,7.1-2.3c0.9-0.3,1.7-0.4,2.2-0.6
						C282.1,194.2,282.5,194.2,282.5,194.2z"/>
				</g>
			</g>
			<g>
				<g>
					<path class="st1" d="M288.4,181.1c0,0-0.1,0.1-0.2,0.2c-0.2,0.1-0.4,0.3-0.7,0.6c-0.7,0.5-1.5,1.2-2.5,2
						c-2.1,1.7-5.1,4-8.3,6.6s-6.1,5-8,6.9c-1,0.9-1.8,1.7-2.2,2.2c-0.2,0.2-0.4,0.5-0.6,0.6s-0.2,0.2-0.2,0.2s0-0.1,0.2-0.2
						c0.1-0.1,0.3-0.4,0.6-0.6c0.4-0.6,1.2-1.3,2.2-2.3c1.9-1.9,4.7-4.4,8-7s6.2-4.9,8.4-6.5c1-0.8,1.9-1.5,2.6-2
						c0.3-0.2,0.6-0.4,0.7-0.5C288.4,181.2,288.4,181.1,288.4,181.1z"/>
				</g>
			</g>
			<g>
				<g>
					<path class="st1" d="M273.3,193.1c-0.1,0,0.6-1.4,1.2-3.2c0.7-1.8,1-3.3,1.1-3.2c0.1,0-0.1,1.5-0.8,3.3c-0.3,0.9-0.7,1.7-1,2.2
						C273.5,192.8,273.3,193.1,273.3,193.1z"/>
				</g>
			</g>
			<g>
				<g>
					<path class="st1" d="M264.3,204.4c0,0-0.2-0.2-0.4-0.5c-0.3-0.4-0.8-0.9-1.2-1.5c-1.1-1.2-2.6-3-4.3-4.8
						c-1.7-1.9-3.3-3.6-4.3-4.8c-0.6-0.6-1-1.1-1.3-1.4c-0.3-0.3-0.4-0.5-0.4-0.6c0,0,0.2,0.2,0.6,0.5s0.8,0.8,1.3,1.4
						c1.1,1.2,2.7,2.9,4.4,4.7c1.7,1.9,3.1,3.6,4.2,4.9c0.6,0.6,0.9,1.2,1.2,1.5C264.2,204.2,264.3,204.4,264.3,204.4z"/>
				</g>
			</g>
			<g>
				<g>
					<path class="st1" d="M260.2,199.8c0,0-1.1-1.1-1.7-2.8c-0.4-1.2-0.4-2.3-0.3-2.8h0.1c-0.1,0.2-0.1,0.3-0.1,0.3s0-0.1,0-0.3h0.1
						c0,0.5,0.1,1.6,0.6,2.7C259.4,198.6,260.3,199.8,260.2,199.8z"/>
				</g>
			</g>
			<g>
				<g>
					<path class="st1" d="M255.1,194c0,0-0.3-0.3-1.1-0.6s-1.9-0.3-3.3-0.2s-2.5,0.3-3.3,0.5s-1.3,0.3-1.3,0.3s0.4-0.2,1.2-0.5
						c0.8-0.2,2-0.5,3.3-0.6c1.3-0.1,2.6,0,3.4,0.3C254.8,193.6,255.1,194,255.1,194z"/>
				</g>
			</g>
			<g>
				<g>
					<path class="st1" d="M253.8,192.6c0,0-0.7-0.2-1.8-0.6c-1.1-0.3-2.7-0.7-4.5-0.8s-3.4,0-4.6,0.2c-1.1,0.2-1.9,0.4-1.9,0.3
						c0,0,0.1-0.1,0.4-0.2c0.3-0.1,0.8-0.2,1.3-0.3c1.1-0.2,2.8-0.4,4.6-0.3c1.8,0.1,3.4,0.5,4.5,0.9c0.6,0.2,1,0.4,1.2,0.5
						C253.7,192.5,253.8,192.6,253.8,192.6z"/>
				</g>
			</g>
			<g>
				<g>
					<path class="st1" d="M264.2,186.7c-0.1,0-0.7-1.8-1.3-4c-0.7-2.3-1.1-4.1-1-4.1s0.7,1.8,1.3,4
						C263.8,184.8,264.3,186.7,264.2,186.7z"/>
				</g>
			</g>
			<g>
				<g>
					<path class="st1" d="M264.3,186.7c-0.1,0-0.4-1.2-1.5-2.4c-1-1.3-2.1-1.9-2.1-2c0,0,0.3,0.1,0.8,0.4c0.4,0.3,1,0.8,1.6,1.4
						C264.2,185.4,264.4,186.7,264.3,186.7z"/>
				</g>
			</g>
			<g>
				<g>
					<path class="st1" d="M264.3,240c0,0-0.1-0.4-0.3-1.2c-0.2-0.8-0.7-1.9-1.3-3.2c-1.5-2.6-4-6-7.4-9.3c-1.7-1.7-3.3-3.3-4.6-4.8
						c-1.3-1.5-2.5-3-3.3-4.2c-0.8-1.3-1.3-2.4-1.7-3.1c-0.1-0.4-0.2-0.7-0.3-0.9s-0.1-0.3-0.1-0.3s0.2,0.4,0.6,1.2s0.9,1.8,1.8,3.1
						c0.8,1.3,2,2.7,3.4,4.2s2.9,3.1,4.6,4.8c3.4,3.3,6,6.7,7.4,9.4c0.7,1.3,1.1,2.5,1.3,3.3c0.1,0.4,0.1,0.7,0.2,0.9
						C264.3,239.9,264.3,240,264.3,240z"/>
				</g>
			</g>
			<g>
				<g>
					<path class="st1" d="M280.7,223.4c0,0-0.3,0.2-0.9,0.4c-0.6,0.3-1.3,0.7-2.2,1.3c-0.9,0.6-1.9,1.4-2.9,2.4
						c-1,1-2.1,2.1-3.1,3.3c-2.1,2.4-4.2,4.6-5.4,6.3c-0.7,0.9-1.1,1.6-1.3,2.1c-0.3,0.5-0.4,0.8-0.4,0.8s0-0.1,0.1-0.2
						c0.1-0.1,0.1-0.3,0.3-0.6c0.2-0.5,0.7-1.3,1.2-2.1c1.2-1.8,3.1-3.9,5.4-6.4c1.1-1.2,2.1-2.3,3.3-3.3c1-1,2.1-1.8,3-2.4
						c0.9-0.6,1.7-1,2.4-1.3C280.3,223.6,280.6,223.5,280.7,223.4L280.7,223.4z"/>
				</g>
			</g>
			<g>
				<g>
					<path class="st1" d="M281,228.8c0,0-0.7,0.1-1.8,0.2c-1.1,0.1-2.7,0.3-4.4,0.8s-3,1.2-3.9,1.8c-0.9,0.6-1.3,1.1-1.3,1.1
						s0.1-0.1,0.2-0.4c0.2-0.2,0.6-0.5,0.9-0.9c0.9-0.7,2.2-1.4,3.9-1.9s3.3-0.6,4.4-0.7C280.3,228.8,281,228.8,281,228.8z"/>
				</g>
			</g>
			<g>
				<g>
					<path class="st1" d="M270.2,232.1c-0.1,0,0.7-1.2,1.3-2.7c0.6-1.5,0.8-2.9,0.9-2.8c0,0,0,0.3,0,0.9c-0.1,0.5-0.2,1.3-0.6,2.1
						c-0.3,0.8-0.8,1.4-1,1.9C270.4,231.9,270.2,232.1,270.2,232.1z"/>
				</g>
			</g>
			<g>
				<g>
					<path class="st1" d="M286.1,209c0,0-0.1,0.1-0.3,0.1c-0.2,0.1-0.6,0.2-0.9,0.3s-0.8,0.3-1.3,0.6c-0.6,0.2-1.1,0.5-1.8,0.8
						c-0.3,0.2-0.7,0.3-1,0.5s-0.7,0.4-1,0.6c-0.8,0.4-1.5,0.9-2.2,1.4c-1.6,1-3.1,2.3-4.7,3.7c-1.6,1.4-2.9,2.9-3.9,4.3
						c-0.6,0.7-1,1.4-1.5,2.1c-0.2,0.3-0.4,0.6-0.7,1c-0.2,0.3-0.3,0.6-0.6,0.9c-0.3,0.6-0.6,1.1-0.9,1.6c-0.2,0.5-0.4,0.9-0.6,1.2
						s-0.2,0.6-0.3,0.8s-0.1,0.3-0.1,0.3s0-0.1,0.1-0.3s0.2-0.5,0.3-0.8s0.3-0.8,0.6-1.2c0.2-0.5,0.4-1,0.8-1.6
						c0.1-0.3,0.3-0.6,0.6-0.9c0.2-0.3,0.4-0.6,0.6-1c0.4-0.7,0.9-1.4,1.5-2.1c1.1-1.4,2.5-2.9,4-4.4c1.6-1.4,3.3-2.7,4.7-3.7
						c0.8-0.5,1.6-1,2.2-1.4c0.3-0.2,0.7-0.4,1.1-0.6c0.3-0.2,0.7-0.3,1-0.5c0.7-0.3,1.2-0.6,1.8-0.8s1-0.4,1.3-0.5
						c0.3-0.1,0.7-0.2,0.9-0.3C286,209,286.1,209,286.1,209z"/>
				</g>
			</g>
			<g>
				<g>
					<path class="st1" d="M273,216.8c0,0,0.1-0.5,0.7-1s1.7-1,2.9-1s2.4,0.3,3,0.5c0.8,0.3,1.1,0.5,1.1,0.5s-0.4-0.1-1.2-0.3
						s-1.8-0.5-2.9-0.4c-1.1,0-2.1,0.4-2.8,0.9C273.3,216.4,273,216.8,273,216.8z"/>
				</g>
			</g>
			<g>
				<g>
					<path class="st1" d="M271,218.5c-0.1,0,0.7-1,0.8-2.4c0.2-1.4-0.2-2.5-0.2-2.5s0.2,0.2,0.3,0.7c0.1,0.5,0.2,1.1,0.1,1.8
						c-0.1,0.7-0.3,1.3-0.6,1.7C271.3,218.4,271.1,218.6,271,218.5z"/>
				</g>
			</g>
		</g>
		<g>
			<path class="st2" d="M249.8,242.7c0.4,7.1,2.8,14.3,6.5,21.6h16.1c3.5-7.2,5.7-14.5,6.2-21.6L249.8,242.7L249.8,242.7z"/>
		</g>
		<g>
			<g>
				<path class="st3" d="M276,254.2c0,0.1-5.3,0.1-11.8,0.1c-6.5,0-11.8-0.1-11.8-0.1c0-0.1,5.3-0.1,11.8-0.1
					C270.7,254,276,254.1,276,254.2z"/>
			</g>
		</g>
		<g>
			<g>
				<path class="st3" d="M275.6,256.7c0,0.1-4.9,0.1-11.1,0.1s-11.1-0.1-11.1-0.1s4.9-0.1,11.1-0.1S275.6,256.7,275.6,256.7z"/>
			</g>
		</g>
		<g>
			<g>
				<path class="st3" d="M256.6,247.3c0.1,0,0.1,1.5,0.1,3.3s-0.1,3.3-0.1,3.3s-0.1-1.5-0.1-3.3
					C256.4,248.8,256.5,247.3,256.6,247.3z"/>
			</g>
		</g>
		<g>
			<g>
				<path class="st3" d="M265.3,247.3c0.1,0,0.1,1.5,0.1,3.4s-0.1,3.4-0.1,3.4c-0.1,0-0.1-1.5-0.1-3.4
					C265.1,248.9,265.2,247.3,265.3,247.3z"/>
			</g>
		</g>
		<g>
			<g>
				<path class="st3" d="M273.4,247.3c0.1,0,0.1,1.6,0.1,3.5s-0.1,3.5-0.1,3.5c-0.1,0-0.1-1.6-0.1-3.5
					C273.1,248.8,273.3,247.3,273.4,247.3z"/>
			</g>
		</g>
		<g>
			<g>
				<path class="st3" d="M278.1,247.3c0,0.1-6.2,0.1-13.9,0.1c-7.6,0-13.9-0.1-13.9-0.1c0-0.1,6.2-0.1,13.9-0.1
					C271.9,247.2,278.1,247.3,278.1,247.3z"/>
			</g>
		</g>
	</g>
</g>
<g id="Background_Simple" class="st4">
	<path class="st5" d="M358.5-28.2l-2.7-4.5c-22.9-37.7-64.3-60.5-107.9-57.7c-5.6,0.4-11.2,1.1-16.7,2.3
		c-39.7,8.5-74.2,38.5-88.5,76.9c-8.4,22.6-10.8,48.6-26.7,66.6C95.2,78.7,59.9,79.5,28.9,78.5s-66.3-0.1-87,23.3
		c-13,14.7-17.1,35.5-16,55.2c2.8,52,39,98.6,85.1,121.7s100.4,25.2,150.9,15c70.7-14.3,137.9-53.4,178.4-113.8
		C380.6,119.4,390.9,37,358.5-28.2z"/>
</g>
<g id="Blackboard">
	<g>
		<g>
			<g>
				<g>
					<g>
						<rect x="12" y="0.4" class="st2" width="267.8" height="136.8"/>
					</g>
				</g>
				<g>
					<g>
						<path class="st2" d="M280.3,137.7H11.6V0h268.8V137.7z M12.6,136.8h266.7V0.9H12.6V136.8z"/>
					</g>
				</g>
			</g>
			<g>
				<g>
					<g>
						<rect x="18" y="4.3" class="st6" width="257.4" height="128.3"/>
					</g>
				</g>
				<g>
					<g>
						<path class="st2" d="M276,133H17.5V3.8H276V133z M18.5,132.1h256.4V4.7H18.5V132.1z"/>
					</g>
				</g>
			</g>
			<g>
				<g>
					<g>
						<rect x="7" y="131.1" class="st2" width="277.9" height="6.1"/>
					</g>
				</g>
				<g>
					<g>
						<path class="st2" d="M285.3,137.7H6.4v-7h278.9V137.7z M7.4,136.8h276.9v-5.3H7.4V136.8z"/>
					</g>
				</g>
			</g>
			<g>
				<g>
					<g>
						<g>
							<g>
								<path class="st7" d="M81.7,28.4c0,0.1-9,0.2-20,0.2s-20-0.1-20-0.2s9-0.2,20-0.2C72.7,28.2,81.7,28.3,81.7,28.4z"/>
							</g>
						</g>
					</g>
				</g>
				<g>
					<g>
						<g>
							<g>
								<path class="st7" d="M81.7,32.1c0,0.1-9,0.2-20,0.2s-20-0.1-20-0.2c0-0.1,9-0.2,20-0.2C72.7,31.9,81.7,32,81.7,32.1z"/>
							</g>
						</g>
					</g>
				</g>
				<g>
					<g>
						<g>
							<g>
								<path class="st7" d="M55.1,21.8c0,0.1-2.9,0.2-6.6,0.2c-3.7,0-6.6-0.1-6.6-0.2s2.9-0.2,6.6-0.2C52,21.6,55.1,21.7,55.1,21.8
									z"/>
							</g>
						</g>
					</g>
				</g>
			</g>
		</g>
		<g>
			<g>
				<path class="st7" d="M131.8,87.1c0,0.1-21.1,0.2-47.1,0.2c-26.1,0-47.1-0.1-47.1-0.2s21-0.1,47.1-0.1S131.8,87.1,131.8,87.1z"/>
			</g>
			<g>
				<path class="st7" d="M75.6,123.2c-0.1,0-0.2-17.9-0.2-39.9s0.1-39.9,0.2-39.9s0.2,17.9,0.2,39.9
					C75.8,105.4,75.7,123.2,75.6,123.2z"/>
			</g>
			<g>
				<path class="st7" d="M108.1,49c0,0-0.1,0.4-0.4,1.1c-0.3,0.7-0.9,1.7-1.6,3c-1.5,2.6-3.5,6.4-6.3,11c-2.7,4.6-6,10-9.7,16
					c-0.9,1.5-1.9,3-2.9,4.6c-0.6,0.8-1,1.6-1.6,2.3c-0.2,0.4-0.6,0.8-0.8,1.2l-0.4,0.6l-0.2,0.3l-0.3,0.3c-1.5,1.4-3.4,2.5-5.6,3
					c-1.1,0.3-2.2,0.4-3.5,0.2c-1.1-0.1-2.2-0.5-3.3-1c-2-1.1-3.5-2.6-4.9-4.1c-1.3-1.5-2.6-3.1-3.7-4.7c-2.2-3.2-4-6.4-5.6-9.6
					c-1.6-3.1-2.9-6.2-4.2-9c-1.2-2.8-2.4-5.5-3.3-8c-1.9-4.9-3.4-8.9-4.3-11.7c-0.4-1.4-0.8-2.5-1-3.2s-0.3-1.1-0.2-1.1
					c0,0,0.2,0.4,0.4,1.1c0.2,0.7,0.7,1.8,1.1,3.2c1,2.8,2.6,6.7,4.6,11.6c1,2.4,2.1,5.1,3.4,7.9c1.2,2.8,2.6,5.9,4.2,9
					c1.6,3.1,3.4,6.3,5.6,9.4c1.1,1.6,2.4,3.1,3.7,4.6c1.3,1.5,2.8,2.9,4.6,3.9c1.8,1,3.9,1.2,6,0.7s3.8-1.5,5.2-2.8l0.2-0.2
					l0.2-0.3l0.4-0.5c0.2-0.4,0.6-0.8,0.8-1.2c0.6-0.8,1-1.6,1.6-2.3c1-1.5,2-3.1,2.9-4.6c3.8-6,7.1-11.4,9.9-15.9
					c2.8-4.6,5.1-8.2,6.5-10.8c0.8-1.3,1.3-2.3,1.7-3C107.9,49.4,108.1,49,108.1,49z"/>
			</g>
			<g>
				<path class="st7" d="M75.4,79.4c0,0.1-0.8,0.2-1.9,0.2c-1,0-1.9-0.1-1.9-0.2s0.8-0.2,1.9-0.2C74.5,79.3,75.4,79.3,75.4,79.4z"/>
			</g>
			<g>
				<path class="st7" d="M75.4,70.8c0,0.1-0.8,0.2-1.9,0.2c-1,0-1.9-0.1-1.9-0.2s0.8-0.2,1.9-0.2C74.5,70.7,75.4,70.8,75.4,70.8z"/>
			</g>
			<g>
				<path class="st7" d="M75.4,62.3c0,0.1-0.8,0.2-1.9,0.2c-1,0-1.9-0.1-1.9-0.2s0.8-0.2,1.9-0.2C74.5,62.1,75.4,62.2,75.4,62.3z"/>
			</g>
			<g>
				<path class="st7" d="M75.4,53.7c0,0.1-0.8,0.2-1.9,0.2c-1,0-1.9-0.1-1.9-0.2c0-0.1,0.8-0.2,1.9-0.2
					C74.5,53.5,75.4,53.6,75.4,53.7z"/>
			</g>
			<g>
				<path class="st7" d="M75.4,109.9c0,0.1-0.8,0.2-1.9,0.2c-1,0-1.9-0.1-1.9-0.2s0.8-0.2,1.9-0.2C74.5,109.7,75.4,109.8,75.4,109.9
					z"/>
			</g>
			<g>
				<path class="st7" d="M75.4,101.3c0,0.1-0.8,0.2-1.9,0.2c-1,0-1.9-0.1-1.9-0.2s0.8-0.2,1.9-0.2C74.5,101.1,75.4,101.2,75.4,101.3
					z"/>
			</g>
			<g>
				<path class="st7" d="M75.4,92.7c0,0.1-0.8,0.2-1.9,0.2c-1,0-1.9-0.1-1.9-0.2s0.8-0.2,1.9-0.2C74.5,92.5,75.4,92.6,75.4,92.7z"/>
			</g>
			<g>
				<path class="st7" d="M68.9,87.9c0.1,0,0.2,0.7,0.2,1.7c0,0.9-0.1,1.7-0.2,1.7s-0.2-0.7-0.2-1.7C68.7,88.7,68.8,87.9,68.9,87.9z"
					/>
			</g>
			<g>
				<path class="st7" d="M59.2,87.9c0.1,0,0.2,0.7,0.2,1.7c0,0.9-0.1,1.7-0.2,1.7c-0.1,0-0.2-0.7-0.2-1.7
					C59.1,88.7,59.1,87.9,59.2,87.9z"/>
			</g>
			<g>
				<path class="st7" d="M49.6,87.9c0.1,0,0.2,0.7,0.2,1.7c0,0.9-0.1,1.7-0.2,1.7s-0.2-0.7-0.2-1.7C49.4,88.7,49.4,87.9,49.6,87.9z"
					/>
			</g>
			<g>
				<path class="st7" d="M40,87.9c0.1,0,0.2,0.7,0.2,1.7c0,0.9-0.1,1.7-0.2,1.7s-0.2-0.7-0.2-1.7C39.8,88.7,39.9,87.9,40,87.9z"/>
			</g>
			<g>
				<path class="st7" d="M112.7,87.9c0.1,0,0.2,0.7,0.2,1.7c0,0.9-0.1,1.7-0.2,1.7s-0.2-0.7-0.2-1.7
					C112.6,88.7,112.6,87.9,112.7,87.9z"/>
			</g>
			<g>
				<path class="st7" d="M122.7,87.9c0.1,0,0.2,0.7,0.2,1.7c0,0.9-0.1,1.7-0.2,1.7c-0.1,0-0.2-0.7-0.2-1.7
					C122.5,88.7,122.6,87.9,122.7,87.9z"/>
			</g>
			<g>
				<path class="st7" d="M103,87.9c0.1,0,0.2,0.7,0.2,1.7c0,0.9-0.1,1.7-0.2,1.7s-0.2-0.7-0.2-1.7C102.9,88.7,103,87.9,103,87.9z"/>
			</g>
			<g>
				<path class="st7" d="M93.5,87.9c0.1,0,0.2,0.7,0.2,1.7c0,0.9-0.1,1.7-0.2,1.7s-0.2-0.7-0.2-1.7C93.3,88.7,93.4,87.9,93.5,87.9z"
					/>
			</g>
			<g>
				<path class="st7" d="M83.8,87.9c0.1,0,0.2,0.7,0.2,1.7c0,0.9-0.1,1.7-0.2,1.7s-0.2-0.7-0.2-1.7C83.6,88.7,83.7,87.9,83.8,87.9z"
					/>
			</g>
			<g>
				<path class="st7" d="M78.5,46.8c0,0-0.4-0.4-0.9-1.1c-0.6-0.7-1.2-1.7-2.1-2.8l0,0h0.3c-0.7,1.2-1.3,2.2-1.8,2.9
					S73.3,47,73.1,47c0,0,0.2-0.5,0.7-1.3c0.4-0.8,1-1.8,1.8-3l0.1-0.2l0.1,0.2l0,0c0.8,1.1,1.5,2.1,2,2.9
					C78.2,46.3,78.5,46.8,78.5,46.8z"/>
			</g>
			<g>
				<path class="st7" d="M128.7,89.6c0,0,0.4-0.4,1.2-0.8c0.8-0.5,1.9-1.1,3.1-1.9l0,0v0.3c-1.3-0.6-2.5-1.2-3.3-1.6
					c-0.8-0.4-1.3-0.7-1.3-0.8c0,0,0.6,0.2,1.5,0.6c0.9,0.4,2,0.9,3.4,1.6l0.2,0.1l-0.2,0.1l0,0c-1.2,0.7-2.4,1.3-3.3,1.8
					C129.2,89.4,128.8,89.6,128.7,89.6z"/>
			</g>
		</g>
		<g>
			<g>
				<g>
					<g>
						<g>
							<g>
								<path class="st7" d="M244.3,70.1L244.3,70.1c0-0.2,0-0.3,0-0.5c0-0.4,0-0.9,0-1.6c0-1.4,0-3.4,0-5.9c0-5.1,0-12.4-0.1-21.1
									l0.1,0.1c-9.6,0-20.8,0-32.7,0l0,0l0.1-0.1c0,10.7,0,20.7,0,29.1l-0.1-0.1c9.8,0,18,0,23.7,0.1c2.8,0,5.1,0,6.6,0
									c0.8,0,1.3,0,1.8,0c0.2,0,0.3,0,0.4,0C244.3,70.1,244.3,70.1,244.3,70.1s0,0-0.1,0s-0.2,0-0.4,0c-0.4,0-1,0-1.7,0
									c-1.6,0-3.8,0-6.6,0c-5.7,0-13.9,0-23.7,0.1h-0.1v-0.1c0-8.5,0-18.5,0-29.1v-0.1h0.1l0,0c12,0,23.3,0,32.7,0h0.1V41
									c0,8.7,0,16-0.1,21.1c0,2.5,0,4.5,0,5.9c0,0.7,0,1.2,0,1.5c0,0.2,0,0.3,0,0.4C244.3,70,244.3,70.1,244.3,70.1z"/>
							</g>
						</g>
					</g>
				</g>
			</g>
			<g>
				<g>
					<g>
						<g>
							<g>
								<path class="st7" d="M244.3,70.1c0,0,0.1-0.1,0.2-0.2c0.2-0.1,0.4-0.2,0.8-0.4c0.7-0.4,1.7-0.9,2.9-1.6
									c2.6-1.4,6.2-3.4,10.7-5.9v0.1c0-7.6,0-17.7,0-28.7l0.1,0.1h-0.1c-12.4,0-23.7,0-32.2,0h0.1c-4.6,2.3-8.3,4.2-11,5.5
									c-1.3,0.6-2.2,1.1-3,1.5c-0.3,0.2-0.6,0.3-0.8,0.4c-0.2,0.1-0.2,0.1-0.2,0.1s0.1-0.1,0.2-0.1c0.2-0.1,0.4-0.2,0.8-0.4
									c0.7-0.4,1.7-0.9,2.9-1.5c2.6-1.3,6.3-3.2,10.9-5.6l0,0l0,0c8.5,0,19.9,0,32.2,0h0.1h0.1v0.1c0,11,0,21.1,0,28.7v0.1l0,0
									c-4.5,2.4-8.2,4.4-10.7,5.8c-1.2,0.7-2.2,1.2-2.9,1.6c-0.3,0.2-0.6,0.3-0.8,0.4C244.4,70,244.3,70.1,244.3,70.1z"/>
							</g>
						</g>
					</g>
				</g>
			</g>
			<g>
				<g>
					<g>
						<g>
							<g>
								<path class="st7" d="M258.9,33.4c0,0.1-3.1,1.8-7.2,3.9c-4,2.1-7.3,3.7-7.4,3.7c0-0.1,3.1-1.8,7.2-3.9
									C255.6,34.9,258.9,33.3,258.9,33.4z"/>
							</g>
						</g>
					</g>
				</g>
			</g>
			<g>
				<g>
					<g>
						<g>
							<g>
								<g>
									<path class="st7" d="M213.1,68.9c0,0.1-0.2,0.3-0.7,0.5c-0.4,0.2-0.8,0.3-0.9,0.3c0-0.1,0.2-0.3,0.7-0.5
										C212.7,68.9,213.1,68.8,213.1,68.9z"/>
								</g>
							</g>
						</g>
					</g>
				</g>
				<g>
					<g>
						<g>
							<g>
								<g>
									<path class="st7" d="M216.3,67.3c0,0.1-0.2,0.3-0.7,0.5c-0.4,0.2-0.8,0.3-0.9,0.3c0-0.1,0.2-0.3,0.7-0.5
										C215.8,67.3,216.2,67.2,216.3,67.3z"/>
								</g>
							</g>
						</g>
					</g>
				</g>
				<g>
					<g>
						<g>
							<g>
								<g>
									<path class="st7" d="M219.3,65.7c0,0.1-0.2,0.3-0.7,0.5c-0.4,0.2-0.8,0.3-0.9,0.3s0.2-0.3,0.7-0.5
										C219,65.8,219.3,65.6,219.3,65.7z"/>
								</g>
							</g>
						</g>
					</g>
				</g>
				<g>
					<g>
						<g>
							<g>
								<g>
									<path class="st7" d="M222.5,64.1c0,0.1-0.2,0.3-0.7,0.5c-0.4,0.2-0.8,0.3-0.9,0.3c0-0.1,0.2-0.3,0.7-0.5
										C222,64.2,222.5,64.1,222.5,64.1z"/>
								</g>
							</g>
						</g>
					</g>
				</g>
				<g>
					<g>
						<g>
							<g>
								<g>
									<path class="st7" d="M225.6,62.5c0,0.1-0.2,0.3-0.7,0.5c-0.4,0.2-0.8,0.3-0.9,0.3c0-0.1,0.2-0.3,0.7-0.5
										C225.2,62.6,225.5,62.5,225.6,62.5z"/>
								</g>
							</g>
						</g>
					</g>
				</g>
				<g>
					<g>
						<g>
							<g>
								<g>
									<path class="st7" d="M226.4,59.7c0.1,0,0.1,0.4,0.1,0.8c0,0.4-0.1,0.8-0.1,0.8c-0.1,0-0.1-0.4-0.1-0.8
										C226.2,60.1,226.3,59.7,226.4,59.7z"/>
								</g>
							</g>
						</g>
					</g>
				</g>
				<g>
					<g>
						<g>
							<g>
								<g>
									<path class="st7" d="M226.4,56.6c0.1,0,0.1,0.4,0.1,0.8c0,0.4-0.1,0.8-0.1,0.8c-0.1,0-0.1-0.4-0.1-0.8
										C226.2,56.9,226.3,56.6,226.4,56.6z"/>
								</g>
							</g>
						</g>
					</g>
				</g>
				<g>
					<g>
						<g>
							<g>
								<g>
									<path class="st7" d="M226.4,53.4c0.1,0,0.1,0.4,0.1,0.8c0,0.4-0.1,0.8-0.1,0.8c-0.1,0-0.1-0.4-0.1-0.8
										C226.3,53.7,226.3,53.4,226.4,53.4z"/>
								</g>
							</g>
						</g>
					</g>
				</g>
				<g>
					<g>
						<g>
							<g>
								<g>
									<path class="st7" d="M226.4,50.2c0.1,0,0.1,0.4,0.1,0.8c0,0.4-0.1,0.8-0.1,0.8c-0.1,0-0.1-0.4-0.1-0.8
										C226.3,50.5,226.4,50.2,226.4,50.2z"/>
								</g>
							</g>
						</g>
					</g>
				</g>
				<g>
					<g>
						<g>
							<g>
								<g>
									<path class="st7" d="M226.5,47c0.1,0,0.1,0.4,0.1,0.8c0,0.4-0.1,0.8-0.1,0.8c-0.1,0-0.1-0.4-0.1-0.8
										C226.3,47.4,226.4,47,226.5,47z"/>
								</g>
							</g>
						</g>
					</g>
				</g>
				<g>
					<g>
						<g>
							<g>
								<g>
									<path class="st7" d="M226.5,43.8c0.1,0,0.1,0.4,0.1,0.8c0,0.4-0.1,0.8-0.1,0.8c-0.1,0-0.1-0.4-0.1-0.8
										C226.3,44.2,226.4,43.8,226.5,43.8z"/>
								</g>
							</g>
						</g>
					</g>
				</g>
				<g>
					<g>
						<g>
							<g>
								<g>
									<path class="st7" d="M226.5,40.6c0.1,0,0.1,0.4,0.1,0.8c0,0.4-0.1,0.8-0.1,0.8s-0.1-0.4-0.1-0.8
										C226.4,41,226.4,40.6,226.5,40.6z"/>
								</g>
							</g>
						</g>
					</g>
				</g>
				<g>
					<g>
						<g>
							<g>
								<g>
									<path class="st7" d="M226.5,37.4c0.1,0,0.1,0.4,0.1,0.8c0,0.4-0.1,0.8-0.1,0.8c-0.1,0-0.1-0.4-0.1-0.8
										C226.4,37.8,226.5,37.4,226.5,37.4z"/>
								</g>
							</g>
						</g>
					</g>
				</g>
				<g>
					<g>
						<g>
							<g>
								<g>
									<path class="st7" d="M226.6,34.3c0.1,0,0.1,0.4,0.1,0.8c0,0.4-0.1,0.8-0.1,0.8c-0.1,0-0.1-0.4-0.1-0.8
										C226.4,34.6,226.5,34.3,226.6,34.3z"/>
								</g>
							</g>
						</g>
					</g>
				</g>
			</g>
			<g>
				<g>
					<g>
						<g>
							<g>
								<g>
									<path class="st7" d="M257.2,62c0-0.1,0.4-0.1,0.9-0.1c0.4,0,0.9,0.1,0.9,0.1c0,0.1-0.4,0.1-0.9,0.1
										C257.5,62.2,257.2,62.1,257.2,62z"/>
								</g>
							</g>
						</g>
					</g>
				</g>
				<g>
					<g>
						<g>
							<g>
								<g>
									<path class="st7" d="M253.6,62c0-0.1,0.4-0.1,0.9-0.1c0.4,0,0.9,0.1,0.9,0.1c0,0.1-0.4,0.1-0.9,0.1
										C253.9,62.2,253.6,62.1,253.6,62z"/>
								</g>
							</g>
						</g>
					</g>
				</g>
				<g>
					<g>
						<g>
							<g>
								<g>
									<path class="st7" d="M250,62c0-0.1,0.4-0.1,0.9-0.1c0.4,0,0.9,0.1,0.9,0.1c0,0.1-0.4,0.1-0.9,0.1
										C250.3,62.2,250,62.1,250,62z"/>
								</g>
							</g>
						</g>
					</g>
				</g>
				<g>
					<g>
						<g>
							<g>
								<g>
									<path class="st7" d="M246.4,62c0-0.1,0.4-0.1,0.9-0.1s0.9,0.1,0.9,0.1c0,0.1-0.4,0.1-0.9,0.1S246.4,62.1,246.4,62z"/>
								</g>
							</g>
						</g>
					</g>
				</g>
				<g>
					<g>
						<g>
							<g>
								<g>
									<path class="st7" d="M242.8,62c0-0.1,0.4-0.1,0.9-0.1c0.4,0,0.9,0.1,0.9,0.1c0,0.1-0.4,0.1-0.9,0.1
										C243.3,62.2,242.8,62.1,242.8,62z"/>
								</g>
							</g>
						</g>
					</g>
				</g>
				<g>
					<g>
						<g>
							<g>
								<g>
									<path class="st7" d="M239.2,62c0-0.1,0.4-0.1,0.9-0.1c0.4,0,0.9,0.1,0.9,0.1c0,0.1-0.4,0.1-0.9,0.1
										C239.7,62.2,239.2,62.1,239.2,62z"/>
								</g>
							</g>
						</g>
					</g>
				</g>
				<g>
					<g>
						<g>
							<g>
								<g>
									<path class="st7" d="M235.6,62c0-0.1,0.4-0.1,0.9-0.1c0.4,0,0.9,0.1,0.9,0.1c0,0.1-0.4,0.1-0.9,0.1
										C236.1,62.2,235.6,62.1,235.6,62z"/>
								</g>
							</g>
						</g>
					</g>
				</g>
				<g>
					<g>
						<g>
							<g>
								<g>
									<path class="st7" d="M232.1,62c0-0.1,0.4-0.1,0.9-0.1c0.4,0,0.9,0.1,0.9,0.1c0,0.1-0.4,0.1-0.9,0.1
										C232.5,62.2,232.1,62.1,232.1,62z"/>
								</g>
							</g>
						</g>
					</g>
				</g>
				<g>
					<g>
						<g>
							<g>
								<g>
									<path class="st7" d="M228.5,62c0-0.1,0.4-0.1,0.9-0.1c0.4,0,0.9,0.1,0.9,0.1c0,0.1-0.4,0.1-0.9,0.1
										C228.9,62.2,228.5,62.1,228.5,62z"/>
								</g>
							</g>
						</g>
					</g>
				</g>
				<g>
					<g>
						<g>
							<g>
								<g>
									<path class="st7" d="M226.3,62c0-0.1,0.1-0.1,0.2-0.1c0.1,0,0.2,0.1,0.2,0.1c0,0.1-0.1,0.1-0.2,0.1
										C226.4,62.2,226.3,62.1,226.3,62z"/>
								</g>
							</g>
						</g>
					</g>
				</g>
			</g>
			<g>
				<g>
					<g>
						<g>
							<g>
								<path class="st7" d="M262.9,52.3c0,0,0.3,0.1,0.8,0s1.2-0.4,1.7-1.1c0.4-0.7,0.4-1.8-0.1-2.8c-0.1-0.2-0.3-0.4-0.7-0.5
									c-0.2,0-0.6,0-0.8,0.2c-0.4,0.3-0.8,1-1,1.5c-0.2,0.7-0.4,1.3-0.4,2H262c0-2.1,0-4,0-5.3c0-0.6,0-1.1,0-1.5s0-0.6,0-0.6
									s0,0.2,0.1,0.6c0,0.4,0,0.9,0.1,1.5c0,1.3,0.1,3.2,0.1,5.3H262c0-0.7,0.2-1.4,0.4-2.1c0.1-0.3,0.2-0.6,0.4-0.9
									c0.2-0.3,0.3-0.6,0.7-0.8c0.3-0.2,0.7-0.3,1.1-0.2c0.3,0.1,0.7,0.3,0.8,0.6c0.6,1.1,0.6,2.2,0,3s-1.3,1.1-1.9,1.2
									c-0.2,0-0.4,0-0.7,0C262.9,52.4,262.9,52.4,262.9,52.3z"/>
							</g>
						</g>
					</g>
				</g>
			</g>
			<g>
				<g>
					<g>
						<g>
							<g>
								<path class="st7" d="M247.1,30c0,0,0,0-0.1,0.1s-0.1,0.1-0.3,0.2c-0.1,0.1-0.3,0.1-0.7,0.1c-0.2,0-0.6-0.1-0.8-0.3
									c-0.2-0.2-0.4-0.5-0.6-0.8s-0.2-0.7-0.3-1c-0.2-0.7-0.4-1.6-0.4-2.5h0.3c0.1,1,0.2,2.2-0.1,3.3c-0.2,0.6-0.6,1.3-1.1,1.7
									c-0.3,0.2-0.7,0.3-1.1,0.2c-0.3-0.1-0.7-0.3-0.9-0.6c-0.7-1.1-0.4-2.3,0.1-3c0.4-0.8,1.2-1.2,1.7-1.4
									c0.2-0.1,0.4-0.2,0.6-0.2s0.2,0,0.2,0s-0.3,0.1-0.8,0.3c-0.4,0.2-1.1,0.6-1.6,1.4c-0.2,0.4-0.3,0.8-0.3,1.3s0.1,1,0.3,1.5
									c0.1,0.2,0.3,0.4,0.7,0.5s0.6,0,0.9-0.2c0.6-0.3,0.8-0.9,1-1.5c0.3-1.1,0.2-2.2,0.1-3.2h0.3c0,0.9,0.2,1.7,0.4,2.5
									c0.1,0.4,0.2,0.7,0.3,1s0.2,0.6,0.4,0.8c0.4,0.4,1,0.3,1.2,0.2C246.9,30.2,247,30,247.1,30z"/>
							</g>
						</g>
					</g>
				</g>
			</g>
		</g>
	</g>
</g>
<g id="Table">
	<g>
		<g>
			<g>
				<g>
					<rect x="205.5" y="172.1" class="st2" width="4.9" height="92.5"/>
				</g>
			</g>
		</g>
		<g>
			<g>
				<g>
					<rect x="133.5" y="172.1" class="st2" width="4.9" height="92.5"/>
				</g>
			</g>
		</g>
		<g>
			<g>
				<g>
					<rect x="66.4" y="169.1" class="st8" width="144" height="51.5"/>
				</g>
			</g>
		</g>
		<g>
			<g>
				<g>
					<rect x="13.3" y="159.3" class="st9" width="208.1" height="9.8"/>
				</g>
			</g>
		</g>
		<g>
			<g>
				<g>
					<rect x="16.3" y="169.1" class="st8" width="45.2" height="51.5"/>
				</g>
			</g>
		</g>
		<g>
			<g>
				<g>
					<g>
						<path class="st2" d="M218.9,168.4c0,0.1-46.2,0.2-103,0.2c-57,0-103-0.1-103-0.2s46.2-0.2,103-0.2S218.9,168.3,218.9,168.4z"
							/>
					</g>
				</g>
			</g>
		</g>
		<g>
			<g>
				<g>
					<rect x="61.5" y="168.4" class="st2" width="4.9" height="96.1"/>
				</g>
			</g>
		</g>
		<g>
			<g>
				<g>
					<rect x="16.1" y="168.4" class="st2" width="4.9" height="96.1"/>
				</g>
			</g>
		</g>
	</g>
</g>
<g id="Character">
	<g>
		<g>
			<g>
				<g>
					<g>
						<g>
							<g>
								<g>
									<g>
										<g>
											<g>
												<g>
													<g>
														<g>
															<path class="st10" d="M172.1,238.8l3,14.2c0,0-15.3,7.5-14.9,10.2l31.2-4.2l-3.6-22.4L172.1,238.8z"/>
														</g>
													</g>
												</g>
											</g>
										</g>
									</g>
								</g>
							</g>
						</g>
						<g class="st11">
							<g>
								<g>
									<g>
										<g>
											<g>
												<g>
													<g>
														<g>
															<path d="M172.1,238.8l3,14.2c0,0-15.3,7.5-14.9,10.2l31.2-4.2l-3.6-22.4L172.1,238.8z"/>
														</g>
													</g>
												</g>
											</g>
										</g>
									</g>
								</g>
							</g>
						</g>
						<g>
							<g>
								<g>
									<g>
										<g>
											<g>
												<g>
													<g>
														<g>
															<g>
																<path class="st12" d="M184.6,250.5c0.7,0.1,1.1,0.6,1.1,1.2c0,0.6-0.7,1-1.3,1c-0.7-0.1-1.2-0.7-1.1-1.3
																	s0.9-1.1,1.5-0.9"/>
															</g>
														</g>
													</g>
												</g>
											</g>
										</g>
									</g>
								</g>
							</g>
						</g>
						<g>
							<g>
								<g>
									<g>
										<g>
											<g>
												<g>
													<g>
														<g>
															<path class="st2" d="M191.3,259l-0.4-2.2l-29.8,4.8c0,0-1.3,0.7-1,1.6L191.3,259z"/>
														</g>
													</g>
												</g>
											</g>
										</g>
									</g>
								</g>
							</g>
						</g>
						<g>
							<g>
								<g>
									<g>
										<g>
											<g>
												<g>
													<g>
														<g>
															<g>
																<path class="st2" d="M174.6,253c0,0.1,0.8,0.1,1.6,0.4c0.8,0.3,1.3,0.9,1.5,0.8c0.1,0-0.2-0.8-1.2-1.2
																	C175.4,252.6,174.5,252.8,174.6,253z"/>
															</g>
														</g>
													</g>
												</g>
											</g>
										</g>
									</g>
								</g>
							</g>
						</g>
						<g>
							<g>
								<g>
									<g>
										<g>
											<g>
												<g>
													<g>
														<g>
															<g>
																<path class="st2" d="M171.6,254.6c0,0.1,0.7,0.3,1.3,0.8c0.7,0.5,0.9,1.1,1,1.1c0.1,0,0.1-0.8-0.7-1.4
																	C172.4,254.4,171.5,254.5,171.6,254.6z"/>
															</g>
														</g>
													</g>
												</g>
											</g>
										</g>
									</g>
								</g>
							</g>
						</g>
						<g>
							<g>
								<g>
									<g>
										<g>
											<g>
												<g>
													<g>
														<g>
															<g>
																<path class="st2" d="M170.2,258.3c0.1,0,0.2-0.7-0.2-1.4c-0.6-0.7-1.2-0.9-1.3-0.8c-0.1,0.1,0.4,0.5,0.9,1
																	C170,257.8,170.1,258.3,170.2,258.3z"/>
															</g>
														</g>
													</g>
												</g>
											</g>
										</g>
									</g>
								</g>
							</g>
						</g>
						<g>
							<g>
								<g>
									<g>
										<g>
											<g>
												<g>
													<g>
														<g>
															<g>
																<path class="st2" d="M174.3,249.6c0.1,0.1,0.8-0.2,1.6-0.2c0.9-0.1,1.6,0.1,1.7,0s-0.7-0.5-1.7-0.4
																	C174.8,249,174.3,249.5,174.3,249.6z"/>
															</g>
														</g>
													</g>
												</g>
											</g>
										</g>
									</g>
								</g>
							</g>
						</g>
					</g>
				</g>
				<g>
					<g>
						<g>
							<g>
								<g>
									<g>
										<g>
											<g>
												<g>
													<g>
														<g>
															<path class="st10" d="M182.4,242.2l0.3,14.5c0,0-16.4,5.1-16.7,7.8l31.6,0.5l0.6-22.6L182.4,242.2z"/>
														</g>
													</g>
												</g>
											</g>
										</g>
									</g>
								</g>
							</g>
						</g>
						<g>
							<g>
								<g>
									<g>
										<g>
											<g>
												<g>
													<g>
														<g>
															<g>
																<path class="st12" d="M192.4,255.6c0.6,0.2,1,0.8,0.9,1.3c-0.1,0.5-0.9,0.9-1.5,0.8s-1.1-0.9-0.9-1.4
																	S192,255.4,192.4,255.6"/>
															</g>
														</g>
													</g>
												</g>
											</g>
										</g>
									</g>
								</g>
							</g>
						</g>
						<g>
							<g>
								<g>
									<g>
										<g>
											<g>
												<g>
													<g>
														<g>
															<path class="st2" d="M197.5,265v-2.3l-30.2,0.4c0,0-1.5,0.5-1.2,1.4L197.5,265z"/>
														</g>
													</g>
												</g>
											</g>
										</g>
									</g>
								</g>
							</g>
						</g>
						<g>
							<g>
								<g>
									<g>
										<g>
											<g>
												<g>
													<g>
														<g>
															<g>
																<path class="st2" d="M182.1,256.5c0,0.1,0.8,0.2,1.6,0.7c0.8,0.4,1.1,1,1.2,1s-0.1-0.8-1-1.4
																	C183,256.3,182.1,256.4,182.1,256.5z"/>
															</g>
														</g>
													</g>
												</g>
											</g>
										</g>
									</g>
								</g>
							</g>
						</g>
						<g>
							<g>
								<g>
									<g>
										<g>
											<g>
												<g>
													<g>
														<g>
															<g>
																<path class="st2" d="M178.8,257.7c0,0.1,0.7,0.4,1.1,1c0.6,0.6,0.7,1.2,0.8,1.2c0.1,0,0.2-0.8-0.3-1.5
																	C179.7,257.6,178.8,257.6,178.8,257.7z"/>
															</g>
														</g>
													</g>
												</g>
											</g>
										</g>
									</g>
								</g>
							</g>
						</g>
						<g>
							<g>
								<g>
									<g>
										<g>
											<g>
												<g>
													<g>
														<g>
															<g>
																<path class="st2" d="M176.9,261.2c0.1,0,0.3-0.7,0-1.4c-0.3-0.8-1.1-1.1-1.1-1c-0.1,0.1,0.3,0.5,0.7,1.1
																	C176.6,260.6,176.6,261.2,176.9,261.2z"/>
															</g>
														</g>
													</g>
												</g>
											</g>
										</g>
									</g>
								</g>
							</g>
						</g>
						<g>
							<g>
								<g>
									<g>
										<g>
											<g>
												<g>
													<g>
														<g>
															<g>
																<path class="st2" d="M182.5,253.2c0.1,0.1,0.8-0.1,1.7,0s1.6,0.3,1.6,0.2c0.1-0.1-0.6-0.6-1.6-0.7
																	C183.1,252.7,182.4,253.1,182.5,253.2z"/>
															</g>
														</g>
													</g>
												</g>
											</g>
										</g>
									</g>
								</g>
							</g>
						</g>
					</g>
				</g>
				<g>
					<g>
						<g>
							<g>
								<g>
									<g>
										<g>
											<path d="M204.6,129.7l-0.4,14.3l-4.7,44.5c0,0,1.5,21.7,2.5,33.9c0.8,10.6-1.6,29-1.6,29l-20.1-0.5l-5.4-61.7l-3.4-38.5
												l-6.6-19.6L204.6,129.7z"/>
										</g>
									</g>
								</g>
							</g>
						</g>
					</g>
					<g>
						<g>
							<g>
								<g>
									<g>
										<g>
											<path d="M154.8,132.2l-1.2,58.9c-0.1,3,0.4,5.9,1.6,8.7l17.3,42.8l0.9,2.8l12.1-2.3l-8.3-112.4l-22.2,0.8L154.8,132.2z"
												/>
										</g>
									</g>
								</g>
							</g>
						</g>
					</g>
					<g>
						<g>
							<g>
								<g>
									<g>
										<g>
											<g>
												<path class="st6" d="M171.8,143.3c0,0,0,0.1,0,0.3s0,0.5,0,0.8c0,0.7,0,1.8,0,3.2c0,2.7,0.1,6.7,0.2,11.6
													c0.3,9.8,1,23.3,2.4,38.2c1.3,14.9,2.8,28.3,3.9,38c0.6,4.8,1,8.8,1.3,11.5c0.1,1.3,0.3,2.4,0.3,3.1
													c0,0.3,0.1,0.6,0.1,0.8s0,0.3,0,0.3s0-0.1,0-0.3s0-0.5-0.1-0.8c-0.1-0.7-0.2-1.8-0.3-3.1c-0.3-2.7-0.7-6.7-1.2-11.5
													c-1-9.7-2.6-23.2-3.8-38c-1.3-14.9-2.1-28.4-2.5-38.1c-0.2-4.9-0.3-8.8-0.3-11.6c0-1.4-0.1-2.4-0.1-3.2
													c0-0.3,0-0.6,0-0.8C171.8,143.4,171.8,143.3,171.8,143.3z"/>
											</g>
										</g>
									</g>
								</g>
							</g>
						</g>
					</g>
					<g>
						<g>
							<g>
								<g>
									<g>
										<g>
											<path class="st6" d="M170.7,135.7c0,0.5,0.4,0.9,1,0.9s1-0.4,1-0.9s-0.4-0.9-1-0.9C171.2,134.8,170.8,135.2,170.7,135.7z
												"/>
										</g>
									</g>
								</g>
							</g>
						</g>
					</g>
					<g>
						<g>
							<g>
								<g>
									<g>
										<g>
											<g>
												<path class="st6" d="M154.4,142.5c0,0,0.7-0.4,1.5-1.1c0.8-0.8,1.8-2,2.6-3.5s1.2-2.9,1.3-4c0.2-1.1,0.1-1.7,0.1-1.7
													c-0.1,0-0.1,0.7-0.3,1.7s-0.7,2.4-1.5,3.9c-0.8,1.4-1.7,2.6-2.5,3.4C154.9,142.1,154.4,142.5,154.4,142.5z"/>
											</g>
										</g>
									</g>
								</g>
							</g>
						</g>
					</g>
				</g>
				<g>
					<g>
						<g>
							<g>
								<g>
									<g>
										<g>
											<path class="st6" d="M189.3,133.4c0,0,0,0.2,0.1,0.7c0.1,0.4,0.2,1,0.6,1.7c0.6,1.4,1.8,3.3,3.8,4.9
												c2,1.5,4.4,2.3,6.1,2.5c0.9,0.1,1.6,0.2,2,0.2c0.4,0,0.8,0,0.8-0.1s-1,0-2.7-0.3s-3.8-1.1-5.8-2.5
												c-1.9-1.5-3.1-3.3-3.8-4.7C189.6,134.3,189.4,133.4,189.3,133.4z"/>
										</g>
									</g>
								</g>
							</g>
						</g>
					</g>
				</g>
			</g>
			<g>
				<path class="st6" d="M154.8,131.6c0.1,0,0.1,5.7,0,12.6c-0.1,7-0.3,12.6-0.4,12.6c-0.1,0-0.1-5.7,0-12.6
					C154.6,137.2,154.7,131.6,154.8,131.6z"/>
			</g>
			<g>
				<path class="st6" d="M204,142.7c0,0,0-0.8,0-2c0.1-1.2,0.1-2.9,0.2-4.7c0-1.8,0-3.5,0-4.7s0-2,0-2s0.1,0.7,0.2,2
					c0.1,1.2,0.1,2.9,0,4.8c0,1.9-0.1,3.5-0.3,4.7C204.3,141.9,204.2,142.7,204,142.7z"/>
			</g>
		</g>
		<g>
			<path class="st7" d="M109.8,52.5l-1.3-1.6c0,0-0.7-1.3-0.3-1.9c0.3-0.6,1.3-0.2,1.3-0.2l5.3,5.2l-1.8,1.3l-2.8-2.7"/>
			<path class="st13" d="M139,72.6L128.4,65c0,0-0.6-1.4-1.6-1.8c-1-0.4-1.9-1.7-2-2.6l-1.6-5c0-0.5-1.5-3.4-2-3.6l-1.5-0.2
				c0,0-0.4-2.1-1.6-2.4c-1.1-0.3-4.5-0.1-4.5-0.1l-3.3,1.4c0,0,0.8,1.2,2.2,1.2s2.9-0.3,2.9-0.3l0.9,2.3c0,0,0.2,1.7-0.1,2.4
				c-0.3,0.7-0.8,1-0.8,1s-1.6-1.9-2.2-3s-2.6-2.4-3.3-1.8c-0.7,0.7,0.8,1.9,0.9,3.1l0.2,1.5c0,0,1.2,1.9,1.3,2.2s1,2.4,1.9,3.1
				c0.9,0.7,4.2,3.2,4.2,3.2l3.9,4.2c1.1,1.2,12.1,12.1,12.1,12.1l5.5-7L139,72.6z"/>
		</g>
		<g>
			<path class="st12" d="M128.8,64.5c0.1,0.4,3.3,2.8,3.3,2.8s7.9,5.4,9.7,7.3s8.9,5.3,8.9,5.3l6.9-12.2l10.6-6c2.4-2.1,9,1.8,9,1.8
				l-19.6,40.7l-14.5-4.8l-18.9-24l-3-6.6L128.8,64.5z"/>
			<path class="st12" d="M188.5,50.7l2.8,3.5c0,0,17.6,7.9,18.4,9c0.8,1.1-4.6,38.5-4.6,38.5l2.1,22.8l-2.6,6.1l-50,2.5
				c-0.8-0.3-2.7-1.8-2.8-4.4c-0.1-2,1.7-4,1.7-5.4c-0.1-9.2,1-30.4,2.7-38.2c2.2-10.4,7.3-20.6,7.3-20.6l4.5-2.8l0.9-4.4
				L188.5,50.7z"/>
			<g class="st11">
				<path d="M206.1,119.1c-0.7-0.5-1.6-0.6-2.4-0.7c-9.3-1.4-17-7.3-26.1-9.5c-1.9-0.4-3.9-0.7-5.8-0.3c-3,0.7-5.3,3.2-6.3,5.8
					c-1,2.6-1.2,5.9-1.2,8.6c2.6-0.2,5.2-2.1,6.4-4.2c0.4-0.8,0.8-1.8,1.7-2.3s2-0.4,3-0.3c2.4,0.3,4.7,0.5,7.1,0.8
					c1.8,0.2,3.5,0.4,5.2,0.9c1.8,0.5,3.5,1.4,5.3,2.1c3.8,1.5,8.1,2,12.2,1.6c0.6,0,1-0.1,1.3-0.5
					C207,120.5,206.7,119.5,206.1,119.1z"/>
			</g>
			<g class="st11">
				<path d="M171.8,67.5c-0.9,2.4-1.1,4.9-1.2,7.4c-0.7,8.4-0.9,16.1-1.6,24.5c0.1-0.2-0.1,0.2,0,0l3.1-0.4
					c-0.1-12.6,1.5-25.2,4.7-37.5C174.3,62.8,172.7,65.1,171.8,67.5z"/>
			</g>
			<path class="st10" d="M169.3,66.5c0,0-4.8,9.3-6.3,13.2c-1.5,3.9-2.4,19.1-2.4,19.1l-0.9,19.4l4.4,4.9l4.3-3.2l5.2-52.8
				L169.3,66.5z"/>
			<g>
				<path class="st2" d="M168.3,119.8c-0.1,0,0.7-11.8,1.8-26.4c1-14.6,2-26.4,2.1-26.4c0.1,0-0.7,11.8-1.8,26.4
					C169.4,107.9,168.4,119.8,168.3,119.8z"/>
			</g>
			<path class="st12" d="M209.7,63.2c0,0,4.8,2.3,6.5,8.2c1.7,5.9,7.4,28.8,8,32.3s-0.4,8.3-2.1,9.6c-1.7,1.3-12.1,7.2-16.7,7.2
				c-4.6,0-13.9-2.7-13.9-2.7l2-9.2l7.8-1.6l6.1-5.3l-6.9-13.4C200.3,88.3,203,64.4,209.7,63.2z"/>
			<g>
				<path class="st2" d="M218.5,104.1c0,0-0.4-0.5-1.3-1.2s-2.2-1.4-3.9-1.8s-3.3-0.2-4.4,0.1c-1.1,0.3-1.7,0.6-1.8,0.5
					c0,0,0.1-0.1,0.4-0.3c0.3-0.1,0.7-0.3,1.2-0.5c1.1-0.3,2.8-0.6,4.5-0.2c1.8,0.4,3.1,1.2,3.9,1.9c0.4,0.4,0.7,0.7,0.9,0.9
					C218.4,104,218.5,104.1,218.5,104.1z"/>
			</g>
			<g>
				<path class="st2" d="M200.3,119.4c0,0,0.4-0.6,1.1-1.6c0.6-1,1.2-2.6,1.2-4.3c0-1.8-0.6-3.3-1.1-4.3s-1.1-1.6-1.1-1.6
					s0.1,0.1,0.4,0.4c0.2,0.3,0.6,0.6,0.9,1.2c0.7,1,1.3,2.6,1.2,4.4c0,1.8-0.7,3.4-1.3,4.4c-0.3,0.5-0.7,0.9-0.9,1.1
					C200.6,119.3,200.4,119.4,200.3,119.4z"/>
			</g>
			<polygon class="st10" points="171.9,59.4 168,63.9 169.2,66.7 173.4,67.1 177.1,61.9 173.5,59.1 			"/>
			<g>
				<path class="st2" d="M216.3,97.3c0,0.1-0.7,0-1.6,0.1c-0.4,0-1.1,0.1-1.7,0.3c-0.7,0.2-1.2,0.4-1.9,0.7
					c-1.3,0.7-2.2,1.5-2.9,2.2s-0.9,1.2-1,1.1c0,0,0.2-0.5,0.8-1.3c0.6-0.7,1.6-1.7,2.9-2.4c0.7-0.3,1.3-0.6,2-0.7s1.2-0.2,1.8-0.2
					s0.9,0,1.2,0.1C216.2,97.2,216.3,97.2,216.3,97.3z"/>
			</g>
			<g>
				<path class="st2" d="M207.9,64c0,0.1-0.7,0.3-1.6,0.7c-0.9,0.5-2.1,1.3-3.1,2.5c-1,1.2-1.6,2.4-1.9,3.4
					c-0.3,0.9-0.3,1.6-0.4,1.6c0,0,0-0.2,0-0.4c0-0.3,0.1-0.7,0.2-1.2c0.2-1,0.8-2.3,1.9-3.5c1-1.2,2.4-2.1,3.4-2.5
					c0.4-0.2,0.9-0.4,1.2-0.5C207.6,64,207.9,64,207.9,64z"/>
			</g>
			<g>
				<path class="st2" d="M190.6,54.9c0,0-0.2,0.3-0.6,0.8c-0.4,0.5-1,1.2-1.7,2.1c-1.5,1.7-3.4,4.1-5.6,6.8
					c-0.2,0.3-0.4,0.6-0.7,0.9l-0.1,0.1l-0.1-0.1c-2.6-1.9-4.9-3.7-6.6-4.9c-0.8-0.6-1.5-1.1-1.9-1.5s-0.7-0.6-0.7-0.6
					s0.3,0.2,0.8,0.5c0.6,0.4,1.2,0.8,2,1.4c1.7,1.2,4,2.9,6.6,4.9h-0.2c0.2-0.3,0.4-0.6,0.7-0.9c2.2-2.6,4.2-5,5.6-6.7
					c0.7-0.8,1.3-1.5,1.8-2C190.3,55.1,190.6,54.9,190.6,54.9z"/>
			</g>
			<g>
				<path class="st2" d="M196.7,81.4c0,0,0.1,0.1,0.2,0.3c0.1,0.2,0.2,0.5,0.4,0.8c0.3,0.7,0.9,1.7,1.6,2.9c1.2,2.5,3,5.8,4.9,9.6
					c1.2,2.5,2.5,4.8,3.4,6.7v0.1l-0.1,0.1c-1.8,1.7-3.4,2.9-4.4,3.8c-0.6,0.4-0.9,0.8-1.2,1.1c-0.3,0.2-0.4,0.4-0.4,0.4
					s0.1-0.2,0.3-0.4c0.2-0.3,0.7-0.6,1.2-1.1c1-1,2.6-2.2,4.3-3.9v0.1c-1-2-2.2-4.3-3.5-6.7c-1.9-3.8-3.6-7.2-4.8-9.6
					c-0.6-1.2-1.1-2.2-1.5-2.9c-0.1-0.3-0.2-0.6-0.3-0.8C196.9,81.5,196.7,81.4,196.7,81.4z"/>
			</g>
			<g>
				<path class="st2" d="M222.4,112.9c0,0-0.1,0.1-0.2,0.3c-0.1,0.1-0.2,0.2-0.3,0.3c-0.1,0.1-0.3,0.3-0.6,0.4
					c-0.9,0.6-2.2,1.4-3.9,2.3c-1.7,0.9-3.8,1.8-6.2,2.9c-2.4,1-5.3,1.8-8.3,1.6c-1.2-0.1-2.4-0.3-3.5-0.7l0,0c-3-0.7-5.8-1.4-8.3-2
					h-0.1v-0.1c0.6-2.5,1-4.6,1.3-6.2c0.2-0.7,0.3-1.3,0.4-1.7c0.1-0.4,0.1-0.6,0.2-0.6s0,0.2-0.1,0.6s-0.2,1-0.3,1.7
					c-0.3,1.5-0.8,3.6-1.2,6.2l-0.1-0.1c2.5,0.6,5.3,1.3,8.3,2l0,0l0,0c1,0.4,2.1,0.6,3.4,0.7c3,0.2,5.8-0.5,8.1-1.5
					c2.4-1,4.5-1.9,6.2-2.8c1.7-0.8,3-1.6,3.9-2.2C222,113.3,222.4,112.9,222.4,112.9z"/>
			</g>
			<g>
				<path class="st2" d="M159.1,71.6c0,0,0,0.1,0,0.3c0,0.2-0.1,0.5-0.2,0.8c-0.2,0.7-0.4,1.7-0.7,2.9c-0.6,2.4-1.3,5.7-1.9,9.5
					c-0.7,3.7-1,7.1-1.2,9.5c-0.1,1.2-0.2,2.2-0.2,2.9c0,0.3,0,0.6-0.1,0.8c0,0.2,0,0.3,0,0.3s0-0.1,0-0.3c0-0.2,0-0.5,0-0.8
					c0-0.7,0-1.7,0.1-2.9c0.1-2.5,0.4-5.9,1.1-9.6s1.5-7.1,2-9.5c0.3-1.2,0.6-2.2,0.8-2.8c0.1-0.3,0.2-0.6,0.2-0.8
					C159.1,71.7,159.1,71.6,159.1,71.6z"/>
			</g>
			<g>
				<path class="st2" d="M172.6,58.4c0,0-0.3,0.6-1,1.4c-0.7,0.9-1.6,2-2.6,3.3c-0.6,0.7-1.1,1.3-1.6,1.9l-0.4,0.5l0.1-0.6
					c0.2-1,0.4-1.8,0.6-2.3c0.1-0.6,0.2-0.9,0.2-0.9s0,0.3-0.1,0.9c-0.1,0.6-0.2,1.4-0.4,2.3l-0.3-0.1c0.4-0.6,1-1.3,1.6-2
					c1-1.3,2-2.4,2.7-3.2C172,58.8,172.5,58.3,172.6,58.4z"/>
			</g>
			<g>
				<path class="st2" d="M174.9,60.3c0,0.1-1.5,1.1-3,2.6c-1.6,1.5-3,2.7-3.1,2.6c0,0,0.3-0.4,0.8-0.9c0.6-0.5,1.2-1.2,2-2
					c0.8-0.8,1.6-1.4,2.2-1.8C174.5,60.5,174.9,60.3,174.9,60.3z"/>
			</g>
			<g>
				<path class="st2" d="M148.9,90.2c0,0-0.1-0.6-0.1-1.6s0.1-2.3,0.3-3.7c0.2-1.5,0.6-2.8,0.9-3.7c0.3-0.9,0.6-1.5,0.6-1.5
					s-0.1,0.6-0.3,1.5s-0.6,2.2-0.8,3.7c-0.2,1.4-0.3,2.8-0.4,3.7C148.9,89.6,148.9,90.2,148.9,90.2z"/>
			</g>
			<g>
				<path class="st2" d="M150.6,88c-0.1,0-0.2-1.8-0.2-4.1c0-2.3,0.3-4.1,0.4-4.1c0.1,0,0,1.8-0.1,4.1C150.7,86.2,150.7,88,150.6,88
					z"/>
			</g>
			<g>
				<path class="st2" d="M133.4,68.2c0,0-0.4,0.5-1.3,1.1c-0.9,0.7-2,1.6-3.3,2.6c-1.2,1-2.5,1.9-3.3,2.5c-0.9,0.6-1.5,1-1.5,1
					s0.4-0.5,1.3-1.1c0.9-0.7,2-1.6,3.3-2.6c1.2-1,2.5-1.9,3.3-2.5C132.8,68.5,133.4,68.2,133.4,68.2z"/>
			</g>
		</g>
		<g>
			<path class="st7" d="M150.4,98.7c-0.3,0.2-3.3,1.7-3.4,3l0,0l29.3,4.6l27.6-8.4l-5.5-4.2c0,0-23.6,1.8-23.1,7.6
				c0,0-0.9-1.9-5.3-2.6C165.6,97.9,150.4,98.7,150.4,98.7z"/>
			<g>
				<path class="st10" d="M146.4,101.6l0.1,0.4l4.3,9.2h35.8l14.5-4.2l3.8-9.7l-25.6,4.5c0,0-0.7,2.8-3.6,3
					c-2.5,0.1-3.1-2.6-3.1-2.6L146.4,101.6z"/>
				<g>
					<path class="st2" d="M146.4,101.6c0,0,0.1,0,0.4,0c0.3,0,0.8,0,1.3,0c1.2,0,2.9,0,5.2,0.1c4.5,0.1,11.1,0.2,19.1,0.3h0.1v0.1
						c0.2,0.6,0.6,1.3,1,1.8c0.6,0.5,1.2,0.8,2.1,0.7c0.8-0.1,1.6-0.4,2.1-0.9s1-1.2,1.2-2v-0.1h0.1c7.8-1.3,16.4-2.9,25.6-4.5
						l0.3-0.1l-0.1,0.3c-0.7,1.6-1.3,3.3-2,5.1c-0.6,1.6-1.2,3.1-1.8,4.7v0.1h-0.1c-5.1,1.5-9.9,2.9-14.5,4.2l0,0l0,0
						c-14.9,0-27.5,0-35.8-0.1h-0.1v-0.1c-2.5-5.4-4-8.7-4.2-9.3l0,0C146.4,101.6,146.4,101.6,146.4,101.6s0,0,0.1,0.4l0,0
						c0.2,0.5,1.8,3.8,4.4,9.2l-0.1-0.1c8.3,0,20.9,0,35.8-0.1l0,0c4.6-1.3,9.4-2.8,14.5-4.2l-0.1,0.1c0.6-1.5,1.2-3.1,1.8-4.7
						c0.7-1.7,1.3-3.5,2-5.1l0.2,0.2c-9.2,1.6-18,3.1-25.6,4.4l0.1-0.1c-0.2,0.8-0.7,1.5-1.2,2.1c-0.7,0.6-1.5,0.9-2.4,1
						c-0.4,0-0.9,0-1.2-0.2c-0.4-0.2-0.8-0.4-1-0.7c-0.6-0.6-0.9-1.2-1.1-1.9l0.1,0.1c-8-0.2-14.4-0.3-19-0.4
						c-2.2-0.1-4-0.1-5.3-0.1c-0.6,0-1,0-1.3,0C146.6,101.6,146.4,101.6,146.4,101.6z"/>
				</g>
			</g>
			<g>
				<path class="st2" d="M173.1,108.9c-0.1,0-0.4-1.5-0.8-3.5c-0.2-2-0.3-3.6-0.2-3.6s0.3,1.6,0.6,3.5
					C173,107.3,173.3,108.9,173.1,108.9z"/>
			</g>
			<g>
				<path class="st2" d="M179.4,109c-0.1,0-0.1-1.6-0.2-3.6c-0.1-2-0.2-3.6-0.1-3.6c0.1,0,0.4,1.6,0.4,3.6
					C179.8,107.4,179.6,109,179.4,109z"/>
			</g>
			<g class="st11">
				<path d="M169,110.3c-0.6-0.3-1.7-1-2-1.6c-0.3-0.5-0.1-1.3,0.4-1.5c0.3-0.1,0.8,0,1.1,0.2c0.9,0.3,1.8,0.7,2.7,1.1
					c-0.4-0.6-0.9-1.4-0.4-2c0.4-0.6,1.5-0.4,2.2-0.1c1.7,0.6,3.4,1.3,5.2,1.7c1.8,0.5,3.6,0.7,5.4,0.4c0.7-0.1,1.3-0.3,1.9-0.7
					c0.4-0.4,0.8-0.9,1.1-1.3c0.7-0.8,1.8-1.4,2.9-1.7c0.3-0.1,0.7-0.1,0.9,0.1c0.4,0.3,0.3,0.8,0.2,1.3c-0.3,1.5,0.2,3,1.5,4.1
					l-4.3,1L169,110.3z"/>
			</g>
			<g>
				<path class="st13" d="M193.1,109.8c0,0-0.2-1.1-0.9-1.8c-0.7-0.6-1.1-0.8-1.2-1.3c-0.1-0.5,0.6-1,0.6-1.5s-1-1.1-2.2-0.5
					s-1.7,1.9-1.8,2.4s0.4,1.4,0,1.9s-2.7,0.2-2.7,0.2l-7.4-0.5c0,0-4.6-3.8-7.5-2.4l1.9,2c0,0-3.4-1.8-4.8-0.9l-0.2,0.4l8.4,5.1
					l5.2,1.7l11.9,1.3c0,0,2.1-1.1,2.1-2.9s-1-3.2-1-3.2"/>
				<g>
					<path class="st2" d="M181.5,112.6c0,0-0.8,0-2-0.1c-0.7-0.1-1.3-0.2-2.2-0.4c-0.4-0.1-0.9-0.2-1.2-0.4
						c-0.4-0.2-0.8-0.4-1.2-0.7c-1.6-1.1-2.8-2.2-3.6-3.1s-1.2-1.5-1.2-1.5s0.6,0.5,1.5,1.3s2.1,2,3.7,3c0.3,0.3,0.8,0.5,1.1,0.7
						s0.8,0.3,1.2,0.4c0.8,0.2,1.6,0.3,2.1,0.4C180.7,112.4,181.5,112.5,181.5,112.6z"/>
				</g>
			</g>
		</g>
		<g>
			<path class="st2" d="M173.7,66.9c0,0.1-1,0.1-2.2,0s-2.1-0.2-2.1-0.3c0-0.1,1-0.1,2.2,0S173.7,66.8,173.7,66.9z"/>
		</g>
		<g>
			<path class="st12" d="M191.3,38.8c0-0.8,0.2-1.6,0.4-2.3c0.2-0.8,0.3-1.6,0.1-2.3c-0.2-0.8-0.9-1.5-1.8-1.5l-4.9,15.9
				c2.2-0.4,7.2-3.9,7-6C192,41.3,191.3,40.1,191.3,38.8z"/>
			<g>
				<g>
					<g>
						<g>
							<g>
								<g>
									<path class="st13" d="M188.2,50.8l-0.1-19.5c0.3-7.2-3.9-13.3-12-13.5h-0.8c-7.5,0.3-13.5,5.6-13.8,12.2
										c-0.3,6.2-0.6,13.1-0.3,16.4c0.3,6.9,8.2,7.7,8.2,7.7v3l3.3,1.1L188.2,50.8z"/>
								</g>
							</g>
							<g>
								<g>
									<g>
										<g>
											<g>
												<g>
													<path class="st14" d="M169.2,54.1c0,0,4.9,0.2,10-2.9c0,0-2.1,5-9.9,4.7L169.2,54.1z"/>
												</g>
											</g>
										</g>
									</g>
								</g>
							</g>
							<g>
								<g>
									<g>
										<g>
											<g>
												<g>
													<g>
														<g>
															<g>
																<path class="st2" d="M163.4,35.4c0,0.5,0.4,0.9,1.1,1c0.6,0,1.1-0.4,1.1-0.9s-0.4-0.9-1.1-1
																	C163.8,34.4,163.4,34.9,163.4,35.4z"/>
															</g>
														</g>
													</g>
												</g>
											</g>
										</g>
									</g>
								</g>
							</g>
							<g>
								<g>
									<g>
										<g>
											<g>
												<g>
													<g>
														<g>
															<g>
																<g>
																	<path class="st2" d="M162.9,32.5c0.1,0.1,0.9-0.5,2.1-0.5c1.2-0.1,2,0.5,2.2,0.3c0.1-0.1-0.1-0.3-0.4-0.5
																		c-0.3-0.2-1-0.4-1.8-0.4c-0.8,0-1.3,0.3-1.7,0.6C163,32.2,162.9,32.4,162.9,32.5z"/>
																</g>
															</g>
														</g>
													</g>
												</g>
											</g>
										</g>
									</g>
								</g>
							</g>
							<g>
								<g>
									<g>
										<g>
											<g>
												<g>
													<g>
														<g>
															<g>
																<path class="st2" d="M174.2,35.6c0,0.5,0.4,0.9,1.1,1c0.6,0,1.1-0.4,1.1-0.9s-0.4-0.9-1.1-1
																	C174.7,34.7,174.2,35.1,174.2,35.6z"/>
															</g>
														</g>
													</g>
												</g>
											</g>
										</g>
									</g>
								</g>
							</g>
							<g>
								<g>
									<g>
										<g>
											<g>
												<g>
													<g>
														<g>
															<g>
																<g>
																	<path class="st2" d="M174.8,32.4c0.1,0.1,1-0.4,2.1-0.3c1.2,0.1,2,0.7,2.1,0.5c0.1-0.1,0-0.3-0.4-0.6
																		c-0.3-0.3-1-0.5-1.7-0.6c-0.8,0-1.3,0.2-1.8,0.4C174.9,32.1,174.8,32.3,174.8,32.4z"/>
																</g>
															</g>
														</g>
													</g>
												</g>
											</g>
										</g>
									</g>
								</g>
							</g>
							<g>
								<g>
									<g>
										<g>
											<g>
												<g>
													<g>
														<g>
															<g>
																<path class="st2" d="M170.9,41.2c0-0.1-0.8-0.1-1.9-0.2c-0.3,0-0.6-0.1-0.7-0.2c-0.1-0.2,0-0.5,0.1-0.8
																	c0.2-0.7,0.6-1.4,0.8-2.1c1.1-3,1.9-5.4,1.8-5.4c-0.1,0-1.1,2.3-2.2,5.3c-0.2,0.7-0.6,1.4-0.8,2.1
																	c-0.1,0.3-0.3,0.7-0.1,1.1c0.1,0.2,0.3,0.3,0.6,0.4c0.2,0,0.3,0,0.6,0C170.1,41.3,170.9,41.2,170.9,41.2z"/>
															</g>
														</g>
													</g>
												</g>
											</g>
										</g>
									</g>
								</g>
							</g>
							<g>
								<g>
									<g>
										<g>
											<g>
												<path class="st12" d="M174.5,28.5c0.1,0.3,1.3,0.1,2.7,0.2s2.6,0.4,2.7,0.1c0.1-0.1-0.1-0.4-0.6-0.7
													c-0.4-0.3-1.2-0.5-2-0.6s-1.6,0.1-2.1,0.3C174.7,28.1,174.4,28.3,174.5,28.5z"/>
											</g>
										</g>
									</g>
								</g>
							</g>
							<g>
								<g>
									<g>
										<g>
											<g>
												<path class="st12" d="M163.1,30.2c0.2,0.2,1,0,2-0.1c1-0.1,1.8,0.1,2-0.2c0.1-0.1-0.1-0.4-0.4-0.6
													c-0.3-0.2-1-0.4-1.7-0.3c-0.7,0-1.2,0.3-1.6,0.5C163.1,29.9,163,30.1,163.1,30.2z"/>
											</g>
										</g>
									</g>
								</g>
							</g>
						</g>
						<g>
							<g>
								<g>
									<g>
										<g>
											<g>
												<g>
													<g>
														<g>
															<path class="st2" d="M174.4,41.8c-0.2,0-0.1,1.1-1.2,2c-1,0.9-2.5,0.8-2.5,0.9c0,0.1,0.3,0.2,0.9,0.2s1.3-0.2,2-0.7
																s0.9-1.2,0.9-1.7C174.7,42.1,174.5,41.8,174.4,41.8z"/>
														</g>
													</g>
												</g>
											</g>
										</g>
									</g>
								</g>
							</g>
						</g>
					</g>
					<path class="st12" d="M192.5,32c-0.1-0.2-0.3-0.4-0.3-0.6s0.2-0.3,0.2-0.5c0.3-0.5,0-1.3-0.7-1.6c0.8-1.1,0.6-2.7-0.4-3.7
						c-0.2-0.2-0.4-0.3-0.4-0.6c0-0.2,0.1-0.4,0.1-0.6c0.6-1.3-0.6-2.6-1.6-3.7c-1.2-1.3-2.5-2.6-4.3-3.1c-0.4-0.1-0.9-0.2-1.2-0.4
						c-0.3-0.2-0.7-0.4-1-0.7c-2.1-1.6-5.3-2.1-7.9-1.2c-0.3,0.1-0.6,0.2-0.9,0.3s-0.7,0.1-1,0.1c-2,0-4,0.6-5.7,1.5
						c-0.6,0.3-1.1,0.7-1.7,0.9c-0.4,0.1-1.1,0.1-1.5,0.3c-1,0.7-0.6,1.6-0.6,1.6c-2.4,1-2.6,2.4-2.4,4.2c0.1,0.7,0.6,1.5,1.3,1.6
						c0.4,0,0.9-0.2,1.3-0.4c0.6-0.4,1.1-0.8,1.6-1.2c0.3-0.3,0.6-0.6,0.9-0.8c0.3-0.2,0.7-0.2,1-0.3c1.6-0.3,3.1-1.1,4.2-2.3
						c0.2-0.2,0.4-0.5,0.8-0.5c0.1,0,0.2,0.1,0.3,0.1c1.7,0.8,3.8,0.6,5.3-0.5c0.8,2.3,3.3,4.1,5.8,4.3c0.3,0,0.7,0,0.9,0.3
						c0.1,0.2,0.1,0.4,0,0.6c-0.7,3.3-0.3,7.1,0.1,10.5c0.3,2.9,1.8,4.9,3.1,5.1l2.6-4l1.2-2C193,34.1,193.1,32.9,192.5,32z"/>
					<g>
						<g>
							<g>
								<path class="st7" d="M172.2,15.9c0,0-0.3-0.1-0.8,0.2c-0.2,0.1-0.4,0.4-0.4,0.8s0.7,0.8,1.1,0.4l-0.3-0.3
									c-0.2,0.2-0.3,0.3-0.6,0.6c-0.2,0.4-0.3,0.8-0.3,1.2c0,0.4,0.2,0.7,0.3,1c0.3,0.5,0.8,0.6,0.8,0.6s-0.2-0.3-0.6-0.7
									c-0.2-0.4-0.3-1.2,0.1-1.9c0.1-0.2,0.2-0.3,0.4-0.5l-0.3-0.3c0,0.1-0.2,0.1-0.2,0c-0.1,0-0.2-0.1-0.2-0.2
									c0-0.2,0.1-0.4,0.2-0.5C171.9,16,172.2,16,172.2,15.9z"/>
							</g>
						</g>
					</g>
					<g>
						<g>
							<g>
								<path class="st7" d="M163.5,20.4c0,0-0.2,0.1-0.2,0.3c0,0.1,0.1,0.3,0.2,0.4c0.1,0.1,0.6,0.3,0.8-0.1l-0.3-0.1
									c0,0.4,0.3,0.9,0.9,1.1c0.2,0.1,0.6,0.1,0.8,0l-0.2-0.2c0,0.3,0.1,0.6,0.2,0.8c0.1,0.2,0.3,0.4,0.6,0.5c0.4,0.2,0.7,0,0.7,0
									s-0.2,0-0.6-0.2s-0.4-0.6-0.4-1.1v-0.2h-0.2c-0.1,0-0.3,0-0.6,0c-0.4-0.1-0.7-0.5-0.7-0.8l-0.1-1l-0.2,0.9
									c0,0-0.1,0.1-0.2,0c-0.1-0.1-0.2-0.2-0.2-0.3C163.5,20.6,163.6,20.5,163.5,20.4z"/>
							</g>
						</g>
					</g>
				</g>
				<g>
					<g>
						<g>
							<g>
								<g>
									<g>
										<g>
											<g>
												<g>
													<g>
														<g>
															<g>
																<g>
																	<g>
																		<g>
																			<g>
																				<g>
																					<g>
																						<g>
																							<g>
																								<path class="st13" d="M187.6,36.4c0.1-0.1,5.3-1.6,5.3,3.1s-5.3,3.8-5.3,3.6
																									C187.5,43,187.6,36.4,187.6,36.4z"/>
																							</g>
																						</g>
																					</g>
																				</g>
																			</g>
																		</g>
																	</g>
																</g>
															</g>
														</g>
													</g>
												</g>
											</g>
										</g>
									</g>
								</g>
							</g>
						</g>
					</g>
					<g>
						<g>
							<g>
								<g>
									<g>
										<g>
											<g>
												<g>
													<g>
														<g>
															<g>
																<g>
																	<g>
																		<g>
																			<g>
																				<g>
																					<g>
																						<g>
																							<g>
																								<g>
																									<path class="st14" d="M189.2,41.4c0,0,0.1,0.1,0.2,0.1c0.1,0.1,0.4,0.1,0.7,0c0.6-0.2,1-1,1-1.8
																										c0-0.4-0.1-0.8-0.2-1.2c-0.1-0.3-0.4-0.6-0.7-0.6c-0.2-0.1-0.4,0.1-0.6,0.2c-0.1,0.1,0,0.2-0.1,0.2
																										c0,0-0.1-0.1-0.1-0.3c0-0.1,0.1-0.2,0.2-0.3c0.1-0.1,0.3-0.1,0.6-0.1c0.4,0,0.8,0.4,1,0.7
																										c0.2,0.4,0.3,0.8,0.3,1.3c0,0.9-0.6,1.8-1.3,2c-0.3,0.1-0.7,0-0.8-0.1C189.2,41.5,189.2,41.4,189.2,41.4z"
																										/>
																								</g>
																							</g>
																						</g>
																					</g>
																				</g>
																			</g>
																		</g>
																	</g>
																</g>
															</g>
														</g>
													</g>
												</g>
											</g>
										</g>
									</g>
								</g>
							</g>
						</g>
					</g>
				</g>
			</g>
			<g>
				<path class="st14" d="M176.9,42.4c-0.1,0-0.2-0.5-0.7-0.9c-0.4-0.4-0.9-0.6-0.9-0.7c0-0.1,0.7,0,1.1,0.5
					C177,41.9,176.9,42.4,176.9,42.4z"/>
			</g>
			<g>
				<path class="st14" d="M181.9,33.9c0.1,0.1-0.3,0.5-1,0.7c-0.7,0.2-1.3,0-1.3-0.1s0.6,0,1.2-0.2
					C181.5,34.1,181.9,33.8,181.9,33.9z"/>
			</g>
			<g>
				<path class="st14" d="M182.2,35.4c0,0.1-0.4-0.1-1-0.2c-0.6-0.1-1-0.1-1-0.2c0-0.1,0.4-0.2,1.1-0.1
					C181.9,35,182.4,35.3,182.2,35.4z"/>
			</g>
			<g>
				<path class="st14" d="M162.6,35.3C162.6,35.3,162.7,35.3,162.6,35.3c0,0.1-0.1,0.2-0.1,0.2c-0.1,0-0.3,0-0.4,0
					c-0.3-0.1-0.6-0.2-0.4-0.3c0-0.1,0.3-0.1,0.6,0C162.2,35.2,162.4,35.3,162.6,35.3C162.5,35.3,162.5,35.3,162.6,35.3L162.6,35.3z
					"/>
			</g>
			<g>
				<path class="st2" d="M189.3,20.8c0,0-0.4,0.4-1.5,0.9c-0.9,0.4-2.5,0.8-4,0.7c-1.7-0.1-3-0.6-3.9-1.1s-1.3-1-1.3-1
					s0.6,0.4,1.5,0.8c0.9,0.5,2.2,0.9,3.8,1s3-0.3,3.9-0.6C188.8,21.1,189.3,20.8,189.3,20.8z"/>
			</g>
			<g>
				<path class="st2" d="M191.1,23.5c0,0-0.6,0.4-1.6,0.9c-0.6,0.2-1.1,0.5-1.9,0.7c-0.8,0.1-1.7,0.1-2.6,0
					c-1.8-0.3-3.3-1.1-4.2-1.7s-1.5-1-1.5-1.1c0,0,0.7,0.3,1.6,0.9c1,0.5,2.4,1.3,4,1.6c0.9,0.1,1.7,0.2,2.5,0
					c0.8-0.1,1.3-0.3,1.9-0.6C190.6,23.8,191.1,23.4,191.1,23.5z"/>
			</g>
			<g>
				<path class="st2" d="M203.1,34.9c-0.1,0,0.1-0.5-0.3-1.2c-0.2-0.3-0.6-0.7-1.1-0.8c-0.6-0.2-1.1-0.1-1.7,0.2l-0.2,0.1v-0.3
					c0-0.3-0.1-0.6-0.2-0.8c-0.4-0.6-1.1-0.9-1.8-1s-1.3-0.1-1.8,0c-1,0.2-1.7,0.4-1.7,0.3c0,0,0.6-0.3,1.7-0.5
					c0.6-0.1,1.2-0.2,1.9-0.1c0.8,0.1,1.6,0.5,2,1.2c0.2,0.3,0.3,0.7,0.3,1l-0.2-0.1c0.7-0.4,1.5-0.4,2-0.2s1,0.6,1.2,1
					C203.4,34.4,203.1,35,203.1,34.9z"/>
			</g>
		</g>
		<g class="st11">
			<path d="M154.4,98.7l3.6-23C153.8,82.7,152.5,91,154.4,98.7z"/>
		</g>
		<g class="st11">
			<path d="M217.9,100.1c-1.5-0.7-3-0.8-4.7-0.6c-2.2,0.2-4.8,0.8-6,2.3c1.6-0.9,4.2-1.5,6.1-0.9c1.9,0.5,3.6,1.7,5.1,3
				c0.4,0.4,1.2,0.8,1.7,0.5c0.3-0.2,0.3-0.6,0.3-0.9C220.3,102,219.2,100.7,217.9,100.1z"/>
		</g>
	</g>
</g>
<g id="Triangle">
	<g>
		<g>
			<g>
				<g>
					<g>
						<path class="st10" d="M240.6,129.9h33.9V78L240.6,129.9z M254.3,121.9l14.4-21.6v21.6H254.3z"/>
					</g>
				</g>
			</g>
		</g>
		<g>
			<g>
				<g>
					<g>
						<g>
							<path class="st2" d="M243.8,124.9c0.1-0.1,1,0.3,2,0.9c1.1,0.6,1.9,1.2,1.9,1.2c-0.1,0.1-1-0.3-2-0.9
								C244.6,125.5,243.8,125,243.8,124.9z"/>
						</g>
					</g>
				</g>
			</g>
		</g>
		<g>
			<g>
				<g>
					<g>
						<g>
							<path class="st2" d="M248.8,117.2c0.1-0.1,1,0.3,2,0.9c1,0.6,1.9,1.1,1.8,1.2c-0.1,0.1-1-0.3-2-0.9
								C249.6,117.8,248.8,117.3,248.8,117.2z"/>
						</g>
					</g>
				</g>
			</g>
		</g>
		<g>
			<g>
				<g>
					<g>
						<g>
							<path class="st2" d="M253.8,109.5c0.1-0.1,0.9,0.4,1.9,1.1s1.7,1.3,1.7,1.4c-0.1,0.1-0.9-0.4-1.9-1.1
								C254.5,110.2,253.7,109.6,253.8,109.5z"/>
						</g>
					</g>
				</g>
			</g>
		</g>
		<g>
			<g>
				<g>
					<g>
						<g>
							<path class="st2" d="M259,101.9c0.1-0.1,0.9,0.4,1.9,1.1s1.7,1.3,1.7,1.4c-0.1,0.1-0.9-0.4-1.9-1.1
								C259.7,102.6,258.9,102,259,101.9z"/>
						</g>
					</g>
				</g>
			</g>
		</g>
		<g>
			<g>
				<g>
					<g>
						<g>
							<path class="st2" d="M264,94c0.1-0.1,1,0.4,2,1s1.9,1.2,1.8,1.3c-0.1,0.1-1-0.4-2-1C264.8,94.7,263.9,94.1,264,94z"/>
						</g>
					</g>
				</g>
			</g>
		</g>
		<g>
			<g>
				<g>
					<g>
						<g>
							<path class="st2" d="M269.4,85.8c0.1-0.1,0.9,0.3,1.9,0.9c1,0.6,1.8,1.1,1.7,1.2s-0.9-0.3-1.9-0.9
								C270.1,86.4,269.3,85.9,269.4,85.8z"/>
						</g>
					</g>
				</g>
			</g>
		</g>
		<g>
			<g>
				<g>
					<g>
						<g>
							<path class="st2" d="M245.4,122.5c0.1-0.1,0.6,0.1,1.1,0.4s0.9,0.6,0.9,0.7c-0.1,0.1-0.6-0.1-1.1-0.4
								C245.7,122.9,245.4,122.6,245.4,122.5z"/>
						</g>
					</g>
				</g>
			</g>
		</g>
		<g>
			<g>
				<g>
					<g>
						<g>
							<path class="st2" d="M247,120c0.1-0.1,0.6,0.1,1.1,0.4s0.9,0.6,0.9,0.7c-0.1,0.1-0.6-0.1-1.1-0.4
								C247.3,120.4,247,120.1,247,120z"/>
						</g>
					</g>
				</g>
			</g>
		</g>
		<g>
			<g>
				<g>
					<g>
						<g>
							<path class="st2" d="M250.7,114.4c0.1-0.1,0.6,0.1,1.1,0.4s0.9,0.6,0.9,0.7c-0.1,0.1-0.6-0.1-1.1-0.4
								C251,114.8,250.7,114.5,250.7,114.4z"/>
						</g>
					</g>
				</g>
			</g>
		</g>
		<g>
			<g>
				<g>
					<g>
						<g>
							<path class="st2" d="M252.2,111.8c0.1-0.1,0.6,0.1,1.1,0.4s0.9,0.6,0.9,0.7c-0.1,0.1-0.6-0.1-1.1-0.4
								S252.2,111.9,252.2,111.8z"/>
						</g>
					</g>
				</g>
			</g>
		</g>
		<g>
			<g>
				<g>
					<g>
						<g>
							<path class="st2" d="M255.8,106.8c0.1-0.1,0.6,0.1,1.1,0.4s0.9,0.6,0.9,0.7c-0.1,0.1-0.6-0.1-1.1-0.4
								S255.7,106.9,255.8,106.8z"/>
						</g>
					</g>
				</g>
			</g>
		</g>
		<g>
			<g>
				<g>
					<g>
						<g>
							<path class="st2" d="M257.4,104.4c0.1-0.1,0.6,0.1,1.1,0.4s0.9,0.6,0.9,0.7c-0.1,0.1-0.6-0.1-1.1-0.4
								C257.8,104.8,257.3,104.4,257.4,104.4z"/>
						</g>
					</g>
				</g>
			</g>
		</g>
		<g>
			<g>
				<g>
					<g>
						<g>
							<path class="st2" d="M260.8,99.2c0.1-0.1,0.6,0.1,1.1,0.4s0.9,0.6,0.9,0.7c-0.1,0.1-0.6-0.1-1.1-0.4
								C261.1,99.6,260.7,99.2,260.8,99.2z"/>
						</g>
					</g>
				</g>
			</g>
		</g>
		<g>
			<g>
				<g>
					<g>
						<g>
							<path class="st2" d="M262.6,96.4c0.1-0.1,0.6,0.1,1.1,0.4s0.9,0.6,0.9,0.7c-0.1,0.1-0.6-0.1-1.1-0.4
								C262.9,96.8,262.6,96.5,262.6,96.4z"/>
						</g>
					</g>
				</g>
			</g>
		</g>
		<g>
			<g>
				<g>
					<g>
						<g>
							<path class="st2" d="M266,91.3c0.1-0.1,0.6,0.1,1.1,0.4s0.9,0.6,0.9,0.7c-0.1,0.1-0.6-0.1-1.1-0.4S265.8,91.4,266,91.3z"/>
						</g>
					</g>
				</g>
			</g>
		</g>
		<g>
			<g>
				<g>
					<g>
						<g>
							<path class="st2" d="M267.8,88.4c0.1-0.1,0.6,0.1,1.1,0.4s0.9,0.6,0.9,0.7c-0.1,0.1-0.6-0.1-1.1-0.4
								C268.1,88.8,267.8,88.5,267.8,88.4z"/>
						</g>
					</g>
				</g>
			</g>
		</g>
	</g>
</g>
<g id="Globe">
	<g>
		<g>
			<g>
				<g>
					<g>
						<g>
							<g>
								<path class="st12" d="M97.4,120.1c0-0.3-0.1-0.5-0.1-0.8s-0.1-0.5-0.1-0.8c0,0.3,0.1,0.5,0.1,0.8S97.3,119.8,97.4,120.1z"/>
							</g>
						</g>
					</g>
				</g>
			</g>
			<g>
				<g>
					<g>
						<g>
							<g>
								<path class="st15" d="M95.2,123.3c-0.2-0.5-0.3-1.1-0.4-1.6c-0.1-0.3-0.2-0.6-0.5-0.7c-0.2-0.1-0.4-0.1-0.6-0.1
									c-0.7-0.2-0.9-1.2-1.5-1.5c-0.2-0.1-0.4-0.1-0.7-0.1c-0.9-0.1-1.8-0.4-2.3-1.1c-0.2-0.2-0.3-0.5-0.5-0.7s-0.6-0.3-0.8-0.1
									c0.2,0.4,0.4,0.7,0.5,1.1c0.2,0.3,0.3,0.7,0.6,0.9c0.3,0.2,0.7,0.4,1,0.2c0.1-0.1,0.2-0.1,0.3-0.1c0.1,0,0.2,0.1,0.2,0.1
									c0.5,0.5,0.3,1.4-0.1,1.9c-0.5,0.5-1.1,0.8-1.8,1.1c-0.2,0.1-0.5,0.2-0.7,0.1c-0.5-0.1-0.7-0.6-0.8-1c-0.3-1-0.4-2-1.1-2.9
									c-0.2-0.3-0.4-0.5-0.6-0.8c-0.1-0.3-0.1-0.7-0.3-1c-0.2-0.3-0.6-0.5-0.7-0.8c0-0.3,0.2-0.5,0.4-0.6c0.2-0.1,0.5-0.1,0.7-0.2
									c0.1,0,0.2-0.1,0.2-0.2c0-0.2-0.2-0.2-0.3-0.4c-0.1-0.2,0.1-0.3,0.2-0.5c0.2-0.4-0.2-0.7-0.6-0.9c-0.4-0.1-0.8-0.3-1-0.6
									c-0.1-0.2-0.1-0.3-0.1-0.5c-0.1-0.4-0.4-0.9-0.9-0.9c-0.5-0.1-1,0.3-0.9,0.8c0,0.2,0.2,0.4,0.3,0.7c0.1,0.2,0.1,0.6-0.2,0.6
									c-0.4,0.1-0.8-0.6-1.1-0.3c0.1,0.4,0.3,0.9,0.4,1.4c-0.5,0.3-1.1-0.2-1.3-0.7c-0.2-0.5-0.2-1.1-0.5-1.6s-1-0.9-1.4-0.5
									c0,0.7,0.8,0.9,1.2,1.4c0.3,0.4,0.2,1-0.2,1.2c-0.4,0.2-1.1-0.2-0.9-0.6c0.1-0.2,0.2-0.3,0.2-0.4c0-0.2-0.2-0.4-0.3-0.5
									c-0.2-0.2-0.5-0.4-0.7-0.6c-0.2-0.1-0.3-0.3-0.5-0.3c-0.5-0.1-1,0.3-1.3,0.7c-0.3,0.5-0.4,1-0.8,1.4c-0.5,0.5-1.6,0.6-2.1,0
									s-0.2-1.6,0.5-1.9c0.3-0.1,0.6-0.1,0.8-0.3c0.3-0.4-0.5-1-0.2-1.4c0.2-0.3,0.7-0.2,1.1-0.3c0.4-0.1,0.6-0.5,0.8-0.8
									c0.2-0.3,0.6-0.6,0.9-0.6c0-0.2-0.1-0.5,0-0.7s0.4-0.3,0.6-0.2c-0.2,0.3,0,0.7,0.4,0.9c0.3,0.2,0.7,0.1,1.1,0.1
									s0.8-0.2,0.8-0.5c0-0.1,0-0.2,0-0.4c0.2-0.4,1,0.2,1.3-0.2c0.2-0.2,0-0.5-0.3-0.6c-0.2-0.1-0.5,0-0.8,0s-0.6-0.1-0.6-0.4
									c0-0.2,0.3-0.4,0.3-0.7c0-0.4-0.7-0.5-0.9-0.2c-0.2,0.3-0.2,0.8-0.1,1.2c0.1,0.4,0.1,0.9-0.2,1.2c-0.1,0.2-0.5,0.1-0.6-0.1
									s-0.1-0.5-0.1-0.7s-0.1-0.5-0.4-0.6c-0.2,0-0.3,0-0.5,0.1c-0.6,0.1-1.1-0.7-0.9-1.4c0.2-0.6,0.8-1,1.3-1.3
									c0.4-0.2,0.9-0.4,1.3-0.2c0.2,0.1,0.3,0.3,0.5,0.4c0.3,0.2,0.7,0.1,1.1,0.1c0.6,0,1.2,0.2,1.6,0.6c0.2,0.1,0.3,0.4,0.2,0.6
									c-0.1,0.2-0.5,0.2-0.5,0.5c0.4,0.1,1-0.2,1-0.6c0.2,0.1,0.4,0.3,0.4,0.5c0.5-0.5,1.4-0.4,1.8,0.1c0.1,0.1,0.2,0.3,0.3,0.4
									c0.1,0.1,0.4,0,0.4-0.1s0-0.1,0-0.2c-0.1-0.2-0.2-0.5-0.3-0.7c0.3-0.2,0.8,0.1,1,0.4c0.9,1.1,1.5,0.5,2.7,0.6
									c0.8,0.1,1.2,0.6,1.7,1.3c1.4,1.9,3.3,3.5,4.6,5.6c0.1,0.2,0.3,0.4,0.4,0.6c0-0.1,0-0.1-0.1-0.2c-0.5-1.3-1.1-2.6-1.9-3.8
									c-0.2-0.3-0.3-0.5-0.5-0.8c-0.1-0.2-0.2-0.3-0.3-0.5c-0.1-0.2-0.3-0.4-0.4-0.6s-0.2-0.3-0.3-0.4c-0.1-0.1-0.2-0.2-0.3-0.3
									c-0.1-0.1-0.2-0.2-0.3-0.3l-0.3-0.4l-0.1-0.1c-0.1-0.1-0.2-0.2-0.3-0.4l0,0l-0.1-0.1c-0.1-0.1-0.2-0.2-0.3-0.3
									c-0.2-0.2-0.3-0.3-0.5-0.5c-0.1-0.1-0.3-0.3-0.4-0.4s-0.3-0.2-0.4-0.3c-0.1-0.1-0.3-0.2-0.4-0.3c-0.2-0.1-0.3-0.3-0.5-0.4
									l0,0c-0.4-0.4-0.9-0.7-1.4-1c-0.1-0.1-0.2-0.2-0.4-0.2c-0.1-0.1-0.2-0.2-0.4-0.2c-0.1-0.1-0.2-0.1-0.4-0.2
									c-0.1-0.1-0.2-0.1-0.4-0.2c-0.1-0.1-0.2-0.1-0.3-0.2c-0.1,0-0.1-0.1-0.2-0.1c-0.2-0.1-0.4-0.2-0.6-0.3
									c-0.1-0.1-0.2-0.1-0.3-0.2c-0.1-0.1-0.3-0.1-0.4-0.2c0,0,0,0-0.1,0c-0.1-0.1-0.3-0.1-0.4-0.2c-0.2-0.1-0.4-0.2-0.5-0.2
									c-0.2-0.1-0.4-0.2-0.6-0.2c-0.2-0.1-0.5-0.2-0.7-0.2c-0.2-0.1-0.5-0.2-0.7-0.2c-0.2-0.1-0.5-0.1-0.7-0.2
									c-0.5-0.1-1-0.2-1.5-0.3l0,0c-0.2,0-0.4-0.1-0.6-0.1l0,0c-0.1,0-0.2,0-0.3,0c-0.4-0.1-0.7-0.1-1.1-0.1h-0.1
									c-0.1,0-0.2,0-0.3,0c-0.2,0-0.5,0-0.7-0.1c-0.2,0-0.5,0-0.8,0s-0.5,0-0.8,0c-0.7,0-1.4,0-2.1,0.1c-0.2,0-0.3,0-0.5,0
									s-0.3,0-0.5,0.1c-0.2,0-0.3,0-0.5,0.1c-0.2,0-0.3,0.1-0.5,0.1c-0.1,0-0.3,0-0.4,0.1c-0.3,0.1-0.7,0.1-1,0.2
									c-0.2,0-0.3,0.1-0.5,0.1s-0.3,0.1-0.5,0.1c-0.3,0.1-0.5,0.2-0.8,0.2l0,0c-0.2,0.1-0.4,0.1-0.6,0.2l0,0
									c-0.2,0.1-0.4,0.1-0.6,0.2l0,0c-0.2,0.1-0.4,0.2-0.6,0.2c-0.2,0.1-0.5,0.2-0.7,0.3c-0.2,0.1-0.4,0.2-0.6,0.3
									c-0.2,0.1-0.4,0.2-0.6,0.3l0,0c-0.2,0.1-0.4,0.2-0.6,0.3c-0.2,0.1-0.4,0.2-0.6,0.3l0,0c-0.2,0.1-0.4,0.2-0.5,0.3
									c-0.1,0-0.1,0.1-0.2,0.1c-0.2,0.1-0.4,0.2-0.5,0.4c-0.2,0.1-0.4,0.3-0.7,0.5c-0.2,0.1-0.4,0.3-0.6,0.4c-1,0.8-2,1.7-2.9,2.7
									c-0.3,0.3-0.6,0.7-0.9,1.1c-0.2,0.3-0.5,0.6-0.7,0.9s-0.4,0.6-0.6,0.9c0.2-0.3,0.4-0.6,0.6-0.9c0.1,0,0.1,0,0.2,0
									c0.3,0,0.7,0,1-0.2c0.3-0.1,0.5-0.4,0.7-0.6c0.6-0.5,1.7-0.5,1.9-1.3c0.1-0.3,0-0.5,0.1-0.8c0.2-0.5,0.8-0.5,1.3-0.5
									c0.2,0,0.5,0,0.6,0.2c0.1,0.1,0,0.3,0,0.4c-0.3,0.9-0.9,1.6-1.7,2.1c-0.6,0.4-1.5,0.7-1.7,1.4c0.1,0.2,0.5,0.2,0.6,0.5
									c0,0.2-0.2,0.3-0.3,0.5c-0.1,0.3,0.2,0.6,0.5,0.6s0.6-0.2,0.8-0.4c0.7-0.6,1.4-1.3,1.6-2.2c0.1-0.4,0.1-0.8,0.4-1
									c0.4-0.3,1-0.1,1.1,0.3c0.3-0.2,0.7-0.3,0.9,0c0.1,0.1,0,0.2,0.1,0.3c0.1,0.5,0.7,0.7,0.8,1.2s-0.6,0.8-1.2,0.9
									c-0.5,0.1-1,0.2-1.5,0.2c-0.2,0-0.4,0.1-0.6,0.2c-0.2,0.1-0.3,0.4-0.2,0.6c0.1,0.1,0.2,0.2,0.3,0.3c0.4,0.4,0.1,1.3-0.5,1.3
									c-0.2,0-0.4-0.1-0.6-0.1c-0.6,0-1.1,0.5-1.3,1c-0.3,0.5-0.5,1.1-1,1.5c-0.8,0.6-2.1,0.4-2.4,1.3c-0.1,0.4-0.1,0.7,0,1.1
									s0.1,0.8-0.1,1.1c-0.2,0.3-0.8,0.4-1,0c-0.1-0.2,0-0.3,0-0.5c0.1-0.5,0.2-1.1,0.3-1.6c0.1-0.4,0.1-0.9-0.1-1.2
									c-0.3-0.5-1.1-0.4-1.5,0s-0.6,0.9-0.7,1.5c-0.1,0.4-0.2,1-0.4,1.5l0,0c-0.1,0.5-0.1,0.9-0.2,1.4c0,0.5-0.1,0.9-0.1,1.4
									c0.1,0,0.1-0.1,0.2-0.2c0.2-0.2,0.7-1.2,1.1-0.7c0.1,0.1,0.1,0.3,0,0.5s-0.4,0.2-0.5,0.4c-0.1,0.2,0,0.5,0.2,0.6
									s0.4,0.2,0.6,0.4c0.3,0.4,0,1,0.3,1.4c0.2,0.3,0.7,0.4,1.1,0.4h0.1c0.1-0.8,0.5-1.5,1.6-1.7c1.5-0.3,3.5,0.9,4.4,2.1
									c1,1.3,1.4,3.1,2.9,3.7c1.1,0.5,2.6,0.3,3.1,1.3c0.5,0.9-0.3,1.9-0.5,3c-0.1,0.7,0.1,1.3,0.2,2c0,0.7-0.2,1.5-0.8,1.7
									c-0.3,0.2-0.8,0.1-1.1,0.4c-0.5,0.5-0.1,1.4-0.6,1.9c-0.2,0.2-0.4,0.2-0.6,0.3c-1.1,0.6-1.1,2.2-0.6,3.3c0,0,0,0.1,0.1,0.1
									c1.6,1,3.4,1.7,5.3,2.3c2.1,0.6,4.4,1,6.7,1c4,0,7.7-1,11-2.7l0,0c0.7-0.4,1.4-0.8,2.1-1.2c1-0.7,2-1.4,2.9-2.3
									c0.6-0.6,1.2-1.2,1.8-1.8c0.4-0.4,0.8-0.9,1.1-1.4c0.2-0.2,0.4-0.5,0.5-0.7c0.5-0.7,1-1.5,1.4-2.3c0.6-1.1,1.1-2.4,1.5-3.6
									c0.4-1.3,0.7-2.6,0.9-3.9c0.1-0.5,0.1-1,0.2-1.6c-0.3,0.2-0.6,0.4-0.9,0.4C95.9,124.3,95.5,123.8,95.2,123.3z"/>
							</g>
						</g>
					</g>
				</g>
			</g>
			<g>
				<g>
					<g>
						<g>
							<g>
								<path class="st12" d="M68.5,105.3c-0.5,0.3-0.7,0.8-1.1,1.2c-0.4,0.4-1,0.7-1.4,0.4c-0.2-0.2-0.3-0.4-0.3-0.7
									c0-0.4,0.1-0.7,0.3-1.1c0.2-0.3,0.5-0.6,0.7-0.9s0.1-0.8-0.2-1c-0.2-0.1-0.4-0.1-0.6-0.2c-0.3-0.2-0.1-0.7,0.3-0.9
									c0.3-0.1,0.7,0,1.1,0c1.4,0.1,2.4-0.8,3.4-1.5c0.8-0.6,2.5-1.2,3.4-0.7c0.4,0.2,0.5,0.8,0.2,1.1c-0.2,0.1-0.4,0.1-0.5,0.3
									c-0.2,0.2-0.2,0.4-0.3,0.6c-0.3,0.5-1,0.7-1.2,1.3c-0.1,0.3-0.1,0.7-0.3,1c-0.2,0.2-0.5,0.3-0.8,0.4
									c-0.6,0.1-1.2,0.3-1.8,0.4C69,105.1,68.8,105.2,68.5,105.3z"/>
							</g>
						</g>
					</g>
				</g>
			</g>
			<g>
				<g>
					<g>
						<g>
							<g>
								<path class="st12" d="M84.3,133.8c-0.6,0.9-0.7,2-0.9,3c-0.2,1-0.4,2.1-1.2,2.8c-0.8,0.7-2.3,0.6-2.7-0.3
									c-0.2-0.5-0.1-1.1-0.2-1.7c-0.2-0.7-0.8-1.3-1-2c-0.2-0.6-0.2-1.2-0.3-1.9c-0.1-3.5-1-7.1-3.3-9.6c-0.3-0.3-0.6-0.6-1-0.7
									c-0.5-0.1-1.1,0.1-1.4,0.5c-0.2,0.2-0.3,0.6-0.5,0.8c-0.5,0.5-1.4,0.1-1.7-0.5c-0.3-0.6-0.3-1.3-0.2-2
									c0.1-0.8,0.1-1.7,0.2-2.5c0-0.4,0.1-0.9,0.4-1.2c0.4-0.5,1.2-0.5,1.7-0.9c0.7-0.5,0.8-1.4,1.2-2.1c0.4-0.7,1.7-1,1.9-0.2
									c1.4-2.9,4.5,1.4,6.3,1.1c0.5-0.1,1-0.3,1.6-0.3c0.9,0.1,1.4,1.2,1.8,2c0.5,1.5,1.1,2.9,1.6,4.4c0.2,0.6,0.5,1.2,1,1.4
									c0.4,0.2,0.9,0,1.4,0.2c1.1,0.4,0.8,2.2-0.1,3s-2.2,1.3-2.7,2.4c-0.3,0.8-0.1,1.8-0.4,2.7C85.2,132.8,84.7,133.2,84.3,133.8
									z"/>
							</g>
						</g>
					</g>
				</g>
			</g>
			<g>
				<g>
					<g>
						<g>
							<g>
								<path class="st12" d="M88.7,134.7c-0.4,0.1-0.8-0.1-1.1,0.1c-0.2,0.1-0.2,0.4-0.3,0.6c-0.1,0.3-0.3,0.6-0.5,0.7
									c-0.3,0.2-0.6,0.2-0.9,0c-0.2-0.2-0.3-0.6-0.1-0.8c0.1-0.1,0.2-0.2,0.3-0.3c0.5-0.5,0.2-1.3,0.5-1.9c0.2-0.3,0.6-0.7,0.8-1
									c0.2-0.3,0.3-0.5,0.6-0.5C89.6,131.4,90.3,134.5,88.7,134.7z"/>
							</g>
						</g>
					</g>
				</g>
			</g>
			<g>
				<g>
					<g>
						<g>
							<g>
								<path class="st12" d="M53.8,128.4c-0.1-0.7,0.1-1.3,0.2-2c0-0.5,0-0.9,0-1.4c-0.4,0-0.8-0.1-1.2-0.2c-0.1,0-0.2,0-0.2-0.1
									c-0.1-0.1,0-0.2,0-0.2c0-0.5-0.5-0.9-1-1.1c-0.2-0.1-0.5-0.3-0.7-0.4c0,0.1,0,0.1,0,0.2c0.1,2.6,0.6,5,1.5,7.3
									c0.4,1,0.9,2.1,1.4,3c0.2,0.4,0.5,0.8,0.7,1.2c0.3,0.5,0.7,1,1,1.5s0.7,0.9,1.1,1.3c0.5,0.6,1.1,1.1,1.7,1.7
									c0.5,0.5,1.1,0.9,1.6,1.4c-1.3-3.4-2.5-6.8-4.7-9.7C54.6,130.1,53.9,129.4,53.8,128.4z"/>
							</g>
						</g>
					</g>
				</g>
			</g>
			<g>
				<g>
					<g>
						<g>
							<g>
								<path class="st12" d="M50.8,122c0,0.1,0,0.3,0,0.4s0,0.2,0,0.3c0-0.1,0-0.2,0-0.3C50.7,122.2,50.7,122.1,50.8,122z"/>
							</g>
						</g>
					</g>
				</g>
			</g>
			<g>
				<g>
					<g>
						<g>
							<g>
								<path class="st12" d="M61.1,141.6c0.2,0.1,0.4,0.3,0.6,0.4c0.1,0.1,0.3,0.2,0.4,0.3c-0.1-0.1-0.3-0.2-0.4-0.3
									C61.5,141.8,61.3,141.7,61.1,141.6z"/>
							</g>
						</g>
					</g>
				</g>
			</g>
			<g>
				<g>
					<g>
						<g>
							<g>
								<path class="st12" d="M50.8,121.4L50.8,121.4L50.8,121.4L50.8,121.4L50.8,121.4L50.8,121.4c0,0.2,0,0.4,0,0.5
									C50.8,121.8,50.8,121.6,50.8,121.4C50.8,121.5,50.8,121.5,50.8,121.4z"/>
							</g>
						</g>
					</g>
				</g>
			</g>
			<g>
				<g>
					<g>
						<g>
							<g>
								<path class="st12" d="M50.7,122.7c0,0.1,0,0.2,0,0.3l0,0l0,0C50.8,122.9,50.8,122.8,50.7,122.7z"/>
							</g>
						</g>
					</g>
				</g>
			</g>
			<g>
				<g>
					<g>
						<g>
							<g>
								<path class="st12" d="M54,124.1L54,124.1c-0.5,0-1-0.1-1.2-0.4c-0.3-0.4,0-1-0.3-1.4c-0.1-0.2-0.4-0.3-0.6-0.4
									c-0.2-0.1-0.4-0.4-0.2-0.6c0.1-0.2,0.4-0.2,0.5-0.4c0.1-0.1,0.1-0.3,0-0.5c-0.4-0.5-0.9,0.5-1.1,0.7
									c-0.1,0.1-0.1,0.1-0.2,0.2l0,0v0.1c0,0.1,0,0.3,0,0.4s0,0.3,0,0.4s0,0.2,0,0.3c0,0.1,0,0.2,0,0.3c0.3,0.1,0.5,0.2,0.7,0.4
									c0.5,0.3,1,0.6,1,1.1c0,0.1,0,0.2,0,0.2c0,0.1,0.1,0.1,0.2,0.1c0.4,0.1,0.8,0.1,1.2,0.2"/>
							</g>
						</g>
					</g>
				</g>
			</g>
			<g>
				<g>
					<g>
						<g>
							<g>
								<path class="st12" d="M53.9,125c0,0.5,0,1,0,1.4c0,0.7-0.2,1.3-0.2,2c0.1,0.9,0.8,1.7,1.3,2.5c2.2,2.9,3.4,6.3,4.7,9.7l0,0
									c0.2,0.2,0.5,0.4,0.7,0.5s0.4,0.3,0.6,0.4c0.2,0.1,0.4,0.3,0.6,0.4c0.1,0.1,0.3,0.2,0.4,0.3c0,0,0-0.1-0.1-0.1
									c-0.5-1.1-0.5-2.7,0.6-3.3c0.2-0.1,0.5-0.2,0.6-0.3c0.5-0.5,0.1-1.4,0.6-1.9c0.3-0.3,0.7-0.2,1.1-0.4
									c0.6-0.3,0.8-1.1,0.8-1.7c-0.1-0.7-0.3-1.3-0.2-2c0.1-1,0.9-2,0.5-3c-0.5-1-2-0.9-3.1-1.3c-1.5-0.6-1.9-2.4-2.9-3.7
									c-0.9-1.1-2.9-2.4-4.4-2.1c-1.1,0.2-1.5,0.9-1.6,1.7"/>
							</g>
						</g>
					</g>
				</g>
			</g>
			<g>
				<g>
					<g>
						<g>
							<g>
								<path class="st12" d="M52.2,115.6c0.4-0.4,1.2-0.4,1.5,0c0.2,0.3,0.2,0.8,0.1,1.2c-0.1,0.5-0.2,1.1-0.3,1.6
									c0,0.2,0,0.3,0,0.5c0.2,0.3,0.7,0.3,1,0c0.2-0.3,0.2-0.7,0.1-1.1c-0.1-0.4-0.1-0.8,0-1.1c0.4-0.9,1.7-0.7,2.4-1.3
									c0.5-0.4,0.7-0.9,1-1.5c0.3-0.5,0.8-1,1.3-1c0.2,0,0.4,0.1,0.6,0.1c0.6,0,0.9-0.9,0.5-1.3c-0.1-0.1-0.2-0.2-0.3-0.3
									c-0.1-0.2,0-0.4,0.2-0.6c0.2-0.1,0.4-0.2,0.6-0.2c0.5-0.1,1-0.2,1.5-0.2c0.6-0.1,1.3-0.4,1.2-0.9s-0.7-0.7-0.8-1.2
									c0-0.1,0-0.2-0.1-0.3c-0.2-0.3-0.6-0.2-0.9,0c-0.1-0.4-0.7-0.6-1.1-0.3c-0.3,0.2-0.3,0.7-0.4,1c-0.2,0.9-1,1.5-1.6,2.2
									c-0.2,0.2-0.5,0.4-0.8,0.4s-0.6-0.3-0.5-0.6c0.1-0.2,0.4-0.3,0.3-0.5c0-0.3-0.5-0.2-0.6-0.5c0.2-0.7,1-1,1.7-1.4
									c0.8-0.5,1.4-1.2,1.7-2.1c0.1-0.1,0.1-0.3,0-0.4c-0.1-0.2-0.3-0.2-0.6-0.2c-0.5,0-1.1,0.1-1.3,0.5c-0.1,0.2,0,0.5-0.1,0.8
									c-0.2,0.8-1.2,0.8-1.9,1.3c-0.3,0.2-0.4,0.4-0.7,0.6c-0.3,0.1-0.7,0.1-1,0.2c-0.1,0-0.1,0-0.2,0c-0.2,0.3-0.4,0.6-0.6,0.9
									s-0.4,0.6-0.5,0.9c-0.8,1.4-1.5,2.9-2,4.5c-0.2,0.5-0.3,1.1-0.5,1.7c-0.1,0.6-0.3,1.1-0.4,1.7c0.2-0.5,0.3-1,0.4-1.5
									C51.6,116.6,51.8,116,52.2,115.6z"/>
							</g>
						</g>
					</g>
				</g>
			</g>
			<g>
				<g>
					<g>
						<g>
							<g>
								<path class="st12" d="M97.5,122.1c0-0.3,0-0.7,0-1C97.4,121.4,97.5,121.7,97.5,122.1c0,0.1,0,0.2,0,0.3c0,0.5,0,1,0,1.5
									c0-0.5,0-1,0-1.5C97.5,122.3,97.5,122.2,97.5,122.1z"/>
							</g>
						</g>
					</g>
				</g>
			</g>
			<g>
				<g>
					<g>
						<g>
							<g>
								<path class="st12" d="M96,114.3c0.1,0.3,0.2,0.6,0.3,0.9C96.2,114.9,96.1,114.6,96,114.3L96,114.3L96,114.3L96,114.3
									L96,114.3z"/>
							</g>
						</g>
					</g>
				</g>
			</g>
			<g>
				<g>
					<g>
						<g>
							<g>
								<path class="st12" d="M97.5,122.1c0-0.3,0-0.7,0-1s0-0.7-0.1-1c0-0.3-0.1-0.5-0.1-0.8s-0.1-0.5-0.1-0.8
									c-0.1-0.8-0.3-1.6-0.5-2.4c-0.1-0.3-0.2-0.6-0.3-0.9c-0.1-0.3-0.2-0.6-0.3-0.9l0,0l0,0c-0.1-0.2-0.2-0.4-0.4-0.6
									c-1.3-2-3.2-3.6-4.6-5.6c-0.5-0.6-0.8-1.2-1.7-1.3c-1.2-0.2-1.8,0.5-2.7-0.6c-0.2-0.3-0.6-0.6-1-0.4
									c0.1,0.2,0.2,0.5,0.3,0.7c0,0.1,0,0.1,0,0.2c0,0.2-0.3,0.2-0.4,0.1s-0.2-0.3-0.3-0.4c-0.4-0.5-1.3-0.6-1.8-0.1
									c0-0.2-0.2-0.4-0.4-0.5c0,0.4-0.6,0.8-1,0.6c-0.1-0.2,0.3-0.3,0.5-0.5c0.1-0.2,0-0.4-0.2-0.6c-0.4-0.4-1-0.6-1.6-0.6
									c-0.4,0-0.8,0.1-1.1-0.1c-0.2-0.1-0.3-0.3-0.5-0.4c-0.4-0.2-0.9,0-1.3,0.2c-0.6,0.3-1.2,0.7-1.3,1.3
									c-0.2,0.6,0.2,1.4,0.9,1.4c0.2,0,0.3-0.1,0.5-0.1c0.2,0.1,0.3,0.3,0.4,0.6c0,0.2,0,0.5,0.1,0.7s0.4,0.3,0.6,0.1
									c0.3-0.3,0.3-0.8,0.2-1.2c-0.1-0.4-0.2-0.9,0.1-1.2c0.2-0.3,1-0.2,0.9,0.2c0,0.2-0.3,0.4-0.3,0.7c0,0.2,0.3,0.4,0.6,0.4
									c0.3,0,0.5-0.1,0.8,0c0.2,0.1,0.4,0.4,0.3,0.6c-0.3,0.3-1.1-0.2-1.3,0.2c0,0.1,0,0.2,0,0.4c0,0.4-0.5,0.5-0.8,0.5
									c-0.4,0-0.7,0.1-1.1-0.1c-0.3-0.2-0.6-0.6-0.4-0.9c-0.2-0.1-0.5,0-0.6,0.2s-0.1,0.4,0,0.7c-0.4-0.1-0.7,0.2-0.9,0.6
									c-0.2,0.3-0.4,0.7-0.8,0.8c-0.4,0.1-0.9,0-1.1,0.3c-0.3,0.4,0.5,1,0.2,1.4c-0.1,0.2-0.5,0.2-0.8,0.3c-0.7,0.2-1,1.3-0.5,1.9
									s1.5,0.5,2.1,0c0.4-0.4,0.5-0.9,0.8-1.4c0.3-0.4,0.8-0.9,1.3-0.7c0.2,0.1,0.4,0.2,0.5,0.3c0.2,0.2,0.5,0.4,0.7,0.6
									c0.2,0.1,0.3,0.3,0.3,0.5s-0.1,0.3-0.2,0.4c-0.2,0.4,0.5,0.9,0.9,0.6c0.4-0.2,0.5-0.9,0.2-1.2c-0.4-0.5-1.3-0.8-1.2-1.4
									c0.4-0.4,1.1,0,1.4,0.5s0.3,1.1,0.5,1.6s0.8,1,1.3,0.7c-0.1-0.5-0.3-0.9-0.4-1.4c0.3-0.2,0.7,0.5,1.1,0.3
									c0.2-0.1,0.3-0.4,0.2-0.6c-0.1-0.2-0.3-0.4-0.3-0.7c-0.1-0.4,0.4-0.8,0.9-0.8c0.5,0.1,0.8,0.5,0.9,0.9c0,0.2,0,0.4,0.1,0.5
									c0.2,0.4,0.6,0.5,1,0.6s0.7,0.5,0.6,0.9c-0.1,0.2-0.2,0.3-0.2,0.5c0.1,0.1,0.3,0.2,0.3,0.4c0,0.1-0.1,0.2-0.2,0.2
									c-0.2,0.1-0.5,0.1-0.7,0.2s-0.5,0.3-0.4,0.6c0,0.4,0.5,0.5,0.7,0.8s0.2,0.7,0.3,1c0.1,0.3,0.4,0.5,0.6,0.8
									c0.6,0.8,0.8,1.9,1.1,2.9c0.1,0.4,0.4,0.9,0.8,1c0.3,0,0.5-0.1,0.7-0.1c0.7-0.3,1.3-0.5,1.8-1.1c0.5-0.5,0.6-1.4,0.1-1.9
									c-0.1-0.1-0.1-0.1-0.2-0.1s-0.2,0.1-0.3,0.1c-0.3,0.2-0.8,0-1-0.2c-0.3-0.2-0.4-0.6-0.6-0.9c-0.2-0.4-0.4-0.7-0.5-1.1
									c0.2-0.2,0.6-0.1,0.8,0.1c0.2,0.2,0.4,0.4,0.5,0.7c0.6,0.7,1.5,1,2.3,1.1c0.2,0,0.5,0,0.7,0.1c0.7,0.3,0.8,1.3,1.5,1.5
									c0.2,0.1,0.4,0,0.6,0.1c0.3,0.1,0.4,0.4,0.5,0.7c0.2,0.5,0.2,1.1,0.4,1.6c0.2,0.5,0.7,1,1.2,1c0.4,0,0.7-0.2,0.9-0.4l0,0
									c0-0.5,0-1,0-1.5C97.5,122.3,97.5,122.2,97.5,122.1z"/>
							</g>
						</g>
					</g>
				</g>
			</g>
			<g>
				<g>
					<g>
						<g>
							<g>
								<path class="st12" d="M88.1,131.7c-0.3,0.1-0.4,0.3-0.6,0.5c-0.2,0.3-0.6,0.7-0.8,1c-0.4,0.6,0,1.4-0.5,1.9
									c-0.1,0.1-0.2,0.2-0.3,0.3c-0.2,0.2-0.1,0.6,0.1,0.8s0.6,0.2,0.9,0s0.4-0.4,0.5-0.7c0.1-0.2,0.1-0.4,0.3-0.6
									c0.3-0.2,0.7-0.1,1.1-0.1C90.3,134.5,89.6,131.4,88.1,131.7z"/>
							</g>
						</g>
					</g>
				</g>
			</g>
			<g class="st11">
				<g>
					<g>
						<g>
							<g>
								<path d="M97.4,120.1c0-0.3-0.1-0.5-0.1-0.8s-0.1-0.5-0.1-0.8c0,0.3,0.1,0.5,0.1,0.8S97.3,119.8,97.4,120.1z"/>
							</g>
						</g>
					</g>
				</g>
			</g>
			<g class="st11">
				<g>
					<g>
						<g>
							<g>
								<path class="st12" d="M68.5,105.3c-0.5,0.3-0.7,0.8-1.1,1.2c-0.4,0.4-1,0.7-1.4,0.4c-0.2-0.2-0.3-0.4-0.3-0.7
									c0-0.4,0.1-0.7,0.3-1.1c0.2-0.3,0.5-0.6,0.7-0.9s0.1-0.8-0.2-1c-0.2-0.1-0.4-0.1-0.6-0.2c-0.3-0.2-0.1-0.7,0.3-0.9
									c0.3-0.1,0.7,0,1.1,0c1.4,0.1,2.4-0.8,3.4-1.5c0.8-0.6,2.5-1.2,3.4-0.7c0.4,0.2,0.5,0.8,0.2,1.1c-0.2,0.1-0.4,0.1-0.5,0.3
									c-0.2,0.2-0.2,0.4-0.3,0.6c-0.3,0.5-1,0.7-1.2,1.3c-0.1,0.3-0.1,0.7-0.3,1c-0.2,0.2-0.5,0.3-0.8,0.4
									c-0.6,0.1-1.2,0.3-1.8,0.4C69,105.1,68.8,105.2,68.5,105.3z"/>
							</g>
						</g>
					</g>
				</g>
			</g>
			<g class="st11">
				<g>
					<g>
						<g>
							<g>
								<path class="st12" d="M84.3,133.8c-0.6,0.9-0.7,2-0.9,3c-0.2,1-0.4,2.1-1.2,2.8c-0.8,0.7-2.3,0.6-2.7-0.3
									c-0.2-0.5-0.1-1.1-0.2-1.7c-0.2-0.7-0.8-1.3-1-2c-0.2-0.6-0.2-1.2-0.3-1.9c-0.1-3.5-1-7.1-3.3-9.6c-0.3-0.3-0.6-0.6-1-0.7
									c-0.5-0.1-1.1,0.1-1.4,0.5c-0.2,0.2-0.3,0.6-0.5,0.8c-0.5,0.5-1.4,0.1-1.7-0.5c-0.3-0.6-0.3-1.3-0.2-2
									c0.1-0.8,0.1-1.7,0.2-2.5c0-0.4,0.1-0.9,0.4-1.2c0.4-0.5,1.2-0.5,1.7-0.9c0.7-0.5,0.8-1.4,1.2-2.1c0.4-0.7,1.7-1,1.9-0.2
									c1.4-2.9,4.5,1.4,6.3,1.1c0.5-0.1,1-0.3,1.6-0.3c0.9,0.1,1.4,1.2,1.8,2c0.5,1.5,1.1,2.9,1.6,4.4c0.2,0.6,0.5,1.2,1,1.4
									c0.4,0.2,0.9,0,1.4,0.2c1.1,0.4,0.8,2.2-0.1,3s-2.2,1.3-2.7,2.4c-0.3,0.8-0.1,1.8-0.4,2.7C85.2,132.8,84.7,133.2,84.3,133.8
									z"/>
							</g>
						</g>
					</g>
				</g>
			</g>
			<g class="st11">
				<g>
					<g>
						<g>
							<g>
								<path class="st12" d="M50.8,122c0,0.1,0,0.3,0,0.4s0,0.2,0,0.3c0-0.1,0-0.2,0-0.3C50.7,122.2,50.7,122.1,50.8,122z"/>
							</g>
						</g>
					</g>
				</g>
			</g>
			<g class="st11">
				<g>
					<g>
						<g>
							<g>
								<path class="st12" d="M61.1,141.6c0.2,0.1,0.4,0.3,0.6,0.4c0.1,0.1,0.3,0.2,0.4,0.3c-0.1-0.1-0.3-0.2-0.4-0.3
									C61.5,141.8,61.3,141.7,61.1,141.6z"/>
							</g>
						</g>
					</g>
				</g>
			</g>
			<g class="st11">
				<g>
					<g>
						<g>
							<g>
								<path class="st12" d="M50.8,121.4L50.8,121.4L50.8,121.4L50.8,121.4L50.8,121.4L50.8,121.4c0,0.2,0,0.4,0,0.5
									C50.8,121.8,50.8,121.6,50.8,121.4C50.8,121.5,50.8,121.5,50.8,121.4z"/>
							</g>
						</g>
					</g>
				</g>
			</g>
			<g class="st11">
				<g>
					<g>
						<g>
							<g>
								<path class="st12" d="M50.7,122.7c0,0.1,0,0.2,0,0.3l0,0l0,0C50.8,122.9,50.8,122.8,50.7,122.7z"/>
							</g>
						</g>
					</g>
				</g>
			</g>
			<g class="st11">
				<path class="st12" d="M65.5,132.5c0.1-1,0.9-2,0.5-3c-0.5-1-2-0.9-3.1-1.3c-1.5-0.6-1.9-2.4-2.9-3.7c-0.9-1.1-2.9-2.4-4.4-2.1
					c-1.1,0.2-1.5,0.9-1.6,1.7h-0.1c-0.4,0-0.9-0.1-1.1-0.4c-0.3-0.4,0-1-0.3-1.4c-0.1-0.2-0.4-0.3-0.6-0.4
					c-0.2-0.1-0.4-0.4-0.2-0.6c0.1-0.2,0.4-0.2,0.5-0.4c0.1-0.1,0.1-0.3,0-0.5c-0.4-0.5-0.9,0.5-1.1,0.7c-0.1,0.1-0.1,0.1-0.2,0.2
					l0,0v0.1c0,0.1,0,0.3,0,0.4s0,0.3,0,0.4s0,0.2,0,0.3c0,0.1,0,0.2,0,0.3c0,0.1,0,0.1,0,0.2c0.1,2.6,0.6,5,1.5,7.3
					c0.4,1,0.9,2.1,1.4,3c0.2,0.4,0.5,0.8,0.7,1.2c0.3,0.5,0.7,1,1,1.5s0.7,0.9,1.1,1.3c0.5,0.6,1.1,1.1,1.7,1.7
					c0.5,0.5,1.1,0.9,1.6,1.4l0,0c0.2,0.2,0.5,0.4,0.7,0.5s0.4,0.3,0.6,0.4c0.2,0.1,0.4,0.3,0.6,0.4c0.1,0.1,0.3,0.2,0.4,0.3
					c0,0,0-0.1-0.1-0.1c-0.5-1.1-0.5-2.7,0.6-3.3c0.2-0.1,0.5-0.2,0.6-0.3c0.5-0.5,0.1-1.4,0.6-1.9c0.3-0.3,0.7-0.2,1.1-0.4
					c0.6-0.3,0.8-1.1,0.8-1.7C65.6,133.8,65.4,133.1,65.5,132.5z M52.5,124.5c0,0.1,0,0.2,0,0.2S52.5,124.6,52.5,124.5z"/>
			</g>
			<g class="st11">
				<g>
					<g>
						<g>
							<g>
								<path class="st12" d="M52.2,115.6c0.4-0.4,1.2-0.4,1.5,0c0.2,0.3,0.2,0.8,0.1,1.2c-0.1,0.5-0.2,1.1-0.3,1.6
									c0,0.2,0,0.3,0,0.5c0.2,0.3,0.7,0.3,1,0c0.2-0.3,0.2-0.7,0.1-1.1c-0.1-0.4-0.1-0.8,0-1.1c0.4-0.9,1.7-0.7,2.4-1.3
									c0.5-0.4,0.7-0.9,1-1.5c0.3-0.5,0.8-1,1.3-1c0.2,0,0.4,0.1,0.6,0.1c0.6,0,0.9-0.9,0.5-1.3c-0.1-0.1-0.2-0.2-0.3-0.3
									c-0.1-0.2,0-0.4,0.2-0.6c0.2-0.1,0.4-0.2,0.6-0.2c0.5-0.1,1-0.2,1.5-0.2c0.6-0.1,1.3-0.4,1.2-0.9s-0.7-0.7-0.8-1.2
									c0-0.1,0-0.2-0.1-0.3c-0.2-0.3-0.6-0.2-0.9,0c-0.1-0.4-0.7-0.6-1.1-0.3c-0.3,0.2-0.3,0.7-0.4,1c-0.2,0.9-1,1.5-1.6,2.2
									c-0.2,0.2-0.5,0.4-0.8,0.4s-0.6-0.3-0.5-0.6c0.1-0.2,0.4-0.3,0.3-0.5c0-0.3-0.5-0.2-0.6-0.5c0.2-0.7,1-1,1.7-1.4
									c0.8-0.5,1.4-1.2,1.7-2.1c0.1-0.1,0.1-0.3,0-0.4c-0.1-0.2-0.3-0.2-0.6-0.2c-0.5,0-1.1,0.1-1.3,0.5c-0.1,0.2,0,0.5-0.1,0.8
									c-0.2,0.8-1.2,0.8-1.9,1.3c-0.3,0.2-0.4,0.4-0.7,0.6c-0.3,0.1-0.7,0.1-1,0.2c-0.1,0-0.1,0-0.2,0c-0.2,0.3-0.4,0.6-0.6,0.9
									s-0.4,0.6-0.5,0.9c-0.8,1.4-1.5,2.9-2,4.5c-0.2,0.5-0.3,1.1-0.5,1.7c-0.1,0.6-0.3,1.1-0.4,1.7c0.2-0.5,0.3-1,0.4-1.5
									C51.6,116.6,51.8,116,52.2,115.6z"/>
							</g>
						</g>
					</g>
				</g>
			</g>
			<g class="st11">
				<g>
					<g>
						<g>
							<g>
								<path class="st12" d="M97.5,122.1c0-0.3,0-0.7,0-1C97.4,121.4,97.5,121.7,97.5,122.1c0,0.1,0,0.2,0,0.3c0,0.5,0,1,0,1.5
									c0-0.5,0-1,0-1.5C97.5,122.3,97.5,122.2,97.5,122.1z"/>
							</g>
						</g>
					</g>
				</g>
			</g>
			<g class="st11">
				<g>
					<g>
						<g>
							<g>
								<path d="M96,114.3c0.1,0.3,0.2,0.6,0.3,0.9C96.2,114.9,96.1,114.6,96,114.3L96,114.3L96,114.3L96,114.3L96,114.3z"/>
							</g>
						</g>
					</g>
				</g>
			</g>
			<g class="st11">
				<g>
					<g>
						<g>
							<g>
								<path class="st12" d="M97.5,122.1c0-0.3,0-0.7,0-1s0-0.7-0.1-1c0-0.3-0.1-0.5-0.1-0.8s-0.1-0.5-0.1-0.8
									c-0.1-0.8-0.3-1.6-0.5-2.4c-0.1-0.3-0.2-0.6-0.3-0.9c-0.1-0.3-0.2-0.6-0.3-0.9l0,0l0,0c-0.1-0.2-0.2-0.4-0.4-0.6
									c-1.3-2-3.2-3.6-4.6-5.6c-0.5-0.6-0.8-1.2-1.7-1.3c-1.2-0.2-1.8,0.5-2.7-0.6c-0.2-0.3-0.6-0.6-1-0.4
									c0.1,0.2,0.2,0.5,0.3,0.7c0,0.1,0,0.1,0,0.2c0,0.2-0.3,0.2-0.4,0.1s-0.2-0.3-0.3-0.4c-0.4-0.5-1.3-0.6-1.8-0.1
									c0-0.2-0.2-0.4-0.4-0.5c0,0.4-0.6,0.8-1,0.6c-0.1-0.2,0.3-0.3,0.5-0.5c0.1-0.2,0-0.4-0.2-0.6c-0.4-0.4-1-0.6-1.6-0.6
									c-0.4,0-0.8,0.1-1.1-0.1c-0.2-0.1-0.3-0.3-0.5-0.4c-0.4-0.2-0.9,0-1.3,0.2c-0.6,0.3-1.2,0.7-1.3,1.3
									c-0.2,0.6,0.2,1.4,0.9,1.4c0.2,0,0.3-0.1,0.5-0.1c0.2,0.1,0.3,0.3,0.4,0.6c0,0.2,0,0.5,0.1,0.7s0.4,0.3,0.6,0.1
									c0.3-0.3,0.3-0.8,0.2-1.2c-0.1-0.4-0.2-0.9,0.1-1.2c0.2-0.3,1-0.2,0.9,0.2c0,0.2-0.3,0.4-0.3,0.7c0,0.2,0.3,0.4,0.6,0.4
									c0.3,0,0.5-0.1,0.8,0c0.2,0.1,0.4,0.4,0.3,0.6c-0.3,0.3-1.1-0.2-1.3,0.2c0,0.1,0,0.2,0,0.4c0,0.4-0.5,0.5-0.8,0.5
									c-0.4,0-0.7,0.1-1.1-0.1c-0.3-0.2-0.6-0.6-0.4-0.9c-0.2-0.1-0.5,0-0.6,0.2s-0.1,0.4,0,0.7c-0.4-0.1-0.7,0.2-0.9,0.6
									c-0.2,0.3-0.4,0.7-0.8,0.8c-0.4,0.1-0.9,0-1.1,0.3c-0.3,0.4,0.5,1,0.2,1.4c-0.1,0.2-0.5,0.2-0.8,0.3c-0.7,0.2-1,1.3-0.5,1.9
									s1.5,0.5,2.1,0c0.4-0.4,0.5-0.9,0.8-1.4c0.3-0.4,0.8-0.9,1.3-0.7c0.2,0.1,0.4,0.2,0.5,0.3c0.2,0.2,0.5,0.4,0.7,0.6
									c0.2,0.1,0.3,0.3,0.3,0.5s-0.1,0.3-0.2,0.4c-0.2,0.4,0.5,0.9,0.9,0.6c0.4-0.2,0.5-0.9,0.2-1.2c-0.4-0.5-1.3-0.8-1.2-1.4
									c0.4-0.4,1.1,0,1.4,0.5s0.3,1.1,0.5,1.6s0.8,1,1.3,0.7c-0.1-0.5-0.3-0.9-0.4-1.4c0.3-0.2,0.7,0.5,1.1,0.3
									c0.2-0.1,0.3-0.4,0.2-0.6c-0.1-0.2-0.3-0.4-0.3-0.7c-0.1-0.4,0.4-0.8,0.9-0.8c0.5,0.1,0.8,0.5,0.9,0.9c0,0.2,0,0.4,0.1,0.5
									c0.2,0.4,0.6,0.5,1,0.6s0.7,0.5,0.6,0.9c-0.1,0.2-0.2,0.3-0.2,0.5c0.1,0.1,0.3,0.2,0.3,0.4c0,0.1-0.1,0.2-0.2,0.2
									c-0.2,0.1-0.5,0.1-0.7,0.2s-0.5,0.3-0.4,0.6c0,0.4,0.5,0.5,0.7,0.8s0.2,0.7,0.3,1c0.1,0.3,0.4,0.5,0.6,0.8
									c0.6,0.8,0.8,1.9,1.1,2.9c0.1,0.4,0.4,0.9,0.8,1c0.3,0,0.5-0.1,0.7-0.1c0.7-0.3,1.3-0.5,1.8-1.1c0.5-0.5,0.6-1.4,0.1-1.9
									c-0.1-0.1-0.1-0.1-0.2-0.1s-0.2,0.1-0.3,0.1c-0.3,0.2-0.8,0-1-0.2c-0.3-0.2-0.4-0.6-0.6-0.9c-0.2-0.4-0.4-0.7-0.5-1.1
									c0.2-0.2,0.6-0.1,0.8,0.1c0.2,0.2,0.4,0.4,0.5,0.7c0.6,0.7,1.5,1,2.3,1.1c0.2,0,0.5,0,0.7,0.1c0.7,0.3,0.8,1.3,1.5,1.5
									c0.2,0.1,0.4,0,0.6,0.1c0.3,0.1,0.4,0.4,0.5,0.7c0.2,0.5,0.2,1.1,0.4,1.6c0.2,0.5,0.7,1,1.2,1c0.4,0,0.7-0.2,0.9-0.4l0,0
									c0-0.5,0-1,0-1.5C97.5,122.3,97.5,122.2,97.5,122.1z"/>
							</g>
						</g>
					</g>
				</g>
			</g>
		</g>
		<g>
			<g>
				<g>
					<g>
						<rect x="72.6" y="147.2" class="st2" width="3" height="10.6"/>
					</g>
				</g>
			</g>
		</g>
		<g>
			<g>
				<g>
					<g>
						<path class="st2" d="M74.1,147.8C59.7,147.8,48,136.3,48,122c0-9.4,5.1-18,13.4-22.6l0.3-0.2l1.7,2.4l-0.6,0.4l-1.4-1.9
							c-7.9,4.5-12.8,12.8-12.8,21.8c0,13.8,11.4,25.1,25.3,25.1c5.8,0,11.4-2,15.9-5.5l-1.1-1l0.5-0.5l1.6,1.6l-0.3,0.3
							C86.1,145.7,80.2,147.8,74.1,147.8z"/>
					</g>
				</g>
			</g>
		</g>
		<g>
			<g>
				<g>
					<g>
						<rect x="62.1" y="157.7" class="st2" width="23.1" height="1.8"/>
					</g>
				</g>
			</g>
		</g>
	</g>
</g>
<g id="Floor">
	<g>
		<path class="st2" d="M291.8,264.5c0,0.1-65.3,0.2-145.8,0.2S0,264.6,0,264.5s65.3-0.2,146-0.2
			C226.4,264.4,291.8,264.4,291.8,264.5z"/>
	</g>
</g>
<g id="Speech_Bubble">
	<g>
		<g>
			<g>
				<g>
					<g>
						<g>
							<g>
								<g>
									<path class="st3" d="M152.2,43.7l-4.4-6.9c1.9-2.8,3-6.1,3-9.6c0-10.1-9.2-18.4-20.7-18.4c-11.3,0-20.7,8.2-20.7,18.4
										c0,10.1,9.2,18.4,20.7,18.4c4.7,0,9.1-1.4,12.6-3.8l0,0L152.2,43.7z"/>
								</g>
							</g>
						</g>
						<g>
							<g>
								<g>
									<g>
										<path class="st2" d="M152.2,43.7c-0.4-0.1-3.4-0.7-9.3-1.9h-0.1l0.1-0.1l0,0l0.1,0.1c-1.1,0.8-2.6,1.6-4.3,2.3
											s-3.6,1.2-5.6,1.4c-1,0.1-2.1,0.2-3.3,0.1c-0.6,0-1.1,0-1.7-0.1c-0.6-0.1-1.1-0.2-1.8-0.2c-2.4-0.4-4.7-1.2-7-2.4
											c-2.2-1.2-4.3-2.9-6-4.9s-2.9-4.5-3.5-7.1s-0.6-5.4,0.2-8.2c0.8-2.7,2.2-5.4,4.4-7.6l0.8-0.8c0.2-0.3,0.6-0.5,0.9-0.8
											c0.3-0.2,0.6-0.5,0.9-0.7l1-0.7c0.3-0.2,0.7-0.4,1-0.6c0.3-0.2,0.7-0.4,1-0.6c0.3-0.2,0.8-0.3,1.1-0.5s0.7-0.3,1.1-0.4
											c3-1.1,6.2-1.5,9.2-1.3s6,1,8.5,2.2c2.5,1.2,4.6,2.9,6.3,4.8s2.8,3.9,3.5,6s0.9,4.1,0.9,6c-0.1,1.9-0.4,3.6-1,5.2
											c-0.6,1.5-1.3,2.8-2,4v-0.1C150.7,41.2,152,43.3,152.2,43.7c-0.2-0.3-1.6-2.5-4.4-6.8l0,0l0,0c0.8-1.1,1.5-2.4,2-3.9
											c0.6-1.5,0.9-3.2,1-5.1c0-1.9-0.2-3.9-0.9-5.9s-1.9-4-3.5-5.9c-1.6-1.8-3.7-3.5-6.2-4.7s-5.4-2-8.4-2.2s-6.2,0.2-9.1,1.3
											c-0.3,0.1-0.7,0.3-1.1,0.4c-0.3,0.2-0.7,0.3-1.1,0.5c-0.3,0.2-0.7,0.4-1,0.6c-0.3,0.2-0.7,0.4-1,0.6l-1,0.7
											c-0.3,0.2-0.6,0.5-0.9,0.7c-0.3,0.3-0.7,0.5-0.9,0.8l-0.8,0.8c-2.1,2.2-3.6,4.8-4.4,7.5c-0.8,2.7-0.8,5.5-0.2,8.1
											s1.8,5,3.5,7s3.7,3.7,5.8,4.9c2.2,1.2,4.6,2,6.9,2.4c0.6,0.1,1.1,0.2,1.7,0.2s1.1,0.1,1.7,0.1c1.1,0.1,2.2,0,3.3-0.1
											c2.1-0.2,3.9-0.8,5.6-1.4c1.7-0.7,3-1.4,4.3-2.2l0.3-0.3l-0.3,0.3l0,0V42C148.9,42.9,151.8,43.6,152.2,43.7z"/>
									</g>
								</g>
							</g>
						</g>
					</g>
				</g>
			</g>
		</g>
		<g>
			<g>
				<g>
					<g>
						<g>
							<g>
								<path class="st2" d="M124.5,27.2c0,1-0.9,1.9-2.1,1.9c-1.1,0-2.1-0.8-2.1-1.9c0-1,0.9-1.9,2.1-1.9
									C123.5,25.3,124.5,26.1,124.5,27.2z"/>
							</g>
						</g>
					</g>
				</g>
			</g>
			<g>
				<g>
					<g>
						<g>
							<g>
								<path class="st2" d="M132.8,27.2c0,1-0.9,1.9-2.1,1.9c-1.1,0-2.1-0.8-2.1-1.9c0-1,0.9-1.9,2.1-1.9
									C131.9,25.3,132.8,26.1,132.8,27.2z"/>
							</g>
						</g>
					</g>
				</g>
			</g>
			<g>
				<g>
					<g>
						<g>
							<g>
								<path class="st2" d="M141.2,26.2c0.6,0.9,0.2,2-0.8,2.5s-2.2,0.2-2.8-0.7c-0.6-0.9-0.2-2,0.8-2.5
									C139.3,25,140.7,25.4,141.2,26.2z"/>
							</g>
						</g>
					</g>
				</g>
			</g>
		</g>
	</g>
</g>
</svg>
