<?xml version="1.0" encoding="utf-8"?>
<!-- Generator: Adobe Illustrator 25.1.0, SVG Export Plug-In . SVG Version: 6.00 Build 0)  -->
<svg version="1.1" id="Layer_1" xmlns="http://www.w3.org/2000/svg" xmlns:xlink="http://www.w3.org/1999/xlink" x="0px" y="0px"
	 viewBox="0 0 300 265" style="enable-background:new 0 0 300 265;" xml:space="preserve">
<style type="text/css">
	.st0{fill-rule:evenodd;clip-rule:evenodd;fill:#B9E3F9;}
	.st1{fill-rule:evenodd;clip-rule:evenodd;fill:#7FD58C;}
	.st2{fill-rule:evenodd;clip-rule:evenodd;fill:#3AB54A;}
	.st3{fill-rule:evenodd;clip-rule:evenodd;fill:#732500;}
	.st4{fill-rule:evenodd;clip-rule:evenodd;fill:#734300;}
	.st5{fill-rule:evenodd;clip-rule:evenodd;fill:#E7FBFF;}
	.st6{fill-rule:evenodd;clip-rule:evenodd;fill:#BEEFFD;}
	.st7{fill-rule:evenodd;clip-rule:evenodd;fill:#61AE48;}
	.st8{fill-rule:evenodd;clip-rule:evenodd;fill:#336699;}
	.st9{fill-rule:evenodd;clip-rule:evenodd;fill:#467BB0;}
	.st10{fill-rule:evenodd;clip-rule:evenodd;fill:#8FC266;}
	.st11{fill-rule:evenodd;clip-rule:evenodd;fill:#74B6CC;}
	.st12{fill-rule:evenodd;clip-rule:evenodd;fill:#61628C;}
	.st13{fill-rule:evenodd;clip-rule:evenodd;fill:#FF4C2D;}
	.st14{fill-rule:evenodd;clip-rule:evenodd;fill:#CB3C23;}
	.st15{fill-rule:evenodd;clip-rule:evenodd;fill:#C5EEF0;}
	.st16{fill-rule:evenodd;clip-rule:evenodd;fill:#4C4D6C;}
	.st17{fill-rule:evenodd;clip-rule:evenodd;fill:#E9E7E8;}
	.st18{fill-rule:evenodd;clip-rule:evenodd;fill:#CCCCCC;}
	.st19{fill-rule:evenodd;clip-rule:evenodd;fill:#C9C6D1;}
	.st20{fill-rule:evenodd;clip-rule:evenodd;fill:#FBC9A6;}
	.st21{fill-rule:evenodd;clip-rule:evenodd;fill:#CEFFFF;}
	.st22{fill-rule:evenodd;clip-rule:evenodd;fill:#C64732;}
	.st23{fill-rule:evenodd;clip-rule:evenodd;fill:#663333;}
	.st24{fill-rule:evenodd;clip-rule:evenodd;fill:#333333;}
	.st25{fill-rule:evenodd;clip-rule:evenodd;fill:#784040;}
	.st26{fill-rule:evenodd;clip-rule:evenodd;fill:#666666;}
	.st27{fill-rule:evenodd;clip-rule:evenodd;fill:#CEB690;}
	.st28{fill-rule:evenodd;clip-rule:evenodd;fill:#B39A72;}
	.st29{fill:#E79F79;}
	.st30{fill-rule:evenodd;clip-rule:evenodd;fill:#174160;}
	.st31{fill:#836B45;}
	.st32{fill-rule:evenodd;clip-rule:evenodd;fill:#575425;}
	.st33{fill-rule:evenodd;clip-rule:evenodd;fill:#423B32;}
	.st34{fill-rule:evenodd;clip-rule:evenodd;fill:#FFFFFF;}
	.st35{fill-rule:evenodd;clip-rule:evenodd;fill:#AFD2E7;}
	.st36{fill-rule:evenodd;clip-rule:evenodd;fill:#B3B3B3;}
	.st37{fill-rule:evenodd;clip-rule:evenodd;fill:#4D4D4D;}
	.st38{fill-rule:evenodd;clip-rule:evenodd;fill:#808080;}
	.st39{fill-rule:evenodd;clip-rule:evenodd;fill:#D0E9F8;}
	.st40{fill-rule:evenodd;clip-rule:evenodd;fill:#BF4951;}
	.st41{fill-rule:evenodd;clip-rule:evenodd;fill:#97882D;}
	.st42{fill-rule:evenodd;clip-rule:evenodd;fill:#CE4C2D;}
	.st43{fill-rule:evenodd;clip-rule:evenodd;fill:#B2EDFD;}
	.st44{fill-rule:evenodd;clip-rule:evenodd;fill:#8BCBE0;}
	.st45{fill-rule:evenodd;clip-rule:evenodd;fill:#AC3521;}
	.st46{fill-rule:evenodd;clip-rule:evenodd;fill:#CC563B;}
	.st47{fill-rule:evenodd;clip-rule:evenodd;fill:#A3327E;}
	.st48{fill-rule:evenodd;clip-rule:evenodd;fill:#86A1B8;}
	.st49{fill-rule:evenodd;clip-rule:evenodd;fill:#F0C09E;}
	.st50{fill-rule:evenodd;clip-rule:evenodd;fill:#3F526E;}
	.st51{fill-rule:evenodd;clip-rule:evenodd;fill:#5C3F24;}
	.st52{fill-rule:evenodd;clip-rule:evenodd;fill:#E79F79;}
	.st53{fill-rule:evenodd;clip-rule:evenodd;fill:#825D3C;}
	.st54{fill-rule:evenodd;clip-rule:evenodd;fill:#9661AF;}
	.st55{fill-rule:evenodd;clip-rule:evenodd;fill:#C4FFFF;}
	.st56{fill-rule:evenodd;clip-rule:evenodd;fill:#7956C0;}
	.st57{fill-rule:evenodd;clip-rule:evenodd;fill:#D15A62;}
</style>
<path class="st0" d="M104.8,39.8c0.8,2.6,5.2-1.9,8.2-0.4c-1.5,0.5-1.9,0.2-3.4,1.2c-2.2,1.3-3.3,1.5-5.3,3.2
	c-1.3,1.2-0.9,0.2-2.3,0.1c0,0.1,0,0.1,0,0.2v0.5c0,1.2,0.2-0.4,0,0.4c-3.1,1.4-1.9,0.5-2.2-1.7c-1.7-0.2-1.2,0.2-2.6,0.8
	c0.6,2.2,1.8,0.1,0.9,2l1.7,0.4c-1.7,1.8-1.1,0-1.5,3.1c-0.5,3.4-1.9,0.6-1.8,4.5c0,1.7-0.5,2.5-2.7,3.6c-0.4-2.3,0.4-0.8,0.4-2.5
	c-1.4,1.1-0.9,1.1-1.3,2.7c-0.2,0.9-1.2,1.8-1.7,2.7l-0.8-1.2c-0.4,1.1-0.2,1.4-1.2,1.9c-0.6-1.7-0.6-1.8-0.2-3.3
	c-0.6-1.1-0.9-0.1-0.6-0.8c0.2-0.8,1.9-1.2,3.4-2.3c1.9-1.5,2.8-1.4,3.3-4.5l-0.8-0.2c-0.4-0.2-0.1,0.2-0.4-0.4
	c-0.2-0.9,1.1-1.7,1.7-2.3c0.8-0.8,0.5-0.1,0.6-0.9c-0.6,0.5-2.7,1.9-3.2,2.5c-2.3,2.7,2.8-0.1-0.8,2.8c-1.7,1.3-1.1,1.7-3.3,2.6
	c-1.5,0.5-1.8,1.8-2.2,3.1l-1.8,0.1c0-0.6,0.4-0.4,0.8-1.5c-1.9,0.6-3.8,2.5-5.2,3.8c-1.8,1.5-1.7,1.7-2.9,3.2
	c-1.1,1.3-1.1,2.3-1.5,4c-0.6,2,0.4,1.3-0.8,3.1c-1.1,1.5-2.3,3.2-2.3,5.3c1.1-0.4,0.5,0,1.2-1.1c0.1-0.2,0.4-0.8,0.6-1.1
	c1.9-3.6,3.4-3.4,5.2-5.8c0.5-0.8,0.6-1.7,1.2-2.5c0.5-0.9,1.2-1.1,1.8-1.8c0.5-0.5,2.7-5.2,3.6-2.7c0.4,1.1,0.4,1.9-0.1,2.6
	c-1.2,1.5-1.2,0.9-1.3,3.3c1.8-0.5,1.4-1.3,2.9-2.2c-0.2,3.2-1.9,5.5-1.9,5.8c-0.2,2,0.8,2,0.8,3.4c0,0.2-0.1-0.1,0,0.6
	c0.1,0.5,0.2,0.5,0.6,1.2l-1.3,2.5c0,0,0,0.1-0.1,0.2L85.3,81c-0.1,0.5-0.1,0.2-0.2,1.1l1.3,0.5c0,0.6,0,0.8-0.1,1.5
	c-0.1,1.5,0.2,0.8-0.6,3.1c-1.8-0.1-0.6-0.6-2.3-0.1c0-1.2,0-0.1,0.2-0.8c0.1-0.2,0.2,0.2,0.2-0.4c0-0.1,0.1-0.1,0.1-0.2
	c-1.1,0.1-1.9,0-2.8-0.5c0.4-0.9,0.8-0.9,1.2-1.7c0.4-0.6,0.2-0.9,0.8-1.5c0.2-0.5,0.8-0.9,1.2-1.4c0.1-0.2,0.4-0.4,0.5-0.6
	c0,0,0.1-0.1,0.1-0.2s0.1-0.1,0.1-0.2c0,0,0.1-0.1,0.1-0.2s0.1-0.1,0.1-0.2c-2.5,0.9-2.3,1.9-5.3,1.3c-0.9-0.2-1.4-0.5-2.2,0
	c-0.1,0-1.8,1.4-1.9,1.5C76,82,75.9,82,76.5,82l1.5,0.2c-0.1,1.7,0,0.2-0.6,1.3l-0.8,2.6c0,3.8,2.8,0.2,3.1,0c0.1,1.2-0.1,1.5-0.6,2
	c-1.8,1.7-2.2,1.3-3.6,2c-1.1,0.5-0.2,0.8-1.5,0.9c-0.6-2.6,2.5-1.2,2.3-3.4c-1.5,0.9-3.1,1.3-4.6,2.3c-2,1.3-1.5,2.3-1.9,4
	c-2.6,0.9-2.3-0.1-4.4,3.3c-0.4,0.6-0.2,0.9-0.9,1.7c-1.7,2.2-0.5,1.2-1.2,3.8c-0.6,2.7-4.7,2.3-5.4,9.4c-0.1,1.5-0.2,2.9-0.4,4.2
	c-0.2,1.7,0.1,2.9-0.8,3.9c-1.1-4,0.9-6.8,0.5-9.5c0-0.4-0.5-2.8-0.6-3.3c-0.4,0.5-0.2,0.1-0.4,1.1c-0.6-1.8-0.2-0.6-0.8-1.2
	l-0.9,4.7c0,0,0,0.1-0.1,0.2v0.2c0.4,2.8-1.1,7.1-0.4,9.5c0.6,2.7-0.5,6.2-0.2,9.2c0.2,2,1.2,2.6,1.2,5.4c0.1,4.8,0.2,10.2,3.4,13.6
	c0.6-0.9,0.5-0.9,0.4-2.2c1.2-0.4,0.9-0.1,2-0.8c0.6,1.7-0.2,0.4,0.4,2.5c1.7-0.4,0.1-0.6,1.1-0.5c0.9,1.9,0.9,2.6,2.3,3.8
	c2.5,1.8,0.6,1.1,3.4,1.5c1.7,3.3,1.2,1.3,2,3.2c0.6,1.3,0.2,0.9,1.1,1.8c0.4,0.5,0.8,0.8,1.1,1.3c1.1,1.4,0.8,2,2,3.3
	c0.9,0.9,1.3,1.3,2.6,1.8c3.2,1.4,3.1,1.3,5.3,3.9l3.9,6.5c-0.4,1.2-0.5,0.4-0.6,1.8c1.9,1.5,2.6-0.5,3.8,2.7c1.9-1.3,2-0.1,3.8,0.8
	c1.4,0.8,2.3,0.9,2.7,3.3c3.4-0.9,1.3-0.5,4,0.1c3.4,0.9,2.8-0.2,6.5,2.3c5.3,3.9,4.4,0.6,5.9,3.2c2.6,4.5,1.3,4.7-0.4,7.1
	c-0.6,0.8-0.2,0.8-0.8,1.7c-0.8,1.1-0.4,0.1-1.1,0.8c1.1,4.4,2.7,4,1.5,9.6c-2.2,0.5-4.4-0.5-6.6,0.9c0.4,0.9,1.1,1.1,1.7,1.9
	c-0.8,1.2-0.2,1.3-1.2,1.7c5.1,2.8,13.5,5.5,20.1,6.6c7.8,1.3,15.4,1.8,23.9,0.5c18.6-2.8,32.4-10.7,44.7-22c-1.2-0.5,0,0-0.8-0.4
	c0.4-0.9,0.6-0.6,0.8-1.3c0.1-0.8-0.2-0.8-0.4-1.3c-1.2-2.3,0.6-3.9-0.4-5.6c-0.5-0.8-1.2-1.7-1.3-2.6c-0.2-1.3,0.8-4.4,1.1-5.6
	c0.5-1.8,2-3.1,1.9-4.8c-0.1-1.5-0.5-1.1-0.6-3.2c0-1.4-0.5-1.8-1.1-3.1c-1.2-2.7-1.4-2.8-3.6-3.8c-3.8-1.5-0.2-4.5-1.9-11.3
	c-4-1.1-4.2,2.3-6.2,1.8c-1.1-0.5-0.8-2.2-2.5-2.2c-2.6-0.1-4.7,2.2-6.6,3.4c-1.3,0.9-1.4,1.4-2.6,2.3c-2.5,1.9-4.5,0.9-7.2,2.6
	c-2.6,1.5-3.2,2.8-6.5,2.2c-1.7-0.4-1.5-0.9-2.8-1.3c-1.1-0.4-1.9-0.5-3.1-0.9c-1.4-0.6-1.7-0.1-2.7-1.7c-2.3-3.4-1.4-2.8-4.7-4.5
	c-1.8-0.9-0.2-1.4-2.3-2.2c-1.4-0.5-1.5-0.8-1.8-2.6c-0.1-1.3-1.2-2-1.8-2.6c1.2-2.6,1.3-3.2,1.1-6.9c0-1.1-0.2-2.9-0.5-4.1
	c-0.4-1.3-1.2-1.9-2-2.3c0.4-1.9,0.6-3.3,1.1-5.1c0.6-2.9,1.2-2.7,1.5-4.5c0.4-1.9,1.1-3.1,1.4-4.7c0.9-3.4,0.8-1.5,2.8-3.6
	c0.5-0.5,2.2-3.3,2.2-4.2c0-1.5-0.5-0.8-0.5-2.6c0.1-3.3,0.8-4.2,2.8-6.5c1.1-1.1,0.4-2.7,1.2-4.6c0.9-0.1,3.9,1.1,6.6-0.9
	c2.3-1.7,1.8-2.8,4.4-4.2c1.2-0.6,1.9-1.4,3.2-1.7c0.9-0.1,0.8,0.1,1.4-0.2c0.6-0.4,0.2-0.5,1.2-0.9c1.7-0.9,1.4,0.1,3.1-1.5
	c0.6-0.6-0.5-0.1,0.6-0.5c0.6-0.1,0.5,0,0.6,0c0.8,0.1,0.1,0.8,1.2,0c0.5,3.1,0.1,0.9,1.5,2.8c0.1,1.8-0.6,1.7-0.1,2.9
	c1.7,1.3,3.1,0.5,5.2,0.1c2.8-0.5,2.6,0.1,4,1.5c2.3-0.5,3.4,0.2,4.8-0.1c0.4-3.4-1.2-2.3-0.8-4.6c0.2-1.5,1.5-2.3,3.1-1.8
	c1.8,0.5,2.6,0.1,4.6-0.4c2.3-0.5,2.6-0.9,2.9-2.8c1.4-0.5,2.8,0,2.7-1.9c0-0.4,0-0.4-0.1-0.8c-0.1-0.4-0.4-1.2-0.5-1.5
	c-0.8-2.3-1.7-4.4-3.2-6c-0.6-0.6,0-0.5-0.8-0.6c-0.5,0.6-0.5,1.2-0.6,2c-1.5,0.5-1.1-0.1-2.7,0.2l-0.4,1.5
	c-4.5,0.1-3.3-1.7-5.5-1.2c0.1-0.8,0.1-0.5,0.2-1.3c-1.5-0.6-1.3-1.5-2.3-2.8c-2,0.1-2.5,0.2-1.5,2l-1.3,0.5c1.5,1.7,1.8,1.3,3.6,2
	c0.2,2-0.6,0.6-0.2,2.2c0.4,1.3,0.6,0.5,0.5,1.8c-1.9-0.1-2.5-1.8-4-2.8c-1.5-0.9,1.3,0.6-0.4-0.2l-2.5-1.7
	c-0.5-0.6-1.1-1.8-1.5-2.5c-1.8-1.8-5.5-0.4-9.4-2.9c-0.8-0.5-0.8-0.5-1.4,0.1c0.9,1.7,0.9,1.8,2.5,2.6c1.1,0.5,1.9,1.4,2.9,1.7
	c0.8,0.2,1.1,0,1.9,0.2c1.2,0.2,4.1,0.6,4.4,2c-0.9,0.1-0.8-0.4-1.8,0.2c0.2,1.4,0.1,0.6,1.3,1.4c0.1,0.4,0.4,1.9,0.2,2.3
	c-0.1,1.3,0,0.2-0.2,0.8c-0.1,0.2-0.2,0.4-0.2,0.4s-0.1,0.1-0.2,0.2l0.6,2.2c-1.1,0.1-1.4,0-2.3-0.1c-0.4,0-0.6,0-1.1-0.1
	c-0.9-0.4-0.4,0-0.8-0.6c0.8-1.1,7.1-2.3,0.5-5.4c-1.8-0.9-2.2-0.4-3.8-0.9c-0.2-0.1-3.4-1.3-3.4-1.4c-1.3-0.9-0.9-1.9-3.4-1.5
	c-0.1,0.6-1.2,2.5-1.7,2.8c-1.4,1.2-4.4-0.9-3.3,2.5c0.8,3.1-1.9,2.9-2.2,5.8c-0.2,1.8,0,1.7,0.9,2.6c-0.2,0.8-0.2,0.8-0.5,1.5
	c-0.4,1.5-0.9,2.2-1.3,3.6c-0.9,0.4-2.7,0.6-3.3,1.1c-0.8,0.5-0.9,1.3-1.7,1.8c-1.5-0.6-1.2-1.8-3.1-1.3c-2.5,0.6-1.9,1.1-2.6-1.8
	c-3.3-2,1.5-2-2.7-9.3c0-0.1,0.1-0.1,0.1-0.1l0.8-0.8c0.8-0.9,1.7-0.5,3.2-1.1c1.8-0.5,3.9-0.8,5.5-1.4c-0.1-2.7,0.1-3.8-2-5.4
	c-1.2-0.9-0.4-1.3-1.8-1.5c-0.9-0.1-2.2,0.4-2.5-0.5c-0.5-1.4,2.6-1.7,3.2-1.8l-1.2-1.7c0.9,0.1,1.1,0.2,2.2,0l0.2-0.5
	c0,0,0-0.1,0.1-0.1c1.1-1.9,0.6-2.3,1.4-3.1c0.9-1.1,1.1-1.5,1.1-3.1c0-0.4,0-0.4,0-0.8c0-0.8,0.9-1.2,1.5-1.7
	c0.8-0.5,0.8-0.4,1.4-0.8c-0.8-1.2-2.5-2.6-2.8-4.2c0.5-0.6,0.4-0.6,1.3-1.3l1.5,2.5c1.4-0.5,0-0.2,1.4-0.9l0.9,1.1l-0.5,1.7
	c1.2-0.2,0.8-0.5,1.7-1.2l1.5,0.5c0.6-0.6,0.8-1.2,1.4-1.8c0.9-0.9,1.1-0.4,2.2-0.8c0.6-3.4-1.1-1.3-1.7-4.8c1.4,0,0.8,0.5,2,0.1
	c-0.8-1.7-1.4-1.1-2.7-1.1c-1.1-2.6,0.5-1.3,1.5-3.1c-1.4-1.2-1.7,0.4-2.7,1.3c-1.2-0.1-3.4-1.3-4.2-2c-1.3-1.4-0.1-5.3-3.3-3.6
	c0.4,2.2,0.9-0.1,1.2,2c0.1,1.3-0.8,1.2,0.1,2.7c0.8,1.3,2.5,1.5,3.8,2c0.1,1.1-0.2,1.8,0.4,2.8c0.5,1.1,0.8,0.5,1.3,1.9l-1.3,2.2
	c-2-0.1-1.2-0.8-2.7-1.9c-1.3-0.9-1.4-0.9-2.5-1.9l-1.4,0.2c-0.5,1.1-0.1,1.5-1.3,1.9c-1.9,0.6-4.8-2.5-4.6-4.6
	c0.1-1.4,1.4-2.5,1.7-3.8c0.1-0.9-0.5-3.4-1.1-4.4c-0.2-0.5-0.4-0.2-0.5-0.5c0-0.1-0.1-0.1-0.1-0.1c0.1-0.2,0.4-0.8,0.5-0.9l0.9-1.4
	c0,0,0-0.1,0.1-0.2l0.6-0.9c0.9-0.8,1.2-0.4,1.9-0.1l6.7-0.5c1.3-0.1,2.8,0.2,3.3,1.7l-2.2,0.6c1.2,1.2,2.5,1.1,4.2,1.2
	c0-0.2,0.1-0.8,0.2-1.2c-0.9-0.4-1.2-0.6-1.5-1.5c-0.4-1.2-1.8-0.9-2.9-1.5c1.3-0.4,1.5,0.2,2.8,0.2c-0.5-1.1-0.5-1.8-0.6-2.5
	c-0.1-0.6,0-0.2-0.5-1.1c0,0-0.4-0.5-0.4-0.6l-0.1-0.1c-0.4-0.4-2.9-0.9-3.8-1.3c-1.8-0.6-1.2-1.3-3.4-1.5c-1.3-0.1-2.9,0-3.8-1.1
	c-6.6-0.4-12.1-0.2-19.3,0.9C119.4,34.1,109.4,36.9,104.8,39.8L104.8,39.8z"/>
<path class="st1" d="M193.3,199.1c3.6-3.6,8.1-8.1,10.8-12l4.2-6.7c0.9-1.3,3.6-5.8,3.8-7.2c0.2-5.4,6.8-10.4,6.2-21.5
	c-0.5-12.4,5.4-21.3,1.5-42.6c-1.2,1.8-0.5,5.5-1.8,6.2c-1.5-1.3-0.6-2.2-2.8-3.8c-1.4-0.9-0.9,0.1-1.8-1.2
	c-0.5-0.6-0.9-1.8-1.3-2.5c-1.4-2.3-0.6,0.5-2.9-3.8c-2.2-4.1-1.4-2.6-3.2-3.3c-1.1-3.1-2-3.3-3.9-5.2c-0.8-0.8-3.8-3.8-4.2-4.6
	c0.9,0.2,0.8,0.4,1.4,1.2c0.9,1.2,0.4,0.5,1.4,1.2c0,0,0.1-0.2,0.1-0.1c0.1,0.2,0-0.6,0.6-0.6c0.4,0,0.9,0.5,1.3,0.8l3.4,3.4
	c2,1.4,1.5,0.9,3.2,4c1.3,2.3,3.2,1.1,6,8.2c0.2,0.6,0.5,1.2,0.8,1.8c0.6,1.2,0.2,1.1,1.2,1.2c0.1-1.3,0-2,0.1-3.3
	c0.1-1.1,0.4-2.3,0.4-3.4c0.4-5.2-1.2-11.3-2.6-15.9c-1.1-3.3-1.1-3.3-3.6-5.5c0,0-0.1-0.1-0.2-0.1c0.4,1.3,0.9,2.6,0.6,3.8
	c-1.1-0.6-0.8-1.2-1.5-1.8c-0.4-0.2-4.8-2.6-4.1-5.1c1.4,0.1,1.3,2.2,3.8,2c0-0.1,0-0.6,0-0.6l0.2-1.1c0.8,0.9,0.1,0.6,1.1,1.1
	l0.4-1.5c-0.8-2.6-4.4-8.6-5.8-10.7c-8.2-11.7-12.2-15.5-22.6-23.2c-6.9-5.1-20.6-11.3-28.4-12.7c-3.3-0.5-7.4-1.4-11.2-1.5
	c0.8,1.1,2.6,0.8,3.8,1.1c2.2,0.2,1.5,0.9,3.4,1.5c0.9,0.2,3.3,0.9,3.8,1.3l0.1,0.1c0,0.1,0.4,0.5,0.4,0.6c0.4,0.6,0.4,0.4,0.5,1.1
	c0.1,0.6,0.1,1.4,0.6,2.5c-1.3,0-1.4-0.5-2.8-0.2c1.1,0.6,2.5,0.4,2.9,1.5c0.4,0.9,0.6,1.2,1.5,1.5c-0.1,0.2-0.1,0.9-0.2,1.2
	c-1.8-0.1-3.1-0.1-4.2-1.2l2.2-0.6c-0.5-1.4-2-1.8-3.3-1.7l-6.7,0.5c-0.8-0.1-1.1-0.6-1.9,0.1l-0.6,0.9c0,0,0,0.1-0.1,0.2l-0.9,1.4
	c-0.1,0.1-0.4,0.8-0.5,0.9c0,0,0.1,0,0.1,0.1c0.1,0.4,0.2,0.1,0.5,0.5c0.6,0.9,1.3,3.4,1.1,4.4c-0.2,1.3-1.5,2.3-1.7,3.8
	c-0.2,2.2,2.7,5.3,4.6,4.6c1.2-0.4,0.8-0.9,1.3-1.9l1.4-0.2c1.2,1.1,1.2,1.1,2.5,1.9c1.5,1.2,0.6,1.7,2.7,1.9l1.3-2.2
	c-0.5-1.4-0.8-1.1-1.3-1.9c-0.6-1.1-0.2-1.8-0.4-2.8c-1.3-0.5-2.9-0.8-3.8-2c-0.9-1.7,0-1.4-0.1-2.7c-0.1-2-0.8,0.1-1.2-2
	c3.2-1.7,2,2.2,3.3,3.6c0.6,0.8,3.1,1.9,4.2,2c1.2-0.9,1.3-2.5,2.7-1.3c-1.1,1.8-2.7,0.5-1.5,3.1c1.4,0,1.9-0.6,2.7,1.1
	c-1.3,0.4-0.6-0.1-2-0.1c0.6,3.6,2.3,1.4,1.7,4.8c-1.2,0.4-1.3-0.1-2.2,0.8c-0.6,0.6-0.8,1.2-1.4,1.8l-1.5-0.5
	c-0.9,0.6-0.5,0.8-1.7,1.2l0.5-1.7l-0.9-1.1c-1.4,0.6,0,0.4-1.4,0.9l-1.5-2.5c-0.8,0.6-0.8,0.6-1.3,1.3c0.4,1.8,2,3.2,2.8,4.2
	c-0.6,0.5-0.6,0.2-1.4,0.8c-0.6,0.4-1.4,0.8-1.5,1.7c0,0.4,0,0.4,0,0.8c0,1.5,0,1.9-1.1,3.1c-0.8,0.8-0.4,1.2-1.4,3.1
	c0,0,0,0.1-0.1,0.1c0,0-0.1,0.5-0.2,0.5c-1.2,0.2-1.3,0.1-2.2,0l1.2,1.7c-0.8,0.2-3.8,0.4-3.2,1.8c0.2,0.9,1.5,0.2,2.5,0.5
	c1.4,0.2,0.6,0.6,1.8,1.5c2,1.7,1.9,2.7,2,5.4c-1.8,0.6-3.8,0.9-5.5,1.4c-1.5,0.5-2.3,0.1-3.2,1.1l-0.8,0.8l-0.1,0.1
	c4.1,7.2-0.6,7.2,2.7,9.3c0.6,2.8,0.1,2.6,2.6,1.8c1.9-0.5,1.5,0.8,3.1,1.3c0.8-0.6,0.9-1.4,1.7-1.8c0.6-0.4,2.5-0.6,3.3-1.1
	c0.5-1.4,1.1-2,1.3-3.6c0.1-0.8,0.2-0.6,0.5-1.5c-0.9-0.9-1.2-0.8-0.9-2.6c0.4-2.8,3.1-2.7,2.2-5.8c-0.9-3.3,1.9-1.3,3.3-2.5
	c0.5-0.4,1.5-2.2,1.7-2.8c2.6-0.4,2.2,0.6,3.4,1.5c0.1,0.1,3.2,1.3,3.4,1.4c1.5,0.5,1.9,0.1,3.8,0.9c6.6,3.2,0.2,4.5-0.5,5.4
	c0.4,0.6-0.1,0.2,0.8,0.6c0.4,0.1,0.8,0.1,1.1,0.1c1.1,0.1,1.4,0.2,2.3,0.1l-0.6-2.2c0.1-0.1,0.1-0.2,0.2-0.2c0,0,0.1-0.1,0.2-0.4
	c0.2-0.5,0.1,0.5,0.2-0.8c0-0.4-0.2-1.8-0.2-2.3c-1.2-0.8-1.1,0.1-1.3-1.4c1.1-0.6,0.9,0,1.8-0.2c-0.1-1.3-3.1-1.8-4.4-2
	c-0.9-0.2-1.1,0-1.9-0.2c-1.1-0.2-1.9-1.2-2.9-1.7c-1.5-0.8-1.5-1.1-2.5-2.6c0.8-0.6,0.8-0.6,1.4-0.1c3.9,2.6,7.5,1.2,9.4,2.9
	c0.6,0.6,1.1,1.8,1.5,2.5l2.5,1.7c1.7,0.8-1.2-0.6,0.4,0.2c1.5,0.9,2,2.6,4,2.8c0.2-1.3-0.1-0.5-0.5-1.8c-0.4-1.5,0.5-0.1,0.2-2.2
	c-1.8-0.8-2-0.4-3.6-2l1.3-0.5c-0.9-1.8-0.5-1.9,1.5-2c1.1,1.3,0.8,2,2.3,2.8c-0.1,0.8-0.1,0.5-0.2,1.3c2.2-0.5,1.1,1.3,5.5,1.2
	l0.4-1.5c1.7-0.4,1.2,0.2,2.7-0.2c0.1-0.9,0-1.4,0.6-2c0.8,0.1,0.1,0,0.8,0.6c1.5,1.7,2.5,3.8,3.2,6c0.1,0.4,0.4,1.2,0.5,1.5
	c0.1,0.4,0.1,0.4,0.1,0.8c0.1,1.9-1.2,1.4-2.7,1.9c-0.4,1.9-0.6,2.3-2.9,2.8c-1.9,0.5-2.8,0.9-4.6,0.4c-1.7-0.5-2.8,0.2-3.1,1.8
	c-0.4,2.2,1.2,1.2,0.8,4.6c-1.4,0.4-2.6-0.4-4.8,0.1c-1.4-1.4-1.3-2-4-1.5c-2,0.4-3.6,1.3-5.2-0.1c-0.5-1.4,0.2-1.2,0.1-2.9
	c-1.4-1.9-1.1,0.2-1.5-2.8c-1.2,0.8-0.5,0.1-1.2,0c-0.1,0-0.1-0.1-0.6,0c-1.3,0.2-0.1-0.1-0.6,0.5c-1.7,1.7-1.4,0.6-3.1,1.5
	c-0.9,0.4-0.5,0.5-1.2,0.9c-0.6,0.3-0.5,0.1-1.4,0.2c-1.3,0.2-2,1.1-3.2,1.7c-2.7,1.4-2,2.6-4.4,4.2c-2.7,1.9-5.6,0.6-6.6,0.9
	c-0.8,1.9-0.1,3.6-1.2,4.6c-2.2,2.2-2.7,3.1-2.8,6.5c0,1.9,0.5,1.1,0.5,2.6c0,0.9-1.8,3.8-2.2,4.2c-1.9,2-1.8,0.1-2.8,3.6
	c-0.5,1.7-1.1,2.8-1.4,4.7c-0.4,1.8-0.9,1.5-1.5,4.5c-0.4,1.8-0.8,3.1-1.1,5.1c0.9,0.4,1.7,1.1,2,2.3c0.2,1.1,0.5,2.9,0.5,4.1
	c0.2,3.8,0.1,4.4-1.1,6.9c0.6,0.5,1.5,1.3,1.8,2.6c0.2,1.8,0.5,2,1.8,2.6c2,0.8,0.5,1.3,2.3,2.2c3.3,1.7,2.5,1.1,4.7,4.5
	c1.1,1.5,1.3,1.1,2.7,1.7c1.2,0.5,2,0.5,3.1,0.9c1.3,0.5,1.2,1.1,2.8,1.3c3.2,0.6,3.8-0.6,6.5-2.2c2.8-1.7,4.7-0.5,7.2-2.6
	c1.2-0.9,1.3-1.3,2.6-2.3c1.8-1.3,4-3.4,6.6-3.4c1.7,0,1.4,1.7,2.5,2.2c2.2,0.5,2.3-2.8,6.2-1.8c1.7,6.7-1.8,9.8,1.9,11.3
	c2.2,0.9,2.5,1.1,3.6,3.8c0.5,1.3,1.1,1.7,1.1,3.1c0.1,2.2,0.5,1.8,0.6,3.2c0.1,1.8-1.4,3.1-1.9,4.8c-0.4,1.3-1.4,4.2-1.1,5.6
	c0.1,0.9,0.9,1.8,1.3,2.6c1.2,1.9-0.6,3.4,0.4,5.6c0.1,0.4,0.5,0.5,0.4,1.3c-0.1,0.8-0.4,0.5-0.8,1.3
	C193.4,199.1,192.1,198.5,193.3,199.1L193.3,199.1z"/>
<path class="st1" d="M104.5,214c1.1-0.4,0.5-0.5,1.2-1.7c-0.6-0.9-1.3-1.1-1.7-1.9c2.2-1.4,4.4-0.4,6.6-0.9c1.2-5.6-0.5-5.2-1.5-9.6
	c0.6-0.6,0.2,0.4,1.1-0.8c0.6-0.9,0.2-0.9,0.8-1.7c1.7-2.3,3.1-2.6,0.4-7.1c-1.5-2.7-0.6,0.5-5.9-3.2c-3.6-2.6-2.8-1.4-6.5-2.3
	c-2.7-0.6-0.5-1.1-4-0.1c-0.4-2.5-1.3-2.5-2.7-3.3c-1.5-0.9-1.8-2-3.8-0.8c-1.2-3.2-1.8-1.3-3.8-2.7c0.1-1.3,0.2-0.5,0.6-1.8
	l-3.9-6.5c-2.3-2.6-2-2.5-5.3-3.9c-1.2-0.5-1.7-0.9-2.6-1.8c-1.2-1.3-1.1-1.9-2-3.3c-0.4-0.5-0.8-0.9-1.1-1.3
	c-0.8-0.9-0.4-0.5-1.1-1.8c-0.9-1.9-0.4,0.1-2-3.2c-2.8-0.5-1.1,0.2-3.4-1.5c-1.5-1.2-1.4-1.8-2.3-3.8c-0.9-0.2,0.6,0.1-1.1,0.5
	c-0.6-2,0.2-0.9-0.4-2.5c-1.1,0.6-0.8,0.4-2,0.8c0.1,1.4,0.2,1.3-0.4,2.2c-3.1-3.3-3.3-8.7-3.4-13.6c-0.1-2.7-1.1-3.2-1.2-5.4
	c-0.2-2.9,0.8-6.6,0.2-9.2c-0.5-2.5,0.8-6.7,0.4-9.5l-0.9,7.5c-0.6,8.4-0.1,17.1,1.4,25.4c3.2,17.2,9.6,31.1,19.3,43.9
	c2.9,3.9,6,6.8,9.2,10.1C86.7,203,100.4,212.8,104.5,214L104.5,214z"/>
<path class="st1" d="M54.4,111.9c0-0.1,0-0.2,0.1-0.2l0.9-4.7c0.5,0.5,0-0.6,0.8,1.2c0.1-0.9,0-0.5,0.4-1.1c0.1,0.4,0.6,2.9,0.6,3.3
	c0.4,2.7-1.5,5.5-0.5,9.5c0.9-0.9,0.5-2.2,0.8-3.9c0.1-1.3,0.2-2.8,0.4-4.2c0.6-7.1,4.7-6.7,5.4-9.4c0.6-2.6-0.5-1.5,1.2-3.8
	c0.6-0.8,0.5-1.1,0.9-1.7c2-3.4,1.8-2.5,4.4-3.3c0.4-1.7,0-2.6,1.9-4c1.5-1.1,3.1-1.3,4.6-2.3c0.1,2.3-2.9,0.9-2.3,3.4
	c1.2-0.1,0.5-0.4,1.5-0.9c1.4-0.8,1.8-0.4,3.6-2c0.6-0.5,0.8-0.9,0.6-2c-0.2,0.1-3.1,3.8-3.1,0l0.8-2.6c0.6-1.1,0.5,0.4,0.6-1.3
	l-1.5-0.2c-0.5-0.1-0.4,0-0.6-0.1c0.1-0.1,1.8-1.4,1.9-1.5c0.8-0.5,1.3-0.2,2.2,0c2.9,0.6,2.8-0.5,5.3-1.3c0,0.1-0.1,0.1-0.1,0.2
	c0,0.1-0.1,0.1-0.1,0.2c0,0-0.1,0.1-0.1,0.2c0,0-0.1,0.1-0.1,0.2c-0.1,0.2-0.2,0.5-0.5,0.6c-0.4,0.5-0.9,0.9-1.2,1.4
	c-0.4,0.6-0.4,0.9-0.8,1.5c-0.4,0.6-0.6,0.8-1.2,1.7c0.9,0.5,1.8,0.5,2.8,0.5c0,0.1-0.1,0.1-0.1,0.2c0,0.6-0.1,0.1-0.2,0.4
	c-0.2,0.5-0.1-0.5-0.2,0.8c1.7-0.5,0.5,0,2.3,0.1c0.8-2.3,0.5-1.5,0.6-3.1c0-0.6,0-0.8,0.1-1.5l-1.3-0.5c0-0.8,0-0.5,0.2-1.1
	l1.1-2.7c0,0,0-0.1,0.1-0.2l1.3-2.5c-0.4-0.6-0.5-0.6-0.6-1.2c-0.1-0.8,0-0.4,0-0.6c0-1.4-1.1-1.4-0.8-3.4c0-0.2,1.7-2.6,1.9-5.8
	c-1.5,0.9-1.2,1.5-2.9,2.2c0-2.5,0.1-1.8,1.3-3.3c0.5-0.8,0.5-1.7,0.1-2.6c-0.9-2.5-3.2,2.2-3.6,2.7c-0.6,0.8-1.3,0.9-1.8,1.8
	c-0.5,0.9-0.6,1.7-1.2,2.5c-1.5,2.5-3.2,2.2-5.2,5.8c-0.1,0.4-0.4,0.8-0.6,1.1c-0.6,1.1-0.1,0.6-1.2,1.1c0-2.2,1.3-3.9,2.3-5.3
	c1.2-1.7,0.1-1.1,0.8-3.1c0.5-1.7,0.5-2.7,1.5-4c1.3-1.5,1.2-1.7,2.9-3.2c1.4-1.3,3.2-3.1,5.2-3.8c-0.4,1.2-0.8,0.9-0.8,1.5l1.8-0.1
	c0.4-1.3,0.6-2.6,2.2-3.1c2.3-0.9,1.7-1.2,3.3-2.6c3.4-2.8-1.5-0.1,0.8-2.8c0.5-0.6,2.6-1.9,3.2-2.5c-0.1,0.8,0.1,0.2-0.6,0.9
	c-0.6,0.6-1.9,1.4-1.7,2.3c0.2,0.6,0,0.2,0.4,0.4l0.8,0.2c-0.5,2.9-1.4,2.9-3.3,4.5c-1.5,1.2-3.2,1.5-3.4,2.3
	c-0.2,0.8,0-0.2,0.6,0.8c-0.4,1.5-0.5,1.7,0.2,3.3c1.1-0.5,0.9-0.8,1.2-1.9l0.8,1.2c0.6-0.9,1.4-1.8,1.7-2.7
	c0.4-1.7-0.1-1.7,1.3-2.7c0,1.7-0.8,0.1-0.4,2.5c2.2-1.2,2.7-2,2.7-3.6c-0.1-3.9,1.3-1.1,1.8-4.5c0.5-3.1-0.2-1.2,1.5-3.1l-1.7-0.4
	c0.9-1.9-0.2,0.1-0.9-2c1.4-0.5,0.9-1.1,2.6-0.8c0.2,2.2-0.9,3.1,2.2,1.7c0.1-0.8,0,0.8,0-0.4v-0.5c0,0,0-0.1,0-0.2
	c1.4,0.1,1.1,1.1,2.3-0.1c1.9-1.7,3.1-1.9,5.3-3.2c1.5-0.9,1.9-0.6,3.4-1.2c-3.1-1.5-7.4,2.9-8.2,0.4c-12.6,5.6-26.4,18.5-33.9,30.2
	c-0.9,1.4-2.2,3.1-2.9,4.5c-3.8,6.9-3.9,6.7-7.3,15.1C58.2,94.4,54.6,105.7,54.4,111.9L54.4,111.9z"/>
<path class="st2" d="M105.4,44.1c0.5,0.8,0.9,0.6,1.3,1.4c-0.9,1.3-1.4,2.5-2.8,3.9c0.5,0.9,0.9,0.4,0.2,1.2
	c-0.6,0.6-0.9,0.2-1.7,1.1c0.2,1.1,0.8,0.1,0.6,1.1c-2,1.4-1.1-0.2-3.1,2.8c0,0.1-0.2,0.5-0.4,0.5l-0.2,1.1
	c-0.4,1.5-1.4,3.2-0.8,5.8c2,1.1,0.5-0.1,1.9,1.8c1.4-0.1,0.9,0.1,1.7-1.3c0.2-0.5,0.1-0.2,0.4-0.6c3.6-5.4,1.9-0.8,3.6-4.8
	c0.8-2,1.7-0.1,5.5-3.4c1.5-1.4,0.8-1.1,2.9-1.8c1.9-0.8,4.1-2.2,5.4-3.6c-0.6-1.7-1.1-1.3-1.4-2.7l2.3-0.2c0.1-1.2,0.1-1.1,0.9-1.8
	c-1.1-1.4-0.8-0.9-0.4-1.5l0.2-0.4c-0.4-0.4-0.1-0.1-0.5-0.4c0,0-0.4-0.2-0.5-0.2c1.1-1.4,0.2-1.2,1.1-2l0.6-0.6
	c-0.8,0-1.3,0.2-2,0.1c-0.9-0.1-1.1-0.4-2-0.4c-1.4,0-7.4,2-9,2.9L105.4,44.1L105.4,44.1z"/>
<path class="st0" d="M212.1,173.2c1.5-2.2,3.2-6.7,4.4-9.4c3.8-8.8,6.2-22.4,6.7-32.5c0.6-16-3.2-37.8-10.9-51l-0.5,1.4
	c-0.9-0.4-0.4-0.1-1.1-1.1l-0.2,1.1c0,0,0,0.5,0,0.6c-2.5,0.1-2.5-1.9-3.8-2c-0.8,2.6,3.8,4.7,4.1,5.1c0.8,0.6,0.4,1.2,1.5,1.8
	c0.4-1.2-0.2-2.5-0.6-3.8c0.1,0,0.1,0.1,0.2,0.1c2.6,2.2,2.6,2.2,3.6,5.5c1.5,4.6,2.9,10.8,2.6,15.9c-0.1,1.2-0.2,2.5-0.4,3.4
	c-0.1,1.3,0,2-0.1,3.3c-0.8,0-0.5,0.1-1.2-1.2c-0.4-0.6-0.5-1.2-0.8-1.8c-2.9-7.2-4.8-6-6-8.2c-1.7-2.9-1.1-2.6-3.2-4l-3.4-3.4
	c-0.4-0.2-0.9-0.8-1.3-0.8c-0.6,0-0.5,0.9-0.6,0.6c0,0,0,0.1-0.1,0.1c-0.9-0.6-0.5,0-1.4-1.2c-0.6-0.8-0.5-0.9-1.4-1.2
	c0.4,0.9,3.3,3.9,4.2,4.6c1.8,1.8,2.8,2,3.9,5.2c1.8,0.9,0.9-0.6,3.2,3.3c2.3,4.2,1.5,1.4,2.9,3.8c0.4,0.8,0.9,1.8,1.3,2.5
	c0.9,1.3,0.5,0.2,1.8,1.2c2.2,1.5,1.3,2.5,2.8,3.8c1.3-0.8,0.6-4.4,1.8-6.2c4,21.3-1.9,30.4-1.5,42.6
	C218.8,162.7,212.3,167.7,212.1,173.2L212.1,173.2z"/>
<path class="st2" d="M134.7,63c0.6,1.2,1.5,1.2,2.2,2.7c-0.1-1.3,1.2-0.9,0.9,0.8l1.5-0.5c-0.1,1.5,0.5,0.1,1.4,2
	c-0.4,0.5-0.9,0.5-1.8,0.8c0.5,0.9,0.5,0.8,1.1,1.3l-0.8,1.3c0.9,0.2,2.7,0,2.7,0c-0.4,0.9-2,1.4-1.9,3.2c1.8-2.3,4.5-2.2,6.6-3.9
	c-0.1-0.5-0.5-0.5-0.8-0.9c0.6-0.8,0.5-0.5,0.4-1.8c-2.2-0.5-2.3-0.5-4.6-2.6c-1.3-1.1-0.1-0.5-2.3-1.5c-0.1-1.4,0.2-0.8,0.1-2.2
	c-0.8-0.1-0.8,0-1.7,0.2c-0.4-0.5,0-0.8-0.5-1.3c-1.8,0.5-0.5,0.2-1.7,1.7C135.1,62.6,134.9,62.7,134.7,63L134.7,63z"/>
<path class="st2" d="M134.4,67c0,0.1,0,0.1,0,0.2s-0.1,0.4-0.1,0.5c-0.4,1.1,0.2-0.2-0.2,0.5c-0.4,0.4-1.2,0.6-0.8,1.7l1.2,1.3
	l-0.1,0.1L134,72c-0.6,1.1-0.5,1.8,0.9,1.2c0.5-0.2,1.7-1.5,2.9-2c-0.2-1.5-0.1-1.7-0.9-2.6c0.8-1.1,0.8-0.1,0.5-1.7
	C136,66,136.1,66.7,134.4,67L134.4,67z"/>
<path class="st2" d="M118.5,54.6c0.5,0.6,0.5,0.4,1.2,0.4l-0.8,1.1c1.2,0.4,0.6,1.5,2.9,1.2c0.6-0.1,2.9-1.4,3.3-1.8
	c1.2-1.2,0.2-2.7-1.2-2.5c0,0-1.7,0.6-1.8,0.8c-0.1,0-0.1,0.1-0.2,0.1l-0.1,0.1l-1.4,0.9c-0.8-0.6-0.1-0.5-1.1-0.9L118.5,54.6
	L118.5,54.6z"/>
<polygon class="st3" points="91.5,200.9 99.3,200.9 99.3,264.9 91.5,264.9 "/>
<polygon class="st3" points="179,200.9 186.8,200.9 186.8,264.9 179,264.9 "/>
<polygon class="st3" points="77.7,246.4 196.1,246.4 196.1,240.4 77.7,240.4 "/>
<polygon class="st4" points="83,200.9 94,200.9 94,264.9 83,264.9 "/>
<polygon class="st4" points="181.1,200.9 192.2,200.9 192.2,264.9 181.1,264.9 "/>
<polygon class="st3" points="77.7,207 196.1,207 196.1,200.9 77.7,200.9 "/>
<path class="st5" d="M129.2,200.8c3,0,6.1,0,9.1,0s6.1,0,9.1,0c1.3,0,2-0.8,1.6-1.9c-1.6-4.4-3.1-8.9-4.7-13.3l-2.9-7.9v-10.4h0.8
	v-2.5h-8.4v2.5h1v10.9l-2.8,7.4c-1.6,4.4-3.1,8.9-4.7,13.3C127.2,199.9,127.9,200.8,129.2,200.8L129.2,200.8z"/>
<path class="st6" d="M141.7,166.5v-1.3h-7.2v1.3h1.1v11.8l-2.8,7.6c-1.6,4.4-3.1,8.9-4.7,13.3c-0.2,0.7,0.6,0.8,1,0.8
	c3,0,6.1,0,9.1,0s6.1,0,9.1,0c0.5,0,1.3-0.1,1-0.8c-1.6-4.4-3.1-8.9-4.7-13.3l-2.9-8v-11.3L141.7,166.5L141.7,166.5z"/>
<path class="st7" d="M147.9,199.3c-1.6-4.4-3.1-8.8-4.7-13.2l-0.6-1.6H134l-0.6,1.6c-1.6,4.4-3.1,8.8-4.7,13.2c0.1,0,0.2,0,0.5,0
	c3,0,6.1,0,9.1,0s6.1,0,9.1,0C147.7,199.3,147.8,199.3,147.9,199.3L147.9,199.3z"/>
<path class="st1" d="M139.4,191.7c0.7,0,1.2-0.6,1.2-1.3s-0.6-1.3-1.2-1.3c-0.7,0-1.2,0.6-1.2,1.3
	C138.1,191,138.7,191.7,139.4,191.7L139.4,191.7z"/>
<path class="st1" d="M138.4,197.2c1,0,1.7-0.8,1.7-2c0-1.2-0.8-2-1.7-2c-0.8,0-1.7,0.8-1.7,2C136.5,196.3,137.4,197.2,138.4,197.2
	L138.4,197.2z"/>
<path class="st1" d="M135.6,192.9c0.5,0,0.7-0.5,0.7-0.8c0-0.4-0.2-0.8-0.7-0.8c-0.5,0-0.7,0.5-0.7,0.8
	C134.8,192.5,135.1,192.9,135.6,192.9L135.6,192.9z"/>
<polygon class="st8" points="169.2,182.3 172.2,182.3 172.2,181.8 169.2,181.8 "/>
<polygon class="st9" points="169.1,181.8 172.3,181.8 172.3,179.9 169.1,179.9 "/>
<path class="st0" d="M169.7,182.3h2.2v13.1c0,1.9-0.2,3.2-1,3.8c-1.2-0.7-1-2-1-4.2v-12.7L169.7,182.3L169.7,182.3z"/>
<path class="st10" d="M170,189.9v5.3c0,1.2-0.1,2.8,0.7,3.6c0.6-0.7,0.7-2.4,0.7-3.2v-5.6H170L170,189.9z"/>
<polygon class="st11" points="170.1,182.3 171.3,182.3 171.3,183 170.1,183 "/>
<polygon class="st8" points="173.4,182.3 176.5,182.3 176.5,181.8 173.4,181.8 "/>
<polygon class="st9" points="173.1,181.8 176.6,181.8 176.6,179.9 173.1,179.9 "/>
<path class="st0" d="M173.9,182.3h2.2v13.1c0,1.9-0.2,3.2-1,3.8c-1.2-0.7-1-2-1-4.2v-12.7L173.9,182.3L173.9,182.3z"/>
<path class="st10" d="M174.3,189.9v5.3c0,1.2-0.1,2.8,0.7,3.6c0.6-0.7,0.7-2.4,0.7-3.2v-5.6H174.3L174.3,189.9z"/>
<polygon class="st11" points="174.3,182.3 175.5,182.3 175.5,183 174.3,183 "/>
<polygon class="st8" points="177.6,182.3 180.6,182.3 180.6,181.8 177.6,181.8 "/>
<polygon class="st9" points="177.5,181.8 180.8,181.8 180.8,179.9 177.5,179.9 "/>
<path class="st0" d="M178.2,182.3h2.2v13.1c0,1.9-0.2,3.2-1,3.8c-1.2-0.7-1-2-1-4.2v-12.7L178.2,182.3L178.2,182.3z"/>
<path class="st10" d="M178.5,189.9v5.3c0,1.2-0.1,2.8,0.7,3.6c0.6-0.7,0.7-2.4,0.7-3.2v-5.6H178.5L178.5,189.9z"/>
<polygon class="st11" points="178.7,182.3 179.7,182.3 179.7,183 178.7,183 "/>
<polygon class="st8" points="181.9,182.3 184.9,182.3 184.9,181.8 181.9,181.8 "/>
<polygon class="st9" points="181.8,181.8 185,181.8 185,179.9 181.8,179.9 "/>
<path class="st0" d="M182.4,182.3h2.2v13.1c0,1.9-0.2,3.2-1,3.8c-1.2-0.7-1-2-1-4.2v-12.7L182.4,182.3L182.4,182.3z"/>
<path class="st10" d="M182.7,189.9v5.3c0,1.2-0.1,2.8,0.7,3.6c0.6-0.7,0.7-2.4,0.7-3.2v-5.6H182.7L182.7,189.9z"/>
<polygon class="st11" points="183,182.3 184.1,182.3 184.1,183 183,183 "/>
<polygon class="st8" points="186.2,182.3 189.2,182.3 189.2,181.8 186.2,181.8 "/>
<polygon class="st9" points="186.1,181.8 189.3,181.8 189.3,179.9 186.1,179.9 "/>
<path class="st0" d="M186.7,182.3h2.2v13.1c0,1.9-0.2,3.2-1,3.8c-1.2-0.7-1-2-1-4.2v-12.7L186.7,182.3L186.7,182.3z"/>
<path class="st10" d="M187.1,189.9v5.3c0,1.2-0.1,2.8,0.7,3.6c0.6-0.7,0.7-2.4,0.7-3.2v-5.6H187.1L187.1,189.9z"/>
<polygon class="st11" points="187.2,182.3 188.4,182.3 188.4,183 187.2,183 "/>
<polygon class="st12" points="165.6,200.5 192.8,200.5 192.8,199.3 165.6,199.3 "/>
<polygon class="st12" points="165.6,194.4 192.8,194.4 192.8,193.2 165.6,193.2 "/>
<polygon class="st12" points="165.6,189.7 192.8,189.7 192.8,188.6 165.6,188.6 "/>
<polygon class="st12" points="167.4,200.9 169.3,200.9 169.3,186.7 167.4,186.7 "/>
<polygon class="st12" points="189.2,200.9 191.3,200.9 191.3,186.7 189.2,186.7 "/>
<path class="st13" d="M111.4,200.8c4.4,0,9,0,13.4,0c0-4.9,0-9.7,0-14.8c0-3.5-1.9-4.2-4-6.7H116c-2.4,2.2-4.4,3-4.4,6.5
	C111.4,190.8,111.4,195.7,111.4,200.8L111.4,200.8z"/>
<path class="st14" d="M111.4,200.8c4.4,0,9,0,13.4,0c0-4.9,0-9.7,0-14.8c0-0.7,0-1.3-0.1-1.7c-6.2,0.5-11.6,5-13.2,11L111.4,200.8
	L111.4,200.8z"/>
<polygon class="st15" points="115.3,174.6 121.4,174.6 121.4,179.3 115.3,179.3 "/>
<polygon class="st11" points="115.3,178.3 121.4,178.3 121.4,179.3 115.3,179.3 "/>
<polygon class="st15" points="115,192.7 124.4,192.7 124.4,187.1 115,187.1 "/>
<polygon class="st16" points="98.1,166.8 96.5,167.1 94.1,153 95.7,152.5 "/>
<polygon class="st17" points="118.2,200.8 84.5,200.8 84.5,196.7 118.2,196.7 "/>
<polygon class="st18" points="113.5,196.7 98.8,196.7 98.8,195.6 113.5,195.6 "/>
<polygon class="st17" points="105.5,165.2 98.1,167 95.5,151.4 102.9,149.7 "/>
<polygon class="st19" points="97,150.9 95.5,151.2 98.1,166.8 99.7,166.5 "/>
<polygon class="st16" points="99.5,138.4 94.7,139.5 95.1,142 100,141.1 "/>
<polygon class="st16" points="99.4,141.1 95.6,141.9 97,149.7 100.9,148.9 "/>
<polygon class="st17" points="112.6,178.3 95.8,182 95.6,180 112.3,176.4 "/>
<polygon class="st17" points="101.5,193.4 100,193.8 94,159.7 95.6,159.3 "/>
<path class="st17" d="M94.1,160.4l-6.8,1.4c-6.1,8.4-3.8,27,5.2,33.4l7.4-1.6l-2.4-14l-3,0.7l0.2,1.3c0.2,1.4-0.6,2.9-1.9,3
	l-0.7,0.1c-1.3,0.2-2.4-0.7-2.8-2l-1.3-7.4c-0.2-1.4,0.6-2.8,1.9-3l0.7-0.1c1.2-0.2,2.3,0.6,2.8,1.7l3-0.7L94.1,160.4L94.1,160.4z"
	/>
<path class="st16" d="M95.1,164.5c-1.7,0.5-3.2-0.8-3.6-2.8c-0.4-1.9,0.7-3.6,2.4-4s3.2,0.8,3.6,2.8
	C97.9,162.3,96.9,164.1,95.1,164.5L95.1,164.5z"/>
<path class="st16" d="M94.4,172.7c-1.2,0.2-2.2-0.6-2.4-1.7c-0.1-1.3,0.6-2.4,1.6-2.5c1.2-0.2,2.2,0.6,2.4,1.7
	C96.2,171.2,95.5,172.5,94.4,172.7L94.4,172.7z"/>
<path class="st19" d="M94.9,162.8c-0.8,0.1-1.6-0.5-1.7-1.3c-0.1-0.8,0.5-1.9,1.2-2c0.8-0.1,1.6,0.5,1.7,1.3
	C96.3,161.9,95.7,162.7,94.9,162.8L94.9,162.8z"/>
<path class="st19" d="M94.1,171.7c-0.6,0.1-1.2-0.2-1.2-0.8c-0.1-0.6,0.2-1.2,0.8-1.3c0.6-0.1,1.2,0.2,1.2,0.8
	C95.1,171,94.7,171.6,94.1,171.7L94.1,171.7z"/>
<polygon class="st16" points="106,175.5 101.7,176.4 101,172.9 105.3,171.9 "/>
<polygon class="st16" points="108.1,182.5 102.4,183.7 101.8,180.7 107.6,179.4 "/>
<polygon class="st16" points="111.9,169.9 109,173.4 106.6,171 109.5,167.4 "/>
<polygon class="st12" points="106,173.1 100.7,174.2 101,175.7 106.3,174.6 "/>
<polygon class="st12" points="108.4,180.5 101.5,181.9 101.6,183.1 108.5,181.8 "/>
<polygon class="st12" points="110.6,167.9 107,172.3 108.1,173.3 111.8,168.8 "/>
<polygon class="st16" points="111.8,189 104,190.8 103.7,188.9 111.4,187.2 "/>
<polygon class="st12" points="103.9,190.3 100.4,191 100.3,190.2 103.7,189.5 "/>
<polygon class="st16" points="106.9,170.5 109.1,167.7 108.3,167 99.4,168.9 101,171.6 101.3,172.9 104.8,171.9 104.5,169.5 
	105.3,168.9 "/>
<polygon class="st18" points="108.8,165.9 98.8,168.1 98.9,169.2 108.9,167 "/>
<polygon class="st17" points="109.5,164.4 95,167.5 95.1,168.9 109.7,165.8 "/>
<polygon class="st12" points="95.5,151.4 102.9,149.7 100.7,148.7 96.9,149.5 "/>
<path class="st17" d="M98.5,187.2v9.5h-9.1c0.6-1.2,2.8-6,4.3-9.1c0.7-1.3,1.2-3,2.8-3C97.4,184.4,98.5,185.5,98.5,187.2L98.5,187.2
	z"/>
<path class="st19" d="M96.4,188.9c-0.7,0.1-1.4-0.5-1.6-1.2c-0.1-0.8,0.2-1.6,1.2-1.7c0.7-0.1,1.4,0.5,1.6,1.2
	C97.7,187.9,97.1,188.7,96.4,188.9L96.4,188.9z"/>
<path class="st20" d="M201.2,127l-3.1,5.1l-9.4-7.1l-4.2-7.3l0.4-1.2l0.1-3.2l2-2c0.4,1.2,0.4,0.9-0.1,2l-0.8,1.2l-0.1,3.3l1.1-3.1
	l2.8-2.6l0.4,1.5l1.4-0.2l-0.1,1.4l-0.9,1.1l-1.2,0.6l-0.2,2.6l1.2-1.8l1.8-0.2l1.1,0.4c-0.9,1.4-0.6,1.2-2.2,1.2l-0.5,1.7l0.2,0.6
	c1.8,1.3,3.6,2.5,3.4,4.2L201.2,127L201.2,127z"/>
<path class="st21" d="M225.9,134l4.8-14.2c-5.5-0.2-6,2.3-8.6,5.1l-8.2,9.6l-15.1-8.2c0.5,2-1.1,4.8-1.9,5.3
	c8.8,6.7,13.9,14.1,17.3,13.5C217.2,144.3,221.2,141.3,225.9,134L225.9,134z"/>
<polygon class="st21" points="250.1,121.4 232.7,120.5 234.9,117.7 242.5,115.3 249.2,118.7 "/>
<path class="st22" d="M239.4,247.7l-3.3-3.8c0.1,3.8,1.2,6.8-1.3,9.2c-2.2,2-9.4,5.2-9.4,7.3c0,1.1,1.8,1.8,4.8,0.9
	c1.8-0.5,2.5-1.9,5.5-5.1c2.5-0.6,2.3-0.1,3.4-2.6l-0.6-2.6L239.4,247.7L239.4,247.7z"/>
<path class="st23" d="M236.3,250.2c-0.1,1.1-0.6,2-1.5,2.9c-2.2,2-9.4,5.2-9.4,7.3c0,1.1,1.8,1.8,4.8,0.9c1.8-0.5,2.6-1.5,5.8-4.6
	c2.5-0.6,2.8-1.4,3.8-2.3l-0.2-2.6c-1.5,1.2-2,1.5-2.9,1.2l1.3-2.5L236.3,250.2L236.3,250.2z"/>
<path class="st24" d="M225.4,260.7c0,0.5,0.5,0.9,1.3,1.1l-0.8-1.4L225.4,260.7L225.4,260.7z M226.6,261.6c0.8,0.2,2,0.1,3.6-0.2
	c1.7-0.5,2.6-1.3,5.3-4c0.1-0.1,0.2-0.5,0.4-0.6c0,0.1,0,0.1,0,0.4c0.9-0.4,3.1-1.9,3.9-2.6l-0.1-0.8l-1.9,1.3l-2.8,1.8
	C231.2,260.1,231.3,260.9,226.6,261.6L226.6,261.6z"/>
<path class="st25" d="M228.9,257.1l-0.2,0.1c-1.1,0.5-3.3,1.8-3.2,3.3c0,0.2,0.1,0.5,0.2,0.6c0.8-0.1,1.9-0.5,3.1-1.2
	c2.6-1.3,4.6-2.9,4.6-3.8C233.4,255.5,231.4,255.8,228.9,257.1L228.9,257.1z"/>
<path class="st26" d="M234.1,253.8c-0.2,0.2-0.5,0.5-0.8,0.6l1.7,1.1l0.5-0.9L234.1,253.8L234.1,253.8z"/>
<path class="st22" d="M259.2,248.3l3.6-1.9c0.4,10.1,1.3,11.1,9.3,13.9l1.1,2.6l-3.9-0.1c-1.4-1.3-7.4-3.8-8-4.2
	c-0.6-0.6-0.2-1.4-0.1-3.3L259.2,248.3L259.2,248.3z"/>
<path class="st27" d="M227.5,173.6c0.2,12.2,1.1,27.7,2.8,40.6c1.4,10.7,3.9,19.1,4.5,30c0,0.6-0.8,5.2-0.9,5.8
	c3.4,1.2,4.6,0.2,7.1,0.6c2.7-25.2-0.9-49.9,0-75.2C238,176.3,235.3,175.8,227.5,173.6L227.5,173.6z M244.8,200.8
	c1.2,5.2,2.6,13.5,5.1,21.5c2.9,9.9,7.1,19.5,8.5,25.4c0.8,3.4-1.5,4.4-1.4,4.4c1.1,0.6,2.6,0.9,4,1.4c1.3-0.5,2.8-1.7,3.4-2.3
	c-2.7-11.4-5.3-33.2-5.8-38.7c-0.9-12.4-1.8-25.1-3.4-35.4l-5.1-3.1c-4.4,2.6-7.3,1.1-9.4,1.9v16.4L244.8,200.8L244.8,200.8z
	 M254.4,176.2c0-1.9-0.1-3.8-0.2-5.5c-1.7,0.6-3.1,1.2-4.4,1.5L254.4,176.2L254.4,176.2z"/>
<path class="st28" d="M228.1,191.6c0.2,4.8,0.6,9.9,1.2,14.8l8.2,1.9l0.4-20.5l3.2,12.4c-0.1-4.8-0.2-9.6-0.4-14.5l-2.9-6.5
	l-9.4,4.8L228.1,191.6L228.1,191.6z M246.2,207.6l11.8-2.7c-0.4-5.8-0.9-11.5-1.5-17.1l0,0l-15.8-2v6.2l4.1,8.6
	C245.2,202.7,245.8,205,246.2,207.6L246.2,207.6z"/>
<path class="st20" d="M244.8,108.9l-7.2,3.3c0.4,4.5,1.1,3.8-1.8,7.1l-0.9,2.5c-0.4,4.8,8.8,0.5,11.5-0.4l-1.5-5.5L244.8,108.9
	L244.8,108.9z"/>
<path class="st29" d="M244.8,108.9l-7.2,3.3c0.2,3.4,0.8,3.9-0.2,5.3l0,0c2.9,0,5.6-2.6,7.4-6.8V108.9L244.8,108.9z"/>
<path class="st18" d="M239.3,121l-1.7-4.5c-10.1,9.4-9.8,40.8-9.3,54.8c13.9,6.1,13.9,4.2,25.2-0.6c-7.1-15.2-8.4-25.2-6.7-51.5
	l-1.8-3.3L239.3,121L239.3,121z"/>
<polygon class="st30" points="238.4,125.6 236.7,124 238.9,121.2 241.3,124.5 239.8,125.8 242.1,160 239.5,165.1 235.4,159.9 "/>
<path class="st31" d="M227.5,173.6l0.4-2.8c12.2,1.8,14.6,2.2,25.8-1.4l-0.1,1.7c-7.1,3.3-10.6,5.3-15.1,5.2
	C235.4,176.2,233.3,175.3,227.5,173.6L227.5,173.6z"/>
<polygon class="st27" points="230,174.6 232,175 232.4,171.1 230.3,170.6 "/>
<polygon class="st27" points="246.6,174.6 248.6,174.2 248.5,170.4 246.6,170.9 "/>
<polygon class="st18" points="235.9,176.2 242.1,176.3 242.2,172.2 236,172.1 "/>
<path class="st32" d="M233.9,101.7l1.8-6l0.9-5.1C232.6,92.1,234.1,98,233.9,101.7L233.9,101.7z"/>
<path class="st20" d="M245.3,91.1l-8.7-0.4c-1.3,2.7-2.2,5.8-2.5,9.9c-1.1-1.8-2.2,1.1-1.8,2.6c0.1,0.5,0.5,1.1,0.9,0.9
	c-1.2,4.8-0.2,9,1.4,10.1c8.7,2.6,14-8.8,15.5-16.8L245.3,91.1L245.3,91.1z"/>
<path class="st33" d="M240.5,104.3c-0.2-0.1-0.5-0.5-0.4-0.8c0-0.4,0.4-0.6,0.6-0.5c0.2,0.1,0.5,0.5,0.4,0.8
	C241.1,104.1,240.8,104.4,240.5,104.3L240.5,104.3z"/>
<path class="st33" d="M235.4,102.3c-0.2-0.1-0.5-0.5-0.4-0.8c0.1-0.4,0.4-0.5,0.6-0.5c0.2,0,0.5,0.5,0.4,0.8
	C236.1,102.2,235.7,102.4,235.4,102.3L235.4,102.3z"/>
<path class="st32" d="M245.2,102.6c-1.3-1.8-2.6-1.3-5.1-3.1C240.6,101.9,242.4,101.7,245.2,102.6L245.2,102.6z"/>
<path class="st32" d="M234,98.7c1.5-0.8,3.1,0.8,4.4,0C237.3,101.3,236.1,99.6,234,98.7L234,98.7z"/>
<path class="st23" d="M263.9,253.8c0.2,1.2,0.8,2,1.8,2.9c2.5,1.9,10.2,4.5,10.4,6.8c0,1.1-1.7,1.9-4.8,1.3
	c-1.9-0.4-2.8-1.4-6.5-4.2c-2.6-0.5-3.1-1.3-4.1-2l0.1-2.7c1.7,1.1,2.3,1.4,3.2,1.1l-1.5-2.5L263.9,253.8L263.9,253.8z"/>
<path class="st24" d="M276,263.6c0,0.5-0.4,0.9-1.2,1.2l0.6-1.4L276,263.6L276,263.6z M274.8,264.8c-0.8,0.2-2,0.4-3.8,0
	c-1.8-0.4-2.7-1.1-5.9-3.6c-0.1-0.1-0.4-0.5-0.5-0.6c0,0.1,0,0.1,0,0.4c-0.9-0.2-3.3-1.7-4.2-2.3l0.1-0.8l2,1.2l3.1,1.7
	C270,263.5,270,264.2,274.8,264.8L274.8,264.8z"/>
<path class="st25" d="M272.2,260.2l0.2,0.1c1.2,0.5,3.6,1.7,3.8,3.2c0,0.2-0.1,0.5-0.2,0.8c-0.9-0.1-2-0.4-3.2-0.9
	c-2.7-1.1-5.1-2.6-5.2-3.4C267.3,258.9,269.5,259.2,272.2,260.2L272.2,260.2z"/>
<path class="st26" d="M266.4,257.3c0.2,0.2,0.6,0.4,0.9,0.6l-1.5,1.3l-0.5-0.9L266.4,257.3L266.4,257.3z"/>
<path class="st29" d="M238.5,100.7c0.2,2.2-1.1,3.3-2,4.1c-0.4,0.4-0.8,0.6-0.8,0.9c-0.1,0.2,0.2,0.6,1.3,1.1l-0.1,0.2
	c-1.3-0.5-1.7-1.1-1.5-1.4c0.1-0.4,0.5-0.6,0.9-1.1c0.9-0.8,2.2-1.8,1.9-3.9L238.5,100.7L238.5,100.7z"/>
<path class="st34" d="M233.3,104.1c-0.6,2.7-1.4,9.6,1.9,10.2c2.9,0.6,4.5,0.1,6.9-1.5c1.7-1.1,3.1-3.1,3.9-4.5l-0.8-0.6l-8-3.9
	L233.3,104.1L233.3,104.1z"/>
<path class="st32" d="M247.1,108.3c0.2-0.8,10.6-15.5,1.9-20.1c-2.6-1.4-12.4-1.5-12.2-6c-8,11.2,4,13.9,12.4,13.4
	c-9.6,2.9-0.6,6.8-3.3,11.1h1.3l1.1-1.1L247.1,108.3L247.1,108.3z"/>
<path class="st20" d="M246,108.6c0.9,0.6,2.2,0.2,2.9-0.9c0.8-1.2,0.8-2.7-0.1-3.4c-0.9-0.6-2.2-0.2-2.9,0.9
	C245.1,106.4,245.1,107.8,246,108.6L246,108.6z"/>
<path class="st21" d="M227.2,120l3.4-0.4l3.4-0.8c-0.5,15.3-0.4,18.8,3.2,33.8c5.9-14.1,7.1-18.1,9.6-33.4l8.8,2.8l-0.4,41.8
	c2.7,14,3.3,22.4,5.8,37.9l-14.4,3.3c-7.4,2-6,2.9-6.9-5.4l-2.2-20.5l-1.9,19.8c-0.6,6.2-1.2,7.3-4.6,6.6c-4.5-1.1-6.8-2.6-9.4-5.5
	l4.4-63.3l-0.6-2.6L227.2,120L227.2,120z"/>
<path class="st35" d="M257.1,180.1l-1.1-13.5c-2.9-0.1-6-0.1-9.2-0.1c1.1,5.2,2.2,10.2,3.2,15.4c2.3-0.5,4.5-1.1,6.8-1.5
	L257.1,180.1L257.1,180.1z M255.8,167l1.1,13l-6.2,1.4l-3.1-14.6L255.8,167L255.8,167z"/>
<polygon class="st35" points="249.9,120.2 252.8,133.1 247.6,134.4 252.4,136.7 239.4,152.2 239.2,152 251.9,136.9 246.8,134.3 
	252.4,133 249.4,120.2 "/>
<polygon class="st35" points="232.8,120.6 228.5,129 232.8,133.9 227.5,137.1 236.2,151.8 236,151.9 227.1,137 232.4,133.8 
	228.1,129.2 232.6,120.5 "/>
<polygon class="st36" points="234.2,120.5 236.2,123.6 236.3,123.9 238.8,120.6 241.1,124 246.7,118.9 247.1,119.2 241.1,124.6 
	238.8,121.4 236.3,124.6 234.2,121.4 "/>
<path class="st37" d="M178.4,54.1c-0.2-29.5-21.7-53.2-48.1-53C104,1.4,82.8,25.5,83,54.9c0.2,29.5,21.8,53.2,48.2,52.9
	C157.4,107.6,178.7,83.5,178.4,54.1L178.4,54.1z"/>
<path class="st38" d="M176.7,52.2C176.6,23.1,155.2-0.5,129-0.1S81.9,24,82.1,53.1c0.2,29.2,21.5,52.7,47.7,52.4
	C156,105.3,177,81.4,176.7,52.2L176.7,52.2z"/>
<path class="st18" d="M174.9,51.7c-0.2-28-20.7-50.6-45.8-50.3S83.8,24.5,83.9,52.6c0.2,28,20.7,50.6,45.8,50.4
	C155,102.7,175,79.9,174.9,51.7L174.9,51.7z"/>
<path class="st39" d="M174.9,54.4c-0.2-26.6-19.6-48-43.5-47.7c-23.8,0.3-42.9,22-42.8,48.5c0.2,26.6,19.6,48,43.5,47.7
	C156,102.7,175,81,174.9,54.4L174.9,54.4z"/>
<path class="st34" d="M110.1,27c0-3.2-2.3-5.7-5.2-5.7s-5.1,2.7-5.1,5.9s2.3,5.7,5.2,5.7C107.8,32.8,110.1,30.1,110.1,27L110.1,27z"
	/>
<polygon class="st38" points="160.8,96.1 171.7,82 176.5,86.5 165.5,100.7 "/>
<polygon class="st37" points="166,93 169.9,87.7 253.5,167.6 249.3,172.9 "/>
<path class="st37" d="M193.6,119.6c0.6-0.9,1.3-1.7,2-2.6c0.6-0.9,1.3-1.7,2-2.6c11.4,10.2,22.9,20.5,34.4,30.7
	c11.4,10.2,22.9,20.5,34.4,30.7l-0.1,0.1c2.5,2.5,2.7,6.7,0.5,9.5c-2.2,2.8-5.8,3.1-8.4,0.9v0.1c-10.8-11.1-21.5-22.2-32.4-33.3
	C215.3,141.8,204.5,130.7,193.6,119.6L193.6,119.6z"/>
<path class="st20" d="M242.6,163.8c-5.1-1.1-4.1-0.2-7.1,4c1.7,0,1.9-0.5,2.9-2.2l-1.8,5.5c-0.5,2-0.6,2,0.9,2.9l0.6-2.8
	c0,0.5-0.8,2.9-0.4,3.3c0.2,0.2,1.2,0.9,1.8,0.1l0.6-2.6l-0.4,2c-0.1,0.6,0.2,0.6,0.9,0.9c0.6,0.1,0.9-2.2,1.1-2.8
	c-0.2,1.2-0.1,1.1-0.2,1.7c0,0.6,0.5,1.2,1.3,0.6l0.8-2.6c2.9-4.6,1.5-5.3,6.2-9.5c2.8-2,5.5-4,8.2-5.9l-5.1-3.3
	C249.9,157.1,246.4,160.8,242.6,163.8L242.6,163.8z"/>
<path class="st21" d="M252.8,133.1l3.1-11.1c2.7,0.8,3.2,3.1,3.9,6l6.8,22.6c-9.2,8.4-10.1,8.6-17.8,14.1l-2.3-4.2l10.8-12.7
	L252.8,133.1L252.8,133.1z"/>
<path class="st35" d="M224.4,179v-12.2c2.7-0.4,5.4-0.6,8.1-1.1c-0.6,4.7-1.2,9.4-1.8,14.1c-2-0.2-4.1-0.5-6.2-0.8V179L224.4,179z
	 M224.7,167.2V179l5.8,0.8l1.8-13.4L224.7,167.2L224.7,167.2z"/>
<path class="st20" d="M186,116.9l-1.2-1.2l0.1-2l2-2c0.4,1.2,0.4,0.9-0.1,2l-0.8,1.2L186,116.9L186,116.9z"/>
<path class="st20" d="M194.3,124.8l-8.1-7.8l0.8-2l2.8-2.6l0.4,1.5l1.4-0.2l-0.1,1.4l-0.9,1.1l-1.2,0.6l-0.2,2.6l1.2-1.8l1.8-0.2
	l1.1,0.4c-0.9,1.4-0.6,1.2-2.2,1.2l-0.5,1.7l0.2,0.6C192.6,122.3,194.2,123.3,194.3,124.8L194.3,124.8z"/>
<path class="st40" d="M134.1,2c0.9,0.1,1.8,0.2,2.7,0.4c0,3.8,5.7,4.2,5.3,1.2c0.2,0.1,0.5,0.2,0.7,0.2c0,2,1.8,2.1,2.9,1.1
	c0.7,0.4,1.5,0.6,2.2,1c0.4,2,2.3,3.4,3.4,1.8c0.2,0.1,0.5,0.4,0.7,0.4c-0.1,0-0.1,0.1-0.2,0.2c-2.3,2.1,1.9,5,3.9,2.4
	c0.7,0.5,1.5,1.2,2.2,1.8c-0.4,0.1-0.7,0.1-1.1,0.1c-4-0.4-4.4,6.1-1.6,6c0.6,0,0.7-0.5,1.6-0.5c0.5,0,0.9,0.5,0.9,1.1
	c0,0.6-0.4,1.1-0.9,1.1c-0.7,0-1-0.6-1.6-0.7c-3.1-0.5-2.2,5.1,1.6,4.8c0.4,0,0.9,0,1.5,0.4c0.7,0.4,1.2,1.4,0.9,2.2
	c-0.4,0.9-1.2,1.2-2,1c-0.6-0.4-1-0.7-1.2-1.2c-1.8-2.9-6.8-0.4-4.3,2.1c0.5,0.4,0.9,0.2,1.5,0.9c0.4,0.4,0.4,1.1,0,1.5
	c-0.4,0.4-1,0.5-1.2,0.1c-0.6-0.6-0.4-1.2-0.7-1.7c-1.8-2.7-5.4,2.1-2.4,5.2c0.4,0.4,0.6,0.6,0.9,1.4c0.4,0.9-0.1,1.9-0.9,2.2
	c-0.8,0.4-1.7-0.1-2-1c-0.4-0.7-0.2-1.2-0.1-1.8c0.6-3.5-4.4-5.9-4.2-1.9c0,0.7,0.5,0.9,0.5,1.8c0,0.5-0.4,1-1,1s-1-0.4-1-1
	c0-0.9,0.5-1.1,0.6-1.8c0.6-3.8-5.9-2.3-5.3,1.8c0.1,0.5,0.1,1.1-0.2,1.8c-0.4,0.9-1.2,1.2-2,0.9c-0.7-0.4-1.1-1.5-0.7-2.3
	c0.4-0.7,0.6-1.1,1-1.4c2.9-2.7,0.2-7.6-1.7-4.8c-0.4,0.5-0.1,1.2-0.7,1.7c-0.4,0.4-1,0.4-1.2-0.1c-0.3-0.4-0.4-1.1,0-1.5
	c0.6-0.6,1.1-0.4,1.5-0.9c2.7-2.4-2.4-6-4.4-2.7c-0.4,0.4-0.5,0.9-1.2,1.2c-0.7,0.4-1.7-0.1-2-1c-0.4-0.9,0.1-1.9,0.9-2.2
	c0.6-0.4,1.2-0.4,1.5-0.4c3.8,0.4,4.4-5.1,1.6-4.5c-0.6,0.1-0.7,0.7-1.6,0.7c-0.5,0-0.9-0.5-0.9-1.1c0-0.6,0.4-1.1,0.9-1.1
	c0.9,0,1,0.5,1.6,0.5c3.1,0.2,2-5.7-1.6-5.4c-0.4,0-0.9,0-1.5-0.4c-0.7-0.4-1.2-1.4-0.9-2.2c0.4-0.9,1.2-1.2,2-1
	c0.6,0.4,1,0.7,1.2,1.2c2.1,3.5,6.7-0.6,4.4-2.7c-0.5-0.4-0.9-0.2-1.5-0.9c-0.4-0.4-0.4-1.1,0-1.5s1-0.5,1.2-0.1
	c0.6,0.6,0.4,1.2,0.7,1.7c1.9,2.8,4.5-2.1,1.7-4.8C134.4,2.5,134.2,2.3,134.1,2L134.1,2z M154.4,96.1c-0.4,0.2-0.5,0.4-0.9,0.5
	l-0.1-0.1c-1-0.7-1.7,0.2-1.6,1.2c-1.4,0.9-2.8,1.6-4.2,2.2c-0.4,0-0.9,0.2-1.2,0.5c-0.5,0.2-1.1,0.4-1.7,0.6
	c-0.4-1.2-1.6-2.1-2.2-0.5c-0.1,0.4,0.1,0.6-0.2,1.2c0,0.1-0.1,0.2-0.2,0.2c-0.1,0-0.2,0.1-0.4,0.1c-0.1,0-0.2,0-0.2-0.1
	c-0.4-0.2-0.4-0.5-0.4-0.9c0.2-0.5,0.6-0.4,0.9-0.9c1.2-2-2.8-3.1-3.5-0.6c-0.1,0.4-0.2,0.6-0.5,1c-0.4,0.4-1.1,0.4-1.4-0.1
	c-0.4-0.4-0.4-1.2,0.1-1.6c0.4-0.4,0.6-0.4,0.9-0.5c2.4-0.6,2-4.3,0.2-3.3c-0.4,0.2-0.4,0.6-0.9,0.7c-0.4,0.1-0.6-0.1-0.7-0.5
	c-0.1-0.4,0.1-0.7,0.4-0.9c0.5-0.2,0.6,0.1,1.1,0c2.1-0.6,0.1-4.3-1.9-2.8c-0.2,0.2-0.5,0.4-1.1,0.4c-0.5,0-1-0.5-1-1.2
	s0.5-1.1,1.1-1.1c0.4,0,0.7,0.2,1,0.4c2.1,1.4,3.7-1.6,2-2.1c-0.4-0.1-0.6,0.2-1.1,0c-0.4-0.1-0.4-0.5-0.2-0.9
	c0.1-0.4,0.5-0.5,0.7-0.4c0.5,0.4,0.4,0.5,0.7,0.7c1.7,1.1,2.6-2.7,0.4-3.6c-0.2-0.1-0.5-0.2-0.9-0.6c-0.4-0.4-0.4-1.2,0.1-1.6
	c0.4-0.4,1.1-0.4,1.4,0.1c0.4,0.4,0.4,0.7,0.4,1.1c0.4,2.7,4,1.7,3.2-0.2c-0.2-0.4-0.4-0.4-0.6-1c-0.1-0.4,0-0.7,0.4-0.9
	c0.4-0.1,0.6,0,0.7,0.4c0.2,0.5-0.1,0.7,0,1.2c0.4,2.1,3.2,0.1,2.1-2.2c-0.1-0.2-0.2-0.5-0.2-1.1c0-0.6,0.4-1.1,1-1.1s1,0.5,1,1.1
	c0,0.5-0.2,0.9-0.4,1.2c-1.4,2.3,2.1,4.5,2.7,2.7c0.1-0.4-0.2-0.7,0-1.2c0.1-0.4,0.5-0.4,0.9-0.4c0.4,0.2,0.4,0.5,0.4,0.9
	c-0.2,0.5-0.5,0.5-0.7,0.9c-1.1,2.1,2.4,2.4,2.8,0.2c0.1-0.4,0.1-0.6,0.5-1.1c0.4-0.4,1.1-0.4,1.4,0.1c0.4,0.4,0.4,1.2,0,1.6
	c-0.4,0.4-0.6,0.4-0.9,0.5c-2.4,0.9-1.5,4.6,0.1,3.7c0.4-0.2,0.4-0.6,0.9-0.7c0.4-0.1,0.6,0.1,0.7,0.5c0.1,0.4-0.1,0.7-0.4,0.9
	c-0.5,0.2-0.6-0.1-1.1,0c-1.9,0.5,0,3.7,1.9,2.4c0.2-0.2,0.5-0.4,1.1-0.4s1,0.5,1,1.2c0,0.6-0.5,1.1-1.1,1.1c-0.4,0-0.7-0.2-1-0.4
	c-2.2-1.4-4,2.2-2.3,2.9C154,96.1,154.1,96.1,154.4,96.1L154.4,96.1z M99,90.6c-0.4-0.4-0.7-0.7-1.1-1.2c1.1-2.6-1.2-5.5-2.8-3.2
	c-0.2-0.2-0.4-0.4-0.5-0.6c2-1.9-0.5-4.4-2.7-3.9c-0.4-0.4-0.5-0.9-0.7-1.4c2-1.2,1.9-4.5-0.2-4.2c-0.6,0.1-0.7,0.7-1.5,0.7
	c-0.4-0.5-0.5-1.2-0.7-1.7c0.1-0.4,0.4-0.4,0.7-0.4c0.9,0,1,0.5,1.6,0.5c3.1,0.2,2-5.7-1.6-5.4c-0.4,0-0.9,0-1.5-0.4
	c-0.7-0.4-1.2-1.4-0.9-2.2c0.4-0.9,1.2-1.2,2-1c0.6,0.4,1,0.7,1.2,1.2c2.1,3.5,6.7-0.6,4.4-2.7c-0.5-0.4-0.9-0.2-1.5-0.9
	c-0.4-0.4-0.4-1.1,0-1.5c0.4-0.4,1-0.5,1.2-0.1c0.6,0.6,0.4,1.2,0.7,1.7c1.9,2.8,4.5-2.1,1.7-4.8c-0.4-0.4-0.6-0.6-1-1.4
	c-0.4-0.9,0-1.9,0.7-2.3c0.7-0.4,1.7,0,2,0.9c0.4,0.7,0.2,1.2,0.2,1.8c-0.5,4.3,5.7,4.8,5.3,1.8c-0.1-0.7-0.6-0.9-0.6-1.8
	c0-0.5,0.4-1,1-1c0.5,0,1,0.4,1,1c0,1-0.4,1.1-0.5,1.8c-0.2,3.8,4.9,1.6,4.2-1.9c-0.1-0.5-0.2-1.1,0.1-1.8c0.4-0.9,1.2-1.2,2-1
	c0.7,0.4,1.2,1.4,0.9,2.2c-0.4,0.7-0.5,1.1-0.9,1.4c-2.9,2.9,0.7,7.6,2.4,5.2c0.4-0.5,0.1-1.2,0.7-1.7c0.4-0.4,1-0.4,1.2,0.1
	c0.4,0.4,0.4,1.1,0,1.5c-0.6,0.6-1.1,0.4-1.5,0.9c-2.3,2.2,2.3,5.3,4.3,2.1c0.4-0.4,0.5-0.9,1.2-1.2c0.7-0.4,1.7,0.1,2,1
	c0.4,0.9-0.1,1.9-0.9,2.2c-0.6,0.4-1.2,0.4-1.5,0.4c-4-0.4-4.4,6.1-1.6,6c0.6,0,0.7-0.5,1.6-0.5c0.5,0,0.9,0.5,0.9,1.1
	c0,0.6-0.4,1.1-0.9,1.1c-0.7,0-1-0.6-1.6-0.7c-3.1-0.5-2.2,5.1,1.6,4.8c0.4,0,0.9,0,1.5,0.4c0.7,0.4,1.2,1.4,0.9,2.2
	c-0.4,0.9-1.2,1.2-2,1c-0.6-0.4-1-0.7-1.2-1.2c-1.8-2.9-6.8-0.4-4.3,2.1c0.5,0.4,0.9,0.2,1.5,0.9c0.4,0.4,0.4,1.1,0,1.5
	c-0.4,0.4-1,0.5-1.2,0.1c-0.6-0.6-0.4-1.2-0.7-1.7c-1.8-2.7-5.4,2.1-2.4,5.2c0.4,0.4,0.6,0.6,0.9,1.4c0.4,0.9-0.1,1.9-0.9,2.2
	c-0.8,0.4-1.7-0.1-2-1c-0.4-0.7-0.2-1.2-0.1-1.8c0.6-3.5-4.4-5.9-4.2-1.9c0,0.7,0.5,0.9,0.5,1.8c0,0.5-0.4,1-1,1c-0.5,0-1-0.4-1-1
	c0-0.9,0.5-1.1,0.6-1.8C104.7,86.8,99.8,87.7,99,90.6L99,90.6z M157.4,68.3c-0.1,0.2-0.2,0.4-0.2,0.6c0,0.4,0.2,0.7,0.5,0.7
	s0.6-0.4,0.6-0.6c0-0.4,0-0.5-0.1-0.6c-0.6-1.7,1.4-2.7,1.7-1.4c0,0.4-0.1,0.4,0,0.7c0.1,0.2,0.4,0.4,0.5,0.2
	c0.2-0.1,0.4-0.4,0.2-0.5c-0.1-0.4-0.4-0.4-0.4-0.5c-0.5-1.4,1.6-1.4,1.8,0.1c0,0.2,0.1,0.4,0.2,0.6c0.2,0.4,0.6,0.4,0.9,0
	c0.2-0.4,0.4-0.6,0-1c-0.2-0.2-0.4-0.4-0.5-0.4c-1.4-0.6-0.9-2.8,0.2-2c0.2,0.2,0.2,0.4,0.4,0.5c0.2,0.1,0.4,0,0.5-0.2
	s0-0.4-0.1-0.5c-0.4-0.2-0.4,0-0.6-0.1c-1.1-0.5,0.1-2.8,1.5-1.8c0.1,0.1,0.4,0.2,0.6,0.2s0.6-0.4,0.6-0.6c0-0.4-0.2-0.7-0.5-0.7
	c-0.4,0-0.4,0.1-0.6,0.2c-1.2,0.7-2.4-1.2-1.2-1.6c0.2-0.1,0.4,0.1,0.6,0c0.2-0.1,0.4-0.4,0.2-0.5c-0.1-0.2-0.2-0.4-0.4-0.4
	c-0.4,0.1-0.4,0.4-0.5,0.5c-1,0.5-1.6-1.8-0.1-2.3c0.1,0,0.4-0.1,0.5-0.4c0.2-0.2,0.2-0.6,0-1c-0.2-0.4-0.6-0.4-0.9,0
	c-0.2,0.2-0.4,0.4-0.4,0.6c-0.4,1.4-2.4,1.2-1.8-0.1c0.1-0.2,0.4-0.2,0.4-0.5c0.1-0.2,0-0.4-0.2-0.5s-0.4,0-0.5,0.2
	c-0.1,0.4,0,0.5,0,0.7c-0.4,1.2-2.4-0.2-1.6-1.6c0.1-0.2,0.2-0.4,0.2-0.7c0-0.4-0.4-0.6-0.6-0.6s-0.6,0.4-0.6,0.6
	c0,0.4,0.1,0.5,0.1,0.6c0.6,1.5-1.1,2.8-1.2,1.4c0-0.4,0.1-0.4,0-0.7c-0.1-0.2-0.4-0.4-0.5-0.2c-0.2,0.1-0.4,0.4-0.2,0.5
	c0.1,0.4,0.4,0.4,0.4,0.5c0.5,1.2-1.8,1.8-2,0.1c0-0.2-0.1-0.4-0.2-0.6c-0.2-0.4-0.6-0.4-0.9,0c-0.2,0.4-0.4,0.6,0,1
	c0.2,0.2,0.4,0.4,0.5,0.4c1.4,0.6,0.9,2.9-0.2,2.2c-0.2-0.1-0.2-0.4-0.5-0.5c-0.2-0.1-0.4,0-0.5,0.2c-0.1,0.2,0,0.4,0.1,0.5
	c0.4,0.1,0.4,0,0.6,0c1.1,0.4,0,2.1-1.2,1.4c-0.1-0.1-0.4-0.2-0.6-0.2s-0.6,0.4-0.6,0.6c0,0.4,0.2,0.7,0.5,0.7s0.4-0.1,0.6-0.2
	c1.2-0.9,2.6,1.5,1.2,1.8c-0.2,0.1-0.4-0.1-0.6,0c-0.2,0.1-0.4,0.4-0.2,0.5c0.1,0.2,0.2,0.4,0.4,0.4c0.4-0.1,0.4-0.4,0.5-0.5
	c1.2-0.6,1.4,1.6-0.1,2c-0.1,0-0.4,0.1-0.5,0.4s-0.4,0.6-0.1,1c0.2,0.4,0.6,0.4,0.9,0.1c0.2-0.2,0.4-0.4,0.4-0.6
	c0.4-1.6,2.9-1,2.1,0.4c-0.1,0.2-0.4,0.2-0.5,0.5c-0.1,0.2,0,0.4,0.2,0.5s0.4,0,0.5-0.2c0.1-0.4,0-0.5,0.1-0.7
	C156.8,65.3,158.2,67.1,157.4,68.3L157.4,68.3z M117.4,48.1c-0.1,0.2-0.2,0.4-0.2,0.6c0,0.4,0.2,0.7,0.5,0.7s0.6-0.4,0.6-0.6
	c0-0.4,0-0.5-0.1-0.6c-0.6-1.7,1.4-2.7,1.7-1.4c0,0.4-0.1,0.4,0,0.7c0.1,0.2,0.4,0.4,0.5,0.2c0.2-0.1,0.4-0.4,0.2-0.5
	c-0.1-0.4-0.4-0.4-0.4-0.5c-0.5-1.4,1.6-1.4,1.8,0.1c0,0.2,0.1,0.4,0.2,0.6c0.2,0.4,0.6,0.4,0.9,0c0.2-0.2,0.4-0.6,0-1
	c-0.2-0.2-0.4-0.4-0.5-0.4c-1.4-0.6-0.9-2.8,0.2-2c0.2,0.2,0.2,0.4,0.4,0.5c0.2,0.1,0.4,0,0.5-0.2c0.1-0.2,0-0.4-0.1-0.5
	c-0.4-0.2-0.4,0-0.6-0.1c-1.1-0.5,0.1-2.8,1.5-1.8c0.1,0.1,0.4,0.2,0.6,0.2s0.6-0.4,0.6-0.6c0-0.4-0.2-0.7-0.5-0.7
	c-0.4,0-0.4,0.1-0.6,0.2c-1.2,0.7-2.4-1.2-1.2-1.6c0.2-0.1,0.4,0.1,0.6,0c0.2-0.1,0.4-0.4,0.2-0.5c-0.1-0.2-0.2-0.4-0.4-0.4
	c-0.4,0.1-0.4,0.4-0.5,0.5c-1,0.5-1.6-1.8-0.1-2.3c0.1,0,0.4-0.1,0.5-0.4c0.2-0.2,0.2-0.6,0-1c-0.2-0.4-0.6-0.4-0.9,0
	c-0.2,0.2-0.4,0.4-0.4,0.6c-0.4,1.4-2.4,1.2-1.8-0.1c0.1-0.2,0.4-0.2,0.4-0.5c0.1-0.2,0-0.4-0.2-0.5s-0.4,0-0.5,0.2
	c-0.1,0.4,0,0.5,0,0.7c-0.4,1.2-2.4-0.2-1.6-1.6c0.1-0.2,0.2-0.4,0.2-0.7c0-0.4-0.4-0.6-0.6-0.6c-0.4,0-0.6,0.4-0.6,0.6
	c0,0.3,0.1,0.5,0.1,0.6c0.6,1.5-1.1,2.8-1.2,1.4c0-0.4,0.1-0.4,0-0.7c-0.1-0.2-0.4-0.4-0.5-0.2c-0.2,0.2-0.4,0.4-0.2,0.5
	c0.1,0.4,0.4,0.4,0.4,0.5c0.5,1.2-1.8,1.8-2,0.1c0-0.2-0.1-0.4-0.2-0.6c-0.2-0.4-0.6-0.4-0.9,0c-0.2,0.4-0.4,0.6,0,1
	c0.2,0.2,0.4,0.4,0.5,0.4c1.4,0.6,0.9,2.9-0.2,2.2c-0.2-0.1-0.2-0.4-0.5-0.5c-0.2-0.1-0.4,0-0.5,0.2c-0.1,0.2,0,0.4,0.1,0.5
	c0.4,0.1,0.4,0,0.6,0c1.1,0.4,0,2.1-1.2,1.4c-0.1-0.1-0.4-0.2-0.6-0.2s-0.6,0.4-0.6,0.6c0,0.4,0.2,0.7,0.5,0.7
	c0.4,0,0.4-0.1,0.6-0.2c1.2-0.9,2.6,1.5,1.2,1.8c-0.2,0.1-0.4-0.1-0.6,0c-0.2,0.1-0.4,0.4-0.2,0.5c0.1,0.2,0.4,0.4,0.4,0.4
	c0.4-0.1,0.4-0.4,0.5-0.5c1.2-0.6,1.4,1.6-0.1,2c-0.1,0-0.4,0.1-0.5,0.4c-0.2,0.2-0.4,0.6-0.1,1c0.2,0.4,0.6,0.4,0.9,0.1
	c0.2-0.2,0.4-0.4,0.4-0.6c0.4-1.6,2.9-1,2.1,0.4c-0.1,0.2-0.4,0.2-0.5,0.5c-0.1,0.2,0,0.4,0.2,0.5s0.4,0,0.5-0.2
	c0.1-0.4,0-0.5,0.1-0.7C116.7,45.3,118.2,47.1,117.4,48.1L117.4,48.1z M133.4,69.7c-0.2,0.4-0.4,0.5-0.4,1.1c0,0.6,0.4,1.2,1,1.2
	c0.5,0,1.1-0.4,1.1-1.1c0-0.5-0.1-0.9-0.1-1.1c-1-2.7,2.2-4.4,2.7-2.2c0.1,0.4-0.2,0.7,0,1.2c0.1,0.4,0.4,0.4,0.7,0.4
	c0.3-0.1,0.5-0.5,0.4-0.9c-0.2-0.5-0.5-0.5-0.6-1c-1-2.2,2.7-2.2,2.9,0.1c0,0.4,0.1,0.6,0.4,1.1c0.4,0.4,1,0.5,1.4,0.1
	c0.4-0.4,0.4-1.1,0.1-1.6c-0.4-0.4-0.5-0.5-0.9-0.6c-2.2-1-1.4-4.5,0.4-3.3c0.4,0.4,0.4,0.6,0.7,1c0.4,0.1,0.6,0,0.7-0.4
	s0-0.7-0.2-0.9c-0.5-0.4-0.6,0-1.1-0.2c-1.7-0.7,0.1-4.4,2.3-2.9c0.2,0.1,0.5,0.4,1,0.4c0.5,0,1.1-0.4,1.1-1.1s-0.4-1.2-1-1.2
	s-0.7,0.1-1.1,0.4c-1.9,1.2-3.8-1.9-1.9-2.4c0.4-0.1,0.5,0.2,1.1,0c0.4-0.1,0.4-0.5,0.4-0.9c-0.1-0.4-0.4-0.5-0.7-0.5
	c-0.5,0.2-0.4,0.5-0.9,0.7c-1.6,0.9-2.6-2.8-0.1-3.7c0.2-0.1,0.5-0.2,0.9-0.5c0.4-0.4,0.4-1.1,0-1.6c-0.4-0.4-1-0.4-1.4-0.1
	c-0.4,0.4-0.4,0.7-0.5,1.1c-0.4,2.2-3.9,1.9-2.8-0.2c0.2-0.4,0.5-0.4,0.7-0.9c0.1-0.4,0-0.7-0.4-0.9s-0.6,0-0.9,0.4
	c-0.2,0.5,0.1,0.7,0,1.2c-0.5,1.9-4-0.4-2.7-2.7c0.2-0.4,0.4-0.5,0.4-1.2s-0.4-1.1-1-1.1s-1,0.5-1,1.1c0,0.5,0.1,0.9,0.2,1.1
	c1.1,2.3-1.7,4.4-2.1,2.2c-0.1-0.4,0.2-0.7,0-1.2c-0.1-0.4-0.4-0.5-0.7-0.4c-0.4,0.1-0.5,0.5-0.4,0.9c0.2,0.5,0.5,0.5,0.6,1
	c0.7,1.9-2.8,2.8-3.2,0.2c0-0.4-0.1-0.6-0.4-1.1c-0.4-0.4-1-0.5-1.4-0.1c-0.4,0.4-0.4,1.1-0.1,1.6c0.4,0.4,0.5,0.5,0.9,0.6
	c2.2,1,1.4,4.6-0.4,3.6c-0.4-0.2-0.4-0.5-0.7-0.7c-0.4-0.1-0.6,0-0.7,0.4c-0.1,0.4,0,0.7,0.2,0.9c0.4,0.2,0.6-0.1,1.1,0
	c1.7,0.5,0.1,3.5-2,2.1c-0.2-0.1-0.5-0.4-1-0.4c-0.5,0-1.1,0.4-1.1,1.1s0.4,1.2,1,1.2c0.5,0,0.7-0.1,1.1-0.4c2-1.2,4,2.3,1.9,2.8
	c-0.4,0.1-0.5-0.2-1.1,0c-0.4,0.1-0.4,0.5-0.4,0.9s0.4,0.5,0.7,0.5c0.5-0.2,0.4-0.5,0.9-0.7c1.8-1.1,2.2,2.7-0.2,3.3
	c-0.2,0.1-0.5,0.2-0.9,0.5c-0.4,0.4-0.5,1.1-0.1,1.6c0.4,0.4,1,0.5,1.4,0.1c0.4-0.4,0.4-0.6,0.5-1c0.6-2.6,4.8-1.5,3.5,0.6
	c-0.2,0.4-0.6,0.4-0.9,0.9c-0.1,0.4,0,0.7,0.4,0.9s0.6,0,0.9-0.4c0.2-0.5,0-0.7,0.2-1.2C132.3,65,134.7,67.9,133.4,69.7L133.4,69.7z
	"/>
<path class="st41" d="M119.4,201.1c3.2,0,6.5,0,9.7,0c0-3.6,0-7.2,0-10.6c0-2.4-1.3-3-3-4.9h-3.6c-1.7,1.6-3.2,2.2-3.2,4.7
	C119.4,193.8,119.4,197.4,119.4,201.1L119.4,201.1z"/>
<polygon class="st15" points="122.1,182 126.4,182 126.4,185.5 122.1,185.5 "/>
<polygon class="st11" points="122.1,184.8 126.4,184.8 126.4,185.5 122.1,185.5 "/>
<polygon class="st15" points="121.8,199.3 129.1,199.3 129.1,191 121.8,191 "/>
<path class="st42" d="M100.6,240.1c3.2,0,6.5,0,9.7,0c0-3.6,0-7.2,0-10.6c0-2.4-1.3-3-3-4.9h-3.6c-1.7,1.6-3.2,2.2-3.2,4.7
	C100.6,232.8,100.6,236.6,100.6,240.1L100.6,240.1z"/>
<polygon class="st15" points="103.4,221.2 107.7,221.2 107.7,224.5 103.4,224.5 "/>
<polygon class="st11" points="103.4,223.8 107.7,223.8 107.7,224.5 103.4,224.5 "/>
<polygon class="st15" points="103.1,238.6 110.3,238.6 110.3,230.2 103.1,230.2 "/>
<path class="st43" d="M126.8,240.4h9.8v-1.4h-1.2c2.8-1.4,4.6-4.6,4.6-8.2c0-4.2-2.4-7.6-5.8-8.8v-12h0.7v-1.9h-6.6v1.9h1v12.1
	c-3.1,1.3-5.4,4.6-5.4,8.6c0,3.6,1.9,6.7,4.6,8.2h-1.7V240.4L126.8,240.4z"/>
<path class="st44" d="M135.2,238.3c2.5-1.4,4.3-4.3,4.3-7.6c0-3.7-2.2-6.8-5.3-8l-0.5-0.1v-13.3h0.7v-0.5h-5.4v0.5h1v13.3l-0.5,0.1
	c-3,1.2-5,4.3-5,7.9c0,3.2,1.7,6.1,4.3,7.6C131.4,239.4,132.6,239.3,135.2,238.3L135.2,238.3z"/>
<path class="st11" d="M135.2,238.3c2.5-1.4,4.3-4.3,4.3-7.6c0-2.9-1.3-5.4-3.5-7l-11.3,9.5c0.6,2.3,2,4.2,4,5.2
	C131.4,239.4,132.6,239.3,135.2,238.3L135.2,238.3z"/>
<path class="st8" d="M132,239.2c4.2,0,7.6-3.8,7.6-8.6c0-0.5,0-0.8-0.1-1.3h-15c0,0.5-0.1,0.8-0.1,1.3
	C124.4,235.3,127.8,239.2,132,239.2L132,239.2z"/>
<path class="st9" d="M132,239.2c4.2,0,7.6-3.8,7.6-8.6c0-0.5,0-0.8-0.1-1.3h-10.1l-4.7,4C125.6,236.6,128.5,239.2,132,239.2
	L132,239.2z"/>
<path class="st43" d="M114.2,240.1c1.9,0,3.7,0,5.6,0s3.7,0,5.6,0c0.7,0,1.2-0.5,1-1.2c-1-2.8-1.9-5.3-2.9-8l-1.7-4.7V220h0.5v-1.6
	h-5v1.6h0.6v6.6l-1.6,4.4c-1,2.8-1.9,5.3-2.9,8C112.9,239.8,113.4,240.1,114.2,240.1L114.2,240.1z"/>
<path class="st44" d="M121.6,219.6v-0.7h-4.3v0.7h0.7v7.2l-1.6,4.6c-1,2.8-1.9,5.3-2.9,8c-0.1,0.5,0.5,0.6,0.6,0.6
	c1.9,0,3.7,0,5.6,0s3.7,0,5.6,0c0.2,0,0.8-0.1,0.6-0.6c-1-2.8-1.9-5.3-2.9-8l-1.7-4.9v-6.8H121.6L121.6,219.6z"/>
<path class="st45" d="M125.5,239.3c-1-2.5-1.9-5.3-2.9-7.9l-0.2-1h-5.2l-0.2,1c-1,2.5-1.9,5.3-2.9,7.9c0.1,0,0.1,0,0.2,0
	c1.9,0,3.7,0,5.6,0C121.8,239.3,123.7,239.3,125.5,239.3C125.2,239.3,125.4,239.3,125.5,239.3L125.5,239.3z"/>
<path class="st46" d="M119.5,234.6c0.5,0,0.7-0.5,0.7-0.8s-0.2-0.8-0.7-0.8s-0.7,0.5-0.7,0.8C118.8,234.1,119,234.6,119.5,234.6
	L119.5,234.6z"/>
<path class="st46" d="M117.2,237.1c0.5,0,0.7-0.5,0.7-0.8s-0.2-0.8-0.7-0.8s-0.7,0.5-0.7,0.8C116.5,236.9,117,237.1,117.2,237.1
	L117.2,237.1z"/>
<path class="st46" d="M117.3,234.6c0.2,0,0.5-0.2,0.5-0.5c0-0.1-0.1-0.5-0.5-0.5c-0.2,0-0.5,0.2-0.5,0.5
	C117,234.2,117.2,234.6,117.3,234.6L117.3,234.6z"/>
<polygon class="st20" points="80.2,149.7 86.4,144.5 84.5,149.1 77.7,154.2 69.8,143.3 72.5,139 "/>
<path class="st47" d="M60.4,120.7c0-0.9-3.1-1.2-3.8-1.3c-0.2,0-3.4-0.8-3.6-0.5c-0.1,0.4,0.5,1.2,0.9,1.4c1.4,0.8,1.9,1.1,3.6,1.2
	C59.2,121.7,60.1,120.9,60.4,120.7L60.4,120.7L60.4,120.7z"/>
<path class="st48" d="M73.3,171.5l1.1,28.9c-14.4,2.3-13.4,2.6-27.2-2l2.6-31.3L73.3,171.5L73.3,171.5z"/>
<path class="st49" d="M62,180.5l9-6.5c-0.4,17.6-0.9,18.1-4.7,35.4c-2.5,14.1-11.7,40.1-6.5,46.6l4.1,5.3l-1.1,1.2l-2.3-0.6l-7.8-10
	c0.6-2.6-1.2-3.8,1.3-4.2c1.3-0.2,1.2-4.7,1.2-8.5c0-10,0.8-19.7,4-30.7L62,180.5L62,180.5z"/>
<path class="st50" d="M61.8,259.4l-1.3-2.3l2.3,3.1c1.5,2,1.2,2.7-0.9,2.8c-2.2,0-3.3-0.2-4.2-1.5c-0.2-0.4-0.5-0.8-0.6-1.3
	c-0.9-2.2-0.6-2-2-4.1l0.2,5.6h-0.6l-0.9-7.2c-1.5-2.9-1.9-5.5,0.4-6.8c-0.4,5.8,0.4,5.2,3.4,9.6C58.7,258.8,60.1,260.9,61.8,259.4
	L61.8,259.4z"/>
<path class="st49" d="M57.2,178.4l5.1,4.7l-8.4,25.5c-2,8.6-6.2,20.8-9,28.8c-3.1,9.2-3.2,7.8-3.4,16.8c0,1.8-0.1,3.6-0.4,6l-4,0.1
	l-0.1-6.2v-1.7l-1.1-4.4c3.3-2.7,2.8-3.8,3.6-8.5c1.2-7.4,2.3-21.9,7.1-29.9c1.7-2.9,1.7-1.5,2.3-5.4l0.9-24.8L57.2,178.4
	L57.2,178.4z"/>
<path class="st51" d="M62.2,108.4l-5.9-11.2l5.3,1.7C62.8,103.6,62.6,103.6,62.2,108.4L62.2,108.4z"/>
<path class="st51" d="M62.2,108.4l-5.9-11.2l5.3,1.7C62.8,103.6,62.6,103.6,62.2,108.4L62.2,108.4z"/>
<path class="st20" d="M51.8,114l4.8-0.6c0.5,2.8,0.8,4.6,1.3,5.8c0.2,0.9,0.6,1.5,1.3,2c1.1,1.1,2.8,0.9,5.8,1.3
	c-0.9,3.1-3.2,4.6-3.4,7.2c-4.6-1.4-9.9,0.1-12.4-4C55.7,123.6,53.2,121.7,51.8,114L51.8,114z"/>
<path class="st20" d="M51.8,114l4.8-0.6c0.5,2.8,0.8,4.6,1.3,5.8c0.2,0.9,0.6,1.5,1.3,2c1.1,1.1,2.8,0.9,5.8,1.3
	c-0.9,3.1-3.2,4.6-3.4,7.2c-4.6-1.4-9.9,0.1-12.4-4C55.7,123.6,53.2,121.7,51.8,114L51.8,114z"/>
<path class="st52" d="M52.9,113.9l4.8,0.1c0.1,3.4-0.9,3.8,1.1,6.8c-1.9-0.5-4.1-1.8-5.5-3.3C53.1,116.5,52.9,115.3,52.9,113.9
	L52.9,113.9z"/>
<path class="st20" d="M62.2,108.4c0,0,0,9.8-2.6,9.6c-2.2-0.1-6.6-1.2-8.2-4.5c-2.3-4.6-5.6-8.8-0.9-13c1.9-1.7,4.6-2.5,6.9-1.9
	c1.4,0.2,3.6,1.4,3.8,4.6C61.1,107.1,62,106.8,62.2,108.4L62.2,108.4z"/>
<path class="st53" d="M49.2,103.1c6,4.6-0.6,4.8,3.3,13.8C45.8,114,42,105.4,45.8,101c2.3-9,17.1-8.7,19.2,2.8
	C62.1,95.9,54.5,104.5,49.2,103.1L49.2,103.1z"/>
<path class="st20" d="M51.4,113.9c0.4-0.6,0.1-1.8-0.4-2.7c-0.6-0.9-1.4-1.3-1.7-0.6c-0.4,0.6-0.1,1.8,0.4,2.7
	C50.2,114.1,51.1,114.5,51.4,113.9L51.4,113.9z"/>
<path class="st52" d="M57.5,107c1.1,1.9,1.7,2.9,2.3,4.1l-1.9,0.8l-0.1-0.4l1.5-0.5C59.3,110.7,58.4,109,57.5,107L57.5,107z"/>
<path class="st51" d="M52.4,105.7c-0.6,0.2-1.3,0.8-1.5,1.4c1.4-1.8,3.3-0.9,4.5-0.2C54.8,105.6,53.8,105.3,52.4,105.7L52.4,105.7z"
	/>
<path class="st51" d="M59.9,103.3c0.6-0.1,1.3,0,1.8,0.4c-1.8-0.6-2.9,1.1-3.6,2C57.9,104.5,58.6,103.6,59.9,103.3L59.9,103.3z"/>
<path class="st50" d="M38.8,264.9c-0.6-0.1-3.1-1.5-3.3-2.2c-0.4-0.9,0-2.5,0.6-5.9l-0.8-4l-1.2,7.3h-0.4c0.2-2.8,0.5-5.5,0.8-8.4
	c0.2-3.2,0.4-2.3,2.3-4.7c-1.5,4.8,1.4,4.6,0.5,11.5c0.8,1.1,0.8,1.2,3.8,1.2c0.1,1.1,0.1,2.2,0.2,3.2
	C41.5,265,40.7,265.1,38.8,264.9L38.8,264.9z"/>
<path class="st51" d="M50.5,104.1c3.3,2.7-0.5,4.8,1.5,10.1C48.7,106.7,52.2,108,50.5,104.1L50.5,104.1z M64,100.7
	c0.4,0.9,0.6,1.8,0.8,2.8c-2.8-7.5-10,0.4-15.3-0.6c-0.4-0.2-0.8-0.6-1.2-1.1C53.4,103.3,60.4,96.1,64,100.7L64,100.7z"/>
<path class="st34" d="M62.7,109.1c0.4,4.4-0.9,8-2.6,9c-2.5,0.5-7.3-0.8-8.7-4l-0.4-1.1l0.4,0.2v-0.6l-1.7-3.1l1.9,2.3l5.5-1.4
	l1.4-1.5l2,0.6L62.7,109.1L62.7,109.1z"/>
<path class="st33" d="M54.8,109c0.2-0.1,0.5-0.4,0.4-0.8c0-0.4-0.4-0.6-0.6-0.5s-0.5,0.4-0.4,0.8C54.4,108.9,54.6,109.1,54.8,109
	L54.8,109z"/>
<path class="st33" d="M60.4,107.1c0.2-0.1,0.5-0.4,0.4-0.8c-0.1-0.4-0.4-0.6-0.6-0.5s-0.5,0.5-0.5,0.9
	C59.8,107,60.1,107.2,60.4,107.1L60.4,107.1z"/>
<path class="st54" d="M52.9,122.5l7.1-0.4l2.5,7.5v1.5l3.9,2.6l4.7,37.3l2.2,32.7c-3.9-0.5-11.3,5.8-26.4,0.2l0.9-2.7l6.2-34.7
	l-2.7-25.4l6.1-8.8L52.9,122.5L52.9,122.5z"/>
<path class="st55" d="M65.7,121.9l-6.5-0.5c3.1,6.9,2.3,9.9,3.3,18.1c-5.2-11.7-7.1-10.4-9.2-17.1l-8.1,3.1l4.8,16.2
	c1.2,5.5,2.2,9.8,2,12c-0.4,4.4-4.4,4.5-5.2,13.9c-0.8,9.8,0.6,21.5-1.1,33.5l13,3.2c2.9-9.4,3.9-13.8,4.8-23.5
	c0,11.4-0.8,15.1-1.5,23.9l11.8-4.1c0.1-20.5-0.8-36-2.9-56.3l1.2-5.5l-4.4-6.7C67.9,127.7,68.1,122.4,65.7,121.9L65.7,121.9z"/>
<path class="st35" d="M73.9,178.3v-0.2l-2.9,0.2l-1.5-12l3.9,0.5v-0.3l-4.1-0.5c0.5,4.2,1.1,8.4,1.5,12.5L73.9,178.3L73.9,178.3z"/>
<path class="st56" d="M53.4,122.4l-0.4-3.1c0.5,1.7,5.6,1.9,7.4,1.4l-0.6,3.6C58.4,125.8,55.4,125.9,53.4,122.4L53.4,122.4z"/>
<polygon class="st35" points="52.7,122.9 49.5,131 54.5,131.9 49.8,133.2 62.5,143 62.7,142.9 50.2,133.3 55.4,131.8 49.9,130.9 
	52.9,123 "/>
<polygon class="st35" points="60.6,121.6 66,127.8 64,129.6 67,129.7 65.7,141 65.4,141 66.8,129.8 63.7,129.8 65.8,127.7 
	60.4,121.7 "/>
<polygon class="st57" points="78,162.3 87.4,136 66.7,137.3 58.4,163.3 "/>
<path class="st20" d="M49.6,136.3l-4.6-8.4c-1.4,4.4-7.9,29.7-5.1,32.6c2.2,2.3,13.9,0.5,16.9-0.1c1.7,0.4,8.5,2.8,8.2,1.1
	c1.2-0.1,1.4-0.1,1.7-0.6c0.1-0.2,0-0.5-0.8-0.8c0.6,0,2.3-0.9,0.8-1.4c-0.4-0.1-0.8-0.1-0.6-0.2c1.5-0.6-0.9-1.5-1.5-1.7
	c-1.3-0.5-2.5-0.8-3.9-1.1c-0.9-0.1,1.5,0.2,1.9-0.1c1.1-1.2,0.1-1.2-1.3-1.2c-0.6,0-2.3-1.4-4.1,0.8c-2.6,3.1-12.7,0.2-13.2,0.5
	C45,153.7,48.6,140.3,49.6,136.3L49.6,136.3z"/>
<path class="st55" d="M45.4,125.3l5.2,11.5l-5.9,17.8l9.5,1.9l-0.4,6c-5.9,1.1-15.8,0.9-15.4-5.9c0.5-10,3.1-20.1,5.6-29.5
	C44.1,126.5,44.5,125.7,45.4,125.3L45.4,125.3z"/>
<path class="st35" d="M49.6,179.6l-0.2-12.2c2.7-0.4,5.4-0.8,8.1-1.2c-0.5,4.7-1.1,9.4-1.5,14.1c-2-0.2-4.1-0.5-6.2-0.6L49.6,179.6
	L49.6,179.6z M49.6,167.6l0.2,11.8l5.8,0.6l1.5-13.5L49.6,167.6L49.6,167.6z"/>
<path class="st20" d="M86.8,140.1c-0.4-0.5-1.5-1.7-2.9-2.2c-0.5-0.1-0.8-0.4-0.6,0.1c0,0.2,0.5,0.6,0.6,0.8
	c0.5,0.5,2.5,1.9,1.9,2.3c-0.6-0.6-1.8-2-3.3-2.7c-0.6-0.2-0.9-0.5-0.8,0.1c0.1,0.2,0.5,0.8,0.8,1.1c0.8,0.8,2.2,1.9,2.8,2.6l0,0
	c-0.6-0.8-2.2-2-3.8-2.5c-0.6-0.1-0.9-0.4-0.6,0.2c0.1,0.2,0.6,0.8,0.9,0.9c0.8,0.6,2.2,1.7,2.8,2.2l-0.4,0.5
	c-0.4-0.6-1.3-1.7-2.5-1.9c-0.4-0.1-0.6-0.2-0.6,0.2c0,0.2,0.4,0.6,0.5,0.8c0.2,0.2,0.8,0.6,1.2,0.9c0.5,0.4,0.8,0.9,0.9,1.1
	c0.6,1.5,0,1.7-0.6,3.8l2.9-4l1.2-2.7l-0.2-1.2L86.8,140.1L86.8,140.1z"/>
</svg>
