<?xml version="1.0" encoding="utf-8"?>
<!-- Generator: Adobe Illustrator 25.1.0, SVG Export Plug-In . SVG Version: 6.00 Build 0)  -->
<svg version="1.1" id="Layer_1" xmlns="http://www.w3.org/2000/svg" xmlns:xlink="http://www.w3.org/1999/xlink" x="0px" y="0px"
	 viewBox="0 0 300 265" style="enable-background:new 0 0 300 265;" xml:space="preserve">
<path style="fill:none;stroke:#000000;stroke-width:0.25;stroke-miterlimit:10;" d="M300,100.7c0,0,0-0.2,0-0.7s0-1.2-0.1-2.1
	c-0.1-1.8-0.38-4.6-1.24-8s-2.3-7.5-4.88-11.8s-6.22-8.7-11.2-12.5c-2.49-1.9-5.36-3.6-8.42-5c-3.16-1.4-6.51-2.5-10.15-3.2
	c-3.64-0.7-7.47-0.9-11.39-0.6c-1.91,0.1-3.92,0.4-5.93,0.8c-2.01,0.4-3.92,1-5.93,1.7c-7.75,2.8-15.12,8.1-20.48,15.4
	c-1.34,1.8-2.49,3.8-3.64,5.8c-1.05,2-2.01,4.2-2.68,6.4c-1.53,4.4-2.2,9.1-2.3,13.9c0,4.8,0.77,9.5,2.3,13.9
	c0.77,2.2,1.63,4.4,2.68,6.4c1.05,2,2.2,4,3.64,5.8c5.36,7.3,12.73,12.6,20.48,15.4c1.91,0.7,3.92,1.3,5.93,1.7
	c2.01,0.4,3.92,0.7,5.93,0.8c3.92,0.3,7.75,0,11.39-0.6c3.64-0.7,6.99-1.8,10.15-3.2s5.93-3.1,8.42-5c4.98-3.8,8.61-8.3,11.2-12.5
	c2.58-4.3,4.02-8.4,4.88-11.8s1.15-6.1,1.24-8c0.1-0.9,0.1-1.6,0.1-2.1C300,101,300,100.7,300,100.7s0,1-0.1,2.8
	c-0.1,1.9-0.38,4.6-1.24,8s-2.3,7.5-4.88,11.8s-6.22,8.8-11.2,12.6c-2.49,1.9-5.36,3.7-8.42,5.1c-3.16,1.4-6.51,2.6-10.24,3.2
	c-3.64,0.7-7.47,0.9-11.49,0.6c-2.01-0.1-3.92-0.4-5.93-0.8s-3.92-1-5.93-1.7c-7.85-2.8-15.31-8.1-20.67-15.5
	c-1.34-1.8-2.58-3.8-3.64-5.8c-1.05-2-2.01-4.2-2.68-6.4c-1.53-4.5-2.2-9.2-2.3-14c0-4.8,0.77-9.6,2.3-14
	c0.77-2.2,1.63-4.4,2.68-6.4c1.05-2,2.3-4,3.64-5.8c5.46-7.3,12.92-12.6,20.77-15.4c2.01-0.7,3.92-1.3,5.93-1.7
	c2.01-0.4,4.02-0.7,5.93-0.8c3.92-0.3,7.75,0,11.49,0.6c3.64,0.7,7.08,1.8,10.24,3.2c3.16,1.4,5.93,3.2,8.42,5.1
	c4.98,3.8,8.71,8.3,11.2,12.6c2.58,4.3,4.02,8.4,4.88,11.8s1.15,6.2,1.24,8V100.7z"/>
<path style="fill:#E8505B;" d="M191.38,8.42c-1.65-0.21-2.94-1.03-3.56-1.7c-0.52-0.57-0.77-1.34-0.62-2.12
	c0.15-0.77,0.62-1.45,1.29-1.81c0.72-0.36,1.65-0.31,2.22,0.21c0.31-0.62,1.08-1.03,1.81-0.98c0.72,0.05,1.45,0.46,1.81,1.08
	c0.41,0.62,0.52,1.34,0.36,2.06c-0.1,0.72-0.46,1.34-0.93,1.91C193.19,7.75,192.36,8.37,191.38,8.42"/>
<path style="fill:#E8505B;" d="M183.07,14.26c0,0.31,0.26,0.57,0.57,0.57s0.57-0.26,0.57-0.57s-0.26-0.57-0.57-0.57
	S183.07,13.95,183.07,14.26z"/>
<path style="fill:#263238;" d="M182.14,12.96c0,0,0.1-0.05,0.26,0c0.15,0,0.41,0.1,0.62,0.26c0.21,0.15,0.36,0.36,0.41,0.52
	c0.05,0.15,0.05,0.26,0.05,0.26s-0.05-0.1-0.1-0.26c-0.05-0.15-0.21-0.31-0.41-0.46c-0.21-0.15-0.41-0.21-0.57-0.26
	S182.14,12.96,182.14,12.96z"/>
<path style="fill:#263238;" d="M183.38,14c0,0,0.05,0,0.15-0.05c0.05-0.05,0.1-0.1,0.1-0.1v0.05c0,0.05-0.05,0.05-0.1,0.1
	C183.48,14.05,183.43,14.05,183.38,14z"/>
<path style="fill:#FFFFFF;" d="M184.05,14.51c0,0,0.05-0.21,0-0.41c-0.1-0.21-0.26-0.31-0.26-0.31s0.05,0,0.15,0.05
	c0.05,0.05,0.15,0.15,0.21,0.26c0.05,0.1,0.05,0.26,0,0.31C184.1,14.46,184.05,14.51,184.05,14.51z"/>
<path style="fill:#E8505B;" d="M198.71,14.36c0,0.31-0.26,0.57-0.57,0.57c-0.31,0-0.57-0.26-0.57-0.57c0-0.31,0.26-0.57,0.57-0.57
	C198.45,13.79,198.71,14.05,198.71,14.36z"/>
<path style="fill:#263238;" d="M199.64,13.07c0,0-0.1-0.05-0.26,0c-0.15,0-0.41,0.1-0.62,0.26c-0.21,0.15-0.36,0.36-0.41,0.52
	c-0.05,0.15-0.05,0.26-0.05,0.26s0.05-0.1,0.1-0.26c0.05-0.15,0.21-0.31,0.41-0.46c0.21-0.15,0.41-0.21,0.57-0.26
	C199.53,13.07,199.64,13.07,199.64,13.07z"/>
<path style="fill:#263238;" d="M198.4,14.1c0,0-0.05,0-0.15-0.05c-0.05-0.05-0.1-0.1-0.1-0.1V14c0,0.05,0.05,0.05,0.1,0.1
	C198.3,14.15,198.35,14.15,198.4,14.1z"/>
<path style="fill:#FFFFFF;" d="M197.73,14.62c0,0-0.05-0.21,0-0.41c0.1-0.21,0.26-0.31,0.26-0.31s-0.05,0-0.15,0.05
	c-0.05,0.05-0.15,0.15-0.21,0.26s-0.05,0.26,0,0.31S197.73,14.62,197.73,14.62L197.73,14.62z"/>
<ellipse style="fill:#E8505B;" cx="185.65" cy="14.26" rx="0.83" ry="0.77"/>
<path style="fill:#455A64;" d="M187.77,12.45c0,0-0.15,0-0.36,0.05s-0.57,0.15-0.83,0.36c-0.31,0.21-0.46,0.46-0.57,0.67
	c-0.1,0.21-0.15,0.36-0.15,0.36s0-0.15,0.1-0.36c0.1-0.21,0.31-0.52,0.57-0.72c0.31-0.21,0.62-0.31,0.88-0.36
	C187.61,12.4,187.77,12.45,187.77,12.45L187.77,12.45z"/>
<path style="fill:#263238;" d="M186.06,13.84c0,0,0,0.05-0.05,0.05s-0.1,0-0.15-0.05s-0.1-0.1-0.1-0.15s0-0.05,0-0.05
	s0.05,0.1,0.15,0.15C185.96,13.84,186.01,13.84,186.06,13.84z"/>
<path style="fill:#FFFFFF;" d="M185.08,14.62c0,0-0.05-0.05-0.1-0.15c-0.05-0.1-0.05-0.26,0-0.46c0.05-0.15,0.21-0.31,0.31-0.36
	c0.1-0.05,0.15-0.1,0.21-0.05c0,0-0.05,0.05-0.15,0.1s-0.21,0.21-0.26,0.36c-0.05,0.15-0.05,0.31-0.05,0.41
	C185.03,14.51,185.08,14.57,185.08,14.62z"/>
<path style="fill:#E8505B;" d="M195.61,14.87h-8.36V9.3c0-0.88,0.67-1.55,1.55-1.55h6.81V14.87z"/>
<path style="opacity:0.3;enable-background:new    ;" d="M187.51,8.16c2.58,0.05,5.06-0.1,7.64-0.1l0.41,0.26v1.19
	c0,0-0.15,0.05-0.21-0.05c-0.05-0.1-0.05-0.31,0-0.46c-0.15-0.1-0.26,0.05-0.31,0.21c-0.05,0.15-0.05,0.36-0.05,0.52
	c0,0.15-0.05,0.36-0.15,0.46c-0.15,0.1-0.41,0.1-0.57,0c-0.15-0.1-0.26-0.26-0.36-0.46c-0.15-0.21-0.31-0.46-0.52-0.62
	c-0.21-0.15-0.57-0.21-0.77-0.05c-0.26,0.15-0.36,0.52-0.62,0.62c-0.36,0.05-0.62-0.36-0.98-0.31c-0.31,0-0.46,0.31-0.57,0.57
	s-0.36,0.57-0.62,0.52c-0.41-0.05-0.46-0.67-0.88-0.72c-0.31-0.05-0.52,0.31-0.77,0.41c-0.31,0.1-0.62-0.05-0.83-0.26
	c-0.15-0.26-0.21-0.57-0.1-0.88C187.2,8.68,187.35,8.42,187.51,8.16"/>
<path style="fill:#E8505B;" d="M195.61,7.7c-0.15-0.05-0.31-0.05-0.46-0.05c-2.48-0.05-4.96,0.1-7.43,0.1
	c-0.31,0-0.62,0.15-0.72,0.46c-0.05,0.1-0.1,0.26-0.15,0.36c-0.05,0.31-0.05,0.62,0.1,0.88c0.15,0.26,0.52,0.41,0.83,0.26
	c0.31-0.1,0.52-0.46,0.83-0.41c0.41,0.05,0.52,0.67,0.93,0.72c0.36,0.05,0.62-0.36,0.72-0.62c0.05-0.15,0.15-0.26,0.26-0.36
	c0.52-0.41,0.88,0.31,1.34,0.21c0.31-0.05,0.41-0.46,0.67-0.62c0.26-0.15,0.57-0.1,0.83,0.05c0.26,0.15,0.41,0.41,0.57,0.67
	c0.1,0.15,0.21,0.36,0.41,0.46c0.15,0.1,0.41,0.15,0.57,0c0.15-0.1,0.15-0.31,0.21-0.46c0-0.15,0-0.36,0.05-0.52
	c0.1-0.15,0.31-0.26,0.46-0.21c-0.05,0.15-0.05,0.31,0,0.41c0.05,0.15,0.21,0.26,0.36,0.21c0.15-0.05,0.15-0.26,0.21-0.36
	C196.02,8.42,196.02,7.85,195.61,7.7z"/>
<path style="fill:#E8505B;" d="M181.36,14.87h19.87v8.41h-19.87V14.87z"/>
<path style="fill:#263238;" d="M176.15,34.08h30.2v1.55h-30.2V34.08z"/>
<path style="opacity:0.3;enable-background:new    ;" d="M180.8,33.56c0,0-0.1,0-0.21,0c-0.1-0.05-0.21-0.1-0.21-0.1h0.21
	C180.69,33.51,180.8,33.56,180.8,33.56z"/>
<path style="opacity:0.3;enable-background:new    ;" d="M183.33,33.51c0,0,0,0.05-0.1,0.1c-0.05,0.05-0.1,0.05-0.15,0.05
	c0,0,0-0.05,0.1-0.1C183.27,33.51,183.33,33.46,183.33,33.51z"/>
<path style="opacity:0.3;enable-background:new    ;" d="M186.42,33.56c0,0-0.05-0.05-0.1-0.1c-0.05-0.05-0.05-0.15-0.05-0.15
	s0.05,0.05,0.1,0.1C186.42,33.51,186.42,33.56,186.42,33.56z"/>
<path style="opacity:0.3;enable-background:new    ;" d="M189.73,33.1c0,0,0,0.1-0.05,0.21c-0.05,0.1-0.1,0.15-0.15,0.15
	c0,0,0-0.1,0.05-0.21S189.68,33.04,189.73,33.1z"/>
<path style="opacity:0.3;enable-background:new    ;" d="M191.79,33.72c0,0-0.05,0-0.15-0.05c-0.05-0.05-0.1-0.1-0.05-0.15
	c0,0,0.05,0,0.15,0.05C191.79,33.66,191.84,33.72,191.79,33.72z"/>
<ellipse style="opacity:0.3;enable-background:new    ;" cx="194.63" cy="33.66" rx="0.1" ry="0.05"/>
<path style="opacity:0.3;enable-background:new    ;" d="M197.78,33.2c0,0-0.05,0.05-0.1,0.1c-0.1,0.05-0.15,0.05-0.15,0.05
	s0.05-0.05,0.1-0.1C197.68,33.2,197.73,33.2,197.78,33.2z"/>
<path style="opacity:0.3;enable-background:new    ;" d="M201.44,33.61c0,0,0,0.05-0.05,0.05c-0.05,0-0.05,0-0.05,0
	s0-0.05,0.05-0.05C201.39,33.56,201.44,33.56,201.44,33.61z"/>
<path style="opacity:0.3;enable-background:new    ;" d="M276.8,127.6v0.1h-0.1v-0.1H276.8z"/>
<path style="fill:#E8505B;" d="M202.37,34.08h-22.2c-0.77,0-1.39-0.62-1.39-1.39v-5.83c0-2.06,1.7-3.77,3.77-3.77h19.82
	c0.77,0,1.39,0.62,1.39,1.39v8.21C203.77,33.46,203.1,34.08,202.37,34.08z"/>
<path style="opacity:0.3;enable-background:new    ;" d="M203.51,32.27c-5.37-0.21-10.79-0.41-16.16-0.05
	c-2.43,0.15-4.9,0.41-7.33-0.05c-0.26-0.05-0.57-0.1-0.83-0.05c-0.1,0-0.21,0.05-0.26,0.1c-0.21,0.15-0.15,0.46,0.1,0.52
	c4.13,0.83,8.41-0.26,12.65-0.05c1.45,0.05,2.84,0.26,4.28,0.21c0.98-0.05,1.96-0.21,2.94-0.26c1.55-0.1,3.05,0.1,4.59-0.05
	c0.1,0,0.26-0.05,0.26-0.21C203.77,32.32,203.61,32.27,203.51,32.27z"/>
<path style="opacity:0.3;enable-background:new    ;" d="M178.73,26.7c0.41,0.26,1.03,0.31,1.45,0.05c0.41-0.26,0.67-0.77,0.62-1.29
	c0.26,0.36,0.77,0.57,1.19,0.36c0.41-0.15,0.72-0.62,0.62-1.08c0.36,0.31,0.98,0.31,1.34-0.05c0.15-0.15,0.21-0.31,0.41-0.41
	c0.26-0.15,0.62,0.05,0.77,0.31c0.15,0.26,0.1,0.57,0.15,0.88c0,0.31,0.05,0.62,0.31,0.83c0.21,0.21,0.67,0.21,0.77-0.05
	c0.05-0.15,0.05-0.36,0.21-0.46c0.1-0.05,0.26,0.05,0.31,0.21c0.05,0.1,0.05,0.26,0.1,0.36c0.15,0.26,0.46,0.26,0.72,0.15
	c0.26-0.1,0.41-0.36,0.62-0.57c-0.05,0.36-0.05,0.72,0.05,1.03c0.1,0.31,0.41,0.62,0.77,0.62c0.46,0,0.77-0.46,0.88-0.93
	c0.1-0.46,0.05-0.93,0.26-1.34c0.1-0.26,0.41-0.46,0.67-0.36c0.31,0.1,0.36,0.52,0.62,0.62c0.31,0.15,0.72-0.1,0.93-0.41
	c0.21-0.31,0.41-0.67,0.83-0.72s0.77,0.26,0.93,0.62c0.15,0.36,0.21,0.72,0.41,1.08c0.21,0.36,0.57,0.62,0.98,0.52
	c0.31-0.1,0.46-0.41,0.67-0.67c0.21-0.26,0.57-0.46,0.83-0.31s0.26,0.62,0.57,0.67c0.36,0.1,0.57-0.46,0.93-0.57
	c0.52-0.15,0.77,0.62,1.29,0.77c0.41,0.1,0.83-0.26,0.98-0.67c0.15-0.41,0.21-0.83,0.46-1.19c0.26-0.31,0.88-0.46,1.08-0.1
	c0.1,0.15,0.1,0.31,0.15,0.46c0.21,0.36,0.98,0.41,1.14,0.05v-1.65h-24.98L178.73,26.7z"/>
<path style="fill:#E8505B;" d="M203.51,31.96c-5.42-0.21-10.89-0.41-16.31-0.05c-2.48,0.15-4.96,0.41-7.38-0.05
	c-0.26-0.05-0.57-0.1-0.83-0.05c-0.1,0-0.21,0.05-0.26,0.1c-0.21,0.15-0.15,0.46,0.1,0.52c4.18,0.83,8.52-0.26,12.8-0.05
	c1.45,0.05,2.89,0.26,4.34,0.21c0.98-0.05,1.96-0.21,2.94-0.26c1.55-0.1,3.1,0.1,4.65-0.05c0.1,0,0.31-0.05,0.26-0.21
	C203.77,32.01,203.61,31.96,203.51,31.96z"/>
<path style="opacity:0.3;enable-background:new    ;" d="M179.04,29.74l6.97,0.15c2.22,0.05,4.44,0.1,6.66-0.15
	c2.06-0.26,4.13-0.77,6.25-0.62c0.93,0.1,1.86,0.31,2.79,0.41c0.83,0.05,1.24,0.21,2.01-0.15v-0.41c-2.06,0-3.82-0.21-5.83-0.21
	c-2.17,0-4.28,0.26-6.45,0.26c-3.97,0-7.95,0-11.92,0c-0.21,0-0.46,0-0.67,0.1S178.63,29.69,179.04,29.74"/>
<path style="opacity:0.3;enable-background:new    ;" d="M181.21,31.03c0,0-0.1,0-0.15-0.05c-0.1-0.05-0.15-0.1-0.1-0.15
	c0,0,0.1,0,0.15,0.05S181.21,31.03,181.21,31.03z"/>
<path style="opacity:0.3;enable-background:new    ;" d="M183.38,30.52c0,0,0-0.05,0-0.1c0.05-0.05,0.05-0.05,0.1-0.05v0.1
	C183.43,30.52,183.43,30.52,183.38,30.52z"/>
<path style="opacity:0.3;enable-background:new    ;" d="M186.17,31.19c0,0-0.05,0-0.1-0.05s-0.1-0.05-0.1-0.1h0.15
	C186.17,31.13,186.22,31.19,186.17,31.19L186.17,31.19z"/>
<path style="opacity:0.3;enable-background:new    ;" d="M187.66,30.31c0,0-0.05,0.05-0.1,0.1c-0.05,0.05-0.1,0.05-0.15,0.05
	c0,0,0.05-0.05,0.1-0.1C187.56,30.31,187.61,30.26,187.66,30.31z"/>
<path style="opacity:0.3;enable-background:new    ;" d="M190.45,30.93c0,0-0.05,0-0.1-0.05s-0.05-0.1,0-0.1c0,0,0.05,0,0.1,0.05
	C190.5,30.88,190.5,30.93,190.45,30.93z"/>
<path style="opacity:0.3;enable-background:new    ;" d="M194.63,30.15c0,0,0,0.05-0.05,0.1s-0.1,0.05-0.1,0.05s0-0.05,0.05-0.1
	C194.58,30.15,194.63,30.15,194.63,30.15z"/>
<path style="opacity:0.3;enable-background:new    ;" d="M197.78,30.98c0,0-0.1-0.05-0.15-0.15c-0.1-0.05-0.15-0.1-0.15-0.15
	c0,0,0.1,0,0.21,0.1C197.78,30.88,197.83,30.98,197.78,30.98L197.78,30.98z"/>
<path style="opacity:0.3;enable-background:new    ;" d="M200.67,29.59c0,0-0.05,0.1-0.15,0.21c-0.1,0.1-0.21,0.15-0.21,0.15
	s0.05-0.1,0.15-0.21C200.57,29.69,200.67,29.59,200.67,29.59z"/>
<path style="opacity:0.3;enable-background:new    ;" d="M276.2,123.2c0,0-0.1-0.1-0.3-0.1c-0.2-0.1-0.3,0-0.3-0.1
	c0,0,0.2-0.2,0.4-0.1S276.2,123.2,276.2,123.2L276.2,123.2z"/>
<path style="opacity:0.3;enable-background:new    ;" d="M200.21,32.89c0,0-0.05,0.05-0.15,0.05c-0.1,0-0.15,0-0.15-0.05
	c0,0,0.05-0.05,0.15-0.05C200.15,32.89,200.21,32.89,200.21,32.89z"/>
<path style="fill:#E8505B;" d="M178.68,29.38c2.32,0.05,4.65,0.1,6.97,0.15c2.22,0.05,4.44,0.1,6.66-0.15
	c2.06-0.26,4.13-0.77,6.25-0.62c0.93,0.1,1.86,0.31,2.79,0.41c0.83,0.05,1.91,0,2.68-0.36c0.1-0.05,0.05-0.21-0.05-0.21
	c-2.06,0-4.39,0-6.4,0c-2.17,0-4.34,0-6.5,0c-3.97,0-7.95,0-11.92,0c-0.21,0-0.46,0-0.67,0.1
	C178.27,28.86,178.22,29.33,178.68,29.38"/>
<path style="opacity:0.3;enable-background:new    ;" d="M193.34,27.68c0,0,0.05-0.15,0.15-0.26c0.1-0.15,0.21-0.21,0.21-0.21
	s-0.05,0.15-0.15,0.26S193.34,27.68,193.34,27.68z"/>
<path style="opacity:0.3;enable-background:new    ;" d="M196.28,27.73c0,0-0.05-0.05-0.1-0.15s-0.05-0.21-0.05-0.21
	s0.05,0.05,0.1,0.15S196.28,27.73,196.28,27.73z"/>
<path style="opacity:0.3;enable-background:new    ;" d="M198.61,27.32c0,0-0.05,0.05-0.1,0.1c-0.1,0.05-0.15,0.1-0.15,0.05
	c0,0,0.05-0.05,0.1-0.1S198.61,27.26,198.61,27.32z"/>
<path style="opacity:0.3;enable-background:new    ;" d="M276,116.7c0,0-0.2-0.1-0.3-0.3c-0.2-0.2-0.3-0.3-0.2-0.4
	c0,0,0.2,0.1,0.3,0.3C276,116.5,276.1,116.6,276,116.7z"/>
<path style="opacity:0.3;enable-background:new    ;" d="M186.06,28.09c0,0,0-0.1,0.1-0.15c0.05-0.05,0.1-0.1,0.15-0.1
	c0,0,0,0.1-0.1,0.15S186.06,28.09,186.06,28.09z"/>
<path style="opacity:0.3;enable-background:new    ;" d="M183.95,27.42c0,0,0.05-0.05,0.1-0.15c0.1-0.05,0.15-0.1,0.15-0.05
	c0,0-0.05,0.05-0.1,0.15C184.05,27.42,184,27.42,183.95,27.42z"/>
<path style="opacity:0.3;enable-background:new    ;" d="M180.49,27.93c0,0-0.1,0-0.15-0.1c-0.05-0.1-0.05-0.15,0-0.15
	c0,0,0.05,0.05,0.1,0.1C180.44,27.88,180.49,27.88,180.49,27.93z"/>
<path style="opacity:0.3;enable-background:new    ;" d="M182.55,26.23c0,0,0,0.05-0.05,0.15c-0.05,0.05-0.1,0.1-0.15,0.1
	c0,0,0-0.05,0.05-0.15C182.5,26.28,182.55,26.23,182.55,26.23z"/>
<path style="fill:#E8505B;" d="M178.73,26.08c0.41,0.26,1.03,0.31,1.45,0.05c0.41-0.26,0.67-0.77,0.62-1.29
	c0.26,0.36,0.77,0.57,1.19,0.36c0.41-0.15,0.72-0.62,0.62-1.08c0.36,0.31,0.98,0.31,1.34-0.05c0.15-0.21,0.31-0.46,0.62-0.46
	c0.15,0,0.31,0.1,0.41,0.21c0.26,0.31,0.26,0.67,0.26,1.03c0,0.31,0.05,0.62,0.31,0.83c0.21,0.21,0.67,0.21,0.77-0.05
	c0.05-0.15,0.05-0.36,0.21-0.46c0.1-0.05,0.26,0.05,0.31,0.21c0.05,0.1,0.05,0.26,0.1,0.36c0.15,0.26,0.46,0.26,0.72,0.15
	c0.26-0.1,0.41-0.36,0.62-0.57c-0.05,0.41-0.1,0.88,0.1,1.24c0.1,0.21,0.31,0.36,0.57,0.41c0.52,0.1,0.93-0.41,1.03-0.93
	c0.1-0.52,0.05-1.03,0.36-1.5c0.1-0.15,0.26-0.26,0.46-0.21c0.41,0,0.46,0.52,0.77,0.67c0.31,0.15,0.72-0.1,0.93-0.41
	c0.26-0.31,0.46-0.72,0.98-0.72c0.21,0,0.41,0.1,0.57,0.31c0.46,0.52,0.36,1.19,0.83,1.7c0.15,0.15,0.36,0.26,0.57,0.26
	c0.46,0,0.62-0.41,0.88-0.72c0.21-0.26,0.57-0.46,0.83-0.31c0.26,0.15,0.26,0.62,0.57,0.67c0.36,0.1,0.57-0.46,0.93-0.57
	c0.52-0.15,0.77,0.62,1.29,0.77c0.41,0.1,0.83-0.26,0.98-0.67c0.21-0.46,0.21-0.98,0.62-1.34c0.21-0.15,0.46-0.21,0.72-0.15
	c0.36,0.15,0.31,0.41,0.41,0.67c0.21,0.36,0.98,0.41,1.14,0.05l0.1-1.34c0-0.21-0.15-0.41-0.36-0.41l-24.11-0.05
	c-0.41,0-0.72,0.31-0.67,0.67L178.73,26.08z"/>
<path style="opacity:0.6;fill:#FFFFFF;enable-background:new    ;" d="M178.68,29.38c2.32,0.05,4.65,0.1,6.97,0.15
	c2.22,0.05,4.44,0.1,6.66-0.15c2.06-0.26,4.13-0.77,6.25-0.62c0.93,0.1,1.86,0.31,2.79,0.41c0.83,0.05,1.91,0,2.68-0.36
	c0.1-0.05,0.05-0.21-0.05-0.21c-2.06,0-4.39,0-6.4,0c-2.17,0-4.34,0-6.5,0c-3.97,0-7.95,0-11.92,0c-0.21,0-0.46,0-0.67,0.1
	C178.27,28.86,178.22,29.33,178.68,29.38"/>
<path style="opacity:0.6;fill:#FFFFFF;enable-background:new    ;" d="M203.51,31.96c-5.42-0.21-10.89-0.41-16.31-0.05
	c-2.48,0.15-4.96,0.41-7.38-0.05c-0.26-0.05-0.57-0.1-0.83-0.05c-0.1,0-0.21,0.05-0.26,0.1c-0.21,0.15-0.15,0.46,0.1,0.52
	c4.18,0.83,8.52-0.26,12.8-0.05c1.45,0.05,2.89,0.26,4.34,0.21c0.98-0.05,1.96-0.21,2.94-0.26c1.55-0.1,3.1,0.1,4.65-0.05
	c0.1,0,0.31-0.05,0.26-0.21C203.77,32.01,203.61,31.96,203.51,31.96z"/>
<path style="opacity:0.3;enable-background:new    ;" d="M200.98,19.26c-4.28-0.15-8.62-0.31-12.9-0.05c-1.96,0.1-3.92,0.36-5.83,0
	c-0.21-0.05-0.46-0.1-0.67-0.05c-0.05,0-0.15,0.05-0.21,0.1c-0.15,0.1-0.1,0.36,0.1,0.41c3.3,0.67,6.71-0.21,10.12-0.05
	c1.14,0.05,2.27,0.21,3.41,0.15c0.77-0.05,1.55-0.15,2.32-0.21c1.24-0.05,2.43,0.05,3.66-0.05c0.1,0,0.21-0.05,0.21-0.15
	S201.08,19.26,200.98,19.26z"/>
<path style="fill:#E8505B;" d="M201.03,19c-4.34-0.15-8.67-0.31-13.01-0.05c-1.96,0.1-3.97,0.36-5.88,0
	c-0.21-0.05-0.46-0.1-0.67-0.05c-0.05,0-0.15,0.05-0.21,0.1c-0.15,0.1-0.1,0.36,0.1,0.41c3.36,0.67,6.81-0.21,10.22-0.05
	c1.14,0.05,2.32,0.21,3.46,0.15c0.77-0.05,1.55-0.15,2.37-0.21c1.24-0.05,2.48,0.05,3.72-0.05c0.1,0,0.21-0.05,0.21-0.15
	C201.24,19,201.08,19,201.03,19L201.03,19z"/>
<path style="opacity:0.3;enable-background:new    ;" d="M181.36,14.87c0,1.03,0.83,2.01,1.6,2.37c0.77,0.36,1.7,0.36,2.53,0
	c0.67-0.26,1.34-0.77,2.06-0.62c0.36,0.1,0.67,0.36,0.98,0.62c0.31,0.21,0.72,0.41,1.08,0.31c0.57-0.21,0.77-1.03,1.34-1.14
	c0.62-0.1,1.14,0.67,1.76,0.52c0.41-0.1,0.62-0.67,1.03-0.83c0.41-0.1,0.83,0.21,1.29,0.15c0.36-0.05,0.67-0.31,1.03-0.31
	c0.36,0,0.72,0.26,0.93,0.52c0.21,0.31,0.36,0.62,0.62,0.88c0.26,0.26,0.67,0.41,1.03,0.21c0.31-0.15,0.41-0.57,0.52-0.88
	c0.1-0.31,0.36-0.67,0.67-0.67c0.36,0,0.62,0.46,0.98,0.46c0.26,0,0.41-0.26,0.46-0.46c0.05-0.21-0.05-0.46-0.1-0.67L181.36,14.87z"
	/>
<path style="fill:#E8505B;" d="M181.36,14.82c0.26,0.77,0.83,1.55,1.6,1.91c0.77,0.36,1.7,0.36,2.53,0
	c0.67-0.26,1.34-0.77,2.06-0.62c0.36,0.1,0.67,0.36,0.98,0.62c0.31,0.21,0.72,0.41,1.08,0.31c0.57-0.21,0.77-1.03,1.34-1.14
	c0.62-0.1,1.14,0.67,1.76,0.52c0.41-0.1,0.62-0.67,1.03-0.83c0.41-0.1,0.83,0.21,1.29,0.15c0.36-0.05,0.67-0.31,1.03-0.31
	c0.36,0,0.72,0.26,0.93,0.52c0.21,0.31,0.36,0.62,0.62,0.88c0.26,0.26,0.67,0.41,1.03,0.21c0.31-0.15,0.41-0.57,0.52-0.88
	c0.1-0.31,0.36-0.67,0.67-0.67c0.36,0,0.62,0.46,0.98,0.46c0.26,0,0.41-0.26,0.46-0.46c0.05-0.21,0.1-0.62,0-0.83L181.36,14.82z"/>
<path style="opacity:0.3;enable-background:new    ;" d="M184.15,21.53c0,0,0.1-0.15,0.21-0.36c0.15-0.21,0.26-0.31,0.31-0.31
	c0.05,0-0.1,0.15-0.21,0.36C184.31,21.43,184.15,21.53,184.15,21.53z"/>
<path style="opacity:0.3;enable-background:new    ;" d="M186.94,21.38c0,0-0.1-0.05-0.21-0.1c-0.1-0.1-0.15-0.15-0.15-0.21
	c0,0,0.1,0.05,0.21,0.1C186.84,21.33,186.94,21.38,186.94,21.38z"/>
<path style="opacity:0.3;enable-background:new    ;" d="M185.96,22.05c0,0-0.05,0.05-0.1,0.1c-0.05,0.05-0.1,0.05-0.15,0.05
	c0,0,0.05-0.05,0.1-0.1C185.86,22.05,185.91,22,185.96,22.05z"/>
<path style="opacity:0.3;enable-background:new    ;" d="M189.57,20.86c0,0-0.1-0.05-0.15-0.15c-0.05-0.1-0.1-0.21-0.1-0.21
	s0.1,0.05,0.15,0.15C189.52,20.76,189.57,20.86,189.57,20.86z"/>
<path style="opacity:0.3;enable-background:new    ;" d="M189.68,22.26c0,0-0.05,0.1-0.15,0.15s-0.21,0-0.21,0s0.1-0.05,0.21-0.05
	C189.62,22.26,189.68,22.2,189.68,22.26z"/>
<path style="opacity:0.3;enable-background:new    ;" d="M192.31,21.07c0,0-0.1-0.05-0.15-0.15s-0.05-0.26,0-0.21
	c0,0,0.05,0.1,0.1,0.21C192.26,21.02,192.31,21.07,192.31,21.07L192.31,21.07z"/>
<path style="opacity:0.3;enable-background:new    ;" d="M192.67,22.05c0,0-0.05,0.05-0.15,0.1c-0.1,0-0.21,0.05-0.21,0
	c0,0,0.05-0.05,0.15-0.1C192.57,22,192.67,22,192.67,22.05z"/>
<path style="opacity:0.3;enable-background:new    ;" d="M194.73,21.07c0,0-0.1-0.1-0.15-0.21s-0.1-0.21-0.1-0.26
	c0,0,0.1,0.1,0.15,0.21C194.73,20.91,194.79,21.02,194.73,21.07z"/>
<path style="opacity:0.3;enable-background:new    ;" d="M195.72,22.31c0,0,0.05-0.1,0.1-0.15c0.05-0.1,0.05-0.15,0.1-0.15
	c0,0,0.05,0.1,0,0.21C195.82,22.26,195.72,22.31,195.72,22.31L195.72,22.31z"/>
<path style="opacity:0.3;enable-background:new    ;" d="M196.8,20.81c0,0-0.1-0.05-0.1-0.21c0-0.15,0.1-0.21,0.15-0.21
	c0,0-0.05,0.1-0.05,0.21S196.85,20.81,196.8,20.81L196.8,20.81z"/>
<path style="opacity:0.3;enable-background:new    ;" d="M198.86,21.9c0,0-0.05-0.1-0.1-0.21c0-0.1-0.05-0.21,0-0.21
	c0,0,0.05,0.1,0.1,0.21S198.92,21.9,198.86,21.9z"/>
<path style="opacity:0.3;enable-background:new    ;" d="M199.9,21.69c0,0,0-0.1,0.05-0.15s0.1-0.1,0.1-0.1s0,0.1-0.05,0.15
	S199.9,21.69,199.9,21.69z"/>
<path style="opacity:0.3;enable-background:new    ;" d="M200,17.92c0,0,0-0.05,0.05-0.15c0.05-0.05,0.1-0.1,0.1-0.1
	s0,0.05-0.05,0.15C200.05,17.92,200,17.92,200,17.92z"/>
<path style="opacity:0.3;enable-background:new    ;" d="M195.92,18.18c0,0-0.1-0.1-0.15-0.21s-0.1-0.21-0.1-0.26
	c0,0,0.1,0.1,0.15,0.21S195.92,18.18,195.92,18.18z"/>
<path style="opacity:0.3;enable-background:new    ;" d="M196.39,17.04C196.44,16.99,196.44,17.04,196.39,17.04
	C196.44,17.04,196.44,17.04,196.39,17.04z"/>
<path style="opacity:0.3;enable-background:new    ;" d="M192.82,18.02c0,0,0.05-0.1,0.15-0.26c0.1-0.1,0.21-0.21,0.21-0.21
	s-0.05,0.1-0.15,0.26C192.98,17.97,192.88,18.08,192.82,18.02z"/>
<path style="opacity:0.3;enable-background:new    ;" d="M191.22,17.61c0,0,0-0.1,0.05-0.21c0.05-0.1,0.1-0.15,0.1-0.15
	s0,0.1-0.05,0.21C191.28,17.51,191.22,17.61,191.22,17.61z"/>
<path style="opacity:0.3;enable-background:new    ;" d="M189.99,18.08c0,0,0.05-0.05,0.1-0.1s0.15-0.05,0.15-0.05
	s-0.05,0.05-0.1,0.1C190.04,18.08,189.99,18.08,189.99,18.08z"/>
<path style="opacity:0.3;enable-background:new    ;" d="M187.15,17.87c0,0-0.05-0.05-0.1-0.1c-0.05-0.05-0.05-0.1-0.05-0.15
	c0,0,0.05,0.05,0.1,0.1C187.15,17.77,187.15,17.87,187.15,17.87z"/>
<path style="opacity:0.3;enable-background:new    ;" d="M187.09,17.46c0,0,0-0.05,0-0.1s0.05-0.1,0.1-0.05v0.1
	C187.15,17.46,187.15,17.46,187.09,17.46z"/>
<path style="opacity:0.3;enable-background:new    ;" d="M185.18,18.8c0,0-0.1-0.1-0.15-0.26s-0.1-0.26-0.1-0.26s0.1,0.1,0.15,0.26
	C185.18,18.64,185.24,18.8,185.18,18.8z"/>
<path style="opacity:0.3;enable-background:new    ;" d="M183.07,18.13c0,0-0.05-0.05-0.05-0.15c0-0.05,0-0.15,0.05-0.15
	c0,0,0.05,0.05,0.05,0.15S183.12,18.13,183.07,18.13z"/>
<path style="opacity:0.3;enable-background:new    ;" d="M181.73,17.92c0,0-0.05-0.05,0-0.15c0-0.1,0.05-0.15,0.05-0.15
	s0.05,0.05,0,0.15C181.78,17.87,181.78,17.97,181.73,17.92z"/>
<path style="opacity:0.3;enable-background:new    ;" d="M186.99,18.44c0,0-0.1,0.05-0.21,0.1s-0.21,0.05-0.21,0.05
	s0.1-0.05,0.21-0.1S186.99,18.44,186.99,18.44z"/>
<path style="opacity:0.8;fill:#FFFFFF;enable-background:new    ;" d="M178.73,26.08c0.41,0.26,1.03,0.31,1.45,0.05
	c0.41-0.26,0.67-0.77,0.62-1.29c0.26,0.36,0.77,0.57,1.19,0.36c0.41-0.15,0.72-0.62,0.62-1.08c0.36,0.31,0.98,0.31,1.34-0.05
	c0.15-0.21,0.31-0.46,0.62-0.46c0.15,0,0.31,0.1,0.41,0.21c0.26,0.31,0.26,0.67,0.26,1.03c0,0.31,0.05,0.62,0.31,0.83
	c0.21,0.21,0.67,0.21,0.77-0.05c0.05-0.15,0.05-0.36,0.21-0.46c0.1-0.05,0.26,0.05,0.31,0.21c0.05,0.1,0.05,0.26,0.1,0.36
	c0.15,0.26,0.46,0.26,0.72,0.15c0.26-0.1,0.41-0.36,0.62-0.57c-0.05,0.41-0.1,0.88,0.1,1.24c0.1,0.21,0.31,0.36,0.57,0.41
	c0.52,0.1,0.93-0.41,1.03-0.93c0.1-0.52,0.05-1.03,0.36-1.5c0.1-0.15,0.26-0.26,0.46-0.21c0.41,0,0.46,0.52,0.77,0.67
	c0.31,0.15,0.72-0.1,0.93-0.41c0.26-0.31,0.46-0.72,0.98-0.72c0.21,0,0.41,0.1,0.57,0.31c0.46,0.52,0.36,1.19,0.83,1.7
	c0.15,0.15,0.36,0.26,0.57,0.26c0.46,0,0.62-0.41,0.88-0.72c0.21-0.26,0.57-0.46,0.83-0.31c0.26,0.15,0.26,0.62,0.57,0.67
	c0.36,0.1,0.57-0.46,0.93-0.57c0.52-0.15,0.77,0.62,1.29,0.77c0.41,0.1,0.83-0.26,0.98-0.67c0.21-0.46,0.21-0.98,0.62-1.34
	c0.21-0.15,0.46-0.21,0.72-0.15c0.36,0.15,0.31,0.41,0.41,0.67c0.21,0.36,0.98,0.41,1.14,0.05l0.1-1.34c0-0.21-0.15-0.41-0.36-0.41
	l-24.11-0.05c-0.41,0-0.72,0.31-0.67,0.67L178.73,26.08z"/>
<path style="opacity:0.8;fill:#FFFFFF;enable-background:new    ;" d="M181.36,14.82c0.26,0.77,0.83,1.55,1.6,1.91
	c0.77,0.36,1.7,0.36,2.53,0c0.67-0.26,1.34-0.77,2.06-0.62c0.36,0.1,0.67,0.36,0.98,0.62c0.31,0.21,0.72,0.41,1.08,0.31
	c0.57-0.21,0.77-1.03,1.34-1.14c0.62-0.1,1.14,0.67,1.76,0.52c0.41-0.1,0.62-0.67,1.03-0.83c0.41-0.1,0.83,0.21,1.29,0.15
	c0.36-0.05,0.67-0.31,1.03-0.31c0.36,0,0.72,0.26,0.93,0.52c0.21,0.31,0.36,0.62,0.62,0.88c0.26,0.26,0.67,0.41,1.03,0.21
	c0.31-0.15,0.41-0.57,0.52-0.88c0.1-0.31,0.36-0.67,0.67-0.67c0.36,0,0.62,0.46,0.98,0.46c0.26,0,0.41-0.26,0.46-0.46
	c0.05-0.21,0.1-0.62,0-0.83L181.36,14.82z"/>
<path style="opacity:0.8;fill:#FFFFFF;enable-background:new    ;" d="M195.61,7.7c-0.15-0.05-0.31-0.05-0.46-0.05
	c-2.48-0.05-4.96,0.1-7.43,0.1c-0.31,0-0.62,0.15-0.72,0.46c-0.05,0.1-0.1,0.26-0.15,0.36c-0.05,0.31-0.05,0.62,0.1,0.88
	c0.15,0.26,0.52,0.41,0.83,0.26c0.31-0.1,0.52-0.46,0.83-0.41c0.41,0.05,0.52,0.67,0.93,0.72c0.36,0.05,0.62-0.36,0.72-0.62
	c0.05-0.15,0.15-0.26,0.26-0.36c0.52-0.41,0.88,0.31,1.34,0.21c0.31-0.05,0.41-0.46,0.67-0.62c0.26-0.15,0.57-0.1,0.83,0.05
	c0.26,0.15,0.41,0.41,0.57,0.67c0.1,0.15,0.21,0.36,0.41,0.46c0.15,0.1,0.41,0.15,0.57,0c0.15-0.1,0.15-0.31,0.21-0.46
	c0-0.15,0-0.36,0.05-0.52c0.1-0.15,0.31-0.26,0.46-0.21c-0.05,0.15-0.05,0.31,0,0.41c0.05,0.15,0.21,0.26,0.36,0.21
	c0.15-0.05,0.15-0.26,0.21-0.36C196.02,8.42,196.02,7.85,195.61,7.7z"/>
<path style="opacity:0.6;fill:#FFFFFF;enable-background:new    ;" d="M201.03,19c-4.34-0.15-8.67-0.31-13.01-0.05
	c-1.96,0.1-3.97,0.36-5.88,0c-0.21-0.05-0.46-0.1-0.67-0.05c-0.05,0-0.15,0.05-0.21,0.1c-0.15,0.1-0.1,0.36,0.1,0.41
	c3.36,0.67,6.81-0.21,10.22-0.05c1.14,0.05,2.32,0.21,3.46,0.15c0.77-0.05,1.55-0.15,2.37-0.21c1.24-0.05,2.48,0.05,3.72-0.05
	c0.1,0,0.21-0.05,0.21-0.15C201.24,19,201.08,19,201.03,19L201.03,19z"/>
<path style="fill:#263238;" d="M211.87,93.31c0,0.12-7.3-1.61-16.34-3.71c-8.93-2.22-16.23-4.08-16.23-4.2s7.3,1.61,16.34,3.71
	C204.57,91.33,211.87,93.19,211.87,93.31z"/>
<path style="fill:none;stroke:#000000;stroke-width:0.25;stroke-miterlimit:10;" d="M69,135.8c0,0,0-0.2,0-0.6s-0.1-0.9-0.1-1.6
	c0-0.4,0-0.8-0.1-1.2c0-0.4-0.1-0.9-0.2-1.5c-0.1-0.5-0.2-1.1-0.3-1.7s-0.3-1.2-0.4-1.9c-0.6-2.7-1.8-5.9-3.8-9.2s-4.8-6.8-8.7-9.8
	c-0.5-0.4-1-0.7-1.5-1.1c-0.5-0.3-1.1-0.7-1.6-1c-0.6-0.3-1.1-0.7-1.7-1s-1.2-0.6-1.8-0.9c-0.3-0.1-0.6-0.3-0.9-0.4s-0.6-0.2-1-0.3
	c-0.6-0.2-1.3-0.5-1.9-0.7c-0.7-0.2-1.3-0.4-2-0.5c-0.7-0.2-1.4-0.4-2.1-0.5c-1.4-0.2-2.8-0.5-4.3-0.5c-0.7,0-1.5-0.1-2.2-0.1
	c-0.8,0-1.5,0.1-2.3,0.1c-0.4,0-0.8,0-1.1,0.1c-0.4,0.1-0.8,0.1-1.1,0.2c-0.8,0.1-1.5,0.2-2.3,0.4c-1.5,0.4-3.1,0.7-4.6,1.4
	c-0.4,0.1-0.8,0.3-1.1,0.4c-0.2,0.1-0.4,0.1-0.6,0.2l-0.5,0.3c-0.7,0.4-1.5,0.7-2.2,1.1s-1.4,0.9-2.1,1.3c-0.4,0.2-0.7,0.4-1.1,0.7
	l-1,0.8c-1.4,1-2.6,2.2-3.9,3.3c-0.6,0.6-1.2,1.3-1.7,1.9L8.4,114L8,114.5l-1,0.9l-0.8,1.1l-0.7,1.1l-0.7,1.1l-0.3,0.6
	c-0.1,0.2-0.2,0.4-0.3,0.6c-0.4,0.8-0.8,1.6-1.2,2.4c-0.3,0.8-0.6,1.7-0.9,2.6c-1.1,3.5-1.7,7.1-1.8,10.9c0,3.7,0.6,7.4,1.8,10.9
	c0.3,0.9,0.6,1.7,0.9,2.6c0.4,0.8,0.8,1.6,1.2,2.4l0.3,0.6l0.3,0.6l0.7,1.1l0.7,1.1l0.8,1.1l0.8,1.1l0.4,0.5l0.4,0.5
	c0.6,0.6,1.2,1.3,1.7,1.9c1.3,1.2,2.5,2.4,3.9,3.3l1,0.8c0.3,0.3,0.7,0.4,1.1,0.7c0.7,0.4,1.4,0.9,2.1,1.3s1.5,0.7,2.2,1.1l0.5,0.3
	c0.2,0.1,0.4,0.1,0.6,0.2c0.4,0.1,0.8,0.3,1.1,0.4c1.5,0.6,3.1,0.9,4.6,1.4c0.8,0.2,1.5,0.2,2.3,0.4c0.4,0.1,0.8,0.1,1.1,0.2
	c0.4,0.1,0.8,0,1.1,0.1c0.8,0,1.5,0.1,2.3,0.1s1.5-0.1,2.2-0.1c1.5,0,2.9-0.3,4.3-0.5c0.7-0.1,1.4-0.3,2.1-0.5s1.4-0.3,2-0.5
	s1.3-0.5,1.9-0.7c0.3-0.1,0.6-0.2,1-0.3c0.3-0.1,0.6-0.3,0.9-0.4c0.6-0.3,1.2-0.6,1.8-0.9s1.1-0.7,1.7-1c0.5-0.3,1.1-0.7,1.6-1
	c0.5-0.4,1-0.7,1.5-1.1c3.9-3,6.7-6.5,8.7-9.8c2-3.4,3.2-6.5,3.8-9.2c0.1-0.3,0.2-0.7,0.3-1s0.2-0.6,0.2-0.9
	c0.1-0.6,0.2-1.2,0.3-1.7s0.2-1,0.2-1.5c0-0.4,0-0.9,0.1-1.2c0-0.7,0.1-1.3,0.1-1.6C69,136,69,135.8,69,135.8s0,0.2,0,0.6
	s0,0.9-0.1,1.7c0,0.4,0,0.8-0.1,1.2c0,0.4-0.1,0.9-0.2,1.5c-0.1,0.5-0.2,1.1-0.2,1.7c0,0.3-0.1,0.6-0.2,0.9s-0.2,0.6-0.2,1
	c-0.6,2.7-1.8,5.9-3.8,9.3s-4.8,6.9-8.7,9.9c-0.5,0.4-1,0.7-1.5,1.1c-0.5,0.3-1.1,0.7-1.6,1c-0.6,0.3-1.1,0.7-1.7,1
	s-1.2,0.6-1.8,0.9c-0.3,0.1-0.6,0.3-0.9,0.4s-0.6,0.2-1,0.4c-0.6,0.2-1.3,0.5-1.9,0.7c-0.7,0.2-1.4,0.4-2,0.6
	c-0.7,0.2-1.4,0.4-2.1,0.5c-1.4,0.2-2.9,0.5-4.4,0.5c-0.7,0-1.5,0.1-2.3,0.1s-1.5-0.1-2.3-0.1c-0.4,0-0.8,0-1.2-0.1
	s-0.8-0.1-1.2-0.2c-0.8-0.1-1.6-0.2-2.3-0.4c-1.5-0.4-3.1-0.7-4.6-1.4c-0.4-0.1-0.8-0.3-1.1-0.4c-0.2-0.1-0.4-0.1-0.6-0.2l-0.6-0.3
	c-0.7-0.4-1.5-0.7-2.2-1.1s-1.4-0.9-2.2-1.3c-0.4-0.2-0.7-0.4-1.1-0.7l-1-0.8c-1.4-1-2.6-2.2-3.9-3.4c-0.6-0.6-1.2-1.3-1.8-2
	L7.9,158l-0.4-0.5l-0.8-1.1l-0.8-1.1l-0.7-1.1L4.5,153l-0.3-0.6l-0.3-0.6c-0.4-0.8-0.8-1.6-1.2-2.5c-0.3-0.9-0.6-1.7-0.9-2.6
	c-1.1-3.5-1.7-7.2-1.8-11c0-3.8,0.7-7.5,1.8-11c0.3-0.9,0.6-1.7,0.9-2.6c0.4-0.8,0.8-1.6,1.2-2.5l0.3-0.6l0.3-0.6l0.7-1.2l0.7-1.1
	l0.8-1.1l0.8-1.1l0.4-0.5l0.4-0.5c0.6-0.7,1.2-1.3,1.8-2c1.3-1.2,2.5-2.4,3.9-3.4l1-0.8c0.3-0.3,0.7-0.5,1.1-0.7
	c0.7-0.4,1.4-0.9,2.2-1.3c0.7-0.4,1.5-0.7,2.2-1.1l0.6-0.3c0.2-0.1,0.4-0.1,0.6-0.2c0.4-0.1,0.8-0.3,1.1-0.4
	c1.5-0.6,3.1-0.9,4.6-1.4c0.8-0.2,1.6-0.3,2.3-0.4c0.4-0.1,0.8-0.1,1.2-0.2s0.8,0,1.2-0.1c0.8,0,1.5-0.1,2.3-0.1s1.5,0.1,2.3,0.1
	c1.5,0,2.9,0.3,4.4,0.5c0.7,0.1,1.4,0.3,2.1,0.5s1.4,0.3,2,0.6c0.7,0.2,1.3,0.5,1.9,0.7c0.3,0.1,0.6,0.2,1,0.4
	c0.3,0.1,0.6,0.3,0.9,0.4l1.8,0.9c0.6,0.3,1.1,0.7,1.7,1c0.5,0.3,1.1,0.7,1.6,1c0.5,0.4,1,0.8,1.5,1.1c3.9,3,6.8,6.5,8.7,9.9
	c2,3.4,3.2,6.6,3.8,9.3c0.1,0.7,0.4,1.3,0.4,1.9c0.1,0.6,0.2,1.2,0.2,1.7c0.1,0.5,0.2,1,0.2,1.5c0,0.4,0,0.9,0.1,1.2
	c0,0.7,0,1.3,0.1,1.7C69,135.6,69,135.8,69,135.8L69,135.8z"/>
<path style="fill:#263238;" d="M114.9,93.2c0,0.1-11,6.3-24.6,13.8c-13.6,7.6-24.7,13.6-24.8,13.5c0-0.1,11-6.3,24.6-13.8
	C103.8,99.1,114.9,93.1,114.9,93.2z"/>
<path style="fill:none;stroke:#000000;stroke-width:0.25;stroke-miterlimit:10;" d="M213.3,22.3c0,0,0-0.1,0-0.4
	c0-0.2,0-0.6-0.1-1.1c0-0.2,0-0.5,0-0.8s-0.1-0.6-0.1-0.9c-0.1-0.3-0.1-0.7-0.2-1.1c0-0.4-0.2-0.8-0.3-1.2c-0.4-1.7-1.2-3.7-2.4-5.9
	c-1.3-2.1-3.1-4.4-5.6-6.3c-0.3-0.2-0.6-0.5-1-0.7c-0.3-0.2-0.7-0.4-1-0.6c-0.4-0.2-0.7-0.4-1.1-0.6s-0.8-0.4-1.1-0.5
	c-0.2-0.1-0.4-0.2-0.6-0.3s-0.4-0.1-0.6-0.2c-0.4-0.1-0.8-0.3-1.2-0.5c-0.4-0.1-0.9-0.2-1.3-0.3s-0.9-0.3-1.3-0.3
	c-0.9-0.1-1.8-0.3-2.8-0.3c-0.5,0-1-0.1-1.4-0.1c-0.5,0-1,0.1-1.5,0.1c-0.2,0-0.5,0-0.7,0s-0.5,0.1-0.7,0.1c-0.5,0.1-1,0.1-1.5,0.2
	c-1,0.3-2,0.5-2.9,0.9c-1,0.3-1.9,0.8-2.9,1.3c-0.5,0.3-0.9,0.5-1.4,0.8c-0.2,0.1-0.5,0.3-0.7,0.4l-0.6,0.5
	c-0.9,0.6-1.7,1.4-2.5,2.1c-0.4,0.4-0.7,0.8-1.1,1.2l-0.3,0.3l-0.3,0.3l-0.5,0.7l-0.5,0.7l-0.4,0.7l-0.4,0.7l-0.2,0.4l-0.2,0.4
	c-0.2,0.5-0.5,1-0.7,1.6c-0.2,0.5-0.4,1.1-0.6,1.6c-0.7,2.2-1.1,4.6-1.1,7s0.4,4.7,1.1,7c0.2,0.5,0.4,1.1,0.6,1.6s0.5,1,0.7,1.6
	l0.2,0.4l0.2,0.4l0.4,0.7l0.4,0.7l0.5,0.7l0.5,0.7l0.3,0.3l0.3,0.3c0.4,0.4,0.7,0.8,1.1,1.2c0.8,0.7,1.6,1.5,2.5,2.1l0.6,0.5
	c0.2,0.2,0.5,0.3,0.7,0.4c0.5,0.3,0.9,0.6,1.4,0.8c1,0.5,1.9,0.9,2.9,1.3s2,0.6,2.9,0.9c0.5,0.1,1,0.2,1.5,0.2
	c0.2,0,0.5,0.1,0.7,0.1h0.7c0.5,0,1,0.1,1.5,0.1s1,0,1.4-0.1c1,0,1.9-0.2,2.8-0.3c0.5,0,0.9-0.2,1.3-0.3s0.9-0.2,1.3-0.3
	c0.4-0.2,0.8-0.3,1.2-0.5c0.2-0.1,0.4-0.1,0.6-0.2s0.4-0.2,0.6-0.3c0.4-0.2,0.8-0.4,1.1-0.5c0.4-0.2,0.7-0.4,1.1-0.6
	c0.3-0.2,0.7-0.4,1-0.6s0.6-0.5,1-0.7c2.5-1.9,4.3-4.1,5.6-6.3c1.3-2.1,2.1-4.2,2.4-5.9c0.1-0.4,0.2-0.8,0.3-1.2s0.1-0.7,0.2-1.1
	c0-0.3,0.1-0.6,0.1-0.9s0-0.5,0-0.8c0-0.5,0.1-0.8,0.1-1.1C213.3,22.4,213.3,22.3,213.3,22.3s0,0.1,0,0.4v1.1v0.8
	c0,0.3-0.1,0.6-0.1,0.9s-0.1,0.7-0.2,1.1c0,0.4-0.2,0.8-0.3,1.2c-0.4,1.7-1.2,3.8-2.4,5.9c-1.3,2.2-3.1,4.4-5.6,6.3
	c-0.3,0.2-0.6,0.5-1,0.7c-0.3,0.2-0.7,0.4-1,0.6c-0.4,0.2-0.7,0.5-1.1,0.6c-0.4,0.2-0.8,0.4-1.2,0.6c-0.2,0.1-0.4,0.2-0.6,0.3
	s-0.4,0.2-0.6,0.2c-0.4,0.2-0.8,0.3-1.2,0.5c-0.4,0.1-0.9,0.2-1.3,0.4c-0.4,0.1-0.9,0.3-1.3,0.3c-0.9,0.1-1.8,0.3-2.8,0.3
	c-0.5,0-1,0.1-1.4,0.1c-0.5,0-1,0-1.5-0.1c-0.2,0-0.5,0-0.7,0s-0.5-0.1-0.7-0.1c-0.5-0.1-1-0.1-1.5-0.2c-1-0.3-2-0.5-3-0.9
	c-1-0.3-1.9-0.8-2.9-1.3c-0.5-0.3-0.9-0.6-1.4-0.8c-0.2-0.1-0.5-0.3-0.7-0.4l-0.7-0.5c-0.9-0.6-1.7-1.4-2.5-2.1
	c-0.4-0.4-0.8-0.8-1.1-1.2l-0.3-0.3l-0.3-0.3l-0.5-0.7l-0.5-0.7l-0.4-0.7l-0.4-0.7l-0.2-0.4l-0.2-0.4c-0.3-0.5-0.5-1-0.8-1.6
	c-0.2-0.5-0.4-1.1-0.6-1.7c-0.7-2.2-1.1-4.6-1.1-7s0.4-4.8,1.1-7c0.2-0.6,0.4-1.1,0.6-1.7c0.3-0.5,0.5-1.1,0.8-1.6l0.2-0.4l0.2-0.4
	l0.4-0.7l0.4-0.7l0.5-0.7l0.5-0.7l0.3-0.3l0.3-0.3c0.4-0.4,0.8-0.8,1.1-1.2c0.8-0.7,1.6-1.5,2.5-2.1l0.7-0.5
	c0.2-0.2,0.5-0.3,0.7-0.4c0.5-0.3,0.9-0.6,1.4-0.8c1-0.5,1.9-1,2.9-1.3c1-0.4,2-0.6,3-0.9c0.5-0.1,1-0.2,1.5-0.2
	c0.2,0,0.5-0.1,0.7-0.1h0.7c0.5,0,1,0,1.5-0.1c0.5,0,1,0,1.4,0.1c1,0,1.9,0.2,2.8,0.3c0.5,0,0.9,0.2,1.3,0.3s0.9,0.2,1.3,0.4
	s0.8,0.3,1.2,0.5c0.2,0.1,0.4,0.2,0.6,0.2c0.2,0.1,0.4,0.2,0.6,0.3c0.4,0.2,0.8,0.4,1.2,0.6s0.7,0.4,1.1,0.6s0.7,0.4,1,0.6
	s0.6,0.5,1,0.7c2.5,1.9,4.3,4.2,5.6,6.3c1.3,2.2,2,4.2,2.4,5.9c0.1,0.4,0.2,0.8,0.3,1.2s0.1,0.7,0.2,1.1c0,0.3,0.1,0.6,0.1,0.9v0.8
	V22.3C213.3,22.2,213.3,22.3,213.3,22.3z"/>
<path style="fill:#263238;" d="M179.4,41c0,0-0.2,0.3-0.7,0.8c-0.4,0.5-1,1.2-1.6,2c-1.2,1.6-2.2,2.9-2.2,2.9c-0.1,0,0.8-1.4,2-3
	c0.6-0.8,1.2-1.5,1.7-2C179.1,41.3,179.4,41,179.4,41z"/>
<path style="fill:none;stroke:#000000;stroke-width:0.25;stroke-miterlimit:10;" d="M104.3,45.6c0,0,0-0.1,0-0.4s0-0.7-0.1-1.3
	c-0.1-1.1-0.3-2.7-0.8-4.8c-0.3-1-0.6-2.1-1.1-3.3s-1.1-2.4-1.8-3.7c-1.5-2.5-3.7-5.2-6.7-7.5c-1.5-1.1-3.2-2.2-5.1-3
	s-3.9-1.5-6.1-1.9s-4.5-0.6-6.8-0.4c-1.2,0.1-2.4,0.3-3.6,0.5c-1.2,0.3-2.4,0.6-3.5,1c-4.7,1.7-9.1,4.8-12.3,9.2
	c-0.8,1.1-1.5,2.2-2.2,3.5c-0.3,0.6-0.6,1.2-0.9,1.9c-0.3,0.6-0.5,1.3-0.7,1.9c-0.9,2.6-1.3,5.5-1.4,8.3c0,2.9,0.5,5.7,1.4,8.3
	c0.2,0.7,0.5,1.3,0.7,1.9c0.3,0.6,0.6,1.3,0.9,1.9c0.6,1.2,1.3,2.4,2.2,3.5c3.2,4.4,7.6,7.5,12.3,9.2c1.2,0.4,2.4,0.8,3.5,1
	c1.2,0.2,2.4,0.4,3.6,0.5c2.4,0.2,4.7,0,6.8-0.4c2.2-0.4,4.2-1.1,6.1-1.9s3.6-1.9,5.1-3c3-2.3,5.2-4.9,6.7-7.5
	c0.8-1.3,1.4-2.5,1.8-3.7c0.5-1.2,0.8-2.3,1.1-3.3c0.5-2,0.7-3.7,0.8-4.8c0.1-0.6,0-1,0.1-1.3C104.3,45.7,104.3,45.6,104.3,45.6
	s0,0.1,0,0.4v1.3c-0.1,1.1-0.2,2.7-0.7,4.8c-0.3,1-0.6,2.1-1.1,3.3s-1.1,2.5-1.8,3.7c-1.5,2.6-3.7,5.2-6.8,7.5
	c-1.5,1.1-3.2,2.2-5.1,3c-1.9,0.9-3.9,1.5-6.1,1.9s-4.5,0.6-6.9,0.4c-1.2-0.1-2.4-0.3-3.6-0.5c-1.2-0.3-2.4-0.6-3.6-1
	c-4.7-1.7-9.2-4.9-12.4-9.2c-0.8-1.1-1.5-2.3-2.2-3.5c-0.3-0.6-0.6-1.2-0.9-1.9c-0.3-0.6-0.5-1.3-0.7-2c-0.9-2.7-1.3-5.5-1.4-8.4
	c0-2.9,0.5-5.7,1.4-8.4c0.2-0.7,0.5-1.3,0.7-2c0.3-0.6,0.6-1.3,0.9-1.9c0.6-1.2,1.4-2.4,2.2-3.5c3.2-4.4,7.7-7.5,12.4-9.2
	c1.2-0.4,2.4-0.8,3.6-1s2.4-0.4,3.6-0.5c2.4-0.2,4.7,0,6.9,0.4s4.2,1.1,6.1,1.9c1.9,0.9,3.6,1.9,5.1,3c3,2.3,5.2,5,6.8,7.5
	c0.8,1.3,1.4,2.5,1.8,3.7c0.5,1.2,0.8,2.3,1.1,3.3c0.5,2,0.7,3.7,0.7,4.8v1.3V45.6z"/>
<path style="fill:#263238;" d="M114.9,67.8c0,0.1-3.3-1.7-7.4-4.1c-4-2.3-7.3-4.3-7.2-4.3c0-0.1,3.3,1.7,7.4,4.1
	C111.7,65.8,114.9,67.7,114.9,67.8z"/>
<path style="fill:#6F2A54;" d="M41.4,159.2c0,0.5-0.4,0.9-0.9,0.9H17.8c-0.5,0-0.9-0.4-0.9-0.9v-35.7c0-0.5,0.4-0.9,0.9-0.9h22.6
	c0.5,0,0.9,0.4,0.9,0.9v35.7H41.4z"/>
<path style="fill:#CE4980;" d="M34.7,131.8c0,3.1-2.5,5.6-5.6,5.6s-5.6-2.5-5.6-5.6s2.5-5.6,5.6-5.6
	C32.2,126.3,34.7,128.8,34.7,131.8z"/>
<path style="fill:#511C3C;" d="M33.2,131.8c0,2.3-1.8,4.1-4.1,4.1s-4.1-1.8-4.1-4.1s1.8-4.1,4.1-4.1
	C31.4,127.8,33.2,129.6,33.2,131.8z"/>
<path style="fill:#6F2A54;" d="M32.3,131.8c0,1.7-1.4,3.1-3.1,3.1s-3.1-1.4-3.1-3.1s1.4-3.1,3.1-3.1S32.3,130.1,32.3,131.8z"/>
<path style="fill:#CE4980;" d="M37.9,148.3c0,4.8-3.9,8.7-8.7,8.7s-8.7-3.9-8.7-8.7s3.9-8.7,8.7-8.7S37.9,143.5,37.9,148.3z"/>
<path style="fill:#511C3C;" d="M36.4,148.3c0,4-3.3,7.3-7.3,7.3s-7.3-3.3-7.3-7.3s3.3-7.3,7.3-7.3C33.2,141.1,36.4,144.3,36.4,148.3
	z"/>
<path style="fill:#6F2A54;" d="M34.6,148.3c0,3-2.4,5.4-5.4,5.4s-5.4-2.4-5.4-5.4s2.4-5.4,5.4-5.4S34.6,145.3,34.6,148.3z"/>
<path style="fill:#511C3C;" d="M32,148.3c0,1.6-1.3,2.8-2.8,2.8c-1.6,0-2.8-1.3-2.8-2.8c0-1.6,1.3-2.8,2.8-2.8S32,146.8,32,148.3z"
	/>
<path style="fill:#CE4980;" d="M28.6,146.1c0.2,0.2-0.1,0.7-0.6,1.1c-0.5,0.5-1,0.7-1.1,0.6c-0.2-0.2,0.1-0.7,0.6-1.1
	C27.9,146.2,28.4,146,28.6,146.1z"/>
<path style="fill:#511C3C;" d="M30.9,131.8c0,1-0.8,1.8-1.8,1.8s-1.8-0.8-1.8-1.8s0.8-1.8,1.8-1.8C30.1,130.1,30.9,130.9,30.9,131.8
	z"/>
<path style="fill:#CE4980;" d="M28.8,130.5c0.1,0.1-0.1,0.4-0.4,0.7s-0.6,0.4-0.7,0.4c-0.1-0.1,0.1-0.4,0.4-0.7
	C28.4,130.5,28.7,130.4,28.8,130.5z"/>
<path style="fill:#CE4980;" d="M23.6,141.6c0,0.4-0.3,0.7-0.7,0.7s-0.7-0.3-0.7-0.7s0.3-0.7,0.7-0.7
	C23.3,140.8,23.6,141.2,23.6,141.6z"/>
<path style="fill:#CE4980;" d="M34.7,141.6c0,0.4,0.3,0.7,0.7,0.7s0.7-0.3,0.7-0.7s-0.3-0.7-0.7-0.7C35,140.8,34.7,141.2,34.7,141.6
	z"/>
<path style="fill:#CE4980;" d="M34.7,155.1c0-0.4,0.3-0.7,0.7-0.7s0.7,0.3,0.7,0.7s-0.3,0.7-0.7,0.7S34.7,155.5,34.7,155.1z"/>
<path style="fill:#CE4980;" d="M23.6,155.1c0-0.4-0.3-0.7-0.7-0.7s-0.7,0.3-0.7,0.7s0.3,0.7,0.7,0.7S23.6,155.5,23.6,155.1z"/>
<path style="fill:#7ACFCF;" d="M44.6,137.7c0.2,1-1,2-2.6,2.3s-3.1-0.2-3.3-1.2s1-2,2.6-2.3C42.9,136.3,44.4,136.8,44.6,137.7z"/>
<path style="fill:#7ACFCF;" d="M53.2,138.9c0.2,1-1,2-2.6,2.3s-3.1-0.2-3.3-1.2s1-2,2.6-2.3C51.6,137.4,53,137.9,53.2,138.9z"/>
<path style="fill:#7ACFCF;" d="M52.7,139.7c-0.3,0-0.5-0.3-0.5-0.5l1.7-11.7l-7.8-1l-1.7,11.7c0,0.3-0.3,0.4-0.5,0.4
	c-0.3,0-0.4-0.3-0.4-0.5l1.8-12.1c0-0.3,0.3-0.4,0.5-0.4l8.7,1.1c0.1,0,0.2,0.1,0.3,0.2s0.1,0.2,0.1,0.4l-1.8,12.1
	C53.1,139.5,52.9,139.7,52.7,139.7z"/>
<path style="fill:#7ACFCF;" d="M45.32,129.14l0.12-0.89l8.73,1.14l-0.12,0.89L45.32,129.14z"/>
<path style="fill:#7ACFCF;" d="M54,131l-8.7-1.1l0.1-1l8.7,1.2L54,131z"/>
<path style="fill:#7ACFCF;" d="M45.65,127.14l0.12-0.89l8.73,1.14l-0.12,0.89L45.65,127.14z"/>
<path style="fill:#CE4980;" d="M47.5,116.9c0.1,0.5-0.4,1.1-1.3,1.3c-0.8,0.2-1.6,0-1.7-0.5s0.4-1.1,1.3-1.3
	C46.5,116.2,47.3,116.4,47.5,116.9z"/>
<path style="fill:#CE4980;" d="M52,117.2c0.1,0.5-0.4,1.1-1.3,1.3c-0.8,0.2-1.6,0-1.7-0.5s0.4-1.1,1.3-1.3
	C51.1,116.5,51.9,116.7,52,117.2z"/>
<path style="fill:#CE4980;" d="M51.8,117.7C51.7,117.7,51.7,117.7,51.8,117.7c-0.2,0-0.3-0.1-0.3-0.3l0.5-6.1l-4.1-0.3l-0.5,6.1
	c0,0.1-0.1,0.2-0.3,0.2c-0.1,0-0.2-0.1-0.2-0.3l0.5-6.4c0-0.1,0.1-0.2,0.3-0.2l4.6,0.3c0.1,0,0.1,0,0.2,0.1c0,0,0.1,0.1,0.1,0.2
	l-0.5,6.4C52,117.6,51.9,117.6,51.8,117.7z"/>
<path style="fill:#CE4980;" d="M47.65,111.38l0.03-0.5l4.59,0.29l-0.03,0.5L47.65,111.38z"/>
<path style="fill:#F3D359;" d="M42.1,125.3c0.5,0.6,0,1.7-1,2.4c-1,0.8-2.1,0.9-2.6,0.3s0-1.7,1-2.4S41.6,124.7,42.1,125.3z"/>
<path style="fill:#F3D359;" d="M42.2,125.6l-0.9,0.3L38,115.6l0.1-0.2c0-0.1,0.5-0.8,1.7-1.2c0.6-0.2,1.4-0.2,2.2-0.1
	c0.8,0,1.3-0.3,1.3-0.3l0.4-0.3l0.5,0.7l-0.4,0.3c0,0-0.7,0.5-1.8,0.5c-0.7,0-1.5,0-1.9,0.1c-0.6,0.2-0.9,0.5-1.1,0.6L42.2,125.6z"
	/>
<path style="fill:#F3D359;" d="M43.6,115c-0.4,0.2-0.9,0.3-1.6,0.3c-0.6,0-1.4,0-1.8,0.1c-0.7,0.2-1,0.6-1,0.7l-0.4,0.6l-0.7-1
	l-0.1-0.4c0.1-0.1,0.5-1,1.8-1.4c0.6-0.2,1.5-0.2,2.3-0.2c0.6,0,1-0.3,1.1-0.3l0.6-0.4l0.9,1.3l-0.6,0.5
	C44,114.8,43.8,114.9,43.6,115z"/>
<path style="fill:#7ACFCF;" d="M92.3,46.6c1.3-1.4,1.2-9.2,1.2-9.2l-2.9-0.8l-2.9-0.8c0,0-4.2,6.5-3.8,8.4s1.6,3.1,2.1,4.3
	s-0.2,3.4-0.7,5c-0.5,1.5-1.1,2-2,1.9c-1-0.1-1.8,0-1.9,0.4l3.5,1l3.5,1c0.1-0.3-0.6-0.9-1.4-1.3s-1.1-1.1-0.7-2.7s1-3.8,2-4.6
	C89.3,48.3,91,48,92.3,46.6z"/>
<path style="fill:#D6EDF0;" d="M88.4,57.7c0.1-0.3-0.6-0.9-1.4-1.3s-1.1-1.1-0.7-2.7s1-3.8,2-4.6s2.7-1.1,4-2.5s1.2-9.2,1.2-9.2
	l-2.9-0.8l-5.7,20.1L88.4,57.7z"/>
<path style="fill:#F5DE84;" d="M92.9,41l-3.3-0.9l-3.3-0.9c0,0-1.7,2.9-1.8,4.4s1,3.7,3,4.3c1.9,0.5,4.1-0.8,4.8-2.1
	C92.8,44.4,92.9,41,92.9,41z"/>
<path style="fill:#F3D359;" d="M87.7,41.3c-0.1,0.3-0.4,0.4-0.6,0.4c-0.3-0.1-0.4-0.4-0.4-0.6c0.1-0.3,0.4-0.4,0.6-0.4
	C87.6,40.8,87.8,41.1,87.7,41.3z"/>
<path style="fill:#F3D359;" d="M88,42.7c0,0.1-0.1,0.2-0.3,0.1c-0.1,0-0.2-0.1-0.1-0.2c0-0.1,0.1-0.2,0.2-0.1
	C88,42.5,88,42.6,88,42.7z"/>
<path style="fill:#F3D359;" d="M87.4,44.7c-0.1,0.4-0.5,0.6-0.9,0.5s-0.6-0.5-0.5-0.9s0.5-0.6,0.9-0.5S87.5,44.3,87.4,44.7z"/>
<path style="fill:#F3D359;" d="M87.9,46.5c-0.1,0.3-0.3,0.4-0.6,0.3s-0.4-0.3-0.3-0.6s0.3-0.4,0.6-0.3S88,46.3,87.9,46.5z"/>
<path style="fill:#F3D359;" d="M90.1,41.3c-0.1,0.3-0.4,0.5-0.7,0.4S88.9,41.3,89,41s0.4-0.5,0.7-0.4S90.2,41,90.1,41.3z"/>
<path style="fill:#F3D359;" d="M89.4,44.5c-0.1,0.2-0.3,0.4-0.6,0.3c-0.2-0.1-0.4-0.3-0.3-0.6c0.1-0.2,0.3-0.4,0.6-0.3
	C89.3,44,89.4,44.2,89.4,44.5z"/>
<path style="fill:#FFFFFF;" d="M86.6,39.3c-0.7,1.4-1.4,2.4-1.5,2.4c-0.1-0.1,0.3-1.2,1-2.6s1.4-2.4,1.5-2.4
	C87.7,36.8,87.3,37.9,86.6,39.3z"/>
<path style="fill:#009600;" d="M73.5,46.6l11,19.6c0,0-4.2,2.2-4.8,1S75,58.8,75,58.8s-1.4-2.5-1.3-3.8c0.1-1.4-0.2-6.2-3.3-11.4
	l1.1-0.6L73.5,46.6z"/>
<path style="fill:#006400;" d="M73.5,46.6l11,19.6c0,0,4.1-2.4,3.4-3.6s-4.7-8.4-4.7-8.4s-1.3-2.5-2.6-3.1c-1.2-0.6-5-3.5-7.8-8.8
	L71.5,43L73.5,46.6z"/>
<path style="fill:#F5DE84;" d="M70.8,44c-0.7-0.4-1.3-0.4-2-1.8c-1.2-2.1-0.8-2.9,0.3-3.5l3.4,6L70.8,44z"/>
<path style="fill:#F5DE84;" d="M72.7,43c0-0.8,0.3-1.3-0.5-2.7c-1.2-2.1-2-2.2-3.1-1.6l3.4,6L72.7,43z"/>
<path style="fill:#F5DE84;" d="M73.4,52.4c0,0,0.9,0,2.7-1c1.9-1,2.4-1.8,2.4-1.8c-1.7-1.4-3.9-3.9-5.8-7.4l-1.3,0.7l-1.1,0.6
	C72.3,47,73.1,50.2,73.4,52.4z"/>
<path style="fill:#FFFFFF;" d="M84.5,61.9c0.2,0.4,0.2,0.9-0.2,1.1l-2.6,1.4c-0.3,0.2-0.8,0-1.1-0.4l-3.9-7
	c-0.2-0.4-0.2-0.9,0.2-1.1l2.6-1.4c0.3-0.2,0.8,0,1.1,0.4L84.5,61.9z"/>
<path style="opacity:0.5;fill:#80FF3F;enable-background:new    ;" d="M73.5,46.6l11,19.6c0,0,4.1-2.4,3.4-3.6s-4.7-8.4-4.7-8.4
	s-1.3-2.5-2.6-3.1c-1.2-0.6-5-3.5-7.8-8.8L71.5,43L73.5,46.6z"/>
<path style="fill:#F3D359;" d="M72.7,43c0-0.8,0.3-1.3-0.5-2.7c-1.2-2.1-2-2.2-3.1-1.6l3.4,6L72.7,43z"/>
<path style="fill:#F3D359;" d="M71.5,42.9l4.8,8.5c1.8-1,2.3-1.8,2.3-1.8c-1.7-1.4-3.9-3.9-5.8-7.4L71.5,42.9z"/>
<path style="fill:#FFFFFF;" d="M77.8,61.5c1.3,2.3,2.2,4.2,2.1,4.2c-0.1,0.1-1.3-1.7-2.5-4c-1.3-2.3-2.2-4.2-2.1-4.2
	C75.4,57.4,76.5,59.2,77.8,61.5z"/>
<g>
	<path style="fill:#F5DE84;" d="M69.1,39.4c0,0.1-0.8-1.4-1.9-2.6c-0.9-1-2-2.2-2.7-2.9c-1.5-1.6-3.5-3.4-3-3.8
		c0.4-0.4,2.3,1.9,3.4,3.3C66,34.7,69.2,39.2,69.1,39.4z"/>
	<path style="fill:#F5DE84;" d="M67.9,38.3c0,0-0.6-0.8-1.5-1.3c-0.7-0.4-1.6-0.8-2.2-0.9c-1.2-0.4-2.6-0.2-2.6-0.5s1.7-0.2,2.6,0.2
		C65.3,35.8,68,38.1,67.9,38.3z"/>
	<path style="fill:#F5DE84;" d="M69.6,38.5c0,0-0.4-1-0.5-2.1c-0.1-0.9,0.1-2,0.3-2.6c0.3-1.5,1.2-2.9,0.9-3
		c-0.4-0.2-1.1,1.7-1.2,2.9C68.6,34.8,69.4,38.5,69.6,38.5z"/>
	<path style="fill:#F5DE84;" d="M69.1,38.1c0,0-3.2-7.8-3.5-8.8s-1-0.6-0.7-0.1C65,29.8,67.8,35.9,69.1,38.1z"/>
	<path style="fill:#F5DE84;" d="M63,36.7c0.1,0.1,0.2,0.2,0.3,0.1s0.2-0.2,0.1-0.3s-0.2-0.2-0.3-0.1C62.9,36.4,62.9,36.6,63,36.7z"
		/>
	<path style="fill:#F5DE84;" d="M70.4,33.3c0.1,0.1,0.2,0.2,0.3,0.1s0.2-0.2,0.1-0.3s-0.2-0.2-0.3-0.1C70.3,33,70.3,33.2,70.4,33.3z
		"/>
	<path style="fill:#F5DE84;" d="M64.9,37.3c0-0.1,0-0.2,0.1-0.2s0.2,0,0.2,0.1s0,0.2-0.1,0.2C65.1,37.4,65,37.3,64.9,37.3z"/>
	<path style="fill:#F5DE84;" d="M60.9,33c-0.1-0.1,0-0.3,0.1-0.4s0.3,0,0.4,0.1s0,0.3-0.1,0.4C61.1,33.2,61,33.2,60.9,33z"/>
	<path style="fill:#F5DE84;" d="M63.9,30.7c0-0.1,0-0.2,0.1-0.2s0.2,0,0.2,0.1s0,0.2-0.1,0.2C64.1,30.8,64,30.7,63.9,30.7z"/>
	<path style="fill:#F5DE84;" d="M69.7,37.3c0-0.1,0-0.2,0.1-0.2s0.2,0,0.2,0.1s0,0.2-0.1,0.2S69.7,37.4,69.7,37.3z"/>
	<path style="fill:#F5DE84;" d="M65.4,33c0.1,0.1,0.3,0.2,0.4,0.1s0.2-0.3,0.1-0.4s-0.3-0.2-0.4-0.1C65.3,32.7,65.3,32.9,65.4,33z"
		/>
	<path style="fill:#F5DE84;" d="M70.3,35.6c0.1,0.1,0.2,0.1,0.3,0.1c0.1-0.1,0.1-0.2,0.1-0.3c-0.1-0.1-0.2-0.1-0.3-0.1
		C70.2,35.4,70.2,35.5,70.3,35.6z"/>
	<path style="fill:#F5DE84;" d="M67,29.3c0.1,0.1,0.2,0.1,0.3,0.1c0.1-0.1,0.1-0.2,0.1-0.3C67.3,29,67.2,29,67.1,29
		C66.9,29.1,66.9,29.2,67,29.3z"/>
	<path style="fill:#F5DE84;" d="M63.7,28.3c0.1,0.1,0.2,0.1,0.3,0.1c0.1-0.1,0.1-0.2,0.1-0.3C64,28,63.9,28,63.8,28
		C63.7,28.1,63.7,28.2,63.7,28.3z"/>
	<path style="fill:#F5DE84;" d="M67.5,31.9c0.1,0.2,0.3,0.2,0.5,0.1s0.2-0.3,0.1-0.5s-0.3-0.2-0.5-0.1S67.4,31.7,67.5,31.9z"/>
	<path style="fill:#F5DE84;" d="M67.8,39c0,0.1,0.1,0.1,0.2,0.1s0.1-0.1,0.1-0.2s-0.1-0.1-0.2-0.1C67.7,38.8,67.7,38.9,67.8,39z"/>
	<path style="fill:#F5DE84;" d="M63.4,34.4c0,0.1,0.1,0.1,0.2,0c0.1,0,0.1-0.1,0-0.2c0-0.1-0.1-0.1-0.2,0V34.4z"/>
	<path style="fill:#F5DE84;" d="M68.9,30.2c0.1,0.1,0.2,0.1,0.3,0.1c0.1-0.1,0.1-0.2,0.1-0.3c-0.1-0.1-0.2-0.1-0.3-0.1
		S68.8,30.1,68.9,30.2z"/>
</g>
<path style="fill:#263238;" d="M122.4,51.7c1.3-4.2,4.6-8,8.9-10.1c4.7-2.3,10.5-2.6,15.8-1.7s10.3,3.1,14.9,5.5
	c2.6,1.4,5.2,2.8,7.1,5c3.4,3.9,3.9,9.1,4.3,14.1c0.3,4,0.5,8.2-1.4,11.8c-1.7,3.3-5.3,5.9-9.3,6.7"/>
<path style="fill:#263238;" d="M171,71.7c5.2-5.3,7.9-12.6,7.1-19.6c-0.2-2.4-1-4.9-3-6.4c-1-0.8-2.3-1.2-3.4-2
	c-1.9-1.4-2.9-3.6-4.7-5.1c-1.9-1.5-4.7-2.1-7.1-1.5s-4.5,2.4-5.2,4.6c-1,3,0.5,6.1,1.9,9c2.2,4.4,4.4,8.8,6.6,13.2
	c0.8,1.7,1.7,3.3,3,4.7s3.3,2.3,5.3,2.2"/>
<path style="fill:#263238;" d="M124.6,48.7c-3.9,3.8-6.3,8.7-6.7,13.8s1.2,10.3,4.4,14.5c2.8-10.8,6.6-21.4,11.4-31.6"/>
<path style="fill:#FFBE9D;" d="M119.9,63.4c0.6-7.8,6.4-17.5,15.2-16.6l20.3,4.6c6.5,1.5,10.9,6.4,11.3,12.4c0,0.3,0.1-0.1,0.1,0.2
	l-1.5,47.4c-0.3,7.8-7.5,13.9-16.2,13.7c-8.6-0.2-15.5-6.4-15.5-14.1c0-3.8,0-8.3,0-8.3s-11.2-1.7-13.5-14.8
	C118.9,81.4,119.3,72.2,119.9,63.4L119.9,63.4z"/>
<path style="fill:#263238;" d="M124.8,73.6c0,0.9,0.8,1.6,1.8,1.7s1.9-0.6,1.9-1.5s-0.8-1.6-1.8-1.7S124.9,72.7,124.8,73.6z"/>
<path style="fill:#263238;" d="M122.5,69c0.2,0.2,1.7-0.7,3.7-0.7s3.5,0.9,3.7,0.7c0.1-0.1-0.1-0.5-0.8-0.9c-0.6-0.4-1.7-0.8-3-0.8
	s-2.3,0.4-2.9,0.8S122.4,68.9,122.5,69z"/>
<path style="fill:#263238;" d="M144.3,73.6c0,0.9,0.8,1.6,1.8,1.7s1.9-0.6,1.9-1.5s-0.8-1.6-1.8-1.7S144.3,72.7,144.3,73.6z"/>
<path style="fill:#263238;" d="M142.4,69.4c0.2,0.2,1.7-0.7,3.7-0.7s3.5,0.9,3.7,0.7c0.1-0.1-0.1-0.5-0.8-0.9
	c-0.6-0.4-1.7-0.8-3-0.8s-2.3,0.4-2.9,0.8S142.3,69.3,142.4,69.4z"/>
<path style="fill:#263238;" d="M135,82.7c0-0.1-1.2-0.3-3.3-0.5c-0.5,0-1-0.1-1.1-0.5c-0.1-0.3,0.1-0.8,0.3-1.4
	c0.5-1.1,1-2.3,1.5-3.5c2.1-5,3.7-9.1,3.5-9.2s-2.1,3.9-4.3,8.9c-0.5,1.2-1,2.4-1.5,3.5c-0.2,0.5-0.5,1.1-0.3,1.8
	c0.1,0.3,0.5,0.6,0.8,0.7s0.6,0.1,0.9,0.1C133.8,82.8,135,82.8,135,82.7L135,82.7z"/>
<path style="fill:#EB996E;" d="M153.1,98c0,0-4.8,9-19.5,7.7v-3.1C133.6,102.6,143.3,103.2,153.1,98z"/>
<path style="fill:#263238;" d="M138.2,88.7c-0.3-0.2-1.8,1.7-4.7,1.8c-2.9,0.2-5-1.5-5.2-1.2c-0.1,0.1,0.2,0.7,1.1,1.3
	s2.5,1.2,4.2,1.1c1.8-0.1,3.1-0.9,3.8-1.6C138.2,89.4,138.3,88.8,138.2,88.7L138.2,88.7z"/>
<path style="fill:#263238;" d="M141.9,64.1c0.2,0.5,2.2,0.3,4.6,0.5s4.3,0.8,4.6,0.4c0.1-0.2-0.2-0.7-1-1.1c-0.8-0.5-2-0.9-3.4-1.1
	c-1.4-0.1-2.7,0.1-3.6,0.4C142.3,63.5,141.9,63.8,141.9,64.1L141.9,64.1z"/>
<path style="fill:#263238;" d="M123.3,63.8c0.4,0.4,1.8,0,3.4,0c1.7-0.1,3.1,0.3,3.4-0.1c0.1-0.2-0.1-0.6-0.7-1s-1.6-0.7-2.8-0.7
	s-2.2,0.4-2.7,0.8C123.3,63.1,123.1,63.6,123.3,63.8z"/>
<path style="fill:#263238;" d="M123.9,51.5c0.9-2,3.3-3.2,5.7-3.3c2.4-0.1,4.7,0.7,6.8,1.8c8.7,4.5,13.7,13.4,22.3,18.1
	c2.1,1.1,4.5,2,6.3,3.5s3,3.9,2,6c1.2-1.4,2.3-2.9,3-4.5c0.7-1.7,0.7-3.6-0.2-5.1c-0.7-1.2-2.1-2-2.4-3.3c-0.3-1.1,0.2-2.3,0.1-3.5
	s-0.7-2.3-1.3-3.3c-3.4-5.3-8-10.2-14-13.2c-3.9-2-8.4-3.1-12.9-3s-9,1.6-12.3,4.3C125,47.7,122.9,49.3,123.9,51.5"/>
<path style="fill:#455A64;" d="M166.8,77.7c0,0,0.2-0.2,0.5-0.5c0.3-0.4,0.7-0.9,0.9-1.7c0.6-1.6,0.6-4.1-0.8-6.8
	c-0.7-1.4-1.6-2.8-2.6-4.3s-1.8-3.3-2.7-5.1s-1.8-3.7-3.1-5.5s-2.9-3.5-4.9-5c-3.9-3-8.5-4.7-12.9-5.3s-8.5,0-11.4,1.4
	c-3,1.4-4.7,3.4-5.5,4.9c-0.4,0.7-0.6,1.4-0.8,1.8c-0.1,0.4-0.2,0.7-0.2,0.7s0-0.1,0-0.2s0-0.3,0.1-0.5c0.1-0.4,0.3-1.1,0.7-1.8
	c0.8-1.5,2.5-3.6,5.5-5c3-1.4,7.2-2,11.6-1.5c4.4,0.6,9.2,2.3,13.1,5.3c2,1.5,3.6,3.2,4.9,5.1c1.3,1.8,2.2,3.8,3.1,5.6
	s1.7,3.6,2.6,5.1s1.9,3,2.5,4.4c1.4,2.8,1.3,5.4,0.7,7c-0.3,0.8-0.7,1.4-1,1.7C167,77.5,166.8,77.7,166.8,77.7L166.8,77.7z"/>
<path style="fill:#455A64;" d="M173.6,70.8c0,0,0-0.1,0-0.4s0-0.6,0-1.1c0-0.9,0.1-2.3,0-3.9c-0.1-1.7-0.2-3.6-0.7-5.8
	c-0.5-2.1-1.4-4.4-3.1-6.4s-3.8-3.6-5.6-5c-1.9-1.4-3.6-2.7-5.1-3.6c-1.5-1-2.8-1.7-3.7-2.1c-0.4-0.2-0.8-0.4-1-0.5
	s-0.4-0.2-0.4-0.2s0.1,0,0.4,0.1c0.2,0.1,0.6,0.3,1.1,0.5c0.9,0.4,2.2,1.1,3.8,2.1c1.5,0.9,3.3,2.2,5.2,3.6s4,3,5.7,5
	c1.8,2,2.7,4.4,3.2,6.5c0.5,2.2,0.6,4.1,0.6,5.8s-0.1,3-0.1,3.9c0,0.5-0.1,0.8-0.1,1.1C173.6,70.7,173.6,70.8,173.6,70.8L173.6,70.8
	z"/>
<path style="fill:#455A64;" d="M167.2,39.2c0,0,0.2,0.6,0.4,1.5s0.3,2.2,0.2,3.7c-0.1,1.4-0.4,2.7-0.7,3.6s-0.6,1.4-0.6,1.4
	c-0.1,0,0.7-2.2,0.9-5.1C167.6,41.5,167,39.2,167.2,39.2L167.2,39.2z"/>
<path style="fill:#455A64;" d="M177.5,48.9c0,0-0.1,0.5-0.5,1.1s-1.1,1.4-2.1,2.1s-2.1,1-2.9,1.2s-1.3,0.1-1.3,0.1
	c0-0.1,0.5-0.1,1.2-0.3c0.8-0.2,1.8-0.6,2.7-1.2c1-0.6,1.7-1.4,2.1-2C177.2,49.3,177.4,48.9,177.5,48.9z"/>
<path style="fill:#455A64;" d="M178.2,57.7c0,0.1-1.2,0.5-2.9,0.5c-1.7-0.1-2.9-0.6-2.9-0.6c0-0.1,1.3,0.2,2.9,0.3
	C176.9,57.9,178.2,57.6,178.2,57.7z"/>
<path style="fill:#263238;" d="M171.8,80.5c-0.3-0.2-0.2-1-0.1-2.4c0-0.7,0-1.5-0.3-2.3c-0.1-0.2-0.2-0.4-0.3-0.5
	c0-0.1-0.1-0.2-0.2-0.2c-0.1-0.1-0.2-0.2-0.2-0.3c-0.4-0.4-0.8-0.9-1.2-1.3s-0.9-0.7-1.3-0.8c-0.2,0-0.2,0-0.1,0
	c-0.2,0-0.3,0.1-0.5,0.1s-0.4,0.1-0.6,0.1c-0.7,0.2-1.4,0.4-2.1,0.7c-0.3,0.2-0.7,0.3-1,0.5l-0.3,0.2l-0.5,0.2
	c-0.3,0.1-0.6,0.3-0.9,0.4c-1.3,0.4-2.6,0.7-4.1,0.6c-0.8,0-1.6-0.2-2.5-0.6l-0.3-0.1l-0.3-0.1c-0.2-0.1-0.3-0.2-0.5-0.3
	c-0.3-0.2-0.6-0.4-0.9-0.6c-1.1-0.9-1.9-2-2.5-3.1c-0.6-1-1-2.1-1.5-3c-1.6-3.6-3.9-6.7-6.3-9.2c-2.4-2.6-5-4.6-7.4-6.1
	c-2.3-1.6-4.3-2.5-5.8-3s-2.4-0.6-2.5-1c-0.1-0.3,0.9-0.8,2.8-0.9s4.6,0.6,7.5,1.9s6.1,3.3,9.1,6s5.8,6.3,7.6,10.4
	c0.5,1,0.8,1.9,1.3,2.6c0.4,0.8,0.9,1.4,1.3,1.8c0.1,0.1,0.2,0.2,0.4,0.3c0.1,0,0.1,0.1,0.2,0.1l0.1,0.1c0.1,0.1,0.3,0.1,0.6,0.2
	c0.6,0.1,1.3,0,1.9-0.2c0.2,0,0.3-0.1,0.4-0.1l0.2-0.1l0.4-0.2c0.5-0.2,1-0.4,1.5-0.6c1-0.4,2.2-0.6,3.2-0.8c0.3,0,0.5-0.1,0.8-0.1
	h0.4h0.4c0.9,0,1.7,0.2,2.3,0.5c1.2,0.6,1.8,1.3,2.4,1.9c0.5,0.7,0.9,1.3,1.3,1.9c0.1,0.2,0.2,0.3,0.2,0.5c0.1,0.2,0.2,0.4,0.2,0.6
	c0.1,0.4,0.2,0.7,0.2,1.1c0.1,1.4-0.3,2.4-0.6,3.2C173,80.1,172.1,80.7,171.8,80.5L171.8,80.5z"/>
<path style="fill:#FFBE9D;" d="M164.8,73.3c0.2-0.4,7.8-2.8,7.9,4.4c0.1,7-7.9,5.7-7.9,5.5C164.8,82.9,164.8,73.3,164.8,73.3z"/>
<path style="fill:#EB996E;" d="M167.2,80.4c0,0,0.1,0.1,0.4,0.2c0.2,0.1,0.6,0.2,1,0c0.8-0.3,1.5-1.5,1.5-2.7c0-0.6-0.1-1.3-0.4-1.8
	c-0.2-0.5-0.6-0.9-1-0.9c-0.4-0.1-0.7,0.1-0.8,0.3s-0.1,0.3-0.1,0.4c0,0-0.2-0.1-0.1-0.4c0-0.1,0.1-0.3,0.3-0.4s0.5-0.2,0.8-0.2
	c0.6,0,1.2,0.5,1.5,1.1s0.5,1.2,0.5,2c0,1.4-0.8,2.8-2,3.1c-0.6,0.1-1,0-1.3-0.2C167.2,80.6,167.2,80.5,167.2,80.4L167.2,80.4z"/>
<path style="fill:#455A64;" d="M170.9,73.2c0,0-0.1-0.2-0.3-0.5s-0.7-0.7-1.4-0.9s-1.7-0.4-2.8-0.2c-1.1,0.1-2.3,0.6-3.5,1.1
	c-1.3,0.5-2.8,1.1-4.5,1s-3.4-1-4.7-2.2c-1.3-1.3-2.1-2.9-2.8-4.6s-1.2-3.5-2-5.3c-1.6-3.6-3.6-6.8-6.2-9.2s-5.7-3.8-8.4-4.4
	c-1.4-0.3-2.6-0.4-3.7-0.4s-2.1,0.1-2.8,0.3c-1.5,0.3-2.3,0.7-2.3,0.7s0,0,0.1-0.1c0.1,0,0.3-0.1,0.4-0.2c0.4-0.2,1-0.4,1.7-0.5
	c0.8-0.2,1.7-0.3,2.9-0.4c1.1,0,2.4,0.1,3.8,0.4c2.8,0.6,5.9,2,8.5,4.4c2.7,2.4,4.8,5.7,6.3,9.2c0.8,1.8,1.4,3.6,2,5.3
	c0.7,1.7,1.5,3.3,2.7,4.5s2.8,2,4.4,2.2c1.6,0.1,3.1-0.5,4.4-1s2.5-1,3.6-1.1s2.1,0,2.9,0.3c0.7,0.3,1.2,0.7,1.4,1
	c0.1,0.2,0.2,0.3,0.2,0.4S170.9,73.2,170.9,73.2L170.9,73.2z"/>
<path style="fill:#455A64;" d="M167.9,69.6c0,0-0.2-0.1-0.5-0.2c-0.3-0.2-0.8-0.4-1.3-0.8c-1.1-0.7-2.6-1.8-4.3-3.5
	c-1.6-1.6-3.4-3.7-5.2-6c-1.9-2.3-3.9-4.9-6.5-7.2c-1.3-1.1-2.7-2.2-4.2-3s-3-1.4-4.5-1.8c-3-0.9-6-1.1-8.4-0.9
	c-2.4,0.1-4.3,0.6-5.6,1c-0.6,0.2-1.1,0.4-1.5,0.5c-0.3,0.1-0.5,0.2-0.5,0.2s0.2-0.1,0.5-0.2s0.8-0.3,1.4-0.5
	c1.3-0.4,3.2-0.9,5.6-1.1s5.4,0,8.5,0.9c1.5,0.4,3.1,1,4.6,1.9c1.5,0.8,2.9,1.9,4.3,3c2.6,2.4,4.7,5,6.5,7.3s3.5,4.4,5.1,6.1
	c1.6,1.6,3.1,2.8,4.2,3.5c0.5,0.4,1,0.6,1.3,0.8C167.8,69.5,167.9,69.6,167.9,69.6L167.9,69.6z"/>
<path style="fill:#FFFFFF;" d="M168.1,81.7c0.8-0.1,1.6,0.3,1.8,1s-0.3,1.4-1,1.7c-0.7,0.2-1.6-0.2-1.9-0.8
	c-0.3-0.7,0.1-1.5,0.8-1.8"/>
<path style="fill:#263238;" d="M167.7,81.8c0,0-0.5,0.2-0.7,0.9c-0.1,0.3,0,0.8,0.3,1.1s0.9,0.5,1.5,0.4c0.5-0.2,0.9-0.6,1-1.1
	c0.1-0.4-0.2-0.8-0.5-1.1c-0.6-0.5-1.2-0.3-1.2-0.4c0,0,0.1-0.1,0.4-0.1c0.2,0,0.6,0.1,1,0.3s0.7,0.7,0.6,1.3
	c-0.1,0.5-0.5,1.1-1.2,1.3s-1.4-0.1-1.8-0.5s-0.4-1-0.3-1.4s0.4-0.6,0.6-0.8C167.6,81.8,167.7,81.8,167.7,81.8L167.7,81.8z"/>
<path style="fill:#FFBE9D;" d="M137.9,110c-1.9,0.4-4.3,1-4.3,1l-9.9,21.5l-0.4,16.5l20.1,15.7l25.6-21.4l2.5-23.8l-2.7-12.3
	L137.9,110z"/>
<path style="fill:#263238;" d="M116.7,198.9l59-3.8c0,0,25.4,9.7,25.4,54.9v15H91.9c0,0-4.1-50.2,23.1-66.1"/>
<path style="fill:#FAFAFA;" d="M164.6,135.6l13,15.1l-21.3,47.2l-37.8,0.7l3.3-60.2l5.8-4c-0.5,2.2-0.6,6.6,1,9.2
	c1.6,2.5,4.3,4.4,6.8,6.3s5.1,3.8,6.7,6.4c-0.6-3.3,1.9-6.5,4.9-8.4c3.1-1.9,6.7-2.9,10-4.5S164,138.8,164.6,135.6"/>
<path style="fill:#B4FFFF;" d="M114,116.4l16.2-4.1l3.6-6.1l0.6,4c0,0-1.9,5.4-1.7,4.9c1.1-3.2-6,22.3-6,22.3s-4.9,19.8-4.9,23.5
	c0,3.6-1.1,29.8-1.1,29.8l-7.3,61.3c0,0-21.7-14.4-21.7-18.3c0-1.2,1.8-11.7,3-14.9c3.8-10.4,5.5-15.2,11.8-24.6l6-9l-8.9-18.7
	l4.7-38L114,116.4z"/>
<path style="fill:#B4FFFF;" d="M105.4,167.8c-0.5-4.4,2.8-39.2,2.8-39.2l5.8-12.1c0,0-6.9,1.3-8,2.2c-1.1,1-5.2,4.2-6.8,6.5
	c-14.4,21-13.5,47.8-13.5,47.8c0.4,1.4,4.2,21.5,3.8,19.2l10.4,9l9.4-8.3l-0.8-9.9C108.4,182.9,105.9,172.1,105.4,167.8z"/>
<path style="fill:#263238;" d="M130.1,112.3c0,0-0.1,0-0.3,0.1s-0.5,0.2-0.8,0.4c-0.8,0.3-1.8,0.8-3.2,1.3
	c-2.8,1.1-6.8,2.8-11.8,4.8l0.1-0.2c1.5,2.1,3.2,4.4,5.1,6.9l0.1,0.2l-0.2,0.1c-2.6,0.7-5.5,1.4-8.5,2.2l0.1-0.1
	c0,4.7,0,9.9,0.1,15.3c0.4,13,0.6,25,3.8,33.1c1.3,4.1,2.4,7.4,3.1,9.7c0.4,1.1,0.7,2,0.9,2.6c0.1,0.3,0.2,0.5,0.2,0.7
	s0.1,0.2,0.1,0.2s0-0.1-0.1-0.2c-0.1-0.2-0.2-0.4-0.3-0.7c-0.2-0.6-0.5-1.5-1-2.6c-0.8-2.3-2-5.6-3.2-9.7c-0.6-2.1-1.3-4.3-1.9-6.8
	s-0.9-5.2-1.1-8c-0.5-5.6-0.7-11.9-0.9-18.4c-0.1-5.4-0.2-10.6-0.1-15.3v-0.1h0.1c3-0.8,5.8-1.5,8.5-2.2l-0.1,0.2
	c-1.8-2.5-3.5-4.9-5-7l-0.1-0.1l0.1-0.1c5-2,9-3.6,11.9-4.7c1.4-0.5,2.5-1,3.2-1.3c0.4-0.1,0.6-0.2,0.8-0.3L130.1,112.3z"/>
<path style="fill:#FFFFFF;" d="M144,125.6c0,0-0.2,0-0.6,0.2c-0.4,0.1-0.9,0.4-1.2,0.9c-0.4,0.5-0.6,1.3-0.3,2s1.2,1.4,2.2,1.5
	c1,0,2-0.5,2.4-1.2s0.3-1.5,0-2s-0.8-0.9-1.1-1c-0.3-0.2-0.6-0.2-0.6-0.2s0.2,0,0.6,0.1s0.9,0.5,1.3,1c0.2,0.3,0.3,0.6,0.4,1
	c0,0.4,0,0.8-0.3,1.2c-0.5,0.8-1.5,1.5-2.7,1.4s-2.1-0.9-2.5-1.7c-0.2-0.4-0.2-0.9-0.1-1.3s0.3-0.7,0.5-1c0.5-0.5,1-0.8,1.4-0.9
	S144,125.6,144,125.6L144,125.6z"/>
<path style="fill:#FFFFFF;" d="M133.7,111.8c0,0,0.1,0.6,0.4,1.7s1,2.5,2.2,4.2c1.2,1.6,3,3.3,5.1,5.1c0.5,0.5,1,0.9,1.7,1.2
	c0.6,0.3,1.4,0.3,2.1,0.1s1.4-0.6,2.1-0.9c0.7-0.4,1.4-0.7,2.2-1.1c2.9-1.5,5.7-3,7.9-4.6c2.3-1.6,4-3.4,5.3-5s2-3.1,2.4-4.1
	c0.2-0.5,0.4-0.9,0.4-1.2c0.1-0.3,0.1-0.4,0.2-0.4c0,0,0,0.2-0.1,0.4c-0.1,0.3-0.2,0.7-0.4,1.2c-0.4,1-1.1,2.5-2.3,4.2
	c-1.2,1.6-3,3.4-5.3,5.1s-5,3.2-8,4.6c-0.7,0.4-1.5,0.7-2.2,1.1c-0.7,0.3-1.4,0.7-2.2,1c-0.4,0.1-0.8,0.2-1.2,0.2s-0.8-0.1-1.2-0.3
	c-0.7-0.3-1.2-0.8-1.8-1.3c-2.1-1.8-3.9-3.6-5.1-5.2c-1.3-1.6-1.9-3.2-2.2-4.2c-0.1-0.5-0.2-1-0.2-1.3
	C133.7,111.9,133.7,111.8,133.7,111.8L133.7,111.8z"/>
<path style="fill:#B4FFFF;" d="M162.8,102.5c0.5,0.3,7.6,4.3,7.6,4.3l2.1,2.7l25.7,4.1l-3.3,32.5L179.3,191c0,0,16.6,19.3,19.9,33.9
	c2,8.9,1.9,19.9,1.9,19.9l-56.2,8.2c0,0-3.7-11.6-1.7-27.5c1.3-10,8.2-40.1,8.2-40.1l9.4-35.2c0,0,7.6-29.5,7.4-30s0.4-9.3,0.4-9.3
	l-3.9-6.5L162.8,102.5z"/>
<path style="fill:#263238;" d="M178.9,111.1c0,0,0.1,0,0.2,0.2c0.1,0.1,0.4,0.3,0.6,0.5c0.5,0.4,1.3,1.1,2.3,1.9
	c2,1.7,4.9,4.1,8.5,7l0.1,0.1l-0.2,0.1c-2.9,1.4-6.1,3-9.6,4.8v-0.2c3,1,6.2,2.2,9.6,3.4l0.2,0.1l-0.1,0.1c-1.2,2.4-2.8,4.8-4.3,7.2
	c-1.6,2.5-3.2,5-4.9,7.5c-7.8,11.9-15,22.7-20.2,30.4c-2.6,3.9-4.7,7-6.2,9.2c-0.7,1.1-1.3,1.9-1.7,2.5c-0.2,0.3-0.3,0.5-0.5,0.6
	c-0.1,0.1-0.2,0.2-0.2,0.2s0-0.1,0.1-0.2c0.1-0.2,0.2-0.4,0.4-0.7c0.4-0.6,0.9-1.4,1.7-2.5c1.5-2.2,3.5-5.3,6.1-9.2
	c5.2-7.8,12.3-18.5,20.1-30.5c1.7-2.6,3.3-5.1,4.9-7.5c1.5-2.5,3.1-4.8,4.3-7.2l0.1,0.2c-3.4-1.2-6.6-2.4-9.6-3.4l-0.3-0.1l0.3-0.1
	c3.5-1.7,6.8-3.3,9.6-4.7v0.2c-3.6-3-6.4-5.4-8.5-7.1c-1-0.8-1.7-1.5-2.3-1.9c-0.2-0.2-0.4-0.4-0.6-0.5
	C179,111.2,178.9,111.1,178.9,111.1L178.9,111.1z"/>
<path style="opacity:0.3;enable-background:new    ;" d="M173.7,155.4c-7.7,11-14.4,22.2-22.1,33.2c9.3-3.5,15.3-10.1,18.6-18.5
	c2.6,4.7,6.5,8.8,11.3,11.7C178.8,172.9,176.3,164.1,173.7,155.4z"/>
<path style="fill:#B4FFFF;" d="M198.2,113.6c0,0,6.2,2,8.6,5.7c3.8,5.9,6.9,25.6,6.5,30.8c-1.1,16.5-10.2,33.8-10.7,33.6
	c0,0-4.2,3.1-8.6,3.1c-1.2,0-2.6-0.1-3.9-0.4c-4-0.7-7.4-2.9-9.3-6.2c-2.5-4.4-6-10.9-6.7-14.5c-1.3-5.9-2.7-37.2-2.7-37.2l15.8-6.5
	l5.5,15.9c0,0-0.9-6.5,0-10.2S198.2,113.6,198.2,113.6L198.2,113.6z"/>
<path style="fill:#263238;" d="M199.7,166.2c0,0,0-0.2,0-0.4c0-0.3,0-0.7,0-1.2c0-1.1-0.1-2.6-0.5-4.5c-0.3-1.9-0.9-4.2-1.7-6.6
	c-0.4-1.2-0.8-2.5-1.3-3.8s-1-2.7-1.5-4.1s-0.9-2.8-1.2-4.2c-0.2-0.7-0.3-1.3-0.5-2c-0.2-0.6-0.3-1.3-0.3-2s0.3-1.3,0.6-1.8
	s0.7-1,1-1.5c0.6-1,1.2-1.9,1.8-2.7c1.1-1.7,2.2-2.9,2.9-3.8c0.4-0.4,0.6-0.8,0.8-1s0.3-0.3,0.3-0.3s-0.1,0.1-0.3,0.4
	s-0.5,0.6-0.8,1c-0.7,0.9-1.7,2.2-2.8,3.9c-0.5,0.8-1.1,1.8-1.7,2.8s-1.5,2-1.5,3.3c0,0.6,0.1,1.2,0.3,1.9s0.3,1.3,0.5,2
	c0.4,1.4,0.8,2.7,1.2,4.2c0.5,1.4,1,2.8,1.5,4.1s0.9,2.6,1.3,3.8c0.8,2.5,1.3,4.7,1.6,6.7c0.3,1.9,0.4,3.5,0.4,4.6v1.2
	C199.7,166.1,199.7,166.2,199.7,166.2z"/>
<path style="fill:#263238;" d="M198.2,125.3c0.1,0-0.9,2-2,4.4s-1.8,4.5-1.9,4.4c0,0,0.1-0.5,0.3-1.4c0.3-0.8,0.7-2,1.2-3.2
	c0.6-1.2,1.1-2.3,1.6-3C197.8,125.8,198.1,125.3,198.2,125.3L198.2,125.3z"/>
<path style="fill:#263238;" d="M194.6,178.1c-0.1,0,0.7-2.4,0.2-5.3s-2-5-1.8-5c0,0,0.5,0.5,0.9,1.3c0.5,0.9,1,2.2,1.3,3.6
	c0.2,1.5,0.1,2.8-0.1,3.8S194.6,178.1,194.6,178.1L194.6,178.1z"/>
<path style="fill:#263238;" d="M159.1,75.6c-0.1,0.5-8.7,27.9-8.7,27.9v1l12.2,6l1.3-1.2l7.9-27.4l-11.4-6.5L159.1,75.6z"/>
<path style="fill:#263238;" d="M103.6,135.3c0,0,0,0.1-0.1,0.4s-0.2,0.7-0.3,1.2c-0.3,1-0.6,2.5-1,4.4s-0.8,4.1-1.1,6.6
	s-0.5,5.2-0.4,8.1c0,1.4,0.2,2.9,0.3,4.2c0.1,0.7,0.2,1.3,0.3,2s0.3,1.3,0.4,1.9c0.1,0.3,0.1,0.6,0.2,0.9s0.2,0.6,0.3,0.9
	c0.2,0.6,0.3,1.1,0.5,1.7c0.5,1,0.8,2,1.3,2.9l0.6,1.2c0.2,0.4,0.5,0.7,0.7,1c0.4,0.6,0.8,1.2,1.2,1.6c0.3,0.4,0.6,0.7,0.8,1
	c0.2,0.2,0.3,0.4,0.3,0.4s-0.1-0.1-0.3-0.3s-0.5-0.6-0.9-1s-0.8-1-1.2-1.6c-0.2-0.3-0.5-0.7-0.7-1c-0.2-0.4-0.4-0.8-0.7-1.2
	c-0.5-0.8-0.9-1.8-1.3-2.9c-0.2-0.5-0.4-1.1-0.6-1.7c-0.1-0.3-0.2-0.6-0.3-0.9s-0.1-0.6-0.2-0.9c-0.1-0.6-0.3-1.2-0.4-1.9
	s-0.2-1.3-0.3-2c-0.1-1.4-0.3-2.8-0.3-4.2c-0.1-2.9,0.1-5.7,0.4-8.2s0.7-4.7,1.2-6.6c0.4-1.9,0.8-3.4,1.1-4.4
	c0.1-0.5,0.3-0.9,0.4-1.2S103.6,135.3,103.6,135.3z"/>
<path style="fill:#263238;" d="M194,186.7c0,0-0.4,0.1-1.1,0.1c-0.8,0-1.9-0.1-3.3-0.4s-3.1-0.9-4.7-2s-3.2-2.7-4.3-4.8
	c-1.1-2-2.4-4.3-3.6-6.7c-0.6-1.2-1.3-2.5-1.9-3.8s-1-2.8-1.3-4.3c-0.1-0.7-0.2-1.5-0.3-2.3s-0.1-1.6-0.2-2.3
	c-0.1-1.6-0.2-3.2-0.3-4.8c-0.2-3.3-0.4-6.7-0.7-10.1c-0.4-5.9-0.8-11.5-1.1-16.8v-0.1h0.1c5.9-2.4,11.2-4.6,15.9-6.5l0.1-0.1v0.1
	c1.8,5.3,3.2,9.6,4.2,12.6c0.5,1.5,0.9,2.6,1.1,3.5c0.1,0.4,0.2,0.7,0.3,0.9s0.1,0.3,0.1,0.3s0-0.1-0.1-0.3s-0.2-0.5-0.3-0.9
	c-0.3-0.8-0.7-2-1.2-3.4c-1-3-2.5-7.3-4.4-12.6l0.2,0.1c-4.6,1.9-9.9,4.1-15.8,6.5l0.1-0.1c0.3,5.2,0.7,10.9,1.1,16.8
	c0.2,3.5,0.4,6.9,0.7,10.1c0.1,1.6,0.2,3.2,0.3,4.8c0.1,0.8,0.1,1.6,0.1,2.3c0.1,0.8,0.2,1.5,0.3,2.3c0.3,1.5,0.7,2.9,1.3,4.2
	s1.2,2.6,1.9,3.8c1.3,2.4,2.5,4.7,3.6,6.7c1.1,2.1,2.6,3.7,4.2,4.7c1.6,1.1,3.2,1.7,4.6,2s2.5,0.4,3.2,0.4h0.9
	C193.9,186.8,194,186.7,194,186.7L194,186.7z"/>
<path style="opacity:0.3;enable-background:new    ;" d="M192.8,137.6c2.2,4.5,4.2,10,6.4,14.5c1.8,3.7,3.7,7.7,2.7,11.7
	c-0.2,0.6-0.6,1.2-1.2,1.1c-0.4-0.1-0.6-0.6-0.7-1C197.5,155.3,195.2,146.2,192.8,137.6"/>
<path style="opacity:0.3;enable-background:new    ;" d="M102.9,138c-2.3,4.6-5.3,8.7-6,13.7s0.4,10.4,4.2,14
	C99.9,156.4,100.9,147.2,102.9,138z"/>
<path style="opacity:0.3;enable-background:new    ;" d="M100.1,203.9c2.4,1.3,5,2.5,7.8,2.9s5.8,0,8-1.7c3-2.3,3.6-6.2,4-9.7
	c-5.5,2.1-11,4.2-16.5,6.3c-1.1,0.4-2.4,1-2.7,2.1"/>
<path style="fill:#263238;" d="M180.5,214.6c0,0-0.3,0.2-0.9,0.5s-1.5,0.7-2.6,1.1c-2.2,0.9-5.2,2.1-8.7,3.3
	c-3.4,1.2-6.6,2.1-8.9,2.7c-1.2,0.3-2.1,0.5-2.7,0.7c-0.7,0.1-1,0.2-1,0.2s0.3-0.1,1-0.3s1.6-0.5,2.7-0.8c2.3-0.7,5.4-1.6,8.9-2.8
	c3.4-1.2,6.5-2.3,8.7-3.2c1.1-0.4,1.9-0.8,2.6-1C180.2,214.7,180.5,214.6,180.5,214.6z"/>
<path style="fill:#263238;" d="M179.8,214.4c0,0,0.2,0.1,0.5,0.2c0.4,0.2,0.9,0.4,1.5,0.7c1.3,0.6,3.1,1.4,5.4,2.4l0.2,0.1l-0.2,0.1
	c-3.4,1.9-8.1,4.2-13.6,6c-6.9,2.4-13.3,3.5-17.5,4.1H156v-0.1c-0.2-1.5-0.3-2.6-0.4-3.5c0-0.4-0.1-0.7-0.1-0.9s0-0.3,0-0.3
	s0,0.1,0.1,0.3c0,0.2,0.1,0.5,0.1,0.9c0.1,0.8,0.3,2,0.5,3.5l-0.1-0.1c4.1-0.6,10.6-1.8,17.4-4.2c5.4-1.8,10.1-4.1,13.6-5.9v0.2
	c-2.2-1.1-4-1.9-5.3-2.5c-0.6-0.3-1.1-0.5-1.4-0.7C179.9,214.5,179.8,214.4,179.8,214.4L179.8,214.4z"/>
<path style="opacity:0.3;enable-background:new    ;" d="M157.3,227.9c5.5,1.4,11.5,2,17.1,0.6c5.6-1.5,10.7-5.3,12.2-10.4
	C177.5,222.7,168.4,226,157.3,227.9L157.3,227.9z"/>
<path style="opacity:0.3;enable-background:new    ;" d="M157.1,227.9h0.1c-0.1,0-0.2-0.1-0.3-0.1L157.1,227.9z"/>
<path style="fill:#EB996E;" d="M144.9,141.8c0.1,0-0.6,0.7-1.4,1.8c-0.4,0.6-0.8,1.3-1.2,2.2c-0.4,0.8-0.7,1.8-0.9,2.8s-0.2,2-0.2,3
	c0.1,0.9,0.2,1.7,0.4,2.4c0.4,1.3,0.8,2.1,0.7,2.2c0,0-0.1-0.2-0.3-0.5c-0.1-0.2-0.2-0.4-0.3-0.7s-0.2-0.6-0.3-0.9
	c-0.2-0.7-0.4-1.5-0.5-2.4s0-2,0.2-3c0.2-1.1,0.5-2,0.9-2.9s0.9-1.6,1.3-2.2c0.2-0.3,0.4-0.5,0.6-0.8l0.5-0.5
	C144.7,141.9,144.8,141.8,144.9,141.8L144.9,141.8z"/>
<path style="fill:#FFFFFF;" d="M162.7,138.7c0,0-0.1-0.1-0.2-0.4c-0.1-0.2-0.3-0.7-0.9-0.9c-0.3-0.1-0.6,0-0.8,0.2s-0.3,0.6-0.4,1
	c-0.2,0.8-0.3,1.7-0.2,2.6l0.1,0.8l-0.3-0.7c-0.2-0.5-0.5-1.1-1-1.4c-0.5-0.4-1.3-0.5-1.7,0s-0.5,1.2-0.5,1.9s0.1,1.4,0.4,2.1
	l0.2,0.6l-0.5-0.4c-0.5-0.5-1-0.9-1.6-1.4c-0.3-0.2-0.5-0.5-0.8-0.7s-0.6-0.2-0.8,0.1c-0.2,0.2-0.3,0.6-0.4,0.9s-0.1,0.7-0.2,1.1
	c-0.1,0.7-0.1,1.4,0,2.2l0.1,0.8l-0.4-0.7c-0.3-0.6-0.7-1.2-1.2-1.6s-1.3-0.6-1.9-0.4s-1,0.8-1,1.4c-0.1,0.6,0.1,1.2,0.2,1.8
	l-0.3,0.1c-0.3-0.8-1.2-1.4-2-1.5c-0.9-0.1-1.8,0.2-2.3,0.8c-0.6,0.5-0.7,1.3-0.6,1.9c0.2,0.7,0.6,1.2,1.2,1.5l-0.1,0.2
	c-0.3-0.3-0.8-0.4-1.2-0.4s-0.8,0.2-1.1,0.5c-0.6,0.5-0.6,1.2-0.5,1.6c0.2,1,0.7,1.4,0.7,1.4s0,0-0.1-0.1c-0.1,0-0.1-0.1-0.2-0.2
	c-0.2-0.2-0.4-0.6-0.5-1.1s-0.1-1.2,0.5-1.8c0.3-0.3,0.7-0.5,1.2-0.5c0.5-0.1,1,0,1.4,0.4l0.6,0.6l-0.7-0.4
	c-0.6-0.3-1.1-0.9-1.3-1.6s0-1.6,0.6-2.2s1.6-1,2.6-0.9s1.9,0.8,2.3,1.7l-0.3,0.1c-0.2-0.6-0.3-1.2-0.2-1.9c0-0.7,0.5-1.4,1.2-1.7
	c0.8-0.3,1.7,0,2.2,0.5c0.6,0.5,1,1.1,1.3,1.7l-0.3,0.1c-0.1-0.8-0.1-1.5,0-2.2c0-0.4,0.1-0.7,0.2-1.1c0.1-0.3,0.2-0.7,0.4-1.1
	c0.1-0.2,0.4-0.3,0.6-0.3c0.3,0,0.5,0.1,0.7,0.2c0.3,0.2,0.6,0.5,0.9,0.7c0.5,0.5,1.1,1,1.6,1.4l-0.3,0.2c-0.3-0.7-0.4-1.5-0.4-2.2
	c0-0.4,0.1-0.7,0.1-1.1c0.1-0.3,0.2-0.7,0.5-1s0.7-0.5,1.1-0.4c0.4,0,0.8,0.2,1,0.4c0.6,0.4,0.8,1,1,1.6l-0.2,0.1
	c-0.1-1,0-1.9,0.2-2.7c0.1-0.4,0.2-0.8,0.5-1c0.3-0.3,0.7-0.4,1-0.2c0.6,0.2,0.8,0.7,0.9,1c0.1,0.1,0.1,0.2,0.1,0.3
	C162.7,138.6,162.7,138.7,162.7,138.7L162.7,138.7z"/>
<path style="fill:#FFFFFF;" d="M142.8,156c0,0,0-0.1,0.1-0.4c0-0.3,0.1-0.6-0.1-1.1c-0.1-0.5-0.5-1-1.3-1.2
	c-0.4-0.1-0.8-0.1-1.1,0.1c-0.4,0.2-0.6,0.6-0.6,1h-0.2c0.2-1.1,0.3-2.4,0.3-3.9c0-0.3-0.2-0.7-0.5-0.8c-0.3-0.2-0.7-0.2-1.1-0.1
	s-0.7,0.4-0.9,0.7s-0.4,0.7-0.6,1.1l-0.3-0.1c0.3-0.7,0.4-1.4,0.5-2.1c0-0.4,0-0.7,0-1.1s-0.1-0.8-0.3-1.1c-0.3-0.7-1.4-0.8-2.1-0.5
	c-0.8,0.3-1.4,1-1.9,1.7l-0.3-0.2c0.1-0.2,0.2-0.4,0.3-0.6c0.4-0.7,0.7-1.4,0.7-2.2c0-0.7-0.3-1.5-0.9-1.9s-1.5-0.2-2.1,0.2
	s-1,1-1.5,1.6l-0.3-0.1c0.7-1.4,1.2-2.7,1.6-4c0.1-0.3,0.2-0.7,0.2-0.9c0-0.3-0.2-0.5-0.5-0.6s-0.6,0-0.9,0.2s-0.5,0.4-0.7,0.6
	l-0.6,0.6l0.4-0.8c0.5-1.1,0.8-2.1,0.9-3c0.1-0.5,0.1-0.9,0.1-1.3s0-0.8-0.2-1c-0.2-0.3-0.6-0.2-0.8-0.1s-0.4,0.3-0.5,0.4
	c-0.2,0.3-0.3,0.5-0.3,0.5s0,0,0-0.1s0.1-0.2,0.2-0.4c0.1-0.1,0.2-0.3,0.5-0.5c0.2-0.1,0.7-0.2,1,0.1c0.2,0.3,0.2,0.7,0.2,1.1
	s0,0.8-0.1,1.3c-0.1,0.9-0.4,2-0.9,3.1l-0.2-0.1c0.2-0.2,0.4-0.5,0.7-0.7s0.7-0.3,1.1-0.2c0.2,0,0.4,0.1,0.5,0.3s0.2,0.4,0.2,0.5
	c0,0.4-0.1,0.7-0.2,1c-0.3,1.3-0.8,2.7-1.5,4.1l-0.3-0.1c0.4-0.6,0.8-1.2,1.5-1.7c0.4-0.2,0.8-0.4,1.2-0.4c0.4-0.1,0.9,0,1.3,0.3
	c0.8,0.5,1.1,1.3,1.1,2.1s-0.3,1.6-0.7,2.3c-0.1,0.2-0.2,0.4-0.3,0.6l-0.3-0.2c0.5-0.7,1.1-1.4,2.1-1.8c0.5-0.2,1-0.2,1.5-0.1
	s0.9,0.4,1.1,0.8s0.3,0.8,0.3,1.2s0.1,0.8,0,1.2c0,0.8-0.2,1.5-0.5,2.2l-0.3-0.1c0.2-0.4,0.4-0.8,0.6-1.1c0.3-0.3,0.6-0.7,1.1-0.8
	c0.4-0.1,1-0.1,1.4,0.1s0.6,0.7,0.6,1c0,1.5-0.1,2.8-0.3,3.9l-0.1,0.9l-0.1-0.9c0-0.5,0.3-0.9,0.7-1.2c0.4-0.2,0.9-0.3,1.3-0.1
	c0.8,0.3,1.2,0.9,1.3,1.3c0.1,0.5,0.1,0.9,0,1.1S142.8,155.9,142.8,156z"/>
<path style="fill:#FFBE9D;" d="M174.9,127.1c-0.2-0.6-0.6-8.3-0.6-8.3s-2-0.8-2.8-3.1s-0.8-7.1-0.8-7.1s-1.6-1.9-1.6-2.5
	c-0.1-0.6-4.7-0.4-4.7-0.4s-3.3,2.5-4.6,2.2s-1-1.8-1-1.8l3.5-3.4l3.8-1.1h5.5c0,0,0.8-1.6,0-2.2s-4.7-3.9-4.7-3.9h-6.2
	c0,0-3.3,2.1-5.6,0.3v-1.2l3.7-1.8c0,0-1.6-1.4,0.4-2.9s4.2-2.6,4.2-2.6h3.2c0,0-3.9-2.3-4.1-3s-1.8-2.6-0.4-3.6l10.3,5.6l8.3,7.2
	c0,0,2.8,1.4,2.8,3s3.9,25.5,3.9,25.5L174.9,127.1z"/>
<path style="fill:#EB996E;" d="M174.5,95.5c-0.1,0-0.6-0.7-1.9-1.6c-1.2-0.9-3.2-1.9-5.5-2.3c-2.4-0.4-4.6-0.1-6.1,0.4
	c-1.5,0.4-2.3,0.9-2.4,0.9c0,0,0.2-0.2,0.6-0.4s1-0.5,1.7-0.7c1.5-0.5,3.8-0.9,6.3-0.5s4.4,1.5,5.6,2.5c0.6,0.5,1,0.9,1.3,1.2
	C174.3,95.3,174.5,95.5,174.5,95.5L174.5,95.5z"/>
<path style="fill:#EB996E;" d="M176.4,92.8c-0.1,0-0.5-0.6-1.5-1.4s-2.5-1.9-4.3-2.7c-1.9-0.8-3.7-1.1-5.1-1.2
	c-1.3-0.1-2.2-0.1-2.2-0.1s0.2-0.1,0.6-0.1s0.9-0.1,1.6,0c0.7,0,1.5,0.1,2.4,0.3s1.8,0.5,2.8,0.9s1.8,0.9,2.6,1.4
	c0.7,0.5,1.3,1,1.8,1.4s0.8,0.8,1,1.1C176.4,92.6,176.5,92.7,176.4,92.8L176.4,92.8z"/>
<path style="fill:#455A64;" d="M86.3,182.3L61.4,170l0.6-3h43.4l48,25.6l-1.6,2.8l-37.5,0.7L86.3,182.3z"/>
<path style="fill:#FFBE9D;" d="M85.7,180.1l1.3,4.7c0,0,3.9,3.3,4.4,4.6c0.6,1.3,3.9,3.8,3.9,3.8l1,4.5c0,0,2.4,3.7,5.9,4.5
	c3.4,0.8,7.9,0,7.9,0s8.4-5.5,10.3-6.1s20.3-1.9,20.4-2.3s1.1-2.5-0.7-2.4c-1.9,0-10.1,0.7-10.1,0.7l4.4-3.8c0,0-1-1.7-2.6-2.2
	s-4.6,1.5-4.6,1.5l-6.3,2.9l7.6-5.1c0,0-0.3-2.4-2.9-2.3s-12.2,5.2-12.2,5.2l-2.3,0.3c0,0,1-2.4,1.3-3.3s2-1.9,2-1.9
	s-0.6-3.3-2.7-3.2s-4.7,1.5-5.7,3.3s-2,4.2-2,4.2l-9.3-3.3C94.7,184.3,91.3,177.4,85.7,180.1L85.7,180.1z"/>
<g>
	<g>
		<polygon style="fill:#A54A38;" points="295.22,112.27 216.78,112.27 223.15,106.04 288.85,106.04 		"/>
	</g>
	<g>
		<rect x="238.13" y="87.53" style="fill:#4E3038;" width="35.77" height="19.74"/>
	</g>
	<g>
		<rect x="241.02" y="90.42" style="fill:#634750;" width="29.97" height="13.94"/>
	</g>
	<g>
		<g>
			<rect x="237.53" y="81.22" style="fill:#6D6E71;" width="36.95" height="0.33"/>
		</g>
		<g>
			<g>
				<path style="fill:#6D6E71;" d="M239.74,85.65h-4.43v-4.43h4.43V85.65z M235.62,85.32h3.79v-3.79h-3.79V85.32z"/>
			</g>
			<g>
				<g>
					
						<rect x="237.36" y="80.52" transform="matrix(0.7071 -0.7071 0.7071 0.7071 10.5739 192.3905)" style="fill:#6D6E71;" width="0.33" height="5.81"/>
				</g>
				<g>
					
						<rect x="234.61" y="83.27" transform="matrix(0.7071 -0.7071 0.7071 0.7071 10.5662 192.3871)" style="fill:#6D6E71;" width="5.81" height="0.33"/>
				</g>
			</g>
		</g>
		<g>
			<g>
				<path style="fill:#6D6E71;" d="M235.62,85.65h-4.43v-4.43h4.43V85.65z M231.53,85.32h3.79v-3.79h-3.79V85.32z"/>
			</g>
			<g>
				<g>
					
						<rect x="233.24" y="80.53" transform="matrix(0.7071 -0.7071 0.7071 0.7071 9.3633 189.4852)" style="fill:#6D6E71;" width="0.33" height="5.81"/>
				</g>
				<g>
					
						<rect x="230.51" y="83.27" transform="matrix(0.7071 -0.7071 0.7071 0.7071 9.3708 189.4863)" style="fill:#6D6E71;" width="5.81" height="0.33"/>
				</g>
			</g>
		</g>
		<g>
			<g>
				<path style="fill:#6D6E71;" d="M231.53,85.65h-4.43v-4.43h4.43V85.65z M227.41,85.32h3.79v-3.79h-3.79V85.32z"/>
			</g>
			<g>
				<g>
					
						<rect x="229.15" y="80.53" transform="matrix(0.7071 -0.7071 0.7071 0.7071 8.1653 186.59)" style="fill:#6D6E71;" width="0.33" height="5.81"/>
				</g>
				<g>
					
						<rect x="226.4" y="83.27" transform="matrix(0.7071 -0.7071 0.7071 0.7071 8.161 186.5796)" style="fill:#6D6E71;" width="5.81" height="0.33"/>
				</g>
			</g>
		</g>
		<g>
			<g>
				<path style="fill:#6D6E71;" d="M243.84,85.65h-4.43v-4.43h4.43V85.65z M239.74,85.32h3.79v-3.79h-3.79V85.32z"/>
			</g>
			<g>
				<g>
					
						<rect x="241.46" y="80.54" transform="matrix(0.7071 -0.7071 0.7071 0.7071 11.7657 195.298)" style="fill:#6D6E71;" width="0.33" height="5.81"/>
				</g>
				<g>
					
						<rect x="238.72" y="83.27" transform="matrix(0.7071 -0.7071 0.7071 0.7071 11.776 195.2937)" style="fill:#6D6E71;" width="5.81" height="0.33"/>
				</g>
			</g>
		</g>
		<g>
			<g>
				<path style="fill:#6D6E71;" d="M247.95,85.65h-4.43v-4.43h4.43V85.65z M243.84,85.32h3.79v-3.79h-3.79V85.32z"/>
			</g>
			<g>
				<g>
					
						<rect x="245.57" y="80.53" transform="matrix(0.7071 -0.7071 0.7071 0.7071 12.9783 198.1991)" style="fill:#6D6E71;" width="0.33" height="5.81"/>
				</g>
				<g>
					
						<rect x="242.82" y="83.27" transform="matrix(0.7071 -0.7071 0.7071 0.7071 12.972 198.1932)" style="fill:#6D6E71;" width="5.81" height="0.33"/>
				</g>
			</g>
		</g>
		<g>
			<g>
				<path style="fill:#6D6E71;" d="M252.05,85.65h-4.43v-4.43h4.43V85.65z M247.95,85.32h3.79v-3.79h-3.79V85.32z"/>
			</g>
			<g>
				<g>
					
						<rect x="249.67" y="80.53" transform="matrix(0.7071 -0.7071 0.7071 0.7071 14.1744 201.0983)" style="fill:#6D6E71;" width="0.33" height="5.81"/>
				</g>
				<g>
					
						<rect x="246.93" y="83.27" transform="matrix(0.7071 -0.7071 0.7071 0.7071 14.1812 201.1012)" style="fill:#6D6E71;" width="5.81" height="0.33"/>
				</g>
			</g>
		</g>
		<g>
			<g>
				<path style="fill:#6D6E71;" d="M256.17,85.65h-4.43v-4.43h4.43V85.65z M252.05,85.32h3.79v-3.79h-3.79V85.32z"/>
			</g>
			<g>
				<g>
					
						<rect x="253.79" y="80.53" transform="matrix(0.7071 -0.7071 0.7071 0.7071 15.3807 204.0121)" style="fill:#6D6E71;" width="0.33" height="5.81"/>
				</g>
				<g>
					
						<rect x="251.03" y="83.27" transform="matrix(0.7071 -0.7071 0.7071 0.7071 15.3764 204.0018)" style="fill:#6D6E71;" width="5.81" height="0.33"/>
				</g>
			</g>
		</g>
		<g>
			<g>
				<path style="fill:#6D6E71;" d="M260.26,85.65h-4.43v-4.43h4.43V85.65z M256.17,85.32h3.79v-3.79h-3.79V85.32z"/>
			</g>
			<g>
				<g>
					
						<rect x="257.88" y="80.53" transform="matrix(0.7071 -0.7071 0.7071 0.7071 16.5825 206.8997)" style="fill:#6D6E71;" width="0.33" height="5.81"/>
				</g>
				<g>
					
						<rect x="255.15" y="83.27" transform="matrix(0.7071 -0.7071 0.7071 0.7071 16.5863 206.9085)" style="fill:#6D6E71;" width="5.81" height="0.33"/>
				</g>
			</g>
		</g>
		<g>
			<g>
				<path style="fill:#6D6E71;" d="M264.38,85.65h-4.43v-4.43h4.43V85.65z M260.26,85.32h3.79v-3.79h-3.79V85.32z"/>
			</g>
			<g>
				<g>
					
						<rect x="262" y="80.53" transform="matrix(0.7071 -0.7071 0.7071 0.7071 17.7859 209.8194)" style="fill:#6D6E71;" width="0.33" height="5.81"/>
				</g>
				<g>
					
						<rect x="259.25" y="83.27" transform="matrix(0.7071 -0.7071 0.7071 0.7071 17.7817 209.809)" style="fill:#6D6E71;" width="5.81" height="0.33"/>
				</g>
			</g>
		</g>
		<g>
			<g>
				<path style="fill:#6D6E71;" d="M268.47,85.65h-4.43v-4.43h4.43V85.65z M264.38,85.32h3.79v-3.79h-3.79V85.32z"/>
			</g>
			<g>
				<g>
					
						<rect x="266.1" y="80.54" transform="matrix(0.7071 -0.7071 0.7071 0.7071 18.9811 212.7202)" style="fill:#6D6E71;" width="0.33" height="5.81"/>
				</g>
				<g>
					
						<rect x="263.36" y="83.27" transform="matrix(0.7071 -0.7071 0.7071 0.7071 18.9914 212.7159)" style="fill:#6D6E71;" width="5.81" height="0.33"/>
				</g>
			</g>
		</g>
		<g>
			<g>
				<path style="fill:#6D6E71;" d="M272.59,85.65h-4.43v-4.43h4.43V85.65z M268.47,85.32h3.79v-3.79h-3.79V85.32z"/>
			</g>
			<g>
				<g>
					
						<rect x="270.2" y="80.52" transform="matrix(0.7071 -0.7071 0.7071 0.7071 20.1977 215.6134)" style="fill:#6D6E71;" width="0.33" height="5.81"/>
				</g>
				<g>
					
						<rect x="267.46" y="83.28" transform="matrix(0.7071 -0.7071 0.7071 0.7071 20.1868 215.6165)" style="fill:#6D6E71;" width="5.81" height="0.33"/>
				</g>
			</g>
		</g>
		<g>
			<g>
				<path style="fill:#6D6E71;" d="M276.69,85.65h-4.43v-4.43h4.43V85.65z M272.59,85.32h3.79v-3.79h-3.79V85.32z"/>
			</g>
			<g>
				<g>
					
						<rect x="274.31" y="80.54" transform="matrix(0.7071 -0.7071 0.7071 0.7071 21.3863 218.5274)" style="fill:#6D6E71;" width="0.33" height="5.81"/>
				</g>
				<g>
					
						<rect x="271.57" y="83.27" transform="matrix(0.7071 -0.7071 0.7071 0.7071 21.3958 218.5249)" style="fill:#6D6E71;" width="5.81" height="0.33"/>
				</g>
			</g>
		</g>
		<g>
			<g>
				<path style="fill:#6D6E71;" d="M280.8,85.65h-4.43v-4.43h4.43V85.65z M276.69,85.32h3.79v-3.79h-3.79V85.32z"/>
			</g>
			<g>
				<g>
					
						<rect x="278.43" y="80.53" transform="matrix(0.7071 -0.7071 0.7071 0.7071 22.5961 221.4343)" style="fill:#6D6E71;" width="0.33" height="5.81"/>
				</g>
				<g>
					
						<rect x="275.67" y="83.28" transform="matrix(0.7071 -0.7071 0.7071 0.7071 22.5918 221.424)" style="fill:#6D6E71;" width="5.81" height="0.33"/>
				</g>
			</g>
		</g>
		<g>
			<g>
				<path style="fill:#6D6E71;" d="M284.92,85.65h-4.43v-4.43h4.43V85.65z M280.8,85.32h3.79v-3.79h-3.79V85.32z"/>
			</g>
			<g>
				<g>
					
						<rect x="282.51" y="80.53" transform="matrix(0.7071 -0.7071 0.7071 0.7071 23.7983 224.3211)" style="fill:#6D6E71;" width="0.33" height="5.81"/>
				</g>
				<g>
					
						<rect x="279.79" y="83.27" transform="matrix(0.7071 -0.7071 0.7071 0.7071 23.8007 224.3326)" style="fill:#6D6E71;" width="5.81" height="0.33"/>
				</g>
			</g>
		</g>
	</g>
	<g>
		<g>
			<rect x="227.08" y="91.67" style="fill:#6D6E71;" width="0.33" height="14.38"/>
		</g>
		<g>
			<g>
				<path style="fill:#6D6E71;" d="M227.41,93.88h-4.43v-4.43h4.43V93.88z M223.32,93.57h3.79v-3.79h-3.79V93.57z"/>
			</g>
			<g>
				<g>
					
						<rect x="222.29" y="91.5" transform="matrix(0.7071 -0.7071 0.7071 0.7071 1.1428 186.0892)" style="fill:#6D6E71;" width="5.81" height="0.33"/>
				</g>
				<g>
					
						<rect x="225.03" y="88.77" transform="matrix(0.7071 -0.7071 0.7071 0.7071 1.1359 186.0869)" style="fill:#6D6E71;" width="0.33" height="5.81"/>
				</g>
			</g>
		</g>
		<g>
			<g>
				<path style="fill:#6D6E71;" d="M227.41,89.78h-4.43v-4.43h4.43V89.78z M223.32,89.45h3.79v-3.79h-3.79V89.45z"/>
			</g>
			<g>
				<g>
					
						<rect x="222.3" y="87.4" transform="matrix(0.7071 -0.7071 0.7071 0.7071 4.0434 184.8939)" style="fill:#6D6E71;" width="5.81" height="0.33"/>
				</g>
				<g>
					
						<rect x="225.03" y="84.66" transform="matrix(0.7071 -0.7071 0.7071 0.7071 4.0391 184.8836)" style="fill:#6D6E71;" width="0.33" height="5.81"/>
				</g>
			</g>
		</g>
		<g>
			<g>
				<path style="fill:#6D6E71;" d="M227.41,85.67h-4.43v-4.43h4.43V85.67z M223.32,85.34h3.79v-3.79h-3.79V85.34z"/>
			</g>
			<g>
				<g>
					
						<rect x="222.29" y="83.29" transform="matrix(0.7071 -0.7071 0.7071 0.7071 6.9501 183.6841)" style="fill:#6D6E71;" width="5.81" height="0.33"/>
				</g>
				<g>
					
						<rect x="225.03" y="80.56" transform="matrix(0.7071 -0.7071 0.7071 0.7071 6.9404 183.687)" style="fill:#6D6E71;" width="0.33" height="5.81"/>
				</g>
			</g>
		</g>
		<g>
			<g>
				<path style="fill:#6D6E71;" d="M227.41,98h-4.43v-4.43h4.43V98z M223.32,97.67h3.79v-3.79h-3.79V97.67z"/>
			</g>
			<g>
				<g>
					
						<rect x="222.3" y="95.61" transform="matrix(0.7071 -0.7071 0.7071 0.7071 -1.7639 187.299)" style="fill:#6D6E71;" width="5.81" height="0.33"/>
				</g>
				<g>
					
						<rect x="225.03" y="92.87" transform="matrix(0.7071 -0.7071 0.7071 0.7071 -1.7682 187.2887)" style="fill:#6D6E71;" width="0.33" height="5.81"/>
				</g>
			</g>
		</g>
		<g>
			<g>
				<path style="fill:#6D6E71;" d="M227.41,102.09h-4.43v-4.43h4.43V102.09z M223.32,101.78h3.79V98h-3.79V101.78z"/>
			</g>
			<g>
				<g>
					
						<rect x="222.29" y="99.71" transform="matrix(0.7071 -0.7071 0.7071 0.7071 -4.6646 188.4943)" style="fill:#6D6E71;" width="5.81" height="0.33"/>
				</g>
				<g>
					
						<rect x="225.03" y="96.98" transform="matrix(0.7071 -0.7071 0.7071 0.7071 -4.6741 188.4974)" style="fill:#6D6E71;" width="0.33" height="5.81"/>
				</g>
			</g>
		</g>
		<g>
			<g>
				<path style="fill:#6D6E71;" d="M227.41,106.21h-4.43v-4.43h4.43V106.21z M223.32,105.88h3.79v-3.79h-3.79V105.88z"/>
			</g>
			<g>
				<g>
					
						<rect x="222.3" y="103.83" transform="matrix(0.7071 -0.7071 0.7071 0.7071 -7.5713 189.7042)" style="fill:#6D6E71;" width="5.81" height="0.33"/>
				</g>
				<g>
					
						<rect x="225.02" y="101.08" transform="matrix(0.7071 -0.7071 0.7071 0.7071 -7.5719 189.6875)" style="fill:#6D6E71;" width="0.33" height="5.81"/>
				</g>
			</g>
		</g>
		<g>
			<rect x="227.08" y="95.8" style="fill:#6D6E71;" width="0.33" height="10.24"/>
		</g>
	</g>
	<g>
		<g>
			<rect x="288.69" y="91.67" style="fill:#6D6E71;" width="0.33" height="14.38"/>
		</g>
		<g>
			<g>
				<path style="fill:#6D6E71;" d="M289.02,93.88h-4.43v-4.43h4.43V93.88z M284.92,93.57h3.79v-3.79h-3.79V93.57z"/>
			</g>
			<g>
				<g>
					
						<rect x="283.88" y="91.51" transform="matrix(0.7071 -0.7071 0.7071 0.7071 19.1741 229.6415)" style="fill:#6D6E71;" width="5.81" height="0.33"/>
				</g>
				<g>
					
						<rect x="286.64" y="88.77" transform="matrix(0.7071 -0.7071 0.7071 0.7071 19.1784 229.6519)" style="fill:#6D6E71;" width="0.33" height="5.81"/>
				</g>
			</g>
		</g>
		<g>
			<g>
				<path style="fill:#6D6E71;" d="M289.02,89.78h-4.43v-4.43h4.43V89.78z M284.92,89.45h3.79v-3.79h-3.79V89.45z"/>
			</g>
			<g>
				<g>
					
						<rect x="283.89" y="87.41" transform="matrix(0.7071 -0.7071 0.7071 0.7071 22.0748 228.4463)" style="fill:#6D6E71;" width="5.81" height="0.33"/>
				</g>
				<g>
					
						<rect x="286.64" y="84.66" transform="matrix(0.7071 -0.7071 0.7071 0.7071 22.0812 228.4496)" style="fill:#6D6E71;" width="0.33" height="5.81"/>
				</g>
			</g>
		</g>
		<g>
			<g>
				<path style="fill:#6D6E71;" d="M289.02,85.67h-4.43v-4.43h4.43V85.67z M284.92,85.34h3.79v-3.79h-3.79V85.34z"/>
			</g>
			<g>
				<g>
					
						<rect x="283.88" y="83.3" transform="matrix(0.7071 -0.7071 0.7071 0.7071 24.9814 227.2363)" style="fill:#6D6E71;" width="5.81" height="0.33"/>
				</g>
				<g>
					
						<rect x="286.64" y="80.56" transform="matrix(0.7071 -0.7071 0.7071 0.7071 24.9826 227.2529)" style="fill:#6D6E71;" width="0.33" height="5.81"/>
				</g>
			</g>
		</g>
		<g>
			<g>
				<path style="fill:#6D6E71;" d="M289.02,98h-4.43v-4.43h4.43V98z M284.92,97.67h3.79v-3.79h-3.79V97.67z"/>
			</g>
			<g>
				<g>
					
						<rect x="283.89" y="95.62" transform="matrix(0.7071 -0.7071 0.7071 0.7071 16.2673 230.8513)" style="fill:#6D6E71;" width="5.81" height="0.33"/>
				</g>
				<g>
					
						<rect x="286.64" y="92.88" transform="matrix(0.7071 -0.7071 0.7071 0.7071 16.2736 230.8547)" style="fill:#6D6E71;" width="0.33" height="5.81"/>
				</g>
			</g>
		</g>
		<g>
			<g>
				<path style="fill:#6D6E71;" d="M289.02,102.09h-4.43v-4.43h4.43V102.09z M284.92,101.78h3.79V98h-3.79V101.78z"/>
			</g>
			<g>
				<g>
					
						<rect x="283.88" y="99.72" transform="matrix(0.7071 -0.7071 0.7071 0.7071 13.3667 232.0467)" style="fill:#6D6E71;" width="5.81" height="0.33"/>
				</g>
				<g>
					
						<rect x="286.64" y="96.99" transform="matrix(0.7071 -0.7071 0.7071 0.7071 13.3676 232.063)" style="fill:#6D6E71;" width="0.33" height="5.81"/>
				</g>
			</g>
		</g>
		<g>
			<g>
				<path style="fill:#6D6E71;" d="M289.02,106.21h-4.43v-4.43h4.43V106.21z M284.92,105.88h3.79v-3.79h-3.79V105.88z"/>
			</g>
			<g>
				<g>
					
						<rect x="283.89" y="103.84" transform="matrix(0.7071 -0.7071 0.7071 0.7071 10.46 233.2565)" style="fill:#6D6E71;" width="5.81" height="0.33"/>
				</g>
				<g>
					
						<rect x="286.63" y="101.08" transform="matrix(0.7071 -0.7071 0.7071 0.7071 10.4704 233.2522)" style="fill:#6D6E71;" width="0.33" height="5.81"/>
				</g>
			</g>
		</g>
	</g>
	<g>
		<g>
			<g>
				<path style="fill:#FCE560;" d="M277.45,107.1v0.33V107.1z"/>
			</g>
			<g>
				<path style="fill:#231F20;" d="M277.45,107.55c-0.08,0-0.14-0.06-0.14-0.14v-0.33c0-0.08,0.06-0.14,0.14-0.14
					c0.08,0,0.14,0.06,0.14,0.14v0.33C277.6,107.49,277.54,107.55,277.45,107.55z"/>
			</g>
		</g>
		<g>
			<g>
				<path style="fill:#FCE560;" d="M281.32,107.06v0.33V107.06z"/>
			</g>
			<g>
				<path style="fill:#231F20;" d="M281.32,107.53c-0.08,0-0.14-0.06-0.14-0.14v-0.33c0-0.08,0.06-0.14,0.14-0.14
					s0.14,0.06,0.14,0.14v0.33C281.47,107.47,281.4,107.53,281.32,107.53z"/>
			</g>
		</g>
		<g>
			<g>
				<g>
					<path style="fill:#414042;" d="M280.7,107.08l-2.69,0.02c-0.7,0-1.26-0.56-1.26-1.24l-0.04-5.48c0-0.7,0.56-1.26,1.24-1.26
						l2.69-0.02c0.7,0,1.26,0.56,1.26,1.26l0.04,5.48C281.94,106.5,281.38,107.06,280.7,107.08z"/>
				</g>
				<g>
					<path style="fill:#414042;" d="M281.24,107.2l-3.79,0.02c-0.48,0-0.85-0.37-0.85-0.85l-0.04-6.58c0-0.48,0.37-0.85,0.85-0.85
						l3.79-0.02c0.48,0,0.85,0.37,0.85,0.85l0.04,6.58C282.09,106.81,281.71,107.2,281.24,107.2z M277.39,99.22
						c-0.31,0-0.58,0.27-0.56,0.58l0.04,6.58c0,0.31,0.27,0.58,0.58,0.56l3.79-0.02c0.31,0,0.58-0.27,0.56-0.58l-0.04-6.58
						c0-0.31-0.27-0.58-0.58-0.56L277.39,99.22z"/>
				</g>
			</g>
			<g>
				<g>
					<path style="fill:#231F20;" d="M281.28,101.1c0,0.6-0.48,1.08-1.08,1.1c-0.6,0.02-1.08-0.48-1.1-1.08c0-0.6,0.48-1.08,1.08-1.1
						C280.78,100.02,281.28,100.5,281.28,101.1z"/>
				</g>
				<g>
					<path style="fill:#231F20;" d="M280.2,102.34c-0.68,0-1.22-0.54-1.22-1.22s0.54-1.22,1.22-1.22s1.22,0.54,1.22,1.22
						C281.42,101.78,280.89,102.32,280.2,102.34z M280.2,100.17c-0.52,0-0.93,0.43-0.93,0.95s0.43,0.93,0.95,0.93
						c0.52,0,0.93-0.43,0.93-0.95C281.13,100.58,280.72,100.17,280.2,100.17z"/>
				</g>
			</g>
			<g>
				<path style="fill:#414042;" d="M280.2,101.7c-0.33,0-0.6-0.27-0.6-0.58c0-0.33,0.27-0.6,0.58-0.6c0.33,0,0.6,0.27,0.6,0.58
					C280.8,101.43,280.53,101.7,280.2,101.7z M280.2,100.81c-0.17,0-0.31,0.14-0.31,0.31c0,0.17,0.14,0.31,0.31,0.31
					c0.17,0,0.31-0.14,0.31-0.31C280.51,100.93,280.37,100.81,280.2,100.81z"/>
			</g>
			<g>
				<g>
					<path style="fill:#231F20;" d="M278.76,100.29c0,0.39-0.31,0.7-0.68,0.7c-0.39,0-0.7-0.31-0.7-0.68c0-0.39,0.31-0.7,0.68-0.7
						C278.45,99.61,278.76,99.92,278.76,100.29z"/>
				</g>
				<g>
					<path style="fill:#231F20;" d="M278.07,101.14c-0.46,0-0.83-0.37-0.85-0.83c0-0.46,0.37-0.83,0.83-0.85
						c0.46,0,0.83,0.37,0.85,0.83C278.9,100.75,278.53,101.12,278.07,101.14z M278.07,99.76c-0.31,0-0.56,0.25-0.56,0.56
						s0.25,0.56,0.56,0.56s0.56-0.25,0.56-0.56C278.63,99.98,278.36,99.73,278.07,99.76z"/>
				</g>
			</g>
			<g>
				<path style="fill:#414042;" d="M278.07,100.71c-0.23,0-0.41-0.19-0.41-0.39c0-0.23,0.19-0.41,0.39-0.41
					c0.23,0,0.41,0.19,0.41,0.39C278.47,100.5,278.3,100.71,278.07,100.71z M278.07,100.17c-0.06,0-0.12,0.06-0.12,0.12
					c0,0.06,0.06,0.12,0.12,0.12c0.06,0,0.12-0.06,0.12-0.12S278.14,100.17,278.07,100.17z"/>
			</g>
			<g>
				<g>
					<path style="fill:#231F20;" d="M281.3,104.6c0,1.1-0.87,1.99-1.97,1.99s-1.99-0.87-1.99-1.97c0-1.1,0.87-1.99,1.97-1.99
						C280.41,102.61,281.3,103.5,281.3,104.6z"/>
				</g>
				<g>
					<path style="fill:#231F20;" d="M279.34,106.73c-1.16,0-2.13-0.93-2.13-2.11c0-1.16,0.93-2.13,2.11-2.13
						c1.16,0,2.13,0.93,2.13,2.11C281.47,105.75,280.51,106.71,279.34,106.73z M279.31,102.75c-1.01,0-1.84,0.85-1.82,1.86
						c0,1.01,0.85,1.84,1.86,1.82c1.01,0,1.84-0.85,1.82-1.86C281.16,103.56,280.33,102.75,279.31,102.75z"/>
				</g>
			</g>
			<g>
				<path style="fill:#414042;" d="M279.34,105.57c-0.54,0-0.97-0.43-0.97-0.95c0-0.54,0.43-0.97,0.95-0.97
					c0.54,0,0.97,0.43,0.97,0.95C280.29,105.13,279.87,105.57,279.34,105.57z M279.31,103.91c-0.37,0-0.68,0.31-0.68,0.68
					s0.31,0.68,0.68,0.68c0.37,0,0.68-0.31,0.68-0.68C280.02,104.22,279.71,103.91,279.31,103.91z"/>
			</g>
		</g>
	</g>
	<g>
		<g>
			<g>
				<path style="fill:#FCE560;" d="M234.07,106.83v0.33V106.83z"/>
			</g>
			<g>
				<path style="fill:#231F20;" d="M234.07,107.31c0.08,0,0.14-0.06,0.14-0.14v-0.33c0-0.08-0.06-0.14-0.14-0.14
					s-0.14,0.06-0.14,0.14v0.33C233.93,107.24,233.99,107.31,234.07,107.31z"/>
			</g>
		</g>
		<g>
			<g>
				<path style="fill:#FCE560;" d="M230.2,106.81v0.33V106.81z"/>
			</g>
			<g>
				<path style="fill:#231F20;" d="M230.2,107.26c0.08,0,0.14-0.06,0.14-0.14v-0.33c0-0.08-0.06-0.14-0.14-0.14
					c-0.08,0-0.14,0.06-0.14,0.14v0.33C230.06,107.2,230.12,107.26,230.2,107.26z"/>
			</g>
		</g>
		<g>
			<g>
				<g>
					<path style="fill:#414042;" d="M230.85,106.81l2.69,0.02c0.7,0,1.26-0.56,1.26-1.24l0.04-5.48c0-0.7-0.56-1.26-1.24-1.26
						l-2.69-0.02c-0.7,0-1.26,0.56-1.26,1.24l-0.04,5.48C229.58,106.23,230.14,106.81,230.85,106.81z"/>
				</g>
				<g>
					<path style="fill:#414042;" d="M229.44,106.09l0.04-6.58c0-0.48,0.39-0.85,0.85-0.85l3.79,0.02c0.48,0,0.85,0.39,0.85,0.85
						l-0.04,6.58c0,0.48-0.39,0.85-0.85,0.85l-3.79-0.02C229.81,106.93,229.44,106.56,229.44,106.09z M230.35,98.95
						c-0.31,0-0.58,0.25-0.58,0.56l-0.04,6.58c0,0.31,0.25,0.58,0.56,0.58l3.79,0.02c0.31,0,0.58-0.25,0.58-0.56l0.04-6.58
						c0-0.31-0.25-0.58-0.56-0.58L230.35,98.95z"/>
				</g>
			</g>
			<g>
				<g>
					<path style="fill:#231F20;" d="M230.25,100.85c0,0.6,0.48,1.08,1.08,1.1c0.6,0,1.08-0.48,1.1-1.08c0-0.6-0.48-1.08-1.08-1.1
						C230.74,99.78,230.25,100.25,230.25,100.85z"/>
				</g>
				<g>
					<path style="fill:#231F20;" d="M230.1,100.85c0-0.68,0.56-1.22,1.22-1.22c0.68,0,1.22,0.56,1.22,1.22
						c0,0.68-0.56,1.22-1.22,1.22C230.64,102.07,230.1,101.51,230.1,100.85z M230.39,100.85c0,0.52,0.41,0.95,0.93,0.95
						s0.95-0.41,0.95-0.93c0-0.52-0.41-0.95-0.93-0.95C230.82,99.9,230.39,100.33,230.39,100.85z"/>
				</g>
			</g>
			<g>
				<path style="fill:#414042;" d="M230.74,100.85c0-0.33,0.27-0.58,0.6-0.58c0.33,0,0.58,0.27,0.58,0.6c0,0.33-0.27,0.58-0.6,0.58
					C230.99,101.45,230.74,101.18,230.74,100.85z M231.01,100.85c0,0.17,0.14,0.31,0.31,0.31c0.17,0,0.31-0.14,0.31-0.31
					c0-0.17-0.14-0.31-0.31-0.31S231.01,100.69,231.01,100.85z"/>
			</g>
			<g>
				<g>
					<path style="fill:#231F20;" d="M232.77,100.04c0,0.39,0.31,0.7,0.68,0.7c0.39,0,0.7-0.31,0.7-0.68c0-0.39-0.31-0.7-0.68-0.7
						C233.08,99.34,232.77,99.65,232.77,100.04z"/>
				</g>
				<g>
					<path style="fill:#231F20;" d="M232.62,100.04c0-0.46,0.37-0.83,0.85-0.83c0.46,0,0.83,0.37,0.83,0.85
						c0,0.46-0.37,0.83-0.85,0.83C233,100.87,232.62,100.5,232.62,100.04z M232.91,100.04c0,0.31,0.25,0.56,0.56,0.56
						c0.31,0,0.56-0.25,0.56-0.56c0-0.31-0.25-0.56-0.56-0.56C233.16,99.49,232.91,99.73,232.91,100.04z"/>
				</g>
			</g>
			<g>
				<path style="fill:#414042;" d="M233.06,100.04c0-0.23,0.19-0.39,0.41-0.39s0.39,0.19,0.39,0.41s-0.19,0.39-0.41,0.39
					C233.25,100.44,233.06,100.27,233.06,100.04z M233.33,100.04c0,0.06,0.06,0.12,0.12,0.12s0.12-0.06,0.12-0.12
					c0-0.06-0.06-0.12-0.12-0.12C233.39,99.92,233.33,99.98,233.33,100.04z"/>
			</g>
			<g>
				<g>
					<path style="fill:#231F20;" d="M230.22,104.33c0,1.1,0.87,1.99,1.97,1.99s1.99-0.87,1.99-1.97c0-1.1-0.87-1.99-1.97-1.99
						C231.14,102.36,230.22,103.23,230.22,104.33z"/>
				</g>
				<g>
					<path style="fill:#231F20;" d="M230.08,104.33c0-1.16,0.97-2.11,2.13-2.11s2.11,0.97,2.11,2.13s-0.97,2.11-2.13,2.11
						C231.01,106.46,230.08,105.51,230.08,104.33z M230.37,104.33c0,1.01,0.81,1.84,1.82,1.86c1.01,0.02,1.84-0.81,1.86-1.82
						c0-1.01-0.81-1.84-1.82-1.86C231.2,102.51,230.37,103.31,230.37,104.33z"/>
				</g>
			</g>
			<g>
				<path style="fill:#414042;" d="M231.24,104.35c0-0.54,0.43-0.95,0.97-0.95s0.95,0.43,0.95,0.97c0,0.54-0.43,0.95-0.97,0.95
					C231.67,105.3,231.24,104.86,231.24,104.35z M231.51,104.35c0,0.37,0.31,0.68,0.68,0.68s0.68-0.31,0.68-0.68
					s-0.31-0.68-0.68-0.68C231.84,103.67,231.53,103.95,231.51,104.35z"/>
			</g>
		</g>
	</g>
	<g>
		<path style="fill:#BDF9F7;" d="M272.67,89.23c0,0.19-0.14,0.35-0.35,0.35c-0.19,0-0.35-0.14-0.35-0.35c0-0.19,0.14-0.35,0.35-0.35
			C272.51,88.87,272.67,89.04,272.67,89.23z"/>
	</g>
	<g>
		<path style="fill:#BDF9F7;" d="M239.82,89.23c0,0.19-0.14,0.35-0.35,0.35c-0.19,0-0.35-0.14-0.35-0.35c0-0.19,0.14-0.35,0.35-0.35
			C239.66,88.87,239.82,89.04,239.82,89.23z"/>
	</g>
	<g>
		
			<rect x="235.21" y="82.9" transform="matrix(0.4178 -0.9085 0.9085 0.4178 57.6804 264.7477)" style="fill:#414042;" width="0.41" height="8.94"/>
	</g>
	<g>
		
			<rect x="272.06" y="87.14" transform="matrix(0.9103 -0.414 0.414 0.9103 -11.3483 122.3308)" style="fill:#414042;" width="9" height="0.41"/>
	</g>
	<g>
		<rect x="219.14" y="79.36" style="fill:#932D1F;" width="73.6" height="2.44"/>
	</g>
	<g>
		<polygon style="fill:#D22940;" points="219.14,79.36 292.74,79.36 288.17,77 223.73,77 		"/>
	</g>
	<g>
		<rect x="216.78" y="112.27" style="fill:#7D3423;" width="78.44" height="3.19"/>
	</g>
	<g>
		<rect x="220.42" y="115.46" style="fill:#2B2B2B;" width="71.16" height="9.14"/>
	</g>
	<g>
		<rect x="220.42" y="115.46" style="fill:#231F20;" width="71.16" height="2.23"/>
	</g>
	<g>
		<rect x="220.59" y="81.8" style="fill:#2B2B2B;" width="1.28" height="28.36"/>
	</g>
	<g>
		<rect x="290.36" y="81.8" style="fill:#2B2B2B;" width="1.28" height="28.36"/>
	</g>
	<g>
		<g>
			<path style="fill:#CE2A19;" d="M227.97,84.88L227.97,84.88c0.17,0,0.31-0.14,0.31-0.31v-2.73h-0.6v2.73
				C227.66,84.76,227.8,84.88,227.97,84.88z"/>
		</g>
		<g>
			<path style="fill:#231F20;" d="M225.57,83.91c-0.41,0.74-0.5,1.51-0.17,1.7c0.17,0.1,0.41,0.02,0.66-0.17
				c0.25-0.19,0.5-0.48,0.7-0.85c0.41-0.74,0.5-1.51,0.17-1.7c-0.14-0.08-0.35-0.04-0.56,0.1l0,0
				C226.09,83.16,225.8,83.5,225.57,83.91z"/>
		</g>
		<g>
			
				<rect x="226.31" y="83.25" transform="matrix(0.4921 -0.8705 0.8705 0.4921 41.5565 241.6378)" style="fill:#231F20;" width="3.1" height="3.91"/>
		</g>
		<g>
			<path d="M225.57,83.91c-0.41,0.74-0.5,1.51-0.17,1.7l3.41,1.92l0.81-1.43l-0.39-1.37c0,0-0.27-0.14-1.28,1.78l-1.88-1.06
				c-0.23-0.12-0.33-0.19-0.33-0.19s-0.04-0.04-0.06-0.14c-0.06-0.23-0.04-0.83,0.68-2.13C226.09,83.16,225.8,83.5,225.57,83.91z"/>
		</g>
		<g>
			<path style="fill:#2B2B2B;" d="M229.81,85.05l-1.03,1.84l1.12,0.62c0.06,0.04,0.19-0.06,0.31-0.21l0.33-0.5
				c0.04-0.06,0.06-0.1,0.1-0.17l0.27-0.58c0.08-0.19,0.1-0.33,0.02-0.37L229.81,85.05z"/>
		</g>
		<g>
			<path style="fill:#2B2B2B;" d="M229.71,87.12l-1.22-0.68l-0.31,1.01c-0.02,0.08,0.02,0.23,0.12,0.31l0.33,0.25
				c0.04,0.02,0.08,0.04,0.1,0.06l0.39,0.14c0.12,0.04,0.23,0,0.25-0.08L229.71,87.12z"/>
		</g>
		<g>
			<path style="fill:#2B2B2B;" d="M229.27,85.05l1.22,0.68l0.74-0.77c0.06-0.06,0.04-0.17-0.06-0.25l-0.29-0.25
				c-0.04-0.02-0.06-0.04-0.1-0.06l-0.41-0.17c-0.12-0.04-0.27-0.04-0.33,0.04L229.27,85.05z"/>
		</g>
		<g>
			<path style="fill:#2B2B2B;" d="M228.96,86.99l1.03-1.84l-0.79-0.43c-0.04-0.02-0.14,0.08-0.27,0.25l-0.33,0.5
				c-0.04,0.06-0.06,0.1-0.1,0.17l-0.29,0.58c-0.08,0.19-0.12,0.33-0.06,0.35L228.96,86.99z"/>
		</g>
		<g>
			<path style="fill:#414042;" d="M228.96,85.81c-0.41,0.74-0.5,1.51-0.17,1.7s0.95-0.27,1.37-1.01c0.41-0.74,0.5-1.51,0.17-1.7
				C230,84.63,229.38,85.07,228.96,85.81z"/>
		</g>
		<g>
			<path style="fill:#F4B84D;" d="M229.15,85.92c-0.29,0.52-0.35,1.06-0.1,1.2c0.14,0.08,0.35,0,0.54-0.19
				c0.14-0.12,0.29-0.31,0.41-0.54c0.29-0.52,0.35-1.06,0.1-1.2c-0.17-0.1-0.43,0.04-0.68,0.31
				C229.34,85.63,229.23,85.77,229.15,85.92z"/>
		</g>
		<g>
			<path style="fill:#EFD2AF;" d="M229.15,85.92c-0.29,0.52-0.35,1.06-0.1,1.2c0.14,0.08,0.35,0,0.54-0.19
				c-0.02-0.02-0.46-0.25-0.14-1.41C229.34,85.63,229.23,85.77,229.15,85.92z"/>
		</g>
		<g>
			<path style="fill:#F94A2F;" d="M227.12,84.88L227.12,84.88c0.17,0,0.31-0.14,0.31-0.31v-2.73h-0.6v2.73
				C226.83,84.76,226.96,84.88,227.12,84.88z"/>
		</g>
		<g>
			<path style="fill:#F4B84D;" d="M227,84.55c0,0.06,0.06,0.12,0.12,0.12s0.12-0.06,0.12-0.12c0-0.06-0.06-0.12-0.12-0.12
				S227,84.49,227,84.55z"/>
		</g>
	</g>
	<g>
		<g>
			<path style="fill:#CE2A19;" d="M284.38,84.88L284.38,84.88c-0.17,0-0.31-0.14-0.31-0.31v-2.73h0.6v2.73
				C284.67,84.74,284.55,84.88,284.38,84.88z"/>
		</g>
		<g>
			<path style="fill:#231F20;" d="M286.78,83.89c0.41,0.74,0.5,1.51,0.17,1.7c-0.17,0.1-0.41,0.02-0.66-0.17
				c-0.25-0.19-0.5-0.48-0.7-0.85c-0.41-0.74-0.5-1.51-0.17-1.7c0.14-0.08,0.35-0.04,0.56,0.1l0,0
				C286.24,83.16,286.53,83.47,286.78,83.89z"/>
		</g>
		<g>
			
				<rect x="282.52" y="83.67" transform="matrix(0.8705 -0.4921 0.4921 0.8705 -5.1082 151.0273)" style="fill:#231F20;" width="3.91" height="3.1"/>
		</g>
		<g>
			<path d="M286.78,83.89c0.41,0.74,0.5,1.51,0.17,1.7l-3.41,1.92l-0.81-1.43l0.39-1.37c0,0,0.27-0.14,1.28,1.78l1.88-1.06
				c0.23-0.12,0.33-0.19,0.33-0.19s0.04-0.04,0.06-0.14c0.06-0.23,0.04-0.83-0.68-2.13C286.24,83.16,286.53,83.47,286.78,83.89z"/>
		</g>
		<g>
			<path style="fill:#2B2B2B;" d="M282.54,85.03l1.03,1.84l-1.12,0.62c-0.06,0.04-0.19-0.06-0.31-0.21l-0.33-0.5
				c-0.04-0.06-0.06-0.1-0.1-0.17l-0.27-0.58c-0.08-0.19-0.1-0.33-0.02-0.37L282.54,85.03z"/>
		</g>
		<g>
			<path style="fill:#2B2B2B;" d="M282.64,87.1l1.22-0.68l0.31,1.01c0.02,0.08-0.02,0.23-0.12,0.31l-0.33,0.25
				c-0.04,0.02-0.08,0.04-0.1,0.06l-0.39,0.14c-0.12,0.04-0.23,0-0.25-0.08L282.64,87.1z"/>
		</g>
		<g>
			<path style="fill:#2B2B2B;" d="M283.08,85.05l-1.22,0.68l-0.74-0.77c-0.06-0.06-0.04-0.17,0.06-0.25l0.29-0.25
				c0.04-0.02,0.06-0.04,0.1-0.06l0.41-0.17c0.12-0.04,0.27-0.04,0.33,0.04L283.08,85.05z"/>
		</g>
		<g>
			<path style="fill:#2B2B2B;" d="M283.37,86.99l-1.03-1.84l0.79-0.43c0.04-0.02,0.14,0.08,0.27,0.25l0.33,0.5
				c0.04,0.06,0.06,0.1,0.1,0.17l0.29,0.58c0.08,0.19,0.12,0.33,0.06,0.35L283.37,86.99z"/>
		</g>
		<g>
			<path style="fill:#414042;" d="M283.39,85.81c0.41,0.74,0.5,1.51,0.17,1.7s-0.95-0.27-1.37-1.01c-0.41-0.74-0.5-1.51-0.17-1.7
				S282.96,85.07,283.39,85.81z"/>
		</g>
		<g>
			<path style="fill:#F4B84D;" d="M283.2,85.92c0.29,0.52,0.35,1.06,0.1,1.2c-0.14,0.08-0.35,0-0.54-0.19
				c-0.14-0.12-0.29-0.31-0.41-0.54c-0.29-0.52-0.35-1.06-0.1-1.2c0.17-0.1,0.43,0.04,0.68,0.31
				C283.02,85.63,283.12,85.77,283.2,85.92z"/>
		</g>
		<g>
			<path style="fill:#EFD2AF;" d="M283.2,85.92c0.29,0.52,0.35,1.06,0.1,1.2c-0.14,0.08-0.35,0-0.54-0.19
				c0.02-0.02,0.46-0.25,0.14-1.41C283.02,85.63,283.12,85.77,283.2,85.92z"/>
		</g>
		<g>
			<path style="fill:#F94A2F;" d="M285.21,84.88L285.21,84.88c-0.17,0-0.31-0.14-0.31-0.31v-2.73h0.6v2.73
				C285.52,84.74,285.38,84.88,285.21,84.88z"/>
		</g>
		<g>
			<path style="fill:#F4B84D;" d="M285.33,84.55c0,0.06-0.06,0.12-0.12,0.12c-0.06,0-0.12-0.06-0.12-0.12
				c0-0.06,0.06-0.12,0.12-0.12C285.29,84.43,285.33,84.47,285.33,84.55z"/>
		</g>
	</g>
</g>
</svg>
