<svg xmlns="http://www.w3.org/2000/svg" viewBox="0 0 34.585 34.585">
  <defs/>
  <g fill="#f58862">
    <path d="M9.332 6.675l21.059 21.059h1.768L10.219 5.788z" data-name="Path 57770"/>
    <path d="M3.13 7.56l4.42860977-4.42860977 1.77130249 1.77130249-4.42860977 4.42860977z" data-name="Path 57771"/>
    <path d="M19.997 13.8c.011-.013.014-.028.026-.04l2.505-2.505a.6264966.6264966 0 11.886.886l-2.508 2.505c-.012.012-.028.016-.04.026l1.777 1.777 1.516-1.517a3.17 3.17 0 012.568-.939 6.9 6.9 0 007.652-7.5l-3.758 3.758a.626.626 0 01-.567.171l-4.427-.889a.626.626 0 01-.49-.491l-.89-4.427a.626.626 0 01.171-.567L28.176.29a6.9 6.9 0 00-7.5 7.652 3.167 3.167 0 01-.939 2.568l-1.517 1.515z" data-name="Path 57772"/>
    <path d="M14.671 20.869c-.011.012-.014.028-.026.039l-2.505 2.505a.6264966.6264966 0 11-.886-.886l2.505-2.505c.012-.012.028-.016.039-.026l-1.774-1.776-1.516 1.517a3.161 3.161 0 01-2.568.939 6.9 6.9 0 00-7.652 7.5l3.758-3.758a.626.626 0 01.564-.171l4.428.889a.626.626 0 01.49.491l.89 4.427a.626.626 0 01-.172.567l-3.758 3.758a6.9 6.9 0 007.506-7.652 3.167 3.167 0 01.939-2.568l1.517-1.517z" data-name="Path 57773"/>
    <path d="M3.131 0A3.131 3.131 0 00.917 5.346l1.329 1.332 4.432-4.432L5.346.917A3.109 3.109 0 003.131 0z" data-name="Path 57774"/>
    <path d="M33.785 31.392l-.6-2.406h-2.29l.294 1.465a.626.626 0 01-.737.737l-1.465-.293v2.285l2.407.6a4.338 4.338 0 012.391-2.388z" data-name="Path 57775"/>
    <path d="M34.095 32.63a2.993 2.993 0 00-1.465 1.465l1.955.489z" data-name="Path 57776"/>
    <path d="M29.776 29.776l-.221-1.11-21.108-21.1-.886.886 21.105 21.103z" data-name="Path 57777"/>
    <path d="M27.734 30.391L6.675 9.332l-.887.887 21.946 21.94z" data-name="Path 57778"/>
  </g>
</svg>
