<?xml version="1.0" encoding="utf-8"?>
<!-- Generator: Adobe Illustrator 25.1.0, SVG Export Plug-In . SVG Version: 6.00 Build 0)  -->
<svg version="1.1" id="Layer_1" xmlns="http://www.w3.org/2000/svg" xmlns:xlink="http://www.w3.org/1999/xlink" x="0px" y="0px"
	 viewBox="0 0 300 265" style="enable-background:new 0 0 300 265;" xml:space="preserve">
<style type="text/css">
	.st0{fill:#E6F3FD;}
	.st1{fill:#EEC77A;}
	.st2{fill:#929496;}
	.st3{fill:#604629;}
	.st4{fill:#825F2C;}
	.st5{fill:#715328;}
	.st6{fill:#DA8C65;}
	.st7{fill:#BB653E;}
	.st8{fill:#989F9A;}
	.st9{fill:#848C85;}
	.st10{fill:#D1C4AC;}
	.st11{fill:#20191A;}
	.st12{fill:#EDE3CF;}
	.st13{fill:#E0D2B3;}
	.st14{fill:#A6492B;}
	.st15{fill:#3E4D43;}
	.st16{fill:#8E9D53;}
	.st17{fill:#B5C96B;}
	.st18{fill:#967548;}
	.st19{opacity:0.15;}
	.st20{fill:#FFFFFF;}
	.st21{fill:#9DAABC;}
	.st22{opacity:0.3;}
	.st23{opacity:0.2;}
	.st24{opacity:0.3;fill:#9DAABC;enable-background:new    ;}
	.st25{fill:#A78451;}
	.st26{opacity:0.3;fill:#A78451;enable-background:new    ;}
	.st27{opacity:0.2;fill:#FFFFFF;enable-background:new    ;}
	.st28{fill:#CB6364;}
	.st29{fill:#EEBA5D;}
	.st30{fill:#EA8D78;}
	.st31{fill:#A2BC46;}
	.st32{fill:#496E5A;}
	.st33{fill:#75A482;}
	.st34{opacity:0.3;fill:#8E9D53;enable-background:new    ;}
	.st35{opacity:0.2;fill:#8E9D53;enable-background:new    ;}
	.st36{fill:#778045;}
	.st37{fill:#DEAD4B;}
	.st38{opacity:0.5;fill:#FFFFFF;enable-background:new    ;}
	.st39{fill:#FFC948;}
	.st40{fill:#EEA493;}
	.st41{fill:#FAE9DD;}
	.st42{fill:#D58283;}
	.st43{opacity:0.4;fill:#EEA493;enable-background:new    ;}
</style>
<g id="BACKGROUND">
	<path class="st0" d="M158.9,134.4h-62c2.6,0,4-1.8,5.5-3.9c-0.8-3.3,3.5-6.6,6.4-4.9c0-3.3,3.6-5.8,6.8-5.5s6,2.6,7.9,5.3
		c0.2-1.4,2.1-1.6,3.3-1.1c1.2,0.5,2.3,1.5,3.7,1.5c1.9,0,3.3-1.8,5-2.7c2-1,4.5-0.6,6.5,0.4c2,1,3.7,2.6,5.5,4
		c4.6,3.5,10.3,5.5,16,5.8C162.4,133.4,160,134.4,158.9,134.4z"/>
	<path class="st0" d="M263.4,81.7h-44.1c1.9,0,3.4-1.7,4.4-3.4c0.2-0.4,0.4-0.8,0.8-1c0.5-0.2,1.1,0.1,1.6,0.2
		c2.1,0.4,3.2-2.7,5.2-3.5c2.1-0.8,4.2,1.1,5.7,2.9c0.8-1.1,2.7-0.4,3.8-1.3c0.3-0.3,0.5-0.7,0.8-1.1c0.9-1.2,2.6-1.4,4.1-1
		s2.6,1.4,3.9,2.2C253.7,78.8,258.2,80.9,263.4,81.7z"/>
	<ellipse class="st1" cx="201.1" cy="30.3" rx="8.9" ry="9.2"/>
	<path class="st0" d="M61.8,10.2H8.3c1.8,0,3.3-1,4.3-2.4c0.7-1,1-2.2,1.8-3.1c0.8-0.9,2.6-1.3,3.3-0.3c1.1-2.2,3.4-3.8,6-4.3
		s5.4,0.4,7.2,2.1C31.6,3,32.4,3.9,33.6,4c0.6,0,1.2-0.2,1.9-0.2c0.8,0,1.5,0.5,2.4,0.6c0.9,0.1,1.8-0.2,2.6-0.3
		c2.6-0.3,5,1,7.4,2.1C52.4,8.1,56.9,9.2,61.8,10.2z"/>
	<g>
		<g>
			<g>
				<polygon class="st2" points="32.9,264.8 70.2,68.7 66.9,68.7 29.6,264.8 				"/>
				<polygon class="st2" points="104.2,264.8 66.9,68.7 70.2,68.7 107.5,264.8 				"/>
			</g>
			<rect x="55.3" y="136.6" class="st2" width="26.4" height="2.5"/>
			<g>
				<polygon class="st2" points="81,136.6 48.9,164.9 51.1,164.9 83.1,136.6 				"/>
			</g>
			<g>
				<polygon class="st2" points="56.1,136.6 88.2,164.9 86,164.9 54,136.6 				"/>
			</g>
			<g>
				<polygon class="st2" points="74.6,127.2 68.5,68.7 62.5,127.2 				"/>
				<polygon class="st2" points="102.1,116.3 68.5,68.7 91.7,122.5 				"/>
				<polygon class="st2" points="120.6,92.6 68.5,68.7 114.6,103.3 				"/>
				<polygon class="st2" points="125.2,62.5 68.5,68.7 125.2,74.9 				"/>
				<polygon class="st2" points="114.6,34.1 68.5,68.7 120.6,44.8 				"/>
				<polygon class="st2" points="91.7,15 68.5,68.7 102.1,21.2 				"/>
				<polygon class="st2" points="62.5,10.2 68.5,68.7 74.6,10.2 				"/>
				<polygon class="st2" points="35,21.2 68.5,68.7 45.4,15 				"/>
				<polygon class="st2" points="16.5,44.8 68.5,68.7 22.5,34.1 				"/>
				<polygon class="st2" points="11.9,74.9 68.5,68.7 11.9,62.5 				"/>
				<polygon class="st2" points="22.5,103.3 68.5,68.7 16.5,92.6 				"/>
				<polygon class="st2" points="45.4,122.5 68.5,68.7 35,116.3 				"/>
				<path class="st2" d="M72.6,68.7c0,2.3-1.8,4.1-4,4.1c-2.2,0-4-1.9-4-4.1s1.8-4.1,4-4.1C70.8,64.6,72.6,66.4,72.6,68.7z"/>
			</g>
			<rect x="50.1" y="162.3" class="st2" width="36.9" height="2.5"/>
		</g>
	</g>
	<g>
		<rect x="4.4" y="216.8" class="st3" width="128" height="3.2"/>
		<rect x="4.4" y="224.8" class="st3" width="128" height="3.2"/>
		<path class="st3" d="M8.3,207.7l-3.2-6.2c-0.2-0.4-0.8-0.4-1,0L1,207.7c-0.6,1.2-1,2.6-1,4v53.1h9.2v-53.1
			C9.2,210.3,8.9,208.9,8.3,207.7z"/>
		<path class="st3" d="M29.6,207.7l-3.2-6.2c-0.2-0.4-0.8-0.4-1,0l-3.2,6.2c-0.6,1.2-1,2.6-1,4v53.1h9.2v-53.1
			C30.5,210.3,30.2,208.9,29.6,207.7z"/>
		<path class="st3" d="M50.9,207.7l-3.2-6.2c-0.2-0.4-0.8-0.4-1,0l-3.2,6.2c-0.6,1.2-1,2.6-1,4v53.1h9.2v-53.1
			C51.8,210.3,51.5,208.9,50.9,207.7z"/>
		<path class="st3" d="M72.2,207.7l-3.2-6.2c-0.2-0.4-0.8-0.4-1,0l-3.2,6.2c-0.6,1.2-1,2.6-1,4v53.1h9.2v-53.1
			C73.1,210.3,72.8,208.9,72.2,207.7z"/>
		<path class="st3" d="M93.5,207.7l-3.2-6.2c-0.2-0.4-0.8-0.4-1,0l-3.2,6.2c-0.6,1.2-1,2.6-1,4v53.1h9.2v-53.1
			C94.4,210.3,94.1,208.9,93.5,207.7z"/>
		<path class="st3" d="M114.8,207.7l-3.2-6.2c-0.2-0.4-0.8-0.4-1,0l-3.2,6.2c-0.6,1.2-1,2.6-1,4v53.1h9.2v-53.1
			C115.7,210.3,115.4,208.9,114.8,207.7z"/>
		<path class="st3" d="M136.1,207.7l-3.2-6.2c-0.2-0.4-0.8-0.4-1,0l-3.2,6.2c-0.6,1.2-1,2.6-1,4v53.1h9.2v-53.1
			C137,210.3,136.7,208.9,136.1,207.7z"/>
	</g>
	<g>
		<rect x="132.2" y="216.8" class="st3" width="128.3" height="3.2"/>
		<rect x="132.2" y="224.8" class="st3" width="128.3" height="3.2"/>
		<path class="st3" d="M136.1,207.6l-3.2-6.3c-0.2-0.4-0.8-0.4-1,0l-3.2,6.3c-0.6,1.2-1,2.6-1,4v53.2h9.3v-53.2
			C137.1,210.2,136.7,208.9,136.1,207.6z"/>
		<path class="st3" d="M157.4,207.6l-3.2-6.3c-0.2-0.4-0.8-0.4-1,0l-3.2,6.3c-0.6,1.2-1,2.6-1,4v53.2h9.3v-53.2
			C158.4,210.2,158.1,208.9,157.4,207.6z"/>
		<path class="st3" d="M178.8,207.6l-3.2-6.3c-0.2-0.4-0.8-0.4-1,0l-3.2,6.3c-0.6,1.2-1,2.6-1,4v53.2h9.3v-53.2
			C179.8,210.2,179.4,208.9,178.8,207.6z"/>
		<path class="st3" d="M200.2,207.6l-3.2-6.3c-0.2-0.4-0.8-0.4-1,0l-3.2,6.3c-0.6,1.2-1,2.6-1,4v53.2h9.3v-53.2
			C201.1,210.2,200.8,208.9,200.2,207.6z"/>
		<path class="st3" d="M221.5,207.6l-3.2-6.3c-0.2-0.4-0.8-0.4-1,0l-3.2,6.3c-0.6,1.2-1,2.6-1,4v53.2h9.3v-53.2
			C222.5,210.2,222.1,208.9,221.5,207.6z"/>
		<path class="st3" d="M242.9,207.6l-3.2-6.3c-0.2-0.4-0.8-0.4-1,0l-3.2,6.3c-0.6,1.2-1,2.6-1,4v53.2h9.3v-53.2
			C243.8,210.2,243.5,208.9,242.9,207.6z"/>
		<path class="st3" d="M264.2,207.6l-3.2-6.3c-0.2-0.4-0.8-0.4-1,0l-3.2,6.3c-0.6,1.2-1,2.6-1,4v53.2h9.3v-53.2
			C265.2,210.2,264.9,208.9,264.2,207.6z"/>
	</g>
	<g>
		<rect x="260.3" y="216.8" class="st3" width="39.7" height="3.2"/>
		<rect x="260.3" y="224.8" class="st3" width="39.7" height="3.2"/>
		<path class="st3" d="M264.2,207.6l-3.2-6.3c-0.2-0.4-0.8-0.4-1,0l-3.2,6.3c-0.6,1.2-1,2.6-1,4v53.2h9.3v-53.2
			C265.2,210.2,264.9,208.9,264.2,207.6z"/>
		<path class="st3" d="M285.6,207.6l-3.2-6.3c-0.2-0.4-0.8-0.4-1,0l-3.2,6.3c-0.6,1.2-1,2.6-1,4v53.2h9.3v-53.2
			C286.5,210.2,286.2,208.9,285.6,207.6z"/>
	</g>
</g>
<g id="OBJECTS">
	<g>
		<g>
			<g>
				<path class="st4" d="M26.4,241.6H8.1c-1.8,0-3.2-1.4-3.2-3.2l0,0c0-1.8,1.4-3.2,3.2-3.2h18.3c1.8,0,3.2,1.4,3.2,3.2l0,0
					C29.6,240.1,28.2,241.6,26.4,241.6z"/>
				<path class="st5" d="M6.8,264.7L6.8,264.7c-1,0-1.7-1.1-1.5-2.2l4.9-20.9h3.2l-5.1,21.8C8.1,264.2,7.5,264.7,6.8,264.7z"/>
				<path class="st5" d="M27.6,264.7L27.6,264.7c1,0,1.7-1.1,1.5-2.2l-4.9-20.9H21l5.1,21.8C26.3,264.2,26.9,264.7,27.6,264.7z"/>
				<path class="st4" d="M4.1,265L4.1,265c-1.2,0-2-1.1-1.7-2.3l5.7-21.1h3.7l-5.9,22.1C5.6,264.5,4.9,265,4.1,265z"/>
				<path class="st4" d="M30.4,265L30.4,265c1.2,0,2-1.1,1.7-2.3l-5.7-21.1h-3.7l5.9,22.1C28.8,264.5,29.5,265,30.4,265z"/>
			</g>
			<g>
				<g>
					<path class="st6" d="M55.7,204.9c5.2,3.2,11,11.1,14.6,14c3.6,2.9,8.8,6.6,8.8,6.6l3.6,2c0.4,0.2,0.6,0.5,0.9,0.8
						c0.7,1.2,2.4,4,2.1,4.5c-0.4,0.6-3.1,2.9-5,2.6c-1.9-0.2-4.5-1.9-4.5-2.7c0-0.8-0.3-1.9-1-2.7c-0.6-0.8-19.4-9.2-26.3-18.8
						L55.7,204.9z"/>
					<path class="st7" d="M62,210.3c-2.1-2.1-4.2-4.1-6.2-5.3l-6.8,6.2c6.3,8.7,22.6,16.6,25.8,18.4C67,224.5,62.8,217.3,62,210.3z"
						/>
				</g>
				<path class="st8" d="M40.3,177.5c6.5,4.1,7.9,18.6,9.7,20.9c1.8,2.3,4.5,5.6,4.5,5.6l-8.7,6.3c0,0-4.3-3-10.6-10.8
					c-5.3-6.5-6.2-12.2-3.9-17.6C33.5,176.6,38.8,176.6,40.3,177.5z"/>
				<path class="st9" d="M52.4,205.5c-0.2-0.7-0.6-1.4-1.3-2.1c-5.1-4.8-6.5-10.3-4.9-16.6c-1.4-3.8-3.2-7.5-6-9.3
					c-1.5-0.9-6.8-0.9-9,4.5c-2.3,5.4-1.4,11,3.9,17.6c6.3,7.8,10.6,10.8,10.6,10.8L52.4,205.5z"/>
				<path class="st9" d="M43.9,208.9l8.7-7.8c0.3-0.3,0.7-0.2,1,0.1l3,3.6c0.2,0.3,0.2,0.7-0.1,0.9l-8.7,6.9c-0.3,0.2-0.7,0.2-0.9,0
					l-3-2.8C43.6,209.6,43.6,209.2,43.9,208.9z"/>
			</g>
			<g>
				<path class="st10" d="M4.5,224.3c2.3,7.7,4.7,11.5,12,11.5c7.3,0,24.2-1.5,38.6-16.8l7-15.1c0,0-1.6-2.3-5.7-1.7
					c-10.4,1.4-30.1,9-30.1,9s-10.2-1.5-19.3,7.8C3.9,222,4.5,224.3,4.5,224.3z"/>
				<path class="st10" d="M62.1,203.8c3.4,4.1,2.7,11.5,0.8,17.7c-2,6.2-4.5,20.4-11,20.4s-6.1,0-11.4,0c-5.3,0-5.3-4.6-2.7-6.2
					c2.6-1.5,5.6-17.7,16.2-25.9L62.1,203.8z"/>
				<path class="st11" d="M39.7,241.9c0,6.1-4.9,13.3-4.9,20.2h27c0,0-0.4-5.1-6.5-5.8c-4.3-0.5-3.7-2.2-3.3-3.7
					c1.7-5.9,3.2-10.6,3.2-10.6L39.7,241.9L39.7,241.9z"/>
				<rect x="34.8" y="262.1" class="st11" width="27" height="2.4"/>
			</g>
			<path class="st6" d="M62.5,198.5c1.4,1.2,2.7,4.3,3.2,5.2c0.5,0.8,0.4,3.6,0.4,4.5c0,0.9-1.7,2.2-1.7,2.2l-3.8-6.9L62.5,198.5z"
				/>
			<g>
				<g>
					<path class="st12" d="M3.8,225c2.5,7.5,5.1,11.3,13.1,11.3s22.2-1.5,38-16.5l7.6-14.9c0,0-1.7-2.2-6.2-1.7
						c-11.4,1.4-28.7,8.8-28.7,8.8s-11.1-1.5-21.1,7.7C3.2,222.7,3.8,225,3.8,225z"/>
					<path class="st13" d="M51.1,223.1l-0.5-9.7c-5.9,4.8-9.5,10.3-16.2,15.9c-5.7,4.8-20,7.6-25.2,4.8c1.9,1.3,4.3,2,7.7,2
						C24.3,236.2,36.9,235,51.1,223.1z"/>
					<path class="st12" d="M62.5,204.8c3.7,4,3,11.3,0.8,17.4c-2.1,6.1,3.5,20.1-3.6,20.1s-6.6,0-12.5,0s-5.8-4.6-3-6.1
						c2.8-1.5-2.3-17.4,9.3-25.4L62.5,204.8z"/>
				</g>
				<g>
					<path class="st14" d="M46.5,242.3c0,6-5.4,13.1-5.4,19.9h29.5c0,0-0.5-5-7.1-5.8c-4.7-0.5-4.1-2.2-3.6-3.7
						c1.9-5.8,3.5-10.5,3.5-10.5L46.5,242.3L46.5,242.3z"/>
					<rect x="41.1" y="262.2" class="st15" width="29.5" height="2.3"/>
				</g>
			</g>
			<g>
				<path class="st6" d="M46.3,172.4c-0.2,0.2-4.8,4.5-4.8,4.5l-6.3-6.8l3.8-4H43L46.3,172.4z"/>
				<path class="st7" d="M46.3,172.4L43,166h-3.9l-3.8,4l3.8,4.1l1.9-2.8c0.1-0.2,0.4-0.1,0.5,0.1c0.1,2,0.5,3.5,1,4.6
					C43.7,174.8,46.2,172.5,46.3,172.4z"/>
				<g>
					<path class="st5" d="M36.6,155.8c1-2.6,2.5-4.6,3.3-5.4c0.8-0.9,8.1-1.8,11.6-0.2c3.5,1.6,5.4,3.5,5.6,5.3
						c0.2,1.7-0.1,8.1-0.1,8.1L36.6,155.8z"/>
					<path class="st11" d="M36.8,159.6c-2.9,1.6,0.7,6.4,0,7.6c-0.7,1.1-0.5,0.6,0.2,1.3c0.7,0.8,3.7-0.5,4.5-3.3
						c0.9-2.8,4.2,5.6,6.4,3.3c2.3-2.3,4.4-3.7,3.5-5.1C50.7,162,41.8,156.9,36.8,159.6z"/>
					<path class="st6" d="M44.6,163.9c-0.3-2.4-2.2-3.1-3.2-1.1c-1,2,0.2,5.3,1.6,4.9c0,0-0.2,7.5,3.5,7.8c3.7,0.3,8.5-6.5,8.5-10.6
						c0,0-1-0.2-3.5-1.4c-1.7-0.8-1.9,1.2-3.1,1.9C46.8,166.2,44.8,166.1,44.6,163.9z"/>
					<path class="st4" d="M61.1,169c0.4,0.6-0.2,1.4-0.9,1.2c-2.3-0.7-4.1-1.8-7.1-4.3c-3.8-3.1-9.7-6.9-17.4-4.3c0,0-2.4,1-5.6-4.4
						c-0.1-0.2-0.1-0.4,0.1-0.6c0.9-0.9,4.6-3.7,13.5-2.8c10.6,1.1,12.3,6.3,13.8,8.9C58.4,164.4,60.1,167.2,61.1,169z"/>
				</g>
			</g>
			<path class="st8" d="M42,181.5c0.1-0.8,0.5-4.1,0.3-4.3c-0.2-0.2-6.1-8.8-7.6-8.7s-2.5,1.5-2.5,1.5L42,181.5z"/>
			<path class="st8" d="M43.7,192.6c2.3-7.2-2.1-15.7-7.1-20.1c-5.1-4.5-11-4-18.6,4.9c-6.9,8.2-12.9,21-15,34.3
				c-2.1,13.2-5.8,9.6,0.9,13.3c0,0,3.5-7.1,25-13.3c0,0,4.7-1.2,3.4-4.2c-1.4-3-1.5-2.7,2.7-5.4C36.7,200.8,42.3,196.9,43.7,192.6z
				"/>
			<path class="st9" d="M32.1,180.4c-1.7,3.3-4.7,3.5-10,11.1c-5.2,7.6-3.4,11.4-1,15.5c2.5,4.1,3.8,5.5-1.2,7.6l0,0
				c2.5-1,5.4-2,8.8-2.9c0,0,4.7-1.2,3.4-4.2c-1.4-3-1.5-2.7,2.7-5.4c1.9-1.2,7.5-5.1,8.8-9.4c2.3-7.2-2.1-15.7-7.1-20.1
				C36.8,176.5,33.8,177.1,32.1,180.4z"/>
			<g>
				<path class="st8" d="M45.6,192.7c-3.5-5.3-3.8-9.9-6.8-14.2c-3-4.3-8-5.1-13-0.9c-6.4,5.3,1,19.7,9,26.1L45.6,192.7z"/>
				<path class="st9" d="M33.4,204.2l4.8,4.4c0.2,0.2,0.6,0.2,0.8-0.1l9.8-12.5c0.2-0.2,0.1-0.5-0.1-0.7l-2.5-2.5
					c-0.2-0.2-0.5-0.2-0.7,0l-12.1,10.6C33.2,203.6,33.2,203.9,33.4,204.2z"/>
			</g>
			<path class="st6" d="M40.3,206.9c4.8,3.6,10,1,13.3-1.3c3.3-2.3,7.6-1.8,7.6-1.8s2.3-0.5,2.1-3.5c-0.2-3-4.8-2.9-5.1-2.9
				c-1.9,0-7.9,2-10.2-0.2L40.3,206.9z"/>
		</g>
		<g>
			<g>
				<g>
					<g>
						<path class="st16" d="M208.4,208.1c0.5-3.6,1.8-7.1,3.4-10.4c1.6-3.3,3.6-6.4,5.9-9.3c2.3-2.9,4.8-5.6,7.5-8
							c1.3-1.2,2.8-2.3,4.2-3.5c1.5-1.1,3-2.1,4.5-3.1l-4.1,3.6c-1.3,1.2-2.7,2.4-4,3.7c-1.3,1.3-2.6,2.5-3.7,3.9
							c-1.2,1.3-2.4,2.7-3.5,4.1c-2.2,2.8-4.2,5.8-6,9c-0.9,1.6-1.7,3.2-2.4,4.9C209.5,204.7,208.9,206.4,208.4,208.1z"/>
					</g>
					<path class="st16" d="M229.8,177.1c0,0,5.8-8.5,11.3-9.8S232.9,175.6,229.8,177.1z"/>
					<path class="st16" d="M226.3,180.1c0,0,10.3-5.6,13.6-4.7C243.1,176.3,233.1,179.7,226.3,180.1z"/>
					<path class="st16" d="M227.3,179.2c0,0,3.7-9.9,7.5-12.1C238.7,165,227.3,179.2,227.3,179.2z"/>
					<path class="st16" d="M220.2,186.4c0,0,3.8-11.9,7.1-14.9C230.6,168.5,225,179,220.2,186.4z"/>
					<path class="st16" d="M220.7,185.9c0,0,9.7-5.3,14.7-5.4c5-0.2,1.4,1.7-1.6,2.7C230.8,184.1,220.7,185.9,220.7,185.9z"/>
					<path class="st16" d="M215.2,193c0,0,0.5-8.1,3-13.8c2.5-5.6,3.7-3.9,2,0.9C218.5,184.9,215.2,193,215.2,193z"/>
					<path class="st16" d="M216,191.7c0,0,4.7-3.6,10.7-4.7c6.7-1.2,4.7,0.5,1.9,1.9C224.8,190.8,216,191.7,216,191.7z"/>
					<path class="st16" d="M211.9,198.5c0,0-1.1-6.7,0-11.8c1.1-5.1,1.6-6.3,1.9-5.7C214.1,181.6,213.7,193.6,211.9,198.5z"/>
					<path class="st16" d="M212.5,197.4c0,0,6-3.3,11.6-4.5s5.8-0.2,3.7,0.8C225.5,194.9,218.4,197.7,212.5,197.4z"/>
					<path class="st16" d="M209.2,204.6c0,0-2.7-3.7-2.4-8.3C207.1,191.6,209.3,200.5,209.2,204.6z"/>
					<path class="st16" d="M209.9,202.5c0,0,5.5-3.2,10.1-3.5C224.6,198.6,218.1,202.3,209.9,202.5z"/>
				</g>
				<g>
					<g>
						<path class="st17" d="M202.1,208.1c0.8-6.6,2.4-13.1,4.5-19.5c2.1-6.3,4.8-12.5,8.2-18.3c3.4-5.8,7.6-11.1,12.1-16
							c4.6-4.9,9.5-9.4,14.8-13.4c-2.5,2.2-5,4.4-7.3,6.8c-2.4,2.3-4.7,4.7-6.9,7.2c-4.3,5-8.5,10.2-11.7,16
							c-1.7,2.8-3.1,5.8-4.6,8.8c-1.4,3-2.6,6.1-3.7,9.2c-1.1,3.1-2.1,6.3-3,9.5C203.5,201.6,202.7,204.8,202.1,208.1z"/>
					</g>
					<g>
						<path class="st17" d="M233.4,148.2c0,0,6.5-7.8,11.3-11.4c4.8-3.6,7.8-2.9,2.8,1.2C242.5,142.1,233.4,148.2,233.4,148.2z"/>
						<path class="st17" d="M227.3,154.5c0,0,1.2-8,5.6-13.1c4.5-5.1,3.2-1.4,1.5,1.9C232.7,146.6,227.3,154.5,227.3,154.5z"/>
						<path class="st17" d="M228.5,153.2c0,0,8.2-4.6,13.2-5.7c4.9-1,3.8,1.5-0.2,2.8C237.4,151.6,228.5,153.2,228.5,153.2z"/>
						<path class="st17" d="M223.6,158.7c0,0-1-6,1.2-11.4c2.2-5.5,3.6-4.1,2.5-0.4C226.3,150.6,223.6,158.7,223.6,158.7z"/>
						<path class="st17" d="M224.5,157.7c0,0,5.9-3.6,10.8-4.2s7.6,0.3,3.6,1.7C234.8,156.6,225.9,157.8,224.5,157.7z"/>
						<path class="st17" d="M218.7,165.2c0,0-1.4-4.9,0-11.8c1.4-6.9,2.9-8.5,2.5-3.1C220.7,155.6,218.7,165.2,218.7,165.2z"/>
						<path class="st17" d="M219.5,164.1c0,0,4.7-2.3,9.8-3.5c5.1-1.2,7.4-0.7,5.6,1C233,163.4,223.4,163.7,219.5,164.1z"/>
						<path class="st17" d="M214.4,172.1c0,0-1.7-5.2-1.4-11.7c0.4-6.4,1.3-8.7,2.1-5.4C216.1,158.3,214.4,172.1,214.4,172.1z"/>
						<path class="st17" d="M215.2,171c0,0,5.4-3.3,11.6-4c6.3-0.7,8.5,0.2,2.5,2C223.2,170.7,215.2,171,215.2,171z"/>
						<path class="st17" d="M211.3,178.3c0,0-2.1-5-2.8-11.6c-0.4-3.6-0.1-8.4,0.8-8.4C210,158.3,211.9,172.7,211.3,178.3z"/>
						<path class="st17" d="M211.3,178.3c0,0,4-2.7,9.7-4.5c5.7-1.7,9.2-1.4,9.3,0C230.4,175.3,214.9,177.4,211.3,178.3z"/>
						<path class="st17" d="M208.4,185c0,0-3-5.8-4.4-11.1c-1.4-5.3-0.7-9.4,0-8.7C205.9,166.9,207,179.1,208.4,185z"/>
						<path class="st17" d="M208.4,185c0,0,5.1-3.9,11.3-5.3c6.2-1.4,8.5-0.8,8.9,0C229.1,180.6,215.3,182,208.4,185z"/>
						<path class="st17" d="M205.5,193.6c0,0-3.3-5-4.7-10.9c-1-4.3-0.8-7.8,0.3-5.8C201.8,178.1,204.8,186.4,205.5,193.6z"/>
						<path class="st17" d="M205.4,193.3c0,0,3.8-3.8,8.4-6.3c4.7-2.6,8.7-3.3,8.6-2C222.4,186.2,207.3,192.2,205.4,193.3z"/>
						<path class="st17" d="M203.5,200.7c0,0-3-4.6-3.9-9c-1-4.4,0.1-5.3,0.6-4C200.7,189.1,203.5,200.7,203.5,200.7z"/>
						<path class="st17" d="M203.8,199.8c0,0,4.8-4.7,8.7-6.5c4-1.9,4.2,0,2.9,1C214.1,195.3,206.1,198.1,203.8,199.8z"/>
					</g>
				</g>
				<g>
					<g>
						<path class="st16" d="M165.2,174.5c2.3,2.3,4.3,4.9,6.2,7.5c1.9,2.6,3.7,5.4,5.3,8.2c1.6,2.8,3.1,5.7,4.5,8.7
							c0.7,1.5,1.3,3,1.9,4.5c0.6,1.5,1.1,3.1,1.6,4.6c-1.4-2.9-2.8-5.9-4.3-8.7c-1.5-2.9-3-5.7-4.7-8.5c-1.6-2.8-3.3-5.6-5.1-8.3
							C168.9,179.8,167.1,177.2,165.2,174.5z"/>
					</g>
					<g>
						<path class="st16" d="M169.7,180.4c0,0-6.1-5.6-9.8-8.3c-3.7-2.7-6.6-4.9-6.3-5.4C153.9,166.2,164.1,168.2,169.7,180.4z"/>
						<path class="st16" d="M172.2,184c0,0-6-5.4-10.5-4.8C157.1,179.7,163.5,179.9,172.2,184z"/>
						<path class="st16" d="M175.4,189.2c0,0-10.6-5.1-12.7-3.3C160.7,187.6,169.1,187.3,175.4,189.2z"/>
						<path class="st16" d="M180.4,198.5c0,0-7.6-6.4-12.2-7.2c-4.5-0.7-3.2,0.8,0,1.9C171.4,194.4,178.1,197.5,180.4,198.5z"/>
						<path class="st16" d="M182.9,203.8c0,0-5.5-4.9-10.7-5.9c-5.3-1.1-3.1,1.5,0,2.1C175.3,200.7,180.4,202.6,182.9,203.8z"/>
						<path class="st16" d="M172.2,184c0,0-1.4-4-0.8-6.6c0.6-2.6,3.4-5,3.5-4.6C175,173.1,171.6,177.2,172.2,184z"/>
						<path class="st16" d="M175.2,188.8c0,0-1-1.9,0.2-5.7c1.3-3.8,3.6-5.7,3.6-4.7C179.1,179.3,176,185.4,175.2,188.8z"/>
						<path class="st16" d="M180.4,198.5c0,0-0.9-3.4,0-6.8c1-3.4,2.9-5.6,3.6-5.1C184.7,187.2,180.5,193.4,180.4,198.5z"/>
						<path class="st16" d="M182.8,203.5c0,0-0.2-5.6,2.1-9.3c2.2-3.6,2.7-1.3,1.6,1S183,200.7,182.8,203.5z"/>
					</g>
				</g>
				<g>
					<g>
						<path class="st17" d="M189.5,208.1c-0.3-2.8-0.8-5.6-1.4-8.3c-0.6-2.8-1.3-5.5-2-8.2c-1.5-5.4-3.3-10.8-5.3-16
							c-1.9-5.3-4.2-10.5-6.5-15.6c-1.2-2.6-2.4-5.1-3.7-7.6l-3.9-7.5c1.5,2.4,2.9,4.9,4.3,7.3c1.3,2.5,2.7,5,4,7.5
							c1.2,2.5,2.5,5.1,3.6,7.7c1.2,2.6,2.2,5.2,3.2,7.9c1.9,5.3,3.7,10.7,5.1,16.2C188.3,196.9,189.3,202.5,189.5,208.1z"/>
					</g>
					<g>
						<path class="st17" d="M170.5,151.5c0,0-4.4-6-9.7-12.6c-5-6.3-6.8-10-6.4-10.3c0.5-0.3,6.6,5.2,11.1,11.4
							C169.8,145.8,170.5,151.5,170.5,151.5z"/>
						<path class="st17" d="M173.4,157c0,0-1.2-5.5,0.4-11c1.6-5.5,5.7-9.8,6.5-9.7C181.1,136.5,173.6,147.4,173.4,157z"/>
						<path class="st17" d="M173.4,157c0,0-5.5-7.8-10.3-11c-4.8-3.2-6.5-2.7-5.9-2C157.7,144.8,168.2,152.6,173.4,157z"/>
						<path class="st17" d="M176.5,163.5c0,0,0-7.3,2.1-11.7c2-4.4,6.1-6.9,6.6-6.4C185.6,145.9,178.2,154.1,176.5,163.5z"/>
						<path class="st17" d="M178.6,168.3c0,0,0.4-5.5,2.7-9.7c2.3-4.3,5.2-5.7,5.7-5C187.5,154.2,180.5,160,178.6,168.3z"/>
						<path class="st17" d="M180.4,173.1c0,0,0.7-6.4,3.5-10.2c2.8-3.8,4.8-4.5,5.3-4.3C189.6,158.8,182.7,166.3,180.4,173.1z"/>
						<path class="st17" d="M183.1,180.1c0,0,0.2-6.9,3.1-11.3c2.9-4.4,5-4.2,5.2-3.6C191.6,165.8,185.3,172,183.1,180.1z"/>
						<path class="st17" d="M184.7,185.6c0,0,1.8-6.3,4.4-10.2c2.6-4,5.9-4.1,5.9-3.2C194.9,173,187.8,178.1,184.7,185.6z"/>
						<path class="st17" d="M186.1,189.7c0,0,0.7-5.6,4.3-9.2c3.6-3.7,4.7-1.5,4.2-1C194.1,180,189,183.1,186.1,189.7z"/>
						<path class="st17" d="M187.4,195c0,0,1.2-4.7,3.4-7.2c2.3-2.6,4.6-2.8,4.7-2.1C195.6,186.2,189.5,189.9,187.4,195z"/>
						<path class="st17" d="M188.5,200.4c0,0,1-4.3,3.4-6.5c2.4-2.1,4.9-2.1,5.2-1.8C197.3,192.5,191.4,194.1,188.5,200.4z"/>
						<path class="st17" d="M176.5,163.5c0,0-4.6-4.7-8.1-7.4c-3.4-2.7-8.9-4.5-8.4-3.8C161.8,155.6,172.3,160.8,176.5,163.5z"/>
						<path class="st17" d="M180.4,172.9c0,0-4-4.9-8.9-8c-4.9-3.1-9.4-5.5-9.1-4.7C162.7,161,171.6,168.8,180.4,172.9z"/>
						<path class="st17" d="M183.1,180.1c0,0-3-3.3-8.1-7c-5.1-3.7-9.5-6.1-9.9-5.6C164.9,168,175.2,177.7,183.1,180.1z"/>
						<path class="st17" d="M184.9,185c0,0-6.9-5.5-10.5-6.9c-3.6-1.4-5-0.3-4.3,0S181,183.7,184.9,185z"/>
						<path class="st17" d="M186.1,189.7c0,0-3-2.1-6.5-4.1c-3.6-2-7.7-3-7.4-2.2C172.3,184.2,181.5,189.1,186.1,189.7z"/>
						<path class="st17" d="M187.5,194.7c0,0-3.5-2.1-8-4c-4.5-2-6.1-2.8-6-2.2C173.8,189.7,183.6,194.8,187.5,194.7z"/>
						<path class="st17" d="M188.6,200c0,0-4.2-4.2-8.1-4.7C176.6,194.7,183.6,198.6,188.6,200z"/>
					</g>
				</g>
				<g>
					<g>
						<path class="st16" d="M197.5,209.6c-2.3-7.1-3-14.7-3.3-22.1c-0.3-7.5,0.2-15,1-22.4l0.7-5.6l0.9-5.5c0.3-1.8,0.6-3.7,1-5.5
							l1.2-5.5c0.9-3.6,1.9-7.2,2.8-10.8c1.1-3.6,2.3-7.1,3.4-10.6l-2.9,10.8c-0.8,3.6-1.8,7.2-2.5,10.9c-0.7,3.7-1.6,7.3-2.1,11
							l-0.9,5.5l-0.7,5.5c-0.9,7.4-1.3,14.8-1.2,22.2c0.1,3.7,0.2,7.4,0.6,11.1C196,202.3,196.6,206,197.5,209.6z"/>
					</g>
					<g>
						<path class="st16" d="M202.5,130.8c0,0,1.2-11.3,4.9-17.4c3.7-6.1,4.3-2.8,3,0.4C209.1,117.1,202.5,130.8,202.5,130.8z"/>
						<path class="st16" d="M201.1,136c0,0-0.1-6-2.8-12.4c-2.7-6.4-5.1-5.8-4.6-4.3C194.3,120.8,199.8,131.3,201.1,136z"/>
						<path class="st16" d="M201.4,134.8c0,0,2.2-4.9,6.8-10.3c4.6-5.4,7.6-5.8,6-2.3C212.5,125.6,204.6,131.4,201.4,134.8z"/>
						<path class="st16" d="M199.6,142.5c0,0-2.9-9-5.9-14.8c-3-5.8-4.9-4.3-3.9-1.6C190.8,128.7,198,138.5,199.6,142.5z"/>
						<path class="st16" d="M199.8,141.3c0,0,2.7-4.5,8.6-9.3c5.9-4.8,9.7-6.1,8.3-3.3C215.2,131.6,204.7,137.6,199.8,141.3z"/>
						<path class="st16" d="M197.8,151.2c0,0-2.2-6.8-5.8-13.5c-3.6-6.7-5.3-6.1-5.5-4.6C186.3,134.6,197.8,151.2,197.8,151.2z"/>
						<path class="st16" d="M198,150.2c0,0,7.2-8.8,14-13.3c6.8-4.5,7.1-2.7,4.1,0C213,139.6,202.5,148.2,198,150.2z"/>
						<path class="st16" d="M196.7,157.4c0,0-4.9-11-8.6-15.1c-3.8-4.2-4-1.8-2.7,0C186.8,144.1,193.5,153.4,196.7,157.4z"/>
						<path class="st16" d="M196.9,156.1c0,0,6.7-6.7,14.1-11.1c7.4-4.4,9.8-3.8,9.7-2.8C220.6,143.2,205.8,152.8,196.9,156.1z"/>
						<path class="st16" d="M195.8,164.1c0,0-3.4-7.7-8.1-13.9s-7.4-5.9-6.9-4.9C181.1,146.2,190.4,158.2,195.8,164.1z"/>
						<path class="st16" d="M195.8,164.1c0,0,4.8-5.4,10.6-9.6c5.8-4.2,9.8-5.1,9.6-4.3C215.9,151,201.8,162.1,195.8,164.1z"/>
						<path class="st16" d="M195.3,170.4c0,0-4.9-8.8-8.8-13.7c-3.9-4.9-5.9-4.8-5.8-3.9C180.8,153.8,184.5,160.9,195.3,170.4z"/>
						<path class="st16" d="M195.3,170.4c0,0,5.9-5.1,11.1-8.3c5.2-3.2,8.8-4.2,9.3-2.9C216.3,160.4,202.9,166.9,195.3,170.4z"/>
						<path class="st16" d="M194.5,178.9c0,0-1.8-7.2-6.3-13.3c-4.5-6.1-9-8.4-8.7-7.3C179.9,159.4,189.4,174.8,194.5,178.9z"/>
						<path class="st16" d="M194.5,178.9c0,0,5.6-5.9,9.8-8.6c4.2-2.7,8.2-2.9,8.4-2.6C212.8,168.1,202,173.3,194.5,178.9z"/>
						<path class="st16" d="M194.6,186.3c0,0-3.4-7.2-6.3-10.8c-2.9-3.6-7.1-6.3-6.9-5.5C181.5,170.8,189.9,182.9,194.6,186.3z"/>
						<path class="st16" d="M194.6,186.3c0,0,4.7-6.2,9-8.6c4.3-2.5,6.2-1.8,6.4-1.1C210.1,177.3,200.5,181.5,194.6,186.3z"/>
						<path class="st16" d="M194.8,193.3c0,0,1.1-4.2,6-6.9c4.9-2.7,7.1-0.8,6.5,0C206.8,187.1,200.1,187.3,194.8,193.3z"/>
						<path class="st16" d="M194.8,193.3c0,0-1.1-4.2-6-6.9c-4.9-2.7-7.1-0.8-6.5,0C182.9,187.1,189.6,187.3,194.8,193.3z"/>
					</g>
				</g>
			</g>
			<g>
				<g>
					<g>
						<polygon class="st18" points="179.8,255.9 196,249.9 196,254.2 179.8,260.8 						"/>
						<g class="st19">
							<path class="st20" d="M196,250.1c-1.8,0.9-3.1,2.4-4.5,3.9c-2.6,2.9-5,4.2-8.9,4.5c-1,0.1-1.9,0.1-2.9,0.3v0.6
								c0.3,0,0.5-0.1,0.8-0.1c1.1-0.1,2.3-0.1,3.4-0.2l6-2.5c0.2-0.2,0.4-0.4,0.7-0.6c1.8-1.8,3.3-3.5,5.3-4.8L196,250.1L196,250.1
								z"/>
							<path class="st20" d="M179.8,256.9c0.2,0,0.5,0,0.7,0c2.1,0.1,4.2-0.2,6.1-1c2-0.8,3.4-2.1,5-3.4c0.8-0.7,1.7-1.3,2.6-1.9
								l-2,0.7c-1.4,1.1-2.8,2.4-4.5,3.3c-2.4,1.4-4.9,1.8-7.7,1.8c-0.1,0-0.2,0-0.3,0L179.8,256.9L179.8,256.9z"/>
						</g>
					</g>
					<g>
						<polygon class="st18" points="216,255.2 199.8,249.1 199.8,253.5 216,260.1 						"/>
						<g class="st19">
							<path class="st20" d="M216,256.6v-1c-2.6-1.7-6.3-1.6-9.1-0.5c-0.3,0.1-0.9,0.6-1.3,0.7l0.9,0.4c0.5-0.2,1-0.5,1.4-0.7
								C210.6,254.6,213.8,255,216,256.6z"/>
							<path class="st20" d="M216,256.6c-0.8-0.3-1.6-0.4-2.4-0.4c-1.8-0.1-3.2,0.4-4.5,1.1l0.7,0.3c2.1-0.8,4.2-1.1,6.2-0.1
								L216,256.6L216,256.6z"/>
							<path class="st20" d="M203.8,253.3c-0.1-0.9,0.2-1.7,0-2.7l-0.6-0.2c0.2,0.5,0.3,1.1,0.2,1.8c-0.1,0.8-0.4,1.7-0.3,2.6
								l1.7,0.7C204.2,254.9,203.8,253.8,203.8,253.3z"/>
						</g>
					</g>
				</g>
				<g>
					<path class="st21" d="M179.2,204.2v38.4c0,5.5,4.5,10,10,10h17.5c5.5,0,10-4.5,10-10v-38.4H179.2z"/>
					<g class="st22">
						<path class="st21" d="M182.7,223.6c0,0.3,0.3,0.6,0.6,0.6h0.1c0.3,0,0.6-0.3,0.6-0.6c0-0.3-0.3-0.6-0.6-0.6h-0.1
							C182.9,223,182.7,223.3,182.7,223.6z"/>
						<path class="st21" d="M182.7,230.9c0,0,0.1,0.1,0.1,0.1c0.4,0.5,1-0.2,0.6-0.5c0,0-0.1-0.1-0.1-0.1
							C182.9,230.1,182.4,230.5,182.7,230.9z"/>
						<path class="st21" d="M185.7,240.7c0,0.1,0.1,0.1,0.1,0.2c0.1,0.2,0.5,0.2,0.6,0c0,0,0.1-0.1,0.1-0.1c0.1-0.3-0.1-0.6-0.4-0.6
							C185.8,240.1,185.6,240.4,185.7,240.7z"/>
						<path class="st21" d="M185.3,234.8c0.5,0,0.4-0.8-0.1-0.8C184.6,234,184.7,234.8,185.3,234.8z"/>
						<path class="st21" d="M183.5,212.3c0.5,0,0.8-0.4,0.7-0.9l0,0c-0.1-0.5-0.7-0.7-1-0.5l0,0l0,0c-0.2,0.1-0.3,0.2-0.4,0.4l0,0
							c0,0,0,0.1,0,0.1C182.7,211.8,183,212.3,183.5,212.3z"/>
						<path class="st21" d="M185,207c-0.4,0-0.8,0.4-0.8,0.9c0,0.5,0.4,0.8,0.9,0.8c0.4,0,0.8-0.4,0.8-0.9
							C185.8,207.3,185.5,207,185,207z"/>
						<path class="st21" d="M189.6,205.7c-0.1,0-0.1,0-0.2,0c-0.6-0.1-0.6,0.9,0,0.7c0,0,0.1,0,0.1,0
							C190,206.3,190,205.7,189.6,205.7z"/>
						<path class="st21" d="M189.4,234.9c-0.1,0-0.2,0-0.2,0c-0.1,0-0.3,0.1-0.3,0.2c0,0.3,0.2,0.5,0.5,0.6
							C189.9,235.7,190,234.9,189.4,234.9z"/>
						<path class="st21" d="M188.7,211c0.9,0,1-1.3,0.1-1.3S187.9,211,188.7,211z"/>
						<path class="st21" d="M182.1,215.8c-0.2,0-0.3-0.1-0.5,0c-0.4,0.2-0.3,0.7,0,0.9c0.1,0.1,0.3,0.1,0.4,0
							C182.4,216.6,182.6,215.9,182.1,215.8z"/>
						<path class="st21" d="M187.1,223.6c0.1,0,0.1-0.1,0.2-0.1c0.2-0.1,0.2-0.4,0-0.6c-0.1,0-0.1-0.1-0.1-0.1
							c-0.3-0.1-0.5,0.1-0.6,0.4C186.6,223.5,186.9,223.8,187.1,223.6z"/>
						<path class="st21" d="M189.7,245.1c0-0.3-0.1-0.4-0.4-0.6c-0.2-0.1-0.5,0.1-0.5,0.3l0,0v0c0,0.1,0,0.2,0.1,0.3
							c0,0,0,0.1,0.1,0.1c0.1,0.1,0.2,0.1,0.3,0.2C189.4,245.6,189.8,245.4,189.7,245.1z"/>
						<path class="st21" d="M186.9,228.8c0,0.2,0,0.3,0.1,0.5c0.1,0.2,0.5,0.2,0.7,0c0.1-0.2,0.1-0.4,0-0.5
							C187.6,228.3,187,228.4,186.9,228.8z"/>
						<path class="st21" d="M187.2,218.9c0.1,0,0.1,0,0.2-0.1c0.2-0.1,0.4-0.4,0.2-0.6c-0.1-0.1-0.2-0.2-0.3-0.3c0,0,0,0,0,0
							c0,0,0,0-0.1,0c-0.1,0-0.1,0-0.1,0C186.5,218,186.5,219,187.2,218.9z"/>
						<path class="st21" d="M187.5,214.2c-0.2,0-0.4,0-0.5,0.1c-0.2,0.1-0.2,0.5,0,0.6c0.2,0.1,0.3,0.1,0.5,0.1
							C187.9,214.9,188,214.2,187.5,214.2z"/>
						<path class="st21" d="M211.8,206.7c0.7,0,0.7-1.1,0-1.1C211.1,205.6,211.1,206.7,211.8,206.7z"/>
						<path class="st21" d="M212.4,248.6c0.5-0.5,0.6-0.9,0.2-1.1c0,0-0.1,0-0.1,0c-0.1,0-0.2,0-0.3,0c-0.1,0-0.1,0.1-0.2,0.1
							C211.7,247.9,211.9,248.6,212.4,248.6z"/>
						<path class="st21" d="M211.2,211.5c0,0.2,0.2,0.3,0.3,0.4h0c0.1,0.2,0.4,0.1,0.5-0.1c0,0.1,0,0,0.1-0.1
							c0.1-0.1,0.1-0.2,0.1-0.3c0-0.1,0-0.2-0.1-0.3c-0.3-0.5-1-0.2-0.9,0.3L211.2,211.5z"/>
						<path class="st21" d="M211,232.9c0,0.1,0.1,0.2,0.1,0.3c0.1,0.1,0.1,0.1,0.2,0.1c0,0,0,0,0,0c0.1,0.1,0.2,0.1,0.3,0.1
							c0.2-0.3,0.3-0.6,0.5-0.9c-0.1-0.2-0.4-0.3-0.7-0.2v0c0,0-0.1,0-0.1,0c0,0,0,0-0.1,0c0,0,0,0,0,0c0,0-0.1,0-0.1,0.1
							C211.1,232.6,211,232.7,211,232.9z"/>
						<path class="st21" d="M207,218.4c0.1,0,0.1,0,0.2-0.1c0.1-0.1,0.2-0.1,0.2-0.2c0.1-0.2-0.1-0.5-0.4-0.4c-0.1,0-0.1,0-0.2,0.1
							C206.5,217.9,206.7,218.4,207,218.4C207,218.4,206.9,218.4,207,218.4z"/>
						<path class="st21" d="M208.9,237c0-0.3-0.3-0.6-0.6-0.6s-0.6,0.3-0.6,0.6c0,0.3,0.3,0.6,0.6,0.6
							C208.6,237.7,208.9,237.4,208.9,237z"/>
						<path class="st21" d="M181,245.6c-0.2,0-0.3,0.2-0.3,0.4c0,0.2,0.2,0.3,0.3,0.4c0,0,0,0,0,0c0.1,0,0.2,0,0.2,0
							c0.4,0,0.4-0.7,0-0.7C181.2,245.5,181.1,245.5,181,245.6z"/>
						<path class="st21" d="M181.9,236.5L181.9,236.5c0.1-0.7-1.1-0.8-0.9,0c0,0,0,0,0,0.1C181.1,237.1,181.8,237,181.9,236.5z"/>
						<path class="st21" d="M211,242.5c0,0-0.1,0.1-0.1,0.1c-0.3,0.3,0.1,0.8,0.4,0.8c0.4,0,0.6-0.5,0.3-0.8c0,0-0.1-0.1-0.1-0.1
							C211.4,242.3,211.2,242.4,211,242.5z"/>
						<path class="st21" d="M212.7,220.4c-0.3,0-0.6,0.3-0.6,0.6c0,0.3,0.3,0.6,0.6,0.6c0.3,0,0.6-0.3,0.6-0.6
							C213.2,220.7,213,220.4,212.7,220.4z"/>
						<path class="st21" d="M182.1,208.2c0-0.4-0.3-0.7-0.6-0.7c-0.4,0-0.7,0.2-0.7,0.6c0,0.4,0.3,0.7,0.6,0.7
							C181.7,208.8,182.1,208.6,182.1,208.2z"/>
						<path class="st21" d="M209.4,213c-0.5,0-0.4,0.8,0.1,0.8C209.9,213.7,209.8,213,209.4,213z"/>
						<path class="st21" d="M211,225.6c-0.1-0.4-0.4-0.6-0.8-0.6c-0.4,0-0.6,0.3-0.7,0.7c0,0,0,0.1,0,0.1c-0.1,0.4,0.4,0.8,0.8,0.7
							C210.8,226.5,211.1,226.1,211,225.6C211,225.6,211,225.6,211,225.6z"/>
						<path class="st21" d="M200.2,238.1c0.6,0,0.7-0.9,0.1-0.9C199.7,237.2,199.6,238.1,200.2,238.1z"/>
						<path class="st21" d="M203.1,213.4c-0.5,0-0.4,0.8,0.1,0.8C203.6,214.2,203.6,213.4,203.1,213.4z"/>
						<path class="st21" d="M203.1,242.1c0.1,0,0.1,0.1,0.2,0.1c0.4,0.2,0.9-0.2,0.6-0.6c0-0.1-0.1-0.1-0.1-0.2
							C203.4,240.9,202.5,241.7,203.1,242.1z"/>
						<path class="st21" d="M202.6,219.9c0.7,0,0.7-1,0-1C202,218.9,202,219.9,202.6,219.9z"/>
						<path class="st21" d="M199.4,219.6c-0.2,0-0.4,0.2-0.4,0.5c0,0.2,0.2,0.4,0.5,0.4c0.2,0,0.4-0.2,0.4-0.5
							C199.9,219.7,199.6,219.6,199.4,219.6z"/>
						<path class="st21" d="M201.8,233.4c0,0.1,0,0.3,0.2,0.4c0.1,0,0.1,0,0.2,0.1c0.2,0.1,0.5-0.1,0.6-0.3c0,0,0,0,0-0.1
							c0.1-0.3-0.2-0.7-0.5-0.6C202,232.9,201.8,233.1,201.8,233.4z"/>
						<path class="st21" d="M204.2,206C204.2,206,204.2,206,204.2,206c-0.1-0.6-1-0.4-0.8,0.2c0,0.1,0.1,0.1,0.1,0.2
							C203.7,206.7,204.3,206.4,204.2,206z"/>
						<path class="st21" d="M204.8,230.3c0.1,0.1,0.2,0.1,0.3,0.1c0,0,0.1,0,0.1,0c0,0,0,0,0,0c0,0,0.1,0,0.1,0c0,0,0,0,0,0
							c0,0,0,0,0,0c0,0,0,0,0,0c0,0,0-0.1,0.1-0.1c0,0,0,0,0-0.1c0,0,0,0,0,0c0,0,0-0.1,0-0.1c0,0,0,0,0,0c0-0.1,0-0.2-0.1-0.2
							c0,0,0,0,0,0c0,0,0,0,0,0c-0.1-0.2-0.2-0.3-0.4-0.3C204.6,229.4,204.4,230.1,204.8,230.3z"/>
						<path class="st21" d="M215.9,218.2c-0.2-0.2-0.5-0.4-0.8-0.3c-0.2,0-0.3,0.1-0.4,0.2c0.1,0.4,0.3,0.8,0.4,1.2
							C215.8,219.6,216.4,218.8,215.9,218.2z"/>
						<path class="st21" d="M206.1,223.1c-0.2,0-0.5,0.1-0.5,0.4c0,0.2,0.2,0.5,0.4,0.5s0.5-0.1,0.5-0.4
							C206.5,223.4,206.4,223.1,206.1,223.1z"/>
						<path class="st21" d="M200.5,227.5c-0.1,0.2-0.1,0.4,0,0.6c0,0.1,0.1,0.2,0.2,0.1c0.2,0,0.3-0.1,0.4-0.3
							C201.5,227.4,200.6,226.9,200.5,227.5z"/>
						<path class="st21" d="M216.6,238.4c-0.1-0.1-0.3-0.1-0.4-0.1c-0.3,0-0.6,0.4-0.6,0.7c0,0.4,0.4,0.6,0.7,0.6
							c0.1,0,0.2,0,0.3-0.1V238.4z"/>
						<path class="st21" d="M205.3,245.8c-0.5,0-0.4,0.8,0.1,0.8C205.9,246.6,205.8,245.8,205.3,245.8z"/>
						<path class="st21" d="M205.2,209.7c0.1,0,0.2,0,0.4,0c0.2-0.1,0.2-0.4,0-0.5c-0.1,0-0.2-0.1-0.3,0
							C205,209.3,204.9,209.6,205.2,209.7z"/>
						<path class="st21" d="M191.7,240.6c0.7,0,0.7-1.1,0-1.1C190.9,239.5,190.9,240.6,191.7,240.6z"/>
						<path class="st21" d="M190.9,225c-0.3,0-0.5,0.2-0.5,0.4c0,0.2,0.2,0.5,0.4,0.5c0.3,0,0.5-0.2,0.5-0.4
							C191.4,225.3,191.2,225,190.9,225z"/>
						<path class="st21" d="M194.2,229.8C194.2,229.8,194.2,229.7,194.2,229.8c-0.1-0.4-0.5-0.4-0.7-0.1c0,0,0,0.1,0,0.1
							C193.4,230.3,194.5,230.3,194.2,229.8z"/>
						<path class="st21" d="M190.7,214.9c-0.5,0-0.4,0.7,0,0.7C191.3,215.7,191.2,214.9,190.7,214.9z"/>
						<path class="st21" d="M191.9,219.9c0.2,0.4,0.9,0.3,0.8-0.2c0-0.1,0-0.2-0.1-0.3c-0.2-0.3-0.7-0.2-0.7,0.2
							C191.9,219.8,191.9,219.8,191.9,219.9z"/>
						<path class="st21" d="M192.5,208.5c0.2-0.1,0.2-0.3,0.1-0.4c0-0.1,0-0.1,0-0.1c-0.1-0.2-0.5-0.2-0.6,0c0,0,0,0,0,0.1
							c-0.1,0.1,0,0.3,0.1,0.4C192.2,208.6,192.4,208.6,192.5,208.5z"/>
						<path class="st21" d="M192.2,250.9c0.6,0,0.4-0.9-0.1-0.9C191.5,250,191.6,250.9,192.2,250.9z"/>
						<path class="st21" d="M196.3,242.3c0.5,0,0.4-0.8-0.1-0.8C195.7,241.5,195.8,242.3,196.3,242.3z"/>
						<path class="st21" d="M195.3,225.5C195.3,225.5,195.3,225.6,195.3,225.5c0.2,0.5,0.9,0.4,0.8-0.1c0-0.2-0.1-0.4-0.3-0.5
							C195.4,224.6,195,225.2,195.3,225.5z"/>
						<path class="st21" d="M197.3,233.9c-0.6,0-0.4,0.9,0.1,0.9C198,234.8,197.9,233.9,197.3,233.9z"/>
						<path class="st21" d="M198.1,248.1c-0.3,0-0.4,0.5,0,0.5C198.4,248.6,198.5,248.1,198.1,248.1z"/>
						<path class="st21" d="M195.6,213.1c0,0.1,0,0.1,0,0.1c0.1,0.4,0.7,0.5,0.7,0.1c0-0.1,0-0.1,0-0.2
							C196.5,212.6,195.5,212.6,195.6,213.1z"/>
						<path class="st21" d="M196.2,206c-0.6,0-0.7,0.9-0.1,0.9C196.7,206.9,196.8,206,196.2,206z"/>
						<path class="st21" d="M200.8,208.8c-0.3-0.1-0.5,0.1-0.6,0.3c0,0.3,0.3,0.5,0.5,0.4c0.1-0.1,0.2-0.1,0.3-0.2
							c0.1-0.1,0.1-0.3,0-0.3C201,208.9,200.9,208.8,200.8,208.8z"/>
					</g>
					<g class="st23">
						<path class="st20" d="M184.2,214.7c-0.6,0.6-0.8,2,0.1,2.4c0.1,0.1,0.2,0,0.3-0.1c0-0.4-0.1-0.7-0.2-1c0-0.4,0.1-0.7,0.2-1
							C184.6,214.8,184.3,214.6,184.2,214.7z"/>
						<path class="st20" d="M184.2,232.4c-0.1,0.2,0.2,0.4,0.3,0.2c0.5-0.7,1.3-0.1,1.9,0.2c0.1,0.1,0.3-0.1,0.2-0.2
							c-0.1-0.5-0.7-0.8-1.1-0.9C184.9,231.6,184.4,231.9,184.2,232.4z"/>
						<path class="st20" d="M190.5,242.2c-0.5-0.7-2-0.8-2.5-0.1c-0.1,0.1,0.1,0.2,0.1,0.1c0.7-0.4,1.4-0.2,2,0.3
							C190.4,242.7,190.7,242.4,190.5,242.2z"/>
						<path class="st20" d="M190,229.5c0.5,0.7,0.1,1.3-0.4,1.8c-0.2,0.2,0,0.5,0.2,0.4c0.9-0.5,1.1-1.7,0.5-2.4
							C190.2,229.2,189.9,229.4,190,229.5z"/>
						<path class="st20" d="M185.3,250.3c0.3-0.4,0.7-0.6,1.2-0.7c0.5-0.1,0.9,0,1.4,0.1c0.1,0,0.3-0.1,0.2-0.3
							c-0.2-0.5-0.9-0.6-1.4-0.5c-0.7,0.1-1.2,0.6-1.6,1.2C184.9,250.2,185.1,250.4,185.3,250.3z"/>
						<path class="st20" d="M185.5,223.8c0,0.4-0.1,0.8-0.2,1.1c-0.2,0.4-0.5,0.7-0.8,0.9c-0.1,0.1-0.1,0.2,0.1,0.3
							c1.2,0.2,1.4-1.4,1.3-2.2C185.8,223.7,185.5,223.6,185.5,223.8z"/>
						<path class="st20" d="M185.7,210.4c0.2,0.7,0.4,1.4-0.1,2.1c-0.1,0.1,0.1,0.3,0.2,0.2c1.1-0.4,0.7-1.7,0.3-2.5
							C186.1,210,185.6,210.1,185.7,210.4z"/>
						<path class="st20" d="M190.4,237.3c-0.2,0.1-0.1,0.5,0.1,0.4c0.6-0.2,1.1-0.6,1.3-1.2c0.2-0.4,0.4-1.2-0.2-1.4
							c-0.1,0-0.2,0-0.3,0.1c-0.1,0.3,0.1,0.7-0.1,1C191.3,236.7,190.9,237.1,190.4,237.3z"/>
						<path class="st20" d="M185,237.9c-0.3,0.1-0.6,0.2-0.7,0.5c-0.1,0.2-0.1,0.6,0.2,0.7c0.1,0,0.2,0,0.2-0.1
							c0.1-0.2-0.1-0.3,0.2-0.4c0.2-0.1,0.4-0.1,0.7-0.2c0.4,0,0.8-0.1,1.1-0.1c0.2,0,0.2-0.3,0.1-0.4
							C186.3,237.6,185.6,237.7,185,237.9z"/>
						<path class="st20" d="M181.9,234.2c-0.2,0-0.2,0.3,0,0.3c0.4,0.1,0.8,0.3,1.1,0.7c0.3,0.4,0.4,0.7,0.4,1.2
							c0,0.1,0.2,0.2,0.3,0.1c0.4-0.5,0.1-1.1-0.2-1.5C183.1,234.5,182.5,234.2,181.9,234.2z"/>
						<path class="st20" d="M186.9,220.2c-0.1-0.1-0.2,0.1-0.1,0.2c0.8,0.7,2.4,0.1,2.8-0.8c0.1-0.2-0.3-0.4-0.4-0.2
							C188.8,220.1,187.7,220.7,186.9,220.2z"/>
						<path class="st20" d="M189.6,224.1c-0.1-0.1-0.2,0-0.2,0c-0.2,0.2-0.2,0.5-0.4,0.8c-0.2,0.3-0.5,0.5-0.9,0.7
							c-0.1,0.1-0.1,0.3,0.1,0.3c0.4-0.1,0.9-0.2,1.2-0.5C189.7,225,190,224.5,189.6,224.1z"/>
						<path class="st20" d="M188.9,212.7c-0.1,0-0.1,0.3,0,0.3c0.3,0,0.5,0.1,0.7,0.3c0.2,0.1,0.3,0.3,0.5,0.5
							c0.2,0.1,0.4,0,0.4-0.2C190.5,212.8,189.5,212.6,188.9,212.7z"/>
						<path class="st20" d="M183.7,244.9c-0.4,0.5,0,1.3,0.5,1.6c0.4,0.4,1.5,0.7,1.9,0.1c0.1-0.1,0-0.4-0.1-0.3
							c-0.5,0-1,0.2-1.4-0.2c-0.4-0.3-0.5-0.7-0.6-1.1C183.9,244.8,183.8,244.8,183.7,244.9z"/>
						<path class="st20" d="M197,222.8c-0.2,0-0.2,0.3,0,0.3c0.3,0,0.7,0.2,0.9,0.4c0.2,0.2,0.2,0.5,0.2,0.8c0,0.2,0.3,0.3,0.4,0.1
							c0.3-0.4,0.1-1-0.3-1.3C197.9,222.9,197.4,222.8,197,222.8z"/>
						<path class="st20" d="M195.8,246.6c-0.2,0-0.4-0.2-0.6-0.3c-0.4-0.3-0.8-0.7-0.9-1.2c0-0.2-0.3-0.1-0.3,0.1
							c0.1,0.6,0.5,1.3,1,1.7c0.4,0.3,1.4,0.8,1.6,0c0-0.1-0.1-0.2-0.2-0.2C196.2,246.5,196,246.6,195.8,246.6z"/>
						<path class="st20" d="M193.1,222.8c0.1,0.3,0.6,0.3,0.6-0.1c-0.1-1.2-1.6-0.4-2,0.1c-0.1,0.1,0.1,0.4,0.2,0.2
							c0.2-0.2,0.4-0.3,0.7-0.4C192.8,222.6,193.1,222.5,193.1,222.8z"/>
						<path class="st20" d="M196.6,211.3c-0.2,0-0.1,0.3,0.1,0.3c0.4,0,0.6,0.2,0.7,0.6c0.1,0.3,0.5,0.2,0.4-0.1
							C197.6,211.5,197.1,211.2,196.6,211.3z"/>
						<path class="st20" d="M183.1,221c0.2-0.1,0.1-0.4-0.1-0.4c-0.6,0.1-1.7,0.1-1.7-0.7c0-0.1-0.2-0.1-0.2,0
							C180.8,221,182.4,221.3,183.1,221z"/>
						<path class="st20" d="M182.7,242c-0.3-0.8-1.2-1.3-2-0.8c-0.1,0.1,0,0.3,0.1,0.2c0.4-0.1,0.7-0.1,1,0.2
							c0.2,0.2,0.4,0.5,0.6,0.7C182.5,242.4,182.7,242.2,182.7,242z"/>
						<path class="st20" d="M180.7,227.9c-0.1,0.2,0.2,0.3,0.3,0.1c0.3-0.7,1.5,0.2,2.1,0.2c0.2,0,0.3-0.2,0.2-0.3
							C182.8,227.2,181,226.9,180.7,227.9z"/>
						<path class="st20" d="M195.1,227.3c-0.4-0.1-0.8-0.2-1.1-0.5c-0.2-0.3-0.3-0.8-0.7-0.9c-0.1,0-0.2,0.1-0.1,0.1
							c0.1,0.5,0.3,0.9,0.6,1.2c0.3,0.3,0.7,0.4,1.2,0.4C195.4,227.7,195.4,227.3,195.1,227.3z"/>
						<path class="st20" d="M191.6,217.9c0.3-0.1,0.5-0.3,0.8-0.3c0.4-0.1,0.6,0,0.8,0.3c0.1,0.1,0.3,0,0.3-0.1
							c0.1-0.5-0.4-0.8-0.9-0.7c-0.5,0-0.9,0.3-1.3,0.6C191.2,217.7,191.4,218,191.6,217.9z"/>
						<path class="st20" d="M193.9,211.9c-0.4,0-0.7,0.1-1,0.1c-0.4,0-0.7-0.1-1-0.3c-0.1-0.1-0.2,0.1-0.1,0.2
							c0.3,0.3,0.7,0.5,1,0.6c0.4,0.1,1,0.1,1.2-0.2C194.2,212,194.1,211.9,193.9,211.9z"/>
						<path class="st20" d="M191.4,246.9c-0.5,0.1-0.8,0.6-1,1c-0.1,0.2,0.2,0.4,0.3,0.2c0.2-0.3,0.5-0.6,0.9-0.6
							c0.4,0,0.7,0.1,1,0.1c0.2,0,0.3-0.3,0.2-0.4C192.5,246.9,191.9,246.8,191.4,246.9z"/>
						<path class="st20" d="M193.1,206.1c-0.4-0.2-0.8-0.1-1.2,0.1c-0.1,0.1,0,0.2,0.1,0.2c0.4-0.1,0.7,0,1,0.2
							c0.3,0.2,0.4,0.6,0.6,0.8c0.1,0.1,0.3,0,0.3-0.2C193.9,206.8,193.5,206.3,193.1,206.1z"/>
						<path class="st20" d="M193.6,233.8c0.1-0.2,0.3-0.4,0.6-0.4c0.2-0.1,0.5,0,0.7-0.1c0.2,0,0.2-0.2,0.1-0.4
							c-0.5-0.6-1.6,0.1-1.8,0.6C193,233.8,193.5,234,193.6,233.8z"/>
						<path class="st20" d="M193.9,242.3c1.2,0,1.1-1.7,1.1-2.5c0-0.2-0.4-0.2-0.4,0c0,0.4,0,0.8-0.1,1.1c-0.1,0.5-0.3,0.8-0.7,1.1
							C193.7,242.1,193.7,242.3,193.9,242.3z"/>
						<path class="st20" d="M183.7,206.2c-0.2,0.2,0.2,0.5,0.4,0.3c0.2-0.3,0.5-0.5,0.9-0.7c0.3-0.1,0.6,0,0.9,0.1
							c0.2,0.1,0.4-0.1,0.3-0.3C185.6,204.4,184.1,205.5,183.7,206.2z"/>
						<path class="st20" d="M205.9,242.1c0-0.3-0.5-0.2-0.5,0.1c0.1,0.9-0.7,1.4-1.4,1.8c-0.1,0.1,0,0.3,0.1,0.2
							C205.2,243.9,205.9,243.3,205.9,242.1z"/>
						<path class="st20" d="M205,232.7c0.2,0.6,0.4,1,0.2,1.6c-0.1,0.5-0.4,0.9-0.7,1.2c-0.2,0.2,0.1,0.4,0.3,0.2
							c0.9-0.8,1.4-2.2,0.6-3.3C205.3,232.3,205,232.5,205,232.7z"/>
						<path class="st20" d="M203.4,228.5c-0.4,0.5-0.6,1.2-0.3,1.8c0.1,0.1,0.2,0,0.2-0.1c-0.1-0.5,0.1-1.1,0.5-1.5
							c0.4-0.4,0.8-0.4,1.3-0.5c0.2,0,0.1-0.2,0-0.3C204.6,227.6,203.8,228.1,203.4,228.5z"/>
						<path class="st20" d="M202.2,211.3c-0.2,0-0.2,0.3,0,0.3c0.6,0,1.2,0.2,1.4,0.8c0,0.1,0.3,0.2,0.3,0
							C204.2,211.5,202.8,211.2,202.2,211.3z"/>
						<path class="st20" d="M203.7,222.1c0.1-0.1,0-0.2-0.1-0.2c-0.6,0.2-1,1-1.1,1.6c-0.1,0.5-0.1,1.5,0.7,1.3
							c0.1,0,0.1-0.2,0.1-0.3c-0.4-0.3-0.4-0.7-0.2-1.1C203.1,222.9,203.3,222.3,203.7,222.1z"/>
						<path class="st20" d="M201.7,250.2c0,0.1,0.2,0.2,0.3,0.1c0.3-0.9,1.5-0.7,2.3-0.8c0.2,0,0.2-0.2,0.1-0.3
							C203.5,248.9,201.8,249.1,201.7,250.2z"/>
						<path class="st20" d="M202.5,239.5c0.5-0.6,1.2-0.9,1.9-0.5c0.2,0.1,0.4-0.2,0.1-0.3c-0.9-0.3-1.7,0-2.2,0.7
							C202.3,239.5,202.4,239.6,202.5,239.5z"/>
						<path class="st20" d="M214.5,243.4c-0.1-0.1-0.2-0.2-0.3-0.1c-0.2,0.2-0.3,0.5-0.5,0.7c-0.2,0.2-0.4,0.3-0.7,0.4
							c-0.3,0.1-0.2,0.5,0.1,0.5c0.4,0,0.9-0.2,1.2-0.5C214.5,244.2,214.7,243.8,214.5,243.4z"/>
						<path class="st20" d="M206.5,205.7c0.1,0.7-0.6,1.1-1,1.5c-0.2,0.2,0.1,0.4,0.3,0.3c0.6-0.4,1.2-1.1,1-1.9
							C206.8,205.5,206.5,205.5,206.5,205.7z"/>
						<path class="st20" d="M201.4,205.9c-0.1,0-0.2,0.2-0.1,0.3c0.1,0.1,0.3,0.2,0.3,0.4c0.1,0.2,0,0.4-0.1,0.6
							c-0.2,0.2,0.1,0.5,0.3,0.3c0.3-0.3,0.4-0.6,0.2-1C202,206.2,201.7,205.9,201.4,205.9z"/>
						<path class="st20" d="M212.5,216.9c0.2,0.2,0.5-0.2,0.2-0.3c-0.4-0.2-0.8-1-0.5-1.4c0.1-0.1-0.1-0.1-0.1-0.1
							C211.6,215.6,212,216.5,212.5,216.9z"/>
						<path class="st20" d="M207,251.8c0-0.2,0.1-0.5,0.2-0.6c0.1-0.2,0.3-0.2,0.5-0.3c0.1-0.1,0.1-0.2,0-0.3c-0.3-0.4-0.8,0-1,0.3
							c-0.2,0.3-0.3,0.7-0.2,1C206.8,252,207,252,207,251.8z"/>
						<path class="st20" d="M199.2,245.8c-0.1,0.2,0.2,0.4,0.3,0.2c0.7-0.8,1.9,0.2,2.5,0.8c0.2,0.2,0.6-0.1,0.4-0.4
							C201.8,245.6,199.7,244.5,199.2,245.8z"/>
						<path class="st20" d="M201.2,215.3c0.4,0.8,1.4,1.1,2.2,0.8c0.2-0.1,0.1-0.4-0.1-0.4c-0.6,0-1.4,0-1.8-0.5
							C201.4,215,201.1,215.2,201.2,215.3z"/>
						<path class="st20" d="M214.8,227.4c-0.2,0.6-0.9,0.7-1.5,0.7c-0.2,0-0.2,0.3,0,0.4c0.8,0.1,1.7-0.1,2-0.9
							C215.5,227.2,215,227.1,214.8,227.4z"/>
						<path class="st20" d="M210.1,223.7c-0.1,0.1,0,0.2,0.1,0.2c0.7-0.5,1.5-0.2,2.1,0.4c0.1,0.2,0.4,0,0.4-0.2
							C212.2,223.1,210.8,223,210.1,223.7z"/>
						<path class="st20" d="M206.5,220.5c0.6-0.1,0.9,0.4,1.1,0.9c0.1,0.2,0.4,0.1,0.3-0.1c-0.1-0.8-0.8-1.4-1.5-1
							C206.3,220.3,206.4,220.5,206.5,220.5z"/>
						<path class="st20" d="M207,210c0-0.1-0.1-0.1-0.1,0c0,0.6,0.6,1.3,1.2,1.1c0.1,0,0.1-0.2,0-0.3
							C207.6,210.7,207.1,210.6,207,210z"/>
						<path class="st20" d="M207.1,215.4c0,0.2,0.3,0.2,0.4,0.1c0.5-0.8-0.7-1.2-1.3-1.2c-0.2,0-0.2,0.3,0,0.3
							c0.2,0,0.5,0.1,0.6,0.2C207.1,215.1,207.1,215.2,207.1,215.4z"/>
						<path class="st20" d="M212.4,235.6c-0.2,0.3,0.2,0.6,0.5,0.3c0.4-0.6,1.1-0.5,1.7-0.3c0.2,0.1,0.3-0.1,0.3-0.2
							c-0.1-0.5-0.7-0.7-1.2-0.6C213.1,234.8,212.6,235.1,212.4,235.6z"/>
						<path class="st20" d="M212.9,209.5c0.3,0.1,0.4,0.2,0.5,0.5c0.1,0.2,0.4,0.2,0.4-0.1c0.1-0.9-1-1-1.7-0.9
							c-0.2,0-0.2,0.3,0,0.3C212.4,209.4,212.6,209.5,212.9,209.5z"/>
						<path class="st20" d="M209.7,220.2c0.6-0.8,0.5-1.7,0.2-2.6c0-0.1-0.2-0.1-0.2,0c0.1,0.9,0.1,1.5-0.4,2.3
							C209.1,220.1,209.5,220.4,209.7,220.2z"/>
						<path class="st20" d="M209.7,246c0.2,0,0.2-0.2,0.1-0.3c-0.5-0.4-0.9-0.8-1.2-1.4c-0.1-0.3-0.5-0.1-0.4,0.2
							C208.4,245.1,208.8,246.1,209.7,246z"/>
						<path class="st20" d="M211.2,250.9c0.2,0,0.1-0.3,0-0.3c-0.5-0.1-1.1-0.2-1.4-0.6c-0.3-0.4-0.3-0.9-0.5-1.3
							c0-0.1-0.2-0.1-0.2,0c-0.2,0.5,0,1.3,0.4,1.7C209.9,250.9,210.6,251.1,211.2,250.9z"/>
						<path class="st20" d="M208.1,207.7c-0.1,0-0.1,0.3,0,0.2c0.4,0,0.7-0.1,1.1-0.1c0.4,0,0.6,0.1,0.9,0.4c0.1,0.1,0.3,0,0.3-0.1
							C210.4,207.2,208.7,207.6,208.1,207.7z"/>
						<path class="st20" d="M209.2,234.8c0.2,0,0.3-0.3,0.1-0.4c-0.3-0.2-0.6-0.3-0.8-0.6c-0.2-0.3-0.2-0.6-0.4-0.9
							c-0.1-0.2-0.5-0.1-0.4,0.1C207.9,233.8,208.2,235.1,209.2,234.8z"/>
						<path class="st20" d="M210.3,239.4c-0.2,0.4-0.4,0.7-0.7,1c-0.3,0.2-0.6,0.4-0.9,0.5c-0.2,0.1-0.2,0.3,0,0.4
							c1.1,0.5,1.8-0.8,2.1-1.7C210.8,239.3,210.5,239.1,210.3,239.4z"/>
						<path class="st20" d="M208.6,228.9c-0.2-0.2-0.2-0.4-0.3-0.7c0-0.1-0.2-0.1-0.2-0.1c-0.4,0.5,0.1,1.2,0.6,1.4
							c0.6,0.2,1.2,0.3,1.8,0.1c0.2-0.1,0.3-0.5,0-0.5c-0.4,0-0.8,0-1.3-0.1C209,229,208.8,229,208.6,228.9z"/>
					</g>
					<path class="st24" d="M215.6,204.2h-1.4c-0.1,6.2-0.6,33.8-1.5,38.9c-1.1,5.7-6.5,6.5-9.1,5.4c-2.4-1.1-3.1-38.7-3.2-44.3h-4.9
						c-0.2,5.4-1.4,41-1.6,43.2c-0.2,2.4-6,3.3-8.8,0.1c-2.4-2.9-2.7-36.4-2.8-43.3h-2.3c-0.2,0.2-0.5,0.4-0.7,0.6v37.8
						c0,5.5,4.5,10,10,10h17.5c5.5,0,10-4.5,10-10v-37.4C216.3,204.9,215.9,204.5,215.6,204.2z"/>
				</g>
				<g>
					<g>
						<path class="st25" d="M179.1,265L179.1,265c-1.7,0-3.1-1.4-3.1-3.1l0.5-59c0-1.4,1.2-2.5,2.6-2.5l0,0c1.4,0,2.5,1.1,2.6,2.5
							l0.5,59C182.2,263.6,180.8,265,179.1,265z"/>
						<path class="st26" d="M181.7,203c0-1.2-1.5,56.1-1.5,56.1c0,1.7-1.4,3.1-3.1,3.1c-0.4,0-0.7-0.1-1-0.2c0,1.7,1.4,3,3.1,3l0,0
							c1.7,0,3.1-1.4,3.1-3.1L181.7,203z"/>
						<g class="st19">
							<path class="st20" d="M176.4,219.7v0.3c0.3,0.7,0.2,1.7,0,2.7l0,2.9c0.3-1.6,0.9-3.2,0.5-4.9
								C176.7,220.3,176.6,219.9,176.4,219.7z"/>
							<path class="st20" d="M181.7,206.7v-0.5c-2,0.8-2,4.4,0.1,5.3v-0.7C180.6,209.6,180.4,207.8,181.7,206.7z"/>
							<path class="st20" d="M179.3,236.7c1.4-2.5,1.2-5.1,0.3-7.7c-0.7-1.8-1-3-0.4-5c0.2-0.8,0.7-1.4,0.8-2.2c0.2-1,0.1-2-0.2-2.9
								c-0.4-1.3-2-2.4-3.4-3.6v0.5c1.3,1.1,2.6,2.1,3,4c0.4,2.2-1.1,3.6-1.3,5.6c-0.2,1.7,0.7,3.1,1.2,4.6c0.8,2.7,0.4,5.4-1.4,7.6
								c-0.5,0.6-1.1,1.2-1.7,1.7l0,1.1C177.4,239.2,178.6,238.1,179.3,236.7z"/>
							<path class="st20" d="M177.7,200.9c1.1,0.5,1.9,1.4,2.1,2.7c0.1,1.2-0.7,2.1-1.1,3.1c-0.4,0.9-1,1.7-0.9,2.7
								c0.1,0.9,0.6,1.7,1.2,2.3c1.1,1.3,2.3,2.5,2.9,4l0-1.5c-0.1-0.1-0.1-0.2-0.2-0.3c-1.2-1.8-3.9-3.1-3.2-5.8
								c0.4-1.4,1.6-2.3,1.7-3.8c0.2-1.7-0.9-2.9-2.3-3.5C177.8,200.8,177.7,200.9,177.7,200.9z"/>
							<path class="st20" d="M176.5,228.5c-0.1-0.2-0.1-0.3-0.1-0.5l0,2c0,0.1,0.1,0.2,0.1,0.2c0.5,1.6,0.5,3-0.1,4.2l0,1.6
								c0.3-0.3,0.6-0.8,0.8-1.3C178.1,232.6,177.1,230.6,176.5,228.5z"/>
							<path class="st20" d="M181.8,223.1l0-2.3c-0.3,1-0.7,1.9-1.1,2.9c-0.3,1-0.4,1.8,0,2.7c0.2,0.5,0.7,1,1.1,1.5l0-1.2
								C181.2,225.6,181.4,224.4,181.8,223.1z"/>
							<path class="st20" d="M177.7,264.6c0-1.7,0.4-3.4,1.5-5.1c0.9-1.3,1.4-2.3,1.2-3.9c-0.2-1.6-0.7-3.2-1.8-4.5
								c-0.7-0.8-1.6-1.5-2.4-2.3l0,0.8c1.4,1.5,2.9,2.6,3.4,5c0.5,2.1-0.3,3.4-1.4,5.1c-0.5,0.7-0.9,1.4-1.1,2.3
								c-0.2,0.7-0.3,1.3-0.3,2C177,264.2,177.3,264.5,177.7,264.6z"/>
							<path class="st20" d="M176.1,258.6l0,1.4c1-1.2,1.8-2.6,2-3.9c0.2-1.7-0.7-2.7-1.9-3.5v0.6c1.1,1.1,1.7,2.4,0.7,4.2
								C176.6,257.9,176.4,258.2,176.1,258.6z"/>
							<path class="st20" d="M177.8,245.6c0.4,2.6,2.1,3.4,3.6,5.2c0.3,0.4,0.5,0.8,0.7,1.2l0-1.3c-0.4-0.5-0.9-1-1.5-1.5
								c-4.2-4-1.8-7.7,1.4-10.8v-0.7C179.4,239.7,177.2,242.3,177.8,245.6z"/>
							<path class="st20" d="M182.1,247.8v-0.7c-1-0.5-1.5-1.3-1.5-2.5c-0.1-1.3,0.4-2.3,1.5-2.9v-0.4
								C179.3,241.5,179.1,247.3,182.1,247.8z"/>
						</g>
						<path class="st27" d="M179,202c-2.4,0.3-2.4,57.3-1.5,57.3C178.5,259.2,181.4,201.7,179,202z"/>
					</g>
					<g>
						<path class="st25" d="M216.7,265L216.7,265c1.7,0,3.1-1.4,3.1-3.1l-0.5-59c0-1.4-1.2-2.5-2.6-2.5l0,0c-1.4,0-2.5,1.1-2.6,2.5
							l-0.5,59C213.6,263.6,215,265,216.7,265z"/>
						<path class="st26" d="M218.7,262.6c-1.7,0-3.1-1.4-3.1-3.1c0,0-1.5-57.7-1.5-56.5l-0.5,59c0,1.7,1.4,3.1,3.1,3.1
							c1.5,0,2.8-1.1,3-2.6C219.4,262.5,219.1,262.6,218.7,262.6z"/>
						<g class="st19">
							<path class="st20" d="M214.3,202.2c0.5,0.3,0.9,0.7,1.3,1.1c1.4,1.7,0.8,3.1,0.5,4.9c-0.2,1.2-0.3,2.4,0.2,3.6
								c0.5,1.3,1.7,2.5,3.1,3l0-0.8c-1.5-0.6-2.5-2-2.7-3.7c-0.1-1,0.1-1.8,0.2-2.8c0.1-1,0.4-2.1,0-3.1c-0.4-1.1-1.3-2-2.3-2.6
								C214.4,201.9,214.4,202,214.3,202.2z"/>
							<path class="st20" d="M218,256c-2.7-1.9-4.6-3.5-1.7-7.1c1-1.2,2.1-1.8,3.3-2.2v-0.6c-2.8,0.5-5.3,2.8-5.5,5.9
								c-0.2,1.9,1,3,2.5,3.9c1.1,0.8,2.2,1.4,3,2.6c0.1,0.1,0.1,0.2,0.2,0.2l0-1.2C219.2,256.9,218.6,256.4,218,256z"/>
							<path class="st20" d="M214.6,209.4c-0.2,0.6-0.4,1.1-0.5,1.6l0,1.4c0.1,0.2,0.1,0.4,0.2,0.7c1.3,2.8,3.5,4.7,1.7,8.1
								c-0.5,1-1.2,1.8-2,2.5l0,1.2c1-0.8,1.8-1.8,2.4-2.7c1.7-2.7,1.1-4.9-0.2-7.6c-0.8-1.6-1.4-3.2-1-5c0.1-0.5,0.4-1,0.5-1.5
								c0.2-1,0.2-2-0.3-2.9c-0.3-0.5-0.7-0.9-1.1-1.1v0.5C215.2,205.6,215.4,207.4,214.6,209.4z"/>
							<path class="st20" d="M218.8,252.6c-0.9-1.3-0.4-3.1,0.9-4v-0.4c-1.5,0.6-2.3,2.4-1.7,4c0.3,0.8,1,1.5,1.8,1.9l0-0.8
								C219.3,253.2,219,253,218.8,252.6z"/>
							<path class="st20" d="M219.5,235.9l0-1.1c-0.9-0.7-1.4-1.7-1.4-3.1c0-1.2,0.4-2.4,1.4-3.2v-0.4
								C216.8,229.6,216.9,234.7,219.5,235.9z"/>
							<path class="st20" d="M214,220.8l0,1.3c0.3-0.4,0.6-0.9,0.7-1.4c0.4-1.5,0.1-3-0.7-4.2l0,1c0.3,1,0.4,2,0.1,3
								C214.1,220.6,214,220.7,214,220.8z"/>
							<path class="st20" d="M214,245.2c-0.1,0.1-0.2,0.2-0.2,0.3l0,1.5c0.4-0.9,0.9-1.7,1.7-2.4c1.2-1.1,2.7-1.4,4.2-1.3v-0.4
								C217.5,242.6,215.5,243.3,214,245.2z"/>
							<path class="st20" d="M219.4,263.3c-0.3-0.7-0.5-1.5-0.8-2.1c-0.6-1.1-1.6-2.1-2.8-2.6c-0.8-0.3-1.4-0.3-2.1-0.1l0,1
								c0.4-0.1,0.9-0.1,1.6,0.1c2.1,0.6,2.5,1.8,3.3,3.6c0.1,0.3,0.2,0.5,0.4,0.8C219.1,263.8,219.3,263.6,219.4,263.3z"/>
							<path class="st20" d="M217.8,236.5c-1.2-2.2-2.7-4.8-1-7.4c0.7-1,1.6-2.1,2.7-3l0-0.8c-1.3,0.9-2.4,2.1-3.2,3.2
								c-1.6,2.1-1,4.2,0,6.4c0.7,1.6,1.5,3.9,3.4,4.5l0-1.2C218.9,238,218.3,237.4,217.8,236.5z"/>
							<path class="st20" d="M219.1,204.9c0,1.5-1.3,3.5-0.7,4.9c0.1,0.4,0.5,0.7,0.9,0.9l-0.1-7.7c0-1.3-1-2.3-2.2-2.5
								C218.4,201.5,219.1,203,219.1,204.9z"/>
							<path class="st20" d="M214.9,226.6c-0.3,0.3-0.6,0.6-0.9,0.9l0,1.5c1.2-1.7,3.4-3.2,4.8-4.9c0.3-0.4,0.5-0.7,0.8-1.1l0-1.5
								C218.4,223.4,216.8,224.9,214.9,226.6z"/>
							<path class="st20" d="M214.1,234.4c-0.1-0.1-0.1-0.2-0.2-0.3l0,1.5c0.1,0.1,0.2,0.3,0.3,0.4c1.6,2.2,1.3,4-0.4,6l0,1.4
								c1-1.1,2-2.1,2.4-3.6C216.7,237.6,215.2,236.1,214.1,234.4z"/>
						</g>
						<path class="st27" d="M216.7,202c-2.2,0.2-1,57.6,1,58C219.8,260.3,219.1,201.7,216.7,202z"/>
					</g>
					<g>
						<path class="st25" d="M201,261.9l-0.5-59c0-1.4-1.2-2.5-2.6-2.5l0,0c-1.4,0-2.5,1.1-2.6,2.5l-0.5,59c0,1.7,1.4,3.1,3.1,3.1
							l0,0C199.6,265,201,263.6,201,261.9z"/>
						<path class="st26" d="M200.4,256.2c0,1.7-1.1,3.1-2.5,3.1c-1.4,0-2.5-1.4-2.5-3.1l-0.5-8.5l-0.1,14.2c0,1.7,1.4,3.1,3.1,3.1
							c1.7,0,3.1-1.4,3.1-3.1l-0.1-14.2L200.4,256.2z"/>
						<g class="st19">
							<path class="st20" d="M198,212.8c0.6,1,1.6,1.7,2.3,2.6c0.1,0.1,0.2,0.3,0.3,0.4l0-1.4c-0.7-0.6-1.4-1.2-1.9-2
								c-1.7-2.8,0.8-5,1.8-7.5l0-1.8c0-0.4-0.1-0.7-0.2-1c0.1,0.7,0,1.3-0.2,2.1c-0.5,2-2.4,3.3-2.8,5.3
								C197,210.5,197.3,211.8,198,212.8z"/>
							<path class="st20" d="M194.9,253.4v0.6c1.9,1.4,3.2,3.9,3.4,5.9c0.2,1.8-0.2,3.5-0.9,5c0.2,0,0.3,0,0.5,0
								c0.2,0,0.4,0,0.5-0.1c0.7-2,0.9-4.2,0.6-5.8C198.6,257.2,197,254.6,194.9,253.4z"/>
							<path class="st20" d="M196.3,261.3c-0.1-1.3-0.7-2.3-1.4-3.4l0,0.8c0.2,0.4,0.4,0.7,0.5,1.1c0.4,1.3,0.3,2.5,0,3.7
								c0.2,0.3,0.4,0.5,0.6,0.7C196.3,263.3,196.4,262.2,196.3,261.3z"/>
							<path class="st20" d="M196.2,206.6c-0.3,0.4-0.6,0.8-0.9,1.2l0,1.1c0.2-0.2,0.3-0.3,0.4-0.5c0.9-1.1,1.6-2.3,1.9-3.7
								c0.3-1.7-0.2-2.9-1.2-3.7c-0.1,0.1-0.3,0.2-0.4,0.4C197.3,202.6,197.4,204.6,196.2,206.6z"/>
							<path class="st20" d="M200.5,208.1V208c-2.4,0.1-2.3,3.7-0.4,4.6c0.2,0.1,0.5-0.3,0.3-0.4c-0.7-0.6-1.1-1.1-1.2-2
								C199,209.1,199.5,208.3,200.5,208.1z"/>
							<path class="st20" d="M195.7,226.8c-0.2,0.1-0.4,0.3-0.5,0.4l0,1c0,0,0,0,0,0c1.3-1.1,3-2.1,3.7-3.7c1.7-3.5-0.4-7.2-2.9-9.6
								c-0.2-0.2-0.5-0.5-0.8-0.8l0,1.3C198.5,218.9,200.3,223,195.7,226.8z"/>
							<path class="st20" d="M195.9,232.4c-0.3,3.7,3.1,4.5,4.9,7.1l0-1c-1.1-1.1-2.7-2-3.6-3.5c-2-3.4,1-6.2,3.4-9v-0.5
								C198.6,227.5,196.2,229.4,195.9,232.4z"/>
							<path class="st20" d="M199.7,251c0.2,0.5,0.7,0.9,1.2,1.2l0-0.8c-0.1-0.1-0.2-0.2-0.3-0.4c-0.4-0.7-0.2-1.1,0.3-1.5l0-0.9
								C199.9,249,199.3,249.9,199.7,251z"/>
							<path class="st20" d="M197.2,247.3c1-1,2.1-2.1,2.3-3.5c0.2-1.6-0.6-3.2-1.5-4.4c-0.8-1-1.9-1.6-2.9-2.3v0.6
								c0.5,0.4,1,0.7,1.5,1.2c2.1,2,2.9,4.9,0.8,7.2c-0.6,0.7-1.5,1.4-2.4,2.2l0,1.4C195.6,248.8,196.3,248.1,197.2,247.3z"/>
							<path class="st20" d="M196.1,242.8c-0.1-1-0.5-1.7-1-2.4l0,0.8c0.4,0.7,0.5,1.5,0.3,2.4c-0.1,0.4-0.2,0.7-0.4,0.9l0,1.4
								C195.7,245,196.1,243.9,196.1,242.8z"/>
							<path class="st20" d="M198.5,231.8c-0.3,1.7,0.8,3.3,2.3,4.1l0-0.8c-0.8-0.5-1.5-1.2-1.7-2.3c-0.3-1.4,0.5-3.1,1.7-4.1v-0.4
								C199.5,229.1,198.6,230.5,198.5,231.8z"/>
							<path class="st20" d="M200.9,253.9c-1.3-1-2.8-2-2.5-3.9c0.3-1.7,1.5-3.1,2.4-4.5l0-1.3c-1.1,2-3.1,3.9-3.2,6.2
								c-0.1,2.1,1.8,3.2,3.3,4.6L200.9,253.9z"/>
						</g>
						<path class="st27" d="M197.6,202c-2,0.2-2.5,54.4-0.2,54.8C199.7,257.1,199.6,201.7,197.6,202z"/>
					</g>
				</g>
			</g>
		</g>
		<g>
			<g>
				<g>
					<path class="st28" d="M259.1,156.4c-3.4,19.1-0.6,43.5-4.7,57.5c-2.6,9,2.4,11.3,2.4,11.3H273l4.9-67L259.1,156.4z"/>
					<g>
						<path class="st29" d="M270.8,263.8c0-4.7-1.9-5-1.9-8.3c0-3.5,4.1-30.3,4.1-30.3h-16.2l2.1,27.2c0.3,3.4-0.6,4.5-2.7,5.2
							c-3,1-4.7,1.5-5.8,4.1c-0.3,0.7-0.2,2.2-0.2,2.2C253.8,263.9,270.8,263.8,270.8,263.8z"/>
						<path class="st11" d="M250.1,263.8h20.7c0,0,0,1.3,0,1.2c0-0.1-20.7,0-20.7,0L250.1,263.8L250.1,263.8z"/>
					</g>
				</g>
				<g>
					<path class="st30" d="M292.6,170.3c1.9,16.6,3.3,54.9,3.3,54.9h-15.4c0,0-7.3-3.7-6.5-13.7c0.9-10-5.2-39.3-5.2-39.3
						s-3.2-3.3-4.6-11.7c-1.4-8.5,18.5-6.9,18.5-6.9S290.4,151,292.6,170.3z"/>
					<g>
						<path class="st29" d="M300,263.8c0-4.7-1.9-5-1.9-8.3c0-3.5-2.2-30.3-2.2-30.3h-15.4l7.6,27.2c0.6,2.2-0.6,4.5-2.7,5.2
							c-3,1-3.5,0.5-5.2,2.7c-0.9,1.1-0.8,3.6-0.8,3.6C283,263.9,300,263.8,300,263.8z"/>
						<path class="st11" d="M279.4,263.8H300c0,0,0,1.3,0,1.2c0-0.1-20.6,0-20.6,0V263.8z"/>
					</g>
				</g>
			</g>
			<g>
				<path class="st7" d="M248.3,133.6c-2.6,1.1-14.7,20.8-19.6,22c0,0,0.3,2.3,4.5,2.3c4.2,0,20-18.9,20-18.9L248.3,133.6z"/>
				<path class="st31" d="M224.5,157.7c0,0,5.9-3.6,10.8-4.2s7.6,0.3,3.6,1.7C234.8,156.6,225.9,157.8,224.5,157.7z"/>
				<polygon class="st32" points="253.1,119.8 249.5,130 256.6,133.6 262.8,125.8 				"/>
				<path class="st32" d="M252.8,140.8l-7.2-6.1c-0.2-0.2-0.3-0.6-0.2-0.9l2.5-5.1c0.2-0.4,0.7-0.5,1.1-0.3l9.4,6.2
					c0.4,0.2,0.4,0.8,0.1,1.1l-4.7,5C253.6,141,253.1,141.1,252.8,140.8z"/>
			</g>
			<g>
				<path class="st33" d="M280.1,140.9c2.3-8.3,2.1-21-1-29.4C276,103.1,265.8,99,265.8,99l-10.3,10.7c-8.7,20.6-4,20-1.3,24.2
					c2.6,4.2,2.4,19.7,2.2,21.5c-0.2,1.8,2.6,3.9,2.4,4.8c-0.3,1-3.6,2.4-1.9,4.5c1.7,2,2.7,0.6,5.8,2c3.6,2.8,8.7-1.2,14.1-1.1
					c5.4,0.1,16.2-0.3,16.3-2.4C293.2,152.4,277.8,149.1,280.1,140.9z"/>
				<path class="st32" d="M262.3,114.4c0,0-3.1,6.3-4.9,10.3c-0.9,1.9-3.4,7.5-5.6,6.1c0.8,1.1,1.7,1.9,2.5,3.1
					c2.6,4.2,2.4,19.7,2.2,21.5c-0.2,1.8,2.6,3.9,2.4,4.8c-0.3,1-3.6,2.4-1.9,4.5c0.7,0.8,1.2,1.1,1.8,1.2l0,0
					c-2.9-1.5,2.4-1.5,2.5-4.9c0.1-3.4,11.3-30.4,12.1-33.5C276.7,114.4,263.3,118.5,262.3,114.4z"/>
			</g>
			<path class="st32" d="M255.6,113c-0.3-1.3,0-2.1-0.5-3.1c-0.5-1,2.7-7.2,7.7-11.9l0.7,0.7C263.5,98.8,255.7,112.2,255.6,113z"/>
			<path class="st6" d="M260.8,95.9c1.2,1.4,2.6,2.8,2.6,2.8s-2.5,5.5-4.8,8.6l-9.4-8.9c0,0,5.1-6.7,5-6.6
				C254,91.9,260.8,95.9,260.8,95.9z"/>
			<path class="st7" d="M263.5,98.8c0,0-1.4-1.5-2.6-2.8c0,0-6.8-4.1-6.6-4.1c0.2,0-5,6.6-5,6.6l7,6.7c0-2.2,1.1-4.8,2.2-5
				c1.2-0.2,1.3,3.5,0.2,7.3C261,104.3,263.5,98.8,263.5,98.8z"/>
			<path class="st11" d="M242.2,95.9c-1.1,0-4.2-0.8-1.3-2.8c0,0,1.3-4.5,3.4-6.8c3.5-4,7.2-3.9,10.7-2.2c6.7,3.2,5,6.3,5.8,11.8
				c0,0-3.6-2.5-5-1.5c-1.4,0.9-2.9,5.1-6.2,4.3C246.3,97.8,242.2,95.9,242.2,95.9z"/>
			<path class="st6" d="M241.9,95.2c2.2,6.2,9.6,12.2,11.9,9c2.2-3.2,1.2-5.8,1.7-6c0.5-0.2,2,0.7,1.9-1.9c-0.1-2.5-1.1-3.6-2.1-3
				c-1,0.6-1.2,4.2-4.5,3.3C247.6,95.8,244.1,92.9,241.9,95.2z"/>
			<g>
				<path class="st32" d="M266.6,99c-0.6-0.6-3.2-1.5-3.8-1l0.7,0.7l-4.3,7.1c-0.9,1.7-3.2,5.4-3.6,7.1c0.1-0.2,0.3-0.5,0.7-0.8
					c0.8-0.5,2.3-3.9,3.1-2.7l0,0c1,1.6,2.4,3.5,2.8,2.8C262.8,111.2,267.6,100,266.6,99z"/>
			</g>
			<g>
				<path class="st33" d="M261,117.1c0.7-1.9,2.1-4.3,3.9-5.1c3-1.4,6.8-1.4,9,1.9c1.7,2.5,1.7,5.7-0.2,9.2
					c-3.4,6.5-14.3,15.9-14.3,15.9l-6.2-3.9c0,0,4-8.4,6-13.4C260,119.7,260.6,118.2,261,117.1z"/>
				<path class="st32" d="M256.2,128.8l8.3,5.5c0,0,1.2-1.1,2.9-2.9c0,0-1.1,0.6-3.9,0C260.9,130.9,256.2,128.8,256.2,128.8z"/>
				<g>
					<path class="st6" d="M260.6,137.8c-2.3,3.2-13.4,15-25.5,21.5c0,0-1.3,2.2-4.4,3.1c-3.1,1-2.7,1-2.7,1s-0.3,0.7-0.7,1
						c-0.4,0.3-0.7-1-0.7-1.5c0,0-1-0.7-0.9-1c0.2-0.3,0.5-0.6,0.5-0.6s-0.6-0.8-0.3-1.3c0,0-0.4-0.9-0.3-1.2c0.1-0.3,2-1.7,2.3-1.8
						c0.2-0.1,3.7-0.4,4.4-0.7c0.7-0.4,8.6-7.8,12.6-12.9c4-5.1,6-7.2,9.5-9.3L260.6,137.8z"/>
					<path class="st7" d="M250.9,147.8c4.9-4.4,8.4-8.4,9.7-10l-6.3-3.8c-0.5,0.3-1.1,0.7-1.6,1c0,0,2.3,3.1,1.8,6.1
						C254,144,251,147.7,250.9,147.8z"/>
				</g>
				<path class="st33" d="M259.5,140.9l-7.2-6.1c-0.2-0.2-0.3-0.6-0.2-0.9l2.5-5.1c0.2-0.4,0.7-0.5,1.1-0.3l9.4,6.2
					c0.4,0.2,0.4,0.8,0.1,1.1l-4.7,5C260.2,141.1,259.8,141.1,259.5,140.9z"/>
			</g>
			<path class="st11" d="M260.4,96.1c-4.5-2.2-1.9-7.3,1.7-6.3c2.6,0.7,2.5,3.5,4,3.5c2.5,0,0.7-6.4,4.7-6.4c2.3,0,4.1,4,3.7,6.4
				c2-4.1,7.6-5.5,7.8,0.3c0.1,2.7-2.8,3.7-2.7,5.9c0.1,2.5,7.2,0.1,7.2,4.7c0,3.2-5.2,7-8.9,7c-7.2,0-1.3-11.2-3.6-9.7
				c-2,1.3-0.3,5.3-5.2,6.7c-3.3,1-6.1-2.1-4.2-5C259.1,103.3,259.1,97.6,260.4,96.1z"/>
			<g>
				<path class="st4" d="M230.5,93.6c-1.1-1.1,9.4-2.5,20-2c0,0-4.6,1.1-11,1.9C233,94.3,231.7,94.4,230.5,93.6z"/>
				<path class="st13" d="M240.3,93.1c0,0,0.3-8.8,0.2-9.9c-0.1-1.1,5.5-3.8,6.4-3.9c0.8-0.1,6.9-0.5,9.7-0.4c0.8,0,1.4,0.6,1.7,1.3
					l2.9,8.6L240.3,93.1z"/>
				<path class="st12" d="M230.5,93.6c0.3,0.4,1.2,0.7,2.1,0.8c2.6,0.4,6.6-0.2,10.1-0.7c4.6-0.6,25.7-3.5,25.8-8.7
					c0,0-2.9-1.2-12.5,1.9c-9.5,3.1-10.4,5.8-16.7,5.9C232.9,92.8,232.7,94.8,230.5,93.6z"/>
			</g>
		</g>
		<g>
			<g>
				<path class="st25" d="M112.6,236.8c0,0-2.6-9.6-1.7-10.6c1-1.1,4.5-2.5,4.5-2.5s-5.9-0.9-7.3-2.2c-1.4-1.3-2.4-4.9-2.4-4.9h2.5
					c0,0,1.1,2.1,2.3,3.2c1.2,1.1,4.9,1.9,4.9,1.9v-3.8l-4.9-4.3l3.6-0.6l4.1,4.8l1,2.4l5.2-2.7l1.7,1.4l-7.3,3.7l-0.5,2.4l-4.3,2.5
					l4.9,10.3L112.6,236.8z"/>
				<g>
					<path class="st16" d="M91.5,214.3c0,0-7.3,4.9-5.6-0.8c0,0-21.3-9.7-6.7-18.3c0,0-2.5-3.7,2.4-3.8c0,0-2.5-18.9,21.8-7.6
						c0,0,3.5-3.8,7.2-0.8c0,0,12.4-20.7,25.8,1.7c0,0,8.3-2.4,9.7,7.8c0,0,13,4.8,8.1,9.7c0,0,12.7,11.3-5.7,15.1
						c0,0-0.5,4.5-6.8,3.8c0,0-4.9,5.9-18.6-0.8c0,0-4.6-1.1-3.7-5.6c0,0-3.8,2.2-8.9,0.3c0,0-4.3,3-11.1,3.8
						C92.5,219.7,89.6,217.7,91.5,214.3z"/>
					<path class="st34" d="M145.4,214.2c-4.4,5.2-10.5,1.1-10.5,1.1c-15.7,0.8-15.3-7.8-15.3-7.8c-11,7.2-17.3,1.7-17.3,1.7
						c-11.6,9.1-20.4-3.2-20.4-3.2c-4.3,0.4-6.5-2.9-7.6-5.6c-2.1,6.9,11.6,13.1,11.6,13.1c-1.7,5.7,5.6,0.8,5.6,0.8
						c-1.9,3.3,1,5.4,7.8,4.6c6.8-0.8,11.1-3.8,11.1-3.8c5.1,1.9,8.9-0.3,8.9-0.3c-1,4.5,3.7,5.6,3.7,5.6
						c13.7,6.7,18.6,0.8,18.6,0.8c6.4,0.6,6.8-3.8,6.8-3.8c11.2-2.3,10.9-7.4,8.9-11C155.8,213.1,145.4,214.2,145.4,214.2z"/>
					<path class="st35" d="M86.8,188c-0.8-0.3-1.3-1.1-1.4-1.9c0-0.4-0.1-1.8,0.6-1.8c0.3,0,0.2,0.9,0.2,1c0.1,0.8,0.4,1.3,1,1.7
						C87.6,187.5,87.4,188.2,86.8,188z M92.1,185.9c-0.4-0.7-1.1-1.3-2-1.4c-0.3,0-0.5,0.4-0.2,0.5c0.5,0.4,1,0.8,1.2,1.5
						c0.2,0.6,0.2,1.2,0.4,1.8c0.1,0.3,0.6,0.3,0.8,0C92.8,187.6,92.5,186.6,92.1,185.9z M91.9,191.8c-0.6-0.1-0.9-0.1-1.3-0.5
						c-0.3-0.4-0.5-0.9-0.5-1.4c0-0.3-0.5-0.3-0.6,0c-0.1,0.8,0,1.6,0.5,2.2c0.5,0.6,1.4,1,2,0.4C92.3,192.2,92.2,191.9,91.9,191.8z
						 M87.1,193.3c-0.7-0.6-1.5-0.6-2.3-0.2c-0.6,0.3-1.5,1.1-0.9,1.7c0.1,0.1,0.2,0.1,0.2,0c0.3-0.3,0.5-0.7,0.9-0.9
						c0.5-0.3,1.2-0.3,1.7-0.1C87,194.1,87.4,193.6,87.1,193.3z M82.9,197.3c-1.5,0-3.3,0.7-3,2.6c0.1,0.4,0.6,0.3,0.6-0.1
						c0-1.3,1.4-1.6,2.4-1.5C83.5,198.3,83.5,197.3,82.9,197.3z M87.2,198.7c-0.1-0.4-0.7-0.4-0.7,0.1c0.1,0.6,0.1,1.2,0,1.8
						c-0.1,0.7-0.4,1.2-0.7,1.8c-0.1,0.3,0.2,0.6,0.5,0.5C87.7,202.1,87.4,200,87.2,198.7z M81.9,206c-1.5-0.7-3.3-1.7-2.8-3.6
						c0.1-0.3-0.5-0.5-0.6-0.2c-0.8,2.1,1.1,4.5,3.3,4.4C82.2,206.6,82.2,206.1,81.9,206z M85,204.9c-0.4-0.1-0.5,0.5-0.2,0.6
						c1.3,0.4,2.2,1.4,2.8,2.6c0.2,0.3,0.7,0.3,0.7-0.1C88.3,206.2,86.5,205.2,85,204.9z M90,198.3c-0.4-0.2-0.7,0.4-0.4,0.7
						c0.5,0.4,1,0.8,1.4,1.4c0.3,0.6,0.4,1.2,0.7,1.8c0.1,0.3,0.6,0.3,0.7,0C93,200.6,91.1,198.9,90,198.3z M96.9,194.7
						c-1.2,1.3-3.1,1.5-4.4,0.1c-0.2-0.2-0.5,0-0.4,0.2c0.4,2.1,5.6,2.5,5.6,0C97.6,194.7,97.2,194.4,96.9,194.7z M98.2,189
						c-0.8,0-1.6,0.2-2.3,0.7c-0.2,0.2-0.1,0.5,0.2,0.5c0.6-0.1,1.2-0.2,1.8-0.2c0.6,0,0.9,0.2,1.3,0.7c0.2,0.3,0.6,0.1,0.7-0.2
						C100,189.5,99,189,98.2,189z M99.8,185c-0.9-0.1-1.9,0-2.8-0.2c-1.1-0.2-1.5-0.9-2.1-1.6c-0.1-0.1-0.3,0-0.3,0.1
						c-0.4,2.6,3.7,2.9,5.4,2.4C100.3,185.6,100.1,185.1,99.8,185z M105.9,189.5c-0.5-0.8-0.4-1.9-0.7-2.8c-0.1-0.3-0.3-0.7-0.6-0.6
						c-0.1,0-0.3,0.1-0.2,0.3c0,0-0.1,0.4-0.1,0.5c0,0.1,0,0.3,0,0.4c0.1,0.4,0.1,0.7,0.1,1.1c0.1,0.6,0.3,1.2,0.7,1.7
						C105.5,190.5,106.2,190,105.9,189.5z M111.4,189.1c-0.3-1.6-1.3-3.7-3.2-4c-0.4-0.1-0.6,0.6-0.2,0.7c1.6,0.4,1.9,2.3,2.4,3.6
						C110.6,189.9,111.5,189.7,111.4,189.1z M118.9,180.4c-0.8-0.7-2.1,0.9-2.5,1.5c-0.6,0.9-1.1,2.2-0.6,3.2
						c0.2,0.4,0.8,0.2,0.8-0.2c-0.2-0.9,0.1-1.8,0.6-2.6c0.2-0.4,0.5-0.7,0.8-1c0.3-0.2,0.7-0.2,0.9-0.5
						C119,180.7,119,180.5,118.9,180.4z M123.5,178.2c-0.2-0.2-0.5,0-0.4,0.2c0.7,1.4,0.9,3.7-0.2,4.9c-0.3,0.3,0,0.9,0.4,0.7
						C125.3,182.9,124.5,179.6,123.5,178.2z M121.2,188.8c-0.5-0.5-1.2-0.5-1.5-1.1c-0.4-0.8-0.1-1.2,0.1-2c0-0.1-0.1-0.2-0.2-0.2
						c-1,0.3-1,1.7-0.6,2.5c0.3,0.8,1.3,1.8,2.2,1.4C121.3,189.3,121.4,189,121.2,188.8z M115.1,188.7c-0.4,0-0.5,0.5-0.2,0.6
						c0.5,0.2,1,0.5,1.3,1c0.4,0.5,0.4,1.1,0.4,1.7c0,0.4,0.6,0.7,0.9,0.3C118.5,190.7,116.7,188.9,115.1,188.7z M113.9,194.4
						c-0.6-0.1-1.2,0.1-1.8-0.2c-0.6-0.3-0.9-0.8-1.1-1.4c-0.1-0.3-0.6-0.2-0.6,0.1c-0.1,1,0.4,1.8,1.2,2.3c0.7,0.4,1.9,0.7,2.6,0
						C114.4,194.9,114.3,194.5,113.9,194.4z M106.4,193.6c-0.6-0.5-1.5-0.2-1.9,0.4c-0.4,0.5-0.4,1.3-0.1,1.9
						c0.2,0.3,0.7,0.2,0.6-0.2c-0.1-0.4,0-0.8,0.3-1.1c0.3-0.3,0.5-0.3,1-0.2C106.5,194.4,106.6,193.8,106.4,193.6z M101.1,195.5
						c-0.2-0.2-0.4,0.1-0.3,0.3c0.3,0.6,0.4,1.4,0.4,2c0,0.7-0.3,1.1-0.5,1.7c-0.1,0.3,0.1,0.6,0.4,0.5
						C102.8,199.6,102,196.4,101.1,195.5z M103.6,192.4c-0.2-0.6-0.7-0.9-1.3-0.9c-0.6,0-1.1,0.4-1.5,0.8c-0.3,0.3,0.2,0.7,0.5,0.5
						c0.6-0.4,1.2-0.5,1.7,0C103.3,193.1,103.7,192.8,103.6,192.4z M87.1,211c-1.5,0-3.1-1-3.4-2.6c-0.1-0.4-0.7-0.4-0.7,0
						c-0.1,2.1,2.1,3.6,4.1,3.5C87.7,211.8,87.6,211,87.1,211z M93.7,209.6c-0.1-0.5-0.8-0.4-0.9,0.1c-0.1,0.8-0.2,1.3-0.7,1.9
						c-0.5,0.5-1,0.9-1.6,1.3c-0.3,0.2,0,0.6,0.3,0.4C92.1,212.5,93.9,211.4,93.7,209.6z M92,206.3c-0.4,0.4,0.1,1,0.5,0.6
						c0.5-0.4,1.2-0.4,1.8-0.2c0.4,0.2,0.8,1.1,1.2,0.6c0.1-0.1,0.2-0.3,0.1-0.4C95.2,205.4,93,205.3,92,206.3z M101.8,205.1
						c-0.8,0-1.8,0.1-2.5-0.6c-0.6-0.5-0.9-1.4-1.2-2.1c-0.1-0.3-0.7-0.2-0.6,0.1c0.2,1,0.5,2.1,1.3,2.8c0.9,0.8,2,0.9,3.1,0.5
						C102.3,205.7,102.2,205.1,101.8,205.1z M107.9,190.3c-0.1-0.1-0.3,0-0.3,0.1c0.1,0.4,0.2,0.7,0.2,1.1c0.1,0.4,0,0.7,0,1.1
						c0,0.3,0.4,0.4,0.6,0.2C109.2,192.2,108.5,190.9,107.9,190.3z M110.4,199c-0.7,0-1.2,0-1.8-0.5c-0.5-0.5-0.7-1.1-1.1-1.6
						c-0.1-0.1-0.3,0-0.3,0.1c-0.2,1.6,1.9,4,3.4,2.4C110.7,199.3,110.6,199,110.4,199z M105.3,201c-0.2-0.3-0.6,0-0.5,0.3
						c0.2,0.6,0.5,1.3,0.5,2c0,0.5-0.3,1-0.4,1.5c0,0.2,0.1,0.4,0.4,0.3C107.1,204.5,106,201.9,105.3,201z M107,206.7
						c-1.2,0.8-2.7,1.3-4.1,0.9c-0.3-0.1-0.4,0.4-0.2,0.5c1.3,0.8,4.4,0.7,4.8-1.1C107.6,206.7,107.2,206.6,107,206.7z M113.2,202.9
						c-0.5,0.4-1.1,0.7-1.7,0.7c-0.7,0-1.2-0.3-1.8-0.7c-0.1-0.1-0.3,0.1-0.2,0.2c0.5,1.9,3.3,1.6,4.3,0.3
						C114,203.1,113.6,202.6,113.2,202.9z M114.9,198.3c-0.3,0-0.3,0.4,0,0.5c0.5,0.1,1,0.3,1.5,0.6c0.5,0.4,0.7,0.7,0.8,1.2
						c0.1,0.3,0.5,0.4,0.6,0.1C118.2,199.3,116,198.4,114.9,198.3z M122,196.5c-1,1-3,0-3.5-1.1c-0.1-0.3-0.5-0.2-0.5,0.2
						c0.3,1,1.2,1.7,2.1,2.1c0.9,0.4,2.2,0.3,2.3-0.9C122.4,196.4,122.1,196.3,122,196.5z M124,188.4c-0.2-0.2-0.5-0.1-0.6,0.1
						c-0.1,0.7,0,1.5-0.2,2.2c-0.2,0.7-0.9,1-1.3,1.6c-0.1,0.2-0.1,0.5,0.2,0.5C124.1,193,125.3,189.9,124,188.4z M127,183.5
						c-0.8,0.1-1.6,0.5-2.1,1.2c-0.2,0.2,0.1,0.6,0.3,0.4c0.5-0.4,1-0.5,1.6-0.6c0.3,0,0.6-0.1,0.8,0.1c0.2,0.2,0.3,0.4,0.6,0.5
						c0.2,0.1,0.4-0.1,0.5-0.2C129.2,183.9,127.7,183.5,127,183.5z M130,180.4c-0.7-0.1-1.2-0.3-1.6-0.9c-0.4-0.5-0.5-1.2-0.5-1.8
						c0-0.2-0.2-0.2-0.3-0.1c-0.4,0.8-0.4,1.7,0.1,2.5c0.5,0.8,1.3,1.3,2.2,1.3C130.4,181.4,130.6,180.5,130,180.4z M132.7,184.1
						c-0.1-0.1-0.3-0.1-0.3,0.1c0,0.8,0.1,1.7-0.2,2.4c-0.3,1-0.9,1.2-1.7,1.7c-0.2,0.1-0.1,0.4,0,0.5c1.1,0.4,2.2-0.4,2.6-1.5
						C133.5,186.2,133.3,185,132.7,184.1z M137.9,187.1c-2.1-0.5-2.5,2.8-1.2,3.8c0.3,0.2,0.6,0,0.7-0.3c0,0.1,0,0,0-0.1
						c0,0,0-0.1,0-0.1c0,0,0,0,0,0c0,0,0,0,0-0.1c0,0,0,0,0-0.1l0,0l0,0c0-0.1-0.1-0.2-0.2-0.4c-0.1-0.3-0.3-0.6-0.3-0.9
						c0-0.8,0.5-1.3,1-1.7C138.1,187.3,138,187.2,137.9,187.1z M142.5,187.4c-0.1-0.1-0.3,0-0.3,0.2c-0.1,0.5,0.1,1.1-0.2,1.6
						c-0.3,0.4-1,0.5-1.4,0.7c-0.2,0.1-0.3,0.4-0.1,0.6c0.8,0.6,2,0.2,2.5-0.7C143.3,189,143.2,187.8,142.5,187.4z M145.8,193.8
						c-1.1-0.2-2.2-0.5-3.3-0.1c-1.1,0.4-1.8,1.6-1.4,2.7c0.1,0.3,0.5,0.3,0.7,0.1c0.4-0.9,0.3-1.6,1.4-1.8c0.8-0.2,1.7-0.1,2.5-0.3
						C146.1,194.3,146.1,193.9,145.8,193.8z M147.5,195.7c-0.2,0.8-0.7,1.7-1.6,1.8c-0.2,0-0.4,0.3-0.2,0.5c0.6,0.8,1.4,0.3,1.9-0.3
						c0.4-0.5,0.6-1.2,0.6-1.8C148.2,195.3,147.6,195.2,147.5,195.7z M150.7,198.4c-1.2-0.2-2.3,0.7-2.8,1.8c-0.5,1-0.7,2.6,0.7,2.9
						c0.2,0.1,0.4-0.2,0.4-0.4c-0.2-0.7-0.3-1.3,0-1.9c0.3-0.6,0.9-1.5,1.7-1.5C151.2,199.2,151.2,198.5,150.7,198.4z M152.7,203.8
						c-0.1-0.5-0.8-0.4-0.8,0.1c0.1,0.8,0.3,1.6,0.2,2.4c-0.1,1-0.7,1.2-1.6,1.6c-0.2,0.1-0.3,0.5,0,0.5c1.2,0.4,2.3-0.2,2.6-1.4
						C153.4,206,152.9,204.8,152.7,203.8z M154.9,209.9c-1,1.1-3,2.4-4.5,1.7c-0.3-0.1-0.5,0.2-0.4,0.4c1.4,2.5,4.6-0.3,5.4-1.8
						C155.6,209.9,155.1,209.7,154.9,209.9z M147.8,214c-0.4-0.8-1.1-1.1-1.2-2c-0.1-0.8,0.4-1.6,1-2.1c0.3-0.3,0-0.9-0.4-0.7
						c-1.1,0.6-1.7,1.6-1.7,2.8c0.1,1.1,0.8,2.6,2,2.5C147.7,214.5,147.9,214.2,147.8,214z M144.7,217.3c0-0.1-0.1-0.2-0.2-0.2
						c-0.4,0-0.5,0.2-0.9,0.3c-0.2,0-0.4,0-0.6-0.1c-0.5-0.2-0.9-0.8-1-1.3c0-0.3-0.5-0.4-0.6-0.1c-0.3,1,0.2,2,1.2,2.5
						c0.5,0.2,1.1,0.3,1.5,0C144.5,218.2,144.9,217.8,144.7,217.3z M141.2,211.9c-0.7-0.2-1.7-0.2-2.2,0.4c-0.1,0.1,0,0.4,0.2,0.4
						c0.6,0,1.1-0.2,1.6,0c0.6,0.2,0.8,0.7,0.9,1.2c0.1,0.6,1,0.4,0.9-0.2C142.5,212.8,142,212.2,141.2,211.9z M144.3,205.9
						c-0.6-0.1-1-0.1-1.4-0.6c-0.4-0.5-0.5-1.1-0.5-1.7c0-0.1-0.1-0.1-0.1,0c-0.3,0.7-0.3,1.7,0.1,2.4c0.4,0.8,1.5,1.2,2.1,0.4
						C144.6,206.2,144.5,205.9,144.3,205.9z M147.3,205.1c-0.3-0.2-0.7-0.2-1-0.2c-0.2,0-0.2,0.3,0,0.4c0.3,0.1,0.7,0.3,0.9,0.6
						c0.1,0.2,0.1,0.5,0.3,0.6c0.2,0.1,0.5,0.1,0.6-0.2C148.3,205.8,147.7,205.3,147.3,205.1z M142.9,201.3
						c-0.5-2.5-4.1-1.6-5.4-0.4c-0.2,0.2,0.1,0.5,0.3,0.4c1-0.5,3.7-1.3,4.2,0.2C142.1,202.3,143,202,142.9,201.3z M136.8,194.8
						c-0.8-0.4-1.6-0.3-2.3,0.1c-0.2,0.1-0.1,0.3,0.1,0.3c0.5-0.1,1.2,0,1.7,0.3c0.3,0.2,0.4,0.4,0.6,0.7c0.1,0.3,0.1,0.6,0.4,0.7
						c0.1,0.1,0.2,0,0.3,0C138.3,196.2,137.3,195.1,136.8,194.8z M129.1,192.4c-0.6-0.6-1.4-0.4-1.6-1.4c-0.2-0.8,0.1-1.7,0.6-2.3
						c0.2-0.2-0.1-0.5-0.4-0.3c-0.9,0.8-1.3,2-1,3.1c0.2,0.9,1.4,2,2.3,1.4C129.1,192.7,129.2,192.5,129.1,192.4z M130.7,194.8
						c-0.2,0.7-0.6,1.4-1,2c-0.2,0.3-0.4,0.5-0.7,0.6c-0.3,0.1-0.7,0.1-1.1,0.1c-0.2,0-0.4,0.3-0.2,0.5c0.7,0.9,1.9,0.4,2.6-0.4
						c0.7-0.8,0.9-1.8,0.9-2.8C131.2,194.6,130.8,194.6,130.7,194.8z M124.9,196.3c-0.8,0.5-1.5,1.7-1.7,2.6
						c-0.1,0.9,0.2,2.3,1.3,2.3c0.2,0,0.4-0.1,0.4-0.4c-0.1-0.8-0.8-1.2-0.8-2.1c0.1-0.9,0.7-1.5,1-2.3
						C125.2,196.3,125,196.2,124.9,196.3z M118.5,203.1c-0.9,0.6-1.4,1.7-1,2.7c0.1,0.3,0.6,0.2,0.5-0.1c-0.1-0.7,0.3-1.4,0.9-1.8
						c0.6-0.4,1.1-0.2,1.7,0c0.2,0.1,0.4-0.1,0.4-0.3C120.8,202.5,119.4,202.5,118.5,203.1z M113.3,206.1c-1.1,0.2-2.1,0.9-2.5,1.9
						c-0.4,0.9-0.3,2.2,0.6,2.8c0.2,0.2,0.7-0.1,0.5-0.4c-0.4-0.8-0.6-1.4-0.2-2.2c0.4-0.7,1-1.2,1.8-1.4
						C113.8,206.6,113.6,206,113.3,206.1z M107,209.7c-2,0.3-3.5,2-2.9,4c0.1,0.5,0.9,0.4,0.8-0.1c-0.5-1.7,0.6-3.1,2.2-3.6
						C107.3,209.9,107.3,209.6,107,209.7z M100.1,213.5C100.1,213.5,100.1,213.5,100.1,213.5c0-0.1,0-0.1-0.1-0.2
						c-0.1-0.1-0.2-0.2-0.3-0.3c-0.3-0.2-0.6-0.5-0.8-0.8c-0.4-0.8-0.4-1.5,0.2-2.2c0.1-0.1-0.1-0.4-0.2-0.3c-1.5,1.1-1,3.5,0.6,4.3
						C99.9,214.1,100.2,213.7,100.1,213.5z M97,215.5c-1-0.2-2,0.2-2.7,1c-0.2,0.2,0.1,0.4,0.3,0.3c0.6-0.4,1.4-0.6,2.1-0.5
						c0.3,0,0.7,0.1,0.9,0.3c0.3,0.2,0.5,0.5,0.9,0.6c0.1,0,0.2-0.1,0.3-0.2C99,216.2,97.7,215.6,97,215.5z M108,213.3
						c-0.1-0.1-0.2-0.1-0.3,0c-0.4,0.2-0.4,0.6-0.5,0.9c-0.2,0.5-0.4,0.8-0.8,1.1c-0.7,0.5-1.8,0.7-2.7,0.7c-0.3,0-0.3,0.5,0,0.5
						c1.1,0.2,2.3,0.1,3.3-0.6C107.7,215.6,108.9,214,108,213.3z M117.9,211.5c-0.9,1.4-2.8,2.1-4.2,0.9c-0.3-0.3-0.7,0.2-0.4,0.5
						c1.4,1.3,5.2,1.1,5.1-1.4C118.3,211.3,118,211.3,117.9,211.5z M116,208.8c-0.1,0.2,0.1,0.4,0.3,0.3c0.8-0.4,1.5-0.9,2.5-0.9
						c1,0.1,1.3,0.9,1.6,1.7c0.1,0.2,0.5,0.3,0.5,0C121.9,206.9,117.2,206.6,116,208.8z M125,203.6c-0.1-0.2-0.4-0.1-0.4,0.2
						c0.1,0.5,0.1,1,0,1.4c-0.2,0.5-0.6,0.7-1.1,0.6c-0.2,0-0.3,0.4,0,0.4c0.7,0.2,1.4,0,1.8-0.7C125.7,204.9,125.5,204.2,125,203.6
						z M129.5,205.1c-0.8-0.3-1.4-0.6-1.8-1.4c-0.3-0.7-0.1-1.5-0.4-2.3c-0.1-0.2-0.4-0.3-0.5,0c-0.3,0.8-0.1,2.2,0.3,3
						c0.4,0.9,1.4,1.4,2.3,1.2C129.6,205.6,129.7,205.2,129.5,205.1z M134.5,203.7c-0.6-1.2-1.7-1.9-2.5-3c-0.2-0.3-0.7,0-0.5,0.3
						c0.5,0.7,1.1,1.3,1.6,2c0.3,0.4,0.6,0.9,0.7,1.3c0.1,0.6-0.4,0.8-0.9,1.1c-0.3,0.2-0.1,0.7,0.3,0.6
						C134.5,205.9,135.1,204.8,134.5,203.7z M137.4,204.8c-0.7,0.5-1.4,1.1-1.6,2c-0.1,0.8,0.2,1.7,1.1,1.8c0.2,0,0.4-0.2,0.4-0.4
						c-0.1-0.5-0.5-0.9-0.4-1.4c0.1-0.6,0.6-1.2,1-1.6C138.2,205,137.7,204.6,137.4,204.8z M130.1,208.6c-0.1-0.5-0.9-0.4-0.9,0.1
						c0,0.5,0,1.1-0.5,1.5s-1,0.5-1.5,0.6c-0.6,0.1-0.5,1.1,0.2,1c0.8-0.1,1.7-0.3,2.3-1C130.1,210.2,130.2,209.4,130.1,208.6z
						 M125,213.3c-1.7-0.3-2.1-2-1.2-3.3c0.1-0.2-0.2-0.4-0.3-0.2c-1.3,1.5-0.9,4.3,1.5,4.3C125.4,214,125.5,213.4,125,213.3z
						 M129.9,213.9c-0.1-0.2-0.3-0.3-0.4-0.1c-0.7,0.6-0.9,1.6-1.5,2.3c-0.3,0.4-0.8,0.8-1.2,1.1c-0.7,0.4-1.2,0-1.7-0.5
						c-0.1-0.1-0.3,0-0.3,0.2c0.5,1.3,1.8,1.5,3,0.7C128.6,216.9,130.4,215.1,129.9,213.9z M135,214.7c-0.8-0.4-1.5-0.7-1.9-1.5
						c-0.5-0.9-0.2-1.5,0.4-2.3c0.2-0.2-0.1-0.6-0.3-0.5c-2.4,1.1-0.6,5.3,1.8,4.8C135.2,215.2,135.3,214.9,135,214.7z M137.5,216.3
						c-0.1-0.5-0.9-0.4-0.8,0.1c0.1,0.8,0,1.5-0.7,2c-0.5,0.4-1.2,0.6-1.8,0.9c-0.2,0.1-0.1,0.4,0.1,0.5c1,0.4,2.1-0.1,2.7-0.9
						C137.6,218.2,137.7,217.2,137.5,216.3z M134,221c-0.9,0.1-2,0.2-2.7-0.4c-0.8-0.6-0.9-1.5-1-2.4c0-0.3-0.6-0.4-0.6,0
						c-0.1,1.1,0,2.4,1,3.2c1,0.8,2.4,0.7,3.6,0.4C134.7,221.6,134.4,221,134,221z M141.5,208.4c-0.9-0.2-1.9-0.1-2.7,0.2
						c-0.4,0.2-0.2,0.7,0.2,0.6c0.5-0.2,1.2-0.2,1.7-0.1c0.7,0.2,1.1,0.5,1.4,1.2c0.1,0.2,0.4,0.2,0.5,0
						C143.1,209.4,142.4,208.6,141.5,208.4z"/>
					<path class="st27" d="M105.9,185.4c4-1.5,9.2,1.4,7.7,4.4c-1.5,3-10.5,4.9-20.8,5.4c-10.3,0.5-11.5-8.1-7.9-10.9
						C92.8,178.2,101.9,186.9,105.9,185.4z M129.1,180.2c-7.2-3.4-17.9-2.7-12.2,4.4c5.7,7.1,12.7,11.3,15.9,7.8
						C136,188.9,134.6,182.8,129.1,180.2z M141.9,189.1c-4.3-3-7,3.8-2.5,5.6C143.9,196.5,147.5,193,141.9,189.1z"/>
					<g>
						<path class="st36" d="M82.4,194c0,0,2.1-8.6-3.8-10.8C78.6,183.2,76,191.6,82.4,194z"/>
						<path class="st36" d="M73.4,194c0,0,3.2-4.1,9,0C82.4,194,79.6,198.7,73.4,194z"/>
						<path class="st36" d="M144.6,193.4c0,0,1.2-3.4,6.9-3C151.5,190.4,151.4,194.7,144.6,193.4z"/>
						<path class="st36" d="M100.5,179.4c-0.2,0,0.2,5.6,5.4,5.9C105.9,185.4,107.4,179.7,100.5,179.4z"/>
						<path class="st36" d="M123.6,188.6c0,0,0.3-4-4.5-4C119.1,184.6,120,189.7,123.6,188.6z"/>
						<path class="st36" d="M128.3,182.1c0,0-5.3,0.3-4.6,6.5C123.6,188.6,129.3,187.6,128.3,182.1z"/>
						<path class="st36" d="M100.8,190.4c0,0,5.2-0.9,5.6,4.2C106.4,194.6,102,195.4,100.8,190.4z"/>
						<path class="st36" d="M88.7,192.1c0,0-1.1-3.9,5-3.6C93.7,188.6,93.9,192.4,88.7,192.1z"/>
						<path class="st36" d="M91.5,206.4c0,0-3.3-3.9,0.8-6.6C92.3,199.8,96,204.4,91.5,206.4z"/>
						<path class="st36" d="M83.5,205.3c0,0,3.6-4.1,8,1.1C91.5,206.4,86.8,211,83.5,205.3z"/>
						<path class="st36" d="M122.7,202.8c0,0,4.6,0.1,5.1,5.8C127.8,208.5,122.5,208.1,122.7,202.8z"/>
						<path class="st36" d="M132.6,202.1c0,0-4.8,1-4.8,6.4C127.8,208.5,134,208.6,132.6,202.1z"/>
						<path class="st36" d="M148.7,208.5c0,0-1-5.3-5.5-4.5C143.2,204,143.6,209,148.7,208.5z"/>
						<path class="st36" d="M152.3,203.1c0,0-4.6,0-3.6,5.4C148.7,208.5,154,207.3,152.3,203.1z"/>
						<path class="st36" d="M106.2,212.9c0,0-1.4-5.3-6.6-3.3C99.6,209.6,101.9,215.6,106.2,212.9z"/>
						<path class="st36" d="M147.3,215.8c0,0,0.4,6.2,6.3,5.8C153.6,221.6,154.6,214.8,147.3,215.8z"/>
						<path class="st36" d="M89.6,212.9c0,0-5.9-3.7-9.1,2.1C80.4,215,83.2,220.1,89.6,212.9z"/>
					</g>
					<g>
						<g>
							<path class="st37" d="M133.6,193.7c0,1.5-1.2,2.6-2.6,2.6c-1.5,0-2.6-1.2-2.6-2.6c0-1.5,1.2-2.6,2.6-2.6
								C132.5,191.1,133.6,192.2,133.6,193.7z"/>
							<path class="st38" d="M131.5,192.3c-0.8-0.2-1.5,0.5-1.7,1.2c-0.2,0.7,0.4,1.2,1,1.3c0.2,0.1,0.4-0.3,0.2-0.4
								c-0.3-0.2-0.4-0.4-0.2-0.7c0.2-0.3,0.6-0.4,0.8-0.7C131.9,192.7,131.8,192.3,131.5,192.3z"/>
						</g>
						<g>
							<path class="st39" d="M93.7,219.8c0,2.6-2.1,4.8-4.8,4.8c-2.6,0-4.8-2.1-4.8-4.8s2.1-4.8,4.8-4.8S93.7,217.2,93.7,219.8z"/>
							<path class="st38" d="M87.9,215.9c-1.4,0.2-2.1,1.5-2.1,2.7c0,0.6,0.1,1.2,0.5,1.7c0.2,0.2,0.4,0.5,0.6,0.7
								c0.3,0.2,0.6,0.1,0.8,0.3c0.1,0,0.1-0.1,0-0.1c-0.8-0.2-0.9-1.8-0.9-2.4c0.1-0.9,0.5-1.5,1.3-1.7
								C88.9,216.9,88.7,215.8,87.9,215.9z"/>
						</g>
						<g>
							<path class="st37" d="M98.7,217c0,2.3-1.8,4.1-4.1,4.1c-2.3,0-4.1-1.8-4.1-4.1c0-2.3,1.8-4.1,4.1-4.1S98.7,214.7,98.7,217z"
								/>
							<path class="st38" d="M94.3,214c-1-0.6-2.3,1.1-2.6,1.8c-0.5,1-0.1,2,1.1,2.1c0.4,0.1,0.6-0.5,0.2-0.7
								c-1.3-0.8,1.3-2.1,1.5-2.7C94.6,214.3,94.5,214.1,94.3,214z"/>
						</g>
						<g>
							<path class="st39" d="M91.6,230.2c0,2.7-2.1,4.8-4.8,4.8s-4.8-2.1-4.8-4.8s2.1-4.8,4.8-4.8C89.4,225.4,91.6,227.5,91.6,230.2
								z"/>
							<path class="st38" d="M86.4,226.6c-1.1-0.7-2.7,1.3-3.1,2.2c-0.6,1.2-0.1,2.3,1.2,2.5c0.4,0.1,0.7-0.6,0.3-0.8
								c-1.6-0.9,1.5-2.5,1.8-3.2C86.7,227.1,86.6,226.8,86.4,226.6z"/>
						</g>
						<g>
							<path class="st37" d="M103.5,200.4c0,1.8-1.4,3.2-3.2,3.2s-3.2-1.4-3.2-3.2s1.4-3.2,3.2-3.2
								C102,197.2,103.5,198.6,103.5,200.4z"/>
							<path class="st38" d="M99.9,199.2c0.1-0.3-0.1-0.4-0.4-0.5c-0.9-0.2-1.7,1.2-1.8,1.9c-0.1,1,0.7,1.6,1.5,2
								c0.3,0.1,0.6-0.3,0.3-0.5c-0.5-0.4-1-1-0.7-1.7C99.1,200,99.7,199.7,99.9,199.2z"/>
						</g>
						<g>
							<path class="st39" d="M100.5,196.9c0,1.8-1.4,3.2-3.2,3.2s-3.2-1.4-3.2-3.2s1.4-3.2,3.2-3.2
								C99.1,193.7,100.5,195.1,100.5,196.9z"/>
							<path class="st38" d="M95.9,194.6c-1.3,1-1.5,3.9,0.5,4.2c0.2,0,0.4-0.3,0.1-0.4c-1.1-0.6-0.6-2.3,0.1-3
								C97.1,195,96.4,194.2,95.9,194.6z"/>
						</g>
						<g>
							<path class="st39" d="M88.9,194.6c0,1.8-1.5,3.3-3.3,3.3s-3.3-1.5-3.3-3.3s1.5-3.3,3.3-3.3S88.9,192.8,88.9,194.6z"/>
							<path class="st38" d="M85.7,192.9c0.1-0.2,0-0.4-0.3-0.5c-1-0.1-1.6,1.1-1.6,2c0,0.9,0.6,1.7,1.4,2.1
								c0.2,0.1,0.5-0.2,0.4-0.4c-0.4-0.5-0.8-1.1-0.7-1.7C84.9,193.7,85.5,193.4,85.7,192.9z"/>
						</g>
						<g>
							<path class="st37" d="M115.4,181.3c0,2.3-1.8,4.1-4.1,4.1c-2.3,0-4.1-1.8-4.1-4.1c0-2.3,1.8-4.1,4.1-4.1
								C113.6,177.2,115.4,179.1,115.4,181.3z"/>
							<path class="st38" d="M110.9,178.4c-1.5-0.8-2.6,1.2-2.7,2.4c-0.2,1.5,0.4,3.5,2.3,3.3c0.1,0,0.3-0.2,0.1-0.3
								c-0.8-0.7-1.3-1.7-1.2-2.7c0.1-0.9,0.4-1.5,1.3-1.5C111.3,179.5,111.4,178.6,110.9,178.4z"/>
						</g>
						<g>
							<path class="st39" d="M116.9,200.1c0,1.6-1.3,3-3,3s-3-1.3-3-3s1.3-3,3-3S116.9,198.5,116.9,200.1z"/>
							<path class="st38" d="M113.6,199c0.4-0.6-0.5-1.1-1-0.7c-0.5,0.6-1,1.4-0.9,2.1c0.1,0.8,0.7,1.4,1.5,1.3
								c0.1,0,0.3-0.2,0.2-0.3c-0.1-0.4-0.6-0.8-0.5-1.2C113,199.8,113.3,199.4,113.6,199z"/>
						</g>
						<g>
							<path class="st39" d="M138,196.1c0,2-1.7,3.7-3.7,3.7c-2,0-3.7-1.7-3.7-3.7c0-2,1.7-3.7,3.7-3.7
								C136.4,192.4,138,194.1,138,196.1z"/>
							<path class="st38" d="M134.3,193.7c-1.1-0.4-2.5,0.8-2.7,1.8c-0.3,1.2,0.5,2.7,1.8,2.9c0.1,0,0.3-0.1,0.2-0.3
								c-0.5-0.6-1.1-1.6-0.8-2.4c0.3-0.8,1.4-0.9,1.8-1.6C134.6,193.9,134.5,193.7,134.3,193.7z"/>
						</g>
						<g>
							<path class="st39" d="M127.8,216.3c0,2.5-2,4.5-4.5,4.5s-4.5-2-4.5-4.5s2-4.5,4.5-4.5S127.8,213.9,127.8,216.3z"/>
							<path class="st38" d="M123.7,213.2c-1,0.1-2.3,1.2-2.7,2.1c-0.6,1.1,0.3,2.2,1.2,2.9c0.3,0.2,0.6-0.1,0.4-0.4
								c-0.5-0.8-1-1.5-0.2-2.3c0.5-0.6,1.4-0.8,1.8-1.5C124.2,213.6,124,213.1,123.7,213.2z"/>
						</g>
						<g>
							<path class="st39" d="M145.3,220.8c0,2.6-2.1,4.7-4.7,4.7c-2.6,0-4.7-2.1-4.7-4.7c0-2.6,2.1-4.7,4.7-4.7
								C143.2,216.2,145.3,218.3,145.3,220.8z"/>
							<path class="st38" d="M141.1,217.2c-1,0-2.5,1.1-2.9,2c-0.5,1,0,2.2,0.6,3.1c0.1,0.1,0.2,0.1,0.3,0c0.5-0.9-0.5-1.9,0.4-2.7
								c0.6-0.6,1.6-0.8,2.1-1.5C141.8,217.6,141.5,217.2,141.1,217.2z"/>
						</g>
						<g>
							<path class="st37" d="M160,209.1c0,1.8-1.4,3.2-3.2,3.2c-1.8,0-3.2-1.4-3.2-3.2c0-1.8,1.4-3.2,3.2-3.2
								C158.6,205.9,160,207.4,160,209.1z"/>
							<path class="st38" d="M157.4,207.5c-1.5-1.1-4.1,2-2.4,3.2c0.2,0.1,0.5,0,0.4-0.3c-0.3-1.3,1.2-1.8,2-2.4
								C157.6,207.9,157.6,207.6,157.4,207.5z"/>
						</g>
					</g>
				</g>
			</g>
			<g>
				<path class="st40" d="M147.3,238.7H80.8c0,0-0.2,10.2,11.3,25.8h42.5C134.6,264.4,142.4,260.9,147.3,238.7z"/>
				<g class="st22">
					<path class="st40" d="M105,245.5c3.9-2.3,7.8-4.6,11.8-6.8H115c-3.5,2-7,4-10.4,6.1c-6,3.6-12,7.4-17.8,11.4
						c0.1,0.3,0.3,0.5,0.5,0.8C93,252.9,98.9,249.1,105,245.5z"/>
					<path class="st40" d="M83.9,250.2c0.1,0.2,0.2,0.5,0.3,0.7c6.8-4.5,14-8.5,21.2-12.3h-1.7c-2.6,1.4-5.2,2.9-7.8,4.3
						C91.8,245.3,87.8,247.7,83.9,250.2z"/>
					<path class="st40" d="M93.7,249c5-3.7,10.3-7.1,15.7-10.3h-1.6c-0.6,0.4-1.2,0.7-1.9,1.1c-7,4.3-13.9,9.1-20.3,14.3
						c0.1,0.3,0.3,0.5,0.4,0.8C88.6,252.8,91.1,250.9,93.7,249z"/>
					<path class="st40" d="M133.3,256.1c3.7-2.9,7.6-5.7,11.5-8.4c0.2-0.5,0.3-1,0.5-1.5c-3.9,2.7-7.8,5.5-11.5,8.3
						c-4,3.1-7.8,6.4-11.5,9.9h1.4C126.8,261.5,130,258.8,133.3,256.1z"/>
					<path class="st40" d="M82,245c3.4-2.2,6.9-4.3,10.5-6.3h-0.8c0,0,0,0,0,0c-3.3,1.9-6.5,4-9.6,6.2C82,244.9,82,244.9,82,245z"/>
					<path class="st40" d="M141,256.8c-2.4,1.1-4.7,2.2-7,3.5c-2.5,1.3-4.9,2.7-7.3,4.1h1.7c1.5-0.9,3.1-1.8,4.7-2.6
						c2.4-1.3,4.7-2.5,7.1-3.6C140.5,257.7,140.7,257.3,141,256.8z"/>
					<path class="st40" d="M120.7,249.9c6.1-3.5,12.4-6.8,18.7-9.8c1-0.5,2-0.9,3-1.4h-2.1c-0.4,0.2-0.8,0.4-1.2,0.6
						c-6.8,3.3-13.5,6.8-20,10.6c-6.1,3.5-12,7.1-17.7,11.1c-1.2,0.8-2.3,1.7-3.4,2.6c0.4-0.4,0.9-0.8,1.3-1.1
						c5.8-5,11.8-9.7,18-14.1c4.6-3.3,9.4-6.5,14.3-9.6h-1.9c-5.5,3.5-10.8,7.2-15.9,11c-5.6,4.2-11,8.5-16.3,13.1
						c-0.6,0.5-1.3,1.1-2,1.7h2.8c1.2-1,2.4-1.9,3.7-2.8C107.9,257.3,114.3,253.5,120.7,249.9z"/>
					<path class="st40" d="M125.3,254.7c5.4-3.2,11-6.2,16.7-8.8c1.3-0.6,2.6-1.2,3.9-1.7c0.1-0.4,0.2-0.7,0.3-1.1
						c-2,0.8-4,1.7-6,2.7c-6.1,2.9-12,6.3-17.8,9.7c-4.6,2.7-9.5,5.6-14.1,8.9c0.4-0.4,0.7-0.7,1.1-1.1c4.9-4.5,10.2-8.7,15.7-12.5
						c5.3-3.7,10.9-6.9,16.6-9.9c1.4-0.7,2.8-1.5,4.3-2.2h-2.1c-0.9,0.4-1.8,0.9-2.6,1.3c-6.1,3.2-12.1,6.7-17.8,10.7
						c-5.2,3.6-10.1,7.6-14.8,11.9c-0.7,0.6-1.3,1.2-1.9,1.9h2.8C114.6,260.8,120.2,257.7,125.3,254.7z"/>
					<path class="st40" d="M97.7,238.7h-1.4c-4.5,3-9,6.2-13.2,9.7c0.1,0.3,0.2,0.5,0.3,0.8C88,245.4,92.8,242,97.7,238.7z"/>
					<path class="st40" d="M109.4,248c5.5-3.3,11.2-6.4,17-9.3h-2c-5.5,2.8-10.8,5.8-16,8.9c-3,1.8-5.9,3.7-8.9,5.7
						c2.7-1.9,5.3-3.8,8.1-5.6c4.6-3.1,9.3-6.1,14.1-9H120c-6.5,3.9-12.9,8-19,12.4c-4,2.9-8,5.8-11.8,8.9c0.2,0.4,0.5,0.7,0.7,1.1
						c0.2-0.1,0.3-0.3,0.5-0.4C96.4,256.1,102.8,251.9,109.4,248z"/>
				</g>
				<path class="st41" d="M141.5,255.8c1.3-2.4,2.6-5.6,3.8-9.5H82.4c0.8,2.6,2.2,5.8,4.2,9.5H141.5z"/>
				<path class="st42" d="M143.1,252.5c0.4-0.9,0.8-1.8,1.1-2.9H83.6c0.4,0.9,0.8,1.9,1.3,2.9H143.1z"/>
				<path class="st43" d="M134.3,260.1c-4.8,3.2-28.4,3.7-36.6,0.3c-5.2-2.2-11.6-9.5-15.5-14.7c1.4,4.5,4.2,10.9,9.9,18.7h42.5
					c0,0,6.7-3,11.6-21.4C144.2,246.7,138.2,257.5,134.3,260.1z"/>
				<rect x="75.8" y="235" class="st42" width="76.5" height="3.7"/>
			</g>
		</g>
	</g>
</g>
</svg>
