<?xml version="1.0" encoding="utf-8"?>
<!-- Generator: Adobe Illustrator 25.1.0, SVG Export Plug-In . SVG Version: 6.00 Build 0)  -->
<svg version="1.1" id="Layer_1" xmlns="http://www.w3.org/2000/svg" xmlns:xlink="http://www.w3.org/1999/xlink" x="0px" y="0px"
	 viewBox="0 0 300 265" style="enable-background:new 0 0 300 265;" xml:space="preserve">
<g>
	<polygon style="opacity:0.3;fill:#6EA7CE;" points="285.42,121.99 285.42,86.22 271.4,86.22 271.4,102.15 259.8,102.15 
		259.8,97.02 259.8,65.44 240.8,65.44 240.8,99 235.11,99.22 235.11,65.38 228.48,65.38 228.48,50.96 224.5,50.96 224.5,41.28 
		208.97,41.28 208.97,50.96 204.99,50.96 204.99,65.38 199.2,65.38 199.2,83.71 195.3,83.93 194.38,29.62 173.92,29.62 
		173.92,58.51 166.72,58.73 166.72,13.57 164.26,13.57 164.26,4.04 140.94,4.04 140.94,13.57 140.2,13.57 140.2,74.42 135.65,74.42 
		135.65,55.45 131.86,55.45 131.86,46.17 126.37,46.17 126.37,19.09 118.41,19.09 118.41,46.17 112.92,46.17 112.92,55.45 
		109.13,55.45 109.13,87.55 106.47,87.55 101.55,87.52 101.55,50.33 78.96,50.6 78.96,105.16 72.34,105.16 72.34,78.04 48.31,78.3 
		48.31,29.88 43.57,29.88 43.57,18.9 26.13,18.9 26.13,31.66 21.6,31.66 21.6,0 10.8,0 10.8,105.16 0.04,105.16 0.04,144.64 
		0,144.64 0,170.49 300,170.49 300,121.99 	"/>
	<g>
		<path style="fill:#3C8F7C;" d="M243.63,42.79c0,0,18.07,12.7,17.87,13.53c-0.2,0.83-1.46,0.18-4.02-0.95
			c-2.56-1.14-17.57-10.59-17.44-10.69C240.18,44.58,243.63,42.79,243.63,42.79z"/>
		<path style="fill:#74BDC1;" d="M212.08,51.36l4.93,2.43c0,0,2.06,0.45,2.89,0.22c0.83-0.22-3.91-3.17-3.91-3.17L212.08,51.36z"/>
		<path style="fill:#3C8F7C;" d="M219.91,54c0.83-0.22-3.91-3.17-3.91-3.17l-0.62,0.08c1.45,1.12,3.67,2.86,3.73,3.14
			C219.41,54.07,219.7,54.06,219.91,54z"/>
		<path style="fill:#74BDC1;" d="M231.34,47.49c0.18,0.1,27.07,9.75,27.07,9.75s2.69,0.59,3.09-0.35c0,0,0.22-0.28,0-0.58
			c-0.22-0.3-19.99-14.13-19.99-14.13L231.34,47.49z"/>
		<path style="fill:#F47458;" d="M207.62,47.35l40.57-15.84c0,0,6.63-2.77,11.16,0.25c0,0,1.26,0.74,0.76,3.37
			c-0.49,2.62-4.35,4.31-4.35,4.31l-25.24,8.86c0,0-12.28,3.86-19.19,3.47c-6.9-0.4-7.13-0.4-6.99-2.82
			C204.49,46.5,207.62,47.35,207.62,47.35z"/>
		<path style="fill:#74BDC1;" d="M234.92,41.06l-33.66-11.84c0,0-6.23-2.23-6.77-2.23c-0.54,0-2.96-0.35-3.23,0.3
			c-0.27,0.64,1.17,1.14,1.17,1.14l32.99,16.64L234.92,41.06z"/>
		<path style="fill:#3C8F7C;" d="M209.29,47.97c0,0-11.65-4.06-12.32-4.26c-0.67-0.2-2.56,0-2.56,0v0.51c0,0,1.23,0.25,1.93,0.36
			l10.07,4.56L209.29,47.97z"/>
		<polygon style="fill:#3C8F7C;" points="194.49,27 233.83,41.52 234.92,41.06 211.26,32.74 		"/>
		<path style="fill:#FFFFFF;" d="M214.18,47.11L214.18,47.11c-0.26,0-0.46-0.21-0.46-0.46v-0.41c0-0.26,0.21-0.46,0.46-0.46h0
			c0.26,0,0.46,0.21,0.46,0.46v0.41C214.65,46.9,214.44,47.11,214.18,47.11z"/>
		<path style="fill:#FFFFFF;" d="M217.07,46.07L217.07,46.07c-0.26,0-0.46-0.21-0.46-0.46V45.2c0-0.26,0.21-0.46,0.46-0.46h0
			c0.26,0,0.46,0.21,0.46,0.46v0.41C217.54,45.86,217.33,46.07,217.07,46.07z"/>
		<path style="fill:#FFFFFF;" d="M220.15,44.83L220.15,44.83c-0.26,0-0.46-0.21-0.46-0.46v-0.41c0-0.26,0.21-0.46,0.46-0.46l0,0
			c0.26,0,0.46,0.21,0.46,0.46v0.41C220.61,44.63,220.41,44.83,220.15,44.83z"/>
		<path style="fill:#FFFFFF;" d="M233.18,39.74L233.18,39.74c-0.26,0-0.46-0.21-0.46-0.46v-0.41c0-0.26,0.21-0.46,0.46-0.46l0,0
			c0.26,0,0.46,0.21,0.46,0.46v0.41C233.64,39.53,233.43,39.74,233.18,39.74z"/>
		<path style="fill:#FFFFFF;" d="M236.14,38.55L236.14,38.55c-0.26,0-0.46-0.21-0.46-0.46v-0.41c0-0.26,0.21-0.46,0.46-0.46h0
			c0.26,0,0.46,0.21,0.46,0.46v0.41C236.6,38.34,236.39,38.55,236.14,38.55z"/>
		<path style="fill:#FFFFFF;" d="M239.06,37.46L239.06,37.46c-0.26,0-0.46-0.21-0.46-0.46v-0.41c0-0.26,0.21-0.46,0.46-0.46l0,0
			c0.26,0,0.46,0.21,0.46,0.46v0.41C239.52,37.25,239.32,37.46,239.06,37.46z"/>
		<path style="fill:#FFFFFF;" d="M242.02,36.35L242.02,36.35c-0.26,0-0.46-0.21-0.46-0.46v-0.41c0-0.26,0.21-0.46,0.46-0.46h0
			c0.26,0,0.46,0.21,0.46,0.46v0.41C242.48,36.15,242.28,36.35,242.02,36.35z"/>
		<path style="fill:#FFFFFF;" d="M245.03,35.28L245.03,35.28c-0.26,0-0.46-0.21-0.46-0.46V34.4c0-0.26,0.21-0.46,0.46-0.46l0,0
			c0.26,0,0.46,0.21,0.46,0.46v0.41C245.49,35.07,245.28,35.28,245.03,35.28z"/>
		<path style="fill:#74BDC1;" d="M194.42,44.22c0,0,1.88-0.2,2.56,0c0.67,0.2,11.73,3.97,11.73,3.97l-2.87,1.17L194.42,44.22z"/>
		<g>
			<path style="fill:#3C8F7C;" d="M224.73,40.57c0.12,1.1-0.55,2.1-1.5,2.22c-0.95,0.13-1.81-0.67-1.93-1.77
				c-0.12-1.1,0.55-2.1,1.5-2.22C223.74,38.67,224.61,39.47,224.73,40.57z"/>
			<path style="fill:#3C8F7C;" d="M222.56,38.85l5.31-2.73l1.73,4.56c0,0-6.1,2.18-6.18,2.09
				C223.35,42.68,222.56,38.85,222.56,38.85z"/>
			
				<ellipse transform="matrix(0.9992 -0.0401 0.0401 0.9992 -1.3512 9.199)" style="fill:#B75742;" cx="228.89" cy="38.32" rx="2.14" ry="2.49"/>
			<path style="fill:#F47458;" d="M227.68,38.48c-0.13-1.18,0.48-2.26,1.41-2.63c-0.15-0.02-0.31-0.02-0.47,0
				c-1.17,0.15-2.01,1.39-1.86,2.75c0.15,1.36,1.22,2.35,2.39,2.19c0.16-0.02,0.31-0.06,0.45-0.12
				C228.63,40.55,227.81,39.66,227.68,38.48z"/>
		</g>
		<g>
			<path style="fill:#3C8F7C;" d="M219.76,36.67c0.1,0.89-0.44,1.69-1.21,1.79c-0.76,0.1-1.46-0.54-1.55-1.42
				c-0.1-0.89,0.44-1.69,1.21-1.79C218.97,35.15,219.66,35.79,219.76,36.67z"/>
			<path style="fill:#3C8F7C;" d="M218.02,35.29l4.26-2.19l1.39,3.66c0,0-4.9,1.75-4.96,1.68
				C218.66,38.36,218.02,35.29,218.02,35.29z"/>
			<path style="fill:#B75742;" d="M224.81,34.64c0.12,1.1-0.55,2.08-1.49,2.21c-0.94,0.12-1.8-0.66-1.92-1.76
				c-0.12-1.1,0.55-2.08,1.49-2.21C223.83,32.76,224.69,33.55,224.81,34.64z"/>
			<path style="fill:#F47458;" d="M222.13,34.99c-0.1-0.95,0.38-1.82,1.13-2.11c-0.12-0.01-0.25-0.02-0.37,0
				c-0.94,0.12-1.61,1.11-1.49,2.21c0.12,1.1,0.98,1.88,1.92,1.76c0.13-0.02,0.25-0.05,0.36-0.1
				C222.89,36.66,222.23,35.94,222.13,34.99z"/>
		</g>
		<g>
			<path style="fill:#3C8F7C;" d="M250.79,51.87c0.1,0.89-0.45,1.7-1.22,1.8c-0.77,0.1-1.47-0.54-1.57-1.44
				c-0.1-0.89,0.45-1.7,1.22-1.8C250,50.33,250.7,50.97,250.79,51.87z"/>
			<path style="fill:#3C8F7C;" d="M249.04,50.47l4.31-2.22l1.41,3.69c0,0-4.95,1.77-5.01,1.7
				C249.68,53.58,249.04,50.47,249.04,50.47z"/>
			<path style="fill:#B75742;" d="M255.89,49.82c0.12,1.11-0.56,2.11-1.51,2.23c-0.95,0.13-1.82-0.67-1.94-1.78
				c-0.12-1.11,0.56-2.11,1.51-2.23C254.9,47.91,255.77,48.71,255.89,49.82z"/>
			<path style="fill:#F47458;" d="M253.19,50.17c-0.1-0.96,0.39-1.83,1.14-2.13c-0.12-0.01-0.25-0.02-0.38,0
				c-0.95,0.13-1.63,1.12-1.51,2.23c0.12,1.11,0.99,1.9,1.94,1.78c0.13-0.02,0.25-0.05,0.37-0.1
				C253.96,51.85,253.29,51.13,253.19,50.17z"/>
		</g>
		<g>
			<path style="fill:#3C8F7C;" d="M245.29,48.46c0.12,1.1-0.55,2.1-1.5,2.22c-0.95,0.13-1.81-0.67-1.93-1.77
				c-0.12-1.1,0.55-2.1,1.5-2.22C244.3,46.57,245.17,47.36,245.29,48.46z"/>
			<path style="fill:#3C8F7C;" d="M243.12,46.74l5.31-2.73l1.73,4.56c0,0-6.1,2.18-6.18,2.09
				C243.91,50.57,243.12,46.74,243.12,46.74z"/>
			<path style="fill:#B75742;" d="M251.57,45.93c0.15,1.36-0.68,2.6-1.86,2.75c-1.17,0.15-2.24-0.83-2.39-2.19s0.68-2.6,1.86-2.75
				C250.35,43.59,251.42,44.57,251.57,45.93z"/>
			<path style="fill:#F47458;" d="M248.24,46.37c-0.13-1.18,0.48-2.26,1.41-2.63c-0.15-0.02-0.31-0.02-0.47,0
				c-1.17,0.15-2.01,1.39-1.86,2.75s1.22,2.35,2.39,2.19c0.16-0.02,0.31-0.06,0.45-0.12C249.19,48.45,248.37,47.55,248.24,46.37z"/>
		</g>
		<path style="fill:#FFFFFF;" d="M249.4,33.3c1.97-0.76,6.2-2.12,9.1-1.18c0,0-0.4-1.24-3.71-1.24c-2.34,0-4.48,1.03-5.62,1.92
			C248.93,32.99,249.12,33.41,249.4,33.3z"/>
		<path style="fill:#F47458;" d="M251.34,31.22l0.49,1.78c0,0,0.82-0.22,0.82-0.28c0-0.06-0.66-1.75-0.66-1.75L251.34,31.22z"/>
		<path style="fill:#F47458;" d="M255.6,30.74l0.25,1.67c0,0,0.1,0.13,0.12,0s-0.18-1.67-0.18-1.67H255.6z"/>
	</g>
	<rect y="145.75" style="fill:#6EA7CE;" width="300" height="119.25"/>
	<rect y="144.02" style="fill:#5280B3;" width="300" height="8.64"/>
	<g style="opacity:0.5;">
		<rect x="99.99" y="0" style="fill:#9BC1F9;" width="100.06" height="144.02"/>
		<rect x="103.53" y="2.1" style="fill:#C5DDF9;" width="92.95" height="139.66"/>
		<polygon style="fill:#FFFFFF;" points="143.15,141.76 154.18,141.76 190.9,2.1 179.86,2.1 		"/>
		<polygon style="fill:#FFFFFF;" points="135.17,2.1 103.53,122.47 103.53,141.76 121.21,141.76 157.92,2.1 		"/>
	</g>
	<g style="opacity:0.5;">
		<rect x="199.94" y="0" style="fill:#9BC1F9;" width="100.06" height="144.02"/>
		<rect x="203.47" y="2.1" style="fill:#C5DDF9;" width="92.95" height="139.66"/>
		<polygon style="fill:#FFFFFF;" points="243.09,141.76 254.13,141.76 290.84,2.1 279.8,2.1 		"/>
		<polygon style="fill:#FFFFFF;" points="257.87,2.1 235.12,2.1 203.47,122.47 203.47,141.76 221.16,141.76 		"/>
	</g>
	<g style="opacity:0.5;">
		<rect x="0.05" y="0" style="fill:#9BC1F9;" width="100.06" height="144.02"/>
		<rect x="3.58" y="2.1" style="fill:#C5DDF9;" width="92.95" height="139.66"/>
		<polygon style="fill:#FFFFFF;" points="43.2,141.76 54.24,141.76 90.95,2.1 79.91,2.1 		"/>
		<polygon style="fill:#FFFFFF;" points="57.98,2.1 35.22,2.1 3.58,122.47 3.58,141.76 21.26,141.76 		"/>
	</g>
	<rect x="198.32" y="0" style="fill:#5280B3;" width="3.48" height="174.16"/>
	<rect x="98.25" y="0.63" style="fill:#5280B3;" width="3.48" height="147.51"/>
	<rect y="220.31" style="fill:#365E99;" width="300" height="44.69"/>
	<g>
		<g>
			<path style="fill:#001333;" d="M73.54,198.54l-0.75-0.6c2.75-4.11,5.59-8.36,7.01-13.28c0.25-0.85,0.45-1.75,0.66-2.62
				c0.56-2.39,1.13-4.86,2.54-6.87c1.05-1.49,2.45-2.58,3.82-3.64c0.43-0.33,0.87-0.67,1.29-1.02c7.23-5.98,11.04-16.54,9.47-26.28
				l0.92-0.18c1.62,10.1-2.32,21.06-9.83,27.26c-0.43,0.36-0.88,0.7-1.31,1.04c-1.37,1.06-2.66,2.06-3.62,3.43
				c-1.29,1.85-1.82,4.11-2.38,6.51c-0.21,0.88-0.42,1.8-0.67,2.68C79.23,190.04,76.34,194.36,73.54,198.54z"/>
		</g>
		<g>
			<path style="fill:#001333;" d="M77.85,206.58c-0.2,0-0.41-0.03-0.62-0.1l0.27-0.97c0.76,0.25,1.62-0.43,1.98-1.21
				c0.41-0.9,0.42-2,0.44-3.06l0-0.04c0.08-6.38,0.8-14.33,5.69-19.34c1.08-1.1,2.32-2.01,3.52-2.88c0.42-0.3,0.84-0.61,1.25-0.92
				c3.57-2.71,8.32-7.39,10.62-14.28c2.06-6.15,1.77-13.1,1.53-19.24l0.93-0.05c0.25,6.23,0.54,13.29-1.58,19.63
				c-2.39,7.14-7.28,11.97-10.97,14.77c-0.42,0.32-0.84,0.62-1.26,0.93c-1.17,0.85-2.37,1.72-3.4,2.77
				c-4.64,4.74-5.32,12.44-5.4,18.61l0,0.04c-0.01,1.18-0.03,2.4-0.54,3.5C79.87,205.73,78.91,206.58,77.85,206.58z"/>
		</g>
		<path style="fill:#213854;" d="M242.74,87.71h-62.26c-1.53,0-2.76,1.35-2.76,3.01v34.97v5.6c0,1.17,0.71,2.11,1.58,2.11h26.72
			v8.33h-15.83c-1.18,0-2.14,1.04-2.14,2.33h17.97h5.25h0.34h5.25h17.97c0-1.29-0.96-2.33-2.14-2.33h-15.83v-8.33h27.06
			c0.87,0,1.58-0.94,1.58-2.11v-5.6V90.71C245.5,89.05,244.27,87.71,242.74,87.71z"/>
		<path style="fill:#001333;" d="M234.17,141.72h-15.83v-9.85h-5.25h-0.34h-5.25v9.85h-15.83c-1.18,0-2.14,1.04-2.14,2.33h17.97
			h5.25h0.34h5.25h17.97C236.31,142.76,235.35,141.72,234.17,141.72z"/>
		<path style="fill:#001333;" d="M246.98,125.68V90.71c0-1.66-1.24-3.01-2.76-3.01h-62.26c-1.53,0-2.76,1.35-2.76,3.01v34.97H246.98
			z"/>
		<path style="fill:#001333;" d="M179.19,125.68v5.6c0,1.17,0.71,2.11,1.58,2.11h64.63c0.87,0,1.58-0.94,1.58-2.11v-5.6H179.19z"/>
		<path style="fill:#BAE1F4;" d="M245.39,124.16V90.81c0-0.87-0.67-1.58-1.51-1.58h-61.6c-0.83,0-1.51,0.71-1.51,1.58v33.35H245.39z
			"/>
		<rect x="269.93" y="144.05" style="fill:#001333;" width="2.18" height="109.25"/>
		<rect x="275.88" y="144.05" style="fill:#001333;" width="2.18" height="109.25"/>
		<rect x="241.85" y="144.05" style="fill:#FAE0B2;" width="36.21" height="4.11"/>
		<g>
			<g>
				<path style="fill:#213854;" d="M162.86,73.75H85.21c-1.9,0-3.45,1.68-3.45,3.75v43.61v6.99c0,1.45,0.88,2.63,1.97,2.63h33.33
					v10.38H97.32c-1.47,0-2.67,1.3-2.67,2.91h22.42h6.55h0.43h6.55H153c0-1.61-1.2-2.91-2.67-2.91h-19.75v-10.38h33.75
					c1.09,0,1.97-1.18,1.97-2.63v-6.99V77.51C166.31,75.43,164.76,73.75,162.86,73.75z"/>
				<path style="fill:#001333;" d="M152.17,141.12h-19.75v-12.28h-6.55h-0.43h-6.55v12.28H99.16c-1.47,0-2.67,1.3-2.67,2.91h22.42
					h6.55h0.43h6.55h22.42C154.84,142.42,153.64,141.12,152.17,141.12z"/>
				<path style="fill:#001333;" d="M168.15,121.11V77.51c0-2.07-1.54-3.75-3.45-3.75H87.05c-1.9,0-3.45,1.68-3.45,3.75v43.61H168.15
					z"/>
				<path style="fill:#001333;" d="M83.6,121.11v6.99c0,1.45,0.88,2.63,1.97,2.63h80.6c1.09,0,1.97-1.18,1.97-2.63v-6.99H83.6z"/>
				<path style="fill:#BAE1F4;" d="M166.17,119.22v-41.6c0-1.09-0.84-1.97-1.88-1.97H87.46c-1.04,0-1.88,0.88-1.88,1.97v41.6H166.17
					z"/>
				<g>
					<rect x="106.82" y="81.86" style="fill:#183658;" width="3.83" height="32.32"/>
					<rect x="101.47" y="91.53" style="fill:#183658;" width="3.83" height="22.46"/>
					<rect x="112.26" y="88.86" style="fill:#183658;" width="3.83" height="25.32"/>
					<rect x="96.11" y="87.68" style="fill:#183658;" width="3.83" height="26.31"/>
					<rect x="90.76" y="95.48" style="fill:#183658;" width="3.83" height="18.51"/>
					<g>
						<rect x="106.82" y="89.12" style="fill:#6EA7CE;" width="3.83" height="25.05"/>
						<rect x="101.47" y="96.71" style="fill:#6EA7CE;" width="3.83" height="17.28"/>
						<rect x="112.26" y="94.51" style="fill:#6EA7CE;" width="3.83" height="19.66"/>
						<rect x="96.11" y="93.75" style="fill:#6EA7CE;" width="3.83" height="20.25"/>
						<rect x="90.76" y="99.75" style="fill:#6EA7CE;" width="3.83" height="14.24"/>
					</g>
				</g>
				<rect x="88.05" y="78.87" style="fill:#183658;" width="11.72" height="1.67"/>
				<rect x="88.05" y="81.93" style="fill:#183658;" width="9.8" height="1.67"/>
				<rect x="88.05" y="84.98" style="fill:#183658;" width="5.6" height="1.67"/>
			</g>
		</g>
		<g>
			<path style="fill:#2D4972;" d="M206.48,98.5L206.48,98.5l-0.1-0.16l0,0c-2.21-3.23-5.74-5.33-9.72-5.33
				c-3.79,0-7.18,1.9-9.4,4.87l0,0l-0.11,0.15l0,0c-1.62,2.24-2.59,5.08-2.59,8.15c0,2.58,0.68,4.99,1.86,7.02l0,0l0.05,0.08
				c0,0,0,0,0,0l0.05,0.08l0,0c2.16,3.61,5.9,6,10.15,6c6.68,0,12.1-5.9,12.1-13.18C208.75,103.32,207.91,100.67,206.48,98.5z
				 M188.24,97.04c1.09-1.19,2.36-2.12,3.78-2.77c1.47-0.68,3.02-1.02,4.63-1.02c1.61,0,3.16,0.34,4.63,1.02
				c1.42,0.65,2.69,1.59,3.78,2.77c0.42,0.45,0.8,0.94,1.14,1.44l-1.37,1.09c-1.86-2.72-4.83-4.48-8.18-4.48
				c-3.19,0-6.04,1.6-7.91,4.1l-1.32-1.15C187.68,97.69,187.95,97.36,188.24,97.04z M196.76,106.39l3.86,2.66
				c-0.18,0.29-0.38,0.56-0.61,0.81c-0.44,0.48-0.94,0.85-1.51,1.11c-0.55,0.25-1.14,0.39-1.74,0.4V106.39z M196.8,106.19l3.74-2.97
				c0.19,0.3,0.36,0.62,0.49,0.96c0.25,0.64,0.37,1.31,0.37,2.01c0,0.7-0.13,1.38-0.37,2.01c-0.09,0.23-0.2,0.46-0.32,0.67
				L196.8,106.19z M196.65,106.07l-3.66-3.18c0.09-0.12,0.19-0.24,0.3-0.35c0.44-0.47,0.94-0.85,1.51-1.11
				c0.59-0.27,1.21-0.41,1.85-0.41c0.64,0,1.26,0.14,1.85,0.41c0.57,0.26,1.07,0.63,1.51,1.11c0.15,0.17,0.3,0.34,0.43,0.53
				L196.65,106.07z M196.52,106.2l-3.91,2.71c-0.13-0.22-0.24-0.46-0.34-0.71c-0.25-0.64-0.37-1.31-0.37-2.01
				c0-0.7,0.13-1.38,0.37-2.01c0.16-0.41,0.36-0.79,0.61-1.14L196.52,106.2z M196.58,106.39v4.98c-0.62-0.01-1.21-0.15-1.78-0.41
				c-0.57-0.26-1.07-0.63-1.51-1.11c-0.22-0.24-0.42-0.5-0.59-0.78L196.58,106.39z M196.58,111.46v2.97c-1-0.01-1.96-0.23-2.87-0.65
				c-0.9-0.41-1.71-1.01-2.4-1.76c-0.37-0.4-0.69-0.83-0.97-1.3l2.3-1.59C193.49,110.51,194.94,111.43,196.58,111.46z
				 M196.76,111.46c1.64-0.04,3.08-0.97,3.93-2.36l2.3,1.59c-0.29,0.48-0.62,0.93-0.99,1.34c-0.69,0.76-1.5,1.35-2.4,1.76
				c-0.9,0.41-1.85,0.63-2.84,0.65V111.46z M200.78,108.93c0.45-0.8,0.7-1.73,0.7-2.74c0-1.13-0.33-2.17-0.88-3.03l2.2-1.75
				c0.32,0.49,0.59,1.01,0.81,1.57c0.39,1.01,0.59,2.09,0.59,3.2c0,1.11-0.2,2.19-0.59,3.2c-0.15,0.39-0.33,0.76-0.53,1.12
				L200.78,108.93z M200.5,103.01c-0.88-1.27-2.28-2.08-3.85-2.08c-1.5,0-2.83,0.74-3.72,1.9l-2.13-1.85
				c0.16-0.21,0.33-0.41,0.5-0.61c0.69-0.76,1.5-1.35,2.4-1.76c0.93-0.43,1.92-0.65,2.94-0.65c1.02,0,2.01,0.22,2.94,0.65
				c0.9,0.41,1.71,1.01,2.4,1.76c0.26,0.28,0.49,0.58,0.71,0.89L200.5,103.01z M192.82,102.98c-0.63,0.89-1,2-1,3.21
				c0,1.02,0.26,1.96,0.72,2.77l-2.3,1.59c-0.21-0.37-0.4-0.75-0.55-1.16c-0.39-1.01-0.59-2.09-0.59-3.2c0-1.11,0.2-2.19,0.59-3.2
				c0.26-0.67,0.6-1.29,1.01-1.86L192.82,102.98z M188.96,106.2c0,1.63,0.43,3.15,1.17,4.44l-1.96,1.36
				c-0.29-0.49-0.53-1.01-0.74-1.55c-0.52-1.34-0.79-2.77-0.79-4.25c0-1.47,0.26-2.9,0.79-4.25c0.35-0.9,0.8-1.73,1.35-2.49
				l1.82,1.58C189.57,102.46,188.96,104.25,188.96,106.2z M190.22,110.8c1.36,2.25,3.7,3.75,6.36,3.77v2.53
				c-1.33-0.01-2.62-0.3-3.83-0.86c-1.19-0.55-2.26-1.34-3.18-2.34c-0.49-0.54-0.93-1.12-1.31-1.75L190.22,110.8z M196.76,114.57
				c2.66-0.04,4.99-1.55,6.35-3.81l1.97,1.36c-0.38,0.65-0.83,1.25-1.34,1.8c-0.92,1-1.99,1.79-3.18,2.34
				c-1.2,0.55-2.48,0.84-3.79,0.86V114.57z M203.2,110.6c0.73-1.28,1.15-2.79,1.15-4.4c0-1.81-0.53-3.49-1.43-4.86l1.88-1.49
				c0.43,0.65,0.8,1.36,1.09,2.11c0.52,1.34,0.79,2.77,0.79,4.25c0,1.47-0.26,2.9-0.79,4.25c-0.2,0.53-0.44,1.03-0.72,1.51
				L203.2,110.6z M202.81,101.18c-1.4-2.04-3.64-3.36-6.16-3.36c-2.4,0-4.54,1.2-5.95,3.07l-1.82-1.58
				c0.21-0.29,0.44-0.56,0.69-0.83c0.92-1,1.99-1.79,3.18-2.34c1.24-0.57,2.55-0.86,3.9-0.86c1.35,0,2.66,0.29,3.9,0.86
				c1.19,0.55,2.26,1.34,3.18,2.34c0.35,0.38,0.67,0.78,0.96,1.2L202.81,101.18z M185.69,111.23c-0.62-1.6-0.93-3.29-0.93-5.04
				c0-1.75,0.31-3.44,0.93-5.04c0.42-1.07,0.96-2.06,1.61-2.97l1.32,1.15c-1.36,1.89-2.18,4.27-2.18,6.86c0,2.17,0.57,4.19,1.56,5.9
				l-1.43,0.99C186.24,112.5,185.95,111.88,185.69,111.23z M188.24,115.35c-0.59-0.64-1.11-1.35-1.56-2.1l1.43-0.99
				c1.81,3.01,4.92,5.01,8.47,5.04v1.84c-1.58-0.01-3.11-0.35-4.56-1.02C190.61,117.47,189.34,116.54,188.24,115.35z M205.06,115.35
				c-1.09,1.19-2.36,2.12-3.78,2.77c-1.43,0.66-2.95,1-4.52,1.02v-1.84c3.55-0.04,6.67-2.05,8.46-5.08l1.43,0.99
				C206.2,113.97,205.66,114.69,205.06,115.35z M206.75,113.04l-1.43-0.99c0.97-1.7,1.53-3.71,1.53-5.86c0-2.41-0.71-4.65-1.91-6.47
				l1.37-1.09c0.52,0.78,0.95,1.62,1.3,2.52c0.62,1.6,0.93,3.29,0.93,5.04c0,1.75-0.31,3.44-0.93,5.04
				C207.36,111.86,207.08,112.47,206.75,113.04z"/>
			<path style="fill:#2D4972;" d="M204.87,105.62c0,0.4-0.3,0.73-0.67,0.73c-0.37,0-0.67-0.33-0.67-0.73c0-0.4,0.3-0.73,0.67-0.73
				C204.57,104.89,204.87,105.22,204.87,105.62z"/>
			<path style="fill:#2D4972;" d="M190.44,114.19c0,0.4-0.3,0.73-0.67,0.73c-0.37,0-0.67-0.33-0.67-0.73c0-0.4,0.3-0.73,0.67-0.73
				C190.14,113.46,190.44,113.78,190.44,114.19z"/>
			<path style="fill:#F47458;" d="M194.89,95.55c0,0.4-0.3,0.73-0.67,0.73c-0.37,0-0.67-0.33-0.67-0.73c0-0.4,0.3-0.73,0.67-0.73
				C194.59,94.82,194.89,95.15,194.89,95.55z"/>
			<path style="fill:#F47458;" d="M185.71,104.89c0,0.57-0.43,1.04-0.95,1.04c-0.53,0-0.95-0.46-0.95-1.04
				c0-0.57,0.43-1.04,0.95-1.04C185.29,103.85,185.71,104.32,185.71,104.89z"/>
			<path style="fill:#F47458;" d="M200.04,110.77c0,0.57-0.43,1.04-0.95,1.04c-0.53,0-0.95-0.46-0.95-1.04
				c0-0.57,0.43-1.04,0.95-1.04C199.61,109.73,200.04,110.19,200.04,110.77z"/>
		</g>
		<g>
			
				<rect x="217.91" y="93.89" transform="matrix(-1 -1.224647e-16 1.224647e-16 -1 438.8906 213.6901)" style="fill:#183658;" width="3.07" height="25.91"/>
			
				<rect x="222.2" y="101.65" transform="matrix(-1 -1.224647e-16 1.224647e-16 -1 447.4785 221.3017)" style="fill:#183658;" width="3.07" height="18.01"/>
			
				<rect x="213.55" y="99.5" transform="matrix(-1 -1.224647e-16 1.224647e-16 -1 430.1793 219.3043)" style="fill:#183658;" width="3.07" height="20.3"/>
			
				<rect x="226.5" y="98.56" transform="matrix(-1 -1.224647e-16 1.224647e-16 -1 456.0664 218.2137)" style="fill:#183658;" width="3.07" height="21.1"/>
			
				<rect x="230.79" y="104.81" transform="matrix(-1 -1.224647e-16 1.224647e-16 -1 464.6542 224.4688)" style="fill:#183658;" width="3.07" height="14.84"/>
			<g>
				
					<rect x="217.91" y="99.71" transform="matrix(-1 -1.224647e-16 1.224647e-16 -1 438.8906 219.516)" style="fill:#6EA7CE;" width="3.07" height="20.09"/>
				
					<rect x="222.2" y="105.8" transform="matrix(-1 -1.224647e-16 1.224647e-16 -1 447.4785 225.4522)" style="fill:#6EA7CE;" width="3.07" height="13.86"/>
				
					<rect x="213.55" y="104.03" transform="matrix(-1 -1.224647e-16 1.224647e-16 -1 430.1793 223.8363)" style="fill:#6EA7CE;" width="3.07" height="15.77"/>
				
					<rect x="226.5" y="103.42" transform="matrix(-1 -1.224647e-16 1.224647e-16 -1 456.0664 223.0759)" style="fill:#6EA7CE;" width="3.07" height="16.23"/>
				
					<rect x="230.79" y="108.23" transform="matrix(-1 -1.224647e-16 1.224647e-16 -1 464.6542 227.8894)" style="fill:#6EA7CE;" width="3.07" height="11.42"/>
			</g>
		</g>
		<rect x="23.45" y="144.05" style="fill:#001333;" width="2.18" height="109.25"/>
		<rect x="54.53" y="144.05" style="fill:#001333;" width="2.18" height="109.25"/>
		<g>
			<path style="fill:#F7A491;" d="M129.43,141.31l21.95-5.81c0,0,7.76-11.33,15.24-21.11c2.3,2.38,3.62,6.08,5.94,8.43l-16.45,20.65
				c-0.59,0.74-1.45,1.18-2.35,1.21l-23.36,0.61L129.43,141.31z"/>
			<g>
				<path style="fill:#F7A491;" d="M114.5,143.72c-0.23-0.39,0.35-1.04,0.78-1.53c0.48-0.54,3.38-1.91,3.88-2.08
					c0.49-0.16,4.73,0.49,6.35,1.06c1.62,0.58,2.69,0.34,2.69,0.34c0.42-0.09,1.06-0.22,1.56-0.33l1.02,4.11
					c-3.8-0.05-7.78,0.26-8.14,0.25c-1.14-0.03-3.24-1.33-3.72-1.53c-0.49-0.19-1.47-0.04-2.13,0.3c-0.66,0.34-2.59,1.14-2.91,0.95
					C113.54,145.08,114.5,143.72,114.5,143.72z"/>
			</g>
			<path style="fill:#F4F4F4;" d="M128.42,140.24l-0.93,0.19v5.74c0,0,0.83,0.25,0.93,0.16
				C128.53,146.25,128.42,140.24,128.42,140.24z"/>
			<path style="fill:#FF931E;" d="M171.22,107.37c-3.95-0.65-20.7,27.62-20.7,27.62l-22.3,5.12v6.41l24.37-1.08
				c0.03-0.01,0.06-0.02,0.1-0.02c3-0.54,4.88-2.58,5.22-2.98c5.08-6.01,16.42-19.64,17.82-23.1
				C177.53,114.87,175.16,108.02,171.22,107.37z"/>
		</g>
		<rect x="23.45" y="144.05" style="fill:#FAE0B2;" width="220.71" height="4.11"/>
		<rect x="23.45" y="144.05" style="fill:#F7CC7F;" width="33.25" height="4.11"/>
		<g>
			<g>
				<path style="fill:#F7A491;" d="M188.79,92.17l4.38,12.15c0,0-5.73,7.76-10.05,7.45c-3.62-0.26-2.27-5.67-2.27-5.67
					s0.45-7.16-0.82-10.54C178.76,92.17,188.79,92.17,188.79,92.17z"/>
				<path style="fill:#FE875E;" d="M188.25,96.29c-1.56,1.32-4.77,3.37-7.39,4.31c-0.1-1.82-0.33-3.72-0.83-5.05
					c-0.59-1.56,1.24-2.4,3.37-2.86c2.83-0.41,5.4-0.53,5.4-0.53l0.84,2.33C189.23,95.24,188.77,95.85,188.25,96.29z"/>
				<path style="fill:#F7A491;" d="M194.64,75.54c0.29-0.07,0.1,14.72-4.12,18.27c-4.21,3.55-11.49,3.98-13.57,0.51
					c-2.31-3.84,0.1-19.46,6.35-22.87C189.55,68.03,194.64,75.54,194.64,75.54z"/>
				<path d="M186.57,63.93c4.24,1.46,6.67,4.54,7.54,5.84c1.95,0.49,4.48,1.95,6.58,7.01c2.58,6.23-0.87,12.34-5.32,15
					c-4.44,2.66-4.48,6.25-4.48,6.25l-1.29-3.55c0,0,0.41-3.46,1.67-5.45c1.26-1.99-1.55-3.76-2.14-5.62
					c-0.46-1.43-0.04-4.52-0.74-6.88c0,0-3.52-3.72-6.34-4.17C177.25,71.59,181.14,62.06,186.57,63.93z"/>
			</g>
			<path d="M186.29,74.62c0,0,0.8,1.81,0.34,3.63c-0.46,1.82-3.83,14.15-2.85,15.57c0.98,1.42,7.13,4.21,7.13,4.21l2.77-10.11
				l-2.86-14.1L186.29,74.62z"/>
			<path style="fill:#B75742;" d="M187.17,78.64c0,0,4.59-7.52,5.54-10.78c0,0,1.42-0.09,2.19,0.67c0.77,0.76-2.86,9.94-4.72,13.52
				L187.17,78.64z"/>
			<path style="fill:#DD6652;" d="M191.1,81.62c0.62,3.06-1.16,6.09-3.97,6.77c-2.81,0.68-5.6-1.26-6.22-4.32
				c-0.62-3.06,1.16-6.09,3.97-6.77C187.7,76.62,190.48,78.56,191.1,81.62z"/>
			<path style="fill:#F7CC7F;" d="M190.5,81.76c0.62,3.06-1.16,6.09-3.97,6.77c-2.81,0.68-5.6-1.26-6.22-4.32
				c-0.62-3.06,1.16-6.09,3.97-6.77C187.09,76.77,189.87,78.7,190.5,81.76z"/>
			<path style="fill:#13375B;" d="M188.56,82.23c0.39,1.9-0.72,3.78-2.46,4.2c-1.74,0.42-3.47-0.78-3.86-2.68
				c-0.39-1.9,0.72-3.78,2.46-4.2C186.45,79.13,188.18,80.33,188.56,82.23z"/>
			<path style="opacity:0.5;fill:#13375B;" d="M183.46,83.46c-0.34-1.67,0.48-3.33,1.87-3.99c-0.2,0.01-0.41,0.03-0.62,0.08
				c-1.75,0.42-2.85,2.3-2.46,4.2c0.39,1.9,2.11,3.1,3.86,2.68c0.21-0.05,0.41-0.12,0.59-0.21
				C185.18,86.26,183.8,85.13,183.46,83.46z"/>
		</g>
		<g>
			<g>
				<path style="fill:#F7A491;" d="M180.77,239.2l-2.82-8.8h7.39c0.38,5.65,0.53,9.46,0.53,9.46l1.88,5.79l1.91,6.88
					c0,0-6.28,1.76-9.58-0.22l0.37-6.85L180.77,239.2z"/>
				<path style="fill:#001333;" d="M180.43,245.43c2.9,1.41,6.02,0.56,7.28,0.11l0.42,1.22l1.6,5.81c0,0-6.36,1.72-9.66-0.26
					L180.43,245.43z"/>
			</g>
			<g>
				<path style="fill:#F7A491;" d="M132.28,237.62c0,0,2.05,5.31,0.35,7.5c-1.71,2.2-8.81,4.36-9.74,5.55
					c-0.93,1.19-0.86,2.2-0.86,2.2l19.93-0.62l-0.22-6.53l-1.84-9.84L132.28,237.62z"/>
				<path style="fill:#001333;" d="M131.39,246.22c0,0,5.12,2.24,7.6,0.91c2.47-1.33,2.4-1.7,3.11-1.21
					c0.72,0.5,0.98,6.62,0.98,6.62l-22.41,0.74c-1.56-0.04-2.35-1.28-1.08-2.35c0.87-0.73,1.87-1.22,2.44-1.58
					C123.77,248.25,131.39,246.22,131.39,246.22z"/>
				<path style="fill:#3C8F7C;" d="M167.98,161.03c-2.23-0.67-48.94,9.15-52.72,20.37c-0.62,1.83,6.84,30.71,16.41,58.3l10.16-1.7
					c0,0-1.29-28.25-10.01-47.52c5.15,1.39,32.99-4.86,38.09-9.81C176.42,174.35,170.21,161.7,167.98,161.03z"/>
			</g>
			<path style="fill:#3C8F7C;" d="M158.54,195.05c0,0,14.32,32.16,16.63,38.05c2.31,5.89,2.95,8.84,2.95,8.84h8.98
				c0,0-3.46-36.75-9.3-46.89C171.95,184.91,158.54,195.05,158.54,195.05z"/>
			<g>
				<path style="fill:#B75742;" d="M176.16,102.7l35.3,0.29c2.7,0.02,4.54,2.09,4.12,4.61l-13.28,80.21
					c-0.42,2.53-2.94,4.56-5.64,4.53l-35.3-0.29c-2.7-0.02-4.54-2.09-4.12-4.61l13.28-80.21
					C170.94,104.71,173.47,102.68,176.16,102.7z"/>
				<path style="fill:#F47458;" d="M137.61,186.79h26.03l13.83-80.08c0.4-2.22,2.9-4.01,5.6-4.01h35.3c2.7,0,4.56,1.8,4.16,4.01
					l-14.99,86.56c-0.4,2.22-2.9,4.01-5.6,4.01h-6.38h-28.91h-29.04c-3.53,0-6.38-2.35-6.38-5.25
					C131.23,189.14,134.09,186.79,137.61,186.79z"/>
			</g>
			<rect x="173" y="197.28" transform="matrix(-1 -1.224647e-16 1.224647e-16 -1 349.6962 444.0477)" width="3.69" height="49.48"/>
			<path d="M193.5,249.39h-36.67c-1.69,0-3.06,1.49-3.06,3.33l0,0c0,0.32,0.24,0.58,0.53,0.58h41.72c0.3,0,0.53-0.26,0.53-0.58l0,0
				C196.56,250.88,195.19,249.39,193.5,249.39z"/>
			<path d="M176.98,246.77h-4.49c-1.33,0-2.41,1.17-2.41,2.62l0,0c0,1.45,1.08,2.62,2.41,2.62h4.49c1.33,0,2.41-1.17,2.41-2.62l0,0
				C179.39,247.94,178.31,246.77,176.98,246.77z"/>
		</g>
		
			<rect x="226.63" y="91.5" transform="matrix(-1 -1.224647e-16 1.224647e-16 -1 462.6653 184.3279)" style="fill:#183658;" width="9.4" height="1.34"/>
		
			<rect x="228.17" y="93.95" transform="matrix(-1 -1.224647e-16 1.224647e-16 -1 464.2064 189.2264)" style="fill:#183658;" width="7.86" height="1.34"/>
		
			<rect x="231.54" y="96.39" transform="matrix(-1 -1.224647e-16 1.224647e-16 -1 467.5752 194.125)" style="fill:#183658;" width="4.49" height="1.34"/>
		<rect x="33.66" y="181.19" style="fill:#213854;" width="47.37" height="72.07"/>
		<rect x="77.58" y="181.19" style="fill:#001333;" width="26.04" height="72.07"/>
		<rect x="80.53" y="185.96" style="opacity:0.5;fill:#6EA7CE;" width="21.05" height="3.33"/>
		<rect x="80.53" y="194.47" style="opacity:0.5;fill:#6EA7CE;" width="21.05" height="3.33"/>
		<rect x="80.53" y="202.97" style="opacity:0.5;fill:#6EA7CE;" width="21.05" height="3.33"/>
	</g>
	<g>
		<rect x="119.74" y="82.25" style="fill:#6EA7CE;" width="43.72" height="0.26"/>
		<rect x="119.74" y="88.24" style="fill:#6EA7CE;" width="43.72" height="0.26"/>
		<rect x="119.74" y="94.22" style="fill:#6EA7CE;" width="43.72" height="0.26"/>
		<rect x="119.74" y="100.2" style="fill:#6EA7CE;" width="43.72" height="0.26"/>
		<rect x="119.74" y="106.18" style="fill:#6EA7CE;" width="43.72" height="0.26"/>
		<path style="fill:#183658;" d="M128.76,95.67c-0.15,0.58-0.25,1.17-0.49,1.74c-0.24-0.57-0.34-1.15-0.49-1.74
			c-0.88,0.22-1.76,0.44-2.65,0.67c0-0.11,0-0.22,0-0.33c0-0.08,0.01-0.16,0-0.24c-0.03-0.19,0.05-0.27,0.2-0.36
			c0.73-0.41,1.44-0.83,2.17-1.24c0.06-0.03,0.08-0.06,0.07-0.14c-0.08-0.94-0.15-1.88-0.22-2.82c-0.03-0.44-0.06-0.89-0.09-1.34
			c0-0.06-0.03-0.08-0.08-0.08c-0.18,0.01-0.37,0.02-0.55,0.02c-0.52-0.02-1.01,0.17-1.51,0.28c-1.3,0.28-2.59,0.58-3.89,0.87
			c-0.03,0.01-0.06,0.01-0.12,0.02c0-0.19,0-0.37,0-0.55c0-0.03,0.04-0.07,0.07-0.08c0.32-0.21,0.65-0.42,0.97-0.62
			c0.47-0.29,0.94-0.58,1.42-0.87c0.06-0.04,0.08-0.08,0.08-0.15c0-0.26,0-0.52,0.01-0.78c0.01-0.26,0.07-0.35,0.3-0.37
			c0.19-0.02,0.39-0.01,0.59,0.01c0.16,0.01,0.23,0.1,0.25,0.27c0.01,0.08,0.01,0.16,0.01,0.25c0.04-0.02,0.07-0.04,0.11-0.06
			c0.72-0.44,1.43-0.88,2.15-1.32c0.06-0.04,0.09-0.08,0.09-0.16c0-0.24,0-0.49,0-0.73c0.01-0.71,0-1.42,0.09-2.13
			c0.08-0.61,0.23-1.2,0.55-1.71c0.07-0.11,0.15-0.21,0.24-0.29c0.19-0.17,0.38-0.16,0.56,0.01c0.16,0.15,0.26,0.34,0.34,0.54
			c0.23,0.53,0.36,1.09,0.4,1.67c0.04,0.57,0.04,1.15,0.06,1.72c0.01,0.25,0.02,0.49,0.04,0.74c0,0.04,0.04,0.08,0.07,0.11
			c0.65,0.46,1.3,0.91,1.95,1.36c0.12,0.09,0.24,0.17,0.38,0.27c0-0.08,0-0.13,0-0.19c0-0.22,0.11-0.34,0.31-0.34
			c0.2,0,0.4,0,0.6,0.02c0.16,0.02,0.22,0.09,0.23,0.26c0.01,0.26,0.01,0.51,0.01,0.77c0,0.2,0,0.21,0.16,0.3
			c0.47,0.28,0.94,0.57,1.41,0.86c0.28,0.17,0.55,0.34,0.83,0.51c0.09,0.06,0.14,0.13,0.12,0.25c-0.01,0.1,0,0.2,0,0.3
			c0,0.04-0.01,0.09-0.02,0.14c-0.25-0.06-0.49-0.11-0.73-0.16c-1.19-0.26-2.38-0.53-3.58-0.79c-0.3-0.07-0.6-0.15-0.91-0.19
			c-0.32-0.04-0.64-0.03-0.97-0.05c-0.01,0.17-0.03,0.32-0.04,0.46c-0.04,0.5-0.07,1.01-0.1,1.51c-0.06,0.77-0.12,1.53-0.18,2.3
			c-0.01,0.07,0.03,0.09,0.07,0.11c0.34,0.2,0.69,0.39,1.03,0.59c0.41,0.23,0.82,0.47,1.23,0.7c0.08,0.05,0.11,0.1,0.11,0.2
			c-0.01,0.19,0,0.38,0,0.58c0,0.03,0,0.05-0.01,0.1C130.52,96.12,129.64,95.9,128.76,95.67z"/>
		<path style="fill:#F47458;" d="M150.76,107.16c-0.33,0.49-0.61,1-1.02,1.45c-0.05-0.62,0.05-1.21,0.09-1.82
			c-0.9-0.12-1.79-0.25-2.7-0.37c0.04-0.11,0.07-0.21,0.11-0.31c0.03-0.07,0.06-0.15,0.07-0.22c0.03-0.19,0.13-0.24,0.3-0.26
			c0.81-0.11,1.62-0.23,2.43-0.35c0.06-0.01,0.09-0.03,0.11-0.1c0.23-0.91,0.46-1.82,0.7-2.73c0.11-0.43,0.22-0.86,0.34-1.29
			c0.02-0.06,0-0.09-0.05-0.11c-0.17-0.06-0.35-0.12-0.52-0.19c-0.48-0.22-1-0.22-1.51-0.31c-1.31-0.22-2.62-0.44-3.93-0.65
			c-0.03-0.01-0.06-0.01-0.12-0.03c0.06-0.18,0.11-0.35,0.18-0.52c0.01-0.03,0.06-0.05,0.09-0.05c0.37-0.07,0.74-0.15,1.11-0.21
			c0.53-0.1,1.07-0.19,1.61-0.28c0.07-0.01,0.1-0.04,0.12-0.11c0.08-0.25,0.17-0.49,0.26-0.73c0.09-0.24,0.18-0.3,0.4-0.23
			c0.19,0.06,0.37,0.14,0.55,0.23c0.15,0.07,0.18,0.18,0.14,0.35c-0.02,0.08-0.04,0.15-0.07,0.24c0.05-0.01,0.08-0.01,0.12-0.02
			c0.81-0.14,1.62-0.28,2.44-0.42c0.07-0.01,0.11-0.04,0.14-0.12c0.07-0.23,0.15-0.46,0.23-0.69c0.23-0.66,0.45-1.33,0.76-1.96
			c0.27-0.54,0.6-1.03,1.06-1.4c0.1-0.08,0.2-0.14,0.32-0.18c0.23-0.09,0.41-0.01,0.53,0.23c0.1,0.2,0.14,0.41,0.15,0.63
			c0.04,0.58-0.01,1.16-0.16,1.72c-0.15,0.55-0.33,1.09-0.49,1.64c-0.07,0.24-0.14,0.47-0.2,0.71c-0.01,0.04,0.01,0.09,0.03,0.13
			c0.46,0.67,0.93,1.35,1.39,2.02c0.09,0.13,0.17,0.25,0.28,0.4c0.02-0.07,0.04-0.13,0.06-0.18c0.07-0.21,0.21-0.28,0.4-0.21
			c0.19,0.08,0.38,0.15,0.56,0.25c0.14,0.07,0.18,0.16,0.13,0.33c-0.07,0.25-0.15,0.49-0.24,0.73c-0.07,0.19-0.07,0.19,0.05,0.34
			c0.35,0.44,0.7,0.89,1.05,1.34c0.21,0.26,0.41,0.53,0.62,0.79c0.07,0.09,0.09,0.17,0.04,0.28c-0.04,0.09-0.06,0.19-0.1,0.28
			c-0.01,0.04-0.04,0.08-0.06,0.13c-0.22-0.15-0.43-0.29-0.63-0.43c-1.03-0.7-2.07-1.4-3.1-2.1c-0.26-0.18-0.52-0.37-0.79-0.52
			c-0.29-0.16-0.59-0.27-0.9-0.41c-0.07,0.15-0.13,0.29-0.18,0.42c-0.19,0.46-0.38,0.92-0.58,1.38c-0.3,0.7-0.6,1.39-0.9,2.09
			c-0.03,0.06,0,0.1,0.03,0.13c0.26,0.31,0.52,0.63,0.78,0.94c0.31,0.37,0.62,0.75,0.93,1.12c0.06,0.07,0.07,0.14,0.03,0.23
			c-0.07,0.18-0.12,0.36-0.19,0.54c-0.01,0.03-0.02,0.05-0.04,0.09C152.26,108.26,151.51,107.71,150.76,107.16z"/>
	</g>
	<g>
		<polygon style="fill:#BAE1F4;" points="22.23,21.21 20.02,21.21 17.98,23.12 18.06,67.2 19.68,69.28 95.51,69.28 97.77,67.63 
			97.77,23.37 95.34,21.21 		"/>
		<path style="fill:#2D4972;" d="M94.94,20.54h-3.79c-0.03-0.6-0.55-1.07-1.19-1.07h-1.08V0h-0.45v19.47H78.39V0h-0.45v19.47h-0.46
			c-0.64,0-1.16,0.47-1.19,1.07H39.76c-0.03-0.6-0.55-1.07-1.19-1.07h-0.97V0h-0.45v19.47H27.09V0h-0.45v19.47h-0.56
			c-0.64,0-1.16,0.47-1.19,1.07h-4.07c-1.95,0-3.54,1.5-3.54,3.35V66.6c0,1.85,1.59,3.35,3.54,3.35h74.13c1.95,0,3.54-1.5,3.54-3.35
			V23.89C98.49,22.04,96.9,20.54,94.94,20.54z M97.06,66.6c0,1.1-0.95,2-2.12,2H20.81c-1.17,0-2.12-0.9-2.12-2V23.89
			c0-1.1,0.95-2,2.12-2h74.13c1.17,0,2.12,0.9,2.12,2V66.6z"/>
	</g>
	<path style="fill:#2D4972;" d="M60.69,33.35L60.69,33.35l-0.18-0.23l0,0c-3.77-4.8-9.82-7.92-16.64-7.92
		c-6.49,0-12.29,2.82-16.08,7.24l0,0l-0.19,0.22l0,0c-2.78,3.33-4.44,7.54-4.44,12.11c0,3.83,1.17,7.41,3.18,10.43l0,0l0.08,0.12
		c0,0,0,0,0,0l0.08,0.12l0,0c3.69,5.36,10.09,8.91,17.37,8.91c11.44,0,20.71-8.76,20.71-19.58C64.58,40.51,63.14,36.56,60.69,33.35z
		 M29.48,31.17c1.87-1.77,4.05-3.15,6.47-4.12c2.51-1,5.17-1.51,7.92-1.51c2.75,0,5.41,0.51,7.92,1.51c2.42,0.97,4.6,2.36,6.47,4.12
		c0.71,0.67,1.37,1.39,1.96,2.14l-2.34,1.62c-3.18-4.04-8.27-6.65-14.01-6.65c-5.46,0-10.34,2.37-13.54,6.08l-2.26-1.71
		C28.51,32.14,28.98,31.65,29.48,31.17z M44.05,45.06l6.6,3.95c-0.3,0.43-0.65,0.83-1.04,1.2c-0.75,0.71-1.62,1.26-2.58,1.65
		c-0.95,0.38-1.95,0.58-2.98,0.6V45.06z M44.13,44.77l6.39-4.41c0.33,0.44,0.61,0.92,0.84,1.42c0.42,0.95,0.64,1.95,0.64,2.99
		c0,1.04-0.21,2.04-0.64,2.99c-0.16,0.35-0.34,0.68-0.54,1L44.13,44.77z M43.87,44.6l-6.26-4.73c0.16-0.18,0.33-0.36,0.51-0.52
		c0.75-0.71,1.62-1.26,2.58-1.65c1-0.4,2.07-0.6,3.16-0.6c1.1,0,2.16,0.2,3.16,0.6c0.97,0.39,1.84,0.94,2.58,1.65
		c0.26,0.25,0.51,0.51,0.73,0.79L43.87,44.6z M43.64,44.79l-6.69,4.03c-0.22-0.33-0.41-0.68-0.57-1.05
		c-0.42-0.95-0.64-1.95-0.64-2.99c0-1.04,0.21-2.04,0.64-2.99c0.27-0.61,0.62-1.18,1.05-1.69L43.64,44.79z M43.75,45.06v7.39
		c-1.05-0.01-2.08-0.22-3.04-0.6c-0.97-0.39-1.84-0.94-2.58-1.65c-0.38-0.36-0.71-0.74-1-1.15L43.75,45.06z M43.75,52.59V57
		c-1.7-0.01-3.36-0.34-4.91-0.96c-1.54-0.62-2.92-1.5-4.11-2.62c-0.63-0.59-1.18-1.24-1.66-1.93L37,49.13
		C38.46,51.19,40.93,52.55,43.75,52.59z M44.05,52.59c2.81-0.06,5.28-1.44,6.73-3.51l3.94,2.36c-0.49,0.71-1.06,1.38-1.7,1.98
		c-1.19,1.12-2.57,2-4.11,2.62c-1.54,0.62-3.17,0.94-4.85,0.96V52.59z M50.94,48.84c0.76-1.18,1.2-2.58,1.2-4.07
		c0-1.67-0.56-3.22-1.5-4.49l3.77-2.6c0.55,0.73,1.01,1.51,1.38,2.33c0.67,1.51,1.02,3.11,1.02,4.76c0,1.65-0.34,3.25-1.02,4.76
		c-0.26,0.58-0.56,1.13-0.91,1.66L50.94,48.84z M50.46,40.05c-1.51-1.88-3.9-3.09-6.59-3.09c-2.56,0-4.85,1.1-6.37,2.83l-3.64-2.75
		c0.27-0.31,0.56-0.61,0.86-0.9c1.19-1.12,2.57-2,4.11-2.62c1.59-0.64,3.29-0.96,5.03-0.96c1.75,0,3.44,0.32,5.03,0.96
		c1.54,0.62,2.92,1.5,4.11,2.62c0.44,0.42,0.84,0.86,1.21,1.32L50.46,40.05z M37.31,40.01c-1.08,1.32-1.72,2.97-1.72,4.77
		c0,1.51,0.45,2.92,1.24,4.11l-3.93,2.37c-0.36-0.55-0.68-1.12-0.95-1.72c-0.67-1.51-1.02-3.11-1.02-4.76
		c0-1.65,0.34-3.25,1.02-4.76c0.45-0.99,1.02-1.92,1.72-2.76L37.31,40.01z M30.7,44.78c0,2.42,0.73,4.68,2,6.6l-3.36,2.02
		c-0.49-0.73-0.91-1.5-1.27-2.31c-0.89-2-1.35-4.12-1.35-6.31c0-2.19,0.45-4.31,1.35-6.31c0.6-1.33,1.37-2.57,2.31-3.7l3.11,2.35
		C31.75,39.23,30.7,41.89,30.7,44.78z M32.87,51.61c2.33,3.35,6.33,5.57,10.88,5.61v3.76c-2.27-0.01-4.48-0.44-6.55-1.27
		c-2.04-0.82-3.88-1.98-5.45-3.47c-0.85-0.8-1.59-1.67-2.24-2.6L32.87,51.61z M44.05,57.22c4.55-0.06,8.54-2.3,10.86-5.66l3.37,2.01
		c-0.66,0.96-1.42,1.85-2.29,2.67c-1.57,1.49-3.41,2.66-5.45,3.47c-2.06,0.82-4.24,1.25-6.49,1.27V57.22z M55.07,51.31
		c1.24-1.9,1.96-4.14,1.96-6.54c0-2.69-0.9-5.18-2.44-7.22l3.22-2.22c0.74,0.97,1.36,2.02,1.86,3.13c0.89,2,1.35,4.12,1.35,6.31
		c0,2.19-0.45,4.31-1.35,6.31c-0.35,0.78-0.76,1.53-1.23,2.24L55.07,51.31z M54.41,37.32c-2.4-3.03-6.23-4.99-10.54-4.99
		c-4.11,0-7.77,1.78-10.19,4.56l-3.11-2.35c0.37-0.43,0.76-0.84,1.17-1.23c1.57-1.49,3.41-2.66,5.45-3.47
		c2.11-0.84,4.36-1.27,6.67-1.27c2.31,0,4.56,0.43,6.67,1.27c2.04,0.82,3.88,1.98,5.45,3.47c0.59,0.56,1.14,1.16,1.64,1.79
		L54.41,37.32z M25.12,52.26c-1.06-2.37-1.6-4.89-1.6-7.49c0-2.6,0.54-5.12,1.6-7.49c0.71-1.59,1.64-3.07,2.76-4.41l2.26,1.71
		c-2.33,2.8-3.73,6.34-3.73,10.19c0,3.22,0.98,6.23,2.67,8.77l-2.45,1.47C26.06,54.14,25.55,53.22,25.12,52.26z M29.48,58.38
		c-1.01-0.96-1.9-2-2.67-3.12l2.45-1.47c3.09,4.48,8.43,7.44,14.5,7.48v2.74c-2.7-0.01-5.33-0.52-7.8-1.51
		C33.52,61.53,31.35,60.14,29.48,58.38z M58.26,58.38c-1.87,1.77-4.05,3.15-6.47,4.12c-2.45,0.98-5.06,1.49-7.74,1.51v-2.74
		c6.08-0.06,11.41-3.05,14.48-7.55l2.45,1.47C60.2,56.33,59.29,57.4,58.26,58.38z M61.15,54.94l-2.45-1.47
		c1.66-2.53,2.63-5.51,2.63-8.7c0-3.59-1.21-6.9-3.27-9.61l2.34-1.62c0.88,1.16,1.63,2.41,2.22,3.74c1.06,2.37,1.6,4.89,1.6,7.49
		c0,2.6-0.54,5.12-1.6,7.49C62.2,53.2,61.71,54.09,61.15,54.94z"/>
	<path style="fill:#2D4972;" d="M40.85,28.97c0,0.6-0.51,1.08-1.15,1.08c-0.63,0-1.15-0.49-1.15-1.08c0-0.6,0.51-1.08,1.15-1.08
		C40.34,27.88,40.85,28.37,40.85,28.97z"/>
	<path style="fill:#2D4972;" d="M25.15,42.83c0,0.85-0.73,1.54-1.63,1.54c-0.9,0-1.63-0.69-1.63-1.54c0-0.85,0.73-1.54,1.63-1.54
		C24.42,41.29,25.15,41.98,25.15,42.83z"/>
	<path style="fill:#F47458;" d="M35.12,27.88c0,0.85-0.73,1.54-1.63,1.54c-0.9,0-1.63-0.69-1.63-1.54c0-0.85,0.73-1.54,1.63-1.54
		C34.39,26.34,35.12,27.03,35.12,27.88z"/>
	<path style="fill:#F47458;" d="M32.77,59.86c0,0.85-0.73,1.54-1.63,1.54c-0.9,0-1.63-0.69-1.63-1.54c0-0.85,0.73-1.54,1.63-1.54
		C32.04,58.32,32.77,59.01,32.77,59.86z"/>
	<path style="fill:#F47458;" d="M57.8,43.23c0,0.56-0.48,1.01-1.07,1.01c-0.59,0-1.07-0.45-1.07-1.01c0-0.56,0.48-1.01,1.07-1.01
		C57.32,42.22,57.8,42.68,57.8,43.23z"/>
	<path style="fill:#2D4972;" d="M53.07,43.55c0,0.56-0.48,1.01-1.07,1.01c-0.59,0-1.07-0.45-1.07-1.01c0-0.56,0.48-1.01,1.07-1.01
		C52.59,42.54,53.07,42.99,53.07,43.55z"/>
	<path style="fill:#F47458;" d="M36.81,44.56c0,0.56-0.48,1.01-1.07,1.01c-0.59,0-1.07-0.45-1.07-1.01c0-0.56,0.48-1.01,1.07-1.01
		C36.33,43.55,36.81,44.01,36.81,44.56z"/>
	<path style="fill:#2D4972;" d="M37.7,54.94c0,0.56-0.48,1.01-1.07,1.01c-0.59,0-1.07-0.45-1.07-1.01c0-0.56,0.48-1.01,1.07-1.01
		C37.22,53.93,37.7,54.38,37.7,54.94z"/>
	<path style="fill:#2D4972;" d="M46.63,32.55c0,0.56-0.48,1.01-1.07,1.01c-0.59,0-1.07-0.45-1.07-1.01c0-0.56,0.48-1.01,1.07-1.01
		C46.15,31.54,46.63,31.99,46.63,32.55z"/>
	<path style="fill:#F47458;" d="M56.98,32.95c0,0.56-0.48,1.01-1.07,1.01c-0.59,0-1.07-0.45-1.07-1.01c0-0.56,0.48-1.01,1.07-1.01
		C56.51,31.94,56.98,32.39,56.98,32.95z"/>
	<path style="fill:#2D4972;" d="M52.48,26.87c0,0.56-0.48,1.01-1.07,1.01c-0.59,0-1.07-0.45-1.07-1.01c0-0.56,0.48-1.01,1.07-1.01
		C52.01,25.86,52.48,26.31,52.48,26.87z"/>
	<g>
		<path style="fill:#2D4972;" d="M92.14,52.76H75.09c-1.06,0-1.93-0.82-1.93-1.83V27.02c0-1.01,0.87-1.83,1.93-1.83h17.05
			c1.06,0,1.93,0.82,1.93,1.83v23.91C94.07,51.94,93.21,52.76,92.14,52.76z M75.09,25.36c-0.97,0-1.76,0.75-1.76,1.67v23.91
			c0,0.92,0.79,1.67,1.76,1.67h17.05c0.97,0,1.76-0.75,1.76-1.67V27.02c0-0.92-0.79-1.67-1.76-1.67H75.09z"/>
	</g>
	<g>
		<path style="fill:#2D4972;" d="M82.58,61.97H55.91v-0.22h26.66c0.86,0,1.55-0.66,1.55-1.47v-7.58h0.23v7.58
			C84.36,61.22,83.56,61.97,82.58,61.97z"/>
	</g>
	<rect x="75.25" y="27.67" style="fill:#F47458;" width="17.42" height="2.07"/>
	<rect x="75.25" y="31.38" style="fill:#183658;" width="17.42" height="0.51"/>
	<rect x="75.25" y="33.33" style="fill:#6EA7CE;" width="17.42" height="0.51"/>
	<rect x="75.25" y="35.28" style="fill:#183658;" width="17.42" height="0.51"/>
	<rect x="75.25" y="37.22" style="fill:#6EA7CE;" width="17.42" height="0.51"/>
	<rect x="75.25" y="39.17" style="fill:#183658;" width="17.42" height="0.51"/>
	<rect x="75.25" y="41.12" style="fill:#183658;" width="17.42" height="0.51"/>
	<rect x="75.25" y="43.06" style="fill:#6EA7CE;" width="17.42" height="0.51"/>
	<rect x="75.25" y="45.01" style="fill:#183658;" width="17.42" height="0.51"/>
	<rect x="75.25" y="46.96" style="fill:#6EA7CE;" width="17.42" height="0.51"/>
	<rect x="75.25" y="48.9" style="fill:#183658;" width="17.42" height="0.51"/>
	<g>
		<path style="fill:#2D4972;" d="M70.19,60.27l-0.07-0.08c-0.1-0.11-2.42-2.75-2.46-4.05c-0.04-1.33,1.04-2.45,2.41-2.48l0,0
			c0.66-0.02,1.29,0.22,1.77,0.66c0.48,0.44,0.76,1.04,0.78,1.69c0.04,1.3-2.25,4.06-2.35,4.18L70.19,60.27z M70.07,53.84
			c-1.26,0.03-2.26,1.07-2.22,2.3c0.03,1.12,1.94,3.39,2.34,3.86c0.39-0.48,2.27-2.86,2.24-3.98c-0.02-0.6-0.27-1.16-0.72-1.57
			C71.26,54.04,70.68,53.82,70.07,53.84L70.07,53.84z M70.13,57.09c-0.56,0-1.03-0.44-1.05-0.99c-0.02-0.56,0.44-1.03,1.02-1.05
			c0.28-0.01,0.55,0.09,0.75,0.28c0.2,0.19,0.32,0.44,0.33,0.71c0.01,0.27-0.09,0.53-0.28,0.73c-0.19,0.2-0.45,0.31-0.73,0.32
			C70.15,57.09,70.14,57.09,70.13,57.09z M70.13,55.23c-0.01,0-0.02,0-0.02,0c-0.47,0.01-0.85,0.4-0.84,0.87
			c0.01,0.46,0.41,0.83,0.89,0.82h0c0.23-0.01,0.44-0.1,0.6-0.26c0.16-0.16,0.24-0.38,0.24-0.6c-0.01-0.23-0.1-0.44-0.27-0.59
			C70.56,55.31,70.35,55.23,70.13,55.23z"/>
	</g>
	<ellipse style="fill:#F47458;" cx="54.84" cy="61.4" rx="1.63" ry="1.54"/>
	<path style="fill:#F47458;" d="M70.95,61.82c0,0.43-0.37,0.77-0.82,0.77c-0.45,0-0.82-0.35-0.82-0.77c0-0.43,0.37-0.77,0.82-0.77
		C70.58,61.05,70.95,61.4,70.95,61.82z"/>
	<path style="opacity:0.8;fill:#FFFFFF;" d="M285.72,30.11c-0.35-1.68-1.71-2.93-3.34-2.93c-0.3,0-0.59,0.04-0.87,0.12
		c-0.8-1.9-2.55-3.21-4.57-3.21c-0.52,0-1.03,0.09-1.5,0.25c-1.09-1.99-3.07-3.32-5.32-3.32c-2.69,0-4.98,1.88-5.84,4.52
		c-0.61-0.38-1.32-0.59-2.07-0.59c-2.36,0-4.27,2.11-4.27,4.71c0,0.15,0.01,0.31,0.02,0.46H285.72z"/>
	<path style="opacity:0.8;fill:#FFFFFF;" d="M175.91,25.56c-0.53-2.53-2.57-4.41-5.02-4.41c-0.45,0-0.88,0.06-1.3,0.18
		c-1.21-2.85-3.83-4.83-6.86-4.83c-0.79,0-1.54,0.13-2.26,0.38c-1.64-2.99-4.61-4.99-8-4.99c-4.04,0-7.48,2.83-8.78,6.79
		c-0.92-0.57-1.98-0.89-3.12-0.89c-3.54,0-6.41,3.17-6.41,7.08c0,0.23,0.01,0.46,0.03,0.69H175.91z"/>
</g>
</svg>
