<?xml version="1.0" encoding="utf-8"?>
<!-- Generator: Adobe Illustrator 25.1.0, SVG Export Plug-In . SVG Version: 6.00 Build 0)  -->
<svg version="1.1" id="Слой_2" xmlns="http://www.w3.org/2000/svg" xmlns:xlink="http://www.w3.org/1999/xlink" x="0px" y="0px"
	 viewBox="0 0 300 265" style="enable-background:new 0 0 300 265;" xml:space="preserve">
<g>
	<rect x="0" y="5.19" style="fill:#BBBDBF;" width="233" height="151.96"/>
	<rect x="6.48" style="fill:#5C463C;" width="233.88" height="151.1"/>
	<rect x="9.83" style="fill:#7A5D52;" width="227.2" height="147.12"/>
	<g>
		<rect x="19.39" y="52.18" style="fill:#C7DDFA;" width="69.4" height="42.55"/>
		<rect x="88.9" y="52.18" style="fill:#C0D7F5;" width="69.4" height="42.55"/>
		<rect x="158.28" y="52.18" style="fill:#BCD3F2;" width="69.4" height="42.55"/>
		<rect x="158.37" y="95.02" style="fill:#C7DDFA;" width="69.4" height="42.55"/>
		<rect x="88.78" y="95.02" style="fill:#C0D7F5;" width="69.4" height="42.55"/>
		<rect x="19.47" y="10.01" style="fill:#BCD3F2;" width="69.4" height="42.55"/>
		<rect x="19.47" y="95.02" style="fill:#BCD3F2;" width="69.4" height="42.55"/>
		<rect x="158.37" y="10.01" style="fill:#C7DDFA;" width="69.4" height="42.55"/>
		<rect x="88.78" y="10.01" style="fill:#C0D7F5;" width="69.4" height="42.55"/>
		<rect x="19.11" y="9.64" style="fill:#AFCDFB;" width="208.29" height="127.93"/>
		<path style="fill:#699FF0;" d="M197.49,94.84c0,0-1.64,4.3-6.75,4.12c-5.11-0.09-5.65,4.3-5.38,7.6c0.27,3.29,0.82,5.77,5.02,4.76
			c4.2-1.1,5.02-1.92,8.75,1.65c3.74,3.57,10.58-1.74,10.12-5.12c-0.36-3.29-1.46-8.88-4.47-9.43
			C201.78,97.86,199.77,93.65,197.49,94.84z"/>
		<g>
			<path style="fill:#A8D29F;" d="M201.6,92.27c-1-0.09-1.82,1.01-2.01,2.65c-0.18,1.56-1.64,2.56-1.09,3.57
				c0.55,1.1,2.01,0.18,3.1,0.46c4.2,0.92,2.74-2.1,2.28-3.39C203.42,94.29,204.42,92.46,201.6,92.27z"/>
			<polygon style="fill:#AFCDFB;" points="201.6,95.48 201.14,101.24 202.05,101.24 			"/>
		</g>
		<g>
			<path style="fill:#A8D29F;" d="M192.93,94.2c-1-0.09-1.82,1.01-2.01,2.65c-0.18,1.56-1.64,2.56-1.09,3.57
				c0.55,1.1,2.01,0.18,3.1,0.46c4.2,0.92,2.74-2.1,2.28-3.39C194.76,96.3,195.67,94.47,192.93,94.2z"/>
			<polygon style="fill:#AFCDFB;" points="192.93,97.49 192.48,103.16 193.3,103.16 			"/>
		</g>
		<path style="fill:#699FF0;" d="M59.33,32.43c0,0-8.39,0.82-10.4-2.93c-2.01-3.75-9.58-1.83-10.58,1.56
			c-0.91,3.29-7.93,6.95-5.84,9.7c2.19,2.75,12.95-1.46,13.95,1.92c0.91,3.29,0,6.04,3.37,9.97s-2.46,7.32-0.55,13.27
			c1.92,5.95,12.13,9.7,14.68,7.23s-0.36-6.59,3.65-8.05c4.01-1.46,13.41-3.93,14.23-8.42s1.46-12.45-4.2-11.35
			c-5.65,1.1-13.22,2.56-12.4-0.73C66.08,41.21,67.72,32.06,59.33,32.43z"/>
		<path style="fill:#699FF0;" d="M131.47,69.49c0,0-5.02,0.92-7.02-1.28c-2.01-2.29-5.84-1.28-8.39,0c-2.55,1.28-9.76,4.76-7.93,9.7
			c1.73,4.94,5.29,8.79,10.31,8.14c5.02-0.55,8.66,2.75,7.02,5.77c-1.64,3.11-1.19,7.23,1.46,10.43c2.74,3.2,6.66,8.6,10.4,5.31
			c3.74-3.29,5.11-6.86,7.93-9.7c2.83-2.84-0.55-9.24,1.46-11.07c2.01-1.92,2.01-5.12-3.56-5.77
			C137.67,80.29,134.29,68.57,131.47,69.49z"/>
		<path style="fill:#699FF0;" d="M94.62,89.44c0,0-6.38,0.55-7.57-1.74c-1.19-2.29-4.83-7.6-10.12-6.5
			c-5.29,1.1-11.58,3.29-11.31,6.04c0.27,2.75,6.93,11.71,5.02,15.92c-1.92,4.3,7.57,21.41,11.31,18.3
			c3.74-3.11,0.27-8.88,3.56-11.07c3.28-2.29,2.83-12.26,4.74-12.99C92.07,96.67,99.09,89.62,94.62,89.44z"/>
		<path style="fill:#F1A34F;" d="M102.83,31.05c-2.83,0-5.11,2.01-5.11,4.39c0,2.47,5.11,7.87,5.11,7.87s5.11-5.4,5.11-7.87
			C107.85,33.07,105.57,31.05,102.83,31.05z M102.83,37.55c-1.28,0-2.37-0.92-2.37-2.1s1.09-2.1,2.37-2.1s2.37,0.92,2.37,2.1
			S104.11,37.55,102.83,37.55z"/>
		<path style="fill:#F1A34F;" d="M134.47,97.12c-1.82,0-3.28,1.28-3.28,2.84s3.28,5.12,3.28,5.12s3.28-3.48,3.28-5.12
			C137.67,98.41,136.21,97.12,134.47,97.12z M134.47,101.24c-0.82,0-1.55-0.64-1.55-1.37s0.64-1.37,1.55-1.37
			c0.82,0,1.55,0.64,1.55,1.37C135.93,100.69,135.3,101.24,134.47,101.24z"/>
		<path style="fill:#EBF3FA;" d="M78.57,19.71c0,0-2.83,3.57-6.75,4.39c-3.92,0.82-7.39,3.29-4.83,5.67
			c2.55,2.38,3.37,6.95,8.12,7.78c4.74,0.73,10.67-9.06,10.58-11.44C85.41,23.73,81.03,17.33,78.57,19.71z"/>
		<path style="fill:#F1A34F;" d="M59.6,47.25c-2.83,0-5.11,2.01-5.11,4.39c0,2.47,5.11,7.87,5.11,7.87s5.11-5.4,5.11-7.87
			C64.71,49.26,62.43,47.25,59.6,47.25z M59.6,53.75c-1.28,0-2.37-0.92-2.37-2.1s1.09-2.1,2.37-2.1c1.28,0,2.37,0.92,2.37,2.1
			C61.97,52.83,60.97,53.75,59.6,53.75z"/>
		<path style="fill:#699FF0;" d="M177.16,27.39c0,0-6.48,4.21-12.4,2.56c-5.84-1.56-12.59,8.14-16.42,8.88
			c-3.83,0.73-11.95,8.69-15.59,5.12c-3.65-3.57-16.23,3.39-13.77,6.59s-12.4,12.08-7.66,13.45c4.65,1.46,20.7-5.31,22.25,0
			c1.64,5.31,4.47,14.18,11.76,11.9c7.3-2.29,15.59-3.29,16.6,0.37c1,3.66,2.83,8.33,5.84,6.41c3.01-1.92,6.29-8.51,9.3-6.59
			c3.01,1.92,17.24-5.49,16.6-11.16C193.21,59.24,202.23,21.99,177.16,27.39z"/>
		<g>
			<g>
				<polygon style="fill:#AFCDFB;" points="169.77,63.91 155.18,63.72 161.2,53.75 162.93,50.82 164.84,54.39 				"/>
				<path style="fill:#E9F3FE;" d="M164.84,54.39c-0.36,0-0.73-0.37-1.28-0.27c-0.64,0.09-1.09,0.55-1.55,0
					c-0.18-0.18-0.46-0.27-0.82-0.37l1.73-2.93L164.84,54.39z"/>
			</g>
			<g>
				<polygon style="fill:#AFCDFB;" points="161.56,63.91 150.53,63.81 155.09,56.13 156.45,53.93 157.82,56.68 				"/>
				<path style="fill:#E9F3FE;" d="M157.82,56.68c-0.27,0-0.55-0.27-1-0.27c-0.55,0-0.82,0.46-1.19,0
					c-0.09-0.18-0.36-0.27-0.64-0.27l1.37-2.2L157.82,56.68z"/>
			</g>
		</g>
		<g>
			<path style="fill:#A8D29F;" d="M164.39,39.84c0.64,0,1.64-0.27,1.64-0.27c-2.19-1.01-3.28-4.12-3.28-4.12s-1.09,3.2-3.28,4.12
				c0,0,0.91,0.27,1.64,0.27c0,0-0.64,1.56-2.1,1.83c0,0,2.92,0.55,3.74,0c0.82,0.55,3.74,0,3.74,0
				C165.03,41.49,164.39,39.84,164.39,39.84z"/>
			<polygon style="fill:#A9453D;" points="162.75,40.3 162.38,43.13 163.2,43.13 			"/>
		</g>
		<g>
			<path style="fill:#A8D29F;" d="M170.13,43.77c0.64,0,1.64-0.27,1.64-0.27c-2.19-1.01-3.28-4.12-3.28-4.12s-1.09,3.2-3.28,4.12
				c0,0,0.91,0.27,1.64,0.27c0,0-0.64,1.56-2.1,1.83c0,0,2.92,0.55,3.74,0c0.82,0.55,3.74,0,3.74,0
				C170.68,45.33,170.13,43.77,170.13,43.77z"/>
			<polygon style="fill:#A9453D;" points="168.49,44.14 168.13,47.07 168.95,47.07 			"/>
		</g>
		<g>
			<path style="fill:#A8D29F;" d="M158.28,44.23c0.64,0,1.64-0.27,1.64-0.27c-2.19-1.01-3.28-4.12-3.28-4.12s-1.09,3.2-3.28,4.12
				c0,0,0.91,0.27,1.64,0.27c0,0-0.64,1.56-2.1,1.83c0,0,2.92,0.55,3.74,0c0.82,0.55,3.74,0,3.74,0
				C158.92,45.79,158.28,44.23,158.28,44.23z"/>
			<polygon style="fill:#A9453D;" points="156.64,44.6 156.27,47.53 157.09,47.53 			"/>
		</g>
		<path style="fill:#699FF0;" d="M94.99,73.24c0,0,3.01-4.03,6.84-4.85c0,0-5.93,4.3-5.2,7.32c0,0-4.38-3.2-5.65-2.56
			C90.97,73.15,93.25,72.42,94.99,73.24z"/>
		<path style="fill:#699FF0;" d="M87.23,71.5c0,0,1.92-2.56,4.38-3.02c0,0-3.74,2.75-3.37,4.67c0,0-2.83-2.01-3.56-1.65
			C84.68,71.41,86.14,70.95,87.23,71.5z"/>
		<path style="fill:#699FF0;" d="M123.08,116.89c-1.09,0.37-3.92,1.92-3.92,1.92c-1.64-0.37-4.29-0.73-7.2-0.92
			c0.18-0.37,0.46-1.01,0.09-1.01c-0.27,0-1.37,0.64-2.01,1.01c-1.82,0-3.74,0.09-5.56,0.46c-1.28,0.18-3.1,1.56,0,2.01
			c2.74,0.37,7.3,0.46,14.68-0.73l0,0l2.55,1.01c0,0-0.36-0.64-0.73-1.28C120.7,118.54,123.08,116.89,123.08,116.89z"/>
		<path style="fill:#699FF0;" d="M47.29,100.97c-0.82,0.27-2.92,1.46-2.92,1.46c-1.28-0.27-3.19-0.55-5.38-0.64
			c0.09-0.27,0.27-0.73,0.09-0.73c-0.18,0-1,0.46-1.46,0.73c-1.37,0-2.74,0.09-4.1,0.27c-0.91,0.18-2.28,1.19,0,1.46
			c2.01,0.27,5.47,0.37,10.94-0.55l0,0l1.92,0.73c0,0-0.27-0.46-0.55-1.01C45.47,102.16,47.29,100.97,47.29,100.97z"/>
		<path style="fill:#699FF0;" d="M54.04,106.46c-0.82,0.27-2.92,1.46-2.92,1.46c-1.28-0.27-3.19-0.55-5.38-0.64
			c0.09-0.27,0.27-0.73,0.09-0.73s-1,0.46-1.46,0.73c-1.37,0-2.74,0.09-4.1,0.27c-0.91,0.18-2.28,1.19,0,1.46
			c2.01,0.27,5.47,0.37,10.94-0.55l0,0l1.92,0.73c0,0-0.27-0.46-0.55-1.01C52.21,107.65,54.04,106.46,54.04,106.46z"/>
		<g>
			<ellipse style="fill:#FFFFFF;" cx="216.27" cy="20.65" rx="9.26" ry="9"/>
			<g>
				<g>
					<polygon style="fill:#CFDCE5;" points="216.37,13.85 215.58,20.65 216.96,20.65 					"/>
					<polygon style="fill:#CFDCE5;" points="216.27,27.35 216.96,20.65 215.58,20.65 					"/>
				</g>
				<g>
					<polygon style="fill:#CFDCE5;" points="223.26,20.55 216.27,19.85 216.27,21.15 					"/>
					<polygon style="fill:#CFDCE5;" points="209.38,20.45 216.27,21.15 216.27,19.85 					"/>
				</g>
				<g>
					<polygon style="fill:#CFDCE5;" points="220.7,24.45 216.47,20.25 216.07,20.75 					"/>
					<polygon style="fill:#CFDCE5;" points="211.84,16.55 216.07,20.75 216.47,20.25 					"/>
				</g>
				<g>
					<polygon style="fill:#CFDCE5;" points="212.43,24.85 216.66,20.75 216.17,20.25 					"/>
					<polygon style="fill:#CFDCE5;" points="220.51,16.15 216.17,20.25 216.66,20.75 					"/>
				</g>
				<g>
					<polygon style="fill:#699FF0;" points="217.95,14.05 215.68,20.45 216.96,20.75 					"/>
					<polygon style="fill:#C65447;" points="214.6,27.15 216.96,20.75 215.68,20.45 					"/>
					<path style="fill:#FFFFFF;" d="M215.78,20.45c0.1-0.3,0.39-0.5,0.69-0.4s0.49,0.4,0.39,0.6c-0.1,0.3-0.39,0.5-0.69,0.4
						C215.88,21.05,215.68,20.75,215.78,20.45z"/>
				</g>
			</g>
		</g>
	</g>
</g>
<g>
	<g>
		<rect x="280.08" y="207.81" style="fill:#B1765C;" width="10.2" height="57.19"/>
		<rect x="285.18" y="207.81" style="fill:#BF8E74;" width="10.2" height="57.19"/>
		<rect x="114.47" y="207.81" style="fill:#B1765C;" width="10.2" height="57.19"/>
		<rect x="105.58" y="157.29" style="fill:#BF8E74;" width="193.58" height="6.97"/>
		<rect x="109.37" y="164.26" style="fill:#BF8E74;" width="186.01" height="57.19"/>
		<rect x="109.37" y="207.81" style="fill:#BF8E74;" width="10.2" height="57.19"/>
		<rect x="109.37" y="164.26" style="fill:#BBAEAA;" width="186.01" height="2.32"/>
		
			<rect x="224.49" y="172.68" style="fill:none;stroke:#BBAEAA;stroke-width:1.1948;stroke-miterlimit:10;" width="66.04" height="17.42"/>
		
			<rect x="224.49" y="197.07" style="fill:none;stroke:#BBAEAA;stroke-width:1.1948;stroke-miterlimit:10;" width="66.04" height="17.42"/>
		<rect x="249.64" y="174.71" style="fill:#BBBDBF;" width="19.39" height="3.77"/>
		<rect x="251" y="174.98" style="fill:#CFD0D2;" width="16.66" height="1.62"/>
		<rect x="249.64" y="199.17" style="fill:#BBBDBF;" width="19.39" height="3.77"/>
		<rect x="251" y="199.44" style="fill:#CFD0D2;" width="16.66" height="1.62"/>
	</g>
	<g>
		<rect x="276.28" y="148.51" style="fill:#754C28;" width="3.25" height="8.4"/>
		<rect x="272.18" y="155.82" style="fill:#754C28;" width="11.44" height="1.48"/>
		<polygon style="fill:#593919;" points="276.28,152.38 279.52,152.38 282.47,155.82 273.33,155.82 		"/>
		
			<path style="fill:none;stroke:#603813;stroke-width:2.9537;stroke-linecap:round;stroke-linejoin:round;stroke-miterlimit:10;" d="
			M291.33,146.22c-12.28,6.03-27.34,1.38-33.64-10.39c-6.29-11.77-1.44-26.2,10.85-32.23"/>
		
			<line style="fill:none;stroke:#603813;stroke-width:2.9537;stroke-linecap:round;stroke-linejoin:round;stroke-miterlimit:10;" x1="267.72" y1="102.06" x2="292.37" y2="148.15"/>
		<path style="fill:#56B8D5;" d="M299.98,124.57c0,10.55-8.93,19.11-19.94,19.11c-11.01,0-19.94-8.56-19.94-19.11
			c0-10.56,8.93-19.11,19.94-19.11C291.05,105.46,299.98,114.02,299.98,124.57z"/>
		<g>
			<path style="fill:#005D50;" d="M293.7,129.98c-0.15,0.01-0.24,0.25-0.33,0.37c-0.2,0.27-0.41,0.42-0.69,0.59
				c-0.37,0.22-0.44,0.44-0.46,0.86c-0.01,0.35-0.14,0.59-0.23,0.9c-0.05,0.17-0.04,0.36,0.03,0.52c0.11,0.26,0.25,0.11,0.4,0.27
				v0.02c0.35,0.37,0.79-0.78,0.89-0.97c0.12-0.21,0.24-0.45,0.3-0.69c0.09-0.28,0.01-0.56,0.03-0.85c0.18,0.29,0.19-0.28,0.17-0.4
				C293.79,130.43,293.76,130.15,293.7,129.98z"/>
			<path style="fill:#005D50;" d="M293.97,111.04c-0.19,0.01-0.29-0.19-0.44-0.27c-0.31-0.17-0.74,0.07-1.07,0.1
				c-0.42,0.04-0.73-0.03-1.1,0.21c-0.16,0.11-0.3,0.28-0.47,0.12c-0.13-0.12-0.11-0.36-0.38-0.23c-0.2,0.1-0.08,0.26-0.17,0.42
				c-0.09,0.16-0.27,0.16-0.41,0.26c-0.17,0.12-0.17,0.18-0.4,0.16c-0.15-0.01-0.42-0.04-0.3-0.24c0.1-0.16,0.9,0.04,0.76-0.38
				c-0.07-0.21-0.66-0.36-0.85-0.39c-0.18-0.03-0.37-0.03-0.55-0.07c-0.19-0.03-0.25-0.09-0.39-0.17c-0.29-0.16-0.69-0.08-1-0.02
				c-0.3,0.06-0.67,0.13-0.96,0.23c-0.31,0.11-0.54,0.45-0.77,0.66c-0.24,0.22-0.51,0.39-0.77,0.6c-0.17,0.14-0.28,0.18-0.48,0.27
				c-0.15,0.07-0.28,0.14-0.28,0.32c0,0.14,0.12,0.34,0.19,0.46c0.12,0.22,0.19,0.2,0.4,0.11c0.35-0.14,0.6-0.11,0.78,0.26
				c0.07,0.14-0.03,0.41,0.11,0.52c0.1,0.08,0.32-0.02,0.41-0.12c0.12-0.13,0.05-0.24,0.1-0.39c0.06-0.15,0.24-0.31,0.34-0.43
				c0.15-0.2,0.07-0.17,0.04-0.38c-0.02-0.14,0.03-0.34,0.13-0.44c0.11-0.12,0.26-0.17,0.37-0.29c0.08-0.09,0.32-0.31,0.48-0.14
				c0.15,0.16-0.45,0.59-0.48,0.79c-0.07,0.45,0.46,0.4,0.77,0.33c0.15-0.03,0.39-0.18,0.55-0.13c0.2,0.07,0.16,0.22-0.02,0.25
				c-0.15,0.03-0.39-0.07-0.55,0c-0.21,0.1-0.01,0.22-0.05,0.39c-0.17,0.02-0.29-0.14-0.45-0.1c-0.21,0.05-0.15,0.28-0.15,0.44
				c0,0.54-0.44,0.17-0.81,0.25c-0.21,0.05-0.26,0.17-0.48,0.15c-0.15-0.01-0.32,0.02-0.46-0.03c-0.25-0.1-0.17-0.21-0.13-0.38
				c0.04-0.18-0.04-0.28-0.07-0.46c-0.24-0.04-0.44,0.35-0.41,0.54c0.04,0.32,0.17,0.4-0.26,0.42c-0.39,0.01-0.51,0.32-0.81,0.52
				c-0.26,0.18-0.53,0.41-0.83,0.55c-0.14,0.07-0.99-0.08-0.67,0.33c0.2,0.26,0.57,0.3,0.55,0.73c-0.03,0.44-0.5,0.23-0.83,0.21
				c-0.16-0.01-0.39-0.01-0.52,0.08c-0.18,0.12-0.12,0.26-0.15,0.44c-0.05,0.31-0.24,0.58-0.13,0.9c0.13,0.4,0.58-0.08,0.7,0.4
				l0.11-0.08c0.08,0.11,0.4,0.02,0.53-0.02c0.36-0.11,0.46-0.41,0.68-0.67c0.12-0.14,0.28-0.17,0.41-0.3
				c0.17-0.16,0.06-0.29,0.15-0.46c0.1-0.18,0.27-0.05,0.44-0.04c0.26,0.02,0.23-0.09,0.4-0.2c0.22-0.14,0.67,0.12,0.86,0.27
				c0.24,0.19,0.58,0.35,0.77,0.58c0.09,0.11,0.12,0.29-0.03,0.4c-0.11,0.09-0.41-0.09-0.46,0.09c-0.03,0.1,0.25,0.26,0.32,0.28
				c0.16,0.03,0.24-0.09,0.37-0.2c0.14-0.12,0.18-0.19,0.16-0.37c-0.02-0.24-0.05-0.22,0.24-0.23c-0.02-0.15-0.23-0.17-0.35-0.22
				c-0.15-0.07-0.17-0.15-0.28-0.25c-0.18-0.17-0.62-0.34-0.65-0.61c-0.07-0.47,0.59,0.01,0.72,0.11c0.25,0.2,0.64,0.36,0.8,0.64
				c0.09,0.16,0.06,0.35,0.14,0.51c0.07,0.12,0.2,0.2,0.25,0.33c0.06,0.15,0.03,0.38,0.26,0.4c0.27,0.02,0.14-0.22,0.11-0.35
				c0.24,0.04,0.14-0.11,0.1-0.21c-0.06-0.15-0.18-0.24-0.04-0.4c0.21-0.24,0.54-0.06,0.79-0.04c0.67,0.05-0.01-0.39,0.09-0.67
				c0.08-0.21,0.42-0.64,0.65-0.63c0.05,0,0.21,0.05,0.25,0.08c0.06,0.05,0.02,0.13,0.07,0.18c0.16,0.14,0.3-0.03,0.49-0.06
				c0.3-0.06,0.64,0.22,0.89,0.36c0.27,0.16,0.81,0.33,0.4,0.63c-0.32,0.23-0.64,0-1.03,0.02c-0.18,0.01-0.34,0.06-0.52,0.04
				c-0.18-0.02-0.36-0.07-0.55-0.02c-0.15,0.04-0.27,0.16-0.41,0.21c-0.21,0.07-0.36-0.05-0.32,0.19c0.05,0.34,0.15,0.63,0.56,0.63
				c0.35,0,0.7-0.07,1.05-0.08c0.27-0.01,0.3,0.03,0.27,0.26c-0.03,0.16-0.05,0.32-0.05,0.5c0,0.33-0.01,0.7-0.44,0.73
				c-0.35,0.02-0.74-0.04-1.11-0.04c-0.18,0-0.36,0.01-0.53-0.04c-0.16-0.04-0.32-0.12-0.5-0.15c-0.12-0.01-0.45-0.05-0.55,0.02
				c-0.09,0.06-0.02,0.14-0.09,0.21c-0.07,0.07-0.11,0.04-0.2,0.06c-0.43,0.11-0.48-0.14-0.81-0.32c-0.16-0.09-0.35-0.13-0.5-0.23
				c-0.15-0.1-0.14-0.22-0.26-0.36c-0.06-0.07-0.17-0.1-0.2-0.18c-0.03-0.07,0.03-0.18,0-0.25c-0.08-0.2-0.26-0.1-0.46-0.12
				c-0.34-0.05-0.66-0.04-1.03-0.03c-0.35,0.02-0.61,0.17-0.92,0.31c-0.15,0.07-0.29,0.18-0.46,0.17c-0.15,0-0.25-0.12-0.42-0.13
				c-0.36,0-0.52,0.33-0.74,0.57c-0.09,0.1-0.26,0.18-0.33,0.29c-0.1,0.15-0.02,0.32-0.08,0.49c-0.11,0.3-0.49,0.33-0.66,0.56
				l-0.09,0.11c-0.14,0.17-0.34,0.18-0.46,0.35c-0.15,0.2-0.18,0.48-0.3,0.69c-0.04,0.08-0.18,0.24-0.2,0.31
				c-0.03,0.13,0.07,0.21,0.11,0.32c0.08,0.24,0.09,0.48-0.02,0.71c-0.08,0.18-0.05,0.36-0.13,0.52c-0.09,0.19-0.17,0.24-0.14,0.48
				c0.05,0.4,0.53,0.6,0.8,0.86c0.29,0.28,0.69,0.39,0.83,0.77c0.11,0.3,0.06,0.41,0.42,0.39c0.2-0.01,0.41-0.08,0.61-0.09
				c0.19,0,0.34,0.06,0.52,0.06c0.26,0,0.52-0.07,0.76-0.17c0.35-0.14,0.75-0.33,1.05-0.02c0.16,0.18,0.24,0.3,0.48,0.35
				c0.22,0.04,0.3,0.02,0.42,0.21c0.24,0.36-0.08,0.71,0.02,1.09c0.08,0.31,0.46,0.59,0.64,0.86c0.12,0.18,0.05,0.33,0.09,0.52
				c0.04,0.19,0.17,0.35,0.23,0.53c0.13,0.4-0.16,0.69-0.23,1.06c-0.04,0.22-0.12,0.46-0.11,0.68c0,0.19,0.08,0.36,0.11,0.55
				c0.04,0.19,0.07,0.39,0.17,0.56c0.1,0.15,0.28,0.26,0.32,0.44c0.09,0.34-0.01,0.71,0.11,1.04c0.06,0.16,0.19,0.23,0.29,0.36
				c0.09,0.12,0.14,0.28,0.21,0.42c0.14,0.28-0.03,0.7,0.31,0.82l0.11,0.23c0.19,0,0.31-0.05,0.46-0.12c0.2-0.09,0.28-0.04,0.5-0.05
				c0.35-0.02,0.65-0.28,0.92-0.46c0.31-0.22,0.56-0.4,0.77-0.7c0.09-0.13,0.15-0.32,0.15-0.47c0-0.15-0.11-0.3,0-0.44
				c0-0.01,0-0.03,0-0.04c0.25-0.14,0.73-0.22,0.67-0.63c-0.02-0.18-0.2-0.27-0.18-0.46c0.02-0.17,0.18-0.33,0.28-0.47
				c0.14-0.17,0.27-0.36,0.45-0.48c0.16-0.11,0.34-0.15,0.46-0.31c0.23-0.33,0.11-0.7,0.16-1.07c0.04-0.26,0-0.25-0.13-0.48
				c-0.08-0.14-0.13-0.3-0.08-0.44c0.03-0.08,0.11-0.06,0.11-0.18c0-0.09-0.1-0.11-0.11-0.19c-0.04-0.18,0.08-0.3,0.14-0.46
				c0.07-0.17,0.09-0.3,0.21-0.44c0.12-0.15,0.27-0.27,0.42-0.4c0.31-0.27,0.54-0.6,0.87-0.84c0.54-0.39,0.75-1.2,0.88-1.81
				c0.03-0.17,0.15-0.33-0.03-0.4c-0.15-0.06-0.36,0.02-0.49,0.08c-0.3,0.15-0.63,0.34-0.98,0.32c-0.38-0.02-0.56-0.32-0.64-0.64
				c-0.15-0.08-0.17-0.21-0.28-0.33c-0.1-0.12-0.26-0.17-0.35-0.3c-0.09-0.13-0.09-0.3-0.18-0.42c-0.13-0.18-0.22-0.18-0.26-0.4
				c-0.03-0.17,0-0.32-0.1-0.48c-0.11-0.16-0.25-0.16-0.38-0.27c-0.33-0.28-0.27-0.62-0.39-0.97c-0.06-0.17-0.31-0.76-0.11-0.9
				c0.15,0.16,0.2,0.25,0.38,0.19c0.2-0.07,0.21-0.16,0.34,0.08c0.15,0.27,0.21,0.46,0.43,0.7c0.23,0.24,0.43,0.52,0.56,0.81
				c0.08,0.18,0.08,0.34,0.13,0.52c0.05,0.18,0.15,0.2,0.29,0.33c0.23,0.2,0.5,0.47,0.54,0.76c0.04,0.3-0.14,0.76,0.35,0.75
				c0.32-0.01,0.69-0.25,1-0.34c0.44-0.13,0.59-0.39,0.91-0.69c0.29-0.27,0.59-0.46,0.68-0.83c0.02-0.1,0.01-0.14,0.06-0.23
				c0.06-0.09,0.19-0.11,0.18-0.25c-0.01-0.12-0.21-0.23-0.3-0.32c-0.11-0.1-0.2-0.22-0.29-0.31c-0.17-0.16-0.2-0.08-0.31,0.08
				c-0.17,0.24-0.72,0.36-0.93,0.1c-0.14-0.17-0.04-0.32-0.29-0.45c-0.18-0.09-0.34-0.08-0.4-0.3c-0.07-0.27-0.09-0.91,0.37-0.63
				c0.14,0.08,0.17,0.23,0.26,0.34c0.1,0.14,0.26,0.3,0.4,0.41c0.28,0.21,0.65,0.05,0.89,0.29c0.14,0.13,0.14,0.17,0.34,0.22
				c0.14,0.04,0.31,0.09,0.46,0.12c0.39,0.07,0.74-0.19,1.13-0.16c0.3,0.02,0.56,0.21,0.72,0.42c0.12,0.14,0.06,0.29,0.19,0.43
				c0.1,0.1,0.32,0.25,0.46,0.22c0.04-0.13,0.09-0.27,0.24-0.23c0.26,0.07,0.2,0.42,0.22,0.59c0.04,0.38,0.37,0.8,0.53,1.15
				c0.16,0.36,0.17,0.77,0.27,1.16c0.05,0.2,0.29,0.33,0.44,0.34c0.01-0.21,0.02-0.42,0.02-0.63c0-5.31-2.26-10.11-5.9-13.57
				C294.1,111.02,294.06,111.04,293.97,111.04z"/>
			<path style="fill:#005D50;" d="M281.63,114.05c-0.1,0.05-0.16,0.16-0.24,0.22c-0.13,0.09-0.29,0.05-0.41,0.14
				c-0.07,0.06-0.13,0.21-0.07,0.32c0.06,0.12,0.25,0.08,0.24,0.21c0,0,0,0.01,0,0.01h0.1c0.17-0.13,0.48-0.2,0.54-0.44
				c0.02-0.07,0.01-0.13,0.04-0.19c0.03-0.07,0.09-0.05,0.09-0.14C281.92,114.02,281.75,114,281.63,114.05z"/>
			<path style="fill:#005D50;" d="M280.72,111.36c0.01-0.16-0.17-0.18-0.28-0.13c-0.1,0.05-0.16,0.16-0.25,0.22
				c-0.12,0.09-0.29,0.05-0.41,0.14c-0.08,0.06-0.49,0.23-0.44,0.33c0.06,0.11,0.25,0.08,0.24,0.2c0,0.01,0.36,0,0.36,0h0.1
				c0.17-0.13,0.77-0.11,0.83-0.34c0.02-0.07-0.03-0.17,0-0.24C280.91,111.48,280.71,111.44,280.72,111.36z"/>
			<path style="fill:#005D50;" d="M281.99,113.87c0.06,0.1,0.18,0.13,0.2,0.24c0.02,0.11-0.07,0.21-0.09,0.31
				c-0.02,0.11,0.03,0.26-0.03,0.36c-0.09,0.14-0.17,0.13-0.19,0.32l0.1,0.06c0.05-0.07,0.25-0.03,0.35-0.06
				c0.12-0.03,0.19-0.15,0.31-0.19c0.09-0.03,0.32,0.03,0.39-0.02c0.13-0.11-0.1-0.21-0.13-0.29c-0.01-0.05,0.05-0.1,0.03-0.17
				c-0.03-0.09-0.05-0.05-0.11-0.1c-0.06-0.05-0.2-0.12-0.21-0.22c-0.02-0.11,0.06-0.1,0.08-0.17c0.02-0.09-0.01-0.06-0.02-0.15
				c-0.01-0.09-0.02-0.06,0-0.14c0.02-0.06,0.09-0.08,0.07-0.16c-0.03-0.16-0.24-0.06-0.31-0.19c0.09-0.05,0.19-0.17,0.06-0.26
				c-0.1-0.07-0.28,0.02-0.36,0.09C281.95,113.3,281.86,113.67,281.99,113.87z"/>
			<path style="fill:#005D50;" d="M279.61,110.92c0.05-0.11-0.1-0.21,0.08-0.29c0.13-0.05,0.28,0.1,0.34-0.05
				c0.06-0.14-0.17-0.19-0.12-0.33c0.05-0.14,0.28-0.07,0.4-0.08c0.27-0.03,0.28-0.22,0.3-0.45c0.15-0.06,0.19-0.13,0.21-0.27
				c0.02-0.18,0.03-0.25,0.21-0.34c0.23-0.13,0.51-0.16,0.72-0.28c0.06-0.04,0.26-0.15,0.23-0.24c-0.03-0.09-0.29-0.05-0.38-0.05
				c-0.37,0.01-0.73,0.16-1.11,0.14c-0.69-0.03-1.33-0.3-2.03-0.3c-0.44,0-0.9,0.04-1.32,0.17c-0.41,0.13-0.82,0.15-1.25,0.2
				c-0.21,0.02-0.38,0.08-0.6,0.08c-0.22,0-0.4,0.05-0.6,0.11c-0.29,0.09-0.57,0.25-0.85,0.29c-0.2,0.03-0.74,0.06-0.36,0.34
				c0.2,0.15,0.46,0.11,0.7,0.15c0.16,0.02,0.34,0.11,0.48,0.2c0.21,0.15,0.06,0.18,0.05,0.36c-0.01,0.21,0.18,0.13,0.3,0.21
				c0.19,0.13-0.09,0.14-0.19,0.17c-0.01,0.13,0.02,0.2-0.08,0.28c-0.09,0.07-0.18,0.08-0.26,0.18c-0.15,0.21-0.18,0.44-0.2,0.69
				c-0.01,0.21,0.18,1.24,0.51,1.08l0.11-0.03c0.17,0.38,0.6,0.09,0.77-0.1c0.1-0.11,0.15-0.23,0.27-0.33
				c0.12-0.1,0.27-0.16,0.4-0.26c0.13-0.1,0.19-0.21,0.28-0.33c0.1-0.12,0.23-0.14,0.39-0.17c0.29-0.06,0.59-0.03,0.83-0.22
				c0.29-0.22,0.53-0.3,0.91-0.31C278.95,111.14,279.51,111.14,279.61,110.92z"/>
			<path style="fill:#005D50;" d="M274.54,108.77c0.28-0.07,0.54-0.18,0.82-0.24c0.09-0.21-0.59-0.12-0.7-0.12
				c-0.37-0.02-0.72,0.01-1.08,0.05c-0.57,0.05-1.17-0.08-1.72,0c-0.14,0.02-0.67,0.07-0.43,0.27c0.11,0.09,0.67,0.03,0.51,0.29
				c-0.09,0.14-0.52,0.18-0.68,0.22c-0.24,0.05-0.46,0.11-0.7,0.17l-0.13,0.05c0.11-0.05,0.27,0.08,0.39,0.1
				c0.14,0.02,0.26-0.03,0.39-0.03c0.24-0.01,0.6,0.14,0.82,0.05c0.09-0.04,0.2-0.2,0.31-0.25c0.13-0.07,0.27-0.09,0.41-0.13
				c0.18-0.05,0.34-0.08,0.54-0.09c0.18-0.01,0.24-0.09,0.39-0.15C273.95,108.82,274.27,108.84,274.54,108.77z"/>
			<path style="fill:#005D50;" d="M270.31,109.13c0.12,0.03,0.3,0.04,0.42,0.02c0.14-0.03,0.26-0.07,0.41-0.09
				c0.07-0.01,0.13-0.02,0.2-0.02c0.06,0,0.14,0.03,0.19,0.02c0.03-0.01,0.06-0.03,0.08-0.04l0.03-0.07
				c-0.1-0.08-0.25-0.12-0.36-0.19c-0.12-0.08-0.27-0.09-0.42-0.05c-0.09,0.02-0.16,0.07-0.25,0.1c-0.07,0.02-0.14,0.04-0.22,0.05
				c-0.06,0.01-0.38-0.03-0.39,0.04C270,108.95,270.25,109.11,270.31,109.13z"/>
			<path style="fill:#005D50;" d="M272.69,111.28c-0.16-0.06-0.36-0.05-0.45-0.21c-0.07-0.13-0.02-0.17,0.07-0.27
				c0.18-0.21-0.38-0.42-0.55-0.47c-0.11-0.03-0.23-0.06-0.35-0.06c-0.16,0-0.28-0.04-0.43,0.01c-0.08,0.03-0.22,0.11-0.29,0.03
				c-0.06-0.08-0.02-0.17-0.15-0.2c-0.13-0.02-0.22,0.1-0.31,0.16c-0.09,0.06-0.18,0.11-0.28,0.13c-0.04-0.08-0.03-0.16,0.02-0.23
				c0.06-0.08,0.09-0.12-0.05-0.13c-0.16-0.02-0.36,0.15-0.47,0.25c-0.07,0.07-0.13,0.18-0.06,0.26c0.07,0.1,0.24,0.12,0.35,0.13
				c0.23,0.02,0.47,0.04,0.69-0.01c0.08-0.02,0.18-0.06,0.26-0.03c0.03,0.01,0.03,0.04,0.07,0.04c0.05,0,0.06-0.02,0.1-0.04
				c0.18-0.07,0.25,0.17,0.34,0.28c0.14,0.17,0.18,0.37-0.01,0.52c-0.08,0.06-0.15,0.1-0.21,0.17c-0.06,0.08-0.1,0.09-0.21,0.09
				c-0.02,0-0.04,0-0.07,0l-0.17-0.05c-0.08-0.03-0.19-0.06-0.28-0.06c-0.11-0.01-0.15,0.04-0.23,0.1
				c-0.23,0.16,0.04,0.24,0.22,0.24c0.23,0,0.38-0.02,0.55,0.13c0.15,0.14,0.27,0.28,0.47,0.36c0.07,0.03,0.26,0.12,0.34,0.07
				c0.11-0.07-0.03-0.18-0.04-0.25c-0.01-0.08,0.1-0.07,0.17-0.06c0.11,0.02,0.18,0.02,0.26-0.08c0.14-0.19,0.05-0.3-0.02-0.5
				c-0.03-0.09,0.03-0.19,0.14-0.17c0.11,0.01,0.13,0.16,0.23,0.21C272.61,111.77,273.07,111.41,272.69,111.28z"/>
			<path style="fill:#005D50;" d="M271.21,109.93c-0.07,0.02-0.11,0.09-0.08,0.16c0.03,0.06,0.15,0.08,0.21,0.09l0.04,0.07
				c0.07,0,0.13-0.07,0.21-0.09c0.06-0.01,0.14,0,0.19-0.02c0.06-0.03,0.07-0.09,0-0.13c-0.05-0.02-0.13-0.01-0.18-0.02
				C271.48,109.97,271.34,109.89,271.21,109.93z"/>
			<path style="fill:#005D50;" d="M269.6,109.99l0.03-0.05c-0.15-0.02-0.31,0.01-0.46-0.02c-0.03-0.01-0.15-0.04-0.16-0.04
				c-0.03,0.01-0.03,0.05-0.04,0.07c-0.03,0.02-0.06,0.03-0.09,0.05c-0.07,0.03-0.26,0.16-0.16,0.24c0.09,0.07,0.26-0.04,0.35-0.05
				c0.12-0.02,0.19,0.02,0.3-0.04C269.45,110.12,269.57,110.08,269.6,109.99z"/>
			<path style="fill:#005D50;" d="M270.3,109.87c0.11,0,0.23-0.02,0.33,0c0.1,0.02,0.19,0.09,0.3,0.09l0.07,0.01
				c0.03-0.09,0.28-0.08,0.36-0.14c0.05-0.03,0.12-0.13,0.09-0.19c-0.03-0.07-0.14-0.06-0.21-0.06c-0.09,0-0.18,0.04-0.27,0.06
				c-0.13,0.03-0.24,0.02-0.37,0c-0.16-0.03-0.36-0.04-0.5-0.12c-0.09-0.05-0.16-0.08-0.24,0.02c-0.07,0.09-0.08,0.16-0.19,0.22
				C269.79,109.91,270.12,109.87,270.3,109.87z"/>
			<path style="fill:#005D50;" d="M268.31,109.95c-0.11,0.02-0.21,0.05-0.33,0.03c-0.1-0.02-0.13-0.03-0.19,0.08
				c-0.05,0.09-0.07,0.12-0.18,0.14c-0.12,0.02-0.1,0.07-0.02,0.16c0.07,0.08,0.17,0.14,0.29,0.13l-0.02-0.02
				c0.15,0.04,0.34-0.03,0.45-0.13c0.06-0.05,0.08-0.11,0.13-0.17c0.03-0.05,0.11-0.11,0.09-0.18
				C268.51,109.91,268.38,109.94,268.31,109.95z"/>
			<path style="fill:#005D50;" d="M269.02,109.58c0.07-0.01,0.15-0.01,0.11-0.11c-0.05-0.13-0.27-0.11-0.38-0.07
				c-0.05,0.02-0.09,0.06-0.14,0.09c-0.06,0.03-0.12,0.04-0.17,0.08l0.04,0.03c-0.02,0.05,0.14,0.09,0.19,0.1
				c0.07,0,0.11-0.02,0.17-0.05C268.9,109.62,268.94,109.6,269.02,109.58z"/>
			<path style="fill:#005D50;" d="M269.14,111.7c-0.07-0.12-0.24-0.17-0.33-0.02c-0.05,0.07-0.05,0.13-0.13,0.18
				c-0.06,0.04-0.21,0.09-0.21,0.18c-0.01,0.12,0.12,0.1,0.21,0.1c0.12,0,0.18-0.03,0.27-0.1c0.07-0.05,0.13-0.05,0.2-0.02
				c0.06,0.02,0.15,0.13,0.22,0.09c0.07-0.04-0.01-0.18-0.05-0.22C269.25,111.82,269.19,111.79,269.14,111.7z"/>
			<polygon style="fill:#005D50;" points="268.46,112.05 268.46,112.05 268.46,112.04 			"/>
			<path style="fill:#005D50;" d="M267.41,109.83c0.06-0.01,0.43-0.06,0.29-0.17c-0.03-0.02-0.07,0-0.1-0.02
				c-0.01-0.01-0.01-0.01-0.02-0.01c-0.1,0.08-0.2,0.15-0.3,0.23c0.07,0,0.13-0.01,0.18-0.03L267.41,109.83z"/>
			<path style="fill:#005D50;" d="M266.55,110.93l0.17,0.06c0.12-0.03,0.28-0.11,0.37-0.19c0.14-0.14-0.11-0.21-0.07-0.37
				c0.02-0.07,0.09-0.11,0.1-0.19c0.01-0.08-0.05-0.13-0.13-0.14c-0.28,0.23-0.55,0.47-0.81,0.71c0.01,0,0.02,0,0.02,0
				C266.3,110.85,266.47,110.83,266.55,110.93z"/>
			<path style="fill:#005D50;" d="M272.07,114.84c-0.17,0.2-0.26,0.47-0.51,0.59c-0.11,0.05-0.21,0.07-0.28,0.17
				c-0.07,0.09-0.09,0.17,0.02,0.21c0.07,0.02,0.21,0.03,0.28,0c0.09-0.03,0.15-0.11,0.25-0.12c0.07-0.01,0.19,0.03,0.26,0.05
				c0.08,0.03,0.14,0.1,0.23,0.12c0.27,0.09,0.19-0.14,0.22-0.28c0.01-0.07,0.02-0.18,0.05-0.25c0.03-0.07,0.14-0.15-0.02-0.15
				c-0.06,0-0.11,0.05-0.16,0.06l-0.09,0.05c-0.22,0.06-0.3-0.17-0.16-0.31c0.05-0.05,0.17-0.1,0.14-0.19
				c-0.01-0.05-0.04-0.05-0.07-0.05c-0.03,0.02-0.07,0.04-0.11,0.06C272.09,114.81,272.08,114.82,272.07,114.84z"/>
			<path style="fill:#005D50;" d="M260.99,123.22c0.33,0.23,0.68,0.33,1.07,0.31c0.34-0.02,0.51,0.3,0.83,0.42
				c0.34,0.12,0.54,0.19,0.74,0.51c0.09,0.15,0.07,0.29,0.18,0.44c0.1,0.13,0.28,0.23,0.42,0.32c0.13,0.08,0.29,0.19,0.44,0.22
				c0.21,0.05,0.22-0.04,0.38-0.12c0.43-0.21,0.43,0.39,0.43,0.64c0,0.21-0.03,0.29-0.13,0.46l-0.2,0.38
				c0.03,0.02,0.07,0.02,0.04,0.08c-0.3,0.09-0.24,0.21-0.34,0.47c-0.1,0.25-0.02,0.35-0.03,0.61c0,0.2-0.17,0.2-0.22,0.36
				c-0.04,0.13,0.13,0.32,0.19,0.44c0.08,0.14,0.15,0.35,0.27,0.48c0.16,0.17,0.29,0.23,0.41,0.44c0.16,0.3,0.2,0.72,0.44,0.97
				c0.21,0.22,0.55,0.33,0.79,0.5c0.31,0.21,0.65,0.69,0.68,1.05c0.04,0.52,0,1.01-0.02,1.53c-0.03,0.59,0.16,1.11,0.13,1.7
				c-0.02,0.52,0.05,0.95,0.18,1.44c0.11,0.4,0.46,0.56,0.59,0.98c0.14,0.43,0.28,0.87,0.48,1.28c0.15,0.32,0.32,0.85,0.74,0.84
				c0.27-0.01,0.21-0.04,0.36,0.2c0.12,0.2,0.27,0.16,0.41,0.28h-0.04c0.13,0,0.46,0.08,0.57,0c0.19-0.14-0.1-0.25-0.22-0.32
				c-0.31-0.16-0.54-0.39-0.71-0.68c-0.19-0.34,0.36-0.55,0.21-0.84c-0.09-0.16-0.84-0.16-0.6-0.48c0.07-0.09,0.22-0.09,0.29-0.18
				l-0.07-0.13c0.12-0.27-0.01-0.27-0.13-0.49c-0.03-0.06-0.08-0.21-0.05-0.29c0.06-0.13,0.16-0.06,0.26-0.1
				c0.18-0.08,0.19-0.25,0.35-0.36c0.16-0.11,0.48-0.07,0.59-0.25c0.21-0.34-0.72-0.77-0.11-0.8c0.2-0.01,0.38,0.04,0.57,0.04
				c0.25,0.01,0.26-0.08,0.35-0.27c0.08-0.17,0.15-0.32,0.2-0.5c0.03-0.13,0.04-0.17,0.13-0.27c0.05-0.06,0.14-0.09,0.2-0.15
				c0.09-0.1,0.21-0.34,0.22-0.48c0.02-0.17-0.1-0.33-0.05-0.5c0.08-0.27,0.46-0.57,0.74-0.61c0.18-0.03,0.38,0.05,0.52-0.08
				c0.12-0.11,0.15-0.29,0.27-0.41c0.15-0.15,0.27-0.19,0.3-0.4c0.03-0.18-0.01-0.37-0.02-0.54c-0.01-0.4,0.06-0.65,0.22-1
				c0.08-0.18,0.08-0.34,0.2-0.5c0.1-0.14,0.26-0.24,0.36-0.38c0.1-0.15,0.07-0.34,0.07-0.52c0-0.24-0.05-0.25-0.21-0.42
				c-0.25-0.26-0.44-0.41-0.81-0.5c-0.37-0.09-0.69-0.11-0.98-0.36c-0.3-0.25-0.65-0.1-0.96-0.28c-0.11-0.06-0.32-0.21-0.37-0.33
				c-0.06-0.14-0.08-0.28-0.16-0.42c-0.16-0.27-0.25-0.61-0.58-0.73c-0.28-0.11-0.75,0.02-0.91-0.23c-0.09-0.15-0.1-0.24-0.25-0.36
				c-0.11-0.09-0.25-0.15-0.36-0.24c-0.12-0.11-0.16-0.25-0.3-0.33c-0.15-0.08-0.32-0.07-0.48-0.05c-0.16,0.02-0.36,0.09-0.53,0.04
				c-0.13-0.03-0.29-0.16-0.41-0.22c-0.18-0.09-0.29-0.15-0.44,0c-0.11,0.11-0.05,0.37-0.23,0.34c0.01-0.11,0.05-0.26-0.09-0.31
				c-0.03-0.19,0.16-0.2,0.15-0.35c-0.25,0.13-0.54,0.18-0.8,0.29c-0.16,0.07-0.25,0.15-0.31,0.3c-0.04,0.11-0.03,0.18-0.11,0.28
				c-0.05,0.06-0.13,0.09-0.18,0.16l-0.13-0.15c-0.12-0.35-0.55,0-0.79-0.08c-0.27-0.09-0.42-0.4-0.41-0.65
				c0.01-0.24,0.12-0.72-0.09-0.86c-0.21-0.14-0.66-0.01-0.91-0.09c-0.04-0.23,0.22-0.41,0.33-0.58c0.06-0.09,0.08-0.21,0.13-0.31
				c0.04-0.08,0.14-0.21,0.16-0.29c0.07-0.34-0.3-0.22-0.51-0.19c-0.35,0.04-0.33,0.23-0.41,0.52v0.04
				c-0.2,0.19-0.83,0.34-1.07,0.15c-0.13-0.1-0.1-0.38-0.12-0.52c-0.04-0.19-0.09-0.35-0.09-0.54c0-0.18,0.06-0.35,0.13-0.52
				c0.06-0.15,0.1-0.38,0.18-0.52c0.11-0.19,0.59-0.48,0.83-0.55c0.33-0.09,0.58,0.22,0.88-0.01c0.18-0.14,0.21-0.16,0.45-0.21
				c0.19-0.04,0.35-0.09,0.55-0.07c0.49,0.06,0.33,0.49,0.37,0.84c0.05,0.51,0.56,0.5,0.66,0c0.04-0.21-0.05-0.38-0.03-0.59
				c0.03-0.25,0.17-0.35,0.34-0.52c0.22-0.22,0.37-0.41,0.61-0.59c0.21-0.16,0.41-0.36,0.53-0.59c0.22-0.43,0.65-0.75,1.08-1.02
				c0.21-0.13,0.39-0.21,0.57-0.38c0.16-0.15,0.3-0.27,0.48-0.38c0.17-0.11,0.34-0.19,0.52-0.24c-0.07,0.35,0.11,0.37,0.41,0.28
				c0.26-0.07,0.74-0.07,0.38-0.34c-0.13-0.1-0.22-0.08-0.18-0.3c0.02-0.11,0.18-0.27,0.13-0.38c-0.09-0.19-0.64-0.08-0.83-0.09
				c-0.09-0.4,0.72-0.28,0.94-0.27c0.18,0.01,0.37,0.04,0.55,0c0.18-0.04,0.34-0.15,0.5-0.24c0.15-0.07,0.32-0.1,0.46-0.16
				c0.04-0.02,0.07-0.03,0.11-0.06c0.08-0.06,0.13-0.14,0.11-0.28c-0.04-0.36-0.51-0.43-0.57-0.8c-0.06-0.36,0.08-0.91-0.48-0.61
				c-0.13,0.07-0.37,0.16-0.5,0.05c-0.12-0.11-0.07-0.28-0.19-0.4c-0.17-0.16-0.61-0.4-0.85-0.29c-0.11,0.05-0.25,0.36-0.33,0.46
				c-0.09,0.12-0.32,0.24-0.37,0.36c-0.03,0.08,0.04,0.17,0.02,0.25c-0.02,0.1-0.12,0.18-0.19,0.25c-0.15,0.14-0.36,0.21-0.49,0.38
				c-0.14,0.18-0.16,0.31-0.37,0.44c-0.14,0.09-0.29,0.2-0.43,0.29c-0.06-0.13-0.04-0.36,0-0.5c0.06-0.25,0.14-0.24-0.11-0.38
				c-0.27-0.16-0.6-0.33-0.92-0.35c-0.2-0.01-0.37,0.03-0.39-0.19c-0.01-0.1,0.07-0.15,0.07-0.23c-0.01-0.1-0.08-0.15-0.09-0.23
				c-0.03-0.32,0.58-0.45,0.83-0.56c0.2-0.09,0.41-0.13,0.61-0.19c0.19-0.06,0.33-0.18,0.5-0.3c0.29-0.2,0.61-0.4,0.94-0.52
				c0.29-0.1,0.66,0.07,0.81-0.31c0.18-0.48-0.56,0.15-0.68,0.2c-0.18,0.08-0.36,0.05-0.27-0.18c-0.05-0.01-0.09-0.05-0.15-0.05
				c0.03-0.17-0.12-0.2-0.26-0.19c-0.06-0.1,0-0.2,0.08-0.26c-0.45-0.18-0.48,0.34-0.74,0.52c-0.31,0.22-0.6,0.05-0.96,0.14
				c-0.18,0.04-0.36,0.11-0.55,0.09c-0.16-0.02-0.32-0.13-0.5-0.16c-3.13,3.06-5.2,7.12-5.63,11.63c0.12,0.06,0.26,0.1,0.39,0.14
				C260.77,123.01,260.83,123.1,260.99,123.22z"/>
			<path style="fill:#005D50;" d="M265.79,121.85c-0.14-0.07-0.24-0.2-0.38-0.26c-0.14-0.06-0.3-0.02-0.46-0.02
				c-0.14,0-0.32-0.03-0.46,0.01c-0.14,0.04-0.32,0.22-0.09,0.3l0.17-0.02c0.14,0.03,0.2-0.1,0.35-0.09c0.07,0.01,0.2,0.1,0.27,0.13
				c0.26,0.09,0.42,0.12,0.48,0.38c0.05,0.22,0.09,0.15,0.31,0.14c0.11-0.01,0.37,0.05,0.45-0.03
				C266.62,122.18,265.92,121.92,265.79,121.85z"/>
			<path style="fill:#005D50;" d="M267.07,122.3c-0.07-0.03-0.13-0.08-0.22-0.05c-0.12,0.04-0.05,0.01-0.06,0.09
				c-0.03,0.21,0.07,0.23-0.18,0.31c-0.07,0.02-0.16-0.02-0.16,0.08c0,0.06,0.13,0.11,0.18,0.13c0.14,0.04,0.52,0.04,0.6,0
				c0.07-0.04,0.07-0.07,0.17-0.08c0.13-0.02,0.35,0.06,0.37-0.11C267.78,122.47,267.23,122.37,267.07,122.3z"/>
		</g>
		<path style="fill:#CCDDE6;" d="M285.31,137.76c-11.01,0-19.94-8.56-19.94-19.11c0-3.32,0.89-6.45,2.44-9.17
			c-4.69,3.5-7.71,8.95-7.71,15.09c0,10.55,8.93,19.11,19.94,19.11c7.55,0,14.11-4.02,17.5-9.94
			C294.16,136.26,289.92,137.76,285.31,137.76z"/>
		<path style="fill:#A2DDF8;" d="M297.37,116.95c2.86,6.45,0.65,13.52-4.94,15.8c-5.59,2.28-12.44-1.1-15.3-7.55
			c-2.86-6.45-0.65-13.52,4.94-15.8C287.66,107.12,294.51,110.5,297.37,116.95z"/>
	</g>
	<g>
		<g>
			<path style="fill:#BDA790;" d="M240.57,144.91c-3.37,0-29.55,0-29.55,0v-5.71c0,0,26.97,0,29.55,0
				C244.03,139.21,243.95,144.91,240.57,144.91z"/>
			<path style="fill:#E7E1C2;" d="M239.7,144.91c-3.27,0-28.67,0-28.67,0v-4.26c0,0,26.16,0,28.67,0
				C243.05,140.65,242.97,144.91,239.7,144.91z"/>
			<path style="fill:#019BC2;" d="M241.52,139.01c-2.71,0-30.17,0-30.95,0c-0.78,0-0.46,1,0,1s27.11,0,29.52,0
				c3.52,0,3.43,4.09,0,4.09c-3.14,0-28.98,0-29.52,0c-0.54,0-0.6,1,0,1s27.42,0,30.95,0S245.14,139.01,241.52,139.01z"/>
			<g>
				<polygon style="fill:#BDA790;" points="211.02,141.14 217.14,141.38 211.02,141.63 				"/>
			</g>
			<g>
				<polygon style="fill:#BDA790;" points="211.02,142.06 214.6,142.31 211.02,142.56 				"/>
			</g>
			<g>
				<polygon style="fill:#BDA790;" points="211.02,143.11 225.19,143.35 211.02,143.6 				"/>
			</g>
			<g>
				<path style="fill:#BDA790;" d="M217.14,142.31c0,0,1.28-0.08,3.19-0.14c0.96-0.02,2.07-0.07,3.27-0.08
					c1.2-0.01,2.47-0.02,3.75-0.03c1.28,0.01,2.55,0.02,3.75,0.03c1.2,0.01,2.31,0.05,3.27,0.08c1.92,0.06,3.19,0.14,3.19,0.14
					s-1.28,0.08-3.19,0.14c-0.96,0.02-2.07,0.07-3.27,0.08c-1.2,0.01-2.47,0.02-3.75,0.03c-1.28-0.01-2.55-0.02-3.75-0.03
					c-1.2-0.01-2.31-0.05-3.27-0.08C218.42,142.39,217.14,142.31,217.14,142.31z"/>
			</g>
			<g>
				<path style="fill:#BDA790;" d="M238.81,141.38c0,0-0.56,0.08-1.4,0.14c-0.84,0.06-1.96,0.1-3.07,0.11
					c-1.12,0-2.24-0.04-3.07-0.11c-0.84-0.06-1.4-0.14-1.4-0.14s0.56-0.08,1.4-0.14c0.84-0.06,1.96-0.1,3.07-0.11
					c1.12,0,2.24,0.04,3.07,0.11C238.26,141.31,238.81,141.38,238.81,141.38z"/>
			</g>
			<g>
				<path style="fill:#BDA790;" d="M241.52,143.35c0,0-0.6,0.08-1.51,0.14c-0.91,0.06-2.11,0.1-3.32,0.11
					c-1.21,0-2.41-0.04-3.32-0.11c-0.9-0.06-1.51-0.14-1.51-0.14s0.6-0.08,1.51-0.14c0.91-0.06,2.11-0.1,3.32-0.11
					c1.21,0,2.41,0.04,3.32,0.11C240.92,143.28,241.52,143.35,241.52,143.35z"/>
			</g>
		</g>
		<g>
			<path style="fill:#BDA790;" d="M213.17,138.95c3.37,0,29.55,0,29.55,0v-5.71c0,0-26.97,0-29.55,0
				C209.72,133.25,209.8,138.95,213.17,138.95z"/>
			<path style="fill:#E7E1C2;" d="M214.05,138.95c3.27,0,28.67,0,28.67,0v-4.26c0,0-26.16,0-28.67,0
				C210.7,134.7,210.78,138.95,214.05,138.95z"/>
			<path style="fill:#F05A28;" d="M212.23,133.05c2.71,0,30.17,0,30.95,0c0.78,0,0.46,1,0,1c-0.46,0-27.11,0-29.52,0
				c-3.52,0-3.43,4.09,0,4.09c3.14,0,28.98,0,29.52,0c0.54,0,0.6,1,0,1c-0.6,0-27.42,0-30.95,0
				C208.7,139.15,208.61,133.05,212.23,133.05z"/>
			<g>
				<polygon style="fill:#BDA790;" points="242.73,135.67 236.6,135.43 242.73,135.18 				"/>
			</g>
			<g>
				<polygon style="fill:#BDA790;" points="242.73,136.6 239.15,136.35 242.73,136.1 				"/>
			</g>
			<g>
				<polygon style="fill:#BDA790;" points="242.73,137.64 228.56,137.39 242.73,137.15 				"/>
			</g>
			<g>
				<path style="fill:#BDA790;" d="M236.6,136.35c0,0-1.28,0.08-3.19,0.14c-0.96,0.02-2.07,0.07-3.27,0.08
					c-1.2,0.01-2.47,0.02-3.75,0.03c-1.28-0.01-2.55-0.02-3.75-0.03c-1.2-0.01-2.31-0.05-3.27-0.08c-1.92-0.06-3.19-0.14-3.19-0.14
					s1.28-0.08,3.19-0.14c0.96-0.02,2.07-0.07,3.27-0.08c1.2-0.01,2.47-0.02,3.75-0.03c1.28,0.01,2.55,0.02,3.75,0.03
					c1.2,0.01,2.31,0.05,3.27,0.08C235.33,136.27,236.6,136.35,236.6,136.35z"/>
			</g>
			<g>
				<path style="fill:#BDA790;" d="M214.94,135.43c0,0,0.56-0.08,1.4-0.14c0.84-0.06,1.96-0.1,3.07-0.11c1.12,0,2.24,0.04,3.07,0.11
					c0.84,0.06,1.4,0.14,1.4,0.14s-0.56,0.08-1.4,0.14c-0.84,0.06-1.96,0.1-3.07,0.11c-1.12,0-2.24-0.04-3.07-0.11
					C215.49,135.5,214.94,135.43,214.94,135.43z"/>
			</g>
			<g>
				<path style="fill:#BDA790;" d="M212.23,137.39c0,0,0.6-0.08,1.51-0.14c0.9-0.06,2.11-0.1,3.32-0.11c1.21,0,2.41,0.04,3.32,0.11
					c0.9,0.06,1.51,0.14,1.51,0.14s-0.6,0.08-1.51,0.14c-0.9,0.06-2.11,0.1-3.32,0.11c-1.21,0-2.41-0.04-3.32-0.11
					C212.83,137.47,212.23,137.39,212.23,137.39z"/>
			</g>
		</g>
		<g>
			<path style="fill:#BDA790;" d="M243.6,151.01c-3.37,0-29.55,0-29.55,0v-5.71c0,0,26.97,0,29.55,0
				C247.06,145.3,246.97,151.01,243.6,151.01z"/>
			<path style="fill:#E7E1C2;" d="M242.72,151.01c-3.27,0-28.67,0-28.67,0v-4.26c0,0,26.16,0,28.67,0
				C246.08,146.75,245.99,151.01,242.72,151.01z"/>
			<path style="fill:#008A7D;" d="M244.55,145.11c-2.71,0-30.31,0-30.95,0c-0.64,0-0.66,1,0,1c0.67,0,27.12,0,29.52,0
				c3.52,0,3.43,4.09,0,4.09c-3.14,0-28.98,0-29.52,0s-0.6,1,0,1s27.42,0,30.95,0S248.17,145.11,244.55,145.11z"/>
			<g>
				<polygon style="fill:#BDA790;" points="214.05,147.23 220.17,147.48 214.05,147.72 				"/>
			</g>
			<g>
				<polygon style="fill:#BDA790;" points="214.05,148.16 217.63,148.4 214.05,148.65 				"/>
			</g>
			<g>
				<polygon style="fill:#BDA790;" points="214.05,149.2 228.22,149.45 214.05,149.69 				"/>
			</g>
			<g>
				<path style="fill:#BDA790;" d="M220.17,148.4c0,0,1.28-0.08,3.19-0.14c0.96-0.02,2.07-0.07,3.27-0.08
					c1.2-0.01,2.47-0.02,3.75-0.03c1.28,0.01,2.55,0.02,3.75,0.03c1.2,0.01,2.31,0.05,3.27,0.08c1.91,0.06,3.19,0.14,3.19,0.14
					s-1.28,0.08-3.19,0.14c-0.96,0.02-2.07,0.07-3.27,0.08c-1.2,0.01-2.47,0.02-3.75,0.03c-1.28-0.01-2.55-0.02-3.75-0.03
					c-1.2-0.01-2.31-0.05-3.27-0.08C221.45,148.48,220.17,148.4,220.17,148.4z"/>
			</g>
			<g>
				<path style="fill:#BDA790;" d="M241.84,147.48c0,0-0.56,0.08-1.4,0.14c-0.84,0.06-1.96,0.1-3.07,0.11
					c-1.12,0-2.24-0.04-3.07-0.11c-0.84-0.06-1.4-0.14-1.4-0.14s0.56-0.08,1.4-0.14c0.84-0.06,1.96-0.1,3.07-0.11
					c1.12,0,2.24,0.04,3.07,0.11C241.28,147.4,241.84,147.48,241.84,147.48z"/>
			</g>
			<g>
				<path style="fill:#BDA790;" d="M244.55,149.45c0,0-0.6,0.08-1.51,0.14c-0.91,0.06-2.11,0.1-3.32,0.11
					c-1.21,0-2.41-0.04-3.32-0.11c-0.9-0.06-1.51-0.14-1.51-0.14s0.6-0.08,1.51-0.14c0.91-0.06,2.11-0.1,3.32-0.11
					c1.21,0,2.41,0.04,3.32,0.11C243.94,149.37,244.55,149.45,244.55,149.45z"/>
			</g>
		</g>
		<g>
			<path style="fill:#BDA790;" d="M239.51,157.1c-3.37,0-29.55,0-29.55,0v-5.71c0,0,26.97,0,29.55,0
				C242.97,151.39,242.88,157.1,239.51,157.1z"/>
			<path style="fill:#E7E1C2;" d="M238.63,157.1c-3.27,0-28.67,0-28.67,0v-4.26c0,0,26.16,0,28.67,0
				C241.98,152.84,241.9,157.1,238.63,157.1z"/>
			<path style="fill:#0F4767;" d="M240.45,151.2c-2.71,0-30.31,0-30.95,0c-0.64,0-0.66,1,0,1c0.67,0,27.12,0,29.52,0
				c3.52,0,3.43,4.09,0,4.09c-3.14,0-28.98,0-29.52,0c-0.54,0-0.6,1,0,1s27.42,0,30.95,0C243.98,157.29,244.08,151.2,240.45,151.2z"
				/>
			<g>
				<polygon style="fill:#BDA790;" points="209.96,153.32 216.08,153.57 209.96,153.82 				"/>
			</g>
			<g>
				<polygon style="fill:#BDA790;" points="209.96,154.25 213.53,154.5 209.96,154.75 				"/>
			</g>
			<g>
				<polygon style="fill:#BDA790;" points="209.96,155.29 224.13,155.54 209.96,155.79 				"/>
			</g>
			<g>
				<path style="fill:#BDA790;" d="M216.08,154.5c0,0,1.28-0.08,3.19-0.14c0.96-0.02,2.07-0.07,3.27-0.08
					c1.2-0.01,2.47-0.02,3.75-0.03c1.28,0.01,2.55,0.02,3.75,0.03c1.2,0.01,2.31,0.05,3.27,0.08c1.92,0.06,3.19,0.14,3.19,0.14
					s-1.28,0.08-3.19,0.14c-0.96,0.02-2.07,0.07-3.27,0.08c-1.2,0.01-2.47,0.02-3.75,0.03c-1.28-0.01-2.55-0.02-3.75-0.03
					c-1.2-0.01-2.31-0.05-3.27-0.08C217.36,154.58,216.08,154.5,216.08,154.5z"/>
			</g>
			<g>
				<path style="fill:#BDA790;" d="M237.75,153.57c0,0-0.56,0.08-1.4,0.14c-0.84,0.06-1.96,0.1-3.07,0.11
					c-1.12,0-2.24-0.04-3.07-0.11c-0.84-0.06-1.4-0.14-1.4-0.14s0.56-0.08,1.4-0.14c0.84-0.06,1.96-0.1,3.07-0.11
					c1.12,0,2.24,0.04,3.07,0.11C237.19,153.5,237.75,153.57,237.75,153.57z"/>
			</g>
			<g>
				<path style="fill:#BDA790;" d="M240.45,155.54c0,0-0.6,0.08-1.51,0.14c-0.91,0.06-2.11,0.1-3.32,0.11
					c-1.21,0-2.41-0.04-3.32-0.11c-0.9-0.06-1.51-0.14-1.51-0.14s0.6-0.08,1.51-0.14c0.91-0.06,2.11-0.1,3.32-0.11
					c1.21,0,2.41,0.04,3.32,0.11C239.85,155.46,240.45,155.54,240.45,155.54z"/>
			</g>
			<polygon style="fill:#EC1C24;" points="233.72,156.83 231.87,155.79 229.63,156.83 229.63,153.57 233.72,153.57 			"/>
		</g>
	</g>
	<g>
		<polygon style="fill:#C2451A;" points="139.17,155.95 109.84,155.81 117.38,151.5 137.58,150.75 		"/>
		<polygon style="fill:#B7B9BB;" points="139.17,155.95 112.31,154.97 117.91,152.06 137.02,152.25 		"/>
		<path style="fill:#D0D2D3;" d="M139.17,155.95c0,0-10.37-4.04-26.22-1.73c2.22-1.31,3.72-2.15,6.21-3.8
			c2.49-1.65,18.32,0.95,18.32,0.95L139.17,155.95z"/>
		<path style="fill:#E6E7E8;" d="M139.17,155.95c0,0-10.93-6.57-26.22-3.63c1.29-0.77,3.13-1.86,6.21-3.8
			c3.08-1.94,18.32,2.85,18.32,2.85L139.17,155.95z"/>
		<path style="fill:#F1F1F2;" d="M139.16,155.95c0,0-14.01-9.53-24.93-5.8c1.26-0.72,5.16-2.95,6.21-3.49
			c8.78-4.46,17.03,5.09,17.03,5.09L139.16,155.95z"/>
		<path style="fill:#FFFFFF;" d="M139.17,155.95c0,0-11.67-12.27-22.59-8.88c1.26-0.66,5.16-2.69,6.22-3.18
			c8.79-4.06,15.62,6.85,15.62,6.85L139.17,155.95z"/>
		<rect x="109.84" y="155.81" style="fill:#F16522;" width="29.42" height="1.45"/>
		<polygon style="fill:#C2451A;" points="138.42,155.95 167.74,155.81 160.2,151.5 140,150.75 		"/>
		<polygon style="fill:#8E9BA2;" points="138.42,155.95 165.28,154.97 159.67,152.06 140.97,152.3 		"/>
		<path style="fill:#A9B6BE;" d="M138.42,155.95c0,0,10.37-4.04,26.22-1.73c-2.22-1.31-3.72-2.15-6.21-3.8
			c-2.49-1.65-18.32,0.95-18.32,0.95L138.42,155.95z"/>
		<path style="fill:#BDCCD4;" d="M138.42,155.95c0,0,10.93-6.57,26.22-3.63c-1.29-0.77-3.13-1.86-6.21-3.8
			c-3.09-1.94-18.32,2.85-18.32,2.85L138.42,155.95z"/>
		<path style="fill:#D0DFE8;" d="M138.41,155.95c0,0,14.02-9.54,24.93-5.83c-1.26-0.72-5.15-2.95-6.21-3.49
			c-8.78-4.45-17.04,5.11-17.04,5.11L138.41,155.95z"/>
		<path style="fill:#FFFFFF;" d="M138.42,155.95c0,0,11.71-12.3,22.62-8.93c-1.26-0.65-5.15-2.68-6.21-3.17
			c-8.78-4.04-16.41,6.89-16.41,6.89V155.95z"/>
		<rect x="138.32" y="155.81" style="fill:#F16522;" width="29.42" height="1.45"/>
		<path style="fill:#FFDD15;" d="M136.14,156.91c0-1.28,1.08-2.31,2.42-2.31s2.41,1.04,2.41,2.31H136.14z"/>
		<path style="fill:#AF4913;" d="M137.02,156.91c0-0.81,0.69-1.47,1.53-1.47c0.85,0,1.53,0.66,1.53,1.47H137.02z"/>
		<rect x="136.14" y="156.91" style="fill:#F16522;" width="4.83" height="0.87"/>
	</g>
	<g>
		<ellipse style="fill:#FFFFFF;" cx="200.29" cy="145.13" rx="11.96" ry="11.63"/>
		<g>
			<path style="fill:#2F2D2C;" d="M200.31,157.28c-0.35,0-0.74,0-1.08-0.04c-3.34-0.29-6.33-1.77-8.49-4.25
				c-2.17-2.49-3.16-5.6-2.9-8.85c0.26-3.03,1.69-5.86,4.03-7.92c2.3-2.06,5.29-3.16,8.41-3.16c0.35,0,0.74,0,1.08,0.04
				c3.34,0.29,6.33,1.77,8.49,4.25c2.17,2.49,3.16,5.6,2.9,8.85c-0.26,3.03-1.69,5.86-4.03,7.92
				C206.43,156.14,203.44,157.28,200.31,157.28z M200.27,134.02c-5.89,0-10.92,4.47-11.4,10.2c-0.26,2.95,0.69,5.86,2.64,8.13
				c1.95,2.27,4.72,3.67,7.8,3.92c0.35,0.04,0.65,0.04,1,0.04c5.89,0,10.92-4.47,11.4-10.2c0.52-6.11-4.16-11.54-10.44-12.05
				C200.92,134.02,200.62,134.02,200.27,134.02z"/>
		</g>
		<g>
			<polygon style="fill:#CFDCE5;" points="201.27,135.67 199.36,145.06 201.31,145.23 			"/>
			<polygon style="fill:#CFDCE5;" points="199.4,154.62 201.31,145.23 199.36,145.06 			"/>
		</g>
		<g>
			<polygon style="fill:#CFDCE5;" points="210.11,145.95 200.44,144.09 200.27,145.95 			"/>
			<polygon style="fill:#CFDCE5;" points="190.61,144.09 200.27,145.95 200.44,144.09 			"/>
		</g>
		<g>
			<polygon style="fill:#CFDCE5;" points="206.08,151.09 200.66,144.68 199.97,145.36 			"/>
			<polygon style="fill:#CFDCE5;" points="194.55,138.95 199.97,145.36 200.66,144.68 			"/>
		</g>
		<g>
			<polygon style="fill:#CFDCE5;" points="194.33,150.62 200.88,145.4 200.23,144.68 			"/>
			<polygon style="fill:#CFDCE5;" points="206.77,139.42 200.23,144.68 200.88,145.4 			"/>
		</g>
		<g>
			<polygon style="fill:#699FF0;" points="203.52,136.13 199.4,144.85 201.27,145.44 			"/>
			<polygon style="fill:#C65447;" points="197.15,154.16 201.27,145.44 199.4,144.85 			"/>
			<path style="fill:#FFFFFF;" d="M199.62,144.93c0.13-0.38,0.56-0.59,0.95-0.46c0.39,0.13,0.61,0.55,0.48,0.93
				c-0.13,0.38-0.56,0.59-0.95,0.46C199.71,145.74,199.49,145.31,199.62,144.93z"/>
		</g>
	</g>
</g>
<g>
	<path style="fill:#FFAA78;" d="M104.38,85.7l12.68-7.16c0,0,2.79,0.27,6.05-0.27c3.26-0.55,3.99-0.58,3.6-3.09
		c-0.39-2.51,0.15-5.86-0.82-6.21c-0.98-0.36-7.89,2.48-9.09,4.4l-12.8,4.45L104.38,85.7z"/>
	<path style="fill:#FF7FFF;" d="M66.83,73.55v14.36c0,0,3.15,1.01,7.07,2.07c4.49,1.21,9.99,2.49,12.84,2.35
		c5.34-0.26,23.4-9.36,23.4-9.36l-3.28-6.07c0,0-19.71,6.52-22.17,6.05C82.22,82.48,66.83,73.55,66.83,73.55z"/>
	<path style="opacity:0.2;enable-background:new    ;" d="M66.83,80.54v7.37c0,0,3.15,1.01,7.07,2.07
		C72.45,85.71,68.85,82.22,66.83,80.54z"/>
	<path style="fill:#FFAA78;" d="M63.51,124.62c0,0,8.9,46.05,11.27,64.96c3.1,24.66,15.79,60.75,15.79,60.75l-5.07,1.27
		c0,0-17.89-30.66-21.37-58.25c-14.21-28.2-15.35-62.92-15.35-62.92L63.51,124.62z"/>
	<path d="M100.02,261.49c-0.82-0.37-1.7-0.58-2.61-0.64l0,0c0,0-3.12-1.78-6.21-8.71l-3.48-0.02c-1.2,0.01-2.27,0.76-2.67,1.86
		c-0.06,0.15-0.09,0.31-0.1,0.47c0.04,0.82,0.12,1.63,0.27,2.43c0.31,2.52,2.03,7.94,2.03,7.94l0.59-0.15l-1.07-5.04
		c-0.36-1.71,1.5-0.06,2.35,1.67c0.86,1.73,2.18,3.46,6.02,2.61C99.62,262.9,101.42,262.27,100.02,261.49z"/>
	<path style="fill:#FFAA78;" d="M54.27,123.89c0,0-1.1,46.84-2.81,65.82c-2.22,24.75,2.5,62.6,2.5,62.6l-5.23,0.23
		c0,0-10.97-33.59-8.5-61.28c-7.89-30.44-1.62-64.64-1.62-64.64L54.27,123.89z"/>
	<path d="M62.11,263.03c-0.78-0.45-1.63-0.76-2.52-0.91l0,0c0,0-2.9-2.1-5.2-9.31l-3.45-0.38c-1.2-0.11-2.34,0.51-2.86,1.57
		c-0.07,0.14-0.12,0.3-0.15,0.45c-0.06,0.81-0.06,1.63-0.01,2.45c0.03,2.54,1.14,8.11,1.14,8.11l0.6-0.08l-0.5-5.12
		c-0.16-1.74,1.49,0.1,2.16,1.9c0.66,1.81,1.78,3.67,5.69,3.23C61.55,264.39,63.42,263.96,62.11,263.03z"/>
	<path d="M36.58,44.22c0,0-2.61,0.14-4.8,4.29c-2.19,4.15,0.55,8.76,1.09,10.97c0.55,2.21,3.28,4.16-1.23,7.5s-7.22,6.89-3.56,10.5
		c3.66,3.61-0.36,6.39,4.95,9.05c5.31,2.66,24.75-1.33,27.21-6.51s-0.51-9.12-0.67-10.67c-0.16-1.55,3.13-3.13,3.95-8.19
		c0.82-5.06-3.38-6.15-3.95-8.46c-0.57-2.31,2.07-5.23,0-10.15S36.86,36.58,36.58,44.22z"/>
	<path style="fill:#FF7FFF;" d="M23.47,113.19c3.11,0.39,6.71-5.51,9.32-11.01c2.22-4.66,3.77-9.05,3.77-9.05l-1.64-4.5L30.63,76.9
		c0,0-3,4.06-7.51,19.51c-0.72,2.49-1.59,5.27-2.39,8.38c0,0,0.11,0.93-0.71,2.19v0.01C20.02,109.31,19.73,112.72,23.47,113.19z"/>
	<path style="opacity:0.2;enable-background:new    ;" d="M32.84,102.18c2.22-4.66,3.74-9.05,3.74-9.05l-1.65-4.5
		C33.79,91.74,32.11,97.38,32.84,102.18z"/>
	<path style="opacity:0.2;enable-background:new    ;" d="M20.02,106.98L20.02,106.98c1.64,1.06,3.36,1.04,4.32-0.88
		c1.95-3.88,0.07-7.72-1.27-9.69c-0.72,2.49-1.57,5.27-2.36,8.38C20.71,104.78,20.84,105.72,20.02,106.98z"/>
	<g>
		<path style="fill:#FF7FFF;" d="M69.01,111.65c0,0-16.39,5.71-32.08,4.65c0,0,1.42-18.82,9.63-22.16
			C54.78,90.79,69.01,95.58,69.01,111.65z"/>
		<path style="opacity:0.2;enable-background:new    ;" d="M69.01,111.65c0,0-16.39,5.71-32.08,4.65c0,0,1.42-18.82,9.63-22.16
			C54.78,90.79,69.01,95.58,69.01,111.65z"/>
	</g>
	<g>
		<path style="fill:#007CFF;" d="M66.69,112.99l-27.11,2.27c-0.43-6.54-0.85-11.53-2.88-19.32c-0.65-2.52-1.46-5.33-2.5-8.59
			c-0.56-1.74-1.17-3.6-1.86-5.61c-0.52-1.52-1.08-3.14-1.69-4.85c3.69-1.14,7.44-2.02,11.25-2.64c4.02-0.69,8.09-1.11,12.17-1.24
			c5.27-0.04,11.33,0.53,11.33,0.53s0.86,0.2,1.4,5.63C67.29,84.27,67.77,94.46,66.69,112.99z"/>
		<path style="fill:#263237;" d="M66.56,116.94l-27.08,2.17c-0.43-6.54-0.75-15.37-2.78-23.17c-0.65-2.52-1.46-5.33-2.5-8.59
			c-0.56-1.74-1.17-3.6-1.86-5.61c-0.52-1.52-1.08-3.14-1.69-4.85c3.69-1.14,7.44-2.02,11.25-2.64c4.02-0.69,8.09-1.11,12.17-1.24
			c5.27-0.04,11.33,0.53,11.33,0.53s0.86,0.2,1.4,5.63C67.29,84.27,67.64,98.4,66.56,116.94z"/>
	</g>
	<path style="fill:#FFAA78;" d="M51.82,78.83c-6.68-0.83-8.69-3.6-8.69-3.6c4.24-3.88,0.72-10.61,0.72-10.61l8.04,1.46
		c-0.21,1.29-0.3,2.37-0.31,3.29c-0.06,4.74,2.15,4.78,2.15,4.78C55.13,76.71,51.82,78.83,51.82,78.83z"/>
	<path style="opacity:0.2;enable-background:new    ;" d="M51.89,66.07c-0.21,1.29-0.3,2.37-0.31,3.29c-5.43,0-7.73-4.74-7.73-4.74
		L51.89,66.07z"/>
	<g>
		<path style="fill:#FFAA78;" d="M47.45,44.25c6.99-0.37,9.44,3.14,10.35,10.11c1.13,8.7-0.51,15.02-9.36,13.62
			C36.43,66.07,35.84,44.87,47.45,44.25z"/>
		<path style="fill:#B84D3C;" d="M53.26,54.22c0,0,1.07,1.72,2.19,2.71c0,0-0.55,0.95-1.8,0.87L53.26,54.22z"/>
		<g>
			<path style="fill:#263237;" d="M48.95,53.89c0.04,0.56-0.23,1.03-0.61,1.06c-0.38,0.03-0.73-0.4-0.77-0.96
				c-0.04-0.56,0.23-1.03,0.61-1.06C48.56,52.9,48.9,53.33,48.95,53.89z"/>
			<path style="fill:#263237;" d="M48.02,52.97l1.21-0.57C49.22,52.4,48.69,53.47,48.02,52.97z"/>
		</g>
		<g>
			<path style="fill:#263237;" d="M56.07,53.23c0.04,0.56-0.23,1.03-0.61,1.06c-0.38,0.03-0.73-0.4-0.77-0.96
				c-0.04-0.56,0.23-1.03,0.61-1.06C55.67,52.25,56.02,52.67,56.07,53.23z"/>
			<path style="fill:#263237;" d="M55.14,52.31l1.21-0.57C56.34,51.74,55.81,52.81,55.14,52.31z"/>
		</g>
		
			<path style="fill:none;stroke:#263237;stroke-width:0.7247;stroke-linecap:round;stroke-linejoin:round;stroke-miterlimit:10;" d="
			M48.61,49.21c0,0-1.98-0.14-2.97,1.19"/>
		
			<path style="fill:none;stroke:#263237;stroke-width:0.7247;stroke-linecap:round;stroke-linejoin:round;stroke-miterlimit:10;" d="
			M53.68,48.65c0,0,1.21-0.51,2.82,0.41"/>
		<path style="fill:#263237;" d="M52.78,60.51c-0.36,0.84-0.68,2.4-0.68,2.4c-0.15,0-0.3-0.01-0.45-0.02
			c-2.05-0.09-2.96-0.79-3.36-1.54c-0.22-0.41-0.27-0.84-0.27-1.19c0-0.4,0.09-0.69,0.09-0.69c1.05,0.68,2.96,0.91,3.98,0.99
			C52.51,60.51,52.78,60.51,52.78,60.51z"/>
		<path style="fill:#FFFFFF;" d="M52.08,60.47l-0.22,0.7c-1.93-0.09-3.27-0.41-3.85-1c0-0.4,0.09-0.69,0.09-0.69
			C49.16,60.16,51.06,60.39,52.08,60.47z"/>
		<path style="fill:#FD5652;" d="M51.65,62.89c-2.05-0.09-2.96-0.79-3.36-1.54c0.7,0.06,1.53,0.2,2.25,0.54
			C51.09,62.15,51.43,62.52,51.65,62.89z"/>
		<path d="M40.45,56.09c0,0,2.95-5.75,2.22-10.03c0,0,13.54-6.23,15,7.38c0,0,0.67-12.19-11.36-11.82
			c-12.01,0.37-11.02,17.43-4.52,22.19C41.78,63.81,38.63,59.68,40.45,56.09z"/>
		<path style="fill:#FFAA78;" d="M41.67,57.46c-0.11-1.09-1.37-2.88-3.45-2.54c-2.15,0.34-2.94,4.72,2.5,5.47
			C41.51,60.49,41.9,59.74,41.67,57.46z"/>
	</g>
	<path style="fill:#FFAA78;" d="M36.94,75.94c0,0,7.84,6.18,15.15,6.08s9.87-8.07,9.87-8.07S50.63,70.7,36.94,75.94z"/>
	<path style="fill:#FF7FFF;" d="M37.61,74.78c0,0,12.88,22.38-0.67,41.52c0,0-1.84-23.6-6.3-39.41L37.61,74.78z"/>
	<path style="fill:#FF7FFF;" d="M61.23,73.01c0,0,0.12,15.84,2.44,21.73c2.33,5.88,5.34,16.91,5.34,16.91s2.26-26.38-2.19-38.1
		L61.23,73.01z"/>
	<path style="fill:none;stroke:#263237;stroke-width:0.5;stroke-linecap:round;stroke-linejoin:round;stroke-miterlimit:10;" d="
		M42.67,46.06c0,0,5.2-1.75,9.79,0s3.34,6.36,5.66,7.22"/>
	<g>
		<path style="fill:#E1E1E1;" d="M1.34,70.16l2.16-1.19l7.9,2.1l10.71-2.69l2.43,7.87c0,0,0.51,8.77,0,8.87
			c-0.51,0.1-12.22,0.7-12.22,0.7l-5.95-3.69L1.34,70.16z"/>
		<polygon style="fill:#FF0000;" points="24.95,68.96 29.67,87.11 15.09,88.7 5.03,86.01 -0.1,68.96 11.4,71.86 		"/>
		<polygon style="opacity:0.4;fill:#FFFFFF;enable-background:new    ;" points="11.4,71.86 15.09,88.7 29.67,87.12 24.95,68.97 		
			"/>
		<polygon style="opacity:0.2;fill:#FFFFFF;" points="11.4,71.86 15.09,88.7 5.03,86.01 -0.1,68.96 		"/>
	</g>
	<path style="fill:#FFAA78;" d="M24.19,105.14l-6.77-12.63c0,0,0.41-2.69,0-5.88c-0.41-3.19-0.41-3.9-3.01-3.63
		c-2.6,0.27-6.02-0.42-6.43,0.51c-0.41,0.93,2.19,7.77,4.11,9.02l3.98,12.62H24.19z"/>
	<path style="fill:#FF7FFF;" d="M26.38,112.08c-4.31,3.56-9.24,0.5-11.98-9.73l8.49-1.06L26.38,112.08z"/>
	<polygon style="fill:#263237;" points="22.46,99.04 24.19,102.01 13.45,103.41 13.45,100.36 	"/>
	<polygon style="fill:#263237;" points="110.58,83.74 107.61,85.56 105.66,75.2 108.81,75.06 	"/>
	<g>
		<path style="fill:#FFFF00;" d="M66.56,116.94l17.08,97.44c0,0-41.34,4.79-55.36,1.99c0,0-3.44-69.73,11.19-97.25L66.56,116.94z"/>
		<path style="opacity:0.4;fill:#FFFFFF;enable-background:new    ;" d="M66.56,116.94l17.08,97.44c0,0-41.34,4.79-55.36,1.99
			c0,0-3.44-69.73,11.19-97.25L66.56,116.94z"/>
	</g>
	<g>
		<path style="fill:#263237;" d="M120.74,72.83c4.75-4.33,9.44-8.74,14.11-13.15c2.35-2.19,4.65-4.44,6.98-6.66l3.48-3.34l1.74-1.67
			l0.87-0.83l0.44-0.42c0.16-0.13,0.27-0.29,0.12-0.74l1.39,1.44c-0.44-0.17-0.61-0.05-0.74,0.1l-0.43,0.42l-0.86,0.84l-1.73,1.68
			l-3.45,3.36c-2.3,2.25-4.62,4.47-6.89,6.74c-4.57,4.52-9.14,9.05-13.63,13.65L120.74,72.83z"/>
	</g>
	<path style="fill:#FFAA78;" d="M90.57,250.33c0,0,4.34,8.82,6.84,10.52c0,0-3.35,1.94-6.84-2.38c-4.51-5.58-5.62-4.02-5.62-4.02
		s0.19-1.91,0.54-2.85C86.18,249.8,90.57,250.33,90.57,250.33z"/>
	<path style="fill:#FFAA78;" d="M53.43,250.26c0,0,1.23,3.26,2.87,6.85s3.28,5.01,3.28,5.01s-2.85,0.9-4.39-0.84
		c-1.54-1.74-4.17-8.01-7.13-7.29c0,0,0.22-0.75,0.66-1.46C49.17,251.83,53.43,250.26,53.43,250.26z"/>
</g>
</svg>
