<svg enable-background="new 0 0 300 265" viewBox="0 0 300 265" xmlns="http://www.w3.org/2000/svg" xmlns:xlink="http://www.w3.org/1999/xlink"><linearGradient id="a" gradientTransform="matrix(-1 0 0 -1 273.0393 265)" gradientUnits="userSpaceOnUse" x1="121.0953" x2="145.9619" y1="95.534" y2="95.534"><stop offset="0" stop-color="#808080"/><stop offset=".4015" stop-color="#808080"/><stop offset=".4095" stop-color="#c0c0c0"/><stop offset="1" stop-color="#c0c0c0"/></linearGradient><linearGradient id="b"><stop offset="0" stop-color="#999"/><stop offset=".4015" stop-color="#999"/><stop offset=".4095" stop-color="#d9d9d9"/><stop offset="1" stop-color="#d9d9d9"/></linearGradient><linearGradient id="c" gradientTransform="matrix(-1 0 0 -1 273.0393 265)" gradientUnits="userSpaceOnUse" x1="126.0343" x2="127.8109" xlink:href="#b" y1="93.3479" y2="93.3479"/><linearGradient id="d" gradientTransform="matrix(-1 0 0 -1 273.0393 265)" gradientUnits="userSpaceOnUse" x1="127.417" x2="129.1932" xlink:href="#b" y1="94.0786" y2="94.0786"/><linearGradient id="e" gradientTransform="matrix(-1 0 0 -1 273.0393 265)" gradientUnits="userSpaceOnUse" x1="128.7994" x2="130.5757" xlink:href="#b" y1="94.8092" y2="94.8092"/><linearGradient id="f" gradientTransform="matrix(-1 0 0 -1 273.0393 265)" gradientUnits="userSpaceOnUse" x1="130.1817" x2="131.9585" xlink:href="#b" y1="95.4355" y2="95.4355"/><linearGradient id="g" gradientTransform="matrix(-1 0 0 -1 273.0393 265)" gradientUnits="userSpaceOnUse" x1="131.5642" x2="133.341" xlink:href="#b" y1="96.1662" y2="96.1662"/><linearGradient id="h" gradientTransform="matrix(-1 0 0 -1 273.0393 265)" gradientUnits="userSpaceOnUse" x1="132.9469" x2="134.7235" xlink:href="#b" y1="96.8968" y2="96.8968"/><linearGradient id="i" gradientTransform="matrix(-1 0 0 -1 273.0393 265)" gradientUnits="userSpaceOnUse" x1="134.3295" x2="136.1057" xlink:href="#b" y1="97.5231" y2="97.5231"/><linearGradient id="j" gradientTransform="matrix(-1 0 0 -1 273.0393 265)" gradientUnits="userSpaceOnUse" x1="135.712" x2="137.4883" xlink:href="#b" y1="98.2538" y2="98.2538"/><linearGradient id="k" gradientTransform="matrix(-1 0 0 -1 273.0393 265)" gradientUnits="userSpaceOnUse" x1="137.0943" x2="138.8707" xlink:href="#b" y1="98.9845" y2="98.9845"/><linearGradient id="l" gradientTransform="matrix(-1 0 0 -1 273.0393 265)" gradientUnits="userSpaceOnUse" x1="138.4768" x2="140.2534" xlink:href="#b" y1="99.6107" y2="99.6107"/><linearGradient id="m" gradientTransform="matrix(-1 0 0 -1 273.0393 265)" gradientUnits="userSpaceOnUse" x1="139.8593" x2="141.636" xlink:href="#b" y1="100.3414" y2="100.3414"/><linearGradient id="n" gradientTransform="matrix(-1 0 0 -1 273.0393 265)" gradientUnits="userSpaceOnUse" x1="141.2417" x2="143.0183" xlink:href="#b" y1="101.0721" y2="101.0721"/><linearGradient id="o" gradientTransform="matrix(-1 0 0 -1 273.0393 265)" gradientUnits="userSpaceOnUse" x1="131.0118" x2="132.7883" xlink:href="#b" y1="90.8428" y2="90.8428"/><linearGradient id="p" gradientTransform="matrix(-1 0 0 -1 273.0393 265)" gradientUnits="userSpaceOnUse" x1="144.0549" x2="145.8315" xlink:href="#b" y1="98.6713" y2="98.6713"/><linearGradient id="q" gradientTransform="matrix(-1 0 0 -1 273.0393 265)" gradientUnits="userSpaceOnUse" x1="142.6341" x2="144.4102" xlink:href="#b" y1="97.9406" y2="97.9406"/><linearGradient id="r" gradientTransform="matrix(-1 0 0 -1 273.0393 265)" gradientUnits="userSpaceOnUse" x1="141.2127" x2="142.9893" xlink:href="#b" y1="97.21" y2="97.21"/><linearGradient id="s" gradientTransform="matrix(-1 0 0 -1 273.0393 265)" gradientUnits="userSpaceOnUse" x1="139.7916" x2="141.5683" xlink:href="#b" y1="96.4793" y2="96.4793"/><linearGradient id="t" gradientTransform="matrix(-1 0 0 -1 273.0393 265)" gradientUnits="userSpaceOnUse" x1="138.3708" x2="140.1473" xlink:href="#b" y1="95.7486" y2="95.7486"/><linearGradient id="u" gradientTransform="matrix(-1 0 0 -1 273.0393 265)" gradientUnits="userSpaceOnUse" x1="136.9496" x2="138.7262" xlink:href="#b" y1="95.018" y2="95.018"/><linearGradient id="v" gradientTransform="matrix(-1 0 0 -1 273.0393 265)" gradientUnits="userSpaceOnUse" x1="135.5286" x2="137.305" xlink:href="#b" y1="94.2873" y2="94.2873"/><linearGradient id="w" gradientTransform="matrix(-1 0 0 -1 273.0393 265)" gradientUnits="userSpaceOnUse" x1="134.1076" x2="135.8842" xlink:href="#b" y1="93.5566" y2="93.5566"/><linearGradient id="x" gradientTransform="matrix(-1 0 0 -1 273.0393 265)" gradientUnits="userSpaceOnUse" x1="132.6866" x2="134.4631" xlink:href="#b" y1="92.826" y2="92.826"/><linearGradient id="y" gradientTransform="matrix(-1 0 0 -1 273.0393 265)" gradientUnits="userSpaceOnUse" x1="132.3912" x2="134.1678" xlink:href="#b" y1="91.5734" y2="91.5734"/><linearGradient id="z" gradientTransform="matrix(-1 0 0 -1 273.0393 265)" gradientUnits="userSpaceOnUse" x1="133.7937" x2="135.5702" xlink:href="#b" y1="92.1997" y2="92.1997"/><linearGradient id="A" gradientTransform="matrix(-1 0 0 -1 273.0393 265)" gradientUnits="userSpaceOnUse" x1="135.1732" x2="136.9496" xlink:href="#b" y1="92.9304" y2="92.9304"/><linearGradient id="B" gradientTransform="matrix(-1 0 0 -1 273.0393 265)" gradientUnits="userSpaceOnUse" x1="136.558" x2="137.9099" xlink:href="#b" y1="93.7132" y2="93.7132"/><linearGradient id="C" gradientTransform="matrix(-1 0 0 -1 273.0393 265)" gradientUnits="userSpaceOnUse" x1="142.66" x2="144.0118" xlink:href="#b" y1="96.8446" y2="96.8446"/><linearGradient id="D" gradientTransform="matrix(-1 0 0 -1 273.0393 265)" gradientUnits="userSpaceOnUse" x1="143.66" x2="145.0121" xlink:href="#b" y1="97.3665" y2="97.3665"/><linearGradient id="E" gradientTransform="matrix(-1 0 0 -1 273.0393 265)" gradientUnits="userSpaceOnUse" x1="129.0117" x2="130.3634" xlink:href="#b" y1="93.7132" y2="93.7132"/><linearGradient id="F" gradientTransform="matrix(-1 0 0 -1 273.0393 265)" gradientUnits="userSpaceOnUse" x1="144.6349" x2="145.987" xlink:href="#b" y1="97.8885" y2="97.8885"/><linearGradient id="G" gradientTransform="matrix(-1 0 0 -1 273.0393 265)" gradientUnits="userSpaceOnUse" x1="145.6255" x2="146.9776" xlink:href="#b" y1="98.306" y2="98.306"/><linearGradient id="H" gradientTransform="matrix(-1 0 0 -1 273.0393 265)" gradientUnits="userSpaceOnUse" x1="145.3557" x2="147.9274" xlink:href="#b" y1="99.141" y2="99.141"/><linearGradient id="I" gradientTransform="matrix(-1 0 0 -1 273.0393 265)" gradientUnits="userSpaceOnUse" x1="142.5372" x2="145.4564" xlink:href="#b" y1="100.1848" y2="100.1848"/><linearGradient id="J" gradientTransform="matrix(-1 0 0 -1 273.0393 265)" gradientUnits="userSpaceOnUse" x1="141.0972" x2="142.8739" xlink:href="#b" y1="99.7151" y2="99.7151"/><linearGradient id="K" gradientTransform="matrix(-1 0 0 -1 273.0393 265)" gradientUnits="userSpaceOnUse" x1="139.7085" x2="141.4849" xlink:href="#b" y1="98.9845" y2="98.9845"/><linearGradient id="L" gradientTransform="matrix(-1 0 0 -1 273.0393 265)" gradientUnits="userSpaceOnUse" x1="138.3198" x2="140.0964" xlink:href="#b" y1="98.3582" y2="98.3582"/><linearGradient id="M" gradientTransform="matrix(-1 0 0 -1 273.0393 265)" gradientUnits="userSpaceOnUse" x1="136.9309" x2="138.7074" xlink:href="#b" y1="97.6275" y2="97.6275"/><linearGradient id="N" gradientTransform="matrix(-1 0 0 -1 273.0393 265)" gradientUnits="userSpaceOnUse" x1="135.5424" x2="137.3187" xlink:href="#b" y1="96.8968" y2="96.8968"/><linearGradient id="O" gradientTransform="matrix(-1 0 0 -1 273.0393 265)" gradientUnits="userSpaceOnUse" x1="134.1535" x2="135.93" xlink:href="#b" y1="96.2705" y2="96.2705"/><linearGradient id="P" gradientTransform="matrix(-1 0 0 -1 273.0393 265)" gradientUnits="userSpaceOnUse" x1="132.7648" x2="134.5412" xlink:href="#b" y1="95.5399" y2="95.5399"/><linearGradient id="Q" gradientTransform="matrix(-1 0 0 -1 273.0393 265)" gradientUnits="userSpaceOnUse" x1="131.3759" x2="133.1526" xlink:href="#b" y1="94.8092" y2="94.8092"/><linearGradient id="R" gradientTransform="matrix(-1 0 0 -1 273.0393 265)" gradientUnits="userSpaceOnUse" x1="129.9872" x2="131.7637" xlink:href="#b" y1="94.1829" y2="94.1829"/><linearGradient id="S" gradientTransform="matrix(-1 0 0 -1 273.0393 265)" gradientUnits="userSpaceOnUse" x1="142.3677" x2="144.144" xlink:href="#b" y1="99.0888" y2="99.0888"/><linearGradient id="T" gradientTransform="matrix(-1 0 0 -1 273.0393 265)" gradientUnits="userSpaceOnUse" x1="140.9788" x2="142.7552" xlink:href="#b" y1="98.3582" y2="98.3582"/><linearGradient id="U" gradientTransform="matrix(-1 0 0 -1 273.0393 265)" gradientUnits="userSpaceOnUse" x1="139.5901" x2="141.3666" xlink:href="#b" y1="97.7319" y2="97.7319"/><linearGradient id="V" gradientTransform="matrix(-1 0 0 -1 273.0393 265)" gradientUnits="userSpaceOnUse" x1="138.2011" x2="139.9779" xlink:href="#b" y1="97.0012" y2="97.0012"/><linearGradient id="W" gradientTransform="matrix(-1 0 0 -1 273.0393 265)" gradientUnits="userSpaceOnUse" x1="136.8125" x2="138.5889" xlink:href="#b" y1="96.2705" y2="96.2705"/><linearGradient id="X" gradientTransform="matrix(-1 0 0 -1 273.0393 265)" gradientUnits="userSpaceOnUse" x1="135.4236" x2="137.2002" xlink:href="#b" y1="95.6443" y2="95.6443"/><linearGradient id="Y" gradientTransform="matrix(-1 0 0 -1 273.0393 265)" gradientUnits="userSpaceOnUse" x1="134.035" x2="135.8114" xlink:href="#b" y1="94.9136" y2="94.9136"/><linearGradient id="Z" gradientTransform="matrix(-1 0 0 -1 273.0393 265)" gradientUnits="userSpaceOnUse" x1="132.6464" x2="134.4227" xlink:href="#b" y1="94.1829" y2="94.1829"/><linearGradient id="aa" gradientTransform="matrix(-1 0 0 -1 273.0393 265)" gradientUnits="userSpaceOnUse" x1="131.2574" x2="133.034" xlink:href="#b" y1="93.5566" y2="93.5566"/><linearGradient id="ab" gradientTransform="matrix(-1 0 0 -1 478.4021 265)" gradientUnits="userSpaceOnUse" x1="377.6168" x2="383.5388" y1="20.2294" y2="20.2294"><stop offset="0" stop-color="#333"/><stop offset="1" stop-color="#808080"/></linearGradient><linearGradient id="ac"><stop offset="0" stop-color="#b3b3b3"/><stop offset="1" stop-color="#f2f2f2"/></linearGradient><linearGradient id="ad" gradientTransform="matrix(-1 0 0 -1 478.4021 265)" gradientUnits="userSpaceOnUse" x1="378.0523" x2="383.1031" xlink:href="#ac" y1="24.8743" y2="24.8743"/><linearGradient id="ae" gradientTransform="matrix(-1 0 0 -1 478.4021 265)" gradientUnits="userSpaceOnUse" x1="378.8372" x2="382.318" xlink:href="#ac" y1="35.4689" y2="35.4689"/><path d="m190.5 256-4.2 2.2-3.7-1.8 4.3-2.2z" fill="#10161a"/><path d="m182.6 256.4v4.4l3.7 1.9v-4.5z" fill="#bfbfbf"/><path d="m190.5 256v4.5l-4.2 2.2v-4.5z" fill="#808080"/><path d="m159.6 240-4.3 2.2-3.6-1.9 4.3-2.2z" fill="#10161a"/><path d="m151.7 240.3v4.5l3.6 1.8v-4.4z" fill="#bfbfbf"/><path d="m159.6 240v4.4l-4.3 2.2v-4.4z" fill="#808080"/><path d="m227.7 237.2-4.3 2.2-3.6-1.8 4.4-2.2z" fill="#10161a"/><path d="m219.8 237.6v4.4l3.6 1.9v-4.5z" fill="#bfbfbf"/><path d="m227.7 237.2v4.5l-4.3 2.2v-4.5z" fill="#808080"/><path d="m227.7 225.6-41.4 21.2-34.6-17.5 41.2-21.1z" fill="#2b3c4f"/><path d="m151.7 229.3v13.7l34.6 17.6v-13.8z" fill="#67cae6"/><path d="m227.7 225.6v13.8l-41.4 21.2v-13.8z" fill="#0881a3"/><path d="m71.8 199.7 4.2 2.2 3.6-1.9-4.3-2.1z" fill="#10161a"/><path d="m79.6 200v4.5l-3.6 1.8v-4.4z" fill="#10161a"/><path d="m71.8 199.7v4.4l4.2 2.2v-4.4z" fill="#080b0d"/><path d="m58.9 193.1 4.3 2.1 3.5-1.7-4.2-2.2z" fill="#10161a"/><path d="m66.7 193.5v4.4l-3.5 1.8v-4.5z" fill="#808080"/><path d="m58.9 193.1v4.4l4.3 2.2v-4.5z" fill="#bfbfbf"/><path d="m109.3 180.4 4.4 2.2 3.6-1.8-4.3-2.2z" fill="#10161a"/><path d="m117.3 180.8v4.5l-3.6 1.8v-4.5z" fill="#10161a"/><path d="m109.3 180.4v4.5l4.4 2.2v-4.5z" fill="#080b0d"/><path d="m117.3 134.2-41.3 21.1-17.1-8.9 40.9-20.9z" fill="#10161a"/><path d="m58.9 146.4v48.5l17.1 8.9v-48.5z" fill="#67cae6"/><path d="m117.3 134.2v48.5l-41.3 21.1v-48.5z" fill="#0881a3"/><path d="m227.7 210.6-41.4 21.2-34.6-17.6 41.2-21.1z" fill="#2b3c4f"/><path d="m151.7 214.2v13.8l34.6 17.6v-13.8z" fill="#67cae6"/><path d="m227.7 210.6v13.7l-41.4 21.3v-13.8z" fill="#0881a3"/><path d="m227.7 195.3-41.4 21.3-34.6-17.5 41.2-21.2z" fill="#2b3c4f"/><path d="m151.7 199.1v13.7l34.6 17.6v-13.8z" fill="#67cae6"/><path d="m227.7 195.3v13.8l-41.4 21.3v-13.8z" fill="#0881a3"/><path d="m56.4 143.1v5.3l130 66.8v-5.2z" fill="#bfbfbf"/><path d="m227.7 188.8-41.3 21.2-130-66.9 40.7-20.9z" fill="#fff"/><path d="m227.7 188.8v5.3l-41.3 21.1v-5.2z" fill="#808080"/><path d="m101.6 151.7 4.8-.2 3.8-4.2 11.4 1.8 10.1-1.4-29.6-15.8z" fill="#b3b3b3"/><path d="m103.4 150.3 1-.9c.6-.5.9-1.1.9-1.7v-5.1l-.3.1v5.1c0 .5-.3 1-.8 1.5l-1.3 1z" fill="#999"/><path d="m101.6 151.5v.2l1.8-1.4h-.1-.1z" fill="#ccc"/><path d="m101.6 151.5v.2l1.8-1.4v-.2l-.1.2h-.1z" fill="#999"/><path d="m94.6 150.3 7.1 1.3 1.6-1.3h.1l.1-.1.9-.8c.5-.4.8-.9.8-1.5v-5h-.2l-3.8-.6-2-.8-.3.1v5.1.1c0 .5-.3.9-.8 1.4l-.1.1c-.4.3-1.8 1.1-3.4 2z" fill="#ebebeb"/><path d="m99.1 146.7 6.2 1v-4.6c-.5-.2-.9-.4-1-.4-.1.1-3.4.6-5.2.8z" fill="#bfbfbf"/><path d="m84.1 117.7h.3l.6-.1v.2s0 .3 0 .4l.1 4.8.2 16.4c0 1.3 1.1 2.5 2.5 2.7l34.2 6.2h.1l-.3.9 1.5-.9c.4-.3.7-.8.8-1.4 0-.1 0-.1 0-.2l-.2-21.2c0-.8-.5-1.8-1.4-2.3-.3-.2-.7-.4-1.1-.5l-34.2-6.2c-.6-.1-1.1 0-1.6.2l-1.1.7z" fill="#262626"/><path d="m84.3 117.5.1.1.6.1 35.9 6.3 1.5-.8c-.3-.2-.7-.4-1.1-.5l-34.3-6.3c-.6-.1-1.1 0-1.6.2z" fill="#d9d9d9"/><path d="m119 125 1.6 2.3 3-1.9c0-.8-.5-1.8-1.4-2.3z" fill="#595959"/><path d="m83.2 119.3v2.1 2.7l.2 16.4c0 1.3 1.1 2.5 2.5 2.7l15.2 2.6 9 1.6.4.1 9.6 1.9c1.1.2 2.1-.3 2.3-1.3 0-.1.1-.3.1-.4s0-.1 0-.2v-2.5l-.1-6.3-.1-12.5c0-1.3-1.1-2.5-2.5-2.7l-9.8-1.7-5.8-1.1-7.4-1.5-8.6-1.5-2.5-.4c-.9-.1-1.7.2-2.1.8-.3.3-.4.7-.4 1.2z" fill="#828282"/><path d="m84.9 139.4 36 6.8v-20.2l-36-6.7z" fill="#7dc2ff"/><path d="m115.6 126.8v6.5l-25.2-4.8v-6.5z" fill="#32419c"/><path d="m107.1 128.3c-.2.1-.4.3-.2.5.1.1.1.1.2.2.2.2.1.5.1.7 0 .3.2.7.5.9s.7.3 1 .2c.2-.1.4-.3.6-.4s.4-.1.6-.1.4-.1.5-.2c.1-.2-.1-.6-.4-.8s-.7-.3-.9-.5c-.2-.1-.3-.3-.5-.4-.3-.1-1.1-.1-1.5-.1z" fill="#54995c"/><path d="m111.4 126.6s0 .1 0 0c.2.6.3 1.6-.3 1.8-.3.1-.7.1-1.1 0-.7-.1-1.5-.3-2.1-.5-.7-.2-1.5-.3-2.1-.1-.3.1-.5.2-.8.2-.7 0-1.5-.6-2.2-.5-.3 0-.6.2-.8.4-.6.4-1.1 1-1.8 1.5-.2.1-.5.2-.8.2-.3-.1-.6-.4-.7-.7-.1-.2-.1-.5-.2-.7-.3-.5-.7-.2-1.1-.2-.3 0-.6 0-.8-.2-.3-.2-.3-.6-.1-.8.1-.1.3-.2.4-.4.1-.1.2-.4 0-.5-.2-.2-.5-.2-.8-.4-.5-.2-.6-.8-.3-1.3.2-.3.8-.7 1.5-.9.1 0 .4.1.5.1 2.3.4 4.7.9 7 1.4 1.4.3 2.7.5 4.2.8.5.1 1 .2 1.7.3 0-.3.5-.2.7.5z" fill="#54995c"/><path d="m94 126.1c-.1.2-.3.4-.4.6-.2.3-.2 1.3-.5 1.4-.4.1-.7-.7-.8-.9-.2-.3-.4-.5-.4-.8s.1-.5.2-.7c.3-.3.8-.5 1.4-.5.2 0 .4.1.6.2 0 0 0 .4-.1.7 0-.1 0 0 0 0z" fill="#54995c"/><path d="m119.1 134.6v9.3l-32.2-6.1v-9.4z" fill="#f2f2f2"/><path d="m119.1 141.9v.4c-.5-.3-.8-.8-1.1-1.3-.1-.2-.2-.3-.3-.4s-.2-.2-.3-.2-.2 0-.3 0c-.2 0-.3.1-.4.2-.2.1-.4.2-.7.3-.2 0-.4 0-.6-.2-.3-.2-.4-.6-.5-.8 0-.3-.1-.5-.1-.8-.1-.9-.2-1.9-.8-2.6-.1-.1-.1-.2-.2-.2s-.2-.1-.2 0c-.2 0-.4.3-.5.6l-1.1 2.8c0 .1-.1.2-.2.3-.1 0-.3 0-.4-.1-.7-.3-1.3-.8-1.7-1.4-.2.3-.3.5-.3.9v.3l-.3-.2c-.8-.8-1-1.9-1.3-2.8v-.2c-.1-.7-.4-1.8-1.1-2.1-.1 0-.1-.1-.2 0l-.1.1c-.4.4-.5.9-.7 1.5h-.1c0 .1-.1.3-.2.4-.2.5-.4 1-.4 1.6l-.3-.1v.1h.1-.1c-.1.1-.1.3-.1.5 0 .4-.1.8-.5.9-.3.1-.6 0-.9-.2-.7-.4-.8-1.1-.9-1.8v-.2c-.1-.3-.2-.6-.3-.9-.1-.2-.1-.4-.2-.6 0-.1 0-.3-.1-.4-.1-.2-.2-.5-.4-.7s-.7-1-1.5-1h-.1c-.2 0-.4 0-.6-.2s-.2-.4-.2-.6c0-.1-.1-.3-.1-.3s-.1 0-.2 0c-.6.3-.8 1-1 1.7l-.3.8c-.2.5-.3 1-.5 1.6-.1.4-.2.8-.2 1.3 0 .2 0 .4-.1.6-.1.5-.3.5-.5.5-.1 0-.2-.1-.3-.1-.5-.3-.7-.8-.8-1.4 0-.1-.1-.3-.2-.4-.3-.7-.9-1.5-1.8-1.9l-.6.3-1.3-2.5c0-.1-.1-.2-.1-.3-.1-.4-.2-.8-.5-1.1-.1-.1-.2-.1-.2-.2-.1 0-.2.1-.3.2-.3.6-.5 1.3-.6 2-.1.4-.2.9-.4 1.5 0 .1-.1.2-.3.3-.1 0-.3-.1-.4-.1l-1.3-.6v-.3c.1 0 .1 0 .1.1l1.3.6s.1.1.2.1c0 0 .1 0 .1-.1.2-.4.3-.9.4-1.4.2-.6.3-1.4.7-2 .1-.1.2-.4.5-.3.2 0 .4.2.5.3.4.4.5.9.6 1.4 0 .1 0 .2.1.3l.5 1.9.3-.1h.1c.9.4 1.8 1.3 2.1 2.1.1.1.1.3.2.4.2.4.3.9.7 1.1.1 0 .1.1.1.1.1 0 .2-.2.2-.3 0-.2 0-.4.1-.6 0-.4.1-.9.2-1.4.2-.5.3-1 .5-1.6l.3-.8c.2-.6.4-1.4 1.1-1.8.1-.1.2-.1.4-.1.2.1.4.3.4.6 0 .1 0 .3.1.3.1.1.2.1.3.1h.1c.6 0 1.3.5 1.8 1.3.2.3.3.6.4.8 0 .2.1.3.1.5s.1.4.1.6c.1.3.2.6.3 1v.2c.1.5.2 1.1.7 1.6.2.1.4.2.6.1.3-.1.3-.4.4-.7 0-.2 0-.4.1-.6 0-.1.2-.2.3-.2 0-.5.2-1 .4-1.5.1-.1.1-.3.1-.4l.1-.2c.2-.5.4-1.1.7-1.6.1-.1.1-.2.3-.2.1 0 .3 0 .4.1.9.4 1.3 1.7 1.4 2.3v.2c.2.8.4 1.7.9 2.3.1-.3.2-.6.4-.9l.2-.2.1.2c.3.6.9 1.1 1.7 1.5h.1l.1-.1 1.1-2.8c.1-.3.4-.6.7-.7.2 0 .3 0 .5.1.1.1.3.2.3.3.7.8.8 1.9.9 2.8 0 .3.1.5.1.8s.2.5.3.6.2.1.3.1c.2 0 .4-.1.5-.2.2-.1.3-.2.5-.2h.5c.2.1.4.2.6.4.1.1.2.3.3.4 1.1.3 1.3.6 1.7.9z" fill="#da0463"/><path d="m85.4 119.4v19.6l35.5 6.7v.5l-36-6.8v-20.1z" fill="#999"/><path d="m120.9 146.2-36-6.8.5-.4 35.5 6.7z" fill="#ebebeb"/><path d="m101.6 151.5-7-1.2v.2l7 1.2z" fill="#ccc"/><path d="m98.1 148.2 6.3 1.1c.5-.4.8-.9.8-1.5l-6.2-1c0 .5-.3.9-.8 1.4 0 0 0 0-.1 0z" fill="#dbdbdb"/><path d="m133.7 151.8 9.7-4.2c.7-.4 1.9-.4 2.5-.1l29.2 14.7c.6.3.5.9-.2 1.3l-9.7 4.2h-.1c-.7.3-1.8.3-2.4 0l-.2-.1-9.4-4.6-5 2.7h-1.1l-.9-6.4-12.5-6.3c-.8-.2-.7-.8.1-1.2z" fill="#b3b3b3"/><path d="m148.4 164.8.8-.6c.5-.4.7-.9.7-1.5v-5.1h-.3v5.1c0 .5-.2.9-.7 1.3l-.9.7z" fill="#999"/><path d="m146.9 165.6v.2l1.5-1h-.1-.1z" fill="#ccc"/><path d="m146.9 165.6v.2l1.5-1v-.1h-.1v.1h-.1z" fill="#999"/><path d="m141.3 162.8 5.6 2.8 1.3-.8.1-.1.8-.6c.4-.3.7-.7.7-1.3v-5l-.1-.1-3-1.5-1.6-1.3h-.2v5.1.1c0 .4-.3.9-.7 1.3 0 0-.1 0-.1.1-.4.2-1.6.8-2.8 1.3z" fill="#808080"/><path d="m144.9 160.3 5 2.5v-4.6c-.4-.4-.7-.6-.8-.6-.1.1-2.8-.2-4.2-.4v3.1c0-.1 0-.1 0 0z" fill="#262626"/><path d="m132.8 127.7h.2l.5.1v.1.4 4.8l.1 16.4c0 1.3.9 2.8 2 3.3l27.6 14h.1l-.2.8 1.1-.6c.4-.2.6-.6.6-1.1 0-.1 0-.1 0-.2l-.2-21.2c0-.8-.4-1.9-1-2.6-.3-.3-.6-.6-.9-.7l-27.6-14c-.5-.2-.9-.2-1.3-.1l-.9.5z" fill="#262626"/><path d="m132.9 127.6.1.1.5.2 28.9 14.5 1.1-.5c-.3-.3-.6-.6-.9-.7l-27.6-14c-.5-.2-.9-.2-1.3-.1z" fill="#d9d9d9"/><path d="m161 143.2 1.3 2.7 2.4-1.3c0-.8-.4-1.9-1-2.6z" fill="#595959"/><path d="m132.1 129.1v2.1 2.7l.1 16.4c0 1.3.9 2.8 2 3.3l12.2 6.2 7.2 3.7.3.2 7.7 4.1c.9.4 1.7.1 1.9-.7 0-.1.1-.2.1-.4 0-.1 0-.1 0-.2v-2.4-6.3l-.1-12.6c0-1.3-.9-2.8-2-3.3l-7.9-4-4.7-2.5-5.9-3.1-6.9-3.4-2-1c-.7-.3-1.4-.2-1.7.3-.2.1-.3.4-.3.9z" fill="#828282"/><path d="m133.4 149.6 29.1 15.1v-20.2l-29.1-15z" fill="#7dc2ff"/><path d="m159.6 161.9-22.5-11.5v-17.9l22.5 11.5z" fill="#54995c"/><g fill="#f2f2f2"><path d="m140.2 134.1v17.8l-.5-.2v-17.8z"/><path d="m144.1 136.1v17.8l-.5-.2v-17.9z"/><path d="m148 138v17.9l-.5-.2v-17.9z"/><path d="m151.8 140v17.9l-.4-.2v-17.9z"/><path d="m155.7 142v17.9l-.4-.3v-17.8z"/><path d="m159.6 160.6v.4l-3.9-2-.4-.2-3.5-1.8-.4-.2-3.4-1.7-.5-.3-3.4-1.7-.5-.2-3.4-1.8-.5-.2-2.6-1.4v-.5l2.6 1.5.5.2 3.4 1.6.5.4 3.4 1.6.5.3 3.4 1.7.4.2 3.5 1.8.4.2z"/><path d="m159.6 156.6v.5l-3.9-2-.4-.3-3.5-1.7-.4-.2-3.4-1.7-.5-.3-3.4-1.7-.5-.3-3.4-1.7-.5-.2-2.6-1.4v-.5l2.6 1.4.5.2 3.4 1.8.5.2 3.4 1.8.5.2 3.4 1.7.4.3 3.5 1.7.4.2z"/><path d="m159.6 152.8v.4l-3.9-2-.4-.3-3.5-1.7-.4-.2-3.4-1.8-.5-.2-3.4-1.8-.5-.2-3.4-1.7-.5-.2-2.6-1.4v-.5l2.6 1.3.5.3 3.4 1.7.5.3 3.4 1.7.5.3 3.4 1.7.4.2 3.5 1.8.4.2z"/><path d="m159.6 148.8v.5l-3.9-2.1-.4-.2-3.5-1.8-.4-.2-3.4-1.7-.5-.2-3.4-1.7-.5-.3-3.4-1.7-.5-.3-2.6-1.4v-.4l2.6 1.4.5.2 3.4 1.8.5.2 3.4 1.7.5.2 3.4 1.8.4.2 3.5 1.7.4.3z"/><path d="m159.6 144.9v.4l-3.9-1.9-.4-.3-3.5-1.7-.4-.2-3.4-1.8-.5-.2-3.4-1.8-.5-.2-3.4-1.8-.5-.2-2.6-1.3v-.6l2.6 1.4.5.3 3.4 1.7.5.3 3.4 1.7.5.2 3.4 1.8.4.2 3.5 1.7.4.2z"/></g><path d="m140.8 138c.3-.2.6-.4 1-.3-.1.2-.3.5-.3.8.3-.4.9-.4 1.5-.5 1 0 2.1 0 3.3.4.6.2 1.1.4 1.8.8.3.2.6.4.9.5.2.2.6.5.8.6-.1 0-.2 0-.2.1 2.1.7 4.3 2.7 5.5 5s1.7 4.9.8 6.5c.1-.3 0-.6-.2-.9 0 2.4-1 4.2-2.7 5-.5.3-1.3.4-2 .2 0-.1.1-.3.1-.4-2.2 0-4.9-1-7.2-2.9.1 0 .3 0 .4.1-.5-.7-1.1-1.4-1.8-2-1.7-1.9-3-4.2-3.7-6.4.1.5.7 1.3 1 1.6-.1-.4-.2-.8-.3-1.4-.2-.5-.1-1-.1-1.6 0-1.3.1-2.5.3-3.5.1-.5.3-1 .5-1.4.4-.2.6-.3.6-.3z" fill="#182548"/><path d="m142.4 145.8c-.8-2-1-3.9-.5-5.3-.1.2-.1.6.1.9.1-1 .6-1.7 1.4-2.1.7-.3 1.7-.3 2.7-.2-.3.1-.6.4-.6.8.7-.3 1.8 0 2.8.3.9.3 2 .7 2.9 1.4.9.6 1.9 1.5 2.6 2.6-.9-.5-1.9-.9-2.7-1.1.8.6 1.5 1.8 2 2.7-1.4-.9-2.7-1.8-4.2-2.4.8.7 1.8 1.5 2.6 2.3s1.6 1.8 2.1 2.8c.4.8.6 1.8.7 2.6.1 1.1 0 2.2-.4 2.9s-1.3 1-2.1 1.3c.2.1.2-.1.3-.2.2-.4.3-.8.5-1.3-.9.7-2.4.6-4 .2.7-.4 1.4-1 1.8-1.9-.6.2-1.4 0-2.1-.1-1.7-.4-3.5-1.3-5.1-2.9.3.3.9.5 1.4.7s.9.5 1.5.7c-.7-.6-1.4-1.5-2-2.3-.7-.6-1.3-1.5-1.7-2.4z" fill="#e8e8e6"/><path d="m147.2 151c-.4-.2-.8-.4-1.1-.8-.7-.6-1.5-1.7-1.8-2.7-.3-.8-.4-1.8-.4-2.7 0-.6.1-1.5.6-1.8.5-.4 1.4-.1 2.1.1 1 .4 2 .8 2.7 1.5.4.3.7.6 1.1.9-.2-.2-.4-.4-.6-.6-.7-.7-1.6-1.3-2.3-1.7-1.1-.6-2.1-.7-2.7-.5l-.3-.5c.7-.3 1.8-.1 3 .5.8.4 1.7 1.1 2.5 1.9.9.9 1.8 2 2.2 3 .5 1.1.7 2.4.4 3.1s-.9 1.1-1.9 1.3c-.7 0-1.7-.2-2.7-.6-.4-.2-.6-.3-.8-.4zm-.9-7.5c-.5-.2-1.1-.3-1.6 0-.4.3-.4 1-.4 1.6 0 .9.1 1.8.4 2.5.3.9.9 1.8 1.6 2.3.5.4 1.1.7 1.7.9 1 .4 1.9.6 2.5.6.8 0 1.5-.4 1.7-1 .2-.5.1-1.4-.2-2.2.2.8.2 1.7-.1 2.1-.2.2-.4.4-.7.6-.9.4-2.2.3-3.3-.3-1.4-.7-2.6-2.1-3.1-3.5-.2-.5-.3-1-.3-1.6s0-.9.1-1.1c.1-.9.8-1 1.7-.9zm1.2.9c-.2-.1-.4-.2-.7-.3-.7-.2-1.7-.3-2.1.4-.1.2-.1.5-.1 1s.1.9.3 1.4c.4 1.1 1.5 2.4 2.7 3 1 .5 2.2.6 3 .3.3-.1.5-.3.6-.5.3-.5.2-1.5-.2-2.5-.4-.8-1.1-1.8-2.1-2.4-.2-.1-.4-.3-.6-.4.7.5 1.4 1.1 1.9 1.9.2.2.4.6.6.9.2.5.2 1 .2 1.5 0 .4-.1.9-.4 1.3-.3.3-.8.2-1.4.2-.5-.1-1-.2-1.5-.3-.3-.1-.7-.2-1.1-.5s-.7-.8-1-1.6c-.3-.6-.4-1.3-.5-1.7-.1-.6.1-1 .4-1.4.5-.4 1.4-.1 2 .1.5.2 1.3.5 1.9 1.1.7.6 1.1 1.6 1 2.2 0 .4-.2.6-.6.8-.5.2-1.3.2-2-.1-.4-.2-1.1-.5-1.7-1.4-.2-.4-.4-.8-.4-1.4 0-.3 0-.5.1-.7.2-.3.6-.3 1.3-.1s1.3.6 1.7 1c.3.3.5.8.5 1.1s0 .5-.2.6-.4.1-.7 0-.6-.4-.8-.7c-.2-.4-.3-.8 0-1 .1-.1.3-.1.5 0 .2.2.4.5.4.7 0 .1-.1.2-.2.2s-.2 0-.2-.1l.4.4c.2.1.3.1.4 0s.1-.2.1-.3c0-.2-.1-.5-.3-.7-.3-.3-.7-.6-1.3-.8-.5-.2-.8-.2-.9 0-.1.1-.1.2-.1.5 0 .2.1.6.3 1 .3.6 1 .9 1.3 1 .6.3 1.3.3 1.8.1.2-.1.4-.3.5-.6 0-.5-.3-1.1-.8-1.6-.4-.4-.9-.7-1.7-.9-.8-.3-1.4-.3-1.7-.1-.2.2-.3.5-.3 1 0 .4.2.9.4 1.5.2.5.5.9.8 1.1.2.2.5.3.8.4.5.1.9.2 1.5.3.4 0 .8.1 1.1-.1s.3-.6.4-1c0-.3 0-.7-.1-1.1-.1-.2-.2-.4-.5-.7-.9-.7-1.7-1.5-2.7-2zm.5 2.6c-.1 0-.1.1-.1.2l.2-.2s-.1-.1-.1 0c0-.1 0-.1 0 0z" fill="#fffffd"/><path d="m134 129.7v19.7l28.5 14.8v.5l-29.1-15.1v-20.1z" fill="#999"/><path d="m162.5 164.7-29.1-15.1.6-.2 28.5 14.8z" fill="#ebebeb"/><path d="m146.9 165.6-5.6-2.8v.1l5.6 2.9z" fill="#ccc"/><path d="m144.1 161.5 5 2.5c.4-.3.7-.7.7-1.3l-5-2.5c0 .5-.2.9-.7 1.3.1-.1.1-.1 0 0z" fill="#595959"/><path d="m141.4 175.5h2.3l7.5-3.5-11.5-6.1z" fill="#b3b3b3"/><path d="m124.3 166.1v.7c0 .2.1.4.4.6l15.3 7.8.2.1c.6.3 1.7.3 2.4 0h.1l5.8-2.9c.4-.2.5-.4.6-.6v-.6h-.4l-15.9-7.7c-.6-.3-1.8-.3-2.5.1l-5.5 2.7c-.1.1-.2.1-.3.2z" fill="url(#a)"/><path d="m140 174.6v.6l.2.1c.6.3 1.7.3 2.4 0v-.6c-.7.3-1.8.3-2.4 0z" fill="#a6a6a6"/><path d="m124.7 166.7.1.1 4.6 2.4 3.3 1.7 7.3 3.8.2.1c.6.3 1.7.3 2.4 0h.1l5.8-2.9c.7-.4.8-.9.2-1.3l-.5-.2-4.6-2.4-3.9-2-6.5-3.3c-.6-.3-1.8-.3-2.5.1l-5 2.5-.8.4c-.9.1-.9.7-.2 1z" fill="#d9d9d9"/><path d="m132.7 170.8 7.3 3.8.2.1c.6.3 1.7.3 2.4 0h.1l5.8-2.9z" fill="#666"/><path d="m124.8 166.9 4.6 2.2 18.8 1.1-4.6-2.4z" fill="#666"/><path d="m125.6 165.1 14 .7-6.5-3.3c-.6-.3-1.8-.3-2.5.1z" fill="#666"/><path d="m131.1 163.1s0 .1 0 0l.8.5h.2c.1 0 .2 0 .3-.1l.2-.1c.1 0 .1-.1.1-.1s0-.1-.1-.1l-.7-.4c-.1-.1-.3-.1-.4 0l-.2.1c-.2.1-.2.1-.2.2z" fill="#666"/><path d="m131.1 163c0 .1 0 .1.1.2l.7.4h.2s.2 0 .3-.1l.2-.1c.1 0 .1-.1.1-.1v-.1s0 .1-.1.1l-.2.1c-.1 0-.2.1-.3.1s-.1 0-.2 0l-.8-.5c.2.1 0 .1 0 0z" fill="#d9d9d9"/><path d="m132.2 163.5c.1.1.2.1.3 0l.2-.1c.1 0 .1-.1.1-.1v-.1s0 .1-.1.1l-.2.1c-.1.1-.2.1-.3.1z" fill="#bfbfbf"/><path d="m131.1 163c0 .1.2.1 0 0l.8.4h.2c.1 0 .2 0 .3-.1l.2-.1c.1 0 .1-.1.1-.1s0-.1-.1-.1l-.7-.4c-.1-.1-.3 0-.4 0l-.2.1c0 .2 0 .3-.2.3z" fill="#fff"/><path d="m131.3 163s0 .1 0 0l.8.4h.2c.1 0 .2 0 .3-.1l.2-.1c.1 0 .1-.1.1-.1s0 .1-.1.1l-.2.1c-.1 0-.2.1-.3.1s-.1 0-.2 0l-.7-.4c-.1.1-.3.1-.1 0-.2 0-.2 0 0 0z" fill="#fff"/><path d="m132.5 163.8s.1 0 0 0l.8.5h.2c.1 0 .2 0 .3-.1l.2-.1c.1 0 .1-.1.1-.1s0-.1-.1-.1l-.7-.4c-.1-.1-.3-.1-.4 0l-.2.1c-.1.1-.2.1-.2.2z" fill="#666"/><path d="m132.6 163.7c0 .1 0 .1.1.2l.7.4h.2c.1 0 .2 0 .3-.1l.2-.1c.1 0 .1-.1.1-.1v-.1s0 .1-.1.1l-.2.1c-.1 0-.2.1-.3.1s-.1 0-.2 0z" fill="#d9d9d9"/><path d="m133.5 164.2c.1.1.2.1.3 0l.2-.1c.1 0 .1-.1.1-.1v-.1s0 .1-.1.1l-.2.1c0 .1-.1.1-.3.1z" fill="#bfbfbf"/><path d="m132.6 163.7s0 .1 0 0l.8.4h.2c.1 0 .2 0 .3-.1l.2-.1c.1 0 .1-.1.1-.1s0-.1-.1-.1l-.7-.4c-.1-.1-.3 0-.4 0l-.2.1c-.2.2-.2.2-.2.3z" fill="#fff"/><path d="m132.6 163.7.8.4h.2c.1 0 .2 0 .3-.1l.2-.1c.1 0 .1-.1.1-.1s0 .1-.1.1l-.1.1c-.1 0-.2.1-.3.1s-.1 0-.2 0l-.7-.4c-.2.1-.2 0-.2 0z" fill="#fff"/><path d="m133.9 164.4c0 .2.1.2 0 0l.8.5h.2c.1 0 .2 0 .3-.1l.2-.1c.1 0 .1-.1.1-.1s0-.1-.1-.1l-.7-.4c-.1-.1-.3-.1-.4 0l-.2.1c-.1.1-.1.2-.2.2z" fill="#666"/><path d="m134 164.4c0 .1 0 .1.1.2l.7.4h.2c.1 0 .2 0 .3-.1l.2-.1c.1 0 .1-.1.1-.1v-.1s0 .1-.1.1l-.2.1c-.1 0-.2.1-.3.1s-.1 0-.2 0z" fill="#d9d9d9"/><path d="m134.9 164.9c.1.1.2.1.3 0l.2-.1c.1 0 .1-.1.1-.1v-.1s0 .1-.1.1l-.2.1c-.1.1-.2.2-.3.1z" fill="#bfbfbf"/><path d="m134 164.4.8.4h.2c.1 0 .2 0 .3-.1l.2-.1c.1 0 .1-.1.1-.1s0-.1-.1-.1l-.7-.4c-.1-.1-.3 0-.4 0l-.2.1c-.2.2-.2.2-.2.3z" fill="#fff"/><path d="m134 164.3c0 .1 0 .1 0 0l.8.4h.2c.1 0 .2 0 .3-.1l.2-.1c.1 0 .1-.1.1-.1s0 .1-.1.1l-.2.1c-.1 0-.2.1-.3.1s-.1 0-.2 0l-.7-.4c-.1.1-.1.1-.1 0z" fill="#fff"/><path d="m135.3 165.2c0 .1 0 .1 0 0l.8.5h.2c.1 0 .2 0 .3-.1l.2-.1c.1 0 .1-.1.1-.1s0-.1-.1-.1l-.7-.4c-.1-.1-.3-.1-.4 0l-.2.1c-.2.1-.2.2-.2.2z" fill="#666"/><path d="m135.3 165.1c0 .1 0 .1.1.2l.7.4h.2c.1 0 .2 0 .3-.1l.2-.1c.1 0 .1-.1.1-.1v-.1s0 .1-.1.1l-.2.1c-.1 0-.2.1-.3.1s-.1 0-.2 0l-.8-.5c0 .1 0 .1 0 0z" fill="#d9d9d9"/><path d="m136.3 165.6c.1.1.2.1.3 0l.2-.1c.1 0 .1-.1.1-.1v-.1s0 .1-.1.1l-.2.1c-.1.1-.2.1-.3.1z" fill="#bfbfbf"/><path d="m135.3 165.1c0 .1 0 .1 0 0l.8.4h.2c.1 0 .2 0 .3-.1l.2-.1c.1 0 .1-.1.1-.1s0-.1-.1-.1l-.7-.4c-.1-.1-.3 0-.4 0l-.2.1c-.1.2-.2.3-.2.3z" fill="#fff"/><path d="m135.3 165.1c0 .1 0 .1 0 0l.8.4h.2c.1 0 .2 0 .3-.1l.2-.1c.1 0 .1-.1.1-.1s0 .1-.1.1l-.2.1c-.1 0-.2.1-.3.1s-.1 0-.2 0l-.7-.4c-.1.1-.1.1-.1 0z" fill="#fff"/><path d="m136.7 165.9s0 .1 0 0l.8.5h.2c.1 0 .2 0 .3-.1l.2-.1c.1 0 .1-.1.1-.1s0-.1-.1-.1l-.7-.4c-.1-.1-.3-.1-.4 0l-.2.1c-.2.1-.2.1-.2.2z" fill="#666"/><path d="m136.7 165.8c0 .1 0 .1.1.2l.7.4h.2c.1 0 .2 0 .3-.1l.2-.1c.1 0 .1-.1.1-.1v-.1s0 .1-.1.1l-.2.1c-.1 0-.2.1-.3.1s-.1 0-.2 0l-.8-.5c.1.1 0 0 0 0z" fill="#d9d9d9"/><path d="m137.7 166.3c.1.1.2.1.3 0l.2-.1c.1 0 .1-.1.1-.1v-.1s0 .1-.1.1l-.2.1c-.1.1-.2.1-.3.1z" fill="#bfbfbf"/><path d="m136.7 165.8s.1.1 0 0l.8.4h.2c.1 0 .2 0 .3-.1l.2-.1c.1 0 .1-.1.1-.1s0-.1-.1-.1l-.7-.4c-.1-.1-.3 0-.4 0l-.2.1c-.1.2-.2.3-.2.3z" fill="#fff"/><path d="m136.7 165.8s.1.1 0 0l.8.4h.2c.1 0 .2 0 .3-.1l.2-.1c.1 0 .1-.1.1-.1s0 .1-.1.1l-.2.1c-.1 0-.2.1-.3.1s-.1 0-.2 0l-.7-.4c0 .1-.1 0-.1 0z" fill="#fff"/><path d="m138 166.6.8.5h.2c.1 0 .2 0 .3-.1l.2-.1c.1 0 .1-.1.1-.1s0-.1-.1-.1l-.7-.4c-.1-.1-.3-.1-.4 0l-.2.1c-.1.1-.2.1-.2.2z" fill="#666"/><path d="m138.1 166.5c0 .1 0 .1.1.2l.7.4h.2c.1 0 .2 0 .3-.1l.2-.1c.1 0 .1-.1.1-.1v-.1s0 .1-.1.1l-.2.1c-.1 0-.2.1-.3.1s-.1 0-.2 0z" fill="#d9d9d9"/><path d="m139.1 167.1c.1.1.2.1.3 0l.2-.1c.1 0 .1-.1.1-.1v-.1s0 .1-.1.1l-.2.1c-.1.1-.2.1-.3.1z" fill="#bfbfbf"/><path d="m138.1 166.5s0 .1 0 0l.8.4h.2c.1 0 .2 0 .3-.1l.2-.1c.1 0 .1-.1.1-.1s0-.1-.1-.1l-.7-.4c-.1-.1-.3 0-.4 0l-.2.1c-.2.2-.2.2-.2.3z" fill="#fff"/><path d="m138.1 166.5.8.4h.2c.1 0 .2 0 .3-.1l.2-.1c.1 0 .1-.1.1-.1s0 .1-.1.1l-.2.1c-.1 0-.2.1-.3.1s-.1 0-.2 0l-.7-.4c-.1.1-.1 0-.1 0z" fill="#fff"/><path d="m139.4 167.3c0 .1.1.1 0 0l.8.5h.2c.1 0 .2 0 .3-.1l.2-.1c.1 0 .1-.1.1-.1s0-.1-.1-.1l-.7-.4c-.1-.1-.3-.1-.4 0l-.2.1c-.1.1-.2.2-.2.2z" fill="#666"/><path d="m139.5 167.3c0 .1 0 .1.1.2l.7.4h.2c.1 0 .2 0 .3-.1l.2-.1c.1 0 .1-.1.1-.1v-.1s0 .1-.1.1l-.2.1c-.1 0-.2.1-.3.1s-.1 0-.2 0z" fill="#d9d9d9"/><path d="m140.4 167.7c.1.1.2.1.3 0l.2-.1c.1 0 .1-.1.1-.1v-.1s0 .1-.1.1l-.2.1c-.1.1-.2.1-.3.1z" fill="#bfbfbf"/><path d="m139.5 167.3.8.4h.2s.2 0 .3-.1l.2-.1c.1 0 .1-.1.1-.1s0-.1-.1-.1l-.7-.4c-.1-.1-.3 0-.4 0l-.2.1c-.2.2-.2.2-.2.3z" fill="#fff"/><path d="m139.5 167.2c0 .1 0 .1 0 0l.8.4h.2s.2 0 .3-.1l.2-.1c.1 0 .1-.1.1-.1s0 .1-.1.1l-.2.1c-.1 0-.2.1-.3.1s-.1 0-.2 0l-.7-.4c-.1.1-.1.1-.1 0z" fill="#fff"/><path d="m140.9 168s0 .1 0 0l.8.5h.2c.1 0 .2 0 .3-.1l.2-.1c.1 0 .1-.1.1-.1s0-.1-.1-.1l-.7-.4c-.1-.1-.3-.1-.4 0l-.2.1c-.2.1-.2.2-.2.2z" fill="#666"/><path d="m140.9 167.9c0 .1 0 .1.1.2l.7.4h.2s.2 0 .3-.1l.2-.1c.1 0 .1-.1.1-.1v-.1s0 .1-.1.1l-.2.1c-.1 0-.2.1-.3.1s-.1 0-.2 0l-.8-.5c0 .1 0 .1 0 0z" fill="#d9d9d9"/><path d="m141.8 168.4c.1.1.2.1.3 0l.2-.1c.1 0 .1-.1.1-.1v-.1s0 .1-.1.1l-.2.1c-.1.1-.2.1-.3.1z" fill="#bfbfbf"/><path d="m140.9 167.9c0 .1 0 .1 0 0l.8.4h.2c.1 0 .2 0 .3-.1l.2-.1c.1 0 .1-.1.1-.1s0-.1-.1-.1l-.7-.4c-.1-.1-.3 0-.4 0l-.2.1c-.2.2-.2.3-.2.3z" fill="#fff"/><path d="m140.9 167.9s0 .1 0 0l.8.4h.2c.1 0 .2 0 .3-.1l.2-.1c.1 0 .1-.1.1-.1s0 .1-.1.1l-.2.1c-.1 0-.2.1-.3.1s-.1 0-.2 0l-.7-.4c-.1.1-.1.1-.1 0z" fill="#fff"/><path d="m142.2 168.7s0 .1 0 0l.8.5h.2c.1 0 .2 0 .3-.1l.2-.1c.1 0 .1-.1.1-.1s0-.1-.1-.1l-.7-.4c-.1-.1-.3-.1-.4 0l-.2.1c-.2.1-.2.1-.2.2z" fill="#666"/><path d="m142.2 168.6c0 .1 0 .1.1.2l.7.4h.2s.2 0 .3-.1l.2-.1c.1 0 .1-.1.1-.1v-.1s0 .1-.1.1l-.2.1c-.1 0-.2.1-.3.1s-.1 0-.2 0z" fill="#d9d9d9"/><path d="m143.3 169.1c.1.1.2.1.3 0l.2-.1c.1 0 .1-.1.1-.1v-.1s0 .1-.1.1l-.2.1c-.2.1-.3.1-.3.1z" fill="#bfbfbf"/><path d="m142.2 168.6s0 .1 0 0l.8.4h.2c.1 0 .2 0 .3-.1l.2-.1c.1 0 .1-.1.1-.1s0-.1-.1-.1l-.7-.4c-.1-.1-.3 0-.4 0l-.2.1c-.1.2-.2.3-.2.3z" fill="#fff"/><path d="m142.2 168.6s0 .1 0 0l.8.4h.2c.1 0 .2 0 .3-.1l.2-.1c.1 0 .1-.1.1-.1s0 .1-.1.1l-.2.1c-.1 0-.2.1-.3.1s-.1 0-.2 0l-.7-.4c-.1.1-.1 0-.1 0z" fill="#fff"/><path d="m143.6 169.5.8.5h.2s.2 0 .3-.1l.2-.1c.1 0 .1-.1.1-.1s0-.1-.1-.1l-.7-.4c-.1-.1-.3-.1-.4 0l-.2.1c-.2.1-.2.1-.2.2z" fill="#666"/><path d="m143.6 169.4c0 .1 0 .1.1.2l.7.4h.2c.1 0 .2 0 .3-.1l.2-.1c.1 0 .1-.1.1-.1v-.1s0 .1-.1.1l-.2.1c-.1 0-.2.1-.3.1s-.1 0-.2 0z" fill="#d9d9d9"/><path d="m144.6 169.9c.1.1.2.1.3 0l.2-.1c.1 0 .1-.1.1-.1v-.1s0 .1-.1.1l-.2.1c-.1 0-.2.1-.3.1z" fill="#bfbfbf"/><path d="m143.6 169.4s.1 0 0 0l.8.4h.2s.2 0 .3-.1l.2-.1c.1 0 .1-.1.1-.1s0-.1-.1-.1l-.7-.4c-.1-.1-.3 0-.4 0l-.2.1c-.1.2-.2.2-.2.3z" fill="#fff"/><path d="m143.6 169.4s.1 0 0 0l.8.4h.2s.2 0 .3-.1l.2-.1c.1 0 .1-.1.1-.1s0 .1-.1.1l-.2.1c-.1 0-.2.1-.3.1s-.1 0-.2 0l-.7-.4z" fill="#fff"/><path d="m144.9 170.1c0 .1 0 .1 0 0l.8.5h.2c.1 0 .2 0 .3-.1l.2-.1c.1 0 .1-.1.1-.1s0-.1-.1-.1l-.7-.4c-.1-.1-.3-.1-.4 0l-.2.1c-.1.1-.2.2-.2.2z" fill="#666"/><path d="m145 170.1c0 .1 0 .1.1.2l.7.4h.2c.1 0 .2 0 .3-.1l.2-.1c.1 0 .1-.1.1-.1v-.1s0 .1-.1.1l-.2.1c-.1 0-.2.1-.3.1s-.1 0-.2 0z" fill="#d9d9d9"/><path d="m146 170.5c.1.1.2.1.3 0l.2-.1c.1 0 .1-.1.1-.1v-.1s0 .1-.1.1l-.2.1c-.1.1-.2.1-.3.1z" fill="#bfbfbf"/><path d="m145 170.1.8.4h.2c.1 0 .2 0 .3-.1l.2-.1c.1 0 .1-.1.1-.1s0-.1-.1-.1l-.7-.4c-.1-.1-.3 0-.4 0l-.2.1c-.2.2-.2.2-.2.3 0-.1 0 0 0 0z" fill="#fff"/><path d="m145 170c0 .1 0 .1 0 0l.8.4h.2c.1 0 .2 0 .3-.1l.2-.1c.1 0 .1-.1.1-.1s0 .1-.1.1l-.2.1c-.1 0-.2.1-.3.1s-.1 0-.2 0l-.7-.4c-.1.1-.1.1-.1 0z" fill="#fff"/><path d="m146.3 170.8s.1.1 0 0l.8.5h.2c.1 0 .2 0 .3-.1l.2-.1c.1 0 .1-.1.1-.1s0-.1-.1-.1l-.7-.4c-.1-.1-.3-.1-.4 0l-.2.1c-.1.1-.2.2-.2.2z" fill="#666"/><path d="m146.4 170.7c0 .1 0 .1.1.2l.7.4h.2c.1 0 .2 0 .3-.1l.2-.1c.1 0 .1-.1.1-.1v-.1s0 .1-.1.1l-.2.1c-.1 0-.2.1-.3.1s-.1 0-.2 0l-.8-.5c0 .1 0 .1 0 0z" fill="#d9d9d9"/><path d="m147.3 171.2c.1.1.2.1.3 0l.2-.1c.1 0 .1-.1.1-.1v-.1s0 .1-.1.1l-.2.1c-.1.1-.2.1-.3.1z" fill="#bfbfbf"/><path d="m146.4 170.7c0 .1 0 .1 0 0l.8.4h.2c.1 0 .2 0 .3-.1l.2-.1c.1 0 .1-.1.1-.1s0-.1-.1-.1l-.7-.4c-.1-.1-.3 0-.4 0l-.2.1c-.2.2-.2.3-.2.3z" fill="#fff"/><path d="m146.4 170.7s0 .1 0 0l.8.4h.2c.1 0 .2 0 .3-.1l.2-.1c.1 0 .1-.1.1-.1s0 .1-.1.1l-.2.1c-.1 0-.2.1-.3.1s-.1 0-.2 0l-.7-.4c-.1.1-.1.1-.1 0z" fill="#fff"/><path d="m145.1 171.4s.1 0 0 0l.8.5h.2c.1 0 .2 0 .3-.1l.4-.2c.1 0 .1-.1.1-.1s0-.1-.1-.1l-.7-.4c-.1-.1-.3-.1-.4 0l-.4.2c-.1.1-.1.1-.2.2z" fill="#666"/><path d="m145.2 171.3c0 .1 0 .1.1.2l.7.4h.2c.1 0 .2 0 .3-.1l.4-.2c.1 0 .1-.1.1-.1v-.1s0 .1-.1.1l-.4.2c-.1 0-.2.1-.3.1s-.1 0-.2 0z" fill="url(#c)"/><path d="m146.2 171.9c.1.1.2.1.3 0l.4-.2c.1 0 .1-.1.1-.1v-.1s0 .1-.1.1l-.4.2c-.1.1-.2.1-.3.1z" fill="#bfbfbf"/><path d="m145.2 171.3.8.4h.2c.1 0 .2 0 .3-.1l.4-.2c.1 0 .1-.1.1-.1s0-.1-.1-.1l-.7-.4c-.1-.1-.3 0-.4 0l-.4.2c-.2.2-.2.2-.2.3z" fill="#fff"/><path d="m145.2 171.3.8.4h.2c.1 0 .2 0 .3-.1l.4-.2c.1 0 .1-.1.1-.1s0 .1-.1.1l-.4.2c-.1 0-.2.1-.3.1s-.1 0-.2 0l-.7-.4c-.1 0-.1 0-.1 0z" fill="#fff"/><path d="m143.8 170.7s0 .1 0 0l.8.5h.2c.1 0 .2 0 .3-.1l.4-.2c.1 0 .1-.1.1-.1s0-.1-.1-.1l-.7-.4c-.1-.1-.3-.1-.4 0l-.4.2c-.1.1-.2.1-.2.2z" fill="#666"/><path d="m143.9 170.6c0 .1 0 .1.1.2l.7.4h.2c.1 0 .2 0 .3-.1l.4-.2c.1 0 .1-.1.1-.1v-.1s0 .1-.1.1l-.4.2c-.1 0-.2.1-.3.1s-.1 0-.2 0z" fill="url(#d)"/><path d="m144.8 171.1c.1.1.2.1.3 0l.4-.2c.1 0 .1-.1.1-.1v-.1s0 .1-.1.1l-.4.2c-.1.1-.2.1-.3.1z" fill="#bfbfbf"/><path d="m143.9 170.6s0 .1 0 0l.8.4h.2c.1 0 .2 0 .3-.1l.4-.2c.1 0 .1-.1.1-.1s0-.1-.1-.1l-.7-.4c-.1-.1-.3 0-.4 0l-.4.2c-.2.2-.2.3-.2.3z" fill="#fff"/><path d="m143.9 170.6s0 .1 0 0l.8.4h.2c.1 0 .2 0 .3-.1l.4-.2c.1 0 .1-.1.1-.1s0 .1-.1.1l-.4.2c-.1 0-.2.1-.3.1s-.1 0-.2 0l-.7-.4c-.1.1-.1 0-.1 0z" fill="#fff"/><path d="m142.4 170c0 .1 0 .1 0 0l.8.5h.2c.1 0 .2 0 .3-.1l.4-.2c.1 0 .1-.1.1-.1s0-.1-.1-.1l-.7-.4c-.1-.1-.3-.1-.4 0l-.4.2c-.2.1-.2.2-.2.2z" fill="#666"/><path d="m142.4 169.9c0 .1 0 .1.1.2l.7.4h.2c.1 0 .2 0 .3-.1l.4-.2c.1 0 .1-.1.1-.1v-.1s0 .1-.1.1l-.4.2c-.1 0-.2.1-.3.1s-.1 0-.2 0l-.8-.5c.1.1 0 .1 0 0z" fill="url(#e)"/><path d="m143.5 170.4c.1.1.2.1.3 0l.4-.2c.1 0 .1-.1.1-.1v-.1s0 .1-.1.1l-.4.2c-.1.1-.2.1-.3.1z" fill="#bfbfbf"/><path d="m142.4 169.9c0 .1.1.1 0 0l.8.4h.2c.1 0 .2 0 .3-.1l.4-.2c.1 0 .1-.1.1-.1s0-.1-.1-.1l-.7-.4c-.1-.1-.3 0-.4 0l-.4.2c-.1.3-.2.3-.2.3z" fill="#fff"/><path d="m142.4 169.9c0 .1.1.1 0 0l.8.4h.2c.1 0 .2 0 .3-.1l.4-.2c.1 0 .1-.1.1-.1s0 .1-.1.1l-.4.2c-.1 0-.2.1-.3.1s-.1 0-.2 0l-.7-.4c0 .1-.1.1-.1 0z" fill="#fff"/><path d="m141.1 169.4.8.5h.2c.1 0 .2 0 .3-.1l.4-.2c.1 0 .1-.1.1-.1s0-.1-.1-.1l-.7-.4c-.1-.1-.3-.1-.4 0l-.4.2c-.2.1-.2.1-.2.2 0-.1 0 0 0 0z" fill="#666"/><path d="m141.1 169.3c0 .1 0 .1.1.2l.7.4h.2c.1 0 .2 0 .3-.1l.4-.2c.1 0 .1-.1.1-.1v-.1s0 .1-.1.1l-.4.2c-.1 0-.2.1-.3.1s-.1 0-.2 0z" fill="url(#f)"/><path d="m142 169.8c.1.1.2.1.3 0l.4-.2c.1 0 .1-.1.1-.1v-.1s0 .1-.1.1l-.4.2c-.1 0-.2.1-.3.1z" fill="#bfbfbf"/><path d="m141.1 169.3.8.4h.2c.1 0 .2 0 .3-.1l.4-.2c.1 0 .1-.1.1-.1s0-.1-.1-.1l-.7-.4c-.1-.1-.3 0-.4 0l-.4.2c-.1.1-.2.1-.2.3z" fill="#fff"/><path d="m141.1 169.3.8.4h.2c.1 0 .2 0 .3-.1l.4-.2c.1 0 .1-.1.1-.1s0 .1-.1.1l-.4.2c-.1 0-.2.1-.3.1s-.1 0-.2 0l-.7-.4c-.1 0-.1 0-.1 0z" fill="#fff"/><path d="m139.6 168.6s.1.1 0 0l.8.5h.2c.1 0 .2 0 .3-.1l.4-.2c.1 0 .1-.1.1-.1s0-.1-.1-.1l-.7-.4c-.1-.1-.3-.1-.4 0l-.4.2c-.1.1-.1.1-.2.2z" fill="#666"/><path d="m139.7 168.5c0 .1 0 .1.1.2l.7.4h.2c.1 0 .2 0 .3-.1l.4-.2c.1 0 .1-.1.1-.1v-.1s0 .1-.1.1l-.4.2c-.1 0-.2.1-.3.1s-.1 0-.2 0z" fill="url(#g)"/><path d="m140.6 169c.1.1.2.1.3 0l.4-.2c.1 0 .1-.1.1-.1v-.1s0 .1-.1.1l-.4.2c0 .1-.1.1-.3.1z" fill="#bfbfbf"/><path d="m139.7 168.5s0 .1 0 0l.8.4h.2c.1 0 .2 0 .3-.1l.4-.2c.1 0 .1-.1.1-.1s0-.1-.1-.1l-.7-.4c-.1-.1-.3 0-.4 0l-.4.2c-.2.2-.2.3-.2.3z" fill="#fff"/><path d="m139.7 168.5s0 .1 0 0l.8.4h.2c.1 0 .2 0 .3-.1l.4-.2c.1 0 .1-.1.1-.1s0 .1-.1.1l-.4.2c-.1 0-.2.1-.3.1s-.1 0-.2 0l-.7-.4c-.1.1-.1 0-.1 0z" fill="#fff"/><path d="m138.2 167.9c0 .1.1.1 0 0l.8.5h.2c.1 0 .2 0 .3-.1l.4-.2c.1 0 .1-.1.1-.1s0-.1-.1-.1l-.7-.4c-.1-.1-.3-.1-.4 0l-.4.2c-.1.1-.2.2-.2.2z" fill="#666"/><path d="m138.3 167.8c0 .1 0 .1.1.2l.7.4h.2c.1 0 .2 0 .3-.1l.4-.2c.1 0 .1-.1.1-.1v-.1s0 .1-.1.1l-.4.2c-.1 0-.2.1-.3.1s-.1 0-.2 0l-.8-.5c0 .1 0 .1 0 0z" fill="url(#h)"/><path d="m139.3 168.3c.1.1.2.1.3 0l.4-.2c.1 0 .1-.1.1-.1v-.1s0 .1-.1.1l-.4.2c-.1.1-.2.1-.3.1z" fill="#bfbfbf"/><path d="m138.3 167.8c0 .1 0 .1 0 0l.8.4h.2s.2 0 .3-.1l.4-.2c.1 0 .1-.1.1-.1s0-.1-.1-.1l-.7-.4c-.1-.1-.3 0-.4 0l-.4.2c-.2.2-.2.3-.2.3z" fill="#fff"/><path d="m138.3 167.8c0 .1 0 .1 0 0l.8.4h.2s.2 0 .3-.1l.4-.2c.1 0 .1-.1.1-.1s0 .1-.1.1l-.4.2c-.1 0-.2.1-.3.1s-.1 0-.2 0l-.7-.4c-.1.1-.1.1-.1 0z" fill="#fff"/><path d="m136.9 167.2c0 .1 0 .1 0 0l.8.5h.2s.2 0 .3-.1l.4-.2c.1 0 .1-.1.1-.1s0-.1-.1-.1l-.7-.4c-.1-.1-.3-.1-.4 0l-.4.2c-.2.2-.2.2-.2.2z" fill="#666"/><path d="m136.9 167.2c0 .1 0 .1.1.2l.7.4h.2c.1 0 .2 0 .3-.1l.4-.2c.1 0 .1-.1.1-.1v-.1s0 .1-.1.1l-.4.2c-.1 0-.2.1-.3.1s-.1 0-.2 0z" fill="url(#i)"/><path d="m137.9 167.7c.1.1.2.1.3 0l.4-.2c.1 0 .1-.1.1-.1v-.1s0 .1-.1.1l-.4.2c-.1 0-.2.1-.3.1z" fill="#bfbfbf"/><path d="m136.9 167.2s.1 0 0 0l.8.4h.2s.2 0 .3-.1l.4-.2c.1 0 .1-.1.1-.1s0-.1-.1-.1l-.7-.4c-.1-.1-.3 0-.4 0l-.4.2c-.1.2-.2.2-.2.3z" fill="#fff"/><path d="m136.9 167.2c.1 0 .1 0 0 0l.8.4h.2s.2 0 .3-.1l.4-.2c.1 0 .1-.1.1-.1s0 .1-.1.1l-.4.2c-.1 0-.2.1-.3.1s-.1 0-.2 0l-.7-.4z" fill="#fff"/><path d="m135.5 166.5s0 .1 0 0l.8.5h.2c.1 0 .2 0 .3-.1l.4-.2c.1 0 .1-.1.1-.1s0-.1-.1-.1l-.7-.4c-.1-.1-.3-.1-.4 0l-.4.2c-.2.1-.2.1-.2.2z" fill="#666"/><path d="m135.5 166.4c0 .1 0 .1.1.2l.7.4h.2c.1 0 .2 0 .3-.1l.4-.2c.1 0 .1-.1.1-.1v-.1s0 .1-.1.1l-.4.2c-.1 0-.2.1-.3.1s-.1 0-.2 0z" fill="url(#j)"/><path d="m136.6 167c.1.1.2.1.3 0l.4-.2c.1 0 .1-.1.1-.1v-.1s0 .1-.1.1l-.4.2c-.2.1-.3.1-.3.1z" fill="#bfbfbf"/><path d="m135.5 166.4s0 .1 0 0l.8.4h.2c.1 0 .2 0 .3-.1l.4-.2c.1 0 .1-.1.1-.1s0-.1-.1-.1l-.7-.4c-.1-.1-.3 0-.4 0l-.4.2c-.1.2-.2.3-.2.3z" fill="#fff"/><path d="m135.5 166.4.8.4h.2c.1 0 .2 0 .3-.1l.4-.2c.1 0 .1-.1.1-.1s0 .1-.1.1l-.4.2c-.1 0-.2.1-.3.1s-.1 0-.2 0l-.7-.4c-.1.1-.1 0-.1 0z" fill="#fff"/><path d="m134.2 165.8s0 .1 0 0l.8.5h.2c.1 0 .2 0 .3-.1l.4-.2c.1 0 .1-.1.1-.1s0-.1-.1-.1l-.7-.4c-.1-.1-.3-.1-.4 0l-.4.2c-.2.1-.2.2-.2.2z" fill="#666"/><path d="m134.2 165.7c0 .1 0 .1.1.2l.7.4h.2c.1 0 .2 0 .3-.1l.4-.2c.1 0 .1-.1.1-.1v-.1s0 .1-.1.1l-.4.2c-.1 0-.2.1-.3.1s-.1 0-.2 0l-.8-.5c0 .1 0 .1 0 0z" fill="url(#k)"/><path d="m135.1 166.2c.1.1.2.1.3 0l.4-.2c.1 0 .1-.1.1-.1v-.1s0 .1-.1.1l-.4.2c-.1.1-.2.1-.3.1z" fill="#bfbfbf"/><path d="m134.2 165.7c0 .1 0 .1 0 0l.8.4h.2c.1 0 .2 0 .3-.1l.4-.2c.1 0 .1-.1.1-.1s0-.1-.1-.1l-.7-.4c-.1-.1-.3 0-.4 0l-.4.2c-.2.2-.2.3-.2.3z" fill="#fff"/><path d="m134.2 165.7s0 .1 0 0l.8.4h.2c.1 0 .2 0 .3-.1l.4-.2c.1 0 .1-.1.1-.1s0 .1-.1.1l-.4.2c-.1 0-.2.1-.3.1s-.1 0-.2 0l-.7-.4c-.1.1-.1.1-.1 0z" fill="#fff"/><path d="m132.7 165.1c0 .1.1.1 0 0l.8.5h.2c.1 0 .2 0 .3-.1l.4-.2c.1 0 .1-.1.1-.1s0-.1-.1-.1l-.7-.4c-.1-.1-.3-.1-.4 0l-.4.2c-.1.1-.2.2-.2.2z" fill="#666"/><path d="m132.8 165.1c0 .1 0 .1.1.2l.7.4h.2c.1 0 .2 0 .3-.1l.4-.2c.1 0 .1-.1.1-.1v-.1s0 .1-.1.1l-.4.2c-.1 0-.2.1-.3.1s-.1 0-.2 0z" fill="url(#l)"/><path d="m133.8 165.5c.1.1.2.1.3 0l.4-.2c.1 0 .1-.1.1-.1v-.1s0 .1-.1.1l-.4.2c-.1.1-.2.2-.3.1z" fill="#bfbfbf"/><path d="m132.8 165.1.8.4h.2c.1 0 .2 0 .3-.1l.4-.2c.1 0 .1-.1.1-.1s0-.1-.1-.1l-.7-.4c-.1-.1-.3 0-.4 0l-.4.2c-.2.2-.2.2-.2.3z" fill="#fff"/><path d="m132.8 165c0 .1 0 .1 0 0l.8.4h.2c.1 0 .2 0 .3-.1l.4-.2c.1 0 .1-.1.1-.1s0 .1-.1.1l-.4.2c-.1 0-.2.1-.3.1s-.1 0-.2 0l-.7-.4c-.1.1-.1.1-.1 0z" fill="#fff"/><path d="m131.4 164.4.8.5h.2c.1 0 .2 0 .3-.1l.4-.2c.1 0 .1-.1.1-.1s0-.1-.1-.1l-.7-.4c-.1-.1-.3-.1-.4 0l-.4.2c-.2.1-.2.1-.2.2z" fill="#666"/><path d="m131.4 164.3c0 .1 0 .1.1.2l.7.4h.2c.1 0 .2 0 .3-.1l.4-.2c.1 0 .1-.1.1-.1v-.1s0 .1-.1.1l-.4.2c-.1 0-.2.1-.3.1s-.1 0-.2 0l-.8-.5c.1.1 0 0 0 0z" fill="url(#m)"/><path d="m132.4 164.9c.1.1.2.1.3 0l.4-.2c.1 0 .1-.1.1-.1v-.1s0 .1-.1.1l-.4.2c-.1.1-.2.1-.3.1z" fill="#bfbfbf"/><path d="m131.4 164.3s.1.1 0 0l.8.4h.2c.1 0 .2 0 .3-.1l.4-.2c.1 0 .1-.1.1-.1s0-.1-.1-.1l-.7-.4c-.1-.1-.3 0-.4 0l-.4.2c-.1.2-.2.2-.2.3z" fill="#fff"/><path d="m131.4 164.3c.1 0 .1 0 0 0l.8.4h.2c.1 0 .2 0 .3-.1l.4-.2c.1 0 .1-.1.1-.1s0 .1-.1.1l-.4.2c-.1 0-.2.1-.3.1s-.1 0-.2 0l-.7-.4c0 .1-.1 0-.1 0z" fill="#fff"/><path d="m130 163.7s0 .1 0 0l.8.5h.2c.1 0 .2 0 .3-.1l.4-.2c.1 0 .1-.1.1-.1s0-.1-.1-.1l-.7-.4c-.1-.1-.3-.1-.4 0l-.4.2c-.2.1-.2.2-.2.2z" fill="#666"/><path d="m130 163.6c0 .1 0 .1.1.2l.7.4h.2c.1 0 .2 0 .3-.1l.4-.2c.1 0 .1-.1.1-.1v-.1s0 .1-.1.1l-.4.2c-.1 0-.2.1-.3.1s-.1 0-.2 0l-.8-.5c0 .1 0 .1 0 0z" fill="url(#n)"/><path d="m131 164.1c.1.1.2.1.3 0l.4-.2c.1 0 .1-.1.1-.1v-.1s0 .1-.1.1l-.4.2c-.2.1-.3.1-.3.1z" fill="#bfbfbf"/><path d="m130 163.6c0 .1 0 .1 0 0l.8.4h.2c.1 0 .2 0 .3-.1l.4-.2c.1 0 .1-.1.1-.1s0-.1-.1-.1l-.7-.4c-.1-.1-.3 0-.4 0l-.4.2c-.1.2-.2.3-.2.3z" fill="#fff"/><path d="m130 163.6s0 .1 0 0l.8.4h.2c.1 0 .2 0 .3-.1l.4-.2c.1 0 .1-.1.1-.1s0 .1-.1.1l-.4.2c-.1 0-.2.1-.3.1s-.1 0-.2 0l-.7-.4c-.1.1-.1.1-.1 0z" fill="#fff"/><path d="m143.7 171.9 1.1.7h.2c.1 0 .2 0 .3-.1l.4-.2c.1 0 .1-.1.1-.1s0-.1-.1-.1l-1.1-.6c-.1-.1-.3-.1-.4 0l-.4.2c-.1.1-.1.1-.1.2z" fill="#666"/><path d="m143.7 171.8c0 .1 0 .1.1.2l1 .5h.2c.1 0 .2 0 .3-.1l.4-.2c.1 0 .1-.1.1-.1v-.1s0 .1-.1.1l-.4.2c-.1 0-.2.1-.3.1s-.1 0-.2 0l-1.1-.6c.1.1 0 0 0 0z" fill="#d9d9d9"/><path d="m145 172.5c.1.1.2.1.3 0l.4-.2c.1 0 .1-.1.1-.1v-.1s0 .1-.1.1l-.4.2c-.1 0-.2.1-.3.1z" fill="#bfbfbf"/><path d="m143.7 171.8s.1.1 0 0l1.1.6h.2c.1 0 .2 0 .3-.1l.4-.2c.1 0 .1-.1.1-.1s0-.1-.1-.1l-1-.5c-.1-.1-.3 0-.4 0l-.4.2c-.1.1-.2.1-.2.2z" fill="#fff"/><path d="m143.7 171.8s.1 0 0 0l1.1.6h.2c.1 0 .2 0 .3-.1l.4-.2c.1 0 .1-.1.1-.1s0 .1-.1.1l-.4.2c-.1 0-.2.1-.3.1s-.1 0-.2 0l-1-.5z" fill="#fff"/><path d="m141.4 172s0 .1 0 0l2.2 1.1h.2c.1 0 .2 0 .3-.1l.4-.2c.1 0 .1-.1.1-.1s0-.1-.1-.1l-2.1-1c-.1-.1-.3-.1-.4 0l-.4.2c-.1.1-.2.1-.2.2z" fill="#666"/><path d="m141.5 171.9c0 .1 0 .1.1.2l2.1 1h.2s.2 0 .3-.1l.4-.2c.1 0 .1-.1.1-.1v-.1s0 .1-.1.1l-.4.2c-.1 0-.2.1-.3.1s-.1 0-.2 0l-2.2-1.1c0 .1 0 .1 0 0z" fill="#d9d9d9"/><path d="m143.8 173.1c.1.1.2.1.3 0l.4-.2c.1 0 .1-.1.1-.1v-.1s0 .1-.1.1l-.4.2c-.1 0-.2.1-.3.1z" fill="#bfbfbf"/><path d="m141.5 171.9c0 .1 0 .1 0 0l2.1 1.1h.2c.1 0 .2 0 .3-.1l.4-.2c.1 0 .1-.1.1-.1s0-.1-.1-.1l-2.1-1c-.1-.1-.3 0-.4 0l-.4.2c-.1.1-.1.2-.1.2z" fill="#fff"/><path d="m141.5 171.9s0 .1 0 0l2.1 1.1h.2c.1 0 .2 0 .3-.1l.4-.2c.1 0 .1-.1.1-.1s0 .1-.1.1l-.4.2c-.1 0-.2.1-.3.1s-.1 0-.2 0l-2.1-1s0 0 0-.1z" fill="#fff"/><path d="m140 172.6c0 .1 0 .1 0 0l2.3 1.1h.2c.1 0 .2 0 .3-.1l.4-.2c.1 0 .1-.1.1-.1s0-.1-.1-.1l-2.2-1c-.1-.1-.3-.1-.4 0l-.4.2c-.2.2-.2.2-.2.2z" fill="#666"/><path d="m140 172.6c0 .1 0 .1.1.2l2.1 1h.2c.1 0 .2 0 .3-.1l.4-.2c.1 0 .1-.1.1-.1v-.1s0 .1-.1.1l-.4.2c-.1 0-.2.1-.3.1s-.1 0-.2 0z" fill="#d9d9d9"/><path d="m142.4 173.7c.1.1.2.1.3 0l.4-.2c.1 0 .1-.1.1-.1v-.1s0 .1-.1.1l-.4.2c-.1.1-.2.1-.3.1z" fill="#bfbfbf"/><path d="m140 172.6s.1 0 0 0l2.2 1.1h.2c.1 0 .2 0 .3-.1l.4-.2c.1 0 .1-.1.1-.1s0-.1-.1-.1l-2.1-1c-.1-.1-.3 0-.4 0l-.4.2c-.1.1-.1.1-.2.2z" fill="#fff"/><path d="m140.1 172.6 2.2 1.1h.2c.1 0 .2 0 .3-.1l.4-.2c.1 0 .1-.1.1-.1s0 .1-.1.1l-.4.2c-.1 0-.2.1-.3.1s-.1 0-.2 0l-2.1-1c-.1-.1-.2-.1-.1-.1-.1 0-.1 0 0 0-.1 0 0 0 0 0z" fill="#fff"/><path d="m140.2 173.9s0 .2 0 0l.8.5h.2c.1 0 .2 0 .3-.1l.4-.2c.1 0 .1-.1.1-.1s0-.1-.1-.1l-.7-.4c-.1-.1-.3-.1-.4 0l-.4.2c-.2.1-.2.1-.2.2z" fill="#666"/><path d="m140.2 173.8c0 .1 0 .1.1.2l.7.4h.2s.2 0 .3-.1l.4-.2c.1 0 .1-.1.1-.1v-.1s0 .1-.1.1l-.4.2c-.1 0-.2.1-.3.1s-.1 0-.2 0z" fill="url(#o)"/><path d="m141.3 174.4c.1.1.2.1.3 0l.4-.2c.1 0 .1-.1.1-.1v-.1s0 .1-.1.1l-.4.2c-.2.1-.3.1-.3.1z" fill="#bfbfbf"/><path d="m140.2 173.8s0 .1 0 0l.8.4h.2c.1 0 .2 0 .3-.1l.4-.2c.1 0 .1-.1.1-.1s0-.1-.1-.1l-.7-.4c-.1-.1-.3 0-.4 0l-.4.2c-.1.2-.2.3-.2.3z" fill="#fff"/><path d="m140.2 173.8s.1.1 0 0l.8.4h.2c.1 0 .2 0 .3-.1l.4-.2c.1 0 .1-.1.1-.1s0 .1-.1.1l-.4.2c-.1 0-.2.1-.3.1s-.1 0-.2 0l-.7-.4c-.1.1-.1 0-.1 0z" fill="#fff"/><path d="m127.2 166.1.8.5h.2c.1 0 .2 0 .3-.1l.4-.2c.1 0 .1-.1.1-.1s0-.1-.1-.1l-.7-.4c-.1-.1-.3-.1-.4 0l-.4.2c-.2.1-.2.1-.2.2z" fill="#666"/><path d="m127.2 166c0 .1 0 .1.1.2l.7.4h.2s.2 0 .3-.1l.4-.2c.1 0 .1-.1.1-.1v-.1s0 .1-.1.1l-.4.2c-.1 0-.2.1-.3.1s-.1 0-.2 0l-.8-.5c.1.1 0 0 0 0z" fill="url(#p)"/><path d="m128.2 166.5c.1.1.2.1.3 0l.4-.2c.1 0 .1-.1.1-.1v-.1s0 .1-.1.1l-.4.2c-.2.1-.3.1-.3.1z" fill="#bfbfbf"/><path d="m127.2 166s.1.1 0 0l.8.4h.2c.1 0 .2 0 .3-.1l.4-.2c.1 0 .1-.1.1-.1s0-.1-.1-.1l-.7-.4c-.1-.1-.3 0-.4 0l-.4.2c-.1.2-.2.2-.2.3z" fill="#fff"/><path d="m127.2 166s.1 0 0 0l.8.4h.2c.1 0 .2 0 .3-.1l.4-.2c.1 0 .1-.1.1-.1s0 .1-.1.1l-.4.2c-.1 0-.2.1-.3.1s-.1 0-.2 0l-.7-.4c0 .1-.1 0-.1 0z" fill="#fff"/><path d="m128.5 166.9s.1 0 0 0l.8.5h.2c.1 0 .2 0 .3-.1l.4-.2c.1 0 .1-.1.1-.1s0-.1-.1-.1l-.7-.4c-.1-.1-.3-.1-.4 0l-.4.2c-.1 0-.2 0-.2.2z" fill="#666"/><path d="m128.6 166.7c0 .1 0 .1.1.2l.7.4h.2c.1 0 .2 0 .3-.1l.4-.2c.1 0 .1-.1.1-.1v-.1s0 .1-.1.1l-.4.2c-.1 0-.2.1-.3.1s-.1 0-.2 0z" fill="url(#q)"/><path d="m129.6 167.3c.1.1.2.1.3 0l.4-.2c.1 0 .1-.1.1-.1v-.1s0 .1-.1.1l-.4.2c-.1.1-.2.1-.3.1z" fill="#bfbfbf"/><path d="m128.6 166.7.8.4h.2c.1 0 .2 0 .3-.1l.4-.2c.1 0 .1-.1.1-.1s0-.1-.1-.1l-.7-.4c-.1-.1-.3 0-.4 0l-.4.2c-.2.2-.2.2-.2.3z" fill="#fff"/><path d="m128.6 166.7.8.4h.2c.1 0 .2 0 .3-.1l.4-.2c.1 0 .1-.1.1-.1s0 .1-.1.1l-.4.2c-.1 0-.2.1-.3.1s-.1 0-.2 0l-.7-.4c-.1 0-.1 0-.1 0z" fill="#fff"/><path d="m130 167.6.8.5h.2c.1 0 .2 0 .3-.1l.4-.2c.1 0 .1-.1.1-.1s0-.1-.1-.1l-.7-.4c-.1-.1-.3-.1-.4 0l-.4.2c-.2.1-.2.1-.2.2z" fill="#666"/><path d="m130 167.5c0 .1 0 .1.1.2l.7.4h.2c.1 0 .2 0 .3-.1l.4-.2c.1 0 .1-.1.1-.1v-.1s0 .1-.1.1l-.4.2c-.1 0-.2.1-.3.1s-.1 0-.2 0z" fill="url(#r)"/><path d="m131 168c.1.1.2.1.3 0l.4-.2c.1 0 .1-.1.1-.1v-.1s0 .1-.1.1l-.4.2s-.2.1-.3.1z" fill="#bfbfbf"/><path d="m130 167.5s.1 0 0 0l.8.4h.2c.1 0 .2 0 .3-.1l.4-.2c.1 0 .1-.1.1-.1s0-.1-.1-.1l-.7-.4c-.1-.1-.3 0-.4 0l-.4.2c-.1.2-.1.2-.2.3z" fill="#fff"/><path d="m130.1 167.5.8.4h.2c.1 0 .2 0 .3-.1l.4-.2c.1 0 .1-.1.1-.1s0 .1-.1.1l-.4.2c-.1 0-.2.1-.3.1s-.1 0-.2 0l-.7-.4c-.1 0-.2 0-.1 0-.1 0-.1 0 0 0z" fill="#fff"/><path d="m131.5 168.3.8.5h.2c.1 0 .2 0 .3-.1l.4-.2c.1 0 .1-.1.1-.1s0-.1-.1-.1l-.7-.4c-.1-.1-.3-.1-.4 0l-.4.2c-.2.1-.2.1-.2.2 0-.1 0 0 0 0z" fill="#666"/><path d="m131.5 168.2c0 .1 0 .1.1.2l.7.4h.2c.1 0 .2 0 .3-.1l.4-.2c.1 0 .1-.1.1-.1v-.1s0 .1-.1.1l-.4.2c-.1 0-.2.1-.3.1s-.1 0-.2 0z" fill="url(#s)"/><path d="m132.4 168.7c.1.1.2.1.3 0l.4-.2c.1 0 .1-.1.1-.1v-.1s0 .1-.1.1l-.4.2c-.1 0-.2.1-.3.1z" fill="#bfbfbf"/><path d="m131.5 168.2.8.4h.2c.1 0 .2 0 .3-.1l.4-.2c.1 0 .1-.1.1-.1s0-.1-.1-.1l-.7-.4c-.1-.1-.3 0-.4 0l-.4.2c-.2.2-.2.2-.2.3z" fill="#fff"/><path d="m131.5 168.2.8.4h.2c.1 0 .2 0 .3-.1l.4-.2c.1 0 .1-.1.1-.1s0 .1-.1.1l-.4.2c-.1 0-.2.1-.3.1s-.1 0-.2 0l-.7-.4c-.1 0-.1 0-.1 0z" fill="#fff"/><path d="m132.8 169s.1 0 0 0l.8.5h.2c.1 0 .2 0 .3-.1l.4-.2c.1 0 .1-.1.1-.1s0-.1-.1-.1l-.7-.4c-.1-.1-.3-.1-.4 0l-.4.2c-.1.1-.2.1-.2.2 0-.1 0 0 0 0z" fill="#666"/><path d="m132.9 168.9c0 .1 0 .1.1.2l.7.4h.2c.1 0 .2 0 .3-.1l.4-.2c.1 0 .1-.1.1-.1v-.1s0 .1-.1.1l-.4.2c-.1 0-.2.1-.3.1s-.1 0-.2 0z" fill="url(#t)"/><path d="m133.9 169.5c.1.1.2.1.3 0l.4-.2c.1 0 .1-.1.1-.1v-.2s0 .1-.1.1l-.4.2c-.1.1-.2.2-.3.2z" fill="#bfbfbf"/><path d="m132.9 168.9.8.4h.2s.2 0 .3-.1l.4-.2c.1 0 .1-.1.1-.1s0-.1-.1-.1l-.7-.4c-.1-.1-.3 0-.4 0l-.4.2c-.2.2-.2.2-.2.3z" fill="#fff"/><path d="m132.9 168.9.8.4h.2s.2 0 .3-.1l.4-.2c.1 0 .1-.1.1-.1s0 .1-.1.1l-.4.2c-.1 0-.2.1-.3.1s-.1 0-.2 0l-.7-.4c-.1 0-.1 0-.1 0z" fill="#fff"/><path d="m134.3 169.8.8.5h.2s.2 0 .3-.1l.4-.2c.1 0 .1-.1.1-.1s0-.1-.1-.1l-.7-.4c-.1-.1-.3-.1-.4 0l-.4.2c-.2.1-.2.1-.2.2z" fill="#666"/><path d="m134.3 169.7c0 .1 0 .1.1.2l.7.4h.2c.1 0 .2 0 .3-.1l.4-.2c.1 0 .1-.1.1-.1v-.1s0 .1-.1.1l-.4.2c-.1 0-.2.1-.3.1s-.1 0-.2 0z" fill="url(#u)"/><path d="m135.3 170.2c.1.1.2.1.3 0l.4-.2c.1 0 .1-.1.1-.1v-.1s0 .1-.1.1l-.4.2c-.1 0-.2.1-.3.1z" fill="#bfbfbf"/><path d="m134.3 169.7s.1 0 0 0l.8.4h.2s.2 0 .3-.1l.4-.2c.1 0 .1-.1.1-.1s0-.1-.1-.1l-.7-.4c-.1-.1-.3 0-.4 0l-.4.2c-.1.2-.2.2-.2.3z" fill="#fff"/><path d="m134.3 169.7s.1 0 0 0l.8.4h.2s.2 0 .3-.1l.4-.2c.1 0 .1-.1.1-.1s0 .1-.1.1l-.4.2c-.1 0-.2.1-.3.1s-.1 0-.2 0l-.7-.4z" fill="#fff"/><path d="m135.7 170.4c0 .1 0 .1 0 0l.8.5h.2s.2 0 .3-.1l.4-.2c.1 0 .1-.1.1-.1s0-.1-.1-.1l-.7-.4c-.1-.1-.3-.1-.4 0l-.4.2c-.2.2-.2.2-.2.2z" fill="#666"/><path d="m135.7 170.4c0 .1 0 .1.1.2l.7.4h.2c.1 0 .2 0 .3-.1l.4-.2c.1 0 .1-.1.1-.1v-.1s0 .1-.1.1l-.4.2c-.1 0-.2.1-.3.1s-.1 0-.2 0z" fill="url(#v)"/><path d="m136.7 170.9c.1.1.2.1.3 0l.4-.2c.1 0 .1-.1.1-.1v-.1s0 .1-.1.1l-.4.2c-.1 0-.2.1-.3.1z" fill="#bfbfbf"/><path d="m135.7 170.4.8.4h.2s.2 0 .3-.1l.4-.2c.1 0 .1-.1.1-.1s0-.1-.1-.1l-.7-.4c-.1-.1-.3 0-.4 0l-.4.2c-.2.2-.2.2-.2.3z" fill="#fff"/><path d="m135.7 170.4.8.4h.2s.2 0 .3-.1l.4-.2c.1 0 .1-.1.1-.1s0 .1-.1.1l-.4.2c-.1 0-.2.1-.3.1s-.1 0-.2 0l-.7-.4c-.1 0-.1 0-.1 0z" fill="#fff"/><path d="m137.1 171.1c0 .1 0 .1 0 0l.8.5h.2c.1 0 .2 0 .3-.1l.4-.2c.1 0 .1-.1.1-.1s0-.1-.1-.1l-.7-.4c-.1-.1-.3-.1-.4 0l-.4.2c-.1.2-.2.2-.2.2z" fill="#666"/><path d="m137.2 171.1c0 .1 0 .1.1.2l.7.4h.2c.1 0 .2 0 .3-.1l.4-.2c.1 0 .1-.1.1-.1v-.1s0 .1-.1.1l-.4.2c-.1 0-.2.1-.3.1s-.1 0-.2 0z" fill="url(#w)"/><path d="m138.1 171.5c.1.1.2.1.3 0l.4-.2c.1 0 .1-.1.1-.1v-.1s0 .1-.1.1l-.4.2c-.1.1-.2.3-.3.1z" fill="#bfbfbf"/><path d="m137.2 171.1.8.4h.2c.1 0 .2 0 .3-.1l.4-.2c.1 0 .1-.1.1-.1s0-.1-.1-.1l-.7-.4c-.1-.1-.3 0-.4 0l-.4.2c-.2.2-.2.2-.2.3z" fill="#fff"/><path d="m137.2 171c0 .1 0 .1 0 0l.8.4h.2c.1 0 .2 0 .3-.1l.4-.2c.1 0 .1-.1.1-.1s0 .1-.1.1l-.4.2c-.1 0-.2.1-.3.1s-.1 0-.2 0l-.7-.4c-.1.1-.1.1-.1 0z" fill="#fff"/><path d="m138.6 171.9c0 .1 0 .1 0 0l.8.5h.2c.1 0 .2 0 .3-.1l.4-.2c.1 0 .1-.1.1-.1s0-.1-.1-.1l-.7-.4c-.1-.1-.3-.1-.4 0l-.4.2c-.2.1-.2.2-.2.2z" fill="#666"/><path d="m138.6 171.9c0 .1 0 .1.1.2l.7.4h.2c.1 0 .2 0 .3-.1l.4-.2c.1 0 .1-.1.1-.1v-.1s0 .1-.1.1l-.4.2c-.1 0-.2.1-.3.1s-.1 0-.2 0z" fill="url(#x)"/><path d="m139.5 172.3c.1.1.2.1.3 0l.4-.2c.1 0 .1-.1.1-.1v-.1s0 .1-.1.1l-.4.2c-.1.1-.2.2-.3.1z" fill="#bfbfbf"/><path d="m138.6 171.9.8.4h.2c.1 0 .2 0 .3-.1l.4-.2c.1 0 .1-.1.1-.1s0-.1-.1-.1l-.7-.4c-.1-.1-.3 0-.4 0l-.4.2c-.1.2-.2.2-.2.3z" fill="#fff"/><path d="m138.6 171.8c0 .1 0 .1 0 0l.8.4h.2c.1 0 .2 0 .3-.1l.4-.2c.1 0 .1-.1.1-.1s0 .1-.1.1l-.4.2c-.1 0-.2.1-.3.1s-.1 0-.2 0l-.7-.4c-.1.1-.1.1-.1 0z" fill="#fff"/><path d="m138.9 173.2c0 .1 0 .1 0 0l.8.5h.2c.1 0 .2 0 .3-.1l.4-.2c.1 0 .1-.1.1-.1s0-.1-.1-.1l-.7-.4c-.1-.1-.3-.1-.4 0l-.4.2c-.2.1-.2.2-.2.2z" fill="#666"/><path d="m138.9 173.1c0 .1 0 .1.1.2l.7.4h.2s.2 0 .3-.1l.4-.2c.1 0 .1-.1.1-.1v-.1s0 .1-.1.1l-.4.2c-.1 0-.2.1-.3.1s-.1 0-.2 0l-.8-.5c0 .1 0 .1 0 0z" fill="url(#y)"/><path d="m139.8 173.6c.1.1.2.1.3 0l.4-.2c.1 0 .1-.1.1-.1v-.1s0 .1-.1.1l-.4.2c-.1.1-.2.1-.3.1z" fill="#bfbfbf"/><path d="m138.9 173.1c0 .1 0 .1 0 0l.8.4h.2c.1 0 .2 0 .3-.1l.4-.2c.1 0 .1-.1.1-.1s0-.1-.1-.1l-.7-.4c-.1-.1-.3 0-.4 0l-.4.2c-.2.3-.2.3-.2.3z" fill="#fff"/><path d="m138.9 173.1c0 .1 0 .1 0 0l.8.4h.2c.1 0 .2 0 .3-.1l.4-.2c.1 0 .1-.1.1-.1s0 .1-.1.1l-.4.2c-.1 0-.2.1-.3.1s-.1 0-.2 0l-.7-.4c-.1.1-.1.1-.1 0z" fill="#fff"/><path d="m137.4 172.6.8.5h.2c.1 0 .2 0 .3-.1l.4-.2c.1 0 .1-.1.1-.1s0-.1-.1-.1l-.7-.4c-.1-.1-.3-.1-.4 0l-.4.2c-.1.1-.2.1-.2.2 0-.1 0 0 0 0z" fill="#666"/><path d="m137.5 172.5c0 .1 0 .1.1.2l.7.4h.2c.1 0 .2 0 .3-.1l.4-.2c.1 0 .1-.1.1-.1v-.1s0 .1-.1.1l-.4.2c-.1 0-.2.1-.3.1s-.1 0-.2 0z" fill="url(#z)"/><path d="m138.5 173c.1.1.2.1.3 0l.4-.2c.1 0 .1-.1.1-.1v-.1s0 .1-.1.1l-.4.2c-.1 0-.2.1-.3.1z" fill="#bfbfbf"/><path d="m137.5 172.5.8.4h.2s.2 0 .3-.1l.4-.2c.1 0 .1-.1.1-.1s0-.1-.1-.1l-.7-.4c-.1-.1-.3 0-.4 0l-.4.2c-.2.2-.2.2-.2.3z" fill="#fff"/><path d="m137.5 172.5.8.4h.2s.2 0 .3-.1l.4-.2c.1 0 .1-.1.1-.1s0 .1-.1.1l-.4.2c-.1 0-.2.1-.3.1s-.1 0-.2 0l-.7-.4c-.1 0-.1 0-.1 0z" fill="#fff"/><path d="m136.1 171.9s0 .1 0 0l.8.5h.2c.1 0 .2 0 .3-.1l.4-.2c.1 0 .1-.1.1-.1s0-.1-.1-.1l-.7-.4c-.1-.1-.3-.1-.4 0l-.4.2c-.2.1-.2.1-.2.2z" fill="#666"/><path d="m136.1 171.8c0 .1 0 .1.1.2l.7.4h.2c.1 0 .2 0 .3-.1l.4-.2c.1 0 .1-.1.1-.1v-.1s0 .1-.1.1l-.4.2c-.1 0-.2.1-.3.1s-.1 0-.2 0l-.8-.5c.1.1 0 0 0 0z" fill="url(#A)"/><path d="m137.1 172.3c.1.1.2.1.3 0l.4-.2c.1 0 .1-.1.1-.1v-.1s0 .1-.1.1l-.4.2c-.1.1-.2.1-.3.1z" fill="#bfbfbf"/><path d="m136.1 171.8s.1.1 0 0l.8.4h.2c.1 0 .2 0 .3-.1l.4-.2c.1 0 .1-.1.1-.1s0-.1-.1-.1l-.7-.4c-.1-.1-.3 0-.4 0l-.4.2c-.1.2-.2.3-.2.3z" fill="#fff"/><path d="m136.1 171.8s.1.1 0 0l.8.4h.2c.1 0 .2 0 .3-.1l.4-.2c.1 0 .1-.1.1-.1s0 .1-.1.1l-.4.2c-.1 0-.2.1-.3.1s-.1 0-.2 0l-.7-.4c0 .1-.1 0-.1 0z" fill="#fff"/><path d="m135.1 171.3c0 .1 0 .1 0 0l.4.3h.2c.1 0 .2 0 .3-.1l.4-.2c.1 0 .1-.1.1-.1s0-.1-.1-.1l-.3-.2c-.1-.1-.3-.1-.4 0l-.4.2c-.2.1-.2.2-.2.2z" fill="#666"/><path d="m135.1 171.2c0 .1 0 .1.1.2l.3.1h.2c.1 0 .2 0 .3-.1l.4-.2c.1 0 .1-.1.1-.1v-.1s0 .1-.1.1l-.4.2c-.1 0-.2.1-.3.1s-.1 0-.2 0l-.4-.2c0 .1 0 .1 0 0z" fill="url(#B)"/><path d="m135.6 171.5c.1.1.2.1.3 0l.4-.2c.1 0 .1-.1.1-.1v-.1s0 .1-.1.1l-.4.2c-.1.1-.2.1-.3.1z" fill="#bfbfbf"/><path d="m135.1 171.2c0 .1 0 .1 0 0l.4.2h.2c.1 0 .2 0 .3-.1l.4-.2c.1 0 .1-.1.1-.1s0-.1-.1-.1l-.3-.1c-.1-.1-.3 0-.4 0l-.4.2c-.1.1-.2.2-.2.2z" fill="#fff"/><path d="m135.1 171.2s0 .1 0 0l.4.2h.2c.1 0 .2 0 .3-.1l.4-.2c.1 0 .1-.1.1-.1s0 .1-.1.1l-.4.2c-.1 0-.2.1-.3.1s-.1 0-.2 0l-.3-.1c-.1 0-.1 0-.1-.1z" fill="#fff"/><path d="m129 168.2s.1 0 0 0l.4.3h.2s.2 0 .3-.1l.4-.2c.1 0 .1-.1.1-.1s0-.1-.1-.1l-.3-.2c-.1-.1-.3-.1-.4 0l-.4.2c-.1.1-.2.1-.2.2z" fill="#666"/><path d="m129.1 168.1c0 .1 0 .1.1.2l.3.1h.2c.1 0 .2 0 .3-.1l.4-.2c.1 0 .1-.1.1-.1v-.1s0 .1-.1.1l-.4.2c-.1 0-.2.1-.3.1s-.1 0-.2 0z" fill="url(#C)"/><path d="m129.6 168.4c.1.1.2.1.3 0l.4-.2c.1 0 .1-.1.1-.1v-.1s0 .1-.1.1l-.4.2c-.1.1-.2.1-.3.1z" fill="#bfbfbf"/><path d="m129.1 168.1s0 .1 0 0l.4.2h.2c.1 0 .2 0 .3-.1l.4-.2c.1 0 .1-.1.1-.1s0-.1-.1-.1l-.3-.1c-.1-.1-.3 0-.4 0l-.4.2c-.2.1-.2.1-.2.2z" fill="#fff"/><path d="m129.1 168.1.4.2h.2c.1 0 .2 0 .3-.1l.4-.2c.1 0 .1-.1.1-.1s0 .1-.1.1l-.4.2c-.1 0-.2.1-.3.1s-.1 0-.2 0l-.3-.1c-.1 0-.1-.1-.1-.1z" fill="#fff"/><path d="m128 167.7s0 .1 0 0l.4.3h.2c.1 0 .2 0 .3-.1l.4-.2c.1 0 .1-.1.1-.1s0-.1-.1-.1l-.3-.2c-.1-.1-.3-.1-.4 0l-.4.2c-.2.1-.2.1-.2.2z" fill="#666"/><path d="m128 167.6c0 .1 0 .1.1.2l.3.1h.2c.1 0 .2 0 .3-.1l.4-.2c.1 0 .1-.1.1-.1v-.1s0 .1-.1.1l-.4.2c-.1 0-.2.1-.3.1s-.1 0-.2 0z" fill="url(#D)"/><path d="m128.5 167.9c.1.1.2.1.3 0l.4-.2c.1 0 .1-.1.1-.1v-.1s0 .1-.1.1l-.4.2c-.1.1-.2.1-.3.1z" fill="#bfbfbf"/><path d="m128 167.6s0 .1 0 0l.4.2h.2c.1 0 .2 0 .3-.1l.4-.2c.1 0 .1-.1.1-.1s0-.1-.1-.1l-.3-.1c-.1-.1-.3 0-.4 0l-.4.2c-.2.1-.2.2-.2.2z" fill="#fff"/><path d="m128 167.6s0 .1 0 0l.4.2h.2c.1 0 .2 0 .3-.1l.4-.2c.1 0 .1-.1.1-.1s0 .1-.1.1l-.4.2c-.1 0-.2.1-.3.1s-.1 0-.2 0l-.3-.1c-.1 0-.1-.1-.1-.1z" fill="#fff"/><path d="m142.6 171.3s0 .1 0 0l.4.3h.2c.1 0 .2 0 .3-.1l.4-.2c.1 0 .1-.1.1-.1s0-.1-.1-.1l-.3-.2c-.1-.1-.3-.1-.4 0l-.4.2c-.2.1-.2.1-.2.2z" fill="#666"/><path d="m142.6 171.2c0 .1 0 .1.1.2l.3.1h.2c.1 0 .2 0 .3-.1l.4-.2c.1 0 .1-.1.1-.1v-.1s0 .1-.1.1l-.4.2c-.1 0-.2.1-.3.1s-.1 0-.2 0l-.4-.2c.1.1 0 0 0 0z" fill="url(#E)"/><path d="m143.3 171.5c.1.1.2.1.3 0l.4-.2c.1 0 .1-.1.1-.1v-.1s0 .1-.1.1l-.4.2c-.1.1-.2.1-.3.1z" fill="#bfbfbf"/><path d="m142.6 171.2s.1.1 0 0l.4.2h.2c.1 0 .2 0 .3-.1l.4-.2c.1 0 .1-.1.1-.1s0-.1-.1-.1l-.3-.1c-.1-.1-.3 0-.4 0l-.4.2c-.1.1-.2.2-.2.2z" fill="#fff"/><path d="m142.6 171.2c.1 0 .1 0 0 0l.4.2h.2c.1 0 .2 0 .3-.1l.4-.2c.1 0 .1-.1.1-.1s0 .1-.1.1l-.4.2c-.1 0-.2.1-.3.1s-.1 0-.2 0l-.3-.1s-.1-.1-.1-.1z" fill="#fff"/><path d="m127 167.2s.1.1 0 0l.4.3h.2s.2 0 .3-.1l.4-.2c.1 0 .1-.1.1-.1s0-.1-.1-.1l-.3-.2c-.1-.1-.3-.1-.4 0l-.4.2c-.1.1-.2.1-.2.2z" fill="#666"/><path d="m127.1 167.1c0 .1 0 .1.1.2l.3.1h.2s.2 0 .3-.1l.4-.2c.1 0 .1-.1.1-.1v-.1s0 .1-.1.1l-.4.2c-.1 0-.2.1-.3.1s-.1 0-.2 0z" fill="url(#F)"/><path d="m127.6 167.4c.1.1.2.1.3 0l.4-.2c.1 0 .1-.1.1-.1v-.1s0 .1-.1.1l-.4.2c-.1.1-.2.1-.3.1z" fill="#bfbfbf"/><path d="m127.1 167.1s0 .1 0 0l.4.2h.2s.2 0 .3-.1l.4-.2c.1 0 .1-.1.1-.1s0-.1-.1-.1l-.3-.1c-.1-.1-.3 0-.4 0l-.4.2c-.2.1-.2.2-.2.2z" fill="#fff"/><path d="m127.1 167.1s0 .1 0 0l.4.2h.2s.2 0 .3-.1l.4-.2c.1 0 .1-.1.1-.1s0 .1-.1.1l-.4.2c-.1 0-.2.1-.3.1s-.1 0-.2 0l-.3-.1c-.1 0-.1-.1-.1-.1z" fill="#fff"/><path d="m126 166.7.4.3h.2s.2 0 .3-.1l.4-.2c.1 0 .1-.1.1-.1s0-.1-.1-.1l-.3-.2c-.1-.1-.3-.1-.4 0l-.4.2c-.2.1-.2.1-.2.2 0-.1 0 0 0 0z" fill="#666"/><path d="m126 166.6c0 .1 0 .1.1.2l.3.1h.2s.2 0 .3-.1l.4-.2c.1 0 .1-.1.1-.1v-.1s0 .1-.1.1l-.4.2c-.1 0-.2.1-.3.1s-.1 0-.2 0z" fill="url(#G)"/><path d="m126.7 167c.1.1.2.1.3 0l.4-.2c.1 0 .1-.1.1-.1v-.1s0 .1-.1.1l-.4.2c-.2 0-.3.1-.3.1z" fill="#bfbfbf"/><path d="m126 166.6s.1 0 0 0l.4.2h.2s.2 0 .3-.1l.4-.2c.1 0 .1-.1.1-.1s0-.1-.1-.1l-.3-.1c-.1-.1-.3 0-.4 0l-.4.2c-.1.1-.2.1-.2.2z" fill="#fff"/><path d="m126 166.6s.1 0 0 0l.4.2h.2s.2 0 .3-.1l.4-.2c.1 0 .1-.1.1-.1s0 .1-.1.1l-.4.2c-.1 0-.2.1-.3.1s-.1 0-.2 0l-.3-.1c0-.1-.1-.1-.1-.1z" fill="#fff"/><path d="m125.1 166.2s0 .1 0 0l.4.3h.2s.2 0 .3-.1l1.7-.8c.1 0 .1-.1.1-.1s0-.1-.1-.1l-.3-.2c-.1-.1-.3-.1-.4 0l-1.7.8c-.2.1-.2.1-.2.2z" fill="#666"/><path d="m125.1 166.1c0 .1 0 .1.1.2l.3.1h.2s.2 0 .3-.1l1.7-.8c.1 0 .1-.1.1-.1v-.1s0 .1-.1.1l-1.7.8c-.1 0-.2.1-.3.1s-.1 0-.2 0z" fill="url(#H)"/><path d="m125.6 166.4c.1.1.2.1.3 0l1.7-.8c.1 0 .1-.1.1-.1v-.1s0 .1-.1.1l-1.7.8c-.1.1-.2.1-.3.1z" fill="#bfbfbf"/><path d="m125.1 166.1s0 .1 0 0l.4.2h.2s.2 0 .3-.1l1.7-.8c.1 0 .1-.1.1-.1s0-.1-.1-.1l-.3-.1c-.1-.1-.3 0-.4 0l-1.7.8c-.1.1-.2.2-.2.2z" fill="#fff"/><path d="m125.1 166.1s0 .1 0 0l.4.2h.2s.2 0 .3-.1l1.7-.8c.1 0 .1-.1.1-.1s0 .1-.1.1l-1.7.8c-.1 0-.2.1-.3.1s-.1 0-.2 0l-.3-.1c-.1 0-.1-.1-.1-.1z" fill="#fff"/><path d="m127.5 165s.1.1 0 0l.7.4h.2c.1 0 .2 0 .3-.1l1.7-.8c.1 0 .1-.1.1-.1s0-.1-.1-.1l-.7-.3c-.1-.1-.3-.1-.4 0l-1.7.8c0 .1-.1.1-.1.2z" fill="#666"/><path d="m127.6 164.9c0 .1 0 .1.1.2l.6.3h.2c.1 0 .2 0 .3-.1l1.7-.8c.1 0 .1-.1.1-.1v-.1s0 .1-.1.1l-1.7.8c-.1 0-.2.1-.3.1s-.1 0-.2 0z" fill="url(#I)"/><path d="m128.4 165.3c.1.1.2.1.3 0l1.7-.8c.1 0 .1-.1.1-.1v-.1s0 .1-.1.1l-1.7.8c-.1.1-.2.1-.3.1z" fill="#bfbfbf"/><path d="m127.6 164.9s0 .1 0 0l.7.4h.2c.1 0 .2 0 .3-.1l1.7-.8c.1 0 .1-.1.1-.1s0-.1-.1-.1l-.6-.3c-.1-.1-.3 0-.4 0l-1.7.8c-.2.1-.2.2-.2.2z" fill="#fff"/><path d="m127.6 164.9.7.4h.2c.1 0 .2 0 .3-.1l1.7-.8c.1 0 .1-.1.1-.1s0 .1-.1.1l-1.7.8c-.1 0-.2.1-.3.1s-.1 0-.2 0l-.6-.3c-.1 0-.1-.1-.1-.1z" fill="#fff"/><path d="m130 168.7 4.6 2.4h.2s.2 0 .3-.1l.4-.2c.1 0 .1-.1.1-.1s0-.1-.1-.1l-4.5-2.3c-.1-.1-.3-.1-.4 0l-.4.2c-.2.1-.2.1-.2.2z" fill="#666"/><path d="m130 168.6c0 .1 0 .1.1.2l4.5 2.3h.2s.2 0 .3-.1l.4-.2c.1 0 .1-.1.1-.1v-.1s0 .1-.1.1l-.4.2c-.1 0-.2.1-.3.1s-.1 0-.2 0z" fill="#d9d9d9"/><path d="m134.7 171c.1.1.2.1.3 0l.4-.2c.1 0 .1-.1.1-.1v-.1s0 .1-.1.1l-.4.2c-.1.1-.2.1-.3.1z" fill="#bfbfbf"/><path d="m130 168.6 4.5 2.4h.2c.1 0 .2 0 .3-.1l.4-.2c.1 0 .1-.1.1-.1s0-.1-.1-.1l-4.5-2.3c-.1-.1-.3 0-.4 0l-.4.2c-.1.1-.1.1-.1.2z" fill="#fff"/><path d="m130 168.6 4.5 2.4h.2c.1 0 .2 0 .3-.1l.4-.2c.1 0 .1-.1.1-.1s0 .1-.1.1l-.4.2c-.1 0-.2.1-.3.1s-.1 0-.2 0l-4.5-2.3c0-.1 0-.1 0-.1z" fill="#fff"/><path d="m130.1 165.1s0 .1 0 0l.8.5h.2c.1 0 .2 0 .3-.1l.4-.2c.1 0 .1-.1.1-.1s0-.1-.1-.1l-.7-.4c-.1-.1-.3-.1-.4 0l-.4.2c-.1.1-.2.1-.2.2z" fill="#666"/><path d="m130.2 165c0 .1 0 .1.1.2l.7.4h.2c.1 0 .2 0 .3-.1l.4-.2c.1 0 .1-.1.1-.1v-.1s0 .1-.1.1l-.4.2c-.1 0-.2.1-.3.1s-.1 0-.2 0z" fill="url(#J)"/><path d="m131.1 165.5c.1.1.2.1.3 0l.4-.2c.1 0 .1-.1.1-.1v-.1s0 .1-.1.1l-.4.2c0 .1-.1.1-.3.1z" fill="#bfbfbf"/><path d="m130.2 165s0 .1 0 0l.8.4h.2c.1 0 .2 0 .3-.1l.4-.2c.1 0 .1-.1.1-.1s0-.1-.1-.1l-.7-.4c-.1-.1-.3 0-.4 0l-.4.2c-.2.2-.2.3-.2.3z" fill="#fff"/><path d="m130.2 165s0 .1 0 0l.8.4h.2c.1 0 .2 0 .3-.1l.4-.2c.1 0 .1-.1.1-.1s0 .1-.1.1l-.4.2c-.1 0-.2.1-.3.1s-.1 0-.2 0l-.7-.4c-.1.1-.1 0-.1 0z" fill="#fff"/><path d="m131.5 165.8s.1 0 0 0l.8.5h.2c.1 0 .2 0 .3-.1l.4-.2c.1 0 .1-.1.1-.1s0-.1-.1-.1l-.7-.4c-.1-.1-.3-.1-.4 0l-.4.2c-.1.1-.1.1-.2.2 0-.1 0-.1 0 0z" fill="#666"/><path d="m131.6 165.7c0 .1 0 .1.1.2l.7.4h.2c.1 0 .2 0 .3-.1l.4-.2c.1 0 .1-.1.1-.1v-.1s0 .1-.1.1l-.4.2c-.1 0-.2.1-.3.1s-.1 0-.2 0z" fill="url(#K)"/><path d="m132.5 166.2c.1.1.2.1.3 0l.4-.2c.1 0 .1-.1.1-.1v-.1s0 .1-.1.1l-.4.2c-.1 0-.2.1-.3.1z" fill="#bfbfbf"/><path d="m131.6 165.7.8.4h.2c.1 0 .2 0 .3-.1l.4-.2c.1 0 .1-.1.1-.1s0-.1-.1-.1l-.7-.4c-.1-.1-.3 0-.4 0l-.4.2c-.2.2-.2.2-.2.3z" fill="#fff"/><path d="m131.6 165.7.8.4h.2c.1 0 .2 0 .3-.1l.4-.2c.1 0 .1-.1.1-.1s0 .1-.1.1l-.4.2c-.1 0-.2.1-.3.1s-.1 0-.2 0l-.7-.4c-.1 0-.1 0-.1 0z" fill="#fff"/><path d="m132.9 166.4c0 .1 0 .1 0 0l.8.5h.2s.2 0 .3-.1l.4-.2c.1 0 .1-.1.1-.1s0-.1-.1-.1l-.6-.4c-.1-.1-.3-.1-.4 0l-.4.2c-.3.1-.3.2-.3.2z" fill="#666"/><path d="m132.9 166.3c0 .1 0 .1.1.2l.7.4h.2c.1 0 .2 0 .3-.1l.4-.2c.1 0 .1-.1.1-.1v-.1s0 .1-.1.1l-.4.2c-.1 0-.2.1-.3.1s-.1 0-.2 0l-.8-.5c0 .1 0 .1 0 0z" fill="url(#L)"/><path d="m134 166.9c.1.1.2.1.3 0l.4-.2c.1 0 .1-.1.1-.1v-.1s0 .1-.1.1l-.4.2c-.2.1-.3.1-.3.1z" fill="#bfbfbf"/><path d="m132.9 166.3c0 .1 0 .1 0 0l.8.4h.2s.2 0 .3-.1l.4-.2c.1 0 .1-.1.1-.1s0-.1-.1-.1l-.7-.4c-.1-.1-.3 0-.4 0l-.4.2c-.1.2-.2.3-.2.3z" fill="#fff"/><path d="m132.9 166.3c0 .1 0 .1 0 0l.8.4h.2s.2 0 .3-.1l.4-.2c.1 0 .1-.1.1-.1s0 .1-.1.1l-.4.2c-.1 0-.2.1-.3.1s-.1 0-.2 0l-.7-.4c-.1.1-.1.1-.1 0z" fill="#fff"/><path d="m134.3 167.2s0 .1 0 0l.8.5h.2s.2 0 .3-.1l.4-.2c.1 0 .1-.1.1-.1s0-.1-.1-.1l-.7-.4c-.1-.1-.3-.1-.4 0l-.4.2c-.2.1-.2.1-.2.2z" fill="#666"/><path d="m134.4 167.1c0 .1 0 .1.1.2l.7.4h.2s.2 0 .3-.1l.4-.2c.1 0 .1-.1.1-.1v-.1s0 .1-.1.1l-.4.2c-.1 0-.2.1-.3.1s-.1 0-.2 0z" fill="url(#M)"/><path d="m135.3 167.6c.1.1.2.1.3 0l.4-.2c.1 0 .1-.1.1-.1v-.1s0 .1-.1.1l-.4.2c-.1.1-.2.1-.3.1z" fill="#bfbfbf"/><path d="m134.4 167.1s0 .1 0 0l.8.4h.2c.1 0 .2 0 .3-.1l.4-.2c.1 0 .1-.1.1-.1s0-.1-.1-.1l-.7-.4c-.1-.1-.3 0-.4 0l-.4.2c-.2.2-.2.2-.2.3z" fill="#fff"/><path d="m134.4 167.1.8.4h.2c.1 0 .2 0 .3-.1l.4-.2c.1 0 .1-.1.1-.1s0 .1-.1.1l-.4.2c-.1 0-.2.1-.3.1s-.1 0-.2 0l-.7-.4c-.1.1-.1 0-.1 0z" fill="#fff"/><path d="m135.6 167.8c0 .1.1.1 0 0l.8.5h.2c.1 0 .2 0 .3-.1l.4-.2c.1 0 .1-.1.1-.1s0-.1-.1-.1l-.7-.4c-.1-.1-.3-.1-.4 0l-.4.2c-.1.1-.2.2-.2.2z" fill="#666"/><path d="m135.7 167.8c0 .1 0 .1.1.2l.7.4h.2c.1 0 .2 0 .3-.1l.4-.2c.1 0 .1-.1.1-.1v-.1s0 .1-.1.1l-.4.2c-.1 0-.2.1-.3.1s-.1 0-.2 0z" fill="url(#N)"/><path d="m136.7 168.2c.1.1.2.1.3 0l.4-.2c.1 0 .1-.1.1-.1v-.1s0 .1-.1.1l-.4.2c-.1.1-.2.2-.3.1z" fill="#bfbfbf"/><path d="m135.7 167.8.8.4h.2s.2 0 .3-.1l.4-.2c.1 0 .1-.1.1-.1s0-.1-.1-.1l-.7-.4c-.1-.1-.3 0-.4 0l-.4.2c-.2.2-.2.2-.2.3z" fill="#fff"/><path d="m135.7 167.7c0 .1 0 .1 0 0l.8.4h.2s.2 0 .3-.1l.4-.2c.1 0 .1-.1.1-.1s0 .1-.1.1l-.4.2c-.1 0-.2.1-.3.1s-.1 0-.2 0l-.7-.4c-.1.1-.1.1-.1 0z" fill="#fff"/><path d="m137.1 168.5s0 .1 0 0l.8.5h.2c.1 0 .2 0 .3-.1l.4-.2c.1 0 .1-.1.1-.1s0-.1-.1-.1l-.7-.4c-.1-.1-.3-.1-.4 0l-.4.2c-.2.1-.2.2-.2.2z" fill="#666"/><path d="m137.1 168.4c0 .1 0 .1.1.2l.7.4h.2c.1 0 .2 0 .3-.1l.4-.2c.1 0 .1-.1.1-.1v-.1s0 .1-.1.1l-.4.2c-.1 0-.2.1-.3.1s-.1 0-.2 0l-.8-.5c0 .1 0 .1 0 0z" fill="url(#O)"/><path d="m138 168.9c.1.1.2.1.3 0l.4-.2c.1 0 .1-.1.1-.1v-.1s0 .1-.1.1l-.4.2c-.1.1-.2.1-.3.1z" fill="#bfbfbf"/><path d="m137.1 168.4c0 .1 0 .1 0 0l.8.4h.2c.1 0 .2 0 .3-.1l.4-.2c.1 0 .1-.1.1-.1s0-.1-.1-.1l-.7-.4c-.1-.1-.3 0-.4 0l-.4.2c-.1.2-.2.3-.2.3z" fill="#fff"/><path d="m137.1 168.4s0 .1 0 0l.8.4h.2c.1 0 .2 0 .3-.1l.4-.2c.1 0 .1-.1.1-.1s0 .1-.1.1l-.4.2c-.1 0-.2.1-.3.1s-.1 0-.2 0l-.7-.4c-.1.1-.1.1-.1 0z" fill="#fff"/><path d="m138.5 169.3.8.5h.2c.1 0 .2 0 .3-.1l.4-.2c.1 0 .1-.1.1-.1s0-.1-.1-.1l-.7-.4c-.1-.1-.3-.1-.4 0l-.4.2c-.2 0-.2 0-.2.2z" fill="#666"/><path d="m138.5 169.1c0 .1 0 .1.1.2l.7.4h.2c.1 0 .2 0 .3-.1l.4-.2c.1 0 .1-.1.1-.1v-.1s0 .1-.1.1l-.4.2c-.1 0-.2.1-.3.1s-.1 0-.2 0l-.8-.5c.1.2 0 0 0 0z" fill="url(#P)"/><path d="m139.5 169.7c.1.1.2.1.3 0l.4-.2c.1 0 .1-.1.1-.1v-.1s0 .1-.1.1l-.4.2c-.1.1-.2.1-.3.1z" fill="#bfbfbf"/><path d="m138.5 169.1s.1.2 0 0l.8.4h.2c.1 0 .2 0 .3-.1l.4-.2c.1 0 .1-.1.1-.1s0-.1-.1-.1l-.7-.4c-.1-.1-.3 0-.4 0l-.4.2c-.1.2-.2.2-.2.3z" fill="#fff"/><path d="m138.5 169.1s.1 0 0 0l.8.4h.2c.1 0 .2 0 .3-.1l.4-.2c.1 0 .1-.1.1-.1s0 .1-.1.1l-.4.2c-.1 0-.2.1-.3.1s-.1 0-.2 0l-.7-.4c0 .2-.1 0-.1 0z" fill="#fff"/><path d="m139.8 169.9c0 .1.1.1 0 0l.8.5h.2c.1 0 .2 0 .3-.1l.4-.2c.1 0 .1-.1.1-.1s0-.1-.1-.1l-.7-.4c-.1-.1-.3-.1-.4 0l-.4.2c-.1.1-.2.2-.2.2z" fill="#666"/><path d="m139.9 169.9c0 .1 0 .1.1.2l.7.4h.2c.1 0 .2 0 .3-.1l.4-.2c.1 0 .1-.1.1-.1v-.1s0 .1-.1.1l-.4.2c-.1 0-.2.1-.3.1s-.1 0-.2 0z" fill="url(#Q)"/><path d="m140.9 170.3c.1.1.2.1.3 0l.4-.2c.1 0 .1-.1.1-.1v-.1s0 .1-.1.1l-.4.2c-.1.1-.2.1-.3.1z" fill="#bfbfbf"/><path d="m139.9 169.9.8.4h.2c.1 0 .2 0 .3-.1l.4-.2c.1 0 .1-.1.1-.1s0-.1-.1-.1l-.7-.4c-.1-.1-.3 0-.4 0l-.4.2c-.2.2-.2.2-.2.3 0-.1 0 0 0 0z" fill="#fff"/><path d="m139.9 169.8c0 .1 0 .1 0 0l.8.4h.2c.1 0 .2 0 .3-.1l.4-.2c.1 0 .1-.1.1-.1s0 .1-.1.1l-.4.2c-.1 0-.2.1-.3.1s-.1 0-.2 0l-.7-.4c-.1.1-.1.1-.1 0z" fill="#fff"/><path d="m141.3 170.6s0 .1 0 0l.8.5h.2c.1 0 .2 0 .3-.1l.4-.2c.1 0 .1-.1.1-.1s0-.1-.1-.1l-.7-.4c-.1-.1-.3-.1-.4 0l-.4.2c-.2.1-.2.1-.2.2z" fill="#666"/><path d="m141.3 170.5c0 .1 0 .1.1.2l.7.4h.2c.1 0 .2 0 .3-.1l.4-.2c.1 0 .1-.1.1-.1v-.1s0 .1-.1.1l-.4.2c-.1 0-.2.1-.3.1s-.1 0-.2 0l-.8-.5c0 .1 0 .1 0 0z" fill="url(#R)"/><path d="m142.2 171c.1.1.2.1.3 0l.4-.2c.1 0 .1-.1.1-.1v-.1s0 .1-.1.1l-.4.2c-.1.1-.2.1-.3.1z" fill="#bfbfbf"/><path d="m141.3 170.5c0 .1 0 .1 0 0l.8.4h.2c.1 0 .2 0 .3-.1l.4-.2c.1 0 .1-.1.1-.1s0-.1-.1-.1l-.7-.4c-.1-.1-.3 0-.4 0l-.4.2c-.2.2-.2.3-.2.3z" fill="#fff"/><path d="m141.3 170.5s0 .1 0 0l.8.4h.2c.1 0 .2 0 .3-.1l.4-.2c.1 0 .1-.1.1-.1s0 .1-.1.1l-.4.2c-.1 0-.2.1-.3.1s-.1 0-.2 0l-.7-.4c-.1.1-.1.1-.1 0z" fill="#fff"/><path d="m128.9 165.7s0 .1 0 0l.8.5h.2c.1 0 .2 0 .3-.1l.4-.2c.1 0 .1-.1.1-.1s0-.1-.1-.1l-.7-.4c-.1-.1-.3-.1-.4 0l-.4.2c-.2.1-.2.1-.2.2z" fill="#666"/><path d="m128.9 165.6c0 .1 0 .1.1.2l.7.4h.2c.1 0 .2 0 .3-.1l.4-.2c.1 0 .1-.1.1-.1v-.1s0 .1-.1.1l-.4.2c-.1 0-.2.1-.3.1s-.1 0-.2 0l-.8-.5c.1.1 0 .1 0 0z" fill="url(#S)"/><path d="m129.9 166.1c.1.1.2.1.3 0l.4-.2c.1 0 .1-.1.1-.1v-.1s0 .1-.1.1l-.4.2c-.1.1-.2.1-.3.1z" fill="#bfbfbf"/><path d="m128.9 165.6c0 .1.1.1 0 0l.8.4h.2c.1 0 .2 0 .3-.1l.4-.2c.1 0 .1-.1.1-.1s0-.1-.1-.1l-.7-.4c-.1-.1-.3 0-.4 0l-.4.2c-.1.2-.2.3-.2.3z" fill="#fff"/><path d="m128.9 165.6s.1.1 0 0l.8.4h.2c.1 0 .2 0 .3-.1l.4-.2c.1 0 .1-.1.1-.1s0 .1-.1.1l-.4.2c-.1 0-.2.1-.3.1s-.1 0-.2 0l-.7-.4c0 .1-.1.1-.1 0z" fill="#fff"/><path d="m130.2 166.4s.1 0 0 0l.8.5h.2c.1 0 .2 0 .3-.1l.4-.2c.1 0 .1-.1.1-.1s0-.1-.1-.1l-.7-.4c-.1-.1-.3-.1-.4 0l-.4.2c-.1.1-.2.1-.2.2z" fill="#666"/><path d="m130.3 166.3c0 .1 0 .1.1.2l.7.4h.2c.1 0 .2 0 .3-.1l.4-.2c.1 0 .1-.1.1-.1v-.1s0 .1-.1.1l-.4.2c-.1 0-.2.1-.3.1s-.1 0-.2 0z" fill="url(#T)"/><path d="m131.3 166.9c.1.1.2.1.3 0l.4-.2c.1 0 .1-.1.1-.1v-.1s0 .1-.1.1l-.4.2c-.1-.1-.2.1-.3.1z" fill="#bfbfbf"/><path d="m130.3 166.3.8.4h.2s.2 0 .3-.1l.4-.2c.1 0 .1-.1.1-.1s0-.1-.1-.1l-.7-.4c-.1-.1-.3 0-.4 0l-.4.2c-.2.2-.2.2-.2.3z" fill="#fff"/><path d="m130.3 166.3.8.4h.2s.2 0 .3-.1l.4-.2c.1 0 .1-.1.1-.1s0 .1-.1.1l-.4.2c-.1 0-.2.1-.3.1s-.1 0-.2 0l-.7-.4c-.1 0-.1 0-.1 0z" fill="#fff"/><path d="m131.7 167.1c0 .1 0 .1 0 0l.8.5h.2s.2 0 .3-.1l.4-.2c.1 0 .1-.1.1-.1s0-.1-.1-.1l-.7-.4c-.1-.1-.3-.1-.4 0l-.4.2c-.2.1-.2.2-.2.2z" fill="#666"/><path d="m131.7 167c0 .1 0 .1.1.2l.7.4h.2c.1 0 .2 0 .3-.1l.4-.2c.1 0 .1-.1.1-.1v-.1s0 .1-.1.1l-.4.2c-.1 0-.2.1-.3.1s-.1 0-.2 0l-.8-.5c0 .1 0 .1 0 0z" fill="url(#U)"/><path d="m132.6 167.5c.1.1.2.1.3 0l.4-.2c.1 0 .1-.1.1-.1v-.1s0 .1-.1.1l-.4.2c-.1.1-.2.1-.3.1z" fill="#bfbfbf"/><path d="m131.7 167c0 .1 0 .1 0 0l.8.4h.2s.2 0 .3-.1l.4-.2c.1 0 .1-.1.1-.1s0-.1-.1-.1l-.7-.4c-.1-.1-.3 0-.4 0l-.4.2c-.2.3-.2.3-.2.3z" fill="#fff"/><path d="m131.7 167c0 .1 0 .1 0 0l.8.4h.2s.2 0 .3-.1l.4-.2c.1 0 .1-.1.1-.1s0 .1-.1.1l-.4.2c-.1 0-.2.1-.3.1s-.1 0-.2 0l-.7-.4c-.1.1-.1.1-.1 0z" fill="#fff"/><path d="m133 167.8s0 .1 0 0l.8.5h.2c.1 0 .2 0 .3-.1l.4-.2c.1 0 .1-.1.1-.1s0-.1-.1-.1l-.7-.4c-.1-.1-.3-.1-.4 0l-.4.2c-.2.1-.2.1-.2.2z" fill="#666"/><path d="m133 167.7c0 .1 0 .1.1.2l.7.4h.2s.2 0 .3-.1l.4-.2c.1 0 .1-.1.1-.1v-.1s0 .1-.1.1l-.4.2c-.1 0-.2.1-.3.1s-.1 0-.2 0l-.8-.5c.1.1 0 0 0 0z" fill="url(#V)"/><path d="m134.1 168.2c.1.1.2.1.3 0l.4-.2c.1 0 .1-.1.1-.1v-.1s0 .1-.1.1l-.4.2c-.1.1-.2.1-.3.1z" fill="#bfbfbf"/><path d="m133 167.7s.1.1 0 0l.8.4h.2c.1 0 .2 0 .3-.1l.4-.2c.1 0 .1-.1.1-.1s0-.1-.1-.1l-.7-.4c-.1-.1-.3 0-.4 0l-.4.2c-.1.2-.2.3-.2.3z" fill="#fff"/><path d="m133 167.7s.1.1 0 0l.8.4h.2c.1 0 .2 0 .3-.1l.4-.2c.1 0 .1-.1.1-.1s0 .1-.1.1l-.4.2c-.1 0-.2.1-.3.1s-.1 0-.2 0l-.7-.4c0 .1-.1 0-.1 0z" fill="#fff"/><path d="m134.4 168.5.8.5h.2c.1 0 .2 0 .3-.1l.4-.2c.1 0 .1-.1.1-.1s0-.1-.1-.1l-.7-.4c-.1-.1-.3-.1-.4 0l-.4.2c-.1.1-.2.1-.2.2 0-.1 0 0 0 0z" fill="#666"/><path d="m134.5 168.4c0 .1 0 .1.1.2l.7.4h.2c.1 0 .2 0 .3-.1l.4-.2c.1 0 .1-.1.1-.1v-.1s0 .1-.1.1l-.4.2c-.1 0-.2.1-.3.1s-.1 0-.2 0z" fill="url(#W)"/><path d="m135.4 168.9c.1.1.2.1.3 0l.4-.2c.1 0 .1-.1.1-.1v-.1s0 .1-.1.1l-.4.2c-.1 0-.2.1-.3.1z" fill="#bfbfbf"/><path d="m134.5 168.4.8.4h.2c.1 0 .2 0 .3-.1l.4-.2c.1 0 .1-.1.1-.1s0-.1-.1-.1l-.7-.4c-.1-.1-.3 0-.4 0l-.4.2c-.2.2-.2.2-.2.3z" fill="#fff"/><path d="m134.5 168.4.8.4h.2c.1 0 .2 0 .3-.1l.4-.2c.1 0 .1-.1.1-.1s0 .1-.1.1l-.4.2c-.1 0-.2.1-.3.1s-.1 0-.2 0l-.7-.4c-.1 0-.1 0-.1 0z" fill="#fff"/><path d="m135.8 169.1c0 .2 0 .2 0 0l.8.5h.2c.1 0 .2 0 .3-.1l.4-.2c.1 0 .1-.1.1-.1s0-.1-.1-.1l-.7-.4c-.1-.1-.3-.1-.4 0l-.4.2c-.2.1-.2.2-.2.2z" fill="#666"/><path d="m135.8 169c0 .1 0 .1.1.2l.7.4h.2c.1 0 .2 0 .3-.1l.4-.2c.1 0 .1-.1.1-.1v-.1s0 .1-.1.1l-.4.2c-.1 0-.2.1-.3.1s-.1 0-.2 0l-.8-.5c0 .1 0 .1 0 0z" fill="url(#X)"/><path d="m136.8 169.6c.1.1.2.1.3 0l.4-.2c.1 0 .1-.1.1-.1v-.1s0 .1-.1.1l-.4.2c-.1.1-.2.1-.3.1z" fill="#bfbfbf"/><path d="m135.8 169c0 .1 0 .1 0 0l.8.4h.2c.1 0 .2 0 .3-.1l.4-.2c.1 0 .1-.1.1-.1s0-.1-.1-.1l-.7-.4c-.1-.1-.3 0-.4 0l-.4.2c-.2.2-.2.3-.2.3z" fill="#fff"/><path d="m135.8 169c0 .1 0 .1 0 0l.8.4h.2c.1 0 .2 0 .3-.1l.4-.2c.1 0 .1-.1.1-.1s0 .1-.1.1l-.4.2c-.1 0-.2.1-.3.1s-.1 0-.2 0l-.7-.4c-.1.1-.1.1-.1 0z" fill="#fff"/><path d="m137.2 169.9s0 .1 0 0l.8.5h.2c.1 0 .2 0 .3-.1l.4-.2c.1 0 .1-.1.1-.1s0-.1-.1-.1l-.7-.4c-.1-.1-.3-.1-.4 0l-.4.2c-.2.1-.2.1-.2.2z" fill="#666"/><path d="m137.2 169.8c0 .1 0 .1.1.2l.7.4h.2c.1 0 .2 0 .3-.1l.4-.2c.1 0 .1-.1.1-.1v-.1s0 .1-.1.1l-.4.2c-.1 0-.2.1-.3.1s-.1 0-.2 0l-.8-.5c.1.1 0 0 0 0z" fill="url(#Y)"/><path d="m138.2 170.3c.1.1.2.1.3 0l.4-.2c.1 0 .1-.1.1-.1v-.1s0 .1-.1.1l-.4.2c-.2.1-.3.1-.3.1z" fill="#bfbfbf"/><path d="m137.2 169.8s.1.1 0 0l.8.4h.2c.1 0 .2 0 .3-.1l.4-.2c.1 0 .1-.1.1-.1s0-.1-.1-.1l-.7-.4c-.1-.1-.3 0-.4 0l-.4.2c-.1.2-.2.3-.2.3z" fill="#fff"/><path d="m137.2 169.8s.1 0 0 0l.8.4h.2c.1 0 .2 0 .3-.1l.4-.2c.1 0 .1-.1.1-.1s0 .1-.1.1l-.4.2c-.1 0-.2.1-.3.1s-.1 0-.2 0l-.7-.4c0 .1-.1 0-.1 0z" fill="#fff"/><path d="m138.6 170.5c0 .1 0 .1 0 0l.8.5h.2c.1 0 .2 0 .3-.1l.4-.2c.1 0 .1-.1.1-.1s0-.1-.1-.1l-.7-.4c-.1-.1-.3-.1-.4 0l-.4.2c-.1.1-.2.2-.2.2z" fill="#666"/><path d="m138.7 170.5c0 .1 0 .1.1.2l.7.4h.2c.1 0 .2 0 .3-.1l.4-.2c.1 0 .1-.1.1-.1v-.1s0 .1-.1.1l-.4.2c-.1 0-.2.1-.3.1s-.1 0-.2 0z" fill="url(#Z)"/><path d="m139.6 170.9c.1.1.2.1.3 0l.4-.2c.1 0 .1-.1.1-.1v-.1s0 .1-.1.1l-.4.2c-.1.1-.2.2-.3.1z" fill="#bfbfbf"/><path d="m138.7 170.5.8.4h.2c.1 0 .2 0 .3-.1l.4-.2c.1 0 .1-.1.1-.1s0-.1-.1-.1l-.7-.4c-.1-.1-.3 0-.4 0l-.4.2c-.2.2-.2.2-.2.3z" fill="#fff"/><path d="m138.7 170.4c0 .1 0 .1 0 0l.8.4h.2c.1 0 .2 0 .3-.1l.4-.2c.1 0 .1-.1.1-.1s0 .1-.1.1l-.4.2c-.1 0-.2.1-.3.1s-.1 0-.2 0l-.7-.4c-.1.1-.1.1-.1 0z" fill="#fff"/><path d="m139.9 171.2s.1.1 0 0l.8.5h.2c.1 0 .2 0 .3-.1l.4-.2c.1 0 .1-.1.1-.1s0-.1-.1-.1l-.7-.4c-.1-.1-.3-.1-.4 0l-.4.2c-.1.1-.2.2-.2.2z" fill="#666"/><path d="m140 171.1c0 .1 0 .1.1.2l.7.4h.2c.1 0 .2 0 .3-.1l.4-.2c.1 0 .1-.1.1-.1v-.1s0 .1-.1.1l-.4.2c-.1 0-.2.1-.3.1s-.1 0-.2 0l-.8-.5c0 .1 0 .1 0 0z" fill="url(#aa)"/><path d="m141 171.7c.1.1.2.1.3 0l.4-.2c.1 0 .1-.1.1-.1v-.1s0 .1-.1.1l-.4.2c-.1.1-.2.1-.3.1z" fill="#bfbfbf"/><path d="m140 171.1c0 .1 0 .1 0 0l.8.4h.2c.1 0 .2 0 .3-.1l.4-.2c.1 0 .1-.1.1-.1s0-.1-.1-.1l-.7-.4c-.1-.1-.3 0-.4 0l-.4.2c-.2.2-.2.3-.2.3z" fill="#fff"/><path d="m140 171.1s0 .1 0 0l.8.4h.2c.1 0 .2 0 .3-.1l.4-.2c.1 0 .1-.1.1-.1s0 .1-.1.1l-.4.2c-.1 0-.2.1-.3.1s-.1 0-.2 0l-.7-.4c-.1.1-.1.1-.1 0z" fill="#fff"/><path d="m174.4 172.6 8.2-2.5c.6-.2 1.6-.1 2.1.3l24.9 19.5c.5.4.5.9-.1 1.3l-8.2 2.5h-.1c-.6.2-1.6.1-2.1-.3l-.1-.1-8-6.2-4.3 1.9-.9-.2-.8-6.5-10.8-8.4c-.6-.6-.5-1.1.2-1.3z" fill="#b3b3b3"/><path d="m186.9 187.9.7-.5c.4-.3.6-.7.6-1.4v-5.1h-.2v5.1c0 .5-.2.9-.6 1.1l-.8.5z" fill="#999"/><path d="m185.7 188.5v.2l1.2-.8-.1-.1z" fill="#ccc"/><path d="m185.7 188.5v.2l1.2-.8v-.2.1h-.1z" fill="#999"/><path d="m180.8 184.7 4.8 3.8 1-.6h.1l.6-.4c.4-.2.6-.6.6-1.1v-5l-.1-.1-2.6-2-1.4-1.5h-.2v5.1.1c0 .4-.2.8-.6 1 0 0 0 0-.1 0 0 .1-.9.4-2.1.7z" fill="#828282"/><path d="m184 182.8 4.3 3.3v-4.6c-.4-.4-.6-.7-.7-.7-.1.1-2.4-.6-3.5-1l-.1 3c0-.1 0-.1 0 0z" fill="#262626"/><path d="m173.6 148.3.2.1.4.2v.1.4 4.8l.1 16.5c0 1.3.7 2.9 1.7 3.7l23.5 18.6-.2.7.9-.4c.3-.1.5-.5.6-1 0-.1 0-.1 0-.2l-.1-21.2c0-.8-.4-2-.9-2.7-.2-.3-.5-.7-.8-.9l-23.5-18.6c-.4-.3-.7-.4-1-.3z" fill="#262626"/><path d="m173.7 148.2.1.1.4.3 24.6 19.3.9-.3c-.2-.3-.5-.7-.8-.9l-23.5-18.6c-.4-.3-.7-.4-1-.3z" fill="#d9d9d9"/><path d="m197.7 168.3 1 2.9 2.1-.8c0-.8-.4-2-.9-2.7z" fill="#595959"/><path d="m173 149.5v2.1 2.7l.1 16.5c0 1.3.7 2.9 1.7 3.7l10.4 8.1 6.2 4.8.3.2 6.6 5.4c.7.6 1.4.4 1.6-.4 0-.1 0-.2.1-.4 0-.1 0-.1 0-.2v-2.4-6.3l-.1-12.6c0-1.3-.7-2.9-1.7-3.7l-6.7-5.2-4.1-3.2-5.1-4.2-5.8-4.6-1.7-1.4c-.6-.5-1.1-.4-1.5 0-.2.4-.3.7-.3 1.1z" fill="#828282"/><path d="m174.2 170.3 24.8 19.8v-20.1l-24.8-19.9z" fill="#7dc2ff"/><path d="m197.7 185.5-21.7-17.8v-12.9l21.7 17.9z" fill="#f2f2f2"/><path d="m197 180.2-20.6-16.9v-.9l20.6 16.9z" fill="#f00201"/><path d="m197 182.3-20.6-17v-1l20.6 17.1z" fill="#f00201"/><path d="m197 184.3-20.6-16.9v-1l20.6 17z" fill="#f00201"/><path d="m197.7 172.7v6.5l-21.7-17.9v-6.3z" fill="#6094cd"/><path d="m192.1 180.3-4.8-4v-5l4.8 4z" fill="#6094cd"/><path d="m197.1 172.2c-.1 0-.1 0 0 0-.5.2-1 .5-1.8.1-.2-.1-.4-.3-.6-.3-.3-.1-.6.1-.7.3-.2-.5-.7-.5-.8-.2s0 .8 0 1.1c-.1.7-1 .5-1.8-.2-1.3-1-2.4-3.1-2.6-4.8-.1-.3-.1-.6-.2-.9-.2-.4-.5-.8-.5-1.1 0-.2.1-.2.1-.4 0-.4-.4-.9-.7-1.1s-.6-.2-.9-.3-.6-.4-.9-.6-.6-.2-.7.1c-.1.2 0 .6 0 .7-.2.5-1-.3-1.4.1-.2.2-.1.7-.3.9-.1.1-.2 0-.4 0-.6-.3-1.5-1.3-1.8-2.3-.1-.4-.2-.8-.4-1.3-.2-.4-.5-.6-.7-1-.4-.6-.7-1.5-1.3-2.1-.4-.5-1-1-1.1-1.8-.1-.4 0-.6-.1-1 0-.1-.1-.3-.1-.4z" fill="#54995c"/><path d="m174.6 150.5v19.6l24.4 19.6v.4l-24.8-19.8v-20.2z" fill="#999"/><path d="m199 190.1-24.8-19.8.4-.2 24.4 19.6z" fill="#ebebeb"/><path d="m185.7 188.5-4.9-3.8v.2l4.9 3.8z" fill="#ccc"/><path d="m183.3 183.9 4.3 3.3c.4-.2.6-.6.6-1.1l-4.3-3.3c.1.4-.1.9-.6 1.1z" fill="#595959"/><path d="m147.7 178.1c.7-.6 1.5-1.1 2.3-1.7l.1-.1c.2-.3.5-.5.8-.7s.7-.4 1-.6c.7-.4 1.5-.7 2.3-.7.4 0 .8.1 1.3.2.3.1.6.3.9.4.2.2.4.4.5.6.1.3 0 .6-.4.8s-.8.4-1.3.6c-.6.3-1.3.6-1.9.9-1.1.5-2.3 1-3.4 1.5-.3.1-.5.2-.8.2-.4 0-.7-.1-1.1-.3-.3-.1-.6-.3-.7-.5-.1-.1.2-.4.4-.6z" fill="#b3b3b3"/><path d="m156.2 176-7.2 3.5.8-2.6 5.4-1.4z" fill="#999"/><path d="m146.8 177c-.1.2-.2.5-.3.7-.1.3 0 .7.2 1 .2.2.4.3.6.5.6.3 1.5.5 2 0 .8-.7 1.7-1.5 2.7-2 .9-.6 2.1-1 3.2-1.1.3 0 1 0 1.1-.3.1-.4-1.4-1.4-1.8-1.6-.6-.3-1.4-.5-2-.6-2.6-.3-4.5 1.3-5.7 3.1.1.2 0 .2 0 .3z" fill="#4d4d4d"/><path d="m146.7 177c-.1.2-.2.5-.3.7-.1.3 0 .7.2 1 .2.2.4.3.6.5.6.3 1.5.5 2 0 .8-.7 1.7-1.5 2.7-2 .9-.6 2.1-1 3.2-1.1.3 0 1 0 1.1-.3.1-.4-1.4-1.4-1.8-1.6-.6-.3-1.4-.5-2-.6-2.6-.3-4.5 1.3-5.7 3.1.1.1.1.2 0 .3z" fill="#d9d9d9"/><path d="m147.5 176.1c.2-.3.4-.6.6-.8.3-.3.6-.5.9-.7.6-.4 1.4-.6 2.2-.8 1-.2 2.3 0 3.1.6.2.1.3.3.4.5.3.5-.3.8-.8.9-.7.2-1.5.4-2.2.7s-1.5.9-2.1 1.4c-.4.2-.8.5-1.3.4-.5 0-.9-.4-1-.8s0-.9.2-1.4z" fill="#e6e6e6"/><path d="m80.4 257.1 1.4-.7s.1 0 .1-.1c.4-.3.4-1.3-.1-2.1-.1-.2-.2-.3-.4-.5-.5-.5-1.1-.8-1.7-.6 0 0-.7.4-.8.4l-.4.2-.3.2.3.4.5.7 1.1 1.8z" fill="#3f3f3f"/><path d="m80.4 257.1c.1 0 .2-.1.2-.2.2-.2.2-.6.1-1-.1-.3-.2-.6-.4-1-.1-.2-.2-.3-.4-.5-.1-.1-.2-.2-.4-.3-.3-.3-.7-.4-1-.4-.1 0-.2 0-.3.1-.4.2-.5.9-.2 1.7.1.2.2.3.3.5.6.9 1.5 1.5 2.1 1.1z" fill="#666"/><path d="m115.7 240.5 1.4-.7s.1 0 .1-.1c.4-.3.4-1.3-.1-2.1-.1-.2-.2-.3-.4-.5-.5-.5-1.1-.8-1.7-.6 0 0-.7.4-.8.4l-.4.2-.3.2.3.4.5.7 1.1 1.8z" fill="#3f3f3f"/><path d="m115.7 240.5c.1 0 .2-.1.2-.2.2-.2.2-.6.1-1-.1-.3-.2-.6-.4-1-.1-.2-.2-.3-.4-.5-.1-.1-.2-.2-.4-.3-.3-.3-.7-.4-1-.4-.1 0-.2 0-.3.1-.4.2-.5.9-.2 1.7.1.2.2.3.3.5.6 1 1.6 1.5 2.1 1.1z" fill="#666"/><path d="m115.7 257.3 1.4-.7s.1 0 .1-.1c.4-.3.4-1.3-.1-2.1-.1-.2-.2-.3-.4-.5-.5-.5-1.1-.8-1.7-.6 0 0-.7.4-.8.4l-.4.2-.3.2.3.4.5.7 1.1 1.8z" fill="#3f3f3f"/><path d="m115.7 257.3c.1 0 .2-.1.2-.2.2-.2.2-.6.1-1-.1-.3-.2-.6-.4-1-.1-.2-.2-.3-.4-.5-.1-.1-.2-.2-.4-.3-.3-.3-.7-.4-1-.4-.1 0-.2 0-.3.1-.4.2-.5.9-.2 1.7.1.2.2.3.3.5.6.9 1.6 1.5 2.1 1.1z" fill="#666"/><path d="m80.1 241 1.4-.7s.1 0 .1-.1c.4-.3.4-1.3-.1-2.1-.1-.2-.2-.3-.4-.5-.5-.5-1.1-.8-1.7-.6 0 0-.7.4-.8.4l-.4.2-.3.2.3.4.5.7 1.1 1.8z" fill="#3e3e3e"/><path d="m80.1 241c.1 0 .2-.1.2-.2.2-.2.2-.6.1-1-.1-.3-.2-.6-.4-1-.1-.2-.2-.3-.4-.5-.1-.1-.2-.2-.4-.3-.3-.3-.7-.4-1-.4-.1 0-.2 0-.3.1-.4.2-.5.9-.2 1.7.1.2.2.3.3.5.5.9 1.5 1.4 2.1 1.1z" fill="#666"/><path d="m77 236.3 15.8 7.9 4.3-2.4-15.4-7.9z" fill="#cedae6"/><path d="m97.1 241.8v1.8l-4.3 2.2v-1.6z" fill="#161c24"/><path d="m77 236.3v1.6l15.8 7.9v-1.6z" fill="#a1aab3"/><path d="m117.9 235.8-35.7 18.3-4.5-2.2 35.3-18.2z" fill="#cedae6"/><path d="m77.7 251.9v1.5l4.5 2.4v-1.7z" fill="#a1aab3"/><path d="m117.9 235.8v1.7l-35.7 18.3v-1.7z" fill="#515b66"/><path d="m97.3 246.4 16.6 8.3 4.3-2.4-16.2-8.3z" fill="#cedae6"/><path d="m118.2 252.3v1.8l-4.3 2.3v-1.7z" fill="#515b66"/><path d="m97.3 246.4v1.7l16.6 8.3v-1.7z" fill="#a1aab3"/><path d="m94.8 243.5v1 .2c.2.7 1.5 1.4 2.9 1.4.3 0 .6 0 .9-.1 1-.2 1.9-.6 2-1.3 0-.1 0-.1 0-.2v-.5-.4h-.6-1.4-3.1-.7z" fill="url(#ab)"/><path d="m94.8 243.5c0 .1 0 .2.1.4.2.3.6.6 1.3.8.4.1 1 .2 1.7.2.3 0 .6 0 .9-.1.2 0 .5-.1.7-.2.6-.2 1-.5 1.3-.8.1-.1.1-.2.1-.4 0-.6-.8-1.3-2.1-1.5-.3 0-.6-.1-.9-.1-1.7.2-3.1.9-3.1 1.7z" fill="#b3b3b3"/><path d="m95.3 235.5v7.9.1c.1.6 1.3 1.1 2.5 1.1.3 0 .5 0 .8-.1.9-.1 1.6-.5 1.7-1v-.1-7.4-.4h-.6-1.1-2.7z" fill="url(#ad)"/><path d="m95.3 235.5c0 .1 0 .2.1.3.1.3.5.5 1 .7.4.1.8.2 1.4.2.3 0 .5 0 .8-.1.2 0 .4-.1.6-.1.5-.2.9-.4 1-.7.1-.1.1-.2.1-.3 0-.5-.7-1-1.8-1.3-.2 0-.5-.1-.7-.1-1.4.2-2.5.7-2.5 1.4z" fill="#fff"/><path d="m96.1 222.9v12.4.1c.1.4.8.7 1.8.7h.5c.6-.1 1.1-.4 1.1-.7v-.1-12.1-.3h-.4-.7-1.9z" fill="url(#ae)"/><path d="m96.1 222.9c0 .1 0 .1.1.2.1.2.4.4.7.5s.6.1.9.1h.5c.1 0 .3-.1.4-.1.3-.1.6-.3.7-.5 0-.1.1-.1.1-.2 0-.4-.5-.7-1.1-.8-.2 0-.3 0-.5 0-1 0-1.8.3-1.8.8z" fill="#43566c"/><path d="m90.9 195.6-1.8.9-1.6-.8 1.8-.9z" fill="#364557"/><path d="m87.5 195.7v12.6l1.6.8v-12.6z" fill="#202b33"/><path d="m90.9 195.6v12.6l-1.8.9v-12.6z" fill="#161c24"/><path d="m97.8 190-24.2 12.3-2.6-1.6 23.6-12.1z" fill="#3f5166"/><path d="m71 200.7.8 2 3 1.4-1.2-1.8z" fill="#202b33"/><path d="m97.8 190v2.3l-23 11.8-1.2-1.8z" fill="#161c24"/><path d="m126.2 224.3c-.4 1.1-1.6 2-2.7 2.6-1.3.5-2.6.7-4 .9-.6.1-1.4.1-2 .2s-1.5.1-2 .3c-.8.4-1.5.9-2.3 1.4s-1.7.6-2.6.8c-.5.1-1.1.2-1.7.1-.5 0-1-.2-1.6-.4-.4-.2-.8-.4-1.1-.7-.3-.4-.5-.8-.5-1.4-.1-.8.1-1.8.5-2.5.3-.8.8-1.6 1.3-2.3.6-1 1.3-2.1 1.9-3.1.4-.7.8-1.5 1.5-2.1 0 .1.4.4.5.4.2.1.6-.1.8-.1.6 0 1.4.2 1.9.5.4.2.6.6 1 .8.6.2 1.4.2 2 .2.3 0 .5-.1.8-.1.5-.1 1-.2 1.6-.3s1.3-.2 1.8-.2h.9c.5 0 1 0 1.6.2s1.3.6 1.8 1c.2.2.4.5.6.8 0 .1.1.2.1.2.3 1.1.3 1.9-.1 2.8z" fill="#6a788d"/><path d="m126.1 221.5h-.1c-1.5.4-3 .8-4.6.9s-3.2 0-4.7-.5c-.5-.2-.5-.4-.2-.7.4-.3.6-.7 1-1 .1-.1.2-.2.3-.2.5-.1 1-.2 1.6-.3s1.3-.2 1.8-.2h.9c.5 0 1 0 1.6.2s1.3.6 1.8 1c.2.2.4.5.6.8z" fill="#b3b3b3"/><path d="m128.9 198.8c-.2.7-.4 1.6-.7 2.3-.5 1.4-1.3 2.6-2 4-.6 1.3-1.1 2.5-1.8 3.8-.6 1.3-1.3 2.5-1.9 3.7-.2.3-.4.6-.5.9s-.2.6-.3.9c-.2.6-.5 1.4-.9 2-.7 1.3-1.5 2.5-2.3 3.8-.1.1-.1.2-.3.3-.1.1-.3.2-.4.2-.5.3-1 .5-1.7.7-.3.1-.6.2-.9.3-.7.2-1.6.3-2.4.3-1.4-.1-2.7-.5-3.5-1.5 0-.1-.1-.1-.1-.2s0-.2 0-.2c.4-.9.8-1.9 1.3-2.8.2-.4.5-.8.7-1.3s.4-.9.6-1.5c.1-.3.2-.5.3-.8.5-1 .9-2.1 1.5-3.2 2.2-4.9 4.4-9.9 7.3-14.5 1-1.7 2.2-3.4 4.3-4.1.5-.2 1.3-.3 1.8-.1.4.1.8.3 1 .6.4.4.6.8.8 1.4.1.5.2 1 .2 1.7.3 1.1.2 2.2-.1 3.3z" fill="#66897f"/><path d="m122.6 212.5c-.2.3-.4.6-.5 1-.1.3-.2.6-.3.9-.2.6-.5 1.4-.9 2-.7 1.3-1.5 2.5-2.3 3.8-.1.1-.1.2-.3.3-.1.1-.3.2-.4.2-.5.3-1 .5-1.7.7.8-1.7 1.8-3.3 2.9-5-1.3.5-2.7.6-4.1.7-.7.1-1.6.1-2.3.1-.5 0-1.1 0-1.8 0-.1 0-.3 0-.4 0 .2-.4.5-.8.7-1.3s.4-.9.6-1.5c.1-.3.2-.5.3-.8 2.6-1.3 5.6-1.9 8.7-1.7.7.4 1.3.4 1.8.6z" fill="#b3b3b3"/><path d="m125.3 214.8-26.1 13.1-24.2-13.3 24.8-12.7z" fill="#cc7cab"/><path d="m114.6 158.9c-.6 1.4-1.9 1.3-3.1 1.8-.7.3-1.1.9-1.5 1.7-.2.4-.3.9-.4 1.4-.1.3 0 1-.4 1.3-.2.2-.6.1-.9.1-.4 0-.8.1-1.3.1-.2 0-.3 0-.5 0-2.3 0-4.5-.6-6.6-1.4-.7-.3-1.3-.6-1.4-1.4-.1-1 .1-2 0-3-.1-.5 0-1 0-1.7 0-.5-.1-1.1-.1-1.7 0 .2.1.4.2.5.2.3.4.3.8.2.3-.1.7-.2 1-.4.7-.2 1.4-.5 2.1-.8 1.4-.6 2.6-1.3 3.8-2.2.1-.1.2-.2.3-.2 1.7-1.5 2.8-3.3 3.8-5.2.5-.9.9-1.9 1.6-2.7.3-.4.8-.9 1.5-.7.4.1.5.7.7 1 .1.4.3.7.4 1.1s.3.7.4 1c.2.6.1 1.1 0 1.8v.2c-.3 1.6.1 3 .2 4.6 0 1.7 0 3.3-.6 4.6z" fill="#ffd6bf"/><path d="m114.6 158.9c-.6 1.4-1.9 1.3-3.1 1.8-.7.3-1.1.9-1.5 1.7-.2.4-.3.9-.4 1.4-.1.3 0 1-.4 1.3-.2.2-.6.1-.9.1-.4 0-.8.1-1.3.1-.1-1.7-.1-3.3.8-4.9.8-1.4 2.4-2.5 2.7-4.1.1-.4.1-.9.1-1.4 0-1 0-2.2-.3-3.1s-.1-2.1.2-2.9c.3-.9 1.1-1.8 2.2-2.1.6-.1 1.4-.1 2 .1.1.4.3.7.4 1 .2.6.1 1.1 0 1.8v.2c-.3 1.6.1 3 .2 4.6-.1 1.5-.1 3.1-.7 4.4z" fill="#ffc6a6"/><path d="m114.6 148.1c-1 1.8-1.8 3.7-1.6 5.6-.1-.5-.4-.9-.9-1.1-.5-.3-1-.4-1.6-.5-1.4-.2-2.5.2-3.3 1.1-.4.5-.7 1.1-1 1.8-.3.5-.7.9-1.1 1.4-.9.8-2 1.7-3.3 1.9s-2.7-.1-3.5-1c-.9-1.3-1.5-2.6-2.2-3.9-.4-.7-.8-1.5-1.1-2.3 0-.1-.1-.2-.1-.3-.6-1.8-.7-3.8.1-5.5.9-2.1 2.8-3.3 4.9-4.5 2.2-1.3 4.9-1.7 7.5-1.4.7.1 1.5.2 2.1.4s1.4.4 2 .6c.8.3 1.6.7 2.2 1.4 1 .8 1.9 2 2 3.2v.5c-.3.9-.7 1.7-1.1 2.6z" fill="#9d7e83"/><path d="m114.6 148.1c-1 1.8-1.8 3.7-1.6 5.6-.1-.5-.4-.9-.9-1.1-.5-.3-1-.4-1.6-.5-1.4-.2-2.5.2-3.3 1.1-.4.5-.7 1.1-1 1.8-.3.5-.7.9-1.1 1.4-.9.8-2 1.7-3.3 1.9s-2.7-.1-3.5-1c-.9-1.3-1.5-2.6-2.2-3.9-.4-.7-.8-1.5-1.1-2.3.9.2 2 .5 2.9.7 1.7.3 3.3.4 5 .1.9-.1 1.8-.3 2.6-.6 1.9-.7 3.4-2 4.7-3.4 1.3-1.5 2.1-3.1 2.9-4.8.2-.4.4-.8.5-1.3 1 .8 1.9 2 2 3.2v.5c-.2.9-.6 1.7-1 2.6z" fill="#b3b3b3"/><path d="m133 164.9c-.1.1-.3.1-.5.1-1.3 0-2.5-.2-3.8 0-.6.1-1.3.4-1.4.9s.3.9.8 1.1 1 .2 1.6.3 1.1.3 1.7.6c.1.1.3.2.3.3.1.2-.1.4-.3.5-.2.1-.5.1-.7.1-.9-.1-1.8-.2-2.7-.2-1.3.1-2.5.6-3.8.2-.2-.1-.5-.2-.7-.2-.6-.2-1 .3-1.1-.5-.2-1-.8-1.9-1.9-2.5 0 0-.1-.1-.2-.1l.1-.1c.4-.3.8-.6 1.3-.8 1.3-.7 2.6-1.3 4.1-1.6.5-.1 1.1-.3 1.7-.3s1.1.1 1.7.4c.1.1.2.1.3.1s.2 0 .3 0c1-.1 2.1.2 3 .7.1.1.3.2.4.3-.1.4-.1.6-.2.7z" fill="#ffd6bf"/><path d="m131.5 168.8c-.3.1-.5.1-.8.1-.9-.1-1.8-.2-2.7-.2-1.3.1-2.5.6-3.8.2-.2-.1-.5-.2-.7-.2-.6-.2-1 .3-1.1-.5-.2-1-.8-1.9-1.9-2.5 0-.1 0-.1-.1-.2.4-.3.8-.6 1.3-.8.5.3 1 .8 1.3 1 .4.5.6 1 .8 1.7 0 .1 0 .1.1.2.1.2.4.2.6.2 1.8 0 3.5.1 5.2.5.6.1 1.2.3 1.8.5z" fill="#ffc6a6"/><path d="m123.4 167.8c0 .2 0 .5-.1.7-.1.3-.3.3-.6.3-.4 0-.8.1-1.1.3-.5.2-1 .5-1.5.8-.9.6-1.9 1.4-2.7 2.2-.2.2-.4.4-.5.6 0 .1-.1.1-.2.1 0 0-.1.1-.2.1 0 0-.1 0-.1-.1-2-1.5-3.9-2.9-5.4-4.6 1.8 0 3.4-.5 5-1.3 1.4-.6 2.6-1.3 4.1-1.8.5-.2.9-.4 1.5-.1s1.1.7 1.5 1.3c.1.6.3 1 .3 1.5z" fill="#b5ae88"/><path d="m123.4 167.8c0 .2 0 .5-.1.7-.1.3-.3.3-.6.3-.4 0-.8.1-1.1.3-.5.2-1 .5-1.5.8-.9.6-1.9 1.4-2.7 2.2-.2.2-.4.4-.5.6-.5-.5-.9-1.1-.6-1.8.2-.4.8-.7 1.3-1 .6-.4 1.3-.8 2-1.1 1.1-.6 2.5-.9 3.8-1z" fill="#b3b3b3"/><path d="m129.2 195.2c-.1 2.2-1.5 4.6-3.2 6.1-2 1.6-4.2 2.9-6.6 4-2.3 1-4.8 1.7-7.3 2.4-3 .8-6.1 1.8-9.1 2.6-2.8.8-5.7 1.9-8.8 2.1-1.4.1-2.7-.1-3.9-.6-2.9-1.6-3.4-4.8-3.2-7.5v-.1c.1-1.3.3-2.4.9-3.4 0 0 0 0 0-.1.9-1.5 2.7-2.4 4.5-3 3.7-1.4 7.5-2.1 11.4-2.9 3.1-.6 6.2-1.5 9.2-2.3.6-.2 1.3-.3 1.9-.5 2-.6 3.9-1.3 5.9-1.6 1.9-.3 3.8 0 5.5.7.9.4 1.6.9 2.1 1.7.5.7.7 1.5.7 2.4z" fill="#66897f"/><path d="m128.4 192.7c-.2.2-.4.3-.6.5-1.9 1.3-4.1 2.1-6.3 2.7-.6.2-1.4.3-2 .5-.7.2-1.5.4-2.2.5-.3 0-.6.1-.9 0-.4-.1-.9-.4-1.1-.7-.3-.4-.7-.7-1-1.1-.4-.4-.8-.8-1-1.4-.2-.4-.2-.9 0-1.4.6-.2 1.3-.3 1.9-.5 2-.6 3.9-1.3 5.9-1.6 1.9-.3 3.8 0 5.5.7.7.6 1.4 1.1 1.8 1.8z" fill="#b3b3b3"/><path d="m98.5 211.4c-.1 0-.2 0-.3 0-1.9 0-3.8-.5-5.4-1.4-1.7-.8-3.1-2-4.2-3.3-.2-.3-.4-.5-.6-.8-.3-.4-.3-.9-.5-1.5-.1-.2-.2-.2-.2-.4s0-.5.1-.7c.1-.9.4-1.8.9-2.6 0 0 0 0 0-.1h.1c.9 0 1.8.4 2.5.8 1.8 1 3.1 2.7 4.4 4.3.7.9 1.4 2 2 2.9.3.5.6 1 .9 1.6.1.3.3.5.4.8 0 .2 0 .3-.1.4z" fill="#b3b3b3"/><path d="m139.7 229.2c-.1 2.1-1.9 3.5-4.1 4.1-1.3.3-2.6.4-3.8.8-2.3.8-4 2.8-6.4 3.2-1.3.2-2.6-.1-3.5-.8-1-.7-1.7-1.8-1.7-2.9 0-.8.2-1.6.4-2.3.5-1.5 1-2.8 1.8-4.1.3-.6.7-1.3 1-1.8.3-.6.9-1 1.3-1.6-.1.1 0 .3 0 .4.2.4.4.8.8 1.3.2.2.4.4.7.5.4.1.8.1 1.3 0s.7-.1 1.3-.1h.4c.7 0 1.6-.1 2.3-.4.5-.2 1-.4 1.6-.5.9-.3 2-.7 3-.6s1.9.7 2.5 1.5c.2.2.3.4.5.6.5.8.7 1.7.6 2.7z" fill="#6a788d"/><path d="m139.1 226.3c-.3.1-.6.3-.9.4-2.5 1.1-5.3 2.4-8.2 2.3-1 0-2-.4-1.9-1.4 0-.7.6-1.4 1.3-1.9.7 0 1.6-.1 2.3-.4.5-.2 1-.4 1.6-.5.9-.3 2-.7 3-.6s1.9.7 2.5 1.5z" fill="#b3b3b3"/><path d="m143.8 203.6c-.1 1.1-.4 2.2-.7 3.2-1.4 3.8-3.3 7.3-5.6 10.8-.9 1.5-2 2.9-3 4.4s-2.1 2.8-2.8 4.5c-.1.2-.2.4-.3.5-.2.2-.4.3-.6.4-.7.3-1.5.7-2.2.8-.1 0-.1 0-.2 0-2.1.4-4.4-.6-5.3-2.4 2-3.8 3.2-7.8 4.8-11.7.6-1.6 1.3-3.1 2-4.7 0-.1.1-.2.1-.3.4-.8.6-1.7.9-2.6.7-2.1 1.8-4.2 3.3-5.8 1.1-1.3 2.9-2.6 4.8-2.6.7 0 1.5.1 2.2.2.8.2 1.7.6 2 1.4.1.2.2.4.3.6.2 1.3.4 2.4.3 3.3z" fill="#66897f"/><path d="m143.8 203.6c-.1 1.1-.4 2.2-.7 3.2-1.4 3.8-3.3 7.3-5.6 10.8-.9 1.5-2 2.9-3 4.4s-2.1 2.8-2.8 4.5c-.1.2-.2.4-.3.5-.2.2-.4.3-.6.4-.7.3-1.5.7-2.2.8-.1 0-.1 0-.2 0 .8-2 1.9-3.9 2.9-5.8 2-3.5 4.8-6.8 6.7-10.4.2-.3.3-.6.5-1-3 2.1-6.9 3.2-10.6 3.1.6-1.6 1.3-3.1 2-4.7 1-.6 2.2-1.1 3.3-1.8 3-1.7 5.2-4.3 8.1-6.1.7-.4 1.5-.8 2.2-1.1.2 1.2.4 2.3.3 3.2z" fill="#b3b3b3"/><path d="m143.9 202.8c0 1.8-1 3.3-2.2 4.7-1 1.1-2.2 2.3-3.5 3.1-1.5.8-3 1.4-4.7 1.8-4.5 1.3-9.1 2.3-13.6 3.2s-9.1 1.8-13.7 1.8c-3.2 0-6.5-.5-8.5-2.9-.5-.7-1-1.5-1.3-2.3-.1-.3-.1-.6-.1-.9 0-1.4.5-2.7 1.4-3.9 2.1-2.7 5.6-5 9-6.2 1.8-.6 3.7-1 5.5-1.4 1.8-.3 3.3-.3 5.1-.3 3.8-.1 7.5-.8 11.3-1.5 2.1-.3 4.2-.6 6.3-.8 1.7-.2 3.4-.2 5.1.3 2 .7 3.5 2.5 3.8 4.5.1.4.1.5.1.8z" fill="#66897f"/><path d="m143.9 202.2c-7.4 3.9-16.3 5-24.9 5.3-.8 0-1.7.1-2.3.5-.3.3-.5.7-.8 1-1 1.6-3.1 2.4-5.1 2.8-3.3.8-7 1-10.4.6-1.4-.2-2.9-.4-4-1.3 0-1.4.5-2.7 1.4-3.9 2.1-2.7 5.6-5 9-6.2 1.8-.6 3.7-1 5.5-1.4 1.8-.3 3.3-.3 5.1-.3 3.8-.1 7.5-.8 11.3-1.5 2.1-.3 4.2-.6 6.3-.8 1.7-.2 3.4-.2 5.1.3 2.1 1.2 3.6 3 3.8 4.9z" fill="#b3b3b3"/><path d="m120.3 180v.4c-.3 2.6-1 5.1-1.7 7.7-1.5 6.4-1.8 12.9-2.8 19.5-.1.4-.1.9-.4 1.4-.3.4-.8.7-1.3.9-2.6 1.3-5.5 2-8.5 2.2-3.4.2-7-.2-10.2-1.4-3.1-1-5.1-2.7-7.1-5.1-.4-.5-.7-.9-.9-1.6-.1-.4-.1-.8-.1-1.3 0-2.5.6-5 1-7.6.4-2.5.7-5.1.8-7.6.1-2.9 0-5.9-.4-8.9-.5-3.5-.9-7-.4-10.5.2-1.5.6-3 1.5-4.4.8-1.4 2.2-2.4 3.9-2.8 1.4-.3 2.8-.2 4.2.2.7.2 1.6.5 2.3.7.3.1.7.3 1 .4.6.2 1.3.5 1.9.7 2 .8 3.9 1.8 5.6 2.8 1 .6 2.2 1.3 3.2 1.9 1.4.8 2.6 1.7 3.9 2.5 1.5 1 3.4 2.2 4.1 3.9.7 1.9.6 4.2.4 6z" fill="#a19b79"/><path d="m120.3 180.4c-.3 2.6-1 5.1-1.7 7.7-1.5 6.4-1.8 12.9-2.8 19.5-.1.4-.1.9-.4 1.4-.3.4-.8.7-1.3.9-2.6 1.3-5.5 2-8.5 2.2.1-4.3.2-8.5.3-12.7.1-3 .1-6.1.5-9.1.3-2.3.7-4.6 1.4-6.9.3-1.1.7-2.4 1.1-3.5.6-1.6 1.3-3.1 2.6-4.3 1.7-1.5 3.4-1.4 5.1-.1 1.5 1 2.5 2.6 3.2 4.2.3.1.4.4.5.7z" fill="#b3b3b3"/><path d="m112 168.2c-1.3-.8-2.8-1-4.3-1.3-2.2-.4-4.3-.8-6.5-1.4-.7-.1-1.5-.3-2.1-.6-.9-.4-2.3-1.5-1.9-2.5.2-.4.4-.8.6-1.3.1-.2.2-.4.3-.6.2-.5.4-1.1.9-.4.6.9 1.1 1.6 2.1 2.2.1.1.2.1.3.2.5.2 1 .4 1.6.6 2 .8 3.9 1.8 5.6 2.8 1 .6 2.2 1.3 3.2 1.9.1.1.1.3.2.4z" fill="#b3b3b3"/><path d="m111.5 167.6c-1.3-.8-2.8-1-4.3-1.3-2.2-.4-4.3-.8-6.5-1.4-.7-.1-1.5-.3-2.1-.6-.9-.4-2.3-1.5-1.9-2.5.3-.6.5-1.3.8-1.9.2-.5.4-1.1.9-.4.6.9 1.3 1.8 2.4 2.4s2.5.9 3.9 1c.7.1 1.5.2 2.2.2 1.5.1 3 .1 4.5-.2-.2 0-.3.9-.4 1-.1.4-.1.8-.1 1.1.1 1 .4 1.9.6 2.6z" fill="#b5ae88"/><path d="m111.5 167.6c-1.3-.8-2.8-1-4.3-1.3-.1-.7-.2-1.6-.2-2.4 0-.2 0-.5 0-.7 1.5.1 3 .1 4.5-.2-.2 0-.3.9-.4 1-.1.4-.1.8-.1 1.1 0 .9.3 1.8.5 2.5z" fill="#b3b3b3"/><path d="m154.7 178c0 .1-.1.2-.2.3-.9.7-2.4.5-3.7.9-1.1.4-1.9 1.3-2.9 1.9-.4.3-.9.6-1.5.7-.1 0-.2.1-.4.1-.5.1-1 .2-1.6.4-.2-.7-.7-1.3-1.5-1.6-.6-.4-1.5-.5-2.2-.7-.1 0-.1-.6 0-1.1 0-.3.1-.6.1-.6.2-.6.7-1.3 1.3-1.8.4-.4.9-.7 1.5-1 .8-.5 1.6-1 2.4-1.5.6-.4 1.3-.7 2-.7.4 0 .8.2.8.5.9-.4 2-.7 2.9-.5.1 0 .2.1.2.1.1.1.1.3 0 .4-.2.4-.7.5-1.1.7-.5.2-.9.4-1.4.7-.2.1-.5.4-.3.6.9-.4 2-.6 3-.8.2 0 .5-.1.7 0s.5.2.5.5-.2.5-.4.6c-.7.5-1.6.5-2.4.8-.2.1-.3.1-.4.2s-.1.3 0 .4.3.1.5.1c1-.1 2-.1 3-.2h.5c.5.4.6.5.6.6z" fill="#ffd6bf"/><path d="m154.5 178.4c-1 .7-2.5.6-3.7 1s-1.9 1.3-2.9 1.9c-.4.3-.9.6-1.5.7-.1 0-.2.1-.4.1-.5.1-1 .2-1.6.4-.2-.7-.7-1.3-1.5-1.6-.6-.4-1.5-.5-2.2-.7-.1 0-.1-.6 0-1.1.8-.1 2 .1 2.5.3.1.1.3.1.4.2.4.2.8.4 1.4.5.7.2 1.5 0 2.2-.2s1.4-.5 2.1-.8c1.8-.6 3.6-.7 5.2-.7z" fill="#ffc6a6"/><path d="m145.1 182.4c-.1.3-.4.6-.6.9-1.1 1.1-2.4 2.3-3.3 3.5-1.4 1.7-2.6 3.1-4.2 4.6-.4.3-.7.5-1.1.7-.9.4-1.7.7-2.7.6-.9-.1-1.9-.3-2.8-.5-4.7-1.3-9.2-3.1-13.7-4.8-.4-.2-.9-.3-1.4-.4-.8-.1-1.7.2-2.6.2-.8 0-1.6-.4-2.1-.9-.6-.7-.5-1.5-.5-2.3 0-.3 0-.6 0-.9 0-1.7.2-3.3.6-5 .3-1.3.7-2.6 1.7-3.7.9-1 2.3-1.9 3.8-2 1 0 2.2.3 3 .9.9.5 1.7 1.3 2.3 2.1 1.7 1.9 3.2 3.9 5.2 5.4.7.5 1.5 1 2.3 1.6.8.5 1.7.8 2.6 1.3.4.2.8.4 1.3.6.3.1.6.3.9.4s.6-.1.9-.2c.7-.3 1.5-.7 2.1-1.3.8-.6 1.6-1.3 2.3-1.9.5-.5 1.3-1.5 2-1.6.9-.1 2 .1 2.7.6.2.1.3.2.5.4l.2.2c.4.5.7 1 .6 1.5z" fill="#b5ae88"/><path d="m145.1 182.4c-.1.3-.4.6-.6.9-1.1 1.1-2.4 2.3-3.3 3.5-1.4 1.7-2.6 3.1-4.2 4.6-.4.3-.7.5-1.1.7-.9.4-1.7.7-2.7.6-.9-.1-1.9-.3-2.8-.5-4.7-1.3-9.2-3.1-13.7-4.8-.4-.2-.9-.3-1.4-.4-.8-.1-1.7.2-2.6.2-.8 0-1.6-.4-2.1-.9-.6-.7-.5-1.5-.5-2.3 0-.3 0-.6 0-.9.4.2.7.4.9.5.9.4 1.9.6 2.9.9 4.4 1 8.7 2.4 12.9 4 1.6.5 3 1.1 4.7 1.5 1.4.3 2.6.3 3.9-.4 2.7-1.5 4.6-3.8 6.6-5.9.9-.9 1.9-1.9 2.8-2.7.1.4.4.9.3 1.4z" fill="#b3b3b3"/><path d="m75 214.6v3.7l25.4 12.8-1.2-3.2z" fill="#202b33"/><path d="m125.3 214.8v3.7l-24.9 12.6-1.2-3.2z" fill="#752e58"/><path d="m113.9 207.8-1.8.8-1.5-.8 1.8-.9z" fill="#364557"/><path d="m110.6 207.8v12.6l1.5.8v-12.6z" fill="#bfbfbf"/><path d="m113.9 207.8v12.6l-1.8.8v-12.6z" fill="#808080"/><path d="m120.9 202.2-24.2 12.4-2.6-1.7 23.6-12.1z" fill="#f0f0f0"/><path d="m94.1 212.9.7 1.9 3 1.5-1.1-1.7z" fill="#202b33"/><path d="m120.9 202.2v2.3l-23.1 11.8-1.1-1.7z" fill="#808080"/><path d="m83.7 188.9 13.5 22.3 3.1 19.9-2.5 1.4-2.6-4-20.2-10.2-3-19.7-13.6-22.7z" fill="#752e58"/><path d="m81.1 190.2 13.7 22.3 3 20-25.2-12.8-3.1-19.9-13.6-22.5z" fill="#ad6991"/><path d="m55.9 177.3 2.5-1.4 25.3 13-2.6 1.3z" fill="#cc7cab"/><path d="m94.8 212.5-25.3-12.7-13.6-22.5 25.2 12.9z" fill="#96517a"/><path d="m256 81.9-2.9-8.2-4.8 4.2-132.6-68 .1 79.5-6.2.1 6.2 6.6 140.3 71.9z" fill="#b3b3b3"/><path d="m249.9 75.3-140.4-71.9.1 86.1 140.3 71.9z" fill="#f2eae6"/><path d="m112.9 87.8v-79.4l133.7 68.6.1 79.5z" fill="#404040"/><path d="m242.5 148.1-29.1-15.2v-69.4l29.1 15.1z" fill="#f2f2f2"/><path d="m242.5 82.5v2.1l-29.1-14.8v-2.1z" fill="#f00201"/><path d="m242.5 89.2v2.1l-29.1-14.8v-2.1z" fill="#54995c"/><path d="m242.5 95.8v2.1l-29.1-14.9v-2.1z" fill="#f00201"/><path d="m242.5 102.4v2.1l-29.1-14.8v-2.1z" fill="#54995c"/><path d="m242.5 109.1v2.1l-29.1-14.9v-2.1z" fill="#f00201"/><path d="m242.5 115.7v2.1l-29.1-14.8v-2.1z" fill="#a1e0ff"/><path d="m242.5 122.4v2.1l-29.1-15v-2z" fill="#f00201"/><path d="m242.5 129v2l-29.1-14.8v-2.1z" fill="#a1e0ff"/><path d="m242.5 135.6v2.1l-29.1-14.9v-2z" fill="#f00201"/><path d="m242.5 142.2v2.1l-29.1-14.8v-2.1z" fill="#54995c"/><path d="m116.3 86.3v-76.1l-3.4-1.8v79.4l133.8 68.7v-3.3z" fill="#fff7f2"/><path d="m253.1 159.9-3.2 1.5v-86.1l3.2-1.6z" fill="#b39898"/><path d="m109.5 3.4 3.3-1.7 140.3 72-3.2 1.6z" fill="#fff7f2"/><path d="m208.5 129.6-87.9-44.9v-69.5l87.9 44.9z" fill="#54995c"/><path d="m132.8 21.4v69.5l-1.8-1v-69.4z" fill="#f2f2f2"/><path d="m147.8 29.1v69.5l-1.7-1v-69.4z" fill="#f2f2f2"/><path d="m162.9 36.8v69.4l-1.7-.8v-69.5z" fill="#f2f2f2"/><path d="m177.9 44.5v69.4l-1.7-.8v-69.5z" fill="#f2f2f2"/><path d="m192.9 52.1v69.4l-1.7-.8v-69.5z" fill="#f2f2f2"/><path d="m208.5 124.4v1.7l-15.6-7.9-1.7-.9-13.3-6.7-1.7-.9-13.3-6.7-1.7-1-13.4-6.8-1.7-.9-13.3-6.7-1.8-.9-10.4-5.3v-1.8l10.4 5.2 1.8.9 13.3 6.8 1.7 1 13.4 6.8 1.7.8 13.3 6.8 1.7.8 13.3 6.8 1.7.9z" fill="#f2f2f2"/><path d="m208.5 109.1v1.8l-15.6-7.9-1.7-1-13.3-6.7-1.7-.8-13.3-6.8-1.7-.9-13.4-6.8-1.7-.8-13.3-6.8-1.8-1-10.4-5.3v-1.8l10.4 5.4 1.8.9 13.3 6.7 1.7.9 13.4 6.8 1.7 1 13.3 6.6 1.7 1 13.3 6.7 1.7.9z" fill="#f2f2f2"/><path d="m208.5 93.9v1.8l-15.6-7.9-1.7-.9-13.3-6.8-1.7-.8-13.3-6.8-1.7-.9-13.4-6.8-1.7-1-13.3-6.7-1.8-.9-10.4-5.3v-1.9l10.4 5.3 1.8 1 13.3 6.8 1.7.9 13.4 6.8 1.7.8 13.3 6.8 1.7.9 13.3 6.7 1.7 1z" fill="#f2f2f2"/><path d="m208.5 78.6v1.8l-15.6-7.9-1.7-.9-13.3-6.7-1.7-1-13.3-6.6-1.7-1-13.4-6.8-1.7-.9-13.3-6.7-1.8-.9-10.4-5.4v-1.7l10.4 5.2 1.8.9 13.3 6.8 1.7 1 13.4 6.6 1.7 1 13.3 6.8 1.7.8 13.3 6.8 1.7.9z" fill="#f2f2f2"/><path d="m208.5 63.4v1.8l-15.6-7.9-1.7-1-13.3-6.7-1.7-.9-13.3-6.7-1.7-.9-13.4-6.8-1.7-1-13.3-6.6-1.8-1-10.4-5.3v-1.8l10.4 5.4 1.8.9 13.3 6.7 1.7.9 13.4 6.8 1.7.9 13.3 6.7 1.7 1 13.3 6.6 1.7 1z" fill="#f2f2f2"/><path d="m135 36.8c1-.9 2.4-1.5 4.1-1.4-.6.8-1 1.9-1.3 3.1 1.4-1.6 3.5-1.8 5.8-1.9 4-.2 8.2 0 12.7 1.8 2.3.8 4.5 1.8 6.7 3 1.3.7 2.5 1.5 3.7 2.2 1 .6 2.4 2 3.3 2.4-.4-.1-.7 0-.8.3 8 2.8 16.6 10.5 21.6 19.6 5 9 6.4 18.9 3.3 25.1.3-1 0-2.5-.6-3.9-.1 9.2-4 16.3-10.5 19.4-2.2 1-4.8 1.7-7.8.7.2-.6.3-1.1.5-1.8-8.6.2-18.9-4.1-28.2-11.5.5.1 1 .2 1.7.2-2.1-2.8-4.6-5.1-6.9-7.7-6.6-7.2-11.8-16.3-14.1-24.8.5 1.9 2.8 4.7 4.3 6.1-.5-1.8-.6-3.4-1.3-5.1-.6-2.2-.5-4.2-.5-6.1 0-4.8.2-9.6 1.3-13.9.4-2 1.1-3.9 2.2-5.3.4-.1.6-.3.8-.5z" fill="#182548"/><path d="m141.4 66.7c-3.3-7.5-4-15.2-1.9-20.6-.4.9-.2 2.3.4 3.5.3-3.9 2.4-6.7 5.3-8 2.9-1.4 6.6-1.4 10.4-.7-1.4.4-2.3 1.6-2.4 3.2 2.9-1.3 7 0 11 1.5 3.8 1.4 7.5 2.9 11.3 5.4s7.4 5.8 10 10c-3.5-2.1-7.1-3.8-10.5-4.7 3.4 2.3 5.7 6.8 7.5 10.8-5.3-3.8-10.8-6.9-16.1-9.3 3.4 2.8 6.9 5.6 10.1 9 3.2 3.2 6.2 7.1 8.1 11.2 1.7 3.4 2.5 6.9 2.9 10.1.5 4.4.2 8.5-1.6 11.3s-4.9 4.1-8.2 4.9c.6.3.9-.2 1.1-.7.6-1.6 1.4-3.1 2-4.7-3.7 2.8-9.5 2.3-15.2.7 3-1.6 5.3-4.2 6.9-7.5-2.4.7-5.3.2-8.2-.5-6.6-1.7-13.9-4.7-19.7-11.2 1.3 1.4 3.9 2.1 5.2 2.7 1.9.8 3.8 2.1 5.6 3-2.8-2.6-5.2-5.7-7.6-8.9-2.8-3.4-4.9-6.8-6.4-10.5z" fill="#e8e8e6"/><path d="m160.1 86.9c-1.5-.7-3.1-1.8-4.6-3-3-2.6-5.5-6.5-7.1-10.5-1.3-3.2-1.8-6.8-1.8-10.5 0-2.3.2-5.5 2.2-6.9 2.1-1.5 5.4-.5 8 .4 4.2 1.5 7.6 3.3 10.8 5.6 1.6 1.1 3 2.4 4.3 3.9-.8-.9-1.6-1.8-2.5-2.6-2.8-2.7-5.8-5-9-6.7-4.4-2.4-8.1-3-10.6-2l-1.3-2c2.8-1.3 7.1-.5 11.9 2.1 3.3 1.8 6.7 4.3 9.7 7.2 3.8 3.7 6.8 7.8 8.7 11.9 2.2 4.7 2.8 9.3 1.7 12.3-1 2.9-3.8 4.6-7.3 4.8-2.8.1-6.3-.7-10.6-2.5-.8-.7-1.7-1-2.5-1.5zm-3.8-29c-2.2-.7-4.6-1.3-6.1-.2-1.6 1.1-1.8 4-1.8 5.9 0 3.5.5 6.7 1.7 9.7 1.4 3.5 3.5 6.8 6.1 9 2.1 1.8 4.4 2.9 6.4 3.8 4.1 1.7 7.3 2.5 9.9 2.4 3.1-.1 5.5-1.7 6.5-4.2.8-2.2.5-5.3-.6-8.7 1 3.3.9 6.3-.3 8.1-.6.9-1.6 1.7-3 2.3-3.9 1.7-8.6 1.1-13.2-1.3-5.2-2.8-10-8.2-12-13.7-.7-1.9-1.1-4-1.3-6.1-.1-2 .1-3.5.6-4.6 1-2.4 4.1-2.9 7.1-2.4zm5.1 3.6c-.9-.4-1.8-.8-2.7-1.1-3-1-6.7-1-7.9 1.8-.4.9-.5 2.2-.5 4 .1 1.9.4 3.7 1 5.3 1.7 4.6 5.8 9.3 10.3 11.7 4.1 2.2 8.4 2.5 11.9 1 1.3-.5 2.1-1.1 2.6-2 1.4-2 .9-5.8-.9-9.6-1.8-3.4-4.6-6.7-8-9.3-.7-.5-1.5-1-2.2-1.6 2.7 1.9 5.2 4.4 7.4 7.1.7.9 1.8 2.3 2.4 3.9.8 2.1.8 4.1.7 5.5-.1 1.7-.4 3.7-1.8 4.8-1.4 1-3.3 1-5.1.7-1.9-.2-3.9-.6-5.8-1.3-1.4-.4-2.9-.9-4.3-2.1-1.6-1.4-3-3.2-4.2-5.9-1.1-2.5-1.8-4.7-2-6.6-.2-2.3.4-4.2 1.6-5.1 2-1.6 5.3-.6 7.6.2 2.1.7 4.8 2 7.3 4.4 2.7 2.6 4.4 6.1 4.2 8.6-.1 1.5-.9 2.6-2.4 3.2-2.1.9-4.8.8-7.8-.4-1.7-.6-4.6-2.2-6.6-5.3-.9-1.6-1.6-3.4-1.7-5.3-.1-1.3.1-2.1.5-2.7.7-1.1 2.5-1.4 5-.4 2.6.9 4.8 2.4 6.4 4.3 1.1 1.4 1.9 3.1 2.1 4.6.1 1.3-.2 2.2-.8 2.6-.7.4-1.8.4-2.8-.1-1.3-.5-2.5-1.7-3.2-2.8-.9-1.6-1-3.2-.2-3.9.5-.3 1.3-.2 1.9.2.9.6 1.6 1.9 1.5 2.7-.1.5-.4.7-.9.7-.3 0-.6-.2-.9-.4 0 0 0 .1.1.1.4.6 1 1.1 1.8 1.5.6.3 1.3.3 1.7.1.4-.3.5-.9.4-1.4-.1-.9-.6-2.1-1.3-2.8-1.1-1.4-2.8-2.5-5-3.2-1.9-.6-3.1-.6-3.7.1-.2.4-.3.9-.3 1.9s.3 2.5 1.1 3.9c1.4 2.3 4 3.4 4.9 3.9 2.6 1 5 1.1 6.8.3.7-.3 1.7-1 1.9-2.4.2-1.9-1.4-4.5-3-6.1-1.7-1.6-3.5-2.7-6.4-3.7-3.1-1.1-5.2-1.3-6.4-.3-.9.7-1.4 2.2-1.1 4 .1 1.6.7 3.5 1.7 5.6.9 2.2 2 3.7 3.1 4.6.9.8 2.1 1.3 3.4 1.7 1.9.5 3.8.9 5.6 1.1 1.6.2 3.2.3 4.3-.6 1-.8 1.3-2.6 1.5-4 .1-1.3.1-2.8-.5-4.4-.3-.8-.9-1.8-1.9-2.9-3.4-3.6-6.9-6.5-10.4-8.4zm1.4 10.3s-.1 0-.2 0c-.1.1-.2.3-.1.6l.8-.7c-.1-.1-.3-.2-.4-.3-.1 0-.1.1-.2.2.1-.2.1.1.1.2z" fill="#fffffd"/></svg>