<?xml version="1.0" encoding="utf-8"?>
<!-- Generator: Adobe Illustrator 25.1.0, SVG Export Plug-In . SVG Version: 6.00 Build 0)  -->
<svg version="1.1" id="Capa_1" xmlns="http://www.w3.org/2000/svg" xmlns:xlink="http://www.w3.org/1999/xlink" x="0px" y="0px"
	 viewBox="0 0 850.4 751.2" style="enable-background:new 0 0 850.4 751.2;" xml:space="preserve">
<style type="text/css">
	.st0{fill:#E6E6E7;}
	.st1{fill:#4B4B70;}
	.st2{fill:#3C3C3B;}
	.st3{fill:#683C11;}
	.st4{fill:#F0F1F1;}
	.st5{fill:url(#SVGID_1_);}
	.st6{fill:url(#SVGID_2_);}
	.st7{fill:#575756;}
	.st8{fill:url(#SVGID_3_);}
	.st9{fill:url(#SVGID_4_);}
	.st10{fill:#78ABCE;}
	.st11{fill:#8BB8DC;}
	.st12{fill:#878787;}
	.st13{fill:#706F6F;}
	.st14{fill:#BE1E2C;}
	.st15{fill:#A0CFE6;}
	.st16{fill:#F7CF9C;}
	.st17{fill:#221F1F;}
	.st18{fill:#936037;}
	.st19{fill:#7D4E24;}
	.st20{fill:#9D9D9C;}
	.st21{fill:#312783;}
	.st22{fill:#BE1622;}
	.st23{fill:#EA5B0C;}
	.st24{fill:#FFFFFF;}
	.st25{fill:#C3DFED;}
	.st26{fill:#629ABF;}
	.st27{fill:#00983A;}
	.st28{fill:#B17F4A;}
	.st29{fill:#D60B52;}
	.st30{fill:#F9B233;}
	.st31{fill:#F9A21F;}
	.st32{fill:#14B0BF;}
	.st33{fill:#DD2013;}
	.st34{fill:#D87C94;}
	.st35{fill:#EA8CA1;}
	.st36{fill:#FC9FAF;}
	.st37{fill:#C66785;}
	.st38{fill:#603913;}
	.st39{fill:#F4B7AC;}
	.st40{fill:#EFEBEA;}
	.st41{opacity:0.4;fill:#C6C6C6;enable-background:new    ;}
	.st42{fill:#414042;}
	.st43{fill:#E8A49B;}
	.st44{opacity:0.5;fill:#E07F86;enable-background:new    ;}
	.st45{fill:#158048;}
	.st46{fill:#FC8668;}
	.st47{fill:#C6C6C6;}
	.st48{opacity:0.4;fill:#D0D1D3;enable-background:new    ;}
	.st49{fill:#0A9C8D;}
	.st50{fill:#008C7B;}
	.st51{fill:#14C7B5;}
	.st52{fill:#E33C5E;}
	.st53{fill:#E07F86;}
</style>
<g>
	<path class="st0" d="M651.6,122.9c-2.4,0-4.4,1.7-4.4,3.9c0,2.1,2,3.9,4.4,3.9c2.4,0,4.4-1.7,4.4-3.9S654,122.9,651.6,122.9z"/>
	<path class="st1" d="M651.6,124.5c-1.4,0-2.4,0.9-2.4,2.1c0,1.2,1.1,2.1,2.4,2.1s2.4-0.9,2.4-2.1C654,125.5,653,124.5,651.6,124.5z
		"/>
</g>
<g>
	<path class="st0" d="M651.6,0c-2.4,0-4.4,1.7-4.4,3.9c0,2.1,2,3.9,4.4,3.9c2.4,0,4.4-1.7,4.4-3.9S654,0,651.6,0z"/>
	<path class="st1" d="M651.6,1.7c-1.4,0-2.4,0.9-2.4,2.1s1.1,2.1,2.4,2.1S654,5,654,3.8C654,2.6,653,1.7,651.6,1.7z"/>
</g>
<rect x="101.1" y="616.4" class="st2" width="648" height="26.6"/>
<g>
	<rect x="594" y="6.1" class="st3" width="115.4" height="101.9"/>
	<rect x="601.9" y="13.1" class="st4" width="99.4" height="87.8"/>
</g>
<g>
	<rect x="594" y="129" class="st3" width="115.3" height="101.9"/>
	<rect x="602" y="135.9" class="st4" width="99.3" height="87.7"/>
</g>
<g>
	<g>
		<g>
			
				<radialGradient id="SVGID_1_" cx="525.2049" cy="209.1729" r="11.4371" gradientTransform="matrix(1 0 0 -1 0 751)" gradientUnits="userSpaceOnUse">
				<stop  offset="0.5744" style="stop-color:#161412"/>
				<stop  offset="0.7977" style="stop-color:#161412"/>
				<stop  offset="1" style="stop-color:#161412"/>
			</radialGradient>
			<rect x="512.6" y="531.7" class="st5" width="25.2" height="20.3"/>
			
				<radialGradient id="SVGID_2_" cx="525.2049" cy="136.8273" r="9.6058" gradientTransform="matrix(1 0 0 -1 0 751)" gradientUnits="userSpaceOnUse">
				<stop  offset="0.5744" style="stop-color:#161412"/>
				<stop  offset="0.7977" style="stop-color:#161412"/>
				<stop  offset="1" style="stop-color:#161412"/>
			</radialGradient>
			<rect x="512.6" y="609.1" class="st6" width="25.2" height="10.1"/>
			<rect x="516.4" y="551.9" class="st7" width="17.6" height="57.1"/>
			<rect x="446" y="618.8" class="st7" width="158.3" height="11.3"/>
			
				<radialGradient id="SVGID_3_" cx="446.0341" cy="118.5224" r="11.2036" gradientTransform="matrix(1 0 0 -1 0 751)" gradientUnits="userSpaceOnUse">
				<stop  offset="0.5744" style="stop-color:#161412"/>
				<stop  offset="0.7977" style="stop-color:#161412"/>
				<stop  offset="1" style="stop-color:#161412"/>
			</radialGradient>
			<path class="st8" d="M446,622c-6.5,0-11.9,4.7-11.9,10.4c0,5.8,5.3,10.4,11.9,10.4c6.5,0,11.8-4.6,11.8-10.4
				C457.9,626.6,452.6,622,446,622z"/>
			
				<radialGradient id="SVGID_4_" cx="604.3673" cy="118.5224" r="11.1954" gradientTransform="matrix(1 0 0 -1 0 751)" gradientUnits="userSpaceOnUse">
				<stop  offset="0.5744" style="stop-color:#161412"/>
				<stop  offset="0.7977" style="stop-color:#161412"/>
				<stop  offset="1" style="stop-color:#161412"/>
			</radialGradient>
			<path class="st9" d="M604.4,622c-6.5,0-11.9,4.7-11.9,10.4c0,5.8,5.3,10.4,11.9,10.4c6.5,0,11.8-4.6,11.8-10.4
				C616.2,626.6,611,622,604.4,622z"/>
		</g>
		<path class="st10" d="M526.4,279.8c-42,0-93.9,21.1-93.9,55.4s27.2,160.1,27.2,160.1l138.5,1.7c0,0,19.7-127.7,19.7-158.7
			C617.9,300.9,568.5,279.8,526.4,279.8z"/>
		<path class="st11" d="M524.6,482.8c-54.7,0-98.9,0-98.9,26.2c0,14.5,44.3,26.2,98.9,26.2c54.7,0,98.9-11.7,98.9-26.2
			C623.5,482.8,579.3,482.8,524.6,482.8z"/>
	</g>
	<rect x="138.1" y="411.4" class="st12" width="264.6" height="231.5"/>
	<rect x="647.6" y="411.4" class="st13" width="64.3" height="231.5"/>
	<g>
		<g>
			<polygon class="st4" points="700.8,387.4 701.5,388.4 702.4,387.5 702.7,384.7 701.2,384.6 			"/>
			<polygon class="st14" points="700.4,385.9 703.1,386.2 704.2,382.5 700.3,382.1 			"/>
			<path class="st11" d="M712.5,298.4h-0.4c-2.1-0.2-4.1,1.2-4.3,3.1l-7.2,60c-0.2,1.8-1.5,20.9-0.6,21.5c0.4,0.3,3.7,0.7,4.3,0.3
				c0.6-0.4,4.4-19.8,4.5-21.1l7.2-60C716.2,300.3,714.6,298.6,712.5,298.4z"/>
			<path class="st15" d="M707.8,301.5l-7.2,60c-0.2,1.8-1.5,20.9-0.6,21.5c0.2,0.2,1.2,0.3,2.2,0.4l10.2-85.1h-0.2
				C709.9,298.2,708,299.6,707.8,301.5z"/>
			<path class="st10" d="M715.8,303.6l-8.7-0.8c-0.4,0-0.8,0.2-0.9,0.4c0,0.3-0.2,0.5,0.2,0.5l9.2,0.8c0.4,0,0.8-0.2,0.9-0.4
				C716.6,303.9,716.3,303.6,715.8,303.6z"/>
			<path class="st10" d="M705.4,304.8c-0.1,0.9-2.3,22.8-2.2,23.3c0.2,0.5,1.4-0.4,1.5-1.4c0.1-0.9-0.4-1.6-0.3-1.6
				c0.1,0,2.2-20.9,2.2-20.9l0.5-1.6C707.1,302.7,705.6,302.4,705.4,304.8z"/>
		</g>
		<g>
			<g>
				<path class="st11" d="M676.8,305.5c-0.1-0.3-0.5-0.5-0.9-0.4l-4.5,1.5c-0.4,0.1-0.6,0.5-0.4,0.8l1.6,3.9
					c0.1,0.3,0.5,0.5,0.9,0.4l4.5-1.5c0.4-0.1,0.6-0.5,0.4-0.8L676.8,305.5z"/>
				<polygon class="st16" points="707.6,389.3 707.6,381.2 701.6,383.1 				"/>
				<polygon class="st17" points="707.6,389.3 707.8,386.7 705.6,387.4 				"/>
				<polygon class="st15" points="672.4,311.1 701.6,383.1 707.6,381.2 678.4,309.2 				"/>
				<polygon class="st4" points="671.8,309.7 672.4,311.1 678.4,309.2 677.9,307.8 				"/>
				<polygon class="st11" points="675.3,310.1 704.6,382.2 707.6,381.2 678.4,309.2 				"/>
			</g>
		</g>
		<g>
			<rect x="678.2" y="340.5" class="st18" width="45.2" height="51.3"/>
			<rect x="700.8" y="340.5" class="st19" width="22.6" height="51.3"/>
		</g>
	</g>
	<g>
		<g>
			<path class="st2" d="M175.5,244.2c-5.5,0-10,4-10,8.9v68.1v8.9v16.7c0,4.9,4.4,8.9,10,8.9h128.2l-76.1-111.4H175.5z"/>
			<path class="st7" d="M342.7,244.2h-115l76.1,111.4h38.9c5.5,0,10-4,10-8.9v-16.8l0,0V253C352.7,248.3,348.1,244.2,342.7,244.2z"
				/>
		</g>
		<path class="st7" d="M258.5,314.1c-9.5,0-17.2,6.8-17.2,15.2v49.1c0,8.3,7.7,10,17.2,10c9.5,0,17.2-1.7,17.2-10v-49.2
			C275.7,320.9,268,314.1,258.5,314.1z"/>
		<path class="st13" d="M297.3,374.3h-55.5h-7.2h-13.7c-4,0-7.2,2.8-7.2,6.3v11.2h90.9v-11.2C304.6,377.1,301.3,374.3,297.3,374.3z"
			/>
	</g>
	<rect x="101.1" y="391.9" class="st20" width="648" height="19.6"/>
</g>
<g>
	<rect x="351" y="140" class="st12" width="74.6" height="24"/>
	<rect x="141.7" y="140" class="st12" width="74.6" height="24"/>
	<g>
		<rect x="390.6" y="58.6" class="st15" width="24.3" height="66.8"/>
		<rect x="390.6" y="58.6" class="st21" width="24.3" height="6.3"/>
		<rect x="390.6" y="118.8" class="st21" width="24.3" height="6.5"/>
	</g>
	<rect x="363.3" y="39.1" class="st22" width="27.1" height="86.2"/>
	<rect x="370.7" y="48.6" class="st11" width="12.5" height="60.7"/>
	<rect x="342.7" y="52.4" class="st11" width="20.7" height="72.9"/>
	<g>
		<rect x="241.2" y="12" class="st23" width="37.4" height="113.3"/>
		<polygon class="st24" points="246.5,25 246.5,79.4 273.3,79.4 273.3,25 259.9,32.4 		"/>
		<path class="st25" d="M259.9,86.8c-5.5,0-9.9,3.9-9.9,8.8c0,4.9,4.4,8.8,9.9,8.8s9.9-3.9,9.9-8.8S265.4,86.8,259.9,86.8z"/>
		<path class="st26" d="M259.9,88.5c-4.4,0-8,3.2-8,7.1c0,3.9,3.6,7.1,8,7.1c4.4,0,8-3.2,8-7.1C267.9,91.6,264.3,88.5,259.9,88.5z"
			/>
	</g>
	<g>
		<rect x="204" y="12" class="st27" width="37.4" height="113.3"/>
		<polygon class="st24" points="209.2,25 209.2,79.4 235.9,79.4 235.9,25 222.5,32.4 		"/>
		<path class="st25" d="M222.5,86.8c-5.5,0-9.9,3.9-9.9,8.8c0,4.9,4.4,8.8,9.9,8.8s9.9-3.9,9.9-8.8S228,86.8,222.5,86.8z"/>
		<path class="st26" d="M222.5,88.5c-4.4,0-8,3.2-8,7.1c0,3.9,3.6,7.1,8,7.1s8-3.2,8-7.1C230.6,91.6,227,88.5,222.5,88.5z"/>
	</g>
	<g>
		<rect x="166.6" y="12" class="st28" width="37.4" height="113.3"/>
		<polygon class="st24" points="171.9,25 171.9,79.4 198.7,79.4 198.7,25 185.3,32.4 		"/>
		<path class="st25" d="M185.3,86.8c-5.5,0-9.9,3.9-9.9,8.8c0,4.9,4.4,8.8,9.9,8.8s9.9-3.9,9.9-8.8S190.8,86.8,185.3,86.8z"/>
		<path class="st26" d="M185.3,88.5c-4.4,0-8,3.2-8,7.1c0,3.9,3.6,7.1,8,7.1s8-3.2,8-7.1C193.2,91.6,189.7,88.5,185.3,88.5z"/>
	</g>
	<g>
		<rect x="129.2" y="12" class="st29" width="37.4" height="113.3"/>
		<polygon class="st24" points="134.5,25 134.5,79.4 161.3,79.4 161.3,25 147.9,32.4 		"/>
		<path class="st25" d="M147.9,86.8c-5.5,0-9.9,3.9-9.9,8.8c0,4.9,4.4,8.8,9.9,8.8c5.5,0,9.9-3.9,9.9-8.8S153.4,86.8,147.9,86.8z"/>
		<path class="st26" d="M147.9,88.5c-4.4,0-8,3.2-8,7.1c0,3.9,3.6,7.1,8,7.1s8-3.2,8-7.1C155.9,91.6,152.4,88.5,147.9,88.5z"/>
	</g>
	<polygon class="st30" points="309.4,122.1 322.3,125.3 342.7,61 329.8,57.8 	"/>
	<rect x="101.1" y="125.3" class="st13" width="360" height="14.7"/>
</g>
<g id="_x33_">
	<g>
		<g>
			<g>
				<path class="st31" d="M635.5,212c-1.7-2.2-1.8-5.5-0.3-8.3c1.2-2.1,2.7-3.8,4.2-5.2c2.8-2.8,4.3-4.4,3.5-7.9
					c-1.3-5.8-8.4-9.1-14.4-8.8l-0.2-4.4c7.9-0.4,17.2,4.1,19,12.2c1.4,6-2,9.4-4.7,12c-1.4,1.4-2.6,2.6-3.5,4.1
					c-0.6,1.3-0.7,2.7-0.1,3.6L635.5,212z"/>
			</g>
			<g>
				<path class="st32" d="M628.8,175.8l-0.7-4.4c3.7-0.6,7.2-2.6,9.5-5.6c2.3-3,3.5-6.9,3.2-10.7l4.4-0.4c0.4,4.9-1.1,9.9-4,13.7
					C638.1,172.5,633.7,175.1,628.8,175.8z"/>
			</g>
			<g>
				<path class="st33" d="M637.2,178.7c-3.2,0-6.2-1.1-8.5-3c-0.1,0-0.3-0.1-0.5-0.2c-0.6-0.2-1.6-0.5-2.3-1.3l3.2-3.2h-0.1
					c0.1,0,0.4,0.1,0.5,0.2c0.6,0.2,1.4,0.4,2.1,1.1c2.1,1.7,5.1,2.3,8.1,1.7c3.1-0.7,5.5-2.6,6.6-5.2l4.1,1.8
					c-1.7,3.8-5.3,6.8-9.7,7.8C639.6,178.5,638.4,178.7,637.2,178.7z"/>
			</g>
		</g>
		<g>
			<path class="st34" d="M636.5,195.2c-1.4,9.4-12.2,15.1-22.4,7.7c-0.9-0.6-1.8-1.4-2.5-2.2c-3.3-3.4-5.6-8.1-6.8-13.4l0,0
				c-1.2-5.9-0.8-12.5,1.8-18.7c0.3-0.7,0.7-1.6,1.2-2.4c0,0,0,0,0-0.1c0.2-0.3,0.3-0.6,0.5-0.8l0,0c0.3-0.5,0.6-0.9,0.9-1.5
				c3.9-5.7,10.4-11,17.3-11.2c0.2,0,0.5,0,0.7,0c0.1,0,0.2,0,0.3,0c1.3,0.1,2.4,0.3,3.5,0.7c7.9,2.8,10.3,13.7,1.1,18.4
				c3.3,3.8,2.2,10.4-1.9,13.3c-0.3,0.2-0.7,0.4-1.1,0.6c0.4-0.2,0.8-0.3,1.3-0.3C634,184.8,637.4,189.5,636.5,195.2z"/>
			<path class="st35" d="M630.6,185c0.8,1.7,1.2,3.9,0.8,6.2c-0.8,5.4-6,11.5-11.9,11.1c-5.7-0.4-11.7-8.4-13.8-13.3
				c-0.3-0.6-0.5-1.3-0.7-1.9l0,0c-1.2-5.9-0.8-12.5,1.8-18.7c0.3-0.7,0.7-1.6,1.2-2.4c0,0,0,0,0-0.1c0.2-0.3,0.3-0.6,0.5-0.8l0,0
				c0.3-0.5,0.6-0.9,0.9-1.5c3.9-5.7,10.2-11,17.3-11.2c0.2,0,0.5,0,0.7,0c0.1,0,0.2,0,0.3,0c1.3,0.1,2.4,0.3,3.5,0.7
				c3.3,4.5,2.7,11.2-4.1,14.5c3.6,4.1,2,11.6-3,13.9c2.2-1.1,4.7,0.4,6.2,3.2C630.5,184.8,630.6,184.9,630.6,185z"/>
			<path class="st36" d="M615.6,187.4c0.2,1.5,0.6,2.8,1.2,4.1c0.4,1.1,1.1,2.1,1.2,3.3c0.1,1.2-0.5,2.5-1.7,2.7
				c-1.2,0.2-2.3-0.7-3.1-1.7c-8.7-11.4-6.5-33.7,8.5-38.7c6.4-2.1,10.3,2.6,5.6,6.6c-2.6,2.2-6.8,3-5,7.3
				C626.1,179.5,613.4,174.1,615.6,187.4z"/>
		</g>
	</g>
	<g>
		<g>
			<g>
				<path class="st31" d="M667.7,207.2c1.7-2.2,1.8-5.5,0.3-8.3c-1.2-2.1-2.7-3.8-4.2-5.2c-2.8-2.8-4.3-4.4-3.5-7.9
					c1.3-5.8,8.4-9.1,14.4-8.8l0.2-4.4c-7.9-0.4-17.2,4.1-19,12.2c-1.4,6,2,9.4,4.7,12c1.4,1.4,2.6,2.6,3.5,4.1
					c0.6,1.3,0.7,2.7,0.1,3.6L667.7,207.2z"/>
			</g>
			<g>
				<path class="st32" d="M674.4,171l0.7-4.4c-3.7-0.6-7.2-2.6-9.5-5.6c-2.3-3-3.5-6.9-3.2-10.7l-4.4-0.4c-0.4,4.9,1.1,9.9,4,13.7
					C665.1,167.6,669.6,170.3,674.4,171z"/>
			</g>
			<g>
				<path class="st33" d="M666,173.8c3.2,0,6.2-1.1,8.5-3c0.1,0,0.3-0.1,0.5-0.2c0.6-0.2,1.6-0.5,2.3-1.3l-3.2-3.2h0.1
					c-0.1,0-0.4,0.1-0.5,0.2c-0.6,0.2-1.4,0.4-2.1,1.1c-2.1,1.7-5.1,2.3-8.1,1.7c-3.1-0.7-5.5-2.6-6.6-5.2l-4.1,1.8
					c1.7,3.8,5.3,6.8,9.7,7.8C663.7,173.6,664.8,173.8,666,173.8z"/>
			</g>
		</g>
		<g>
			<path class="st34" d="M666.7,190.3c1.4,9.4,12.2,15.1,22.4,7.7c0.9-0.6,1.8-1.4,2.5-2.2c3.3-3.4,5.6-8.1,6.8-13.4l0,0
				c1.2-5.9,0.8-12.5-1.8-18.7c-0.3-0.7-0.7-1.6-1.2-2.4c0,0,0,0,0-0.1c-0.2-0.3-0.3-0.6-0.5-0.8l0,0c-0.3-0.5-0.6-0.9-0.9-1.5
				c-3.9-5.7-10.4-11-17.3-11.2c-0.2,0-0.5,0-0.7,0c-0.1,0-0.2,0-0.3,0c-1.3,0.1-2.4,0.3-3.5,0.7c-7.9,2.8-10.3,13.7-1.1,18.4
				c-3.3,3.8-2.2,10.4,1.9,13.3c0.3,0.2,0.7,0.4,1.1,0.6c-0.4-0.2-0.8-0.3-1.3-0.3C669.2,180,665.9,184.6,666.7,190.3z"/>
			<path class="st35" d="M672.6,180.2c-0.8,1.7-1.2,3.9-0.8,6.2c0.8,5.4,6,11.5,11.9,11.1c5.7-0.4,11.7-8.4,13.8-13.3
				c0.3-0.6,0.5-1.3,0.7-1.9l0,0c1.2-5.9,0.8-12.5-1.8-18.7c-0.3-0.7-0.7-1.6-1.2-2.4c0,0,0,0,0-0.1c-0.2-0.3-0.3-0.6-0.5-0.8l0,0
				c-0.3-0.5-0.6-0.9-0.9-1.5c-3.9-5.7-10.2-11-17.3-11.2c-0.2,0-0.5,0-0.7,0c-0.1,0-0.2,0-0.3,0c-1.3,0.1-2.4,0.3-3.5,0.7
				c-3.3,4.5-2.7,11.2,4.1,14.5c-3.6,4.1-2,11.6,3,13.9c-2.2-1.1-4.7,0.4-6.2,3.2C672.7,180,672.6,180.1,672.6,180.2z"/>
			<path class="st36" d="M687.6,182.5c-0.2,1.5-0.6,2.8-1.2,4.1c-0.4,1.1-1.1,2.1-1.2,3.3c-0.1,1.2,0.5,2.5,1.7,2.7s2.3-0.7,3.1-1.7
				c8.7-11.4,6.5-33.7-8.5-38.7c-6.4-2.1-10.3,2.6-5.6,6.6c2.6,2.2,6.8,3,5,7.3C677.1,174.7,689.8,169.1,687.6,182.5z"/>
		</g>
	</g>
</g>
<g id="_x35_">
	<path class="st34" d="M674.7,33.1c-0.5-0.1-1-0.3-1.5-0.4c-0.2,0-2.7-0.5-2.8-0.4c-0.4,0-0.8,0-1.3,0c-0.1,0-0.3,0-0.4,0
		c-1.5,0.1-2.7,0.5-3.8,1.1c-0.2,0.1-0.3,0.2-0.5,0.2l0,0c-1.1,0.5-2,1.3-2.8,1.9c-0.1,0.1-0.2,0.2-0.4,0.3c0,0-0.1,0-0.1,0.1
		c-2.1,1.6-3.5,2.3-5.1-0.8c-1.6-3.3-1.2-7.6,0.5-10.9l-7.5-1.8c0,0.1,0,0.3-0.1,0.4c-0.3,1.9-0.7,4.5-1.1,7.4
		c-0.3,3.8-0.2,7.8,1.5,10.3c5,7.8,4.9,14,2.6,18.7c-2.2,8.7-10,10.6-10,10.6s-0.4-0.5-1.4-1.3c-0.7,0.2-1.4,0.3-1.9,0.4
		c-3.6,0.4-7.2,0-10.8,0.5c-3.7,0.5-5.9,1.9-7.4,3.9c-2.2,3.2-2.4,7.7-3.1,12.3l5.8,1.4c-0.2-3.1,0.4-6.5,1.9-8.8
		c1.4-2.1,3.5-2.5,5.7-2.1c2.1,0.4,4.3,1.8,6,3.3c8,7.2,11.9,14.9,24.4,13c5.9-0.9,10.8-4.1,14.6-8.7c1.1-1.3,2.2-2.7,3.2-4.3
		C688.9,64.3,691.5,38.6,674.7,33.1z"/>
	<path class="st35" d="M679,62.5c-3.5,8.5-10.7,16.3-20.1,18.2c-4.9,0.9-9.8,0-14.2-2.3c-3.8-2-7.3-5.1-11.5-5.9
		c-4.3-0.8-8.1,1.5-10.9,4.6c-2.5,2.5-3.3,5.9-3.6,9.3l-2.4-0.5c0.1-3.9,1.1-8,3-11.5c2.2-4,5.6-7.1,10.1-8
		c5.1-0.9,8.8,0.8,10.8,2.2c0.1,0.1,0.2,0.1,0.3,0.2c0.9,0.7,1.4,1.3,1.4,1.3s7.9-2,10-10.6c1.2-4.3,1.3-12.2-4.1-19.5
		c-0.4-0.5-0.7-1.2-1-1.8c-1.9-4.4-0.4-10.9,2.1-15.2c0.1-0.1,0-0.3,0.1-0.4l4.9,1.2c-0.2-0.1-1.1,3.1-1.2,3.4
		c-1.2,5.1,1.5,9.5,2.4,10.2c2.1,1.6,3.8,0.3,5.9-1.3c0,0,0.1,0,0.1-0.1c0.1-0.1,0.2-0.2,0.4-0.3c0.1-0.1,0.2-0.2,0.3-0.2
		c0.7-0.5,1.6-1.2,2.5-1.6l0,0c0.2-0.1,0.3-0.2,0.5-0.2c1.2-0.5,2.5-0.9,3.8-1.1c0.1,0,0.3,0,0.4,0c2-0.2,4,0.1,5.6,0.8h0.1
		C682.4,41.3,683.1,52.7,679,62.5z"/>
	<path class="st36" d="M672.9,40.5c7.7,4.9,3.5,21.3-0.7,27.2c-6.8,9.7-19.3,13.5-29.3,6.4c6.1-1.4,11.1-6.1,13.2-11.9
		c3-8.2-3.1-21.4,9.9-23.1C668.8,38.8,671.1,39.4,672.9,40.5z"/>
	<path class="st37" d="M678.9,79.9c-1,1.6-2,3.1-3.2,4.3c-3.8,4.5-8.8,7.7-14.6,8.7c-12.5,1.9-16.4-5.8-24.4-13
		c-1.6-1.5-3.8-2.7-6-3.3c1.6-0.5,3.4-0.5,5-0.1c3.4,0.9,6,3.4,9,5.2c6.9,4.3,15.4,5.6,23.2,3.6C672,84.2,675.8,82.3,678.9,79.9z"/>
	<path class="st36" d="M647,35.5c0,0.6-0.1,1.6-0.1,2.6c-1.9-4.4-0.4-10.9,2.1-15.2c0-0.1,0-0.3,0.1-0.4l2.6,0.6
		c-1.1,1.8-2.5,3.7-2.8,4.5s-0.6,1.8-0.8,2.6C647.4,32,647.2,33.7,647,35.5z"/>
	<path class="st36" d="M640.3,68.5c-0.2,0.1-0.4,0.1-0.6,0.1c-1.6,0.2-3.1-0.1-4.6-0.3c-3.6-0.3-7.3,0.4-10.6,2.1
		c-1,0.4-1.8,1.1-2.6,1.6c-0.8,0.6-1.7,1.4-2.5,2.1c2.2-4,5.6-7.1,10.1-8C634.6,65.2,638.3,67.1,640.3,68.5z"/>
</g>
<g>
	<path class="st38" d="M561.5,45c-17.2-22-35.9-4.3-35.9-4.3L539,55.1c0,0,4.5,15.9,18.8,26.1c0,0,0.2,0.9,0.4,2.4l-68.7-6.5
		c0,0,8.2,13.4-15.8,39.7c-24.7,27-20.7,60.6-20.7,60.6l112.5,5.8l1.1-80.5c0-0.1,0.1-0.1,0.1-0.2C572.5,92.1,578.6,66.9,561.5,45z"
		/>
	<g>
		<path class="st39" d="M585.5,216c0,0,24.7,86.8,23,190c0,0-10,4.1-20.8-0.7c0,0-9.1-94.9-32.2-147.3c-5.3-11.2-3.8-26.1-0.7-34.4
			C581.4,183,585.5,216,585.5,216z"/>
		<g>
			<path class="st39" d="M601.4,423.8c0,0-5.9,11.1-7,12.1c-1.1,1.1-8.5,3.9-9.2,5.7c-0.6,1.8,1.7,4,7.3,2.1c5.5-2,7.1-2.5,8.1-3.6
				c1.1-1.1,7.5-12.7,7.5-12.7L601.4,423.8z"/>
			<path class="st39" d="M603.2,426.6c0,0-5.1,13.7-6.1,15.1c-1.1,1.4-9.3,5.6-9.7,7.9c-0.5,2.2,2.6,4.4,8.8,1.5
				c6.1-3,7.8-3.9,8.9-5.2c1.1-1.4,6.6-15.6,6.6-15.6L603.2,426.6z"/>
			<path class="st39" d="M608.5,405.4c0,0,5.4,16.1,6.1,21c0.7,4.9-9,23.3-10.3,28.9c-2.1,5.7-7.3,4.5-6-3.3
				c1.2-8.4,5.2-22.2,5.3-23.4c0.1-1.2-6.6-8-7.6-8.3c-0.9-0.4-5.4,5.6-5.7,6.8c-0.3,1.2,2.5,9.1-2.8,12.9
				c-5.3,3.8-7.6-13.2-6.9-16.4c0.7-3.2,2-14.5,8.9-20.5l16,0.1L608.5,405.4z"/>
		</g>
		<path class="st40" d="M614.3,402.9c0,0-15.8,7.1-26.6,2.2c0,0-9.1-94.9-32.2-147.3c-5.3-11.2-3.8-26.1-0.7-34.4
			c7.8-11.8,21-27.8,21-27.8S612.7,235.1,614.3,402.9z"/>
		<path class="st41" d="M610.3,404.4c0,0-11.8,5.6-22.6,0.7c0,0-9.1-94.9-32.2-147.3c-5.3-11.2-3.8-26.1-0.7-34.4
			c7.8-11.8,21-27.8,21-27.8s17.8,14.1,19.4,62.5C596.5,301.7,608,394.1,610.3,404.4z"/>
	</g>
	<path class="st39" d="M511.5,154.8c-43.9,12.5-65.1,28.7-65.1,28.7l40.5,79.4c0,0,6.6,31.6-1.6,46.8
		c-29.6,25.6-23.2,53.7-23.2,53.7c20.4,13.8,81.8,6.1,81.8,6.1s21.2-6.2,36.2-25.8c0,0-6.6-39.7-1.8-61.7
		c9.8-31.1,12.8-53.2,5.2-75.7C574.8,191.2,552,155.4,511.5,154.8z"/>
	<g>
		<path class="st39" d="M536,332.4l0.9,14.6l0.3,5.2l0.3,5.3l11.3,178.9l10.3,135.6l0.8,10.3c0,0-0.9,19-1.9,22
			c-5,8.4,1.7,23.7,2.3,30.8c0.5,7.5,44.1,15.6,45.3,2.7c-2.6-9.4-19.9-34.8-20.7-39.3c-0.7-4.3-1.1-18.8-1.1-18.8l3.8-114.1
			l0.9-29.7l8.5-176.8v-0.6L587.1,329l-19.1,1.1l-8.3,0.4L536,332.4z"/>
		<path class="st42" d="M598.5,720.7c0,0-0.8,9.5-14.8,9.2c-13.9-0.3-22.1-11.3-22.1-11.3s-2.3-11.6-2.8-12.5
			c-0.5-0.8-0.6-13.2-0.6-13.2s-4.9,15.3-3,22.4c0,0,3.6,17.9,6.4,22.8c2.7,4.9,17.3,9,30.7,9S613.7,738.1,598.5,720.7z"/>
		<path class="st39" d="M459.9,668.2l-1.2,10.3c0,0-4.4,18.5-5.9,21.2c-6.4,7.4-2.7,23.6-3.4,30.7c-0.8,7.5,40.4,23.5,44,11.1
			c-0.8-9.7-13.1-38-13.1-42.4s3.1-18.4,2.4-18.7l31.3-140.4L540,398.5l11-62.1L494.6,307c0,0-15.8,14.4-17.4,33
			c-4,52.8-2.2,192.8-2.2,192.8L459.9,668.2z"/>
		<path class="st43" d="M474.4,497l45.8,7.8c0,0-6.8,38.2-10.4,54.5c-5.5,26.8-23.7,106.9-23.7,106.9l23.2-153.8L474.4,497z"/>
		<path class="st43" d="M590.4,502.8l-4.9,131.1l-1.7,48L581,512.1l-33.7-5.2C567.7,506.7,589.9,503.4,590.4,502.8z"/>
		<path class="st42" d="M489.3,726.2c0,0-2.8,9.1-16.4,5.8c-13.5-3.3-19.2-15.7-19.2-15.7s0.2-11.8-0.1-12.8
			c-0.3-0.9,2.1-13.1,2.1-13.1s-8,13.9-7.7,21.2c0,0-0.3,18.4,1.4,23.6c1.7,5.3,15,12.5,28.1,15.4
			C490.7,753.4,500.5,746.3,489.3,726.2z"/>
	</g>
	<path class="st42" d="M485.9,321.1c0,0-19.9,32.5-23.5,74c-3.6,41.5-9.5,139-9.5,139s92.4,18,154.9,3.1l-9.9-172.6L485.9,321.1z"/>
	<polygon class="st39" points="500.3,124 489.5,166.8 537.2,168.1 537.3,139.7 523.8,121.2 	"/>
	<path class="st44" d="M502.7,132c0.2,0.8,2,15.8,18.2,20.7c6.1,1.8,12.3,2.4,16.5,2.2l0.1-15.2l0,0
		C537.3,139.7,519.7,142.6,502.7,132z"/>
	<path class="st45" d="M589.9,555.5"/>
	<path class="st46" d="M456.2,352.5c0,0,14.7,9,38.6,16.1l0,0c7.1,2.1,15,4.1,23.6,5.6c1.6,0.3,3.2,0.5,4.7,0.8
		c27.7,5,48.3-0.5,55.6-3c1.9-0.6,3-1.1,3-1.1c2.5-9.7,2.2-25.1,1.4-40.6c-1.1-19.9-3.1-40.2-1.3-49.3c3.1-16.3,16.8-33.7,12.3-56.6
		c-3-16.6-22.6-45.9-22.6-45.9c-10.9-8.4-27.2-14.7-27.2-14.7s0.5,15.2,2.3,24.5c1.9,9.5-18,12.6-29.3,3.3
		c-14.4-11.8-28-30.2-28-30.2s-38.7,14.6-43.7,20.2c-7.8,5.8,19.9,41.3,19.9,41.3s3,5.5,10.4,19.7c9.2,17.4,17.7,51.3,6.6,64.9
		C471.6,321.1,456.2,352.5,456.2,352.5z"/>
	<path class="st40" d="M577.8,512.5l40-11.6c0,0-33.7-232.2-30-234.3c3.6-2.1,11.7-30.6,9.9-40.6s-23.7-46.2-28-50.1
		s-32.3-16.7-32.3-16.7l0,0c0.6,1.7,21.5,55.3,25.8,82.6c1.1,6.9,1.2,19.1,0.8,33.9C563,321.1,577.8,512.5,577.8,512.5z"/>
	<path class="st47" d="M563.4,241.9c1.1,6.9,1.2,19.1,0.8,33.9l0.7,2.3l7.3-82.1l-16.4-6.9l7-8.2l-25.2-21.7
		C538.2,161,559.1,214.7,563.4,241.9z"/>
	<path class="st40" d="M533.1,512.5l-92.1-9.7c0,0,15.9-173.7,12.9-190.5c-0.8-4.4-3.2-13.6-5.8-25c-7.6-31.7-18.4-80.7-9.4-96.1
		c5.7-20.9,53.7-35.5,53.7-35.5s35.8,58.8,41,86.2c1.5,8,4.1,24,7.1,42.3l0,0C547.5,328.9,533.1,512.5,533.1,512.5z"/>
	<path class="st48" d="M440.8,502.8c0,0,15.9-173.7,12.9-190.5c-0.8-4.4-3.2-13.6-5.8-25l22.3-19.7c0,0,5.1,66.1,1.2,129.6
		c-5.9,97,15.8,97.4,45.7,113.7L440.8,502.8z"/>
	<path class="st47" d="M503.3,186.7l-13.8,14.7l50.9,83c-3-18.4-5.6-34.2-7.1-42.3c-5.1-27.5-41-86.3-41-86.3L482,177L503.3,186.7z"
		/>
	<g>
		<polygon class="st49" points="417.8,364.1 414.2,446.7 516.5,453.1 520.2,449 523.7,368.7 		"/>
		<polygon class="st50" points="416,364.1 412.4,446.7 516.7,450.2 518.5,448.4 521.9,368.7 		"/>
		
			<rect x="424.1" y="356.5" transform="matrix(4.325544e-02 -0.9991 0.9991 4.325544e-02 36.1966 856.7942)" class="st51" width="82.6" height="106.1"/>
		<path class="st24" d="M510.8,405.8c0,6.5-5.3,11.8-11.8,11.8s-11.8-5.3-11.8-11.8S492.4,394,499,394
			C505.4,394,510.8,399.3,510.8,405.8z"/>
		<path class="st39" d="M477.2,455.8c0.6-3.7-9.1-30.6-9.1-30.6c6,2.2,14,3.8,13.7-0.6c-0.3-4.1-20.8-14.2-24.3-15.4
			c-0.9,0.5-20.8,3.1-20.8,3.1c-1.5,16.4,1.3,29.9,9.1,37.2c3.5,4.3,21.1,4.2,21.1,4.2C469.5,458.8,476.6,459.5,477.2,455.8z"/>
		<path class="st39" d="M436.4,203.5c0,0-15.4,97.5,0,209.3c0,0,11.4,3.2,22.5-3.6c0,0-2.6-104.2,15.6-164.2
			c4.2-12.9,0.7-28.8-3.7-37.5C436.5,167.2,436.4,203.5,436.4,203.5z"/>
		<path class="st40" d="M476,242.8c-18.3,60.1-11.6,164.3-11.6,164.3c-3,1.8-6.8,3.1-10.9,4c-11.2,2.6-24,2.4-24,2.4
			c-15.3-111.8,6.5-220.1,6.5-220.1s9.1-28.3,35.3,3.9c2.3,4.6,4.7,13.4,5.8,22.6C478.1,228.3,478,236.7,476,242.8z"/>
		<path class="st41" d="M476,242.8c-18.3,60.1-11.6,164.3-11.6,164.3c-3,1.8-6.8,3.1-10.9,4c-0.7-105.9,3.9-118,11.9-158.9
			c2.6-13.5,8.4-13.9,9.1-38.2c1.1,2.1,1.9,4,2.6,6C479.2,226.5,479.2,232.9,476,242.8z"/>
		<polygon class="st52" points="505.4,404 501.2,403.8 501.3,399.5 497.1,399.4 496.9,403.6 492.6,403.4 492.4,407.7 496.7,407.8 
			496.5,412.2 500.8,412.4 501,408.1 505.2,408.3 		"/>
	</g>
	<g>
		<path class="st39" d="M483.2,97.5c4.4,30.8,24.9,53.5,45.7,50.5c20.8-3,34.1-30.4,29.7-61.3c-4.4-30.8-24.9-53.5-45.7-50.5
			C492.1,39.2,478.8,66.6,483.2,97.5z"/>
		<g>
			<g>
				<g>
					<path class="st53" d="M550.9,107.3c0.1,0.6,1.7,0.9,3.7,0.6c1.9-0.3,3.4-1.1,3.3-1.7c-0.1-0.6-1.7-0.9-3.7-0.6
						C552.3,106,550.8,106.7,550.9,107.3z"/>
					<path class="st53" d="M550.6,111.1c0.1-0.6,1.7-0.9,3.7-0.6c1.9,0.2,3.4,0.9,3.4,1.6c-0.1,0.6-1.7,0.9-3.7,0.6
						C552,112.5,550.5,111.8,550.6,111.1z"/>
				</g>
				<g>
					<path class="st53" d="M501.7,111.6c-0.1-0.6-1.7-0.9-3.7-0.6c-1.9,0.3-3.4,1.1-3.3,1.7c0.1,0.6,1.7,0.9,3.7,0.6
						C500.3,112.9,501.8,112.2,501.7,111.6z"/>
					<path class="st53" d="M502,107.7c-0.1,0.6-1.7,0.9-3.7,0.6c-1.9-0.2-3.4-0.9-3.4-1.6c0.1-0.6,1.7-0.9,3.7-0.6
						C500.7,106.4,502.1,107,502,107.7z"/>
				</g>
			</g>
			<g>
				<g>
					<path class="st53" d="M530.7,117.8c0.1,0,0.2,0,0.2,0c0.9-0.2,3.3-1.2,3-7.2c-0.4-9.8-2.4-15.1-2.5-15.3
						c-0.1-0.3-0.5-0.5-0.8-0.4c-0.3,0.1-0.5,0.5-0.4,0.8c0,0,2,5.3,2.4,14.9c0.2,4-0.8,5.7-1.9,5.8c-1.5,0.3-4-2.1-5.4-6.4
						c-0.1-0.3-0.5-0.5-0.8-0.4c-0.3,0.1-0.5,0.5-0.4,0.8C525.5,114.9,528.2,118,530.7,117.8z"/>
				</g>
				<g>
					<path class="st53" d="M527.3,127.4c8.3-0.7,12.9-7.5,13-7.8c0.2-0.2,0.1-0.6-0.2-0.7c-0.2-0.2-0.6-0.1-0.7,0.2
						c0,0.1-4.4,6.6-12.1,7.3c-7.8,0.6-12-5.2-12-5.2c-0.2-0.2-0.5-0.3-0.7-0.1c-0.2,0.2-0.3,0.5-0.1,0.7
						C514.4,122,518.8,128.1,527.3,127.4z"/>
				</g>
				<g>
					<g>
						<path class="st38" d="M507,81.5c2.4-0.9,5.3-0.7,8.5,0.4c1.2,0.4,2.4-0.1,2.8-1.1c0.4-1.1-0.1-2.2-1.3-2.6
							c-4.3-1.6-8.4-1.8-11.9-0.4c-5.6,2.2-7.8,9.7-6.6,10.1C498.8,88,503.1,83,507,81.5z"/>
					</g>
				</g>
				<g>
					<g>
						<path class="st38" d="M548,81.8c-2.3-0.6-4.9-0.1-7.6,1.4c-0.9,0.5-2.2,0.2-2.7-0.7c-0.5-0.9-0.2-2.2,0.7-2.7
							c3.7-2.1,7.3-2.7,10.7-1.8c5.4,1.5,8.3,8.7,7.4,9.2C556.2,87.4,551.6,82.9,548,81.8z"/>
					</g>
				</g>
			</g>
			<path class="st42" d="M539.4,97.8c-0.3-4.2,1.1-7.4,2.4-7.6l6.9,0.2c0,0-1.2,1.4-5,1.7c0.5,1.4,0.6,2.7,0.7,5
				c0.3,4.2-0.6,7.8-2,8C541,105.3,539.6,102.1,539.4,97.8z"/>
			<path class="st42" d="M509.7,97.6c0-2.1,0.3-4,0.8-5.4c-4.3-0.1-5.5-1.7-5.5-1.7l7.4-0.5c1.5-0.1,2.7,3.2,2.7,7.3
				c0,4.1-1.3,7.5-2.7,7.6C510.9,105,509.7,101.8,509.7,97.6z"/>
		</g>
		<g>
			<g>
				<path class="st42" d="M545.4,110.9c-10,0-13.2-14.1-13.4-21.6v-1.1l0.8-0.3c15.1-5,28,0.1,28.5,0.4l0.9,0.4l-0.2,1.2
					c-0.1,0.8-3.8,18.8-14.6,20.9C546.8,110.8,546.2,110.9,545.4,110.9z M534.3,90.2c0.3,4,2,18.2,11.1,18.2
					c9.1,0,13.2-13.7,14.2-17.8C556.5,89.4,546.1,86.6,534.3,90.2z"/>
			</g>
			<g>
				<path class="st42" d="M511.6,112c-13.2-0.3-17.2-22-17.3-22.9l-0.2-1.2l0.9-0.3c0.5-0.2,14.4-5.4,30.4,0.3l0.8,0.3v1.1
					c-0.3,7.4-3.4,20.9-12.5,22.6C513.2,112,512.5,112.1,511.6,112z M496.8,89.8c0.9,4.3,5.2,19.4,15,19.6
					c9.8,0.2,11.8-15.1,12.2-19.3C511.4,86,500.1,88.8,496.8,89.8z"/>
			</g>
			<g>
				<path class="st42" d="M533.1,96.4l1.7-1.7c-3.4-4.4-8.5-2.3-10.8-0.5l1.2,2.2C525.3,96.2,530.1,92.6,533.1,96.4z"/>
			</g>
			<g>
				<polygon class="st42" points="495.1,90.6 494.9,87.9 485.1,88.3 485.4,91 				"/>
			</g>
		</g>
		<path class="st38" d="M482.4,37.3c17.7-35.5,88.2-13,89.4,32.2l-5.9,9C565.9,78.3,494.8,76.2,482.4,37.3z"/>
		<path class="st38" d="M459.5,152.1c6.1-1.3,26.1-7.7,30.1-21c4-13.3,0.8-41.3,0.8-41.3c-0.9-25.9,21.4-32.5,21.4-32.5
			c4.5-15.6-5.2-34.4-28.6-21.5c-20.8,11.4-27.9,21.5-22.4,54c1.9,11.3,4.3,26.7,1.8,44.9C460.9,141.6,459.6,147.3,459.5,152.1z"/>
	</g>
</g>
</svg>
