<?xml version="1.0" encoding="utf-8"?>
<!-- Generator: Adobe Illustrator 25.1.0, SVG Export Plug-In . SVG Version: 6.00 Build 0)  -->
<svg version="1.1" id="VIROLOGY" xmlns="http://www.w3.org/2000/svg" xmlns:xlink="http://www.w3.org/1999/xlink" x="0px" y="0px"
	 viewBox="0 0 300 265" style="enable-background:new 0 0 300 265;" xml:space="preserve">
<style type="text/css">
	.st0{opacity:0.4;fill:#1E5575;enable-background:new    ;}
	.st1{opacity:0.4;}
	.st2{fill:#1E5575;}
	.st3{opacity:0.3;}
	.st4{opacity:0.3;fill:#1E5575;enable-background:new    ;}
	.st5{opacity:0.2;fill:#1E5575;enable-background:new    ;}
	.st6{fill:#ACE9CA;}
	.st7{fill:#6ACE98;}
	.st8{fill:#858585;}
	.st9{fill:#C2F8DC;}
	.st10{opacity:0.3;fill:#FFFFFF;enable-background:new    ;}
	.st11{fill:#DFDFDF;}
	.st12{fill:#FFAF7F;}
	.st13{fill:#4C1808;}
	.st14{fill:#4A474C;}
	.st15{opacity:0.3;fill:#4A474C;enable-background:new    ;}
	.st16{fill:#60100E;}
	.st17{fill:#E58240;}
	.st18{opacity:0.8;fill:#349AF7;enable-background:new    ;}
	.st19{opacity:0.4;fill:#ADC8E0;enable-background:new    ;}
	.st20{opacity:0.15;enable-background:new    ;}
	.st21{opacity:0.2;enable-background:new    ;}
	.st22{fill:#EBEBEB;}
	.st23{opacity:0.2;}
	.st24{fill:#FFFFFF;}
	.st25{fill:#303030;}
	.st26{fill:#FFA901;}
	.st27{opacity:0.2;fill:#FFFFFF;enable-background:new    ;}
	.st28{fill:#B6B6B6;}
	.st29{fill:#A2A2A2;}
	.st30{fill:#999999;}
	.st31{fill:#803E0A;}
	.st32{fill:#A04E0C;}
	.st33{fill:#FFA77F;}
	.st34{fill:#DD8040;}
	.st35{fill:url(#SVGID_1_);}
	.st36{fill:#9FCCE3;}
	.st37{opacity:0.7;fill:#DFDFDF;enable-background:new    ;}
	.st38{fill:#474747;}
	.st39{fill:#202020;}
	.st40{fill:#F7C23E;}
	.st41{fill:#F4D158;}
	.st42{fill:#43352A;}
	.st43{fill:#FFDED4;}
	.st44{fill:#2E2E2E;}
	.st45{fill:#404040;}
	.st46{fill:#3D3D3D;}
	.st47{fill:#212121;}
	.st48{fill:#EFCD17;}
	.st49{opacity:0.5;fill:#EFCD17;enable-background:new    ;}
	.st50{opacity:0.8;fill:#EFCD17;enable-background:new    ;}
	.st51{fill:#82B4E6;}
	.st52{fill:#349AF7;}
	.st53{fill:#4234BC;}
	.st54{fill:#30302E;}
	.st55{fill:#A6DAF0;}
	.st56{fill:#74BAD7;}
	.st57{fill:#1A2E35;}
</style>
<g>
	<path class="st0" d="M283.9,190.5c4.2-3.1-2.2-5.2-3.3-7.2c-0.2-0.4-0.4-0.9-0.4-1.3c-0.3-1.5,0.1-3.2-0.9-4.5
		c-0.2-0.3-0.5-0.6-0.9-0.9l0,0c0.1-1.4-0.1-2.7,0.4-4c0.3-0.7,0.3-1.5,0.3-2.3c-0.1-0.7-0.2-1.5,0.1-2.2c-0.3,0.7-0.3,1.5-0.3,2.2
		c0,0.8-0.1,1.5-0.4,2.1c-0.3,0.7-0.5,1.5-0.5,2.2c-0.1,0.5-0.1,1-0.2,1.5c-0.2-0.1-0.5-0.2-0.7-0.2c-0.1-0.4-0.3-0.9-0.4-1.3
		c-0.2-0.7-0.3-1.4-0.5-2.1c-0.2-0.7-0.6-1.3-0.9-1.9c-0.3-0.6-0.6-1.3-0.6-2c-0.1,0.7,0.2,1.4,0.4,2.1c0.3,0.7,0.6,1.3,0.7,2
		c0.1,0.7,0.2,1.4,0.3,2.1c0.1,0.4,0.1,0.8,0.2,1.2c-0.3,0-0.7,0.1-0.9,0.3l0,0c-1.1-2.2-2.4-4.4-3.4-6.6c0.9,2.4,2,4.6,2.9,7
		c-0.3,0.3-0.6,0.8-0.7,1.4c-0.5,2.7,0.4,7.7,2,9.9C277.7,189.9,281.6,192.1,283.9,190.5z M277.3,185.9c-0.7-0.9-1-2.9-0.8-4
		c0.2-1.1,1.4-1.1,2-0.3c0.4,0.5,0.2,1.2,0.3,1.8c0,0.2,0.1,0.4,0.2,0.5c0.5,0.8,3,1.7,1.3,2.9C279.4,187.6,277.8,186.7,277.3,185.9
		z"/>
	<g class="st1">
		<path class="st2" d="M210,108.2c-0.8-0.8-1.2-1.9-1.1-3c0.1-2.2,1.9-3.8,4-3.7c2,0.1,3.7,2.1,3.6,4.1c-0.1,2.2-1.9,3.8-4,3.7
			C211.5,109.3,210.7,108.9,210,108.2z M214,104.1c-0.3-0.3-0.7-0.5-1.2-0.5c-1-0.1-1.8,0.7-1.9,1.8c-0.1,1,0.7,1.9,1.7,2
			c1,0.1,1.8-0.7,1.9-1.8C214.5,105,214.3,104.5,214,104.1z"/>
		<path class="st2" d="M205.3,104.6c-0.8-0.8-1.1-1.8-1.1-2.9c0.1-2.1,1.9-3.7,3.9-3.6c2,0.1,3.6,2,3.5,4.1
			c-0.1,2.1-1.9,3.7-3.9,3.6C206.8,105.7,205.9,105.3,205.3,104.6z M209.2,100.6c-0.3-0.3-0.7-0.5-1.1-0.5c-1-0.1-1.8,0.7-1.8,1.7
			c0,0.9,0.7,1.8,1.6,1.9c0.9,0,1.8-0.7,1.8-1.7C209.7,101.5,209.5,101,209.2,100.6z"/>
		<path class="st2" d="M209.6,100.8c-0.9-1-1.5-2.3-1.4-3.7c0.2-2.7,2.4-4.7,5-4.6c2.5,0.2,4.6,2.6,4.4,5.2
			c-0.1,1.3-0.6,2.5-1.6,3.4c-0.9,0.9-2.1,1.3-3.4,1.2C211.5,102.1,210.4,101.6,209.6,100.8z M214.8,95.3c-0.5-0.5-1.1-0.8-1.8-0.8
			c-1.5-0.1-2.8,1.1-2.9,2.7c-0.1,1.5,1.1,2.9,2.6,3c0.7,0,1.4-0.2,2-0.7c0.5-0.5,0.9-1.2,0.9-2C215.7,96.7,215.4,95.9,214.8,95.3z"
			/>
	</g>
	<g class="st3">
		<path class="st2" d="M51.8,212.8l-0.5,0.4c-0.9,0.7-2.2,0.6-2.9-0.4l-2.2-2.9c-0.7-0.9-0.5-2.3,0.4-3l0.5-0.4
			c0.9-0.7,2.2-0.6,2.9,0.4l2.2,2.9C52.8,210.8,52.7,212.1,51.8,212.8z"/>
		<path class="st2" d="M47.1,206.6l-0.5,0.4c-0.9,0.7-2.2,0.6-2.9-0.4l-2.2-2.9c-0.7-0.9-0.5-2.3,0.3-3l0.5-0.4
			c0.9-0.7,2.2-0.6,2.9,0.4l2.2,2.9C48.1,204.6,48,205.9,47.1,206.6z"/>
		<path class="st2" d="M42.5,200.5l-0.4,0.6c-0.7,0.9-2,1.1-2.9,0.4l-2.8-2.2c-0.9-0.7-1.1-2.1-0.4-3l0.4-0.6c0.7-0.9,2-1.1,2.9-0.4
			l2.8,2.2C43,198.2,43.2,199.6,42.5,200.5z"/>
		<path class="st2" d="M54.8,220l-0.6,0.3c-1,0.5-2.2,0-2.7-1.1l-1.4-3.3c-0.5-1.1,0-2.3,1-2.8l0.6-0.3c1-0.5,2.3,0,2.7,1.1l1.4,3.3
			C56.3,218.2,55.8,219.5,54.8,220z"/>
	</g>
	<g class="st3">
		<path class="st2" d="M285.5,114.9l-0.4,0.5c-0.7,0.9-2,1-2.9,0.3l-2.7-2.3c-0.9-0.8-1-2.1-0.3-3l0.4-0.5c0.7-0.9,2-1,2.9-0.3
			l2.7,2.3C286.2,112.6,286.3,114,285.5,114.9z"/>
		<path class="st2" d="M279.7,109.8l-0.4,0.5c-0.7,0.9-2,1-2.9,0.3l-2.7-2.3c-0.9-0.8-1-2.1-0.3-3l0.4-0.5c0.7-0.9,2-1,2.9-0.3
			l2.7,2.3C280.3,107.6,280.4,108.9,279.7,109.8z"/>
		<path class="st2" d="M274,104.8l-0.3,0.6c-0.5,1.1-1.7,1.5-2.7,1l-3.2-1.6c-1-0.5-1.5-1.8-1-2.8l0.3-0.6c0.5-1.1,1.7-1.5,2.7-1
			l3.2,1.6C274,102.5,274.5,103.8,274,104.8z"/>
		<path class="st2" d="M289.9,121.2l-0.6,0.4c-0.9,0.7-2.2,0.5-2.9-0.5l-2.1-2.9c-0.7-1-0.5-2.3,0.4-3l0.6-0.4
			c0.9-0.7,2.2-0.5,2.9,0.5l2.1,2.9C291,119.2,290.9,120.5,289.9,121.2z"/>
	</g>
	<g class="st1">
		<path class="st2" d="M32.3,78.8l-0.1-0.7c-0.1-1.2,0.7-2.2,1.8-2.4l3.5-0.4c1.1-0.1,2.1,0.7,2.3,1.9l0.1,0.7
			c0.1,1.2-0.7,2.2-1.8,2.4l-3.5,0.4C33.4,80.8,32.4,80,32.3,78.8z"/>
		<path class="st2" d="M39.8,77.9l-0.1-0.7c-0.1-1.2,0.7-2.2,1.8-2.4l3.5-0.4c1.1-0.1,2.1,0.7,2.3,1.9l0.1,0.7
			c0.1,1.2-0.7,2.2-1.8,2.4l-3.5,0.4C41,79.9,40,79,39.8,77.9z"/>
		<path class="st2" d="M47.3,77L47,76.3c-0.4-1.1,0.1-2.3,1.2-2.7l3.3-1.3c1.1-0.4,2.3,0.1,2.7,1.2l0.3,0.7c0.4,1.1-0.1,2.3-1.2,2.8
			l-3.3,1.3C48.9,78.6,47.7,78.1,47.3,77z"/>
		<path class="st2" d="M24.8,77.8l0.1-0.7c0.2-1.2,1.2-2,2.3-1.8l3.5,0.4c1.1,0.1,1.9,1.2,1.8,2.4l-0.1,0.7c-0.1,1.2-1.2,2-2.3,1.8
			l-3.5-0.5C25.5,80,24.7,78.9,24.8,77.8z"/>
	</g>
	<path class="st4" d="M248.1,40.3c0.1-0.3,0.5-0.4,0.8-0.3c0.5,0.2,1.1,0.4,1.5,0.4c0.5,0.1,1,0.2,1.5,0.2c0.5,0,1,0,1.5,0
		c0.1,0,0.3,0,0.4,0c0-0.2,0.1-0.5,0.1-0.7c0-0.2,0.1-0.4,0.1-0.7c0.1-0.3,0.2-0.7,0.3-1c0.1-0.2,0.1-0.4,0.2-0.6c0,0,0-0.1,0-0.1
		c-0.3-0.3-0.6-0.5-0.9-0.7c-0.5-0.3-1-0.6-1.5-0.9c-0.5-0.3-1-0.5-1.5-0.7c-0.4-0.2-1-0.4-1.6-0.5c-0.1,0-0.2-0.1-0.3-0.1
		c-0.1-0.1-0.2-0.2-0.2-0.4s0-0.3,0.1-0.4c0.2-0.3,0.6-0.3,0.8-0.1c0.5,0.4,1,0.7,1.4,0.9c0.5,0.3,1,0.5,1.5,0.7
		c0.5,0.2,1.1,0.4,1.6,0.5c0.3,0.1,0.7,0.2,1.2,0.2c0,0,0,0,0,0c0.3-0.5,0.7-1,1.1-1.4c0.3-0.3,0.6-0.5,0.9-0.8
		c-0.2-0.4-0.5-0.8-0.8-1.3c-0.4-0.6-0.8-1.1-1.1-1.6c-0.5-0.6-0.9-1.1-1.3-1.5c-0.1,0-0.1-0.1-0.1-0.2c-0.1-0.3,0-0.7,0.3-0.8
		c0.1-0.1,0.3-0.1,0.4,0s0.3,0.2,0.3,0.3c0.2,0.5,0.5,1.1,0.9,1.8c0.3,0.5,0.7,1.1,1.1,1.7c0.3,0.4,0.6,0.8,0.9,1.2
		c0.7-0.4,1.4-0.8,2.2-1c0-0.3,0.1-0.6,0.1-0.8c0-0.6,0-1.2,0-1.8c0-0.6-0.1-1.2-0.2-1.8c-0.1-0.5-0.2-1.1-0.4-1.7
		c0-0.1,0-0.2,0-0.3c0-0.3,0.4-0.6,0.7-0.5c0.3,0.1,0.6,0.4,0.5,0.7c-0.1,0.7-0.1,1.3-0.1,1.8c0,0.6,0.1,1.2,0.2,1.8
		c0.1,0.6,0.2,1.2,0.4,1.7c0,0.2,0.1,0.4,0.2,0.6c1.3-0.2,2.6-0.1,3.8,0.2c0.1-0.4,0.2-0.8,0.2-1.2c0-0.4,0.1-1,0-1.7
		c0-0.3,0.1-0.6,0.3-0.8c0.4-0.5,1.1-0.5,1.5-0.1c0.2,0.2,0.3,0.5,0.4,0.8c0,0.3-0.1,0.6-0.3,0.8c-0.4,0.5-0.7,1-0.9,1.4
		c-0.2,0.3-0.3,0.7-0.5,1.1c0.3,0.1,0.7,0.3,1,0.4c0.1-0.1,0.2-0.3,0.4-0.4c0.3-0.4,0.7-0.8,1-1.3c0.3-0.5,0.6-0.9,0.8-1.4
		c0.2-0.4,0.4-0.9,0.6-1.5c0-0.1,0.1-0.2,0.2-0.3l0,0c0.1-0.1,0.3-0.2,0.4-0.2c0.2,0,0.3,0.1,0.4,0.2c0.2,0.2,0.2,0.6,0,0.9
		c-0.4,0.4-0.8,0.9-1,1.3c-0.3,0.4-0.6,0.9-0.8,1.4c-0.3,0.5-0.5,1-0.7,1.5c0,0.1-0.1,0.3-0.1,0.5c0.5,0.3,1,0.7,1.4,1.2
		c0.4,0.4,0.8,0.9,1.1,1.4c0,0,0,0.1,0.1,0.1c0.1,0.1,0.1,0.2,0.2,0.3c0.3-0.1,0.6-0.2,0.9-0.3c0.5-0.2,1-0.5,1.5-0.8
		c0.4-0.2,0.8-0.6,1.3-1c0,0,0.1-0.1,0.1-0.1c0.1-0.1,0.3-0.2,0.5-0.2c0.2,0,0.4,0,0.6,0.2s0.3,0.3,0.3,0.6c0,0.3-0.1,0.5-0.2,0.7
		c-0.1,0.1-0.3,0.2-0.5,0.2c-0.6,0.1-1.2,0.3-1.7,0.4c-0.5,0.2-1,0.4-1.6,0.7c-0.3,0.2-0.5,0.3-0.8,0.5c0.1,0.2,0.1,0.3,0.2,0.5
		c0,0.1,0,0.1,0.1,0.2c0.2,0.5,0.3,1.1,0.5,1.6c0,0.1,0,0.1,0,0.2c0,0.2,0.1,0.3,0.1,0.5c0.1,0,0.1,0,0.2,0c0.6,0.1,1.1,0.1,1.7,0.1
		c0.6,0,1.2-0.1,1.7-0.2c0.5-0.1,1.1-0.2,1.7-0.5c0.2-0.1,0.4-0.1,0.6,0c0.2,0.1,0.4,0.2,0.5,0.4c0.1,0.2,0.1,0.4,0.1,0.7
		c0,0.1-0.1,0.3-0.2,0.3c-0.2,0.2-0.5,0.3-0.8,0.2c-0.6-0.2-1.2-0.3-1.7-0.3c-0.6,0-1.1,0-1.7,0c-0.6,0-1.2,0.1-1.7,0.3
		c0,0-0.1,0-0.2,0c0,0,0,0,0,0.1c0,0.1,0,0.1,0,0.2c0,0.1,0,0.3,0,0.4c0,0.3-0.1,0.6-0.1,0.9c0,0.2,0,0.4-0.1,0.6
		c-0.1,0.4-0.2,0.7-0.3,1.1c-0.1,0.2-0.1,0.4-0.2,0.6c0,0,0,0.1,0,0.1c0.4,0.3,0.7,0.6,1.1,0.8c0.5,0.3,1,0.6,1.5,0.8
		c0.4,0.2,1,0.4,1.7,0.5c0.2,0,0.4,0.1,0.5,0.3c0.3,0.3,0.3,0.8,0,1.2c0,0,0,0,0,0c-0.2,0.2-0.4,0.2-0.6,0.2c-0.2,0-0.4-0.1-0.6-0.3
		c-0.4-0.5-0.9-0.9-1.3-1.2c-0.5-0.3-1-0.6-1.5-0.9c-0.4-0.2-0.8-0.4-1.3-0.6c0,0,0,0.1-0.1,0.1c-0.1,0.2-0.2,0.4-0.3,0.5
		c-0.3,0.5-0.7,1-1.2,1.5c-0.2,0.2-0.3,0.3-0.5,0.4c0.1,0.2,0.1,0.4,0.2,0.6c0.2,0.5,0.4,1,0.6,1.6c0.2,0.5,0.5,1,0.8,1.5
		c0.2,0.4,0.6,0.9,1,1.3c0.1,0.1,0.2,0.2,0.2,0.4c0,0.3,0,0.5-0.2,0.7c-0.1,0.1-0.2,0.2-0.4,0.2c-0.2,0-0.4,0-0.6-0.1
		c-0.2-0.1-0.3-0.3-0.3-0.5c-0.1-0.6-0.3-1.2-0.5-1.6c-0.2-0.5-0.4-1-0.7-1.5c-0.3-0.5-0.5-1-0.8-1.4c-0.1-0.1-0.1-0.2-0.2-0.3
		c-1,0.7-2.1,1.1-3.2,1.4c0,0.2,0,0.4-0.1,0.6c0,0.6,0,1.2,0,1.8c0.1,0.6,0.2,1.2,0.3,1.8c0.1,0.5,0.3,1.1,0.6,1.7
		c0.1,0.2,0.1,0.4,0.1,0.6c0,0.2-0.1,0.3-0.2,0.4c-0.2,0.2-0.5,0.3-0.8,0.2c-0.4-0.1-0.7-0.6-0.6-1c0.2-0.7,0.2-1.3,0.2-1.8
		c0-0.6-0.1-1.2-0.2-1.8c-0.1-0.6-0.2-1.2-0.4-1.7c-0.1-0.2-0.1-0.4-0.2-0.6c-0.9,0.1-1.8,0-2.7-0.2c-0.1,0.6-0.2,1.1-0.3,1.7
		c-0.1,0.7-0.1,1.3,0.1,2c0,0.3,0,0.7-0.3,1c-0.4,0.5-1.1,0.6-1.6,0.2c-0.5-0.4-0.6-1.2-0.2-1.7c0.4-0.5,0.8-1.1,1-1.7
		c0.2-0.5,0.4-1.1,0.6-1.6c-0.8-0.3-1.6-0.6-2.4-1.1c-0.2,0.2-0.4,0.3-0.5,0.5l-0.1,0.1c-0.4,0.4-0.7,0.8-1.1,1.3
		c-0.3,0.5-0.7,1-0.9,1.5c-0.2,0.4-0.5,1-0.7,1.7c0,0.1-0.1,0.3-0.2,0.4c0,0-0.1,0.1-0.1,0.1c-0.2,0.1-0.4,0.2-0.6,0.1
		c-0.2,0-0.4-0.2-0.5-0.4c-0.3-0.4-0.2-0.9,0.2-1.2c0.3-0.2,0.6-0.5,0.9-0.8c0.1-0.1,0.3-0.3,0.4-0.4c0.4-0.4,0.7-0.9,1-1.4
		c0.3-0.5,0.6-1,0.9-1.5c0.1-0.2,0.2-0.5,0.3-0.7c-0.1-0.1-0.3-0.2-0.4-0.4l0,0l0,0l0,0c-0.4-0.4-0.8-0.9-1.1-1.3
		c-0.1-0.1-0.1-0.2-0.2-0.3c0-0.1-0.1-0.1-0.1-0.2c-0.1-0.2-0.2-0.3-0.2-0.5c-0.6,0.1-1.1,0.3-1.6,0.6c-0.5,0.2-1.1,0.5-1.6,0.8
		c-0.4,0.3-0.9,0.6-1.4,1.1c-0.2,0.2-0.4,0.3-0.6,0.3c-0.5,0-0.9-0.4-0.9-0.9c0-0.5,0.4-1,0.9-1c0.7,0,1.3-0.2,1.8-0.3
		c0.5-0.2,1.1-0.3,1.6-0.6c0.5-0.2,1-0.5,1.5-0.8c0,0,0,0,0,0c-0.2-0.5-0.4-1.1-0.5-1.6c0-0.2,0-0.3-0.1-0.5c0-0.3-0.1-0.7-0.1-1
		c-0.2-0.1-0.3-0.1-0.5-0.2c-0.5-0.2-1-0.3-1.5-0.4c-0.5-0.1-1-0.2-1.5-0.2c-0.4,0-1,0-1.5,0c-0.1,0-0.2,0-0.3,0
		C248.1,41,248,40.6,248.1,40.3z"/>
	<path class="st0" d="M181.4,193.1c0.2-0.4,0.7-0.6,1.1-0.4c0.7,0.3,1.5,0.5,2,0.6c0.7,0.1,1.4,0.2,2.1,0.3c0.7,0,1.4,0,2.1,0
		c0.2,0,0.3,0,0.5-0.1c0-0.3,0.1-0.7,0.1-1c0-0.3,0.1-0.6,0.2-0.9c0.1-0.5,0.3-1,0.4-1.4c0.1-0.3,0.2-0.6,0.3-0.9c0,0,0-0.1,0-0.1
		c-0.4-0.4-0.8-0.7-1.2-0.9c-0.6-0.4-1.3-0.8-2-1.2c-0.7-0.4-1.4-0.7-2.1-1c-0.6-0.2-1.4-0.5-2.3-0.7c-0.1,0-0.3-0.1-0.4-0.2
		c-0.2-0.1-0.3-0.3-0.3-0.6c0-0.2,0-0.4,0.2-0.6c0.3-0.4,0.8-0.4,1.2-0.1c0.7,0.5,1.4,1,2,1.3c0.7,0.4,1.4,0.7,2.1,1
		c0.8,0.3,1.5,0.5,2.2,0.7c0.4,0.1,1,0.2,1.6,0.3c0,0,0,0,0.1-0.1c0.4-0.7,0.9-1.3,1.5-1.9c0.4-0.4,0.8-0.7,1.2-1
		c-0.3-0.6-0.7-1.2-1.1-1.8c-0.5-0.8-1-1.6-1.6-2.2c-0.7-0.9-1.2-1.5-1.7-2.1c-0.1-0.1-0.1-0.2-0.2-0.3c-0.2-0.4,0-0.9,0.4-1.1
		c0.2-0.1,0.4-0.1,0.6,0c0.2,0.1,0.4,0.2,0.5,0.4c0.3,0.7,0.7,1.5,1.3,2.4c0.4,0.7,0.9,1.5,1.5,2.3c0.4,0.6,0.8,1.1,1.2,1.6
		c0.9-0.6,1.9-1.1,3-1.4c0.1-0.4,0.1-0.8,0.1-1.2c0.1-0.8,0.1-1.6,0-2.4c0-0.8-0.1-1.6-0.3-2.4c-0.1-0.7-0.3-1.5-0.6-2.4
		c-0.1-0.1-0.1-0.3,0-0.4c0.1-0.4,0.5-0.8,0.9-0.7c0.4,0.1,0.8,0.5,0.7,1c-0.1,0.9-0.1,1.8-0.1,2.4c0,0.8,0.1,1.6,0.3,2.4
		c0.1,0.8,0.3,1.6,0.5,2.4c0.1,0.2,0.2,0.5,0.3,0.8c1.8-0.3,3.5-0.2,5.3,0.2c0.1-0.5,0.2-1.1,0.3-1.6c0.1-0.6,0.1-1.4,0.1-2.3
		c0-0.4,0.1-0.8,0.4-1.2c0.5-0.7,1.5-0.7,2.1-0.1c0.3,0.3,0.5,0.7,0.5,1.1c0,0.4-0.1,0.8-0.4,1.1c-0.6,0.7-1,1.4-1.3,1.9
		c-0.3,0.5-0.5,1-0.7,1.5c0.5,0.2,0.9,0.4,1.4,0.6c0.2-0.2,0.3-0.4,0.5-0.5c0.5-0.6,0.9-1.2,1.4-1.8c0.4-0.6,0.8-1.3,1.1-1.9
		c0.3-0.5,0.6-1.3,0.8-2.1c0-0.1,0.1-0.3,0.2-0.4l0,0c0.2-0.2,0.4-0.2,0.6-0.2c0.2,0,0.4,0.1,0.6,0.3c0.3,0.3,0.3,0.9,0,1.2
		c-0.6,0.6-1.1,1.2-1.4,1.7c-0.4,0.6-0.8,1.2-1.1,1.9c-0.3,0.7-0.6,1.4-0.9,2.1c-0.1,0.2-0.1,0.4-0.2,0.6c0.7,0.5,1.3,1,1.9,1.6
		c0.6,0.6,1.1,1.3,1.6,2c0,0,0.1,0.1,0.1,0.1c0.1,0.1,0.1,0.2,0.2,0.4c0.4-0.2,0.8-0.3,1.3-0.5c0.7-0.3,1.4-0.7,2.1-1.2
		c0.5-0.3,1.2-0.8,1.7-1.4c0,0,0.1-0.1,0.1-0.1c0.2-0.2,0.4-0.3,0.7-0.3c0.3,0,0.6,0.1,0.8,0.3c0.2,0.2,0.4,0.5,0.4,0.8
		c0,0.4-0.1,0.7-0.3,1c-0.2,0.2-0.4,0.3-0.7,0.3c-0.9,0.1-1.7,0.4-2.3,0.6c-0.7,0.3-1.4,0.6-2.1,1c-0.4,0.2-0.7,0.5-1.1,0.7
		c0.1,0.2,0.2,0.4,0.3,0.7c0,0.1,0.1,0.2,0.1,0.2c0.3,0.7,0.5,1.5,0.6,2.2c0,0.1,0,0.2,0.1,0.3c0,0.2,0.1,0.4,0.1,0.7
		c0.1,0,0.2,0,0.3,0c0.8,0.1,1.6,0.1,2.4,0.1c0.8,0,1.6-0.1,2.3-0.2c0.6-0.1,1.5-0.3,2.3-0.6c0.3-0.1,0.5-0.1,0.8,0
		c0.3,0.1,0.5,0.3,0.7,0.6s0.2,0.6,0.1,0.9c-0.1,0.2-0.2,0.3-0.3,0.5c-0.3,0.3-0.7,0.4-1.1,0.3c-0.9-0.3-1.7-0.4-2.4-0.4
		c-0.8,0-1.5,0-2.3,0c-0.8,0.1-1.6,0.2-2.3,0.4c-0.1,0-0.2,0-0.2,0.1c0,0,0,0,0,0.1c0,0.1,0,0.1,0,0.2c0,0.2,0,0.4,0,0.6
		c0,0.4-0.1,0.8-0.2,1.2c0,0.3-0.1,0.6-0.1,0.9c-0.1,0.5-0.3,1-0.4,1.5c-0.1,0.3-0.2,0.6-0.3,0.9c0,0,0,0.1,0,0.1
		c0.5,0.4,1,0.8,1.6,1.1c0.7,0.4,1.4,0.8,2.1,1.1c0.6,0.2,1.4,0.5,2.3,0.7c0.3,0,0.5,0.2,0.7,0.4c0.4,0.5,0.4,1.2-0.1,1.6
		c0,0,0,0-0.1,0c-0.2,0.2-0.5,0.3-0.8,0.3c-0.3,0-0.6-0.2-0.8-0.4c-0.6-0.7-1.3-1.2-1.8-1.6c-0.6-0.5-1.3-0.9-2-1.3
		c-0.6-0.3-1.2-0.5-1.7-0.8c0,0.1-0.1,0.1-0.1,0.2c-0.1,0.2-0.2,0.5-0.4,0.7c-0.5,0.7-1,1.4-1.6,2c-0.2,0.2-0.5,0.4-0.7,0.6
		c0.1,0.3,0.2,0.5,0.2,0.8c0.2,0.7,0.5,1.4,0.8,2.1c0.3,0.7,0.7,1.4,1.1,2c0.3,0.5,0.8,1.2,1.3,1.8c0.1,0.1,0.2,0.3,0.2,0.5
		c0.1,0.3,0,0.7-0.3,1c-0.1,0.1-0.3,0.2-0.5,0.3c-0.3,0.1-0.6,0-0.8-0.1c-0.2-0.1-0.4-0.4-0.4-0.7c-0.2-0.9-0.4-1.6-0.7-2.2
		c-0.3-0.7-0.6-1.4-0.9-2.1c-0.4-0.7-0.8-1.3-1.2-2c-0.1-0.1-0.2-0.2-0.3-0.4c-1.4,0.9-2.9,1.5-4.4,1.9c0,0.3-0.1,0.6-0.1,0.9
		c0,0.8,0,1.6,0.1,2.4c0.1,0.8,0.2,1.6,0.4,2.4c0.2,0.6,0.4,1.5,0.8,2.3c0.1,0.2,0.2,0.5,0.1,0.8c0,0.2-0.1,0.4-0.3,0.6
		c-0.3,0.3-0.7,0.4-1.1,0.3c-0.6-0.1-1-0.8-0.9-1.4c0.2-0.9,0.2-1.8,0.2-2.5c0-0.8-0.1-1.6-0.2-2.4c-0.1-0.8-0.3-1.6-0.5-2.4
		c-0.1-0.2-0.2-0.5-0.3-0.8c-1.3,0.1-2.5,0-3.7-0.3c-0.2,0.8-0.3,1.5-0.4,2.3c-0.1,0.9-0.1,1.8,0.1,2.8c0.1,0.5,0,0.9-0.3,1.3
		c-0.6,0.7-1.6,0.8-2.2,0.2c-0.7-0.6-0.8-1.6-0.2-2.3c0.6-0.8,1-1.6,1.4-2.4c0.3-0.7,0.6-1.5,0.8-2.2c-1.1-0.4-2.2-0.8-3.2-1.5
		c-0.3,0.2-0.5,0.4-0.7,0.7l-0.1,0.1c-0.5,0.5-1,1.1-1.5,1.8c-0.5,0.7-0.9,1.3-1.3,2c-0.3,0.6-0.7,1.4-0.9,2.3
		c0,0.2-0.2,0.4-0.3,0.5c-0.1,0.1-0.1,0.1-0.2,0.1c-0.2,0.2-0.6,0.2-0.8,0.2c-0.3-0.1-0.6-0.2-0.7-0.5c-0.3-0.5-0.2-1.3,0.3-1.6
		c0.4-0.3,0.8-0.7,1.3-1.1c0.2-0.2,0.3-0.4,0.5-0.5c0.5-0.6,1-1.2,1.4-1.9c0.4-0.7,0.8-1.4,1.2-2.1c0.1-0.3,0.3-0.6,0.4-1
		c-0.2-0.2-0.4-0.3-0.6-0.5c0,0,0,0,0,0l0,0v0c-0.6-0.6-1-1.2-1.5-1.9c-0.1-0.1-0.2-0.2-0.3-0.4c-0.1-0.1-0.1-0.2-0.2-0.3
		c-0.1-0.2-0.2-0.4-0.3-0.7c-0.8,0.2-1.5,0.5-2.3,0.8c-0.8,0.3-1.5,0.7-2.1,1.1c-0.6,0.3-1.3,0.8-2,1.5c-0.2,0.2-0.5,0.4-0.9,0.4
		c-0.7,0-1.3-0.6-1.3-1.3c0-0.7,0.6-1.3,1.3-1.4c0.9,0,1.8-0.2,2.4-0.4c0.8-0.2,1.5-0.5,2.3-0.8c0.7-0.3,1.4-0.7,2-1.1
		c0,0,0,0,0-0.1c-0.3-0.7-0.5-1.5-0.7-2.3c0-0.2-0.1-0.4-0.1-0.7c-0.1-0.4-0.1-0.9-0.2-1.3c-0.2-0.1-0.4-0.2-0.6-0.2
		c-0.7-0.2-1.3-0.4-2-0.5c-0.7-0.1-1.4-0.2-2.1-0.3c-0.6,0-1.3-0.1-2.1,0.1c-0.2,0-0.3,0-0.4-0.1C181.4,194,181.2,193.5,181.4,193.1
		z"/>
	<path class="st5" d="M25.9,134.9c0.1-0.2,0.4-0.4,0.6-0.3c0.4,0.2,0.9,0.3,1.2,0.4c0.4,0.1,0.8,0.1,1.2,0.2c0.4,0,0.8,0,1.3,0
		c0.1,0,0.2,0,0.3,0c0-0.2,0-0.4,0.1-0.6c0-0.2,0.1-0.4,0.1-0.5c0.1-0.3,0.1-0.6,0.2-0.9c0.1-0.2,0.1-0.3,0.2-0.5c0,0,0-0.1,0-0.1
		c-0.3-0.2-0.5-0.4-0.7-0.5c-0.4-0.3-0.8-0.5-1.2-0.7c-0.4-0.2-0.9-0.4-1.3-0.6c-0.4-0.1-0.8-0.3-1.3-0.4c-0.1,0-0.2,0-0.2-0.1
		c-0.1-0.1-0.2-0.2-0.2-0.3c0-0.1,0-0.3,0.1-0.4c0.2-0.2,0.5-0.3,0.7-0.1c0.4,0.3,0.8,0.6,1.2,0.8c0.4,0.2,0.8,0.4,1.3,0.6
		c0.4,0.2,0.9,0.3,1.3,0.4c0.3,0.1,0.6,0.1,1,0.2c0,0,0,0,0,0c0.3-0.4,0.6-0.8,0.9-1.2c0.2-0.2,0.5-0.4,0.7-0.6
		c-0.2-0.3-0.4-0.7-0.6-1.1c-0.3-0.5-0.6-0.9-0.9-1.3c-0.4-0.5-0.7-0.9-1-1.2c0,0-0.1-0.1-0.1-0.1c-0.1-0.2,0-0.5,0.2-0.7
		c0.1-0.1,0.3-0.1,0.4,0c0.1,0,0.2,0.1,0.3,0.3c0.2,0.4,0.4,0.9,0.8,1.4c0.3,0.4,0.5,0.9,0.9,1.4c0.3,0.3,0.5,0.7,0.7,1
		c0.6-0.4,1.2-0.6,1.8-0.8c0-0.2,0.1-0.5,0.1-0.7c0-0.5,0-1,0-1.5c0-0.5-0.1-1-0.2-1.4c-0.1-0.4-0.2-0.9-0.4-1.4c0-0.1,0-0.2,0-0.3
		c0-0.3,0.3-0.5,0.6-0.4c0.3,0,0.4,0.3,0.4,0.6c-0.1,0.5-0.1,1.1,0,1.4c0,0.5,0.1,1,0.2,1.4c0.1,0.5,0.2,1,0.3,1.4
		c0,0.1,0.1,0.3,0.2,0.5c1-0.2,2.1-0.1,3.1,0.1c0.1-0.3,0.1-0.7,0.2-1c0-0.4,0.1-0.9,0-1.4c0-0.3,0.1-0.5,0.2-0.7
		c0.3-0.4,0.9-0.4,1.2-0.1c0.2,0.2,0.3,0.4,0.3,0.6c0,0.2-0.1,0.5-0.2,0.7c-0.3,0.4-0.6,0.8-0.8,1.1c-0.2,0.3-0.3,0.6-0.4,0.9
		c0.3,0.1,0.6,0.2,0.8,0.4c0.1-0.1,0.2-0.2,0.3-0.3c0.3-0.3,0.6-0.7,0.8-1.1c0.3-0.4,0.5-0.8,0.7-1.2c0.2-0.3,0.4-0.8,0.5-1.3
		c0-0.1,0.1-0.2,0.1-0.2l0,0c0.1-0.1,0.2-0.1,0.3-0.1c0.1,0,0.3,0.1,0.3,0.2c0.2,0.2,0.2,0.5,0,0.7c-0.4,0.3-0.6,0.7-0.8,1
		c-0.2,0.4-0.5,0.7-0.7,1.2c-0.2,0.4-0.4,0.8-0.5,1.2c0,0.1-0.1,0.2-0.1,0.4c0.4,0.3,0.8,0.6,1.1,1c0.3,0.4,0.7,0.8,0.9,1.2
		c0,0,0,0.1,0.1,0.1c0,0.1,0.1,0.1,0.1,0.2c0.3-0.1,0.5-0.2,0.7-0.3c0.4-0.2,0.9-0.4,1.2-0.7c0.3-0.2,0.7-0.5,1-0.8
		c0,0,0-0.1,0.1-0.1c0.1-0.1,0.3-0.2,0.4-0.2c0.2,0,0.4,0,0.5,0.2c0.1,0.1,0.2,0.3,0.3,0.5c0,0.2-0.1,0.4-0.2,0.6
		c-0.1,0.1-0.3,0.2-0.4,0.2c-0.5,0.1-1,0.2-1.4,0.3c-0.4,0.2-0.9,0.4-1.3,0.6c-0.2,0.1-0.4,0.3-0.7,0.4c0.1,0.1,0.1,0.3,0.2,0.4
		c0,0,0,0.1,0.1,0.1c0.2,0.4,0.3,0.9,0.4,1.3c0,0.1,0,0.1,0,0.2c0,0.1,0,0.3,0.1,0.4c0.1,0,0.1,0,0.2,0c0.5,0.1,0.9,0.1,1.4,0.1
		s0.9-0.1,1.4-0.1c0.4-0.1,0.9-0.2,1.4-0.4c0.2-0.1,0.3-0.1,0.5,0c0.2,0.1,0.3,0.2,0.4,0.3c0.1,0.2,0.1,0.3,0,0.5
		c0,0.1-0.1,0.2-0.2,0.3c-0.2,0.2-0.4,0.3-0.7,0.2c-0.5-0.2-1-0.2-1.4-0.2c-0.5,0-0.9,0-1.4,0c-0.5,0-0.9,0.1-1.4,0.2
		c0,0-0.1,0-0.1,0c0,0,0,0,0,0c0,0,0,0.1,0,0.1c0,0.1,0,0.2,0,0.3c0,0.2-0.1,0.5-0.1,0.7c0,0.2,0,0.3-0.1,0.5
		c-0.1,0.3-0.2,0.6-0.3,0.9c-0.1,0.2-0.1,0.3-0.2,0.5c0,0,0,0.1,0,0.1c0.3,0.2,0.6,0.5,0.9,0.7c0.4,0.2,0.8,0.5,1.3,0.7
		c0.4,0.1,0.8,0.3,1.4,0.4c0.2,0,0.3,0.1,0.4,0.2c0.2,0.3,0.2,0.7,0,1c0,0,0,0,0,0c-0.1,0.1-0.3,0.2-0.5,0.2c-0.2,0-0.3-0.1-0.5-0.2
		c-0.3-0.4-0.8-0.7-1.1-1c-0.4-0.3-0.8-0.5-1.2-0.8c-0.3-0.2-0.7-0.3-1-0.5c0,0,0,0.1-0.1,0.1c-0.1,0.1-0.1,0.3-0.2,0.4
		c-0.3,0.4-0.6,0.8-0.9,1.2c-0.1,0.1-0.3,0.2-0.4,0.3c0,0.2,0.1,0.3,0.1,0.5c0.1,0.4,0.3,0.9,0.5,1.3c0.2,0.4,0.4,0.8,0.6,1.2
		c0.2,0.3,0.5,0.7,0.8,1.1c0.1,0.1,0.1,0.2,0.1,0.3c0,0.2,0,0.4-0.2,0.6c-0.1,0.1-0.2,0.1-0.3,0.2c-0.2,0-0.3,0-0.5-0.1
		s-0.2-0.2-0.3-0.4c-0.1-0.5-0.3-1-0.4-1.3c-0.2-0.4-0.3-0.8-0.6-1.2c-0.2-0.4-0.4-0.8-0.7-1.2c0-0.1-0.1-0.1-0.2-0.2
		c-0.8,0.5-1.7,0.9-2.6,1.1c0,0.2,0,0.4,0,0.5c0,0.5,0,1,0,1.5c0,0.5,0.1,1,0.2,1.4c0.1,0.4,0.2,0.9,0.5,1.4
		c0.1,0.1,0.1,0.3,0.1,0.5c0,0.1-0.1,0.2-0.2,0.3c-0.2,0.2-0.4,0.2-0.6,0.2c-0.4-0.1-0.6-0.5-0.5-0.8c0.1-0.5,0.1-1.1,0.1-1.5
		c0-0.5-0.1-1-0.1-1.4c-0.1-0.5-0.2-1-0.3-1.4c0-0.1-0.1-0.3-0.2-0.5c-0.8,0-1.5,0-2.2-0.2c-0.1,0.5-0.2,0.9-0.2,1.4
		c0,0.5-0.1,1.1,0,1.7c0,0.3,0,0.6-0.2,0.8c-0.3,0.4-0.9,0.5-1.3,0.1s-0.5-1-0.1-1.4c0.4-0.4,0.6-0.9,0.8-1.4
		c0.2-0.4,0.3-0.9,0.5-1.3c-0.7-0.2-1.3-0.5-1.9-0.9c-0.2,0.1-0.3,0.3-0.4,0.4l0,0c-0.3,0.3-0.6,0.7-0.9,1.1
		c-0.3,0.4-0.5,0.8-0.8,1.2c-0.2,0.3-0.4,0.8-0.6,1.4c0,0.1-0.1,0.2-0.2,0.3c0,0-0.1,0.1-0.1,0.1c-0.1,0.1-0.3,0.1-0.5,0.1
		c-0.2,0-0.3-0.1-0.4-0.3c-0.2-0.3-0.1-0.8,0.2-1c0.3-0.2,0.5-0.4,0.8-0.7c0.1-0.1,0.2-0.2,0.3-0.3c0.3-0.3,0.6-0.7,0.9-1.2
		c0.3-0.4,0.5-0.8,0.7-1.3c0.1-0.2,0.2-0.4,0.3-0.6c-0.1-0.1-0.2-0.2-0.3-0.3l0,0l0,0l0,0c-0.3-0.3-0.6-0.7-0.9-1.1
		c0-0.1-0.1-0.1-0.2-0.2c0-0.1-0.1-0.1-0.1-0.2c-0.1-0.1-0.1-0.3-0.2-0.4c-0.5,0.1-0.9,0.3-1.3,0.5c-0.4,0.2-0.9,0.4-1.3,0.7
		c-0.3,0.2-0.8,0.5-1.2,0.9c-0.1,0.1-0.3,0.2-0.5,0.2c-0.4,0-0.8-0.3-0.8-0.8c0-0.4,0.3-0.8,0.7-0.8c0.6,0,1.1-0.1,1.4-0.2
		c0.4-0.1,0.9-0.3,1.3-0.5c0.4-0.2,0.8-0.4,1.2-0.6c0,0,0,0,0,0c-0.2-0.4-0.3-0.9-0.4-1.3c0-0.1,0-0.3,0-0.4c0-0.3-0.1-0.5-0.1-0.8
		c-0.1,0-0.3-0.1-0.4-0.1c-0.4-0.1-0.8-0.2-1.2-0.3c-0.4-0.1-0.8-0.1-1.2-0.2c-0.3,0-0.8,0-1.3,0c-0.1,0-0.2,0-0.3,0
		C25.9,135.4,25.8,135.1,25.9,134.9z"/>
	<path class="st0" d="M150.9,34.4c-2.8,1.1-6.6,5.3-7.6,8.1c-0.2,0.6-0.3,1.2-0.2,1.8c-2.2,1.7-4.6,3.1-6.8,4.8
		c2.3-1.4,4.7-2.6,7.1-4.1l0,0c0.2,0.3,0.4,0.6,0.7,0.9c-0.3,0.3-0.6,0.7-0.9,1c-0.5,0.6-1,1.2-1.5,1.8s-1.2,0.9-1.8,1.4
		c-0.6,0.5-1.3,1-1.6,1.7c0.4-0.7,1-1.1,1.7-1.5c0.7-0.4,1.4-0.7,2-1.3c0.6-0.5,1.1-1.1,1.7-1.7c0.4-0.4,0.7-0.7,1.1-1
		c0.3,0.1,0.5,0.2,0.8,0.2c-0.2,0.5-0.5,1-0.7,1.5c-0.4,0.8-0.7,1.6-0.8,2.4c-0.1,0.9-0.4,1.6-0.9,2.3c-0.4,0.7-0.9,1.4-1.1,2.3
		c0.2-0.8,0.7-1.5,1.2-2.2c0.5-0.6,0.9-1.5,1.1-2.3c0.3-1.5,1.2-2.6,1.9-4c0,0,0,0,0,0c0.4,0,0.9-0.1,1.3-0.3
		c1.6-0.7,2.3-2.5,3.4-3.8c0.3-0.4,0.7-0.7,1.2-1c2.3-1.3,9.5,0.7,7.3-4.8C158.3,33.7,153.4,33.5,150.9,34.4z M154.1,37.8
		c0.9,2.2-2,1.4-2.9,1.9c-0.2,0.1-0.3,0.2-0.5,0.4c-0.5,0.5-0.7,1.2-1.4,1.5c-1,0.4-2.2-0.3-1.7-1.5c0.4-1.2,1.9-2.8,3.1-3.2
		C151.6,36.5,153.6,36.6,154.1,37.8z"/>
	<g class="st1">
		<path class="st2" d="M193.4,41.6c-1-1.3-1.7-3.1-1.7-4.9c0-3.8,2.6-7,6.1-7.7v0c-5,0.8-8.8,5.2-8.8,10.6c0,0.9,0.1,1.7,0.3,2.5
			c-0.8,0.2-1.5,0.6-2.2,1c-4.5,2.7-6.3,8.3-4.5,13.2l0,0c-1.1-3.5,0.3-7.4,3.4-9.3c1.6-0.9,3.3-1.2,5-1c2.1,0.3,4.1,1.6,5.3,3.6
			l1-0.6c-0.1-0.2-0.1-0.5-0.1-0.8c0-1.1,0.8-2,1.8-2.2v-1.3C196.8,44.4,194.8,43.3,193.4,41.6z M211.7,42.9c-0.7-0.4-1.5-0.8-2.2-1
			c0.2-0.8,0.3-1.6,0.3-2.5c0-5.4-3.8-9.8-8.8-10.6v0c3.5,0.8,6.1,3.9,6.1,7.7c0,1.9-0.6,3.6-1.7,4.9c-1.3,1.7-3.3,2.9-5.6,3v1.3
			c1,0.2,1.8,1.1,1.8,2.2c0,0.3,0,0.5-0.1,0.8l1.1,0.6c1.2-2,3.2-3.2,5.3-3.6c1.7-0.3,3.4,0,5,1c3.2,1.9,4.5,5.8,3.4,9.3l0,0l0,0
			C218,51.3,216.1,45.6,211.7,42.9z M205,60.4c-1.6-0.9-2.7-2.4-3.3-4c-0.8-2.1-0.7-4.4,0.3-6.5l-1.1-0.6c-0.4,0.5-1,0.8-1.7,0.8
			s-1.3-0.3-1.7-0.8l-1.1,0.6c1.1,2.1,1.1,4.5,0.3,6.5c-0.6,1.6-1.7,3-3.3,4c-3.2,1.9-7.1,1.2-9.5-1.6l0,0c3.1,4.1,8.8,5.3,13.2,2.6
			c0.7-0.4,1.4-0.9,1.9-1.5c0.6,0.6,1.2,1.1,2,1.5c4.5,2.7,10.1,1.5,13.2-2.6l0,0C212.2,61.6,208.2,62.3,205,60.4z"/>
		<g>
			<path class="st2" d="M201.7,56.5c-0.1-0.4-0.3-0.8-0.3-1.2c-0.6,0.2-1.3,0.3-2,0.3c-0.7,0-1.4-0.1-2-0.3
				c-0.1,0.4-0.2,0.8-0.3,1.2c-0.1,0.3-0.2,0.6-0.4,0.9c0.9,0.3,1.8,0.4,2.7,0.4c1,0,1.9-0.1,2.8-0.4
				C202,57.1,201.9,56.8,201.7,56.5z M192,48c0-0.4,0-0.8,0.1-1.2c-0.4-0.1-0.7-0.2-1.1-0.3c-0.3,0-0.6-0.1-1-0.1
				c-0.1,0.5-0.1,1-0.1,1.6c0,4.2,2.5,7.8,6.1,9.2c0.2-0.3,0.3-0.6,0.4-0.9c0.1-0.4,0.3-0.8,0.3-1.2C194,54,192,51.2,192,48z
				 M201.7,56.5c-0.1-0.4-0.3-0.8-0.3-1.2c-0.6,0.2-1.3,0.3-2,0.3c-0.7,0-1.4-0.1-2-0.3c-0.1,0.4-0.2,0.8-0.3,1.2
				c-0.1,0.3-0.2,0.6-0.4,0.9c0.9,0.3,1.8,0.4,2.7,0.4c1,0,1.9-0.1,2.8-0.4C202,57.1,201.9,56.8,201.7,56.5z M199.4,38.1
				c-2.3,0-4.4,0.8-6,2.2c0.2,0.3,0.3,0.5,0.5,0.8c0.2,0.3,0.5,0.6,0.8,0.9c1.3-1.1,2.9-1.7,4.6-1.7c1.8,0,3.4,0.6,4.6,1.7
				c0.3-0.3,0.6-0.5,0.8-0.9c0.2-0.3,0.4-0.5,0.5-0.8C203.7,39,201.6,38.1,199.4,38.1z M193.4,41.6c-0.2-0.2-0.4-0.5-0.5-0.8
				c-1.4,1.3-2.3,3-2.8,4.9c0.3,0,0.6,0,0.9,0.1c0.4,0.1,0.8,0.2,1.2,0.3c0.3-1.4,1.1-2.6,2-3.6C193.9,42.2,193.7,41.9,193.4,41.6z
				 M201.7,56.5c-0.1-0.4-0.3-0.8-0.3-1.2c-0.6,0.2-1.3,0.3-2,0.3c-0.7,0-1.4-0.1-2-0.3c-0.1,0.4-0.2,0.8-0.3,1.2
				c-0.1,0.3-0.2,0.6-0.4,0.9c0.9,0.3,1.8,0.4,2.7,0.4c1,0,1.9-0.1,2.8-0.4C202,57.1,201.9,56.8,201.7,56.5z M208.7,46.4
				c-0.3,0-0.6,0-1,0.1c-0.4,0.1-0.8,0.2-1.1,0.3c0.1,0.4,0.1,0.8,0.1,1.2c0,3.2-2,6-4.7,7.1c0.1,0.4,0.2,0.8,0.3,1.2
				c0.1,0.3,0.3,0.6,0.4,0.9c3.6-1.4,6.1-5,6.1-9.2C208.9,47.4,208.8,46.9,208.7,46.4z M205.9,40.8c-0.2,0.3-0.3,0.5-0.5,0.8
				c-0.3,0.3-0.5,0.6-0.8,0.9c1,1,1.7,2.2,2,3.6c0,0,0,0,0,0c0.4-0.1,0.8-0.2,1.2-0.3c0.3,0,0.6-0.1,0.9-0.1
				C208.2,43.8,207.2,42.1,205.9,40.8z"/>
		</g>
	</g>
	<g class="st3">
		<path class="st2" d="M78.2,10c-0.8-1.1-1.3-2.4-1.3-3.9c0-3,2-5.5,4.8-6.1v0c-3.9,0.6-6.9,4.1-6.9,8.3c0,0.7,0.1,1.3,0.2,2
			c-0.6,0.2-1.2,0.4-1.8,0.8c-3.5,2.1-4.9,6.5-3.5,10.3l0,0c-0.9-2.7,0.2-5.8,2.7-7.3c1.2-0.7,2.6-1,3.9-0.8
			c1.7,0.3,3.2,1.2,4.1,2.8l0.8-0.5c-0.1-0.2-0.1-0.4-0.1-0.6c0-0.9,0.6-1.6,1.4-1.7v-1C80.8,12.2,79.2,11.3,78.2,10z M92.5,11.1
			c-0.6-0.3-1.2-0.6-1.8-0.8c0.2-0.6,0.2-1.3,0.2-2c0-4.2-3-7.7-6.9-8.3v0c2.7,0.6,4.8,3.1,4.8,6.1c0,1.5-0.5,2.8-1.3,3.9
			c-1,1.4-2.6,2.2-4.4,2.3v1c0.8,0.1,1.4,0.8,1.4,1.7c0,0.2,0,0.4-0.1,0.6l0.8,0.5c1-1.6,2.5-2.5,4.1-2.8c1.3-0.2,2.7,0,3.9,0.8
			c2.5,1.5,3.6,4.6,2.7,7.3l0,0l0,0C97.4,17.6,96,13.2,92.5,11.1z M87.3,24.8c-1.2-0.7-2.1-1.9-2.6-3.1c-0.6-1.6-0.6-3.5,0.3-5.1
			l-0.8-0.5c-0.3,0.4-0.8,0.7-1.3,0.7s-1-0.2-1.3-0.7l-0.8,0.5c0.8,1.6,0.9,3.5,0.3,5.1c-0.5,1.3-1.4,2.4-2.6,3.1
			c-2.5,1.5-5.6,0.9-7.5-1.2l0,0c2.5,3.2,6.9,4.1,10.4,2c0.6-0.3,1.1-0.7,1.5-1.2c0.5,0.4,1,0.8,1.5,1.2c3.5,2.1,7.9,1.2,10.4-2l0,0
			C92.9,25.7,89.8,26.3,87.3,24.8z"/>
		<g>
			<path class="st2" d="M84.7,21.7c-0.1-0.3-0.2-0.6-0.3-0.9c-0.5,0.2-1,0.2-1.6,0.2c-0.5,0-1.1-0.1-1.6-0.2
				c-0.1,0.3-0.2,0.6-0.3,0.9c-0.1,0.2-0.2,0.5-0.3,0.7c0.7,0.2,1.4,0.3,2.2,0.3s1.5-0.1,2.2-0.3C84.9,22.1,84.8,21.9,84.7,21.7z
				 M77,15c0-0.3,0-0.6,0.1-1c-0.3-0.1-0.6-0.2-0.9-0.2c-0.3,0-0.5-0.1-0.8-0.1c-0.1,0.4-0.1,0.8-0.1,1.2c0,3.3,2,6.1,4.8,7.2
				c0.1-0.2,0.2-0.5,0.3-0.7c0.1-0.3,0.2-0.6,0.3-0.9C78.6,19.7,77,17.5,77,15z M84.7,21.7c-0.1-0.3-0.2-0.6-0.3-0.9
				c-0.5,0.2-1,0.2-1.6,0.2c-0.5,0-1.1-0.1-1.6-0.2c-0.1,0.3-0.2,0.6-0.3,0.9c-0.1,0.2-0.2,0.5-0.3,0.7c0.7,0.2,1.4,0.3,2.2,0.3
				s1.5-0.1,2.2-0.3C84.9,22.1,84.8,21.9,84.7,21.7z M82.8,7.3c-1.8,0-3.4,0.7-4.7,1.7c0.1,0.2,0.3,0.4,0.4,0.6
				c0.2,0.3,0.4,0.5,0.6,0.7c1-0.8,2.3-1.3,3.6-1.3c1.4,0,2.6,0.5,3.6,1.3c0.2-0.2,0.4-0.4,0.6-0.7c0.2-0.2,0.3-0.4,0.4-0.6
				C86.3,7.9,84.6,7.3,82.8,7.3z M78.2,10c-0.2-0.2-0.3-0.4-0.4-0.6c-1.1,1-1.8,2.4-2.2,3.9c0.3,0,0.5,0,0.7,0.1
				c0.3,0,0.6,0.1,0.9,0.2c0.3-1.1,0.8-2.1,1.6-2.8C78.6,10.5,78.4,10.2,78.2,10z M84.7,21.7c-0.1-0.3-0.2-0.6-0.3-0.9
				c-0.5,0.2-1,0.2-1.6,0.2c-0.5,0-1.1-0.1-1.6-0.2c-0.1,0.3-0.2,0.6-0.3,0.9c-0.1,0.2-0.2,0.5-0.3,0.7c0.7,0.2,1.4,0.3,2.2,0.3
				s1.5-0.1,2.2-0.3C84.9,22.1,84.8,21.9,84.7,21.7z M90.2,13.7c-0.3,0-0.5,0-0.8,0.1c-0.3,0-0.6,0.1-0.9,0.2c0,0.3,0.1,0.6,0.1,1
				c0,2.5-1.5,4.7-3.7,5.6c0.1,0.3,0.1,0.6,0.3,0.9c0.1,0.2,0.2,0.5,0.3,0.7c2.8-1.1,4.8-3.9,4.8-7.2C90.3,14.6,90.2,14.2,90.2,13.7
				z M87.9,9.4c-0.1,0.2-0.3,0.4-0.4,0.6c-0.2,0.3-0.4,0.5-0.6,0.7c0.8,0.8,1.3,1.7,1.6,2.8l0,0c0.3-0.1,0.6-0.2,0.9-0.2
				c0.2,0,0.5-0.1,0.7-0.1C89.8,11.7,89,10.4,87.9,9.4z"/>
		</g>
	</g>
	<g>
		<path class="st6" d="M122.7,244.1H44.3c-7,0-12.6,0.8-12.6-7.8V34.1h103.7v202.3C135.4,244.8,129.7,244.1,122.7,244.1z"/>
		<path class="st7" d="M105.7,113.6c-0.5-1.5-0.2-13.4-0.3-14.4c0.2-1,0.4-9.9-2.2-12.9c-3.6-4-8.1-5.2-9.5-5.8
			c-1.4-0.6-5.5-3.5-6.1-3.9c-0.5-0.3-0.2-3.4-0.1-4.6c0.4-0.5,0.8-1.1,1.1-1.7c1.2-2.6,1.4-11.2,1-13.9c-0.5-2.7-3.9-5.7-7.8-5.7
			c-3.9,0-7.3,3-7.8,5.7c-0.5,2.7-0.2,11.3,1,13.9c0.3,0.6,0.6,1.2,1.1,1.7c0.1,1.3,0.4,4.3-0.1,4.6c-0.7,0.4-4.7,3.3-6.1,3.9
			c-1.4,0.6-5.9,1.8-9.5,5.8c-2.6,2.9-2.4,11.9-2.2,12.9c-0.1,1,0.2,12.9-0.3,14.4c-2.7,7.8-0.4,24.4-0.2,28.2
			c0.2,3.8,0.7,10.9,3.5,15.3c1.3,2,3.3,3.3,4.5,2.4s-1.6-7.3-2-9.2c-0.4-1.9-0.9-3.5,1-1.6c0.5,0.5,1.5-0.5,0.2-2.8
			c-0.8-1.5-1.6-2.6-1.8-4.6c-0.2-2.4,0.6-7.4,1.2-9.2c0.6-1.8,1.4-13.8,1-15.6s1.6-9.4,1.7-12.4c1.1,2,2.3,13.4,2.3,15
			s-2.7,18.4-2.9,21.7c-0.2,3.3,1.1,27.1,2.1,30.5c0.9,3.4-0.1,12.8-0.2,14.5c-0.2,2.6-0.1,9,0.5,13.4c0.2,2,1.1,12.6,0.6,16.3
			c-0.7,6.2-3.7,9.8-4.5,11.4c-0.5,2.6,5.3,2.9,7.8,2.5c2.4-0.3,2.6-0.2,3.8-1.3c1.2-1.1,0.5-3.6,0-5.3c-0.5-1.7-0.8-8.4-0.2-10.3
			c0.7-1.9,2.8-17.5,2.9-19.1c0.1-1.6-0.3-10-0.7-13.1c-0.4-3.8,1.6-7.8,1.7-14.3c0-2.5-0.1-7.7,0-9.1c0.1-1.4,1.3-11.8,1.3-13.6
			c0,1.8,1.2,12.2,1.3,13.6c0.1,1.4,0,6.6,0,9.1c0.1,6.5,2.2,10.5,1.7,14.3c-0.4,3-0.8,11.5-0.7,13.1c0.1,1.6,2.2,17.2,2.9,19.1
			c0.6,1.9,0.3,8.6-0.2,10.3c-0.5,1.7-1.2,4.2,0,5.3c1.2,1.1,1.5,0.9,3.8,1.3c2.5,0.4,8.3,0.1,7.8-2.5c-0.7-1.6-3.7-5.2-4.5-11.4
			c-0.4-3.7,0.4-14.3,0.7-16.3c0.5-4.4,0.7-10.8,0.5-13.4c-0.1-1.7-1.1-11.1-0.2-14.5c0.9-3.4,2.3-27.2,2.1-30.5
			c-0.2-3.3-2.9-20.1-2.9-21.7s1.2-13,2.3-15c0.1,3,2.1,10.6,1.7,12.4s0.4,13.8,1,15.6c0.7,1.8,1.4,6.8,1.2,9.2
			c-0.2,2-0.9,3.1-1.8,4.6c-1.3,2.3-0.3,3.3,0.2,2.8c2-1.9,1.4-0.3,1,1.6c-0.4,1.9-3.2,8.3-2,9.2c1.2,0.9,3.2-0.4,4.5-2.4
			c2.9-4.4,3.4-11.5,3.6-15.3C106,138,108.4,121.4,105.7,113.6z"/>
		<path class="st7" d="M111.3,105.7c-4.3,0-9-2.1-12.9-5.9l1.8-2.2c3.8,3.6,8.4,5.5,12.3,5.1c2.9-0.3,5.3-2,7.1-4.8
			c4.6-7,4.1-36.1,3.9-50c0-2.8-0.1-5.1-0.1-6.9h2.7c0,1.8,0,4.1,0.1,6.9c0.3,21.3,0.3,44.5-4.4,51.7c-2.3,3.5-5.4,5.6-9.1,6
			C112.3,105.7,111.8,105.7,111.3,105.7z"/>
		<path class="st7" d="M61,95.8c-3.7,0-7.8-1.4-11.1-3.3c-5.7-3.4-9.1-8.4-9.1-13.3V31.9h2.7v47.2c0,3.9,2.9,7.9,7.6,10.8
			c5.2,3.1,11.2,3.8,14.3,1.8l1.4,2.5C65.3,95.3,63.2,95.8,61,95.8z"/>
		<path class="st8" d="M140.8,246.3c0,2.4-1.6,4.4-3.6,4.4H29.8c-2,0-3.6-2-3.6-4.4v-16.8h114.5V246.3z"/>
		<path class="st8" d="M140.8,31.7c0-2.4-1.6-4.4-3.6-4.4H29.8c-2,0-3.6,2-3.6,4.4v16.8h114.5V31.7z"/>
		<g>
			<rect x="120.7" y="20.9" class="st8" width="8.2" height="6.4"/>
			<rect x="38.1" y="20.9" class="st8" width="8.2" height="6.4"/>
		</g>
		<path class="st7" d="M126.2,20.9h-2.7C123.5,5,132.3,3,148.9,3v2.9C133.6,5.9,126.2,6.5,126.2,20.9z"/>
		<path class="st7" d="M43.5,20.9h-2.7c0-14.4-7.4-15-22.8-15V3C34.7,3,43.5,5,43.5,20.9z"/>
		<path class="st9" d="M123.3,207.3c0,1.3-1,2.4-2.3,2.4c-1.3,0-2.3-1.1-2.3-2.4c0-1.3,1-2.4,2.3-2.4
			C122.3,204.9,123.3,206,123.3,207.3z"/>
		<path class="st9" d="M60.9,188.1c0,1.3-1,2.4-2.3,2.4c-1.2,0-2.3-1.1-2.3-2.4c0-1.3,1-2.4,2.3-2.4
			C59.9,185.7,60.9,186.7,60.9,188.1z"/>
		<path class="st9" d="M118.6,174.6c0,0.7-0.5,1.2-1.1,1.2c-0.6,0-1.1-0.5-1.1-1.2c0-0.7,0.5-1.2,1.1-1.2
			C118.1,173.4,118.6,173.9,118.6,174.6z"/>
		<path class="st9" d="M35.8,69.1c0,0.9-0.7,1.7-1.6,1.7s-1.6-0.7-1.6-1.7s0.7-1.7,1.6-1.7S35.8,68.2,35.8,69.1z"/>
		<path class="st9" d="M78.9,215.7c0,0.9-0.7,1.7-1.6,1.7c-0.9,0-1.6-0.7-1.6-1.7c0-0.9,0.7-1.7,1.6-1.7
			C78.2,214,78.9,214.8,78.9,215.7z"/>
		<path class="st9" d="M101.6,175.8c0,0.9-0.7,1.7-1.5,1.7s-1.6-0.7-1.6-1.7c0-0.9,0.7-1.7,1.6-1.7S101.6,174.9,101.6,175.8z"/>
		<path class="st9" d="M130,69.1c0,0.9-0.7,1.7-1.5,1.7c-0.9,0-1.6-0.7-1.6-1.7s0.7-1.7,1.6-1.7C129.3,67.5,130,68.2,130,69.1z"/>
		<path class="st9" d="M51.4,125.9c0,0.9-0.7,1.7-1.6,1.7c-0.9,0-1.6-0.7-1.6-1.7c0-0.9,0.7-1.7,1.6-1.7
			C50.7,124.3,51.4,125,51.4,125.9z"/>
		<path class="st9" d="M43.1,177.5c0,0.9-0.7,1.7-1.6,1.7c-0.9,0-1.6-0.7-1.6-1.7s0.7-1.7,1.6-1.7C42.4,175.8,43.1,176.5,43.1,177.5
			z"/>
		<path class="st9" d="M78.9,113.8c0,0.9-0.7,1.7-1.6,1.7c-0.9,0-1.6-0.7-1.6-1.7s0.7-1.7,1.6-1.7C78.2,112.2,78.9,112.9,78.9,113.8
			z"/>
		<path class="st9" d="M103.1,67.5c0,0.9-0.7,1.7-1.6,1.7c-0.9,0-1.5-0.7-1.5-1.7c0-0.9,0.7-1.7,1.5-1.7
			C102.4,65.8,103.1,66.6,103.1,67.5z"/>
		<path class="st9" d="M43.8,103.5c0,1.3-1,2.4-2.3,2.4s-2.3-1.1-2.3-2.4c0-1.3,1-2.4,2.3-2.4S43.8,102.2,43.8,103.5z"/>
		<path class="st9" d="M63.9,69.1c0,1.8-1.3,3.2-3,3.2s-3-1.4-3-3.2c0-1.8,1.3-3.2,3-3.2C62.6,66,63.9,67.4,63.9,69.1z"/>
		<path class="st9" d="M121,134.2c0,1.3-1,2.4-2.3,2.4c-1.2,0-2.3-1.1-2.3-2.4s1-2.4,2.3-2.4C120,131.8,121,132.9,121,134.2z"/>
		<path class="st9" d="M130.7,111.4c0,1.3-1,2.4-2.3,2.4s-2.3-1.1-2.3-2.4c0-1.3,1-2.4,2.3-2.4C129.7,109,130.7,110.1,130.7,111.4z"
			/>
		<path class="st9" d="M72.3,144.8c0,1.3-0.9,2.3-2.1,2.3c-1.2,0-2.1-1-2.1-2.3s0.9-2.3,2.1-2.3C71.3,142.5,72.3,143.5,72.3,144.8z"
			/>
		<polygon class="st10" points="67,48.5 67,27.3 36.7,27.3 36.7,48.5 36.7,229.5 36.7,250.6 67,250.6 67,229.5 67,229.5 		"/>
	</g>
	<g>
		<path class="st11" d="M52.1,124.8c1.5,0.8,10.2,1.4,12.6,1.1c-0.7-6.7-1.1-11.6-1.1-11.6l-5.2-2l-3.7,4.7L52.1,124.8z"/>
		<path class="st12" d="M13.2,265c-2.1,0.1-5.4-3-5.7-5.7c-0.3-1.9,0.3-4.9,0.6-7.4c0,0,0,0,0-0.1c0.1-1.1,0.3-2,0.3-2.8
			c0,0,4.4,0.7,7.8,1.3c-0.1,1,0,1.9,0.1,2.8v0c0.2,1.9,0.8,3.8,1.3,5.7C18.2,261.8,15.3,264.9,13.2,265z"/>
		<path class="st12" d="M41.7,258.2c-0.1,1.2-0.8,1.6-2.7,1.6c-2,0-6.3-1.6-7.3-2.6c-1-0.9-0.9-2.4-0.9-3.2s-1.3-1.9-1.3-1.9v1.9
			c0,0-1.6-0.3-3-1.5c0.4-0.9-0.1-4.6-0.7-5.6v-3.1l3.7,0.3l6.2,0.5c0,0-0.2,1.9,0,3c0.2,1,2.2,3.4,3.8,5.3c0.1,0.1,0.2,0.3,0.3,0.4
			C41.3,255.3,41.8,257,41.7,258.2z"/>
		<path class="st13" d="M13.2,265c-2.1,0.1-5.4-3-5.7-5.7c-0.3-1.9,0.3-4.9,0.6-7.4c-0.2,1.9,0.7,7.2,4.3,7.2c3.5,0,4-4,3.9-5.9
			c0.2,1.9,0.8,3.8,1.3,5.7C18.2,261.8,15.3,264.9,13.2,265z"/>
		<path class="st13" d="M41.7,258.2c-0.1,1.2-0.8,1.6-2.7,1.6c-2,0-6.3-1.6-7.3-2.6c-1-0.9-0.9-2.4-0.9-3.2s-1.3-1.9-1.3-1.9v1.9
			c0,0-1.6-0.3-3-1.5c0.4-0.9-0.1-4.6-0.7-5.6v-3.1l3.7,0.3v3.6c0,0,2,2.9,3.3,5.1c1.3,2.2,5.4,2.7,6.6,2.4c0.9-0.2,0.3-1.3,0.1-2.4
			c0.1,0.1,0.2,0.3,0.3,0.4C41.3,255.3,41.8,257,41.7,258.2z"/>
		<path class="st14" d="M29.7,174.5c0,0-0.1,0.4-0.2,1.1c-0.1,0.9-0.4,2.1-0.7,3.6c-0.1,0.4-0.1,0.7-0.2,1.1
			c-0.7,3.5-1.4,7.7-1.8,9.5c-0.7,3.5-1.5,9.1-2.2,14.4c-0.7,5.3-1.7,33.4-2.4,43.5c-4.2,3.5-11.5,3.5-15.6,0
			c-0.2-4.3,4.9-46.3,5.6-51.6c0.6-4.5,1.3-11,1.2-15.9c0-0.4,0-0.8,0-1.1v-0.1c0-0.4,0-0.7-0.1-1.1L29.7,174.5z"/>
		<path class="st14" d="M46.4,172.4c0,0.7-0.1,1.9-0.3,3.4c-0.8,8.3-3.2,26.2-4.1,30.5c-1,5.1-1.9,34.6-2,39.2
			c-1.6,3-12.6,3.3-15.5,0.5c0.3-2.5,2-9.6,2.2-12.1c0.2-2.5,0.5-29.1,1.1-35.2c0.5-4.6,1.9-14.2,2.7-19.7c0.3-1.7,0.5-3.1,0.6-3.7
			C31.1,175.4,43.2,173.6,46.4,172.4z"/>
		<path class="st15" d="M27.6,174.9c-0.6,3.4-2.1,11.1-2.6,13.8c-0.7,3.5-1.5,9.1-2.2,14.4c-0.7,5.3,0,33.3-4.5,42.3
			c-2.1,4.2-7.2,4.6-11.4,2.6c4.2,3.3,11.3,3.2,15.3-0.2c0.7-10.1,1.7-38.2,2.4-43.5c0.7-5.3,1.5-10.9,2.2-14.4
			c0.7-3.5,2.9-15.4,2.9-15.4L27.6,174.9z"/>
		<path class="st15" d="M44.5,173c-0.6,7.2-3.3,27.6-4.3,32.3c-1.1,5.1-1.7,34.3-2.8,38.7c-0.7,2.8-8.6,3.6-12.9,2.1
			c0,0,0,0.1,0,0.1c2.9,2.8,13.9,2.5,15.5-0.5c0.1-4.5,1-34.1,2-39.2c1.1-5.1,4.2-29.1,4.4-33.9C46,172.6,45.3,172.8,44.5,173z"/>
		<path class="st16" d="M12,86.4c1.8-4.4,1.8-7,1.8-9.9c0.1-5.2,0.1-10.3,1.8-15c2-5.4,6-7.6,7.8-7.3c1.6-1.5,4.3-1.2,6.6-0.2
			c2.3,1,5.7,2.9,7.6,8c1.8,4.9,2,12,0.6,15.6c-1.5,3.6-3.5,9-1.4,10c2.1,0.9,3,0.9,3.9,0.9c-0.6,1.5-2.5,3.5-4.3,2.6
			c0.5,0.8,0.9,1.5,1.3,1.9c-1.6-0.3-3.6-2.3-4.9-3.9c-1.3-1.6-3.6-2.7-5.4-3.5c-1.8-0.8-6.8,0.2-9.6,1.5c-2.8,1.3-6.9,2.6-7.6,3.6
			C10.5,88,12,86.4,12,86.4z"/>
		<path class="st11" d="M58.4,112.3c-0.5,1.6-4.2,14.3-6.8,12.2c-1.8-1.4-3.4-3.2-4.7-4.8c-0.6-0.7-1.1-1.4-1.5-2c0,0,0,0,0,0
			c-0.3-0.4-0.6-1.3-0.9-2.6c-1.3-4.6-2.8-13.1-2.8-13.1l-1-12c0,0,0.1,0,0.1,0c2.7,1.6,5.1,8.3,6.2,8.9c1.1,0.6,4,3.4,4.3,4.3
			c0.3,0.9,1.1,2.4,3,4.2C55.7,108.7,57.4,111.6,58.4,112.3z"/>
		<path class="st12" d="M36.4,109.6c-4.1-7-16.1-21.8-18-24.4c1.7-1.1,1.7-3.8,1.5-7c0-0.8-0.1-1.5-0.2-2.3c1,1.2,7.4,3.2,9.6,4
			c-0.1,0.9-0.2,1.8-0.2,2.5c-0.1,1.1,0,2.2,0.2,3.4C30.9,87.4,36.6,102.9,36.4,109.6z"/>
		<path class="st17" d="M29.2,79.9c-0.1,0.9-0.2,1.8-0.2,2.5c-2.7-0.8-9.4-3.8-9.4-6.5C20.6,77.2,27,79.1,29.2,79.9z"/>
		<path class="st12" d="M17.8,68.3c-0.3,3.7,0.1,8,3.4,9.9c3.3,1.9,7.3,2.5,8.5,2.3c1.2-0.2,3.9-4.5,4.8-7.4c0.6-2-0.3-3.3,0.1-4.9
			c0.4-1.6,0.3-3.1,0.2-4.2c-0.1-1-0.2-5.6-5.5-7.4C25.3,55.2,18.9,56.1,17.8,68.3z"/>
		<path class="st18" d="M36.4,66.1C36,66,32.7,65.5,31,65.5s-8.4-0.9-9.5-0.8c-1,0.1-3,2.2-3.7,2.9l-0.1,0.7c0,0,2.1-1.6,2.4-1.5
			c0.3,0.2,0.2,2.6,0.7,3.1c0.5,0.5,5.4,2,6.3,1.5c0.9-0.4,2.1-3.6,3.2-3.2c0.5,0.2,0.4,3.1,1,3.3c0.6,0.2,3.9,0.6,4.3,0
			C36.2,70.9,36.8,66.2,36.4,66.1z M35.4,71.3c0,0-0.2,0.1-1.1,0.1c-1.1,0-2.3-0.2-2.7-0.3c-0.1-0.2-0.3-1-0.3-1.4
			c-0.2-1-0.3-1.7-0.8-1.9c-0.1,0-0.2-0.1-0.3-0.1c-0.9,0-1.5,1-2.2,2c-0.3,0.5-0.8,1.1-1,1.3c0,0-0.1,0-0.4,0c-1.5,0-5-1.1-5.4-1.5
			C21.1,69.4,21,68.5,21,68c-0.1-0.9,0.2-2.9,0.6-2.9c0,0,0.1,0,0.2,0c0.7,0,2.6,0.2,4.5,0.4c2,0.2,4,0.4,4.8,0.4
			c1.4,0,4.2,0.4,5.1,0.6C36.2,67.4,35.8,70.8,35.4,71.3z"/>
		<path class="st19" d="M36,68.2c-0.1,0.6-0.2,1.3-0.3,1.8c-0.1,0.6-0.2,1.1-0.3,1.3c0,0-0.2,0.1-1.1,0.1l0,0c-0.5,0-1,0-1.5-0.1
			c-0.6-0.1-1-0.1-1.2-0.2c0-0.1-0.1-0.2-0.1-0.3c-0.1-0.3-0.2-0.8-0.2-1.1c-0.1-0.4-0.1-0.8-0.2-1.1c-0.1-0.4-0.3-0.7-0.6-0.8
			c-0.1,0-0.2-0.1-0.3-0.1c-0.9,0-1.5,1-2.2,2c-0.3,0.5-0.8,1.1-1,1.3c0,0-0.1,0-0.4,0c-0.4,0-1-0.1-1.6-0.2
			c-0.6-0.1-1.1-0.3-1.7-0.4c-0.3-0.1-0.5-0.2-0.8-0.2c-0.7-0.2-1.3-0.5-1.4-0.6c-0.2-0.2-0.2-0.9-0.3-1.4l0,0c0-0.1,0-0.1,0-0.2
			c-0.1-0.9,0.2-2.9,0.6-2.9c0,0,0.1,0,0.2,0c0.4,0,1.2,0.1,2.2,0.2l0,0c0.7,0.1,1.5,0.2,2.3,0.2c0.4,0,0.7,0.1,1.1,0.1
			c0.3,0,0.6,0.1,0.9,0.1c0.7,0.1,1.4,0.1,1.9,0.2l0,0c0.3,0,0.6,0,0.8,0c0.7,0,1.7,0.1,2.6,0.2c0.9,0.1,1.8,0.3,2.3,0.3
			c0.1,0,0.1,0,0.1,0C36.2,66.8,36.1,67.5,36,68.2z"/>
		<path class="st15" d="M29.5,175.6c-0.1,0.9-0.4,2.1-0.7,3.6c-0.1,0.4-0.1,0.7-0.2,1.1c-6,0.5-12.5,0.3-15.3,0c0-0.4,0-0.8,0-1.1
			v-0.1L29.5,175.6z"/>
		<path class="st15" d="M46.3,173.6c0,0.7-0.1,1.9-0.3,3.4c-2.9,0.7-6.7,1.5-11,2.5c-1.4,0.3-3,0.5-4.6,0.7c0.3-1.7,0.5-3.1,0.6-3.7
			C31,176.5,43,174.7,46.3,173.6z"/>
		<path class="st11" d="M48.3,166.7c-0.1,3.3-0.1,6.1-0.2,7.5c-1.6,1.2-8.1,2.5-15.9,4.2c-7.8,1.7-20.8,1.3-22.8,0.7
			c0-4.2-0.6-30.6-0.5-40.1c0.2-9.5,4.4-30.1,3.1-36.1S7.1,92.5,5.8,91.1c0.2-0.2,0.4-0.3,0.6-0.4c1.1-0.8,2.9-1.9,5-2.9l0,0
			c1.2-0.6,2.6-1.2,3.9-1.6c0,0,0.1,0,0.1,0c0.9-0.3,1.9-0.6,2.8-0.9c0.1,0,0.1,0,0.1,0c0.3,0.2,0.8,0.5,1.2,0.9l0,0
			c3.3,2.9,9.1,10.8,12.8,16.1v0l4,7.4c0-0.1-0.5-1.3-1-3c0.1,0.1,0.2,0.3,0.2,0.4c0.3-3.1-4.9-16.9-6.3-21.1
			c0.6,0.1,4.6,1.5,7.7,2.7l0,0c1.9,0.7,3.5,1.3,3.8,1.5c0,0,0.1,0,0.1,0c0.8,0.5,2.3,3.4,3.1,8.4c0.6,3.7,1.2,11.6,1.5,18.3l0,0
			c0,0.3,0,0.6,0,0.9c0,0,0,0,0,0c0,0.9,0.1,1.9,0.1,2.7c0,1.4,0.1,2.7,0.1,3.8c0,6.6,2,15.2,2.5,20.4
			C48.4,148.3,48.4,159,48.3,166.7z"/>
		<path class="st20" d="M12.9,173.6c-1.6-3.8-2.8-19.7-3.9-34.7c-0.2,9.5,0.5,35.9,0.5,40.1c2,0.7,15,1,22.8-0.7
			c7.8-1.7,14.2-2.9,15.9-4.2C36.4,176.9,15.5,179.5,12.9,173.6z"/>
		<path class="st20" d="M64.7,125.1c-2.5,0.3-11.1-0.3-12.5-1.1v0c-0.2,0-0.4-0.1-0.6-0.2c-1.8-1.4-3.4-3.2-4.7-4.8
			c-0.5-0.7-1-1.3-1.4-1.9c0-0.1-0.1-0.2-0.1-0.2c-0.1-0.1-0.1-0.2-0.2-0.4c-0.2-0.5-1.7-3.3-2.1-4.4c0.2,1.4,0.6,2.8,1,4.2
			c0.4,1.4,0.8,2.8,1.3,4.2l0.1,0c0-0.9-0.1-1.8-0.1-2.7c0.4,0.6,0.9,1.3,1.5,2c1.3,1.6,2.9,3.4,4.7,4.8c0.2,0.1,0.4,0.2,0.6,0.2v0
			c1.5,0.8,10.2,1.4,12.6,1.1C64.7,125.6,64.7,125.3,64.7,125.1z"/>
		<path class="st16" d="M24.5,56.9c2.4,0.4,7.3,0.6,9.6,4c0.5-2.6-5.2-6.6-10-4.8L24.5,56.9z"/>
		<path class="st21" d="M37.9,117c-1.2-2.5-4.9-7.4-7.1-9.5S20,98.6,18.6,97.2c0.6-1.1,2.1-4,1.9-4.5c-1.1-0.3-2.4,0.3-4.4,0.5
			c-0.6-0.9-1.5-3.8-4.6-5.4c0.6-0.5,2.3-1.1,3.9-1.6c0,0,2.6-0.8,2.9-0.9c0.1,0,0.1,0,0.1,0l1.2,0.9c0,0,8.6,11.2,12.3,16.5l0,0
			l4.6,7C36.4,109.6,37.3,112.9,37.9,117z"/>
		<path class="st22" d="M37.9,117c-1.2-2.5-4.4-7.8-6.6-9.9c-2.2-2.1-10.8-8.9-12.2-10.3c0.6-1.1,2.1-4,1.9-4.5
			c-1.1-0.3-2.4,0.3-4.4,0.5c-0.6-0.9-2.1-3.4-5.1-5c0.6-0.5,2.3-1.1,3.9-1.6c0,0,0.1,0,0.1,0c1.3-0.4,2.4-0.7,2.8-0.9
			c0.1,0,0.1,0,0.1,0l1.2,0.9l0,0c3.3,2.9,9.1,10.8,12.8,16.1v0l4,7.4v0v0l0,0C36.5,110,37.3,112.9,37.9,117z"/>
		<path class="st21" d="M37.9,117l-1.5-7.4c0,0-0.5-1.4-1.1-3c-1.1-3.2-2.8-7.9-3.3-9.3c-0.6-1.5-1.7-6.3-2.3-9.2l-0.5-2.2
			c0.6,0.1,4.6,1.5,7.7,2.7c0,0,1.4,2.6,1.7,3.1c-0.6,0.2-1.5,1.1-1.5,1.1s1.7,1.4,2.5,2.8C39,98,37,107.5,37.9,117z"/>
		<path class="st22" d="M37.9,117l-1.5-7.4l0,0v0c0,0,0,0,0,0c0-0.1-0.5-1.3-1-3c-1.1-3.2-2.8-7.9-3.3-9.3c-0.6-1.5-1.7-6.3-2.3-9.2
			c0,0,0,0,0,0c-0.3-1.3-0.4-2.2-0.4-2.2c0.6,0.1,4.6,1.5,7.7,2.7l0,0c0,0,0.6,2.6,1,3.1c-0.6,0.2-1.5,1.1-1.5,1.1s1.7,1.4,2.5,2.8
			C38.3,98,37,107.5,37.9,117z"/>
		<path class="st21" d="M37.5,115.2c0.7,5.1,1,10.2,1.4,15.3c0.2,2.5,0.4,5.1,0.6,7.7l0.3,3.8c0.1,1.3,0.2,2.5,0.3,3.8
			c0.1,2.6,0.1,5.1,0.1,7.7c0,2.6,0,5.1,0,7.7c0,2.6,0,5.1,0,7.7c0,1.3,0,2.5,0,3.8c0,0.6,0,1.3,0.1,1.9c0,0.6,0.1,1.3,0.2,1.9
			c-0.3-1.2-0.3-2.5-0.4-3.8c-0.1-1.3-0.1-2.6-0.2-3.8c-0.1-2.6-0.1-5.1-0.1-7.7c-0.1-5.1,0-10.2-0.2-15.3c0-1.3-0.1-2.5-0.2-3.8
			l-0.3-3.8c-0.2-2.6-0.3-5.1-0.5-7.7l-0.5-7.7C37.9,120.3,37.8,117.8,37.5,115.2z"/>
		<path class="st21" d="M33.7,146.8c0,0,2.1,21.9,2.1,23.3c-2.7,0.6-19.2,2.6-20.8,1.9c-0.4-3.5-1.1-21-0.9-23.1
			C18.3,148.5,28.2,147.5,33.7,146.8z"/>
		<path class="st22" d="M33.7,146.8c0,0,2.1,21.9,2.1,23.3c-2.7,0.6-19.2,2.6-20.8,1.9c-0.4-3.5-1.1-21-0.9-23.1
			C16.1,149.5,31.4,148.1,33.7,146.8z"/>
		<path class="st21" d="M48.3,166.7c-1.9,0.5-4.1,1-4.8,1c0.1-1.7,0.4-18.7,0-22.5c1-0.2,3.7-1.3,4.6-0.6
			C48.4,148.3,48.4,159,48.3,166.7z"/>
		<path class="st22" d="M48.3,166.7c-1.9,0.5-4.1,1-4.8,1c0.1-1.7,0.4-18.7,0-22.5c1-0.2,4.6-0.6,4.6-0.6
			C48.4,148.3,48.4,159,48.3,166.7z"/>
		<g class="st23">
			<path class="st24" d="M27.3,65.6l-4.7,4.6c-0.7-0.2-1.3-0.5-1.4-0.6c-0.2-0.2-0.2-0.9-0.3-1.4l0,0l3-2.9l0,0
				c0.7,0.1,1.5,0.2,2.3,0.2C26.6,65.5,27,65.6,27.3,65.6z"/>
		</g>
		<g class="st23">
			<path class="st24" d="M30.2,65.9l-5.1,5c-0.6-0.1-1.1-0.3-1.7-0.4l4.8-4.8C29,65.8,29.7,65.8,30.2,65.9z"/>
		</g>
		<g class="st23">
			<path class="st24" d="M36,66.5l-4.4,4.4c-0.1-0.3-0.2-0.8-0.2-1.1c-0.1-0.4-0.1-0.8-0.2-1.1l2.5-2.5C34.6,66.2,35.5,66.4,36,66.5
				z"/>
		</g>
		<g class="st23">
			<path class="st24" d="M36,68.2c-0.1,0.6-0.2,1.3-0.3,1.8l-1.4,1.4l0,0c-0.5,0-1,0-1.5-0.1L36,68.2z"/>
		</g>
		<path class="st16" d="M24.5,56.9c-1.8,1.2-2.7,1.9-3.2,3.7c-0.5,1.8-0.3,3.5-0.6,4.5c-0.9,1.1-2.5,2.2-1.9,5.5
			c0.6,3.3,1.3,9.2,2.8,12c1.5,2.7,1.2,5.2,0.3,7c-0.9,1.8-2.7,3.4-3.2,5.1c-0.2-1.8-0.1-2.7,0-3.8c-1,1.9-1.2,2-1.9,2.4
			c0.1-1.4,0.6-3,0-3.4c-0.6-0.4-2.9-1.4-4-0.9c1.8-1.8,2-1.4,2.3-6.2s0.1-15.6,0.9-18.2c0.8-2.7,5.6-8.4,8.2-8.4
			C24.5,56.9,24.5,56.9,24.5,56.9z"/>
		<g>
			<path class="st25" d="M31.6,109.6l-5.3-1.3c-0.1,0-0.1-0.1-0.1-0.2l0.3-1.1c0-0.1,0.1-0.1,0.2-0.1l5.4,1.3L31.6,109.6z"/>
			<polygon class="st26" points="31.9,108.3 31.6,109.6 31.3,109.5 31.6,108.2 			"/>
			<polygon class="st26" points="26.6,108.3 26.9,107 27.1,107.1 26.8,108.4 			"/>
			<polygon class="st25" points="31.9,108.4 32,108.4 38,109.9 38.5,110.1 38.3,111 37.8,110.9 31.8,109.5 31.7,109.5 			"/>
			<polygon class="st26" points="38,109.9 38.5,110.1 38.3,111 37.8,110.9 			"/>
			<polygon class="st25" points="40.8,110.7 40.6,111.6 38.3,111 38.5,110.1 			"/>
			<polygon class="st27" points="38.3,110.9 40.7,111.5 40.7,111.2 38.4,110.6 			"/>
			<path class="st8" d="M42.2,111.4c0.2,0.1,0.2,0.2,0,0.2h-0.4l0.1-0.4L42.2,111.4z"/>
			<polygon class="st26" points="40.8,110.7 41.8,111.2 41.8,111.6 40.6,111.6 			"/>
			<path class="st27" d="M42.1,111.6C42.3,111.6,42.4,111.5,42.1,111.6l-1.4-0.3l-0.1,0.2L42.1,111.6z"/>
			<path class="st26" d="M31.2,109.8l0,0.1c0,0.2-0.2,0.2-0.4,0.2l-3.9-1c-0.2,0-0.3-0.3-0.3-0.5l0.1-0.3l0.2,0.1l-0.1,0.3
				c0,0.1,0,0.1,0.1,0.1l3.9,1c0.1,0,0.1,0,0.1,0l0-0.1L31.2,109.8z"/>
			<path class="st27" d="M26.2,107.8l0,0.1c0,0.1,0,0.1,0.1,0.1l5.4,1.3l0.1-0.2L26.2,107.8C26.3,107.8,26.3,107.8,26.2,107.8z"/>
			<polygon class="st27" points="31.7,109.1 31.7,109.4 37.8,110.8 38.3,110.9 38.4,110.6 37.9,110.5 			"/>
			<polygon class="st21" points="31.6,109.5 31.9,108.4 32.1,108.4 31.8,109.5 			"/>
		</g>
		<path class="st28" d="M28.5,114.3c4.7,3.2,5.5,8.8,4.9,11.6C30.6,124.5,27.2,117.2,28.5,114.3z"/>
		<g>
			<path class="st12" d="M29.4,121.9c1.9-1.2,3.8-2.2,4.9-3c1.2-0.9,3.2-2.4,4.6-4.5c0.2-0.3,0-1.3-0.3-1.1c1.1-1,1-2.7,0.4-2.5
				c0.5-0.1,0.8-0.3,1-0.5c0.2-0.3-0.2-1.7-1.3-1.9c-0.5-0.5-1.4-1.4-2.4-1.1c-1,0.3-4,1.6-4.6,2.5c-0.6,0.9-1.5,2.6-2.7,5.5
				c-0.3,0.8-2.2,2.2-2.2,2.2L29.4,121.9z"/>
			<path class="st17" d="M38.6,108.3c-0.3,0-0.6,0.1-1,0.2c-0.3,0.1-0.6,0.2-0.9,0.3c-0.6,0.2-1.2,0.5-1.8,0.8
				c0.2-0.3,0.5-0.5,0.8-0.7c0.3-0.2,0.6-0.3,0.9-0.5s0.6-0.2,1-0.3C38,108.2,38.3,108.2,38.6,108.3z"/>
			<path class="st17" d="M39,110.7c-0.3,0-0.5,0.1-0.8,0.2c-0.3,0.1-0.5,0.2-0.7,0.4c-0.5,0.3-1,0.5-1.5,0.8
				c0.2-0.3,0.4-0.5,0.6-0.7c0.2-0.2,0.5-0.3,0.7-0.5c0.3-0.1,0.5-0.3,0.8-0.3C38.4,110.6,38.8,110.6,39,110.7z"/>
			<path class="st17" d="M38.6,113.3c-0.3,0.3-0.6,0.4-0.9,0.5c-0.3,0.1-0.6,0.2-1,0.2c0.3-0.3,0.5-0.4,0.9-0.5
				C38,113.3,38.3,113.2,38.6,113.3z"/>
		</g>
		<path class="st11" d="M33.4,125.9c-2.2,2.1-20.3,10.3-23.3,11.5c-3,1.1-6.4-2.1-6.9-4.5c-0.5-2.5-2.5-14.9-2.9-26.4
			c-0.4-9.9,2.5-12.7,5.6-15.3c3,2,6.2,7.2,6.9,13.2c0,0,0,1.1,0.1,2.7c0.2,4.1,0.5,11.7,1.3,14.7c2.7-0.9,11.5-5.4,14.4-7.4
			c0,0.4-0.3,1.5-0.3,1.9C28.4,119.1,30,123.1,33.4,125.9z"/>
		<path class="st21" d="M10.1,136.2c-3,1.1-6.4-2.1-6.9-4.6c-0.5-2.5-2.5-14.9-2.9-26.4c0-0.4,0-0.9,0-1.3c0,0.8,0,1.5,0,2.4
			c0.5,11.5,2.5,23.9,2.9,26.4c0.5,2.5,3.8,5.7,6.9,4.5c3-1.1,21.1-9.4,23.3-11.5C33.2,125.6,12.9,135.1,10.1,136.2z"/>
		<path class="st20" d="M17.7,121c-2.2,1.2-2.6,3.6-2.6,4.6c-0.1-0.7-0.3-2.4-1-2.7c-2.7-1-3.6,3.4-5.6,5.9c1.2-3.8,2.2-7.6,0-6.8
			c1.3-1.7,2.4-3.4,2.9-4.9c0.5-1.5,1.4-9.7,1.5-10.1c0.2,4.1,0.5,11.7,1.3,14.7c2.7-0.9,11.5-5.4,14.4-7.4
			C28.5,114.7,20.4,119.6,17.7,121z"/>
		<path class="st29" d="M64.7,125.9c2.9,0,5-18-1.1-11.6c-2.8,3-3.8,4.1-3.4,6.2C60.7,123.3,61.9,125.9,64.7,125.9z"/>
		<path class="st30" d="M64.7,122.7c2.7,0,4.6-13.6-1-8.7c-2.6,2.2-3.5,3.1-3.2,4.7C61,120.7,62,122.7,64.7,122.7z"/>
		<g>
			<polygon class="st31" points="75.5,97 49.5,127.7 49.5,127 51,121.7 72.2,96.3 73.6,94.7 75.5,96.2 			"/>
			<polygon class="st32" points="75.5,96.2 49.5,127 49.9,122.2 51,120.9 72.2,95.6 73.6,93.9 			"/>
			<polygon class="st24" points="73.5,97.1 50.7,124.1 50.9,121.9 72.5,96 			"/>
			<polygon class="st30" points="75.5,95.2 74.5,96.5 73,95.1 74.1,93.9 			"/>
		</g>
		<g>
			<path class="st12" d="M60.9,118.5c0.4,0.1,1.8-0.6,2.4-1c0.6-0.4,2.1-0.9,2.5-1.9c0.4-1,1.4-2.5,1.3-3.4c-0.1-1-0.3-2.1,0-2.7
				c0.3-0.6-0.4-1.9-1.1-1.5c-0.7,0.4-1.8,0.5-1.7,1.9c-0.4-0.3-1.5-0.9-1.8-1.1c-0.4-0.2-1.7,0.5-1.5,1.3c-0.5-0.5-1.5,0.8-1.4,1.5
				c-0.5-0.3-1,0.6-0.9,0.7c-0.3-0.1-1.7,1.4-1.5,2.1C57.4,115.2,59.7,118.3,60.9,118.5z"/>
			<g>
				<path class="st17" d="M58.4,112.5c-0.1,0.4,0.1,0.8,0.2,1.1c0.1,0.2,0.2,0.3,0.3,0.4l0.4,0.4c0.5,0.6,1,1.2,1.4,1.8
					c-0.6-0.5-1.2-1-1.7-1.6l-0.4-0.4c-0.1-0.1-0.3-0.3-0.3-0.5c-0.1-0.2-0.1-0.4-0.1-0.6C58.3,112.9,58.3,112.6,58.4,112.5z"/>
				<path class="st17" d="M59.6,111.7c0.5,0.4,0.9,0.8,1.3,1.3c0.4,0.5,0.7,1,1,1.5c-0.5-0.4-0.9-0.8-1.3-1.3
					C60.2,112.8,59.8,112.3,59.6,111.7z"/>
				<path class="st17" d="M60.9,110.2c0.5,0.4,1,1,1.5,1.5l0.7,0.8c0.2,0.2,0.5,0.5,0.8,0.7c-0.4,0-0.7-0.3-0.9-0.5
					c-0.3-0.2-0.5-0.5-0.8-0.7C61.7,111.4,61.3,110.8,60.9,110.2z"/>
				<path class="st17" d="M64.3,110c0.2,0.1,0.3,0.1,0.5,0.2l0.5,0.2l0.5,0.2c0.2,0.1,0.3,0.1,0.5,0.2c-0.2,0.1-0.4,0.1-0.6,0.1
					c-0.2,0-0.4-0.1-0.5-0.1s-0.3-0.2-0.5-0.3C64.5,110.3,64.3,110.2,64.3,110z"/>
			</g>
		</g>
	</g>
	<g>
		<g>
			<path class="st33" d="M225.8,74c0.2,0.4,0.9,0.6,1.6,0.5c0,0,0,0.1,0.1,0.1c0,0.1,0.1,0.2,0.1,0.3c0,0,0,0.1,0,0.1
				c0,0.3,0,0.6,0,0.8c0,0.2,0,0.4,0.1,0.5c0.1,0.2,0.7,0.3,1,0.3c-0.6,0.2-0.8,0.4-0.6,0.7c0,0,0,0,0,0.1c0.1,0.1,0.2,0.2,0.3,0.2
				c0.4,0.3,1,0.4,1.1,0.8c0.1,0.2,0,0.7,0,1.2c0,0.2,0,0.4,0,0.6c0,0.2,0.1,0.5,0.2,0.6l0.1,0.1c0.2,0.2,0.5,0.3,0.9,0.4
				c0.7,0.2,1.7,0.1,2.5-0.3c0.2-0.1,0.3-0.1,0.5-0.2c0.4-0.2,0.7-0.3,0.9-0.5c0.3-0.2,0.5-0.3,0.6-0.4c0,0,0.1,0,0.1,0
				c0.1-0.1,0.2-0.2,0.3-0.3c0.1-0.1,0.2-0.2,0.3-0.2l0,0c0.2-0.1,0.4-0.1,0.5,0c0,0,0.1,0,0.1,0.1c0.1,0.2,0.4,1.1,0.8,2.3
				c0.5,1.7,1.1,3.7,1.1,4.3c2.1,1.4,8.7-3.3,8.4-4.4c-0.4-1.9-0.8-8-0.9-8.6v0l0-0.2l0-0.3c0,0,0,0,0-0.1c0,0,0,0,0,0
				c0,0,0-0.1,0-0.1l-0.1-0.4c0-0.1,0-0.2,0-0.3c0-0.1,0-0.2,0-0.3c0-0.1,0-0.1,0-0.2c0-0.1,0-0.2,0.1-0.3c0,0,0,0,0,0
				c0-0.1,0.1-0.3,0.1-0.5c0-0.1,0-0.3,0.1-0.4c0,0,0,0,0,0c0-0.1,0-0.1,0-0.1c0-0.2,0.1-0.3,0.1-0.5c0.1-0.4,0.2-1,0.3-1.5
				c0-0.2,0.1-0.4,0.1-0.6c0-0.1,0-0.2,0-0.3c0-0.3,0.1-0.5,0.1-0.8l0,0c0,0,0,0,0,0l0,0c0-0.1,0-0.2,0-0.3c0-0.1,0-0.2,0-0.3
				c0-0.2,0-0.4,0-0.6c0-0.1,0-0.2,0-0.3c0-0.1,0-0.2,0-0.3v-0.1c0-0.1,0-0.2,0-0.3c0-0.1,0-0.1,0-0.2s0-0.1,0-0.2
				c0-0.1,0-0.1,0-0.2c0-0.2,0-0.3,0-0.5c0-0.2,0-0.4-0.1-0.5c0-0.1,0-0.2-0.1-0.3c0-0.1,0-0.2-0.1-0.2c0-0.1,0-0.1,0-0.2l0,0
				c-0.3-0.8-0.7-1.7-1.4-2.7c-0.1-0.2-0.3-0.4-0.4-0.5c-0.1-0.2-0.3-0.4-0.5-0.5c-0.2-0.3-0.5-0.5-0.8-0.8l0,0
				c-0.2-0.2-0.4-0.3-0.6-0.5c-0.1-0.1-0.2-0.1-0.3-0.2c-0.2-0.1-0.4-0.3-0.7-0.4c-1.4-0.8-3-1.2-4.9-1c-0.6,0.1-1.2,0.2-1.8,0.4
				c-0.4,0.1-0.8,0.2-1.1,0.4c-0.2,0.1-0.4,0.1-0.5,0.2c-0.1,0-0.3,0.1-0.4,0.1c-0.2,0.1-0.4,0.2-0.7,0.3c-0.1,0.1-0.3,0.1-0.4,0.2
				c-0.6,0.3-1.1,0.5-1.5,0.8c-0.2,0.1-0.4,0.3-0.6,0.4c0,0-0.1,0.1-0.1,0.1c-0.1,0.1-0.2,0.1-0.2,0.2c-0.6,0.4-1,0.9-1.3,1.3
				c-0.2,0.2-0.3,0.4-0.4,0.7l0,0c0,0,0,0,0,0h0c-0.2,0.4-0.3,0.7-0.4,0.9c0,0,0,0,0,0c0,0,0,0,0,0c0,0,0,0,0,0
				c-0.7,1.6-0.9,4.7-0.7,5.9c0,0,0,0.1,0,0.1c0,0.1,0,0.2,0.1,0.3c0,0.1,0.1,0.3,0.1,0.5c0.1,0.4,0.1,0.8,0.1,1.3
				c0,0.2,0,0.5,0,0.7c0,0.5-0.1,1-0.3,1.4c-0.1,0.2-0.1,0.3-0.2,0.4C226,72.7,225.6,73.6,225.8,74z"/>
			<path class="st34" d="M227.8,74.2c-0.3-0.1-0.6-0.1-0.7-0.1c-0.1,0-0.4,0.1-0.4-0.1C226.7,73.8,227.2,73.7,227.8,74.2z"/>
			<path class="st34" d="M228.6,73.6c0.1-0.1,0.3-0.1,0.4-0.2c0.1-0.1,0.2-0.2,0.3-0.3c0.1-0.1,0.1-0.3,0-0.4c0-0.1-0.1-0.3-0.1-0.4
				c0.1,0.1,0.2,0.2,0.2,0.4c0.1,0.1,0.1,0.3,0,0.5c-0.1,0.1-0.2,0.3-0.3,0.3C228.9,73.6,228.7,73.6,228.6,73.6z"/>
			
				<linearGradient id="SVGID_1_" gradientUnits="userSpaceOnUse" x1="2028.9402" y1="242.4857" x2="2026.7203" y2="249.7856" gradientTransform="matrix(-0.9862 0.1655 -0.1655 -0.9862 2277.3352 -26.3365)">
				<stop  offset="0" style="stop-color:#544341"/>
				<stop  offset="1" style="stop-color:#2B272A"/>
			</linearGradient>
			<path class="st35" d="M232.8,60.8c-0.2,0.6-0.7,1.2-0.9,1.5c-0.4,0.4-0.3,1.8-0.3,2.3c0.4,0,1.1-0.2,2.4,0.6
				c1.3,0.8,1.1,4.9,1.1,4.9s2.3,0.3,2.6,0.3c0.2-3.2,1.5-3.9,2.4-4c1,0,2,0.9,2,3c0,2.1,0.9,3.3,2.2,3.6c0.6,0.1,1.1,0.1,1.6,0
				c-0.1-0.3-0.1-0.6-0.1-0.9c0-0.4,0-0.7,0-0.9c0.1-0.9,0.6-3,0.8-5.1l0,0c0.2-1.6,0.2-3.3-0.2-4.6c-0.9-3-4.8-8.1-11.3-6.2
				c-6.5,2-7.3,4.6-7.7,5.5c2.4-1.7,4.1-1.7,5-1.2C232.9,59.9,232.9,60.3,232.8,60.8z"/>
			<path class="st36" d="M225.8,74c0.1,0.2,0.4,3.1,1.6,5c1,1.6,3.1,2.4,3.3,2.4c0.7,0.2,1.7,0.1,2.5-0.3c0.2-0.1,0.3-0.1,0.5-0.2
				c0.4-0.2,0.7-0.3,0.9-0.5c0.3-0.2,0.5-0.3,0.6-0.4c0,0,0.1,0,0.1,0c0.1-0.1,0.2-0.2,0.3-0.3c0.1-0.1,0.2-0.2,0.3-0.2l0,0
				c0,0,0,0,0.1-0.1c0,0-2.5-4.3-1.6-8.2c-1.8,0.9-4.6,1.6-7.9,0.2l0,0.1C226,72.7,225.6,73.6,225.8,74z"/>
			<path class="st36" d="M234.5,71.3c1.4-1.5,2.8-2.8,4.4-3.9c0.8-0.4,1.8-1.1,2.5-0.5c0.7,0.5,1,1.6,0.9,2.5
				c-0.1,2-1.6,3.5-2.6,5.2c-1.1,1.6-2.2,3.4-3.6,4.8c1.5-1.3,2.7-3,3.9-4.6c0.6-0.8,1.2-1.6,1.7-2.5c0.6-0.8,1-1.9,1.1-3
				c0.1-1.1-0.2-2.3-1.2-3c-0.4-0.4-1.1-0.3-1.6-0.1c-0.5,0.2-0.9,0.4-1.3,0.7C237.1,68.2,235.7,69.7,234.5,71.3z"/>
		</g>
		<g>
			<path class="st18" d="M234.8,68.1c0,0.1,0,0.1,0,0.2c0,0.2-0.1,0.3-0.2,0.5c-0.7,0.8-1.6,2-2.1,2.2c-0.1,0-0.1,0.1-0.2,0.1
				c-0.1,0-0.1,0-0.2,0.1c-0.2,0-0.4,0.1-0.8,0.1c-0.1,0-0.2,0-0.3,0c-0.1,0-0.2,0-0.3,0c-0.2,0-0.3,0-0.5,0h0c-0.3,0-0.7,0-0.9,0
				c-0.2,0-0.3,0-0.3,0h0c0,0,0,0-0.1,0c-0.2-0.1-0.5-0.5-0.7-0.9c0-0.1-0.1-0.2-0.2-0.3c0,0,0,0,0-0.1c0-0.1-0.1-0.1-0.1-0.2
				c-0.2-0.4-0.5-0.7-0.8-0.9c0,0,0,0-0.1,0c0,0.2,0,0.5,0,0.7c0.3,0.2,0.5,0.6,0.7,0.9c0.2,0.4,0.8,1.2,1.2,1.2s2.6,0.2,3.7-0.3
				c0.8-0.3,1.8-1.6,2.6-2.4c0.3-0.3,0.6-0.6,0.8-0.8c0.6-0.4,1.3-0.3,1.7-0.2c0.1,0,0.2,0,0.2,0c0-0.1,0-0.1,0-0.2
				c0-0.4-0.1-0.9-0.1-0.9s-1.6,0.1-2.8,0.2c-0.5,0-0.8,0-1,0c-0.7,0-5.4-0.2-6.7-0.2h-0.4c0,0.1,0,0.2,0.1,0.3c0.1,0,0.2,0,0.3,0
				h0.1c0.6,0,1.7,0,2.8,0.1c0.5,0,1,0,1.4,0.1c0.3,0,0.5,0,0.7,0c0.3,0,0.6,0,0.9,0c0.5,0,0.9,0,1,0c0,0,0,0,0,0s0,0,0,0
				c0,0,0,0,0.1,0c0.1,0,0.1,0.1,0.2,0.1c0,0,0.1,0.1,0.1,0.1c0,0,0.1,0.1,0.1,0.1c0,0,0.1,0.1,0.1,0.1
				C234.8,68,234.8,68.1,234.8,68.1z"/>
			<path class="st19" d="M227.1,67.2c-0.1,0-0.2,0-0.3,0c0,0.1,0.1,0.3,0.1,0.5c0.1,0.4,0.1,0.8,0.1,1.3c0,0,0.1,0,0.1,0
				c0.3,0.2,0.6,0.5,0.8,0.9c0,0,0.1,0.1,0.1,0.2c0,0,0,0,0,0.1c0.1,0.1,0.1,0.2,0.2,0.3c0.2,0.4,0.5,0.8,0.7,0.9c0,0,0,0,0.1,0h0
				c0.1,0,0.2,0,0.3,0c0.2,0,0.5,0,0.9,0h0c0.2,0,0.4,0,0.5,0c0.1,0,0.2,0,0.3,0c0.1,0,0.2,0,0.3,0c0.3,0,0.6-0.1,0.8-0.1
				c0.1,0,0.1,0,0.2-0.1c0.1,0,0.2-0.1,0.2-0.1c0.6-0.3,1.5-1.4,2.1-2.2c0.1-0.2,0.2-0.3,0.2-0.5c0-0.1,0-0.1,0-0.2
				c0-0.1,0-0.1-0.1-0.2c0,0-0.1-0.1-0.1-0.1c0-0.1-0.1-0.1-0.1-0.1c0,0-0.1-0.1-0.1-0.1c-0.1-0.1-0.1-0.1-0.2-0.1c0,0,0,0-0.1,0
				c0,0,0,0,0,0c0,0,0,0,0,0c-0.2,0-0.5,0-1,0c-0.3,0-0.6,0-0.9,0c-0.1,0-0.2,0-0.3,0c-0.1,0-0.3,0-0.4,0c-0.2,0-0.5,0-0.7,0
				c-0.2,0-0.5,0-0.7,0C228.9,67.3,227.8,67.2,227.1,67.2L227.1,67.2L227.1,67.2z"/>
			<g class="st23">
				<path class="st24" d="M226.8,67.2c0,0.1,0.1,0.3,0.1,0.5l0.3-0.5h-0.1C227,67.2,226.9,67.2,226.8,67.2z"/>
			</g>
			<g class="st23">
				<path class="st24" d="M231.9,67.3l-2.9,4c-0.1-0.1-0.5-0.5-0.7-1c0-0.1-0.1-0.2-0.2-0.3l2-2.7c0.5,0,1,0,1.4,0.1
					C231.6,67.3,231.7,67.3,231.9,67.3z"/>
			</g>
			<g class="st23">
				<path class="st24" d="M234.2,67.4l-2.8,3.9c-0.3,0-0.7,0.1-1.1,0.1l2.9-4C233.6,67.4,234,67.4,234.2,67.4
					C234.2,67.4,234.2,67.4,234.2,67.4z"/>
			</g>
		</g>
		<path class="st11" d="M231.1,113.1c-0.9,5.5-2.6,29.8-2.6,34.9c0,3.1,0.3,8,0.6,12.3c0.2,2.9,0.4,5.5,0.5,7.2
			c0,0.6,0.3,1.4,0.6,2.3c2,5.4,8.6,14.8,10.6,20.5c1.7,4.8,6.2,12.4,9.4,17.5c0.6,1,1.2,1.9,1.7,2.7c0,0,0,0,0,0
			c0.5,0.7,0.9,1.3,1.1,1.8c2.1,3.2,10.2,15.2,13.3,18.8s5.1,7.1,6.2,8.9c1,1.8,3.5,4,4.7,4.7c0.1,0.8-0.6,3.8-1,5.2
			s-2.9,2.3-5.6,2.4c-2.7,0.1-3.6,2.3-4,3.6s2.1,4,3.7,4.1c1.7,0.1,9.4,0,12.2,0c0.1,0,0.1,0,0.2,0c0.2,0,0.4-0.1,0.6-0.1
			c2.3-0.8,4.1-4.5,5.3-5.8c0.4-0.4,0.8-0.7,1.3-1c1.2-0.7,2.6-1.2,3.2-1.6c0.9-0.7,5.3-4.5,6.8-6c0.3-2,0.5-4.8-0.8-6.4
			c-1.2-1.5-5.2-4.4-7.3-4.9c-0.6-3.6-3.7-7.8-6.2-10.5c-2.4-2.7-4.7-5.6-7.5-9.7c-2.8-4.1-5-9.6-7.5-13.3c-2.4-3.8-5.4-5.5-6.8-8.8
			c-1.4-3.3-0.7-14.2-0.7-16.3c0.1-2.1-0.9-4.2-0.9-6.6c0.1-2.4,1.7-5.3,2.4-7.2c0.8-1.9-0.3-5.3,0.6-7.7c0.9-2.4,1.3-23.3,0.8-29.5
			c-0.6-6.2-2.2-13.5-2.7-17.6c-0.5-4.1-0.2-11.5-1.7-15.9c-1.5-4.4-6.6-10.1-8.4-11.9c-1.8-1.8-1.7-3.1-2.4-4.9
			c-0.8-1.8-0.4-12.8-1.2-15.6c-1.2-4.3-5.3-6.9-6.7-7.4c-1.4-0.5-2.3-1.2-2.7-1.4c-1.1-0.5-4.9,1.3-6.7,1.9
			c-0.3,0.1-0.5,0.3-0.8,0.5c-1.9,1.5-5.9,6.1-5.8,10.7c1.1,0.9,3.5-0.6,6.8,2.2c3.1,2.7,2.8,10.8,2.5,14.5c0,0.2,0,0.3,0,0.4
			c-0.4,3.5-0.9,9.4-1.7,12C233.5,94.7,232,107.6,231.1,113.1z"/>
		<path class="st11" d="M211.8,261.5l0.3,0.2c1.2,0.9,2.6,1.5,3.9,1.8c2.2,0.4,12.6,0.6,19.9,0.5c3.7,0,6.6,0,7.3-0.1
			c2.1-0.1,3.7-3.1,3.9-4.4c0.2-1.3-0.6-4-1.2-4.8c0.9-1.1,1.5-3.1,2.1-4.4c0.6-1.4,0.4-17.3,0.1-21.7c-0.4-4.4,1-7.8,1.9-14.1
			c0.4-2.7,0.3-4.8,0.2-6.7c-0.1-2.5-0.3-4.7,0.4-7.4c1.2-4.7,5.5-13.6,7.5-19c2-5.3,3.6-17.6,4.3-22.8c0,0-22.3-1.6-31.3,0.9
			c-0.8,0.2-1.5,0.5-2,0.7c-0.2,3.3-0.3,21,0.2,28.4c0.6,7.4-1.5,24.5-1.8,27.3c-0.3,2.8-0.7,13.1-0.8,17.5
			c-0.1,4.4,0.1,15.5-0.4,17.6c-1.6,1.8-10.5,1-11.8,1.2c-1.3,0.2-3.7,0.5-5,3.9C208.9,258.2,210.1,260.1,211.8,261.5z"/>
		<path class="st37" d="M232.6,52.3c5.7-2.7,11-0.3,13.6,2.6c2.6,2.9,3.6,12.3,2.8,13.2c-0.7,0.9-0.8,4.5-1.1,4.9
			c-0.3,0.5,0.3,2.4-2,3c-0.4,0.1-0.7,0.1-1,0.1c3.4,1.2,7.5,2.4,7.2,3.3c-0.4,1.4,2.4,3.6,4,7c1.6,3.3,3.7,8.8,4.4,11.1
			c0.7,2.3,0.3,11.2,0.2,17.2c-0.2,5.9,1.9,9.7,2.9,15.2c1,5.5-3.5,5.5-5.1,6.7c-1.6,1.2-2.6,4.7-3.2,7.3c-0.6,2.6,2.8,3.2,3.2,5.6
			c0.4,2.4,3.5,6.1,3.8,8.4c0.3,2.3-3.9,7.4-1.7,9.7c2.3,2.3-0.7,12.5-1.3,14.1c-0.6,1.5-0.6,2.1,0.2,4.1c0.3,0.7,1.9,3.4,1.6,5.3
			c-0.3,1.9,3.7,6.5,6.1,9.1c2.4,2.5,3.8,5.1,5.6,7.1c1.9,2,2.3,6.6,2.8,8.6c0.5,1.9,4.3,9.3,6.6,10.4c2.2,1.2,5.6,4.6,5.4,6.2
			s3.5,4,4.3,5.7c0.8,1.7,2,6.2,2.9,5.9c1-0.3,0.5-2.2,1.5-2.4c1.1-0.2,3.2,2,2.3,3.4c-0.9,1.4-5.7,1.7-6.7,1c2.3,4.4-2.2,7.4-2,7.6
			c1.2-0.7,2.6-1.2,3.2-1.6c0.9-0.7,5.3-4.5,6.8-6c0.3-2,0.5-4.8-0.8-6.4c-1.2-1.5-5.2-4.4-7.3-4.9c-0.6-3.6-3.7-7.8-6.2-10.5
			c-2.4-2.7-4.7-5.6-7.5-9.7c-2.8-4.1-5-9.6-7.5-13.3c-2.4-3.8-5.4-5.5-6.8-8.8c-1.4-3.3-0.7-14.2-0.7-16.3c0.1-2.1-0.9-4.2-0.9-6.6
			c0.1-2.4,1.7-5.3,2.4-7.2c0.8-1.9-0.3-5.3,0.6-7.7c0.9-2.4,1.3-23.3,0.8-29.5c-0.6-6.2-2.2-13.5-2.7-17.6s-0.2-11.5-1.7-15.9
			c-1.5-4.4-6.6-10.1-8.4-11.9c-1.8-1.8-1.7-3.1-2.4-4.9c-0.8-1.8-0.4-12.8-1.2-15.6c-1.2-4.3-5.3-6.9-6.7-7.4
			c-1.4-0.5-2.3-1.2-2.7-1.4c-1.1-0.5-4.9,1.3-6.7,1.9C233.2,51.8,232.9,52,232.6,52.3z"/>
		<path class="st37" d="M211.8,261.5l0.3,0.2c-0.4-3.7,0.1-6.9,3-7.3c2.9-0.4,12.3,1.6,14.4,0c2.1-1.6,1.9-4.9,0-8.1
			c-1.9-3.2-1.4-9.2-0.8-11c0.6-1.8,3.6-12.4,3.4-17.6c-0.2-5.2-2-8.3-2.3-11.7c-0.3-3.4,2-11.5,2-18.4c-0.1-6.9-2.3-12.3-1.9-15
			c0.1-0.6,0.2-1.6,0.4-2.7c0.4-2.9,0.9-7,0.9-10.3c0-1,0-2,0-2.8c-0.3-4.5,0.5-29.8,2.1-34.6c1.7-4.8,4.6-7.9,4.1-11
			c-0.5-3.1-2.5-6.4-2.5-10.7s3.8-18.7,1.2-20.9c0,0-0.1,0-0.1,0.1c0,0.2,0,0.3,0,0.4c-0.4,3.5-0.9,9.4-1.7,12
			c-0.8,2.6-2.2,15.6-3.2,21.1c-0.9,5.5-2.6,29.8-2.6,34.9c0,3.1,0.3,8,0.6,12.3c-0.2,3.3-0.3,21,0.2,28.4
			c0.6,7.4-1.5,24.5-1.8,27.3c-0.3,2.8-0.7,13.1-0.8,17.5c-0.1,4.4,0.1,15.5-0.4,17.6c-1.6,1.8-10.5,1-11.8,1.2
			c-1.3,0.2-3.7,0.5-5,3.9C208.9,258.2,210.1,260.1,211.8,261.5z"/>
		<path class="st37" d="M235.9,264.1c3.7,0,6.6,0,7.3-0.1c2.1-0.1,3.7-3.1,3.9-4.4c0.2-1.3-0.6-4-1.2-4.8c0.9-1.1,1.5-3.1,2.1-4.4
			c0.6-1.4,0.4-17.3,0.1-21.7c-0.4-4.4,1-7.8,1.9-14.1c0.4-2.7,0.3-4.8,0.2-6.7c-0.1-2.5-0.3-4.7,0.4-7.4c1.2-4.7,5.5-13.6,7.5-19
			c-5.9,4.7-5.5,8.9-8.2,12.2c-2.7,3.3-2.6,7.1-1.7,9.6c0.9,2.4,0.9,11-0.1,13.9c-1,2.9-3.9,8.7-3,12c0.9,3.3,1.6,8.8,1.8,10.5
			c0.2,1.7,0,12.3-1.2,12.7c-1.2,0.4-5.5,1.1-5.6,1.5c-0.1,0.5,4.6,2.8,4.4,4.5C244.4,260.1,235.9,264.1,235.9,264.1z"/>
		<g>
			<g>
				<path class="st38" d="M211.2,134.4l26.3,13.6c0.7,0.4,1.6,0.1,2-0.7l8.5-17.7c0.4-0.8,0.1-1.7-0.7-2.1l-26.3-13.6
					c-0.7-0.4-1.6-0.1-2,0.7l-8.5,17.7C210.1,133.1,210.4,134,211.2,134.4z"/>
			</g>
			<g>
				<g>
					<path class="st29" d="M228.8,114.6l-1.3,2.7l1.9,1l1.3-2.7c0.3-0.5,0.8-0.7,1.3-0.5c0,0,0.1,0,0.1,0l7.2,3.7
						c0.5,0.3,0.7,0.9,0.5,1.5l-1.3,2.7l1.9,1l1.3-2.7c0.8-1.6,0.1-3.6-1.4-4.4l-7.2-3.7C231.5,112.3,229.6,113,228.8,114.6z"/>
				</g>
			</g>
			<g class="st3">
				<path class="st24" d="M239.1,116.2l1,0.5c1.5,0.8,2,2.7,1.2,4.3l-1.3,2.7l-1.3-0.7l1.3-2.7C240.9,118.8,240.4,116.9,239.1,116.2
					z"/>
			</g>
			<g class="st3">
				<path class="st24" d="M230.5,115.4l-1.3,2.7l0.2,0.1l1.3-2.7c0.3-0.5,0.8-0.7,1.3-0.5c0,0,0.1,0,0.1,0l-0.4-0.2
					C231.3,114.6,230.7,114.9,230.5,115.4z"/>
			</g>
			<g>
				<polygon class="st39" points="210.9,135.4 236.9,148.8 237.3,147.9 211.4,134.5 				"/>
			</g>
			<polygon class="st21" points="211.3,134.7 237.2,148.1 237.3,147.9 211.4,134.5 			"/>
			<g>
				<g>
					<polygon class="st40" points="222.5,114.6 225,115.9 225.2,115.4 222.7,114.1 					"/>
				</g>
				<g>
					<polygon class="st40" points="243.5,125.5 246,126.8 246.2,126.2 243.7,124.9 					"/>
				</g>
			</g>
			<g class="st23">
				<polygon points="227.5,117.2 229.4,118.2 229.6,117.9 227.7,117 				"/>
			</g>
			<g class="st23">
				<polygon points="238.5,122.9 240.4,123.9 240.5,123.6 238.6,122.6 				"/>
			</g>
			<g>
				<path class="st41" d="M222.7,127.5c-1.8,3.8-0.3,8.4,3.3,10.3c3.7,1.9,8.1,0.3,9.9-3.4c1.8-3.8,0.3-8.4-3.3-10.3
					C228.9,122.2,224.5,123.7,222.7,127.5z"/>
				<path class="st42" d="M222.5,127.4c1.9-3.8,6.4-5.4,10.1-3.5c3.7,1.9,5.2,6.6,3.4,10.5c-1.9,3.9-6.4,5.4-10.1,3.5
					C222.2,136,220.7,131.3,222.5,127.4z M222.8,127.6c-1.8,3.7-0.3,8.2,3.3,10.1c3.6,1.8,7.9,0.3,9.7-3.4c1.8-3.7,0.3-8.2-3.2-10.1
					C228.9,122.4,224.6,123.9,222.8,127.6z"/>
				<g>
					<path class="st42" d="M229.9,129.9l-0.2,0.4c0.3,0.2,0.4,0.6,0.2,1c0,0.1-0.1,0.2-0.2,0.2l0.2,0.4c0.7-0.4,1.5-0.5,2.2-0.3
						c0.6,0.2,1.1,0.6,1.4,1.1c0.7,1.1,0.5,2.6-0.3,3.5v0c1.3-1.2,1.6-3.3,0.6-4.8c-0.2-0.2-0.3-0.5-0.5-0.7
						c0.2-0.2,0.3-0.5,0.5-0.7c0.8-1.7,0.3-3.7-1.2-4.7v0c1,0.8,1.3,2.2,0.7,3.4c-0.3,0.6-0.7,1-1.3,1.3
						C231.4,130.2,230.6,130.2,229.9,129.9z M222.8,130.8L222.8,130.8L222.8,130.8c0.2-1.3,1.2-2.3,2.5-2.4c0.6,0,1.2,0.1,1.7,0.5
						c0.6,0.4,1,1.1,1.1,2l0.4,0c0-0.1,0-0.2,0.1-0.3c0.2-0.3,0.6-0.5,0.9-0.4l0.2-0.4c-0.7-0.4-1.2-1.1-1.3-1.8
						c-0.1-0.6-0.1-1.2,0.2-1.8c0.6-1.2,1.9-1.8,3.1-1.4l0,0c-1.7-0.6-3.5,0.2-4.3,1.9c-0.1,0.3-0.2,0.5-0.3,0.8
						c-0.3-0.1-0.6-0.1-0.8,0C224.4,127.5,223,129,222.8,130.8z M222.9,131.9L222.9,131.9c0.3,1.8,1.9,3.1,3.7,2.9
						c0.3,0,0.6-0.1,0.8-0.1c0.1,0.3,0.2,0.5,0.4,0.8c1,1.6,2.9,2.1,4.5,1.3l0,0c-1.1,0.5-2.5,0.1-3.2-1c-0.3-0.5-0.5-1.2-0.4-1.8
						c0.1-0.8,0.4-1.5,1.1-2l-0.2-0.4c-0.2,0.1-0.4,0.1-0.6,0c-0.2-0.1-0.3-0.3-0.4-0.5l-0.4,0c0,0.8-0.3,1.6-0.9,2.1
						c-0.4,0.4-1,0.7-1.6,0.7C224.4,134,223.2,133.1,222.9,131.9z"/>
					<g>
						<path class="st42" d="M227,133.4c0.2,0.2,0.5,0.4,0.8,0.6c0.3,0.2,0.6,0.3,0.9,0.3c0-0.1,0-0.2,0-0.3c0-0.1,0-0.3,0.1-0.4
							c-0.2,0-0.5-0.1-0.7-0.2c-0.2-0.1-0.4-0.3-0.6-0.4c-0.1,0.1-0.2,0.2-0.3,0.3C227.2,133.3,227.1,133.4,227,133.4z M229,133.6
							c0,0.1-0.1,0.3-0.1,0.4c0,0.1,0,0.2,0,0.3c1.3,0.1,2.7-0.6,3.3-1.9c0.1-0.2,0.1-0.3,0.2-0.5c-0.1,0-0.2-0.1-0.3-0.1
							c-0.1,0-0.3-0.1-0.4-0.1c0,0.1-0.1,0.3-0.2,0.4C231.1,133.1,230.1,133.7,229,133.6z M227,133.4c0.2,0.2,0.5,0.4,0.8,0.6
							c0.3,0.2,0.6,0.3,0.9,0.3c0-0.1,0-0.2,0-0.3c0-0.1,0-0.3,0.1-0.4c-0.2,0-0.5-0.1-0.7-0.2c-0.2-0.1-0.4-0.3-0.6-0.4
							c-0.1,0.1-0.2,0.2-0.3,0.3C227.2,133.3,227.1,133.4,227,133.4z M228.6,127.6c0,0.1,0,0.2,0,0.3c0,0.1,0.1,0.3,0.1,0.4
							c0.5-0.1,1.2-0.1,1.7,0.2c0.6,0.3,1,0.7,1.2,1.3c0.1,0,0.3-0.1,0.4-0.1c0.1,0,0.2-0.1,0.3-0.2c-0.3-0.7-0.8-1.3-1.5-1.7
							C230.1,127.5,229.3,127.4,228.6,127.6z M231.7,130.1c0.2,0.5,0.2,1,0.1,1.5c0.1,0,0.3,0.1,0.4,0.1c0.1,0,0.2,0.1,0.3,0.1
							c0.2-0.7,0.1-1.4-0.1-2c-0.1,0.1-0.2,0.1-0.3,0.2C232,130,231.8,130,231.7,130.1z M227,133.4c0.2,0.2,0.5,0.4,0.8,0.6
							c0.3,0.2,0.6,0.3,0.9,0.3c0-0.1,0-0.2,0-0.3c0-0.1,0-0.3,0.1-0.4c-0.2,0-0.5-0.1-0.7-0.2c-0.2-0.1-0.4-0.3-0.6-0.4
							c-0.1,0.1-0.2,0.2-0.3,0.3C227.2,133.3,227.1,133.4,227,133.4z M226.3,129.4c-0.6,1.3-0.4,2.8,0.5,3.9
							c0.1-0.1,0.2-0.1,0.3-0.2c0.1-0.1,0.2-0.2,0.3-0.3c-0.7-0.8-0.9-2-0.4-3c0.1-0.1,0.1-0.2,0.2-0.4c-0.1-0.1-0.2-0.2-0.3-0.3
							c-0.1-0.1-0.2-0.1-0.3-0.2C226.5,129.1,226.4,129.2,226.3,129.4z M226.7,128.7c0.1,0.1,0.2,0.1,0.3,0.2
							c0.1,0.1,0.2,0.2,0.3,0.3l0,0c0.3-0.4,0.7-0.7,1.2-0.8c0-0.1-0.1-0.3-0.1-0.4c0-0.1,0-0.2-0.1-0.3
							C227.7,127.8,227.2,128.2,226.7,128.7z"/>
					</g>
				</g>
			</g>
			<g class="st3">
				<path class="st43" d="M219.9,114.2l18.5,33.3c0.3-0.1,0.5-0.4,0.7-0.7l8.3-17.1c0.4-0.8,0.1-1.7-0.7-2l-25.8-13.3
					C220.5,114.1,220.2,114.1,219.9,114.2z"/>
			</g>
		</g>
		<path class="st37" d="M251.9,210.6c0.5,0.7,0.9,1.3,1.1,1.8c2.1,3.2,10.2,15.2,13.3,18.8c3.1,3.6,5.1,7.1,6.2,8.9
			c1,1.8,3.5,4,4.7,4.7c0.1,0.8-0.6,3.8-1,5.2s-2.9,2.3-5.6,2.4c-2.7,0.1-3.6,2.3-4,3.6s2.1,4,3.7,4.1c1.7,0.1,9.4,0,12.2,0
			c0.1,0,0.1,0,0.2,0l0.6-0.1c0,0-8.2-0.8-10.2-2.7c-2-1.9,0.6-3.9,2-4.1c1.4-0.1,5.3-4.2,4.2-5.7c-1.1-1.4,1.7-4.9,1.7-4.9
			c-1.8-0.6-4.6-1.4-6-3.5c-1.4-2-3.5-7.6-6.3-9.7c-2.8-2.2-8.8-12.2-11.6-14.7C254.2,212.4,252.1,210.7,251.9,210.6z"/>
		<path class="st36" d="M225.6,139.3c-1.1-1.4-3.4-2.4-5-3c-1.6-0.6-3.3-1.1-3.6-0.4s0.9,1.7,2,2.6c1,0.9,1.8,2.3,1.2,2.8
			c-0.6,0.5-2.4,1.2-1.8,2.1c0.7,1,2.2,4.4,3.8,5.5c1.6,1.2,4.8,2.1,6,0C229.5,146.8,225.6,139.3,225.6,139.3z"/>
		<path class="st11" d="M230.1,150.4c3.9,0.3,8.8-1.9,12.3-3.8c3.5-1.8,14.7-9.6,16.2-12.6c1.5-3,0.8-13.9,0-18.9
			c-0.5-3-1.1-11.1-3.6-17.1l0,0c-1.6-4-4-7-7.7-7.1c-2.5-0.1-7.2,2-7.7,5.2c-0.5,3.2-2.7,9.2,0.4,16.4c3.1,7.3,5.5,10.4,4.8,12.7
			c-0.7,2.2-9.3,9.6-11.1,10.9c-1.8,1.4-6.1,0.5-7.9,3.1C225.2,143,227.2,149.3,230.1,150.4z"/>
		<path class="st37" d="M230.1,150.4c3.9,0.3,8.8-1.9,12.3-3.8c3.5-1.8,14.7-9.6,16.2-12.6c1.5-3,0.8-13.9,0-18.9
			c-0.5-3-1.1-11.1-3.6-17.1c-0.4,4.1-0.5,8.9-2.2,7.6c0.7,2.2,3.6,4.5,4.1,8c0.4,3.5,1.4,10.5,0.7,12.2c-0.7,1.7-2.4,2.1-3.1,2.9
			c1.8,0.7,2.2,2.6,1.8,3.3c-0.4,0.7-1.1-0.9-1.8-1.1c0.4,0.5,1.1,3.1-0.3,5.1C252.7,138.1,236,149.7,230.1,150.4z"/>
	</g>
	<g>
		<g>
			<g>
				<path class="st44" d="M141.3,256.7l1.5,0.3c0,0,2.6-0.8,3.6-1.4c0.1-0.8,0.1-2.6,0.5-3.7c-1.6,0.8-3.2,2.1-4.1,2.5
					C142,254.9,141.3,256.7,141.3,256.7z"/>
				<path class="st44" d="M126.6,258c0.1,0.5,0.3,0.9,0.5,1.3c1,0.2,8.2,1.9,9.3,1.7c1.1-0.2,4.1-1.2,4.4-1.6
					c0.1-0.2,0.2-0.7,0.3-1.2c-1.5,0.8-3.9,1.8-4.8,1.9C135.5,260,129.3,258.8,126.6,258z"/>
				<path class="st45" d="M126.6,258c2.6,0.9,8.8,2,9.7,2c0.9,0,3.3-1.1,4.8-1.9c0.1-0.7,0.1-1.3,0.1-1.3s0.7-1.8,1.5-2.3
					c0.8-0.5,2.4-1.7,4.1-2.5l0,0c0.1-0.2,0.1-0.3,0.2-0.4c0.5-1.1,0.4-5.5,0.1-6.6c0,0-10.3-1.9-11.7-2.1c-0.2,1.4-1.7,5.6-2.8,6.7
					c-1.1,1.2-4.6,3.9-5.3,4.7C126.7,254.9,126.4,256.6,126.6,258z"/>
			</g>
			<path class="st46" d="M141.3,256.7l1.5,0.3c0,0,2.6-0.8,3.6-1.4c0.1-0.8,0.1-2.6,0.5-3.7c-1.6,0.8-3.2,2.1-4.1,2.5
				C142,254.9,141.3,256.7,141.3,256.7z"/>
			<path class="st46" d="M126.6,258c0.1,0.5,0.3,0.9,0.5,1.3c1,0.2,8.2,1.9,9.3,1.7c1.1-0.2,4.1-1.2,4.4-1.6
				c0.1-0.2,0.2-0.7,0.3-1.2c-1.5,0.8-3.9,1.8-4.8,1.9C135.5,260,129.3,258.8,126.6,258z"/>
			<path class="st47" d="M126.6,258c2.6,0.9,8.8,2,9.7,2c0.9,0,3.3-1.1,4.8-1.9c0.1-0.7,0.1-1.3,0.1-1.3s0.7-1.8,1.5-2.3
				c0.8-0.5,2.4-1.7,4.1-2.5l0,0c0.1-0.2,0.1-0.3,0.2-0.4c0.5-1.1,0.4-5.5,0.1-6.6c0,0-10.3-1.9-11.7-2.1c-0.2,1.4-1.7,5.6-2.8,6.7
				c-1.1,1.2-4.6,3.9-5.3,4.7C126.7,254.9,126.4,256.6,126.6,258z"/>
		</g>
		<g>
			<g>
				<path class="st44" d="M182.8,257.2l-1.5,0.3c0,0-2.6-0.8-3.6-1.4c-0.1-0.8-0.2-2.6-0.5-3.7c1.6,0.8,3.2,2.1,4.1,2.6
					C182.1,255.4,182.8,257.2,182.8,257.2z"/>
				<path class="st44" d="M197.5,258.5c-0.1,0.5-0.2,0.9-0.5,1.3c-1,0.2-8.3,1.9-9.4,1.7c-1.1-0.2-4.1-1.2-4.4-1.6
					c-0.1-0.2-0.2-0.7-0.3-1.2c1.5,0.8,3.9,1.8,4.8,1.9C188.6,260.5,194.8,259.3,197.5,258.5z"/>
				<path class="st45" d="M197.5,258.5c-2.6,0.9-8.8,2-9.7,2c-0.9,0-3.3-1.1-4.8-1.9c-0.1-0.7-0.1-1.3-0.1-1.3s-0.7-1.8-1.5-2.3
					c-0.8-0.5-2.4-1.7-4.1-2.6h0c0-0.2-0.1-0.3-0.2-0.4c-0.5-1.1-0.4-5.5-0.1-6.6c0,0,10.3-1.9,11.7-2.1c0.2,1.4,1.7,5.6,2.8,6.7
					c1.1,1.2,4.6,3.9,5.3,4.7C197.4,255.4,197.7,257.1,197.5,258.5z"/>
			</g>
			<path class="st46" d="M182.8,257.2l-1.5,0.3c0,0-2.6-0.8-3.6-1.4c-0.1-0.8-0.2-2.6-0.5-3.7c1.6,0.8,3.2,2.1,4.1,2.6
				C182.1,255.4,182.8,257.2,182.8,257.2z"/>
			<path class="st46" d="M197.5,258.5c-0.1,0.5-0.2,0.9-0.5,1.3c-1,0.2-8.3,1.9-9.4,1.7c-1.1-0.2-4.1-1.2-4.4-1.6
				c-0.1-0.2-0.2-0.7-0.3-1.2c1.5,0.8,3.9,1.8,4.8,1.9C188.6,260.5,194.8,259.3,197.5,258.5z"/>
			<path class="st47" d="M197.5,258.5c-2.6,0.9-8.8,2-9.7,2c-0.9,0-3.3-1.1-4.8-1.9c-0.1-0.7-0.1-1.3-0.1-1.3s-0.7-1.8-1.5-2.3
				c-0.8-0.5-2.4-1.7-4.1-2.6h0c0-0.2-0.1-0.3-0.2-0.4c-0.5-1.1-0.4-5.5-0.1-6.6c0,0,10.3-1.9,11.7-2.1c0.2,1.4,1.7,5.6,2.8,6.7
				c1.1,1.2,4.6,3.9,5.3,4.7C197.4,255.4,197.7,257.1,197.5,258.5z"/>
		</g>
		<path class="st48" d="M191.6,248.5c-1.7-0.9-5.9-1.7-9.5-1.6c-2.4,0.1-4.6,0.5-5.6,1.6h0c-1.9-3.4-5-6.7-5-10.3s2-9.6,3-11.1
			c0.3-3-2.4-21.6-3.3-24.9c-0.9-3.3-0.4-6.5-0.9-8c-0.5-1.6-4-8.1-4.7-11.3c-0.8-3.1-1.5-10.8-3-12.7c-0.1,3.3-1.8,5.6-2.3,9.8
			c-0.5,4.2-2.1,8.9-2.5,15.2c-0.4,6.3-4.9,15-4.5,18.2c0.4,3.1,2.1,3.4,1.9,4.7c-0.3,1.3-2.7,6.7-2.2,8.4c0.5,1.6,2.3,15-2.7,23
			l-0.4,0.6l0,0c-2.5-0.3-15.1-5.8-17.1-3.1c0.1-3.4,0.1-11,0-12.7c-0.1-1.7,2.3-5.3,1.9-7c-0.3-1.7-0.7-3.6-0.3-5.6
			c0.4-2,1.7-3.7,1.9-7.6c0.2-3.9,0-7.1,0.3-8.5c0.3-1.4,0.8-6.7,0.1-10c-0.7-3.2-1.9-8.9-1.8-11.8c0-0.2,0-0.4,0-0.6
			c0.3-4.3,2.2-20.6,3.1-27.4c0.1-1,0.3-2.1,0.4-3.2c0-0.3,0.1-0.6,0.1-0.9c1.1-7.2,2.9-16.7,3.3-22.6c0.5-7.2,1.5-10.3,0.9-18.4
			c0-0.6-0.1-1.2-0.1-1.9c-0.5-6.3-1.1-15-1.5-19.5l0,0c-0.1-1.4-0.2-2.3-0.3-2.8c0.1-0.1,0.2-0.2,0.3-0.2c2.1-1.9,6-4,7.3-4.4
			c1.4-0.4,3.9-2,4.7-3.4c0.8-1.4-0.1-6.6-0.9-9.1c-0.9-2.4-0.3-5.4-0.1-6.5c0.3-1,1.8-4.2,1.8-4.9c0-0.7,0.3-5.3,1-6.5
			c2.2-3.7,4.8-4.9,7.7-4.7c2.1,0.2,6.6,0.3,8,4c1.4,3.8,3.9,11.1,2.9,17.4c-0.3,2.1-0.4,3.7-0.2,4.9l0,0c0.3,2.5,1.1,3.4,1.2,3.9
			c0.2,0.8,0.8,3.6,1.1,4.3c1.8,0.7,7.8,3.4,9.6,6c0,0-0.1,0.1-0.1,0.1c-0.2,0.2-0.3,0.7-0.5,1.2c-0.8,2.3-1.9,7.1-2.7,11.8
			c-0.7,4.4-1.3,8.6-1,10.6c0.2,2,0.4,5.5,0.7,9.2v0c0.4,5.3,0.9,11.2,1.5,14c0.1,0.4,0.2,0.9,0.3,1.6c0.6,3.2,1.8,9.2,2.9,15.4
			c0.1,0.3,0.1,0.7,0.2,1c0.3,1.9,0.7,3.9,1,5.7c0.9,5.6,1.7,10.5,1.8,12.6c0.3,5.6-0.3,13.2,0.1,17.2c0.3,4,1.8,7.5,1.3,8.7
			s-1.4,3.1-0.7,6.1c0.8,3.1,1.1,6.5,0.8,11.6c-0.3,5.2,0.1,15.4,2.2,19.7C194.8,238.4,192.7,246.5,191.6,248.5z"/>
		<path class="st49" d="M191.6,248.5c-1.7-0.9-5.9-1.7-9.5-1.6c2.9-0.9,6-1.9,6.5-2.4c0.9-1,0.8-3.6,1.6-3.6s1.8-3.1,1-4
			c-0.8-0.8-3.1-5.2-2.5-6c0.7-0.8,1-4.9,0.5-6.3c-0.4-1.4-3.6-13.3-3.6-13.3s2.8-6.6,2.2-9.2c-0.6-2.6-5.3-2.7-6-3.7
			c-0.7-1.1,1.4-10.5,2-12.5c0.6-2,2.6-2.7,0-3.6c-2.6-0.9-6-2.2-5.7-3.1c0.3-0.9,4.6-8.2,5.7-10c1.1-1.7-1.5-5.5-3.1-5.4
			c-1.6,0.1-2.6-2,0.5-3.2c3.1-1.2,1.8-5.3,1.8-6.2c0.1-0.9-2-0.8-3-2.2c-1-1.4,0.1-6.8,0-7.6c-0.1-0.8,1.4-0.2,1.6-0.7
			c0.2-0.5-0.2-8.7-2.2-10.6c-2-1.9-2.5-5.5-2.5-5.5s0.3-9.7-0.7-11.6s-2.9-12.1-2.7-13.5s2.6,6.4,4.1,8.6c1-1,2.7-10.1,3.5-11.2
			c0.1,0,0.3,0.1,0.5,0.3c-0.7,4.4-1.3,8.6-1,10.6c0.2,2,0.4,5.5,0.7,9.2v0c0.4,5.3,0.9,11.2,1.5,14c0.1,0.4,0.2,0.9,0.3,1.6
			c0.6,3.2,1.8,9.2,2.9,15.4c0.1,0.3,0.1,0.7,0.2,1c0.3,1.9,0.7,3.9,1,5.7c0.9,5.6,1.7,10.5,1.8,12.6c0.3,5.6-0.3,13.2,0.1,17.2
			c0.3,4,1.8,7.5,1.3,8.7s-1.4,3.1-0.7,6.1c0.8,3.1,1.1,6.5,0.8,11.6c-0.3,5.2,0.1,15.4,2.2,19.7
			C194.8,238.4,192.7,246.5,191.6,248.5z"/>
		<path class="st50" d="M163.1,75l6.5-0.1h0.1V75c0.1,3.6,0.2,7.2,0.2,10.8c0,3.6,0,7.2-0.1,10.8l-0.5,21.6
			c-0.2,7.2-0.4,14.4-0.4,21.6c0.1,3.6,0.1,7.2,0.1,10.8c0,3.6,0,7.2,0,10.8v0.1h-0.1c-3.3,0-6.6-0.1-9.9-0.1
			c3.3-0.1,6.6-0.1,9.9-0.1l-0.1,0.1l-0.2-10.8l-0.2-10.8c0-3.6,0-7.2,0.1-10.8c0.1-3.6,0.1-7.2,0.2-10.8l0.6-21.6
			c0.3-7.2,0.3-14.4,0.3-21.6l0.1,0.1L163.1,75z"/>
		<g>
			<path class="st51" d="M183.3,154.4c-0.1,1.1-0.6,8.6-0.5,9.6c0.1,1,0.8,3.9,2.4,1.8c0.3,1.8-0.8,5.5-1.2,6.6
				c-0.4,1.1,0.4,2.4,1.2,1.4c0.3,0.4,1.5-0.6,2.1-1.6c0.6,0.4,1.9-2,3-4.6c1.1-2.6,2.6-8.9,2.7-10.6c0.1-1.6,1.9-7.6,1.9-7.6h-11.1
				L183.3,154.4z"/>
			<path class="st52" d="M185.1,165.8c0.2-1.2,0.5-2.3,0.8-3.5c0.1-0.6,0.3-1.2,0.4-1.7c0.1-0.6,0.3-1.2,0.3-1.8
				c0.1,0.6,0,1.2-0.1,1.8c-0.1,0.6-0.2,1.2-0.4,1.8C185.9,163.6,185.5,164.7,185.1,165.8z"/>
			<path class="st52" d="M185.1,173.9c0.2-0.4,0.4-0.8,0.5-1.2c0.2-0.4,0.4-0.8,0.5-1.2l1-2.4l1-2.4c0.2-0.4,0.3-0.8,0.5-1.2
				c0.2-0.4,0.3-0.8,0.5-1.2c-0.1,0.9-0.4,1.7-0.7,2.5c-0.3,0.8-0.6,1.6-1,2.4c-0.4,0.8-0.7,1.6-1.1,2.3
				C186.1,172.4,185.7,173.2,185.1,173.9z"/>
			<path class="st52" d="M187.2,172.3c0.3-1,0.8-2,1.2-2.9c0.2-0.5,0.5-1,0.7-1.4c0.2-0.5,0.5-0.9,0.8-1.4c-0.3,1-0.7,2-1.2,3
				C188.3,170.5,187.8,171.4,187.2,172.3z"/>
		</g>
		<path class="st49" d="M149.8,250c-2.5-0.3-15.1-5.8-17.1-3.1c0.1-3.4,0.1-11,0-12.7c-0.1-1.7,2.3-5.3,1.9-7
			c-0.3-1.7-0.7-3.6-0.3-5.6c0.4-2,1.7-3.7,1.9-7.6c0.2-3.9,0-7.1,0.3-8.5c0.3-1.4,0.8-6.7,0.1-10c-0.7-3.2-1.9-8.9-1.8-11.8
			c0-0.2,0-0.4,0-0.6c0.3-4.3,2.2-20.6,3.1-27.4c0.1-1,0.3-2.1,0.4-3.2c0-0.3,0.1-0.6,0.1-0.9c1.1-7.2,2.9-16.7,3.3-22.6
			c0.5-7.2,1.5-10.3,0.9-18.4c0-0.6-0.1-1.2-0.1-1.9l1.7-1.9c0,0,0.8-3.8,1.3-3.5c0.5,0.2,1.4,1.8,1.4,1.8s0.7,6.1,0,6.9
			c-0.7,0.7,0.4,3.8-0.6,5.5c-1.1,1.6-3.3,12.2-3.3,16.1c0,3.8-1.5,11.2-1.4,14.5s-0.5,12.5-0.5,12.5s0.6,5,0,6.1
			c-0.6,1.2-1.2,3.6-2.1,6.1c-0.9,2.5-0.9,6.9,0,9.1c0.9,2.2-1.2,5.1-1.2,7.3c0,2.2,1.7,8,1.7,8s-2,5.7-1.7,7
			c0.3,1.3,1.7,5.5,0.8,8.4c-0.9,2.9-3.9,9.1-3.2,11.1c0.7,2,1.8,4.8,2.3,6.2c0.4,1.4-4,3.4-3.8,5c0.2,1.6-0.1,6.8,1.5,8.5
			C137,245,149.8,250,149.8,250z"/>
		<g>
			<path class="st51" d="M130.7,155.9c0.2,1.8,0.3,5.6,0.4,7.8c0.2,2.2,1.9,6.7,2.4,7s1.3,0.5,1,0c0.3,0.6,2.7,2.5,3.4,2.2
				c0.7-0.3,0.3-2.4,0-3.4c-0.3-1-2.3-5.6-2.2-7.1c0.1-1.5,0.2-2.8,0.7-2.9c0.5-0.1,0.8,2.2,0.7,2.9c-0.1,0.7,1.6,2,2.4,0.7
				c0.8-1.3,0.7-6.6,0.6-8.3c-0.1-1.7-3-6.8-3-6.8l-6.4,1.1L130.7,155.9L130.7,155.9z"/>
			<path class="st52" d="M134.5,170.7c-0.6-1.1-1.2-2.2-1.6-3.3c-0.2-0.6-0.4-1.2-0.6-1.8c-0.2-0.6-0.3-1.2-0.3-1.8
				c0.1,0.6,0.3,1.2,0.6,1.8c0.2,0.6,0.4,1.1,0.7,1.7C133.6,168.4,134.1,169.5,134.5,170.7z"/>
			<path class="st52" d="M137,172.7c-0.5-0.6-0.9-1.3-1.3-2.1c-0.4-0.7-0.7-1.4-1-2.2c-0.3-0.7-0.6-1.5-0.9-2.3
				c-0.3-0.8-0.5-1.6-0.6-2.4c0.1,0.4,0.2,0.8,0.4,1.2c0.1,0.4,0.3,0.8,0.4,1.1c0.3,0.7,0.6,1.5,0.9,2.2c0.3,0.7,0.6,1.5,1,2.2
				c0.2,0.4,0.3,0.7,0.5,1.1C136.6,172,136.8,172.3,137,172.7z"/>
		</g>
		<path class="st12" d="M162.3,56.3c1.9,0.1,6.2,2.3,6.8,5.2c0.5,2.9,0.5,9.6-1.3,11.5c-1.8,1.9-3.5,3.1-4.9,3.3
			c-1.4,0.2-5.5-3.7-6.4-7c-0.9-3.3-1-6.2-0.5-7.9C156.5,59.9,157.6,56.2,162.3,56.3z"/>
		<path class="st49" d="M165,55.8c0.5,0.2,1.8-0.1,2.8-1.3c-0.7,1.7-1.1,2.8-0.7,3c0.4,0.2,3.3-1.4,3.7-1.8
			c-0.9,1.2-2.5,3.4-2.2,3.9c0.3,0.6,1.8,0.2,2.7,0c-0.7,0.9-2,1.7-1.9,2.4c0.2,0.7,1,1.5,1.9,1.6c-0.3,0.2-1.4,0.2-1.4,0.9
			c0,0.6-14.2-0.2-15.1-0.1c-1,0.1-1.5,0.4-1.9,0.6c0.5-0.8,2.5-1.6,2.5-2.5c0.1-0.9-0.6-1.8-1.1-2.1c0.9-0.1,1.3-0.6,1.7-1.1
			c0.3-0.4,0-0.9-0.3-1.9c0.7,0.3,1.2,0.2,1.8-0.2c0.6-0.4,0.3-2.6,0-3.4c1.1,1.4,1.5,2.3,2.1,2.1c0.6-0.2,0.6-2.9,0.5-4.1
			c0.6,1.8,1.1,3.6,1.7,3.7c0.6,0.1,1.4-0.9,1.9-2C163.7,54.2,164.7,55.7,165,55.8z"/>
		<path class="st53" d="M169.4,64.7c-0.3,0.4-0.9,0.9-1.6,1s-2.6-1.4-3-1.7c-0.4-0.3-1.4-1.7-2.2-1.7s-1.9,1.4-2.2,1.7
			c-0.4,0.3-2.3,1.7-3,1.7c-0.7-0.1-1.3-0.6-1.6-1c-0.3,0.8-0.9,7.1,1.7,9.6c2.5,2.5,4.3,2.6,5.2,2.6c0.8,0,2.6-0.1,5.2-2.6
			C170.2,71.8,169.7,65.5,169.4,64.7z"/>
		<path class="st54" d="M169.6,64.9c-0.6,1.1-2.9,1.8-4.7,2.6c-1.2,0.6-1.5,2.1-2.5,2.1c-0.9,0-1.2-1.5-2.4-2.1
			c-1.8-0.8-4-1.5-4.7-2.6c-0.5-0.8-0.3,1.1,0,1.4c0.5,0.6,1.3,1,3.2,2.7s1.8,3.4,2,4.1c0.4,1.9,1,2.3,1.9,2.3s1.5-0.4,1.9-2.3
			c0.2-0.7,0-2.4,2-4.1c1.9-1.7,2.7-2.1,3.2-2.7C169.9,66,170.1,64.1,169.6,64.9z"/>
		<g>
			<path class="st55" d="M170.6,64.2c-0.4,0.7-1,1.1-1.4,1.2c-0.5,0.2-1.8,0.4-2.9,0.3c-0.4,0-0.7-0.1-1-0.2c-0.5-0.2-1-0.7-1.2-1
				c0,0-0.1-0.1-0.1-0.1c-0.1-0.1-0.2-0.3-0.3-0.6c-0.2-0.5-0.6-1.1-0.9-1.2c0,0-0.1,0-0.1,0c-0.7,0-1.2,1.5-1.4,1.8
				c-0.2,0.3-0.7,0.9-1.3,1.1c-0.9,0.3-2.2,0.3-3.1,0.1c-0.3-0.1-0.6-0.1-0.8-0.2c-0.3-0.2-1-0.5-1.3-1.1c0,0-0.1-0.1-0.1-0.1
				c-0.1-0.1-0.1-0.4-0.2-0.7c-0.1-0.6-0.1-1.4-0.2-2.2c0-1.3,0-2.6,0.3-2.7c0.1-0.1,1-0.2,2.2-0.3c0.6,0,1.3-0.1,2-0.1
				c0.3,0,0.6,0,0.9,0c1.3,0,2.5,0,3,0h0.3c0.7,0,2,0,3.4,0.1c0.6,0,1.3,0,1.9,0.1c0.3,0,0.6,0,0.9,0.1c0.9,0.1,1.5,0.1,1.6,0.2
				c0.1,0.1,0.2,0.7,0.2,1.4C171,61.6,170.9,63.7,170.6,64.2z"/>
			<path class="st56" d="M170.8,58.9c0-0.1-0.1-0.2-0.1-0.2c-0.4-0.3-6.7-0.4-8-0.4l0,0l0,0l0,0l0,0c-1.4,0-7.7,0.1-8,0.4
				c0,0-0.1,0.1-0.1,0.2c0.9-0.1,7-0.2,8.1-0.2C163.8,58.7,170,58.8,170.8,58.9z"/>
			<path class="st56" d="M164,63.2c-0.3-0.7-0.9-1.3-1.4-1.3l0,0l0,0l0,0l0,0c-0.5,0-1.1,0.6-1.4,1.3c-0.3,0.7-0.6,1.5-0.8,2.1
				c0.4-0.3,0.6-0.6,0.8-0.8c0.2-0.3,0.7-1.8,1.4-1.8c0.7,0,1.2,1.5,1.4,1.8c0.1,0.2,0.4,0.6,0.8,0.8
				C164.6,64.6,164.3,63.8,164,63.2z"/>
			<path class="st10" d="M158.8,58.3l-4.3,5.2c-0.1-0.6-0.1-1.4-0.2-2.2l2.4-3C157.4,58.4,158.1,58.4,158.8,58.3z"/>
			<path class="st10" d="M162.9,58.3l-6,7.4c-0.3-0.1-0.6-0.1-0.8-0.2c-0.3-0.2-1-0.5-1.3-1.1l4.9-6c1.3,0,2.5,0,3,0L162.9,58.3
				L162.9,58.3z"/>
			<path class="st10" d="M168.2,58.4l-4.4,5.4c-0.2-0.5-0.6-1.1-0.9-1.2l3.5-4.3C166.9,58.3,167.6,58.4,168.2,58.4z"/>
			<path class="st10" d="M171,60.1l-4.6,5.7c-0.4,0-0.7-0.1-1-0.2c-0.5-0.2-1-0.7-1.2-1l5-6.1c0.9,0.1,1.5,0.1,1.6,0.2
				C170.8,58.8,170.9,59.4,171,60.1z"/>
		</g>
		<path class="st48" d="M197.7,141.9c-0.5,2-0.8,9.9-1,11.1s-2.6,3.4-3.8,4.1c0.3-1.8-0.6-4.4-2.7-4.9c-1.1-0.3-2.5-0.3-3.8,0.1
			c-1.3,0.3-2.5,1-3.1,2.1c-0.6-3.1-1.1-7.2-0.5-9.7c0.4-1.9-0.5-21.4-1.2-24.4c0,0,0,0,0,0c-0.7-3-1.5-8-1.1-12.9
			c0.3-4.4,1.9-14.3,4-18.8c0.2-0.4,0.4-0.8,0.6-1.1c0,0,0.1-0.1,0.1-0.1c1.5,2.9,6.6,11.5,8.1,16.2c1.5,4.7,3.6,13,4.2,14.6
			c0.6,1.6,0.4,10.4,0.8,13.7C198.5,135.2,198.2,139.9,197.7,141.9z"/>
		<path class="st48" d="M140.7,86.5c-1.9,1.6-5.6,10-6.7,12.1c-1.2,2-0.7,4.6-1.4,7.1c-0.7,2.4-0.9,6.9-1.5,8.2
			c-0.6,1.3-3.8,7-3.9,8.4c-0.1,1.4,1.4,4.8,1.1,7.6c-0.3,2.8-0.4,18.1-1.1,20.9c-0.7,2.8,2.6,4.3,3.5,5.2c0.6-1.5,1.9-4.5,4.5-4.2
			c1.2,0.1,2.3,0.4,3.2,0.9c0.7,0.4,1.2,0.9,1.5,1.4c0.1,0.2,0.2,0.5,0.2,0.7c1.5-2.3,0.9-5.6,0.7-8.3c-0.3-2.7,1.1-6.9,1.3-10.2
			c0.2-3.3,1.4-13.4,1.8-15.1c0.4-1.6,2.2-4.5,1.7-7c-0.4-2-3-18.8-4.1-25.3c-0.3-1.6-0.4-2.6-0.4-2.6L140.7,86.5z"/>
		<path class="st49" d="M197.7,141.9c-0.5,2-0.8,9.9-1,11.1s-2.6,3.4-3.8,4.1c0.3-1.8-0.6-4.4-2.7-4.9c-1.1-0.3-2.5-0.3-3.8,0.1
			c-1.3,0.3-2.5,1-3.1,2.1c-0.2-1.5,1.1-2.5,2.9-3.1c2.6-0.9,6.3-1,7.4-0.9c1.9,0.2,1.1-3.5,1.9-6.3c0.9-2.8-0.3-4.4-1.9-6.1
			c-1.6-1.7-4.5-6.5-4.9-7.5c-0.4-1,2.2-6.3,3.9-8.3c1.7-2.1,2.1-5.6,0.9-8.4c-0.6-1.4-0.9-8.2-2.4-9.6c-1.5-1.4-4.9,1-6.1,0.7
			c-1.2-0.3-0.2-2.6,0.8-4.5c0.9-1.9,0.4-8.7-1.3-11.5c0,0-0.1-0.1-0.1-0.1c0,0-0.1-0.1-0.1-0.1c-1.9-2.6-7.3-3.8-9.8-4.4
			c-2.5-0.7-2.9-0.9-2.9-2.6c0-1.7,1.3-8.2,1.4-8.4c0.3,2.5,1.1,3.4,1.2,3.9c0.2,0.8,0.8,3.6,1.1,4.3c1.8,0.7,7.8,3.4,9.6,6
			c1.5,2.9,6.6,11.5,8.1,16.2c1.5,4.7,3.6,13,4.2,14.6c0.6,1.6,0.4,10.4,0.8,13.7C198.5,135.2,198.2,139.9,197.7,141.9z"/>
		<path class="st49" d="M153.1,78.4c-0.3,2-7.3,7.4-10,8.9c-0.6,0.3-1.1,0.8-1.7,1.5c-0.1,0.1-0.2,0.3-0.3,0.4l0,0
			c-1.8,2.4-3.3,6-4.1,7.6c-1.1,2.1,2.3,5.9,1.4,7.7c-0.4,0.8-1.7,0.3-3.1,1.9s-1.8,7.2-2.1,8.7c-0.3,1.6,3.5,2.8,3.8,4.2
			c0.3,1.8-2.3,3.3-5,5.4c-2.7,2.1-1.5,5.4-1.3,6.1c0.3,0.7,3,3.8,3.8,5.6c0.8,1.8-1,5.9-2.5,8.6c-1.5,2.6-3.2,4.5-2.7,5.3
			c0.5,0.7,1.4,0.5,5.3,0c1.9-0.2,3.1,0.4,3.9,1.3c0.7,0.7,1.1,1.6,1.4,2.3c-0.3-0.5-0.8-1-1.5-1.4c-0.9-0.5-1.9-0.8-3.2-0.9
			c-2.6-0.3-3.9,2.7-4.5,4.2c-0.8-0.9-4.1-2.4-3.5-5.2c0.7-2.8,0.8-18.1,1.1-20.9c0.3-2.8-1.2-6.2-1.1-7.6c0.1-1.4,3.3-7.1,3.9-8.4
			c0.6-1.3,0.8-5.8,1.5-8.2c0.7-2.4,0.2-5.1,1.4-7.1c1.2-2,4.9-10.5,6.7-12.1c0.1-0.1,0.2-0.2,0.3-0.2c2.1-1.9,6-4,7.3-4.4
			C149.7,81.4,152.2,79.8,153.1,78.4z"/>
		<g>
			<path class="st54" d="M166,71c-1.1,2.3-1.4,4.6-0.6,5c0.8,0.4,2.4-1.1,3.6-3.4c1.1-2.3,1.4-4.6,0.6-5
				C168.8,67.2,167.2,68.7,166,71z"/>
			<polygon class="st54" points="171.5,78.6 165.5,76 169.6,67.6 175.7,70.2 			"/>
			<path class="st8" d="M172.1,73.6c-1.1,2.3-1.4,4.6-0.6,5c0.8,0.4,2.4-1.1,3.6-3.4c1.2-2.3,1.4-4.6,0.6-5
				C174.9,69.8,173.3,71.3,172.1,73.6z"/>
		</g>
		<g>
			<path class="st54" d="M159,71c1.1,2.3,1.4,4.6,0.6,5s-2.4-1.1-3.6-3.4c-1.1-2.3-1.4-4.6-0.6-5C156.3,67.2,157.9,68.7,159,71z"/>
			<polygon class="st54" points="153.5,78.6 159.6,76 155.4,67.6 149.4,70.2 			"/>
			<path class="st8" d="M152.9,73.6c1.1,2.3,1.4,4.6,0.6,5c-0.8,0.4-2.4-1.1-3.6-3.4c-1.1-2.3-1.4-4.6-0.6-5
				C150.2,69.8,151.8,71.3,152.9,73.6z"/>
		</g>
		<path class="st49" d="M176.5,236.6c-0.3,0.5-2.5,2.5-2.1,4.5c0.3,1.9,2.1,7.4,2.1,7.4h0c-1.9-3.4-5-6.7-5-10.3s2-9.6,3-11.1
			c0.3-3-2.4-21.6-3.3-24.9c-0.9-3.3-0.4-6.5-0.9-8c-0.5-1.6-4-8.1-4.7-11.3c-0.8-3.1-1.5-10.8-3-12.7c-0.1,3.3-1.8,5.6-2.3,9.8
			c-0.5,4.2-2.1,8.9-2.5,15.2c-0.4,6.3-4.9,15-4.5,18.2c0.4,3.1,2.1,3.4,1.9,4.7c-0.3,1.3-2.7,6.7-2.2,8.4c0.5,1.6,2.3,15-2.7,23
			l-0.4,0.6c0.1-0.3,2-7.1,2.2-8.8c0.2-1.8,0.1-12-1.2-14.4c-1.3-2.4-4.9-1.9-3.4-2.7c1.5-0.8,4.9-6,4.9-6c-0.1-1.2-2.1-4.4-2.5-5.2
			s4.6-11.1,5.1-12.8c0.4-1.7,0.2-11.3,0.5-13.2c0.3-1.8,3-5.8,3.7-9.6c0.8-3.8,0.4-7.1-0.8-10.7c2.1,2.2,7.2,1,8,1.7
			c-0.8,2.2-1.4,6.3-1,8.5c0.4,2.2,6.5,15,7.4,16.3c-0.6,1.8-0.8,8.3,0,11.8c0.8,3.5,2.3,16.5,3,19.5c0.7,3,0.1,7.2,0.1,8.8
			C175.8,234.7,176.8,236.1,176.5,236.6z"/>
	</g>
</g>
<g>
	<g>
		<g>
			<path class="st57" d="M31.5,76.6c0,0.1-0.2,0.3-0.6,0.5c-0.4,0.2-1.1,0.5-1.8,0.5c-0.7,0-1.3-0.3-1.7-0.5
				c-0.4-0.3-0.5-0.5-0.4-0.6c0.1-0.1,0.3,0.1,0.6,0.2c0.4,0.2,0.9,0.3,1.5,0.3C30.4,77.1,31.4,76.5,31.5,76.6z"/>
		</g>
	</g>
</g>
<g>
	<g>
		<g>
			<g>
				<g>
					<g>
						<g>
							<g>
								<g>
									<g>
										<g>
											<g>
												<g>
													<g>
														<g>
															<g>
																<path class="st57" d="M28.8,74.7c0,0,0.4,0,0.9,0.1c0.1,0,0.3,0,0.3-0.1c0.1-0.1,0-0.3,0-0.5c0-0.4-0.1-0.9-0.1-1.4
																	c-0.2-1.9-0.3-3.5-0.2-3.5c0.1,0,0.3,1.5,0.5,3.5c0,0.5,0.1,0.9,0.1,1.4c0,0.2,0.1,0.4-0.1,0.7
																	c-0.1,0.1-0.2,0.2-0.3,0.2c-0.1,0-0.2,0-0.3,0C29.1,74.8,28.8,74.7,28.8,74.7z"/>
															</g>
														</g>
													</g>
												</g>
											</g>
										</g>
									</g>
								</g>
							</g>
						</g>
					</g>
				</g>
			</g>
		</g>
	</g>
</g>
</svg>
