<svg xmlns="http://www.w3.org/2000/svg" viewBox="0 0 320 310">
  <style>
    .st4{fill:#2093ad}.st6{fill:#e5c9a8}.st7{fill:#c1a785}.st9{fill:#6fa81d}.st11{opacity:.2}.st11,.st12{fill:#545768}.st13{fill:#fff6e1}.st15{fill:#c44}.st16,.st17{opacity:.6;fill:#e8c5b8}.st17{opacity:.4}.st18,.st19{fill:#707691}.st19{opacity:.3}.st20{fill:#eddebb}.st21{fill:#0c0c0c}.st22{fill:#fff}.st23{fill:#e5e5e5}.st24{fill:#fffddc}.st25{fill:#3d202b}.st26{fill:#ffb882}.st27{fill:#ffd652}.st28{fill:#ffd5b3}.st30{fill:#3f220a}.st31{fill:#ea7b59}.st35{fill:#fbcc34}.st36,.st40{fill:none;stroke:#472b1d;strokeWidth:.25;strokeMiterlimit:10}.st40{stroke:#fff}.st41{fill:#545972}.st42{fill:#e0cea9}.st43{fill:#c4a686}.st44{fill:#4e5472}.st45{fill:#0ba587}.st46{fill:#028477}.st47{fill:#676e87}.st48{fill:#e2a36a}.st50{fill:#fff4e3}.st51{fill:#3a3c49}.st52{fill:#d8d8d8}.st53{fill:#32343f}.st54{fill:#ffba40}.st56{fill:#d69356}.st57{fill:#c3752d}.st58{fill:#f4be84}.st59{fill:#ffe5cc}.st60{fill:#946246}.st61{fill:#875634}.st62{fill:#b56825}.st63{fill:#ce8536}.st67{fill:#414451}.st68{fill:#393c47}.st69{fill:#4c505e}.st70{fill:#31343d}.st71{fill:#378675}.st72{fill:#56aa99}.st73{fill:#489d91}.st74{fill:#63bcad}.st75{fill:#f7ead2}.st76{fill:#e8cdc2}.st77{opacity:.5;fill:#e5baba}.st78{fill:#ef8935}.st79{opacity:.2;fill:#d3752f}
  </style>
  <g id="Layer_2">
    <path fill="#2e9aa8" d="M-148.99 204.61h549.85V324h-549.85z"/>
    <path fill="#24909e" d="M-148.99 204.61h549.85v3.47h-549.85z"/>
    <linearGradient id="SVGID_1_" x1="125.935" x2="125.935" y1="322.716" y2="216.165" gradientUnits="userSpaceOnUse">
      <stop offset="0" stop-color="#2ec381"/>
      <stop offset=".996" stop-color="#004d78"/>
    </linearGradient>
    <path fill="url(#SVGID_1_)" d="M-148.99 204.61h549.85V324h-549.85z" opacity=".5"/>
    <g opacity=".2">
      <path d="M231.08 216.63c0 1.28 40.85 2.31 91.24 2.31 50.39 0 91.24-1.03 91.24-2.31s-40.85-2.31-91.24-2.31c-50.4 0-91.24 1.03-91.24 2.31z" class="st4"/>
      <ellipse cx="70.64" cy="243.02" class="st4" rx="91.24" ry="3.25"/>
      <ellipse cx="232.25" cy="272.02" class="st4" rx="128.79" ry="3.73"/>
      <path d="M291.82 295.2c0 2.06 34.18 3.73 76.34 3.73 42.16 0 76.34-1.67 76.34-3.73s-34.18-3.73-76.34-3.73c-42.16-.01-76.34 1.66-76.34 3.73zM-86.59 301.7c0 2.06 78.62 3.73 175.6 3.73s175.6-1.67 175.6-3.73-78.62-3.73-175.6-3.73-175.6 1.67-175.6 3.73z" class="st4"/>
      <ellipse cx="-128.58" cy="247.87" class="st4" rx="91.24" ry="3.25"/>
      <path d="M282.71 230.2c0 1.28-34.58 2.31-77.23 2.31s-77.23-1.03-77.23-2.31 34.58-2.31 77.23-2.31 77.23 1.03 77.23 2.31zM-66.65 217.61c0 1.28-34.58 2.31-77.23 2.31s-77.23-1.03-77.23-2.31 34.58-2.31 77.23-2.31 77.23 1.03 77.23 2.31zM53.61 230.76c0 1.28-34.58 2.31-77.23 2.31-42.65 0-77.23-1.03-77.23-2.31s34.58-2.31 77.23-2.31c42.65 0 77.23 1.03 77.23 2.31zM144.4 215.69c0 1.28-43.03 2.31-96.1 2.31s-96.1-1.03-96.1-2.31 43.03-2.31 96.1-2.31 96.1 1.03 96.1 2.31z" class="st4"/>
      <ellipse cx="347.17" cy="243.25" class="st4" rx="77.23" ry="3.04"/>
    </g>
    <g>
      <path fill="#d1ba99" d="M189.47 200.7l12.26-41.54 13.07-2.86 13.07 1.23 6.72-21.35 14.53.1 6.94 17.57 14.71 6.13 8.58 14.3 9.39-12.26 19.61.41 22.89 38.22z"/>
      <path d="M202.44 159.94l-2.96 10.52 4.39.52 2.04-1.13.21-5.82.71-.1.21 5.92 3.67-.71-1.32-9.09.71-.21 1.33 6.64 2.76-.71-2.25-8.17zM235.33 136.96l-6.74 24.01 5.61.81 9.5-8.58-1.94-16.03zM243.09 137.27l2.04 15.63 2.45-2.25-.61-13.79zM245.54 163.52l7.56-4.6 8.99 3.17 7.66-.92 2.45 4.49-8.68 6.75-8.99-2.25zM284.25 170.87l5-7.66 6.03.31-1.02 10.83zM296.71 163.72l-.1 8.17 6.13-.4-1.94-7.77z" class="st6"/>
      <path d="M214.8 156.3l3.27 9.13 3.67.81 1.77 4.09 4.36-12.8zM249.12 136.28l1.09 17.57-9.4 7.35 2.18 1.37 13.07-8.72zM274.41 166.05l-8.82 7.96 8.58 7.35 5.86-3.41-.68-3.67zM308.35 162.43l-5.3-.11 4.35 10.73-2.59 3.27 2.59 5.45 8.03.81 4.64 18.08 11.17-.01z" class="st7"/>
      <path fill="#6b9e19" d="M208.47 173.53l6.12-5.11 8.99-2.04 1.84-4.09 10.62 1.23 1.64 4.08 6.74-1.43 7.96 4.09 1.03 6.13 3.06-1.23 5.92 2.05 2.66 5.71 7.76-1.22-1.43-5.31 5.96-5.46 7.32 2.6 2.45 5.11 5.72-.82 4.9 5.1-5.92 8.58-23.9-4.29-61.08 3.68z"/>
      <path d="M186.2 189.05l-3.06-5.31 5.1-1.43-1.83-4.49 6.53-7.15 9.4 2.04 5.92-1.22 4.9 5.31-2.24 6.53 6.94 3.07 2.86-4.5-4.7-2.04 3.48-7.15 9.19 2.04 4.7 5.52 4.7-2.04 4.49 2.45-.95 2.59-16.82 10.89z" class="st9"/>
      <g>
        <path fill="#ffe266" d="M134.89 90.53h3.47v6.2h-3.47z" opacity=".6"/>
        <path d="M130.6 88.98h12.05v8.54H130.6z" class="st11"/>
        <path d="M130.6 87.94h12.05v1.63H130.6z" class="st12"/>
        <path d="M130.6 87.94h.85v12.05h-.85zM136.18 87.94h.89v12.05h-.89zM141.92 87.94h.73v12.05h-.73zM139.16 87.94h.73v12.05h-.73zM133.39 87.94h.73v12.05h-.73z" class="st12"/>
        <path d="M130.6 94.37h12.05v5.62H130.6zM136.73 78h-.54l.05-5.18h.45z" class="st12"/>
        <path d="M141.92 87.94V89h-2.02v-1.06h-.73V89h-2.09v-1.06h-.45V89h-6.03v.58h6.03V100h6.02V87.94h-.73zm-4.85 6.43v-4.8h2.09v4.8h-2.09zm4.85 0h-2.02v-4.8h2.02v4.8z" class="st11"/>
        <path d="M145.3 112.45h-17.34l-3.99 88.52h25.32z" class="st13"/>
        <path fill="#ead9c1" d="M123.08 188.44h26.76v12.46h-26.76z"/>
        <path d="M126.67 122.26h19.93v1.84h-19.93zM148.41 104.28h-23.57l3.07 8.17h17.44zM148.41 104.28h-23.57l3.07-5.31h17.44z" class="st13"/>
        <path d="M128.39 88.14h16.14l-8.01-9.39zM147.49 161.07h-21.72l-.22 4.9h22.16zM147.9 170.19h-22.54l-.61 13.35h23.75z" class="st15"/>
        <path d="M128.39 88.11l2.21.87h12.05l1.88-.87z" class="st12"/>
        <path d="M125.52 98.2h22.21v2.5h-22.21z" class="st11"/>
        <path d="M125.52 101.58h22.21v.46h-22.21zM125.52 97.26h22.21v.26h-22.21zM125.52 97.95h22.21v.26h-22.21zM125.52 100.71h22.21v.26h-22.21z" class="st12"/>
        <path d="M125.52 97.03h.37v5h-.37zM147.36 97.03h.37v5h-.37zM145.17 97.03h.37v5h-.37zM142.99 97.03h.37v5h-.37zM140.81 97.03h.37v5h-.37zM138.62 97.03h.37v5h-.37zM136.44 97.03h.37v5h-.37zM134.26 97.03h.37v5h-.37zM132.07 97.03h.37v5h-.37zM129.89 97.03h.37v5h-.37zM127.7 97.03h.37v5h-.37zM127.41 102.03h.95v.54h-.95zM144.88 102.03h.95v.54h-.95zM136.15 102.03h.95v.54h-.95z" class="st12"/>
        <path d="M124.84 104.28h23.57l-3.1 8.44.43 9.54h.85v1.84h-.77l2.9 64.34h-18.9s8.51-1.77 8.99-2.86c.18-.42.02-26.66.02-26.66l-4.68-2.65 4.66-.31-.14-15.11-4.52-2.28h4.49l-.14-10.69-11.07-3.78h10.7v-1.84l-3.98-1.4 3.98-.14v-8l.82-6.4-14.11-2.04z" class="st16"/>
        <path d="M149.84 188.44h-26.76l15.19 3.13v9.33h11.57z" class="st17"/>
        <g>
          <path d="M127.4 112.09h18.46v.92H127.4z" class="st13"/>
          <path d="M127.4 112.09h18.46v.92H127.4z" class="st17"/>
        </g>
        <g>
          <path d="M134.77 114.9h3.71v5.52h-3.71z" class="st12"/>
          <path d="M134.15 120.12h4.95v.74h-4.95z" class="st13"/>
          <path d="M135.26 115.45h2.73v4.06h-2.73z" class="st18"/>
          <path d="M135.26 118.31v-2.86h2.73v2.72s-.59-2.11-1.41-2.11c-.81 0-1.32 2.25-1.32 2.25z" class="st19"/>
          <path d="M135.06 116.88h3.14v.51h-3.14z" class="st12"/>
        </g>
        <g>
          <path d="M134.77 132.61h3.71v5.52h-3.71z" class="st12"/>
          <path d="M134.15 137.82h4.95v.74h-4.95z" class="st13"/>
          <path d="M135.26 133.16h2.73v4.06h-2.73z" class="st18"/>
          <path d="M135.26 136.01v-2.86h2.73v2.72s-.59-2.11-1.41-2.11c-.81 0-1.32 2.25-1.32 2.25z" class="st19"/>
          <path d="M135.06 134.58h3.14v.51h-3.14z" class="st12"/>
        </g>
        <g>
          <path d="M134.77 150.31h3.71v5.52h-3.71z" class="st12"/>
          <path d="M134.15 155.53h4.95v.74h-4.95z" class="st13"/>
          <path d="M135.26 150.86h2.73v4.06h-2.73z" class="st18"/>
          <path d="M135.26 153.71v-2.86h2.73v2.72s-.59-2.11-1.41-2.11c-.81.01-1.32 2.25-1.32 2.25z" class="st19"/>
          <path d="M135.06 152.28h3.14v.51h-3.14z" class="st12"/>
        </g>
        <path d="M128.39 88.11h16.14l-8.01-9.36s1.5 6.95 1.25 7.5c-.25.55-9.38 1.86-9.38 1.86z" class="st16"/>
        <circle cx="136.46" cy="78.11" r="1.36" class="st15"/>
        <path d="M136.46 76.75c-.75 0-1.36.61-1.36 1.36s.61 1.36 1.36 1.36c.75 0 1.36-.61 1.36-1.36s-.61-1.36-1.36-1.36zm-.15 1.99a.939.939 0 110-1.88.939.939 0 110 1.88z" class="st16"/>
        <path d="M144.53 88.11l-1.88.87h-6.02l.39-.82z" class="st11"/>
      </g>
      <path d="M124.53 199.49l53.09-12.68 28.05 4.08 18.53.82 17.43-8.44 41.94 1.9 16.89 7.63 11.98-4.36 38.37 12.6z" class="st9"/>
      <path d="M100 202.58h268l-54.47-4.88-18.52 2.72-26.15-9.8-30.5 1.63-11.17 5.99h-22.88l-8.71 1.64-28.6-4.9-19.61 1.63z" class="st20"/>
    </g>
  </g>
  <g id="Layer_1">
    <path d="M101.15 273.34l1.9.01s15.62-83.63 14.58-116.68l-20.49 7.51 4.01 109.16z" class="st21"/>
    <path d="M103.88 162.37l-7.54 1.92 4.81 109.05h.95z"/>
    <path d="M118.05 100.75c5.06 5.08 18.08 30.19 18.29 34.13.37 7.01-7.92 11-13.35 6.12-4.09-3.67-9.73-11.07-10.74-14.04-1-2.97-2.44-34.49 5.8-26.21z" class="st22"/>
    <path d="M113.29 108.82c-.43 7.01-1.51 16.71-1.03 18.14 1.01 2.97 5.87 10.94 9.96 14.62 3.79 3.41 9.35 2.21 12.24-1.21-2.21 1.19-19.26-20.84-21.17-31.55z" class="st23"/>
    <path d="M77.62 170.27l1.41 103.68 1.9.01 15.71-77.16 6.79-3.32 3.49-34.01z" class="st21"/>
    <path d="M85.63 167.25l-8.87 3.27 2.27 103.43h1.84z"/>
    <path d="M82.56 194.28c13.47-2.49 23.47-5.1 33.65-9.55l.94-6.6-36.16 10.53 1.57 5.62z"/>
    <path d="M75.26 191.66s23.19-.25 44.28-10.13c0 0 2.14-74.36-.16-79-2.3-4.65-16.18-9.89-28.32-7.45-12.14 2.44-16.71 5.02-17.15 6.96-4.01 17.46-.58 29.68.51 53.42 1.08 23.74.84 36.2.84 36.2z" class="st22"/>
    <path d="M89.25 190.33c.02-5.06-1.09-25.04-1.73-43.56-.24-6.98-1.25-17.91-2.47-23.61-3.18-14.83-12.55-21.71-12.74-20.87-4.01 17.46 1.02 29.42 2.11 53.16 1.09 23.75.85 36.2.85 36.2s9.89-.39 13.98-1.32zM117.34 182.51c.73-.32 1.46-.65 2.19-.99 0 0 .83-28.83.9-51.71-1.68 10.42-2.91 44.9-3.09 52.7z" class="st23"/>
    <path d="M85.94 97.43l13.97 10.94 6.12-10.49z" class="st24"/>
    <path d="M98.16 102.18l.15 4.94 1.6 1.25 1.21-2.07-1.53-4.29z" class="st25"/>
    <path d="M83.12 65.25l.79 32.11L98.34 102l8.29-5.72-3.66-31.77z" class="st26"/>
    <path d="M99.16 103.49l-3.08-1.44 1.56-4.15 1.43-.29 1.77 3.45z" class="st25"/>
    <path d="M109.28 185.59l-1.34-70.99-21.01-15.63.43-.57 21.29 15.84 1.34 71.14z" class="st27"/>
    <path d="M83.52 92.36l-1.39 4.85 13.14 6.45 2.42-6.07zM101.81 103.42l-3.9-5.78 9.12-4.45 1.68 2.77z" class="st24"/>
    <path d="M106.02 168.35c.51-.51.52-1.34.01-1.85a1.31 1.31 0 00-1.85-.01 1.31 1.31 0 00-.01 1.85 1.3 1.3 0 001.85.01zM106.06 160.63c.51-.51.52-1.34.01-1.85a1.31 1.31 0 00-1.85-.01 1.31 1.31 0 00-.01 1.85c.51.51 1.33.51 1.85.01zM106.09 153.49c.51-.51.52-1.34.01-1.85a1.31 1.31 0 00-1.85-.01 1.31 1.31 0 00-.01 1.85 1.3 1.3 0 001.85.01zM101.15 122.11l-11.54 1.73-.01 2.26 11.54-1.73z" class="st27"/>
    <path d="M72.3 102.29c-4.96 6.1-11.87 38.2-11.35 42.48.93 7.61 12.02 9.98 15.86 2.75s6.82-14.32 7.43-17.65c.61-3.32-3.85-37.51-11.94-27.58z" class="st22"/>
    <path d="M61.34 144.74c-.49-4.04 5.67-31.8 10.71-42.11-4.96 6.85-12.06 38.14-11.54 42.35.52 4.27 4.38 6.83 8.35 6.97-3.7-.59-7.03-3.17-7.52-7.21z" class="st23"/>
    <path d="M77.6 143.29c-3.83 7.21-15.34 2.56-16.33-5.01-.58 3.27-.88 5.72-.76 6.7.93 7.61 12.51 12.32 16.35 5.08 3.84-7.23 7.32-18.74 7.81-22.09.49-3.33-.14-7.19-1.15-8.63.79 6.85-3 18.44-5.92 23.95z" class="st23"/>
    <path d="M104.27 126.67l3.44 11.8c-2.6.27-6.79 1.71-7.93 2.59l-4.43-7.77c-.01.01 6.49-2.86 8.92-6.62z" class="st26"/>
    <path d="M102.01 129.15c.48-.84 1.59-2.83 2.73-4.59 1.46-2.25 2.93-8.8 3.79-8.94 1.24-.2 2.53.81 2.67 1.53.14.72-2.93 7.18-1.35 8.12 1.42.85 4.54-1.23 5.3-.95 1.65.61.92 8.46.45 10.54-.47 2.08-5.77 4.8-10.08 3.89-1.58-.33-3.51-9.6-3.51-9.6z" class="st26"/>
    <path d="M111.67 125.47c2.12-.8 5.05-1.76 5.66-2.26.6-.5 4.05-3.48 4.58-3.39.54.08 2.25.95 1.68 1.85-.57.9-4.41 4.13-5.49 4.6-1.08.47-4.47 2.26-4.86 2.17-.38-.08-2.75-2.52-1.57-2.97zM113.62 128.55c2.19-.53 5.22-1.11 5.87-1.54.65-.42 4.39-2.94 4.92-2.79.53.15 2.15 1.22 1.49 2.04-.66.82-4.82 3.54-5.95 3.87-1.13.34-4.69 1.68-5.07 1.55-.37-.13-2.49-2.83-1.26-3.13zM112.4 133.59c2.21-.47 5.25-.98 5.91-1.39.66-.41 4.45-2.83 4.98-2.66.52.16 2.13 1.27 1.45 2.07-.68.8-4.89 3.41-6.03 3.72-1.14.31-4.73 1.56-5.1 1.42-.38-.14-2.45-2.9-1.21-3.16zM151.95 101.54l7.05 10.07c-2.37 1.09-5.88 3.8-6.67 5l-6.69-5.93c-.01 0 5.22-4.8 6.31-9.14z" class="st26"/>
    <path d="M150.61 104.62c.19-.94.6-3.19 1.11-5.23.66-2.6-.05-9.28.71-9.69 1.11-.59 2.65-.05 3.02.59.36.64-.47 7.74 1.34 8.12 1.61.35 3.91-2.62 4.71-2.6 1.76.04 3.59 7.71 3.82 9.83.23 2.12-3.92 6.4-8.29 6.92-1.61.21-6.42-7.94-6.42-7.94z" class="st26"/>
    <path d="M158.58 98.02c1.75-1.44 4.22-3.29 4.63-3.96.41-.67 2.72-4.59 3.25-4.69.53-.09 2.44.18 2.19 1.21s-2.85 5.32-3.72 6.12c-.87.8-3.51 3.57-3.9 3.62-.4.05-3.43-1.49-2.45-2.3zM161.41 100.31c1.91-1.2 4.59-2.73 5.07-3.34.48-.61 3.21-4.2 3.76-4.22.55-.03 2.43.46 2.07 1.45-.36.99-3.42 4.9-4.39 5.58-.96.68-3.9 3.1-4.3 3.09-.4 0-3.28-1.88-2.21-2.56zM161.87 105.48c1.94-1.16 4.65-2.62 5.15-3.21.5-.6 3.31-4.11 3.86-4.12.55-.02 2.42.52 2.04 1.49-.38.98-3.54 4.8-4.51 5.46-.98.66-3.98 3-4.38 2.98-.4-.01-3.24-1.96-2.16-2.6z" class="st26"/>
    <path d="M93.92 131.64l4.82-1.76 5.02 13.14-5.72 2.29zM143.08 110.11l3.76-3.51 9.75 10.13-4.37 4.34z" class="st24"/>
    <path d="M68.66 136.94c4.3-1.59 26.89-7.24 26.89-7.24l5.82 15.71s-31.47 12.49-35.41 5.54c-3.95-6.95 2.7-14.01 2.7-14.01z" class="st22"/>
    <path d="M64.08 143.81c-.53 2.29.33 5.33 1.73 7.81 3.95 6.95 35.56-6.2 35.56-6.2l-2.18-5.88c-9.14 2.67-29.74 7.42-35.11 4.27z" class="st23"/>
    <path d="M126.05 125.75c2.85-3.59 16.84-17.44 16.84-17.44l13.14 10.41s-16.92 22.65-23.17 17.65c-4.17-3.33-6.81-10.62-6.81-10.62z" class="st22"/>
    <path d="M123.32 136.71c.74 2.23 1.41 5.12 3.89 6.5 6.98 3.89 28.82-24.49 28.82-24.49l-4.92-3.89c-6.43 7.03-21.56 21.79-27.79 21.88z" class="st23"/>
    <path d="M109.16 95.92l.39 1.29 4.9 1.72 1.25-.13-1.25-1.12z"/>
    <path d="M100.09 146.24l2.02-.82-6.34-16.26-2.32.7zM155.04 120.47l1.39-1.68-13.29-11.31-1.71 1.71zM148.13 120.16c0 .8.65 1.46 1.45 1.46.8 0 1.46-.65 1.46-1.45 0-.8-.65-1.46-1.45-1.46-.8 0-1.46.65-1.46 1.45z" class="st27"/>
    <circle cx="146.47" cy="123.78" r="1.46" class="st27" transform="rotate(-11.882 146.456 123.767)"/>
    <path d="M93.52 142.53a1.453 1.453 0 102.01-.43c-.67-.44-1.57-.25-2.01.43zM88.96 143.89c-.44.68-.24 1.58.43 2.01.68.44 1.58.24 2.01-.43.44-.68.24-1.58-.43-2.01-.68-.44-1.58-.24-2.01.43z" class="st27"/>
    <path d="M100.38 275.24l11.81.06s-5.42-3.36-8.73-4.03c-3.3-.67-3.08 3.97-3.08 3.97zM81.84 275.15l-11.34-.05s5.23-3.31 8.41-3.94c3.19-.65 2.93 3.99 2.93 3.99z" class="st28"/>
    <path d="M102.3 195.84c-.05.13-5.94 1.26-5.94 1.26l-2.63-.68 12.91-5.87-4.34 5.29z"/>
    <path d="M112.28 39.62c-.18-1.43-.51-4.28-11.49-2.46-10.98 1.82-31.84 19.2-31.57 20.36.26 1.16 7.03 2.17 7.03 2.17l32.06-9.66c-.01 0 4.31-7.73 3.97-10.41z" class="st22"/>
    <path fill="#f0ecec" d="M87.72 52.48c-1.84-4.91 4.5-11.82 14.16-15.43.1-.04.2-.07.3-.11-.45.06-.9.13-1.39.21-10.98 1.82-31.84 19.2-31.57 20.36.26 1.16 7.03 2.17 7.03 2.17l14.14-4.26c-1.28-.72-2.21-1.71-2.67-2.94z"/>
    <path d="M84.36 77.83c-3.28-3.49-7.44-11.45-7.23-16.44.2-4.99 13.23-6.39 13.23-6.39l-6 22.83z" class="st30"/>
    <path d="M85.74 62.77l2.77 18.2 21.53-3.11s-.63-17.48-2.04-20.34c-1.41-2.86-22 1.21-22.26 5.25z" class="st26"/>
    <path d="M81.68 61.77s4.77 27.52 6.31 29.07c1.54 1.55 19.84 3.78 24 2.73l-1.97-16.41s-16.09 2.06-17.63.62c-1.54-1.43-6.63-17.39-6.63-17.39l-4.08 1.38z" class="st30"/>
    <path d="M110.64 53.32c-2.25-2.15-20.93-4.53-28.96 8.45l4.45 1.98c4.48-4.97 12.97-9.03 22.37-4.51 2.28 1.1 4.39-3.77 2.14-5.92z" class="st30"/>
    <path d="M84.73 78.16c-2.6-.12-6.31-3.09-5.7-5.99.68-3.27 2.76-4.27 4.44-2.08 1.46 1.89 3.32 8.17 1.26 8.07z" class="st26"/>
    <path d="M83.92 76.74c-1.56-.07-3.78-1.85-3.42-3.59.41-1.96 1.66-2.56 2.66-1.25.88 1.14 1.99 4.9.76 4.84z" class="st31"/>
    <path d="M84.18 76.98c-1.1-.05-2.66-1.31-2.41-2.53.29-1.38 1.17-1.81 1.88-.88.62.8 1.4 3.45.53 3.41z" class="st26"/>
    <path d="M77.04 62.19l-1.32-3.13c10.69-5.68 19.75-8.07 32.77-9.3l.34 2.68c-13.22 1.48-21.2 4.05-31.79 9.75z"/>
    <path d="M87.77 53.81c-3.99 1.34-7.9 3.04-12.06 5.25l1.32 3.13c4.88-2.63 9.21-4.58 13.75-6.08-1.27-.66-2.3-1.44-3.01-2.3z"/>
    <path d="M108.76 51.91c-2.48.17-14.85 2.63-19.29 4.65 5.89-.15 26.4-1.6 27.48-3.6.5-.95-5.71-1.22-8.19-1.05z"/>
    <path fill="#fff431" d="M106.82 47.75c-.14-2.13-1.05-3.34-2.04-2.72-.99.62-1.67 2.85-1.54 4.98.14 2.13 1.05 3.34 2.04 2.72.99-.62 1.68-2.85 1.54-4.98z"/>
    <path d="M102.02 61.86c-.71-.4-1.23-2.08-.17-2.17 1.06-.08 5.59.21 5.39 1.08-.2.87-.19 1.63-.97 1.72-.79.09-3.06.05-4.25-.63zM97.34 62.35c.7-.52.83-2.24-.29-2.24-1.11-.01-5.61.71-5.33 1.67.27.95.33 1.8 1.1 1.85.77.05 3.34-.42 4.52-1.28z" class="st30"/>
    <path fill="#630f06" d="M99.7 79.79l7.61-.45s.09 6.13-3.07 6.3c-4.23.23-4.54-5.85-4.54-5.85z"/>
    <path fill="#ffeadc" d="M106.37 82.18c.27-1.2.25-2.33.25-2.33l-6.14.36s.07 1.16.52 2.33l5.37-.36z"/>
    <path d="M107.56 66.76c-.22-1.21-.96-2.1-1.64-2-.68.1-1.05 1.16-.83 2.37.21 1.21.95 2.12 1.64 2.02.69-.1 1.06-1.17.83-2.39zM99.03 67.44c-.17-1.29-.91-2.25-1.66-2.15-.75.09-1.23 1.2-1.07 2.48.16 1.29.9 2.27 1.66 2.18.75-.09 1.24-1.22 1.07-2.51z"/>
    <path d="M104.12 77.66s6.18.85 6.45.26c.27-.58-8.34-14.33-8.34-14.33s.64 12.21 1.89 14.07z" class="st31"/>
    <path d="M103.17 77.19s6.18.85 6.45.26c.27-.58-8.34-14.33-8.34-14.33s.64 12.21 1.89 14.07z" class="st26"/>
    <circle cx="113.37" cy="115.95" r=".66" class="st35"/>
    <path d="M113.01 115.05l.1.3M114.47 114.11l.1.29" class="st36"/>
    <circle cx="114.76" cy="114.98" r=".66" class="st35"/>
    <path d="M115.51 113.4l.11.3" class="st36"/>
    <path fill="#f1d933" d="M113.77 109.73l2-1.33.1 3.74-.34 1.32-1.15-.43z"/>
    <circle cx="115.89" cy="114.24" r=".66" class="st35"/>
    <path fill="#333394" d="M112.73 110.43l2-1.34.09 3.75-.33 1.32-1.16-.44z"/>
    <path fill="#bb2313" d="M111.28 111.4l2-1.34.09 3.75-.34 1.32-.52-.24-.55-.25z"/>
    <path d="M65.68-29.96h-1.34l242.6 202.78.55-.66z" class="st41"/>
    <path d="M39.24-29.96h-1.43l269.15 202.79.51-.68z" class="st41"/>
    <path d="M27.34-50.62L2.09-48.85v332.71l31.01-1.77z" class="st42"/>
    <path d="M27.34-50.62l-6.91.49 1.58 137.29H2.09v4.87l20.02 4 2.14 186.47-22.16 1.29v.07l31.01-1.77z" class="st43"/>
    <path d="M2.09 153.61h25.69v13.73H2.09zM-.17 125.26H26.9v13.73H-.17zM1.98 32.67h24.48v5.32H1.98zM1.98 13.62h24.48v5.32H1.98zM1.98-5.43h24.48v5.32H1.98z" class="st43"/>
    <path d="M-1.01 82.29h32.78v4.87H-1.01z" class="st42"/>
    <path d="M.54 236.16h31.78v41.64H-.13z" class="st43"/>
    <path d="M20.55 240.48h43.71v34.96l-43.7 1.18z" class="st42"/>
    <path d="M27.48 235.5h2.99v6.18h-2.99zM53.79 235.5h2.99v6.18h-2.99z" class="st42"/>
    <path d="M25.04 231.83h34.73v4.27H25.04z" class="st42"/>
    <path d="M25.04 234.5h34.73v1.59H25.04zM27.86 276.49l.13-19.05 30.16-.05v18.22z" class="st43"/>
    <circle cx="27.63" cy="248.67" r="1.53" class="st43"/>
    <circle cx="33.54" cy="248.47" r="1.53" class="st43"/>
    <path d="M40.98 248.27a1.53 1.53 0 11-3.06 0 1.53 1.53 0 013.06 0z" class="st43"/>
    <path d="M.36 252.47h13.88v24.33H.36z" class="st44" transform="rotate(-1.467 7.283 264.136)"/>
    <path d="M6.32 259.71c-5.61 0-9.54-1.07-9.81-1.15-1.2-.33-1.9-1.58-1.56-2.78.34-1.2 1.58-1.89 2.77-1.56.14.04 9.76 2.61 19.93-.8a2.252 2.252 0 011.43 4.27c-4.6 1.55-9.05 2.02-12.76 2.02z" class="st45"/>
    <path d="M6.05 257.39c-5.71 0-9.72-1.18-10-1.27a2.253 2.253 0 01-1.5-2.81 2.247 2.247 0 012.8-1.5c.15.05 10.21 2.95 20.69-1.07a2.254 2.254 0 011.61 4.21c-4.89 1.88-9.65 2.44-13.6 2.44z" class="st46"/>
    <path d="M8.73 270.36c-7.07 0-12.8-1.68-13.15-1.79a2.248 2.248 0 01-1.51-2.8 2.248 2.248 0 012.8-1.51c.21.06 11.54 3.34 21.12.29 1.18-.38 2.45.28 2.83 1.46.38 1.18-.28 2.45-1.46 2.83-3.55 1.14-7.24 1.52-10.63 1.52z" class="st45"/>
    <path d="M6.9 273.17c-5.41 0-9.84-.72-10.15-.77a2.247 2.247 0 01-1.85-2.59 2.24 2.24 0 012.59-1.85c.12.02 11.8 1.92 19.67-.58 1.18-.38 2.45.28 2.83 1.46.38 1.18-.28 2.45-1.46 2.83-3.65 1.15-7.87 1.5-11.63 1.5zM6.9 266.57c-5.41 0-9.84-.72-10.15-.77a2.247 2.247 0 01-1.85-2.59 2.24 2.24 0 012.59-1.85c.12.02 11.8 1.91 19.67-.58 1.18-.38 2.45.28 2.83 1.46.38 1.18-.28 2.45-1.46 2.83-3.65 1.16-7.87 1.5-11.63 1.5z" class="st45"/>
    <path d="M6.94 277.34c-4.94 0-8.91-.72-9.18-.77a2.248 2.248 0 01-1.8-2.62c.23-1.22 1.4-2.02 2.62-1.8.11.02 10.64 1.92 17.98-.66 1.17-.41 2.46.21 2.87 1.38.41 1.17-.21 2.46-1.38 2.87-3.55 1.23-7.58 1.6-11.11 1.6zM6.94 263.29c-4.94 0-8.91-.72-9.18-.77a2.248 2.248 0 01-1.8-2.62c.23-1.22 1.4-2.02 2.62-1.8.11.02 10.64 1.92 17.98-.66 1.17-.41 2.46.21 2.87 1.38.41 1.17-.21 2.46-1.38 2.87-3.55 1.23-7.58 1.6-11.11 1.6z" class="st45"/>
    <path d="M19.08 256.76c-4.6 1.54-9.05 2.01-12.76 2.01-5.61 0-9.54-1.07-9.81-1.15-.83-.23-1.41-.91-1.58-1.7-.25 1.15.43 2.31 1.58 2.64.27.07 4.2 1.15 9.81 1.15 3.71 0 8.16-.47 12.76-2.01a2.255 2.255 0 001.48-2.6c-.16.75-.7 1.4-1.48 1.66zM19.36 267.91c-3.55 1.13-7.24 1.52-10.63 1.52-7.07 0-12.8-1.68-13.15-1.79-.81-.24-1.38-.91-1.55-1.69-.24 1.14.41 2.28 1.55 2.62.35.1 6.08 1.79 13.15 1.79 3.39 0 7.08-.39 10.63-1.52a2.242 2.242 0 001.51-2.61c-.17.77-.72 1.43-1.51 1.68z" class="st46"/>
    <path d="M18.53 270.73c-3.65 1.16-7.87 1.5-11.62 1.5-5.41 0-9.84-.72-10.15-.77-.94-.16-1.63-.87-1.83-1.74-.01.03-.02.06-.02.09-.2 1.23.62 2.39 1.85 2.59.31.05 4.74.77 10.15.77 3.75 0 7.97-.35 11.62-1.5a2.242 2.242 0 001.51-2.61c-.17.76-.72 1.41-1.51 1.67zM18.53 264.13c-3.65 1.16-7.87 1.5-11.62 1.5-5.41 0-9.84-.72-10.15-.77-.94-.16-1.64-.87-1.83-1.74-.01.03-.02.06-.02.09-.2 1.23.62 2.39 1.85 2.59.31.05 4.74.77 10.15.77 3.75 0 7.97-.35 11.62-1.5a2.242 2.242 0 001.51-2.61c-.17.76-.72 1.42-1.51 1.67zM18.04 274.79c-3.54 1.24-7.57 1.61-11.1 1.61-4.94 0-8.91-.72-9.18-.77-.92-.17-1.6-.87-1.79-1.73 0 .02-.01.03-.01.05-.23 1.22.58 2.4 1.8 2.62.28.05 4.24.77 9.18.77 3.53 0 7.57-.37 11.1-1.61a2.239 2.239 0 001.45-2.58c-.17.73-.69 1.37-1.45 1.64z" class="st46"/>
    <path d="M18.04 260.74c-3.54 1.24-7.57 1.61-11.1 1.61-4.94 0-8.91-.72-9.18-.77-.92-.17-1.6-.87-1.79-1.73 0 .02-.01.03-.01.05-.23 1.22.58 2.4 1.8 2.62.28.05 4.24.77 9.18.77 3.53 0 7.57-.37 11.1-1.61a2.239 2.239 0 001.45-2.58c-.17.73-.69 1.37-1.45 1.64z" class="st46"/>
    <path d="M8.28 277.32c3.19-.09 6.66-.5 9.76-1.59.14-.05.27-.11.4-.19 1.07-.63 1.25-1.93.98-2.68-.18-.51-.53-.91-.96-1.17.02-.01.05-.01.07-.02 1.25-.4 1.93-1.82 1.36-3.07.01-.01.02-.01.02-.02.98-.65 1.16-1.76.91-2.55-.23-.72-.78-1.23-1.45-1.45l.09-.09c.04-.04.08-.07.11-.12.83-.99.7-2.6-.56-3.36.02-.02.03-.04.04-.06.54-.68.56-1.58.36-2.14-.14-.41-.4-.74-.71-1 1.72-.56 2.15-1.89 1.79-2.96-.04-.12-.09-.23-.15-.33.67-.61.95-1.58.6-2.48a2.263 2.263 0 00-2.91-1.3c-1.97.75-3.92 1.26-5.79 1.6l-1.08.03-1.89 4.9s.92 1.35-.21 2.36c0 0 2.53.58 1.03 3.56 0 0 1.77 1.13.09 3.29 0 0 1.87 1.98.19 3.85 0 0 1.31.93-1.22 2.79.02 0 1.9 2.5-.87 4.2z" class="st46"/>
    <path d="M23.6 249.98c.06 2.47-7.22 3.37-16.22 3.59-9 .22-16.32-.33-16.38-2.8-.06-2.47 7.16-5.93 16.16-6.15 9.01-.22 16.38 2.89 16.44 5.36z" class="st41"/>
    <path d="M-7.77 249.91c.04-1.45 7.82-4.94 13.69-4.63 5.88.31 7.32 6.09 6.5 6.5-2.75 1.38-20.27 1.41-20.19-1.87z" class="st47"/>
    <path d="M44.63 252.47h13.88v24.33H44.63z" class="st44" transform="rotate(-1.467 51.47 264.14)"/>
    <path d="M50.59 259.71c-5.61 0-9.54-1.07-9.81-1.15-1.2-.33-1.9-1.58-1.56-2.78.34-1.2 1.58-1.89 2.77-1.56.14.04 9.76 2.61 19.93-.8a2.252 2.252 0 011.43 4.27c-4.6 1.55-9.04 2.02-12.76 2.02z" class="st45"/>
    <path d="M50.32 257.39c-5.71 0-9.72-1.18-10-1.27a2.253 2.253 0 01-1.5-2.81 2.247 2.247 0 012.8-1.5c.15.05 10.21 2.95 20.69-1.07a2.254 2.254 0 011.61 4.21c-4.89 1.88-9.65 2.44-13.6 2.44z" class="st46"/>
    <path d="M53 270.36c-7.06 0-12.8-1.68-13.15-1.79a2.248 2.248 0 01-1.51-2.8 2.248 2.248 0 012.8-1.51c.21.06 11.54 3.34 21.12.29 1.18-.38 2.45.28 2.83 1.46.38 1.18-.28 2.45-1.46 2.83-3.55 1.14-7.24 1.52-10.63 1.52z" class="st45"/>
    <path d="M51.18 273.17c-5.41 0-9.84-.72-10.15-.77a2.247 2.247 0 01-1.85-2.59 2.24 2.24 0 012.59-1.85c.12.02 11.8 1.92 19.67-.58 1.18-.38 2.45.28 2.83 1.46.38 1.18-.28 2.45-1.46 2.83-3.66 1.15-7.88 1.5-11.63 1.5zM51.18 266.57c-5.41 0-9.84-.72-10.15-.77a2.247 2.247 0 01-1.85-2.59 2.24 2.24 0 012.59-1.85c.12.02 11.8 1.91 19.67-.58 1.18-.38 2.45.28 2.83 1.46.38 1.18-.28 2.45-1.46 2.83-3.66 1.16-7.88 1.5-11.63 1.5z" class="st45"/>
    <path d="M51.21 277.34c-4.94 0-8.91-.72-9.18-.77a2.248 2.248 0 01-1.8-2.62c.23-1.22 1.4-2.02 2.62-1.8.11.02 10.64 1.92 17.98-.66 1.17-.41 2.46.21 2.87 1.38.41 1.17-.21 2.46-1.38 2.87-3.55 1.23-7.58 1.6-11.11 1.6zM51.21 263.29c-4.94 0-8.91-.72-9.18-.77a2.248 2.248 0 01-1.8-2.62c.23-1.22 1.4-2.02 2.62-1.8.11.02 10.64 1.92 17.98-.66 1.17-.41 2.46.21 2.87 1.38.41 1.17-.21 2.46-1.38 2.87-3.55 1.23-7.58 1.6-11.11 1.6z" class="st45"/>
    <path d="M63.35 256.76c-4.6 1.54-9.05 2.01-12.76 2.01-5.61 0-9.54-1.07-9.81-1.15-.83-.23-1.41-.91-1.58-1.7-.25 1.15.43 2.31 1.58 2.64.27.07 4.2 1.15 9.81 1.15 3.71 0 8.16-.47 12.76-2.01a2.255 2.255 0 001.48-2.6c-.16.75-.7 1.4-1.48 1.66zM63.63 267.91c-3.55 1.13-7.24 1.52-10.63 1.52-7.06 0-12.8-1.68-13.15-1.79-.81-.24-1.38-.91-1.55-1.69-.24 1.14.41 2.28 1.55 2.62.35.1 6.08 1.79 13.15 1.79 3.39 0 7.08-.39 10.63-1.52a2.242 2.242 0 001.51-2.61c-.17.77-.71 1.43-1.51 1.68z" class="st46"/>
    <path d="M62.8 270.73c-3.65 1.16-7.87 1.5-11.62 1.5-5.41 0-9.84-.72-10.15-.77-.94-.16-1.63-.87-1.83-1.74-.01.03-.02.06-.02.09-.2 1.23.62 2.39 1.85 2.59.31.05 4.74.77 10.15.77 3.75 0 7.97-.35 11.62-1.5a2.242 2.242 0 001.51-2.61c-.17.76-.71 1.41-1.51 1.67zM62.8 264.13c-3.65 1.16-7.87 1.5-11.62 1.5-5.41 0-9.84-.72-10.15-.77-.94-.16-1.64-.87-1.83-1.74-.01.03-.02.06-.02.09-.2 1.23.62 2.39 1.85 2.59.31.05 4.74.77 10.15.77 3.75 0 7.97-.35 11.62-1.5a2.242 2.242 0 001.51-2.61c-.17.76-.71 1.42-1.51 1.67zM62.31 274.79c-3.54 1.24-7.57 1.61-11.1 1.61-4.94 0-8.91-.72-9.18-.77-.92-.17-1.6-.87-1.79-1.73 0 .02-.01.03-.01.05-.23 1.22.58 2.4 1.8 2.62.28.05 4.24.77 9.18.77 3.53 0 7.57-.37 11.1-1.61a2.239 2.239 0 001.45-2.58 2.24 2.24 0 01-1.45 1.64z" class="st46"/>
    <path d="M62.31 260.74c-3.54 1.24-7.57 1.61-11.1 1.61-4.94 0-8.91-.72-9.18-.77-.92-.17-1.6-.87-1.79-1.73 0 .02-.01.03-.01.05-.23 1.22.58 2.4 1.8 2.62.28.05 4.24.77 9.18.77 3.53 0 7.57-.37 11.1-1.61a2.239 2.239 0 001.45-2.58 2.24 2.24 0 01-1.45 1.64z" class="st46"/>
    <path d="M52.55 277.32c3.19-.09 6.66-.5 9.76-1.59.14-.05.27-.11.4-.19 1.07-.63 1.25-1.93.98-2.68-.18-.51-.53-.91-.96-1.17.02-.01.05-.01.07-.02 1.25-.4 1.93-1.82 1.36-3.07.01-.01.02-.01.02-.02.98-.65 1.16-1.76.91-2.55-.23-.72-.78-1.23-1.45-1.45l.09-.09c.04-.04.08-.07.11-.12.83-.99.7-2.6-.56-3.36.02-.02.03-.04.04-.06.54-.68.56-1.58.36-2.14-.14-.41-.4-.74-.71-1 1.72-.56 2.15-1.89 1.79-2.96-.04-.12-.09-.23-.15-.33.67-.61.95-1.58.6-2.48a2.263 2.263 0 00-2.91-1.3c-1.97.75-3.92 1.26-5.79 1.6l-1.08.03-1.89 4.9s.92 1.35-.21 2.36c0 0 2.53.58 1.03 3.56 0 0 1.77 1.13.09 3.29 0 0 1.87 1.98.19 3.85 0 0 1.31.93-1.22 2.79.02 0 1.9 2.5-.87 4.2z" class="st46"/>
    <path d="M67.88 249.98c.06 2.47-7.22 3.37-16.22 3.59-9 .22-16.32-.33-16.38-2.8-.06-2.47 7.16-5.93 16.16-6.15 9-.22 16.38 2.89 16.44 5.36z" class="st41"/>
    <path d="M36.5 249.91c.04-1.45 7.82-4.94 13.69-4.63 5.88.31 7.32 6.09 6.5 6.5-2.75 1.38-20.27 1.41-20.19-1.87z" class="st47"/>
    <g id="wrist_right__folder_1_">
      <path d="M184.18 77.01c-1.85-.35-2.38-.97-3.36-1.44-1.21-.58-2.54-.62-2.42-.95.68-1.8 3.95 1.29 4-.64.05-1.65-2.97-5.5-2.32-5.95.98-.68 2.6 2.75 2.71 2.65.11-.1-1.72-3.07-1.09-3.46 1.07-.67 2.08 3.24 2.28 3.18.2-.06-1.6-3.08-.56-3.29.85-.17 1.56 2.86 1.7 2.83.28-.07-1.11-2.43-.24-2.4.45.01 1.28 1.49 1.5 2.47.72 2.01.59 4.75-.09 6.19-.76 1.6-2.11.81-2.11.81z" class="st48"/>
    </g>
    <g>
      <path fill="#f4e3d3" d="M196.33 127.14c-10.74-.35-33.68-15.07-23.22-27.75 3.52-.14 25.4 7.88 27.92 9.68 2.52 1.81-2.51 18.15-4.7 18.07z"/>
      <ellipse cx="195.13" cy="116.09" class="st50" rx="8.96" ry="12.2" transform="rotate(-10.662 195.082 116.07)"/>
    </g>
    <g id="right_leg_26_">
      <path id="foot_right_14_" d="M177.51 281.61s-.03-2.75.57-3.81c.21-.37.73.08 1.04.08 2 5.45 6.68.96 6.52 3.73h-8.13z" class="st51"/>
      <path id="shin_right_14_" d="M180.73 278.21h-5.21s-9.14-27.48-9.67-34.4c-.26-3.45.08-15.08 1.47-20.21 1.39-5.15 12.47-7.64 12.99-.44.3 10.24-.12 27.24.42 55.05z" class="st51"/>
      <path id="hip_right_14_" d="M181.27 166.08s-.62 28.27-.99 56.03c-.07 5.38-9.55 9.52-12.95 1.5-1.64-12.85-4.98-36.09-4.98-36.09s-8.78-14.51.35-23.12c6.15-5.82 17.55-6.92 18.57 1.68z" class="st51"/>
    </g>
    <g id="left_leg_21_">
      <path id="foot_left_14_" d="M146.96 281.61s.03-2.75-.57-3.81c-.21-.37-.73.08-1.04.08-2 5.45-5.29.96-5.13 3.73h6.74z" class="st51"/>
      <path id="shin_left_14_" d="M143.83 221.91s-3.05 16.15-3.9 22.16c-.85 6.01 3.85 34.14 3.85 34.14h4.71c2.35-14.49 6.78-26.86 7.49-33.63.8-7.66 1.24-22.95 1.24-22.95.16-4.79-11.1-6.86-13.39.28z" class="st51"/>
      <path d="M140.26 177.71c-.11 5.88 4.01 37.86 3.53 43.54-.3 3.59 10.14 9.73 13.27 1.28 3.28-13.86 5.34-35.02 5.34-35.02s9.67-12.66 1.19-21.53c-9.07-7.11-19.4-12.43-21.61-2.85-.77 3.24-1.62 8.7-1.72 14.58z" class="st51"/>
    </g>
    <path d="M131.81 105.71c2.93-4 28.14-10.44 28.14-10.44s21.92 5.73 24.48 9.9c1.06 1.72 1.68 13.5.64 18.94-1.3 6.84-4.18 18.47-4.24 24.18-.06 6.31.59 14.35.59 15.79 0 .71-.24 3.93-15.4 4.32-8.27.21-24.26-1.64-24.96-4.78-.15-.65 2.37-12.56 1.59-17.12-.78-4.55-4.94-12.21-7.76-19.99-2.8-7.77-4.18-19.18-3.08-20.8z" class="st22"/>
    <path d="M150.13 161.91c-1.43-1.28.58-16.68 1.57-19.67 1-3 26.95-7.86 26.53-8.29s-23.25 1-26.67-1.14c-3.42-2.14-7.27-22.39-7.13-23.82.14-1.43 10.13-6.28 10.13-6.28l-2.42-5.29c-7.67 2.23-18.47 5.75-20.32 8.28-1.1 1.61.27 13.03 3.09 20.81 2.82 7.78 6.97 15.43 7.76 19.99.78 4.55-1.73 16.47-1.59 17.12.71 3.14 16.69 4.99 24.96 4.78 8.01-.21 11.85-1.2 13.7-2.2-14.19 2.72-28.18-3-29.61-4.29z" class="st23"/>
    <g>
      <path d="M164.88 106.79l-1.5-1.45.88-1.45-11.28-6.96c-1.62.63-3.8 1.22-5.91 2l12.7 12.37 2.68-4.43.64.61-.2 11.66s-.41 9.79-.92 14.21c0 0 4.59 8.68 5.36 8.77.77.09 3.12-6.99 3.12-6.99l-6.17-15.05.6-13.29zM173.11 99.39a79.14 79.14 0 00-4.71-1.69l-4.07 6.2 6.47 6.24 2.5-10.52-.19-.23z" class="st52"/>
    </g>
    <path d="M168.21 140.01c.66-.01 3.16-7.5 3.16-7.5s-2.73-16.94-5.73-25.6c-.26-1.09-1.98-1.48-1.95.11 1.18 13.47-.03 26.05-.03 26.05s3.89 6.95 4.55 6.94z" class="st51"/>
    <path d="M160.62 102.7l6.55-.35-1.53 4.56-1.96.12-2.48-2.4z" class="st51"/>
    <path d="M168.07 138.35c-.34 0-2.95-4.99-2.95-4.99.85-6.47-.67-25.7-.67-25.7l1.18-.74-1.41-.22-.91-1.19 1.57-3.03-3.23.17-.55 1.69.09.29 2.48 2.4c1.18 13.47-.03 26.05-.03 26.05s3.9 6.95 4.56 6.94c.66-.01 3.16-7.5 3.16-7.5s-2.95 5.83-3.29 5.83z" class="st53"/>
    <path d="M169.68 99.93l-4.14 2.73-15.55-3.46.63-14.99 18.11 4.2z" class="st48"/>
    <path d="M144.45 278.21s-3.82-27.43-3.44-32.42c.55-7.38 4.49-21.18 4.64-24.03.14-2.85-2.5-36.59-2.78-41.29-.29-4.71 1.83-12.67 1.83-12.67l-3.75-.87c.02.23.06.47.1.74 0 0 .03.01.07.04-.44 2.89-.79 6.38-.85 10.02-.11 5.88 4.01 37.86 3.53 43.54-.02.2 0 .41.05.63 0 .01-.01.02-.01.02s-3.05 16.15-3.9 22.16c-.84 6.09 3.85 34.14 3.85 34.14h.66zM157.27 186.73l12.41-2.57-4.28 3.14s4.56 34.52 4.71 35.8c.14 1.28-2.58 14.41-1.72 21.25s9.43 33.85 9.43 33.85h-2.28s-9.15-27.26-9.5-32.98-.29-11.94 1.29-21.62l-4.93-36.09s-2.64 25.49-5.16 34.11c0 0-.39 13.9-1.24 22.95-.86 9.05-6.13 21.7-7.49 33.63h-1.6s1.39-8.82 2.25-14.06c.86-5.24 3.85-14.44 4.39-19.26.53-4.81 1.18-23.21 1.18-23.21l5.13-33.16-2.59-1.78z" class="st53"/>
    <g>
      <path d="M175.35 101.27l12.21 4.41.26-.48-12.44-4.47z" class="st53"/>
      <path d="M175.38 100.73l12.44 4.47-.02-3.36-10.27-3.69z" class="st51"/>
      <path d="M185.9 104.54l1.2.43.15-3.33-.99-.36zM184.24 103.93l1.19.44.44-3.23-.99-.36zM182.88 102.85l.91-.09-2.11-1.98-.9.04z" class="st54"/>
      <path d="M182.9 102.86l-.69-.67 2.76-.21.7.61zM183.51 100.71l.65.57-2.76.16-.62-.61z" class="st54"/>
      <path d="M183.53 100.72l-.82.03 2.13 1.93.83-.08z" class="st54"/>
    </g>
    <g>
      <path d="M181.25 164.85c-.62 1.21-3.35 3.25-15.21 3.55-7.69.2-22.05-1.39-24.59-4.14-.61 1.32-.63 2.13-.41 3.39 0 0 7.72 4.14 24.3 3.96 15.03-.16 16.17-3.71 16.17-3.71.2-1.37.13-2.03-.23-3.05h-.03z" class="st53"/>
      <path fill="#ffd67b" d="M162.97 167.49v5.21l8.02-.11v-5.21l-8.02.11zm6.49 4.12l-4.96.07v-3.22l4.96-.07v3.22z"/>
      <path d="M145.14 166.15h1.46v4.16h-1.46z" class="st51" transform="rotate(8.946 145.835 168.18)"/>
      <path d="M155.9 167.92h1.46v4.16h-1.46z" class="st51" transform="rotate(3.242 156.59 169.873)"/>
      <path d="M175.37 167.35h1.46v4.16h-1.46z" class="st51" transform="rotate(-6.783 176.094 169.369)"/>
    </g>
    <path d="M168.99 92.38c-.15-.96-2.37-2.81-5.16-4.79l-13.04-3.37-.91 13.52c3.6.55 7.08-.05 7.08-.05 7.8-.28 12.03-5.31 12.03-5.31z" class="st56"/>
    <g>
      <path d="M170.73 51.35s3.4.62 2.93 3.33c-.47 2.7-1.27 7.55-1.22 11.36l-5.5-4.85 3.79-9.84zM139.86 65.6c1.24 8.44 9.07 18.78 12.77 17.95 3.71-.83 4.72-16.4 3.16-24.79-.95-5.11-6.74-7.39-11.74-7.05-4.13.28-5.73 3.37-4.19 13.89z" class="st57"/>
      <path d="M147.92 75.88c2.2 19.28 14.66 18.14 18.62 17.34 6.26-1.27 8.07-6.84 6.02-19.29-.88-11.82 3.04-20.26-11.27-19.37-11.99.74-14.97 7.28-13.37 21.32z" class="st58"/>
      <path d="M157.4 55.07c-5.22 3.12-6.91 8.01-6.1 19.52 1.2 17.01 9.11 18.14 14.5 18.75-4.57.73-15.8.74-17.88-17.47-1.41-12.36.75-18.91 9.48-20.8z" class="st48"/>
      <path d="M144.11 77.6c-.05 1.87 1.52 3.43 3.5 3.48 1.98.05 3.63-1.42 3.67-3.29.05-1.87-1.52-3.43-3.5-3.48-1.98-.06-3.63 1.42-3.67 3.29z" class="st48"/>
      <path d="M160.01 56.02s-7.48 1.67-9.05 8.3c-1.64 6.96-.16 12.53-.16 12.53l-1.2.17s-.09-2.02-2.23-2.85c-1.5-6.51-2.5-19.1 12.64-18.15z" class="st57"/>
      <path d="M160.34 70.35s.05 2.61-.72 3.22c-.76.61-2.67.75-3.77-1.19.01-.01 2.49-2.31 4.49-2.03z" class="st59"/>
      <ellipse cx="158.78" cy="72.23" class="st60" rx="1.69" ry="1.52" transform="rotate(-89.181 158.775 72.23)"/>
      <path d="M155.53 72.67s1.37-1.65 5.08-2.12l.15-.95s-3.45.39-5.44 2.8l.21.27z" class="st61"/>
      <path d="M171.07 69.65s.04 2.38-.65 2.93c-.7.55-2.44.69-3.43-1.09 0 .01 2.26-2.09 4.08-1.84z" class="st59"/>
      <path d="M168.26 71.37c-.01.85.6 1.55 1.36 1.56.76.01 1.39-.67 1.41-1.52.01-.85-.6-1.55-1.36-1.56-.77-.01-1.4.67-1.41 1.52z" class="st60"/>
      <path d="M166.68 71.77s1.34-1.77 4.63-1.93l.14-.87s-3.14.36-4.96 2.55l.19.25z" class="st61"/>
      <path d="M146.78 75.69c.43-.21.88-.25 1.31-.18-.1.03-.2.04-.29.08-1.03.52-1.47 1.74-.98 2.71.29.57.84.9 1.46 1-.97.33-2.03-.02-2.47-.91-.51-.97-.07-2.18.97-2.7zM165.67 67.83s-.86 1.67-.84 3.57c.03 1.9.94 3.26 2.23 3.55 1.71.38 2.35.9 2.25 1.82-.1.92-.72 1.55-1.87 1.89-1.15.34-2.68.35-2.73.11 0-.02 3.64-.15 3.59-1.98-.03-.82-1.25-.81-2.37-1.43-2.87-1.57-1.94-6.17-.26-7.53z" class="st56"/>
      <path d="M167.4 88.91c.05.43-.72.87-1.72.98-1 .11-1.84-.16-1.89-.59-.05-.43.72-.87 1.72-.98 1-.11 1.84.16 1.89.59z" class="st48"/>
      <path d="M160.56 64.32c.32.57-.92 1.34-2.95 2.49-2.03 1.15-4.09 2.26-4.42 1.69-.32-.57 1.41-2.24 3.45-3.4 2.03-1.15 3.59-1.35 3.92-.78zM167.66 64.32c-.32.57.07.92 2.11 2.08 2.03 1.15 3.07 1.8 3.39 1.23.32-.57-.71-2.03-2.27-2.84-2.08-1.07-2.91-1.04-3.23-.47z" class="st62"/>
      <path d="M145.21 61.39s-5.13-9.54-1.52-13.16c1.87-1.87 4.84-1.51 11.04-3.47 26.48-8.38 17.57 10.77 15.05 11.29-7.39-1.7-16.74 1.37-24.57 5.34z" class="st57"/>
      <path d="M141.77 52.81s-1.76-1.35-1.92-4.18c0 0 1.33 2.67 2.54 3.86l-.62.32z" class="st57"/>
      <path d="M142.22 52.14s-2.43-2.96-.45-6.24c0 0 .53 4.22 1.08 5.66.55 1.43-.63.58-.63.58z" class="st57"/>
      <path d="M140.98 54.51c.7-1.17 3.16-2.96 6-.47s3.16 7.6 2.26 9.42c-.9 1.82-6.73 2.73-8.15.89-1.43-1.83-1.34-7.8-.11-9.84z" class="st63"/>
      <path fill="#9b6237" d="M159.54 82.4l10.29-.76s-2 4.24-4.65 4.55c-3.52.41-5.64-3.79-5.64-3.79z"/>
      <path fill="#f9e8ca" d="M160.3 82.72l.81.99 6.71-.59.7-1z"/>
      <path d="M143.62 50.64s-.36-2.35 3.43-3.07c3.79-.72 9.12-2.53 12.38-3.25 3.25-.72 11.02-1.9 12.56 1.99s-10.39 7.32-16.08 7.32c-5.69-.01-11.96-1.06-12.29-2.99z" class="st63"/>
    </g>
    <path fill="#e2a36a" d="M162.67 73.01s.06 1.2.24 2.66c-.2.42-.73.27-1.36-.5-.64-.77-1.57-.79-1.69-.49-.11.3.41 1.1.97 1.65.49.48 2.16 2.31 2.56 2.83-.8 1.65-3.34 6.91-6.16 13.24 3.38 1.52 6.83 1.27 8.81.92-.09-7.58-.4-13.8-.41-13.97.37-.19 2.25-1.42 2.24-6.26.01-2.86-5.29-1.69-5.2-.08z" opacity=".4"/>
    <path d="M131.41 107.2c-.5 3.87 1.12 12.76 3.49 19.32 2.5 6.9 7.02 15.68 7.76 19.99.78 4.55-1.73 16.47-1.59 17.12.17.77 1.27 1.46 2.94 2.07.41-4.27 1.09-16.26 1.09-18.28 0-2.57-.32-3.42-2.14-10.7-.61-2.43-.89-3.2-1.37-5.59l-1.21-6.48s7.98 4.41 15.84 4.96c3.65.25 6.81-5.36 6.81-5.36l-31.62-17.05z" class="st52"/>
    <path d="M156.23 129.59c-2.16.36-34.87-11.2-24.41-23.88 4.53-5.5 26.59 4.01 29.11 5.81 2.52 1.81-2.54 17.71-4.7 18.07z" class="st23"/>
    <path d="M165.75 120.38c-1.05 6.65-5.85 11.35-10.73 10.48-4.88-.86-7.98-6.96-6.93-13.61 1.05-6.65 5.85-11.35 10.73-10.48 4.87.86 7.98 6.95 6.93 13.61z" class="st50"/>
    <g>
      <path id="forearm_right_9_" d="M197.23 125.01c-4.49.62-10.29-3.86-11.76-13.66-1.76-11.76-1.71-34.9-1.71-34.9l2.09-.02s13.29 24.07 15.81 34.26c1.7 6.83 1.11 13.56-4.43 14.32z" class="st58"/>
      <path d="M188.43 109.72c-1.67-9.79-2.38-26.6-2.6-33.29l-2.07.02s-.05 23.14 1.71 34.9c1.47 9.8 7.27 14.27 11.76 13.66 1.02-.14 1.88-.49 2.58-1-4.47.04-9.73-4.59-11.38-14.29z" class="st48"/>
    </g>
    <g>
      <path d="M172.76 72.55c0 1.49-1.16 2.7-2.6 2.7s-2.6-1.21-2.6-2.7c0-1.49 1.16-2.7 2.6-2.7s2.6 1.21 2.6 2.7z" class="st67"/>
      <path d="M169.82 69.88s-1.79 1.13-1.37 3.46c.32 1.81 1.71 1.91 1.71 1.91s-1.53-2.38-.34-5.37z" class="st68"/>
      <path d="M171.04 69.13c.54-.2 14.36-1.39 14.36-1.39l-.08 9.62s-13.6-1.12-14.28-1.46c0 0-2.35-1.02-2.08-3.77.28-2.75 2.08-3 2.08-3z" class="st67"/>
      <path d="M190.38 72.55c0 2.67-2.08 4.83-4.65 4.83-2.57 0-4.65-2.16-4.65-4.83s2.08-4.83 4.65-4.83c2.56 0 4.65 2.16 4.65 4.83z" class="st68"/>
      <path d="M185.34 75.39l-15.87-.92c.62 1.02 1.57 1.44 1.57 1.44.68.34 14.28 1.46 14.28 1.46l.02-1.98z" class="st68"/>
      <path d="M170.5 69.87c.2-.44 7.46-1.15 7.79-1.02.34.14-.24 2.44-.68 2.47-.43.04-7.52-.53-7.11-1.45zM179.24 68.79c.2-.14 1.9-.2 2.13-.1.24.1-1.64 2.7-2.11 2.56-.47-.14-.46-2.16-.02-2.46z" class="st69"/>
      <path d="M185.74 73.07l-.16.62v3.68c.05 0 .1.02.15.02.05 0 .1-.01.15-.02v-3.89l-.14-.41zM185.71 72.03l.16-.62v-3.68c-.05 0-.1-.02-.15-.02-.05 0-.1.01-.15.02v3.89l.14.41z" class="st70"/>
      <path d="M185.74 73.07l-.05-.16-.39.7-.93 3.53c.09.03.18.07.28.09l.93-3.55.16-.61zM185.71 72.03l.05.16.4-.7.93-3.53c-.09-.03-.18-.07-.28-.09l-.93 3.55-.17.61zM185.69 72.91l-.03-.09-.62.64-1.78 3.16c.08.05.17.1.26.14l1.78-3.16.39-.69z" class="st70"/>
      <path d="M185.76 72.19l.03.09.62-.64 1.78-3.16c-.08-.05-.17-.1-.26-.14l-1.78 3.16-.39.69zM185.66 72.83l-.02-.06-.81.49-2.49 2.57c.07.07.13.15.2.21l2.5-2.58.62-.63z" class="st70"/>
      <path d="M185.79 72.27l.02.06.82-.49 2.49-2.57c-.07-.07-.13-.15-.2-.21l-2.5 2.58-.63.63zM185.64 72.77l-.01-.04-.95.28-3.02 1.83c.05.09.09.18.14.26l3.04-1.83.8-.5z" class="st70"/>
      <path d="M185.81 72.33l.01.04.95-.28 3.02-1.83c-.05-.09-.09-.18-.14-.26l-3.04 1.83-.8.5z" class="st70"/>
      <path d="M185.82 72.37l.01.03 1.03-.03 3.36-.99c-.02-.1-.06-.19-.08-.28l-3.36.99-.96.28zM185.63 72.73l-.01-.03-1.03.03-3.36.99c.02.1.06.19.08.28l3.36-.99.96-.28z" class="st70"/>
      <path d="M185.83 72.4l.01.03 1.03.24 3.51-.1v-.01c0-.1-.02-.19-.03-.28l-3.49.1-1.03.02zM185.62 72.7l-.01-.03-1.03-.24-3.51.1v.01c0 .1.02.19.03.29l3.49-.1 1.03-.03z" class="st70"/>
      <path d="M185.61 72.67l-.01-.02-.95-.5-3.42-.79c-.02.1-.05.19-.07.28l3.42.79 1.03.24zM185.84 72.43l.01.02.95.5 3.42.79c.02-.1.05-.19.07-.28l-3.42-.79-1.03-.24zM185.61 72.65l-.01-.02-.81-.74-3.13-1.64c-.05.09-.1.17-.14.26l3.12 1.64.97.5zM185.85 72.45l.01.02.81.74 3.13 1.64c.05-.09.1-.17.14-.26l-3.12-1.64-.97-.5zM185.85 72.47l.01.02.61.94 2.64 2.42c.07-.07.12-.15.18-.23l-2.63-2.4-.81-.75z" class="st70"/>
      <path d="M185.6 72.63l-.01-.02-.61-.94-2.64-2.42c-.07.07-.12.15-.18.23l2.63 2.4.81.75z" class="st70"/>
      <path d="M185.59 72.61l-.36-1.1-1.97-3.05c-.08.05-.16.11-.24.17l1.96 3.04.61.94zM185.86 72.49l.36 1.1 1.97 3.05c.08-.05.16-.11.24-.17l-1.96-3.04-.61-.94z" class="st70"/>
      <path d="M185.86 72.49l-.01-.02-.01-.02-.01-.02-.01-.03-.01-.03-.01-.04-.02-.06-.03-.09-.05-.16-.13-.4-1.2-3.68c-.09.03-.19.05-.28.09l1.14 3.47.36 1.1.01.02.01.02.01.02.01.03.01.03.01.04.02.06.03.09.05.16.13.4 1.2 3.68c.09-.03.19-.05.28-.09l-1.14-3.47-.36-1.1z" class="st70"/>
      <path d="M189.56 72.55c0 2.2-1.72 3.98-3.84 3.98s-3.84-1.78-3.84-3.98 1.72-3.98 3.84-3.98 3.84 1.78 3.84 3.98z" class="st67"/>
      <path d="M189.35 72.55c0 2.08-1.62 3.76-3.62 3.76s-3.62-1.68-3.62-3.76 1.62-3.76 3.62-3.76 3.62 1.68 3.62 3.76z" class="st71"/>
      <path d="M188.05 69.68c.57.66.93 1.53.93 2.49 0 2.08-1.62 3.76-3.62 3.76-.89 0-1.69-.35-2.32-.9.66.77 1.62 1.27 2.69 1.27 2 0 3.62-1.68 3.62-3.76 0-1.14-.51-2.17-1.3-2.86z" class="st72"/>
      <path d="M182.1 72.55c0 .51.1.99.27 1.43.57.38 1.24.61 1.96.61 2 0 3.62-1.68 3.62-3.76 0-.51-.1-.99-.27-1.43-.57-.38-1.24-.61-1.96-.61-1.99 0-3.62 1.68-3.62 3.76z" class="st73"/>
      <path d="M183.17 71.43c-.35-.27.14-1.36 1.02-1.86.88-.51 1.63-.47 2-.2.89.64-1.96 2.89-3.02 2.06zM182.97 73.04c-.14.02-.29-.34-.21-.66.08-.32.25-.49.4-.52.35-.07.24 1.11-.19 1.18z" class="st74"/>
      <path d="M181.28 72.64c0-2.67 2.08-4.83 4.65-4.83.6 0 1.18.13 1.71.35-.58-.28-1.23-.44-1.91-.44-2.57 0-4.65 2.16-4.65 4.83 0 2.04 1.22 3.77 2.94 4.48-1.61-.76-2.74-2.43-2.74-4.39z" class="st69"/>
      <g>
        <path d="M181.08 72.55c0-.46.08-.89.19-1.3h-2.63v3.39h2.9a4.88 4.88 0 01-.46-2.09z" class="st70"/>
      </g>
      <g>
        <path d="M161.77 72.55c0 1.49-1.16 2.7-2.6 2.7s-2.6-1.21-2.6-2.7c0-1.49 1.16-2.7 2.6-2.7s2.6 1.21 2.6 2.7z" class="st67"/>
        <path d="M158.83 69.88s-1.79 1.13-1.37 3.46c.32 1.81 1.71 1.91 1.71 1.91s-1.53-2.38-.34-5.37z" class="st68"/>
        <path d="M160.05 69.13c.54-.2 14.36-1.39 14.36-1.39l-.08 9.62s-13.6-1.12-14.28-1.46c0 0-2.35-1.02-2.08-3.77s2.08-3 2.08-3z" class="st67"/>
        <path d="M179.38 72.55c0 2.67-2.08 4.83-4.65 4.83-2.57 0-4.65-2.16-4.65-4.83s2.08-4.83 4.65-4.83c2.57 0 4.65 2.16 4.65 4.83z" class="st68"/>
        <path d="M174.35 75.39l-15.87-.92c.62 1.02 1.57 1.44 1.57 1.44.68.34 14.28 1.46 14.28 1.46l.02-1.98z" class="st68"/>
        <path d="M159.51 69.87c.2-.44 7.46-1.15 7.79-1.02.34.14-.24 2.44-.68 2.47-.44.04-7.52-.53-7.11-1.45zM168.25 68.79c.2-.14 1.9-.2 2.13-.1.24.1-1.64 2.7-2.11 2.56-.47-.14-.46-2.16-.02-2.46z" class="st69"/>
        <path d="M174.75 73.07l-.16.62v3.68c.05 0 .1.02.15.02.05 0 .1-.01.15-.02v-3.89l-.14-.41zM174.72 72.03l.16-.62v-3.68c-.05 0-.1-.02-.15-.02-.05 0-.1.01-.15.02v3.89l.14.41z" class="st70"/>
        <path d="M174.75 73.07l-.05-.16-.39.7-.93 3.53c.09.03.18.07.28.09l.93-3.55.16-.61zM174.72 72.03l.05.16.39-.7.93-3.53c-.09-.03-.18-.07-.28-.09l-.93 3.55-.16.61zM174.7 72.91l-.03-.09-.62.64-1.78 3.16c.08.05.17.1.26.14l1.78-3.16.39-.69zM174.77 72.19l.03.09.62-.64 1.78-3.16c-.08-.05-.17-.1-.26-.14l-1.78 3.16-.39.69z" class="st70"/>
        <path d="M174.67 72.83l-.02-.06-.82.49-2.49 2.57c.07.07.13.15.2.21l2.5-2.58.63-.63zM174.8 72.27l.02.06.82-.49 2.49-2.57c-.07-.07-.13-.15-.2-.21l-2.5 2.58-.63.63z" class="st70"/>
        <path d="M174.65 72.77l-.01-.04-.95.28-3.02 1.83c.05.09.09.18.14.26l3.04-1.83.8-.5zM174.82 72.33l.01.04.95-.28 3.02-1.83c-.05-.09-.09-.18-.14-.26l-3.04 1.83-.8.5zM174.83 72.37l.01.03 1.03-.03 3.36-.99c-.02-.1-.06-.19-.08-.28l-3.36.99-.96.28z" class="st70"/>
        <path d="M174.64 72.73l-.01-.03-1.03.03-3.36.99c.02.1.06.19.08.28l3.36-.99.96-.28zM174.84 72.4l.01.03 1.03.24 3.51-.1v-.01c0-.1-.02-.19-.03-.28l-3.49.1-1.03.02z" class="st70"/>
        <path d="M174.63 72.7l-.01-.03-1.03-.24-3.51.1v.01c0 .1.02.19.03.29l3.49-.1 1.03-.03z" class="st70"/>
        <path d="M174.62 72.67l-.01-.02-.95-.5-3.42-.79c-.02.1-.05.19-.07.28l3.42.79 1.03.24zM174.85 72.43l.01.02.95.5 3.42.79c.02-.1.05-.19.07-.28l-3.42-.79-1.03-.24zM174.61 72.65l-.01-.02-.81-.74-3.13-1.64c-.05.09-.1.17-.14.26l3.12 1.64.97.5z" class="st70"/>
        <path d="M174.86 72.45l.01.02.81.74 3.13 1.64c.05-.09.1-.17.14-.26l-3.12-1.64-.97-.5zM174.86 72.47l.01.02.61.94 2.64 2.42c.07-.07.12-.15.18-.23l-2.63-2.4-.81-.75zM174.61 72.63l-.01-.02-.61-.94-2.64-2.42c-.07.07-.12.15-.18.23l2.63 2.4.81.75z" class="st70"/>
        <path d="M174.6 72.61l-.36-1.1-1.97-3.05c-.08.05-.16.11-.24.17l1.96 3.04.61.94zM174.87 72.49l.36 1.1 1.97 3.05c.08-.05.16-.11.24-.17l-1.96-3.04-.61-.94z" class="st70"/>
        <path d="M174.87 72.49l-.01-.02-.01-.02-.01-.02-.01-.03-.01-.03-.01-.04-.02-.06-.03-.09-.05-.16-.13-.4-1.2-3.68c-.09.03-.19.05-.28.09l1.14 3.47.36 1.1.01.02.01.02.01.02.01.03.01.03.01.04.02.06.03.09.05.16.13.4 1.2 3.68c.09-.03.19-.05.28-.09l-1.14-3.47-.36-1.1z" class="st70"/>
        <path d="M178.57 72.55c0 2.2-1.72 3.98-3.84 3.98s-3.84-1.78-3.84-3.98 1.72-3.98 3.84-3.98 3.84 1.78 3.84 3.98z" class="st67"/>
        <path d="M178.36 72.55c0 2.08-1.62 3.76-3.62 3.76s-3.62-1.68-3.62-3.76 1.62-3.76 3.62-3.76c1.99 0 3.62 1.68 3.62 3.76z" class="st71"/>
        <path d="M177.06 69.68c.57.66.93 1.53.93 2.49 0 2.08-1.62 3.76-3.62 3.76-.89 0-1.69-.35-2.32-.9.66.77 1.62 1.27 2.69 1.27 2 0 3.62-1.68 3.62-3.76 0-1.14-.52-2.17-1.3-2.86z" class="st72"/>
        <path d="M171.11 72.55c0 .51.1.99.27 1.43.57.38 1.24.61 1.96.61 2 0 3.62-1.68 3.62-3.76 0-.51-.1-.99-.27-1.43-.57-.38-1.24-.61-1.96-.61-2 0-3.62 1.68-3.62 3.76z" class="st73"/>
        <path d="M172.18 71.43c-.35-.27.14-1.36 1.02-1.86.88-.51 1.63-.47 2-.2.89.64-1.96 2.89-3.02 2.06zM171.98 73.04c-.14.02-.29-.34-.21-.66.08-.32.25-.49.4-.52.35-.07.24 1.11-.19 1.18z" class="st74"/>
        <path d="M170.29 72.64c0-2.67 2.08-4.83 4.65-4.83.6 0 1.18.13 1.71.35-.58-.28-1.23-.44-1.91-.44-2.57 0-4.65 2.16-4.65 4.83 0 2.04 1.22 3.77 2.94 4.48-1.62-.76-2.74-2.43-2.74-4.39z" class="st69"/>
      </g>
    </g>
    <path d="M186.74 119.44l-4.07-1.44c1.7 6.69.49 15.39.49 15.39l1.94-9.74c1.96 1.1 4.05 1.9 5.83 2.46-1.86-1.55-3.36-3.89-4.19-6.67z" class="st23"/>
    <path d="M178.67 103.87c-1.76 0-2.67-1.13-3.63-2.32-.89-1.1-1.8-2.24-3.51-2.81l.18-.55c1.87.62 2.89 1.88 3.78 2.99 1.03 1.27 1.84 2.29 3.61 2.08.67-.08 1.21-.42 1.66-1.05 3.64-5.11-.93-25.84-.98-26.05l.57-.13c.19.86 4.68 21.19.89 26.52-.55.77-1.24 1.2-2.07 1.3-.16.01-.33.02-.5.02z" class="st51"/>
    <path d="M164.33 102.47l6.47 6.23 2.5-10.52-3.41-4.19zM146.74 97.03l2.82-4.73 14.7 10.15-4.49 7.41z" class="st50"/>
    <path d="M159.42 106.6c-4.7 0-10.27-2.56-12.09-5.11-.98-1.37-.93-2.7.15-3.75l.41.42c-.87.85-.89 1.86-.08 3 2.29 3.2 10.76 6.43 15.4 4.08 5.92-3 .3-29.15.25-29.42l.57-.13c.24 1.1 5.77 26.86-.55 30.06-1.19.6-2.58.85-4.06.85z" class="st51"/>
    <g>
      <path d="M169.48 69.16c-.97-.49-1.61 2.25-1.62 3.17l-.27-.08c-.04-2.24 1.3-4.09.77-4.43-1.13-.53-2.03 2.46-1.93 4.22l-.19-.02c-.33-3.66 1.36-4.25.58-4.57-.67-.28-2.13 1.71-1.78 4.59l-.17.02c-.75-3.23 1.07-3.73.19-4.18-1.58.04-1.54 3.62-1.45 5.22 0 0 .06 1.2.24 2.66.11.83-.41 1.08-1.35.51-.46-.28-.88-.4-.99-.11-.11.3-.01.48.55 1.02.49.48 1.81 1.54 2.39 1.88.01.03.02.06.03.1l2.02.32s2.32-.93 2.31-6.29c.02-2.86 1.08-3.82.67-4.03z" class="st58"/>
      <path d="M169.48 69.16c-.76-.38-1.05 3.54-1.1 4.38-.3 4.68-2.25 5.24-2.66 5.46l.79.46s2.32-.93 2.31-6.29c.01-2.84 1.07-3.8.66-4.01z" class="st48"/>
    </g>
    <g>
      <path id="forearm_right_8_" d="M155.5 128.06c-4.31-1.42-7.56-7.98-4.58-17.43 3.58-11.34 13.77-32.11 13.77-32.11l1.89.9s1.39 27.46-.81 37.72c-1.48 6.88-4.96 12.67-10.27 10.92z" class="st58"/>
      <path d="M166.58 79.41l-.86-.41c.07 4.27.37 27.76-1.89 37.01-1.67 6.84-5.31 12.53-10.57 10.63-.08-.03-.16-.07-.23-.1.75.71 1.59 1.23 2.47 1.52 5.31 1.75 8.8-4.04 10.27-10.93 2.19-10.26.81-37.72.81-37.72z" class="st48"/>
    </g>
    <g>
      <path d="M144.91 102.14l-13.11 4.12-.25-.52 13.36-4.18z" class="st53"/>
      <path d="M144.91 101.56l-13.36 4.18.17-3.55 11.03-3.45z" class="st51"/>
      <path d="M133.64 105.13l-1.28.4.03-3.55 1.06-.33zM135.42 104.56l-1.28.41-.27-3.45 1.05-.34zM136.91 103.48l-.95-.14 2.33-2.01.94.09z" class="st54"/>
      <path d="M136.89 103.49l.76-.68-2.89-.36-.77.62zM136.36 101.17l-.7.57 2.88.3.69-.61z" class="st54"/>
      <path d="M136.35 101.18l.86.07-2.35 1.96-.87-.13z" class="st54"/>
    </g>
    <g>
      <path d="M308.61 244.33c-109.17 4.85-221 6.86-305.62 7.64v1.72c84.64-.79 196.5-2.79 305.69-7.64.47-.02.84-.42.82-.9-.02-.48-.46-.85-.89-.82zM308.61 219.51c-109.16 4.85-221 6.86-305.62 7.64v1.72c84.63-.79 196.5-2.79 305.69-7.64.47-.02.84-.42.82-.9-.02-.47-.46-.84-.89-.82zM308.61 194.69c-109.16 4.85-221 6.86-305.62 7.64v1.72c84.63-.79 196.5-2.79 305.69-7.64.47-.02.84-.42.82-.9-.02-.47-.46-.83-.89-.82z" class="st75"/>
      <path d="M40.65 278.56c-.93 0-1.7-.75-1.72-1.69l-1.96-95.76a1.72 1.72 0 011.68-1.76c.96.01 1.74.73 1.76 1.69l1.96 95.76c.02.95-.73 1.74-1.68 1.76h-.04zM49.81 278.1c-.93 0-1.7-.75-1.72-1.69l-1.96-95.76a1.72 1.72 0 011.68-1.76c.97.01 1.74.73 1.76 1.69l1.96 95.76c.02.95-.73 1.74-1.68 1.76h-.04zM178.75 275.65c-.92 0-1.68-.73-1.72-1.66l-3.47-95.76c-.03-.95.71-1.75 1.66-1.78.96-.04 1.75.71 1.78 1.66l3.47 95.76c.03.95-.71 1.75-1.66 1.78h-.06zM187.45 275.65c-.92 0-1.68-.73-1.72-1.66l-3.47-95.76a1.721 1.721 0 013.44-.12l3.47 95.76c.03.95-.71 1.75-1.66 1.78h-.06zM310.25 271.34c-2.03 0-3.74-1.59-3.86-3.64l-5.51-93.03a3.864 3.864 0 013.64-4.09c2.13-.12 3.97 1.5 4.09 3.64l5.51 93.03c.13 2.13-1.5 3.97-3.64 4.09h-.23z" class="st75"/>
      <path d="M313.92 170.02c-111.47 4.96-225.72 6.94-310.93 7.69v3.44c85.25-.75 199.55-2.73 311.08-7.69a1.722 1.722 0 00-.15-3.44z" class="st75"/>
    </g>
    <path d="M303.25 156.86c2.89 0 4.23 13.29 4.23 13.29l-6.83.3s-.29-13.59 2.6-13.59z" class="st41"/>
    <path d="M312.13 177.89a2.624 2.624 0 01-3.71.15l-7.97-7.35a2.624 2.624 0 01-.15-3.71 2.624 2.624 0 013.71-.15l7.97 7.34c1.07 1 1.14 2.66.15 3.72z" class="st41"/>
    <g>
      <path d="M233.55 262.69c-3.99 0-7.85-1.07-11.48-3.22-10.82-6.39-18.2-21.92-18.36-38.65-.03-.08-3.25-16.54 9.02-30.07 12.13-13.38 28.23-12.41 29.4-12.32 1.12-.2 16.23-2.71 30.02 9.07 14.28 12.19 12.4 29.26 12.38 29.43.51 26.35-10 36.94-16.32 40.9-6.95 4.36-15.2 4.91-22.12 1.49-4.23 2.24-8.45 3.37-12.54 3.37zm7.03-83.45c-4.36 0-17.18 1.01-27.22 12.09-11.97 13.2-8.84 29.24-8.81 29.4.17 16.52 7.38 31.76 17.95 38 7.14 4.21 15.22 4.12 23.38-.28l.2-.11.2.1c6.69 3.39 14.72 2.89 21.47-1.35 6.16-3.86 16.41-14.22 15.92-40.21.02-.23 1.84-16.86-12.08-28.74-13.93-11.89-29.2-8.9-29.36-8.87l-.06.01-.07-.01c-.02.02-.57-.03-1.52-.03z" class="st76"/>
      <path d="M276.81 230.92l-28.36-14.56-1.58-32.04-8.39.42 1.56 31.75-27.27 17.59 4.55 7.06 27.04-17.44 28.62 14.7z" class="st75"/>
      <path d="M264.08 224.39a20.62 20.62 0 01-3.84 7.47l12.61 6.47c.27-.39.52-.78.77-1.18l2.62-5.11c.16-.39.31-.78.45-1.18l-12.61-6.47zM229.35 233.38a20.682 20.682 0 01-4.56-7.06L212.88 234c.18.38.37.76.57 1.13l3.11 4.83c.29.37.58.74.88 1.1l11.91-7.68zM239.17 198.73c2.75-.67 5.61-.77 8.4-.31l-.69-14.1-8.39.41.68 14z" class="st77"/>
      <path d="M271 189.18c-16.38-14.85-41.7-13.6-56.55 2.79-14.85 16.38-13.6 41.7 2.79 56.55 16.38 14.85 41.7 13.6 56.55-2.79 14.84-16.39 13.59-41.7-2.79-56.55zm-42.92 47.37c-9.78-8.86-10.52-23.97-1.66-33.75 8.86-9.78 23.97-10.52 33.75-1.66 9.78 8.86 10.52 23.97 1.66 33.75-8.87 9.78-23.97 10.52-33.75 1.66z" class="st78"/>
      <path d="M226.42 202.81c1.31-1.45 2.77-2.7 4.32-3.75l-12.17-11.02c-1.44 1.2-2.82 2.5-4.11 3.93a39.475 39.475 0 00-3.62 4.64l12.18 11.04c.9-1.71 2.03-3.34 3.4-4.84zM261.82 234.89c-1.36 1.5-2.87 2.79-4.49 3.86l12.18 11.04c1.5-1.23 2.93-2.58 4.27-4.06a41.11 41.11 0 003.51-4.48l-12.17-11.02c-.88 1.64-1.98 3.21-3.3 4.66zM228.08 236.55a24.262 24.262 0 01-3.81-4.4l-11.03 12.17a39.38 39.38 0 004 4.19c1.45 1.32 2.98 2.5 4.56 3.57l11.03-12.17c-1.68-.91-3.28-2.02-4.75-3.36zM260.16 201.14c1.48 1.34 2.74 2.82 3.81 4.4L275 193.37a39.38 39.38 0 00-4-4.19c-1.45-1.32-2.98-2.5-4.56-3.57l-11.03 12.17c1.68.91 3.28 2.03 4.75 3.36z" class="st76"/>
      <path d="M242.15 178.86c-22.08 1.09-39.1 19.87-38.02 41.95s19.87 39.1 41.95 38.02c22.08-1.09 39.1-19.87 38.02-41.95-1.08-22.09-19.87-39.11-41.95-38.02zm3.69 74.96c-20.04.99-37.09-14.46-38.08-34.5-.99-20.04 14.46-37.09 34.5-38.08 20.04-.99 37.09 14.46 38.08 34.5.99 20.04-14.45 37.09-34.5 38.08z" class="st79"/>
      <path d="M242.84 192.77c-14.92.74-26.42 13.43-25.69 28.35.74 14.92 13.43 26.42 28.35 25.69 14.92-.74 26.42-13.43 25.69-28.35-.74-14.92-13.43-26.42-28.35-25.69zm2.46 49.94c-13.18.65-24.39-9.51-25.04-22.69-.65-13.18 9.51-24.39 22.69-25.04 13.18-.65 24.39 9.51 25.04 22.69.64 13.18-9.52 24.39-22.69 25.04z" class="st79"/>
      <path d="M239.74 177.91h4.79v1.31h-4.79z" class="st78" transform="rotate(-2.807 242.217 178.538)"/>
      <path d="M243.7 258.34h4.79v1.31h-4.79z" class="st78" transform="rotate(-2.807 246.197 258.987)"/>
      <path d="M281.94 216.14h4.79v1.31h-4.79z" class="st78" transform="rotate(87.18 284.331 216.8)"/>
      <path d="M201.5 220.11h4.79v1.31h-4.79z" class="st78" transform="rotate(87.18 203.896 220.762)"/>
    </g>
    <path d="M310.28 269.53l-4.99-85.93 7.35-.31 13.3 85.36z" class="st75"/>
    <path fill="#e5baba" d="M325.38 265.1l-8.6.59-7.38-82.26 3.24-.14z" opacity=".3"/>
    <path d="M337.81 267.91s-161.87 7.76-335.12 9.79v51.7l236.03 32.73s8.36-13.59 53.98-34.85c45.63-21.27 45.11-59.37 45.11-59.37z" class="st20"/>
    <path d="M337.81 267.91s-166.18 7.42-335.12 9.65v9.94c27.24-.59 280.4-5.81 290.46 5.37 10.63 11.81-34.26 39.58-34.26 39.58l13.52 5.05c5.77-3.16 12.49-6.58 20.3-10.22 45.62-21.27 45.1-59.37 45.1-59.37z" class="st77"/>
    <path d="M340.85 264.46c-123.82 6.23-251.1 8.82-338.15 9.88v6.02c87.11-1.07 214.52-3.65 338.46-9.89 1.66-.08 2.94-1.5 2.86-3.16-.1-1.66-1.54-2.96-3.17-2.85z" class="st75"/>
    <g>
      <path d="M82.43 100.92l-9.9 3.8-.22-.39 10.09-3.85z" class="st53"/>
      <path d="M82.4 100.48l-10.09 3.85-.04-2.75 8.33-3.17z" class="st51"/>
      <path d="M73.89 103.76l-.97.37-.14-2.74.8-.3zM75.23 103.24l-.96.37-.38-2.64.8-.31zM76.33 102.33l-.74-.05 1.7-1.66.73.02z" class="st54"/>
      <path d="M76.31 102.34l.56-.56-2.24-.14-.57.52zM75.8 100.58l-.52.48 2.24.09.5-.5z" class="st54"/>
      <path d="M75.79 100.59l.66.02-1.71 1.61-.68-.05z" class="st54"/>
    </g>
  </g>
</svg>
