<?xml version="1.0" encoding="utf-8"?>
<!-- Generator: Adobe Illustrator 25.1.0, SVG Export Plug-In . SVG Version: 6.00 Build 0)  -->
<svg version="1.1" id="Layer_1" xmlns="http://www.w3.org/2000/svg" xmlns:xlink="http://www.w3.org/1999/xlink" x="0px" y="0px"
	 viewBox="0 0 300 265" style="enable-background:new 0 0 300 265;" xml:space="preserve">
<style type="text/css">
	.st0{fill:#184655;}
	.st1{fill:#F7E4C4;}
	.st2{fill:#F7CC7F;}
	.st3{fill:#FAE0B2;}
	.st4{fill:#96D9C9;}
	.st5{fill:#601128;}
	.st6{fill:#7F461F;}
	.st7{fill:#633516;}
	.st8{fill:#FC2400;}
	.st9{fill:#DDDD00;}
	.st10{fill:#13375B;}
	.st11{fill:#466EB6;}
	.st12{fill:#F9AA8F;}
	.st13{fill:#8E213D;}
	.st14{fill:#FBBEA7;}
	.st15{fill:#151549;}
	.st16{fill:#1A493C;}
	.st17{fill:#043025;}
	.st18{fill:#3BA846;}
	.st19{fill:#29A517;}
	.st20{fill:#3D0E06;}
	.st21{fill:#232323;}
	.st22{fill:#A01B05;}
	.st23{fill:#311459;}
	.st24{fill:#50BFA5;}
	.st25{fill:#006991;}
	.st26{fill:#8C0052;}
	.st27{fill:#150958;}
	.st28{fill:#8DC640;}
	.st29{fill:#863123;}
	.st30{fill:#1A2E35;}
</style>
<g>
	<path class="st0" d="M61,49.2c-0.4,0-0.8-0.2-1.1-0.7c-0.3-0.6,0-1.3,0.6-1.6l42.5-19.6c0.6-0.3,1.3,0,1.6,0.6
		c0.3,0.6,0,1.3-0.6,1.6L61.6,49.1C61.3,49.1,61.2,49.2,61,49.2z"/>
</g>
<g>
	<path class="st0" d="M57.7,125.8h-0.1c-0.6-0.1-1.2-0.6-1.1-1.4L68,35c0.1-0.6,0.6-1.2,1.4-1.1c0.6,0.1,1.2,0.6,1.1,1.4l-11.5,89.5
		C58.8,125.4,58.3,125.8,57.7,125.8z"/>
</g>
<g>
	<path class="st1" d="M119.4,34.9c-3.8-9.1-11.9-14.3-18.1-11.7c-6.2,2.6-8.1,12.1-4.3,21.2c0.9,2.2,2.1,4.2,3.6,6l20.7-8.7
		C121,39.4,120.4,37.1,119.4,34.9z"/>
</g>
<path class="st0" d="M72.5,44.6c0,2.6-2.1,4.6-4.6,4.6c-2.6,0-4.6-2.1-4.6-4.6s2.1-4.6,4.6-4.6C70.4,40,72.5,42.1,72.5,44.6z"/>
<g>
	<path class="st2" d="M160.9,12.6c8.3-2.6,15.7,6.3,11.5,14.1c-0.7,1.4-0.9,2.9-0.6,4.5l1.2,5.3c0.3,1.5-0.5,2.9-1.9,3.4l-3.2,0.9
		c-1.4,0.4-2.9-0.3-3.5-1.7c-2-5.1-2.4-7.1-5.1-8.4C151.6,26.7,152.6,15.3,160.9,12.6z"/>
	<g>
		<path class="st3" d="M169.9,33.7c-1.5-4.1-2.9-8.7-3.5-10.5c-1.5,0.6-3.2,0.8-4.7,0.8c1.4,3.4,2.7,6.7,3.9,10.2l-0.4,0.2
			c-1.3-3.5-2.5-6.9-4-10.4c-0.9,0-2.1-0.1-2.8-0.8c-0.3-0.3-0.5-0.8-0.5-1.3c0-1.3,1.4-1.6,2.3-0.8c0.6,0.5,0.9,1.4,1.4,2.4
			c1.7,0,3.3-0.3,4.8-0.8c-0.2-0.8-0.3-1.8,0-2.6c1.1-2.9,5.1,0.9,0.5,2.8c0.4,1.4,1.9,6.1,3.5,10.5L169.9,33.7z M166.8,20.4
			c-0.3,0.7-0.2,1.5,0,2.2c0.9-0.4,1.6-0.9,1.7-1.6C168.8,20,167.4,18.8,166.8,20.4z M158.6,21.5c-0.4,0.3-0.3,1.1,0.1,1.5
			c0.5,0.5,1.5,0.6,2.3,0.6c-0.3-0.8-0.6-1.6-1.2-2C159.5,21.4,158.7,21.5,158.6,21.5z"/>
	</g>
	<path class="st4" d="M171.8,31.2v0.1l1.2,5.3c0.3,1.5-0.5,2.9-1.9,3.4l-3.2,0.9c-1.4,0.4-2.9-0.3-3.5-1.7c-0.9-2.2-1.5-3.9-2.1-5.2
		L171.8,31.2z"/>
	<g>
		<path class="st3" d="M164.9,6.3l0.2-5.4c0-0.5-0.4-0.9-0.9-0.9c-0.5,0-0.9,0.4-0.9,0.9L163,6.3c0,0.5,0.4,0.9,0.9,0.9
			C164.4,7.3,164.8,6.8,164.9,6.3z"/>
	</g>
	<g>
		<path class="st3" d="M175,14l4.8-2.9c0.4-0.3,0.5-0.8,0.3-1.3c-0.3-0.4-0.8-0.5-1.3-0.3l-4.8,2.9c-0.4,0.3-0.5,0.8-0.3,1.3
			C173.9,14.1,174.5,14.2,175,14z"/>
	</g>
	<g>
		<path class="st3" d="M187.6,26.8c0.2-0.5-0.1-1.1-0.6-1.2c-1.9-0.6-3.8-1.1-5.7-1.3c-0.5-0.1-0.9,0.3-1.1,0.8
			c-0.1,0.5,0.3,0.9,0.8,1.1c1.8,0.2,3.6,0.6,5.3,1.2C186.9,27.6,187.4,27.4,187.6,26.8z"/>
	</g>
	<g>
		<path class="st3" d="M152.4,12.3c0.4-0.3,0.4-0.9,0.1-1.4c-1.6-1.9-3.1-3.9-4.3-6c-0.2-0.4-0.8-0.6-1.3-0.3
			c-0.4,0.2-0.6,0.8-0.3,1.3c1.3,2.2,2.8,4.4,4.5,6.3C151.4,12.6,151.9,12.6,152.4,12.3z"/>
	</g>
	<g>
		<path class="st3" d="M150.5,21.3c-0.1-0.5-0.5-0.8-1.1-0.7l-6,1.1c-0.5,0.1-0.8,0.5-0.7,1.1c0.1,0.5,0.5,0.8,1.1,0.7l6-1.1
			C150.2,22.3,150.5,21.8,150.5,21.3z"/>
	</g>
	<g>
		<path class="st3" d="M148.8,39.5c0.1,0,0.1-0.1,0.2-0.1c1.6-1.4,2.9-2.9,4.2-4.7c0.3-0.4,0.2-1.1-0.2-1.3
			c-0.4-0.3-1.1-0.2-1.3,0.2c-1.2,1.6-2.4,3.1-3.9,4.4c-0.4,0.3-0.4,0.9-0.1,1.4C147.9,39.6,148.5,39.6,148.8,39.5z"/>
	</g>
</g>
<path class="st5" d="M280,265h6.9c-9.5-6.1-14.9-22.1-17.8-32.8c-5.5-20.6-6.7-40.6-6.7-40.8l-9.4,1.4C256,212.2,264,250.2,280,265z
	"/>
<rect x="32.8" y="138.6" class="st6" width="104.9" height="110.9"/>
<rect x="31.6" y="137.3" class="st7" width="7.7" height="127.7"/>
<g>
	<path class="st8" d="M31.7,133.8h66.7c2.5,0,4.6-2.1,4.6-4.7v-2.8c0-2.6-2.1-4.7-4.6-4.7H31.7l0,0c3.1,3.5,3.2,8.7,0.1,12.3H31.7z"
		/>
	<path class="st3" d="M32.7,122.9h37.1c2.5,0,4.6,2.1,4.6,4.7l0,0c0,2.6-2.1,4.7-4.6,4.7H32.7C34.4,129.5,34.4,125.7,32.7,122.9z"/>
	<path class="st9" d="M51,112.7h55.6c1.7,0,3.2,1.4,3.2,3.2v2.6c0,1.7-1.4,3.2-3.2,3.2H51l0,0C53.4,119.1,53.4,115.2,51,112.7z"/>
	<path class="st3" d="M52,114.1h29.7c1.7,0,3.2,1.4,3.2,3.2l0,0c0,1.7-1.4,3.2-3.2,3.2H52C53.1,118.4,53.1,116,52,114.1z"/>
</g>
<g>
	<rect x="176.7" y="136" class="st7" width="9.2" height="129"/>
	<rect x="130.2" y="137.3" class="st7" width="8.6" height="127.7"/>
	<g>
		<path class="st3" d="M83.4,70.1c0,0,6.2,2.1,8.7,8.6c3.4,8.8-1.9,23.2-0.3,27.1c1.5,4,8.6,8.3,8.6,8.3l16.1-5.7
			c0,0-5.7-10.6-5.5-14.3c0.2-3.7-0.4-20.8-7.2-24H83.4L83.4,70.1z"/>
		<g>
			<path class="st10" d="M104.7,73.6H91.7c-0.2,0-0.3-0.1-0.3-0.3c0-0.2,0.1-0.3,0.3-0.3h13.1c0.2,0,0.3,0.1,0.3,0.3
				S104.8,73.6,104.7,73.6z"/>
		</g>
		<g>
			<path class="st10" d="M106.9,76.2H93.7c-0.2,0-0.3-0.1-0.3-0.3c0-0.2,0.1-0.3,0.3-0.3H107c0.2,0,0.3,0.1,0.3,0.3
				C107.2,76,107.1,76.2,106.9,76.2z"/>
		</g>
		<g>
			<path class="st10" d="M107.6,78.9h-9.2c-0.2,0-0.3-0.1-0.3-0.3c0-0.2,0.1-0.3,0.3-0.3h9.2c0.2,0,0.3,0.1,0.3,0.3
				S107.8,78.9,107.6,78.9z"/>
		</g>
		<rect x="92.6" y="130.5" class="st10" width="14.4" height="3.6"/>
		<rect x="141.9" y="129.7" class="st10" width="15.4" height="4.2"/>
		<polygon class="st10" points="92.7,105.7 87.8,105.7 87.8,97.3 92.1,97.3 		"/>
		<path class="st11" d="M96.1,92.2c0,3.6-2.8,6.4-6.4,6.4c-3.6,0-6.4-2.8-6.4-6.4c0-3.6,2.8-6.4,6.4-6.4
			C93.2,85.7,96.1,88.6,96.1,92.2z"/>
		<path class="st10" d="M93,92.2c0,1.9-1.5,3.4-3.4,3.4c-1.9,0-3.4-1.5-3.4-3.4s1.5-3.4,3.4-3.4C91.4,88.7,93,90.3,93,92.2z"/>
		<g>
			<path class="st10" d="M101.3,84.1c0,1.4-1.2,2.5-2.5,2.5c-1.4,0-2.5-1.2-2.5-2.5c0-1.4,1.2-2.5,2.5-2.5
				C100.2,81.5,101.3,82.7,101.3,84.1z"/>
		</g>
		<g>
			<path class="st10" d="M92.1,105.4l-1.2-1.7c0.1,0,6.8-5.1,8.3-9.1c1.4-4-0.4-8.4-0.4-8.4l1.9-0.8c0.1,0.2,2.1,5.2,0.5,9.9
				C99.6,100.1,92.4,105.2,92.1,105.4z"/>
		</g>
		<g>
			<path class="st10" d="M117.9,84.1c0,1.4-1.2,2.5-2.5,2.5c-1.4,0-2.5-1.2-2.5-2.5c0-1.4,1.2-2.5,2.5-2.5
				C116.7,81.5,117.9,82.7,117.9,84.1z"/>
		</g>
		<g>
			<path class="st10" d="M108.6,105.4l-1.2-1.7c0.1,0,6.8-5.1,8.3-9.1c1.4-4-0.4-8.4-0.4-8.4l1.9-0.8c0.1,0.2,2.1,5.2,0.5,9.9
				C116,100.1,108.9,105.2,108.6,105.4z"/>
		</g>
		<g>
			<rect x="99.3" y="83.1" class="st10" width="14.9" height="1.3"/>
		</g>
		<g>
			<path class="st11" d="M124.5,92.7c0,3.2-2.2,5.7-4.9,5.7s-4.9-2.5-4.9-5.7c0-3.2,2.2-5.7,4.9-5.7C122.3,87,124.5,89.6,124.5,92.7
				z"/>
			<rect x="107.3" y="87" class="st11" width="12.3" height="11.6"/>
			<path class="st10" d="M113.7,92.8c0,3.2-2.7,5.7-6,5.7c-3.4,0-6-2.5-6-5.7c0-3.2,2.7-5.7,6-5.7S113.7,89.6,113.7,92.8z"/>
		</g>
		<path class="st10" d="M148.5,113.2c0,0.6-1.3,1.2-2.7,1.2c-1.5,0-2.7-0.5-2.7-1.2s1.3-1.2,2.7-1.2
			C147.2,112,148.5,112.5,148.5,113.2z"/>
		<path class="st10" d="M154,116.2c0,0.6-0.9,1.2-2.2,1.2c-1.3,0-2.2-0.5-2.2-1.2s0.9-1.2,2.2-1.2C153,115,154,115.5,154,116.2z"/>
		<path class="st10" d="M161,116.2c0,0.6-0.9,1.2-2.2,1.2c-1.3,0-2.2-0.5-2.2-1.2s0.9-1.2,2.2-1.2C160,115,161,115.5,161,116.2z"/>
		<path class="st10" d="M157.6,113.6c0,0.6-0.9,1.2-2.2,1.2c-1.3,0-2.2-0.5-2.2-1.2s0.9-1.2,2.2-1.2S157.6,113,157.6,113.6z"/>
		<g>
			<rect x="151.2" y="116.6" class="st10" width="1.2" height="8.3"/>
		</g>
		<ellipse class="st10" cx="148.6" cy="118.4" rx="2.2" ry="1.2"/>
		<g>
			<rect x="148.1" y="118.8" class="st10" width="1.2" height="8.3"/>
		</g>
		<g>
			<rect x="145.1" y="114" class="st10" width="1.2" height="8.3"/>
		</g>
		<g>
			<rect x="158.3" y="116.6" class="st10" width="1.2" height="8.3"/>
		</g>
		<g>
			<rect x="154.8" y="114.5" class="st10" width="1.2" height="8.7"/>
		</g>
		<path class="st10" d="M162.6,121.8v9.6H83.8v-25.9h12l4.6-8.4l29.1-0.1h2.8C131.1,113.7,146.9,126.2,162.6,121.8z"/>
		<path class="st11" d="M162.6,121.8v2.9c-17.6,4.3-34.2-9.7-33.1-27.8h2.8C131.1,113.7,146.9,126.2,162.6,121.8z"/>
		<path class="st11" d="M143.3,127.1H87.7V108c0-0.3-0.2-0.4-0.4-0.4c-0.3,0-0.4,0.2-0.4,0.4v19.7c0,0.3,0.2,0.4,0.4,0.4h56.2
			c0.3,0,0.4-0.2,0.4-0.4C143.9,127.3,143.7,127.1,143.3,127.1z"/>
	</g>
	<path class="st7" d="M7.9,141.7h187.8c2.2,0,3.9-1.8,3.9-3.9l0,0c0-2.2-1.8-3.9-3.9-3.9H7.9c-2.2,0-3.9,1.8-3.9,3.9l0,0
		C4,140,5.8,141.7,7.9,141.7z"/>
</g>
<path class="st12" d="M209.2,91.8c-4.2-5.3-13.1-2-9.8,15.7c0,0.1,0.9,13.8,0.5,19.2c-4.2-0.9-11.9-3.6-17.5-3.8
	c0,0-6.8-6.7-9.6-7.9c-2-0.9-7.5-0.4-7.5-0.4s-7.9,4.2-7.3,5.6c0.8,1.9,5.4-3.4,7.9-2.5c0,0-5.8,3.3-4.4,3.8
	c1.4,0.6,3.7-0.2,4.8-0.3c1.2-0.1,5.2,3.3,8.3,4.9c0.5,0.3,1.8,1.4,4.1,2.6c2.4,1.4,4.9,3.6,8.2,4.9c8.8,3.7,18.7,8.5,22.1,5.9l0,0
	C213.1,134.7,216.1,100.6,209.2,91.8z"/>
<path class="st5" d="M203.4,265h3.5c3.2-21.7,3.8-47.1,0.3-79.9l-8.4,0.2C204.2,217.8,205.2,243.3,203.4,265z"/>
<path class="st13" d="M290.1,102.6L290.1,102.6c-4.7-1.1-9.5,1.7-10.6,6l-17.7,63.5c-0.6,2.2-2.8,3.8-5.4,3.8h-53.9
	c-4.5,0-8.1,3.7-8.1,8.1l0,0c0,4.4,3.5,8,7.8,8.1l64.8,2.3c4.3,0,9.2-5.8,10.2-9.7l19.6-72.2C298,108.1,295,103.7,290.1,102.6z"/>
<path class="st14" d="M165.2,237.7c-2.4,4.4-8.2,18.9-8.4,20.1c-0.1,0.3-0.8,1.4-1.2,1.6c-7.5,0.7-12.9-3.3-17.2-7.3
	c3.9,0.3,9.9-0.7,10.8-0.8c2.3-0.4,2-7.4,3.4-15.1C154.6,237,162.2,235,165.2,237.7z"/>
<path class="st15" d="M156.8,257.7c-0.6,2.4-3.2,6.9-3.7,6.7c-0.6-0.1-22.7-8.1-24.6-11.3c-1.2-2,4.8-2,9.7-1.8
	C142.3,255.3,155.5,258.3,156.8,257.7z"/>
<path class="st16" d="M236.5,175.5l-45.7,5.1l-24.5,62.8l-14.8-2.9c0,0,8.3-67.2,13.3-72.7c13.3-15.4,59.7-13.5,59.7-13.5
	L236.5,175.5z"/>
<path class="st14" d="M196.9,241.2c-0.2,2.9-0.8,6.6-0.7,10.1c0.1,2.3,0.9,5.2,1.1,5.6c0.1,0.3-0.2,1.6-0.4,1.9
	c-6.5,3.8-13.2,2.4-18.6,0.5c3.7-1.4,6.2-4.1,7.2-5.2c1.6-1.7,0.4-6.8-1.6-14.4C186,239.9,193.1,240,196.9,241.2z"/>
<path class="st17" d="M231.1,148c0,0-47.8,2.6-59.8,20.2c-9.1,13.2,13.5,78.3,13.5,78.3l13.5-2.5c0,0-3.2-44.1-5.4-58.6
	c-0.4-2.4-2.1-9.8-2.1-9.8s51.2,5.1,59.5,0.7s11.8-16,8.1-23.7C254.6,144.9,231.1,148,231.1,148z"/>
<path class="st15" d="M197.2,256.8c0.8,1.6,1.3,7.6,0.7,7.6c-0.6,0.1-26,1.6-29.1-0.5c-1.9-1.3,4.8-2.6,9.4-4.4
	C183.7,261.2,196.9,258.5,197.2,256.8z"/>
<path class="st18" d="M204.4,80c-4.2,0.7-4.5,4.2-4.5,4.2l-4.3,18.2c0,0-0.4,7.7,0.5,10.6c1.7,5.7,5.2,8,10.8,9.9
	c7.6,2.6,10.5,9.1,13.8,12.8c5.7,6.6,1.1,14.4,1.1,14.4l15.1,4.7l22.4-3.1c0,0,2.5-3.9-6.4-25.5C245.1,107.7,226.4,76.1,204.4,80z"
	/>
<path class="st5" d="M216.2,265h3.5c4.4-32.7,3.1-69.2-1.3-101.8c-0.5-3.6,2.2-6.8,5.9-7.1l51.6-2.4v-3.6c0,0-43.7-2.6-63.3-3.8
	c-3.7-0.2-6.6,3.2-5.8,6.8c0.5,2.5,1.3,5.8,2,9.6C215.3,195.5,218.9,231.7,216.2,265z"/>
<path class="st14" d="M221.2,83.9c-4.8-5.3-13.4-1.9-9.6,15.7c0,0.1,0,17.1-0.4,22.4c-4.8-0.9-15.4-5.7-22-7.3c0,0-6.7-6.5-9.9-7.7
	c-2.3-0.9-8.6-0.4-8.6-0.4s-9.2,4.2-8.4,5.6c0.9,1.9,6.2-3.4,9.2-2.5c0,0-6.6,3.3-5.1,3.8c1.6,0.6,4.2-0.2,5.6-0.3
	c1.3-0.1,4.8,3.8,8.5,5.4c0.6,0.3,3.2,0.8,5.9,2.1c2.8,1.4,30.5,20.7,33.1,16.7C225.9,126.8,229.2,92.7,221.2,83.9z"/>
<path class="st19" d="M225.3,119.6c-7.8-1.1-16.4-3.4-16.4-3.4s-1.4-15.8-1.5-16.3c-0.5-8.1-1.5-13.5,3.7-19.3
	c2.5-2.7,14-1.1,16,8.6c1.8,9.1-0.1,21.9-1.4,29.9l-0.1,0.4H225.3z"/>
<path class="st20" d="M193.9,46.4c8.5,5.9,10.3,20.9,2.5,28.2c-5.1,4.6-15.1,5.5-20.6,0.8c-9.1-7.6-10-16-6.8-22.7
	C173.2,44.1,187,41.6,193.9,46.4z"/>
<path class="st14" d="M196.6,66.8c0,0,2.6,8.1,11.8,12.8c1.2,0.5-12.8,23.1-12.8,22.7c0-1.7,2.4-11.9,1.8-13.2
	c-1.7-3.4-11.2-18.9-11.2-18.9L196.6,66.8z"/>
<path class="st14" d="M191.4,68.6l-5.1,1.7l0,0c0,0,4.2,6.8,7.5,12.4c1.2-0.9,2.2-2.3,3.1-4.2c1.3-3.1,1.5-6.2,1.1-9.2
	c-0.8-1.5-1.2-2.5-1.2-2.5L191.4,68.6z"/>
<path class="st14" d="M177.8,51.6c0,0,4.5-1.9,9.5-0.1c4.9,1.9,13.8,13.8,9.2,24.3c-4.5,10.5-15.5,5.3-20.3-1.4
	C171.3,67.8,166.5,57.8,177.8,51.6z"/>
<path class="st20" d="M197.4,57.6c-3.9-6.7-8.2-10.7-14.2-9.2c-6,1.6-11.4,2.5-11.8,9.7l-0.4,1.2c0,0,8.7-4.2,12.3-0.9
	c3.6,3.4,11.2,4.4,12.2,6.7c1.1,2.3,3.5,6.5,3.5,6.5l0.4-2.6C199.4,68.8,201.3,64.3,197.4,57.6z"/>
<path class="st14" d="M188.2,61.7c0.8,2.1,2.6,3.4,4.1,2.7c1.5-0.6,2-2.8,1.2-4.9c-0.8-2.1-2.6-3.4-4.1-2.7
	C187.9,57.4,187.4,59.6,188.2,61.7z"/>
<g>
	<g>
		<path class="st21" d="M41.9,94.1L41.9,94.1c-0.1,0-0.2-0.1-0.2-0.2l0.5-3.9c0-0.1,0.1-0.2,0.2-0.2c0.1,0,0.2,0.1,0.2,0.2l-0.5,3.9
			C42.1,94.1,42,94.1,41.9,94.1z"/>
	</g>
	<polygon class="st22" points="39.8,121.1 36.1,121.4 32.7,90.6 33.9,84.7 36.4,90.3 	"/>
	<path class="st2" d="M36.4,90.4L36.4,90.4l-1.8-4l-1.2,0.1l-0.7,4.1C34,90.6,35.2,90.6,36.4,90.4z"/>
	<path class="st23" d="M40.4,122.6l-3.7-0.3l3.4-27.6c0.1-1.1,0.9-3.2,1.9-3.1l0,0c1.1,0.1,1.2,2.4,1.1,3.5L40.4,122.6z"/>
	<path class="st24" d="M36.8,133.8L36.8,133.8c-4.5,0-8.2-3.7-8.2-8.2v-17.8h16.3v17.8C45,130.2,41.3,133.8,36.8,133.8z"/>
	<path class="st4" d="M38.4,130.8v-22.9h-9.8v22.9c0,1.7,1.4,3.1,3.1,3.1h3.8C37,133.8,38.4,132.5,38.4,130.8z"/>
</g>
<g>
	<path class="st25" d="M157.1,99.1l-0.7,1.6c-0.2,0.4-0.7,0.7-1.2,0.6l0,0c-0.7-0.1-1.2-0.9-0.8-1.6l4-7.9l2.8,0.5l1.2,8.7
		c0.1,0.7-0.5,1.4-1.3,1.3H161c-0.4-0.1-0.8-0.4-0.9-0.9l-0.2-1.8L157.1,99.1z M159.9,97.8l-0.2-2.1c-0.1-0.6-0.1-1.4-0.2-2l0,0
		c-0.2,0.5-0.5,1.3-0.7,1.8l-0.9,2L159.9,97.8z"/>
</g>
<g>
	<path class="st26" d="M139.1,82.3c0.6-0.4,2-1.3,3.3-1.9c1.6-0.7,2.6-1.1,3.7-0.9c1.1,0,2,0.5,2.4,1.6c0.5,1.1,0.3,2.2-0.7,3.4l0,0
		c1.5-0.3,2.9,0.2,3.7,1.8c0.5,1.1,0.4,2.1,0,3.1c-0.5,1.1-1.8,2.1-4,3.2c-1.3,0.6-2.3,0.9-2.8,1.2L139.1,82.3z M143.8,85.4l0.8-0.4
		c1.4-0.6,1.8-1.6,1.4-2.4c-0.4-0.8-1.3-1.1-2.5-0.4c-0.5,0.3-0.8,0.4-1.1,0.6L143.8,85.4z M146.3,90.5c0.3-0.1,0.5-0.2,1.1-0.4
		c1.2-0.5,2-1.5,1.5-2.7c-0.5-1.2-1.8-1.2-3.2-0.5l-0.8,0.4L146.3,90.5z"/>
</g>
<g>
	<path class="st27" d="M161.1,74c0.2,0.6-0.1,1.4-0.8,1.6c-0.6,0.2-1.4,0.4-2.3,0.5c-4.7,0.6-7.6-2-8.1-6c-0.6-4.7,2.4-7.8,6.6-8.3
		c0.8-0.1,1.6-0.1,2.2-0.1c0.7,0.1,1.3,0.7,1.2,1.5l0,0c-0.1,0.6-0.7,1.2-1.4,1.2c-0.4,0-0.9,0-1.5,0c-2.5,0.3-4.2,2.1-3.8,5.2
		c0.3,2.7,2.2,4.3,5.1,3.9c0.4-0.1,0.9-0.2,1.4-0.3C160.3,72.9,160.9,73.3,161.1,74L161.1,74z"/>
</g>
<g>
	<path class="st28" d="M129.2,45.3c1.4-0.7,3.2-1.4,5.1-2.1c3.3-1.1,5.5-1.2,7.6-0.5c2.2,0.7,4,2.4,4.9,5.5c1.1,3.3,0.6,5.9-0.5,7.8
		c-1.3,2.1-3.8,3.7-7.1,4.7c-2,0.6-3.5,0.9-4.4,1.2L129.2,45.3z M137.7,57.8c0.3,0,0.8-0.2,1.4-0.4c3.5-1.2,5.2-3.8,3.8-7.8
		c-1.2-3.6-3.8-4.7-7.1-3.6c-0.8,0.3-1.4,0.5-1.7,0.7L137.7,57.8z"/>
</g>
<path class="st20" d="M193.1,46.8c0,0,8.1,24.3,15.9,30.1c0.9,0.6,6,4.3,6.7,3.6c2.3-2.3,2.1-12-5.4-21.8
	C196.3,40.3,193.1,46.8,193.1,46.8z"/>
<path class="st29" d="M193.7,46.2c0,0-0.8,2.3,0.9,2.3C194.6,48.5,194.3,50.6,193.7,46.2z"/>
<ellipse transform="matrix(0.866 -0.5 0.5 0.866 -11.5247 97.1782)" cx="175.6" cy="70.1" rx="0.7" ry="1.5"/>
<ellipse transform="matrix(0.866 -0.5 0.5 0.866 -9.3087 99.3029)" cx="180.6" cy="67" rx="0.7" ry="1.5"/>
<g>
	<g>
		<g>
			<path class="st30" d="M183.7,74.1c0,0-0.4,0.3-0.9,0.8c-0.1,0.1-0.3,0.3-0.4,0.2c-0.1,0-0.2-0.2-0.3-0.4
				c-0.2-0.4-0.5-0.9-0.7-1.4c-1.2-2-2.1-3.5-2.2-3.5s0.7,1.7,1.9,3.6c0.3,0.5,0.5,0.9,0.8,1.4c0.1,0.2,0.2,0.4,0.5,0.5
				c0.1,0,0.3,0,0.4-0.1c0.1-0.1,0.2-0.2,0.2-0.2C183.4,74.5,183.7,74.1,183.7,74.1z"/>
		</g>
	</g>
</g>
<g>
	<g>
		<g>
			<path class="st30" d="M182.5,78.9c0-0.2,1.6,0,2.8-1.3c1.3-1.2,1.4-2.8,1.6-2.8c0.1,0,0.2,0.4,0.2,1.2c-0.1,0.7-0.4,1.7-1.2,2.4
				c-0.7,0.7-1.8,0.9-2.4,0.9C182.9,79.2,182.5,79,182.5,78.9z"/>
		</g>
	</g>
</g>
<g>
	<g>
		<g>
			<path class="st30" d="M183.8,63.9c-0.1,0.3-1.7-0.1-3.5,0.7c-1.8,0.7-2.6,2.2-2.9,2.1c-0.1-0.1-0.1-0.5,0.3-1.2
				c0.4-0.6,1.2-1.5,2.2-1.9c1.1-0.4,2.2-0.5,2.8-0.3C183.6,63.4,183.9,63.7,183.8,63.9z"/>
		</g>
	</g>
</g>
<g>
	<g>
		<g>
			<path class="st30" d="M176.5,67.5c0,0.2-1.2,0-2,0.6c-0.8,0.6-1.1,1.6-1.3,1.6c-0.1,0-0.2-0.3-0.2-0.8c0-0.4,0.3-1.1,0.8-1.4
				c0.5-0.4,1.3-0.4,1.8-0.3C176.2,67.1,176.5,67.4,176.5,67.5z"/>
		</g>
	</g>
</g>
</svg>
