<?xml version="1.0" encoding="utf-8"?>
<!-- Generator: Adobe Illustrator 25.1.0, SVG Export Plug-In . SVG Version: 6.00 Build 0)  -->
<svg version="1.1" id="Layer_1" xmlns="http://www.w3.org/2000/svg" xmlns:xlink="http://www.w3.org/1999/xlink" x="0px" y="0px"
	 viewBox="0 0 300 265" style="enable-background:new 0 0 300 265;" xml:space="preserve">
<style type="text/css">
	.st0{fill:#464C6B;}
	.st1{fill:#2C3765;}
	.st2{fill:#B95241;}
	.st3{fill:#9A92AE;}
	.st4{fill:#E48867;}
	.st5{fill:#FFFFFF;}
	.st6{fill:#C2C2C7;}
	.st7{fill:#A8A6B4;}
	.st8{opacity:0.92;fill:#FFFFFF;enable-background:new    ;}
	.st9{fill:#07113D;}
	.st10{fill:#D93838;}
	.st11{fill:none;stroke:#2C3765;stroke-width:2.4209;stroke-linecap:round;stroke-miterlimit:10;}
	.st12{fill:#569DCC;}
	.st13{fill:#C7E223;}
	.st14{fill:#FFB339;}
	.st15{fill:#4D6199;}
	.st16{fill:none;stroke:#2C3765;stroke-width:1.2885;stroke-linecap:round;stroke-miterlimit:10;}
	.st17{opacity:0.7;fill:#2C3765;enable-background:new    ;}
	.st18{fill:#FDBD8E;}
	.st19{fill:#FB9988;}
	.st20{fill:#FD7D6F;}
	.st21{fill:#FFDABA;}
	.st22{fill:#FFD455;}
	.st23{fill:#EDB838;}
	.st24{fill:#204D74;}
	.st25{fill:#FFE598;}
	.st26{fill:#231F20;}
	.st27{fill:#FF9300;}
	.st28{fill:#FFF0E7;}
	.st29{fill:#414156;}
	.st30{fill:#313044;}
	.st31{fill:#5E5E73;}
	.st32{fill:#55062C;}
	.st33{fill:#3F0727;}
	.st34{fill:#161818;}
	.st35{fill:#6F0A32;}
	.st36{fill:#A84835;}
	.st37{fill:#C96239;}
	.st38{fill:#A7A7B7;}
	.st39{fill:#616172;}
	.st40{fill:#0E2244;}
	.st41{fill:#494956;}
</style>
<g>
	<g>
		<g>
			<rect x="167.6" y="180.3" class="st0" width="9.1" height="84.7"/>
			<path class="st1" d="M168.6,257.5v2.4V257.5z"/>
			<rect x="80.5" y="180.3" class="st0" width="9.1" height="84.7"/>
			<path class="st2" d="M185.4,183.2H54.5v-2.6c0-4.4,3.9-8,8.7-8h113.4c4.8,0,8.7,3.6,8.7,8V183.2z"/>
			<rect x="40" y="201" class="st0" width="45.6" height="7.8"/>
			<rect x="126.2" y="201" class="st0" width="49.2" height="7.8"/>
			<rect x="123.2" y="180.3" class="st3" width="9.1" height="84.7"/>
			<rect x="36" y="180.3" class="st3" width="9.1" height="84.7"/>
			<g>
				<path class="st4" d="M140,183.2H20.7v-2.6c0-4.4,3.9-8,8.7-8h102c4.8,0,8.7,3.6,8.7,8v2.6H140z"/>
			</g>
		</g>
	</g>
	<g>
		<g>
			<g>
				<rect x="20.7" y="8" class="st0" width="257.2" height="147"/>
				<rect x="27.1" y="11.7" class="st5" width="244.3" height="139.7"/>
			</g>
			<rect x="20.3" y="155.1" class="st6" width="257.8" height="5"/>
			<g>
				<g>
					<rect x="6.8" y="3.3" class="st7" width="286.3" height="14.4"/>
				</g>
				<g>
					<rect x="6.8" y="3.3" class="st6" width="286.3" height="10.1"/>
				</g>
				<path class="st8" d="M68.5,8.2H16c-1,0-1.8-0.6-1.8-1.4l0,0c0-0.8,0.8-1.4,1.8-1.4h52.5c1,0,1.8,0.6,1.8,1.4l0,0
					C70.3,7.6,69.5,8.2,68.5,8.2z"/>
				<path class="st8" d="M92.2,8.2H82c-1,0-1.8-0.6-1.8-1.4l0,0c0-0.8,0.8-1.4,1.8-1.4h10.2c1,0,1.8,0.6,1.8,1.4l0,0
					C93.9,7.6,93.1,8.2,92.2,8.2z"/>
				<rect x="10.8" y="3.1" class="st7" width="3.8" height="14.4"/>
				<rect x="284.1" y="3.1" class="st7" width="3.8" height="14.4"/>
				<g>
					<path class="st9" d="M300,4.6v11c0,2.5-2.7,4.6-6.1,4.6c-3.4,0-6.1-2.1-6.1-4.6v-11c0-2.5,2.7-4.6,6.1-4.6
						c1.7,0,3.3,0.5,4.3,1.4C299.2,2.2,300,3.3,300,4.6z"/>
					<path class="st1" d="M300,4.6v5.5c0,2.5-2.7,4.6-6.1,4.6c-3.4,0-6.1-2.1-6.1-4.6V4.6c0-2.5,2.7-4.6,6.1-4.6
						c1.7,0,3.3,0.5,4.3,1.4C299.2,2.2,300,3.3,300,4.6z"/>
				</g>
				<g>
					<path class="st9" d="M12.2,4.6v11c0,2.5-2.7,4.6-6.1,4.6S0,18.1,0,15.6v-11C0,2.1,2.7,0,6.1,0c1.7,0,3.3,0.5,4.3,1.4
						C11.6,2.2,12.2,3.3,12.2,4.6z"/>
					<path class="st1" d="M12.2,4.6v5.5c0,2.5-2.7,4.6-6.1,4.6S0,12.6,0,10.1V4.6C0,2.1,2.7,0,6.1,0c1.7,0,3.3,0.5,4.3,1.4
						C11.6,2.2,12.2,3.3,12.2,4.6z"/>
				</g>
			</g>
			<path id="XMLID_149_" class="st10" d="M44.8,133.1l12-6c4.6-2.4,10.3-2.4,14.8-0.2l0,0c4.3,2.1,9.8,2.2,14.2,0.1l13.5-6.1
				c2.7-1.3,6-1.7,9.1-1.3l5.2,0.7c10.2,1.3,20.6,0,29.8-3.6l6.4-2.5v18.9H48.7H44.8z"/>
			<polyline id="XMLID_148_" class="st11" points="43.8,133.1 152.6,133.1 152.6,112.5 			"/>
			<path id="XMLID_147_" class="st12" d="M44.8,106.4l12-6c4.6-2.4,10.3-2.4,14.8-0.2l0,0c4.3,2.1,9.8,2.2,14.2,0.1l13.5-6.1
				c2.7-1.3,6-1.7,9.1-1.3l5.2,0.7c10.2,1.3,20.6,0,29.8-3.6l6.4-2.5v18.9H48.7C48.7,106.4,44.8,106.4,44.8,106.4z"/>
			<polyline id="XMLID_146_" class="st11" points="43.8,106.4 152.6,106.4 152.6,85.8 			"/>
			<g id="XMLID_83_">
				<rect id="XMLID_145_" x="46.4" y="40.6" class="st12" width="8.5" height="26.5"/>
				<rect id="XMLID_144_" x="61.2" y="29.1" class="st12" width="8.5" height="37.9"/>
				<rect id="XMLID_143_" x="75.9" y="46" class="st12" width="8.5" height="21.1"/>
				<rect id="XMLID_142_" x="75.9" y="43" class="st13" width="8.5" height="2.9"/>
				<rect id="XMLID_94_" x="46.4" y="34" class="st13" width="8.5" height="6.6"/>
				<rect id="XMLID_93_" x="90.8" y="24.9" class="st12" width="8.5" height="42.2"/>
				<rect id="XMLID_92_" x="105.7" y="40.6" class="st12" width="8.5" height="26.5"/>
				<rect id="XMLID_91_" x="120.6" y="53.8" class="st12" width="8.5" height="13.2"/>
				<path id="XMLID_90_" class="st1" d="M52,75h-2.7c-1.6,0-2.9-1-2.9-2.2v-0.1c0-1.2,1.3-2.2,2.9-2.2H52c1.6,0,2.9,1,2.9,2.2v0.1
					C54.8,74,53.5,75,52,75z"/>
				<path id="XMLID_89_" class="st1" d="M66.8,75h-2.7c-1.6,0-2.9-1-2.9-2.2v-0.1c0-1.2,1.3-2.2,2.9-2.2h2.7c1.6,0,2.9,1,2.9,2.2
					v0.1C69.7,74,68.4,75,66.8,75z"/>
				<path id="XMLID_88_" class="st1" d="M81.5,75h-2.7c-1.6,0-2.9-1-2.9-2.2v-0.1c0-1.2,1.3-2.2,2.9-2.2h2.7c1.6,0,2.9,1,2.9,2.2
					v0.1C84.4,74,83.1,75,81.5,75z"/>
				<path id="XMLID_87_" class="st1" d="M96.4,75h-2.7c-1.6,0-2.9-1-2.9-2.2v-0.1c0-1.2,1.3-2.2,2.9-2.2h2.7c1.6,0,2.9,1,2.9,2.2
					v0.1C99.2,74,97.9,75,96.4,75z"/>
				<path id="XMLID_86_" class="st1" d="M111.3,75h-2.7c-1.6,0-2.9-1-2.9-2.2v-0.1c0-1.2,1.3-2.2,2.9-2.2h2.7c1.6,0,2.9,1,2.9,2.2
					v0.1C114.2,74,112.9,75,111.3,75z"/>
				<path id="XMLID_85_" class="st1" d="M126.2,75h-2.7c-1.6,0-2.9-1-2.9-2.2v-0.1c0-1.2,1.3-2.2,2.9-2.2h2.7c1.6,0,2.9,1,2.9,2.2
					v0.1C129,74,127.7,75,126.2,75z"/>
				<rect id="XMLID_84_" x="120.6" y="50.9" class="st13" width="8.5" height="7.4"/>
			</g>
			<g>
				<path class="st14" d="M202.2,47.1h28.4c0,10.9-12.8,19.8-28.3,19.8s-28.3-8.9-28.3-19.8c0-7.9,6.9-15.2,17.4-18.3L202.2,47.1z"
					/>
				<path class="st1" d="M230.5,72.1h-53.3c-0.5,0-1-0.3-1-0.8l0,0c0-0.4,0.4-0.8,1-0.8h53.3c0.5,0,1,0.3,1,0.8l0,0
					C231.4,71.8,231,72.1,230.5,72.1z"/>
				<path class="st1" d="M211.1,75.1h-34c-0.5,0-1-0.3-1-0.8l0,0c0-0.4,0.4-0.8,1-0.8h34c0.5,0,1,0.3,1,0.8l0,0
					C212,74.8,211.6,75.1,211.1,75.1z"/>
			</g>
			<g>
				<g>
					<rect x="173.6" y="87.9" class="st15" width="46.4" height="2"/>
					<rect x="173.6" y="92.4" class="st15" width="72.4" height="2"/>
					<rect x="173.6" y="96.9" class="st15" width="48.8" height="2"/>
				</g>
				<path class="st1" d="M170.6,88.9c0,0.8-1,1.5-2.3,1.5c-1.3,0-2.3-0.7-2.3-1.5c0-0.8,1-1.5,2.3-1.5S170.6,88.1,170.6,88.9z"/>
				<path class="st1" d="M170.6,93.9c0,0.8-1,1.5-2.3,1.5c-1.3,0-2.3-0.7-2.3-1.5s1-1.5,2.3-1.5S170.6,93.1,170.6,93.9z"/>
				<path class="st1" d="M170.6,98.4c0,0.8-1,1.5-2.3,1.5c-1.3,0-2.3-0.7-2.3-1.5c0-0.8,1-1.5,2.3-1.5S170.6,97.6,170.6,98.4z"/>
			</g>
			<g>
				<line class="st16" x1="168.1" y1="106.8" x2="224.9" y2="106.8"/>
				<line class="st16" x1="168.1" y1="115.5" x2="245.4" y2="115.5"/>
				<line class="st16" x1="168.1" y1="109.8" x2="209.6" y2="109.8"/>
				<line class="st16" x1="168.1" y1="112.6" x2="246.6" y2="112.6"/>
			</g>
			<g>
				<line class="st16" x1="168.1" y1="118.8" x2="224.9" y2="118.8"/>
				<line class="st16" x1="168.1" y1="127.4" x2="245.4" y2="127.4"/>
				<line class="st16" x1="168.1" y1="121.7" x2="209.6" y2="121.7"/>
				<line class="st16" x1="168.1" y1="124.6" x2="246.6" y2="124.6"/>
			</g>
			<rect x="20.6" y="17.7" class="st17" width="257.3" height="3.8"/>
		</g>
		<g>
			<g>
				<g>
					<g>
						<path class="st18" d="M173.5,104.8c-0.2,0.6,8.5,5.8,9.7,5.8l1.4-0.1l4.2,2.6c0,0,0.6-0.6,1.2-1.5c0.3-0.5,0.6-1.1,0.7-1.8
							c0.1-0.4,0.1-0.8,0.1-1.2c0-0.2-2.2-1.7-2.2-1.7s1.1-3.3-0.1-4.8c-0.7-0.9-1.4-1.7-1.7-2.9c-0.2-0.6-0.3-1.1-0.5-1.7
							c-0.2-0.5-0.6-1-1.2-1.2c-0.1,0-0.1,0-0.2,0c-0.1,0-0.2,0.2-0.3,0.3l0,0c-0.4,1.6-0.2,3.4,0.4,4.9c0,0-5.2-2-6.5-3
							c0,0-3.1-1.4-3.5-0.9c-0.1,0.2-0.2,0.4-0.2,0.6c-0.1,0.3,0,0.5,0,0.5s6.2,3.9,6.3,4.2c0.1,0.3-6.1-1.8-6.7-1.5
							c-0.2,0.1-0.3,0.3-0.3,0.5c-0.1,0.2-0.1,0.5-0.1,0.8c0,0.4,0,0.8,0,0.8s0,0.1-0.1,0.2c-0.1,0.2-0.2,0.4-0.3,0.7
							C173.6,104.4,173.5,104.6,173.5,104.8z"/>
						<path class="st19" d="M173.5,104.8c-0.2,0.6,8.5,5.8,9.7,5.8l1.4-0.1l4.2,2.6c0,0,0.6-0.6,1.2-1.5c-1.8-0.8-3.5-2.2-4.7-3.9
							c-1.1-1.6-2-3.5-3.2-4.9c-0.8-0.9-1.8-1.6-2.9-2.4c-1.1-0.7-2.3-1.3-3.5-1.8c-0.3-0.2-0.6-0.3-0.9-0.3c-0.1,0.3,0,0.5,0,0.5
							s6.2,3.9,6.3,4.2s-6.1-1.8-6.7-1.5c-0.2,0.1-0.3,0.3-0.3,0.5c-0.1,0.2-0.1,0.5-0.1,0.8c0,0.4,0,0.8,0,0.8s0,0.1-0.1,0.2
							c-0.1,0.2-0.2,0.4-0.3,0.7C173.6,104.4,173.5,104.6,173.5,104.8z"/>
						<g>
							<g>
								<path class="st20" d="M174,102.6c0.2,0.1,0.3,0.2,0.5,0.2c1,0.4,2.1,0.7,2.8,0.8s1.1,0.2,1.2,0.2c0,0-0.4-0.2-1-0.5
									c-0.6-0.3-1.5-0.8-2.6-1.2c-0.2-0.1-0.5-0.2-0.7-0.3C174.1,102,174,102.3,174,102.6z"/>
							</g>
							<g>
								<path class="st20" d="M173.6,104.3c1.6,0.7,3.1,1,3.2,1c-0.1-0.1-1.2-0.9-2.9-1.7C173.9,103.7,173.8,104,173.6,104.3z"/>
							</g>
						</g>
						<path class="st21" d="M184.7,96.4c0.1,0.1,0.2,0.2,0.3,0.3c0.7,0.7,0.8,1.7,1.2,2.7c0.5,1.2,1.5,2.4,1.8,3.7
							c0.3,1.1,0,2.3-0.2,3.5c-0.1,0.3-0.1,0.7,0.1,1c0.1,0.3,0.4,0.4,0.6,0.6c0.7,0.5,1.5,1,2.3,1.5c0.1-0.4,0.1-0.8,0.1-1.2
							c0-0.2-2.2-1.7-2.2-1.7s1.1-3.3-0.1-4.8c-0.7-0.9-1.4-1.7-1.7-2.9c-0.2-0.6-0.3-1.1-0.5-1.7c-0.2-0.5-0.6-1-1.2-1.2
							c-0.1,0-0.1,0-0.2,0C184.8,96.1,184.7,96.2,184.7,96.4z"/>
						<path class="st20" d="M184.1,102.7c-0.7,0.8-0.9,2-0.8,3c0.1,1,0.6,2.2,1.2,2.9c0-0.8-0.5-1.7-0.6-2.6
							C183.7,105.2,183.6,103.3,184.1,102.7z"/>
					</g>
				</g>
				<g>
					<path class="st18" d="M220.2,124.8c-1.8,2.5-3.6,4.2-5,4.9c-0.1,0.1-0.3,0.1-0.4,0.2c-7.1,2.3-27.3-17.7-27.3-17.7l1-1.3
						l1.2-1.7l0.8-1.1c0,0,14.6,7.4,20.6,11.7l0,0c0.3,0.2,0.7,0.5,0.9,0.7c0,0,1.3-2.4,2.2-3.5L220.2,124.8z"/>
					<path class="st19" d="M215.1,129.7c-0.1,0.1-0.3,0.1-0.4,0.2c-7.1,2.3-27.3-17.7-27.3-17.7l1-1.3l0.3-0.1
						C188.6,110.8,205.1,128.7,215.1,129.7L215.1,129.7z"/>
					<path class="st21" d="M212.2,120.4L189.8,109l0.8-1.1c0,0,14.6,7.4,20.6,11.7l0,0L212.2,120.4z"/>
					<path class="st22" d="M213.6,116.1l5.7,7.4l1.8,2.4c0.8-0.6,1.6-1.3,2.5-2.1c2.6-2.3,5.4-4.9,8.1-7.5l1.2-12
						c0.2-2.4-0.1-4.8-1.3-6.9c-0.3-0.6-1.1-0.5-3.1,1c-0.8,0.7-9.1,10.3-9.1,10.3C217.1,111.4,214.9,114.3,213.6,116.1z"/>
					<path class="st23" d="M220,124.2l1,1.6c0.8-0.6,1.6-1.3,2.5-2.1l5.7-5.1v-3L220,124.2z"/>
					<path class="st24" d="M230.3,98.7L230.3,98.7L230.3,98.7z"/>
					<path class="st25" d="M230.5,97.1c-5.7,1-14.2,13.9-17.2,18.8l0.8,1l4.8-6.9C222.1,105.6,226.4,100.7,230.5,97.1z"/>
				</g>
			</g>
			<g>
				<g>
					<g>
						<g>
							<g>
								<path class="st26" d="M237.2,259c0,0-0.5,3-0.8,3.3c-0.3,0.4-17.1,0-17.1,0v-2.6l10-3.4L237.2,259z"/>
								<path class="st27" d="M219.3,259.7c0,0,16.8,1.2,17.8,0.1c0.6-0.8,0.4-8.8,0.4-8.8l-4.6-0.2
									C232.9,250.8,218.6,259.7,219.3,259.7z"/>
							</g>
							<g>
								<path class="st26" d="M257.7,260.1c0.4,1.5,3.5,3.8,4.9,4.7c0.4,0.3,1,0.3,1.3-0.1c1.2-1,3.9-3.4,4.1-4.6
									c0.1-0.4-0.1-1.1-0.3-2.2c-0.2-0.8-0.5-1.6-0.8-2.6c-1-2.9-2.4-5.9-2.4-5.9l-5.1,0.2c0,0-1.2,4.4-1.6,7.6l0,0
									C257.6,258.5,257.6,259.5,257.7,260.1z"/>
								<path class="st27" d="M257.8,257.4c0.6,1.5,3.5,3.6,4.8,4.5c0.4,0.3,1,0.3,1.3-0.1c1-0.8,3-2.6,3.8-3.9
									c-0.2-0.8-0.5-1.6-0.8-2.6c-1-2.9-2.4-5.9-2.4-5.9l-5.1,0.2C259.4,249.7,258.2,254.2,257.8,257.4z"/>
							</g>
						</g>
						<g>
							<path class="st28" d="M264.7,254.6c-0.1,0.3-0.4,0.5-0.7,0.6c-1.1,0.4-2.6,0.6-3.6-0.1c-0.1-0.1-0.1-0.1-0.2-0.2
								c-0.1-0.1,0-0.3,0.1-0.5c0.1-0.1,0.3-0.2,0.4-0.3C261.3,254,265,253.1,264.7,254.6z"/>
							<path class="st28" d="M265.1,257.5c-0.1,0.3-0.4,0.5-0.7,0.6c-1.1,0.4-2.6,0.6-3.6-0.1c-0.1-0.1-0.1-0.1-0.2-0.2
								c-0.1-0.1,0-0.3,0.1-0.5c0.1-0.1,0.3-0.2,0.4-0.3C261.6,256.9,265.3,255.9,265.1,257.5z"/>
						</g>
						<g>
							<path class="st28" d="M229.3,255.9c-0.3,0.1-0.5-0.1-0.8-0.3c-0.8-0.7-1.5-1.6-1.5-2.7c0-0.1,0-0.2,0-0.2
								c0.1-0.1,0.2-0.2,0.4-0.1c0.1,0,0.3,0.1,0.4,0.2C228.3,253.1,230.5,255.4,229.3,255.9z"/>
							<path class="st28" d="M227.6,257.4c-0.3,0.1-0.5-0.1-0.8-0.3c-0.8-0.7-1.5-1.6-1.5-2.7c0-0.1,0-0.2,0-0.2
								c0.1-0.1,0.2-0.2,0.4-0.1c0.1,0,0.3,0.1,0.4,0.2C226.4,254.6,228.8,257,227.6,257.4z"/>
						</g>
					</g>
					<g>
						<path class="st29" d="M226.2,205.5c1,3.1,3.8,47.1,3.8,47.1h8c0,0,3.2-34.7,2.6-37.9c-0.8-4.3-3.6-12.6-3.6-12.6
							c0.3-1.7,0.7-35.1,0.7-35.1l2.2-0.2c0,0,6.7,36.6,8.6,40.9c2,4.2,9.6,43.3,9.6,43.3h7.9c0,0-1.4-31.3-1.6-33.9
							c-0.4-4.9-6.7-17.1-6.7-17.1s0.3-32.6,0-37.5c0-0.2,0-0.3,0-0.5c-0.1-0.7-0.1-1.4-0.2-2.3c0-0.1,0-0.3-0.1-0.4
							c0-0.2,0-0.3-0.1-0.5c0-0.2-0.1-0.4-0.1-0.6c0-0.2-0.1-0.3-0.1-0.5c-0.3-1.4-0.6-2.9-1-4.2c-0.1-0.3-0.2-0.7-0.3-1
							c-0.1-0.2-0.1-0.4-0.2-0.6c0-0.2-0.1-0.3-0.1-0.4c-0.2-0.8-0.5-1.5-0.7-2.3c0-0.1-0.1-0.3-0.1-0.4s-0.1-0.3-0.1-0.4
							c0-0.1,0-0.1-0.1-0.2v-0.1l0,0c-0.1-0.2-0.1-0.4-0.2-0.6c-0.2-0.4-0.3-0.8-0.5-1.2c-0.2-0.4-0.3-0.8-0.5-1.2l0,0
							c-0.2-0.5-0.4-1-0.6-1.5c0-0.1-0.1-0.2-0.1-0.3c-0.2-0.5-0.4-0.9-0.6-1.3c0-0.1-0.1-0.2-0.1-0.3c-0.4-0.8-0.7-1.5-1-2.1l0,0
							c-0.1-0.1-0.1-0.2-0.1-0.3c0,0,0-0.1-0.1-0.1c-0.2-0.3-0.3-0.5-0.3-0.5h-23.6c0,0-0.1,0.6-0.4,1.7c-0.1,0.3-0.1,0.7-0.2,1.1
							c-0.1,0.3-0.1,0.6-0.2,0.9c-0.1,0.3-0.1,0.6-0.2,1c-0.4,1.7-0.8,3.9-1.2,6.2c-0.9,4.8-2,10.2-2.4,14.1
							C220.8,172.3,225.2,202.4,226.2,205.5z"/>
						<path class="st30" d="M247.2,138.7c0,0,0.3,0.8,0.7,2.1c0.2,0.6,0.4,1.3,0.7,2.1c0.3,0.8,0.6,1.6,0.9,2.6
							c0.2,0.5,0.4,1,0.5,1.5c0.2,0.4,0.3,0.9,0.5,1.3c1.4,3.9,3,7.8,3.8,9.2c1.8,3.2,0,41.1,0,41.1s7.1,17.1,7.7,17.8
							c0.6,0.6,2.1,25.9,2.6,34.5h1.3c0,0-1.4-31.3-1.6-33.9c-0.4-4.9-6.7-17.1-6.7-17.1s0.3-32.6,0-37.5c0-0.2,0-0.3,0-0.5
							c-0.1-0.7-0.1-1.4-0.2-2.3c0-0.1,0-0.3-0.1-0.4c0-0.2,0-0.3-0.1-0.5c0-0.2-0.1-0.4-0.1-0.6s-0.1-0.3-0.1-0.5
							c-0.3-1.4-0.6-2.9-1-4.2c-0.1-0.3-0.2-0.7-0.3-1c-0.1-0.2-0.1-0.4-0.2-0.6c0-0.2-0.1-0.3-0.1-0.4c-0.2-0.8-0.5-1.5-0.7-2.3
							c0-0.1-0.1-0.3-0.1-0.4c0-0.1-0.1-0.3-0.1-0.4c0-0.1,0-0.1-0.1-0.2V148l0,0c-0.1-0.2-0.1-0.4-0.2-0.6
							c-0.2-0.4-0.3-0.8-0.5-1.2c-0.2-0.4-0.3-0.8-0.5-1.2l0,0c-0.2-0.5-0.4-1-0.6-1.5c0-0.1-0.1-0.2-0.1-0.3
							c-0.2-0.5-0.4-0.9-0.6-1.3c0-0.1-0.1-0.2-0.1-0.3c-0.4-0.8-0.7-1.5-1-2.1l0,0c-0.1-0.1-0.1-0.2-0.1-0.3c0,0,0-0.1-0.1-0.1
							c-0.2-0.3-0.3-0.5-0.3-0.5h-2.1h-0.2L247.2,138.7z"/>
						<path class="st30" d="M224.3,149.6c6.9,3,19,0.7,26.4-1.1c0.5-0.1,0.9-0.2,1.3-0.3c0.5-0.1,0.9-0.3,1.3-0.4
							c0.3-0.1,0.5-0.1,0.7-0.2c-0.1-0.3-0.3-0.7-0.4-1c0-0.1-0.1-0.2-0.1-0.2c-0.1-0.3-0.2-0.6-0.3-0.9c0-0.1-0.1-0.2-0.1-0.3l0,0
							c-0.2-0.5-0.4-1-0.6-1.5c0,0,0-0.1-0.1-0.1c0-0.1,0-0.1-0.1-0.2c-0.2-0.4-0.3-0.7-0.5-1.1c0-0.1-0.1-0.1-0.1-0.2
							c0-0.1-0.1-0.2-0.1-0.3c-0.4-0.8-0.7-1.5-1-2.1l0,0c-0.1-0.1-0.1-0.2-0.1-0.3c0,0,0-0.1-0.1-0.1c-0.2-0.3-0.3-0.5-0.3-0.5
							h-23.6c0,0-0.1,0.6-0.4,1.7c-0.1,0.3-0.1,0.7-0.2,1.1c-0.1,0.3-0.1,0.6-0.2,0.9c-0.1,0.3-0.1,0.6-0.2,1
							C225.1,145.2,224.7,147.4,224.3,149.6z"/>
						<path class="st30" d="M234.7,201.2l0.2-31.2l2.9-3c0,0-0.4,33.4-0.7,35.1c0,0,2.8,8.2,3.6,12.6c0.6,3.2-2.6,37.9-2.6,37.9
							h-1.7l2.4-35.6L234.7,201.2z"/>
						<path class="st31" d="M253,206.9c-0.1,0.1-0.1,0.3-0.3,0.3c-0.1,0.1-0.3,0-0.4,0c-0.7-0.2-1.3-0.7-1.8-1.3
							c-1-1.3-3.2-5.8-0.1-5.9C253.5,200.1,253.9,204.9,253,206.9z"/>
						<path class="st31" d="M232.4,208.2c-0.2,0.6-0.6,1.3-1.2,1.5c-0.5,0.2-1.1,0-1.6-0.3c-0.5-0.3-0.8-0.8-1.1-1.3
							c-0.5-0.9-1-2-1.1-3c-0.3-2.2,1.3-4.9,3.8-3.9C233.5,202.3,233.1,206.1,232.4,208.2z"/>
						<path class="st31" d="M247.4,138.6c0.2,0.7,0.6,1.3,1,2c0.1,0.2,0.3,0.3,0.4,0.5c1,1,2.3,1.7,3.6,2.4c0-0.1,0-0.1-0.1-0.2
							c-0.2-0.4-0.3-0.7-0.5-1.1c-0.7-0.4-1.5-0.9-2.2-1.5c-0.6-0.6-1.1-1.3-1.4-2.1h-0.8V138.6z"/>
						<path class="st31" d="M245.5,138.6c0,0.1,0.1,0.3,0.1,0.4c0.4,1.5,1.2,3,2.4,4.1c0.6,0.6,1.2,1.1,2,1.5c0.6,0.4,1.2,0.7,1.8,1
							c0.6,0.3,1.2,0.6,2,0.8c0-0.1-0.1-0.2-0.1-0.2c-0.1-0.3-0.2-0.6-0.3-0.9h-0.1c-1.3-0.5-2.7-1.2-3.8-2.2
							c-0.2-0.1-0.3-0.3-0.5-0.4c-1.1-1.1-2-2.5-2.4-3.9c0-0.1,0-0.1,0-0.2h-1V138.6z"/>
						<path class="st31" d="M225.9,141.5c0.6-0.2,1.2-0.5,1.7-0.9c0.6-0.5,1.2-1.2,1.6-2h-1c-0.5,0.7-1.3,1.4-2.2,1.7
							C226.1,140.7,226,141.1,225.9,141.5z"/>
						<path class="st31" d="M225.5,143.3c2.6-0.5,4.7-2.4,5.8-4.8h-1c-0.9,1.8-2.6,3.3-4.6,3.8C225.6,142.7,225.6,143,225.5,143.3z"
							/>
					</g>
				</g>
				<g>
					<g>
						<path class="st22" d="M226.5,138.6c9.3,7.8,24.2,1.1,24.2,1.1c-0.1-2.4,2.4-12.6,4.3-22c0.5-2.6,1-5,1.4-7.2
							c0.7-3.6,0.5-6.8,0.1-8.9c-0.2-1.5-0.6-2.7-0.7-3c-0.2-0.4-0.9-1-1.8-1.6l0,0c-0.2-0.1-0.3-0.2-0.4-0.3c0,0,0,0-0.1,0
							s-0.1-0.1-0.1-0.1l0,0l0,0c-1.6-1-3.6-2.2-4.6-2.5l0,0c-0.3-0.1-0.6-0.2-0.9-0.3c-1.2-0.4-2.3-0.6-2.3-0.6H238l0,0l0,0h-0.1
							l0,0c-0.2,0-0.7,0-1.3,0.2l0,0c-0.3,0.1-0.6,0.2-0.9,0.3c-0.9,0.3-2.1,0.8-3.4,1.7c-0.8,0.5-1.7,1.2-2.8,2.1
							c-5.7,4.7-5.3,14-2.1,20.5C228.3,119.9,226.5,138.6,226.5,138.6z"/>
						<g>
							<path class="st23" d="M228.6,117c0,0,0.3,0,0.8,0s1.2-0.1,2.1-0.1c1.7-0.1,4.2-0.2,6.6,0.4c0.6,0.2,1.2,0.3,1.8,0.5
								c0.6,0.2,1.2,0.3,1.8,0.4c1.2,0.2,2.3,0.2,3.2,0.1c0.5,0,0.9-0.1,1.2-0.2c0.3-0.1,0.6-0.3,0.8-0.4c0.2-0.2,0.3-0.3,0.4-0.4
								c0.1-0.1,0.1-0.2,0.1-0.2s-0.1,0-0.1,0.1c-0.1,0.1-0.3,0.2-0.5,0.3c-0.4,0.2-1.1,0.2-2,0.1c-0.8-0.1-1.8-0.3-3-0.6
								c-0.5-0.1-1.1-0.3-1.7-0.5c-0.6-0.2-1.2-0.4-2-0.6c-1.4-0.4-2.8-0.4-4-0.3c-1.2,0.1-2.3,0.4-3.2,0.6
								c-0.8,0.2-1.5,0.5-2.1,0.6C228.9,116.9,228.6,117,228.6,117z"/>
						</g>
					</g>
				</g>
				<g>
					<g>
						<g>
							<g>
								<g>
									<path class="st6" d="M258.5,167.4c-0.3,0.5-0.7,0.9-1.2,1.2l-13.9,8.7c-2,1.2-4.7,0.7-6.1-1.1l-16-22.1
										c-1.3-1.8-0.8-4.4,1.1-5.7l0.2-0.1l13.7-8.6c2-1.2,4.7-0.7,6.1,1.1l6.2,8.5l6.2,8.4l3.7,5.1
										C259.4,164.3,259.4,166.1,258.5,167.4z"/>
									<path class="st5" d="M237,152.5c0.7,0.9,0.6,2.1-0.2,2.6c-0.8,0.5-2,0.2-2.7-0.7c-0.7-0.9-0.6-2.1,0.2-2.6
										C235.2,151.3,236.3,151.6,237,152.5z"/>
								</g>
							</g>
						</g>
					</g>
					<g>
						<g>
							<path class="st19" d="M252.4,149.2c0,0-3-2.4-3.8-1.5c-0.8,0.8,1.5,2.9,1.5,2.9L252.4,149.2z"/>
							<path class="st18" d="M243.2,152.1c0.3,0.8,5.7-1.8,5.7-1.8l1.2,1.1l-2.2,1.3l-1.7,3.2c0,0,0.4,0.6,0.9,1.2
								c0.1,0.1,0.1,0.2,0.2,0.2c0.3,0.4,0.7,0.8,1,1.1l0.1,0.1c0.2,0.2,0.3,0.3,0.5,0.4c0.2,0.1,0.3,0.2,0.4,0.2l1.8-2.2
								c0,0,3.9,0.2,4.4-0.1c0.2-0.1,0.7-1,1.3-2.1c0.3-0.5,0.5-1,0.8-1.5l-1.2-1.3l-2.7-3c-0.4-0.1-0.9-0.2-1.4-0.3l0,0
								c-0.3-0.1-0.6-0.1-0.8-0.2c-1-0.2-2.3-0.3-3.2-0.2c-0.4,0-0.7,0.1-1,0.3C245.7,149.7,242.9,151.3,243.2,152.1z"/>
							<g>
								<g>
									<path class="st20" d="M248.3,158.4C248.4,158.4,248.4,158.4,248.3,158.4c0.2,0,0.2-0.1,0.3-0.3c0.2-0.3,0.6-0.8,0.9-1.3
										c0.4-0.5,0.7-0.9,1-1.2c0.1-0.1,0.1-0.1,0.2-0.2c0.1-0.1,0.1-0.1,0.2-0.1c0.1-0.1,0.1-0.1,0.1-0.1s-0.1,0-0.2,0
										c-0.1,0-0.1,0-0.2,0.1c-0.1,0-0.2,0.1-0.3,0.1c-0.4,0.2-0.9,0.6-1.3,1.1s-0.6,1.1-0.7,1.5
										C248.4,158.1,248.4,158.3,248.3,158.4z"/>
								</g>
								<g>
									<path class="st20" d="M247.1,157c0.1,0.1,0.1,0.2,0.2,0.2c0,0,0,0,0-0.1c0.2-0.3,0.6-0.8,0.9-1.3c0.4-0.5,0.7-0.9,1-1.2
										c0.1-0.1,0.1-0.1,0.2-0.2c0.1-0.1,0.1-0.1,0.2-0.1c0.1-0.1,0.1-0.1,0.1-0.1s-0.1,0-0.2,0c-0.1,0-0.1,0-0.2,0.1
										c-0.1,0-0.2,0.1-0.3,0.1c-0.4,0.2-0.9,0.6-1.3,1.1C247.4,156.1,247.2,156.6,247.1,157z"/>
								</g>
								<path class="st19" d="M248.9,159c0.2,0.1,0.3,0.2,0.4,0.2l1.8-2.2c0,0,3.9,0.2,4.4-0.1c0.2-0.1,0.7-1,1.3-2.1
									c0.3-0.5,0.5-1,0.8-1.5l-1.2-1.3c-0.2,0.5-0.4,0.9-0.7,1.3c-0.6,1.2-1.3,2.3-1.8,2.4c-1.3,0.3-3.5,0.5-3.5,0.5L248.9,159z"
									/>
							</g>
						</g>
					</g>
					<path class="st18" d="M254.1,149.1l2.7,3l1.2,1.3c0,0,19-12.5,19.5-16c0.2-1.1-0.8-4.9-3.2-10l-2,0.5l-7.9,2.2l3.4,6.1
						L254.1,149.1z"/>
					<path class="st19" d="M256.7,152.1l1.2,1.3c0,0,19-12.5,19.5-16c0.2-1.1-0.8-4.9-3.2-10l-2,0.5c1.1,3,3.2,8.6,2.6,9.5
						C274.2,138.5,256.7,152.1,256.7,152.1z"/>
					<path class="st22" d="M253.5,96.6v3v15.3l1.6,2.9l0.7,1.2l7.4,11.5l10.4-2.9l1.3-0.4c-4.8-10.1-12.5-23.8-13.3-24.7
						c-0.8-1-5.8-4.3-7.6-5.5l0,0c-0.2-0.1-0.3-0.2-0.4-0.3c0,0,0,0-0.1,0C253.6,96.6,253.6,96.6,253.5,96.6L253.5,96.6L253.5,96.6z
						"/>
					<path class="st25" d="M246.6,95.3c0,0,3.5,2.2,6.9,4.3c1.1,0.7,2.3,1.4,3.3,2.1c1.7,1.1,3,2,3.1,2.2
						c0.4,0.5,10.7,18.6,13.8,23.8l1.3-0.4c-4.8-10.1-12.5-23.8-13.3-24.7c-0.8-1-5.8-4.3-7.6-5.5l0,0c-0.2-0.1-0.3-0.2-0.4-0.3
						c0,0,0,0-0.1,0s-0.1-0.1-0.1-0.1l0,0l0,0c-1.6-1-3.6-2.2-4.6-2.5l0,0c-0.3-0.1-0.6-0.2-0.9-0.3L246.6,95.3z"/>
					<polygon class="st28" points="274.9,124.8 276.2,128.6 263.7,132 262,129.8 					"/>
				</g>
			</g>
			<g>
				<path class="st32" d="M225.6,89.8c1,0.3,2.2,0.6,3.3,0.8c7.6,1.5,17.2,0.4,22.7-0.5c2.8-0.5,4.5-0.8,4.5-0.8s0.9-7.5,0.9-10.3
					c0-1.7-0.1-3.4-0.4-4.8c-1.5-10.3-7.8-15-8.3-15.3l0,0l0,0h-11.7l-4.3,2.3l-0.8,0.4l-0.3,0.2l-4.7,2.5l-0.1,4l-0.1,3.2
					L225.6,89.8z"/>
				<path class="st33" d="M228,88.4c0.2,0.8,0.5,1.5,0.9,2.4c7.6,1.5,17.2,0.4,22.7-0.5l0,0c1.8-2.9,2.8-6.3,2.8-9.8
					c0.1-3.4-0.5-6.8-1.4-10.2c-0.7-2.6-1.5-5.1-3.1-7.4c-1.1-1.6-2.7-3.2-4.5-4.1c-0.1,0-0.2-0.1-0.3-0.1c-2.1-0.9-4.2-1-6.5-0.9
					c-2.9,0-5.8,1.3-7.3,3.8c-1.4,2.2-1.5,4.9-1.8,7.5c-0.4,3.3-1.2,6.5-1.7,9.7C227.3,81.8,227.2,85.2,228,88.4z"/>
				<g>
					<path class="st33" d="M224.8,81c0-0.2,0.1-0.4,0.2-0.7s0.2-0.7,0.4-1.1c0.2-0.4,0.4-0.8,0.8-1.2c0.4-0.4,0.8-0.7,1.1-0.9
						c0.4-0.2,0.7-0.3,1.1-0.4c0.1,0,0.3-0.1,0.4-0.1c0.1-0.1,0.2-0.2,0.2-0.2s0,0.1-0.1,0.2c0.1,0,0.2,0,0.2,0c0.2,0,0.3,0,0.3,0
						s-0.2,0.2-0.6,0.4c-0.1,0.2-0.2,0.4-0.3,0.7c-0.3,0.8-0.7,1.8-0.9,3c-0.2,1.1-0.2,2.3-0.1,3.2c0,0.4,0,0.7,0,1
						c0,0.2,0,0.4,0,0.4s-0.1-0.1-0.1-0.3c-0.1-0.2-0.2-0.5-0.3-0.9c-0.1-0.4-0.3-0.9-0.3-1.4c-0.1-0.6-0.1-1.2,0-2s0.4-1.3,0.6-1.8
						c0.3-0.5,0.5-0.9,0.8-1.2c-0.4,0.3-0.8,0.6-1.2,1c-0.6,0.6-1,1.3-1.4,2c-0.2,0.3-0.3,0.5-0.4,0.6c-0.1,0.1-0.2,0.2-0.2,0.2
						S224.8,81.1,224.8,81z"/>
					<g>
						<g>
							<g>
								<path class="st18" d="M232.1,95.4c0.6,2.1,2.2,5,6.4,6.5c5.5,1.8,9.1-5.1,10.3-7.7c-1.6-0.6-3.2-0.9-3.2-0.9h-7.6l0,0l0,0
									h-0.1l0,0c-0.2,0-0.7,0-1.3,0.2l0,0c-0.3,0.1-0.6,0.2-0.9,0.3C234.6,93.9,233.4,94.4,232.1,95.4z"/>
								<path class="st18" d="M238.8,100.7l6.8-7.6c0-1.1-0.1-1.5-0.2-4.3c-0.1-3.1-0.2-6.1-0.2-6.1l-8.7,3.5c1,2.2,1.4,4.7,1.5,7.1
									C238.3,98.3,238.8,100.7,238.8,100.7z"/>
								<path class="st19" d="M236.3,86.2c1,2.2,1.4,4.7,1.5,7.1c0.3,0.1,0.5,0.2,0.8,0.3c1,0.3,4.3-2.6,6.7-4.8
									c-0.1-3.1-0.2-6.1-0.2-6.1L236.3,86.2z"/>
							</g>
							<g>
								<g>
									<path class="st18" d="M227.2,75.7c0.2,0.8,0.4,1.6,0.7,2.6c0,0-0.4,4.4,0.1,5.3c0.5,1,3.4,7.1,6.6,6.8
										c2.6-0.3,8.9-4.1,11.1-6.4c0.4-0.4,0.7-0.8,0.7-1.1c0.3-1.7,1.3-9.5,1.4-10.1c0.3-1.7,1-15-15-11.3
										c-2.9,0.6-5.1,2.9-5.8,5.8C226.5,69.5,226.3,72.3,227.2,75.7z"/>
									<path class="st21" d="M227.8,78.3c0,0-0.4,4.4,0.1,5.3c0.5,1,3.4,7.1,6.6,6.8c2.6-0.3,8.9-4.1,11.1-6.4
										c-2.7,1.8-9.9,6.7-12,6c-2.6-0.9-5.5-6.7-5.5-7.3c0.1-0.6,0.2-4.3,0.2-4.3s-0.5-1.2-1.1-2.7
										C227.3,76.6,227.6,77.4,227.8,78.3z"/>
								</g>
								<g>
									<path class="st21" d="M245.5,82.7c2.1-0.2,3.5-1.3,4.2-2.4c0.2-0.2,0.3-0.4,0.4-0.6c0.6-1,0.7-4.6-0.7-5.4
										c-1-0.6-1.7,0.3-2.2,0.8l0,0c-0.1,0.2-0.2,0.4-0.2,0.4L245.5,82.7z"/>
									<path class="st18" d="M245.5,82.7c2.1-0.2,3.5-1.3,4.2-2.4c0.1-0.1,0.1-0.2,0.2-0.3c0.6-1,0.7-4.6-0.7-5.4
										c-0.8-0.5-1.5,0-1.8,0.5l0,0c-0.1,0.2-0.2,0.4-0.2,0.4L245.5,82.7z"/>
									<path class="st19" d="M250,77.2c0.1,0.3,0,0.6-0.1,0.8c-0.4,1.2-1.6,2.2-2.8,3c0.3-0.6,0.5-1.2,0.4-1.8
										c0-0.2-0.1-0.4-0.1-0.7C247.5,77.5,249.6,75.4,250,77.2z"/>
									<g>
										<path class="st20" d="M246.6,81.3L246.6,81.3c0.1-0.1,0.2-0.1,0.2-0.1c0.2-0.1,0.4-0.3,0.6-0.5c0.2-0.2,0.4-0.6,0.5-0.9
											c0.1-0.4,0.1-0.8-0.1-1.2c0-0.1-0.1-0.1-0.1-0.2l0,0l0,0l0,0l0,0l0,0l0,0l0,0v-0.1l0.1-0.1c0.1-0.2,0.2-0.3,0.3-0.5
											c0.1-0.2,0.2-0.3,0.4-0.4c0.1-0.1,0.2-0.2,0.4-0.3c0.1-0.1,0.2-0.1,0.4-0.2c0.1,0,0.2,0,0.3,0.1c0.1,0,0.1,0.1,0.1,0.1V77
											c0,0,0,0,0-0.1c0,0,0-0.1-0.1-0.2c-0.1-0.1-0.2-0.1-0.4-0.1c-0.2,0-0.3,0.1-0.5,0.1c-0.2,0.1-0.3,0.2-0.4,0.3
											c-0.1,0.1-0.3,0.3-0.4,0.4c-0.1,0.2-0.3,0.3-0.4,0.5l-0.1,0.1v0.1l-0.1,0.1v0.1c0,0,0,0,0,0.1l0.1,0.1l0.1,0.1
											c0.2,0.4,0.2,0.7,0.2,1.1c0,0.3-0.2,0.6-0.3,0.9c-0.1,0.2-0.3,0.4-0.4,0.5C246.7,81.2,246.7,81.3,246.6,81.3L246.6,81.3z"
											/>
									</g>
								</g>
							</g>
						</g>
					</g>
					<g>
						<path class="st32" d="M225.7,72.6c0,0,2.1-2.8,3.2-1.6c1.1,1.1,0.6,1.2,0.6,1.2L225.7,72.6z"/>
						<path class="st32" d="M241.8,73.1c0,0-3.8-4.3-5.3-2.8c-0.9,0.9-0.3,1.5-0.3,1.5L241.8,73.1z"/>
						<path class="st34" d="M236.8,73.5c0.2,0.5,0.8,0.8,1.2,1c0.2-0.2,0.5-0.4,0.7-0.4c0.7,0,1.3,0.9,1.3,2.2
							c0,1.1-0.6,2.2-1.3,2.2c-0.7,0-1.3-0.9-1.3-2.2c0-0.4,0.1-0.7,0.2-1C237,74.7,236.8,73.5,236.8,73.5z"/>
						<path class="st28" d="M241.3,75c0,0-0.5,0.7-1.2,1c-0.8,0.3-1.6,0.1-1.6,0.1s0.5-0.7,1.2-1C240.5,74.8,241.3,75,241.3,75z"/>
						<path class="st34" d="M227.8,74.6c0.1,0.3,0.5,0.6,0.8,0.7c0.1-0.1,0.3-0.2,0.5-0.2c0.5,0,1,0.7,1,1.6s-0.4,1.6-1,1.6
							c-0.5,0-1-0.7-1-1.6c0-0.3,0.1-0.6,0.2-0.9C228,75.4,227.8,74.6,227.8,74.6z"/>
						<path class="st28" d="M227.3,76c0,0,0.3,0.5,0.9,0.7c0.6,0.2,1.1,0.1,1.1,0.1s-0.3-0.5-0.9-0.7C227.9,75.9,227.3,76,227.3,76z
							"/>
						<g>
							<path class="st19" d="M233.6,81.2c0.3-0.1,0.6-0.3,1-0.3c-0.3,0.8-1,1.4-1.8,1.7c-0.1,0-0.1,0-0.2,0s-0.2,0-0.2-0.1
								c-0.4-0.3-0.8-0.6-1.1-1c-0.1-0.1-0.1-0.2-0.1-0.3c-0.1-0.3,0.1-0.3,0.3-0.2c0.2,0.1,0.5,0.1,0.7,0.2
								C232.7,81.4,233.2,81.3,233.6,81.2z"/>
							<path class="st20" d="M232.8,82.4c-0.2-0.2-0.4-0.3-0.6-0.5c-0.3-0.2-0.5-0.4-0.7-0.7c1.1-0.7,1-1.8,1-3.2
								c0-0.6-0.2-1.1-0.5-1.6c-0.1-0.3-0.3-0.5-0.5-0.7c-0.1-0.1-0.2-0.2-0.3-0.3c-0.1-0.1-0.2-0.1-0.4-0.2
								c0.1,0.1,0.1,0.2,0.2,0.2c0.2,0.2,0.3,0.4,0.4,0.6c0.1,0.2,0.2,0.4,0.3,0.7c0.2,0.5,0.3,1,0.3,1.5c0,0.5-0.1,1-0.2,1.5
								c-0.2,0.5-0.6,1.1-1.1,1.4c0,0,0.7,0.8,0.8,0.9c0.2,0.2,0.4,0.3,0.6,0.5c0.2,0.1,0.5,0.3,0.7,0.3c0.1,0,0.2,0,0.2-0.1
								l-0.1-0.1c0,0,0,0,0-0.1C232.9,82.5,232.8,82.5,232.8,82.4z"/>
						</g>
						<g>
							<path class="st20" d="M234.7,85.8c-0.8,0.4-1.8,0.4-2.7,0.1c0.3,0.4,0.7,0.7,1.2,0.6C233.7,86.5,234.3,86.1,234.7,85.8z"/>
							<path class="st20" d="M237.7,83.5c-2.1,1.5-4.9,2-7.3,1c1.3,0.3,2.7,0.2,4,0C235.5,84.4,236.9,84.1,237.7,83.5z"/>
						</g>
						<path class="st19" d="M229.5,81.6c-0.2,0.5-1.2,0.5-2.3,0.1c-1-0.4-1.7-1.1-1.6-1.5c0.2-0.5,1.2-0.5,2.3-0.1
							C229,80.5,229.7,81.2,229.5,81.6z"/>
						<path class="st19" d="M243,79.4c0.2,0.7-0.9,1.6-2.6,2.1s-3.1,0.2-3.3-0.5c-0.2-0.7,1-1.6,2.6-2.1
							C241.3,78.5,242.8,78.7,243,79.4z"/>
					</g>
					<path class="st34" d="M224.3,76.4c0,1.1,0.4,2.1,1.1,2.8c0.1,0.2,0.3,0.3,0.5,0.4l0,0c0.1,0.1,0.2,0.1,0.3,0.2
						c0.1,0.1,0.3,0.1,0.4,0.2c0.3,0.1,0.6,0.2,0.9,0.3l0,0h0.1c0.2,0,0.3,0,0.5,0c0.1,0,0.1,0,0.2,0c0.1,0,0.2,0,0.3,0
						c1.5-0.1,2.8-1,3.4-2.4c0.1-0.3,0.2-0.5,0.3-0.8c0-0.2,0.1-0.4,0.1-0.6c0.6-0.5,1.5-0.2,1.8,0c0.1,1.8,1.3,3.4,3,4
						c0.5,0.2,0.9,0.3,1.5,0.3c1.5,0,2.9-0.7,3.6-1.8c0.5-0.7,0.8-1.6,0.8-2.6c0-0.3,0-0.6-0.1-0.9l2.4-0.4l1.6-0.3h0.2h0.2h0.3l0,0
						h0.3l0,0h0.1l0.6-0.1h0.1l0,0l-0.1-0.3v-0.2V74l-1.1,0.2l0,0l-0.6,0.1l-4.1,0.7c-0.2-0.6-0.6-1.2-1.1-1.7
						c-0.8-0.7-1.8-1.1-3-1.1c-0.4,0-0.8,0.1-1.2,0.2c-1.6,0.5-3,2-3.2,3.8c-0.5-0.2-1.2-0.3-2,0c-0.3-1.7-1.6-3.2-3.4-3.4
						c-0.2,0-0.3,0-0.5,0c-0.1,0-0.1,0-0.2,0c-0.4,0-0.7,0.1-1.1,0.2c-0.2,0.1-0.4,0.1-0.6,0.2c-0.2,0.1-0.4,0.2-0.5,0.3
						C225,73.7,224.3,74.9,224.3,76.4z M235,76.3c0-2.1,1.6-3.8,3.8-3.8c2.1,0,3.8,1.6,3.8,3.8c0,0.9-0.3,1.7-0.9,2.5
						c-0.7,0.8-1.7,1.3-2.9,1.3c-0.4,0-0.7,0-1-0.1C236.1,79.4,235,78,235,76.3z M225,76.4c0-1,0.4-1.8,1.1-2.5
						c0.2-0.2,0.4-0.3,0.6-0.5c0.5-0.3,1-0.4,1.6-0.4c0.2,0,0.3,0,0.5,0c1.4,0.2,2.7,1.4,2.9,2.9c0,0.1,0,0.3,0,0.4
						c0,0.1,0,0.2,0,0.3c-0.1,1.7-1.6,3.1-3.4,3.1h-0.1c-0.1,0-0.3,0-0.4,0l0,0c0,0,0,0-0.1,0c-0.3-0.1-0.5-0.2-0.8-0.3
						c-0.2-0.1-0.4-0.2-0.5-0.3c-0.1-0.1-0.2-0.2-0.3-0.3c-0.1-0.1-0.1-0.1-0.2-0.2C225.2,77.9,225,77.2,225,76.4z"/>
				</g>
				<path class="st33" d="M225.9,68.2c0,1.4,0.2,2.6,0.2,3.1c0,0.2,0.1,0.3,0.1,0.3c5.1-3.6,5.1-7.8,5-9
					c1.4,7.3,16.8,11.5,16.8,11.5l2.2,0.9c0,0,0.6-0.6,1.1-1.8c0.9-2.1,1.5-5.7-0.7-11c-0.6-1.4-1.4-2.5-2.4-3.3l0,0
					c-4.9-4.3-13.7-1.8-13.7-1.8C226.8,56.2,225.8,63.6,225.9,68.2z"/>
				<path class="st33" d="M243.9,77.6c0.1-0.2,0.1-0.4,0.3-0.7c0.1-0.3,0.3-0.6,0.5-1c0.2-0.4,0.5-0.7,0.9-1.1
					c0.4-0.3,0.8-0.5,1.2-0.7c0.4-0.1,0.8-0.2,1.1-0.3c0.1,0,0.3,0,0.4,0c0.1-0.1,0.2-0.2,0.2-0.2s0,0.1-0.1,0.2c0.1,0,0.2,0,0.2,0
					c0.2,0,0.3,0,0.3,0s-0.3,0.1-0.7,0.3c-0.1,0.2-0.2,0.4-0.4,0.7c-0.4,0.7-1,1.7-1.3,2.8c-0.3,1.1-0.4,2.3-0.5,3.1
					c-0.1,0.4-0.1,0.7-0.1,1c0,0.2-0.1,0.4-0.1,0.4s0-0.1-0.1-0.3c-0.1-0.2-0.1-0.6-0.2-1s-0.1-0.9-0.2-1.5c0-0.6,0-1.2,0.2-1.8
					c0.2-0.6,0.5-1.2,0.8-1.7c0.3-0.4,0.6-0.8,0.9-1.1c-0.4,0.2-0.9,0.5-1.3,0.9c-0.7,0.6-1.2,1.2-1.6,1.7c-0.2,0.2-0.4,0.4-0.5,0.6
					c-0.1,0.1-0.2,0.2-0.2,0.2S243.9,77.8,243.9,77.6z"/>
				<path class="st32" d="M225.9,68.2c0.1,0,0.2-0.1,0.3-0.1c2.5-1.1,4-4.3,4.8-6.5c0.4-1.1,0.6-2.1,0.6-2.1c0,0.4,0.2,0.9,0.5,1.4
					c1.5,2.7,6.2,6.4,6.2,6.4l-0.7-2.2c0,0,1.2,2.1,6,5c2,1.2,4.8,2.2,7.6,2.8c2,0.4,3.8,0.8,5.2,1c-0.3-2-0.7-3.6-1.3-5.1
					c-2.4-6.7-6.6-9.9-7-10.1l0,0c-4.9-4.3-13.7-1.8-13.7-1.8c-0.5,0-1-0.1-1.5,0C226.7,57.3,225.8,63.9,225.9,68.2z"/>
				<path class="st35" d="M233.1,56.9c0.9,1.8,2.7,3.2,4.4,4.4c-0.3-0.5-0.4-1.2-0.4-1.8c2.3,3.3,5.4,5.9,9,7.4
					c-0.4-0.8-0.6-1.8-0.6-2.8c2.3,2.1,4.9,3.5,7.9,4.3c0.5,0.1,1.2,0.4,1.8,0.5c-2.4-6.7-6.6-9.9-7-10.1l0,0
					c-4.9-4.3-13.7-1.8-13.7-1.8C234.1,56.9,233.6,56.9,233.1,56.9z"/>
			</g>
		</g>
	</g>
</g>
<path class="st36" d="M185.4,183.2H54.5v-2.6c0-4.4,3.9-8,8.7-8h113.4c4.8,0,8.7,3.6,8.7,8V183.2z"/>
<g>
	<path class="st37" d="M140,183.2H20.7v-2.6c0-4.4,3.9-8,8.7-8h102c4.8,0,8.7,3.6,8.7,8v2.6H140z"/>
</g>
<g>
	<g>
		<path class="st38" d="M60.2,171.5h40.7c2.7,0,5.7-0.2,4.5-2.5L90,138.4c-1.3-2.5-3.9-4.1-6.8-4.1H45.7c-1.9,0-3.2,1.9-2.4,3.5
			L60.2,171.5z"/>
		<g>
			<g>
				<path class="st39" d="M101.4,172.8h29c1.2,0,2.1-0.9,2.1-1.9l0,0c0-1.1-1-1.9-2.1-1.9h-29c-1.2,0-2.1,0.9-2.1,1.9l0,0
					C99.3,171.9,100.3,172.8,101.4,172.8z"/>
			</g>
			<g>
				<rect x="111.8" y="170.1" class="st40" width="4.2" height="1.2"/>
				<rect x="117.2" y="170.1" class="st40" width="3" height="1.2"/>
			</g>
		</g>
		<path class="st41" d="M61.4,172.7h40.8c1.5,0,2.5-1.4,1.8-2.7l-15.3-30.4c-1.3-2.5-3.9-4.1-6.8-4.1H44.4c-1.9,0-3.2,1.9-2.4,3.5
			L58,170.6C58.5,171.9,59.9,172.7,61.4,172.7z"/>
	</g>
	<path class="st5" d="M70.3,156.3c1,2.1,2.8,3.4,4.1,2.9c1.3-0.5,1.5-2.6,0.5-4.7s-2.8-3.4-4.1-2.9
		C69.7,152.1,69.4,154.2,70.3,156.3z"/>
</g>
<g>
	<g>
		<g>
			<g>
				<path class="st14" d="M137.3,156.3v16.4h14.7v-16.4c0-0.8-0.6-1.3-1.4-1.3h-11.9C138,155,137.3,155.6,137.3,156.3z"/>
				<g>
					<path class="st14" d="M151.6,169c0.2-0.1,4.7-2.6,5.2-6.9c0.1-1.6-0.5-2.7-1.1-3.2c-1.6-1.6-4.3-1.5-4.6-1.5l0.1,2
						c0.5,0,2.1,0.1,3,0.9c0.4,0.4,0.5,1,0.5,1.6c-0.3,3.3-4,5.3-4.1,5.4L151.6,169z"/>
				</g>
			</g>
		</g>
	</g>
	<path class="st5" d="M139,157v5c0,0.9,1.5,0.9,1.5,0v-5C140.5,156,139,156,139,157z"/>
	<path class="st5" d="M139.5,163.7c-0.4,0-0.8,0.3-0.8,0.6v1c0,0.3,0.3,0.8,0.8,0.6c0.4,0,0.8-0.3,0.8-0.6v-1
		C140.2,164,139.9,163.7,139.5,163.7z"/>
</g>
</svg>
