<?xml version="1.0" encoding="utf-8"?>
<!-- Generator: Adobe Illustrator 25.1.0, SVG Export Plug-In . SVG Version: 6.00 Build 0)  -->
<svg version="1.1" id="OBJECTS" xmlns="http://www.w3.org/2000/svg" xmlns:xlink="http://www.w3.org/1999/xlink" x="0px" y="0px"
	 viewBox="0 0 300 265" style="enable-background:new 0 0 300 265;" xml:space="preserve">
<g>
	<path style="fill:#28201E;" d="M18.7,200.56v-8.79H7.72v-6.6H18.7v-6.96c-5.35-0.74-9.81-3.18-13.36-7.32
		C1.78,166.75,0,161.93,0,156.43c0-6.04,2.15-11.2,6.45-15.48c4.3-4.28,9.48-6.43,15.55-6.43c6.1,0,11.3,2.14,15.59,6.43
		c4.3,4.28,6.45,9.44,6.45,15.48c0,5.5-1.78,10.32-5.35,14.46c-3.57,4.13-8.03,6.57-13.39,7.32v6.96h11.02v6.6H25.3v8.79H18.7z
		 M22,171.91c4.25,0,7.89-1.52,10.91-4.57c3.02-3.05,4.53-6.71,4.53-11c0-4.19-1.51-7.78-4.53-10.75
		c-3.02-2.97-6.66-4.46-10.91-4.46c-4.22,0-7.85,1.49-10.86,4.46c-3.02,2.98-4.53,6.56-4.53,10.75c0,4.28,1.51,7.95,4.53,11
		C14.15,170.39,17.77,171.91,22,171.91z"/>
	<path style="fill:#28201E;" d="M286,142.42l-13.31,1.29l-0.71-7.12l25.58-2.43l2.44,25.77l-7.02,0.67l-1.31-13.99l-12.59,14.79
		c4.91,6.19,6.74,12.76,5.5,19.71c-1.15,6.42-4.39,11.49-9.74,15.2c-5.34,3.71-11.24,4.99-17.7,3.83
		c-6.3-1.13-11.28-4.35-14.95-9.67c-3.67-5.32-4.93-11.16-3.79-17.52c1.15-6.45,4.41-11.5,9.78-15.14
		c5.36-3.64,11.35-4.87,17.96-3.69c2.34,0.42,4.89,1.34,7.66,2.77L286,142.42z M245.37,173.96c-0.81,4.55,0.08,8.71,2.67,12.47
		c2.59,3.76,6.13,6.04,10.62,6.85c4.4,0.79,8.46-0.12,12.19-2.72c3.73-2.6,5.99-6.11,6.78-10.54c0.81-4.52-0.07-8.63-2.65-12.32
		c-2.57-3.69-6.14-5.95-10.69-6.76c-4.4-0.79-8.46,0.11-12.18,2.67C248.39,166.17,246.14,169.63,245.37,173.96z"/>
</g>
<g>
	<g>
		<g>
			<path style="fill:#6F6F6F;" d="M111.27,205.82H10.28c-0.43,0-0.83-0.22-1.07-0.57c-0.24-0.36-0.28-0.81-0.11-1.21L59.6,85.88
				c0.2-0.47,0.66-0.77,1.17-0.77c0.51,0,0.97,0.3,1.17,0.77l50.49,118.16c0.17,0.39,0.13,0.85-0.11,1.21
				C112.1,205.6,111.7,205.82,111.27,205.82z M12.22,203.27h97.12L60.78,89.63L12.22,203.27z"/>
		</g>
		<g>
			<path style="fill:#6F6F6F;" d="M289.67,205.82H188.68c-0.43,0-0.83-0.22-1.07-0.57c-0.24-0.36-0.28-0.81-0.11-1.21L238,85.88
				c0.2-0.47,0.66-0.77,1.17-0.77c0.51,0,0.97,0.3,1.17,0.77l50.49,118.16c0.17,0.39,0.13,0.85-0.11,1.21
				C290.5,205.6,290.1,205.82,289.67,205.82z M190.61,203.27h97.12L239.17,89.63L190.61,203.27z"/>
		</g>
		<rect x="147.77" y="86.38" style="fill:#E2AF8D;" width="4.42" height="172.63"/>
		
			<rect x="147.77" y="-2.82" transform="matrix(-1.836970e-16 1 -1 -1.836970e-16 236.357 -63.5947)" style="fill:#E2AF8D;" width="4.42" height="178.4"/>
		<path style="fill:#FCBBA7;" d="M149.98,92.86L149.98,92.86c3.56,0,6.48-2.91,6.48-6.48l0,0c0-3.56-2.91-6.48-6.48-6.48l0,0
			c-3.56,0-6.48,2.91-6.48,6.48l0,0C143.5,89.94,146.41,92.86,149.98,92.86z"/>
		<path style="fill:#EFC4AC;" d="M8.07,204.54c0,0,7.78,32.53,52.71,32.53s52.71-32.53,52.71-32.53H8.07z"/>
		<path style="fill:#EFC4AC;" d="M186.46,204.54c0,0,7.78,32.53,52.71,32.53s52.71-32.53,52.71-32.53H186.46z"/>
		<path style="fill:#FCBBA7;" d="M187.7,261.03c0,0-5.57-25.32-37.72-25.32s-37.72,25.32-37.72,25.32H187.7z"/>
		<rect x="110.07" y="257.05" style="fill:#E2AF8D;" width="79.82" height="7.95"/>
		<rect x="107.41" y="261.03" style="fill:#E2AF8D;" width="85.13" height="3.97"/>
		
			<line style="fill:none;stroke:#222221;stroke-width:0.8;stroke-linecap:round;stroke-linejoin:round;stroke-miterlimit:10;" x1="110.07" y1="261.03" x2="189.88" y2="261.03"/>
		<rect x="7.35" y="200.46" style="fill:#E2AF8D;" width="106.86" height="4.42"/>
		<rect x="185.74" y="200.46" style="fill:#E2AF8D;" width="106.86" height="4.42"/>
		<circle style="fill:#E2AF8D;" cx="60.78" cy="86.38" r="4.93"/>
		<circle style="fill:#E2AF8D;" cx="239.17" cy="86.38" r="4.93"/>
		
			<rect x="120.36" y="135.45" transform="matrix(0.7071 0.7071 -0.7071 0.7071 160.6429 -57.7036)" style="fill:#FCBBA7;" width="59.22" height="59.22"/>
		<g>
			<path style="fill:#28201E;" d="M134.64,155.87h30.67v7.86h-30.67V155.87z M134.64,168.94h30.67v7.86h-30.67V168.94z"/>
		</g>
		
			<rect x="123.43" y="138.51" transform="matrix(0.7071 0.7071 -0.7071 0.7071 160.6429 -57.7036)" style="fill:none;stroke:#222221;stroke-width:0.8;stroke-linecap:round;stroke-linejoin:round;stroke-miterlimit:10;" width="53.1" height="53.1"/>
		
			<circle style="fill:none;stroke:#222221;stroke-width:0.8;stroke-linecap:round;stroke-linejoin:round;stroke-miterlimit:10;" cx="60.78" cy="86.38" r="3.4"/>
		
			<circle style="fill:none;stroke:#222221;stroke-width:0.8;stroke-linecap:round;stroke-linejoin:round;stroke-miterlimit:10;" cx="239.17" cy="86.38" r="3.4"/>
		
			<ellipse transform="matrix(0.9732 -0.2298 0.2298 0.9732 -15.8343 36.768)" style="fill:none;stroke:#222221;stroke-width:0.8;stroke-linecap:round;stroke-linejoin:round;stroke-miterlimit:10;" cx="149.98" cy="86.38" rx="3.62" ry="3.62"/>
		
			<ellipse transform="matrix(0.9732 -0.2298 0.2298 0.9732 -15.8343 36.768)" style="fill:none;stroke:#222221;stroke-width:0.8;stroke-linecap:round;stroke-linejoin:round;stroke-miterlimit:10;" cx="149.98" cy="86.38" rx="3.62" ry="3.62"/>
		
			<line style="fill:none;stroke:#222221;stroke-width:0.8;stroke-linecap:round;stroke-linejoin:round;stroke-miterlimit:10;" x1="7.35" y1="202.66" x2="114.21" y2="202.66"/>
		
			<line style="fill:none;stroke:#222221;stroke-width:0.8;stroke-linecap:round;stroke-linejoin:round;stroke-miterlimit:10;" x1="185.74" y1="202.66" x2="292.6" y2="202.66"/>
	</g>
	<g>
		<path style="fill:#F19183;" d="M271.64,196.65c0,0,8.59,1,12.28,3.82c-11.07,0-15.16,0-15.16,0s-0.46-2.26-0.46-3.47
			L271.64,196.65z"/>
		<path style="fill:#272525;" d="M232.79,229.86c0,0-1.72,4.24-3.16,7.38c-1.44,3.14-3.99,5.85-2.71,6.7
			c1.27,0.85,6.11,1.44,7.55-0.68c1.44-2.12,2.63-6.98,3.78-8.38c2.29-2.81-0.39-6.55-0.39-6.55L232.79,229.86z"/>
		<path style="fill:#F19183;" d="M213.62,196.65c0,0-8.59,1-12.28,3.82c11.07,0,15.16,0,15.16,0s0.46-2.26,0.46-3.47L213.62,196.65z
			"/>
		<path style="fill:#F19183;" d="M237.29,144.39c0,0-10.15-1.7-14.03,0c-5.56,2.43-4.42,26.83-4.42,26.83l-8.96,26.5h6.65
			c0,0,6.41-14.96,8.2-21.68C226.74,168.5,237.29,144.39,237.29,144.39z"/>
		<path style="fill:#F19183;" d="M241.09,144.39c0,0,10.15-1.7,14.03,0c5.56,2.43,8.74,26.83,8.74,26.83l11.12,26.5h-6.65
			c0,0-7.93-15.01-11.99-21.68C252.31,169.37,241.09,144.39,241.09,144.39z"/>
		<path d="M244.78,121.03c-2.58-2.14-4.92-0.81-4.92-0.81s-2.34-1.33-4.92,0.81c-2.58,2.14-4.95,5.8-3.66,8.66
			c1.29,2.86,0.08,4.66,0.08,4.66s0.81,0.51,2.54-0.56c1.66,3.46,5.96,3.76,5.96,3.76s4.31-0.3,5.96-3.76
			c1.73,1.07,2.54,0.56,2.54,0.56s-1.21-1.8,0.08-4.66C249.73,126.82,247.36,123.17,244.78,121.03z"/>
		<path style="fill:#EF786C;" d="M231.14,131.57c0,0-0.47,4.26,1.78,4.26s1.63-6.18-0.52-6.18
			C231.04,129.64,231.14,131.57,231.14,131.57z"/>
		<path style="fill:#EF786C;" d="M248.59,131.57c0,0,0.47,4.26-1.78,4.26s-1.63-6.18,0.52-6.18
			C248.68,129.64,248.59,131.57,248.59,131.57z"/>
		<path style="fill:#33A457;" d="M250.4,147.49c-3.94-4.68-11.42-3.79-11.42-3.79s-7.48-0.89-11.42,3.79
			c-3.94,4.68-1.84,23.77-1.84,23.77l-3.7,12.59l16.95,2.22h13.58l-1.01-8.91c-0.38-3.38-0.37-6.78,0.05-10.15
			C252.34,160.95,253.11,150.71,250.4,147.49z"/>
		<g>
			<path style="fill:#F19183;" d="M246.85,191.11C246.82,190.88,246.89,191.34,246.85,191.11L246.85,191.11z"/>
			<path style="fill:#0E6BFF;" d="M233.2,181.19c1.41,0,2.88,0.13,4.33,0.43c13.27,2.7,10.47,18.84-4.6,18.84H221.5
				c-8.15-1.25-17.62-3.38-18.04-9.27C203.06,185.58,209.49,181.23,233.2,181.19z"/>
		</g>
		<g>
			<path style="fill:#0E6BFF;" d="M233.63,181.19c-1.19,0.15-2.41,0.44-3.61,0.88c-10.97,4.09-3.81,19.46,7.42,16.2
				c2.14-0.62,4.26-1.45,6.23-2.06c6.77-2.11,18.25-0.91,18.1-10.88C261.68,179.72,253.62,178.71,233.63,181.19z"/>
			<path style="fill:#F19183;" d="M224.58,190.72C224.59,190.48,224.57,190.94,224.58,190.72L224.58,190.72z"/>
		</g>
		<path style="fill:#0E6BFF;" d="M258.76,200.3c0,0-57.08,3.4-55.33-10.45c1.75-13.85,55.35,5.57,55.35,5.57L258.76,200.3z"/>
		<path style="fill:#F19183;" d="M239.85,150.04h0.03c2.52,0,4.57-2.04,4.57-4.57v-6.55h-9.17v6.55
			C235.28,148,237.33,150.04,239.85,150.04z"/>
		<path style="fill:#28201E;" d="M235.6,140.67l8.84-0.88v3.14C244.45,142.93,238.67,143.68,235.6,140.67z"/>
		<path style="fill:#F19183;" d="M239.84,142.21h0.05c3.94,0,7.16-3.22,7.16-7.16v-6.31c0-3.94-3.22-7.16-7.16-7.16h-0.05
			c-3.94,0-7.16,3.22-7.16,7.16v6.31C232.68,138.99,235.9,142.21,239.84,142.21z"/>
		<path style="fill:#272525;" d="M256.95,201.43c0,0,4.56-0.37,8.01-0.49c3.45-0.12,7.02,0.93,7.21-0.59s-1.46-6.1-4-6.44
			c-2.54-0.34-7.42,0.78-9.19,0.39c-3.54-0.79-5.68,3.29-5.68,3.29L256.95,201.43z"/>
		<path style="fill:#0E6BFF;" d="M230.92,230.98c0,0,15.49-55.2,28.17-49.36c12.68,5.83-18.09,50.37-18.09,50.37L230.92,230.98z"/>
		<g>
			<circle style="fill:#28201E;" cx="236.18" cy="131.66" r="0.8"/>
			<circle style="fill:#28201E;" cx="244.22" cy="131.66" r="0.8"/>
			<path style="fill:none;stroke:#222221;stroke-width:0.8;stroke-linecap:round;stroke-linejoin:round;stroke-miterlimit:10;" d="
				M238.38,136.31c0,0,1.05,0.64,2.97,0.19"/>
			<path style="fill:#28201E;" d="M233.96,130.38c0,0,1.99-1.49,4.07-0.54c0-0.73,0-0.73,0-0.73S235.28,127.53,233.96,130.38z"/>
			<path style="fill:#28201E;" d="M245.73,130.38c0,0-2.01-1.49-4.11-0.54c0-0.73,0-0.73,0-0.73S244.05,127.32,245.73,130.38z"/>
			<path style="fill:none;stroke:#222221;stroke-width:0.8;stroke-linecap:round;stroke-linejoin:round;stroke-miterlimit:10;" d="
				M234,131.4c0,0,1.54-1.22,3.78-0.25"/>
			<path style="fill:none;stroke:#222221;stroke-width:0.8;stroke-linecap:round;stroke-linejoin:round;stroke-miterlimit:10;" d="
				M241.99,131.4c0,0,1.54-1.22,3.78-0.25"/>
			<path style="fill:none;stroke:#222221;stroke-width:0.8;stroke-linecap:round;stroke-linejoin:round;stroke-miterlimit:10;" d="
				M239.94,129.88c0,0-1.14,2.19-1.49,3.79c-0.35,1.6,1.32,1.34,1.32,1.34"/>
		</g>
		<path d="M232.28,127.92c0,0,4.15-0.81,5.5-4.8c-0.1,2.14-2.5,4.28-2.5,4.28s5.21,0.9,5.81-4.28c2.96,3.94,6.77,4.8,6.77,4.8
			s-1.49-7.49-8-7.49C233.35,120.43,232.36,125.91,232.28,127.92z"/>
		<path d="M233.48,127.02c0,0,0.2,4.91-0.76,7.32c-1.13-4.36-0.7-7.32-0.7-7.32H233.48z"/>
		<path d="M246.28,127.02c0,0-0.2,4.91,0.76,7.32c1.13-4.36,0.7-7.32,0.7-7.32H246.28z"/>
		<path style="fill:#33A457;" d="M235.28,143.63c0,0-7.89-1.05-12.85,0.39c-4.95,1.44-5.81,15.64-5.81,15.64
			c2.89,1.34,6.87,2.27,9.78,0.93L235.28,143.63z"/>
		<path style="fill:#33A457;" d="M244.45,143.95l5.69,16.65c0,0,6.03,0.72,12.63-2.08c-3.44-11.05-5.31-14.43-8.68-15.25
			C250.71,142.44,244.45,143.95,244.45,143.95z"/>
		<path style="fill:none;stroke:#222221;stroke-width:0.8;stroke-linecap:round;stroke-linejoin:round;stroke-miterlimit:10;" d="
			M224.59,153.19l1.28,0.97c0,0-0.89,5.4-0.64,9.88c0.25,4.48,0.5,7.22,0.5,7.22l-3.02,10.29"/>
		<path style="fill:none;stroke:#222221;stroke-width:0.8;stroke-linecap:round;stroke-linejoin:round;stroke-miterlimit:10;" d="
			M254.4,153.19l-1.84,1.11c0,0-0.12,4.68-0.56,8.84c-0.44,4.15-0.69,11.9-0.69,11.9l0.56,4.91"/>
		<path style="fill:none;stroke:#222221;stroke-width:0.8;stroke-linecap:round;stroke-linejoin:round;stroke-miterlimit:10;" d="
			M216.62,159.67c0,0,2.8,2.1,8.47,1.37"/>
		<path style="fill:none;stroke:#222221;stroke-width:0.8;stroke-linecap:round;stroke-linejoin:round;stroke-miterlimit:10;" d="
			M262.76,158.52c0,0-4.81,2.26-10.58,2.16"/>
		<path style="fill:none;stroke:#222221;stroke-width:0.8;stroke-linecap:round;stroke-linejoin:round;stroke-miterlimit:10;" d="
			M235.28,143.63c0,0-0.95,6.41,4.58,6.41s4.58-6.16,4.58-6.16"/>
		<path style="fill:none;stroke:#222221;stroke-width:0.8;stroke-linecap:round;stroke-linejoin:round;stroke-miterlimit:10;" d="
			M241.74,200.67c0,0,2.46-6.86,5.55-13.11"/>
		<path style="fill:none;stroke:#222221;stroke-width:0.8;stroke-linecap:round;stroke-linejoin:round;stroke-miterlimit:10;" d="
			M216.23,184.95c0,0,11.47,1.2,29.54,5.83"/>
		
			<polygon style="fill:none;stroke:#222221;stroke-width:0.8;stroke-linecap:round;stroke-linejoin:round;stroke-miterlimit:10;" points="
			242.07,159.6 248.53,159.6 248.53,165.64 245.3,167.37 242.07,165.55 		"/>
		<path style="fill:none;stroke:#222221;stroke-width:0.8;stroke-linecap:round;stroke-linejoin:round;stroke-miterlimit:10;" d="
			M239.86,120.21c0,0,1.02,1.01,1.23,2.91"/>
		
			<line style="fill:none;stroke:#222221;stroke-width:0.8;stroke-linecap:round;stroke-linejoin:round;stroke-miterlimit:10;" x1="230.92" y1="230.98" x2="241.01" y2="231.98"/>
		<path style="fill:none;stroke:#222221;stroke-width:0.8;stroke-linecap:round;stroke-linejoin:round;stroke-miterlimit:10;" d="
			M231.94,129.73c0,0,0.55-0.48,0.93-1.44"/>
		<path style="fill:none;stroke:#222221;stroke-width:0.8;stroke-linecap:round;stroke-linejoin:round;stroke-miterlimit:10;" d="
			M246.9,127.71c0,0,0.26,1.31,0.89,2.03"/>
		<path style="fill:none;stroke:#222221;stroke-width:0.8;stroke-linecap:round;stroke-linejoin:round;stroke-miterlimit:10;" d="
			M234.93,124.18c0,0-0.86,1.5-2.06,2.05"/>
		<path style="fill:none;stroke:#222221;stroke-width:0.8;stroke-linecap:round;stroke-linejoin:round;stroke-miterlimit:10;" d="
			M233.9,124.41c0,0-0.52,0.87-1.22,1.14"/>
		<ellipse style="fill:#EF786C;" cx="234.35" cy="132.88" rx="0.94" ry="0.73"/>
		<path style="fill:#EF786C;" d="M244.59,132.88c0,0.4,0.42,0.73,0.94,0.73c0.52,0,0.94-0.33,0.94-0.73c0-0.4-0.42-0.73-0.94-0.73
			C245.01,132.15,244.59,132.47,244.59,132.88z"/>
	</g>
	<g>
		<path d="M62.24,148.46c-4.27,0-9.28-0.86-9.28-0.86s-5.11,2.83-7.99,0.15c4.52-2.14-0.15-4.69-0.35-8.75
			c-0.18-3.49,3.69-4.3,4.2-7.28c0.51-2.98,3.23-4.49,3.23-4.49s-1.66-0.01-2.22-1.73c3.51,0.11,3.79-3.74,7.08-4.9
			c3.29-1.16,5.71,0.91,5.71,0.91s2.69-3.08,6.27-0.71c3.94,2.61,2.22,6.47,2.22,6.47s3.49,1.72,3.19,4.9
			c-0.3,3.19,0.1,3.99,1.26,6.47c1.16,2.48,0.05,4.6-2.17,5.51c-2.17,0.91-0.46,3.59-0.46,3.59S70.31,150.53,62.24,148.46z"/>
		<path style="fill:none;stroke:#222221;stroke-width:0.8;stroke-linecap:round;stroke-linejoin:round;stroke-miterlimit:10;" d="
			M51.44,137.89c0,0-2.46,2.29-1.16,4.7c1.29,2.41,0.26,3.99,0.26,3.99"/>
		<path style="fill:none;stroke:#222221;stroke-width:0.8;stroke-linecap:round;stroke-linejoin:round;stroke-miterlimit:10;" d="
			M51.44,142.94c0,0,1.21,1.38,0.43,3.28"/>
		<path style="fill:none;stroke:#222221;stroke-width:0.8;stroke-linecap:round;stroke-linejoin:round;stroke-miterlimit:10;" d="
			M71.27,142.59c0,0-2.72,2.41-0.65,4.79"/>
		<path style="fill:#272525;" d="M57.15,233.49c0,0-1.72,4.24-3.16,7.38c-1.44,3.14-3.99,5.85-2.71,6.7
			c1.27,0.85,6.11,1.44,7.55-0.68c1.44-2.12,2.63-6.98,3.78-8.38c2.29-2.81-0.39-6.55-0.39-6.55L57.15,233.49z"/>
		<path style="fill:#272525;" d="M87.94,215.14c0,0,3.47,2.98,6.19,5.11c2.72,2.13,6.23,3.38,5.48,4.71
			c-0.74,1.34-4.77,4.08-7.02,2.86c-2.25-1.22-5.54-5-7.2-5.72c-3.33-1.44-2.66-6-2.66-6L87.94,215.14z"/>
		<path style="fill:#F19183;" d="M63.7,146.65c0,0,5.06-0.62,8.93,1.12c3.89,1.75,7.07,27.71,7.07,27.71l15.44,24.97h-4.55
			c0,0-11.87-13.86-15.92-20.53C70.6,173.26,63.7,146.65,63.7,146.65z"/>
		<path style="fill:#F19183;" d="M92.78,197.41c0,0,6.86,0.8,9.81,3.05c-8.84,0-12.11,0-12.11,0s-0.37-1.8-0.37-2.77L92.78,197.41z"
			/>
		<path style="fill:#F19183;" d="M61.07,146.65c0,0-6.84-1.76-10.73-0.07c-5.56,2.43-9.58,27.38-9.58,27.38l-11.12,26.5h4.55
			c0,0,8.64-15.38,12.69-22.05S61.07,146.65,61.07,146.65z"/>
		<rect x="57.65" y="141.26" style="fill:#F19183;" width="9.17" height="9.17"/>
		<path style="fill:#EF786C;" d="M53.55,133.47c0,0-0.47,4.26,1.78,4.26s1.63-6.18-0.52-6.18
			C53.46,131.54,53.55,133.47,53.55,133.47z"/>
		<path style="fill:#EF786C;" d="M71,133.47c0,0,0.47,4.26-1.78,4.26c-2.25,0-1.63-6.18,0.52-6.18C71.09,131.54,71,133.47,71,133.47
			z"/>
		<path style="fill:#28201E;" d="M58.83,142.72l7.99-0.8v2.84C66.82,144.76,61.6,145.44,58.83,142.72z"/>
		<path style="fill:#F19183;" d="M62.24,143.59L62.24,143.59c3.95,0,7.18-3.23,7.18-7.18v-4.15c0-3.95-3.23-7.18-7.18-7.18l0,0
			c-3.95,0-7.18,3.23-7.18,7.18v4.15C55.06,140.36,58.29,143.59,62.24,143.59z"/>
		<path style="fill:#F19183;" d="M32.77,197.41c0,0-6.86,0.8-9.81,3.05c8.84,0,12.11,0,12.11,0s0.37-1.8,0.37-2.77L32.77,197.41z"/>
		<g>
			<g>
				<path style="fill:#F19183;" d="M71.43,172.16c1.26-4.91,4.25-18.07,1.06-21.79c-3.94-4.6-11.42-3.72-11.42-3.72
					s-7.48-0.88-11.42,3.72c-3.25,3.79-0.09,17.36,1.13,22.05C54.84,173.19,62.86,174.16,71.43,172.16z"/>
				<path style="fill:#37BD9C;" d="M71.5,176.19l-0.57-2.16c0,0,0.2-0.71,0.5-1.87c-8.57,2.01-16.6,1.03-20.65,0.26
					c0.26,1.01,0.44,1.61,0.44,1.61c-2.83,2.87-7.13,9.16-7.96,14.6l0.01,0c-1.02,5.4,2.98,11.75,9.03,11.83c0,0-0.01-0.02,0,0
					l5.16,0c-2.61,14.27-1.65,33.47-1.65,33.47l8.01,0.07c0,0,7.73-20.23,9-34.63c4.25,9.5,9.2,18.3,9.2,18.3l6.99-2.81
					C89.02,214.86,83.14,178.71,71.5,176.19z"/>
			</g>
		</g>
		<path style="fill:#CE3F92;" d="M57.65,146.03c0,0,0.01,4.39,4.58,4.39c4.57,0,4.58-3.89,4.58-3.89s5.55-0.26,7.09,1.41
			c1.93,2.09,6.85,14.97,6.85,14.97s-2.17,2.68-6.62,3.08c-0.86,6.07-3.21,8.03-3.21,8.03s-7.85,3.78-19.71,0
			c-1.53-1.01-2.56-8.03-2.56-8.03s-5.4-0.51-8.29-3.69c3.39-9.15,6.47-16.15,10.32-16.47C54.52,145.52,57.65,146.03,57.65,146.03z"
			/>
		<path d="M51.44,135.41c0,0,4.15-1.16,5.51-4.9c1.37-3.74,3.8-2.12,5.29-5.11c3.51,6.37,10.03,5.61,11.9,2.78
			c-1.97-0.1-1.93-3.48-4.96-5.76C66.15,120.14,57.91,119.18,51.44,135.41z"/>
		<g>
			<path style="fill:none;stroke:#222221;stroke-width:0.8;stroke-linecap:round;stroke-linejoin:round;stroke-miterlimit:10;" d="
				M62.24,131.79l0.54,3.81c0,0,1.25,0.05,1.05,0.7c-0.2,0.65-1.17,0.57-1.17,0.57"/>
			<circle style="fill:#28201E;" cx="57.95" cy="133.53" r="0.8"/>
			<circle style="fill:#28201E;" cx="65.98" cy="133.53" r="0.8"/>
			<path style="fill:#FF571C;" d="M60.92,139.02c0,0,0.45-1.12,1.32-0.71c0.79-0.48,1.08,0.82,1.08,0.82s-0.19,0.98-1.21,0.98
				C61.06,140.12,60.92,139.02,60.92,139.02z"/>
			<path style="fill:none;stroke:#222221;stroke-width:0.8;stroke-linecap:round;stroke-linejoin:round;stroke-miterlimit:10;" d="
				M60.62,138.89c0,0,1.05,0.64,2.97,0.19"/>
			<path style="fill:#28201E;" d="M56.8,132.25c0,0,1.99-1.49,4.07-0.54c0-0.73,0-0.73,0-0.73S58.23,130.18,56.8,132.25z"/>
			<path style="fill:#28201E;" d="M68.57,132.25c0,0-2.01-1.49-4.11-0.54c0-0.73,0-0.73,0-0.73S67.12,130.18,68.57,132.25z"/>
			<path style="fill:none;stroke:#222221;stroke-width:0.8;stroke-linecap:round;stroke-linejoin:round;stroke-miterlimit:10;" d="
				M56.84,133.27c0,0,1.54-1.22,3.78-0.25"/>
			<path style="fill:none;stroke:#222221;stroke-width:0.8;stroke-linecap:round;stroke-linejoin:round;stroke-miterlimit:10;" d="
				M64.83,133.27c0,0,1.54-1.22,3.78-0.25"/>
		</g>
		<path style="fill:none;stroke:#222221;stroke-width:0.8;stroke-linecap:round;stroke-linejoin:round;stroke-miterlimit:10;" d="
			M57.65,146.03c0,0,0,4.39,4.58,4.39s4.58-3.89,4.58-3.89"/>
		
			<line style="fill:none;stroke:#222221;stroke-width:0.8;stroke-linecap:round;stroke-linejoin:round;stroke-miterlimit:10;" x1="62.24" y1="153.61" x2="62.24" y2="150.43"/>
		<path style="fill:none;stroke:#222221;stroke-width:0.8;stroke-linecap:round;stroke-linejoin:round;stroke-miterlimit:10;" d="
			M63.04,152.36c0,0.3,0.25,0.55,0.55,0.55c0.3,0,0.55-0.25,0.55-0.55c0-0.3-0.25-0.55-0.55-0.55
			C63.29,151.81,63.04,152.05,63.04,152.36z"/>
		<path style="fill:none;stroke:#222221;stroke-width:0.8;stroke-linecap:round;stroke-linejoin:round;stroke-miterlimit:10;" d="
			M48.66,152.91l1.13,1.09c0,0-3.58,11.96,1.43,20.03c0,0,10.24,3.93,19.71,0c4.78-5.46,3.21-19,3.21-19l1.24-1.04"/>
		<path style="fill:none;stroke:#222221;stroke-width:0.8;stroke-linecap:round;stroke-linejoin:round;stroke-miterlimit:10;" d="
			M40.36,162.31c0,0,2.8,3.15,8.29,3.69"/>
		<path style="fill:none;stroke:#222221;stroke-width:0.8;stroke-linecap:round;stroke-linejoin:round;stroke-miterlimit:10;" d="
			M80.77,162.92c0,0-2.84,2.81-6.62,3.08"/>
		<path style="fill:none;stroke:#222221;stroke-width:0.8;stroke-linecap:round;stroke-linejoin:round;stroke-miterlimit:10;" d="
			M62.61,121.5c0,0-0.53,1.82-0.37,3.89"/>
		<path style="fill:none;stroke:#222221;stroke-width:0.8;stroke-linecap:round;stroke-linejoin:round;stroke-miterlimit:10;" d="
			M71.43,175.92c0,0-9.98,0.29-22.02,6.03"/>
		<path style="fill:none;stroke:#222221;stroke-width:0.8;stroke-linecap:round;stroke-linejoin:round;stroke-miterlimit:10;" d="
			M72.86,198.93c0,0,1.55-11.16-4.22-12.85c-5.77-1.69-9.86,3.35-11.19,14.35"/>
		
			<line style="fill:none;stroke:#222221;stroke-width:0.8;stroke-linecap:round;stroke-linejoin:round;stroke-miterlimit:10;" x1="55.81" y1="233.93" x2="63.82" y2="234"/>
		
			<line style="fill:none;stroke:#222221;stroke-width:0.8;stroke-linecap:round;stroke-linejoin:round;stroke-miterlimit:10;" x1="82.03" y1="217.67" x2="89.02" y2="214.86"/>
		<path style="fill:none;stroke:#222221;stroke-width:0.8;stroke-linecap:round;stroke-linejoin:round;stroke-miterlimit:10;" d="
			M52.32,127.19c0,0,2.11-0.35,3.96-2.33"/>
		<path style="fill:none;stroke:#222221;stroke-width:0.8;stroke-linecap:round;stroke-linejoin:round;stroke-miterlimit:10;" d="
			M54.05,127.41c0,0,1.31-0.48,2.36-1.38"/>
		<path style="fill:none;stroke:#222221;stroke-width:0.8;stroke-linecap:round;stroke-linejoin:round;stroke-miterlimit:10;" d="
			M69.68,130.28c0,0,1.88,0.26,3.43-1.05"/>
		<path style="fill:none;stroke:#222221;stroke-width:0.8;stroke-linecap:round;stroke-linejoin:round;stroke-miterlimit:10;" d="
			M70.69,130.83c0,0,0.66,0.26,1.79-0.53"/>
		<path style="fill:#EF786C;" d="M55.51,135.18c0,0.4,0.43,0.73,0.97,0.73c0.53,0,0.97-0.33,0.97-0.73c0-0.4-0.43-0.73-0.97-0.73
			C55.95,134.44,55.51,134.77,55.51,135.18z"/>
		<ellipse style="fill:#EF786C;" cx="68" cy="135.18" rx="0.97" ry="0.73"/>
	</g>
	
		<line style="fill:none;stroke:#222221;stroke-width:0.8;stroke-linecap:round;stroke-linejoin:round;stroke-miterlimit:10;" x1="55.85" y1="265" x2="244.11" y2="265"/>
</g>
</svg>
