<?xml version="1.0" encoding="utf-8"?>
<!-- Generator: Adobe Illustrator 25.1.0, SVG Export Plug-In . SVG Version: 6.00 Build 0)  -->
<svg version="1.1" id="Layer_1" xmlns="http://www.w3.org/2000/svg" xmlns:xlink="http://www.w3.org/1999/xlink" x="0px" y="0px"
	 viewBox="0 0 300 265" style="enable-background:new 0 0 300 265;" xml:space="preserve">
<style type="text/css">
	.st0{fill:none;}
	.st1{fill:#BCCEDD;}
	.st2{fill:#767769;}
	.st3{fill:#FFFFFF;}
	.st4{fill:#606060;}
	.st5{enable-background:new    ;}
	.st6{fill:#1C1E29;}
	.st7{fill:#383C48;}
	.st8{fill:#292B37;}
	.st9{fill:#2B3336;}
	.st10{clip-path:url(#SVGID_4_);enable-background:new    ;}
	.st11{clip-path:url(#SVGID_8_);enable-background:new    ;}
	.st12{fill:#353F43;}
	.st13{clip-path:url(#SVGID_12_);enable-background:new    ;}
	.st14{clip-path:url(#SVGID_16_);enable-background:new    ;}
	.st15{clip-path:url(#SVGID_18_);enable-background:new    ;}
	.st16{clip-path:url(#SVGID_20_);enable-background:new    ;}
	.st17{clip-path:url(#SVGID_22_);enable-background:new    ;}
	.st18{clip-path:url(#SVGID_24_);enable-background:new    ;}
	.st19{fill:#2B2E31;}
	.st20{fill:#1E2022;}
	.st21{fill:#4E5464;}
	.st22{fill:#358683;}
	.st23{fill:#D69200;}
	.st24{fill:#FFC300;}
	.st25{fill:#224E5D;}
	.st26{fill:#E5BD99;}
	.st27{fill:#F0FAFC;}
	.st28{fill:#2B0D04;}
	.st29{fill:#0A3542;}
	.st30{fill:#D1DCE6;}
	.st31{fill:#EFB378;}
	.st32{fill:#71535C;}
	.st33{fill:#DAD7C5;}
	.st34{fill:#F7BB79;}
	.st35{fill:#79797A;}
	.st36{fill:#374246;}
	.st37{fill:#666666;}
	.st38{fill:#989899;}
	.st39{fill:#E8ECEF;}
	.st40{fill:#F8F9FC;}
	.st41{fill:#ADE9F4;}
	.st42{fill:#E54332;}
	.st43{fill:#E56759;}
	.st44{fill:#7FE2F4;}
	.st45{fill:#B6C2CF;}
	.st46{fill:#38D7F4;}
	.st47{opacity:0.4;fill:#FFFFFF;enable-background:new    ;}
	.st48{fill:#95D4E0;}
	.st49{fill:#C8EDF4;}
	.st50{fill:#63CDE0;}
	.st51{fill:#FEC31E;}
	.st52{fill:#FFD512;}
	.st53{fill:#3498DB;}
	.st54{fill:#54DE29;}
	.st55{fill:#19A603;}
	.st56{opacity:0.2;fill:#FFFFFF;enable-background:new    ;}
	.st57{fill:#A83125;}
	.st58{fill:#C13400;}
	.st59{fill:#02131A;}
	.st60{fill:#144459;}
	.st61{fill:#062E3F;}
	.st62{fill:#A88107;}
	.st63{fill:#D2A209;}
	.st64{fill:#D6D6D6;}
	.st65{fill:#BB3200;}
	.st66{fill:#952800;}
	.st67{fill:#BABABA;}
	.st68{fill:#AD2E00;}
	.st69{fill:#052533;}
	.st70{fill:#073549;}
	.st71{fill:#FDFDFD;}
	.st72{fill:#E55A4C;}
	.st73{fill:#E03C00;}
	.st74{fill:#D1321D;}
	.st75{opacity:0.4;fill:#F2543F;enable-background:new    ;}
	.st76{fill:#A32211;}
	.st77{fill:#C41C10;}
	.st78{fill:#3B2015;}
	.st79{fill:#6A8F04;}
	.st80{fill:#331302;}
	.st81{fill:#EDAF85;}
	.st82{fill:none;stroke:#000000;stroke-width:0.5;stroke-linecap:round;stroke-linejoin:round;stroke-miterlimit:10;}
</style>
<g id="Layer_2_1_">
	<path class="st0" d="M263,96.7v70.9l-34.4,12.6L99,111.8c-2.8-1.5-5-5-5-8V7.4c0-2.9,2.3-4.1,5-2.7l158.9,84
		C260.7,90.2,263,93.8,263,96.7z"/>
	<path class="st1" d="M137.9,54.4c0,2.9-2.3,4.1-5,2.7l-28-14.8c-2.8-1.5-5-5-5-8V15.4c0-2.9,2.3-4.1,5-2.7l28,14.8c2.8,1.5,5,5,5,8
		V54.4z"/>
	<path class="st1" d="M137.9,88.3c0,2.9-2.3,4.1-5,2.6l-28-14.8c-2.8-1.5-5-5-5-8V49.3c0-2.9,2.3-4.1,5-2.7l28,14.8c2.8,1.5,5,5,5,8
		L137.9,88.3L137.9,88.3z"/>
	<path class="st1" d="M137.9,122.2c0,2.9-2.3,4.1-5,2.7l-28-14.8c-2.8-1.5-5-5-5-8V83.2c0-2.9,2.3-4.1,5-2.7l28,14.8
		c2.8,1.5,5,5,5,8L137.9,122.2L137.9,122.2z"/>
	<path class="st2" d="M228.6,180.4L99,111.9c-2.8-1.5-5.2-5.2-5.2-8.2V7.3c0-3,2.3-4.2,5.2-2.7l158.9,84c2.8,1.5,5.2,5.2,5.2,8.2
		v70.9l0,0L228.6,180.4z M99,4.9c-2.7-1.4-4.9-0.3-4.9,2.6v96.4c0,2.9,2.2,6.3,4.9,7.7L228.5,180l34.4-12.6V96.6
		c0-2.8-2.2-6.3-4.9-7.7L99,4.9z"/>
	<path class="st2" d="M107.3,116.7l-8.3-4.4c-3.1-1.6-5.6-5.6-5.6-8.9V93.2l1.1,0.6v10.3c0,2.6,2,5.8,4.5,7.1l8.3,4.4L107.3,116.7
		L107.3,116.7z"/>
	<polygon class="st2" points="228.7,180.9 211.1,171.6 211.1,170.4 228.3,179.5 262.4,167 262.4,155.2 263.5,155.8 263.5,168.2 
		263.3,168.3 	"/>
	<path class="st2" d="M263.5,110.5l-1.1-0.6V96.4c0-2.6-2-5.8-4.5-7.1l-11.3-6v-1.2l11.3,6c3.1,1.6,5.6,5.6,5.6,8.9L263.5,110.5
		L263.5,110.5z"/>
	<path class="st2" d="M94.5,17.4l-1.1-0.6V7.1c0-3.3,2.5-4.6,5.6-3l10.7,5.7V11L99,5.4c-2.5-1.3-4.5-0.2-4.5,2.4L94.5,17.4
		L94.5,17.4z"/>
	<polygon class="st3" points="257.4,94.4 227.9,78.9 227.9,87.2 257.4,102.8 	"/>
	<polygon class="st3" points="146.1,46.2 143.2,39.4 146.1,35.6 151.8,38.7 154.7,45.5 151.8,49.2 	"/>
	<polygon class="st3" points="228.9,169.9 226,163.1 228.9,159.4 234.6,162.4 237.5,169.2 234.6,173 	"/>
	<g>
		<g>
			<g>
				<g>
					<path class="st1" d="M193.3,97.2c0.4,0,0.7-0.2,0.9-0.5c0.3-0.5,0.1-1-0.4-1.3l-5.9-3.1c-0.5-0.3-1.1-0.1-1.4,0.4
						c-0.3,0.5-0.1,1,0.4,1.3l5.9,3.1C192.9,97.2,193.1,97.2,193.3,97.2z"/>
				</g>
				<g>
					<path class="st1" d="M195.9,102.4c0.4,0,0.7-0.2,0.9-0.5c0.3-0.5,0.1-1-0.4-1.3L183.9,94c-0.5-0.3-1.1-0.1-1.4,0.4
						c-0.3,0.5-0.1,1,0.4,1.3l12.4,6.6C195.5,102.3,195.7,102.4,195.9,102.4z"/>
				</g>
				<g>
					<path class="st1" d="M198.2,107.4c0.4,0,0.7-0.2,0.9-0.5c0.3-0.5,0.1-1-0.4-1.3l-16.6-8.8c-0.5-0.3-1.1-0.1-1.4,0.4
						c-0.3,0.5-0.1,1,0.4,1.3l16.6,8.8C197.8,107.3,198,107.4,198.2,107.4z"/>
				</g>
				<g>
					<path class="st1" d="M199,111.6c0.4,0,0.7-0.2,0.9-0.5c0.3-0.5,0.1-1-0.4-1.3l-18.1-9.6c-0.5-0.3-1.1-0.1-1.4,0.4
						c-0.3,0.5-0.1,1,0.4,1.3l18.1,9.6C198.7,111.6,198.9,111.6,199,111.6z"/>
				</g>
				<g>
					<path class="st1" d="M198.6,84.9c0.4,0,0.7-0.2,0.9-0.5c0.3-0.5,0.1-1-0.4-1.3l-16.3-8.6c-0.5-0.3-1.1-0.1-1.4,0.4
						c-0.3,0.5-0.1,1,0.4,1.3l16.3,8.6C198.2,84.8,198.4,84.9,198.6,84.9z"/>
				</g>
				<g>
					<path class="st1" d="M197.3,88c0.4,0,0.7-0.2,0.9-0.5c0.3-0.5,0.1-1-0.4-1.3l-14-7.4c-0.5-0.3-1.1-0.1-1.4,0.4
						c-0.3,0.5-0.1,1,0.4,1.3l14.1,7.4C196.9,87.9,197.1,88,197.3,88z"/>
				</g>
				<g>
					<path class="st1" d="M195,90.6c0.4,0,0.7-0.2,0.9-0.5c0.3-0.5,0.1-1-0.4-1.3l-9.6-5.1c-0.5-0.3-1.1-0.1-1.4,0.4s-0.1,1,0.4,1.3
						l9.6,5.1C194.7,90.5,194.9,90.6,195,90.6z"/>
				</g>
				<g>
					<path class="st1" d="M191.4,92.4c0.4,0,0.7-0.2,0.9-0.5c0.3-0.5,0.1-1-0.4-1.3l-2.5-1.3c-0.5-0.3-1.1-0.1-1.4,0.4
						c-0.3,0.5-0.1,1,0.4,1.3l2.5,1.3C191.1,92.4,191.3,92.4,191.4,92.4z"/>
				</g>
				<g>
					<path class="st1" d="M198.9,115.3c0.4,0,0.7-0.2,0.9-0.5c0.3-0.5,0.1-1-0.4-1.3l-17.5-9.2c-0.5-0.3-1.1-0.1-1.4,0.4
						c-0.3,0.5-0.1,1,0.4,1.3l17.5,9.2C198.6,115.3,198.7,115.3,198.9,115.3z"/>
				</g>
				<g>
					<path class="st1" d="M197.4,118.3c0.4,0,0.7-0.2,0.9-0.5c0.3-0.5,0.1-1-0.4-1.3l-14.6-7.7c-0.5-0.3-1.1-0.1-1.4,0.4
						c-0.3,0.5-0.1,1,0.4,1.3l14.6,7.7C197,118.3,197.2,118.3,197.4,118.3z"/>
				</g>
				<g>
					<path class="st1" d="M195.9,121.3c0.4,0,0.7-0.2,0.9-0.5c0.3-0.5,0.1-1-0.4-1.3l-10.5-5.6c-0.5-0.3-1.1-0.1-1.4,0.4
						c-0.3,0.5-0.1,1,0.4,1.3l10.5,5.6C195.5,121.2,195.7,121.3,195.9,121.3z"/>
				</g>
				<g>
					<path class="st1" d="M192.5,123.3c0.4,0,0.7-0.2,0.9-0.5c0.3-0.5,0.1-1-0.4-1.3l-4.8-2.5c-0.5-0.3-1.1-0.1-1.4,0.4
						c-0.3,0.5-0.1,1,0.4,1.3l4.8,2.5C192.1,123.2,192.3,123.3,192.5,123.3z"/>
				</g>
				<g>
					<path class="st1" d="M192.9,127.3c0.4,0,0.7-0.2,0.9-0.5c0.3-0.5,0.1-1-0.4-1.3l-4.5-2.4c-0.5-0.3-1.1-0.1-1.4,0.4
						c-0.3,0.5-0.1,1,0.4,1.3l4.5,2.4C192.6,127.3,192.7,127.3,192.9,127.3z"/>
				</g>
				<g>
					<path class="st1" d="M195.4,132.4c0.4,0,0.7-0.2,0.9-0.5c0.3-0.5,0.1-1-0.4-1.3l-10.5-5.6c-0.5-0.3-1.1-0.1-1.4,0.4
						c-0.3,0.5-0.1,1,0.4,1.3l10.5,5.6C195.1,132.4,195.3,132.4,195.4,132.4z"/>
				</g>
				<g>
					<path class="st1" d="M197.2,137.2c0.4,0,0.7-0.2,0.9-0.5c0.3-0.5,0.1-1-0.4-1.3l-14.2-7.5c-0.5-0.3-1.1-0.1-1.4,0.4
						c-0.3,0.5-0.1,1,0.4,1.3l14.2,7.5C196.9,137.1,197.1,137.2,197.2,137.2z"/>
				</g>
				<g>
					<path class="st1" d="M198.2,141.5c0.4,0,0.7-0.2,0.9-0.5c0.3-0.5,0.1-1-0.4-1.3l-16.4-8.6c-0.5-0.3-1.1-0.1-1.4,0.4
						c-0.3,0.5-0.1,1,0.4,1.3l16.4,8.6C197.8,141.4,198,141.5,198.2,141.5z"/>
				</g>
			</g>
			<g>
				<g>
					<path class="st1" d="M181.4,135.1c0,0,0.1,0,0.1,0c0.6-0.1,1-0.5,0.9-1.1c0-0.3-0.8-7.1,5.9-9.3c0.5-0.2,1.1-0.3,1.6-0.5
						c4.2-1.3,8.6-2.6,10-9.5c1.3-6.1-2.9-16.7-9.7-24.6c-3.3-3.8-7.6-13.1-7.6-17.7c0-0.5-0.5-1-1.1-1c-0.6,0-1.1,0.4-1.1,1
						c0,5.1,4.5,14.9,8,18.9c6.4,7.4,10.5,17.5,9.3,23.1c-1.2,5.8-4.5,6.8-8.6,8c-0.5,0.2-1.1,0.3-1.6,0.5
						c-8.2,2.7-7.2,11.2-7.2,11.3C180.4,134.7,180.9,135.1,181.4,135.1z"/>
				</g>
				<g>
					<path class="st1" d="M198.3,143C198.3,143,198.3,143,198.3,143c0.6,0,1.1-0.5,1-1c-0.5-10.6-5.3-16.1-8.2-19.3
						c-0.3-0.3-0.5-0.6-0.8-0.9c-2.8-3.3-9.7-14.6-9-21.4c0.5-4.7,4.3-5.9,8.4-7.3c1.7-0.6,3.4-1.1,4.8-1.9c4.9-2.9,5.6-9.2,5.6-9.4
						c0-0.5-0.4-1-1-1c-0.6,0-1.1,0.3-1.1,0.9l0,0c0,0.1-0.6,5.6-4.6,8c-1.2,0.7-2.7,1.2-4.3,1.7c-4.1,1.3-9.2,3-9.8,8.9
						c-0.8,7.9,7.1,20,9.4,22.8c0.2,0.3,0.5,0.6,0.8,0.9c2.7,3.1,7.3,8.3,7.7,18.2C197.3,142.6,197.8,143,198.3,143z"/>
				</g>
			</g>
		</g>
	</g>
	<g>
		<g>
			<path class="st4" d="M206.7,69.1c0,0,0.3,0.3,0.8,0.7c0.2,0.2,0.5,0.5,0.9,0.8c0.3,0.3,0.6,0.6,1,0.9c0.3,0.3,0.7,0.6,1,0.9
				c0.3,0.3,0.6,0.6,0.8,0.8c0.5,0.5,0.8,0.8,0.8,0.8l-2.3,3.9c0,0-0.3-0.3-0.7-0.7c-0.2-0.2-0.5-0.5-0.7-0.7
				c-0.3-0.3-0.6-0.5-0.9-0.8c-0.3-0.3-0.6-0.5-0.9-0.8s-0.5-0.5-0.8-0.7c-0.4-0.4-0.7-0.7-0.7-0.7L206.7,69.1z"/>
			<path class="st4" d="M229.3,99.4c0,0,0.3,0.6,0.6,1.3c0.1,0.2,0.2,0.3,0.2,0.5c0.1,0.2,0.1,0.3,0.2,0.4c0.1,0.2,0.2,0.4,0.2,0.4
				s-0.3-0.2-0.7-0.5c-0.2-0.2-0.5-0.3-0.7-0.5c-0.3-0.2-0.6-0.4-0.9-0.5c-0.6-0.4-1.2-0.7-1.6-1c-0.2-0.1-0.4-0.2-0.5-0.3
				c-0.1-0.1-0.2-0.1-0.2-0.1s-0.3-0.6-0.6-1.2c-0.2-0.3-0.3-0.6-0.4-0.8c-0.1-0.1-0.1-0.2-0.1-0.3c0-0.1-0.1-0.1-0.1-0.1
				s0.1,0,0.2,0.1c0.1,0.1,0.3,0.2,0.5,0.3c0.4,0.2,1,0.6,1.6,0.9c0.3,0.2,0.6,0.3,0.9,0.5s0.5,0.3,0.8,0.5
				C229,99.2,229.3,99.4,229.3,99.4z"/>
			<path class="st4" d="M227,94.9c0,0,0.1,0.2,0.2,0.4c0.1,0.1,0.1,0.3,0.2,0.4c0.1,0.2,0.2,0.3,0.3,0.5c0.3,0.6,0.7,1.3,0.7,1.3
				s-0.3-0.2-0.7-0.4c-0.4-0.3-1-0.6-1.6-0.9c-1.2-0.6-2.3-1.2-2.3-1.2s-0.1-0.1-0.2-0.4c-0.1-0.2-0.3-0.5-0.5-0.8
				c-0.3-0.6-0.7-1.1-0.7-1.1s1.1,0.5,2.3,1.1c0.6,0.3,1.2,0.6,1.6,0.8C226.7,94.8,227,94.9,227,94.9z"/>
			<path class="st4" d="M224.7,91.1c0,0,0.4,0.6,0.8,1.2c0.2,0.3,0.4,0.6,0.5,0.8c0.1,0.1,0.1,0.2,0.2,0.3c0,0.1,0.1,0.1,0.1,0.1
				s-0.1,0-0.2-0.1c-0.1-0.1-0.3-0.2-0.5-0.3c-0.4-0.2-1-0.5-1.6-0.8c-0.3-0.1-0.6-0.3-0.9-0.4c-0.1-0.1-0.3-0.1-0.4-0.2
				c-0.1-0.1-0.2-0.1-0.4-0.2c-0.4-0.2-0.7-0.3-0.7-0.3s-0.4-0.6-0.7-1.1c-0.1-0.1-0.2-0.3-0.3-0.4c-0.1-0.1-0.2-0.3-0.2-0.3
				c-0.1-0.2-0.2-0.3-0.2-0.3s0.3,0.1,0.7,0.3c0.1,0,0.2,0.1,0.4,0.1c0.1,0.1,0.2,0.1,0.4,0.2c0.3,0.1,0.6,0.2,0.8,0.4
				c0.6,0.2,1.2,0.5,1.6,0.7c0.2,0.1,0.4,0.2,0.5,0.3C224.7,91.1,224.7,91.1,224.7,91.1z"/>
			<polygon class="st4" points="237.8,131 237.8,131.6 233.7,129.5 233.6,128.9 			"/>
			<polygon class="st4" points="237.7,129.7 237.8,130.3 233.6,128.2 233.6,127.7 			"/>
			<polygon class="st4" points="237.7,128.3 237.7,128.9 233.6,127 233.5,126.4 			"/>
			<polygon class="st4" points="237.6,126.9 237.6,127.6 233.5,125.7 233.5,125.2 			"/>
			<polygon class="st4" points="237.4,125.5 237.5,126.2 233.4,124.5 233.3,123.9 			"/>
			<polygon class="st4" points="237.3,124.1 237.3,124.8 233.2,123.2 233.2,122.6 			"/>
			<polygon class="st4" points="237,122.7 237.2,123.3 233.1,121.9 233,121.3 			"/>
			<path class="st4" d="M236.8,121.2c0,0,0,0.2,0.1,0.3c0,0.2,0.1,0.3,0.1,0.3l-4.1-1.3c0,0,0-0.2,0-0.3c0-0.2-0.1-0.3-0.1-0.3
				L236.8,121.2z"/>
			<polygon class="st4" points="220.4,84.8 220.9,85.4 218.3,87.4 217.8,86.9 			"/>
			<path class="st4" d="M219.4,83.4c0,0,0.1,0.2,0.2,0.3c0.1,0.2,0.2,0.3,0.2,0.3l-2.5,2.2c0,0-0.1-0.1-0.2-0.3
				c-0.1-0.1-0.2-0.3-0.2-0.3L219.4,83.4z"/>
			<polygon class="st4" points="218.4,82.1 218.8,82.7 216.4,85 216,84.4 			"/>
			<polygon class="st4" points="217.3,80.8 217.8,81.4 215.5,83.8 215,83.3 			"/>
			<polygon class="st4" points="216.2,79.5 216.7,80.1 214.5,82.6 214.1,82.1 			"/>
			<polygon class="st4" points="215.2,78.3 215.7,78.8 213.5,81.5 213.1,81 			"/>
			<path class="st4" d="M214.1,77C214.1,77,214.1,77,214.1,77c0.1,0.1,0.2,0.2,0.3,0.3c0.1,0.2,0.3,0.3,0.3,0.3l-2,2.8
				c0,0-0.1-0.1-0.2-0.3c-0.1-0.1-0.1-0.1-0.2-0.2c0,0-0.1-0.1-0.1-0.1L214.1,77z"/>
			<polygon class="st4" points="212.9,75.8 213.5,76.4 211.5,79.2 211.1,78.7 			"/>
			<path class="st4" d="M234,116.9c-0.4-0.1-0.7,0.2-0.6,0.8c0.1,0.3,0.2,0.5,0.4,0.7c0.2,0.2,0.4,0.4,0.6,0.4
				c0.2,0.1,0.4,0,0.5-0.1c0.1-0.1,0.1-0.4,0.1-0.6C234.9,117.5,234.4,117,234,116.9z"/>
			<path class="st4" d="M233.2,114c-0.4-0.1-0.7,0.3-0.5,0.8c0.1,0.5,0.6,1,1,1.1s0.7-0.3,0.5-0.8
				C234.1,114.5,233.7,114.1,233.2,114z"/>
			<path class="st4" d="M232.3,111c-0.4,0-0.6,0.4-0.5,0.9c0.2,0.5,0.6,1,1.1,1c0.4,0.1,0.6-0.3,0.5-0.9
				C233.2,111.5,232.8,111.1,232.3,111z"/>
			<path class="st4" d="M231.3,108.1c-0.4,0-0.6,0.4-0.4,0.9c0.2,0.5,0.7,1,1.1,1c0.4,0,0.6-0.4,0.4-0.9
				C232.2,108.5,231.7,108.1,231.3,108.1z"/>
			<path class="st4" d="M230.1,105.1c-0.4,0-0.5,0.5-0.3,1c0.2,0.5,0.7,0.9,1.1,0.9c0.4,0,0.6-0.5,0.3-1
				C231,105.5,230.5,105.1,230.1,105.1z"/>
			<path class="st4" d="M228.8,102.2c-0.4,0.1-0.5,0.5-0.3,1c0.1,0.3,0.3,0.5,0.5,0.6c0.2,0.2,0.4,0.3,0.6,0.2s0.3-0.2,0.4-0.3
				c0.1-0.2,0-0.4-0.1-0.7C229.7,102.5,229.2,102.1,228.8,102.2z"/>
		</g>
		<g>
			<path class="st4" d="M155.5,59.7c0,0,0.1-0.1,0.1-0.1c0.1-0.1,0.2-0.2,0.4-0.3c0.3-0.3,0.8-0.6,1.2-1c0.5-0.3,0.9-0.6,1.3-0.9
				c0.2-0.1,0.3-0.2,0.4-0.3C159,57,159,57,159,57l3.9,5.9c0,0-0.1,0-0.1,0.1c-0.1,0.1-0.2,0.1-0.4,0.2c-0.3,0.2-0.7,0.5-1.1,0.8
				c-0.4,0.3-0.8,0.6-1.1,0.9c-0.1,0.1-0.3,0.2-0.3,0.3c-0.1,0.1-0.1,0.1-0.1,0.1L155.5,59.7z"/>
			<path class="st4" d="M178.9,54.9C178.9,54.9,178.9,54.9,178.9,54.9c0.1,0,0.2,0,0.3,0.1c0.2,0,0.5,0.1,0.7,0.2
				c0.5,0.1,1,0.2,1,0.2s-0.5,0.9-1,1.7c-0.2,0.4-0.5,0.9-0.6,1.2c-0.2,0.3-0.3,0.6-0.3,0.6s-0.1,0-0.3-0.1c-0.2,0-0.4-0.1-0.7-0.1
				c-0.5-0.1-0.9-0.1-0.9-0.1s0.1-0.2,0.2-0.6c0.1-0.4,0.3-0.9,0.5-1.3C178.4,55.8,178.9,54.9,178.9,54.9z"/>
			<path class="st4" d="M175.3,54.4c0,0,0.5,0.1,1,0.1c0.3,0,0.5,0.1,0.7,0.1c0.2,0,0.3,0.1,0.3,0.1s0,0.1-0.1,0.2
				c0,0.1-0.1,0.2-0.2,0.4c-0.2,0.4-0.4,0.8-0.6,1.3c-0.2,0.5-0.4,1-0.5,1.3c-0.1,0.4-0.2,0.6-0.2,0.6s-0.5,0-0.9,0
				c-0.2,0-0.5,0-0.6,0c-0.2,0-0.3,0-0.3,0s0.1-0.3,0.2-0.7c0.1-0.4,0.3-0.9,0.4-1.4c0.2-0.5,0.3-1,0.5-1.4c0.1-0.2,0.1-0.3,0.2-0.4
				C175.3,54.4,175.3,54.4,175.3,54.4z"/>
			<path class="st4" d="M172.2,54.3c0,0,0.1,0,0.3,0c0.1,0,0.2,0,0.3,0c0.1,0,0.2,0,0.4,0c0.5,0,1,0.1,1,0.1s-0.1,0.3-0.2,0.6
				c-0.1,0.2-0.1,0.4-0.2,0.6c-0.1,0.2-0.2,0.5-0.2,0.8c-0.3,1.1-0.5,2.1-0.5,2.1s-0.1,0-0.3,0s-0.4,0-0.6,0c-0.4,0-0.9,0.1-0.9,0.1
				s0.2-1.1,0.4-2.2c0.1-0.3,0.1-0.5,0.2-0.8c0.1-0.3,0.1-0.5,0.2-0.7C172.2,54.5,172.2,54.3,172.2,54.3z"/>
			<path class="st4" d="M206,69.1C206,69.1,206,69.2,206,69.1c0.1,0.1,0.2,0.2,0.3,0.3c0.1,0.1,0.3,0.2,0.3,0.2l-1.3,3.5
				c0,0-0.1-0.1-0.3-0.2c-0.1-0.1-0.1-0.1-0.2-0.2c0,0-0.1-0.1-0.1-0.1L206,69.1z"/>
			<polygon class="st4" points="204.7,68.1 205.3,68.6 204.1,72.2 203.6,71.7 			"/>
			<path class="st4" d="M203.5,67.1c0,0,0.1,0.1,0.3,0.2c0.1,0.1,0.3,0.2,0.3,0.2l-1.1,3.7c0,0-0.1-0.1-0.3-0.2
				c-0.1-0.1-0.3-0.2-0.3-0.2L203.5,67.1z"/>
			<polygon class="st4" points="202.3,66.2 202.9,66.6 201.9,70.4 201.4,70 			"/>
			<polygon class="st4" points="201.1,65.3 201.6,65.7 200.8,69.5 200.3,69.1 			"/>
			<polygon class="st4" points="199.8,64.4 200.4,64.8 199.7,68.7 199.1,68.3 			"/>
			<polygon class="st4" points="198.6,63.5 199.1,63.9 198.5,67.9 198,67.6 			"/>
			<polygon class="st4" points="197.3,62.7 197.9,63.1 197.4,67.2 196.9,66.8 			"/>
			<polygon class="st4" points="167.2,54.7 167.7,54.6 170,59.5 169.5,59.6 			"/>
			<polygon class="st4" points="166.2,54.9 166.7,54.8 169,59.7 168.6,59.8 			"/>
			<path class="st4" d="M165.2,55.2c0,0,0.1,0,0.2-0.1c0.1,0,0.1,0,0.2,0c0,0,0.1,0,0.1,0l2.5,4.8c0,0,0,0-0.1,0c0,0-0.1,0-0.1,0
				c-0.1,0-0.2,0.1-0.2,0.1L165.2,55.2z"/>
			<polygon class="st4" points="164.2,55.5 164.6,55.3 167.2,60.1 166.8,60.3 			"/>
			<polygon class="st4" points="163.2,55.8 163.6,55.6 166.3,60.4 165.9,60.6 			"/>
			<polygon class="st4" points="162.3,56.2 162.7,56 165.4,60.8 165,60.9 			"/>
			<polygon class="st4" points="161.3,56.6 161.8,56.4 164.6,61.1 164.2,61.3 			"/>
			<path class="st4" d="M160.4,57.1C160.4,57.1,160.4,57,160.4,57.1c0.1-0.1,0.2-0.1,0.2-0.1c0.1-0.1,0.2-0.1,0.2-0.1l2.9,4.6
				c0,0-0.1,0.1-0.2,0.1c0,0-0.1,0-0.1,0.1c0,0-0.1,0-0.1,0L160.4,57.1z"/>
			<path class="st4" d="M193.9,62.8c0,0.5,0.3,1.1,0.8,1.3c0.4,0.3,0.8,0.1,0.9-0.3c0-0.5-0.3-1.1-0.8-1.3
				C194.3,62.2,193.9,62.4,193.9,62.8z"/>
			<path class="st4" d="M191.4,61.5c0,0.5,0.4,1.1,0.8,1.3c0.1,0.1,0.2,0.1,0.3,0.1c0.1,0,0.2,0,0.3,0c0.1-0.1,0.2-0.2,0.2-0.5
				c0-0.2-0.1-0.5-0.2-0.7c-0.1-0.1-0.2-0.2-0.3-0.3s-0.2-0.2-0.3-0.2C191.8,60.8,191.4,61,191.4,61.5z"/>
			<path class="st4" d="M188.9,60.3c0,0.5,0.4,1.1,0.9,1.3c0.2,0.1,0.4,0.1,0.6,0c0.1-0.1,0.2-0.3,0.2-0.5c0-0.2-0.1-0.5-0.3-0.8
				c-0.2-0.2-0.4-0.4-0.6-0.5C189.2,59.6,188.9,59.8,188.9,60.3z"/>
			<path class="st4" d="M186.4,59.3c0.1,0.5,0.5,1.1,0.9,1.2c0.4,0.2,0.8-0.1,0.7-0.6c0-0.5-0.5-1-0.9-1.2
				C186.7,58.5,186.3,58.8,186.4,59.3z"/>
			<path class="st4" d="M183.9,58.4c0.1,0.5,0.5,1.1,1,1.2s0.7-0.2,0.7-0.7c-0.1-0.5-0.5-1-1-1.2C184.1,57.6,183.8,57.9,183.9,58.4z
				"/>
			<path class="st4" d="M181.5,57.8c0.1,0.3,0.2,0.5,0.4,0.7c0.2,0.2,0.4,0.4,0.6,0.4c0.4,0.1,0.7-0.2,0.6-0.7c-0.1-0.5-0.5-1-1-1.2
				c-0.2-0.1-0.4,0-0.5,0.1C181.5,57.3,181.4,57.5,181.5,57.8z"/>
		</g>
		<g>
			<path class="st4" d="M155.5,116.6c0,0-0.2-0.4-0.5-1c-0.1-0.2-0.2-0.3-0.2-0.5c-0.1-0.2-0.2-0.4-0.3-0.6
				c-0.2-0.4-0.4-0.8-0.6-1.2c-0.2-0.4-0.4-0.8-0.6-1.2c-0.2-0.4-0.3-0.8-0.5-1.1c-0.3-0.6-0.4-1-0.4-1l4.6-0.3c0,0,0.2,0.4,0.4,0.9
				c0.1,0.3,0.3,0.6,0.4,0.9c0.2,0.3,0.3,0.7,0.5,1.1c0.2,0.4,0.3,0.7,0.5,1.1c0.1,0.2,0.2,0.3,0.2,0.5c0.1,0.2,0.2,0.3,0.2,0.4
				c0.3,0.5,0.5,0.9,0.5,0.9L155.5,116.6z"/>
			<path class="st4" d="M147.3,83.5c0,0,0-0.6,0-1.1c0-0.3,0-0.6,0-0.8c0-0.1,0-0.2,0-0.3c0-0.1,0-0.1,0-0.1s0.1,0.1,0.1,0.2
				c0.1,0.1,0.2,0.4,0.4,0.6c0.3,0.5,0.8,1.1,1.2,1.8c0.2,0.3,0.4,0.6,0.6,0.9c0.2,0.3,0.4,0.6,0.6,0.8c0.3,0.5,0.6,0.8,0.6,0.8
				s0,0.5,0,1.1c0,0.1,0,0.3,0,0.4c0,0.1,0,0.1,0,0.2s0,0.1,0,0.2c0,0.2,0,0.3,0,0.3s-0.2-0.3-0.6-0.8c-0.3-0.5-0.8-1.1-1.2-1.7
				c-0.5-0.6-0.9-1.3-1.2-1.8c-0.2-0.2-0.3-0.4-0.4-0.6C147.3,83.5,147.3,83.5,147.3,83.5z"/>
			<path class="st4" d="M147.4,87.6c0,0,0-0.6-0.1-1.2c0-0.3,0-0.6,0-0.8c0-0.2,0-0.4,0-0.4s0.2,0.3,0.6,0.8
				c0.2,0.2,0.4,0.5,0.6,0.8c0.2,0.3,0.5,0.6,0.7,0.9c0.9,1.2,1.9,2.4,1.9,2.4c0,0,0,0.1,0,0.3c0,0.2,0.1,0.5,0.1,0.8
				c0.1,0.6,0.1,1.1,0.1,1.1s-1-1.1-1.9-2.4c-0.5-0.6-1-1.2-1.3-1.7C147.7,87.9,147.4,87.6,147.4,87.6z"/>
			<path class="st4" d="M147.8,91.3l-0.3-2.4c0,0,1,1.3,2,2.4c0.2,0.3,0.5,0.6,0.7,0.9c0.2,0.3,0.5,0.5,0.6,0.7
				c0.4,0.4,0.6,0.7,0.6,0.7s0.1,0.6,0.2,1.1c0,0.3,0.1,0.6,0.1,0.8c0,0.2,0.1,0.4,0.1,0.4s-0.3-0.3-0.6-0.7c-0.4-0.4-0.9-1-1.4-1.6
				c-0.5-0.6-1-1.2-1.4-1.6c-0.2-0.2-0.4-0.4-0.5-0.5C147.9,91.4,147.9,91.4,147.8,91.3C147.8,91.3,147.8,91.3,147.8,91.3z"/>
			<polygon class="st4" points="155.6,60.6 155.9,60.3 159.3,64.6 159,64.9 			"/>
			<path class="st4" d="M154.9,61.3c0,0,0.1-0.1,0.2-0.2c0.1-0.1,0.2-0.2,0.2-0.2l3.4,4.3c0,0-0.1,0.1-0.2,0.2
				c-0.1,0.1-0.1,0.2-0.1,0.2L154.9,61.3z"/>
			<polygon class="st4" points="154.2,62.1 154.5,61.7 158,65.9 157.7,66.3 			"/>
			<polygon class="st4" points="153.5,62.9 153.8,62.5 157.4,66.6 157.1,67 			"/>
			<polygon class="st4" points="152.9,63.7 153.2,63.3 156.8,67.4 156.5,67.7 			"/>
			<polygon class="st4" points="152.3,64.6 152.6,64.2 156.2,68.1 156,68.5 			"/>
			<path class="st4" d="M151.7,65.5C151.7,65.5,151.7,65.4,151.7,65.5c0.1-0.1,0.1-0.2,0.1-0.2c0.1-0.1,0.1-0.2,0.1-0.2l3.7,3.9
				c0,0-0.1,0.1-0.1,0.2c0,0.1-0.1,0.1-0.1,0.1c0,0,0,0.1,0,0.1L151.7,65.5z"/>
			<polygon class="st4" points="151.2,66.4 151.5,66 155.2,69.8 155,70.2 			"/>
			<polygon class="st4" points="149,97.9 148.9,97.3 152.9,98.2 153,98.8 			"/>
			<path class="st4" d="M149.4,99.4c0,0,0-0.2-0.1-0.3c0-0.2-0.1-0.3-0.1-0.3l4,0.8c0,0,0,0.2,0.1,0.3c0,0.2,0.1,0.3,0.1,0.3
				L149.4,99.4z"/>
			<polygon class="st4" points="149.8,100.9 149.6,100.2 153.5,100.9 153.7,101.5 			"/>
			<path class="st4" d="M150.2,102.4c0,0-0.1-0.2-0.1-0.4c0-0.1-0.1-0.2-0.1-0.2c0-0.1,0-0.1,0-0.1l3.9,0.5c0,0,0,0,0,0.1
				c0,0.1,0,0.1,0.1,0.2c0.1,0.2,0.1,0.3,0.1,0.3L150.2,102.4z"/>
			<polygon class="st4" points="150.7,103.9 150.5,103.2 154.3,103.6 154.5,104.2 			"/>
			<polygon class="st4" points="151.2,105.4 151,104.7 154.8,104.9 155,105.6 			"/>
			<polygon class="st4" points="151.7,106.8 151.5,106.1 155.2,106.3 155.5,106.9 			"/>
			<polygon class="st4" points="152.3,108.3 152,107.6 155.7,107.6 156,108.3 			"/>
			<path class="st4" d="M151.9,70.8c0.2,0.2,0.4,0.3,0.6,0.3c0.2,0,0.4-0.1,0.4-0.2c0.2-0.3,0-1-0.5-1.4s-0.9-0.4-1.1-0.1
				c-0.1,0.2-0.1,0.4,0,0.7C151.5,70.3,151.7,70.6,151.9,70.8z"/>
			<path class="st4" d="M151.1,72.9c0.2,0.2,0.4,0.3,0.6,0.3c0.2,0,0.3-0.1,0.4-0.3c0.1-0.4-0.1-1-0.5-1.4c-0.4-0.4-0.9-0.4-1,0
				c-0.1,0.2,0,0.4,0.1,0.7C150.7,72.5,150.9,72.7,151.1,72.9z"/>
			<path class="st4" d="M150.5,75.1c0.4,0.3,0.9,0.3,1-0.1c0-0.1,0-0.1,0-0.2c0-0.1,0-0.1,0-0.2c0-0.1,0-0.2-0.1-0.4
				c-0.1-0.2-0.3-0.5-0.5-0.7c-0.2-0.2-0.4-0.3-0.6-0.2c-0.1,0-0.2,0-0.2,0.1c0,0-0.1,0.1-0.1,0.1c0,0,0,0.1-0.1,0.1
				C149.8,74.2,150,74.8,150.5,75.1z"/>
			<path class="st4" d="M150,77.5c0.4,0.3,0.9,0.2,1-0.2c0-0.2,0-0.5-0.1-0.7c-0.1-0.2-0.3-0.5-0.5-0.6c-0.2-0.2-0.4-0.2-0.6-0.2
				c-0.2,0-0.3,0.2-0.3,0.4C149.2,76.5,149.5,77.1,150,77.5z"/>
			<path class="st4" d="M149.6,79.9c0.4,0.3,0.9,0.2,0.9-0.3s-0.3-1-0.7-1.3c-0.4-0.3-0.9-0.2-0.9,0.3
				C148.9,79,149.2,79.6,149.6,79.9z"/>
			<path class="st4" d="M149.4,82.4c0.5,0.3,0.8,0.1,0.9-0.3c0-0.4-0.3-1-0.8-1.3c-0.5-0.3-0.8-0.1-0.9,0.3
				C148.6,81.6,149,82.1,149.4,82.4z"/>
		</g>
		<g>
			<path class="st4" d="M206.7,161.3c0,0-0.1,0-0.2,0c-0.1,0-0.2,0-0.3-0.1c-0.1,0-0.2,0-0.3-0.1c-0.5-0.1-1.2-0.3-1.9-0.4
				c-0.7-0.2-1.4-0.4-1.9-0.5c-0.1,0-0.2-0.1-0.4-0.1c-0.1,0-0.2-0.1-0.3-0.1c-0.2-0.1-0.2-0.1-0.2-0.1l-1-6c0,0,0.1,0,0.2,0.1
				c0.1,0,0.1,0.1,0.2,0.1c0.1,0,0.2,0.1,0.3,0.1c0.5,0.1,1.1,0.3,1.7,0.5c0.6,0.1,1.2,0.3,1.6,0.4c0.1,0,0.2,0.1,0.3,0.1
				c0.1,0,0.2,0,0.2,0c0.1,0,0.2,0,0.2,0L206.7,161.3z"/>
			<path class="st4" d="M178.2,145.5c0,0-0.5-0.5-1-0.9c-0.3-0.2-0.5-0.5-0.7-0.6c-0.2-0.2-0.3-0.3-0.3-0.3s0.3,0,0.7,0
				c0.4,0,0.9,0,1.4-0.1c0.5,0,1-0.1,1.4-0.2c0.2,0,0.3,0,0.4-0.1c0.1,0,0.2,0,0.2,0l1.9,1.6c0,0-0.1,0-0.2,0
				c-0.1,0-0.2,0.1-0.4,0.1c-0.4,0.1-0.8,0.2-1.3,0.2c-0.2,0-0.5,0.1-0.7,0.1c-0.2,0-0.5,0.1-0.6,0.1
				C178.5,145.5,178.2,145.5,178.2,145.5z"/>
			<path class="st4" d="M181.9,148.6c0,0-0.1-0.1-0.3-0.3c-0.1-0.1-0.2-0.2-0.3-0.3c-0.1-0.1-0.3-0.2-0.4-0.3
				c-0.5-0.4-1.1-0.9-1.1-0.9s0.3,0,0.6-0.1c0.4-0.1,0.9-0.1,1.3-0.2c1-0.2,1.9-0.5,1.9-0.5s0.1,0.1,0.3,0.2
				c0.2,0.2,0.4,0.3,0.7,0.5c0.5,0.4,1,0.7,1,0.7s-0.9,0.3-1.8,0.6C182.9,148.4,181.9,148.6,181.9,148.6z"/>
			<path class="st4" d="M185.2,151c0,0-0.5-0.4-1.1-0.8c-0.3-0.2-0.5-0.4-0.7-0.5c-0.2-0.2-0.3-0.3-0.3-0.3s0.1,0,0.2,0
				c0.1,0,0.3-0.1,0.4-0.1c0.4-0.1,0.8-0.2,1.3-0.4c0.5-0.2,0.9-0.3,1.2-0.4c0.3-0.1,0.5-0.2,0.5-0.2s0.5,0.3,1,0.7
				c0.2,0.2,0.5,0.3,0.7,0.4c0.2,0.1,0.3,0.2,0.3,0.2s-0.1,0-0.1,0.1c-0.1,0-0.2,0.1-0.4,0.2c-0.3,0.2-0.7,0.3-1.2,0.5
				s-0.9,0.4-1.2,0.5C185.4,151,185.2,151,185.2,151z"/>
			<polygon class="st4" points="156.3,117.2 155.9,116.5 159.3,115.7 159.6,116.3 			"/>
			<polygon class="st4" points="157.1,118.6 156.7,118 160,117 160.3,117.7 			"/>
			<path class="st4" d="M157.9,120.1c0,0-0.1-0.2-0.2-0.3c-0.1-0.1-0.1-0.2-0.1-0.2c0-0.1-0.1-0.1-0.1-0.1l3.2-1.1c0,0,0,0,0.1,0.1
				c0,0.1,0.1,0.1,0.1,0.2c0.1,0.2,0.2,0.3,0.2,0.3L157.9,120.1z"/>
			<polygon class="st4" points="158.7,121.6 158.3,120.9 161.4,119.7 161.8,120.3 			"/>
			<polygon class="st4" points="159.5,123 159.1,122.3 162.2,121 162.6,121.6 			"/>
			<polygon class="st4" points="160.4,124.4 160,123.8 163,122.3 163.3,122.9 			"/>
			<polygon class="st4" points="161.3,125.8 160.9,125.2 163.8,123.6 164.2,124.2 			"/>
			<path class="st4" d="M162.2,127.2c0,0-0.1-0.2-0.2-0.3c-0.1-0.2-0.2-0.3-0.2-0.3l2.8-1.7c0,0,0.1,0.2,0.2,0.3
				c0.1,0.2,0.2,0.3,0.2,0.3L162.2,127.2z"/>
			<polygon class="st4" points="191,154.7 190.4,154.4 190.6,150.1 191.1,150.4 			"/>
			<polygon class="st4" points="192.2,155.4 191.6,155.1 191.7,150.7 192.3,151 			"/>
			<polygon class="st4" points="193.5,156 192.9,155.7 192.9,151.3 193.4,151.6 			"/>
			<polygon class="st4" points="194.8,156.7 194.2,156.4 194,151.9 194.6,152.2 			"/>
			<polygon class="st4" points="196,157.2 195.4,157 195.2,152.5 195.7,152.7 			"/>
			<path class="st4" d="M197.3,157.8C197.3,157.8,197.2,157.8,197.3,157.8c-0.1-0.1-0.2-0.1-0.3-0.1c-0.1-0.1-0.3-0.1-0.3-0.1
				l-0.4-4.6c0,0,0.1,0.1,0.3,0.1c0.1,0,0.1,0.1,0.2,0.1c0,0,0.1,0,0.1,0L197.3,157.8z"/>
			<polygon class="st4" points="198.5,158.3 197.9,158.1 197.5,153.5 198,153.7 			"/>
			<path class="st4" d="M199.8,158.8c0,0-0.1-0.1-0.3-0.1c-0.1,0-0.1-0.1-0.2-0.1c-0.1,0-0.1,0-0.1,0l-0.6-4.6c0,0,0,0,0.1,0
				s0.1,0.1,0.2,0.1c0.1,0,0.3,0.1,0.3,0.1L199.8,158.8z"/>
			<path class="st4" d="M166.1,129.8c0.3-0.2,0.2-0.8-0.1-1.3c-0.4-0.5-0.9-0.7-1.2-0.5c-0.3,0.2-0.2,0.8,0.1,1.3
				C165.3,129.8,165.8,130,166.1,129.8z"/>
			<path class="st4" d="M168.1,132.4c0.3-0.3,0.2-0.8-0.2-1.3c-0.4-0.5-0.9-0.6-1.1-0.4c-0.3,0.2-0.2,0.8,0.2,1.3
				C167.3,132.5,167.8,132.7,168.1,132.4z"/>
			<path class="st4" d="M170.2,135c0.2-0.3,0.1-0.9-0.3-1.3c-0.4-0.4-0.9-0.6-1.1-0.3c-0.3,0.3-0.1,0.9,0.3,1.3
				C169.4,135.1,170,135.3,170.2,135z"/>
			<path class="st4" d="M172.4,137.4c0.1-0.2,0.1-0.4,0.1-0.6c0-0.1-0.1-0.2-0.1-0.4s-0.1-0.2-0.2-0.4c-0.4-0.4-0.9-0.6-1.1-0.3
				c-0.2,0.3-0.1,0.9,0.3,1.4c0.1,0.1,0.2,0.2,0.3,0.3c0.1,0.1,0.2,0.1,0.3,0.1C172.1,137.6,172.3,137.6,172.4,137.4z"/>
			<path class="st4" d="M174.6,139.8c0.2-0.3,0-0.9-0.4-1.3c-0.4-0.4-0.9-0.5-1.1-0.2c-0.2,0.3,0,0.9,0.4,1.4
				C173.9,140.1,174.4,140.1,174.6,139.8z"/>
			<path class="st4" d="M176.9,142c0.2-0.4,0-1-0.5-1.4c-0.2-0.2-0.4-0.3-0.6-0.3c-0.2,0-0.4,0.1-0.4,0.2s-0.1,0.4,0,0.7
				c0.1,0.3,0.2,0.5,0.5,0.7C176.3,142.4,176.8,142.4,176.9,142z"/>
		</g>
		<g>
			<path class="st4" d="M238.4,131.9c0,0,0,0.4,0,0.9c0,0.3,0,0.6,0,0.9c0,0.2,0,0.4,0,0.5c0,0.2,0,0.4,0,0.5
				c-0.1,0.7-0.1,1.4-0.1,2c-0.1,0.5-0.1,0.9-0.1,0.9l-5.3-3.5c0,0,0-0.3,0.1-0.8c0-0.5,0.1-1.1,0.1-1.7c0-0.2,0-0.3,0-0.5
				c0-0.2,0-0.3,0-0.5c0-0.3,0-0.6,0-0.8c0-0.5,0-0.8,0-0.8L238.4,131.9z"/>
			<path class="st4" d="M228.9,155.4C228.9,155.4,228.9,155.4,228.9,155.4c-0.1,0.1-0.1,0.1-0.2,0.2c-0.1,0.1-0.3,0.2-0.5,0.4
				c-0.3,0.3-0.7,0.5-0.7,0.5s-0.2-1.4-0.4-2.7c0-0.2-0.1-0.3-0.1-0.5c0-0.2-0.1-0.3-0.1-0.5c-0.1-0.3-0.1-0.6-0.2-0.9
				c-0.1-0.5-0.2-0.8-0.2-0.8s0.1-0.1,0.2-0.2c0.1-0.1,0.1-0.1,0.2-0.2c0.1-0.1,0.1-0.1,0.2-0.2c0.3-0.3,0.5-0.6,0.5-0.6
				s0.1,0.3,0.2,0.8c0.1,0.3,0.1,0.5,0.2,0.9c0,0.2,0.1,0.3,0.1,0.5c0,0.2,0.1,0.3,0.1,0.5C228.7,154,228.9,155.4,228.9,155.4z"/>
			<path class="st4" d="M231.1,153.2c0,0-0.3,0.3-0.6,0.7c-0.1,0.2-0.3,0.3-0.4,0.4c-0.1,0.1-0.1,0.1-0.1,0.1c0,0-0.1,0.1-0.1,0.1
				s0-0.1,0-0.2c0-0.2-0.1-0.4-0.1-0.6c-0.1-0.5-0.3-1.2-0.4-1.9c-0.1-0.3-0.2-0.7-0.3-1c0-0.2-0.1-0.3-0.1-0.5
				c0-0.2-0.1-0.3-0.1-0.4c-0.1-0.5-0.2-0.9-0.2-0.9s0.3-0.3,0.5-0.6c0.1-0.1,0.1-0.2,0.2-0.2c0.1-0.1,0.1-0.2,0.1-0.2
				c0.1-0.1,0.1-0.2,0.1-0.2s0.1,0.3,0.3,0.9c0.1,0.3,0.2,0.6,0.3,0.9c0.1,0.3,0.2,0.7,0.3,1c0.2,0.7,0.4,1.4,0.5,1.9
				c0,0.1,0.1,0.3,0.1,0.4s0,0.2,0.1,0.3C231.1,153.1,231.1,153.2,231.1,153.2z"/>
			<path class="st4" d="M232.7,150.9c0,0-0.1,0.1-0.2,0.2c0,0.1-0.1,0.2-0.2,0.2c0,0.1-0.1,0.1-0.1,0.1c0,0-0.1,0.1-0.1,0.1
				c-0.3,0.4-0.5,0.7-0.5,0.7s-0.1-0.3-0.2-0.9c-0.1-0.3-0.2-0.6-0.2-0.9c0-0.2-0.1-0.3-0.1-0.5c-0.1-0.2-0.1-0.3-0.2-0.5
				c-0.4-1.4-0.9-2.7-0.9-2.7s0.1-0.1,0.1-0.2c0.1-0.1,0.2-0.3,0.3-0.5c0.2-0.4,0.4-0.8,0.4-0.8s0.5,1.3,1,2.7
				c0.1,0.2,0.1,0.3,0.2,0.5c0.1,0.2,0.1,0.3,0.2,0.5c0.1,0.3,0.2,0.6,0.3,0.9C232.6,150.6,232.7,150.9,232.7,150.9z"/>
			<polygon class="st4" points="207.1,160.7 206.5,160.6 205.2,155.8 205.8,155.9 			"/>
			<path class="st4" d="M208.3,160.9C208.3,160.9,208.2,160.9,208.3,160.9c-0.1,0-0.2,0-0.3,0c-0.1,0-0.3,0-0.3,0l-1.4-4.9
				c0,0,0.1,0,0.3,0c0.1,0,0.1,0,0.2,0c0,0,0.1,0,0.1,0L208.3,160.9z"/>
			<polygon class="st4" points="209.5,161 208.9,161 207.4,156.1 207.9,156.2 			"/>
			<path class="st4" d="M210.6,161.1c0,0-0.1,0-0.3,0c-0.1,0-0.1,0-0.2,0s-0.1,0-0.1,0l-1.6-4.9c0,0,0,0,0.1,0c0,0,0.1,0,0.2,0
				c0.1,0,0.2,0,0.2,0L210.6,161.1z"/>
			<polygon class="st4" points="211.8,161.2 211.2,161.2 209.5,156.3 210,156.3 			"/>
			<polygon class="st4" points="212.9,161.2 212.4,161.2 210.6,156.3 211,156.3 			"/>
			<polygon class="st4" points="214,161.2 213.5,161.2 211.6,156.3 212.1,156.3 			"/>
			<polygon class="st4" points="215.1,161.1 214.6,161.1 212.6,156.3 213.1,156.2 			"/>
			<path class="st4" d="M235.1,146.6C235.1,146.6,235.1,146.6,235.1,146.6c-0.1,0.1-0.1,0.2-0.1,0.2c-0.1,0.1-0.1,0.2-0.1,0.2
				l-3.9-3.6c0,0,0-0.1,0.1-0.2c0-0.1,0-0.1,0.1-0.2c0,0,0-0.1,0-0.1L235.1,146.6z"/>
			<polygon class="st4" points="235.5,145.5 235.3,146 231.4,142.5 231.6,142.1 			"/>
			<path class="st4" d="M235.9,144.4c0,0,0,0.1-0.1,0.3c0,0.1,0,0.1-0.1,0.2c0,0,0,0.1,0,0.1l-3.9-3.4c0,0,0,0,0-0.1
				c0,0,0-0.1,0.1-0.2c0-0.1,0.1-0.2,0.1-0.2L235.9,144.4z"/>
			<polygon class="st4" points="236.2,143.3 236.1,143.9 232.1,140.6 232.2,140.1 			"/>
			<polygon class="st4" points="236.5,142.2 236.4,142.7 232.4,139.5 232.5,139.1 			"/>
			<polygon class="st4" points="236.8,141 236.7,141.6 232.6,138.5 232.8,138 			"/>
			<polygon class="st4" points="237,139.9 236.9,140.4 232.9,137.4 233,136.9 			"/>
			<polygon class="st4" points="237.3,138.7 237.2,139.2 233.1,136.4 233.2,135.8 			"/>
			<path class="st4" d="M216.8,158.3c-0.1-0.3-0.3-0.5-0.5-0.6c-0.2-0.2-0.4-0.2-0.6-0.2c-0.4,0.1-0.5,0.5-0.2,1.1
				c0.2,0.5,0.8,0.9,1.1,0.9c0.2,0,0.3-0.2,0.4-0.4C217,158.8,216.9,158.6,216.8,158.3z"/>
			<path class="st4" d="M218.8,157.8c-0.1-0.3-0.3-0.5-0.5-0.6c-0.2-0.1-0.4-0.2-0.6-0.2c-0.4,0.1-0.4,0.6-0.2,1.1
				c0.3,0.5,0.8,0.9,1.2,0.8c0.2,0,0.3-0.2,0.3-0.4C219,158.3,219,158.1,218.8,157.8z"/>
			<path class="st4" d="M220.8,157.2c-0.3-0.5-0.8-0.8-1.1-0.7c-0.2,0.1-0.3,0.2-0.3,0.4c0,0.2,0,0.5,0.2,0.7
				c0.1,0.3,0.3,0.5,0.6,0.6c0.2,0.1,0.4,0.2,0.6,0.1C221,158.2,221.1,157.7,220.8,157.2z"/>
			<path class="st4" d="M222.6,156.4c-0.3-0.5-0.8-0.8-1.2-0.6c-0.2,0.1-0.2,0.2-0.2,0.5c0,0.2,0.1,0.5,0.2,0.7
				c0.2,0.3,0.4,0.5,0.6,0.6c0.2,0.1,0.4,0.2,0.6,0.1C222.9,157.4,222.9,156.9,222.6,156.4z"/>
			<path class="st4" d="M224.4,155.4c-0.3-0.5-0.9-0.8-1.2-0.6c-0.3,0.2-0.3,0.7,0,1.2c0.3,0.5,0.8,0.8,1.2,0.6
				C224.7,156.4,224.7,155.9,224.4,155.4z"/>
			<path class="st4" d="M226,154.3c-0.2-0.2-0.4-0.4-0.6-0.5c-0.2-0.1-0.4-0.1-0.6,0c-0.3,0.2-0.3,0.8,0.1,1.3
				c0.3,0.5,0.9,0.7,1.2,0.5c0.1-0.1,0.2-0.3,0.2-0.5C226.3,154.8,226.2,154.5,226,154.3z"/>
		</g>
	</g>
	<g>
		<g>
			<g class="st5">
				<path class="st6" d="M145.1,143c0.5,0.3,0.8,0.7,0.9,1.4c0,0,0,0,0,0l0,8.8l-1.5-0.8l0-8.8c0,0,0,0,0,0
					c-0.1-0.7-0.4-1.1-0.9-1.4L145.1,143z"/>
				<path class="st7" d="M124.6,154c0.1-0.6,0.2-1.2,0.4-1.9c0.2-0.6,0.4-1.2,0.7-1.8c0.6-1.3,1.5-2.5,2.4-3.5
					c0.5-0.5,1.1-1,1.7-1.5c0.4-0.3,0.7-0.5,1.1-0.7l10.4-5.5c0.2-0.1,0.4-0.2,0.6-0.3c0.6-0.2,1.1-0.4,1.6-0.5
					c0.9-0.1,1.7,0,2.3,0.3l1.5,0.8c-0.6-0.3-1.4-0.5-2.3-0.3c-0.5,0.1-1.1,0.2-1.6,0.5c-0.2,0.1-0.4,0.2-0.6,0.3l-10.4,5.5
					c-0.4,0.2-0.7,0.4-1.1,0.7c-0.6,0.4-1.2,0.9-1.7,1.5c-1,1-1.8,2.3-2.4,3.5c-0.3,0.6-0.5,1.2-0.7,1.8c-0.2,0.6-0.3,1.2-0.4,1.9
					c0,0.1,0,0.1,0,0.2l0,8.8l-1.5-0.8l0-8.8C124.6,154.1,124.6,154.1,124.6,154z"/>
				<g>
					<path class="st8" d="M132.4,145.5c-3.3,1.8-6.1,5.9-6.3,9.5l0,8.8l3.1-1.6l0-8.8c0.2-1.8,1.6-3.8,3.2-4.7l10.4-5.5
						c1.7-0.9,3-0.3,3.3,1.2l0,8.8l3-4.7l0-5.7c-0.3-3.3-3-4.5-6.3-2.8L132.4,145.5z"/>
				</g>
			</g>
		</g>
		<g>
			<g class="st5">
				<g>
					<g>
						<path id="SVGID_1_" class="st9" d="M166.5,213.9l1.7,0.9c-0.3-0.1-0.6-0.1-1,0.1l-1.7-0.9
							C165.9,213.7,166.2,213.7,166.5,213.9z"/>
					</g>
					<g>
						<defs>
							<path id="SVGID_2_" d="M166.5,213.9l1.7,0.9c-0.3-0.1-0.6-0.1-1,0.1l-1.7-0.9C165.9,213.7,166.2,213.7,166.5,213.9z"/>
						</defs>
						<clipPath id="SVGID_4_">
							<use xlink:href="#SVGID_2_"  style="overflow:visible;"/>
						</clipPath>
						<g class="st10">
							<path class="st9" d="M167.2,214.9l-1.7-0.9c0.1-0.1,0.3-0.1,0.4-0.2l1.7,0.9C167.5,214.7,167.3,214.8,167.2,214.9
								L167.2,214.9z"/>
							<path class="st9" d="M167.6,214.7l-1.7-0.9c0.2,0,0.4,0,0.6,0.1l1.7,0.9C168,214.7,167.8,214.7,167.6,214.7L167.6,214.7z"/>
							<path class="st9" d="M168.2,214.8l-1.7-0.9c0,0,0,0,0,0L168.2,214.8C168.2,214.8,168.2,214.8,168.2,214.8L168.2,214.8z"/>
						</g>
					</g>
				</g>
				<g>
					<g>
						<path id="SVGID_3_" class="st9" d="M166.2,217.9l-1.7-0.9c-0.3-0.1-0.4-0.4-0.4-0.8c0-0.8,0.6-1.8,1.4-2.2l1.7,0.9
							c-0.8,0.4-1.4,1.4-1.4,2.2C165.8,217.5,165.9,217.8,166.2,217.9z"/>
					</g>
					<g>
						<defs>
							<path id="SVGID_6_" d="M166.2,217.9l-1.7-0.9c-0.3-0.1-0.4-0.4-0.4-0.8c0-0.8,0.6-1.8,1.4-2.2l1.7,0.9
								c-0.8,0.4-1.4,1.4-1.4,2.2C165.8,217.5,165.9,217.8,166.2,217.9z"/>
						</defs>
						<clipPath id="SVGID_8_">
							<use xlink:href="#SVGID_6_"  style="overflow:visible;"/>
						</clipPath>
						<g class="st11">
							<path class="st9" d="M166.2,217.9l-1.7-0.9c-0.3-0.1-0.4-0.4-0.4-0.8c0-0.3,0.1-0.6,0.3-1l1.7,0.9c-0.2,0.3-0.2,0.7-0.2,1
								C165.8,217.5,165.9,217.8,166.2,217.9L166.2,217.9z"/>
							<path class="st9" d="M166,216.1l-1.7-0.9c0.1-0.3,0.3-0.5,0.5-0.7l1.7,0.9C166.3,215.6,166.2,215.9,166,216.1L166,216.1z"/>
							<path class="st9" d="M166.5,215.4l-1.7-0.9c0.2-0.2,0.4-0.4,0.7-0.5l1.7,0.9C166.9,215,166.7,215.2,166.5,215.4L166.5,215.4z
								"/>
						</g>
					</g>
				</g>
				<g>
					<path class="st12" d="M167.2,214.9c0.8-0.4,1.4-0.1,1.4,0.7c0,0.8-0.6,1.8-1.4,2.2c-0.8,0.4-1.4,0.1-1.4-0.7
						C165.8,216.3,166.4,215.3,167.2,214.9z"/>
				</g>
			</g>
		</g>
		<g>
			<g class="st5">
				<g>
					<g>
						<path id="SVGID_5_" class="st9" d="M141.1,201.1l1.7,0.9c-0.3-0.1-0.6-0.1-1,0.1l-1.7-0.9C140.5,201,140.9,201,141.1,201.1z"
							/>
					</g>
					<g>
						<defs>
							<path id="SVGID_10_" d="M141.1,201.1l1.7,0.9c-0.3-0.1-0.6-0.1-1,0.1l-1.7-0.9C140.5,201,140.9,201,141.1,201.1z"/>
						</defs>
						<clipPath id="SVGID_12_">
							<use xlink:href="#SVGID_10_"  style="overflow:visible;"/>
						</clipPath>
						<g class="st13">
							<path class="st9" d="M141.8,202.1l-1.7-0.9c0.2-0.1,0.3-0.1,0.4-0.2l1.7,0.9C142.1,202,142,202,141.8,202.1L141.8,202.1z"/>
							<path class="st9" d="M142.3,201.9l-1.7-0.9c0.2,0,0.4,0,0.5,0.1l1.7,0.9C142.7,201.9,142.5,201.9,142.3,201.9L142.3,201.9z"
								/>
							<path class="st9" d="M142.8,202l-1.7-0.9c0,0,0,0,0,0L142.8,202C142.8,202,142.8,202,142.8,202L142.8,202z"/>
						</g>
					</g>
				</g>
				<g>
					<g>
						<path id="SVGID_7_" class="st9" d="M140.9,205.1l-1.7-0.9c-0.3-0.1-0.4-0.4-0.4-0.8c0-0.8,0.6-1.8,1.4-2.2l1.7,0.9
							c-0.8,0.4-1.4,1.4-1.4,2.2C140.4,204.7,140.6,205,140.9,205.1z"/>
					</g>
					<g>
						<defs>
							<path id="SVGID_14_" d="M140.9,205.1l-1.7-0.9c-0.3-0.1-0.4-0.4-0.4-0.8c0-0.8,0.6-1.8,1.4-2.2l1.7,0.9
								c-0.8,0.4-1.4,1.4-1.4,2.2C140.4,204.7,140.6,205,140.9,205.1z"/>
						</defs>
						<clipPath id="SVGID_16_">
							<use xlink:href="#SVGID_14_"  style="overflow:visible;"/>
						</clipPath>
						<g class="st14">
							<path class="st9" d="M140.9,205.1l-1.7-0.9c-0.3-0.1-0.4-0.4-0.4-0.8c0-0.3,0.1-0.6,0.2-1l1.7,0.9c-0.2,0.3-0.2,0.7-0.2,1
								C140.4,204.7,140.6,205,140.9,205.1L140.9,205.1z"/>
							<path class="st9" d="M140.7,203.3l-1.7-0.9c0.1-0.3,0.3-0.5,0.5-0.7l1.7,0.9C141,202.9,140.8,203.1,140.7,203.3L140.7,203.3z
								"/>
							<path class="st9" d="M141.2,202.6l-1.7-0.9c0.2-0.2,0.4-0.4,0.7-0.5l1.7,0.9C141.6,202.2,141.4,202.4,141.2,202.6
								L141.2,202.6z"/>
						</g>
					</g>
				</g>
				<g>
					<path class="st12" d="M141.8,202.1c0.8-0.4,1.4-0.1,1.4,0.7c0,0.8-0.6,1.8-1.4,2.2c-0.8,0.4-1.4,0.1-1.4-0.7
						C140.4,203.5,141.1,202.5,141.8,202.1z"/>
				</g>
			</g>
		</g>
		<g>
			<g class="st5">
				<g>
					<g>
						<path id="SVGID_9_" class="st9" d="M140.9,213.8l-1.7,0.9c0.3-0.1,0.6-0.1,1,0.1l1.7-0.9C141.5,213.7,141.1,213.6,140.9,213.8
							z"/>
					</g>
					<g>
						<defs>
							<path id="SVGID_17_" d="M140.9,213.8l-1.7,0.9c0.3-0.1,0.6-0.1,1,0.1l1.7-0.9C141.5,213.7,141.1,213.6,140.9,213.8z"/>
						</defs>
						<clipPath id="SVGID_18_">
							<use xlink:href="#SVGID_17_"  style="overflow:visible;"/>
						</clipPath>
						<g class="st15">
							<path class="st9" d="M140.1,214.8l1.7-0.9c-0.1-0.1-0.3-0.1-0.4-0.2l-1.7,0.9C139.8,214.7,140,214.7,140.1,214.8L140.1,214.8
								z"/>
							<path class="st9" d="M139.7,214.6l1.7-0.9c-0.2,0-0.4,0-0.5,0.1l-1.7,0.9C139.3,214.6,139.5,214.6,139.7,214.6L139.7,214.6z"
								/>
							<path class="st9" d="M139.2,214.7l1.7-0.9c0,0,0,0,0,0L139.2,214.7C139.1,214.7,139.1,214.7,139.2,214.7L139.2,214.7z"/>
						</g>
					</g>
				</g>
				<g>
					<g>
						<path id="SVGID_11_" class="st9" d="M141.1,217.8l1.7-0.9c0.3-0.1,0.4-0.4,0.4-0.8c0-0.8-0.6-1.8-1.4-2.2l-1.7,0.9
							c0.8,0.4,1.4,1.4,1.4,2.2C141.5,217.4,141.4,217.7,141.1,217.8z"/>
					</g>
					<g>
						<defs>
							<path id="SVGID_19_" d="M141.1,217.8l1.7-0.9c0.3-0.1,0.4-0.4,0.4-0.8c0-0.8-0.6-1.8-1.4-2.2l-1.7,0.9
								c0.8,0.4,1.4,1.4,1.4,2.2C141.5,217.4,141.4,217.7,141.1,217.8z"/>
						</defs>
						<clipPath id="SVGID_20_">
							<use xlink:href="#SVGID_19_"  style="overflow:visible;"/>
						</clipPath>
						<g class="st16">
							<path class="st9" d="M141.1,217.8l1.7-0.9c0.3-0.1,0.4-0.4,0.4-0.8c0-0.3-0.1-0.6-0.2-1l-1.7,0.9c0.2,0.3,0.3,0.7,0.2,1
								C141.5,217.4,141.4,217.7,141.1,217.8L141.1,217.8z"/>
							<path class="st9" d="M141.3,216l1.7-0.9c-0.1-0.3-0.3-0.5-0.5-0.7l-1.7,0.9C141,215.5,141.2,215.8,141.3,216L141.3,216z"/>
							<path class="st9" d="M140.8,215.3l1.7-0.9c-0.2-0.2-0.4-0.4-0.7-0.5l-1.7,0.9C140.4,214.9,140.6,215.1,140.8,215.3
								L140.8,215.3z"/>
						</g>
					</g>
				</g>
				<g>
					<path class="st12" d="M140.1,214.8c-0.8-0.4-1.4-0.1-1.4,0.7c0,0.8,0.6,1.8,1.4,2.2c0.8,0.4,1.4,0.1,1.4-0.7
						C141.5,216.2,140.9,215.2,140.1,214.8z"/>
				</g>
			</g>
		</g>
		<g>
			<g class="st5">
				<g>
					<g>
						<path id="SVGID_13_" class="st9" d="M166.4,201l-1.7,0.9c0.3-0.1,0.6-0.1,1,0.1l1.7-0.9C167,200.9,166.6,200.8,166.4,201z"/>
					</g>
					<g>
						<defs>
							<path id="SVGID_21_" d="M166.4,201l-1.7,0.9c0.3-0.1,0.6-0.1,1,0.1l1.7-0.9C167,200.9,166.6,200.8,166.4,201z"/>
						</defs>
						<clipPath id="SVGID_22_">
							<use xlink:href="#SVGID_21_"  style="overflow:visible;"/>
						</clipPath>
						<g class="st17">
							<path class="st9" d="M165.6,202l1.7-0.9c-0.1-0.1-0.3-0.1-0.4-0.2l-1.7,0.9C165.3,201.8,165.5,201.9,165.6,202L165.6,202z"/>
							<path class="st9" d="M165.2,201.8l1.7-0.9c-0.2,0-0.4,0-0.5,0.1l-1.7,0.9C164.8,201.8,165,201.8,165.2,201.8L165.2,201.8z"/>
							<path class="st9" d="M164.7,201.9l1.7-0.9c0,0,0,0,0,0L164.7,201.9C164.6,201.9,164.7,201.9,164.7,201.9L164.7,201.9z"/>
						</g>
					</g>
				</g>
				<g>
					<g>
						<path id="SVGID_15_" class="st9" d="M166.6,205l1.7-0.9c0.3-0.1,0.4-0.4,0.4-0.8c0-0.8-0.6-1.8-1.4-2.2l-1.7,0.9
							c0.8,0.4,1.4,1.4,1.4,2.2C167,204.6,166.9,204.9,166.6,205z"/>
					</g>
					<g>
						<defs>
							<path id="SVGID_23_" d="M166.6,205l1.7-0.9c0.3-0.1,0.4-0.4,0.4-0.8c0-0.8-0.6-1.8-1.4-2.2l-1.7,0.9c0.8,0.4,1.4,1.4,1.4,2.2
								C167,204.6,166.9,204.9,166.6,205z"/>
						</defs>
						<clipPath id="SVGID_24_">
							<use xlink:href="#SVGID_23_"  style="overflow:visible;"/>
						</clipPath>
						<g class="st18">
							<path class="st9" d="M166.6,205l1.7-0.9c0.3-0.1,0.4-0.4,0.4-0.8c0-0.3-0.1-0.6-0.2-1l-1.7,0.9c0.2,0.3,0.2,0.7,0.2,1
								C167,204.6,166.9,204.9,166.6,205L166.6,205z"/>
							<path class="st9" d="M166.8,203.2l1.7-0.9c-0.1-0.3-0.3-0.5-0.5-0.7l-1.7,0.9C166.5,202.7,166.7,203,166.8,203.2L166.8,203.2
								z"/>
							<path class="st9" d="M166.3,202.5l1.7-0.9c-0.2-0.2-0.4-0.4-0.7-0.5l-1.7,0.9C165.9,202.1,166.1,202.3,166.3,202.5
								L166.3,202.5z"/>
						</g>
					</g>
				</g>
				<g>
					<path class="st12" d="M165.6,202c-0.8-0.4-1.4-0.1-1.4,0.7c0,0.8,0.6,1.8,1.4,2.2c0.8,0.4,1.4,0.1,1.4-0.7
						C167,203.4,166.4,202.4,165.6,202z"/>
				</g>
			</g>
		</g>
		<g>
			<g class="st5">
				<g>
					<polygon class="st19" points="138.8,199 138.8,202.5 149.8,208.4 149.8,204.9 					"/>
				</g>
				<g>
					<polygon class="st20" points="149.8,204.9 149.8,208.4 153.8,206.3 153.7,202.8 					"/>
				</g>
				<g>
					<polygon class="st21" points="142.8,196.9 138.8,199 149.8,204.9 153.7,202.8 					"/>
				</g>
			</g>
			<g class="st5">
				<g>
					<polygon class="st20" points="157.7,204.9 157.7,208.4 168.8,202.5 168.8,199 					"/>
				</g>
				<g>
					<polygon class="st20" points="153.7,207 153.7,210.5 157.7,208.4 157.7,204.9 					"/>
				</g>
				<g>
					<polygon class="st20" points="142.7,212.8 142.7,216.3 153.7,210.5 153.7,207 					"/>
				</g>
				<g>
					<polygon class="st19" points="153.7,207 153.7,210.5 164.7,216.3 164.7,212.8 					"/>
				</g>
				<g>
					<polygon class="st21" points="138.7,210.7 142.7,212.8 153.7,207 157.7,204.9 168.8,199 164.8,196.9 153.7,202.8 149.8,204.9 
											"/>
				</g>
				<g>
					<polygon class="st19" points="138.7,210.7 138.7,214.2 142.7,216.3 142.7,212.8 					"/>
				</g>
				<g>
					<polygon class="st20" points="164.7,212.8 164.7,216.3 168.7,214.2 168.7,210.7 					"/>
				</g>
				<g>
					<polygon class="st21" points="168.7,210.7 157.7,204.9 153.7,207 164.7,212.8 					"/>
				</g>
			</g>
		</g>
		<g>
			<g class="st5">
				<g>
					<polygon class="st7" points="153.7,166.2 153.8,207 149.3,204.6 149.3,166.2 					"/>
				</g>
				<g>
					<polygon class="st6" points="157.6,166.2 157.6,205 153.8,207 153.7,166.2 					"/>
				</g>
			</g>
		</g>
		<g>
			<g class="st5">
				<g>
					<polygon class="st6" points="174,167.3 178.5,164.9 178.6,123.3 174.1,125.7 					"/>
				</g>
				<g>
					<polygon class="st21" points="174.1,125.7 178.6,123.3 173.7,120.7 169.2,123.1 					"/>
				</g>
				<g>
					<polygon class="st7" points="169.2,123.1 169.1,164.7 174,167.3 174.1,125.7 					"/>
				</g>
			</g>
		</g>
		<g>
			<g class="st5">
				<path class="st22" d="M160.5,96l3.3-1.8c-0.1,0-0.2,0.1-0.3,0.1l-3.3,1.8C160.3,96.1,160.4,96.1,160.5,96L160.5,96z"/>
				<path class="st23" d="M163.8,94.3c1.7-0.8,3.8-1,6.3-0.6c1.6,0.3,3.3,0.9,5.1,1.9c3,1.6,5.8,3.9,8.2,6.5c2,2.2,3.7,4.7,4.9,7.2
					c1.1,2.2,1.8,4.5,2,6.5l1.9,22.1c0.3,3.3-0.8,5.6-2.9,6.7l-3.3,1.8c2.1-1.1,3.2-3.4,2.9-6.7l-1.9-22.1c-0.2-2.1-0.9-4.3-2-6.5
					c-1.2-2.5-2.9-5-4.9-7.2c-2.4-2.7-5.2-5-8.2-6.6c-1.8-0.9-3.5-1.6-5.1-1.9c-2.4-0.5-4.6-0.3-6.3,0.6L163.8,94.3z"/>
				<g>
					<path class="st24" d="M171.8,97.3c-7.7-4-14.5-2.1-15.1,4.3l-2,20c-0.7,6.4,5.2,15.1,12.9,19.2l8.2,4.3
						c7.8,4.1,13.6,1.6,13-5.5l-1.9-22.1C186.3,110.5,179.5,101.4,171.8,97.3z"/>
				</g>
			</g>
		</g>
		<g>
			<g>
				<g class="st5">
					<g>
						<path class="st25" d="M129.6,159.5c-6.9,3.7-7,9.6-0.1,13.2l11,5.9c6.9,3.7,18,3.7,25,0l11.1-5.9c6.9-3.7,7-9.6,0.1-13.2
							l-11-5.9c-6.9-3.7-18-3.7-25,0L129.6,159.5z"/>
					</g>
				</g>
			</g>
			<g>
				<g class="st5">
					<path class="st23" d="M124.9,165.1c0.7,1.6,2.3,3.1,4.6,4.4l11,5.9c3.5,1.9,8.2,2.8,12.8,2.7c4.4,0,8.8-1,12.2-2.7l11.1-5.9
						c3.5-1.8,5.2-4.3,5.2-6.7l0,4c0,2.4-1.7,4.8-5.2,6.7l-11.1,5.9c-3.4,1.8-7.8,2.7-12.2,2.7c-4.6,0-9.3-0.9-12.8-2.7l-11-5.9
						c-2.4-1.2-3.9-2.8-4.6-4.4c-0.3-0.7-0.5-1.5-0.5-2.2l0-4C124.4,163.6,124.6,164.3,124.9,165.1z"/>
					<g>
						<path class="st24" d="M129.6,156.2c-6.9,3.7-7,9.6-0.1,13.2l11,5.9c6.9,3.7,18,3.7,25,0l11.1-5.9c6.9-3.7,7-9.6,0.1-13.2
							l-11-5.9c-6.9-3.7-18-3.7-25,0L129.6,156.2z"/>
					</g>
				</g>
			</g>
		</g>
		<path class="st6" d="M124.9,168.4c0.7,1.6,2.3,3.1,4.6,4.4l11,5.9c3.5,1.9,8.2,2.8,12.8,2.7c4.4,0,8.8-1,12.2-2.7l11.1-5.9
			c3.5-1.8,5.2-4.3,5.2-6.7l0,4c0,2.4-1.7,4.8-5.2,6.7l-11.1,5.9c-3.4,1.8-7.8,2.7-12.2,2.7c-4.6,0-9.3-0.9-12.8-2.7l-11-5.9
			c-2.4-1.2-3.9-2.8-4.6-4.4c-0.3-0.7-0.5-1.5-0.5-2.2l0-4C124.4,166.9,124.6,167.7,124.9,168.4z"/>
	</g>
	<g>
		<path class="st26" d="M146,97.4c-3.4-0.6-6.7,1.5-7.4,4.6l-7.4,30.8l13.6,0.3l6.1-28.9C151.6,101,149.4,98,146,97.4z"/>
	</g>
	<g>
		<path class="st27" d="M146,97.4c-3.4-0.6-6.7,1.5-7.4,4.6l-8.4,31h14.6l6.1-28.9C151.6,101,149.4,98,146,97.4z"/>
	</g>
	<path class="st28" d="M147.5,77.6c0.6-1.2,0.8-1.7,2.9-1.5c0.6,0.1,1.1,0.4,0.9,0.9c-0.4,0.8-1,2-0.8,2.8c0.4,1.1,1.4,2.1,1.5,3.3
		c0.2,2.4-4.5,3.5-5.7,1.4C145.5,83,146.7,79.4,147.5,77.6z"/>
	<path class="st3" d="M123.9,217.4c0,0,9.3-2.1,6.8,7.5c-0.1,0.4-1,2.5-4.7,2c-2.4-0.3-4.7,1.6-5.4,2.1c-4.2,2.9-9.1,2.8-12.6,2.3
		c-1.8-0.2-2.7-0.8-2.9-1.5c-0.1-0.3-0.2-1.6-0.1-1.9c0.8-2.4,5.8-4.8,9.2-6.3C119.6,219.3,123.9,217.4,123.9,217.4z"/>
	<path d="M123.9,215.9c0,0,9.6-1.9,7.1,7.7c-0.1,0.4-1.3,2.3-5,1.8c-2.4-0.3-4.7,1.6-5.4,2.1c-4.2,2.9-9.1,2.8-12.6,2.3
		c-7.6-1,1-7.4,6.2-9.7C119.6,217.8,123.9,215.9,123.9,215.9z"/>
	<path class="st3" d="M108.8,204c0,0,9.3-2.1,6.8,7.5c-0.1,0.4-1,2.5-4.7,2c-2.4-0.3-4.7,1.6-5.4,2.1c-4.2,2.9-9.1,2.8-12.6,2.3
		c-1.8-0.2-2.7-0.8-2.9-1.5c-0.1-0.3-0.2-1.6-0.1-1.9c0.8-2.4,5.8-4.8,9.2-6.3C104.6,205.9,108.8,204,108.8,204z"/>
	<path d="M108.3,202.5c0,0,9.6-1.9,7.1,7.7c-0.1,0.4-1.3,2.3-5,1.8c-2.4-0.3-4.7,1.6-5.4,2.1c-4.2,2.9-9.1,2.8-12.6,2.3
		c-7.6-1,1-7.4,6.2-9.7C104.1,204.4,108.3,202.5,108.3,202.5z"/>
	<path class="st29" d="M99.7,154.8L99.7,154.8c6.9,2.2,12.6,7.1,16.9,12.9c-0.2,1.5-1.1,0.3-1.1,2.7c-0.1,7.5-1.8,24,0,36.9
		c-3.2,4.7-15.1-0.5-15.1-2.2C100.3,201,96.8,159.8,99.7,154.8z"/>
	<path class="st29" d="M126.1,177.1c0.1-0.6,0.2-1.2,0.2-1.7c-0.2,0.3-0.3,0.9-0.5,1.5c-5-4.8-9.3-10.3-15.5-14
		c4.8-5.9,23.1-13.3,30.2-14.7c0.6-0.7,0.6-1.2,0.9-1c9.6,6.2,32.2,2.4,32.4,3.2c0.9,6.4,2.8,13.6-3.2,19.9c-2.6,2.8-22.9,9-27.5,11
		c-0.3,0.1-12.2,39.3-12.2,40.1c-0.2,3.4-16.1,4.4-16.1-3.2C114.7,217.9,125.8,178.9,126.1,177.1z"/>
	<path class="st30" d="M122.5,170.1c-0.6,0.4-1.4,0.8-2.1,1.3c0.1,0.1,0.3,0.3,0.4,0.4c1.8-1.2,3.5-2.5,5.3-3.8
		C124.9,168.7,123.7,169.3,122.5,170.1z"/>
	<path class="st31" d="M159.3,99.1c-1.6,0-6.4,0-9.6,0.3v5.7h-0.3c0.1,6,1,23.8,5.6,23.8c4.9,0,23.8-13.8,23.8-18.3
		C178.7,106.2,164.2,99.1,159.3,99.1z"/>
	<path class="st32" d="M174.9,160.3c1.3-1.5,8-47,3.8-51.5c-2-2.1-7.9-6-11-7.2c0,0-7.9,5-10.8,4c-2.4-0.8-4-6.5-4-6.5
		c-1.5-1.5-6.3-2.5-7-1.9c-3.6,3.2-4.3,13.6-4.9,17.2c-2.2,12.9-2.6,17-5.2,32.2C134,158.2,168.7,167.2,174.9,160.3z"/>
	<path class="st27" d="M119.4,170.2c2.4-1.7,5-3.1,7.5-4.5c3.6-1.9,17.3-15.5,18.2-17c0.3-1,0.6-2.1,0.9-3.1
		c0.2-0.4,0.3-0.9,0.5-1.3c1.6-5.1,2.4-10.4,3.4-15.7c0.5-3,4.6-24.6,4.7-25.2c0,0,0.2,0.1,0.2,0.1c-1.2-1.9-1.8-4.4-1.8-4.4
		c-1.5-1.5-6.3-2.5-7-1.9c-3.6,3.2-4.3,13.6-4.9,17.2c-2.2,12.9-2.6,17-5.2,32.2c-0.1,0.4-21.7,11.3-25.6,16.1
		C113.8,164.9,116.6,167.5,119.4,170.2z"/>
	<path class="st33" d="M148.6,135.6l-2-20.5l2.4-4.6c0,0-1.4-4.8-0.8-7.4c1-4,7.3-4.6,7.3-4.6L148.6,135.6z"/>
	<path class="st30" d="M173.8,150.3c-0.1-0.5-10.3,1-20,0.2c-0.7,1.3-1.7,2.6-2.8,3.7c0.2,0.3,0.2,0.7,0,1c-1.1,1.8-2.6,3.3-4.4,4.6
		c0,0-0.1,0.1-0.1,0.1c-0.1,0.1-0.3,0.2-0.4,0.3c-0.8,0.6-1.7,1.1-2.6,1.7c-3.5,2.1-7.1,4-10.6,6.1c-3.3,2-6.7,3.9-9.9,6
		c0.9,1,1.9,1.9,2.9,2.9c0.1-0.6,0.3-1.1,0.5-1.5c-0.1,0.5-0.1,1.1-0.2,1.7c-0.3,1.8-11.4,40.8-11.4,41.1c0,7.6,15.9,6.6,16.1,3.2
		c0-0.9,11.9-40,12.2-40.1c4.7-2,24.9-8.2,27.5-11C176.6,163.9,174.7,156.7,173.8,150.3z"/>
	<path class="st29" d="M143.1,181.3c4.7-2,24.9-8.2,27.5-11c5.9-6.3,4.1-13.5,3.2-19.9c-0.1-0.5-10.3,1-20,0.2
		c-0.7,1.3-1.7,2.6-2.8,3.7c0.2,0.3,0.2,0.7,0,1c-1.1,1.8-2.6,3.3-4.4,4.6c0,0-0.1,0.1-0.1,0.1c-0.1,0.1-0.3,0.2-0.4,0.3
		c-0.8,0.6-1.7,1.1-2.6,1.7c-3.5,2.1-7.1,4-10.6,6.1c-2.8,1.6-5.6,3.3-8.3,5c5.8,3.8,11.6,7.4,17.5,11.1
		C142.7,182.3,143,181.3,143.1,181.3z"/>
	<path class="st29" d="M124.6,172.9c-0.5,0.3-1.1,0.7-1.6,1c0.9,1,1.9,1.9,2.9,2.9c0.1-0.6,0.3-1.1,0.5-1.5
		c-0.1,0.5-0.1,1.1-0.2,1.7c-0.3,1.8-11.4,40.8-11.4,41.1c0,7.6,15.9,6.6,16.1,3.2c0-0.7,8.4-28.4,11.3-37.4
		C136.3,180.4,130.4,176.7,124.6,172.9z"/>
	<path class="st27" d="M178.7,108.8c-2-2.1-7.9-6-11-7.2c0,0-3.6,0-4.6,2.5c-0.3,0.9-9.6,39.9-10.7,45.3c-0.8,4.1-0.7,6.2-2.1,10.3
		c9.7,3.4,21.2,4.3,24.6,0.5C176.3,158.8,182.9,113.3,178.7,108.8z"/>
	<path class="st31" d="M156.8,102.6c1.3,0.3,2.8,0.1,4.1-0.3c2-0.5,3.2-2.3,3.2-2.3l0.1-4.7l-9.1-0.7l-0.3,5.8
		C155.1,101.4,155.6,102.3,156.8,102.6z"/>
	<g>
		<path class="st26" d="M175.1,149.2c-0.7,3.1-4,5.2-7.4,4.6l0,0c-3.4-0.6-5.6-3.6-5-6.8l7.3-34.7c0.7-3.1,4-5.2,7.4-4.6l0,0
			c3.4,0.6,5.6,3.6,5,6.8L175.1,149.2z"/>
	</g>
	<path class="st34" d="M170,88.8c-0.5,2.4-3.6,8.2-5.4,9.6c-3.2,2.6-9.6,4-13,1.6c-4.6-3.1-4.5-10.6-4.1-18.2s6.8-8.8,12.1-5.3
		C164.8,80,171.7,81.3,170,88.8z"/>
	<path class="st28" d="M173.6,80c-0.7-3.7-2.7-6.8-5.6-8.6c-0.9-0.6-2-1.1-3.2-1.5c-4.5-1.5-8.8-0.9-12.4,0.1
		c-9,2.5-6.6,14.1-6.3,14.1c0.4-0.7,0.7-1.9,1.1-2.3c0.9-0.8,2.2-0.9,3.3-0.3c0.5,0.3,3,2.9,8,1.8c2.8-0.7,4.6-1.3,5.7,1
		c0.6,1.3-1.2,2.6-1.8,3.9c-0.3,0.6-0.7,1.2-0.8,1.8c0,0.2,1.4,0.8,2.1,0.2c1.1-1,1.5-2.8,2.9-3.3c0.3-0.1,1.3,0.2,1.7,0.7
		c1.3,1.7-0.6,4.2-2.7,5.7c0.7-0.2-0.2,3.7-0.7,5.1c1.7-1.1,3.2-2.8,4.1-4.2c0.2-0.2,1.8-2.2,2.3-3.1
		C173.1,87.8,174.3,83.8,173.6,80z"/>
	<g>
		<g class="st5">
			<path class="st6" d="M177.6,164c0.5,0.3,0.8,0.8,1,1.4c0,0,0,0,0,0l0,9.1l-1.6-0.8l0-9.1c0,0,0,0,0,0c-0.1-0.7-0.5-1.2-1-1.4
				L177.6,164z"/>
			<path class="st7" d="M156.3,175.4c0.1-0.6,0.2-1.3,0.4-1.9c0.2-0.6,0.4-1.3,0.7-1.9c0.6-1.3,1.5-2.6,2.5-3.6
				c0.5-0.6,1.1-1.1,1.8-1.5c0.4-0.3,0.7-0.5,1.1-0.7l10.8-5.7c0.2-0.1,0.4-0.2,0.6-0.3c0.6-0.3,1.2-0.4,1.7-0.5
				c0.9-0.1,1.7,0,2.4,0.4l1.6,0.8c-0.7-0.4-1.5-0.5-2.4-0.4c-0.5,0.1-1.1,0.2-1.7,0.5c-0.2,0.1-0.4,0.2-0.6,0.3l-10.8,5.7
				c-0.4,0.2-0.8,0.4-1.1,0.7c-0.6,0.4-1.2,0.9-1.8,1.5c-1,1.1-1.9,2.3-2.5,3.6c-0.3,0.6-0.6,1.2-0.7,1.9c-0.2,0.6-0.3,1.3-0.4,1.9
				c0,0.1,0,0.1,0,0.2l0,8.5l-1.6-0.8l0-8.5C156.3,175.5,156.3,175.5,156.3,175.4z"/>
			<g>
				<path class="st8" d="M181.8,166.4c-0.1,1.8-1.2,3.5-3.2,5.1l0-5.9c-0.3-1.6-1.7-2.2-3.4-1.3l-10.8,5.7c-1.7,0.9-3.1,3-3.4,4.8
					l0,5.6v2.9l-3.2,1.7l0-3.9l0-4.6c0.3-3.7,3.1-8,6.5-9.8l10.8-5.7c3.5-1.8,6.3-0.5,6.6,2.9L181.8,166.4z"/>
			</g>
		</g>
	</g>
	<g>
		<polygon class="st35" points="51.6,222.7 56.4,220.1 56.4,164.2 51.6,166.7 		"/>
	</g>
	<g>
		<polygon class="st36" points="51.6,166.7 56.4,164.2 52,161.8 47.2,164.4 		"/>
	</g>
	<g>
		<polygon class="st37" points="47.2,164.4 47.2,220.4 51.6,222.7 51.6,166.7 		"/>
	</g>
	<g>
		<polygon class="st35" points="131.7,265 136.5,262.4 136.5,206.5 131.7,209 		"/>
	</g>
	<g>
		<polygon class="st36" points="131.7,209 136.5,206.5 132.1,204.2 127.3,206.7 		"/>
	</g>
	<g>
		<polygon class="st37" points="127.3,206.7 127.3,262.7 131.7,265 131.7,209 		"/>
	</g>
	<g>
		<polygon class="st35" points="185.4,237.7 190.2,235.1 190.2,189.4 185.4,192 		"/>
	</g>
	<g>
		<polygon class="st36" points="185.4,192 190.2,189.4 185.8,187.1 181,189.7 		"/>
	</g>
	<g>
		<polygon class="st37" points="181,189.7 181,235.3 185.4,237.7 185.4,192 		"/>
	</g>
	<g>
		<polygon class="st35" points="140.1,223.8 196.1,194 196.1,189.4 140.1,219.2 		"/>
	</g>
	<g>
		<polygon class="st38" points="140.1,219.2 196.1,189.4 96.5,136.8 40.5,166.6 		"/>
	</g>
	<g>
		<polygon class="st37" points="40.5,166.6 40.5,171.2 140.1,223.8 140.1,219.2 		"/>
	</g>
	<g>
		<g>
			<path class="st30" d="M151.3,176l-21.8,11.6c-0.1,0.1-0.3,0.1-0.4,0.2c0,0,0,0,0,0c-0.1,0-0.2,0.1-0.4,0.1l-0.1,0
				c-0.1,0-0.3,0.1-0.4,0.1c0,0,0,0-0.1,0c-0.1,0-0.3,0-0.4,0c0,0,0,0-0.1,0c-0.1,0-0.3,0-0.4,0c0,0,0,0-0.1,0c-0.1,0-0.2,0-0.3-0.1
				c-0.1,0-0.2,0-0.2-0.1c-0.1,0-0.2-0.1-0.3-0.1c0,0-0.1,0-0.1,0c-0.1-0.1-0.3-0.1-0.4-0.2l-11.7-6.2l3.2-1.7V179l1.7,0.9l0.4-0.2
				v0.5l4.7,2.5l0.4-0.2v0.4l6.4,3.4l2.9-1.5v-0.7l0.7,0.4l2.9-1.5v-0.7l0.6,0.3l2.9-1.5v-0.7l0.7,0.3l2.9-1.5v-0.7l0.6,0.3l2.9-1.5
				l0-2l-3-1.6l-2.9,1.5v0.7l-0.7-0.4l1.7-0.9l0-2l-3-1.6l-0.6,0.3v-0.6l-3-1.6l-0.6,0.3v-0.6l-3-1.6l-0.6,0.3v-0.6l-3-1.6l-0.6,0.3
				v-0.6l-3-1.6l-0.6,0.3V163l-3-1.6l-0.6,0.3v-0.6l-3-1.6l-0.6,0.3v-0.6l-3-1.6l-0.6,0.3v-0.6l-3-1.6l-2.9,1.5v0.7l-0.7-0.3
				l-2.9,1.5v0.9l-0.8-0.4l-3.4,1.8l-1.9,1l-1,0.5v0.7l-0.7-0.4l-2.9,1.5l0,2l6.2,3.3l0.3-0.2v0.3l4.6,2.4l-3.2,1.7v0.8l-14.3-7.6
				c0,0-0.1-0.1-0.1-0.1c0,0-0.1,0-0.1-0.1c0,0-0.1,0-0.1-0.1c0,0,0,0-0.1-0.1c0,0,0,0-0.1-0.1c0,0-0.1-0.1-0.1-0.1c0,0,0,0,0-0.1
				c0,0,0-0.1-0.1-0.1c0,0,0,0,0-0.1c0,0,0-0.1,0-0.1c0,0,0,0,0-0.1c0,0,0-0.1,0-0.1c0,0,0,0,0-0.1c0,0,0-0.1,0-0.1c0,0,0-0.1,0-0.1
				c0,0.5,0,1.1,0,1.6c0.3,0.1,0.5,0.2,0.8,0.3c1.2,0.6,2.1,1.5,2.9,2.6l35.1,18.5c0.1,0.1,0.2,0.1,0.4,0.2c0,0,0.1,0,0.1,0
				c0,0,0.1,0,0.1,0c0,0,0.1,0,0.1,0c0.1,0,0.2,0,0.2,0.1c0,0,0.1,0,0.1,0c0.1,0,0.2,0,0.2,0c0,0,0,0,0.1,0c0,0,0,0,0,0
				c0.1,0,0.2,0,0.3,0c0,0,0.1,0,0.1,0h0.1c0.1,0,0.2,0,0.3,0c0,0,0.1,0,0.1,0c0,0,0,0,0.1,0c0,0,0,0,0.1,0c0.1,0,0.2,0,0.3,0l0.1,0
				c0,0,0.1,0,0.1,0c0,0,0.1,0,0.1,0c0.1,0,0.2-0.1,0.3-0.1c0,0,0,0,0,0h0c0.1-0.1,0.3-0.1,0.4-0.2l21.8-11.6c0.5-0.3,0.8-0.6,0.8-1
				c0-0.7,0-1.3,0-2C152.1,175.4,151.9,175.7,151.3,176z"/>
			<g>
				<path class="st39" d="M87.8,165.6l21.8-11.6c1-0.5,2.7-0.5,3.7,0l38,20.1c1,0.5,1,1.4,0,2l-21.8,11.6c-1,0.5-2.7,0.5-3.7,0
					l-38-20C86.8,167,86.8,166.1,87.8,165.6z"/>
				<g>
					<polygon class="st7" points="108.3,162.8 105.3,164.3 108.4,165.9 111.3,164.4 					"/>
				</g>
				<g>
					<polygon class="st7" points="103.6,164.1 100.7,165.7 103.7,167.2 106.6,165.7 					"/>
				</g>
				<g>
					<polygon class="st7" points="99.4,162.1 96.1,163.9 94.1,164.9 93.2,165.4 98.2,168.1 101.1,166.6 99.6,165.7 102.9,164 					
						"/>
				</g>
				<g>
					<polygon class="st7" points="107,165.9 104.1,167.5 107.1,169 110,167.5 					"/>
				</g>
				<g>
					<polygon class="st7" points="92.5,165.8 89.6,167.3 95.8,170.6 98.7,169.1 					"/>
				</g>
				<g>
					<polygon class="st7" points="99,169.2 96.1,170.7 100.8,173.2 103.7,171.7 					"/>
				</g>
				<g>
					<polygon class="st7" points="108.3,170.4 105.4,171.9 108.4,173.5 111.3,171.9 					"/>
				</g>
				<g>
					<polygon class="st7" points="106.7,158.2 103.8,159.8 106.8,161.4 109.7,159.8 					"/>
				</g>
				<g>
					<polygon class="st7" points="110.3,160.1 107.4,161.7 110.4,163.3 113.3,161.7 					"/>
				</g>
				<g>
					<polygon class="st7" points="103.2,160.1 100.3,161.6 104.9,164.1 107.8,162.6 					"/>
				</g>
				<g>
					<polygon class="st7" points="113.9,162 111,163.6 114,165.2 116.9,163.6 					"/>
				</g>
				<g>
					<polygon class="st7" points="117.5,163.9 114.6,165.5 117.6,167.1 120.5,165.5 					"/>
				</g>
				<g>
					<polygon class="st7" points="111.7,164.6 108.8,166.2 111.8,167.8 114.7,166.2 					"/>
				</g>
				<g>
					<polygon class="st7" points="121.1,165.8 118.2,167.4 121.2,169 124.1,167.4 					"/>
				</g>
				<g>
					<polygon class="st7" points="115.1,166.4 112.2,168 115.2,169.6 118.1,168 					"/>
				</g>
				<g>
					<polygon class="st7" points="101.5,166.8 98.6,168.3 101.6,169.9 104.5,168.4 					"/>
				</g>
				<g>
					<polygon class="st7" points="124.6,167.7 121.7,169.3 124.7,170.9 127.6,169.3 					"/>
				</g>
				<g>
					<polygon class="st7" points="110.4,167.7 107.5,169.2 110.5,170.8 113.4,169.3 					"/>
				</g>
				<g>
					<polygon class="st7" points="118.5,168.3 115.6,169.8 118.6,171.4 121.5,169.9 					"/>
				</g>
				<g>
					<polygon class="st7" points="104.9,168.6 102,170.1 105,171.7 107.9,170.2 					"/>
				</g>
				<g>
					<polygon class="st7" points="113.8,169.5 110.9,171 113.9,172.6 116.8,171.1 					"/>
				</g>
				<g>
					<polygon class="st7" points="128.2,169.6 125.3,171.2 128.3,172.8 131.2,171.2 					"/>
				</g>
				<g>
					<polygon class="st7" points="121.9,170.1 119,171.6 122,173.2 124.9,171.7 					"/>
				</g>
				<g>
					<polygon class="st7" points="117.2,171.3 114.3,172.8 117.3,174.4 120.2,172.9 					"/>
				</g>
				<g>
					<polygon class="st7" points="131.8,171.5 128.9,173.1 131.9,174.7 134.8,173.1 					"/>
				</g>
				<g>
					<polygon class="st7" points="125.4,171.9 122.5,173.4 125.5,175 128.4,173.5 					"/>
				</g>
				<g>
					<polygon class="st7" points="111.8,172.2 108.9,173.7 111.9,175.3 114.8,173.8 					"/>
				</g>
				<g>
					<polygon class="st7" points="120.5,173.1 117.6,174.6 120.6,176.2 123.5,174.7 					"/>
				</g>
				<g>
					<polygon class="st7" points="135.4,173.4 132.5,175 135.5,176.6 138.4,175 					"/>
				</g>
				<g>
					<polygon class="st7" points="128.8,173.7 125.9,175.3 128.9,176.8 131.8,175.3 					"/>
				</g>
				<g>
					<polygon class="st7" points="115.1,174 112.2,175.5 115.2,177.1 118.1,175.6 					"/>
				</g>
				<g>
					<polygon class="st7" points="123.9,174.9 121,176.4 124,178 126.9,176.5 					"/>
				</g>
				<g>
					<polygon class="st7" points="118.5,175.8 115.6,177.3 118.6,178.9 121.5,177.4 					"/>
				</g>
				<g>
					<polygon class="st7" points="140.3,176.1 137.4,177.6 140.4,179.2 143.3,177.7 					"/>
				</g>
				<g>
					<polygon class="st7" points="127.3,176.7 124.4,178.2 127.4,179.8 130.3,178.3 					"/>
				</g>
				<g>
					<polygon class="st7" points="104,171.9 101.1,173.4 114.3,180.4 117.2,178.9 					"/>
				</g>
				<g>
					<polygon class="st7" points="121.8,177.6 118.9,179.1 121.9,180.7 124.8,179.2 					"/>
				</g>
				<g>
					<polygon class="st7" points="132.4,175.6 129.5,177.2 136.9,181.1 139.8,179.5 					"/>
				</g>
				<g>
					<polygon class="st7" points="130.7,178.5 127.8,180 133.3,183 136.2,181.4 					"/>
				</g>
				<g>
					<polygon class="st7" points="117.6,179.1 114.7,180.7 119.4,183.1 122.3,181.6 					"/>
				</g>
				<g>
					<polygon class="st7" points="125.2,179.4 122.4,180.9 129.8,184.8 132.7,183.3 					"/>
				</g>
				<g>
					<polygon class="st7" points="122.7,181.8 119.8,183.4 126.2,186.7 129.1,185.2 					"/>
				</g>
				<g>
					<polygon class="st7" points="123.2,161.1 118.9,163.4 129.7,169.1 134,166.8 					"/>
				</g>
			</g>
		</g>
	</g>
	<path class="st34" d="M174,145.3c-1.8-2.7-5.6-3.5-8.5-1.8l-27.7,18.4l0,0c-1.1,0.3-3.1,0.6-4.6,1.3c-3.2,1.3-6.1,2.8-7,5.1
		c-1.9,4.8,0.2,6.4,2.6,6.8c3.6,0.7,12.8-7,12.8-7l30.5-14.9C174.9,151.5,175.8,148,174,145.3z"/>
	<path class="st27" d="M177.4,107.8c-3.4-0.6-6.7,1.5-7.4,4.6l-6.6,31.3l-27.6,17.7c1.8,2.2,7.9,7.1,8.3,7.5l27.3-15.5
		c1.8-0.8,3.2-2.3,3.6-4.2l7.3-34.7C183,111.4,180.8,108.4,177.4,107.8z"/>
	<path class="st34" d="M140.1,120.8c-1.1,6.6-1.7,11.1-2.9,18.5l-19,18.1c0,0-6.7,10.6-10.6,11c-2.6,0.3-5.4-0.7-5.1-6.2
		c0.1-2.6,2.5-5,5.3-7.3c1.3-1.1,3.2-2,4.2-2.7l22.3-26.9C135.3,124.2,139.6,120.1,140.1,120.8z"/>
	<path class="st27" d="M135,121.2l-24.1,29.9c1.2,0.7,8.8,5.3,9.9,6l16.4-17.8c1.2-7.4,1.8-11.9,2.9-18.5
		C139.6,120.1,136,120.1,135,121.2z"/>
	<g>
		<g>
			<path class="st30" d="M87.1,142C87.1,142,87.2,141.9,87.1,142c0.2-0.1,0.4-0.2,0.6-0.3c0.2-0.1,0.4-0.2,0.5-0.3
				c0.3-0.2,0.8-0.2,1.4,0.1l38.7,20.4c1.1,0.6,1.9,1.9,1.9,3l-0.1,23.5c0,0.5-0.2,0.9-0.6,1.1c-0.5,0.2-0.9,0.5-1.4,0.7
				c0.3-0.2,0.6-0.6,0.6-1.1l0.1-23.5c0-1.1-0.9-2.5-1.9-3l-38.7-20.4c-0.5-0.3-1-0.3-1.4-0.1C87,142.1,87,142,87.1,142z"/>
		</g>
		<path class="st40" d="M126.9,162.6l-38.7-20.4c-1.1-0.6-1.9-0.1-1.9,1l-0.1,23.5c0,1.1,0.9,2.5,1.9,3l38.7,20.4
			c1.1,0.6,1.9,0.1,1.9-1l0.1-23.5C128.8,164.5,128,163.2,126.9,162.6z"/>
	</g>
	<path class="st33" d="M155.3,137l10.4-20l-0.5-5.4c0,0,2.2-1.9,2.9-3.5c3.1-6.1-4-8-4-8L155.3,137z"/>
	<g>
		<g>
			<g>
				<polygon class="st30" points="96.2,191.1 96.2,191.7 114.4,201.3 114.4,200.8 				"/>
			</g>
			<polygon class="st40" points="118.2,196.4 115.7,195 113.6,193.9 109.5,191.8 105.1,189.4 102.2,187.9 96.2,191.1 97.7,191.9 
				102.3,194.4 106.5,196.6 109.6,198.2 111,199 114.4,200.8 120.5,197.6 			"/>
		</g>
		<path class="st40" d="M103.5,182.3c-0.9-0.5-2.4-0.5-3.2,0c-0.5,0.3-0.7,0.6-0.6,1l-2,1.1l-1.6-0.8l6-3.2l2.9,1.5l-1.2,0.6
			C103.8,182.5,103.7,182.4,103.5,182.3z"/>
		<g>
			<path class="st41" d="M103.7,174.1v16.1c0,0.9-0.8,1.6-1.7,1.6c-0.9,0-1.7-0.7-1.7-1.6v-16.1H103.7z"/>
			<path class="st42" d="M103.4,179.9v10.3c0,0.7-0.6,1.3-1.4,1.3c-0.8,0-1.4-0.6-1.4-1.3v-10.3H103.4z"/>
			<g>
				<path class="st43" d="M102.9,179.3c0.6,0.3,0.6,0.8,0,1.1c-0.5,0.3-1.4,0.3-2,0c-0.6-0.3-0.6-0.8,0-1.1
					C101.5,179,102.4,179,102.9,179.3z"/>
			</g>
			<g>
				<path class="st44" d="M104,174.2v-0.3c0,0.3-0.2,0.5-0.6,0.8c-0.8,0.4-2.1,0.4-2.9,0c-0.4-0.2-0.6-0.5-0.6-0.8v0.3
					c0,0.3,0.2,0.6,0.6,0.8c0.8,0.4,2.1,0.4,2.9,0C103.8,174.7,104,174.5,104,174.2z"/>
			</g>
			<g>
				<path class="st41" d="M103.4,173.1c0.8,0.4,0.9,1.1,0.1,1.6c-0.8,0.4-2.1,0.4-2.9,0c-0.8-0.4-0.9-1.1-0.1-1.6
					C101.2,172.7,102.6,172.7,103.4,173.1z"/>
				<path class="st44" d="M102,174.7c0.5,0,1-0.1,1.3-0.3c0.3-0.2,0.4-0.3,0.4-0.5c0-0.2-0.2-0.4-0.5-0.5c-0.3-0.2-0.8-0.3-1.3-0.3
					c-0.5,0-1,0.1-1.3,0.3c-0.3,0.2-0.4,0.3-0.4,0.5c0,0.2,0.2,0.4,0.5,0.5C101,174.6,101.5,174.7,102,174.7z"/>
			</g>
		</g>
		<g>
			<g class="st5">
				<g>
					<polygon class="st45" points="97,184.2 97,191.1 96.5,191.3 96.5,184.2 					"/>
				</g>
				<g>
					<polygon class="st30" points="96.5,184.2 96.5,191.3 96.2,191.1 96.2,184.2 					"/>
				</g>
			</g>
		</g>
		<path class="st40" d="M99.7,183.3c0.1,0.3,0.3,0.5,0.7,0.7c0.9,0.5,2.4,0.5,3.2,0c0.7-0.4,0.8-1,0.3-1.4l1.2-0.6l4.4,2.3l-1.2,0.6
			c-0.1-0.1-0.2-0.2-0.4-0.3c-0.9-0.5-2.4-0.5-3.2,0c-0.6,0.3-0.8,0.8-0.5,1.2l-1.8,1l-4.6-2.4L99.7,183.3z"/>
		<g>
			<path class="st41" d="M108,176.5v16.1c0,0.9-0.8,1.6-1.7,1.6c-0.9,0-1.7-0.7-1.7-1.6v-16.1H108z"/>
			<path class="st42" d="M107.8,182.2v10.3c0,0.7-0.6,1.3-1.4,1.3c-0.8,0-1.4-0.6-1.4-1.3v-10.3H107.8z"/>
			<g>
				<path class="st43" d="M107.3,181.7c0.6,0.3,0.6,0.8,0,1.1c-0.5,0.3-1.4,0.3-2,0c-0.6-0.3-0.6-0.8,0-1.1
					C105.8,181.4,106.7,181.4,107.3,181.7z"/>
			</g>
			<g>
				<path class="st44" d="M108.4,176.6v-0.3c0,0.3-0.2,0.5-0.6,0.8c-0.8,0.4-2.1,0.4-2.9,0c-0.4-0.2-0.6-0.5-0.6-0.8v0.3
					c0,0.3,0.2,0.6,0.6,0.8c0.8,0.4,2.1,0.4,2.9,0C108.2,177.1,108.4,176.8,108.4,176.6z"/>
			</g>
			<g>
				<path class="st41" d="M107.8,175.5c0.8,0.4,0.9,1.1,0.1,1.6c-0.8,0.4-2.1,0.4-2.9,0c-0.8-0.4-0.9-1.1-0.1-1.6
					C105.6,175.1,106.9,175.1,107.8,175.5z"/>
				<path class="st44" d="M106.3,177.1c0.5,0,1-0.1,1.3-0.3c0.3-0.2,0.4-0.3,0.4-0.5c0-0.2-0.2-0.4-0.5-0.5
					c-0.3-0.2-0.8-0.3-1.3-0.3c-0.5,0-1,0.1-1.3,0.3c-0.3,0.2-0.4,0.3-0.4,0.5c0,0.2,0.2,0.4,0.5,0.5
					C105.4,177,105.8,177.1,106.3,177.1z"/>
			</g>
		</g>
		<path class="st40" d="M104.2,185.8c0.1,0.2,0.3,0.4,0.6,0.5c0.9,0.5,2.4,0.5,3.2,0c0.7-0.4,0.8-1,0.4-1.4l1.2-0.6l4,2.1l-1.1,0.6
			c-0.1,0-0.1-0.1-0.2-0.1c-0.9-0.5-2.4-0.5-3.2,0c-0.6,0.3-0.8,0.8-0.6,1.1l-1.9,1.1l-4.2-2.2L104.2,185.8z"/>
		<g>
			<path class="st41" d="M112.4,178.7v16.1c0,0.9-0.8,1.6-1.7,1.6s-1.7-0.7-1.7-1.6v-16.1H112.4z"/>
			<path class="st42" d="M112.1,184.5v10.3c0,0.7-0.6,1.3-1.4,1.3s-1.4-0.6-1.4-1.3v-10.3H112.1z"/>
			<g>
				<path class="st43" d="M111.6,183.9c0.6,0.3,0.6,0.8,0,1.1c-0.5,0.3-1.4,0.3-2,0c-0.6-0.3-0.6-0.8,0-1.1
					C110.2,183.7,111.1,183.6,111.6,183.9z"/>
			</g>
			<g>
				<path class="st44" d="M112.7,178.8v-0.3c0,0.3-0.2,0.5-0.6,0.8c-0.8,0.4-2.1,0.4-2.9,0c-0.4-0.2-0.6-0.5-0.6-0.8v0.3
					c0,0.3,0.2,0.6,0.6,0.8c0.8,0.4,2.1,0.4,2.9,0C112.5,179.4,112.7,179.1,112.7,178.8z"/>
			</g>
			<g>
				<path class="st41" d="M112.1,177.7c0.8,0.4,0.9,1.1,0.1,1.6c-0.8,0.4-2.1,0.4-2.9,0c-0.8-0.4-0.9-1.1-0.1-1.6
					C110,177.3,111.3,177.3,112.1,177.7z"/>
				<path class="st44" d="M110.7,179.4c0.5,0,1-0.1,1.3-0.3c0.3-0.2,0.4-0.3,0.4-0.5c0-0.2-0.2-0.4-0.5-0.5
					c-0.3-0.2-0.8-0.3-1.3-0.3c-0.5,0-1,0.1-1.3,0.3c-0.3,0.2-0.4,0.3-0.4,0.5c0,0.2,0.2,0.4,0.5,0.5
					C109.7,179.3,110.2,179.4,110.7,179.4z"/>
			</g>
		</g>
		<path class="st40" d="M116.7,189.2c-0.9-0.5-2.4-0.5-3.2,0c-0.6,0.3-0.8,0.8-0.5,1.2l-1.9,1l-1.4-0.7l-3.1-1.6l1.9-1.1
			c0.1,0.2,0.3,0.4,0.6,0.6c0.9,0.5,2.4,0.5,3.2,0c0.8-0.4,0.8-1.1,0.1-1.6l1.1-0.6l2.1,1.1l2.5,1.3l-1.1,0.6
			C117,189.3,116.8,189.2,116.7,189.2z"/>
		<g>
			<path class="st41" d="M116.9,181.2v16.1c0,0.9-0.8,1.6-1.7,1.6c-0.9,0-1.7-0.7-1.7-1.6v-16.1H116.9z"/>
			<path class="st42" d="M116.6,186.9v10.3c0,0.7-0.6,1.3-1.4,1.3c-0.8,0-1.4-0.6-1.4-1.3v-10.3H116.6z"/>
			<g>
				<path class="st43" d="M116.1,186.4c0.6,0.3,0.6,0.8,0,1.1c-0.5,0.3-1.4,0.3-2,0c-0.6-0.3-0.6-0.8,0-1.1
					C114.7,186.1,115.6,186.1,116.1,186.4z"/>
			</g>
			<g>
				<path class="st44" d="M117.2,181.2V181c0,0.3-0.2,0.5-0.6,0.8c-0.8,0.4-2.1,0.4-2.9,0c-0.4-0.2-0.6-0.5-0.6-0.8v0.3
					c0,0.3,0.2,0.6,0.6,0.8c0.8,0.4,2.1,0.4,2.9,0C117,181.8,117.2,181.5,117.2,181.2z"/>
			</g>
			<g>
				<path class="st41" d="M116.6,180.2c0.8,0.4,0.9,1.1,0.1,1.6c-0.8,0.4-2.1,0.4-2.9,0c-0.8-0.4-0.9-1.1-0.1-1.6
					C114.5,179.7,115.8,179.7,116.6,180.2z M115.2,180.9L115.2,180.9L115.2,180.9L115.2,180.9L115.2,180.9L115.2,180.9z"/>
				<path class="st44" d="M115.2,181.8c0.5,0,1-0.1,1.3-0.3c0.3-0.2,0.4-0.3,0.4-0.5c0-0.2-0.2-0.4-0.5-0.5
					c-0.3-0.2-0.8-0.3-1.3-0.3c-0.5,0-1,0.1-1.3,0.3c-0.3,0.2-0.4,0.3-0.4,0.5c0,0.2,0.2,0.4,0.5,0.5
					C114.2,181.7,114.7,181.8,115.2,181.8z"/>
				<path class="st44" d="M102,174.7c0.5,0,1-0.1,1.3-0.3c0.3-0.2,0.4-0.3,0.4-0.5c0-0.2-0.2-0.4-0.5-0.5c-0.3-0.2-0.8-0.3-1.3-0.3
					c-0.5,0-1,0.1-1.3,0.3c-0.3,0.2-0.4,0.3-0.4,0.5c0,0.2,0.2,0.4,0.5,0.5C101,174.6,101.5,174.7,102,174.7z"/>
				<path class="st44" d="M106.3,175.5c-0.5,0-1,0.1-1.3,0.3c-0.3,0.2-0.4,0.3-0.4,0.5c0,0.2,0.2,0.4,0.5,0.5
					c0.3,0.2,0.8,0.3,1.3,0.3c0.5,0,1-0.1,1.3-0.3c0.3-0.2,0.4-0.3,0.4-0.5c0-0.2-0.2-0.4-0.5-0.5
					C107.3,175.6,106.8,175.5,106.3,175.5z"/>
				<path class="st44" d="M110.7,179.4c0.5,0,1-0.1,1.3-0.3c0.3-0.2,0.4-0.3,0.4-0.5c0-0.2-0.2-0.4-0.5-0.5
					c-0.3-0.2-0.8-0.3-1.3-0.3c-0.5,0-1,0.1-1.3,0.3c-0.3,0.2-0.4,0.3-0.4,0.5c0,0.2,0.2,0.4,0.5,0.5
					C109.7,179.3,110.2,179.4,110.7,179.4z"/>
			</g>
		</g>
		<g>
			<g class="st5">
				<polygon class="st45" points="114.4,201.3 114.4,200.8 114.4,200.8 114.4,193.3 120.5,190 120.5,197.8 120.5,197.8 120.5,198.1 
									"/>
				<g>
					<polygon class="st30" points="96.2,183.6 96.2,184.2 114.4,193.8 114.4,193.3 					"/>
				</g>
				<g>
					<polygon class="st45" points="96.9,186.5 96.9,187.7 115.2,197.4 115.2,196.1 					"/>
				</g>
				<g>
					<polygon class="st30" points="96.2,186.5 96.2,187.8 114.4,197.4 114.4,196.2 					"/>
				</g>
			</g>
		</g>
		<path class="st40" d="M112.9,190.4c0.1,0.2,0.3,0.4,0.6,0.5c0.9,0.5,2.4,0.5,3.2,0c0.7-0.4,0.8-1,0.3-1.5l1.1-0.6l2.3,1.2l-6,3.2
			l-3.4-1.8L112.9,190.4z"/>
		<g>
			<g>
				<g>
					<path class="st46" d="M116.4,180.5c-0.3-0.2-0.8-0.3-1.3-0.3c-0.5,0-1,0.1-1.3,0.3c-0.2,0.1-0.4,0.3-0.4,0.5c0,0,0,0,0-0.1
						c0-0.2,0.2-0.4,0.4-0.5c0.3-0.2,0.8-0.3,1.3-0.3c0.5,0,1,0.1,1.3,0.3c0.3,0.2,0.5,0.4,0.5,0.6c0,0,0,0.1,0,0.1
						C116.9,180.9,116.7,180.7,116.4,180.5z"/>
				</g>
				<g>
					<path class="st46" d="M107.6,175.9c-0.3-0.2-0.8-0.3-1.3-0.3c-0.5,0-1,0.1-1.3,0.3c-0.2,0.1-0.4,0.3-0.4,0.5c0,0,0,0,0-0.1
						c0-0.2,0.2-0.4,0.4-0.5c0.3-0.2,0.8-0.3,1.3-0.3c0.5,0,1,0.1,1.3,0.3c0.3,0.2,0.5,0.4,0.5,0.5c0,0,0,0.1,0,0.1
						C108.1,176.2,107.9,176,107.6,175.9z"/>
				</g>
				<g>
					<path class="st46" d="M112,178.1c-0.3-0.2-0.8-0.3-1.3-0.3c-0.5,0-1,0.1-1.3,0.3c-0.2,0.1-0.4,0.3-0.4,0.5c0,0,0,0,0-0.1
						c0-0.2,0.2-0.4,0.4-0.5c0.3-0.2,0.8-0.3,1.3-0.3c0.5,0,1,0.1,1.3,0.3c0.3,0.2,0.5,0.4,0.5,0.5c0,0,0,0.1,0,0.1
						C112.4,178.4,112.2,178.2,112,178.1z"/>
				</g>
				<g>
					<path class="st46" d="M103.2,173.5c-0.3-0.2-0.8-0.3-1.3-0.3c-0.5,0-1,0.1-1.3,0.3c-0.2,0.1-0.4,0.3-0.4,0.5c0,0,0,0,0-0.1
						c0-0.2,0.2-0.4,0.4-0.5c0.3-0.2,0.8-0.3,1.3-0.3c0.5,0,1,0.1,1.3,0.3c0.3,0.2,0.5,0.4,0.5,0.5c0,0,0,0.1,0,0.1
						C103.7,173.8,103.5,173.6,103.2,173.5z"/>
				</g>
			</g>
		</g>
	</g>
	<g>
		<path class="st41" d="M138.8,200c0-0.5,0-0.5-0.1-0.8c-0.1-0.4-0.1-0.5-0.2-0.8c-0.2-0.4-0.2-0.4-0.3-0.7
			c-0.2-0.4-0.2-0.4-0.4-0.7c-0.3-0.3-0.3-0.4-0.5-0.6c-0.3-0.3-0.3-0.3-0.7-0.6c-0.4-0.3-0.4-0.3-0.7-0.5c-0.4-0.2-0.4-0.2-0.7-0.3
			c-0.3-0.1-0.4-0.1-0.5-0.2v0.2c1,0.5,1,1.4-0.1,1.9c-1,0.5-2.7,0.5-3.6,0c-0.5-0.3-0.7-0.6-0.7-1c0,0,0,0,0,0c0-0.3,0-0.6,0-0.9
			c-0.1,0-0.2,0.1-0.3,0.1c-0.4,0.2-0.5,0.3-0.9,0.6c-0.4,0.3-0.4,0.3-0.7,0.6c-0.3,0.3-0.3,0.4-0.5,0.6c-0.2,0.4-0.3,0.4-0.4,0.7
			c-0.2,0.4-0.2,0.4-0.3,0.7c-0.1,0.4-0.1,0.4-0.2,0.8c-0.1,0.4-0.1,0.5-0.1,0.8c0,0.1,0,0.3,0,0.4c0,0.2,0,0.4,0.1,0.5l0,0.1l0,0
			l0,0l0,0l0,0c0.2,0.5,0.2,0.6,0.3,0.9c0.1,0.1,0.1,0.3,0.2,0.4c0.1,0.2,0.2,0.4,0.4,0.6c0.1,0.1,0.2,0.2,0.3,0.3
			c0.2,0.2,0.4,0.4,0.5,0.5c0.2,0.2,0.4,0.3,0.6,0.5c0.1,0.1,0.3,0.2,0.5,0.3c0.4,0.2,0.4,0.2,0.7,0.3c0.4,0.2,0.4,0.2,0.6,0.2
			c0.4,0.1,0.4,0.1,0.6,0.1c0.4,0.1,0.4,0.1,0.5,0.1c0.4,0,0.4,0,0.5,0c0.4,0,0.4,0,0.5,0c0.4,0,0.4,0,0.5-0.1
			c0.4-0.1,0.4-0.1,0.6-0.1c0.4-0.1,0.4-0.1,0.6-0.2c0.4-0.2,0.4-0.2,0.7-0.3c0.4-0.2,0.5-0.3,0.7-0.4c0.4-0.3,0.4-0.3,0.8-0.6
			c0.1-0.1,0.2-0.2,0.3-0.3c0.1-0.2,0.3-0.4,0.4-0.6c0.1-0.2,0.3-0.5,0.4-0.7c0.1-0.1,0.1-0.3,0.2-0.4c0-0.1,0.1-0.3,0.1-0.5
			c0,0.1,0,0.1-0.1,0.2c0.1-0.2,0.1-0.4,0.2-0.6C138.7,200.5,138.7,200.2,138.8,200z"/>
		<g>
			<path class="st42" d="M130,204.4c-0.4-0.2-0.6-0.4-1-0.7c-0.3-0.2-0.6-0.6-0.7-0.8c-0.3-0.5-0.4-0.6-0.7-1.2
				c-0.1-0.2-0.2-0.5-0.3-1c0.1,0.6,0.6,1.3,1.5,1.8c2.1,1.2,5.6,1.2,7.8,0.1c1-0.5,1.6-1.2,1.7-1.9c0,0.2-0.1,0.4-0.1,0.6
				c-0.1,0.2-0.2,0.5-0.3,0.7c0,0.1-0.2,0.5-0.6,1c-0.5,0.6-1.3,1.2-2,1.5c-0.9,0.4-1.7,0.5-2.7,0.5
				C131.7,205.1,130.7,204.8,130,204.4z"/>
		</g>
		<path class="st43" d="M136.8,198.6c-2.1-1.2-5.6-1.2-7.8-0.1s-2.3,3-0.2,4.1c2.1,1.2,5.6,1.2,7.8,0.1
			C138.9,201.6,138.9,199.7,136.8,198.6z"/>
		<path class="st47" d="M130.5,199c-0.5,0.6-1.4,0.9-1.9,0.5c-0.5-0.4-0.5-1.2,0-1.8c0.5-0.6,1.4-0.9,1.9-0.5
			C131,197.5,131,198.3,130.5,199z"/>
		<path class="st47" d="M129.8,200.8c-0.1,0.4-0.5,0.6-0.8,0.4c-0.3-0.1-0.4-0.5-0.3-0.8c0.2-0.4,0.5-0.6,0.8-0.4
			C129.8,200.1,130,200.5,129.8,200.8z"/>
		<rect x="130.2" y="192" class="st41" width="5.3" height="3.9"/>
		<g>
			<g>
				<path class="st41" d="M130.2,196.1l0-2.5c0,0.3,0.2,0.7,0.7,1c1,0.6,2.7,0.6,3.8,0c0.5-0.3,0.8-0.6,0.8-1l0,2.5
					c0,0.4-0.3,0.7-0.8,1c-1.1,0.5-2.7,0.5-3.8,0C130.4,196.8,130.2,196.5,130.2,196.1z"/>
			</g>
		</g>
		<g>
			<g>
				<path class="st44" d="M129.6,192.2v-0.5c0,0.4,0.3,0.9,0.9,1.2c1.2,0.7,3.3,0.7,4.6,0c0.7-0.3,1-0.8,1-1.2v0.5
					c0,0.5-0.3,0.9-1,1.2c-1.3,0.7-3.4,0.6-4.6,0C129.9,193.1,129.6,192.6,129.6,192.2z"/>
			</g>
		</g>
		<path class="st41" d="M135.2,190.5c1.2,0.7,1.2,1.8-0.1,2.4c-1.3,0.7-3.3,0.6-4.6,0c-1.2-0.7-1.2-1.8,0.1-2.4
			C131.9,189.8,133.9,189.9,135.2,190.5z"/>
		<path class="st44" d="M132.8,193c-0.8,0-1.5-0.2-2.1-0.5c-0.4-0.2-0.7-0.5-0.7-0.8c0-0.3,0.3-0.6,0.7-0.8c0.5-0.3,1.2-0.4,2-0.4
			c0.8,0,1.5,0.2,2.1,0.5c0.4,0.2,0.7,0.5,0.7,0.8c0,0.3-0.3,0.6-0.7,0.8C134.3,192.8,133.6,193,132.8,193z"/>
		<path class="st46" d="M130.8,191.4c0.5-0.3,1.2-0.4,2-0.4c0.8,0,1.5,0.2,2.1,0.5c0.3,0.2,0.5,0.4,0.6,0.6c0-0.1,0.1-0.1,0.1-0.2
			c0-0.3-0.2-0.6-0.7-0.8c-0.5-0.3-1.3-0.5-2.1-0.5c-0.8,0-1.5,0.2-2,0.4c-0.5,0.2-0.7,0.5-0.7,0.8c0,0.1,0,0.2,0.1,0.2
			C130.3,191.7,130.5,191.5,130.8,191.4z"/>
	</g>
	<g>
		<g>
			<g>
				<polygon class="st48" points="162.5,190.3 159.3,196.3 159.1,191.8 				"/>
			</g>
			<g>
				<g>
					<path class="st41" d="M143.7,203.7l0-12.8c0,1,0.7,2,2.2,2.9c3,1.6,7.9,1.7,11,0.1c1.6-0.8,2.4-1.9,2.4-3l0,12.8
						c0,1.1-0.8,2.2-2.4,3c-3.1,1.6-8,1.5-11-0.1C144.4,205.8,143.7,204.8,143.7,203.7z"/>
				</g>
			</g>
			<g>
				<path class="st49" d="M157.1,188c3,1.6,2.9,4.3-0.2,5.9c-3.1,1.6-8,1.5-11-0.1c-3-1.6-2.9-4.3,0.2-5.9
					C149.2,186.3,154.1,186.4,157.1,188z"/>
			</g>
			<g>
				<path class="st50" d="M156.9,188.1c2.9,1.6,2.8,4.1-0.2,5.6c-3,1.5-7.7,1.5-10.6-0.1c-2.9-1.6-2.8-4.1,0.2-5.6
					C149.3,186.5,154,186.6,156.9,188.1z"/>
			</g>
			<polygon class="st49" points="158,188.6 162.5,190.3 158.8,192.1 			"/>
			<polygon class="st50" points="157.9,188.9 161.9,190.3 158.6,191.9 			"/>
		</g>
		<path class="st47" d="M148.1,201c-0.1,0.6-0.5,1-1,1c-0.5-0.1-0.8-0.6-0.7-1.1c0.1-0.6,0.5-1,1-1
			C147.9,199.9,148.2,200.4,148.1,201z"/>
		<g>
			<path class="st50" d="M156.9,188.1c2.9,1.6,2.8,4.1-0.2,5.6c-3,1.5-7.7,1.5-10.6-0.1c-2.9-1.6-2.8-4.1,0.2-5.6
				C149.3,186.5,154,186.6,156.9,188.1z"/>
		</g>
		<g>
			<path class="st51" d="M144,199.6l0,4.1c0,1,0.7,2,2.1,2.7c2.8,1.6,7.6,1.6,10.5,0.1c1.5-0.8,2.3-1.8,2.3-2.9l0-4H144z"/>
		</g>
		<g>
			<path class="st52" d="M156.9,196.9c2.9,1.6,2.8,4.1-0.2,5.6c-3,1.5-7.7,1.5-10.6-0.1s-2.8-4.1,0.2-5.6
				C149.3,195.2,154,195.3,156.9,196.9z"/>
		</g>
		<g>
			<g>
				<path class="st53" d="M156.4,195.8c0.8-0.1,1.3-0.3,2-0.7v0.5c-0.6,0.4-1.2,0.5-2,0.6V195.8z"/>
			</g>
			<g>
				<path class="st53" d="M156.4,197.3c0.8-0.1,1.3-0.3,2-0.7v0.5c-0.6,0.4-1.2,0.5-2,0.6V197.3z"/>
			</g>
			<g>
				<path class="st53" d="M156.4,198.9c0.8-0.1,1.3-0.3,2-0.7v0.5c-0.6,0.4-1.2,0.6-2,0.6V198.9z"/>
			</g>
			<g>
				<path class="st53" d="M156.4,200.5c0.8-0.1,1.3-0.3,2-0.7v0.5c-0.6,0.4-1.2,0.5-2,0.6V200.5z"/>
			</g>
			<g>
				<path class="st53" d="M156.4,202c0.8-0.1,1.3-0.3,2-0.7v0.5c-0.6,0.4-1.2,0.5-2,0.6V202z"/>
			</g>
			<g>
				<path class="st53" d="M156.4,203.6c0.8-0.1,1.3-0.3,2-0.7v0.5c-0.6,0.4-1.2,0.5-2,0.6V203.6z"/>
			</g>
		</g>
		<path class="st47" d="M147.7,197.3c-0.1,1.1-1,1.9-1.9,1.8c-0.9-0.1-1.5-1.1-1.3-2.1c0.1-1.1,1-1.9,1.9-1.8
			C147.3,195.3,147.9,196.3,147.7,197.3z"/>
	</g>
	<g>
		<path class="st41" d="M147.2,210.1c-0.3-0.9-0.9-1.6-1.6-2.4c0,0,0.1,0.1,0.1,0.1c-0.9-1.1-1.8-2.1-2.8-3.2h-2.9h-2.9
			c-0.9,1.1-1.9,2.1-2.8,3.2c0,0,0.1-0.1,0.1-0.1c-0.6,0.7-1.3,1.5-1.6,2.4c-0.3,1.2,0.2,2.4,1.2,3.2c1.6,1.3,3.8,1.8,5.9,1.8
			c2.1,0,4.4-0.5,5.9-1.8C147,212.4,147.5,211.3,147.2,210.1z"/>
		<g>
			<rect x="137.2" y="202.1" class="st41" width="5.7" height="3.7"/>
		</g>
		<g>
			<path class="st41" d="M142.6,198.9c1.3,0.7,1.3,1.9-0.1,2.6c-1.4,0.7-3.6,0.7-4.9-0.1c-1.3-0.7-1.3-1.9,0.1-2.6
				C139,198.2,141.2,198.2,142.6,198.9z"/>
			<path class="st44" d="M140.1,201.6c-0.9,0-1.7-0.2-2.3-0.5c-0.5-0.3-0.7-0.6-0.7-0.9c0-0.3,0.3-0.7,0.8-0.9
				c0.6-0.3,1.4-0.5,2.2-0.5c0.9,0,1.7,0.2,2.3,0.5c0.5,0.3,0.7,0.6,0.7,0.9c0,0.3-0.3,0.7-0.8,0.9
				C141.7,201.4,140.9,201.6,140.1,201.6z"/>
			<path class="st46" d="M137.9,199.6c0.6-0.3,1.4-0.5,2.2-0.5c0.9,0,1.7,0.2,2.3,0.5c0.4,0.2,0.6,0.4,0.7,0.7c0-0.1,0-0.1,0-0.2
				c0-0.3-0.3-0.6-0.7-0.9c-0.6-0.3-1.4-0.5-2.3-0.5c-0.8,0-1.6,0.2-2.2,0.5c-0.5,0.3-0.8,0.6-0.8,0.9c0,0.1,0,0.1,0,0.2
				C137.2,200.1,137.5,199.9,137.9,199.6z"/>
		</g>
		<g>
			<path class="st44" d="M136.6,201.1v-0.9c0,0.5,0.3,0.9,1,1.3c1.3,0.7,3.5,0.8,4.9,0.1c0.7-0.4,1.1-0.9,1.1-1.3v0.9
				c0,0.5-0.4,1-1.1,1.3c-1.4,0.7-3.6,0.7-4.9,0C136.9,202,136.6,201.6,136.6,201.1z"/>
		</g>
		<path class="st54" d="M146.1,208.8L146.1,208.8c-0.5-0.6-1-1.2-1.6-1.8c-0.2-0.3-0.5-0.5-0.9-0.7c-1.9-1-5-1.1-6.9-0.1
			c-0.5,0.2-0.8,0.5-1.1,0.8c0,0.1-0.1,0.1-0.2,0.2c0,0-0.1,0.1-0.1,0.1c0,0.1-0.1,0.1-0.2,0.2c0,0.1-0.1,0.1-0.2,0.2
			c0,0-0.1,0.1-0.1,0.1c0,0.1-0.1,0.1-0.2,0.2c0,0.1-0.1,0.1-0.2,0.2c0,0-0.1,0.1-0.1,0.1c0,0.1-0.1,0.1-0.2,0.2
			c0,0.1-0.1,0.1-0.2,0.2c0,0-0.1,0.1-0.1,0.1c0,0.1-0.1,0.1-0.2,0.2l0,0c-0.1,0.1-0.4,0.5-0.6,0.9c-0.1,0.1-0.2,0.5-0.3,1
			c0,0.3-0.1,1,0.6,1.8c0.6,0.8,1.5,1.2,2.1,1.4c0.6,0.3,1.2,0.4,1.5,0.5c0.6,0.1,1.3,0.2,1.5,0.2c0.3,0,1.1,0.1,2,0
			c0.9-0.1,1.5-0.2,2-0.3c0.3-0.1,1.8-0.4,2.8-1.3c0.9-0.7,1.2-1.5,1.2-2C147,210.2,146.7,209.5,146.1,208.8z"/>
		<g>
			<path class="st55" d="M146.8,209.9c-0.2-0.5-0.4-0.8-0.7-1.1c0,0,0,0,0,0c-0.5-0.6-1-1.2-1.6-1.8c0.9,1,0.5,2.2-1.1,3
				c-2,1-5.1,1-6.9-0.1c-1.4-0.8-1.7-1.9-0.9-2.9c0,0.1-0.1,0.1-0.2,0.2c0,0-0.1,0.1-0.1,0.1c0,0.1-0.1,0.1-0.2,0.2
				c0,0.1-0.1,0.1-0.2,0.2c0,0-0.1,0.1-0.1,0.1c0,0.1-0.1,0.1-0.2,0.2c0,0.1-0.1,0.1-0.2,0.2c0,0-0.1,0.1-0.1,0.1
				c0,0.1-0.1,0.1-0.2,0.2c0,0.1-0.1,0.1-0.2,0.2c0,0-0.1,0.1-0.1,0.1c0,0.1-0.1,0.1-0.2,0.2c0,0,0,0,0,0c-0.5,0.6-0.7,1.1-0.7,1.3
				c-0.1,0.3-0.1,0.6-0.1,0.7c0,0.2,0.1,0.5,0.1,0.6c0,0.1,0.1,0.3,0.3,0.6c0,0.1,0.2,0.3,0.4,0.5c0.5,0.5,1,0.8,1.3,0.9
				c0.3,0.2,0.9,0.4,1.3,0.6c0.5,0.1,0.6,0.2,0.9,0.3c0.3,0.1,0.6,0.1,1,0.2c1.3,0.2,2.7,0.1,4-0.1c1-0.2,1.6-0.5,1.9-0.6
				c0.3-0.1,0.5-0.3,0.8-0.4c0.1-0.1,0.3-0.2,0.5-0.3c0.2-0.1,0.6-0.5,0.9-1c0.3-0.5,0.4-0.9,0.4-1.1
				C147,210.7,146.9,210.3,146.8,209.9z"/>
		</g>
		<path class="st56" d="M136.8,209.3c-0.5,0.6-1.3,0.8-1.8,0.5c-0.5-0.3-0.5-1.1,0-1.7c0.5-0.6,1.3-0.8,1.8-0.5
			C137.3,207.9,137.3,208.7,136.8,209.3z"/>
		<path class="st47" d="M136.3,211.2c-0.1,0.3-0.5,0.5-0.8,0.4c-0.3-0.1-0.4-0.4-0.2-0.8c0.1-0.3,0.5-0.5,0.8-0.4
			S136.5,210.9,136.3,211.2z"/>
	</g>
	<g>
		<g>
			<g class="st5">
				<g>
					<polygon class="st57" points="79.3,168.8 76.9,167.5 76.2,168.6 78.7,169.9 					"/>
				</g>
				<g>
					<polygon class="st58" points="81.5,167.7 79,166.4 76.9,167.5 79.3,168.8 					"/>
				</g>
				<g>
					<polygon class="st42" points="79.3,168.8 78.7,169.9 81.7,168.3 81.5,167.7 					"/>
				</g>
			</g>
		</g>
		<g>
			<g class="st5">
				<g>
					<polygon class="st57" points="67.5,175 65,173.7 64.4,174.8 66.9,176.1 					"/>
				</g>
				<g>
					<polygon class="st58" points="69.6,173.9 67.2,172.6 65,173.7 67.5,175 					"/>
				</g>
				<g>
					<polygon class="st42" points="67.5,175 66.9,176.1 69.9,174.5 69.6,173.9 					"/>
				</g>
			</g>
		</g>
		<g>
			<g>
				<polygon class="st59" points="65,176.5 46.7,166.8 46.7,164.9 65,174.6 				"/>
			</g>
			<g>
				<polygon class="st60" points="65,174.7 46.7,165 63.8,156 82,165.6 				"/>
			</g>
			<g>
				<polygon class="st61" points="82,165.6 82,167.5 65,176.5 65,174.7 				"/>
			</g>
		</g>
		<g>
			<g class="st5">
				<g>
					<polygon class="st61" points="67,170.4 76.5,165.5 73.9,162.6 67,168.6 					"/>
				</g>
				<g>
					<polygon class="st59" points="59.6,165.3 59.6,167.1 67,170.4 67,168.6 					"/>
				</g>
			</g>
		</g>
		<g>
			<g class="st5">
				<g class="st5">
					<g class="st5">
						<path class="st62" d="M66.3,162l-0.5-0.3c0,0,0,0,0.1,0c0,0,0,0,0.1,0l0.5,0.3C66.5,162,66.4,162,66.3,162
							C66.4,162,66.4,162,66.3,162L66.3,162z"/>
						<path class="st63" d="M66.5,162l-0.5-0.3c0.2,0.1,0.4,0,0.7-0.1c0.3-0.2,0.6-0.5,0.8-0.8L68,161c-0.2,0.4-0.5,0.7-0.8,0.8
							C66.9,162,66.7,162.1,66.5,162L66.5,162z"/>
						<path class="st62" d="M68,161.1l-0.5-0.3c0,0,0,0,0-0.1L68,161.1C68,161,68,161,68,161.1L68,161.1z"/>
					</g>
				</g>
				<g class="st5">
					<g class="st5">
						<path class="st62" d="M68,161l-0.5-0.3c0.4-0.7,0.4-1.4-0.1-1.6l0.5,0.3C68.4,159.6,68.4,160.3,68,161L68,161z"/>
					</g>
				</g>
				<g class="st5">
					<g class="st5">
						<path class="st62" d="M66.3,162l-0.5-0.3c0,0,0,0,0.1,0c0,0,0,0,0.1,0l0.5,0.3C66.5,162,66.4,162,66.3,162
							C66.4,162,66.4,162,66.3,162L66.3,162z"/>
					</g>
				</g>
				<g class="st5">
					<g class="st5">
						<path class="st64" d="M65.4,163.5l-0.5-0.3c-0.9-0.5-1-2.1-0.1-3.6c0,0,0-0.1,0.1-0.1l0.5,0.3c0,0,0,0.1-0.1,0.1
							C64.3,161.5,64.4,163,65.4,163.5L65.4,163.5z"/>
						<path class="st64" d="M65.3,159.8l-0.5-0.3c0.5-0.8,1.2-1.5,1.9-1.9c0.5-0.3,1-0.4,1.5-0.3l0.5,0.3c-0.5-0.1-1,0-1.5,0.3
							C66.5,158.3,65.8,159,65.3,159.8L65.3,159.8z"/>
						<path class="st62" d="M68.7,157.7l-0.5-0.3c0.1,0,0.1,0,0.2,0.1l0.5,0.3C68.8,157.7,68.7,157.7,68.7,157.7L68.7,157.7z"/>
					</g>
				</g>
				<g class="st5">
					<g class="st5">
						<path class="st62" d="M68.8,157.8l-0.5-0.3c0.1,0,0.1,0,0.1,0.1l0.5,0.3C68.9,157.8,68.9,157.8,68.8,157.8L68.8,157.8z"/>
					</g>
				</g>
				<g class="st5">
					<g class="st5">
						<path class="st65" d="M67.2,159.5l-0.5-0.3c0.2-0.1,0.5-0.2,0.7-0.1l0.5,0.3C67.6,159.3,67.4,159.4,67.2,159.5L67.2,159.5z"/>
						<path class="st66" d="M67.8,159.3l-0.5-0.3c0,0,0.1,0,0.1,0c0,0,0,0,0.1,0l0.5,0.3C68,159.4,67.9,159.4,67.8,159.3
							C67.9,159.4,67.9,159.4,67.8,159.3L67.8,159.3z"/>
					</g>
				</g>
				<g class="st5">
					<g class="st5">
						<path class="st66" d="M66.3,162l-0.5-0.3c-0.4-0.2-0.5-0.9-0.1-1.6c0,0,0,0,0-0.1l0.5,0.3c0,0,0,0,0,0.1
							C65.9,161,65.9,161.7,66.3,162L66.3,162z"/>
						<path class="st65" d="M66.3,160.3l-0.5-0.3c0.2-0.4,0.5-0.7,0.8-0.8l0.5,0.3C66.9,159.6,66.5,159.9,66.3,160.3L66.3,160.3z"/>
					</g>
				</g>
				<g>
					<path class="st67" d="M68.8,157.8c1.1,0.4,1.2,2,0.3,3.7c-0.5,0.9-1.2,1.6-1.9,2c-0.6,0.3-1.2,0.4-1.7,0.2
						c-1.1-0.4-1.2-2-0.3-3.7c0.5-0.9,1.2-1.6,1.9-2C67.8,157.7,68.4,157.6,68.8,157.8z M68,161c0.4-0.7,0.4-1.5-0.1-1.6
						c-0.2-0.1-0.5,0-0.8,0.1c-0.3,0.2-0.6,0.5-0.9,0.9c-0.4,0.7-0.4,1.5,0.1,1.6c0.2,0.1,0.5,0,0.8-0.1
						C67.5,161.7,67.8,161.4,68,161L68,161z"/>
				</g>
				<g>
					<path class="st68" d="M67.2,159.5c0.3-0.1,0.5-0.2,0.8-0.1c0.5,0.2,0.5,0.9,0.1,1.6c-0.2,0.4-0.5,0.7-0.9,0.9
						c-0.3,0.1-0.5,0.2-0.8,0.1c-0.5-0.2-0.5-0.9-0.1-1.6C66.5,160,66.8,159.6,67.2,159.5z"/>
				</g>
			</g>
		</g>
		<g>
			<g class="st5">
				<g>
					<polygon class="st69" points="67.8,168.2 64.2,166.2 64.1,161.1 67.8,163.1 					"/>
				</g>
				<g class="st5">
					<path class="st61" d="M68.2,156.5c1.3-2.2,2.2-4.8,2.2-7c0-2.4-0.9-4.1-2.4-4.9l3.7,2c1.5,0.8,2.4,2.5,2.4,4.9
						c0,2.3-0.8,4.8-2.2,7c-1.1,1.8-2.5,3.4-4,4.6l-3.7-2C65.7,159.9,67.1,158.3,68.2,156.5z"/>
				</g>
				<path class="st60" d="M71.3,139.3c-0.5-0.3-1-0.5-1.6-0.6c-1.7-0.4-3.6-0.2-5.7,0.6l3.7,2c2.1-0.8,4-1,5.7-0.6
					c0.6,0.1,1.1,0.3,1.6,0.6L71.3,139.3z"/>
				<g>
					<polygon class="st69" points="67.8,146.4 64.1,144.4 64.1,139.3 67.8,141.3 					"/>
				</g>
				<g>
					<path class="st70" d="M67.8,141.3c3-1.2,5.7-1.1,7.8,0.2c2.1,1.4,3.3,4,3.3,7.4c0,3.6-1.3,7.7-3.6,11.5c-2,3.2-4.6,5.9-7.3,7.8
						l0-5.1c3.5-2.7,6.2-7.5,6.2-11.6c0-4.1-2.6-6.2-6.2-5L67.8,141.3z"/>
				</g>
			</g>
		</g>
		<g>
			<g>
				<path class="st42" d="M66.9,157.8l0-3.3c0,0.4-0.3,0.8-0.8,1.1c-1.1,0.6-3,0.6-4.2,0c-0.6-0.3-0.9-0.7-0.9-1.1l0,3.3
					c0,0.4,0.3,0.8,0.9,1.2c1.2,0.6,3.1,0.6,4.2,0C66.6,158.6,66.9,158.2,66.9,157.8z"/>
			</g>
			<g>
				<path class="st64" d="M68.7,154.5v-1.1c0,0.6-0.4,1.2-1.3,1.7c-1.8,1-4.8,1-6.7,0.1c-1-0.5-1.5-1.2-1.5-1.8v1.1
					c0,0.7,0.5,1.3,1.5,1.8c1.9,1,4.9,0.9,6.7-0.1C68.2,155.7,68.7,155.1,68.7,154.5z"/>
			</g>
			<path class="st71" d="M60.5,151.6c-1.8,1-1.8,2.6,0.1,3.6s4.9,0.9,6.7-0.1c1.8-1,1.8-2.6-0.1-3.6
				C65.3,150.5,62.3,150.6,60.5,151.6z"/>
			<g>
				<path class="st42" d="M67.7,153.3l0.1-16.5c0,0.5-0.4,1-1.1,1.4c-1.5,0.8-3.8,0.8-5.4,0.1c-0.8-0.4-1.2-0.9-1.2-1.5l-0.1,16.5
					c0,0.5,0.4,1.1,1.2,1.5c1.5,0.8,3.9,0.8,5.4-0.1C67.4,154.3,67.7,153.8,67.7,153.3z"/>
			</g>
			<g>
				<path class="st72" d="M66.6,135.4c1.5,0.8,1.6,2,0.1,2.8c-1.5,0.8-3.8,0.8-5.4,0.1c-1.5-0.8-1.6-2-0.1-2.8
					C62.7,134.6,65.1,134.6,66.6,135.4z M62,135.8c-1.1,0.6-1,1.5,0.1,2.1c1.1,0.6,2.8,0.5,3.9,0c1.1-0.6,1-1.5-0.1-2.1
					C64.8,135.2,63,135.2,62,135.8L62,135.8z"/>
			</g>
			<g>
				<path class="st64" d="M66.7,136.8l0-3.8c0,0.4-0.3,0.7-0.8,1c-1.1,0.6-2.8,0.6-3.9,0c-0.6-0.3-0.9-0.7-0.9-1.1l0,3.8
					c0,0.4,0.3,0.8,0.8,1.1c1.1,0.6,2.8,0.5,3.9,0C66.5,137.5,66.7,137.2,66.7,136.8z"/>
			</g>
			<g>
				<path class="st71" d="M62,132c-1.1,0.6-1,1.5,0.1,2.1c1.1,0.6,2.8,0.5,3.9,0c1.1-0.6,1-1.5-0.1-2.1
					C64.8,131.4,63.1,131.4,62,132z"/>
			</g>
			<g>
				<path class="st70" d="M62.5,132.2c-0.8,0.4-0.8,1.1,0.1,1.6c0.8,0.4,2.1,0.4,2.9,0c0.8-0.4,0.8-1.1-0.1-1.6
					C64.6,131.8,63.3,131.8,62.5,132.2z"/>
			</g>
		</g>
		<g>
			<g class="st5">
				<g class="st5">
					<g class="st5">
						<path class="st62" d="M71,144.8l-0.5-0.3c0,0,0,0,0.1,0c0,0,0.1,0,0.1,0l0.5,0.3C71.1,144.8,71.1,144.8,71,144.8
							C71,144.8,71,144.8,71,144.8L71,144.8z"/>
						<path class="st63" d="M71.1,144.9l-0.5-0.3c0.2,0.1,0.5,0,0.7-0.1c0.3-0.2,0.7-0.5,0.9-0.9l0.5,0.3c-0.2,0.4-0.6,0.7-0.9,0.9
							C71.6,144.9,71.3,144.9,71.1,144.9L71.1,144.9z"/>
						<path class="st62" d="M72.8,143.8l-0.5-0.3c0,0,0,0,0-0.1L72.8,143.8C72.8,143.8,72.8,143.8,72.8,143.8L72.8,143.8z"/>
					</g>
				</g>
				<g class="st5">
					<g class="st5">
						<path class="st62" d="M72.8,143.8l-0.5-0.3c0.4-0.8,0.4-1.5-0.1-1.7l0.5,0.3C73.2,142.3,73.2,143,72.8,143.8L72.8,143.8z"/>
					</g>
				</g>
				<g class="st5">
					<g class="st5">
						<path class="st62" d="M71,144.8l-0.5-0.3c0,0,0,0,0.1,0c0,0,0.1,0,0.1,0l0.5,0.3C71.1,144.8,71.1,144.8,71,144.8
							C71,144.8,71,144.8,71,144.8L71,144.8z"/>
					</g>
				</g>
				<g>
					<g class="st5">
						<path class="st67" d="M69.2,142.3c0,0,0-0.1,0.1-0.1c0.5-0.9,1.3-1.6,2-2c0.6-0.3,1.1-0.4,1.6-0.3l0.5,0.3
							c-0.5-0.1-1.1,0-1.6,0.3c-0.8,0.4-1.5,1.1-2,2c0,0,0,0.1-0.1,0.1c-1,1.7-0.9,3.4,0.1,3.9l-0.5-0.3
							C68.3,145.7,68.2,144,69.2,142.3z"/>
						<path class="st67" d="M73.5,140.2l-0.5-0.3c0.1,0,0.1,0,0.2,0.1l0.5,0.3C73.6,140.2,73.5,140.2,73.5,140.2L73.5,140.2z"/>
					</g>
				</g>
				<g class="st5">
					<g class="st5">
						<path class="st62" d="M73.7,140.2l-0.5-0.3c0.1,0,0.1,0,0.2,0.1l0.5,0.3C73.8,140.3,73.7,140.2,73.7,140.2L73.7,140.2z"/>
					</g>
				</g>
				<g class="st5">
					<g class="st5">
						<path class="st65" d="M71.8,142.1l-0.5-0.3c0.3-0.1,0.5-0.2,0.7-0.1l0.5,0.3C72.3,141.9,72.1,142,71.8,142.1L71.8,142.1z"/>
						<path class="st66" d="M72.6,142l-0.5-0.3c0,0,0.1,0,0.1,0c0,0,0.1,0,0.1,0l0.5,0.3C72.7,142,72.7,142,72.6,142
							C72.6,142,72.6,142,72.6,142L72.6,142z"/>
					</g>
				</g>
				<g class="st5">
					<g class="st5">
						<path class="st66" d="M71,144.8l-0.5-0.3c-0.5-0.2-0.5-1-0.1-1.7c0,0,0,0,0-0.1l0.5,0.3c0,0,0,0,0,0.1
							C70.5,143.8,70.5,144.6,71,144.8L71,144.8z"/>
						<path class="st65" d="M70.9,143l-0.5-0.3c0.2-0.4,0.6-0.7,0.9-0.9l0.5,0.3C71.5,142.3,71.2,142.6,70.9,143L70.9,143z"/>
					</g>
				</g>
				<g>
					<path class="st64" d="M73.7,140.2c1.2,0.4,1.3,2.2,0.3,4c-0.6,1-1.3,1.7-2.1,2.1c-0.6,0.3-1.3,0.4-1.8,0.3
						c-1.2-0.4-1.3-2.2-0.3-4c0.6-1,1.3-1.7,2.1-2.1C72.5,140.1,73.1,140,73.7,140.2z M72.8,143.8c0.4-0.8,0.4-1.6-0.1-1.8
						c-0.2-0.1-0.5,0-0.8,0.1c-0.4,0.2-0.7,0.5-0.9,1c-0.4,0.8-0.4,1.6,0.1,1.8c0.2,0.1,0.5,0,0.8-0.1
						C72.2,144.5,72.5,144.2,72.8,143.8L72.8,143.8z"/>
				</g>
				<g>
					<path class="st73" d="M71.8,142.1c0.3-0.2,0.6-0.2,0.8-0.1c0.5,0.2,0.6,1,0.1,1.8c-0.2,0.4-0.6,0.8-0.9,1
						c-0.3,0.2-0.6,0.2-0.8,0.1c-0.5-0.2-0.6-1-0.1-1.8C71.1,142.6,71.5,142.3,71.8,142.1z"/>
				</g>
			</g>
		</g>
		<g>
			<g class="st5">
				<g class="st5">
					<g class="st5">
						<path class="st62" d="M70.8,164l-0.5-0.3c0,0,0,0,0.1,0c0,0,0,0,0.1,0L71,164C70.9,164,70.9,164,70.8,164
							C70.9,164,70.8,164,70.8,164L70.8,164z"/>
						<path class="st63" d="M71,164l-0.5-0.3c0.2,0.1,0.4,0,0.7-0.1c0.3-0.2,0.6-0.5,0.8-0.8l0.5,0.3c-0.2,0.4-0.5,0.7-0.8,0.8
							C71.4,164,71.2,164.1,71,164L71,164z"/>
						<path class="st62" d="M72.5,163.1l-0.5-0.3c0,0,0,0,0-0.1L72.5,163.1C72.5,163,72.5,163,72.5,163.1L72.5,163.1z"/>
					</g>
				</g>
				<g class="st5">
					<g class="st5">
						<path class="st62" d="M72.5,163l-0.5-0.3c0.4-0.7,0.4-1.4-0.1-1.6l0.5,0.3C72.9,161.6,72.9,162.3,72.5,163L72.5,163z"/>
					</g>
				</g>
				<g class="st5">
					<g class="st5">
						<path class="st62" d="M70.8,164l-0.5-0.3c0,0,0,0,0.1,0c0,0,0,0,0.1,0L71,164C70.9,164,70.9,164,70.8,164
							C70.9,164,70.8,164,70.8,164L70.8,164z"/>
					</g>
				</g>
				<g class="st5">
					<g class="st5">
						<path class="st67" d="M69.2,161.7c0,0,0-0.1,0.1-0.1c0.5-0.8,1.2-1.5,1.9-1.9c0.5-0.3,1-0.4,1.5-0.3l0.5,0.3
							c-0.4-0.1-1,0-1.5,0.3c-0.7,0.4-1.4,1-1.9,1.9c0,0,0,0.1-0.1,0.1c-0.9,1.5-0.8,3.1,0.1,3.6l-0.5-0.3
							C68.4,164.8,68.3,163.2,69.2,161.7z"/>
						<path class="st62" d="M73.1,159.7l-0.5-0.3c0.1,0,0.1,0,0.2,0.1l0.5,0.3C73.3,159.7,73.2,159.7,73.1,159.7L73.1,159.7z"/>
					</g>
				</g>
				<g class="st5">
					<g class="st5">
						<path class="st62" d="M73.3,159.8l-0.5-0.3c0.1,0,0.1,0,0.2,0.1l0.5,0.3C73.4,159.8,73.4,159.8,73.3,159.8L73.3,159.8z"/>
					</g>
				</g>
				<g class="st5">
					<g class="st5">
						<path class="st65" d="M71.6,161.5l-0.5-0.3c0.2-0.1,0.5-0.2,0.7-0.1l0.5,0.3C72.1,161.3,71.9,161.4,71.6,161.5L71.6,161.5z"/>
						<path class="st66" d="M72.3,161.3l-0.5-0.3c0,0,0.1,0,0.1,0c0,0,0,0,0.1,0l0.5,0.3C72.4,161.4,72.4,161.4,72.3,161.3
							C72.4,161.4,72.3,161.4,72.3,161.3L72.3,161.3z"/>
					</g>
				</g>
				<g class="st5">
					<g class="st5">
						<path class="st66" d="M70.8,164l-0.5-0.3c-0.4-0.2-0.5-0.9-0.1-1.6c0,0,0,0,0-0.1l0.5,0.3c0,0,0,0,0,0.1
							C70.4,163,70.4,163.7,70.8,164L70.8,164z"/>
						<path class="st65" d="M70.8,162.3l-0.5-0.3c0.2-0.4,0.5-0.7,0.8-0.8l0.5,0.3C71.3,161.6,71,161.9,70.8,162.3L70.8,162.3z"/>
					</g>
				</g>
				<g>
					<path class="st64" d="M73.3,159.8c1.1,0.4,1.2,2,0.3,3.7c-0.5,0.9-1.2,1.6-1.9,2c-0.6,0.3-1.2,0.4-1.7,0.2
						c-1.1-0.4-1.2-2-0.3-3.7c0.5-0.9,1.2-1.6,1.9-2C72.2,159.7,72.8,159.6,73.3,159.8z M72.5,163c0.4-0.7,0.4-1.5-0.1-1.6
						c-0.2-0.1-0.5,0-0.8,0.1c-0.3,0.2-0.6,0.5-0.9,0.9c-0.4,0.7-0.4,1.5,0.1,1.6c0.2,0.1,0.5,0,0.8-0.1
						C72,163.7,72.3,163.4,72.5,163L72.5,163z"/>
				</g>
				<g>
					<path class="st73" d="M71.6,161.5c0.3-0.1,0.5-0.2,0.8-0.1c0.5,0.2,0.5,0.9,0.1,1.6c-0.2,0.4-0.5,0.7-0.9,0.9
						c-0.3,0.1-0.5,0.2-0.8,0.1c-0.5-0.2-0.5-0.9-0.1-1.6C71,162,71.3,161.6,71.6,161.5z"/>
				</g>
			</g>
		</g>
		<g>
			<g class="st5">
				<path class="st64" d="M54,164.9c0,1,0.8,2.1,2.3,2.9c3,1.6,7.9,1.6,10.9,0c1.5-0.8,2.3-1.9,2.3-2.9v0.6c0,0,0,0,0,0v0.5
					c0,1.1-0.8,2.1-2.3,2.9c-3,1.6-7.9,1.6-10.9,0c-1.5-0.8-2.2-1.8-2.3-2.9v-0.6c0,0,0,0,0,0L54,164.9z"/>
				<g>
					<path class="st71" d="M56.3,162c-3,1.6-3,4.2,0,5.8c3,1.6,7.9,1.6,10.9,0c3-1.6,3-4.2,0-5.8C64.2,160.4,59.3,160.4,56.3,162z"
						/>
				</g>
			</g>
		</g>
	</g>
	<g>
		<g>
			<path class="st74" d="M169.5,182c0,2.4-2.4,5.2-5.3,5.2c-3.6,0-5.3-2.4-5.6-4.8c-0.8-5.4,5.1-4.4,5.1-4.4S169.5,176.6,169.5,182z
				"/>
			<path class="st75" d="M163,178.2c-0.1,0-0.2,0-0.4,0c-0.4,0-0.9,0-1.2,0.2c-0.6,0.2-0.9,0.5-1.2,1c-0.3,0.5-0.6,1.1-0.7,1.7
				c-0.2,0.5-0.2,1,0.1,1.6c0.4,0.8,1.8,1.4,2.5,0.6c0.6-0.6,0.4-1.6,0.9-2.3c0.3-0.4,1-0.5,1.6-0.6c0.5-0.1,0.9-0.3,1.3-0.6
				c0.3-0.2,0.6-0.6,0.5-1C166.1,177.7,163.8,178.1,163,178.2z"/>
			<path class="st76" d="M166.3,177.9c0.3,0.4,0.6,0.9,0.6,1.3c0.3,1.8-0.1,3.5-1.4,4.9c-0.9,1-2.4,1.4-3.8,1
				c-2.2-0.6-2.9-2.7-2.6-4.6c0.2-0.9,0.8-1.6,1.5-2.2c-1.3,0.5-2.4,1.6-2,4.1c0.3,2.4,2,4.8,5.6,4.8c2.8,0,5.3-2.8,5.3-5.2
				C169.5,179.1,167.9,178.1,166.3,177.9z"/>
		</g>
		<path class="st77" d="M164.2,179c0,0-0.1,0-0.2,0c-0.1,0-0.2,0-0.3,0c-0.3,0-0.6-0.1-0.6-0.4c0-0.2,0.2-0.3,0.4-0.4c0,0,0,0,0,0
			s0,0,0,0c0,0,0.1,0,0.1,0c0,0,0.1,0,0.1,0c0.1,0,0.1,0,0.2,0h0c0.2,0,0.4,0,0.6,0.1C165.2,178.5,164.4,178.9,164.2,179z"/>
		<path class="st78" d="M161.9,175.8c-0.1,0.1,0.1,0.4,0.1,0.5c0.1,0.2,0.3,0.4,0.5,0.6c0.4,0.4,0.9,0.8,1.5,0.8c0,0,0,0,0,0
			s0,0,0,0c0.1,0,0-0.1,0-0.1c-0.4-0.2-0.8-0.5-1.1-0.8c-0.2-0.2-0.3-0.4-0.5-0.5C162.2,176.2,162.1,176,161.9,175.8
			C161.9,175.8,161.9,175.8,161.9,175.8z"/>
		<path class="st79" d="M162.7,177.7c-0.9,0.8-3.1-1.1-3-3.8C159.7,173.9,165.7,175,162.7,177.7z"/>
		<path class="st78" d="M164.9,176.4c-0.4,0.5-0.7,1.2-0.8,1.8c-0.1,0.3-0.1,0.6-0.1,0.8c-0.1,0-0.2,0-0.3,0
			c-0.1-0.3-0.1-0.5-0.1-0.8c0-0.5,0.1-1,0.3-1.5c0.1-0.2,0.2-0.5,0.4-0.6c0.2-0.1,0.5-0.1,0.7-0.1
			C165.1,176.1,164.9,176.4,164.9,176.4z"/>
	</g>
	<ellipse class="st80" cx="149.1" cy="88" rx="1.1" ry="1"/>
	<ellipse class="st80" cx="155.8" cy="89" rx="1.1" ry="1"/>
	<polygon class="st81" points="151.3,89 149.1,94.1 151.3,94.1 	"/>
	<path class="st82" d="M149.1,96.1c0,0,2.8,3.6,6.1-0.5"/>
</g>
</svg>
