<svg xmlns="http://www.w3.org/2000/svg" viewBox="0 0 34.585 38.862">
  <defs/>
  <g data-name="Group 4057">
    <path fill="#f58862" d="M27.411 27.001H7.971l.746 11.861h17.954zm-9.718 7.87a1.972 1.972 0 112.327-1.94 2.158 2.158 0 01-2.327 1.94z" data-name="Path 57687"/>
    <g data-name="Group 3309">
      <path fill="#f58862" d="M29.459 20.058a2.82 2.82 0 00-2.984-2.016l-3.587.028v-1.327a9.176 9.176 0 003.984-7.568 8.924 8.924 0 00-.06-1.054A9.018 9.018 0 0017.818 0a8.742 8.742 0 00-8.762 6.1l-.038.106-.028.118a10.393 10.393 0 00-.318 2.425 9.668 9.668 0 004.095 8.131v1.235l-4.518.082a3.073 3.073 0 00-3.12 1.857L.259 32.16a3.556 3.556 0 001.959 4.617 5.011 5.011 0 004.051-.4L5.59 25.544h.2l-.041-.635h10.153l-.867-4.919 3.055 1.633 2.66-1.626-.543 4.911h9.426l-.739 11.798a5.354 5.354 0 003.47.073 3.553 3.553 0 001.965-4.613zm-8.775-4.581v1.98l-2.666 1.633-3.051-1.632v-1.864a7.271 7.271 0 01-4.1-6.813 8.475 8.475 0 01.251-1.921c.022-.06.045-.12.067-.178 4.362 2.59 8.191-2.28 13.169.384a7.3 7.3 0 01.266 1.3 7.74 7.74 0 01.044.81 6.976 6.976 0 01-3.981 6.301z" data-name="Path 57688"/>
    </g>
  </g>
</svg>
