<?xml version="1.0" encoding="utf-8"?>
<!-- Generator: Adobe Illustrator 25.1.0, SVG Export Plug-In . SVG Version: 6.00 Build 0)  -->
<svg version="1.1" id="Layer_1" xmlns="http://www.w3.org/2000/svg" xmlns:xlink="http://www.w3.org/1999/xlink" x="0px" y="0px"
	 viewBox="0 0 300 265" style="enable-background:new 0 0 300 265;" xml:space="preserve">
<style type="text/css">
	.st0{fill:#E6FFFF;}
	.st1{fill:#09454F;}
	.st2{fill:none;stroke:#3DA381;stroke-width:2;stroke-miterlimit:10;}
	.st3{fill:#3DA381;}
	.st4{fill:#966432;}
	.st5{fill:#BFD5FF;}
	.st6{fill:#766A5A;}
	.st7{fill:#387477;}
	.st8{fill:#246066;}
	.st9{fill:#277A56;}
	.st10{fill:none;stroke:#96B3E2;stroke-width:0.75;stroke-linecap:round;stroke-linejoin:round;stroke-miterlimit:10;}
	.st11{fill:none;stroke:#96B3E2;stroke-miterlimit:10;}
	.st12{fill:#DCEAFF;}
	.st13{fill:#FFA17F;}
	.st14{fill:#DD7C5E;}
	.st15{fill:#00333F;}
	.st16{fill:#9C9B9B;}
	.st17{fill:none;stroke:#B25E52;stroke-width:0.75;stroke-linecap:round;stroke-linejoin:round;stroke-miterlimit:10;}
	.st18{fill:#1E646B;}
	.st19{fill:none;stroke:#96B3E2;stroke-width:0.5;stroke-miterlimit:10;}
	.st20{fill:none;stroke:#387477;stroke-width:0.5;stroke-linecap:round;stroke-linejoin:round;stroke-miterlimit:10;}
	.st21{fill:#FFED00;}
	.st22{fill:none;stroke:#FFFFFF;stroke-width:0.75;stroke-linecap:round;stroke-linejoin:round;stroke-miterlimit:10;}
	.st23{fill:none;stroke:#FFFFFF;stroke-width:0.5;stroke-linecap:round;stroke-linejoin:round;stroke-miterlimit:10;}
	.st24{opacity:0.68;fill:#F7EA3A;enable-background:new    ;}
	.st25{opacity:0.27;fill:#FFED00;enable-background:new    ;}
	.st26{fill:none;stroke:#9C9B9B;stroke-width:0.75;stroke-miterlimit:10;}
	.st27{fill:#9C9B9B;stroke:#CDCDCD;stroke-width:0.75;stroke-linecap:round;stroke-linejoin:round;stroke-miterlimit:10;}
	.st28{fill:#CDCDCD;}
	.st29{fill:#5E4F45;}
	.st30{fill:none;stroke:#3DA381;stroke-width:0.5;stroke-linecap:round;stroke-linejoin:round;stroke-miterlimit:10;}
	.st31{fill:#A06E3C;}
	.st32{fill:none;stroke:#307F61;stroke-width:3;stroke-miterlimit:10;}
	.st33{fill:#1A585B;}
</style>
<g id="OBJECT">
	<g>
		<g>
			<g>
				<polygon class="st0" points="3,82.6 4.9,139.5 92.6,139.5 88.3,82.6 				"/>
				<path class="st1" d="M90.1,83.9H1.2c-0.7,0-1.2-0.5-1.2-1.2l0,0c0-0.7,0.5-1.2,1.2-1.2h88.9c0.7,0,1.2,0.5,1.2,1.2l0,0
					C91.3,83.4,90.8,83.9,90.1,83.9z"/>
				<path class="st1" d="M93.1,140.7H4.2c-0.7,0-1.2-0.5-1.2-1.2l0,0c0-0.7,0.5-1.2,1.2-1.2h88.9c0.7,0,1.2,0.5,1.2,1.2l0,0
					C94.3,140.2,93.7,140.7,93.1,140.7z"/>
				<g>
					<path class="st2" d="M14.5,96.9c0,0,13.7-2.8,21.5,2.4s8.9,19.9,34.1,17.9"/>
					<path class="st2" d="M14.1,117.2c0,0,13.7,2.3,21.5-3.1c7.7-5.4,9.8-19.9,35.1-18.7"/>
					<path class="st3" d="M15.1,97.2c0,0.8-0.5,1.5-1.2,1.5s-1.3-0.7-1.3-1.5s0.5-1.5,1.2-1.5S15.1,96.4,15.1,97.2z"/>
					<path class="st3" d="M15.3,117.1c0,0.8-0.5,1.5-1.2,1.5s-1.3-0.7-1.3-1.5s0.5-1.5,1.2-1.5C14.8,115.6,15.3,116.3,15.3,117.1z"
						/>
					<path class="st3" d="M71.9,95.2c0,0.8-0.5,1.5-1.2,1.5s-1.3-0.7-1.3-1.5s0.5-1.5,1.2-1.5C71.3,93.7,71.9,94.4,71.9,95.2z"/>
					<path class="st3" d="M71.4,117.2c0,0.8-0.5,1.5-1.2,1.5s-1.3-0.7-1.3-1.5s0.5-1.5,1.2-1.5C70.8,115.7,71.4,116.4,71.4,117.2z"
						/>
					<line class="st2" x1="17" y1="96.2" x2="17.3" y2="117.6"/>
					<line class="st2" x1="20.3" y1="96.2" x2="20.6" y2="117.5"/>
					<line class="st2" x1="23.6" y1="96.1" x2="23.9" y2="117.5"/>
					<line class="st2" x1="26.9" y1="96.1" x2="27.2" y2="117.4"/>
					<line class="st2" x1="30.3" y1="96.9" x2="30.5" y2="116.5"/>
					<line class="st2" x1="33.6" y1="98" x2="33.8" y2="115.1"/>
					<line class="st2" x1="36.9" y1="99.7" x2="37" y2="113.1"/>
					<line class="st2" x1="40.2" y1="103.2" x2="40.3" y2="109.5"/>
					<line class="st2" x1="68.5" y1="95.3" x2="68.7" y2="117.1"/>
					<line class="st2" x1="65.2" y1="95.4" x2="65.4" y2="117.1"/>
					<line class="st2" x1="61.9" y1="96" x2="62.1" y2="117.2"/>
					<line class="st2" x1="58.6" y1="96.3" x2="58.8" y2="117.2"/>
					<line class="st2" x1="55.3" y1="97.3" x2="55.5" y2="116.4"/>
					<line class="st2" x1="52" y1="98.4" x2="52.2" y2="115.2"/>
					<line class="st2" x1="48.8" y1="100.2" x2="48.9" y2="113.3"/>
					<line class="st2" x1="45.5" y1="103.2" x2="45.6" y2="109.9"/>
				</g>
				<polygon class="st3" points="75.3,123.3 76.1,134.1 87.9,134.1 86.8,123.3 				"/>
				<polygon class="st3" points="63.2,123.6 73.8,123.6 74.1,125.5 63.6,125.5 				"/>
				<polygon class="st3" points="63.6,127.2 74.2,127.2 74.5,129.1 64,129.1 				"/>
				<polygon class="st3" points="64,130.8 74.6,130.8 74.9,132.7 64.4,132.7 				"/>
			</g>
			<g>
				<path class="st4" d="M298.8,76.4h-65.9c-0.7,0-1.2-0.6-1.2-1.2l0,0c0-0.7,0.6-1.2,1.2-1.2h65.9c0.7,0,1.2,0.6,1.2,1.2l0,0
					C300,75.8,299.4,76.4,298.8,76.4z"/>
				<g>
					<path class="st5" d="M249.2,47.4l-1.9-1.1v-2h-1.1h-2.6h-1.1v2l-1.9,1.1c-1.8,1.1-3,3.4-3,5.8v20.7h6h2.6h6V53.2
						C252.2,50.7,251,48.5,249.2,47.4z"/>
					<path class="st6" d="M238.7,73v-3c0,0,2.2-0.9,4.1-1c1.9-0.1,3.7,0.9,5.2,0.9s2.6-0.2,2.6-0.2V73H238.7z"/>
					<g>
						<path class="st7" d="M245.7,69.9h-0.4c0,0,0.1-3-0.8-5.4c-0.9-2.4-2.7-3.6-2.7-3.7l0.2-0.4c0.1,0.1,2,1.4,2.9,3.9
							C245.8,66.7,245.7,69.7,245.7,69.9z"/>
					</g>
					<g>
						<path class="st7" d="M244.5,63.6l-0.4-0.1c0.7-2.9,3.1-4.6,3.2-4.6l0.2,0.4C247.5,59.3,245.2,60.9,244.5,63.6z"/>
					</g>
					<path class="st3" d="M239.3,59c0,0,0.8,2.2,1.6,2.9s2.4,0.4,2.4,0.4s0.6-1.3-0.5-2.4C241.5,58.4,239.3,59,239.3,59z"/>
					<path class="st3" d="M249.9,57.4c0,0-0.8,2.2-1.6,2.9s-2.4,0.4-2.4,0.4s-0.6-1.3,0.5-2.4C247.6,56.9,249.9,57.4,249.9,57.4z"/>
				</g>
				<g>
					<path class="st5" d="M287.4,73.9h-25.5V72c0-1.1,0.9-2,2-2h21.5c1.1,0,2,0.9,2,2V73.9z"/>
					<path class="st6" d="M264.9,69.9c0,0,1.4-1.9,4.3-2.3s6.8,1.4,8.8,0.5c2-1,6-0.3,7.1,1.9L264.9,69.9L264.9,69.9z"/>
					<path class="st7" d="M271.2,68.1c0,0-4.2-2-5.8-4c-1.6-2-2.6-3.5-1.1-3.9c1.6-0.5,4.2,2.2,4.2,2.2s-3.3-5.1-2.3-6.9
						c1-1.8,4.1,2,4.1,2s-2.5-5.4-0.8-6.9s3.5,3.9,3.5,3.9s-0.5-6.2,1.7-6.5s2,6.2,2,6.2s2.2-5.4,3.8-3.4c1.6,2-0.9,6.1-0.9,6.1
						s3.1-2.6,4.2-0.8s-2.4,5.7-2.4,5.7s4.4-3.1,5.3-1s-6.2,7.6-8.7,8S271.2,68.1,271.2,68.1z"/>
				</g>
				<g>
					<path class="st1" d="M261.1,81v23.8c0,0.8-0.5,1.4-1.2,1.4h-4c-0.6,0-1.2-0.6-1.2-1.4V81c0-0.8,0.5-1.4,1.2-1.4h4
						C260.6,79.6,261.1,80.2,261.1,81z"/>
					<rect x="254.8" y="83.3" class="st7" width="6.3" height="1.1"/>
					<rect x="254.8" y="85.4" class="st7" width="6.3" height="1.1"/>
					<rect x="254.8" y="100" class="st7" width="6.3" height="1.1"/>
					<rect x="254.8" y="102.1" class="st7" width="6.3" height="1.1"/>
				</g>
				<g>
					<path class="st1" d="M242.2,81v23.8c0,0.8-0.5,1.4-1.2,1.4h-4c-0.6,0-1.2-0.6-1.2-1.4V81c0-0.8,0.5-1.4,1.2-1.4h4
						C241.6,79.6,242.2,80.2,242.2,81z"/>
					<rect x="235.9" y="83.3" class="st7" width="6.3" height="1.1"/>
					<rect x="235.9" y="85.4" class="st7" width="6.3" height="1.1"/>
					<rect x="235.9" y="100" class="st7" width="6.3" height="1.1"/>
					<rect x="235.9" y="102.1" class="st7" width="6.3" height="1.1"/>
					<rect x="237.8" y="88.2" class="st7" width="2.3" height="9.7"/>
				</g>
				<g>
					<path class="st8" d="M248.5,81v23.8c0,0.8-0.5,1.4-1.2,1.4h-4c-0.6,0-1.2-0.6-1.2-1.4V81c0-0.8,0.5-1.4,1.2-1.4h4
						C248,79.6,248.5,80.2,248.5,81z"/>
					<rect x="244.2" y="88.2" class="st7" width="2.3" height="9.7"/>
				</g>
				<path class="st9" d="M267,80.5l7.8,21.8c0.3,0.7,0,1.5-0.6,1.8l-3.6,1.9c-0.6,0.3-1.3,0-1.5-0.7l-7.8-21.8
					c-0.3-0.7,0-1.5,0.6-1.8l3.6-1.9C266.1,79.4,266.8,79.8,267,80.5z"/>
				<g>
					<path class="st9" d="M254.8,81v23.8c0,0.8-0.5,1.4-1.2,1.4h-4c-0.6,0-1.2-0.6-1.2-1.4V81c0-0.8,0.5-1.4,1.2-1.4h4
						C254.3,79.6,254.8,80.2,254.8,81z"/>
					<rect x="250.5" y="88.2" class="st3" width="2.3" height="9.7"/>
				</g>
				<g>
					<path class="st4" d="M298.8,108.6h-65.9c-0.7,0-1.2-0.6-1.2-1.2l0,0c0-0.7,0.6-1.2,1.2-1.2h65.9c0.7,0,1.2,0.6,1.2,1.2l0,0
						C300,108.1,299.4,108.6,298.8,108.6z"/>
					<rect x="233.9" y="85.9" class="st4" width="1.9" height="20.2"/>
				</g>
			</g>
			<g>
				<polygon class="st10" points="122.3,37.6 122.3,27.1 114.7,21.9 107.2,27.1 107.2,37.6 114.7,42.8 				"/>
				<polygon class="st10" points="114.7,53.4 114.7,42.9 107.2,37.7 99.6,42.9 99.6,53.4 107.2,58.6 				"/>
				<polygon class="st10" points="95,40 95,29.5 87.4,24.3 79.9,29.5 79.9,40 87.4,45.2 				"/>
				<path class="st11" d="M107.4,28.4c-0.6,0-1-0.6-1-1.2c0-0.7,0.5-1.2,1-1.2c0.6,0,1,0.6,1,1.2S107.9,28.4,107.4,28.4z"/>
				<path class="st11" d="M114.7,23.1c-0.6,0-1-0.6-1-1.2c0-0.7,0.5-1.2,1-1.2s1,0.6,1,1.2C115.8,22.6,115.3,23.1,114.7,23.1z"/>
				<path class="st11" d="M122.1,28.4c-0.6,0-1-0.6-1-1.2c0-0.7,0.5-1.2,1-1.2s1,0.6,1,1.2C123.2,27.8,122.7,28.4,122.1,28.4z"/>
				<path class="st11" d="M122.1,38.9c-0.6,0-1-0.6-1-1.2c0-0.7,0.5-1.2,1-1.2s1,0.6,1,1.2C123.2,38.4,122.7,38.9,122.1,38.9z"/>
				<line class="st10" x1="99.6" y1="42.9" x2="95" y2="40"/>
				<path class="st11" d="M114.7,44c-0.6,0-1-0.6-1-1.2s0.5-1.2,1-1.2s1,0.6,1,1.2S115.3,44,114.7,44z"/>
				<path class="st11" d="M107.4,38.5c-0.6,0-1-0.6-1-1.2c0-0.7,0.5-1.2,1-1.2c0.6,0,1,0.6,1,1.2C108.4,38,107.9,38.5,107.4,38.5z"
					/>
				<path class="st11" d="M99.6,44c-0.6,0-1-0.6-1-1.2s0.5-1.2,1-1.2c0.6,0,1,0.6,1,1.2S100.2,44,99.6,44z"/>
				<ellipse class="st11" cx="99.3" cy="53.2" rx="1" ry="1.2"/>
				<path class="st11" d="M87.4,46.4c-0.6,0-1-0.6-1-1.2s0.5-1.2,1-1.2c0.6,0,1,0.6,1,1.2S88,46.4,87.4,46.4z"/>
				<path class="st11" d="M95,41.2c-0.6,0-1-0.6-1-1.2s0.5-1.2,1-1.2c0.6,0,1,0.6,1,1.2S95.5,41.2,95,41.2z"/>
				<path class="st11" d="M95,30.6c-0.6,0-1-0.6-1-1.2c0-0.7,0.5-1.2,1-1.2c0.6,0,1,0.6,1,1.2C96,30.1,95.5,30.6,95,30.6z"/>
				<path class="st11" d="M87.4,25.5c-0.6,0-1-0.6-1-1.2c0-0.7,0.5-1.2,1-1.2c0.6,0,1,0.6,1,1.2S88,25.5,87.4,25.5z"/>
				<path class="st11" d="M79.9,30.6c-0.6,0-1-0.6-1-1.2c0-0.7,0.5-1.2,1-1.2c0.6,0,1,0.6,1,1.2C80.9,30.1,80.4,30.6,79.9,30.6z"/>
				<path class="st11" d="M79.9,41.2c-0.6,0-1-0.6-1-1.2s0.5-1.2,1-1.2c0.6,0,1,0.6,1,1.2S80.4,41.2,79.9,41.2z"/>
				<path class="st11" d="M72.3,47.8c-0.6,0-1-0.6-1-1.2c0-0.7,0.5-1.2,1-1.2s1,0.6,1,1.2C73.3,47.3,72.8,47.8,72.3,47.8z"/>
				<path class="st11" d="M63.7,47.8c-0.6,0-1-0.6-1-1.2c0-0.7,0.5-1.2,1-1.2c0.6,0,1,0.6,1,1.2C64.7,47.3,64.3,47.8,63.7,47.8z"/>
				<path class="st11" d="M59.6,57.3c-0.6,0-1-0.6-1-1.2s0.5-1.2,1-1.2s1,0.6,1,1.2S60.2,57.3,59.6,57.3z"/>
				<path class="st11" d="M107.2,59.8c-0.6,0-1-0.6-1-1.2c0-0.7,0.5-1.2,1-1.2s1,0.6,1,1.2C108.2,59.3,107.8,59.8,107.2,59.8z"/>
				<path class="st11" d="M114.7,54.5c-0.6,0-1-0.6-1-1.2s0.5-1.2,1-1.2s1,0.6,1,1.2S115.3,54.5,114.7,54.5z"/>
				<polyline class="st10" points="79.9,40 72.1,46.7 63.7,46.7 59.6,55.7 				"/>
			</g>
			<g>
				<polygon class="st10" points="199.9,26.6 192.3,21.3 184.7,26.5 184.6,37.1 192.3,42.4 199.9,37.2 				"/>
				<polygon class="st10" points="207.6,42.5 200,37.2 192.4,42.5 192.3,53.1 200,58.4 207.6,53.1 				"/>
				<path class="st11" d="M185.7,37.6c-0.3,0.6-0.9,0.8-1.4,0.5s-0.7-1.1-0.4-1.7c0.3-0.6,0.9-0.8,1.4-0.5
					C185.8,36.2,186,37,185.7,37.6z"/>
				<path class="st11" d="M185.6,27.2c-0.3,0.6-0.9,0.8-1.4,0.5s-0.7-1.1-0.4-1.7s0.9-0.8,1.4-0.5C185.7,25.8,185.9,26.6,185.6,27.2
					z"/>
				<path class="st11" d="M193.2,22.1c-0.3,0.6-0.9,0.8-1.4,0.5s-0.7-1.1-0.4-1.7s0.9-0.8,1.4-0.5C193.3,20.7,193.5,21.5,193.2,22.1
					z"/>
				<path class="st11" d="M200.8,27.4c-0.3,0.6-0.9,0.8-1.4,0.5s-0.7-1.1-0.4-1.7s0.9-0.8,1.4-0.5C201,26.1,201.1,26.8,200.8,27.4z"
					/>
				<line class="st10" x1="192.3" y1="53.1" x2="187.8" y2="56.5"/>
				<path class="st11" d="M200.8,37.8c-0.3,0.6-0.9,0.8-1.4,0.5s-0.7-1.1-0.4-1.7c0.3-0.6,0.9-0.8,1.4-0.5
					C201,36.4,201.1,37.2,200.8,37.8z"/>
				<path class="st11" d="M193.1,42.8c-0.3,0.6-0.9,0.8-1.4,0.5s-0.7-1.1-0.4-1.7c0.3-0.6,0.9-0.8,1.4-0.5
					C193.2,41.4,193.3,42.2,193.1,42.8z"/>
				<path class="st11" d="M193.2,53.7c-0.3,0.6-0.9,0.8-1.4,0.5s-0.7-1.1-0.4-1.7c0.3-0.6,0.9-0.8,1.4-0.5S193.5,53.1,193.2,53.7z"
					/>
				<path class="st11" d="M200.6,59.3c-0.3,0.6-0.9,0.8-1.4,0.5s-0.7-1.1-0.4-1.7c0.3-0.6,0.9-0.8,1.4-0.5
					C200.8,57.9,200.9,58.7,200.6,59.3z"/>
				<path class="st11" d="M188.7,57.1c-0.3,0.6-0.9,0.8-1.4,0.5s-0.7-1.1-0.4-1.7s0.9-0.8,1.4-0.5C188.8,55.8,189,56.5,188.7,57.1z"
					/>
				<path class="st11" d="M208.5,53.8c-0.3,0.6-0.9,0.8-1.4,0.5s-0.7-1.1-0.4-1.7c0.3-0.6,0.9-0.8,1.4-0.5
					C208.6,52.4,208.8,53.2,208.5,53.8z"/>
				<path class="st11" d="M208.5,43.1c-0.3,0.6-0.9,0.8-1.4,0.5s-0.7-1.1-0.4-1.7c0.3-0.6,0.9-0.8,1.4-0.5
					C208.6,41.7,208.7,42.5,208.5,43.1z"/>
			</g>
		</g>
		<path class="st12" d="M224.5,47.6c0,1.3-0.9,2.4-2,2.4s-2-1.1-2-2.4s0.9-2.4,2-2.4C223.6,45.2,224.5,46.3,224.5,47.6z"/>
	</g>
	<g>
		<g>
			<g>
				<path class="st13" d="M162,181.6l-1.9,1.3c0,0-8.8-0.9-10.5-1c-1.7-0.2-5.7,4-6.5,5.3c-0.9,1.3-0.9,1.9-0.3,2
					c0.6,0.1,1.5-0.4,2.1-1s2.4-2.4,2.4-2.4l3.3,0.3c0,0-4.1,1.8-4,3.1s3.5-0.1,4.6-0.7c0,0,2.8,1.1,7.1,1.2
					c4.3,0.2,8.7-3.4,8.7-3.4L162,181.6z"/>
				<path class="st1" d="M161,180.5l-1,1.1c0,0,4.1,6.3,5.9,7.3l2.2-0.8L161,180.5z"/>
				<path class="st12" d="M195.3,125.9l-13.6,37.5l-21.1,16.7l8.2,8.9c0,0,22-7.1,27.9-16.6C202.5,162.9,195.3,125.9,195.3,125.9z"
					/>
				<path class="st5" d="M197.8,190.7l1.2-21.4c0,0-4.1-35.5-3.7-43.4c0.1-3,3.6-6.6,8.1-10c1.6-1.2,3.4-2.3,5.1-3.4
					c6-3.7,12.4-6.5,15.4-7.1c0.2,0,0.4-0.1,0.6-0.1c0,0,1,0.5,2.7,1.5c4.2,2.4,12.4,7.5,17.2,12.7c4.7,5,8.1,57.1,8.1,57.1
					l2.1,14.2h-56.8L197.8,190.7L197.8,190.7z"/>
				<path class="st14" d="M208.6,105.2l0.8,5l1.4,2.3c0,0,7.7-2.8,10.2-8.1c0,0-4.1-10-4.7-12.2L208.6,105.2z"/>
				<path class="st12" d="M227.2,106.7c-0.1,3.5-1.6,16.4-2.1,20.5c-0.1,0.9-0.3,1.7-0.6,2.5l-8.2,22.7c-1.1-4.7,1.2-34,1.2-34
					l6.4-13.1c0.2,0,0.4-0.1,0.6-0.1C224.5,105.3,225.6,105.8,227.2,106.7z"/>
				<path class="st12" d="M208.6,112.5l-3.4,41.3l-3.4-17.2c-0.5-2.6-0.6-5.3-0.3-7.9c0.5-4.2,1.4-10,2-12.7
					C205.1,114.7,206.8,113.6,208.6,112.5z"/>
				<path class="st13" d="M188.5,86.4c0,0,2,6.4,4.8,12.4s6,8.1,9,9.1s8.6-0.2,12.1-6.4c3.5-6.2,0.8-13.7,0.8-13.7L209.6,76
					C209.7,76.2,192,78.2,188.5,86.4z"/>
				<path class="st13" d="M213.4,86.9c0,0-0.9-5.4,1.9-5.8c2.8-0.4,4.8,4.2,4.1,7.9c-0.8,3.7-3.1,4.4-3.1,4.4L213.4,86.9z"/>
				<path class="st15" d="M189.4,86.3c0,0,12-0.5,17.8-7.1c0,0-0.2,3.5,1.8,5.8s4.4,1.9,4.4,1.9s-1.1-5.4,2.2-5.8s5.7,9.7,0.7,12.2
					l1.9,4c0,0,5-2.6,4.7-12.7s-3.2-15.1-7.7-15.1c0,0-6.2-5-13.9-4c-7.7,1.1-17.1,9.2-18.6,14s2.2,5.6,2.2,5.6s-0.8,3.1,2,5.5
					s3.9,2.3,3.9,2.3L189.4,86.3z"/>
				<path class="st1" d="M206.7,118.1c0,0-3.1,48.8-0.8,72.7h9.3c0,0,1.1-65.5,2.6-72.7l-6.4-5.8l-0.9,0.2L206.7,118.1z"/>
				<path class="st15" d="M219.7,101.4l-8.3,10.9c0,0,2.3,3.7,6.1,6.2l7-13.2L219.7,101.4z"/>
				<path class="st15" d="M210.7,112.5l-4.1,5.5c0,0-0.4-3.2,0-6.3c0.4-3.1,2.3-4.2,2.3-4.2L210.7,112.5z"/>
				<path class="st12" d="M231,125.4l-5,37l-26.2,4.6c0,0,4.3,2.6,4.1,11.2c0,0,28.7,0.3,33.6-2.3c4.8-2.6,11-49.1,8.7-53.6
					c-0.7-1.5-2-2.7-3.6-3.4C237.6,116.4,231.7,119.9,231,125.4z"/>
				<path class="st13" d="M200.5,167.5h-3.1c0,0-9.7-6.1-10.4-6.5c-0.8-0.4-2.5,0.2-2.5,0.2l6.1,12.8c0,0,1.1,1.7,4.7,2.2
					c3.7,0.5,5.6-0.6,5.6-0.6l3,0.3C203.9,176,204.5,170.8,200.5,167.5z"/>
				<path class="st13" d="M184.5,161.2c0,0-4.4,1.8-5.3,2.6c-0.9,0.8-1,4.5-1,4.5l2.2-1.1l0.4-1.8l6.1-0.9
					C186.9,164.5,186,162.1,184.5,161.2z"/>
				<path class="st15" d="M182.9,169.3c1.3-1.6-0.7-3.9-2.5-2.9c0,0-0.1,0-0.1,0.1c-1.1,0.7-2.8,3.7-2.8,3.7l0.9,1.2
					C178.5,171.4,181.5,171,182.9,169.3L182.9,169.3z"/>
				<path class="st13" d="M187.5,164.7c0,0-4.9,3.7-5.5,5.1c-0.6,1.4,0,2.9,1.2,3l5.3-5.4L187.5,164.7z"/>
				<path class="st13" d="M188.8,166.8c0,0-4.9,3.7-5.5,5.1c-0.6,1.4,0,2.9,1.2,3l5.3-5.4L188.8,166.8z"/>
				<path class="st13" d="M190.2,168.8c0,0-4.9,3.7-5.5,5.1c-0.6,1.4,0,2.9,1.2,3l5.3-5.4L190.2,168.8z"/>
				<path class="st13" d="M185.9,176.9c0,0,2.7,0.3,3.4,0s0.8-1.3,0.5-1.7c-0.3-0.5-2.3-0.5-2.3-0.5S186.2,176,185.9,176.9z"/>
				<polygon class="st16" points="177.5,170.2 168.6,177.8 169,178.3 178.5,171.4 				"/>
				<path class="st1" d="M200.1,167.1h-2v0.4c0,0,1.6,0.7,2.6,4.7c0.9,4,0.6,5.4,0.6,5.4h2.7C204,177.6,205,170.5,200.1,167.1z"/>
				<path class="st17" d="M195.8,91.4c0,0,2.1-0.1,3.4,1.9c1.4,2,1.2,6.8,1.2,6.8l2.8-0.5"/>
				<path class="st15" d="M191.9,91.7c0,0,1.6-0.6,3.5-0.6c0,0-0.8-0.8-2.2-0.7C191.9,90.5,191.9,91.7,191.9,91.7z"/>
				<path class="st15" d="M201,88.4c0,0,1.6-0.6,3.5-0.6c0,0-0.8-0.8-2.2-0.7S201,88.4,201,88.4z"/>
				<path class="st15" d="M197.3,95.2c0.3,0.6,0.2,1.2-0.1,1.3c-0.3,0.1-0.8-0.2-1-0.8c-0.3-0.6-0.2-1.2,0.1-1.3
					C196.6,94.2,197,94.6,197.3,95.2z"/>
				<path class="st15" d="M205.9,92.2c0.3,0.6,0.2,1.2-0.1,1.3c-0.3,0.1-0.8-0.2-1-0.8c-0.3-0.6-0.2-1.2,0.1-1.3
					C205.2,91.3,205.6,91.7,205.9,92.2z"/>
				<path class="st17" d="M203.2,102.2c0,0,1.8-0.2,3-1.4"/>
				<path class="st17" d="M216.3,82.9c0,0-0.8,1.9-0.8,4.3c0,0,0.6,0.4,0.9,1.4c0.2,1-0.3,1.8-0.3,1.8s1.5,0,1.5-1.7"/>
				<path class="st17" d="M217.1,87c0,0-0.3-1-1.5-1.6"/>
				<path class="st18" d="M211.9,116.1c0,0.5-0.3,1-0.7,1s-0.7-0.4-0.7-1c0-0.5,0.3-1,0.7-1C211.6,115.1,211.9,115.6,211.9,116.1z"
					/>
				<path class="st18" d="M211.7,121.7c0,0.5-0.3,1-0.7,1s-0.7-0.4-0.7-1s0.3-1,0.7-1C211.3,120.8,211.7,121.2,211.7,121.7z"/>
				<path class="st17" d="M183.3,171.9c0,0,3.1-4,5-4.8"/>
				<path class="st17" d="M185.1,174.4c0,0,2.9-3.5,4.3-4.2"/>
				<path class="st19" d="M227.2,163.1c0,0,5.3,2.5,7.2,5.5"/>
				<path class="st19" d="M229.1,109.4c0,0,6.3,3.3,11.1,8.7"/>
				<path class="st20" d="M208.1,77.2c0,0,2.1-4.1,5.9-6.6"/>
				<path class="st20" d="M185.9,85.1c0,0,0.7,0.2,2.2,0.3"/>
			</g>
			<g>
				<path class="st15" d="M98.1,100.3c0,0,2.8,3,3,6.3s-1.7,4.6-1.7,4.6s1.3,7.6-5.7,6.9c-5-0.5-6.5-8.4-6.5-8.4L98.1,100.3z"/>
				<path class="st12" d="M102.1,121.3c0,0,4.6,4.5,8.8,16.3c4.2,11.8,7.9,23.6,7.9,23.6l-6.3,7.4c0,0-7.4-6.3-11.9-15.3
					C96.2,144.1,102.1,121.3,102.1,121.3z"/>
				<path class="st5" d="M73,112.3c0,0-15.7,7.5-18.5,9.2c-2.9,1.7,5.1,44.7,5.1,44.7l-8.4,25.3h56l-4.6-33.7c0,0,2.8-18.2,2.8-22.6
					s-3.2-13.9-3.2-13.9l-9.5-6.4L73,112.3z"/>
				<polygon class="st12" points="68.3,114.1 69.8,135.1 74.4,137.1 72,142.6 79.5,152.5 78,123.1 73,112.3 				"/>
				<path class="st12" d="M96.2,151.2l4.9-8.8l-2.4-3.5l3.3-3.8L97.5,118l-4.8-3.2C92.7,114.9,97.1,141.5,96.2,151.2z"/>
				<path class="st1" d="M74.4,115.4l3.6,7.7l3.4,68.3h14.7c0,0,0.1-50.1-0.1-58.3s-1.4-11.7-1.4-11.7s-2.4-4-9.4-6.1
					c-7-2-9.3,0-9.3,0"/>
				<path class="st14" d="M89.8,108.2l-0.2,10.9c0,0-6.1,1.5-12.4-8.4c0,0,1.4-11.2,1.4-13.6L89.8,108.2z"/>
				<path class="st13" d="M101.2,82.5c0,0-0.8,8.6-1.7,15.4c-0.8,6.8-4.1,9.3-6.6,11.3c-2.6,2-6.4,1.5-11.7-3.5
					c-5.3-5-5.1-13.3-5.1-13.3L77.7,79C77.6,78.9,95.2,75.4,101.2,82.5z"/>
				<path class="st15" d="M94.2,82.3c0,0-1.7,4-11.8,5c0,0-0.2,7.7-3.5,9.7c0,0-0.7,13.5-3.2,17.1c-2.5,3.7-8.2,2.5-8.2,2.5
					s-5.6,3.2-9,0.2c-3.4-3.1-3.5-6.8-1.9-10.3c0,0-1.4-0.1-2.2-1.2c0,0,8.6-1.5,10.5-9.6c1.9-8.1,1.8-17.9,10-23
					c8.2-5,14-2.1,14-2.1s2.9-1.5,7.3,1.1c4.5,2.6,7.7,9.1,7.7,12.6c0,5.4-3.9,8.6-3.9,8.6v-5.3C100,87.7,97.8,87.5,94.2,82.3z"/>
				<path class="st15" d="M73,112.3c0,0,4.1,8.8,5.1,10.8c0,0,4.8-3.9,5.5-4.4c0.6-0.5,3.7,0.9,3.7,0.9l-10.6-9.4L73,112.3z"/>
				<polygon class="st15" points="90.1,111.5 87.2,119.6 89.6,119.1 94.7,121.5 92.3,113.8 				"/>
				<path class="st12" d="M76.2,155.4c0,0-10.6,2.9-18.5,5.7l2.8-10.4c2.7-10.2,0.9-20.8-5.9-28.8c-0.2-0.2-0.3-0.3-0.3-0.3
					s-7,6.3-10.4,26.2s-3.3,23.3-3.3,23.3s0,6.9,8.4,8.6c8.4,1.6,31.1-13.9,31.1-13.9L76.2,155.4z"/>
				<path class="st21" d="M85.1,145.7l11.2,15.4l1.1-0.9L87,144.4c-0.3-0.5-1.1-0.7-1.6-0.3l0,0C84.9,144.4,84.8,145.2,85.1,145.7z"
					/>
				<polygon class="st1" points="76.5,156.3 79.3,155.4 82.4,163.6 79.9,165 				"/>
				<path class="st13" d="M79.4,155.6l1.8-1c0,0,4.6-5.8,5.6-6.6c1-0.7,4.4,0.1,6.1,1s2.7,4.3,2.6,4.9s-0.7,1.4-0.9,1.4
					c-0.2,0-2-2.4-2-2.4l-2.7-1.3c0,0,3.2,3.5,3.3,4.2c0.1,0.7-0.4,1.8-1,1.8c0,0-0.2,1.9-1.4,2c0,0-0.2,0.9-0.9,1.1
					c-0.6,0.2-1.3,0-1.3,0s-0.8,1.1-2.4,1.6s-3.3,0.3-3.3,0.3l-0.7,0.6L79.4,155.6z"/>
				<polygon class="st7" points="102.6,147.6 87.5,179.1 111.4,179.1 126.7,148.2 				"/>
				<path class="st13" d="M119.2,169c0,0-0.6,3.2-1.4,5s-3.4,3.6-4.5,4s-2.7-0.5-3.5-1c-0.9-0.5-1.9-1.9-1.9-3.1c0-1.2,1-1.3,1-1.3
					s-0.4-0.4-0.2-1.5c0.2-1,1.5-1.1,1.5-1.1s-0.7-1.3-0.3-2.1c0.4-0.8,1.3-1,2.3-0.7c0.9,0.3,3.3,1.2,3.3,1.2l1.9-0.8l-2-1.8
					c0,0-4,0.6-4.3-0.6c-0.2-1.2,2.1-1.8,4.3-1.9c2.2-0.1,4,1.7,4.2,2.4C119.6,166.5,119.2,169,119.2,169z"/>
				<path class="st17" d="M94.9,92c0,0-1.6,1.1-2.5,3.3c-0.9,2.2,0.3,6.9,0.3,6.9l-2.9,0.1"/>
				<path class="st15" d="M99.3,91.6c0,0-1.7-0.6-3.5-0.6c0,0,0.8-0.8,2.2-0.7C99.3,90.3,99.3,91.6,99.3,91.6z"/>
				<path class="st15" d="M88.9,89.8c0,0-1.6-0.6-3.5-0.6c0,0,0.9-0.8,2.2-0.7C89,88.5,88.9,89.8,88.9,89.8z"/>
				<path class="st15" d="M94.7,96.6c-0.1,0.6,0.1,1.2,0.4,1.2c0.3,0.1,0.7-0.4,0.8-1c0.1-0.6-0.1-1.2-0.4-1.2S94.8,96,94.7,96.6z"
					/>
				<path class="st15" d="M85.7,95.7c-0.1,0.6,0.1,1.2,0.4,1.2c0.3,0.1,0.7-0.4,0.8-1c0.1-0.6-0.1-1.2-0.4-1.2
					C86.2,94.6,85.8,95.1,85.7,95.7z"/>
				<path class="st17" d="M90.5,104.8c0,0-1.8,0.2-3.2-0.7"/>
				<path class="st22" d="M90.1,96.6c-0.5,2.4-2.5,4-4.6,3.6s-3.5-2.7-3-5.1s2.5-4,4.6-3.6S90.6,94.2,90.1,96.6z"/>
				<path class="st22" d="M100.6,98.2c-0.5,2.4-2.5,4-4.6,3.6s-3.5-2.7-3-5.1s2.5-4,4.6-3.6S101,95.8,100.6,98.2z"/>
				<path class="st23" d="M90.2,96.3c0,0,1.8-0.5,2.7,0.4"/>
				<path class="st20" d="M89.8,71.5c0,0,2.7,2.3,3.7,6.2"/>
				<path class="st20" d="M67.2,116.1c0,0-2.3-0.8-2.4-2.1"/>
				<path class="st20" d="M57.7,106c0,0,1.4-0.4,1.7-0.8"/>
				<path class="st17" d="M88.6,153.5c0,0,2.2,2.3,3,3.4"/>
				<path class="st17" d="M87.5,156.4c0,0,1.6,1.1,2.6,2.2"/>
				<line class="st17" x1="88.2" y1="159.5" x2="88.4" y2="160.4"/>
			</g>
			<g>
				<g>
					<g>
						<path class="st1" d="M162,43c-1.6-3.3-5-5.3-8.6-5.3h-0.7h-3.3h-0.7c-3.6,0-7,2.1-8.6,5.3l-12.8,25.5h22.1h3.3h22.1L162,43z"
							/>
						<path class="st7" d="M174.8,68.8c0,2.1-10.6,3.9-23.7,3.9c-0.3,0-0.7,0-1,0l0,0c-0.2,0-0.4,0-0.6,0
							c-12.3-0.1-22.1-1.8-22.1-3.8c0-1.8,7.3-3.2,17.2-3.7c2.1-0.1,4.2-0.1,6.5-0.1c1.3,0,2.6,0,3.9,0
							C166.2,65.3,174.8,66.9,174.8,68.8z"/>
						<path class="st24" d="M156,67.1c0,3-2.3,5.4-5.3,5.6l0,0c-0.1,0-0.2,0-0.2,0c-0.1,0-0.2,0-0.4,0c-2.9-0.2-5.2-2.6-5.2-5.5
							c0-0.7,0.1-1.4,0.4-2c2.1-0.1,4.2-0.1,6.5-0.1c1.3,0,2.6,0,3.9,0C155.9,65.7,156,66.4,156,67.1z"/>
						<path class="st1" d="M154.6,41.4H148v-5.2c0-1.8,1.5-3.3,3.3-3.3l0,0c1.8,0,3.3,1.5,3.3,3.3V41.4z"/>
						<rect x="150.2" class="st1" width="2.5" height="37.1"/>
					</g>
					<path class="st25" d="M127.3,69.3L96.9,190.2h111.7L174.7,68.4c0,0-2.6-3.7-23.8-3.5C150.9,65,128.4,64.8,127.3,69.3z"/>
				</g>
				<g>
					<path class="st16" d="M177,121.6c0,0.8-0.7,1.5-1.5,1.5s-1.5-0.7-1.5-1.5s0.7-1.5,1.5-1.5S177,120.8,177,121.6z"/>
					<path class="st16" d="M175,118c0,0.6-0.4,1-1,1s-1-0.4-1-1s0.4-1,1-1S175,117.4,175,118z"/>
					<path class="st16" d="M173.1,123.1c0,0.6-0.4,1-1,1s-1-0.4-1-1s0.4-1,1-1C172.6,122.1,173.1,122.5,173.1,123.1z"/>
					<path class="st16" d="M177,125.6c0,0.6-0.4,1-1,1s-1-0.4-1-1s0.4-1,1-1S177,125.1,177,125.6z"/>
					<path class="st16" d="M185.1,118.5c0,0.8-0.7,1.5-1.5,1.5s-1.5-0.7-1.5-1.5s0.7-1.5,1.5-1.5C184.4,117,185.1,117.6,185.1,118.5
						z"/>
					<line class="st26" x1="175.9" y1="121.3" x2="183.1" y2="118.6"/>
					<line class="st26" x1="174" y1="118" x2="175.1" y2="120.8"/>
					<line class="st26" x1="175.8" y1="122.4" x2="176" y2="125.4"/>
					<line class="st26" x1="172.1" y1="123.1" x2="174.8" y2="122"/>
					<path class="st16" d="M185.9,117.3c0-0.6,0.5-1,1.1-0.9c0.6,0,1,0.5,0.9,1.1c0,0.6-0.5,1-1.1,0.9
						C186.3,118.3,185.9,117.8,185.9,117.3z"/>
					<line class="st26" x1="186.9" y1="117.3" x2="184" y2="118.3"/>
					<path class="st16" d="M185.5,120.7c0.5-0.1,1.1,0.2,1.2,0.8c0.1,0.5-0.2,1.1-0.8,1.2c-0.5,0.1-1.1-0.2-1.2-0.8
						C184.6,121.3,185,120.8,185.5,120.7z"/>
					<line class="st26" x1="185.7" y1="121.7" x2="184.1" y2="119.2"/>
					<circle class="st16" cx="182.7" cy="114.9" r="1"/>
					<line class="st26" x1="182.7" y1="114.9" x2="183.5" y2="117.8"/>
				</g>
				<g>
					<path class="st27" d="M111,110.4c0,0-0.1,0.9,0.7,0.9c0.8,0,0.7,0.3,1,1c0.2,0.7,0.9,0.6,1.6,0.5s0.2,0.7,0.3,1.2
						s1.1,0.2,1.3,0.4c0.2,0.1-0.8,1.8,0,1.8s1.3-0.7,1.4,0s-0.1,1.6,0.7,1.5c0.7-0.1,1.4-1.1,1.5-0.5c0.2,0.6,1.7,1.3,2.2,0.5
						s0.5-0.3,1.1-0.2c0.6,0.1,1.2-1,1-1.3c-0.2-0.2,0.1-0.2,0.7-0.7s-0.2-1-0.2-1.6s1.2-0.1,1.5-0.8c0.3-0.7-0.3-1.6,0.3-1.6
						c0.6,0,1.8,0,1.8-0.6c0-0.5-0.2-1.1,0.5-1.1c0.7,0,0.9-1.3,0.4-1.6c-0.5-0.3-1.1-0.1-0.8-0.9c0.3-0.8-0.3-1.6-0.7-1.7
						c-0.4-0.1-1.7,0-1.8-0.5c-0.1-0.5-0.4-1.1-1.1-0.9s-1.8,0.2-1.9-0.7c-0.2-0.9-0.8-0.9-1.4-1.1c-0.5-0.2-1.1-1.8-2.1-1.8
						s-0.8,1.1-1.4,0.7c-0.7-0.4-2.1-0.4-2.5,0.3c-0.3,0.7,0.4,1.5-0.6,1.6s-1.3,0.5-1.2,1c0,0.5-0.1,0.9-0.9,1
						c-0.7,0.1-1.4,0.1-1.3,1.1s0.4,1.3-0.5,1.6C109.5,108,110,110.1,111,110.4z"/>
					<path class="st28" d="M116.5,102.8c0,0,0.9-1,2.7,0c1.8,1,1.5,3,4.1,3s3.9,1.9,2.9,3.6c-0.9,1.6-3.4,1.3-3.4,3.6
						c-0.1,2.3-1.8,3.8-3.9,2.9s-0.9-3.7-3.6-4.5c-2.7-0.9-3.7-1.7-3.3-3.5c0.4-1.9,3.5-1.8,3.9-3
						C116.3,103.6,116.1,103.1,116.5,102.8z"/>
					<path class="st5" d="M117.5,105.4c0,0-0.4-1.8,0.7-1.4c1.1,0.3,2.4,2.3,1.5,2.8S117.5,105.4,117.5,105.4z"/>
					<path class="st5" d="M115.3,109.5c-1.1-0.8-0.6-2.7,0.7-2.8c0.2,0,0.3,0,0.5,0c1.2,0.3,2.7,2.6,3.9,2.7
						c1.2,0.1,0.5,3.6-2.6,1.7C116.7,110.6,115.9,110,115.3,109.5z"/>
					<path class="st5" d="M123,107.7c0,0-1.1-0.4-1.3,0.5c-0.3,0.9,2.1,1.9,3,1C125.5,108.3,123,107.7,123,107.7z"/>
					<path class="st5" d="M120.9,112.4c0,0-0.3,0.9-1.5,0.5s-0.9,1.1-0.2,1.8c0.7,0.7,2,0.2,2.4-1.1
						C122,112.2,120.9,112.4,120.9,112.4z"/>
				</g>
				<g>
					<path class="st21" d="M162.1,166.2l-0.1,0.3c-0.1,0.3-3.4,6.8-5.9,9.2c-0.6-3.7-1.6-7.2-3-10.4c2.2-5.3,3.1-10.5,2.7-15.4
						c2.9-1.9,6.6-9.4,7-10.3l0.1-0.3l-1.2-0.6l-0.1,0.3c-0.1,0.3-3.5,7-6,9.3c-0.4-3.1-1.4-6.1-2.8-8.8v-0.3
						c-0.3-4.1,2-7.1,2.1-7.1l0.2-0.3l-1-0.8l-0.2,0.3c-0.1,0.1-2,2.4-2.3,6c-2.4-3.6-4.9-5.5-4.9-5.5l-0.3-0.2l-0.8,1.1l0.3,0.2
						c0,0,4.1,3.1,6.6,9.1c-3.1-1.5-5.9-1.2-6.3-1.2h-0.3l0.2,1.3h0.3c0,0,3.6-0.4,6.9,1.8c2,6.1,1.7,12.7-0.9,19.8
						c-1-2-2.1-3.8-3.4-5.6l-0.2-0.3l-1.1,0.8l0.2,0.3c1.9,2.6,3.5,5.5,4.7,8.8c-3.3-1.6-6.3-1.2-6.4-1.2h-0.3l0.2,1.3h0.3
						c0.1,0,3.7-0.4,6.9,1.8c2.9,9,2,16.8,2,16.9v0.3l1.3,0.2v-0.3c0,0,0.4-3.9-0.3-9.3c2.9-2.1,6.7-9.8,6.8-10.2l0.1-0.3
						L162.1,166.2z"/>
					<path class="st7" d="M147.8,167c0,0-2.2-3.3-6.2-4s-6.7,1.8-6.8,2.5s2.3,3.7,6.7,3.6C145.9,168.9,147.8,167,147.8,167z"/>
					<path class="st7" d="M153.5,133c0,0-1.7-3.6-0.2-7.4c1.5-3.8,5-4.8,5.7-4.5s2,3.9-0.5,7.6C156.1,132.4,153.5,133,153.5,133z"/>
					<path class="st7" d="M147.8,141.3c0,0-2.2-3.3-6.2-4s-6.7,1.8-6.9,2.5c-0.1,0.7,2.3,3.7,6.7,3.6
						C145.9,143.2,147.8,141.3,147.8,141.3z"/>
					<path class="st7" d="M149.6,159.9c0,0,0.3-3.9-2.5-6.9c-2.7-3-6.4-2.7-6.9-2.2s-0.4,4.4,3.1,6.9
						C146.9,160.3,149.6,159.9,149.6,159.9z"/>
					<path class="st7" d="M161.3,141.1c0,0-1.4-3.7,0.4-7.3c1.8-3.6,5.4-4.4,6-4.1c0.7,0.3,1.7,4.1-1.1,7.5
						C164,140.7,161.3,141.1,161.3,141.1z"/>
					<path class="st7" d="M161.7,168.6c0,0-1.4-3.7,0.4-7.3c1.8-3.6,5.4-4.4,6-4.1c0.7,0.3,1.7,4.1-1.1,7.5
						C164.3,168.2,161.7,168.6,161.7,168.6z"/>
					<path class="st7" d="M135.2,119.7c0,0-0.3,5.1,2.6,9.3c2.8,4.2,10.5,5.4,10.5,5.4s0.1-4.9-2.2-8.5
						C143.9,122.3,137.2,119.6,135.2,119.7z"/>
					<path class="st29" d="M166.2,187.8c0,0-1-1.9-3.5-2.9s-4.4,0-4.4,0s-2.5-1.8-6.8-1.7s-5.8,2.3-5.8,2.3s-3.5-0.3-4.3,3.3
						L166.2,187.8z"/>
					<rect x="140" y="187.4" class="st7" width="27.6" height="2.8"/>
					<path class="st30" d="M137.1,121.6c0,0,8.5,7.4,11.3,12.7"/>
					<line class="st30" x1="137.8" y1="126.2" x2="141.3" y2="125.7"/>
					<line class="st30" x1="143.4" y1="124" x2="143.2" y2="127.6"/>
					<line class="st30" x1="141.6" y1="131.1" x2="145.8" y2="130.6"/>
					<g>
						<path class="st30" d="M158.5,122.2c0,0-3.8,5.9-4.6,9.7"/>
						<line class="st30" x1="158.8" y1="125.1" x2="156.6" y2="125.4"/>
						<line class="st30" x1="155" y1="124.7" x2="155.8" y2="126.9"/>
						<line class="st30" x1="157.4" y1="128.7" x2="154.8" y2="129.1"/>
					</g>
					<g>
						<path class="st30" d="M136,139.9c0,0,7.1-0.2,10.6,1.1"/>
						<line class="st30" x1="138.3" y1="141.7" x2="139.7" y2="140"/>
						<line class="st30" x1="140" y1="138.3" x2="141.4" y2="140"/>
						<line class="st30" x1="142.2" y1="142.3" x2="143.9" y2="140.3"/>
					</g>
					<g>
						<path class="st30" d="M166.9,130.7c0,0-3.9,5.9-4.7,9.6"/>
						<line class="st30" x1="167.2" y1="133.7" x2="165" y2="133.9"/>
						<line class="st30" x1="163.4" y1="133.2" x2="164.1" y2="135.4"/>
						<line class="st30" x1="165.7" y1="137.3" x2="163.1" y2="137.6"/>
					</g>
					<g>
						<path class="st30" d="M167.4,158.3c0,0-4.4,5.5-5.5,9.2"/>
						<line class="st30" x1="167.5" y1="161.2" x2="165.3" y2="161.3"/>
						<line class="st30" x1="163.7" y1="160.5" x2="164.3" y2="162.7"/>
						<line class="st30" x1="165.7" y1="164.7" x2="163.1" y2="164.9"/>
					</g>
					<g>
						<path class="st30" d="M141.4,151.5c0,0,5.7,4.2,7.7,7.4"/>
						<line class="st30" x1="142" y1="154.3" x2="144.2" y2="153.8"/>
						<line class="st30" x1="145.5" y1="152.7" x2="145.5" y2="154.9"/>
						<line class="st30" x1="144.7" y1="157.2" x2="147.2" y2="156.7"/>
					</g>
					<g>
						<path class="st30" d="M136,165.8c0,0,7.1-0.4,10.6,0.8"/>
						<line class="st30" x1="138.4" y1="167.5" x2="139.8" y2="165.8"/>
						<line class="st30" x1="140" y1="164.1" x2="141.4" y2="165.8"/>
						<line class="st30" x1="142.3" y1="168.1" x2="143.9" y2="166"/>
					</g>
				</g>
				<path class="st16" d="M127.2,168.5c0,1.3-1.1,2.4-2.4,2.4s-2.4-1.1-2.4-2.4c0-1.3,1.1-2.4,2.4-2.4S127.2,167.2,127.2,168.5z"/>
				<path class="st16" d="M149.7,97.9c0,1.3-1.1,2.4-2.4,2.4c-1.3,0-2.4-1.1-2.4-2.4s1.1-2.4,2.4-2.4
					C148.6,95.4,149.7,96.5,149.7,97.9z"/>
				<path class="st16" d="M181.9,140.8c0,1.3-1.1,2.4-2.4,2.4c-1.3,0-2.4-1.1-2.4-2.4c0-1.3,1.1-2.4,2.4-2.4
					C180.9,138.4,181.9,139.5,181.9,140.8z"/>
				<path class="st16" d="M166.3,92.5c-0.1,0.5-0.5,0.9-1,0.8s-0.9-0.5-0.8-1c0.1-0.5,0.5-0.9,1-0.8C166,91.5,166.4,91.9,166.3,92.5
					z"/>
				<path class="st16" d="M125.7,137.3c-0.1,0.5-0.5,0.9-1,0.8c-0.5-0.1-0.9-0.5-0.8-1s0.5-0.9,1-0.8
					C125.4,136.3,125.8,136.8,125.7,137.3z"/>
				<path class="st16" d="M175.7,154.2c-0.1,0.5-0.5,0.9-1,0.8c-0.5-0.1-0.9-0.5-0.8-1c0.1-0.5,0.5-0.9,1-0.8
					C175.4,153.2,175.8,153.7,175.7,154.2z"/>
				<path class="st16" d="M136.2,84.6c-0.1,0.9-0.9,1.5-1.8,1.4c-0.9-0.1-1.5-0.9-1.4-1.8s0.9-1.5,1.8-1.4
					C135.7,82.9,136.3,83.7,136.2,84.6z"/>
			</g>
		</g>
		<path class="st19" d="M55.2,162c0,0-4.6,1.6-7.8,3.8"/>
	</g>
	<g>
		<g>
			<g>
				<path class="st1" d="M298.2,193.9H1.8c-1,0-1.8-0.8-1.8-1.8l0,0c0-1,0.8-1.8,1.8-1.8h296.3c1,0,1.8,0.8,1.8,1.8l0,0
					C300,193,299.2,193.9,298.2,193.9z"/>
				<rect x="16.9" y="193.9" class="st4" width="266.2" height="71.1"/>
				<path class="st31" d="M283.1,193.9v5.9l-104.7,10.9H50.8c-3.1,0-5.6,3-5.6,6.7v7.2l-28.3,2.9v-33.6L283.1,193.9L283.1,193.9z"/>
				<path class="st31" d="M260,217.3V265H45.2v-40.5l133.2-13.8h76C257.5,210.6,260,213.6,260,217.3z"/>
				<path class="st4" d="M178.5,210.6L45.2,224.5v-7.2c0-3.7,2.5-6.7,5.6-6.7H178.5z"/>
				<line class="st32" x1="57.2" y1="213.6" x2="57.2" y2="265"/>
				<line class="st32" x1="73" y1="213.6" x2="73" y2="265"/>
				<line class="st32" x1="88.7" y1="213.6" x2="88.7" y2="265"/>
				<line class="st32" x1="104.5" y1="213.6" x2="104.5" y2="265"/>
				<line class="st32" x1="120.3" y1="213.6" x2="120.3" y2="265"/>
				<line class="st32" x1="136.1" y1="213.6" x2="136.1" y2="265"/>
				<line class="st32" x1="151.9" y1="213.6" x2="151.9" y2="265"/>
				<line class="st32" x1="167.7" y1="213.6" x2="167.7" y2="265"/>
				<line class="st32" x1="183.4" y1="213.6" x2="183.4" y2="265"/>
				<line class="st32" x1="199.2" y1="213.6" x2="199.2" y2="265"/>
				<line class="st32" x1="215" y1="213.6" x2="215" y2="265"/>
				<line class="st32" x1="230.8" y1="213.6" x2="230.8" y2="265"/>
				<line class="st32" x1="246.6" y1="213.6" x2="246.6" y2="265"/>
			</g>
			<g>
				<path class="st8" d="M289.1,190.2H232c-1,0-1.8-0.8-1.8-1.8l0,0c0-1,0.8-1.8,1.8-1.8h57.2c1,0,1.8,0.8,1.8,1.8l0,0
					C290.9,189.4,290.1,190.2,289.1,190.2z"/>
				<path class="st33" d="M289.1,190.2h-36.7c-1,0-1.8-0.8-1.8-1.8l0,0c0-1,0.8-1.8,1.8-1.8h36.7c1,0,1.8,0.8,1.8,1.8l0,0
					C290.9,189.4,290.1,190.2,289.1,190.2z"/>
				<path class="st7" d="M248.7,186.6l5.6-32.7c0.2-1.4,1.3-2.4,2.4-2.4h37.4c0.8,0,1.4,0.9,1.2,1.8l-5.5,33.3L248.7,186.6
					L248.7,186.6z"/>
				<polygon class="st8" points="251.6,186.6 257.2,155 288.8,186.6 				"/>
				<ellipse class="st33" cx="276.1" cy="172.4" rx="3.7" ry="4.4"/>
			</g>
			<g>
				<path class="st5" d="M20.1,155.7h-0.6H14h-0.6v1.6H14v27.1c0,1.8,1.2,3.3,2.8,3.3c1.5,0,2.8-1.5,2.8-3.3v-27.1h0.6L20.1,155.7
					L20.1,155.7z"/>
				<path class="st5" d="M30.6,155.7H30h-5.6h-0.6v1.6h0.6v27.1c0,1.8,1.2,3.3,2.8,3.3c1.5,0,2.8-1.5,2.8-3.3v-27.1h0.6
					C30.6,157.3,30.6,155.7,30.6,155.7z"/>
				<path class="st5" d="M41,155.7h-0.6h-5.6h-0.6v1.6h0.6v27.1c0,1.8,1.2,3.3,2.8,3.3c1.5,0,2.8-1.5,2.8-3.3v-27.1H41V155.7z"/>
				<path class="st7" d="M45.2,190.2h-2v-28c0-0.6,0.5-1,1-1l0,0c0.6,0,1,0.5,1,1V190.2z"/>
				<path class="st7" d="M11.5,190.2h-2v-28c0-0.6,0.5-1,1-1l0,0c0.6,0,1,0.5,1,1V190.2z"/>
				<path class="st7" d="M45.8,165.8H8.7c-0.7,0-1.2-0.5-1.2-1.2l0,0c0-0.7,0.5-1.2,1.2-1.2h37.1c0.7,0,1.2,0.5,1.2,1.2l0,0
					C47,165.3,46.5,165.8,45.8,165.8z"/>
			</g>
		</g>
	</g>
</g>
</svg>
