<?xml version="1.0" encoding="utf-8"?>
<!-- Generator: Adobe Illustrator 25.1.0, SVG Export Plug-In . SVG Version: 6.00 Build 0)  -->
<svg version="1.1" id="Layer_1" xmlns="http://www.w3.org/2000/svg" xmlns:xlink="http://www.w3.org/1999/xlink" x="0px" y="0px"
	 viewBox="0 0 300 265" style="enable-background:new 0 0 300 265;" xml:space="preserve">
<style type="text/css">
	.st0{opacity:0.6;}
	.st1{fill:#F1B166;}
	.st2{fill:#AEAEAF;}
	.st3{fill:#686868;}
	.st4{fill:#CC873C;}
	.st5{fill:#DD9A52;}
	.st6{fill:#F8C289;}
	.st7{fill:#AB6728;}
	.st8{fill:#D79348;}
	.st9{fill:#959595;}
	.st10{fill:#646464;}
	.st11{fill:#444445;}
	.st12{fill:#9C9B9B;}
	.st13{fill:#BBBBBB;}
	.st14{fill:#9D5D26;}
	.st15{fill:#E1E1E1;}
	.st16{fill:#908F8F;}
	.st17{fill:#CCCBCB;}
	.st18{fill:#FCF3EB;}
	.st19{fill:#ADADAD;}
	.st20{fill:#D8A57C;}
	.st21{fill:#BFBFBF;}
	.st22{fill:#D1D1D3;}
	.st23{fill:#D6D6D6;}
	.st24{fill:#EAEAEA;}
	.st25{fill:#F3FF7D;}
	.st26{fill:#040411;}
	.st27{fill:#0D0C23;}
	.st28{fill:#FFFFFF;}
	.st29{fill:#5E442F;}
	.st30{fill:#A08264;}
	.st31{fill:#EFD9D0;}
	.st32{fill:#331E0F;}
	.st33{fill:#4C2E19;}
	.st34{fill:#34324C;}
	.st35{fill:#A0957F;}
	.st36{fill:#493D30;}
	.st37{fill:#876D55;}
	.st38{fill:#A7805A;}
	.st39{fill:#6C301E;}
	.st40{fill:#23203A;}
	.st41{fill:#DFC4B7;}
	.st42{fill:#EA6F53;}
	.st43{fill:#0E0A5B;}
	.st44{fill:#FFC5B3;}
	.st45{fill:#D6543E;}
	.st46{fill:#7F0057;}
	.st47{fill:#7DBCBC;}
	.st48{fill:#ACE6E8;}
	.st49{fill:#302417;}
	.st50{clip-path:url(#SVGID_2_);fill:#424143;}
	.st51{clip-path:url(#SVGID_2_);}
	.st52{fill:none;stroke:#231F20;stroke-width:1.7623;stroke-miterlimit:10;}
	.st53{clip-path:url(#SVGID_4_);fill:#424143;}
	.st54{clip-path:url(#SVGID_4_);}
	.st55{fill:#FFDE72;}
	.st56{fill:#FEC66C;}
	.st57{fill:#424143;}
	.st58{fill:#231F20;}
	.st59{fill:#808284;}
	.st60{fill:#F1F1F1;}
	.st61{fill:#59595C;}
	.st62{fill:none;stroke:#424143;stroke-width:1.7623;stroke-miterlimit:10;}
</style>
<g id="Layer_1_1_">
	<g>
		<g>
			<g class="st0">
				<path class="st1" d="M197.2,76.4l18-5.6c0.9-0.3,1.4-1.2,1.1-2.1l-0.2-0.5c-0.3-0.9-1.2-1.4-2.1-1.1l-18,5.6L197.2,76.4z"/>
				<g>
					<polygon class="st2" points="190.4,70.5 193.8,81.2 195.1,80.8 191.7,70.1 					"/>
					<g>
						<path class="st3" d="M193.8,80.3L193.8,80.3c0,0.1,0.1,0.1,0.2,0.1l0.5-0.1c0.1,0,0.1-0.1,0.1-0.2l0,0c0-0.1-0.1-0.1-0.2-0.1
							l-0.5,0.1C193.8,80.1,193.8,80.2,193.8,80.3z"/>
						<path class="st3" d="M193.5,79.3L193.5,79.3c0,0.1,0.1,0.1,0.2,0.1l0.5-0.1c0.1,0,0.1-0.1,0.1-0.2l0,0c0-0.1-0.1-0.1-0.2-0.1
							l-0.5,0.1C193.5,79.1,193.4,79.2,193.5,79.3z"/>
						<path class="st3" d="M193.2,78.3L193.2,78.3c0,0.1,0.1,0.1,0.2,0.1l0.5-0.1c0.1,0,0.1-0.1,0.1-0.2l0,0c0-0.1-0.1-0.1-0.2-0.1
							l-0.5,0.1C193.2,78.1,193.1,78.2,193.2,78.3z"/>
						<path class="st3" d="M192.8,77.3L192.8,77.3c0,0.1,0.1,0.1,0.2,0.1l0.5-0.1c0.1,0,0.1-0.1,0.1-0.2l0,0c0-0.1-0.1-0.1-0.2-0.1
							l-0.5,0.1C192.9,77.1,192.8,77.2,192.8,77.3z"/>
						<path class="st3" d="M192.5,76.3L192.5,76.3c0,0.1,0.1,0.1,0.2,0.1l0.5-0.1c0.1,0,0.1-0.1,0.1-0.2l0,0c0-0.1-0.1-0.1-0.2-0.1
							l-0.5,0.1C192.6,76.1,192.5,76.2,192.5,76.3z"/>
						<path class="st3" d="M192.2,75.3L192.2,75.3c0,0.1,0.1,0.1,0.2,0.1l0.5-0.1c0.1,0,0.1-0.1,0.1-0.2l0,0c0-0.1-0.1-0.1-0.2-0.1
							l-0.5,0.1C192.2,75.1,192.2,75.2,192.2,75.3z"/>
						<path class="st3" d="M191.9,74.3L191.9,74.3c0,0.1,0.1,0.1,0.2,0.1l0.5-0.1c0.1,0,0.1-0.1,0.1-0.2l0,0c0-0.1-0.1-0.1-0.2-0.1
							l-0.5,0.1C191.9,74.1,191.9,74.2,191.9,74.3z"/>
						<path class="st3" d="M191.6,73.3L191.6,73.3c0,0.1,0.1,0.1,0.2,0.1l0.5-0.1c0.1,0,0.1-0.1,0.1-0.2l0,0c0-0.1-0.1-0.1-0.2-0.1
							l-0.5,0.1C191.6,73.1,191.6,73.2,191.6,73.3z"/>
						<path class="st3" d="M191.3,72.3L191.3,72.3c0,0.1,0.1,0.1,0.2,0.1l0.5-0.1c0.1,0,0.1-0.1,0.1-0.2l0,0c0-0.1-0.1-0.1-0.2-0.1
							l-0.5,0.1C191.3,72.1,191.2,72.2,191.3,72.3z"/>
						<path class="st3" d="M191,71.3L191,71.3c0,0.1,0.1,0.1,0.2,0.1l0.5-0.1c0.1,0,0.1-0.1,0.1-0.2l0,0c0-0.1-0.1-0.1-0.2-0.1
							l-0.5,0.1C191,71.1,190.9,71.2,191,71.3z"/>
					</g>
				</g>
				<polygon class="st4" points="199.1,71.7 200.3,71.3 201.4,75.4 199.9,74.3 				"/>
				<polygon class="st1" points="197.9,82.2 202,80.9 197.3,66.2 193.3,67.4 				"/>
				<path class="st5" d="M202,80.9l-4.1,1.3l-1-3.3c0.9-2.1,1.7-4.3,2.4-6.5L202,80.9z"/>
				<polygon class="st6" points="193.3,67.4 197.3,66.2 196.3,63 192.3,64.3 				"/>
				<polygon class="st1" points="195.3,81.5 197.5,80.8 193.7,68.8 191.5,69.4 				"/>
				<path class="st5" d="M199.9,75.5c0.5-1.4,1-2.8,1.5-4.2c0-0.1,0.1-0.3,0.2-0.4l7.7-2.4c1.2,0.8,2,2,2.3,3.4L199.9,75.5z"/>
				<polygon class="st1" points="191.9,82.6 194,81.9 190.2,69.8 188.1,70.5 				"/>
				<path class="st1" d="M192.5,89.5l2.3-4.1c2.4-4.2,4.3-8.6,5.8-13.3c0.2-0.5,0.4-0.9,0.7-1.4c1.3-1.9,3.9-2.7,6.1-1.9
					c3,1.1,4.2,4.5,2.8,7.2c-0.1,0.2-0.2,0.4-0.4,0.6c-2.9,4.1-5.6,8.3-7.6,12.8l-2.5,5.3c-1.9,4.2-3.5,8.5-4.2,13.1
					c-0.2,0.9-0.5,1.8-1,2.7c-1.9,2.9-5.7,4-8.8,2.6c-3.8-1.6-5.3-6.1-3.5-9.6c0.3-0.6,0.7-1.2,1.2-1.7
					C187,98.2,189.9,93.9,192.5,89.5z"/>
				<path class="st4" d="M203.6,72.7c-0.6,1.1-0.1,2.4,1,3c1.1,0.6,2.5,0.1,3-1c0.6-1.1,0.1-2.4-1-3
					C205.5,71.2,204.2,71.6,203.6,72.7z"/>
				<path class="st4" d="M185.3,107c-0.9,1.8-0.2,4,1.6,4.9c1.8,0.9,4,0.2,4.9-1.6c0.9-1.8,0.2-4-1.6-4.9
					C188.4,104.5,186.2,105.3,185.3,107z"/>
				<path class="st4" d="M184.9,108.6c0,2,1.6,3.6,3.7,3.6c2,0,3.7-1.6,3.7-3.6c0-2-1.6-3.6-3.7-3.6
					C186.6,104.9,184.9,106.5,184.9,108.6z"/>
				<g>
					<polygon class="st5" points="195.4,111.7 197.3,111.7 200.3,121.9 195.4,121.9 					"/>
					<polygon class="st5" points="181.8,111.7 180,111.7 176.9,121.9 181.8,121.9 					"/>
				</g>
				<path class="st5" d="M194.6,110.6c-1.9,2.9-5.7,4-8.8,2.6c-1.6-0.7-2.9-2-3.6-3.4c0.8-0.3,1.3-0.9,1.3-1.7v-1.4
					c0-2.4,2.1-4.4,4.8-4.6c3-0.2,5.5,1.9,5.5,4.4v1.6c0,0.7,0.5,1.4,1.2,1.6C194.9,110.1,194.7,110.3,194.6,110.6z"/>
				<path class="st1" d="M184.6,108.9v-1.3c0-2.1,1.6-4,3.7-4.1c2.3-0.1,4.3,1.7,4.3,4v1.4c0,0.7,0.4,1.3,1.1,1.5
					c1.8,0.6,3.1,2.4,3.1,4.4v7.1h-16.4v-7.1c0-2,1.3-3.8,3.1-4.4C184.2,110.2,184.6,109.6,184.6,108.9z"/>
				<rect x="174.9" y="121.9" class="st1" width="27.4" height="2.9"/>
				<polygon class="st1" points="179.7,129.1 197.5,129.1 199.1,126.2 178.1,126.2 				"/>
				<rect x="187.4" y="111.7" class="st6" width="2.4" height="10.2"/>
				<polygon class="st5" points="187.4,111.7 184.4,121.9 187.4,121.9 				"/>
				<g>
					<g>
						<ellipse class="st4" cx="183.3" cy="112.9" rx="1.2" ry="1.2"/>
						<ellipse class="st1" cx="183.3" cy="112.9" rx="0.9" ry="0.9"/>
						<polygon class="st7" points="183.6,113.5 183.9,112.9 183.6,112.4 183,112.4 182.6,112.9 183,113.5 						"/>
					</g>
					<g>
						<ellipse class="st4" cx="183.3" cy="119.2" rx="1.2" ry="1.2"/>
						<ellipse class="st1" cx="183.3" cy="119.2" rx="0.9" ry="0.9"/>
						<polygon class="st7" points="183.6,119.8 183.9,119.2 183.6,118.7 183,118.7 182.6,119.2 183,119.8 						"/>
					</g>
					<g>
						<path class="st4" d="M192.8,112.9c0,0.6,0.5,1.2,1.2,1.2c0.7,0,1.2-0.5,1.2-1.2c0-0.6-0.5-1.2-1.2-1.2
							C193.3,111.7,192.8,112.3,192.8,112.9z"/>
						<path class="st1" d="M193,112.9c0,0.5,0.4,0.9,0.9,0.9c0.5,0,0.9-0.4,0.9-0.9c0-0.5-0.4-0.9-0.9-0.9
							C193.4,112,193,112.4,193,112.9z"/>
						<polygon class="st7" points="194.3,113.5 194.6,112.9 194.3,112.4 193.6,112.4 193.3,112.9 193.6,113.5 						"/>
					</g>
					<g>
						<path class="st4" d="M192.8,119.2c0,0.6,0.5,1.2,1.2,1.2c0.7,0,1.2-0.5,1.2-1.2c0-0.6-0.5-1.2-1.2-1.2
							C193.3,118,192.8,118.6,192.8,119.2z"/>
						<path class="st1" d="M193,119.2c0,0.5,0.4,0.9,0.9,0.9c0.5,0,0.9-0.4,0.9-0.9c0-0.5-0.4-0.9-0.9-0.9
							C193.4,118.3,193,118.7,193,119.2z"/>
						<polygon class="st7" points="194.3,119.8 194.6,119.2 194.3,118.7 193.6,118.7 193.3,119.2 193.6,119.8 						"/>
					</g>
				</g>
				<g>
					<rect x="179" y="124.9" class="st2" width="19.2" height="1.3"/>
					<g>
						<path class="st3" d="M197.6,125.9L197.6,125.9c0.1,0,0.2-0.1,0.2-0.2v-0.5c0-0.1-0.1-0.2-0.2-0.2l0,0c-0.1,0-0.2,0.1-0.2,0.2
							v0.5C197.4,125.9,197.5,125.9,197.6,125.9z"/>
						<path class="st3" d="M196.5,125.9L196.5,125.9c0.1,0,0.2-0.1,0.2-0.2v-0.5c0-0.1-0.1-0.2-0.2-0.2l0,0c-0.1,0-0.2,0.1-0.2,0.2
							v0.5C196.4,125.9,196.4,125.9,196.5,125.9z"/>
						<path class="st3" d="M195.5,125.9L195.5,125.9c0.1,0,0.2-0.1,0.2-0.2v-0.5c0-0.1-0.1-0.2-0.2-0.2l0,0c-0.1,0-0.2,0.1-0.2,0.2
							v0.5C195.3,125.9,195.4,125.9,195.5,125.9z"/>
						<path class="st3" d="M194.4,125.9L194.4,125.9c0.1,0,0.2-0.1,0.2-0.2v-0.5c0-0.1-0.1-0.2-0.2-0.2l0,0c-0.1,0-0.2,0.1-0.2,0.2
							v0.5C194.3,125.9,194.3,125.9,194.4,125.9z"/>
						<path class="st3" d="M193.4,125.9L193.4,125.9c0.1,0,0.2-0.1,0.2-0.2v-0.5c0-0.1-0.1-0.2-0.2-0.2l0,0c-0.1,0-0.2,0.1-0.2,0.2
							v0.5C193.2,125.9,193.3,125.9,193.4,125.9z"/>
						<path class="st3" d="M192.3,125.9L192.3,125.9c0.1,0,0.2-0.1,0.2-0.2v-0.5c0-0.1-0.1-0.2-0.2-0.2l0,0c-0.1,0-0.2,0.1-0.2,0.2
							v0.5C192.1,125.9,192.2,125.9,192.3,125.9z"/>
						<path class="st3" d="M191.3,125.9L191.3,125.9c0.1,0,0.2-0.1,0.2-0.2v-0.5c0-0.1-0.1-0.2-0.2-0.2l0,0c-0.1,0-0.2,0.1-0.2,0.2
							v0.5C191.1,125.9,191.2,125.9,191.3,125.9z"/>
						<path class="st3" d="M190.2,125.9L190.2,125.9c0.1,0,0.2-0.1,0.2-0.2v-0.5c0-0.1-0.1-0.2-0.2-0.2l0,0c-0.1,0-0.2,0.1-0.2,0.2
							v0.5C190,125.9,190.1,125.9,190.2,125.9z"/>
						<path class="st3" d="M189.1,125.9L189.1,125.9c0.1,0,0.2-0.1,0.2-0.2v-0.5c0-0.1-0.1-0.2-0.2-0.2l0,0c-0.1,0-0.2,0.1-0.2,0.2
							v0.5C189,125.9,189,125.9,189.1,125.9z"/>
						<path class="st3" d="M188.1,125.9L188.1,125.9c0.1,0,0.2-0.1,0.2-0.2v-0.5c0-0.1-0.1-0.2-0.2-0.2l0,0c-0.1,0-0.2,0.1-0.2,0.2
							v0.5C187.9,125.9,188,125.9,188.1,125.9z"/>
						<path class="st3" d="M187,125.9L187,125.9c0.1,0,0.2-0.1,0.2-0.2v-0.5c0-0.1-0.1-0.2-0.2-0.2l0,0c-0.1,0-0.2,0.1-0.2,0.2v0.5
							C186.9,125.9,186.9,125.9,187,125.9z"/>
						<path class="st3" d="M186,125.9L186,125.9c0.1,0,0.2-0.1,0.2-0.2v-0.5c0-0.1-0.1-0.2-0.2-0.2l0,0c-0.1,0-0.2,0.1-0.2,0.2v0.5
							C185.8,125.9,185.9,125.9,186,125.9z"/>
						<path class="st3" d="M184.9,125.9L184.9,125.9c0.1,0,0.2-0.1,0.2-0.2v-0.5c0-0.1-0.1-0.2-0.2-0.2l0,0c-0.1,0-0.2,0.1-0.2,0.2
							v0.5C184.7,125.9,184.8,125.9,184.9,125.9z"/>
						<path class="st3" d="M183.9,125.9L183.9,125.9c0.1,0,0.2-0.1,0.2-0.2v-0.5c0-0.1-0.1-0.2-0.2-0.2l0,0c-0.1,0-0.2,0.1-0.2,0.2
							v0.5C183.7,125.9,183.8,125.9,183.9,125.9z"/>
						<path class="st3" d="M182.8,125.9L182.8,125.9c0.1,0,0.2-0.1,0.2-0.2v-0.5c0-0.1-0.1-0.2-0.2-0.2l0,0c-0.1,0-0.2,0.1-0.2,0.2
							v0.5C182.6,125.9,182.7,125.9,182.8,125.9z"/>
						<path class="st3" d="M181.7,125.9L181.7,125.9c0.1,0,0.2-0.1,0.2-0.2v-0.5c0-0.1-0.1-0.2-0.2-0.2l0,0c-0.1,0-0.2,0.1-0.2,0.2
							v0.5C181.6,125.9,181.6,125.9,181.7,125.9z"/>
						<path class="st3" d="M180.7,125.9L180.7,125.9c0.1,0,0.2-0.1,0.2-0.2v-0.5c0-0.1-0.1-0.2-0.2-0.2l0,0c-0.1,0-0.2,0.1-0.2,0.2
							v0.5C180.5,125.9,180.6,125.9,180.7,125.9z"/>
						<path class="st3" d="M179.6,125.9L179.6,125.9c0.1,0,0.2-0.1,0.2-0.2v-0.5c0-0.1-0.1-0.2-0.2-0.2l0,0c-0.1,0-0.2,0.1-0.2,0.2
							v0.5C179.4,125.9,179.5,125.9,179.6,125.9z"/>
					</g>
				</g>
				<polygon class="st1" points="172.4,137.8 204.2,137.8 204.2,134.4 197.5,131 179.7,131 172.4,134.4 				"/>
				<rect x="179.7" y="129.1" class="st8" width="17.8" height="1.9"/>
				<path class="st4" d="M186.3,107.4c0,1.3,1.1,2.3,2.4,2.3c1.3,0,2.4-1,2.4-2.3c0-1.3-1.1-2.3-2.4-2.3
					C187.3,105.1,186.3,106.1,186.3,107.4z"/>
				<polygon class="st1" points="159.6,87.8 165.9,85.8 164.9,82.5 158.5,84.4 				"/>
				<path class="st5" d="M165,84.3c0.2,0.6,0.3,1.2,0.2,1.7l-5.6,1.7l-1.1-3.3l5.6-1.7C164.5,83.2,164.8,83.7,165,84.3z"/>
				<path class="st1" d="M154.1,87.6c0.9,2.8,3.9,4.4,6.7,3.5c2.8-0.9,4.4-3.8,3.5-6.6c-0.9-2.8-3.9-4.4-6.7-3.5
					C154.8,81.8,153.2,84.8,154.1,87.6z"/>
				<g>
					<polygon class="st2" points="151.7,85.7 153.3,90.6 154.6,90.2 153,85.3 					"/>
					<g>
						<path class="st3" d="M153.4,90.1L153.4,90.1c0,0.1,0.1,0.1,0.2,0.1L154,90c0.1,0,0.1-0.1,0.1-0.2l0,0c0-0.1-0.1-0.1-0.2-0.1
							l-0.5,0.1C153.4,89.9,153.3,90,153.4,90.1z"/>
						<path class="st3" d="M153.1,89.1L153.1,89.1c0,0.1,0.1,0.1,0.2,0.1l0.5-0.1c0.1,0,0.1-0.1,0.1-0.2l0,0c0-0.1-0.1-0.1-0.2-0.1
							l-0.5,0.1C153.1,88.9,153,89,153.1,89.1z"/>
						<path class="st3" d="M152.7,88.1L152.7,88.1c0,0.1,0.1,0.1,0.2,0.1l0.5-0.1c0.1,0,0.1-0.1,0.1-0.2l0,0c0-0.1-0.1-0.1-0.2-0.1
							l-0.5,0.1C152.8,87.9,152.7,88,152.7,88.1z"/>
						<path class="st3" d="M152.4,87.1L152.4,87.1c0,0.1,0.1,0.1,0.2,0.1l0.5-0.1c0.1,0,0.1-0.1,0.1-0.2l0,0c0-0.1-0.1-0.1-0.2-0.1
							l-0.5,0.1C152.4,86.9,152.4,87,152.4,87.1z"/>
						<path class="st3" d="M152.1,86.1L152.1,86.1c0,0.1,0.1,0.1,0.2,0.1l0.5-0.1c0.1,0,0.1-0.1,0.1-0.2l0,0c0-0.1-0.1-0.1-0.2-0.1
							l-0.5,0.1C152.1,85.9,152.1,86,152.1,86.1z"/>
					</g>
				</g>
				<polygon class="st1" points="171.2,85.4 190.9,79.3 189.1,73.7 169.5,79.8 				"/>
				<polygon class="st1" points="169.9,87 171.6,86.5 169.1,78.7 167.5,79.2 				"/>
				<polygon class="st4" points="171.2,85.4 171.6,85.3 169.8,79.7 169.5,79.8 				"/>
				<polygon class="st1" points="166.6,88 168.3,87.5 165.8,79.7 164.2,80.2 				"/>
				<polygon class="st1" points="168.5,88.3 170.2,87.8 167.2,78.4 165.6,78.9 				"/>
				<polygon class="st4" points="167.9,87.6 168.3,87.5 165.8,79.7 165.5,79.8 				"/>
				<path class="st5" d="M162.4,84.8l0.2,0.6c0.5,1.6-0.4,3.3-2,3.8l-4.3,1.3c-1-0.7-1.7-1.6-2.1-2.8c-0.4-1.2-0.3-2.4,0.1-3.5
					l4.3-1.3C160.2,82.3,161.9,83.2,162.4,84.8z"/>
				<path class="st1" d="M154.5,90.2l5.4-1.7c1.4-0.4,2.1-1.9,1.7-3.2l0,0c-0.4-1.4-1.9-2.1-3.3-1.7l-5.4,1.7L154.5,90.2z"/>
				<path class="st4" d="M160.7,85.6c-0.3-0.8-1.1-1.3-2-1c-0.8,0.3-1.3,1.1-1,1.9c0.3,0.8,1.1,1.3,2,1
					C160.5,87.3,161,86.4,160.7,85.6z"/>
				<polygon class="st1" points="151.6,91.1 153.3,90.6 151.7,85.7 150,86.2 				"/>
				<polygon class="st1" points="150.3,90.9 151.4,90.6 150.2,86.7 149.1,87.1 				"/>
				<polygon class="st6" points="150.3,87.1 152,86.5 151.7,85.7 150,86.2 				"/>
				<polygon class="st5" points="151.6,91.1 153.3,90.6 153,89.7 151.3,90.2 				"/>
				<path class="st2" d="M150.1,94.4l-0.6,2.4c-0.1,0.4-0.4,0.7-0.8,0.8l-7.7,1.8c-0.4,0.1-0.9,0-1.2-0.4l-1.6-1.7
					c-0.2-0.2-0.1-0.6,0.2-0.7l0.4-0.1c0.2-0.1,0.4-0.1,0.6,0l1.7,0.7c0.2,0.1,0.5,0.1,0.8,0l4.9-1.6c0.4-0.1,0.7-0.5,0.7-0.9
					l0.1-0.7l2.9-0.9L150.1,94.4z"/>
				<path class="st9" d="M150.4,93.2L150.4,93.2l-2.9,0.9l-0.1,0.7c0,0.1,0,0.1,0,0.2l2.4,0.2c0,0,0.1,0,0.1,0l0.2-0.7L150.4,93.2z"
					/>
				<path class="st1" d="M147.5,89.9l2.6,0.4l0.4,1.4c0.1,0.3,0.1,0.5,0.1,0.8l-0.1,1.7c0,0.3-0.2,0.4-0.5,0.4l-2.6-0.2
					c-0.2,0-0.3-0.2-0.2-0.3l0.4-1.3c0.1-0.4,0.2-0.8,0.1-1.1L147.5,89.9z"/>
				<path class="st2" d="M146.9,84.3l-1.9-1.6c-0.3-0.3-0.7-0.3-1.1-0.2l-7.3,2.9c-0.4,0.2-0.7,0.5-0.8,1l-0.4,2.3
					c0,0.3,0.3,0.6,0.6,0.5l0.4-0.1c0.2-0.1,0.4-0.2,0.5-0.4l1-1.6c0.1-0.2,0.4-0.4,0.6-0.5l4.9-1.5c0.4-0.1,0.9,0,1.1,0.3L145,86
					l2.9-0.9L146.9,84.3z"/>
				<path class="st9" d="M147.9,85.1L147.9,85.1L145,86l-0.4-0.5c0,0-0.1-0.1-0.1-0.1l1.9-1.5c0,0,0.1,0,0.1,0l0.5,0.4L147.9,85.1z"
					/>
				<path class="st1" d="M147.4,89.5l1.9-1.8l-0.5-1.4c-0.1-0.3-0.2-0.5-0.4-0.7l-1.1-1.3c-0.2-0.2-0.4-0.2-0.6-0.1l-2,1.6
					c-0.1,0.1-0.1,0.3,0,0.4l1.1,0.8c0.3,0.2,0.6,0.5,0.7,0.9L147.4,89.5z"/>
				<path class="st5" d="M150.6,92l-2.4,0.7c-0.1,0-0.3,0-0.4,0c0.1-0.3,0.1-0.6,0-0.9l-0.3-1.9l2.6,0.4l0.4,1.4
					C150.6,91.8,150.6,91.9,150.6,92z"/>
				<path class="st5" d="M146.5,87.7c-0.1-0.3-0.3-0.5-0.5-0.7c0.1-0.1,0.2-0.2,0.4-0.2l2.4-0.7c0,0.1,0.1,0.1,0.1,0.2l0.5,1.4
					l-1.9,1.8L146.5,87.7z"/>
				<path class="st1" d="M148,92.1l2.4-0.7l-1.5-4.8l-2.4,0.7c-0.4,0.1-0.6,0.5-0.5,0.9l1.1,3.4C147.2,92,147.7,92.3,148,92.1z"/>
			</g>
			<path class="st10" d="M83.2,25.4v6.9h32.5h0.8v3.4c0,0.3,0.1,0.6,0.3,0.8c-13.3,7.9-25.7,6.1-33.5,3.5v0.6c8,2.7,20.6,4.4,34-3.7
				c0.2,0.1,0.4,0.2,0.7,0.2c0.3,0,0.5-0.1,0.7-0.2c3.2,1.6,14.6,6.7,23.5,6.8v1.1c0,0.4,0.3,0.7,0.7,0.7h0.1h0.8v0.1
				c0,0.5,0.4,1,1,1h6.2c0.6,0,1-0.4,1-1v-1.3h1.4v-0.4h0.8v1.7h0.7v-1.3h1.1c0,0.1,0,0.1,0.1,0.1l0.1,0c-0.1,0-0.2,0-0.2,0.1
				c0,0.1,0,0.2,0.1,0.2l0.1,0c-0.1,0-0.2,0-0.2,0.1c0,0.1,0,0.2,0.1,0.2l0.1,0c-0.1,0-0.2,0-0.2,0.1c0,0.1,0,0.2,0.1,0.2l0.1,0
				c-0.1,0-0.2,0-0.2,0.1c0,0.1,0,0.2,0.1,0.2l0.1,0c-0.1,0-0.2,0-0.2,0.1c0,0.1,0,0.2,0.1,0.2l0.1,0c-0.1,0-0.2,0-0.2,0.1
				c0,0.1,0,0.2,0.1,0.2l0.1,0c-0.1,0-0.2,0-0.2,0.1c0,0.1,0,0.2,0.1,0.2l0.1,0c-0.1,0-0.2,0-0.2,0.1c0,0.1,0,0.2,0.1,0.2l0.1,0
				c-0.1,0-0.2,0-0.2,0.1c0,0.1,0,0.2,0.1,0.2l0.1,0c-0.1,0-0.2,0-0.2,0.1c0,0.1,0,0.2,0.1,0.2l0.1,0c-0.1,0-0.2,0-0.2,0.1
				c0,0.1,0,0.2,0.1,0.2l0.1,0c-0.1,0-0.2,0-0.2,0.1c0,0.1,0,0.2,0.1,0.2l0.1,0c-0.1,0-0.2,0-0.2,0.1c0,0.1,0,0.2,0.1,0.2l0.1,0
				c-0.1,0-0.2,0-0.2,0.1c0,0.1,0,0.2,0.1,0.2l0.1,0c-0.1,0-0.2,0-0.2,0.1c0,0.1,0,0.2,0.1,0.2l0.1,0c-0.1,0-0.2,0-0.2,0.1
				c0,0.1,0,0.2,0.1,0.2l0.1,0c-0.1,0-0.2,0-0.2,0.1c0,0.1,0,0.2,0.1,0.2l0.1,0c-0.1,0-0.2,0-0.2,0.1c0,0.1,0,0.2,0.1,0.2l0.1,0
				c-0.1,0-0.2,0-0.2,0.1c0,0.1,0,0.2,0.1,0.2l0.1,0c-0.1,0-0.2,0-0.2,0.1l0,0c0,0.1,0,0.2,0.1,0.2l0.1,0c-0.1,0-0.2,0-0.2,0.1
				c0,0.1,0,0.2,0.1,0.2l0.1,0c-0.1,0-0.2,0-0.2,0.1c0,0.1,0,0.2,0.1,0.2l0.1,0c-0.1,0-0.2,0-0.2,0.1c0,0.1,0,0.2,0.1,0.2l0.1,0
				c-0.1,0-0.2,0-0.2,0.1c0,0.1,0,0.2,0.1,0.2l0.1,0c-0.1,0-0.2,0-0.2,0.1c0,0.1,0,0.2,0.1,0.2l0.1,0c-0.1,0-0.2,0-0.2,0.1
				c0,0.1,0,0.2,0.1,0.2l0.1,0c-0.1,0-0.2,0-0.2,0.1c0,0.1,0,0.2,0.1,0.2l0.1,0c-0.1,0-0.2,0-0.2,0.1c0,0.1,0,0.2,0.1,0.2l0.1,0
				c-0.1,0-0.2,0-0.2,0.1c0,0.1,0,0.2,0.1,0.2l0.1,0c-0.1,0-0.2,0-0.2,0.1c0,0.1,0,0.2,0.1,0.2l0.1,0c-0.1,0-0.2,0-0.2,0.1
				c0,0.1,0,0.2,0.1,0.2l0.1,0c-0.1,0-0.2,0-0.2,0.1c0,0.1,0,0.2,0.1,0.2l0.1,0c-0.1,0-0.2,0-0.2,0.1c0,0.1,0,0.2,0.1,0.2l0.1,0
				c-0.1,0-0.2,0-0.2,0.1c0,0.1,0,0.2,0.1,0.2l0.1,0c-0.1,0-0.2,0-0.2,0.1c0,0.1,0,0.2,0.1,0.2l0.1,0c-0.1,0-0.2,0-0.2,0.1
				c0,0.1,0,0.2,0.1,0.2l0.1,0c-0.1,0-0.2,0-0.2,0.1c0,0.1,0,0.2,0.1,0.2l0.1,0c-0.1,0-0.2,0-0.2,0.1c0,0.1,0,0.2,0.1,0.2l0.1,0
				c-0.1,0-0.2,0-0.2,0.1c0,0.1,0,0.2,0.1,0.2l0.1,0c-0.1,0-0.2,0-0.2,0.1c0,0.1,0,0.2,0.1,0.2l0.1,0c-0.1,0-0.2,0-0.2,0.1
				c0,0.1,0,0.2,0.1,0.2l0.1,0c-0.1,0-0.2,0-0.2,0.1c0,0.1,0,0.2,0.1,0.2l0.1,0c-0.1,0-0.2,0-0.2,0.1c0,0.1,0,0.2,0.1,0.2l0.1,0
				c-0.1,0-0.2,0-0.2,0.1c0,0.1,0,0.2,0.1,0.2l0.1,0c-0.1,0-0.2,0-0.2,0.1c0,0.1,0,0.2,0.1,0.2l0.1,0c-0.1,0-0.2,0-0.2,0.1
				c0,0.1,0,0.2,0.1,0.2l0.1,0c-0.1,0-0.2,0-0.2,0.1c0,0.1,0,0.1,0,0.1c-0.5,0.2-0.9,0.8-0.9,1.4v1.7v1.2c0,0.2,0.1,0.3,0.3,0.3
				l1.1,0c0.2,0,0.4,0.1,0.6,0.3l0.5,0.6c0.3,0.4,0.4,0.9,0.2,1.3l-0.2,0.4c-0.1,0.3-0.5,0.5-0.8,0.5l-1.5,0c-0.3,0-0.5-0.1-0.7-0.3
				l-0.6-0.6c-0.1-0.1-0.3,0-0.3,0.1l0.2,0.9c0,0.2,0.1,0.4,0.3,0.6l0.1,0.1c0.5,0.6,1.2,0.9,2,0.9h0.3c0.6,0,1.2-0.2,1.7-0.6
				c0.5-0.4,0.8-1,0.8-1.6l0.1-0.9c0.1-0.5,0-1-0.3-1.5l-0.9-1.7v-1.7c0-0.6-0.4-1.1-0.9-1.4c0,0,0,0-0.1-0.1l-0.1,0
				c0.1,0,0.2,0,0.2-0.1c0-0.1,0-0.2-0.1-0.2l-0.1,0c0.1,0,0.2,0,0.2-0.1c0-0.1,0-0.2-0.1-0.2l-0.1,0c0.1,0,0.2,0,0.2-0.1
				c0-0.1,0-0.2-0.1-0.2l-0.1,0c0.1,0,0.2,0,0.2-0.1c0-0.1,0-0.2-0.1-0.2l-0.1,0c0.1,0,0.2,0,0.2-0.1c0-0.1,0-0.2-0.1-0.2l-0.1,0
				c0.1,0,0.2,0,0.2-0.1c0-0.1,0-0.2-0.1-0.2l-0.1,0c0.1,0,0.2,0,0.2-0.1c0-0.1,0-0.2-0.1-0.2l-0.1,0c0.1,0,0.2,0,0.2-0.1
				c0-0.1,0-0.2-0.1-0.2l-0.1,0c0.1,0,0.2,0,0.2-0.1c0-0.1,0-0.2-0.1-0.2l-0.1,0c0.1,0,0.2,0,0.2-0.1c0-0.1,0-0.2-0.1-0.2l-0.1,0
				c0.1,0,0.2,0,0.2-0.1c0-0.1,0-0.2-0.1-0.2l-0.1,0c0.1,0,0.2,0,0.2-0.1c0-0.1,0-0.2-0.1-0.2l-0.1,0c0.1,0,0.2,0,0.2-0.1
				c0-0.1,0-0.2-0.1-0.2l-0.1,0c0.1,0,0.2,0,0.2-0.1c0-0.1,0-0.2-0.1-0.2l-0.1,0c0.1,0,0.2,0,0.2-0.1c0-0.1,0-0.2-0.1-0.2l-0.1,0
				c0.1,0,0.2,0,0.2-0.1c0-0.1,0-0.2-0.1-0.2l-0.1,0c0.1,0,0.2,0,0.2-0.1c0-0.1,0-0.2-0.1-0.2l-0.1,0c0.1,0,0.2,0,0.2-0.1
				c0-0.1,0-0.2-0.1-0.2l-0.1,0c0.1,0,0.2,0,0.2-0.1c0-0.1,0-0.2-0.1-0.2l-0.1,0c0.1,0,0.2,0,0.2-0.1c0-0.1,0-0.2-0.1-0.2l-0.1,0
				c0.1,0,0.2,0,0.2-0.1c0-0.1,0-0.2-0.1-0.2l-0.1,0c0.1,0,0.2,0,0.2-0.1c0-0.1,0-0.2-0.1-0.2l-0.1,0c0.1,0,0.2,0,0.2-0.1
				c0-0.1,0-0.2-0.1-0.2l-0.1,0c0.1,0,0.2,0,0.2-0.1c0-0.1,0-0.2-0.1-0.2l-0.1,0c0.1,0,0.2,0,0.2-0.1c0-0.1,0-0.2-0.1-0.2l-0.1,0
				c0.1,0,0.2,0,0.2-0.1c0-0.1,0-0.2-0.1-0.2l-0.1,0c0.1,0,0.2,0,0.2-0.1c0-0.1,0-0.2-0.1-0.2l-0.1,0c0.1,0,0.2,0,0.2-0.1
				c0-0.1,0-0.2-0.1-0.2l-0.1,0c0.1,0,0.2,0,0.2-0.1c0-0.1,0-0.2-0.1-0.2l-0.1,0c0.1,0,0.2,0,0.2-0.1c0-0.1,0-0.2-0.1-0.2l-0.1,0
				c0.1,0,0.2,0,0.2-0.1c0-0.1,0-0.2-0.1-0.2l-0.1,0c0.1,0,0.2,0,0.2-0.1c0-0.1,0-0.2-0.1-0.2l-0.1,0c0.1,0,0.2,0,0.2-0.1
				c0-0.1,0-0.2-0.1-0.2l-0.1,0c0.1,0,0.2,0,0.2-0.1c0-0.1,0-0.2-0.1-0.2l-0.1,0c0.1,0,0.2,0,0.2-0.1c0-0.1,0-0.2-0.1-0.2l-0.1,0
				c0.1,0,0.2,0,0.2-0.1c0-0.1,0-0.2-0.1-0.2l-0.1,0c0.1,0,0.2,0,0.2-0.1c0-0.1,0-0.2-0.1-0.2l-0.1,0c0.1,0,0.2,0,0.2-0.1
				c0-0.1,0-0.2-0.1-0.2l-0.1,0c0.1,0,0.2,0,0.2-0.1c0-0.1,0-0.2-0.1-0.2l-0.1,0c0.1,0,0.2,0,0.2-0.1c0-0.1,0-0.2-0.1-0.2l-0.1,0
				c0.1,0,0.2,0,0.2-0.1c0-0.1,0-0.2-0.1-0.2l-0.1,0c0.1,0,0.2,0,0.2-0.1c0-0.1,0-0.2-0.1-0.2l-0.1,0c0.1,0,0.2,0,0.2-0.1
				c0-0.1,0-0.2-0.1-0.2l-0.1,0c0.1,0,0.2,0,0.2-0.1c0-0.1,0-0.2-0.1-0.2l-0.1,0c0.1,0,0.2,0,0.2-0.1c0-0.1,0-0.2-0.1-0.2l-0.1,0
				c0.1,0,0.2,0,0.2-0.1c0-0.1,0-0.2-0.1-0.2l-0.1,0c0.1,0,0.2,0,0.2-0.1c0-0.1,0-0.2-0.1-0.2l-0.1,0c0,0,0.1,0,0.1,0h0.3
				c0,0,0,0,0,0c0,0.1,0,0.2,0.1,0.2l0.1,0c-0.1,0-0.2,0-0.2,0.1c0,0.1,0,0.1,0.1,0.2c-0.1,0-0.1,0.1-0.1,0.1c0,0.1,0.1,0.1,0.1,0.2
				l0,0c0.2,0.1,0.3,0.1,0.5,0.1c0,0,0,0,0,0c0.2,0,0.3,0,0.5-0.1l0,0c0,0,0.1,0,0.1-0.1c0,0,0,0,0,0c0,0,0,0,0.1-0.1c0,0,0,0,0,0
				c0,0,0,0,0,0c0,0,0,0,0,0c0,0,0,0,0,0c0-0.1,0-0.1-0.1-0.1l-0.1,0c0.1,0,0.2,0,0.2-0.1c0-0.1,0-0.2-0.1-0.2l-0.1,0
				c0.1,0,0.1,0,0.1-0.1h0.3c0,0,0,0,0,0c0,0.1,0,0.2,0.1,0.2l0.1,0c-0.1,0-0.2,0-0.2,0.1c0,0.1,0,0.1,0.1,0.2
				c-0.1,0-0.1,0.1-0.1,0.1c0,0.1,0.1,0.1,0.1,0.2l0,0c0.2,0.1,0.3,0.1,0.5,0.1c0,0,0,0,0,0c0.2,0,0.3,0,0.5-0.1l0,0
				c0,0,0.1,0,0.1-0.1c0,0,0,0,0,0c0,0,0,0,0.1-0.1c0,0,0,0,0,0c0,0,0,0,0,0c0,0,0,0,0,0c0,0,0,0,0,0c0-0.1,0-0.1-0.1-0.1l-0.1,0
				c0.1,0,0.2,0,0.2-0.1c0-0.1,0-0.2-0.1-0.2l-0.1,0c0.1,0,0.1,0,0.1-0.1h0.3c0,0,0,0,0,0c0,0.1,0,0.2,0.1,0.2l0.1,0
				c-0.1,0-0.2,0-0.2,0.1c0,0.1,0,0.1,0.1,0.2c-0.1,0-0.1,0.1-0.1,0.1c0,0.1,0.1,0.1,0.1,0.2l0,0c0.2,0.1,0.3,0.1,0.5,0.1
				c0,0,0,0,0,0c0.2,0,0.3,0,0.5-0.1l0,0c0,0,0.1,0,0.1-0.1c0,0,0,0,0,0c0,0,0,0,0.1-0.1c0,0,0,0,0,0c0,0,0,0,0,0c0,0,0,0,0,0
				c0,0,0,0,0,0c0-0.1,0-0.1-0.1-0.1l-0.1,0c0.1,0,0.2,0,0.2-0.1c0-0.1,0-0.2-0.1-0.2l-0.1,0c0.1,0,0.1,0,0.1-0.1h0.3c0,0,0,0,0,0
				c0,0.1,0,0.2,0.1,0.2l0.1,0c-0.1,0-0.2,0-0.2,0.1c0,0.1,0,0.1,0.1,0.2c-0.1,0-0.1,0.1-0.1,0.1c0,0.1,0.1,0.1,0.1,0.2l0,0
				c0.2,0.1,0.3,0.1,0.5,0.1c0,0,0,0,0,0c0.2,0,0.3,0,0.5-0.1l0,0c0,0,0.1,0,0.1-0.1c0,0,0,0,0,0c0,0,0,0,0.1-0.1c0,0,0,0,0,0
				c0,0,0,0,0,0c0,0,0,0,0,0c0,0,0,0,0,0c0-0.1,0-0.1-0.1-0.1l-0.1,0c0.1,0,0.2,0,0.2-0.1c0-0.1,0-0.2-0.1-0.2l-0.1,0
				c0.1,0,0.1,0,0.1-0.1h0.3c0,0,0,0,0,0c0,0.1,0,0.2,0.1,0.2l0.1,0c-0.1,0-0.2,0-0.2,0.1c0,0.1,0,0.1,0.1,0.2
				c-0.1,0-0.1,0.1-0.1,0.1c0,0.1,0.1,0.1,0.1,0.2l0,0c0.2,0.1,0.3,0.1,0.5,0.1c0,0,0,0,0,0c0.2,0,0.3,0,0.5-0.1l0,0
				c0,0,0.1,0,0.1-0.1c0,0,0,0,0,0c0,0,0,0,0.1-0.1c0,0,0,0,0,0c0,0,0,0,0,0c0,0,0,0,0,0c0,0,0,0,0,0c0-0.1,0-0.1-0.1-0.1l-0.1,0
				c0.1,0,0.2,0,0.2-0.1c0-0.1,0-0.2-0.1-0.2l-0.1,0c0.1,0,0.1,0,0.1-0.1h0.3c0,0,0,0,0,0c0,0.1,0,0.2,0.1,0.2l0.1,0
				c-0.1,0-0.2,0-0.2,0.1c0,0.1,0,0.1,0.1,0.2c-0.1,0-0.1,0.1-0.1,0.1c0,0.1,0.1,0.1,0.1,0.2l0,0c0.2,0.1,0.3,0.1,0.5,0.1
				c0,0,0,0,0,0c0.2,0,0.3,0,0.5-0.1l0,0c0,0,0.1,0,0.1-0.1c0,0,0,0,0,0c0,0,0,0,0.1-0.1c0,0,0,0,0,0c0,0,0,0,0,0c0,0,0,0,0,0
				c0,0,0,0,0,0c0-0.1,0-0.1-0.1-0.1l-0.1,0c0.1,0,0.2,0,0.2-0.1c0-0.1,0-0.2-0.1-0.2l-0.1,0c0.1,0,0.1,0,0.1-0.1h0.3c0,0,0,0,0,0
				c0,0.1,0,0.2,0.1,0.2l0.1,0c-0.1,0-0.2,0-0.2,0.1c0,0.1,0,0.1,0.1,0.2c-0.1,0-0.1,0.1-0.1,0.1c0,0.1,0.1,0.1,0.1,0.2l0,0
				c0.2,0.1,0.3,0.1,0.5,0.1c0,0,0,0,0,0c0.2,0,0.3,0,0.5-0.1l0,0c0,0,0.1,0,0.1-0.1c0,0,0,0,0,0c0,0,0,0,0.1-0.1c0,0,0,0,0,0
				c0,0,0,0,0,0c0,0,0,0,0,0c0,0,0,0,0,0c0-0.1,0-0.1-0.1-0.1l-0.1,0c0.1,0,0.2,0,0.2-0.1c0-0.1,0-0.2-0.1-0.2l-0.1,0
				c0.1,0,0.1,0,0.1-0.1h0.3c0,0,0,0,0,0c0,0.1,0,0.2,0.1,0.2l0.1,0c-0.1,0-0.2,0-0.2,0.1c0,0.1,0,0.1,0.1,0.2
				c-0.1,0-0.1,0.1-0.1,0.1c0,0.1,0.1,0.1,0.1,0.2l0,0c0.2,0.1,0.3,0.1,0.5,0.1c0,0,0,0,0,0c0.2,0,0.3,0,0.5-0.1l0,0
				c0,0,0.1,0,0.1-0.1c0,0,0,0,0,0c0,0,0,0,0.1-0.1c0,0,0,0,0,0c0,0,0,0,0,0c0,0,0,0,0,0c0,0,0,0,0,0c0-0.1,0-0.1-0.1-0.1l-0.1,0
				c0.1,0,0.2,0,0.2-0.1c0-0.1,0-0.2-0.1-0.2l-0.1,0c0.1,0,0.1,0,0.1-0.1h0.3c0,0,0,0,0,0c0,0.1,0,0.2,0.1,0.2l0.1,0
				c-0.1,0-0.2,0-0.2,0.1c0,0.1,0,0.1,0.1,0.2c-0.1,0-0.1,0.1-0.1,0.1c0,0.1,0.1,0.1,0.1,0.2l0,0c0.2,0.1,0.3,0.1,0.5,0.1
				c0,0,0,0,0,0c0.2,0,0.3,0,0.5-0.1l0,0c0,0,0.1,0,0.1-0.1c0,0,0,0,0,0c0,0,0,0,0.1-0.1c0,0,0,0,0,0c0,0,0,0,0,0c0,0,0,0,0,0
				c0,0,0,0,0,0c0-0.1,0-0.1-0.1-0.1l-0.1,0c0.1,0,0.2,0,0.2-0.1c0-0.1,0-0.2-0.1-0.2l-0.1,0c0.1,0,0.1,0,0.1-0.1h1.1v1.3h0.7v-1.7
				h0.7v0.4h1.4v-0.4c0.3,0,0.5-0.3,0.5-0.6c0-0.3-0.2-0.5-0.5-0.6v-3.4v-1.4h1.7v-1.3l-0.9-4.2h18.5v-1.4v-4v-1.4H83.2z M150.5,35
				h-1.2c-3.1,0-5.7,2.5-5.7,5.6v-0.2h-0.8h-0.1c-0.4,0-0.7,0.3-0.7,0.7v1.8c-8.5,0-19.6-5-23-6.6c0.1-0.2,0.2-0.4,0.2-0.7v-3.4h0.8
				h31.1L150.5,35z M173.9,42.6h-0.7v-1.7h-0.7v1.3h-1.1c0-0.1,0-0.1-0.1-0.1l-0.1,0c0.1,0,0.2,0,0.2-0.1c0-0.1,0-0.2-0.1-0.2
				l-0.1,0c0.1,0,0.2,0,0.2-0.1c0,0,0-0.1,0-0.1c0,0,0-0.1,0-0.1c0-0.1,0-0.1-0.1-0.2l0,0c-0.1-0.1-0.3-0.1-0.5-0.1c0,0,0,0,0,0
				c-0.2,0-0.3,0-0.5,0.1l0,0c0,0-0.1,0-0.1,0.1c0,0,0,0,0,0c0,0,0,0,0,0c0,0,0,0,0,0.1c0,0,0,0,0,0c0,0,0,0,0,0c0,0,0,0,0,0
				c0,0,0,0.1,0,0.1c0,0,0,0,0,0c0,0,0,0,0.1,0l0.1,0c-0.1,0-0.2,0-0.2,0.1c0,0.1,0,0.2,0.1,0.2l0.1,0c-0.1,0-0.2,0-0.2,0.1
				c0,0.1,0,0.2,0.1,0.2l0.1,0c0,0,0,0-0.1,0h-0.4c0-0.1,0-0.1-0.1-0.1l-0.1,0c0.1,0,0.2,0,0.2-0.1c0-0.1,0-0.2-0.1-0.2l-0.1,0
				c0.1,0,0.2,0,0.2-0.1c0,0,0-0.1,0-0.1c0,0,0-0.1,0-0.1c0-0.1,0-0.1-0.1-0.2l0,0c-0.1-0.1-0.3-0.1-0.5-0.1c0,0,0,0,0,0
				c-0.2,0-0.3,0-0.5,0.1l0,0c0,0-0.1,0-0.1,0.1c0,0,0,0,0,0c0,0,0,0,0,0c0,0,0,0,0,0.1c0,0,0,0,0,0c0,0,0,0,0,0c0,0,0,0,0,0
				c0,0,0,0.1,0,0.1c0,0,0,0,0,0c0,0,0,0,0.1,0l0.1,0c-0.1,0-0.2,0-0.2,0.1c0,0.1,0,0.2,0.1,0.2l0.1,0c-0.1,0-0.2,0-0.2,0.1
				c0,0.1,0,0.2,0.1,0.2l0.1,0c0,0,0,0-0.1,0h-0.4c0-0.1,0-0.1-0.1-0.1l-0.1,0c0.1,0,0.2,0,0.2-0.1c0-0.1,0-0.2-0.1-0.2l-0.1,0
				c0.1,0,0.2,0,0.2-0.1c0,0,0-0.1,0-0.1c0,0,0-0.1,0-0.1c0-0.1,0-0.1-0.1-0.2l0,0c-0.1-0.1-0.3-0.1-0.5-0.1c0,0,0,0,0,0
				c-0.2,0-0.3,0-0.5,0.1l0,0c0,0-0.1,0-0.1,0.1c0,0,0,0,0,0c0,0,0,0,0,0c0,0,0,0,0,0.1c0,0,0,0,0,0c0,0,0,0,0,0c0,0,0,0,0,0
				c0,0,0,0.1,0,0.1c0,0,0,0,0,0c0,0,0,0,0.1,0l0.1,0c-0.1,0-0.2,0-0.2,0.1c0,0.1,0,0.2,0.1,0.2l0.1,0c-0.1,0-0.2,0-0.2,0.1
				c0,0.1,0,0.2,0.1,0.2l0.1,0c0,0,0,0-0.1,0h-0.4c0-0.1,0-0.1-0.1-0.1l-0.1,0c0.1,0,0.2,0,0.2-0.1c0-0.1,0-0.2-0.1-0.2l-0.1,0
				c0.1,0,0.2,0,0.2-0.1c0,0,0-0.1,0-0.1c0,0,0-0.1,0-0.1c0-0.1,0-0.1-0.1-0.2l0,0c-0.1-0.1-0.3-0.1-0.5-0.1c0,0,0,0,0,0
				c-0.2,0-0.3,0-0.5,0.1l0,0c0,0-0.1,0-0.1,0.1c0,0,0,0,0,0c0,0,0,0,0,0c0,0,0,0,0,0.1c0,0,0,0,0,0c0,0,0,0,0,0c0,0,0,0,0,0
				c0,0,0,0.1,0,0.1c0,0,0,0,0,0c0,0,0,0,0.1,0l0.1,0c-0.1,0-0.2,0-0.2,0.1c0,0.1,0,0.2,0.1,0.2l0.1,0c-0.1,0-0.2,0-0.2,0.1
				c0,0.1,0,0.2,0.1,0.2l0.1,0c0,0,0,0-0.1,0h-0.4c0-0.1,0-0.1-0.1-0.1l-0.1,0c0.1,0,0.2,0,0.2-0.1c0-0.1,0-0.2-0.1-0.2l-0.1,0
				c0.1,0,0.2,0,0.2-0.1c0,0,0-0.1,0-0.1c0,0,0-0.1,0-0.1c0-0.1,0-0.1-0.1-0.2l0,0c-0.1-0.1-0.3-0.1-0.5-0.1c0,0,0,0,0,0
				c-0.2,0-0.3,0-0.5,0.1l0,0c0,0-0.1,0-0.1,0.1c0,0,0,0,0,0c0,0,0,0,0,0c0,0,0,0,0,0.1c0,0,0,0,0,0c0,0,0,0,0,0c0,0,0,0,0,0
				c0,0,0,0.1,0,0.1c0,0,0,0,0,0c0,0,0,0,0.1,0l0.1,0c-0.1,0-0.2,0-0.2,0.1c0,0.1,0,0.2,0.1,0.2l0.1,0c-0.1,0-0.2,0-0.2,0.1
				c0,0.1,0,0.2,0.1,0.2l0.1,0c0,0,0,0-0.1,0h-0.4c0-0.1,0-0.1-0.1-0.1l-0.1,0c0.1,0,0.2,0,0.2-0.1c0-0.1,0-0.2-0.1-0.2l-0.1,0
				c0.1,0,0.2,0,0.2-0.1c0,0,0-0.1,0-0.1c0,0,0-0.1,0-0.1c0-0.1,0-0.1-0.1-0.2l0,0c-0.1-0.1-0.3-0.1-0.5-0.1c0,0,0,0,0,0
				c-0.2,0-0.3,0-0.5,0.1l0,0c0,0-0.1,0-0.1,0.1c0,0,0,0,0,0c0,0,0,0,0,0c0,0,0,0,0,0.1c0,0,0,0,0,0c0,0,0,0,0,0c0,0,0,0,0,0
				c0,0,0,0.1,0,0.1c0,0,0,0,0,0c0,0,0,0,0.1,0l0.1,0c-0.1,0-0.2,0-0.2,0.1c0,0.1,0,0.2,0.1,0.2l0.1,0c-0.1,0-0.2,0-0.2,0.1
				c0,0.1,0,0.2,0.1,0.2l0.1,0c0,0,0,0-0.1,0h-0.4c0-0.1,0-0.1-0.1-0.1l-0.1,0c0.1,0,0.2,0,0.2-0.1c0-0.1,0-0.2-0.1-0.2l-0.1,0
				c0.1,0,0.2,0,0.2-0.1c0,0,0-0.1,0-0.1c0,0,0-0.1,0-0.1c0-0.1,0-0.1-0.1-0.2l0,0c-0.1-0.1-0.3-0.1-0.5-0.1c0,0,0,0,0,0
				c-0.2,0-0.3,0-0.5,0.1l0,0c0,0-0.1,0-0.1,0.1c0,0,0,0,0,0c0,0,0,0,0,0c0,0,0,0,0,0.1c0,0,0,0,0,0c0,0,0,0,0,0c0,0,0,0,0,0
				c0,0,0,0.1,0,0.1c0,0,0,0,0,0c0,0,0,0,0.1,0l0.1,0c-0.1,0-0.2,0-0.2,0.1c0,0.1,0,0.2,0.1,0.2l0.1,0c-0.1,0-0.2,0-0.2,0.1
				c0,0.1,0,0.2,0.1,0.2l0.1,0c0,0,0,0-0.1,0h-0.4c0-0.1,0-0.1-0.1-0.1l-0.1,0c0.1,0,0.2,0,0.2-0.1c0-0.1,0-0.2-0.1-0.2l-0.1,0
				c0.1,0,0.2,0,0.2-0.1c0,0,0-0.1,0-0.1c0,0,0-0.1,0-0.1c0-0.1,0-0.1-0.1-0.2l0,0c-0.1-0.1-0.3-0.1-0.5-0.1c0,0,0,0,0,0
				c-0.2,0-0.3,0-0.5,0.1l0,0c0,0-0.1,0-0.1,0.1c0,0,0,0,0,0c0,0,0,0,0,0c0,0,0,0,0,0.1c0,0,0,0,0,0c0,0,0,0,0,0c0,0,0,0,0,0
				c0,0,0,0.1,0,0.1c0,0,0,0,0,0c0,0,0,0,0.1,0l0.1,0c-0.1,0-0.2,0-0.2,0.1c0,0.1,0,0.2,0.1,0.2l0.1,0c-0.1,0-0.2,0-0.2,0.1
				c0,0.1,0,0.2,0.1,0.2l0.1,0c0,0,0,0-0.1,0h-0.4c0-0.1,0-0.1-0.1-0.1l-0.1,0c0.1,0,0.2,0,0.2-0.1c0-0.1,0-0.2-0.1-0.2l-0.1,0
				c0.1,0,0.2,0,0.2-0.1c0,0,0-0.1,0-0.1c0,0,0-0.1,0-0.1c0-0.1,0-0.1-0.1-0.2l0,0c-0.1-0.1-0.3-0.1-0.5-0.1c0,0,0,0,0,0
				c-0.2,0-0.3,0-0.5,0.1l0,0c0,0-0.1,0-0.1,0.1c0,0,0,0,0,0c0,0,0,0,0,0c0,0,0,0,0,0.1c0,0,0,0,0,0c0,0,0,0,0,0c0,0,0,0,0,0
				c0,0,0,0.1,0,0.1c0,0,0,0,0,0c0,0,0,0,0.1,0l0.1,0c-0.1,0-0.2,0-0.2,0.1c0,0.1,0,0.2,0.1,0.2l0.1,0c-0.1,0-0.2,0-0.2,0.1
				c0,0.1,0,0.2,0.1,0.2l0.1,0c0,0,0,0-0.1,0h-0.3c0-0.1,0-0.2-0.1-0.2l-0.1,0c0.1,0,0.2,0,0.2-0.1c0-0.1,0-0.2-0.1-0.2l-0.1,0
				c0.1,0,0.2,0,0.2-0.1c0,0,0-0.1,0-0.1c0,0,0,0,0-0.1c0-0.1,0-0.1-0.1-0.2l0,0c-0.1-0.1-0.3-0.1-0.5-0.1c0,0,0,0,0,0
				c-0.2,0-0.3,0-0.5,0.1l0,0c0,0-0.1,0-0.1,0.1c0,0,0,0,0,0c0,0,0,0,0,0.1c0,0,0,0,0,0c0,0,0,0,0,0c0,0,0,0,0,0c0,0,0,0,0,0
				c0,0,0,0,0,0.1c0,0,0,0,0.1,0c0,0,0,0,0,0l0.1,0c-0.1,0-0.2,0-0.2,0.1c0,0.1,0,0.2,0.1,0.2l0.1,0c-0.1,0-0.2,0-0.2,0.1
				c0,0.1,0,0.2,0.1,0.2l0.1,0c-0.1,0-0.1,0-0.1,0.1h-1.1v-1.3H154v1.7h-0.8V40h20.6V42.6z"/>
			<rect x="74.4" y="25.4" class="st10" width="8.7" height="114.9"/>
			<path class="st10" d="M86.9,159.3c0,2.3-18.5,4.2-41.2,4.2s-41.2-1.9-41.2-4.2c0-2.3,18.5-4.2,41.2-4.2S86.9,157,86.9,159.3z"/>
			<g>
				<g>
					<path class="st11" d="M87.9,55.6c-3.7,0-7.1-1.6-9.7-4.8c-3.5-4.2-4.6-10.5-2.7-15.2c1.9-4.8,2.2-8.3,1-10.8
						c-2-3.9-7.8-5.5-14.6-7.4c-3.5-1-7-1.9-10.7-3.4c-0.9-0.3-2-0.9-3.3-1.5c-5.6-2.7-15-7.2-23-3.8c-3.8,1.6-5.6,4.9-5.3,9.8
						c0.2,3.8,1.6,7.2,1.6,7.3l-1.9,0.8c-0.1-0.2-1.6-3.7-1.8-7.9c-0.3-5.8,2-9.9,6.6-11.8c8.8-3.7,18.7,1.1,24.7,3.9
						c1.3,0.6,2.3,1.1,3.2,1.4c3.6,1.4,7.1,2.3,10.5,3.3c7.3,2,13.6,3.7,15.9,8.5c1.5,3.1,1.2,7.1-0.9,12.5c-1.6,4-0.7,9.4,2.4,13.1
						c2.6,3.1,6.1,4.5,10,3.8l0.3,2C89.4,55.5,88.7,55.6,87.9,55.6z"/>
				</g>
				<g>
					<g>
						<path class="st10" d="M104.4,64.9l-1.1,3.9l2.3,8.7c0,0.1,0.2,0.1,0.2,0l-0.4-8.1l1.1-3.9L104.4,64.9z"/>
					</g>
					<g>
						<path class="st10" d="M98.2,66.6l2.9,2.9l2.3,8.7c0,0.1-0.1,0.2-0.2,0.1L99.5,71l-2.9-2.9L98.2,66.6z"/>
					</g>
				</g>
				<g>
					<g>
						<polygon class="st10" points="100.3,54.4 96.4,55.4 92,39.2 96,38.1 						"/>
					</g>
					<g>
						<path class="st2" d="M97,38.2c0.4,1.6-0.5,3.2-2.1,3.6c-1.6,0.4-3.2-0.5-3.6-2.1c-0.4-1.6,0.5-3.2,2.1-3.6S96.5,36.6,97,38.2z
							"/>
					</g>
				</g>
				<g>
					<polygon class="st2" points="80.3,29.4 52.1,18.6 51.5,20.2 79.7,30.9 					"/>
				</g>
				<g>
					<path class="st10" d="M73.6,30.2c-1.8,4.6-7,7-11.7,5.2c-4.7-1.8-7-7-5.2-11.6c1.8-4.6,7-7,11.7-5.2S75.4,25.6,73.6,30.2z"/>
				</g>
				<g>
					<g>
						<g>
							<path class="st4" d="M80.1,26.1c-0.3,0.9-1.3,1.3-2.2,1c-0.9-0.3-1.3-1.3-1-2.2c0.3-0.9,1.3-1.3,2.2-1
								C80,24.3,80.5,25.2,80.1,26.1z"/>
						</g>
						<g>
							<path class="st1" d="M79.8,26c-0.3,0.7-1,1-1.7,0.7c-0.7-0.3-1-1-0.7-1.7c0.3-0.7,1-1,1.7-0.7C79.7,24.6,80,25.3,79.8,26z"/>
						</g>
						<g>
							<polygon class="st7" points="77.8,26.1 77.7,25.2 78.4,24.6 79.3,24.9 79.4,25.8 78.7,26.4 							"/>
						</g>
					</g>
					<g>
						<g>
							<path class="st4" d="M57.6,17.6c-0.3,0.9-1.3,1.3-2.2,1c-0.9-0.3-1.3-1.3-1-2.2c0.3-0.9,1.3-1.3,2.2-1
								C57.5,15.7,58,16.7,57.6,17.6z"/>
						</g>
						<g>
							<path class="st1" d="M57.3,17.4c-0.3,0.7-1,1-1.7,0.7c-0.7-0.3-1-1-0.7-1.7c0.3-0.7,1-1,1.7-0.7C57.2,16,57.5,16.7,57.3,17.4
								z"/>
						</g>
						<g>
							<polygon class="st7" points="55.3,17.5 55.2,16.6 55.9,16 56.8,16.4 56.9,17.3 56.2,17.9 							"/>
						</g>
					</g>
				</g>
				<g>
					<g>
						<polygon class="st1" points="116,32.5 116.7,30.7 49.2,5.1 48.5,6.8 						"/>
					</g>
					<g>
						<polygon class="st1" points="47.8,8.8 45,15.9 112.5,41.6 115.3,34.5 						"/>
					</g>
				</g>
				<g>
					<polygon class="st1" points="116,32.5 116.7,30.7 49.2,5.1 48.5,6.8 					"/>
				</g>
				<g>
					<polygon class="st4" points="114.4,34.2 48.5,9.1 49.3,7 115.2,32.1 					"/>
				</g>
				<g>
					<g>
						<g>
							<g>
								<polygon class="st1" points="8.9,156.3 28.5,156.3 28.5,149 14.2,152.8 14.2,154.1 8.9,154.1 								"/>
							</g>
						</g>
						<g>
							<rect x="7.9" y="156.3" class="st2" width="7.3" height="3.3"/>
						</g>
						<g>
							<g>
								<rect x="9.5" y="152.5" class="st12" width="4.1" height="1.7"/>
							</g>
							<g>
								<rect x="12.7" y="152.5" class="st13" width="0.9" height="1.7"/>
							</g>
							<g>
								<rect x="9.5" y="152.5" class="st13" width="0.9" height="1.7"/>
							</g>
						</g>
					</g>
				</g>
				<g>
					<g>
						<g>
							<g>
								<polygon class="st1" points="82.4,156.3 55.4,156.3 62.8,149 77.2,152.8 77.2,154.1 82.4,154.1 								"/>
							</g>
						</g>
						<g>
							<rect x="76.2" y="156.3" class="st2" width="7.3" height="3.3"/>
						</g>
						<g>
							<g>
								<rect x="77.7" y="152.5" class="st12" width="4.1" height="1.7"/>
							</g>
							<g>
								<rect x="77.7" y="152.5" class="st13" width="0.9" height="1.7"/>
							</g>
							<g>
								<rect x="81" y="152.5" class="st13" width="0.9" height="1.7"/>
							</g>
						</g>
					</g>
				</g>
				<g>
					<rect x="16.2" y="41.3" class="st14" width="23" height="8.7"/>
				</g>
				<g>
					<rect x="39.2" y="121.4" class="st15" width="4.5" height="15"/>
				</g>
				<g>
					<path class="st16" d="M65.1,23.8c-1.5,0-2.8,1.1-3.1,2.5H56c0,0.2,0,0.4,0,0.7c0,5,4.1,9,9.1,9c0.3,0,0.5,0,0.8,0v-5.9
						c1.4-0.3,2.4-1.6,2.4-3.1C68.3,25.2,66.9,23.8,65.1,23.8z"/>
				</g>
				<g>
					<rect x="34.6" y="156.3" class="st2" width="19.1" height="4.8"/>
				</g>
				<g>
					<rect x="30.5" y="124.7" class="st10" width="19.2" height="13"/>
				</g>
				<g>
					<path class="st2" d="M49.7,124.7h-1.4v3.1c0,0-5.8,0.9-5.8,7.6H32.4c-0.6,0-1.3,0.1-1.9,0.3l0,0v2h19.2V124.7z"/>
				</g>
				<g>
					<path class="st1" d="M64.9,128.8H50c-3.5,0-6.2,2.8-6.2,6.2v8.8c0,3.4,2.8,6.2,6.2,6.2l21.1,1.2V135
						C71.1,131.6,68.3,128.8,64.9,128.8z"/>
				</g>
				<g>
					<path class="st5" d="M43.7,135v8.8c0,3.4,2.8,6.2,6.2,6.2h14.9c0.7,0,1.3,0.2,2,0v-15.3H43.8C43.8,134.8,43.7,134.9,43.7,135z"
						/>
				</g>
				<g>
					<path class="st1" d="M58.2,156.3H25c-1,0-1.8-0.8-1.8-1.8v-8.3c0-5.4,4.5-9.9,9.9-9.9h32v13C65.1,153.2,62,156.3,58.2,156.3z"
						/>
				</g>
				<g>
					<rect x="24.8" y="153.6" class="st14" width="15.6" height="1.1"/>
				</g>
				<g>
					<rect x="24.8" y="151.3" class="st14" width="15.6" height="1.1"/>
				</g>
				<g>
					<rect x="24.8" y="149.1" class="st14" width="15.6" height="1.1"/>
				</g>
				<g>
					<rect x="24.8" y="146.8" class="st14" width="15.6" height="1.1"/>
				</g>
				<g>
					<rect x="24.8" y="144.5" class="st14" width="15.6" height="1.1"/>
				</g>
				<g>
					<g>
						<path class="st4" d="M63.7,147.3c0,0.9-0.8,1.7-1.7,1.7s-1.7-0.7-1.7-1.7c0-0.9,0.8-1.7,1.7-1.7S63.7,146.4,63.7,147.3z"/>
					</g>
					<g>
						<path class="st1" d="M63.3,147.3c0,0.7-0.6,1.3-1.3,1.3c-0.7,0-1.3-0.6-1.3-1.3c0-0.7,0.6-1.3,1.3-1.3
							C62.7,146,63.3,146.6,63.3,147.3z"/>
					</g>
					<g>
						<polygon class="st7" points="61.5,148.1 61.1,147.3 61.5,146.5 62.4,146.5 62.9,147.3 62.4,148.1 						"/>
					</g>
				</g>
				<g>
					<g>
						<path class="st4" d="M63.7,139.4c0,0.9-0.8,1.7-1.7,1.7s-1.7-0.7-1.7-1.7s0.8-1.7,1.7-1.7S63.7,138.4,63.7,139.4z"/>
					</g>
					<g>
						<ellipse class="st1" cx="62" cy="139.4" rx="1.3" ry="1.3"/>
					</g>
					<g>
						<polygon class="st7" points="61.5,140.2 61.1,139.4 61.5,138.6 62.4,138.6 62.9,139.4 62.4,140.2 						"/>
					</g>
				</g>
				<g>
					<g>
						<ellipse class="st4" cx="46.7" cy="139.4" rx="1.7" ry="1.7"/>
					</g>
					<g>
						<ellipse class="st1" cx="46.7" cy="139.4" rx="1.3" ry="1.3"/>
					</g>
					<g>
						<polygon class="st7" points="46.2,140.2 45.7,139.4 46.2,138.6 47.1,138.6 47.6,139.4 47.1,140.2 						"/>
					</g>
				</g>
				<g>
					<rect x="49.7" y="82.4" class="st1" width="15.4" height="44.5"/>
				</g>
				<g>
					<g>
						<rect x="49.7" y="126.9" class="st2" width="15.4" height="1.9"/>
					</g>
					<g>
						<g>
							<path class="st3" d="M50.7,128.4L50.7,128.4c-0.1,0-0.3-0.1-0.3-0.3v-0.7c0-0.1,0.1-0.3,0.3-0.3l0,0c0.1,0,0.3,0.1,0.3,0.3
								v0.7C50.9,128.3,50.8,128.4,50.7,128.4z"/>
						</g>
						<g>
							<path class="st3" d="M52.2,128.4L52.2,128.4c-0.1,0-0.3-0.1-0.3-0.3v-0.7c0-0.1,0.1-0.3,0.3-0.3l0,0c0.1,0,0.3,0.1,0.3,0.3
								v0.7C52.4,128.3,52.3,128.4,52.2,128.4z"/>
						</g>
						<g>
							<path class="st3" d="M53.7,128.4L53.7,128.4c-0.1,0-0.3-0.1-0.3-0.3v-0.7c0-0.1,0.1-0.3,0.3-0.3l0,0c0.1,0,0.3,0.1,0.3,0.3
								v0.7C53.9,128.3,53.8,128.4,53.7,128.4z"/>
						</g>
						<g>
							<path class="st3" d="M55.2,128.4L55.2,128.4c-0.1,0-0.3-0.1-0.3-0.3v-0.7c0-0.1,0.1-0.3,0.3-0.3l0,0c0.1,0,0.3,0.1,0.3,0.3
								v0.7C55.4,128.3,55.3,128.4,55.2,128.4z"/>
						</g>
						<g>
							<path class="st3" d="M56.7,128.4L56.7,128.4c-0.1,0-0.3-0.1-0.3-0.3v-0.7c0-0.1,0.1-0.3,0.3-0.3l0,0c0.1,0,0.3,0.1,0.3,0.3
								v0.7C56.9,128.3,56.8,128.4,56.7,128.4z"/>
						</g>
						<g>
							<path class="st3" d="M58.2,128.4L58.2,128.4c-0.1,0-0.3-0.1-0.3-0.3v-0.7c0-0.1,0.1-0.3,0.3-0.3l0,0c0.1,0,0.3,0.1,0.3,0.3
								v0.7C58.4,128.3,58.3,128.4,58.2,128.4z"/>
						</g>
						<g>
							<path class="st3" d="M59.7,128.4L59.7,128.4c-0.1,0-0.3-0.1-0.3-0.3v-0.7c0-0.1,0.1-0.3,0.3-0.3l0,0c0.1,0,0.3,0.1,0.3,0.3
								v0.7C59.9,128.3,59.8,128.4,59.7,128.4z"/>
						</g>
						<g>
							<path class="st3" d="M61.2,128.4L61.2,128.4c-0.1,0-0.3-0.1-0.3-0.3v-0.7c0-0.1,0.1-0.3,0.3-0.3l0,0c0.1,0,0.3,0.1,0.3,0.3
								v0.7C61.4,128.3,61.3,128.4,61.2,128.4z"/>
						</g>
						<g>
							<path class="st3" d="M62.7,128.4L62.7,128.4c-0.1,0-0.3-0.1-0.3-0.3v-0.7c0-0.1,0.1-0.3,0.3-0.3l0,0c0.1,0,0.3,0.1,0.3,0.3
								v0.7C62.9,128.3,62.8,128.4,62.7,128.4z"/>
						</g>
						<g>
							<path class="st3" d="M64.2,128.4L64.2,128.4c-0.1,0-0.3-0.1-0.3-0.3v-0.7c0-0.1,0.1-0.3,0.3-0.3l0,0c0.1,0,0.3,0.1,0.3,0.3
								v0.7C64.4,128.3,64.3,128.4,64.2,128.4z"/>
						</g>
					</g>
				</g>
				<g>
					<rect x="39.2" y="121.4" class="st17" width="4.5" height="1.6"/>
				</g>
				<g>
					<rect x="32.3" y="117.8" class="st15" width="18.3" height="3.6"/>
				</g>
				<g>
					<g>
						<rect x="32.7" y="118.1" class="st2" width="0.6" height="3"/>
					</g>
					<g>
						<rect x="34.1" y="118.1" class="st2" width="0.6" height="3"/>
					</g>
					<g>
						<rect x="35.5" y="118.1" class="st2" width="0.6" height="3"/>
					</g>
					<g>
						<rect x="36.9" y="118.1" class="st2" width="0.6" height="3"/>
					</g>
					<g>
						<rect x="38.4" y="118.1" class="st2" width="0.6" height="3"/>
					</g>
					<g>
						<rect x="39.8" y="118.1" class="st2" width="0.6" height="3"/>
					</g>
					<g>
						<rect x="41.2" y="118.1" class="st2" width="0.6" height="3"/>
					</g>
					<g>
						<rect x="42.6" y="118.1" class="st2" width="0.6" height="3"/>
					</g>
					<g>
						<rect x="44" y="118.1" class="st2" width="0.6" height="3"/>
					</g>
					<g>
						<rect x="45.4" y="118.1" class="st2" width="0.6" height="3"/>
					</g>
					<g>
						<rect x="46.8" y="118.1" class="st2" width="0.6" height="3"/>
					</g>
					<g>
						<rect x="48.2" y="118.1" class="st2" width="0.6" height="3"/>
					</g>
					<g>
						<rect x="49.6" y="118.1" class="st2" width="0.6" height="3"/>
					</g>
				</g>
				<g>
					<rect x="51.4" y="40.2" class="st10" width="12" height="42.2"/>
				</g>
				<g>
					<rect x="15.3" y="45.7" class="st1" width="24.9" height="2.5"/>
				</g>
				<g>
					<rect x="15.3" y="48.9" class="st1" width="24.9" height="2.8"/>
				</g>
				<g>
					<polygon class="st1" points="40.2,27 15.3,27 15.3,41.8 40.2,41.8 40.2,40.2 65.1,40.2 65.1,27 					"/>
				</g>
				<g>
					<rect x="15.3" y="42.5" class="st1" width="24.9" height="2.5"/>
				</g>
				<g>
					<rect x="51.4" y="40.2" class="st16" width="12" height="0.8"/>
				</g>
				<g>
					<rect x="65.1" y="147.8" class="st5" width="1.7" height="8.5"/>
				</g>
				<g>
					<polygon class="st5" points="23.1,156.3 21.4,156.3 21.4,149.9 23.1,149.7 					"/>
				</g>
				<g>
					<ellipse class="st1" cx="65.1" cy="27" rx="2.4" ry="2.3"/>
				</g>
				<path class="st18" d="M112.5,41.6l1.6-4.1c-6.2-2.7-36-15.5-37.3-11c-0.1,0.5-0.3,1-0.4,1.5L112.5,41.6z"/>
				<g>
					<path class="st4" d="M66.3,27c0,0.7-0.6,1.2-1.3,1.2c-0.7,0-1.3-0.6-1.3-1.2c0-0.7,0.6-1.2,1.3-1.2
						C65.8,25.7,66.3,26.3,66.3,27z"/>
				</g>
				<g>
					<g>
						<path class="st3" d="M105.4,21.9c-0.9,2.2-3.3,3.3-5.6,2.5c-2.2-0.8-3.3-3.3-2.5-5.5c0.9-2.2,3.3-3.3,5.6-2.5
							C105.1,17.2,106.2,19.7,105.4,21.9z"/>
					</g>
					<g>
						<polygon class="st3" points="103.3,15.9 103.2,15.9 102.9,15.8 102.9,15.8 102.2,16.5 102.6,16.6 102.9,16.7 103.3,16.9 
													"/>
					</g>
					<g>
						<polygon class="st3" points="102.1,15.6 102,15.6 101.8,15.6 101.7,15.5 101.2,16.4 101.7,16.4 101.9,16.4 102.3,16.5 						
							"/>
					</g>
					<g>
						<polygon class="st3" points="100.9,15.6 100.8,15.6 100.5,15.6 100.5,15.6 100.3,16.5 100.7,16.5 100.9,16.4 101.3,16.4 
													"/>
					</g>
					<g>
						<polygon class="st3" points="99.7,15.8 99.6,15.8 99.4,15.9 99.3,16 99.3,16.9 99.7,16.7 100,16.6 100.3,16.5 						"/>
					</g>
					<g>
						<polygon class="st3" points="98.6,16.4 98.6,16.4 98.3,16.6 98.3,16.6 98.5,17.5 98.9,17.3 99.1,17.1 99.4,16.8 						"/>
					</g>
					<g>
						<polygon class="st3" points="97.7,17.2 97.7,17.2 97.5,17.4 97.4,17.5 97.9,18.3 98.2,18 98.3,17.7 98.6,17.4 						"/>
					</g>
					<g>
						<polygon class="st3" points="97,18.1 97,18.2 96.9,18.5 96.9,18.5 97.5,19.2 97.7,18.8 97.8,18.6 98,18.2 						"/>
					</g>
					<g>
						<polygon class="st3" points="96.6,19.3 96.6,19.3 96.6,19.6 96.5,19.7 97.3,20.2 97.4,19.8 97.5,19.5 97.5,19.1 						"/>
					</g>
					<g>
						<polygon class="st3" points="96.5,20.5 96.5,20.5 96.5,20.8 96.5,20.9 97.4,21.2 97.4,20.7 97.4,20.5 97.3,20.1 						"/>
					</g>
					<g>
						<polygon class="st3" points="96.7,21.7 96.7,21.7 96.8,22 96.8,22 97.8,22.1 97.6,21.7 97.5,21.4 97.4,21.1 						"/>
					</g>
					<g>
						<polygon class="st3" points="97.2,22.8 97.2,22.8 97.4,23 97.4,23.1 98.3,22.9 98.1,22.6 97.9,22.3 97.7,22 						"/>
					</g>
					<g>
						<polygon class="st3" points="97.9,23.7 98,23.8 98.2,23.9 98.2,24 99.1,23.6 98.7,23.3 98.5,23.1 98.2,22.8 						"/>
					</g>
					<g>
						<polygon class="st3" points="98.9,24.4 98.9,24.5 99.2,24.6 99.2,24.6 99.9,24 99.6,23.8 99.3,23.7 99,23.5 						"/>
					</g>
					<g>
						<polygon class="st3" points="100,24.9 100,24.9 100.3,25 100.4,25 100.9,24.3 100.5,24.2 100.3,24.1 99.9,24 						"/>
					</g>
					<g>
						<polygon class="st3" points="101.2,25.1 101.2,25.1 101.5,25.1 101.6,25.1 101.9,24.2 101.5,24.2 101.2,24.3 100.8,24.3 
													"/>
					</g>
					<g>
						<polygon class="st3" points="102.4,25 102.5,25 102.7,24.9 102.8,24.9 102.9,24 102.5,24.1 102.2,24.2 101.8,24.3 						"/>
					</g>
					<g>
						<polygon class="st3" points="103.5,24.6 103.6,24.6 103.8,24.4 103.9,24.4 103.8,23.5 103.4,23.7 103.2,23.8 102.8,24 						
							"/>
					</g>
					<g>
						<polygon class="st3" points="104.5,23.9 104.6,23.9 104.8,23.7 104.8,23.6 104.5,22.8 104.2,23.1 104,23.3 103.7,23.5 						
							"/>
					</g>
					<g>
						<polygon class="st3" points="105.3,23 105.4,23 105.5,22.7 105.5,22.7 105,21.9 104.8,22.3 104.6,22.5 104.4,22.9 						"/>
					</g>
					<g>
						<polygon class="st3" points="105.9,21.9 105.9,21.9 106,21.6 106,21.6 105.3,21 105.2,21.4 105.1,21.6 104.9,22 						"/>
					</g>
					<g>
						<polygon class="st3" points="106.1,20.8 106.1,20.7 106.2,20.4 106.2,20.4 105.3,20 105.3,20.4 105.3,20.7 105.3,21.1 						
							"/>
					</g>
					<g>
						<polygon class="st3" points="106.1,19.6 106.1,19.5 106,19.2 106,19.2 105.1,19 105.2,19.4 105.2,19.7 105.3,20.1 						"/>
					</g>
					<g>
						<polygon class="st3" points="105.8,18.4 105.7,18.4 105.6,18.1 105.6,18.1 104.7,18.1 104.8,18.5 105,18.7 105.1,19.1 						
							"/>
					</g>
					<g>
						<polygon class="st3" points="105.2,17.4 105.1,17.3 104.9,17.1 104.9,17.1 104,17.4 104.3,17.7 104.4,17.9 104.7,18.2 						
							"/>
					</g>
					<g>
						<polygon class="st3" points="104.3,16.5 104.2,16.5 104,16.3 104,16.3 103.2,16.8 103.5,17 103.7,17.2 104.1,17.4 						"/>
					</g>
					<g>
						<path class="st2" d="M104.3,21.5c-0.6,1.6-2.5,2.5-4.1,1.8c-1.7-0.6-2.5-2.5-1.8-4.1c0.6-1.6,2.5-2.5,4.1-1.8
							C104.1,18,105,19.8,104.3,21.5z"/>
					</g>
					<g>
						<polygon class="st1" points="102.5,39 87.9,33.5 91.6,24 106.1,29.5 						"/>
					</g>
					<g>
						<polygon class="st5" points="104.5,38.6 102.9,37.9 105.6,30.8 107.2,31.5 						"/>
					</g>
					<g>
						<polygon class="st5" points="102.1,27.2 100.8,26.7 101.5,24.9 102.8,25.4 						"/>
					</g>
					<g>
						<polygon class="st5" points="97.5,25.4 96.1,24.9 96.8,23.2 98.1,23.7 						"/>
					</g>
					<g>
						<polygon class="st5" points="88.3,32.4 86.7,31.8 89.4,24.7 91.1,25.3 						"/>
					</g>
					<g>
						<path class="st1" d="M102,18.7c-0.9-0.4-2,0.1-2.3,1l-2.5,6.4l3.3,1.3L103,21C103.4,20,102.9,19,102,18.7z"/>
					</g>
					<g>
						<path class="st3" d="M102.2,20.6c-0.2,0.5-0.7,0.7-1.2,0.5c-0.5-0.2-0.7-0.7-0.5-1.2c0.2-0.5,0.7-0.7,1.2-0.5
							C102.1,19.7,102.4,20.2,102.2,20.6z"/>
					</g>
					<path class="st18" d="M90.1,27.7l-2.2,5.8l14.6,5.5l2.7-6.9C103.4,30.7,96.4,25.6,90.1,27.7z"/>
				</g>
				<g>
					<path class="st1" d="M93.5,40.7L93.5,40.7c-1.2-0.5-1.9-1.8-1.4-3.1l0.9-2.2l4.5,1.7l-0.9,2.2C96.1,40.5,94.7,41.1,93.5,40.7z"
						/>
				</g>
				<g>
					<path class="st4" d="M95.1,39.3c-0.2,0.5-0.8,0.8-1.3,0.6c-0.5-0.2-0.8-0.8-0.6-1.3c0.2-0.5,0.8-0.8,1.3-0.6
						C95,38.2,95.3,38.8,95.1,39.3z"/>
				</g>
				<g>
					<path class="st1" d="M107,65.6l-10.8,2.9c-0.8,0.2-1.7-0.3-1.9-1.1l-5.1-18.7c-0.2-0.8,0.3-1.6,1.1-1.9l10.8-2.9
						c0.8-0.2,1.7,0.3,1.9,1.1l5.1,18.7C108.3,64.6,107.8,65.4,107,65.6z"/>
				</g>
				<g>
					<path class="st19" d="M104.8,78.9L104.8,78.9c-0.2,0.1-0.5-0.1-0.6-0.3l-3.1-11.4l0.9-0.2l3.1,11.4
						C105.2,78.6,105.1,78.8,104.8,78.9z"/>
				</g>
				<g>
					<rect x="17.8" y="24.8" class="st5" width="4.6" height="2.2"/>
				</g>
				<g>
					<rect x="17.8" y="26.3" class="st4" width="4.6" height="0.7"/>
				</g>
				<g>
					<polygon class="st5" points="91.5,56.7 89.4,57.3 88.2,52.9 90.3,52.4 					"/>
				</g>
				<g>
					<polygon class="st4" points="89.7,52.5 90.3,52.4 91.5,56.7 90.9,56.9 					"/>
				</g>
				<path class="st18" d="M91.7,57.6l2.7,9.8c0.2,0.8,1.1,1.3,1.9,1.1l10.8-2.9c0.8-0.2,1.3-1,1.1-1.9l-1.5-5.5
					C103.4,55.2,98.2,52.4,91.7,57.6z"/>
				<g>
					<path class="st20" d="M107.1,63.9c0.1,0.3-0.1,0.7-0.4,0.8c-0.3,0.1-0.7-0.1-0.8-0.4c-0.1-0.3,0.1-0.7,0.4-0.8
						C106.6,63.4,107,63.6,107.1,63.9z"/>
				</g>
				<g>
					<path class="st20" d="M105.4,64.3c0.1,0.3-0.1,0.7-0.4,0.8c-0.3,0.1-0.7-0.1-0.8-0.4c-0.1-0.3,0.1-0.7,0.4-0.8
						C105,63.8,105.3,64,105.4,64.3z"/>
				</g>
				<g>
					<path class="st20" d="M103.7,64.8c0.1,0.3-0.1,0.7-0.4,0.8c-0.3,0.1-0.7-0.1-0.8-0.4c-0.1-0.3,0.1-0.7,0.4-0.8
						C103.3,64.3,103.6,64.5,103.7,64.8z"/>
				</g>
				<g>
					<path class="st20" d="M106.6,62.3c0.1,0.3-0.1,0.7-0.4,0.8c-0.3,0.1-0.7-0.1-0.8-0.4c-0.1-0.3,0.1-0.7,0.4-0.8
						C106.2,61.7,106.5,61.9,106.6,62.3z"/>
				</g>
				<g>
					<path class="st20" d="M105,62.7c0.1,0.3-0.1,0.7-0.4,0.8c-0.3,0.1-0.7-0.1-0.8-0.4c-0.1-0.3,0.1-0.7,0.4-0.8
						C104.5,62.2,104.9,62.4,105,62.7z"/>
				</g>
				<g>
					<path class="st20" d="M103.3,63.1c0.1,0.3-0.1,0.7-0.4,0.8c-0.3,0.1-0.7-0.1-0.8-0.4c-0.1-0.3,0.1-0.7,0.4-0.8
						C102.8,62.6,103.2,62.8,103.3,63.1z"/>
				</g>
				<g>
					<path class="st20" d="M106.2,60.6c0.1,0.3-0.1,0.7-0.4,0.8c-0.3,0.1-0.7-0.1-0.8-0.4c-0.1-0.3,0.1-0.7,0.4-0.8
						C105.8,60.1,106.1,60.3,106.2,60.6z"/>
				</g>
				<g>
					<path class="st20" d="M104.5,61.1c0.1,0.3-0.1,0.7-0.4,0.8c-0.3,0.1-0.7-0.1-0.8-0.4c-0.1-0.3,0.1-0.7,0.4-0.8
						C104.1,60.5,104.4,60.7,104.5,61.1z"/>
				</g>
				<g>
					<path class="st20" d="M102.8,61.5c0.1,0.3-0.1,0.7-0.4,0.8c-0.3,0.1-0.7-0.1-0.8-0.4c-0.1-0.3,0.1-0.7,0.4-0.8
						S102.7,61.2,102.8,61.5z"/>
				</g>
				<g>
					<path class="st20" d="M105.7,59c0.1,0.3-0.1,0.7-0.4,0.8c-0.3,0.1-0.7-0.1-0.8-0.4c-0.1-0.3,0.1-0.7,0.4-0.8
						C105.3,58.4,105.6,58.6,105.7,59z"/>
				</g>
				<g>
					<path class="st20" d="M104.1,59.4c0.1,0.3-0.1,0.7-0.4,0.8c-0.3,0.1-0.7-0.1-0.8-0.4c-0.1-0.3,0.1-0.7,0.4-0.8
						C103.6,58.9,104,59.1,104.1,59.4z"/>
				</g>
				<g>
					<path class="st20" d="M102.4,59.9c0.1,0.3-0.1,0.7-0.4,0.8c-0.3,0.1-0.7-0.1-0.8-0.4c-0.1-0.3,0.1-0.7,0.4-0.8
						C102,59.3,102.3,59.5,102.4,59.9z"/>
				</g>
				<g>
					<path class="st20" d="M105.3,57.3c0.1,0.3-0.1,0.7-0.4,0.8c-0.3,0.1-0.7-0.1-0.8-0.4c-0.1-0.3,0.1-0.7,0.4-0.8
						C104.9,56.8,105.2,57,105.3,57.3z"/>
				</g>
				<g>
					<path class="st20" d="M103.6,57.8c0.1,0.3-0.1,0.7-0.4,0.8c-0.3,0.1-0.7-0.1-0.8-0.4c-0.1-0.3,0.1-0.7,0.4-0.8
						S103.5,57.4,103.6,57.8z"/>
				</g>
				<g>
					<path class="st20" d="M101.9,58.2c0.1,0.3-0.1,0.7-0.4,0.8c-0.3,0.1-0.7-0.1-0.8-0.4c-0.1-0.3,0.1-0.7,0.4-0.8
						C101.5,57.7,101.9,57.9,101.9,58.2z"/>
				</g>
				<g>
					<path class="st20" d="M99.8,65.8c0.1,0.3-0.1,0.7-0.4,0.8c-0.3,0.1-0.7-0.1-0.8-0.4c-0.1-0.3,0.1-0.7,0.4-0.8
						C99.4,65.3,99.8,65.5,99.8,65.8z"/>
				</g>
				<g>
					<path class="st20" d="M98.2,66.3c0.1,0.3-0.1,0.7-0.4,0.8c-0.3,0.1-0.7-0.1-0.8-0.4c-0.1-0.3,0.1-0.7,0.4-0.8
						C97.7,65.7,98.1,65.9,98.2,66.3z"/>
				</g>
				<g>
					<path class="st20" d="M96.5,66.7c0.1,0.3-0.1,0.7-0.4,0.8c-0.3,0.1-0.7-0.1-0.8-0.4c-0.1-0.3,0.1-0.7,0.4-0.8
						C96.1,66.2,96.4,66.4,96.5,66.7z"/>
				</g>
				<g>
					<path class="st20" d="M99.4,64.2c0.1,0.3-0.1,0.7-0.4,0.8c-0.3,0.1-0.7-0.1-0.8-0.4c-0.1-0.3,0.1-0.7,0.4-0.8
						C99,63.7,99.3,63.8,99.4,64.2z"/>
				</g>
				<g>
					<path class="st20" d="M97.7,64.6c0.1,0.3-0.1,0.7-0.4,0.8c-0.3,0.1-0.7-0.1-0.8-0.4c-0.1-0.3,0.1-0.7,0.4-0.8
						C97.3,64.1,97.6,64.3,97.7,64.6z"/>
				</g>
				<g>
					<path class="st20" d="M96.1,65.1c0.1,0.3-0.1,0.7-0.4,0.8c-0.3,0.1-0.7-0.1-0.8-0.4c-0.1-0.3,0.1-0.7,0.4-0.8
						C95.6,64.5,96,64.7,96.1,65.1z"/>
				</g>
				<g>
					<path class="st20" d="M99,62.5c0.1,0.3-0.1,0.7-0.4,0.8c-0.3,0.1-0.7-0.1-0.8-0.4c-0.1-0.3,0.1-0.7,0.4-0.8
						C98.5,62,98.9,62.2,99,62.5z"/>
				</g>
				<g>
					<path class="st20" d="M97.3,63c0.1,0.3-0.1,0.7-0.4,0.8c-0.3,0.1-0.7-0.1-0.8-0.4c-0.1-0.3,0.1-0.7,0.4-0.8
						C96.9,62.5,97.2,62.6,97.3,63z"/>
				</g>
				<g>
					<path class="st20" d="M95.6,63.4c0.1,0.3-0.1,0.7-0.4,0.8c-0.3,0.1-0.7-0.1-0.8-0.4c-0.1-0.3,0.1-0.7,0.4-0.8
						C95.2,62.9,95.5,63.1,95.6,63.4z"/>
				</g>
				<g>
					<path class="st20" d="M98.5,60.9c0.1,0.3-0.1,0.7-0.4,0.8c-0.3,0.1-0.7-0.1-0.8-0.4c-0.1-0.3,0.1-0.7,0.4-0.8
						C98.1,60.4,98.4,60.6,98.5,60.9z"/>
				</g>
				<g>
					<path class="st20" d="M96.8,61.3c0.1,0.3-0.1,0.7-0.4,0.8c-0.3,0.1-0.7-0.1-0.8-0.4c-0.1-0.3,0.1-0.7,0.4-0.8
						C96.4,60.8,96.8,61,96.8,61.3z"/>
				</g>
				<g>
					<path class="st20" d="M95.2,61.8c0.1,0.3-0.1,0.7-0.4,0.8c-0.3,0.1-0.7-0.1-0.8-0.4c-0.1-0.3,0.1-0.7,0.4-0.8
						C94.7,61.3,95.1,61.4,95.2,61.8z"/>
				</g>
				<g>
					<path class="st20" d="M98.1,59.2c0.1,0.3-0.1,0.7-0.4,0.8c-0.3,0.1-0.7-0.1-0.8-0.4c-0.1-0.3,0.1-0.7,0.4-0.8
						C97.6,58.7,98,58.9,98.1,59.2z"/>
				</g>
				<g>
					<path class="st20" d="M96.4,59.7c0.1,0.3-0.1,0.7-0.4,0.8c-0.3,0.1-0.7-0.1-0.8-0.4c-0.1-0.3,0.1-0.7,0.4-0.8
						C96,59.2,96.3,59.4,96.4,59.7z"/>
				</g>
				<g>
					<path class="st20" d="M94.7,60.1c0.1,0.3-0.1,0.7-0.4,0.8c-0.3,0.1-0.7-0.1-0.8-0.4c-0.1-0.3,0.1-0.7,0.4-0.8
						C94.3,59.6,94.6,59.8,94.7,60.1z"/>
				</g>
				<g>
					<polygon class="st14" points="28.2,29.3 30.8,29.3 27.8,33.6 31.2,32.8 26.6,39.7 28.5,34.5 25.8,35.7 					"/>
				</g>
				<path class="st1" d="M57.4,95.8c0.6,6.4,1.6,28.7,5.3,30.5c0.4,0.2,0.9,0.4,1.3,0.6h1.1V82.4h-8C55.1,84.9,56.9,90.9,57.4,95.8z
					"/>
				<path class="st18" d="M65.1,30.2c-3.7,1.2-9.4,3.3-9.9,5.8c-0.3,1.6,0.5,3.1,1.5,4.2h8.4V30.2z"/>
				<path class="st18" d="M64.9,128.8h0.2c0.5,2.1-9.2,3-7.2,3.7c4.1,1.5,9.4-2.3,11,4.4c1.6,6.5-1.9,12.8,2.2,13.3V135
					C71.1,131.6,68.3,128.8,64.9,128.8z"/>
				<g>
					<g>
						<rect x="50" y="117.8" class="st14" width="0.7" height="3.6"/>
					</g>
					<g>
						<rect x="51.4" y="117.8" class="st14" width="0.7" height="3.6"/>
					</g>
					<g>
						<rect x="52.8" y="117.8" class="st14" width="0.7" height="3.6"/>
					</g>
					<g>
						<rect x="54.2" y="117.8" class="st14" width="0.7" height="3.6"/>
					</g>
					<g>
						<rect x="55.6" y="117.8" class="st14" width="0.7" height="3.6"/>
					</g>
					<g>
						<rect x="57.1" y="117.8" class="st14" width="0.7" height="3.6"/>
					</g>
					<g>
						<rect x="58.5" y="117.8" class="st14" width="0.7" height="3.6"/>
					</g>
					<g>
						<rect x="59.9" y="117.8" class="st14" width="0.7" height="3.6"/>
					</g>
					<g>
						<rect x="61.3" y="117.8" class="st14" width="0.7" height="3.6"/>
					</g>
					<g>
						<rect x="62.7" y="117.8" class="st14" width="0.7" height="3.6"/>
					</g>
					<g>
						<rect x="64.1" y="117.8" class="st14" width="0.7" height="3.6"/>
					</g>
				</g>
			</g>
			<g>
				<path class="st21" d="M194.9,136.6H73.1c-1.8,0-3.3,1.5-3.3,3.3v6.8c0,1.8,1.5,3.3,3.3,3.3h121.8c1.8,0,3.3-1.5,3.3-3.3v-6.8
					C198.2,138.1,196.7,136.6,194.9,136.6z"/>
				<path class="st21" d="M194.9,136.6H73.1c-1.8,0-3.3,1.5-3.3,3.3v6.8c0,1.8,1.5,3.3,3.3,3.3h121.8c1.8,0,3.3-1.5,3.3-3.3v-6.8
					C198.2,138.1,196.7,136.6,194.9,136.6z"/>
				<path class="st21" d="M194.9,136.6H73.1c-1.8,0-3.3,1.5-3.3,3.3v6.8c0,1.8,1.5,3.3,3.3,3.3h121.8c1.8,0,3.3-1.5,3.3-3.3v-6.8
					C198.2,138.1,196.7,136.6,194.9,136.6z"/>
				<path class="st22" d="M194.9,136.6H73.1c-1.8,0-3.3,1.5-3.3,3.3v6.8c0,1.8,1.5,3.3,3.3,3.3h121.8c1.8,0,3.3-1.5,3.3-3.3v-6.8
					C198.2,138.1,196.7,136.6,194.9,136.6z"/>
				<path class="st3" d="M70,139.7c-0.1,0.4-0.2,0.7-0.2,1.1v0h128.4v0c0-0.4-0.1-0.8-0.2-1.1H70z"/>
				<path class="st3" d="M69.8,145.7c0,0.4,0.1,0.8,0.2,1.1h128.1c0.1-0.4,0.2-0.7,0.2-1.1v0L69.8,145.7L69.8,145.7z"/>
				<polygon class="st23" points="147,123.6 134,123.6 121,123.6 73.5,136.6 134,136.5 194.2,136.6 				"/>
				<polygon class="st24" points="147,123.6 134,123.6 121,123.6 73.5,136.6 134,136.5 194.2,136.6 				"/>
				<polygon class="st3" points="74.4,136.3 193.2,136.3 190.7,135.6 77,135.6 				"/>
				<polygon class="st3" points="85.5,133.3 182.3,133.3 179.7,132.6 88.1,132.6 				"/>
				<polygon class="st3" points="96,130.4 171.9,130.4 169.3,129.7 98.6,129.7 				"/>
				<polygon class="st3" points="105.2,127.9 162.8,127.9 160.2,127.2 107.8,127.2 				"/>
				<polygon class="st3" points="113.4,125.6 154.5,125.6 152,124.9 116,124.9 				"/>
			</g>
			<path class="st25" d="M109.3,78c0,0-0.1-0.2-0.2-0.4c-0.2-0.2,2.9-4.1,2.9-4.1s-4.1,2.8-4.5,2.7c-0.3-0.2,0.1-2.7,0.1-2.7
				s-1.7,2.1-2.1,2c-0.4,0-2-5-2-5s0.3,5.3,0.2,5.3c-0.3,0.1-3.5-0.9-3.5-0.9s2.3,1.6,2.2,1.8c-0.2,0.2-4.8,0.3-4.8,0.3
				s4.1,0.9,4,1.1c-0.1,0.3-0.2,0.6-0.2,0.8c0,0.4-4.6,2.9-4.6,2.9s4.9-1,5.2-0.9C103.1,81.5,109.3,78,109.3,78z"/>
			<path class="st25" d="M109.8,72L109.8,72c-0.3-0.2-0.3-0.6,0-0.9l2.5-2.8c0.2-0.3,0.6-0.3,0.9,0l0,0c0.3,0.2,0.3,0.6,0,0.9
				l-2.5,2.8C110.4,72.2,110,72.2,109.8,72z"/>
			<path class="st25" d="M116.2,71.3L116.2,71.3c-0.2-0.3-0.1-0.7,0.2-0.8l3.8-2.2c0.3-0.2,0.7-0.1,0.8,0.2l0,0
				c0.2,0.3,0.1,0.7-0.2,0.8l-3.8,2.2C116.8,71.7,116.4,71.6,116.2,71.3z"/>
			<path class="st25" d="M116.5,74.5L116.5,74.5c0.1-0.3,0.4-0.5,0.7-0.5l4.3,1c0.3,0.1,0.5,0.4,0.5,0.7l0,0
				c-0.1,0.3-0.4,0.5-0.7,0.5l-4.3-1C116.6,75.1,116.4,74.8,116.5,74.5z"/>
			<path class="st25" d="M97.5,75.4L97.5,75.4c0-0.3-0.3-0.6-0.6-0.6l-3.8-0.2c-0.3,0-0.6,0.2-0.6,0.6l0,0c0,0.3,0.3,0.6,0.6,0.6
				l3.8,0.2C97.2,76,97.5,75.8,97.5,75.4z"/>
			<path class="st25" d="M92.4,79.5L92.4,79.5c-0.1-0.3-0.4-0.5-0.8-0.4l-4.2,1.1c-0.3,0.1-0.5,0.4-0.4,0.8l0,0
				c0.1,0.3,0.4,0.5,0.8,0.4l4.2-1.1C92.3,80.2,92.5,79.8,92.4,79.5z"/>
			<path class="st25" d="M94.5,81.9L94.5,81.9c-0.3-0.2-0.7-0.1-0.9,0.2l-2.3,3.7c-0.2,0.3-0.1,0.7,0.2,0.8l0,0
				c0.3,0.2,0.7,0.1,0.9-0.2l2.3-3.7C94.9,82.5,94.8,82.1,94.5,81.9z"/>
		</g>
		<g>
			<path class="st26" d="M165.5,232.5c0,1.9,1.3,4.1,2.9,4.9c1.6,0.8,2.9,0,2.9-1.9c0-1.9-1.3-4.1-2.9-4.9
				C166.8,229.8,165.5,230.6,165.5,232.5z"/>
			<polygon class="st26" points="164.4,231.6 166.6,230.4 170.3,237.6 168,238.8 			"/>
			<path class="st27" d="M163.1,233.7c0,1.9,1.3,4.1,2.9,4.9c1.6,0.8,2.9,0,2.9-1.9c0-1.9-1.3-4.1-2.9-4.9
				C164.4,231,163.1,231.8,163.1,233.7z"/>
			<path class="st28" d="M164.4,234.5c0,1,0.7,2.1,1.5,2.5c0.8,0.4,1.5,0,1.5-1s-0.7-2.1-1.5-2.5C165,233.1,164.4,233.5,164.4,234.5
				z"/>
			<path class="st29" d="M169.3,230.8v4.2c0,0-1.1,0.5-2.5,0.9c-1.3,0.4-1.9-0.7-1.5-2.1c0.5-1.8,1.6-4.2,1.6-4.2L169.3,230.8z"/>
			<polygon class="st30" points="169.3,230.8 171.7,229.6 171.7,233.8 169.3,235 			"/>
			<polygon class="st31" points="171.1,229.1 169.3,230.1 167.4,229.1 167,229.6 169.3,230.8 171.7,229.6 			"/>
			<path class="st26" d="M215.3,207.5c0,1.9,1.3,4.1,2.9,4.9c1.6,0.8,2.9,0,2.9-1.9c0-1.9-1.3-4.1-2.9-4.9
				C216.6,204.7,215.3,205.6,215.3,207.5z"/>
			<polygon class="st26" points="214.2,206.5 216.5,205.3 220.2,212.5 217.8,213.7 			"/>
			<path class="st27" d="M212.9,208.7c0,1.9,1.3,4.1,2.9,4.9c1.6,0.8,2.9,0,2.9-1.9c0-1.9-1.3-4.1-2.9-4.9
				C214.2,205.9,212.9,206.8,212.9,208.7z"/>
			<path class="st28" d="M214.2,209.4c0,1,0.7,2.1,1.5,2.5c0.8,0.4,1.5,0,1.5-1c0-1-0.7-2.1-1.5-2.5
				C214.8,208,214.2,208.4,214.2,209.4z"/>
			<path class="st29" d="M219.1,205.7v4.2c0,0-1.1,0.5-2.5,0.9c-1.3,0.4-1.9-0.7-1.5-2.1c0.5-1.8,1.6-4.2,1.6-4.2L219.1,205.7z"/>
			<polygon class="st30" points="219.1,205.7 221.5,204.5 221.5,208.8 219.1,210 			"/>
			<polygon class="st31" points="221,204.1 219.1,205 217.2,204 216.8,204.5 219.1,205.7 221.5,204.5 			"/>
			<path class="st26" d="M142.9,221c0,1.9,1.3,4.1,2.9,4.9c1.6,0.8,2.9,0,2.9-1.9c0-1.9-1.3-4.1-2.9-4.9
				C144.3,218.2,142.9,219.1,142.9,221z"/>
			<polygon class="st26" points="141.8,220 144.1,218.8 147.8,226 145.4,227.2 			"/>
			<path class="st27" d="M140.5,222.2c0,1.9,1.3,4.1,2.9,4.9c1.6,0.8,2.9,0,2.9-1.9c0-1.9-1.3-4.1-2.9-4.9
				C141.9,219.4,140.5,220.3,140.5,222.2z"/>
			<path class="st28" d="M141.8,222.9c0,1,0.7,2.1,1.5,2.5c0.8,0.4,1.5,0,1.5-1c0-1-0.7-2.1-1.5-2.5
				C142.5,221.5,141.8,222,141.8,222.9z"/>
			<path class="st29" d="M146.7,219.2v4.2c0,0-1.1,0.5-2.5,0.9c-1.3,0.4-1.9-0.7-1.5-2.1c0.5-1.8,1.6-4.2,1.6-4.2L146.7,219.2z"/>
			<polygon class="st30" points="146.7,219.2 149.1,218 149.1,222.3 146.7,223.5 			"/>
			<polygon class="st31" points="148.6,217.6 146.7,218.5 144.9,217.6 144.4,218 146.7,219.2 149.1,218 			"/>
			<polygon class="st32" points="145,174.8 169.9,187.4 169.9,230.3 145,217.8 			"/>
			<polygon class="st33" points="220.6,161.8 169.9,187.4 169.9,230.3 220.6,204.8 			"/>
			<polygon class="st34" points="185.9,172.8 207.6,161.8 207.6,163.5 185.9,174.5 			"/>
			<polygon class="st35" points="171.1,188.7 219.5,164.4 219.5,169.4 171.1,193.7 			"/>
			<polygon class="st32" points="169.9,195.6 220.6,170 220.6,171.4 169.9,196.9 			"/>
			<polygon class="st36" points="185.9,182.4 207.6,171.4 207.6,173.1 185.9,184.1 			"/>
			<polygon class="st35" points="171.1,197.7 219.5,173.4 219.5,178.5 171.1,202.7 			"/>
			<polygon class="st32" points="169.9,204.7 220.6,179.1 220.6,180.4 169.9,205.9 			"/>
			<polygon class="st36" points="185.9,191.5 207.6,180.5 207.6,182.2 185.9,193.1 			"/>
			<polygon class="st35" points="171.1,220.5 219.5,196.2 219.5,202.7 171.1,227 			"/>
			<polygon class="st36" points="185.9,214.2 207.6,203.3 207.6,205 185.9,215.9 			"/>
			<polygon class="st35" points="171.1,207 219.5,182.7 219.5,191.2 171.1,215.5 			"/>
			<polygon class="st36" points="185.9,200.7 207.6,189.8 207.6,191.5 185.9,202.4 			"/>
			<polygon class="st32" points="169.9,218.1 220.6,192.5 220.6,193.9 169.9,219.4 			"/>
			<polygon class="st33" points="220.6,161.8 169.9,187.4 145,174.8 195.8,149.3 			"/>
			<polygon class="st37" points="169.9,230.3 221.5,204.3 221.5,205.7 169.9,231.7 			"/>
			<polygon class="st30" points="169.9,229.5 220.6,203.9 221.5,204.3 169.9,230.3 			"/>
			<polygon class="st29" points="169.9,230.3 144.1,217.3 144.1,218.7 169.9,231.7 			"/>
			<polygon class="st38" points="146.3,177.5 168,188.5 168,190.7 146.3,179.7 			"/>
			<polygon class="st30" points="169.9,229.5 145,216.9 144.1,217.3 169.9,230.3 			"/>
			<g>
				<path class="st39" d="M166.3,188.8c0,0.3,0.2,0.6,0.4,0.7c0.2,0.1,0.4,0,0.4-0.3c0-0.3-0.2-0.6-0.4-0.7
					C166.5,188.4,166.3,188.5,166.3,188.8z"/>
				<path class="st39" d="M147.6,179.2c0,0.3,0.2,0.6,0.4,0.7c0.2,0.1,0.4,0,0.4-0.3c0-0.3-0.2-0.6-0.4-0.7
					C147.7,178.8,147.6,178.9,147.6,179.2z"/>
			</g>
			<g>
				<g>
					<path class="st40" d="M187.8,154.7l-21.2,10.7c-0.5,0.2-0.9,0-0.9-0.6v-14.8c0-0.5,0.4-1.2,0.9-1.4l21.2-10.7
						c0.5-0.2,0.9,0,0.9,0.6v14.8C188.7,153.8,188.3,154.5,187.8,154.7z"/>
					<polygon class="st40" points="166.1,165.5 167.2,166 167.1,164.9 					"/>
					<polygon class="st40" points="189.5,138.4 188.4,137.9 187.9,139.8 					"/>
					<path class="st34" d="M189,155.3L167.8,166c-0.5,0.2-0.9,0-0.9-0.6v-14.8c0-0.5,0.4-1.2,0.9-1.4l21.2-10.7
						c0.5-0.2,0.9,0,0.9,0.6v14.8C189.8,154.4,189.4,155.1,189,155.3z"/>
					<polygon class="st40" points="189.1,153.6 167.6,164.4 167.6,150.1 189.1,139.3 					"/>
					<path class="st41" d="M179.7,159.4l-2.7,1.4c-0.1,0.1-0.3,0-0.3-0.2l0,0c0-0.2,0.1-0.4,0.3-0.4l2.7-1.4c0.1-0.1,0.3,0,0.3,0.2
						l0,0C180,159.2,179.9,159.4,179.7,159.4z"/>
					<polygon class="st41" points="187.9,154.2 168.7,163.9 168.7,150.8 187.9,141.1 					"/>
				</g>
				<g>
					<path class="st40" d="M206.5,166.2l-20.5,10.3c-0.5,0.3-1.5,0.2-2.1-0.1l-15.7-7.9c-0.6-0.3-0.7-0.8-0.2-1.1l20.5-10.3
						c0.5-0.3,1.5-0.2,2.1,0.1l15.7,7.9C207,165.4,207.1,165.9,206.5,166.2z"/>
					<rect x="167.7" y="166.7" class="st40" width="1.4" height="1.2"/>
					<rect x="205.5" y="164.5" class="st40" width="1.4" height="1.2"/>
					<path class="st34" d="M206.5,165l-20.5,10.3c-0.5,0.3-1.5,0.2-2.1-0.1l-15.7-7.9c-0.6-0.3-0.7-0.8-0.2-1.1l20.5-10.3
						c0.5-0.3,1.5-0.2,2.1,0.1l15.7,7.9C207,164.3,207.1,164.7,206.5,165z"/>
					<polygon class="st40" points="200.1,161.8 179.8,172.1 169.5,166.9 189.8,156.6 					"/>
					<polygon class="st40" points="198.9,167.9 191.8,171.5 187.9,169.6 195.1,166 					"/>
					<polygon class="st28" points="170.4,166.9 171.8,166.1 172.8,166.6 171.4,167.4 					"/>
					<polygon class="st28" points="171.9,167.6 173.3,166.9 174.3,167.4 172.9,168.1 					"/>
					<polygon class="st28" points="173.3,168.4 175.3,167.4 176.3,167.9 174.4,168.9 					"/>
					<polygon class="st28" points="191.7,159.1 192.6,158.6 195.1,159.9 194.2,160.4 					"/>
					<polygon class="st28" points="174.8,169.1 176.7,168.1 177.8,168.6 175.8,169.6 					"/>
					<polygon class="st28" points="176.3,169.8 178.8,168.6 179.9,169.1 177.3,170.4 					"/>
					<polygon class="st28" points="191.8,162 195.6,160.1 196.6,160.6 192.8,162.5 					"/>
					<polygon class="st28" points="177.8,170.6 179.2,169.9 180.2,170.4 178.8,171.1 					"/>
					<polygon class="st28" points="172.2,166 173.6,165.2 174.6,165.8 173.2,166.5 					"/>
					<polygon class="st28" points="173.6,166.7 175.1,166 176.1,166.5 174.7,167.2 					"/>
					<polygon class="st28" points="173.9,165.1 175.4,164.3 176.4,164.9 175,165.6 					"/>
					<polygon class="st28" points="175.4,165.8 176.8,165.1 177.9,165.6 176.5,166.3 					"/>
					<polygon class="st28" points="175.7,164.2 177.1,163.5 178.2,164 176.7,164.7 					"/>
					<polygon class="st28" points="177.2,164.9 178.6,164.2 179.6,164.7 178.2,165.4 					"/>
					<polygon class="st28" points="177.5,163.3 178.9,162.5 179.9,163.1 178.5,163.8 					"/>
					<polygon class="st28" points="179,164 180.4,163.3 181.4,163.8 180,164.5 					"/>
					<polygon class="st28" points="179.3,162.4 180.7,161.6 181.7,162.2 180.3,162.9 					"/>
					<polygon class="st28" points="180.8,163.1 182.2,162.4 183.2,162.9 181.8,163.6 					"/>
					<polygon class="st28" points="181.1,161.5 182.5,160.8 183.5,161.3 182.1,162 					"/>
					<polygon class="st28" points="182.5,162.2 184,161.5 185,162 183.6,162.7 					"/>
					<polygon class="st28" points="175.7,167.2 177.1,166.5 178.1,167 176.7,167.7 					"/>
					<polygon class="st28" points="177.1,167.9 178.6,167.2 179.6,167.7 178.2,168.4 					"/>
					<polygon class="st28" points="177.4,166.3 178.9,165.6 179.9,166.1 178.5,166.8 					"/>
					<polygon class="st28" points="178.9,167 180.4,166.3 181.4,166.8 180,167.5 					"/>
					<polygon class="st28" points="179.2,165.4 180.6,164.7 181.7,165.2 180.2,165.9 					"/>
					<polygon class="st28" points="180.7,166.1 182.1,165.4 183.1,165.9 181.7,166.6 					"/>
					<polygon class="st28" points="181,164.5 182.4,163.8 183.4,164.3 182,165 					"/>
					<polygon class="st28" points="182.5,165.2 183.9,164.5 184.9,165 183.5,165.7 					"/>
					<polygon class="st28" points="182.8,163.6 184.2,162.9 185.2,163.4 183.8,164.1 					"/>
					<polygon class="st28" points="184.3,164.3 185.7,163.6 186.7,164.1 185.3,164.9 					"/>
					<polygon class="st28" points="184.6,162.7 186,162 187,162.5 185.6,163.2 					"/>
					<polygon class="st28" points="186,163.4 187.5,162.7 188.5,163.2 187.1,163.9 					"/>
					<polygon class="st28" points="186.3,161.8 187.8,161.1 188.8,161.6 187.4,162.3 					"/>
					<polygon class="st28" points="187.8,162.5 189.2,161.8 190.3,162.3 188.8,163.1 					"/>
					<polygon class="st28" points="179.3,168.3 180.7,167.6 181.8,168.1 180.3,168.8 					"/>
					<polygon class="st28" points="181.1,167.4 182.5,166.7 183.6,167.2 182.1,167.9 					"/>
					<polygon class="st28" points="182.9,166.5 184.3,165.8 185.3,166.3 183.9,167 					"/>
					<polygon class="st28" points="184.7,165.6 186.1,164.9 187.1,165.4 185.7,166.1 					"/>
					<polygon class="st28" points="186.4,164.7 187.9,164 188.9,164.5 187.5,165.2 					"/>
					<polygon class="st28" points="188.2,163.8 189.6,163.1 190.7,163.6 189.3,164.3 					"/>
					<polygon class="st28" points="190,162.9 191.4,162.2 192.4,162.7 191,163.4 					"/>
					<polygon class="st28" points="188.1,160.9 189.5,160.2 190.6,160.7 189.2,161.4 					"/>
					<polygon class="st28" points="189.6,161.6 191,160.9 192.1,161.4 190.6,162.1 					"/>
					<polygon class="st28" points="189.9,160 191.3,159.3 192.3,159.8 190.9,160.5 					"/>
					<polygon class="st28" points="191.4,160.7 192.8,160 193.8,160.5 192.4,161.2 					"/>
					<polygon class="st28" points="182.8,160.6 184.3,159.9 185.3,160.4 183.9,161.1 					"/>
					<polygon class="st28" points="184.3,161.3 185.7,160.6 186.8,161.1 185.3,161.8 					"/>
					<polygon class="st28" points="184.6,159.7 186.1,158.9 187.1,159.5 185.7,160.2 					"/>
					<polygon class="st28" points="186.1,160.4 187.5,159.7 188.6,160.2 187.2,160.9 					"/>
					<polygon class="st28" points="186.4,158.8 187.8,158 188.9,158.6 187.4,159.3 					"/>
					<polygon class="st28" points="187.9,159.5 189.3,158.8 190.3,159.3 188.9,160 					"/>
					<polygon class="st28" points="188.2,157.9 189.6,157.1 190.6,157.7 189.2,158.4 					"/>
					<polygon class="st28" points="189.7,158.6 191.1,157.9 192.1,158.4 190.7,159.1 					"/>
					<polygon class="st28" points="179.6,169.7 181,169 182,169.5 180.6,170.2 					"/>
					<polygon class="st28" points="181.4,168.8 182.8,168.1 183.8,168.6 182.4,169.3 					"/>
					<polygon class="st28" points="190.7,164.1 192.1,163.4 193.1,163.9 191.7,164.6 					"/>
					<polygon class="st28" points="192.4,163.2 193.9,162.5 194.9,163 193.5,163.7 					"/>
					<polygon class="st28" points="194.2,162.3 197,161 198,161.5 195.2,162.8 					"/>
					<polygon class="st28" points="183.1,167.9 190.3,164.3 191.3,164.8 184.2,168.4 					"/>
				</g>
				<polygon class="st28" points="171.1,169.7 169.1,168.7 169.1,168.1 171.1,169.1 				"/>
				<polygon class="st28" points="173.5,170.9 171.5,169.9 171.5,169.3 173.5,170.3 				"/>
				<g>
					<polygon class="st42" points="187,145.1 170.3,153.6 170.3,154.2 187,145.7 					"/>
				</g>
				<g>
					<polygon class="st42" points="187,148.2 170.3,156.7 170.3,157.2 187,148.8 					"/>
				</g>
				<g>
					<polygon class="st42" points="187,151.4 170.3,159.8 170.3,160.4 187,152 					"/>
				</g>
				<polygon class="st34" points="170.9,161.6 170.3,161.9 170.3,151.7 170.9,151.4 				"/>
			</g>
		</g>
		<path class="st34" d="M195,217.5c1.2-0.6,7.1,2.4,7.1,2.4l8.2,2.4l-0.6,5.4c0,0-2.9,2.7-6.9,0.3c-2.4-1.4-6.6-3.6-7.9-6
			C193.4,219.6,193.8,218.2,195,217.5z"/>
		<path class="st34" d="M185.8,222.4c1.2-0.6,7.1,2.4,7.1,2.4l8.2,2.4l-0.6,5.4c0,0-2.9,2.7-6.9,0.3c-2.4-1.4-6.6-3.6-7.9-6
			C184.2,224.4,184.6,223,185.8,222.4z"/>
		<path class="st43" d="M206,197.8c1.5-4.4,2.8-6.2,6-7.3c1.9-0.7,6.4-0.1,11,0.7c0.6,3.6,0,7.7-2.2,10.8c-1.6-0.7-3.1-1.5-4.6-2.2
			c-0.6,1.4-1.2,3-1.6,4.8c-0.6,2.8-1.5,7.1-1.6,10c-0.2,2.9-0.5,7.1-0.5,7.1s-3.4,2.5-7.7,1c-4.2-1.4-3.3-4.7-3.3-4.7
			S204.9,201,206,197.8z"/>
		<path class="st44" d="M242.5,168.9c0,0,3.5,5.5,3.1,9.6c-0.4,4.1-8.3,7.7-8.3,7.7l-4.7-13.2L242.5,168.9z"/>
		<g>
			<path class="st34" d="M225.7,209.6c1.5,0,2.7,1.1,2.7,2.4v21.9c0,1.3-1.2,2.4-2.7,2.4c-1.5,0-2.7-1.1-2.7-2.4v-21.9
				C223,210.6,224.2,209.6,225.7,209.6z"/>
			<g>
				<path class="st41" d="M225.7,205c9.5,0,17.2,3.6,17.2,8c0,4.4-7.7,8-17.2,8c-9.5,0-17.2-3.6-17.2-8
					C208.6,208.6,216.2,205,225.7,205z"/>
				<rect x="208.6" y="211.5" class="st41" width="34.3" height="1.7"/>
				<path class="st31" d="M225.7,203.5c9.5,0,17.2,3.6,17.2,8c0,4.4-7.7,8-17.2,8c-9.5,0-17.2-3.6-17.2-8
					C208.6,207.1,216.2,203.5,225.7,203.5z"/>
				<path class="st45" d="M225.7,203c9,0,16.3,3.4,16.3,7.6c0,4.2-7.3,7.6-16.3,7.6c-9,0-16.3-3.4-16.3-7.6
					C209.4,206.4,216.7,203,225.7,203z"/>
				<polygon class="st45" points="241.2,205.7 242.1,210.6 209.4,210.6 210.2,205.7 				"/>
				<path class="st42" d="M225.7,199.6c8.7,0,15.7,3.3,15.7,7.3c0,4-7,7.3-15.7,7.3c-8.7,0-15.7-3.3-15.7-7.3
					C210,202.9,217.1,199.6,225.7,199.6z"/>
				<path class="st42" d="M225.7,199.6c8.7,0,15.7,3.3,15.7,7.3c0,4-7,7.3-15.7,7.3c-8.7,0-15.7-3.3-15.7-7.3
					C210,202.9,217.1,199.6,225.7,199.6z"/>
			</g>
			<g>
				<path class="st34" d="M244.1,246c1.3,0.6,2.3,2.3,2.3,3.8s-1,2.1-2.3,1.5c-1.3-0.6-2.3-2.3-2.3-3.8
					C241.8,246,242.8,245.3,244.1,246z"/>
				<polygon class="st34" points="245.6,251.4 243.7,252.3 240.9,246.7 242.7,245.8 				"/>
				<path class="st40" d="M242.2,246.9c1.3,0.6,2.3,2.3,2.3,3.8s-1,2.1-2.3,1.5c-1.3-0.6-2.3-2.3-2.3-3.8
					C240,246.9,241,246.3,242.2,246.9z"/>
			</g>
			<g>
				<path class="st34" d="M208.6,226.1l36.1,18.2c0.9,0.5,1.2,1.5,0.7,2.3s-1.7,1.1-2.6,0.6L206.7,229c-0.9-0.5-1.2-1.5-0.7-2.3
					S207.7,225.6,208.6,226.1z"/>
			</g>
			<g>
				<path class="st34" d="M206.7,244.3l36.1-18.2c0.9-0.5,2.1-0.2,2.6,0.6c0.5,0.8,0.2,1.8-0.7,2.3l-36.1,18.2
					c-0.9,0.5-2.1,0.2-2.6-0.6C205.5,245.8,205.8,244.8,206.7,244.3z"/>
			</g>
			<g>
				<path class="st34" d="M208.7,227.7c1.3,0.6,2.3,2.3,2.3,3.8c0,1.5-1,2.1-2.3,1.5c-1.3-0.6-2.3-2.3-2.3-3.8
					S207.4,227.1,208.7,227.7z"/>
				<polygon class="st34" points="210.2,233.2 208.4,234.1 205.6,228.5 207.3,227.6 				"/>
				<path class="st40" d="M206.9,228.7c1.3,0.6,2.3,2.3,2.3,3.8c0,1.5-1,2.1-2.3,1.5c-1.3-0.6-2.3-2.3-2.3-3.8
					C204.6,228.7,205.6,228,206.9,228.7z"/>
			</g>
			<g>
				<path class="st34" d="M210.9,246.4c1.3,0.6,2.3,2.3,2.3,3.8s-1,2.1-2.3,1.5c-1.3-0.6-2.3-2.3-2.3-3.8
					C208.6,246.5,209.7,245.8,210.9,246.4z"/>
				<polygon class="st34" points="212.4,251.9 210.6,252.8 207.8,247.2 209.5,246.3 				"/>
				<path class="st40" d="M209.1,247.4c1.3,0.6,2.3,2.3,2.3,3.8s-1,2.1-2.3,1.5c-1.3-0.6-2.3-2.3-2.3-3.8
					C206.8,247.4,207.8,246.7,209.1,247.4z"/>
			</g>
			<g>
				<path class="st34" d="M245.5,228.8c1.3,0.6,2.3,2.3,2.3,3.8s-1,2.1-2.3,1.5c-1.3-0.6-2.3-2.3-2.3-3.8
					C243.2,228.8,244.3,228.1,245.5,228.8z"/>
				<polygon class="st34" points="247,234.2 245.2,235.1 242.4,229.5 244.1,228.6 				"/>
				<path class="st40" d="M243.7,229.7c1.3,0.6,2.3,2.3,2.3,3.8c0,1.5-1,2.1-2.3,1.5c-1.3-0.6-2.3-2.3-2.3-3.8
					C241.4,229.7,242.4,229.1,243.7,229.7z"/>
			</g>
		</g>
		<path class="st46" d="M242.8,176.5l5.7,8c0,0-1.7,1.7-7.3-0.8c-6.5-2.8-10.2-3.5-10.2-3.5l1.1-4.3L242.8,176.5z"/>
		<path class="st47" d="M238.5,175.3c-1.3-2.1-2.5-4.1-2.5-4.1l-2.2-9.4c0,0,3.7-1.2,6.4,0.8c1.6,1.2,4.1,5.6,6,9.2
			C244,173.8,241.6,174.9,238.5,175.3z"/>
		<path class="st44" d="M226.4,145.8c2.3-1.4,6.8-1,8.7,2.6c1.1,2-0.4,7.3-0.7,11c-0.2,3,1,4.7,1,4.7s0,0-2.9,1.1s-6,0-6,0l0.1-4.6
			c0,0-3.2-0.4-3.7-0.9c-1.3-1.1-2-4.3-1.4-8.4C222.2,145.3,225.5,146.3,226.4,145.8z"/>
		<path class="st43" d="M196.7,202.6c1.5-4.4,2.8-6.2,6-7.3c4.7-1.6,24.7,4,24.7,4l14.4,0.7c0,0,0.7,5.1-3.4,7.7
			c-4.1,2.6-14,5.2-21.1,1.9c-3.4-1.5-7.1-3.3-10.4-4.9c-0.6,1.4-1.2,3-1.6,4.8c-0.6,2.8-1.5,7.1-1.6,10c-0.2,2.9-0.5,7.1-0.5,7.1
			s-3.4,2.5-7.7,1c-4.2-1.4-3.3-4.7-3.3-4.7S195.6,205.8,196.7,202.6z"/>
		<path class="st48" d="M218.4,178.8c-1.7-3.3,2.2-9.2,3.3-11.3c1.1-2.1,4.7-3.4,4.7-3.4l10.8-1.4c0,0,4.7,7.2,5.3,11.4
			c0.4,3,0.1,8.5-0.1,16.1c-0.1,5.1,3.3,8.3,0.8,10.6c-3.8,3.4-12.4,5.8-17.2,4.6c-2.9-0.7-4.9-3.3-6.8-5.4c-2.1-2.3-3.2-7.8-0.5-10
			C219,190,222,185.4,218.4,178.8z"/>
		<path class="st47" d="M226.4,162.8c0,0,4.3,1.1,6.8-0.6c3.6-2.4,4,1,4,1s-1.5,1.9-4.5,2.7c-3,0.8-5.7,0.7-8.7-0.6
			C224.1,163.5,226.4,162.8,226.4,162.8z"/>
		<path class="st44" d="M190.5,168.6c1.1,0,0.7-1.6,1.2-2.4c0.6-0.9,1-1,1.2-0.2c0.4,1.9,1.3,6.1,2.4,6.6c6,2.7,11.5,6.7,11.5,6.7
			s12.9-12,16.2-11.3c1.7,0.4,2.4,3.5,0.9,6.8c-1.9,4.2-14.8,12.4-14.8,12.4c-4.1,0.7-14.2-8.4-16.3-10.3c-1.8-1.7-5.3-3-7.1-4.2
			c-2.5-1.7-4.5-4-3.5-6.1c0.6-1.2,2.1-0.4,3.9,0.5C187.7,167.8,189.3,168.7,190.5,168.6z"/>
		<path class="st47" d="M217.1,182.4c-4.2-1.1-7.5-4.2-5.6-8.5c3.7-3.1,7.7-6.8,11.6-6.8c2,0,3.3,4.8,1.2,8.4
			C223.1,177.7,219.9,180.3,217.1,182.4z"/>
		<path class="st49" d="M223.5,153c-0.3-1-1.1-3.4-1.4-4.4c-0.2-1.1-0.3-2.8,1.4-4.4c1.7-1.6,7.8-2.1,10-1c2.2,1.1,6.9,3.1,5.2,9.7
			c-1.3,5.3-2.6,5.9-4.4,7.2c-1.6,1.1-4.4,1.4-4.4,1.4s-1.6-1-1.9-3c-0.1-0.6,0-2.6,0-2.6s1.6-2.8,0.4-3.8c-1.3-1.1-2.7,0.6-3,1.3
			c-1.1,2.4-0.6,6.9-0.6,6.9s-1.6,0.9-3.2,0.6c-0.9-0.2-0.1-3.2-0.1-3.2S223.3,157,223.5,153z"/>
		<g>
			<path class="st45" d="M243.2,175.9l4.9-2.5c5.2-2.6,9.4,0.2,9.4,6.2v17.2l-23.6,11.9v-17.2C233.8,185.5,238,178.5,243.2,175.9z"
				/>
			<polygon class="st45" points="254.7,177.2 254.3,173 258.3,175.1 			"/>
			<polygon class="st45" points="237.7,210.7 233.8,208.7 238.4,204.7 			"/>
			<path class="st42" d="M247.1,177.9l4.9-2.5c5.2-2.6,9.4,0.2,9.4,6.2v17.2l-23.6,11.9v-17.2C237.7,187.6,241.9,180.5,247.1,177.9z
				"/>
		</g>
		<path class="st34" d="M249.4,204.4c-0.2-5.7,0-10.3,0-12.2c0-2.4,3.1-2.6,3.1-0.1c0,3.6,0.4,11.5,0.3,13.3
			c-0.1,3.9,2.6,16.2-15.3,16.7c-1.8,0-9.1-0.4-10.4-1.1c2.9-0.1,8-1.1,12-3C250.8,217,249.6,209.2,249.4,204.4z"/>
	</g>
</g>
<g>
	<g>
		<g>
			<defs>
				<path id="SVGID_1_" d="M97.2,136.3h-6.3c-1.7,0-3-1.4-3-3v-15.6c0-1.7,1.3-3,3-3h6.3c1.7,0,3,1.3,3,3v15.6
					C100.2,135,98.8,136.3,97.2,136.3z"/>
			</defs>
			<clipPath id="SVGID_2_">
				<use xlink:href="#SVGID_1_"  style="overflow:visible;"/>
			</clipPath>
			<path class="st50" d="M97.2,136.3h-6.3c-1.7,0-3-1.4-3-3v-15.6c0-1.7,1.3-3,3-3h6.3c1.7,0,3,1.3,3,3v15.6
				C100.2,135,98.8,136.3,97.2,136.3z"/>
			<g class="st51">
				<line class="st52" x1="89.5" y1="109.3" x2="89.5" y2="140.7"/>
				<line class="st52" x1="91.3" y1="109.3" x2="91.3" y2="140.7"/>
				<line class="st52" x1="93.1" y1="109.3" x2="93.1" y2="140.7"/>
				<line class="st52" x1="94.9" y1="109.3" x2="94.9" y2="140.7"/>
				<line class="st52" x1="96.7" y1="109.3" x2="96.7" y2="140.7"/>
				<line class="st52" x1="98.5" y1="109.3" x2="98.5" y2="140.7"/>
			</g>
		</g>
		<g>
			<defs>
				<path id="SVGID_3_" d="M161.5,136.3h6.3c1.6,0,3-1.4,3-3v-15.6c0-1.7-1.4-3-3-3h-6.3c-1.6,0-3,1.3-3,3v15.6
					C158.5,135,159.9,136.3,161.5,136.3z"/>
			</defs>
			<clipPath id="SVGID_4_">
				<use xlink:href="#SVGID_3_"  style="overflow:visible;"/>
			</clipPath>
			<path class="st53" d="M161.5,136.3h6.3c1.6,0,3-1.4,3-3v-15.6c0-1.7-1.4-3-3-3h-6.3c-1.6,0-3,1.3-3,3v15.6
				C158.5,135,159.9,136.3,161.5,136.3z"/>
			<g class="st54">
				<line class="st52" x1="169.2" y1="109.3" x2="169.2" y2="140.7"/>
				<line class="st52" x1="167.4" y1="109.3" x2="167.4" y2="140.7"/>
				<line class="st52" x1="165.6" y1="109.3" x2="165.6" y2="140.7"/>
				<line class="st52" x1="163.8" y1="109.3" x2="163.8" y2="140.7"/>
				<line class="st52" x1="162" y1="109.3" x2="162" y2="140.7"/>
				<line class="st52" x1="160.2" y1="109.3" x2="160.2" y2="140.7"/>
			</g>
		</g>
	</g>
	<g>
		<path class="st55" d="M169.6,101.9l-1.3-2.5c-0.3-0.5-0.6-0.9-1-1.3l-4.5-4.5l-3.6,4.5c-1.9,2.3-4.5,3.8-7.4,4.3
			c-4.6,0.8-12.4,1.7-22.4,1.7c-10.1,0-17.8-1-22.4-1.7c-2.9-0.5-5.5-2-7.4-4.3l-3.6-4.5L91.4,98c-0.4,0.4-0.7,0.8-1,1.3l-1.3,2.5
			c0,0-1.4,2.6-1,9.9c0,0,0.6,17.2,2.7,17.2h38.5h38.5c2.2,0,2.7-17.2,2.7-17.2C171,104.5,169.6,101.9,169.6,101.9z M148.9,126.4
			c0,0.7-0.6,1.3-1.3,1.3h-18.3H111c-0.7,0-1.3-0.6-1.3-1.3v0c0-0.7,0.6-1.3,1.3-1.3h18.3h18.3C148.4,125.1,148.9,125.7,148.9,126.4
			L148.9,126.4z"/>
		<path class="st56" d="M129.4,90.6c0,0-16-0.4-33.4,2.9l3.6,4.5c1.9,2.3,4.5,3.8,7.4,4.3c4.6,0.8,12.4,1.7,22.4,1.7
			c10.1,0,17.8-1,22.4-1.7c2.9-0.5,5.5-2,7.4-4.3l3.6-4.5C145.4,90.2,129.4,90.6,129.4,90.6z"/>
	</g>
	<line class="st55" x1="129.4" y1="125.1" x2="129.4" y2="127.6"/>
	<g>
		<path class="st57" d="M107.3,121.3L107.3,121.3c-0.5-0.9-1.3-1.4-2.3-1.5l-10-0.9c-1-0.1-1.8,0.8-1.6,1.7l0.5,2.8
			c0.2,1.2,1.3,2.1,2.6,2.1h8.3c0.5,0,1-0.1,1.4-0.4l0,0C107.5,124.5,108,122.7,107.3,121.3z"/>
		<path class="st58" d="M104.7,121.7L104.7,121.7c-0.3-0.6-0.8-0.9-1.4-1l-6.3-0.5c-0.6-0.1-1.1,0.5-1,1.1l0.3,1.8
			c0.1,0.8,0.8,1.3,1.6,1.3h5.2c0.3,0,0.6-0.1,0.9-0.2l0,0C104.9,123.7,105.2,122.6,104.7,121.7z"/>
	</g>
	<g>
		<path class="st57" d="M151.4,121.3L151.4,121.3c0.5-0.9,1.3-1.4,2.3-1.5l10-0.9c1-0.1,1.8,0.8,1.6,1.7l-0.5,2.8
			c-0.2,1.2-1.3,2.1-2.6,2.1h-8.3c-0.5,0-1-0.1-1.4-0.4l0,0C151.2,124.5,150.7,122.7,151.4,121.3z"/>
		<path class="st58" d="M154,121.7L154,121.7c0.3-0.6,0.8-0.9,1.4-1l6.3-0.5c0.6-0.1,1.1,0.5,1,1.1l-0.3,1.8
			c-0.1,0.8-0.8,1.3-1.6,1.3h-5.2c-0.3,0-0.6-0.1-0.9-0.2l0,0C153.8,123.7,153.5,122.6,154,121.7z"/>
	</g>
	<g>
		<path class="st55" d="M94.9,91.7v-1.6c0-1.1-1-1.8-2-1.5l-5.1,1.6c-0.6,0.2-1.1,0.8-1.1,1.4l0,0c0,0.8,0.7,1.5,1.5,1.5l5.1,0.1
			C94.2,93.3,94.9,92.6,94.9,91.7z"/>
		<polygon class="st56" points="94.9,90.2 96.9,90.9 95.9,93.6 94.9,91.7 		"/>
	</g>
	<g>
		<path class="st57" d="M109.6,105.5c0,0-16.4-5.1-18-2c-1.6,3.1-1.4,7.4,1,7.4c2.3,0,6.8,1.2,10.4,0.8
			C106.5,111.3,113.9,107.2,109.6,105.5z"/>
		<path class="st59" d="M108.8,105.9c0,0-14.9-4-16.3-1.5c-1.4,2.5-1.2,5.8,0.9,5.8s6.2,0.9,9.4,0.6S112.7,107.2,108.8,105.9z"/>
		<circle class="st28" cx="95.6" cy="107" r="3"/>
		<circle class="st28" cx="100.5" cy="108.7" r="1.5"/>
		<path class="st28" d="M107,107.5c0-1-1.8-1.8-2.8-1.8c-1,0-1.8,0.8-1.8,1.8c0,1,0.8,1.8,1.8,1.8C105.2,109.3,107,108.5,107,107.5z
			"/>
	</g>
	<path class="st58" d="M147.7,125.1h-18.3H111c-0.7,0-1.3,0.6-1.3,1.3v0c0,0.7,0.6,1.3,1.3,1.3h18.3h18.3c0.7,0,1.3-0.6,1.3-1.3v0
		C148.9,125.7,148.4,125.1,147.7,125.1z"/>
	<g>
		<path class="st55" d="M152.4,75.3c-5-2.5-23-2.4-23-2.4s-18-0.1-23,2.4c-5,2.5-10.4,18.2-10.4,18.2c0.7-0.1,1.3-0.2,2-0.4
			l5.4-11.1c1.2-2.3,3.4-3.9,6-4.2c4.4-0.6,12.3-1.3,20.1-1.3c7.8,0,15.8,0.8,20.1,1.3c2.6,0.3,4.8,1.9,6,4.2l5.4,11.1
			c0.7,0.1,1.3,0.2,2,0.4C162.8,93.6,157.3,77.8,152.4,75.3z"/>
		<path class="st60" d="M155.4,82.1c-1.2-2.3-3.4-3.9-6-4.2c-4.4-0.6-12.3-1.3-20.1-1.3c-7.8,0-15.8,0.8-20.1,1.3
			c-2.6,0.3-4.8,1.9-6,4.2l-5.4,11.1c16.6-2.9,31.5-2.6,31.5-2.6s14.8-0.4,31.5,2.6L155.4,82.1z"/>
	</g>
	<g>
		<path class="st55" d="M163.8,91.7v-1.6c0-1.1,1-1.8,2-1.5l5.1,1.6c0.6,0.2,1.1,0.8,1.1,1.4l0,0c0,0.8-0.7,1.5-1.5,1.5l-5.1,0.1
			C164.5,93.3,163.8,92.6,163.8,91.7z"/>
		<polygon class="st56" points="163.8,90.2 161.8,90.9 162.8,93.6 163.8,91.7 		"/>
	</g>
	<g>
		<path class="st57" d="M149.1,105.5c0,0,16.4-5.1,18-2c1.6,3.1,1.4,7.4-1,7.4c-2.3,0-6.8,1.2-10.4,0.8
			C152.2,111.3,144.8,107.2,149.1,105.5z"/>
		<path class="st59" d="M149.9,105.9c0,0,14.9-4,16.3-1.5c1.4,2.5,1.2,5.8-0.9,5.8s-6.2,0.9-9.4,0.6
			C152.7,110.5,146,107.2,149.9,105.9z"/>
		<circle class="st28" cx="163.1" cy="107" r="3"/>
		<circle class="st28" cx="158.2" cy="108.7" r="1.5"/>
		<path class="st28" d="M151.7,107.5c0-1,1.8-1.8,2.8-1.8c1,0,1.8,0.8,1.8,1.8c0,1-0.8,1.8-1.8,1.8
			C153.5,109.3,151.7,108.5,151.7,107.5z"/>
	</g>
	<g>
		<g>
			<path class="st57" d="M146.6,110.5l-2.4-2.7c-1.2-1.3-2.8-2.1-4.6-2.1h-10.3H119c-1.8,0-3.4,0.8-4.6,2.1l-2.4,2.7
				c-0.7,0.8-0.9,2-0.6,3l2.8,7.6c0.6,1.7,2.2,2.8,4,2.8h11.1h11.1c1.8,0,3.4-1.1,4-2.8l2.8-7.6
				C147.6,112.5,147.4,111.3,146.6,110.5z"/>
		</g>
		<g>
			<path class="st61" d="M146,113c0.2-0.6,0.1-1.2-0.3-1.7l-2.4-2.7c-0.9-1-2.2-1.6-3.6-1.6h-10.3H119c-1.4,0-2.7,0.6-3.6,1.6
				l-2.4,2.7c-0.4,0.5-0.5,1.1-0.3,1.7l0.3,0.9h32.6L146,113z"/>
			<path class="st59" d="M113,113.9l2.4,6.7c0.4,1.2,1.5,1.9,2.8,1.9h11.1h11.1c1.2,0,2.3-0.8,2.8-1.9l2.4-6.7H113z"/>
		</g>
		<g>
			<g>
				<line class="st62" x1="113.2" y1="116.2" x2="129.4" y2="116.2"/>
				<line class="st62" x1="113.8" y1="117.4" x2="129.4" y2="117.4"/>
				<line class="st62" x1="114.1" y1="118.6" x2="129.4" y2="118.6"/>
				<line class="st62" x1="114.6" y1="119.8" x2="129.4" y2="119.8"/>
			</g>
			<line class="st62" x1="145.5" y1="116.2" x2="129.4" y2="116.2"/>
			<line class="st62" x1="144.9" y1="117.4" x2="129.4" y2="117.4"/>
			<line class="st62" x1="144.6" y1="118.6" x2="129.4" y2="118.6"/>
			<line class="st62" x1="144.1" y1="119.8" x2="129.4" y2="119.8"/>
		</g>
	</g>
	<path class="st59" d="M131.4,110.6c0-1.1-0.9-2-2-2c-1.1,0-2,0.9-2,2c0,1.1,0.9,2,2,2C130.5,112.6,131.4,111.7,131.4,110.6z"/>
</g>
</svg>
