<?xml version="1.0" encoding="utf-8"?>
<!-- Generator: Adobe Illustrator 25.1.0, SVG Export Plug-In . SVG Version: 6.00 Build 0)  -->
<svg version="1.1" id="Layer_1" xmlns="http://www.w3.org/2000/svg" xmlns:xlink="http://www.w3.org/1999/xlink" x="0px" y="0px"
	 viewBox="0 0 300 265" style="enable-background:new 0 0 300 265;" xml:space="preserve">
<style type="text/css">
	.st0{fill:#EBEBEB;}
	.st1{fill:#E0E0E0;}
	.st2{fill:#37474F;}
	.st3{fill:#263238;}
	.st4{fill:#455A64;}
	.st5{fill:#D4EFFC;}
	.st6{fill:#0000FF;}
	.st7{opacity:0.1;enable-background:new    ;}
	.st8{opacity:0.25;enable-background:new    ;}
	.st9{fill:#27DEBF;}
	.st10{opacity:0.2;enable-background:new    ;}
	.st11{opacity:0.25;}
	.st12{opacity:0.3;fill:#FFFFFF;enable-background:new    ;}
	.st13{fill:#FAFAFA;}
	.st14{opacity:0.4;enable-background:new    ;}
	.st15{fill:#FFF399;}
	.st16{fill:#FABFB7;}
	.st17{fill:#FFC800;}
	.st18{fill:#F28F8F;}
	.st19{fill:#FFA8A7;}
	.st20{fill:#FF008A;}
	.st21{opacity:0.3;}
	.st22{opacity:0.15;enable-background:new    ;}
</style>
<g id="Shadows_2">
	<g id="Shadow_7_">
		<polygon class="st0" points="170.2,6 0,75.3 0,216 170.2,149.5 		"/>
		<polygon class="st1" points="170.2,149.5 0,216 105.6,259 272.5,191.1 		"/>
	</g>
</g>
<g id="Cyclorama_1_">
	<g id="Cyclorama">
		<g>
			<polygon class="st2" points="6.4,69.7 3.3,68.4 3.3,108.3 6.4,109.6 			"/>
			<polygon class="st3" points="7.4,69.3 7.4,109.2 6.4,109.6 6.4,69.7 			"/>
			<polygon class="st4" points="4.3,68.1 7.4,69.3 6.4,69.7 3.3,68.4 			"/>
		</g>
		<g>
			<g>
				<polygon class="st2" points="172.4,2.1 169.4,0.9 169.4,40.8 172.4,42.1 				"/>
				<polygon class="st3" points="173.4,1.7 173.4,41.6 172.4,42.1 172.4,2.1 				"/>
				<polygon class="st4" points="170.2,0.5 173.4,1.7 172.4,2.1 169.4,0.9 				"/>
			</g>
			<g>
				<g>
					<path class="st4" d="M185.8,17.5l-12.5-5l-1,0.4v2.5l12.5,5c0.4,0.2,0.9,0.2,1.2,0.1s0.6-0.3,0.9-0.4c0.3-0.1,0.4-0.3,0.4-0.7
						C187.5,18.8,186.8,18,185.8,17.5z"/>
					<path class="st2" d="M184.9,18c0.9,0.4,1.6,1.2,1.6,1.9c0,0.7-0.7,0.9-1.6,0.6l-12.5-5V13L184.9,18z"/>
					<path class="st1" d="M184.7,19.8c0.4,0.2,0.7,0,0.7-0.3s-0.3-0.7-0.7-0.9c-0.4-0.2-0.7,0-0.7,0.3
						C184,19.2,184.3,19.6,184.7,19.8z"/>
				</g>
				<g>
					<path class="st4" d="M180.7,7.2l-7.2-3l-1,0.4v2.5l7.2,3c0.4,0.2,0.9,0.2,1.2,0.1c0.3-0.1,0.6-0.3,0.9-0.4
						c0.3-0.1,0.4-0.3,0.4-0.7C182.3,8.5,181.6,7.5,180.7,7.2z"/>
					<path class="st2" d="M179.7,7.5c0.9,0.4,1.6,1.2,1.6,1.9s-0.7,0.9-1.6,0.6l-7.2-3V4.7L179.7,7.5z"/>
					<path class="st1" d="M179.5,9.4c0.4,0.2,0.7,0,0.7-0.3s-0.3-0.7-0.7-0.9s-0.7,0-0.7,0.3C178.8,8.9,179.2,9.3,179.5,9.4z"/>
				</g>
				<g>
					<path class="st4" d="M191.1,28l-17.8-7.2l-1,0.4v2.5l17.8,7.2c0.4,0.2,0.9,0.2,1.2,0.1s0.6-0.3,0.9-0.4
						c0.3-0.1,0.4-0.3,0.4-0.7C192.7,29.2,192,28.4,191.1,28z"/>
					<path class="st2" d="M190.2,28.4c0.9,0.4,1.6,1.2,1.6,1.9c0,0.7-0.7,0.9-1.6,0.6l-17.8-7.2v-2.5L190.2,28.4z"/>
					<path class="st1" d="M190.1,30.2c0.4,0.2,0.7,0,0.7-0.3s-0.3-0.7-0.7-0.9c-0.4-0.2-0.7,0-0.7,0.3
						C189.4,29.6,189.7,30,190.1,30.2z"/>
				</g>
			</g>
		</g>
		<polygon class="st3" points="10.9,74 10.9,145.6 178.2,77.6 178.2,5.7 		"/>
		<g>
			<g>
				<path class="st5" d="M47.7,232.4c-19.1-7.8-31-22.4-31-37.9v-110L183,16.6v109.6c0,15.8,12,30.5,31.4,38.5l57.5,23.4
					l-166.3,67.7L47.7,232.4z"/>
				<path class="st5" d="M182.6,17.2v109.1c0,15.9,12.2,30.7,31.7,38.7l56.8,23.1l-165.5,67.4L48,232c-19-7.8-30.9-22.2-30.9-37.7
					V84.7L182.6,17.2 M183.4,16.1L16.1,84.3v110.1c0,15.7,11.9,30.3,31.3,38.2l58.2,23.7L273,188.1l-58.2-23.7
					c-19.4-7.9-31.3-22.5-31.3-38.2V16.1H183.4z"/>
			</g>
			<polygon class="st5" points="16.1,84.3 183.4,16.1 183.4,54.8 16.1,122.8 			"/>
		</g>
		<g>
			<polygon class="st6" points="21.4,94.7 21.4,115.7 188.8,47.7 188.8,26.5 			"/>
			<polygon class="st7" points="21.4,94.7 21.4,115.7 188.8,47.7 188.8,26.5 			"/>
			<polygon class="st7" points="21.4,94.7 21.4,110.7 183.4,44.8 188.8,32.4 188.8,26.5 			"/>
		</g>
		<g>
			<g>
				<g>
					<path class="st5" d="M18.1,82.4L183.7,15c0.3-0.1,0.6-0.2,1-0.2c0.6,0,1.2,0.1,1.9,0.4c2.5,1,4.3,3.4,4.3,5.3
						c0,0.9-0.4,1.5-1.2,1.8L24.2,89.7L18.1,82.4z"/>
					<path class="st5" d="M184.7,15.1c0.4,0,1,0.1,1.6,0.4c2.3,0.9,4.2,3.3,4.2,5.1c0,0.7-0.3,1.3-0.9,1.5l-0.1,0.1L24.3,89.4
						l-5.7-6.8l165.2-67.2C184.2,15.2,184.4,15.1,184.7,15.1 M184.7,14.5c-0.4,0-0.9,0.1-1.2,0.2l0,0L17.4,82.3l6.5,8l166-67.6l0,0
						c0.9-0.3,1.3-1,1.3-2c0-2-2-4.6-4.6-5.6C186,14.7,185.3,14.5,184.7,14.5L184.7,14.5z"/>
				</g>
				<path class="st1" d="M20.7,89.9c2.6,1,4.6,0.2,4.6-1.8s-2-4.6-4.6-5.6s-4.6-0.2-4.6,1.8C16.1,86.5,18.1,88.9,20.7,89.9z"/>
				<path class="st8" d="M20.7,89.9c2.6,1,4.6,0.2,4.6-1.8s-2-4.6-4.6-5.6s-4.6-0.2-4.6,1.8C16.1,86.5,18.1,88.9,20.7,89.9z"/>
				<path class="st3" d="M20.7,87.4c0.7,0.3,1.4,0.1,1.4-0.6c0-0.6-0.6-1.4-1.4-1.7c-0.7-0.3-1.4-0.1-1.4,0.6
					C19.3,86.3,20,87.1,20.7,87.4z"/>
			</g>
			<g>
				<path class="st4" d="M19.9,85.1L7.4,80l-1,0.4v2.5l12.5,5c0.4,0.2,0.9,0.2,1.2,0.1c0.3-0.1,0.6-0.3,0.9-0.4s0.4-0.3,0.4-0.7
					C21.4,86.4,20.7,85.4,19.9,85.1z"/>
				<path class="st2" d="M18.8,85.4c0.9,0.4,1.6,1.2,1.6,1.9c0,0.7-0.7,0.9-1.6,0.6L6.4,83v-2.5L18.8,85.4z"/>
				<path class="st1" d="M18.7,87.3c0.4,0.2,0.7,0,0.7-0.3s-0.3-0.7-0.7-0.9c-0.4-0.2-0.7,0-0.7,0.3C18,86.8,18.4,87.2,18.7,87.3z"
					/>
			</g>
		</g>
		<g>
			<g>
				<path class="st4" d="M186.2,10.2c0-2-2-4.6-4.6-5.6c-1.3-0.5-2.5-0.6-3.2-0.2l0,0l-166,67.5l6.5,8l166-67.6l0,0
					C185.6,11.9,186.2,11.2,186.2,10.2z"/>
				<path class="st2" d="M15.5,79.6c2.6,1,4.6,0.2,4.6-1.8s-2-4.6-4.6-5.6S10.9,72,10.9,74S13,78.6,15.5,79.6z"/>
				<path class="st3" d="M15.5,77c0.7,0.3,1.4,0.1,1.4-0.6c0-0.6-0.6-1.4-1.4-1.7c-0.7-0.3-1.4-0.1-1.4,0.6
					C14.2,75.9,14.8,76.7,15.5,77z"/>
			</g>
			<g>
				<path class="st4" d="M14.6,74.7l-7.2-3l-1,0.4v2.5l7.2,3c0.4,0.2,0.9,0.2,1.2,0.1s0.6-0.3,0.9-0.4c0.3-0.1,0.4-0.3,0.4-0.7
					C16.2,75.9,15.5,75.1,14.6,74.7z"/>
				<path class="st2" d="M13.6,75.1c0.9,0.4,1.6,1.2,1.6,1.9c0,0.7-0.7,0.9-1.6,0.6l-7.2-3v-2.5L13.6,75.1z"/>
				<path class="st1" d="M13.6,77c0.4,0.2,0.7,0,0.7-0.3S14,76,13.6,75.8s-0.7,0-0.7,0.3C12.9,76.4,13.2,76.8,13.6,77z"/>
			</g>
		</g>
		<g>
			<g>
				<path class="st6" d="M196.6,31c0-2-2-4.6-4.6-5.6c-1.3-0.5-2.5-0.6-3.2-0.2l0,0l-166,67.5l6.5,8l166-67.6l0,0
					C196.2,32.8,196.6,32,196.6,31z"/>
				<path class="st6" d="M26.1,100.3c2.6,1,4.6,0.2,4.6-1.8s-2-4.6-4.6-5.6s-4.6-0.2-4.6,1.8C21.4,96.9,23.5,99.3,26.1,100.3z"/>
				<path class="st8" d="M26.1,100.3c2.6,1,4.6,0.2,4.6-1.8s-2-4.6-4.6-5.6s-4.6-0.2-4.6,1.8C21.4,96.9,23.5,99.3,26.1,100.3z"/>
				<path class="st3" d="M26.1,97.8c0.7,0.3,1.4,0.1,1.4-0.6c0-0.6-0.6-1.4-1.4-1.7c-0.7-0.3-1.4-0.1-1.4,0.6
					C24.6,96.7,25.4,97.5,26.1,97.8z"/>
			</g>
			<g>
				<path class="st4" d="M25.1,95.5L7.4,88.3l-1,0.4v2.5l17.8,7.2c0.4,0.2,0.9,0.2,1.2,0.1c0.3-0.1,0.6-0.3,0.9-0.4s0.4-0.3,0.4-0.7
					C26.8,96.8,26.1,95.9,25.1,95.5z"/>
				<path class="st2" d="M24.2,96c0.9,0.4,1.6,1.2,1.6,1.9c0,0.7-0.7,0.9-1.6,0.6L6.4,91.3v-2.5L24.2,96z"/>
				<path class="st1" d="M24.1,97.8c0.4,0.2,0.7,0,0.7-0.3s-0.3-0.7-0.7-0.9c-0.4-0.2-0.7,0-0.7,0.3C23.3,97.2,23.6,97.6,24.1,97.8z
					"/>
			</g>
		</g>
	</g>
</g>
<g id="Camera_3_">
	<g id="Camera_4_">
		<g id="Tripod_8_">
			<g id="XMLID_463_">
				<path id="XMLID_466_" class="st9" d="M233.9,212.2l-0.9-1.1l3.8-1.5l0,0c0.1,0,0.3,0,0.4,0c0.3,0.1,0.6,0.5,0.6,0.7
					c0,0.1,0,0.2-0.1,0.3l0,0l0,0l0,0L233.9,212.2z"/>
				<path id="XMLID_465_" class="st9" d="M234,212c0,0.3-0.3,0.4-0.6,0.2c-0.3-0.1-0.6-0.5-0.6-0.7c0-0.3,0.3-0.4,0.6-0.2
					C233.9,211.3,234,211.7,234,212z"/>
				<path id="XMLID_464_" class="st10" d="M234,212c0,0.3-0.3,0.4-0.6,0.2c-0.3-0.1-0.6-0.5-0.6-0.7c0-0.3,0.3-0.4,0.6-0.2
					C233.9,211.3,234,211.7,234,212z"/>
			</g>
			<path class="st3" d="M233.3,211.6L225,215l0.3,0.3l8.3-3.4c0,0,0,0,0-0.1S233.6,211.6,233.3,211.6
				C233.4,211.6,233.3,211.5,233.3,211.6z"/>
			<path class="st2" d="M226.5,230.6c0-0.1-0.1-0.2-0.3-0.2c-0.3-0.1-0.9-0.1-1.2,0c-0.1,0.1-0.3,0.1-0.3,0.2l11.3,16.7l0,0
				c0,0.1,0,0.1,0.1,0.2c0.3,0.1,0.6,0.1,0.9,0c0.1,0,0.1-0.1,0.1-0.2l0,0L226.5,230.6z M207.9,247.5L207.9,247.5
				c0,0.1,0,0.1,0.1,0.2c0.3,0.1,0.6,0.1,0.9,0c0.1,0,0.1-0.1,0.1-0.2l0,0l11.3-16.7c0-0.1-0.1-0.2-0.3-0.2c-0.3-0.1-0.9-0.1-1.2,0
				c-0.1,0.1-0.3,0.1-0.3,0.2L207.9,247.5z M223.3,230.7c-0.3-0.1-0.9-0.1-1.3,0c-0.1,0.1-0.3,0.2-0.3,0.3l0.3,22.8l0,0
				c0,0.1,0,0.1,0.1,0.2c0.3,0.1,0.6,0.1,0.9,0c0.1,0,0.1-0.1,0.1-0.2l0,0l0.3-22.8C223.6,230.8,223.4,230.7,223.3,230.7z"/>
			<g id="XMLID_441_">
				<g id="XMLID_461_">
					<path id="XMLID_462_" class="st9" d="M228.2,229.8c-0.3-0.3-0.7-0.6-1.4-0.9c-2.3-0.9-6.1-0.9-8.3,0c-0.7,0.3-1.2,0.6-1.4,0.9
						h-0.3v0.9l0,0c0,0.6,0.6,1.1,1.7,1.6c2.3,0.9,6.1,0.9,8.3,0c1.2-0.4,1.7-1,1.7-1.6l0,0v-0.9H228.2z"/>
				</g>
				<g id="XMLID_459_" class="st11">
					<path id="XMLID_460_" d="M228.2,229.8c-0.3-0.3-0.7-0.6-1.4-0.9c-2.3-0.9-6.1-0.9-8.3,0c-0.7,0.3-1.2,0.6-1.4,0.9h-0.3v0.9l0,0
						c0,0.6,0.6,1.1,1.7,1.6c2.3,0.9,6.1,0.9,8.3,0c1.2-0.4,1.7-1,1.7-1.6l0,0v-0.9H228.2z"/>
				</g>
				<g id="XMLID_442_">
					<path id="XMLID_443_" class="st9" d="M226.8,228.2c-2.3-0.9-6.1-0.9-8.3,0c-2.3,0.9-2.3,2.5,0,3.4s6.1,0.9,8.3,0
						C229.1,230.6,229.1,229.1,226.8,228.2z"/>
				</g>
			</g>
			<path class="st3" d="M223.6,230v-7.4h-1.7v7.4c0,0.1,0.1,0.2,0.3,0.2c0.3,0.1,0.9,0.1,1.3,0C223.4,230.2,223.6,230.1,223.6,230z"
				/>
			<g id="XMLID_435_">
				<g id="XMLID_439_">
					<path id="XMLID_440_" class="st2" d="M225.9,222.9c-0.1-0.2-0.4-0.4-0.9-0.5c-1.3-0.5-3.5-0.5-4.8,0c-0.4,0.1-0.6,0.3-0.9,0.5
						h-0.1v0.5l0,0c0,0.3,0.3,0.7,1,0.9c1.3,0.5,3.5,0.5,4.8,0c0.6-0.3,1-0.6,1-0.9l0,0v-0.5H225.9z"/>
				</g>
				<g id="XMLID_436_">
					<path id="XMLID_437_" class="st4" d="M225,221.9c-1.3-0.5-3.5-0.5-4.8,0s-1.3,1.4,0,1.9s3.5,0.5,4.8,0
						C226.3,223.4,226.3,222.5,225,221.9z"/>
				</g>
			</g>
			<path class="st3" d="M223.4,222.8V216h-1.6v6.8c0,0.1,0.1,0.2,0.3,0.2c0.3,0.1,0.7,0.1,1.2,0C223.3,223,223.4,222.9,223.4,222.8z
				"/>
			<g id="XMLID_429_">
				<g id="XMLID_433_">
					<path id="XMLID_434_" class="st2" d="M225.3,215.3c-0.1-0.2-0.3-0.3-0.7-0.4c-1-0.4-2.9-0.4-3.9,0c-0.3,0.1-0.6,0.3-0.7,0.4
						h-0.1v0.4l0,0c0,0.3,0.3,0.5,0.9,0.7c1,0.4,2.9,0.4,3.9,0c0.6-0.2,0.7-0.5,0.9-0.7l0,0v-0.4H225.3z"/>
				</g>
				<g id="XMLID_430_">
					<path id="XMLID_431_" class="st4" d="M224.6,214.5c-1-0.4-2.9-0.4-3.9,0s-1,1.1,0,1.6c1,0.4,2.9,0.4,3.9,0
						C225.6,215.6,225.6,214.9,224.6,214.5z"/>
				</g>
			</g>
			<path class="st3" d="M223.3,215.4v-8.2h-1.2v8.1c0,0.1,0,0.1,0.1,0.2c0.3,0.1,0.6,0.1,0.9,0L223.3,215.4z"/>
			<g>
				<polygon class="st2" points="212.7,240.9 213,240.6 222.9,244 222.6,244.4 				"/>
			</g>
			<g>
				<polygon class="st2" points="222.4,244 232.3,240.6 232.6,241 222.7,244.4 				"/>
			</g>
		</g>
		<g id="Camera_7_">
			<g id="XMLID_426_">
				<path id="XMLID_428_" class="st9" d="M216.2,200.3L216.2,200.3L216.2,200.3c-0.7-0.3-1.4-0.2-2.5,0.1c-1.9,0.7-3.3,2.6-3.3,4.1
					c0,0.3,0,0.5,0.1,0.7c0.1,0.3,0.3,0.5,0.6,0.7l0.1,0.1l0,0l0,0l0,0l0,0l0.6,0.2c-0.1,0-0.1-0.1-0.3-0.1
					c-0.4-0.3-0.7-0.7-0.7-1.3c0-1.5,1.4-3.3,3.3-4.1C214.8,200.4,215.5,200.3,216.2,200.3c0,0.1,0,0.1,0.2,0.2L216.2,200.3z"/>
				<path class="st4" d="M210.7,205.2c-0.1-0.2-0.1-0.4-0.1-0.7c0-1.5,1.4-3.3,3.3-4.1c0.9-0.4,1.7-0.4,2.3-0.2l-1.2-0.5
					c-0.3-0.1-0.6-0.2-0.9-0.2c-0.4,0-1,0.1-1.4,0.3c-1.9,0.7-3.3,2.6-3.3,4.1c0,0.7,0.4,1.2,1,1.5l0,0l0,0l1.2,0.5l-0.1-0.1
					C211,205.7,210.7,205.5,210.7,205.2z M220.4,201.9L220.4,201.9l-3.6-1.4h-0.1l0,0c-0.1,0-0.1-0.1-0.3-0.1c-0.6-0.1-1.3,0-2,0.3
					c-1.9,0.7-3.3,2.6-3.3,4.1c0,0.6,0.3,1.1,0.7,1.3c0.1,0.1,0.1,0.1,0.3,0.1l0,0l3.6,1.4l0,0l0,0c0.3,0.1,0.6,0.2,0.9,0.2
					c0.4,0,1-0.1,1.4-0.3c1.9-0.7,3.3-2.6,3.3-4.1C221.4,202.7,221,202.2,220.4,201.9z"/>
				<g>
					<path class="st2" d="M219.4,206.7c-0.4,0.3-0.9,0.6-1.3,0.8c-0.6,0.2-1,0.3-1.4,0.3c-0.3,0-0.6-0.1-0.9-0.2l0,0l-3.6-1.4l0,0
						c-0.1,0-0.1-0.1-0.3-0.1c-0.4-0.3-0.7-0.7-0.7-1.3c0-0.4,0.1-0.8,0.3-1.2L219.4,206.7z"/>
					<path class="st2" d="M211.4,206l-1.2-0.5l0,0l0,0c-0.6-0.2-1-0.8-1-1.5c0-0.4,0.1-0.8,0.3-1.2l1.2,0.5
						c-0.1,0.4-0.3,0.8-0.3,1.2c0,0.3,0,0.5,0.1,0.7c0.1,0.3,0.3,0.5,0.6,0.7C211.3,205.9,211.4,205.9,211.4,206z"/>
				</g>
			</g>
			<g id="XMLID_362_">
				<path id="XMLID_425_" class="st3" d="M219.4,211.4c-0.7,0.2-1.7,0.2-2.3-0.1l-2.3-0.9c-0.7-0.3-1.3-1-1.3-1.5v-4.3
					c0-0.1,0-0.2,0-0.3v-0.1l0,0v-0.1c0,0,0-0.1,0.1-0.1v-0.1v-0.1l0,0l4.8,1.9c-0.3,0.3-0.4,0.6-0.4,0.9v4.3
					C218.4,211.3,218.8,211.5,219.4,211.4z"/>
				<path id="XMLID_424_" class="st2" d="M231.7,201.1v4.3c0,0.6-0.6,1.3-1.3,1.5l-10.7,4.4l0,0l0,0c0,0,0,0-0.1,0l0,0
					c-0.6,0.2-1-0.1-1-0.6v-4.3c0-0.3,0.1-0.6,0.4-0.9c0.3-0.3,0.6-0.5,0.9-0.7c1.2-0.5,2-1.4,2.3-2.3c0-0.1,0.1-0.3,0.3-0.4
					c0.1-0.1,0.3-0.3,0.4-0.3l2.3-0.9c0.1-0.1,0.3-0.1,0.4,0l0,0l0,0c0.1,0.1,0.1,0.1,0.3,0.2c0.4,0.5,1.4,0.8,2.3,0.5l2.3-0.9
					C231,200.3,231.5,200.5,231.7,201.1C231.7,201,231.7,201,231.7,201.1z"/>
				<path id="XMLID_423_" class="st12" d="M218.6,205.6c0.3-0.3,0.6-0.5,0.9-0.7c1.2-0.5,2-1.4,2.3-2.3c0-0.1,0.1-0.3,0.3-0.4
					c0.1-0.1,0.3-0.3,0.4-0.3l2.3-0.9c0,0-2,0.9-2.3,1s-0.6,0.4-0.6,0.8c-0.1,0.3-0.3,1.5-2.3,2.3
					C219.7,205,219.2,205.2,218.6,205.6z"/>
				<path id="XMLID_420_" class="st4" d="M219.5,201L219.5,201l-2.2-0.9c-0.1,0.1-0.1,0.3-0.3,0.4c-0.3,1-1,1.9-2.3,2.3
					c-0.3,0.1-0.7,0.4-0.9,0.7l4.8,1.9c0.3-0.3,0.6-0.5,0.9-0.7c1.2-0.5,2-1.4,2.3-2.3c0-0.1,0.1-0.3,0.3-0.4L219.5,201z"/>
				<path class="st2" d="M219.5,201L219.5,201l-2.2-0.9c-0.1,0.1-0.1,0.3-0.3,0.4c0,0.1,0,0.2-0.1,0.3c0,0,0,0,0,0.1
					s-0.1,0.2-0.1,0.3v0.1c0,0.1-0.1,0.1-0.1,0.2c0,0.1-0.1,0.1-0.1,0.2l0,0c-0.1,0.1-0.1,0.2-0.3,0.3c-0.4,0.4-0.9,0.7-1.4,0.9
					c-0.3,0.1-0.7,0.4-0.9,0.7c0,0,0.4-0.4,1-0.6c0.4-0.1,1-0.4,1.4-0.9l4.6,1.8c0.4-0.4,0.7-0.9,0.9-1.5c0-0.1,0.1-0.3,0.3-0.4
					L219.5,201z"/>
				<path id="XMLID_419_" class="st4" d="M230.4,199.5l-2.3-0.9c-0.7-0.3-1.9-0.3-2.6,0l-2.3,0.9c-0.1,0.1-0.3,0.1-0.4,0.1l0,0l0,0
					l2.6,1l0,0l0,0c0.1,0.1,0.1,0.1,0.3,0.2c0.4,0.5,1.4,0.8,2.3,0.5l2.3-0.9c0.7-0.3,1.3-0.1,1.3,0.4
					C231.5,200.4,231,199.8,230.4,199.5z"/>
				<path id="XMLID_416_" class="st4" d="M222.8,199.7L222.8,199.7L222.8,199.7l-2.2-0.9l0,0c-0.1,0-0.3,0-0.4,0l-2.3,0.9
					c-0.1,0.1-0.3,0.2-0.4,0.3l2.2,0.9l0,0l2.6,1c0.1-0.1,0.3-0.3,0.4-0.3l2.3-0.9c0.1-0.1,0.3-0.1,0.4,0L222.8,199.7z"/>
				<path id="XMLID_415_" class="st13" d="M223,202l1.7-0.7c0.1-0.1,0.3,0,0.3,0.1v0.7c0,0.1-0.1,0.3-0.3,0.4l-1.7,0.7
					c-0.1,0.1-0.3,0-0.3-0.1v-0.7C222.7,202.3,222.8,202.1,223,202z"/>
				<g id="XMLID_411_">
					<path id="XMLID_414_" class="st9" d="M227,200.5h-0.3l-0.6-0.2c-0.1-0.1-0.6-0.1-0.7,0l0,0h-0.1v0.1l0,0c0,0.1,0,0.1,0.1,0.2
						l0.6,0.2c0.1,0.1,0.6,0.1,0.7,0c0.1,0,0.1-0.1,0.1-0.1l0,0v-0.2H227z"/>
					<path id="XMLID_413_" class="st10" d="M227,200.5h-0.3l-0.6-0.2c-0.1-0.1-0.6-0.1-0.7,0l0,0h-0.1v0.1l0,0c0,0.1,0,0.1,0.1,0.2
						l0.6,0.2c0.1,0.1,0.6,0.1,0.7,0c0.1,0,0.1-0.1,0.1-0.1l0,0v-0.2H227z"/>
					<path id="XMLID_412_" class="st9" d="M225.5,200.1c-0.1,0.1-0.1,0.2,0,0.3l0.6,0.2c0.1,0.1,0.6,0.1,0.7,0
						c0.1-0.1,0.1-0.2,0-0.3l-0.6-0.2C226,200,225.7,200,225.5,200.1z"/>
				</g>
				<g id="XMLID_407_">
					<path id="XMLID_410_" class="st9" d="M218.9,203.8l-0.3-0.1l-0.7-0.3c-0.3-0.1-0.9-0.1-1,0l0,0h-0.1v0.2l0,0
						c0,0.1,0.1,0.2,0.3,0.2l0.9,0.3c0.3,0.1,0.9,0.1,1.2,0c0.1-0.1,0.1-0.1,0.1-0.2l0,0v-0.1L218.9,203.8L218.9,203.8z"/>
					<path id="XMLID_409_" class="st10" d="M218.9,203.8l-0.3-0.1l-0.7-0.3c-0.3-0.1-0.9-0.1-1,0l0,0h-0.1v0.2l0,0
						c0,0.1,0.1,0.2,0.3,0.2l0.9,0.3c0.3,0.1,0.9,0.1,1.2,0c0.1-0.1,0.1-0.1,0.1-0.2l0,0v-0.1L218.9,203.8L218.9,203.8z"/>
					<path id="XMLID_408_" class="st9" d="M216.6,203.2c-0.3,0.1-0.3,0.3,0,0.4l0.9,0.3c0.3,0.1,0.9,0.1,1.2,0s0.3-0.3,0-0.4
						l-0.9-0.3C217.5,203.1,216.9,203.1,216.6,203.2z"/>
				</g>
				<g id="XMLID_402_">
					<path id="XMLID_406_" class="st9" d="M229.1,199.3c-0.6-0.2-1.6-0.2-2.2,0h-0.4v0.4c0,0.2,0.1,0.3,0.4,0.4
						c0.6,0.2,1.6,0.2,2.2,0c0.3-0.1,0.4-0.3,0.4-0.4v-0.4H229.1z"/>
					<path id="XMLID_405_" class="st14" d="M229.1,199.3c-0.6-0.2-1.6-0.2-2.2,0h-0.4v0.4c0,0.2,0.1,0.3,0.4,0.4
						c0.6,0.2,1.6,0.2,2.2,0c0.3-0.1,0.4-0.3,0.4-0.4v-0.4H229.1z"/>
					<path id="XMLID_404_" class="st9" d="M226.9,198.8c-0.6,0.2-0.6,0.6,0,0.9c0.6,0.2,1.6,0.2,2.2,0c0.6-0.2,0.6-0.6,0-0.9
						C228.5,198.6,227.5,198.6,226.9,198.8z"/>
					<path id="XMLID_403_" class="st10" d="M226.9,198.8c-0.6,0.2-0.6,0.6,0,0.9c0.6,0.2,1.6,0.2,2.2,0c0.6-0.2,0.6-0.6,0-0.9
						C228.5,198.6,227.5,198.6,226.9,198.8z"/>
				</g>
				<path id="XMLID_401_" class="st9" d="M224.7,199.8c-0.1-0.1-0.4-0.1-0.6,0H224v0.1c0,0,0,0.1,0.1,0.1c0.1,0.1,0.4,0.1,0.6,0
					c0.1,0,0.1-0.1,0.1-0.1L224.7,199.8L224.7,199.8z"/>
				<path id="XMLID_400_" class="st10" d="M224.7,199.8c-0.1-0.1-0.4-0.1-0.6,0H224v0.1c0,0,0,0.1,0.1,0.1c0.1,0.1,0.4,0.1,0.6,0
					c0.1,0,0.1-0.1,0.1-0.1L224.7,199.8L224.7,199.8z"/>
				<path id="XMLID_399_" class="st9" d="M226,199.4v-0.1h-0.1c-0.1-0.1-0.4-0.1-0.6,0h-0.1v0.1c0,0,0,0.1,0.1,0.1
					c0.1,0.1,0.4,0.1,0.6,0C226,199.5,226,199.5,226,199.4z"/>
				<path id="XMLID_398_" class="st10" d="M226,199.4v-0.1h-0.1c-0.1-0.1-0.4-0.1-0.6,0h-0.1v0.1c0,0,0,0.1,0.1,0.1
					c0.1,0.1,0.4,0.1,0.6,0C226,199.5,226,199.5,226,199.4z"/>
				<path id="XMLID_397_" class="st9" d="M224,199.7c-0.1,0.1-0.1,0.2,0,0.2c0.1,0.1,0.4,0.1,0.6,0c0.1-0.1,0.1-0.2,0-0.2
					C224.4,199.6,224.3,199.6,224,199.7z"/>
				<ellipse id="XMLID_396_" class="st9" cx="225.6" cy="199.3" rx="0.4" ry="0.2"/>
				<g id="XMLID_383_">
					<g id="XMLID_390_">
						<path id="XMLID_395_" class="st3" d="M229.9,204.3c0.1-0.2,0.1-0.3,0.1-0.5c0-0.1,0-0.3-0.1-0.3l0.4-0.6
							c0.3,0.1,0.3,0.3,0.3,0.6s-0.1,0.6-0.4,1L229.9,204.3z"/>
						<path id="XMLID_394_" class="st3" d="M228.8,205.4c-0.1,0-0.1,0-0.3,0l0.4-0.6h0.1c0.1,0,0.3,0,0.3-0.1
							c0.1-0.1,0.3-0.2,0.4-0.3l0.4,0.2c-0.3,0.3-0.6,0.6-1,0.7C229.1,205.4,228.9,205.4,228.8,205.4z"/>
						<path id="XMLID_393_" class="st3" d="M228.4,205.4c-0.3-0.1-0.3-0.3-0.3-0.6s0.1-0.6,0.4-1l0.4,0.2c-0.1,0.2-0.1,0.3-0.1,0.5
							c0,0.1,0,0.3,0.1,0.3L228.4,205.4z"/>
						<path id="XMLID_392_" class="st3" d="M230.1,203.9c0,0.1-0.1,0.3-0.1,0.4c-0.1,0.1-0.3,0.3-0.4,0.3c-0.1,0.1-0.3,0.1-0.4,0
							c-0.1,0-0.1-0.1-0.1-0.3c0-0.1,0.1-0.3,0.1-0.4c0.1-0.1,0.3-0.3,0.4-0.3c0.1-0.1,0.3-0.1,0.4,0
							C229.9,203.7,230.1,203.8,230.1,203.9z"/>
						<path id="XMLID_391_" class="st3" d="M228.5,203.7c0.3-0.3,0.6-0.6,1-0.7c0.3-0.1,0.4-0.1,0.6-0.1c0.1,0,0.1,0,0.3,0l-0.4,0.6
							h-0.1c-0.1,0-0.3,0-0.3,0.1c-0.1,0.1-0.3,0.2-0.4,0.3L228.5,203.7z"/>
					</g>
					<g id="XMLID_387_">
						<path id="XMLID_389_" class="st3" d="M228.1,206.3l0.3-0.1c0,0,0.1,0,0.1,0.1v0.3c0,0.1,0,0.1-0.1,0.2l-0.3,0.1
							c0,0-0.1,0-0.1-0.1v-0.3C227.9,206.4,227.9,206.3,228.1,206.3z"/>
						<path id="XMLID_388_" class="st3" d="M230.4,205.3l0.3-0.1c0,0,0.1,0,0.1,0.1v0.3c0,0.1,0,0.1-0.1,0.2l-0.3,0.1
							c0,0-0.1,0-0.1-0.1v-0.3C230.2,205.4,230.4,205.4,230.4,205.3z"/>
					</g>
					<g id="XMLID_384_">
						<path id="XMLID_386_" class="st3" d="M228.1,202.4l0.3-0.1c0,0,0.1,0,0.1,0.1v0.3c0,0.1,0,0.1-0.1,0.2l-0.3,0.1
							c0,0-0.1,0-0.1-0.1v-0.3C227.9,202.5,227.9,202.4,228.1,202.4z"/>
						<path id="XMLID_385_" class="st3" d="M230.4,201.4l0.3-0.1c0,0,0.1,0,0.1,0.1v0.3c0,0.1,0,0.1-0.1,0.2l-0.3,0.1
							c0,0-0.1,0-0.1-0.1v-0.3C230.2,201.5,230.4,201.4,230.4,201.4z"/>
					</g>
				</g>
				<g id="XMLID_377_">
					<path id="XMLID_382_" class="st13" d="M226.8,203.3v3.8c0,0.2-0.1,0.4-0.4,0.5l-6.5,2.7c-0.1,0.1-0.4,0-0.4-0.2v-3.8
						c0-0.2,0.1-0.4,0.4-0.5l6.5-2.7C226.6,203.1,226.8,203.2,226.8,203.3z"/>
					<g id="XMLID_381_">
						<path class="st9" d="M220.1,206.7L220.1,206.7l-0.1-0.5l0,0l0.6-0.2h0.1v0.1l-0.6,0.2V206.7
							C220.2,206.7,220.2,206.7,220.1,206.7z"/>
					</g>
					<g id="XMLID_380_">
						<path class="st9" d="M220.1,209.7L220.1,209.7L220.1,209.7l-0.1-0.5c0,0,0-0.1,0.1-0.1c0,0,0.1,0,0.1,0.1v0.4l0.4-0.2h0.1v0.1
							L220.1,209.7C220.2,209.7,220.1,209.7,220.1,209.7z"/>
					</g>
					<g id="XMLID_379_">
						<path class="st9" d="M226.2,204.3L226.2,204.3l-0.1-0.4l-0.4,0.2h-0.1V204l0.6-0.2c0,0,0,0,0.1,0l0,0L226.2,204.3
							C226.3,204.3,226.2,204.3,226.2,204.3z"/>
					</g>
					<g id="XMLID_378_">
						<path class="st9" d="M225.6,207.4L225.6,207.4C225.5,207.4,225.5,207.3,225.6,207.4l0.6-0.3v-0.5c0,0,0-0.1,0.1-0.1
							s0.1,0,0.1,0.1v0.5l0,0L225.6,207.4L225.6,207.4z"/>
					</g>
				</g>
				<g id="XMLID_363_">
					<g id="XMLID_371_">
						<path id="XMLID_376_" class="st9" d="M230.1,204.4c0.1-0.2,0.1-0.3,0.1-0.5c0-0.1,0-0.3-0.1-0.3l0.4-0.6
							c0.3,0.1,0.3,0.3,0.3,0.6s-0.1,0.6-0.4,1L230.1,204.4z"/>
						<path id="XMLID_375_" class="st9" d="M228.8,205.5c-0.1,0-0.1,0-0.3,0l0.4-0.6h0.1c0.1,0,0.3,0,0.3-0.1
							c0.1-0.1,0.3-0.2,0.4-0.3l0.4,0.2c-0.3,0.3-0.6,0.6-1,0.7C229.2,205.4,229.1,205.5,228.8,205.5z"/>
						<path id="XMLID_374_" class="st9" d="M228.4,205.4c-0.3-0.1-0.3-0.3-0.3-0.6s0.1-0.6,0.4-1l0.4,0.2c-0.1,0.2-0.1,0.3-0.1,0.5
							c0,0.1,0,0.3,0.1,0.3L228.4,205.4z"/>
						<path id="XMLID_373_" class="st9" d="M230.1,203.9c0,0.1-0.1,0.3-0.1,0.4c-0.1,0.1-0.3,0.3-0.4,0.3c-0.1,0.1-0.3,0.1-0.4,0
							c-0.1,0-0.1-0.1-0.1-0.3c0-0.1,0.1-0.3,0.1-0.4c0.1-0.1,0.3-0.3,0.4-0.3c0.1-0.1,0.3-0.1,0.4,0
							C230.1,203.7,230.1,203.8,230.1,203.9z"/>
						<path id="XMLID_372_" class="st9" d="M228.5,203.8c0.3-0.3,0.6-0.6,1-0.7c0.3-0.1,0.4-0.1,0.6-0.1c0.1,0,0.1,0,0.3,0l-0.4,0.6
							h-0.1c-0.1,0-0.3,0-0.3,0.1c-0.1,0.1-0.3,0.2-0.4,0.3L228.5,203.8z"/>
					</g>
					<g id="XMLID_368_">
						<path id="XMLID_370_" class="st9" d="M228.1,206.4l0.3-0.1c0,0,0.1,0,0.1,0.1v0.3c0,0.1,0,0.1-0.1,0.2l-0.3,0.1
							c0,0-0.1,0-0.1-0.1v-0.3C228.1,206.4,228.1,206.4,228.1,206.4z"/>
						<path id="XMLID_369_" class="st9" d="M230.5,205.4l0.3-0.1c0,0,0.1,0,0.1,0.1v0.3c0,0.1,0,0.1-0.1,0.2l-0.3,0.1
							c0,0-0.1,0-0.1-0.1v-0.3C230.4,205.5,230.5,205.4,230.5,205.4z"/>
					</g>
					<g id="XMLID_364_">
						<path id="XMLID_367_" class="st9" d="M228.1,202.4l0.3-0.1c0,0,0.1,0,0.1,0.1v0.3c0,0.1,0,0.1-0.1,0.2l-0.3,0.1
							c0,0-0.1,0-0.1-0.1v-0.3C228.1,202.5,228.1,202.4,228.1,202.4z"/>
						<path id="XMLID_366_" class="st9" d="M230.5,201.4l0.3-0.1c0,0,0.1,0,0.1,0.1v0.3c0,0.1,0,0.1-0.1,0.2l-0.3,0.1
							c0,0-0.1,0-0.1-0.1v-0.3C230.4,201.5,230.5,201.5,230.5,201.4z"/>
					</g>
				</g>
			</g>
		</g>
	</g>
</g>
<g id="Lights_3_">
	<g id="Lights_6_">
		<g id="Tripod_6_">
			<path class="st2" d="M242.3,142.8c0-0.1-0.1-0.2-0.3-0.2c-0.3-0.1-0.9-0.1-1.2,0c-0.1,0.1-0.3,0.2-0.3,0.2l15.9,17.3l0,0
				c0,0.1,0,0.1,0.1,0.2c0.3,0.1,0.6,0.1,0.9,0c0.1,0,0.1-0.1,0.1-0.2l0,0L242.3,142.8z"/>
			<path class="st2" d="M222.7,160L222.7,160c0,0.1,0,0.1,0.1,0.2c0.3,0.1,0.6,0.1,0.9,0c0.1,0,0.1-0.1,0.1-0.2l0,0l15.9-17.3
				c0-0.1-0.1-0.2-0.3-0.2c-0.3-0.1-0.9-0.1-1.2,0c-0.1,0.1-0.3,0.2-0.3,0.2L222.7,160z"/>
			<path class="st2" d="M240.8,142.8c-0.4-0.1-1-0.1-1.3,0c-0.1,0.1-0.3,0.2-0.3,0.3l0.3,23.5l0,0c0,0.1,0,0.1,0.1,0.2
				c0.3,0.1,0.7,0.1,0.9,0c0.1-0.1,0.1-0.1,0.1-0.2l0,0l0.3-23.5C241.1,143,241.1,142.9,240.8,142.8z"/>
			<g id="XMLID_252_">
				<g id="XMLID_256_">
					<path id="XMLID_257_" class="st2" d="M244.9,142.4c-0.3-0.3-0.6-0.5-1.2-0.8c-1.9-0.8-5.1-0.8-7,0c-0.6,0.2-0.9,0.5-1.2,0.8
						h-0.3v0.7l0,0c0,0.5,0.6,1,1.4,1.3c1.9,0.8,5.1,0.8,7,0c0.9-0.4,1.4-0.8,1.4-1.3l0,0L244.9,142.4L244.9,142.4z"/>
				</g>
				<g id="XMLID_253_">
					<path id="XMLID_254_" class="st4" d="M243.7,141c-1.9-0.8-5.1-0.8-7,0s-1.9,2,0,2.9s5.1,0.8,7,0
						C245.6,143.1,245.6,141.8,243.7,141z"/>
				</g>
			</g>
			<path class="st3" d="M241.4,142.3V88.1h-2.3v54.2c0,0.1,0.1,0.2,0.3,0.3c0.4,0.2,1.2,0.2,1.6,0
				C241.2,142.5,241.4,142.4,241.4,142.3z"/>
			<g>
				<polygon class="st2" points="239.9,159.6 252.1,154.4 252.5,154.8 240.3,160 				"/>
			</g>
			<g>
				<polygon class="st2" points="227.8,154.8 228.2,154.4 240.3,159.5 240,160 				"/>
			</g>
		</g>
		<g>
			<polygon class="st2" points="211.3,93.8 254.7,111.4 254.7,76.1 211.3,58.5 			"/>
			<polygon class="st15" points="212.7,93.2 212.7,60.2 253.3,76.6 253.3,109.7 			"/>
			<polygon class="st4" points="254.7,76.1 257.6,74.9 214.2,57.2 211.3,58.5 			"/>
			<polygon class="st2" points="257.6,74.9 257.6,110.2 254.7,111.4 254.7,76.1 			"/>
			<polygon class="st3" points="263.4,72.5 257.6,74.9 257.6,110.2 263.4,91.4 			"/>
			<polygon class="st2" points="214.2,57.2 240.2,63.2 263.4,72.5 257.6,74.9 			"/>
			<polygon class="st3" points="254.7,76.1 255.2,111.2 254.7,111.4 			"/>
		</g>
	</g>
	<g id="Lights_5_">
		<g id="Tripod_5_">
			<path class="st2" d="M49.6,240.8c0-0.1-0.1-0.2-0.3-0.2c-0.3-0.1-0.9-0.1-1.2,0c-0.1,0.1-0.3,0.2-0.3,0.2l15.9,17.3l0,0
				c0,0.1,0,0.1,0.1,0.2c0.3,0.1,0.6,0.1,0.9,0c0.1,0,0.1-0.1,0.1-0.2l0,0L49.6,240.8z"/>
			<path class="st2" d="M30,258.1L30,258.1c0,0.1,0,0.1,0.1,0.2c0.3,0.1,0.6,0.1,0.9,0c0.1,0,0.1-0.1,0.1-0.2l0,0L47,240.8
				c0-0.1-0.1-0.2-0.3-0.2c-0.3-0.1-0.9-0.1-1.2,0c-0.1,0.1-0.3,0.2-0.3,0.2L30,258.1z"/>
			<path class="st2" d="M48.1,240.9c-0.4-0.1-1-0.1-1.3,0c-0.1,0.1-0.3,0.2-0.3,0.3l0.3,23.5l0,0c0,0.1,0,0.1,0.1,0.2
				c0.3,0.1,0.7,0.1,0.9,0c0.1-0.1,0.1-0.1,0.1-0.2l0,0l0.3-23.5C48.4,241,48.2,241,48.1,240.9z"/>
			<g id="XMLID_246_">
				<g id="XMLID_250_">
					<path id="XMLID_251_" class="st2" d="M52.2,240.5c-0.3-0.3-0.6-0.5-1.2-0.8c-1.9-0.8-5.1-0.8-7,0c-0.6,0.2-0.9,0.5-1.2,0.8
						h-0.3v0.7l0,0c0,0.5,0.6,1,1.4,1.3c1.9,0.8,5.1,0.8,7,0c0.9-0.4,1.4-0.8,1.4-1.3l0,0v-0.7H52.2z"/>
				</g>
				<g id="XMLID_247_">
					<path id="XMLID_248_" class="st4" d="M51,239.1c-1.9-0.8-5.1-0.8-7,0s-1.9,2,0,2.9c1.9,0.8,5.1,0.8,7,0
						C52.9,241.1,52.9,239.9,51,239.1z"/>
				</g>
			</g>
			<path class="st3" d="M48.5,240.3v-34.6h-2.3v34.6c0,0.1,0.1,0.2,0.3,0.3c0.4,0.2,1.2,0.2,1.6,0C48.5,240.6,48.5,240.4,48.5,240.3
				z"/>
			<g>
				<polygon class="st2" points="35.1,252.8 35.5,252.4 47.7,257.6 47.3,258 				"/>
			</g>
			<g>
				<polygon class="st2" points="47.2,257.6 59.3,252.5 59.7,252.9 47.6,258.1 				"/>
			</g>
		</g>
		<g>
			<polygon class="st2" points="70.6,193.9 76.4,219.8 41.6,205.7 35.8,179.8 			"/>
			<polygon class="st3" points="76.4,219.9 50.3,206.9 44.5,204.6 41.6,205.7 			"/>
			<g>
				<polygon class="st3" points="37.2,207.5 43,209.9 43,205.1 37.2,202.7 				"/>
				<polygon class="st2" points="50.3,202.1 43,205.1 43,209.9 50.3,206.9 				"/>
				<polygon class="st4" points="44.5,199.8 37.2,202.7 43,205.1 50.3,202.1 				"/>
			</g>
			<polygon class="st4" points="70.6,194 50.3,202.1 44.5,199.8 35.8,179.8 			"/>
			<polygon class="st3" points="44.5,199.8 50.3,202.1 50.3,206.9 51,201.9 			"/>
		</g>
	</g>
	<g id="Lights_2_">
		<g id="Tripod_3_">
			<path class="st2" d="M165.5,258.4L165.5,258.4c0,0.1,0,0.1,0.1,0.2c0.3,0.1,0.6,0.1,0.9,0c0.1,0,0.1-0.1,0.1-0.2l0,0l13.8-13.6
				c0-0.1-0.1-0.2-0.3-0.2c-0.3-0.1-0.9-0.1-1.2,0c-0.1,0.1-0.3,0.2-0.3,0.2L165.5,258.4z"/>
			<path class="st2" d="M183,244.7c0-0.1-0.1-0.2-0.3-0.2c-0.3-0.1-0.9-0.1-1.2,0c-0.1,0.1-0.3,0.2-0.3,0.2l13.8,13.6l0,0
				c0,0.1,0,0.1,0.1,0.2c0.3,0.1,0.6,0.1,0.9,0c0.1,0,0.1-0.1,0.1-0.2l0,0L183,244.7z"/>
			<path class="st2" d="M180,245l0.3,19.8l0,0c0,0.1,0,0.1,0.1,0.2c0.3,0.1,0.7,0.1,0.9,0c0.1-0.1,0.1-0.1,0.1-0.2l0,0l0.3-19.8
				c0-0.1-0.1-0.2-0.3-0.3c-0.4-0.1-1-0.1-1.3,0C180,244.8,180,244.9,180,245z"/>
			<g id="XMLID_240_">
				<g id="XMLID_244_">
					<path id="XMLID_245_" class="st2" d="M176.2,244.4c0.3-0.3,0.6-0.5,1.2-0.8c1.9-0.8,5.1-0.8,7,0c0.6,0.2,0.9,0.5,1.2,0.8h0.3
						v0.7l0,0c0,0.5-0.6,1-1.4,1.3c-1.9,0.8-5.1,0.8-7,0c-0.9-0.4-1.4-0.8-1.4-1.3l0,0L176.2,244.4L176.2,244.4z"/>
				</g>
				<g id="XMLID_241_">
					<path id="XMLID_242_" class="st4" d="M177.3,245.8c1.9,0.8,5.1,0.8,7,0s1.9-2,0-2.9c-1.9-0.8-5.1-0.8-7,0
						C175.5,243.7,175.5,245,177.3,245.8z"/>
				</g>
			</g>
			<path class="st3" d="M179.7,244.2v-28.8h2.3v28.8c0,0.1-0.1,0.2-0.3,0.3c-0.4,0.2-1.2,0.2-1.6,0
				C179.8,244.4,179.7,244.3,179.7,244.2z"/>
			<g>
				<polygon class="st2" points="181,258.3 180.5,257.9 190.8,253.5 191.1,253.9 				"/>
			</g>
			<g>
				<polygon class="st2" points="170.5,253.8 170.9,253.4 181.1,257.9 180.8,258.3 				"/>
			</g>
		</g>
		<g>
			<polygon class="st2" points="159.7,210.8 153.9,236.7 188.7,222.5 194.4,196.6 			"/>
			<polygon class="st3" points="153.9,236.7 176,224.7 185.9,221.4 188.8,222.5 			"/>
			<g>
				<polygon class="st3" points="187.1,226.1 181.3,228.6 181.4,223.8 187.1,221.4 				"/>
				<polygon class="st2" points="176,220 181.4,223.8 181.3,228.6 176,224.7 				"/>
				<polygon class="st4" points="181.8,217.6 187.1,221.4 181.4,223.8 176,220 				"/>
			</g>
			<polygon class="st4" points="159.7,210.8 176,220 181.8,217.6 194.4,196.7 			"/>
			<polygon class="st3" points="181.8,217.6 176,220 176,224.7 175.5,219.8 			"/>
		</g>
	</g>
</g>
<g id="Chair">
</g>
<g id="Character_2">
	<g id="Model_2_">
		<g id="Bottom_3_">
			<g id="Character_2_">
				<g id="XMLID_342_">
					<path id="XMLID_343_" class="st2" d="M125.9,199.1c-0.4,1.3-0.6,1.9-0.9,3.6c-0.3,1.3-0.4,2.3-1,4.7c-0.6,2.1-0.9,3.8,1.2,5.3
						c1.9,1.4,5.2,1.9,6.2,0.3c1.3-1.8,1-4.8,0.9-6.6s-0.1-2.3-0.1-3.9c0-1.3-0.1-1.8-0.1-3C130,199.6,127.9,199.2,125.9,199.1z"/>
					<g>
						<path class="st3" d="M148.1,205.9l0.7-0.1c0-1.5-0.1-3,0.4-3.7l-1-1.8L148.1,205.9z"/>
						<path class="st3" d="M146.3,199.1c0.1,1,1,2.1,1,4.2c0,2-0.1,2.7-0.1,2.7l0.7,0.1l0.1-5.6L146.3,199.1z"/>
						<path class="st3" d="M162.7,207.3c0,0,0,0.6-0.4,0.8s-1.2,0.8-4.9,0.6c-3.8-0.2-5.1-0.8-6.4-1.6c-1.3-0.8-1.6-3.1-1.9-4.1
							c-0.4-2-1.6-3.1-2.6-4.1c-0.3-0.5-0.1-1-0.1-1s3.2-0.1,4.5,2.3c1.3,2.5,2.5,5.3,5.5,6C159.4,206.9,162.7,207.3,162.7,207.3z"
							/>
						<path class="st16" d="M125.9,199.1c0-1.7,0-4-0.3-7c-0.3-3.6-0.3-6.3-0.3-10.1c0-2.9,0.3-5.4,1.6-10.8
							c-1.4-10.9-2-22.3-0.3-26.4c1.6-3.6,3.2-4.8,4.6-6.5c0.7-0.9,2-2.2,2-3.5c0,0,4.9,1.5,11.3,1.5c7.2,0,8.4-1,8.4-1
							s4.6,26.2,3.9,34.9c-0.4,5.1-1,12.8-1.2,16.4c-0.1,2.9-0.6,6.6-0.6,8.2c0,1.3,0.4,2.5,1.2,4.1c0.7,1.4,1.4,2.8,2.3,4.1
							c0.3,0.3,0.4,0.7,0.9,1c0.4,0.4,0.9,0.6,1.6,1.1c1.2,0.7,1.7,1,1.6,1.7c-0.1,0.6-0.7,0.9-1.6,1.1c-1.9,0.4-3.9,0.2-5.8,0
							c-1.9-0.2-3.9-0.8-4.8-2.1c-0.3-0.4-0.3-0.7-0.4-1.1c-0.3-1.3-0.7-2.7-1.4-3.8c-0.3-0.5-0.6-1-1-1.5s-1.2-1-1.2-1.6
							c-0.1-0.5,0.4-1.2,1.3-2l0,0c0.6-0.7,0.4-1.1,0.3-3.3c-0.4-4.7-1.9-8-2.9-13.7c-0.6-2.9-0.4-5.1,0.3-8.2
							c-0.7-3.7-2-7.6-2.9-10.1c-1.3,5.3-2,7.4-2.8,11.3c-1,5.6-5.5,17.4-6.1,20.4c-0.7,3.1-1.2,5-1.4,7.6c-0.3,2.1-0.6,6.4-0.9,8.4
							c-0.6,3.2-5.2,2.1-5.9-0.6C124.8,205.4,125.8,201.5,125.9,199.1z"/>
						<path class="st2" d="M146.6,196.4c0.6-0.7,1-0.8,1.6-1.4c0.6,0.3,1,0.9,1.2,1.4c0.3,0.5,0.9,3.2,1.7,5.3
							c0.7,1.5,1.9,2.5,3.5,2.9c1,0.3,2,0.3,3.2,0.2l0,0c2-0.2,1.4-1.2,1.4-1.2c0.4,0.4,2.3,1.5,3.5,2.3c0.6,0.4,0.3,1.1-0.1,1.5
							c-0.6,0.3-1.9,1-6.5,0.5c-4.2-0.4-5.2-1.8-5.5-2.5c-0.3-0.5-0.6-1.4-0.9-2.8c-0.3-1-0.7-2-1.4-3c-0.1-0.1-0.1-0.2-0.3-0.3l0,0
							l0,0c-0.3-0.3-0.6-0.6-1-0.9c-0.3-0.2-0.6-0.4-0.6-0.6C146.1,197.4,146.1,197,146.6,196.4z"/>
					</g>
				</g>
			</g>
			<g id="XMLID_334_">
				<path id="XMLID_341_" class="st17" d="M132.4,136.6c-2.9,2.3-5.5,4.6-7.1,9.7c-1,2.9-1.3,10.8-7.8,17.9c-2,2.1-5.1,4.6-9.6,5.7
					c0,0,0.1,5.1,8,4.6c0,0,1.9,5.4,10.4,3.6c0,0,3.8,5.9,11.2,2.9c0,0,3.8,3.7,11,0.6c0,0,5.2,1.9,9.1-1.3c0,0,7.2,0.7,8.7-3.3
					c0,0,5.8,1,8.4-4.1c0,0-6.4-2.5-9-8.7c-2.5-6.2-6.2-20.1-11.9-27.1L132.4,136.6z"/>
				<path id="XMLID_340_" class="st7" d="M171.4,176.2L171.4,176.2c-2.3-0.3-5.2-2.1-7.5-5.1c-2.5-3.3-3.9-10.8-4.6-14.6
					c-0.7-3.7-2.5-6.4-2.5-6.4c1.4,2.6,1.6,11.4,3,16.6s6.4,10.3,6.4,10.3S168.8,177.4,171.4,176.2z"/>
				<path id="XMLID_339_" class="st7" d="M163.9,179.4L163.9,179.4c0,0-2.6,0.8-5.7-2.9c-3-3.7-3.9-13.2-5.1-21.1
					c-1.2-8.4-3.2-11-3.2-11c1.9,5.8,3.2,20.7,3.3,23.7s2,9.5,4.2,12.3C157.5,180.3,161.3,180.7,163.9,179.4z"/>
				<path id="XMLID_338_" class="st7" d="M152.6,182.1c-3-1.6-5.2-9.8-5.1-14.5c0.1-4.7-0.9-8.2-0.9-8.2c0.3,3-0.4,7-0.1,12.8
					s2,9.4,2,9.4S150.3,182.3,152.6,182.1z"/>
				<path id="XMLID_337_" class="st7" d="M141.6,149.5c0,0,0.3,4.2-2.3,12.6c-1.7,5.6-2.8,10.3-3.8,15.9c-0.4,2.9-2.6,3.7-4.3,3.6
					c1.6,0.4,3.8,0.4,6.2-0.6c0,0,0.9-5.9,1.3-10.7C139.2,164.2,142.1,157.4,141.6,149.5z"/>
				<path id="XMLID_336_" class="st7" d="M134,158.1c0,0-1.7,4.8-4.2,8.2s-4.2,8.4-5.9,10c-1.7,1.6-5.2,1.1-5.2,1.1l0,0
					c1.6,0.8,3.9,1.3,7.5,0.6c0,0,1.3-3.9,3.2-8C131.4,166,133.3,163.1,134,158.1z"/>
				<path id="XMLID_335_" class="st7" d="M122.9,167.1c3-4.5,3.9-8.3,3.9-8.3s-2,5.8-7.7,10.6c-5.7,4.9-9.6,3.3-9.6,3.3l0,0
					c1.2,1,3,1.8,6.5,1.6C115.9,174.5,119.8,171.6,122.9,167.1z"/>
			</g>
		</g>
		<g id="Top_3_">
			<path class="st3" d="M150.4,99.2c0,0,2.2-0.5,4.1,0.7c1.7,1.2,2.8,4,1.4,6.5c-1.3,2.5-2.8,4.6-1.3,5.2c1.7,0.7,2.5-0.5,2.5-0.5
				s0.7,1-0.3,1.8c-1,0.9-2.9,0.5-2.9,0.5s6.1,5.3-0.3,11.2c-3.3,3.1-19.6,4.7-26.4,1c-6.5-3.6-3-8.3,0.1-11c3.6-3.2,1.7-6.3,1.6-8
				c-0.3-3.1,1-5.1,4.1-5.5c0,0,0.3-2.8,4.3-3.8C141.6,96.7,147.9,97,150.4,99.2z"/>
			<g>
				<path class="st16" d="M179.5,109.9c-0.3-1.1-1.3-1.5-1.4-2.2c-0.1-0.6-1-1.3-1.4-0.6c-0.4,0.7-2.2,3.9-3.8,4.9
					c-0.7,0.4-1,0.4-1,0.3c-0.1-0.2,0-0.7,0-0.9c0-0.4,0-2-1-2.3s-0.9,0.4-1.2,1.6c-0.1,0.7-0.6,1.4-0.9,2.2
					c-0.1,0.4-0.3,0.8-0.3,1.2c0,0.3,0,0.6,0,0.9c0.1,0.6,0.3,1.2,0.3,1.8c0,0.4-0.1,0.8-0.1,1.2l-3,6.7c0,0-10-5.7-12.9-7
					c-1.7-0.8-3.8-0.5-7-0.5c-0.6,1.6,2.5,6.7,6.1,8.5c5.7,2.7,12.5,5.9,15.8,6.2c2,0.2,4.5-0.3,5.4-4.1c0.7-3.1,1.2-7.8,1.7-9.4
					c0.6-1.6,3.2-3.9,4.1-5.1C179.7,112,179.8,111.1,179.5,109.9z"/>
				<path class="st18" d="M175,113.3c-2.5,0.1-3.6,1.7-3.6,3c0,0-0.7-1.2,0.7-2.5C172.9,113.3,174.2,113.1,175,113.3L175,113.3z"/>
				<path class="st18" d="M165.6,124.9c-0.9,1.2-0.6,2.9-0.3,3.5c0,0-1.7-1.7-0.4-3.9L165.6,124.9z"/>
			</g>
			<g id="XMLID_223_">
				<path id="XMLID_333_" class="st17" d="M136.9,117.5l-4.8,0.2c0,0-1.4,0.3-2,0.5c-2,0.8-2.2,2.2-2.2,4c0,1.9,0.3,3.5,2.9,6.4
					l2.5,3.7c0,0,0,1.7,0,2.6c0.9,2.8,15.9,4.9,20.1,1c0-2.3,0-4.8,0-4.8c3.9-3,2.9-5.9,1.3-7.9c-3-4-6.8-6.2-9.3-6L136.9,117.5z"/>
				<path id="XMLID_332_" class="st7" d="M136.5,137c0.4-0.6,0.6-1.3,0.4-1.9c-0.6-1.5-1.4-2.8-2.3-4.1c-0.6-0.8-1.2-1.7-1.3-3.5
					c-0.1-1.6,1.4-4,0.4-6.4c0-0.1-1.4-0.3-1.6-0.3c-0.7-0.2-1.3-0.4-2-0.5c-0.6-0.1-1.2-0.2-1.9-0.3c-0.4,0.7-0.4,1.6-0.4,2.6
					c0,1.9,0.3,3.5,2.9,6.4l2.5,3.7c0,0,0,1.7,0,2.6C133.6,135.8,134.8,136.4,136.5,137z"/>
				<g>
					<g id="XMLID_228_">
						<g id="XMLID_239_">
							<path id="XMLID_331_" class="st16" d="M150.5,102.2c0.9,0.9,2,1.9,1.9,6.8c-0.1,4.4-1.3,5.4-3,5.9c-1,0.3-2.9,0.2-4.8,0.1
								l0.1,2.1c0,0,4.6,2.8,0.3,3.1c-6.4,0.4-8.1-2.6-8.1-2.6l-0.3-5.6c0,0-1.4,0.5-3.2-0.5c-1.9-1-1.9-2.7-0.9-3.6
								c1-1,3.3-0.6,4.3,0.6c1.4,0.3,2-1.1,1.6-2.8c0,0,2.9-0.8,2.3-3.1C143.3,104,149.1,104.1,150.5,102.2z"/>
						</g>
						<g id="XMLID_237_">
							<path id="XMLID_238_" class="st18" d="M144.9,111.5l2.5,0.4c-0.1,0.5-0.9,0.8-1.4,0.7C145.2,112.4,144.7,111.9,144.9,111.5z"
								/>
						</g>
						<g id="XMLID_235_">
							<path id="XMLID_236_" class="st3" d="M151,106.1l-2-0.7c0.3-0.4,0.9-0.5,1.4-0.4C151,105.1,151.1,105.7,151,106.1z"/>
						</g>
						<g id="XMLID_233_">
							<path id="XMLID_234_" class="st3" d="M141,106.7l2-0.6c-0.3-0.4-0.9-0.6-1.4-0.4C141,105.8,140.7,106.3,141,106.7z"/>
						</g>
						<g id="XMLID_231_">
							<polygon id="XMLID_232_" class="st18" points="146.6,107.1 147.2,110.6 149.7,109.8 							"/>
						</g>
						<g id="XMLID_229_">
							<path id="XMLID_230_" class="st18" d="M144.6,115c-2-0.1-6.2-1.2-7.1-2.3c0,0,0.3,1.2,1.7,1.8c1.9,0.8,5.4,1.3,5.4,1.3
								L144.6,115L144.6,115z"/>
						</g>
					</g>
					<g id="XMLID_226_">
						<path id="XMLID_227_" class="st3" d="M148.9,107.5c0,0.3,0.3,0.7,0.9,0.7c0.4,0,1-0.2,1-0.5s-0.3-0.7-0.9-0.7
							C149.4,106.9,148.9,107.2,148.9,107.5z"/>
					</g>
					<g id="XMLID_224_">
						<path id="XMLID_225_" class="st3" d="M142.6,107.7c0,0.3,0.3,0.7,0.9,0.7c0.4,0,1-0.2,1-0.5s-0.3-0.7-0.9-0.7
							C143,107.1,142.6,107.3,142.6,107.7z"/>
					</g>
					<path class="st3" d="M142.9,107.3c-0.3,0.1-0.3,0.3-0.7,0.3c-0.3,0-0.3-0.2-0.3-0.2s-0.1,0.2,0.1,0.4c0.3,0.2,0.9,0.1,0.9,0.1
						V107.3z"/>
				</g>
			</g>
			<path id="XMLID_222_" class="st4" d="M133.3,134.2l-0.9,2.3c0,0,3,2.2,11.3,2.3s10.1-1.7,10.1-1.7l-0.3-2.8c0,0-1.7,1.5-9.3,1.4
				C136.8,135.9,133.3,134.2,133.3,134.2z"/>
			<path class="st16" d="M134.6,146.1c-2.3-0.7-3.8-1.6-3.8-1.6c1,0,1.9,0.1,2.5,0c1.2-0.2,1.4-0.8,1.3-1.1c0-0.2-0.9-0.1-2-0.4
				c-1.6-0.3-2.6-0.7-4.5-0.8c-0.7,0-1.2-0.4-1.7-0.7c-0.4-0.3-2.8-3.2-4.9-6.2l9.4-8.9c3.3-1.1,4.1-5.1,1.2-8.6
				c-6.2,0.1-5.9,1-18.8,14.9c-2.2,2.5-2.2,3.6,5.9,10.6c1.4,1.3,3.9,3.3,5.5,4.3c4.6,3.1,7.8,2.5,10,1.9
				C139,148.4,137.8,147,134.6,146.1z"/>
			<path class="st3" d="M150.1,107c0.3,0.1,0.4,0.2,0.9,0c0.3-0.1,0.1-0.3,0.1-0.3s0.3,0.1,0.1,0.4c-0.1,0.2-0.7,0.3-0.7,0.3
				L150.1,107z"/>
		</g>
	</g>
</g>
<g id="Character_1">
	<g id="Photographer_1_">
		<g id="Top_1_">
			<path class="st18" d="M270.5,159.7L254,162c0,0-6.8-8-7.7-9.8s-1-3-2.2-4.5s-5.8-2.2-5.8-2.2s-2.3,3-2.6,4.5c0,0,1.3,3,2.6,4.2
				s2.8,1.3,3.6,2.8c0.9,1.4,3.8,7.1,5.8,10.3c1.7,2.8,3.5,2.7,7.2,1.8c3.8-0.8,15.5-3,15.5-3L270.5,159.7L270.5,159.7z"/>
			<g id="Camera_2_">
				<g id="XMLID_183_">
					<path id="XMLID_184_" class="st9" d="M227.8,146.7L227.8,146.7L227.8,146.7c-0.7-0.3-1.4-0.2-2.3,0.1c-1.9,0.7-3.3,2.5-3.3,3.9
						c0,0.3,0,0.5,0.1,0.7c0.1,0.3,0.3,0.5,0.6,0.6l0.1,0.1l0,0l0,0l0,0l0,0l0.4,0.2c-0.1,0-0.1-0.1-0.3-0.1
						c-0.4-0.3-0.6-0.7-0.6-1.3c0-1.4,1.6-3.2,3.3-3.9c0.7-0.3,1.4-0.3,2-0.2c0.1,0,0.1,0,0.3,0.1L227.8,146.7z"/>
					<path class="st4" d="M222.1,151.4c-0.1-0.2-0.1-0.4-0.1-0.7c0-1.4,1.6-3.2,3.3-3.9c0.9-0.3,1.7-0.4,2.2-0.1l-1.2-0.5
						c-0.3-0.1-0.6-0.2-0.9-0.2c-0.4,0-0.9,0.1-1.4,0.3c-1.9,0.7-3.3,2.5-3.3,3.9c0,0.7,0.3,1.2,0.9,1.5l0,0l0,0l1.2,0.5l-0.1-0.1
						C222.4,151.9,222.3,151.7,222.1,151.4z M231.7,148.4L231.7,148.4l-3.5-1.4h-0.1l0,0c-0.1,0-0.1-0.1-0.3-0.1
						c-0.6-0.1-1.2-0.1-2,0.2c-1.9,0.7-3.3,2.5-3.3,3.9c0,0.6,0.1,1,0.6,1.3c0.1,0.1,0.1,0.1,0.3,0.1l0,0l3.5,1.5l0,0l0,0
						c0.3,0.1,0.6,0.2,0.9,0.2c0.4,0,0.9-0.1,1.4-0.3c1.9-0.7,3.3-2.5,3.3-3.9C232.7,149.1,232.3,148.6,231.7,148.4z"/>
					<g>
						<path class="st2" d="M230.7,153c-0.4,0.3-0.9,0.6-1.3,0.7c-0.6,0.2-1,0.3-1.4,0.3c-0.3,0-0.6-0.1-0.9-0.2l0,0l-3.5-1.5l0,0
							c-0.1,0-0.1-0.1-0.3-0.1c-0.4-0.3-0.6-0.7-0.6-1.3c0-0.4,0.1-0.8,0.3-1.2L230.7,153z"/>
						<path class="st2" d="M222.8,152.2l-1.2-0.5l0,0l0,0c-0.6-0.2-0.9-0.8-0.9-1.5c0-0.4,0.1-0.8,0.3-1.2l1.2,0.5
							c-0.1,0.4-0.3,0.8-0.3,1.2c0,0.3,0,0.5,0.1,0.7c0.1,0.3,0.3,0.5,0.6,0.6C222.7,152.1,222.8,152.1,222.8,152.2z"/>
					</g>
				</g>
				<g id="XMLID_38_">
					<path id="XMLID_96_" class="st3" d="M230.4,157.6c-0.7,0.2-1.7,0.1-2.3-0.1l-2.2-0.9c-0.7-0.3-1.2-1-1.2-1.5l0.1-4.2
						c0-0.1,0-0.2,0-0.3v-0.1l0,0v-0.1c0,0,0-0.1,0.1-0.1v-0.1v-0.1l0,0l4.6,2c-0.3,0.3-0.4,0.6-0.4,0.8l-0.1,4.2
						C229.4,157.5,229.8,157.7,230.4,157.6z"/>
					<path id="XMLID_95_" class="st2" d="M242.7,147.7l-0.1,4.2c0,0.6-0.6,1.2-1.3,1.5l-10.6,4.1l0,0l0,0l0,0l0,0
						c-0.6,0.1-1-0.1-1-0.6l0.1-4.2c0-0.3,0.1-0.6,0.4-0.8c0.3-0.3,0.6-0.5,0.9-0.6c1.2-0.5,2-1.3,2.3-2.2c0-0.1,0.1-0.3,0.3-0.4
						c0.1-0.1,0.3-0.2,0.4-0.3l2.3-0.9c0.1-0.1,0.3-0.1,0.4,0l0,0l0,0c0.1,0.1,0.1,0.1,0.3,0.2c0.3,0.5,1.3,0.8,2.2,0.5l2.3-0.9
						C242.1,147,242.7,147.2,242.7,147.7L242.7,147.7z"/>
					<path id="XMLID_94_" class="st12" d="M229.9,151.9c0.3-0.3,0.6-0.5,0.9-0.6c1.2-0.5,2-1.3,2.3-2.2c0-0.1,0.1-0.3,0.3-0.4
						c0.1-0.1,0.3-0.2,0.4-0.3l2.3-0.9c0,0-2,0.8-2.3,0.9c-0.3,0.1-0.6,0.4-0.6,0.7c-0.1,0.3-0.4,1.5-2.3,2.2
						C231,151.4,230.5,151.5,229.9,151.9z"/>
					<path id="XMLID_93_" class="st4" d="M231,147.5L231,147.5l-2.2-0.9c-0.1,0.1-0.1,0.3-0.3,0.4c-0.3,0.9-1.2,1.8-2.3,2.2
						c-0.3,0.1-0.7,0.4-0.9,0.6l4.6,2c0.3-0.3,0.6-0.5,0.9-0.6c1.2-0.5,2-1.3,2.3-2.2c0-0.1,0.1-0.3,0.3-0.4L231,147.5z"/>
					<path class="st2" d="M231,147.5L231,147.5l-2.2-0.9c-0.1,0.1-0.1,0.3-0.3,0.4c0,0.1,0,0.2-0.1,0.3c0,0,0,0,0,0.1
						s-0.1,0.2-0.1,0.3v0.1c0,0.1-0.1,0.1-0.1,0.2s-0.1,0.1-0.1,0.2l0,0c-0.1,0.1-0.1,0.2-0.3,0.3c-0.4,0.3-0.9,0.6-1.4,0.8
						c-0.3,0.1-0.7,0.4-0.9,0.6c0,0,0.4-0.4,1-0.6c0.3-0.1,1-0.4,1.4-0.8l4.5,1.9c0.4-0.4,0.7-0.9,0.9-1.4c0-0.1,0.1-0.3,0.3-0.4
						L231,147.5z"/>
					<path id="XMLID_92_" class="st4" d="M241.5,146.2l-2.2-0.9c-0.7-0.3-1.7-0.3-2.5,0l-2.3,0.9c-0.1,0.1-0.3,0.1-0.4,0.1l0,0l0,0
						l2.5,1.1l0,0l0,0c0.1,0.1,0.1,0.1,0.3,0.2c0.3,0.5,1.3,0.8,2.2,0.5l2.3-0.9c0.7-0.3,1.2-0.1,1.3,0.4
						C242.7,147.1,242.3,146.5,241.5,146.2z"/>
					<path id="XMLID_91_" class="st4" d="M234.1,146.3L234.1,146.3L234.1,146.3l-2-0.9l0,0c-0.1-0.1-0.3-0.1-0.4,0l-2.3,0.9
						c-0.1,0.1-0.3,0.2-0.4,0.3l2.2,0.9l0,0l2.5,1.1c0.1-0.1,0.3-0.2,0.4-0.3l2.3-0.9c0.1-0.1,0.3-0.1,0.4,0L234.1,146.3z"/>
					<path id="XMLID_90_" class="st9" d="M234.3,148.5l1.7-0.7c0.1-0.1,0.3,0,0.3,0.1v0.7c0,0.1-0.1,0.3-0.3,0.4l-1.7,0.7
						c-0.1,0.1-0.3,0-0.3-0.1v-0.7C234,148.7,234.1,148.6,234.3,148.5z"/>
					<g id="XMLID_86_">
						<path id="XMLID_89_" class="st9" d="M238.2,147.1h-0.3l-0.6-0.2c-0.1-0.1-0.6-0.1-0.7,0l0,0h-0.1v0.1l0,0c0,0.1,0,0.1,0.1,0.2
							l0.6,0.2c0.1,0.1,0.6,0.1,0.7,0c0.1,0,0.1-0.1,0.1-0.1l0,0L238.2,147.1z"/>
						<path id="XMLID_88_" class="st10" d="M238.2,147.1h-0.3l-0.6-0.2c-0.1-0.1-0.6-0.1-0.7,0l0,0h-0.1v0.1l0,0
							c0,0.1,0,0.1,0.1,0.2l0.6,0.2c0.1,0.1,0.6,0.1,0.7,0c0.1,0,0.1-0.1,0.1-0.1l0,0L238.2,147.1z"/>
						<path id="XMLID_87_" class="st9" d="M236.8,146.7c-0.1,0.1-0.1,0.2,0,0.3l0.6,0.2c0.1,0.1,0.6,0.1,0.7,0
							c0.1-0.1,0.1-0.2,0-0.3l-0.6-0.2C237.3,146.6,237,146.6,236.8,146.7z"/>
					</g>
					<g id="XMLID_82_">
						<path id="XMLID_85_" class="st9" d="M230.2,150.2l-0.3-0.1l-0.7-0.3c-0.3-0.1-0.7-0.2-1,0l0,0h-0.1v0.2l0,0
							c0,0.1,0.1,0.2,0.3,0.2l0.9,0.4c0.3,0.1,0.7,0.2,1,0c0.1,0,0.1-0.1,0.1-0.2l0,0L230.2,150.2z"/>
						<path id="XMLID_84_" class="st10" d="M230.2,150.2l-0.3-0.1l-0.7-0.3c-0.3-0.1-0.7-0.2-1,0l0,0h-0.1v0.2l0,0
							c0,0.1,0.1,0.2,0.3,0.2l0.9,0.4c0.3,0.1,0.7,0.2,1,0c0.1,0,0.1-0.1,0.1-0.2l0,0L230.2,150.2z"/>
						<path id="XMLID_83_" class="st9" d="M228.1,149.6c-0.3,0.1-0.3,0.3,0,0.4l0.9,0.4c0.3,0.1,0.7,0.2,1,0c0.3-0.1,0.3-0.3,0-0.4
							l-0.9-0.4C228.8,149.5,228.4,149.4,228.1,149.6z"/>
					</g>
					<g id="XMLID_77_">
						<path id="XMLID_81_" class="st9" d="M240.4,146c-0.6-0.2-1.4-0.3-2,0H238v0.4c0,0.2,0.1,0.3,0.4,0.4c0.6,0.2,1.4,0.3,2,0
							c0.3-0.1,0.4-0.3,0.4-0.4V146H240.4z"/>
						<path id="XMLID_80_" class="st14" d="M240.4,146c-0.6-0.2-1.4-0.3-2,0H238v0.4c0,0.2,0.1,0.3,0.4,0.4c0.6,0.2,1.4,0.3,2,0
							c0.3-0.1,0.4-0.3,0.4-0.4V146H240.4z"/>
						<path id="XMLID_79_" class="st9" d="M238.2,145.5c-0.6,0.2-0.6,0.6,0,0.8s1.4,0.3,2,0c0.6-0.2,0.6-0.6,0-0.8
							C239.8,145.3,238.8,145.3,238.2,145.5z"/>
						<path id="XMLID_78_" class="st10" d="M238.2,145.5c-0.6,0.2-0.6,0.6,0,0.8s1.4,0.3,2,0c0.6-0.2,0.6-0.6,0-0.8
							C239.8,145.3,238.8,145.3,238.2,145.5z"/>
					</g>
					<path id="XMLID_76_" class="st9" d="M236,146.4c-0.1-0.1-0.4-0.1-0.6,0h-0.1v0.1c0,0,0,0.1,0.1,0.1c0.1,0.1,0.4,0.1,0.6,0
						c0.1,0,0.1-0.1,0.1-0.1L236,146.4L236,146.4z"/>
					<path id="XMLID_75_" class="st10" d="M236,146.4c-0.1-0.1-0.4-0.1-0.6,0h-0.1v0.1c0,0,0,0.1,0.1,0.1c0.1,0.1,0.4,0.1,0.6,0
						c0.1,0,0.1-0.1,0.1-0.1L236,146.4L236,146.4z"/>
					<path id="XMLID_74_" class="st9" d="M237.3,146.1V146h-0.1c-0.1-0.1-0.4-0.1-0.6,0h-0.1v0.1c0,0,0,0.1,0.1,0.1
						c0.1,0.1,0.4,0.1,0.6,0C237.3,146.1,237.3,146.1,237.3,146.1z"/>
					<path id="XMLID_73_" class="st10" d="M237.3,146.1V146h-0.1c-0.1-0.1-0.4-0.1-0.6,0h-0.1v0.1c0,0,0,0.1,0.1,0.1
						c0.1,0.1,0.4,0.1,0.6,0C237.3,146.1,237.3,146.1,237.3,146.1z"/>
					<path id="XMLID_72_" class="st9" d="M235.5,146.3c-0.1,0.1-0.1,0.2,0,0.2c0.1,0.1,0.4,0.1,0.6,0c0.1-0.1,0.1-0.2,0-0.2
						C235.9,146.2,235.6,146.2,235.5,146.3z"/>
					<path id="XMLID_71_" class="st9" d="M236.6,145.8c-0.1,0.1-0.1,0.2,0,0.2c0.1,0.1,0.4,0.1,0.6,0c0.1-0.1,0.1-0.2,0-0.2
						C237,145.8,236.8,145.7,236.6,145.8z"/>
					<g id="XMLID_58_">
						<g id="XMLID_65_">
							<path id="XMLID_70_" class="st3" d="M241.1,150.9c0.1-0.2,0.1-0.3,0.1-0.5c0-0.1,0-0.3-0.1-0.3l0.4-0.6
								c0.1,0.1,0.3,0.3,0.3,0.6s-0.1,0.6-0.4,0.9L241.1,150.9z"/>
							<path id="XMLID_69_" class="st3" d="M239.8,152c-0.1,0-0.1,0-0.3,0l0.4-0.6h0.1c0.1,0,0.3,0,0.3-0.1c0.1-0.1,0.3-0.2,0.4-0.3
								l0.4,0.2c-0.3,0.3-0.6,0.5-1,0.7C240.2,151.9,239.9,152,239.8,152z"/>
							<path id="XMLID_68_" class="st3" d="M239.4,151.9c-0.1-0.1-0.3-0.3-0.3-0.6s0.1-0.6,0.4-0.9l0.4,0.2
								c-0.1,0.1-0.1,0.3-0.1,0.5c0,0.1,0,0.3,0.1,0.3L239.4,151.9z"/>
							<path id="XMLID_67_" class="st3" d="M241.1,150.5c0,0.1-0.1,0.3-0.1,0.4c-0.1,0.1-0.3,0.2-0.4,0.3c-0.1,0.1-0.3,0.1-0.4,0
								c-0.1,0-0.1-0.1-0.1-0.3c0-0.1,0.1-0.3,0.1-0.4c0.1-0.1,0.3-0.3,0.4-0.3c0.1-0.1,0.3-0.1,0.4,0
								C241.1,150.2,241.1,150.3,241.1,150.5z"/>
							<path id="XMLID_66_" class="st3" d="M239.5,150.3c0.3-0.3,0.6-0.5,1-0.7c0.3-0.1,0.4-0.1,0.6-0.1c0.1,0,0.1,0,0.3,0l-0.4,0.6
								h-0.1c-0.1,0-0.3,0-0.3,0.1c-0.1,0.1-0.3,0.2-0.4,0.3L239.5,150.3z"/>
						</g>
						<g id="XMLID_62_">
							<path id="XMLID_64_" class="st3" d="M239.1,152.8l0.3-0.1c0,0,0.1,0,0.1,0.1v0.3c0,0.1,0,0.1-0.1,0.1l-0.3,0.1
								c0,0-0.1,0-0.1-0.1v-0.3C238.9,152.9,238.9,152.8,239.1,152.8z"/>
							<path id="XMLID_63_" class="st3" d="M241.4,151.9l0.3-0.1c0,0,0.1,0,0.1,0.1v0.3c0,0.1,0,0.1-0.1,0.1l-0.3,0.1
								c0,0-0.1,0-0.1-0.1V152C241.2,152,241.4,151.9,241.4,151.9z"/>
						</g>
						<g id="XMLID_59_">
							<path id="XMLID_61_" class="st3" d="M239.2,148.9l0.3-0.1c0,0,0.1,0,0.1,0.1v0.3c0,0.1,0,0.1-0.1,0.1l-0.3,0.1
								c0,0-0.1,0-0.1-0.1V149C239.1,149,239.1,149,239.2,148.9z"/>
							<path id="XMLID_60_" class="st3" d="M241.5,148l0.3-0.1c0,0,0.1,0,0.1,0.1v0.3c0,0.1,0,0.1-0.1,0.1l-0.3,0.1
								c0,0-0.1,0-0.1-0.1v-0.3C241.4,148.1,241.5,148.1,241.5,148z"/>
						</g>
					</g>
					<g id="XMLID_52_">
						<path id="XMLID_57_" class="st13" d="M237.9,149.9l-0.1,3.7c0,0.2-0.1,0.4-0.4,0.4l-6.4,2.5c-0.1,0.1-0.4,0-0.4-0.2l0.1-3.7
							c0-0.2,0.1-0.4,0.4-0.4l6.4-2.5C237.8,149.6,237.9,149.7,237.9,149.9z"/>
						<g id="XMLID_56_">
							<path class="st9" d="M231.4,153C231.2,153,231.2,153,231.4,153v-0.5l0,0l0.6-0.2h0.1v0.1l-0.6,0.2L231.4,153L231.4,153z"/>
						</g>
						<g id="XMLID_55_">
							<path class="st9" d="M231.2,155.9L231.2,155.9C231.2,155.9,231.1,155.9,231.2,155.9v-0.5c0,0,0,0,0.1,0c0,0,0,0,0,0.1v0.4
								l0.4-0.2h0.1v0.1L231.2,155.9L231.2,155.9z"/>
						</g>
						<g id="XMLID_54_">
							<path class="st9" d="M237.3,150.8C237.3,150.8,237.2,150.8,237.3,150.8v-0.4l-0.4,0.2h-0.1v-0.1l0.6-0.2l0,0l0,0L237.3,150.8
								L237.3,150.8z"/>
						</g>
						<g id="XMLID_53_">
							<path class="st9" d="M236.6,153.8L236.6,153.8C236.6,153.8,236.6,153.7,236.6,153.8l0.6-0.3v-0.4c0,0,0,0,0.1,0
								c0,0,0,0,0,0.1v0.5l0,0L236.6,153.8L236.6,153.8z"/>
						</g>
					</g>
					<g id="XMLID_39_">
						<g id="XMLID_46_">
							<path id="XMLID_51_" class="st9" d="M241.1,150.9c0.1-0.2,0.1-0.3,0.1-0.5c0-0.1,0-0.3-0.1-0.3l0.4-0.6
								c0.1,0.1,0.3,0.3,0.3,0.6s-0.1,0.6-0.4,0.9L241.1,150.9z"/>
							<path id="XMLID_50_" class="st9" d="M239.8,152c-0.1,0-0.1,0-0.3,0l0.4-0.6h0.1c0.1,0,0.3,0,0.3-0.1c0.1-0.1,0.3-0.2,0.4-0.3
								l0.4,0.2c-0.3,0.3-0.6,0.5-1,0.7C240.2,152,240.1,152,239.8,152z"/>
							<path id="XMLID_49_" class="st9" d="M239.5,151.9c-0.1-0.1-0.3-0.3-0.3-0.6s0.1-0.6,0.4-0.9l0.4,0.2
								c-0.1,0.1-0.1,0.3-0.1,0.5c0,0.1,0,0.3,0.1,0.3L239.5,151.9z"/>
							<path id="XMLID_48_" class="st9" d="M241.2,150.5c0,0.1-0.1,0.3-0.1,0.4c-0.1,0.1-0.3,0.2-0.4,0.3c-0.1,0.1-0.3,0.1-0.4,0
								c-0.1,0-0.1-0.1-0.1-0.3c0-0.1,0.1-0.3,0.1-0.4c0.1-0.1,0.3-0.3,0.4-0.3c0.1-0.1,0.3-0.1,0.4,0
								C241.1,150.3,241.2,150.4,241.2,150.5z"/>
							<path id="XMLID_47_" class="st9" d="M239.7,150.3c0.3-0.3,0.6-0.5,1-0.7c0.3-0.1,0.4-0.1,0.6-0.1c0.1,0,0.1,0,0.3,0l-0.4,0.6
								H241c-0.1,0-0.3,0-0.3,0.1c-0.1,0.1-0.3,0.2-0.4,0.3L239.7,150.3z"/>
						</g>
						<g id="XMLID_43_">
							<path id="XMLID_45_" class="st9" d="M239.1,152.8l0.3-0.1c0,0,0.1,0,0.1,0.1v0.3c0,0.1,0,0.1-0.1,0.1l-0.3,0.1
								c0,0-0.1,0-0.1-0.1v-0.3C239.1,152.9,239.1,152.9,239.1,152.8z"/>
							<path id="XMLID_44_" class="st9" d="M241.5,151.9l0.3-0.1c0,0,0.1,0,0.1,0.1v0.3c0,0.1,0,0.1-0.1,0.1l-0.3,0.1
								c0,0-0.1,0-0.1-0.1V152C241.4,152,241.5,152,241.5,151.9z"/>
						</g>
						<g id="XMLID_40_">
							<path id="XMLID_42_" class="st9" d="M239.2,149l0.3-0.1c0,0,0.1,0,0.1,0.1v0.3c0,0.1,0,0.1-0.1,0.1l-0.3,0.1
								c0,0-0.1,0-0.1-0.1v-0.3C239.2,149.1,239.2,149,239.2,149z"/>
							<path id="XMLID_41_" class="st9" d="M241.7,148.1l0.3-0.1c0,0,0.1,0,0.1,0.1v0.3c0,0.1,0,0.1-0.1,0.1l-0.3,0.1
								c0,0-0.1,0-0.1-0.1v-0.3C241.5,148.2,241.5,148.1,241.7,148.1z"/>
						</g>
					</g>
				</g>
			</g>
			<g>
				<g id="XMLID_35_">
					<g id="XMLID_36_">
						<polygon id="XMLID_37_" class="st19" points="261,156.7 261.2,163.7 270.5,163.4 270.1,155.8 						"/>
					</g>
				</g>
				<g id="XMLID_25_">
					<g id="XMLID_33_">
						<path id="XMLID_34_" class="st3" d="M250.1,143.1c0-0.3,0-0.6,0-1c0.3-0.8,1-1.6,2.2-2s2.5-0.5,3.5-0.2
							c-0.3-1.3,0.7-2.7,2.5-3.2c1.3-0.4,2.8-0.2,4.1,0.2c0.7,0.2,1.4,0.6,1.7,1.1c0.9-1,2.8-1.6,4.5-1.4c1.7,0.2,3.2,1.1,3.6,2.3
							c1.3-0.2,3.2,0.3,3.8,1.2c0.6,1.1-0.3,2.3,0,3.6c0.1,0.7,0.6,1.4,0.7,2.1c0.1,0.8,0.3,1.6,0.3,2.5c0,3.5-11.3,5.5-11.2,7.9
							c-1.9-1.7-3.9-3.6-5.8-5.3c0-0.2-0.9-0.8-1-0.9c-0.3-0.3-0.7-0.7-1-1.1c-1-1.1-2.3-1.8-4.1-2.5c-1.2-0.4-2.2-1-2.9-1.7
							C250.5,144.2,250.2,143.7,250.1,143.1z"/>
					</g>
					<g id="XMLID_31_">
						<path id="XMLID_32_" class="st18" d="M254.7,148.9c0,0-2,2-1.7,2.2s1.4,0.5,1.4,0.5L254.7,148.9z"/>
					</g>
					<g id="XMLID_29_">
						<path id="XMLID_30_" class="st19" d="M260.8,142.6c-1.9,0.6-5.2,1.8-6.2,6.6c-1,5,0.4,6.7,1.4,7.4c0.6,0.4,4.1,0.7,5.8,0.3
							c2.3-0.4,7.1-2,9.6-4.5c2.8-3,3.5-7,0.4-8.7C267.6,141.5,262.5,142,260.8,142.6z"/>
					</g>
					<path class="st18" d="M256.2,156.7c0.7,0.3,3,0.5,4.8,0.3v-0.9c0,0-1,0.3-2.3,0.5C257.3,156.9,256.2,156.7,256.2,156.7z"/>
					<g id="XMLID_27_">
						<path id="XMLID_28_" class="st3" d="M260.1,142.4c-0.7,0.2-1.6,0.4-2.3,0.8c-0.3,0.2-0.6,0.4-0.9,0.7
							c-0.1,0.2-0.1,0.5-0.1,0.8c0,0.7,0.7,1.4,1.7,1.7c-0.6,0.5-0.7,1.1-0.6,1.7c0.3,0.7,1,1.2,1.7,1.8l0.1,0.1
							c0.1,0,0.3,0,0.3-0.1c1.2-0.5,2-1.5,3.6-1.1c2.2,0.5,2,2.5,0.3,3.7c-0.7,0.5-1.3,0.7-2.2,0.7c-0.7,0-1.2-0.1-1.2-0.1
							s-0.3,2.3,2.9,3.4c0,0,3.5,0.8,6.7,0.2c1.2-1,3.2-2.3,4.9-3.5c5.5-3.9,5.9-9.6-1.7-11.5c-0.3-0.1-0.6-0.1-0.9-0.2
							c-2.5-0.5-5.2-0.6-7.7-0.3c-1.3,0.2-2.5,0.4-3.8,0.8C260.7,142.2,260.4,142.3,260.1,142.4z"/>
					</g>
					<path id="XMLID_26_" class="st3" d="M259.5,151.8c-0.9-0.2-1.3-0.9-1-1.5s1.3-0.9,2.2-0.6L259.5,151.8z"/>
				</g>
			</g>
			<g id="XMLID_23_">
				<path class="st19" d="M272.4,159.1c3.6-0.3,5.2,0.1,6.5,1.2c1.3,1.1,1.7,5.5-1.2,8.7L272.4,159.1z"/>
				<path id="XMLID_24_" class="st20" d="M278.5,162c-0.9-1.8-2.6-2.7-3.9-2.9s-4.3-0.1-4.3-0.1c-0.3,1-4.9,1.7-9.1,0.6l-4.8,0.3
					c-3.8,1.1-4.1,3.8-6.2,6.9c-1.4,2.1-1,5.5,0.6,6.9c0,0,0.7,3.2,0.3,5.2c-0.6,2.6-0.6,2.8,0.1,3.1c0,0,2.2,10.1,15.2,9.4
					c9.6-0.5,9.7-9,9.7-9l-0.1-1.8c1.6-0.9,0.1-0.9,1-6.1C277.8,168.1,279.6,164.6,278.5,162z"/>
			</g>
			<g>
				<path id="XMLID_22_" class="st19" d="M228.1,153.8c0-0.4,0-0.8,0.1-1.1c0-0.4,0.1-0.7,0.3-1.1c0.3-0.4,0.7-0.8,0.9-1.2
					c0.1-0.2,0.1-0.4,0-0.5c-0.1-0.3-0.6-0.4-0.9-0.2c-0.6,0.4-1.3,0.8-1.9,1.3c-0.6,0.5-0.7,1.1-0.9,1.6c-0.1,0.4-0.3,0.9-0.7,1.2
					c-0.3,0.3-0.7,0.4-1,0.7c-0.1,0.2-0.3,0.4-0.4,0.5c-0.1,0.1-0.4,0.2-0.6,0.3c-0.6,0.3-1,0.7-1.2,1.1c-0.3,0.6,0,1.2,0.1,1.8
					c0.1,0.7,0.3,1.3,0.6,1.9c0.1,0.5,0.4,1.1,0.7,1.6c0.4,0.9,5.4,11.3,7.1,13.1c1.3,1.2,3.2,1.8,6.1,0.8
					c5.1-1.8,14.8-5.7,14.8-5.7c5.9-2.7,7.5-8.2,5.5-10.2c-4.2,0.4-7.4,0.9-10.4,2.9c-6.1,3.7-11.2,6.5-11.2,6.5c-1-1.4-2-2.6-3-4.2
					c-0.9-1.3-2.3-2.8-2-4.2c0.1-0.8,0.7-1.5,1.2-2.2c0.4-0.9,0.9-1.9,1.4-2.9c0.1-0.2,0.1-0.4,0-0.6c-0.1-0.3-0.7-0.3-1.2-0.2
					c-0.4,0.2-0.7,0.4-1,0.7s-0.6,0.6-0.9,0.9c-0.1,0.1-0.3,0.3-0.6,0.3c-0.7-0.1-0.6-0.9-0.7-1.2
					C227.9,155.1,228.1,154.5,228.1,153.8z"/>
				<path class="st18" d="M234.9,169.4c-1.6,0.9-3,3-3,3s0.4-2.2,2.5-3.7L234.9,169.4z"/>
			</g>
		</g>
		<g id="Bottom_1_">
			<g id="XMLID_17_">
				<g>
					<path class="st2" d="M232.1,252.7c-0.3,0-0.3,0.7-0.3,1s1.4,1.4,4.1,1.8c2.6,0.4,6.2,0.2,7.7,0.2c1.6,0,4.2,0.6,5.7,0.7
						c1.6,0.2,4.3-0.1,5.2-0.7c0.4-0.2,0.4-0.6,0.4-0.9c0-0.7-0.1-0.8-0.1-0.8L232.1,252.7z"/>
					<g id="XMLID_19_">
						<g id="XMLID_20_">
							<path id="XMLID_21_" class="st4" d="M254.6,252c0,0.1,0.1,0.3,0.1,0.4c0.1,0.7,0.3,1.5,0.1,2.2c-0.3,0.5-1.2,0.8-1.9,0.9
								c-1.9,0.3-3.2,0.2-5.2-0.1c-1.2-0.2-2.5-0.4-3.9-0.4c-1.6,0-3.8,0.2-5.4,0c-1.3-0.1-2.6-0.3-3.9-0.7c-1-0.3-1.7-0.8-2.3-1.5
								c0-1.4,1-2,2.2-2.5c1.2-0.4,2.6-0.5,4.1-0.5s2.6,0.2,3.9,0.2c0.9,0,1.9-0.1,2.6-0.4c0.4-0.1,0.7-0.5,0.9-0.8
								c0.3-0.3,0.3-0.6,0.7-0.6c0,0,6.2,0.1,7,0.1c0.7,0.1,0.7,1.8,0.9,2.2c0,0.3,0,0.6,0.1,0.8C254.4,251.5,254.4,251.8,254.6,252
								z"/>
						</g>
					</g>
					<path class="st13" d="M241.1,249.8c-0.1,0-0.1-0.1-0.3-0.1c-0.6-0.1-1.2,0.3-1.3,0.6c-0.1,0.2-0.3,0.4-0.3,0.6
						c-0.1,0.3-0.1,0.5,0,0.8c0,0.1,0.1,0.1,0.1,0.1c0.1,0,0.1-0.1,0.1-0.2c0.1-0.4,0.3-0.8,0.6-1.1c0.1-0.1,0.1-0.3,0.4-0.4
						c0.1-0.1,0.4-0.2,0.6-0.2c0.1,0,0.4,0,0.4-0.1C241.2,249.9,241.2,249.9,241.1,249.8L241.1,249.8z"/>
					<path class="st13" d="M242.8,249.9c-0.3,0-0.6,0-0.9,0.1c-0.3,0.1-0.4,0.3-0.4,0.5c-0.3,0.4-0.4,1-0.1,1.4
						c0.1,0.1,0.3,0.1,0.3,0c0.1-0.1,0-0.3,0.1-0.4c0.1-0.3,0.3-0.6,0.4-0.9c0.1-0.1,0.1-0.2,0.3-0.3c0.1-0.1,0.1-0.1,0.3-0.2h0.1
						h0.1C243.1,249.9,243.1,249.9,242.8,249.9C243,249.9,242.8,249.9,242.8,249.9z"/>
					<path class="st13" d="M244.6,249.6c-0.1,0-0.4,0.1-0.6,0.2c-0.1,0.1-0.1,0.2-0.3,0.4c-0.1,0.3-0.3,0.6-0.3,0.9
						c0,0.2,0,0.4,0.1,0.6c0,0.1,0.1,0.2,0.3,0.1c0.1,0,0.1-0.2,0.1-0.3s0-0.3,0-0.4c0-0.5,0.3-1.1,0.9-1.5c0,0,0,0,0-0.1h-0.1
						C244.9,249.5,244.7,249.5,244.6,249.6z"/>
					<path class="st13" d="M239.2,249.9c-0.6,0-1.9,0.5-2.6,1.8c-0.7,1.3-0.4,3.1-0.4,3.1s-1.9-0.1-3.3-1.2
						c-0.4-0.3-0.7-0.5-0.9-0.8c-0.1-0.9,0.1-1.6,0.7-2c0.9-0.7,2.3-1.2,4.5-1.2c2.5,0,2.6,0.4,2.6,0.4h-0.6V249.9z"/>
				</g>
				<path id="XMLID_18_" class="st19" d="M259.2,227.1c-0.4,3.7-5.5,21.6-5.5,21.6c-0.1,0.5-1.2,1.2-3.6,1.2c-1.7,0-3.2-0.4-3.5-1
					l-0.9-23.1C245.7,225.9,259.5,223.5,259.2,227.1z"/>
			</g>
			<g>
				<path class="st19" d="M295.1,240.6c0,0-7.7-16.5-9.1-18.6c-1.6-1.9-11,4.8-11,4.8s14.2,15,14.9,15.6
					C290.8,243.4,295.1,240.6,295.1,240.6z"/>
				<g>
					<path id="XMLID_16_" class="st4" d="M298.6,242.5c0,0.2,0,0.5,0,0.8c-0.1,0.9-0.1,1.7-0.3,2.7c0,0.4-0.1,0.7-0.1,1
						c-0.1,0.4,0,0.8,0,1.2s0,0.9,0,1.3c0,0.2,0,0.4,0,0.6c0,0.2-3.9,1.8-5.7,2.5c-0.1,0-0.1,0.1-0.3,0.1c-1.4,0.4-2.6-0.4-2.6-0.4
						c-1.2-2.1,1.2-3.5,1.2-3.5s0.1,0,0.1-1.1c0-0.8,0-1.6-0.1-2.5c0-0.5-0.3-1-0.6-1.4c-0.3-0.4-0.7-0.9-0.7-1.3
						c0-0.4,0.4-0.6,0.6-0.9c0.3-0.3,0.6-0.5,1-0.7c0.9-0.5,1.9-0.8,2.9-1c0.1,0,0.4-0.1,0.6,0c0.3,0.1,0.6,0.3,0.7,0.5
						c0.4,0.4,1.2,0.7,1.9,0.9C297.8,241.5,298.5,241.9,298.6,242.5C298.6,242.3,298.6,242.4,298.6,242.5z"/>
					<path id="XMLID_15_" class="st13" d="M290.7,248.7c-0.1,0.2-0.4,0.3-0.6,0.5l0,0c-0.7,0.9-0.9,1.8-0.6,3
						c-2.9-0.2-3.6-1.3-3.6-1.3s-0.1-1,1.4-1.7c0.1-0.1,0.4-0.2,0.6-0.2l0,0C289.5,248.4,290.7,248.7,290.7,248.7z"/>
					<path id="XMLID_14_" class="st9" d="M299.5,242.7c0.7,0.2,0.6,1.6,0.1,3.1c-0.4,1.4-0.7,1.8-0.4,3.1c0.3,1.1,0.4,1.6-0.3,2.1
						c-0.7,0.4-6.1,2.1-6.1,2.1s1-1.8,1.2-4.4s0.4-4.3,2-5.4C297.8,242.2,299.5,242.7,299.5,242.7z"/>
					<g id="XMLID_13_" class="st21">
						<path d="M299.5,242.7c0.7,0.2,0.6,1.6,0.1,3.1c-0.4,1.4-0.7,1.8-0.4,3.1c0.3,1.1,0.4,1.6-0.3,2.1c-0.7,0.4-6.1,2.1-6.1,2.1
							s1-1.8,1.2-4.4s0.4-4.3,2-5.4C297.8,242.2,299.5,242.7,299.5,242.7z"/>
					</g>
					<path id="XMLID_12_" class="st2" d="M285.9,250.8c0,0,2,1.2,4.5,1.3c2.3,0.2,2.5-0.4,2.8-2.5c0.3-2,0.3-4.8,1.4-5.9
						c1.2-1.2,3-1.7,3.8-1.6c0.1-0.1,0.9,0.3,1.2,0.6c0,0-1.6-0.1-3.2,0.9c-1.4,1-1.7,3.2-1.9,5.2c0,1.9-0.1,4.3-2.5,4.5
						c-2.2,0.2-4.6-0.4-6.1-1.3C285.1,251.4,285.9,250.8,285.9,250.8z"/>
					<g>
						<path id="XMLID_11_" class="st13" d="M290.8,248c0,0-0.3,0.1-0.3,0.4c0,0.2,0.1,0.7,0.9,1c0.3,0.1,0.6,0.1,0.1-0.3
							C290.9,248.6,290.8,248,290.8,248z"/>
						<path id="XMLID_10_" class="st13" d="M290.8,246.5c0,0-0.1,0.1-0.1,0.3s0.4,0.9,1,1.1s0.3-0.2,0-0.4
							C291.4,247.4,290.8,246.5,290.8,246.5z"/>
						<path id="XMLID_9_" class="st13" d="M290.7,245c0,0-0.3,0.1-0.3,0.2c0,0.2,1,0.7,1.4,0.7c0.3,0,0.4-0.1,0-0.3
							C291.4,245.5,290.7,245,290.7,245z"/>
					</g>
				</g>
			</g>
			<path id="XMLID_8_" class="st4" d="M245.9,230c-0.1-1.8-0.1-3.4-0.1-4.2c-0.3-3.8-0.4-5.4-0.1-7.9c0.4-3.4,0.9-6.8,1.6-14
				c0.6-6.5,4.2-22.9,4.1-21.8c8.7,1.6,19.4,0.9,24.8-1.4c2.3,3.5,7.1,7.9,4.6,15.2c0.3,6.3,1,21,1,21c2.9,2.5,4.2,3.6,5.8,7.2
				c-3.2,0.2-9.1,3.2-10.4,4.5c-7.5-7.4-8.3-8.7-8.4-9.3c-0.6-1.4-3.8-16.2-3.8-16.2l-5.4,18.3c0.4,1.2,0.6,2.7,0.3,4.8
				c-0.1,1-0.6,2.8-0.9,4.2C258.5,230.5,254.6,231.5,245.9,230z"/>
			<path id="XMLID_7_" class="st22" d="M264.4,203.4l2.3-7c0,0,4.1,0.2,9-2.6c0,0-0.6,2.5-7.5,3.7l-2.3,6.9l0.7,8.6
				C266.6,212.9,264.6,203.5,264.4,203.4z"/>
		</g>
	</g>
</g>
</svg>
