<?xml version="1.0" encoding="utf-8"?>
<!-- Generator: Adobe Illustrator 25.1.0, SVG Export Plug-In . SVG Version: 6.00 Build 0)  -->
<svg version="1.1" id="Layer_1" xmlns="http://www.w3.org/2000/svg" xmlns:xlink="http://www.w3.org/1999/xlink" x="0px" y="0px"
	 viewBox="0 0 300 265" style="enable-background:new 0 0 300 265;" xml:space="preserve">
<style type="text/css">
	.st0{fill:#FFFBB9;}
	.st1{fill:#716558;}
	.st2{fill:#FABB6E;}
	.st3{fill:#A9ABAD;}
	.st4{fill:#4F453B;}
	.st5{fill:#525E5A;}
	.st6{fill:#CA5F38;}
	.st7{fill:#E4E9EF;}
	.st8{fill:#A6A8AB;}
	.st9{fill:#F2B146;}
	.st10{fill:#FFFFFF;}
	.st11{fill:#F9A840;}
	.st12{fill:#7ACDD5;}
	.st13{fill:#C0C8D6;}
	.st14{fill:#A9A9A9;}
	.st15{fill:#B99DFF;}
	.st16{fill:#B9FFFF;}
	.st17{fill:#C5CDD2;}
	.st18{fill:#E5DE90;}
	.st19{fill:#FCBB6E;}
	.st20{fill:#3A2B1A;}
	.st21{fill:#3D322D;}
	.st22{fill:#26A1AA;}
	.st23{fill:#198C9A;}
	.st24{fill:#F28D50;}
	.st25{fill:#754C28;}
	.st26{fill:#603813;}
	.st27{fill:#35B4B7;}
	.st28{fill:#A87C4F;}
	.st29{fill:#E6E7E8;}
	.st30{fill:#BBBDBF;}
	.st31{fill:#231F20;}
	.st32{fill:#E8A55B;}
	.st33{fill:#F8F8F9;}
	.st34{fill:#D5EAEF;}
	.st35{fill:#A3591E;}
	.st36{fill:#E2646E;}
	.st37{fill:#575756;}
	.st38{fill:#706F6F;}
	.st39{fill:#3C3C3B;}
	.st40{fill:#282F39;}
	.st41{fill:#3EB8EA;}
	.st42{fill:#2BBAF3;}
	.st43{fill:#3DD0FC;}
	.st44{fill:#3096C9;}
	.st45{fill:#329ED0;}
	.st46{fill:#34A7D8;}
	.st47{fill:#36AFDF;}
	.st48{fill:#37B7E6;}
	.st49{fill:#39BFED;}
	.st50{fill:#3BC8F5;}
	.st51{fill:#10A5E0;}
	.st52{fill:#19ACE6;}
	.st53{fill:#22B3EC;}
	.st54{fill:#34C1F9;}
	.st55{fill:#3DC8FF;}
</style>
<g>
	<polygon class="st0" points="240.7,92.9 292,127.5 254,171.8 217.7,113.9 	"/>
	<path class="st1" d="M172.9,148.7h5.4c0.5,0,0.9-0.4,0.9-0.9v-8.1c0-0.5-0.4-0.9-0.9-0.9h-5.4c-0.5,0-0.9,0.4-0.9,0.9v8.1
		C171.9,148.3,172.3,148.7,172.9,148.7z"/>
	<path class="st2" d="M215.6,139.7c0,0,0-3.2-0.8-4.2c-0.7-0.8-0.6-1.3-1.5-1.3c-0.3,0-3.2,0.9-3.4,1.2c-0.5,0.5,0.3,1.2,0.6,1.3
		c0.2,0,1.6,0.2,2.6,0.2c0.6,0.1,1.1,0.5,1.1,1.1C214.2,139.3,214.5,141,215.6,139.7z"/>
	<path class="st2" d="M213.9,139.7c0,0,0.3-5.9-2.4-5.5c-0.3,0-2.4,2.1-2.6,2.4c-0.5,0.5,0.3,1.2,0.6,1.3c0.2,0,0.8-1,1.8-0.9
		c0.6,0.1,1.1,0.5,1.1,1.1C212.5,139.3,212.8,141,213.9,139.7z"/>
	<g>
		<path class="st3" d="M184.4,162c0,0-0.7,3-3,7.4l-0.5-0.3l-0.5-0.3C182.4,164.5,184.4,162,184.4,162z"/>
		<path class="st3" d="M184.1,162.4l0.2,0.1l0.7-1.3l0,0c0,0,0.3-0.4,0.9-0.7c0.4-0.2,0.5-0.5,0.5-0.9c-0.1-0.3-0.3-0.5-0.6-0.6
			c-0.2,0-0.5,0.1-0.5,0.2l0.1,0.1c0.1,0,0.3-0.1,0.4-0.1c0.2,0,0.4,0.2,0.5,0.4c0,0.3-0.1,0.5-0.4,0.7c-0.6,0.3-0.9,0.8-0.9,0.8
			L184.1,162.4z"/>
		
			<rect x="174.1" y="172.7" transform="matrix(0.4497 -0.8932 0.8932 0.4497 -56.4384 254.991)" class="st4" width="9.3" height="1.2"/>
	</g>
	<g>
		<polygon class="st5" points="219.4,139.6 218.4,137.6 217.9,136.7 219.9,135.7 221.4,138.6 		"/>
		
			<rect x="220.5" y="138.8" transform="matrix(0.8914 -0.4531 0.4531 0.8914 -39.37 115.1677)" class="st5" width="0.4" height="1.9"/>
		<path class="st5" d="M206.4,139.2c1.5-0.1,2.7,0.6,4.2,0.5c1.8-0.2,4.6,0.1,8-2.5c0,0,0.8,0.1,0.8,0.6s-4.6,3.7-11.6,3.2
			c0,0-1.5-0.2-2.7,0.3c-1.8,0.8-2.1-0.6-0.6-1.5C204.8,139.6,205.7,139.3,206.4,139.2z"/>
	</g>
	<path class="st2" d="M214.5,140c1-0.5,2.4-0.5,3.1,0.7c0.1,0.2,0.1,1.2-1.2,0.8c-3.3-0.9-3.7,3.5-6.8,3.3l-1.8,1.6
		c0,0-3.1-2.3-3.2-2.3c0,0,1.2-1.8,1.2-1.9c0-0.2,1-2.8,1.7-4.5c0.2-0.5,2-2.6,2.5-2.8c0.7-0.3,0.8-0.1,1.7-0.2
		c0.5-0.1,1.3,0.1,1.8,0s1.1,0.1,1.5,0.4c1.1,0.7,4.2,0.9,3.8,1.7c0.2,0.2-0.3,1-1.5,0.8c-1.1-0.2-2.1-0.3-3.1-0.7
		c-0.5,0.4-1,1.1-1.2,1.6c-0.3,0.6-0.5,1.3-0.6,2C212.5,141.2,214.1,140.2,214.5,140z"/>
	<path class="st6" d="M176,171.7c0,0,1.2-0.3,1.4-0.3c0.6-0.1,1.5,0,3,0.5c0.8,0.2,1.9,2.4,0.3,1.7c-1-0.4-4.4-0.3-4.4-0.3
		S173.9,172,176,171.7z"/>
	<g>
		<path class="st1" d="M113.2,148.7h5.4c0.5,0,0.9-0.4,0.9-0.9v-8.1c0-0.5-0.4-0.9-0.9-0.9h-5.4c-0.5,0-0.9,0.4-0.9,0.9v8.1
			C112.3,148.3,112.7,148.7,113.2,148.7z"/>
		<path class="st7" d="M90.4,157.2h23.9c0.9,0,1.5-0.7,1.5-1.5v-19.3c0-0.9-0.7-1.5-1.5-1.5H90.4c-0.9,0-1.5,0.7-1.5,1.5v19.3
			C88.9,156.5,89.6,157.2,90.4,157.2z"/>
		<rect x="119.5" y="140.1" class="st7" width="53.8" height="7.2"/>
		<g>
			<polygon class="st5" points="93.5,140.3 95.2,140.7 96,140.8 96.4,139.1 93.9,138.5 			"/>
			
				<rect x="93" y="138.5" transform="matrix(0.2161 -0.9764 0.9764 0.2161 -62.9689 200.1367)" class="st5" width="0.3" height="1.5"/>
			<path class="st5" d="M97.5,151.5c-0.2-1.2-0.7-2.1-1.2-3.2c-0.8-1.6-2-4.8-0.7-8c0,0-0.3-0.6-0.6-0.5c-0.3,0.1-1.7,4.4,0.9,10.9
				c0,0,0.4,1.1,0.3,2.2c-0.2,1.6,0.9,1.5,1.3,0.2C97.5,152.8,97.6,152.1,97.5,151.5z"/>
		</g>
		<g>
			<polygon class="st5" points="106.8,141.4 108.6,141.7 109.4,141.9 109.8,140.1 107.2,139.6 			"/>
			
				<rect x="106.3" y="139.5" transform="matrix(0.2161 -0.9764 0.9764 0.2161 -53.5065 213.9358)" class="st5" width="0.3" height="1.5"/>
			<path class="st5" d="M109.8,151.3c-0.2-1.2-1-2-1.2-3.2c-0.2-1.5-1-3.5,0.3-6.6c0,0-0.3-0.6-0.6-0.5c-0.3,0.1-1.9,4.3-0.2,9.6
				c0,0,0.4,1.1,0.3,2.2c-0.2,1.6,0.9,1.5,1.3,0.2C109.8,152.6,109.9,151.8,109.8,151.3z"/>
		</g>
		<g>
			<rect x="101" y="144.7" class="st5" width="1.4" height="9.1"/>
			<polygon class="st5" points="101.4,143 102.1,143 102.4,144.7 101,144.7 			"/>
			<rect x="101.6" y="138.5" class="st5" width="0.3" height="5"/>
		</g>
		<path class="st8" d="M108.9,196.6c-0.2,0-0.3,0-0.5-0.1c-2.3-1-0.7-20.4,0.2-24.3c1-4.7,0.1-18.7,0-18.8h0.6c0,0.6,1,14.3-0.1,19
			c-1.2,5.7-2.1,23-0.5,23.6c0.2,0.1,0.4,0.1,0.7-0.1c1.6-1.1,3.6-7.2,2.8-19.6c-0.9-14.4-1.4-19-1.5-19.1l0.6-0.1
			c0,0,0.5,4.7,1.5,19.1c0.7,11.9-1.1,18.8-3.1,20.2C109.4,196.5,109.1,196.6,108.9,196.6z"/>
		<path class="st8" d="M101.2,202.1c-0.4,0-0.9-0.2-1.5-0.6c-2.8-1.9-1-18.4,1-31.8c0.9-5.9-0.7-12.3-0.7-12.4l0.6-0.1
			c0,0.1,1.6,6.6,0.7,12.6c-2.7,18.2-3.1,29.9-1.2,31.2c0.4,0.3,1.1,0.6,1.5,0.4c0.7-0.4,0.6-2.2,0.5-2.8c-0.1-0.4-1.1-3.6,1.8-9.8
			c1.2-2.6,0.3-8.4-0.7-15c-1-6.3-2-13.5-1.8-20.4h0.6c-0.2,6.9,0.9,14,1.8,20.3c1.1,7,1.9,12.6,0.6,15.3c-2.9,6.2-1.8,9.3-1.7,9.3
			v0.1c0,0.3,0.3,2.8-0.8,3.5C101.7,202,101.5,202.1,101.2,202.1z"/>
		<path class="st8" d="M93.3,193.5c-0.1,0-0.2,0-0.3,0c-0.8-0.2-1.4-1.2-1.6-3.1c-0.7-5.5,0.2-15.2,1.4-19.7c1.1-4,0-13.3,0-13.4
			l0.6-0.1c0,0.4,1.2,9.5,0,13.7c-1.1,3.8-2.2,13.5-1.4,19.4c0.2,1.5,0.6,2.5,1.1,2.6c0.7,0.2,1.8-1.1,2.1-1.6l0.1-0.1
			c1.4-0.8,1.4-13.7,0.2-20.1c-1-5.9,0.5-16.8,0.6-17.2l0.6,0.1c0,0.1-1.6,11.2-0.6,17c0.9,5.1,1.6,19.3-0.4,20.7
			C95.5,192.1,94.4,193.5,93.3,193.5z"/>
		<polygon class="st5" points="85.6,154 90.2,154 90.2,152.6 87,152.6 87,139.9 90.2,139.9 90.2,138.5 85.6,138.5 		"/>
	</g>
	<path class="st8" d="M144.3,168.6c-3.8,0-7.7-0.8-11.4-2.4c-5.7-2.4-11.2-6.4-17.3-12.7l0.4-0.4c6,6.2,11.5,10.2,17.1,12.5
		c4.9,2,9.9,2.8,14.6,2.1c2.3-0.3,10.7-2.7,12.8-3.5c7.5-3.1,15.5-7.9,24.3-14.7c3.9-3,12.8-8.7,18.6-8.8v0.6
		c-5.2,0.1-13.8,5.2-18.3,8.7c-8.9,6.8-16.9,11.7-24.5,14.8c-2.1,0.9-10.5,3.3-12.9,3.6C146.7,168.6,145.5,168.6,144.3,168.6z"/>
	<g>
		<rect x="6.5" y="122" class="st3" width="145.2" height="133.2"/>
		<rect y="112.4" class="st7" width="159.1" height="9.7"/>
		<rect x="12.8" y="152.1" class="st7" width="73.2" height="103.1"/>
		<g>
			<rect x="12.8" y="125.3" class="st7" width="73.2" height="24.6"/>
			<path class="st3" d="M60.3,136.4H38.5c-1.1,0-1.7-0.9-1.7-1.9l0,0c0-1.2,0.9-1.9,1.7-1.9h21.8c1.1,0,1.7,0.9,1.7,1.9l0,0
				C62.2,135.5,61.4,136.4,60.3,136.4z"/>
		</g>
		<path class="st3" d="M76.7,165.5v23.7c0,1.2-0.9,1.9-1.7,1.9l0,0c-1.1,0-1.7-0.9-1.7-1.9v-23.7c0-1.2,0.9-1.9,1.7-1.9l0,0
			C75.9,163.6,76.7,164.4,76.7,165.5z"/>
		<g>
			<rect x="88.2" y="125.3" class="st7" width="58" height="41.4"/>
			<rect x="88.2" y="169" class="st7" width="58" height="43.7"/>
			<rect x="88.2" y="214.8" class="st7" width="58" height="40.4"/>
			<path class="st3" d="M124.6,136.4h-14.8c-0.5,0-1.1-0.4-1.1-1.2v-1.9c0-0.6,0.3-1.2,1.1-1.2h14.8c0.5,0,1.1,0.4,1.1,1.2v1.9
				C125.4,135.8,125.1,136.4,124.6,136.4z"/>
			<path class="st3" d="M124.6,181.9h-14.8c-0.5,0-1.1-0.4-1.1-1.2v-1.9c0-0.6,0.3-1.2,1.1-1.2h14.8c0.5,0,1.1,0.4,1.1,1.2v1.9
				C125.4,181.4,125.1,181.9,124.6,181.9z"/>
			<path class="st3" d="M124.6,227.3h-14.8c-0.5,0-1.1-0.4-1.1-1.2v-1.9c0-0.6,0.3-1.2,1.1-1.2h14.8c0.5,0,1.1,0.4,1.1,1.2v1.9
				C125.4,226.9,125.1,227.3,124.6,227.3z"/>
		</g>
		<rect x="111.8" y="95.6" class="st9" width="10.9" height="16.8"/>
		<rect x="113" y="97.9" class="st10" width="8.2" height="12.2"/>
		<rect x="114.1" y="94.5" class="st11" width="5.9" height="1.1"/>
		<rect x="113.5" y="91.7" class="st12" width="7.3" height="2.8"/>
		<path class="st5" d="M127.8,80.2c0,0-1.1,5.1-1,12.9h1h1C128.9,85.1,127.8,80.2,127.8,80.2z"/>
		<g>
			<path class="st5" d="M138.6,73.5c0,1.3-1.1,2.4-2.4,2.4s-2.4-1.1-2.4-2.4s1.1-2.4,2.4-2.4C137.4,71,138.6,72,138.6,73.5z"/>
			<g>
				<path class="st5" d="M135.9,79c0,0-1,4.6-1,11.8h1h1C137.1,83.6,135.9,79,135.9,79z"/>
				<rect x="135.9" y="75.8" class="st5" width="0.3" height="4.4"/>
				<rect x="135.1" y="90.8" class="st9" width="1.8" height="2.3"/>
			</g>
		</g>
		<g>
			<path class="st5" d="M131.6,77.2c0,0-1.1,5.1-1,12.9h1h1C132.6,82.1,131.6,77.2,131.6,77.2z"/>
			<path class="st5" d="M131.8,77.9h-0.3v-2.4l0,0c0,0-0.2-0.8-0.7-1.6c-0.3-0.5-0.3-1.1,0-1.6c0.3-0.3,0.8-0.7,1.3-0.5
				c0.3,0.2,0.7,0.7,0.7,0.7h-0.2c0-0.2-0.3-0.3-0.7-0.5c-0.3-0.2-0.8,0-1,0.3c-0.3,0.3-0.2,0.8,0,1.3c0.7,0.8,0.8,1.8,0.8,1.8
				L131.8,77.9C131.7,77.9,131.8,77.9,131.8,77.9z"/>
			<rect x="130.6" y="90.1" class="st9" width="2" height="2.4"/>
		</g>
		<polygon class="st9" points="125.1,72 127.9,75.3 127.9,81.8 127.6,81.8 127.6,75.6 		"/>
		<polygon class="st13" points="125.6,93.1 127.2,112.3 130.1,112.3 131.6,112.3 135.9,112.3 137.4,93.1 		"/>
		<path class="st12" d="M108.3,112.4h-8c-0.8,0-1.5-0.7-1.5-1.5v-10.6c0-0.8,0.7-1.5,1.5-1.5h8c0.8,0,1.5,0.7,1.5,1.5v10.6
			C110,111.8,109.1,112.4,108.3,112.4z"/>
		<rect x="102.9" y="97.4" class="st14" width="3.3" height="1.6"/>
		<polygon class="st15" points="104.9,91.8 104.6,91.8 104.4,91.8 104.1,91.8 102.9,94.5 102.9,94.8 104.4,94.8 104.6,94.8 
			106,94.8 106,94.5 		"/>
		<path class="st16" d="M106.5,97.4h-3.8c-0.3,0-0.5-0.2-0.5-0.5v-2c0-0.3,0.2-0.5,0.5-0.5h3.8c0.3,0,0.5,0.2,0.5,0.5v1.8
			C107,97.1,106.8,97.4,106.5,97.4z"/>
		<rect x="8.4" y="255.2" class="st1" width="141.3" height="9.8"/>
	</g>
	<g>
		<g>
			<path class="st7" d="M179.6,151.1V211h8.9v7.7H175c-1.7,0-3.1-1.4-3.1-3.1v-64.5L179.6,151.1L179.6,151.1z"/>
			<g>
				<path class="st7" d="M175.6,72.6h17.5V76h-15.8v75.3c0,0.9-0.8,1.7-1.7,1.7s-1.7-0.8-1.7-1.7v-77
					C173.9,73.4,174.6,72.6,175.6,72.6z"/>
				<path class="st7" d="M199.4,87.5h13c0.3,0,0.6,0.1,0.8,0.3l9.9,8.1c0.6,0.4,0.6,1.3,0.2,1.8c-0.3,0.3-0.6,0.5-1,0.5
					c-0.3,0-0.6-0.1-0.8-0.3l-9.6-7.8H198c-0.7,0-1.3-0.6-1.3-1.3V78h2.6L199.4,87.5L199.4,87.5z"/>
				<path class="st1" d="M197.2,72.6c1.1,0,2.3,1.3,2.3,1.9V78h-2.6v-1.4c0-0.3-0.3-0.6-0.6-0.6h-3.2v-3.4H197.2z"/>
			</g>
			<path class="st1" d="M179.2,83.8c0-0.9-0.7-1.5-1.5-1.5h-4.1c-0.9,0-1.5,0.7-1.5,1.5v6.8c0,0.9,0.7,1.5,1.5,1.5h4.1
				c0.9,0,1.5-0.7,1.5-1.5V83.8z"/>
			<g>
				<g>
					<path class="st5" d="M216.8,102.5L228.3,92c3.2-2.9,8.3-2.9,11.4,0l-23,21C213.6,110.1,213.6,105.4,216.8,102.5z"/>
				</g>
				<g>
					<path class="st1" d="M219.2,95.3l1.1-1c2.5-2.2,5.7-2.9,7.2-1.6l-10,9.1C216,100.5,216.7,97.5,219.2,95.3z"/>
				</g>
				<polygon class="st17" points="217.7,113.9 240.7,92.9 239.7,92 216.7,113 				"/>
				<path class="st18" d="M227.1,106.7c2.8-2.5,1.3-1.2,5.7-5.2s7.9-8.6,7.9-8.6l-23,21C217.7,113.9,222,111.3,227.1,106.7z"/>
			</g>
		</g>
		<path class="st19" d="M158.4,204.2l-3.2,2.6l-7.2-2.6l2.1-0.2c0,0,5.9-3.7,6.5-4.3C157.3,199.1,158.4,204.2,158.4,204.2z"/>
		<g>
			<path class="st20" d="M137.7,203.5c0.9-0.5,2-0.5,2.8,0.1l2.2,1.6l-0.1,1.5c-0.1,0.6,0.2,1.1,0.8,1.3c1,0.3,3.2,0.5,7.3-0.5
				c1.7-0.4,3.2-0.4,4.6-0.2c-0.1,0.4-0.3,0.9-0.5,1.4c-0.6,1.7-1.9,2.1-2.6,2.3c-0.8,0.2-1.5,0.6-2.1,1.1l-4.4,3.1l-0.4-0.5l4.3-4
				l-6.3,0.1c-0.7,0.1-1.3-0.2-1.8-0.8l-4.8-6L137.7,203.5z"/>
			<path class="st19" d="M150.7,207.4c-4.1,1.1-6.2,0.9-7.3,0.5c-0.5-0.2-0.9-0.7-0.8-1.3l0.1-1.5l0.2,0.1l3.9-0.8
				c1.3-0.3,4.3-1.5,5.6-1.4c0.6,0-0.4,1.1,0.1,1.1c3.2,0,3.3,1.3,2.7,3.2C153.9,207,152.4,206.9,150.7,207.4z"/>
		</g>
		<path class="st19" d="M169.7,211.5l-3.2,2.6l-7.2-2.6l2.1-0.2c0,0,5.9-3.7,6.5-4.3C168.6,206.4,169.7,211.5,169.7,211.5z"/>
		<g>
			<path class="st20" d="M149.1,210.8c0.9-0.5,2-0.5,2.8,0.1l2.2,1.6L154,214c-0.1,0.6,0.2,1.1,0.8,1.3c1,0.3,3.2,0.5,7.3-0.5
				c1.7-0.4,3.2-0.4,4.6-0.2c-0.1,0.4-0.3,0.9-0.5,1.4c-0.6,1.7-1.9,2.1-2.6,2.3c-0.8,0.2-1.5,0.6-2.1,1.1l-4.4,3.1l-0.4-0.5l4.3-4
				l-6.3,0.1c-0.7,0.1-1.3-0.2-1.8-0.8l-4.8-6L149.1,210.8z"/>
			<path class="st19" d="M162,214.7c-4.1,1.1-6.2,0.9-7.3,0.5c-0.5-0.2-0.9-0.7-0.8-1.3l0.1-1.5l0.2,0.1l3.9-0.8
				c1.3-0.3,4.3-1.5,5.6-1.4c0.6,0,1,0.2,1.5,0.2c3.2,0,1.9,2.2,1.3,4.1C165.2,214.3,163.7,214.3,162,214.7z"/>
		</g>
		<path class="st21" d="M182.7,184.5l-34.8,18.6l2.1,4.3c3.7-2.3,26.4-2.3,34.9-13.8c0,0,1.1-2.4,2-2.9l-4.2-3.8V184.5z"/>
		<path class="st21" d="M230.3,194.3l8.9-17.7c-5.8-3.9-35.2,0.6-53,5.6c-2.5,0.7-4.4,2.7-4.1,5.3l2,6.9c1.5-0.1,3.7-2.1,4.6-2
			C190,192.4,213.3,196.4,230.3,194.3z"/>
		<path class="st21" d="M216.1,190.9c2.1,1.4,7.6,3.5,10.2,3.5c8.5,0,16.6,1.1,20.3-5.8c1.6-3.1,4.3-9.4,6.5-11.7l-15.6-9.6
			c0,0-11.1,6.5-17.9,16.9C224.2,187.2,211.5,187.9,216.1,190.9z"/>
		<path class="st22" d="M271.8,151.6c0,0,1.4-5.6,0-10c-1.9-5.9-9.6-3.2-9.6-3.2l-9.4,4.5c-12.2,0.9-8.4,9.7-8.4,9.7l-6.9,14.7
			l15.6,9.6C253.1,176.8,270.5,159.4,271.8,151.6z"/>
		<path class="st23" d="M245.9,153.8c-1-0.5-1.3-0.6-1.7-1.6s-0.5-2.1-0.3-3.2c0-0.1,0.3-1.3,0.3-1.2c0.8,1.3,1.7,2.6,2.5,3.1
			c1.7,1,6.1,1.3,8.7,1.2C254.5,152.5,252,157.1,245.9,153.8z"/>
		<g>
			<polygon class="st5" points="195.5,255.1 252.5,240.8 248.2,228.7 191.2,242.9 			"/>
			<polygon class="st13" points="197.1,259.4 254,245.1 252.5,240.8 195.5,255.1 			"/>
			<path class="st5" d="M249.3,209.2l0.9,0.6c1,0.7,2.4,0.5,3.1-0.5l39.9-56.9c0.7-1,0.5-2.4-0.5-3.1l-0.9-0.6
				c-1-0.7-2.4-0.5-3.1,0.5l-39.9,56.9C248.1,207.1,248.3,208.5,249.3,209.2z"/>
			<path class="st5" d="M246.1,205.9l0.9,0.6c1,0.7,2.4,0.5,3.1-0.5l23-33.1c0.7-1,0.5-2.4-0.5-3.1l-0.9-0.6
				c-1-0.7-20,27.7-26.2,31.7l-1.2,0.3C243.5,202.2,245.1,205.2,246.1,205.9z"/>
			<path class="st7" d="M262.6,243.7c0,0,1.3,0.7-1.2-7.8s-7.8-20.4-7.8-20.4s-0.6-5.9,2-9.6l-10.2-5.1l-5.7,6.8L262.6,243.7z"/>
			<path class="st1" d="M239.8,195.7h-51.5c-0.2,0-0.3,0-0.5,0c-0.9,0-1.8,0.2-2.6,0.6l-54.8,27.8c-2.8,1.4-3.9,4.9-2.5,7.7l0.3,0.5
				c1.4,2.8,4.9,3.9,7.7,2.5l54.4-27.6c0.3,0.1,0.6,0.1,0.9,0.1h49.3c2.7,0,4.9-2.2,4.9-4.9v-1C245.5,198.3,242.9,195.7,239.8,195.7
				z"/>
			<path class="st1" d="M248.7,190.6l4.8,3.4c1.4,1,3.3,0.6,4.3-0.8l30.3-43.3c1-1.4,0.6-3.3-0.8-4.3l-4.8-3.4
				c-1.4-1-3.3-0.6-4.3,0.8l-30.3,43.3C247,187.7,247.3,189.7,248.7,190.6z"/>
			<path class="st1" d="M284.9,141.1l2.2,1.5c0.6,0.4,1.5,0.3,1.9-0.3l7.8-11.2c0.4-0.6,0.3-1.5-0.3-1.9l-2.2-1.5
				c-0.6-0.4-1.5-0.3-1.9,0.3l-7.8,11.2C284.1,139.8,284.2,140.7,284.9,141.1z"/>
			<path class="st5" d="M290,141.7l0.8,0.6c0.2,0.2,0.6,0.1,0.7-0.1l6-8.5c0.2-0.2,0.1-0.6-0.1-0.7l-0.8-0.6
				c-0.2-0.2-0.6-0.1-0.7,0.1l-6,8.5C289.7,141.2,289.8,141.5,290,141.7z"/>
			<path class="st5" d="M293.1,149.9l5.9-8.4c0.5-0.7,0.7-1.5,0.5-2.3c-0.1-0.8-0.6-1.5-1.3-2l-2.5-1.8l-1.5,2.1l2.5,1.8
				c0.2,0.1,0.2,0.3,0.2,0.3c0,0.1,0,0.2-0.1,0.4l-5.9,8.4L293.1,149.9z"/>
			<path class="st7" d="M183.7,262.2v-10.8c0,0-0.5-4.2,4.5-7.4c3.7-2.3,9.4-2.3,12.2-2.1c1.2,0.1,2.3,0.3,3.4,0.8
				c3.8,1.5,13.1,6.1,22.7,19.5H183.7z"/>
			<path class="st5" d="M173,265h94c0.8,0,1.4-0.6,1.4-1.4v-2.7c0-0.8-0.6-1.4-1.4-1.4h-94c-0.8,0-1.4,0.6-1.4,1.4v2.7
				C171.6,264.4,172.2,265,173,265z"/>
			<g>
				<path class="st7" d="M192.2,236.2h47c0,0,4.7-0.1,6.3,4l4.1,7.4c0,0,1.3,2.8,4.6,2.5c3.3-0.3,4.5-0.2,4.5-0.2s5.2-1.3,3.9-6.1
					c-1.3-4.9-11.5-36.1-21.7-36h-51.2l-5.3,2.7c0,0-4.7,3.4,0,12.6L192.2,236.2z"/>
				<path class="st5" d="M200,220c0,0.9,0.7,1.6,1.6,1.6s1.6-0.7,1.6-1.6s-0.7-1.6-1.6-1.6S200,219.2,200,220z"/>
				<path class="st5" d="M194,220c0,0.9,0.7,1.6,1.6,1.6c0.9,0,1.6-0.7,1.6-1.6s-0.7-1.6-1.6-1.6C194.7,218.5,194,219.2,194,220z"/>
			</g>
			<rect x="190.1" y="207.3" class="st7" width="50" height="0.5"/>
		</g>
		<g>
			<path class="st2" d="M272.5,146.9v-4.5c0.9-2.6,2.1-5.6,3.7-7.8c1.5-2,3-4,3-4l-11.5,1.3c0,0-4.8,6.9-6.2,6.9
				c0,0-6.3,1.4-10.9,4.2l-1.3,0.5c0,0,5.6,1.6,10.3,0.5c4.7-1.1,6.5-1.4,8.4-1c0.7,0.1,1.6,0.4,2.4,0.7c1,0.5,1.7,1.5,2,2.7
				L272.5,146.9z"/>
			<path class="st24" d="M273.2,130.9c0,0-1.2,6-8.6,5c0,0,1-1,1.5-1.9C266.6,133.2,273.6,128.1,273.2,130.9z"/>
			<path class="st2" d="M267.5,112c-0.3,0.4-0.7,0.9-1,1.4c-1.2,2-3.1,3.6-5.3,4.5c-0.4,0.2-1,0.4-1.1,0.8c-0.2,0.5,0.1,1.1,0.3,1.7
				c0.3,1.1-0.2,2-0.5,3s-0.5,2-0.8,3c-0.3,1.5-1.4,4.7,0,5.7c2.2,1.5,8.8,4.1,13.4-0.7c0,0,6.5-0.9,7.5-1.7s2-0.4,2-0.4
				s9.8-6.2,6.1-11.6c-1.7-2.5-4-4.7-6.5-6.4c-3-2.1-7.1-3.8-10.7-2.2C269.4,109.9,268.4,110.9,267.5,112z"/>
			<path class="st25" d="M267.5,112c0,0,0.7-3.3,3-4.6c5.2-2.9,11.2-0.4,13.6,3.6c0,0,13.7,1.6,7.2,18.5l-6.4-0.4
				c0,0-10.7-10.1-7.3-16.6C277.6,112.5,271,110.4,267.5,112z"/>
			<path class="st25" d="M281.7,123.6c1.6,4.2-3.2,7.1-1.8,7.1c0,0,3.6-2.4,4.8-1.7C285.9,129.8,281.7,123.6,281.7,123.6z"/>
			<path class="st26" d="M267.1,117.9c-0.5,0.7-0.5,1.7,0.1,2.1s1.5,0.2,2-0.5c0.3-0.4,0.4-0.9,0.4-1.3c0-0.3-0.2-0.6-0.5-0.8
				C268.5,117,267.6,117.2,267.1,117.9z"/>
			<path class="st26" d="M268.5,117.2c0,0-1.1-0.3-1.2-1c-0.1-0.4-0.9,1.3,1.1,1.6L268.5,117.2z"/>
			<path class="st24" d="M267.5,114.8c0,0,0-1,0.6-0.8c0.9,0.2,3.1-0.4,3.7,3.5c0,0-0.9-2.1-2.5-2.4
				C267.7,114.8,267.4,115.3,267.5,114.8z"/>
			<path class="st25" d="M292.6,122.5c0.3,10.3-7.4,15.8-13.4,15.1c-4.4-0.5-6.8-3.1-6.8-3.1s7.2-2.3,6.8-13.7
				C279.3,120.9,292.1,107.1,292.6,122.5z"/>
		</g>
		<g>
			<path class="st1" d="M209.7,182.1H234c0.5,0,1-0.4,1-1V179c0-0.5-0.4-1-1-1h-24.3c-0.5,0-1,0.4-1,1v2.1
				C208.8,181.7,209.2,182.1,209.7,182.1z"/>
			<path class="st7" d="M239.1,196.9c0.2,0,0.4,0,0.6-0.2c0.6-0.3,0.9-1.1,0.5-1.7l-6.9-12.9h-21.7c-0.7,0-1.3,0.6-1.3,1.3
				s0.6,1.3,1.3,1.3h20.1l6.2,11.6C238.2,196.7,238.6,196.9,239.1,196.9z"/>
		</g>
		<g>
			<g>
				<path class="st27" d="M257.6,152.3c0,0-11,16-12.1,16.2c-0.5,0.1-24.2,2.4-24.9,4.4c-0.7,1.9-2.8,4.9,1.4,5.2
					c0.2,0,19.6-1.1,25.5-1.4c1.3-0.1,2.5-0.6,3.4-1.5c1.9-1.9,4.1-4.9,10.2-11.2c9-9.4,8.3-7.9,9-9.7
					C273.4,146.2,268,140.4,257.6,152.3z"/>
			</g>
			<path class="st2" d="M220.7,172.9l-3.8-0.1c-3.7-1-9.1,2.2-9.1,2.2s-1.7,2.6-1.6,3.4c0.1,1.2-0.5,3.6,0.2,3.8
				c0.9,0.2,3.3-3.8,3.3-3.8s5-1.1,6.1-2.1c1.1-1.1,3.9,0.2,3.9,0.2L220.7,172.9z"/>
		</g>
		<path class="st28" d="M262.6,121.4c-0.2,0-0.5-0.1-0.7-0.4s-0.4-0.5-0.6-0.6c0,0,0,0,0,0.1s-0.1,0.2-0.2,0.2s-0.2-0.1-0.2-0.2
			s0-0.4,0.2-0.5s0.4,0.1,1,0.8c0.2,0.2,0.4,0.3,0.5,0.3c0.3-0.1,0.5-0.7,0.6-0.9c0-0.1,0.1-0.2,0.2-0.1c0.1,0,0.2,0.1,0.1,0.2
			c0,0.1-0.3,1-0.8,1.1C262.6,121.3,262.6,121.4,262.6,121.4z"/>
		<path class="st25" d="M279.3,126.7c0,0-2.4-2.3-5.6-0.2c-0.8-0.5,2.7-4.4,2.3-6.4c-1.4-8.2,1.6-7.6,1.6-7.6l5.2,4.4L279.3,126.7z"
			/>
		<path class="st6" d="M259.9,123.5l-0.9,3v0.8c0.5,0,1,0,1.5-0.2c1.6-0.6,2.3-0.9,2.3-0.9S261.6,124.8,259.9,123.5z"/>
		<polygon class="st29" points="259.9,123.2 259.6,124.4 262.7,125.9 262.9,125.7 		"/>
		<path class="st24" d="M262.5,126.1c-2-2.5-2.6-2.5-2.6-2.5s-0.1-0.5,0-0.7c0,0,0.8-0.2,1.2,0c1.1,0.7,1.9,3.2,1.9,3.2
			S262.8,126.4,262.5,126.1z"/>
		<path class="st29" d="M258.9,126.9l0.2-0.4l2.6,0.2C261.7,126.7,259.8,127.5,258.9,126.9z"/>
		<path class="st24" d="M262.5,126.1c0,0-1.8,1.3-3.6,0.9c0,0-0.9,0.8-0.2,1.1c0.7,0.3,3.7-0.8,4.3-2
			C263,126.1,262.5,126.1,262.5,126.1z"/>
		<path class="st2" d="M271.8,130.2c0,0,0.3,2.4,3.2,1.5c2.9-0.9,4.5-2.8,4.2-4.4s-1.9-1.9-3.4-1.6
			C272.4,126.4,271.8,130.2,271.8,130.2z"/>
		<path class="st24" d="M278.1,128.1c0,0-0.9-2.3-2.6-1c-1.7,1.2-1.8,2-1.5,2.7c0.4,0.9,1.6,0.2,1.8-0.5c0.1-0.4-0.1-1,0.1-1.4
			s0.7-0.4,1.2-0.3C277.3,127.7,278,127.9,278.1,128.1z"/>
		<path class="st2" d="M266.1,119.1c0,0,2,0.7,5,0.4c3.4-0.3-2.6,6.5-2.6,6.5S262.1,124.6,266.1,119.1z"/>
		<polygon class="st30" points="259.6,124.4 261.9,125.4 262.2,125.7 259.6,124.7 		"/>
	</g>
	<g>
		<g>
			<rect x="133.4" y="185.1" class="st3" width="3.8" height="24.9"/>
			<g>
				<g>
					<path class="st4" d="M129.5,211.1c0,2,1.7,3.7,3.7,3.7h43.3c2.1,0,3.7-1.7,3.7-3.7V209c0-2-1.7-3.7-3.7-3.7h-43.3
						c-2,0-3.7,1.7-3.7,3.7V211.1z"/>
					<path class="st3" d="M134,217.5c0,0.9,1.4,1.6,3,1.6h35.6c1.7,0,3.1-0.7,3.1-1.6v-2c0-0.9-1.4-0.6-3.1-0.6H137
						c-1.7,0-3-0.3-3,0.6V217.5z"/>
					<path class="st5" d="M135,262.1h3.3v-3.2c0-0.7,0.6-1.3,1.3-1.3H170c0.7,0,1.3,0.6,1.3,1.3v3.2h3.3v-3.2c0-3.4-2.7-4.6-6.1-4.6
						h-27.3c-3.4,0-6.1,1.3-6.1,4.6L135,262.1L135,262.1z"/>
					<rect x="152.4" y="225" class="st5" width="4.8" height="29.3"/>
					<rect x="149.1" y="217.5" class="st3" width="11.4" height="8"/>
					<path class="st31" d="M170.8,262.1c0,1.6,1.3,2.9,2.9,2.9c1.6,0,2.9-1.3,2.9-2.9s-1.3-2.9-2.9-2.9S170.8,260.5,170.8,262.1z"/>
					<path class="st31" d="M133.5,262.1c0,1.6,1.3,2.9,2.9,2.9c1.6,0,2.9-1.3,2.9-2.9s-1.3-2.9-2.9-2.9S133.5,260.5,133.5,262.1z"/>
					<path class="st31" d="M151.9,262.1c0,1.6,1.3,2.9,2.9,2.9c1.6,0,2.9-1.3,2.9-2.9s-1.3-2.9-2.9-2.9S151.9,260.5,151.9,262.1z"/>
				</g>
			</g>
			<path class="st4" d="M150.8,187.2c11.4,0,18.5-1.9,18.9-2c1.7-0.5,2.7-2.2,2.2-3.9s-2.2-2.7-3.9-2.2l0,0c-0.1,0-15.1,4-36.7-0.1
				c-1.7-0.3-3.3,0.8-3.7,2.5c-0.3,1.7,0.8,3.3,2.5,3.7C138,186.7,145,187.2,150.8,187.2z"/>
			<path class="st4" d="M167.9,224.1l4.7,1.9c0.3,0.1,0.7,0,0.9-0.4l0.7-1.7c0.1-0.3,0-0.7-0.4-0.9l-4.7-1.9c-0.3-0.1-0.7,0-0.9,0.4
				l-0.7,1.7C167.4,223.6,167.6,224,167.9,224.1z"/>
			
				<rect x="163.3" y="216.4" transform="matrix(0.3776 -0.926 0.926 0.3776 -102.3746 289.177)" class="st3" width="1.3" height="8.7"/>
			<rect x="153" y="255.9" class="st5" width="3.4" height="5.4"/>
			<g>
				<path class="st2" d="M170.2,171.8l2.7-0.6l5.4-2.6l6.6,1.3l1.7,2.2c0,0,0.7,0.9,0.4,1.4s-2.1-1.4-3.5-1.9s-4.5,0.8-4.5,0.8
					s-2.7,2.7-4.4,2.6c-1.8-0.1-4,0.1-4,0.1L170.2,171.8z"/>
				<path class="st24" d="M192.6,247.7v4.1l6.5,4l-1.2-1.7c0,0-0.8-6.9-0.7-7.8C197.3,245.4,192.6,247.7,192.6,247.7z"/>
				<path class="st32" d="M199.7,203.4l-2.2,45.9h-4.8c0.5-4.3-8.4-28.2-1.7-40.9c0,0,1.7-2,1.7-3l4.9-0.9L199.7,203.4z"/>
				<path class="st32" d="M158,203.7l3-16.2c9.1,1.8,36.9,13,36.9,13l0.6,0.4c0.9,0.5,1.3,1.6,1.2,2.6l-1.4,7.3
					C191.7,209.5,165.1,204.3,158,203.7z"/>
				<g>
					<path class="st32" d="M194.9,255.8c1.7,3.9,3.2,5.4,4.1,6c0.5,0.3,1.1,0.2,1.5-0.2l1.1-1l-0.2-0.1l-1.8-3.6
						c-0.6-1.2-1.5-4.3-2.4-5.3c-0.4-0.4-0.6,1-0.9,0.6c-2-2.5-3.1-1.8-4.2-0.1C193.2,253,194.2,254.2,194.9,255.8z"/>
					<path class="st20" d="M206.1,263.5c-0.1-1-0.9-1.9-1.9-2.1l-2.6-0.7l-1.1,1c-0.4,0.4-1,0.5-1.5,0.2c-0.9-0.6-2.4-2.2-4.1-6
						c-0.7-1.6-1.7-2.8-2.7-3.7c-0.3,0.4-0.5,0.8-0.8,1.3c-1,1.6-0.5,2.9-0.2,3.5c0.3,0.7,0.4,1.5,0.4,2.3l0.3,5.4h0.7l0.4-5.9
						l3.8,5c0.4,0.6,1,0.9,1.7,0.9h7.6L206.1,263.5z"/>
				</g>
				<path class="st19" d="M178.3,247.7v4.1l6.5,4l-1.2-1.7c0,0-0.8-6.9-0.7-7.8C182.9,245.4,178.3,247.7,178.3,247.7z"/>
				<g>
					<path class="st20" d="M191.7,263.5c-0.1-1-0.9-1.8-1.8-2.1l-2.6-0.7l-1.1,1c-0.4,0.4-1,0.5-1.5,0.2c-0.9-0.6-2.4-2.2-4.1-6
						c-0.7-1.6-1.7-2.8-2.7-3.7c-0.3,0.4-0.5,0.8-0.8,1.3c-1,1.6-0.5,2.9-0.2,3.5c0.3,0.7,0.4,1.5,0.4,2.3l0.3,5.4h0.7l0.4-5.9
						l3.8,5c0.4,0.6,1,0.9,1.7,0.9h7.6L191.7,263.5z"/>
					<path class="st19" d="M180.6,255.8c1.7,3.9,3.2,5.4,4.1,6c0.5,0.3,1.1,0.2,1.5-0.2l1.1-1l-0.2-0.1l-1.8-3.6
						c-0.6-1.2-1.5-4.3-2.4-5.3c-0.4-0.4-0.8-0.6-1.1-1.1c-2-2.5-2.9-0.1-4,1.5C178.9,253,179.9,254.2,180.6,255.8z"/>
				</g>
				<path class="st19" d="M185.9,207.5c-0.2,2.1-2.8,42.4-2.8,42.4h-4.9c0.6-11.8-7.5-25.7-0.4-43c0,0-0.5-3.3-0.6-4.7l8.4,4
					C185.7,206.8,186,207.3,185.9,207.5z"/>
				<path class="st19" d="M144,204.9l4.9-16.2c2.8,1.8,23.7,9.2,34,12.8c2.5,0.9,3.8,3.5,3.1,6l-1.2,4.1c-1.4-0.4-3.1-0.8-4.1-0.9
					C179.4,210.6,160.3,210.1,144,204.9z"/>
				<path class="st19" d="M157.6,207.4c-2.5,0-5.1,0-7.6,0c-6.5,0-11.2-6.1-9.6-12.3c0.8-3.4,2.1-6.6,3.8-9.2c0,0,2.6-5.6,2.6-8.5
					h18.3c0,0,9.1,17.5,9,30C168.6,207.4,163.1,207.4,157.6,207.4z"/>
				<path class="st10" d="M165.2,176.2c0,0,1.8,1.2,4.3,7.8c0.4,1.2,1.4,2.1,2.5,2.5c3.3,1.1,10.8,4.2,19.8,11.1l-8.5,0.8
					c-4.2,1.1-7.5,4.3-8.7,8.5l-0.9,5c-13.2-3.5-35.3-1.5-34.2-14.7c0.6-7.2,1.2-14,7.5-20.9L165.2,176.2z"/>
				<g>
					<path class="st33" d="M166.5,139.5c0,0,3.2,0.5,5.8,3.8s12.5,14.8,17.1,13.1c4.6-1.6,10.3-5.5,14.2-13.2l1.3,1l4.2,3.1
						c0,0-9.5,15-18.4,16.8c-8.3,1.6-19.6-4.7-21.3-6.9L166.5,139.5z"/>
					<path class="st34" d="M183.3,163.8c0,0-10.8-2.6-15.3-8.1c-0.7-0.8-0.7-12.2-0.7-12.2l5.6,11c1.1,2,2.7,3.7,4.5,5.1
						L183.3,163.8z"/>
				</g>
				<path class="st10" d="M140.5,140.7c0,0,1.9-0.4,5.1-1.3c6-1.7,21.6,0,21.6,0l1.2,12.6c3.7,6.2,0.4,8.6,0.4,8.6l-0.1,0.3h-0.8
					l-0.2,0.8h0.1l-2.5,14.6H147l-4.3-19.5c0,0-0.1-0.6-0.3-1.5C141.4,151.5,139.3,141.8,140.5,140.7z"/>
				<path class="st34" d="M149.1,161.6c0,0.1,0.1,0.1,0.3,0.1c0.4,0.1,0.8,0.1,1.2,0.2c1.5,0.2,3.1,0.3,4.7,0.4
					c2.6,0.1,4.9-0.4,6.2-0.8c0.7-0.2,1.5-0.2,2.2,0.1s1.6,0.5,2.3,0.5c1.3-0.1,1.8-0.4,1.8-0.4c2.8-1.9,2.5-4.2,2.5-4.2
					c-2.1,0-4.2,1.4-4.9,1.7c-1,0.4-1.9,0.9-2.8,1.4c-0.1,0-1.3-0.9-1.4-0.9c-1-0.6-2-1.2-3-1.7c-0.8-0.4-1.6-0.7-2.4-0.8
					c-4.8-0.8-7.5-2.6-7.8-3c0.3,1.9,0.6,3.7,0.8,5.6c0.1,0.5,0.1,1,0.2,1.5C149,161.4,149,161.5,149.1,161.6z"/>
				<path class="st2" d="M150.7,136.9l0.3-6l0.1-2l8.2,5.4c0,0-0.3,3.4,1,4l0.6,5l-0.5,4.5L150.7,136.9z"/>
				<path class="st6" d="M151.8,131.5c0,0,3.4,5.4,7.8,5.3c0,0-0.1-1.4-0.1-2.5C159.4,133.3,152.7,128.8,151.8,131.5z"/>
				<path class="st34" d="M155.3,150.8c0,0,1.6-3.9,2.6-4.5c0.4-0.2,1.2,0,2.5,1.2c0,0,0.5,0.7,0.2-0.4c-0.3-0.8-9.8-10.2-9.8-10.2
					l-5.1,2.5L155.3,150.8z"/>
				<path class="st34" d="M160.5,138.3c0,0,0.3,1.7,0.3,4.9s-0.3,4.3-0.3,4.3c0.5-0.2,1-2,2.1-1.3c0.3,0.2,2.9,2.9,3.4,3.6
					c0,0-0.6-6.8-2.5-10.8L160.5,138.3z"/>
				<g>
					<path class="st10" d="M148.5,153.2c0,0,3.6,16.4,4.4,17.1c0.8,0.8,16.9,0.4,16.9,0.4s1.6,3.7,1.1,5.6c0,0-15.1,4.7-23.5,0.5
						c0,0-3.6-1.5-6.9-14.1c-3.4-12.6-4.1-14.1-3.9-16C137.7,138.1,145.1,137.8,148.5,153.2z"/>
				</g>
				<path class="st34" d="M166,177.6c0,0-11.4,2.6-17-0.1c0,0,16-3.6,21.7-2.7l0.3-0.1c0,0,0.2,1.6-0.2,2.1L166,177.6z"/>
				<ellipse class="st35" cx="144.2" cy="117.3" rx="8.9" ry="8"/>
				<path class="st2" d="M168.2,113c0,0,0.7,8.5,0,11.7s-3.6,9.2-5.8,9.7c-2.1,0.5-9.9-0.3-14.3-6.4c0,0-0.8-1.4-1.1-2.6
					s-1-7.1-1-7.1s-4-10.9,2.2-12.9C154.4,103.3,168,102.7,168.2,113z"/>
				<g>
					<path class="st31" d="M159.8,117.9c0,0,0.7-0.6,1.4-0.6c0.3,0,0.6,0.2,0.8,0.5c0,0.1,0.4-0.5,0.3-0.6c-0.1-0.3-0.8-0.5-1.1-0.5
						c-0.4,0-1.3,0.1-1.5,0.5C159.5,117.4,159.8,118,159.8,117.9z"/>
					<g>
						<path class="st31" d="M155,122.7c-1.5,0-2.8-0.4-3.6-1.3c-1-1-1.6-2.7-1.5-4.9l0,0c0,0,0-0.3,0.2-0.6c0.4-0.6,1.5-1,3.2-1.2
							c3.3-0.4,5.9,0.5,6.6,2.3c0.5,1.1,0.2,2.9-0.6,4C158.5,122,156.9,122.7,155,122.7z M154.9,115.1c-0.5,0-1,0-1.6,0.1
							c-2.4,0.3-2.8,1-2.8,1.2c0,2.1,0.4,3.6,1.4,4.5c0.7,0.7,1.8,1.1,3.2,1.1c1,0,2.9-0.1,3.7-1.5c0.6-1,0.9-2.5,0.5-3.5
							C158.8,115.9,157.1,115.1,154.9,115.1z"/>
						<path class="st31" d="M155.3,114.5c0,0-5.5-0.1-6.9,1v1.2c0,0,1.5,0.3,2.4,2.2l-0.3-2.9l1.9-0.7L155.3,114.5z"/>
					</g>
					<g>
						<path class="st31" d="M162.5,120.9c-0.6-1.2-1.2-2.9-0.6-4c1.1-1.8,2.8-2.7,6.2-2.3c1.7,0.2,2.4,0.6,2.8,1.2
							c0.2,0.3,0.2,0.6,0.2,0.6l0,0c0,2.2-0.5,3.9-1.5,4.9c-0.9,0.9-2,1.3-2.8,1.3C164,122.7,162.8,121.4,162.5,120.9z M162.5,117.2
							c-0.4,0.9,0,2.4,0.5,3.5c0.4,0.7,1.7,1.7,3.7,1.5c0.7-0.1,1.6-0.4,2.3-1.1c0.9-0.9,1.4-2.4,1.4-4.5c0-0.2-0.1-0.9-2.5-1.2
							c-0.5-0.1-0.6-0.1-1.1-0.1C164.7,115.1,163.1,115.9,162.5,117.2z"/>
						<path class="st31" d="M166.6,114.5c0,0,4.7-0.1,6.1,1v1.2c0,0-1.5,0.3-2.4,2.2l0.3-2.9l-1.5-0.7L166.6,114.5z"/>
					</g>
				</g>
				<path class="st28" d="M161.5,124.9c-0.1,0-0.2-0.1-0.2-0.2s0.1-0.2,0.2-0.2c0.4,0,1.7-0.5,2-1.2c0.1-0.3,0-0.6-0.3-1
					c-1.5-1.6-1.8-3.9-1.8-3.9c0-0.1,0.1-0.2,0.2-0.2c0.1,0,0.2,0.1,0.2,0.2c0,0,0.3,2.3,1.7,3.7c0.4,0.5,0.6,0.9,0.4,1.4
					C163.4,124.4,161.9,124.9,161.5,124.9L161.5,124.9z"/>
				<path class="st2" d="M146.9,124.8c0,0-1.7,1.7-3.4-0.8c-1.7-2.4-1.9-4.9-0.6-6.1c1.3-1.1,2.9-0.6,3.6,0.8
					C147.2,120.2,146.9,124.8,146.9,124.8z"/>
				<path class="st36" d="M157.2,126.4c0,0,6.8-0.4,7.2,0c0.3,0.4-1.1,1.2-1.1,1.2S158.5,128.2,157.2,126.4z"/>
				<path class="st36" d="M157.2,127c0,0,0.9,3.3,4.3,2.9c3.3-0.3,2.2-2.2,2.2-2.2S161.7,129.9,157.2,127z"/>
				<path class="st26" d="M156,118.7c0,0.8-0.5,1.4-1.1,1.4s-1.1-0.6-1.1-1.4c0-0.4,0.2-0.8,0.4-1s0.4-0.3,0.7-0.3
					C155.5,117.3,156,117.9,156,118.7z"/>
				<path class="st26" d="M154.9,117.3c0,0,1.1,0,1.4-0.7c0.2-0.4,0.6,1.5-1.4,1.3V117.3z"/>
				<path class="st26" d="M166.3,118.7c0,0.8-0.5,1.4-1.1,1.4s-1.1-0.6-1.1-1.4c0-0.4,0.2-0.8,0.4-1s0.4-0.3,0.7-0.3
					C165.9,117.3,166.3,117.9,166.3,118.7z"/>
				<path class="st26" d="M165.2,117.3c0,0,1.1,0,1.4-0.7c0.2-0.4,0.6,1.5-1.4,1.3V117.3z"/>
				<path class="st24" d="M143.2,119.3c0,0,2.1-1.2,2.7,0.8c0.6,2,0.2,2.7-0.5,3.1c-0.9,0.5-1.4-0.8-1.2-1.5
					c0.2-0.4,0.7-0.7,0.7-1.2c0.1-0.5-0.4-0.7-0.7-0.9C144.1,119.4,143.4,119.2,143.2,119.3z"/>
				<path class="st35" d="M168.3,114.6c0,0,3.3-2.8,0.9-8.6c-2.4-5.9-8.4-6.1-12.7-4.5c0,0-15-5.6-15.9,8.4l2.2,8
					c0,0,12.2-4.5,13.5-11.7C156.4,106.2,164.8,107.1,168.3,114.6z"/>
				<path class="st35" d="M149.8,113.7c-3.8,2.4-1.8,7.6-2.9,6.7c0,0-1.4-4.1-2.8-4.3C142.8,116,149.8,113.7,149.8,113.7z"/>
				<path class="st10" d="M163.6,127.4c0,0-0.1,1-3.1,0.6c0,0-1.9-0.1-2.4-0.9C158.2,127.1,162,128.1,163.6,127.4z"/>
			</g>
		</g>
		<path class="st29" d="M149.7,122.7l12.6-1.1l6.2,1.4c0,0-0.7,8.5-3.2,10.1h-10.5C154.7,133.1,149.6,131.7,149.7,122.7z"/>
	</g>
</g>
<g>
	<path class="st37" d="M55.4,83c-3.6,0-6.5,2.6-6.5,5.8v18.5c0,3.2,2.9,3.7,6.5,3.7s6.5-0.7,6.5-3.7V88.7C61.9,85.6,59,83,55.4,83z"
		/>
	<path class="st38" d="M70,105.8H49h-2.7h-5.2c-1.5,0-2.7,1-2.7,2.4v4.2h34.3v-4.2C72.7,106.8,71.5,105.8,70,105.8z"/>
	<g>
		<path class="st39" d="M24,56.7c-2,0-3.7,1.5-3.7,3.4v25.6v3.4v6.3c0,1.8,1.7,3.4,3.7,3.4h48.4L43.7,56.7H24z"/>
		<path class="st39" d="M87.1,56.7H43.7l28.8,42h14.7c2,0,3.7-1.5,3.7-3.4V89l0,0V60C91,58.2,89.2,56.7,87.1,56.7z"/>
	</g>
</g>
<g>
	<path class="st40" d="M79.8,58.1H31.3c-5.3,0-9.6,2.8-9.6,6.3V91c0,3.5,4.3,6.3,9.6,6.3h48.5c5.3,0,9.6-2.8,9.6-6.3V64.4
		C89.4,60.9,85.1,58.1,79.8,58.1z M87.5,91c0,2.8-3.5,5.1-7.8,5.1H55.5v-0.5h24.2c3.9,0,7-2,7-4.6V64.4c0-2.6-3.2-4.6-7-4.6H55.5
		v-0.5h24.2c4.3,0,7.8,2.3,7.8,5.1V91L87.5,91z"/>
	<path class="st41" d="M87.5,64.4V91c0,2.8-3.5,5.1-7.8,5.1H55.5v-0.5h24.2c3.9,0,7-2,7-4.6V64.4c0-2.6-3.2-4.6-7-4.6H55.5v-0.5
		h24.2C84.1,59.3,87.5,61.6,87.5,64.4z"/>
	<g>
		<path class="st42" d="M31.3,59.8h24.2v-0.5H31.3c-4.3,0-7.8,2.3-7.8,5.1V91c0,2.8,3.5,5.1,7.8,5.1h24.2v-0.5H31.3
			c-3.9,0-7-2-7-4.6V64.4C24.2,61.8,27.4,59.8,31.3,59.8z"/>
	</g>
	<rect x="51.8" y="90.8" class="st43" width="7.8" height="0.2"/>
	<rect x="63.3" y="91.5" class="st43" width="5.4" height="0.2"/>
	<rect x="69.2" y="91.5" class="st43" width="2.3" height="0.2"/>
	<rect x="71.9" y="91.5" class="st43" width="5" height="0.2"/>
	<rect x="60.3" y="90.8" class="st43" width="4.3" height="0.2"/>
	<rect x="55.7" y="92.3" class="st43" width="8.8" height="0.2"/>
	<rect x="65.1" y="92.3" class="st43" width="4.9" height="0.2"/>
	<rect x="70.7" y="92.3" class="st43" width="6.2" height="0.2"/>
	<rect x="65.6" y="90.8" class="st43" width="11.3" height="0.2"/>
	<rect x="51.8" y="91.5" class="st43" width="11.3" height="0.2"/>
	<rect x="51.8" y="92.3" class="st43" width="3.5" height="0.2"/>
	<g>
		<path class="st44" d="M83,78.6c-0.7,0.2-1.6,0.3-2-0.9c-0.2-0.5-0.3-0.9-0.3-1.2c-0.1-0.3,0.1-0.7,0.6-0.8l1.6-0.6
			c0.5-0.1,1,0.1,1.1,0.5C84.1,76.6,84.3,78.3,83,78.6z"/>
		<path class="st45" d="M81.1,79.5c-0.7,0.2-1.5,0.3-2-1c-0.2-0.6-0.3-1-0.3-1.4c-0.1-0.3,0.2-0.8,0.7-0.9l1.6-0.5
			c0.6-0.1,1,0.1,1.1,0.6C82.3,77.5,82.3,79.2,81.1,79.5z"/>
		<path class="st46" d="M78.4,80.5c-0.8,0.2-1.5,0.3-2-1.2c-0.2-0.6-0.3-1-0.3-1.4c0-0.5,0.3-0.8,0.8-0.9l1.7-0.5
			c0.6-0.1,1.1,0.2,1.2,0.7C79.8,78.5,79.6,80.2,78.4,80.5z"/>
		<path class="st47" d="M75.2,81.4c-0.8,0.1-1.5,0.3-2.2-1.4c-0.2-0.6-0.3-1.1-0.3-1.5c0-0.5,0.3-0.8,0.9-0.9l1.8-0.3
			c0.6-0.1,1.2,0.2,1.2,0.8C76.7,79.3,76.4,81.2,75.2,81.4z"/>
		<path class="st48" d="M71.5,82.3c-0.9,0.1-1.5,0.3-2.2-1.6c-0.2-0.6-0.3-1.2-0.3-1.6c0-0.5,0.5-0.8,1-0.9l1.8-0.2
			c0.7-0.1,1.2,0.3,1.2,0.9C73.1,80.2,72.7,82.1,71.5,82.3z"/>
		<path class="st49" d="M67.4,83c-1,0.1-1.4,0.5-2.2-1.7c-0.2-0.7-0.3-1.2-0.3-1.7s0.5-0.9,1.1-0.9l1.9-0.2c0.7-0.1,1.4,0.5,1.4,1
			C69.1,80.8,68.7,82.9,67.4,83z"/>
		<path class="st50" d="M63,83.5c-1,0.1-1.4,0.5-2.2-1.9c-0.2-0.7-0.3-1.4-0.3-1.8s0.6-0.9,1.1-0.9l1.9-0.1c0.8,0,1.4,0.5,1.4,1.1
			C64.9,81.2,64.2,83.4,63,83.5z"/>
		<path class="st43" d="M58.5,83.8c-1.1,0.1-1.4,0.5-2.2-2c-0.2-0.7-0.3-1.5-0.3-1.9c0.1-0.6,0.7-0.9,1.2-0.9l2-0.1
			c0.8,0,1.5,0.6,1.4,1.1C60.5,81.4,59.6,83.7,58.5,83.8z"/>
	</g>
	<g>
		<path class="st44" d="M28,78.6c0.7,0.2,1.6,0.3,2-0.9c0.2-0.5,0.3-0.9,0.3-1.2c0.1-0.3-0.1-0.7-0.6-0.8l-1.6-0.6
			c-0.5-0.1-1,0.1-1.1,0.5C27,76.6,26.8,78.3,28,78.6z"/>
		<path class="st45" d="M30,79.5c0.7,0.2,1.5,0.3,2-1c0.2-0.6,0.3-1,0.3-1.4c0.1-0.3-0.2-0.8-0.7-0.9L30,75.7
			c-0.6-0.1-1,0.1-1.1,0.6C28.9,77.5,28.8,79.2,30,79.5z"/>
		<path class="st46" d="M32.7,80.5c0.8,0.2,1.5,0.3,2-1.2c0.2-0.6,0.3-1,0.3-1.4c0-0.5-0.3-0.8-0.8-0.9l-1.7-0.5
			c-0.6-0.1-1.1,0.2-1.2,0.7C31.4,78.5,31.5,80.2,32.7,80.5z"/>
		<path class="st47" d="M35.9,81.4c0.8,0.1,1.5,0.3,2.2-1.4c0.2-0.6,0.3-1.1,0.3-1.5c0-0.5-0.3-0.8-0.9-0.9l-1.8-0.2
			c-0.6-0.1-1.2,0.2-1.2,0.8C34.4,79.3,34.7,81.2,35.9,81.4z"/>
		<path class="st48" d="M39.6,82.3c0.9,0.1,1.5,0.3,2.2-1.6c0.2-0.6,0.3-1.2,0.3-1.6c0-0.5-0.5-0.8-1-0.9L39.3,78
			c-0.7-0.1-1.2,0.3-1.2,0.9C38.1,80.2,38.4,82.1,39.6,82.3z"/>
		<path class="st49" d="M43.7,83c1,0.1,1.4,0.5,2.2-1.7c0.2-0.7,0.3-1.2,0.3-1.7s-0.5-0.9-1.1-0.9l-1.9-0.2c-0.7-0.1-1.4,0.5-1.4,1
			C41.9,80.8,42.5,82.9,43.7,83z"/>
		<path class="st50" d="M48.1,83.5c1,0.1,1.4,0.5,2.2-1.9c0.2-0.7,0.3-1.4,0.3-1.8s-0.6-0.9-1.1-0.9l-1.9-0.1
			c-0.8,0-1.4,0.5-1.4,1.1C46.2,81.2,46.9,83.4,48.1,83.5z"/>
		<path class="st43" d="M52.7,83.8c1.1,0.1,1.4,0.5,2.2-2c0.2-0.7,0.3-1.5,0.3-1.9C55.1,79.3,54.5,79,54,79l-2-0.1
			c-0.8,0-1.5,0.6-1.4,1.1C50.6,81.4,51.5,83.7,52.7,83.8z"/>
	</g>
	<g>
		<path class="st51" d="M81.9,69.4c0.9-0.2,2-0.5,2.4,0.8c0.1,0.5,0.2,0.9,0.2,1.2c0,0.3-0.3,0.8-0.8,0.9l-2,0.7
			c-0.7,0.2-1.2,0-1.2-0.5C80.3,71.6,80.3,69.9,81.9,69.4z"/>
		<path class="st52" d="M79.2,70.1c1-0.2,2.3-0.3,2.6,1c0.1,0.6,0.2,1,0.2,1.4c0,0.5-0.5,0.8-1,0.9L78.7,74
			c-0.7,0.2-1.4-0.1-1.4-0.6C77.2,72.4,77.4,70.4,79.2,70.1z"/>
		<path class="st53" d="M75.5,70.7c1-0.1,2.5-0.1,2.7,1.4c0.1,0.6,0.1,1.1,0.1,1.5c0,0.5-0.5,0.8-1.1,0.9L74.6,75
			c-0.8,0.1-1.5-0.2-1.5-0.8C73.1,72.8,73.4,70.9,75.5,70.7z"/>
		<path class="st42" d="M70.8,70.9c1.1-0.1,2.7,0,2.9,1.6c0.1,0.7,0.1,1.2,0,1.7c0,0.5-0.6,0.9-1.4,1l-2.8,0.3
			c-0.9,0.1-1.6-0.3-1.6-0.9C68.2,73.3,68.7,71.1,70.8,70.9z"/>
		<path class="st54" d="M65.5,71.1c1.2,0,2.9,0.1,3.1,1.9c0.1,0.7,0,1.4,0,1.8c-0.1,0.6-0.7,0.9-1.5,1L64,76c-0.9,0.1-1.7-0.5-1.7-1
			C62.5,73.5,63.1,71.2,65.5,71.1z"/>
		<path class="st55" d="M59.5,71.1c1.4,0,3.2,0.2,3.3,2.2c0,0.8,0,1.5-0.1,1.9c-0.1,0.6-0.8,1-1.6,1l-3.4,0.1c-1,0-1.8-0.6-1.7-1.2
			C56.1,73.6,56.9,71.1,59.5,71.1z"/>
	</g>
	<g>
		<path class="st51" d="M29.1,69.4c-0.9-0.2-2-0.5-2.4,0.8c-0.1,0.5-0.2,0.9-0.2,1.2c0,0.3,0.3,0.8,0.8,0.9l2,0.7
			c0.7,0.2,1.2,0,1.2-0.5C30.8,71.6,30.7,69.9,29.1,69.4z"/>
		<path class="st52" d="M31.9,70.1c-1-0.2-2.3-0.3-2.6,1c-0.1,0.6-0.2,1-0.2,1.4c0,0.5,0.5,0.8,1,0.9l2.3,0.6
			c0.7,0.2,1.4-0.1,1.4-0.6C33.9,72.4,33.8,70.4,31.9,70.1z"/>
		<path class="st53" d="M35.7,70.7c-1-0.1-2.5-0.1-2.7,1.4c-0.1,0.6-0.1,1.1-0.1,1.5c0,0.5,0.5,0.8,1.1,0.9l2.6,0.5
			c0.8,0.1,1.5-0.2,1.5-0.8C37.9,72.8,37.6,70.9,35.7,70.7z"/>
		<path class="st42" d="M40.2,70.9c-1.1-0.1-2.7,0-2.9,1.6c-0.1,0.7-0.1,1.2,0,1.7c0,0.5,0.6,0.9,1.4,1l2.8,0.3
			c0.9,0.1,1.6-0.3,1.6-0.9C42.9,73.3,42.5,71.1,40.2,70.9z"/>
		<path class="st54" d="M45.7,71.1c-1.2,0-2.9,0.1-3.1,1.9c-0.1,0.7,0,1.4,0,1.8c0.1,0.6,0.7,0.9,1.5,1l3.1,0.2
			c0.9,0.1,1.7-0.5,1.7-1C48.6,73.5,48,71.2,45.7,71.1z"/>
		<path class="st55" d="M51.7,71.1c-1.4,0-3.2,0.2-3.3,2.2c0,0.8,0,1.5,0.1,1.9c0.1,0.6,0.8,1,1.6,1l3.4,0.1c1,0,1.8-0.6,1.7-1.2
			C54.9,73.6,54.3,71.1,51.7,71.1z"/>
	</g>
</g>
</svg>
