<?xml version="1.0" encoding="utf-8"?>
<!-- Generator: Adobe Illustrator 25.1.0, SVG Export Plug-In . SVG Version: 6.00 Build 0)  -->
<svg version="1.1" id="Layer_1" xmlns="http://www.w3.org/2000/svg" xmlns:xlink="http://www.w3.org/1999/xlink" x="0px" y="0px"
	 viewBox="0 0 300 265" style="enable-background:new 0 0 300 265;" xml:space="preserve">
<style type="text/css">
	.st0{fill:#7C85CE;}
	.st1{fill:#575BA3;}
	.st2{fill:#F0F6F7;}
	.st3{fill:#FFFFFF;}
	.st4{opacity:0.15;}
	.st5{fill:#440919;}
	.st6{fill:#7A3920;}
	.st7{fill:#F4CFA2;}
	.st8{fill:#E2AC88;}
	.st9{fill:#3B4F5B;}
	.st10{fill:#33434F;}
	.st11{fill:#351C17;}
	.st12{fill:#874F26;}
	.st13{fill:#CA4456;}
	.st14{fill:#A53245;}
	.st15{opacity:0.2;fill:#A53245;enable-background:new    ;}
	.st16{fill:#8C5728;}
	.st17{fill:#FFC0DA;}
	.st18{fill:#ED98C1;}
	.st19{fill:#D37194;}
</style>
<g id="Objects">
	<g>
		<g>
			<g>
				<g>
					<polygon class="st0" points="300,265 0,265 33.6,211.1 266.4,211.1 					"/>
				</g>
				<g>
					<rect y="0" class="st1" width="299.9" height="163.5"/>
					<rect x="5.5" y="6.4" class="st2" width="289.1" height="150.5"/>
					<g>
						<path class="st3" d="M273.4,127c-11.1,16.3-20,29.5-19.8,29.7c0.1,0.2,9.3-12.9,20.4-29.2c11.1-16.3,20-29.5,19.8-29.7
							C293.7,97.6,284.5,110.7,273.4,127"/>
						<path class="st3" d="M292.4,80.4c-0.1-0.2-12,16.9-26.3,37.9c-14.4,21-26,38.2-25.8,38.4c0.1,0.2,12-16.9,26.3-37.9
							C280.9,97.7,292.5,80.5,292.4,80.4"/>
						<path class="st3" d="M290,43c-0.1-0.2-17.6,25-38.9,56s-38.6,56.3-38.4,56.5c0.1,0.2,17.6-25,38.9-56S290.1,43.1,290,43"/>
						<path class="st3" d="M287.2,9.9c-0.1-0.2-22.6,32.3-50.3,72.4s-49.9,72.9-49.7,73.1c0.1,0.2,22.6-32.3,50.3-72.4
							C265,42.8,287.3,10.1,287.2,9.9"/>
						<path class="st3" d="M242.4,10.4c-0.1-0.2-21.2,30.6-47.1,68.6s-46.7,69.1-46.4,69.3c0.1,0.2,21.2-30.6,47.1-68.6
							C221.6,41.6,242.5,10.5,242.4,10.4"/>
						<path class="st3" d="M204.5,8.6c-0.1-0.2-22.6,32.3-50.3,72.4s-49.9,72.9-49.7,73.1c0.1,0.2,22.6-32.3,50.3-72.4
							S204.6,8.7,204.5,8.6"/>
						<path class="st3" d="M102.4,81.6c-27.6,40.2-49.9,72.9-49.7,73.1c0.1,0.2,22.6-32.3,50.3-72.4s49.9-72.9,49.7-73.1
							C152.6,9,130,41.4,102.4,81.6"/>
						<path class="st3" d="M115.7,9.6C115.5,9.5,93,41.9,65.3,82.1c-27.6,40.2-49.9,72.9-49.7,73.1c0.1,0.2,22.6-32.3,50.3-72.4
							C93.5,42.5,115.8,9.8,115.7,9.6"/>
						<path class="st3" d="M67.9,11c-0.1-0.2-13.4,18.9-29.6,42.6C22.1,77.4,9.2,96.7,9.3,96.7c0.1,0.2,13.4-18.9,29.5-42.6
							C55.1,30.5,68.1,11.1,67.9,11"/>
						<path class="st3" d="M53.7,9.9C53.6,9.8,43,24.7,30.2,43.3S6.9,77,7.1,77.2c0.1,0.2,10.7-14.8,23.5-33.3
							C43.5,25.1,53.9,10.1,53.7,9.9"/>
					</g>
				</g>
			</g>
		</g>
		<g>
			<g class="st4">
				<g>
					<ellipse class="st5" cx="53.7" cy="236.7" rx="35.1" ry="9.1"/>
					<ellipse class="st5" cx="105.3" cy="236.7" rx="46.2" ry="9.1"/>
				</g>
				<g>
					<ellipse class="st5" cx="121.5" cy="244.2" rx="35.1" ry="9.1"/>
					<ellipse class="st5" cx="173.2" cy="244.2" rx="46.2" ry="9.1"/>
				</g>
				<g>
					<ellipse class="st5" cx="183.8" cy="237.6" rx="35.1" ry="9.1"/>
					<ellipse class="st5" cx="235.4" cy="237.6" rx="46.2" ry="9.1"/>
				</g>
			</g>
			<g>
				<path class="st6" d="M40.2,91.5c0,0-5.7-2.9-10.7,0c-5,2.8-3.5,6.6-5.3,8.6c-1.8,2.1-3.7,4.1-3.2,8.4c0.4,4.4,3.4,3.7,2.7,6.9
					c-0.6,3.4-1.2,4.6,0.6,7c1.8,2.5,2.4,2.2,2.4,5.4c0,3.2,3.8,11.5,15.4,8.4c11.5-3,16.4-6.7,18.7-11.5s1.8-9.1,0.4-11.9
					c-1.5-2.8-4.5-1.5-4.5-5.7s-3.9-3.6-5.3-6.9C49.7,97.2,46.4,89.7,40.2,91.5"/>
				<path class="st7" d="M93.5,179c-5.2-6.2-17.8-17.7-19.8-21.2c-1.9-3.4-9.7-25.8-9.5-26.4c0.2-0.6,8.5-9.5,11.2-13.9
					c2.8-4.4,4-5.3,1.7-12.3c-2.3-7-6.7-18.4-6.7-18.4l-6.4,2.2c0,0,6.5,20.3,5.9,21.9c-0.5,1.6-7.4,9.6-9.5,10.8
					c-1.7,1-8.2,3.8-10.4,4.8l-1.9-4.5l-6.7,2.8l2.4,4.9c-4.9,2.5-9.1,4.9-11.4,8.6c-3.1,5.2-10.3,15.5-9.2,20.7
					c1,5.2,12.6,22.6,12.6,22.6l5-3.9c0,0-10.3-19.2-10.4-20c-0.1-0.8,8.2-11.8,8.2-11.8s4.2,9.7,6.9,15.1c2.7,5.4,3.9,7.5,2.3,9.8
					c-1.6,2.4-5.2,5.7-9.7,10.5c-4.5,4.8-9.6,10.2-9.7,17.9c-0.1,7.8,2.8,30.1,2.8,30.1s7.4,0.3,7.5-0.2c0.1-0.5,1.1-28,1.1-28.5
					c0-0.5,2.1-1.4,6.9-5.2c4.9-3.8,14.5-12.4,15.4-12.6c0.9-0.3,7-1.2,8.4-0.9c1.4,0.3,53.2,42.6,53.2,42.6l4.3-2.7
					C120.7,210.5,98.7,185.1,93.5,179"/>
				<path class="st8" d="M68.7,92.7c1.4,0.1,2.1,0.9,3,1.9c2.8,3.2,3.9,7.4,4.1,11.6c0.2,4.3-0.2,8.5-1.7,12.5
					c-0.2,0.4-0.3,0.9-0.5,1.3c0.8-1,1.5-1.9,1.9-2.8c2.8-4.4,4-5.3,1.7-12.3c-2.3-7-6.7-18.4-6.7-18.4l-6.4,2.2
					c0,0,0.4,1.4,1.1,3.6C66.3,92.7,67.5,92.7,68.7,92.7z"/>
				<path class="st8" d="M29.2,156.5c-0.6,1.2,1,3.4,1.6,4.2c0.9,1.3,1.7,2.5,2.7,3.7c0.4,0.6,1,1.3,1.4,1.9
					c-2.3-4.3-4.3-8.3-4.4-8.6s1.3-2.3,2.9-4.5c-1.1-0.4-2.2-1-3.1-1.6c-1.4-0.9-2.7-1.9-4-2.9c-0.5,1.1-1.1,2.1-1.5,3
					c1,1.9,2.1,3.9,4.3,4.4C29.2,156,29.3,156.3,29.2,156.5z"/>
				<path class="st8" d="M48.7,126.5c0.3-0.3,0.6-0.6,0.9-1L48,122l-6.7,2.8l1.9,3.9C45.3,128.5,47.3,127.8,48.7,126.5z"/>
				<path class="st9" d="M93.5,179c-5.2-6.2-17.8-17.7-19.8-21.2c-1.9-3.4-9.7-25.8-9.5-26.4c0.2-0.5,6.8-7.8,10.3-12.4
					c-2.6-0.9-4.9-2.5-6.7-4.9c-2.4,2.9-5.8,6.7-7.2,7.6c-1.3,0.8-4.9,2.4-7.7,3.6c1,3.1,1.7,7.5-1.6,9.3c-1.8,1-4.3,1.4-6.1,0.2
					c-1.5-1-2.4-2.5-3.4-4c-3.9,2.1-7.2,4.2-9.2,7.5c-1.9,3.1-5.2,8-7.4,12.6c1.9,2.2,4.3,3.4,7.1,3.9c2.4-3.5,6.5-8.9,6.5-8.9
					s4.2,9.7,6.9,15.1c2.7,5.4,3.9,7.5,2.3,9.8c-1.6,2.4-5.2,5.7-9.7,10.5c-4.5,4.8-9.6,10.2-9.7,17.9c-0.1,7.8,2.8,30.1,2.8,30.1
					s7.4,0.3,7.5-0.2c0.1-0.5,1.1-28,1.1-28.5c0-0.5,2.1-1.4,6.9-5.2c4.9-3.8,14.5-12.4,15.4-12.6c0.9-0.3,7-1.2,8.4-0.9
					c1.4,0.3,53.2,42.6,53.2,42.6l4.3-2.7C120.7,210.5,98.7,185.1,93.5,179z"/>
				<path class="st10" d="M40.3,179.1c2.3-1.4,4.4-2.9,6.5-4.6c1.8-1.5,3.5-3.5,5.2-5.1c1.5-1.3,3.6-1.7,5.4-2.2
					c4.5-0.9,10.1-1.8,13.5-5c0.6-0.6,2.7-2.4,3.1-3.7c-0.2-0.2-0.3-0.5-0.4-0.8s-0.2-0.4-0.4-0.8c-1.1-0.2-2.6,0.5-3.2,0.9
					c-1.9,0.9-3.6,2.1-5.5,2.9c-3.2,1.4-6.9,2.7-10.5,2.7c-2.8,0-5.9-0.4-7.2-3.4c-1-2.3-1.1-4.6-1.7-6.9c-0.6-2.5-4-12.6-8.1-8.8
					c-2.1,2.1-3,5-4.8,7.2c-0.8,1-1.6,1.7-2.5,2.4c0.9,0.3,1.7,0.5,2.6,0.8c2.4-3.5,6.5-8.9,6.5-8.9s4.2,9.7,6.9,15.1
					c2.7,5.4,3.9,7.5,2.3,9.8C46.4,173,43.8,175.5,40.3,179.1z"/>
				<path class="st10" d="M118.3,217.4c-3.5-5.1-9.5-7.7-13-12.5c-0.6-0.6-1.3-1.2-1.9-1.7c-1.8-1.5-3.7-2.9-5.6-4.4
					c-3.8-3-7.2-6.4-10.9-9.5c-1.7-1.5-3.6-3.2-5.5-4.3c-1.4-0.9-3-1.5-4.1-2.9c-0.1-0.1-0.1-0.3,0-0.4c0.1-0.2,0.3-0.3,0.4-0.5
					c-2.1-0.8-4.3-0.9-6.5-0.9c-3.6,0.2-7.1,0.8-10.5,1.8c-3.9,1.2-6.9,3.9-10.1,6.4c-3,2.3-6.3,4.8-9.7,6.4
					c-1.2,0.5-3.6,1.4-3.9,2.8c-0.2,1.2,0.9,2.2,0.9,3.2c0,1-0.8,1.5-1.5,1.8c-1.6,0.6-0.9,5-1,6.4c-0.1,3.1-0.1,6.3,0.3,9.4
					c0.3,2.8,0.9,5.7,0.6,8.5c-0.1,0.9-0.2,1.7-0.4,2.6c1.5,0,2.8-0.1,2.9-0.3c0.1-0.5,1.1-28,1.1-28.5s2.1-1.4,6.9-5.2
					s14.5-12.4,15.4-12.6c0.9-0.3,7-1.2,8.4-0.9c1.4,0.3,53.2,42.6,53.2,42.6l0.4-0.2C121.5,222.5,119.6,219.4,118.3,217.4z"/>
				<path class="st10" d="M71.4,119c-2.4,2.5-4.6,5.2-7,7.7c-1.1,1.1-1.9,2.2-1.9,3.8c0,1.3,0.2,2.6,0.8,3.8
					c0.6,1.3,1.6,2.6,2.8,3.5c-1.2-3.5-1.9-6.1-1.9-6.3c0.2-0.5,6.8-7.8,10.3-12.4c-0.8-0.2-1.4-0.5-2.2-1
					C72,118.3,71.7,118.6,71.4,119z"/>
				<path class="st8" d="M30.6,113.8l1.5,4.5c0,0-1,3.9-3.9,1.3C25.2,117.1,25.8,111.6,30.6,113.8"/>
				<path class="st7" d="M48.1,105.3l2.1,5.5c0,0,2.4,0.2,3-2.1c0.6-2.3-1.2-5.3-3.2-5.5C48,103.2,48.1,105.3,48.1,105.3"/>
				<path class="st7" d="M32.7,98.1c-4.2,1.6-6.3,6.3-4.6,10.4l4.1,10.7c2.1,5.5,8.1,8.3,13.3,6.4c5.3-2.1,7.8-8.1,5.7-13.6
					l-4.9-12.9c-1.2-3-4.5-4.5-7.5-3.4L32.7,98.1z"/>
				<path class="st8" d="M29.4,112.1c0.9-0.3,1.6-0.8,2.2-1.5c0.9-1.1,1.3-2.3,1.9-3.5c0.9-1.8,3-3.5,4.9-4.3
					c1.7-0.9,3.5-0.6,5.3-0.6c1.1,0,2.6,0,3.7-0.5l-1-2.6c-1.2-3-4.5-4.5-7.5-3.4L32.9,98c-4.2,1.6-6.3,6.3-4.6,10.4L29.4,112.1z"/>
				<path class="st11" d="M35.5,113.5c-0.3-0.8-0.6-1-1-0.9c-0.3,0.1-0.4,0.5-0.1,1.3c0,0.1,0.2,0.4,0.2,0.5c0.3,0.8,0.6,1,1,0.9
					c0.3-0.1,0.4-0.5,0.1-1.3C35.7,114,35.5,113.7,35.5,113.5"/>
				<path class="st11" d="M45.7,109.3c-0.3-0.8-0.6-1-1-0.9c-0.3,0.1-0.4,0.5-0.1,1.3c0,0.1,0.2,0.4,0.2,0.5c0.3,0.8,0.6,1,1,0.9
					c0.3-0.1,0.4-0.5,0.1-1.3C46,109.9,45.7,109.4,45.7,109.3"/>
				<path class="st11" d="M51.8,105.5c-0.1-0.3-0.5-0.6-1-0.5c-0.2,0-0.5,0.1-0.6,0.4c-0.1,0.1-0.1,0.2-0.2,0.3
					c-0.1,0.1-0.1,0.3,0,0.4c0.1,0.3,0.2,0.5,0.4,0.6c0.1,0.2,0.3,0.3,0.4,0.5c0.3,0.3,0.4,0.5,0.3,0.6c0,0.1-0.2,0.3-0.2,0.3
					c-0.1,0.2-0.1,0.2-0.1,0.3c0,0,0.1,0.1,0.3-0.1c0.1-0.1,0.2-0.1,0.4-0.4c0.1-0.2,0-0.4-0.1-0.5c-0.1-0.2-0.2-0.3-0.3-0.5
					c-0.1-0.2-0.3-0.3-0.4-0.5c-0.1-0.2-0.3-0.3-0.3-0.5c0-0.2,0-0.3,0.2-0.5c0.1-0.2,0.3-0.2,0.4-0.3c0.4-0.1,0.8,0.1,0.9,0.3
					c0.1,0.2,0.1,0.4,0.1,0.4C51.8,106.1,51.8,105.9,51.8,105.5"/>
				<path class="st11" d="M30.3,118.2c-0.1,0-0.3-0.1-0.4-0.2c-0.1-0.1-0.2-0.3,0-0.8c0.1-0.2,0.2-0.4,0.3-0.6
					c0.1-0.3,0-0.6-0.2-0.9c-0.1-0.2-0.3-0.4-0.5-0.6c-0.2-0.2-0.4-0.3-0.8-0.3c-0.1,0-0.3,0.1-0.4,0.2c0,0.1,0,0.2,0,0.3
					c0,0.2,0,0.4,0,0.5c0.1,0.3,0.2,0.4,0.2,0.4s-0.1-0.2-0.1-0.4c0-0.1,0-0.3,0-0.4c0-0.2,0.1-0.3,0.3-0.3s0.3,0.2,0.5,0.3
					c0.2,0.2,0.3,0.3,0.4,0.5c0.1,0.2,0.2,0.4,0.1,0.5c-0.1,0.2-0.2,0.3-0.3,0.5s-0.2,0.4-0.1,0.6c0,0.2,0.2,0.4,0.3,0.4
					c0.3,0.2,0.4,0.2,0.6,0.2c0.2,0,0.3-0.1,0.3-0.1C30.6,118.3,30.5,118.2,30.3,118.2"/>
				<path class="st11" d="M34.9,109.8c-0.2-0.1-0.4-0.2-0.9-0.3c-0.4-0.1-0.9,0.1-1.3,0.3c-0.4,0.2-0.6,0.6-0.8,1.1
					c-0.2,0.8,0,1.3,0.1,1.3c0.1,0,0-0.5,0.2-1.2c0.1-0.3,0.3-0.6,0.6-0.8c0.3-0.2,0.6-0.2,1-0.2c0.6,0.1,0.9,0.3,1.1,0.4
					c0.2,0.1,0.2,0.1,0.2,0c0,0,0.1-0.1,0-0.3C35.1,110.1,35,110,34.9,109.8"/>
				<path class="st11" d="M44.8,105c-0.2-0.1-0.4-0.1-0.6-0.1s-0.4,0.1-0.6,0.2c-0.4,0.3-0.5,0.6-0.8,1c-0.3,0.6-0.3,1.1-0.3,1.3
					c0,0.2,0,0.2,0.1,0.2c0.1,0,0.1,0,0.2-0.2c0.1-0.2,0.2-0.5,0.4-1.1c0.1-0.3,0.3-0.6,0.5-0.9c0.2-0.2,0.6-0.2,1-0.1
					c0.6,0.2,1.1,0.5,1.2,0.4C45.8,105.9,45.5,105.3,44.8,105"/>
				<path class="st11" d="M41.4,117.7c0.1,0,0.2,0,0.3,0c0.2,0,0.4,0,0.5,0.1c0.3,0,0.5,0,0.5,0s-0.2-0.1-0.4-0.2
					c-0.1,0-0.3-0.1-0.5-0.1c-0.1,0-0.2,0-0.3-0.1h-0.2c-0.1,0-0.1,0-0.1,0s0,0,0-0.1c0.1-1.1,0.4-2.1,0.2-2.1
					c-0.1,0-0.5,0.9-0.6,2.1c0,0.1,0,0.4,0.2,0.5c0.1,0,0.2,0.1,0.2,0.1L41.4,117.7z"/>
				<path class="st11" d="M44.7,119.8c-0.4,0.6-1.3,1.1-1.9,1.3c-0.6,0.1-1.1,0-1.2,0c-0.2,0-0.2,0-0.3,0c0,0-0.1,0.1,0.1,0.2
					c0.2,0.1,0.6,0.3,1.5,0.2c0.4-0.1,0.9-0.3,1.2-0.5c0.4-0.3,0.6-0.6,1-1c0.4-0.6,0.6-1.3,0.5-1.3
					C45.4,118.6,45.2,119.2,44.7,119.8"/>
				<path class="st6" d="M47.7,99.9c0,0-2.1,1.5-5.4,0.5c-3.5-1-4.1-4.1-4.3-3.7c-0.3,0.4,0.3,4.1-2.5,5.9c-2.7,1.8-4.1,1-4.3,4.6
					s-1.5,4.6-3.7,4.9c-2.2,0.3-4.1-13.8,3.4-17.4C38.4,91.3,47.3,94.1,47.7,99.9"/>
				<path class="st12" d="M25.6,103.7c0.3,0.4,1.2-0.1,1.4-0.4c1.4-1.2,2.2-2.9,3.6-4.1c0.1-0.1,0.3-0.1,0.4,0
					c0.3,0.4,0.8,0.5,1.1,0.9c0.5-0.6,1.1-1.3,1.7-1.8c0.1-0.1,0.3-0.1,0.4,0l0.3,0.3c0.4-0.6,0.6-1.3,0.5-2.1
					c0-0.2,0.2-0.3,0.3-0.3c0.8,0.1,1.6,0.2,2.4,0.4c0-0.3,0.1-0.6,0.1-1c0-0.2,0.2-0.3,0.3-0.3c2.6,0.5,5,1.4,7.7,1.3
					c0-0.3-0.1-0.5-0.2-0.9c-3.1-2.9-9.4-3.8-14.9-1.2C27.5,96.5,26,100.1,25.6,103.7L25.6,103.7z"/>
				<path class="st13" d="M45.5,161.1c1.2,2.4,1.8,3.8,2.2,4.6c1.6,0.3,3.5,0.1,4.9-0.1c2.3-0.3,4.5-1,6.8-1.7
					c2.9-0.9,5.9-1.5,8.6-3c2.3-1.3,3.8-3,4.6-5.2c-2.3-5.2-6.4-17.2-7.9-22.2c-4.6-2.1-6.9-7.8-7.7-10.3c-2.1,1-4.4,1.9-5.9,2.7
					c1.9,3,0,8-3.6,7.7c-2.7-0.2-4-2.4-4.5-3.6c-2.2,1.2-4.2,2.3-6.1,3.6c0.9,1.5,1.7,3.7,2.4,6.5c1.1,4.3,0.8,6.6,0.2,7.8
					C40.9,151.1,43.6,157.2,45.5,161.1z"/>
				<path class="st14" d="M71.4,152.5c-3,5.6-10.3,9.6-16.4,9.2c-3.9-0.2-7.1-2.1-9.2-5.5c-1.3-2.2-2.1-4.5-2.8-6.9
					c-0.6-1.8-1.5-4.1-3-5.5c0.2,2.2-0.1,3.5-0.4,4.2c1.4,3.1,4.1,9.3,5.9,13.2c1.2,2.4,1.8,3.8,2.2,4.6c1.6,0.3,3.5,0.1,4.9-0.1
					c2.3-0.3,4.5-1,6.8-1.7c2.9-0.9,5.9-1.5,8.6-3c2.3-1.3,3.8-3,4.6-5.2C72.3,154.8,71.9,153.7,71.4,152.5z"/>
				<path class="st3" d="M37.7,133c-0.3,0.2-0.6,0.4-0.9,0.6c0.9,1.5,1.7,3.7,2.4,6.5c1.1,4.3,0.8,6.6,0.2,7.8
					c0.3,0.6,0.6,1.4,1.1,2.4c0.5-2.1,1-5.2,0.3-8.5C40.1,137.7,38.6,134.5,37.7,133"/>
				<path class="st3" d="M65.4,135.8c-0.3-0.9-0.5-1.6-0.8-2.2c-4.6-2.1-6.9-7.8-7.7-10.3c-0.4,0.2-1,0.4-1.4,0.6
					c0.6,1.8,2.1,5.3,5.1,8.6C62.3,134.5,64,135.4,65.4,135.8"/>
				<path class="st3" d="M49.5,134.7c4.5-2.2,4.2-6.9,2.9-9.4c-0.5,0.2-1,0.4-1.4,0.6c1.9,3,0,8-3.6,7.7c-2.7-0.2-4-2.4-4.5-3.6
					c-0.4,0.2-0.8,0.4-1.2,0.6C43,132.7,46.1,136.4,49.5,134.7"/>
				<path class="st13" d="M73.6,157.8c-0.2-0.3-0.5-1-0.9-1.7c-1.9,2.3-5.5,5.3-11,7c-6.6,2.2-11.8,2.3-14.4,2.1
					c0.5,1.3,0.6,1.7,0.8,1.8c2.5,0.3,6.5,0.1,12.4-1.8c7.8-2.6,11.5-5.5,13.1-7.2C73.7,157.9,73.7,157.9,73.6,157.8"/>
				<path class="st7" d="M39.3,176.4c0,0,4,1.5,6.1,2.8c2.1,1.3,3.9,5.2,3.5,5.9c-0.4,0.6-1.4,0.9-2.7-0.5c-1.4-1.4-2.1,0.8-2.1,0.8
					l-0.5,1.3c1.4,2.3-0.2,3.1-1.2,2.8c-0.9-0.3-2.6-3.1-3-3.8c-0.5-0.5-1.8-0.5-3.7-2.7s-0.8-3.9-0.8-3.9"/>
				<path class="st7" d="M41.5,184.6c0,0,1.9,3.5,2.6,4.3s3.6,0.8,1.4-3.8l-0.8-1.6"/>
				<path class="st7" d="M45.1,182c0,0,1.8,2.5,2.8,4.5c1,2.2-1,2.3-1.9,1c-1-1.4-2.6-4-2.6-4"/>
				<path class="st13" d="M123,224.2c1.3-0.9,3.1-1.8,3.7-2.5c0.5-0.6,1.4-1.3,2.5-0.1c1.2,1.2,1.4,2.9,1.8,3.7s3.1,5.8,4.5,8.4
					c1.4,2.6,1.3,4.1,0.9,5.1c-0.4,1-1.7,2.1-6.1,1.9c-4.3-0.1-5.4-2.4-5.6-5.1c-0.2-2.7-0.3-6.9-0.9-8.6
					C123.4,225.4,122.6,224.5,123,224.2"/>
				<path class="st3" d="M130.9,225c-0.3-0.9-0.6-2.4-1.7-3.5c-1.2-1.2-1.9-0.5-2.5,0.1c-0.5,0.6-2.4,1.6-3.7,2.5
					c-0.4,0.3,0.3,1.2,0.9,2.9c0,0,0,0,0,0.1c1.1,0.2,2.6,0,4.5-0.4C130,226.4,130.7,225.7,130.9,225"/>
				<path class="st3" d="M136.4,238.9c0.4-1,0.5-2.4-0.6-4.8c-1.3-0.5-3.1-1-5.7-0.6c-2.8,0.3-4.3,1.5-5.3,2.7
					c0.3,2.5,1.5,4.5,5.6,4.5C134.7,240.8,136,239.8,136.4,238.9"/>
				<path class="st15" d="M136.4,238.9c0.3-0.6,0.4-1.4,0.1-2.7c-0.6,1.4-2.1,2.8-5.1,2.8c-3.5,0.1-5.6-1.8-6.8-3.6
					c0,0.1,0,0.2,0,0.3c0.2,2.7,1.4,5,5.6,5.1C134.7,240.8,136,239.8,136.4,238.9"/>
				<path class="st3" d="M38.6,229.2c0-0.1,0.1-1.1,0.1-2.7c-1.5,0.5-4.4,1.4-7.9,0.6c0.2,1.4,0.3,2.3,0.3,2.3
					S38.5,229.7,38.6,229.2"/>
				<path class="st13" d="M34.9,228.5c2.2-0.1,3.6-1.4,4-0.6c0.4,0.8,0.4,4.4,0.6,5c0.2,0.5,0.6,1.2-0.2,1.9s-4.9,2.6-10.5,4.1
					c-5.6,1.5-8.4-0.2-8.4-1.4s0.1-1.8,1.6-2.9c1.5-1.2,8.5-5.9,8.8-6.2c0.3-0.2,0.6-0.3,1.6,0C33.5,228.6,34.9,228.5,34.9,228.5"/>
				<path class="st3" d="M30.2,234c-0.6-1.4-2.2-2.4-3.5-2.8c-1.9,1.3-4,2.7-4.6,3.4c-1.5,1.2-1.5,1.8-1.6,2.9
					c0,1.2,2.8,2.9,8.4,1.4c0.4-0.1,1-0.2,1.4-0.4C30.6,237,30.8,235.4,30.2,234"/>
				<path class="st15" d="M39.6,232.8v-0.1c-1.4,1.3-4.3,3-10.4,4.4c-5.2,1.2-7.5,0.2-8.5-1c-0.1,0.4-0.1,0.8-0.2,1.3
					c0,1.2,2.8,2.9,8.4,1.4s9.6-3.4,10.5-4.1S39.7,233.3,39.6,232.8"/>
				<path class="st7" d="M62.6,81.7c0,0-1.5-4.3-2.4-5.7c-0.9-1.3-2.6-0.4-2.1,1.5c0.5,1.9,4.6,11.8,4.6,11.8s2.3,3.4,6.8,1
					c0,0,2.7-1,2.3-4.3c-0.3-3.4-3.6-9.9-4.1-10.7c-1.1-1.5-3.1,0-2.3,3"/>
				<path class="st8" d="M69.3,87.9c0.3-1.2,0.3-3-0.5-4.1c-0.4-0.3-0.9-0.5-1.4-0.8c-2.1-0.3-3.2,2.3-3.5,3.9
					c0,0.2-0.2,0.3-0.3,0.2c0.1,0.6,0.3,1.3,0.5,1.7C65.5,91.6,68.4,90.4,69.3,87.9z"/>
				<path class="st7" d="M67.4,80.4c0,0-1-2.9-1.6-4.6c-0.6-1.7-1.6-2.5-2.6-2.2c-1.1,0.4-0.3,2.9,0,4.3l0.6,2.3v0.5"/>
				<path class="st7" d="M65,80.8c0,0-1.4-4.5-2.3-6.2c-0.9-1.6-3.1-1.5-2.2,1.6c1.1,3.2,1.9,5.5,1.9,5.5"/>
				<path class="st7" d="M68,90.7c0,0-2.9,1.2-5.8-0.1c-2.9-1.3-4.8-4.3-5.3-5.5c-0.5-1.2,1.4-2.5,2.6-1c1.2,1.5,2.1,2.9,2.3,2.6
					c0.2-0.2,3.4-1.1,4.4,1.1"/>
			</g>
			<g>
				<path class="st6" d="M168.4,99.2c0,0,1.2-5,9.1-7c7.9-2.1,13.7,2.7,18.8,13.7c5,11,10.9,19.9-6.2,22.8c0,0-8.2,1.7-10.9,2.9
					c-2.7,1.2-5.2,4-8.6,1.2c-3.5-2.9-4.3-12.8-5.3-20.8C164.2,104,165.7,100.8,168.4,99.2"/>
				<path class="st6" d="M198.2,121.7c0,0,1.3,6.3-6.8,6.7c-8.1,0.4-7.9,1.2-9.8,2.5c-1.9,1.4-6.3,7.2-8.6-0.8"/>
				<path class="st6" d="M194.3,122.7c0,0,1.3,3.7-2.3,6.6c-3.6,2.9-11.1,5.3-13.7,0.8"/>
				<path class="st7" d="M207.5,115.6c0,0,4.1-4.8,4.1-5.3S205,86.7,205,86.7l5.6-3.2c0,0,4.8,12.4,7.1,19.9c2.4,7.5,2.9,8-0.4,12.8
					c-3.4,4.8-6.5,8.8-6.5,8.8L207.5,115.6z"/>
				<path class="st8" d="M219.2,108.5c-0.1,1.2-0.3,2.4-0.9,3.6c-0.8,1.9-2.6,4.2-4.9,4.2c-1.8-0.1-3.4-1.1-4.5-2.3
					c-0.8,1-1.4,1.7-1.4,1.7l3.1,9.3c0,0,3.1-4,6.5-8.8C219.5,112.8,219.9,111.5,219.2,108.5z"/>
				<path class="st9" d="M204.1,132.8c0,0,9.9,23.4,10.3,24c0.3,0.6,2.7,5,10.8,12.3s16.4,20.4,19.9,24.9c3.5,4.3,7.2,4.5,14.4,14.3
					c7.1,9.6,11.4,14.4,12.8,16.6c1.2,2.1-3.4,4.5-8.2,0.9c-4.9-3.7-16.4-13.7-22.2-19.5c-5.7-5.7-7.2-6.1-15.6-13.5
					s-13.7-12-14.3-12c-0.5,0-7.2,0.4-8,1c-0.8,0.5-25,17.7-25.6,18.6c-0.6,1,1.9,29.9,1.9,30.7s-6.8,1.4-6.8,1.4
					s-5.8-31.9-6.5-36.4c-0.8-4.5,6.7-10.2,10.9-14.3c4.2-4.2,10.7-8.1,11.1-9.3c0.3-1.2,0.6-6.5,0.1-8.1s-8.9-22.1-8.9-22.1"/>
				<path class="st10" d="M189,161.6c3.2-0.9,6.4-2.1,9.4-3.4c4.6-2.1,9.5-4.1,13.4-7.4c-3-7.1-7.7-17.9-7.7-17.9l-23.9,9.4
					c0,0,5.5,13.6,7.9,19.5C188.4,161.7,188.7,161.6,189,161.6z"/>
				<path class="st10" d="M267.6,225.1c-3.7-1.5-7.2-3.5-10.2-6.3c-1.6-1.5-3-3.1-4.6-4.8c-1.6-1.5-3.4-2.9-5-4.3
					c-3.1-2.7-6.1-5.7-8.2-9.3c-0.1-0.1,0-0.2,0-0.3c-3.4-3.9-6.4-8-10.1-11.6c-2.2-2.1-4.5-4.2-6.9-5.9c-1.9-1.3-4.4-1.9-5.9-3.8
					c-0.1-0.1-0.1-0.3,0-0.4c0.2-0.2,0.8-0.4,0.3-0.5c-0.3-0.2-0.6-0.3-1.1-0.4c-0.6-0.1-1.3-0.2-1.9-0.2c-1.4,0-2.8,0.2-4.2,0.4
					c-2.4,0.4-4.9,0.3-7.4,0.8c-1,0.2-4.5,0.8-3.9,2.4c0.3,0.8,0.6,1.5,0.2,2.3c-0.9,1.5-3.5,1.9-5,2.5c-3,1.1-5.8,2.9-8.8,4.2
					c-2.5,1.1-5.5,2.3-8.3,2.2c-1.6,0-5.4-0.3-7.2-1.7c-1.6,2.1-2.6,4-2.4,5.8c0.8,4.5,6.5,36.4,6.5,36.4s6.8-0.8,6.8-1.4
					c0-0.8-2.6-29.7-1.9-30.7c0.6-1,24.8-18.2,25.6-18.6c0.8-0.5,7.5-1,8-1c0.5,0,5.8,4.4,14.3,12s9.8,7.8,15.6,13.5
					c5.7,5.7,17.3,15.7,22.2,19.5c3.8,2.9,7.4,2.1,8.2,0.5C270.6,226.1,269.1,225.7,267.6,225.1z"/>
				<path class="st7" d="M177,150.8c0,0-3.5,5.6-3.4,6.4c0.1,0.8,9.5,21.3,9.5,21.3l-5.2,3.2c0,0-9-17.8-10.7-22.7
					c-1.7-4.9,3.9-13.1,3.9-13.1L177,150.8z"/>
				<path class="st8" d="M175.2,153.9c0.9-1.6,1.8-3.1,1.8-3.1l-5.8-4.9c0,0-1.5,2.3-2.7,5.1C170.4,152.6,172.7,153.8,175.2,153.9z"
					/>
				<path class="st13" d="M188,127.5c0,0,11.2-4.4,12.3-5c1.1-0.5,8.1-8.3,8.1-8.3s3.1,4.3,6.5,6.8l-9.1,9.9c0,0,6.2,16.2,6.4,16.8
					c0.2,0.5-1.1,2.1-10.1,5.8c-9,3.8-15.2,5.2-17.5,4.5l-4.2-12.4l-3.2,6.8c0,0-4.9-1.5-7.9-5c0,0,6.7-13.4,7.8-14.4
					C178,132,182.6,129.9,188,127.5"/>
				<path class="st14" d="M211.4,122c-1,1.5-2.2,2.9-3.2,4.3c-1,1.2-2.3,2.6-2.7,4.1c-0.4,1.7,0.4,3,1.7,4.1
					c-0.8-2.1-1.4-3.6-1.4-3.6l9.1-9.9c-0.6-0.5-1.3-1.1-1.9-1.6C212.5,120.5,211.8,121.4,211.4,122z"/>
				<path class="st14" d="M209.7,149.8c-2.1,1.3-4.3,2.5-6.6,3.5c-4.9,1.9-12,4.1-16.6,0.5c-1.7-1.3-2.3-3.9-2.8-5.8
					c-0.5-2.2-1.2-5.5-3.6-6.3c-1.4,3.7-3.9,6.8-7,9.1c2.2,1.3,4,1.8,4,1.8l3.2-6.8l4.2,12.4c2.3,0.6,8.5-0.8,17.5-4.5
					c8.1-3.5,9.9-5,10.1-5.6C211.4,148.7,210.5,149.2,209.7,149.8z"/>
				<path class="st7" d="M193.9,125.2c-1,0.4-1.9,0.8-2.8,1.1l-1.8-4l-5.9,2.5l2.1,4c-1,0.4-1.8,0.9-2.7,1.3
					c1.2,2.8,4.2,6.7,9.1,3.9C195.9,131.5,194.6,127,193.9,125.2"/>
				<path class="st8" d="M190.2,124.5l-1.1-2.2l-5.9,2.5l1.8,3.5C187.2,127.8,189.3,126.5,190.2,124.5z"/>
				<path class="st9" d="M193.9,125.2c-0.3,0.1-0.6,0.2-1,0.4c0.3,1.7-0.9,3.6-2.5,4.5c-2.2,1.3-4.8,0.9-6.6-0.6
					c-0.4,0.2-0.8,0.3-1.2,0.5c1.2,2.8,4.2,6.7,9.1,3.9C195.9,131.5,194.6,127,193.9,125.2z"/>
				<path class="st13" d="M202,165.8c6.6-2.1,11.2-5.1,13.7-6.9c-0.9-1.2-1.2-1.9-1.3-2.2c0,0-0.1-0.2-0.1-0.3
					c-1.5,1.2-5.3,3.7-11.9,6.1c-6.7,2.4-11.2,2.8-13.1,2.8c0.1,0.8,0.1,1.7,0.1,2.7C192.1,168,196.3,167.6,202,165.8"/>
				<path class="st7" d="M181.3,175.8c0,0,1.8,0,3.9,1.1c2.1,1.1,3.5,2.1,4.1,3c0.6,1,3.1,5.4,1.9,5.9s-2.4-2.1-3-2.4
					c-0.8-0.3-3.5,0.8-2.8,2.2c0.8,1.4,1.6,3.7,0.3,3.9c-1.3,0.3-2.2-3-3.1-4c-1-0.9-4.3-2.5-5.2-4s-0.6-2.5-0.5-3.1"/>
				<path class="st7" d="M184.1,184.7c2.5,3.9,2.3,5.4,4,5c1.7-0.4-1-5.5-1-5.5l-0.4-1.1"/>
				<path class="st7" d="M187.8,181.3c0,0,3.6,6.2,2.5,7c-1.1,0.9-2.3-1.4-3-3.4c-0.9-1.8-1.1-2.2-1.1-2.2"/>
				<path class="st7" d="M203.2,86.2c0,0-3-7.1-3.7-9.7c-0.8-2.7,1-4.2,2.3-1.6c1.2,2.6,2.3,4.9,2.3,4.9l0.8-0.2
					c0.8,1.3,2.6-2.7,1.8-4.4c-0.8-1.7,1.4-2.7,2.6-0.4c1.1,2.3,2.7,5.5,3.6,9.3c0.9,3.8-1.5,5.1-1.5,5.1s-3.1,1.6-4.9,1.4
					C204.6,90.2,203.2,86.2,203.2,86.2"/>
				<path class="st8" d="M208.2,81.8c-1.3,0.4-3.4,0.5-2.9,2.3c0.3,1.1,1.4,3.5,2.8,2.6C210.1,85.7,210.5,82.3,208.2,81.8z"/>
				<path class="st7" d="M209.9,89.3c0,0-2.7,1.9-5.6,0.6c-3-1.3-5.2-3.2-5.9-5c-0.8-1.7,1.4-2.4,2.5-1.2c1.1,1.2,1.9,1.9,2.3,1.9
					c0.3,0,2.3-1.6,4.3,0.5"/>
				<path class="st7" d="M208.5,79c0,0-2.2-5.1-2.9-6.4s-3-0.8-2.1,2.2c1,2.8,1.5,4.8,1.5,4.8"/>
				<path class="st7" d="M203.7,80.6c0,0-2.2-5.1-2.6-7.1c-0.4-2.1,1.3-2.5,2.3-0.3c1,2.2,2.7,6.7,2.7,6.7"/>
				<path class="st8" d="M202.8,81.4c0,0,2.7-1.5,7.1-2.1"/>
				<path class="st7" d="M189.6,107.8l2.1,5.2c0,0,2.3,0.1,2.9-2.1c0.6-2.2-0.1-5.3-2.2-5.4C190.4,105.4,189.6,107.8,189.6,107.8"/>
				<path class="st8" d="M172.7,113.3l1.9,5.4c0,0-1.4,3-4.3,0.4C167.3,116.6,168.7,111.4,172.7,113.3"/>
				<path class="st11" d="M192.9,107.2c-0.1-0.1-0.3-0.1-0.5-0.1h-0.1c-0.2,0-0.5,0.2-0.6,0.4c-0.1,0.1-0.1,0.2-0.2,0.3
					c0,0.1-0.1,0.3,0,0.4c0.1,0.3,0.2,0.4,0.3,0.6l0,0c0.1,0.1,0.2,0.2,0.3,0.4l0.1,0.1c0.1,0.1,0.4,0.5,0.4,0.8
					c0,0.1-0.1,0.2-0.2,0.3c0,0,0,0-0.1,0.1c-0.1,0.2-0.1,0.2-0.1,0.2s0,0,0.2-0.1c0,0,0,0,0.1,0c0.1-0.1,0.2-0.2,0.3-0.4
					c0-0.1,0-0.3-0.1-0.5c-0.1-0.2-0.2-0.3-0.3-0.5c-0.1-0.1-0.1-0.1-0.2-0.2c-0.1-0.1-0.2-0.2-0.2-0.3c-0.1-0.2-0.3-0.4-0.3-0.5
					c-0.1-0.2,0-0.4,0.1-0.5c0.1-0.2,0.2-0.3,0.5-0.3c0.4-0.1,0.8,0.1,0.9,0.4c0,0.1,0,0.1,0.1,0.2c0,0,0-0.1,0-0.2
					C193.2,107.5,193.1,107.3,192.9,107.2"/>
				<path class="st11" d="M172.2,118.1L172.2,118.1c-0.2-0.1-0.3-0.1-0.4-0.2c-0.2-0.2-0.2-0.4,0-0.8l0.1-0.1
					c0.1-0.1,0.2-0.3,0.2-0.5c0.1-0.3,0-0.6-0.2-0.9c-0.1-0.2-0.3-0.4-0.5-0.6c-0.2-0.2-0.4-0.3-0.6-0.3l0,0c-0.1,0-0.3,0.1-0.3,0.2
					c-0.1,0.1-0.1,0.2-0.1,0.3c0,0.2,0,0.3,0,0.5c0,0.1,0,0.1,0.1,0.2c0-0.1,0-0.1,0-0.2c0-0.2,0-0.3,0-0.5c0-0.1,0.1-0.2,0.1-0.2
					c0.1-0.1,0.1-0.1,0.2-0.1l0,0c0.2,0,0.3,0.2,0.5,0.3c0.2,0.2,0.3,0.3,0.4,0.5c0.1,0.2,0.2,0.4,0.1,0.6c0,0.1-0.1,0.2-0.2,0.4
					c0,0.1-0.1,0.1-0.1,0.2c-0.1,0.2-0.2,0.4-0.1,0.6c0,0.3,0.2,0.4,0.3,0.4c0.2,0.1,0.4,0.2,0.5,0.2l0,0c0.1,0,0.2,0,0.2-0.1
					C172.4,118.2,172.4,118.2,172.2,118.1"/>
				<path class="st7" d="M174.3,99.3c-3.9,1.5-5.8,5.8-4.3,9.6l4.1,10.8c2.1,5.4,7.8,8.1,13,6.2c5.1-1.9,7.6-7.9,5.6-13.2l-3.6-9.5
					c-1.7-4.6-6.9-6.9-11.5-5.2L174.3,99.3z"/>
				<path class="st8" d="M170.1,109.2c0.1-0.1,0.1-0.1,0.2-0.2c0.9-0.6,2.7,0.4,3.7,0.3c1-0.1,7.6-0.5,6.4-2.3
					c-0.1-0.2,0.1-0.4,0.2-0.4c1.8-0.2,3.6-0.5,5.3-1.2c1-0.3,2.5-0.8,3.4-1.6l-0.3-0.8c-1.7-4.6-6.9-6.9-11.5-5.2l-3.2,1.2
					c-3.9,1.5-5.8,5.8-4.3,9.6L170.1,109.2z"/>
				<path class="st11" d="M174.2,111.6c0,0-0.2-0.4-0.1-1.2c0.1-0.3,0.4-0.6,0.8-0.9c0.3-0.2,0.8-0.2,1.1-0.2c0.6,0.1,1,0.4,1.1,0.5
					c0.1,0.1,0.1,0.2,0,0.2c0,0-0.1,0.1-0.2,0c-0.1,0-0.4-0.2-1-0.3c-0.5-0.1-1.2,0.2-1.4,0.8C174.2,111.2,174.3,111.6,174.2,111.6"
					/>
				<path class="st11" d="M187.2,106.4c0,0.1-0.4-0.1-1.1-0.2c-0.3,0-0.6-0.1-0.9,0c-0.2,0.1-0.4,0.3-0.6,0.5
					c-0.3,0.4-0.4,0.8-0.5,0.9c-0.1,0.1-0.1,0.1-0.2,0.1s-0.1,0-0.1-0.2c0-0.2,0.1-0.5,0.4-1.1c0.2-0.2,0.5-0.5,0.9-0.6
					c0.4-0.1,0.8,0,1.1,0C186.8,106,187.3,106.3,187.2,106.4"/>
				<path class="st11" d="M184,118.3c0,0-0.2,0-0.5-0.1c-0.1,0-0.3-0.1-0.5-0.2c-0.1,0-0.2-0.1-0.3-0.1l-0.2-0.1
					c-0.1,0-0.1,0-0.2-0.1c0-0.1-0.1-0.1-0.1-0.2c0-0.2,0-0.3,0-0.4s0.1-0.2,0.1-0.3c0.1-0.2,0.2-0.4,0.2-0.5
					c0.1-0.3,0.3-0.5,0.3-0.5c0.1,0,0,0.2-0.1,0.6c0,0.2-0.1,0.4-0.1,0.6c0,0.1,0,0.2-0.1,0.3c0,0.1,0,0.3,0,0.3l0,0
					c0,0,0.1,0,0.1,0.1l0.1,0.1c0.1,0.1,0.2,0.1,0.3,0.1c0.2,0.1,0.3,0.2,0.5,0.3C183.9,118.1,184,118.3,184,118.3"/>
				<path class="st11" d="M177.5,113.3c-0.3-0.9-0.8-1.1-1.2-1c-0.3,0.1-0.5,0.6-0.1,1.5c0,0.1,0.2,0.5,0.3,0.6
					c0.3,0.9,0.8,1.1,1.2,1c0.3-0.1,0.5-0.6,0.1-1.5C177.7,113.9,177.5,113.4,177.5,113.3"/>
				<path class="st11" d="M187.2,109.5c-0.3-0.9-0.8-1.1-1.2-1c-0.3,0.1-0.5,0.6-0.1,1.5c0,0.1,0.2,0.5,0.3,0.6
					c0.3,0.9,0.8,1.1,1.2,1c0.3-0.1,0.5-0.6,0.1-1.5C187.4,110.2,187.2,109.7,187.2,109.5"/>
				<path class="st13" d="M183.6,120.7c1.5-0.2,2.7-1.1,3.4-1.6c0.8-0.4,1.1-0.4,1,0.5s-1.2,2.3-2.9,2.6
					C183.4,122.5,182.2,120.9,183.6,120.7"/>
				<path class="st6" d="M170.1,111.2c0,0-0.4-3.8,0.2-5.6c0,0,1.4,3.8,8.4,2.2c0,0-2.9-1.9-3.5-4.2c0,0,3.8,3.9,14.5-0.1
					c0,0-1.5-9-4.2-9s-20,4.1-19.4,9.3C166.8,108.8,170.1,111.2,170.1,111.2"/>
				<path class="st16" d="M175.3,100.5c1-0.2,1.9,0,2.9,0.3c1.6,0.4,2.9,0.6,4.6,0.3c1.4-0.3,2.9-0.6,4.1-1.5c1-0.8,1.8-2.2,0.6-3.1
					c-0.5-0.4-1.2-0.6-1.8-0.6c-1.1,0-9.9,0.8-9.4,2.2c0.1,0.2,0,0.4-0.2,0.4c-1.8-0.1-3.6,0.2-5.3,1c-1.4,0.5-3.9,1.6-3.8,3.4
					c0.5,0.9,1.1,1.1,1.5,0.4c0.4-0.4,0.8-0.8,1.1-1.3c0.1-0.1,0.3-0.2,0.4-0.1c0.4,0.5,1.7,0.8,1.3-0.3c-0.1-0.2,0.1-0.4,0.3-0.3
					c0.8,0.3,3.9,1.7,3.2-0.2C174.9,100.7,175,100.5,175.3,100.5z"/>
				<path class="st13" d="M270.7,225.2c0.4-0.1,1-0.6,1.8,0.5c0.9,1.1,5.5,8.5,6.3,10.1c0.8,1.6,0.8,4.3,0.5,4.8
					c-0.2,0.4-1.4,2.1-6.3,2.1c-4.9,0-6.6-3.9-7-6.3c-0.4-2.3-0.6-7.5-1-8.8C264.8,226.2,269.8,225.6,270.7,225.2"/>
				<path class="st3" d="M268.1,225.1c-1.1,0.6-2.3,0.9-3.1,0.8c-1-0.1-1,0.4-0.2,1.6c0.8,1.3,2.2,1.5,4.4,0.9
					c2.4-0.6,3.4-2.2,3.5-2.9s-1.2-3.2-1.6-2.8C270.5,223.1,269.9,224,268.1,225.1"/>
				<path class="st3" d="M279.2,240.6c0.1-0.4,0.2-3.1-0.5-4.8c-0.2-0.4-0.8-1.4-1.4-2.5c-1.3-0.3-3-0.4-5.5,0
					c-3,0.4-4.8,1.6-5.7,3.1c0.4,2.3,2.2,6.1,7,6.2C277.9,242.6,279.1,241,279.2,240.6"/>
				<path class="st15" d="M279.5,240.6c0.1-0.3,0.1-1.9-0.1-3.5c-0.9,2.7-3.6,4.1-7.2,3.4c-2.3-0.4-4.2-1.8-5.6-3.1
					c0.8,2.3,2.6,5.2,6.8,5.2C278.1,242.6,279.3,241,279.5,240.6"/>
				<path class="st3" d="M172.8,228.3c0.4,2.6,0.8,4.2,0.8,4.2s6.8-0.8,6.8-1.4c0-0.1-0.1-1.5-0.3-3.6
					C176,229.6,173.2,228.5,172.8,228.3"/>
				<path class="st13" d="M177.3,230.1c-1.8,0.3-4.3-0.9-4.5-1.1c-0.2-0.2-7,3.5-9.7,5.4c-2.7,1.9-1.8,2.6-1.9,3.2s-0.6,1.5,0.8,1.9
					s4.4,1.1,11.8-0.8c7.4-1.8,7.6-2.6,7.5-3.9c-0.1-1.3,0-5.6-0.6-5.9C179.8,228.7,180,229.6,177.3,230.1"/>
				<path class="st3" d="M170,235c-0.5-1.3-1.7-2.4-2.7-3.1c-1.6,1-3.1,1.9-4.2,2.6c-2.7,1.9-1.8,2.6-1.9,3.2s-0.6,1.5,0.8,1.9
					c1.2,0.4,3.6,0.9,8.8-0.1C170.7,238.4,170.6,236.7,170,235"/>
				<path class="st15" d="M161.1,237.4c0,0.1,0,0.2,0,0.2c-0.1,0.6-0.6,1.5,0.8,1.9s4.4,1.1,11.8-0.8c7.4-1.8,7.6-2.6,7.5-3.9v-0.1
					c-1.4,0.6-4.1,1.7-8.6,2.7C165.3,239.2,162.2,238.5,161.1,237.4"/>
			</g>
			<g>
				<g>
					<path class="st7" d="M115.9,186.5c0,0-1.1-1.8-3.8-6.8c-2.7-5-5.3-10.3-5.3-10.8s2.8-5.6,2.8-5.6l-0.4-0.2l-6.4-3.1
						c0,0-3.6,6.5-3.6,8.6s1.4,6.6,5.4,12.8c4,6.3,6.6,9.6,6.6,9.6"/>
					<path class="st8" d="M104.7,165.8c0.6,2.4,1,4.8,1.9,7c1.1,2.5,2.6,4.6,4.5,6.6c0.5,0.5,1.2,1.2,1.7,1.7
						c-0.2-0.4-0.5-1-0.8-1.4c-2.7-5-5.3-10.3-5.3-10.8s2.8-5.6,2.8-5.6l-0.4-0.2l-6.4-3.1c0,0-0.5,1-1.2,2.3
						C102.8,163.3,104.2,164.1,104.7,165.8z"/>
					<path class="st7" d="M142.4,124.7c0,0,3.8-3.5,3.8-4c0-0.5-7.4-27.2-7.4-27.2l6.1-2.4c0,0,6.9,20.3,7.9,24
						c1,3.7,2.5,7.1-0.1,10.6c-2.7,3.5-11.8,11.8-11.8,11.8L142.4,124.7z"/>
					<path class="st8" d="M152.8,115c-0.6-2.3-3.7-11.4-5.7-17.7c-0.4,0.4-1,0.9-1.4,1.1c1.5,2.5,2.4,5.4,3.1,8.2
						c1,3.6,2.2,7,2.8,10.7c0.9,5.1-1.7,10.1-5.9,12.8c-0.1,0.1-0.3,0-0.3-0.1c-1.3,0.9-2.6,1.7-3.8,2.7l-0.5,4.6
						c0,0,9.1-8.2,11.8-11.8C155.4,122.1,153.9,118.6,152.8,115z"/>
					<path class="st7" d="M147.4,94.1c-0.5-3.2-4.8-10.7-5.5-11.2c-0.8-0.5-3.1,0.3-1.9,3.2c0,0-2.6,3.2-3.2,1.9
						c-0.5-1.2-1.3-2.5-1.7-3.1c-1-1.3-2.6-0.2-1.9,1.6c0.4,1.3,2.8,6.1,4.3,9.1v0.1c0,0,0.1,0.3,0.4,0.8c0.4,1,0.8,1.5,0.8,1.5
						v-0.4c0.6,0.9,1.5,1.7,2.5,1.9c1.9,0.4,4.4-1,4.4-1S147.9,97.3,147.4,94.1"/>
					<path class="st8" d="M142.3,90.6c-1.3,0.3-2.4,1-3.7,1.5c-0.8,3.6,4.2,6.1,6.1,2.5C145.6,92.8,144.8,90,142.3,90.6z"/>
					<path class="st7" d="M143.8,99.2c0,0-2.8,1.4-5.8,0.3s-5.1-3.9-5.6-5.1c-0.6-1.2,1.2-2.6,2.5-1.2s2.3,2.7,2.5,2.5
						c0.2-0.2,3.2-1.4,4.5,0.8"/>
					<path class="st7" d="M142.4,88.9c0,0-1.2-2.8-1.9-4.4c-0.8-1.6-1.8-2.4-2.8-1.9c-1,0.4-0.1,2.9,0.2,4.3"/>
					<path class="st7" d="M140,89.4c0,0-1.8-4.5-2.7-6.1c-0.9-1.5-3-0.9-2.1,2.2c1,2.9,2.5,5.1,2.5,5.1"/>
					<path class="st13" d="M121.6,137.5c0,0-5.2,2.9-9.3,5.8c-4.1,2.9-10.3,17.7-10.4,17.9c-0.1,0.2,1.8,1.7,4,2.8
						c2.2,1.1,3.2,0.9,3.4,0.5c0.1-0.3,4.8-9.4,4.8-9.4s8.4,18.1,8.8,19.7c0.4,1.6,1.3,6.4,1,7.2c-0.3,0.8-17.2,13.5-19.2,18.9
						c-2.1,5.4-0.4,16.3,0.4,24.3s1.8,14.5,1.8,14.5l7.5,0.2c0,0,0.6-30.6,0.9-31.1c0.2-0.5,22.4-17.3,23.9-17.7
						c1.5-0.4,6.1-1.4,6.3-1.4s20.1,16.8,26.5,21.6c6.4,4.9,27.8,25,27.8,25l5.6-4.6c0,0-11.2-14.7-18.7-22.1
						c-7.5-7.4-7.8-6.9-14.7-15.9c-6.9-8.9-16.6-20.5-20.9-25.5c-4.3-5-11.5-28.8-11-29.1c0.4-0.4,9.4-9.8,9.4-9.8s-4-3-5.2-6.6
						c0,0-9,9-11.4,10.1C129.1,134.4,121.6,137.5,121.6,137.5"/>
					<path class="st14" d="M147.8,127.8c-0.9,1.7-2.5,3.2-3.9,4.3c-2.4,1.8-5,4-7.9,4.6c-0.5,0.1-2.3,0.1-2.2,1.1
						c0,0.6,0.2,1.3,0.2,1.9c0.2,1.7,0.4,4,1.7,5.3c1.3,1.3,3.1,1.8,4.8,2.8c0.8,0.4,1.5,1,2.4,1.3c-1.8-5.4-3-9.9-2.8-10.2
						c0.4-0.4,9.4-9.8,9.4-9.8S148.7,128.8,147.8,127.8z"/>
					<path class="st14" d="M140,175.6c2.1-0.8,4.1-1.7,5.9-3c1.8-1.2,3.9-2.8,4.5-5c0,0,0,0,0-0.1c-0.4-0.5-0.8-1.2-1.2-1.9
						c-0.9,0.3-1.8,0.8-1.9,0.8c-1.5,0.8-3,1.6-4.6,2.3c-2.6,1.1-5.3,1.9-8,2.5c-2.6,0.5-5.6,1-8.2,0c-2.7-1-4.3-3.2-5.4-5.8
						c-1.2-2.7-2.2-5.5-2.8-8.3c-0.4-1.8-1.3-6.5-4.1-5.5c-3.5,1.1-4.5,5.4-6.1,8.2c-0.8,1.5-1.7,2.9-2.9,4c0.2,0.1,0.5,0.3,0.8,0.4
						c2.2,1.1,3.2,0.9,3.4,0.5c0.1-0.3,4.8-9.4,4.8-9.4s8.4,18.1,8.8,19.7c0.2,0.8,0.5,2.3,0.8,3.8
						C129.2,178.8,134.8,177.7,140,175.6z"/>
					<path class="st14" d="M193.3,228.4c-2.9-2.8-5.8-5.5-8.6-8.4c-2.7-2.7-5.3-5.3-8.2-7.7c-3-2.4-6.2-4.5-8.9-7.2
						c-2.6-2.5-4.8-5.2-7.7-7.4c-2.7-1.9-5.2-3.9-7.8-5.8c-1.1-0.9-2.9-1.9-3.5-3.2c-0.2-0.1-0.3-0.4-0.1-0.5l0,0
						c0-0.3,0.3-0.3,0.5-0.2l0,0c-2.5-1.2-6.2-0.1-8.6,0.5c-1.2,0.3-2.5,0.4-3.7,0.8c-0.8,0.1-1.6,0.3-2.4,0.6
						c-0.5,0.3-1.6,1.4-0.2,1.4c0.2,0,0.4,0.3,0.2,0.5c-0.9,0.6-1.8,1.1-2.8,1.5c-1.2,0.5-2.3,1.3-3.2,2.2c-2.2,1.6-4.4,3.1-6.6,4.6
						c-2.3,1.6-4.5,3.2-6.5,5.2c-0.5,0.5-1,1-1.5,1.4c-0.3,0.4-0.6,0.8-1.1,0.9c-0.4,0.4-0.6,0.9-0.8,1.4c0.4,2.2,0.2,4.3,0.2,6.7
						c0,3.2,0,6.4-0.2,9.6c-0.2,3.2-0.2,6.6-0.2,9.8c0,1.6-0.2,3.1-0.2,4.8c0,0.1,0,0.1,0,0.2l3.4,0.1c0,0,0.6-30.6,0.9-31.1
						s22.4-17.3,23.9-17.7c1.5-0.4,6.1-1.4,6.3-1.4c0.2,0,20.1,16.8,26.5,21.6c6.4,4.9,27.8,25,27.8,25l0.9-0.6
						C198.1,233.3,195.8,230.6,193.3,228.4z"/>
					<path class="st7" d="M128.1,138.3c-0.1-1.4-0.6-2.6-0.8-3.1c-0.3,0.1-0.5,0.2-0.9,0.3l-1.8-4l-6.8,2.6l2.1,4.5
						c-0.3,0.2-0.8,0.4-1.1,0.6c0.6,1.3,1.7,3,2.8,3C123.4,142.3,128.3,140.6,128.1,138.3"/>
					<path class="st8" d="M123.5,137.2c0.6-0.4,2.2-1.7,2.6-2.8l-1.4-3l-6.8,2.6l1.9,4.3C121.1,138.3,122.4,138,123.5,137.2z"/>
					<path class="st17" d="M122.9,174.8c0,0.2,0.1,0.4,0.1,0.6c2.8,0.2,5.6-0.3,8.3-1.2c2.8-0.9,5.5-1.8,8.2-2.9
						c2.5-1,4.9-2.3,6.8-4c0.9-0.8,1.7-1.6,2.5-2.6c-2.7-5.3-5.7-14.2-7.5-20c-4.9-2.2-7.7-9-8.8-12c-1,0.4-2.2,0.9-3.4,1.4
						c0.8,1.5,2.1,4.3,2.9,7.6c1.4,5-5.4,9.1-9.4,7.5c-3.1-1.3-5.4-6.5-6.3-8.6c-1,0.6-2.1,1.3-3.1,2.1c1,1.7,2.3,4.2,3.4,7.7
						c1.3,4.2,0.5,8.3-0.1,10.6C119.3,166.2,122.7,173.9,122.9,174.8z"/>
					<path class="st18" d="M142.5,168.3c-4,1.9-8.6,3.1-13.2,2.7c-3.7-0.4-7.4-2.5-8.8-6.1c-0.8-2.1-1.1-4.1-1.6-6.2
						c-0.4-1.7-1-3.4-1.6-5c0.2,2.9-0.2,5.4-0.8,7c2.5,5.4,5.9,13.1,6.3,14.1c0,0.2,0.1,0.4,0.1,0.6c2.8,0.2,5.6-0.3,8.3-1.2
						c2.8-0.9,5.5-1.8,8.2-2.9c2.5-1,4.9-2.3,6.8-4c0.9-0.8,1.7-1.6,2.5-2.6c-0.2-0.4-0.4-0.9-0.6-1.3
						C146.9,165.7,145,167.1,142.5,168.3z"/>
					<path class="st19" d="M150.1,167c-0.5-0.9-1.1-1.9-1.7-3.1c-2.1,1.8-5.9,4.9-11.6,7.2c-6.1,2.6-11.4,2.8-14.3,2.6
						c0.2,0.5,0.4,1,0.4,1.2c0.1,0.5,0.3,1.5,0.5,2.5c3.4,0.1,8.5-0.2,14.5-2.5C145.2,172.1,148.7,168.8,150.1,167"/>
					<path class="st7" d="M114.4,185.1c0,0,2.8,0.5,5.9,2.7c3.1,2.2,4.6,5.2,4.9,6.2c0.2,1-0.4,2.7-2.1,1.4
						c-1.6-1.3-2.6-1.4-3.4-0.8l-0.8,1.2c0,0,1.2,2.9,0,3.4s-2.1-0.5-2.9-2.3c-1-1.7-1.2-2.1-2.9-2.8c-1.6-0.8-3.7-3-3.4-5.7"/>
					<path class="st7" d="M117,193.8c0,0,2.3,2.9,2.9,4.4c0.6,1.5,2.8,1.3,2.5-0.1c-0.3-1.5-1.6-4.3-1.6-4.3"/>
					<path class="st7" d="M121.2,191.6c0,0,3.9,5,3.1,6.1c-0.8,1.1-1.8,0.5-2.9-1.4c-1.1-1.9-2.2-3.4-2.2-3.4"/>
				</g>
				<g>
					<path class="st18" d="M109.2,212.6c-2.1,0.2-3.8,0.1-5.3-0.1c0.3,4.3,0.9,9,1.3,12.9c0.9,8,1.8,14.5,1.8,14.5l7.5,0.2
						c0,0,0.4-20.3,0.8-28.1C113.5,212.1,111.5,212.4,109.2,212.6"/>
					<path class="st3" d="M114.7,228.8c0-1.4,0.1-2.8,0.1-4.2c-3.6,0.8-7.1,0.8-9.6,0.5c0,0.1,0,0.1,0,0.2c0.1,1.4,0.3,2.7,0.4,4
						C109.7,229.6,112.7,229.1,114.7,228.8"/>
					<path class="st3" d="M114.5,238.2c0-1.2,0.1-3,0.1-5c-3.1,0.8-6.2,0.8-8.4,0.5c0.2,1.9,0.4,3.7,0.6,4.8
						C110.3,238.7,112.8,238.5,114.5,238.2"/>
					<path class="st3" d="M110,216.6c-2.5,0.3-4.3,0.2-5.7,0.1c0.1,1.4,0.3,2.8,0.4,4.2c4.3,0.2,8-0.2,10.3-0.6
						c0-1.6,0.1-3.1,0.1-4.5C114,215.9,112.3,216.3,110,216.6"/>
					<path class="st15" d="M111.8,212.3c0,1.1-0.1,2.2-0.1,3.4c0,3.2,0,6.4-0.2,9.6c-0.2,3.2-0.2,6.6-0.2,9.8c0,1.6-0.2,3.1-0.2,4.8
						c0,0.1,0,0.1,0,0.2l3.4,0.1c0,0,0.4-20.4,0.8-28.2C114.1,212,113,212.3,111.8,212.3z"/>
				</g>
				<g>
					<path class="st18" d="M199.7,236.4l5.6-4.6c0,0-11.2-14.7-18.7-22.1c-0.1-0.1-0.3-0.3-0.4-0.4c-0.8,1.6-2.9,5-7.8,7.7
						C187.2,224.6,199.7,236.4,199.7,236.4"/>
					<path class="st3" d="M185.1,222.9c1-0.8,2.3-1.7,3.9-3.2c1.6-1.5,2.7-2.8,3.5-3.9c-1.2-1.4-2.5-2.7-3.6-4
						c-0.4,1.2-1.3,2.9-3.4,4.6c-1.6,1.4-2.9,2.4-3.8,3.1C182.7,220.7,183.9,221.8,185.1,222.9"/>
					<path class="st3" d="M201.9,231.9c0.8-0.8,1.5-1.4,2.2-1.9c-0.6-0.9-1.6-2.1-2.7-3.5c-0.6,1-1.7,2.4-3.5,4
						c-0.9,0.8-1.6,1.4-2.4,1.9c1.1,1,1.9,1.8,2.7,2.5C199.2,234.4,200.3,233.4,201.9,231.9"/>
					<path class="st3" d="M195.8,226.3c1.3-1.3,2.3-2.4,2.8-3.1c-1-1.2-2.1-2.5-3.1-3.8c-0.4,1-1.4,2.3-3.2,3.8
						c-1.5,1.3-2.8,2.2-3.7,2.8c1.2,1.2,2.5,2.3,3.6,3.2C193.1,228.6,194.4,227.6,195.8,226.3"/>
					<path class="st15" d="M193.3,228.4c-2.9-2.8-5.8-5.5-8.6-8.4c-1.4-1.4-2.9-2.9-4.3-4.3c-0.6,0.4-1.3,0.9-1.9,1.1
						c8.8,7.7,21.4,19.6,21.4,19.6l0.9-0.6C198.1,233.3,195.8,230.6,193.3,228.4z"/>
				</g>
				<g>
					<path class="st13" d="M206.4,234.3c-0.6-2.3-0.6-3.9-2.1-4c-1.4-0.1-2.8,1.9-3.8,2.8c-1.1,0.9-2.7,0.8-2.9,1.1
						c-0.3,0.4,1.2,1.2,1.2,2.5s1,7.6,1,9.4c0,1.8,1.1,4,5.4,4c4.4-0.1,7.1-0.6,7.1-4.1C212.2,242.4,206.6,235.1,206.4,234.3"/>
					<path class="st3" d="M200.6,236.7c0.1-0.5,1.7-1.1,3.2-1.3c1.5-0.2,2.3,0.4,2.3,0.6c0,0.2-0.1,0.8,0,1c0.2,0.3,0.2,0.4,0.2,0.6
						c0,0.3,0.3,0.3,0.4,0.8c0.1,0.4,0,0.6-1.2,0.8c-1.2,0.2-2.4,0.6-2.9,1c-0.5,0.3-1.1-0.1-1.1-0.5c0-0.4-0.1-0.6-0.3-1.1
						c-0.2-0.4-0.1-0.5-0.2-0.9C201.1,237.6,200.5,237.4,200.6,236.7"/>
					<path class="st15" d="M201.2,237.8L201.2,237.8c0.1,0.3,0,0.4,0.2,0.9c0.2,0.3,0.3,0.5,0.3,0.9c1.3-1.1,3.6-1.5,4.6-1.6
						c0,0,0,0,0-0.1c0-0.3,0-0.4-0.2-0.6c-0.1-0.1-0.1-0.2-0.1-0.4C203.9,236.6,202.2,237.2,201.2,237.8"/>
					<path class="st14" d="M212.3,245.9c0-0.2,0-0.4-0.1-0.5c-0.6,1.4-2.4,2.3-6.8,2.7c-3,0.3-4.8-0.8-5.6-2.1v0.1
						c0,1.8,1.1,4,5.4,4C209.6,249.9,212.3,249.2,212.3,245.9"/>
				</g>
				<g>
					<path class="st13" d="M111.7,237.9c-3.6,0-4.8-0.6-5.2-0.3c-0.5,0.3-7.2,3.6-9.5,5.1c-2.3,1.6-2.3,2.6-2.5,3.5
						c-0.2,0.9-0.3,1.7,1.3,2.4c1.6,0.6,6.5,0.8,12.1-1.3c5.6-1.9,7-2.4,6.9-2.9c-0.1-0.6,0-4.9-0.1-5.8c-0.1-1-0.1-1.2-1.2-0.9
						C113.1,237.8,111.7,237.9,111.7,237.9"/>
					<path class="st14" d="M95.8,248.6c1.6,0.6,6.5,0.8,12.1-1.3c5.6-1.9,7-2.4,6.9-2.9c0-0.2,0-0.6-0.1-1.3
						c-1.6,0.8-5.3,2.3-10.8,3.6c-7.8,1.7-9.5-0.4-9.5-0.4C94.3,247,94.2,247.9,95.8,248.6"/>
					<path class="st3" d="M105.7,238c-0.9,0.4-2.4,1.2-3.9,2.1c0.6,0.8,1.4,1.8,1.6,2.4c0.5,1.1,0.2,0.6,1.8,0.2
						c1.6-0.3,0.6-0.3,1.6-0.8c1-0.4,0.9-1.2,0.2-2.3C106.8,239.1,106.3,238.4,105.7,238"/>
					<path class="st15" d="M106.3,242.3c0-1.4-0.9-2.7-1.7-3.7c-0.4,0.2-0.9,0.4-1.4,0.8c1.4,1.3,1.6,2.7,1.6,3.5
						c0.1,0,0.2-0.1,0.4-0.1C106.1,242.5,106.2,242.4,106.3,242.3"/>
				</g>
				<g>
					<path class="st10" d="M111.4,99.8c0,0-2.4-4.1,1.6-7.1c4-3,10.5-1,12.8,4.4c2.3,5.4,2.5,14.3,5.7,15.2c3.4,1.1,3.5-2.2,3-4.1
						c0,0,2.1,4.6,0,8.2c-2.2,3.5-6.8,3.5-9.4-2.7c-2.6-6.3-5.4-8.4-8.6-10.6C113.1,100.9,111.4,99.8,111.4,99.8"/>
					<path class="st13" d="M109,102.6c0,0-1-4,1.7-4.6c2.7-0.6,5.8-0.6,6.7,0.9c0.8,1.5,0.2,3.9,0.2,3.9L109,102.6z"/>
					<path class="st10" d="M109.3,101.1c-8.5,2.1-12.4,10.6-10.2,17.2c2.3,6.6,5.9,10.1,15.4,6.1c9.4-3.9,14.5-6.1,12-14.3
						C123.9,102,118,99.1,109.3,101.1"/>
					<path class="st7" d="M124.8,115.8l2.1,6.1c0,0,2.3,0.2,2.9-2.4c0.6-2.5-0.6-6.1-2.7-6.2C125.1,113.2,124.8,115.8,124.8,115.8"
						/>
					<path class="st8" d="M126.8,116.3c0.1,0.3,0.2,0.5,0.4,0.9c0.2,0.4,0.4,0.9,0.3,1.4c0,0.2-0.1,0.3-0.1,0.5
						c0.2,0.1,0.5,0.1,0.8,0.2c0.1-0.1,0.1-0.3,0.2-0.4c0.1-0.3,0.2-0.8,0.2-1.1c0-0.5-0.1-1.2-0.3-1.7
						C127.8,115.5,126.7,115.6,126.8,116.3z"/>
					<path class="st8" d="M106.5,123.6l1.9,5.4c0,0-1.4,3-4.3,0.4C101.2,126.8,102.5,121.7,106.5,123.6"/>
					<path class="st7" d="M106.2,109.4l7.9-3.6c3-1.4,6.6,0,7.9,3l5.6,12.4c2.5,5.4,0,11.7-5.3,14.2c-5.4,2.5-11.7,0-14.2-5.3
						l-5.3-11.8C101.3,115,102.8,111,106.2,109.4"/>
					<path class="st8" d="M103.8,120.6c1.2-0.3,2.4-0.9,3.5-1.6c1.4-0.9,2.4-2.2,3.5-3.4c1-1.1,2.3-1.5,3.6-2.2
						c1.5-0.9,2.7-1.9,3.5-3.6c0.1-0.2,0.3-0.2,0.4-0.1c1.4,1.4,3.1,1.9,5,1.9h0.1l-1.3-2.9c-1.4-3-4.9-4.3-7.9-3l-7.9,3.6
						c-3.4,1.5-4.9,5.5-3.4,8.9L103.8,120.6z"/>
					<path class="st11" d="M111.4,123.4c-0.3-0.8-0.6-1-1-0.9c-0.3,0.1-0.4,0.5-0.1,1.3c0,0.1,0.2,0.4,0.2,0.5c0.3,0.8,0.6,1,1,0.9
						c0.3-0.1,0.4-0.5,0.1-1.3C111.5,123.8,111.4,123.5,111.4,123.4"/>
					<path class="st11" d="M121.9,118.8c-0.3-0.8-0.6-1-1-0.9c-0.3,0.1-0.4,0.5-0.1,1.3c0,0.1,0.2,0.4,0.2,0.5c0.3,0.8,0.6,1,1,0.9
						c0.3-0.1,0.4-0.5,0.1-1.3C122.1,119.4,121.9,119,121.9,118.8"/>
					<path class="st11" d="M128.4,115.9c-0.1-0.3-0.5-0.6-1-0.5c-0.2,0-0.5,0.1-0.6,0.4c-0.1,0.1-0.1,0.2-0.2,0.3
						c-0.1,0.1-0.1,0.3,0,0.4c0.1,0.3,0.2,0.5,0.4,0.6c0.1,0.2,0.3,0.3,0.4,0.5c0.3,0.3,0.4,0.5,0.3,0.6c0,0.1-0.2,0.3-0.2,0.3
						c-0.1,0.2-0.1,0.2-0.1,0.3c0,0,0.1,0.1,0.3-0.1c0.1-0.1,0.2-0.1,0.4-0.4c0.1-0.2,0-0.4-0.1-0.5c-0.1-0.2-0.2-0.3-0.3-0.5
						c-0.1-0.2-0.3-0.3-0.4-0.5c-0.1-0.2-0.3-0.3-0.3-0.5c0-0.1,0-0.3,0.2-0.5c0.1-0.2,0.3-0.2,0.4-0.3c0.3-0.1,0.8,0.1,0.9,0.3
						s0.1,0.4,0.1,0.4C128.4,116.4,128.6,116.1,128.4,115.9"/>
					<path class="st11" d="M106.2,128c-0.1,0-0.3-0.1-0.4-0.2s-0.2-0.3,0-0.6c0.1-0.2,0.2-0.4,0.3-0.6c0.1-0.3,0-0.6-0.2-0.9
						c-0.1-0.2-0.3-0.4-0.5-0.6c-0.2-0.2-0.4-0.3-0.8-0.4c-0.1,0-0.3,0.1-0.4,0.2c-0.1,0.1-0.1,0.2-0.1,0.3c0,0.2,0,0.4,0,0.5
						c0.1,0.3,0.2,0.4,0.2,0.4s-0.1-0.2-0.1-0.4c0-0.1,0-0.3,0-0.4c0-0.2,0.1-0.3,0.3-0.3c0.1,0,0.3,0.2,0.5,0.3
						c0.2,0.2,0.3,0.3,0.4,0.5c0.1,0.2,0.1,0.4,0.1,0.5c-0.1,0.2-0.2,0.3-0.3,0.5c-0.1,0.2-0.2,0.4-0.1,0.8c0,0.2,0.2,0.4,0.3,0.5
						c0.3,0.2,0.4,0.2,0.6,0.2c0.2,0,0.3-0.1,0.3-0.1C106.4,128.1,106.4,128,106.2,128"/>
					<path class="st11" d="M110.7,119.5c-0.2-0.1-0.4-0.2-0.9-0.3c-0.4-0.1-0.9,0.1-1.3,0.3s-0.6,0.6-0.8,1.1
						c-0.2,0.8,0,1.3,0.1,1.3c0.1,0,0-0.5,0.2-1.2c0.1-0.3,0.3-0.6,0.6-0.8c0.3-0.2,0.6-0.2,1-0.2c0.6,0.1,0.9,0.3,1.1,0.4
						c0.2,0.1,0.2,0.1,0.2,0c0,0,0.1-0.1,0-0.3C111,119.7,110.9,119.6,110.7,119.5"/>
					<path class="st11" d="M118.5,117.9c0.1,0,0.1,0,0.2-0.2c0.1-0.2,0.2-0.5,0.4-1.1c0.1-0.3,0.3-0.6,0.5-0.9
						c0.2-0.2,0.6-0.2,1-0.1c0.6,0.2,1.1,0.5,1.2,0.4c0,0-0.3-0.5-1.1-0.8c-0.2-0.1-0.4-0.1-0.6-0.1c-0.2,0-0.4,0.1-0.6,0.2
						c-0.4,0.3-0.5,0.6-0.8,1c-0.3,0.6-0.3,1.1-0.3,1.3C118.4,117.8,118.4,117.9,118.5,117.9"/>
					<path class="st11" d="M117.3,126.8c0.1,0,0.2,0,0.3,0c0.2,0,0.4,0,0.5,0.1c0.3,0,0.5,0,0.5,0s-0.2-0.1-0.4-0.2
						c-0.1,0-0.3-0.1-0.5-0.1c-0.1,0-0.2,0-0.3-0.1h-0.2c-0.1,0-0.1,0-0.1,0s0,0,0-0.1c0.1-1.1,0.4-2.1,0.2-2.1
						c-0.1,0-0.5,0.9-0.6,2.1c0,0.1,0,0.4,0.2,0.5c0.1,0,0.2,0.1,0.2,0.1L117.3,126.8z"/>
					<path class="st11" d="M121.1,129.1c-0.5,0.6-1.5,1.1-2.3,1.2c-0.8,0.1-1.2,0-1.4,0c-0.2,0-0.2,0-0.3,0c0,0,0,0.1,0.2,0.2
						c0.2,0.1,0.6,0.3,1.6,0.2c0.4-0.1,1-0.2,1.4-0.5c0.4-0.2,0.9-0.6,1.1-1c0.5-0.6,0.8-1.4,0.6-1.4
						C122,127.9,121.6,128.5,121.1,129.1"/>
					<path class="st10" d="M123.3,110.2c-0.2-0.8-1.3-9.3-7.9-8.4c-6.7,0.9-15.6,7.4-14.9,13c0.5,5.4,2.1,5.6,2.1,5.6s4.3-1.1,7-4.4
						c0.5-0.6,1.1-1.5,1.5-2.3c1.1-0.1,3.2-0.6,4.6-2.8c2.1-3,1.6-4.1,1.9-3.5c0.2,0.6,1.7,3.8,6.7,4.8
						C124.4,112.3,123.4,111,123.3,110.2"/>
					<path class="st9" d="M100.4,113.7c0.3,0.8,1.2,0.2,1.6-0.1c1.6-1.2,2.6-2.9,4.1-4.2c0.2-0.1,0.5-0.1,0.5,0.2
						c0,1.8,1.4,0.5,2.1-0.1c0.5-0.5,1-1.1,1.4-1.6c0.1-0.2,0.4-0.2,0.5,0.1c0.4,1.7,1.6,0.1,2.2-0.6c0.3-0.5,0.6-1.1,1-1.6
						c0.1-0.2,0.4-0.3,0.5-0.1c1.1,1.7,1.9,0,2.1-0.8c0-0.2,0.2-0.3,0.3-0.3c0.9,0.2,1.5,0.8,2.4,1c0.1,0,2.6,0.2,1.9-0.6
						c-0.2-0.3-0.5-0.6-0.9-1c-1.5-1.3-3.9-2.3-5.9-1.7c-2.1,0.5-4.1,1.3-5.9,2.4c-0.8,0.4-1.5,0.8-2.3,1.2
						c-0.4,0.3-0.9,0.6-1.3,1.1c-0.2,0.2-0.3,0.4-0.5,0.6c-0.1,0.2-0.2,0.2-0.3,0.1c-1.8,1.8-3.1,3.9-3.5,5.8
						C100.4,113.5,100.4,113.7,100.4,113.7z"/>
				</g>
			</g>
		</g>
	</g>
</g>
</svg>
