<?xml version="1.0" encoding="utf-8"?>
<!-- Generator: Adobe Illustrator 25.1.0, SVG Export Plug-In . SVG Version: 6.00 Build 0)  -->
<svg version="1.1" id="Ñëîé_1" xmlns="http://www.w3.org/2000/svg" xmlns:xlink="http://www.w3.org/1999/xlink" x="0px" y="0px"
	 viewBox="0 0 300 265" style="enable-background:new 0 0 300 265;" xml:space="preserve">
<style type="text/css">
	.st0{fill-rule:evenodd;clip-rule:evenodd;fill:#685D29;}
	.st1{fill-rule:evenodd;clip-rule:evenodd;fill:#243249;}
	.st2{fill-rule:evenodd;clip-rule:evenodd;fill:#97D2C6;}
	.st3{fill-rule:evenodd;clip-rule:evenodd;fill:#ABD7B3;}
	.st4{fill-rule:evenodd;clip-rule:evenodd;fill:#376A1F;}
	.st5{fill-rule:evenodd;clip-rule:evenodd;fill:#67161E;}
	.st6{fill-rule:evenodd;clip-rule:evenodd;fill:#5E1017;}
	.st7{fill-rule:evenodd;clip-rule:evenodd;fill:#598C1C;}
	.st8{fill-rule:evenodd;clip-rule:evenodd;fill:#246B2B;}
	.st9{fill-rule:evenodd;clip-rule:evenodd;fill:#27581E;}
	.st10{fill-rule:evenodd;clip-rule:evenodd;fill:#78A936;}
	.st11{fill-rule:evenodd;clip-rule:evenodd;fill:#0B0004;}
	.st12{fill-rule:evenodd;clip-rule:evenodd;fill:#67770A;}
	.st13{fill-rule:evenodd;clip-rule:evenodd;fill:#5C0E14;}
	.st14{fill-rule:evenodd;clip-rule:evenodd;fill:#5C6A09;}
	.st15{fill-rule:evenodd;clip-rule:evenodd;fill:#873B43;}
	.st16{fill-rule:evenodd;clip-rule:evenodd;fill:#3F0C0A;}
	.st17{fill-rule:evenodd;clip-rule:evenodd;fill:#F7985E;}
	.st18{fill-rule:evenodd;clip-rule:evenodd;fill:#FA9960;}
	.st19{fill-rule:evenodd;clip-rule:evenodd;fill:#FCAC79;}
	.st20{fill-rule:evenodd;clip-rule:evenodd;fill:#200303;}
	.st21{fill-rule:evenodd;clip-rule:evenodd;fill:#FD5229;}
	.st22{fill-rule:evenodd;clip-rule:evenodd;fill:#FABF97;}
	.st23{fill-rule:evenodd;clip-rule:evenodd;fill:#FC071A;}
	.st24{fill-rule:evenodd;clip-rule:evenodd;fill:#341D6F;}
	.st25{fill-rule:evenodd;clip-rule:evenodd;fill:#646464;}
	.st26{fill-rule:evenodd;clip-rule:evenodd;fill:#C7DD3E;}
	.st27{fill-rule:evenodd;clip-rule:evenodd;fill:#E5E5E5;}
	.st28{fill-rule:evenodd;clip-rule:evenodd;fill:#EFEBEA;}
	.st29{fill-rule:evenodd;clip-rule:evenodd;fill:#767E07;}
	.st30{fill-rule:evenodd;clip-rule:evenodd;fill:#B8D8C9;}
	.st31{fill-rule:evenodd;clip-rule:evenodd;fill:#A3C5B6;}
	.st32{fill-rule:evenodd;clip-rule:evenodd;fill:#FDBD97;}
	.st33{fill-rule:evenodd;clip-rule:evenodd;fill:#040F2F;}
	.st34{fill-rule:evenodd;clip-rule:evenodd;fill:#7DB18E;}
	.st35{fill-rule:evenodd;clip-rule:evenodd;fill:#FFFFFF;}
	.st36{fill-rule:evenodd;clip-rule:evenodd;fill:#4B3282;}
	.st37{fill-rule:evenodd;clip-rule:evenodd;fill:#4D8B48;}
	.st38{fill-rule:evenodd;clip-rule:evenodd;fill:#FA0E2F;}
</style>
<g>
	<g>
		<path class="st0" d="M76.6,145.1h36.9c1.4,0,2.6-1.3,2.6-2.9v-23.5c0-1.6-1.2-2.9-2.6-2.9H76.6c-1.4,0-2.6,1.3-2.6,2.9v23.5
			C74,143.8,75.1,145.1,76.6,145.1z"/>
		<path class="st1" d="M93.4,124.4c-3.9-2-4.3-3.5-8-3c-3.7,0.5-6,3.6-6.2,7.7c-0.2,4.1,1.1,7.8,6.2,9.2c3.7,1,6.8-1.8,8.7-3.6
			c2.4-2.3,1.9,0.3,4,1.9c6.2,4.4,14.3,3,12.8-6.6c-1.5-9-4.2-10.8-12.8-5.2C98.1,124.7,96.2,126.8,93.4,124.4z"/>
		<path class="st2" d="M93.5,125.1c-3.6-1.9-4-3.7-7.5-3.2c-3.5,0.5-5.6,3.4-5.8,7.2c-0.2,3.8,1,7.3,5.8,8.6c3.4,1,6.4-2.2,8.2-3.9
			c2.2-2.1,1.8,0.3,3.7,1.7c5.8,4.2,13.3,3.3,11.9-5.7c-1.4-8.4-3.7-9.7-11.7-4.5C98.1,125.4,96.1,127.4,93.5,125.1z"/>
		<path class="st3" d="M95.4,129.5c-1.5-0.7-5.3-3.4-6.8-3.5c-3.7-0.2-8.3,4.3-1.7,6.8c2.5,1,5.5-0.9,6.5-1c1.1-0.1,1.6,0.6,2.1,0.3
			c0.5-0.3,3.1,1.4,5.4,1.8c2.3,0.4,5-1.4,4.7-2.8c-0.3-1.4-0.6-2.4-1.5-3.3c-0.9-0.9-2.7-1.7-3.7-1.1c-1,0.6-2.6,2.2-3.3,2.5
			C96.5,129.7,95.4,129.5,95.4,129.5z"/>
		<path class="st4" d="M88.9,127.7c-1.1,1.6-0.6,3.3,1,3.4c1.6,0.1,2.4-0.5,1.8-1.5C91.2,128.7,91.1,127.6,88.9,127.7z"/>
		<path class="st4" d="M100.6,129.7c-0.2,1.1,0.4,2.1,1.6,2.1c1.6,0.1,3-1.1,2.4-2.1C103.7,128.2,101,127,100.6,129.7z"/>
		<path class="st1" d="M86.6,123.4c-2,0.7-2.7,1.6-1.5,1.8c1.1,0.3,1.1-0.5,2.3-0.7C88.6,124.4,88.1,123.5,86.6,123.4z"/>
		<path class="st1" d="M103.4,136.6c1.4-0.8,2.2-2.2,2.5-1.7c0.3,0.5-0.7,1.6-1.2,1.8C104.3,137,103.5,137,103.4,136.6z"/>
		<path class="st1" d="M85.4,133.9c-0.7,0.4-1.1,1.3,0,1.7c1.1,0.4,1.5,0.6,1.7-0.1C87.2,134.8,87.4,133.4,85.4,133.9z"/>
	</g>
	<g>
		<g>
			<path class="st5" d="M8.6,213.9h22.2l-3.3,27.4c-0.8,8-15,8-15.8-0.1L8.6,213.9z"/>
			<path class="st6" d="M19.7,214.5c6.1,0,11-0.3,11-0.7c0-0.4-5-0.7-11-0.7s-11,0.3-11,0.7C8.7,214.2,13.6,214.5,19.7,214.5z"/>
		</g>
		<g>
			<path class="st6" d="M22.9,213.9h7.9l-3.3,27.4c-0.3,3.5-3.3,5.5-6.6,5.9C21.3,239.9,22.3,224,22.9,213.9z"/>
			<path class="st6" d="M23,213.2c4.5,0.1,7.8,0.3,7.8,0.6c0,0.3-3.3,0.6-7.9,0.6L23,213.2z"/>
		</g>
		<polygon class="st6" points="17,213.6 17.6,210.2 22.4,210.3 22.4,214.3 		"/>
		<path class="st4" d="M11.3,201.8c-1.9-3.5-3.4-7.1-3.4-8.8c0-3.5,2.1-3.7,2.1-3.7s-1.2-3.8-1-7.9c0.1-4.1,4.1-4.2,4.1-4.2
			s-0.3-4.1,0.3-7.1c0.5-3,3.1-4.2,3.1-4.2s-1.6-4.5-0.9-7.1c0.7-2.6,2.6-3.7,2.6-3.7s0.8-7.2,1.4-8.1c0.7-0.9,2.1,2.8,2.9,5
			c0.8,2.2,0.5,3.5,0.5,3.5s2.1,0.1,3.2,2.2c1.1,2.1-0.3,8.8-0.3,8.8s3.9-2,3.9,1.8c0,3.8-2.6,10.4-2.6,10.4s1.8-0.9,3,1.2
			c1.2,2.1,4.1,5.3,2.5,8.1c-1.6,2.9-3.3,5-3.3,5s2.1-0.8,2.1,4.5c0,3-2.3,6.9-4.8,9.9C19.6,216,15.5,209.4,11.3,201.8z"/>
		<path class="st7" d="M11.3,201.8c-1.9-3.5-3.4-7.1-3.4-8.8c0-3.5,2.1-3.7,2.1-3.7s-1.2-3.8-1-7.9c0.1-4.1,4.1-4.2,4.1-4.2
			s-0.3-4.1,0.3-7.1c0.5-3,3.1-4.2,3.1-4.2s-1.6-4.5-0.9-7.1c0.7-2.6,2.6-3.7,2.6-3.7s0.8-7.2,1.4-8.1c0.3-0.5,0.9,0.3,1.5,1.5
			c0.5,2.9-0.6,6.7-0.6,6.7s-1.7,1.4-1.7,4.9s2.5,8.5,2.5,8.5s-2.5,0.2-2.8,2c-0.3,1.8,1.2,4.2,1.2,4.2s-2.1-0.9-2.7,1.7
			c-0.6,2.6,3.1,10.1,3.1,10.1s-1.5-0.8-3.1,2.9c-1.6,3.7,1.7,6.9,1.7,6.9s-1.8-0.9-2.9,2.3c-0.8,2.3,0.9,7.8,2.8,12.3
			C15.9,209.8,13.6,206,11.3,201.8z"/>
	</g>
	<path class="st5" d="M51.2,178.5l1.7-87.8c0,0-0.4-0.3-1.9-2.8c-1.5-2.5,2.1,0.1,2.1,0.1s0.3-3.1,0.8-3.4c0.5-0.3,0.5,3.6,1,3.4
		c0.4-0.1,2-1.1,2.2-0.2c0.2,0.9-2.1,2.5-2.1,2.5l2.7,88L51.2,178.5z"/>
	<g>
		<g>
			<rect x="105.9" y="175.9" class="st8" width="68.5" height="18.6"/>
			<path class="st9" d="M119.4,170.5c-0.9-1.6-1-3.8-0.7-5.9c-0.5,0.3-1.1,0.5-1.5,0.5c-1.4-0.2-1.4-2.5-0.1-4.5
				c1-1.4,2.3-0.7,3.1,0c0.4-0.6,0.8-1,1.3-1.1c2-0.5,2.6,1.2,2.6,1.2s0.5-2.1,2.6-1.6c2.1,0.5,1.4,2.4,1.4,2.4s2-0.9,2.4,0.4
				c0.5,1.3-0.6,2.2-0.6,2.2s2.2-0.2,2.1,1.3c-0.1,1.5-1.3,1.7-1.3,1.7s1.5-0.4,1.4,0.9c-0.1,1.3-1.3,1.7-1.3,1.7s1,0.5,1,1.2
				C131.6,172,121,174,119.4,170.5z"/>
			<path class="st7" d="M123.4,179.1c0.2-2,0.8-4.8,1.9-6.8c1.7-3.2,5.2-4,7.7-1.1c0,0-0.4-2.9,1.2-4.4c1.6-1.5,4.1-1.3,4.1-1.3
				s-0.2-2.3,1.1-3.2c1.3-0.9,3.1,0.9,3.1,0.9c0.9-2.9,7.9-5.6,8.2-3.6l5.6,33.7l-4.2,1.1H134C131.4,192.1,122,182.9,123.4,179.1z"
				/>
			<path class="st4" d="M150.7,160.5l5.4,32.9l-4.2,1.1H134c-1.9-1.8-7.4-7.1-9.7-11.3c-0.4-1-0.6-2-0.3-2.7c0.2-2,0.8-4.8,1.9-6.8
				c1.7-3.2,5.2-4,7.7-1.1c0,0-0.4-2.9,1.2-4.4c1.6-1.5,4.1-1.3,4.1-1.3s-0.2-2.3,1.1-3.2c1.3-0.9,3.1,0.9,3.1,0.9
				C143.9,162.2,149.1,159.9,150.7,160.5z"/>
			<path class="st10" d="M106.4,162.2c2.3-2,7-2.5,10.1-1.7c2.6,0.7,4.5,4.2,4.7,6.8c0.1,2.4-0.7,4.1-0.7,4.1s6.5-3.1,9.1,0
				c2.6,3,2.1,7.7,2.1,7.7s4.4-0.7,6.3,1.4c1.9,2.1,1.6,7,1.6,7s2.1-1.6,3.3,0.9c0.9,1.9,0.5,4.8,0.2,6.2H84.5
				c-0.3-0.8-0.7-2.3-0.6-3.8c0.2-2,7.1-2.8,7.1-2.8s-2.7-1.1-1.5-4.9c1.2-3.8,4.6-3.8,4.6-3.8s-2.1-1.9-0.7-6.7
				c1.5-4.9,6.6-4.2,6.6-4.2s-1.6-1.3,2.2-4.9C103.9,161.9,105.3,161.8,106.4,162.2z"/>
			<path class="st7" d="M106.2,163.8c2.8-2.5,11.1-3.5,12.7,0.1c1.6,3.7,0.7,8.6,0.7,8.6s6.6-3.1,9.1-0.2c2.4,2.9,2,7.3,2,7.3
				s4.2-0.7,6,1.3c1.8,2,1.5,6.6,1.5,6.6s2-1.5,3.1,0.9c0.8,1.9,0.4,4.7,0.1,6H106v-0.1l-11.4,0.1h-6.8c-0.1-0.3-0.9-2.2-0.7-3.9
				c0.2-1.9,6.7-2.6,6.7-2.6s-2.5-1-1.4-4.6c1.1-3.6,4.3-3.6,4.3-3.6s-2-1.7-0.6-6.3c1.4-4.6,6.2-4,6.2-4s-1.5-1.2,2.1-4.6
				C104.9,164.4,105.6,164,106.2,163.8z"/>
			<path class="st7" d="M174.4,171.5c-1.8-2.5-5-3-7.2-0.4c0,0,0.4-2.9-1.2-4.4c-1.6-1.5-4.1-1.3-4.1-1.3s0.2-2.3-1.1-3.2
				c-1.3-0.9-3.1,0.9-3.1,0.9c-0.9-2.9-7.9-5.6-8.2-3.6l-5.6,33.7l4.4,1.2H166c1.4-1.3,5.1-4.9,7.8-8.4l0.2,8.4h19.7
				c0.1-0.5-0.1-1.2-0.5-1.8c-0.8-1.1-3.2-0.8-3.2-0.8s1,0,1.1-1.8c0.1-1.8-3.2-2.4-3.3-2c-0.1,0.4,1.1,0,1.9-3c0.8-3-5.2-3-5.2-3
				s0.6-0.6,1.5-3.3c0.9-2.7-6.5-2.7-6.5-2.7l0.5-2.1c0,0-0.1-2.6-2-3.2C176.1,170.2,174.4,171.5,174.4,171.5z"/>
			<path class="st4" d="M149.4,160.4l-5.4,32.9l4.4,1.2H166c1.3-1.2,2.5,3.1,5.1,0h1.9h18.6c0-0.4-0.1-1.1-0.5-1.7
				c-0.8-1-3-0.7-3-0.7s1,0,1.1-1.7c0.1-1.7-3-2.3-3.1-1.9c-0.1,0.4,1,0,1.8-2.8c0.7-2.8-4.9-2.8-4.9-2.8s0.6-0.5,1.4-3.1
				c0.8-2.6-6.2-2.5-6.2-2.5l0.5-2c0,0-0.1-2.5-1.9-3c-1.4-0.4-2.7,0.3-3.2,0.6c-1.8-2.3-4.9-2.7-7.1-0.1c0,0,0.4-2.9-1.2-4.4
				c-1.6-1.5-4.1-1.3-4.1-1.3s0.2-2.3-1.1-3.2c-1.3-0.9-3.1,0.9-3.1,0.9C156.3,162.2,151.1,159.8,149.4,160.4z"/>
			<path class="st9" d="M116.1,180.7c-0.1-0.2-0.3-0.5-0.4-0.7c-1.3-1.9-3-1-4.1,0l-0.1,0c-0.5-0.8-1.1-1.3-1.7-1.4
				c-2.8-0.6-3.5,1.7-3.5,1.7s-0.7-2.9-3.6-2.1c-2.9,0.7-1.9,3.3-1.9,3.3s-2.7-1.3-3.3,0.6c-0.6,1.8,0.8,3,0.8,3s-2.9-0.2-2.9,1.7
				c0.1,2,1.8,2.4,1.8,2.4s-2-0.6-1.9,1.2c0.1,1.7,1.8,2.4,1.8,2.4s-1.4,0.7-1.3,1.7c0,0.1,0.1,0.1,0.2,0.2h35.9
				c-0.1-0.3-0.2-0.6-0.5-0.8c-0.6-0.4-1.5,0-1.6-0.4c-0.1-0.5,1.3-1.1,1.1-1.9c-0.2-0.8-1.4-0.8-2.4-0.8c-1.1,0-1.1-0.9-1.1-0.9
				s0.3-1.6-1.1-2.2c-1.5-0.7-1.8,1.2-2.9,1.5c-1.1,0.3-1.2-0.6-0.9-1.5c0.1-0.3,0.2-0.5,0.3-0.9c1-2.9-4-1.5-4.4-1.5
				c0,0,0.9-0.5,1-1.8c0.1-1.3-2.2-0.6-2.2-0.6s0.9-1.1-0.1-2C117,180.4,116.6,180.5,116.1,180.7z"/>
		</g>
		<path class="st11" d="M73.4,193.8H204v30c0,4.2-3.4,7.5-7.5,7.5H80.9c-4.2,0-7.5-3.4-7.5-7.5V193.8z"/>
	</g>
	<g>
		<g>
			<path class="st7" d="M39.6,78.1c-1,0.3-2,0.4-3,0.4c-6.1,0-11.1-5-11.1-11.1c0-3.2,1.4-6.2,3.6-8.2c-4.5-2.5-7.5-7.4-7.5-12.9
				c0-7.3,5.3-13.4,12.3-14.6c1-3.9,3.2-7.4,6-10.1C39.3,20.4,39,19,39,17.5c0-5.2,4.1-9.4,9.2-9.7c-0.2-0.5-0.3-1.1-0.3-1.8
				c0-2.8,2.3-5.1,5.1-5.1c2.8,0,5.1,2.3,5.1,5.1c0,0.1,0,0.2,0,0.2C58.7,6,59.3,6,59.9,6c3.8,0,6.9,3.1,6.9,6.9
				c0,1-0.2,1.9-0.6,2.8c5.7,0.3,10.3,5,10.3,10.8c0,1.5-0.3,3-0.9,4.4c0.3,0,0.5-0.1,0.8-0.1c2.5,0,4.5,2,4.5,4.5
				c0,1.8-1,3.3-2.5,4c4.9,2.7,8.1,7.9,8.1,13.9c0,7.9-5.7,14.4-13.2,15.7c2,2.5,3.2,5.7,3.2,9.2c0,8-6.4,14.6-14.3,14.9
				c0.3,0.9,0.4,1.8,0.4,2.7c0,4.9-4,9-9,9c-4.9,0-8.9-4-8.9-9c0-0.3,0-0.5,0-0.8h0c-4.5,0-8.1-3.6-8.1-8.1c0-2.8,1.4-5.3,3.6-6.7
				C39.9,79.4,39.7,78.8,39.6,78.1z"/>
			<path class="st4" d="M66.4,15.3c0,0.1-0.1,0.3-0.2,0.4c5.7,0.3,10.3,5,10.3,10.8c0,1.5-0.3,3-0.9,4.4c0.3,0,0.5-0.1,0.8-0.1
				c2.5,0,4.5,2,4.5,4.5c0,1.8-1,3.3-2.5,4c0.4,0.2,0.7,0.4,1.1,0.6c-2.6,0.6-5,0.9-5.4,0.7c-8.3-3.5-2.4-7.4-2.7-11.8
				c-0.2-3.2-0.3-3.7-2.7-3.7c-6.3,0-7.3-6.6-5-8.6C64.4,16,65.4,15.6,66.4,15.3z"/>
			<path class="st4" d="M78.5,39.4c4.9,2.7,8.1,7.9,8.1,13.9c0,7.9-5.7,14.4-13.2,15.7c2,2.5,3.2,5.7,3.2,9.2
				c0,8-6.4,14.6-14.3,14.9c0.3,0.9,0.4,1.8,0.4,2.7c0,4.9-4,9-9,9c-4.9,0-8.9-4-8.9-9c0-0.3,0-0.5,0-0.8h0c-4.5,0-8.1-3.6-8.1-8.1
				c0-2.8,1.4-5.3,3.6-6.7c-0.2-0.4,2.4-6.2,8.2-6.6c5-0.4,8.5,5.3,11.6,3c3-2.3,1-4.7-0.2-6.7c-3.5-6,2.6-11.4,8.8-10.2
				c2.7,0.5,0.5-3.2,0.1-4.2c-0.6-1.3-1.1-3.3-1-6.9C68,41,78.5,39.4,78.5,39.4z"/>
			<path class="st10" d="M40.7,73.3c-0.8,0.2-1.6,0.3-2.4,0.3c-5.5,0-9.9-4.4-9.9-9.9c0-2.9,1.3-5.5,3.2-7.3
				c-4-2.3-6.8-6.6-6.8-11.6c0-6.6,4.8-12,11-13.1c0.9-3.5,2.8-6.6,5.4-9.1c-0.5-1.1-0.8-2.4-0.8-3.7c0-4.7,3.6-8.5,8.2-8.7
				c-0.2-0.5-0.3-1-0.3-1.6C48.4,6.1,50.4,4,53,4c2.5,0,4.6,2.1,4.6,4.6c0,0.1,0,0.1,0,0.2c0.5-0.1,1.1-0.2,1.6-0.2
				c3.4,0,6.2,2.8,6.2,6.2c0,0.1,0,0.2,0,0.3c-0.9-2-2.9-3.4-5.2-3.4c-0.5,0-1,0.1-1.5,0.2c0-0.1,0-0.1,0-0.2c0-2.3-1.9-4.2-4.2-4.2
				c-2.3,0-4.2,1.9-4.2,4.2c0,0.5,0.1,1,0.3,1.5c-4.2,0.2-7.6,3.8-7.6,8c0,1.2,0.3,2.4,0.8,3.5c-2.4,2.2-4.1,5.1-5,8.4
				c-5.8,1-10.1,6-10.1,12.1c0,4.6,2.5,8.6,6.2,10.7c-1.8,1.7-3,4.1-3,6.8c0,5,4.1,9.1,9.1,9.1c0.9,0,1.7-0.1,2.5-0.3l0,0l-1.4,1
				C42,72.4,41.4,72.9,40.7,73.3z"/>
		</g>
		<path class="st11" d="M37,170.1h34.2V229c0,2.8-2.3,5.1-5.1,5.1H42.2c-2.8,0-5.1-2.3-5.1-5.1V170.1z"/>
	</g>
	<g>
		<path class="st12" d="M66.7,224.2c-2.3-2.7-0.2-3.4,1-3.4c1.2,0,1.5,1.9,1.5,1.9s0.3-3.3,1.8-3.1c1.5,0.2,2.2,1.1,2.2,1.1
			s-0.8-2.7,1.4-3.4c2.1-0.7,4.2,0.8,4.2,1.2c0,0.4,0.8,0.7,1.3-0.4c0.5-1.1,0.6-3.3,3.3-2.6c2.8,0.7,2.2,2.5,2.2,2.5
			s0.7,1.2,1.7,0.9c1-0.3-0.9-2.6,2.7-3.5c3.5-0.9,4.5,1.6,4.5,1.6s0.4-1.4,1.1-1.5c0.7-0.1,1.6,1.5,1.6,1.5s-0.2-1.4,1.9-1.3
			c2.1,0.1,2.8,3.1,2.8,3.1s0.8-0.8,1.4-0.6c0.5,0.2,0.5,1.3,0.5,1.3s1.2-2,4.1-1.8c2.9,0.2,2.5,2.8,2.5,2.8s2-0.9,2.1-0.3
			c0.1,0.6,0,1.2,0,1.2s1.4-0.7,1.8,0c0.4,0.7,0.3,2.4,0.3,2.4h-40L66.7,224.2z"/>
		<path class="st5" d="M64.4,223.7h52.5v11.6c0,3.1-1.8,5.6-4,5.6H68.4c-2.2,0-4-2.5-4-5.6V223.7z"/>
		<path class="st13" d="M116.9,235v0.3c0,3.1-1.8,5.6-4,5.6H68.4c-2.2,0-4-2.5-4-5.6V235H116.9z"/>
	</g>
	<g>
		<rect x="45.2" y="200.4" class="st14" width="4.3" height="31.5"/>
		<path class="st14" d="M48.1,227.6c1.3,0-4.6-21.3-10.3-21.5c-5.7-0.2-0.3,8.1,1.9,12.8c2.2,4.8,5.4,13,5.4,13h4.3L48.1,227.6z"/>
		<path class="st14" d="M46.5,227.8c-1.3,0,7-29.3,12.6-29.5c5.7-0.2-2,16.1-4.2,20.9c-2.2,4.8-5.4,13-5.4,13h-4.3L46.5,227.8z"/>
		<path class="st14" d="M45.2,226.2c-1.3,0.3-4.4-27.2,1-28.4c5.3-1.2,4.9,18.4,4.3,21.6c-0.6,3.3-1.1,8.8-1.1,8.8l-4.1,0.8
			L45.2,226.2z"/>
		<path class="st14" d="M46.5,227.8c-1.3-1.1-10.3-10.6-9.5-5.2c0.8,5.4,6,9.5,8.1,9.5C47.4,232.2,46.5,227.8,46.5,227.8z"/>
		<path class="st14" d="M49.6,227.2c1.3-1.1,10.3-10.6,9.5-5.2c-0.8,5.4-6,9.5-8.1,9.5C48.8,231.5,49.6,227.2,49.6,227.2z"/>
		<path class="st15" d="M33.4,230.8h28.7l-3.9,18.8c-0.5,5.3-4.6,4.9-10,5c-4.7,0.1-9.9,0-10.4-5.1L33.4,230.8z"/>
	</g>
	<path class="st0" d="M96.5,77.3h17.8c2.6,0,4.7,2.1,4.7,4.7v17.8c0,2.6-2.1,4.7-4.7,4.7H96.5c-2.6,0-4.7-2.1-4.7-4.7V82
		C91.7,79.4,93.9,77.3,96.5,77.3z"/>
	<g>
		<path class="st16" d="M103.8,84.6c-3.5,1.1-2.1,10.4-1.2,12.2c1.2,2.3,2.6,3.1,4.7,0.7c0.9-1,1.7-2.7,1.8-5.7
			C109.5,84.3,106.3,83.5,103.8,84.6L103.8,84.6z M105.2,86.5L105.2,86.5c0.3,0,0.6,0.3,0.6,0.6v8.4c0,0.3-0.3,0.6-0.6,0.6l0,0
			c-0.3,0-0.6-0.3-0.6-0.6v-8.4C104.6,86.7,104.9,86.5,105.2,86.5z"/>
		<path class="st16" d="M103.6,83.4c-0.2,0.7,0.2,1.4,0.7,1.6c0.7,0.4,2.3,0.8,2.6-0.1c0.1-0.5,0.3-1.5,0-2
			C106.5,82.1,104,81.7,103.6,83.4z"/>
		<g>
			<path class="st16" d="M102.7,88.1c0-0.4-4.8-4.5-6.2-4.1c-1.4,0.4-1.3,2.6-0.1,3.3c1.2,0.7,5.8,1.4,6.1,1.4
				C102.9,88.6,102.7,88.1,102.7,88.1z"/>
			<path class="st16" d="M102,89.7c-0.3-0.3-6.5-1-7.4,0.1c-0.9,1.1,0.4,2.9,1.8,2.8c1.4-0.1,5.6-2.1,5.8-2.3
				C102.4,90.1,102,89.7,102,89.7z"/>
			<path class="st16" d="M102.5,91c-0.4-0.1-6,2.8-6.1,4.2c-0.2,1.4,1.9,2.2,3,1.3c1.1-0.9,3.4-4.9,3.5-5.2
				C103.1,91.1,102.5,91,102.5,91z"/>
		</g>
		<g>
			<path class="st16" d="M107.8,88.1c0-0.4,4.8-4.5,6.2-4.1c1.4,0.4,1.3,2.6,0.1,3.3c-1.2,0.7-5.8,1.4-6.1,1.4
				C107.7,88.6,107.8,88.1,107.8,88.1z"/>
			<path class="st16" d="M108.8,89.7c0.3-0.3,6.5-1,7.4,0.1c0.9,1.1-0.4,2.9-1.8,2.8c-1.4-0.1-5.6-2.1-5.8-2.3
				C108.4,90.1,108.8,89.7,108.8,89.7z"/>
			<path class="st16" d="M108.4,91.6c0.4-0.1,6,2.8,6.1,4.2c0.2,1.4-1.9,2.2-3,1.3c-1.1-0.9-3.4-4.9-3.5-5.2
				C107.9,91.7,108.4,91.6,108.4,91.6z"/>
		</g>
		<path class="st16" d="M103.7,82.1c-0.2-0.5,0-1.1,0.2-1.2c0.3-0.2,0.8-0.3,0.9,0.1c0.1,0.3-0.2,0.7,0.1,0.9
			c0.3,0.2,1.1-0.1,0.9-0.3c-0.1-0.1-0.2-1.3,0.8-0.7c0.2,0.2,0.3,0.6,0.3,1C106.7,83.5,104.2,83.4,103.7,82.1z"/>
		<path class="st16" d="M102.9,95.1c-0.6-0.1-2.5,2.3-2,4.1c0.5,1.9,1.1,2.2,1.1,2.2s0.5-0.1,0.5-0.3c0-0.2-0.1-0.3-0.2-0.4
			c0-0.1-1.1-1.7-0.3-3c0.8-1.3,1.3-1.5,1.3-1.5S103.6,95.2,102.9,95.1z"/>
		<path class="st16" d="M103,86.6c-0.6,0.1-2.5-2.3-2-4.1c0.5-1.9,1.1-2.2,1.1-2.2s0.5,0.1,0.5,0.3c0,0.2-0.1,0.3-0.2,0.4
			c0,0.1-1.1,1.7-0.3,3c0.8,1.3,1.3,1.5,1.3,1.5S103.8,86.6,103,86.6z"/>
		<path class="st16" d="M107.4,95.1c0.6-0.1,2.5,2.3,2,4.1c-0.5,1.9-1.1,2.2-1.1,2.2s-0.5-0.1-0.5-0.3c0-0.2,0.1-0.3,0.2-0.4
			c0-0.1,1.1-1.7,0.3-3c-0.8-1.3-1.3-1.5-1.3-1.5S106.6,95.2,107.4,95.1z"/>
		<path class="st16" d="M107.5,86.6c0.6,0.1,2.5-2.3,2-4.1c-0.5-1.9-1.1-2.2-1.1-2.2s-0.5,0.1-0.5,0.3c0,0.2,0.1,0.3,0.2,0.4
			c0,0.1,1.1,1.7,0.3,3c-0.8,1.3-1.3,1.5-1.3,1.5S106.7,86.6,107.5,86.6z"/>
	</g>
	<g>
		<path class="st0" d="M133.5,58.1h21c3.1,0,5.6,2.5,5.6,5.6v21c0,3.1-2.5,5.6-5.6,5.6h-21c-3.1,0-5.6-2.5-5.6-5.6v-21
			C128,60.6,130.5,58.1,133.5,58.1z"/>
		<g>
			<path class="st16" d="M141.1,74.1c0.1,0.1,0.1,0.2,0,0.3l0,0c0,0.1-0.1,0.1-0.2,0.1c-0.1,0-0.1,0-0.2,0l0,0
				c-0.1-0.1-0.2-0.1-0.2-0.3c-0.2-0.5-0.2-0.9,0-1.3l0,0c0.1-0.4,0.4-0.6,0.8-0.7c0.4-0.1,0.8-0.1,1.2,0.1l0,0
				c0.4,0.2,0.7,0.6,0.9,1c0.3,0.8,0.3,1.6,0.1,2.3c-0.3,0.6-0.8,1.1-1.5,1.3c-0.7,0.2-1.5,0.1-2.2-0.3c-0.7-0.4-1.3-1-1.6-1.8
				c-0.5-1.1-0.5-2.3-0.1-3.2c0.4-0.9,1.1-1.6,2.2-1.9c1-0.3,2.2-0.1,3.2,0.4c1,0.5,1.9,1.4,2.4,2.5c0.6,1.5,0.6,2.9,0.1,4.2
				c-0.5,1.2-1.5,2.1-2.9,2.5c-1.4,0.4-2.8,0.2-4.1-0.5c-1.3-0.7-2.4-1.8-3.1-3.3c-0.8-1.8-0.7-3.6-0.1-5.1c0.6-1.5,1.9-2.6,3.5-3.1
				c1.7-0.5,3.5-0.2,5.1,0.6c1.6,0.8,3,2.3,3.8,4.1l1.7-0.5c-0.9-2.2-2.7-4-4.7-5c-2.1-1.1-4.4-1.4-6.6-0.8c-2.2,0.6-3.8,2.1-4.6,4
				c-0.8,1.9-0.8,4.2,0.1,6.4c0.8,1.9,2.3,3.4,4,4.3c1.8,0.9,3.8,1.2,5.6,0.7c1.9-0.5,3.2-1.8,3.9-3.4c0.7-1.6,0.7-3.5-0.1-5.4
				c-0.7-1.6-1.9-2.8-3.3-3.5c-1.5-0.8-3.1-1-4.7-0.5c-1.5,0.5-2.7,1.5-3.2,2.8c-0.6,1.3-0.6,2.9,0.1,4.5c0.5,1.2,1.5,2.2,2.6,2.8
				c1.1,0.6,2.5,0.8,3.7,0.4c1.2-0.4,2.1-1.2,2.6-2.3c0.4-1,0.5-2.3-0.1-3.5c-0.4-0.9-1.1-1.6-1.9-2l0,0c-0.8-0.4-1.8-0.6-2.7-0.3
				c-0.9,0.3-1.6,0.9-1.9,1.7v0c-0.3,0.8-0.3,1.7,0,2.5c0.2,0.5,0.7,1,1.2,1.3l0,0c0.5,0.3,1.2,0.4,1.7,0.2c0.6-0.2,1-0.6,1.2-1.1
				l0,0c0.2-0.5,0.2-1,0-1.6L141.1,74.1z"/>
			<path class="st16" d="M147.5,70c0,0,0.8,3.2,0.6,5.4c-0.2,2.2-1.3,3.6-1.3,3.6s1,2,2.8,2.1c1.8,0.1,3.3-1.1,3.3-1.8
				c0-0.7-0.6-1.2-0.6-3.1s1.6-2.1,1.9-2.8c0.3-0.7-0.1-1.7-0.8-1.4c-0.8,0.2-0.7,1.3-0.7,1.3s-1,0.6-1.2,1.7c-0.2,1,0.2,3,0,2.7
				c-0.1-0.3-0.7-4.3-0.3-5.1c0.4-0.8,2.6-1.7,2.4-2.3c-0.2-0.6-1.1-1-1.7-0.7c-0.6,0.3-1.2,1.2-1.3,1.6c-0.1,0.5-0.7,4.2-0.5,4.9
				c0.1,0.7,0.1,1.2,0.1,1.2l-0.3-5.7L147.5,70z"/>
		</g>
	</g>
	<path class="st0" d="M134.3,96h21c3.1,0,5.6,2.5,5.6,5.6v21c0,3.1-2.5,5.6-5.6,5.6h-21c-3.1,0-5.6-2.5-5.6-5.6v-21
		C128.7,98.5,131.2,96,134.3,96z"/>
	<path class="st11" d="M37.5,169.2h34.1c1.2,0,2.1,1,2.1,2.1l0,0c0,1.2-1,2.1-2.1,2.1H37.5c-1.2,0-2.1-1-2.1-2.1l0,0
		C35.4,170.1,36.3,169.2,37.5,169.2z"/>
	<path class="st16" d="M146.2,114.6c0.3,0,0.6,0,0.9-0.1l0.6,1.1c0,0-0.7,1.1-0.1,1.5c0.6,0.4,2-0.3,1.8-0.9c-0.2-0.6-1-0.8-1-0.8
		l-0.6-1.1c0.4-0.2,0.7-0.4,1-0.7l0.8,0.7c0,0-0.3,1.3,0.4,1.4c0.7,0.1,1.7-1,1.3-1.5c-0.4-0.5-1.2-0.4-1.2-0.4l-0.8-0.7
		c0.2-0.3,0.4-0.7,0.6-1.1l1,0.4c0,0,0.2,1.3,0.8,1.2c0.7-0.1,1.3-1.5,0.7-1.9c-0.6-0.3-1.3,0-1.3,0l-1.1-0.4
		c0.1-0.4,0.2-0.8,0.2-1.2l1.1,0c0,0,0.6,1.2,1.2,0.8c0.6-0.3,0.7-1.9,0.1-2c-0.6-0.1-1.2,0.5-1.2,0.5l-1.1,0c0-0.4-0.1-0.8-0.2-1.2
		l1-0.3c0,0,0.9,0.9,1.4,0.4c0.5-0.5,0-2-0.6-1.9c-0.6,0.1-1,0.9-1,0.9l-1.1,0.4c-0.2-0.4-0.4-0.7-0.7-1l0.9-0.7
		c0,0,1.2,0.5,1.5-0.1c0.3-0.7-0.7-1.9-1.2-1.6c-0.6,0.3-0.6,1.1-0.6,1.1l-1,0.8c-0.3-0.3-0.6-0.5-0.9-0.7l0.7-1.1
		c0,0,1.3,0.1,1.3-0.6c0-0.7-1.3-1.5-1.7-1.1c-0.4,0.5-0.2,1.3-0.2,1.3l-0.7,1.2c-0.3-0.1-0.7-0.2-1.1-0.2l0.3-1.5c0,0,1.2-0.4,1-1
		c-0.2-0.7-1.7-1-2-0.4c-0.2,0.6,0.3,1.3,0.3,1.3l-0.3,1.6c-0.3,0-0.7,0-1,0l-0.2-1.6c0,0,1-0.8,0.6-1.3c-0.4-0.5-2-0.4-2,0.3
		c0,0.6,0.7,1.1,0.7,1.1l0.2,1.5l-0.1,0c-0.3,0-0.6,0.1-1,0.2l-0.6-1.2c0,0,0.7-1.1,0.1-1.5c-0.6-0.4-2,0.3-1.8,0.9
		c0.2,0.6,1,0.8,1,0.8l0.6,1.1c-0.4,0.2-0.8,0.4-1.1,0.6l-0.7-0.6c0,0,0.3-1.3-0.4-1.4c-0.7-0.1-1.7,1-1.3,1.5
		c0.4,0.5,1.2,0.4,1.2,0.4l0.6,0.5c-0.2,0.1-0.3,0.3-0.4,0.5c-0.1,0.2-0.3,0.4-0.4,0.6l-0.6-0.2c0,0-0.2-1.3-0.8-1.2
		c-0.7,0.1-1.3,1.5-0.7,1.8c0.6,0.3,1.3,0,1.3,0l0.6,0.2c-0.2,0.4-0.3,0.9-0.3,1.4l-0.5,0c0,0-0.6-1.2-1.2-0.8
		c-0.6,0.3-0.7,1.9-0.1,2c0.6,0.1,1.2-0.5,1.2-0.5l0.5,0c0,0.5,0,1,0.1,1.5l-0.3,0.1c0,0-0.9-0.9-1.4-0.4c-0.5,0.5,0,2,0.6,1.9
		c0.6-0.1,1-0.9,1-0.9l0.3-0.1c0.1,0.2,0.1,0.3,0.2,0.4c0.2,0.3,0.4,0.6,0.6,0.8l-0.3,0.2c0,0-1.2-0.5-1.5,0.1
		c-0.3,0.7,0.7,1.9,1.2,1.6c0.6-0.3,0.6-1.1,0.6-1.1l0.4-0.3c0.4,0.3,0.9,0.5,1.3,0.6l-0.5,0.8c0,0-1.3-0.1-1.3,0.6
		c0,0.7,1.3,1.5,1.7,1.1c0.4-0.5,0.2-1.3,0.2-1.3l0.7-1.1c0.1,0,0.3-0.1,0.4-0.2c0.5-0.4,1-0.6,1.3-0.7v8.9h1.3v-8.4L146.2,114.6z"
		/>
	<g>
		<path class="st17" d="M199.1,178.2c0,0-4.2,48.2-7.2,59.8c-0.4,1.7-5.1,4.9-5.1,5c0,0.3,1.9,1.6,3.7,1.3c2.1-0.3,5.5-2.2,5.5-2.2
			s7.6-29.3,14.5-37.5c6.9-8.1,9.9-21.9,9.8-23.3C220.2,180.1,203,174.7,199.1,178.2z"/>
		<g>
			<path class="st18" d="M218.7,113.6c-2.1-3.8-6.7-6.3-6.7-6.3s1.2-3.7,1.9-5.5c0.6-1.9,0.6-2.9,0.6-2.9s8.3,4.1,9.7,7.1
				C225.6,109.1,223.8,115,218.7,113.6z"/>
			<path class="st16" d="M177.9,95.2c0.3,3.2-1,6.1,1.7,9.7c1.2,1.5,3.8,3.4,6.4,5.2c8.6,6.1,18.3,12.7,24.8,12.4
				c6.5-0.3,9.4-3.4,12.6-6.8c3.2-3.4,9.5-9.2,11-13.4c1.5-4.2-14-10.9-13.5-11.1C221.5,90.9,197.1,83.7,177.9,95.2z"/>
			<path class="st17" d="M208.5,94.2c4.4,5.9,13.8,7.9,14.6,9.2c0.5,0.8,3.8,8.1,3.2,12.8c-0.3,2.8-4.1,4.2-4.9,4.3
				c-0.7,0.1-0.9-6.5-2.9-7.5c-4.1-2-9-4.1-9.9-4.8C207.4,107.2,197.3,98.3,208.5,94.2z"/>
			<path class="st17" d="M201.1,83c4,3.3,7.9,7.3,11,11c5.5,6.6,0.1,20.8-8.7,21.5c-7.4,0.6-20-9.7-22.6-14.9
				C175.3,89.7,192.1,75.7,201.1,83z"/>
			<path class="st19" d="M199.2,92.8c1.9,1.5,4.6,3.2,6.6,5.1c5,4.6,6.1,15.6-3,16.6c-5,0.6-17.3-8.6-19.1-12
				C179.6,95.1,189.9,85.4,199.2,92.8z"/>
			<path class="st17" d="M201.9,90.3c-0.6-2.1,1.2-4.2,2.9-3.4c1.6,0.7,2.3,2.7,1.1,4.1C205.2,92,203.6,92.6,201.9,90.3z"/>
			<path class="st20" d="M196.2,97.5c-1.1,0.8-2.3,2.2-2.5,3.2c-0.3,1.5,0.3,1.9,0.6,1.9c0.3,0,0.5-0.6,0.5-1.1
				c-0.1-0.5,0.2-0.6,0.2-0.6s1.2,1.3,2.3,0.4c1-0.9,0.8-1.8,0.4-2.2c-0.4-0.4-0.8-0.7-0.8-0.7s0.3-0.4,0.7-0.4c0.4,0,1.1-0.2,1-0.6
				c-0.1-0.3-0.4-0.5-0.6-0.5C197.3,96.8,196.7,97.2,196.2,97.5z"/>
			<path class="st20" d="M188.4,109c-0.3,1.2,0.3,1.5,0.5,1.5c0.2,0,0.4-0.5,0.4-0.9c-0.1-0.4,0.1-0.5,0.1-0.5s1,1,1.8,0.3
				c0.8-0.7,0.7-1.4,0.3-1.8c-0.3-0.3-0.6-0.6-0.6-0.6s0.2-0.3,0.6-0.3c0.3,0,0.9-0.1,0.8-0.5c-0.2-1-1.8-0.1-2.9,1
				C188.8,108,188.5,108.6,188.4,109z"/>
			<path class="st21" d="M203.2,90.5c-0.4-1.1,1.1-1.7,1.6-0.9c0.5,0.7,0,1-0.5,1.3C203.7,91.1,203.3,90.9,203.2,90.5z"/>
			<path class="st17" d="M197,108.5c0.4-0.2,1.1,0.5,0.5,1.3c-0.6,0.8-1.5,1.4-2.3,1.1c-0.7-0.3-0.3-0.9-0.3-0.9s-0.6-0.1-0.6,0.3
				c0,0.4,0.1,1,1,1.3c0.9,0.3,1.9-0.3,2.4-0.9c0.5-0.6,0.8-1.3,0.5-1.9c-0.3-0.6-0.8-1-1-0.9C196.9,108,196.5,108.3,197,108.5z"/>
			<path class="st22" d="M197.3,110.3c-1.2,1.2-1.8,0.7-1.8,0.4C195.4,110.3,197,109.4,197.3,110.3z"/>
			<path class="st23" d="M202.7,105.6c-0.7-1.2,0.1,1.1-0.7,2c-3.6,4.2-1.5,4.6,0,3.1C203.3,109.2,203.8,107.3,202.7,105.6z"/>
			<path class="st16" d="M187.1,105.5c-1.5,0.9-1.6,3.1-0.9,2.8c0.5-0.2,0.5-1,1-1.7c0.2-0.3,1-0.8,1.2-0.9
				C189.3,105.3,187.9,105.1,187.1,105.5z"/>
			<path class="st16" d="M193.2,96.2c-1.8,1.5-1.7,4.4-0.8,3.9c0.6-0.4,0.5-1.4,1.2-2.5c0.3-0.4,1.2-1.2,1.5-1.4
				C196.1,95.6,194.1,95.6,193.2,96.2z"/>
			<path class="st16" d="M180.4,105.3c1-8.8,5.6-3.6,7.4-7.9c1.7-4.3,0.3-7.2,5.6-7.6c8.9-0.7,27.3,22.9,38.1,18.2
				c2.2-1,5-6.2,3.6-9.3c-3.2-7-28.9-23.6-36.8-22.2c-11.4,2-18.3,9.8-21,14.8C174.4,96.2,175.2,103,180.4,105.3z"/>
			<path class="st16" d="M197.6,90.8c9.7,4.4,24.6,21.3,33.8,17.2c2.2-1,5-6.2,3.6-9.3c-2.7-5.8-20.6-18.1-31.2-21.4
				c0.4,0.5,0.8,1,1.2,1.4c2.7,2.6,15.5,9,16.1,10.2c0.6,1.2-1,0.4-2,0.9c-1,0.5,2.7,2.1,1.2,4.8c-1.5,2.7-4.5,0.3-3.6,1.6
				c0.8,1.3,1.6,3.5-1.5,3.5c-3.1,0-17.3-9.5-17.3-9.5C197.8,90.4,197.6,90.6,197.6,90.8z"/>
		</g>
		<path class="st19" d="M219.8,173.3c0.2,0.9,0.5,2,0.8,3.2c3.1,11.8,1.1,32.8,5.3,47.2c2.2,7.5,8.5,15.5,6,16.2
			c-2.7,3.6-3.5,2.3-4.8,1.3c-5.6-7.9-16.1-34.8-25-52.8C193.7,171.2,216.7,159.5,219.8,173.3z"/>
		<path class="st24" d="M224.1,193.7l-1.3-13.6l40.2-0.4c10-0.1,8.5-21.3,0.6-23.5c-7.1-1.9-47.1,6.4-54.3,9.6
			c-2.3,1-6.7,2.9-9.1,7.6c-2.1,4.2-2.6,11.3-0.7,12.9c5,4.3,13.7,10,19.3,11.7C223.9,199.6,224.4,197.2,224.1,193.7z"/>
		<g>
			<path class="st25" d="M113.4,157.4h104c3.7,0,3.7,5.6,0,5.6h-104C109.7,163,109.7,157.4,113.4,157.4z"/>
			<rect x="120.8" y="163" class="st25" width="6.3" height="91.2"/>
			<rect x="202.2" y="163" class="st25" width="6.3" height="91.2"/>
		</g>
		<path class="st26" d="M169,135h10v-3.2c0-0.8-0.6-1.4-1.4-1.4h-7.2c-0.8,0-1.4,0.6-1.4,1.4V135z"/>
		<g>
			<path class="st24" d="M173.7,141.2c2.4,0,4.3-1.5,4.3-3.3c0-1.8-1.9-3.3-4.3-3.3c-2.4,0-4.3,1.5-4.3,3.3
				C169.4,139.7,171.3,141.2,173.7,141.2z"/>
			<path class="st24" d="M171.7,139.7c2.5,3.8,6,6.1,9.9,6.1c7.4,0,13.4-8.4,13.4-18.7c0-9.8-5.4-17.8-12.2-18.6v4.7
				c4.7,1.2,8.3,7,8.3,13.9c0,7.8-4.5,14.1-10.1,14.1c-1.7,0-3.3-0.6-4.6-1.6H171.7z"/>
			<path class="st24" d="M179.2,120.8l-1-0.6c-0.3-0.2-0.7-0.1-0.8,0.2l-4.1,6.9c-0.2,0.3-0.1,0.7,0.2,0.8l1,0.6
				c0.3,0.2,0.7,0.1,0.8-0.2l4.1-6.9C179.6,121.3,179.5,120.9,179.2,120.8z"/>
			<path class="st2" d="M190.7,103.1l-3-1.8c-0.8-0.5-1.9-0.2-2.4,0.6l-11.9,20c-0.5,0.8-0.2,1.9,0.6,2.4l3,1.8
				c0.8,0.5,1.9,0.2,2.4-0.6l11.9-20C191.8,104.6,191.6,103.6,190.7,103.1z"/>
			<path class="st24" d="M193.9,100.7l-5.3-3.1c-0.9-0.5-2-0.3-2.6,0.5l-0.5,0.7c-0.6,0.8-0.4,2.1,0.5,2.6l5.3,3.1
				c0.9,0.5,2,0.3,2.6-0.5l0.5-0.7C195.1,102.5,194.8,101.2,193.9,100.7z"/>
			<path class="st24" d="M183.3,106c-2.9,0.2-5,2.7-4.8,5.6c0.2,2.9,2.7,5,5.6,4.8c2.9-0.2,5-2.7,4.8-5.6
				C188.6,107.9,186.1,105.7,183.3,106z"/>
			<rect x="166" y="133.3" class="st2" width="15.3" height="3.6"/>
			<polygon class="st24" points="189.6,152.6 173.8,152.6 178,144 184.9,144 			"/>
			<path class="st24" d="M191.8,152.2h-19.5c-3.4,0-3.4,5.2,0,5.2h19.5C195.2,157.4,195.2,152.2,191.8,152.2z"/>
			<path class="st2" d="M192.8,133.9c2.3,0,4.1-1.9,4.1-4.1c0-2.3-1.9-4.1-4.1-4.1c-2.3,0-4.1,1.9-4.1,4.1
				C188.7,132,190.5,133.9,192.8,133.9z"/>
			<path class="st2" d="M183.5,108.5c-1.5,0.1-2.6,1.4-2.5,2.8c0.1,1.5,1.4,2.6,2.8,2.5c1.5-0.1,2.6-1.4,2.5-2.8
				C186.2,109.5,184.9,108.4,183.5,108.5z"/>
		</g>
		<path class="st27" d="M225.8,107.2c-3.6,0.9-5.1,3.6-5.6,10.7c-0.2,2.7,0.5,6.7,0.1,8.9c-2,12.6,11.3,5.3,17.6,8.1
			c2.4,1.1,4.6,2.7,5.4,4c4.4,6.9-6.2,18.2-4.8,19.6c2.3,2.3,30.9-2.7,30.9-2.7C266.1,138,250.2,106.1,225.8,107.2z"/>
		<path class="st27" d="M240.3,154.8c-1,0.5-30.4,10.6-30.4,10.6l1.3,1.8l12.5-5.6l-9.8,9.4l9.8,13.8c0.1,0.1,0.8-4.8,1.6-4.6
			c4.2,0.7,11.7,0.7,21.7,0.7c18-0.1,25.4-0.7,24.1-16.9c-0.5-6.4-2.4-12.1-5.6-11.8L240.3,154.8z"/>
		<path class="st28" d="M232.4,120c-1.3,5.1-7.6,18.1-17.3,23.6c-14.5,8.1-26.4-19.6-26.4-19.6l4.8-5.6c0,0,11.8,20.1,18.9,15.8
			c7.1-4.3,8-17,11.1-20.5C226.7,110.2,235,112.2,232.4,120z"/>
		<g>
			<rect x="143.3" y="125.1" class="st29" width="2.4" height="17.4"/>
			<path class="st7" d="M144.9,140.1c0.7,0-2.6-11.8-5.7-11.9c-3.1-0.1-0.2,4.5,1,7.1c1.2,2.6,3,7.2,3,7.2h2.4L144.9,140.1z"/>
			<path class="st9" d="M144,140.3c-0.7,0,3.9-16.3,7-16.4c3.1-0.1-1.1,8.9-2.3,11.6c-1.2,2.6-3,7.2-3,7.2h-2.4L144,140.3z"/>
			<path class="st7" d="M143.3,139.3c-0.7,0.1-2.4-15.1,0.5-15.7c3-0.7,2.7,10.2,2.4,12c-0.3,1.8-0.6,4.9-0.6,4.9l-2.3,0.5
				L143.3,139.3z"/>
			<path class="st7" d="M144,140.3c-0.7-0.6-5.7-5.9-5.2-2.9c0.5,3,3.3,5.3,4.5,5.3C144.5,142.7,144,140.3,144,140.3z"/>
			<path class="st9" d="M145.7,139.9c0.7-0.6,5.7-5.9,5.2-2.9c-0.5,3-3.3,5.3-4.5,5.3C145.3,142.3,145.7,139.9,145.7,139.9z"/>
			<polygon class="st20" points="136.8,142.5 152.7,142.5 150,155.5 139.3,155.5 			"/>
			<path class="st20" d="M136.6,140.6h16.3c1.5,0,1.5,2.3,0,2.3h-16.3C135.1,142.9,135.1,140.6,136.6,140.6z"/>
			<polygon class="st15" points="136.8,153.4 152.6,153.4 150,157.5 139.6,157.5 			"/>
		</g>
		<path class="st19" d="M185.1,118.7c0,0-7.6-3.5-7.5-6.2c0.1-2.8,1.4-1.6,1.4-1.6s-0.8-2,0.1-3c0.9-1,1.8-0.5,1.8-0.5
			s-0.7-0.9,0.3-1.2c0.9-0.4,2.2,0.6,2.2,0.2c0-0.4-0.2-0.9,0.9-0.7c1,0.3,2.7,5.5,2.7,5.5s0.4,1.2,1.1,0c0.7-1.2-0.1-2.3-0.2-3
			c-0.1-0.7-1.2-1.1-1.2-1.1s2.7-1.4,3.6,0.4c0.9,1.8,0.7,3.8,0.4,5.4c-0.3,1.6-0.6,2.3-0.6,2.3l2.8,4.1l-2.8,3.2L185.1,118.7z"/>
		<path class="st20" d="M189.5,243.5c0,0-1.6-1.9-3.4-0.9c-3.2,1.9-6.6,3.7-6.5,4.4c0.1,1,0.3,1.1,0.3,1.1s6.2,0.4,8.7-0.2
			c2.5-0.7,4.8-4.8,4.8-4.1s0.5,3.7,1.3,4.1c0.8,0.4,0.9-0.4,0.9-0.4l0.9-4.6c0.2-1.1,0.9-2.5,0.2-3.4
			C196,238.7,190.1,244.4,189.5,243.5z"/>
		<path class="st19" d="M228.1,236.8c-0.3,0.4-6.9,6.6-6.6,7.5c0.3,0.9,3.5,2.1,5.3,1.2c1.8-0.9,5.2-4.5,5.8-5
			C233.3,240,230.2,235.9,228.1,236.8z"/>
		<path class="st20" d="M225.7,243.7c0,0-1.6-1.9-3.4-0.9c-3.2,1.9-6.6,3.7-6.5,4.4c0.1,1,0.3,1.1,0.3,1.1s6.2,0.4,8.7-0.2
			c2.5-0.7,4.8-4.8,4.8-4.1c0,0.7,0.5,3.7,1.3,4.1c0.8,0.4,0.9-0.4,0.9-0.4l0.9-4.6c0.2-1.1,0.9-2.5,0.2-3.4
			C232.3,238.8,226.3,244.6,225.7,243.7z"/>
		<g>
			<path class="st30" d="M228.8,189.2L228.8,189.2c-0.9-0.2-1.8,0.4-2,1.3L214.9,247c-0.2,0.9,0.4,1.8,1.3,2l0,0
				c0.9,0.2,1.8-0.4,2-1.3l11.9-56.5C230.3,190.3,229.7,189.4,228.8,189.2z"/>
			<path class="st31" d="M217.6,248.7c0.3-0.2,0.5-0.6,0.6-1l11.9-56.5c0.2-0.8-0.2-1.5-0.9-1.9c-0.3,0.2-0.5,0.6-0.6,1l-11.9,56.5
				C216.5,247.6,216.9,248.4,217.6,248.7z"/>
			<path class="st31" d="M289,130.4L289,130.4c-0.9-0.2-1.8,0.3-2,1.2l-13.8,56.1c-0.2,0.9,0.3,1.8,1.2,2v0c0.9,0.2,1.8-0.3,2-1.2
				l13.8-56.1C290.4,131.5,289.9,130.6,289,130.4z"/>
			<path class="st31" d="M273.4,189.8L273.4,189.8c0.9-0.2,1.8,0.4,2,1.3l11.9,56.5c0.2,0.9-0.4,1.8-1.3,2h0c-0.9,0.2-1.8-0.4-2-1.3
				l-11.9-56.5C271.9,190.9,272.5,190,273.4,189.8z"/>
			<path class="st31" d="M275.7,189.5c0.3-0.2,0.6-0.6,0.7-1l13.8-56.1c0.2-0.8-0.2-1.5-0.8-1.9c-0.3,0.2-0.6,0.6-0.7,1l-13.8,56.1
				C274.7,188.3,275,189.1,275.7,189.5z"/>
			<path class="st30" d="M284.6,249.3c-0.3-0.2-0.5-0.6-0.6-1l-11.9-56.5c-0.2-0.8,0.2-1.5,0.9-1.8c0.3,0.2,0.5,0.6,0.6,1l11.9,56.5
				C285.7,248.2,285.3,248.9,284.6,249.3z"/>
			<path class="st11" d="M274.4,179.8h-46.8c-3.3,0-6.1,2.7-6.1,6.1l0,0c0,3.3,2.7,6,6.1,6l46.8,0c3.3,0,6-2.7,6-6l0,0
				C280.5,182.6,277.8,179.8,274.4,179.8z"/>
			<path class="st20" d="M272.9,180.8h-43.8c-2.6,0-4.7,1.7-5.4,4.1h54.6C277.6,182.6,275.5,180.8,272.9,180.8z"/>
			<path class="st11" d="M286.4,122.5l-9.2,41.6c-1,4.3,5.6,5.8,6.5,1.4l9.2-41.6C293.9,119.7,287.4,118.2,286.4,122.5z"/>
			<path class="st20" d="M286.4,122.5l-9.2,41.6c-0.3,1.2,0.1,2.3,0.7,2.9c1-0.3,1.9-1.1,2.2-2.5l9.2-41.6c0.3-1.2-0.1-2.3-0.7-3
				C287.6,120.4,286.7,121.2,286.4,122.5z"/>
			<path class="st11" d="M288.6,247.7h-6c-1.5,0-1.5,2.3,0,2.3h6C290.2,250,290.2,247.7,288.6,247.7z"/>
			<path class="st20" d="M288.3,247.9H283c-0.5,0-0.9,0.3-1,0.8h7.5C289.3,248.3,288.8,247.9,288.3,247.9z"/>
			<path class="st11" d="M219.4,246.9h-6c-1.5,0-1.5,2.3,0,2.3h6C220.9,249.2,220.9,246.9,219.4,246.9z"/>
			<path class="st20" d="M219.1,247.1h-5.4c-0.5,0-0.9,0.3-1,0.8h7.5C220,247.4,219.6,247.1,219.1,247.1z"/>
		</g>
	</g>
	<g>
		<path class="st32" d="M100.2,228c0,0,4.7,3.7,4.3,6.3c-0.4,2.6-4.8-0.5-5.9-1.8c-1-1.3,0.8,1.7-0.8,2.3c-1.6,0.6-1.7-1.8-1.2-3.3
			c0.5-1.5,0.9-2.6,0.9-2.6L100.2,228z"/>
		<path class="st32" d="M89.8,239.8c0,0,4.5-3.9,3.9-6.6c-0.5-2.6-4.5-0.5-5.5,0.8c-1,1.3-1.5,0.6-3.2,0.1c-1.6-0.6-0.9,0.7-0.3,2.1
			c0.6,1.5,2.3,2.6,2.3,2.6L89.8,239.8z"/>
		<path class="st33" d="M89,219.3c0-0.1,7.2,0.1,7.2,0.1l0-2c0,0-0.4-2.3-1.6-2.8c-1.2-0.5-3.6-0.3-4.6,0.2
			C89.1,215.1,89,219.1,89,219.3L89,219.3z M86.6,221.6c-0.4-2.7,0.8-7.4,2.2-9c1.4-1.5,7.2-1.3,8.4,0.9c1.3,2.5,1.6,8.4,1.6,8.4
			L86.6,221.6z"/>
		<path class="st34" d="M77.2,242.9c1.5-5.8,3.3-12,4.9-16.3C73.8,223.4,66.1,237.9,77.2,242.9L77.2,242.9z M74.8,253
			c0.4-2.1,1-4.6,1.7-7.4c-16.3-6.4-4.8-27.3,6.6-21.4c0.5-1.2,1-2.1,1.5-2.5c3.7-3.8,6.6-2.9,13.2-2.6c5.2,0.2,11.8,23.9,13.4,34.7
			C113.2,266.5,72.5,265.2,74.8,253L74.8,253z"/>
		<path class="st3" d="M99.9,229.8c0,0,13.6-14.4,15.4-15.5c1.7-1.1,3,0,3,0s-13,35.1-12,34.9C107.2,249,98.1,238.2,99.9,229.8z"/>
		<path class="st33" d="M110.2,219.6c0.1-0.6,0.6-8.1,0.9-10.4c0.3-2.1,11.9-1.9,11.4,9c-0.1,1.5-9.5,3.3-9.5,3.3L110.2,219.6z"/>
		<path class="st35" d="M97,225.2c0,0,2.2,21.8,3.6,23.2c1.4,1.4-0.5-19.7-1.3-22.4C98.5,223.3,97.2,223,97,225.2z"/>
		<path class="st35" d="M110.1,219.8c0,0-6.8,7.5-5.9,7.6c0.9,0.1,6.1-6.5,6.5-6.9C111,220,111,220,110.1,219.8z"/>
		<path class="st3" d="M74.8,254.4c3.7,0.7,18.8,5.2,24.5-1.8c2.8-3.5-10.3-16-11.1-22.9c-0.5-4.6,5.5-13.5,11.1-10.2
			c3.1,1.8,15.4,29.3,11.3,37.8C107,264.5,76.6,266.5,74.8,254.4z"/>
		<path class="st34" d="M106.2,235.5c0,0,6.2-13.8,7.2-14c1-0.2,1.3,1.1,0.5,2.5c-0.8,1.4-6.4,16.2-6.4,16.2L106.2,235.5z"/>
		<path class="st35" d="M112.4,216.9c0,0,1.5-7.9,2.5-7.4c-0.6,0-0.4-1.2-2,0.2C111.4,211,110.8,216.4,112.4,216.9z"/>
	</g>
	<path class="st24" d="M127.5,145.8c3.1,1.4,4.4,5,3,8.1c-1.4,3.1-5,4.4-8.1,3c-3.1-1.4-4.4-5-3-8.1
		C120.8,145.7,124.4,144.4,127.5,145.8z"/>
	<path class="st36" d="M127,146.1c2.6,1.2,3.7,4.3,2.5,6.8c-1.2,2.6-4.3,3.7-6.8,2.5c-2.6-1.2-3.7-4.3-2.5-6.8
		C121.3,146,124.4,144.9,127,146.1z"/>
	<path class="st20" d="M127,146.1c0,0,0.4-2,0.7-2.2c0.3-0.2,1.3,0.2,1.4,0.6c0,0.4-1.3,2-1.3,2L127,146.1z"/>
	<path class="st29" d="M127.9,145c0.2-0.6,0.9-2.2-1.1-3.8c-2-1.5-1.4,2.7-0.7,3.4C126.8,145.4,127.9,145,127.9,145z"/>
	<g>
		<path class="st37" d="M139.1,240.8h35.4c0,0,0.3-1.5-0.2-3.4c-0.5-1.9-1.6-1-1.6-1s0.8-1.8-0.8-2.7c-1.6-0.9-3.3,2.5-3.3,2
			c0-0.5-0.6-4.5-2.7-5.4c-2.1-0.9-2.8,3.3-2.8,3.3l-1.7-1.4c0,0-1.3-4.3-3.4-4.5c-2.1-0.2-3.6,4.6-3.6,4.6s-1.8-3.5-3-3.1
			c-1.1,0.4-1.3,2.7-1.3,2.7s-0.7-1.3-2.2-1.3c-1.5,0-2.7,4-2.7,4s0.2-2.4-1.4-2.2c-1.6,0.2-2,3.1-2,3.1s-1.1,0-1.4,0
			C138.1,235.4,138.6,238.7,139.1,240.8z"/>
		<path class="st5" d="M135.4,238.3h43.4l-14.5,20.3c0,1.3-1.1,2.4-2.4,2.4l-9.8,0c-1.3,0-2.4-1.1-2.4-2.4L135.4,238.3z"/>
		<g>
			<path class="st38" d="M144.4,236.8c-1.6-1.9-1.2-3.7-0.3-4.1c0.8-0.3,1.2,0.5,1.2,0.5s1.5-1.6,1.8-1.1c0.3,0.5,0.8,1.9,0.8,1.9
				S146.5,237.6,144.4,236.8z"/>
			<path class="st38" d="M153.6,232.4c-0.9-1.4,0.1-4,0.4-3.6c0.4,0.4-0.1,1.7,0.3,1.5c0.4-0.2,1.1-0.9,1.4-0.6
				c0.3,0.3,0.1,1.1,0.1,1.1s0.7-0.1,0.6,0.3C156.4,231.6,154.8,233.3,153.6,232.4z"/>
			<path class="st38" d="M162.3,230.6c0,0-0.6,1.6,0,2.1c0.6,0.5,1.3-0.2,1.3-0.2s0.6,1.2,1.1,0.6c0.5-0.6-0.2-2.4-0.6-2.4
				c-0.4,0-0.3,0.2-0.6-0.2C163.3,230.1,162.3,230.6,162.3,230.6z"/>
			<path class="st38" d="M159.1,232.7c-0.3,0.9-0.9,2.3,0.6,2.5c1.6,0.2,1.3-1.1,1.3-1.1s0.9,0.2,0.6-0.4c-0.3-0.6-0.7-1.2-1.1-1.4
				C160.3,232.1,159.1,232.7,159.1,232.7z"/>
			<path class="st38" d="M169,234.2c-0.6,0.4-1.2,2.2-0.3,2c0.9-0.2,1.3-0.6,1.3-0.6s0.5,1.2,0.9,0.8c0.4-0.4,0.8-1.5,0.5-2
				C171.1,233.8,169,234.2,169,234.2z"/>
		</g>
	</g>
</g>
</svg>
