<?xml version="1.0" encoding="utf-8"?>
<!-- Generator: Adobe Illustrator 25.1.0, SVG Export Plug-In . SVG Version: 6.00 Build 0)  -->
<svg version="1.1" id="layer" xmlns="http://www.w3.org/2000/svg" xmlns:xlink="http://www.w3.org/1999/xlink" x="0px" y="0px"
	 viewBox="0 0 300 265" style="enable-background:new 0 0 300 265;" xml:space="preserve">
<style type="text/css">
	.st0{fill:#C7C8CA;}
	.st1{fill:#172728;}
	.st2{fill:#243D3D;}
	.st3{fill:#172526;}
	.st4{fill:#F04C22;}
	.st5{fill:#F0E7DD;}
	.st6{fill:#FF7850;}
	.st7{fill:#929FA2;}
	.st8{fill:#FDE209;}
	.st9{fill:#F95E35;}
	.st10{fill:#316E71;}
	.st11{fill:#1A302F;}
	.st12{fill:#57BCBF;}
	.st13{fill:#2D2D2D;}
	.st14{fill:#FFFFFF;}
	.st15{fill:#2E3192;}
	.st16{fill:#AED5D8;}
	.st17{fill:#F6DC01;}
	.st18{enable-background:new    ;}
	.st19{fill:#F04B1E;}
	.st20{fill:#BEE6F1;}
	.st21{fill:#F7E659;}
	.st22{fill:#A7C2C6;}
	.st23{fill:#C6C6C6;}
	.st24{fill:#FFC8FF;}
	.st25{fill:#6D6D6D;}
	.st26{fill:#D8D7D6;}
	.st27{fill:#00A651;}
	.st28{fill:#E3E3E3;}
	.st29{fill:#7F7F7F;}
	.st30{fill:#3AB5B7;}
	.st31{fill:#2C898A;}
	.st32{fill:#EB6C4A;}
	.st33{fill:#D8D8D8;}
	.st34{fill:#2D4144;}
	.st35{fill:#53A1A4;}
	.st36{fill:#94DDDD;}
	.st37{fill:#FFB680;}
	.st38{fill:#E6E7E8;}
	.st39{fill:#6A95DB;}
	.st40{fill:#364E70;}
	.st41{fill:#696969;}
	.st42{fill:#E8705A;}
	.st43{fill:#462D28;}
	.st44{fill:#FE7A63;}
	.st45{fill:#F5F5F5;}
	.st46{fill:#0D0000;}
	.st47{fill:#94B7EF;}
	.st48{fill:#B0ACC2;}
	.st49{fill:#343E54;}
	.st50{fill:#2D2E36;}
	.st51{fill:#FEFEFE;}
	.st52{fill:#D6D6D6;}
	.st53{fill:none;stroke:#575A66;stroke-width:0.5;stroke-miterlimit:10;}
</style>
<g>
	<g>
		<g>
			<g>
				<path class="st0" d="M114.6,206.3h70.1c8.8-6.3,15.9-15,20.5-25.1c6-13.3,7.2-28.4,3.5-42.5l0,0c-4.7-18-16.9-32.8-33.4-40.6
					c-16.3-7.7-35.6-7.6-51.8,0.3c-13,6.3-23.4,17-29.4,30.3l0,0c-6,13.3-7.2,28.4-3.5,42.5C94.4,185.7,102.9,198,114.6,206.3z
					 M163.6,175.2c-2.1,3-3.3,7-4.9,10.3c-2,4.3,0.3,11.1-6,12c-4.9,0.7-6.9-0.8-6.8-5.7c0-3.4,2.2-7.7,0.8-11c-0.9-2.3-3-2.8-5-3
					c-2.3-0.3-4.8-0.9-7-2.1c-4.2-2.4-4.4-4.7-2.7-8.7c0.9-2.3,1.4-5.4,2.6-7.6c0.7-1.2,3.6-2.3,4.8-1.2c0.8,0.8,0.2,2,0.4,3
					c1.6,5.4,8.2,1.3,11.4,2.4l0.8,0.2c1.8,0.2,3.7,0.9,5.5,1.2c2.8,0.5,9.2,0.8,9.7,4.4C167.6,172.2,164.9,173.3,163.6,175.2z
					 M188.1,198.6c-1-0.1-1.8-0.4-2.2-1.1c-1.5-2.3,3.1-7.3,4-9.1c1.8-3.6,2.8-5.7,6.6-6.8c1-0.3,3.4-1.2,4.8-1
					C198.1,187.6,193.6,193.6,188.1,198.6z M142.3,145.1c1-0.3,0.9-1.8,1.3-2.6c0.8-1.8,2.3-3.1,3.5-4.7c1.8-2.4,3.1-7,6.4-7.7
					c2.7-0.6,3.5,2.1,4.8,4c1,1.5,1.7,3,3.8,2.3c1.8-0.6,1.3-1.9,1.3-3.7c0-3,0.6-5.8,0.6-8.8c0-4.9,3.7-6.5,8.3-4.9
					c0.5,2.7-3.1,4.4-4.5,6.2c-2,2.6,0.4,5.5,3.3,3.7c0.8-0.5,1.4-2.1,2.1-2.8c0.9-0.9,2-1.6,3.1-2.3c1.2-0.8,2.4-1.3,3.8-1.8
					c2.8-1.1,6.1-0.2,8.6-1.1l0.4,0.8c0.9,0.5,1.6,1.6,2.6,1.8c1.2,0.3,2.6-0.3,3.8-0.4c1.1-0.1,2.2,0.1,3.2,0.4
					c2.9,4.9,5.2,10.2,6.7,15.8l0,0c0.6,2.2,1,4.4,1.3,6.6c-0.8,1-1.8,2.1-3.1,3.4c-2,2.2-2.9,5.4-5.3,7.4c-1.6,1.3-3.2,2.1-4.4,3.9
					c-1.7,2.4-4.7,5.6-5.2,8.5c-0.4,2.2,3.4,17.3-3,11.3c-2.1-2-2.5-4.9-2.2-7.5c0.2-1.7,0.3-2.1-0.7-3.6c-1.1-1.5-2.4-2.7-3.9-1.3
					c-2.1,2.1-0.2,7.9-4.5,8c-4.3,0.1-2.6-3.7-3.5-5.9c-0.3-0.7-1.8-2-2.4-2.6c-1.4-1.5-3.4-2.5-5.3-3.4c-4.3-2.1-8.6-2-12.9-3.5
					c-6.4-2.3-12.6-4.2-13.6-11.8c-0.3-2,0.1-5.7,2.7-5.2C140.6,143.8,141,145.5,142.3,145.1z M124.8,101.3c2.9-1.4,5.9-2.6,8.9-3.5
					c3.7,1.5,6.8,3.9,6.6,8c-0.2,3.7-2,5.6-3.8,8.6c-2.2,3.8,0.9,8.9-1.4,12.8c-1,1.8-2.8,2.9-3.8,4.8c-1,1.7-1.6,3.5-2.1,5.4
					c-0.5,1.7-0.8,4.8-2.3,5.8c-1.6,1.1-6.5,0.7-8.1-0.5c-1.9-1.4-3.7-7.3-4.1-9.6c-0.5-3.4,2.3-5.5,2.2-8.6c-0.2-3.7-4.8-5-7.3-6.6
					c-1.7-1.1-3.3-1.3-4.7-0.7C110.3,110.5,117.1,105,124.8,101.3z M106.1,179.1c-0.1-3.6-0.1-3.7-3.4-5.2c-2.5-1.1-5.1-1.9-7.6-2.9
					c-0.5-0.2-0.8-0.3-1.2-0.5c0-0.1-0.1-0.2-0.1-0.3c-3.5-13.4-2.3-27.6,3.3-40.2l0,0c1.3-2.9,2.8-5.6,4.5-8.2
					c-0.7,3.6,4.1,5.5,6.5,7.4c2,1.6,6.1,4.2,5.5,6.6c-0.4,1.8-1.3,2.2-2.4,1.6c-0.3-0.2-0.6-1.3-1.1-1.5c-0.7-0.4-2.4-0.1-3.1-0.1
					c-3.1,0.2-4.6,3.6-5.6,6.6c-1.4,4.1,3.5,5.1,6,2.5c1.4-1.5,1.2-5.7,4.1-4.4c1.1,0.5,2.5,2,3.5,2.7c1.6,1.1,2.8,2.7,4.2,4.1
					c4.1,4.2-1.4,5.8-4.4,8.4c-1.8,1.5-2.8,3.7-4.5,5.2c-1.4,1.3-2.7,1.6-4.5,2.1c-1.3,0.4-5.5,1.2-5.3,2.9c0.1,1.2,2.9,2.6,3.9,3.2
					c3.2,2,6.9,3.6,10.4,5.2c2.7,1.2,11,2.9,11.3,6.6c0.3,3.6-3.6,6.7-5.7,9c-1.9,2.2-3.4,4.9-5,7.3c-0.5,0.8-1.2,2.1-2.1,3.5
					c-2.9-2.4-5.5-5-7.8-7.8c0.4-1.4,0.7-2.8,0.8-4.2C106.5,185.5,106.2,182.3,106.1,179.1z"/>
			</g>
		</g>
		<g>
			<g>
				<polygon class="st1" points="279.2,190.1 264,190.1 265.3,188.4 278,188.4 				"/>
				<g>
					<polygon class="st2" points="254,189.4 253.4,189.4 253.4,186.3 254.1,183.1 254.1,178.9 254.7,178.9 254.7,183.2 254,186.4 
											"/>
				</g>
				<path class="st2" d="M251.8,173.9l-2.4-0.7l-11.6,0.7c-0.5,0-0.9,0.5-0.9,1v3c0,0.6,0.4,1,0.9,1l11.6,0.7l2.4-0.7l2,0.8h2.4
					l1.7,2.7l2.5-1.4l6.1-2.4L251.8,173.9z"/>
				<rect x="253.8" y="179.7" class="st3" width="1.2" height="0.3"/>
				<rect x="253.2" y="189.1" class="st3" width="1.1" height="0.6"/>
				<rect x="241" y="193.3" class="st3" width="9.3" height="21.1"/>
				<g>
					<rect x="242.7" y="202.8" class="st2" width="6.4" height="2.1"/>
					<rect x="242.7" y="194.7" class="st2" width="6.4" height="2.1"/>
					<rect x="242.7" y="210.9" class="st2" width="6.4" height="2.1"/>
					<rect x="242.7" y="206.9" class="st2" width="6.4" height="2.1"/>
					<rect x="242.7" y="198.7" class="st2" width="6.4" height="2.1"/>
				</g>
				<g>
					<path class="st2" d="M287.2,189.2h-32.5c-2.2,0-4.1,1.6-4.9,3.8v21.6c0.8,2.2,2.7,3.8,4.9,3.8h32.5c2.9,0,5.3-2.8,5.3-6.3
						v-16.7C292.5,192.1,290.1,189.2,287.2,189.2z"/>
					<g>
						<path class="st1" d="M289.6,189.9c1,1,1.6,3.1,1.6,5.6v16.7c0,2.4-0.7,4.5-1.6,5.6c1.7-1,2.8-3.1,2.8-5.6v-16.7
							C292.5,193.2,291.3,191.1,289.6,189.9z"/>
					</g>
					<g>
						<path class="st2" d="M280.4,209.9h-18.9c-3.2,0-5.7-3-5.7-6.9v-19.3c0-3.7,2.6-6.9,5.7-6.9h18.9c3.2,0,5.7,3,5.7,6.9V203
							C286.1,206.9,283.5,209.9,280.4,209.9z M261.5,182.1c-0.8,0-1.5,0.8-1.5,1.7v19.3c0,0.9,0.7,1.7,1.5,1.7h18.9
							c0.8,0,1.5-0.8,1.5-1.7v-19.3c0-0.9-0.7-1.7-1.5-1.7H261.5z"/>
					</g>
					<path class="st3" d="M237.8,173.9c-0.5,0-0.9,0.5-0.9,1v3c0,0.6,0.4,1,0.9,1l11.6,0.7v-6.5L237.8,173.9z"/>
					<polygon class="st1" points="292.6,181.2 298,182.7 298,170.7 292.6,172.3 					"/>
					<polygon class="st2" points="276.2,179.6 285.8,184.8 288.3,179.6 292.6,179.6 292.6,173.9 279.3,173.9 					"/>
					<rect x="228.3" y="191.5" class="st3" width="3.1" height="24.7"/>
					<polygon class="st2" points="242,215.6 231.5,216.3 231.5,191.5 242,192.2 					"/>
					<path class="st2" d="M298.7,184.3h-0.8c-0.7,0-1.3-0.7-1.3-1.5v-11.7c0-0.8,0.6-1.5,1.3-1.5h0.8c0.7,0,1.3,0.7,1.3,1.5v11.7
						C300,183.8,299.4,184.3,298.7,184.3z"/>
				</g>
				<polygon class="st4" points="241,215.6 242,215.6 242,192.2 241,192.2 				"/>
				<g>
					<g>
						<rect x="261.9" y="196.2" class="st5" width="5.2" height="2.7"/>
						<path class="st1" d="M267.5,199.2h-5.9v-3.4h5.9V199.2z M262.2,198.5h4.6v-1.9h-4.6V198.5z"/>
					</g>
					<g>
						<rect x="268.9" y="196.2" class="st4" width="5.2" height="2.7"/>
						<path class="st1" d="M274.5,199.2h-5.9v-3.4h5.9V199.2z M269.3,198.5h4.6v-1.9h-4.6V198.5z"/>
					</g>
					<g>
						<rect x="276" y="196.2" class="st6" width="5.2" height="2.7"/>
						<path class="st1" d="M281.5,199.2h-5.9v-3.4h5.9V199.2z M276.3,198.5h4.6v-1.9h-4.6V198.5z"/>
					</g>
					<g>
						<rect x="261.9" y="200.7" class="st7" width="5.2" height="2.7"/>
						<path class="st1" d="M267.5,203.7h-5.9v-3.4h5.9V203.7z M262.2,203h4.6v-1.9h-4.6V203z"/>
					</g>
					<g>
						<rect x="268.9" y="200.7" class="st8" width="5.2" height="2.7"/>
						<path class="st1" d="M274.5,203.7h-5.9v-3.4h5.9V203.7z M269.3,203h4.6v-1.9h-4.6V203z"/>
					</g>
					<g>
						<rect x="276" y="200.7" class="st9" width="5.2" height="2.7"/>
						<path class="st1" d="M281.5,203.7h-5.9v-3.4h5.9V203.7z M276.3,203h4.6v-1.9h-4.6V203z"/>
					</g>
				</g>
				<polygon class="st1" points="292.5,206.6 261.3,206.6 261.3,218.5 262.6,218.5 262.6,208.1 292.5,208.1 				"/>
				<path class="st1" d="M285.8,177.8c0,0.6-0.4,1.2-1,1.2c-0.5,0-1-0.5-1-1.2c0-0.6,0.4-1.2,1-1.2
					C285.4,176.8,285.8,177.3,285.8,177.8z"/>
				<polygon class="st1" points="277.8,176.7 277.6,177 277,177 277.5,177.4 281,177.4 285.9,184.3 286.1,184.7 286.1,184.1 
					286.3,183.8 281.3,176.7 				"/>
				<g>
					<rect x="252.1" y="194.7" class="st1" width="6.9" height="17.9"/>
					<g>
						<rect x="253.2" y="196.2" class="st2" width="4.8" height="4.6"/>
						<rect x="253.2" y="206.3" class="st2" width="4.8" height="4.8"/>
					</g>
				</g>
			</g>
			<g>
				<path class="st1" d="M270.3,213c0,0.9-0.7,1.7-1.5,1.7h-2.6c-0.8,0-1.5-0.8-1.5-1.7l0,0c0-0.9,0.7-1.7,1.5-1.7h2.6
					C269.6,211.3,270.3,212.1,270.3,213L270.3,213z"/>
				<g>
					<path class="st7" d="M267.1,213c0,0.5-0.3,0.8-0.7,0.8c-0.4,0-0.7-0.3-0.7-0.8c0-0.5,0.3-0.8,0.7-0.8
						C266.8,212.2,267.1,212.6,267.1,213z"/>
					<path class="st7" d="M269.3,213c0,0.5-0.3,0.8-0.7,0.8c-0.4,0-0.7-0.3-0.7-0.8c0-0.5,0.3-0.8,0.7-0.8
						C269,212.2,269.3,212.6,269.3,213z"/>
				</g>
			</g>
			<g>
				<g>
					<path class="st1" d="M275.1,213c0,0.9-0.7,1.7-1.5,1.7s-1.5-0.8-1.5-1.7s0.7-1.7,1.5-1.7C274.4,211.3,275.1,212.1,275.1,213z"
						/>
					<path class="st7" d="M274.3,213c0,0.5-0.3,0.8-0.7,0.8s-0.7-0.3-0.7-0.8c0-0.5,0.3-0.8,0.7-0.8
						C274,212.2,274.3,212.6,274.3,213z"/>
				</g>
				<g>
					<path class="st1" d="M282.2,213c0,0.9-0.7,1.7-1.5,1.7c-0.8,0-1.5-0.8-1.5-1.7s0.7-1.7,1.5-1.7S282.2,212.1,282.2,213z"/>
					<path class="st2" d="M281.4,213c0,0.5-0.3,0.8-0.7,0.8s-0.7-0.3-0.7-0.8c0-0.5,0.3-0.8,0.7-0.8
						C281.1,212.2,281.4,212.6,281.4,213z"/>
				</g>
				<g>
					<path class="st1" d="M278.6,213c0,0.9-0.7,1.7-1.5,1.7s-1.5-0.8-1.5-1.7s0.7-1.7,1.5-1.7C278,211.3,278.6,212.1,278.6,213z"/>
					<path class="st4" d="M277.9,213c0,0.5-0.3,0.8-0.7,0.8s-0.7-0.3-0.7-0.8c0-0.5,0.3-0.8,0.7-0.8
						C277.5,212.2,277.9,212.6,277.9,213z"/>
				</g>
			</g>
			<g>
				<path class="st1" d="M289.7,214.8h-5.9v-3.4h5.9V214.8z"/>
				<g>
					<rect x="286.1" y="212" class="st7" width="1.3" height="0.7"/>
					<rect x="286.1" y="212.8" class="st7" width="1.3" height="0.7"/>
					<rect x="286.1" y="213.6" class="st7" width="1.3" height="0.7"/>
					<rect x="287.8" y="212" class="st7" width="1.3" height="0.7"/>
					<rect x="287.8" y="212.8" class="st7" width="1.3" height="0.7"/>
					<rect x="287.8" y="213.6" class="st7" width="1.3" height="0.7"/>
					<rect x="284.4" y="212" class="st7" width="1.3" height="0.7"/>
					<rect x="284.4" y="212.8" class="st7" width="1.3" height="0.7"/>
					<rect x="284.4" y="213.6" class="st7" width="1.3" height="0.7"/>
				</g>
			</g>
		</g>
		<g>
			<g>
				<polygon class="st10" points="148.6,20.2 149.3,11.4 151.4,11.4 152.1,20.2 				"/>
				<g>
					<path class="st11" d="M147.3,9.8l-4.1-5.8l1.3-1.6l4.8,4.9L147.3,9.8z M143.8,4.1l3.5,4.9l1.3-1.6l-4.1-4.2L143.8,4.1z"/>
				</g>
				<path class="st2" d="M151.3,0l-10.2,12.1c2.8,3.4,7.4,3.4,10.2,0C154.1,8.8,154.1,3.4,151.3,0z"/>
				<g>
					<path class="st12" d="M144.7,4.2c-0.8,0.9-2,0.9-2.8,0s-0.8-2.4,0-3.4s2-0.9,2.8,0C145.5,1.9,145.5,3.3,144.7,4.2z"/>
				</g>
				<rect x="147.7" y="19.6" class="st6" width="5.3" height="1.3"/>
			</g>
			<path class="st2" d="M177.3,56.7c0,1.6-1.1,3-2.5,3h-57.7c-1.4,0-2.5-1.4-2.5-3v-8.5c0-1.6,1.1-3,2.5-3h57.7c1.4,0,2.5,1.4,2.5,3
				V56.7z"/>
			<path class="st13" d="M131.3,57.8c0,4.4-3,8-6.8,8c-3.7,0-6.8-3.6-6.8-8c0-4.4,3-8,6.8-8C128.2,49.7,131.3,53.3,131.3,57.8z"/>
			<path class="st13" d="M173.4,57.8c0,4.4-3,8-6.8,8c-3.7,0-6.8-3.6-6.8-8c0-4.4,3-8,6.8-8C170.4,49.7,173.4,53.3,173.4,57.8z"/>
			<path class="st14" d="M127.7,57.8c0,2.1-1.4,3.8-3.2,3.8s-3.2-1.7-3.2-3.8c0-2.1,1.4-3.8,3.2-3.8C126.2,54,127.7,55.8,127.7,57.8
				z"/>
			<path class="st14" d="M169.8,57.8c0,2.1-1.4,3.8-3.2,3.8s-3.2-1.7-3.2-3.8c0-2.1,1.4-3.8,3.2-3.8S169.8,55.8,169.8,57.8z"/>
			<path class="st15" d="M177.7,20.6h-47.4c-1.1,0-2.3,0.9-2.8,2l-5.9,13.9l-7.9,3.4c-1,0.5-1.8,1.7-1.8,3v12.5
				c0,1.3,0.9,2.3,1.9,2.3h2.4c0-5.5,3.7-10,8.3-10s8.3,4.4,8.3,10h25.4c0-5.5,3.7-10,8.3-10c4.6,0,8.4,4.4,8.4,10h2.7
				c1.3,0,2.4-1.5,2.4-3.5V24C180.1,22.2,179,20.6,177.7,20.6z"/>
			<g>
				<path class="st16" d="M124.5,36.6h15.9V25c0-1-1.1-1.9-1.5-1.9h-7.5c-0.5,0-1.4,0.6-1.6,1.2L124.5,36.6z"/>
			</g>
			<g>
				<path class="st17" d="M175.9,56.7h1.8c0.8,0,1.4-1,1.4-2.3V43.4h-66.3v12.1c0,0.6,0.4,1.2,1,1.2h1.4c0.5-5.6,4.4-10,9.3-10
					s8.8,4.4,9.3,10h23.6c0.5-5.6,4.4-10,9.3-10C171.4,46.7,175.4,51.1,175.9,56.7z"/>
			</g>
			<path class="st2" d="M182.3,58.1c0,0.7-0.5,1.4-1.1,1.4h-4.1c-0.6,0-1.1-0.6-1.1-1.4v-3.8c0-0.7,0.5-1.4,1.1-1.4h4.1
				c0.6,0,1.1,0.6,1.1,1.4V58.1z"/>
			<path class="st2" d="M116,58.1c0,0.7-0.5,1.4-1.1,1.4h-4.1c-0.6,0-1.1-0.6-1.1-1.4v-3.8c0-0.7,0.5-1.4,1.1-1.4h4.1
				c0.6,0,1.1,0.6,1.1,1.4V58.1z"/>
			<g>
				<path class="st14" d="M165.5,30.7c0,3.7-2.5,6.7-5.6,6.7c-3.1,0-5.6-3-5.6-6.7s2.5-6.7,5.6-6.7C163,24,165.5,27.1,165.5,30.7z"
					/>
				<g>
					<g>
						<path class="st10" d="M158.3,33c0,0.2-0.2,0.5-0.4,0.5l0,0c-0.2,0-0.4-0.2-0.4-0.5v-4.6c0-0.2,0.2-0.5,0.4-0.5l0,0
							c0.2,0,0.4,0.2,0.4,0.5V33z"/>
						<path class="st10" d="M156.4,28.9c-0.2,0-0.4-0.2-0.4-0.5l0,0c0-0.2,0.2-0.5,0.4-0.5h3c0.2,0,0.4,0.2,0.4,0.5l0,0
							c0,0.2-0.2,0.5-0.4,0.5H156.4z"/>
					</g>
					<g>
						<path class="st10" d="M162.2,32.9c0.1,0.2,0,0.6-0.2,0.6l0,0c-0.2,0.1-0.4,0-0.5-0.2l-1.4-4.6c-0.1-0.2,0-0.6,0.2-0.6l0,0
							c0.2-0.1,0.4,0,0.5,0.2L162.2,32.9z"/>
						<path class="st10" d="M161.6,32.9c-0.1,0.2,0,0.6,0.2,0.6l0,0c0.2,0.1,0.4,0,0.5-0.2l1.4-4.6c0.1-0.2,0-0.6-0.2-0.6l0,0
							c-0.2-0.1-0.4,0-0.5,0.2L161.6,32.9z"/>
					</g>
				</g>
			</g>
		</g>
		<g>
			<g>
				<g>
					<g class="st18">
						<g>
							<path class="st2" d="M236.2,103C236.1,103,236.1,103,236.2,103c-0.1,0-0.1,0-0.2,0.1c0,0,0,0,0,0.1c0,0,0,0,0,0.1v0.2l0,0
								l0,0l0,0l0,0l0,0l0,0l0,0l0,0l0,0h-2.7l0,0l0,0l0,0l0,0l0,0l0,0l0,0l0,0l0,0v-0.2c0,0,0,0,0-0.1c0,0,0,0,0-0.1c0,0,0,0-0.1,0
								h-0.1L236.2,103L236.2,103z"/>
						</g>
						<g>
							<path class="st2" d="M233.3,103.5L233.3,103.5l1.1,1l-0.4,0.3l-1.1-1l0,0c0,0,0,0,0-0.1c0,0,0,0,0-0.1c0,0,0,0,0-0.1
								c0,0,0,0,0.1-0.1l0,0l0,0l0,0l0,0l0,0l0,0l0,0l0,0l0,0C233.2,103.4,233.2,103.4,233.3,103.5
								C233.3,103.4,233.3,103.4,233.3,103.5L233.3,103.5z"/>
						</g>
						<g>
							<path class="st2" d="M236.1,106C236.1,106,236.2,106,236.1,106c0.1,0.1,0.1,0.1,0.1,0.2v0.1v0.1h-0.4l-1.3-1.2l0.4-0.3
								L236.1,106L236.1,106z"/>
						</g>
						<g>
							<path class="st2" d="M235.8,103.4L235.8,103.4L235.8,103.4C235.9,103.4,235.9,103.4,235.8,103.4L235.8,103.4L235.8,103.4
								L235.8,103.4L235.8,103.4L235.8,103.4c0.1,0,0.1,0,0.2,0.1c0,0,0,0,0,0.1c0,0,0,0,0,0.1c0,0,0,0,0,0.1l0,0l-1.1,1l-0.4,0.3
								l-1.3,1.2h-0.4c0,0,0,0,0-0.1v-0.1V106c0,0,0-0.1,0.1-0.1l0,0l1.3-1.2l0.4-0.3L235.8,103.4L235.8,103.4L235.8,103.4
								C235.7,103.4,235.7,103.4,235.8,103.4C235.7,103.4,235.7,103.4,235.8,103.4C235.7,103.4,235.8,103.4,235.8,103.4z"/>
						</g>
						<g>
							<path class="st2" d="M236.2,103L236.2,103c0.1,0,0.2,0,0.2,0.1c0,0,0,0,0.1,0.1c0,0,0,0,0,0.1l0.3,3.4v-0.1
								c0,0,0-0.1-0.1-0.1h-0.1h-0.1h-0.2c0,0,0,0,0-0.1v-0.1v-0.1c0,0,0-0.1-0.1-0.1l0,0l-0.1-2.2l0,0c0,0,0,0,0-0.1c0,0,0,0,0-0.1
								c0,0,0,0,0-0.1c0,0,0,0-0.1-0.1l0,0l0,0l0,0l0,0v-0.2c0,0,0,0,0-0.1c0,0,0,0,0-0.1C236,103.1,236,103,236.2,103
								C236.1,103,236.1,103,236.2,103z"/>
						</g>
						<g>
							<path class="st2" d="M232.8,103L232.8,103c0.1,0,0.1,0,0.2,0.1c0,0,0,0,0,0.1c0,0,0,0,0,0.1v0.2l0,0l0,0l0,0l0,0
								c0,0,0,0-0.1,0.1c0,0,0,0,0,0.1c0,0,0,0,0,0.1c0,0,0,0,0,0.1l0,0l-0.1,2.2l0,0c0,0,0,0-0.1,0.1v0.1v0.1v0.1h-0.2h-0.1h-0.1
								c0,0,0,0-0.1,0.1v0.1l0.3-3.4c0,0,0,0,0-0.1c0,0,0,0,0.1-0.1C232.6,103.1,232.7,103,232.8,103C232.7,103,232.7,103,232.8,103
								z"/>
						</g>
						<g>
							<path class="st2" d="M236.4,106.4L236.4,106.4h-0.2c0,0,0,0-0.1,0.1v0.1v0.2l0,0l0,0l0,0l0,0c0,0,0,0-0.1,0c0,0,0,0-0.1,0
								l0,0l0,0l0,0h-2.6l0,0l0,0l0,0c0,0,0,0-0.1,0c0,0,0,0-0.1,0l0,0l0,0l0,0l0,0v-0.2v-0.1c0,0,0-0.1-0.1-0.1h-0.1h-0.1h0.2h0.4
								h2.5h0.4C236.3,106.4,236.4,106.4,236.4,106.4z"/>
						</g>
						<g>
							<path class="st2" d="M233.2,106.9L233.2,106.9l1.3,1.4l-0.4,0.5l-1.3-1.4l0,0c0,0,0-0.1-0.1-0.1v-0.1V107c0,0,0-0.1,0.1-0.1
								l0,0l0,0l0,0l0,0l0,0l0,0l0,0l0,0c0,0,0,0,0.1,0C233,106.9,233.1,106.9,233.2,106.9C233.1,106.9,233.1,106.9,233.2,106.9
								C233.1,106.9,233.1,106.9,233.2,106.9z"/>
						</g>
						<g>
							<path class="st2" d="M236.4,110.3l0.1,0.1v0.1v0.1c0,0,0,0.1-0.1,0.1l0,0l0,0l0,0l0,0H236l0,0l0,0l0,0l0,0l0,0l-1.5-1.6
								l0.4-0.5L236.4,110.3L236.4,110.3z"/>
						</g>
						<g>
							<polygon class="st2" points="235.9,110.8 236,110.8 236,110.8 236,110.8 236,110.8 236,110.8 233,110.8 233,110.8 233,110.8 
								233,110.8 233,110.8 233,110.8 							"/>
						</g>
						<g>
							<path class="st2" d="M236,106.9L236,106.9L236,106.9C236.1,106.9,236.1,106.9,236,106.9L236,106.9L236,106.9L236,106.9
								L236,106.9L236,106.9l0.2,0.1v0.1v0.1c0,0,0,0.1-0.1,0.1l0,0l-1.3,1.4l-0.4,0.5l-1.5,1.6l0,0l0,0l0,0l0,0l0,0h-0.4l0,0l0,0
								l0,0l0,0l-0.1-0.1v-0.1v-0.1c0,0,0-0.1,0.1-0.1l0,0l1.5-1.5l0.4-0.5l1.3-1.4l0,0l0,0l0,0C235.9,106.9,235.9,106.9,236,106.9
								C235.9,106.9,235.9,106.9,236,106.9z"/>
						</g>
						<g>
							<path class="st2" d="M236.4,106.4L236.4,106.4h0.2c0,0,0,0,0.1,0.1v0.1l0.4,4.5l0,0l0,0l0,0l0,0V111c0,0,0-0.1-0.1-0.1
								c0,0-0.1,0-0.1-0.1h-0.1h-0.3l0,0l0,0l0,0l0,0c0,0,0-0.1,0.1-0.1v-0.1v-0.1c0,0,0-0.1-0.1-0.1l0,0l-0.2-2.9l0,0
								c0,0,0-0.1,0.1-0.1v-0.1v-0.1c0,0,0-0.1-0.1-0.1l0,0l0,0l0,0l0,0v-0.2v-0.1c0,0,0-0.1,0.1-0.1h0.1
								C236.3,106.4,236.4,106.4,236.4,106.4z"/>
						</g>
						<g>
							<path class="st2" d="M232.5,106.4L232.5,106.4h0.2c0,0,0,0,0.1,0.1v0.1v0.2l0,0l0,0l0,0l0,0l-0.1,0.1v0.1v0.1
								c0,0,0,0.1,0.1,0.1l0,0l-0.2,2.9l0,0l-0.1,0.1v0.1v0.1c0,0,0,0.1,0.1,0.1l0,0l0,0l0,0l0,0h-0.3h-0.1c0,0-0.1,0-0.1,0.1
								l-0.1,0.1v0.1l0,0l0,0l0,0l0,0l0.4-4.5L232.5,106.4c-0.1,0-0.1-0.1,0-0.1h0.1C232.5,106.4,232.5,106.4,232.5,106.4z"/>
						</g>
						<g>
							<path class="st2" d="M236.7,110.8L236.7,110.8c-0.1,0-0.2,0-0.2,0.1c0,0,0,0.1-0.1,0.1v0.1v0.3c0,0,0,0-0.1,0c0,0,0,0-0.1,0
								c0,0,0,0-0.1,0c0,0,0,0-0.1,0c0,0,0,0-0.1,0c0,0,0,0-0.1,0c0,0,0,0-0.1,0l0,0l0,0h-3l0,0l0,0c0,0,0,0-0.1,0c0,0,0,0-0.1,0
								c0,0,0,0-0.1,0c0,0,0,0-0.1,0c0,0,0,0-0.1,0c0,0,0,0-0.1,0c0,0,0,0-0.1,0v-0.3V111c0,0,0-0.1-0.1-0.1l-0.1-0.1h-0.1h0.3h0.4
								h3h0.4H236.7z"/>
						</g>
						<g>
							<path class="st2" d="M233,111.6l1.5,1.9l-0.5,0.6l-1.5-2l0,0l-0.1-0.1v-0.1v-0.1c0,0,0-0.1,0.1-0.1l0,0l0,0l0,0l0,0
								c0,0,0,0,0.1,0c0,0,0,0,0.1,0c0,0,0,0,0.1,0C232.8,111.6,232.8,111.6,233,111.6C232.9,111.6,232.9,111.6,233,111.6
								C233,111.6,233,111.6,233,111.6C232.9,111.5,232.9,111.5,233,111.6C232.9,111.5,232.9,111.5,233,111.6L233,111.6z"/>
						</g>
						<g>
							<path class="st2" d="M236.7,116.3l0.1,0.1c0,0.1,0,0.1,0,0.2c0,0.1,0,0.1,0,0.2s0,0.1-0.1,0.1h-0.6l-1.8-2.3l0.5-0.7
								L236.7,116.3L236.7,116.3z"/>
						</g>
						<g>
							<path class="st2" d="M236.2,111.4C236.2,111.4,236.3,111.4,236.2,111.4C236.3,111.4,236.3,111.4,236.2,111.4
								c0.1,0,0.1,0,0.2,0c0,0,0,0,0.1,0l0,0l0,0l0,0l0,0l0.1,0.1v0.1v0.1c0,0,0,0.1-0.1,0.1l0,0l-1.5,2l-0.5,0.7l-1.8,2.3h-0.6
								c0,0,0-0.1-0.1-0.1c0-0.1,0-0.1,0-0.2c0-0.1,0-0.1,0-0.2s0.1-0.1,0.1-0.1l0,0l1.8-2.2l0.5-0.6l1.5-1.9l0,0l0,0c0,0,0,0,0.1,0
								C236.1,111.5,236.1,111.5,236.2,111.4L236.2,111.4z"/>
						</g>
						<g>
							<path class="st2" d="M232.2,110.8L232.2,110.8c0.1,0,0.2,0,0.2,0.1c0,0,0,0.1,0.1,0.1v0.1v0.3l0,0l0,0l0,0l0,0l-0.1,0.1v0.1
								v0.1c0,0,0,0.1,0.1,0.1l0,0l-0.3,4.2l0,0l-0.1,0.1c0,0.1,0,0.1,0,0.2c0,0.1,0,0.1,0,0.2s0,0.1,0.1,0.1h-0.3
								c-0.1,0-0.1,0-0.2,0l-0.1,0.1l-0.1,0.1c0,0.1,0,0.1,0,0.2l0.5-6.4l0,0l0,0l0,0l0,0v-0.1c0,0,0-0.1,0.1-0.1c0,0,0.1,0,0.1-0.1
								C232.1,110.8,232.2,110.8,232.2,110.8z"/>
						</g>
						<g>
							<path class="st2" d="M236.7,110.8L236.7,110.8c0.1,0,0.2,0,0.2,0.1l0.1,0.1v0.1l0,0l0,0l0,0l0,0l0.5,6.4c0-0.1,0-0.1,0-0.2
								c0-0.1-0.1-0.1-0.1-0.1l-0.1-0.1c0,0-0.1,0-0.2,0h-0.3l0.1-0.1c0-0.1,0-0.1,0-0.2c0-0.1,0-0.1,0-0.2c0-0.1-0.1-0.1-0.1-0.1
								l0,0l-0.3-4.2l0,0l0.1-0.1V112v-0.1c0,0,0-0.1-0.1-0.1l0,0l0,0l0,0l0,0v-0.3v-0.1c0,0,0-0.1,0.1-0.1l0.1-0.1
								C236.6,110.8,236.7,110.8,236.7,110.8z"/>
						</g>
						<g>
							<path class="st2" d="M237.2,117C237.1,117,237.1,117,237.2,117l-0.2,0.1l-0.1,0.1c0,0.1,0,0.1,0,0.2v0.5c0,0,0,0-0.1-0.1
								c0,0,0,0-0.1,0c0,0,0,0-0.1,0c0,0,0,0-0.1,0c0,0,0,0-0.1,0c0,0,0,0-0.1,0c0,0,0,0-0.1,0c0,0,0,0-0.1,0.1l0,0h-3.6l0,0
								c0,0,0,0-0.1-0.1c0,0,0,0-0.1,0c0,0,0,0-0.1,0c0,0,0,0-0.1,0c0,0,0,0-0.1,0c0,0,0,0-0.1,0c0,0,0,0-0.1,0c0,0,0,0-0.1,0.1
								v-0.5c0-0.1,0-0.1,0-0.2s0-0.1-0.1-0.1l-0.1-0.1h-0.1h0.3h0.6h3.5h0.6H237.2z"/>
						</g>
						<g>
							<path class="st2" d="M232.6,118.1l1.8,2.8l-0.6,0.9l-1.8-2.9l0,0c0,0-0.1-0.1-0.1-0.2c0-0.1,0-0.1,0-0.2c0-0.1,0-0.1,0-0.2
								s0.1-0.1,0.1-0.2l0,0l0,0l0,0l0,0c0,0,0,0,0.1-0.1c0,0,0,0,0.1,0c0,0,0,0,0.1,0c0,0,0,0,0.1,0h0.1c0,0,0,0,0.1,0
								C232.5,118,232.5,118,232.6,118.1C232.6,118,232.6,118,232.6,118.1L232.6,118.1z"/>
						</g>
						<g>
							<path class="st2" d="M237.3,125.1c0.1,0.1,0.1,0.1,0.1,0.2s0,0.2,0.1,0.3c0,0.1,0,0.2,0,0.3c0,0.1,0,0.2-0.1,0.2l0,0l0,0l0,0
								l0,0c0,0,0,0.1-0.1,0.1c0,0,0,0-0.1,0.1h-0.1H237h-0.1h-0.1c0,0-0.1,0-0.1-0.1l-0.1-0.1l0,0l-2.2-3.5l0.6-0.9L237.3,125.1
								L237.3,125.1z"/>
						</g>
						<g>
							<path class="st2" d="M236.6,117.9L236.6,117.9C236.7,117.9,236.7,117.9,236.6,117.9c0.1,0,0.1,0,0.2,0c0,0,0,0,0.1,0.1l0,0
								l0,0l0,0l0,0c0,0,0.1,0.1,0.1,0.2s0,0.1,0,0.2c0,0.1,0,0.1,0,0.2s0,0.1-0.1,0.2l0,0l-1.8,2.9l-0.6,0.9l-2.2,3.5l0,0l-0.1,0.1
								c0,0-0.1,0-0.1,0.1H232h-0.1h-0.1h-0.1c0,0-0.1,0-0.1-0.1c0,0,0,0-0.1-0.1l0,0l0,0l0,0l0,0c0-0.1-0.1-0.1-0.1-0.2
								s0-0.2,0-0.3c0-0.1,0-0.2,0.1-0.3c0-0.1,0.1-0.2,0.1-0.2l0,0l2.2-3.4l0.6-0.9l1.8-2.8l0,0c0,0,0,0,0.1-0.1c0,0,0,0,0.1,0
								C236.4,117.9,236.5,117.9,236.6,117.9C236.5,117.9,236.5,117.9,236.6,117.9z"/>
						</g>
						<g>
							<path class="st2" d="M231.8,117C231.9,117,231.9,117,231.8,117l0.2,0.1l0.1,0.1c0,0.1,0,0.1,0,0.2v0.5l0,0l0,0l0,0l0,0
								c0,0-0.1,0.1-0.1,0.2c0,0.1,0,0.1,0,0.2s0,0.1,0,0.2c0,0.1,0,0.1,0.1,0.2l0,0l-0.4,6.2l0,0c0,0.1-0.1,0.1-0.1,0.2
								c0,0.1,0,0.2-0.1,0.3c0,0.1,0,0.2,0,0.3s0,0.2,0.1,0.2l0,0l0,0l0,0l0,0v0.8c0,0.1,0,0.2-0.1,0.3c0,0.1-0.1,0.2-0.1,0.2
								c0,0.1-0.1,0.1-0.2,0.2c-0.1,0-0.1,0.1-0.2,0.1c-0.1,0-0.1,0-0.2-0.1c-0.1,0-0.1-0.1-0.1-0.2c0-0.1-0.1-0.1-0.1-0.2
								s0-0.2,0-0.3l0.8-9.5c0-0.1,0-0.1,0-0.2s0.1-0.1,0.1-0.1l0.1-0.1C231.7,117,231.7,117,231.8,117z"/>
						</g>
						<g>
							<path class="st2" d="M237.2,117c0.1,0,0.1,0,0.2,0l0.1,0.1l0.1,0.1c0,0.1,0,0.1,0,0.2l0.8,9.5c0,0.1,0,0.2,0,0.3
								c0,0.1,0,0.2-0.1,0.2c0,0.1-0.1,0.1-0.1,0.2c-0.1,0-0.1,0.1-0.2,0.1c-0.1,0-0.1,0-0.2-0.1c-0.1,0-0.1-0.1-0.2-0.2
								c0-0.1-0.1-0.1-0.1-0.2s-0.1-0.2-0.1-0.3v-0.8l0,0l0,0l0,0l0,0c0-0.1,0.1-0.1,0.1-0.2c0-0.1,0-0.2,0-0.3s0-0.2-0.1-0.3
								c0-0.1-0.1-0.2-0.1-0.2l0,0l-0.4-6.2l0,0c0,0,0.1-0.1,0.1-0.2c0-0.1,0-0.1,0-0.2s0-0.1,0-0.2c0-0.1-0.1-0.1-0.1-0.2l0,0l0,0
								l0,0l0,0v-0.5c0-0.1,0-0.1,0-0.2c0-0.1,0-0.1,0.1-0.1L237.2,117C237.1,117,237.1,117,237.2,117z"/>
						</g>
						<g>
							<path class="st2" d="M236.7,126.3L236.7,126.3c0.1,0.1,0.1,0.1,0.1,0.1s0.1,0,0.1,0.1h0.1h0.1h0.1h0.1c0,0,0.1,0,0.1-0.1
								c0,0,0,0,0.1-0.1v0.8c0,0.1,0,0.2,0.1,0.3c0,0.1,0.1,0.2,0.1,0.2c0.1,0.1,0.1,0.1,0.2,0.2c0.1,0,0.1,0.1,0.2,0.1
								s0.1,0,0.2-0.1c0.1,0,0.1-0.1,0.1-0.2s0.1-0.1,0.1-0.2c0-0.1,0-0.2,0-0.3c0,0.1,0,0.2,0,0.3c0,0.1,0,0.2-0.1,0.2
								c0,0.1-0.1,0.1-0.1,0.2c-0.1,0-0.1,0.1-0.2,0.1h-7c-0.1,0-0.1,0-0.2-0.1c-0.1,0-0.1-0.1-0.1-0.2s-0.1-0.1-0.1-0.2
								c0-0.1,0-0.2,0-0.3c0,0.1,0,0.2,0,0.3c0,0.1,0,0.2,0.1,0.2c0,0.1,0.1,0.1,0.1,0.2c0.1,0,0.1,0.1,0.2,0.1c0.1,0,0.1,0,0.2-0.1
								c0.1,0,0.1-0.1,0.2-0.2c0-0.1,0.1-0.1,0.1-0.2c0-0.1,0.1-0.2,0.1-0.3v-0.8c0,0,0,0.1,0.1,0.1c0,0,0,0,0.1,0.1h0.1h0.1h0.1
								h0.1c0,0,0.1,0,0.1-0.1l0.1-0.1l0,0H236.7z"/>
						</g>
					</g>
				</g>
				<g>
					<ellipse class="st9" cx="234.5" cy="97.6" rx="5.7" ry="6.9"/>
					<path class="st6" d="M234.5,90.8v13.6c3.2,0,5.7-3,5.7-6.9S237.6,90.8,234.5,90.8z"/>
				</g>
				<g>
					<ellipse class="st6" cx="234.5" cy="97.6" rx="2.6" ry="3.1"/>
					<path class="st19" d="M234.5,94.4v6.3c1.4,0,2.6-1.4,2.6-3.1S235.9,94.4,234.5,94.4z"/>
				</g>
				<g>
					<g>
						<path class="st16" d="M239.9,104.8c-0.1,0-0.3-0.1-0.4-0.2c-0.2-0.2-0.2-0.6,0-0.8c1.4-1.6,2.1-3.8,2.1-6c0-2.3-0.7-4.4-2.1-6
							c-0.2-0.2-0.2-0.6,0-0.8c0.2-0.2,0.5-0.2,0.7,0c1.6,1.9,2.4,4.3,2.4,7s-0.9,5.1-2.4,7C240.2,104.7,240.1,104.8,239.9,104.8z"
							/>
					</g>
					<g>
						<path class="st16" d="M229,104.8c-0.1,0-0.3-0.1-0.4-0.2c-1.6-1.9-2.4-4.3-2.4-7s0.9-5.1,2.4-7c0.2-0.2,0.5-0.2,0.7,0
							c0.2,0.2,0.2,0.6,0,0.8c-1.4,1.6-2.1,3.8-2.1,6c0,2.3,0.7,4.4,2.1,6c0.2,0.2,0.2,0.6,0,0.8C229.3,104.7,229.1,104.8,229,104.8
							z"/>
					</g>
					<g>
						<path class="st16" d="M243.6,109.1c-0.1,0-0.3-0.1-0.4-0.2c-0.2-0.2-0.2-0.6,0-0.8c2.3-2.8,3.6-6.5,3.6-10.5
							s-1.3-7.7-3.6-10.5c-0.2-0.2-0.2-0.6,0-0.8c0.2-0.2,0.5-0.2,0.7,0c2.5,3,3.9,7,3.9,11.3s-1.4,8.2-3.9,11.3
							C243.8,109,243.7,109.1,243.6,109.1z"/>
					</g>
					<g>
						<path class="st16" d="M225.4,109.1c-0.1,0-0.3-0.1-0.4-0.2c-2.5-3-3.9-7-3.9-11.3s1.4-8.2,3.9-11.3c0.2-0.2,0.5-0.2,0.7,0
							c0.2,0.2,0.2,0.6,0,0.8c-2.3,2.8-3.6,6.5-3.6,10.5s1.3,7.7,3.6,10.5c0.2,0.2,0.2,0.6,0,0.8C225.6,109,225.5,109.1,225.4,109.1
							z"/>
					</g>
					<g>
						<path class="st16" d="M247.2,113.4c-0.1,0-0.3-0.1-0.4-0.2c-0.2-0.2-0.2-0.6,0-0.8c3.3-3.9,5.1-9.2,5.1-14.8
							c0-5.6-1.8-10.8-5.1-14.8c-0.2-0.2-0.2-0.6,0-0.8c0.2-0.2,0.5-0.2,0.7,0c3.5,4.2,5.4,9.8,5.4,15.6c0,5.9-1.9,11.5-5.4,15.6
							C247.5,113.4,247.3,113.4,247.2,113.4z"/>
					</g>
					<g>
						<path class="st16" d="M221.7,113.4c-0.1,0-0.3-0.1-0.4-0.2c-3.5-4.2-5.4-9.8-5.4-15.6c0-5.9,1.9-11.5,5.4-15.6
							c0.2-0.2,0.5-0.2,0.7,0c0.2,0.2,0.2,0.6,0,0.8c-3.3,3.9-5.1,9.2-5.1,14.8s1.8,10.8,5.1,14.8c0.2,0.2,0.2,0.6,0,0.8
							C222,113.4,221.8,113.4,221.7,113.4z"/>
					</g>
				</g>
			</g>
			<g>
				<g>
					<g>
						<path class="st2" d="M283.2,86.9h-35.3c-1.5,0-2.7,1.7-2.7,3.9v31.9c0,2.2,1.2,3.9,2.7,3.9h35.3c1.5,0,2.7-1.7,2.7-3.9V90.8
							C285.9,88.6,284.7,86.9,283.2,86.9z"/>
						<rect x="247.6" y="90.1" class="st20" width="36" height="30.8"/>
						<polygon class="st2" points="275.7,132.5 255.5,132.5 257.6,129.5 273.6,129.5 						"/>
						<rect x="264.2" y="126.7" class="st2" width="2.8" height="4.1"/>
						<path class="st21" d="M283.7,123.8c0,0.3-0.3,0.7-0.6,0.7h-1.7c-0.3,0-0.6-0.3-0.6-0.7l0,0c0-0.3,0.3-0.7,0.6-0.7h1.7
							C283.4,123.1,283.7,123.5,283.7,123.8L283.7,123.8z"/>
						<path class="st14" d="M281.4,123.6c-0.1,0-0.2,0.1-0.2,0.2c0,0.1,0.1,0.2,0.2,0.2h1.7c0.1,0,0.2-0.1,0.2-0.2
							c0-0.1-0.1-0.2-0.2-0.2H281.4z"/>
					</g>
				</g>
				<g>
					<g>
						<g>
							<g>
								<g>
									<path class="st14" d="M256.7,108.3c0,0.3-0.2,0.6-0.5,0.6l0,0c-0.3,0-0.5-0.2-0.5-0.6v-5.5c0-0.3,0.2-0.6,0.5-0.6l0,0
										c0.3,0,0.5,0.2,0.5,0.6V108.3z"/>
									<path class="st14" d="M256.2,103.4c-0.3,0-0.5-0.2-0.5-0.6l0,0c0-0.3,0.2-0.6,0.5-0.6h3.5c0.3,0,0.5,0.2,0.5,0.6l0,0
										c0,0.3-0.2,0.6-0.5,0.6H256.2z"/>
									<path class="st14" d="M256.2,108.8c-0.3,0-0.5-0.2-0.5-0.6l0,0c0-0.3,0.2-0.6,0.5-0.6h3.5c0.3,0,0.5,0.2,0.5,0.6l0,0
										c0,0.3-0.2,0.6-0.5,0.6H256.2z"/>
									<path class="st14" d="M256.2,106.2c-0.3,0-0.5-0.2-0.5-0.6l0,0c0-0.3,0.2-0.6,0.5-0.6h3.5c0.3,0,0.5,0.2,0.5,0.6l0,0
										c0,0.3-0.2,0.6-0.5,0.6H256.2z"/>
								</g>
							</g>
						</g>
						<g>
							<path class="st14" d="M250.8,108.3c0,0.3-0.2,0.6-0.5,0.6l0,0c-0.3,0-0.5-0.2-0.5-0.6v-5.5c0-0.3,0.2-0.6,0.5-0.6l0,0
								c0.3,0,0.5,0.2,0.5,0.6V108.3z"/>
							<path class="st14" d="M254.4,108.3c0,0.3-0.2,0.6-0.5,0.6l0,0c-0.3,0-0.5-0.2-0.5-0.6v-5.5c0-0.3,0.2-0.6,0.5-0.6l0,0
								c0.3,0,0.5,0.2,0.5,0.6V108.3z"/>
							<path class="st14" d="M254.4,108.1c0.1,0.3,0,0.6-0.3,0.7l0,0c-0.2,0.1-0.5,0-0.6-0.3l-3.5-5.6c-0.1-0.3,0-0.6,0.3-0.7l0,0
								c0.2-0.1,0.5,0,0.6,0.3L254.4,108.1z"/>
						</g>
						<g>
							<g>
								<path class="st14" d="M263.3,108.1c0.1,0.3,0,0.6-0.3,0.7l0,0c-0.2,0.1-0.5,0-0.6-0.3l-1.7-5.5c-0.1-0.3,0-0.6,0.3-0.7l0,0
									c0.2-0.1,0.5,0,0.6,0.3L263.3,108.1z"/>
								<path class="st14" d="M262.5,108.1c-0.1,0.3,0,0.6,0.3,0.7l0,0c0.2,0.1,0.5,0,0.6-0.3l1.7-5.5c0.1-0.3,0-0.6-0.3-0.7l0,0
									c-0.2-0.1-0.5,0-0.6,0.3L262.5,108.1z"/>
							</g>
							<g>
								<path class="st14" d="M266.8,108.1c0.1,0.3,0,0.6-0.3,0.7l0,0c-0.2,0.1-0.5,0-0.6-0.3l-1.7-5.5c-0.1-0.3,0-0.6,0.3-0.7l0,0
									c0.2-0.1,0.5,0,0.6,0.3L266.8,108.1z"/>
								<path class="st14" d="M266,108.1c-0.1,0.3,0,0.6,0.3,0.7l0,0c0.2,0.1,0.5,0,0.6-0.3l1.7-5.5c0.1-0.3,0-0.6-0.3-0.7l0,0
									c-0.2-0.1-0.5,0-0.6,0.3L266,108.1z"/>
							</g>
						</g>
						<g>
							<g>
								<path class="st14" d="M271.2,108.8c-1.3,0-2.3-0.8-2.3-2c0-0.3,0.2-0.6,0.5-0.6s0.5,0.2,0.5,0.6s0.6,0.8,1.3,0.8
									c0.8,0,1.3-0.5,1.3-0.8c0-0.3-0.6-0.8-1.3-0.8c-0.3,0-0.5-0.2-0.5-0.6s0.2-0.6,0.5-0.6c1.3,0,2.3,0.8,2.3,2
									C273.5,108,272.5,108.8,271.2,108.8z"/>
							</g>
							<g>
								<path class="st14" d="M271.2,106.2c-1.3,0-2.3-0.8-2.3-2c0-1,1-2,2.3-2s2.3,0.8,2.3,2c0,0.3-0.2,0.6-0.5,0.6
									c-0.3,0-0.5-0.2-0.5-0.6s-0.6-0.8-1.3-0.8c-0.8,0-1.3,0.5-1.3,0.8s0.6,0.8,1.3,0.8c0.3,0,0.5,0.2,0.5,0.6
									C271.7,105.8,271.5,106.2,271.2,106.2z"/>
							</g>
						</g>
					</g>
					<g>
						<path class="st14" d="M277.3,107.9c0,0.6-0.4,1-0.9,1s-0.9-0.5-0.9-1c0-0.6,0.4-1,0.9-1S277.3,107.3,277.3,107.9z"/>
						<g>
							<path class="st14" d="M278.7,109c0-2.1-1.5-3.8-3.3-3.8v-0.8c2.2,0,4,2.1,4,4.8L278.7,109L278.7,109z"/>
						</g>
						<g>
							<path class="st14" d="M280.5,109c0-3.4-2.3-6-5.1-6v-0.8c3.2,0,5.8,3.1,5.8,6.9C281.2,109,280.5,109,280.5,109z"/>
						</g>
					</g>
				</g>
			</g>
			<g>
				<path class="st22" d="M236.2,148.7v-23.1h20.3v23.1c0,2.2-1.5,4.1-3.4,4.1h-20.3C234.7,152.7,236.2,151,236.2,148.7z"/>
				<g>
					<path class="st23" d="M236.2,148.7v-23.1h20.3v23.1c0,2.2-1.5,4.1-3.4,4.1h-20.3C234.7,152.7,236.2,151,236.2,148.7z"/>
					<g>
						<path class="st2" d="M253,151h-15.7l0.1-0.3c0.2-0.6,0.3-1.3,0.3-2v-21.3H255v21.3C255,150,254.1,151,253,151z M237.9,150.5
							H253c0.8,0,1.5-0.8,1.5-1.7V128h-16.4v20.7C238.1,149.3,238,150,237.9,150.5z"/>
					</g>
				</g>
				<path class="st2" d="M251.4,148.7v-23.1h-9.8v23.1c0,2.2,0.7,4.1,1.6,4.1h9.8C252.1,152.7,251.4,151,251.4,148.7z"/>
				<path class="st24" d="M249.6,148.7v-29.2h-20.3v29.2c0,2.2,1.5,4.1,3.4,4.1H253C251.1,152.7,249.6,151,249.6,148.7z"/>
				<g>
					<g>
						<path class="st2" d="M249.2,151.5h-16.4c-1.3,0-2.3-1.3-2.3-2.8v-27.9h18.1v27.9c0,0.8,0.2,1.6,0.5,2.4L249.2,151.5z
							 M230.8,121.4v27.3c0,1.3,0.9,2.3,1.9,2.3h15.8c-0.3-0.7-0.4-1.5-0.4-2.3v-27.4L230.8,121.4L230.8,121.4z"/>
					</g>
				</g>
				<g>
					<g>
						<g>
							<g>
								<g>
									<path class="st2" d="M236.7,126.1c0,0.1-0.1,0.2-0.2,0.2l0,0c-0.1,0-0.2-0.1-0.2-0.2v-2.8c0-0.1,0.1-0.2,0.2-0.2l0,0
										c0.1,0,0.2,0.1,0.2,0.2V126.1z"/>
									<path class="st2" d="M236.5,123.6c-0.1,0-0.2-0.1-0.2-0.2l0,0c0-0.1,0.1-0.2,0.2-0.2h1.8c0.1,0,0.2,0.1,0.2,0.2l0,0
										c0,0.1-0.1,0.2-0.2,0.2H236.5z"/>
									<path class="st2" d="M236.5,126.4c-0.1,0-0.2-0.1-0.2-0.2l0,0c0-0.1,0.1-0.2,0.2-0.2h1.8c0.1,0,0.2,0.1,0.2,0.2l0,0
										c0,0.1-0.1,0.2-0.2,0.2H236.5z"/>
									<path class="st2" d="M236.5,125c-0.1,0-0.2-0.1-0.2-0.2l0,0c0-0.1,0.1-0.2,0.2-0.2h1.8c0.1,0,0.2,0.1,0.2,0.2l0,0
										c0,0.1-0.1,0.2-0.2,0.2H236.5z"/>
								</g>
							</g>
						</g>
						<g>
							<path class="st2" d="M233.8,126.1c0,0.1-0.1,0.2-0.2,0.2l0,0c-0.1,0-0.2-0.1-0.2-0.2v-2.8c0-0.1,0.1-0.2,0.2-0.2l0,0
								c0.1,0,0.2,0.1,0.2,0.2V126.1z"/>
							<path class="st2" d="M235.6,126.1c0,0.1-0.1,0.2-0.2,0.2l0,0c-0.1,0-0.2-0.1-0.2-0.2v-2.8c0-0.1,0.1-0.2,0.2-0.2l0,0
								c0.1,0,0.2,0.1,0.2,0.2V126.1z"/>
							<path class="st2" d="M235.6,126c0,0.1,0,0.3-0.1,0.3l0,0c-0.1,0-0.3,0-0.3-0.1l-1.8-2.8c0-0.1,0-0.3,0.1-0.3l0,0
								c0.1,0,0.3,0,0.3,0.1L235.6,126z"/>
						</g>
						<g>
							<g>
								<path class="st2" d="M240.1,126c0,0.1,0,0.3-0.1,0.3l0,0c-0.1,0-0.3,0-0.3-0.1l-0.8-2.8c0-0.1,0-0.3,0.1-0.3l0,0
									c0.1,0,0.3,0,0.3,0.1L240.1,126z"/>
								<path class="st2" d="M239.7,126c0,0.1,0,0.3,0.1,0.3l0,0c0.1,0,0.3,0,0.3-0.1l0.8-2.8c0-0.1,0-0.3-0.1-0.3l0,0
									c-0.1,0-0.3,0-0.3,0.1L239.7,126z"/>
							</g>
							<g>
								<path class="st2" d="M241.8,126c0,0.1,0,0.3-0.1,0.3l0,0c-0.1,0-0.3,0-0.3-0.1l-0.8-2.8c0-0.1,0-0.3,0.1-0.3l0,0
									c0.1,0,0.3,0,0.3,0.1L241.8,126z"/>
								<path class="st2" d="M241.4,126c0,0.1,0,0.3,0.1,0.3l0,0c0.1,0,0.3,0,0.3-0.1l0.8-2.8c0-0.1,0-0.3-0.1-0.3l0,0
									c-0.1,0-0.3,0-0.3,0.1L241.4,126z"/>
							</g>
						</g>
						<g>
							<g>
								<path class="st2" d="M244,126.4c-0.6,0-1.1-0.5-1.1-0.9c0-0.1,0.1-0.2,0.2-0.2c0.1,0,0.2,0.1,0.2,0.2c0,0.2,0.3,0.3,0.7,0.3
									s0.7-0.2,0.7-0.3c0-0.2-0.3-0.3-0.7-0.3c-0.1,0-0.2-0.1-0.2-0.2s0.1-0.2,0.2-0.2c0.6,0,1.1,0.5,1.1,0.9
									C245.1,125.9,244.6,126.4,244,126.4z"/>
							</g>
							<g>
								<path class="st2" d="M244,125c-0.6,0-1.1-0.5-1.1-0.9c0-0.6,0.5-0.9,1.1-0.9s1.1,0.5,1.1,0.9c0,0.1-0.1,0.2-0.2,0.2
									c-0.1,0-0.2-0.1-0.2-0.2c0-0.2-0.3-0.3-0.7-0.3s-0.7,0.2-0.7,0.3c0,0.2,0.3,0.3,0.7,0.3c0.1,0,0.2,0.1,0.2,0.2
									C244.2,124.9,244.1,125,244,125z"/>
							</g>
						</g>
					</g>
					<path class="st2" d="M247,136c0,0.2-0.1,0.3-0.3,0.3h-14.4c-0.2,0-0.3-0.1-0.3-0.3l0,0c0-0.2,0.1-0.3,0.3-0.3h14.4
						C246.8,135.6,247,135.8,247,136L247,136z"/>
					<path class="st2" d="M247,141.9c0,0.2-0.1,0.3-0.3,0.3h-14.4c-0.2,0-0.3-0.1-0.3-0.3l0,0c0-0.2,0.1-0.3,0.3-0.3h14.4
						C246.8,141.6,247,141.7,247,141.9L247,141.9z"/>
					<path class="st2" d="M247,147.9c0,0.2-0.1,0.3-0.3,0.3h-14.4c-0.2,0-0.3-0.1-0.3-0.3l0,0c0-0.2,0.1-0.3,0.3-0.3h14.4
						C246.8,147.5,247,147.6,247,147.9L247,147.9z"/>
					<g>
						<rect x="232.3" y="128.8" class="st14" width="6.1" height="4.5"/>
						<path class="st2" d="M238.4,133.7h-6.1c-0.2,0-0.3-0.1-0.3-0.3v-4.5c0-0.2,0.1-0.3,0.3-0.3h6.1c0.2,0,0.3,0.1,0.3,0.3v4.5
							C238.8,133.5,238.6,133.7,238.4,133.7z M232.6,133h5.5v-3.8h-5.5V133z"/>
					</g>
					<g>
						<rect x="240.6" y="128.8" class="st14" width="6.1" height="4.5"/>
						<path class="st2" d="M246.7,133.7h-6.1c-0.2,0-0.3-0.1-0.3-0.3v-4.5c0-0.2,0.1-0.3,0.3-0.3h6.1c0.2,0,0.3,0.1,0.3,0.3v4.5
							C247,133.5,246.9,133.7,246.7,133.7z M240.9,133h5.5v-3.8h-5.5V133z"/>
					</g>
				</g>
			</g>
			<g>
				<g>
					<path class="st2" d="M280.7,136.8c0.9,0,1.7,0.9,1.7,2.1v10.5c0,1.2-0.8,2-1.7,2l-17.1-0.1c-0.9,0-1.7-0.9-1.7-2.1v-10.5
						c0-1.2,0.8-2,1.7-2L280.7,136.8z"/>
					<path class="st16" d="M271,137.4c0.9,0,1.7,0.9,1.7,2.1v9.2c0,1.2-0.8,2-1.7,2h-6.8c-0.9,0-1.7-0.9-1.7-2.1v-9.2
						c0-1.2,0.8-2,1.7-2H271z"/>
					<g>
						<path class="st2" d="M280.2,137.4c0.9,0,1.7,0.9,1.7,2.1v9.3c0,1.2-0.8,2-1.7,2H275c-0.9,0-1.7-0.9-1.7-2.1v-9.3
							c0-1.2,0.8-2,1.7-2H280.2z"/>
						
							<rect x="270.5" y="142.3" transform="matrix(2.770367e-03 -1 1 2.770367e-03 131.3075 419.5907)" class="st17" width="11" height="3.3"/>
						<g>
							<path class="st14" d="M277.6,140.2c0.8,0,1.5,0.8,1.5,1.9v4.1c0,1-0.7,1.9-1.5,1.7l0,0c-0.8,0-1.5-0.8-1.5-1.9v-4.1
								C276.1,141,276.8,140.2,277.6,140.2L277.6,140.2z"/>
							<path class="st16" d="M276.1,142.1v4.1c0,1,0.7,1.9,1.5,1.9v-7.7C276.8,140.2,276.1,141,276.1,142.1z"/>
							<g>
								<path class="st2" d="M277.6,141c0.5,0,0.9,0.5,0.9,1s-0.4,1-0.9,1s-0.9-0.5-0.9-1S277.1,141,277.6,141z"/>
								<path class="st2" d="M277.6,145c0.5,0,0.9,0.5,0.9,1c0,0.6-0.4,1-0.9,1s-0.9-0.5-0.9-1C276.7,145.4,277.1,145,277.6,145z"/>
							</g>
						</g>
						<g>
							<path class="st14" d="M281,149.8C280.9,149.8,280.9,149.8,281,149.8h-6.6c-0.1,0-0.2-0.1-0.2-0.2v-11c0-0.1,0-0.1,0.1-0.2
								c0,0,0.1-0.1,0.2-0.1h6.6c0.1,0,0.1,0,0.2,0.1c0,0,0.1,0.1,0.1,0.2v11C281.1,149.6,281.1,149.7,281,149.8L281,149.8z
								 M274.6,149.3h6.1v-10.5h-6.1V149.3z"/>
						</g>
					</g>
					<path class="st1" d="M263.8,138.7c0-0.2,0.2-0.5,0.4-0.5c0.2,0,0.4,0.2,0.4,0.5c0,0.2-0.2,0.5-0.4,0.5
						C263.9,139.2,263.8,139,263.8,138.7z M265.2,138.7c0-0.2,0.2-0.5,0.4-0.5c0.2,0,0.4,0.2,0.4,0.5c0,0.2-0.2,0.5-0.4,0.5
						C265.4,139.2,265.2,139,265.2,138.7z M266.7,138.7c0-0.2,0.2-0.5,0.4-0.5c0.2,0,0.4,0.2,0.4,0.5c0,0.2-0.2,0.5-0.4,0.5
						S266.7,139,266.7,138.7z M268.2,138.8c0-0.2,0.2-0.5,0.4-0.5c0.2,0,0.4,0.2,0.4,0.5c0,0.2-0.2,0.5-0.4,0.5
						C268.4,139.3,268.2,139,268.2,138.8z M263,140c0-0.2,0.2-0.5,0.4-0.5c0.2,0,0.4,0.2,0.4,0.5c0,0.2-0.2,0.5-0.4,0.5
						S263,140.2,263,140z M264.5,140c0-0.2,0.2-0.5,0.4-0.5c0.2,0,0.4,0.2,0.4,0.5c0,0.2-0.2,0.5-0.4,0.5
						C264.7,140.4,264.5,140.2,264.5,140z M266,140c0-0.2,0.2-0.5,0.4-0.5c0.2,0,0.4,0.2,0.4,0.5c0,0.2-0.2,0.5-0.4,0.5
						C266.1,140.4,266,140.2,266,140z M267.5,140c0-0.2,0.2-0.5,0.4-0.5c0.2,0,0.4,0.2,0.4,0.5c0,0.2-0.2,0.5-0.4,0.5
						C267.6,140.4,267.5,140.3,267.5,140z M263.7,141.4c0-0.2,0.2-0.5,0.4-0.5c0.2,0,0.4,0.2,0.4,0.5c0,0.2-0.2,0.5-0.4,0.5
						S263.7,141.6,263.7,141.4z M265.2,141.4c0-0.2,0.2-0.5,0.4-0.5c0.2,0,0.4,0.2,0.4,0.5c0,0.2-0.2,0.5-0.4,0.5
						C265.4,141.8,265.2,141.6,265.2,141.4z M266.7,141.4c0-0.2,0.2-0.5,0.4-0.5c0.2,0,0.4,0.2,0.4,0.5c0,0.2-0.2,0.5-0.4,0.5
						S266.7,141.6,266.7,141.4z M268.2,141.4c0-0.2,0.2-0.5,0.4-0.5c0.2,0,0.4,0.2,0.4,0.5c0,0.2-0.2,0.5-0.4,0.5
						C268.4,141.8,268.2,141.6,268.2,141.4z M263,142.6c0-0.2,0.2-0.5,0.4-0.5c0.2,0,0.4,0.2,0.4,0.5c0,0.2-0.2,0.5-0.4,0.5
						C263.2,143.1,263,142.9,263,142.6z M264.5,142.6c0-0.2,0.2-0.5,0.4-0.5c0.2,0,0.4,0.2,0.4,0.5c0,0.2-0.2,0.5-0.4,0.5
						C264.7,143.1,264.5,142.9,264.5,142.6z M266,142.6c0-0.2,0.2-0.5,0.4-0.5c0.2,0,0.4,0.2,0.4,0.5c0,0.2-0.2,0.5-0.4,0.5
						C266.1,143.1,266,143,266,142.6z M267.4,142.6c0-0.2,0.2-0.5,0.4-0.5c0.2,0,0.4,0.2,0.4,0.5c0,0.2-0.2,0.5-0.4,0.5
						C267.6,143.1,267.4,143,267.4,142.6z M263.7,144c0-0.2,0.2-0.5,0.4-0.5c0.2,0,0.4,0.2,0.4,0.5c0,0.2-0.2,0.5-0.4,0.5
						S263.7,144.3,263.7,144z M265.2,144c0-0.2,0.2-0.5,0.4-0.5c0.2,0,0.4,0.2,0.4,0.5c0,0.2-0.2,0.5-0.4,0.5
						C265.4,144.5,265.2,144.3,265.2,144z M266.7,144c0-0.2,0.2-0.5,0.4-0.5c0.2,0,0.4,0.2,0.4,0.5c0,0.2-0.2,0.5-0.4,0.5
						S266.7,144.3,266.7,144z M268.2,144c0-0.2,0.2-0.5,0.4-0.5c0.2,0,0.4,0.2,0.4,0.5c0,0.2-0.2,0.5-0.4,0.5
						C268.4,144.5,268.2,144.3,268.2,144z M263,145.3c0-0.2,0.2-0.5,0.4-0.5c0.2,0,0.4,0.2,0.4,0.5c0,0.2-0.2,0.5-0.4,0.5
						S263,145.5,263,145.3z M264.5,145.3c0-0.2,0.2-0.5,0.4-0.5c0.2,0,0.4,0.2,0.4,0.5c0,0.2-0.2,0.5-0.4,0.5
						C264.7,145.8,264.5,145.7,264.5,145.3z M266,145.3c0-0.2,0.2-0.5,0.4-0.5c0.2,0,0.4,0.2,0.4,0.5c0,0.2-0.2,0.5-0.4,0.5
						C266.1,145.8,266,145.7,266,145.3z M267.4,145.3c0-0.2,0.2-0.5,0.4-0.5c0.2,0,0.4,0.2,0.4,0.5c0,0.2-0.2,0.5-0.4,0.5
						S267.4,145.7,267.4,145.3z M263.7,146.6c0-0.2,0.2-0.5,0.4-0.5c0.2,0,0.4,0.2,0.4,0.5c0,0.2-0.2,0.5-0.4,0.5
						S263.7,146.9,263.7,146.6z M265.2,146.7c0-0.2,0.2-0.5,0.4-0.5c0.2,0,0.4,0.2,0.4,0.5c0,0.2-0.2,0.5-0.4,0.5
						C265.4,147.2,265.2,146.9,265.2,146.7z M266.7,146.7c0-0.2,0.2-0.5,0.4-0.5c0.2,0,0.4,0.2,0.4,0.5c0,0.2-0.2,0.5-0.4,0.5
						S266.7,146.9,266.7,146.7z M268.2,146.7c0-0.2,0.2-0.5,0.4-0.5c0.2,0,0.4,0.2,0.4,0.5c0,0.2-0.2,0.5-0.4,0.5
						C268.4,147.2,268.2,146.9,268.2,146.7z M263,148c0-0.2,0.2-0.5,0.4-0.5c0.2,0,0.4,0.2,0.4,0.5c0,0.2-0.2,0.5-0.4,0.5
						S263,148.3,263,148z M264.5,148c0-0.2,0.2-0.5,0.4-0.5c0.2,0,0.4,0.2,0.4,0.5c0,0.2-0.2,0.5-0.4,0.5
						C264.6,148.4,264.5,148.3,264.5,148z M266,148c0-0.2,0.2-0.5,0.4-0.5c0.2,0,0.4,0.2,0.4,0.5c0,0.2-0.2,0.5-0.4,0.5
						C266.1,148.4,265.9,148.3,266,148z M267.4,148c0-0.2,0.2-0.5,0.4-0.5c0.2,0,0.4,0.2,0.4,0.5c0,0.2-0.2,0.5-0.4,0.5
						S267.4,148.3,267.4,148z M263.7,149.3c0-0.2,0.2-0.5,0.4-0.5c0.2,0,0.4,0.2,0.4,0.5c0,0.2-0.2,0.5-0.4,0.5
						S263.7,149.5,263.7,149.3z M265.2,149.3c0-0.2,0.2-0.5,0.4-0.5c0.2,0,0.4,0.2,0.4,0.5c0,0.2-0.2,0.5-0.4,0.5
						C265.4,149.7,265.2,149.5,265.2,149.3z M266.7,149.3c0-0.2,0.2-0.5,0.4-0.5c0.2,0,0.4,0.2,0.4,0.5c0,0.2-0.2,0.5-0.4,0.5
						S266.7,149.5,266.7,149.3z M268.2,149.3c0-0.2,0.2-0.5,0.4-0.5c0.2,0,0.4,0.2,0.4,0.5c0,0.2-0.2,0.5-0.4,0.5
						C268.3,149.7,268.2,149.6,268.2,149.3z"/>
					<path class="st1" d="M266.7,138.7c0-0.2,0.2-0.5,0.4-0.5c0.2,0,0.4,0.2,0.4,0.5c0,0.2-0.2,0.5-0.4,0.5S266.7,139,266.7,138.7z
						 M268.2,138.8c0-0.2,0.2-0.5,0.4-0.5c0.2,0,0.4,0.2,0.4,0.5c0,0.2-0.2,0.5-0.4,0.5C268.4,139.3,268.2,139,268.2,138.8z
						 M269.7,138.8c0-0.2,0.2-0.5,0.4-0.5c0.2,0,0.4,0.2,0.4,0.5c0,0.2-0.2,0.5-0.4,0.5S269.7,139,269.7,138.8z M271.2,138.8
						c0-0.2,0.2-0.5,0.4-0.5c0.2,0,0.4,0.2,0.4,0.5c0,0.2-0.2,0.5-0.4,0.5C271.4,139.3,271.2,139,271.2,138.8z M266,140
						c0-0.2,0.2-0.5,0.4-0.5c0.2,0,0.4,0.2,0.4,0.5c0,0.2-0.2,0.5-0.4,0.5S266,140.2,266,140z M267.5,140c0-0.2,0.2-0.5,0.4-0.5
						c0.2,0,0.4,0.2,0.4,0.5c0,0.2-0.2,0.5-0.4,0.5C267.7,140.4,267.5,140.3,267.5,140z M269,140c0-0.2,0.2-0.5,0.4-0.5
						c0.2,0,0.4,0.2,0.4,0.5c0,0.2-0.2,0.5-0.4,0.5C269.1,140.4,269,140.3,269,140z M270.4,140c0-0.2,0.2-0.5,0.4-0.5
						c0.2,0,0.4,0.2,0.4,0.5c0,0.2-0.2,0.5-0.4,0.5S270.4,140.3,270.4,140z M266.7,141.4c0-0.2,0.2-0.5,0.4-0.5
						c0.2,0,0.4,0.2,0.4,0.5c0,0.2-0.2,0.5-0.4,0.5S266.7,141.6,266.7,141.4z M268.2,141.4c0-0.2,0.2-0.5,0.4-0.5
						c0.2,0,0.4,0.2,0.4,0.5c0,0.2-0.2,0.5-0.4,0.5C268.4,141.8,268.2,141.6,268.2,141.4z M269.7,141.4c0-0.2,0.2-0.5,0.4-0.5
						c0.2,0,0.4,0.2,0.4,0.5c0,0.2-0.2,0.5-0.4,0.5S269.7,141.6,269.7,141.4z M271.2,141.4c0-0.2,0.2-0.5,0.4-0.5
						c0.2,0,0.4,0.2,0.4,0.5c0,0.2-0.2,0.5-0.4,0.5C271.4,141.8,271.2,141.7,271.2,141.4z M266,142.6c0-0.2,0.2-0.5,0.4-0.5
						c0.2,0,0.4,0.2,0.4,0.5c0,0.2-0.2,0.5-0.4,0.5C266.2,143.1,266,143,266,142.6z M267.5,142.6c0-0.2,0.2-0.5,0.4-0.5
						c0.2,0,0.4,0.2,0.4,0.5c0,0.2-0.2,0.5-0.4,0.5C267.6,143.1,267.5,143,267.5,142.6z M269,142.6c0-0.2,0.2-0.5,0.4-0.5
						c0.2,0,0.4,0.2,0.4,0.5c0,0.2-0.2,0.5-0.4,0.5C269.1,143.1,269,143,269,142.6z M270.4,142.6c0-0.2,0.2-0.5,0.4-0.5
						c0.2,0,0.4,0.2,0.4,0.5c0,0.2-0.2,0.5-0.4,0.5C270.6,143.1,270.4,143,270.4,142.6z M266.7,144c0-0.2,0.2-0.5,0.4-0.5
						c0.2,0,0.4,0.2,0.4,0.5c0,0.2-0.2,0.5-0.4,0.5S266.7,144.3,266.7,144z M268.2,144c0-0.2,0.2-0.5,0.4-0.5c0.2,0,0.4,0.2,0.4,0.5
						c0,0.2-0.2,0.5-0.4,0.5C268.4,144.5,268.2,144.3,268.2,144z M269.7,144c0-0.2,0.2-0.5,0.4-0.5c0.2,0,0.4,0.2,0.4,0.5
						c0,0.2-0.2,0.5-0.4,0.5S269.7,144.3,269.7,144z M271.2,144c0-0.2,0.2-0.5,0.4-0.5c0.2,0,0.4,0.2,0.4,0.5c0,0.2-0.2,0.5-0.4,0.5
						C271.3,144.5,271.2,144.3,271.2,144z M266,145.3c0-0.2,0.2-0.5,0.4-0.5c0.2,0,0.4,0.2,0.4,0.5c0,0.2-0.2,0.5-0.4,0.5
						S266,145.7,266,145.3z M267.5,145.3c0-0.2,0.2-0.5,0.4-0.5c0.2,0,0.4,0.2,0.4,0.5c0,0.2-0.2,0.5-0.4,0.5
						C267.6,145.8,267.5,145.7,267.5,145.3z M268.9,145.3c0-0.2,0.2-0.5,0.4-0.5c0.2,0,0.4,0.2,0.4,0.5c0,0.2-0.2,0.5-0.4,0.5
						C269.1,145.8,268.9,145.7,268.9,145.3z M270.4,145.4c0-0.2,0.2-0.5,0.4-0.5c0.2,0,0.4,0.2,0.4,0.5c0,0.2-0.2,0.5-0.4,0.5
						S270.4,145.7,270.4,145.4z M266.7,146.7c0-0.2,0.2-0.5,0.4-0.5c0.2,0,0.4,0.2,0.4,0.5c0,0.2-0.2,0.5-0.4,0.5
						S266.7,146.9,266.7,146.7z M268.2,146.7c0-0.2,0.2-0.5,0.4-0.5c0.2,0,0.4,0.2,0.4,0.5c0,0.2-0.2,0.5-0.4,0.5
						C268.4,147.2,268.2,146.9,268.2,146.7z M269.7,146.7c0-0.2,0.2-0.5,0.4-0.5c0.2,0,0.4,0.2,0.4,0.5c0,0.2-0.2,0.5-0.4,0.5
						S269.7,146.9,269.7,146.7z M271.2,146.7c0-0.2,0.2-0.5,0.4-0.5c0.2,0,0.4,0.2,0.4,0.5c0,0.2-0.2,0.5-0.4,0.5
						C271.3,147.2,271.2,146.9,271.2,146.7z M266,148c0-0.2,0.2-0.5,0.4-0.5c0.2,0,0.4,0.2,0.4,0.5c0,0.2-0.2,0.5-0.4,0.5
						C266.1,148.4,266,148.3,266,148z M267.5,148c0-0.2,0.2-0.5,0.4-0.5c0.2,0,0.4,0.2,0.4,0.5c0,0.2-0.2,0.5-0.4,0.5
						C267.6,148.4,267.5,148.3,267.5,148z M268.9,148.1c0-0.2,0.2-0.5,0.4-0.5c0.2,0,0.4,0.2,0.4,0.5c0,0.2-0.2,0.5-0.4,0.5
						C269.1,148.6,268.9,148.3,268.9,148.1z M270.4,148.1c0-0.2,0.2-0.5,0.4-0.5c0.2,0,0.4,0.2,0.4,0.5c0,0.2-0.2,0.5-0.4,0.5
						S270.4,148.3,270.4,148.1z M266.7,149.3c0-0.2,0.2-0.5,0.4-0.5c0.2,0,0.4,0.2,0.4,0.5c0,0.2-0.2,0.5-0.4,0.5
						S266.7,149.5,266.7,149.3z M268.2,149.3c0-0.2,0.2-0.5,0.4-0.5c0.2,0,0.4,0.2,0.4,0.5c0,0.2-0.2,0.5-0.4,0.5
						C268.4,149.7,268.2,149.6,268.2,149.3z M269.7,149.3c0-0.2,0.2-0.5,0.4-0.5c0.2,0,0.4,0.2,0.4,0.5c0,0.2-0.2,0.5-0.4,0.5
						S269.7,149.6,269.7,149.3z M271.2,149.3c0-0.2,0.2-0.5,0.4-0.5c0.2,0,0.4,0.2,0.4,0.5c0,0.2-0.2,0.5-0.4,0.5
						C271.3,149.7,271.2,149.6,271.2,149.3z"/>
				</g>
			</g>
		</g>
		<g>
			<g>
				<g>
					<g>
						<path class="st2" d="M233.3,31.4c0,4.4-3,7.9-6.6,7.9c-3.7,0-6.7-3.5-6.7-7.9s3-7.9,6.6-7.9C230.3,23.5,233.3,26.9,233.3,31.4
							z"/>
						<path class="st11" d="M226.6,23.5v15.8c3.7,0,6.6-3.6,6.6-7.9C233.3,26.9,230.3,23.5,226.6,23.5z"/>
					</g>
					<path class="st4" d="M233.9,31.4c0,0.6-0.4,1.2-1,1.2h-12.6c-0.5,0-1-0.5-1-1.2l0,0c0-0.6,0.4-1.2,1-1.2h12.6
						C233.5,30.2,233.9,30.7,233.9,31.4L233.9,31.4z"/>
				</g>
				<polygon class="st11" points="228.5,79.1 224.9,79.1 223.5,50.3 229.9,50.3 				"/>
				<path class="st4" d="M236.1,48c0,1.7-1.2,3.1-2.6,3.1h-13.6c-1.5,0-2.7-1.4-2.7-3.1v-5.8c0-1.7,1.2-3.1,2.6-3.1h13.6
					c1.5,0,2.7,1.4,2.7,3.1V48z"/>
				<g>
					<path class="st14" d="M224.2,47.7c0,0.3-0.2,0.6-0.4,0.6l0,0c-0.2,0-0.4-0.2-0.4-0.6v-5.1c0-0.3,0.2-0.6,0.4-0.6l0,0
						c0.2,0,0.4,0.2,0.4,0.6V47.7z"/>
					<path class="st14" d="M230,42c-0.2-0.1-0.5,0-0.6,0.3l-1.1,3.8l-1.2-3.8c-0.1-0.2-0.3-0.5-0.6-0.3c-0.2,0.1-0.3,0.5-0.3,0.7
						l1.6,5.1c0.1,0.2,0.2,0.3,0.4,0.3c0.2,0,0.4-0.1,0.4-0.3l1.5-5.1C230.3,42.5,230.2,42.2,230,42z"/>
					<path class="st14" d="M234.4,45.6c0.2,0,0.4-0.2,0.4-0.6c0-0.3-0.2-0.6-0.4-0.6h-2.9V43h2.9c0.2,0,0.4-0.2,0.4-0.6
						s-0.2-0.6-0.4-0.6h-3.3H231c-0.2,0.1-0.3,0.2-0.3,0.5v5.1l0,0l0,0v0.1c0,0.2,0.2,0.3,0.3,0.5h0.1h3.3c0.2,0,0.4-0.2,0.4-0.6
						s-0.2-0.6-0.4-0.6h-2.9v-1.5L234.4,45.6z"/>
					<path class="st14" d="M222.2,47.2h-2.9v-4.5c0-0.3-0.2-0.6-0.4-0.6c-0.2,0-0.4,0.2-0.4,0.6v5.1c0,0.3,0.2,0.6,0.4,0.6l0,0h3.3
						c0.2,0,0.4-0.2,0.4-0.6C222.7,47.4,222.5,47.2,222.2,47.2z"/>
				</g>
			</g>
			<g>
				<g>
					<g>
						<g>
							<path class="st2" d="M213.9,29.4c0,4.4-3.1,8-6.8,7.9c-3.7,0-6.7-3.6-6.7-8.1c0-4.4,3.1-8,6.8-7.9
								C210.9,21.4,213.9,25,213.9,29.4z"/>
							<path class="st11" d="M207.2,21.3l-0.1,16c3.7,0,6.8-3.5,6.8-7.9C213.9,25,210.9,21.4,207.2,21.3z"/>
						</g>
						<polygon class="st11" points="208.7,79.1 205,79.1 203.8,49.9 210.3,49.9 						"/>
						<path class="st12" d="M214.1,50.6c0,1.7-1.2,3.1-2.7,3.1l-8.7-0.1c-1.5,0-2.7-1.5-2.7-3.3l0.1-10.3c0-1.7,1.2-3.1,2.7-3.1
							l8.7,0.1c1.5,0,2.7,1.5,2.7,3.3L214.1,50.6z"/>
						<g>
							<g>
								<path class="st14" d="M204.7,48.8c0,0.3-0.3,0.7-0.6,0.7l0,0c-0.3,0-0.6-0.3-0.6-0.7v-6.9c0-0.3,0.3-0.7,0.6-0.7l0,0
									c0.3,0,0.6,0.3,0.6,0.7V48.8z"/>
								<path class="st14" d="M202,42.6c-0.3,0-0.6-0.3-0.6-0.7l0,0c0-0.3,0.3-0.7,0.6-0.7h4.4c0.3,0,0.6,0.3,0.6,0.7l0,0
									c0,0.3-0.3,0.7-0.6,0.7H202z"/>
							</g>
							<g>
								<path class="st14" d="M210.5,48.6c0.1,0.3,0,0.8-0.3,0.9l0,0c-0.3,0.1-0.6,0-0.8-0.5l-2-6.9c-0.1-0.3,0-0.8,0.3-0.9l0,0
									c0.3-0.1,0.6,0,0.8,0.5L210.5,48.6z"/>
								<path class="st14" d="M209.5,48.6c-0.1,0.3,0,0.8,0.3,0.9l0,0c0.3,0.1,0.6,0,0.8-0.3l2.1-6.7c0.1-0.3,0-0.8-0.3-0.9l0,0
									c-0.3-0.1-0.6,0-0.8,0.3L209.5,48.6z"/>
							</g>
						</g>
					</g>
				</g>
			</g>
		</g>
		<g>
			<rect x="29" y="204" transform="matrix(1.267618e-03 -1 1 1.267618e-03 -185.177 246.9729)" width="4.2" height="24.3"/>
			<g>
				
					<rect x="44" y="202.8" transform="matrix(1.274872e-03 -1 1 1.274872e-03 -155.0719 253.7707)" class="st25" width="11" height="3.5"/>
				<polygon points="59.3,214.2 55.9,214.2 53.6,210.7 50.1,210.7 50.1,198.3 53.6,198.3 55.9,194.9 59.4,194.9 				"/>
			</g>
			
				<rect x="40.9" y="203.4" transform="matrix(1.274835e-03 -1 1 1.274835e-03 -156.7973 252.1099)" class="st13" width="13.8" height="2.3"/>
			
				<rect x="23.2" y="174.4" transform="matrix(1.267618e-03 -1 1 1.267618e-03 -157.8117 215.0028)" class="st25" width="11" height="24.3"/>
			<g>
				<path d="M49,179.7c0,6.5-4.4,11.7-9.8,11.7s-9.8-5.2-9.8-11.7c0-6.5,4.4-11.7,9.8-11.7C44.6,168,49,173.3,49,179.7z"/>
				<path class="st26" d="M43.2,179.7c0,2.7-1.8,4.9-4.1,4.8c-2.2,0-4-2.2-4-4.9s1.8-4.8,4.1-4.8C41.4,174.9,43.2,177,43.2,179.7z"
					/>
				<path d="M40.9,179.7c0,1.2-0.8,2.1-1.7,2.1c-1,0-1.7-0.9-1.7-2.1c0-1.2,0.8-2.1,1.7-2.1S40.9,178.5,40.9,179.7z"/>
			</g>
			<g>
				<path d="M18.3,191.4c-5.7,0-10.4-5.6-10.4-12.4c0-6.9,4.7-12.4,10.4-12.4s10.4,5.6,10.4,12.4C28.7,185.8,24,191.4,18.3,191.4z"
					/>
				<path class="st26" d="M22.4,179c0,2.7-1.8,4.8-4.1,4.8c-2.2,0-4-2.2-4-4.9s1.8-4.9,4.1-4.8C20.5,174.1,22.4,176.3,22.4,179z"/>
				<path d="M20,179c0,1.2-0.8,2.1-1.7,2.1c-1,0-1.7-0.9-1.7-2.1c0-1.2,0.8-2.1,1.7-2.1C19.3,176.9,20,177.8,20,179z"/>
			</g>
			<path d="M47.8,215.6c0,0.8-0.5,1.4-1.2,1.4H15.4c-0.6,0-1.2-0.6-1.2-1.4v-22.1c0-0.8,0.5-1.4,1.2-1.4h31.2c0.6,0,1.2,0.6,1.2,1.4
				V215.6z"/>
			<path d="M29.3,188.6c0,1.2-0.8,2.1-1.7,2.1c-1,0-1.7-0.9-1.7-2.1c0-1.2,0.8-2.1,1.7-2.1C28.5,186.5,29.3,187.5,29.3,188.6z"/>
			<g>
				<g>
					<polygon points="8.4,205.8 6.1,207.2 5,207.2 5,197.6 6.1,197.6 8.4,199 					"/>
					<rect x="6.9" y="200.2" transform="matrix(1.274890e-03 -1 1 1.274890e-03 -192.8631 211.8091)" width="5.5" height="4.6"/>
				</g>
				<path class="st25" d="M39.7,199H11.9v6.9h27.8c1.6,0,2.9-1.5,2.9-3.5C42.6,200.6,41.3,199,39.7,199z"/>
			</g>
			<path class="st26" d="M24.6,211.4c0,1.5-1,2.8-2.3,2.8s-2.3-1.3-2.3-2.8c0-1.5,1-2.8,2.3-2.8S24.6,209.9,24.6,211.4z"/>
			<ellipse class="st26" cx="39.7" cy="211.4" rx="2.3" ry="2.8"/>
			
				<rect x="29.6" y="207.3" transform="matrix(1.267378e-03 -1 1 1.267378e-03 -180.4033 242.0175)" class="st26" width="2.8" height="8.1"/>
		</g>
		<g>
			<g>
				<rect x="42" y="120.3" class="st13" width="8" height="13.4"/>
				<rect x="39.6" y="122.3" class="st13" width="12.8" height="5.7"/>
				<path class="st13" d="M28.4,123c-2.1,0-3.8-2.1-3.8-4.5V91.8c0-2.6,1.7-4.5,3.8-4.5h35.3c2.1,0,3.8,2.1,3.8,4.5v26.7
					c0,2.6-1.7,4.5-3.8,4.5H28.4z"/>
				<path class="st14" d="M65.3,118.5c0,1-0.7,1.9-1.6,1.9H28.4c-0.9,0-1.6-0.8-1.6-1.9V91.8c0-1,0.7-1.9,1.6-1.9h35.3
					c0.9,0,1.6,0.8,1.6,1.9V118.5z"/>
				<g>
					<path class="st27" d="M33.2,91.8c0,1-0.7,1.9-1.6,1.9S30,92.8,30,91.8s0.7-1.9,1.6-1.9C32.5,89.8,33.2,90.7,33.2,91.8z"/>
					<path class="st27" d="M39.6,91.8c0,1-0.7,1.9-1.6,1.9c-0.9,0-1.6-0.8-1.6-1.9s0.7-1.9,1.6-1.9C38.9,89.8,39.6,90.7,39.6,91.8z"
						/>
					<path class="st27" d="M46.1,91.8c0,1-0.7,1.9-1.6,1.9c-0.9,0-1.6-0.8-1.6-1.9s0.7-1.9,1.6-1.9C45.3,89.8,46.1,90.7,46.1,91.8z"
						/>
					<path class="st27" d="M52.5,91.8c0,1-0.7,1.9-1.6,1.9c-0.9,0-1.6-0.8-1.6-1.9s0.7-1.9,1.6-1.9C51.7,89.8,52.5,90.7,52.5,91.8z"
						/>
					<path class="st27" d="M58.9,91.8c0,1-0.7,1.9-1.6,1.9c-0.9,0-1.6-0.8-1.6-1.9s0.7-1.9,1.6-1.9C58.2,89.8,58.9,90.7,58.9,91.8z"
						/>
					<path class="st27" d="M65.3,91.8c0,1-0.7,1.9-1.6,1.9s-1.6-0.8-1.6-1.9s0.7-1.9,1.6-1.9C64.6,89.8,65.3,90.7,65.3,91.8z"/>
					<path class="st27" d="M30,95.6c0,1-0.7,1.9-1.6,1.9c-0.9,0-1.6-0.8-1.6-1.9s0.7-1.9,1.6-1.9C29.3,93.6,30,94.5,30,95.6z"/>
					<path class="st27" d="M36.4,95.6c0,1-0.7,1.9-1.6,1.9c-0.9,0-1.6-0.8-1.6-1.9s0.7-1.9,1.6-1.9C35.7,93.6,36.4,94.5,36.4,95.6z"
						/>
					<path class="st27" d="M42.9,95.6c0,1-0.7,1.9-1.6,1.9s-1.6-0.8-1.6-1.9s0.7-1.9,1.6-1.9C42.1,93.6,42.9,94.5,42.9,95.6z"/>
					<path class="st27" d="M49.3,95.6c0,1-0.7,1.9-1.6,1.9s-1.6-0.8-1.6-1.9s0.7-1.9,1.6-1.9C48.5,93.6,49.3,94.5,49.3,95.6z"/>
					<path class="st27" d="M55.7,95.6c0,1-0.7,1.9-1.6,1.9s-1.6-0.8-1.6-1.9s0.7-1.9,1.6-1.9C55,93.6,55.7,94.5,55.7,95.6z"/>
					<path class="st27" d="M62.1,95.6c0,1-0.7,1.9-1.6,1.9s-1.6-0.8-1.6-1.9s0.7-1.9,1.6-1.9C61.4,93.6,62.1,94.5,62.1,95.6z"/>
					<path class="st27" d="M33.2,99.4c0,1-0.7,1.9-1.6,1.9s-1.6-0.8-1.6-1.9c0-1,0.7-1.9,1.6-1.9C32.5,97.5,33.2,98.4,33.2,99.4z"/>
					<path class="st27" d="M39.6,99.4c0,1-0.7,1.9-1.6,1.9c-0.9,0-1.6-0.8-1.6-1.9c0-1,0.7-1.9,1.6-1.9
						C38.9,97.5,39.6,98.4,39.6,99.4z"/>
					<path class="st27" d="M46.1,99.4c0,1-0.7,1.9-1.6,1.9c-0.9,0-1.6-0.8-1.6-1.9c0-1,0.7-1.9,1.6-1.9
						C45.3,97.5,46.1,98.4,46.1,99.4z"/>
					<path class="st27" d="M52.5,99.4c0,1-0.7,1.9-1.6,1.9c-0.9,0-1.6-0.8-1.6-1.9c0-1,0.7-1.9,1.6-1.9
						C51.7,97.5,52.5,98.4,52.5,99.4z"/>
					<path class="st27" d="M58.9,99.4c0,1-0.7,1.9-1.6,1.9c-0.9,0-1.6-0.8-1.6-1.9c0-1,0.7-1.9,1.6-1.9
						C58.2,97.5,58.9,98.4,58.9,99.4z"/>
					<path class="st27" d="M65.3,99.4c0,1-0.7,1.9-1.6,1.9s-1.6-0.8-1.6-1.9c0-1,0.7-1.9,1.6-1.9C64.6,97.5,65.3,98.4,65.3,99.4z"/>
					<path class="st27" d="M30,103.1c0,1-0.7,1.9-1.6,1.9c-0.9,0-1.6-0.8-1.6-1.9c0-1,0.7-1.9,1.6-1.9C29.3,101.3,30,102.1,30,103.1
						z"/>
					<path class="st27" d="M36.4,103.1c0,1-0.7,1.9-1.6,1.9c-0.9,0-1.6-0.8-1.6-1.9c0-1,0.7-1.9,1.6-1.9
						C35.7,101.3,36.4,102.1,36.4,103.1z"/>
					<path class="st27" d="M42.9,103.1c0,1-0.7,1.9-1.6,1.9s-1.6-0.8-1.6-1.9c0-1,0.7-1.9,1.6-1.9C42.1,101.3,42.9,102.1,42.9,103.1
						z"/>
					<path class="st27" d="M49.3,103.1c0,1-0.7,1.9-1.6,1.9s-1.6-0.8-1.6-1.9c0-1,0.7-1.9,1.6-1.9C48.5,101.3,49.3,102.1,49.3,103.1
						z"/>
					<path class="st27" d="M55.7,103.1c0,1-0.7,1.9-1.6,1.9s-1.6-0.8-1.6-1.9c0-1,0.7-1.9,1.6-1.9C55,101.3,55.7,102.1,55.7,103.1z"
						/>
					<path class="st27" d="M62.1,103.1c0,1-0.7,1.9-1.6,1.9s-1.6-0.8-1.6-1.9c0-1,0.7-1.9,1.6-1.9C61.4,101.3,62.1,102.1,62.1,103.1
						z"/>
					<path class="st27" d="M33.2,107c0,1-0.7,1.9-1.6,1.9S30,108,30,107s0.7-1.9,1.6-1.9S33.2,105.9,33.2,107z"/>
					<path class="st27" d="M39.6,107c0,1-0.7,1.9-1.6,1.9c-0.9,0-1.6-0.8-1.6-1.9s0.7-1.9,1.6-1.9S39.6,105.9,39.6,107z"/>
					<path class="st27" d="M46.1,107c0,1-0.7,1.9-1.6,1.9c-0.9,0-1.6-0.8-1.6-1.9s0.7-1.9,1.6-1.9C45.3,105.1,46.1,105.9,46.1,107z"
						/>
					<path class="st27" d="M52.5,107c0,1-0.7,1.9-1.6,1.9c-0.9,0-1.6-0.8-1.6-1.9s0.7-1.9,1.6-1.9C51.7,105.1,52.5,105.9,52.5,107z"
						/>
					<path class="st27" d="M58.9,107c0,1-0.7,1.9-1.6,1.9c-0.9,0-1.6-0.8-1.6-1.9s0.7-1.9,1.6-1.9C58.2,105.1,58.9,105.9,58.9,107z"
						/>
					<path class="st27" d="M65.3,107c0,1-0.7,1.9-1.6,1.9s-1.6-0.8-1.6-1.9s0.7-1.9,1.6-1.9C64.6,105.1,65.3,105.9,65.3,107z"/>
					<path class="st27" d="M30,110.8c0,1-0.7,1.9-1.6,1.9c-0.9,0-1.6-0.8-1.6-1.9s0.7-1.9,1.6-1.9C29.3,109,30,109.8,30,110.8z"/>
					<path class="st27" d="M36.4,110.8c0,1-0.7,1.9-1.6,1.9c-0.9,0-1.6-0.8-1.6-1.9s0.7-1.9,1.6-1.9C35.7,109,36.4,109.8,36.4,110.8
						z"/>
					<path class="st27" d="M42.9,110.8c0,1-0.7,1.9-1.6,1.9s-1.6-0.8-1.6-1.9s0.7-1.9,1.6-1.9C42.1,109,42.9,109.8,42.9,110.8z"/>
					<path class="st27" d="M49.3,110.8c0,1-0.7,1.9-1.6,1.9s-1.6-0.8-1.6-1.9s0.7-1.9,1.6-1.9C48.5,109,49.3,109.8,49.3,110.8z"/>
					<path class="st27" d="M55.7,110.8c0,1-0.7,1.9-1.6,1.9s-1.6-0.8-1.6-1.9s0.7-1.9,1.6-1.9C55,109,55.7,109.8,55.7,110.8z"/>
					<path class="st27" d="M62.1,110.8c0,1-0.7,1.9-1.6,1.9s-1.6-0.8-1.6-1.9s0.7-1.9,1.6-1.9C61.4,109,62.1,109.8,62.1,110.8z"/>
					<ellipse class="st27" cx="31.6" cy="114.6" rx="1.6" ry="1.9"/>
					<ellipse class="st27" cx="38" cy="114.6" rx="1.6" ry="1.9"/>
					<path class="st27" d="M46.1,114.6c0,1-0.7,1.9-1.6,1.9c-0.9,0-1.6-0.8-1.6-1.9c0-1,0.7-1.9,1.6-1.9
						C45.3,112.8,46.1,113.6,46.1,114.6z"/>
					<path class="st27" d="M52.5,114.6c0,1-0.7,1.9-1.6,1.9c-0.9,0-1.6-0.8-1.6-1.9c0-1,0.7-1.9,1.6-1.9
						C51.7,112.8,52.5,113.6,52.5,114.6z"/>
					<path class="st27" d="M58.9,114.6c0,1-0.7,1.9-1.6,1.9c-0.9,0-1.6-0.8-1.6-1.9c0-1,0.7-1.9,1.6-1.9
						C58.2,112.8,58.9,113.6,58.9,114.6z"/>
					<path class="st27" d="M65.3,114.6c0,1-0.7,1.9-1.6,1.9s-1.6-0.8-1.6-1.9c0-1,0.7-1.9,1.6-1.9C64.6,112.8,65.3,113.6,65.3,114.6
						z"/>
					<path class="st27" d="M30,118.5c0,1-0.7,1.9-1.6,1.9c-0.9,0-1.6-0.8-1.6-1.9c0-1,0.7-1.9,1.6-1.9C29.3,116.5,30,117.4,30,118.5
						z"/>
					<path class="st27" d="M36.4,118.5c0,1-0.7,1.9-1.6,1.9c-0.9,0-1.6-0.8-1.6-1.9c0-1,0.7-1.9,1.6-1.9
						C35.7,116.5,36.4,117.4,36.4,118.5z"/>
					<path class="st27" d="M42.9,118.5c0,1-0.7,1.9-1.6,1.9s-1.6-0.8-1.6-1.9c0-1,0.7-1.9,1.6-1.9C42.1,116.5,42.9,117.4,42.9,118.5
						z"/>
					<path class="st27" d="M49.3,118.5c0,1-0.7,1.9-1.6,1.9s-1.6-0.8-1.6-1.9c0-1,0.7-1.9,1.6-1.9C48.5,116.5,49.3,117.4,49.3,118.5
						z"/>
					<path class="st27" d="M55.7,118.5c0,1-0.7,1.9-1.6,1.9s-1.6-0.8-1.6-1.9c0-1,0.7-1.9,1.6-1.9C55,116.5,55.7,117.4,55.7,118.5z"
						/>
					<path class="st27" d="M62.1,118.5c0,1-0.7,1.9-1.6,1.9s-1.6-0.8-1.6-1.9c0-1,0.7-1.9,1.6-1.9C61.4,116.5,62.1,117.4,62.1,118.5
						z"/>
				</g>
				<g>
					<path class="st28" d="M30,91.8c0,1-0.7,1.9-1.6,1.9c-0.9,0-1.6-0.8-1.6-1.9s0.7-1.9,1.6-1.9C29.3,89.8,30,90.7,30,91.8z"/>
					<path class="st28" d="M36.4,91.8c0,1-0.7,1.9-1.6,1.9c-0.9,0-1.6-0.8-1.6-1.9s0.7-1.9,1.6-1.9C35.7,89.8,36.4,90.7,36.4,91.8z"
						/>
					<path class="st28" d="M42.9,91.8c0,1-0.7,1.9-1.6,1.9s-1.6-0.8-1.6-1.9s0.7-1.9,1.6-1.9C42.1,89.8,42.9,90.7,42.9,91.8z"/>
					<path class="st28" d="M49.3,91.8c0,1-0.7,1.9-1.6,1.9s-1.6-0.8-1.6-1.9s0.7-1.9,1.6-1.9C48.5,89.8,49.3,90.7,49.3,91.8z"/>
					<path class="st28" d="M55.7,91.8c0,1-0.7,1.9-1.6,1.9s-1.6-0.8-1.6-1.9s0.7-1.9,1.6-1.9C55,89.8,55.7,90.7,55.7,91.8z"/>
					<path class="st28" d="M62.1,91.8c0,1-0.7,1.9-1.6,1.9s-1.6-0.8-1.6-1.9s0.7-1.9,1.6-1.9C61.4,89.8,62.1,90.7,62.1,91.8z"/>
					<path class="st28" d="M33.2,95.6c0,1-0.7,1.9-1.6,1.9S30,96.6,30,95.6s0.7-1.9,1.6-1.9C32.5,93.6,33.2,94.5,33.2,95.6z"/>
					<path class="st28" d="M39.6,95.6c0,1-0.7,1.9-1.6,1.9c-0.9,0-1.6-0.8-1.6-1.9s0.7-1.9,1.6-1.9C38.9,93.6,39.6,94.5,39.6,95.6z"
						/>
					<path class="st28" d="M46.1,95.6c0,1-0.7,1.9-1.6,1.9c-0.9,0-1.6-0.8-1.6-1.9s0.7-1.9,1.6-1.9C45.3,93.6,46.1,94.5,46.1,95.6z"
						/>
					<path class="st28" d="M52.5,95.6c0,1-0.7,1.9-1.6,1.9c-0.9,0-1.6-0.8-1.6-1.9s0.7-1.9,1.6-1.9C51.7,93.6,52.5,94.5,52.5,95.6z"
						/>
					<path class="st28" d="M58.9,95.6c0,1-0.7,1.9-1.6,1.9c-0.9,0-1.6-0.8-1.6-1.9s0.7-1.9,1.6-1.9C58.2,93.6,58.9,94.5,58.9,95.6z"
						/>
					<path class="st28" d="M65.3,95.6c0,1-0.7,1.9-1.6,1.9s-1.6-0.8-1.6-1.9s0.7-1.9,1.6-1.9C64.6,93.6,65.3,94.5,65.3,95.6z"/>
					<path class="st28" d="M30,99.4c0,1-0.7,1.9-1.6,1.9c-0.9,0-1.6-0.8-1.6-1.9c0-1,0.7-1.9,1.6-1.9C29.3,97.5,30,98.4,30,99.4z"/>
					<path class="st28" d="M36.4,99.4c0,1-0.7,1.9-1.6,1.9c-0.9,0-1.6-0.8-1.6-1.9c0-1,0.7-1.9,1.6-1.9
						C35.7,97.5,36.4,98.4,36.4,99.4z"/>
					<path class="st28" d="M42.9,99.4c0,1-0.7,1.9-1.6,1.9s-1.6-0.8-1.6-1.9c0-1,0.7-1.9,1.6-1.9C42.1,97.5,42.9,98.4,42.9,99.4z"/>
					<path class="st28" d="M49.3,99.4c0,1-0.7,1.9-1.6,1.9s-1.6-0.8-1.6-1.9c0-1,0.7-1.9,1.6-1.9C48.5,97.5,49.3,98.4,49.3,99.4z"/>
					<path class="st28" d="M55.7,99.4c0,1-0.7,1.9-1.6,1.9s-1.6-0.8-1.6-1.9c0-1,0.7-1.9,1.6-1.9C55,97.5,55.7,98.4,55.7,99.4z"/>
					<path class="st28" d="M62.1,99.4c0,1-0.7,1.9-1.6,1.9s-1.6-0.8-1.6-1.9c0-1,0.7-1.9,1.6-1.9C61.4,97.5,62.1,98.4,62.1,99.4z"/>
					<path class="st28" d="M33.2,103.1c0,1-0.7,1.9-1.6,1.9s-1.6-0.8-1.6-1.9c0-1,0.7-1.9,1.6-1.9C32.5,101.3,33.2,102.1,33.2,103.1
						z"/>
					<path class="st28" d="M39.6,103.1c0,1-0.7,1.9-1.6,1.9c-0.9,0-1.6-0.8-1.6-1.9c0-1,0.7-1.9,1.6-1.9
						C38.9,101.3,39.6,102.1,39.6,103.1z"/>
					<path class="st28" d="M46.1,103.1c0,1-0.7,1.9-1.6,1.9c-0.9,0-1.6-0.8-1.6-1.9c0-1,0.7-1.9,1.6-1.9
						C45.3,101.3,46.1,102.1,46.1,103.1z"/>
					<path class="st28" d="M52.5,103.1c0,1-0.7,1.9-1.6,1.9c-0.9,0-1.6-0.8-1.6-1.9c0-1,0.7-1.9,1.6-1.9
						C51.7,101.3,52.5,102.1,52.5,103.1z"/>
					<path class="st28" d="M58.9,103.1c0,1-0.7,1.9-1.6,1.9c-0.9,0-1.6-0.8-1.6-1.9c0-1,0.7-1.9,1.6-1.9
						C58.2,101.3,58.9,102.1,58.9,103.1z"/>
					<path class="st28" d="M65.3,103.1c0,1-0.7,1.9-1.6,1.9s-1.6-0.8-1.6-1.9c0-1,0.7-1.9,1.6-1.9C64.6,101.3,65.3,102.1,65.3,103.1
						z"/>
					<path class="st28" d="M30,107c0,1-0.7,1.9-1.6,1.9c-0.9,0-1.6-0.8-1.6-1.9s0.7-1.9,1.6-1.9C29.3,105.1,30,105.9,30,107z"/>
					<path class="st28" d="M36.4,107c0,1-0.7,1.9-1.6,1.9c-0.9,0-1.6-0.8-1.6-1.9s0.7-1.9,1.6-1.9C35.7,105.1,36.4,105.9,36.4,107z"
						/>
					<path class="st28" d="M42.9,107c0,1-0.7,1.9-1.6,1.9s-1.6-0.8-1.6-1.9s0.7-1.9,1.6-1.9C42.1,105.1,42.9,105.9,42.9,107z"/>
					<path class="st28" d="M49.3,107c0,1-0.7,1.9-1.6,1.9s-1.6-0.8-1.6-1.9s0.7-1.9,1.6-1.9C48.5,105.1,49.3,105.9,49.3,107z"/>
					<path class="st28" d="M55.7,107c0,1-0.7,1.9-1.6,1.9s-1.6-0.8-1.6-1.9s0.7-1.9,1.6-1.9C55,105.1,55.7,105.9,55.7,107z"/>
					<path class="st28" d="M62.1,107c0,1-0.7,1.9-1.6,1.9s-1.6-0.8-1.6-1.9s0.7-1.9,1.6-1.9C61.4,105.1,62.1,105.9,62.1,107z"/>
					<ellipse class="st28" cx="31.6" cy="110.8" rx="1.6" ry="1.9"/>
					<ellipse class="st28" cx="38" cy="110.8" rx="1.6" ry="1.9"/>
					<path class="st28" d="M46.1,110.8c0,1-0.7,1.9-1.6,1.9c-0.9,0-1.6-0.8-1.6-1.9s0.7-1.9,1.6-1.9C45.3,109,46.1,109.8,46.1,110.8
						z"/>
					<path class="st28" d="M52.5,110.8c0,1-0.7,1.9-1.6,1.9c-0.9,0-1.6-0.8-1.6-1.9s0.7-1.9,1.6-1.9C51.7,109,52.5,109.8,52.5,110.8
						z"/>
					<path class="st28" d="M58.9,110.8c0,1-0.7,1.9-1.6,1.9c-0.9,0-1.6-0.8-1.6-1.9s0.7-1.9,1.6-1.9C58.2,109,58.9,109.8,58.9,110.8
						z"/>
					<path class="st28" d="M65.3,110.8c0,1-0.7,1.9-1.6,1.9s-1.6-0.8-1.6-1.9s0.7-1.9,1.6-1.9C64.6,109,65.3,109.8,65.3,110.8z"/>
					<path class="st28" d="M30,114.6c0,1-0.7,1.9-1.6,1.9c-0.9,0-1.6-0.8-1.6-1.9c0-1,0.7-1.9,1.6-1.9C29.3,112.8,30,113.6,30,114.6
						z"/>
					<path class="st28" d="M36.4,114.6c0,1-0.7,1.9-1.6,1.9c-0.9,0-1.6-0.8-1.6-1.9c0-1,0.7-1.9,1.6-1.9
						C35.7,112.8,36.4,113.6,36.4,114.6z"/>
					<path class="st28" d="M42.9,114.6c0,1-0.7,1.9-1.6,1.9s-1.6-0.8-1.6-1.9c0-1,0.7-1.9,1.6-1.9C42.1,112.8,42.9,113.6,42.9,114.6
						z"/>
					<path class="st28" d="M49.3,114.6c0,1-0.7,1.9-1.6,1.9s-1.6-0.8-1.6-1.9c0-1,0.7-1.9,1.6-1.9C48.5,112.8,49.3,113.6,49.3,114.6
						z"/>
					<path class="st28" d="M55.7,114.6c0,1-0.7,1.9-1.6,1.9s-1.6-0.8-1.6-1.9c0-1,0.7-1.9,1.6-1.9C55,112.8,55.7,113.6,55.7,114.6z"
						/>
					<path class="st28" d="M62.1,114.6c0,1-0.7,1.9-1.6,1.9s-1.6-0.8-1.6-1.9c0-1,0.7-1.9,1.6-1.9C61.4,112.8,62.1,113.6,62.1,114.6
						z"/>
					<path class="st28" d="M33.2,118.5c0,1-0.7,1.9-1.6,1.9s-1.6-0.8-1.6-1.9c0-1,0.7-1.9,1.6-1.9C32.5,116.5,33.2,117.4,33.2,118.5
						z"/>
					<path class="st28" d="M39.6,118.5c0,1-0.7,1.9-1.6,1.9c-0.9,0-1.6-0.8-1.6-1.9c0-1,0.7-1.9,1.6-1.9
						C38.9,116.5,39.6,117.4,39.6,118.5z"/>
					<path class="st28" d="M46.1,118.5c0,1-0.7,1.9-1.6,1.9c-0.9,0-1.6-0.8-1.6-1.9c0-1,0.7-1.9,1.6-1.9
						C45.3,116.5,46.1,117.4,46.1,118.5z"/>
					<path class="st28" d="M52.5,118.5c0,1-0.7,1.9-1.6,1.9c-0.9,0-1.6-0.8-1.6-1.9c0-1,0.7-1.9,1.6-1.9
						C51.7,116.5,52.5,117.4,52.5,118.5z"/>
					<path class="st28" d="M58.9,118.5c0,1-0.7,1.9-1.6,1.9c-0.9,0-1.6-0.8-1.6-1.9c0-1,0.7-1.9,1.6-1.9
						C58.2,116.5,58.9,117.4,58.9,118.5z"/>
					<path class="st28" d="M65.3,118.5c0,1-0.7,1.9-1.6,1.9s-1.6-0.8-1.6-1.9c0-1,0.7-1.9,1.6-1.9C64.6,116.5,65.3,117.4,65.3,118.5
						z"/>
				</g>
			</g>
			<g>
				<path class="st13" d="M46.3,125.8c0,0.7-0.4,1.3-1.1,1.4l-4.6,0.5c-0.6,0.1-1.2-0.5-1.2-1.2l-0.2-2.4c0-0.7,0.4-1.3,1.1-1.4
					l4.6-0.5c0.6-0.1,1.2,0.5,1.2,1.2L46.3,125.8z"/>
				<path class="st29" d="M35.2,127.5c0.2-1.3,1.2-2.4,2.2-2.6l8.9-0.8c1.1-0.1,2.8-0.7,3.7-1.3l0.4-0.2c1-0.6,2.6-1,3.7-1H60
					c1.1,0,2.6,0.6,3.4,1.2c0.8,0.7,2.4,1.4,3.4,1.5l2,0.3c1.1,0.2,2.1,1.4,2.2,2.7l0.4,3.6c0.2,1.3,0.3,3.4,0.3,4.6v13.1
					c0,1.3-0.9,2.3-2,2.3H46.3c-1.1,0-2.2,0.2-2.5,0.6c-0.3,0.3-1.4,0.6-2.5,0.6h-4.9c-1.1,0-2-1-2-2.3v-14.1c0-1.3,0.1-3.4,0.3-4.6
					L35.2,127.5z"/>
				<path class="st13" d="M71.6,131.1l-0.1-1.2H45.7c-0.1,1-0.4,2.2-0.9,3v15.7h27.1v-12.9C71.9,134.5,71.8,132.4,71.6,131.1z"/>
				<polygon class="st13" points="61.1,118.2 53.2,118.2 53.2,115.9 55.1,115.9 55.1,116.5 59.1,116.5 59.1,115.9 61.1,115.9 				
					"/>
				<g>
					<polygon class="st13" points="63.7,121.4 50.5,121.4 47.3,139.4 67,139.4 					"/>
					<path class="st29" d="M63.7,121.4c0.2,1.2-0.6,2.1-1.6,2.1h-9.8c-1.1,0-1.8-0.9-1.6-2.1l0.3-2.2c0.2-1.2,1.2-2.1,2.3-2.1h7.9
						c1.1,0,2.1,0.9,2.3,2.1L63.7,121.4z"/>
				</g>
				<g>
					<path class="st29" d="M69.9,137.6c0,1.6-1.1,2.9-2.5,2.9c-1.4,0-2.5-1.3-2.5-2.9c0-1.6,1.1-2.9,2.5-2.9
						C68.8,134.6,69.9,136,69.9,137.6z"/>
					<path class="st13" d="M69.4,137.6c0,1.3-0.9,2.3-2,2.3s-2-1-2-2.3c0-1.3,0.9-2.3,2-2.3C68.5,135.2,69.4,136.2,69.4,137.6z"/>
				</g>
				<g>
					<path class="st29" d="M67.9,139.4c0,7.1-4.8,12.9-10.8,12.9s-10.8-5.8-10.8-12.9s4.9-12.9,10.8-12.9
						C63.1,126.5,67.9,132.2,67.9,139.4z"/>
					<path class="st13" d="M66,139.4c0,5.8-4,10.6-8.9,10.6s-8.9-4.8-8.9-10.6c0-5.8,4-10.6,8.9-10.6S66,133.5,66,139.4z"/>
					<path class="st30" d="M64.5,139.4c0,4.9-3.3,8.8-7.4,8.8s-7.4-3.9-7.4-8.8s3.3-8.8,7.4-8.8S64.5,134.5,64.5,139.4z"/>
					<path class="st31" d="M62,139.4c0,3.3-2.2,5.9-4.9,5.9s-4.9-2.7-4.9-5.9s2.2-5.9,4.9-5.9C59.8,133.5,62,136.1,62,139.4z"/>
					<path class="st30" d="M60.1,139.4c0,2-1.3,3.5-3,3.5c-1.6,0-3-1.6-3-3.5c0-2,1.3-3.5,3-3.5C58.7,135.8,60.1,137.4,60.1,139.4z"
						/>
					<path class="st31" d="M59.1,139.4c0,1.3-0.9,2.3-2,2.3s-2-1-2-2.3c0-1.3,0.9-2.3,2-2.3C58.2,136.9,59.1,138.1,59.1,139.4z"/>
					<path class="st30" d="M58.1,139.4c0,0.7-0.4,1.2-1,1.2c-0.5,0-1-0.6-1-1.2c0-0.7,0.4-1.2,1-1.2
						C57.7,138.2,58.1,138.7,58.1,139.4z"/>
					<path class="st14" d="M58.1,136.8c0,2.2-1.5,3.9-3.4,3.9c-1.9,0-3.4-1.7-3.4-3.9s1.5-3.9,3.4-3.9
						C56.6,132.8,58.1,134.6,58.1,136.8z"/>
					<g>
						<g>
							<path class="st13" d="M49.1,146.8c-0.2,0-0.3-0.1-0.4-0.2c-1.3-2.1-2-4.6-2-7.2c0-0.5,0-0.8,0.1-1.2c0-0.3,0.3-0.6,0.5-0.6
								c0.3,0,0.5,0.3,0.4,0.7c0,0.3,0,0.7,0,1c0,2.3,0.6,4.6,1.8,6.5c0.2,0.2,0.1,0.6-0.1,0.8C49.3,146.8,49.2,146.8,49.1,146.8z"
								/>
						</g>
						<g>
							<path class="st13" d="M62.1,150.1c-0.2,0-0.3-0.1-0.4-0.3c-0.1-0.2-0.1-0.7,0.2-0.8c1.7-1.2,3-2.9,3.8-4.9
								c0.1-0.3,0.4-0.5,0.7-0.2c0.2,0.1,0.4,0.5,0.2,0.8c-0.9,2.3-2.3,4.2-4.2,5.5C62.2,150.1,62.1,150.1,62.1,150.1z"/>
						</g>
						<g>
							<path class="st13" d="M61.1,129.2c-0.1,0-0.1,0-0.2,0c-1.2-0.6-2.5-0.9-3.8-0.9l0,0c-1.3,0-2.6,0.3-3.8,0.9
								c-0.2,0.1-0.5,0-0.6-0.3s0-0.7,0.3-0.8c1.3-0.7,2.7-1,4.2-1l0,0c1.5,0,2.9,0.3,4.2,1c0.2,0.1,0.4,0.5,0.3,0.8
								C61.5,129,61.3,129.2,61.1,129.2z"/>
						</g>
						<g>
							<path class="st13" d="M54.4,151.3L54.4,151.3c-1.6-0.6-3-1.5-4.2-2.8c-0.2-0.2-0.2-0.6,0-0.8c0.2-0.2,0.5-0.2,0.7,0
								c1,1.2,2.3,2,3.7,2.4c0.3,0.1,0.4,0.5,0.3,0.7C54.8,151.2,54.6,151.3,54.4,151.3z"/>
						</g>
						<g>
							<path class="st13" d="M66.7,142.9L66.7,142.9c-0.4-0.1-0.5-0.3-0.5-0.7c0.2-0.8,0.3-1.7,0.3-2.7c0-0.3,0.2-0.6,0.5-0.6l0,0
								c0.3,0,0.5,0.2,0.5,0.6c0,1-0.1,2-0.3,2.9C67.2,142.8,67,142.9,66.7,142.9z"/>
						</g>
					</g>
				</g>
				<path class="st13" d="M34.5,150c0,0.2,0,0.5,0.1,0.6v0.1c0,0.1,0.1,0.2,0.2,0.5c0.1,0.1,0.1,0.2,0.2,0.3c0,0,0,0.1,0.1,0.1
					c0.2,0.2,0.5,0.5,0.8,0.6c0.1,0,0.2,0,0.2,0.1c0.1,0,0.2,0,0.3,0h5c1.1,0,2.2-0.2,2.5-0.6l0,0v-19c0.6-0.7,0.9-2.1,0.9-3.1v-2.9
					H42c-1.2,0-2.3,0.9-2.6,2.3h-4.3l-0.3,2.3c-0.1,1-0.2,2.7-0.3,3.9c0,0.2,0,0.5,0,0.7C34.5,135.9,34.5,150,34.5,150z"/>
				<path class="st29" d="M44.8,124.4v2c0,1.3-0.4,2.9-0.9,3.5c-0.5,0.7-1.8,1.2-2.8,1.2c-1,0-2.7-0.2-3.7-0.6l-2.4-0.8l0.3-2.2
					c0.1-1.3,1.2-2.4,2.2-2.6L44.8,124.4z"/>
				<path class="st13" d="M42.3,127.9c0,0.9-0.9,1.7-2,1.7s-2-0.8-2-1.7s0.9-1.7,2-1.7C41.5,126.1,42.3,127,42.3,127.9z"/>
				<rect x="53.2" y="119.4" class="st13" width="7.9" height="2.3"/>
			</g>
			<g>
				<g>
					<polygon class="st32" points="33.4,132.5 28.8,137.9 10.6,137.9 6.1,132.5 6.1,106.7 8.4,106.7 8.4,131.1 11.8,135.2 
						27.7,135.2 31.1,131.1 31.1,106.7 33.4,106.7 					"/>
					<rect x="7.2" y="108.1" class="st32" width="25" height="2.7"/>
					<rect x="16.3" y="136.6" class="st32" width="6.8" height="5.5"/>
				</g>
				<path class="st13" d="M28.8,120.3c0,0.7-0.5,1.4-1.1,1.4H11.8c-0.6,0-1.1-0.6-1.1-1.4v-19c0-0.7,0.5-1.4,1.1-1.4h15.9
					c0.6,0,1.1,0.6,1.1,1.4V120.3z"/>
				<g>
					<path class="st13" d="M28.8,97.9c0,0.3-0.3,0.7-0.6,0.7h-17c-0.3,0-0.6-0.3-0.6-0.7v-2.7c0-0.3,0.1-0.9,0.2-1.3l1.9-5.6
						c0.1-0.3,0.5-0.6,0.8-0.6H26c0.3,0,0.7,0.2,0.8,0.6l1.9,5.6c0.1,0.3,0.2,0.9,0.2,1.3L28.8,97.9L28.8,97.9z"/>
					<rect x="12.9" y="97.2" class="st13" width="1.1" height="4.1"/>
					<rect x="25.4" y="97.2" class="st13" width="1.1" height="4.1"/>
				</g>
				<g>
					<path class="st13" d="M30.5,121.6c-0.3,0-0.6-0.3-0.6-0.7v-20.2c0-0.3,0.3-0.7,0.6-0.7h2.3c0.3,0,0.8,0.1,1.1,0.2l4.6,2.2
						c0.3,0.1,0.5,0.6,0.5,0.9v14.9c0,0.3-0.2,0.8-0.5,0.9l-4.6,2.2c-0.3,0.1-0.8,0.2-1.1,0.2C32.8,121.6,30.5,121.6,30.5,121.6z"/>
					<rect x="27.7" y="102.7" class="st13" width="3.4" height="1.4"/>
					<rect x="27.7" y="117.5" class="st13" width="3.4" height="1.4"/>
				</g>
				<g>
					<path class="st13" d="M10.6,123.7c0-0.3,0.3-0.7,0.6-0.7h17.1c0.3,0,0.6,0.3,0.6,0.7v2.7c0,0.3-0.1,0.9-0.2,1.3l-1.9,5.5
						c-0.1,0.3-0.5,0.6-0.8,0.6H13.5c-0.3,0-0.7-0.2-0.8-0.6l-1.9-5.5c-0.1-0.3-0.2-0.9-0.2-1.3C10.6,126.4,10.6,123.7,10.6,123.7z"
						/>
					<rect x="25.4" y="120.3" class="st13" width="1.1" height="4.1"/>
					<rect x="12.9" y="120.3" class="st13" width="1.1" height="4.1"/>
				</g>
				<g>
					<path class="st13" d="M8.9,100c0.3,0,0.6,0.3,0.6,0.7V121c0,0.3-0.3,0.7-0.6,0.7H6.7c-0.3,0-0.8-0.1-1.1-0.2L1,119.3
						c-0.3-0.1-0.5-0.6-0.5-0.9v-15c0-0.3,0.2-0.8,0.5-0.9l4.6-2.2c0.3-0.1,0.8-0.2,1.1-0.2H8.9z"/>
					<rect x="8.4" y="117.7" class="st13" width="3.4" height="1.4"/>
					<rect x="8.4" y="102.7" class="st13" width="3.4" height="1.4"/>
				</g>
				<path class="st17" d="M27.7,110.8c0,5.2-3.6,9.5-8,9.5s-8-4.3-8-9.5c0-5.2,3.6-9.5,8-9.5C24.1,101.4,27.7,105.6,27.7,110.8z"/>
				<ellipse class="st13" cx="19.7" cy="110.8" rx="2.3" ry="2.7"/>
				<path class="st13" d="M23.1,111.5c-0.3,2-1.7,3.4-3.4,3.4s-3.1-1.5-3.3-3.4l-3.1,1.9c0.9,3.3,3.5,5.6,6.5,5.6s5.6-2.3,6.5-5.6
					L23.1,111.5z"/>
			</g>
			<g>
				<path class="st13" d="M12.4,152.3c0,0.1-0.1,0.2-0.2,0.2H3.4c-0.1,0-0.2-0.1-0.2-0.2v-7.4h0.3v-1.6H3.2v-4.6
					c0-0.1,0.1-0.2,0.2-0.2h6.4c0.1,0,0.3,0.1,0.4,0.1l1.9,1.9c0.1,0.1,0.2,0.3,0.2,0.5v3H12v1h0.4V152.3z"/>
				<g>
					<rect x="3.8" y="138.8" class="st17" width="0.9" height="2.8"/>
					<rect x="5.1" y="138.8" class="st17" width="0.9" height="2.8"/>
					<rect x="6.5" y="138.8" class="st17" width="0.9" height="2.8"/>
					<rect x="7.9" y="138.8" class="st17" width="0.9" height="2.8"/>
					<rect x="9.3" y="138.8" class="st17" width="0.9" height="2.8"/>
					<rect x="10.7" y="140.4" class="st17" width="0.9" height="2.8"/>
				</g>
			</g>
			<g>
				<path class="st13" d="M25,152.3c0,0.1-0.1,0.2-0.2,0.2h-8.7c-0.1,0-0.2-0.1-0.2-0.2v-7.4h0.3v-1.6h-0.3v-4.6
					c0-0.1,0.1-0.2,0.2-0.2h6.4c0.1,0,0.3,0.1,0.4,0.1l1.9,1.9c0.1,0.1,0.2,0.3,0.2,0.5v3h-0.3v1H25V152.3z"/>
				<g>
					<rect x="16.4" y="138.8" class="st17" width="0.9" height="2.8"/>
					<rect x="17.8" y="138.8" class="st17" width="0.9" height="2.8"/>
					<rect x="19.2" y="138.8" class="st17" width="0.9" height="2.8"/>
					<rect x="20.6" y="138.8" class="st17" width="0.9" height="2.8"/>
					<rect x="21.9" y="138.8" class="st17" width="0.9" height="2.8"/>
					<rect x="23.3" y="140.4" class="st17" width="0.9" height="2.8"/>
				</g>
			</g>
		</g>
		<g>
			<g>
				<path class="st33" d="M89.6,35c0,0.1-0.1,0.2-0.1,0.2h-5c-0.1,0-0.1-0.1-0.1-0.2v-6c0-0.1,0.1-0.2,0.1-0.2h5
					c0.1,0,0.1,0.1,0.1,0.2V35z"/>
				<g>
					
						<rect x="85.1" y="30.2" transform="matrix(1 -2.589616e-03 2.589616e-03 1 -7.972377e-02 0.2221)" class="st13" width="1.2" height="1.4"/>
					
						<rect x="87.5" y="30.2" transform="matrix(1 -2.585604e-03 2.585604e-03 1 -7.959282e-02 0.2279)" class="st13" width="1.2" height="1.4"/>
				</g>
				<path class="st12" d="M90.5,49.8c0,0.5-0.3,0.8-0.6,0.8H84c-0.3,0-0.6-0.3-0.6-0.8V34.5c0-0.5,0.3-0.8,0.6-0.8h5.9
					c0.3,0,0.6,0.3,0.6,0.8V49.8z"/>
				
					<rect x="84.9" y="35.9" transform="matrix(1 -2.588870e-03 2.588870e-03 1 -0.109 0.2253)" class="st32" width="4.1" height="12.7"/>
				
					<rect x="86.3" y="37.3" transform="matrix(1 -2.590421e-03 2.590421e-03 1 -0.1091 0.2253)" class="st13" width="1.2" height="9.9"/>
				<path class="st32" d="M89.3,42.2c0,1.5-1.1,2.8-2.4,2.8s-2.4-1.3-2.4-2.8c0-1.5,1.1-2.8,2.4-2.8C88.2,39.4,89.3,40.7,89.3,42.2z
					"/>
				<path class="st13" d="M88.4,42.2c0,0.9-0.7,1.7-1.5,1.7c-0.8,0-1.5-0.8-1.5-1.7s0.7-1.7,1.5-1.7C87.8,40.4,88.4,41.2,88.4,42.2z
					"/>
			</g>
			<g>
				<g>
					<path class="st2" d="M89.5,53.4c1.4,0,2.6,1.4,2.6,3.1v16c0,1.7-1.2,3.1-2.6,3.1l-26-0.1c-1.4,0-2.6-1.4-2.6-3.1v-16
						c0-1.7,1.2-3.1,2.6-3.1L89.5,53.4z"/>
					<path class="st16" d="M74.7,54.4c1.4,0,2.6,1.4,2.6,3.1v13.9c0,1.7-1.2,3.1-2.6,3.1H64.3c-1.4,0-2.6-1.4-2.6-3.1V57.5
						c0-1.7,1.2-3.1,2.6-3.1L74.7,54.4z"/>
					<g>
						<path class="st2" d="M88.8,54.4c1.4,0,2.6,1.4,2.6,3.1v14.2c0,1.7-1.2,3.1-2.6,3.1h-7.9c-1.4,0-2.6-1.4-2.6-3.1V57.5
							c0-1.7,1.2-3.1,2.6-3.1H88.8z"/>
						
							<rect x="73.9" y="62" transform="matrix(2.775363e-03 -1 1 2.775363e-03 17.5968 146.6202)" class="st17" width="16.7" height="5"/>
						<g>
							<path class="st14" d="M84.8,58.7c1.3,0,2.3,1.3,2.3,2.8v6.2c0,1.5-1,2.8-2.3,2.8l0,0c-1.3,0-2.3-1.3-2.3-2.8v-6.2
								C82.5,59.9,83.5,58.7,84.8,58.7L84.8,58.7z"/>
							<path class="st16" d="M82.5,61.4v6.2c0,1.5,1,2.8,2.3,2.8V58.8C83.5,58.7,82.5,59.9,82.5,61.4z"/>
							<g>
								<path class="st2" d="M84.8,59.8c0.8,0,1.4,0.7,1.4,1.6c0,0.9-0.6,1.6-1.4,1.6c-0.8,0-1.4-0.7-1.4-1.6S84.1,59.8,84.8,59.8z"
									/>
								<path class="st2" d="M84.8,65.9c0.8,0,1.4,0.7,1.4,1.6s-0.6,1.6-1.4,1.6c-0.8,0-1.4-0.7-1.4-1.6
									C83.4,66.6,84,65.9,84.8,65.9z"/>
							</g>
						</g>
						<g>
							<path class="st14" d="M89.9,73.3L89.9,73.3H79.8c-0.2,0-0.3-0.2-0.3-0.3V56.2c0-0.1,0-0.2,0.1-0.2c0.1-0.1,0.1-0.1,0.2-0.1
								h10c0.1,0,0.2,0,0.2,0.1c0.1,0.1,0.1,0.2,0.1,0.2v16.7C90.1,73.1,90.1,73.2,89.9,73.3C90,73.2,89.9,73.2,89.9,73.3z
								 M80.1,72.5h9.3v-16h-9.3V72.5z"/>
						</g>
					</g>
					<path class="st1" d="M63.6,56.3c0-0.3,0.3-0.7,0.6-0.7c0.3,0,0.6,0.3,0.6,0.7c0,0.3-0.3,0.7-0.6,0.7
						C63.9,57,63.6,56.8,63.6,56.3z M65.9,56.3c0-0.3,0.3-0.7,0.6-0.7c0.3,0,0.6,0.3,0.6,0.7c0,0.3-0.3,0.7-0.6,0.7
						C66.2,57,65.9,56.8,65.9,56.3z M68.2,56.3c0-0.3,0.3-0.7,0.6-0.7s0.6,0.3,0.6,0.7c0,0.3-0.3,0.7-0.6,0.7
						C68.4,57,68.2,56.8,68.2,56.3z M70.4,56.3c0-0.3,0.3-0.7,0.6-0.7c0.3,0,0.6,0.3,0.6,0.7c0,0.3-0.3,0.7-0.6,0.7
						C70.7,57.1,70.4,56.8,70.4,56.3z M62.5,58.3c0-0.3,0.3-0.7,0.6-0.7s0.6,0.3,0.6,0.7S63.4,59,63.1,59
						C62.8,59,62.5,58.7,62.5,58.3z M64.8,58.3c0-0.3,0.3-0.7,0.6-0.7c0.3,0,0.6,0.3,0.6,0.7S65.7,59,65.4,59
						C65,59,64.8,58.7,64.8,58.3z M67,58.3c0-0.3,0.3-0.7,0.6-0.7c0.3,0,0.6,0.3,0.6,0.7S67.9,59,67.6,59C67.3,59,67,58.7,67,58.3z
						 M69.3,58.3c0-0.3,0.3-0.7,0.6-0.7c0.3,0,0.6,0.3,0.6,0.7S70.2,59,69.9,59C69.6,59,69.3,58.7,69.3,58.3z M63.6,60.4
						c0-0.3,0.3-0.7,0.6-0.7c0.3,0,0.6,0.3,0.6,0.7c0,0.3-0.3,0.7-0.6,0.7C63.9,61.1,63.6,60.7,63.6,60.4z M65.9,60.4
						c0-0.3,0.3-0.7,0.6-0.7c0.3,0,0.6,0.3,0.6,0.7c0,0.3-0.3,0.7-0.6,0.7C66.2,61.1,65.9,60.7,65.9,60.4z M68.2,60.4
						c0-0.3,0.3-0.7,0.6-0.7s0.6,0.3,0.6,0.7c0,0.3-0.3,0.7-0.6,0.7C68.4,61.1,68.2,60.7,68.2,60.4z M70.4,60.4
						c0-0.3,0.3-0.7,0.6-0.7c0.3,0,0.6,0.3,0.6,0.7c0,0.3-0.3,0.7-0.6,0.7S70.4,60.7,70.4,60.4z M62.5,62.4c0-0.3,0.3-0.7,0.6-0.7
						s0.6,0.3,0.6,0.7s-0.3,0.7-0.6,0.7C62.8,63.1,62.5,62.7,62.5,62.4z M64.8,62.4c0-0.3,0.3-0.7,0.6-0.7c0.3,0,0.6,0.3,0.6,0.7
						s-0.3,0.7-0.6,0.7C65,63.1,64.8,62.7,64.8,62.4z M67,62.4c0-0.3,0.3-0.7,0.6-0.7c0.3,0,0.6,0.3,0.6,0.7s-0.3,0.7-0.6,0.7
						C67.3,63.1,67,62.7,67,62.4z M69.3,62.4c0-0.3,0.3-0.7,0.6-0.7c0.3,0,0.6,0.3,0.6,0.7s-0.3,0.7-0.6,0.7
						C69.5,63.1,69.3,62.7,69.3,62.4z M63.6,64.3c0-0.3,0.3-0.7,0.6-0.7c0.3,0,0.6,0.3,0.6,0.7c0,0.3-0.3,0.7-0.6,0.7
						C63.9,65,63.6,64.8,63.6,64.3z M65.9,64.3c0-0.3,0.3-0.7,0.6-0.7c0.3,0,0.6,0.3,0.6,0.7c0,0.3-0.3,0.7-0.6,0.7
						C66.2,65.2,65.9,64.8,65.9,64.3z M68.1,64.5c0-0.3,0.3-0.7,0.6-0.7c0.3,0,0.6,0.3,0.6,0.7c0,0.3-0.3,0.7-0.6,0.7
						C68.4,65.2,68.1,64.8,68.1,64.5z M70.4,64.5c0-0.3,0.3-0.7,0.6-0.7c0.3,0,0.6,0.3,0.6,0.7c0,0.3-0.3,0.7-0.6,0.7
						S70.4,64.8,70.4,64.5z M62.5,66.4c0-0.3,0.3-0.7,0.6-0.7s0.6,0.3,0.6,0.7c0,0.3-0.3,0.7-0.6,0.7C62.8,67.1,62.5,66.8,62.5,66.4
						z M64.8,66.4c0-0.3,0.3-0.7,0.6-0.7c0.3,0,0.6,0.3,0.6,0.7c0,0.3-0.3,0.7-0.6,0.7C65,67.1,64.7,66.8,64.8,66.4z M67,66.4
						c0-0.3,0.3-0.7,0.6-0.7c0.3,0,0.6,0.3,0.6,0.7c0,0.3-0.3,0.7-0.6,0.7C67.3,67.1,67,66.8,67,66.4z M69.3,66.4
						c0-0.3,0.3-0.7,0.6-0.7c0.3,0,0.6,0.3,0.6,0.7c0,0.3-0.3,0.7-0.6,0.7C69.5,67.1,69.3,66.9,69.3,66.4z M63.6,68.4
						c0-0.3,0.3-0.7,0.6-0.7c0.3,0,0.6,0.3,0.6,0.7s-0.3,0.7-0.6,0.7C63.9,69.1,63.6,68.8,63.6,68.4z M65.9,68.4
						c0-0.3,0.3-0.7,0.6-0.7c0.3,0,0.6,0.3,0.6,0.7s-0.3,0.7-0.6,0.7C66.1,69.1,65.9,68.8,65.9,68.4z M68.1,68.4
						c0-0.3,0.3-0.7,0.6-0.7c0.3,0,0.6,0.3,0.6,0.7s-0.3,0.7-0.6,0.7C68.4,69.1,68.1,68.9,68.1,68.4z M70.4,68.4
						c0-0.3,0.3-0.7,0.6-0.7c0.3,0,0.6,0.3,0.6,0.7s-0.3,0.7-0.6,0.7S70.4,68.9,70.4,68.4z M62.5,70.5c0-0.3,0.3-0.7,0.6-0.7
						s0.6,0.3,0.6,0.7c0,0.3-0.3,0.7-0.6,0.7C62.7,71.2,62.5,70.9,62.5,70.5z M64.7,70.5c0-0.3,0.3-0.7,0.6-0.7s0.6,0.3,0.6,0.7
						c0,0.3-0.3,0.7-0.6,0.7C65,71.2,64.7,71,64.7,70.5z M67,70.5c0-0.3,0.3-0.7,0.6-0.7c0.3,0,0.6,0.3,0.6,0.7
						c0,0.3-0.3,0.7-0.6,0.7C67.3,71.2,67,71,67,70.5z M69.3,70.5c0-0.3,0.3-0.7,0.6-0.7c0.3,0,0.6,0.3,0.6,0.7
						c0,0.3-0.3,0.7-0.6,0.7C69.5,71.2,69.3,71,69.3,70.5z M63.6,72.5c0-0.3,0.3-0.7,0.6-0.7c0.3,0,0.6,0.3,0.6,0.7
						c0,0.3-0.3,0.7-0.6,0.7C63.9,73.2,63.6,72.8,63.6,72.5z M65.9,72.5c0-0.3,0.3-0.7,0.6-0.7c0.3,0,0.6,0.3,0.6,0.7
						c0,0.3-0.3,0.7-0.6,0.7C66.1,73.2,65.9,72.8,65.9,72.5z M68.1,72.5c0-0.3,0.3-0.7,0.6-0.7c0.3,0,0.6,0.3,0.6,0.7
						c0,0.3-0.3,0.7-0.6,0.7C68.4,73.2,68.1,72.8,68.1,72.5z M70.4,72.5c0-0.3,0.3-0.7,0.6-0.7c0.3,0,0.6,0.3,0.6,0.7
						c0,0.3-0.3,0.7-0.6,0.7C70.6,73.2,70.4,72.8,70.4,72.5z"/>
					<path class="st1" d="M68.2,56.3c0-0.3,0.3-0.7,0.6-0.7s0.6,0.3,0.6,0.7c0,0.3-0.3,0.7-0.6,0.7C68.5,57,68.2,56.8,68.2,56.3z
						 M70.5,56.3c0-0.3,0.3-0.7,0.6-0.7c0.3,0,0.6,0.3,0.6,0.7c0,0.3-0.3,0.7-0.6,0.7C70.7,57.1,70.5,56.8,70.5,56.3z M72.7,56.3
						c0-0.3,0.3-0.7,0.6-0.7s0.6,0.3,0.6,0.7c0,0.3-0.3,0.7-0.6,0.7C73,57.1,72.7,56.8,72.7,56.3z M75,56.5c0-0.3,0.3-0.7,0.6-0.7
						c0.3,0,0.6,0.3,0.6,0.7s-0.3,0.7-0.6,0.7C75.2,57.1,75,56.8,75,56.5z M67.1,58.3c0-0.3,0.3-0.7,0.6-0.7s0.6,0.3,0.6,0.7
						S68,59,67.7,59C67.3,59,67.1,58.7,67.1,58.3z M69.3,58.3c0-0.3,0.3-0.7,0.6-0.7c0.3,0,0.6,0.3,0.6,0.7S70.2,59,69.9,59
						C69.6,59,69.3,58.7,69.3,58.3z M71.6,58.3c0-0.3,0.3-0.7,0.6-0.7s0.6,0.3,0.6,0.7S72.5,59,72.2,59C71.9,59,71.6,58.7,71.6,58.3
						z M73.8,58.3c0-0.3,0.3-0.7,0.6-0.7S75,58,75,58.3S74.7,59,74.4,59C74.1,59,73.8,58.7,73.8,58.3z M68.2,60.4
						c0-0.3,0.3-0.7,0.6-0.7s0.6,0.3,0.6,0.7c0,0.3-0.3,0.7-0.6,0.7C68.5,61.1,68.2,60.7,68.2,60.4z M70.5,60.4
						c0-0.3,0.3-0.7,0.6-0.7c0.3,0,0.6,0.3,0.6,0.7c0,0.3-0.3,0.7-0.6,0.7C70.7,61.1,70.5,60.7,70.5,60.4z M72.7,60.4
						c0-0.3,0.3-0.7,0.6-0.7s0.6,0.3,0.6,0.7c0,0.3-0.3,0.7-0.6,0.7C73,61.1,72.7,60.7,72.7,60.4z M75,60.4c0-0.3,0.3-0.7,0.6-0.7
						c0.3,0,0.6,0.3,0.6,0.7c0,0.3-0.3,0.7-0.6,0.7C75.2,61.1,75,60.9,75,60.4z M67.1,62.4c0-0.3,0.3-0.7,0.6-0.7s0.6,0.3,0.6,0.7
						s-0.3,0.7-0.6,0.7C67.3,63.1,67.1,62.7,67.1,62.4z M69.3,62.4c0-0.3,0.3-0.7,0.6-0.7c0.3,0,0.6,0.3,0.6,0.7s-0.3,0.7-0.6,0.7
						C69.6,63.1,69.3,62.7,69.3,62.4z M71.6,62.4c0-0.3,0.3-0.7,0.6-0.7s0.6,0.3,0.6,0.7s-0.3,0.7-0.6,0.7
						C71.8,63.1,71.6,62.7,71.6,62.4z M73.8,62.4c0-0.3,0.3-0.7,0.6-0.7S75,62,75,62.4s-0.3,0.7-0.6,0.7
						C74.1,63.1,73.8,62.8,73.8,62.4z M68.2,64.5c0-0.3,0.3-0.7,0.6-0.7s0.6,0.3,0.6,0.7c0,0.3-0.3,0.7-0.6,0.7
						C68.4,65.2,68.2,64.8,68.2,64.5z M70.4,64.5c0-0.3,0.3-0.7,0.6-0.7c0.3,0,0.6,0.3,0.6,0.7c0,0.3-0.3,0.7-0.6,0.7
						S70.4,64.8,70.4,64.5z M72.7,64.5c0-0.3,0.3-0.7,0.6-0.7s0.6,0.3,0.6,0.7c0,0.3-0.3,0.7-0.6,0.7C73,65.2,72.7,64.8,72.7,64.5z
						 M75,64.5c0-0.3,0.3-0.7,0.6-0.7c0.3,0,0.6,0.3,0.6,0.7c0,0.3-0.3,0.7-0.6,0.7C75.2,65.2,75,64.8,75,64.5z M67,66.4
						c0-0.3,0.3-0.7,0.6-0.7c0.3,0,0.6,0.3,0.6,0.7c0,0.3-0.3,0.7-0.6,0.7C67.3,67.1,67,66.8,67,66.4z M69.3,66.4
						c0-0.3,0.3-0.7,0.6-0.7c0.3,0,0.6,0.3,0.6,0.7c0,0.3-0.3,0.7-0.6,0.7C69.6,67.1,69.3,66.9,69.3,66.4z M71.6,66.4
						c0-0.3,0.3-0.7,0.6-0.7s0.6,0.3,0.6,0.7c0,0.3-0.3,0.7-0.6,0.7C71.8,67.1,71.6,66.9,71.6,66.4z M73.8,66.4
						c0-0.3,0.3-0.7,0.6-0.7s0.6,0.3,0.6,0.7c0,0.3-0.3,0.7-0.6,0.7C74.1,67.1,73.8,66.9,73.8,66.4z M68.2,68.4
						c0-0.3,0.3-0.7,0.6-0.7s0.6,0.3,0.6,0.7s-0.3,0.7-0.6,0.7C68.4,69.1,68.2,68.9,68.2,68.4z M70.4,68.4c0-0.3,0.3-0.7,0.6-0.7
						c0.3,0,0.6,0.3,0.6,0.7s-0.3,0.7-0.6,0.7S70.4,68.9,70.4,68.4z M72.7,68.4c0-0.3,0.3-0.7,0.6-0.7s0.6,0.3,0.6,0.7
						s-0.3,0.7-0.6,0.7C73,69.1,72.7,68.9,72.7,68.4z M74.9,68.4c0-0.3,0.3-0.7,0.6-0.7s0.6,0.3,0.6,0.7s-0.3,0.7-0.6,0.7
						C75.2,69.1,74.9,68.9,74.9,68.4z M67,70.5c0-0.3,0.3-0.7,0.6-0.7c0.3,0,0.6,0.3,0.6,0.7c0,0.3-0.3,0.7-0.6,0.7
						C67.3,71.2,67,71,67,70.5z M69.3,70.5c0-0.3,0.3-0.7,0.6-0.7c0.3,0,0.6,0.3,0.6,0.7c0,0.3-0.3,0.7-0.6,0.7
						C69.6,71.2,69.3,71,69.3,70.5z M71.6,70.5c0-0.3,0.3-0.7,0.6-0.7s0.6,0.3,0.6,0.7c0,0.3-0.3,0.7-0.6,0.7
						C71.8,71.2,71.6,71,71.6,70.5z M73.8,70.5c0-0.3,0.3-0.7,0.6-0.7s0.6,0.3,0.6,0.7c0,0.3-0.3,0.7-0.6,0.7
						C74.1,71.3,73.8,71,73.8,70.5z M68.2,72.5c0-0.3,0.3-0.7,0.6-0.7s0.6,0.3,0.6,0.7c0,0.3-0.3,0.7-0.6,0.7
						C68.4,73.2,68.2,72.8,68.2,72.5z M70.4,72.5c0-0.3,0.3-0.7,0.6-0.7c0.3,0,0.6,0.3,0.6,0.7c0,0.3-0.3,0.7-0.6,0.7
						S70.4,72.8,70.4,72.5z M72.7,72.5c0-0.3,0.3-0.7,0.6-0.7s0.6,0.3,0.6,0.7c0,0.3-0.3,0.7-0.6,0.7C72.9,73.2,72.7,72.8,72.7,72.5
						z M74.9,72.5c0-0.3,0.3-0.7,0.6-0.7s0.6,0.3,0.6,0.7c0,0.3-0.3,0.7-0.6,0.7C75.2,73.2,74.9,72.8,74.9,72.5z"/>
				</g>
			</g>
			<g>
				<g>
					<polygon class="st9" points="72.4,48.9 71.9,48.9 71.7,49.4 72,49.8 72.3,49.8 72.6,49.4 					"/>
					<polygon class="st9" points="72.4,51.9 72.3,49.9 72,49.9 71.9,51.9 					"/>
				</g>
				<g>
					<polygon class="st9" points="72.4,48.9 71.9,48.9 71.7,49.4 72,49.8 72.3,49.8 72.6,49.4 					"/>
					<polygon class="st9" points="72.4,51.9 72.3,49.9 72,49.9 71.9,51.9 					"/>
				</g>
				<g>
					<polygon class="st9" points="72.4,48.9 71.9,48.9 71.7,49.4 72,49.8 72.3,49.8 72.6,49.4 					"/>
					<polygon class="st9" points="72.4,51.9 72.3,49.9 72,49.9 71.9,51.9 					"/>
				</g>
				<g>
					<polygon class="st9" points="72.4,48.9 71.9,48.9 71.7,49.4 72,49.8 72.3,49.8 72.6,49.4 					"/>
					<polygon class="st9" points="72.4,51.9 72.3,49.9 72,49.9 71.9,51.9 					"/>
				</g>
				<g>
					<path class="st34" d="M50.6,34.4v22.3c0,0.9,0.6,1.7,1.4,1.7h26.6c0.8,0,1.4-0.8,1.4-1.7V34.4c0-0.9-0.6-1.7-1.4-1.7H52
						C51.2,32.6,50.6,33.5,50.6,34.4z M67,35.9h-3.4c-0.4,0-0.7-0.3-0.7-0.8s0.3-0.8,0.7-0.8H67c0.4,0,0.7,0.3,0.7,0.8
						C67.7,35.5,67.4,35.9,67,35.9z"/>
					<g>
						<path class="st14" d="M52,34.4v22.3h26.6V34.4H69c0.1,0.2,0.1,0.5,0.1,0.7c0,1.4-1,2.6-2.1,2.6h-3.4c-1.2,0-2.1-1.2-2.1-2.6
							c0-0.2,0-0.5,0.1-0.7H52z"/>
					</g>
					<g>
						<path class="st12" d="M66,35.5h-1.3c-0.5,0-1-0.5-1-1.2v-5.1h3.2v5.1C66.9,35,66.5,35.5,66,35.5z"/>
						<path class="st35" d="M65.3,35.5c0,0,0.4,0,0.8,0c0.4,0,0.8-0.5,0.8-1.2v-5.1h-1.6C65.3,29.3,65.3,35.5,65.3,35.5z"/>
						<g>
							<path class="st36" d="M64.7,31.5c0-0.3,0.3-0.7,0.6-0.7v-0.6c-0.6,0-1,0.6-1,1.3c0,0.7,0.5,1.3,1,1.3v-0.6
								C65,32.2,64.7,31.9,64.7,31.5z"/>
							<path class="st14" d="M64.7,31.5c0,0.3,0.3,0.7,0.6,0.7v-1.4C65,30.8,64.7,31.1,64.7,31.5z"/>
							<path class="st14" d="M66.4,31.5c0-0.7-0.5-1.3-1-1.3v0.6c0.3,0,0.6,0.3,0.6,0.7c0,0.3-0.3,0.7-0.6,0.7v0.6
								C65.9,32.8,66.4,32.2,66.4,31.5z"/>
							<path class="st36" d="M65.9,31.5c0-0.3-0.3-0.7-0.6-0.7v1.4C65.7,32.2,65.9,31.9,65.9,31.5z"/>
						</g>
						<path class="st2" d="M66.4,29.6h-2.2c-0.3,0-0.5-0.2-0.5-0.6v-2.9c0-0.3,0.2-0.6,0.5-0.6h2.2c0.3,0,0.5,0.2,0.5,0.6V29
							C66.9,29.4,66.7,29.6,66.4,29.6z"/>
					</g>
					<g>
						<g>
							<g>
								<g>
									<path class="st14" d="M75,52.4h-5.7c-1,0-1.8-0.9-1.8-2.1v-9.4c0-1.2,0.8-2.1,1.8-2.1H75c1,0,1.8,0.9,1.8,2.1v9.4
										C76.8,51.5,76,52.4,75,52.4z"/>
								</g>
							</g>
							<g>
								<path class="st11" d="M76.5,51.9c0.1-0.1,0.1-0.3,0.1-0.6c0-1.3-1.3-2.4-2.9-2.9h-3.1c-1.5,0.5-2.9,1.6-2.9,2.9
									c0,0.2,0,0.3,0.1,0.6H76.5z"/>
								<g>
									<polygon class="st9" points="72.4,48.9 71.9,48.9 71.7,49.4 72,49.8 72.3,49.8 72.6,49.4 									"/>
									<polygon class="st9" points="72.4,51.9 72.3,49.9 72,49.9 71.9,51.9 									"/>
								</g>
								<path class="st37" d="M74.7,44.7L74.7,44.7c0-0.7,0-2.6-0.9-3.5l-1.7-0.7l-1.7,0.7c-0.9,1-0.9,2.8-0.9,3.5l0,0
									c-0.1,0-0.2,0.3-0.2,0.7c0,0.3,0.2,0.6,0.3,0.6c0,0,0.1,0,0.1-0.1c0.3,0.7,0.7,1.5,1,1.9c0,0,0.7,0.8,1.3,0.7
									c0.7,0,1.3-0.7,1.3-0.7c0.3-0.5,0.7-1.2,1-1.9l0.1,0.1c0.1,0,0.3-0.2,0.3-0.6C75,45.1,74.9,44.7,74.7,44.7z"/>
								<g>
									<g>
										<path class="st38" d="M71.1,49.5l-0.6-1.2l0.3-0.5l1.1,0.7L71.1,49.5z"/>
									</g>
									<g>
										<path class="st38" d="M73.2,49.5l-0.8-1l1.1-0.7l0.3,0.5L73.2,49.5z"/>
									</g>
								</g>
								<g>
									<path class="st12" d="M70,43.4L70,43.4L70,43.4z"/>
									<path class="st11" d="M70.2,43.9c0.2,0.1,0.6,0.5,1.3,0c0.3-0.2,1.3-0.8,1.6-0.9c0.2-0.1,0.4-0.1,0.6-0.1h0.1
										c0,0,0.7-0.1,0.9,1.7c0.1-1,0-4.2-2.6-4.2c-2.5,0-2.6,3.3-2.6,4.2c0,0,0.2-0.7,0.2-0.8c0.1-0.1,0.2-0.5,0.2-0.5
										C70,43.6,70.1,43.8,70.2,43.9z"/>
								</g>
								<g>
									<g>
										<path class="st38" d="M71.1,49.5l-0.6-1.2l0.3-0.5l1.1,0.7L71.1,49.5z"/>
									</g>
									<g>
										<path class="st38" d="M73.2,49.5l-0.8-1l1.1-0.7l0.3,0.5L73.2,49.5z"/>
									</g>
								</g>
								<path class="st12" d="M70,43.4L70,43.4L70,43.4z"/>
							</g>
							<g>
								<path class="st10" d="M75.2,52.8h-6.1c-1.1,0-1.9-1-1.9-2.3v-10c0-1.3,0.9-2.3,1.9-2.3h6.1c1.1,0,1.9,1,1.9,2.3v10
									C77.1,51.8,76.3,52.8,75.2,52.8z M69.1,39.4c-0.5,0-1,0.5-1,1.2v10c0,0.6,0.4,1.2,1,1.2h6.1c0.5,0,1-0.5,1-1.2v-10
									c0-0.6-0.4-1.2-1-1.2H69.1z"/>
							</g>
						</g>
						<g>
							<path class="st10" d="M65.2,39.3c0,0.6-0.4,1-0.8,1h-10c-0.5,0-0.8-0.5-0.8-1l0,0c0-0.6,0.4-1,0.8-1h10
								C64.8,38.2,65.2,38.7,65.2,39.3L65.2,39.3z"/>
							<path class="st10" d="M65.2,45.5c0,0.6-0.4,1-0.8,1h-10c-0.5,0-0.8-0.5-0.8-1l0,0c0-0.6,0.4-1,0.8-1h10
								C64.8,44.5,65.2,45,65.2,45.5L65.2,45.5z"/>
							<path class="st10" d="M65.2,51.8c0,0.6-0.4,1-0.8,1h-10c-0.5,0-0.8-0.5-0.8-1l0,0c0-0.6,0.4-1,0.8-1h10
								C64.8,50.8,65.2,51.2,65.2,51.8L65.2,51.8z"/>
						</g>
					</g>
				</g>
			</g>
		</g>
	</g>
</g>
<g>
	<path d="M138.2,265c1.4,0,2.7,0,3,0c0.1,0,0.5,0,1.2,0c1,0,1.9,0,2.1,0c0,0,0.2,0,0.4,0c0.2-5,1.1-26.3-0.1-33.7
		c-1.3-8.5-11.2-43.8-11.2-43.8s-19,5.3-21.8,6.8c-1.5,0.8,4.7,19.1,7.6,36.4c2.2,13.2,1.4,24.8,0.4,34.4l0,0c0,0,0,0,0.1,0l0,0l0,0
		c1.1,0,1.9,0,2.1,0c0.1,0,0.5,0,1.1,0c1.3,0,2.3,0,2.6,0c0.1,0,0.8,0,1.9,0c1,0,1.8,0,2,0c0,0,0.4,0,0.9,0c1,0,1.7,0,1.9,0
		c0,0,0.4,0,0.8,0c1,0,1.7,0,1.9,0c0.1,0,1,0,2.1,0C137.8,265,138.1,265,138.2,265z"/>
	<path d="M175,265c0.7,0,1.3,0,1.6,0c1.3,0,2.4,0,2.7,0c0,0,0.2,0,0.4,0c1,0,1.8,0,2,0l0,0c-1.9-22.6,10.6-69.3,8-70.8
		c-2.7-1.4-21.8-6.8-21.8-6.8s-11.2,35.4-11.2,43.8V265c0.8,0,1.4,0,1.6,0c0.1,0,0.7,0,1.6,0c0.7,0,1.2,0,1.4,0c0,0,0.4,0,0.8,0
		c1,0,1.7,0,1.9,0c0,0,0.4,0,0.8,0c1,0,1.7,0,1.9,0c0.1,0,0.5,0,1.1,0c1,0,1.8,0,2,0c0,0,0.4,0,0.8,0c1.3,0,2.3,0,2.6,0
		C173.4,265,174.1,265,175,265z"/>
	<path class="st39" d="M173.6,185.2c-0.6,36.5-8.9,57.9-15.5,69.3c-4.4,7.5-8,10.5-8,10.5c-2-1.5-4.1-4.4-6-8.5
		c-9.8-21.4-16.2-71.2-16.2-71.2h45.7V185.2z"/>
	<path class="st40" d="M152.6,205.1l3.2,20.8c-3,4.4-5.5,6.2-5.5,6.2c-1.4-0.9-2.8-2.6-4.1-5L148,205l-2.9-5.8l5.8-2.2l4.9,2.3
		L152.6,205.1z"/>
	<path class="st41" d="M135.2,185.2l8-3l0.5-7.1c0,0-8.2,4.2-10.6,5c-2.4,0.7-10.9,12.4-10.9,12.4l6.3,4.5l-7.3,7.8l23.6,57.2
		L135.2,185.2"/>
	<path class="st41" d="M166.4,185.2l-8-3l-0.2-7.3c0,0,7.9,4.5,10.3,5.2c2.4,0.7,10.9,12.4,10.9,12.4l-6.3,4.5l7.3,7.8l-23.6,57.2
		L166.4,185.2"/>
	<g>
		<g>
			<path class="st42" d="M140.1,182.2c0,0,4.2-2.4,4.2-13.7l13.1-0.1c0,0,1.1,11.4,3.2,13.8c0,0-3.8,14.8-9.5,14.8
				C145.5,196.9,140.1,182.2,140.1,182.2z"/>
			<g>
				<g>
					<g>
						<path class="st42" d="M161.2,162.3c0.7,0.2,1.4,0.3,2.1,0.3c0.7,0,1.4-0.2,1.9-0.8c0.5-0.5,0.7-1.4,0.4-2.1
							c-0.4-1-1.6-1.2-2.5-1.3c-0.6-0.1-1.1-0.1-1.7-0.2c0,0.5,0,1.1,0,1.7c0,0.4,0,0.8-0.1,1.2C161.3,161.6,161.2,162,161.2,162.3z
							"/>
					</g>
				</g>
			</g>
			<g>
				<g>
					<g>
						<path class="st42" d="M139.5,162.3c-0.7,0.2-1.4,0.3-2.1,0.3c-0.7,0-1.4-0.3-1.9-0.8s-0.7-1.4-0.4-2.1c0.4-1,1.6-1.2,2.5-1.3
							c0.6-0.1,1.1-0.1,1.7-0.2c0,0.5,0,1.1,0,1.7c0,0.4,0,0.8,0.1,1.2C139.4,161.6,139.4,161.9,139.5,162.3z"/>
					</g>
				</g>
			</g>
			<path class="st43" d="M161.4,165.4c1.3,0,3.2-12.8,1.3-18.5c-1.1-3.5-23.5-2.2-24.3,1.2c-1.3,5.3-0.3,15.3,1.1,17.7
				C140.8,167.9,154.9,170.6,161.4,165.4z"/>
			<path class="st44" d="M162,158c0,0-0.2,2.2-0.6,6.8c0,0.5-0.1,1-0.1,1.6c-0.3,4.2-6.6,11.7-10.8,12.2
				c-4.2-0.6-10.4-8.1-10.7-12.3c0-0.4-0.1-0.8-0.1-1.2c-0.3-5-0.5-7.3-0.5-7.3c-0.3-2.8-0.3-6.7,2.1-8.7c2.5-2.1,5.4,1,7.9,1.2
				c3.1,0.3,10.1-5,11.9-0.9C162.2,152.1,162.1,155.3,162,158z"/>
			<path class="st43" d="M162.3,163.4c0,0.5-0.3,14.2-11.8,15.3c-10.4-1.9-11.6-14.3-11.7-14.6c0.4,0.9,3.6,3.3,4.5,3.6
				s12.3,0.3,14-0.2C158.9,167.1,162.3,163.4,162.3,163.4z"/>
			<path class="st43" d="M147.1,141.4c-1.4,0.1-2.8,0.1-4.2-0.2c-0.6-0.1-1.3-0.4-1.9-0.2c-1,0.3-1.5,1.5-1.5,2.6
				c0,7.3,10,9.2,15,6.4c0.9-0.4,1.5-1.7,2.1-2.5c0.2-0.3,0.5-0.6,0.6-1c0.1-0.4,0.2-0.8,0.1-1.2c-0.2-1.4-1.1-2.7-2.3-3.3
				C152.7,140.7,149.5,141.3,147.1,141.4z"/>
			<path class="st43" d="M141.9,159.6c0.2-0.9,1.7-2.1,2.8-2.2c1.5-0.2,3.4,0.5,3.6,1.4c0.1,0.3,0.1,0.7,0.1,1
				C146.4,159.6,144,159.3,141.9,159.6z"/>
			<path class="st43" d="M159.1,159.6c-0.2-0.9-1.7-2.1-2.8-2.2c-1.5-0.2-3.4,0.5-3.6,1.4c-0.1,0.3-0.1,0.7-0.1,1
				C154.7,159.6,157.1,159.3,159.1,159.6z"/>
			<path class="st45" d="M146.8,169.6h7.6c0,0-2,5.6-4.1,5.6C148.2,175.2,146.8,169.6,146.8,169.6z"/>
			<path class="st42" d="M152.1,166.3c-1.1-1.7-1.1-3.9-1.2-5.9c0-0.5-0.8-0.5-0.8,0c0.1,2,0.1,4.2,1.2,6c-0.3,0.3-0.5,0.6-0.7,0.9
				c-0.3,0.4,0.4,0.8,0.6,0.4c0.2-0.3,0.5-0.6,0.8-0.9C152.1,166.6,152.2,166.4,152.1,166.3z"/>
		</g>
	</g>
	<g>
		<g>
			<g>
				<g>
					<g>
						<path class="st46" d="M147.3,162.7c0,0.7-0.3,1.3-0.7,1.3s-0.7-0.6-0.7-1.3c0-0.7,0.3-1.3,0.7-1.3
							C147,161.4,147.3,162,147.3,162.7z"/>
					</g>
				</g>
			</g>
		</g>
	</g>
	<g>
		<g>
			<g>
				<g>
					<g>
						<path class="st46" d="M153.9,162.7c0,0.7,0.3,1.3,0.7,1.3c0.4,0,0.7-0.6,0.7-1.3c0-0.7-0.3-1.3-0.7-1.3
							C154.2,161.4,153.9,162,153.9,162.7z"/>
					</g>
				</g>
			</g>
		</g>
	</g>
	<path class="st47" d="M140.1,182.2l-4.9,3l6.7,17.7c0,0,4.4-4.6,9.2-5.9L140.1,182.2z"/>
	<path class="st47" d="M160.6,182.2l5.8,3l-6.3,17.7c0,0-4.3-4.6-9.1-5.9L160.6,182.2z"/>
	<path d="M111.9,198.9c-6.1,0-12.1,53.3-12.1,59.8c0,6.5,25.3,2,25.3,2S117.4,198.9,111.9,198.9z"/>
	<path d="M187,265.1c0.1,0,0.5,0,1.2,0c1,0,1.9,0,2.1,0c0,0,0.2,0,0.6,0c1.4,0,2.7,0,2.9,0c0,0,0.1,0,0.2,0l0,0
		c0.2-5.8,5.1-65.2-3.4-66.2c-5.4-0.6-6.7,24.9-6.7,24.9l-3.5,41.2c0.6,0,1.1,0,1.2,0s0.7,0,1.6,0c0.6,0,1.1,0,1.2,0
		c0,0,0.3,0,0.6,0C186.1,265.1,186.8,265.1,187,265.1z"/>
	<g>
		<polygon class="st48" points="143.1,214.5 158.7,214.5 158.7,234.5 144.5,234.9 		"/>
		<polygon class="st49" points="150.2,216.3 149.8,211.6 152.3,211.3 152.2,216.3 		"/>
		<path class="st49" d="M142.9,177.8c0,0-4.2,1.1-4.2,9.5c0,6.1,12.6,24.3,12.6,24.3l-1.3,1.3c0,0-12.6-19.6-12.6-24.5
			s-0.3-11.9,6.3-13.3L142.9,177.8z"/>
		<path class="st49" d="M159.1,178.7c0,0,4.3,2.8,4.1,8.9c-0.2,6.1-13.2,25.2-13.2,25.2h1.9c0,0,12.6-19.6,12.6-24.5
			c0-4.9-1.6-11.6-6.4-13.5L159.1,178.7z"/>
	</g>
	<path class="st44" d="M146.9,238c0,0,2.3-1.2,3.3-1.4c0.9-0.2,4.6,0.7,4.6,0.7S154.3,240.1,146.9,238z"/>
	<path class="st50" d="M149.4,236.4c0,0,1.2,24.4,2.7,24.4s2.7-24.2,2.7-24.2L149.4,236.4z"/>
	<polygon class="st51" points="143.7,230.7 152.1,230.7 152.1,236.9 144.1,236.9 	"/>
	<polygon class="st52" points="160.5,230.7 152.1,230.7 152.1,236.9 160.2,236.9 	"/>
	<path class="st44" d="M155.6,238.9c0,0-5.9-1-7.5-1.3s-5.9,4.6-5.9,4.6l2.2,4.7c0,0,8.6,0,10.4,0c1.8,0,0.4-2.9,0.4-2.9
		s1.9-1,1.4-1.8s-1.2-1.1-1.2-1.1S156.9,239.1,155.6,238.9z"/>
	<path class="st50" d="M152.1,222.5c-2.6,0-4.2,2.5-4.2,3.7c0,3.2,1.5,4.5,1.5,4.5h2.7h2.7c0,0,1.5-1.5,1.5-4.5
		C156.3,225,154.8,222.5,152.1,222.5z"/>
	<path d="M99.8,258.7c0.2-3.9,6-10.1,9.8-11c3.8-0.9,32.5-8.2,32.5-8.2l3.3,9.1c0,0-29.9,17.3-36.4,16.5
		C102.6,264.3,99.7,261.2,99.8,258.7z"/>
	<path class="st53" d="M142.1,239.5c0,0-26.4,5.9-31.7,7.9c-5.3,2-7.3,4.9-7.3,4.9"/>
	<path class="st53" d="M117,211.5c0,0,4.4,24.5,4.3,33.3"/>
	<path class="st53" d="M181.7,265.1c1.3-17.7,1.3-35.3,4.8-52.2"/>
	<path class="st53" d="M145.5,248.6c0,0-21.6,11.6-25.7,13.3"/>
	<line class="st53" x1="137.7" y1="240.6" x2="142.1" y2="250.5"/>
	<polygon class="st39" points="143.9,255.3 144.9,265 156.7,265 157.6,255.4 	"/>
</g>
</svg>
