<?xml version="1.0" encoding="utf-8"?>
<!-- Generator: Adobe Illustrator 25.1.0, SVG Export Plug-In . SVG Version: 6.00 Build 0)  -->
<svg version="1.1" id="Ñëîé_1" xmlns="http://www.w3.org/2000/svg" xmlns:xlink="http://www.w3.org/1999/xlink" x="0px" y="0px"
	 viewBox="0 0 300 265" style="enable-background:new 0 0 300 265;" xml:space="preserve">
<style type="text/css">
	.st0{fill-rule:evenodd;clip-rule:evenodd;fill:#FAF3D9;}
	.st1{fill-rule:evenodd;clip-rule:evenodd;fill:#FFFFFF;}
	.st2{fill-rule:evenodd;clip-rule:evenodd;fill:#D09462;}
	.st3{fill-rule:evenodd;clip-rule:evenodd;fill:#E2AA7B;}
	.st4{fill-rule:evenodd;clip-rule:evenodd;fill:#003333;}
	.st5{fill-rule:evenodd;clip-rule:evenodd;fill:#99CCCC;}
	.st6{fill-rule:evenodd;clip-rule:evenodd;fill:#E6E6E6;}
	.st7{fill-rule:evenodd;clip-rule:evenodd;fill:#808080;}
	.st8{fill-rule:evenodd;clip-rule:evenodd;fill:#CCCCCC;}
	.st9{fill-rule:evenodd;clip-rule:evenodd;fill:#5D0B0C;}
	.st10{fill-rule:evenodd;clip-rule:evenodd;fill:#292F31;}
	.st11{fill-rule:evenodd;clip-rule:evenodd;fill:#D1DBD7;}
	.st12{fill-rule:evenodd;clip-rule:evenodd;fill:#333329;}
	.st13{fill-rule:evenodd;clip-rule:evenodd;fill:#ADBEBB;}
	.st14{fill-rule:evenodd;clip-rule:evenodd;fill:#99D594;}
	.st15{fill-rule:evenodd;clip-rule:evenodd;fill:#FCAD1F;}
	.st16{fill-rule:evenodd;clip-rule:evenodd;fill:#525E61;}
	.st17{fill-rule:evenodd;clip-rule:evenodd;fill:#BAD7C8;}
	.st18{fill-rule:evenodd;clip-rule:evenodd;fill:#FA0E2F;}
	.st19{fill-rule:evenodd;clip-rule:evenodd;fill:#6B1E1B;}
	.st20{fill-rule:evenodd;clip-rule:evenodd;fill:#C25B20;}
	.st21{fill-rule:evenodd;clip-rule:evenodd;fill:#EBAE77;}
	.st22{fill-rule:evenodd;clip-rule:evenodd;fill:#578679;}
	.st23{fill-rule:evenodd;clip-rule:evenodd;fill:#234844;}
	.st24{fill-rule:evenodd;clip-rule:evenodd;fill:#3FB1D1;}
	.st25{fill-rule:evenodd;clip-rule:evenodd;fill:#00A0C6;}
	.st26{fill-rule:evenodd;clip-rule:evenodd;fill:#8A1F55;}
	.st27{fill-rule:evenodd;clip-rule:evenodd;fill:#4C9F9A;}
	.st28{fill-rule:evenodd;clip-rule:evenodd;fill:#67C3B7;}
	.st29{fill-rule:evenodd;clip-rule:evenodd;fill:#213C56;}
	.st30{fill-rule:evenodd;clip-rule:evenodd;fill:#424448;}
	.st31{fill-rule:evenodd;clip-rule:evenodd;fill:#2A4865;}
	.st32{fill-rule:evenodd;clip-rule:evenodd;fill:#F79E65;}
	.st33{fill-rule:evenodd;clip-rule:evenodd;fill:#EE894B;}
	.st34{fill-rule:evenodd;clip-rule:evenodd;fill:#671616;}
	.st35{fill-rule:evenodd;clip-rule:evenodd;fill:#4D0D0D;}
	.st36{fill-rule:evenodd;clip-rule:evenodd;fill:#BB439D;}
	.st37{fill-rule:evenodd;clip-rule:evenodd;fill:#311919;}
	.st38{fill-rule:evenodd;clip-rule:evenodd;fill:#CA7B41;}
	.st39{fill-rule:evenodd;clip-rule:evenodd;fill:#C4682F;}
	.st40{fill-rule:evenodd;clip-rule:evenodd;fill:#DF945B;}
	.st41{fill-rule:evenodd;clip-rule:evenodd;fill:#A3BDC3;}
	.st42{fill-rule:evenodd;clip-rule:evenodd;fill:#892F30;}
	.st43{fill:#E19F67;}
	.st44{fill-rule:evenodd;clip-rule:evenodd;fill:#973E2B;}
	.st45{fill-rule:evenodd;clip-rule:evenodd;fill:#E19F67;}
	.st46{fill-rule:evenodd;clip-rule:evenodd;fill:#DC9457;}
	.st47{fill-rule:evenodd;clip-rule:evenodd;fill:#529C93;}
	.st48{fill-rule:evenodd;clip-rule:evenodd;fill:#6CB5AA;}
	.st49{fill-rule:evenodd;clip-rule:evenodd;fill:#3B7C7F;}
	.st50{fill-rule:evenodd;clip-rule:evenodd;fill:#F9E2CC;}
	.st51{fill-rule:evenodd;clip-rule:evenodd;fill:#BADBB2;}
	.st52{fill-rule:evenodd;clip-rule:evenodd;fill:#CCEBC5;}
	.st53{fill-rule:evenodd;clip-rule:evenodd;fill:#F90033;}
	.st54{fill-rule:evenodd;clip-rule:evenodd;fill:#D0060B;}
	.st55{fill-rule:evenodd;clip-rule:evenodd;fill:#F2304B;}
	.st56{fill-rule:evenodd;clip-rule:evenodd;fill:#943F6B;}
	.st57{fill-rule:evenodd;clip-rule:evenodd;fill:#A3BA53;}
	.st58{fill-rule:evenodd;clip-rule:evenodd;fill:#3D564C;}
	.st59{fill-rule:evenodd;clip-rule:evenodd;fill:#0480B7;}
	.st60{fill-rule:evenodd;clip-rule:evenodd;fill:#C6763E;}
	.st61{fill-rule:evenodd;clip-rule:evenodd;fill:#D28549;}
	.st62{fill-rule:evenodd;clip-rule:evenodd;fill:#83413D;}
	.st63{fill-rule:evenodd;clip-rule:evenodd;fill:#FAF4E3;}
	.st64{fill-rule:evenodd;clip-rule:evenodd;fill:#4D897C;}
	.st65{fill-rule:evenodd;clip-rule:evenodd;fill:#3F675E;}
	.st66{fill-rule:evenodd;clip-rule:evenodd;fill:#4E5659;}
	.st67{fill-rule:evenodd;clip-rule:evenodd;fill:#D9E1E6;}
	.st68{fill-rule:evenodd;clip-rule:evenodd;fill:#E41A4A;}
	.st69{fill-rule:evenodd;clip-rule:evenodd;fill:#7B3734;}
	.st70{fill-rule:evenodd;clip-rule:evenodd;fill:#57A6B3;}
	.st71{fill-rule:evenodd;clip-rule:evenodd;fill:#73BAC4;}
	.st72{fill-rule:evenodd;clip-rule:evenodd;fill:#37909C;}
	.st73{fill-rule:evenodd;clip-rule:evenodd;fill:#F9E7D9;}
	.st74{fill-rule:evenodd;clip-rule:evenodd;fill:#B6CBD8;}
	.st75{fill-rule:evenodd;clip-rule:evenodd;fill:#5B7573;}
	.st76{fill-rule:evenodd;clip-rule:evenodd;fill:#F1A249;}
	.st77{fill-rule:evenodd;clip-rule:evenodd;fill:#C63A2E;}
	.st78{fill-rule:evenodd;clip-rule:evenodd;fill:#D78B4E;}
	.st79{fill-rule:evenodd;clip-rule:evenodd;fill:#F9902B;}
	.st80{fill-rule:evenodd;clip-rule:evenodd;fill:#F8A23F;}
	.st81{fill-rule:evenodd;clip-rule:evenodd;fill:#F0047F;}
	.st82{fill-rule:evenodd;clip-rule:evenodd;fill:#F31359;}
	.st83{fill-rule:evenodd;clip-rule:evenodd;fill:#008837;}
	.st84{fill-rule:evenodd;clip-rule:evenodd;fill:#4AAB2E;}
	.st85{fill-rule:evenodd;clip-rule:evenodd;fill:#CCE968;}
	.st86{fill-rule:evenodd;clip-rule:evenodd;fill:#E3EC9D;}
	.st87{fill-rule:evenodd;clip-rule:evenodd;fill:#7BBFB5;}
	.st88{fill-rule:evenodd;clip-rule:evenodd;fill:#3AAACD;}
	.st89{fill-rule:evenodd;clip-rule:evenodd;fill:#2C5263;}
	.st90{fill-rule:evenodd;clip-rule:evenodd;fill:#76B6B8;}
	.st91{fill-rule:evenodd;clip-rule:evenodd;fill:#6A51A3;}
	.st92{fill-rule:evenodd;clip-rule:evenodd;fill:#9983BE;}
	.st93{fill-rule:evenodd;clip-rule:evenodd;fill:#FA676B;}
	.st94{fill-rule:evenodd;clip-rule:evenodd;fill:#9F4D8B;}
	.st95{fill-rule:evenodd;clip-rule:evenodd;fill:#CAA4B8;}
	.st96{fill-rule:evenodd;clip-rule:evenodd;fill:#B5DDA1;}
	.st97{fill-rule:evenodd;clip-rule:evenodd;fill:#EA2109;}
	.st98{fill-rule:evenodd;clip-rule:evenodd;fill:#FB4512;}
	.st99{fill-rule:evenodd;clip-rule:evenodd;fill:#529A75;}
	.st100{fill-rule:evenodd;clip-rule:evenodd;fill:#79C097;}
	.st101{fill-rule:evenodd;clip-rule:evenodd;fill:#FFCC00;}
	.st102{fill-rule:evenodd;clip-rule:evenodd;fill:#FCD31B;}
	.st103{fill-rule:evenodd;clip-rule:evenodd;fill:#F2E9D0;}
	.st104{fill-rule:evenodd;clip-rule:evenodd;fill:#2A922C;}
	.st105{fill-rule:evenodd;clip-rule:evenodd;fill:#3EA52C;}
	.st106{fill-rule:evenodd;clip-rule:evenodd;fill:#0E501F;}
</style>
<g>
	<g>
		<rect x="36" y="2.7" class="st0" width="120.5" height="69.8"/>
		<g>
			<rect x="40.3" y="7.9" class="st1" width="107.3" height="58"/>
			<path class="st2" d="M61,52.4h71.5c0.3,0,0.5,0.1,0.5,0.4v3.1c0,0.2-0.3,0.4-0.5,0.4H61c-0.3,0-0.5-0.1-0.5-0.4v-3.1
				C60.5,52.5,60.8,52.4,61,52.4z"/>
			<path class="st3" d="M61,52.4h71.5c0.3,0,0.5,0.1,0.5,0.4v0.5H60.5v-0.5C60.5,52.5,60.8,52.4,61,52.4z"/>
			<rect x="43.9" y="9.2" class="st1" width="103.6" height="56.8"/>
			<path class="st4" d="M46.8,12.6c0.7,0,1.3-0.5,1.3-1.2c0-0.6-0.5-1.2-1.3-1.2c-0.7,0-1.3,0.5-1.3,1.2
				C45.6,12.2,46.1,12.6,46.8,12.6z"/>
			<path class="st4" d="M144.5,13.6c0.7,0,1.3-0.5,1.3-1.2c0-0.6-0.5-1.2-1.3-1.2c-0.7,0-1.3,0.5-1.3,1.2
				C143.2,13,143.9,13.6,144.5,13.6z"/>
			<path class="st4" d="M47.4,62.8c0.7,0,1.3-0.5,1.3-1.2c0-0.6-0.5-1.2-1.3-1.2c-0.7,0-1.3,0.5-1.3,1.2
				C46.2,62.2,46.8,62.8,47.4,62.8z"/>
			<path class="st4" d="M144.1,63.6c0.7,0,1.3-0.5,1.3-1.2c0-0.6-0.5-1.2-1.3-1.2c-0.7,0-1.3,0.5-1.3,1.2
				C143,62.9,143.5,63.6,144.1,63.6z"/>
			<rect x="51.3" y="9.2" class="st5" width="1.5" height="56.8"/>
			<rect x="43.6" y="13.6" class="st5" width="103.8" height="1.3"/>
			<rect x="43.6" y="18.6" class="st5" width="103.8" height="1.3"/>
			<rect x="43.6" y="23.7" class="st5" width="103.8" height="1.3"/>
			<rect x="43.6" y="28.7" class="st5" width="103.8" height="1.3"/>
			<rect x="43.6" y="33.7" class="st5" width="103.8" height="1.3"/>
			<rect x="43.6" y="38.7" class="st5" width="103.8" height="1.3"/>
			<rect x="43.6" y="43.8" class="st5" width="103.8" height="1.3"/>
			<rect x="43.6" y="48.9" class="st5" width="103.8" height="1.3"/>
			<rect x="43.6" y="53.9" class="st5" width="103.8" height="1.3"/>
			<rect x="43.6" y="58.9" class="st5" width="103.8" height="1.3"/>
			<rect x="56.7" y="9.2" class="st5" width="1.5" height="56.8"/>
			<rect x="62.1" y="9.2" class="st5" width="1.5" height="56.8"/>
			<rect x="67.6" y="9.2" class="st5" width="1.5" height="56.8"/>
			<rect x="73" y="9.2" class="st5" width="1.5" height="56.8"/>
			<rect x="78.4" y="9.2" class="st5" width="1.5" height="56.8"/>
			<rect x="83.8" y="9.2" class="st5" width="1.5" height="56.8"/>
			<rect x="89.3" y="9.2" class="st5" width="1.5" height="56.8"/>
			<rect x="94.7" y="9.2" class="st5" width="1.5" height="56.8"/>
			<rect x="100.1" y="9.2" class="st5" width="1.5" height="56.8"/>
			<rect x="105.6" y="9.2" class="st5" width="1.5" height="56.8"/>
			<rect x="111" y="9.2" class="st5" width="1.5" height="56.8"/>
			<rect x="116.4" y="9.2" class="st5" width="1.5" height="56.8"/>
			<rect x="121.8" y="9.2" class="st5" width="1.5" height="56.8"/>
			<rect x="127.3" y="9.2" class="st5" width="1.5" height="56.8"/>
			<rect x="132.7" y="9.2" class="st5" width="1.5" height="56.8"/>
			<rect x="138.1" y="9.2" class="st5" width="1.5" height="56.8"/>
			<polygon class="st6" points="85.6,19.1 63.8,33.7 63.8,58.8 114.1,59 114.3,33.6 129,19.1 			"/>
			<polygon class="st7" points="129,49 114.1,58.8 114.3,33.6 129,19.1 			"/>
			<rect x="63.8" y="33.7" class="st8" width="50.4" height="25.7"/>
		</g>
	</g>
	<path class="st9" d="M4.3,155.9h201.9c2.3,0,4.3,2,4.3,4.5c0,2.4-1.9,4.5-4.3,4.5H4.3c-2.3,0-4.3-2-4.3-4.5
		C0,157.9,1.9,155.9,4.3,155.9z"/>
	<rect x="14" y="162.4" class="st9" width="9.8" height="102.2"/>
	<rect x="187.7" y="163" class="st9" width="9.8" height="102"/>
	<g>
		<polygon class="st10" points="192.5,133.2 193.1,131.5 209,135.9 208.5,137.6 		"/>
		<rect x="184.1" y="132.7" class="st10" width="18.2" height="23.4"/>
		<path class="st11" d="M193.2,141.1c5,0,9.1-3.8,9.1-8.4s-4.1-8.4-9.1-8.4c-5,0-9.1,3.8-9.1,8.4
			C184.1,137.3,188.2,141.1,193.2,141.1z"/>
		<path class="st12" d="M187.4,143h11.5c0.7,0,1.3,0.5,1.3,1.2v9.6c0,0.6-0.5,1.2-1.3,1.2h-11.5c-0.7,0-1.3-0.5-1.3-1.2v-9.6
			C186.2,143.5,186.7,143,187.4,143z"/>
		<path class="st13" d="M193.2,139.6c4.2,0,7.5-3.2,7.5-6.9c0-3.9-3.4-6.9-7.5-6.9c-4.2,0-7.5,3.2-7.5,6.9
			C185.8,136.5,189.2,139.6,193.2,139.6z"/>
		<path class="st10" d="M193,134.2c1,0,1.9-0.8,1.9-1.7s-0.9-1.7-1.9-1.7s-1.9,0.8-1.9,1.7C191.1,133.4,192,134.2,193,134.2z"/>
		<path class="st14" d="M193.2,146.9c0.8,0,1.4-0.6,1.4-1.3s-0.7-1.3-1.4-1.3s-1.4,0.6-1.4,1.3C191.8,146.3,192.4,146.9,193.2,146.9
			z"/>
		<path class="st14" d="M208.4,138.5c1.1,0,2.1-0.8,2.1-1.9c0-1-0.9-1.9-2.1-1.9c-1.1,0-2.1,0.8-2.1,1.9
			C206.5,137.7,207.4,138.5,208.4,138.5z"/>
	</g>
	<g>
		<path class="st15" d="M59.4,90.1c3.9,0,7.2,3.1,7.1,6.8c0,3.7-3.3,6.7-7.3,6.6c-3.9,0-7.2-3.1-7.1-6.8C52.1,93,55.4,90,59.4,90.1z
			"/>
		<path class="st16" d="M11.6,150.7l17.8,0.1c1.5,0,2.9,1.2,2.9,2.6c0,1.4-1.3,2.6-2.9,2.6L11.6,156c-1.5,0-2.9-1.2-2.9-2.6
			C8.8,151.8,10.1,150.6,11.6,150.7z"/>
		<polygon class="st17" points="17,150.7 23.2,150.8 23.4,113.6 17.3,113.5 		"/>
		<polygon class="st17" points="18.9,110.2 23.3,114.1 45.6,89.6 41.2,85.6 		"/>
		<path class="st16" d="M20.6,106c3.8,0,7,2.9,6.9,6.5c0,3.6-3.2,6.5-7,6.4c-3.8,0-7-2.9-6.9-6.5C13.6,108.9,16.7,106,20.6,106z"/>
		<path class="st18" d="M47.9,86.6c5.4-5.3,14-5.9,20.1-1.6l-20.7,20.3C42.3,99.9,42.6,91.9,47.9,86.6z"/>
		<path class="st18" d="M47.9,94.2l8.2-8.1l-9.4-8.2c-1.6-1.4-4.8-0.8-7.1,1.4c-2.3,2.2-2.7,5.3-1.1,6.7L47.9,94.2z"/>
		<polygon class="st19" points="47.1,105.2 67.9,84.8 70.9,87.4 50.1,107.8 		"/>
		<path class="st20" d="M12.4,150.7h2.9v-1.4c0-0.7-0.7-1.3-1.4-1.3c-0.8,0-1.4,0.6-1.4,1.3L12.4,150.7z"/>
		<path class="st17" d="M20.4,109.3c1.8,0,3.2,1.3,3.1,2.9c0,1.6-1.4,2.9-3.2,2.8c-1.8,0-3.2-1.3-3.1-2.9
			C17.3,110.6,18.8,109.3,20.4,109.3z"/>
	</g>
	<g>
		<path class="st9" d="M66.1,105.8L66.1,105.8c1.2,0,2.2,0.9,2.2,2v49h-4.3v-49C64,106.7,64.9,105.8,66.1,105.8z"/>
		<polygon class="st21" points="72.6,89.1 185.6,89.1 166.8,144.8 53.8,144.8 		"/>
		<polygon class="st0" points="76.5,90.5 182.4,90.5 164.8,142.7 58.8,142.7 		"/>
		<path class="st16" d="M80.4,88c0,0-2,6.1-1.8,6.4c0.3,0.3,12.9,1,13.6,0.5c0.7-0.5,1.4-5.4,1.8-6.7L80.4,88z"/>
		<path class="st17" d="M85.2,84.1v4h0.9v-3.4c0.2-2.2,2.9-1.8,2.5,0.1c-0.2,0.9-1.1,2.9-1.2,3.4h1c0,0,1.1-2.2,1.4-3.8
			C90.3,81.9,85.6,80.9,85.2,84.1z"/>
		<polygon class="st9" points="53.8,144.8 55.8,146.9 169.6,146.9 187.9,92.2 185.6,89.1 166.8,144.8 		"/>
		<path class="st9" d="M179,106.2c1.2,0,2.2,0.9,2.2,2v49.5h-4.3v-49.5C176.8,107.1,177.8,106.2,179,106.2z"/>
		<path class="st16" d="M178.7,124.4c1.9,0,3.3-2.1,3.3-4.9c0-2.6-1.4-4.9-3.3-4.9s-3.3,2.1-3.3,4.9
			C175.4,122.2,176.9,124.4,178.7,124.4z"/>
		<path class="st16" d="M157.1,88.3c0,0-2,6.1-1.8,6.4c0.3,0.3,12.9,1,13.6,0.5s1.4-5.4,1.8-6.7L157.1,88.3z"/>
		<path class="st17" d="M161.9,84.3v4h0.9v-3.4c0.2-2.2,2.9-1.8,2.5,0.1c-0.2,0.9-1.1,2.9-1.2,3.4h1c0,0,1.1-2.2,1.4-3.8
			C166.9,82.1,162.3,81.1,161.9,84.3z"/>
		<path class="st16" d="M74.7,148.3c0,0,2-6.1,1.8-6.4c-0.3-0.3-12.9-1-13.6-0.5s-1.4,5.4-1.8,6.7L74.7,148.3z"/>
		<path class="st16" d="M160.9,148.2c0,0,2-6.1,1.8-6.4c-0.3-0.3-12.9-1-13.6-0.5c-0.7,0.5-1.4,5.4-1.8,6.7L160.9,148.2z"/>
		<path class="st22" d="M70.5,153.1l0.2-4h-0.9l-0.2,3.4c-0.4,2.2-3,1.8-2.4-0.1c0.2-0.9,1.3-2.9,1.5-3.4h-1c0,0-1.3,2.2-1.8,3.8
			C65.4,155.4,70,156.3,70.5,153.1z"/>
		<path class="st22" d="M156.8,153l0.3-4h-0.9l-0.2,3.4c-0.4,2.2-3,1.8-2.4-0.1c0.2-0.9,1.3-2.9,1.5-3.4h-1c0,0-1.3,2.2-1.8,3.8
			C151.5,155.3,156.2,156.2,156.8,153z"/>
		<polygon class="st23" points="62.9,149.9 61,148 74.7,148.3 75.8,150.3 		"/>
		<polygon class="st23" points="149,149.8 147.3,147.9 160.9,148.2 162,150.2 		"/>
		<polygon class="st23" points="77.8,146.8 75.8,150.3 74.5,148.1 75,146.8 		"/>
		<polygon class="st23" points="163.9,146.7 162,150.2 160.6,148 161.3,146.7 		"/>
		<path class="st17" d="M69.2,152.1l0.2-4h-0.9l-0.2,3.4c-0.4,2.2-3,1.8-2.4-0.1c0.2-0.9,1.3-2.9,1.5-3.4h-1c0,0-1.3,2.2-1.8,3.8
			C64.1,154.4,68.7,155.3,69.2,152.1z"/>
		<path class="st17" d="M155.4,152l0.2-4h-0.9l-0.2,3.4c-0.4,2.2-3,1.8-2.4-0.1c0.2-0.9,1.3-2.9,1.5-3.4h-1c0,0-1.3,2.2-1.8,3.8
			C150.2,154.3,154.8,155.2,155.4,152z"/>
		<polygon class="st24" points="99.6,100.1 81.5,120.5 89.2,120.5 78.4,128.8 156.9,105.3 120.6,109.2 126.2,100.8 		"/>
		<polygon class="st25" points="106.1,115.8 156.8,111.1 106.9,132 		"/>
		<path class="st25" d="M152.3,123l8.3,8.3c0,0,4.3-2.5,4.3-3.1s-13.3-7.4-13.3-7.4L152.3,123z"/>
	</g>
	<g>
		<g>
			<polygon class="st10" points="160.8,122.7 160.9,121.9 158,120.8 134.7,119.2 134.4,121.8 157.8,123.4 			"/>
			<polygon class="st10" points="160.1,121.6 158,120.8 134.7,119.2 134.6,120.3 160.1,122 			"/>
			<polygon class="st10" points="160.8,122.7 160.9,121.9 158,120.8 157.8,123.4 157.8,123.4 			"/>
			<path class="st25" d="M160.8,122.6l0.1-0.7l1.8,0.1c0.2,0,0.3,0.2,0.3,0.4l0,0c0,0.2-0.2,0.3-0.4,0.3L160.8,122.6z"/>
			<path class="st10" d="M134.4,121.3l0.1-1.4l-2.6-0.2c-0.2,0-0.4,0.1-0.4,0.3v0.7c0,0.2,0.1,0.4,0.3,0.4L134.4,121.3z"/>
		</g>
		<path class="st10" d="M54.7,186.7c0,0-8-10.4-9.3-19.7c-2.1-16.3,27.4-24.6,27.7-9.1c0.1,8.7-5.9,24.2-6,24.3L54.7,186.7
			L54.7,186.7z M56.3,181.2l9-3.3c0.1,0,4.5-11.2,4.4-17.6c-0.2-11.2-21.6-5.2-20.1,6.6C50.5,173.7,56.3,181.2,56.3,181.2z"/>
		<path class="st26" d="M149,245.4c0,0-1.1,0.3-0.5,2.4c0.4,2.1-0.1,4,0.9,4.2c1.1,0.2,5.2,2.4,5.7-0.5c0.7-2.9-1.3-8.4-1.3-8.4
			L149,245.4z"/>
		<path class="st26" d="M151.3,239.6c0,0,18.7,5.3,18.9,6.4c0.1,1,0.8,1.2-0.8,2.1c-1.4,0.9-15.7,4.8-15.7,4.8
			S149.1,241.3,151.3,239.6z"/>
		<path class="st27" d="M64.5,261c-1.8,0.1-3.3-1.6-3.5-4s1.1-4.4,2.9-4.5c0.2,0,0.5,0,0.8,0.1l2.6-0.2l0.7,8.2l-2.9,0.2
			C64.8,261,64.7,261,64.5,261z"/>
		<path class="st27" d="M81.7,265.2c-1.8,0.1-3.3-1.6-3.5-4c-0.2-2.3,1.1-4.4,2.9-4.5c0.2,0,0.5,0,0.8,0.1l2.6-0.2l0.7,8.2l-2.9,0.2
			C82,265.1,81.8,265.1,81.7,265.2z"/>
		<path class="st27" d="M101.4,259.8c-1.8,0.1-3.3-1.6-3.5-4c-0.2-2.3,1.1-4.4,2.9-4.5c0.2,0,0.5,0,0.8,0.1l2.6-0.2l0.7,8.2
			l-2.9,0.2C101.8,259.8,101.6,259.8,101.4,259.8z"/>
		<path class="st28" d="M67.2,260.9c-1.8,0.1-3.3-1.6-3.5-4c-0.2-2.3,1.1-4.4,2.9-4.5c1.8-0.1,3.3,1.6,3.5,4
			C70.3,258.8,69,260.8,67.2,260.9z"/>
		<path class="st28" d="M84.3,265.1c-1.8,0.1-3.3-1.6-3.5-4c-0.2-2.3,1.1-4.4,2.9-4.5c1.8-0.1,3.3,1.6,3.5,4
			C87.4,263,86.1,265,84.3,265.1z"/>
		<path class="st28" d="M104.2,259.8c-1.8,0.1-3.3-1.6-3.5-4c-0.2-2.3,1.1-4.4,2.9-4.5c1.8-0.1,3.3,1.6,3.5,4
			C107.1,257.6,105.9,259.6,104.2,259.8z"/>
		<path class="st29" d="M98.3,167.2c3.2,8.2,17.9,16.1,25.2,25.2c13.2,16.3,29.5,42.8,30.3,50.7c0.3,4-5.4,4.8-5.4,4.8
			s-21.9-30.9-37.7-46.7c-9.1-9.2-24.6-15.3-25.3-16.7C56.7,134,96.2,161.8,98.3,167.2z"/>
		<path class="st10" d="M84.6,258.8c14.5,0,26.2-4.1,26.2-9.1c0-5-11.8-9.1-26.2-9.1s-26.2,4.1-26.2,9.1
			C58.4,254.7,70.2,258.8,84.6,258.8z"/>
		<path class="st30" d="M84.6,256c11.6,0,21.2-3.3,21.2-7.3c0-4.1-9.5-7.3-21.2-7.3s-21.2,3.3-21.2,7.3
			C63.5,252.8,72.9,256,84.6,256z"/>
		<path class="st28" d="M67.9,175.2l-20.5,6.6l53.9,16.9l17.5-8.8c0,0,1-4.3,1-5.5C119.9,183.1,70.9,175.2,67.9,175.2z"/>
		<path class="st10" d="M76,184.1h16.9v28.9c0,6.4-4.5,6.1-8.4,6.5c-4.5,0.4-8.3-1.5-8.3-8.7v-26.6H76z"/>
		<path class="st10" d="M80.2,214.1h8.6v33.9c0,0.6-2,1.2-4.3,1.2c-2.4,0-4.3-0.5-4.3-1.2V214.1z"/>
		<rect x="67.4" y="215.1" class="st10" width="13.3" height="3.1"/>
		<path class="st10" d="M65.8,213.5h-3.3c-1.6,0-3.1,1.3-3.1,2.8l0,0c0,1.5,1.4,2.8,3.1,2.8h3.3c1.6,0,3.1-1.3,3.1-2.8l0,0
			C68.9,214.9,67.5,213.5,65.8,213.5z"/>
		<path class="st28" d="M103.3,198.3l-0.5-4.4c-0.3-2.7-2.4-5.5-5.5-5.9l-46.7-6.8c-3-0.4-5.5,1.4-5.5,4.3v2.9
			c0,1.3,11.3,5.9,23.7,8.1C84.8,199.4,103.8,201.4,103.3,198.3z"/>
		<path class="st31" d="M89.5,160.1c7.6-0.1,37.1,1.7,37.7,14.1c1.3,24.4-13.7,56.6-16.4,68.7c-0.9,3.9-7.2-0.8-7.2-0.8
			s7.3-52.7,6.5-56.9c-0.9-4.3-30,0.4-30,0.4S81.6,174.9,89.5,160.1z"/>
		<path class="st31" d="M61.3,156.8c0,0-6.2,11.4-5,18.9c1.2,7.5,8.1,11.7,19.2,13.1c6.8,0.9,13.5,0.5,18.2-1.6
			c6.6-2.9,9.6-8.6,7.1-15.4l-4.4-11.8C96.3,160.2,72.3,157,61.3,156.8z"/>
		<path class="st32" d="M139.8,123.3c0,0,5.4-4.7,8.7-5.6c3.3-1,7.5,2.1,8,4.1c0.5,1.9-13.6,6.2-13.6,6.2L139.8,123.3z"/>
		<path class="st18" d="M98.8,107.5c0,0-5.9,28.4,1.6,36.9c7.6,8.6,18.6,3.8,23,1.4c3.8-2,17.2-13.3,20.9-16.4
			c1.8-1.5-3.7-8.1-5.4-6.5c-3.6,3.4-17.7,16.2-25.3,17.5c-8.8,1.5-6.8-12-6.5-20.8C107.5,110.7,103,100.2,98.8,107.5z"/>
		<path class="st18" d="M87,101l13.6,3.6c6.9,1.8,5.3,7.8,3.8,14.6l-10.1,46c-0.2,0.9-7.5,4.1-15.5,3.8
			c-10.2-0.5-21.5-5.3-20.2-11.5l9.2-42.3C70.1,105.3,80.2,99.1,87,101z"/>
		<path class="st32" d="M96.6,103.5l1.6-14.2l-6.9-1.4l-3.5,14C86.8,105.7,96.2,107.4,96.6,103.5z"/>
		<path class="st33" d="M100.1,101.4l2.2-8.5c-3.9-1.5-8.1-2.9-11.3-3.8l-1,3.9C93.1,95.6,97.1,98.9,100.1,101.4z"/>
		<path class="st32" d="M98.4,74.3l17.8,4.7l-5.7,18.7c-0.7,2.2-3.7,4.9-6.2,4.6l-2.3-0.3C85.1,99.9,95,86.4,98.4,74.3z"/>
		<path class="st34" d="M108.4,86.3c1-0.4,3.5-0.1,4.2,0.6c0.8,0.7,0.5,1,0.3,1c-0.2,0-0.8-0.5-1-0.5c-0.1,0-0.1,0.6-0.4,0.9
			c-0.3,0.4-1.1,0.5-1.8,0c-0.7-0.5-0.3-1.3-0.4-1.5c-0.1-0.1-0.4-0.1-0.8,0C108,86.8,108,86.3,108.4,86.3z"/>
		<path class="st32" d="M112.8,89.8l0.9,3.3c0.1,0.9-0.5,0.8-1.3,0.6l-0.7-0.2L112.8,89.8z"/>
		<path class="st35" d="M90,92.9c3.7,3.8,8.8,2,11.4,0.3c5-3.3,6.4-11,9.4-11.7c2.3-0.5,3.4,2.1,3.4,2.1s1.8,0.7,2.4-0.9
			c0.7-1.6,1-4.1-1.1-5.7c-3.2-2.4-14.5-12-19-8C96.6,69.1,78.6,74.2,90,92.9z"/>
		<path class="st35" d="M99,69c0-2.4,0-6.7-5.3-5.7c-5.2,1-4.9,5.4-1.5,7.3C95.5,72.5,94.2,73,99,69z"/>
		<path class="st28" d="M100.6,181l-2.9,3.4l4.6,7.3c0,0-0.7,7.6,0.4,7.2l19.3-7.8c0,0,0.2-6.4-1-6.9
			C119.9,183.6,100.6,181,100.6,181z"/>
		<path class="st10" d="M75.5,196.4l1.5-50.4l-9.1-2.8l-1.5,52.7C66.3,200.4,75.5,201.8,75.5,196.4z"/>
		<path class="st28" d="M53.6,124.2l40.2,6c16.7,2.4,10.3,28.4,0,26.8l-40.2-6.1C43.8,149.5,36.2,121.5,53.6,124.2z"/>
		<path class="st26" d="M104,239.7c0,0-1.1-0.4-2.1,1.5c-1,1.9-1,3.7-0.2,4.4c0.7,0.7,2.4,4.9,4.8,2.9s3.4-6.2,3.4-6.2l-3-0.4
			L104,239.7z"/>
		<path class="st26" d="M112.4,237.5c0,0,10.3,14.5,9.6,15.5c-0.7,0.9-0.2,1.4-2,1.2c-1.8-0.2-15.5-5.3-15.5-5.3
			S109.9,242.3,112.4,237.5z"/>
		<path class="st10" d="M104.5,198.4c0,0-8.1-10.4-9.3-19.7c-2.1-16.3,27.4-24.6,27.7-9.1c0.1,8.7-5.9,24.2-6,24.3L104.5,198.4
			L104.5,198.4z M106.1,192.8l9-3.3c0.1,0,4.5-11.2,4.4-17.6c-0.2-11.2-21.6-5.2-20.1,6.6C100.2,185.4,106.1,192.8,106.1,192.8z"/>
		<path class="st36" d="M93,70c-0.9,0.8-2.6,2.4,1.2,2.7c3.7,0.3,6.5-3.3,5.9-4.1c-0.5-0.8-1.1-0.5-1.1-0.5S94,73.3,93,70z"/>
	</g>
	<g>
		<path class="st34" d="M294.2,236.6l-1.8,0.4l0.4,1.4l1.8-0.4c0.4,0.4,0.9,0.5,1.4,0.4c0.8-0.2,1.3-1,1.2-1.7
			c-0.3-0.7-1-1.2-1.8-1.1C294.9,235.8,294.4,236.2,294.2,236.6z"/>
		<path class="st34" d="M286.3,190l-2.2,0.5l0.4,1.7l2.2-0.5c0.4,0.4,1,0.6,1.7,0.5c1-0.2,1.6-1.1,1.3-2s-1.2-1.4-2.2-1.2
			C287,189,286.5,189.4,286.3,190z"/>
		<path class="st34" d="M209.5,236.9l1.8,0.4l-0.4,1.4l-1.8-0.4c-0.4,0.4-0.9,0.5-1.4,0.4c-0.8-0.2-1.3-1-1.2-1.7
			c0.3-0.7,1-1.2,1.8-1.1C208.9,236,209.4,236.4,209.5,236.9z"/>
		<path class="st34" d="M216.9,190.3l2.2,0.5l-0.4,1.7l-2.2-0.5c-0.4,0.4-1,0.6-1.7,0.5c-1-0.2-1.6-1.1-1.3-2c0.3-1,1.2-1.4,2.2-1.2
			C216.3,189.3,216.8,189.8,216.9,190.3z"/>
		<polygon class="st34" points="226,179.8 249.6,172.6 278.7,179.8 278.2,183.6 249.8,176.2 225.5,183.6 		"/>
		<g>
			<rect x="248.6" y="223.2" class="st37" width="3.6" height="28.5"/>
			<path class="st38" d="M248.8,128.5h3.4c0.9,0,1.7,0.7,1.7,1.6v98c0,0.8-0.8,1.6-1.7,1.6h-3.4c-0.9,0-1.7-0.7-1.7-1.6v-98
				C247.1,129.3,247.9,128.5,248.8,128.5z"/>
			<path class="st38" d="M249.7,229.2h-0.3c-0.9,0-1.7-0.7-1.7-1.6v-59.7h1.9V229.2z"/>
			<path class="st39" d="M253,168.5v58.1c0,0.6-0.4,1.1-0.9,1.3h-2.2v-59.5H253z"/>
			<path class="st38" d="M248.1,99.5h5.1c1.4,0,2.5,1.1,2.5,2.3v79.4c0,1.3-1.2,2.3-2.5,2.3h-5.1c-1.4,0-2.5-1.1-2.5-2.3v-79.4
				C245.5,100.6,246.7,99.5,248.1,99.5z"/>
			<path class="st39" d="M251.9,99.5h1.2c1.4,0,2.5,1.1,2.5,2.3v79.4c0,1.3-1.2,2.3-2.5,2.3h-1.2V99.5z"/>
			<path class="st39" d="M248.9,183.3c-1.2-0.1-2.2-1.1-2.2-2.3v-77.8c0-1.2,0.9-2.2,2.2-2.3V183.3z"/>
			<path class="st37" d="M247.7,250.5h5.3c1.3,0,1.3,1.8,0,1.8h-5.3C246.6,252.3,246.6,250.5,247.7,250.5z"/>
		</g>
		<g>
			<polygon class="st37" points="288.1,235.3 291.6,234.6 298.3,262.4 294.8,263.1 			"/>
			<path class="st38" d="M266,143l3.2-0.7c0.9-0.2,1.8,0.4,2.1,1.2l23.1,95.6c0.3,0.8-0.4,1.7-1.3,1.9l-3.2,0.7
				c-0.9,0.2-1.8-0.4-2.1-1.2l-23.1-95.6C264.4,143.9,265.1,143.1,266,143z"/>
			<path class="st40" d="M290.3,240h-0.3c-0.9,0.2-1.8-0.4-2.1-1.2l-13.6-56.2l1.8-0.4L290.3,240z"/>
			<path class="st39" d="M279.6,181.1l13.7,56.7c0.1,0.6-0.1,1.1-0.5,1.4l-2.1,0.5l-14-58L279.6,181.1z"/>
			<path class="st38" d="M258.4,114.7l4.9-1c1.3-0.2,2.7,0.5,3,1.8l18.6,77.5c0.3,1.2-0.5,2.5-1.9,2.8l-4.9,1
				c-1.3,0.2-2.7-0.5-3-1.8l-18.5-77.5C256.2,116.2,257.1,115,258.4,114.7z"/>
			<path class="st39" d="M262.1,113.9l1-0.2c1.3-0.2,2.7,0.5,3,1.8l18.6,77.5c0.3,1.2-0.5,2.5-1.9,2.8l-1,0.2L262.1,113.9z"/>
			<path class="st40" d="M278.9,196.3c-1.2,0.1-2.3-0.6-2.6-1.8L258,118.6c-0.3-1.1,0.4-2.3,1.6-2.6L278.9,196.3z"/>
			<path class="st37" d="M293.7,262.1l5.2-1.1c1.2-0.2,1.7,1.4,0.4,1.7l-5.2,1.1C292.9,264,292.5,262.3,293.7,262.1z"/>
		</g>
		<g>
			<polygon class="st37" points="205.9,263.2 212,235.3 215.6,236 209.5,263.9 			"/>
			<path class="st38" d="M232.7,142.6l3.4,0.6c0.9,0.1,1.6,1,1.3,1.8l-21.1,96c-0.1,0.8-1,1.4-1.9,1.2l-3.4-0.6
				c-0.9-0.1-1.6-1-1.3-1.8l21.1-96C230.9,143,231.8,142.4,232.7,142.6z"/>
			<path class="st40" d="M211.9,241.4h-0.3c-0.9-0.1-1.6-1-1.3-1.8l12.8-58.4l1.8,0.4L211.9,241.4z"/>
			<path class="st39" d="M228.2,182.6l-12.6,56.9c-0.1,0.6-0.6,1-1.2,1.2l-2.1-0.4l12.8-58.3L228.2,182.6z"/>
			<path class="st38" d="M238.3,113.9l4.9,1c1.3,0.2,2.2,1.4,1.9,2.8l-17.1,77.7c-0.3,1.2-1.6,2-3,1.8l-4.9-1
				c-1.3-0.2-2.2-1.4-1.9-2.8l17.1-77.7C235.6,114.5,236.9,113.6,238.3,113.9z"/>
			<path class="st39" d="M242,114.6l1,0.2c1.3,0.2,2.2,1.4,1.9,2.8l-17.1,77.7c-0.3,1.2-1.6,2-3,1.8l-1-0.2L242,114.6z"/>
			<path class="st40" d="M220.9,196.2c-1.2-0.4-1.9-1.4-1.7-2.6l16.8-76.3c0.3-1.1,1.4-1.9,2.6-1.8L220.9,196.2z"/>
			<path class="st37" d="M205.4,261.7l5.2,1c1.2,0.2,0.9,1.9-0.4,1.7l-5.2-1C203.8,263.3,204.2,261.5,205.4,261.7z"/>
		</g>
		<path class="st34" d="M233.6,108.1h34.8c1.4,0,2.6,1.1,2.6,2.4v11.4c0,1.3-1.2,2.4-2.6,2.4h-34.8c-1.4,0-2.6-1.1-2.6-2.4v-11.4
			C230.9,109.2,232.1,108.1,233.6,108.1z"/>
		<path class="st34" d="M238.5,130.5l-12.2,53.8c-0.4,1.7-3.1,1.1-2.7-0.6l12.2-53.8C236.1,128.3,238.8,128.9,238.5,130.5z"/>
		<path class="st34" d="M264.4,129c-0.8,0.1-1.2,0.8-1,1.6l12.7,52.5c0.4,1.7,3.1,1.1,2.7-0.6L266.1,130
			C265.9,129.3,265.1,128.8,264.4,129z"/>
		<path class="st38" d="M217,158.8h67.9c0.3,0,0.5,0.1,0.5,0.4v2.9c0,0.2-0.3,0.4-0.5,0.4H217c-0.3,0-0.5-0.1-0.5-0.4v-2.9
			C216.5,159,216.8,158.8,217,158.8z"/>
		<path class="st40" d="M217,158.8h67.9c0.3,0,0.5,0.1,0.5,0.4v0.5h-68.9v-0.5C216.5,159,216.8,158.8,217,158.8z"/>
		<path class="st40" d="M229.3,162.2h45.5c0.9,0,1.6,0.7,1.6,1.4v6.8c0,0.8-0.8,1.4-1.6,1.4h-45.5c-0.9,0-1.6-0.7-1.6-1.4v-6.8
			C227.8,162.8,228.4,162.2,229.3,162.2z"/>
		<path class="st38" d="M229.3,162.2h45.5c0.9,0,1.6,0.7,1.6,1.4v6l-48.6-6.5C228.1,162.5,228.6,162.2,229.3,162.2z"/>
		<path class="st34" d="M250.8,169c1.3,0,2.3-1,2.3-2.2c0-1.2-1-2.2-2.3-2.2c-1.3,0-2.3,1-2.3,2.2C248.5,167.9,249.6,169,250.8,169z
			"/>
	</g>
	<g>
		<path class="st34" d="M225.5,261.9l-8.3-52.2c0-0.3-0.3-0.5-0.8-0.5l-11.4,1.5c-0.3,0-0.5,0.3-0.5,0.7l8.3,52.2
			c0,0.3,0.3,0.5,0.8,0.5l11.4-1.5C225.2,262.5,225.5,262.2,225.5,261.9z"/>
		<path class="st35" d="M206.9,222.3l6.4,39.9c0,0.3,0.3,0.5,0.7,0.5l4.3-0.6l-6.5-40.4L206.9,222.3z"/>
		<path class="st34" d="M220.3,219.8l-7.2-45.3c-0.1-0.4-0.4-0.7-0.9-0.6l-14,1.9c-0.4,0.1-0.8,0.4-0.7,0.8l7.2,45.3
			c0.1,0.4,0.4,0.7,0.9,0.6l14-1.9C220.1,220.6,220.4,220.2,220.3,219.8z"/>
		<path class="st35" d="M205.3,175.8l-5.7,0.8c-0.4,0.1-0.7,0.4-0.7,0.8l7,43.6c0.1,0.4,0.4,0.6,0.9,0.6l5.7-0.8L205.3,175.8z"/>
		<path class="st41" d="M213.5,177l0.5,3.6l2.6-0.4c1.1-0.1,1.8-1.1,1.6-2c-0.1-1-1.2-1.6-2.2-1.5L213.5,177L213.5,177z
			 M214.8,177.8L214.8,177.8l1.3-0.2c0.5-0.1,1.1,0.3,1.1,0.8c0.1,0.5-0.3,1-0.9,1l-1.3,0.2L214.8,177.8z"/>
		<path class="st41" d="M224.6,256.4l0.5,3.6l2.6-0.4c1.1-0.1,1.8-1.1,1.6-2c-0.1-1-1.2-1.6-2.2-1.5L224.6,256.4L224.6,256.4z
			 M225.8,257.1L225.8,257.1l1.3-0.2c0.5-0.1,1.1,0.3,1.1,0.8c0.1,0.5-0.3,1-0.9,1L226,259L225.8,257.1z"/>
		<polygon class="st35" points="206.9,222.4 218.8,220.7 219,222 207.1,223.7 		"/>
		<path class="st42" d="M211.8,177.4l6.4,39.7c0.1,0.6-0.3,1.2-1.1,1.3c-0.7,0.1-1.3-0.3-1.4-1l-6.4-39.7c-0.1-0.6,0.3-1.2,1.1-1.3
			C211,176.3,211.6,176.8,211.8,177.4z"/>
		<path class="st42" d="M218.1,224.4l5.5,34.2c0.1,0.6-0.3,1.2-1.1,1.3c-0.7,0.1-1.3-0.3-1.4-1l-5.5-34.2c-0.1-0.6,0.3-1.2,1.1-1.3
			C217.3,223.3,218,223.8,218.1,224.4z"/>
		<path class="st43" d="M216.1,177.5c0,0,3.4,1,5.5,2.8c1.3,1.1,2.6,2.6,3.8,4.7c1,1.5,1.8,3.5,2.3,5.6c1.4,5.7,0.3,12.2-0.8,18.2
			c-0.7,3.7-1.3,7.2-1.2,10.1c0.1,5.7,2,12.2,3.7,18.4c1.1,4,2.2,7.7,2.6,11c0.9,5.8,0.1,10-4.8,10.7l-0.3-2c3.3-0.4,3.7-3.8,3-8.3
			c-0.5-3.2-1.5-6.9-2.6-10.8c-1.8-6.2-3.6-12.9-3.7-18.8c-0.1-3.1,0.5-6.6,1.2-10.4c1-5.8,2.2-12.1,0.8-17.4
			c-0.5-2-1.3-3.7-2.1-5.1c-1.1-1.8-2.3-3.2-3.5-4.2c-1.8-1.5-4.6-2.4-4.6-2.4L216.1,177.5z"/>
	</g>
	<rect x="196.4" y="30.4" class="st44" width="84.7" height="63.1"/>
	<g>
		<path class="st34" d="M231.4,30.6h45.2c0.3,0,0.7,0.2,0.7,0.4v15.4c0,0.2-0.3,0.4-0.7,0.4h-45.2c-0.3,0-0.7-0.2-0.7-0.4V31
			C230.7,30.8,231,30.6,231.4,30.6z"/>
		<path class="st45" d="M232.9,31.2h42.2c0.3,0,0.5,0.2,0.5,0.4V46c0,0.2-0.2,0.4-0.5,0.4h-42.2c-0.3,0-0.5-0.2-0.5-0.4V31.6
			C232.2,31.4,232.6,31.2,232.9,31.2z"/>
		<path class="st46" d="M254.3,31.2h20.8c0.3,0,0.5,0.2,0.5,0.4V46c0,0.2-0.2,0.4-0.5,0.4h-20.8V31.2z"/>
		<path class="st9" d="M230.7,37.5h-8.1l-1.3,1.1l1.3,1.3h8.1V37.5L230.7,37.5z M228.1,38.1L228.1,38.1c0.7,0,1.1,0.3,1.1,0.7
			s-0.5,0.7-1.1,0.7c-0.7,0-1.1-0.3-1.1-0.7S227.4,38.1,228.1,38.1L228.1,38.1z M224.7,38L224.7,38c0.7,0,1.1,0.3,1.1,0.7
			s-0.5,0.7-1.1,0.7c-0.7,0-1.1-0.3-1.1-0.7S224,38,224.7,38z"/>
		<g>
			<polygon class="st47" points="233.9,34 234.5,32.1 235.2,34 235.2,45.5 234.9,45.6 234.2,45.6 233.9,45.5 			"/>
			<polygon class="st48" points="233.9,34 234,33.7 234.2,33.7 234.2,45.3 233.9,45.3 			"/>
			<polygon class="st49" points="235.1,33.6 235.2,34 235.2,45.3 234.8,45.3 234.8,33.6 			"/>
			<polygon class="st10" points="235.2,43.4 235.2,45.5 234.9,45.6 234.2,45.6 233.9,45.5 233.9,43.4 234.3,43.6 234.8,43.6 			"/>
			<path class="st50" d="M233.9,34l0.7-1.8l0.7,1.8c-0.2,0-0.4,0-0.7,0S234.1,34,233.9,34z"/>
			<path class="st10" d="M234.3,32.7l0.2-0.6l0.2,0.6c-0.1,0-0.1,0-0.2,0C234.5,32.7,234.4,32.7,234.3,32.7z"/>
		</g>
		<g>
			<polygon class="st47" points="237.1,37.1 237.8,35.2 238.4,37.1 238.4,43.6 237.1,43.6 			"/>
			<polygon class="st48" points="237.1,37.1 237.3,36.7 237.5,36.7 237.5,43.6 237.1,43.6 			"/>
			<polygon class="st49" points="238.3,36.7 238.4,37.1 238.4,43.6 237.9,43.6 237.9,36.7 			"/>
			<path class="st50" d="M237.1,37l0.8-1.8l0.7,1.8c-0.2,0-0.4,0-0.7,0C237.5,37.1,237.3,37.1,237.1,37z"/>
			<path class="st10" d="M237.6,35.8l0.2-0.6l0.2,0.6c-0.1,0-0.1,0-0.2,0C237.7,35.8,237.6,35.8,237.6,35.8z"/>
		</g>
		<polygon class="st10" points="238.4,43.4 238.4,45.5 238,45.6 237.4,45.6 237.1,45.5 237.1,43.4 237.5,43.5 237.9,43.5 		"/>
		<g>
			<polygon class="st47" points="240.3,37 241,35.1 241.7,37 241.7,43.6 240.3,43.6 			"/>
			<polygon class="st48" points="240.3,37 240.5,36.6 240.7,36.6 240.7,43.6 240.3,43.6 			"/>
			<polygon class="st49" points="241.6,36.6 241.7,37 241.7,43.6 241.2,43.6 241.2,36.6 			"/>
			<path class="st50" d="M240.3,37l0.7-1.8l0.7,1.8c-0.2,0-0.4,0-0.7,0C240.8,37,240.6,37,240.3,37z"/>
			<path class="st10" d="M240.8,35.7l0.2-0.6l0.2,0.6c-0.1,0-0.1,0-0.2,0C241,35.7,240.9,35.7,240.8,35.7z"/>
		</g>
		<polygon class="st10" points="241.7,42.2 241.7,44.2 241.2,44.3 240.7,44.3 240.3,44.2 240.3,42.2 240.8,42.4 241.2,42.4 		"/>
		<path class="st34" d="M233.2,38.3h2.5c0.1,0,0.3,0.1,0.3,0.2v0.4c0,0.1-0.1,0.2-0.3,0.2h-2.5c-0.1,0-0.3-0.1-0.3-0.2v-0.4
			C232.9,38.4,233.1,38.3,233.2,38.3z"/>
		<path class="st34" d="M236.5,38.3h2.5c0.1,0,0.3,0.1,0.3,0.2v0.4c0,0.1-0.1,0.2-0.3,0.2h-2.5c-0.1,0-0.3-0.1-0.3-0.2v-0.4
			C236.3,38.4,236.4,38.3,236.5,38.3z"/>
		<path class="st34" d="M239.9,38.3h2.5c0.1,0,0.3,0.1,0.3,0.2v0.4c0,0.1-0.1,0.2-0.3,0.2h-2.5c-0.1,0-0.3-0.1-0.3-0.2v-0.4
			C239.6,38.4,239.7,38.3,239.9,38.3z"/>
		<path class="st51" d="M248,43h4.7c0.4,0,0.8,0.2,0.8,0.5v1c0,0.3-0.3,0.5-0.8,0.5H248c-0.4,0-0.8-0.2-0.8-0.5v-1
			C247.3,43.2,247.6,43,248,43z"/>
		<path class="st52" d="M248.2,43.1h4.4c0.4,0,0.8,0.2,0.8,0.5v1c0,0.3-0.3,0.5-0.8,0.5h-4.4c-0.4,0-0.8-0.2-0.8-0.5v-1
			C247.5,43.3,247.8,43.1,248.2,43.1z"/>
		<path class="st34" d="M249.9,45.8v-3.1c0-0.1,0.1-0.2,0.2-0.2h0.5c0.1,0,0.2,0.1,0.2,0.2v3.1c0,0.1-0.1,0.2-0.2,0.2h-0.5
			C250,45.9,249.9,45.9,249.9,45.8z"/>
		<polygon class="st53" points="244.5,33.1 245.1,33.1 245.7,34.5 245.7,44.5 243.9,44.5 243.9,34.4 		"/>
		<polygon class="st54" points="245.3,33.5 245.7,34.5 245.7,44.5 245,44.5 245,33.5 		"/>
		<polygon class="st55" points="244.5,33.1 245.1,33.1 245.7,34.4 243.9,34.4 243.9,34.4 		"/>
		<path class="st10" d="M244.5,33.1h0.5v-0.7c0-0.1-0.1-0.2-0.2-0.2l0,0c-0.1,0-0.2,0.1-0.2,0.2v0.7H244.5z"/>
		<path class="st10" d="M244.3,44.5h1v1.1c0,0.1-0.1,0.2-0.2,0.2h-0.5c-0.1,0-0.2-0.1-0.2-0.2V44.5z"/>
		<path class="st34" d="M243.6,35.7h2.5c0.1,0,0.3,0.1,0.3,0.2v0.3c0,0.1-0.1,0.2-0.3,0.2h-2.5c-0.1,0-0.3-0.1-0.3-0.2v-0.4
			C243.3,35.8,243.4,35.7,243.6,35.7z"/>
		<path class="st34" d="M243.7,42.7h2.5c0.1,0,0.3,0.1,0.3,0.2v0.4c0,0.1-0.1,0.2-0.3,0.2h-2.5c-0.1,0-0.3-0.1-0.3-0.2v-0.4
			C243.4,42.7,243.5,42.7,243.7,42.7z"/>
		<path class="st56" d="M247.9,37h4.8c0.3,0,0.5,0.2,0.5,0.4v3.1c0,0.2-0.2,0.4-0.5,0.4h-4.8c-0.3,0-0.5-0.2-0.5-0.4v-3.1
			C247.4,37.1,247.6,37,247.9,37z"/>
		<path class="st57" d="M248.9,37h3.8c0.3,0,0.5,0.2,0.5,0.4v3.1c0,0.2-0.2,0.4-0.5,0.4h-3.8V37z"/>
		<path class="st10" d="M247.4,40.2V39h0.1c0.5,0,0.9,0.2,0.9,0.5C248.4,39.9,248,40.2,247.4,40.2C247.5,40.2,247.4,40.2,247.4,40.2
			z"/>
		<path class="st10" d="M247.4,38.4v-0.8h0.1c0.3,0,0.7,0.2,0.7,0.4C248.1,38.2,247.8,38.4,247.4,38.4
			C247.5,38.4,247.4,38.4,247.4,38.4z"/>
		<path class="st34" d="M249.8,41.2v-4.6c0-0.1,0.1-0.2,0.2-0.2h0.5c0.1,0,0.2,0.1,0.2,0.2v4.6c0,0.1-0.1,0.2-0.2,0.2H250
			C249.9,41.4,249.8,41.3,249.8,41.2z"/>
		<path class="st10" d="M255.8,32.7h0.3v-0.2c0-0.1-0.1-0.2-0.1-0.2c-0.1-0.1,0-0.1-0.1,0c0,0.1-0.1,0.1-0.1,0.2
			C255.8,32.5,255.8,32.7,255.8,32.7z"/>
		<polygon class="st10" points="255.7,32.7 256.1,32.7 256.7,34 256.7,43.7 255.3,43.7 255.3,34 		"/>
		<polygon class="st41" points="255.7,32.7 256.1,32.7 256.6,34.1 255.3,34.1 255.3,34.1 		"/>
		<path class="st58" d="M255.3,43.1h1.4c0.1,0,0.2,0,0.2,0.1V45c0,0-0.1,0.1-0.2,0.1h-1.4c-0.1,0-0.2,0-0.2-0.1v-1.8
			C255,43.2,255.1,43.1,255.3,43.1z"/>
		<path class="st41" d="M256.2,44v-4.4c0-0.3-0.7-0.3-0.7,0V44C255.6,44.3,256.2,44.3,256.2,44z"/>
		<polygon class="st10" points="258.9,34 259.3,34 259.8,35.2 258.4,35.3 258.4,35.3 		"/>
		<path class="st41" d="M259,34.1c0,0-0.3-0.2-0.4-0.4c-0.1-0.2,0.4-1.3,0.4-1.3s0.5,0.7,0.5,1c0.1,0.3-0.4,0.6-0.4,0.6L259,34.1z"
			/>
		<path class="st53" d="M258.9,34h0.4l0.4,1.2l-0.7,9.8l0,0c0,0-0.1,0-0.2,0c-0.1,0-0.1,0-0.2,0h0l-0.3-9.8L258.9,34z"/>
		<polygon class="st10" points="262.3,33.7 262.7,33.7 263.2,35 262.5,35 261.7,35 261.7,35 		"/>
		<path class="st41" d="M262.3,33.7c0,0-0.1-0.2-0.1-0.4c-0.1-0.3-0.2-0.6-0.2-0.7c0-0.2,1-0.4,1.1,0c0.1,0.3-0.2,1.1-0.2,1.1
			L262.3,33.7z"/>
		<path class="st59" d="M262.3,33.7h0.4l0.5,1.2l-0.3,4.5l-0.3,5.4l0,0c0,0-0.1,0-0.2,0c-0.1,0-0.1,0-0.2,0h-0.1l-0.3-10L262.3,33.7
			z"/>
		<rect x="265.5" y="32.5" class="st60" width="9.4" height="12.7"/>
		<path class="st61" d="M265.5,32.5v12.7h0.3c2.7-0.8,4.7-3.4,4.7-6.3C270.5,35.9,268.3,33.4,265.5,32.5L265.5,32.5z"/>
		<path class="st34" d="M268.5,38.6c0,0.3,0.3,0.5,0.8,0.5c0.4,0,0.8-0.2,0.8-0.5c0-0.3-0.3-0.5-0.8-0.5
			C268.9,38.1,268.5,38.3,268.5,38.6z"/>
		<path class="st34" d="M257.6,38.3H255c-0.1,0-0.3,0.1-0.3,0.2v0.4c0,0.1,0.1,0.2,0.3,0.2h2.5c0.1,0,0.3-0.1,0.3-0.2v-0.4
			C257.8,38.4,257.7,38.3,257.6,38.3z"/>
		<path class="st34" d="M260.4,41h-2.5c-0.1,0-0.3,0.1-0.3,0.2v0.4c0,0.1,0.1,0.2,0.3,0.2h2.5c0.1,0,0.3-0.1,0.3-0.2v-0.4
			C260.6,41.1,260.5,41,260.4,41z"/>
		<path class="st34" d="M263.4,37.3h-2.5c-0.1,0-0.3,0.1-0.3,0.2v0.4c0,0.1,0.1,0.2,0.3,0.2h2.5c0.1,0,0.3-0.1,0.3-0.2v-0.4
			C263.7,37.3,263.6,37.3,263.4,37.3z"/>
	</g>
	<g>
		<g>
			<polygon class="st62" points="241.6,11.8 244.1,2.7 259.8,4.5 257.2,13.5 			"/>
			<polygon class="st63" points="241.9,7 253,1.3 262.9,9.4 251.9,15 			"/>
			<path class="st64" d="M242,5.3h18.4c1.3,0,2.3,0.7,2.3,1.5v19.1c0,0.8-1,1.5-2.3,1.5H242c-1.3,0-2.3-0.7-2.3-1.5V6.8
				C239.7,6,240.7,5.3,242,5.3z"/>
			<path class="st65" d="M262.4,6c0.2,0.2,0.3,0.5,0.3,0.8v19.1c0,0.8-1,1.5-2.3,1.5H242c-1.3,0-2.3-0.7-2.3-1.5v-0.1
				C245.7,20.5,256.8,11.1,262.4,6z"/>
			<path class="st66" d="M256.1,4.8c1,0,1.8,0.5,1.8,1.1v20.6c0,0.6-0.8,1.1-1.8,1.1c-1,0-1.8-0.5-1.8-1.1V5.9
				C254.4,5.3,255.1,4.8,256.1,4.8z"/>
		</g>
		<rect x="229.9" y="16.3" class="st67" width="11" height="10.7"/>
		<path class="st68" d="M232.9,12.6h4.9c0.8,0,1.4,0.4,1.4,0.9v1.8c0,0.5-0.7,0.9-1.4,0.9h-4.9c-0.8,0-1.4-0.4-1.4-0.9v-1.8
			C231.5,13,232.1,12.6,232.9,12.6z"/>
	</g>
	<g>
		<path class="st69" d="M218.5,25.6l-0.9-18.5h2.2l-0.7,18.5l0,0c0,0.1-0.1,0.2-0.3,0.2C218.6,25.8,218.5,25.7,218.5,25.6
			L218.5,25.6z"/>
		<polygon class="st67" points="217.7,7.1 218.4,2.4 219.1,2.4 220,7.1 		"/>
		<path class="st66" d="M217.9,1.5c0.4-1.3,0.8-1.3,0.9-1.5c0,0,0.7,0.9,0.9,1.5C220.2,2.8,217.5,2.8,217.9,1.5z"/>
		<polygon class="st70" points="216.8,21 218.2,23.7 218.6,20.9 216.3,4.8 215.8,4.6 214.9,4.7 214.5,4.9 		"/>
		<polygon class="st71" points="216.8,21 217.1,21.6 217.4,21.6 215,5.1 214.5,5.1 		"/>
		<polygon class="st72" points="218.5,21.6 218.6,20.9 216.3,5.1 215.8,5.1 218.2,21.6 		"/>
		<polygon class="st66" points="216.8,7.6 216.3,4.8 215.8,4.6 214.9,4.7 214.5,4.9 214.9,7.7 215.5,7.5 216.1,7.4 		"/>
		<path class="st73" d="M216.9,21.2l1.3,2.5l0.4-2.7c-0.3,0-0.7,0-1,0C217.4,21,217.1,21,216.9,21.2z"/>
		<path class="st66" d="M217.8,22.9l0.4,0.8l0.1-0.9c-0.1,0-0.2,0-0.2,0C218,22.9,217.9,22.9,217.8,22.9z"/>
		<path class="st66" d="M219.5,24.9h0.4v0.2c0,0.1-0.1,0.2-0.2,0.3c-0.1,0.2,0,0.2-0.1,0c0-0.1-0.1-0.2-0.1-0.3
			C219.5,25.1,219.5,24.9,219.5,24.9z"/>
		<polygon class="st66" points="219.4,24.8 220,24.9 220.9,23.2 222.6,9.4 220.6,9.3 218.9,23.1 		"/>
		<polygon class="st74" points="219.4,24.8 220,24.9 220.8,23.2 219,23.1 		"/>
		<path class="st75" d="M220.5,10.2l2.1,0.1c0.1,0,0.2,0,0.2-0.1l0.3-2.5c0-0.1-0.1-0.1-0.2-0.1l-2.1-0.1c-0.1,0-0.2,0-0.2,0.1
			l-0.3,2.5C220.3,10.1,220.4,10.2,220.5,10.2z"/>
		<path class="st74" d="M222,8.9l-0.8,6.2c0,0.4-0.9,0.3-0.9,0l0.8-6.2C221.2,8.5,222,8.5,222,8.9z"/>
		<polygon class="st76" points="223.6,17.3 222.3,27.3 215.4,27.3 214,17.3 212.5,17.3 212.5,15.7 225,15.7 225,17.3 		"/>
		<polygon class="st77" points="223.6,17.3 222.3,27.3 215.4,27.3 214,17.3 		"/>
	</g>
	<rect x="190.7" y="26.9" class="st9" width="94.5" height="3.5"/>
	<rect x="190.7" y="26.9" class="st9" width="5.9" height="70.3"/>
	<rect x="278.8" y="27" class="st9" width="5.9" height="70.3"/>
	<rect x="190.7" y="93.6" class="st9" width="94.2" height="3.8"/>
	<rect x="190.8" y="46.8" class="st9" width="94.2" height="3.8"/>
	<g>
		<path class="st45" d="M269.9,63.9L269.7,93c0,0.4-0.4,0.8-0.9,0.8l-45.7-0.1c-0.4,0-0.9-0.3-0.9-0.8l0.2-29.2
			c0-0.4,0.4-0.8,0.9-0.8l45.7,0.1C269.5,63.1,269.9,63.5,269.9,63.9z"/>
		<path class="st41" d="M249.4,63v-0.7c0-0.1-0.2-0.3-0.4-0.3h-5.7c-0.2,0-0.4,0.1-0.4,0.2v0.7L249.4,63z"/>
		<path class="st41" d="M249.2,93.8v0.7c0,0.1-0.2,0.2-0.4,0.2h-5.7c-0.2,0-0.4-0.1-0.4-0.3v-0.7L249.2,93.8z"/>
		<path class="st34" d="M267.4,65.5V76c0,0.4-0.3,0.7-0.8,0.7l-41-0.1c-0.4,0-0.8-0.3-0.8-0.7l0.1-10.4c0-0.4,0.3-0.7,0.8-0.7
			l41,0.1C267.1,64.9,267.4,65.2,267.4,65.5z"/>
		<path class="st34" d="M267.4,81l-0.1,10.4c0,0.4-0.3,0.7-0.8,0.7l-41-0.1c-0.4,0-0.8-0.3-0.8-0.7l-0.1-10.4c0-0.4,0.3-0.7,0.8-0.7
			l41.1,0.1C267,80.3,267.4,80.6,267.4,81z"/>
		<polygon class="st78" points="222.4,78.1 222.4,78.5 269.8,78.6 269.8,78.2 		"/>
		<g>
			<path class="st79" d="M264.1,67.2v8c0,0.2-0.3,0.4-0.7,0.4h-1.3c-0.3,0-0.7-0.2-0.7-0.4v-8l1.4-1.8L264.1,67.2z"/>
			<polygon class="st80" points="264.1,67.2 264.1,67.3 261.5,67.3 261.5,67.2 262.9,65.4 			"/>
			<polygon class="st0" points="261.5,69.7 261.5,73.6 264.1,73.6 264.1,69.7 			"/>
		</g>
		<g>
			<path class="st81" d="M258.8,67.2v8c0,0.2-0.3,0.4-0.7,0.4h-1.3c-0.3,0-0.7-0.2-0.7-0.4v-8l1.4-1.8L258.8,67.2z"/>
			<polygon class="st82" points="258.8,67.2 258.8,67.3 256.1,67.3 256.1,67.2 257.6,65.4 			"/>
			<polygon class="st0" points="256.1,69.6 256.1,73.6 258.8,73.6 258.8,69.7 			"/>
		</g>
		<g>
			<path class="st83" d="M253.3,67.2v8c0,0.2-0.3,0.4-0.7,0.4h-1.3c-0.3,0-0.7-0.2-0.7-0.4v-8l1.4-1.8L253.3,67.2z"/>
			<polygon class="st84" points="253.3,67.2 253.3,67.2 250.7,67.2 250.7,67.2 252.1,65.4 			"/>
			<polygon class="st0" points="250.7,69.6 250.7,73.6 253.3,73.6 253.3,69.6 			"/>
		</g>
		<g>
			<path class="st85" d="M247.8,67.2v8c0,0.2-0.3,0.4-0.7,0.4h-1.3c-0.3,0-0.7-0.2-0.7-0.4v-8l1.4-1.8L247.8,67.2z"/>
			<polygon class="st86" points="247.8,67.2 247.8,67.2 245.2,67.2 245.2,67.2 246.6,65.3 			"/>
			<polygon class="st0" points="245.2,69.6 245.1,73.5 247.8,73.5 247.8,69.6 			"/>
		</g>
		<g>
			<path class="st47" d="M242.3,67.2v8c0,0.2-0.3,0.4-0.7,0.4h-1.3c-0.3,0-0.7-0.2-0.7-0.4v-8l1.4-1.8L242.3,67.2z"/>
			<polygon class="st87" points="242.3,67.2 242.3,67.2 239.7,67.2 239.7,67.2 241.1,65.3 			"/>
			<polygon class="st0" points="239.7,69.6 239.6,73.5 242.2,73.5 242.3,69.6 			"/>
		</g>
		<g>
			<path class="st59" d="M236.8,67.1v8c0,0.2-0.3,0.4-0.7,0.4h-1.3c-0.3,0-0.7-0.2-0.7-0.4v-8l1.4-1.8L236.8,67.1z"/>
			<polygon class="st88" points="236.8,67.1 236.8,67.1 234.2,67.1 234.2,67 235.6,65.2 			"/>
			<polygon class="st0" points="234.1,69.5 234.1,73.4 236.7,73.4 236.8,69.5 			"/>
			<g>
				<path class="st89" d="M231.4,67.1v8c0,0.2-0.3,0.4-0.7,0.4h-1.3c-0.3,0-0.7-0.2-0.7-0.4v-8l1.4-1.8L231.4,67.1z"/>
				<polygon class="st90" points="231.4,67.1 231.4,67.2 228.6,67.2 228.6,67.1 230.2,65.3 				"/>
				<polygon class="st0" points="228.6,69.6 228.6,73.5 231.3,73.5 231.3,69.6 				"/>
			</g>
		</g>
		<g>
			<path class="st91" d="M264,89.8v-8c0-0.2-0.3-0.4-0.7-0.4h-1.3c-0.3,0-0.7,0.2-0.7,0.4v8l1.4,1.8L264,89.8z"/>
			<polygon class="st92" points="264,89.8 264,89.7 261.4,89.7 261.4,89.8 262.8,91.6 			"/>
			<polygon class="st0" points="261.5,83.4 261.4,87.3 264,87.3 264.1,83.4 			"/>
		</g>
		<g>
			<path class="st53" d="M258.7,89.8v-8c0-0.2-0.3-0.4-0.7-0.4h-1.3c-0.3,0-0.7,0.2-0.7,0.4v8l1.4,1.8L258.7,89.8z"/>
			<polygon class="st93" points="258.7,89.8 258.7,89.7 256,89.7 256,89.8 257.5,91.6 			"/>
			<polygon class="st0" points="256.1,83.4 256,87.3 258.7,87.3 258.8,83.4 			"/>
		</g>
		<g>
			<path class="st94" d="M253.2,89.7v-8c0-0.2-0.3-0.4-0.7-0.4h-1.3c-0.3,0-0.7,0.2-0.7,0.4v8l1.4,1.8L253.2,89.7z"/>
			<polygon class="st95" points="253.2,89.7 253.2,89.7 250.5,89.7 250.5,89.7 252,91.6 			"/>
			<polygon class="st0" points="250.5,83.4 250.5,87.3 253.2,87.3 253.3,83.4 			"/>
		</g>
		<g>
			<path class="st14" d="M247.7,89.7v-8c0-0.2-0.3-0.4-0.7-0.4h-1.3c-0.3,0-0.7,0.2-0.7,0.4v8l1.4,1.8L247.7,89.7z"/>
			<polygon class="st96" points="247.7,89.7 247.7,89.7 245.1,89.7 245.1,89.7 246.5,91.6 			"/>
			<polygon class="st0" points="245.1,83.4 245.1,87.3 247.7,87.3 247.7,83.4 			"/>
		</g>
		<g>
			<path class="st97" d="M242.2,89.7v-8c0-0.2-0.3-0.4-0.7-0.4h-1.3c-0.3,0-0.7,0.2-0.7,0.4v8l1.4,1.8L242.2,89.7z"/>
			<polygon class="st98" points="242.2,89.7 242.2,89.7 239.6,89.7 239.6,89.7 241,91.6 			"/>
			<polygon class="st0" points="239.6,83.3 239.6,87.3 242.2,87.3 242.2,83.4 			"/>
		</g>
		<g>
			<path class="st99" d="M236.7,89.7v-8c0-0.2-0.3-0.4-0.7-0.4h-1.3c-0.3,0-0.7,0.2-0.7,0.4v8l1.4,1.8L236.7,89.7z"/>
			<polygon class="st100" points="236.7,89.7 236.7,89.7 234.1,89.6 234.1,89.7 235.5,91.5 			"/>
			<polygon class="st0" points="234.1,83.3 234.1,87.3 236.7,87.3 236.7,83.3 			"/>
		</g>
		<g>
			<path class="st101" d="M231.3,89.7v-8c0-0.2-0.3-0.4-0.7-0.4h-1.3c-0.3,0-0.7,0.2-0.7,0.4v8l1.4,1.8L231.3,89.7z"/>
			<polygon class="st102" points="231.3,89.7 231.3,89.6 228.6,89.6 228.6,89.7 229.9,91.5 			"/>
			<polygon class="st0" points="228.6,83.3 228.6,87.2 231.3,87.2 231.3,83.3 			"/>
		</g>
	</g>
	<g>
		<polygon class="st103" points="200.8,177.9 188.1,178.1 183.8,262.6 203.6,261.9 		"/>
		<path class="st63" d="M203.6,261.9c-0.2-2.3,1.9-74.2,2.3-87c0.1-3.5-10.5-3.2-10.9,0.3c-1.4,13.5-4.7,81-6.2,87.3
			C188.2,265.5,202,264.8,203.6,261.9z"/>
	</g>
	<g>
		<rect x="263.2" y="24.2" class="st11" width="1.9" height="1.3"/>
		<path class="st11" d="M267.9,24.8c0,1.3-0.9,2.4-2,2.4s-2-1.1-2-2.4s0.9-2.4,2-2.4C267,22.5,267.9,23.5,267.9,24.8z"/>
		<rect x="265.9" y="22.5" class="st16" width="15.9" height="4.9"/>
		<rect x="266.4" y="23.2" class="st11" width="15.1" height="0.7"/>
		<rect x="266.3" y="25.8" class="st10" width="15.1" height="0.7"/>
		<path class="st16" d="M279.8,22.1v5.5c0,0.1,0.1,0.2,0.3,0.2h1.6c0.2,0,0.3-0.1,0.3-0.2v-5.5c0-0.1-0.1-0.2-0.3-0.2h-1.6
			C280,21.9,279.8,22,279.8,22.1z"/>
		<path class="st10" d="M281.4,27.9h0.5c0.2,0,0.3-0.1,0.3-0.2v-5.5c0-0.1-0.1-0.2-0.3-0.2h-0.5V27.9z"/>
		<path class="st11" d="M279.8,22.1v5.5c0,0.1,0.1,0.2,0.3,0.2h0.4v-5.9h-0.4C280,21.9,279.8,22,279.8,22.1z"/>
		<rect x="270.2" y="22.5" class="st104" width="7.5" height="4.9"/>
		<rect x="270.2" y="23.2" class="st105" width="7.5" height="0.7"/>
		<rect x="270.2" y="25.8" class="st106" width="7.5" height="0.7"/>
		<path class="st104" d="M263,25.8l-3.7-0.5l0,0c-0.1,0-0.1-0.2-0.1-0.5c0-0.2,0-0.4,0.1-0.5l0,0l3.7-0.6h0.1c0.2,0,0.4,0.5,0.4,1.1
			S263.4,25.9,263,25.8C263,25.9,263,25.9,263,25.8z"/>
	</g>
</g>
</svg>
