<?xml version="1.0" encoding="utf-8"?>
<!-- Generator: Adobe Illustrator 25.1.0, SVG Export Plug-In . SVG Version: 6.00 Build 0)  -->
<svg version="1.1" id="OBJECTS" xmlns="http://www.w3.org/2000/svg" xmlns:xlink="http://www.w3.org/1999/xlink" x="0px" y="0px"
	 viewBox="0 0 300 265" style="enable-background:new 0 0 300 265;" xml:space="preserve">
<style type="text/css">
	.st0{fill:#4A1E13;}
	.st1{fill:#FFD5B3;}
	.st2{fill:#E5B59A;}
	.st3{fill:#1D1D1B;stroke:#1D1D1B;stroke-width:0.605;stroke-miterlimit:10;}
	.st4{fill:#D1A188;}
	.st5{fill:#F27089;stroke:#F27089;stroke-width:0.605;stroke-miterlimit:10;}
	.st6{fill:#FFBE4A;}
	.st7{fill:#F2A72F;}
	.st8{fill:#FFFFFF;}
	.st9{font-family:'SourceSansPro-Semibold';}
	.st10{font-size:9.9067px;}
	.st11{fill:#1D1D1B;}
	.st12{fill:#171719;stroke:#171719;stroke-width:0.605;stroke-miterlimit:10;}
	.st13{fill:#F27089;}
	.st14{fill:#E8546A;}
	.st15{fill:#DB2B2D;}
	.st16{fill:#C61A23;}
	.st17{font-size:9.3183px;}
	.st18{fill:#4E94C4;}
	.st19{fill:#67ADD3;}
	.st20{fill:#267BAA;}
	.st21{font-size:9.024px;}
	.st22{fill:#685CA1;}
	.st23{font-size:10.1328px;}
	.st24{fill:#050505;}
	.st25{font-size:10.4819px;}
	.st26{fill:#C19884;}
	.st27{fill:#9E7869;}
	.st28{fill:#846459;}
	.st29{fill:#E25350;stroke:#E25350;stroke-width:0.605;stroke-miterlimit:10;}
	.st30{fill:#4D448E;}
	.st31{font-size:9.7794px;}
	.st32{fill:#9FE2FF;}
	.st33{fill:#2FAC66;}
</style>
<g>
	<g>
		<g>
			<path class="st0" d="M91,35c0,0-2.7-8-10.5-7.3c-7.7,0.8-10.4,7.7-10.4,7.7s-7,1.9-8.6,9.7s6,11.4,6,11.4s-1.8,9.4,4.5,15.1
				c6.3,5.7,13.6,6.6,13.6,6.6L98,66.9l12.4-11.3c0,0-0.1-7.5-5-14.5C100.4,34.2,91,35,91,35z"/>
			<path class="st1" d="M97.3,59.2l-4.7-5.3L89.3,57l-3.4,3.1l4.7,5.3l-8.9,13.5c-1.1,1.7-1,4,0.4,5.5l6.2,7l17.5-15.9l17.5-15.9
				l-6.2-7c-1.4-1.5-3.6-1.9-5.4-1L97.3,59.2z"/>
			<path class="st2" d="M94.9,56.5l-2.3-2.6L89.3,57l-3.4,3.1l2.3,2.6C91.2,61.7,93.7,59.4,94.9,56.5z"/>
			<path class="st1" d="M94.5,53.6l-0.2,0.8c-1.2,3.8-4.3,6.7-8.2,7.4l-0.8,0.2c-3.7,0.7-7.5-0.6-10-3.4l-6.2-7
				c-2.3-2.6-2.1-6.7,0.5-9.1l7.5-6.8c2.6-2.4,6.6-2.2,9,0.5l6.2,7C94.8,45.9,95.6,49.9,94.5,53.6z"/>
			<g>
				<path class="st3" d="M84.5,45.4c0.6,0.7,1.4,1,1.8,0.6c0.4-0.4,0.2-1.2-0.4-1.9c-0.6-0.7-1.4-1-1.8-0.6
					C83.7,43.8,83.9,44.7,84.5,45.4z"/>
				<path class="st3" d="M77,52.2c0.6,0.7,1.4,1,1.8,0.6c0.4-0.4,0.2-1.2-0.4-1.9c-0.6-0.7-1.4-1-1.8-0.6
					C76.2,50.7,76.4,51.5,77,52.2z"/>
			</g>
			<path class="st4" d="M86.3,50.2c-0.7-0.5-1.3,0.2-2.5-1c-1.1-1.1-2.6-2.5-3.2-2c-0.6,0.6,0.6,2.2,1.6,3.5c1,1.2,0.3,1.8,0.7,2.6
				c0.4,0.8,1.2,0.5,1.5-0.1c0,0,0.6,0.3,1.3-0.3c0.6-0.6,0.5-1.2,0.5-1.2C86.7,51.4,87.1,50.7,86.3,50.2z"/>
			<path class="st3" d="M89.3,57c1.6-1.4,1.8-3.8,0.5-5.4c-0.1-0.1-0.3-0.2-0.4,0l-5.4,4.9c-0.1,0.1-0.1,0.3,0,0.5
				C85.4,58.3,87.7,58.4,89.3,57z"/>
			<path class="st5" d="M87.2,58c0.7-0.1,1.5-0.4,2.1-1c0.6-0.5,1-1.2,1.2-2c-0.8-0.5-2-0.5-2.7,0.2C87,55.9,86.8,57.1,87.2,58z"/>
			<path class="st0" d="M70.4,35.6c0,0-9.4,9-2.1,18.2c0.8,0.9,2.2,1,3.1,0.2c6.4-5.8,3.1-13.2,2.7-14.2c1,0.5,7.8,4.7,14.2-1.2
				c0.9-0.8,1-2.3,0.2-3.2C80.2,27.1,70.4,35.6,70.4,35.6z"/>
			<path class="st6" d="M111.5,51.6L101,57.2c1.8,3.5,1.1,8-2,10.8c-3.1,2.8-7.5,3-10.8,0.8l-6.6,10c-1.1,1.7-1,4,0.4,5.5l6.2,7
				l17.5-15.9l17.5-15.9l-6.2-7C115.6,51.1,113.3,50.7,111.5,51.6z"/>
			<path class="st7" d="M111.5,51.6L101,57.2c1.8,3.5,1.1,8-2,10.8l6.6,7.4l17.5-15.9l-6.2-7C115.6,51.1,113.3,50.7,111.5,51.6z"/>
		</g>
		<g>
			<path class="st6" d="M41,51.9L19.9,71.1c-2.3,2.1-2.5,5.7-0.4,8l11.5,13c2.1,2.3,5.6,2.5,7.9,0.4l16.9-15.4l7.6,0.4
				c0.2,0,0.4-0.3,0.2-0.4l-3.4-3.9c2.2-2.1,2.3-5.6,0.3-7.9L49,52.3C46.9,50,43.3,49.8,41,51.9z"/>
			<text transform="matrix(0.7386 -0.6719 0.6625 0.7491 33.7743 82.0611)" class="st8 st9 st10">Hello</text>
		</g>
	</g>
	<g>
		<g>
			<path class="st1" d="M158.7,41.5l0.2-6.4l-4.5-0.1l-4.5-0.1l-0.2,6.4l-13.8,3.2c-1.8,0.4-3.1,2-3.2,3.9l-0.3,8.5l21.3,0.7
				l21.3,0.7l0.3-8.5c0.1-1.9-1.1-3.5-2.9-4.1L158.7,41.5z"/>
			<path class="st2" d="M158.8,38.1l0.1-2.9l-4.5-0.1l-4.5-0.1l-0.1,2.9C152.6,39.4,156,39.5,158.8,38.1z"/>
			<g>
				<ellipse class="st11" cx="166.9" cy="10.6" rx="5.6" ry="5.7"/>
				<ellipse class="st11" cx="143.4" cy="9.9" rx="5.6" ry="5.7"/>
			</g>
			<path class="st11" d="M164.8,9.1c-4-2.5-9.5-2.9-9.5-2.9s-5.5,0-9.7,2.3c-4.2,2.3-5,9.6-3.5,16.2l12.7,0.4l12.7,0.4
				C169.3,19,168.9,11.6,164.8,9.1z"/>
			<path class="st1" d="M160,36.1l-0.6,0.4c-3.1,1.8-6.9,1.6-9.9-0.3l-0.6-0.4c-2.9-1.9-4.6-5.1-4.5-8.6l0.3-8.5
				c0.1-3.2,2.8-5.8,5.9-5.7l9.1,0.3c3.2,0.1,5.7,2.8,5.6,6l-0.3,8.5C164.8,31.2,163,34.4,160,36.1z"/>
			<g>
				<path class="st1" d="M166.7,28.6l0.1-4.3c0,0,0-0.1,0-0.1c0.2-0.3,0.9-1.4,2-0.9c1.4,0.7,0.9,4.3-1.8,5.6
					C167,29,166.7,28.8,166.7,28.6z"/>
				<path class="st1" d="M142.5,27.8l0.1-4.3c0,0,0-0.1,0-0.1c-0.1-0.3-0.8-1.5-2-1c-1.4,0.6-1.2,4.2,1.4,5.7
					C142.2,28.2,142.5,28,142.5,27.8z"/>
			</g>
			<g>
				<path class="st12" d="M159.7,23.5c-0.8,0-1.5,0.3-1.5,0.8c0,0.5,0.6,0.9,1.5,0.9c0.8,0,1.5-0.3,1.5-0.8
					C161.2,23.9,160.6,23.5,159.7,23.5z"/>
				<path class="st12" d="M149.8,23.2c-0.8,0-1.5,0.3-1.5,0.8c0,0.5,0.6,0.9,1.5,0.9c0.8,0,1.5-0.3,1.5-0.8
					C151.3,23.6,150.6,23.2,149.8,23.2z"/>
			</g>
			<path class="st4" d="M156.7,28.7c-0.2-0.8-1-0.7-1-2.2c0-1.5-0.1-3.3-0.9-3.3s-1,1.8-1.1,3.3c-0.1,1.5-0.9,1.3-1.2,2.1
				c-0.2,0.8,0.5,1.1,1,0.9c0,0,0.2,0.6,1,0.6c0.8,0,1.1-0.5,1.1-0.5C156.1,29.7,156.9,29.4,156.7,28.7z"/>
			<path class="st3" d="M154.4,35c1.9,0.1,3.5-1.4,3.7-3.2c0-0.2-0.1-0.3-0.3-0.3l-6.6-0.2c-0.2,0-0.3,0.1-0.3,0.3
				C151,33.4,152.5,34.9,154.4,35z"/>
			<path class="st5" d="M152.4,34.3c0.6,0.4,1.2,0.6,2,0.7c0.7,0,1.4-0.2,2-0.5c-0.2-0.9-1-1.5-1.9-1.6
				C153.5,32.8,152.7,33.4,152.4,34.3z"/>
			<path class="st11" d="M162.8,11.1c-2.2-1.4-5-2.5-7.6-2.6l0,0l-0.2,5.5v0c0.3,0.9,1.9,6.7,7.8,8.4c0,0,2.3,3.3,1.2,9.3
				c-0.6,3.5-0.9,5-1,5.6c0,0.1,0.1,0.2,0.2,0.1c0.5-0.8,1-1.6,1.4-2.5c1.2-2.4,2.1-5,2.6-7.6C168.5,21.2,168.3,14.7,162.8,11.1z"/>
			<path class="st11" d="M147.5,10.6c2.2-1.3,5.1-2.2,7.7-2.1l0,0l-0.2,5.5l0,0c-0.3,0.9-2.3,6.6-8.3,7.9c0,0-2.5,3.1-1.8,9.2
				c0.4,3.6,0.6,5,0.6,5.6c0,0.1-0.1,0.1-0.2,0.1c-0.5-0.8-0.9-1.7-1.2-2.6c-1.1-2.5-1.8-5.1-2.2-7.8
				C141.2,20.3,141.8,13.8,147.5,10.6z"/>
			<path class="st13" d="M169.1,11.4C169.1,11.4,169.1,11.4,169.1,11.4C169.1,11.4,169.1,11.4,169.1,11.4c0.9-0.5,1.4-1.4,1.2-1.9
				C170,9,169,8.9,168.1,9.4c0,0,0,0,0,0c0,0,0,0,0,0c0-1.1-0.4-1.9-1-2c-0.6,0-1.1,0.8-1.1,1.9c0,0,0,0,0,0c0,0,0,0,0,0
				c-0.9-0.6-1.9-0.6-2.2-0.1c-0.3,0.5,0.2,1.4,1,1.9c0,0,0,0,0,0c0,0,0,0,0,0c-0.9,0.5-1.4,1.3-1.2,1.9c0.3,0.5,1.3,0.6,2.2,0.1
				c0,0,0,0,0,0c0,0,0,0,0,0c0,1.1,0.4,1.9,1,2c0.6,0,1.1-0.8,1.1-1.9c0,0,0,0,0,0c0,0,0,0,0,0c0.9,0.6,1.9,0.6,2.2,0.1
				C170.5,12.8,170,12,169.1,11.4z"/>
			<path class="st13" d="M145.6,10.6C145.5,10.6,145.5,10.6,145.6,10.6C145.5,10.6,145.5,10.6,145.6,10.6c0.9-0.5,1.4-1.4,1.2-1.9
				c-0.3-0.5-1.3-0.6-2.2-0.1c0,0,0,0,0,0c0,0,0,0,0,0c0-1.1-0.4-1.9-1-2c-0.6,0-1.1,0.8-1.1,1.9c0,0,0,0,0,0c0,0,0,0,0,0
				c-0.9-0.6-1.9-0.6-2.2-0.1c-0.3,0.5,0.2,1.4,1,1.9c0,0,0,0,0,0c0,0,0,0,0,0c-0.9,0.5-1.4,1.3-1.2,1.9c0.3,0.5,1.3,0.6,2.2,0.1
				c0,0,0,0,0,0c0,0,0,0,0,0c0,1.1,0.4,1.9,1,2c0.6,0,1.1-0.8,1.1-1.9c0,0,0,0,0,0c0,0,0,0,0,0c0.9,0.6,1.9,0.6,2.2,0.1
				C146.9,12.1,146.4,11.2,145.6,10.6z"/>
			<path class="st13" d="M172.3,45.6l-11.6-3.5l0.1-2.1l-4.4-0.1l-2.3,5.1l0,0l-2-5.2l-4.4-0.1l-0.1,2.1l-11.8,2.7
				c-1.8,0.4-3.1,2-3.2,3.9l-0.3,8.5l21.3,0.7l0,0l21.3,0.7l0.3-8.5C175.3,47.8,174.1,46.2,172.3,45.6z"/>
			<path class="st14" d="M172.3,45.6l-8.8-2.6l-22.8,14.1l13,0.4l0,0l21.3,0.7l0.3-8.5C175.3,47.8,174.1,46.2,172.3,45.6z"/>
		</g>
		<path class="st13" d="M126.9,0.8L101.2,0c-2.8-0.1-5.2,2.2-5.3,5l-0.5,15.8c-0.1,2.8,2.1,5.2,4.9,5.3l20.6,0.7l4.7,5
			c0.1,0.2,0.4,0.1,0.4-0.2l0.1-4.7c2.7,0,5-2.2,5.1-5l0.5-15.8C131.9,3.3,129.7,0.9,126.9,0.8z"/>
		<g>
			<path class="st8" d="M112.2,12.1C112.2,12.1,112.2,12.1,112.2,12.1C112.3,12.2,112.3,12.2,112.2,12.1l0.5,0.2c0,0,0.1,0,0.1-0.1
				c0.2-0.5,0.4-1.6,0.4-1.7c0,0,0-0.1-0.1-0.1l-3.5-0.1c0.1-0.3,0.2-0.7,0.4-1.1c0.1,0,0.2-0.1,0.2-0.1c0,0,0,0,0-0.1c0,0,0,0,0,0
				l-0.6-0.2c0,0,0,0-0.1,0c0,0,0,0,0,0.1c-0.3,1.3-0.8,2.4-1.3,3.1c0,0,0,0,0,0.1c0,0,0,0,0,0.1c0.1,0.1,0.3,0.2,0.4,0.3
				c0,0,0,0,0.1,0c0,0,0,0,0.1,0c0.3-0.4,0.6-0.8,0.8-1.4l1.1,0l-0.1,4.4c0,0,0,0,0,0c0,0,0,0,0,0l-0.3,0c-0.1,0-0.3,0-0.5,0
				c0,0-0.1,0-0.1,0c0,0,0,0.1,0,0.1c0.1,0.2,0.1,0.4,0.2,0.5c0,0,0,0.1,0.1,0.1c1.1,0,1.4,0,1.4-0.7l0.1-4.4l1.3,0
				C112.4,11.4,112.3,11.8,112.2,12.1z"/>
			<path class="st8" d="M112,12.1l-0.5,0.1c0,0,0,0,0,0c0,0,0,0,0,0.1c0.4,0.9,0.8,2,1,2.7c0,0,0,0,0,0.1c0,0,0,0,0,0c0,0,0,0,0,0
				l0.5-0.2c0,0,0.1-0.1,0.1-0.1C113,14.1,112.6,13,112,12.1C112.1,12.1,112.1,12.1,112,12.1z"/>
			<path class="st8" d="M109.9,12.3C109.9,12.3,109.9,12.3,109.9,12.3c0-0.1,0-0.1,0-0.1l-0.6-0.2c0,0,0,0-0.1,0c0,0,0,0,0,0
				c-0.3,1-0.7,2-1.2,2.5c0,0,0,0,0,0.1c0,0,0,0,0,0.1c0.1,0.1,0.3,0.2,0.4,0.3c0,0,0,0,0.1,0c0,0,0,0,0,0c0,0,0,0,0.1,0
				c0.5-0.6,0.9-1.5,1.2-2.5C109.9,12.4,109.9,12.4,109.9,12.3z"/>
			<path class="st8" d="M107.8,10.9l-0.1,0c0.3-0.5,0.5-1.1,0.7-1.7c0.1,0,0.2-0.1,0.2-0.1c0,0,0,0,0-0.1c0,0,0,0,0,0l-0.6-0.2
				c0,0-0.1,0-0.1,0.1c-0.5,1.5-1.2,2.9-1.9,3.7c0,0,0,0.1,0,0.1c0.1,0.1,0.2,0.3,0.3,0.4c0,0,0,0,0.1,0c0,0,0,0,0,0c0,0,0,0,0.1,0
				c0.2-0.3,0.5-0.6,0.7-0.9l-0.1,3.9c0,0,0,0.1,0.1,0.1l0.5,0c0,0,0.1,0,0.1-0.1l0.2-4.9c0.1,0,0.1-0.1,0.2-0.1
				C107.9,11,107.9,11,107.8,10.9C107.8,10.9,107.8,10.9,107.8,10.9z"/>
			<path class="st8" d="M115.9,14.2c0.4-0.9,0.7-1.9,0.8-3.3l0-0.1c0,0,0,0,0-0.1c0,0,0,0,0,0l-0.3-0.1c0,0,0,0,0,0l-0.1,0l-1.1,0
				c0.1-0.5,0.2-0.9,0.3-1.3c0.1,0,0.2-0.1,0.2-0.1c0,0,0,0,0-0.1c0,0,0,0-0.1,0L115,9c0,0-0.1,0-0.1,0.1c-0.1,0.6-0.2,1.1-0.4,1.6
				l-0.8,0c0,0-0.1,0-0.1,0.1l0,0.5c0,0,0,0.1,0.1,0.1l0.7,0c-0.3,1-0.5,1.9-0.7,2.5c0,0,0,0.1,0,0.1l0.4,0.2c0,0,0,0,0.1,0
				c0,0,0,0,0-0.1l0.1-0.2c0.2,0.2,0.5,0.3,0.7,0.5c-0.4,0.6-0.9,1.1-1.4,1.4c0,0,0,0,0,0.1c0,0,0,0.1,0,0.1
				c0.1,0.1,0.2,0.3,0.3,0.4c0,0,0,0,0,0c0,0,0,0,0,0c0,0,0,0,0,0c0.6-0.4,1.1-0.9,1.5-1.5c0.3,0.3,0.6,0.5,0.7,0.8c0,0,0,0,0.1,0
				l0,0c0,0,0,0,0.1,0l0.3-0.4c0,0,0-0.1,0-0.1C116.5,14.8,116.2,14.5,115.9,14.2z M116,11.3c-0.1,1-0.4,1.8-0.7,2.5
				c-0.3-0.2-0.6-0.4-0.8-0.6c0.2-0.7,0.4-1.3,0.5-1.9L116,11.3z"/>
			<path class="st8" d="M120.9,12.6l-1.8-0.1l0-0.8c0.6-0.4,1.2-1.1,1.7-1.7c0,0,0.1,0,0.1-0.1c0,0,0-0.1,0-0.1l-0.4-0.3
				c0,0,0,0-0.1,0l-0.1,0l-3.3-0.1c0,0-0.1,0-0.1,0.1l0,0.5c0,0,0,0.1,0.1,0.1l2.8,0.1c-0.3,0.4-0.7,0.8-1,1.1l-0.2,0c0,0,0,0-0.1,0
				c0,0,0,0,0,0.1l0,1.2l-1.8-0.1c0,0-0.1,0-0.1,0.1l0,0.5c0,0,0,0.1,0.1,0.1l1.8,0.1l-0.1,2.5c0,0.1,0,0.1-0.3,0.1
				c-0.2,0-0.5,0-0.8,0l-0.1,0c0,0-0.1,0-0.1,0c0,0,0,0.1,0,0.1c0.1,0.2,0.1,0.4,0.2,0.5c0,0,0,0.1,0.1,0.1c0.1,0,0.2,0,0.2,0
				c1.1,0,1.4-0.1,1.4-0.7l0.1-2.5l1.8,0.1c0,0,0.1,0,0.1-0.1L120.9,12.6C121,12.6,120.9,12.6,120.9,12.6z"/>
		</g>
	</g>
	<g>
		<g>
			<path class="st11" d="M31.7,108.8c-3.5,3.1-1.8,13-1.8,13s-2.6,9.8,0.7,13.1c3.7,3.8,10.7,3.8,20.1,2.3c4.8-0.7,8.8-4.3,11.1-8.5
				l3.1-5.6l-2.7-5.8c-2-4.4-5.7-8.3-10.4-9.4C42.7,105.9,35.7,105.4,31.7,108.8z"/>
			<path class="st1" d="M66.2,118.9l-6.9-0.3l-0.2,4.5l-0.2,4.5l6.9,0.3l3.3,15.5c0.4,2,2.1,3.4,4.1,3.5l9.1,0.4l0.9-23.1l0.9-23.1
				l-9.1-0.4c-2-0.1-3.8,1.2-4.4,3.1L66.2,118.9z"/>
			<path class="st15" d="M67.1,133.9c0,0,0.7,3.1,1.2,5.7c8.1-0.3,14.3,2.9,14.3,2.9l0.7-16.8l0.8-20.8
				C84.1,104.9,78,127.7,67.1,133.9z"/>
			<path class="st2" d="M62.6,118.8l-3.1-0.1l-0.2,4.5l-0.2,4.5l3.1,0.1C63.7,124.9,63.8,121.6,62.6,118.8z"/>
			<polygon class="st11" points="83.5,119.6 83.7,114.4 58.3,113.4 62.8,118.8 			"/>
			<path class="st16" d="M68.1,112.6c3.9,3.3,11.3,11.1,14.7,25.4l0.6-13.9l0.5-12.6c0,0-5.6-4.6-13.7-5.9L68.1,112.6z"/>
			<path class="st11" d="M65.6,113.6c-0.7-0.6-1.6-0.9-2.5-1c-2.2-0.1-4,1.4-4.1,3.4c-0.1,2,1.6,3.6,3.8,3.7c1,0,1.9-0.3,2.6-0.8
				c0.7,0.6,1.6,0.9,2.5,1c1,0,1.9-0.3,2.6-0.8c0.7,0.6,1.6,0.9,2.5,1c1,0,1.9-0.3,2.6-0.8c0.7,0.6,1.6,0.9,2.5,1
				c1,0,1.9-0.3,2.6-0.8c0.7,0.6,1.6,0.9,2.5,1c2.2,0.1,4-1.4,4.1-3.4c0.1-2-1.6-3.6-3.8-3.7c-1,0-1.9,0.3-2.6,0.8
				c-0.7-0.6-1.6-0.9-2.5-1c-1,0-1.9,0.3-2.6,0.8c-0.7-0.6-1.6-0.9-2.5-1c-1,0-1.9,0.3-2.6,0.8c-0.7-0.6-1.6-0.9-2.5-1
				C67.2,112.8,66.3,113.1,65.6,113.6z"/>
			<path class="st1" d="M60.3,117.1l0.4,0.7c1.9,3.4,1.7,7.5-0.4,10.8l-0.4,0.7c-2,3.1-5.6,4.9-9.3,4.8l-9.2-0.4
				c-3.5-0.1-6.2-3-6-6.5l0.4-9.9c0.1-3.4,3.1-6.1,6.5-6l9.2,0.4C55.1,111.7,58.5,113.8,60.3,117.1z"/>
			<g>
				<path class="st1" d="M52.3,109.7l-4.6-0.2c-0.1,0-0.1,0-0.2,0c-0.3-0.2-1.5-0.9-0.9-2.2c0.7-1.5,4.6-1,6,2
					C52.7,109.4,52.5,109.7,52.3,109.7z"/>
				<path class="st1" d="M51.2,136l-4.6-0.2c-0.1,0-0.1,0-0.2,0c-0.3,0.1-1.6,0.8-1.1,2.1c0.6,1.6,4.5,1.4,6.2-1.5
					C51.7,136.3,51.5,136,51.2,136z"/>
			</g>
			<g>
				<path class="st12" d="M47.6,118.6c0.9,0,1.7-0.4,1.7-0.9c0-0.5-0.7-1-1.6-1c-0.9,0-1.7,0.4-1.7,0.9
					C46,118.1,46.7,118.6,47.6,118.6z"/>
				<path class="st12" d="M47.2,128.5c0.9,0,1.7-0.4,1.7-0.9c0-0.5-0.7-1-1.6-1c-0.9,0-1.7,0.4-1.7,0.9
					C45.6,128.1,46.3,128.5,47.2,128.5z"/>
			</g>
			<path class="st4" d="M52.3,120.6c-0.9,0.2-0.8,1.1-2.4,1.1c-1.6,0-3.6,0.1-3.6,1c0,0.8,2,1.1,3.5,1.2c1.6,0.1,1.4,1,2.3,1.3
				c0.8,0.3,1.2-0.5,0.9-1.1c0,0,0.6-0.3,0.6-1.1c0-0.9-0.5-1.2-0.5-1.2C53.4,121.2,53.1,120.4,52.3,120.6z"/>
			<path class="st3" d="M59.1,123.1c0.1-2.1-1.4-3.8-3.5-4c-0.2,0-0.3,0.1-0.3,0.3l-0.3,7.2c0,0.2,0.1,0.3,0.3,0.3
				C57.3,126.8,59,125.2,59.1,123.1z"/>
			<path class="st5" d="M58.3,125.2c0.4-0.6,0.7-1.3,0.7-2.1c0-0.8-0.2-1.5-0.6-2.2c-0.9,0.2-1.7,1.1-1.7,2.1
				C56.8,124,57.4,124.9,58.3,125.2z"/>
			<path class="st11" d="M30.5,121.9c-4.6,13.8,14,17.1,14.6,12.4c1.1-7-6.9-11.4-8.5-12.1c1.7-0.6,9.9-4.4,9.4-11.4
				C45.8,105.9,27,107.8,30.5,121.9z"/>
		</g>
		<g>
			<g>
				<g>
					<path class="st15" d="M22.2,149.7l-1.1,27.9c-0.1,3,2.3,5.6,5.4,5.7l17.1,0.7c3.1,0.1,5.7-2.3,5.8-5.3l0.9-22.3l5.5-5.1
						c0.2-0.2,0.1-0.4-0.2-0.4l-5.1-0.2c0-3-2.3-5.5-5.4-5.6L28,144.4C24.9,144.2,22.3,146.6,22.2,149.7z"/>
				</g>
			</g>
			<g>
				<path class="st8" d="M39.4,159.8C39.4,159.8,39.4,159.9,39.4,159.8c0,0.1,0,0.1,0,0.1l0.3,0.3c0,0,0.1,0,0.1,0l1.6-1.6
					c0,0,0,0,0-0.1c0,0,0,0,0,0c0,0,0,0,0-0.1l-0.3-0.3c0,0-0.1,0-0.1,0L39.4,159.8z"/>
				<path class="st8" d="M33.1,153.4l0,0.9c-0.3,0.1-0.6,0.3-0.8,0.4c-0.3,0.1-0.5,0.3-0.7,0.4c-0.2,0.1-0.4,0.2-0.5,0.4
					c-0.1,0.1-0.2,0.2-0.3,0.3c-0.1,0.1-0.1,0.2-0.2,0.4c0,0.1-0.1,0.3-0.1,0.4l0,0.8c0,0,0,0.1,0.1,0.1l0.6,0c0,0,0.1,0,0.1-0.1
					l0-0.8c0-0.1,0-0.2,0-0.3c0-0.1,0.1-0.2,0.1-0.2c0.1-0.1,0.1-0.2,0.2-0.2c0.1-0.1,0.2-0.2,0.4-0.3c0.2-0.1,0.4-0.2,0.6-0.3
					c0.2-0.1,0.3-0.2,0.5-0.3l-0.1,3.4l0,0.3l-0.2,5.5l0,0.3l-0.2,5.1l0,0.3l-0.2,4.8c0,0,0,0.1,0.1,0.1l0.5,0c0,0,0.1,0,0.1-0.1
					l0.1-3.6l1.8,0.1l-0.1,2.5c0,0.1,0,0.2,0,0.2c0,0.1,0,0.2,0,0.2c0,0.1,0.1,0.1,0.1,0.2c0.1,0,0.1,0.1,0.2,0.1
					c0.1,0,0.2,0,0.4-0.1c0.1-0.1,0.3-0.1,0.4-0.2c0.1-0.1,0.2-0.2,0.3-0.3c0.1-0.1,0.2-0.3,0.2-0.4c0-0.1,0-0.1,0-0.2
					c0-0.1-0.1-0.1-0.1-0.1c-0.1,0-0.1,0-0.2,0c-0.1,0-0.2,0-0.3,0l-0.3,0l0.1-1.8l3.1,0.1c0,0,0.1,0,0.1-0.1l0-0.5
					c0,0,0-0.1-0.1-0.1l-5.5-0.2l0-0.5l0-0.3l0-1.1l2.6,0.1l0,0.3c0,0.1,0,0.1,0,0.2c0,0.1,0,0.1,0,0.2c0,0.1,0.1,0.1,0.1,0.1
					c0.1,0,0.1,0.1,0.2,0.1c0.1,0,0.2,0,0.3,0c0.1,0,0.2-0.1,0.3-0.1c0.1-0.1,0.2-0.1,0.3-0.2c0.1-0.1,0.2-0.1,0.2-0.2
					c0.1-0.1,0.1-0.2,0.2-0.2c0.1-0.2,0.1-0.3,0-0.4c0-0.1-0.1-0.1-0.1-0.1c-0.1,0-0.1-0.1-0.2-0.1c-0.1,0-0.2,0-0.3,0l-0.3,0
					l0.1-2.2l2.3,0.1c0,0,0.1,0,0.1-0.1l0-0.5c0,0,0-0.1-0.1-0.1l-5.5-0.2l0-0.5l0-0.3l0.1-1.4c0.1,0,0.2-0.1,0.3-0.1
					c0.1,0,0.2-0.1,0.4-0.1c0.1,0,0.3-0.1,0.4-0.1c0.1,0,0.3,0,0.4,0c0.2,0,0.4,0.1,0.5,0.2c0.1,0.1,0.2,0.2,0.2,0.4
					c0,0.1,0,0.1,0,0.2c0,0,0,0.1-0.1,0.1c0,0-0.1,0.1-0.2,0.1c-0.1,0-0.2,0.1-0.3,0.1c0,0,0,0,0,0c0,0,0,0,0,0.1l0.2,0.4
					c0,0,0.1,0.1,0.1,0c0.3-0.1,0.6-0.3,0.9-0.4c0.3-0.2,0.6-0.4,1-0.6c0.3-0.2,0.7-0.5,1-0.8c0.3-0.3,0.6-0.6,0.9-1c0,0,0,0,0-0.1
					c0,0,0,0,0-0.1l-0.4-0.4c0,0,0,0-0.1,0c0,0,0,0-0.1,0c-0.3,0.4-0.7,0.8-1.1,1.1c-0.4,0.3-0.8,0.6-1.2,0.8c0,0,0-0.1,0-0.1
					c0-0.1,0-0.1-0.1-0.2l0.1-2.4l2.7,0.1c0,0,0.1,0,0.1-0.1l0-0.5c0,0,0-0.1-0.1-0.1l-5.5-0.2l0-0.5l0-0.3l0.1-3.6l1.3,0l-0.1,1.4
					c0,0.3,0,0.5,0,0.7c0,0.2,0.1,0.4,0.2,0.6c0.1,0.2,0.3,0.3,0.5,0.4c0.2,0.1,0.4,0.1,0.7,0.2c0.3,0,0.6,0,0.8-0.1
					c0.3-0.1,0.5-0.2,0.7-0.3c0.2-0.1,0.4-0.2,0.6-0.4c0.2-0.1,0.3-0.3,0.4-0.4c0.1-0.1,0.2-0.2,0.3-0.3c0.1-0.1,0.1-0.1,0.1-0.2
					c0,0,0,0,0,0c0,0,0,0,0-0.1l-0.3-0.3c0,0,0,0-0.1,0c0,0,0,0-0.1,0c-0.1,0.1-0.2,0.2-0.3,0.3c-0.1,0.1-0.2,0.2-0.3,0.3
					c-0.1,0.1-0.2,0.2-0.4,0.3c-0.1,0.1-0.3,0.2-0.4,0.2c-0.1,0.1-0.3,0.1-0.5,0.1c-0.2,0-0.3,0-0.5,0c-0.2,0-0.4,0-0.5-0.1
					c-0.1-0.1-0.2-0.1-0.3-0.2c-0.1-0.1-0.1-0.2-0.1-0.4c0-0.2,0-0.3,0-0.5l0.1-1.3l3.6,0.1c0,0,0.1,0,0.1-0.1l0-0.5
					c0,0,0-0.1-0.1-0.1l-5.5-0.2l0-0.8c0,0,0-0.1-0.1-0.1L33.1,153.4C33.1,153.3,33.1,153.4,33.1,153.4z M35.3,161.8
					c-0.1,0-0.3-0.1-0.4-0.1c-0.3,0-0.5,0-0.8,0.1c-0.2,0.1-0.5,0.1-0.7,0.2l0.1-2.2l2.2,0.1l-0.1,1.9
					C35.5,161.8,35.4,161.8,35.3,161.8z M35.8,168l-2.6-0.1l0.1-2.2l2.6,0.1L35.8,168z"/>
			</g>
		</g>
	</g>
	<g>
		<g>
			<path class="st7" d="M269,144.1c3.4-3,1.7-12.5,1.7-12.5s2.4-9.4-0.7-12.6c-3.5-3.6-10.2-3.6-19.1-2.3c-4.6,0.7-8.4,4.2-10.6,8.2
				l-3,5.3l2.6,5.6c1.9,4.2,5.4,8,9.9,9C258.5,146.9,265.2,147.5,269,144.1z"/>
			<path class="st1" d="M236.1,134.4l6.6,0.3l0.2-4.3l0.2-4.3l-6.6-0.3l-3.2-14.8c-0.4-1.9-2-3.3-4-3.3l-8.7-0.3l-0.9,22.2
				l-0.9,22.2l8.7,0.3c1.9,0.1,3.7-1.2,4.2-3L236.1,134.4z"/>
			<path class="st15" d="M235.2,120c0,0-0.6-3-1.2-5.5c-7.8,0.3-13.6-2.8-13.6-2.8l-0.6,16.2l-0.8,20
				C219,147.9,224.8,125.9,235.2,120z"/>
			<path class="st2" d="M239.5,134.6l3,0.1l0.2-4.3l0.2-4.3l-3-0.1C238.5,128.7,238.4,131.8,239.5,134.6z"/>
			<polygon class="st7" points="219.5,133.8 219.3,138.7 243.6,139.7 239.4,134.6 			"/>
			<path class="st7" d="M236.7,139.5c0.6,0.5,1.5,0.9,2.4,0.9c2.1,0.1,3.8-1.4,3.9-3.3c0.1-1.9-1.6-3.5-3.6-3.6
				c-0.9,0-1.8,0.2-2.5,0.7c-0.6-0.5-1.5-0.9-2.4-0.9s-1.8,0.2-2.5,0.7c-0.6-0.5-1.5-0.9-2.4-0.9c-0.9,0-1.8,0.2-2.5,0.7
				c-0.6-0.5-1.5-0.9-2.4-0.9c-0.9,0-1.8,0.2-2.5,0.7c-0.6-0.5-1.5-0.9-2.4-0.9c-2.1-0.1-3.8,1.4-3.9,3.3c-0.1,1.9,1.6,3.5,3.6,3.6
				c0.9,0,1.8-0.2,2.5-0.7c0.6,0.5,1.5,0.9,2.4,0.9c0.9,0,1.8-0.2,2.5-0.7c0.6,0.5,1.5,0.9,2.4,0.9c0.9,0,1.8-0.2,2.5-0.7
				c0.6,0.5,1.5,0.9,2.4,0.9C235.1,140.3,236,140,236.7,139.5z"/>
			<path class="st7" d="M237.2,125.4c0.6,0.5,1.5,0.9,2.4,0.9c2.1,0.1,3.8-1.4,3.9-3.3c0.1-1.9-1.6-3.5-3.6-3.6
				c-0.9,0-1.8,0.2-2.5,0.7c-0.6-0.5-1.5-0.9-2.4-0.9c-0.9,0-1.8,0.2-2.5,0.7c-0.6-0.5-1.5-0.9-2.4-0.9c-0.9,0-1.8,0.2-2.5,0.7
				c-0.6-0.5-1.5-0.9-2.4-0.9c-0.9,0-1.8,0.2-2.5,0.7c-0.6-0.5-1.5-0.9-2.4-0.9c-2.1-0.1-3.8,1.4-3.9,3.3c-0.1,1.9,1.6,3.5,3.6,3.6
				c0.9,0,1.8-0.2,2.5-0.7c0.6,0.5,1.5,0.9,2.4,0.9c0.9,0,1.8-0.2,2.5-0.7c0.6,0.5,1.5,0.9,2.4,0.9c0.9,0,1.8-0.2,2.5-0.7
				c0.6,0.5,1.5,0.9,2.4,0.9S236.6,125.9,237.2,125.4z"/>
			<path class="st1" d="M241.7,136.2l-0.4-0.7c-1.8-3.3-1.6-7.2,0.4-10.4l0.4-0.6c1.9-3,5.3-4.7,8.9-4.6l8.8,0.4
				c3.3,0.1,5.9,2.9,5.8,6.2l-0.4,9.5c-0.1,3.3-2.9,5.9-6.2,5.8l-8.8-0.4C246.6,141.3,243.4,139.3,241.7,136.2z"/>
			<g>
				<path class="st1" d="M249.4,143.3l4.4,0.2c0.1,0,0.1,0,0.1,0c0.3,0.2,1.5,0.9,0.9,2.1c-0.7,1.5-4.4,1-5.8-1.9
					C249,143.6,249.1,143.3,249.4,143.3z"/>
				<path class="st1" d="M250.4,118l4.4,0.2c0.1,0,0.1,0,0.1,0c0.3-0.1,1.5-0.8,1.1-2.1c-0.6-1.5-4.3-1.3-5.9,1.4
					C250,117.8,250.1,118,250.4,118z"/>
			</g>
			<g>
				<path class="st12" d="M253.8,134.7c-0.9,0-1.6,0.3-1.6,0.8c0,0.5,0.7,0.9,1.5,1c0.9,0,1.6-0.3,1.6-0.8
					C255.4,135.2,254.7,134.8,253.8,134.7z"/>
				<path class="st12" d="M254.2,125.2c-0.9,0-1.6,0.3-1.6,0.8c0,0.5,0.7,0.9,1.5,1c0.9,0,1.6-0.3,1.6-0.8
					C255.7,125.7,255.1,125.2,254.2,125.2z"/>
			</g>
			<path class="st4" d="M249.4,132.8c0.8-0.2,0.8-1,2.3-1c1.5,0,3.4-0.1,3.5-0.9c0-0.8-1.9-1.1-3.4-1.2c-1.5-0.1-1.4-1-2.2-1.2
				c-0.8-0.2-1.1,0.5-0.9,1.1c0,0-0.6,0.2-0.6,1.1c0,0.8,0.5,1.1,0.5,1.1C248.3,132.2,248.6,133,249.4,132.8z"/>
			<path class="st3" d="M242.9,130.4c-0.1,2,1.4,3.6,3.3,3.9c0.2,0,0.3-0.1,0.3-0.3l0.3-6.9c0-0.2-0.1-0.3-0.3-0.3
				C244.5,126.9,243,128.4,242.9,130.4z"/>
			<path class="st5" d="M243.6,128.4c-0.4,0.6-0.7,1.3-0.7,2c0,0.8,0.2,1.5,0.5,2.1c0.9-0.2,1.6-1,1.6-2
				C245.1,129.5,244.5,128.7,243.6,128.4z"/>
			<path class="st7" d="M270.2,131.6c4.4-13.2-13.4-16.5-13.9-11.9c-1,6.7,6.6,11,8.1,11.7c-1.6,0.6-9.5,4.2-9,11
				C255.6,146.9,273.5,145.1,270.2,131.6z"/>
		</g>
		<g>
			<g>
				<g>
					<path class="st15" d="M278.3,105.1l1-26.8c0.1-2.9-2.2-5.4-5.1-5.5l-16.3-0.7c-2.9-0.1-5.4,2.2-5.5,5.1l-0.8,21.4l-5.2,4.9
						c-0.2,0.1-0.1,0.4,0.2,0.4l4.9,0.2c0,2.8,2.2,5.2,5.1,5.4l16.3,0.7C275.7,110.3,278.1,108,278.3,105.1z"/>
				</g>
			</g>
			<text transform="matrix(-3.875659e-02 0.9967 -0.9992 -3.996691e-02 263.1807 80.3055)" class="st8 st9 st17">Salut</text>
		</g>
	</g>
	<g>
		<g>
			<path class="st11" d="M238.5,67.8c1.9-1.8,2.4-4.5,1.3-6.3c0.9,0,1.9-0.4,2.7-1.2c1.7-1.5,2-3.9,0.7-5.3c-0.6-0.7-1.5-1-2.4-1
				c0.1-0.1,0.2-0.2,0.3-0.3c1.6-1.4,1.9-3.7,0.7-5c-0.7-0.7-1.6-1.1-2.6-0.9c1.1-1.1,1.3-2.8,0.4-3.8c-0.9-1-2.5-1-3.7,0
				c0.2-1,0-2-0.6-2.8c-1.2-1.3-3.4-1.3-5,0.1c-0.1,0.1-0.2,0.2-0.3,0.3c0.1-0.9-0.1-1.8-0.7-2.5c-1.3-1.4-3.6-1.4-5.3,0.1
				c-0.8,0.7-1.3,1.7-1.4,2.6c-1.7-1.4-4.4-1.2-6.3,0.6c-2,1.9-2.5,4.7-1.1,6.6c-0.5,0.2-0.9,0.4-1.3,0.8c-1.5,1.4-1.8,3.5-0.6,4.8
				c1.1,1.3,3.3,1.2,4.8-0.1c1.2-1.1,1.6-2.8,1.1-4c1-0.2,2.1-0.6,3-1.4c1.2-1.1,1.9-2.5,1.9-3.9c1.3,0.8,3.2,0.5,4.6-0.7
				c0.1-0.1,0.3-0.2,0.4-0.4c-0.1,0.8,0.2,1.7,0.7,2.3c1.2,1.3,5.4,6.1,6.6,7.5c0.6,0.6,1.3,0.9,2.2,1c-0.1,0.1-0.3,0.2-0.4,0.3
				c-1.4,1.3-1.8,3.2-1.2,4.6c-1.4-0.1-2.9,0.4-4.1,1.5c-0.9,0.8-1.5,1.8-1.7,2.9c-1.2-0.6-2.8-0.4-4.1,0.7
				c-1.5,1.4-1.8,3.5-0.6,4.8c1.1,1.3,3.3,1.2,4.8-0.1c0.4-0.4,0.7-0.8,1-1.3C233.6,69.8,236.5,69.7,238.5,67.8z"/>
			<path class="st1" d="M215.4,71.7l4.7-4.3l-2.8-3.1l-2.8-3.1l-4.7,4.3l-12.2-8.2c-1.5-1.1-3.6-0.9-5,0.3l-6.3,5.7l14.3,16.2
				L215,95.5l6.3-5.7c1.4-1.3,1.7-3.3,0.9-5L215.4,71.7z"/>
			<path class="st2" d="M217.8,69.4l2.3-2.1l-2.8-3.1l-2.8-3.1l-2.3,2.1C213.1,66,215.2,68.3,217.8,69.4z"/>
			<path class="st18" d="M209.3,65l-11.6-7.8c-1.5-1.1-3.6-0.9-5,0.3l-6.3,5.7l14.3,16.2l4.6-4.2L209.3,65z"/>
			<path class="st19" d="M215.7,72.3l6.4,12.5c0.9,1.7,0.5,3.7-0.9,5l-6.3,5.7l-14.3-16.2l4.6-4.2L215.7,72.3z"/>
			<path class="st1" d="M220.5,69.1l-0.7-0.2c-3.4-1.1-6-4-6.7-7.6l-0.1-0.7c-0.7-3.4,0.5-6.9,3.1-9.3l6.3-5.7c2.4-2.2,6-2,8.2,0.5
				l6.1,6.9c2.1,2.4,1.9,6.1-0.4,8.3l-6.3,5.7C227.3,69.3,223.7,70.1,220.5,69.1z"/>
			<g>
				<path class="st1" d="M230.5,68.9l3.2-2.9c0,0,0.1-0.1,0.1-0.1c0.3-0.1,1.6-0.4,2.1,0.9c0.5,1.5-2.4,3.7-5.2,2.6
					C230.4,69.3,230.4,69,230.5,68.9z"/>
				<path class="st1" d="M214.2,50.5l3.2-2.9c0,0,0.1-0.1,0.1-0.1c0.1-0.3,0.5-1.6-0.6-2.2c-1.4-0.7-3.9,2-3.1,5
					C213.8,50.5,214.1,50.6,214.2,50.5z"/>
			</g>
			<g>
				<path class="st12" d="M227.8,59.8c-0.6,0.6-0.9,1.3-0.5,1.7c0.3,0.4,1.1,0.2,1.7-0.4c0.6-0.6,0.9-1.3,0.5-1.7
					C229.2,59.1,228.4,59.2,227.8,59.8z"/>
				<path class="st12" d="M221.7,52.9c-0.6,0.6-0.9,1.3-0.5,1.7c0.3,0.4,1.1,0.2,1.7-0.4c0.6-0.6,0.9-1.3,0.5-1.7
					S222.3,52.3,221.7,52.9z"/>
			</g>
			<path class="st4" d="M223.5,61.5c0.4-0.7-0.2-1.2,0.9-2.3c1-1,2.3-2.4,1.8-3c-0.5-0.6-2,0.5-3.1,1.5s-1.6,0.2-2.3,0.6
				c-0.7,0.4-0.4,1.1,0.1,1.4c0,0-0.2,0.6,0.3,1.2c0.5,0.6,1.1,0.4,1.1,0.4C222.4,61.8,223.1,62.2,223.5,61.5z"/>
			<path class="st3" d="M217.4,64.2c1.3,1.4,3.4,1.6,4.9,0.5c0.1-0.1,0.1-0.3,0-0.4l-4.4-5c-0.1-0.1-0.3-0.1-0.4,0
				C216.2,60.6,216.1,62.8,217.4,64.2z"/>
			<path class="st5" d="M216.5,62.3c0.1,0.7,0.4,1.4,0.9,1.9c0.5,0.6,1.1,0.9,1.8,1.1c0.5-0.8,0.4-1.8-0.2-2.5
				C218.3,62.1,217.3,61.9,216.5,62.3z"/>
			<path class="st11" d="M238.5,61.1c-0.2-0.2-0.3-0.3-0.5-0.5c0.5-0.1,0.9-0.4,1.3-0.7c1.4-1.3,1.5-3.4,0.3-4.8
				c-0.5-0.6-1.2-0.9-1.9-1.1c1.3-1.3,1.4-3.3,0.2-4.7c-0.8-0.9-1.8-1.2-2.9-1.1c0.2-1,0-2.2-0.8-3c-1.2-1.4-3.2-1.5-4.6-0.3
				c-0.1-0.7-0.3-1.4-0.8-2c-1.2-1.4-3.4-1.5-4.8-0.3c-0.4,0.4-0.7,0.8-0.9,1.2c-0.1-0.2-0.2-0.4-0.4-0.6c-1.3-1.4-3.5-1.6-4.9-0.3
				c-1.4,1.3-1.5,3.5-0.3,4.9c1.3,1.4,3.5,1.6,4.9,0.3c0.4-0.4,0.7-0.8,0.9-1.3c0.1,0.2,0.2,0.3,0.4,0.5c1.2,1.4,3.3,1.5,4.7,0.3
				c0.1,0.7,0.3,1.4,0.8,2c0.8,0.9,1.8,1.2,2.9,1.1c-0.2,1,0,2.2,0.8,3c0.5,0.6,1.2,0.9,1.8,1.1c-1.3,1.3-1.4,3.4-0.2,4.8
				c0.1,0.2,0.3,0.3,0.5,0.4c-0.5,0.1-1,0.4-1.4,0.8c-1.4,1.3-1.5,3.5-0.3,4.9c1.3,1.4,3.5,1.6,4.9,0.3
				C239.6,64.8,239.8,62.5,238.5,61.1z"/>
			<polygon class="st20" points="205.3,75.2 209.1,75.3 210.1,78.2 216.5,73.8 215.4,71.7 			"/>
			<polygon class="st20" points="205.3,75.2 205.6,71.4 202.9,70 207.9,64.1 209.9,65.4 			"/>
			<ellipse class="st20" cx="202.7" cy="74.9" rx="0.8" ry="0.8"/>
			<ellipse class="st20" cx="200.9" cy="76.6" rx="0.8" ry="0.8"/>
		</g>
		<g>
			<g>
				<path class="st19" d="M224.1,21.6L206.8,2.1c-1.9-2.1-5.1-2.3-7.2-0.4l-11.7,10.6c-2.1,1.9-2.3,5.2-0.4,7.3l13.8,15.6l-0.3,7
					c0,0.2,0.2,0.3,0.4,0.2l3.5-3.2c1.9,2,5.1,2.2,7.1,0.3L223.7,29C225.8,27.1,226,23.7,224.1,21.6z"/>
			</g>
			<text transform="matrix(0.6635 0.7502 -0.7397 0.6729 199.2142 16.9034)" class="st8 st9 st21">Olá</text>
		</g>
	</g>
	<g>
		<g>
			<path class="st1" d="M206.1,196.6l3.6,4l3.8-3.5l3.8-3.5l-3.6-4l7.6-14.9c1.2-1.7,1-4.1-0.4-5.6l-6.3-7.1l-17.9,16.2l-17.9,16.2
				l6.3,7.1c1.4,1.6,3.7,2,5.5,1L206.1,196.6z"/>
			<path class="st2" d="M207.1,197.8l2.5,2.8l3.8-3.5l3.8-3.5l-2.5-2.8C211.3,191.9,208.5,194.5,207.1,197.8z"/>
			<path class="st0" d="M220.7,225c9.3,2.6,20.8-7.9,19.2-17.5c-0.6-3.4-2.5-7-4.9-10c-5.7-6.9-15.9-7.7-22.5-1.6l-0.1,0.1l0,0
				c-6.4,5.8-7,15.7-1.4,22.2C213.7,221.3,217.1,224,220.7,225z"/>
			<path class="st1" d="M208,200.7l0.2-0.8c1.2-3.9,4.4-6.8,8.3-7.6l0.8-0.2c3.8-0.7,7.7,0.6,10.2,3.5l3.5,3.9
				c4,4.5,3.6,11.4-0.8,15.5l-1.3,1.1c-4.4,4-11.3,3.7-15.2-0.8l-3.5-3.9C207.8,208.5,206.9,204.4,208,200.7z"/>
			<g>
				<path class="st1" d="M208.9,211.5l3.2,3.6c0,0,0.1,0.1,0.1,0.1c0.1,0.4,0.4,1.8-1,2.3c-1.7,0.6-4.1-2.7-2.9-6
					C208.4,211.4,208.8,211.3,208.9,211.5z"/>
				<path class="st1" d="M228,194.3l3.2,3.6c0,0,0.1,0.1,0.1,0.1c0.4,0.1,1.8,0.6,2.4-0.7c0.7-1.6-2.2-4.4-5.5-3.5
					C227.9,193.7,227.8,194.1,228,194.3z"/>
			</g>
			<g>
				<path class="st12" d="M218.3,209.1c-0.6-0.7-1.5-1-1.8-0.6c-0.4,0.4-0.2,1.2,0.4,1.9c0.6,0.7,1.5,1,1.8,0.6
					C219.1,210.7,218.9,209.8,218.3,209.1z"/>
				<path class="st12" d="M226,202.1c-0.6-0.7-1.5-1-1.8-0.6c-0.4,0.4-0.2,1.2,0.4,1.9c0.6,0.7,1.5,1,1.8,0.6
					C226.8,203.7,226.6,202.8,226,202.1z"/>
			</g>
			<path class="st12" d="M213.4,197.2c-1.6,1.4-1.8,3.9-0.5,5.6c0.1,0.1,0.3,0.2,0.5,0l5.6-5.1c0.1-0.1,0.1-0.3,0-0.5
				C217.4,195.8,215,195.8,213.4,197.2z"/>
			<path class="st5" d="M215.5,196.2c-0.8,0.1-1.5,0.4-2.1,1c-0.6,0.6-1,1.3-1.2,2c0.9,0.5,2,0.5,2.8-0.3
				C215.8,198.3,216,197.1,215.5,196.2z"/>
			<path class="st4" d="M216.2,203.9c0.7,0.5,1.4-0.2,2.5,1c1.1,1.2,2.7,2.6,3.3,2c0.6-0.6-0.6-2.3-1.6-3.5c-1-1.3-0.3-1.8-0.7-2.6
				c-0.4-0.8-1.2-0.5-1.5,0.1c0,0-0.6-0.3-1.3,0.3c-0.7,0.6-0.5,1.3-0.5,1.3C215.9,202.6,215.5,203.4,216.2,203.9z"/>
			<path class="st0" d="M218.6,219.6c4.2,1.4,8.8,0.4,12.1-2.6l0,0l0,0c3.3-3,4.8-7.5,3.9-12l-0.4-2.2l-8.9,8.1l-8.9,8.1
				L218.6,219.6z"/>
			<path class="st22" d="M190.6,202.7l10.8-4.2c0.8-3.3,2.5-6.4,5.2-8.8c2.7-2.4,5.9-3.9,9.2-4.3l5.3-10.5c1.2-1.7,1-4.1-0.4-5.6
				l-6.3-7.1l-17.9,16.2l-17.9,16.2l6.3,7.1C186.5,203.2,188.8,203.6,190.6,202.7z"/>
		</g>
		<g>
			<g>
				<path class="st22" d="M259,207.1l21.6-19.6c2.4-2.1,2.6-5.8,0.4-8.2L269.3,166c-2.1-2.4-5.8-2.6-8.1-0.4l-17.3,15.7l-7.7-0.4
					c-0.2,0-0.4,0.3-0.2,0.5l3.5,4c-2.2,2.2-2.4,5.8-0.3,8.1l11.7,13.3C253,209.1,256.7,209.3,259,207.1z"/>
			</g>
			<text transform="matrix(-0.7386 0.6719 -0.6625 -0.7491 265.3266 177.8713)" class="st8 st9 st23">Hola</text>
		</g>
	</g>
	<g>
		<g>
			<path class="st1" d="M141.5,215.4l-0.4,5.5l5.2,0.4l5.2,0.4l0.4-5.5l16.3-5c2.1-0.4,3.7-2.2,3.8-4.3l0.7-9.8l-24.6-1.8l-24.6-1.8
				l-0.7,9.8c-0.2,2.2,1.2,4.2,3.2,4.8L141.5,215.4z"/>
			<path class="st2" d="M141.4,217.6l-0.2,3.4l5.2,0.4l5.2,0.4l0.2-3.4C148.7,216.4,144.8,216.1,141.4,217.6z"/>
			<path class="st7" d="M144.3,250.5l2.2-30.7c0,0-5.8-0.8-11.2,2.5c-4.4,2.7-5.7,17.4-4.5,20.2C132,245.4,144.3,250.5,144.3,250.5z
				"/>
			<path class="st7" d="M144.3,250.5l2.2-30.7c0,0,5.9,0,10.7,4.1c3.9,3.3,3.2,18,1.6,20.6C157.3,247.2,144.3,250.5,144.3,250.5z"/>
			<path class="st1" d="M140,219.8l0.7-0.4c3.7-1.9,8.1-1.6,11.5,0.8l0.7,0.5c3.2,2.3,5.1,6.2,4.8,10.2l-0.7,9.9
				c-0.3,3.7-3.5,6.5-7.1,6.3l-10.6-0.8c-3.7-0.3-6.4-3.5-6.2-7.2l0.7-9.9C134.1,225.2,136.5,221.6,140,219.8z"/>
			<g>
				<path class="st1" d="M132.7,228.2l-0.3,5c0,0.1,0,0.1,0,0.2c-0.2,0.3-1.1,1.6-2.4,0.9c-1.6-0.8-0.9-5,2.3-6.4
					C132.5,227.8,132.8,228,132.7,228.2z"/>
				<path class="st1" d="M158.9,230.1l-0.3,5c0,0.1,0,0.1,0,0.2c0.1,0.4,0.8,1.8,2.2,1.3c1.7-0.6,1.6-4.8-1.4-6.7
					C159.2,229.7,158.9,229.9,158.9,230.1z"/>
			</g>
			<g>
				<path class="st12" d="M141.2,233.5c0.1-1-0.3-1.8-0.9-1.8c-0.5,0-1,0.7-1.1,1.7c-0.1,1,0.3,1.8,0.9,1.8
					C140.6,235.2,141.1,234.5,141.2,233.5z"/>
				<path class="st12" d="M151.8,234.3c0.1-1-0.3-1.8-0.9-1.8c-0.5,0-1,0.7-1.1,1.7c-0.1,1,0.3,1.8,0.9,1.8
					C151.2,236,151.7,235.2,151.8,234.3z"/>
			</g>
			<path class="st4" d="M143.4,228.6c0.2,0.9,1.1,0.9,1.1,2.6c0,1.7,0,3.8,0.9,3.9c0.9,0.1,1.2-2.1,1.4-3.7c0.2-1.7,1.1-1.5,1.4-2.4
				c0.3-0.9-0.5-1.3-1.1-1.1c0,0-0.3-0.7-1.2-0.7c-0.9-0.1-1.3,0.5-1.3,0.5C144.1,227.4,143.3,227.6,143.4,228.6z"/>
			<path class="st3" d="M146.4,221.3c-2.2-0.2-4.1,1.4-4.4,3.6c0,0.2,0.1,0.4,0.3,0.4l7.7,0.6c0.2,0,0.3-0.1,0.3-0.3
				C150.2,223.3,148.6,221.5,146.4,221.3z"/>
			<path class="st5" d="M148.6,222.2c-0.6-0.5-1.4-0.8-2.2-0.9c-0.8-0.1-1.7,0.1-2.3,0.5c0.2,1,1.1,1.8,2.2,1.9
				S148.3,223.2,148.6,222.2z"/>
			<polygon class="st19" points="152,216.2 153.3,212.8 148.5,195.3 148.1,195.3 140.7,212.2 141.5,215.4 147,213.5 			"/>
			<g>
				<path class="st7" d="M144.6,245.9c0,0-7.9-2.5-7.5-9.6c0,0-2.1,2.1-1.6,5.5c0,0-3.8-8.7-0.5-14.7c0,0-4.6,2.7-5.5,9.5
					c-0.9,6.8-0.5,14.5,6.2,16.7c5.6,1.8,8.4,0,8.4,0L144.6,245.9z"/>
				<path class="st7" d="M144.6,245.9c0,0,8.1-1.3,8.7-8.4c0,0,1.8,2.3,0.8,5.6c0,0,5-8.1,2.6-14.5c0,0,4.2,3.3,4.1,10.2
					c0,6.9-1.6,14.4-8.4,15.6c-5.8,1-8.4-1.2-8.4-1.2L144.6,245.9z"/>
			</g>
			<polygon class="st20" points="146.9,213.5 141.5,216.3 141.7,213.5 143.8,207.7 			"/>
			<polygon class="st20" points="147,213.5 152,217 152.2,214.3 150.9,208.3 			"/>
			<g>
				<path class="st11" d="M172.1,206.9l0.7-9.8l-24.3-1.8l4.8,17.5l-1.3,3.4l16.3-5C170.4,210.8,172,209.1,172.1,206.9z"/>
				<path class="st11" d="M126.1,208.2l15.4,7.3l-0.8-3.2l7.4-16.9l-24.5-1.8l-0.7,9.8C122.8,205.5,124.1,207.5,126.1,208.2z"/>
			</g>
			<polygon class="st24" points="145.9,195.1 138.2,206.2 139.8,208.8 137.4,209.4 139.1,212.6 141.5,216.3 141.7,213.5 
				148.1,195.3 			"/>
			<polygon class="st24" points="150.8,195.5 148.5,195.3 152.1,214.3 151.9,217 154.8,213.8 157,210.8 154.6,209.9 156.6,207.5 			
				"/>
		</g>
		<g>
			<g>
				<path class="st19" d="M171.7,262.8l29.7,2.2c3.2,0.2,6.1-2.3,6.3-5.5l1.3-18.3c0.2-3.3-2.2-6.2-5.5-6.4l-23.8-1.7l-5.3-6.1
					c-0.2-0.2-0.5-0.1-0.5,0.2l-0.4,5.5c-3.2-0.1-5.9,2.3-6.1,5.6l-1.3,18.3C166,259.7,168.5,262.6,171.7,262.8z"/>
			</g>
			<text transform="matrix(-0.9836 -7.123592e-02 7.023861e-02 -0.9975 197.5522 246.6314)" class="st8 st9 st25">Ahoj</text>
		</g>
	</g>
	<g>
		<g>
			<path class="st26" d="M85.4,181.4l-5.3,4.5l2.9,3.5l2.9,3.5l5.3-4.5l12.9,9.4c1.6,1.2,3.9,1.1,5.4-0.2l7-5.9l-14.9-18l-14.9-18
				l-7,5.9c-1.5,1.3-2,3.5-1.1,5.4L85.4,181.4z"/>
			<path class="st11" d="M58.8,180.9c0,0-2.5-0.5-3.8,1.4c-1.3,1.9,0.2,4.3,0.2,4.3s-3,0.1-3.9,3.3c-0.8,3.2,1.8,5.5,1.8,5.5
				s-1.5,0.8-1.2,3c0.3,2.2,3.2,3.3,3.2,3.3s-1.5,1.7-0.4,3.3c0.5,0.7,1.2,1.1,1.9,1.4c-1,1.5-1,3.6,0.2,5.1
				c1.2,1.5,3.3,1.9,4.9,1.1c0.1,0.7,0.4,1.5,1,2.1c1.4,1.4,3.3,0.2,3.3,0.2s0.5,3.1,2.7,3.8c2.1,0.7,3.2-0.7,3.2-0.7s1.8,3.1,5,2.8
				c3.3-0.3,3.9-3.3,3.9-3.3s2.1,1.9,4.1,0.9c2.1-1,2.1-3.6,2.1-3.6s2.5,1,4-0.4c1.5-1.4,1.2-3.3-0.2-5c0,0,2.5-0.9,3.4-3.7
				c0.9-2.8-2.5-4.7-2.5-4.7s1.7-2.2-0.1-4.9c-1.8-2.6-6.1-2.2-6.1-2.2l-3.3-4l-3.3-4c0,0,1.2-4.2-1.1-6.5c-2.2-2.3-4.7-1-4.7-1
				s-1.2-3.8-4.1-3.3c-2.9,0.4-4.2,2.8-4.2,2.8c-1.3-1.7-3.2-2.3-4.8-1.1C58.3,178.3,58.8,180.9,58.8,180.9z"/>
			<path class="st27" d="M82.7,183.7l-2.6,2.2l2.9,3.5l2.9,3.5l2.6-2.2C87.7,187.6,85.6,185.1,82.7,183.7z"/>
			<path class="st26" d="M79.8,184l0.7,0.3c3.7,1.3,6.3,4.5,7,8.4l0.1,0.8c0.6,3.7-0.8,7.5-3.7,9.9l-7,6c-2.7,2.3-6.6,1.9-8.8-0.8
				l-6.4-7.7c-2.2-2.7-1.9-6.7,0.8-9l7-6C72.4,183.5,76.3,182.8,79.8,184z"/>
			<path class="st11" d="M61.2,208L61.2,208c0,0,9,10.4,18.8,2.9c1-0.8,1.1-2.3,0.3-3.3c-0.7-0.9-2-1.1-3-0.5c0-0.5-0.2-1-0.5-1.4
				c-0.8-1-2.3-1.1-3.3-0.3c-0.1,0.1-0.2,0.2-0.3,0.3c-0.1-0.3-0.2-0.6-0.5-0.9c-0.8-1-2.3-1.1-3.3-0.3c-0.2,0.2-0.4,0.4-0.6,0.7
				c0,0-0.1-0.1-0.1-0.1c-0.8-0.9-2-1.2-3.1-0.8c0.6-1,0.5-2.3-0.3-3.2c0,0-0.1-0.1-0.1-0.1c0.3-0.1,0.6-0.2,0.8-0.4
				c1-0.8,1.1-2.3,0.3-3.3c-0.2-0.3-0.5-0.5-0.8-0.6c0.1-0.1,0.3-0.2,0.4-0.3c1-0.8,1.1-2.3,0.3-3.3c-0.3-0.4-0.8-0.7-1.3-0.8
				c0.7-0.9,0.8-2.2,0-3.1c-0.8-1-2.3-1.1-3.3-0.3C52.7,197.1,61.2,208,61.2,208z"/>
			<g>
				<path class="st26" d="M68.9,183.9l-3.5,3c0,0-0.1,0.1-0.1,0.1c-0.4,0.1-1.8,0.3-2.2-1c-0.5-1.6,2.7-3.9,5.8-2.6
					C69.1,183.4,69.1,183.7,68.9,183.9z"/>
				<path class="st26" d="M85.9,204.5l-3.5,3c0,0-0.1,0.1-0.1,0.1c-0.1,0.3-0.6,1.7,0.6,2.4c1.5,0.8,4.3-2.1,3.6-5.3
					C86.4,204.4,86.1,204.3,85.9,204.5z"/>
			</g>
			<g>
				<path class="st12" d="M71.5,193.8c0.7-0.6,1-1.4,0.7-1.8c-0.3-0.4-1.2-0.2-1.9,0.3c-0.7,0.6-1,1.4-0.7,1.8
					C70,194.6,70.8,194.4,71.5,193.8z"/>
				<path class="st12" d="M77.9,201.6c0.7-0.6,1-1.4,0.7-1.8c-0.3-0.4-1.2-0.2-1.9,0.3c-0.7,0.6-1,1.4-0.7,1.8
					C76.4,202.3,77.2,202.2,77.9,201.6z"/>
			</g>
			<path class="st28" d="M76.3,192.1c-0.5,0.7,0.1,1.4-1,2.4c-1.2,1.1-2.6,2.5-2,3.2c0.5,0.7,2.2-0.5,3.4-1.5c1.3-1,1.8-0.2,2.5-0.6
				c0.8-0.4,0.5-1.2,0-1.5c0,0,0.3-0.6-0.3-1.3c-0.6-0.7-1.2-0.5-1.2-0.5C77.5,191.8,76.8,191.4,76.3,192.1z"/>
			<path class="st3" d="M83,189.4c-1.3-1.6-3.6-1.9-5.3-0.7c-0.1,0.1-0.2,0.3,0,0.4l4.6,5.6c0.1,0.1,0.3,0.2,0.4,0
				C84.2,193.4,84.3,191,83,189.4z"/>
			<path class="st29" d="M83.9,191.5c-0.1-0.8-0.4-1.5-0.9-2.1s-1.2-1-1.9-1.3c-0.5,0.8-0.5,1.9,0.1,2.7
				C81.9,191.7,83,191.9,83.9,191.5z"/>
			<g>
				<polygon class="st30" points="81.5,173.2 93.1,163.4 92,162 80.7,171.5 				"/>
				<polygon class="st30" points="100,194.8 111.2,185.3 110,183.9 98.5,193.8 				"/>
			</g>
			<polygon class="st22" points="93.1,163.4 110,183.9 105.1,188.1 88.2,167.6 			"/>
		</g>
		<g>
			<g>
				<path class="st22" d="M79.4,240.8l18,21.8c2,2.4,5.5,2.7,7.8,0.7l13-11.1c2.3-2,2.7-5.6,0.7-7.9l-14.4-17.4l0.6-7.6
					c0-0.2-0.2-0.4-0.4-0.2l-3.9,3.3c-2-2.3-5.4-2.5-7.7-0.6l-13,11.1C77.7,234.8,77.4,238.4,79.4,240.8z"/>
			</g>
			<text transform="matrix(-0.638 -0.7733 0.7624 -0.6471 107.1088 247.9522)" class="st8 st9 st31">Ciao</text>
		</g>
	</g>
	<g>
		<ellipse class="st32" cx="151.4" cy="127.2" rx="71.8" ry="72.8"/>
		<path class="st33" d="M196.4,73.4c-2.6-1.4-9.2-3.8-15.7-4.1c-6.5-0.3-12.8,1.1-14.7,1.3c-1.9,0.1-3.2-1.5-3.1-2
			c0.2-0.6,2.5,0.1,4.1,0.1c1.6,0,2.7-0.8,2-1.4c-0.6-0.6-15.1-2.4-19.4-2.1c-4.3,0.3-7.5,1.4-8.6,2s-3.2,3.1-4.6,3.3
			c-1.5,0.3-5.7,1.8-6,3.1c-0.3,1.3,0.1,2.7,2.7,2.6c2.6-0.1,1.8-1.4,3-1.3c1.2,0.1,1.1,3.1,3.4,2.9c2.3-0.2,3.7-1.9,4.3-2.5
			c0.7-0.6,0.3-1.9,0.1-2.8c-0.2-0.9,1.3-1.2,3-2.4c1.7-1.2,4.9-2,5.2-0.8c0.3,1.2-3.5,1.5-3.8,2.7c-0.3,1.2,1.1,1.2,2.3,1.6
			c1.2,0.4-1.5,4.2-2.8,4.9c-1.2,0.8-10.1,1-13.7,1c-3.7,0-5.5,2.7-7.2,3.8c-1.7,1.1-3.7,2.7-5.1,2.8s-2.9,0.1-3.1,0.5
			c-0.2,0.5,1.2,1.3,2.3,1.8c1.1,0.5,1.5,2.3,0.5,3.1c-1.1,0.8-4.6,0.2-6.7,0.3c-2.1,0.2-1.4,1.1-1.7,3.4c-0.3,2.3-0.6,3.4,0.4,3.7
			c1,0.3,1.8,0.3,2.3,0.7c0.5,0.4,1.3,0.6,1.7-0.1c0.2-0.4,0.6-0.5,2.1-0.6c1.5-0.2,2.2-2.3,2.4-3.2c0.3-0.9,2.1-1.4,3.6-1.9
			c1.6-0.5,1.1-2,2.9-2.2c1.7-0.2,3-1.1,4.2-1.5c1.2-0.4,6.4,4,7.6,4.5c1.2,0.5,0.4,2,1,2.4c0.6,0.5,3.1-1.7,3.1-2.5
			c0-0.7-6.9-4.2-7.2-4.6c-0.3-0.4,0.3-1.3,1.3-1.3c1,0,7,3.1,7.7,5.2c0.7,2.1,1.3,4.4,2.1,4.4c0.8,0,2.1-0.6,2.7-1.9
			c0.6-1.3-1.4-2.6,0-3.3c1.4-0.6,1.5,0.2,2.3,2.6c0.7,2.5,2.1,2.9,3.9,3.3c1.8,0.4,1.4-0.6,3.3-0.1c1.9,0.5,2.1,0.1,3.2-0.7
			c1.1-0.7,2.8,0.7,2.5,2.3c-0.2,1.7-1.5,4-3.3,4.7c-1.9,0.7-7.7,0.1-10-1c-2.3-1-3.4-1.7-5.2-1.4c-1.8,0.3-0.9,1.8-1.6,3.2
			c-0.7,1.3-10.6-2.1-11.1-3.3c-0.5-1.3,0.8-3.4,0.3-4.2c-0.5-0.8-8.8,0.2-11.1,0.2c-2.3-0.1-3.4,2.2-4.6,2.6
			c-1.2,0.4-1.6-0.3-2.5-0.3c-1,0-1.2,0.7-1.6,1.5c-0.4,0.9-1.9,2.1-3.8,3.7c-1.9,1.6-6.2,7.4-7.5,12.8c-1.3,5.4-0.7,8.4,3.6,14.3
			c4.4,5.8,8,5.8,12.4,4.9c4.5-0.9,8.9-1,10.7,0.6c1.8,1.7,2.2,4.9,2.2,7.9c0,2.9,5,8.1,5.5,10.3s-2.5,6.6-1.5,9.5
			c1.1,2.9,5.3,8.9,6.7,12.7c1.4,3.8,2,4.5,8.9,3.1c6.9-1.4,7.3-5.9,9.6-7.6c2.3-1.8,2.3-4,2.6-5.6c0.3-1.6,2.8-2.9,5.4-5.1
			c2.6-2.2,0.2-7.7-0.1-11.3c-0.2-3.6,4.7-8.8,9.5-12.6c4.7-3.8,5-10.3,4.3-10.4c-0.7-0.1-3.7,1.4-5.9,1.7c-2.3,0.3-3.9-1.8-7.2-5.7
			c-3.3-4-8-15.8-6.6-15.7c1.4,0.2,7.1,7.9,9.3,10.7c2.2,2.8,1.9,5.4,1.9,6.8c0,1.4,1.7,1.1,4.8-0.1c3.1-1.3,12.5-7.2,12.9-8.8
			c0.5-1.7-3.1-4.9-4-5c-1-0.1-2.7,1.5-4.5,0.3c-1.8-1.2-4.3-7.2-3-7.7c1.3-0.5,2.1,2.2,6.2,4.7c4.1,2.5,6.9,1.7,11,2.3
			c4.1,0.7,5.4,2.5,7,7.2c1.6,4.7,2.5,12.8,3.6,12.9c1.1,0.1,2.7-1.9,2.7-5.3c0-3.3,2.4-8.4,5.3-8.7c2.9-0.3,5.5,11.5,5.5,11.5
			s0,0,0,0c0.1-1.2,0.1-2.5,0.1-3.7c0-20-7.9-38-20.7-51.2C200.4,75.2,197.8,74.2,196.4,73.4z"/>
		<path class="st33" d="M118,84.3c0.1,0.8,4.7-0.2,5.6-0.7c0.9-0.5,0.9-1.6,0-2.9c-0.9-1.3-2.7-4.4-3.7-4.2c-1,0.3-2.1,1.4-1.4,2.5
			c0.8,1.1,2,2,1.7,2.5C119.9,82,117.9,83.2,118,84.3z"/>
		<path class="st33" d="M113.2,84.7c0.5,0.7,4.1-1.5,4.5-2.3c0.5-0.8,0.1-1.9-0.8-1.9c-0.9,0-3.4,2.5-3.7,3.2
			C112.9,84.5,113.2,84.7,113.2,84.7z"/>
		<path class="st32" d="M156.2,92.4c0.9,1.5,3.8,0.6,6,0.5c2.3-0.2,6,1.4,8.3,1.1c2.3-0.3,0.1-2.9-1.9-4.5c-2-1.6-1.9-2.2-3.3-1.3
			c-1.4,1-2.2,1.9-2.8,0.9c-0.6-1-1.6-1.7-3-1.4C158.2,88.1,155.5,91.4,156.2,92.4z"/>
		<path class="st32" d="M186.6,90c0.1-0.8-6.3-1.9-7.7-0.9c-1.4,1,3.4,4.8,3,5.7c-0.4,0.9-1.5,2.3,0.4,3.6c1.9,1.3,4.7,1.4,4.7,0.3
			c0-1.1-1.8-3.2-1.2-3.6c0.6-0.5,1.9-0.8,0.9-1.5c-1-0.7-1.1,0.3-2.6-1c-1.5-1.4-0.6-2.2,0.3-2C185.3,90.7,186.5,90.9,186.6,90z"/>
		<path class="st33" d="M175.3,173.3c1.4,0.8,3.6-2,4.8-5c1.2-3,0.8-4.6,1.9-5.4c1-0.9,0.1-4.4-0.5-4.3c-0.6,0.1-1,3-2.8,3.6
			c-1.8,0.5-2.7,0.7-2.9,2.1c-0.2,1.4,0.3,2.9-0.5,3.6C174.5,168.4,173.5,172.2,175.3,173.3z"/>
		<path class="st33" d="M90.1,146.8c-1.7-1.3-4.8-2.7-6.6-4.9c-1.5-1.8-1.8-5.2-3.6-7.5c1,10.6,4.3,20.5,9.3,29.3
			c0.5-1.7,1.1-4.2,0.8-6c-0.6-3-1.1-3.8,0.1-4.7C91.3,152.1,91.8,148.1,90.1,146.8z"/>
		<path class="st33" d="M138.7,59.6c-0.2,1,2.2,0.6,3.1,1.5c0.9,0.8,2.1,1.3,3.3,0.4c1.2-0.9,3.4-0.3,4.9,0.2c1.5,0.5,3-1.5,3.5-1.7
			c0.5-0.2,1.2-1.9,0-2.2c-1.2-0.3-5.1,0.6-7.5,0.4C143.7,58,139,57.9,138.7,59.6z"/>
	</g>
</g>
</svg>
