<?xml version="1.0" encoding="utf-8"?>
<!-- Generator: Adobe Illustrator 25.1.0, SVG Export Plug-In . SVG Version: 6.00 Build 0)  -->
<svg version="1.1" id="_x31_" xmlns="http://www.w3.org/2000/svg" xmlns:xlink="http://www.w3.org/1999/xlink" x="0px" y="0px"
	 viewBox="0 0 300 265" style="enable-background:new 0 0 300 265;" xml:space="preserve">
<style type="text/css">
	.st0{fill-rule:evenodd;clip-rule:evenodd;fill:#181914;}
	.st1{fill-rule:evenodd;clip-rule:evenodd;fill:#30302E;}
	.st2{fill-rule:evenodd;clip-rule:evenodd;fill:#494947;}
	.st3{fill-rule:evenodd;clip-rule:evenodd;fill:#363634;}
	.st4{fill-rule:evenodd;clip-rule:evenodd;fill:#161713;}
	.st5{fill-rule:evenodd;clip-rule:evenodd;fill:#807C7F;}
	.st6{fill-rule:evenodd;clip-rule:evenodd;fill:#BBB8BB;}
	.st7{fill-rule:evenodd;clip-rule:evenodd;fill:#EDECEC;}
	.st8{fill-rule:evenodd;clip-rule:evenodd;fill:#FF6600;}
	.st9{fill-rule:evenodd;clip-rule:evenodd;fill:#E9EDF2;}
	.st10{fill-rule:evenodd;clip-rule:evenodd;fill:#9EB0C4;}
	.st11{fill-rule:evenodd;clip-rule:evenodd;fill:#C4CFDB;}
	.st12{fill-rule:evenodd;clip-rule:evenodd;fill:#D64304;}
	.st13{fill-rule:evenodd;clip-rule:evenodd;fill:#FF8800;}
	.st14{fill-rule:evenodd;clip-rule:evenodd;fill:url(#SVGID_1_);}
	.st15{fill-rule:evenodd;clip-rule:evenodd;fill:#1A58BA;}
	.st16{fill-rule:evenodd;clip-rule:evenodd;fill:#8F8F8F;}
	.st17{fill-rule:evenodd;clip-rule:evenodd;fill:#FFFFFF;}
	.st18{fill-rule:evenodd;clip-rule:evenodd;fill:#CC9933;}
	.st19{fill-rule:evenodd;clip-rule:evenodd;fill:#FFCC00;}
	.st20{fill-rule:evenodd;clip-rule:evenodd;fill:#528BDD;}
	.st21{fill:#FFFFFF;}
	.st22{fill-rule:evenodd;clip-rule:evenodd;fill:#F3F6F9;}
	.st23{fill-rule:evenodd;clip-rule:evenodd;fill:#7D91A8;}
	.st24{fill-rule:evenodd;clip-rule:evenodd;fill:#3C3C3B;}
	.st25{fill-rule:evenodd;clip-rule:evenodd;fill:#575756;}
	.st26{opacity:0.43;fill-rule:evenodd;clip-rule:evenodd;fill:#FFFFFF;enable-background:new    ;}
	.st27{fill:#1D1D1B;}
	.st28{fill-rule:evenodd;clip-rule:evenodd;fill:#BDBCBC;}
	.st29{fill-rule:evenodd;clip-rule:evenodd;fill:#DADADA;}
	.st30{fill-rule:evenodd;clip-rule:evenodd;fill:url(#SVGID_2_);}
	.st31{fill-rule:evenodd;clip-rule:evenodd;fill:#475053;}
	.st32{fill:#EDECEC;}
	.st33{fill:#E9EDF2;}
	.st34{fill:#FAFAFA;}
	.st35{fill-rule:evenodd;clip-rule:evenodd;fill:#BEC8D4;}
	.st36{fill-rule:evenodd;clip-rule:evenodd;fill:#EDA070;}
	.st37{fill-rule:evenodd;clip-rule:evenodd;fill:#181D2E;}
	.st38{fill-rule:evenodd;clip-rule:evenodd;fill:#262C42;}
	.st39{fill-rule:evenodd;clip-rule:evenodd;fill:#2E1703;}
	.st40{fill-rule:evenodd;clip-rule:evenodd;fill:#D8E0EA;}
	.st41{fill-rule:evenodd;clip-rule:evenodd;fill:#4F2B0C;}
	.st42{fill-rule:evenodd;clip-rule:evenodd;fill:#0D3C87;}
	.st43{fill-rule:evenodd;clip-rule:evenodd;fill:#2E2111;}
	.st44{fill-rule:evenodd;clip-rule:evenodd;fill:#3B1E05;}
	.st45{fill-rule:evenodd;clip-rule:evenodd;fill:#FCC39A;}
	.st46{fill-rule:evenodd;clip-rule:evenodd;fill:#221F1F;}
	.st47{fill-rule:evenodd;clip-rule:evenodd;fill:#9E762C;}
	.st48{fill-rule:evenodd;clip-rule:evenodd;fill:#9D9D9C;}
	.st49{fill-rule:evenodd;clip-rule:evenodd;fill:#283C42;}
	.st50{fill-rule:evenodd;clip-rule:evenodd;fill:#F2B387;}
	.st51{fill-rule:evenodd;clip-rule:evenodd;fill:#DB9669;}
	.st52{fill-rule:evenodd;clip-rule:evenodd;fill:#EEECF3;}
	.st53{fill-rule:evenodd;clip-rule:evenodd;fill:#384D54;}
	.st54{fill-rule:evenodd;clip-rule:evenodd;fill:#982725;}
	.st55{fill-rule:evenodd;clip-rule:evenodd;fill:#B41F21;}
	.st56{fill-rule:evenodd;clip-rule:evenodd;fill:#CA2C2A;}
	.st57{fill-rule:evenodd;clip-rule:evenodd;fill:#333333;}
	.st58{fill-rule:evenodd;clip-rule:evenodd;fill:#474545;}
	.st59{fill-rule:evenodd;clip-rule:evenodd;fill:#5C5B5B;}
	.st60{fill-rule:evenodd;clip-rule:evenodd;fill:#42301A;}
	.st61{fill-rule:evenodd;clip-rule:evenodd;fill:#5C4931;}
	.st62{fill-rule:evenodd;clip-rule:evenodd;fill:#576566;}
	.st63{fill:#242323;}
	.st64{fill:#5C5B5B;}
	.st65{fill:#333333;}
	.st66{fill-rule:evenodd;clip-rule:evenodd;fill:#6E6C6C;}
	.st67{fill:#878787;}
	.st68{fill-rule:evenodd;clip-rule:evenodd;fill:#878787;}
	.st69{fill-rule:evenodd;clip-rule:evenodd;fill:#242323;}
	.st70{fill-rule:evenodd;clip-rule:evenodd;fill:#6777AD;}
	.st71{fill-rule:evenodd;clip-rule:evenodd;fill:#A6A6A6;}
	.st72{fill-rule:evenodd;clip-rule:evenodd;fill:#33CC99;}
	.st73{fill-rule:evenodd;clip-rule:evenodd;fill:#66FFCC;}
	.st74{fill-rule:evenodd;clip-rule:evenodd;fill:#787878;}
	.st75{fill-rule:evenodd;clip-rule:evenodd;fill:#323232;}
	.st76{fill-rule:evenodd;clip-rule:evenodd;fill:#2160C4;}
	.st77{fill-rule:evenodd;clip-rule:evenodd;fill:#0E47A1;}
	.st78{fill-rule:evenodd;clip-rule:evenodd;fill:#EAEEF3;}
	.st79{fill-rule:evenodd;clip-rule:evenodd;fill:#9D3EBD;}
	.st80{fill-rule:evenodd;clip-rule:evenodd;fill:#57367A;}
	.st81{fill-rule:evenodd;clip-rule:evenodd;fill:#40235E;}
	.st82{fill-rule:evenodd;clip-rule:evenodd;fill:#3F210A;}
	.st83{fill-rule:evenodd;clip-rule:evenodd;fill:#331A06;}
	.st84{fill:#263238;}
	.st85{fill:#1A2E35;}
</style>
<g>
	<polygon class="st0" points="109.7,120.2 181.8,161.3 181.8,167.6 109.7,126.5 	"/>
	<g>
		<polygon class="st1" points="148.4,149.7 172.6,163.5 172.6,175.6 148.4,161.8 		"/>
		<polygon class="st2" points="148.5,149.7 172.6,163.5 183.3,157.3 159.3,143.5 		"/>
		<polygon class="st0" points="172.6,175.6 172.6,163.5 183.3,157.3 183.3,169.4 		"/>
	</g>
	<g>
		<path class="st3" d="M124.5,140.3l11.5,19.1l7.6-4.3c7.6-4.3-3.7-23.9-11.2-19.2L124.5,140.3z"/>
		<path class="st4" d="M130.1,140.9c4.3,2.5,8,8.6,8,13.6c0,5-3.5,7.1-8,4.6c-4.3-2.5-8-8.6-8-13.6
			C122.1,140.5,125.8,138.5,130.1,140.9z"/>
		<path class="st5" d="M130.1,142.9c3.4,2,6.2,6.7,6.2,10.5c0,3.9-2.8,5.5-6.2,3.6c-3.4-2-6.2-6.7-6.2-10.5
			C123.9,142.6,126.7,141,130.1,142.9z"/>
		<path class="st6" d="M130.1,143.9c2.9,1.8,5.4,5.9,5.4,9.3c0,3.4-2.5,4.8-5.4,3.2c-2.9-1.8-5.4-5.9-5.4-9.3
			C124.7,143.5,127.1,142.1,130.1,143.9z"/>
		<path class="st7" d="M130.1,144.7c2.6,1.4,4.6,5,4.6,8c0,1.2-0.4,2-0.8,2.6c0.1-0.5,0.2-0.9,0.2-1.5c0-3-2.1-6.8-4.8-8.2
			c-1.2-0.7-2.3-0.8-3.2-0.5C126.9,144,128.5,143.7,130.1,144.7z"/>
	</g>
	<polygon class="st8" points="101.5,61.9 173.6,103 173.6,160.4 101.5,119.3 	"/>
	<polygon class="st9" points="101.6,61.9 173.6,103 224.5,73.6 152.9,32.3 	"/>
	<polygon class="st10" points="173.6,160.4 173.6,103 224.5,73.6 224.5,130.9 	"/>
	<polygon class="st9" points="181.4,107 185.6,109.2 219.5,89.5 215.4,87.2 	"/>
	<polygon class="st11" points="185.6,148 185.6,109.2 181.4,107 181.2,145.5 	"/>
	<polygon class="st10" points="185.6,148 185.6,109.2 219.5,89.5 219.6,128.3 	"/>
	<polygon class="st4" points="198.3,180.4 201.8,189.3 213.2,182.9 	"/>
	<g>
		<path class="st7" d="M212.6,192.1l2.2,3.7l10-5.6c1.5-0.8-0.7-4.7-2.2-3.7L212.6,192.1z"/>
		<path class="st3" d="M204.8,186.1l11.5,19.1l7.6-4.3c7.6-4.3-3.7-23.9-11.2-19.2L204.8,186.1z"/>
		<path class="st4" d="M210.3,186.7c4.3,2.5,8,8.6,8,13.6c0,5-3.5,7.1-8,4.6c-4.3-2.5-8-8.6-8-13.6
			C202.5,186.3,206,184.3,210.3,186.7z"/>
		<path class="st5" d="M210.3,188.7c3.4,2,6.2,6.7,6.2,10.5c0,3.9-2.8,5.5-6.2,3.6c-3.4-2-6.2-6.7-6.2-10.5
			C204.2,188.4,206.9,186.8,210.3,188.7z"/>
		<path class="st6" d="M210.3,189.7c2.9,1.8,5.4,5.9,5.4,9.3c0,3.4-2.5,4.8-5.4,3.2c-2.9-1.8-5.4-5.9-5.4-9.3
			C205,189.3,207.4,187.9,210.3,189.7z"/>
		<path class="st7" d="M210.3,190.5c2.6,1.4,4.6,5,4.6,8c0,1.2-0.4,2-0.8,2.6c0.1-0.5,0.2-0.9,0.2-1.5c0-3-2.1-6.8-4.8-8.2
			c-1.2-0.7-2.3-0.8-3.2-0.5C207.3,189.8,208.7,189.5,210.3,190.5z"/>
	</g>
	<path class="st12" d="M262,179c0-17.9,0-54-20.1-65.6l-14.2-8.2L193,144.9c17.5,17.6,28.1,34.1,29.9,56.6
		C237.2,197,253.9,187.8,262,179z"/>
	<path class="st13" d="M255.9,131.2c-2.9-7.5-7.4-13.9-14.1-17.7l-3.6-2.1l0,0l-31.7,18.3L195,142.8l21.8,11L255.9,131.2z"/>
	<path class="st9" d="M182.2,125.8l22.3,11.2l39.1-22.6L224,103.2c-0.7-0.5-1.6-0.5-2.3,0L182.2,125.8z"/>
	<path class="st11" d="M222.9,201.6c0-17.9,0-53.9-20.1-65.6l-17.9-10.3c-0.7-0.5-1.6-0.5-2.3,0c-0.9,0.6-1.2,1.4-1.2,2.5v49.4
		l20.5,11.8c0.7-5,4.8-7.4,9.6-4.6c4.9,2.8,9.3,9.1,9.6,15.7L222.9,201.6z"/>
	
		<linearGradient id="SVGID_1_" gradientUnits="userSpaceOnUse" x1="258.483" y1="71.5667" x2="222.8501" y2="135.8502" gradientTransform="matrix(1 0 0 -1 0 265)">
		<stop  offset="0" style="stop-color:#3A6DD4"/>
		<stop  offset="0.4545" style="stop-color:#3A6DC2"/>
		<stop  offset="0.67" style="stop-color:#FFFFFF"/>
		<stop  offset="0.87" style="stop-color:#3A6DD2"/>
	</linearGradient>
	<path class="st14" d="M211.9,168v-17l42.2-24.2c5.4,10.5,7.1,24.2,7.7,36.1c-8.2,14.9-24.8,24-39.1,22.5
		C220.6,178.8,215.5,174,211.9,168z"/>
	<path class="st15" d="M214.6,149l-24.7-14.2c-0.5,11.5,5.4,34.6,16.2,40.9l16.5,9.7C221.9,173.4,220.2,159.7,214.6,149z"/>
	<g>
		<g>
			<path class="st16" d="M241.7,188.6c-0.8,0.5-1.5,1.6-1.5,2.6c0,0.9,0.7,1.3,1.5,0.8c0.8-0.5,1.5-1.6,1.5-2.6
				C243.3,188.5,242.6,188.1,241.7,188.6z"/>
			<path class="st17" d="M241.7,188.8c-0.7,0.4-1.2,1.3-1.2,2c0,0.7,0.5,1.1,1.2,0.7c0.7-0.4,1.2-1.3,1.2-2
				C242.9,188.8,242.4,188.5,241.7,188.8z"/>
		</g>
		<g>
			<path class="st16" d="M245.1,186.6c-0.8,0.5-1.5,1.6-1.5,2.6c0,0.9,0.7,1.3,1.5,0.8c0.8-0.5,1.5-1.6,1.5-2.6
				C246.5,186.5,246,186.1,245.1,186.6z"/>
			<path class="st17" d="M245.1,187c-0.7,0.4-1.2,1.3-1.2,2c0,0.7,0.5,1.1,1.2,0.7c0.7-0.4,1.2-1.3,1.2-2
				C246.3,186.8,245.7,186.6,245.1,187z"/>
		</g>
		<g>
			<path class="st16" d="M248.5,184.7c-0.8,0.5-1.5,1.6-1.5,2.6c0,0.9,0.7,1.3,1.5,0.8c0.8-0.5,1.5-1.6,1.5-2.6
				C249.9,184.6,249.3,184.3,248.5,184.7z"/>
			<path class="st17" d="M248.5,185c-0.7,0.4-1.2,1.3-1.2,2c0,0.7,0.5,1.1,1.2,0.7c0.7-0.4,1.2-1.3,1.2-2S249.1,184.6,248.5,185z"/>
		</g>
	</g>
	<path class="st3" d="M225.6,185.6c0.5,0.4,0.8,0.8,1.1,1.4c1.9,3.6,3.5,7.5,4.9,11.5c-2.9,1.2-5.9,2.3-8.7,3.2
		c0-4.5,0-10.1-0.4-16.2l0,0C223.6,185.6,224.5,185.6,225.6,185.6z"/>
	<g>
		<path class="st16" d="M227.3,194c-1.1,0.6-2,2.1-2,3.4c0,1.3,0.8,1.8,2,1.2c1.1-0.6,2-2.1,2-3.4
			C229.3,193.9,228.4,193.4,227.3,194z"/>
		<path class="st17" d="M227.3,194.5c-0.8,0.5-1.5,1.6-1.5,2.7c0,0.9,0.7,1.4,1.5,0.9s1.5-1.6,1.5-2.7
			C228.8,194.3,228.1,194,227.3,194.5z"/>
	</g>
	<g>
		<path class="st18" d="M225.5,189.4c-1.1,0.6-2,2.1-2,3.4c0,1.3,0.8,1.8,2,1.2c1.1-0.6,2-2.1,2-3.4S226.6,188.8,225.5,189.4z"/>
		<path class="st19" d="M225.5,189.9c-0.8,0.5-1.5,1.6-1.5,2.7c0,0.9,0.7,1.4,1.5,0.9c0.8-0.5,1.5-1.6,1.5-2.7
			C227.1,189.8,226.4,189.4,225.5,189.9z"/>
	</g>
	<path class="st3" d="M260.6,164.8c-0.5,2-1.1,3.7-1.2,5c-0.5,2.9-0.8,8.1-1.2,12.8c1.4-1.2,2.7-2.5,3.7-3.6c0-4.5,0-10.1-0.4-16
		C261.4,163.5,260.9,164.2,260.6,164.8z"/>
	<g>
		<path class="st16" d="M260.2,175.5c-0.6,0.6-1.2,2.1-1.2,3.4c0,1.3,0.5,1.8,1.2,1.2c0.6-0.6,1.2-2.1,1.2-3.4
			C261.4,175.4,260.9,174.8,260.2,175.5z"/>
		<path class="st17" d="M260.2,176c-0.5,0.5-0.9,1.6-0.9,2.7c0,0.9,0.5,1.4,0.9,0.9c0.5-0.5,0.9-1.6,0.9-2.7
			C261.2,175.8,260.8,175.4,260.2,176z"/>
	</g>
	<g>
		<path class="st18" d="M260.7,169.2c-0.6,0.6-1.2,2.1-1.2,3.4c0,1.3,0.5,1.8,1.2,1.2c0.6-0.6,1.2-2.1,1.2-3.4
			C261.9,169,261.3,168.5,260.7,169.2z"/>
		<path class="st19" d="M260.7,169.5c-0.5,0.5-0.9,1.6-0.9,2.7c0,0.9,0.5,1.4,0.9,0.9c0.5-0.5,0.9-1.6,0.9-2.7
			C261.6,169.5,261.2,169,260.7,169.5z"/>
	</g>
	<path class="st20" d="M213.6,149.8l-22.1-12.8c12.8,28.2,14.2,35.7,29.4,46C220.4,172.1,218.8,159.6,213.6,149.8z"/>
	<g>
		<polygon class="st21" points="219,135.1 218.4,134.2 216.3,135.3 217,136.2 217.6,135.9 221.9,141.7 222.8,141.3 218.4,135.4 		
			"/>
		<polygon class="st21" points="224,139.3 222.4,137.2 223.3,136.6 222.8,135.8 221.8,136.2 220.3,134.4 221.4,133.8 220.6,132.8 
			218.9,133.9 223.8,140.7 225.7,139.6 225,138.7 		"/>
		<polygon class="st21" points="226.5,137.9 222.2,132 221.4,132.5 226.4,139.2 228.1,138.2 227.6,137.3 		"/>
		<polygon class="st21" points="228.8,136.5 227.3,134.4 228.1,133.9 227.6,133 226.6,133.5 225.2,131.6 226.2,131 225.5,130.1 
			223.7,131.1 228.7,137.9 230.5,136.8 229.9,136 		"/>
		<polygon class="st21" points="227.8,128.7 229.8,132 231.2,134.2 231.2,134.2 229.3,132.3 226.7,129.3 226,129.8 231.8,136.1 
			232.8,135.5 228.6,128.4 		"/>
		<polygon class="st21" points="229.2,127.9 234.2,134.7 235.1,134.2 230,127.5 		"/>
		<path class="st21" d="M235.8,129.8c-0.4-0.2-0.7-0.5-1.2-0.6l-0.8-0.4c-0.2-0.1-0.5-0.2-0.7-0.4c-0.1-0.1-0.4-0.2-0.5-0.5
			c-0.1-0.2-0.2-0.4-0.2-0.6c0-0.1,0-0.2,0.1-0.4c0.1-0.1,0.2,0,0.4,0.1c0.1,0.1,0.4,0.4,0.6,0.7l0.4,0.5l0.7-0.5l-0.4-0.5
			c-0.5-0.6-0.8-1.1-1.3-1.3c-0.4-0.2-0.8-0.2-1.2,0c-0.4,0.2-0.6,0.6-0.6,0.9s0.2,0.8,0.7,1.4c0.2,0.4,0.5,0.6,0.8,0.8
			c0.4,0.2,0.6,0.4,0.9,0.5l0.8,0.2c0.4,0.1,0.6,0.2,0.8,0.5c0.2,0.1,0.5,0.4,0.7,0.7c0.2,0.2,0.4,0.5,0.4,0.7c0,0.1,0,0.2-0.1,0.4
			c-0.1,0.1-0.2,0-0.5-0.1c-0.1-0.1-0.4-0.4-0.7-0.7l-0.5-0.7l-0.7,0.5l0.5,0.6c0.5,0.7,0.9,1.1,1.3,1.3c0.5,0.2,0.8,0.2,1.3,0
			c0.5-0.2,0.6-0.6,0.6-0.9c0-0.4-0.4-0.9-0.8-1.5C236.5,130.4,236.1,130.1,235.8,129.8z"/>
		<polygon class="st21" points="233.8,125.3 238.7,132.1 239.5,131.7 234.5,124.9 		"/>
		<path class="st21" d="M239,125L239,125c-0.5-0.6-0.9-1.1-1.3-1.3c-0.5-0.2-0.8-0.2-1.2,0c-0.8,0.5-0.7,1.3,0.2,2.6l2.2,3l0.1,0.1
			c0.5,0.6,0.9,1.1,1.3,1.2c0.5,0.2,0.8,0.2,1.3,0c0.4-0.2,0.6-0.6,0.5-0.9c0-0.5-0.4-0.9-0.8-1.6L239,125z M240.9,129.7
			c-0.1,0.1-0.4,0.1-0.5-0.1c-0.1-0.1-0.4-0.4-0.7-0.8l-0.7-1.1l-1.5-2.1c-0.2-0.4-0.4-0.6-0.5-0.7c0-0.2,0-0.4,0.1-0.4
			c0.1-0.1,0.2,0,0.5,0.1c0.1,0.1,0.4,0.4,0.6,0.7l0.8,1.2l1.4,2c0.2,0.4,0.5,0.7,0.6,0.8C241,129.6,241,129.7,240.9,129.7z"/>
		<polygon class="st21" points="245.8,128 240.9,121.2 240.1,121.7 241.7,123.9 243.1,125.7 239,122.3 238.5,122.7 243.5,129.4 
			244.2,129 242.4,126.6 241,124.9 245.2,128.4 		"/>
	</g>
	<g>
		<polygon class="st11" points="176.8,95.6 173.6,92 185.9,84.8 189.1,88.4 		"/>
		<polygon class="st10" points="161.3,85 173.6,92 176.8,95.6 161.3,86.8 		"/>
		<polygon class="st22" points="161.3,85 173.6,92 185.9,84.8 173.7,77.9 		"/>
	</g>
	<g>
		<polygon class="st11" points="199.3,82.9 196,79.3 208.3,72.2 211.6,75.8 		"/>
		<polygon class="st10" points="183.7,72.3 196,79.3 199.3,82.9 183.7,74.2 		"/>
		<polygon class="st22" points="183.7,72.3 196,79.3 208.3,72.2 196.2,65.1 		"/>
	</g>
	<polygon class="st17" points="122.8,105.5 173.6,134.5 173.6,147.7 116.9,115.4 	"/>
	<path class="st23" d="M217.5,98.3L188,115.5c-0.2,0.1-0.4-0.2-0.4-0.7v-0.1l30.2-17.6v0.1C217.8,97.7,217.7,98.2,217.5,98.3z"/>
	<path class="st23" d="M217.5,94.1L188,111.3c-0.2,0.1-0.4-0.2-0.4-0.7v-0.1l30.2-17.6V93C217.8,93.5,217.7,93.9,217.5,94.1z"/>
	<path class="st23" d="M217.5,99.7L188,116.9c-0.2,0.1-0.4-0.2-0.4-0.7v-0.1l30.2-17.6v0.1C217.8,99.1,217.7,99.6,217.5,99.7z"/>
	<path class="st23" d="M217.5,95.5L188,112.7c-0.2,0.1-0.4-0.2-0.4-0.7v-0.1l30.2-17.6v0.1C217.8,94.9,217.7,95.4,217.5,95.5z"/>
	<path class="st23" d="M217.5,101.1L188,118.3c-0.2,0.1-0.4-0.2-0.4-0.7v-0.1l30.2-17.6v0.1C217.8,100.5,217.7,101,217.5,101.1z"/>
	<path class="st23" d="M217.5,96.8L188,114c-0.2,0.1-0.4-0.2-0.4-0.7v-0.1l30.2-17.6v0.1C217.8,96.2,217.7,96.8,217.5,96.8z"/>
	<path class="st11" d="M217.6,96.8l-29.8,17.3c-0.2,0.1-0.4,0.6-0.4,1.1v0.1L218,97.6v-0.1C218,96.9,217.8,96.6,217.6,96.8z"/>
	<path class="st11" d="M217.6,92.4l-29.8,17.5c-0.2,0.1-0.4,0.6-0.4,1.1v0.1l30.6-17.8v-0.1C218,92.7,217.8,92.3,217.6,92.4z"/>
	<path class="st11" d="M217.6,98.2l-29.8,17.3c-0.2,0.1-0.4,0.6-0.4,1.1v0.1l30.6-17.8v-0.1C218,98.3,217.8,98,217.6,98.2z"/>
	<path class="st11" d="M217.6,93.8l-29.8,17.3c-0.2,0.1-0.4,0.6-0.4,1.1v0.1l30.6-17.8v-0.1C218,94.1,217.8,93.7,217.6,93.8z"/>
	<path class="st11" d="M217.6,99.6l-29.8,17.3c-0.2,0.1-0.4,0.6-0.4,1.1v0.1l30.6-17.8v-0.1C218,99.7,217.8,99.5,217.6,99.6z"/>
	<path class="st11" d="M217.6,95.2l-29.8,17.3c-0.2,0.1-0.4,0.6-0.4,1.1v0.1l30.6-17.8v-0.1C218,95.5,217.8,95.1,217.6,95.2z"/>
	<path class="st9" d="M185.4,162.4l3,1.8c0.4,0.2,0.6,0.8,0.6,1.3v2.5c0,0.5-0.2,0.7-0.6,0.6l-3-1.8c-0.4-0.2-0.6-0.8-0.6-1.3v-2.5
		C184.8,162.4,185,162.1,185.4,162.4z"/>
	<path class="st10" d="M189.1,168.1l-2.9-1.8c-0.4-0.2-0.6-0.8-0.6-1.3v-2.5c0-0.1,0-0.1,0-0.2l2.9,1.8c0.4,0.2,0.6,0.8,0.6,1.3v2.5
		C189.1,168,189.1,168,189.1,168.1z"/>
	<g>
		<polygon class="st24" points="183.4,163.2 184.5,162.7 184.5,164.2 183.6,164.7 		"/>
		<polygon class="st24" points="188.8,166.3 189.7,165.8 189.7,167.3 188.9,167.8 		"/>
		<path class="st25" d="M183.6,163.2l5.2,3c0.1,0.1,0.2,0.2,0.2,0.5v0.8c0,0.2-0.1,0.4-0.4,0.2l-5-2.9c-0.1-0.1-0.2-0.4-0.2-0.6
			v-0.8C183.4,163.2,183.5,163.2,183.6,163.2z"/>
	</g>
	<path class="st26" d="M233.1,138.8c2.7,6.7,6.4,12.4,11.1,15.1l16.8,9.8c-0.6-12.1-2.5-25.8-7.8-36.4L233.1,138.8z"/>
	<g>
		<polygon class="st27" points="113.9,96.9 105.4,92 104.9,94.4 107.8,96.2 106,105.7 108.8,107.3 110.7,97.7 113.5,99.3 		"/>
		<path class="st27" d="M118.3,102.9l-2.3,4.9c-0.5,1.2-1.1,2.2-1.5,3.4h-0.1c0-1.4,0-2.8-0.1-4.2l-0.2-6.3L111,99l0.9,13.9l3.4,2
			l5.9-10L118.3,102.9z"/>
	</g>
	<path class="st10" d="M119.3,63.3l21.9,12.5c26.1,14.9,49.3-11,34.3-19.8l-26.9-15.7l-29.3,16.9c-1.1,0.6-1.8,1.8-1.8,3
		C117.6,61.6,118.3,62.7,119.3,63.3z"/>
	<g>
		<g>
			<path class="st28" d="M125.2,40.8l-6.6,3.7l12.2,20.3l6.3-3.6l0,0c1.5-0.8,2.5-2.8,2.5-5.5c0-5.4-3.7-11.8-8.4-14.4
				C128.8,39.9,126.7,39.8,125.2,40.8L125.2,40.8z"/>
			<path class="st11" d="M124.6,45.1c4.7,2.7,8.4,9.1,8.4,14.4c0,5.4-3.7,7.5-8.4,4.9c-4.7-2.7-8.4-9.1-8.4-14.4
				C116.2,44.6,119.9,42.4,124.6,45.1z"/>
			<path class="st23" d="M124.6,47.2c3.6,2.1,6.6,7,6.6,11.2c0,4.1-2.9,5.9-6.6,3.7c-3.6-2.1-6.6-7-6.6-11.2
				C118,46.9,121,45.1,124.6,47.2z"/>
			<path class="st10" d="M124.6,48.1c3.2,1.8,5.7,6.2,5.7,9.8c0,3.6-2.6,5.2-5.7,3.3c-3.2-1.8-5.7-6.2-5.7-9.8
				C118.9,47.8,121.4,46.3,124.6,48.1z"/>
			<path class="st17" d="M125.9,51.4c1.3,0.7,2.3,2.5,2.3,4c0,1.4-1.1,2.1-2.3,1.3c-1.3-0.7-2.3-2.5-2.3-4
				C123.5,51.3,124.6,50.7,125.9,51.4z"/>
			<path class="st29" d="M125.2,51.9c1.3,0.7,2.3,2.5,2.3,4c0,1.4-1.1,2.1-2.3,1.3c-1.3-0.7-2.3-2.5-2.3-4
				C122.8,51.8,123.9,51.2,125.2,51.9z"/>
		</g>
		<path class="st23" d="M166.9,70.1c-46.3,16.8-70.3-50.1-28-68.3C148.1,24.4,157.7,47.8,166.9,70.1z"/>
		<path class="st11" d="M183.3,28.6c5.7,19.4-3.5,38.7-20.6,42.8c-17.2,4.1-35.8-8.3-41.6-27.8c-5.7-19.4,3.5-38.7,20.6-42.8
			C158.9-3.3,177.5,9.1,183.3,28.6z"/>
		
			<linearGradient id="SVGID_2_" gradientUnits="userSpaceOnUse" x1="167.1013" y1="269.5917" x2="137.4198" y2="188.0424" gradientTransform="matrix(1 0 0 -1 0 265)">
			<stop  offset="0" style="stop-color:#96ABC2"/>
			<stop  offset="1" style="stop-color:#F9F9FB"/>
		</linearGradient>
		<path class="st30" d="M181.2,29.2c5.4,18.2-3.2,36-19.2,39.8c-15.9,3.9-33.3-7.7-38.7-25.8c-5.4-18.2,3.3-36,19.2-39.8
			S175.8,11,181.2,29.2z"/>
		<g>
			<path class="st31" d="M160.1,37c1.8,6.1-1.1,12.1-6.4,13.4c-5.4,1.3-11.1-2.6-13-8.7c-1.8-6.1,1.1-12.1,6.4-13.4
				C152.5,27.1,158.3,30.9,160.1,37z"/>
			<path class="st32" d="M151.5,50.7c-4.8,0-9.4-3.7-11-9c-0.9-3.2-0.6-6.6,0.9-9.1c1.3-2.2,3.3-3.7,5.6-4.3
				c0.7-0.1,1.4-0.2,2.1-0.2c4.8,0,9.4,3.7,11,9c0.9,3.2,0.6,6.6-0.9,9.3c-1.3,2.2-3.3,3.7-5.6,4.3
				C152.9,50.6,152.2,50.7,151.5,50.7z M149.2,28.1c-0.7,0-1.4,0.1-2.1,0.2c-2.3,0.6-4.3,2.1-5.5,4.2c-1.5,2.6-1.8,5.9-0.8,9
				c1.5,5.2,6.1,8.9,10.8,8.9c0.7,0,1.4-0.1,2.1-0.2c2.3-0.6,4.3-2.1,5.5-4.2c1.5-2.6,1.8-5.9,0.8-9C158.4,31.9,154,28.1,149.2,28.1
				z"/>
		</g>
		<g>
			<path class="st33" d="M155.3,66.8c-12.9,0-25.3-10.2-29.5-24.1c-2.6-8.7-1.6-17.7,2.3-24.7c3.4-5.9,8.8-10,15.1-11.5
				c1.9-0.5,3.7-0.7,5.7-0.7c12.9,0,25.3,10.2,29.5,24.1c2.6,8.7,1.8,17.7-2.3,24.7c-3.4,5.9-8.8,10-15.1,11.5
				C159.1,66.5,157.3,66.8,155.3,66.8z M149.1,6c-1.9,0-3.7,0.2-5.6,0.7c-6.2,1.5-11.6,5.5-14.9,11.4c-4,7-4.9,15.9-2.3,24.5
				c4.1,13.8,16.4,23.9,29.2,23.9c1.9,0,3.7-0.2,5.6-0.7c6.3-1.5,11.6-5.5,14.9-11.4c4-7,4.9-15.9,2.3-24.5C174,16,161.8,6,149.1,6z
				"/>
		</g>
		<g>
			<g>
				<path class="st33" d="M154.8,64.8c-11.9,0-23.3-9.4-27.2-22.3c-2.3-8-1.5-16.3,2.2-22.8c3.2-5.4,8.1-9.3,13.9-10.7
					c1.8-0.5,3.5-0.6,5.3-0.6c11.9,0,23.3,9.4,27.2,22.3c2.3,8,1.5,16.3-2.2,22.8c-3.2,5.4-8.1,9.3-13.9,10.7
					C158.4,64.5,156.7,64.8,154.8,64.8z M149.1,8.8c-1.8,0-3.5,0.2-5.2,0.6c-5.7,1.4-10.7,5.2-13.7,10.4c-3.7,6.4-4.5,14.6-2.1,22.5
					c3.7,12.8,15.1,22,26.8,22c1.8,0,3.5-0.2,5.2-0.6c5.7-1.4,10.7-5.2,13.7-10.4c3.7-6.4,4.5-14.6,2.1-22.5
					C172.2,18,160.8,8.8,149.1,8.8z"/>
			</g>
			<g>
				<path class="st33" d="M154.3,62.7c-10.9,0-21.3-8.6-24.8-20.4c-2.1-7.3-1.4-14.9,2-20.9c2.8-4.9,7.4-8.4,12.8-9.7
					c1.5-0.4,3.2-0.6,4.8-0.6c10.9,0,21.3,8.6,24.8,20.4c2.2,7.3,1.4,14.9-2,20.9c-2.8,4.9-7.4,8.4-12.8,9.7
					C157.6,62.6,156,62.7,154.3,62.7z M149.1,11.5c-1.6,0-3.2,0.2-4.7,0.6c-5.3,1.3-9.7,4.7-12.5,9.6c-3.4,5.9-4.1,13.4-2,20.6
					c3.5,11.7,13.8,20.1,24.6,20.1c1.6,0,3.2-0.2,4.7-0.6c5.3-1.3,9.7-4.7,12.5-9.6c3.4-5.9,4.1-13.4,2-20.6
					C170.2,20,159.9,11.5,149.1,11.5z"/>
			</g>
			<g>
				<path class="st33" d="M153.9,60.7c-9.8,0-19.3-7.7-22.6-18.5c-2-6.6-1.3-13.5,1.9-18.9c2.6-4.5,6.7-7.6,11.6-8.8
					c1.4-0.4,2.9-0.5,4.3-0.5c9.8,0,19.3,7.7,22.5,18.5c2,6.6,1.3,13.5-1.8,19c-2.6,4.5-6.7,7.6-11.6,8.8
					C156.8,60.6,155.4,60.7,153.9,60.7z M149.1,14.3c-1.4,0-2.9,0.1-4.3,0.5c-4.8,1.2-8.8,4.2-11.4,8.7c-3,5.4-3.7,12.2-1.8,18.7
					c3.2,10.5,12.5,18.3,22.3,18.3c1.4,0,2.9-0.1,4.3-0.5c4.8-1.2,8.8-4.2,11.4-8.7c3-5.4,3.7-12.2,1.8-18.7
					C168.3,22,158.9,14.3,149.1,14.3z"/>
			</g>
			<g>
				<path class="st33" d="M153.4,58.7c-8.9,0-17.3-7-20.3-16.6c-1.8-6-1.2-12.1,1.6-17c2.3-4.1,6-6.8,10.4-7.8
					c1.3-0.4,2.6-0.5,3.9-0.5c8.9,0,17.3,7,20.3,16.5c1.8,6,1.2,12.1-1.6,17c-2.3,4-6,6.8-10.4,7.8
					C156.1,58.6,154.8,58.7,153.4,58.7z M149.1,17.1c-1.3,0-2.6,0.1-3.9,0.5c-4.3,1.1-8,3.7-10.2,7.7c-2.8,4.8-3.4,10.9-1.6,16.8
					c2.8,9.5,11.2,16.4,20,16.4c1.3,0,2.6-0.1,3.9-0.5c4.3-1.1,8-3.7,10.2-7.7c2.8-4.8,3.4-10.9,1.6-16.8
					C166.3,24,157.9,17.1,149.1,17.1z"/>
			</g>
			<g>
				<path class="st33" d="M152.9,56.7c-7.8,0-15.3-6.2-17.9-14.6c-1.5-5.3-1.1-10.8,1.4-15c2.1-3.6,5.3-6.1,9.1-7
					c1.2-0.2,2.3-0.5,3.5-0.5c7.8,0,15.3,6.2,17.9,14.6c1.5,5.3,1.1,10.8-1.4,15c-2.1,3.6-5.3,6.1-9.1,7
					C155.3,56.6,154.1,56.7,152.9,56.7z M149.2,19.8c-1.2,0-2.3,0.1-3.4,0.4c-3.7,0.9-7,3.4-9,6.9c-2.5,4.2-2.9,9.6-1.4,14.9
					c2.5,8.4,10,14.5,17.7,14.5c1.2,0,2.3-0.1,3.4-0.4c3.7-0.9,7-3.4,9-6.9c2.5-4.2,2.9-9.6,1.4-14.9
					C164.3,25.9,156.9,19.8,149.2,19.8z"/>
			</g>
			<g>
				<path class="st33" d="M152.5,54.7c-6.8,0-13.4-5.4-15.6-12.8c-1.4-4.6-0.9-9.4,1.3-13.1c1.8-3.2,4.7-5.3,8-6.1
					c0.9-0.2,2-0.4,3-0.4c6.8,0,13.4,5.4,15.6,12.8c1.4,4.6,0.9,9.4-1.3,13.1c-1.8,3.2-4.7,5.3-8,6.1
					C154.6,54.6,153.5,54.7,152.5,54.7z M149.2,22.6c-1.1,0-2,0.1-2.9,0.4c-3.3,0.8-6.1,2.9-7.8,6c-2.1,3.7-2.6,8.4-1.3,12.9
					c2.2,7.3,8.7,12.7,15.5,12.7c1.1,0,2-0.1,2.9-0.4c3.3-0.8,6.1-2.9,7.8-6c2.1-3.7,2.6-8.4,1.3-12.9
					C162.4,27.9,155.9,22.6,149.2,22.6z"/>
			</g>
			<g>
				<path class="st33" d="M152,52.7c-5.9,0-11.4-4.6-13.2-10.9c-1.2-3.9-0.8-8,1.1-11.1c1.5-2.7,4-4.5,6.8-5.2
					c0.8-0.2,1.8-0.4,2.6-0.4c5.9,0,11.4,4.6,13.2,10.9c1.2,3.9,0.8,8-1.1,11.1c-1.5,2.7-4,4.5-6.8,5.2
					C153.8,52.6,152.9,52.7,152,52.7z M149.2,25.4c-0.8,0-1.8,0.1-2.6,0.4c-2.8,0.7-5.2,2.5-6.7,5.2c-1.8,3.2-2.2,7.1-1.1,11
					c1.9,6.2,7.4,10.8,13.1,10.8c0.8,0,1.8-0.1,2.6-0.4c2.8-0.7,5.2-2.5,6.7-5.2c1.8-3.2,2.2-7.1,1.1-11
					C160.4,29.9,154.9,25.4,149.2,25.4z"/>
			</g>
		</g>
		<g>
			<path class="st8" d="M160.1,37c1.8,6.1-1.1,12.1-6.4,13.4c-5.4,1.3-11.1-2.6-13-8.7c-1.8-6.1,1.1-12.1,6.4-13.4
				C152.5,27.1,158.3,30.9,160.1,37z"/>
			<path class="st33" d="M151.5,50.7c-4.8,0-9.4-3.7-11-9c-0.9-3.2-0.6-6.6,0.9-9.1c1.3-2.2,3.3-3.7,5.6-4.3
				c0.7-0.1,1.4-0.2,2.1-0.2c4.8,0,9.4,3.7,11,9c0.9,3.2,0.6,6.6-0.9,9.3c-1.3,2.2-3.3,3.7-5.6,4.3
				C152.9,50.6,152.2,50.7,151.5,50.7z M149.2,28.1c-0.7,0-1.4,0.1-2.1,0.2c-2.3,0.6-4.3,2.1-5.5,4.2c-1.5,2.6-1.8,5.9-0.8,9
				c1.5,5.2,6.1,8.9,10.8,8.9c0.7,0,1.4-0.1,2.1-0.2c2.3-0.6,4.3-2.1,5.5-4.2c1.5-2.6,1.8-5.9,0.8-9C158.4,31.9,154,28.1,149.2,28.1
				z"/>
		</g>
		<g>
			<path class="st23" d="M147.7,56.5c0.2,0.7-0.1,1.5-0.8,1.6c-0.7,0.1-1.4-0.4-1.6-1.1c-0.2-0.7,0.1-1.5,0.8-1.6
				C146.7,55.2,147.4,55.6,147.7,56.5z"/>
			<path class="st23" d="M136.5,34.4c0.2,0.7-0.1,1.5-0.8,1.6c-0.7,0.1-1.4-0.4-1.6-1.1s0.1-1.5,0.8-1.6
				C135.6,33.3,136.3,33.7,136.5,34.4z"/>
			<path class="st23" d="M166.5,45.6c0.2,0.7-0.1,1.5-0.8,1.6c-0.7,0.1-1.4-0.4-1.6-1.1c-0.2-0.7,0.1-1.5,0.8-1.6
				C165.6,44.4,166.3,44.9,166.5,45.6z"/>
			<path class="st23" d="M155.4,23.7c0.2,0.7-0.1,1.5-0.8,1.6c-0.7,0.1-1.4-0.4-1.6-1.1c-0.2-0.7,0.1-1.5,0.8-1.6
				C154.5,22.4,155.2,22.8,155.4,23.7z"/>
		</g>
		<g>
			<g>
				<path class="st34" d="M146.5,57c-0.1,0-0.1,0-0.2-0.1c-0.1-0.1-0.2-0.4-0.1-0.5l22.5-28.3L135.4,35c-0.2,0-0.4-0.1-0.5-0.2
					c0-0.2,0.1-0.4,0.2-0.5l34.3-7.1c0.1,0,0.4,0,0.4,0.1c0.1,0.1,0.1,0.4,0,0.5l-23.1,29.2C146.7,57,146.6,57,146.5,57z"/>
			</g>
			<g>
				<path class="st34" d="M165.4,46C165.4,46,165.2,46,165.4,46c-0.2,0-0.4-0.2-0.4-0.5l4.2-17.8L154.1,24c-0.2,0-0.4-0.2-0.2-0.5
					c0-0.2,0.2-0.4,0.5-0.2l15.5,3.9c0.2,0,0.4,0.2,0.2,0.5l-4.2,18.2C165.7,45.9,165.5,46,165.4,46z"/>
			</g>
		</g>
		<polygon class="st10" points="163.1,28.8 165.5,33 169.5,30.8 170.3,27.3 167.7,26.6 		"/>
		<polygon class="st17" points="163.1,28.8 170.3,27.3 167.7,26.6 		"/>
		<polygon class="st23" points="169.5,30.8 165.5,33 170.3,27.3 		"/>
		<path class="st35" d="M153.8,38.5c0.6,2.1-0.4,4.2-2.2,4.6c-1.9,0.5-3.9-0.9-4.5-3s0.4-4.2,2.2-4.6
			C151.1,35.1,153.1,36.4,153.8,38.5z"/>
	</g>
</g>
<g>
	<path class="st36" d="M205.9,201.7c0.2-0.6-2.4-1.1-2.8-0.2c0,1.8-1,2.1-1.1,2.9c0,0.3,0.3,3.4,0.6,4c0.2,0.5,3.2-0.6,3.4-1.1
		c0.3-1,0-3.2-0.3-3.7C205.4,202.7,205.6,203.2,205.9,201.7z"/>
	<path class="st37" d="M196.9,198.2c-1.3,2.6-2.4,3.2-3.6,6c-2.1,7.3-5.5,9.9-5.5,17c-2.1,1.3-6.5,2.9-6.5-0.2
		c-0.2-10.5-0.2-21.4,3.1-30.9c0,0,5.7,0.5,10.4,1.9C194.6,193,197,197.8,196.9,198.2z"/>
	<path class="st38" d="M204.1,226c1.5,5.5-4.5,5.5-7.4,1.3c-1.3-1.9-2.4-5.5-3.4-7.8c-3.7-10.2-5.7-15.7-6.2-27.7
		c7,4.7,12.8,1.1,14.6-0.2c0.8,4,0.8,16.3,0.6,20.2C202.2,217.6,203.2,222.1,204.1,226z"/>
	<path class="st39" d="M190.2,167.6c-1.3,6.3-6,12.8-7.6,14.9c-3.7,3.9-4.2-0.5-4.2-2.6c3.1-7.1,3.2-25.3,11-22
		C191.4,158.7,192.5,161.9,190.2,167.6z"/>
	<path class="st40" d="M195.7,159.6c2.4,1.3,6.8,4.2,8.7,6.8c1.5,1.9-1.8,5.5-1.9,6.2c-0.8,5.8-2.9,12.6-1,19.3
		c-5,5.8-14.9,3.9-17.6-1c-0.8-4.7-0.8-26.4,1.9-30.3c0.6-0.8,0.6-2.1,1.9-1.9C191.4,158.8,193.8,158.3,195.7,159.6z"/>
	<path class="st41" d="M209.5,185.4c0.5,4.5-1.1,13.4-3.2,17.5c-0.6,1.1-2.9,1.3-3.2-0.6c0.6-3.7,0.2-13.1,1.1-15.5
		C204.6,184.7,209.2,181.8,209.5,185.4z"/>
	<path class="st41" d="M183.9,180.7c-1.5,3.4-8.1,10.2-9.7,11.2c-1,0.2-2.9-0.5-2.9-1.6c1.3-1.9,6-11,7.8-12.5
		C182,175.7,185,177.9,183.9,180.7z"/>
	<path class="st36" d="M173.5,191.5c0.5-0.6-1-2.3-1.5-1.8c-0.8,0.6-0.5,0.3-1.3,0.2c-1.1-0.3-2.4,0.8-2.9,1.6c0,0.5,1.8-0.8,0.2,1
		c2.8-0.5,0.5,0.2,0.3,1c0.2,0.2,2.3-0.6,1,0.8c1-0.3,0.8,0,2.1-0.5c0.8-0.3,1.5-0.8,1.6-1.5C173.1,192,173.4,191.8,173.5,191.5z"/>
	<path class="st36" d="M205.6,207.9l1,1.9c0.2,0.5,0.8,0.2,0.6-0.3l-0.6-1.9C206.2,207.1,205.3,207.4,205.6,207.9z"/>
	<path class="st36" d="M204.9,207.5L204.9,207.5c-0.2,0.2-0.3,0.3-0.3,0.6l1,2.3c0.2,0.6,0.8,0.3,0.6-0.3l-0.8-2.3
		C205.6,207.5,205.3,207.4,204.9,207.5z"/>
	<path class="st36" d="M204.1,207.9L204.1,207.9c-0.2,0.2-0.3,0.3-0.3,0.6l1.1,2.4c0.3,0.6,1,0.3,0.8-0.3l-1-2.4
		C204.6,207.9,204.3,207.7,204.1,207.9z"/>
	<path class="st36" d="M202.8,208.7l1,2.3c0.3,0.5,1,0.3,0.8-0.3l-1-2.3C203.5,207.9,202.5,208.2,202.8,208.7z"/>
	<path class="st36" d="M203,203.3c-0.3,0.2-0.8,0.6-1.1,1.3c-0.3,0.6-0.5,1.5-0.5,1.6c-0.2,0.6,0,0.6-0.3,1.5c0.3,0.2,1,0.2,1.3-1.1
		c0.2-0.2,0.3-0.2,0.5-1.1C204.6,204.8,203.8,203.2,203,203.3z"/>
	<path class="st42" d="M186.3,187.5c0.5-6.5,1.3-14.7,3.4-21.2c0.2,0.2,0.5,0.3,0.6,0.6c-1.3,7.1-1.3,15.7-1.5,21.5
		c-0.5,0.3-1.1,0.8-1.6,1.1C187.1,188.9,186.7,188,186.3,187.5z"/>
	<path class="st43" d="M184.7,233.9c0,0-1,3.7,0.8,2.9c0.8-0.3,0.6,1.3,0.6,1.9c-0.2,0.8-1.1,1.3-2.3,1.8c-1.3,0.5-2.8,1.9-3.1,2.3
		c-1.3,1-4,0.8-5.2,0.3c-0.8-0.3-1.3-0.6-1.1-1.3c0.2-0.2,0-0.3,0.3-0.5c0.3-0.2,2.3-1.8,3.1-2.1c2.1-1.1,2.9-3.4,3.1-3.9
		c0.2-0.5,0.8-2.1,0.8-2.1C181.8,233.1,182.8,232.8,184.7,233.9z"/>
	<path class="st41" d="M185.2,233.4c-0.2,1.8,1.3,1.5,0.8,4.4c-0.2,1.1-2.3,1.8-3.1,2.3c-1.1,0.6-1.5,1.1-1.9,1.8
		c-0.5,0.6-1.1,0.8-2.1,1c-2.1,0.3-4.7,0-4.4-1.8c0.2-0.6,2.9-1.9,3.9-2.4c2.3-1.3,2.3-4.2,2.4-4.7c0.2-0.5,1-0.8,1-0.8
		C181.8,233.1,183.3,232.3,185.2,233.4z"/>
	<path class="st43" d="M208.3,241c0,0-0.5,3.7,1.1,2.8c0.6-0.5,0.8,1.3,0.8,1.8c0,0.8-1,1.5-1.9,2.1c-1.1,0.6-2.4,2.1-2.9,2.6
		c-1.1,1-3.9,1.3-5.2,1c-0.8-0.2-1.3-0.6-1.3-1.1c0-0.2,0-0.3,0.3-0.5c0.3-0.3,2.1-1.9,2.8-2.6c1.9-1.5,2.6-3.7,2.6-4.4
		c0.2-0.5,0.5-2.3,0.5-2.3C205.4,240.4,206.2,240.1,208.3,241z"/>
	<path class="st41" d="M208.7,240.4c0,1.8,1.5,1.3,1.5,4.2c0,1.1-1.9,1.9-2.8,2.6c-1.1,0.8-1.3,1.3-1.6,1.9c-0.5,0.6-1.1,1-1.9,1.1
		c-2.1,0.5-4.5,0.5-4.5-1.3c0-0.6,2.6-2.3,3.6-2.9c2.3-1.5,1.5-4.4,1.6-5c0.2-0.5,1.1-0.8,1.1-0.8
		C205.4,240.4,206.7,239.4,208.7,240.4z"/>
	<path class="st37" d="M187.6,217.9c-1.9-6.5-4.5-3.6-6.5-0.3c0.3,4.9-0.5,16.5-1,18.9c1.3,2.1,5.8,2.1,6,1.1
		C187,228.6,189.1,226.2,187.6,217.9z"/>
	<path class="st38" d="M201.1,222.8c-4.9-4.7-4,1-4.4,4.5c2.6,4.2,7,13.3,7.4,16.5c2.1,1.6,6.6,0.2,5.8-1.1
		C207.7,235.9,207.9,229.2,201.1,222.8z"/>
	<polygon class="st42" points="190.1,164.2 189.7,165.9 190.7,166.6 192.2,165.1 	"/>
	<path class="st17" d="M190.9,161.1c-1.5,1.3-2.1,2.8-2.3,4.4c1.1-0.8,1.9-1.1,2.6-1.1c0.3,1,0.3,2.1,0.3,3.2
		c5.7-1.3,8.7-4.5,6.2-7.1C196.2,158.8,193.8,158.8,190.9,161.1z"/>
	<path class="st44" d="M196.7,159.6c3.4,2.3-3.7,8.4-5.2,14.2c-3.6,13.8-3.1,17-1,27.7c7.8,0.5,11.5-2.3,12.5-5.3
		c-0.2-5.2-1-7.8-0.8-11c0.2-4.9,1.3-9.9,2.8-18.1C204.3,165,199.4,160.6,196.7,159.6z"/>
	<path class="st41" d="M204,186.5c0,0.2,0.3,0.3,0.6,0.3c1.6,0.2,5.2-0.5,4.9-1.9c-0.5-4.4-1.3-18.5-6.3-19.3
		c-2.3-0.3-5.5,1-5.3,4.4C198.3,176.5,203,181.6,204,186.5z"/>
	<path class="st44" d="M190.5,159c-1.9,4.4-2.9,8.7-3.4,12.8c-1.5,12.3-1.9,15.4-2.1,27.7c-2.1-0.8-3.2-2.1-3.6-3.1
		c1.6-17,1.6-21.7,3.4-36.4C186.8,157.7,189.4,157.4,190.5,159z"/>
	<path class="st41" d="M191.8,173.1c4.2-4.2,7.3-7.1,7.9-11.7c-0.8-1-2.1-1.9-2.9-2.4c0,0.2,0,0.5,0.2,0.8
		C199.4,161.9,193.5,167.9,191.8,173.1z"/>
	<path class="st41" d="M187,171.6c-0.3-5.8-0.5-10,1.9-13.6c0.6,0,1.3,0.3,1.6,1c-1.9,4.2-2.9,8.4-3.4,12.5
		C187,171.4,187,171.4,187,171.6z"/>
	<path class="st36" d="M196.5,156.1c0.2,1.6,0,3.4,1,4.7c-0.6,3.1-4.2,4-6.2,3.6c-1-0.3-1.3-1.1-1.1-1.9c0-0.6,1-1.5,1.1-2.1
		C191.7,159.1,195.7,156.7,196.5,156.1z"/>
	<path class="st45" d="M187,150.2c0,1-0.2,1.8-0.3,2.8c-0.3,0.8,0.3,1.1,0.3,1.8c0,0.3-0.3,0.6-0.3,1c-0.2,1.3,0.6,2.9,0.8,4
		c0.2,1,0.3,1.9,1.3,2.4c1.8,0.6,3.6-0.8,5.3-1.6c1.8-0.6,1-2.9,1.5-4.4C198,149.1,188.6,145.4,187,150.2z"/>
	<path class="st46" d="M198.1,154.6L198.1,154.6C198.1,154.8,198.1,154.8,198.1,154.6z"/>
	<path class="st47" d="M193.1,154c0.6,0.3,1.1,1.8,0.3,3.7c0,0.2,3.6-4.2,3.2-1.3c-0.2,1.6,0,1.8,0.3,2.4c0.6-0.3,1.1-2.4,1.6-4
		c0.5-2.4-0.2-5.2-1.3-6.2c-3.2,0.3-4,0.3-5.2,2.3C191.7,151.9,192.3,153.8,193.1,154z"/>
	<path class="st45" d="M196.7,155.9c-0.2,1-0.8,1.8-1.1,1.6c-0.5-0.2-0.5-1-0.6-1.9c-0.3-1.3,0.8-1.9,1.5-1.8
		C196.7,154.1,196.9,154.9,196.7,155.9z"/>
	<path class="st47" d="M197,148.8c-0.8-3.1-6-1.9-9.2-0.6c-1.1,0.5-3.2-0.3-3.6,0.3c-0.5,1,0.5,2.8,3.6,3.2c1.1-1,2.9,0,4.5-1
		C193.8,150.1,195.7,149.4,197,148.8z"/>
	<g>
		<path class="st48" d="M152.5,254.5c1.1,0.8,0.5,3.4-0.8,3.7c-2.9,1-5,2.1-6.8,2.8c-0.6,0.2-2.3,0.5-2.9-0.8
			c-0.2-0.5,0.8-2.3,0.8-2.3C146.2,258.4,151,253.7,152.5,254.5z"/>
		<path class="st44" d="M148.6,254.6c1.5,0,2.8-0.6,3.2-0.6c0.3,0,1,0.5,1,1.1c0.2,1-0.3,2.1-1.3,2.4c-1,0.5-2.1,0.3-3.7,1
			c-1,0.3-3.1,1.6-3.9,1.6s-1.6-0.5-1.6-1.1C142.3,255.3,145.9,253.7,148.6,254.6z"/>
		<path class="st49" d="M142.5,257.6c2.1,1.9,5.8,0.6,7.1-2.1c0-4.5,1.6-12.8,3.1-18.6c1-3.6-5.5-5.2-7.4-0.5
			C142.6,241.4,142.6,255.5,142.5,257.6z"/>
		<path class="st50" d="M158,168.7c0.3,0.8,0.6,1.5,1,2.3c0.2,0.5,0.2,0.6,0,1.1c-0.3,0.8-0.5,1,0.2,1.5c0.6,0.5,0,2.6-0.2,3.4
			c-0.2,0.6-0.2,1.5-0.8,1.9c-1.5,1.1-3.4,0.6-4.9,0.2c-1.6-0.5-4.9-4.2-5.5-5.5c-0.5-2.6,0-5,4.4-6.8
			C154,165.9,157.2,166.9,158,168.7z"/>
		<path class="st51" d="M156.4,176.3c0,0,0.6,4.5-0.6,7.9c-0.2,0.5-7.6-1.3-7.4-2.4c0.3-1,1.5-3.4,1-7.1
			C149.1,173.5,156.1,173.1,156.4,176.3z"/>
		<path class="st52" d="M150.7,179.1c2.6,0.5,7.1,3.9,7,5.3c-0.2,1.5-3.7,0.6-6.3,0.2c-2.6-0.5-4.4-2.1-4-3.6
			C147.6,179.4,148.1,178.6,150.7,179.1z"/>
		<path class="st48" d="M164.2,257.9c1.3,0.8,0.5,3.6-0.8,4c-3.1,1-5.3,2.3-7.3,2.9c-0.6,0.2-2.4,0.5-3.1-0.8c-0.2-0.5,1-2.4,1-2.4
			C157.4,261.9,162.5,256.9,164.2,257.9z"/>
		<path class="st44" d="M159.9,258c1.6,0.2,2.9-0.6,3.4-0.6s1,0.5,1.1,1.1c0.2,1.1-0.3,2.1-1.3,2.6c-1,0.5-2.3,0.3-4,1
			c-1,0.3-3.4,1.8-4.2,1.8c-1,0-1.6-0.6-1.8-1.3C153.3,258.7,157,256.9,159.9,258z"/>
		<path class="st53" d="M153.1,261.6c2.4,1.8,5.8,0,6.8-2.9c-0.5-4.5,0.2-12.9,1.1-18.9c0.5-3.7-6-4.5-7.4,0.3
			C152.5,244.6,153.1,259.3,153.1,261.6z"/>
		<path class="st41" d="M157.4,172.7c-0.2,0.3-0.3,0.6,0.3,1.5c0.6,1,0.5,1.3-1,1.1c-0.3-0.2-0.3-1.5-0.3-1.6
			c-0.8-0.5-1.5,1.6-2.1,3.1c-1.1,2.4-4.7,1.6-4.9,1.5c-1.8-1.9-2.9-6.3-1.3-8.3c0-1.5,2.6-5.8,10.8-2.8
			C161.1,169.8,157.8,170.8,157.4,172.7z"/>
		<path class="st50" d="M154.9,174.8c0.2,1,1,2.3,1.3,2.1c1-0.5,0.5-1.1,0.3-2.1s0-1.5-0.3-1.6C155.3,173.2,154.6,173.9,154.9,174.8
			z"/>
		<path class="st54" d="M136,197c-0.2,3.9,5,4.5,6.6,1.6c1.8-3.1,2.6-6.5,4.5-9.7c3.7-5.8,2.6-7.6,0.8-8.7c-3.2-1.8-5.7-0.6-7.3,2.3
			C137.8,188,136,197,136,197z"/>
		<path class="st54" d="M136.2,198.8c1.1,3.6,5.7,13.1,7,14.4c1,0.5,2.9,0.2,3.2-1c-0.8-2.1-2.8-9.1-3.6-13.6
			C142.1,195.2,134.9,194.8,136.2,198.8z"/>
		<path class="st49" d="M152.3,237.5c0.2-0.8,0.6-2.4,0.8-3.6c2.4-12.1,2.6-17.2,1.1-24.8c-2.6-0.8-8.4,1.8-10.8-0.5
			c-3.2,3.6-1.9,8.7,0,12.5c0,7.8,1.5,7.8,1.5,15.1C146.4,238,150.2,239.4,152.3,237.5z"/>
		<path class="st53" d="M160.9,240.6c0.2-0.8,0.5-2.6,0.3-3.6c1-12.3,0.3-19.1-1.9-26.4c-2.6-0.5-10,1.6-12.8-0.3
			c-2.9,3.9-1.9,7.9,1.6,12c1.3,6.6,5,10,5.3,17.8C154.8,241.5,159,242.7,160.9,240.6z"/>
		<path class="st55" d="M161.1,192.8c-0.3,6.3,1,20.2-0.5,21.4c-1.6,7.3-17-2.6-18.1-4.5c-0.6-0.5-0.6-6.2-0.8-6.6
			c-0.6-4-2.8-9.1-2.3-12.8c0.3-4,2.6-9.4,7.1-10.5c2.4-0.2,5.7,0.3,12.1,4.7C162.2,186.7,161.2,188.4,161.1,192.8z"/>
		<g>
			<path class="st36" d="M171,216.1c-0.5-0.3,1.1-2.4,1.9-1.8c1.1,1.3,2.1,1,2.8,1.5c0.3,0.3,1.9,2.8,1.9,3.6
				c0.3,0.5-2.9,1.5-3.4,1.3c-0.8-0.6-1.9-2.4-2.1-2.9C171.9,216.4,172.1,216.9,171,216.1z"/>
			<path class="st36" d="M175,220.5l0.5,1.9c0.2,0.5-0.5,0.6-0.6,0.2l-0.6-1.9C174,220.3,174.8,220,175,220.5z"/>
			<path class="st36" d="M175.2,220L175.2,220c0.3,0,0.5,0,0.6,0.3l0.6,2.3c0.2,0.6-0.5,0.8-0.6,0.2l-1-2.3
				C174.8,220.3,175,220,175.2,220z"/>
			<path class="st36" d="M176,219.7L176,219.7c0.3,0,0.5,0,0.6,0.3l0.6,2.6c0.2,0.6-0.5,0.8-0.8,0.2l-0.8-2.6
				C175.6,220,175.8,219.7,176,219.7z"/>
			<path class="st36" d="M177.6,219.5l0.6,2.4c0.2,0.6-0.6,0.8-0.8,0.2l-0.6-2.3C176.6,219.2,177.4,218.9,177.6,219.5z"/>
			<path class="st36" d="M174.2,215.6c0.3-0.2,1,0,1.6,0.3c0.6,0.3,1.3,0.8,1.5,1c0.6,0.5,0.5,0.5,1.1,0.8c-0.2,0.3-0.6,0.8-1.6,0
				c-0.3,0-0.5,0.2-1.1-0.6C173.7,217.7,173.4,215.8,174.2,215.6z"/>
		</g>
		<path class="st56" d="M157.8,207.9c2.8,2.4,11.7,8.3,13.4,8.7c1-0.2,2.6-1.3,2.3-2.4c-1.8-1.5-7-6.3-10-9.9
			C161.1,201.9,154.6,205.1,157.8,207.9z"/>
		<path class="st56" d="M156.9,206.4c1.9,3.4,6.6,1.3,6.5-2.1c-0.2-3.6-1.3-6.8-1.1-10.7c0.2-7-1.8-7.9-3.7-7.8
			c-3.7,0.2-5.2,2.4-5,5.7C153.5,197.8,156.9,206.4,156.9,206.4z"/>
		<path class="st54" d="M160.4,214.2c-4.9,2.9-11.3-0.3-18.1-4.5c0,0.2,0,0.5,0,0.6c0,1.3,3.7,4.5,8.4,6.2
			C155.3,217.7,161.9,217.4,160.4,214.2z"/>
	</g>
	<g>
		<path class="st57" d="M171.6,194.4l1.3,2.1c0.2,0.3-0.3,0.5-0.5,0.3l-1.3-2.1C171.1,194.4,171.4,194.3,171.6,194.4z"/>
		<path class="st57" d="M165.9,188l2.1-1.3l4.2,7.4c0.3,0.6-1.3,1.6-1.6,1L165.9,188z"/>
		<path class="st58" d="M171.9,195.1l0.8,1.3c0.2,0.2-0.2,0.3-0.3,0.2l-0.8-1.3C171.8,195.4,171.9,195.2,171.9,195.1z"/>
		<path class="st12" d="M165,180l4.4,6.5c1.8,2.8-2.6,5.3-4,2.4l-3.9-7C159.9,179.2,163.2,177.3,165,180z"/>
		<path class="st8" d="M169.8,188.1c-0.8,1.6-3.2,2.3-4.4,0.2l-3.9-7c-0.3-0.6-0.5-1.3-0.5-1.8c0.6-1.3,2.4-1.5,3.7,0.3l4.4,6.5
			C169.8,187.1,170,187.6,169.8,188.1z"/>
		<g>
			<g>
				<path class="st27" d="M167.1,183.9c-0.2-0.5-0.3-1-0.5-1.5c0,0.3,0,0.5-0.2,0.6c0.2,0.3,0.3,0.8,0.3,1.1
					c0.2,0.3,0.2,0.5,0.3,0.8l0,0c-0.2-0.2-0.3-0.3-0.3-0.5c-0.2-0.2-0.3-0.5-0.5-0.6l0,0c-0.2,0.2-0.2,0.3-0.3,0.5l0.3,0.3l0.3,0.3
					c0.2,0.2,0.5,0.5,0.6,0.6c0.2-0.2,0.2-0.3,0.3-0.5C167.4,184.9,167.2,184.4,167.1,183.9z"/>
				<path class="st27" d="M166.1,185c-0.2-0.2-0.3-0.5-0.3-0.8c0.2-0.2,0.2-0.3,0.3-0.5c0-0.2-0.2-0.3-0.2-0.3
					c-0.2,0.2-0.3,0.5-0.5,0.6c-0.2,0.2-0.3,0.3-0.6,0.3c0,0.2,0.2,0.2,0.2,0.3c0.2,0,0.3-0.2,0.5-0.2c0.2,0.2,0.2,0.5,0.3,0.6
					c0.2,0.2,0.2,0.5,0.3,0.6c0,0,0,0,0.2,0s0.2-0.2,0.3-0.2L166.1,185L166.1,185z"/>
			</g>
		</g>
		<path class="st13" d="M162.7,178.9c0.6-0.2,1.3,0.2,1.3,0.5c0.2,0.5-0.3,1-1,1.1c-0.6,0.2-1.3-0.2-1.3-0.5
			C161.6,179.5,162.1,179.1,162.7,178.9z"/>
		<path class="st58" d="M169.5,189.7l2.6,4.5c0.3,0.3-0.6,1-1,0.8l-2.8-4.2C168.9,190.7,169.3,190.1,169.5,189.7z"/>
		<path class="st59" d="M169.5,189.9l2.4,4.4c0,0.2,0,0.2,0,0.3l-2.6-4.2C169.5,190.2,169.5,190.1,169.5,189.9z"/>
	</g>
	<path class="st45" d="M171.9,190.4c-0.6-0.8-1.1-0.8-1.9-0.8s-1.1,0-1.3,0.2c-0.5,0.3-0.6,0.5-1.3,1c0.6,0.6,1.3,0.2,1.6-0.2
		c0.2,0.2,0.6,0.2,1,0.2C171.8,192.6,172.4,191,171.9,190.4z"/>
	<path class="st45" d="M169.2,194.8L169.2,194.8c0-0.2,0-0.5,0.2-0.5l1.1-0.3c0.5-0.2,0.6,0.5,0.2,0.6l-1.1,0.5
		C169.5,195.1,169.2,195.1,169.2,194.8z"/>
	<path class="st45" d="M168.2,193.9L168.2,193.9c0-0.3,0-0.5,0.3-0.6l1.6-0.5c0.6-0.2,0.8,0.5,0.3,0.6l-1.5,0.6
		C168.5,194.4,168.2,194.3,168.2,193.9z"/>
	<path class="st45" d="M167.7,193.1L167.7,193.1c-0.2-0.3,0-0.6,0.3-0.6l1.8-0.5c0.6-0.2,1,0.5,0.3,0.8l-1.8,0.5
		C168.2,193.5,167.9,193.3,167.7,193.1z"/>
	<path class="st45" d="M167.7,192L167.7,192c0-0.3,0.2-0.5,0.3-0.6l1.6-0.3c0.6-0.2,0.8,0.5,0.2,0.8l-1.6,0.5
		C168,192.5,167.7,192.3,167.7,192z"/>
</g>
<g>
	<path class="st60" d="M81.1,136.3c1.3,2.6,2.4,3.2,3.6,6c2.1,7.3,5.5,9.9,5.5,17c2.1,1.3,6.5,2.9,6.5-0.2
		c0.2-10.5,0.2-21.4-3.1-30.9c0,0-5.7,0.5-10.4,1.9C83.4,131.1,81,136,81.1,136.3z"/>
	<path class="st61" d="M73.8,164.2c-1.5,5.5,4.5,5.5,7.4,1.3c1.3-1.9,2.4-5.5,3.4-7.8c3.7-10.2,5.7-15.7,6.2-27.7
		c-7,4.7-12.8,1.1-14.6-0.2c-0.8,4-0.8,16.3-0.6,20.2C75.8,155.9,74.6,160.3,73.8,164.2z"/>
	<path class="st12" d="M86.8,106c1.3,6.3,6,12.8,7.6,14.9c3.7,3.9,4.2-0.3,4.2-2.6c-3.1-7.3-3.1-25.3-10.8-22
		C85.6,97,84.5,100.2,86.8,106z"/>
	<path class="st8" d="M82.3,97.8c-2.4,1.3-5.3,3.6-7.6,6.8c-1.5,1.9,0.6,5.7,0.6,6.2c0.8,5.8,2.9,12.6,1,19.3c5,5.8,14.9,3.9,17.6-1
		c0.8-4.7,0.8-26.4-1.9-30.3c-0.6-0.8-0.6-2.1-1.9-1.9C86.6,97,84.2,96.5,82.3,97.8z"/>
	<path class="st8" d="M98.3,121.9c2.6-2.8,5.3-7.4,6-9.2c0-1.1-1.1-2.6-2.4-2.4c-1.5,1.8-1.1,1-4.7,4.2
		C93.7,117.5,95.2,125,98.3,121.9z"/>
	<g>
		<path class="st36" d="M102.5,115.9c-0.2,0.6-2.6-0.5-2.3-1.5c1-1.5,0.3-2.3,0.8-3.1c0.8-0.6,1.5-0.6,1.9-1c0.6-0.3,1.9-1,2.6-0.5
			c0.3,0.2-2.1,0.8,0.3,0.8c-2.3,1.8-0.5,1,0.2,1.3c0,0.3,0,0.5-0.2,0.8c-0.3,0.5-0.8,0.8-2.1,1.5
			C102.6,114.8,103,114.6,102.5,115.9z"/>
		<path class="st45" d="M106,112.2L106,112.2c-0.2-0.2-0.3-0.3-0.6-0.2l-1,0.6c-0.5,0.3-0.2,0.8,0.3,0.5l1.1-0.5
			C106.2,112.7,106.2,112.4,106,112.2z"/>
		<path class="st45" d="M106,110.9L106,110.9c-0.2-0.2-0.5-0.3-0.6-0.2l-1.3,1c-0.5,0.3-0.2,1,0.3,0.6l1.5-0.8
			C106,111.4,106.2,111.1,106,110.9z"/>
		<path class="st45" d="M105.6,110.1L105.6,110.1c-0.2-0.2-0.5-0.3-0.6-0.2l-1.5,1.1c-0.5,0.5-0.2,1.1,0.5,0.6l1.6-1
			C105.6,110.6,105.7,110.3,105.6,110.1z"/>
		<path class="st45" d="M100.9,112.4c-0.3-1-0.2-1.3,0.3-2.1c0.5-0.6,1-1.3,1.1-1.3c0.5-0.2,0.8-0.5,1.8-0.6
			c0.3,1.1-0.8,1.3-1.1,1.5c0,0.2-0.2,0.8-0.6,1.1C103.3,114.1,101,113.8,100.9,112.4z"/>
	</g>
	<path class="st43" d="M93.3,172.1c0,0,1,3.7-0.8,2.9c-0.8-0.3-0.6,1.3-0.6,1.9c0.2,0.8,1.1,1.3,2.3,1.8c1.3,0.5,2.8,1.9,3.1,2.3
		c1.3,1,4,0.8,5.2,0.3c0.8-0.3,1.3-0.6,1.1-1.3c-0.2-0.2,0-0.3-0.3-0.5s-2.3-1.8-3.1-2.1c-2.1-1.1-2.9-3.4-3.1-3.9
		c-0.2-0.5-0.8-2.1-0.8-2.1C96.2,171.3,95.2,171,93.3,172.1z"/>
	<path class="st62" d="M92.8,171.6c0.2,1.8-1.3,1.5-0.8,4.4c0.2,1.1,2.3,1.8,3.1,2.3c1.1,0.6,1.5,1.1,1.9,1.8c0.5,0.6,1.1,0.8,2.1,1
		c2.1,0.3,4.7,0,4.4-1.8c-0.2-0.6-2.9-1.9-3.9-2.4c-2.3-1.3-2.3-4.2-2.4-4.7c-0.2-0.5-1-0.8-1-0.8S94.7,170.5,92.8,171.6z"/>
	<path class="st43" d="M69.6,179.2c0,0,0.5,3.7-1.1,2.8c-0.6-0.5-0.8,1.3-0.8,1.8c0,0.8,1,1.5,1.9,2.1c1.1,0.6,2.4,2.1,2.9,2.6
		c1.1,1,3.9,1.3,5.2,1c0.8-0.2,1.3-0.6,1.3-1.1c0-0.2,0-0.3-0.3-0.5c-0.3-0.3-2.1-1.9-2.8-2.6c-1.9-1.5-2.6-3.7-2.6-4.4
		c-0.2-0.5-0.5-2.3-0.5-2.3C72.5,178.6,71.7,178.2,69.6,179.2z"/>
	<path class="st62" d="M69.1,178.6c0,1.8-1.5,1.3-1.5,4.2c0,1.1,1.9,1.9,2.8,2.6c1.1,0.8,1.3,1.3,1.6,1.9c0.5,0.6,1.1,1,1.9,1.1
		c2.1,0.5,4.5,0.5,4.5-1.3c0-0.6-2.6-2.3-3.6-2.9c-2.3-1.5-1.5-4.4-1.6-5c-0.2-0.5-1.1-0.8-1.1-0.8
		C72.5,178.6,71.2,177.8,69.1,178.6z"/>
	<path class="st60" d="M90.3,156.1c1.9-6.5,4.5-3.6,6.5-0.3c-0.3,4.9,0.5,16.5,1,18.9c-1.3,2.1-5.8,2.1-6,1.1
		C91,166.7,88.9,164.3,90.3,156.1z"/>
	<path class="st61" d="M76.9,161.1c4.9-4.7,4,1,4.4,4.5c-2.6,4.2-7,13.3-7.4,16.5c-2.1,1.6-6.6,0.2-5.8-1.1
		C70.3,174,69.9,167.4,76.9,161.1z"/>
	<path class="st13" d="M77.1,124.8c0,0.2-0.3,0.3-0.6,0.3c-1.6,0.3-4,1.5-5-0.2c0.2-4.4-1-19.6,4-20.7c2.1-0.5,5.7,0.5,5.7,3.9
		C81,114.6,77.7,119.8,77.1,124.8z"/>
	<g>
		<path class="st36" d="M84.8,94.1c-0.5,1.5-1,3.2-2.1,4.2c-0.2,3.2,2.9,5,5,5c1,0,1.6-0.8,1.6-1.6c0.2-0.6-0.6-1.6-0.6-2.4
			C88.6,98.4,85.5,94.9,84.8,94.1z"/>
		<path class="st45" d="M95.7,91c-0.3,0.8-0.3,1.8-0.3,2.8c0,0.8-0.6,1-0.8,1.6c0,0.3,0.2,0.6,0,1c-0.2,1.3-1.5,2.8-1.9,3.7
			c-0.5,1-0.8,1.8-1.9,1.9c-1.9,0.2-3.2-1.8-4.7-2.9c-1.5-1.1-0.2-3.1-0.2-4.5C85.3,86.9,95.4,86,95.7,91z"/>
		<path class="st46" d="M83.5,92.3L83.5,92.3C83.5,92.4,83.5,92.3,83.5,92.3z"/>
		<path class="st41" d="M88.7,93.1c-0.6,0.2-1.6,1.3-1.3,3.4c0,0.2-2.3-5-2.8-2.1c-0.3,1.6-0.5,1.6-1,2.3c-0.5-0.5-0.3-2.8-0.5-4.2
			c0.2-2.4,1.6-5,2.9-5.5c3.1,1.1,3.7,1.5,4.4,3.6C90.5,91.3,89.4,92.9,88.7,93.1z"/>
		<path class="st45" d="M84.7,93.9c0,1,0.3,1.9,0.6,1.9c0.5,0,0.8-0.8,1.1-1.6c0.6-1.1-0.3-2.1-0.8-2.1S84.7,92.9,84.7,93.9z"/>
		<path class="st41" d="M86.3,86.9c1.9-4,15.4,5.5,8.1,5.3c-1-1.3-2.8-0.8-4-2.1C89,89.1,87.4,87.9,86.3,86.9z"/>
		<path class="st61" d="M96.3,92.9c0.8,0.8,2.1,2.9,2.8,3.9c-2.1-1.3-4.2-0.3-5.7-0.2c-1.6,0.3-3.2-2.8-4.4-3.9
			C93.1,94.1,95.4,93.6,96.3,92.9z"/>
		<path class="st43" d="M96.3,93.4c-2.6,1.3-9.1-0.6-12.6-3.2c0.8-5.7,5-5.8,8.6-4.5C96.3,86.9,97.5,90,96.3,93.4z"/>
	</g>
	<g>
		<g>
			<g>
				<path class="st63" d="M85.5,173.7h-0.2c-0.5-0.2-0.8-0.6-0.8-1.3l12.8-54.2c0.2-0.5,0.6-0.8,1.1-0.8c0.5,0.2,0.8,0.6,0.8,1.1
					l-12.8,54.4C86.5,173.4,86,173.7,85.5,173.7z"/>
			</g>
			<g>
				<path class="st63" d="M89.4,158.2c-0.2,0-0.2,0-0.3,0c-0.8-0.2-1.3-1-1.1-1.8l9.1-38.2c0.2-0.8,1-1.3,1.8-1.1
					c0.8,0.2,1.3,1,1.1,1.8L90.8,157C90.5,157.7,90,158.2,89.4,158.2z"/>
			</g>
			<g>
				<path class="st64" d="M93.1,169.7c-0.2,0-0.2,0-0.3,0c-0.2-0.2-0.3-0.3-0.5-0.5l-2.8-12.8c0-0.2,0-0.5,0.2-0.6
					c0.2-0.2,0.5-0.3,0.6-0.2l19.3,3.7c0.3,0,0.5,0.3,0.6,0.6c0,0.3-0.2,0.6-0.3,0.8l-16.5,8.7C93.4,169.7,93.3,169.7,93.1,169.7z
					 M91.3,157l2.4,10.8l13.9-7.8L91.3,157z"/>
			</g>
			<g>
				<path class="st63" d="M91.8,194.3L91.8,194.3c-0.6,0-1.1-0.5-1-1.1l7-74.9c0-0.5,0.5-0.8,1-1c0.5,0,1,0.3,1.1,0.6l17.6,61
					c0.2,0.5-0.2,1.1-0.6,1.3s-1.1-0.2-1.3-0.6l-16.2-56l-6.5,69.8C92.8,193.8,92.3,194.3,91.8,194.3z"/>
			</g>
			<g>
				<path class="st65" d="M93.9,173.5C93.7,173.5,93.7,173.5,93.9,173.5c-1,0-1.5-0.8-1.5-1.6l5-53.9c0-0.6,0.6-1.3,1.3-1.3
					s1.3,0.3,1.5,1l12.6,43.7c0.2,0.8-0.2,1.6-1,1.8c-0.8,0.2-1.6-0.2-1.8-1l-10.5-36.4l-4.4,46.3C95.2,173.1,94.6,173.5,93.9,173.5
					z"/>
			</g>
		</g>
		<g>
			<g>
				<polygon class="st57" points="103.8,117.2 103.8,120.8 99.6,123.2 99.6,119.8 				"/>
				<path class="st58" d="M99.6,119.8v3.6l-5.3-3.2v-3.4L99.6,119.8C100.4,119.3,100.4,119.3,99.6,119.8z"/>
				<polygon class="st66" points="94.2,116.7 99.6,119.8 103.8,117.2 98.3,114.1 				"/>
			</g>
			<g>
				<path class="st66" d="M97.3,121.4c-0.5,0.2-1.5-0.3-1.8-1.1c-0.5-0.8-0.3-1.6,0.2-1.8c0.5-0.2,1.5,0.3,1.8,1.1
					C98,120.3,98,121.1,97.3,121.4z"/>
				<path class="st57" d="M97.1,121.1c-0.5,0.2-1.1-0.2-1.5-1c-0.3-0.6-0.3-1.3,0.2-1.6c0.5-0.2,1.1,0.2,1.5,1
					C97.6,120.3,97.6,120.9,97.1,121.1z"/>
				<path class="st65" d="M86.3,129.2c0.8-0.8,1.9,0.3,1.1,1.1l-7,7.4c-0.8,0.8-2.4-0.8-1.6-1.6L86.3,129.2z"/>
				<g>
					<path class="st67" d="M86.9,130.3c-0.2,0-0.3,0-0.3-0.2c-0.2-0.2-0.2-0.5,0-0.6l9.6-9.7c0.2-0.2,0.5-0.2,0.6,0
						c0.2,0.2,0.2,0.5,0,0.6l-9.6,9.7C87.1,130.2,86.9,130.3,86.9,130.3z"/>
				</g>
			</g>
		</g>
	</g>
	<g>
		<path class="st58" d="M93.4,99.1l-2.8,1.3l-1.1-1.3c-0.8-1.5,2.9-3.2,3.7-1.6L93.4,99.1z"/>
		<path class="st57" d="M92.8,98.6c-0.6,0-1.6,0.3-1.9,1c-0.3,0.6-0.2,1.1,0.5,1.1c0.6,0,1.6-0.3,1.9-1
			C93.6,99.2,93.4,98.8,92.8,98.6z"/>
		<path class="st58" d="M93.9,100.2l-2.4,1.1l-0.5-1c-0.5-1,2.1-2.1,2.4-1.1L93.9,100.2z"/>
		<path class="st66" d="M94.2,100.2l-3.1,1.3l-0.2-0.2c-0.6-1.1,2.4-2.6,3.1-1.5L94.2,100.2z"/>
		<path class="st57" d="M93.4,99.9c-0.8,0-1.6,0.3-2.1,1c-0.5,0.6-0.2,1.1,0.6,1.3c0.8,0,1.6-0.3,2.1-1
			C94.4,100.4,94.2,99.9,93.4,99.9z"/>
		<path class="st66" d="M91.6,100.1l-0.3-0.8c0.3-0.2,0.6-0.3,1-0.5l0.3,0.8C92.3,99.7,92,99.9,91.6,100.1z"/>
		<path class="st58" d="M94.7,101.5l-2.8,1.3l-0.5-1.1c-0.5-1.1,2.3-2.4,2.8-1.3L94.7,101.5z"/>
		<path class="st66" d="M97,105.4l-3.2,1.5l-2.1-4.4c-0.6-1.3,2.8-2.9,3.2-1.6L97,105.4z"/>
		<path class="st68" d="M94.4,105.9l-2.3-4.7c0.3-0.3,0.8-0.5,1.1-0.6l2.1,4.4C94.9,105.2,94.7,105.7,94.4,105.9z"/>
		<polygon class="st58" points="100.2,115.4 100.2,119.2 96.8,117.2 96.8,113.5 		"/>
		<polygon class="st59" points="98.3,110.9 101.7,112.8 104.8,111.1 101.4,109.1 		"/>
		<path class="st57" d="M100.2,119.2v-1.9v-1.6l1.6-2.6l3.1-1.8l1.5,0.8v3.6C104.3,118.7,102.3,119.8,100.2,119.2z"/>
		<path class="st59" d="M106.4,113.3l-3.4,6.2l-1.3-0.5c-2.6-1.5,1.3-7.9,3.7-6.5L106.4,113.3z"/>
		<path class="st57" d="M104.8,113.5c-1.5,0.8-2.4,2.8-2.4,4.2c0,1.6,1.1,2.3,2.4,1.5c1.3-0.8,2.4-2.8,2.4-4.2
			C107.2,113.3,106,112.7,104.8,113.5z"/>
		<path class="st58" d="M108.8,115.1l-3.2,5.3l-2.1-1.3c-2.1-1.3,1.1-6.8,3.2-5.5L108.8,115.1z"/>
		<polygon class="st66" points="98.3,110.9 101.7,112.8 100.2,115.4 96.8,113.5 		"/>
		<path class="st58" d="M96.8,113.5v3.7l-4.2-4.2c-0.6-0.6-1-1.3-1-2.1v-2.4L96.8,113.5z"/>
		<polygon class="st58" points="93.3,105.7 98.4,110.9 101.4,109.1 96.3,104.1 		"/>
		<polygon class="st66" points="93.3,105.7 98.4,110.9 96.8,113.5 91.6,108.3 		"/>
		<path class="st57" d="M103.8,108.8v2.8l-1.1,0.6l-0.5-3.1c-0.2-1-0.5-1.5-1.3-1.9l-2.9-1.8c-0.5-0.3-1.3-0.6-1.3-0.2v0.5l-1,0.6
			l-0.5-1.9l1.1-0.6c0.5-0.2,1-0.2,1.5,0l4.9,2.9C103.3,107.2,103.8,108,103.8,108.8z"/>
		<path class="st66" d="M102.6,109.4v2.8l-1.9-1.1l0.5-1.3c0.3-0.8-0.3-1.9-1.1-2.4l-2.9-1.6c-0.5-0.3-1.1-0.2-1.5,0.3l-0.2,0.2
			l-1.3-1.1l0.2-0.3c0.5-0.6,1.3-1,2.1-0.5l4.9,2.9C102.3,107.7,102.6,108.5,102.6,109.4z"/>
		<g>
			<polygon class="st58" points="101.8,107 101.8,108 101,107.5 101,106.5 			"/>
			<polygon class="st59" points="101.4,105.9 102.3,106.4 103.6,105.6 102.6,105.1 			"/>
			<path class="st57" d="M101.8,108v-0.5V107l0.3-0.6l1.3-0.8l0.3,0.2v1C103.5,107.5,102.3,108.2,101.8,108z"/>
			<polygon class="st58" points="101.4,105.9 102.3,106.4 101.8,107 101,106.5 			"/>
		</g>
		<g>
			<path class="st57" d="M107.8,110.7l0.8-1.6l-5.5-2.8c-0.5-0.2-1.1,1-0.6,1.1L107.8,110.7z"/>
			<path class="st69" d="M113.5,111.1l-4.9-2.9c-1.9-1.1-3.7,1.9-1.6,3.1l5,2.4C114.1,114.6,115.4,112.2,113.5,111.1z"/>
			<path class="st57" d="M107.5,107.8c-1.1,0.6-1.5,2.4,0,3.1l5,2.4c0.5,0.2,0.8,0.3,1.3,0.2c0.8-0.5,1-1.8-0.3-2.6l-4.9-2.9
				C108.3,107.8,107.8,107.8,107.5,107.8z"/>
			<path class="st58" d="M106.4,108.2l-3.2-1.6c-0.3-0.2-0.6,0.5-0.5,0.6l3.1,1.8C105.7,108.6,106,108.3,106.4,108.2z"/>
			<path class="st59" d="M106.2,108.2l-3.1-1.6H103l3.1,1.8L106.2,108.2z"/>
		</g>
		<path class="st59" d="M106.7,118.5l-3.7-2.1c0.3-0.8,1-1.6,1.6-2.3l3.6,2.1L106.7,118.5z"/>
		<path class="st57" d="M107.2,114.8c-1.5,0.8-2.6,2.8-2.6,4.4c0,1.6,1.1,2.3,2.6,1.5s2.6-2.8,2.6-4.4
			C109.8,114.6,108.6,114,107.2,114.8z"/>
		<path class="st66" d="M109.6,114.6l-3.9,6.5l-0.3-0.2c-2.6-1.5,1.3-8.3,3.9-6.6L109.6,114.6z"/>
		<path class="st57" d="M107.7,114.8c-1.5,0.8-2.8,2.9-2.8,4.7s1.3,2.4,2.8,1.6c1.5-0.8,2.8-2.9,2.8-4.7
			C110.4,114.6,109.1,114,107.7,114.8z"/>
		<path class="st58" d="M112.4,116.6l-3.7,6.2l-2.4-1.5c-2.4-1.5,1.3-7.8,3.6-6.2L112.4,116.6z"/>
		<path class="st57" d="M109.6,115.9c-1.5,0.8-2.8,2.9-2.8,4.7c0,1.8,1.3,2.4,2.8,1.6c1.5-0.8,2.8-2.9,2.8-4.7
			S111.2,115.1,109.6,115.9z"/>
		<path class="st66" d="M113.2,116.2l-4.2,7.3l-1.6-1c-2.9-1.6,1.5-9.1,4.2-7.3L113.2,116.2z"/>
		<path class="st57" d="M111.1,116.4c-1.6,1-3.1,3.2-3.1,5.2c0,1.9,1.3,2.8,3.1,1.8c1.6-1,3.1-3.2,3.1-5.2
			C114,116.2,112.7,115.4,111.1,116.4z"/>
		<path class="st12" d="M109.3,123.5c-2.8-1.6,1.5-8.7,4.2-7L109.3,123.5z"/>
		<path class="st57" d="M111.4,116.7c-1.6,1-2.9,3.1-2.9,5c0,1.8,1.3,2.6,2.9,1.8c1.6-1,2.9-3.1,2.9-5
			C114.3,116.6,113,115.8,111.4,116.7z"/>
		<path class="st58" d="M109.4,119l1.9,1.1c0.3,0.2,0.6,0.6,0.6,1v6.8c-1-1.5-1.9-2.9-2.6-4.5C109,122.1,109,120.6,109.4,119z"/>
		<path class="st59" d="M109.4,119l1.9,1.1c0.3,0.2,0.8,0.2,1.1,0l6.2-3.4c-1.6-0.3-3.4-0.3-5-0.2
			C111.7,116.9,110.4,117.9,109.4,119z"/>
		<path class="st57" d="M111.9,127.7v-6.5c0-0.5,0.3-1,0.6-1.1l5.8-3.4c0.2,0,0.3,0,0.5,0c0.2,0,0.2,0.2,0.2,0.3v6.5
			c0,0.5-0.2,1-0.6,1.1l-5.8,3.4c-0.2,0-0.3,0-0.5,0C111.9,128.1,111.9,127.9,111.9,127.7z"/>
		<path class="st69" d="M112.2,127.3v-5.8c0-0.5,0.2-0.8,0.6-1.1l5.2-3.1c0.2,0,0.3,0,0.3,0c0.2,0,0.2,0.2,0.2,0.3v5.8
			c0,0.5-0.2,0.8-0.6,1l-5.2,3.1c-0.2,0-0.3,0-0.3,0C112.2,127.4,112.2,127.4,112.2,127.3z"/>
		<path class="st70" d="M115.1,119v2.4c0,0.3-0.2,0.6-0.5,0.8l-2.4,1.5v-2.3c0-0.5,0.2-0.8,0.6-1.1L115.1,119z"/>
		<path class="st59" d="M106.7,118.8l-1-0.6c0.3-1.1,1.1-2.3,1.9-2.9l1,0.5C107.7,116.7,107,117.9,106.7,118.8z"/>
		<path class="st68" d="M108.3,120.1l-1.8-1c0.3-1.3,1.3-2.6,2.3-3.4l1.8,1C109.4,117.5,108.6,118.8,108.3,120.1z"/>
		<path class="st68" d="M109.8,119c2.3,0.5,4.9-0.6,7.6-1.9l-4.5,2.8c-0.5,0.3-1,0.3-1.5,0L109.8,119z"/>
		<path class="st71" d="M109,118.5l-1.6-1c0.3-0.5,0.5-0.8,0.8-1.1l1.6,1C109.4,117.7,109.1,118.2,109,118.5z"/>
		<path class="st68" d="M107.3,117.5l-1-0.5c0.2-0.3,0.5-0.6,0.6-1l1,0.5C107.8,116.9,107.5,117.2,107.3,117.5z"/>
		<path class="st68" d="M105.4,116.2l-1.8-1c0.2-0.3,0.3-0.5,0.6-0.8l1.6,1C105.7,115.8,105.6,115.9,105.4,116.2z"/>
		<g>
			<path class="st69" d="M97.8,116.6c0.2,0,0.2,0.2,0.2,0.3c0,0.2-0.2,0.2-0.2,0.2c-0.2,0-0.2-0.2-0.2-0.3S97.8,116.6,97.8,116.6z"
				/>
			<g>
				<path class="st57" d="M97.6,116.7l0.2,0.3l0,0C98.1,116.9,97.8,116.6,97.6,116.7L97.6,116.7z"/>
				<path class="st59" d="M97.8,116.7c0.2,0,0.2,0.2,0.2,0.3c0,0.2,0,0.2-0.2,0.2c-0.2,0-0.2-0.2-0.2-0.3
					C97.6,116.7,97.6,116.7,97.8,116.7z"/>
			</g>
		</g>
		<g>
			<path class="st69" d="M97.3,116.4c0.2,0,0.2,0.2,0.2,0.3c0,0.2-0.2,0.2-0.2,0.2c-0.2,0-0.2-0.2-0.2-0.3
				C97,116.2,97.1,116.2,97.3,116.4z"/>
			<g>
				<path class="st57" d="M97.1,116.4l0.2,0.3l0,0C97.5,116.7,97.3,116.2,97.1,116.4L97.1,116.4z"/>
				<path class="st59" d="M97.1,116.4c0.2,0,0.2,0.2,0.2,0.3c0,0.2,0,0.2-0.2,0.2c-0.2,0-0.2-0.2-0.2-0.3S97.1,116.4,97.1,116.4z"/>
			</g>
		</g>
		<g>
			<path class="st69" d="M100.1,114.1c0,0.2-0.2,0.5-0.3,0.5c-0.2,0.2-0.3,0-0.3-0.2c0-0.2,0.2-0.5,0.3-0.5
				C99.9,114,100.1,114,100.1,114.1z"/>
			<g>
				<path class="st57" d="M99.9,114l-0.3,0.6l0,0C99.7,114.8,100.2,114.1,99.9,114L99.9,114z"/>
				<path class="st68" d="M99.9,114.1c0,0.2-0.2,0.3-0.3,0.5c-0.2,0-0.3,0-0.2-0.2c0-0.2,0.2-0.3,0.3-0.5
					C99.7,114,99.9,114,99.9,114.1z"/>
			</g>
		</g>
		<g>
			<path class="st69" d="M97.6,114.5c0.3,0.2,0.6,0.8,0.6,1.1c0,0.5-0.3,0.6-0.6,0.5c-0.3-0.2-0.6-0.8-0.6-1.1
				C96.8,114.5,97.1,114.3,97.6,114.5z"/>
			<g>
				<path class="st66" d="M96.8,114.6l1,1.5l0.2-0.2c0.6-0.3-0.3-1.9-1-1.5L96.8,114.6z"/>
				<path class="st57" d="M97.3,114.6c0.3,0.2,0.6,0.6,0.6,1.1c0,0.3-0.3,0.5-0.6,0.3c-0.3-0.2-0.6-0.6-0.6-1.1
					C96.7,114.6,97,114.5,97.3,114.6z"/>
				<path class="st59" d="M97.3,114.8c0.3,0.2,0.5,0.5,0.5,0.8s-0.2,0.5-0.5,0.3c-0.3-0.2-0.5-0.5-0.5-0.8
					C96.8,114.8,97,114.6,97.3,114.8z"/>
				<path class="st68" d="M97.3,114.9c0.2,0.2,0.3,0.3,0.3,0.6c0,0.2,0,0.2,0,0.2s0,0,0-0.2C97.6,115.4,97.5,115.1,97.3,114.9
					c-0.2,0-0.3,0-0.3,0C97.1,114.9,97.1,114.9,97.3,114.9z"/>
			</g>
		</g>
		<path class="st66" d="M92.1,101l-0.2-0.5c0.3-0.2,0.6-0.3,1-0.5l0.2,0.5C92.6,100.7,92.4,100.7,92.1,101z"/>
		<g>
			<path class="st69" d="M99.4,113.8c0,0.2-0.2,0.5-0.3,0.5c-0.2,0.2-0.3,0-0.3-0.2c0-0.2,0.2-0.5,0.3-0.5
				C99.2,113.5,99.4,113.7,99.4,113.8z"/>
			<g>
				<path class="st57" d="M99.2,113.7l-0.3,0.6l0,0C99.1,114.5,99.6,113.8,99.2,113.7L99.2,113.7z"/>
				<path class="st68" d="M99.2,113.8c0,0.2-0.2,0.3-0.3,0.5c-0.2,0-0.3,0-0.2-0.2c0-0.2,0.2-0.3,0.3-0.5
					C99.1,113.7,99.2,113.7,99.2,113.8z"/>
			</g>
		</g>
		<g>
			<path class="st69" d="M98.8,113.5c0,0.2-0.2,0.5-0.3,0.5c-0.2,0.2-0.3,0-0.3-0.2c0-0.2,0.2-0.5,0.3-0.5
				C98.6,113.2,98.8,113.3,98.8,113.5z"/>
			<g>
				<path class="st57" d="M98.6,113.3l-0.3,0.6l0,0C98.6,114.1,98.9,113.5,98.6,113.3L98.6,113.3z"/>
				<path class="st68" d="M98.6,113.5c0,0.2-0.2,0.3-0.3,0.5c-0.2,0-0.3,0-0.2-0.2c0-0.2,0.2-0.3,0.3-0.5
					C98.6,113.2,98.6,113.3,98.6,113.5z"/>
			</g>
		</g>
		<g>
			<path class="st69" d="M98.1,113.2c0,0.2-0.2,0.5-0.3,0.5c-0.2,0.2-0.3,0-0.3-0.2c0-0.2,0.2-0.5,0.3-0.5
				C98.1,112.8,98.3,113,98.1,113.2z"/>
			<g>
				<path class="st57" d="M98,113l-0.3,0.6l0,0C98,113.8,98.3,113.2,98,113L98,113z"/>
				<path class="st68" d="M98,113.2c0,0.2-0.2,0.3-0.3,0.5c-0.2,0-0.3,0-0.2-0.2c0-0.2,0.2-0.3,0.3-0.5C98,112.8,98.1,113,98,113.2z
					"/>
			</g>
		</g>
		<path class="st72" d="M98.9,111.7l1.8,1l0.2,0.2c0,0.2,0,0.2,0,0.2l-0.3,0.5c-0.2,0.2-0.3,0.2-0.5,0.2l-1.8-1l-0.2-0.2
			c0-0.2,0-0.2,0-0.2l0.3-0.5C98.6,111.7,98.8,111.7,98.9,111.7z"/>
		<path class="st73" d="M98.4,112.8l-0.2-0.2c0-0.2,0-0.2,0-0.2l0.3-0.5c0-0.2,0.2-0.2,0.3-0.2l1.8,1l0.2,0.2c0,0.2,0,0.2,0,0.2
			l-0.3,0.5c-0.2,0.2-0.3,0.2-0.5,0.2L98.4,112.8z"/>
		<g>
			<path class="st69" d="M94.1,107.5c0,0.2-0.2,0.5-0.3,0.5c-0.2,0-0.3,0-0.3-0.2c0-0.2,0.2-0.5,0.3-0.5
				C93.9,107.2,94.1,107.3,94.1,107.5z"/>
			<g>
				<path class="st57" d="M93.9,107.3l-0.5,0.5l0,0C93.7,108.2,94.2,107.5,93.9,107.3L93.9,107.3z"/>
				<path class="st68" d="M93.9,107.5c0,0.2-0.2,0.3-0.3,0.3c-0.2,0-0.3,0-0.2-0.2c0-0.2,0.2-0.3,0.3-0.3
					C93.9,107.2,93.9,107.3,93.9,107.5z"/>
			</g>
		</g>
		<g>
			<g>
				<path class="st68" d="M99.7,115.9L99.7,115.9c0,0.2-0.2,0.2-0.2,0.2l-0.6-0.3c-0.2-0.2-0.3-0.3-0.3-0.3l0,0
					c0-0.2,0.2-0.2,0.2-0.2l0.6,0.3C99.6,115.6,99.7,115.8,99.7,115.9z"/>
				<path class="st69" d="M99.7,115.9C99.7,115.9,99.6,115.9,99.7,115.9l-0.8-0.3c-0.2-0.2-0.3-0.3-0.3-0.3l0,0c0,0,0,0,0-0.2h0.2
					l0.6,0.3C99.6,115.6,99.7,115.8,99.7,115.9L99.7,115.9L99.7,115.9z"/>
				<path class="st57" d="M99.4,115.6L99.4,115.6C99.4,115.8,99.4,115.8,99.4,115.6h-0.5c-0.2,0-0.3-0.3-0.3-0.3l0,0c0,0,0,0,0-0.2
					h0.2l0.5,0.3C99.4,115.4,99.4,115.6,99.4,115.6z"/>
				<path class="st59" d="M99.4,115.8L99.4,115.8c0,0.2-0.2,0.2-0.2,0.2l-0.3-0.2c-0.2,0-0.3-0.3-0.3-0.3l0,0c0-0.2,0.2-0.2,0.2-0.2
					l0.3,0.2C99.2,115.4,99.4,115.6,99.4,115.8z"/>
			</g>
			<g>
				<path class="st74" d="M98.9,115.3L98.9,115.3L98.9,115.3v0.3l0,0l0,0l0,0V115.3L98.9,115.3z"/>
				<path class="st57" d="M98.9,115.3L98.9,115.3L98.9,115.3v0.3l0,0l0,0l0,0V115.3C99.1,115.3,98.9,115.3,98.9,115.3z"/>
			</g>
		</g>
		<g>
			<g>
				<path class="st68" d="M99.7,116.7L99.7,116.7c0,0.2-0.2,0.2-0.2,0.2l-0.6-0.3c-0.2-0.2-0.3-0.3-0.3-0.3l0,0
					c0-0.2,0.2-0.2,0.2-0.2l0.6,0.3C99.6,116.4,99.7,116.6,99.7,116.7z"/>
				<path class="st69" d="M99.7,116.7C99.7,116.7,99.6,116.7,99.7,116.7l-0.8-0.3c-0.2,0-0.3-0.3-0.3-0.3l0,0c0,0,0,0,0-0.2h0.2
					l0.6,0.3C99.6,116.4,99.7,116.6,99.7,116.7L99.7,116.7L99.7,116.7z"/>
				<path class="st57" d="M99.4,116.4L99.4,116.4C99.4,116.6,99.4,116.6,99.4,116.4h-0.5c-0.2,0-0.3-0.3-0.3-0.3l0,0c0,0,0,0,0-0.2
					h0.2l0.5,0.3C99.4,116.2,99.4,116.4,99.4,116.4z"/>
				<path class="st59" d="M99.4,116.6L99.4,116.6c0,0.2-0.2,0.2-0.2,0.2l-0.3-0.2c-0.2,0-0.3-0.3-0.3-0.3l0,0c0-0.2,0.2-0.2,0.2-0.2
					l0.3,0.2C99.2,116.2,99.4,116.4,99.4,116.6z"/>
			</g>
			<g>
				<path class="st74" d="M98.9,116.1L98.9,116.1L98.9,116.1v0.3l0,0l0,0l0,0V116.1L98.9,116.1z"/>
				<path class="st57" d="M98.9,116.1L98.9,116.1L98.9,116.1v0.3l0,0l0,0l0,0V116.1C99.1,116.1,98.9,116.1,98.9,116.1z"/>
			</g>
		</g>
		<g>
			<g>
				<path class="st68" d="M99.7,117.5L99.7,117.5c0,0.2-0.2,0.2-0.2,0.2l-0.6-0.3c-0.2-0.2-0.3-0.3-0.3-0.3l0,0
					c0-0.2,0.2-0.2,0.2-0.2l0.6,0.3C99.6,117.2,99.7,117.4,99.7,117.5z"/>
				<path class="st69" d="M99.7,117.5C99.7,117.5,99.6,117.5,99.7,117.5l-0.8-0.3c-0.2-0.2-0.3-0.3-0.3-0.3l0,0c0,0,0,0,0-0.2h0.2
					l0.6,0.3C99.6,117.2,99.7,117.4,99.7,117.5L99.7,117.5L99.7,117.5z"/>
				<path class="st57" d="M99.4,117.2L99.4,117.2C99.4,117.4,99.4,117.4,99.4,117.2h-0.5c-0.2,0-0.3-0.3-0.3-0.3l0,0c0,0,0,0,0-0.2
					h0.2l0.5,0.3C99.4,117.1,99.4,117.2,99.4,117.2z"/>
				<path class="st59" d="M99.4,117.4L99.4,117.4c0,0.2-0.2,0.2-0.2,0.2l-0.3-0.2c-0.2,0-0.3-0.3-0.3-0.3l0,0c0-0.2,0.2-0.2,0.2-0.2
					l0.3,0.2C99.2,117.1,99.4,117.2,99.4,117.4z"/>
			</g>
			<g>
				<path class="st74" d="M98.9,116.9L98.9,116.9L98.9,116.9v0.3l0,0l0,0l0,0V116.9L98.9,116.9z"/>
				<path class="st57" d="M98.9,116.9L98.9,116.9L98.9,116.9v0.3l0,0l0,0l0,0V116.9C99.1,116.9,98.9,116.9,98.9,116.9z"/>
			</g>
		</g>
		<g>
			<g>
				<path class="st68" d="M99.7,118.3L99.7,118.3c0,0.2-0.2,0.2-0.2,0.2l-0.6-0.3c-0.2-0.2-0.3-0.3-0.3-0.3l0,0
					c0-0.2,0.2-0.2,0.2-0.2l0.6,0.3C99.6,118,99.7,118.2,99.7,118.3z"/>
				<path class="st69" d="M99.7,118.3C99.7,118.3,99.6,118.3,99.7,118.3l-0.8-0.3c-0.2-0.2-0.3-0.3-0.3-0.3l0,0c0,0,0,0,0-0.2h0.2
					l0.6,0.3C99.6,118,99.7,118.2,99.7,118.3L99.7,118.3L99.7,118.3z"/>
				<path class="st57" d="M99.4,118L99.4,118C99.4,118.2,99.4,118.2,99.4,118h-0.5c-0.2,0-0.3-0.3-0.3-0.3l0,0c0,0,0,0,0-0.2h0.2
					l0.5,0.3C99.4,117.9,99.4,118,99.4,118z"/>
				<path class="st59" d="M99.4,118.2L99.4,118.2c0,0.2-0.2,0.2-0.2,0.2l-0.3-0.2c-0.2,0-0.3-0.3-0.3-0.3l0,0c0-0.2,0.2-0.2,0.2-0.2
					l0.3,0.2C99.2,117.9,99.4,118,99.4,118.2z"/>
			</g>
			<g>
				<path class="st74" d="M98.9,117.7L98.9,117.7L98.9,117.7v0.3l0,0l0,0l0,0V117.7L98.9,117.7z"/>
				<path class="st57" d="M98.9,117.7L98.9,117.7L98.9,117.7v0.3l0,0l0,0l0,0V117.7C99.1,117.7,98.9,117.7,98.9,117.7z"/>
			</g>
		</g>
		<g>
			<g>
				<path class="st68" d="M95.8,113.8L95.8,113.8c0,0.2-0.2,0.2-0.3,0l-0.5-0.5c-0.2-0.2-0.2-0.3-0.2-0.5l0,0c0-0.2,0.2-0.2,0.3,0
					l0.5,0.5C95.8,113.5,95.8,113.7,95.8,113.8z"/>
				<path class="st69" d="M95.8,113.8C95.7,113.8,95.7,113.8,95.8,113.8l-0.6-0.6c-0.2-0.2-0.2-0.3-0.2-0.5l0,0c0,0,0,0,0-0.2h0.2
					l0.5,0.5C95.8,113.5,95.8,113.7,95.8,113.8L95.8,113.8L95.8,113.8z"/>
				<path class="st57" d="M95.7,113.5L95.7,113.5C95.5,113.7,95.5,113.7,95.7,113.5l-0.5-0.2c-0.2-0.2-0.2-0.3-0.2-0.5l0,0
					c0,0,0,0,0-0.2c0,0,0,0,0.2,0l0.3,0.3C95.7,113.3,95.7,113.5,95.7,113.5z"/>
				<path class="st59" d="M95.5,113.5L95.5,113.5c0,0.2-0.2,0.2-0.2,0l-0.2-0.2c-0.2-0.2-0.2-0.3-0.2-0.5l0,0c0-0.2,0.2-0.2,0.2,0
					l0.2,0.2C95.5,113.2,95.5,113.3,95.5,113.5z"/>
			</g>
			<g>
				<path class="st74" d="M95.4,113L95.4,113C95.2,113,95.2,113,95.4,113l-0.2,0.3l0,0l0,0l0,0L95.4,113L95.4,113z"/>
				<path class="st57" d="M95.4,113L95.4,113C95.4,113,95.2,113,95.4,113l-0.2,0.3l0,0l0,0l0,0L95.4,113L95.4,113z"/>
			</g>
		</g>
		<g>
			<path class="st69" d="M94.2,112c0.2,0.2,0.3,0.3,0.3,0.5c0,0.2-0.2,0.3-0.3,0.2c-0.2-0.2-0.3-0.3-0.3-0.5
				C94.1,112,94.2,112,94.2,112z"/>
			<g>
				<path class="st57" d="M94.1,112.2l0.3,0.5l0,0C94.7,112.5,94.4,112,94.1,112.2L94.1,112.2z"/>
				<path class="st59" d="M94.2,112.2c0.2,0,0.2,0.2,0.2,0.3c0,0.2-0.2,0.2-0.2,0.2c-0.2,0-0.2-0.2-0.2-0.3
					C94.1,112.2,94.1,112.2,94.2,112.2z"/>
			</g>
		</g>
		<g>
			<path class="st69" d="M93.7,111.6c0.2,0,0.2,0.2,0.2,0.3c0,0.2-0.2,0.2-0.2,0.2c-0.2,0-0.2-0.2-0.2-0.3
				C93.6,111.6,93.6,111.6,93.7,111.6z"/>
			<g>
				<path class="st57" d="M93.6,111.7l0.2,0.3l0,0C93.9,111.9,93.7,111.6,93.6,111.7L93.6,111.7z"/>
				<path class="st59" d="M93.6,111.7c0,0,0.2,0.2,0.2,0.3c0,0.2,0,0.2-0.2,0.2C93.6,112,93.4,111.9,93.6,111.7
					C93.4,111.7,93.6,111.6,93.6,111.7z"/>
			</g>
		</g>
		<g>
			<path class="st69" d="M94.6,108c0,0.2-0.2,0.3-0.3,0.3c-0.2,0-0.2,0-0.2-0.2c0-0.2,0.2-0.3,0.3-0.3
				C94.4,107.8,94.6,107.8,94.6,108z"/>
			<g>
				<path class="st57" d="M94.4,107.8l-0.3,0.3l0,0C94.2,108.3,94.6,108,94.4,107.8L94.4,107.8z"/>
				<path class="st68" d="M94.4,108c0,0.2-0.2,0.2-0.2,0.3c-0.2,0-0.2,0-0.2-0.2C94.1,108,94.2,107.8,94.4,108
					C94.4,107.8,94.4,107.8,94.4,108z"/>
			</g>
		</g>
		<g>
			<g>
				<path class="st68" d="M95.8,114.8L95.8,114.8c0,0.2-0.2,0.2-0.3,0l-0.5-0.5c-0.2-0.2-0.2-0.3-0.2-0.5l0,0c0-0.2,0.2-0.2,0.3,0
					l0.5,0.5C95.8,114.5,95.8,114.6,95.8,114.8z"/>
				<path class="st69" d="M95.8,114.8C95.7,114.8,95.7,114.8,95.8,114.8l-0.6-0.6c-0.2-0.2-0.2-0.3-0.2-0.5l0,0c0,0,0,0,0-0.2h0.2
					l0.5,0.5C95.8,114.5,95.8,114.6,95.8,114.8L95.8,114.8L95.8,114.8z"/>
				<path class="st57" d="M95.7,114.5L95.7,114.5C95.5,114.5,95.5,114.6,95.7,114.5l-0.5-0.2c-0.2-0.2-0.2-0.3-0.2-0.5l0,0
					c0,0,0,0,0-0.2c0,0,0,0,0.2,0l0.3,0.3C95.7,114.3,95.7,114.3,95.7,114.5z"/>
				<path class="st59" d="M95.5,114.5L95.5,114.5c0,0.2-0.2,0.2-0.2,0l-0.2-0.2c-0.2-0.2-0.2-0.3-0.2-0.5l0,0c0-0.2,0.2-0.2,0.2,0
					l0.2,0.2C95.5,114.1,95.5,114.3,95.5,114.5z"/>
			</g>
			<g>
				<path class="st74" d="M95.4,114L95.4,114C95.2,114,95.2,114,95.4,114l-0.2,0.3l0,0l0,0l0,0L95.4,114L95.4,114z"/>
				<path class="st57" d="M95.4,114L95.4,114C95.4,114,95.2,114,95.4,114l-0.2,0.3l0,0l0,0l0,0L95.4,114L95.4,114z"/>
			</g>
		</g>
		<g>
			<g>
				<path class="st75" d="M101.7,112.4L101.7,112.4c0.2,0,0.2-0.2,0-0.3l-0.6-0.3c-0.2,0-0.3-0.2-0.5,0l0,0c-0.2,0-0.2,0.2,0,0.3
					l0.6,0.3C101.4,112.5,101.5,112.5,101.7,112.4z"/>
				<path class="st69" d="M101.8,112.4C101.7,112.4,101.7,112.2,101.8,112.4l-0.6-0.5c-0.2-0.2-0.3-0.2-0.5,0l0,0l0,0
					c0,0,0,0,0.2,0.2l0.6,0.3C101.4,112.5,101.5,112.5,101.8,112.4L101.8,112.4C101.7,112.4,101.8,112.4,101.8,112.4z"/>
				<path class="st57" d="M101.4,112.2L101.4,112.2c0.2,0,0.2-0.2,0-0.2l-0.3-0.2c-0.2,0-0.3-0.2-0.5,0l0,0l0,0c0,0,0,0,0.2,0.2
					l0.5,0.3C101.2,112.4,101.4,112.4,101.4,112.2z"/>
				<path class="st59" d="M101.4,112.2L101.4,112.2c0.2,0,0.2-0.2,0-0.2l-0.3-0.2c-0.2,0-0.3-0.2-0.5,0l0,0c-0.2,0-0.2,0.2,0,0.2
					l0.3,0.2C101,112.2,101.2,112.2,101.4,112.2z"/>
			</g>
			<g>
				<path class="st75" d="M100.7,112L100.7,112L100.7,112l0.3-0.2l0,0l0,0l0,0L100.7,112C100.9,112,100.7,112,100.7,112z"/>
				<path class="st74" d="M100.7,112L100.7,112L100.7,112l0.3-0.2l0,0l0,0l0,0L100.7,112C100.9,112,100.9,112,100.7,112z"/>
			</g>
		</g>
		<g>
			<g>
				<path class="st75" d="M100.2,111.6L100.2,111.6c0.2,0,0.2-0.2,0-0.3l-0.6-0.3c-0.2-0.2-0.3-0.2-0.5,0l0,0c-0.2,0-0.2,0.2,0,0.3
					l0.6,0.3C99.9,111.6,100.1,111.6,100.2,111.6z"/>
				<path class="st69" d="M100.4,111.6C100.2,111.4,100.2,111.4,100.4,111.6l-0.6-0.5c-0.2-0.2-0.3-0.2-0.5,0l0,0l0,0
					c0,0,0,0,0.2,0.2l0.6,0.3C99.9,111.6,100.1,111.6,100.4,111.6L100.4,111.6C100.2,111.6,100.4,111.6,100.4,111.6z"/>
				<path class="st57" d="M99.9,111.4L99.9,111.4c0.2,0,0.2-0.2,0-0.2l-0.3-0.2c-0.2,0-0.3-0.2-0.5,0l0,0l0,0c0,0,0,0,0.2,0.2
					l0.5,0.3C99.7,111.4,99.9,111.4,99.9,111.4z"/>
				<path class="st59" d="M99.9,111.4L99.9,111.4c0.2,0,0.2-0.2,0-0.2l-0.3-0.2c-0.2,0-0.3-0.2-0.5,0l0,0c-0.2,0-0.2,0.2,0,0.2
					l0.3,0.2C99.6,111.4,99.7,111.4,99.9,111.4z"/>
			</g>
			<g>
				<path class="st75" d="M99.2,111.2L99.2,111.2L99.2,111.2l0.3-0.2l0,0l0,0l0,0L99.2,111.2C99.4,111.2,99.2,111.2,99.2,111.2z"/>
				<path class="st74" d="M99.2,111.2L99.2,111.2L99.2,111.2l0.3-0.2l0,0l0,0l0,0L99.2,111.2C99.4,111.2,99.4,111.2,99.2,111.2z"/>
			</g>
		</g>
		<path class="st69" d="M95.4,108.3l2.3,2.3c0.2,0.2,0.2,0.2,0.2,0.3c0,0.2,0,0.2-0.2,0.3l-0.6,1.1c-0.2,0.2-0.3,0.3-0.6,0l-2.3-2.3
			c-0.2-0.2-0.2-0.2-0.2-0.3c0-0.2,0-0.2,0.2-0.3l0.6-1.1C95,108.3,95.2,108.2,95.4,108.3z"/>
		<path class="st58" d="M95.5,108.5l2.1,2.1c0.2,0.2,0.2,0.2,0.2,0.3c0,0.2,0,0.2-0.2,0.3l-0.6,1.1c-0.2,0.2-0.3,0.2-0.5,0l-2.1-2.1
			c-0.2-0.2-0.2-0.2-0.2-0.3c0-0.2,0-0.2,0.2-0.3l0.6-1.1C95,108.3,95.2,108.3,95.5,108.5z"/>
		<path class="st66" d="M95.4,108.5l2.1,2.1c0.2,0.2,0.2,0.2,0.2,0.3c0,0.2,0,0.2-0.2,0.3l-0.6,1.1c0,0.2-0.2,0.2-0.3,0.2
			c0,0-0.2,0-0.2-0.2l-2.1-2.1c-0.2-0.2-0.2-0.2-0.2-0.3c0-0.2,0-0.2,0.2-0.3l0.6-1.1c0-0.2,0.2-0.2,0.3-0.2
			C95.2,108.3,95.4,108.5,95.4,108.5z"/>
	</g>
	<g>
		<path class="st36" d="M89,118.7c-0.5,0.3-1.8-2.1-0.8-2.6c1.6-0.5,1.8-1.6,2.4-1.9c0.3-0.2,3.4-0.6,4-0.5c0.5,0,0.2,3.2-0.2,3.7
			c-0.8,0.5-3.1,0.8-3.6,0.8C89.9,118,90.3,118,89,118.7z"/>
		<path class="st36" d="M94.9,116.7l2.1,0.3c0.5,0.2,0.3,0.6-0.2,0.6l-2.1-0.2C94.2,117.5,94.4,116.6,94.9,116.7z"/>
		<path class="st36" d="M94.4,116.2L94.4,116.2c0-0.3,0.3-0.5,0.5-0.5l2.4,0.3c0.6,0,0.5,0.8,0,0.8h-2.4
			C94.6,116.7,94.4,116.6,94.4,116.2z"/>
		<path class="st36" d="M94.4,115.3L94.4,115.3c0-0.3,0.3-0.5,0.5-0.5l2.6,0.5c0.6,0.2,0.6,0.8-0.2,0.8l-2.6-0.3
			C94.6,115.8,94.4,115.6,94.4,115.3z"/>
		<path class="st36" d="M95,113.8l2.4,0.3c0.6,0.2,0.5,0.8-0.2,0.8l-2.4-0.3C94.2,114.6,94.4,113.7,95,113.8z"/>
		<path class="st36" d="M89.9,115.4c0-0.5,0.3-1,1-1.5c0.5-0.5,1.3-0.8,1.5-1c0.6-0.5,0.6-0.3,1.3-0.6c0.3,0.3,0.5,0.8-0.6,1.5
			c-0.2,0.2,0,0.5-1,0.8C91.8,116.7,89.9,116.2,89.9,115.4z"/>
	</g>
	<path class="st13" d="M74.2,127.1c4.5-0.8,12.6-5.2,16-8.4c1-0.8,0.5-3.1-1.5-3.1c-3.4,1.6-12.3,4-14.4,5.7
		c-2.1,0.5-3.1,2.1-2.9,3.6C71.4,126.1,72.5,127.4,74.2,127.1z"/>
</g>
<g>
	<g>
		<g>
			<polygon class="st9" points="62.3,142.5 67.4,128.7 59.8,124.2 54.6,137.9 			"/>
			<polygon class="st76" points="59.8,124.2 67.4,128.7 68,128.7 60.2,124 			"/>
			<polygon class="st77" points="62.3,142.5 67.4,128.7 68,128.7 62.8,142.5 			"/>
		</g>
		<g>
			<path class="st78" d="M53.8,192.8c1.1,0.8,0.5,3.1-0.6,3.4c-2.6,0.8-4.5,1.9-6.3,2.6c-0.6,0.2-2.1,0.3-2.6-0.8
				c-0.2-0.5,0.8-2.1,0.8-2.1C47.9,196.4,52.5,192,53.8,192.8z"/>
			<path class="st79" d="M49.7,193.5c1.3,0.2,3.1-1.1,3.4-1.1s0.8,0.5,1,1c0.2,1-0.3,1.9-1.1,2.3c-1,0.5-1.9,0.2-3.4,0.8
				c-0.8,0.3-2.9,1.5-3.6,1.5c-0.8,0-1.5-0.5-1.5-1.1C44.4,193.6,47,193.1,49.7,193.5z"/>
		</g>
		<g>
			<path class="st78" d="M59.3,199.4c1.1,0.8,0.5,3.1-0.6,3.4c-2.6,0.8-4.5,1.9-6.3,2.6c-0.6,0.2-2.1,0.3-2.6-0.8
				c-0.2-0.5,0.8-2.1,0.8-2.1C53.6,203,58,198.8,59.3,199.4z"/>
			<path class="st79" d="M55.4,199.9c1.3,0.2,2.8-1,3.2-0.8c0.3,0,0.8,0.5,1,1c0.2,1-0.3,1.9-1.1,2.3c-1,0.5-1.9,0.2-3.4,0.8
				c-0.8,0.3-2.9,1.5-3.6,1.5c-0.8,0-1.5-0.5-1.5-1.1C50,200.3,52.6,199.6,55.4,199.9z"/>
		</g>
		<g>
			<path class="st45" d="M59.6,163.8c0.2,7.6-2.9,16.3-3.6,19.3c-0.6,1.6-4,2.6-5.2,0c2.4-8.9-6.5-19.1,0.3-29
				C57.6,150.1,58.8,155.6,59.6,163.8z"/>
			<path class="st45" d="M50.8,183.1c-0.6,1.8-1.3,3.7-1.3,6c0,3.2,1.1,8.3,1.1,12.1c0.2,1.8,2.3,1.1,3.1,0.2
				c0.2-3.6,1.9-14.6,2.6-19.3c0-0.5-0.5-0.6-1.1-0.8C52.5,181.5,52.1,180.5,50.8,183.1z"/>
		</g>
		<g>
			<path class="st36" d="M50.5,152.3c1.3,3.7,1.1,19.3-0.8,25.9c-0.3,1.6-2.8,0.3-4.7-1.5c0.3-3.4-2.1-18.3-1.6-19.7
				C45.3,155.9,48.4,148.1,50.5,152.3z"/>
			<path class="st36" d="M45.2,175.3c0,0,0.2,1.5-0.3,3.1c-2.1,6.8,0.5,10.7,0.3,16.2c0,1.6,2.9,1.5,2.9,0c0-8.1,1.9-12,1.6-17
				L45.2,175.3z"/>
		</g>
		<path class="st80" d="M44,148.8c-3.6,6.3,1.1,10.4-0.3,21.4c3.9,4.5,13.8,8.4,14.9,5.2c2.9-11.7,1.8-22.8-1-29.1
			C52.6,148.6,49.1,146.4,44,148.8z"/>
		<path class="st81" d="M45.8,148.6c-1.6,4.9-0.6,8.7,2.6,12.6c2.9,3.4,2.3,7.9,2.8,13.9c-2.8-1.1-5.7-3.1-7.4-5.2
			c1.5-11-3.1-14.6,0.3-21.4C44.7,148.5,45.2,148.9,45.8,148.6z"/>
		<path class="st36" d="M46.8,130.8c0,2.6,0.6,5.5,1.3,8.3c-0.3,3.2-3.6,1.9-3.9,1.5c-2.1-3.1-5.5-20.6,1.3-17.3
			C47.9,124.5,46.8,127.1,46.8,130.8z"/>
		<path class="st45" d="M50.5,109.8c2.3,0.2,4.4,1,4.7,5.2c0.2,1.3-0.5,1.5-0.2,3.6c0.2,1.1-0.8,2.6-1.1,3.6c-0.2,0.6-0.2,0.8-1,1
			c-0.6,0.2-1.3,0-1.9-0.2c-1.1-0.3-2.4-0.6-3.4-1.5c-1-1-1.1-2.3-1.3-3.6C44.2,112.2,46.2,109.4,50.5,109.8z"/>
		<path class="st36" d="M51.7,121.4c0.2,0.5,0,4.7-0.3,5.2c-1.3,1.5-5.5-0.2-4.7-3.1c0.5-1.8-0.2-5,0.2-5.3
			C47.9,117.1,51,114.9,51.7,121.4z"/>
		<path class="st82" d="M49.7,109.4c-1.9,0.2-3.9,1.3-4.7,3.1c-1.1,2.4-0.8,5.3,1.8,7.3c0.2,0.3,2.1,0.8,2.3,0.6
			c1-1.3,0.5-2.4,2.8-2.9c1.6-0.3,1.5-4.2,2.9-4.7C54.7,110.4,52.3,109.3,49.7,109.4z"/>
		<path class="st45" d="M52,118.2c0,0-0.6-1.8-1.3-1c-0.6,1,0.6,4.4,1.1,3.7C52.5,120.1,52.3,118.8,52,118.2z"/>
		<path class="st79" d="M42.6,124.7c0.8-1.6,3.4-1.3,5-0.8c4.4,1.1,6.3,2.1,7.8,3.6c1.1,1.1,1.3,3.6,2.8,5.2c0.2,1.6,0.2,3.1-1,4.5
			c-1.9,2.4,1.5,12,2.1,14.7c-0.5,1.6-1.3,1.9-2.9,2.6c-3.7,1.5-11.3-0.5-12.9-4.2c0.8-4,2.6-4.9,1.8-9.7
			C44.7,137.4,39.7,130.2,42.6,124.7z"/>
		<path class="st83" d="M46,117.4c-1.6,2.9,3.1,6.5,0.8,12c-0.3,1-2.3,1.8-2.9,1.3c-0.5-3.7-2.1-15.2,1-15.5
			C45.5,114.1,47,115.8,46,117.4z"/>
		<path class="st45" d="M50.7,131.8c0,3.2,1.8,9.7,2.4,13.3c0.5,2.4,1.1,3.4,1.8,2.6c0.5-0.6,1.8-2.3,2.3-4.2
			c-0.6-4,1-14.7-2.6-15.7C53,127.1,50.5,128.4,50.7,131.8z"/>
		<path class="st82" d="M56,114.8c-0.3,0.8-1.5,1.5-2.1,1.3c1-1.1,1-2.9,0.8-3.2C55.4,112.4,56,113.3,56,114.8z"/>
		<path class="st45" d="M54.1,144.6c1-2.4,6.5-7.6,8.1-10.5c0.8-1.8,2.8,0.8,1.9,1.3c-0.3,1-2.9,6.3-5.2,10.2
			C56.2,149.9,52.5,148.5,54.1,144.6z"/>
		<g>
			<path class="st45" d="M62.5,133.7c-0.2-0.3,0-1,0.3-1.5c0.3-0.5,0.6-1.1,0.8-1.3c0.3-0.5,0.5-0.5,0.8-1c0.3,0.2,0.6,0.5,0,1.5
				c0,0.2,0,0.3-0.5,1C64.4,134.1,62.8,134.4,62.5,133.7z"/>
			<path class="st45" d="M62.2,133.9c0.3-0.6,0.3-1.1,0.6-1.5c0.2-0.2,2.4-1.6,3.1-1.8c0.5-0.2,1.3,2.4,1.1,2.9
				c-0.5,0.6-2.3,1.6-2.6,1.8c-0.6,0.2-0.8,0-1.1,0.2C63.1,135.8,61,136,62.2,133.9z"/>
			<path class="st45" d="M66.9,133.1l1.8-0.3c0.5-0.2,0.5,0.5,0,0.6l-1.6,0.5C66.5,134.1,66.4,133.2,66.9,133.1z"/>
			<path class="st45" d="M66.4,132.9L66.4,132.9c0-0.2,0-0.5,0.3-0.5l1.9-0.6c0.5-0.2,0.6,0.5,0.2,0.6l-1.9,0.8
				C66.7,133.2,66.4,133.1,66.4,132.9z"/>
			<path class="st45" d="M66.1,132.1L66.1,132.1c0-0.2,0-0.5,0.3-0.5l2.3-0.5c0.5-0.2,0.8,0.5,0.2,0.6l-2.3,0.6
				C66.4,132.4,66.1,132.4,66.1,132.1z"/>
			<path class="st45" d="M66.1,130.8l2.1-0.5c0.5-0.2,0.6,0.5,0.2,0.6l-1.9,0.6C65.7,131.6,65.4,130.8,66.1,130.8z"/>
		</g>
	</g>
</g>
<path id="XMLID_17_" class="st84" d="M190.5,155.4c0,0.2-0.2,0.3-0.3,0.3c-0.2,0-0.3-0.2-0.3-0.3c0-0.2,0.2-0.3,0.3-0.3
	C190.4,155.1,190.5,155.3,190.5,155.4z"/>
<path id="XMLID_1_" class="st84" d="M187.6,154.9c0,0.2-0.2,0.3-0.3,0.3c-0.2,0-0.3-0.2-0.3-0.3c0-0.2,0.2-0.3,0.3-0.3
	C187.5,154.6,187.6,154.8,187.6,154.9z"/>
<g>
	<g>
		<g>
			<path class="st85" d="M192,155.3c-0.2,0.2-0.6-0.5-1.5-0.6c-0.8-0.2-1.6,0.2-1.6,0c0,0,0.2-0.2,0.5-0.3c0.3-0.2,0.8-0.3,1.3-0.2
				c0.5,0.2,1,0.3,1.1,0.6C192,155.1,192.2,155.3,192,155.3z"/>
		</g>
	</g>
</g>
<g>
	<g>
		<g>
			<path class="st85" d="M188.4,154.6c0,0-0.2-0.3-0.7-0.3c-0.4-0.1-0.8,0.2-0.8,0c0,0,0-0.2,0.1-0.2c0.2,0,0.4-0.3,0.6-0.2
				c0.2,0.1,0.4,0.2,0.6,0.3C188.3,154.4,188.4,154.6,188.4,154.6z"/>
		</g>
	</g>
</g>
<g>
	<g>
		<g>
			<path class="st85" d="M189.1,158.5c0,0-0.3,0-0.8,0c-0.2,0-0.2,0-0.3,0c0,0,0-0.1,0-0.3c0-0.3,0.2-0.6,0.2-0.9
				c0.3-1.2,0.5-2.1,0.3-2.1c0,0-0.3,0.9-0.5,2.1c0,0.3-0.2,0.6-0.2,0.9c0,0.1,0,0.3,0,0.4l0.2,0.1h0.2
				C188.8,158.7,189.1,158.5,189.1,158.5z"/>
		</g>
	</g>
</g>
<g>
	<g>
		<g>
			<path class="st85" d="M187.6,160.1c0,0,0.2,0.3,0.7,0.3c0.5,0.1,0.9-0.2,0.9-0.2s0,0.2-0.3,0.2c-0.2,0-0.4,0.3-0.8,0.2
				s-0.5-0.2-0.7-0.3C187.6,160.2,187.6,160.1,187.6,160.1z"/>
		</g>
	</g>
</g>
</svg>
