<?xml version="1.0" encoding="utf-8"?>
<!-- Generator: Adobe Illustrator 25.1.0, SVG Export Plug-In . SVG Version: 6.00 Build 0)  -->
<svg version="1.1" id="Layer_1" xmlns="http://www.w3.org/2000/svg" xmlns:xlink="http://www.w3.org/1999/xlink" x="0px" y="0px"
	 viewBox="0 0 300 265" style="enable-background:new 0 0 300 265;" xml:space="preserve">
<style type="text/css">
	.st0{fill:#5E5E5E;}
	.st1{fill:#CDD7E9;}
	.st2{fill:#ACCADA;}
	.st3{fill:#367081;}
	.st4{fill:#33A1A4;}
	.st5{fill:#3CC7C7;}
	.st6{fill:#FFBA8B;}
	.st7{fill:#AF9D63;}
	.st8{fill:#2C495C;}
	.st9{fill:#3A6078;}
	.st10{fill:#4E4E4E;}
	.st11{fill:#C6B470;}
	.st12{fill:#FFFFFF;}
	.st13{fill:#774427;}
	.st14{clip-path:url(#SVGID_2_);}
	.st15{fill:#7F5242;}
	.st16{fill:#400303;}
	.st17{clip-path:url(#SVGID_4_);}
	.st18{fill:#EE9C70;}
	.st19{fill:#38663F;}
	.st20{fill:#84AB6F;}
	.st21{fill:#A57439;}
	.st22{fill:#DE924D;}
	.st23{fill:#8FF6DF;}
	.st24{fill:#424242;}
	.st25{fill:#CFA675;}
	.st26{fill:#927A63;}
	.st27{fill:#97A0D1;}
	.st28{fill:#AAC6E8;}
	.st29{fill:#A4A1C6;}
	.st30{fill:#4444B5;}
	.st31{fill:#7BA9AE;}
	.st32{fill:#3BAFCE;}
	.st33{fill:#FDCC40;}
	.st34{fill:#CECC3A;}
	.st35{fill:#FFB9FD;}
	.st36{fill:#B5BDF8;}
	.st37{fill:#042733;}
</style>
<g>
	<g>
		<path class="st0" d="M183.97,251.64c0.81-0.1,21.69-12.84,16.81-12.42c-0.53,0.05-1.12,0.11-1.72,0.19
			c-4.96,0.63-11.85,2.18-11.85,2.18l-4.33-2.71l-3.93-2.48l-0.66-0.43l-4.52,4c0,0,1.78,2.21,3.81,4.68
			c0.75,0.9,1.57,1.87,2.32,2.77c0.8,0.95,1.59,1.84,2.24,2.56C183.07,251,183.78,251.66,183.97,251.64z"/>
	</g>
	<path class="st1" d="M179.92,247.44c3.22-1.59,7.29-5.85,7.29-5.85l-4.33-2.71l-3.89-2.43c-2.13,1.48-4.65,3.24-5.14,3.62
		c0,0,1.72,2.17,3.75,4.63C178.36,245.6,179.15,246.54,179.92,247.44z"/>
</g>
<g>
	<g>
		<rect x="102.25" y="219.28" class="st2" width="5.01" height="8.86"/>
	</g>
	<path class="st3" d="M132.34,213.57c0,2.83-3.38,7.61-6.88,7.61H85.21c-3.5,0-4.45-4.78-4.45-7.61v-0.22
		c0-2.83,0.96-4.84,4.45-4.84h40.25c3.5,0,6.88,2.03,6.88,4.84V213.57z"/>
	<g>
		<g>
			<path class="st2" d="M104.27,243.16c1.3-0.68,2.99-0.42,4.43-0.33c1.81,0.12,3.63,0.25,5.45,0.22c3.38-0.06,6.91,0.05,10.03,1.31
				c2.56,1.03,6.02,3.07,6.98,5.55c0.74,1.91,0.69,4.96-0.97,6.51c-0.29,0.28-0.73-0.01-0.66-0.34c0.16-0.74-0.26-1.8-0.33-2.57
				c-0.12-1.38,0.23-2.44-0.84-3.64c-1.88-2.1-4.64-3.56-7.55-4.2c-2.7-0.59-5.52-0.42-8.27-0.58c-1.39-0.08-2.74-0.31-4.1-0.52
				c-1.36-0.23-2.96-0.28-4.16-0.94C104.08,243.52,104.07,243.26,104.27,243.16z"/>
			<path class="st2" d="M101.97,243.16c-1.3-0.68-2.99-0.42-4.43-0.33c-1.81,0.12-3.63,0.25-5.45,0.22
				c-3.38-0.06-6.91,0.05-10.03,1.31c-2.56,1.03-6.03,3.07-6.98,5.55c-0.74,1.91-0.69,4.96,0.97,6.51c0.29,0.28,0.73-0.01,0.66-0.34
				c-0.16-0.74,0.26-1.8,0.33-2.57c0.14-1.38-0.23-2.44,0.84-3.64c1.88-2.1,4.64-3.56,7.55-4.2c2.7-0.59,5.52-0.42,8.27-0.58
				c1.37-0.08,2.74-0.31,4.1-0.52c1.36-0.23,2.96-0.28,4.16-0.94C102.16,243.52,102.18,243.26,101.97,243.16z"/>
			<path class="st2" d="M88.92,251.21c0.18-1.63,1.31-3.28,2.78-4.27c1.63-1.1,3.54-1.55,5.54-1.79c0.98-0.12,1.95-0.24,2.92-0.45
				c0.98-0.23,1.89-0.65,2.9-0.78c0.53-0.07,1,0.35,0.71,0.82c-1.62,2.62-6.18,2.12-8.97,2.91c-1.97,0.57-3.47,2.02-3.95,3.78
				c-0.24,0.89-0.03,1.87-0.02,2.77c0.01,0.75,0.25,1.44-0.15,2.11c-0.14,0.23-0.46,0.17-0.61,0
				C88.91,254.97,88.74,252.85,88.92,251.21z"/>
			<path class="st2" d="M115.83,251.21c-0.18-1.63-1.31-3.28-2.78-4.27c-1.63-1.1-3.54-1.55-5.54-1.79
				c-0.98-0.12-1.95-0.24-2.92-0.45c-0.98-0.23-1.89-0.65-2.9-0.78c-0.53-0.07-1,0.35-0.71,0.82c1.62,2.62,6.18,2.12,8.97,2.91
				c1.97,0.57,3.47,2.02,3.95,3.78c0.24,0.89,0.03,1.87,0.02,2.77c-0.01,0.75-0.25,1.44,0.15,2.11c0.14,0.23,0.46,0.17,0.61,0
				C115.84,254.97,116.01,252.85,115.83,251.21z"/>
		</g>
		<g>
			<g>
				<g>
					<g>
						<path class="st0" d="M95.66,258.49c0,0.17-0.01,0.36-0.05,0.53c-0.33,2.09-2.53,3.71-5.2,3.71c-2.68,0-4.89-1.61-5.22-3.71
							c-0.02-0.17-0.05-0.35-0.05-0.53c0-2.34,2.35-4.25,5.25-4.25C93.31,254.25,95.66,256.16,95.66,258.49z"/>
					</g>
				</g>
				<g>
					<g>
						<path class="st0" d="M80.91,258.49c0,0.17-0.01,0.36-0.05,0.53c-0.33,2.09-2.53,3.71-5.22,3.71c-2.67,0-4.88-1.61-5.22-3.71
							c-0.02-0.17-0.03-0.35-0.03-0.53c0-2.34,2.35-4.25,5.25-4.25C78.55,254.25,80.91,256.16,80.91,258.49z"/>
					</g>
				</g>
			</g>
			<g>
				<g>
					<g>
						<path class="st0" d="M121.02,258.49c0,0.17-0.01,0.36-0.05,0.53c-0.33,2.09-2.53,3.71-5.2,3.71c-2.68,0-4.89-1.61-5.2-3.71
							c-0.02-0.17-0.03-0.35-0.03-0.53c0-2.34,2.34-4.25,5.25-4.25C118.67,254.25,121.02,256.16,121.02,258.49z"/>
					</g>
				</g>
				<g>
					<g>
						<path class="st0" d="M124.12,258.49c0,0.17,0.01,0.36,0.05,0.53c0.33,2.09,2.53,3.71,5.2,3.71c2.68,0,4.89-1.61,5.22-3.71
							c0.02-0.17,0.03-0.35,0.03-0.53c0-2.34-2.35-4.25-5.25-4.25C126.47,254.25,124.12,256.16,124.12,258.49z"/>
					</g>
				</g>
			</g>
			<g>
				<rect x="99.39" y="228.15" class="st3" width="10.03" height="20.27"/>
			</g>
		</g>
	</g>
	<g>
		<path class="st4" d="M147.45,203.67c-1.85-1.58-4.52-2.14-8.23-2.53c-4.21-0.44-2.24-0.72-10.92-0.8
			c-5.41-0.05-18.09-0.62-19.79-6.25c-0.57-1.87-0.34-4.18-0.47-6.12c-0.12-1.76-0.24-3.53-0.33-5.3c-0.18-3.24-0.35-6.49-0.59-9.73
			c-0.42-5.94-0.78-11.88-1.19-17.82c-0.08-1.17-0.24-2.35-0.24-3.53c0-3.38-3.21-7.79-8.71-8.38c-10.38-1.12-32.5-3.07-34.58,0
			c0,0,5,50.79,6.29,54.81s18.61,7.53,20.61,8.24c1.32,0.46,2.51,0.52,8.4,0.5c3.48,3.48-7.45,6.17,0,6.71
			c1.71,0.13,43.19-0.65,44.31-0.59c3.81,0.21,7.1-2.07,7.33-5.07C149.47,206.31,148.78,204.8,147.45,203.67z"/>
		<g>
			<path class="st5" d="M79.06,213.07c-7.05-0.51-12.5-2.67-16.24-6.45c-3.71-3.75-4.31-7.75-4.39-8.52
				c-0.02-0.19-0.03-0.37-0.03-0.56l-0.69-50.01c-0.05-3.07,2.25-5.73,5.14-5.93c2.88-0.21,5.25,2.12,5.28,5.19
				c0.07,4.61,0.12,9.21,0.18,13.82c0.1,8.25,0.11,16.5,0.35,24.74c0.06,1.75,0.07,3.5,0.03,5.24c-0.05,2.83-0.37,6.5,2.07,8.22
				c1.99,1.4,3.94,2.35,6.36,2.75c2.08,0.33,4.28,0.51,6.4,0.48c6.53-0.08,11.45,0.07,14.61,0.44c2.78,0.33,4.78,0.84,6.13,2.43
				c0.96,1.12,1.44,2.65,1.3,4.2c-0.27,3.07-2.14,4.58-5,4.44c-0.83-0.04-7.28,0.58-17.46-0.35
				C81.71,213.06,80.34,213.17,79.06,213.07z"/>
		</g>
	</g>
	<g>
		<g>
			<g>
				<path class="st3" d="M94.47,228.94c-0.19,0-0.37-0.05-0.53-0.15c-0.34-0.24-0.38-0.65-0.09-0.93l7.95-7.55
					c0.29-0.27,0.8-0.31,1.14-0.07s0.38,0.65,0.09,0.92l-7.95,7.55C94.92,228.86,94.68,228.94,94.47,228.94z"/>
			</g>
		</g>
		<path class="st3" d="M96.76,229.2c0,1.78-1.63,3.22-3.64,3.22c-2.02,0-3.64-1.44-3.64-3.22c0-1.77,1.63-3.22,3.64-3.22
			C95.12,225.98,96.76,227.43,96.76,229.2z"/>
	</g>
</g>
<path class="st6" d="M165.98,172.04c-2.76-6.39-14.08-6.06-18.28-1.44l-5.19,3.06c3.89,2.77,12.92,1.25,17.76,1.9
	C163.64,176,168.08,176.91,165.98,172.04z"/>
<path class="st7" d="M106.92,142.21c0,0-2.44,38.07,44.68,31.98l1.94-7.85c0,0-21.47-5.19-25.54-11.36c0,0-3.18-10.28-6.68-16.89
	C116.46,128.96,110.47,124.48,106.92,142.21z"/>
<path class="st8" d="M82.74,184.5c0,0-3.71,17.85,8.22,18.67c11.93,0.83,43.37,6.19,46.11,9.71c2.75,3.52,39.57,34.48,39.57,34.48
	l9.08-8.85c0,0-30.16-34.21-41.58-41.56c-15.58-10.04-38.89-13.7-38.89-13.7L82.74,184.5z"/>
<g>
	<g>
		<path class="st0" d="M165.09,259.9c0.82,0,23.5-10.05,18.61-10.23c-0.54-0.02-1.12-0.03-1.73-0.03c-5,0.01-12.09,0.7-12.09,0.7
			l-3.85-3.22l-3.5-2.94l-0.6-0.51l-5.1,3.4c0,0,1.41,2.42,3.03,5.1c0.6,0.99,1.25,2.05,1.86,3.02c0.65,1.04,1.28,2.03,1.81,2.81
			C164.3,259.15,164.9,259.9,165.09,259.9z"/>
	</g>
	<path class="st1" d="M161.74,255.23c3.45-1.17,8.14-4.89,8.14-4.89l-3.85-3.22l-3.46-2.89c-2.34,1.2-5.13,2.64-5.66,2.95
		c0,0,1.36,2.36,2.99,5.05C160.49,253.23,161.13,254.25,161.74,255.23z"/>
</g>
<path class="st9" d="M75.44,180.93c0,0-6.49,17.21,5.19,19.51c11.68,2.29,41.96,11.48,44.14,15.3c2.16,3.83,33.75,39.01,33.75,39.01
	l10.39-7.65c0,0-24.47-37.59-34.62-46.28c-13.84-11.86-36.34-18.35-36.34-18.35L75.44,180.93z"/>
<path class="st10" d="M76.74,177.1c0,0,23.36,3.06,29.85,1.91l-0.43,4.21c0,0-22.5,2.67-30.72-2.29L76.74,177.1z"/>
<path class="st11" d="M76.74,177.1c-1.69-0.36-10.57-45.49-5.62-49.35c7.36-5.74,44.56-6.12,46.73,7.65
	c2.14,13.64-10.63,43.63-10.63,43.63S94.91,180.93,76.74,177.1z"/>
<path class="st6" d="M153,174.33c-2.76-6.39-14.08-6.06-18.28-1.44l-5.19,3.06c3.89,2.77,12.92,1.25,17.76,1.9
	C150.66,178.31,155.1,179.2,153,174.33z"/>
<path class="st11" d="M77.08,127.11c9.52,0.23,10.06,11.35,16.98,19.38c12.95,15.02,21.36,18.6,27.61,20.14
	c7.78,1.91,16.09,2.81,16.09,2.81l-1.3,10.32c0,0-30.72,0.76-45.43-10.32c-6.8-5.13-12.18-11.96-16.24-18.95
	c-3.24-5.58-6.89-13.35-4.61-19.75c0.54-1.51,1.51-2.64,3.26-3.14C74.71,127.25,75.93,127.09,77.08,127.11z"/>
<path class="st6" d="M88.89,113.22c-0.33,1.15-2.64,13.01-2.64,13.01s12.5,8.8,16.13,6.12c0,0,0.99-4.59,0.66-8.41
	s-0.66-8.8-0.66-8.8L88.89,113.22z"/>
<g>
	<polygon class="st12" points="98.33,179.12 99.62,185.19 105.46,184.76 105.62,178.73 	"/>
	<polygon class="st0" points="100.43,180.3 100.56,183.98 104.16,183.6 104.33,180.17 	"/>
</g>
<path class="st13" d="M112.11,80.61c-2.2-1.35,0.14-4.64-1.7-7.24c-4.74-6.74-12.03,2.72-17.12,0.86c-3.55-1.31-4.34-3.06-8.69-1.88
	c-3.35,0.9-6.38,3.33-6.91,6.54c-0.42,2.5,2.02,5.01,1.66,7.17c-0.42,2.48-3.91,2.47-5.14,4.87c-2.76,5.43,2.58,15.78,9.98,15.49
	l14.6-10.61c5.72-2.89,10.19-1.57,15.89-2.86c3.69-0.83,5.01-4.04,4.87-7.2C119.32,80.09,115.61,82.76,112.11,80.61z"/>
<path class="st6" d="M108.9,85.96c-0.68,0-1.45,0.08-2.37,0.28c-4.1,0.87-8.12,2.1-12.2,3.06c-2.4,0.58-7.85,1.7-8.18,4.58
	c-0.21,1.85,0,3.69-0.17,5.54c-0.3,3.47-1.69,6.49-3.66,9.34c0.64,1.26,1.34,2.51,2.12,3.71c0.84,1.31,1.7,2.59,2.82,3.72
	c2.14,2.16,4.89,3.93,7.86,5.01c3.6,1.31,8.07,1.55,11.26-0.62c2.94-1.98,4.45-6.08,5.47-9.2c0.97-2.98,0.2-6.52-0.07-9.62
	C111.36,96.87,112.3,90.27,108.9,85.96z"/>
<g>
	<path class="st12" d="M90.26,100.67c0,2.36,1.4,4.29,3.11,4.29s3.11-1.92,3.11-4.29c0-2.36-1.39-4.29-3.11-4.29
		C91.65,96.39,90.26,98.31,90.26,100.67z"/>
	<g>
		<g>
			<defs>
				<ellipse id="SVGID_1_" cx="93.37" cy="100.67" rx="3.11" ry="4.29"/>
			</defs>
			<clipPath id="SVGID_2_">
				<use xlink:href="#SVGID_1_"  style="overflow:visible;"/>
			</clipPath>
			<g class="st14">
				<path class="st15" d="M92.17,101.3c-0.32,1.74,0.47,3.3,1.76,3.49c1.3,0.19,2.59-1.08,2.91-2.82c0.32-1.74-0.47-3.3-1.76-3.49
					C93.79,98.3,92.5,99.56,92.17,101.3z"/>
				<path class="st16" d="M92.68,101.42c-0.25,1.37,0.35,2.58,1.33,2.72c0.98,0.14,1.97-0.85,2.23-2.21
					c0.25-1.36-0.35-2.58-1.33-2.71C93.92,99.06,92.93,100.05,92.68,101.42z"/>
				<path class="st12" d="M92.59,99.05c-0.06,0.29,0.45,0.6,1.12,0.7c0.66,0.09,1.25-0.06,1.31-0.35c0.06-0.29-0.45-0.6-1.12-0.7
					C93.22,98.61,92.65,98.76,92.59,99.05z"/>
			</g>
		</g>
	</g>
</g>
<g>
	<path class="st12" d="M103.27,100.67c0,2.36,1.4,4.29,3.11,4.29c1.71,0,3.11-1.92,3.11-4.29c0-2.36-1.39-4.29-3.11-4.29
		S103.27,98.31,103.27,100.67z"/>
	<g>
		<g>
			<defs>
				<ellipse id="SVGID_3_" cx="106.38" cy="100.67" rx="3.11" ry="4.29"/>
			</defs>
			<clipPath id="SVGID_4_">
				<use xlink:href="#SVGID_3_"  style="overflow:visible;"/>
			</clipPath>
			<g class="st17">
				<path class="st15" d="M105.18,101.3c-0.32,1.74,0.47,3.3,1.76,3.49c1.3,0.19,2.59-1.08,2.91-2.82c0.32-1.74-0.47-3.3-1.76-3.49
					C106.81,98.3,105.5,99.56,105.18,101.3z"/>
				<path class="st16" d="M105.68,101.42c-0.25,1.37,0.35,2.58,1.33,2.72c0.98,0.14,1.97-0.85,2.22-2.21s-0.35-2.58-1.33-2.71
					C106.93,99.06,105.93,100.05,105.68,101.42z"/>
				<path class="st12" d="M105.59,99.05c-0.06,0.29,0.45,0.6,1.12,0.7c0.66,0.09,1.25-0.06,1.31-0.35c0.06-0.29-0.45-0.6-1.12-0.7
					C106.23,98.61,105.65,98.76,105.59,99.05z"/>
			</g>
		</g>
	</g>
</g>
<path class="st6" d="M83.52,102.11c0,0-7.02-5.88-7,0.69c0.02,6.57,5.69,8.26,8.58,6.89C88.02,108.33,83.52,102.11,83.52,102.11z"/>
<path class="st18" d="M83.33,103.42c0,0-4.71-3.65-5.26-1.55c-0.55,2.1,0.53,4.33,0.53,4.33s-0.17-2.69,2.41-1.79
	c0,0-0.72,4.57,3.05,2.35C84.06,106.75,85.37,105.09,83.33,103.42z"/>
<path class="st18" d="M102.86,104.67c-0.42-1.83-1.16-4.67-2.4-4.27c-1.35,0.43-0.59,4.99-0.38,5.87c0.27,1.11,2.21,4.79,4.11,4.06
	C105.85,109.69,103.91,106.44,102.86,104.67z"/>
<path class="st13" d="M89.99,93.56c-1.37,1.82-0.69,3.48-0.69,3.48c1.36-2.99,5.67-1.69,8.19-2.6C98.13,90,91.35,91.74,89.99,93.56z
	"/>
<path class="st13" d="M108.92,91.88c1.5,1.53,1.49,3.25,1.49,3.25c-1.84-2.67-4.54-0.7-6.61-1.15
	C102.06,89.8,107.41,90.35,108.92,91.88z"/>
<path class="st7" d="M114,163.25c-2.87-1.67-5.6-3.52-8.23-5.48c-2.61-1.95-5.1-4.1-7.38-6.35c-2.07-2.06-3.83-4.36-5.52-6.67
	c-0.35-0.99-0.6-2.02-0.74-3.03c-0.1-0.71-0.08-1.43,0.05-2.14c0.1-0.59,0.44-1.09,0.52-1.68c0.02-0.15-0.21-0.27-0.36-0.19
	c-1.3,0.78-1.15,2.79-1.01,3.99c0.03,0.34,0.1,0.68,0.18,1.02c-1.35-2.24-2.3-4.66-3.67-6.9c-0.08-0.13-0.29-0.04-0.26,0.1
	c1.24,5.87,5.27,11.41,9.59,15.9c4.44,4.61,10.26,9.36,16.55,11.85C114.06,163.82,114.34,163.46,114,163.25z"/>
<path class="st7" d="M97.97,173.42c-4.89-3.07-9.52-6.08-13.43-10.14c-1.87-1.94-3.64-3.97-5.23-6.1c-1.6-2.17-2.66-4.63-4.26-6.78
	c-0.1-0.13-0.38-0.09-0.36,0.08c0.25,2.16,1.54,4.31,2.83,6.19c-0.9-0.51-1.94-0.87-2.87-1.35c-0.29-0.14-0.69,0.15-0.48,0.43
	c1.07,1.44,3.4,1.38,4.57,2.72c0.05,0.05,0.1,0.08,0.16,0.09c1.36,1.78,2.88,3.47,4.45,5.1c1.98,2.07,4.06,3.92,6.49,5.57
	c2.49,1.7,5.2,3.11,7.8,4.66C98,174.12,98.31,173.64,97.97,173.42z"/>
<path class="st13" d="M113.58,110.7c-0.23-1.66-0.65-3.28-1.31-4.86c0,0-1.45,2.8-2.1,3.52c-0.68,0.77-1.98,0.84-2.97,0.88
	c-1.28,0.05-2.21,0.1-2.84,0.88c-0.71-0.59-1.85-0.62-2.85-0.61c-1.05,0.01-2.02,0.09-3.04-0.16c-1.62-0.4-3.12-1.26-4.58-2.01
	c-2.51-1.26-4.75-2.28-6.65-4.32c-1.96-2.09-2.93-4.64-3.49-7.29c-0.09-0.4-0.78-0.3-0.77,0.09c0.02,1.92,0.69,3.83,1.77,5.54
	c0.35,2.2-0.01,4.57,0.03,6.74c0.06,2.76,0.51,5.47,1.84,7.98c1.66,3.14,4.93,5.34,8.44,6.49c5.31,1.74,14,3.88,17.21-2.29
	c0.99-1.89,1.12-3.39,1.35-5.46C113.81,114.11,113.8,112.39,113.58,110.7z"/>
<path class="st12" d="M97.02,111.61c0,0,7.54,2.43,11.99,0.3C109,111.91,104.54,125.23,97.02,111.61z"/>
<path class="st19" d="M265.52,153.23c-1.98,0.57-2.53,1.52-2.35,2.92c0.32,2.52,5.07,4.01,7.78,2.52c0.06,0.07,0.17,0.14,0.34,0.16
	c3.02,0.38,6.92-0.17,8.76-1.98c1.18-1.16,1.36-2.47,0.52-3.77c-0.79-1.21-3.06-2.85-1.63-4.25c1.09-1.07,2.74-1.7,4.26-2.46
	c3.62-1.82,3.55-4.59-0.7-5.76c-2.5-0.69-0.75-2.99-0.84-4.35c-0.06-0.85-0.24-1.73-0.9-2.47c-1.19-1.33-3.14-2.5-5.53-2.72
	c-4.99-0.47-7.3,2.33-7,5.41c0.11,1.2,0.54,2.33,0.89,3.52c0.1,0.35,1.05,2.88-0.87,2.53c-0.6-0.1-1.14-0.24-1.7-0.4
	c-1.75-0.52-3.41-0.96-5.29-0.51c-4.7,1.12-1.73,6.46,0.77,7.97C263.15,150.26,268.84,152.28,265.52,153.23z"/>
<path class="st20" d="M266.93,154.97c0.61,0.59,2.14,0.42,2.96,0.88c0.08,0.04,0.12,0.1,0.2,0.14c-0.02-0.76,0.06-1.5,0.29-2.25
	c0-0.04-0.01-0.07,0.01-0.12c0.53-1.37,0.73-2.72-0.15-4.05c-0.57-0.87-2.17-1.48-3.21-2.11c-1.53-0.93-2.1-2.03-1.61-3.36
	c0.16-0.44,1.19-0.26,1.03,0.19c-0.89,2.4,3.13,3.22,4.71,4.92c0.54,0.58,0.74,1.25,0.78,1.95c1.51-1.73,3.44-2.99,3.77-5.29
	c0.35-2.46,0.03-5.04-0.81-7.43c-0.52-1.5-1.18-3.03,0.15-4.42c0.37-0.39,1.3-0.03,0.92,0.36c-1.61,1.69,0.19,4.16,0.54,5.99
	c0.34,1.77,0.44,3.53,0.26,5.3c0.25-0.22,0.52-0.41,0.83-0.6c1.54-0.89,3.33-1.23,4.13-2.63c0.24-0.42,1.27-0.24,1.03,0.2
	c-0.55,0.97-1.44,1.61-2.7,2.2c-0.81,0.37-1.66,0.67-2.34,1.15c-0.72,0.5-1.07,1.22-1.34,1.88c-0.03,0.08-0.1,0.14-0.18,0.17
	c-0.65,1.18-1.94,2.23-2.99,3.23c-1.57,1.48-2.04,3.02-2.03,4.65c0.42-0.5,0.98-0.96,1.66-1.29c1.34-0.64,3.64-0.5,3.74-1.87
	c0.03-0.46,1.09-0.46,1.06,0c-0.07,0.96-0.68,1.5-1.99,1.84c-0.9,0.23-1.71,0.32-2.48,0.76c-0.97,0.56-1.55,1.42-1.76,2.25
	c-0.01,0.05-0.03,0.08-0.07,0.11c0.02,0.16,0.06,0.33,0.09,0.5c0.09,0.45-0.98,0.45-1.06,0c-0.02-0.09-0.03-0.17-0.05-0.27
	c-0.15-0.03-0.26-0.1-0.29-0.24c-0.18-0.78-0.46-1.32-1.62-1.58c-0.97-0.24-1.76-0.22-2.4-0.82
	C265.61,154.95,266.53,154.6,266.93,154.97z"/>
<g>
	<polygon class="st21" points="279.99,175.13 282.14,157.53 260.67,157.53 261.61,175.13 	"/>
	<polygon class="st22" points="255.19,161.42 257.33,155.68 284.8,154.81 287.38,161.71 	"/>
</g>
<g>
	<polygon class="st0" points="182.49,127.28 167.31,169.88 238.14,169.88 253.33,127.28 	"/>
	<path class="st23" d="M219.09,148.32c-0.96,2.83-3.53,4.64-5.75,4.05c-2.21-0.59-3.22-3.35-2.26-6.18
		c0.96-2.83,3.53-4.64,5.75-4.05C219.04,142.73,220.05,145.5,219.09,148.32z"/>
</g>
<g>
	<path class="st0" d="M238.81,169.78c0,3.02-2.46,5.16-5.5,5.16h-77.24c-3.04,0-5.5-2.13-5.5-5.16c0-0.07,0.01,0.09,0.01,0.09h88.23
		C238.8,169.88,238.81,169.71,238.81,169.78z"/>
	<rect x="178.91" y="169.88" class="st24" width="48.72" height="2.53"/>
</g>
<g>
	<polygon class="st25" points="118.66,264.83 136.44,179.83 122.5,179.83 113.42,264.83 	"/>
	<polygon class="st25" points="251.95,264.83 234.18,179.83 248.12,179.83 257.19,264.83 	"/>
</g>
<rect x="84.34" y="174.95" class="st26" width="215.66" height="6.33"/>
<path class="st27" d="M263.46,110.15c0,1.84-1.73,3.36-3.83,3.36H159.19c-2.08,0-3.91-1.51-3.91-3.36V92.62
	c0-1.84,1.82-3.19,3.91-3.19h100.45c2.08,0,3.83,1.35,3.83,3.19v17.52H263.46z"/>
<path class="st28" d="M263.46,92.79v17.69c0,1.84-1.89,3.02-3.99,3.02h-74.82V89.43h74.82C261.56,89.44,263.46,90.95,263.46,92.79z"
	/>
<g>
	<path class="st12" d="M257.72,93.55c0,0.52-0.48,0.95-1.07,0.95h-64.48c-0.6,0-1.07-0.42-1.07-0.95l0,0c0-0.52,0.48-0.95,1.07-0.95
		h64.48C257.25,92.6,257.72,93.02,257.72,93.55L257.72,93.55z"/>
	<path class="st12" d="M257.72,98.62c0,0.52-0.48,0.95-1.07,0.95h-64.48c-0.6,0-1.07-0.42-1.07-0.95l0,0c0-0.52,0.48-0.95,1.07-0.95
		h64.48C257.25,97.66,257.72,98.09,257.72,98.62L257.72,98.62z"/>
	<path class="st12" d="M257.72,108.75c0,0.52-0.5,0.95-1.12,0.95h-64.41c-0.61,0-1.12-0.42-1.12-0.95l0,0c0-0.52,0.5-0.95,1.12-0.95
		h64.41C257.23,107.8,257.72,108.22,257.72,108.75L257.72,108.75z"/>
	<g>
		<path class="st12" d="M233.37,103.08c0,0.54-0.98,1.55-1.59,1.55h-39.91c-0.62,0-0.77-1.02-0.77-1.55v-0.1
			c0-0.54,0.16-1.5,0.77-1.5h39.91c0.62,0,1.59,0.97,1.59,1.5L233.37,103.08L233.37,103.08z"/>
		<path class="st12" d="M257.01,102.41c0,0.52-0.48,0.95-1.07,0.95h-18.63c-0.6,0-1.07-0.42-1.07-0.95l0,0
			c0-0.52,0.48-0.95,1.07-0.95h18.63C256.53,101.47,257.01,101.89,257.01,102.41L257.01,102.41z"/>
	</g>
</g>
<path class="st29" d="M228.35,48.98v17.43c0,0.29,0.09,0.72-0.11,0.92c-0.24,0.25-0.38,0.57-0.78,0.57h-26.25c-0.11,0-0.23,0-0.33,0
	l-0.26-0.16c-0.55-0.28-0.95-0.79-0.95-1.32V48.98c0-0.63,0.81-0.72,1.52-0.72h26.25C228.19,48.27,228.35,48.36,228.35,48.98z"/>
<path class="st30" d="M228.35,48.98v1.75l-14.28,8.06L199.7,50.7v-1.73c0-0.63,0.81-0.72,1.52-0.72h26.26
	C228.19,48.27,228.35,48.36,228.35,48.98z"/>
<path class="st29" d="M247.7,60.48v17.43c0,0.29-0.15,0.67-0.34,0.87c-0.24,0.25-0.61,0.51-1,0.51h-26.25c-0.11,0-0.23,0-0.33,0
	l-0.03-0.11c-0.55-0.28-0.71-0.74-0.71-1.28V60.48c0-0.63,0.36-1.45,1.07-1.45h26.25C247.07,59.03,247.7,59.85,247.7,60.48z"/>
<path class="st30" d="M247.7,60.48v1.75l-14.28,8.06l-14.37-8.09v-1.73c0-0.63,0.35-1.45,1.07-1.45h26.26
	C247.08,59.03,247.7,59.85,247.7,60.48z"/>
<g>
	<path class="st31" d="M178.88,20.9c0,0.21-0.06,0.36-0.16,0.45c-0.1,0.1-0.24,0.17-0.41,0.22c-0.17,0.04-0.34,0.06-0.53,0.07
		c-0.19,0.01-0.37,0.02-0.54,0.04l-0.48,0.04c0.14,0.9,0.23,1.82,0.26,2.72c0.03,0.9,0.06,1.82,0.06,2.75c0,0.29-0.01,0.6-0.02,0.92
		c-0.01,0.32-0.06,0.64-0.12,0.96c-0.07,0.32-0.16,0.62-0.29,0.9c-0.12,0.29-0.29,0.54-0.52,0.76c-0.21,0.22-0.48,0.39-0.8,0.52
		c-0.32,0.13-0.7,0.2-1.15,0.2c-0.51,0-0.97-0.09-1.36-0.28c-0.41-0.19-0.74-0.43-1.01-0.73c-0.28-0.3-0.48-0.65-0.63-1.04
		c-0.15-0.39-0.21-0.78-0.21-1.18c0-0.08,0-0.22,0.01-0.4c0.01-0.19,0.03-0.37,0.08-0.57c0.03-0.2,0.1-0.36,0.18-0.5
		c0.08-0.14,0.19-0.22,0.33-0.22c0.08,0,0.18,0.02,0.29,0.05c0.11,0.03,0.23,0.08,0.34,0.13c0.1,0.05,0.19,0.12,0.27,0.2
		c0.08,0.07,0.11,0.15,0.11,0.24c0,0.2-0.02,0.38-0.08,0.57c-0.06,0.19-0.08,0.37-0.08,0.57c0,0.21,0.03,0.44,0.11,0.7
		c0.07,0.26,0.18,0.5,0.33,0.73c0.15,0.23,0.33,0.42,0.55,0.58c0.23,0.15,0.47,0.23,0.77,0.23c0.21,0,0.41-0.03,0.55-0.1
		c0.16-0.07,0.28-0.16,0.38-0.28c0.1-0.11,0.19-0.25,0.25-0.4c0.07-0.14,0.11-0.3,0.16-0.45c0.14-0.51,0.21-1.04,0.24-1.57
		s0.03-1.07,0.03-1.61c0-0.7-0.02-1.41-0.06-2.11c-0.05-0.7-0.11-1.41-0.21-2.11c-0.41,0.04-0.81,0.08-1.21,0.13
		c-0.39,0.04-0.8,0.07-1.21,0.07c-0.1,0-0.18-0.02-0.24-0.05c-0.06-0.03-0.09-0.1-0.09-0.2c0-0.17,0.07-0.32,0.19-0.41
		s0.28-0.16,0.47-0.21c0.32-0.07,0.64-0.13,0.98-0.16c0.34-0.03,0.66-0.07,0.99-0.11v-0.12c0-0.08,0.03-0.14,0.11-0.16
		c0.07-0.02,0.15-0.03,0.24-0.03c0.12,0,0.25,0.02,0.37,0.05c0.12,0.03,0.24,0.08,0.34,0.15c0.34-0.05,0.68-0.1,1-0.16
		c0.34-0.06,0.68-0.09,1.04-0.09c0.12,0,0.23,0.03,0.3,0.09C178.83,20.71,178.88,20.8,178.88,20.9z"/>
	<path class="st31" d="M185.96,27.18c0,0.1-0.05,0.22-0.14,0.34c-0.09,0.11-0.19,0.21-0.29,0.26c-0.03,0.01-0.08,0.03-0.16,0.04
		c-0.07,0.01-0.15,0.03-0.23,0.04c-0.08,0.01-0.16,0.02-0.24,0.04c-0.08,0.01-0.14,0.02-0.18,0.03l0.21,1.14
		c0.07,0.35,0.11,0.71,0.15,1.07c0.03,0.36,0.11,0.71,0.23,1.06c0.01,0.03,0.02,0.06,0.03,0.08c0.01,0.02,0.02,0.06,0.02,0.1
		c0,0.06-0.02,0.11-0.07,0.15c-0.05,0.03-0.1,0.06-0.16,0.08c-0.07,0.02-0.14,0.03-0.2,0.03c-0.08,0.01-0.14,0.01-0.2,0.01h-0.12
		c-0.18,0-0.33-0.01-0.43-0.04c-0.1-0.02-0.18-0.07-0.23-0.13c-0.06-0.06-0.09-0.14-0.11-0.24s-0.05-0.22-0.07-0.35
		c-0.15-0.94-0.3-1.88-0.48-2.82c-0.37,0.04-0.74,0.08-1.13,0.11c-0.37,0.03-0.75,0.07-1.14,0.1l-0.28,1.51
		c-0.01,0.09-0.03,0.22-0.06,0.38c-0.02,0.15-0.05,0.32-0.07,0.49c-0.02,0.16-0.06,0.32-0.09,0.46c-0.03,0.14-0.07,0.25-0.11,0.32
		c-0.03,0.06-0.07,0.1-0.1,0.13c-0.03,0.02-0.09,0.04-0.17,0.04c-0.11,0-0.21-0.02-0.33-0.05c-0.1-0.03-0.2-0.08-0.28-0.13
		c-0.08-0.06-0.15-0.13-0.19-0.22c-0.05-0.08-0.07-0.17-0.07-0.28c0-0.1,0.01-0.21,0.05-0.31c0.02-0.1,0.05-0.21,0.07-0.31
		c0.07-0.34,0.12-0.68,0.18-1.01c0.06-0.34,0.11-0.67,0.18-1.01c-0.05-0.01-0.09-0.01-0.15-0.03c-0.06-0.01-0.11-0.03-0.16-0.05
		c-0.06-0.02-0.09-0.05-0.14-0.08c-0.03-0.03-0.06-0.06-0.06-0.1c0-0.05,0.02-0.1,0.07-0.14c0.05-0.04,0.1-0.08,0.16-0.12
		c0.07-0.04,0.12-0.07,0.19-0.1c0.07-0.03,0.12-0.05,0.17-0.06c0.12-0.72,0.25-1.44,0.36-2.15s0.21-1.44,0.3-2.16
		c0.02-0.2,0.05-0.39,0.07-0.6c0.02-0.2,0.03-0.4,0.06-0.6c0.02-0.2,0.05-0.4,0.08-0.6c0.03-0.2,0.08-0.39,0.14-0.59
		c0.06-0.19,0.15-0.33,0.27-0.44c0.12-0.11,0.32-0.16,0.56-0.16c0.07,0,0.15,0.01,0.21,0.01c0.07,0.01,0.14,0.03,0.18,0.06
		c0.16,0.06,0.32,0.25,0.48,0.54c0.17,0.3,0.34,0.66,0.51,1.08c0.17,0.42,0.33,0.88,0.48,1.38c0.16,0.49,0.29,0.97,0.42,1.43
		c0.12,0.46,0.24,0.87,0.33,1.25c0.09,0.37,0.16,0.65,0.2,0.82c0.12-0.01,0.25-0.03,0.38-0.04c0.12-0.01,0.25-0.02,0.38-0.02
		c0.06,0,0.14,0,0.2,0.01c0.08,0,0.16,0.02,0.23,0.04c0.07,0.02,0.12,0.06,0.17,0.1C185.94,27.04,185.96,27.1,185.96,27.18z
		 M183.13,27.11c-0.16-0.73-0.33-1.45-0.51-2.17c-0.18-0.72-0.39-1.43-0.64-2.14c-0.11,0.77-0.23,1.54-0.35,2.31
		c-0.12,0.76-0.26,1.53-0.41,2.29c0.33-0.04,0.64-0.08,0.96-0.13C182.49,27.22,182.81,27.17,183.13,27.11z"/>
	<path class="st31" d="M191.75,23.72c0,1.21-0.12,2.42-0.36,3.6c-0.24,1.18-0.63,2.33-1.19,3.47c0.02,0.04,0.05,0.09,0.08,0.15
		c0.03,0.06,0.07,0.13,0.11,0.22c0.03,0.07,0.07,0.14,0.1,0.22c0.02,0.06,0.05,0.11,0.05,0.14c0,0.07-0.02,0.12-0.07,0.16
		c-0.05,0.03-0.11,0.06-0.18,0.07c-0.07,0.02-0.15,0.02-0.23,0.02c-0.08,0-0.14,0-0.19,0c-0.16,0-0.29-0.01-0.42-0.02
		c-0.12-0.01-0.24-0.07-0.36-0.16c-0.09-0.06-0.18-0.22-0.29-0.46c-0.11-0.25-0.24-0.56-0.36-0.94c-0.14-0.37-0.27-0.79-0.42-1.25
		c-0.15-0.46-0.28-0.95-0.43-1.44c-0.15-0.49-0.28-0.99-0.41-1.48c-0.14-0.49-0.25-0.95-0.36-1.37c-0.11-0.42-0.2-0.79-0.29-1.12
		c-0.08-0.32-0.15-0.57-0.19-0.72c-0.07-0.26-0.14-0.52-0.23-0.78c-0.08-0.26-0.12-0.52-0.12-0.79c0-0.09,0.05-0.15,0.11-0.17
		c0.08-0.02,0.16-0.04,0.25-0.04c0.18,0,0.34,0.02,0.5,0.07c0.16,0.05,0.28,0.13,0.37,0.26c0.05,0.07,0.09,0.16,0.11,0.29
		c0.02,0.12,0.05,0.22,0.07,0.3c0.19,0.75,0.39,1.49,0.6,2.24c0.2,0.74,0.42,1.48,0.65,2.23c0.15,0.46,0.28,0.93,0.43,1.39
		c0.15,0.45,0.3,0.92,0.47,1.37c0.3-0.81,0.52-1.63,0.64-2.49c0.12-0.84,0.19-1.7,0.19-2.55c0-0.13,0-0.3,0-0.5
		c0-0.2-0.01-0.41-0.01-0.64c-0.01-0.23-0.01-0.46-0.03-0.7c-0.01-0.24-0.03-0.47-0.06-0.69c-0.02-0.22-0.06-0.42-0.09-0.62
		c-0.03-0.19-0.09-0.34-0.14-0.45c-0.02-0.04-0.03-0.08-0.06-0.11c-0.02-0.03-0.03-0.07-0.03-0.12c0-0.06,0.02-0.11,0.08-0.14
		c0.06-0.03,0.11-0.06,0.19-0.08c0.07-0.02,0.15-0.03,0.23-0.04c0.08,0,0.14-0.01,0.19-0.01c0.16,0,0.3,0.01,0.43,0.04
		c0.12,0.03,0.25,0.09,0.37,0.21c0.06,0.05,0.1,0.15,0.14,0.32c0.03,0.16,0.07,0.36,0.09,0.59s0.05,0.47,0.06,0.73
		s0.02,0.51,0.03,0.75c0.01,0.24,0.01,0.45,0.01,0.65C191.75,23.48,191.75,23.63,191.75,23.72z"/>
	<path class="st31" d="M199.84,27.18c0,0.1-0.05,0.22-0.14,0.34c-0.09,0.11-0.19,0.21-0.29,0.26c-0.03,0.01-0.08,0.03-0.16,0.04
		c-0.07,0.01-0.15,0.03-0.23,0.04c-0.08,0.01-0.16,0.02-0.24,0.04c-0.08,0.01-0.14,0.02-0.18,0.03l0.21,1.14
		c0.07,0.35,0.11,0.71,0.15,1.07c0.03,0.36,0.11,0.71,0.23,1.06c0.01,0.03,0.02,0.06,0.03,0.08c0.01,0.02,0.02,0.06,0.02,0.1
		c0,0.06-0.02,0.11-0.07,0.15c-0.05,0.03-0.1,0.06-0.16,0.08c-0.07,0.02-0.14,0.03-0.2,0.03c-0.07,0.01-0.14,0.01-0.2,0.01h-0.12
		c-0.19,0-0.33-0.01-0.43-0.04c-0.1-0.02-0.18-0.07-0.23-0.13c-0.06-0.06-0.09-0.14-0.11-0.24s-0.05-0.22-0.07-0.35
		c-0.15-0.94-0.3-1.88-0.48-2.82c-0.37,0.04-0.74,0.08-1.13,0.11c-0.37,0.03-0.75,0.07-1.14,0.1l-0.29,1.51
		c-0.01,0.09-0.03,0.22-0.05,0.38c-0.02,0.15-0.05,0.32-0.07,0.49c-0.02,0.16-0.06,0.32-0.09,0.46c-0.03,0.14-0.07,0.25-0.11,0.32
		c-0.03,0.06-0.07,0.1-0.1,0.13c-0.03,0.02-0.09,0.04-0.17,0.04c-0.11,0-0.21-0.02-0.32-0.05s-0.2-0.08-0.28-0.13
		c-0.08-0.06-0.15-0.13-0.19-0.22c-0.05-0.08-0.07-0.17-0.07-0.28c0-0.1,0.01-0.21,0.05-0.31c0.02-0.1,0.05-0.21,0.07-0.31
		c0.07-0.34,0.12-0.68,0.18-1.01c0.06-0.34,0.11-0.67,0.18-1.01c-0.05-0.01-0.09-0.01-0.15-0.03c-0.06-0.01-0.11-0.03-0.16-0.05
		c-0.06-0.02-0.09-0.05-0.14-0.08c-0.03-0.03-0.06-0.06-0.06-0.1c0-0.05,0.02-0.1,0.07-0.14c0.05-0.04,0.1-0.08,0.16-0.12
		c0.07-0.04,0.12-0.07,0.19-0.1c0.07-0.03,0.12-0.05,0.17-0.06c0.12-0.72,0.25-1.44,0.36-2.15s0.21-1.44,0.3-2.16
		c0.02-0.2,0.05-0.39,0.07-0.6c0.02-0.2,0.03-0.4,0.06-0.6c0.02-0.2,0.05-0.4,0.08-0.6c0.03-0.2,0.08-0.39,0.14-0.59
		c0.06-0.19,0.15-0.33,0.27-0.44c0.12-0.11,0.32-0.16,0.56-0.16c0.07,0,0.15,0.01,0.21,0.01c0.07,0.01,0.14,0.03,0.19,0.06
		c0.16,0.06,0.32,0.25,0.48,0.54c0.17,0.3,0.34,0.66,0.51,1.08c0.17,0.42,0.33,0.88,0.48,1.38c0.16,0.49,0.29,0.97,0.42,1.43
		c0.12,0.46,0.24,0.87,0.33,1.25c0.09,0.37,0.16,0.65,0.2,0.82c0.12-0.01,0.25-0.03,0.38-0.04c0.12-0.01,0.25-0.02,0.38-0.02
		c0.06,0,0.12,0,0.2,0.01c0.08,0,0.15,0.02,0.23,0.04c0.07,0.02,0.12,0.06,0.17,0.1C199.82,27.04,199.84,27.1,199.84,27.18z
		 M197,27.11c-0.16-0.73-0.33-1.45-0.51-2.17c-0.18-0.72-0.39-1.43-0.64-2.14c-0.11,0.77-0.23,1.54-0.35,2.31
		c-0.12,0.76-0.26,1.53-0.41,2.29c0.33-0.04,0.64-0.08,0.96-0.13C196.37,27.22,196.69,27.17,197,27.11z"/>
</g>
<g>
	<path class="st31" d="M63.57,79.64c0,0.16-0.08,0.3-0.24,0.41c-0.16,0.11-0.34,0.21-0.55,0.27c-0.21,0.06-0.43,0.11-0.65,0.14
		c-0.23,0.03-0.41,0.04-0.54,0.04c-0.38,0-0.77-0.05-1.15-0.16c-0.38-0.11-0.72-0.28-1.03-0.51c-0.24-0.17-0.43-0.37-0.56-0.57
		c-0.14-0.21-0.25-0.42-0.32-0.64c-0.07-0.23-0.11-0.46-0.14-0.7c-0.02-0.25-0.03-0.49-0.03-0.76c-0.01-0.52-0.02-1.04-0.03-1.56
		c-0.01-0.52-0.03-1.04-0.08-1.56c-0.01-0.11-0.02-0.23-0.03-0.35c-0.01-0.12-0.02-0.24-0.05-0.36c-0.02-0.12-0.06-0.24-0.09-0.35
		c-0.05-0.11-0.1-0.22-0.18-0.32c-0.09,0.02-0.17,0.04-0.26,0.06c-0.09,0.02-0.18,0.03-0.26,0.03c-0.23,0-0.38-0.04-0.45-0.13
		c-0.07-0.09-0.1-0.23-0.1-0.41c0-0.21,0.03-0.36,0.11-0.48c0.07-0.11,0.16-0.21,0.26-0.28c0.1-0.07,0.21-0.13,0.35-0.19
		c0.12-0.05,0.25-0.13,0.35-0.23c0.1-0.09,0.19-0.22,0.26-0.37c0.07-0.15,0.11-0.37,0.11-0.65c0-0.34-0.06-0.69-0.17-1.02
		c-0.11-0.34-0.25-0.68-0.38-1.02c-0.15-0.34-0.27-0.69-0.38-1.04c-0.11-0.35-0.17-0.73-0.17-1.11c0-0.36,0.07-0.7,0.19-1.01
		c0.14-0.31,0.32-0.57,0.56-0.78c0.25-0.22,0.53-0.38,0.87-0.5c0.34-0.12,0.72-0.17,1.14-0.17c0.09,0,0.25,0.01,0.45,0.04
		c0.2,0.03,0.41,0.07,0.62,0.12c0.2,0.06,0.38,0.12,0.54,0.22c0.16,0.08,0.24,0.19,0.24,0.3c0,0.09-0.06,0.17-0.16,0.24
		c-0.11,0.07-0.24,0.12-0.37,0.16c-0.15,0.04-0.29,0.07-0.44,0.09c-0.15,0.02-0.26,0.03-0.34,0.03c-0.07,0-0.15,0-0.21-0.01
		c-0.07-0.01-0.15-0.01-0.21-0.01c-0.39,0-0.69,0.1-0.86,0.31c-0.18,0.21-0.26,0.47-0.26,0.8c0,0.39,0.07,0.77,0.19,1.15
		c0.12,0.37,0.27,0.74,0.43,1.11c0.16,0.37,0.29,0.73,0.43,1.11c0.14,0.37,0.19,0.75,0.19,1.15c0,0.35-0.07,0.69-0.21,1.01
		c-0.15,0.32-0.36,0.61-0.64,0.85c0.24,0.25,0.42,0.56,0.54,0.94s0.2,0.79,0.25,1.22c0.05,0.44,0.07,0.88,0.07,1.35
		c0,0.46,0.01,0.89,0.02,1.32c0.01,0.41,0.05,0.78,0.1,1.11c0.06,0.33,0.16,0.58,0.3,0.74c0.12,0.14,0.26,0.25,0.44,0.33
		c0.17,0.08,0.36,0.11,0.56,0.11c0.15,0,0.28-0.02,0.41-0.06s0.23-0.09,0.33-0.13c0.1-0.05,0.19-0.09,0.28-0.13s0.18-0.06,0.27-0.06
		c0.1,0,0.2,0.03,0.29,0.09s0.17,0.14,0.24,0.24c0.07,0.09,0.12,0.2,0.16,0.3C63.55,79.47,63.57,79.56,63.57,79.64z"/>
	<path class="st31" d="M69.61,71.65c0,0.22-0.03,0.37-0.1,0.48c-0.07,0.11-0.16,0.21-0.26,0.28c-0.11,0.07-0.23,0.13-0.34,0.19
		c-0.12,0.05-0.24,0.13-0.34,0.23c-0.11,0.09-0.19,0.22-0.26,0.37c-0.07,0.15-0.1,0.37-0.1,0.65c0,0.35,0.06,0.69,0.17,1.03
		c0.11,0.33,0.24,0.67,0.37,1.01s0.26,0.69,0.37,1.04c0.11,0.36,0.17,0.73,0.17,1.11c0,0.37-0.07,0.71-0.19,1.01
		c-0.14,0.3-0.32,0.57-0.56,0.77c-0.25,0.22-0.53,0.38-0.88,0.5c-0.34,0.12-0.72,0.17-1.14,0.17c-0.09,0-0.25-0.01-0.45-0.04
		c-0.2-0.03-0.41-0.07-0.61-0.12c-0.2-0.06-0.38-0.12-0.53-0.21c-0.15-0.08-0.23-0.17-0.23-0.28c0-0.09,0.06-0.17,0.16-0.24
		c0.1-0.07,0.23-0.12,0.37-0.16c0.15-0.04,0.28-0.07,0.43-0.09c0.15-0.02,0.26-0.03,0.34-0.03h0.45c0.38,0,0.66-0.1,0.83-0.31
		c0.17-0.21,0.26-0.47,0.26-0.8c0-0.39-0.07-0.77-0.19-1.15c-0.14-0.37-0.27-0.74-0.43-1.11c-0.16-0.37-0.29-0.73-0.43-1.11
		c-0.12-0.37-0.19-0.75-0.19-1.15c0-0.35,0.07-0.68,0.21-1c0.15-0.31,0.36-0.6,0.64-0.83c-0.24-0.25-0.42-0.56-0.53-0.95
		c-0.11-0.38-0.19-0.79-0.25-1.23c-0.05-0.44-0.08-0.89-0.08-1.36s-0.01-0.9-0.03-1.32c-0.01-0.41-0.05-0.78-0.1-1.11
		c-0.06-0.33-0.16-0.58-0.3-0.74c-0.11-0.14-0.26-0.25-0.43-0.33c-0.18-0.08-0.36-0.11-0.55-0.11c-0.16,0-0.29,0.02-0.42,0.06
		c-0.12,0.04-0.23,0.09-0.33,0.13c-0.1,0.05-0.19,0.09-0.28,0.13c-0.09,0.04-0.18,0.06-0.28,0.06c-0.1,0-0.2-0.03-0.28-0.09
		c-0.09-0.06-0.17-0.14-0.24-0.24c-0.07-0.09-0.12-0.2-0.16-0.3c-0.05-0.1-0.06-0.2-0.06-0.28c0-0.16,0.08-0.3,0.24-0.41
		c0.16-0.11,0.34-0.21,0.55-0.27c0.21-0.06,0.43-0.11,0.65-0.14c0.23-0.03,0.41-0.04,0.54-0.04c0.39,0,0.78,0.05,1.16,0.16
		c0.37,0.11,0.71,0.28,1.01,0.51c0.24,0.19,0.43,0.38,0.56,0.59s0.25,0.42,0.32,0.64c0.07,0.22,0.12,0.45,0.15,0.7
		c0.02,0.25,0.05,0.49,0.05,0.75c0.01,0.52,0.02,1.05,0.02,1.56c0,0.51,0.02,1.04,0.07,1.55c0.01,0.11,0.02,0.23,0.03,0.35
		c0.01,0.12,0.03,0.24,0.06,0.36c0.02,0.12,0.06,0.24,0.1,0.35c0.05,0.11,0.1,0.22,0.18,0.31c0.09-0.02,0.19-0.04,0.27-0.06
		c0.09-0.02,0.18-0.03,0.27-0.03c0.21,0,0.36,0.05,0.43,0.14C69.57,71.35,69.61,71.48,69.61,71.65z"/>
</g>
<g>
	<path class="st31" d="M126.56,101.08c0,0.1-0.02,0.2-0.08,0.28c-0.05,0.12-0.1,0.23-0.15,0.31c-0.05,0.08-0.1,0.14-0.17,0.19
		c-0.07,0.04-0.15,0.07-0.24,0.09c-0.09,0.02-0.21,0.03-0.36,0.03h-3.35c-0.06,0-0.12,0-0.21-0.01c-0.09,0-0.17-0.01-0.26-0.03
		s-0.16-0.05-0.23-0.08c-0.06-0.04-0.09-0.1-0.09-0.17c0-0.17,0.07-0.33,0.21-0.46c0.14-0.13,0.3-0.22,0.51-0.26
		c0.17-0.02,0.33-0.03,0.5-0.04c0.16,0,0.33-0.01,0.5-0.03c0.46-0.02,0.93-0.04,1.4-0.07c0.46-0.02,0.95-0.04,1.43-0.04
		c0.06,0,0.12,0,0.19,0.01c0.07,0,0.14,0.01,0.19,0.03s0.11,0.05,0.15,0.09C126.54,100.94,126.56,101,126.56,101.08z"/>
	<path class="st31" d="M135,100.25c0,0.08-0.02,0.15-0.08,0.21c-0.06,0.05-0.11,0.08-0.19,0.11c-0.08,0.02-0.16,0.04-0.25,0.04
		c-0.09,0.01-0.17,0.01-0.25,0.01c-0.19,0-0.36,0-0.51-0.01c-0.14,0-0.26-0.03-0.37-0.07c-0.1-0.04-0.2-0.11-0.28-0.21
		c-0.08-0.09-0.17-0.23-0.25-0.4c-0.34-0.65-0.63-1.31-0.88-1.98c-0.25-0.68-0.51-1.36-0.77-2.04c-0.21,0.49-0.44,0.98-0.68,1.46
		c-0.24,0.47-0.48,0.96-0.72,1.44c-0.11,0.22-0.23,0.43-0.32,0.66c-0.1,0.23-0.23,0.43-0.37,0.65c-0.08,0.1-0.15,0.19-0.21,0.24
		c-0.07,0.06-0.18,0.08-0.33,0.08c-0.1,0-0.23-0.02-0.37-0.07c-0.14-0.05-0.27-0.11-0.39-0.21c-0.12-0.08-0.24-0.17-0.33-0.28
		c-0.09-0.1-0.14-0.21-0.14-0.31c0-0.04,0.05-0.15,0.12-0.34c0.08-0.19,0.19-0.4,0.32-0.65c0.14-0.25,0.27-0.52,0.43-0.81
		c0.15-0.3,0.3-0.58,0.44-0.84c0.15-0.27,0.27-0.51,0.38-0.72c0.11-0.22,0.19-0.37,0.23-0.46c0.19-0.4,0.37-0.81,0.52-1.22
		c0.15-0.41,0.29-0.82,0.44-1.23c-0.05-0.13-0.12-0.34-0.24-0.63s-0.24-0.63-0.38-1.01c-0.15-0.38-0.3-0.79-0.48-1.23
		c-0.17-0.44-0.35-0.88-0.52-1.35c-0.17-0.45-0.34-0.89-0.51-1.32c-0.17-0.42-0.3-0.8-0.43-1.14s-0.23-0.63-0.29-0.84
		c-0.08-0.23-0.11-0.36-0.11-0.41c0-0.06,0.02-0.11,0.07-0.15s0.1-0.06,0.17-0.08c0.07-0.02,0.14-0.03,0.2-0.04
		c0.07,0,0.12-0.01,0.18-0.01c0.35,0,0.61,0.06,0.8,0.2c0.19,0.13,0.36,0.33,0.5,0.59c0.37,0.72,0.7,1.46,0.98,2.22
		c0.28,0.75,0.57,1.51,0.86,2.26c0.15-0.65,0.29-1.29,0.44-1.92s0.28-1.28,0.39-1.92c0.03-0.13,0.07-0.31,0.1-0.52
		c0.03-0.21,0.07-0.43,0.1-0.65c0.03-0.22,0.08-0.43,0.12-0.64c0.05-0.2,0.1-0.36,0.17-0.47c0.05-0.08,0.08-0.13,0.12-0.16
		c0.05-0.03,0.12-0.05,0.24-0.05c0.14,0,0.27,0.02,0.41,0.06c0.14,0.04,0.26,0.1,0.37,0.19s0.2,0.17,0.27,0.28
		c0.07,0.11,0.1,0.23,0.1,0.36c0,0.51-0.06,1.02-0.18,1.52s-0.24,1.01-0.33,1.52c-0.19,0.9-0.37,1.81-0.54,2.71
		c-0.17,0.9-0.39,1.8-0.66,2.68c0.39,1.05,0.8,2.09,1.21,3.12c0.41,1.03,0.86,2.05,1.35,3.05c0.07,0.12,0.14,0.25,0.19,0.36
		C134.97,99.98,135,100.11,135,100.25z"/>
</g>
<g>
	<path class="st31" d="M128.27,130.7c0,0.07-0.05,0.13-0.12,0.19c-0.09,0.05-0.18,0.09-0.3,0.12c-0.11,0.03-0.24,0.05-0.35,0.06
		c-0.12,0.01-0.21,0.01-0.28,0.01c-0.14,0-0.26-0.02-0.36-0.07c-0.1-0.05-0.19-0.12-0.29-0.22c-0.09-0.09-0.23-0.24-0.41-0.43
		c-0.18-0.21-0.38-0.43-0.6-0.68c-0.21-0.26-0.44-0.51-0.68-0.8c-0.23-0.28-0.44-0.56-0.63-0.8c-0.19-0.26-0.34-0.48-0.46-0.68
		c-0.12-0.21-0.18-0.35-0.18-0.45c0-0.17,0.06-0.35,0.17-0.5c0.11-0.16,0.21-0.31,0.32-0.45l1.69-2.78
		c0.03-0.06,0.07-0.13,0.12-0.23c0.05-0.09,0.1-0.17,0.16-0.26s0.12-0.15,0.19-0.22c0.07-0.06,0.15-0.09,0.24-0.09
		c0.09,0,0.17,0.02,0.26,0.06c0.09,0.04,0.16,0.09,0.23,0.15s0.12,0.13,0.17,0.21c0.05,0.07,0.07,0.14,0.07,0.22
		c0,0.11-0.02,0.22-0.07,0.31s-0.09,0.19-0.14,0.28c-0.32,0.56-0.63,1.1-0.95,1.66c-0.32,0.56-0.63,1.1-0.95,1.66
		c0.14,0.24,0.29,0.47,0.5,0.73c0.2,0.26,0.42,0.51,0.64,0.76c0.23,0.26,0.46,0.5,0.69,0.74c0.23,0.25,0.45,0.46,0.64,0.66
		c0.06,0.05,0.12,0.11,0.19,0.19c0.08,0.07,0.15,0.14,0.23,0.22c0.07,0.07,0.14,0.15,0.19,0.24
		C128.24,130.56,128.27,130.63,128.27,130.7z"/>
	<path class="st31" d="M134.38,120.37c0,0.25-0.03,0.48-0.1,0.72c-0.07,0.24-0.14,0.47-0.19,0.71c-0.25,1.01-0.48,2.01-0.71,3
		c-0.23,1-0.46,2.01-0.71,3.01c-0.23,1.02-0.47,2.03-0.73,3.03c-0.26,1.01-0.48,2.02-0.68,3.03c-0.01,0.09-0.03,0.2-0.05,0.31
		c-0.01,0.11-0.05,0.22-0.08,0.31c-0.03,0.1-0.1,0.19-0.17,0.25c-0.08,0.06-0.18,0.09-0.33,0.09c-0.11,0-0.24-0.02-0.38-0.05
		c-0.15-0.04-0.29-0.09-0.43-0.15c-0.14-0.06-0.25-0.14-0.34-0.24c-0.09-0.09-0.14-0.2-0.14-0.31c0-0.04,0-0.08,0.01-0.12
		s0.01-0.08,0.01-0.12c0.11-0.49,0.24-0.98,0.37-1.47c0.14-0.49,0.26-0.98,0.39-1.47l2.29-9.05c0.03-0.11,0.07-0.27,0.11-0.47
		c0.05-0.21,0.09-0.42,0.14-0.64c0.05-0.22,0.1-0.42,0.16-0.61c0.06-0.2,0.1-0.33,0.15-0.41c0.05-0.07,0.09-0.12,0.14-0.15
		c0.05-0.03,0.11-0.04,0.2-0.04c0.12,0,0.25,0.02,0.37,0.06s0.24,0.1,0.35,0.17c0.1,0.07,0.19,0.16,0.25,0.27
		C134.35,120.14,134.38,120.25,134.38,120.37z"/>
	<path class="st31" d="M140.19,126.56c0,0.08-0.02,0.16-0.06,0.25c-0.03,0.08-0.08,0.16-0.12,0.24c-0.06,0.08-0.1,0.15-0.16,0.24
		c-0.06,0.08-0.1,0.15-0.15,0.22l-1.69,2.78c-0.03,0.06-0.08,0.13-0.12,0.23c-0.05,0.09-0.1,0.19-0.16,0.27
		c-0.06,0.09-0.12,0.16-0.19,0.23c-0.07,0.06-0.15,0.09-0.24,0.09c-0.08,0-0.17-0.02-0.26-0.06s-0.16-0.09-0.24-0.15
		c-0.07-0.06-0.12-0.13-0.17-0.21c-0.05-0.08-0.07-0.15-0.07-0.23c0-0.1,0.02-0.21,0.07-0.3c0.05-0.1,0.09-0.19,0.14-0.27
		c0.32-0.57,0.63-1.12,0.95-1.67c0.32-0.54,0.63-1.1,0.95-1.67c-0.14-0.24-0.29-0.47-0.5-0.73c-0.2-0.26-0.42-0.51-0.64-0.76
		c-0.23-0.26-0.46-0.5-0.69-0.75c-0.24-0.24-0.45-0.46-0.64-0.66c-0.06-0.05-0.12-0.1-0.19-0.17c-0.08-0.07-0.16-0.14-0.23-0.22
		c-0.08-0.07-0.14-0.15-0.19-0.23c-0.06-0.07-0.08-0.15-0.08-0.23c0-0.08,0.05-0.14,0.12-0.2s0.18-0.09,0.3-0.11
		c0.11-0.03,0.24-0.04,0.35-0.06c0.12-0.01,0.21-0.01,0.28-0.01c0.14,0,0.26,0.02,0.36,0.07c0.1,0.05,0.19,0.11,0.29,0.2
		c0.09,0.09,0.23,0.25,0.41,0.44c0.18,0.21,0.38,0.43,0.6,0.68c0.21,0.26,0.44,0.51,0.68,0.8c0.24,0.28,0.44,0.56,0.63,0.8
		c0.19,0.26,0.34,0.48,0.46,0.69C140.14,126.3,140.19,126.45,140.19,126.56z"/>
</g>
<g>
	<path class="st31" d="M7.22,141.64c0,0.17,0,0.38-0.01,0.63c-0.01,0.25-0.02,0.5-0.03,0.79c-0.02,0.28-0.06,0.58-0.1,0.87
		c-0.05,0.3-0.1,0.6-0.18,0.88c-0.08,0.29-0.17,0.56-0.29,0.81c-0.11,0.26-0.26,0.48-0.43,0.68c-0.17,0.2-0.36,0.35-0.57,0.46
		c-0.23,0.11-0.47,0.16-0.75,0.16c-0.27,0-0.52-0.05-0.72-0.15c-0.21-0.1-0.39-0.24-0.54-0.4c-0.16-0.16-0.28-0.35-0.39-0.57
		c-0.11-0.21-0.2-0.43-0.27-0.66c-0.07-0.23-0.14-0.45-0.18-0.68c-0.05-0.23-0.09-0.43-0.11-0.62c-0.08-0.48-0.15-0.98-0.18-1.47
		c-0.05-0.48-0.06-0.99-0.06-1.48c0-0.49,0.02-1,0.07-1.5c0.05-0.5,0.15-0.99,0.29-1.46c-0.03-0.05-0.07-0.09-0.1-0.14
		c-0.03-0.04-0.05-0.1-0.05-0.15c0-0.03,0-0.06,0.01-0.08c0-0.02,0.01-0.05,0.02-0.07c0.08-0.21,0.18-0.42,0.3-0.65
		c0.12-0.23,0.28-0.43,0.46-0.62c0.18-0.19,0.38-0.34,0.61-0.46c0.23-0.12,0.48-0.19,0.75-0.19c0.25,0,0.46,0.04,0.65,0.12
		c0.19,0.08,0.36,0.2,0.51,0.33c0.15,0.14,0.27,0.3,0.37,0.47c0.1,0.17,0.19,0.36,0.27,0.56c0.07,0.2,0.14,0.39,0.18,0.59
		c0.05,0.2,0.09,0.38,0.12,0.54c0.11,0.57,0.2,1.13,0.26,1.7C7.2,140.5,7.22,141.06,7.22,141.64z M4.1,137.72
		c-0.1,0.23-0.19,0.46-0.25,0.72c-0.07,0.26-0.11,0.52-0.15,0.79c-0.03,0.27-0.06,0.53-0.07,0.8c-0.01,0.27-0.02,0.51-0.02,0.75
		c0,0.08,0,0.23,0.01,0.43c0.01,0.2,0.02,0.43,0.05,0.69s0.06,0.54,0.09,0.84c0.03,0.31,0.08,0.61,0.12,0.92
		c0.05,0.31,0.1,0.6,0.16,0.88c0.06,0.28,0.14,0.52,0.21,0.74s0.17,0.39,0.26,0.52c0.09,0.13,0.19,0.2,0.3,0.2
		c0.08,0,0.15-0.03,0.21-0.1c0.07-0.07,0.12-0.14,0.18-0.24s0.1-0.19,0.14-0.28c0.03-0.09,0.07-0.16,0.08-0.22
		c0.18-0.49,0.29-0.98,0.37-1.48c0.07-0.49,0.1-1,0.1-1.51c0-0.38-0.01-0.78-0.03-1.2s-0.06-0.84-0.11-1.28
		c-0.06-0.42-0.12-0.84-0.21-1.25c-0.09-0.41-0.21-0.8-0.36-1.15c-0.05-0.11-0.1-0.24-0.16-0.36c-0.06-0.11-0.14-0.23-0.25-0.31
		c-0.01,0.01-0.06,0.07-0.12,0.17c-0.07,0.1-0.15,0.23-0.23,0.35c-0.08,0.13-0.15,0.25-0.21,0.37C4.16,137.63,4.11,137.7,4.1,137.72
		z"/>
	<path class="st31" d="M10.87,146.35c0,0.11-0.05,0.2-0.14,0.24c-0.09,0.04-0.2,0.06-0.32,0.06c-0.09,0-0.19-0.01-0.32-0.03
		s-0.23-0.04-0.32-0.08c-0.11-0.04-0.2-0.1-0.25-0.16c-0.06-0.06-0.09-0.13-0.11-0.21c-0.02-0.07-0.03-0.15-0.03-0.25
		c0-0.08,0-0.17-0.01-0.27c-0.1-1.58-0.19-3.16-0.25-4.72c-0.07-1.56-0.09-3.14-0.09-4.72c0-0.1,0.02-0.19,0.06-0.25
		c0.03-0.06,0.12-0.09,0.26-0.09c0.16,0,0.32,0.03,0.48,0.1c0.17,0.07,0.28,0.16,0.35,0.3c0.02,0.04,0.05,0.11,0.05,0.21
		c0.01,0.1,0.01,0.21,0.02,0.31c0,0.1,0.01,0.22,0.01,0.32c0,0.1,0,0.19,0.01,0.25c0.05,1.33,0.1,2.64,0.16,3.96
		c0.06,1.32,0.17,2.63,0.32,3.97c0.02,0.17,0.05,0.36,0.08,0.53C10.86,145.99,10.87,146.16,10.87,146.35z"/>
	<path class="st31" d="M17.38,141.64c0,0.17,0,0.38-0.01,0.63c-0.01,0.25-0.02,0.5-0.05,0.79c-0.02,0.28-0.06,0.58-0.1,0.87
		c-0.05,0.3-0.1,0.6-0.18,0.88c-0.08,0.29-0.17,0.56-0.29,0.81c-0.11,0.26-0.26,0.48-0.43,0.68c-0.17,0.2-0.36,0.35-0.57,0.46
		c-0.23,0.11-0.47,0.16-0.75,0.16c-0.27,0-0.52-0.05-0.72-0.15c-0.21-0.1-0.39-0.24-0.54-0.4c-0.16-0.16-0.28-0.35-0.39-0.57
		c-0.11-0.21-0.2-0.43-0.27-0.66c-0.07-0.23-0.14-0.45-0.18-0.68c-0.05-0.23-0.08-0.43-0.11-0.62c-0.08-0.48-0.15-0.98-0.18-1.47
		c-0.05-0.48-0.06-0.99-0.06-1.48c0-0.49,0.02-1,0.07-1.5s0.15-0.99,0.29-1.46c-0.03-0.05-0.07-0.09-0.1-0.14
		c-0.03-0.04-0.05-0.1-0.05-0.15c0-0.03,0-0.06,0.01-0.08c0-0.02,0.01-0.05,0.02-0.07c0.08-0.21,0.18-0.42,0.3-0.65
		c0.12-0.23,0.28-0.43,0.46-0.62c0.18-0.19,0.38-0.34,0.61-0.46s0.48-0.19,0.75-0.19c0.25,0,0.46,0.04,0.65,0.12
		c0.19,0.08,0.36,0.2,0.51,0.33c0.15,0.14,0.27,0.3,0.37,0.47c0.1,0.17,0.19,0.36,0.27,0.56c0.07,0.2,0.14,0.39,0.18,0.59
		c0.05,0.2,0.09,0.38,0.12,0.54c0.11,0.57,0.2,1.13,0.26,1.7C17.35,140.5,17.38,141.06,17.38,141.64z M14.26,137.72
		c-0.1,0.23-0.19,0.46-0.25,0.72c-0.07,0.26-0.11,0.52-0.15,0.79c-0.03,0.27-0.06,0.53-0.07,0.8c-0.01,0.27-0.01,0.51-0.01,0.75
		c0,0.08,0,0.23,0.01,0.43c0.01,0.2,0.02,0.43,0.05,0.69s0.06,0.54,0.09,0.84c0.03,0.31,0.08,0.61,0.12,0.92
		c0.05,0.31,0.1,0.6,0.16,0.88c0.06,0.28,0.14,0.52,0.21,0.74s0.17,0.39,0.26,0.52c0.09,0.13,0.19,0.2,0.3,0.2
		c0.08,0,0.15-0.03,0.21-0.1c0.07-0.07,0.12-0.14,0.18-0.24s0.1-0.19,0.14-0.28c0.03-0.09,0.07-0.16,0.08-0.22
		c0.17-0.49,0.29-0.98,0.37-1.48c0.07-0.49,0.1-1,0.1-1.51c0-0.38-0.01-0.78-0.03-1.2c-0.02-0.42-0.06-0.84-0.11-1.28
		c-0.06-0.42-0.12-0.84-0.21-1.25c-0.09-0.41-0.21-0.8-0.36-1.15c-0.05-0.11-0.1-0.24-0.16-0.36c-0.06-0.11-0.14-0.23-0.25-0.31
		c-0.01,0.01-0.06,0.07-0.12,0.17c-0.07,0.1-0.15,0.23-0.23,0.35c-0.08,0.13-0.15,0.25-0.21,0.37
		C14.31,137.63,14.27,137.7,14.26,137.72z"/>
	<path class="st31" d="M21.03,146.35c0,0.11-0.05,0.2-0.14,0.24c-0.09,0.04-0.2,0.06-0.32,0.06c-0.09,0-0.19-0.01-0.32-0.03
		c-0.12-0.02-0.23-0.04-0.32-0.08c-0.11-0.04-0.2-0.1-0.26-0.16s-0.09-0.13-0.11-0.21c-0.02-0.07-0.03-0.15-0.03-0.25
		c0-0.08,0-0.17-0.01-0.27c-0.1-1.58-0.19-3.16-0.25-4.72c-0.07-1.56-0.1-3.14-0.1-4.72c0-0.1,0.02-0.19,0.06-0.25
		c0.03-0.06,0.12-0.09,0.26-0.09c0.16,0,0.32,0.03,0.48,0.1c0.17,0.07,0.28,0.16,0.35,0.3c0.02,0.04,0.05,0.11,0.05,0.21
		c0.01,0.1,0.01,0.21,0.02,0.31c0,0.1,0.01,0.22,0.01,0.32c0,0.1,0,0.19,0.01,0.25c0.05,1.33,0.1,2.64,0.16,3.96
		c0.06,1.32,0.16,2.63,0.32,3.97c0.02,0.17,0.05,0.36,0.08,0.53C21.01,145.99,21.03,146.16,21.03,146.35z"/>
	<path class="st31" d="M27.55,141.64c0,0.17,0,0.38-0.01,0.63c-0.01,0.25-0.02,0.5-0.03,0.79c-0.02,0.28-0.06,0.58-0.1,0.87
		c-0.05,0.3-0.1,0.6-0.18,0.88c-0.08,0.29-0.17,0.56-0.29,0.81c-0.11,0.26-0.26,0.48-0.43,0.68s-0.36,0.35-0.59,0.46
		c-0.23,0.11-0.47,0.16-0.75,0.16c-0.27,0-0.52-0.05-0.72-0.15c-0.21-0.1-0.39-0.24-0.54-0.4c-0.16-0.16-0.28-0.35-0.39-0.57
		c-0.11-0.21-0.2-0.43-0.27-0.66c-0.07-0.23-0.14-0.45-0.18-0.68c-0.05-0.23-0.08-0.43-0.11-0.62c-0.08-0.48-0.15-0.98-0.18-1.47
		c-0.05-0.48-0.06-0.99-0.06-1.48c0-0.49,0.02-1,0.07-1.5s0.15-0.99,0.29-1.46c-0.03-0.05-0.07-0.09-0.1-0.14
		c-0.03-0.04-0.05-0.1-0.05-0.15c0-0.03,0-0.06,0.01-0.08s0.01-0.05,0.02-0.07c0.08-0.21,0.18-0.42,0.3-0.65
		c0.12-0.23,0.28-0.43,0.46-0.62c0.18-0.19,0.38-0.34,0.61-0.46c0.23-0.12,0.48-0.19,0.75-0.19c0.25,0,0.46,0.04,0.65,0.12
		c0.19,0.08,0.36,0.2,0.51,0.33c0.15,0.14,0.27,0.3,0.37,0.47c0.1,0.17,0.19,0.36,0.27,0.56c0.07,0.2,0.14,0.39,0.18,0.59
		c0.05,0.2,0.09,0.38,0.12,0.54c0.11,0.57,0.2,1.13,0.26,1.7C27.51,140.5,27.55,141.06,27.55,141.64z M24.41,137.72
		c-0.1,0.23-0.19,0.46-0.25,0.72c-0.07,0.26-0.11,0.52-0.15,0.79c-0.03,0.27-0.06,0.53-0.07,0.8c-0.01,0.27-0.01,0.51-0.01,0.75
		c0,0.08,0,0.23,0.01,0.43c0.01,0.2,0.02,0.43,0.05,0.69c0.02,0.26,0.06,0.54,0.09,0.84c0.03,0.31,0.08,0.61,0.12,0.92
		c0.05,0.31,0.1,0.6,0.16,0.88c0.06,0.28,0.14,0.52,0.21,0.74c0.08,0.22,0.17,0.39,0.26,0.52c0.09,0.13,0.19,0.2,0.3,0.2
		c0.08,0,0.15-0.03,0.21-0.1c0.07-0.07,0.12-0.14,0.18-0.24s0.1-0.19,0.14-0.28c0.03-0.09,0.07-0.16,0.08-0.22
		c0.17-0.49,0.29-0.98,0.36-1.48c0.07-0.49,0.1-1,0.1-1.51c0-0.38-0.01-0.78-0.03-1.2c-0.02-0.42-0.06-0.84-0.11-1.28
		c-0.06-0.42-0.12-0.84-0.21-1.25c-0.09-0.41-0.21-0.8-0.36-1.15c-0.05-0.11-0.1-0.24-0.16-0.36c-0.06-0.11-0.14-0.23-0.25-0.31
		c-0.01,0.01-0.06,0.07-0.12,0.17c-0.07,0.1-0.15,0.23-0.23,0.35c-0.08,0.13-0.15,0.25-0.21,0.37
		C24.47,137.63,24.42,137.7,24.41,137.72z"/>
	<path class="st31" d="M31.18,146.35c0,0.11-0.05,0.2-0.14,0.24c-0.09,0.04-0.2,0.06-0.32,0.06c-0.09,0-0.19-0.01-0.32-0.03
		c-0.12-0.02-0.23-0.04-0.32-0.08c-0.11-0.04-0.2-0.1-0.25-0.16c-0.06-0.06-0.09-0.13-0.11-0.21c-0.02-0.07-0.03-0.15-0.03-0.25
		c0-0.08,0-0.17-0.01-0.27c-0.1-1.58-0.19-3.16-0.25-4.72c-0.07-1.56-0.1-3.14-0.1-4.72c0-0.1,0.02-0.19,0.06-0.25
		c0.03-0.06,0.12-0.09,0.26-0.09c0.16,0,0.32,0.03,0.48,0.1c0.17,0.07,0.28,0.16,0.35,0.3c0.02,0.04,0.03,0.11,0.05,0.21
		c0.01,0.1,0.01,0.21,0.02,0.31c0,0.1,0.01,0.22,0.01,0.32c0,0.1,0,0.19,0.01,0.25c0.05,1.33,0.1,2.64,0.16,3.96
		c0.06,1.32,0.16,2.63,0.32,3.97c0.02,0.17,0.05,0.36,0.08,0.53C31.17,145.99,31.18,146.16,31.18,146.35z"/>
	<path class="st31" d="M34.95,146.35c0,0.11-0.05,0.2-0.14,0.24c-0.09,0.04-0.2,0.06-0.32,0.06c-0.09,0-0.19-0.01-0.32-0.03
		s-0.23-0.04-0.32-0.08c-0.11-0.04-0.2-0.1-0.25-0.16c-0.06-0.06-0.09-0.13-0.11-0.21c-0.02-0.07-0.03-0.15-0.03-0.25
		c0-0.08,0-0.17-0.01-0.27c-0.1-1.58-0.19-3.16-0.25-4.72c-0.07-1.56-0.1-3.14-0.1-4.72c0-0.1,0.02-0.19,0.06-0.25
		c0.03-0.06,0.12-0.09,0.26-0.09c0.16,0,0.32,0.03,0.48,0.1c0.17,0.07,0.28,0.16,0.35,0.3c0.02,0.04,0.03,0.11,0.05,0.21
		c0.01,0.1,0.01,0.21,0.02,0.31s0.01,0.22,0.01,0.32c0,0.1,0,0.19,0.01,0.25c0.05,1.33,0.1,2.64,0.16,3.96
		c0.06,1.32,0.16,2.63,0.32,3.97c0.01,0.17,0.05,0.36,0.08,0.53C34.92,145.99,34.95,146.16,34.95,146.35z"/>
</g>
<g>
	<path class="st31" d="M226.08,36.18c0,0.17,0,0.38-0.01,0.63c-0.01,0.25-0.02,0.5-0.03,0.79c-0.02,0.28-0.06,0.58-0.1,0.87
		c-0.05,0.3-0.1,0.59-0.18,0.87c-0.08,0.29-0.17,0.56-0.28,0.82c-0.11,0.26-0.26,0.48-0.43,0.68c-0.17,0.2-0.36,0.35-0.57,0.46
		c-0.23,0.11-0.47,0.16-0.75,0.16c-0.27,0-0.52-0.05-0.72-0.15c-0.21-0.1-0.39-0.24-0.54-0.4c-0.16-0.16-0.28-0.35-0.39-0.57
		c-0.11-0.22-0.2-0.43-0.27-0.66c-0.07-0.23-0.14-0.45-0.18-0.68c-0.05-0.23-0.09-0.43-0.11-0.62c-0.08-0.48-0.15-0.98-0.18-1.47
		c-0.05-0.48-0.06-0.98-0.06-1.48c0-0.49,0.02-1,0.07-1.5c0.05-0.5,0.15-0.99,0.29-1.46c-0.03-0.04-0.07-0.09-0.1-0.14
		c-0.03-0.04-0.05-0.09-0.05-0.15c0-0.03,0-0.06,0.01-0.08c0-0.02,0.01-0.05,0.02-0.07c0.08-0.21,0.18-0.42,0.3-0.65
		c0.12-0.23,0.28-0.43,0.46-0.62s0.38-0.34,0.61-0.46c0.23-0.12,0.48-0.19,0.75-0.19c0.25,0,0.46,0.04,0.65,0.12
		c0.19,0.08,0.36,0.2,0.51,0.33c0.15,0.14,0.27,0.3,0.37,0.47s0.19,0.36,0.27,0.56c0.07,0.2,0.14,0.39,0.18,0.59
		c0.05,0.2,0.09,0.38,0.12,0.54c0.11,0.57,0.2,1.13,0.26,1.7C226.06,35.03,226.08,35.61,226.08,36.18z M222.96,32.27
		c-0.1,0.23-0.19,0.46-0.25,0.72c-0.07,0.26-0.11,0.52-0.15,0.78c-0.03,0.27-0.06,0.53-0.07,0.8c-0.01,0.27-0.01,0.51-0.01,0.75
		c0,0.09,0,0.23,0.01,0.43c0.01,0.2,0.02,0.43,0.05,0.69c0.02,0.26,0.06,0.54,0.09,0.84c0.03,0.3,0.08,0.61,0.12,0.92
		c0.05,0.31,0.1,0.6,0.16,0.87c0.06,0.28,0.14,0.52,0.21,0.74c0.08,0.22,0.17,0.39,0.26,0.52c0.09,0.13,0.19,0.2,0.3,0.2
		c0.08,0,0.15-0.03,0.21-0.1c0.07-0.06,0.12-0.14,0.18-0.24c0.06-0.09,0.1-0.19,0.14-0.28c0.03-0.09,0.07-0.16,0.08-0.22
		c0.18-0.49,0.29-0.98,0.37-1.48c0.07-0.49,0.1-1,0.1-1.51c0-0.38-0.01-0.78-0.03-1.2c-0.02-0.42-0.06-0.84-0.11-1.28
		c-0.06-0.42-0.12-0.84-0.21-1.25c-0.09-0.41-0.21-0.79-0.36-1.15c-0.05-0.11-0.1-0.24-0.16-0.36c-0.06-0.11-0.14-0.23-0.25-0.31
		c-0.01,0.01-0.06,0.07-0.12,0.17c-0.07,0.1-0.15,0.23-0.23,0.35c-0.08,0.13-0.15,0.25-0.21,0.37
		C223.02,32.16,222.97,32.23,222.96,32.27z"/>
	<path class="st31" d="M229.73,40.88c0,0.11-0.05,0.2-0.14,0.24c-0.09,0.04-0.2,0.06-0.32,0.06c-0.09,0-0.19-0.01-0.32-0.03
		s-0.23-0.05-0.32-0.08c-0.11-0.05-0.2-0.1-0.25-0.16c-0.06-0.06-0.09-0.13-0.11-0.21c-0.02-0.08-0.03-0.15-0.03-0.25
		c0-0.08,0-0.17-0.01-0.27c-0.1-1.58-0.19-3.16-0.25-4.72c-0.07-1.56-0.1-3.14-0.1-4.72c0-0.1,0.02-0.19,0.06-0.25
		s0.12-0.09,0.26-0.09c0.16,0,0.32,0.03,0.48,0.1c0.17,0.07,0.28,0.16,0.35,0.3c0.02,0.04,0.05,0.11,0.05,0.21
		c0.01,0.1,0.01,0.2,0.02,0.31c0,0.1,0.01,0.22,0.01,0.32c0,0.1,0,0.19,0.01,0.25c0.05,1.33,0.1,2.64,0.16,3.96s0.16,2.63,0.32,3.97
		c0.02,0.19,0.05,0.36,0.08,0.53C229.72,40.52,229.73,40.71,229.73,40.88z"/>
	<path class="st31" d="M236.24,36.18c0,0.17,0,0.38-0.01,0.63c-0.01,0.25-0.02,0.5-0.03,0.79c-0.02,0.28-0.06,0.58-0.1,0.87
		c-0.05,0.3-0.1,0.59-0.18,0.87c-0.08,0.29-0.17,0.56-0.29,0.82c-0.11,0.26-0.26,0.48-0.43,0.68c-0.17,0.2-0.36,0.35-0.57,0.46
		c-0.23,0.11-0.47,0.16-0.75,0.16c-0.27,0-0.52-0.05-0.72-0.15c-0.21-0.1-0.39-0.24-0.54-0.4c-0.16-0.16-0.28-0.35-0.39-0.57
		c-0.11-0.22-0.2-0.43-0.27-0.66c-0.08-0.23-0.14-0.45-0.18-0.68c-0.05-0.23-0.09-0.43-0.11-0.62c-0.08-0.48-0.15-0.98-0.18-1.47
		c-0.05-0.48-0.06-0.98-0.06-1.48c0-0.49,0.02-1,0.07-1.5c0.05-0.5,0.15-0.99,0.29-1.46c-0.03-0.04-0.07-0.09-0.1-0.14
		c-0.03-0.04-0.05-0.09-0.05-0.15c0-0.03,0-0.06,0.01-0.08c0-0.02,0.01-0.05,0.02-0.07c0.08-0.21,0.18-0.42,0.3-0.65
		c0.12-0.23,0.28-0.43,0.46-0.62c0.18-0.19,0.38-0.34,0.61-0.46c0.23-0.12,0.48-0.19,0.75-0.19c0.25,0,0.46,0.04,0.65,0.12
		c0.19,0.08,0.36,0.2,0.51,0.33c0.15,0.14,0.27,0.3,0.37,0.47s0.19,0.36,0.27,0.56c0.08,0.2,0.14,0.39,0.18,0.59
		c0.05,0.2,0.09,0.38,0.12,0.54c0.11,0.57,0.2,1.13,0.26,1.7C236.21,35.03,236.24,35.61,236.24,36.18z M233.12,32.27
		c-0.1,0.23-0.19,0.46-0.25,0.72c-0.07,0.26-0.11,0.52-0.15,0.78c-0.03,0.27-0.06,0.53-0.07,0.8c-0.01,0.27-0.02,0.51-0.02,0.75
		c0,0.09,0,0.23,0.01,0.43c0.01,0.2,0.02,0.43,0.05,0.69c0.02,0.26,0.06,0.54,0.09,0.84c0.03,0.3,0.08,0.61,0.12,0.92
		c0.05,0.31,0.1,0.6,0.16,0.87c0.06,0.28,0.14,0.52,0.21,0.74c0.08,0.22,0.17,0.39,0.26,0.52c0.09,0.13,0.19,0.2,0.3,0.2
		c0.08,0,0.15-0.03,0.21-0.1c0.07-0.06,0.12-0.14,0.18-0.24c0.06-0.09,0.1-0.19,0.14-0.28c0.03-0.09,0.07-0.16,0.08-0.22
		c0.18-0.49,0.29-0.98,0.37-1.48c0.07-0.49,0.1-1,0.1-1.51c0-0.38-0.01-0.78-0.03-1.2c-0.02-0.42-0.06-0.84-0.11-1.28
		c-0.06-0.42-0.12-0.84-0.21-1.25s-0.21-0.79-0.36-1.15c-0.05-0.11-0.1-0.24-0.16-0.36c-0.06-0.11-0.14-0.23-0.25-0.31
		c-0.01,0.01-0.06,0.07-0.12,0.17c-0.07,0.1-0.15,0.23-0.23,0.35c-0.08,0.13-0.15,0.25-0.21,0.37
		C233.16,32.16,233.13,32.23,233.12,32.27z"/>
	<path class="st31" d="M239.89,40.88c0,0.11-0.05,0.2-0.14,0.24s-0.2,0.06-0.32,0.06c-0.09,0-0.19-0.01-0.32-0.03
		s-0.23-0.05-0.32-0.08c-0.11-0.05-0.2-0.1-0.25-0.16c-0.06-0.06-0.09-0.13-0.11-0.21c-0.02-0.08-0.03-0.15-0.03-0.25
		c0-0.08,0-0.17-0.01-0.27c-0.1-1.58-0.19-3.16-0.25-4.72c-0.07-1.56-0.1-3.14-0.1-4.72c0-0.1,0.01-0.19,0.06-0.25
		c0.03-0.06,0.12-0.09,0.26-0.09c0.16,0,0.32,0.03,0.48,0.1s0.28,0.16,0.35,0.3c0.02,0.04,0.05,0.11,0.05,0.21
		c0.01,0.1,0.01,0.2,0.02,0.31c0,0.1,0.01,0.22,0.01,0.32c0,0.1,0,0.19,0.01,0.25c0.05,1.33,0.1,2.64,0.16,3.96
		c0.06,1.32,0.17,2.63,0.32,3.97c0.02,0.19,0.05,0.36,0.08,0.53C239.87,40.52,239.89,40.71,239.89,40.88z"/>
	<path class="st31" d="M246.4,36.18c0,0.17,0,0.38-0.01,0.63c0,0.25-0.02,0.5-0.05,0.79c-0.02,0.28-0.06,0.58-0.1,0.87
		c-0.05,0.3-0.1,0.59-0.18,0.87c-0.08,0.29-0.17,0.56-0.29,0.82c-0.11,0.26-0.26,0.48-0.43,0.68c-0.17,0.2-0.36,0.35-0.57,0.46
		c-0.23,0.11-0.47,0.16-0.75,0.16c-0.27,0-0.52-0.05-0.72-0.15c-0.21-0.1-0.39-0.24-0.54-0.4c-0.16-0.16-0.28-0.35-0.39-0.57
		c-0.11-0.22-0.2-0.43-0.27-0.66c-0.08-0.23-0.14-0.45-0.18-0.68c-0.05-0.23-0.09-0.43-0.11-0.62c-0.08-0.48-0.15-0.98-0.18-1.47
		c-0.05-0.48-0.06-0.98-0.06-1.48c0-0.49,0.02-1,0.07-1.5c0.05-0.5,0.15-0.99,0.29-1.46c-0.03-0.04-0.07-0.09-0.09-0.14
		c-0.03-0.04-0.05-0.09-0.05-0.15c0-0.03,0-0.06,0.01-0.08c0-0.02,0.01-0.05,0.02-0.07c0.08-0.21,0.18-0.42,0.3-0.65
		c0.12-0.23,0.28-0.43,0.46-0.62c0.18-0.19,0.38-0.34,0.61-0.46c0.23-0.12,0.48-0.19,0.75-0.19c0.25,0,0.46,0.04,0.65,0.12
		c0.19,0.08,0.36,0.2,0.51,0.33c0.15,0.14,0.27,0.3,0.37,0.47s0.19,0.36,0.27,0.56c0.07,0.2,0.14,0.39,0.18,0.59
		c0.05,0.2,0.09,0.38,0.12,0.54c0.11,0.57,0.2,1.13,0.26,1.7C246.37,35.03,246.4,35.61,246.4,36.18z M243.27,32.27
		c-0.1,0.23-0.19,0.46-0.25,0.72c-0.07,0.26-0.11,0.52-0.15,0.78c-0.03,0.27-0.06,0.53-0.07,0.8c-0.01,0.27-0.01,0.51-0.01,0.75
		c0,0.09,0,0.23,0.01,0.43c0.01,0.2,0.02,0.43,0.05,0.69c0.02,0.26,0.06,0.54,0.09,0.84c0.03,0.3,0.08,0.61,0.12,0.92
		c0.05,0.31,0.1,0.6,0.16,0.87c0.06,0.28,0.14,0.52,0.21,0.74s0.17,0.39,0.26,0.52c0.09,0.13,0.19,0.2,0.3,0.2
		c0.08,0,0.15-0.03,0.21-0.1c0.07-0.06,0.12-0.14,0.18-0.24c0.06-0.09,0.1-0.19,0.14-0.28c0.03-0.09,0.07-0.16,0.08-0.22
		c0.17-0.49,0.29-0.98,0.36-1.48c0.07-0.49,0.1-1,0.1-1.51c0-0.38-0.01-0.78-0.03-1.2c-0.02-0.42-0.06-0.84-0.11-1.28
		c-0.06-0.42-0.12-0.84-0.21-1.25s-0.21-0.79-0.36-1.15c-0.05-0.11-0.1-0.24-0.16-0.36c-0.06-0.11-0.14-0.23-0.25-0.31
		c-0.01,0.01-0.06,0.07-0.12,0.17c-0.07,0.1-0.15,0.23-0.23,0.35c-0.08,0.13-0.15,0.25-0.21,0.37
		C243.33,32.16,243.29,32.23,243.27,32.27z"/>
	<path class="st31" d="M250.04,40.88c0,0.11-0.05,0.2-0.14,0.24s-0.2,0.06-0.32,0.06c-0.09,0-0.19-0.01-0.32-0.03
		s-0.23-0.05-0.32-0.08c-0.11-0.05-0.2-0.1-0.25-0.16c-0.06-0.06-0.09-0.13-0.11-0.21c-0.02-0.08-0.03-0.15-0.03-0.25
		c0-0.08,0-0.17-0.01-0.27c-0.1-1.58-0.19-3.16-0.25-4.72c-0.07-1.56-0.1-3.14-0.1-4.72c0-0.1,0.01-0.19,0.06-0.25
		c0.03-0.06,0.12-0.09,0.26-0.09c0.16,0,0.32,0.03,0.48,0.1c0.17,0.07,0.28,0.16,0.35,0.3c0.02,0.04,0.03,0.11,0.05,0.21
		c0.01,0.1,0.01,0.2,0.02,0.31c0,0.1,0.01,0.22,0.01,0.32c0,0.1,0,0.19,0.01,0.25c0.05,1.33,0.1,2.64,0.16,3.96
		c0.06,1.32,0.16,2.63,0.32,3.97c0.02,0.19,0.05,0.36,0.08,0.53C250.03,40.52,250.04,40.71,250.04,40.88z"/>
	<path class="st31" d="M253.8,40.88c0,0.11-0.05,0.2-0.14,0.24c-0.09,0.04-0.2,0.06-0.32,0.06c-0.09,0-0.19-0.01-0.32-0.03
		s-0.23-0.05-0.32-0.08c-0.11-0.05-0.2-0.1-0.25-0.16c-0.06-0.06-0.09-0.13-0.11-0.21c-0.02-0.08-0.03-0.15-0.03-0.25
		c0-0.08,0-0.17-0.01-0.27c-0.1-1.58-0.19-3.16-0.25-4.72c-0.07-1.56-0.1-3.14-0.1-4.72c0-0.1,0.01-0.19,0.06-0.25
		c0.03-0.06,0.12-0.09,0.26-0.09c0.16,0,0.32,0.03,0.48,0.1c0.17,0.07,0.28,0.16,0.35,0.3c0.02,0.04,0.05,0.11,0.05,0.21
		c0.01,0.1,0.01,0.2,0.02,0.31c0.01,0.1,0.01,0.22,0.01,0.32c0,0.1,0,0.19,0.01,0.25c0.05,1.33,0.1,2.64,0.16,3.96
		c0.06,1.32,0.16,2.63,0.32,3.97c0.01,0.19,0.05,0.36,0.08,0.53C253.78,40.52,253.8,40.71,253.8,40.88z"/>
</g>
<g>
	<path class="st31" d="M149.31,10.2c-1.68-1.51-3.99-2.63-6.41-2.75c-2.59-0.12-5.02,1.15-6.8,2.75c-2.1,1.87-2.17,4.74-1.04,7.04
		c0.7,1.41,1.95,2.49,3.05,3.64c1.66,1.71,1.92,3.53,1.51,5.69c-0.18,0.96-0.34,1.91,0.41,2.7c0.18,1.39,1.08,2.6,2.87,2.43
		c1.3-0.12,2.66-1.45,2.68-2.68c0.52-0.74,0.36-1.6,0.2-2.46c-0.41-2.16-0.15-3.98,1.51-5.69c1.1-1.15,2.35-2.23,3.05-3.64
		C151.48,14.94,151.39,12.07,149.31,10.2z M143.04,30.91c-1.18,0.38-1.85-0.36-2.24-1.19c0.59,0.19,1.32,0.19,1.9,0.03
		c0.51,0.13,1.12,0.15,1.64,0.04C144.1,30.27,143.75,30.68,143.04,30.91z M142.88,27.06c-0.03,0.56-0.2,1.61,0.43,1.97
		c0.01,0.01,0.03,0.01,0.05,0.02c-0.01,0-0.03,0-0.05,0.01c-0.06-0.02-0.11-0.04-0.18-0.03c-0.14,0.02-0.27,0.03-0.42,0.04
		c-0.07,0-0.14-0.01-0.19-0.01c0.25-3.18-0.12-6.41-0.37-9.57c-0.06-0.73-0.16-1.47-0.33-2.2c0.32,0.02,0.69,0.04,1.08,0.05
		c0.05,0.84,0.14,1.66,0.1,2.21C142.82,22.05,143.03,24.56,142.88,27.06z M149.08,17.6c-1.43,2.16-3.93,3.56-4.42,6.18
		c-0.23,1.25,0.17,2.42,0.27,3.64c0.05,0.54,0.07,1.3-0.69,1.48c-0.1,0.02-0.21,0.05-0.33,0.07c-0.01-0.05-0.02-0.1-0.05-0.15
		c0.05-0.13,0-0.3-0.16-0.4c-0.08-0.05,0.08-1.16,0.1-1.36c0.06-0.56,0.14-1.1,0.18-1.66c0.16-2.07-0.12-4.16,0.01-6.23
		c0.03-0.42-0.07-1.12-0.11-1.84c1.62-0.09,3.33-0.53,3.53-1.96c0.2-1.49-1.93-2.26-3.24-1.65c-1.01,0.47-1.28,1.59-1.31,2.79
		c-0.42-0.01-0.87-0.03-1.33-0.08c-0.3-0.85-0.75-1.66-1.43-2.34c-1.09-1.1-3.03-0.17-2.57,1.26c0.35,1.11,1.85,1.62,3.17,1.84
		c0.52,1.75,0.51,3.59,0.71,5.38c0.25,2.16,0.14,4.32,0.3,6.47c-0.19-0.03-0.37-0.06-0.55-0.1c-0.77-0.19-0.73-0.94-0.69-1.48
		c0.1-1.23,0.5-2.4,0.27-3.64c-0.47-2.62-2.99-4.02-4.42-6.18c-1.44-2.19-1.55-4.85,0.43-6.84c2.19-2.18,6.08-2.67,9.05-1.62
		c1.05,0.37,2.1,0.86,2.85,1.62C150.64,12.74,150.52,15.41,149.08,17.6z M143.88,16.48c0.02-0.98,0.24-1.87,1.07-2.12
		c0.75-0.23,1.92,0.52,1.31,1.22C145.69,16.22,144.77,16.42,143.88,16.48z M140.34,16.18c-0.6-0.15-1.15-0.38-1.57-0.73
		c-0.33-0.27-0.26-0.75,0.09-0.99c0.15-0.09,0.54,0.34,0.62,0.41C139.85,15.25,140.14,15.72,140.34,16.18z"/>
	<path class="st31" d="M132.49,20.09c-0.96,0.22-1.88,0.78-2.61,1.37c-0.23,0.19,0.07,0.52,0.33,0.38c0.83-0.47,1.99-0.68,2.5-1.48
		C132.79,20.21,132.66,20.06,132.49,20.09z"/>
	<path class="st31" d="M128.92,14.55c-0.48-0.13-1.09,0.06-1.59,0.1c-0.68,0.05-1.36,0.08-2.05,0.11c-0.46,0.02-0.46,0.61,0,0.63
		c0.93,0.05,3.29,0.56,3.81-0.45C129.18,14.77,129.11,14.6,128.92,14.55z"/>
	<path class="st31" d="M129.79,9.22c-0.18-0.63-1.27-1.04-1.85-1.34c-0.43-0.22-1.36-0.66-1.78-0.23c-0.17,0.17-0.01,0.51,0.27,0.42
		c-0.11,0.04-0.15-0.01,0.05,0.06c0.11,0.05,0.21,0.11,0.32,0.19c0.32,0.2,0.64,0.38,0.96,0.57c0.44,0.26,1.08,0.82,1.66,0.77
		C129.66,9.63,129.86,9.46,129.79,9.22z"/>
	<path class="st31" d="M135.41,2.34c-0.1-0.28-0.37-0.83-0.66-1.1c-0.05-0.04-0.15-0.07-0.19-0.1h-0.07l0,0
		c0-0.04-0.15-0.04-0.29,0.01c-0.11,0.05-0.15,0.17-0.15,0.28c-0.05,0.51,0.37,1.11,0.48,1.61c0.18,0.8,0.35,1.86,1.25,2.28
		c0.19,0.08,0.43-0.02,0.43-0.22C136.21,4.2,135.71,3.21,135.41,2.34z"/>
	<path class="st31" d="M145.06,1.89c0.01-0.64-0.06-1.28-0.52-1.79c-0.24-0.26-0.7,0.02-0.61,0.31c0.19,0.58,0.09,1.25,0.03,1.84
		c-0.05,0.47-0.25,1.17,0.29,1.47c0.1,0.06,0.25,0.05,0.35,0C145.21,3.41,145.05,2.42,145.06,1.89z"/>
	<path class="st31" d="M155.47,3.55c-0.54-0.42-1.36,0.19-1.8,0.47c-0.65,0.44-1.23,1-1.72,1.58c-0.29,0.34,0.35,0.76,0.66,0.45
		c0.55-0.54,1.19-0.99,1.87-1.41C154.72,4.49,155.99,3.95,155.47,3.55z"/>
	<path class="st31" d="M159.39,12.33c-0.84-1.18-3.06-0.29-4.3-0.42c-0.38-0.04-0.44,0.49-0.09,0.59c0.65,0.16,1.35,0.21,2.03,0.22
		c0.68,0.01,1.41,0.12,2.07,0.07C159.35,12.75,159.54,12.53,159.39,12.33z"/>
	<path class="st31" d="M155.3,21.3c-0.21-0.38-0.83-0.66-1.23-0.89c-0.5-0.29-1.01-0.43-1.61-0.46c-0.41-0.02-0.46,0.51-0.09,0.62
		c0.5,0.13,0.88,0.43,1.26,0.72c0.34,0.26,0.82,0.64,1.3,0.58C155.26,21.83,155.46,21.57,155.3,21.3z"/>
</g>
<path class="st32" d="M166.58,41.29h-36.23c-2.37,0-4.46,1.94-4.46,4.03v24.71c0,2.09,2.1,3.56,4.46,3.56h10.51l-2.52,6.56
	l9.27-6.56h18.97c2.37,0,4.45-1.47,4.45-3.56V45.32C171.04,43.24,168.94,41.29,166.58,41.29z"/>
<path class="st12" d="M161.72,59.03v-5.07h-3.2c-0.23-0.64-0.54-1.32-0.91-1.9l2.42-2.16l-4-3.55l-2.32,2.17
	c-0.68-0.33-1.31-0.59-2.03-0.78v-2.66h-5.01v2.7c-1.43,0.21-1.97,0.48-2.66,0.83l-2.57-2.07l-4.11,3.54l2.32,2.3
	c-0.38,0.63-0.74,1.55-0.96,2.19h-2.76v4.43h2.85c0.24,0.64,0.56,1.43,0.98,2.05l-2.32,2.09l4,3.56l2.7-2.12
	c0.7,0.33,1.81,0.6,2.52,0.77v3.15h5.01v-3.27c0.72-0.21,1.49-0.49,2.16-0.84l2.41,2.12l4.01-3.54l-2.49-2.14
	c0.36-0.6,0.64-1.2,0.84-1.83h3.1V59.03z M142,56.55c0-3.25,2.99-5.88,6.66-5.88c3.67,0,6.66,2.64,6.66,5.88s-2.99,5.88-6.66,5.88
	C144.98,62.43,142,59.79,142,56.55z"/>
<g>
	<path class="st33" d="M10.37,49.53h36.23c2.37,0,4.8,1.38,4.8,3.47V77.7c0,2.09-2.43,3.5-4.8,3.5H36.08l2.52,6.56l-9.27-6.56H10.37
		c-2.37,0-4.12-1.4-4.12-3.5V52.99C6.25,50.91,8.01,49.53,10.37,49.53z"/>
	<g>
		<g>
			<path class="st12" d="M15.96,69.22h-2.05v-7.96h2.05v3.18h2.91v-3.18h2.05v7.96h-2.05v-3.2h-2.91
				C15.96,66.02,15.96,69.22,15.96,69.22z"/>
			<path class="st12" d="M21.42,61.26h6.33v1.59h-2.14v6.36h-2.05v-6.36h-2.14C21.42,62.86,21.42,61.26,21.42,61.26z"/>
			<path class="st12" d="M35.78,64.5h-0.06l-1.85,4.67h-1.23L30.8,64.5h-0.06l-0.43,4.72h-2.05l0.81-7.96h2.19l1.99,4.6l1.99-4.6
				h2.19l0.81,7.96H36.2L35.78,64.5z"/>
			<path class="st12" d="M41.4,67.63h3.1v1.59h-5.15v-7.96h2.05V67.63z"/>
		</g>
	</g>
</g>
<g>
	<path class="st34" d="M62.08,19.76h36.23c2.37,0,4.66,1.86,4.66,3.95v24.71c0,2.09-2.31,3.01-4.66,3.01H87.8l2.52,6.56l-9.27-6.56
		H62.08c-2.37,0-4.25-0.93-4.25-3.01V23.7C57.84,21.61,59.72,19.76,62.08,19.76z"/>
	<g>
		<g>
			<path class="st12" d="M74.05,38.53l1.16,2.06c0,0-1.34,0.98-3.93,0.98c-3.38,0-6.49-2.44-6.49-5.47c0-3.04,3.1-5.51,6.49-5.51
				c2.6,0,3.93,0.98,3.93,0.98l-1.16,2.06c0,0-0.96-0.66-2.35-0.66c-2.75,0-3.95,1.7-3.95,3.11c0,1.43,1.21,3.12,3.95,3.12
				C73.09,39.18,74.05,38.53,74.05,38.53z"/>
			<path class="st12" d="M84.75,31.58l-1.1,1.92c0,0-1.19-0.73-2.42-0.73c-0.93,0-1.42,0.37-1.42,0.95c0,0.59,1.14,1.02,2.5,1.53
				c1.34,0.5,2.8,1.5,2.8,2.89c0,2.53-2.17,3.41-4.52,3.41c-2.8,0-4.51-1.4-4.51-1.4l1.36-2.03c0,0,1.6,1.19,2.93,1.19
				c0.6,0,1.72-0.05,1.72-1.04c0-0.77-1.27-1.12-2.7-1.75c-1.44-0.63-2.28-1.61-2.28-2.72c0-1.97,1.97-3.24,3.91-3.24
				C83.21,30.58,84.75,31.58,84.75,31.58z"/>
			<path class="st12" d="M94.57,31.58l-1.1,1.92c0,0-1.19-0.73-2.42-0.73c-0.92,0-1.42,0.37-1.42,0.95c0,0.59,1.13,1.02,2.5,1.53
				c1.34,0.5,2.8,1.5,2.8,2.89c0,2.53-2.17,3.41-4.52,3.41c-2.8,0-4.51-1.4-4.51-1.4l1.36-2.03c0,0,1.6,1.19,2.93,1.19
				c0.6,0,1.72-0.05,1.72-1.04c0-0.77-1.27-1.12-2.7-1.75c-1.44-0.63-2.28-1.61-2.28-2.72c0-1.97,1.97-3.24,3.91-3.24
				C93.03,30.58,94.57,31.58,94.57,31.58z"/>
		</g>
	</g>
</g>
<g>
	<path class="st35" d="M19.66,93.87h36.23c2.37,0,4.82,1.39,4.82,3.48v24.71c0,2.09-2.46,3.49-4.82,3.49H45.38l2.52,6.56l-9.27-6.56
		H19.66c-2.37,0-4.81-1.4-4.81-3.49V97.34C14.85,95.26,17.29,93.87,19.66,93.87z"/>
	<g>
		<g>
			<path class="st12" d="M32.77,112.27l1.16,2.06c0,0-1.34,0.98-3.94,0.98c-3.39,0-6.5-2.44-6.5-5.47c0-3.04,3.1-5.51,6.5-5.51
				c2.6,0,3.94,0.98,3.94,0.98l-1.16,2.06c0,0-0.96-0.66-2.35-0.66c-2.75,0-3.95,1.7-3.95,3.11c0,1.43,1.21,3.13,3.95,3.13
				C31.81,112.92,32.77,112.27,32.77,112.27z"/>
			<path class="st12" d="M37.97,113.08v-2.31h-2.61v-1.96h2.61v-2.31h2.22v2.31h2.61v1.96h-2.61v2.31H37.97z"/>
			<path class="st12" d="M47.53,113.08v-2.31h-2.61v-1.96h2.61v-2.31h2.22v2.31h2.61v1.96h-2.61v2.31H47.53z"/>
		</g>
	</g>
</g>
<g>
	<path class="st36" d="M8.82,194.57h36.23c2.37,0,4.91-1.98,4.91-4.07v-24.71c0-2.09-2.55-4.14-4.91-4.14H34.54l2.52-6.56
		l-9.27,6.56H8.82c-2.37,0-4,2.06-4,4.14v24.71C4.81,192.59,6.46,194.57,8.82,194.57z"/>
	<g>
		<g>
			<path class="st12" d="M24.54,181.14c0,2.51-1.61,3.85-4.51,3.85c-2.07,0-3.39-1.22-3.39-1.22l1.05-2.44c0,0,1.04,0.87,1.88,0.87
				c0.95,0,1.67-0.51,1.67-1.8v-8.44h3.3V181.14z"/>
			<path class="st12" d="M36.39,172.93l-1.33,2.32c0,0-1.44-0.88-2.93-0.88c-1.13,0-1.72,0.45-1.72,1.15c0,0.71,1.37,1.22,3.02,1.85
				c1.61,0.61,3.39,1.82,3.39,3.5c0,3.05-2.64,4.12-5.45,4.12c-3.39,0-5.44-1.69-5.44-1.69l1.64-2.45c0,0,1.93,1.44,3.55,1.44
				c0.72,0,2.08-0.06,2.08-1.25c0-0.94-1.54-1.35-3.27-2.11c-1.73-0.76-2.76-1.95-2.76-3.29c0-2.39,2.39-3.91,4.72-3.91
				C34.53,171.73,36.39,172.93,36.39,172.93z"/>
		</g>
	</g>
</g>
<path class="st37" d="M168.08,250.93c0.36,0.08,1.27,0.08,1.6-0.17c-0.02,0.05-0.01,0.12,0.05,0.16c0.72,0.43,1.59-0.38,2.33-0.76
	c-0.15,0.51-0.39,1.01-0.44,1.54c-0.01,0.2,0.2,0.4,0.43,0.3c1-0.45,1.66-1.53,2.79-1.47c-0.06,0.15,0.02,0.35,0.24,0.35
	c0.79,0.01,1.53-0.23,2.17-0.64c0.15-0.09,0.06-0.35-0.14-0.31c-0.46,0.08-0.89,0.27-1.34,0.36c-0.02-0.07-0.08-0.13-0.17-0.16
	c-1.53-0.52-2.17,0.38-3.21,1.05c0.15-0.47,0.36-0.93,0.41-1.42c0.01-0.16-0.14-0.35-0.35-0.32c-0.78,0.15-1.39,0.63-2.07,0.99
	c1.4-1.52,0.17-4.75-1.72-5.49c-1.19-0.47-1.52,0.26-1.31,1.21c0.26,1.15,0.92,2.38,1.61,3.48c-0.63-0.62-1.15-1.33-1.95-1.77
	c-0.56-0.32-1.17-0.59-1.82-0.72c-0.75-0.16-1.84,0-1.31,0.92C164.72,249.5,166.28,250.53,168.08,250.93z M169.89,250.34
	c-0.71-1.1-1.31-2.28-1.84-3.44c-0.17-0.38-0.35-0.8-0.37-1.21c-0.03-0.97,1.06-0.3,1.44,0.11
	C170.19,246.94,171.16,249.05,169.89,250.34z M164.76,248.52c-0.23-0.28-1-1.18-0.06-1.04c1.05,0.16,2.04,0.63,2.75,1.33
	c0.59,0.59,1.12,1.19,1.82,1.67c-0.51,0.47-2.86-0.6-3.04-0.72C165.69,249.4,165.17,249.01,164.76,248.52z"/>
<path class="st37" d="M185.51,242.4c0.37,0.04,1.27-0.08,1.55-0.37c-0.01,0.06,0,0.12,0.07,0.15c0.78,0.33,1.52-0.58,2.19-1.04
	c-0.07,0.52-0.23,1.04-0.19,1.57c0.01,0.2,0.26,0.37,0.47,0.25c0.92-0.57,1.4-1.72,2.53-1.81c-0.03,0.15,0.08,0.34,0.28,0.32
	c0.79-0.08,1.48-0.41,2.05-0.89c0.14-0.11,0-0.35-0.19-0.29c-0.44,0.13-0.84,0.37-1.27,0.52c-0.03-0.06-0.1-0.12-0.19-0.14
	c-1.6-0.33-2.1,0.65-3.02,1.44c0.07-0.48,0.21-0.96,0.18-1.45c-0.01-0.16-0.19-0.33-0.39-0.27c-0.75,0.25-1.27,0.79-1.89,1.23
	c1.14-1.68-0.59-4.72-2.57-5.22c-1.25-0.32-1.46,0.45-1.1,1.37c0.43,1.11,1.28,2.23,2.14,3.24c-0.72-0.52-1.35-1.17-2.21-1.51
	c-0.61-0.25-1.25-0.43-1.92-0.49c-0.78-0.07-1.82,0.23-1.15,1.07C181.95,241.39,183.68,242.21,185.51,242.4z M187.2,241.59
	c-0.87-1-1.66-2.1-2.37-3.19c-0.23-0.36-0.47-0.74-0.55-1.15c-0.19-0.95,0.99-0.43,1.44-0.06
	C186.98,238.19,188.26,240.15,187.2,241.59z M181.85,240.41c-0.27-0.25-1.17-1.05-0.21-1.03c1.06,0.03,2.12,0.37,2.93,0.98
	c0.68,0.51,1.3,1.05,2.06,1.43c-0.42,0.53-2.92-0.24-3.12-0.34C182.9,241.18,182.33,240.85,181.85,240.41z"/>
</svg>
