<?xml version="1.0" encoding="utf-8"?>
<!-- Generator: Adobe Illustrator 25.1.0, SVG Export Plug-In . SVG Version: 6.00 Build 0)  -->
<svg version="1.1" id="Слой_1" xmlns="http://www.w3.org/2000/svg" xmlns:xlink="http://www.w3.org/1999/xlink" x="0px" y="0px"
	 viewBox="0 0 300 265" style="enable-background:new 0 0 300 265;" xml:space="preserve">
<style type="text/css">
	.st0{fill:#966432;}
	.st1{fill:#C4D2FF;}
	.st2{fill:#B8C9FF;}
	.st3{fill:#B859FF;}
	.st4{fill:#C4D200;}
	.st5{fill:#C2D1FF;}
	.st6{fill:#53007D;}
	.st7{fill:#008A00;}
	.st8{fill:#FF7F00;}
	.st9{fill:#CF866E;}
	.st10{fill:#FF9B00;}
	.st11{fill:#CFDBFF;}
	.st12{fill:#007C62;}
	.st13{fill:#88984D;}
	.st14{fill:#A00000;}
	.st15{fill:#939598;}
	.st16{fill:#FFFFFF;}
	.st17{fill:#9CC2FF;}
	.st18{fill:#3F964F;}
	.st19{fill:#78A5FF;}
	.st20{fill:#6397FF;}
	.st21{fill:#2C2858;}
	.st22{fill:#AA62CC;}
	.st23{fill:#0E6A41;}
	.st24{fill:#D48FFF;}
	.st25{fill:#32186C;}
	.st26{fill:#0C5C38;}
	.st27{fill:#768FDB;}
	.st28{fill:#95A6DB;}
	.st29{fill:#CFDAFF;}
	.st30{fill:#FBBEA7;}
	.st31{fill:#201D40;}
	.st32{fill:#494C7F;}
	.st33{fill:#DE623C;}
	.st34{fill:#E62552;}
	.st35{fill:#EFEBEA;}
	.st36{fill:#C4204A;}
	.st37{fill:#646464;}
	.st38{fill:#A9A9A9;}
	.st39{fill:#55AB65;}
	.st40{fill:#FDC010;}
	.st41{opacity:0.29;fill:#FFBF00;enable-background:new    ;}
	.st42{fill:#EF5233;}
	.st43{opacity:0.14;}
	.st44{fill:#FCFFFD;}
	.st45{opacity:0.54;fill:#EF5233;enable-background:new    ;}
	.st46{fill:#334863;}
	.st47{opacity:0.56;}
	.st48{opacity:0.19;fill:#334863;enable-background:new    ;}
	.st49{fill:#F2F2F2;}
	.st50{opacity:0.15;fill:#FFFFFF;enable-background:new    ;}
	.st51{opacity:0.54;fill:#F2F2F2;enable-background:new    ;}
	.st52{opacity:0.79;fill:#FFFFFF;enable-background:new    ;}
	.st53{fill:#CCCCCC;}
	.st54{opacity:0.32;fill:#CCCCCC;enable-background:new    ;}
	.st55{opacity:0.53;fill:#334863;enable-background:new    ;}
	.st56{opacity:0.39;fill:#FDC010;enable-background:new    ;}
	.st57{opacity:0.43;fill:#FFBF00;enable-background:new    ;}
	.st58{opacity:0.57;fill:#334863;enable-background:new    ;}
	.st59{opacity:0.21;fill:#FFFFFF;enable-background:new    ;}
	.st60{opacity:0.12;fill:#334863;enable-background:new    ;}
	.st61{fill:#805F00;}
	.st62{opacity:0.65;fill:#805F00;enable-background:new    ;}
	.st63{opacity:0.24;fill:#334863;enable-background:new    ;}
	.st64{opacity:0.29;}
	.st65{opacity:0.54;fill:#805F00;enable-background:new    ;}
	.st66{fill:#456387;}
	.st67{opacity:0.65;fill:#456387;enable-background:new    ;}
	.st68{opacity:0.65;}
	.st69{opacity:0.31;}
	.st70{opacity:0.5;fill:#334863;enable-background:new    ;}
	.st71{opacity:0.63;fill:#805F00;enable-background:new    ;}
	.st72{opacity:0.37;}
	.st73{fill:#DE362B;}
	.st74{opacity:0.12;fill:#DE362B;enable-background:new    ;}
	.st75{opacity:0.28;}
	.st76{fill:#E3AA00;}
	.st77{opacity:0.12;fill:#E3AA00;enable-background:new    ;}
	.st78{fill:#29394F;}
	.st79{opacity:0.12;fill:#456387;enable-background:new    ;}
	.st80{opacity:0.39;fill:#CCCCCC;enable-background:new    ;}
	.st81{fill:none;stroke:#FFFFFF;stroke-width:2.4859;stroke-linecap:round;stroke-miterlimit:10;}
	.st82{opacity:0.42;fill:#29394F;enable-background:new    ;}
	.st83{opacity:0.38;fill:#29394F;enable-background:new    ;}
	.st84{opacity:0.63;fill:#456387;enable-background:new    ;}
	.st85{opacity:0.46;fill:#456387;enable-background:new    ;}
	.st86{opacity:0.73;fill:#F2F2F2;enable-background:new    ;}
	.st87{fill:none;stroke:#F83C30;stroke-width:1.243;stroke-linecap:round;stroke-miterlimit:10;}
	.st88{fill:none;stroke:#FFBF00;stroke-width:1.243;stroke-linecap:round;stroke-miterlimit:10;}
	.st89{fill:#FFBF00;}
	.st90{opacity:0.49;fill:#FFBF00;enable-background:new    ;}
	.st91{opacity:0.32;}
	.st92{opacity:0.31;fill:#EF5233;enable-background:new    ;}
	.st93{opacity:0.46;fill:#F2F2F2;enable-background:new    ;}
	
		.st94{opacity:0.27;fill:none;stroke:#FFFFFF;stroke-width:0.5796;stroke-linecap:round;stroke-miterlimit:10;enable-background:new    ;}
	.st95{opacity:0.51;fill:#CCCCCC;enable-background:new    ;}
	.st96{fill:none;stroke:#FFBF00;stroke-width:0.9694;stroke-miterlimit:10;}
	.st97{fill:none;stroke:#FFBF00;stroke-width:0.3231;stroke-linecap:round;stroke-miterlimit:10;}
	.st98{opacity:0.46;fill:#FFBF00;enable-background:new    ;}
	.st99{opacity:0.57;fill:#F2F2F2;enable-background:new    ;}
	.st100{opacity:0.5;}
	.st101{opacity:0.36;fill:#EF5233;enable-background:new    ;}
</style>
<g>
	<g>
		<rect x="202.8" class="st0" width="74.8" height="5.2"/>
		<rect x="202.8" y="55.9" class="st0" width="74.8" height="5.2"/>
		<rect x="202.8" y="111.8" class="st0" width="74.8" height="149"/>
		<g>
			<path d="M272.8,254.6h-65.4V120h65.4V254.6z M209.1,252.2h62.2V122.3h-62.2L209.1,252.2L209.1,252.2z"/>
		</g>
		<rect x="273.8" class="st0" width="3.7" height="111.9"/>
		<rect x="202.8" class="st0" width="3.7" height="111.8"/>
		<rect x="239.3" y="122.3" width="1.8" height="129.8"/>
		<ellipse cx="245.7" cy="195.7" rx="2.4" ry="3.5"/>
		<ellipse cx="234.4" cy="195.7" rx="2.4" ry="3.5"/>
		<path class="st1" d="M231.8,86.8h-4.2v-2.4h0.2c0.2,0,0.6-0.4,0.6-0.8v-0.5c0-0.5-0.2-0.8-0.6-0.8h-3.3c-0.2,0-0.6,0.4-0.6,0.8
			v0.5c0,0.5,0.2,0.8,0.6,0.8h0.2v2.4h-3.1v-2.4h0.2c0.2,0,0.6-0.4,0.6-0.8v-0.5c0-0.5-0.2-0.8-0.6-0.8h-3.3c-0.2,0-0.6,0.4-0.6,0.8
			v0.5c0,0.5,0.2,0.8,0.6,0.8h0.2v2.4h-3.1v-2.4h0.2c0.2,0,0.6-0.4,0.6-0.8v-0.5c0-0.5-0.2-0.8-0.6-0.8h-3.3c-0.2,0-0.6,0.4-0.6,0.8
			v0.5c0,0.5,0.2,0.8,0.6,0.8h0.2v2.4h-4.8c-0.1,0-0.2,0.2-0.2,0.5c0,0.2,0.1,0.5,0.2,0.5h1.3v22.4h-0.7c-0.2,0-0.5,0.4-0.5,0.8
			c0,0.5,0.2,0.8,0.5,0.8H231c0.2,0,0.5-0.4,0.5-0.8c0-0.5-0.2-0.8-0.5-0.8h-0.7V87.7h1.3c0.1,0,0.2-0.2,0.2-0.5
			C232.1,86.9,232,86.8,231.8,86.8z M230,110H210V87.6h3v18.8c0,1.2,0.6,2.1,1.4,2.1c0.7,0,1.4-1,1.4-2.1V87.6h3.1v18.8
			c0,1.2,0.6,2.1,1.4,2.1s1.4-1,1.4-2.1V87.6h3.1v18.8c0,1.2,0.6,2.1,1.4,2.1s1.4-1,1.4-2.1V87.6h2.4V110L230,110z"/>
		<path class="st2" d="M234.2,31h-4.2v-2.4h0.2c0.2,0,0.6-0.4,0.6-0.8v-0.5c0-0.5-0.2-0.8-0.6-0.8H227c-0.2,0-0.6,0.4-0.6,0.8v0.4
			c0,0.5,0.2,0.8,0.6,0.8h0.2v2.4h-3.1v-2.4h0.2c0.2,0,0.6-0.4,0.6-0.8v-0.5c0-0.5-0.2-0.8-0.6-0.8H221c-0.2,0-0.6,0.4-0.6,0.8v0.5
			c0,0.5,0.2,0.8,0.6,0.8h0.2v2.4h-3.1v-2.4h0.2c0.2,0,0.6-0.4,0.6-0.8v-0.5c0-0.5-0.2-0.8-0.6-0.8H215c-0.2,0-0.6,0.4-0.6,0.8v0.5
			c0,0.5,0.2,0.8,0.6,0.8h0.2v2.4h-4.8c-0.1,0-0.2,0.2-0.2,0.5c0,0.2,0.1,0.5,0.2,0.5h1.3v22.4h-0.7c-0.2,0-0.5,0.4-0.5,0.8
			c0,0.5,0.2,0.8,0.5,0.8h22.6c0.2,0,0.5-0.4,0.5-0.8c0-0.5-0.2-0.8-0.5-0.8h-0.7V32h1.3c0.1,0,0.2-0.2,0.2-0.5
			C234.4,31.2,234.3,31,234.2,31z M232.2,54.2h-19.9V32h3v18.7c0,1.2,0.6,2.1,1.4,2.1c0.7,0,1.4-1,1.4-2.1V32h3.1v18.7
			c0,1.2,0.6,2.1,1.4,2.1c0.7,0,1.4-1,1.4-2.1V32h3.1v18.7c0,1.2,0.6,2.1,1.4,2.1c0.7,0,1.4-1,1.4-2.1V32h2.4v22.3l0,0V54.2z"/>
		<path class="st3" d="M263.2,53.4l-5.5-13.3v-4.8c0.2,0,0.5-0.4,0.5-0.7v-0.1c0-0.4-0.2-0.7-0.5-0.7h-2.9c-0.2,0-0.5,0.4-0.5,0.7
			v0.1c0,0.4,0.2,0.7,0.5,0.7v4.8l-5.5,13.3c-0.5,1.1,0.1,2.5,1.1,2.5h5.8h5.8C263,55.9,263.6,54.5,263.2,53.4z"/>
		<path class="st1" d="M254.9,53.3l-5.5-13.8V29.1c0.2,0,0.5-0.4,0.5-0.7v-0.1c0-0.4-0.2-0.7-0.5-0.7h-2.9c-0.2,0-0.5,0.4-0.5,0.7
			v0.1c0,0.4,0.2,0.7,0.5,0.7v10.4L241,53.3c-0.5,1.2,0.1,2.7,1.1,2.7h6h6C254.8,55.9,255.3,54.5,254.9,53.3z"/>
		<path class="st4" d="M272.9,52.7l-6.1-17.2v-13c0.2,0,0.5-0.4,0.5-0.8v-0.4c0-0.5-0.2-0.8-0.5-0.8h-3.1c-0.2,0-0.5,0.4-0.5,0.8
			v0.4c0,0.5,0.2,0.8,0.5,0.8v12.9l-6.1,17.3c-0.5,1.5,0.1,3.3,1.1,3.3h6.6h6.6C272.9,55.9,273.4,54.1,272.9,52.7z"/>
	</g>
	<g>
		<g>
			<rect x="234.2" y="84.8" class="st5" width="2.9" height="27"/>
			<rect x="237.1" y="87.1" class="st6" width="2.1" height="24.8"/>
			<rect x="250.2" y="84.8" class="st7" width="2.9" height="27"/>
			<rect x="263.7" y="84.8" class="st5" width="2.9" height="27"/>
			<polygon class="st8" points="268.2,110.3 270,111.8 273.8,86.5 272,84.8 			"/>
			<rect x="258.6" y="91.1" class="st5" width="2.1" height="20.8"/>
			<rect x="257.2" y="86" class="st9" width="1.4" height="25.8"/>
			<rect x="248.1" y="87" class="st10" width="2.1" height="24.8"/>
			<rect x="253.1" y="89.9" class="st11" width="2.1" height="21.9"/>
			<rect x="255.2" y="87.8" class="st12" width="2.1" height="24"/>
			<rect x="260.8" y="82" class="st13" width="2.9" height="29.9"/>
			<polygon class="st14" points="243.6,110.6 242,111.8 239.2,88.1 240.9,86.8 			"/>
		</g>
	</g>
	<g>
		<path class="st15" d="M178.9,6.6v79.2c0,3.4-2.1,6.2-4.7,6.2H47c-2.6,0-4.7-2.8-4.7-6.2V6.6c0-3.4,2.1-6.2,4.7-6.2h127.1
			C176.9,0.4,178.9,3.2,178.9,6.6z"/>
		<g>
			<path class="st16" d="M155.5,67.6h-2.9v-7.1c0-1.1,0.6-1.9,1.5-1.9l0,0c0.9,0,1.5,0.9,1.5,1.9L155.5,67.6L155.5,67.6z"/>
			<path class="st16" d="M163.5,67.6h-3V56.3c0-1.1,0.6-1.9,1.5-1.9l0,0c0.9,0,1.5,0.9,1.5,1.9L163.5,67.6L163.5,67.6z"/>
			<path class="st16" d="M159.5,67.6h-2.9V51.9c0-1.1,0.6-1.9,1.5-1.9l0,0c0.9,0,1.5,0.9,1.5,1.9L159.5,67.6L159.5,67.6z"/>
			<path class="st16" d="M168.1,67.6h-2.9V46.8c0-1.1,0.6-1.9,1.5-1.9l0,0c0.9,0,1.5,0.9,1.5,1.9L168.1,67.6L168.1,67.6z"/>
			<path class="st16" d="M172.9,67.6H170V41.3c0-1.1,0.6-1.9,1.5-1.9l0,0c0.9,0,1.5,0.9,1.5,1.9L172.9,67.6L172.9,67.6z"/>
			<g>
				<g>
					<path class="st16" d="M151.2,53c-0.2,0-0.2-0.1-0.3-0.2c-0.2-0.2-0.2-0.6,0.1-0.9l6.6-7.3c0.2-0.2,0.4-0.2,0.5,0l3,3.1
						l7.8-11.3c0.2-0.2,0.5-0.2,0.6,0s0.2,0.6,0,0.9l-8.1,11.9c-0.2,0.2-0.4,0.2-0.6,0.1l-3-3.2l-6.3,7C151.5,53,151.4,53,151.2,53z
						"/>
				</g>
				<g>
					<g>
						<polygon class="st16" points="169.7,39.5 168.9,37.2 167.1,36.4 171.2,33.9 						"/>
					</g>
				</g>
			</g>
		</g>
		<g>
			<path class="st16" d="M120.1,45h-13.8c-9.7,0-17.7-7.9-17.7-17.7v-3.6c0-9.7,7.9-17.7,17.7-17.7h13.8c9.7,0,17.7,7.9,17.7,17.7
				v3.6C137.8,37.1,129.9,45,120.1,45z"/>
			<g>
				<path class="st17" d="M135.9,45.7h-4.7c-0.3,0-0.6-0.2-0.6-0.6c0-0.3,0.2-0.6,0.6-0.6h4.7c0.3,0,0.6,0.2,0.6,0.6
					C136.4,45.4,136.2,45.7,135.9,45.7L135.9,45.7z M126.2,45.7h-4.7c-0.3,0-0.6-0.2-0.6-0.6c0-0.3,0.2-0.6,0.6-0.6h4.7
					c0.3,0,0.6,0.2,0.6,0.6C126.9,45.5,126.5,45.7,126.2,45.7z M116.7,45.7H112c-0.3,0-0.6-0.2-0.6-0.6c0-0.3,0.2-0.6,0.6-0.6h4.7
					c0.3,0,0.6,0.2,0.6,0.6C117.3,45.5,117,45.7,116.7,45.7z M107.2,45.7h-4.7c-0.3,0-0.6-0.2-0.6-0.6c0-0.3,0.2-0.6,0.6-0.6h4.7
					c0.3,0,0.6,0.2,0.6,0.6C107.7,45.4,107.5,45.7,107.2,45.7z M97.5,45.7h-4.7c-0.3,0-0.6-0.2-0.6-0.6c0-0.3,0.2-0.6,0.6-0.6h4.7
					c0.3,0,0.6,0.2,0.6,0.6C98.2,45.5,97.9,45.7,97.5,45.7z M88.7,44.3c-0.2,0-0.5-0.2-0.5-0.5C88,43.5,88,43.2,88,43v-4.3
					c0-0.3,0.2-0.6,0.6-0.6c0.3,0,0.6,0.2,0.6,0.6V43c0,0.2,0,0.2,0.1,0.4c0.1,0.3-0.1,0.6-0.4,0.9C88.9,44.3,88.8,44.3,88.7,44.3z
					 M137.8,41.9c-0.3,0-0.6-0.2-0.6-0.6v-4.8c0-0.3,0.2-0.6,0.6-0.6c0.3,0,0.6,0.2,0.6,0.6v4.8C138.4,41.7,138.1,41.9,137.8,41.9z
					 M88.5,34.6c-0.3,0-0.6-0.2-0.6-0.6v-4.8c0-0.3,0.2-0.6,0.6-0.6c0.3,0,0.6,0.2,0.6,0.6v4.8C89.2,34.2,89,34.6,88.5,34.6z
					 M137.8,32.3c-0.3,0-0.6-0.2-0.6-0.6v-4.8c0-0.3,0.2-0.6,0.6-0.6c0.3,0,0.6,0.2,0.6,0.6v4.8C138.4,32,138.1,32.3,137.8,32.3z
					 M88.5,24.8c-0.3,0-0.6-0.2-0.6-0.6v-4.8c0-0.3,0.2-0.6,0.6-0.6c0.3,0,0.6,0.2,0.6,0.6v4.8C89.2,24.6,89,24.8,88.5,24.8z
					 M137.8,22.7c-0.3,0-0.6-0.2-0.6-0.6v-4.8c0-0.3,0.2-0.6,0.6-0.6c0.3,0,0.6,0.2,0.6,0.6V22C138.4,22.4,138.1,22.7,137.8,22.7z
					 M88.5,15.2c-0.3,0-0.6-0.2-0.6-0.6V9.7c0-0.3,0.2-0.6,0.6-0.6c0.3,0,0.6,0.2,0.6,0.6v4.8C89.2,15,89,15.2,88.5,15.2z
					 M137.8,12.9c-0.3,0-0.6-0.2-0.6-0.6V8c0-0.2,0-0.2-0.1-0.4c-0.1-0.3,0.1-0.6,0.4-0.9c0.3-0.1,0.6,0.1,0.7,0.4
					c0.1,0.2,0.1,0.5,0.1,0.7v4.3C138.4,12.6,138.1,12.9,137.8,12.9z M133.5,6.6h-4.7c-0.3,0-0.6-0.2-0.6-0.6c0-0.3,0.2-0.6,0.6-0.6
					h4.7c0.3,0,0.6,0.2,0.6,0.6C134.1,6.3,133.9,6.6,133.5,6.6z M124.1,6.6h-4.7c-0.3,0-0.6-0.2-0.6-0.6c0-0.3,0.2-0.6,0.6-0.6h4.7
					c0.3,0,0.6,0.2,0.6,0.6C124.6,6.3,124.4,6.6,124.1,6.6z M114.5,6.6h-4.7c-0.3,0-0.6-0.2-0.6-0.6c0-0.3,0.2-0.6,0.6-0.6h4.7
					c0.3,0,0.6,0.2,0.6,0.6C115.1,6.3,114.8,6.6,114.5,6.6z M104.9,6.6h-4.7c-0.3,0-0.6-0.2-0.6-0.6c0-0.3,0.2-0.6,0.6-0.6h4.7
					c0.3,0,0.6,0.2,0.6,0.6C105.6,6.3,105.2,6.6,104.9,6.6z M95.4,6.6h-4.7C90.4,6.6,90,6.4,90,6c0-0.3,0.2-0.6,0.6-0.6h4.7
					C95.7,5.3,96,5.5,96,6C95.9,6.3,95.7,6.6,95.4,6.6z"/>
			</g>
			<g>
				<g>
					<path class="st18" d="M100.6,20c0,0,3.3-5,3.5-5c0,0,3,0,4,0l2.2,5l-2.5,5.8c0,0.1,0,0.2,0,0.2l2.6,6.1c0,0.1,0.1,0.2,0.2,0.2
						h4.9l2.4,5.4c0,0.1,0.1,0.2,0.2,0.2h5.2c0.1,0,0.2-0.1,0.2-0.2l2.4-5.4h4.8c0.1,0,0.2-0.1,0.2-0.2l2.6-6.1c0-0.1,0-0.2,0-0.2
						l-2.4-5.5l3-5c0.2-0.2,0.2-0.6-0.1-0.9c-0.1-0.1-0.2-0.2-0.3-0.2s-0.2,0.1-0.3,0.2l-3,5h-4.9c-0.1,0-0.2,0.1-0.2,0.2L123,25
						h-4.5l-2.4-5.4c0-0.1-0.1-0.2-0.2-0.2h-4.7l-2.4-5.5c-0.1-0.2-0.2-0.3-0.4-0.3h-4.7l-3.9,5.6c-0.1,0.2-0.2,0.4-0.1,0.5
						c0,0.1,0.1,0.2,0.2,0.2C100.1,20.3,100.4,20.3,100.6,20z M130.3,30.9h-4.4l-2.2-5.1l2.1-5h4.4l2.2,5L130.3,30.9z M116.4,31.3
						l2.2-5h4.4l2,5.1l-2.1,5h-4.4L116.4,31.3z M108.9,25.8l2.2-5h4.4l2.2,5l-2.2,5h-4.4L108.9,25.8z"/>
					<path class="st18" d="M115.7,24.7c0.1-0.2,0.2-0.3,0.4-0.3c0.1,0,0.2,0,0.2,0.1c0.2,0.2,0.3,0.5,0.2,0.9l-1.9,4.6
						c-0.1,0.2-0.2,0.3-0.4,0.3c-0.1,0-0.2,0-0.2-0.1c-0.2-0.2-0.3-0.5-0.2-0.9L115.7,24.7z"/>
					<path class="st18" d="M128.9,29.3l1.9-4.5c0.1-0.2,0.2-0.3,0.4-0.3c0.1,0,0.2,0,0.2,0.1c0.2,0.2,0.3,0.5,0.2,0.9l-1.9,4.5
						c-0.1,0.2-0.2,0.3-0.4,0.3c-0.1,0-0.2,0-0.2-0.1C128.9,30,128.8,29.5,128.9,29.3z"/>
				</g>
				<g>
					<path class="st18" d="M94.4,22v-2.4c0-0.2,0.2-0.5,0.4-0.5s0.4,0.2,0.4,0.5v3.7c0,0.3-0.2,0.5-0.4,0.5c-0.2,0-0.3-0.2-0.4-0.4
						l-1.5-2.5v2.4c0,0.2-0.2,0.5-0.4,0.5c-0.2,0-0.4-0.2-0.4-0.5v-3.7c0-0.3,0.2-0.5,0.4-0.5s0.2,0.1,0.5,0.4L94.4,22z"/>
					<path class="st18" d="M98.2,19.7c0-0.2,0.2-0.5,0.4-0.5c0.2,0,0.4,0.2,0.4,0.5v3.9c0,0.2-0.2,0.5-0.4,0.5
						c-0.2,0-0.4-0.2-0.4-0.5V22H97v1.5c0,0.2-0.2,0.5-0.4,0.5c-0.2,0-0.4-0.2-0.4-0.5v-3.9c0-0.2,0.2-0.5,0.4-0.5s0.4,0.2,0.4,0.5
						v1.4h1.3L98.2,19.7L98.2,19.7z"/>
					<path class="st18" d="M101.1,23.7c0.4,0.1,0.6,0.5,0.6,1.1c0,0.4-0.1,0.7-0.3,1c-0.2,0.2-0.5,0.4-0.9,0.4
						c-0.4,0-0.6-0.1-0.9-0.4c-0.2-0.2-0.2-0.5-0.1-0.6c0.2-0.2,0.3-0.2,0.5-0.1c0.2,0.1,0.2,0.2,0.4,0.2s0.4-0.2,0.4-0.4
						c0-0.3-0.2-0.5-0.5-0.5c-0.2,0-0.4-0.2-0.4-0.5c0-0.3,0.2-0.5,0.4-0.5s0.3-0.2,0.3-0.5c0-0.2-0.1-0.4-0.3-0.4
						c-0.2,0-0.2,0-0.3,0.1c-0.2,0.2-0.4,0.1-0.5-0.2c-0.1-0.2-0.1-0.4,0.1-0.6c0.2-0.2,0.5-0.3,0.9-0.3c0.3,0,0.5,0.1,0.7,0.3
						c0.2,0.2,0.2,0.5,0.2,0.9C101.6,23.2,101.4,23.5,101.1,23.7z"/>
				</g>
			</g>
		</g>
		<g>
			<path class="st16" d="M62.5,48.5h-4.9c-7,0-12.6-5.7-12.6-12.6v-2.6c0-7,5.7-12.6,12.6-12.6h4.9c7,0,12.6,5.7,12.6,12.6v2.6
				C75.2,42.9,69.5,48.5,62.5,48.5z"/>
			<path class="st19" d="M68.7,30.1H48.5c-1.1,0-1.9-0.9-1.9-1.9v-0.4c0-1.1,0.9-1.9,1.9-1.9h20.1c1.1,0,1.9,0.9,1.9,1.9v0.5
				C70.7,29.3,69.7,30.1,68.7,30.1z"/>
			<path class="st19" d="M60.2,35.5H47.7c-0.5,0-1-0.4-1-1v-0.2c0-0.5,0.4-1,1-1h12.5c0.5,0,1,0.4,1,1v0.2
				C61.1,35.2,60.7,35.5,60.2,35.5z"/>
			<path class="st19" d="M56.1,44h-8.5c-0.5,0-1-0.4-1-1v-0.2c0-0.5,0.4-1,1-1h8.5c0.5,0,1,0.4,1,1V43C57,43.5,56.5,44,56.1,44z"/>
			<path class="st19" d="M63.2,39.6H47.7c-0.5,0-1-0.4-1-1v-0.2c0-0.5,0.4-1,1-1h15.6c0.5,0,1,0.4,1,1v0.2
				C64.1,39,63.8,39.6,63.2,39.6z"/>
		</g>
		<g>
			<g>
				<path class="st20" d="M74.6,25.7c-0.2,0-0.5,0-0.6-0.1c-3.6-0.5-6.3-4.8-5.9-9.6c0.1-0.9,0.6-1.5,1.2-1.4
					c0.6,0.1,1.1,0.9,1.1,1.7c-0.2,3.1,1.5,6,3.9,6.3c1.2,0.2,2.2-0.3,3.2-1.2c0.9-1,1.5-2.4,1.6-3.9c0.2-3.1-1.5-6-3.9-6.3
					c-0.9-0.1-1.7,0.1-2.5,0.6c-0.5,0.4-1.2,0.1-1.6-0.6c-0.3-0.7-0.1-1.6,0.5-2c1.2-0.9,2.5-1.2,3.7-1c3.6,0.5,6.3,4.8,5.9,9.6
					c-0.2,2.4-1.1,4.4-2.4,5.9C77.6,25,76.1,25.7,74.6,25.7z"/>
			</g>
			<path class="st20" d="M76.7,16.9c0,1.6-0.9,2.8-2,2.8s-2-1.2-2-2.8c0-1.6,0.9-2.8,2-2.8S76.7,15.3,76.7,16.9z"/>
		</g>
		<g>
			<path class="st16" d="M112.5,73h-1.6c-5.6,0-10.1-4.5-10.1-10.1v-2c0-5.6,4.5-10.1,10.1-10.1h1.6c5.6,0,10.1,4.5,10.1,10.1v2
				C122.6,68.5,118.1,73,112.5,73z"/>
			<path class="st17" d="M105.2,76.9h-1.5c-5.4,0-9.8-4.4-9.8-9.8v-2c0-5.4,4.4-9.8,9.8-9.8h1.5c5.4,0,9.8,4.4,9.8,9.8v2
				C115,72.7,110.7,76.9,105.2,76.9z"/>
			<path class="st21" d="M96.4,59.8l-4.2-5.6H81.4c-0.2,0-0.2-0.2-0.2-0.3c0-0.2,0.1-0.3,0.2-0.3h11.1l4.4,5.8
				c0.1,0.2,0.1,0.4,0,0.5C96.7,59.9,96.5,59.9,96.4,59.8z"/>
			<path class="st21" d="M88.4,52.4h-7.2c-0.2,0-0.2-0.2-0.2-0.3c0-0.2,0.1-0.3,0.2-0.3h7.2c0.2,0,0.2,0.2,0.2,0.3
				C88.7,52.2,88.5,52.4,88.4,52.4z"/>
			<path class="st21" d="M93.4,82.1l4.4-0.2l3.6-5.1c0.1-0.2,0.1-0.4,0-0.5s-0.2-0.1-0.2-0.1c-0.1,0-0.2,0-0.2,0.1l-3.5,4.9
				l-4.1,0.2c-0.2,0-0.2,0.2-0.2,0.4C93.2,81.9,93.3,82.1,93.4,82.1z"/>
			<g>
				<path class="st22" d="M96,66.6c0,2,0.5,4,1.3,5.5l0,0C96.5,70.4,96,68.5,96,66.6z"/>
				<path class="st22" d="M104.3,57c0.2,0,0.4,0.1,0.5,0.2C104.7,57.1,104.5,57.1,104.3,57z"/>
				<path class="st22" d="M101,75.6C101,75.6,100.9,75.6,101,75.6s0.3,0.1,0.5,0.2h-0.1C101.2,75.7,101.1,75.6,101,75.6z"/>
				<path class="st22" d="M100.3,75.2c-0.1-0.1-0.2-0.1-0.2-0.2c0.2,0.2,0.4,0.2,0.6,0.4c0,0-0.1,0-0.1-0.1
					C100.4,75.2,100.3,75.2,100.3,75.2z"/>
				<path class="st22" d="M105.9,57.6c0.2,0.2,0.5,0.2,0.6,0.4C106.3,57.8,106.1,57.8,105.9,57.6z"/>
				<path class="st23" d="M108.2,66.6h2.2c0-3.6-1.6-6.7-3.9-8.5l-1.1,2.6C107.2,61.7,108.2,64,108.2,66.6z"/>
				<path class="st22" d="M103.2,56.9c-4,0-7.2,4.3-7.2,9.5C96,61.3,99.4,56.9,103.2,56.9z"/>
				<path class="st22" d="M105.1,57.2c0.2,0.1,0.4,0.2,0.5,0.2C105.6,57.5,105.2,57.4,105.1,57.2z"/>
				<path class="st22" d="M103.2,56.9c0.2,0,0.5,0,0.9,0.1C103.9,56.9,103.5,56.9,103.2,56.9z"/>
				<path class="st22" d="M99.9,74.9c-0.2-0.2-0.5-0.3-0.7-0.5C99.4,74.6,99.7,74.8,99.9,74.9z"/>
				<path class="st22" d="M99.1,74.4c-0.2-0.2-0.4-0.4-0.5-0.5C98.7,73.9,98.9,74.2,99.1,74.4z"/>
				<path class="st22" d="M103.2,76.1c4,0,7.2-4.3,7.2-9.5C110.5,71.8,107.2,76.1,103.2,76.1z"/>
				<path class="st22" d="M102.5,76c0.2,0,0.5,0.1,0.9,0.1C103,76.1,102.7,76,102.5,76L102.5,76z"/>
				<path class="st22" d="M101.7,75.9C101.6,75.9,101.6,75.9,101.7,75.9c0.2,0.1,0.3,0.1,0.5,0.2c0,0,0,0-0.1,0
					C102,76,101.8,75.9,101.7,75.9z"/>
				<path class="st22" d="M97.9,72.8c-0.2-0.2-0.2-0.4-0.4-0.6C97.5,72.3,97.6,72.6,97.9,72.8z"/>
				<path class="st22" d="M98.4,73.5c-0.2-0.2-0.2-0.3-0.4-0.5C98.1,73.2,98.3,73.4,98.4,73.5z"/>
				<path class="st24" d="M105.7,57.5c0.1,0,0.2,0.1,0.2,0.1C105.9,57.6,105.8,57.5,105.7,57.5z"/>
				<path class="st24" d="M104.9,57.1c0.1,0,0.2,0.1,0.2,0.1C105,57.2,104.9,57.1,104.9,57.1z"/>
				<path class="st24" d="M106.6,58.1C106.6,58,106.6,58,106.6,58.1C106.6,58,106.6,58,106.6,58.1L106.6,58.1z"/>
				<path class="st24" d="M104.1,57c0.1,0,0.2,0,0.2,0.1C104.2,57,104.2,57,104.1,57z"/>
				<path class="st24" d="M101,75.6c0.2,0.1,0.2,0.1,0.4,0.2C101.2,75.7,101.1,75.6,101,75.6z"/>
				<path class="st24" d="M103.2,76.1c-0.2,0-0.5,0-0.9-0.1C102.7,76,103,76.1,103.2,76.1z"/>
				<path class="st18" d="M99.1,70.3c-3-5.6,1.9-13,6.4-9.6l1.1-2.6C100.1,53.4,93,64,97.4,72L99.1,70.3z"/>
				<path class="st24" d="M100.3,75.2c0.1,0.1,0.2,0.1,0.2,0.2C100.4,75.2,100.3,75.2,100.3,75.2z"/>
				<path class="st24" d="M101.7,75.9c0.2,0.1,0.3,0.1,0.5,0.2C102,76,101.8,75.9,101.7,75.9z"/>
				<path class="st25" d="M98,73c-0.1-0.1-0.1-0.2-0.2-0.2C97.9,72.8,97.9,72.9,98,73z"/>
				<path class="st25" d="M98.6,73.8c-0.1-0.1-0.1-0.2-0.2-0.2C98.4,73.6,98.5,73.7,98.6,73.8z"/>
				<path class="st25" d="M99.1,74.4L99.1,74.4L99.1,74.4z"/>
				<path class="st25" d="M102.5,76c-0.1,0-0.2,0-0.2-0.1C102.2,76,102.4,76,102.5,76z"/>
				<path class="st25" d="M100,75L100,75L100,75z"/>
				<path class="st25" d="M101.6,75.8c-0.1,0-0.2-0.1-0.2-0.1C101.4,75.8,101.5,75.8,101.6,75.8z"/>
				<path class="st25" d="M100.8,75.6c-0.1,0-0.2-0.1-0.2-0.1C100.8,75.4,100.8,75.4,100.8,75.6z"/>
				<path class="st25" d="M97.3,72c0,0.1,0.1,0.1,0.1,0.2C97.4,72.1,97.3,72,97.3,72L97.3,72z"/>
				<path class="st25" d="M97.3,72L97.3,72c0,0.1,0.1,0.1,0.1,0.2c0.1,0.2,0.2,0.4,0.4,0.6c0.1,0.1,0.1,0.2,0.2,0.2
					c0.2,0.2,0.2,0.3,0.4,0.5c0.1,0.1,0.1,0.2,0.2,0.2c0.2,0.2,0.4,0.4,0.5,0.5c0,0,0,0,0.1,0.1c0.2,0.2,0.5,0.4,0.7,0.5l0.1,0.1
					c0.1,0.1,0.2,0.1,0.2,0.2C99,74.5,98.1,73.4,97.3,72z"/>
				<path class="st25" d="M102.1,76L102.1,76c0.1,0,0.2,0.1,0.2,0.1l0,0C102.4,76,102.2,76,102.1,76z"/>
				<path class="st25" d="M100.5,75.3C100.5,75.3,100.6,75.3,100.5,75.3c0.2,0.1,0.2,0.2,0.2,0.2s0.1,0,0.1,0.1
					C100.8,75.4,100.6,75.4,100.5,75.3z"/>
				<path class="st25" d="M101.3,75.7C101.4,75.7,101.4,75.7,101.3,75.7c0.2,0.1,0.2,0.1,0.3,0.1c0,0,0,0,0.1,0
					C101.5,75.8,101.4,75.8,101.3,75.7z"/>
				<path class="st26" d="M110.5,66.6h-2.2c0.1,6.4-6.4,9.1-9.1,3.9L97.3,72C101.3,79.6,110.5,75.7,110.5,66.6z"/>
			</g>
		</g>
	</g>
	<path class="st16" d="M240.2,131.2c-1.6,0.7-3.1-0.5-3.6-3c-0.5-2.4,0.4-4.9,1.8-5.7c1.6-0.7,3.1,0.5,3.6,3
		C242.6,127.9,241.8,130.5,240.2,131.2L240.2,131.2z M240.8,133.7c2.4-1.2,3.7-5.4,3-9.1c-0.7-3.7-3.2-5.8-5.7-4.7
		c-2.4,1.2-3.7,5.4-3,9.1C235.8,132.8,238.4,134.9,240.8,133.7L240.8,133.7z"/>
	<g>
		<g id="с_16_">
			<path id="с_23_" class="st27" d="M207.9,260.8h-0.1c-1.1,0-1.9-0.9-1.9-1.9v-53.2h3.9v53.2C209.8,260,209,260.8,207.9,260.8z"/>
			<path id="с_22_" class="st27" d="M221.7,260.8h-0.1c-1.1,0-1.9-0.9-1.9-1.9v-53.2h3.9v53.2C223.7,260,222.8,260.8,221.7,260.8z"
				/>
			<path id="с_21_" class="st27" d="M241.8,257.8c0,1.7-0.9,3-1.9,3l0,0c-1.1,0-1.9-1.3-1.9-3v-52.2h3.9V257.8z"/>
			<path id="с_20_" class="st27" d="M253.8,260.8h-0.1c-1.1,0-1.9-0.9-1.9-1.9v-53.2h3.9v53.2C255.6,260,254.9,260.8,253.8,260.8z"
				/>
			<path id="с_19_" class="st28" d="M231.9,123v66.5c0,0.7-0.4,1.4-0.9,1.4h-25.8c-2.6,0-4.7,3.3-4.7,7.5l0,0c0,4.2,2,7.5,4.7,7.5
				h26.7h4.7c2.6,0,4.7-3.3,4.7-7.5v-7.5v-67.8c0-4.2-2-7.5-4.7-7.5l0,0C234,115.4,231.9,118.8,231.9,123z"/>
			<rect id="с_18_" x="236.7" y="115.4" class="st28" width="20.4" height="76.5"/>
			<path id="с_17_" class="st27" d="M252.3,123v66.5c0,0.7-0.4,1.4-0.9,1.4h-25.8c-2.6,0-4.7,3.3-4.7,7.5l0,0c0,4.2,2,7.5,4.7,7.5
				h26.7h4.7c2.6,0,4.7-3.3,4.7-7.5v-7.5v-67.8c0-4.2-2-7.5-4.7-7.5l0,0C254.4,115.4,252.3,118.8,252.3,123z"/>
		</g>
		<g id="c_35_">
			<path class="st29" d="M220.1,112.7c-5.1,2.5-7.8,19.9-10,38.2c-3,6.2-6.2,9.7-10.9,17.1c3.2,1.2,6.4-0.2,6.4-0.2s8.7,0.1,12.4-13
				c0.9-3,1.2-8.9,1.7-11.7C220.1,134.9,220.1,112.7,220.1,112.7z"/>
			<path class="st30" d="M189.8,251.7l-4.7,1.9l-1.9-6.6c0.2-0.2,0.5-4.7,0.6-8l7.5,1.7C190.9,244.1,190.5,248.5,189.8,251.7z"/>
			<g>
				<g>
					<path class="st31" d="M181.5,255.8c0,0-1.7-4.4-3.6-4.7c0,0-3.9,0.4-5.1,3c-0.4,0.7-0.2,2.6-0.1,3.6c0.1,0.6,0.5,1.4,1.7,2
						c1.7,0.9,4.1,1.4,8.1-0.4c5-2,5.8-1.2,7.6-2.2c1.9-1.1,1.3-4.8,0.7-8.5C190.7,248.9,189.4,253.4,181.5,255.8z"/>
				</g>
				<g>
					<g>
						<path class="st21" d="M183.1,246.5c0,0-2.2,2.2-5.1,3.2c-1.7,0.6-6.1,1.9-5.4,6.6c0.1,0.6,0.5,1.4,1.7,2
							c1.7,0.9,4.1,1.4,8.1-0.4c5-2,5.8-1.2,7.6-2.2c1.9-1.1,1.1-5.4,0.5-8.9l0,0c0,0.9-0.2,3.3-3.7,5.6
							C185.6,253.1,186.5,245.8,183.1,246.5z"/>
					</g>
				</g>
				<g>
					<path class="st32" d="M183.7,252.1c-0.1,0-0.2-0.2-0.4-0.5c-0.4-2.4-1.8-2.5-1.9-2.5c-0.2,0-0.4-0.2-0.4-0.6
						c0-0.4,0.2-0.6,0.4-0.6c0.7,0,2.2,0.9,2.6,3.3C184,251.5,183.9,252,183.7,252.1L183.7,252.1z"/>
				</g>
				<g>
					<path class="st32" d="M181.8,253.2c-0.1,0-0.2-0.2-0.4-0.5c-0.4-2.4-1.8-2.5-1.9-2.5c-0.2,0-0.4-0.2-0.4-0.6
						c0-0.4,0.2-0.6,0.4-0.6c0.7,0,2.2,0.9,2.6,3.3C182.2,252.8,182.1,253.1,181.8,253.2C181.9,253.2,181.9,253.2,181.8,253.2z"/>
				</g>
			</g>
			<path class="st30" d="M208,254.6l-4.5,2.5l-2.2-6.4c0.1-0.2,0.9-4.9,0.9-8.2l7.2,1.1C209,246.7,208.5,251.3,208,254.6z"/>
			<path class="st31" d="M215.7,171.4c-10.5,3.1-25.3,13.8-26.8,16.3c-3,5-4.5,22.6-6,53.6l9.2,1.1c3.3-24.3,6.6-34.8,7.2-44.9
				c0,0,8,0.9,20.1-6.6c6-3.6,12.2-7.9,10.4-16.5C228.2,167.6,225.7,168.4,215.7,171.4z"/>
			<path class="st21" d="M227.3,172.7c-8.7,1.4-20.3,17.3-21.7,19.8c-3,5-3.3,22.4-4.8,53.5l9.1,1.3c1.4-16.1,5.8-34.6,5.8-46.4
				c0,0,8.1-2.9,20.8-7.4c6.9-2.5,8.9-4.2,10.4-11.3c0.4-2.5,1.1-8.1,0.4-9.3C244,167.4,235.5,171.5,227.3,172.7z"/>
			<g>
				<g>
					<path class="st31" d="M199.9,259.5c0,0-1.8-4.2-3.9-4.2c0,0-3.9,0.7-5,3.5c-0.4,0.9-0.1,2.6,0.1,3.6c0.1,0.6,0.5,1.4,1.7,1.8
						c1.7,0.6,4.1,0.9,8.1-1.3c4.9-2.6,5.8-1.9,7.6-3c1.9-1.2,1.1-4.9,0.4-8.6C209,251.5,207.7,256.2,199.9,259.5z"/>
				</g>
				<g>
					<g>
						<path class="st21" d="M201.1,249.9c0,0-2.2,2.5-5,3.9c-1.6,0.7-6,2.6-5,7.3c0.1,0.6,0.5,1.4,1.7,1.8c1.7,0.6,4.1,0.9,8.1-1.3
							c4.9-2.6,5.8-1.9,7.6-3c1.9-1.2,0.7-5.4,0.1-8.9l0,0c0,0.9-0.1,3.3-3.6,6C204,256.3,204.5,249,201.1,249.9z"/>
					</g>
				</g>
				<g>
					<path class="st32" d="M202.8,255.8c-0.1,0-0.2-0.2-0.4-0.5c-0.4-2.4-1.8-2.5-1.9-2.5c-0.2,0-0.4-0.2-0.4-0.6
						c0-0.4,0.2-0.6,0.4-0.6c0.7,0,2.2,0.9,2.6,3.3C203.2,255.3,203.1,255.7,202.8,255.8C202.9,255.8,202.8,255.8,202.8,255.8z"/>
				</g>
				<g>
					<path class="st32" d="M200.9,257c-0.1,0-0.2-0.2-0.4-0.5c-0.4-2.4-1.8-2.5-1.9-2.5c-0.2,0-0.4-0.2-0.4-0.6
						c0-0.4,0.2-0.6,0.4-0.6c0.7,0,2.2,0.9,2.6,3.3C201.3,256.5,201.2,256.9,200.9,257L200.9,257z"/>
				</g>
			</g>
			<g>
				<polygon id="v-2_6_" class="st30" points="233.1,98.7 233.1,98.7 229.5,98.7 228.8,111.8 232.8,115.2 237.1,111.8 236.5,98.7 
									"/>
				<g>
					<g>
						<path class="st21" d="M233.4,96.9c3.1,1.4,5.4-4.5,5.4-4.5c1.9,0,1.9-3.1,1.9-3.1c0.9-0.2,2.4-1.4,2.2-4.3
							c-0.1-2.5-1.6-2.7-1.4-5.5c0.1-2.2,1.6-7.4-2.7-8.8c0,0,0.2-4.2-2.2-5.7c-3.1-1.9-4.3,0.9-5.7,1.1c-1.7,0.2-4.8-3-5.8,2.7
							c0,0-2.2-0.5-3.5,1.9c-1.2,2.2-0.9,5.5-0.4,6.7c0,0-1.9,0.5-2.6,3.1c-0.5,1.8-0.2,4.3,0.7,5.7c0.6,0.9,1.3,1.2,1.3,1.2
							c0.7,0.4,0.5,3.5,1.1,4.3c0.9,1.3,2,2.2,3.1,3.1L233.4,96.9z"/>
						<path class="st30" d="M239.1,89.1c-0.2,9.2-4.7,17.1-9.2,16.8c-4.5-0.2-7.4-8.6-7.2-17.8c0.2-9.2,4.1-16.3,8.6-16.2
							C235.7,72.4,239.3,79.9,239.1,89.1z"/>
						<path d="M225.3,91.6c-0.1,0.6-0.5,1.1-0.9,0.9c-0.3-0.2-0.6-0.9-0.5-1.6c0.1-0.7,0.5-1.1,0.9-0.9
							C225.2,90.2,225.5,91,225.3,91.6z"/>
						<path d="M231.9,91.2c-0.1,0.7-0.6,1.2-1.1,0.9c-0.4-0.1-0.7-0.9-0.6-1.7c0.1-0.9,0.6-1.2,1.1-0.9
							C231.8,89.8,232,90.4,231.9,91.2z"/>
						<path class="st33" d="M227.8,91.5c-0.7,1.8-1.7,4.1-1.7,4.1s0.4,1.9,2,1.9c-0.6-0.4-1.3-1.2-1.1-2.6
							C227.5,93.5,227.8,91.5,227.8,91.5z"/>
						<g>
							<path class="st21" d="M232.6,88.6L232.6,88.6c0.2-0.2,0.2-0.6,0.2-0.9c-0.2-0.7-1.3-2-2.4-1.4c-0.2,0.1-0.2,0.5-0.2,0.7
								c0.1,0.4,0.2,0.5,0.5,0.4c0.7-0.5,1.4,0.9,1.4,1.1C232.2,88.6,232.5,88.7,232.6,88.6z"/>
						</g>
						<g>
							<path class="st21" d="M225.1,88.2l0.1-0.1c0.1-0.2,0.1-0.5,0-0.7c0,0-0.5-0.6-1.2-0.5c-0.4,0.1-0.7,0.5-1.2,1.4
								c-0.1,0.2,0,0.5,0.1,0.7c0.1,0.1,0.4,0.1,0.4-0.1c0.2-0.5,0.4-0.7,0.6-0.9c0.4-0.1,0.6,0.2,0.6,0.2
								C224.8,88.4,225,88.4,225.1,88.2z"/>
						</g>
						<path class="st21" d="M221.4,79.2l9.6-10.1l10,11.3l-2.5,12.2c0.2-5.8-2-4.5-3.1-6.4c-1.1-1.9-1.3-4.8-4.2-3.1
							c0,0-1.9-3-3.5,0.1c-1.2,2.5-2.4,1.7-3.5,1.6c-1.4-0.1-1.3,2-2,1.8L221.4,79.2z"/>
						<g>
							<path class="st30" d="M237.8,88.5c-0.9,1.7-0.9,3.9-0.1,5c0.7,1.2,2.2,0.7,3.1-0.9c0.9-1.7,0.9-3.9,0.1-5
								C240,86.5,238.7,86.8,237.8,88.5z"/>
							<g>
								<path class="st33" d="M238.9,92.7C238.8,92.7,238.8,92.7,238.9,92.7c-0.6-0.7-0.7-1.8-0.5-2.6c0.2-0.9,0.9-1.4,1.4-1.3
									c0.1,0,0.2,0.2,0.2,0.5c0,0.2-0.1,0.4-0.4,0.4s-0.6,0.2-0.7,0.7c-0.1,0.5,0,1.1,0.2,1.4c0.1,0.1,0.1,0.5,0,0.6
									C239.1,92.7,239.1,92.8,238.9,92.7z"/>
							</g>
						</g>
						<path class="st16" d="M226.5,101c-0.1-0.2,0-0.6,0.1-0.6c0.5,0,1.6,0,2.5-0.1c0.9-0.1,1.8-0.5,2.5-0.6
							c0.2-0.1,0.4,0.2,0.2,0.6c-0.4,1.1-1.2,2.5-2.5,2.7C227.9,103,227,101.8,226.5,101z"/>
						<g>
							<g>
								<path d="M230.8,94c-1.1,0-1.9-1.1-2-2.5c-0.1-0.7,0.1-1.7,0.4-2.4c0.4-0.6,0.9-1.2,1.4-1.3s1.2,0,1.7,0.5
									c0.5,0.5,0.7,1.2,0.9,1.9c0.1,1.7-0.6,3.2-1.9,3.6C231,94,230.9,94,230.8,94z M231,88.5c-0.1,0-0.2,0-0.4,0
									c-0.5,0.1-0.9,0.5-1.2,1.1c-0.2,0.5-0.4,1.2-0.4,1.7c0.1,1.3,1.1,2,1.9,1.8c0.9-0.2,1.7-1.4,1.6-2.7c0-0.6-0.2-1.2-0.6-1.4
									C231.8,88.7,231.3,88.5,231,88.5z"/>
							</g>
							<g>
								<path d="M224.8,94.3c-0.1,0-0.2,0-0.4,0c-0.6-0.1-1.2-0.6-1.4-1.3c-0.4-0.6-0.5-1.6-0.4-2.4c0.1-1.7,1.3-2.9,2.6-2.5
									c0.6,0.1,1.2,0.6,1.4,1.3c0.4,0.6,0.5,1.6,0.4,2.4l0,0c-0.1,0.7-0.4,1.6-0.9,2C225.8,94.2,225.2,94.3,224.8,94.3z
									 M224.6,88.8c-0.7,0-1.6,0.7-1.7,1.8c0,0.6,0,1.2,0.4,1.7c0.2,0.5,0.6,0.9,1.2,1.1c0.5,0.1,0.9,0,1.3-0.4
									c0.4-0.4,0.6-0.9,0.6-1.4l0,0c0-0.6,0-1.2-0.4-1.7c-0.2-0.5-0.6-0.9-1.2-1.1C224.8,88.8,224.7,88.8,224.6,88.8z"/>
							</g>
							<g>
								<rect x="226.6" y="90.4" width="2.2" height="0.7"/>
							</g>
							<g>
								<path d="M232.8,90.6c-0.1,0-0.2-0.1-0.2-0.4c0-0.2,0.1-0.4,0.2-0.4c0.2-0.1,3.1-1.4,5-2.4c0.1,0,0.2,0,0.2,0.2
									c0,0.2,0,0.4-0.1,0.5C233.1,90.6,232.8,90.6,232.8,90.6L232.8,90.6z M232.8,89.9L232.8,89.9L232.8,89.9z"/>
							</g>
						</g>
					</g>
				</g>
			</g>
			<g id="v_6_">
				<path class="st34" d="M247,173.2c0,0-7.3,1.2-14.1,1.3c-6.9-0.1-14.1-2.2-14.1-2.2s0.9-19.9,0.7-27.6c-0.1-8.8,0.4-20.4,0.4-32
					c0,0,4.8-1.3,7.5-1.8c0.4-0.1,0.7-0.1,1.2-0.2c0,0,1.6,5.1,8.2,0c0.4,0,0.7,0,1.3,0c2.9,0.2,7.4,1.9,7.4,1.9
					c0,11.6,0.2,22.9,0.2,31.7C246.2,152.2,247,173.2,247,173.2z"/>
			</g>
			<path class="st35" d="M227.5,110.9c-0.1,1.2-5.7,62-5.7,62l-2.7-0.6l1.2-59.6C220.1,112.7,223.4,111,227.5,110.9z"/>
			<path class="st35" d="M245.8,112.7c0,0-2.9-1.4-7.4-1.9c0,0.5-3.1,90.8-3.1,90.8l14.3-1.8L245.8,112.7z"/>
			<g id="c_36_">
				<path class="st30" d="M229.1,137.7l-1.7-1.6c0,0-0.5-3.7-3.1-3.7c0.2,1.6,0.7,3.7,0.7,3.7s-1.3,1.6-4.4-1.2
					c-3-1.1-1.7,2.5-2.7,2.7c-1.4,0.4,1.1,5,4.2,5.7c3.9,0.9,4.4-0.4,4.4-0.4l2.2,1.2L229.1,137.7z"/>
				<path id="c_37_" class="st29" d="M244.4,141.7c-5.5-0.6-14.9-4.9-14.9-4.9c-1.6,3.6-1.1,8.6-1.1,8.6c8.6,11.9,21.4,15.8,25.4,13
					c3.6-2.6,1.1-37.6-8-45.6h-0.2C242.4,121,244.4,141.7,244.4,141.7z"/>
			</g>
			<path class="st36" d="M238.3,110.7L238.3,110.7c-0.5,1.3-1.2,2.2-2,3c-1.4,1.2-3.5,1.7-4.8,1.6c-1.1-0.1-2-0.7-2.7-1.7
				c-0.7-0.9-1.1-2.2-1.2-2.6c0.4-0.1,0.9-0.2,1.2-0.2c0,0,1.4,5.1,8.2,0C237.4,110.7,238,110.7,238.3,110.7z"/>
		</g>
		<g>
			<path class="st37" d="M35,260.8h-0.1c-1.2,0-2-0.9-2-2v-84.6c0-1.2,0.9-2,2-2H35c1.2,0,2,0.9,2,2v84.6
				C37.2,259.8,36.2,260.8,35,260.8z"/>
			<path class="st37" d="M271.9,260.8h-0.1c-1.2,0-2-0.9-2-2v-84.6c0-1.2,0.9-2,2-2h0.1c1.2,0,2,0.9,2,2v84.6
				C274.1,259.8,273,260.8,271.9,260.8z"/>
			<path class="st38" d="M275,174.5H28.3c-1.4,0-2.6-1.8-2.6-4.1l0,0c0-2.2,1.2-4.1,2.6-4.1H275c1.4,0,2.6,1.8,2.6,4.1l0,0
				C277.6,172.6,276.4,174.5,275,174.5z"/>
		</g>
		<g>
			<path class="st23" d="M222.2,166.4h-29.1l-5.7-29.1c-0.2-1.3,0.4-2.7,1.3-2.7h26.3c0.5,0,1.1,0.6,1.3,1.4L222.2,166.4z"/>
			<path class="st18" d="M220.1,166.4H191l-5.7-29.1c-0.2-1.3,0.4-2.7,1.3-2.7h26.3c0.5,0,1.1,0.6,1.3,1.4L220.1,166.4z"/>
			<path class="st39" d="M203,151c0.2,1.8-0.2,3.6-1.3,4.2c-1.1,0.5-2-0.6-2.5-2.5c-0.2-1.8,0.2-3.6,1.3-4.2
				C201.6,148.2,202.5,149.3,203,151z"/>
			<path class="st23" d="M238.8,163.3h-18.7v3h20.6l0,0C240.7,164.7,239.9,163.3,238.8,163.3z"/>
		</g>
	</g>
</g>
<g>
	<g>
		<g>
			<g>
				<g>
					<path class="st40" d="M171.9,138.5h-11.1V138c0-2.9,2.4-5,5-5h0.9c2.9,0,5,2.4,5,5v0.5H171.9z"/>
					<path class="st41" d="M169.7,132.9h-6.9c-0.7,0-1.4,0.4-1.7,0.9c2,1.2,3.9,2.7,5.5,4.7h5.4V135
						C171.9,133.8,170.9,132.9,169.7,132.9z"/>
				</g>
				<g>
					<path class="st42" d="M170.9,140.5h-9.1c-1.2,0-2-0.9-2-2l0,0c0-1.2,0.9-2,2-2h9.1c1.2,0,2,0.9,2,2l0,0
						C172.8,139.7,171.9,140.5,170.9,140.5z"/>
					<g class="st43">
						<path class="st44" d="M160.4,137.9c0.4-0.1,0.7-0.2,1.1-0.2c0.4-0.1,0.7-0.1,1.1-0.1c0.4,0,0.7,0,1.1,0.1
							c0.4,0,0.7,0.1,1.1,0.2c-0.4,0.1-0.7,0.2-1.1,0.2c-0.4,0-0.7,0.1-1.1,0.1c-0.4,0-0.7,0-1.1-0.1
							C161,138.1,160.6,138,160.4,137.9z"/>
					</g>
					<path class="st45" d="M171.3,136.4h-6.6c1.3,1.2,2.4,2.6,3.2,4.1h3.3c0.9,0,1.6-0.6,1.6-1.6V138
						C172.8,137.2,172.1,136.4,171.3,136.4z"/>
				</g>
				<g>
					<path class="st46" d="M167.8,166.3h-2.4c-7,0-12.8-5.7-12.8-12.8v-2.4c0-7,5.7-12.8,12.8-12.8h2.4c7,0,12.8,5.7,12.8,12.8v2.4
						C180.4,160.7,174.7,166.3,167.8,166.3z"/>
					<ellipse class="st44" cx="166.6" cy="152.2" rx="7.5" ry="3.2"/>
					<ellipse class="st40" cx="166.6" cy="152.2" rx="6.6" ry="2.4"/>
					<g class="st47">
						<path class="st46" d="M154.8,145.2c0.2,1.7,0.2,3.5,0.4,5.1c0.2,1.6,0.1,3.5,0.1,5.1c0,1.7,0,3.5-0.1,5.1
							c0,0.7,0.2,1.6,0.7,2.2s1.1,1.4,1.6,2c-0.6-0.6-1.3-1.2-1.8-1.8c-0.6-0.6-1.2-1.6-1.2-2.5c-0.1-1.7-0.1-3.5-0.1-5.1
							s0-3.5,0.1-5.1C154.5,148.6,154.7,146.8,154.8,145.2z"/>
					</g>
					<path class="st48" d="M176,138.5h-9.4c2.6,3.3,4.2,7.6,4.2,12.3c0,6.4-2.9,12.1-7.4,15.5h12.7c2.5,0,4.5-1.9,4.5-4.5v-18.9
						C180.4,140.5,178.5,138.5,176,138.5z"/>
				</g>
			</g>
			<g>
				<g>
					<g>
						<path class="st49" d="M168.8,115.9v-6.1c0-0.4-0.4-0.7-0.7-0.7h-3c-0.4,0-0.7,0.4-0.7,0.7v6.2c0,0.4-0.2,0.6-0.5,0.9
							c-1.7,1.1-2.7,3-2.5,5.1c0.2,2.6,2.5,4.7,5,4.8c3.1,0.1,5.7-2.4,5.7-5.4c0-1.9-1.1-3.6-2.6-4.7
							C168.9,116.5,168.8,116.3,168.8,115.9z"/>
						<path class="st42" d="M162.3,121.4c-0.1,0-0.2,0.1-0.2,0.2c0.1,2.4,2,4.2,4.4,4.2s4.2-1.8,4.4-4.1c0-0.1-0.1-0.2-0.2-0.2
							c-1.1,0.5-2,0.7-3.2,0.2C166.2,121.3,164.3,121.3,162.3,121.4z"/>
						<g>
							<path class="st50" d="M164.1,122.4c0,0.2-0.1,0.4-0.4,0.4s-0.4-0.1-0.4-0.4c0-0.3,0.1-0.4,0.4-0.4
								C163.9,122,164.1,122.3,164.1,122.4z"/>
							<path class="st50" d="M165,124.4c0,0.2-0.1,0.4-0.4,0.4c-0.2,0-0.4-0.1-0.4-0.4s0.1-0.4,0.4-0.4
								C164.9,123.9,165,124.1,165,124.4z"/>
							<circle class="st50" cx="165" cy="123" r="0.4"/>
						</g>
						<path class="st51" d="M169.3,116.9c-0.4-0.2-0.5-0.5-0.5-0.9v-6.2c0-0.4-0.4-0.7-0.7-0.7h-2.9v4.4c0,0.4,0.2,0.7,0.5,0.9
							c1.6,0.9,2.6,2.6,2.6,4.7c0,3.1-2.6,5.6-5.7,5.4c-0.2,0-0.4,0-0.6-0.1c0.9,1.4,2.5,2.5,4.3,2.6c3.1,0.1,5.7-2.4,5.7-5.4
							C171.9,119.4,170.9,117.7,169.3,116.9z"/>
						<path class="st52" d="M168.5,109.4c0,0,0.1-1.3-1.3-1.2c-0.9,0-0.6-0.2-0.4-0.6c0.2-0.2,0.2-0.6,0.1-0.9
							c-0.1-0.2-0.2-0.5-0.1-0.6c0.2-0.4,2.2-0.6,1.6-2.5c-0.5-1.8-1.9-0.4-2.4-1.2c-0.4-0.7,1.1-1.3,0.2-2.6
							c-0.7-1.3,0.4,0.6-1.6,1.3c-1.8,0.6-0.5,2.6,0.6,2.2c1.2-0.3,1.1,1.8-1.1,1.4c-2-0.5,2.2,1.9-0.1,2c-2.2,0.1-1.1,2.5,0.2,2.5
							C166,109.4,168.5,109.4,168.5,109.4z"/>
					</g>
					<g>
						<path class="st53" d="M168.6,110.7h-4.4c-0.2,0-0.5-0.2-0.5-0.5V110c0-0.2,0.2-0.5,0.5-0.5h4.4c0.2,0,0.5,0.2,0.5,0.5v0.1
							C169.2,110.3,168.9,110.7,168.6,110.7z"/>
						<path class="st54" d="M168.8,110.2h-4.7c-0.2,0-0.4-0.2-0.4-0.4v0.4c0,0.2,0.2,0.4,0.4,0.4h4.7c0.2,0,0.4-0.2,0.4-0.4v-0.4
							C169.2,110,169,110.2,168.8,110.2z"/>
					</g>
				</g>
				<g>
					<rect x="149.9" y="113" class="st46" width="17.9" height="1.2"/>
					<g>
						<rect x="145.6" y="103.6" class="st46" width="2.4" height="57.3"/>
						<rect x="147.5" y="103.6" class="st46" width="0.4" height="57.3"/>
					</g>
					<g>
						<path class="st46" d="M147.6,162.6h-1.9c-1.2,0-2-0.9-2-2v-0.4c0-1.2,0.9-2,2-2h1.9c1.2,0,2,0.9,2,2v0.4
							C149.8,161.6,148.8,162.6,147.6,162.6z"/>
						<path class="st55" d="M147.5,158.2v3.5c0,0.5,0.4,0.9,0.9,0.9h0.5c0.5,0,0.9-0.4,0.9-0.9V159c0-0.5-0.4-0.9-0.9-0.9H147.5
							L147.5,158.2z"/>
					</g>
					<g>
						<path class="st49" d="M149.9,164.9h-5.7c-0.7,0-1.3-0.6-1.3-1.3v-0.3c0-0.7,0.6-1.3,1.3-1.3h5.7c0.7,0,1.3,0.6,1.3,1.3v0.2
							C151.2,164.4,150.5,164.9,149.9,164.9z"/>
						<path class="st51" d="M150.6,162h-3.1c0.2,0,0.5,0.2,0.5,0.5v1.8c0,0.2-0.2,0.5-0.5,0.5h3.1c0.2,0,0.5-0.2,0.5-0.5v-1.8
							C151.2,162.3,151,162,150.6,162z"/>
					</g>
					<g>
						<path class="st40" d="M155.7,166.3h-18.4c-0.7,0-1.4-0.6-1.4-1.4l0,0c0-0.7,0.6-1.4,1.4-1.4h18.4c0.7,0,1.4,0.6,1.4,1.4l0,0
							C157.2,165.7,156.5,166.3,155.7,166.3z"/>
						<path class="st56" d="M156,163.4h-7.9c0.6,0,1.2,0.5,1.2,1.2v0.6c0,0.6-0.5,1.2-1.2,1.2h7.9c0.6,0,1.2-0.5,1.2-1.2v-0.6
							C157.2,164,156.6,163.4,156,163.4z"/>
					</g>
					<g>
						<path class="st40" d="M169.6,114.9h-6.1c-0.7,0-1.3-0.6-1.3-1.3l0,0c0-0.7,0.6-1.3,1.3-1.3h6.1c0.7,0,1.3,0.6,1.3,1.3l0,0
							C171,114.3,170.3,114.9,169.6,114.9z"/>
						<path class="st57" d="M169.9,114.1h-6.7c-0.5,0-1.1-0.4-1.1-1.1l0,0v0.6c0,0.5,0.5,1.1,1.1,1.1h6.7c0.5,0,1.1-0.5,1.1-1.1V113
							l0,0C170.9,113.8,170.4,114.1,169.9,114.1z"/>
						<g class="st43">
							<path class="st44" d="M165.3,113c0.4-0.1,0.7-0.2,1.1-0.2c0.4-0.1,0.7-0.1,1.1-0.1c0.4,0,0.7,0,1.1,0.1
								c0.4,0,0.7,0.1,1.1,0.2c-0.4,0.1-0.7,0.2-1.1,0.2c-0.4,0-0.7,0.1-1.1,0.1c-0.4,0-0.7,0-1.1-0.1
								C165.9,113.2,165.5,113.2,165.3,113z"/>
						</g>
					</g>
					<g>
						<circle class="st46" cx="146.8" cy="102.2" r="3.1"/>
						<path class="st58" d="M148.2,99.5c0.2,0.5,0.5,1.1,0.5,1.7c0,1.7-1.4,3.1-3.1,3.1c-0.5,0-1.1-0.1-1.4-0.4
							c0.5,0.9,1.6,1.4,2.6,1.4c1.7,0,3.1-1.4,3.1-3.1C149.9,101,149.2,100.1,148.2,99.5z"/>
						<path class="st59" d="M147,100.4c0.1,0.2-0.1,0.7-0.6,1.2c-0.5,0.4-1.2,0.5-1.4,0.1c-0.1-0.2,0.1-0.7,0.6-1.2
							C146.2,100.2,146.9,100.2,147,100.4z"/>
					</g>
					<g>
						<g>
							<ellipse class="st46" cx="146.8" cy="113.4" rx="5.6" ry="5.6"/>
							<ellipse class="st49" cx="146.8" cy="113.4" rx="3.2" ry="3.2"/>
						</g>
						<path class="st60" d="M149.3,108.4c0.4,0.7,0.6,1.7,0.6,2.6c0,3.1-2.5,5.6-5.6,5.6c-0.9,0-1.8-0.2-2.6-0.6
							c0.9,1.8,2.9,3,4.9,3c3.1,0,5.6-2.5,5.6-5.6C152.3,111.3,151.2,109.5,149.3,108.4z"/>
					</g>
				</g>
			</g>
		</g>
		<g>
			<g>
				<g>
					<g>
						<rect x="82.9" y="160.7" class="st61" width="0.9" height="2.9"/>
						<rect x="83.7" y="160.7" class="st62" width="0.1" height="2.9"/>
					</g>
					<g>
						<path class="st46" d="M84.9,164.6c0,0.9-0.6,1.6-1.6,1.6s-1.6-0.6-1.6-1.6s0.6-1.6,1.6-1.6S84.9,163.8,84.9,164.6z"/>
						<path class="st61" d="M84.1,164.6c0,0.4-0.4,0.7-0.7,0.7c-0.4,0-0.7-0.4-0.7-0.7s0.4-0.7,0.7-0.7
							C83.8,163.9,84.1,164.3,84.1,164.6z"/>
						<path class="st63" d="M84.1,163.2c0.1,0.1,0.1,0.4,0.1,0.6c0,0.9-0.6,1.6-1.6,1.6c-0.2,0-0.5,0-0.6-0.1
							c0.2,0.5,0.7,1.1,1.4,1.1c0.9,0,1.6-0.6,1.6-1.6C84.9,164,84.6,163.4,84.1,163.2z"/>
						<g class="st64">
							<path class="st46" d="M82.1,164.5c0-0.4,0.2-0.6,0.4-0.9c0.2-0.1,0.6-0.2,0.9-0.1c-0.2,0-0.6,0.1-0.7,0.2
								C82.6,164,82.2,164.3,82.1,164.5z"/>
						</g>
					</g>
				</g>
				<g>
					<g>
						<rect x="110.6" y="160.7" class="st61" width="0.9" height="2.9"/>
						<rect x="111.2" y="160.7" class="st62" width="0.1" height="2.9"/>
					</g>
					<g>
						<path class="st46" d="M112.6,164.6c0,0.9-0.6,1.6-1.6,1.6c-0.9,0-1.6-0.6-1.6-1.6s0.6-1.6,1.6-1.6
							C111.9,163.1,112.6,163.8,112.6,164.6z"/>
						<path class="st61" d="M111.8,164.6c0,0.4-0.4,0.7-0.7,0.7s-0.7-0.4-0.7-0.7s0.4-0.7,0.7-0.7
							C111.5,163.9,111.8,164.3,111.8,164.6z"/>
						<path class="st63" d="M111.7,163.2c0.1,0.1,0.1,0.4,0.1,0.6c0,0.9-0.6,1.6-1.6,1.6c-0.2,0-0.5,0-0.6-0.1
							c0.2,0.5,0.7,1.1,1.4,1.1c0.9,0,1.6-0.6,1.6-1.6C112.6,164,112.2,163.4,111.7,163.2z"/>
						<g class="st64">
							<path class="st46" d="M109.8,164.5c0-0.4,0.2-0.6,0.4-0.9c0.2-0.1,0.6-0.2,0.9-0.1c-0.2,0-0.6,0.1-0.7,0.2
								C110.2,164,110,164.3,109.8,164.5z"/>
						</g>
					</g>
				</g>
			</g>
			<g>
				<g>
					<g>
						<rect x="80" y="124.6" class="st61" width="1.8" height="35.2"/>
						<rect x="81.5" y="124.6" class="st65" width="0.2" height="35.2"/>
					</g>
					<g>
						<rect x="113.6" y="124.6" class="st61" width="1.8" height="35.2"/>
						<rect x="115" y="124.6" class="st65" width="0.2" height="35.2"/>
					</g>
				</g>
				<g>
					<rect x="77.5" y="140.4" class="st66" width="40.4" height="1.2"/>
					<rect x="77.5" y="141" class="st66" width="40.4" height="0.2"/>
				</g>
				<g>
					<path class="st66" d="M116.1,161.9H78.3c-1.1,0-1.9-0.9-1.9-1.9v-0.4c0-1.1,0.9-1.9,1.9-1.9h37.8c1.1,0,1.9,0.9,1.9,1.9v0.4
						C117.9,161.2,117.1,161.9,116.1,161.9z"/>
					<path class="st67" d="M117.9,158.3v2c0,0.4-0.4,0.7-0.7,0.7h-40c-0.4,0-0.6-0.2-0.7-0.5v0.4c0,0.4,0.4,0.7,0.7,0.7h40
						c0.4,0,0.7-0.4,0.7-0.7v-2.6C117.9,158.5,117.9,158.4,117.9,158.3z"/>
					<g class="st68">
						<path class="st66" d="M78.8,159.7c2.9-0.2,5.7-0.2,8.6-0.2c2.9,0,5.7,0,8.6,0.2c-2.9,0.2-5.7,0.2-8.6,0.2
							C84.5,159.9,81.6,160,78.8,159.7z"/>
					</g>
					<g class="st68">
						<path class="st66" d="M99.9,159.2c2.9-0.2,5.7-0.2,8.6-0.2c2.9,0,5.7,0,8.6,0.2c-2.9,0.2-5.7,0.2-8.6,0.2
							C105.6,159.5,102.8,159.5,99.9,159.2z"/>
					</g>
					<g class="st68">
						<path class="st66" d="M94.5,160.5c2.9-0.2,5.7-0.2,8.6-0.2s5.7,0,8.6,0.2c-2.9,0.2-5.7,0.2-8.6,0.2
							C100.3,160.8,97.4,160.8,94.5,160.5z"/>
					</g>
					<g class="st68">
						<path class="st66" d="M85.3,158.7c2.9-0.2,5.7-0.2,8.6-0.2c2.9,0,5.7,0,8.6,0.2c-2.9,0.2-5.7,0.2-8.6,0.2
							C91,158.9,88.2,158.9,85.3,158.7z"/>
					</g>
				</g>
				<g>
					<rect x="74.5" y="122.5" class="st66" width="45.7" height="4.2"/>
					<rect x="74.5" y="126.4" class="st66" width="45.7" height="0.2"/>
					<rect x="74.5" y="122.5" class="st66" width="45.7" height="0.2"/>
					<g class="st69">
						<path class="st16" d="M77,123.7c1.7-0.1,3.3-0.1,5-0.1h5h5c1.7,0,3.3,0.1,5,0.1c-1.7,0.1-3.3,0.1-5,0.1h-5h-5
							C80.2,123.8,78.5,123.8,77,123.7z"/>
					</g>
					<g class="st69">
						<path class="st16" d="M97.4,125c1.7-0.1,3.3-0.1,5-0.1h5h5c1.7,0,3.3,0.1,5,0.1c-1.7,0.1-3.3,0.1-5,0.1h-5h-5
							C100.8,125.1,99.1,125.1,97.4,125z"/>
					</g>
				</g>
				<g>
					<g>
						<rect x="89.9" y="156.7" class="st46" width="1.9" height="1.1"/>
						<rect x="89.9" y="157.7" class="st70" width="1.9" height="0.1"/>
					</g>
					<g>
						<rect x="103.2" y="156.7" class="st46" width="1.9" height="1.1"/>
						<rect x="103.2" y="157.7" class="st70" width="1.9" height="0.1"/>
					</g>
					<g>
						<g>
							<path class="st49" d="M90.9,155.2L90.9,155.2c-0.5,0-0.7-0.2-0.7-0.6v-9.6h1.3v9.6C91.7,154.9,91.3,155.2,90.9,155.2z"/>
							<path class="st51" d="M91.1,144.9v6c0,0.4-0.2,0.6-0.6,0.6h-0.1v2.9c0,0.4,0.2,0.6,0.6,0.6s0.6-0.2,0.6-0.6v-9.6h-0.5V144.9z
								"/>
						</g>
						<g>
							<path class="st49" d="M93.2,155.2L93.2,155.2c-0.5,0-0.7-0.2-0.7-0.6v-9.6h1.3v9.6C93.8,154.9,93.4,155.2,93.2,155.2z"/>
							<path class="st51" d="M93.3,144.9v6c0,0.4-0.2,0.6-0.6,0.6h-0.1v2.9c0,0.4,0.2,0.6,0.6,0.6c0.4,0,0.6-0.2,0.6-0.6v-9.6h-0.5
								V144.9z"/>
						</g>
						<g>
							<path class="st49" d="M95.2,155.2L95.2,155.2c-0.5,0-0.7-0.2-0.7-0.6v-9.6h1.3v9.6C95.8,154.9,95.6,155.2,95.2,155.2z"/>
							<path class="st51" d="M95.4,144.9v6c0,0.4-0.2,0.6-0.6,0.6h-0.1v2.9c0,0.4,0.2,0.6,0.6,0.6c0.4,0,0.6-0.2,0.6-0.6v-9.6h-0.5
								V144.9z"/>
						</g>
						<g>
							<path class="st49" d="M97.4,155.2L97.4,155.2c-0.5,0-0.7-0.2-0.7-0.6v-9.6H98v9.6C98.1,154.9,97.9,155.2,97.4,155.2z"/>
							<path class="st51" d="M97.5,144.9v6c0,0.4-0.2,0.6-0.6,0.6h-0.1v2.9c0,0.4,0.2,0.6,0.6,0.6c0.4,0,0.6-0.2,0.6-0.6v-9.6h-0.5
								V144.9z"/>
						</g>
						<g>
							<path class="st49" d="M99.7,155.2L99.7,155.2c-0.5,0-0.7-0.2-0.7-0.6v-9.6h1.3v9.6C100.3,154.9,99.9,155.2,99.7,155.2z"/>
							<path class="st51" d="M99.8,144.9v6c0,0.4-0.2,0.6-0.6,0.6H99v2.9c0,0.4,0.2,0.6,0.6,0.6s0.6-0.2,0.6-0.6v-9.6h-0.5V144.9z"
								/>
						</g>
						<g>
							<path class="st49" d="M101.7,155.2L101.7,155.2c-0.5,0-0.7-0.2-0.7-0.6v-9.6h1.3v9.6C102.4,154.9,102.1,155.2,101.7,155.2z"
								/>
							<path class="st51" d="M101.8,144.9v6c0,0.4-0.2,0.6-0.6,0.6h-0.1v2.9c0,0.4,0.2,0.6,0.6,0.6s0.6-0.2,0.6-0.6v-9.6h-0.5V144.9
								z"/>
						</g>
						<g>
							<path class="st49" d="M103.9,155.2L103.9,155.2c-0.5,0-0.7-0.2-0.7-0.6v-9.6h1.3v9.6C104.6,154.9,104.3,155.2,103.9,155.2z"
								/>
							<path class="st51" d="M104.1,144.9v6c0,0.4-0.2,0.6-0.6,0.6h-0.1v2.9c0,0.4,0.2,0.6,0.6,0.6c0.4,0,0.6-0.2,0.6-0.6v-9.6h-0.5
								V144.9z"/>
						</g>
					</g>
					<g>
						<path class="st61" d="M106.2,157.2H89.3c-0.4,0-0.6-0.2-0.6-0.6v-0.1c0-0.4,0.4-0.7,0.7-0.7h16.8c0.4,0,0.7,0.4,0.7,0.7v0.1
							C106.9,157,106.5,157.2,106.2,157.2z"/>
						<path class="st71" d="M106.1,157.1H89.3c-0.4,0-0.7-0.4-0.7-0.7v0.5c0,0.2,0.1,0.4,0.4,0.4h17.7c0.2,0,0.4-0.1,0.4-0.4v-0.5
							C106.9,156.9,106.5,157.1,106.1,157.1z"/>
						<g>
							<path class="st61" d="M89.8,156.3c0.9-0.1,1.8-0.1,2.7-0.1c0.9,0,1.8,0,2.7,0.1c-0.9,0.1-1.8,0.1-2.7,0.1
								C91.7,156.3,90.7,156.3,89.8,156.3z"/>
						</g>
						<g>
							<path class="st61" d="M97.4,156.3c0.9-0.1,1.8-0.1,2.7-0.1c0.9,0,1.8,0,2.7,0.1c-0.9,0.1-1.8,0.1-2.7,0.1
								C99.3,156.3,98.3,156.3,97.4,156.3z"/>
						</g>
						<g>
							<path class="st61" d="M99.9,156.7c0.9-0.1,1.8-0.1,2.7-0.1c0.9,0,1.8,0,2.7,0.1c-0.9,0.1-1.8,0.1-2.7,0.1
								C101.7,156.9,100.8,156.9,99.9,156.7z"/>
						</g>
						<g>
							<path class="st61" d="M93.4,156.5c0.9-0.1,1.8-0.1,2.7-0.1c0.9,0,1.8,0,2.7,0.1c-0.9,0.1-1.8,0.1-2.7,0.1
								C95.2,156.6,94.3,156.6,93.4,156.5z"/>
						</g>
					</g>
					<g>
						<rect x="88.9" y="147.8" class="st46" width="16.9" height="1.8"/>
						<rect x="88.9" y="149.5" class="st46" width="16.9" height="0.1"/>
						<rect x="88.9" y="147.8" class="st46" width="16.9" height="0.1"/>
					</g>
				</g>
				<g>
					<g>
						<rect x="89.9" y="139.4" class="st46" width="1.9" height="1.1"/>
						<rect x="89.9" y="140.3" class="st70" width="1.9" height="0.1"/>
					</g>
					<g>
						<rect x="103.2" y="139.4" class="st46" width="1.9" height="1.1"/>
						<rect x="103.2" y="140.3" class="st70" width="1.9" height="0.1"/>
					</g>
					<g>
						<g>
							<path class="st49" d="M90.9,137.9L90.9,137.9c-0.5,0-0.7-0.2-0.7-0.6v-9.6h1.3v9.6C91.7,137.5,91.3,137.9,90.9,137.9z"/>
							<path class="st51" d="M91.1,127.6v6c0,0.4-0.2,0.6-0.6,0.6h-0.1v2.9c0,0.4,0.2,0.6,0.6,0.6s0.6-0.2,0.6-0.6v-9.6h-0.5V127.6z
								"/>
						</g>
						<g>
							<path class="st49" d="M93.2,137.9L93.2,137.9c-0.5,0-0.7-0.2-0.7-0.6v-9.6h1.3v9.6C93.8,137.5,93.4,137.9,93.2,137.9z"/>
							<path class="st51" d="M93.3,127.6v6c0,0.4-0.2,0.6-0.6,0.6h-0.1v2.9c0,0.4,0.2,0.6,0.6,0.6c0.4,0,0.6-0.2,0.6-0.6v-9.6h-0.5
								V127.6z"/>
						</g>
						<g>
							<path class="st49" d="M95.2,137.9L95.2,137.9c-0.5,0-0.7-0.2-0.7-0.6v-9.6h1.3v9.6C95.8,137.5,95.6,137.9,95.2,137.9z"/>
							<path class="st51" d="M95.4,127.6v6c0,0.4-0.2,0.6-0.6,0.6h-0.1v2.9c0,0.4,0.2,0.6,0.6,0.6c0.4,0,0.6-0.2,0.6-0.6v-9.6h-0.5
								V127.6z"/>
						</g>
						<g>
							<path class="st49" d="M97.4,137.9L97.4,137.9c-0.5,0-0.7-0.2-0.7-0.6v-9.6H98v9.6C98.1,137.5,97.9,137.9,97.4,137.9z"/>
							<path class="st51" d="M97.5,127.6v6c0,0.4-0.2,0.6-0.6,0.6h-0.1v2.9c0,0.4,0.2,0.6,0.6,0.6c0.4,0,0.6-0.2,0.6-0.6v-9.6h-0.5
								V127.6z"/>
						</g>
						<g>
							<path class="st49" d="M99.7,137.9L99.7,137.9c-0.5,0-0.7-0.2-0.7-0.6v-9.6h1.3v9.6C100.3,137.5,99.9,137.9,99.7,137.9z"/>
							<path class="st51" d="M99.8,127.6v6c0,0.4-0.2,0.6-0.6,0.6H99v2.9c0,0.4,0.2,0.6,0.6,0.6s0.6-0.2,0.6-0.6v-9.6h-0.5V127.6z"
								/>
						</g>
						<g>
							<path class="st49" d="M101.7,137.9L101.7,137.9c-0.5,0-0.7-0.2-0.7-0.6v-9.6h1.3v9.6C102.4,137.5,102.1,137.9,101.7,137.9z"
								/>
							<path class="st51" d="M101.8,127.6v6c0,0.4-0.2,0.6-0.6,0.6h-0.1v2.9c0,0.4,0.2,0.6,0.6,0.6s0.6-0.2,0.6-0.6v-9.6h-0.5V127.6
								z"/>
						</g>
						<g>
							<path class="st49" d="M103.9,137.9L103.9,137.9c-0.5,0-0.7-0.2-0.7-0.6v-9.6h1.3v9.6C104.6,137.5,104.3,137.9,103.9,137.9z"
								/>
							<path class="st51" d="M104.1,127.6v6c0,0.4-0.2,0.6-0.6,0.6h-0.1v2.9c0,0.4,0.2,0.6,0.6,0.6c0.4,0,0.6-0.2,0.6-0.6v-9.6h-0.5
								V127.6z"/>
						</g>
					</g>
					<g>
						<path class="st61" d="M106.2,139.9H89.3c-0.4,0-0.6-0.2-0.6-0.6v-0.1c0-0.4,0.4-0.7,0.7-0.7h16.8c0.4,0,0.7,0.4,0.7,0.7v0.1
							C106.9,139.7,106.5,139.9,106.2,139.9z"/>
						<path class="st71" d="M106.1,139.8H89.3c-0.4,0-0.7-0.4-0.7-0.7v0.5c0,0.2,0.1,0.4,0.4,0.4h17.7c0.2,0,0.4-0.1,0.4-0.4V139
							C106.9,139.6,106.5,139.8,106.1,139.8z"/>
						<g>
							<path class="st61" d="M89.8,138.7c0.9-0.1,1.8-0.1,2.7-0.1c0.9,0,1.8,0,2.7,0.1c-0.9,0.1-1.8,0.1-2.7,0.1
								C91.7,138.8,90.7,138.8,89.8,138.7z"/>
						</g>
						<g>
							<path class="st61" d="M97.4,138.7c0.9-0.1,1.8-0.1,2.7-0.1c0.9,0,1.8,0,2.7,0.1c-0.9,0.1-1.8,0.1-2.7,0.1
								C99.3,138.8,98.3,138.8,97.4,138.7z"/>
						</g>
						<g>
							<path class="st61" d="M99.9,139.4c0.9-0.1,1.8-0.1,2.7-0.1c0.9,0,1.8,0,2.7,0.1c-0.9,0.1-1.8,0.1-2.7,0.1
								C101.7,139.6,100.8,139.6,99.9,139.4z"/>
						</g>
						<g>
							<path class="st61" d="M93.4,139.1c0.9-0.1,1.8-0.1,2.7-0.1c0.9,0,1.8,0,2.7,0.1c-0.9,0.1-1.8,0.1-2.7,0.1
								S94.3,139.2,93.4,139.1z"/>
						</g>
					</g>
					<g>
						<rect x="88.9" y="130.5" class="st46" width="16.9" height="1.8"/>
						<rect x="88.9" y="132.2" class="st46" width="16.9" height="0.1"/>
						<rect x="88.9" y="130.5" class="st46" width="16.9" height="0.1"/>
					</g>
				</g>
			</g>
		</g>
		<g>
			<g>
				<g>
					<g>
						<path class="st42" d="M113.7,162h15.6c0,0-2.4,2.4,0,4.3h-15.5c-0.4,0-0.7-0.1-0.9-0.5c-0.5-0.6-1.2-2,0-3.5
							C113,162.2,113.4,162,113.7,162z"/>
						<g class="st72">
							<path class="st42" d="M113.5,163.1c-0.2-0.1-0.5-0.2-0.7-0.5c-0.9,1.3-0.4,2.6,0.1,3.3c0.2,0.2,0.5,0.5,0.9,0.5h10
								C120.2,165.8,116.8,164.6,113.5,163.1z"/>
						</g>
					</g>
					<g>
						<path class="st73" d="M129.3,166.3l17.9,0.2c0,0-1.1-1.9,0-4.5h-17.9C129.3,162,126.3,163.9,129.3,166.3z"/>
						<path class="st44" d="M130.6,165.7c-0.4,0-0.6-0.1-0.9-0.4c-0.2-0.4-0.4-0.7-0.4-1.1s0.1-0.6,0.4-0.9c0.3-0.2,0.5-0.5,0.9-0.5
							h15.3c-0.2,1.3-0.1,2.4,0,3.1L130.6,165.7z"/>
						<path class="st74" d="M130,164.5c-0.9-0.6-1.3-1.4-1.3-1.9c-0.6,0.7-1.4,2.2,0.6,3.7l17.9,0.2c0,0-0.2-0.6-0.4-1.7
							C140.7,165.6,135,165.6,130,164.5z"/>
						<g>
							<g class="st75">
								<path class="st42" d="M130.4,163.4c2.5-0.1,4.8-0.1,7.3-0.1s4.8,0,7.3,0.1c-2.5,0.1-4.8,0.1-7.3,0.1
									S132.9,163.6,130.4,163.4z"/>
							</g>
							<g class="st75">
								<path class="st42" d="M130.4,163.9c2.5-0.1,4.8-0.1,7.3-0.1s4.8,0,7.3,0.1c-2.5,0.1-4.8,0.1-7.3,0.1
									C135.2,164.1,132.9,164.1,130.4,163.9z"/>
							</g>
							<g class="st75">
								<path class="st42" d="M130.4,164.4c2.5-0.1,4.8-0.1,7.3-0.1s4.8,0,7.3,0.1c-2.5,0.1-4.8,0.1-7.3,0.1
									S132.9,164.5,130.4,164.4z"/>
							</g>
							<g class="st75">
								<path class="st42" d="M130.4,164.9c2.5-0.1,4.8-0.1,7.3-0.1s4.8,0,7.3,0.1c-2.5,0.1-4.8,0.1-7.3,0.1S132.9,165,130.4,164.9z
									"/>
							</g>
						</g>
					</g>
				</g>
				<g>
					<g>
						<path class="st40" d="M111.2,157.8l15.6-0.1c0,0-2.4,2.4,0,4.3l-15.5,0.1c-0.4,0-0.7-0.1-0.9-0.5c-0.5-0.6-1.2-2,0-3.5
							C110.6,158.1,110.9,157.8,111.2,157.8z"/>
						<g class="st72">
							<path class="st40" d="M111,158.9c-0.2-0.1-0.5-0.2-0.7-0.5c-0.9,1.3-0.4,2.6,0.1,3.3c0.2,0.2,0.5,0.5,0.9,0.5l10-0.1
								C117.9,161.5,114.3,160.5,111,158.9z"/>
						</g>
					</g>
					<g>
						<path class="st76" d="M127,162l17.9,0.1c0,0-1.1-1.9,0-4.5l-17.9,0.1C127,157.8,124,159.7,127,162z"/>
						<path class="st44" d="M128.2,161.3c-0.4,0-0.6-0.1-0.9-0.4c-0.2-0.4-0.4-0.7-0.4-1.1s0.1-0.6,0.4-0.9c0.2-0.2,0.5-0.5,0.9-0.5
							l15.3-0.1c-0.2,1.3-0.1,2.4,0,3.1L128.2,161.3z"/>
						<path class="st77" d="M127.6,160.2c-0.9-0.6-1.3-1.4-1.3-1.9c-0.6,0.7-1.4,2.2,0.6,3.7l17.9,0.1c0,0-0.4-0.6-0.4-1.7
							C138.2,161.2,132.6,161.2,127.6,160.2z"/>
						<g>
							<g class="st75">
								<path class="st40" d="M128.2,159.2c2.5-0.1,4.8-0.2,7.3-0.2c2.5,0,4.8,0,7.3,0.1c-2.5,0.1-4.8,0.2-7.3,0.2
									C132.9,159.4,130.4,159.4,128.2,159.2z"/>
							</g>
							<g class="st75">
								<path class="st40" d="M128.2,159.6c2.5-0.1,4.8-0.2,7.3-0.2c2.5,0,4.8,0,7.3,0.1c-2.5,0.1-4.8,0.2-7.3,0.2
									C132.9,159.7,130.4,159.7,128.2,159.6z"/>
							</g>
							<g class="st75">
								<path class="st40" d="M128.2,160.1c2.5-0.1,4.8-0.2,7.3-0.2c2.5,0,4.8,0,7.3,0.1c-2.5,0.1-4.8,0.2-7.3,0.2
									C132.9,160.2,130.4,160.2,128.2,160.1z"/>
							</g>
							<g class="st75">
								<path class="st40" d="M128.2,160.7c2.5-0.1,4.8-0.2,7.3-0.2c2.5,0,4.8,0,7.3,0.1c-2.5,0.1-4.8,0.2-7.3,0.2
									C132.9,160.8,130.4,160.8,128.2,160.7z"/>
							</g>
						</g>
					</g>
				</g>
				<g>
					<g>
						<g>
							<path class="st78" d="M112.8,153.8l15.6-0.2c0,0-2.2,2.4,0.1,4.3l-15.5,0.2c-0.4,0-0.7-0.1-0.9-0.5c-0.5-0.6-1.2-2,0-3.5
								C112.1,153.9,112.4,153.8,112.8,153.8z"/>
							<g class="st72">
								<path class="st78" d="M112.6,154.8c-0.2-0.1-0.5-0.2-0.7-0.5c-0.9,1.3-0.4,2.6,0.1,3.3c0.2,0.2,0.5,0.5,0.9,0.5l10-0.1
									C119.5,157.5,116,156.4,112.6,154.8z"/>
							</g>
						</g>
					</g>
					<g>
						<path class="st66" d="M128.5,157.9h17.9c0,0-1.1-1.9-0.1-4.5l-17.9,0.2C128.4,153.5,125.4,155.4,128.5,157.9z"/>
						<path class="st44" d="M129.7,157.1c-0.4,0-0.6-0.1-0.9-0.4c-0.2-0.4-0.4-0.7-0.4-1.1s0.1-0.6,0.4-0.9c0.2-0.2,0.5-0.5,0.9-0.5
							L145,154c-0.2,1.3-0.1,2.4,0,3.1H129.7z"/>
						<path class="st79" d="M129.1,155.9c-0.9-0.6-1.3-1.3-1.3-1.9c-0.6,0.7-1.3,2.2,0.6,3.7h17.9c0,0-0.4-0.6-0.4-1.7
							C139.8,156.9,134,156.9,129.1,155.9z"/>
						<g>
							<g class="st75">
								<path class="st78" d="M129.5,154.9c2.5-0.1,4.8-0.2,7.3-0.2s4.8,0,7.3,0.1c-2.5,0.2-4.8,0.2-7.3,0.2
									C134.5,155.1,132,155.1,129.5,154.9z"/>
							</g>
							<g class="st75">
								<path class="st78" d="M129.5,155.4c2.5-0.1,4.8-0.2,7.3-0.2s4.8,0,7.3,0.1c-2.5,0.2-4.8,0.2-7.3,0.2
									C134.5,155.4,132,155.6,129.5,155.4z"/>
							</g>
							<g class="st75">
								<path class="st78" d="M129.5,155.9c2.5-0.1,4.8-0.2,7.3-0.2s4.8,0,7.3,0.1c-2.5,0.2-4.8,0.2-7.3,0.2
									C134.5,155.9,132,155.9,129.5,155.9z"/>
							</g>
							<g class="st75">
								<path class="st78" d="M129.7,156.4c2.5-0.1,4.8-0.2,7.3-0.2s4.8,0,7.3,0.1c-2.5,0.2-4.8,0.2-7.3,0.2S132,156.5,129.7,156.4z
									"/>
							</g>
						</g>
					</g>
				</g>
			</g>
			<g>
				<path class="st52" d="M123.2,114.3c0,0-0.1-1.8,1.9-1.7c1.3,0.1,1.1-0.4,0.6-0.9c-0.4-0.4-0.4-0.9-0.1-1.3
					c0.1-0.4,0.2-0.6,0.1-0.9c-0.2-0.6-3.2-0.9-2.4-3.5c0.7-2.6,2.9-0.6,3.5-1.7c0.5-1.2-1.6-1.8-0.4-3.7c1.2-1.9-0.5,0.9,2.2,1.9
					c2.7,1.1,0.7,3.7-1.1,3.2c-1.8-0.5-1.6,2.7,1.4,2c3.1-0.6-3.2,2.9,0.1,3.1c3.3,0.2,1.6,3.6-0.4,3.6
					C126.9,114.3,123.2,114.3,123.2,114.3z"/>
				<g>
					<g>
						<path class="st49" d="M132,129.2v-13.7c0-0.9-0.7-1.8-1.8-1.8h-6.6c-0.9,0-1.8,0.7-1.8,1.8v14c0,0.7-0.4,1.6-1.2,2
							c-3.7,2.4-6.1,6.6-5.6,11.6c0.6,5.7,5.5,10.4,11.2,10.6c6.9,0.4,12.7-5.1,12.7-11.9c0-4.4-2.4-8.2-6-10.4
							C132.5,130.8,132,130,132,129.2z"/>
						<path class="st46" d="M117.8,141.5c-0.2,0-0.5,0.2-0.5,0.5c0.2,5.1,4.5,9.4,9.8,9.4c5.1,0,9.3-4.1,9.8-8.9
							c0-0.4-0.4-0.6-0.6-0.5c-2.2,1.2-4.7,1.8-7.2,0.6C126.2,141.3,122.2,141.2,117.8,141.5z"/>
						<g>
							<path class="st50" d="M121.5,144c0,0.5-0.4,0.9-0.9,0.9c-0.4,0-0.9-0.4-0.9-0.9s0.4-0.9,0.9-0.9
								C121.1,143,121.5,143.4,121.5,144z"/>
							<circle class="st50" cx="122.8" cy="148.2" r="0.9"/>
							<circle class="st50" cx="123.6" cy="144.9" r="0.7"/>
						</g>
						<path class="st51" d="M133.2,131.2c-0.7-0.4-1.2-1.2-1.2-2v-13.7c0-0.9-0.7-1.8-1.8-1.8h-6.4v9.8c0,0.9,0.5,1.7,1.2,2
							c3.5,2,6,6,6,10.4c0,6.9-5.7,12.3-12.7,11.9c-0.5,0-0.9-0.1-1.4-0.1c1.9,3.3,5.6,5.6,9.6,5.8c6.9,0.4,12.7-5.1,12.7-11.9
							C139.2,137.2,136.7,133.2,133.2,131.2z"/>
					</g>
					<g>
						<path class="st53" d="M131.8,117.2h-9.8c-0.7,0-1.3-0.6-1.3-1.3v-0.2c0-0.7,0.6-1.3,1.3-1.3h9.8c0.7,0,1.3,0.6,1.3,1.3v0.2
							C133.2,116.8,132.5,117.2,131.8,117.2z"/>
					</g>
					<path class="st80" d="M132.8,116.5h-11.7c-0.2,0-0.4-0.1-0.4-0.4v0.6c0,0.2,0.1,0.4,0.4,0.4h11.7c0.2,0,0.4-0.1,0.4-0.4v-0.5
						C133.2,116.4,132.9,116.5,132.8,116.5z"/>
				</g>
			</g>
		</g>
		<g>
			<g>
				<g>
					<g>
						<rect x="48.6" y="145.1" class="st78" width="16.8" height="21.5"/>
						<g>
							<line class="st81" x1="50.4" y1="155.7" x2="55.6" y2="155.7"/>
							<g>
								<line class="st81" x1="58.5" y1="155.7" x2="63.7" y2="155.7"/>
								<line class="st81" x1="61.1" y1="152.9" x2="61.1" y2="158.3"/>
							</g>
						</g>
						<path class="st66" d="M63,163.6H51.2c-0.4,0-0.7-0.4-0.7-0.7v-0.1c0-0.4,0.4-0.7,0.7-0.7H63c0.4,0,0.7,0.4,0.7,0.7v0.1
							C63.7,163.2,63.4,163.6,63,163.6z"/>
						<path class="st82" d="M48.6,166.5h16.8v-16.8C65.4,159,57.9,166.5,48.6,166.5z"/>
					</g>
					<rect x="48.6" y="145.1" class="st83" width="16.8" height="6.6"/>
					<g>
						<rect x="48.6" y="145.1" class="st66" width="16.8" height="6"/>
						<path class="st84" d="M59.4,145.1c3.3,0,6,2.7,6,6v-6H59.4z"/>
						<path class="st85" d="M52.9,147.1c0,0.5-0.4,0.9-0.9,0.9c-0.5,0-0.9-0.4-0.9-0.9c0-0.5,0.4-0.9,0.9-0.9
							C52.5,146.1,52.9,146.5,52.9,147.1z"/>
						<path class="st85" d="M63.7,147.1c0,0.5-0.4,0.9-0.9,0.9c-0.5,0-0.9-0.4-0.9-0.9c0-0.5,0.4-0.9,0.9-0.9
							C63.4,146.1,63.7,146.5,63.7,147.1z"/>
					</g>
				</g>
				<g>
					<path class="st49" d="M43.8,147.3h-0.5c-1.7,0-3-1.3-3-3v-22.1c0-1.7,1.3-3,3-3h0.5c1.7,0,3,1.3,3,3v22.1
						C46.8,146,45.5,147.3,43.8,147.3z"/>
					<path class="st86" d="M44.3,119.4v19.8c0,1.8-1.4,3.2-3.2,3.2c-0.2,0-0.5,0-0.7-0.1v1.8c0,1.8,1.4,3.2,3.2,3.2
						c1.8,0,3.2-1.4,3.2-3.2v-21.5C46.8,121.2,45.7,119.9,44.3,119.4z"/>
				</g>
				<g>
					<path class="st87" d="M51.9,146.7v-9.3c0,0,0.5-2.2,2-2.4c1.2,0,1.4,1.7,0.4,2c-0.7,0.2-1.9,0-3.1-2c0,0,0.1-2.5,1.4-3
						c0.9-0.4,1.8,0.7,1.1,1.4c-1.1,1.2-2.7,2.5-3.9,0.6c0,0-0.4-1.2-2-1.2h-8.2"/>
					<path class="st88" d="M62.7,146.7v-5.6c0-0.4-0.1-0.7-0.4-1.1c-0.9-0.7-2.6-2.9-1.2-5.5c0,0,0.1-1.4,0.9-1.8
						c0.7-0.2,1.3,0.6,0.7,1.3c-0.6,0.6-1.8,1.3-3.3-0.1c-2.5-2.4-1.9-6.4,0.9-6c2.9,0.5-2.9,5.6-4.8,0.4c0,0-1.6-2.2,0.7-2.9
						c0.5-0.1,1.1,0.2,1.1,0.7c-0.1,1.3-0.7,3-4.7,0.4c-0.5-0.4-0.7-0.9-0.7-1.4c0-0.9,0.1-2.2,1.4-1.9c0.4,0.1,0.6,0.5,0.5,0.9
						c-0.1,0.9-1.2,2.2-5.4,1.6h-9.2"/>
				</g>
			</g>
			<g>
				<path class="st89" d="M46.8,166.5H37V151c0-2,1.7-3.7,3.7-3.7h2.5c2,0,3.7,1.7,3.7,3.7v15.5H46.8z"/>
				<path class="st90" d="M36.8,166.5h9.8v-10C46.8,162.2,42.4,166.5,36.8,166.5z"/>
				<g class="st91">
					<path class="st49" d="M38.2,149.6c0.4,2.5,0.5,4.9,0.5,7.3c0,2.5-0.1,4.9-0.5,7.3c-0.4-2.5-0.5-4.9-0.5-7.3
						C37.7,154.6,37.8,152.1,38.2,149.6z"/>
				</g>
			</g>
		</g>
		<g>
			<g>
				<path class="st16" d="M112.8,117.6l-3.1-5.1l-1.9-3.5c-0.1-0.2-0.2-0.6-0.2-0.9v-5.8h-3.7v5.7c0,0.4-0.1,0.6-0.2,0.9l-1.9,3.5
					l-3.1,5.1c-0.4,0.7,0.1,1.7,0.9,1.7l6.2,0.1l6.2-0.1C112.7,119.3,113.3,118.4,112.8,117.6z"/>
				<path class="st42" d="M112.2,118.2l-2.5-4.3c-0.1-0.2-0.4-0.2-0.6-0.1c-0.4,0.2-0.9,0.2-1.4,0.2c-0.7,0-1.4-0.1-2-0.4
					c-0.9-0.4-1.7-0.2-3-0.2c-0.1,0-0.4,0.1-0.4,0.2l-2.6,4.5c0,0.1,0,0.1,0,0.2c0,0,0.1,0.1,0.2,0.1l6.2,0.1l6.2-0.1
					c0.1,0,0.1-0.1,0.2-0.1C112.2,118.3,112.2,118.2,112.2,118.2z"/>
				<g>
					<g>
						<path class="st92" d="M104.9,112.1c0,0.1,0,0.2-0.2,0.4c-0.2,0.1-0.2,0-0.4-0.2c0-0.1,0-0.2,0.2-0.4
							C104.7,111.8,104.9,111.9,104.9,112.1z"/>
						<path class="st92" d="M105.2,110.2c0,0.1-0.1,0.1-0.1,0.1c-0.1,0-0.1-0.1-0.1-0.1c0-0.1,0.1-0.1,0.1-0.1
							C105.2,110,105.2,110.1,105.2,110.2z"/>
						<path class="st42" d="M105.7,111C105.7,111.2,105.7,111.2,105.7,111c-0.1,0.1-0.2,0-0.2,0S105.6,111,105.7,111L105.7,111z"/>
						<path class="st42" d="M106.2,109.6C106.2,109.7,106.1,109.7,106.2,109.6c-0.1,0.1-0.1,0-0.1,0
							C106,109.6,106.1,109.6,106.2,109.6C106.1,109.6,106.2,109.6,106.2,109.6z"/>
					</g>
					<path class="st92" d="M103,114.5c0,0.1-0.1,0.1-0.1,0.1c-0.1,0-0.1-0.1-0.1-0.1c0-0.1,0.1-0.1,0.1-0.1
						C103,114.4,103,114.4,103,114.5z"/>
					<circle class="st92" cx="101.7" cy="116.8" r="0.1"/>
					<path class="st92" d="M104.1,115.9c0,0.1-0.1,0.1-0.1,0.1c-0.1,0-0.1-0.1-0.1-0.1l0.1-0.1C103.9,115.8,104.1,115.8,104.1,115.9
						z"/>
					<path class="st92" d="M107.4,117.4c0,0.1-0.1,0.1-0.1,0.1c-0.1,0-0.1-0.1-0.1-0.1l0.1-0.1C107.3,117.1,107.4,117.2,107.4,117.4
						z"/>
					<path class="st92" d="M107.9,115.2c0,0.1-0.1,0.1-0.1,0.1c-0.1,0-0.1-0.1-0.1-0.1l0.1-0.1C107.8,115.1,107.9,115.2,107.9,115.2
						z"/>
				</g>
				<path class="st93" d="M112.8,117.6l-3.1-5.1l-1.9-3.5c-0.1-0.2-0.2-0.6-0.2-0.9v-5.8h-2.2c1.6,1.6,2,5.5,1.2,9.4
					c-0.9,3.6-2.7,6.4-4.7,7.5l4.1,0.1l6.2-0.1C112.7,119.3,113.3,118.4,112.8,117.6z"/>
			</g>
			<g>
				<path class="st42" d="M107.2,103.6h-2.7c-0.5,0-0.9-0.4-0.9-0.9l0,0c0-0.5,0.4-0.9,0.9-0.9h2.7c0.5,0,0.9,0.4,0.9,0.9l0,0
					C108,103.3,107.7,103.6,107.2,103.6z"/>
				<path class="st45" d="M107.2,101.7h-2.6c0.7,0.2,1.3,0.9,1.7,1.9h0.9c0.5,0,0.9-0.4,0.9-0.9l0,0
					C108,102.1,107.7,101.7,107.2,101.7z"/>
			</g>
		</g>
		<g>
			<path class="st46" d="M92.3,116.8l-0.4,0.7c-0.6,1.2-1.9,1.9-3.3,1.9h-0.9c-1.4,0-2.7-0.7-3.3-1.9l-0.4-0.7
				c-0.6-1.2-0.6-2.7,0-3.9l0.4-0.7c0.6-1.2,1.9-1.9,3.3-1.9h0.9c1.4,0,2.7,0.7,3.3,1.9l0.4,0.7C93,114,93,115.4,92.3,116.8z"/>
			<path class="st89" d="M89.4,110.7h-2.9c-0.5,0-1.1,0.2-1.4,0.7l-1.3,2.6c-0.2,0.5-0.2,1.1,0,1.6l1.4,2.5c0.2,0.5,0.7,0.7,1.4,0.7
				h2.9c0.5,0,1.1-0.2,1.4-0.7l1.4-2.5c0.2-0.5,0.2-1.1,0-1.6l-1.4-2.5C90.6,111,90,110.7,89.4,110.7z"/>
			<g>
				<line class="st94" x1="86.2" y1="111.4" x2="89.9" y2="111.4"/>
				<line class="st94" x1="84.5" y1="114.7" x2="86.2" y2="118"/>
				<line class="st94" x1="89.9" y1="118" x2="91.8" y2="114.7"/>
			</g>
		</g>
		<g>
			<g>
				<rect x="71.4" y="136.8" class="st53" width="4.9" height="3.2"/>
				<rect x="74.6" y="136.8" class="st95" width="1.8" height="3.2"/>
			</g>
			<g>
				<g>
					<path class="st89" d="M75.8,166.5h-4.4c-2.6,0-4.8-2.2-4.8-4.8v-10.4c0-3.7,3-6.7,6.7-6.7h1.2c3.7,0,6.7,3,6.7,6.7v9.8
						C81.2,164.1,78.8,166.5,75.8,166.5z"/>
					<g>
						<path class="st16" d="M76.6,158.5h-5.4c-1.2,0-2.2-1.1-2.2-2.2V152c0-1.2,1.1-2.2,2.2-2.2h5.4c1.2,0,2.2,1.1,2.2,2.2v4.3
							C78.7,157.7,77.7,158.5,76.6,158.5z"/>
						<g>
							<path class="st96" d="M74.6,152.1h-1.7c-0.2,0-0.5,0.1-0.6,0.4l-0.9,1.4c-0.1,0.2-0.1,0.5,0,0.7l0.9,1.4
								c0.1,0.2,0.4,0.4,0.6,0.4h1.7c0.2,0,0.5-0.1,0.6-0.4l0.9-1.4c0.1-0.2,0.1-0.5,0-0.7l-0.9-1.4
								C75.2,152.2,74.8,152.1,74.6,152.1z"/>
							<line class="st97" x1="72.9" y1="152.8" x2="74.6" y2="152.8"/>
							<line class="st97" x1="72.2" y1="154.2" x2="72.9" y2="155.8"/>
							<line class="st97" x1="75.4" y1="154.2" x2="74.6" y2="155.8"/>
						</g>
					</g>
					<g class="st91">
						<path class="st49" d="M67.7,149.1c0.4,1.9,0.4,3.9,0.4,5.7c0,1.9-0.1,3.9-0.4,5.7c-0.4-1.9-0.4-3.9-0.4-5.7
							C67.2,152.9,67.2,151,67.7,149.1z"/>
					</g>
					<path class="st98" d="M78.3,144.7h-2.5c1.6,0,2.9,1.3,2.9,2.9v6.4c0,6.3-4.7,11.6-10.9,12.4c0.2,0.1,0.4,0.1,0.6,0.1h10.3
						c1.3,0,2.4-1.1,2.4-2.4v-16.7C81.2,146,79.8,144.7,78.3,144.7z"/>
				</g>
				<rect x="66.5" y="144.7" class="st57" width="14.7" height="2.9"/>
			</g>
			<g>
				<path class="st49" d="M66.4,147.1h14.9v-1.6c0-0.7-0.2-1.7-0.7-2.4l-3.3-4.7h-6.4l-3.5,4.7c-0.5,0.6-0.7,1.6-0.7,2.4
					C66.4,145.5,66.4,147.1,66.4,147.1z"/>
				<path class="st99" d="M80.6,143.1l-3.3-4.7h-2.5l3.3,4.7c0.5,0.6,0.7,1.4,0.7,2.4v1.6h2.5v-1.6
					C81.3,144.7,80.9,143.7,80.6,143.1z"/>
				<g class="st100">
					<path class="st16" d="M67.7,146.1c-0.1-0.2-0.2-0.5-0.2-0.9c-0.1-0.2-0.1-0.7,0.1-1.1c0.2-0.6,0.5-1.1,0.9-1.6
						c0.6-0.9,1.4-1.8,2.5-2.5c-0.2,1.3-0.7,2.2-1.4,3.2c-0.4,0.5-0.7,0.9-1.1,1.3c-0.1,0.1-0.2,0.2-0.2,0.6
						C67.8,145.5,67.8,145.9,67.7,146.1z"/>
				</g>
			</g>
			<g>
				<path class="st42" d="M76.9,137.9h-6c-1.1,0-1.9-0.9-1.9-1.9v-0.4c0-1.1,0.9-1.9,1.9-1.9h6c1.1,0,1.9,0.9,1.9,1.9v0.4
					C78.7,136.9,77.8,137.9,76.9,137.9z"/>
				<path class="st101" d="M76.6,133.6H74c1.2,0,2,0.9,2,2c0,1.2-0.9,2-2,2h2.6c1.2,0,2-0.9,2-2C78.7,134.6,77.7,133.6,76.6,133.6z"
					/>
				<g class="st64">
					<path class="st16" d="M70.8,134.3c-0.2,0.4-0.5,0.9-0.5,1.3s0.2,0.7,0.5,1.3c-0.2-0.1-0.5-0.2-0.6-0.5
						c-0.1-0.2-0.2-0.5-0.2-0.7C69.8,135,70.2,134.4,70.8,134.3z"/>
				</g>
			</g>
		</g>
	</g>
</g>
</svg>
