<svg xmlns="http://www.w3.org/2000/svg" viewBox="0 0 22.921 48.599">
  <defs/>
  <g fill="#f58862" data-name="Group 4062" transform="translate(-26.409)">
    <path d="M47.254 44.675L40.5 39.44v-6.458a3.273 3.273 0 001.095-2.445V14.726a3.288 3.288 0 00-6.575 0v3.643l-7.953 7.271a2.009 2.009 0 102.706 2.962l5.242-4.792v6.723a3.364 3.364 0 00.033.44l-5.606 4.976a2.015 2.015 0 00-.618 1.022l-2.206 8.952a2.009 2.009 0 103.9.962l2.058-8.345 3.535-3.138v5.109a2.191 2.191 0 00.85 1.733l7.608 5.893a2.192 2.192 0 002.685-3.465z" data-name="Path 57249"/>
    <path d="M46.043 11.439a3.288 3.288 0 00-3.288 3.287v8.393a3.288 3.288 0 006.575 0v-8.393a3.287 3.287 0 00-3.287-3.287z" data-name="Path 57250"/>
    <circle cx="4.749" cy="4.749" r="4.749" data-name="Ellipse 719" transform="translate(32.472)"/>
  </g>
</svg>
