<?xml version="1.0" encoding="utf-8"?>
<!-- Generator: Adobe Illustrator 25.1.0, SVG Export Plug-In . SVG Version: 6.00 Build 0)  -->
<svg version="1.1" id="Layer_1" xmlns="http://www.w3.org/2000/svg" xmlns:xlink="http://www.w3.org/1999/xlink" x="0px" y="0px"
	 viewBox="0 0 300 265" style="enable-background:new 0 0 300 265;" xml:space="preserve">
<style type="text/css">
	.st0{fill:#B0C4DE;}
	.st1{fill:#CBE3F3;}
	.st2{fill:#FFFFFF;}
	.st3{fill:#003764;}
	.st4{fill:#8FC7E8;}
	.st5{opacity:0.53;fill:#B0D6EE;enable-background:new    ;}
	.st6{opacity:0.78;fill:#F4CD00;enable-background:new    ;}
	.st7{fill:#001A44;stroke:#001A44;stroke-width:1.0743;stroke-miterlimit:10;}
	.st8{fill:none;stroke:#003764;stroke-width:3.9339;stroke-miterlimit:10;}
	.st9{fill:#001A44;stroke:#001A44;stroke-width:1.0946;stroke-miterlimit:10;}
	.st10{fill:#2B6EAE;}
	.st11{fill:#FCE444;}
	.st12{fill:none;stroke:#F59A00;stroke-miterlimit:9.9997;}
	.st13{opacity:0.78;fill:#F59A00;enable-background:new    ;}
	.st14{font-family:'ArialMT';}
	.st15{font-size:8.461px;}
	.st16{fill:#F4CD00;}
	.st17{fill:#F7C5B4;}
	.st18{fill:#DA806C;}
	.st19{fill:#222720;}
	.st20{fill:#3C3C3B;}
	.st21{fill:none;}
	.st22{opacity:0.37;fill:#2B6EAE;enable-background:new    ;}
	.st23{fill:#646464;}
	.st24{fill:#A9A9A9;}
	.st25{fill:#A6DFFF;}
	.st26{fill:#CD5D62;}
	.st27{fill:none;stroke:#FFFFFF;stroke-width:2.3389;stroke-linecap:round;stroke-linejoin:round;stroke-miterlimit:10;}
	.st28{fill:#E3EDF7;}
	.st29{fill:#959AB5;}
	.st30{fill:#A4EEFF;}
	.st31{fill:#01BBEC;}
	.st32{opacity:0.25;fill:#C0C1C4;enable-background:new    ;}
	.st33{fill:#D8D2D4;}
	.st34{fill:none;stroke:#01BBEC;stroke-width:0.9458;stroke-miterlimit:10;}
	.st35{fill:none;stroke:#01BBEC;stroke-width:1.5313;stroke-linecap:round;stroke-miterlimit:10;}
	.st36{fill:#5699E8;}
	.st37{fill:#71B8FF;}
	.st38{fill:none;stroke:#F4CD00;stroke-width:3;stroke-miterlimit:10.0002;}
</style>
<g id="BACKGROUND">
</g>
<g id="OBJECTS">
	<g id="XMLID_145_">
		<g id="XMLID_382_">
			<path id="XMLID_684_" class="st0" d="M278.1,115.2H156c-8.1,0-14.6-6.6-14.6-14.6V27c0-8.1,6.6-14.6,14.6-14.6h122.1
				c8.1,0,14.6,6.6,14.6,14.6v73.6C292.8,108.7,286.2,115.2,278.1,115.2z"/>
			<rect id="XMLID_683_" x="147.1" y="18.7" class="st1" width="140" height="84.7"/>
			<rect id="XMLID_682_" x="150.8" y="22.3" class="st2" width="132.4" height="76.8"/>
			<circle id="XMLID_390_" class="st3" cx="217" cy="109.6" r="3.1"/>
			<rect id="XMLID_389_" x="150.8" y="22.3" class="st4" width="132.4" height="6.3"/>
			<path id="XMLID_388_" class="st2" d="M156.6,25.5c0,0.8-0.6,1.4-1.4,1.4c-0.8,0-1.4-0.6-1.4-1.4s0.6-1.4,1.4-1.4
				C156,24,156.6,24.7,156.6,25.5z"/>
			<circle id="XMLID_384_" class="st2" cx="159.5" cy="25.5" r="1.4"/>
			<circle id="XMLID_383_" class="st2" cx="164.2" cy="25.5" r="1.4"/>
		</g>
		<path id="XMLID_97_" class="st5" d="M147.1,103.4h140V18.7C287.1,18.7,288,110.3,147.1,103.4z"/>
		<g id="XMLID_298_">
			<path id="XMLID_381_" class="st4" d="M166.1,44.8v-1.3c0.9-0.7,1.4-2,1.4-3.3c0-2.2-1.5-4.1-3.3-4.1s-3.3,1.8-3.3,4.1
				c0,1.4,0.6,2.6,1.4,3.3v1.3c-4.7,0.3-4.8,3.6-4.8,3.6h6.7h6.7C170.9,48.4,170.8,45.1,166.1,44.8z"/>
			<rect id="XMLID_380_" x="157.5" y="51.3" class="st4" width="46.8" height="1.6"/>
			<rect id="XMLID_379_" x="157.5" y="54.3" class="st4" width="46.8" height="1.6"/>
			<rect id="XMLID_378_" x="157.5" y="57.5" class="st4" width="46.8" height="1.6"/>
			<rect id="XMLID_377_" x="157.5" y="60.5" class="st4" width="46.8" height="1.6"/>
		</g>
		<rect id="XMLID_297_" x="231.8" y="39.9" class="st4" width="46.8" height="1.6"/>
		<rect id="XMLID_292_" x="231.8" y="42.9" class="st4" width="46.8" height="1.6"/>
		<rect id="XMLID_273_" x="231.8" y="46.1" class="st4" width="46.8" height="1.6"/>
		<rect id="XMLID_198_" x="231.8" y="49.1" class="st4" width="46.8" height="1.6"/>
		<g id="XMLID_192_">
			<rect id="XMLID_197_" x="231.8" y="78.4" class="st4" width="46.8" height="1.6"/>
			<rect id="XMLID_196_" x="231.8" y="81.4" class="st4" width="46.8" height="1.6"/>
			<rect id="XMLID_195_" x="231.8" y="84.6" class="st4" width="46.8" height="1.6"/>
			<rect id="XMLID_194_" x="231.8" y="87.6" class="st4" width="46.8" height="1.6"/>
		</g>
		<g id="XMLID_183_">
			<polygon id="XMLID_190_" class="st6" points="253,71.7 272.2,71.7 262.6,55.8 			"/>
			<g id="XMLID_186_">
				<path id="XMLID_188_" class="st2" d="M263.6,69.2c0,0.5-0.4,1-1,1c-0.5,0-1-0.4-1-1s0.4-1,1-1C263.1,68.2,263.6,68.7,263.6,69.2
					z"/>
				<path id="XMLID_187_" class="st2" d="M262.8,67.4c0.8,0,0.9-1.3,0.9-1.3l0.3-2.7c0.4-2.7-1.2-2.6-1.2-2.6h-0.3
					c0,0-1.6-0.1-1.2,2.6l0.3,2.7c0,0,0.1,1.3,0.9,1.3H262.8z"/>
			</g>
		</g>
		<ellipse id="XMLID_143_" class="st6" cx="216.9" cy="62.1" rx="30.7" ry="30.7"/>
		<g id="XMLID_135_">
			<path id="XMLID_142_" class="st7" d="M222,79.9h-9.8c-4.2,0-7.6-3.4-7.6-7.6v-8.8c0-4.2,3.4-7.6,7.6-7.6h9.8
				c4.2,0,7.6,3.4,7.6,7.6v8.8C229.6,76.5,226.2,79.9,222,79.9z"/>
			<path id="XMLID_141_" class="st3" d="M221.7,77.3h-12.3c-2.8,0-5-2.2-5-5V60.7c0-2.8,2.2-5,5-5h12.3c2.8,0,5,2.2,5,5v11.6
				C226.7,75,224.4,77.3,221.7,77.3z"/>
			<path id="XMLID_140_" class="st8" d="M209.4,51.4v-2.6c0,0-0.4-5.7,5.9-6.1h0.8c6.4,0.4,5.9,6.1,5.9,6.1v7.3"/>
			<g id="XMLID_136_">
				<path id="XMLID_138_" class="st9" d="M219.1,69.1c0,1.6-1.3,2.9-2.9,2.9c-1.6,0-2.9-1.3-2.9-2.9s1.3-2.9,2.9-2.9
					S219.1,67.5,219.1,69.1z"/>
				<circle id="XMLID_137_" class="st9" cx="216.3" cy="64.5" r="2"/>
			</g>
		</g>
	</g>
	<g id="XMLID_125_">
		<path id="XMLID_134_" class="st5" d="M288.5,206.1h-64.4c-3.1,0-5.6-2.5-5.6-5.6v-10c0-3.1,2.5-5.6,5.6-5.6h64.4
			c3.1,0,5.6,2.5,5.6,5.6v10C294.1,203.7,291.6,206.1,288.5,206.1z"/>
		<path id="XMLID_133_" class="st4" d="M287.2,205.1h-64.4c-3.1,0-5.6-2.5-5.6-5.6v-10c0-3.1,2.5-5.6,5.6-5.6h64.4
			c3.1,0,5.6,2.5,5.6,5.6v10C292.8,202.6,290.3,205.1,287.2,205.1z"/>
		<g id="XMLID_129_">
			<rect id="XMLID_132_" x="241.7" y="189.9" class="st10" width="46" height="1.3"/>
			<rect id="XMLID_131_" x="241.7" y="193.8" class="st10" width="46" height="1.3"/>
			<rect id="XMLID_130_" x="241.7" y="198.3" class="st10" width="22.5" height="1.3"/>
		</g>
		<g id="XMLID_126_">
			<g id="XMLID_128_">
				<path id="XMLID_3_" class="st10" d="M229.7,202.6c-4.1,0-7.5-3.4-7.5-7.5s3.4-7.5,7.5-7.5s7.5,3.4,7.5,7.5
					C237.2,199.3,233.8,202.6,229.7,202.6z M229.7,189c-3.4,0-6.2,2.8-6.2,6.2s2.8,6.2,6.2,6.2s6.2-2.8,6.2-6.2
					C235.8,191.7,233.1,189,229.7,189z"/>
			</g>
			<g id="XMLID_127_">
				
					<rect id="XMLID_2_" x="222.9" y="194.5" transform="matrix(0.7071 -0.7071 0.7071 0.7071 -70.7483 219.6059)" class="st10" width="13.6" height="1.4"/>
			</g>
		</g>
	</g>
	<g id="XMLID_110_">
		<path id="XMLID_124_" class="st4" d="M288.5,235.4h-64.4c-3.1,0-5.6-2.5-5.6-5.6v-10c0-3.1,2.5-5.6,5.6-5.6h64.4
			c3.1,0,5.6,2.5,5.6,5.6v10C294.1,232.9,291.6,235.4,288.5,235.4z"/>
		<g id="XMLID_118_">
			<path id="XMLID_123_" class="st10" d="M287.2,234h-64.4c-3.1,0-5.6-2.5-5.6-5.6v-10c0-3.1,2.5-5.6,5.6-5.6h64.4
				c3.1,0,5.6,2.5,5.6,5.6v10C292.8,231.5,290.3,234,287.2,234z"/>
			<g id="XMLID_119_">
				<rect id="XMLID_122_" x="241.7" y="218.8" class="st2" width="46" height="1.3"/>
				<rect id="XMLID_121_" x="241.7" y="222.7" class="st2" width="46" height="1.3"/>
				<rect id="XMLID_120_" x="241.7" y="227.3" class="st2" width="22.5" height="1.3"/>
			</g>
		</g>
		<g id="XMLID_111_">
			<circle id="XMLID_117_" class="st11" cx="229.7" cy="223.4" r="7.6"/>
			<g id="XMLID_112_">
				<ellipse id="XMLID_116_" class="st12" cx="229.6" cy="223.4" rx="5.9" ry="5.9"/>
				<text id="XMLID_115_" transform="matrix(1 0 0 1 227.6354 226.1497)" class="st13 st14 st15">$</text>
			</g>
		</g>
	</g>
	<g id="XMLID_98_">
		<circle id="XMLID_103_" class="st4" cx="93.1" cy="40.2" r="19.9"/>
		<ellipse id="XMLID_102_" class="st16" cx="91.1" cy="39.7" rx="19.9" ry="19.9"/>
		<g id="XMLID_99_">
			<path id="XMLID_101_" class="st3" d="M93.7,41.6v-1.9h-1.8v-2.9h1.8v-1.4H92V34h1.7v-1.5H92V31h1.7v-2.3l-3.1-3.6h-2.2v16.4
				c-2.1,1-3.6,3.1-3.6,5.6c0,3.4,2.8,6.2,6.2,6.2s6.2-2.8,6.2-6.2C97.3,44.7,95.8,42.6,93.7,41.6z"/>
			<path id="XMLID_100_" class="st16" d="M92.4,49.2c0,0.7-0.6,1.3-1.3,1.3c-0.7,0-1.3-0.6-1.3-1.3s0.6-1.3,1.3-1.3
				S92.4,48.5,92.4,49.2z"/>
		</g>
	</g>
	<g id="XMLID_10_">
		<path id="XMLID_96_" class="st17" d="M59.7,235.3c-5.1-2.9-15.3-7.9-20.5-10.4c-7.2,25.5-4.5,35.1,6,36.3
			c3.5,0.4,6.9,1.2,10.3,0.6c8.3-1.4,16.4-3.8,24.1-7.3c-0.5-2.8-0.4-6.3-0.9-9.1c-6.9-1.1-14.6-2.7-21.5-3.9L59.7,235.3z"/>
		<g id="XMLID_88_">
			<path class="st18" d="M52.7,242.3c0.3-0.3,0.7-0.5,1-0.7c0.4-0.2,0.8-0.4,1.2-0.4c0.5-0.1,0.9,0,1.3,0c0.4,0.1,0.8,0.2,1.2,0.3
				c-0.4,0.2-0.8,0.3-1.2,0.4c-0.4,0.1-0.8,0.1-1.2,0.2C54.4,242.2,53.6,242.4,52.7,242.3z"/>
		</g>
		<path id="XMLID_87_" class="st17" d="M174.5,235.3c5.1-2.9,15.3-7.9,20.5-10.4c7.2,25.5,4.5,35.1-6,36.3
			c-3.5,0.4-6.9,1.2-10.3,0.6c-8.3-1.4-16.4-3.8-24.1-7.3c0.5-2.8,0.4-6.3,0.9-9.1c6.9-1.1,14.6-2.7,21.5-3.9L174.5,235.3z"/>
		<g id="XMLID_84_">
			<path class="st18" d="M181.5,242.3c-0.9,0.1-1.7-0.1-2.4-0.2c-0.3-0.1-0.8-0.1-1.2-0.2c-0.4-0.1-0.8-0.2-1.2-0.4
				c0.4-0.2,0.8-0.3,1.2-0.3c0.4-0.1,0.8-0.1,1.3,0s0.9,0.2,1.2,0.4C180.9,241.8,181.2,242,181.5,242.3z"/>
		</g>
		<g id="XMLID_82_">
			<path id="XMLID_83_" class="st19" d="M68,261.9c0-12.2,0.4-20.2,0.6-36L63,237.6l-24.9-13.4c2.2-7.6,6.2-13.9,10.6-21.1
				c9.1-14.8,25.5-24.3,43.3-29.4c7-2,14.3-3.8,24.4-3.9h1.2c10.2,0.1,18.7,1.7,25.8,3.3c17,3.9,32.8,15.1,41.9,29.9
				c4.4,7.1,8.5,13.5,10.6,21.1L171,237.5l-5.5-11.7c0.2,15.8,0.6,23.7,0.6,36L68,261.9z"/>
		</g>
		<path id="XMLID_81_" class="st17" d="M107.8,143.1c-0.6,5.1-3.8,21.1-4.6,22.8c-1.4,2.7-7.1,6.1-9.4,7.4c0,0,0.6,9.1,24.6,9.3
			c23.7,0.2,25.2-9.4,25.2-9.4c-2.3-1.3-8.9-3.3-10-7.3c-0.5-1.8-3.6-17-4.3-22.1L107.8,143.1z"/>
		<path id="XMLID_80_" class="st17" d="M144.7,101.7c2,10.9-0.8,32.7-3.2,41.3c-0.9,3.5-2,7.1-4.2,10c-11.2,14.1-26,9.6-30.9,6.4
			c-3.8-2.5-6.9-6-8.7-10.2c-4.5-10.8-6.4-22.7-5.3-34.4c0,0-1.3-30.5,29.9-30.5C122.2,84.3,141.4,83.6,144.7,101.7z"/>
		<path id="XMLID_79_" class="st17" d="M93.7,131.6c-0.7,1-2.2,0.9-3.1,0.2s-1.3-1.9-1.6-3.1c-0.2-1.1-0.3-2.3-0.3-3.4
			c0-0.8,0.2-1.7,0.7-2.3c0.5-0.6,1.5-0.9,2.2-0.7c0.8,0.2,1.4,1,1.5,1.8L93.7,131.6z"/>
		<path id="XMLID_78_" class="st17" d="M143.5,124.1c0.3-0.8,0.7-1.6,1.5-1.8c0.8-0.2,1.7,0,2.2,0.7c0.5,0.6,0.7,1.5,0.7,2.3
			c0.1,1.2,0,2.3-0.3,3.4c-0.2,1.2-0.6,2.4-1.6,3.1c-0.9,0.7-2.5,0.8-3.1-0.2C143,131.6,142.3,127.8,143.5,124.1z"/>
		<g id="XMLID_75_">
			<path class="st18" d="M117.9,132.7c-0.1,0.3-0.1,0.8-0.2,1.3l-0.1,1.4l-0.3,2.8l-0.1,1.4c0,0.5-0.1,0.9,0,1.2
				c0,0.1,0,0.2,0.1,0.3s0.2,0.2,0.3,0.3c0.3,0.2,0.7,0.3,1.2,0.5l0,0c0.2,0.1,0.4,0.4,0.3,0.6c-0.1,0.2-0.2,0.3-0.4,0.3
				c-0.5,0-1,0-1.6-0.2c-0.3-0.1-0.6-0.3-0.8-0.5c-0.3-0.3-0.4-0.7-0.5-1c-0.1-0.6,0-1.1,0.1-1.6l0.2-1.4c0.1-0.9,0.3-1.9,0.5-2.8
				c0.1-0.5,0.2-0.9,0.3-1.4c0.1-0.5,0.2-0.9,0.4-1.5c0.1-0.2,0.3-0.3,0.5-0.2S118.1,132.5,117.9,132.7L117.9,132.7z"/>
		</g>
		<path id="XMLID_74_" class="st20" d="M121.6,126.7c0.1-1.8,1.3-3.5,3-4.1c0.1,0.1,0.1,0.4,0.2,0.5c0.5-0.1,0.9-0.3,1.4-0.5
			c0.1,0.2,0.2,0.3,0.3,0.6c3.1-0.7,6.4-0.4,9.3,1c1.3,0.5,2.6,1.4,3,2.7c-0.4,0.2-0.8,0.1-1.2,0c-5.2-1.5-8.7-1.8-15.7,0.2
			C121.8,127,121.5,127.1,121.6,126.7z"/>
		<path id="XMLID_73_" class="st20" d="M95.7,92.2c3.5-6,11-9.7,17.9-8.8c3.1,0.4,14.8-7.6,29.2,9.9c2.1,2.6,5.1,10.8,4.2,20.1
			c-7.2,0-14.7-2.8-21-6.2c1.5,3.1,3.7,5.8,6.4,7.8c-7.9,0.7-16-1.7-22.2-6.6c0.1,1.6,0.4,3.1,0.9,4.6c-8.8-2.2-9.1-9.6-9.1-9.6
			c0.3,3,0,6-0.9,8.9c-1.2,3.9-3.4,7.4-6.1,10.5c-0.7,0.8-1.9,1.7-2.9,1.2c-0.5-0.3-0.7-0.8-0.9-1.3C86.2,110,93.7,95.4,95.7,92.2"
			/>
		<path id="XMLID_72_" class="st20" d="M140.9,108.2c-0.7,4.6,0.2,9.4,2.4,13.6c0.3,0.5,0.6,1,1.1,1.1s0.9-0.2,1.2-0.6
			c0.2-0.4,0.3-0.9,0.4-1.3c0.9-4.7,1.7-9.8-0.3-14.2c-0.1-0.3-0.3-0.7-0.6-0.9c-0.3-0.3-0.7-0.4-1.1-0.4c-1.7,0-3.2,1.5-3.2,3.2"/>
		<path id="XMLID_71_" class="st17" d="M130.3,159.4c0,0-9.8,7.4-24,0.1C106.4,159.4,118.8,173.2,130.3,159.4z"/>
		<polygon id="XMLID_70_" class="st10" points="169.5,258.8 65.4,258.8 51.8,180.9 183.3,180.9 		"/>
		<line id="XMLID_69_" class="st21" x1="51.8" y1="180.9" x2="183.3" y2="180.9"/>
		<path id="XMLID_68_" class="st22" d="M65.4,258.8h104.1l13.8-77.9C183.3,180.9,172.3,270.8,65.4,258.8"/>
		<rect id="XMLID_67_" y="258.8" class="st23" width="235" height="6.2"/>
		<path id="XMLID_66_" class="st20" d="M114.1,126.7c-0.1-1.8-1.3-3.5-3-4.1c-0.1,0.1-0.1,0.4-0.2,0.5c-0.5-0.1-0.9-0.3-1.4-0.5
			c-0.1,0.2-0.2,0.3-0.3,0.6c-3.1-0.7-6.4-0.4-9.3,0.9c-1.3,0.5-2.6,1.4-3,2.7c0.4,0.2,0.8,0.1,1.2,0c5.2-1.5,8.7-1.8,15.7,0.2
			C113.8,127.1,114.2,127.1,114.1,126.7z"/>
		<g id="XMLID_63_">
			<path class="st18" d="M121.5,150.3c-1,1-2.5,1.5-3.9,1.6s-2.9-0.2-4.1-1.1c-0.2-0.2-0.3-0.6-0.2-0.7c0.2-0.1,0.3-0.3,0.5-0.2l0,0
				c1.2,0.3,2.3,0.4,3.5,0.3c1.2-0.1,2.3-0.3,3.5-0.7l0,0c0.3-0.1,0.5,0.1,0.6,0.3C121.7,150,121.6,150.2,121.5,150.3z"/>
		</g>
		<path id="XMLID_62_" class="st19" d="M149.2,107.2c-0.3-1.6-1.3-2.8-2.6-3.7h0.1c0.3-6.4-2.4-10.3-5-14.4c-2.5-4-7.7-7.4-12.2-9
			c-5.1-1.8-10.8-4.3-16-2.9c-4.7,1.2-9,6.3-13,9c-3.8,2.6-7,8.2-8.4,12.8c-0.5,0.1-0.9,0.3-1.2,0.4c-2.3,1.1-2.8,4.4-3.2,6.9
			c-0.1,0.5-0.2,1.1,0,1.6c0.5,1.4,2.5,1.1,3.9,0.6c9.2-3.2,19-5.2,28.7-4.6s19.5,3.8,26.9,10.1
			C148.2,112.3,149.5,109.3,149.2,107.2z"/>
		<path id="XMLID_57_" class="st20" d="M133.1,135c0,1.3-0.8,2.4-1.8,2.4s-1.8-1.1-1.8-2.4c0-1.3,0.8-2.4,1.8-2.4
			S133.1,133.7,133.1,135z"/>
		<path id="XMLID_56_" class="st20" d="M105.4,135c0,1.3-0.8,2.4-1.8,2.4s-1.8-1.1-1.8-2.4c0-1.3,0.8-2.4,1.8-2.4
			S105.4,133.7,105.4,135z"/>
	</g>
	<g>
		<g>
			<g>
				<path class="st23" d="M54.9,138.5H17.3c-3.8,0-6.8-3.9-6.8-8.8v-27.4c0-4.8,3-8.8,6.8-8.8h37.6c3.8,0,6.8,3.9,6.8,8.8v27.5
					C61.7,134.6,58.7,138.5,54.9,138.5z"/>
			</g>
			<g>
				<polyline class="st24" points="13.3,135.3 36.1,111 58.9,135.3 				"/>
				<path class="st25" d="M13.3,135.3c1.6-2.5,3.3-4.8,5-7.1c1.7-2.3,3.5-4.5,5.3-6.7c3.6-4.4,7.3-8.6,11.1-12.6l1.4-1.5l1.4,1.5
					c1.9,2,3.8,4.1,5.6,6.2c1.9,2.1,3.7,4.2,5.5,6.4c1.8,2.2,3.5,4.4,5.3,6.7c1.7,2.3,3.4,4.6,5,7.1c-2.2-1.5-4.3-3.3-6.4-5
					c-2.1-1.8-4.1-3.6-6.1-5.4c-2-1.9-4-3.8-5.9-5.7c-1.9-2-3.9-3.9-5.8-6h2.8c-3.8,4-7.7,7.9-11.7,11.7c-2,1.9-4.1,3.6-6.1,5.4
					C17.6,132,15.5,133.7,13.3,135.3z"/>
			</g>
			<g>
				<polyline class="st24" points="14.2,96.3 36.1,119.7 58.1,96.3 				"/>
				<path class="st25" d="M14.2,96.3c2.1,1.5,4.2,3.1,6.2,4.8c2,1.7,4,3.4,5.9,5.2c3.9,3.6,7.6,7.3,11.3,11.2h-2.8
					c1.8-1.9,3.7-3.9,5.6-5.7c1.9-1.9,3.8-3.7,5.7-5.5s3.9-3.5,5.9-5.2s4-3.3,6.2-4.8c-1.5,2.4-3.2,4.7-4.8,6.9
					c-1.7,2.2-3.4,4.4-5.1,6.5s-3.5,4.2-5.3,6.2s-3.6,4-5.4,6l-1.5,1.4l-1.4-1.5c-3.7-3.9-7.2-7.9-10.7-12.2
					c-1.7-2.1-3.4-4.3-5.1-6.5C17.3,100.9,15.7,98.7,14.2,96.3z"/>
			</g>
		</g>
		<ellipse class="st26" cx="51.3" cy="93.6" rx="5.2" ry="6.7"/>
		<polyline class="st27" points="48.3,93.1 50.6,96.6 54.2,91.4 		"/>
		<polygon class="st28" points="190.3,138.9 176.8,150.7 163.2,138.9 		"/>
		<path class="st29" d="M190.3,138.9l-12.5-16.5c-0.6-0.7-1.5-0.7-2,0l-12.5,16.5H190.3z"/>
		<g>
			<path class="st30" d="M188.1,155.7h-22.6v-25c0-2.1,1.3-3.8,3-3.8h16.7c1.6,0,3,1.7,3,3.8L188.1,155.7L188.1,155.7z"/>
			<path class="st31" d="M188.1,130.7h-22.6l0,0c0-2.1,1.3-3.8,3-3.8h16.7C186.7,126.8,188.1,128.6,188.1,130.7L188.1,130.7z"/>
			<path class="st2" d="M167.9,128.8c0,0.5-0.3,0.8-0.6,0.8c-0.4,0-0.6-0.4-0.6-0.8c0-0.4,0.3-0.8,0.6-0.8
				C167.6,128,167.9,128.3,167.9,128.8z"/>
			<path class="st2" d="M170,128.8c0,0.5-0.3,0.8-0.6,0.8s-0.6-0.4-0.6-0.8c0-0.4,0.3-0.8,0.6-0.8S170,128.3,170,128.8z"/>
			<path class="st2" d="M172.1,128.8c0,0.5-0.3,0.8-0.6,0.8c-0.4,0-0.6-0.4-0.6-0.8c0-0.4,0.3-0.8,0.6-0.8S172.1,128.3,172.1,128.8z
				"/>
			<g>
				<g>
					<path class="st2" d="M172.4,140.5h-3.5l-0.7,2.1h-1.3l3.1-8.9h1.3l3.1,8.9h-1.3L172.4,140.5z M171.9,139.2l-1.3-3.9l-1.3,3.9
						H171.9z"/>
				</g>
				<rect x="176" y="133.5" class="st2" width="10.2" height="0.8"/>
				<rect x="176" y="135.8" class="st2" width="10.2" height="0.8"/>
				<rect x="176" y="138" class="st2" width="10.2" height="0.8"/>
				<rect x="176" y="140.3" class="st2" width="10.2" height="0.8"/>
				<rect x="176" y="142.5" class="st2" width="10.2" height="0.8"/>
				<rect x="167.3" y="144.8" class="st2" width="19" height="0.8"/>
				<rect x="167.3" y="147" class="st2" width="19" height="0.8"/>
				<rect x="167.3" y="149.3" class="st2" width="19" height="0.8"/>
				<rect x="167.3" y="151.5" class="st2" width="19" height="0.8"/>
			</g>
		</g>
		<path class="st29" d="M190.3,138.9v21.5c0,0.6-0.2,1.2-0.6,1.6c-0.3,0.3-0.7,0.5-1.1,0.5h-23.8c-0.9,0-1.6-0.9-1.6-2.1v-21.5
			l13.5,11.8l0,0L190.3,138.9z"/>
		<path class="st32" d="M190.3,138.9v21.5c0,0.6-0.2,1.2-0.6,1.6l-12.9-11.3L190.3,138.9z"/>
		<path class="st31" d="M40.9,35.5H23c-3.8,0-6.8-2.8-6.8-6.4V12.4C16.1,8.8,19.2,6,23,6h18.1c3.8,0,6.8,2.8,6.8,6.4v16.7
			C47.9,32.5,44.8,35.5,40.9,35.5z"/>
		<g>
			<path class="st33" d="M36.1,14.3c0,2.1-1.9,3.8-4.1,3.8s-4.2-1.7-4.2-3.8s1.9-3.8,4.1-3.8C34.2,10.5,36.1,12.2,36.1,14.3z"/>
			<path class="st33" d="M32.1,19.1C27.6,19,24,22.5,24,26.6v2.6c0,0.4,0.4,0.9,0.9,0.9h14c0.5,0,0.9-0.4,0.9-0.9v-2.8
				C39.8,22.5,36.3,19.2,32.1,19.1z"/>
		</g>
		<path class="st31" d="M46.6,41.6H17.3c-0.6,0-1.2-0.5-1.2-1.2l0,0c0-0.6,0.5-1.2,1.2-1.2h29.4c0.6,0,1.2,0.5,1.2,1.2l0,0
			C47.9,41.1,47.4,41.6,46.6,41.6z"/>
		<path class="st31" d="M46.6,46.1H17.3c-0.6,0-1.2-0.5-1.2-1.2l0,0c0-0.6,0.5-1.2,1.2-1.2h29.4c0.6,0,1.2,0.5,1.2,1.2l0,0
			C47.9,45.6,47.4,46.1,46.6,46.1z"/>
		<g>
			<path class="st34" d="M280.9,248.5h-51.3c-1.4,0-2.5-1.4-2.5-3.2l0,0c0-1.8,1.1-3.2,2.5-3.2h51.3c1.4,0,2.5,1.4,2.5,3.2l0,0
				C283.4,247.1,282.3,248.5,280.9,248.5z"/>
			<g>
				<line class="st35" x1="230.4" y1="244" x2="230.4" y2="246.6"/>
				<line class="st35" x1="231.4" y1="245.3" x2="229.4" y2="245.3"/>
				<line class="st35" x1="231.1" y1="244.4" x2="229.7" y2="246.2"/>
				<line class="st35" x1="231.1" y1="246.2" x2="229.7" y2="244.4"/>
			</g>
			<g>
				<line class="st35" x1="234.7" y1="244" x2="234.7" y2="246.6"/>
				<line class="st35" x1="235.7" y1="245.3" x2="233.7" y2="245.3"/>
				<line class="st35" x1="235.4" y1="244.4" x2="234" y2="246.2"/>
				<line class="st35" x1="235.4" y1="246.2" x2="234" y2="244.4"/>
			</g>
			<g>
				<line class="st35" x1="239" y1="244" x2="239" y2="246.6"/>
				<line class="st35" x1="240" y1="245.3" x2="238" y2="245.3"/>
				<line class="st35" x1="239.7" y1="244.4" x2="238.3" y2="246.2"/>
				<line class="st35" x1="239.7" y1="246.2" x2="238.3" y2="244.4"/>
			</g>
			<g>
				<line class="st35" x1="243.4" y1="244" x2="243.4" y2="246.6"/>
				<line class="st35" x1="244.4" y1="245.3" x2="242.4" y2="245.3"/>
				<line class="st35" x1="244.1" y1="244.4" x2="242.7" y2="246.2"/>
				<line class="st35" x1="244.1" y1="246.2" x2="242.7" y2="244.4"/>
			</g>
			<g>
				<line class="st35" x1="247.7" y1="244" x2="247.7" y2="246.6"/>
				<line class="st35" x1="248.7" y1="245.3" x2="246.7" y2="245.3"/>
				<line class="st35" x1="248.4" y1="244.4" x2="247" y2="246.2"/>
				<line class="st35" x1="248.4" y1="246.2" x2="247" y2="244.4"/>
			</g>
			<g>
				<line class="st35" x1="252" y1="244" x2="252" y2="246.6"/>
				<line class="st35" x1="253" y1="245.3" x2="251.1" y2="245.3"/>
				<line class="st35" x1="252.8" y1="244.4" x2="251.3" y2="246.2"/>
				<line class="st35" x1="252.8" y1="246.2" x2="251.3" y2="244.4"/>
			</g>
			<g>
				<line class="st35" x1="256.4" y1="244" x2="256.4" y2="246.6"/>
				<line class="st35" x1="257.4" y1="245.3" x2="255.4" y2="245.3"/>
				<line class="st35" x1="257.1" y1="244.4" x2="255.7" y2="246.2"/>
				<line class="st35" x1="257.1" y1="246.2" x2="255.7" y2="244.4"/>
			</g>
		</g>
		<g>
			<path class="st36" d="M206,170.3v0.3c0,0.7-0.4,1.2-0.9,1.2h-6.6c-0.5,0-0.9,0.5-0.9,1.2v11.5c0,0.7,0.4,1.2,0.9,1.2h13.4
				c0.5,0,0.9-0.5,0.9-1.2v-14.2c0-0.7-0.4-1.2-0.9-1.2H207C206.4,169.1,206,169.7,206,170.3z"/>
			<path class="st37" d="M210.6,184.5l-0.1-0.3l0,0l0,0l-1.5-7.5c-0.1-0.7-0.6-1.2-1.2-1.2h-11.5c-0.4,0-0.7,0.5-0.6,1l1.6,7.9
				c0.2,0.8,0.7,1.3,1.3,1.3h11.7h0.5h1C211,185.7,210.7,185,210.6,184.5z"/>
		</g>
		<g>
			<g>
				<ellipse class="st38" cx="256.3" cy="142.2" rx="10.3" ry="13.3"/>
				<path class="st16" d="M261.1,145.6c0-0.9-0.2-1.7-0.5-2.3c-0.4-0.6-0.8-1-1.4-1.3c-0.5-0.3-1.2-0.5-1.9-0.8v-4.6
					c0.5,0.1,1.1,0.3,1.6,0.5c0.5,0.3,1.1,0,1.2-0.7c0.1-0.3,0.1-0.7,0-1s-0.3-0.5-0.5-0.6c-0.7-0.4-1.5-0.6-2.4-0.7v-1.4
					c0-0.7-0.5-1.3-1-1.3c-0.6,0-1,0.6-1,1.3v1.5c-1.2,0.2-2.2,0.7-2.8,1.6c-0.7,0.9-1,1.9-1,3.1c0,0.9,0.2,1.7,0.5,2.3
					c0.4,0.6,0.8,1,1.4,1.3c0.5,0.3,1.2,0.6,1.9,0.8v4.5c-0.6-0.1-1.2-0.3-1.8-0.6c-0.2-0.1-0.4-0.2-0.6-0.3
					c-0.1-0.1-0.2-0.1-0.4-0.1c-0.1,0-0.2,0-0.3,0.1c-0.3,0.1-0.4,0.4-0.6,0.7c-0.2,0.6,0,1.4,0.5,1.7c0.3,0.2,0.6,0.3,0.9,0.4
					c0.7,0.3,1.5,0.5,2.3,0.6v1.4c0,0.7,0.5,1.3,1,1.3c0.6,0,1-0.6,1-1.3v-1.5c1.2-0.2,2.2-0.7,2.8-1.6
					C260.8,147.8,261.1,146.8,261.1,145.6z M254.2,139.9c-0.3-0.3-0.4-0.7-0.4-1.2s0.1-0.9,0.4-1.3c0.2-0.3,0.6-0.6,1-0.7v3.8
					C254.8,140.4,254.5,140.1,254.2,139.9z M258.3,147.1c-0.2,0.3-0.6,0.5-1,0.7V144c0.4,0.2,0.8,0.4,1,0.7c0.3,0.3,0.4,0.7,0.4,1.2
					C258.7,146.3,258.6,146.7,258.3,147.1z"/>
			</g>
		</g>
	</g>
</g>
</svg>
