<?xml version="1.0" encoding="utf-8"?>
<!-- Generator: Adobe Illustrator 25.1.0, SVG Export Plug-In . SVG Version: 6.00 Build 0)  -->
<svg version="1.1" id="Layer_1" xmlns="http://www.w3.org/2000/svg" xmlns:xlink="http://www.w3.org/1999/xlink" x="0px" y="0px"
	 viewBox="0 0 300 265" style="enable-background:new 0 0 300 265;" xml:space="preserve">
<style type="text/css">
	.st0{fill:#96FFFF;}
	.st1{fill:#BEA8CA;}
	.st2{opacity:0.3;fill:url(#SVGID_1_);enable-background:new    ;}
	.st3{opacity:0.3;fill:url(#SVGID_2_);enable-background:new    ;}
	.st4{opacity:0.3;fill:url(#SVGID_3_);enable-background:new    ;}
	.st5{opacity:0.3;fill:url(#SVGID_4_);enable-background:new    ;}
	.st6{fill:#E9BC7B;}
	.st7{fill:#D8A767;}
	.st8{fill:url(#SVGID_5_);}
	.st9{fill:#34571A;}
	.st10{fill:url(#SVGID_6_);}
	.st11{fill:#2B2D33;}
	.st12{fill:none;}
	.st13{fill:#E8E8E8;}
	.st14{fill:url(#SVGID_7_);}
	.st15{fill:url(#SVGID_8_);}
	.st16{fill:#E17855;}
	.st17{opacity:0.5;}
	.st18{fill:url(#SVGID_9_);}
	.st19{fill:#5C1C9E;}
	.st20{fill:#BD8452;}
	.st21{fill:#969798;}
	.st22{fill:url(#SVGID_10_);}
	.st23{fill:#FFFFFF;}
	.st24{fill:#784539;}
	.st25{fill:url(#SVGID_11_);}
	.st26{opacity:0.37;fill:url(#SVGID_12_);enable-background:new    ;}
	.st27{opacity:0.5;fill:url(#SVGID_13_);enable-background:new    ;}
	.st28{opacity:0.5;fill:url(#SVGID_14_);enable-background:new    ;}
	.st29{opacity:0.3;fill:url(#SVGID_15_);enable-background:new    ;}
	.st30{opacity:0.25;fill:#E17855;enable-background:new    ;}
	.st31{fill:#141516;}
	.st32{fill:#966432;}
	.st33{fill:none;stroke:#263238;stroke-width:2;stroke-miterlimit:10;}
	.st34{fill:#455A64;}
	.st35{fill:#263238;}
	.st36{fill:#C7C7C7;}
	.st37{fill:#FFC727;}
	.st38{opacity:0.2;enable-background:new    ;}
	.st39{opacity:0.2;}
	.st40{fill:#37474F;}
	.st41{fill:#EBEBEB;}
	.st42{fill:#E1FFFF;}
	.st43{fill:#A6A6A6;}
	.st44{fill:#EAEAEA;}
	.st45{fill:#D8D8D8;}
	.st46{fill:#BCBCBC;}
	.st47{fill:#F4F4F4;}
	.st48{fill:#952A2A;}
	.st49{opacity:0.1;}
	.st50{fill:#5E7EAD;}
	.st51{fill:#859CC5;}
	.st52{fill:#CCD8EE;}
	.st53{fill:#A9BBDF;}
	.st54{fill:#E0964C;}
	.st55{fill:#FFB769;}
	.st56{fill:#EA8E3B;}
	.st57{fill:#C66E26;}
	.st58{fill:#D6371D;}
	.st59{fill:#E64524;}
	.st60{fill:#8B3E2C;}
	.st61{fill:#6D2C1F;}
	.st62{fill:#EF4D33;}
	.st63{fill:#E58442;}
	.st64{fill:#FC3E26;}
	.st65{fill:#D63420;}
	.st66{fill:#2C2B2D;}
	.st67{fill:#FCAC35;}
	.st68{fill:#FF7F29;}
	.st69{fill:#FFC373;}
	.st70{fill:#E26A1A;}
	.st71{fill:#F7B88D;}
	.st72{fill:#EFA873;}
	.st73{fill:#E09461;}
	.st74{fill:#FFE3E4;}
	.st75{fill:#FFCACB;}
	.st76{fill:#E64D3C;}
	.st77{fill:#90AB28;}
	.st78{fill:#F2914A;}
	.st79{opacity:0.2;fill:#FFFFFF;}
	.st80{opacity:0.3;}
</style>
<g id="Background_Complete">
	<g>
		<g>
			<polygon class="st0" points="2.4,131.2 39.3,131 76.2,130.9 150,130.9 223.8,130.9 260.7,131 297.6,131.2 260.7,131.3 
				223.8,131.4 150,131.5 76.2,131.4 39.3,131.3 			"/>
			<polygon class="st0" points="2.4,109.6 39.3,109.5 76.2,109.4 150,109.3 223.8,109.4 260.7,109.5 297.6,109.6 260.7,109.8 
				223.8,109.8 150,109.9 76.2,109.8 39.3,109.8 			"/>
			<polygon class="st0" points="2.4,88.1 39.3,88 76.2,87.9 150,87.8 223.8,87.9 260.7,88 297.6,88.1 260.7,88.3 223.8,88.3 
				150,88.4 76.2,88.3 39.3,88.3 			"/>
			<polygon class="st0" points="2.4,66.6 39.3,66.4 76.2,66.4 150,66.3 223.8,66.4 260.7,66.4 297.6,66.6 260.7,66.8 223.8,66.8 
				150,66.9 76.2,66.8 39.3,66.7 			"/>
			<polygon class="st0" points="2.4,45.1 39.3,44.9 76.2,44.9 150,44.8 223.8,44.9 260.7,44.9 297.6,45.1 260.7,45.2 223.8,45.3 
				150,45.4 76.2,45.3 39.3,45.2 			"/>
			<polygon class="st0" points="2.4,23.5 39.3,23.4 76.2,23.4 150,23.2 223.8,23.3 260.7,23.4 297.6,23.5 260.7,23.7 223.8,23.8 
				150,23.9 76.2,23.8 39.3,23.7 			"/>
			<polygon class="st0" points="2.4,152.7 39.3,152.5 76.2,152.5 150,152.4 223.8,152.5 260.7,152.5 297.6,152.7 260.7,152.9 
				223.8,152.9 150,153 76.2,152.9 39.3,152.9 			"/>
			<polygon class="st0" points="2.4,174.2 39.3,174.1 76.2,174 150,173.9 223.8,174 260.7,174.1 297.6,174.2 260.7,174.4 
				223.8,174.4 150,174.6 76.2,174.4 39.3,174.4 			"/>
			<polygon class="st0" points="2.4,195.8 39.3,195.6 76.2,195.6 150,195.5 223.8,195.6 260.7,195.6 297.6,195.8 260.7,195.9 
				223.8,196 150,196.1 76.2,196 39.3,195.9 			"/>
			<polygon class="st0" points="2.4,217.3 39.3,217.2 76.2,217.1 150,217 223.8,217.1 260.7,217.2 297.6,217.3 260.7,217.5 
				223.8,217.5 150,217.6 76.2,217.5 39.3,217.5 			"/>
			<rect x="2.4" y="152.4" class="st0" width="295.2" height="21.5"/>
		</g>
		<g>
			<polygon class="st0" points="175.2,0 175.4,25 175.4,43.7 175.6,162.7 175.4,200.2 175.4,218.9 175.2,237.7 175,218.9 175,200.2 
				174.8,162.7 175,43.7 175,25 			"/>
			<polygon class="st0" points="150,0 150.2,25 150.2,43.7 150.4,162.7 150.2,200.2 150.2,218.9 150,237.7 149.8,218.9 149.8,200.2 
				149.6,162.7 149.8,43.7 149.8,25 			"/>
			<polygon class="st0" points="124.8,0 125,25 125,43.7 125.2,162.7 125,200.2 125,218.9 124.8,237.7 124.6,218.9 124.6,200.2 
				124.4,162.7 124.6,43.7 124.6,25 			"/>
			<polygon class="st0" points="99.6,0 99.8,25 99.8,43.7 99.9,162.7 99.8,200.2 99.8,218.9 99.6,237.7 99.4,218.9 99.3,200.2 
				99.2,162.7 99.3,43.7 99.4,25 			"/>
			<polygon class="st0" points="250.8,0 251,25 251.1,43.7 251.2,162.7 251.1,200.2 251,218.9 250.8,237.7 250.7,218.9 250.6,200.2 
				250.5,162.7 250.6,43.7 250.7,25 			"/>
			<polygon class="st0" points="225.6,0 225.8,25 225.9,43.7 226,162.7 225.9,200.2 225.8,218.9 225.6,237.7 225.4,218.9 
				225.4,200.2 225.3,162.7 225.4,43.7 225.4,25 			"/>
			<polygon class="st0" points="200.4,0 200.6,25 200.7,43.7 200.8,162.7 200.7,200.2 200.6,218.9 200.4,237.7 200.2,218.9 
				200.2,200.2 200.1,162.7 200.2,43.7 200.2,25 			"/>
			<polygon class="st0" points="276,0 276.2,25 276.3,43.7 276.4,162.7 276.3,200.2 276.2,218.9 276,237.7 275.9,218.9 275.8,200.2 
				275.7,162.7 275.8,43.7 275.9,25 			"/>
			<polygon class="st0" points="250.8,0 251,25 251.1,43.7 251.2,162.7 251.1,200.2 251,218.9 250.8,237.7 250.7,218.9 250.6,200.2 
				250.5,162.7 250.6,43.7 250.7,25 			"/>
			<polygon class="st0" points="74.4,0 74.6,25 74.6,43.7 74.7,162.7 74.6,200.2 74.6,218.9 74.4,237.7 74.2,218.9 74.1,200.2 
				74,162.7 74.1,43.7 74.2,25 			"/>
			<polygon class="st0" points="49.2,0 49.3,25 49.4,43.7 49.5,162.7 49.4,200.2 49.3,218.9 49.2,237.7 49,218.9 48.9,200.2 
				48.8,162.7 48.9,43.7 49,25 			"/>
			<polygon class="st0" points="24,0 24.1,25 24.2,43.7 24.3,162.7 24.2,200.2 24.1,218.9 24,237.7 23.8,218.9 23.7,200.2 
				23.6,162.7 23.7,43.7 23.8,25 			"/>
		</g>
	</g>
</g>
<g id="Shadow">
	<path class="st1" d="M34,165.2c0.2,1.6,5.4,5.2,9.2,7.7c1.1,0.7,2.1,1.3,2.8,1.8c0.8,0.5,1.4,0.8,1.4,0.8l44.1,23.9l1.4,0.8
		l0.1,0.1c7.1-8.2,15.9-27.6,20.1-37.5c3.5-8.3,6.4-16,7-13.9c0.6,2.1,9.6,23.8,15.7,34.2c1.9,3.3,3.8,5.9,5.5,7.9
		c0.2,0.2,0.3,0.4,0.5,0.6c3.4,3.9,5.7,5.5,5.7,5.5s0.9-4.2,3.5-7.9v0c0.4-0.5,0.8-1,1.2-1.5c3.5-3.9,7.7-5.8,7.7-5.8
		s-2.9-0.7-6.2-5.3c-0.1-0.2-0.3-0.4-0.4-0.6c-2-2.9-4.1-7.3-5.8-13.8c-2.5-9.3-12.9-36-16-41c-1.6-2.6-4.5-5.4-7.9-8
		c-1.1-0.8-2.3-1.7-3.4-2.4c-0.9-0.6-1.9-1.2-2.9-1.8c-1.3-0.8-2.7-1.6-3.9-2.2c-5-2.6-11.1-4.8-17.3-5.4c-0.1,0-0.1,0-0.2,0
		c-1.3-0.2-2.6-0.2-4-0.2c-2.8,0-5.6,0.4-8.2,1.2c-9.6,3-27,19.3-35.3,31.7c-5.2,7.7-9.6,17.1-12.1,23.6c-0.1,0.2-0.2,0.4-0.2,0.6
		c-0.2,0.4-0.3,0.8-0.5,1.2C34.5,162.2,33.9,164.4,34,165.2z M67.1,141.3c0.1-0.1,0.2-0.2,0.2-0.2c0.5-0.5,0.7-0.8,0.7-0.8
		c0,0.1-0.1,0.4-0.3,0.8c-1.5,3.4-8.5,16.1-10.4,18.2c0,0-0.3-0.2-0.8-0.5c-1.5-0.9-4.3-2.8-4.2-4.1c0-0.1,0.1-0.3,0.1-0.4
		c0.1-0.2,0.3-0.4,0.5-0.7c1.8-2,6.9-5.3,9.9-8.1C64.9,143.6,66.3,142.2,67.1,141.3z"/>
	
		<linearGradient id="SVGID_1_" gradientUnits="userSpaceOnUse" x1="673.9044" y1="-55.7775" x2="650.2017" y2="-83.0354" gradientTransform="matrix(-1 0 0 1 728.7891 217)">
		<stop  offset="2.000000e-02" style="stop-color:#6D89F7"/>
		<stop  offset="0.985" style="stop-color:#6D89F7"/>
	</linearGradient>
	<path class="st2" d="M51.8,167.2c5,0.7,10.2-8.9,14-16c3.8-7.1,8.1-16.8,8.1-16.8l-5.6,5.3l-1.2,1.7c0.1-0.1,0.2-0.2,0.2-0.2
		c0.5-0.5,0.7-0.8,0.7-0.8c0,0.1-0.1,0.4-0.3,0.8c-1.5,3.4-8.5,16.1-10.4,18.2c0,0-0.3-0.2-0.8-0.5L51.8,167.2z"/>
	
		<linearGradient id="SVGID_2_" gradientUnits="userSpaceOnUse" x1="683.3691" y1="-51.905" x2="694.7974" y2="-51.905" gradientTransform="matrix(-1 0 0 1 728.7891 217)">
		<stop  offset="2.000000e-02" style="stop-color:#6D89F7"/>
		<stop  offset="0.985" style="stop-color:#6D89F7"/>
	</linearGradient>
	<path class="st3" d="M34,165.2c0.2,1.6,5.4,5.2,9.2,7.7l2.2-7.3c-1.1-0.9-6.2-4.6-9.2-8.2c-0.1,0.2-0.2,0.4-0.2,0.6
		c-0.2,0.4-0.3,0.8-0.5,1.2C34.5,162.2,33.9,164.4,34,165.2z"/>
	
		<linearGradient id="SVGID_3_" gradientUnits="userSpaceOnUse" x1="577.8491" y1="-46.2558" x2="637.2991" y2="-46.2558" gradientTransform="matrix(-1 0 0 1 728.7891 217)">
		<stop  offset="2.000000e-02" style="stop-color:#6D89F7"/>
		<stop  offset="0.985" style="stop-color:#6D89F7"/>
	</linearGradient>
	<path class="st4" d="M91.5,199.3l1.4,0.8l0.1,0.1c7.1-8.2,15.9-27.6,20-37.5c3.5-8.3,6.4-16,7-13.9c0.6,2.1,9.6,23.8,15.7,34.2
		c1.9,3.3,3.8,5.9,5.5,7.9c0.2,0.2,0.3,0.4,0.5,0.6c3.4,3.9,5.7,5.5,5.7,5.5s0.9-4.2,3.5-7.9v0c-3.1-2.7-12.1-11.5-18.8-24.2
		c-7.8-14.6-9.3-26.6-11.7-22.7s-10.1,25.4-14.9,34.2C102.4,182.1,95.7,192.8,91.5,199.3z"/>
	
		<linearGradient id="SVGID_4_" gradientUnits="userSpaceOnUse" x1="605.2991" y1="-108.8429" x2="632.8791" y2="-108.8429" gradientTransform="matrix(-1 0 0 1 728.7891 217)">
		<stop  offset="2.000000e-02" style="stop-color:#6D89F7"/>
		<stop  offset="0.985" style="stop-color:#6D89F7"/>
	</linearGradient>
	<path class="st5" d="M95.9,101.1c1,3.6,3.1,8.4,7.6,11.7c6.2,4.5,15.8,1.8,20,0.3c-1.1-0.8-2.3-1.7-3.4-2.4
		c-0.9-0.6-1.9-1.2-2.9-1.8c-1.3-0.8-2.7-1.6-3.9-2.2C108.3,103.9,102.1,101.8,95.9,101.1z"/>
	<path class="st6" d="M147.4,196.9c0.9,0.6,6.9,4.3,21.3,6.1c14.4,1.8,29.2-1.5,31.9-3.5c0.1-0.1,0.1-0.1,0.2-0.1
		c2.8-1.9,9.2-2.3,9.2-2.3s3.4,3.2,4.1,2.3c0.7-0.9-1.1-4.4-5.9-7.1c-4.9-2.8-11.6-2.1-20.7-3.4c-9-1.3-22.4-4.7-27.7-7.1
		c0,0-1.9-0.7-6.8,4.2c-0.9,0.9-1.8,2-2.4,3C148,192.9,147.4,196.9,147.4,196.9z"/>
	<path class="st7" d="M147.4,196.9c0.9,0.6,6.9,4.3,21.3,6.1c14.4,1.8,29.2-1.5,31.9-3.5c0.1-0.1,0.1-0.1,0.2-0.1
		c-2.5,0-8.5,0.1-18.6,0.4c-12.1,0.4-24.8-5.9-31.6-10.9C148,192.9,147.4,196.9,147.4,196.9z"/>
	
		<linearGradient id="SVGID_5_" gradientUnits="userSpaceOnUse" x1="458.2704" y1="-11.8572" x2="502.4679" y2="-11.8572" gradientTransform="matrix(-1 0 0 1 728.7891 217)">
		<stop  offset="2.000000e-02" style="stop-color:#EDBA51"/>
		<stop  offset="0.9851" style="stop-color:#F0CA53"/>
	</linearGradient>
	<path class="st8" d="M226.4,201.8c0.3,1.9,2.1,4.2,5.7,6.3c0.9,0.5,1.9,1,3,1.5c2.6,1.2,5.9,2.2,10,3.1c1.5,0.3,3,0.6,4.4,0.8
		c4.5,0.7,8.3,0.9,11.2,0.6c3.6-0.3,6-1.3,7.4-2.8c0.6-0.7,1-1.4,1.1-2.3c0.6-3.4-3.3-6.5-11.3-9.1c-2.9-0.9-6.2-1.8-10.2-2.6
		c-1.8-0.4-3.4-0.7-4.9-0.9c-11.9-1.8-15.3,0.5-16.4,3.6C226.4,200.6,226.3,201.2,226.4,201.8z"/>
	<path class="st9" d="M117.2,108.7c-0.2,2.2-0.7,4.5-1.2,7c-3.7,17.6-12.9,40.9-12.9,40.9c-7.2-3.2-16.6-12.1-16.6-12.1
		s4.7-12.8,7.2-27c1.6-8.6,1.9-13.8,1.9-16.5c-1.3-0.2-2.6-0.2-3.8-0.2h-0.1c-0.6,18.4-10.3,38.7-10.3,38.7s-1.7,2.9-10.6,12
		c-7.6,7.7-17.9,17.2-24.9,23.1c-1.2,1.1-2.4,2-3.4,2.8c-1.9,1.6-3.4,3.3-4.6,4.9c-1.6,2.3-2.5,4.5-3,5.9c-0.1,0.2-0.2,0.4-0.2,0.6
		c0,0.1-0.1,0.2-0.1,0.4c-0.1,0.3-0.1,0.5-0.1,0.5c0,0.1,0,0.3,0,0.4c-0.1,4.8,0.1,27.6,0.1,47.8c0.2,0,0.4,0,0.5,0
		c0.1,0,3.4,0,6.9,0c0.5,0,0.8,0,0.9,0c0.1,0,1.7,0,3.8,0c2.1,0,3.7,0,4.1,0c0.1,0,2.5,0,5.4,0c2,0,3.5,0,3.9,0c0.1,0,1.6,0,3.6,0
		c1.8,0,3.3,0,3.6,0c0.1,0,2.1,0,4.6,0c1.8,0,3.3,0,3.6,0c0.1,0,2.8,0,5.9,0c1.9,0,3.4,0,3.8,0c0.1,0,0.8,0,2,0
		c-1.1-15.1-3.6-25.4-3.8-26.6c0-0.1,0-0.1,0-0.1c0,0,0,0,0,0s0.3-0.3,0.9-0.8c1.6-1.4,4.9-4.9,8.4-10.4c1.3-2.1,2.7-4.6,4-7.5
		c6-12.9,8.8-31.7,8.8-31.7s4.4-7.6,8.2-21.5c2.9-10.7,4.3-17.1,5.5-24.5c0.2-1.4,0.4-2.8,0.7-4.3
		C119.1,109.9,118.2,109.3,117.2,108.7z"/>
	
		<linearGradient id="SVGID_6_" gradientUnits="userSpaceOnUse" x1="501.4991" y1="-16.4074" x2="529.6473" y2="-16.4074" gradientTransform="matrix(-1 0 0 1 728.7891 217)">
		<stop  offset="1.000000e-02" style="stop-color:#1F289F"/>
		<stop  offset="0.9951" style="stop-color:#141E9E"/>
	</linearGradient>
	<path class="st10" d="M226.4,201.8c-0.8-1.2-5.4-1.6-9.9-1.7c0,0-3.5-5.5-8.4-4.5c-4.9,1.1-10.1,2.9-8.7,6.6
		c1.4,3.7,4.9-1.2,10.2-1.1c5.3,0.2,7.5,4.5,7.5,4.5h10.2L226.4,201.8z"/>
	<path class="st6" d="M213.9,204.2c-0.5,0.5-3.1-1.1-4.3-3c-1.2-1.9-2.2-4.1-0.8-4.3c1.4-0.2,1.8,1.1,3.1,3.1
		C213.3,202.1,214.4,203.7,213.9,204.2z"/>
	<path class="st6" d="M212.6,206.1c-0.6,0.3-2.8-0.7-4.5-3c-1.7-2.2-2.6-5.4-1.2-5.6c1.4-0.2,2.3,2.1,3.4,3.6
		C211.4,202.5,213.9,205.4,212.6,206.1z"/>
	<path class="st6" d="M208.7,206.1c-0.9,0.9-3.7-3.1-4.3-4.3s-0.8-4.1,0.5-4.3c1.3-0.2,1.4,2.6,2.1,3.8
		C207.7,202.5,209.9,205,208.7,206.1z"/>
	<path class="st6" d="M205.9,206.1c-1,0.6-2.7-1.5-3.4-3.4c-0.7-1.9-0.2-4.4,0.7-4.4s0.5,1,1.3,2.7
		C205.3,202.6,207,205.4,205.9,206.1z"/>
	<path class="st11" d="M226.4,201.8c0.4,4.8,5.6,15.2,5.6,15.2c1.3,1.4,5.6,2.8,10.5,3.9c7,1.6,14.9,2.6,16,1.7
		c1.8-1.5,9.8-11.3,9.8-11.3h0c-2.8,3.2-10.6,4-23,1.4c-1.8-0.4-3.5-0.8-5-1.3C231,208.7,227,204.8,226.4,201.8L226.4,201.8z"/>
	<path class="st12" d="M122,65.2c0,0.1,0,0.1,0,0.2C122,65.3,122,65.3,122,65.2z"/>
	<path class="st13" d="M120.5,49.3L120.5,49.3c1.3-0.7,4-1.8,6.8,0.1c0,0,0.3-1.8,1.5-2.5c0.7-0.4,1.6-0.5,2.9,0.1
		c3.7,1.8,6.3,7.5,6.2,10.5c0,0.5,4.7-0.9,4.8,5c1.5-2.5,10.2-17.8,11.6-20.1c1.5-2.5,1.7-3.2,1.7-3.2s-1.6-8.2-7-13.2
		c-2.3-2.1-6.1-3.7-9.8-4.7c-5.1-1.3-10-1.5-10.8-0.3C127.1,23.2,120.5,49.3,120.5,49.3z"/>
	<path class="st6" d="M104.9,80.7c0.2,3.4,2.9,3.4,2.9,3.4c-0.5,2.4-0.8,6.9-0.2,11.2c0.5,3.4,1.6,6.8,3.6,9.2
		c0.1,0.1,0.2,0.2,0.3,0.3c0.5,0.5,1,1,1.5,1.5c4.3,3.8,9.6,4.4,13.7,1.3c4.7-3.5,4.5-11.3,5.4-15.4c0.8-3.5,3.2-9.1,3.9-10.5
		c-1-0.4-1.8-1.2-2-2.3c-0.5-3,0.6-4.2-1.4-8c-2-3.7-5.2-6.4-7.3-6.7c-1.8-0.3-3,0.2-3.2,0.5c0,0.1,0,0.1,0,0.2c0,0,0,0,0,0
		c0.2,0.3,0.3,4.1-1.8,4.4c-2.1,0.3-2.4-1.1-2.4-1.1s-0.6,6.4-3.7,7.1c-0.4,0.1-0.9,0.2-1.3,0.2c-2.2,0-4.1-1.3-5.4-3.2
		C106.1,73.8,104.8,77.9,104.9,80.7z"/>
	<g>
		
			<linearGradient id="SVGID_7_" gradientUnits="userSpaceOnUse" x1="625.3291" y1="-32.6638" x2="648.8491" y2="-32.6638" gradientTransform="matrix(-1 0 0 1 728.7891 217)">
			<stop  offset="2.000000e-02" style="stop-color:#EDBA51"/>
			<stop  offset="0.9851" style="stop-color:#F0CA53"/>
		</linearGradient>
		<path class="st14" d="M99.7,169.3c0.4-0.3,3.8,6.8,3.8,10.4c0,0-16,19.8-16.9,19.6c-0.9-0.1-5.8-4.1-6.6-6.8
			C80,192.6,86,179,99.7,169.3z"/>
		
			<linearGradient id="SVGID_8_" gradientUnits="userSpaceOnUse" x1="620.6691" y1="-45.2281" x2="627.4291" y2="-45.2281" gradientTransform="matrix(-1 0 0 1 728.7891 217)">
			<stop  offset="2.000000e-02" style="stop-color:#E4912F"/>
			<stop  offset="0.9701" style="stop-color:#E7A132"/>
		</linearGradient>
		<path class="st15" d="M102.9,176.3c0,0,4.3-4.6,5.2-7.1c0,0-1.5-2.3-1.9-2.1c-0.5,0.2-4.8,5-4.8,5L102.9,176.3z"/>
	</g>
	<path class="st16" d="M123.7,71.6c1.1,0.3,1.9,0.5,2.8,1.9c0.9,1.4,0.3,2.4-0.4,2.5c-0.7,0.1-1.2-2.1-2.4-2.5
		c-1.3-0.4-3.3-0.5-3-1.5C121.1,71.1,122.5,71.2,123.7,71.6z"/>
	<path class="st16" d="M134.8,82.5c0.6-0.4,0.2-2.5-1.5-3.1s-4.3,0.3-4.3,1.5c0,1.2,0.6,0.5,2.3,0.6
		C133.1,81.7,134.3,82.9,134.8,82.5z"/>
	<path class="st16" d="M268.2,181.6c0.2-0.1-2.3-2.9-1.4-3.6c0.9-0.6,6.5-0.5,6.1,5.8c-0.4,6.3-3.1,0-3.1,0s-3.3,2.1-3.9,1.8
		C265.4,185.3,263.1,184.6,268.2,181.6z"/>
	<path class="st16" d="M281.4,153.5c1.7-0.1,4.1,0.2,4.2,4.9c0.1,4.8-4,6-4.7,4.9C280.2,162.3,280.9,153.5,281.4,153.5z"/>
	<path class="st16" d="M275.4,194.8c2.3,0.1,2.8,2.6,1.9,4.9s-4.2,1.6-4.9,0C271.8,198.1,272.5,194.7,275.4,194.8z"/>
	<path class="st16" d="M269,193.4c1.4,2.4,1.6,6.8-0.7,7.8c-2.4,1-5-0.8-4.8-2.9C263.5,196.2,266.9,190,269,193.4z"/>
	<path class="st16" d="M261.3,209.7c0.8-1.7-0.8-5.3-3.6-4.6c-2.8,0.7-2.5,5.3-1.8,6L261.3,209.7z"/>
	<path class="st16" d="M277.1,178.8c-1.6-0.9,2.4-11.1,4-10.2C282.6,169.6,278.7,179.6,277.1,178.8z"/>
	<g class="st17">
		
			<linearGradient id="SVGID_9_" gradientUnits="userSpaceOnUse" x1="34.73" y1="-17.17" x2="84.49" y2="-17.17" gradientTransform="matrix(1 0 0 1 0 217)">
			<stop  offset="2.000000e-02" style="stop-color:#3141DC"/>
			<stop  offset="0.9801" style="stop-color:#4454DC"/>
		</linearGradient>
		<path class="st18" d="M34.7,189.2c3.9,5.1,11.6,13.3,24.1,17.4c13,4.3,20.8,4.7,24.8,4.9c0-0.1,0-0.1,0-0.1c0,0,0,0,0,0
			s0.3-0.3,0.9-0.8c-0.1,0-0.2,0-0.3,0c-3.8-0.1-11.6-0.5-25.1-4.9c-12.6-4.1-20.3-12.4-24-17.4C34.9,188.6,34.8,188.9,34.7,189.2z"
			/>
	</g>
	<g>
		<path class="st19" d="M141.2,190.8c0.2,0.2,0.3,0.4,0.5,0.6c1.4-8.7,8.6-13.4,11.9-15.1c-0.1-0.2-0.3-0.4-0.4-0.6
			C149.8,177.6,142.8,182.2,141.2,190.8z"/>
	</g>
	<g>
		<path class="st19" d="M35.5,159.1c5.2-4.1,10.9-5.8,17-4.8c0.1-0.2,0.3-0.4,0.5-0.7c-6.1-1.1-11.8,0.4-17,4.3
			C35.8,158.4,35.7,158.8,35.5,159.1z"/>
	</g>
	<g>
		<path class="st19" d="M67.4,141.1L67.4,141.1c0.5-0.5,0.7-0.8,0.7-0.8c0,0.1-0.1,0.4-0.3,0.8c10.2-9.9,16.8-22.3,18-29.4
			c0-0.2-0.1-0.4-0.2-0.4c-0.2-0.1-0.3,0.1-0.3,0.3c-0.9,5.6-6.4,18-17.8,29C67.3,140.7,67.3,140.9,67.4,141.1z"/>
	</g>
	<g>
		<path class="st20" d="M108.1,81.3c0.1,0,0.2-0.1,0.3-0.3c0.4-2.1-0.7-5.7-1-6c-0.1-0.2-0.3-0.2-0.4,0c-0.1,0.1-0.1,0.4,0,0.5
			c0.2,0.3,1.2,3.6,0.8,5.3C107.7,81,107.8,81.2,108.1,81.3C108,81.3,108,81.3,108.1,81.3z"/>
	</g>
	<path class="st20" d="M128.9,81.9c-0.4,0.4-0.5,0.8-0.8,1.3c-0.2,0.4-0.4,0.9-0.6,1.3c-0.3,0.9-0.6,1.8-0.8,2.8c-0.2,1-0.3,2-0.2,3
		c0.1,1.1,0.3,1.9,0.4,2.9c0,0.9,0,1.9-0.5,2.2c-0.2,0.2-0.6,0.4-0.9,0.5c-0.2,0.1-0.6,0-0.9-0.2c-1.3-0.6-2.5-2.2-2.4-4l0,0
		c0-0.2-0.1-0.4-0.3-0.4c-0.1,0-0.3,0.1-0.3,0.3c-0.1,1.1,0.2,2.2,0.7,3.1c0.5,0.8,1.2,1.6,2,2c0.4,0.2,0.9,0.4,1.4,0.2
		c0.4-0.1,0.8-0.3,1.3-0.7c0.4-0.4,0.7-1.1,0.7-1.6c0.1-0.6,0-1.1-0.1-1.6c-0.1-0.5-0.2-1-0.3-1.5c-0.1-0.5-0.2-0.9-0.2-1.4
		c-0.1-0.9,0-1.9,0.2-2.8c0.2-0.9,0.4-1.8,0.8-2.7c0.2-0.4,0.4-0.8,0.6-1.3c0.2-0.4,0.4-0.8,0.6-1.1l0-0.1c0.1-0.1,0.1-0.4,0-0.5
		C129.2,81.7,129.1,81.7,128.9,81.9L128.9,81.9z"/>
	<g>
		<path class="st20" d="M122,103.1c0.2,0,0.3-0.2,0.3-0.4s-0.1-0.4-0.3-0.4c-0.5,0-4.6-0.8-5.5-3.9c-0.1-0.2-0.2-0.3-0.4-0.2
			c-0.1,0.1-0.2,0.3-0.2,0.5C117,102.6,121.9,103.1,122,103.1z"/>
	</g>
	<g>
		<path class="st21" d="M140,54.2c0.2,0,0.4-0.2,0.5-0.4c1.6-4.2,4.4-10.9,4.6-11.4c0.2-0.3,0.1-0.8-0.1-1c-0.3-0.2-0.6-0.2-0.8,0.2
			c-0.3,0.6-4,9.7-4.7,11.6c-0.1,0.3,0,0.8,0.2,1C139.9,54.2,139.9,54.2,140,54.2z"/>
	</g>
	<g>
		<path class="st21" d="M137.6,47.3c0.2,0,0.4-0.2,0.5-0.4c1.5-4.3,4.1-11.7,4.1-12c0.1-0.4-0.1-0.8-0.4-0.9
			c-0.3-0.1-0.6,0.1-0.7,0.5c-0.1,0.5-2.5,7.3-4.1,11.9c-0.1,0.4,0,0.8,0.3,0.9C137.4,47.3,137.5,47.3,137.6,47.3z"/>
	</g>
	<g>
		<path class="st21" d="M125.8,47.3C125.8,47.3,125.8,47.3,125.8,47.3c0.9-0.1,4.9-14.5,4.9-14.7c0.1-0.4-0.1-0.8-0.4-0.9
			c-0.3-0.1-0.6,0.1-0.7,0.5c-0.2,0.7-3.8,12.9-4.2,14c-0.1,0.2-0.1,0.3-0.1,0.5C125.2,47,125.5,47.3,125.8,47.3z"/>
	</g>
	
		<linearGradient id="SVGID_10_" gradientUnits="userSpaceOnUse" x1="467.1796" y1="-6.3116" x2="496.652" y2="-6.3116" gradientTransform="matrix(-1 0 0 1 728.7891 217)">
		<stop  offset="2.000000e-02" style="stop-color:#E4912F"/>
		<stop  offset="0.9701" style="stop-color:#E7A132"/>
	</linearGradient>
	<path class="st22" d="M232.2,208.1c3,1.8,7.2,3.4,13,4.6c6.5,1.4,11.7,1.8,15.6,1.5C255.8,210.4,241.9,204.7,232.2,208.1z"/>
	<path class="st23" d="M116.6,78.8c0,0,0.7,1.8,3.4,3.3c0.3,0.2,0.6,0.3,0.9,0.4c0.5,0.2,0.9,0.3,1.3,0.3c1.1,0.1,1.6-0.4,1.6-0.4
		c0.1-0.2,0.1-0.6,0.1-1.1c0-1.1-0.3-2.7-1.6-3.8c-0.2-0.2-0.4-0.3-0.7-0.5C119.2,75.5,116.7,78.7,116.6,78.8z"/>
	<path class="st23" d="M128,85c0,0,0.5,1.5,2.4,2.6c0.5,0.3,1,0.5,1.4,0.5c1.1,0.1,1.7-0.5,1.7-0.5c0.6-1.6,0.1-3.3-1.8-4.2
		c-0.1-0.1-0.2-0.1-0.3-0.2C129.4,82.4,128.1,84.8,128,85z"/>
	<path class="st24" d="M119.8,80.2c0,1,0.5,1.9,1.1,2.4c0.3,0.2,0.7,0.3,1,0.3c0.1,0,0.2,0,0.2,0c0.8-0.1,1.4-0.7,1.7-1.5
		c0-1.1-0.3-2.7-1.6-3.8c-0.1,0-0.2-0.1-0.3-0.1C120.8,77.5,119.8,78.7,119.8,80.2z"/>
	<path class="st24" d="M130.5,85.8c0,1.1,0.5,2,1.3,2.4c1.1,0.1,1.7-0.5,1.7-0.5c0.6-1.6,0.1-3.3-1.8-4.2
		C131,83.8,130.5,84.7,130.5,85.8z"/>
	<path class="st20" d="M123.8,82.4c0-0.2,0.8-2.9-0.6-5.2c-1.5-2.3-5.2-2.8-6.6,1.6c0,0,2.3-2.8,4.6-1.7
		C123.6,78.2,123.8,82.4,123.8,82.4z"/>
	<path class="st20" d="M133.6,87.3c0,0,0.9-2.5-0.4-4.2c-1.4-1.8-4.2-1.1-5.2,1.9c0,0,1.8-2.5,3.3-1.8
		C133.7,84.4,133.6,87.3,133.6,87.3z"/>
	
		<linearGradient id="SVGID_11_" gradientUnits="userSpaceOnUse" x1="470.8004" y1="-36.0367" x2="487.7964" y2="-3.0977" gradientTransform="matrix(-1 0 0 1 728.7891 217)">
		<stop  offset="2.000000e-02" style="stop-color:#E4912F"/>
		<stop  offset="0.9701" style="stop-color:#E7A132"/>
	</linearGradient>
	<path class="st25" d="M235.2,209.6c2.6,1.2,5.9,2.2,10,3.1c1.5,0.3,3,0.6,4.4,0.8c3.5-2.4,6.5-4.6,7.1-7.9c0.7-3.6-0.8-3.1-0.8-3.1
		s1.1-1,2.1-2.6c0.5-0.7,0.9-1.6,1.2-2.6c1-3.1,0.6-4.8,1.2-5.6c0.7-0.8,0.8-3.3-0.5-3.1c-1.3,0.2-3-0.8-1.9-2.7s2.1-2.1,2.5-3.7
		c0.4-1.6-1.2-2.6-3.6,0c-2.5,2.6-5.4,8-6,6.6c-0.6-1.4-0.6-3-2.4-1.3c-1.7,1.6-4.7,6.5-5.5,9.1c0,0.1-0.1,0.2-0.1,0.3
		c-0.7,2.4-2.6,3.1-3.4,1.1c-0.8-1.9-3.8,2.2-4.1,5.6C235,205.6,235.1,208.1,235.2,209.6z"/>
	<path class="st6" d="M103.2,107.3c0.2,2.3,1.3,4.5,2.5,5.3c0.3,0.2,0.5,0.2,0.8,0.2c2.1,0,4.7-4,6.5-6.4c-0.6-0.5-1.2-1.1-1.8-1.8
		c-0.9-1.1-1.6-2.3-2.2-3.7c-0.7-1.7-1.2-3.6-1.4-5.5c-1.1,2-2.8,5.3-3.9,7.5C103.1,104.1,103,105.7,103.2,107.3z"/>
	<path class="st7" d="M103.2,107.3c1.2-2.5,3.2-4.4,5.9-6.4c-0.7-1.7-1.2-3.6-1.4-5.5c-1.1,2-2.8,5.3-3.9,7.5
		C103.1,104.1,103,105.7,103.2,107.3z"/>
	<path class="st7" d="M104.9,80.7c0.2,3.4,2.9,3.4,2.9,3.4c-0.5,2.4-0.8,6.9-0.2,11.2c0.5,3.4,1.6,6.8,3.6,9.2
		c0.1,0.1,0.2,0.2,0.3,0.3c-2.9-9.6-0.6-19.4,1.2-28.9c-2.2,0-4.1-1.3-5.4-3.2C106.1,73.8,104.8,77.9,104.9,80.7z"/>
	
		<linearGradient id="SVGID_12_" gradientUnits="userSpaceOnUse" x1="612.7365" y1="-102.6127" x2="608.7603" y2="-107.1855" gradientTransform="matrix(-1 0 0 1 728.7891 217)">
		<stop  offset="2.000000e-02" style="stop-color:#3141DC"/>
		<stop  offset="0.9801" style="stop-color:#4454DC"/>
	</linearGradient>
	<path class="st26" d="M116,115.8c1.2-0.2,2.4-0.6,3.4-0.9c0.2-1.4,0.4-2.8,0.7-4.3c-0.9-0.6-1.9-1.2-2.9-1.8
		C116.9,110.9,116.5,113.3,116,115.8z"/>
	
		<linearGradient id="SVGID_13_" gradientUnits="userSpaceOnUse" x1="732.1611" y1="42.9503" x2="675.2322" y2="-22.5179" gradientTransform="matrix(-1 0 0 1 728.7891 217)">
		<stop  offset="2.000000e-02" style="stop-color:#3141DC"/>
		<stop  offset="0.9801" style="stop-color:#4454DC"/>
	</linearGradient>
	<path class="st27" d="M34.7,237.9c0.2,0,0.4,0,0.5,0c0.1,0,1.9,0,4.2,0c-0.7-17.6-2.8-37.9-4.6-49.1c0,0.1-0.1,0.2-0.1,0.4
		c-0.1,0.3-0.1,0.5-0.1,0.5c0,0.1,0,0.3,0,0.4C34.5,194.9,34.7,217.7,34.7,237.9z"/>
	
		<linearGradient id="SVGID_14_" gradientUnits="userSpaceOnUse" x1="686.3129" y1="-43.1486" x2="623.0798" y2="-115.8668" gradientTransform="matrix(-1 0 0 1 728.7891 217)">
		<stop  offset="2.000000e-02" style="stop-color:#3141DC"/>
		<stop  offset="0.9801" style="stop-color:#4454DC"/>
	</linearGradient>
	<path class="st28" d="M34.6,190.1c6.8-7.5,24-22.5,33.6-30.9c10.7-9.4,16.9-18,19.6-28.8c2.4-9.6,4.3-22.3,4.1-29.5h-0.1
		c-0.6,18.4-10.3,38.7-10.3,38.7s-1.7,2.9-10.6,12c-7.6,7.7-17.9,17.2-24.9,23.1c-1.2,1.1-2.4,2-3.4,2.8c-1.9,1.6-3.4,3.3-4.6,4.9
		c-1.6,2.3-2.5,4.5-3,5.9c-0.1,0.4-0.2,0.7-0.3,1c-0.1,0.3-0.1,0.5-0.1,0.5C34.6,189.8,34.6,190,34.6,190.1z"/>
	<path class="st6" d="M40.4,170.4c0,0,4.9,5.1,15.5,9s26,5.5,26,5.5c1.4,3.4,4.6,6.7,5.9,6.8c0.1,0,0.2,0,0.3,0
		c1.1-0.5-0.7-2.8-0.7-2.8s2.2,1.2,3,0.7c0.7-0.5-0.9-2.1-1.1-2.3c0.2,0.1,1.8,1.4,2.5,0.9c0.8-0.5-1.5-2.4-1.5-2.4s2.5,1.7,2.9,0.8
		c0.4-1-2.1-5.8-5.6-8.8S61,161.3,54,157.4c0,0-2.6-0.8-7.9,4.5c-0.9,0.9-1.6,1.7-2.3,2.5C40.8,168.2,40.4,170.4,40.4,170.4z"/>
	<path class="st7" d="M40.4,170.4c0,0,4.9,5.1,15.5,9s26,5.5,26,5.5c1.4,3.4,4.6,6.7,5.9,6.8c-2.3-2.3-4.6-7.3-4.6-7.3
		s-0.2-0.8-9.1-3.4c-7.8-2.3-22.4-10.4-30.2-16.6C40.8,168.2,40.4,170.4,40.4,170.4z"/>
	
		<linearGradient id="SVGID_15_" gradientUnits="userSpaceOnUse" x1="607.439" y1="-173.9449" x2="587.4426" y2="-196.9408" gradientTransform="matrix(-1 0 0 1 728.7891 217)">
		<stop  offset="2.000000e-02" style="stop-color:#6D89F7"/>
		<stop  offset="0.985" style="stop-color:#6D89F7"/>
	</linearGradient>
	<path class="st29" d="M120.5,49.6L120.5,49.6c1.3-0.7,4-1.8,6.8,0.1c0,0,0.3-1.8,1.5-2.5l3.3-12.2c0,0,2.8-6.8,7-13.2
		c-5.1-1.3-10-1.5-10.8-0.3C127.1,23.6,120.5,49.6,120.5,49.6z"/>
	<g>
		<path class="st16" d="M106.6,71.5c0.2,0.4,0.4,0.9,0.7,1.3c1.5,2.3,4,3.7,6.7,3.1c3.2-0.7,3.7-7.1,3.7-7.1s0.3,1.3,2.4,1.1
			c2.1-0.3,2-4.1,1.8-4.4c0,0,0,0,0,0c0,0,0-0.1,0-0.2c0.2-0.3,1.4-0.8,3.2-0.5c2.1,0.4,5.4,3,7.3,6.7c2,3.7,0.9,4.9,1.4,8
			c0.2,1.1,0.9,1.9,2,2.3c1.7,0.7,4,0.5,5.1-0.8c1.8-1.9,0.5-3.2,0.5-3.2c2.4-1,6.4-5.9,4.7-9.7c-1.7-3.8-3.9-2.3-3.9-2.3
			c0.2-1.3,0.3-2.3,0.3-3.2c-0.1-6-4.8-4.5-4.8-5c0.1-3-2.5-8.8-6.2-10.5c-3.7-1.8-4.4,2.4-4.4,2.4c-1.4-0.9-2.8-1.2-3.9-1.1
			c-1.2,0.1-2.2,0.6-2.9,0.9c-0.5,0.3-0.8,0.6-0.8,0.6s-1-1.2-5.3-0.7c-4.3,0.5-5.2,5.9-5.2,5.9C102.5,59.5,105.3,68.4,106.6,71.5z"
			/>
		<path class="st30" d="M106.6,71.5c0.2,0.4,0.4,0.9,0.7,1.3c1.5,2.3,4,3.7,6.7,3.1c3.2-0.7,3.7-7.1,3.7-7.1s0.3,1.3,2.4,1.1
			c2.1-0.3,2-4.1,1.8-4.4c0,0,0,0,0,0c0,0,0-0.1,0-0.2c0.2-0.3,1.4-0.8,3.2-0.5c2.1,0.4,5.4,3,7.3,6.7c-0.2-9.3-9.1-8.9-9.1-8.9
			s-5.9,1.9-6.9-4.6c-1-6.5,5.6-4.5,5.6-4.5c-0.7-2.2,0.1-3.8,1.1-5.2c-1.2,0.1-2.2,0.6-2.9,0.9c-0.5,0.3-0.8,0.6-0.8,0.6
			s-1-1.2-5.3-0.7c-4.3,0.5-5.2,5.9-5.2,5.9C102.5,59.5,105.3,68.4,106.6,71.5z"/>
	</g>
	<path class="st31" d="M226.4,201.8c0.4,4.8,5.6,15.2,5.6,15.2c1.3,1.4,5.6,2.8,10.5,3.9c-0.6-2.7-1.4-5.8-2.2-9.5
		C231,208.7,227,204.7,226.4,201.8L226.4,201.8L226.4,201.8z"/>
	<ellipse class="st32" cx="150" cy="253.6" rx="150" ry="11.4"/>
</g>
<g id="Stove">
	<g>
		<g>
			<polyline class="st33" points="148.8,235.7 152.5,229.4 211.6,229.4 215.3,235.7 			"/>
			<polyline class="st33" points="159.4,235.7 161.9,229.4 202.3,229.4 204.8,235.7 			"/>
		</g>
		<g>
			<polyline class="st33" points="219.2,235.7 222.8,229.4 282,229.4 285.6,235.7 			"/>
			<polyline class="st33" points="229.7,235.7 232.2,229.4 272.6,229.4 275.1,235.7 			"/>
		</g>
		<rect x="145.3" y="234.3" class="st34" width="144.3" height="3.5"/>
	</g>
</g>
<g id="Table">
	<g>
		<polygon class="st35" points="0,237.7 37.5,237.4 75,237.3 150,237.2 225,237.3 262.5,237.4 300,237.7 262.5,237.9 225,238 
			150,238.2 75,238 37.5,237.9 		"/>
	</g>
</g>
<g id="Shelf">
	<g>
		<rect x="161.1" y="45.1" class="st32" width="116.6" height="8.3"/>
		<g>
			<g>
				<rect x="217.6" y="68.6" class="st36" width="3.5" height="40.7"/>
				<path class="st36" d="M228.8,107.6H210l-1,24.4h20.7L228.8,107.6z M215.4,129.1h-1.9v-18h1.9V129.1z M220.3,129.1h-1.9v-18h1.9
					V129.1z M225.2,129.1h-1.9v-18h1.9V129.1z"/>
			</g>
			<g>
				<polygon class="st35" points="223.1,72.6 215.9,72.6 215.1,47.4 223.9,47.4 				"/>
				<ellipse class="st37" cx="219.5" cy="50.7" rx="1.2" ry="1.1"/>
			</g>
		</g>
		<g>
			<g>
				<rect x="254.3" y="68.6" class="st36" width="3.5" height="32.8"/>
				<path class="st36" d="M265.9,110.9c0,6.8-4.8,13.1-9.9,13.1s-9.9-6.3-9.9-13.1c0-6.8,5.9-10.2,9.9-10.2
					C260.1,100.6,265.9,104,265.9,110.9z"/>
			</g>
			<g>
				<polygon class="st35" points="259.8,72.6 252.5,72.6 251.8,47.4 260.5,47.4 				"/>
				<ellipse class="st37" cx="256.1" cy="50.7" rx="1.2" ry="1.1"/>
			</g>
		</g>
		<g>
			<path class="st36" d="M161,82.6v40.1h26.3V68.5h-5.4v14.1H161z M164.7,88.1c0-0.8,0.7-1.5,1.6-1.5s1.6,0.7,1.6,1.5
				c0,0.8-0.7,1.4-1.6,1.4C165.4,89.6,164.7,88.9,164.7,88.1z"/>
			<g>
				<polygon class="st35" points="180.9,72.6 188.2,72.6 188.9,47.4 180.2,47.4 				"/>
				<ellipse class="st37" cx="184.6" cy="50.7" rx="1.2" ry="1.1"/>
			</g>
		</g>
		<g>
			<g>
				<rect x="198.6" y="11.4" class="st37" width="56.6" height="33.7"/>
				<rect x="198.6" y="11.4" class="st38" width="56.6" height="33.7"/>
			</g>
			<g>
				<g>
					<path class="st37" d="M270.2,23.8c-2.8,0-5.4,2.2-8.1,2.2c-2.7,0-6.9,0-6.9,0v4.5c0,0,4.3,0,6.9,0c2.6,0,5.2,2.3,8.1,2.3
						c3.3,0,5.8-1.7,5.8-4.5C276,25.5,273.5,23.8,270.2,23.8z M271,30c-1,0-1.8-0.8-1.8-1.7c0-0.9,0.8-1.7,1.8-1.7
						c1,0,1.8,0.8,1.8,1.7C272.8,29.2,272,30,271,30z"/>
				</g>
				<g class="st39">
					<path d="M270.2,23.8c-2.8,0-5.4,2.2-8.1,2.2c-2.7,0-6.9,0-6.9,0v4.5c0,0,4.3,0,6.9,0c2.6,0,5.2,2.3,8.1,2.3
						c3.3,0,5.8-1.7,5.8-4.5C276,25.5,273.5,23.8,270.2,23.8z M271,30c-1,0-1.8-0.8-1.8-1.7c0-0.9,0.8-1.7,1.8-1.7
						c1,0,1.8,0.8,1.8,1.7C272.8,29.2,272,30,271,30z"/>
				</g>
			</g>
		</g>
		<path class="st34" d="M213.9,28.8c0,0-7.5,13-8.9,14.7c-1.5,1.8-5,1.6-7.1,1.6s-8.9,0-8.9,0s-6.7,0-8.9,0c-2.2,0-5.7,0.2-7.1-1.6
			c-1.5-1.8-8.9-14.7-8.9-14.7H213.9z"/>
	</g>
</g>
<g id="Tools">
	<g>
		<g>
			<path class="st37" d="M288,230.2v22.4c0,1.6-0.6,2.9-1.4,2.9l-9.2,0h-9.3c-0.8,0-1.4-1.3-1.4-2.9v-22.4c0-1.6,0.6-2.9,1.4-2.9
				h0.9v-2.1h8.4v0l8.4,0v2.1h0.9C287.4,227.3,288,228.6,288,230.2z"/>
			<rect x="268.4" y="221.8" class="st40" width="18" height="3.8"/>
			<rect x="266.7" y="235" class="st41" width="21.3" height="14.1"/>
		</g>
		<g>
			<path class="st36" d="M262.4,251.1c0,3.3-1.3,4.4-2,4.4l-5.9,0l-5.6,0c-0.7,0-2-1.1-2-4.4c0-3.9,3-6.2,3-8.4
				c0-1.4-1.4-5.7-0.8-5.7l11.1,0c0.6,0-0.8,4.3-0.8,5.7C259.4,244.8,262.4,247.2,262.4,251.1z"/>
			<path class="st40" d="M260.6,238l-11.8,0c-0.1,0-0.1-0.1-0.1-0.1V236c0-1,0.8-1.9,1.9-1.9l8.4,0c1,0,1.9,0.8,1.9,1.9v1.9
				C260.7,238,260.6,238,260.6,238z"/>
		</g>
		<g>
			<path class="st41" d="M50.9,232.7l-2.4-1.8c1.8-2.1,3.9-4.9,4.3-5.7c-0.4-2.2-2.5-9.3-3.9-10.3h-9v-2.9H49c4.4,0,6.8,12.9,6.8,13
				C55.9,225.6,56.1,226.7,50.9,232.7z M52.8,225.1L52.8,225.1L52.8,225.1z"/>
			<path class="st41" d="M35.2,251.8c-15.6,0-19.4-9.4-17.8-16.1c1.5-6.6,12.4-12.3,12.6-14.5c0.1-2.2,0-11.9-0.6-12.5
				c-0.5-0.7-4.1-1.9-5.1-1.9s-1-1.1,0-1.1h10.9c6.2,0,6.1,0,7.1,0c1,0,1,1.1,0,1.1c-1,0-1.6,1.1-1.7,2.3c-0.1,0.8-0.3,10.4,0,12.2
				c0.3,2.1,11,7.8,12.6,14.5C54.6,242.4,50.8,251.8,35.2,251.8z"/>
			<path class="st42" d="M34.8,249.6c-13.1,0-16.3-7.9-15-13.5c1.3-5.6,12.3-11.8,12.1-13.6c0-0.4-0.1-7.4-0.1-8.2h6.5
				c0,0.8,0,7.9,0.1,8.2c0.3,1.8,10,8,11.3,13.6C51.1,241.6,48,249.6,34.8,249.6z"/>
		</g>
		<g>
			<g>
				<path class="st43" d="M95.3,251.1c0,1.5-0.7,3-2.2,4.3c-2.8,2.5-7.7,3.9-12.9,3.6c-3.5-0.2-8-1.6-12.4-3
					c-4.4-1.4-8.6-2.7-11.5-2.7l-34,0.3l0-1.9l0.8,0l0,1.2l33.2-0.3c3,0,7.3,1.3,11.7,2.7c4.3,1.4,8.8,2.8,12.2,2.9
					c5,0.2,9.7-1.1,12.3-3.4c1.3-1.1,1.9-2.4,1.9-3.7L95.3,251.1z"/>
				<path class="st43" d="M94.9,249.4c0.2,0.6,0.3,1.1,0.3,1.7l-0.8,0c0-1.3-0.7-2.6-2-3.7c-2.7-2.3-7.4-3.5-12.4-3.2
					c-3.4,0.2-7.8,1.7-12.1,3.1c-4.5,1.5-8.7,2.9-11.7,2.9l-33.2,0.3l0,1.2l-0.8,0l0-1.9l34-0.3c2.9,0,7-1.4,11.4-2.9
					c4.3-1.4,8.8-2.9,12.3-3.2c5.2-0.3,10.1,1,13,3.4C93.9,247.7,94.5,248.5,94.9,249.4z"/>
				<path class="st43" d="M95.3,251.1c0,0.7-0.4,1.4-1.1,2.1c-2.3,2.1-7.9,3.4-14,3.2c-3.5-0.1-8-1-12.3-1.9
					c-4.4-0.9-8.6-1.7-11.5-1.7l-34,0.3l0-1.4l0.8,0l0,0.6l33.2-0.3c3,0,7.2,0.8,11.7,1.7c4.3,0.9,8.8,1.8,12.2,1.9
					c5.8,0.2,11.3-1.1,13.4-3c0.6-0.5,0.8-1,0.8-1.6L95.3,251.1z"/>
				<path class="st43" d="M95.1,250.3c0.1,0.3,0.2,0.5,0.2,0.8l0,0.4l-72.9,0.6l0-1.8l34-0.3c2.9,0,7.1-0.9,11.5-1.9
					c4.3-1,8.8-1.9,12.3-2.1c6.1-0.3,11.7,0.9,14.1,3C94.6,249.5,94.9,249.9,95.1,250.3z M94.4,250.8c-0.1-0.4-0.4-0.8-0.8-1.2
					c-2.2-1.9-7.7-3.1-13.5-2.8c-3.4,0.2-7.8,1.1-12.1,2.1c-4.5,1-8.7,1.9-11.7,1.9l-33.2,0.3v0.3L94.4,250.8z"/>
			</g>
			<polygon class="st40" points="20.8,255 47.7,254.7 47.6,248.4 20.6,248.6 			"/>
		</g>
	</g>
</g>
<g>
	<g>
		
			<rect x="159.1" y="205.6" transform="matrix(6.757927e-02 -0.9977 0.9977 6.757927e-02 -64.6228 359.8434)" class="st44" width="2.2" height="17.7"/>
		<polygon class="st45" points="169,216.2 151.3,215 169.1,214 169.1,214 		"/>
		<path class="st46" d="M169,216.2c0,0-6,35.3-4.5,42.1l7.6-3.5C172,254.7,173.1,236.9,169,216.2z"/>
		<path class="st47" d="M151.3,215c0,0-10.1,26.3-8.1,41.8l21.2,1.4c0,0,1.4-24.8,4.5-42.1L151.3,215z"/>
		<polygon class="st44" points="172,254.7 166.4,253.7 164.5,258.2 		"/>
		<path class="st45" d="M166.4,253.7l2.5-37.5c0,0,4.3,20.1,3.1,38.6L166.4,253.7z"/>
		<path class="st48" d="M162.1,236.6c0,3.6-3,6.5-6.7,6.5c-3.7,0-6.7-2.9-6.7-6.5c0-3.6,3-6.5,6.7-6.5
			C159.1,230.1,162.1,233,162.1,236.6z"/>
		<path class="st49" d="M143.4,246c-0.4,3.8-0.5,7.5-0.1,10.8l21.2,1.4c0,0,0.4-7,1.2-16.2c-3.8,3.5-8.8,5.6-14.4,5.6
			C148.5,247.6,145.8,247,143.4,246z"/>
	</g>
	<g>
		<g>
			<g>
				<path class="st50" d="M161.3,249.1l-18-3.3l0-0.3l-1,0.2l-1-0.2l0,0.3l-18,3.3c0,0,2,9.7,17.9,10.3v0c0.4,0,0.7,0,1.1,0
					c0.3,0,0.7,0,1.1,0v0C159.4,258.8,161.3,249.1,161.3,249.1z"/>
			</g>
			<g>
				<path class="st51" d="M161.3,249.1l-5.3-1c-1.5,2.9-5.8,7.9-17.1,8.3l0,0c-0.4,0-0.7,0-1.1,0c-0.3,0-0.7,0-1.1,0v0
					c-4.4-0.2-7.7-1-10.2-2.2c2.5,2.4,7,4.9,14.7,5.2v0c0.4,0,0.7,0,1.1,0c0.3,0,0.7,0,1.1,0v0C159.4,258.8,161.3,249.1,161.3,249.1
					z"/>
			</g>
			<g>
				<path class="st52" d="M167.3,247.2c0,3.3-11.2,6-25,6c-13.8,0-25-2.7-25-6c0-3.3,11.2-6,25-6
					C156.1,241.1,167.3,243.8,167.3,247.2z"/>
			</g>
			<g>
				<path class="st53" d="M167.3,246.2c0,3.3-11.2,6-25,6c-13.8,0-25-2.7-25-6c0-3.3,11.2-6,25-6
					C156.1,240.1,167.3,242.8,167.3,246.2z"/>
			</g>
			<g>
				<path class="st54" d="M163.8,246.2c0,2.2-9.3,4.1-20.9,4.1c-11.5,0-20.9-1.8-20.9-4.1c0-2.2,9.3-4.1,20.9-4.1
					C154.5,242.1,163.8,243.9,163.8,246.2z"/>
			</g>
			<g>
				<path class="st54" d="M122.4,245.5c0,0,2.2-2.6,5.1-3.8c2.9-1.1,28-4.9,36.4,4.5L122.4,245.5z"/>
			</g>
			<g>
				<path class="st55" d="M147.2,245.6c-1.5,0-2.6-0.6-3.7-1.2c-1-0.5-2-1-3.2-1.1c-1.3-0.1-2.6,0.7-3.7,1.3c-1.1,0.7-2.1,1.3-3,0.8
					l-0.4-0.2c-1.3-0.7-1.9-1-4.5,0c-3.2,1.1-4.3-1.8-4.3-1.9l0.4-0.2c0,0.1,1,2.5,3.7,1.6c2.8-1,3.5-0.6,4.9,0.1l0.4,0.2
					c0.7,0.3,1.5-0.2,2.6-0.8c1.1-0.7,2.4-1.5,3.9-1.4c1.3,0.1,2.4,0.7,3.4,1.2c1.2,0.6,2.3,1.2,3.9,1.1c1.3-0.1,2.1-0.6,2.8-1.2
					c0.9-0.6,1.7-1.2,3.1-0.8c0.4,0.1,0.7,0.2,1.1,0.3c2.1,0.7,4.3,1.4,6,0.3l0.3,0.4c-1.9,1.2-4.2,0.5-6.4-0.3
					c-0.4-0.1-0.7-0.2-1.1-0.3c-1.2-0.4-1.9,0.1-2.7,0.7c-0.8,0.5-1.6,1.2-3.1,1.3C147.5,245.6,147.4,245.6,147.2,245.6z"/>
			</g>
			<g>
				<path class="st56" d="M147.5,246.5c-1.3,0-1.9-1-2.4-1.8c-0.3-0.4-0.5-0.9-0.8-1c-0.3-0.1-0.5,0.1-0.9,0.7
					c-0.4,0.5-0.8,1.2-1.6,1.6c-1.3,0.8-2.2,0.2-3.6-0.7c-0.5-0.4-1.2-0.7-1.9-1.2c-1.6-0.9-2.5-0.1-3.5,0.8c-0.6,0.5-1.2,1.1-2,1.3
					c-2.3,0.7-4.6-3.4-4.7-3.6l0.4-0.2c0,0,2.3,3.9,4.2,3.4c0.7-0.2,1.3-0.7,1.8-1.2c1-0.9,2.1-1.9,4-0.8c0.8,0.4,1.4,0.8,2,1.2
					c1.4,0.9,2.1,1.3,3.1,0.7c0.7-0.4,1.1-1,1.4-1.5c0.4-0.6,0.8-1.1,1.5-0.9c0.4,0.2,0.7,0.6,1,1.2c0.5,0.9,1.1,1.8,2.5,1.6
					c1.3-0.2,2.1-0.8,2.7-1.3c0.5-0.4,0.9-0.7,1.3-0.6c0.3,0.1,0.6,0.3,1,0.7c0.7,0.6,1.5,1.2,2.4,0.8c0.6-0.3,1-0.7,1.5-1.2
					c0.8-0.8,1.7-1.6,3-1.5l0,0.5c-1.1-0.1-1.8,0.6-2.6,1.4c-0.5,0.5-1,1-1.6,1.2c-1.2,0.5-2.2-0.3-2.9-0.9
					c-0.3-0.3-0.6-0.5-0.8-0.6c-0.2-0.1-0.5,0.2-1,0.5c-0.6,0.5-1.5,1.1-2.8,1.4C147.8,246.4,147.7,246.5,147.5,246.5z"/>
			</g>
			<g>
				<path class="st56" d="M146.8,249.3c-1.5,0-2.2-1.3-2.7-2.1c-0.2-0.4-0.4-0.8-0.6-0.8c-0.2-0.1-0.7,0.1-1.2,0.2
					c-1,0.4-2.5,0.8-4.1,0.4c-2.4-0.7-5.6,1.8-5.7,1.8l-0.3-0.4c0.1-0.1,3.4-2.6,6.1-1.9c1.6,0.4,2.9,0,3.9-0.4
					c0.7-0.2,1.1-0.4,1.5-0.2c0.3,0.1,0.5,0.5,0.8,1c0.5,1,1.2,2.1,2.7,1.8c1.2-0.2,2-1,2.7-1.7c0.7-0.7,1.3-1.3,2.1-1
					c1.5,0.7,5.9,1.9,6.5,1.3c0.7-0.7,2.3-2.2,3.6-3.3c0,0,0-0.1-0.2-0.3c-0.3-0.4-1.1-0.7-2.1-0.5l-0.1-0.5
					c1.5-0.3,2.5,0.4,2.7,0.9c0.1,0.3,0,0.5-0.1,0.6c-1.3,1.1-2.9,2.6-3.6,3.3c-1,1-6.2-0.8-7.1-1.2c-0.5-0.2-0.9,0.2-1.6,0.9
					c-0.7,0.7-1.6,1.5-2.9,1.8C147.1,249.3,146.9,249.3,146.8,249.3z"/>
			</g>
			<g>
				<path class="st57" d="M132.9,249.6c-2,0-2.8-1-3.5-1.7c-0.2-0.2-0.3-0.4-0.5-0.5c-0.6-0.5-2.1-0.3-3.1-0.1
					c-0.4,0.1-0.8,0.1-1.1,0.2l-0.1,0c-0.6,0-1.2,0-1.3,0.3c-0.1,0.1,0,0.2,0,0.4c0,0.1,0.1,0.2,0.2,0.2c0.5,0.2,1.5-0.2,1.9-0.3
					l0.2,0.4c-0.2,0.1-1.5,0.7-2.2,0.3c-0.2-0.1-0.4-0.3-0.4-0.5c-0.1-0.3-0.1-0.6,0-0.8c0.3-0.4,0.9-0.4,1.7-0.5l0.1,0
					c0.3,0,0.6-0.1,1-0.1c1.2-0.2,2.7-0.5,3.5,0.2c0.2,0.2,0.4,0.4,0.5,0.6c0.8,0.9,1.8,2.1,5.2,1.3c1.6-0.4,2.6-0.7,3.2-0.9
					c1.2-0.4,1.5-0.5,2.6,0c0.7,0.3,1.9,0.1,3.1-0.1c1.4-0.2,2.8-0.4,3.7,0c0.4,0.2,0.8,0.4,1.1,0.6c0.8,0.5,1.2,0.7,2.1,0.4
					c0.5-0.2,0.9-0.5,1.3-0.9c0.9-0.8,1.8-1.6,3.4-1.4c0.8,0.1,1.5,0.3,2.2,0.4c1.4,0.4,2.6,0.7,3.6,0c1.6-1,2.5-1.1,3.1-1l-0.1,0.5
					c-0.5-0.1-1.3,0-2.8,0.9c-1.2,0.7-2.5,0.4-3.9,0c-0.7-0.2-1.4-0.4-2.1-0.4c-1.3-0.1-2.2,0.6-3,1.3c-0.5,0.4-1,0.8-1.5,1
					c-1.1,0.4-1.6,0.1-2.5-0.4c-0.3-0.2-0.6-0.4-1.1-0.6c-0.8-0.4-2.1-0.2-3.4,0c-1.3,0.2-2.6,0.4-3.4,0c-0.9-0.4-1.1-0.4-2.2,0
					c-0.7,0.2-1.7,0.6-3.3,1C134.2,249.5,133.5,249.6,132.9,249.6z"/>
			</g>
			<g>
				<path class="st55" d="M147.7,250.3c-2,0-3.4-1.2-4.4-2c-0.5-0.4-0.9-0.8-1.3-0.9c-0.5-0.2-1.2,0.4-2,1.1
					c-0.9,0.8-1.9,1.7-3.2,1.8c-1.5,0.2-2.4-1-3.2-2c-0.6-0.7-1.1-1.4-1.8-1.6c-1.6-0.4-2.5,2.8-2.5,2.8l-0.5-0.1
					c0-0.2,1.1-3.7,3.1-3.2c0.8,0.2,1.4,1,2,1.8c0.8,1,1.5,2,2.8,1.8c1.2-0.1,2.1-1,3-1.7c0.9-0.8,1.6-1.4,2.4-1.1
					c0.5,0.2,0.9,0.6,1.5,1c1.1,0.9,2.4,2,4.4,1.9c1.6-0.1,2.2-1.4,2.7-2.5c0.5-1,1-2,2.1-1.6c0.8,0.3,1.4,0.9,1.9,1.4
					c0.9,0.8,1.7,1.6,3.4,1.3c1.6-0.3,1.9-0.9,2.1-1.4c0.2-0.4,0.3-0.8,1-0.9c0.7-0.1,1.3,0,1.8,0.2c0.5,0.1,0.8,0.2,1.2,0.1
					l0.1,0.5c-0.5,0.1-1,0-1.5-0.1c-0.5-0.1-1-0.3-1.6-0.2c-0.4,0.1-0.5,0.3-0.6,0.6c-0.2,0.6-0.6,1.4-2.4,1.7
					c-1.9,0.3-2.8-0.6-3.8-1.5c-0.5-0.5-1.1-1-1.8-1.3c-0.7-0.3-1,0.3-1.5,1.4c-0.6,1.2-1.3,2.6-3.1,2.8
					C147.9,250.3,147.8,250.3,147.7,250.3z"/>
			</g>
			<g>
				<path class="st56" d="M151.6,250.8c-1.4,0-2.6-1.2-3.7-2.3c-0.8-0.8-1.6-1.6-2.2-1.5c-0.9,0-1.6,0.6-2.3,1.2
					c-0.5,0.4-1,0.9-1.6,1.1c-1,0.4-2.8-0.2-4.3-0.7c-0.6-0.2-1.2-0.4-1.5-0.4c-0.6-0.1-1.3,0.2-2.7,0.8c-0.5,0.2-1.2,0.5-2,0.9
					c-2.8,1.2-3.8-0.1-4.7-1.4l-0.2-0.3c-0.8-1.1-2.8-1.6-3.3-1.8c0.1,0.2,0.2,0.6,0,0.8c-0.1,0.2-0.3,0.4-0.7,0.4
					c-0.4,0.1-0.7,0-0.9-0.2c-0.5-0.4-0.3-1.3-0.2-1.4l0.5,0.1c0,0.2-0.1,0.8,0.1,1c0.1,0.1,0.3,0.1,0.5,0.1c0.1,0,0.3-0.1,0.4-0.2
					c0.1-0.1,0-0.3-0.1-0.5c-0.1-0.2-0.1-0.4,0-0.5c0.1-0.1,0.4-0.1,0.4-0.1c0.1,0,2.7,0.6,3.7,2l0.2,0.3c0.9,1.2,1.6,2.3,4.1,1.2
					c0.8-0.3,1.4-0.6,2-0.9c1.4-0.6,2.1-0.9,2.9-0.9c0.3,0,0.9,0.2,1.6,0.4c1.3,0.4,3.1,1,4,0.7c0.5-0.2,1-0.6,1.5-1
					c0.8-0.6,1.5-1.3,2.6-1.4c0.8,0,1.6,0.8,2.5,1.7c1.2,1.2,2.5,2.5,4,2.1c1.4-0.4,2.4-1.7,3.1-2.8c0.6-0.9,1.1-1.6,1.8-1.6
					c0.5,0,1.2,0.4,2,0.9c1.2,0.7,2.6,1.5,3.6,1.1l0.1,0c0.2,0,0.6-0.1,0.7-0.4c0.1-0.2,0-0.5-0.8-1.3l0.3-0.3
					c0.8,0.7,1.1,1.3,0.9,1.8c-0.2,0.5-0.9,0.7-1,0.7c-1.2,0.5-2.7-0.3-4-1.1c-0.7-0.4-1.4-0.8-1.8-0.8c-0.4,0-0.9,0.7-1.4,1.4
					c-0.8,1.1-1.8,2.5-3.4,3C152.1,250.8,151.8,250.8,151.6,250.8z"/>
			</g>
			<g>
				<path class="st55" d="M150.3,248.4c-1.1,0-2.7-0.6-4.2-1.1c-0.7-0.2-1.3-0.5-1.8-0.6c-1.5-0.4-2.4-0.1-3.6,0.3
					c-0.5,0.2-1.1,0.4-1.7,0.5c-1.4,0.3-1.7-0.1-2.1-0.6c-0.1-0.2-0.3-0.4-0.5-0.7c-1.5-1.4-4.6,0.8-4.6,0.8l-0.3-0.4
					c0.1-0.1,3.4-2.5,5.2-0.8c0.3,0.3,0.5,0.6,0.6,0.8c0.3,0.5,0.4,0.6,1.6,0.4c0.6-0.1,1.1-0.3,1.7-0.5c1.2-0.4,2.3-0.8,3.9-0.3
					c0.6,0.2,1.2,0.4,1.9,0.6c1.9,0.7,4.2,1.5,5,0.8c0.3-0.3,0.6-0.6,0.9-0.9c0.8-1,1.7-1.9,3.3-1.8c0.9,0.1,1.5,0.4,1.9,0.6
					c0.6,0.3,0.9,0.5,1.8,0l0.2,0.4c-1.2,0.6-1.7,0.3-2.3,0c-0.4-0.2-0.9-0.5-1.7-0.5c-1.4-0.1-2.2,0.8-2.9,1.7
					c-0.3,0.3-0.6,0.7-0.9,1C151.3,248.3,150.8,248.4,150.3,248.4z"/>
			</g>
			<g>
				<g>
					<path class="st58" d="M127.6,244.6c1.4-0.3,2.5-1.1,5.8,0c2.5,0.9,4.6-1.9,6.9-1.9c2.3,0,4.8,1.9,7.4,1.9
						c2.6-0.1,3.4-1.4,6.3-0.9c2.9,0.5,6.1,0.6,5.2-1.3c-1-1.9-11.1-5.4-17.1-5.5c-6-0.1-13.6,2.9-15.6,4.8
						C124.3,243.7,125.9,245,127.6,244.6z"/>
				</g>
				<g>
					<path class="st59" d="M142,236.9c-6-0.1-13.6,2.9-15.6,4.8c-0.6,0.6-0.9,1.1-1,1.5c0.2,0.7,1.4,1.1,2.4,0.9
						c1.4-0.3,1.5-2.6,4.7-1.4c2.5,0.9,5.4-0.5,7.7-0.5c2.3,0,4.8,1.9,7.4,1.9c2.6-0.1,4.2-1,6-1.8c2.2-0.9,5.2,1.4,5.6,0.4
						c0-0.1-0.1-0.2-0.1-0.3C158.2,240.4,148,236.9,142,236.9z"/>
				</g>
				<g>
					<g>
						<path class="st60" d="M137.7,238.1c0,1.6-1.3,2.9-2.9,2.9s-2.9-1.3-2.9-2.9s1.3-2.9,2.9-2.9S137.7,236.5,137.7,238.1z"/>
					</g>
					<g>
						<path class="st61" d="M134.8,241.1c1.6,0,2.9-1.3,2.9-2.9c0-1.3-0.9-2.4-2-2.8c0.5,0.7,1.3,1.7,0.9,2.8
							c-0.4,1.2-1.6,1.1-2.3,0.9c-1.4-0.3-1.9-0.3-2.3-0.1C132.3,240.2,133.5,241.1,134.8,241.1z"/>
					</g>
					<g>
						<path class="st59" d="M138.7,238.1c0,0-1.1,1.8-2.8,1.7c-1.7-0.1-3.4,0.4-4.5,1.3c-1.1,0.9,3.4,1.7,4.7,1
							C137.5,241.3,139,240,138.7,238.1z"/>
					</g>
					<g>
						<path class="st61" d="M133.7,236.9c0,0.3-0.2,0.5-0.5,0.5c-0.3,0-0.5-0.2-0.5-0.5c0-0.3,0.2-0.5,0.5-0.5
							C133.5,236.4,133.7,236.6,133.7,236.9z"/>
					</g>
					<g>
						<path class="st61" d="M134.3,237.4c0,0.1-0.1,0.2-0.2,0.2c-0.1,0-0.2-0.1-0.2-0.2c0-0.1,0.1-0.2,0.2-0.2
							C134.2,237.2,134.3,237.3,134.3,237.4z"/>
					</g>
					<g>
						<path class="st61" d="M134.6,236c0,0.1-0.1,0.2-0.2,0.2s-0.2-0.1-0.2-0.2c0-0.1,0.1-0.2,0.2-0.2S134.6,235.9,134.6,236z"/>
					</g>
					<g>
						<path class="st61" d="M133.8,237.8c0,0.1-0.1,0.1-0.1,0.1c-0.1,0-0.1-0.1-0.1-0.1c0-0.1,0-0.1,0.1-0.1
							C133.7,237.7,133.8,237.8,133.8,237.8z"/>
					</g>
				</g>
				<g>
					<g>
						<path class="st60" d="M151.4,239.8c0,1.6-1.3,2.9-2.9,2.9c-1.6,0-2.9-1.3-2.9-2.9c0-1.6,1.3-2.9,2.9-2.9
							C150.1,236.9,151.4,238.2,151.4,239.8z"/>
					</g>
					<g>
						<path class="st61" d="M148.5,242.8c1.6,0,2.9-1.3,2.9-2.9c0-1.3-0.9-2.4-2-2.8c0.5,0.7,1.3,1.7,0.9,2.8
							c-0.4,1.2-1.6,1.1-2.3,0.9c-1.4-0.3-1.9-0.3-2.3-0.1C146,241.8,147.1,242.8,148.5,242.8z"/>
					</g>
					<g>
						<path class="st59" d="M152.3,239.8c0,0-1.1,1.8-2.8,1.7c-1.7-0.1-3.4,0.4-4.5,1.3c-1.1,0.9,3.4,1.7,4.7,1
							C151.1,243,152.6,241.7,152.3,239.8z"/>
					</g>
					<g>
						<path class="st61" d="M147.4,238.5c0,0.3-0.2,0.5-0.5,0.5c-0.3,0-0.5-0.2-0.5-0.5c0-0.3,0.2-0.5,0.5-0.5
							C147.2,238.1,147.4,238.3,147.4,238.5z"/>
					</g>
					<g>
						<path class="st61" d="M148,239.1c0,0.1-0.1,0.2-0.2,0.2c-0.1,0-0.2-0.1-0.2-0.2c0-0.1,0.1-0.2,0.2-0.2
							C147.9,238.9,148,238.9,148,239.1z"/>
					</g>
					<g>
						<path class="st61" d="M148.2,237.7c0,0.1-0.1,0.2-0.2,0.2c-0.1,0-0.2-0.1-0.2-0.2s0.1-0.2,0.2-0.2
							C148.1,237.5,148.2,237.6,148.2,237.7z"/>
					</g>
					<g>
						<path class="st61" d="M147.4,239.5c0,0.1-0.1,0.1-0.1,0.1c-0.1,0-0.1,0-0.1-0.1c0-0.1,0-0.1,0.1-0.1
							C147.4,239.4,147.4,239.4,147.4,239.5z"/>
					</g>
				</g>
				<g>
					<g>
						<path class="st60" d="M143.5,238.6c0,1.3-1.1,2.4-2.4,2.4c-1.3,0-2.4-1.1-2.4-2.4c0-1.3,1.1-2.4,2.4-2.4
							C142.5,236.2,143.5,237.3,143.5,238.6z"/>
					</g>
					<g>
						<path class="st61" d="M141.2,240.9c1.3,0,2.4-1.1,2.4-2.4c0-1.1-0.7-2-1.6-2.3c0.4,0.5,1.1,1.4,0.8,2.3
							c-0.3,1-1.3,0.9-1.9,0.7c-1.1-0.2-1.6-0.3-1.9-0.1C139.2,240.2,140.1,240.9,141.2,240.9z"/>
					</g>
					<g>
						<path class="st59" d="M144.3,238.6c0,0-0.9,1.4-2.3,1.4c-1.4-0.1-2.7,0.3-3.6,1c-0.9,0.7,2.7,1.4,3.8,0.8
							C143.3,241.1,144.5,240.1,144.3,238.6z"/>
					</g>
					<g>
						<path class="st61" d="M140.3,237.5c0,0.2-0.2,0.4-0.4,0.4c-0.2,0-0.4-0.2-0.4-0.4c0-0.2,0.2-0.4,0.4-0.4
							C140.2,237.2,140.3,237.3,140.3,237.5z"/>
					</g>
					<g>
						<path class="st61" d="M140.8,237.9c0,0.1-0.1,0.2-0.2,0.2c-0.1,0-0.2-0.1-0.2-0.2c0-0.1,0.1-0.2,0.2-0.2
							C140.7,237.8,140.8,237.9,140.8,237.9z"/>
					</g>
					<g>
						<path class="st61" d="M141,236.9c0,0.1-0.1,0.2-0.2,0.2c-0.1,0-0.2-0.1-0.2-0.2c0-0.1,0.1-0.2,0.2-0.2
							C140.9,236.7,141,236.8,141,236.9z"/>
					</g>
					<g>
						<path class="st61" d="M140.4,238.3C140.4,238.3,140.3,238.4,140.4,238.3c-0.1,0.1-0.2,0-0.2,0
							C140.2,238.2,140.2,238.2,140.4,238.3C140.3,238.2,140.4,238.2,140.4,238.3z"/>
					</g>
				</g>
				<g>
					<path class="st62" d="M127.9,242.8c0,0.2-0.2,0.4-0.5,0.4c-0.3,0-0.5-0.2-0.5-0.4c0-0.2,0.2-0.4,0.5-0.4
						C127.7,242.3,127.9,242.5,127.9,242.8z"/>
				</g>
				<g>
					<path class="st62" d="M129.1,241.9c0,0.2-0.2,0.3-0.4,0.3c-0.2,0-0.4-0.2-0.4-0.3c0-0.2,0.2-0.3,0.4-0.3
						C128.9,241.6,129.1,241.7,129.1,241.9z"/>
				</g>
				<g>
					<path class="st58" d="M145.9,242.6c0,0.2-0.2,0.3-0.4,0.3c-0.2,0-0.4-0.2-0.4-0.3c0-0.2,0.2-0.3,0.4-0.3
						C145.8,242.3,145.9,242.4,145.9,242.6z"/>
				</g>
				<g>
					<path class="st58" d="M142,241.5c0,0.2-0.2,0.3-0.4,0.3c-0.2,0-0.4-0.2-0.4-0.3c0-0.2,0.2-0.3,0.4-0.3
						C141.8,241.1,142,241.3,142,241.5z"/>
				</g>
				<g>
					<path class="st62" d="M135.4,243.2c0,0.2-0.2,0.3-0.4,0.3c-0.2,0-0.4-0.2-0.4-0.3c0-0.2,0.2-0.3,0.4-0.3
						C135.2,242.8,135.4,243,135.4,243.2z"/>
				</g>
				<g>
					<path class="st58" d="M130.9,240.9c0,0.1-0.1,0.2-0.3,0.2c-0.2,0-0.3-0.1-0.3-0.2c0-0.1,0.1-0.3,0.3-0.3
						C130.7,240.7,130.9,240.8,130.9,240.9z"/>
				</g>
				<g>
					<path class="st62" d="M150,242.8c0,0.2-0.2,0.4-0.5,0.4c-0.3,0-0.5-0.2-0.5-0.4c0-0.2,0.2-0.4,0.5-0.4
						C149.8,242.3,150,242.5,150,242.8z"/>
				</g>
				<g>
					<path class="st62" d="M151.2,242c0,0.2-0.2,0.3-0.4,0.3c-0.2,0-0.4-0.2-0.4-0.3c0-0.2,0.2-0.3,0.4-0.3
						C151,241.6,151.2,241.8,151.2,242z"/>
				</g>
				<g>
					<path class="st58" d="M153,240.9c0,0.1-0.1,0.3-0.3,0.3c-0.2,0-0.3-0.1-0.3-0.3c0-0.1,0.1-0.3,0.3-0.3
						C152.9,240.7,153,240.8,153,240.9z"/>
				</g>
				<g>
					<path class="st58" d="M136.7,241.3c0.1,0.2-0.1,0.5-0.4,0.6c-0.3,0.1-0.5,0-0.6-0.3c-0.1-0.2,0.1-0.5,0.4-0.6
						C136.4,241,136.7,241.1,136.7,241.3z"/>
				</g>
				<g>
					<path class="st58" d="M156.4,242.2c-0.1,0.2-0.4,0.3-0.6,0.2c-0.3-0.1-0.4-0.4-0.3-0.6c0.1-0.2,0.4-0.3,0.6-0.2
						C156.3,241.7,156.4,241.9,156.4,242.2z"/>
				</g>
			</g>
			<g>
				<path class="st57" d="M126.6,246.6c-2.1,0-3.1-1.9-3.3-2.2c-0.1-0.1-0.3-0.5-0.2-1.2c0-0.2,0.2-0.4,0.4-0.5
					c0.6-0.3,1.6,0.1,1.7,0.1l-0.2,0.4c-0.3-0.1-1-0.3-1.3-0.1c-0.1,0-0.1,0.1-0.1,0.2c-0.1,0.6,0.1,0.8,0.1,0.8l0.1,0.1
					c0,0.1,1.2,2.7,4.1,1.8c1.3-0.5,2.2-1,2.8-1.4c0.8-0.5,1.4-0.9,2.3-0.5c0.2,0.1,0.4,0.2,0.5,0.2c1.1,0.5,2,1,4.8,1
					c0.8,0,1.3-0.2,1.6-0.6c0.2-0.4,0.2-0.9,0.2-1.3c0-0.6,0-1.2,0.6-1.2c0.6,0,0.9,0.6,1.2,1.2c0.4,0.8,0.9,1.8,2.1,2
					c1.2,0.2,1.8-0.3,2.3-0.7c0.4-0.3,0.8-0.6,1.3-0.5c0.3,0.1,0.6,0.2,1,0.4c1.1,0.6,2.7,1.3,4.5,0.2c2.6-1.7,4.1-1.8,5.9-1.3
					c0.8,0.2,1.3,0.7,1.7,1.1c0.5,0.6,0.9,1,2.1,0.5l0.2,0.4c-1.5,0.6-2,0-2.6-0.6c-0.4-0.4-0.7-0.8-1.4-1c-1.7-0.5-3-0.4-5.5,1.2
					c-2,1.3-3.8,0.4-4.9-0.1c-0.3-0.2-0.6-0.3-0.9-0.4c-0.3-0.1-0.5,0.1-0.9,0.4c-0.5,0.4-1.3,1.1-2.7,0.8c-1.4-0.3-2-1.4-2.5-2.2
					c-0.3-0.6-0.5-1-0.8-0.9c-0.1,0-0.2,0.2-0.2,0.8c0,0.5,0,1.1-0.3,1.6c-0.3,0.6-1,0.9-2,0.9c-2.8,0-3.8-0.5-5-1
					c-0.2-0.1-0.3-0.2-0.5-0.2c-0.7-0.3-1.1,0-1.9,0.5c-0.6,0.4-1.5,1-2.9,1.5C127.5,246.6,127,246.6,126.6,246.6z"/>
			</g>
			<g>
				<path class="st55" d="M141.6,250c-2.1,0-3.6-1.3-4.7-2.4c-0.5-0.4-0.8-0.8-1.2-1c-0.8-0.5-1.8,0.1-3,0.7c-1,0.5-2.1,1-3.2,1.1
					c-2,0.2-2.6-1-3-1.9c-0.2-0.3-0.3-0.6-0.5-0.8c-0.4-0.4-1.3-0.3-2.2-0.1c-0.6,0.1-1.1,0.2-1.5,0.1c-0.4-0.1-1.2-0.6-1.1-1.2
					c0.1-0.7,1.1-1.1,3.2-1.2l0,0.5c-2.5,0.1-2.7,0.6-2.7,0.7c0,0.3,0.4,0.7,0.7,0.7c0.3,0.1,0.8,0,1.3-0.1c1-0.2,2-0.4,2.6,0.3
					c0.2,0.2,0.4,0.6,0.5,0.9c0.5,0.9,0.9,1.8,2.6,1.6c1-0.1,2-0.6,3-1.1c1.3-0.6,2.5-1.2,3.5-0.6c0.4,0.2,0.8,0.6,1.3,1.1
					c1.3,1.2,2.9,2.7,5.5,2.1c1.5-0.4,2.1-1,2.7-1.6c0.7-0.8,1.4-1.5,3.8-1.1c1.7,0.2,3,0.7,4.1,1.1c1.6,0.6,2.6,0.9,3.3,0.2
					c0.4-0.4,0.6-0.8,0.9-1.2c0.8-1.1,1.5-2.2,3.5-1.9c1.8,0.3,2.3,0.1,2.3,0.1c0.1-0.3,0-0.4,0-0.5c-0.3-0.3-1.3-0.4-2-0.3
					l-0.1-0.5c0.2,0,1.9-0.3,2.5,0.4c0.1,0.2,0.2,0.5,0,0.9c0,0,0,0.1-0.1,0.2c-0.3,0.3-1.2,0.3-2.7,0c-1.7-0.3-2.3,0.6-3,1.7
					c-0.3,0.4-0.6,0.9-1,1.3c-0.9,0.9-2.1,0.5-3.8-0.1c-1.1-0.4-2.4-0.9-4-1.1c-2.1-0.3-2.7,0.2-3.4,1c-0.6,0.6-1.3,1.3-2.9,1.7
					C142.4,249.9,141.9,250,141.6,250z"/>
			</g>
			<g>
				<path class="st56" d="M143.7,250.9c-1.3,0-2.2-1.4-3-2.6c-0.6-0.8-1.1-1.6-1.6-1.9c-0.2-0.1-0.3-0.1-0.5,0
					c-1,0.4-1.9,3.1-2.1,4.1l-0.5-0.1c0.1-0.4,1-3.8,2.4-4.4c0.3-0.1,0.6-0.1,0.9,0c0.7,0.3,1.2,1.2,1.8,2.1
					c0.9,1.4,1.9,2.8,3.2,2.3c1-0.4,1.7-1.3,2.3-2.2c0.9-1.2,1.7-2.3,3-2l-0.1,0.5c-1-0.2-1.7,0.7-2.5,1.8c-0.7,0.9-1.4,1.9-2.6,2.4
					C144.2,250.9,143.9,250.9,143.7,250.9z"/>
			</g>
		</g>
		<g>
			<path class="st56" d="M148.9,254c1.1,0.1,2.8,0.8,3.2,2.8c0,0,0.3,1.1,1.2,0.4c0.9-0.7,2.2-2.1,4.5-1.1l-0.7,0.6l0.9,0.7
				l-0.8,0.8l0.7,1.1l-1.1,0.2l0.6,1.3c0,0-3.1,0.9-4.8-1.5c-0.3-0.4-0.3-1.2-1.6-0.8c-1.3,0.4-2.5,1.5-4.4,0.6l0.8-0.8l-0.5-1.2
				l1-0.6l-0.4-1l0.9-0.4l-0.7-1C147.8,254.1,148.6,254,148.9,254z"/>
			<path class="st57" d="M148.9,254c1.1,0.1,2.8,0.8,3.2,2.8c0,0,0.3,1.1,1.2,0.4c0.9-0.7,2.2-2.1,4.5-1.1l-0.7,0.6l0.9,0.7
				l-0.8,0.8l0.7,1.1l-1.1,0.2l0.6,1.3c0,0-3.1,0.9-4.8-1.5c-0.3-0.4-0.3-1.2-1.6-0.8c-1.3,0.4-2.5,1.5-4.4,0.6l0.8-0.8l-0.5-1.2
				l1-0.6l-0.4-1l0.9-0.4l-0.7-1C147.8,254.1,148.6,254,148.9,254z"/>
			<path class="st54" d="M153.2,258.1c0.2-0.7,2.8-2.7,3.1-1.8c0.1,0.2-0.7,0.5,0,0.8c0.6,0.4-0.8,0.6-0.6,1.1
				c0.2,0.5,1.3,1.8,0.7,1.9C155.8,260.4,152.6,260,153.2,258.1z"/>
			<path class="st54" d="M151.9,257c-0.1-0.7-2.3-3.1-2.8-2.3c-0.1,0.2,0.6,0.6-0.1,0.8c-0.7,0.2,0.7,0.7,0.4,1.2
				c-0.3,0.5-1.6,1.6-1,1.8C149,258.8,152.1,258.9,151.9,257z"/>
		</g>
		<g>
			<path class="st56" d="M149.4,258.2c1-0.4,2.9-0.6,4.2,0.9c0,0,0.8,0.9,1.2-0.2c0.5-1.1,0.9-2.9,3.5-3.1l-0.3,0.9l1.1,0.2
				l-0.3,1.1l1.2,0.6l-0.8,0.7l1.2,0.9c0,0-2.3,2.3-4.9,1c-0.4-0.2-0.9-0.9-1.8,0.1c-0.9,1-1.5,2.5-3.6,2.6l0.3-1.1l-1-0.8l0.6-1
				l-0.9-0.7l0.6-0.8l-1.1-0.6C148.5,258.8,149.2,258.3,149.4,258.2z"/>
			<path class="st56" d="M149.4,258.2c1-0.4,2.9-0.6,4.2,0.9c0,0,0.8,0.9,1.2-0.2c0.5-1.1,0.9-2.9,3.5-3.1l-0.3,0.9l1.1,0.2
				l-0.3,1.1l1.2,0.6l-0.8,0.7l1.2,0.9c0,0-2.3,2.3-4.9,1c-0.4-0.2-0.9-0.9-1.8,0.1c-0.9,1-1.5,2.5-3.6,2.6l0.3-1.1l-1-0.8l0.6-1
				l-0.9-0.7l0.6-0.8l-1.1-0.6C148.5,258.8,149.2,258.3,149.4,258.2z"/>
			<path class="st57" d="M155.2,259.7c-0.1-0.7,1.2-3.7,1.9-3c0.2,0.1-0.4,0.7,0.4,0.8c0.7,0-0.4,0.9,0,1.3c0.4,0.4,2,1,1.5,1.4
				C158.5,260.5,155.6,261.6,155.2,259.7z"/>
			<path class="st57" d="M153.5,259.4c-0.4-0.6-3.5-1.7-3.5-0.7c0,0.2,0.8,0.2,0.3,0.8c-0.5,0.5,0.9,0.3,0.9,0.9
				c0,0.6-0.7,2.2,0,2.1C151.8,262.3,154.6,260.9,153.5,259.4z"/>
		</g>
	</g>
	<g>
		<g>
			<polygon class="st63" points="130.2,229.8 110.9,226.6 96.5,230.7 118.5,233.5 			"/>
		</g>
		<g>
			<path class="st64" d="M99.7,218.9c5,8.4,17.6,34.9,17.6,34.9l-0.4,0.4l-18.3-33.9c-0.3-0.6-0.6-1.3,0-1.8
				C99.2,218,99.6,218.6,99.7,218.9z"/>
			<path class="st65" d="M98.6,220.3c-0.3-0.6-0.6-1.3,0-1.8c2.9,4.6,16.5,31.7,18.4,35.5l-0.1,0.1L98.6,220.3z"/>
			<path class="st66" d="M101.9,222.7c0.3,0.6,0.7,1.3,1,1.9c-0.3,0.4-0.9,0.9-1.5,0.9l-1-1.8C100.8,223.7,101.5,223.4,101.9,222.7z
				"/>
		</g>
		<g>
			<path class="st64" d="M95.6,222.1c6.5,7.3,23.6,31.2,23.6,31.2l-0.4,0.5l-24.1-30c-0.4-0.5-0.9-1.2-0.4-1.8
				C94.9,221.4,95.4,221.8,95.6,222.1z"/>
			<path class="st65" d="M94.7,223.7c-0.4-0.5-0.9-1.2-0.4-1.7c3.6,4,22,28.2,24.6,31.6l-0.1,0.1L94.7,223.7z"/>
			<path class="st66" d="M98.4,225.4c0.4,0.5,0.9,1.1,1.4,1.7c-0.3,0.4-0.7,1.1-1.3,1.2l-1.3-1.6C97.5,226.6,98.1,226.2,98.4,225.4z
				"/>
		</g>
		<g>
			<polygon class="st67" points="130.3,231.2 111,228 96.5,232.1 118.5,234.9 			"/>
		</g>
		<g>
			<path class="st55" d="M121.5,235.7c1.3-0.7,2.7-1.8,2.7-2.3c0-0.1-0.2-0.2-0.5-0.3c-0.7-0.2-1.1-0.5-1.1-0.9
				c-0.1-0.6,0.5-1,0.9-1.4c-0.2-0.1-0.4-0.2-0.6-0.3c-0.6-0.3-1.7-0.8-2-0.7c0,0-0.1,0-0.1,0.2c-0.1,1-0.4,2.3-1.2,2.9
				c-0.4,0.3-0.9,0.3-1.5,0.1c-1-0.3-1.3-1-1.5-1.5c-0.2-0.5-0.3-0.6-0.7-0.5c-0.4,0.1-0.7,0.4-0.9,0.9c-0.5,0.7-1.1,1.6-2.8,1.2
				c-0.1,0-0.2-0.1-0.3-0.1c-0.2,0.3-0.4,0.5-0.7,0.8c-1.4,1.2-3,0-4.1-0.8c-0.5-0.3-1-0.7-1.2-0.7c0,0,0,0,0,0
				c-0.3,0-0.4,0.2-0.7,0.5c-0.4,0.5-1,1.3-2.5,1.3c-1,0-1.4-0.5-1.5-0.9c-0.6,0.1-1.3,0.1-2.4,0.1l0-0.7c1.1,0.1,1.8,0,2.2-0.1
				c0-0.5,0.3-1,0.6-1.3c0.2-0.2,0.5-0.2,0.7-0.1c0.3,0.2,0.5,0.6,0.4,1c-0.1,0.3-0.3,0.6-0.9,0.8c0.1,0.2,0.4,0.4,0.9,0.4
				c1.1,0,1.5-0.5,1.9-1c0.3-0.4,0.6-0.8,1.2-0.8c0.5,0,1,0.4,1.6,0.9c1.3,1,2.4,1.6,3.3,0.9c0.2-0.2,0.4-0.3,0.5-0.5
				c-1.1-0.5-1.5-1.3-1.5-2c0-0.4,0.3-0.7,0.6-0.8c0.5-0.1,1.3,0.5,1.6,1.2c0.2,0.4,0.2,0.8,0.1,1.1c0.1,0,0.2,0,0.2,0.1
				c1.2,0.3,1.6-0.2,2-0.9c0.3-0.5,0.7-1,1.4-1.2c1-0.2,1.2,0.4,1.5,0.9c0.2,0.5,0.4,0.9,1.1,1.1c0.4,0.1,0.7,0.1,0.9,0
				c0.6-0.4,0.8-1.6,0.9-2.4c0.1-0.4,0.3-0.6,0.5-0.7c0.7-0.3,1.7,0.2,2.6,0.7c0.3,0.2,0.7,0.4,0.9,0.4c0.3,0,0.4,0.2,0.4,0.3
				c0.1,0.3-0.2,0.5-0.5,0.7c-0.2,0.1-0.7,0.5-0.6,0.7c0,0,0,0.2,0.7,0.4c0.6,0.2,0.9,0.5,0.9,0.9c0.1,1.1-2.3,2.6-3,3L121.5,235.7z
				 M101.7,232.3c0.2-0.1,0.2-0.2,0.3-0.3c0-0.1,0-0.1,0-0.2C101.9,231.9,101.8,232.1,101.7,232.3z M110.3,230.7c0,0-0.1,0.1,0,0.3
				c0.1,0.4,0.4,0.8,1,1.2c0-0.2,0-0.4-0.1-0.6C111,231.1,110.5,230.7,110.3,230.7C110.3,230.7,110.3,230.7,110.3,230.7z"/>
		</g>
		<g>
			<path class="st68" d="M114.1,235.3c0.9-0.1,5.3-0.6,5.9-1.9c0.1-0.2,0.1-0.5-0.1-0.9c-0.4-0.5-0.5-1.3-0.7-1.9
				c-0.2-0.8-0.3-1.5-0.8-1.8c-0.3-0.2-0.7-0.2-1.2,0.1c-1.1,0.4-1.3,1.7-1.4,2.7c-0.1,0.5-0.2,1.2-0.4,1.3c-0.1,0.1-0.4,0-0.7-0.1
				c-1.1-0.6-1.2-1.5-1.3-2.4c-0.1-0.8-0.2-1.7-1.1-2c-0.8-0.3-1.5-0.2-2.1,0.3c-0.7,0.5-1.1,1.6-1,3c0,0.7-0.4,1.1-1.2,1.4
				c-1.4,0.4-3.1,0.1-3.4-0.4c-0.2-0.3-0.4-0.9-0.6-1.4c-0.4-1-0.7-1.7-1.2-1.8c-0.1,0-0.4,0-0.6,0.2c-0.3,0.3-0.4,0.8-0.4,1.4
				c-0.1,1-0.2,1.9-1.6,2.2l0.1,0.7c2-0.3,2.1-1.8,2.2-2.8c0-0.4,0.1-0.8,0.2-0.9c0.2,0.1,0.5,0.9,0.7,1.4c0.2,0.5,0.4,1.1,0.7,1.5
				c0.6,0.9,2.8,1.1,4.2,0.7c1.1-0.4,1.7-1.1,1.7-2c0-1.2,0.2-2.1,0.7-2.5c0.5-0.4,1-0.3,1.5-0.1c0.5,0.2,0.6,0.6,0.7,1.5
				c0.1,1,0.3,2.2,1.7,3c0.5,0.3,1,0.3,1.3,0.1c0.5-0.3,0.7-1,0.8-1.8c0.1-0.9,0.3-1.8,1-2.1c0.3-0.1,0.5-0.2,0.7-0.1
				c0.3,0.1,0.4,0.7,0.5,1.3c0.1,0.7,0.3,1.5,0.8,2.2c0.1,0.1,0.1,0.2,0.1,0.2c-0.3,0.7-3.3,1.3-5.3,1.5L114.1,235.3z"/>
		</g>
		<g>
			<path class="st69" d="M120.6,232.1c0.1,0,0.2,0,0.4-0.1c0.7-0.3,1-1.1,1.2-1.8c0,0,0-0.1,0-0.1c0.5,1,1.8,0.7,3,0.4
				c0.7-0.1,1.4-0.3,1.8-0.2c0.1,0,0.1,0,0.2,0c-0.1,0.2-0.7,0.7-1.2,1l0.3,0.6c0.6-0.4,1.7-1.1,1.6-1.7c0-0.2-0.2-0.5-0.7-0.5
				c-0.6-0.1-1.3,0.1-2.1,0.2c-1.3,0.3-2.1,0.4-2.3-0.2c-0.1-0.2-0.3-0.6-0.6-0.6c-0.3,0-0.5,0.4-0.6,0.9c-0.2,0.5-0.4,1.2-0.8,1.4
				c0,0-0.1,0-0.1,0c0-0.1,0-0.4,0-0.5c0-0.6,0.1-1.3-0.4-1.8c-0.2-0.2-0.4-0.4-0.6-0.7c-0.7-0.9-1.6-2.3-3.1-1.4
				c-0.7,0.4-1.1,1-1.6,1.6c-0.6,0.9-0.9,1.1-1.2,0.9c-0.5-0.2-0.7-0.8-0.9-1.4c-0.2-0.6-0.4-1.3-1.1-1.4c-0.6-0.1-1,0.6-1.4,1.3
				c-0.5,0.9-1.1,2-2.1,2c-0.9,0-1.6-0.3-2.1-0.6c-0.5-0.3-1-0.5-1.5-0.1c-0.7,0.6-1.8,1.5-3,1.6c-1.2,0.2-3.1,0.5-3.1,0.5l0.1,0.7
				c0,0,1.9-0.4,3.1-0.5c1.3-0.2,2.6-1.2,3.3-1.8c0.2-0.1,0.3-0.1,0.8,0.2c0.5,0.3,1.3,0.6,2.4,0.6c0,0,0,0,0,0
				c1.4,0,2.1-1.3,2.6-2.3c0.2-0.4,0.6-1,0.7-1c0.3,0,0.4,0.5,0.6,1c0.2,0.6,0.5,1.4,1.2,1.8c0.9,0.5,1.5-0.3,2.1-1.1
				c0.4-0.5,0.8-1.1,1.4-1.4c0.8-0.5,1.4,0.2,2.2,1.3c0.2,0.3,0.4,0.6,0.6,0.8c0.3,0.3,0.2,0.8,0.2,1.3c0,0.5-0.1,0.9,0.3,1.2
				C120.4,232,120.5,232.1,120.6,232.1z"/>
		</g>
		<g>
			<path class="st70" d="M120.7,235.6c0.1,0,0.2,0,0.4-0.1c0.7-0.3,1-1.1,1.2-1.8c0,0,0-0.1,0-0.1c0.5,1,1.8,0.7,3,0.4
				c0.7-0.1,1.4-0.3,1.8-0.2c0.1,0,0.1,0,0.2,0c-0.1,0.2-0.7,0.7-1.2,1l0.3,0.6c0.6-0.4,1.7-1.1,1.6-1.7c0-0.2-0.2-0.5-0.7-0.5
				c-0.6-0.1-1.4,0.1-2.1,0.2c-1.3,0.3-2.1,0.4-2.3-0.2c-0.1-0.2-0.3-0.6-0.6-0.6c-0.4,0-0.5,0.4-0.6,0.9c-0.2,0.5-0.4,1.2-0.8,1.4
				c0,0-0.1,0-0.1,0c0-0.1,0-0.4,0-0.5c0-0.6,0.1-1.3-0.4-1.8c-0.2-0.2-0.4-0.4-0.6-0.7c-0.7-0.9-1.6-2.3-3.1-1.4
				c-0.7,0.4-1.1,1-1.6,1.6c-0.6,0.9-0.8,1.1-1.2,0.9c-0.5-0.2-0.7-0.8-0.9-1.4c-0.2-0.6-0.4-1.3-1.1-1.4c-0.6-0.1-1,0.6-1.4,1.3
				c-0.5,0.9-1.1,2-2.1,2c-1,0-1.6-0.3-2.1-0.6c-0.5-0.3-1-0.5-1.5-0.1c-0.7,0.6-1.8,1.5-3,1.6c-1.2,0.2-3.1,0.5-3.1,0.5l0.1,0.7
				c0,0,1.9-0.4,3.1-0.5c1.3-0.2,2.6-1.2,3.3-1.8c0.2-0.1,0.3-0.1,0.8,0.2c0.5,0.3,1.3,0.6,2.4,0.6c0,0,0,0,0,0
				c1.4,0,2.1-1.3,2.6-2.3c0.2-0.4,0.6-1,0.7-1c0,0,0,0,0,0c0.3,0,0.4,0.5,0.6,1c0.2,0.6,0.5,1.4,1.2,1.8c0.9,0.5,1.5-0.3,2.1-1.1
				c0.4-0.5,0.8-1.1,1.4-1.4c0.8-0.5,1.4,0.2,2.2,1.3c0.2,0.3,0.4,0.6,0.6,0.8c0.3,0.3,0.2,0.8,0.2,1.3c0,0.5-0.1,0.9,0.3,1.2
				C120.4,235.6,120.5,235.6,120.7,235.6z"/>
		</g>
		<g>
			<path class="st55" d="M122.2,233.9c1.3-0.7,2.7-1.8,2.7-2.3c0-0.1-0.2-0.2-0.5-0.3c-0.7-0.2-1.1-0.5-1.1-0.9
				c-0.1-0.6,0.5-1,0.9-1.4c-0.2-0.1-0.4-0.2-0.6-0.3c-0.6-0.3-1.7-0.8-2-0.7c0,0-0.1,0-0.1,0.2c-0.1,1-0.4,2.3-1.2,2.9
				c-0.4,0.2-0.9,0.3-1.5,0.1c-1-0.3-1.3-1-1.5-1.5c-0.2-0.5-0.3-0.6-0.7-0.5c-0.4,0.1-0.7,0.4-0.9,0.9c-0.5,0.7-1.1,1.6-2.8,1.2
				c-0.1,0-0.2-0.1-0.3-0.1c-0.2,0.3-0.4,0.5-0.7,0.8c-1.4,1.2-3,0-4.1-0.8c-0.5-0.3-1-0.7-1.2-0.7c-0.2,0-0.4,0.2-0.7,0.5
				c-0.4,0.5-1,1.3-2.5,1.3c-1,0-1.4-0.5-1.5-0.9c-0.6,0.1-1.3,0.1-2.4,0.1l0-0.7c1.1,0.1,1.8,0,2.2-0.1c0-0.5,0.3-1,0.6-1.3
				c0.2-0.2,0.5-0.2,0.7-0.1c0.3,0.2,0.5,0.6,0.4,1c-0.1,0.3-0.3,0.6-0.9,0.8c0.1,0.2,0.4,0.4,0.9,0.4c1.1,0,1.5-0.5,1.9-1
				c0.3-0.4,0.6-0.8,1.2-0.8c0,0,0,0,0,0c0.5,0,1,0.4,1.6,0.9c1.3,1,2.4,1.6,3.3,0.9c0.2-0.2,0.4-0.3,0.5-0.5
				c-1.1-0.5-1.5-1.3-1.5-2c0-0.4,0.3-0.7,0.6-0.8c0.5-0.1,1.3,0.5,1.6,1.2c0.2,0.4,0.2,0.8,0.1,1.1c0.1,0,0.2,0,0.2,0.1
				c1.2,0.3,1.6-0.2,2-0.9c0.3-0.5,0.7-1,1.4-1.2c1-0.2,1.2,0.4,1.5,0.9c0.2,0.5,0.4,0.9,1.1,1.1c0.4,0.1,0.7,0.1,0.9,0
				c0.6-0.4,0.8-1.6,0.9-2.4c0.1-0.4,0.3-0.6,0.5-0.7c0.7-0.3,1.7,0.2,2.6,0.7c0.3,0.2,0.7,0.4,0.9,0.4c0.3,0,0.4,0.2,0.4,0.3
				c0.1,0.3-0.2,0.5-0.5,0.7c-0.2,0.1-0.7,0.5-0.6,0.7c0,0,0,0.2,0.7,0.4c0.6,0.2,0.9,0.5,0.9,0.9c0.1,1.1-2.3,2.6-3,3L122.2,233.9z
				 M102.5,230.5c0.2-0.1,0.2-0.2,0.3-0.3c0-0.1,0-0.1,0-0.2C102.6,230.1,102.5,230.3,102.5,230.5z M111.1,228.9c0,0-0.1,0.1,0,0.3
				c0.1,0.4,0.4,0.8,1,1.2c0-0.2,0-0.4-0.1-0.6C111.7,229.2,111.2,228.9,111.1,228.9C111.1,228.9,111.1,228.9,111.1,228.9z"/>
		</g>
		<g>
			<path class="st69" d="M116.1,234.6c0.9-0.1,5.3-0.6,5.9-1.9c0.1-0.2,0.1-0.5-0.1-0.9c-0.4-0.5-0.5-1.3-0.7-1.9
				c-0.2-0.8-0.3-1.5-0.8-1.8c-0.3-0.2-0.7-0.2-1.2,0.1c-1.1,0.4-1.3,1.7-1.4,2.7c-0.1,0.5-0.2,1.2-0.4,1.3c-0.1,0.1-0.4,0-0.7-0.1
				c-1.1-0.6-1.2-1.5-1.3-2.4c-0.1-0.8-0.2-1.7-1.1-2c-2.4-0.8-4-0.8-4.9-0.2c-0.4,0.3-0.6,0.8-0.6,1.5c0.1,1.5-1,2.8-1.7,3.1
				c-0.4,0.1-0.5-0.1-0.5-0.1c-0.2-0.3-0.4-0.9-0.6-1.4c-0.4-1-0.7-1.7-1.2-1.8c-0.1,0-0.4,0-0.6,0.2c-0.3,0.3-0.4,0.8-0.4,1.4
				c-0.1,1-0.2,1.9-1.6,2.2l0.1,0.7c2-0.3,2.1-1.8,2.2-2.8c0-0.4,0.1-0.8,0.2-0.9c0.2,0.1,0.5,0.9,0.7,1.4c0.2,0.5,0.4,1.1,0.7,1.5
				c0.3,0.4,0.7,0.6,1.3,0.4c1.1-0.4,2.3-1.9,2.2-3.7c0-0.4,0.1-0.7,0.4-0.9c0.4-0.3,1.5-0.6,4.3,0.3c0.5,0.2,0.6,0.6,0.7,1.4
				c0.1,1,0.3,2.2,1.7,3c0.5,0.3,1,0.3,1.3,0.1c0.5-0.3,0.7-1,0.8-1.8c0.1-0.9,0.3-1.8,1-2.1c0.3-0.1,0.5-0.2,0.7-0.1
				c0.3,0.1,0.4,0.7,0.5,1.3c0.1,0.7,0.3,1.5,0.8,2.2c0.1,0.1,0.1,0.2,0.1,0.2c-0.3,0.7-3.3,1.3-5.3,1.5L116.1,234.6z"/>
		</g>
		<g>
			<path class="st55" d="M114.5,236.7c0.9-0.1,5.3-0.6,5.9-1.9c0.1-0.2,0.1-0.5-0.1-0.9c-0.4-0.5-0.5-1.3-0.7-1.9
				c-0.2-0.8-0.3-1.5-0.8-1.8c-0.3-0.2-0.7-0.2-1.2,0.1c-1.1,0.4-1.3,1.7-1.4,2.7c-0.1,0.5-0.2,1.2-0.4,1.3c-0.1,0.1-0.4,0-0.7-0.1
				c-1.1-0.6-1.2-1.5-1.3-2.4c-0.1-0.8-0.2-1.7-1.1-2c-2.4-0.8-4-0.8-4.9-0.2c-0.4,0.3-0.6,0.8-0.6,1.5c0.1,1.5-1,2.8-1.7,3.1
				c-0.4,0.1-0.5-0.1-0.5-0.1c-0.2-0.3-0.4-0.9-0.6-1.4c-0.4-1-0.7-1.7-1.2-1.8c-0.1,0-0.4,0-0.6,0.2c-0.3,0.3-0.4,0.8-0.4,1.4
				c-0.1,1-0.2,1.9-1.6,2.2l0.1,0.7c2-0.3,2.1-1.8,2.2-2.8c0-0.4,0.1-0.8,0.2-0.9c0.2,0.1,0.5,0.9,0.7,1.4c0.2,0.5,0.4,1.1,0.7,1.5
				c0.3,0.4,0.7,0.6,1.3,0.4c1.1-0.4,2.3-1.9,2.2-3.7c0-0.4,0.1-0.7,0.4-0.9c0.4-0.3,1.5-0.6,4.3,0.3c0.5,0.2,0.6,0.6,0.7,1.4
				c0.1,1,0.3,2.2,1.7,3c0.5,0.3,1,0.3,1.3,0.1c0.5-0.3,0.7-1,0.8-1.8c0.1-0.9,0.3-1.8,1-2.1c0.3-0.1,0.5-0.2,0.7-0.1
				c0.3,0.1,0.4,0.7,0.5,1.3c0.1,0.7,0.3,1.5,0.8,2.2c0.1,0.1,0.1,0.2,0.1,0.2c-0.3,0.7-3.3,1.3-5.3,1.5L114.5,236.7z"/>
		</g>
		<g>
			<polygon class="st71" points="116.7,260.2 100.6,258.5 96.5,230.7 118.5,233.5 			"/>
		</g>
		<g>
			<polygon class="st72" points="116.7,260.2 124.6,256.7 130.2,229.8 118.5,233.5 			"/>
		</g>
		<g>
			<g>
				<polygon class="st73" points="130.2,229.8 132.6,235.2 120.7,239.8 118.5,233.5 				"/>
			</g>
		</g>
		<g>
			<polygon class="st74" points="117.8,243.7 98,241.1 99.4,250.3 117.2,252.6 			"/>
		</g>
		<g>
			<polygon class="st75" points="117.8,243.7 128.1,240.3 126.3,248.9 117.2,252.6 			"/>
		</g>
		<path class="st76" d="M122.9,229.9c0,0,0.1-1.4-0.6-1.1c-0.7,0.3-0.7,0.6-0.8,1.1c-0.1,0.4-0.6,1.9,0,1.4
			C122.2,230.8,123.3,230.7,122.9,229.9z"/>
		<path class="st76" d="M116,230.9c0,0-1.4,0.2-0.9,0.8c0.4,0.6,0.8,0.6,1.2,0.5c0.4,0,2,0.2,1.3-0.3
			C117,231.4,116.8,230.3,116,230.9z"/>
		<path class="st76" d="M102.2,229.1c0,0-1.4,0.2-0.9,0.8c0.4,0.6,0.8,0.6,1.2,0.5c0.4,0,2,0.2,1.3-0.3
			C103.2,229.7,102.9,228.6,102.2,229.1z"/>
		<path class="st77" d="M125.1,229.9c0,0,0.7,0.7,0,0.9c-0.7,0.2-1,0.2-1.2-0.4c-0.2-0.7,0-1.1,0-1.1S124.7,229,125.1,229.9z"/>
		<path class="st77" d="M106.5,229.8c0,0,0.7,0.7,0,0.9c-0.7,0.2-1,0.2-1.2-0.4c-0.2-0.7,0-1.1,0-1.1S106,228.9,106.5,229.8z"/>
		<g>
			<g>
				<path class="st78" d="M112.9,228.3c0,0.7-0.5,1.3-1.2,1.3c-0.7,0-1.2-0.6-1.2-1.3c0-0.7,0.5-1.3,1.2-1.3
					C112.4,227,112.9,227.6,112.9,228.3z"/>
				<path class="st79" d="M111.7,228c-0.2,0.2-0.5,0.2-0.6,0c-0.1-0.2-0.1-0.5,0.1-0.6c0.2-0.2,0.5-0.2,0.6,0
					C112,227.5,111.9,227.8,111.7,228z"/>
				<path class="st80" d="M112.6,227.5c0,0.1,0,0.2,0,0.3c0,0.7-0.5,1.3-1.2,1.3c-0.4,0-0.7-0.2-0.9-0.4c0.1,0.5,0.6,0.9,1.2,0.9
					c0.7,0,1.2-0.6,1.2-1.3C112.9,228,112.8,227.7,112.6,227.5z"/>
			</g>
			<g>
				<path class="st78" d="M117.5,228.6c0,0.7-0.5,1.3-1.2,1.3c-0.7,0-1.2-0.6-1.2-1.3c0-0.7,0.5-1.3,1.2-1.3
					C117,227.3,117.5,227.9,117.5,228.6z"/>
				<path class="st79" d="M116.3,228.3c-0.2,0.2-0.5,0.2-0.6,0c-0.1-0.2-0.1-0.5,0.1-0.6c0.2-0.2,0.5-0.2,0.6,0
					C116.5,227.8,116.5,228.1,116.3,228.3z"/>
				<path class="st80" d="M117.2,227.8c0,0.1,0,0.2,0,0.3c0,0.7-0.5,1.3-1.2,1.3c-0.4,0-0.7-0.2-0.9-0.4c0.1,0.5,0.6,0.9,1.2,0.9
					c0.7,0,1.2-0.6,1.2-1.3C117.5,228.3,117.4,228,117.2,227.8z"/>
			</g>
			<g>
				<path class="st78" d="M118.8,229.5c0,0.7-0.5,1.3-1.2,1.3c-0.7,0-1.2-0.6-1.2-1.3c0-0.7,0.5-1.3,1.2-1.3
					C118.3,228.3,118.8,228.8,118.8,229.5z"/>
				<path class="st79" d="M117.6,229.2c-0.2,0.2-0.5,0.2-0.6,0c-0.1-0.2-0.1-0.5,0.1-0.6c0.2-0.2,0.5-0.2,0.6,0
					C117.8,228.7,117.8,229,117.6,229.2z"/>
				<path class="st80" d="M118.5,228.7c0,0.1,0,0.2,0,0.3c0,0.7-0.5,1.3-1.2,1.3c-0.4,0-0.7-0.2-0.9-0.4c0.1,0.5,0.6,0.9,1.2,0.9
					c0.7,0,1.2-0.6,1.2-1.3C118.8,229.2,118.7,228.9,118.5,228.7z"/>
			</g>
			<g>
				<path class="st78" d="M120,229.2c0,0.7-0.5,1.2-1.2,1.2c-0.6,0-1.2-0.5-1.2-1.2c0-0.7,0.5-1.2,1.2-1.2
					C119.5,228,120,228.5,120,229.2z"/>
				<path class="st79" d="M118.8,228.9c-0.2,0.2-0.5,0.2-0.6,0c-0.1-0.2-0.1-0.4,0.1-0.6c0.2-0.2,0.5-0.2,0.6,0
					C119,228.4,119,228.7,118.8,228.9z"/>
				<path class="st80" d="M119.7,228.4c0,0.1,0,0.2,0,0.3c0,0.7-0.5,1.2-1.2,1.2c-0.3,0-0.7-0.2-0.9-0.4c0.1,0.5,0.6,0.9,1.1,0.9
					c0.6,0,1.2-0.5,1.2-1.2C120,228.9,119.9,228.6,119.7,228.4z"/>
			</g>
			<g>
				<path class="st78" d="M115.9,228.3c0,0.7-0.5,1.3-1.2,1.3c-0.7,0-1.2-0.6-1.2-1.3c0-0.7,0.5-1.3,1.2-1.3
					C115.4,227.1,115.9,227.6,115.9,228.3z"/>
				<path class="st79" d="M114.7,228c-0.2,0.2-0.5,0.2-0.6,0c-0.1-0.2-0.1-0.5,0.1-0.6c0.2-0.2,0.5-0.2,0.6,0
					C114.9,227.5,114.9,227.8,114.7,228z"/>
				<path class="st80" d="M115.6,227.5c0,0.1,0,0.2,0,0.3c0,0.7-0.5,1.3-1.2,1.3c-0.4,0-0.7-0.2-0.9-0.4c0.1,0.5,0.6,0.9,1.2,0.9
					c0.7,0,1.2-0.6,1.2-1.3C115.9,228,115.8,227.7,115.6,227.5z"/>
			</g>
			<g>
				<path class="st78" d="M114.4,228.3c0,0.7-0.5,1.3-1.2,1.3c-0.7,0-1.2-0.6-1.2-1.3c0-0.7,0.5-1.3,1.2-1.3
					C113.9,227,114.4,227.6,114.4,228.3z"/>
				<path class="st79" d="M113.1,228c-0.2,0.2-0.5,0.2-0.6,0c-0.1-0.2-0.1-0.5,0.1-0.6c0.2-0.2,0.5-0.2,0.6,0
					C113.4,227.5,113.4,227.8,113.1,228z"/>
				<path class="st80" d="M114.1,227.5c0,0.1,0,0.2,0,0.3c0,0.7-0.5,1.3-1.2,1.3c-0.4,0-0.7-0.2-0.9-0.4c0.1,0.5,0.6,0.9,1.2,0.9
					c0.7,0,1.2-0.6,1.2-1.3C114.4,228,114.3,227.7,114.1,227.5z"/>
			</g>
			<g>
				<path class="st78" d="M110.4,228.4c0,0.6-0.5,1.1-1,1.1c-0.6,0-1-0.5-1-1.1c0-0.6,0.5-1.1,1-1.1
					C109.9,227.3,110.4,227.8,110.4,228.4z"/>
				<path class="st79" d="M109.3,228.1c-0.2,0.2-0.4,0.2-0.5,0c-0.1-0.1-0.1-0.4,0.1-0.5c0.2-0.2,0.4-0.2,0.5,0
					C109.5,227.7,109.5,228,109.3,228.1z"/>
				<path class="st80" d="M110.1,227.7c0,0.1,0,0.2,0,0.3c0,0.6-0.5,1.1-1,1.1c-0.3,0-0.6-0.1-0.8-0.4c0.1,0.5,0.5,0.8,1,0.8
					c0.6,0,1-0.5,1-1.1C110.4,228.1,110.3,227.9,110.1,227.7z"/>
			</g>
			<g>
				<path class="st78" d="M114.1,228.3c0,0.7-0.5,1.3-1.2,1.3c-0.7,0-1.2-0.6-1.2-1.3c0-0.7,0.5-1.3,1.2-1.3
					C113.5,227,114.1,227.6,114.1,228.3z"/>
				<path class="st79" d="M112.8,228c-0.2,0.2-0.5,0.2-0.6,0c-0.1-0.2-0.1-0.5,0.1-0.6c0.2-0.2,0.5-0.2,0.6,0
					C113.1,227.5,113,227.8,112.8,228z"/>
				<path class="st80" d="M113.8,227.5c0,0.1,0,0.2,0,0.3c0,0.7-0.5,1.3-1.2,1.3c-0.4,0-0.7-0.2-0.9-0.4c0.1,0.5,0.6,0.9,1.2,0.9
					c0.7,0,1.2-0.6,1.2-1.3C114.1,228,113.9,227.7,113.8,227.5z"/>
			</g>
			<g>
				<path class="st78" d="M113.6,226.5c0,0.7-0.5,1.3-1.2,1.3c-0.7,0-1.2-0.6-1.2-1.3c0-0.7,0.5-1.3,1.2-1.3
					C113.1,225.2,113.6,225.8,113.6,226.5z"/>
				<path class="st79" d="M112.3,226.2c-0.2,0.2-0.5,0.2-0.6,0c-0.1-0.2-0.1-0.5,0.1-0.6c0.2-0.2,0.5-0.2,0.6,0
					C112.6,225.7,112.5,226,112.3,226.2z"/>
				<path class="st80" d="M113.3,225.6c0,0.1,0,0.2,0,0.3c0,0.7-0.5,1.3-1.2,1.3c-0.4,0-0.7-0.2-0.9-0.4c0.1,0.5,0.6,0.9,1.2,0.9
					c0.7,0,1.2-0.6,1.2-1.3C113.6,226.1,113.5,225.8,113.3,225.6z"/>
			</g>
			<g>
				<path class="st78" d="M118.4,227.7c0,0.6-0.5,1-1,1c-0.6,0-1-0.5-1-1c0-0.6,0.5-1,1-1C118,226.7,118.4,227.1,118.4,227.7z"/>
				<path class="st79" d="M117.4,227.5c-0.2,0.2-0.4,0.2-0.5,0c-0.1-0.1-0.1-0.4,0.1-0.5c0.2-0.2,0.4-0.2,0.5,0
					C117.6,227.1,117.6,227.3,117.4,227.5z"/>
				<path class="st80" d="M118.2,227c0,0.1,0,0.2,0,0.3c0,0.6-0.5,1-1,1c-0.3,0-0.6-0.1-0.8-0.4c0.1,0.4,0.5,0.8,1,0.8
					c0.6,0,1-0.5,1-1C118.4,227.4,118.3,227.2,118.2,227z"/>
			</g>
			<g>
				<path class="st78" d="M112.2,228.1c0,0.7-0.5,1.3-1.2,1.3c-0.7,0-1.2-0.6-1.2-1.3c0-0.7,0.5-1.3,1.2-1.3
					C111.6,226.9,112.2,227.4,112.2,228.1z"/>
				<path class="st79" d="M110.9,227.8c-0.2,0.2-0.5,0.2-0.6,0c-0.1-0.2-0.1-0.5,0.1-0.6c0.2-0.2,0.5-0.2,0.6,0
					C111.2,227.3,111.1,227.6,110.9,227.8z"/>
				<path class="st80" d="M111.9,227.3c0,0.1,0,0.2,0,0.3c0,0.7-0.5,1.3-1.2,1.3c-0.4,0-0.7-0.2-0.9-0.4c0.1,0.5,0.6,0.9,1.2,0.9
					c0.7,0,1.2-0.6,1.2-1.3C112.2,227.8,112.1,227.5,111.9,227.3z"/>
			</g>
			<g>
				<path class="st78" d="M112.6,229.9c0,0.7-0.5,1.3-1.2,1.3c-0.7,0-1.2-0.6-1.2-1.3c0-0.7,0.5-1.3,1.2-1.3
					C112,228.6,112.6,229.2,112.6,229.9z"/>
				<path class="st79" d="M111.3,229.6c-0.2,0.2-0.5,0.2-0.6,0c-0.1-0.2-0.1-0.5,0.1-0.6c0.2-0.2,0.5-0.2,0.6,0
					C111.6,229.1,111.5,229.4,111.3,229.6z"/>
				<path class="st80" d="M112.3,229c0,0.1,0,0.2,0,0.3c0,0.7-0.5,1.3-1.2,1.3c-0.4,0-0.7-0.2-0.9-0.4c0.1,0.5,0.6,0.9,1.2,0.9
					c0.7,0,1.2-0.6,1.2-1.3C112.6,229.5,112.4,229.3,112.3,229z"/>
			</g>
			<g>
				<path class="st78" d="M117.4,226.5c0,0.7-0.5,1.3-1.2,1.3c-0.7,0-1.2-0.6-1.2-1.3c0-0.7,0.5-1.3,1.2-1.3
					C116.8,225.2,117.4,225.8,117.4,226.5z"/>
				<path class="st79" d="M116.1,226.2c-0.2,0.2-0.5,0.2-0.6,0c-0.1-0.2-0.1-0.5,0.1-0.6c0.2-0.2,0.5-0.2,0.6,0
					C116.4,225.7,116.3,226,116.1,226.2z"/>
				<path class="st80" d="M117.1,225.6c0,0.1,0,0.2,0,0.3c0,0.7-0.5,1.3-1.2,1.3c-0.4,0-0.7-0.2-0.9-0.4c0.1,0.5,0.6,0.9,1.2,0.9
					c0.7,0,1.2-0.6,1.2-1.3C117.4,226.1,117.2,225.8,117.1,225.6z"/>
			</g>
			<g>
				<path class="st78" d="M115.4,225.1c0,0.7-0.5,1.3-1.2,1.3c-0.7,0-1.2-0.6-1.2-1.3c0-0.7,0.5-1.3,1.2-1.3
					C114.9,223.8,115.4,224.4,115.4,225.1z"/>
				<path class="st79" d="M114.2,224.8c-0.2,0.2-0.5,0.2-0.6,0c-0.1-0.2-0.1-0.5,0.1-0.6c0.2-0.2,0.5-0.2,0.6,0
					C114.5,224.3,114.4,224.6,114.2,224.8z"/>
				<path class="st80" d="M115.1,224.2c0,0.1,0,0.2,0,0.3c0,0.7-0.5,1.3-1.2,1.3c-0.4,0-0.7-0.2-0.9-0.4c0.1,0.5,0.6,0.9,1.2,0.9
					c0.7,0,1.2-0.6,1.2-1.3C115.4,224.7,115.3,224.5,115.1,224.2z"/>
			</g>
			<g>
				<path class="st78" d="M110.3,229.5c0,0.7-0.5,1.3-1.2,1.3c-0.7,0-1.2-0.6-1.2-1.3c0-0.7,0.5-1.3,1.2-1.3
					C109.8,228.2,110.3,228.8,110.3,229.5z"/>
				<path class="st79" d="M109.1,229.2c-0.2,0.2-0.5,0.2-0.6,0c-0.1-0.2-0.1-0.5,0.1-0.6c0.2-0.2,0.5-0.2,0.6,0
					C109.3,228.7,109.3,229,109.1,229.2z"/>
				<path class="st80" d="M110,228.6c0,0.1,0,0.2,0,0.3c0,0.7-0.5,1.3-1.2,1.3c-0.4,0-0.7-0.2-0.9-0.4c0.1,0.5,0.6,0.9,1.2,0.9
					c0.7,0,1.2-0.6,1.2-1.3C110.3,229.2,110.2,228.9,110,228.6z"/>
			</g>
			<g>
				<path class="st78" d="M115.4,226.6c0,0.7-0.5,1.3-1.2,1.3c-0.7,0-1.2-0.6-1.2-1.3c0-0.7,0.5-1.3,1.2-1.3
					C114.9,225.4,115.4,225.9,115.4,226.6z"/>
				<path class="st79" d="M114.2,226.3c-0.2,0.2-0.5,0.2-0.6,0c-0.1-0.2-0.1-0.5,0.1-0.6c0.2-0.2,0.5-0.2,0.6,0
					C114.5,225.8,114.4,226.1,114.2,226.3z"/>
				<path class="st80" d="M115.1,225.8c0,0.1,0,0.2,0,0.3c0,0.7-0.5,1.3-1.2,1.3c-0.4,0-0.7-0.2-0.9-0.4c0.1,0.5,0.6,0.9,1.2,0.9
					c0.7,0,1.2-0.6,1.2-1.3C115.4,226.3,115.3,226,115.1,225.8z"/>
			</g>
			<g>
				<path class="st78" d="M116.1,228c0,0.7-0.5,1.3-1.2,1.3c-0.7,0-1.2-0.6-1.2-1.3c0-0.7,0.5-1.3,1.2-1.3
					C115.6,226.8,116.1,227.3,116.1,228z"/>
				<path class="st79" d="M114.9,227.7c-0.2,0.2-0.5,0.2-0.6,0c-0.1-0.2-0.1-0.5,0.1-0.6c0.2-0.2,0.5-0.2,0.6,0
					C115.2,227.3,115.1,227.5,114.9,227.7z"/>
				<path class="st80" d="M115.8,227.2c0,0.1,0,0.2,0,0.3c0,0.7-0.5,1.3-1.2,1.3c-0.4,0-0.7-0.2-0.9-0.4c0.1,0.5,0.6,0.9,1.2,0.9
					c0.7,0,1.2-0.6,1.2-1.3C116.1,227.7,116,227.4,115.8,227.2z"/>
			</g>
			<g>
				<path class="st78" d="M117.1,230c0,0.7-0.5,1.3-1.2,1.3c-0.7,0-1.2-0.6-1.2-1.3c0-0.7,0.5-1.3,1.2-1.3
					C116.5,228.7,117.1,229.3,117.1,230z"/>
				<path class="st79" d="M115.8,229.6c-0.2,0.2-0.5,0.2-0.6,0c-0.1-0.2-0.1-0.5,0.1-0.6c0.2-0.2,0.5-0.2,0.6,0
					C116.1,229.2,116,229.5,115.8,229.6z"/>
				<path class="st80" d="M116.8,229.1c0,0.1,0,0.2,0,0.3c0,0.7-0.5,1.3-1.2,1.3c-0.4,0-0.7-0.2-0.9-0.4c0.1,0.5,0.6,0.9,1.2,0.9
					c0.7,0,1.2-0.6,1.2-1.3C117.1,229.6,116.9,229.3,116.8,229.1z"/>
			</g>
			<g>
				<path class="st78" d="M114.8,229.9c0,0.7-0.5,1.3-1.2,1.3c-0.7,0-1.2-0.6-1.2-1.3c0-0.7,0.5-1.3,1.2-1.3
					C114.3,228.7,114.8,229.2,114.8,229.9z"/>
				<path class="st79" d="M113.5,229.6c-0.2,0.2-0.5,0.2-0.6,0c-0.1-0.2-0.1-0.5,0.1-0.6c0.2-0.2,0.5-0.2,0.6,0
					C113.8,229.1,113.8,229.4,113.5,229.6z"/>
				<path class="st80" d="M114.5,229.1c0,0.1,0,0.2,0,0.3c0,0.7-0.5,1.3-1.2,1.3c-0.4,0-0.7-0.2-0.9-0.4c0.1,0.5,0.6,0.9,1.2,0.9
					c0.7,0,1.2-0.6,1.2-1.3C114.8,229.6,114.7,229.3,114.5,229.1z"/>
			</g>
		</g>
		<path class="st80" d="M100.7,231.2c-0.5,1.9-0.8,4-0.8,6.2c0,9.7,5.4,17.6,12,17.6c1.9,0,3.7-0.6,5.2-1.8l-0.5,6.9l-16.1-1.7
			l-4.1-27.8L100.7,231.2z"/>
		<g>
			<polygon class="st73" points="118.5,233.5 116.1,240.4 93.8,237.1 96.5,230.7 			"/>
		</g>
	</g>
</g>
</svg>
