<?xml version="1.0" encoding="utf-8"?>
<!-- Generator: Adobe Illustrator 25.1.0, SVG Export Plug-In . SVG Version: 6.00 Build 0)  -->
<svg version="1.1" id="Layer_1" xmlns="http://www.w3.org/2000/svg" xmlns:xlink="http://www.w3.org/1999/xlink" x="0px" y="0px"
	 viewBox="0 0 300 265" style="enable-background:new 0 0 300 265;" xml:space="preserve">
<style type="text/css">
	.st0{fill:#0087FF;}
	.st1{fill:#0087EB;}
	.st2{fill:#FFFF00;}
	.st3{fill:#FFFFFF;}
	.st4{fill:#FAFAFA;}
	.st5{fill:#263238;}
	.st6{fill:#EBEBEB;}
	.st7{fill:#E0E0E0;}
	.st8{fill:none;}
	.st9{fill:#FF725E;}
	.st10{fill:#F5F5F5;}
	.st11{fill:#455A64;}
	.st12{fill:#FFBE9D;}
	.st13{fill:#724940;}
	.st14{opacity:0.3;}
	.st15{fill:none;stroke:#4E585D;stroke-width:5.000000e-02;stroke-miterlimit:10;}
	.st16{fill:#FFB400;}
	.st17{fill:#1A2E35;}
	.st18{fill:#ECECEC;}
	.st19{fill:#FF4F5B;}
	.st20{fill:url(#SVGID_1_);}
	.st21{fill:url(#SVGID_2_);}
	.st22{fill:url(#SVGID_3_);}
	.st23{fill:url(#SVGID_4_);}
	.st24{fill-rule:evenodd;clip-rule:evenodd;fill:#FFFFFF;}
	.st25{fill:url(#SVGID_5_);}
	.st26{fill:url(#SVGID_6_);}
	.st27{fill:url(#SVGID_7_);}
	.st28{fill:url(#SVGID_8_);}
</style>
<g id="Background_Complete">
	<g>
		<g>
			<g>
				<g>
					<g>
						<g>
							<g>
								<g>
									<path class="st0" d="M18.4,210.2l-1.3,0.4l-4-3.3l-0.7-2.7c0,0-2.1,0.4-0.9,3.9s0.7,2.6,0.7,2.6s-4.3,1.2-4.6,1.7
										c-0.2,0.4,0.9,4.8,1.5,7.2c0.3,1.2,1.3,2.1,2.5,2.1c0.2,0,0.3,0,0.5-0.1c1.1-0.3,6.4-2.8,6.4-2.8l2.3-0.6L18.4,210.2z"/>
								</g>
							</g>
						</g>
					</g>
				</g>
			</g>
			<g>
				<g>
					<g>
						<g>
							<g>
								<g>
									<polygon class="st0" points="22,208.4 23.7,217.8 21.4,218.5 19,209.4 									"/>
								</g>
							</g>
						</g>
					</g>
				</g>
			</g>
		</g>
	</g>
	<g>
		<g>
			<g>
				<g>
					<g>
						<g>
							<g>
								<g>
									<path class="st1" d="M16.7,88.4l-2,1.1l-7.8-3.8l-2.2-4.1c0,0-3.2,1.6,0,6.8c3.3,5.2,2.1,4.1,2.1,4.1S0.2,96.2,0,97.1
										c-0.2,0.7,3.3,7.5,5.2,11.2c0.9,1.9,3,3,4.9,2.5c0.3-0.1,0.5-0.2,0.8-0.3c1.7-0.9,9.4-7.1,9.4-7.1l3.5-2L16.7,88.4z"/>
								</g>
							</g>
						</g>
					</g>
				</g>
			</g>
			<g>
				<g>
					<g>
						<g>
							<g>
								<g>
									<polygon class="st1" points="21.9,84.1 28.3,98.9 24.8,100.9 17.4,87 									"/>
								</g>
							</g>
						</g>
					</g>
				</g>
			</g>
		</g>
	</g>
	<g>
		<g>
			<g>
				<ellipse class="st2" cx="238.6" cy="26.1" rx="21" ry="21.5"/>
			</g>
		</g>
		<g>
			<g>
				<g>
					<path class="st3" d="M231.3,20.7c0.8-0.1,1.5,0.8,1.6,2s-0.5,2.2-1.3,2.2c-0.8,0.1-1.5-0.8-1.6-2
						C229.9,21.8,230.5,20.7,231.3,20.7z"/>
				</g>
			</g>
			<g>
				<g>
					<g>
						<path class="st3" d="M233.1,15.2c0,0.2-1.8,0-3.7,0.8c-2,0.7-3.2,2-3.3,1.9c-0.1-0.1,1-1.7,3.1-2.5
							C231.3,14.6,233.2,15.1,233.1,15.2z"/>
					</g>
				</g>
			</g>
		</g>
		<g>
			<g>
				<g>
					<path class="st3" d="M244.7,20.4c-0.8,0-1.5,0.9-1.5,2.1s0.6,2.2,1.4,2.2s1.5-0.9,1.5-2.1S245.5,20.4,244.7,20.4z"/>
				</g>
			</g>
			<g>
				<g>
					<g>
						<path class="st3" d="M242.6,15c-0.1-0.1,1.8-0.7,4,0c2.2,0.7,3.4,2.3,3.2,2.3c-0.1,0.1-1.4-1.1-3.4-1.8
							C244.4,15,242.6,15.2,242.6,15z"/>
					</g>
				</g>
			</g>
		</g>
		<g>
			<g>
				<g>
					<path class="st3" d="M248.9,25.9c0,0,0,0.4-0.1,1.1c-0.2,0.7-0.5,1.8-1.2,2.9s-1.8,2.4-3.2,3.4c-1.4,1-3.3,1.8-5.3,1.9
						c-2,0.1-4-0.5-5.5-1.3c-1.6-0.9-2.7-2-3.5-3c-0.8-1.1-1.3-2.1-1.5-2.8c-0.2-0.7-0.3-1.1-0.3-1.1c0.1-0.1,0.4,1.6,2.1,3.6
						c0.8,1,2,2,3.5,2.8c1.5,0.8,3.3,1.3,5.2,1.2c1.9-0.1,3.7-0.8,5.1-1.8c1.4-0.9,2.4-2.1,3.2-3.2
						C248.6,27.5,248.8,25.8,248.9,25.9z"/>
				</g>
			</g>
		</g>
	</g>
	<g>
		<g>
			<g>
				<ellipse class="st2" cx="52" cy="237.2" rx="12.3" ry="12.6"/>
			</g>
		</g>
		<g>
			<g>
				<g>
					<path class="st3" d="M47.8,234.1c0.5,0,0.9,0.5,1,1.2c0.1,0.7-0.3,1.3-0.8,1.3c-0.5,0-0.9-0.5-1-1.2
						C47,234.7,47.3,234.1,47.8,234.1z"/>
				</g>
			</g>
			<g>
				<g>
					<g>
						<path class="st3" d="M48.8,230.9c0,0.1-1,0-2.2,0.5c-1.2,0.4-1.9,1.2-2,1.1c-0.1-0.1,0.6-1,1.8-1.4
							C47.8,230.5,48.9,230.8,48.8,230.9z"/>
					</g>
				</g>
			</g>
		</g>
		<g>
			<g>
				<g>
					<path class="st3" d="M55.6,233.9c-0.5,0-0.9,0.5-0.9,1.2c0,0.7,0.3,1.3,0.8,1.3c0.5,0,0.9-0.5,0.9-1.2
						C56.4,234.5,56.1,233.9,55.6,233.9z"/>
				</g>
			</g>
			<g>
				<g>
					<g>
						<path class="st3" d="M54.4,230.8c0-0.1,1-0.4,2.3,0c1.3,0.4,2,1.3,1.9,1.4c-0.1,0.1-0.8-0.6-2-1
							C55.4,230.7,54.4,230.9,54.4,230.8z"/>
					</g>
				</g>
			</g>
		</g>
		<g>
			<g>
				<g>
					<path class="st3" d="M58.1,237.1c0,0,0,0.2-0.1,0.7c-0.1,0.4-0.3,1-0.7,1.7c-0.4,0.7-1,1.4-1.9,2c-0.8,0.6-1.9,1-3.1,1.1
						c-1.2,0.1-2.3-0.3-3.2-0.8c-0.9-0.5-1.6-1.1-2.1-1.8s-0.8-1.2-0.9-1.6s-0.2-0.7-0.2-0.7c0.1,0,0.3,0.9,1.2,2.1
						c0.5,0.6,1.2,1.2,2,1.6c0.9,0.5,1.9,0.8,3.1,0.7c1.1-0.1,2.2-0.5,3-1c0.8-0.6,1.4-1.2,1.8-1.9C57.9,238.1,58,237.1,58.1,237.1z
						"/>
				</g>
			</g>
		</g>
	</g>
	<g>
		<g>
			<g>
				<g>
					<g>
						<g>
							<g>
								<g>
									<path class="st1" d="M62.3,149l-1.3-0.2l-2.2-4.6l0.4-2.7c0,0-2-0.5-2.3,3.1s-0.4,2.6-0.4,2.6s-4.3-0.7-4.7-0.4
										c-0.3,0.2-1.1,4.6-1.5,7c-0.2,1.2,0.3,2.4,1.4,2.9c0.2,0.1,0.3,0.1,0.5,0.1c1.1,0.2,6.7,0.2,6.7,0.2l2.3,0.4L62.3,149z"/>
								</g>
							</g>
						</g>
					</g>
				</g>
			</g>
			<g>
				<g>
					<g>
						<g>
							<g>
								<g>
									<polygon class="st1" points="66.2,148.9 63.9,157.9 61.6,157.5 63.1,148.5 									"/>
								</g>
							</g>
						</g>
					</g>
				</g>
			</g>
		</g>
	</g>
	<g>
		<g>
			<g>
				<g>
					<g>
						<g>
							<g>
								<g>
									<path class="st1" d="M279.2,14.1l-1.3-0.2l-2.2-4.6l0.4-2.7c0,0-2-0.5-2.3,3.1c-0.3,3.6-0.4,2.6-0.4,2.6s-4.3-0.7-4.7-0.4
										c-0.3,0.2-1.1,4.6-1.5,7c-0.2,1.2,0.3,2.4,1.4,2.9c0.1,0.1,0.3,0.1,0.5,0.1c1.1,0.2,6.7,0.2,6.7,0.2l2.3,0.4L279.2,14.1z"
										/>
								</g>
							</g>
						</g>
					</g>
				</g>
			</g>
			<g>
				<g>
					<g>
						<g>
							<g>
								<g>
									<polygon class="st1" points="283,13.9 280.8,23 278.5,22.6 279.9,13.6 									"/>
								</g>
							</g>
						</g>
					</g>
				</g>
			</g>
		</g>
	</g>
</g>
<g id="Picture_2">
	<g>
		<g>
			<g>
				<g>
					<g>
						<g>
							<g>
								<g>
									<g>
										<g>
											<g>
												
													<rect x="173.1" y="88.3" transform="matrix(1 -5.191162e-03 5.191162e-03 1 -0.571 1.041)" class="st4" width="54.3" height="44.4"/>
											</g>
										</g>
									</g>
								</g>
							</g>
						</g>
					</g>
					<g>
						<g>
							<g>
								<g>
									<g>
										<g>
											<g>
												<g>
													<path class="st5" d="M227.3,88.2c0,0-0.1,0-0.3,0c-0.2,0-0.4,0-0.8,0c-0.7,0-1.7,0-2.9,0c-2.6,0-6.3,0.1-11.1,0.1
														c-9.5,0.1-23.1,0.2-39.2,0.3l0.1-0.1c0.1,13.2,0.2,28.4,0.2,44.4l0,0l-0.2-0.2c20.1-0.1,38.8-0.2,54.3-0.3l-0.1,0.1
														c0-13.4-0.1-24.5-0.1-32.2c0-3.9,0-6.9,0-9c0-1,0-1.8,0-2.4C227.3,88.4,227.3,88.2,227.3,88.2s0,0.3,0,0.8
														c0,0.5,0,1.3,0,2.3c0,2.1,0.1,5.1,0.1,9c0.1,7.8,0.1,18.9,0.2,32.3v0.1h-0.1c-15.5,0.1-34.2,0.2-54.3,0.3h-0.2v-0.2
														l0,0c-0.1-16-0.1-31.2-0.2-44.4v-0.1h0.1c16.1-0.1,29.7-0.1,39.3-0.1c4.8,0,8.5,0,11.1,0c1.3,0,2.2,0,2.9,0
														c0.3,0,0.6,0,0.8,0C227.2,88.2,227.3,88.2,227.3,88.2z"/>
												</g>
											</g>
										</g>
									</g>
								</g>
							</g>
						</g>
					</g>
				</g>
			</g>
		</g>
		<g>
			<g>
				<g>
					<g>
						<g>
							<g>
								<g>
									
										<rect x="175" y="91.1" transform="matrix(1 -5.444856e-03 5.444856e-03 1 -0.5988 1.0918)" class="st6" width="50.5" height="38.8"/>
								</g>
							</g>
						</g>
					</g>
				</g>
			</g>
		</g>
		<g>
			<g>
				<g>
					<g>
						<g>
							<g>
								<g>
									<polygon class="st7" points="175.1,130.1 192.6,105.8 203.6,120.9 210.9,112.8 225.6,129.8 									"/>
								</g>
							</g>
						</g>
					</g>
				</g>
			</g>
		</g>
		<g>
			<g>
				<g>
					<g>
						<g>
							<g>
								<g>
									<g>
										<g>
											<path class="st7" d="M208.1,102.8c0,2.2-1.8,4.1-3.9,4.1s-4-1.8-4-4.1c0-2.2,1.8-4.1,3.9-4.1
												C206.3,98.7,208.1,100.6,208.1,102.8z"/>
										</g>
									</g>
								</g>
							</g>
						</g>
					</g>
				</g>
			</g>
		</g>
	</g>
</g>
<g id="Marketing_Icons">
	<g>
		<g>
			<g>
				<g>
					<g>
						<g>
							<ellipse class="st3" cx="217.6" cy="59.6" rx="13.6" ry="13.9"/>
						</g>
					</g>
					<g>
						<g>
							<g>
								<path class="st5" d="M231.2,59.6c0,0,0-0.3-0.1-0.9c0-0.3,0-0.7-0.1-1.1c-0.1-0.4-0.1-0.9-0.3-1.4c-0.2-1.1-0.7-2.3-1.5-3.7
									c-0.8-1.3-1.9-2.7-3.4-3.9c-1.5-1.2-3.5-2.2-5.7-2.6c-2.2-0.4-4.7-0.3-7.1,0.6c-1.2,0.4-2.4,1.1-3.4,1.9
									c-0.6,0.4-1,0.9-1.5,1.3c-0.4,0.5-0.9,1-1.3,1.6c-1.7,2.3-2.6,5.2-2.6,8.2c0,3,1,5.9,2.6,8.2c0.4,0.6,0.9,1.1,1.3,1.6
									c0.5,0.5,1,0.9,1.5,1.3c1.1,0.8,2.2,1.5,3.4,1.9c2.4,0.9,4.9,1,7.1,0.6c2.2-0.4,4.2-1.4,5.7-2.6c1.5-1.2,2.7-2.6,3.4-3.9
									c0.8-1.3,1.3-2.6,1.5-3.7c0.2-0.5,0.2-1,0.3-1.4c0.1-0.4,0.1-0.8,0.1-1.1C231.1,60,231.2,59.6,231.2,59.6s0,0.3,0,0.9
									c0,0.3,0,0.7-0.1,1.1c-0.1,0.4-0.1,0.9-0.3,1.4c-0.2,1.1-0.7,2.4-1.5,3.7c-0.8,1.3-1.9,2.8-3.4,4c-1.5,1.2-3.5,2.2-5.7,2.6
									c-2.2,0.4-4.8,0.3-7.2-0.6c-1.2-0.4-2.4-1.1-3.5-1.9c-0.6-0.4-1-0.9-1.6-1.3c-0.5-0.5-0.9-1-1.3-1.6
									c-1.7-2.3-2.6-5.2-2.7-8.3c0-3,1-6,2.7-8.3c0.4-0.6,0.9-1.1,1.3-1.6c0.5-0.5,1-1,1.6-1.3c1.1-0.8,2.2-1.5,3.4-1.9
									c2.4-0.9,4.9-1,7.2-0.6c2.2,0.4,4.2,1.4,5.7,2.6c1.5,1.2,2.7,2.6,3.4,4c0.8,1.4,1.2,2.6,1.5,3.7c0.1,0.5,0.2,1,0.3,1.4
									c0.1,0.4,0.1,0.8,0.1,1.1C231.2,59.3,231.2,59.6,231.2,59.6z"/>
							</g>
						</g>
					</g>
				</g>
			</g>
			<g>
				<g>
					<g>
						<g>
							<path class="st8" d="M217.6,50.6c-4.9,0-8.9,4.1-8.9,9.1s4,9.1,8.9,9.1c4.9,0,8.9-4.1,8.9-9.1S222.5,50.6,217.6,50.6z"/>
						</g>
					</g>
					<g>
						<g>
							<g>
								<path class="st9" d="M217.6,50.6c0,0,0.8-0.1,2.2,0.2c1.4,0.3,3.4,1.2,5,3.3c0.8,1,1.4,2.3,1.7,3.9c0.3,1.5,0.2,3.2-0.4,4.9
									c-0.3,0.8-0.7,1.6-1.2,2.4c-0.5,0.7-1.2,1.4-1.9,2c-1.5,1.1-3.4,1.8-5.4,1.8c-2,0-3.9-0.7-5.4-1.8c-0.8-0.6-1.4-1.2-1.9-2
									c-0.5-0.7-0.9-1.5-1.2-2.3c-0.6-1.6-0.6-3.3-0.4-4.9c0.3-1.5,0.9-2.8,1.7-3.9c1.6-2.1,3.6-3,5-3.3
									C216.8,50.5,217.6,50.6,217.6,50.6c0,0.1-0.8,0-2.1,0.4c-1.3,0.3-3.3,1.3-4.8,3.3c-0.7,1-1.4,2.3-1.6,3.8
									c-0.2,1.5-0.2,3.1,0.4,4.7c0.3,0.8,0.7,1.6,1.2,2.2c0.5,0.7,1.1,1.3,1.8,1.9c1.4,1.1,3.2,1.7,5.1,1.7c1.9,0,3.7-0.6,5.1-1.7
									c0.7-0.5,1.3-1.2,1.8-1.9c0.5-0.7,0.9-1.5,1.2-2.2c0.6-1.6,0.6-3.2,0.4-4.7c-0.2-1.5-0.9-2.7-1.6-3.8c-1.5-2-3.5-3-4.8-3.3
									C218.4,50.6,217.6,50.6,217.6,50.6z"/>
							</g>
						</g>
					</g>
				</g>
			</g>
			<g>
				<g>
					<g>
						<g>
							<path class="st8" d="M217.6,56.8c-1.6,0-2.8,1.3-2.8,2.9s1.3,2.9,2.8,2.9s2.8-1.3,2.8-2.9C220.4,58.1,219.2,56.8,217.6,56.8z
								"/>
						</g>
					</g>
					<g>
						<g>
							<g>
								<path class="st9" d="M217.6,56.8c0,0,0.2-0.1,0.7,0c0.4,0.1,1.1,0.4,1.6,1c0.5,0.7,0.9,1.8,0.5,2.9c-0.4,1.1-1.5,2-2.8,2
									c-1.3,0-2.5-1-2.8-2c-0.4-1.1-0.1-2.2,0.5-2.9c0.5-0.7,1.2-1,1.6-1C217.4,56.7,217.6,56.7,217.6,56.8c0,0-0.2,0-0.7,0.2
									c-0.4,0.1-1,0.4-1.4,1.1c-0.4,0.6-0.7,1.6-0.4,2.6c0.3,1,1.3,1.8,2.5,1.8c1.1,0,2.1-0.8,2.5-1.8c0.4-1,0.1-2-0.4-2.6
									c-0.4-0.6-1-0.9-1.4-1.1C217.9,56.8,217.6,56.8,217.6,56.8z"/>
							</g>
						</g>
					</g>
				</g>
			</g>
			<g>
				<g>
					<g>
						<path class="st10" d="M203.1,69.7c4.7-3.3,9.8-6.7,14.4-10"/>
					</g>
				</g>
				<g>
					<g>
						<g>
							<path class="st5" d="M217.6,59.6c0,0-3.2,2.3-7.2,5.1c-4,2.8-7.2,5-7.3,4.9s3.2-2.3,7.2-5.1
								C214.3,61.8,217.6,59.6,217.6,59.6z"/>
						</g>
					</g>
				</g>
			</g>
			<g>
				<g>
					<g>
						<path class="st5" d="M204.7,68.7c0,0.1-0.8,0.1-1.7,0c-0.9,0-1.7-0.1-1.7-0.1c0-0.1,0.8-0.1,1.7,0
							C204,68.6,204.7,68.6,204.7,68.7z"/>
					</g>
				</g>
			</g>
			<g>
				<g>
					<g>
						<path class="st5" d="M204.2,70.9c0,0,0-0.5,0.2-1.2c0.1-0.6,0.3-1.2,0.3-1.1c0,0,0,0.5-0.2,1.2
							C204.4,70.4,204.2,70.9,204.2,70.9z"/>
					</g>
				</g>
			</g>
			<g>
				<g>
					<g>
						<path class="st5" d="M205,70.7c0,0,0-0.6,0.1-1.2c0.1-0.7,0.2-1.2,0.3-1.2s0,0.6-0.1,1.2C205.2,70.2,205,70.7,205,70.7z"/>
					</g>
				</g>
			</g>
			<g>
				<g>
					<g>
						<path class="st5" d="M203.1,67.7c0,0,0.5,0,1.2,0.2c0.6,0.2,1.1,0.3,1.1,0.4c0,0-0.5,0-1.2-0.2
							C203.6,67.9,203.1,67.7,203.1,67.7z"/>
					</g>
				</g>
			</g>
		</g>
	</g>
	<g>
		<g>
			<g>
				<g>
					<g>
						<path class="st9" d="M276,149.6c0,0,0,0.1,0.1,0.2c0,0.1,0.1,0.3,0.1,0.5c0,0.5-0.1,1.2-0.5,1.9c-0.4,0.8-1.1,1.6-1.9,2.4
							c-0.8,0.9-1.7,1.8-2.7,2.9l-0.1,0.1l-0.1-0.1c-0.9-0.7-1.9-1.5-2.9-2.4c-1-0.8-2.2-1.7-2.8-3.1c-0.4-0.9-0.5-1.9-0.1-2.7
							c0.4-0.8,1.1-1.4,1.9-1.7c0.8-0.2,1.7,0,2.3,0.4c0.6,0.5,1.1,1.1,1.2,1.9l-0.2,0c0.1-1.3,1-2.2,2-2.5c1-0.4,1.9-0.1,2.4,0.3
							c0.6,0.4,0.9,0.9,1,1.2c0.1,0.2,0.1,0.3,0.1,0.4C276,149.6,276,149.6,276,149.6c0,0-0.1-0.2-0.2-0.5c-0.2-0.3-0.5-0.8-1-1.1
							c-0.5-0.4-1.4-0.6-2.3-0.2c-0.8,0.3-1.7,1.2-1.8,2.4l-0.1,0.9l-0.2-0.9c-0.1-0.6-0.5-1.3-1.1-1.7s-1.4-0.6-2.1-0.4
							c-0.7,0.2-1.4,0.8-1.7,1.5c-0.4,0.8-0.3,1.7,0.1,2.5c0.6,1.3,1.7,2.2,2.7,3c1,0.8,2,1.6,2.9,2.4l-0.2,0c1-1,1.9-2,2.7-2.9
							c0.8-0.8,1.5-1.6,1.9-2.3c0.4-0.7,0.5-1.4,0.5-1.9C276,149.9,276,149.6,276,149.6z"/>
					</g>
				</g>
			</g>
		</g>
		<g>
			<g>
				<g>
					<g>
						<g>
							<path class="st9" d="M260.8,141.7c0,0,0,0.1,0,0.4c0,0.3,0,0.6,0.1,1.1c0,1,0.1,2.4,0.2,4.1c0.2,3.6,0.5,8.8,0.8,15.1
								l-0.1-0.1c3.9-0.2,8.3-0.4,13-0.7l0.1,0l0,0.1c0.1,2,0.2,4.1,0.3,6.3l-0.2-0.1c1.9-2.1,3.8-4.4,5.9-6.6l0-0.1h0.1
								c4.5-0.2,9.3-0.5,14.3-0.7c1.5-0.1,2.9-0.1,4.4-0.2l-0.1,0.2c-0.4-7.3-0.7-14.3-1-20.8l0.1,0.1c-11.1,0.5-20.5,1-27.2,1.3
								c-3.3,0.1-6,0.3-7.8,0.4c-0.9,0-1.6,0.1-2.1,0.1c-0.2,0-0.4,0-0.5,0C260.9,141.7,260.8,141.7,260.8,141.7s0,0,0.2,0
								c0.1,0,0.3,0,0.5,0c0.5,0,1.2-0.1,2-0.1c1.8-0.1,4.5-0.2,7.8-0.4c6.7-0.4,16.2-0.9,27.3-1.5l0.1,0l0,0.1
								c0.3,6.4,0.7,13.4,1,20.8l0,0.2l-0.1,0c-1.4,0.1-2.9,0.1-4.4,0.2c-4.9,0.2-9.7,0.5-14.3,0.7l0.1-0.1c-2,2.3-4,4.5-5.9,6.6
								l-0.2,0.3l0-0.4c-0.1-2.2-0.2-4.3-0.3-6.3l0.1,0.1c-4.8,0.2-9.1,0.4-13,0.6l-0.1,0l0-0.1c-0.3-6.4-0.5-11.6-0.7-15.2
								c-0.1-1.8-0.1-3.2-0.2-4.1c0-0.5,0-0.8,0-1.1C260.8,141.8,260.8,141.7,260.8,141.7z"/>
						</g>
					</g>
				</g>
			</g>
		</g>
		<g>
			<g>
				<path class="st5" d="M282.2,151.4l-1.6,0.1l0.1,1.6l-0.4,0l-0.1-1.6l-1.6,0.1l0-0.4l1.6-0.1l-0.1-1.6l0.4,0l0.1,1.6l1.6-0.1
					L282.2,151.4z"/>
			</g>
			<g>
				<path class="st5" d="M284.5,148.1l0.3,6l-0.4,0l-0.3-5.6l-1.4,0.1l0-0.4L284.5,148.1z"/>
			</g>
			<g>
				<path class="st5" d="M286.1,151c-0.1-1.9,0.8-3.1,2.1-3.2c1.4-0.1,2.4,1.1,2.5,2.9c0.1,1.9-0.8,3.1-2.1,3.2
					S286.2,152.9,286.1,151z M290.3,150.8c-0.1-1.7-0.9-2.6-2-2.6s-1.8,1.1-1.7,2.7c0.1,1.7,0.9,2.6,2,2.6
					C289.6,153.5,290.3,152.5,290.3,150.8z"/>
			</g>
			<g>
				<path class="st5" d="M291.6,150.7c-0.1-1.9,0.8-3.1,2.1-3.2c1.4-0.1,2.4,1.1,2.5,2.9c0.1,1.9-0.8,3.1-2.1,3.2
					C292.7,153.7,291.7,152.6,291.6,150.7z M295.8,150.5c-0.1-1.7-0.9-2.6-2-2.6s-1.8,1.1-1.7,2.7c0.1,1.7,0.9,2.6,2,2.6
					S295.9,152.2,295.8,150.5z"/>
			</g>
		</g>
	</g>
	<g>
		<g>
			<g>
				<g>
					<rect x="264.7" y="79.6" class="st9" width="4.1" height="16.7"/>
				</g>
			</g>
			<g>
				<g>
					<rect x="258" y="78.3" class="st9" width="4.1" height="18"/>
				</g>
			</g>
			<g>
				<g>
					<rect x="251.4" y="80.6" class="st9" width="4.1" height="15.7"/>
				</g>
			</g>
			<g>
				<g>
					<rect x="244.8" y="83" class="st9" width="4.1" height="13.3"/>
				</g>
			</g>
			<g>
				<g>
					<g>
						<path class="st5" d="M271.9,96.4c0,0.1-6.7,0.2-15,0.2s-15-0.1-15-0.2s6.7-0.2,15-0.2S271.9,96.3,271.9,96.4z"/>
					</g>
				</g>
			</g>
			<g>
				<g>
					<g>
						<path class="st5" d="M270.2,80.6c0,0-0.5-0.1-1.3,0c-0.8,0.1-2.1,0.3-3.4,1c-0.6,0.4-1.3,0.9-1.9,1.6
							c-0.6,0.7-1.1,1.5-1.7,2.3c-0.6,0.8-1.4,1.6-2.4,2.1c-1,0.5-2.2,0.6-3.4,0.7c-1.2,0-2.3,0-3.4,0c-1.1,0.1-2.1,0.2-3.1,0.4
							c-1.9,0.5-3.5,1.5-4.4,2.8c-0.9,1.2-1.2,2.5-1.2,3.3c0,0.9,0.2,1.3,0.1,1.3c0,0-0.2-0.4-0.2-1.3c0-0.9,0.2-2.2,1.2-3.5
							c0.5-0.6,1.1-1.3,1.8-1.8c0.8-0.5,1.7-0.9,2.6-1.2s2-0.4,3.1-0.5s2.2,0,3.4,0c1.1,0,2.3-0.2,3.2-0.6c1-0.4,1.7-1.2,2.3-2
							s1.1-1.6,1.8-2.3c0.6-0.7,1.3-1.2,2-1.6c1.4-0.8,2.6-0.9,3.5-1c0.4,0,0.8,0,1,0.1C270.1,80.6,270.2,80.6,270.2,80.6z"/>
					</g>
				</g>
			</g>
		</g>
		<g>
			<g>
				<g>
					<path class="st5" d="M242.4,76.7c0.1,0,0.2,4.5,0.2,10s-0.1,10-0.2,10s-0.2-4.5-0.2-10S242.3,76.7,242.4,76.7z"/>
				</g>
			</g>
		</g>
	</g>
	<g>
		<g>
			<g>
				<path d="M251.4,192.5c-0.6,1.5-2.2,2.3-3.7,1.7c-1.5-0.6-2.2-2.3-1.6-3.8s2.2-2.3,3.7-1.7C251.2,189.3,251.9,191,251.4,192.5z"
					/>
			</g>
		</g>
		<g>
			<g>
				<path d="M261,190c-0.6,1.5-2.2,2.3-3.7,1.7c-1.5-0.6-2.2-2.3-1.6-3.8s2.2-2.3,3.7-1.7S261.6,188.5,261,190z"/>
			</g>
		</g>
		<g>
			<g>
				<path d="M256.5,201.7c-0.6,1.6-2.3,2.5-3.8,1.9c-1.5-0.6-2.2-2.4-1.5-4.1c0.6-1.6,2.3-2.5,3.8-1.9
					C256.5,198.2,257.2,200,256.5,201.7z"/>
			</g>
		</g>
		<g>
			<g>
				<g>
					<path d="M253.2,199.9c-0.2,0.1-1.6-1.6-3.1-3.9s-2.6-4.2-2.4-4.4s1.6,1.6,3.1,3.9C252.3,197.8,253.4,199.8,253.2,199.9z"/>
				</g>
			</g>
		</g>
		<g>
			<g>
				<g>
					<path d="M257.8,188.5c0.1,0.2-1.8,1-4.2,1.7c-2.4,0.7-4.4,1.1-4.4,0.9c-0.1-0.2,1.8-1,4.2-1.7
						C255.8,188.7,257.7,188.3,257.8,188.5z"/>
				</g>
			</g>
		</g>
	</g>
	<g>
		<g>
			<g>
				<g>
					<g>
						<g>
							<path class="st9" d="M224.3,217.1c0,0-0.1-0.2-0.1-0.7c0-0.2,0-0.5-0.1-0.9c-0.1-0.3-0.1-0.7-0.2-1.2c-0.2-0.9-0.6-1.9-1.2-3
								c-0.6-1.1-1.5-2.2-2.7-3.2c-1.2-1-2.7-1.8-4.5-2.1c-1.8-0.4-3.8-0.3-5.7,0.4c-1,0.3-1.9,0.8-2.8,1.4c-0.4,0.3-0.8,0.7-1.2,1
								c-0.4,0.4-0.8,0.8-1.1,1.2c-1.4,1.8-2.2,4.1-2.2,6.4c0,2.4,0.6,4.7,1.9,6.6c0.3,0.5,0.7,0.9,1,1.3c0.4,0.4,0.8,0.8,1.2,1.1
								c0.8,0.7,1.7,1.2,2.7,1.6c1.9,0.8,3.9,0.9,5.6,0.6c1.8-0.3,3.4-1,4.6-1.9c1.3-0.9,2.2-2,2.9-3.1s1.1-2.1,1.3-2.9
								c0.1-0.4,0.2-0.8,0.3-1.1c0.1-0.3,0.1-0.6,0.1-0.9C224.2,217.4,224.3,217.1,224.3,217.1c0,0,0,0.2,0,0.7c0,0.2,0,0.5-0.1,0.9
								c-0.1,0.4-0.1,0.8-0.2,1.2c-0.2,0.9-0.6,1.9-1.3,3c-0.7,1.1-1.6,2.3-2.9,3.2c-1.3,1-2.9,1.8-4.8,2.1
								c-1.9,0.3-3.9,0.2-5.9-0.6c-1-0.4-2-0.9-2.8-1.6c-0.4-0.3-0.9-0.8-1.3-1.1c-0.4-0.4-0.8-0.9-1.1-1.4
								c-1.4-1.9-2.1-4.4-2.1-6.9c0.1-2.5,0.9-4.9,2.4-6.8c0.3-0.5,0.8-0.9,1.1-1.3c0.4-0.4,0.9-0.8,1.3-1.1
								c0.9-0.7,1.9-1.2,2.9-1.5c2-0.7,4.1-0.7,5.9-0.3c1.9,0.4,3.4,1.3,4.7,2.3c1.2,1,2.1,2.2,2.7,3.4c0.6,1.1,1,2.2,1.1,3.1
								c0.1,0.4,0.1,0.8,0.2,1.2c0,0.4,0.1,0.6,0,0.9C224.3,216.9,224.3,217.1,224.3,217.1z"/>
						</g>
					</g>
				</g>
			</g>
		</g>
		<g>
			<g>
				<g>
					<g>
						<g>
							<path class="st9" d="M222.1,210.1c0,0-0.2,0.2-0.6,0.5c-0.2,0.1-0.4,0.3-0.7,0.5c-0.1,0.1-0.3,0.2-0.4,0.3
								c-0.2,0.1-0.4,0.2-0.5,0.3c-1.5,0.9-3.8,1.8-6.5,1.7c-0.3,0-0.7,0-1,0c-0.3-0.1-0.6-0.1-0.9-0.1c-0.1,0-0.3-0.1-0.5-0.1
								c-0.1,0-0.3-0.1-0.4-0.1c-0.3-0.1-0.6-0.1-0.9-0.2c-1.1-0.4-2-0.8-2.8-1.3c-1.5-0.9-2.2-1.8-2.1-1.8c0.1-0.1,0.9,0.6,2.4,1.4
								c0.7,0.4,1.7,0.8,2.7,1.1c0.3,0.1,0.5,0.1,0.8,0.2c0.1,0,0.3,0.1,0.4,0.1c0.1,0,0.3,0.1,0.4,0.1c0.3,0,0.6,0.1,0.9,0.1
								c0.3,0,0.6,0,0.9,0c2.5,0.1,4.8-0.7,6.3-1.4c0.2-0.1,0.4-0.2,0.6-0.2c0.2-0.1,0.3-0.2,0.5-0.3c0.3-0.2,0.5-0.3,0.8-0.4
								C221.8,210.1,222.1,210,222.1,210.1z"/>
						</g>
					</g>
				</g>
			</g>
		</g>
		<g>
			<g>
				<g>
					<g>
						<g>
							<path class="st9" d="M204.4,223.8c0,0,0.2-0.2,0.6-0.5c0.2-0.1,0.4-0.3,0.7-0.5c0.1-0.1,0.3-0.2,0.4-0.3
								c0.2-0.1,0.4-0.2,0.5-0.3c1.5-0.9,3.8-1.8,6.5-1.7c0.3,0,0.7,0,1,0c0.3,0.1,0.6,0.1,0.9,0.1c0.1,0,0.3,0.1,0.5,0.1
								c0.1,0,0.3,0.1,0.4,0.1c0.3,0.1,0.6,0.1,0.9,0.2c1.1,0.4,2,0.8,2.8,1.3c1.5,0.9,2.2,1.8,2.1,1.8c-0.1,0.1-0.9-0.6-2.4-1.4
								c-0.7-0.4-1.7-0.8-2.7-1.1c-0.3-0.1-0.5-0.1-0.8-0.2c-0.1,0-0.3-0.1-0.4-0.1c-0.1,0-0.3-0.1-0.4-0.1c-0.3,0-0.6-0.1-0.9-0.1
								c-0.3,0-0.6,0-0.9,0c-2.5-0.1-4.8,0.7-6.3,1.4c-0.2,0.1-0.4,0.2-0.6,0.2c-0.2,0.1-0.3,0.2-0.5,0.3c-0.3,0.2-0.5,0.3-0.8,0.4
								C204.7,223.7,204.4,223.8,204.4,223.8z"/>
						</g>
					</g>
				</g>
			</g>
		</g>
		<g>
			<g>
				<g>
					<g>
						<g>
							<path class="st9" d="M224.3,217.4c0,0.2-4.9,0.2-11.1,0c-6.1-0.1-11-0.4-11-0.6c0-0.2,4.9-0.2,11.1,0
								C219.4,216.9,224.3,217.2,224.3,217.4z"/>
						</g>
					</g>
				</g>
			</g>
		</g>
		<g>
			<g>
				<g>
					<g>
						<g>
							<path class="st9" d="M212.7,228.1c-0.2,0-0.2-5.1,0-11.3c0.1-6.2,0.4-11.3,0.6-11.3c0.2,0,0.2,5.1,0,11.3
								S212.9,228.1,212.7,228.1z"/>
						</g>
					</g>
				</g>
			</g>
		</g>
		<g>
			<g>
				<g>
					<g>
						<g>
							<path class="st9" d="M212.7,228.1c0,0.1-1.3-0.8-2.7-2.7c-0.7-1-1.4-2.2-2-3.7c-0.6-1.5-0.9-3.2-0.9-5.1c0-1.8,0.5-3.6,1.1-5
								s1.4-2.6,2.2-3.6c1.5-1.8,2.7-2.7,2.8-2.6c0.1,0.1-1.1,1-2.4,2.9c-0.7,0.9-1.4,2.1-2,3.5s-1,3.1-1,4.8c0,1.8,0.3,3.4,0.8,4.9
								s1.2,2.6,1.8,3.6C211.7,227.1,212.8,228.1,212.7,228.1z"/>
						</g>
					</g>
				</g>
			</g>
		</g>
		<g>
			<g>
				<g>
					<g>
						<g>
							<path class="st9" d="M213.5,205.5c0-0.1,1.3,0.8,2.7,2.7c0.7,1,1.4,2.2,2,3.7c0.6,1.5,0.9,3.2,0.9,5.1c0,1.8-0.5,3.6-1.1,5
								s-1.4,2.6-2.2,3.6c-1.5,1.8-2.7,2.7-2.8,2.6c-0.1-0.1,1.1-1,2.4-2.9c0.7-0.9,1.4-2.1,2-3.5s1-3.1,1-4.8
								c0-1.8-0.3-3.4-0.8-4.9s-1.2-2.6-1.8-3.6C214.6,206.6,213.5,205.6,213.5,205.5z"/>
						</g>
					</g>
				</g>
			</g>
		</g>
	</g>
</g>
<g id="Speech_Bubble">
	<g>
		<g>
			<g>
				<polygon class="st4" points="42.3,15.1 53.3,0.7 56,18.8 70.5,18.3 59.8,32.8 74.1,44.1 55.8,37.2 53.3,55.4 41,43.2 25.6,54.2 
					29,38.2 11.4,35.4 25.1,27.1 17.1,13.1 31,21.1 32.4,1.3 				"/>
			</g>
		</g>
		<g>
			<g>
				<g>
					<path class="st5" d="M59.8,32.8c0,0,0.3,0.3,1,0.8s1.6,1.2,2.8,2.2c2.5,2,6.1,4.8,10.8,8.5l0.4,0.3l-0.4-0.2
						c-2.5-1-5.3-2.1-8.4-3.2c-3.1-1.1-6.5-2.3-10-3.8l0.1-0.1c-0.8,5.4-1.7,11.5-2.7,18.1l0,0.2l-0.1-0.1c-3.8-3.8-7.9-8-12.2-12.3
						l0.1,0c-4.8,3.5-9.9,7.1-15.2,10.8l-0.2,0.2l0.1-0.3c1-5,2.1-10.3,3.2-15.7l0.1,0.1c-5.6-0.9-11.4-1.8-17.4-2.8l-0.3-0.1
						l0.3-0.2c3.8-2.2,7.8-4.6,11.8-7c0.6-0.4,1.2-0.7,1.8-1.1l0,0.2c-1.5-2.2-2.8-4.6-4.1-6.9c-1.3-2.3-2.5-4.7-3.7-7L17,13
						l0.4,0.2c4.7,2.7,9.3,5.4,13.8,8L31,21.3c0.2-3.5,0.5-6.9,0.7-10.2c0.1-1.7,0.2-3.3,0.3-5c0-0.8,0.1-1.6,0.1-2.5
						c0-0.4,0-0.8,0-1.2l0-0.6V1.5c0-0.1,0-0.2,0-0.2l0.1-0.2l0,0.1c3.5,4.9,6.8,9.6,10.1,14.1h-0.2C46.1,10,49.8,5.2,53.2,0.6
						l0.1-0.2l0,0.2c1,6.7,2,12.7,2.8,18.1l-0.1-0.1c5.6-0.2,10.4-0.3,14.5-0.5h0.1l-0.1,0.1c-3.5,4.7-6.2,8.3-8,10.8
						c-0.9,1.2-1.6,2.2-2.1,2.8C60,32.5,59.8,32.8,59.8,32.8s0.2-0.3,0.7-0.9c0.5-0.6,1.2-1.6,2-2.8c1.8-2.5,4.5-6.1,8-10.8l0.1,0.1
						c-4.1,0.1-8.8,0.3-14.5,0.5H56l0-0.1c-0.9-5.4-1.8-11.4-2.9-18.1l0.2,0c-3.4,4.6-7,9.4-10.9,14.6l-0.1,0.1l-0.1-0.1
						C39,10.9,35.7,6.2,32.2,1.3l0.2-0.1c0.1,0.2,0,0.2,0,0.4v0.3l0,0.6c0,0.4,0,0.8,0,1.2c0,0.8-0.1,1.6-0.1,2.5
						c-0.1,1.6-0.2,3.3-0.3,5c-0.2,3.4-0.5,6.8-0.7,10.2l0,0.2l-0.2-0.1c-4.5-2.6-9.1-5.2-13.8-8l0.2-0.2c1.2,2.3,2.4,4.7,3.7,7
						s2.6,4.7,4.1,6.9l0.1,0.1l-0.1,0.1c-0.6,0.4-1.2,0.7-1.8,1.1c-4,2.4-8.1,4.8-11.8,7l0-0.2c6,1,11.9,1.9,17.4,2.8l0.1,0l0,0.1
						c-1.1,5.4-2.2,10.7-3.2,15.7l-0.2-0.1C31,50,36.1,46.4,40.9,43l0.1,0L41,43c4.3,4.3,8.4,8.4,12.2,12.3l-0.2,0.1
						c1-6.5,1.9-12.6,2.7-18.1l0-0.1l0.1,0c3.5,1.5,6.9,2.7,10,3.8c3.1,1.1,5.9,2.2,8.4,3.2l-0.1,0.1c-4.7-3.7-8.3-6.6-10.8-8.6
						c-1.2-1-2.2-1.7-2.8-2.2C60.1,33.1,59.8,32.8,59.8,32.8z"/>
				</g>
			</g>
		</g>
		<g>
			<g>
				<g>
					<path class="st5" d="M41,29.7c0,0.8-0.7,1.5-1.5,1.5S38,30.6,38,29.7s0.7-1.5,1.5-1.5C40.3,28.3,41,28.9,41,29.7z"/>
				</g>
			</g>
			<g>
				<g>
					<path class="st5" d="M45.4,29.7c0,0.8-0.7,1.5-1.5,1.5s-1.5-0.7-1.5-1.5s0.7-1.5,1.5-1.5S45.4,28.9,45.4,29.7z"/>
				</g>
			</g>
			<g>
				<g>
					<path class="st5" d="M49.8,29.7c0,0.8-0.7,1.5-1.5,1.5s-1.5-0.7-1.5-1.5s0.7-1.5,1.5-1.5S49.8,28.9,49.8,29.7z"/>
				</g>
			</g>
		</g>
	</g>
</g>
<g id="Character_1">
	<g>
		<g>
			<g>
				<g>
					<path class="st5" d="M180.6,264.9h-67.3c-11.6,0-20.9-9.4-20.9-20.9V20.9C92.4,9.4,101.8,0,113.3,0h67.3
						c11.6,0,20.9,9.4,20.9,20.9V244C201.5,255.5,192.1,264.9,180.6,264.9z"/>
				</g>
			</g>
			<g>
				<g>
					<path class="st11" d="M170.1,265h-64c-12.5,0-22.6-10.1-22.6-22.6V22.7c0-12.5,10.1-22.5,22.6-22.5h64
						c12.5,0,22.6,10.1,22.6,22.5v219.8C192.7,254.9,182.6,265,170.1,265z"/>
				</g>
			</g>
			<g>
				<g>
					<g>
						<g>
							<g>
								<g>
									<g>
										<path class="st3" d="M176.2,4.3l-14.8,0c-2,0-3.6,2-3.6,4.6v3.3c0,2.5-1.6,4.6-3.6,4.6l-28.9,0c-2,0-3.6-2.1-3.6-4.6V8.8
											c0-2.5-1.6-4.6-3.6-4.6l-5.2,0l-13,0c-6.4,0-11.7,6.3-11.7,14.1l0.1,226.9c0,7.8,5.2,14.1,11.7,14.2l76.3,0.1
											c6.4,0,11.7-6.3,11.7-14.1l-0.1-226.9C187.9,10.7,182.7,4.3,176.2,4.3z"/>
									</g>
								</g>
								<g>
									<g>
										<g>
											<path class="st5" d="M176.2,4.3c0,0,0.1,0,0.4,0s0.8,0,1.3,0.2c1.2,0.2,2.9,0.8,4.7,2.2c0.9,0.8,1.8,1.7,2.6,2.9
												c0.8,1.2,1.5,2.7,2,4.3c0.2,0.8,0.4,1.7,0.5,2.7c0.1,0.9,0.1,1.9,0.1,2.9c0,2,0,4.1,0,6.4c0,18,0.1,44,0.1,76.1
												c0,32.1,0.1,70.4,0.1,112.8c0,5.3,0,10.7,0,16.1c0,2.7,0,5.4,0,8.2c0,1.4,0,2.8,0,4.1s0,2.8-0.1,4.2
												c-0.1,1.4-0.5,2.8-1,4.1c-0.5,1.3-1.2,2.6-2.1,3.7c-0.9,1.1-1.9,2.1-3.1,2.9c-1.2,0.8-2.5,1.3-3.9,1.5
												c-1.4,0.2-2.8,0.1-4.2,0.2c-1.4,0-2.8,0-4.2,0c-2.8,0-5.6,0-8.4,0c-11.3,0-22.8,0-34.4,0c-5.8,0-11.7,0-17.6,0
												c-2.9,0-5.9,0-8.9,0c-1.5,0-3-0.3-4.4-0.9c-1.4-0.6-2.6-1.5-3.7-2.7c-2.1-2.2-3.4-5.2-3.8-8.2c-0.2-1.5-0.2-3.1-0.2-4.6
												c0-1.5,0-3,0-4.6c0-6.1,0-12.1,0-18c0-11.9,0-23.7,0-35.2c0-23.1,0-45.4,0-66.6c0-21.2,0-41.4,0-60.3
												c0-9.4,0-18.6,0-27.3c0-4.4,0-8.7,0-12.9c0-4.2,1.6-8.4,4.6-11.1c1.5-1.3,3.2-2.4,5.1-2.8c0.5-0.1,0.9-0.2,1.4-0.2
												c0.5,0,1,0,1.4,0c0.9,0,1.9,0,2.8,0c3.7,0,7.4,0,10.9,0c0.9,0,1.8,0,2.6,0c0.4,0,0.9,0,1.3,0c0.4,0,0.9,0.2,1.3,0.4
												c0.8,0.4,1.3,1.2,1.7,2s0.5,1.7,0.5,2.6c0,0.9,0,1.7,0,2.5c0,0.8,0.1,1.7,0.3,2.4c0.3,0.8,0.8,1.4,1.4,1.9
												c0.3,0.2,0.7,0.4,1,0.5c0.4,0.1,0.7,0.1,1.1,0.1c6.2,0,12,0,17.4,0c2.7,0,5.2,0,7.6,0c1.2,0,2.4,0,3.6,0
												c1.1,0,2.1-0.8,2.7-1.7c0.6-0.9,0.8-2,0.8-3.1c0-1.1,0-2.1,0-3.1c0-1,0.3-2,0.8-2.8c0.5-0.8,1.2-1.4,2.1-1.6
												c0.4-0.1,0.8-0.1,1.2-0.1s0.8,0,1.2,0c0.8,0,1.5,0,2.2,0c1.4,0,2.7,0,3.9,0c2.3,0,4.1,0,5.2,0
												C175.6,4.3,176.2,4.3,176.2,4.3s-0.6,0-1.8,0c-1.2,0-2.9,0-5.2,0c-1.1,0-2.4,0-3.9,0c-0.7,0-1.5,0-2.2,0
												c-0.4,0-0.8,0-1.2,0c-0.4,0-0.8,0-1.2,0.1c-0.8,0.2-1.5,0.8-2,1.6c-0.5,0.8-0.8,1.7-0.8,2.7c0,1,0,2,0,3.1
												c0,1.1-0.2,2.2-0.8,3.2c-0.6,1-1.6,1.8-2.8,1.8c-1.2,0-2.4,0-3.6,0c-2.4,0-5,0-7.6,0c-5.3,0-11.1,0-17.4,0
												c-0.4,0-0.8,0-1.2-0.1c-0.4-0.1-0.8-0.3-1.1-0.5c-0.7-0.5-1.1-1.2-1.4-2c-0.3-0.8-0.4-1.6-0.4-2.5c0-0.8,0-1.7,0-2.5
												c0-0.8-0.1-1.7-0.5-2.5c-0.3-0.8-0.9-1.5-1.6-1.9c-0.4-0.2-0.8-0.3-1.2-0.4c-0.4,0-0.9,0-1.3,0c-0.9,0-1.8,0-2.6,0
												c-3.5,0-7.2,0-10.9,0c-0.9,0-1.9,0-2.8,0c-0.5,0-0.9,0-1.4,0c-0.5,0-0.9,0.1-1.4,0.2c-1.9,0.4-3.6,1.4-5,2.7
												c-2.9,2.7-4.4,6.8-4.5,11c0,4.2,0,8.5,0,12.9c0,8.8,0,17.9,0,27.3c0,18.9,0,39.1,0,60.3s0,43.5,0,66.6
												c0,11.6,0,23.3,0,35.2c0,6,0,12,0,18c0,1.5,0,3,0,4.6c0,1.5-0.1,3,0.2,4.5c0.4,3,1.7,5.9,3.8,8.1c1,1.1,2.2,2,3.6,2.6
												c1.3,0.6,2.8,0.9,4.3,0.9c3,0,5.9,0,8.9,0c5.9,0,11.8,0,17.6,0c11.7,0,23.1,0,34.4,0c2.8,0,5.6,0,8.4,0
												c1.4,0,2.8,0,4.2,0c1.4,0,2.8,0.1,4.1-0.1c1.3-0.2,2.6-0.7,3.8-1.5s2.1-1.7,3-2.8c0.9-1.1,1.5-2.3,2-3.6
												c0.5-1.3,0.8-2.6,1-4c0.2-1.4,0.1-2.8,0.1-4.1s0-2.8,0-4.1c0-2.8,0-5.5,0-8.2c0-5.4,0-10.8,0-16.1c0-42.5,0-80.7,0-112.8
												c0-32.1,0-58.1,0-76.1c0-2.2,0-4.4,0-6.4c0-1,0-2-0.1-2.9c-0.1-0.9-0.3-1.8-0.5-2.6c-0.5-1.7-1.1-3.1-1.9-4.3
												c-0.8-1.2-1.7-2.2-2.6-2.9c-1.8-1.5-3.6-2-4.7-2.2c-0.6-0.1-1-0.1-1.3-0.2C176.4,4.3,176.2,4.3,176.2,4.3z"/>
										</g>
									</g>
								</g>
							</g>
						</g>
					</g>
				</g>
			</g>
		</g>
	</g>
	<g>
		<g>
			<g>
				<polygon class="st12" points="114.4,234.5 112.8,259 123.1,260.4 128.1,235.3 				"/>
			</g>
		</g>
		<g>
			<g>
				<g>
					<g>
						<g>
							<path class="st9" d="M112.9,255.8l-0.1,0.7c0,0-12.3,3.2-12.7,5.4l23.1,3l0.7-7.9C120.3,258.2,116.7,258,112.9,255.8z"/>
						</g>
					</g>
				</g>
			</g>
		</g>
		<g>
			<g>
				<g>
					<g>
						<g>
							<g>
								<path class="st3" d="M121.3,259.3c0.4,0.2,0.7,0.7,0.5,1.2c-0.2,0.5-0.7,0.7-1.2,0.5s-0.8-0.8-0.5-1.3
									C120.3,259.3,121,259,121.3,259.3"/>
							</g>
						</g>
					</g>
				</g>
			</g>
		</g>
		<g>
			<g>
				<g>
					<g>
						<g>
							<path class="st3" d="M123.2,265l0.2-1.9l-22.2-2.2c0,0-1.1,0.3-1.1,1.1L123.2,265z"/>
						</g>
					</g>
				</g>
			</g>
		</g>
		<g>
			<g>
				<g>
					<g>
						<g>
							<g>
								<path class="st5" d="M112.7,256.6c0,0.1,0.6,0.2,1.1,0.7c0.5,0.4,0.7,1,0.8,0.9c0.1,0,0-0.7-0.6-1.2
									C113.4,256.4,112.7,256.5,112.7,256.6z"/>
							</g>
						</g>
					</g>
				</g>
			</g>
		</g>
		<g>
			<g>
				<g>
					<g>
						<g>
							<g>
								<path class="st5" d="M110.2,257.3c0,0.1,0.4,0.4,0.8,0.9c0.3,0.5,0.4,1.1,0.5,1.1c0.1,0,0.3-0.6-0.2-1.3
									C110.8,257.3,110.2,257.2,110.2,257.3z"/>
							</g>
						</g>
					</g>
				</g>
			</g>
		</g>
		<g>
			<g>
				<g>
					<g>
						<g>
							<g>
								<path class="st5" d="M108.4,260.1c0.1,0,0.3-0.5,0.1-1.2s-0.7-1-0.8-0.9c-0.1,0.1,0.2,0.5,0.4,1
									C108.3,259.5,108.3,260,108.4,260.1z"/>
							</g>
						</g>
					</g>
				</g>
			</g>
		</g>
		<g>
			<g>
				<g>
					<path class="st5" d="M156.2,36.9c0.3-1.7,1.8-3,3.4-3.4c1.6-0.4,3.4-0.1,4.9,0.5c1.8,0.7,3.5,1.6,4.7,3s2.1,3.3,2,5.2
						c-0.1,1.8-1,3.6-0.5,5.3c0.4,1.3,1.5,2.3,2.6,3.1s2.3,1.5,3,2.7c0.7,1.2,0.9,2.8-0.1,3.8c-0.9,0.8-2.5,0.9-2.8,2.1
						c-0.2,0.7,0.2,1.5,0.4,2.2c0.5,1.5,0.1,3.2-0.7,4.6c-0.8,1.4-2.1,2.4-3.4,3.2c-2.4,1.4-5.4,2-7.9,0.9c-1.2-0.5-2.3-1.5-3.1-2.6
						c-1.3-1.9-1.9-4.2-2.1-6.5c-0.1-2.3,0.1-4.6,0.4-6.9"/>
				</g>
			</g>
			<g>
				<g>
					<g>
						<path class="st5" d="M155.3,64.4c2.1,0.6,4.4,0.1,6.1-1.2c1.7-1.4,2.7-3.6,2.7-5.8c-0.1-2.1-0.9-4.2-0.3-6.1
							c0.4-1.3,1.5-2.4,1.9-3.8c0.6-2-0.6-4.1-1.8-5.8c-0.7-1.1-1.5-2.3-2.5-3.1c-1-0.8-2.4-1.4-3.7-1.1"/>
					</g>
				</g>
			</g>
			<g>
				<g>
					<g>
						<g>
							<path class="st5" d="M136.8,37.6c0.1,1.5-0.9,2.9-1.9,4.1c-1,1.2-2.1,2.4-2.4,3.9c-0.4,2.7,2.2,5.3,1.7,8
								c-0.3,1.5-1.4,2.6-1.6,4.1c-0.2,1.4,0.5,2.8,1.5,3.9c0.9,1.1,2,2,2.9,3.1c0,0,1.7,2.8,6.9,1"/>
						</g>
					</g>
				</g>
			</g>
			<g>
				<g>
					<g>
						<g>
							<path class="st5" d="M160.1,40c0-1.4-1.2-2.5-2.5-3c-1.3-0.5-2.7-0.7-3.9-1.5c-1-0.7-1.7-1.8-2.6-2.7
								c-2.1-2.2-5.4-3.1-8.3-2.3c-2.9,0.8-5.3,3.3-6,6.3c-0.5,2-0.2,4.4,1.4,5.7c1.8,1.5,4.4,1.2,6.8,0.7s4.9-1,6.8,0.4
								c1.2,0.8,1.8,2.2,2.5,3.4c0.7,1.2,1.6,2.5,2.9,3c1.3,0.5,3.1-0.3,3.2-1.8"/>
						</g>
					</g>
				</g>
			</g>
			<g>
				<g>
					<g>
						<g>
							<g>
								<g>
									<g>
										<g>
											<g>
												<g>
													<g>
														<g>
															<g>
																<g>
																	<g>
																		<g>
																			<g>
																				<path class="st12" d="M154.6,40.3c1.2,0.1,2.1,1.2,2.1,2.4l0,0l-1.4,31.8c-0.1,3.8-5.4,5.9-9.4,5.8l0,0
																					c-4-0.1-4.1-2.1-4.1-5.7c-0.1-6-0.1-8.2-0.1-8.2c0,0-5-0.9-6-7.6c-0.5-3.3-0.3-8.8-0.1-13.3
																					c0.3-4,2.9-9,6.8-8.5L154.6,40.3z"/>
																			</g>
																		</g>
																	</g>
																</g>
															</g>
														</g>
													</g>
												</g>
											</g>
										</g>
										<g>
											<g>
												<g>
													<g>
														<g>
															<g>
																<g>
																	<g>
																		<g>
																			<g>
																				<g>
																					<path class="st5" d="M136.8,50c0,0.5,0.3,0.8,0.8,0.9c0.5,0,0.9-0.3,0.9-0.8c0-0.5-0.3-0.8-0.8-0.9
																						C137.2,49.2,136.8,49.5,136.8,50z"/>
																				</g>
																			</g>
																		</g>
																	</g>
																</g>
															</g>
														</g>
													</g>
												</g>
											</g>
											<g>
												<g>
													<g>
														<g>
															<g>
																<g>
																	<g>
																		<g>
																			<g>
																				<g>
																					<g>
																						<path class="st5" d="M136.6,47.7c0.1,0.1,0.7-0.4,1.6-0.4c0.9,0,1.6,0.5,1.7,0.4c0.1,0-0.1-0.2-0.4-0.5
																							c-0.3-0.2-0.8-0.4-1.3-0.4s-1,0.2-1.3,0.4C136.6,47.5,136.6,47.7,136.6,47.7z"/>
																					</g>
																				</g>
																			</g>
																		</g>
																	</g>
																</g>
															</g>
														</g>
													</g>
												</g>
											</g>
										</g>
										<g>
											<g>
												<g>
													<g>
														<g>
															<g>
																<g>
																	<g>
																		<g>
																			<g>
																				<g>
																					<path class="st5" d="M145.2,50.2c0,0.5,0.3,0.8,0.8,0.9c0.5,0,0.9-0.3,0.9-0.8c0-0.5-0.4-0.8-0.8-0.9
																						C145.6,49.4,145.2,49.7,145.2,50.2z"/>
																				</g>
																			</g>
																		</g>
																	</g>
																</g>
															</g>
														</g>
													</g>
												</g>
											</g>
											<g>
												<g>
													<g>
														<g>
															<g>
																<g>
																	<g>
																		<g>
																			<g>
																				<g>
																					<g>
																						<path class="st5" d="M145.7,48.2c0.1,0.1,0.7-0.4,1.6-0.4c0.9,0,1.6,0.5,1.7,0.4c0.1,0-0.1-0.2-0.4-0.5
																							c-0.3-0.2-0.8-0.4-1.3-0.4s-1,0.2-1.3,0.4C145.7,47.9,145.6,48.1,145.7,48.2z"/>
																					</g>
																				</g>
																			</g>
																		</g>
																	</g>
																</g>
															</g>
														</g>
													</g>
												</g>
											</g>
										</g>
										<g>
											<g>
												<g>
													<g>
														<g>
															<g>
																<g>
																	<g>
																		<g>
																			<g>
																				<g>
																					<path class="st5" d="M142.4,55.5c0,0-0.6-0.2-1.5-0.3c-0.2,0-0.4-0.1-0.5-0.2c-0.1-0.2,0-0.4,0.2-0.7
																						c0.2-0.6,0.4-1.2,0.7-1.8c0.9-2.6,1.6-4.7,1.5-4.7s-1,2-1.9,4.6c-0.2,0.6-0.4,1.2-0.7,1.8
																						c-0.1,0.3-0.2,0.6-0.1,0.9c0.1,0.2,0.2,0.3,0.4,0.3c0.1,0,0.3,0,0.4,0.1C141.8,55.5,142.4,55.5,142.4,55.5z"/>
																				</g>
																			</g>
																		</g>
																	</g>
																</g>
															</g>
														</g>
													</g>
												</g>
											</g>
										</g>
										<g>
											<g>
												<g>
													<g>
														<g>
															<g>
																<g>
																	<g>
																		<g>
																			<g>
																				<path class="st13" d="M141.8,66.4c0,0,4.4,0.3,8.8-2.4c0,0-2.2,4.6-8.8,4V66.4z"/>
																			</g>
																		</g>
																	</g>
																</g>
															</g>
														</g>
													</g>
												</g>
											</g>
										</g>
									</g>
								</g>
							</g>
							<g>
								<g>
									<g>
										<g>
											<g>
												<g>
													<g>
														<g>
															<g>
																<g>
																	<path class="st5" d="M145.3,45.9c0.1,0.2,1,0.1,2.1,0.3c1.1,0.1,1.9,0.4,2.1,0.2c0.1-0.1-0.1-0.3-0.4-0.6
																		c-0.3-0.2-0.9-0.5-1.5-0.5c-0.6-0.1-1.2,0-1.6,0.2C145.5,45.6,145.3,45.8,145.3,45.9z"/>
																</g>
															</g>
														</g>
													</g>
												</g>
											</g>
										</g>
									</g>
								</g>
							</g>
							<g>
								<g>
									<g>
										<g>
											<g>
												<g>
													<g>
														<g>
															<g>
																<g>
																	<path class="st5" d="M136.7,45.7c0.2,0.2,0.9,0,1.7,0c0.9,0,1.6,0.1,1.7-0.1c0.1-0.1,0-0.3-0.4-0.5
																		c-0.3-0.2-0.8-0.4-1.4-0.3c-0.6,0-1.1,0.2-1.4,0.4C136.8,45.3,136.7,45.6,136.7,45.7z"/>
																</g>
															</g>
														</g>
													</g>
												</g>
											</g>
										</g>
									</g>
								</g>
							</g>
						</g>
					</g>
				</g>
			</g>
			<g>
				<g>
					<g>
						<g>
							<path class="st5" d="M159.2,62.3c-1.8,0.4-3.8-0.2-5.1-1.5c-1.3-1.3-2-3.2-1.8-5.1c0.2-1.7,1.1-3.3,0.5-4.9
								c-0.7-2.1-3.6-2.7-4.3-4.8c-0.4-1.2,0-2.6-0.5-3.8c-0.5-1.1-1.6-1.7-2.7-2.1c-1.1-0.4-2.3-0.7-3.2-1.4
								c-0.9-0.7-1.5-2.1-0.9-3.2c4.9,0.6,9.7,1.8,14.3,3.6c1.1,0.4,2.2,0.9,2.8,1.9c0.7,1,0.6,2.4,0.6,3.6c-0.3,6-0.6,12-0.8,18"/>
						</g>
					</g>
				</g>
			</g>
			<g>
				<g>
					<g>
						<g>
							<path class="st11" d="M162.7,40.5c0,0,0.1,0.1,0.1,0.3c0,0.2,0,0.5-0.2,0.8c-0.2,0.3-0.6,0.6-1.2,0.6c-0.5,0-1.1-0.2-1.7-0.5
								c-0.6-0.3-1.2-0.5-1.9-0.6c-0.7,0-1.5,0.1-2.3,0.2s-1.7,0.3-2.6,0.3c-0.9,0-1.9-0.3-2.7-1c-0.7-0.7-1.1-1.6-1.5-2.5
								c-0.4-0.8-0.8-1.7-1.2-2.3c-1-1.3-2.6-1.7-3.8-1.4c-1.2,0.3-1.9,1.1-2.3,1.7c-0.4,0.6-0.4,1-0.5,1c0,0,0-0.1,0.1-0.3
								c0.1-0.2,0.1-0.5,0.3-0.8c0.3-0.6,1.1-1.5,2.3-1.9c0.6-0.2,1.4-0.2,2.1,0c0.7,0.2,1.4,0.7,2,1.4c0.5,0.7,0.9,1.5,1.3,2.3
								c0.4,0.8,0.8,1.7,1.5,2.3c0.7,0.7,1.6,0.9,2.4,0.9c0.9,0,1.7-0.2,2.6-0.3c0.8-0.1,1.6-0.2,2.4-0.2c0.8,0,1.4,0.3,2,0.6
								c0.6,0.3,1.1,0.5,1.6,0.5c0.5,0,0.9-0.2,1.1-0.5s0.3-0.5,0.3-0.7C162.7,40.6,162.7,40.5,162.7,40.5z"/>
						</g>
					</g>
				</g>
			</g>
			<g>
				<g>
					<g>
						<g>
							<path class="st11" d="M163.4,41.2c-0.1,0.1-1.1-1.6-3.1-2.8c-2-1.2-3.9-1.2-3.9-1.3c0,0,0.5-0.1,1.2,0c0.8,0.1,1.8,0.4,2.8,1
								c1,0.6,1.8,1.4,2.3,2C163.2,40.7,163.4,41.2,163.4,41.2z"/>
						</g>
					</g>
				</g>
			</g>
			<g>
				<g>
					<g>
						<path class="st11" d="M156.1,36.7c0,0,0,0.1-0.1,0.2c-0.1,0.1-0.2,0.3-0.4,0.5c-0.4,0.3-1.2,0.7-2.2,0.5c-1-0.2-2-0.8-2.8-1.7
							c-0.9-0.9-1.7-2-2.9-2.7c-1.2-0.7-2.6-0.8-3.8-0.5c-1.2,0.3-2.1,1-2.6,1.7c-0.6,0.7-0.9,1.5-1,2c-0.1,0.5-0.2,0.8-0.2,0.8
							c0,0,0-0.1,0-0.2s0-0.3,0.1-0.6c0.1-0.5,0.4-1.3,0.9-2.1c0.6-0.8,1.5-1.6,2.7-1.9c1.2-0.3,2.7-0.2,4,0.5
							c1.3,0.8,2.1,1.9,3,2.8c0.8,0.9,1.8,1.5,2.7,1.7c0.9,0.2,1.6-0.1,2.1-0.4C155.9,37,156.1,36.7,156.1,36.7z"/>
					</g>
				</g>
			</g>
			<g>
				<g>
					<path class="st11" d="M155.8,65.2c0,0,0.1,0,0.3,0.1c0.2,0,0.5,0.1,0.9,0.1c0.8,0,1.9-0.1,3.1-0.7c1.2-0.6,2.5-1.8,3.3-3.4
						c0.8-1.6,1.1-3.8,0.6-5.8c-0.2-1-0.5-2-0.6-2.9c-0.1-1,0.2-1.8,0.6-2.6c0.4-0.8,0.8-1.6,1-2.4c0.2-0.8,0.2-1.6,0.1-2.3
						c-0.2-1.4-0.9-2.4-1.4-2.9c-0.2-0.3-0.5-0.5-0.6-0.6s-0.2-0.2-0.2-0.2c0,0,0.3,0.3,0.8,0.9c0.4,0.6,1,1.6,1.2,2.9
						c0.1,0.7,0.1,1.4-0.1,2.2c-0.2,0.8-0.6,1.5-1,2.3c-0.2,0.4-0.4,0.8-0.6,1.3c-0.1,0.5-0.2,1-0.2,1.5c0,1,0.4,2,0.6,3
						c0.5,2,0.2,4-0.5,5.6c-0.7,1.6-1.9,2.7-3.1,3.3c-1.2,0.6-2.2,0.8-3,0.8C156.2,65.2,155.8,65.2,155.8,65.2z"/>
				</g>
			</g>
			<g>
				<g>
					<path class="st11" d="M167.4,35.5c0,0-0.4-0.4-1.1-0.6c-0.8-0.2-1.9-0.3-3,0.2c-1.1,0.5-1.8,1.5-2.1,2.2
						c-0.3,0.7-0.3,1.2-0.3,1.2c0.1,0,0.2-0.5,0.5-1.1c0.4-0.7,1.1-1.5,2.1-2s2.1-0.5,2.8-0.3C166.9,35.3,167.3,35.6,167.4,35.5z"/>
				</g>
			</g>
			<g>
				<g>
					<path class="st11" d="M162.5,39.7c0,0,0-0.2,0-0.4c0-0.3,0-0.7,0.3-1.2c0.2-0.5,0.7-1,1.4-1.3c0.7-0.3,1.5-0.4,2.4-0.1
						c0.9,0.3,1.6,1.1,2.1,2.1c0.5,1,0.7,2.2,0.7,3.5c0,1.3-0.3,2.6-0.6,4c-0.3,1.4-0.6,2.8-0.5,4.4c0.1,1.5,0.6,3,1.1,4.3
						c0.5,1.3,1.1,2.5,1.4,3.8c0.4,1.2,0.5,2.4,0.3,3.6c-0.1,1.1-0.5,2.1-0.9,3c-0.8,1.8-1.8,3-2.4,3.9c-0.3,0.4-0.5,0.7-0.7,1
						c-0.2,0.2-0.2,0.4-0.2,0.4s0.1-0.1,0.3-0.3s0.5-0.5,0.8-1c0.7-0.9,1.6-2.1,2.5-3.9c0.4-0.9,0.8-1.9,1-3.1
						c0.2-1.2,0.1-2.5-0.3-3.7c-0.3-1.3-0.9-2.5-1.4-3.8c-0.5-1.3-1-2.7-1.1-4.1c-0.1-2.9,1.1-5.7,1.1-8.3c0-1.3-0.2-2.6-0.7-3.6
						c-0.6-1-1.4-1.8-2.3-2.2c-0.9-0.4-1.9-0.3-2.6,0.1c-0.7,0.4-1.1,0.9-1.4,1.4c-0.2,0.5-0.3,1-0.2,1.2
						C162.5,39.6,162.5,39.7,162.5,39.7z"/>
				</g>
			</g>
			<g>
				<g>
					<g>
						<path class="st13" d="M142.7,57.7c0.1,0.4,0.3,0.8,0.6,1.1c0.2,0.3,0.6,0.6,1,0.6c0.4,0,0.9-0.2,1.1-0.6
							c0.2-0.4,0.3-0.8,0.3-1.3c0-0.4-0.2-0.9-0.6-0.9c-0.2,0-0.3,0-0.5,0.1c-0.7,0.3-1.4,0.6-2.1,0.9"/>
					</g>
				</g>
			</g>
			<g>
				<g>
					<g>
						<g>
							<path class="st5" d="M143.6,59.5c0-0.1,0.5,0.1,1.1-0.1c0.3-0.1,0.6-0.4,0.8-0.8c0.2-0.4,0.2-0.9,0-1.4
								c-0.1-0.1-0.1-0.2-0.2-0.3c-0.1-0.1-0.1-0.1-0.2-0.1c-0.1,0-0.2,0.1-0.3,0.1c-0.1,0-0.2,0.1-0.3,0.1
								c-0.4,0.2-0.9,0.3-1.2,0.5c-0.7,0.3-1.1,0.4-1.1,0.3c0,0,0.4-0.3,1-0.6c0.3-0.2,0.7-0.3,1.2-0.5c0.1,0,0.2-0.1,0.3-0.2
								c0.1,0,0.2-0.1,0.4-0.2c0.1,0,0.2,0,0.3,0s0.2,0.1,0.2,0.2c0.1,0.1,0.2,0.3,0.2,0.4c0.2,0.6,0.2,1.2-0.1,1.7
								c-0.2,0.5-0.7,0.8-1.1,0.9c-0.4,0.1-0.7,0.1-0.9,0C143.7,59.6,143.6,59.5,143.6,59.5z"/>
						</g>
					</g>
				</g>
			</g>
		</g>
		<g>
			<g>
				<path class="st5" d="M166.8,141.3c0,0.1,0,0.2,0,0.2C166.8,141.3,166.7,141,166.8,141.3z"/>
			</g>
		</g>
		<g>
			<g>
				<g>
					<path class="st12" d="M172.9,147l0.9,8.4l7.5,7c0,0,0.6-1.1,0.3-1.9c-0.3-0.9,1.7,1.1,1.7,1.1v4.8c0,0,1.3,0.5,1.7-0.6
						c0.4-1.1,0.7-5.2,0.7-5.2l-0.6-0.4c0,0,0.8-0.7,0.6-1.9c0,0,0.7-1.5,0.4-3.5c-0.3-2-0.8-3.1-0.8-3.1l-6.1-7L172.9,147z"/>
				</g>
			</g>
			<g>
				<g>
					<path class="st13" d="M176.6,155.1c-0.1,0.1,0.8,1.4,2.2,2.8s2.6,2.4,2.7,2.3c0.1-0.1-1.1-1.1-2.5-2.6
						C177.7,156.2,176.7,155,176.6,155.1z"/>
				</g>
			</g>
			<g>
				<g>
					<path class="st13" d="M181.9,156.6c-0.1,0.1,0.7,1,1.8,2.1s1.9,1.9,2,1.9s-0.7-1-1.8-2.1C182.8,157.4,181.9,156.6,181.9,156.6z
						"/>
				</g>
			</g>
			<g>
				<g>
					<path class="st13" d="M182.9,154.7c-0.1,0.1,0.6,0.8,1.4,1.7c0.8,0.9,1.3,1.8,1.4,1.8c0.1,0-0.3-1-1.1-2
						C183.8,155.2,182.9,154.6,182.9,154.7z"/>
				</g>
			</g>
			<g>
				<g>
					<path class="st13" d="M183.8,152.7c-0.1,0.1,0.5,0.6,1.1,1.4s1.1,1.4,1.2,1.3c0.1-0.1-0.3-0.8-0.9-1.5
						C184.4,153.1,183.8,152.6,183.8,152.7z"/>
				</g>
			</g>
		</g>
		<g>
			<g>
				<path class="st11" d="M128.8,52.6c0,0.1-1.3-0.4-2.7-1.1s-2.6-1.3-2.6-1.4s1.3,0.4,2.7,1.1C127.6,51.8,128.8,52.5,128.8,52.6z"
					/>
			</g>
		</g>
		<g>
			<g>
				<g>
					<path class="st12" d="M120.1,65.4c-0.6,0-2.1,0.9-3.3,2.6c0,0,0,0.1-0.1,0.1c-0.8,1.1-1.7-2.1-1.8-3.3c-0.1-0.8-0.9-1.3-1.7-1
						l-4,1.9l-1.2,0c-0.6,0.2-0.9,0.8-0.8,1.4l1.9,6.4l0,1.8l7.9,1.1l0.1-4.4c0.1-0.5,0.3-1.1,0.5-1.8c0.2-0.6,0.5-1.2,0.9-1.7
						c0.4-0.5,1-1.2,1.4-1.6c0,0,0.1-0.1,0.1-0.1c0.1-0.1,0.2-0.1,0.2-0.2C120.9,66.2,120.7,65.4,120.1,65.4z"/>
				</g>
			</g>
			<g>
				<g>
					<path class="st9" d="M120,45.7c0,0-4.6-0.9-11.3-7.1C102,32.4,98.7,24,97.9,24.1c-0.8,0.1-4.3-1.5-10.5,13.4
						c-6.2,14.9-3.5,18.2-2.2,18.1c1.3-0.1,10.1-2.9,15.7-2.4c5.6,0.5,12.8,3.2,12.8,3.2L120,45.7z"/>
				</g>
			</g>
			<g>
				<g>
					<path class="st5" d="M130,53.4l-1.5,3.1l-0.7,1.4c-0.9,1.9-3.1,2.8-5,1.9l-10-3.2l5.4-13.6l10,5.1
						C130.1,49,130.9,51.4,130,53.4z"/>
				</g>
			</g>
			<g>
				<g>
					<path class="st5" d="M124.4,58.4l-3,6.4l-1.6-0.4l-10,8.8l-3-5.7c0,0,6-2.8,7.1-5.1s-0.2-2.7-0.2-2.7l2.8-3.4L124.4,58.4z"/>
				</g>
			</g>
			<g>
				<g>
					<path class="st5" d="M88,37.7c-3.3,8-4.6,15.2-2.8,15.9s5.8-5.2,9.1-13.2c3.3-8,4.6-15.2,2.8-15.9C95.4,23.7,91.3,29.6,88,37.7
						z"/>
				</g>
			</g>
			<g>
				<g>
					<polygon class="st11" points="130.9,57.8 128.2,57 129.8,53.7 131.9,54.9 					"/>
				</g>
			</g>
			<g class="st14">
				<g>
					<polygon points="115.4,57.6 122.8,62 123.6,60.2 					"/>
				</g>
			</g>
			<g>
				<g>
					<path class="st11" d="M128,54.5c0,0.1-1.4-0.4-3-1.1c-1.6-0.7-2.9-1.3-2.9-1.4s1.4,0.4,3,1.1C126.7,53.8,128,54.4,128,54.5z"/>
				</g>
			</g>
			<g>
				<g>
					<path class="st11" d="M127,56.5c0,0-0.3,0-0.8-0.2c-0.3-0.1-0.6-0.2-0.9-0.3c-0.3-0.1-0.7-0.3-1.1-0.4
						c-1.5-0.7-2.6-1.3-2.6-1.4c0-0.1,1.2,0.4,2.7,1.1c0.4,0.2,0.7,0.3,1,0.5c0.3,0.1,0.6,0.2,0.8,0.3C126.7,56.3,127,56.5,127,56.5
						z"/>
				</g>
			</g>
			<g>
				<g>
					<path class="st4" d="M95.1,35.7c0,0-4.1-2.4-6.1,3.2s2.2,6.4,2.2,6.4C92.8,42.5,94.2,39.3,95.1,35.7z"/>
				</g>
			</g>
			<g>
				<g>
					<path class="st5" d="M99.2,29c0,0,0,0.4-0.1,1.1s-0.3,1.7-0.5,2.9c-0.2,0.6-0.3,1.2-0.5,2c-0.1,0.3-0.2,0.7-0.3,1.1
						c-0.1,0.2-0.1,0.4-0.2,0.6s-0.1,0.4-0.2,0.6c-0.3,0.8-0.6,1.6-0.8,2.4c-0.1,0.2-0.2,0.4-0.2,0.6c-0.1,0.2-0.2,0.4-0.3,0.6
						c-0.2,0.4-0.4,0.8-0.6,1.3c-0.2,0.4-0.4,0.8-0.6,1.3c-0.1,0.2-0.2,0.4-0.3,0.6c-0.1,0.2-0.2,0.4-0.3,0.6
						c-0.4,0.8-0.8,1.5-1.2,2.2c-0.1,0.2-0.2,0.4-0.3,0.5c-0.1,0.2-0.2,0.3-0.3,0.5c-0.2,0.3-0.4,0.6-0.6,0.9
						c-0.4,0.6-0.8,1.2-1.1,1.7c-0.7,1-1.4,1.7-1.8,2.3s-0.7,0.8-0.7,0.8c0,0,0.2-0.3,0.6-0.9c0.4-0.6,1-1.4,1.7-2.3
						c0.3-0.5,0.7-1.1,1.1-1.7c0.2-0.3,0.4-0.6,0.6-0.9c0.1-0.2,0.2-0.3,0.3-0.5c0.1-0.2,0.2-0.3,0.3-0.5c0.4-0.7,0.8-1.5,1.2-2.2
						c0.1-0.2,0.2-0.4,0.3-0.6c0.1-0.2,0.2-0.4,0.3-0.6c0.2-0.4,0.4-0.8,0.6-1.3c0.2-0.4,0.4-0.8,0.6-1.3c0.1-0.2,0.2-0.4,0.3-0.6
						s0.2-0.4,0.2-0.6c0.3-0.8,0.6-1.6,0.8-2.4c0.1-0.2,0.1-0.4,0.2-0.6c0.1-0.2,0.1-0.4,0.2-0.6c0.1-0.4,0.2-0.7,0.3-1.1
						c0.2-0.7,0.4-1.3,0.5-1.9c0.2-1.2,0.4-2.2,0.6-2.9C99.1,29.4,99.2,29,99.2,29z"/>
				</g>
			</g>
			<g>
				<g>
					<path class="st12" d="M111.9,62.5c-0.4,0.2-0.6,0.7-0.5,1.2c0.3,0.9,0.8,2.3,1.2,3.1c0.1,0.3,0.2,0.6,0.4,0.8
						c0.2,0.2,0.5,0.3,0.8,0.2c0.3-0.1,0.4-0.4,0.5-0.8c0-0.3-0.1-0.6-0.2-0.9c-0.3-0.8-0.7-2.1-1.1-3.1
						C112.8,62.6,112.3,62.3,111.9,62.5L111.9,62.5z"/>
				</g>
			</g>
			<g>
				<g>
					<path class="st12" d="M110.7,64.2c-0.4,0.2-0.6,0.7-0.5,1.2c0.3,0.9,0.8,2.3,1.2,3.1c0.1,0.3,0.2,0.6,0.4,0.8
						c0.2,0.2,0.5,0.3,0.8,0.2c0.3-0.1,0.4-0.4,0.5-0.8c0-0.3-0.1-0.6-0.2-0.9c-0.3-0.8-0.7-2.1-1.1-3.1
						C111.6,64.2,111.1,64,110.7,64.2L110.7,64.2z"/>
				</g>
			</g>
			<g>
				<g>
					<path class="st12" d="M109.5,65.2c-0.4,0.2-0.6,0.6-0.4,1c0.3,0.8,0.7,2,1.1,2.7c0.1,0.2,0.2,0.5,0.4,0.7s0.5,0.3,0.7,0.2
						c0.2-0.1,0.4-0.4,0.4-0.7c0-0.3-0.1-0.5-0.2-0.8c-0.2-0.7-0.6-1.8-1-2.7C110.4,65.2,109.9,65,109.5,65.2L109.5,65.2z"/>
				</g>
			</g>
			<g>
				<g>
					<path class="st12" d="M108,65.6c-0.4,0.2-0.6,0.6-0.4,1c0.3,0.8,0.7,2,1.1,2.7c0.1,0.2,0.2,0.5,0.4,0.7
						c0.2,0.2,0.5,0.3,0.7,0.2c0.2-0.1,0.4-0.4,0.4-0.7c0-0.3-0.1-0.5-0.2-0.8c-0.2-0.7-0.6-1.8-1-2.7
						C108.9,65.6,108.4,65.4,108,65.6L108,65.6z"/>
				</g>
			</g>
			<g>
				<g>
					<g>
						<path class="st13" d="M113,67.6c-0.1,0-0.4-0.7-0.8-1.6c-0.4-0.9-0.6-1.6-0.5-1.7c0.1,0,0.4,0.7,0.8,1.6
							C112.8,66.8,113.1,67.6,113,67.6z"/>
					</g>
				</g>
			</g>
			<g>
				<g>
					<g>
						<path class="st13" d="M111.7,68.9c-0.1,0-0.5-0.8-0.9-1.8c-0.4-1-0.7-1.9-0.6-1.9s0.5,0.8,0.9,1.8
							C111.5,68.1,111.7,68.9,111.7,68.9z"/>
					</g>
				</g>
			</g>
			<g>
				<g>
					<g>
						<path class="st13" d="M110.3,69.1c-0.1,0-0.5-0.6-0.9-1.5s-0.5-1.7-0.4-1.7c0.1,0,0.4,0.7,0.8,1.6
							C110.1,68.4,110.4,69.1,110.3,69.1z"/>
					</g>
				</g>
			</g>
			<g>
				<g>
					<g>
						<path class="st15" d="M110.8,64.2"/>
					</g>
				</g>
			</g>
			<g>
				<g>
					<g>
						<path class="st15" d="M110.8,55.4"/>
					</g>
				</g>
			</g>
		</g>
		<g>
			<g>
				<g>
					<path class="st5" d="M168.1,193l-4.2-34.4c2.7-6.5,3.7-13,2.9-17.1c0.1,0.4,0.1,0.9,0-0.2c-0.7-7.2-6.7-12.4-6.7-12.4l-2-8.7
						l-25.9,3.7l1,14.5l-16.7,60.3l-3,51l13.5,1.6c0,0,5.3-25.5,6.7-36.2c1.3-9.8,1.3-17.4,1.3-17.4l12.7-19.4
						c1.5,8,3.2,17.9,4.1,23.1c0.4,2.3,1.4,4.5,2.8,6.3l33.2,26.8v-16.1C184.6,210.7,168.1,193,168.1,193z"/>
				</g>
			</g>
			<g>
				<g>
					<g>
						<path class="st11" d="M135.5,134.7c0,0-0.3-0.5-0.5-1.4s-0.6-2.2-0.8-3.6s-0.3-2.8-0.3-3.7s0.1-1.5,0.1-1.5
							c0.1,0,0.1,0.6,0.1,1.5s0.2,2.2,0.4,3.7c0.2,1.4,0.5,2.7,0.7,3.6C135.4,134.1,135.5,134.7,135.5,134.7z"/>
					</g>
				</g>
			</g>
			<g>
				<g>
					<g>
						<path class="st11" d="M136.7,124.8c0,0,0.1-0.1,0.3-0.2s0.6-0.1,1,0.2c0.4,0.2,0.8,0.6,0.9,1.2c0.1,0.6-0.2,1.3-0.8,1.7
							c-0.6,0.4-1.4,0.2-1.8-0.2c-0.5-0.4-0.7-1-0.6-1.4c0-0.4,0.2-0.8,0.3-1s0.2-0.3,0.2-0.3c0,0,0,0.1-0.1,0.3
							c-0.1,0.2-0.2,0.5-0.2,0.9c0,0.4,0.2,0.8,0.6,1.1c0.4,0.3,1,0.4,1.5,0.1c0.5-0.3,0.7-0.9,0.7-1.4c0-0.5-0.4-0.9-0.7-1.1
							C137.2,124.6,136.7,124.9,136.7,124.8z"/>
					</g>
				</g>
			</g>
			<g>
				<g>
					<g>
						<path class="st11" d="M153.7,131.8c0,0-0.1,0.1-0.4,0.2c-0.3,0.1-0.8,0.2-1.3,0.3c-0.6,0.1-1.2,0.1-2,0.1
							c-0.8-0.1-1.6-0.2-2.4-0.5c-0.8-0.3-1.6-0.6-2.2-1c-0.6-0.4-1.2-0.8-1.6-1.2s-0.7-0.8-0.9-1c-0.2-0.3-0.3-0.4-0.3-0.4
							c0.1,0,0.5,0.5,1.3,1.3c0.4,0.4,1,0.8,1.6,1.1c0.6,0.4,1.4,0.7,2.2,1c0.8,0.3,1.6,0.4,2.3,0.5c0.7,0.1,1.4,0.1,1.9,0
							C153,132,153.6,131.8,153.7,131.8z"/>
					</g>
				</g>
			</g>
			<g>
				<g>
					<g>
						<path class="st11" d="M162,157.8c0,0-0.1,0.1-0.3,0.4c-0.2,0.3-0.5,0.6-0.9,1.1c-0.7,1-1.8,2.4-3,4.2
							c-2.5,3.6-5.9,8.6-9.6,14.2c-3.7,5.6-7,10.6-9.4,14.3c-1.2,1.8-2.2,3.3-2.9,4.3c-0.3,0.5-0.6,0.9-0.8,1.2
							c-0.2,0.3-0.3,0.4-0.3,0.4s0.1-0.1,0.2-0.4c0.2-0.3,0.4-0.7,0.7-1.2c0.7-1.1,1.6-2.6,2.8-4.4c2.4-3.7,5.6-8.8,9.3-14.3
							c3.7-5.6,7.1-10.6,9.6-14.1c1.3-1.8,2.3-3.2,3.1-4.2c0.4-0.4,0.7-0.8,0.9-1.1C161.9,157.9,162,157.8,162,157.8z"/>
					</g>
				</g>
			</g>
		</g>
		<g>
			<g>
				<g>
					<path class="st5" d="M157.4,80.7c0.1,0,0.1-0.7,0.2-1.7c0.2-1,0.6-2.5,1.4-3.9c0.8-1.4,1.8-2.5,2.8-2.9
						c0.9-0.4,1.6-0.2,1.6-0.3c0,0-0.1-0.1-0.4-0.1c-0.3,0-0.7,0-1.2,0.2c-1,0.4-2.2,1.5-2.9,2.9c-0.8,1.4-1.2,2.9-1.3,4
						C157.3,80.1,157.4,80.7,157.4,80.7z"/>
				</g>
			</g>
			<g>
				<g>
					<path class="st16" d="M155.3,70.5l-13.5,2.2l-2.4,2.1c0,0-8.5,17-8.7,20.4c-0.2,3.8,1.8,10.3,1.8,10.3l-1.9,15
						c-0.3,1.7,0.8,3.4,1.5,3.4l23.4-3.2c3.1-0.6,4.3-2.2,4.1-4.1l-0.4-3.3l10-34.3c0.6,2-0.3-5.5-4.8-7.1
						C162.5,71.2,158.2,69.9,155.3,70.5z"/>
				</g>
			</g>
			<g>
				<g>
					<path class="st16" d="M140.6,73.8c0,0-4.2,3.3-8.1,7c-3.9,3.7-14.5,11.2-14.5,11.2l-0.7-15.7l-7.9-1.1c0,0-3.9,19.5-1.4,24.9
						s5.4,5.6,13.6,2.9c8.2-2.7,10.5-3.9,10.5-3.9L140.6,73.8z"/>
				</g>
			</g>
			<g>
				<g>
					<path class="st5" d="M138.5,76.1c0,0-0.1,0.1-0.2,0.2c-0.1,0.2-0.3,0.4-0.5,0.7c-0.4,0.6-1,1.6-1.7,2.7
						c-1.4,2.3-3.3,5.6-4.5,9.7c-1.2,4-1.3,7.9-0.7,10.6c0.3,1.3,0.7,2.4,1,3.1c0.1,0.4,0.3,0.6,0.4,0.8c0.1,0.2,0.1,0.3,0.2,0.3
						c0,0-0.2-0.4-0.4-1.1c-0.3-0.7-0.6-1.8-0.9-3.1c-0.5-2.7-0.4-6.5,0.8-10.5c1.2-4,3.1-7.3,4.4-9.6c0.7-1.1,1.2-2.1,1.6-2.8
						c0.2-0.3,0.3-0.6,0.4-0.8C138.5,76.2,138.5,76.1,138.5,76.1z"/>
				</g>
			</g>
			<g>
				<g>
					<path class="st16" d="M161.9,71.9c0,0-4.2,5.7-4.4,10.8c-0.2,5.2,7.6,36.3,7.6,36.3l6.8,28.4l8.5-3.2c0,0-2-20.2-2.4-22.7
						c-0.8-5.2-4.1-15.4-4.6-21.3c-0.5-5.9-2.6-17.2-3.6-19.9C168.7,77.6,168.6,71.8,161.9,71.9z"/>
				</g>
			</g>
			<g>
				<g>
					<path class="st5" d="M157.8,85.6c0,0,0,0.1,0,0.3c0,0.2,0.1,0.5,0.1,0.9c0.1,0.8,0.3,1.8,0.5,3.2c0.5,2.7,1.2,6.3,2.1,10.3
						c0.9,4,1.8,7.7,2.4,10.3c0.3,1.3,0.6,2.4,0.8,3.1c0.1,0.3,0.2,0.6,0.2,0.8c0.1,0.2,0.1,0.3,0.1,0.3c0,0,0-0.1,0-0.3
						c-0.1-0.2-0.1-0.5-0.2-0.8c-0.2-0.8-0.4-1.8-0.7-3.1c-0.6-2.7-1.4-6.3-2.3-10.3c-0.9-4-1.7-7.7-2.2-10.3
						c-0.2-1.3-0.4-2.3-0.6-3.1c-0.1-0.3-0.1-0.6-0.2-0.9C157.8,85.7,157.8,85.6,157.8,85.6z"/>
				</g>
			</g>
			<g class="st14">
				<g>
					<path d="M157.2,120.2c-1.3-1.4-1.6-3.5-1.8-5.4c-0.7-6.2-1.3-12.3-2-18.5c-0.4-3.8-0.8-7.9,0.6-11.4c0.2-0.5,0.5-1.1,1.1-1.3
						c0.5-0.2,1.1,0.2,1.4,0.6c0.3,0.4,1.2,1.1,1.4,1.6c1.4,5.5,2,10.9,3.3,16.4c0.4,1.4,0.8,1.4,0.5,2.9c-0.4,2.1-2.4,8.2-2.4,8.2
						s0.3,2.2,0.4,3.5C159.7,118.1,158.9,119.7,157.2,120.2"/>
				</g>
			</g>
			<g>
				<g>
					<path class="st4" d="M158.4,88.7c0,0,0.1,0.1,0.5,0.3c0.3,0.2,0.8,0.5,1.4,0.8c0.6,0.3,1.4,0.5,2.3,0.5
						c0.9-0.1,1.8-0.5,2.7-1.1c0.8-0.6,1.6-1.2,2.4-1.5c0.8-0.4,1.5-0.5,2.1-0.4c0.6,0.1,1.1,0.4,1.3,0.7c0.2,0.3,0.3,0.5,0.4,0.4
						c0,0,0-0.2-0.3-0.5c-0.2-0.3-0.7-0.7-1.4-0.8c-0.7-0.2-1.5-0.1-2.3,0.3c-0.8,0.4-1.6,1-2.4,1.5c-0.8,0.6-1.7,1-2.5,1
						c-0.8,0.1-1.6-0.2-2.2-0.4C159.1,89.1,158.4,88.6,158.4,88.7z"/>
				</g>
			</g>
			<g>
				<g>
					<path class="st4" d="M132,88c0,0,0,0.1,0.1,0.2c0.1,0.2,0.2,0.3,0.5,0.6c0.4,0.5,1.2,1.1,2.4,1.4c1.1,0.3,2.5,0.4,4,0.1
						c1.5-0.3,3-1,4.7-1.5c3.3-1.2,6.5-1.1,8.7-0.6c2.2,0.5,3.4,1.3,3.5,1.2c0,0-0.1-0.1-0.2-0.1s-0.4-0.2-0.6-0.3
						c-0.6-0.3-1.4-0.6-2.6-0.9c-1.1-0.3-2.5-0.5-4-0.4c-1.5,0-3.2,0.4-4.8,0.9c-1.6,0.6-3.2,1.2-4.6,1.6c-1.4,0.3-2.8,0.3-3.9,0
						c-1.1-0.3-1.9-0.8-2.3-1.2C132.2,88.3,132.1,88,132,88z"/>
				</g>
			</g>
			<g>
				<g>
					<path class="st4" d="M127.1,85.3c0,0-0.1,0.5-0.1,1.3c0.1,0.8,0.3,1.9,0.9,3c0.6,1.1,1.3,1.9,1.9,2.4s1.1,0.7,1.1,0.7
						c0-0.1-0.4-0.3-0.9-0.8c-0.6-0.5-1.3-1.4-1.8-2.4c-0.5-1.1-0.8-2.1-0.9-2.9C127.1,85.8,127.1,85.3,127.1,85.3z"/>
				</g>
			</g>
			<g class="st14">
				<g>
					<path d="M135.8,80.3c-6.4,6.6-11.9,13.9-14.2,22.8c3.7-1.2,7.1-2.4,9.4-3.4c0,0-0.7-3.7-0.3-5.9
						C131.1,91.2,131.1,89,135.8,80.3"/>
				</g>
			</g>
			<g>
				<g>
					<g>
						<path class="st5" d="M118.1,92.1c0.1,0.1-0.7,0.8-1.3,2c-0.6,1.2-0.7,2.3-0.8,2.3c-0.1,0-0.1-1.2,0.5-2.4
							C117.2,92.7,118.1,92,118.1,92.1z"/>
					</g>
				</g>
			</g>
		</g>
	</g>
</g>
<g id="Pictures_1">
	<g>
		<g>
			<g>
				<g>
					<g>
						<g>
							<g>
								<g>
									<g>
										<g>
											<g>
												<polygon class="st4" points="127.3,119.1 123.1,156.1 77.8,150.6 82.1,113.6 												"/>
											</g>
										</g>
									</g>
								</g>
							</g>
						</g>
					</g>
					<g>
						<g>
							<g>
								<g>
									<g>
										<g>
											<g>
												<g>
													<path class="st5" d="M127.3,119.1c0,0-0.1,0-0.2,0c-0.2,0-0.4,0-0.6-0.1c-0.6-0.1-1.4-0.2-2.5-0.3
														c-2.2-0.2-5.3-0.6-9.3-1.1c-7.9-0.9-19.2-2.3-32.7-3.9l0.1-0.1c-1.3,11-2.7,23.7-4.3,37l0,0l-0.1-0.1
														c16.8,2,32.3,3.9,45.2,5.5l-0.1,0.1c1.3-11.1,2.4-20.4,3.2-26.9c0.4-3.2,0.7-5.8,0.9-7.5c0.1-0.9,0.2-1.5,0.2-2
														C127.3,119.3,127.3,119.1,127.3,119.1s0,0.2-0.1,0.7c-0.1,0.4-0.1,1.1-0.2,2c-0.2,1.7-0.5,4.3-0.8,7.5
														c-0.7,6.5-1.8,15.8-3.1,26.9l0,0.1l-0.1,0c-12.9-1.6-28.5-3.4-45.3-5.5l-0.1,0l0-0.1l0,0c1.6-13.4,3-26,4.3-37l0-0.1
														l0.1,0c13.5,1.7,24.8,3.1,32.7,4c4,0.5,7.1,0.9,9.2,1.2c1.1,0.1,1.9,0.2,2.4,0.3c0.3,0,0.5,0.1,0.6,0.1
														C127.3,119,127.3,119.1,127.3,119.1z"/>
												</g>
											</g>
										</g>
									</g>
								</g>
							</g>
						</g>
					</g>
				</g>
			</g>
		</g>
	</g>
	<g>
		<g>
			<g>
				<g>
					<polyline class="st4" points="186.3,132.8 172.9,132.8 172.9,88.5 186.3,88.5 					"/>
				</g>
			</g>
			<g>
				<g>
					<g>
						<path class="st5" d="M186.3,88.5c0,0-0.1,0-0.2,0c-0.2,0-0.4,0-0.7,0c-0.6,0-1.5,0-2.7,0c-2.4,0-5.7,0-9.8,0.1l0.1-0.1
							c0,6,0,13.8,0,22.2c0,8.4,0,16.1,0,22.2l-0.1-0.1c4.1,0,7.4,0,9.8,0.1c1.1,0,2.1,0,2.7,0c0.3,0,0.5,0,0.7,0c0.2,0,0.2,0,0.2,0
							c0,0-0.1,0-0.2,0c-0.2,0-0.4,0-0.7,0c-0.6,0-1.5,0-2.7,0c-2.4,0-5.7,0-9.8,0.1h-0.1v-0.1c0-6,0-13.8,0-22.2
							c0-8.4,0-16.1,0-22.2v-0.1h0.1c4.1,0,7.4,0,9.8,0.1c1.1,0,2.1,0,2.7,0c0.3,0,0.5,0,0.7,0C186.2,88.4,186.3,88.5,186.3,88.5z"
							/>
					</g>
				</g>
			</g>
		</g>
		<g>
			<g>
				<polygon class="st6" points="186.3,129.9 175.1,130 175.1,91 186.3,90.8 				"/>
			</g>
		</g>
		<g>
			<g>
				<polygon class="st7" points="175.2,129.9 186.3,130 186.4,114.3 				"/>
			</g>
		</g>
	</g>
	<g>
		<g>
			<g>
				<g>
					<g>
						<g>
							<g>
								<g>
									<g>
										<g>
											<g>
												<polygon class="st4" points="88.9,163.4 91.7,194.9 53.3,198.4 50.5,166.9 												"/>
											</g>
										</g>
									</g>
								</g>
							</g>
						</g>
					</g>
					<g>
						<g>
							<g>
								<g>
									<g>
										<g>
											<g>
												<g>
													<path class="st5" d="M88.9,163.4c0,0-0.1,0-0.2,0c-0.1,0-0.3,0-0.5,0.1c-0.5,0.1-1.2,0.1-2.1,0.2
														c-1.8,0.2-4.5,0.4-7.9,0.8c-6.8,0.6-16.3,1.5-27.7,2.6l0.1-0.1c0.8,9.4,1.8,20.1,2.8,31.5l0,0l-0.1-0.1
														c14.2-1.3,27.4-2.5,38.4-3.5l-0.1,0.1c-0.8-9.5-1.5-17.3-1.9-22.8c-0.2-2.8-0.4-4.9-0.5-6.4c-0.1-0.7-0.1-1.3-0.1-1.7
														C89,163.6,88.9,163.4,88.9,163.4s0,0.2,0.1,0.6c0,0.4,0.1,0.9,0.2,1.7c0.1,1.5,0.3,3.6,0.6,6.4
														c0.5,5.5,1.2,13.4,2,22.9l0,0.1l-0.1,0c-11,1-24.2,2.2-38.4,3.5l-0.1,0l0-0.1l0,0c-1-11.4-1.9-22.1-2.7-31.5l0-0.1
														l0.1,0c11.4-1,21-1.9,27.8-2.5c3.4-0.3,6-0.5,7.8-0.7c0.9-0.1,1.6-0.1,2.1-0.2c0.2,0,0.4,0,0.5,0
														C88.9,163.4,88.9,163.4,88.9,163.4z"/>
												</g>
											</g>
										</g>
									</g>
								</g>
							</g>
						</g>
					</g>
				</g>
			</g>
		</g>
		<g>
			<g>
				<g>
					<g>
						<g>
							<g>
								<g>
									<polygon class="st6" points="54.4,196.3 90.1,193 87.8,165.5 52,168.8 									"/>
								</g>
							</g>
						</g>
					</g>
				</g>
			</g>
		</g>
	</g>
</g>
<g>
	<g>
		<g>
			
				<rect x="85.1" y="113" transform="matrix(0.1202 -0.9928 0.9928 0.1202 -43.5547 220.412)" class="st3" width="35" height="43.5"/>
		</g>
		<g>
			<g>
				<path class="st17" d="M122,154.8c0,0,0-0.1,0-0.2c0-0.1,0-0.3,0.1-0.5c0.1-0.4,0.1-1,0.2-1.9c0.2-1.6,0.5-4,0.8-7
					c0.7-6.1,1.8-14.8,3-25.3l0.1,0.1c-12.2-1.5-27.1-3.3-43.2-5.2l0,0l0.1-0.1c-1.5,12.5-2.9,24.3-4.2,34.8l-0.1-0.1
					c12.8,1.6,23.6,2.9,31.1,3.8c3.8,0.5,6.8,0.8,8.8,1.1c1,0.1,1.8,0.2,2.3,0.3c0.3,0,0.5,0.1,0.6,0.1
					C121.9,154.8,121.9,154.8,122,154.8C122,154.8,122,154.8,122,154.8S122,154.8,122,154.8c-0.1,0-0.1,0-0.2,0
					c-0.1,0-0.3,0-0.6-0.1c-0.5-0.1-1.3-0.1-2.3-0.3c-2.1-0.2-5-0.6-8.8-1.1c-7.6-0.9-18.4-2.2-31.2-3.7l-0.1,0l0-0.1
					c1.3-10.4,2.7-22.3,4.2-34.8l0-0.1l0.1,0l0,0c16.1,1.9,31,3.8,43.2,5.2l0.1,0l0,0.1c-1.3,10.5-2.3,19.2-3.1,25.3
					c-0.4,3-0.7,5.4-0.9,7c-0.1,0.8-0.2,1.4-0.2,1.8c0,0.2-0.1,0.4-0.1,0.5C122,154.7,122,154.8,122,154.8z"/>
			</g>
		</g>
	</g>
	<g>
		<g>
			<path class="st17" d="M125.5,124.2c0,0,0,0-0.1,0s-0.2,0-0.3,0c-0.3,0-0.7-0.1-1.2-0.1c-1.1-0.1-2.6-0.3-4.5-0.5
				c-3.8-0.5-9.1-1.1-14.9-1.9c-5.8-0.8-11.1-1.4-14.9-1.9c-1.9-0.2-3.4-0.4-4.5-0.6c-0.5-0.1-0.9-0.1-1.2-0.2c-0.1,0-0.2,0-0.3-0.1
				c-0.1,0-0.1,0-0.1,0s0,0,0.1,0s0.2,0,0.3,0c0.3,0,0.7,0.1,1.2,0.1c1.1,0.1,2.6,0.3,4.5,0.5c3.8,0.5,9.1,1.1,14.9,1.9
				s11.1,1.4,14.9,1.9c1.9,0.2,3.4,0.4,4.5,0.6c0.5,0.1,0.9,0.1,1.2,0.2c0.1,0,0.2,0,0.3,0.1S125.5,124.2,125.5,124.2z"/>
		</g>
	</g>
	<g>
		<path class="st17" d="M85.7,116.9c0,0.3-0.3,0.5-0.6,0.5c-0.3,0-0.5-0.3-0.4-0.6s0.3-0.5,0.6-0.5
			C85.5,116.3,85.7,116.6,85.7,116.9z"/>
	</g>
	<g>
		<path class="st17" d="M87.7,117.1c0,0.3-0.3,0.5-0.6,0.5s-0.5-0.3-0.4-0.6s0.3-0.5,0.6-0.5S87.8,116.8,87.7,117.1z"/>
	</g>
	<g>
		
			<ellipse transform="matrix(0.1202 -0.9928 0.9928 0.1202 -37.9288 191.829)" class="st17" cx="89.3" cy="117.3" rx="0.6" ry="0.5"/>
	</g>
</g>
<g>
	
		<rect x="88.1" y="139.8" transform="matrix(0.1202 -0.9928 0.9928 0.1202 -62.5565 217.8986)" class="st18" width="7.2" height="8.9"/>
</g>
<g>
	
		<rect x="97.8" y="141" transform="matrix(0.1202 -0.9928 0.9928 0.1202 -55.1587 228.6068)" class="st18" width="7.2" height="8.9"/>
</g>
<g>
	
		<rect x="109.2" y="142.3" transform="matrix(0.1202 -0.9928 0.9928 0.1202 -46.5323 241.0811)" class="st18" width="7.2" height="8.9"/>
</g>
<g>
	<g>
		<g>
			<path class="st3" d="M114.7,139.4l-25.1-3c-1.6-0.2-2.8-1.8-2.6-3.5l0,0c0.2-1.8,1.7-3,3.3-2.8l25.1,3c1.6,0.2,2.8,1.8,2.6,3.5
				l0,0C117.9,138.4,116.4,139.6,114.7,139.4z"/>
		</g>
		<g>
			<g>
				<path class="st17" d="M114.7,139.4c0,0,0.1,0,0.2,0c0.1,0,0.1,0,0.2,0c0.1,0,0.2,0,0.3,0c0.1,0,0.1,0,0.2,0s0.1,0,0.2-0.1
					c0,0,0.1,0,0.1,0s0.1,0,0.1,0c0.1,0,0.2-0.1,0.2-0.1c0.3-0.1,0.7-0.4,1-0.7c0.1-0.1,0.2-0.2,0.2-0.3c0.1-0.1,0.1-0.2,0.2-0.3
					c0.1-0.1,0.1-0.2,0.2-0.4c0-0.1,0.1-0.1,0.1-0.2l0-0.1l0-0.1c0-0.1,0-0.1,0.1-0.2c0-0.1,0-0.1,0-0.2l0-0.1l0-0.1
					c0-0.1,0-0.1,0-0.2c0-0.3,0-0.6-0.1-0.9c-0.2-0.6-0.6-1.2-1.1-1.7c-0.3-0.2-0.6-0.4-1-0.5c-0.4-0.1-0.7-0.1-1.1-0.2
					c-6.2-0.8-14.8-1.8-24.3-2.9c-0.3,0-0.6,0-0.9,0c-0.3,0.1-0.6,0.2-0.8,0.3c-0.3,0.1-0.5,0.3-0.7,0.6c-0.2,0.2-0.4,0.5-0.5,0.7
					c-0.1,0.3-0.2,0.6-0.3,0.9c-0.1,0.3-0.1,0.6-0.1,0.9c0,0.3,0.1,0.6,0.2,0.9s0.2,0.6,0.4,0.8c0.3,0.5,0.8,0.8,1.3,1
					c0.1,0.1,0.3,0.1,0.4,0.1c0.1,0,0.3,0.1,0.4,0.1c0.3,0,0.5,0.1,0.8,0.1c1.1,0.1,2.1,0.3,3.2,0.4c4.1,0.5,7.8,0.9,10.9,1.3
					c3.1,0.4,5.6,0.7,7.4,0.9c0.9,0.1,1.5,0.2,2,0.2c0.2,0,0.4,0.1,0.5,0.1C114.7,139.4,114.7,139.4,114.7,139.4s-0.1,0-0.2,0
					c-0.1,0-0.3,0-0.5-0.1c-0.5-0.1-1.1-0.1-2-0.2c-1.7-0.2-4.3-0.5-7.4-0.9c-3.1-0.4-6.8-0.8-10.9-1.3c-1-0.1-2.1-0.2-3.2-0.4
					c-0.3,0-0.5-0.1-0.8-0.1c-0.1,0-0.3,0-0.4-0.1c-0.1,0-0.3-0.1-0.4-0.1c-0.5-0.2-1-0.6-1.3-1.1c-0.2-0.2-0.3-0.5-0.4-0.8
					c-0.1-0.3-0.2-0.6-0.2-0.9s0-0.6,0.1-0.9c0.1-0.3,0.2-0.6,0.3-0.9s0.3-0.5,0.5-0.8c0.2-0.2,0.5-0.4,0.7-0.6
					c0.3-0.1,0.6-0.2,0.8-0.3c0.3-0.1,0.6-0.1,0.9,0c9.5,1.1,18.1,2.2,24.3,3c0.4,0.1,0.8,0.1,1.1,0.2c0.4,0.1,0.7,0.3,1,0.5
					c0.6,0.4,1,1.1,1.1,1.7c0.1,0.3,0.1,0.6,0.1,1c0,0.1,0,0.2,0,0.2l0,0.1l0,0.1c0,0.1,0,0.1,0,0.2c0,0.1,0,0.1-0.1,0.2l0,0.1
					l0,0.1c0,0.1-0.1,0.1-0.1,0.2c-0.1,0.1-0.1,0.2-0.2,0.4s-0.1,0.2-0.2,0.3c-0.1,0.1-0.2,0.2-0.2,0.3c-0.3,0.3-0.7,0.6-1,0.7
					c-0.1,0-0.2,0.1-0.2,0.1c0,0-0.1,0-0.1,0s-0.1,0-0.1,0c-0.1,0-0.1,0-0.2,0.1c-0.1,0-0.1,0-0.2,0c-0.1,0-0.2,0-0.3,0
					c-0.1,0-0.2,0-0.2,0C114.8,139.4,114.7,139.4,114.7,139.4z"/>
			</g>
		</g>
	</g>
	<g>
		
			<ellipse transform="matrix(0.1202 -0.9928 0.9928 0.1202 -34.6634 232.7863)" class="st3" cx="114" cy="135.9" rx="1.4" ry="1.3"/>
		<path class="st17" d="M113.8,137.4c-0.8-0.1-1.3-0.8-1.2-1.7s0.8-1.4,1.6-1.3c0.8,0.1,1.3,0.8,1.2,1.7S114.6,137.5,113.8,137.4z
			 M114.2,134.6c-0.7-0.1-1.3,0.4-1.4,1.2c-0.1,0.7,0.4,1.4,1.1,1.5s1.3-0.4,1.4-1.2C115.3,135.4,114.8,134.7,114.2,134.6z"/>
	</g>
	<g>
		<polygon class="st17" points="115.9,137.9 114.9,137 115,136.9 116,137.8 		"/>
	</g>
</g>
<g>
	<g>
		<g>
			<g>
				
					<rect x="55.2" y="192.2" transform="matrix(0.9962 -8.719920e-02 8.719920e-02 0.9962 -16.5671 5.599)" class="st17" width="1.3" height="0.4"/>
			</g>
			<g>
				
					<rect x="58.2" y="194" transform="matrix(0.9962 -8.719920e-02 8.719920e-02 0.9962 -16.7081 5.89)" class="st17" width="1.7" height="0.4"/>
			</g>
			<g>
				
					<rect x="63.9" y="193.5" transform="matrix(0.9962 -8.719920e-02 8.719920e-02 0.9962 -16.6428 6.3851)" class="st17" width="1.7" height="0.4"/>
			</g>
			<g>
				
					<rect x="69.6" y="193" transform="matrix(0.9962 -8.719920e-02 8.719920e-02 0.9962 -16.5774 6.8811)" class="st17" width="1.7" height="0.4"/>
			</g>
			<g>
				
					<rect x="75.4" y="192.5" transform="matrix(0.9962 -8.719920e-02 8.719920e-02 0.9962 -16.512 7.3771)" class="st17" width="1.7" height="0.4"/>
			</g>
			<g>
				
					<rect x="81.1" y="192" transform="matrix(0.9962 -8.719920e-02 8.719920e-02 0.9962 -16.4466 7.8731)" class="st17" width="1.7" height="0.4"/>
			</g>
			<g>
				
					<rect x="86.8" y="191.5" transform="matrix(0.9962 -8.719920e-02 8.719920e-02 0.9962 -16.3812 8.3691)" class="st17" width="1.7" height="0.4"/>
			</g>
			<g>
				
					<rect x="54.7" y="187.2" transform="matrix(0.9962 -8.719920e-02 8.719920e-02 0.9962 -16.1257 5.5412)" class="st17" width="1.3" height="0.4"/>
			</g>
			<g>
				
					<rect x="53.9" y="177.6" transform="matrix(0.9962 -8.719920e-02 8.719920e-02 0.9962 -15.2962 5.4316)" class="st17" width="1.3" height="0.4"/>
			</g>
			<g>
				
					<rect x="53.5" y="172.8" transform="matrix(0.9962 -8.719920e-02 8.719920e-02 0.9962 -14.8792 5.3767)" class="st17" width="1.3" height="0.4"/>
			</g>
			<g>
				
					<rect x="54.4" y="182.4" transform="matrix(0.9962 -8.719920e-02 8.719920e-02 0.9962 -15.7103 5.4917)" class="st17" width="1.3" height="0.4"/>
			</g>
			<g>
				<g>
					<path class="st17" d="M88.2,189.8c0,0-0.1,0-0.1,0c-0.1,0-0.2,0-0.4,0c-0.4,0-0.9,0.1-1.6,0.1c-1.3,0.1-3.3,0.3-5.7,0.5
						c-4.8,0.4-11.5,1-18.8,1.7c-1.5,0.1-3,0.3-4.5,0.4l-0.1,0l0-0.1c-0.6-6.5-1-12.2-1.4-16.3c-0.2-2-0.3-3.7-0.4-4.8
						c0-0.6-0.1-1-0.1-1.3c0-0.1,0-0.3,0-0.3s0-0.1,0-0.1s0,0,0,0.1c0,0.1,0,0.2,0,0.3c0,0.3,0.1,0.7,0.1,1.3
						c0.1,1.1,0.2,2.8,0.4,4.8c0.4,4.1,0.9,9.8,1.4,16.3l-0.1-0.1c1.4-0.1,2.9-0.3,4.5-0.4c7.4-0.6,14-1.2,18.8-1.6
						c2.4-0.2,4.4-0.4,5.7-0.5c0.7-0.1,1.2-0.1,1.6-0.1c0.2,0,0.3,0,0.4,0C88.2,189.8,88.2,189.8,88.2,189.8z"/>
				</g>
			</g>
			<g>
				<g>
					<path class="st17" d="M87.7,179.7c0,0-6.8,0.6-15.1,1.4c-8.3,0.7-15.1,1.3-15.1,1.3c0,0,6.8-0.6,15.1-1.4
						C80.9,180.2,87.7,179.7,87.7,179.7z"/>
				</g>
			</g>
			<g>
				<g>
					<path class="st17" d="M87.3,174.9c0,0-6.8,0.6-15.1,1.4c-8.3,0.7-15.1,1.3-15.1,1.3c0,0,6.8-0.6,15.1-1.4
						C80.5,175.5,87.3,174.9,87.3,174.9z"/>
				</g>
			</g>
			<g>
				<g>
					<path class="st17" d="M86.8,170.1c0,0-6.8,0.6-15.1,1.4c-8.3,0.7-15.1,1.3-15.1,1.3c0,0,6.8-0.6,15.1-1.4
						C80.1,170.7,86.8,170.1,86.8,170.1z"/>
				</g>
			</g>
			<g>
				<g>
					<path class="st17" d="M88.1,184.5c0,0-6.8,0.6-15.1,1.4c-8.3,0.7-15.1,1.3-15.1,1.3c0,0,6.8-0.6,15.1-1.4
						C81.3,185,88.1,184.4,88.1,184.5z"/>
				</g>
			</g>
			<g>
				<path class="st19" d="M58.6,191.3c-0.1-0.8-0.4-4.2-0.4-4.2l2.2-4.3l1.9,1.2l3.1-6l2.2,1.3l2.5-5.5l2.6,1.8l3-7.3l4.5,7.5
					l2.8-4.2l3.6-1.4l1.6,18.6L58.6,191.3z"/>
			</g>
		</g>
		<g>
			<g>
				<path class="st17" d="M86.7,168.6C86.7,168.6,86.7,168.6,86.7,168.6c-0.1,0-0.2,0-0.2,0c-0.2,0-0.4,0-0.7,0.1
					c-0.7,0.1-1.6,0.1-2.8,0.3l0,0c-0.7,1.2-1.6,2.6-2.7,4.3l0,0h0c-2.2,0.2-4.8,0.4-7.6,0.7l0.1,0c-0.8,1.8-1.8,3.7-2.7,5.7
					c-0.9,1.9-1.8,3.8-2.7,5.6l0,0.1l-0.1-0.1c-1.7-2-3.2-3.8-4.6-5.4l0.1,0c-1.3,2.6-2.4,4.8-3.2,6.3c-0.4,0.8-0.7,1.3-0.9,1.7
					c-0.1,0.2-0.2,0.4-0.2,0.5c0,0.1-0.1,0.1-0.1,0.1s0-0.1,0.1-0.2c0-0.1,0.1-0.3,0.2-0.5c0.2-0.4,0.5-1,0.9-1.8
					c0.8-1.5,1.8-3.7,3.2-6.3l0-0.1l0,0.1c1.4,1.6,2.9,3.4,4.6,5.4l-0.1,0c0.8-1.8,1.7-3.7,2.7-5.6c0.9-2,1.9-3.9,2.7-5.7l0,0h0
					c2.8-0.2,5.4-0.5,7.6-0.6l0,0c1.1-1.7,2-3.1,2.7-4.3l0,0h0c1.2-0.1,2.2-0.2,2.8-0.2c0.3,0,0.6,0,0.8-0.1
					C86.5,168.6,86.6,168.6,86.7,168.6C86.7,168.6,86.7,168.6,86.7,168.6z"/>
			</g>
		</g>
		<g>
			<path class="st17" d="M64.1,181.1c0,0.2-0.1,0.3-0.3,0.3s-0.3-0.1-0.3-0.3c0-0.2,0.1-0.3,0.3-0.3
				C63.9,180.8,64.1,180.9,64.1,181.1z"/>
		</g>
		<g>
			<path class="st17" d="M72.3,175.2c0,0.2-0.1,0.3-0.3,0.3s-0.3-0.1-0.3-0.3c0-0.2,0.1-0.3,0.3-0.3
				C72.2,174.9,72.3,175.1,72.3,175.2z"/>
		</g>
		<g>
			<path class="st17" d="M79,173.4c0,0.2-0.1,0.3-0.3,0.3s-0.3-0.1-0.3-0.3c0-0.2,0.1-0.3,0.3-0.3C78.8,173.1,79,173.2,79,173.4z"/>
		</g>
	</g>
</g>
<g>
	<linearGradient id="SVGID_1_" gradientUnits="userSpaceOnUse" x1="290.6689" y1="39.8711" x2="269.9911" y2="60.5489">
		<stop  offset="0" style="stop-color:#007BB8"/>
		<stop  offset="1" style="stop-color:#0044E9"/>
	</linearGradient>
	<circle class="st20" cx="280.3" cy="50.2" r="14.6"/>
	<path class="st3" d="M274.2,47.5h2.8v9.1h-2.8V47.5z M275.6,43c0.9,0,1.6,0.7,1.6,1.6c0,0.9-0.7,1.6-1.6,1.6
		c-0.9,0-1.6-0.7-1.6-1.6C274,43.7,274.7,43,275.6,43"/>
	<path class="st3" d="M278.8,47.5h2.7v1.2h0c0.4-0.7,1.3-1.5,2.7-1.5c2.9,0,3.4,1.9,3.4,4.3v5h-2.8v-4.4c0-1.1,0-2.4-1.5-2.4
		c-1.5,0-1.7,1.1-1.7,2.3v4.5h-2.8V47.5z"/>
</g>
<g>
	<linearGradient id="SVGID_2_" gradientUnits="userSpaceOnUse" x1="272.0175" y1="110.7797" x2="255.8369" y2="126.9603">
		<stop  offset="0" style="stop-color:#FF0000"/>
		<stop  offset="1" style="stop-color:#9B0000"/>
	</linearGradient>
	<circle class="st21" cx="263.9" cy="118.9" r="11.4"/>
	<path class="st3" d="M270.1,117.2c0-1.5-1.2-2.7-2.7-2.7h-7c-1.5,0-2.7,1.2-2.7,2.7v3.3c0,1.5,1.2,2.7,2.7,2.7h7
		c1.5,0,2.7-1.2,2.7-2.7V117.2z M265.9,119.1l-3.2,1.6c-0.1,0.1-0.5,0-0.5-0.2v-3.2c0-0.1,0.4-0.2,0.5-0.2l3,1.6
		C265.9,118.8,266,119,265.9,119.1z"/>
</g>
<g>
	<linearGradient id="SVGID_3_" gradientUnits="userSpaceOnUse" x1="234.6825" y1="150.2442" x2="214.0047" y2="170.922">
		<stop  offset="1.104800e-03" style="stop-color:#FFE185"/>
		<stop  offset="0.2094" style="stop-color:#FFBB36"/>
		<stop  offset="0.3765" style="stop-color:#FF5176"/>
		<stop  offset="0.5238" style="stop-color:#F63395"/>
		<stop  offset="0.7394" style="stop-color:#A436D2"/>
		<stop  offset="1" style="stop-color:#5F4EED"/>
	</linearGradient>
	<circle class="st22" cx="224.3" cy="160.6" r="14.6"/>
	<g>
		<path class="st3" d="M228.9,155.1c-0.6,0-1,0.4-1,1c0,0.6,0.5,1,1,1c0.6,0,1-0.4,1-1C229.9,155.5,229.4,155.1,228.9,155.1z"/>
		<path class="st3" d="M224.4,156.3c-2.3,0-4.2,1.9-4.2,4.2c0,2.3,1.9,4.2,4.2,4.2c2.3,0,4.2-1.9,4.2-4.2
			C228.6,158.2,226.7,156.3,224.4,156.3z M224.4,163.3c-1.5,0-2.7-1.2-2.7-2.7s1.2-2.7,2.7-2.7c1.5,0,2.7,1.2,2.7,2.7
			S225.9,163.3,224.4,163.3z"/>
		<path class="st3" d="M227.8,169.1h-6.8c-2.8,0-5.1-2.3-5.1-5.1v-6.8c0-2.8,2.3-5.1,5.1-5.1h6.8c2.8,0,5.1,2.3,5.1,5.1v6.8
			C232.9,166.8,230.6,169.1,227.8,169.1z M220.9,153.6c-2,0-3.5,1.6-3.5,3.5v6.8c0,2,1.6,3.5,3.5,3.5h6.8c2,0,3.5-1.6,3.5-3.5v-6.8
			c0-2-1.6-3.5-3.5-3.5H220.9z"/>
	</g>
</g>
<g>
	<linearGradient id="SVGID_4_" gradientUnits="userSpaceOnUse" x1="291.1089" y1="206.7661" x2="270.4312" y2="227.4439">
		<stop  offset="0" style="stop-color:#00FB73"/>
		<stop  offset="1" style="stop-color:#00B25B"/>
	</linearGradient>
	<circle class="st23" cx="280.8" cy="217.1" r="14.6"/>
	<path class="st3" d="M272.9,225.4l1.2-4.5c-0.7-1.2-1.1-2.6-1.1-4.1c0-4.6,3.8-8.4,8.4-8.4c4.6,0,8.4,3.8,8.4,8.4
		c0,4.6-3.8,8.4-8.4,8.4c-1.4,0-2.8-0.4-4-1L272.9,225.4z M277.7,222.4l0.3,0.2c1.1,0.6,2.3,1,3.5,1c3.8,0,6.8-3.1,6.8-6.8
		c0-3.8-3.1-6.8-6.8-6.8c-3.8,0-6.8,3.1-6.8,6.8c0,1.2,0.3,2.5,1,3.5l0.2,0.3l-0.7,2.5L277.7,222.4z"/>
	<path class="st24" d="M284.6,217.9c-0.3-0.2-0.8-0.4-1.2-0.3c-0.3,0.1-0.5,0.6-0.7,0.9c-0.1,0.1-0.2,0.1-0.4,0.1
		c-1.2-0.5-2.1-1.3-2.7-2.3c-0.1-0.2-0.1-0.3,0-0.5c0.2-0.2,0.4-0.5,0.5-0.8c0.1-0.3-0.1-0.7-0.2-0.9c-0.2-0.4-0.3-0.9-0.7-1.1
		c-0.3-0.2-0.8-0.1-1,0.2c-0.5,0.4-0.7,1-0.7,1.7c0,0.2,0,0.4,0.1,0.5c0.1,0.4,0.3,0.8,0.5,1.2c0.2,0.3,0.3,0.5,0.5,0.8
		c0.6,0.9,1.4,1.6,2.3,2.1c0.5,0.3,0.9,0.5,1.4,0.7c0.6,0.2,1.1,0.4,1.7,0.3c0.6-0.1,1.3-0.5,1.5-1.1c0.1-0.2,0.1-0.4,0.1-0.6
		C285.4,218.4,284.9,218.1,284.6,217.9z"/>
</g>
<g>
	<linearGradient id="SVGID_5_" gradientUnits="userSpaceOnUse" x1="31.6688" y1="163.3518" x2="10.9911" y2="184.0295">
		<stop  offset="0" style="stop-color:#FF4C3C"/>
		<stop  offset="0.9565" style="stop-color:#EF053E"/>
		<stop  offset="1" style="stop-color:#EE023E"/>
	</linearGradient>
	<circle class="st25" cx="21.3" cy="173.7" r="14.6"/>
	<path class="st24" d="M20.2,176.9c0,0.1,0,0.1,0,0.1c-0.7,2.6-0.7,3.1-1.4,4.3c-0.3,0.6-0.7,1.1-1.1,1.6c0,0.1-0.1,0.1-0.2,0.1
		c-0.1,0-0.1-0.1-0.1-0.2c-0.1-0.8-0.2-1.6-0.1-2.3c0-1,0.2-1.4,1.5-6.9c0-0.1,0-0.2,0-0.2c-0.3-0.8-0.4-1.7-0.1-2.6
		c0.6-1.9,2.7-2,3.1-0.5c0.2,1-0.4,2.2-0.8,4.1c-0.4,1.5,1.4,2.6,3,1.5c1.4-1,2-3.5,1.9-5.3c-0.2-3.5-4-4.3-6.5-3.1
		c-2.8,1.3-3.4,4.8-2.2,6.3c0.2,0.2,0.3,0.3,0.2,0.5c-0.1,0.3-0.2,0.6-0.2,1c-0.1,0.2-0.3,0.3-0.5,0.2c-0.5-0.2-0.9-0.5-1.2-0.9
		c-1.1-1.3-1.4-4,0-6.2c1.6-2.5,4.5-3.5,7.2-3.2c3.2,0.4,5.2,2.5,5.6,5c0.2,1.1,0,3.9-1.5,5.9c-1.8,2.3-4.8,2.4-6.1,1
		C20.4,177.1,20.3,177,20.2,176.9z"/>
</g>
<g>
	<g>
		<linearGradient id="SVGID_6_" gradientUnits="userSpaceOnUse" x1="55.2631" y1="61.5656" x2="75.9408" y2="82.2433">
			<stop  offset="0" style="stop-color:#1677F1"/>
			<stop  offset="0.1756" style="stop-color:#186EE9"/>
			<stop  offset="0.4613" style="stop-color:#1E56D3"/>
			<stop  offset="0.8194" style="stop-color:#262EB0"/>
			<stop  offset="1" style="stop-color:#2B189C"/>
		</linearGradient>
		<path class="st26" d="M80.2,71.9c0-8.1-6.5-14.6-14.6-14.6S51,63.8,51,71.9c0,7.3,5.3,13.3,12.3,14.4V76.1h-3.7v-4.2h3.7v-3.2
			c0-3.7,2.2-5.7,5.5-5.7c1.6,0,3.3,0.3,3.3,0.3v3.6h-1.8c-1.8,0-2.4,1.1-2.4,2.3v2.7h4.1l-0.6,4.2h-3.4v10.2
			C74.9,85.3,80.2,79.2,80.2,71.9z"/>
		<path class="st3" d="M71.3,76.1l0.6-4.2h-4.1v-2.7c0-1.2,0.6-2.3,2.4-2.3h1.8v-3.6c0,0-1.7-0.3-3.3-0.3c-3.3,0-5.5,2-5.5,5.7v3.2
			h-3.7v4.2h3.7v10.2c0.7,0.1,1.5,0.2,2.3,0.2s1.5-0.1,2.3-0.2V76.1H71.3z"/>
	</g>
</g>
<g>
	<linearGradient id="SVGID_7_" gradientUnits="userSpaceOnUse" x1="246.6697" y1="239.5411" x2="225.992" y2="260.2189">
		<stop  offset="0" style="stop-color:#00CCFF"/>
		<stop  offset="1" style="stop-color:#0080FF"/>
	</linearGradient>
	<circle class="st27" cx="236.3" cy="249.9" r="14.6"/>
	<path class="st3" d="M244.4,244.9c-0.5,0.2-1.1,0.4-1.6,0.5c0.3,0,0.6-0.5,0.8-0.7c0.2-0.3,0.4-0.6,0.5-1c0,0,0-0.1,0-0.1
		c0,0-0.1,0-0.1,0c-0.6,0.3-1.2,0.6-1.9,0.7c-0.1,0-0.1,0-0.1,0c-0.1-0.1-0.1-0.1-0.2-0.2c-0.3-0.2-0.6-0.4-0.9-0.6
		c-0.4-0.2-0.9-0.3-1.4-0.2c-0.5,0-0.9,0.2-1.3,0.4c-0.4,0.2-0.8,0.5-1.1,0.9c-0.3,0.4-0.5,0.8-0.6,1.3c-0.1,0.5-0.1,0.9,0,1.4
		c0,0.1,0,0.1-0.1,0.1c-2.6-0.4-4.8-1.3-6.6-3.3c-0.1-0.1-0.1-0.1-0.2,0c-0.8,1.2-0.4,3,0.6,3.9c0.1,0.1,0.3,0.2,0.4,0.4
		c-0.1,0-0.7-0.1-1.3-0.4c-0.1,0-0.1,0-0.1,0.1c0,0.1,0,0.2,0,0.4c0.1,1.2,1,2.3,2.1,2.7c0.1,0.1,0.3,0.1,0.4,0.1
		c-0.3,0.1-0.5,0.1-1.2,0c-0.1,0-0.1,0-0.1,0.1c0.5,1.5,1.7,1.9,2.6,2.2c0.1,0,0.2,0,0.4,0c0,0,0,0,0,0c-0.3,0.4-1.3,0.8-1.8,0.9
		c-0.9,0.3-1.8,0.4-2.7,0.3c-0.1,0-0.2,0-0.2,0c0,0,0,0.1,0,0.1c0.2,0.1,0.4,0.2,0.6,0.3c0.6,0.3,1.2,0.6,1.8,0.7
		c3.3,0.9,6.9,0.2,9.4-2.2c1.9-1.9,2.6-4.5,2.6-7.2c0-0.1,0.1-0.2,0.2-0.2c0.5-0.4,0.9-0.8,1.3-1.3
		C244.5,245,244.5,244.9,244.4,244.9C244.5,244.9,244.5,244.9,244.4,244.9C244.5,244.8,244.5,244.8,244.4,244.9z"/>
</g>
<g>
	<linearGradient id="SVGID_8_" gradientUnits="userSpaceOnUse" x1="66.3257" y1="100.5392" x2="36.2839" y2="130.5809">
		<stop  offset="0" style="stop-color:#FF679A"/>
		<stop  offset="0.7919" style="stop-color:#E72096"/>
		<stop  offset="1" style="stop-color:#E00D95"/>
	</linearGradient>
	<circle class="st28" cx="51.3" cy="115.6" r="21.2"/>
	<path class="st3" d="M51.3,103.6c-6.6,0-11.9,5.4-11.9,11.9c0,6.6,5.4,11.9,11.9,11.9c6.6,0,11.9-5.4,11.9-11.9
		C63.3,109,57.9,103.6,51.3,103.6L51.3,103.6z M59.2,109.3c1.4,1.7,2.2,3.8,2.2,6.1c-0.5-0.1-2.4-0.5-4.7-0.5c-0.7,0-1.5,0-2.3,0.1
		c-0.1-0.2-0.1-0.3-0.2-0.5c-0.2-0.5-0.4-0.9-0.6-1.4C57.1,111.7,58.8,109.7,59.2,109.3L59.2,109.3z M51.3,105.5
		c2.5,0,4.9,0.9,6.7,2.5c-0.3,0.4-1.8,2.3-5.2,3.6c-1.6-2.9-3.3-5.3-3.7-5.8C49.8,105.6,50.5,105.5,51.3,105.5L51.3,105.5z
		 M47,106.5c0.3,0.5,2.1,2.9,3.7,5.8c-4.3,1.1-8.2,1.2-9.1,1.2h-0.1C42.1,110.4,44.2,107.8,47,106.5L47,106.5z M41.2,115.6
		c0-0.1,0-0.2,0-0.2c0.1,0,0.1,0,0.3,0c1.3,0,5.6-0.1,10.1-1.4c0.3,0.5,0.5,1.1,0.8,1.6c-0.1,0-0.2,0.1-0.3,0.1
		c-5,1.6-7.8,5.9-8.2,6.6C42.2,120.5,41.2,118.1,41.2,115.6L41.2,115.6z M51.3,125.7c-2.3,0-4.5-0.8-6.2-2.1
		c0.3-0.6,2.4-4.3,7.9-6.3c0,0,0,0,0,0c1.4,3.6,2,6.6,2.1,7.6C54,125.4,52.7,125.7,51.3,125.7L51.3,125.7z M57,123.9
		c-0.1-0.8-0.7-3.6-1.9-7.1c0.7-0.1,1.4-0.2,2-0.2c2.1,0,3.8,0.5,4.1,0.6C60.8,120,59.2,122.4,57,123.9L57,123.9z"/>
</g>
<g>
	<g>
		<g>
			<g>
				<g>
					<g>
						<g>
							<g>
								<path class="st0" d="M216.2,189.8l-1.3,0.4l-4-3.3l-0.7-2.7c0,0-2.1,0.4-0.9,3.9c1.2,3.5,0.7,2.6,0.7,2.6s-4.3,1.2-4.6,1.7
									c-0.2,0.4,0.9,4.8,1.5,7.2c0.3,1.2,1.3,2.1,2.5,2.1c0.2,0,0.3,0,0.5-0.1c1.1-0.3,6.4-2.8,6.4-2.8l2.3-0.6L216.2,189.8z"/>
							</g>
						</g>
					</g>
				</g>
			</g>
		</g>
		<g>
			<g>
				<g>
					<g>
						<g>
							<g>
								<polygon class="st0" points="219.8,187.9 221.5,197.4 219.2,198.1 216.8,189 								"/>
							</g>
						</g>
					</g>
				</g>
			</g>
		</g>
	</g>
</g>
<g>
	<g>
		<g>
			<g>
				<g>
					<g>
						<g>
							<g>
								<path class="st0" d="M251.4,136l-1.1-0.8l-0.1-5.2l1.6-2.3c0,0-1.7-1.3-3.5,1.9c-1.9,3.2-1.6,2.2-1.6,2.2s-3.8-2.5-4.3-2.4
									c-0.4,0.1-3.1,3.8-4.5,5.8c-0.7,1-0.7,2.4,0,3.3c0.1,0.1,0.2,0.2,0.4,0.3c0.9,0.6,6.2,3,6.2,3l2,1.3L251.4,136z"/>
							</g>
						</g>
					</g>
				</g>
			</g>
		</g>
		<g>
			<g>
				<g>
					<g>
						<g>
							<g>
								<polygon class="st0" points="255.1,137.5 249,145 247,143.7 252.3,135.9 								"/>
							</g>
						</g>
					</g>
				</g>
			</g>
		</g>
	</g>
</g>
</svg>
