<?xml version="1.0" encoding="utf-8"?>
<!-- Generator: Adobe Illustrator 25.1.0, SVG Export Plug-In . SVG Version: 6.00 Build 0)  -->
<svg version="1.1" id="Layer_1" xmlns="http://www.w3.org/2000/svg" xmlns:xlink="http://www.w3.org/1999/xlink" x="0px" y="0px"
	 viewBox="0 0 300 265" style="enable-background:new 0 0 300 265;" xml:space="preserve">
<g>
	<rect x="4.98" y="56.63" style="fill:#FFC200;" width="87.47" height="81.21"/>
	<rect x="8.99" y="60.87" style="fill:#FFFFFF;" width="79.45" height="72.73"/>
	<g>
		<g>
			<path style="fill:#4DC5AC;" d="M39.05,87.17c0,0-3.47,10.2-1.3,18.54c2.17,8.34,10.01,14.97,10.01,14.97L39.05,87.17z"/>
			<path style="fill:#26A587;" d="M39.05,87.17c0,0,7.95,7.04,10.12,15.38c2.17,8.34-1.41,18.13-1.41,18.13L39.05,87.17z"/>
		</g>
		<g>
			<path style="fill:#4DC5AC;" d="M21.01,95.66c0,0,1.94,10.63,7.86,16.73c5.92,6.1,15.92,7.8,15.92,7.8L21.01,95.66z"/>
			<path style="fill:#26A587;" d="M21.01,95.66c0,0,10.29,2,16.21,8.1c5.92,6.1,7.56,16.43,7.56,16.43L21.01,95.66z"/>
		</g>
		<g>
			<path style="fill:#4DC5AC;" d="M58.22,87.17c0,0,3.47,10.2,1.3,18.54s-10.01,14.97-10.01,14.97L58.22,87.17z"/>
			<path style="fill:#26A587;" d="M58.22,87.17c0,0-7.95,7.04-10.12,15.38c-2.17,8.34,1.41,18.13,1.41,18.13L58.22,87.17z"/>
		</g>
		<g>
			<path style="fill:#4DC5AC;" d="M75.79,95.66c0,0-1.94,10.63-7.86,16.73c-5.92,6.1-15.92,7.8-15.92,7.8L75.79,95.66z"/>
			<path style="fill:#26A587;" d="M75.79,95.66c0,0-10.29,2-16.21,8.1c-5.92,6.1-7.56,16.43-7.56,16.43L75.79,95.66z"/>
		</g>
		<g>
			<g>
				<path style="fill:#FFC200;" d="M19.6,106.68c0,0,4.54,9.75,11.78,14.06c7.24,4.32,17.33,3.28,17.33,3.28L19.6,106.68z"/>
				<path style="fill:#F4A300;" d="M19.6,106.68c0,0,10.44-0.82,17.69,3.5c7.24,4.32,11.42,13.85,11.42,13.85L19.6,106.68z"/>
			</g>
			<g>
				<path style="fill:#FFC200;" d="M31.68,93.93c0,0-0.79,10.78,3.39,18.26c4.18,7.48,13.42,11.79,13.42,11.79L31.68,93.93z"/>
				<path style="fill:#F4A300;" d="M31.68,93.93c0,0,9.44,4.68,13.63,12.16c4.18,7.48,3.18,17.89,3.18,17.89L31.68,93.93z"/>
			</g>
			<g>
				<path style="fill:#F4A300;" d="M65.25,93.93c0,0,0.79,10.78-3.39,18.26c-4.18,7.48-13.42,11.79-13.42,11.79L65.25,93.93z"/>
				<path style="fill:#FFC200;" d="M65.25,93.93c0,0-9.44,4.68-13.63,12.16c-4.18,7.48-3.18,17.89-3.18,17.89L65.25,93.93z"/>
			</g>
			<g>
				<path style="fill:#F4A300;" d="M77.33,106.68c0,0-4.54,9.75-11.78,14.06c-7.24,4.32-17.33,3.28-17.33,3.28L77.33,106.68z"/>
				<path style="fill:#FFC200;" d="M77.33,106.68c0,0-10.44-0.82-17.69,3.5c-7.24,4.32-11.42,13.85-11.42,13.85L77.33,106.68z"/>
			</g>
			<g>
				<path style="fill:#FFC200;" d="M48.49,89.52c0,0-5.91,8.93-5.91,17.56s5.91,17.13,5.91,17.13V89.52z"/>
				<path style="fill:#F4A300;" d="M48.49,89.52c0,0,5.91,8.93,5.91,17.56s-5.91,17.13-5.91,17.13V89.52z"/>
			</g>
		</g>
	</g>
	<rect x="14.23" y="66.21" style="fill:#FFC200;" width="67.06" height="3.61"/>
	<rect x="14.23" y="73.79" style="fill:#FFC200;" width="67.06" height="3.61"/>
</g>
<g>
	<g>
		<path style="fill:#4D4D4D;" d="M179.98,92.79c-3.31-2.85-4.18-6.88,0.17-9.12c5.78-2.98,4.42-4.56,1.02-11.41
			c-2.64-5.31-1.57-6.34-1.02-10.88c1.02-8.43-6.46-27.38-22.11-21.06c0,0-3.06-6.67-12.92-6.32c-9.86,0.35-17.35,8.07-18.37,17.55
			c-1.02,9.48-3.17,8.78-6.12,10.53c-5.61,3.34-7.14,10.71-0.34,14.22c5.58,2.88-0.17,7.2-3.23,11.41
			c-3.06,4.21,0.51,7.72,5.27,8.25c4.54,0.5,3.8,4.54-1.53,7.55c-9.01,5.09,1.44,16.4,1.44,16.4s0.98-2.7,9.43-4.7
			c-3.52-4.48-5.77-11.75-1.51-15.37c1.75-1.49,2.86-2.99,2.43-5.79c-0.48-3.09-4.65-4.06-6.33-6.37c-0.75-1.03-0.76-2.38-0.05-3.52
			c1.37-2.19,2.44-4.22,2.32-6.84c-0.3-0.1-0.42-0.61-0.08-0.77c-0.02-0.18-0.03-0.35-0.06-0.53c-0.05-0.26,0.32-0.47,0.44-0.2
			c0.01,0.03,0.02,0.05,0.03,0.08c0.02-0.02,0.01-0.04,0.03-0.05c1.84-1.32,3.83-2.52,5.92-3.38c4.77-1.96,9.94-2.91,15.05-3.27
			c5.13-0.37,11.06-0.73,16.11,0.46c3.51,0.83,5.81,2.63,6.79,6.15c0.06,0.2,0.02,0.38-0.06,0.53c0.84,1.53,2.36,2.44,2.7,4.37
			c0.18,0.99-0.5,2.25-1.01,3.02c-1.05,1.57-2.66,2.8-3.57,4.46c-1.56,2.84,0.6,4.19,2.3,5.84c1.41,1.37,2.45,3.25,1.13,5.14
			c-0.92,1.31-2.59,2.31-3.27,3.75c-1.09,2.28,1.25,4.2,2.35,5.75c2.29,3.2-0.06,6.94-3.24,9.73c5.01-0.74,8.91-2.33,10.71-5.22
			c3.06-4.92-4.4-7.78-1.19-10.18C184.57,99.29,185.08,97.18,179.98,92.79z"/>
		<path style="fill:#333333;" d="M173.36,108.64c-1.1-1.55-3.44-3.47-2.35-5.75c0.69-1.43,2.36-2.44,3.27-3.75
			c1.32-1.89,0.28-3.77-1.13-5.14c-1.7-1.65-3.86-3-2.3-5.84c0.91-1.66,2.51-2.89,3.57-4.46c0.52-0.77,1.19-2.02,1.01-3.02
			c-0.34-1.93-1.86-2.84-2.7-4.37c0.08-0.15,0.11-0.33,0.06-0.53c-0.98-3.52-3.28-5.32-6.79-6.15c-5.06-1.19-10.98-0.83-16.11-0.46
			c-5.11,0.37-10.29,1.32-15.05,3.27c-2.08,0.86-4.08,2.05-5.92,3.38c-0.02,0.02-0.02,0.04-0.03,0.05
			c-0.01-0.03-0.02-0.05-0.03-0.08c-0.13-0.27-0.49-0.06-0.44,0.2c0.03,0.18,0.04,0.35,0.06,0.53c-0.34,0.16-0.22,0.68,0.08,0.77
			c0.11,2.63-0.96,4.65-2.32,6.84c-0.71,1.14-0.7,2.49,0.05,3.52c1.69,2.31,5.85,3.28,6.33,6.37c0.43,2.8-0.68,4.3-2.43,5.79
			c-4.26,3.62-2.01,10.89,1.51,15.37c11.09,2.24,27.44,4.79,38.45,3.18C173.3,115.58,175.65,111.84,173.36,108.64z"/>
	</g>
	<g>
		<path style="fill:#FEB082;" d="M157.59,95.42l-5.26,4.31c1.88-0.31,3.69-0.82,5.15-1.31C157.52,96.65,157.59,95.42,157.59,95.42z"
			/>
		<path style="fill:#FEB082;" d="M142.4,95.42c0,0,0.04,0.68,0.07,1.75c1.19,0.94,3.05,2.13,5.25,2.61L142.4,95.42z"/>
		<path style="fill:#FEB082;" d="M158.41,109.04c-1.42,0.23-3.55,0.2-6.6-0.63c-4.42-1.2-7.62-3.76-9.36-5.47
			c-0.08,1.68-0.22,3.4-0.5,4.88c-0.85,4.6-6.58,6.55-6.58,6.55s5.62,7.51,5.66,7.51c0.04,0,17.96,0,18,0c0,0,5.59-7.51,5.59-7.51
			S159.93,112.77,158.41,109.04z"/>
		<path style="fill:#F58D6B;" d="M152.34,99.73c-0.7,0.12-1.41,0.21-2.11,0.26c-0.87,0.06-1.7-0.03-2.5-0.2l2.27,1.86L152.34,99.73z
			"/>
		<path style="fill:#F58D6B;" d="M158.41,109.04c-0.16-0.38-0.29-0.78-0.37-1.21c-0.54-2.93-0.6-6.78-0.55-9.4
			c-1.46,0.49-3.28,1-5.15,1.31l-2.34,1.92l-2.27-1.86c-2.2-0.48-4.06-1.67-5.25-2.61c0.04,1.43,0.07,3.56-0.03,5.77
			c1.74,1.71,4.94,4.27,9.36,5.47C154.87,109.24,156.99,109.27,158.41,109.04z"/>
	</g>
	<path style="fill:#FEB082;" d="M175.11,68.74c-0.74-3.07-3.77-2.52-4.84-2.23c-1.91-13.08-9.56-22.58-19.54-22.58
		c-10.21,0-17.9,9.22-19.55,22.6c-1.03-0.29-4.12-0.9-4.88,2.21c-0.91,3.74,0.91,9.36,4.99,10.77c0.01,0,0.02,0,0.04,0.01
		c0.34,2.35,0.9,4.6,1.78,6.54c4.32,9.61,12.14,16.85,17.63,16.85c5.62,0,12.83-6.86,17.06-16.85c0.83-1.97,1.59-4.19,2.12-6.5
		c0.07-0.02,0.13-0.02,0.2-0.05C174.2,78.1,176.02,72.49,175.11,68.74z"/>
	<path style="fill:#F58D6B;" d="M144.94,64.97c-1.9-2.82-5.28-3.04-7.95-1.21c-0.39,0.4-0.96,0.9-1.49,1.6
		c-0.26,0.35-0.09,0.17-0.02,0.12c2.82-2.31,4.88,0.64,5.54,3.14c0.21,0.8,0.42,2.16,0.42,3.06c0,1.49,1.84,1.36,2.87,2.32
		c0.44,0.41,0.86,0.29,1.08-0.28C146.48,70.99,146.62,67.47,144.94,64.97z"/>
	<path style="fill:#F58D6B;" d="M155.95,64.97c1.9-2.82,5.28-3.04,7.95-1.21c0.39,0.4,0.96,0.9,1.49,1.6
		c0.26,0.35,0.09,0.17,0.02,0.12c-2.82-2.31-4.88,0.64-5.54,3.14c-0.21,0.8-0.42,2.16-0.42,3.06c0,1.49-1.84,1.36-2.87,2.32
		c-0.44,0.41-0.85,0.29-1.08-0.28C154.41,70.99,154.27,67.47,155.95,64.97z"/>
	<g>
		<path style="fill:#FFFFFF;" d="M155.69,73.42c0,0-0.65,0.56-0.1,1.29c0.55,0.72,3.86,2.32,6.97,0.43
			c1.77-1.07,1.87-1.93,1.87-1.93S159.64,69.23,155.69,73.42z"/>
		<path style="fill:#26A587;" d="M161.31,73.48c0,1.07-0.84,1.93-1.87,1.93s-1.87-0.86-1.87-1.93c0-1.07,0.84-1.93,1.87-1.93
			S161.31,72.42,161.31,73.48z"/>
		<path style="fill:#3F3F3F;" d="M164.45,72.62c-0.21-0.15-0.31-0.3-0.57-0.43c0.71-0.25,1.21-0.63,1.56-1.32
			c0.01-0.02-0.94,0.86-2.51,0.82c-2.72-1.09-5.88-0.81-7.63,1.8c-0.31,0.47-0.24,0.72,0.16,0.27c2.14-2.36,6.05-2.56,8.51-0.43
			c0,0.01-0.27,1.02-1.07,1.54c-0.7,0.46-0.32,0.47,0.15,0.24c0.72-0.35,1.28-0.87,1.75-1.76c0.75-0.08,1.56-0.78,1.95-1.42
			C165.83,72.45,165.6,72.64,164.45,72.62z"/>
		<ellipse style="fill:#3F3F3F;" cx="159.41" cy="73.51" rx="0.94" ry="0.97"/>
		<path style="fill:#FFFFFF;" d="M160.57,72.78c0,0.29-0.23,0.53-0.51,0.53c-0.28,0-0.51-0.24-0.51-0.53c0-0.29,0.23-0.53,0.51-0.53
			C160.34,72.25,160.57,72.49,160.57,72.78z"/>
	</g>
	<g>
		<path style="fill:#FFFFFF;" d="M145.08,73.42c0,0,0.65,0.56,0.1,1.29c-0.55,0.72-3.86,2.32-6.97,0.43
			c-1.77-1.07-1.87-1.93-1.87-1.93S141.12,69.23,145.08,73.42z"/>
		<path style="fill:#26A587;" d="M139.43,73.54c0,1.07,0.84,1.93,1.87,1.93c1.03,0,1.87-0.86,1.87-1.93c0-1.07-0.84-1.93-1.87-1.93
			C140.27,71.61,139.43,72.47,139.43,73.54z"/>
		<path style="fill:#3F3F3F;" d="M136.31,72.62c0.21-0.15,0.31-0.3,0.57-0.43c-0.71-0.25-1.21-0.63-1.56-1.32
			c-0.01-0.02,0.94,0.86,2.51,0.82c2.72-1.09,5.88-0.81,7.63,1.8c0.31,0.47,0.24,0.72-0.16,0.27c-2.14-2.36-6.05-2.56-8.51-0.43
			c0,0.01,0.45,0.98,1.21,1.54c0.53,0.39,0.21,0.5-0.34,0.18c-0.61-0.37-1.22-0.81-1.69-1.69c-0.75-0.08-1.56-0.78-1.95-1.42
			C134.93,72.45,135.17,72.64,136.31,72.62z"/>
		<ellipse style="fill:#3F3F3F;" cx="141.33" cy="73.57" rx="0.94" ry="0.97"/>
		<path style="fill:#FFFFFF;" d="M141.38,72.84c0,0.29,0.23,0.53,0.51,0.53c0.28,0,0.51-0.24,0.51-0.53c0-0.29-0.23-0.53-0.51-0.53
			C141.61,72.31,141.38,72.55,141.38,72.84z"/>
	</g>
	<path style="fill:#3F3F3F;" d="M161.33,62.45c-2.05-0.42-4.05,0.47-5.47,2.08c-0.39,0.44-0.72,0.94-0.85,1.2
		c-0.46,0.88,0.02,1.05,0.94-0.09c0.85-1.05,1.39-1.87,3.34-2.49c2.27-0.71,4.84,0.81,6.24,2.78c0.25,0.35,0.34,0.2,0.18-0.08
		C164.47,63.63,163.32,62.86,161.33,62.45z"/>
	<path style="fill:#3F3F3F;" d="M139.46,62.45c2.05-0.42,4.05,0.47,5.47,2.08c0.39,0.44,0.72,0.94,0.85,1.2
		c0.46,0.88-0.02,1.05-0.94-0.09c-0.85-1.05-1.39-1.87-3.34-2.49c-2.27-0.71-4.84,0.81-6.24,2.78c-0.25,0.35-0.34,0.2-0.18-0.08
		C136.32,63.63,137.47,62.86,139.46,62.45z"/>
	<path style="fill:#3F3F3F;" d="M163.72,71.09c-1.87-1.58-5.06-2.08-7.52,0.2c-0.38,0.35-0.28,0.5,0.05,0.23
		c1.34-1.11,3.05-1.4,4.77-1.24c1.11,0.1,1.69,0.45,2.66,0.98C164,71.44,163.96,71.29,163.72,71.09z"/>
	<path style="fill:#3F3F3F;" d="M137.05,71.09c1.87-1.58,5.06-2.08,7.52,0.2c0.38,0.35,0.28,0.5-0.05,0.23
		c-1.34-1.11-3.05-1.4-4.77-1.24c-1.11,0.1-1.69,0.45-2.66,0.98C136.77,71.44,136.82,71.29,137.05,71.09z"/>
	<path style="fill:#F58D6B;" d="M152.59,85.51c-0.36,0.52-0.97,1.56-2.02,1.58c-1.05-0.02-1.66-1.06-2.02-1.58
		c-0.34-0.5-0.73-0.34-0.47,0.48c0.38,1.18,1.28,1.95,2.48,1.95c0,0,0.01,0,0.01,0c0,0,0.01,0,0.01,0c1.2,0,2.09-0.76,2.48-1.95
		C153.32,85.17,152.93,85.01,152.59,85.51z"/>
	<path style="fill:#FF5855;" d="M152.2,89.43c-0.78,0.01-1.13,0.57-1.63,0.57c-0.71,0-0.67-0.55-1.8-0.53
		c-2.11,0.04-5.7-0.05-6.66-0.29c1.31,1.08,2.52,2.83,3.37,4.36c0.64,1.15,1.65,2.82,2.75,3.63c0.77,0.56,1.55,0.84,2.32,0.85v0
		c0,0,0.01,0,0.01,0c0,0,0.01,0,0.01,0v0c0.77-0.02,1.55-0.29,2.32-0.85c1.1-0.8,2.11-2.48,2.75-3.63c0.85-1.53,2.1-3.34,3.37-4.36
		C158.07,89.43,155.03,89.39,152.2,89.43z M152,95.53c-0.44,0.17-0.93,0.22-1.43,0.2c-0.5,0.02-0.99-0.03-1.43-0.2
		c-2.53-0.95-4.11-4.67-4.88-5.37c2.06,0.47,4.18,0.75,6.3,0.78v0c0,0,0.01,0,0.01,0c0,0,0.01,0,0.01,0v0
		c2.12-0.03,4.23-0.3,6.3-0.78C156.11,90.87,154.53,94.59,152,95.53z"/>
	<path style="fill:#F58D6B;" d="M130.95,76.23c-1.18-0.65-1.63-1.4-0.77-2.34c0.54-0.59,0.76-1.11,0.77-1.7
		c0-1.09-0.09-2.72-0.98-3.49c-0.74-0.64-1.51-0.27-1.94,0.54c-0.3,0.56-0.31,1.27-0.09,1.94c0.22,0.68,0.62-0.03,0.56-0.66
		c-0.08-0.99,0.88-2.14,1.4-0.31c0.19,0.65,0.4,1.37,0.15,2.35c-0.26,1.02-1.43,1.43-0.98,2.61c0.27,0.72,1.06,1.3,1.73,1.54
		C131.07,76.8,131.27,76.41,130.95,76.23z"/>
	<path style="fill:#F58D6B;" d="M170.29,76.23c1.18-0.65,1.63-1.4,0.77-2.34c-0.54-0.59-0.76-1.11-0.77-1.7
		c0-1.09,0.09-2.72,0.98-3.49c0.74-0.64,1.51-0.27,1.94,0.54c0.3,0.56,0.31,1.27,0.1,1.94c-0.22,0.68-0.62-0.03-0.56-0.66
		c0.08-0.99-0.88-2.14-1.4-0.31c-0.19,0.65-0.4,1.37-0.15,2.35c0.26,1.02,1.43,1.43,0.98,2.61c-0.27,0.72-1.06,1.3-1.73,1.54
		C170.18,76.8,169.98,76.41,170.29,76.23z"/>
	<path style="fill:#FFFFFF;" d="M144.26,90.17c0,0,2.95,0.78,6.32,0.78c3.66,0,6.32-0.79,6.32-0.79s-3.29,6.73-6.58,6.73
		C147.56,96.89,144.26,90.17,144.26,90.17z"/>
	<g>
		<path style="fill:#4D4D4D;" d="M173.12,63.42c-0.3-3.78-8.91-24.44-22.46-20.3c-0.81-0.34-1.73-0.59-2.82-0.71
			c-24.15-2.46-18.17,15.54-17.63,23c0.03,0.36,0.14,0.7,0.29,1.03c-0.56-3.64,1.24-7.89,5.27-8.81c3.59-0.82,6.61,0.42,10.19-0.36
			c4.83-1.05,7.03-5.08,8.58-9.53c0-0.01,0.62,5.56,4.07,7.95c1.71,1.18,3.5,1.43,5.43,1.48c2.18,0.05,4.09,0.29,5.85,1.69
			c3.09,2.44,2.16,7.49-1.31,10.67c-0.08,0.08-0.17,0.12-0.26,0.16c-0.04,0.07-0.07,0.12-0.07,0.12S173.46,67.63,173.12,63.42z"/>
		<path style="fill:#FF7676;" d="M133.56,69.44c0,0-0.07-0.08-0.17-0.21c0.02,0.05,0.03,0.09,0.04,0.14
			C133.51,69.42,133.56,69.44,133.56,69.44z"/>
		<path style="fill:#333333;" d="M169.89,58.85c-1.77-1.4-3.68-1.64-5.85-1.69c-1.93-0.04-3.72-0.29-5.43-1.48
			c-3.45-2.4-4.07-7.96-4.07-7.95c-1.54,4.45-3.74,8.48-8.58,9.53c-3.57,0.78-6.6-0.46-10.19,0.36c-4.03,0.92-5.83,5.17-5.27,8.81
			c0.69,1.54,2.45,2.66,2.93,2.94c-0.01-0.05-0.03-0.09-0.04-0.14c-0.54-0.7-2.1-3.06-0.96-5.46c1.8-3.8,6.08-5.16,12.64-3.51
			c5.05,1.27,8.08-2.34,9.45-4.62c1.34,2.75,3.29,4.93,5.4,4.33c5.49-1.58,9.58,0.29,9.58,4.15c0,3.32-0.92,5.12-1.18,5.56
			c0.09-0.03,0.18-0.08,0.26-0.16C172.05,66.34,172.97,61.3,169.89,58.85z"/>
	</g>
	<path style="fill:#CC6E09;" d="M174.93,172.43C174.87,170.78,174.92,174.08,174.93,172.43L174.93,172.43z"/>
	<g>
		<path style="fill:#3BB295;" d="M192.85,139.29c-2.31-6.02-5.16-18.05-11.08-21.03c-4.43-2.23-14.88-3.95-18.65-4.59
			c0,0-3.65,7.42-12.05,7.42c-9.88,0-14.29-7.42-14.29-7.42c-3.77,0.64-10.76,1.92-15.19,4.15c-5.86,2.95-9.25,10.8-10.82,24.49
			c-0.07,0.64-2.55,27.02,1.68,34.06c9.21,2.61,12.2-15.85,13.25-19.23c-0.03,2.29,3.63,4.19,3.44,8.88
			c-0.53,13.02-2.7,33.58-2.7,33.58s42.64,5.77,50.61,4.95c-0.51-3.48-3.51-23.64-3.62-26.81c-0.5-13.94,4.04-23.16,4.21-23.56
			c2.24-1.45,5.51,25.87,19.86,19.83C210.77,168.43,196.49,148.77,192.85,139.29z"/>
	</g>
	<path style="fill:#1F9374;" d="M134.18,162.23c1.91-0.5,5.84-1.8,4.62-4.65c-0.7-1.63-10.2-5.62-11.11-6.67
		c-4.39-5.11-0.81-15.17-2.87-21.15c-0.75-2.18-1.88-1.13-1.56,2c0.18,1.79-0.55,15.53,0.76,21.18c1.23,5.31,2.55,6.13,3.73,8.91
		c0.32,0.75-0.95,24.07-1.9,30.04c-0.15,0.96,2.81,8.93,3.64,8.72c1.03-0.33,2.08-0.44,3.14-0.33c0.85,0.02,1.32-0.65,1.34-1.38
		c0.51-0.27,0.85-0.82,0.61-1.56c-1.94-6.03-2.76-12.22-3-18.47c0.02-5.57,0.84-11.15,2.44-16.62
		C134.06,162.25,134.12,162.24,134.18,162.23z M130.79,194.36c0.12,0.46,0.24,0.91,0.37,1.37c-0.14-0.08-0.28-0.16-0.43-0.24
		C130.75,195.11,130.77,194.73,130.79,194.36z"/>
	<path style="fill:#1F9374;" d="M169.53,162.23c-1.91-0.5-5.84-1.8-4.62-4.65c0.7-1.63,10.2-5.62,11.11-6.67
		c4.39-5.11,0.81-15.17,2.87-21.15c0.75-2.18,1.88-1.13,1.56,2c-0.18,1.79,0.55,15.53-0.76,21.18c-1.23,5.31-2.55,6.13-3.73,8.91
		c-0.32,0.75,0.95,24.07,1.9,30.04c0.15,0.96-2.81,8.93-3.64,8.72c-1.03-0.33-2.08-0.44-3.14-0.33c-0.85,0.02-1.32-0.65-1.34-1.38
		c-0.51-0.27-0.85-0.82-0.61-1.56c1.94-6.03,2.76-12.22,3-18.47c-0.02-5.57-0.84-11.15-2.44-16.62
		C169.64,162.25,169.59,162.24,169.53,162.23z M172.92,194.36c-0.12,0.46-0.24,0.91-0.37,1.37c0.14-0.08,0.28-0.16,0.43-0.24
		C172.96,195.11,172.93,194.73,172.92,194.36z"/>
	<g>
		<path style="fill:#FFFFFF;" d="M145.24,111.18c0.17,9.67,6.3,17.44,13.84,17.44c7.54,0,13.67-7.77,13.84-17.44H145.24z"/>
		<path style="fill:#FFC200;" d="M147.27,113.84c0.13,7.05,5.73,12.71,11.8,12.71c6.08,0,11.76-5.65,11.9-12.69L147.27,113.84z"/>
		<path style="fill:#FFFFFF;" d="M172.32,114.72c0.28-0.42,1.37-1.82,3.44-1.25c1.64,0.45,2.75,2.74,0.96,6.6
			c-2.22,4.81-9.15,4.24-9.15,4.24l1.4-1.94c0,0,5.33,0.27,6.92-4.15c0.37-1.04,0.38-2.27-0.5-2.73c-1.16-0.61-1.98,3.03-3.39,1.95
			C171.25,116.88,171.91,115.33,172.32,114.72z"/>
		<g>
			<path style="fill:#FFFFFF;" d="M155.67,119.99c0,0-4.35-2.33-4.45,0.24C151.14,122.35,153.99,121.45,155.67,119.99z"/>
			<path style="fill:#FFFFFF;" d="M155.46,120.25c0,0-4.49,2.01-2.62,3.72C154.39,125.37,155.51,122.52,155.46,120.25z"/>
			<path style="fill:#FFFFFF;" d="M155.4,120.21c0,0-4.4-2.21-2.46-3.83C154.54,115.05,155.54,117.95,155.4,120.21z"/>
			<path style="fill:#FFFFFF;" d="M155.01,119.99c0,0,4.35-2.33,4.45,0.24C159.54,122.35,156.68,121.45,155.01,119.99z"/>
			<path style="fill:#FFFFFF;" d="M155.21,120.25c0,0,4.49,2.01,2.62,3.72C156.29,125.37,155.16,122.52,155.21,120.25z"/>
			<path style="fill:#FFFFFF;" d="M155.28,120.21c0,0,4.4-2.21,2.46-3.83C156.14,115.05,155.13,117.95,155.28,120.21z"/>
			<path style="fill:#FFE6A1;" d="M156.57,120.17c0,0.76-0.6,1.38-1.33,1.38c-0.74,0-1.33-0.62-1.33-1.38c0-0.76,0.6-1.38,1.33-1.38
				C155.97,118.79,156.57,119.4,156.57,120.17z"/>
			<ellipse style="fill:#FFFFFF;" cx="155.01" cy="119.91" rx="0.6" ry="0.62"/>
		</g>
		<g>
			<path style="fill:#FFFFFF;" d="M163.66,115.97c0,0,0.67,0.48-0.11,0.81c-0.08,0.03-0.17,0.07-0.26,0.1
				c-1.26,0.42-3.68,0.53-3.83-0.81C159.24,114.08,161.99,114.71,163.66,115.97z"/>
			<path style="fill:#FFFFFF;" d="M163.47,116.55c0,0-2.74,0.84-3.06,1.81c-0.35,1.08,0.44,1.7,1.33,1.6
				c0.59-0.07,2.5-2.66,2.5-2.66L163.47,116.55z"/>
			<path style="fill:#FFFFFF;" d="M165.13,116.93c0,0-0.74-0.36-0.63,0.5c0.01,0.09,0.03,0.18,0.05,0.28
				c0.28,1.34,1.38,3.56,2.59,3.02C168.92,119.94,167.02,117.8,165.13,116.93z"/>
			<path style="fill:#FFFFFF;" d="M164.69,117.76c0,0,0.68,2.29,0.02,3.06c-0.73,0.85-1.65,0.45-2-0.39
				c-0.24-0.57,0.92-2.94,0.92-2.94L164.69,117.76z"/>
			<g>
				<path style="fill:#FFE6A1;" d="M165.42,115.19c-0.82-0.68-1.61-0.31-2.38,0.7c-0.07,1.95,2.04,1.92,2.04,1.92
					S166.55,116.12,165.42,115.19z"/>
			</g>
			<path style="fill:#FFFFFF;" d="M164.65,116.32c-0.25,0.03-0.48-0.16-0.51-0.42c-0.03-0.26,0.15-0.5,0.4-0.53
				c0.25-0.03,0.48,0.16,0.51,0.42C165.09,116.05,164.91,116.29,164.65,116.32z"/>
		</g>
	</g>
	<path style="fill:#FEB082;" d="M204.38,163.69c-0.65-5.42-4.37-14.4-7.4-20.48c-1.19-2.39-5.17-9.3-6.84-11.26
		c-0.9-3.18-0.97-9.04-4.89-12.52c-1.74-1.55-4.79-2.89-6.99-3.59c-1.49-0.47-3.47,1.73-4.27,1.94c-0.56,0.15-1.34,0.5-1.31,1.49
		c0.03,0.78,0.71,1.36,1.11,1.99c1.43,3.66,5.96,14.11,11.76,15.63c0.89,9.1,1.27,16.96,3.03,25.89c1.26,6.37,3.36,10.99,8.89,11.22
		C200.55,174.14,205.35,171.76,204.38,163.69z"/>
	<path style="fill:#FEB082;" d="M103.62,129.89c1.43-1.22,2.67-4.41,2.79-6.66c0.18-3.35,0.26-11.36-0.91-12.27
		c-2.08-1.62-5.2,1.4-6.56,0.35c-0.39-6.9,0.4-8.46-3.11-14.42c-1.19-2.02-3.7-1.63-1.84,3.97c0.96,2.89,1.03,10.3-0.27,13.17
		c-1.3,2.88-3.56,6.77-0.27,16.86c2.18,6.23,4.04,38.16,18.99,45.49c5.2-0.48,6.2-5.86,6.2-10.18c0-3.96-0.36-6.16-2.43-11.24
		C113.56,148.45,103.62,129.89,103.62,129.89z"/>
	<path style="fill:#4D4D4D;" d="M177.75,191.74H151.5h-2.93H125.6c-8.47,30.63-2.56,73.26-2.56,73.26h27.07h1.4h28.8
		C180.31,265,186.22,222.37,177.75,191.74z"/>
	<path style="fill:#F58D6B;" d="M102.15,123.81c-0.28,0.42-1.23,0.66-2.5,0.31c-0.81-0.22-1.23-1.09-0.27-2.22
		c0.17-0.2,0.93-1.1,1.79-2.13c1-1.2,2-3.14,1.87-4.19c-0.46,0.66-0.91,1.31-1.36,1.96c-0.11-2.33-1.99-4.14-4.13-4.72
		c-1.3-0.39-1.67,0.03-1.84,0.25c1.53,0.7,3.67,1.25,4.79,2.64c0.76,0.95,0.21,3.4,0,3.46c-0.32-0.67-0.93-1.32-1.35-1.64
		c-0.87-0.67-2.44-1.3-3.46-0.63c-0.04,0.03-0.05,0.12,0.02,0.13c1.15,0.18,2.13,0.13,3.09,0.97c0.42,0.36,0.79,0.83,1.03,1.34
		c0.08,0.16,0.12,0.32,0.17,0.48c-0.2,0.25-0.4,0.51-0.61,0.76c-0.71,0.83-1.62,1.85-1.33,3.07c0.29,1.19,1.15,1.55,2.12,1.53
		c-0.6,0.64-0.96,1.35-1.98,1.59c-1.43,0.33-1.79-0.24-1.54-1.85c0.17-1.09,1.06-2.15,0.34-3.19c-0.65-0.93-2.02-1.42-3.07-1.37
		c-0.08,0-0.14,0.14-0.05,0.18c0.84,0.41,1.62,1.47,1.62,2.49c0,2.64,0.09,4.02,0.75,4.66c0.59,0.56,1.62,0.44,2.3,0.25
		c1.7-0.46,2.06-1.71,4.39-2.22c0.91-0.2,1.08-1.51,0.85-2.9C103.72,122.49,103.1,122.41,102.15,123.81z"/>
</g>
<g>
	<g>
		<path style="fill:#FFE18D;" d="M125.71,212.11c0.57,4.08,10.28,7.34,22.18,7.34c11.89,0,21.6-3.25,22.18-7.34H125.71z"/>
		<rect x="136.45" y="218.34" style="fill:#FFC200;" width="22.41" height="1.19"/>
	</g>
	<g>
		<g>
			<path style="fill:#ABAFB2;" d="M187.75,219.63H175.3c-0.77,0-1.4-0.63-1.4-1.4v-0.05c0-0.77,0.63-1.4,1.4-1.4h12.46
				c0.77,0,1.4,0.63,1.4,1.4v0.05C189.15,219.01,188.52,219.63,187.75,219.63z"/>
			<g>
				<path style="fill:#E6E7E8;" d="M196,190.27h-13.02h-2.43h-13.02c0,0,0.75,1.94,1.38,4.5c-1.03-0.12-3.87-0.23-6.63,1.65
					c-2.51,1.7-2.9,6.87-0.55,9.74c2.36,2.89,5.35,3.3,6.75,3.32c-0.27,1.46-0.45,2.74-0.36,3.7c0.25,2.67,2.1,4.82,7.13,5.33
					c2.24,0.23,10.78,0.23,13.02,0c5.03-0.51,6.88-2.66,7.13-5.33c0.25-2.67-1.59-7.84-1.59-12.56
					C193.81,195.91,196,190.27,196,190.27z M163.99,204.74c-1.43-1.66-2.37-5.69,1.25-6.96c2.25-0.79,3.79-0.57,4.19-0.49
					c0.18,1.11,0.3,2.25,0.3,3.34c0,1.95-0.32,3.98-0.67,5.87C167.64,206.68,165.55,206.56,163.99,204.74z"/>
			</g>
			<path style="fill:#00AEEF;" d="M192.07,203.75c-0.51-3.94,0.28-7.12,0.56-8.1h-10.64h-0.45h-7.39c0.77,2.4,1.49,4.29,1.82,5.03
				c1.91,4.27,5.95,4.88,7.38,8.11c1.44,3.22-0.27,7.67-4.24,5.97c-3.97-1.69-3.97-5.66-4.79-11.5c-0.24-1.73-0.77-4.55-1.46-7.61
				h-1.97c0.28,0.98,1.07,4.16,0.56,8.1c-0.61,4.75-2.82,8.72,0,11.23c2.54,2.26,7.69,1.78,10.3,1.78c2.61,0,7.76,0.48,10.3-1.78
				C194.89,212.47,192.69,208.5,192.07,203.75z"/>
			<g>
				<path style="fill:#C7C8CA;" d="M171.37,182.58c-0.09-3.11-0.19-3.36-0.46-4.09c-0.7-1.93-2.83-1.76-2.77,0.23
					c0.03,1.18,0.44,2.88,1.61,5.92c1.13,2.93,2.26,7.17,3.12,11.02h1.28C172.89,191.73,171.49,186.44,171.37,182.58z"/>
				<path style="fill:#C7C8CA;" d="M179.12,214.76c3.97,1.69,5.67-2.75,4.24-5.97c-1.44-3.22-5.47-3.84-7.38-8.11
					c-0.33-0.74-1.05-2.63-1.82-5.03h-1.28c0.69,3.06,1.21,5.88,1.46,7.61C175.15,209.1,175.15,213.07,179.12,214.76z"/>
				<path style="fill:#939598;" d="M177.23,207.49c0.53-1.29,1.37-1.45,2.64-0.37c-1.5,0.11-2.19,1.64-0.86,3.19
					c1.4,1.63,2.6,1.2,3.14,0.68c0.13,0.98,0.09,2.29-1.02,2.53c-1.61,0.33-2.72-1.19-3.32-2.11
					C177.06,210.25,176.67,208.87,177.23,207.49z"/>
			</g>
			<path style="opacity:0.5;fill:#FFFFFF;" d="M188.46,191.41c0,0-0.78,3.49-0.94,7.33c-0.17,3.83,0.25,7.41,1.59,6.66
				c0.64-0.36,0.08-3.16,0.98-7.39c0.9-4.24,1.92-6.6,1.92-6.6H188.46z"/>
		</g>
		<g>
			<g>
				<path style="fill:#3BB295;" d="M195.38,218.2l0.51-1.11c4.24,2.08,8.03-2.71,8.06-2.76l0.93,0.77
					C204.83,215.16,200.45,220.69,195.38,218.2z"/>
			</g>
			<g>
				<path style="fill:#3BB295;" d="M199.15,205.35c0,0-3.78,1.09-5.22,5.35c-1.44,4.26,0.95,4.98,0.95,4.98L199.15,205.35z"/>
				<path style="fill:#26A587;" d="M199.15,205.35c0,0,1.85,3.58-0.13,7.6c-1.98,4.02-4.14,2.73-4.14,2.73L199.15,205.35z"/>
			</g>
			<g>
				<path style="fill:#3BB295;" d="M183.86,213.08c0,0,1.55,3.73,5.83,4.64c4.28,0.91,4.65-1.63,4.65-1.63L183.86,213.08z"/>
				<path style="fill:#26A587;" d="M183.86,213.08c0,0,3.19-2.37,7.31-0.87c4.12,1.5,3.17,3.88,3.17,3.88L183.86,213.08z"/>
			</g>
			<g>
				<path style="fill:#E6E7E8;" d="M195,214.9c0,0-4.72-2.53-4.83,0.26C190.08,217.47,193.19,216.5,195,214.9z"/>
				<path style="fill:#E6E7E8;" d="M194.78,215.19c0,0-4.88,2.19-2.85,4.04C193.61,220.76,194.84,217.65,194.78,215.19z"/>
				<path style="fill:#E6E7E8;" d="M194.71,215.14c0,0-4.79-2.41-2.68-4.16C193.78,209.53,194.87,212.69,194.71,215.14z"/>
				<path style="fill:#E6E7E8;" d="M194.29,214.9c0,0,4.72-2.53,4.83,0.26C199.21,217.47,196.11,216.5,194.29,214.9z"/>
				<path style="fill:#E6E7E8;" d="M194.51,215.19c0,0,4.88,2.19,2.85,4.04C195.68,220.76,194.46,217.65,194.51,215.19z"/>
				<path style="fill:#FFFFFF;" d="M194.58,215.14c0,0,4.79-2.41,2.68-4.16C195.52,209.53,194.42,212.69,194.58,215.14z"/>
				<path style="fill:#FFC200;" d="M195.98,215.09c0,0.83-0.65,1.5-1.45,1.5c-0.8,0-1.45-0.67-1.45-1.5s0.65-1.5,1.45-1.5
					C195.33,213.6,195.98,214.27,195.98,215.09z"/>
			</g>
			<g>
				<path style="fill:#E6E7E8;" d="M205.48,214.14c0,0,0.39,0.74-0.44,0.68c-0.09-0.01-0.18-0.02-0.28-0.03
					c-1.31-0.2-3.53-1.2-3.09-2.48C202.33,210.43,204.52,212.25,205.48,214.14z"/>
				<path style="fill:#E6E7E8;" d="M205.07,214.58c0,0-2.82-0.5-3.53,0.23c-0.78,0.81-0.34,1.73,0.51,2.04
					c0.56,0.21,3.38-1.25,3.38-1.25L205.07,214.58z"/>
				<path style="fill:#E6E7E8;" d="M206.4,215.68c0,0-0.51-0.66-0.78,0.16c-0.03,0.08-0.05,0.18-0.08,0.28
					c-0.32,1.33-0.28,3.83,1.02,3.9C208.5,220.12,207.72,217.33,206.4,215.68z"/>
				<path style="fill:#E6E7E8;" d="M205.64,216.23c0,0-0.37,2.37-1.3,2.76c-1.02,0.43-1.68-0.35-1.63-1.27
					c0.03-0.62,2.09-2.22,2.09-2.22L205.64,216.23z"/>
				<g>
					<path style="fill:#FFC200;" d="M207.4,214.25c-0.44-0.98-1.31-1.01-2.44-0.46c-0.9,1.72,1.01,2.66,1.01,2.66
						S208.01,215.61,207.4,214.25z"/>
				</g>
			</g>
		</g>
	</g>
	<g>
		<path style="fill:#26A587;" d="M93.2,206.17c0,0-1.46-1.42-3.07-1.55c-1.65-0.13-2.52-1.26-2.59-2.48
			c-0.07-1.22,0.04-1.66,0.04-1.66l-1.29,0.19c0,0-0.33,2.21,1.11,3.83c1.44,1.63,2.26,4.12,2.26,4.12S92.01,206.4,93.2,206.17z"/>
		<g>
			<path style="fill:#FF5855;" d="M91.42,205.19c-0.12,0.85,0.03,1.75,0.62,2.61c1.12,1.62,7.5,7.41,10,9.1
				c2.5,1.69,4.92,1.25,7.14,1.63c0.99,0.17,1.57-0.04,1.9-0.33c0.39,0.1,0.68,0.17,0.82,0.23c0.66,0.29,1,1.34-1.44,1.21
				c-2.45-0.14-4.32,0.72-9.26-1.06c-4.94-1.78-10.71-7.64-11.67-9.05C88.36,207.8,89.31,205.3,91.42,205.19z"/>
			<path style="fill:#FF7676;" d="M109.18,218.52c-2.21-0.38-4.64,0.06-7.14-1.63c-2.5-1.69-8.88-7.48-10-9.1
				c-0.59-0.85-0.75-1.75-0.62-2.61c0.54-0.03,1.16,0.09,1.84,0.43c3.4,1.7,8.2,9.93,11.04,10.87c2.25,0.74,5.29,1.34,6.78,1.7
				C110.75,218.48,110.18,218.7,109.18,218.52z"/>
		</g>
		<path style="fill:#FF9797;" d="M93.5,206.63c1.44,0.64,3.86,4.08,5.09,5.23c0.57,0.54,0.21,0.73,0.12,0.71
			c-1.1-0.28-2.24-1.57-3.15-2.25c-0.96-0.71-2.17-1.68-2.84-2.72C92.08,206.61,92.67,206.27,93.5,206.63z"/>
	</g>
	<g>
		<g>
			<path style="fill:#ABAFB2;" d="M80.01,219.46H66.42c-0.64,0-1.15-0.54-1.15-1.19l0,0c0-0.66,0.52-1.19,1.15-1.19h13.59
				c0.63,0,1.15,0.54,1.15,1.19l0,0C81.16,218.92,80.64,219.46,80.01,219.46z"/>
			<path style="fill:#E6E7E8;" d="M87.13,212c-0.27-3.66-4.02-37.24-5.88-39.34c-1.61-1.82-4.72-2.88-4.72-2.88h0.26v-7.99h-7.31
				v7.99c0,0-3.11,1.06-4.72,2.88c-1.86,2.1-5.61,35.68-5.88,39.34c-0.27,3.66,3.39,6.32,7.67,6.32c3.24,0,5.38,0.02,6.24,0.04
				l0,0.01c0,0,0.07,0,0.21,0c0.14,0,0.21,0,0.21,0v-0.01c0.85-0.01,3-0.04,6.24-0.04C83.74,218.32,87.4,215.66,87.13,212z"/>
			<path style="fill:#00AEEF;" d="M84.81,208.43c-0.7-4.62-2.51-20.03-2.51-20.03l-9.14,0.21l-9.14-0.21c0,0-1.81,15.41-2.51,20.03
				c-0.58,3.81,0.45,7.35,3.92,7.35c2.71,0,5.23,0,6.84,0c1.1,0,1.77,0,1.77,0c1.61,0,4.13,0,6.84,0
				C84.35,215.77,85.38,212.24,84.81,208.43z"/>
			<path style="fill:#435989;" d="M76.94,162.7h-7.59c-0.49,0-0.88-0.41-0.88-0.91l0,0c0-0.5,0.4-0.91,0.88-0.91h7.59
				c0.49,0,0.88,0.41,0.88,0.91l0,0C77.82,162.29,77.43,162.7,76.94,162.7z"/>
			<path style="opacity:0.8;fill:#FFFFFF;" d="M67.03,175.41c-0.83,8.04-3.88,31.92-4.15,33.7c-0.5,3.27,0.38,5.25,1.91,3.62
				c1.26-1.34,4.13-36.94,4.12-37.32C68.43,175.37,67.52,175.47,67.03,175.41z"/>
			<path style="opacity:0.8;fill:#FFFFFF;" d="M79.71,175.41c0.83,8.04,3.88,31.92,4.15,33.7c0.5,3.27-0.38,5.25-1.91,3.62
				c-1.26-1.34-4.13-36.94-4.12-37.32C78.31,175.37,79.22,175.47,79.71,175.41z"/>
		</g>
		<g>
			<path style="fill:#ABAFB2;" d="M54.22,219.46h-7.54c-0.47,0-0.85-0.39-0.85-0.88l0,0c0-0.48,0.38-0.88,0.85-0.88h7.54
				c0.47,0,0.85,0.39,0.85,0.88l0,0C55.07,219.06,54.69,219.46,54.22,219.46z"/>
			<path style="fill:#E6E7E8;" d="M55,196.98h0.07v-2.62h-9.18v2.62c-0.72,0-1.31,1.31-1.31,2.05v18.14c0,0.74,0.59,1.35,1.31,1.35
				H55c0.72,0,1.31-0.61,1.31-1.35v-18.14C56.31,198.29,55.72,196.98,55,196.98z"/>
			<rect x="45.09" y="193.08" style="fill:#435989;" width="10.8" height="2.01"/>
			<g>
				<path style="fill:#FF5855;" d="M53.95,209.49c0,0,0.01,0.16,0.02,0.41c0.27,0.7,0.62,1.29,0.58,1.91
					c-0.07,1.15-0.64,2.8-1.28,3.76c-0.47,0.71-1.07,1.06-1.88,1.19c-0.76,0.12-2,0.31-2.74-0.01c-0.05-0.02-0.09-0.05-0.13-0.07
					c-0.4,0.55-0.28,0.92,0.74,0.86c1.28-0.07,3.45,1.19,4.44-0.55c1-1.74,0.54-3.2,1.4-4.18
					C56.15,211.62,53.95,209.49,53.95,209.49z"/>
				<path style="fill:#FF7676;" d="M51.39,216.77c0.81-0.13,1.41-0.48,1.88-1.19c0.63-0.97,1.21-2.62,1.28-3.76
					c0.04-0.62-0.32-1.21-0.58-1.91c0.01,0.77-0.07,2.41-0.87,3.01c-1.07,0.81-0.57,0.59-1.42,1.76c-0.85,1.17-1.99,0.77-2.77,1.56
					c-0.16,0.16-0.28,0.31-0.38,0.44c0.04,0.02,0.08,0.05,0.13,0.07C49.39,217.07,50.64,216.89,51.39,216.77z"/>
			</g>
			<g>
				<path style="fill:#FF5855;" d="M51.85,213.77c0,0-0.14-0.07-0.35-0.18c-0.72-0.1-1.4-0.07-1.9-0.4
					c-0.94-0.62-2.06-1.93-2.57-2.98c-0.38-0.77-0.38-1.48-0.1-2.27c0.26-0.74,0.71-1.96,1.34-2.47c0.04-0.04,0.08-0.06,0.12-0.08
					c-0.28-0.63-0.64-0.7-1.08,0.25c-0.56,1.19-2.67,2.54-1.68,4.28c0.99,1.74,2.45,2.04,2.87,3.29
					C48.97,214.73,51.85,213.77,51.85,213.77z"/>
				<path style="fill:#FF7676;" d="M46.92,207.94c-0.28,0.8-0.28,1.51,0.1,2.27c0.51,1.04,1.63,2.36,2.57,2.98
					c0.51,0.33,1.18,0.3,1.9,0.4c-0.66-0.36-2.01-1.22-2.13-2.24c-0.17-1.35-0.22-0.8-0.8-2.14c-0.58-1.34,0.31-2.17,0.02-3.26
					c-0.06-0.22-0.12-0.41-0.19-0.56c-0.04,0.03-0.08,0.05-0.12,0.08C47.63,205.98,47.18,207.2,46.92,207.94z"/>
			</g>
			<g>
				<path style="fill:#FF5855;" d="M49.58,197.64c0,0,0.13,0.08,0.34,0.22c0.71,0.17,1.38,0.21,1.86,0.59
					c0.87,0.71,1.86,2.13,2.27,3.22c0.3,0.8,0.24,1.51-0.12,2.27c-0.33,0.71-0.89,1.87-1.57,2.32c-0.05,0.03-0.09,0.05-0.13,0.07
					c0.21,0.65,0.57,0.76,1.1-0.14c0.67-1.13,2.91-2.25,2.09-4.09c-0.82-1.83-2.25-2.28-2.54-3.57
					C52.53,196.98,49.58,197.64,49.58,197.64z"/>
				<path style="fill:#FF7676;" d="M53.92,203.95c0.36-0.76,0.42-1.47,0.12-2.27c-0.41-1.09-1.4-2.51-2.27-3.22
					c-0.47-0.38-1.15-0.42-1.86-0.59c0.62,0.43,1.88,1.42,1.91,2.45c0.04,1.36,0.14,0.82,0.6,2.21c0.45,1.39-0.51,2.13-0.33,3.24
					c0.04,0.22,0.08,0.42,0.13,0.58c0.04-0.02,0.09-0.04,0.13-0.07C53.03,205.82,53.59,204.66,53.92,203.95z"/>
			</g>
			<g>
				<path style="fill:#FF5855;" d="M48.31,215.58c0.86-0.88,0.83-1.49-0.54-1.71c-0.84-0.14-1.75-1.59-1.86-1.78
					c0.15,0.84,0.49,1.46,1.25,1.98c0.41,0.28,0.83,0.42,0.57,0.71c-0.86,0.95-0.68,1.76-0.14,2.22
					C47.58,216.8,47.64,216.27,48.31,215.58z"/>
				<path style="fill:#FF7676;" d="M47.73,214.79c0.27-0.29-0.15-0.43-0.57-0.71c-0.77-0.52-1.1-1.14-1.25-1.98
					c-0.01-0.01-0.01-0.02-0.01-0.02s-0.31,1.3,0.47,2.16c0.41,0.45-0.42,0.7-0.24,1.71c0.19,1.01,1.47,1.16,1.47,1.16
					s-0.01-0.04-0.01-0.1C47.05,216.54,46.87,215.73,47.73,214.79z"/>
			</g>
			<g>
				<path style="fill:#FF5855;" d="M50.27,208.87c-0.88,0.86-0.86,1.46,0.5,1.72c0.84,0.16,1.71,1.64,1.81,1.82
					c-0.13-0.84-0.45-1.47-1.21-2.01c-0.41-0.29-0.82-0.44-0.55-0.73c0.88-0.92,0.72-1.74,0.19-2.22
					C51.02,207.67,50.95,208.2,50.27,208.87z"/>
				<path style="fill:#FF7676;" d="M50.83,209.68c-0.27,0.29,0.14,0.44,0.55,0.73c0.76,0.54,1.07,1.17,1.21,2.01
					c0.01,0.01,0.01,0.02,0.01,0.02s0.34-1.3-0.42-2.18c-0.4-0.46,0.44-0.69,0.28-1.7c-0.16-1.01-1.44-1.2-1.44-1.2
					s0.01,0.04,0.01,0.1C51.55,207.94,51.71,208.75,50.83,209.68z"/>
			</g>
			<g>
				<path style="fill:#FF5855;" d="M47.5,198.5c-1.2-0.15-1.64,0.24-0.97,1.49c0.41,0.77-0.14,2.4-0.21,2.61
					c0.55-0.64,0.82-1.3,0.74-2.24c-0.04-0.51-0.2-0.94,0.19-0.9c1.25,0.11,1.76-0.53,1.78-1.26
					C48.88,198.34,48.44,198.62,47.5,198.5z"/>
				<path style="fill:#FF7676;" d="M47.25,199.46c-0.39-0.04-0.24,0.39-0.19,0.9c0.08,0.94-0.19,1.6-0.74,2.24
					c-0.01,0.01-0.01,0.02-0.01,0.02s1.19-0.55,1.36-1.72c0.09-0.61,0.79-0.09,1.45-0.86c0.65-0.77-0.02-1.91-0.02-1.91
					s-0.02,0.03-0.07,0.07C49.01,198.93,48.51,199.57,47.25,199.46z"/>
			</g>
			<g>
				<path style="fill:#FF5855;" d="M48.67,202.89c-0.94,0.79-0.96,1.4,0.38,1.75c0.83,0.22,1.59,1.76,1.68,1.95
					c-0.08-0.85-0.35-1.5-1.07-2.09c-0.39-0.32-0.79-0.5-0.5-0.76c0.94-0.86,0.84-1.68,0.34-2.2
					C49.5,201.75,49.4,202.28,48.67,202.89z"/>
				<path style="fill:#FF7676;" d="M49.17,203.74c-0.29,0.27,0.11,0.45,0.5,0.76c0.72,0.59,0.99,1.24,1.07,2.09
					c0.01,0.01,0.01,0.02,0.01,0.02s0.43-1.27-0.27-2.2c-0.36-0.49,0.49-0.65,0.39-1.67c-0.09-1.02-1.35-1.3-1.35-1.3s0,0.04,0,0.1
					C50.01,202.06,50.12,202.88,49.17,203.74z"/>
			</g>
		</g>
		<g>
			<path style="fill:#3BB295;" d="M57.66,218.42c0.67,0.22,1.84,0.4,2.49-0.03c0.82-0.53,1.52-1.93,2.11-2.71
				c1.28-1.7,2.72-3.92,3.43-6.08l0-0.01c0,0-2.33,2.64-5.26,4.13c-2.34,1.19-1.41,4.07-2.83,3.71c-1.24-0.31-2.95-0.51-3.37-0.55
				c0.64,0.47,1.33,0.9,1.97,1.07C56.71,218.09,57.17,218.26,57.66,218.42z"/>
			<path style="fill:#26A587;" d="M57.95,219.46c3.29-0.02,4.65-0.65,6.53-2.58c1.86-1.91,1.22-7.21,1.22-7.27
				c-0.71,2.15-2.15,4.38-3.43,6.08c-0.59,0.79-1.28,2.18-2.11,2.71c-0.66,0.43-1.82,0.25-2.49,0.03c-0.49-0.16-0.95-0.33-1.45-0.46
				c-0.64-0.17-1.33-0.6-1.97-1.07c-0.06-0.01-0.1-0.01-0.1-0.01S54.66,219.48,57.95,219.46z"/>
		</g>
		<g>
			<path style="fill:#3BB295;" d="M68.15,210.48c-0.27,0.67-0.53,1.86-0.17,2.57c0.45,0.89,1.74,1.71,2.45,2.39
				c1.54,1.45,3.57,3.11,5.59,4.01l0.01,0c0,0-2.36-2.61-3.57-5.74c-0.96-2.51-3.82-1.77-3.36-3.21c0.4-1.25,0.73-2.99,0.8-3.42
				c-0.5,0.63-0.98,1.3-1.19,1.94C68.55,209.52,68.35,209.99,68.15,210.48z"/>
			<path style="fill:#26A587;" d="M67.13,210.69c-0.24,3.38,0.26,4.84,1.97,6.92c1.7,2.07,6.86,1.84,6.93,1.83
				c-2.02-0.9-4.06-2.56-5.59-4.01c-0.71-0.67-2-1.5-2.45-2.39c-0.36-0.71-0.1-1.9,0.17-2.57c0.2-0.49,0.4-0.95,0.56-1.46
				c0.21-0.64,0.69-1.32,1.19-1.94c0.01-0.06,0.02-0.1,0.02-0.1S67.37,207.31,67.13,210.69z"/>
		</g>
		<g>
			<path style="fill:#26A587;" d="M94.14,211.26c0,0,1.88-0.71,3.41-0.18c1.57,0.54,2.8-0.14,3.33-1.23c0.53-1.09,0.6-1.55,0.6-1.55
				l1.11,0.7c0,0-0.53,2.17-2.48,3.08c-1.94,0.91-3.65,2.87-3.65,2.87S95.14,211.96,94.14,211.26z"/>
			<g>
				<path style="fill:#FF5855;" d="M96.15,211.08c-0.21,0.83-0.7,1.6-1.57,2.14c-1.65,1.03-9.72,3.77-12.66,4.31
					c-2.94,0.54-5-0.85-7.18-1.39c-0.98-0.25-1.43-0.68-1.62-1.08c-0.4-0.07-0.7-0.12-0.84-0.12c-0.71,0-1.44,0.83,0.87,1.69
					c2.3,0.86,3.7,2.42,8.92,2.78c5.22,0.36,12.76-2.68,14.17-3.59C97.97,214.73,98.05,212.04,96.15,211.08z"/>
				<path style="fill:#FF7676;" d="M74.74,216.14c2.18,0.55,4.24,1.94,7.18,1.39c2.94-0.54,11.01-3.28,12.66-4.31
					c0.87-0.54,1.35-1.31,1.57-2.14c-0.49-0.25-1.1-0.39-1.86-0.35c-3.77,0.19-11.32,5.81-14.28,5.52
					c-2.35-0.23-5.37-0.91-6.89-1.18C73.32,215.47,73.76,215.9,74.74,216.14z"/>
			</g>
			<path style="fill:#FF9797;" d="M93.69,211.57c-1.57,0-5.1,2.18-6.67,2.75c-0.73,0.26-0.48,0.59-0.38,0.6
				c1.12,0.19,2.66-0.54,3.75-0.79c1.15-0.27,2.63-0.67,3.65-1.35C95,212.12,94.59,211.57,93.69,211.57z"/>
		</g>
	</g>
	<g>
		<path style="fill:#ABAFB2;" d="M39.19,219.46h-7.54c-0.47,0-0.85-0.39-0.85-0.88l0,0c0-0.48,0.38-0.88,0.85-0.88h7.54
			c0.47,0,0.85,0.39,0.85,0.88l0,0C40.04,219.06,39.66,219.46,39.19,219.46z"/>
		<path style="fill:#E6E7E8;" d="M39.97,196.98h0.07v-2.62h-9.18v2.62c-0.72,0-1.31,1.31-1.31,2.05v18.14
			c0,0.74,0.59,1.35,1.31,1.35h9.11c0.72,0,1.31-0.61,1.31-1.35v-18.14C41.28,198.29,40.69,196.98,39.97,196.98z"/>
		<rect x="30.05" y="193.08" style="fill:#435989;" width="10.8" height="2.01"/>
		<g>
			<path style="fill:#3BB295;" d="M34.68,217.04c0.42,0.14,1.15,0.25,1.57-0.02c0.52-0.34,0.95-1.21,1.33-1.71
				c0.8-1.07,1.71-2.47,2.16-3.82l0,0c0,0-1.46,1.66-3.31,2.6c-1.47,0.75-0.88,2.56-1.78,2.34c-0.78-0.2-1.85-0.32-2.12-0.35
				c0.41,0.29,0.84,0.57,1.24,0.67C34.08,216.83,34.37,216.94,34.68,217.04z"/>
			<path style="fill:#26A587;" d="M34.86,217.69c2.07-0.02,2.93-0.41,4.11-1.62c1.17-1.2,0.77-4.53,0.76-4.57
				c-0.45,1.35-1.35,2.75-2.16,3.82c-0.37,0.5-0.81,1.37-1.33,1.71c-0.41,0.27-1.15,0.16-1.57,0.02c-0.31-0.1-0.6-0.21-0.91-0.29
				c-0.4-0.1-0.83-0.38-1.24-0.67c-0.04,0-0.06-0.01-0.06-0.01S32.79,217.7,34.86,217.69z"/>
		</g>
		<g>
			<path style="fill:#3BB295;" d="M36.82,207.33c0.41-0.17,1.05-0.56,1.2-1.04c0.2-0.6,0-1.56-0.02-2.19
				c-0.03-1.35-0.19-3.03-0.67-4.37l0,0c0,0-0.12,2.24-0.97,4.17c-0.68,1.54,0.88,2.56,0.05,2.97c-0.72,0.36-1.63,0.96-1.85,1.12
				c0.49-0.04,1-0.11,1.37-0.29C36.22,207.56,36.52,207.45,36.82,207.33z"/>
			<path style="fill:#26A587;" d="M37.35,207.71c1.59-1.36,2.02-2.23,2.19-3.94c0.17-1.7-2.18-4.01-2.21-4.04
				c0.48,1.34,0.64,3.02,0.67,4.37c0.01,0.63,0.21,1.59,0.02,2.19c-0.16,0.48-0.79,0.87-1.2,1.04c-0.3,0.12-0.59,0.23-0.89,0.37
				c-0.38,0.18-0.88,0.25-1.37,0.29c-0.03,0.02-0.05,0.04-0.05,0.04S35.76,209.07,37.35,207.71z"/>
		</g>
		<g>
			<path style="fill:#3BB295;" d="M32.95,207.7c-0.35,0.28-0.84,0.85-0.85,1.36c-0.02,0.63,0.45,1.49,0.64,2.09
				c0.41,1.28,1.04,2.84,1.89,3.97l0,0c0,0-0.53-2.18-0.26-4.28c0.21-1.68-1.58-2.18-0.9-2.82c0.59-0.56,1.28-1.42,1.45-1.63
				c-0.46,0.19-0.92,0.41-1.23,0.69C33.45,207.31,33.2,207.5,32.95,207.7z"/>
			<path style="fill:#26A587;" d="M32.33,207.5c-1.13,1.78-1.29,2.74-0.97,4.43c0.32,1.67,3.23,3.17,3.26,3.19
				c-0.84-1.13-1.47-2.69-1.89-3.97c-0.19-0.6-0.66-1.45-0.64-2.09c0.01-0.5,0.51-1.07,0.85-1.36c0.25-0.21,0.5-0.4,0.74-0.62
				c0.31-0.29,0.77-0.51,1.23-0.69c0.03-0.03,0.04-0.05,0.04-0.05S33.46,205.72,32.33,207.5z"/>
		</g>
		<g>
			<path style="fill:#3BB295;" d="M34.62,198.88c-0.44,0.06-1.15,0.28-1.41,0.71c-0.33,0.53-0.36,1.52-0.49,2.13
				c-0.28,1.32-0.52,2.98-0.36,4.41l0,0c0,0,0.63-2.15,1.91-3.81c1.02-1.33-0.26-2.71,0.64-2.9c0.79-0.17,1.81-0.53,2.06-0.62
				c-0.49-0.09-0.99-0.14-1.4-0.06C35.25,198.8,34.94,198.84,34.62,198.88z"/>
			<path style="fill:#26A587;" d="M34.19,198.37c-1.86,0.93-2.47,1.66-3.04,3.28c-0.56,1.61,1.18,4.44,1.21,4.47
				c-0.16-1.42,0.08-3.09,0.36-4.41c0.13-0.61,0.16-1.6,0.49-2.13c0.26-0.42,0.97-0.65,1.41-0.71c0.32-0.04,0.63-0.08,0.95-0.14
				c0.41-0.08,0.91-0.03,1.4,0.06c0.04-0.01,0.06-0.02,0.06-0.02S36.05,197.45,34.19,198.37z"/>
		</g>
		<path style="fill:#26A587;" d="M39.55,206.98c0,0-0.39,1.27-1.82,1.92c-1.43,0.65-1.93,1.41-1.93,2.19c0,0.77,0,2.13,0,2.13
			s0.28-1.4,1.61-2.13c1.12-0.61,2.32-1.05,2.39-2.23C39.86,207.67,39.55,206.98,39.55,206.98z"/>
	</g>
	<g>
		<g>
			<path style="fill:#3BB295;" d="M216.23,194.36h-0.92c0-3.74-4.49-4.89-4.54-4.9l0.21-0.92
				C211.04,188.55,216.23,189.88,216.23,194.36z"/>
		</g>
		<g>
			<path style="fill:#3BB295;" d="M218.77,194.89l-0.48-0.8c3.08-1.97,1.66-6.51,1.64-6.56l0.87-0.3
				C220.82,187.28,222.46,192.53,218.77,194.89z"/>
		</g>
		<g>
			<path style="fill:#3BB295;" d="M227.67,186.53c0,0-3.03-0.08-5.03,2.73c-2,2.81-0.39,3.9-0.39,3.9L227.67,186.53z"/>
			<path style="fill:#26A587;" d="M227.67,186.53c0,0,0.58,3.07-1.77,5.58c-2.35,2.51-3.66,1.05-3.66,1.05L227.67,186.53z"/>
		</g>
		<path style="fill:#FFC200;" d="M231.27,193.73l7.24-12.32c0.34-0.57,1.02-0.8,1.62-0.54l1.32,0.57c0.66,0.29,0.98,1.07,0.7,1.76
			l-5.17,12.84c-0.26,0.64-0.95,0.98-1.59,0.77l-3.4-1.09C231.18,195.46,230.82,194.48,231.27,193.73z"/>
		<g>
			<path style="fill:#333333;" d="M238.64,197.18h-25.89c-0.3,1.07-0.46,2.2-0.46,3.37c0,0.6,0.05,1.18,0.12,1.76h26.56
				c0.08-0.57,0.12-1.16,0.12-1.76C239.09,199.38,238.93,198.25,238.64,197.18z"/>
			<path style="fill:#4D4D4D;" d="M240.21,192.57h-29.03c-1.08,0-1.97,0.91-1.97,2.03v1.56v2.21c0,1.12,0.89,2.03,1.97,2.03h29.03
				c1.08,0,1.97-0.91,1.97-2.03v-2.21v-1.56C242.17,193.48,241.29,192.57,240.21,192.57z"/>
			<path style="fill:#3F3F3F;" d="M232.08,211.98c3.67-1.94,6.31-5.49,6.89-9.68h-26.56c0.53,3.8,2.75,7.08,5.9,9.1
				c0,0,0,0,0.01,0.01c1,0.87,3.68,1.65,3.61,3.9c-0.05,1.61-2.69,1.23-3.52,2.01c-0.83,0.79-0.83,2.21-0.83,2.21h6.8h2.51h6.8
				c0,0,0-1.42-0.83-2.21c-0.83-0.79-3.47-0.41-3.52-2.01C229.26,213.55,230.89,212.69,232.08,211.98z"/>
		</g>
		<g>
			<path style="fill:#E6E7E8;" d="M221,186.29c0,0-5.62-3.01-5.74,0.31C215.15,189.35,218.84,188.19,221,186.29z"/>
			<path style="fill:#E6E7E8;" d="M220.74,186.64c0,0-5.8,2.6-3.39,4.8C219.35,193.25,220.81,189.56,220.74,186.64z"/>
			<path style="fill:#E6E7E8;" d="M220.66,186.58c0,0-5.69-2.86-3.18-4.95C219.55,179.91,220.84,183.66,220.66,186.58z"/>
			<path style="fill:#E6E7E8;" d="M220.16,186.29c0,0,5.62-3.01,5.74,0.31C226.01,189.35,222.32,188.19,220.16,186.29z"/>
			<path style="fill:#E6E7E8;" d="M220.42,186.64c0,0,5.8,2.6,3.39,4.8C221.81,193.25,220.35,189.56,220.42,186.64z"/>
			<path style="fill:#E6E7E8;" d="M220.5,186.58c0,0,5.69-2.86,3.18-4.95C221.61,179.91,220.32,183.66,220.5,186.58z"/>
			<path style="fill:#FFC200;" d="M222.17,186.52c0,0.98-0.77,1.78-1.72,1.78s-1.72-0.8-1.72-1.78c0-0.98,0.77-1.78,1.72-1.78
				S222.17,185.54,222.17,186.52z"/>
		</g>
		<g>
			<path style="fill:#E6E7E8;" d="M208.41,189.28c0,0,0.64-0.75,0.91,0.24c0.03,0.1,0.05,0.21,0.08,0.33
				c0.3,1.6,0.11,4.56-1.45,4.56C205.64,194.41,206.74,191.14,208.41,189.28z"/>
			<path style="fill:#E6E7E8;" d="M209.05,189.58c0,0,0.58,3.46,1.66,3.99c1.19,0.58,2.01-0.3,2.01-1.4c0-0.74-2.71-3.41-2.71-3.41
				L209.05,189.58z"/>
			<path style="fill:#E6E7E8;" d="M209.71,187.61c0,0-0.51,0.85,0.48,0.84c0.1,0,0.21-0.01,0.33-0.02c1.57-0.16,4.26-1.2,3.82-2.74
				C213.68,183.4,210.97,185.42,209.71,187.61z"/>
			<path style="fill:#E6E7E8;" d="M210.6,188.26c0,0,2.72-0.52,3.51,0.39c0.88,1.01,0.29,2.07-0.73,2.39
				c-0.68,0.21-3.24-1.53-3.24-1.53L210.6,188.26z"/>
			<g>
				<path style="fill:#FFC200;" d="M207.76,187.02c-0.89,0.9-0.58,1.92,0.48,3c2.23,0.35,2.48-2.23,2.48-2.23
					S208.98,185.77,207.76,187.02z"/>
			</g>
		</g>
	</g>
	<g>
		<g>
			<path style="fill:#FFC200;" d="M242.76,208.95v7.96c0,0.08,0,0.16,0.01,0.24h9.7c0.01-0.08,0.01-0.16,0.01-0.24v-7.96
				c0-0.81-0.12-1.61-0.32-2.32h-9.03C242.89,207.37,242.76,208.19,242.76,208.95z"/>
			<path style="fill:#F4A300;" d="M249.93,203.98h-4.63c-0.92,0-1.73,1.2-2.18,2.64h9.03C251.72,205.11,250.89,203.98,249.93,203.98
				z"/>
			<path style="fill:#F4A300;" d="M245.3,219.53h4.63c1.32,0,2.41-1.05,2.53-2.39h-9.7C242.89,218.47,243.98,219.53,245.3,219.53z"
				/>
		</g>
		<path style="fill:#FFC200;" d="M248.64,194.24c0.16-1.13,1.88-4.57-1.02-4.57c-2.9,0-1.18,3.44-1.02,4.57
			c0.16,1.13-0.63,2.35-0.63,2.35h1.65h1.65C249.26,196.59,248.48,195.37,248.64,194.24z"/>
		<polygon style="fill:#26A587;" points="250.53,196.28 244.71,196.28 243.15,204.39 246.44,204.39 248.79,204.39 252.09,204.39 		
			"/>
		<rect x="244.33" y="209" style="fill:#FFFFFF;" width="6.58" height="5.42"/>
	</g>
	<g>
		<rect x="26.01" y="224.86" style="fill:#876732;" width="252.29" height="40.14"/>
		<rect x="13.43" y="219.57" style="fill:#544117;" width="277.44" height="5.28"/>
		<rect x="26.01" y="232.94" style="fill:#9E7A38;" width="252.29" height="32.06"/>
	</g>
</g>
<g>
	<g>
		<g>
			<path style="fill:#4C7520;" d="M284.26,101.47c3.62-3.82,0.99-9.31,0.07-13.76c-0.31-1.51-0.43-2.99-0.58-4.53
				c-0.05-0.47-0.02-3.38-0.54-3.69c-0.88-0.53-2.61,0.49-3.48,0.64c-3.14,0.57-2.37-2.07-0.6-3.91c0.55-0.57,1.13-0.77,1.75-1.16
				c0.23-0.14,0.42-0.29,0.6-0.43h-3.6c-1.69,4.25-6.51,8.46-9.93,15.45c-1.92,3.93-1.76,8.31-1.26,11.4
				c1.31,0.37,2.61,0.76,3.93,1.09C274.58,103.59,281.08,104.83,284.26,101.47z"/>
			<path style="fill:#4C7520;" d="M286.99,61.81c-1.08,0.03-2.63,0.11-3.35,0.35c-1.18,0.38,0.4,2.38-1.96,2.74
				c-2.36,0.37-1.43-2.67-2.72-3.37c-1.29-0.7-3.8-0.77-3.8-0.77s-1.59,2.62-0.9,6c0.69,3.38,3.29,7.28,3.29,7.28h4.53
				c0.37-0.47,0.64-1.02,0.98-1.75C284.64,68.87,286.69,65.63,286.99,61.81z"/>
			<path style="fill:#2F631C;" d="M293.26,105.43c-0.19-2.48-0.74-8.58-1.91-14.93c-1.52-8.25-6.38-15.87-6.38-15.87h-3.5
				c-0.18,0.15-0.37,0.29-0.6,0.43c-0.62,0.39-1.2,0.59-1.75,1.16c-1.77,1.84-2.54,4.49,0.6,3.91c0.87-0.16,2.6-1.17,3.48-0.64
				c0.51,0.31,0.49,3.21,0.54,3.69c0.15,1.54,0.27,3.02,0.58,4.53c0.92,4.45,3.55,9.94-0.07,13.76c-3.19,3.36-9.68,2.12-13.65,1.12
				c-1.32-0.33-2.62-0.72-3.93-1.09c0.34,2.06,0.83,3.55,0.97,3.94H293.26z"/>
			<path style="fill:#2F631C;" d="M287.71,67.92c-0.11-2.25,0.45-6.13,0.45-6.13s-0.49,0-1.17,0.01c-0.3,3.82-2.35,7.07-3.94,10.48
				c-0.34,0.73-0.61,1.28-0.98,1.75h3.62C285.68,74.04,287.82,70.17,287.71,67.92z"/>
		</g>
		<path style="fill:#435989;" d="M285.68,75.8h-8.15c-0.47,0-0.85-0.4-0.85-0.88l0,0c0-0.49,0.38-0.88,0.85-0.88h8.15
			c0.47,0,0.85,0.4,0.85,0.88l0,0C286.54,75.4,286.15,75.8,285.68,75.8z"/>
		<rect x="272.1" y="91.17" style="fill:#FFFFFF;" width="16.72" height="6.79"/>
		<rect x="273.72" y="92.35" style="fill:#4D4D4D;" width="13.4" height="0.88"/>
	</g>
	<g>
		<g>
			<path style="fill:#F69679;" d="M260.15,101.47c3.62-3.82,0.99-9.31,0.07-13.76c-0.31-1.51-0.43-2.99-0.58-4.53
				c-0.05-0.47-0.02-3.38-0.54-3.69c-0.88-0.53-2.61,0.49-3.48,0.64c-3.14,0.57-2.37-2.07-0.6-3.91c0.55-0.57,1.13-0.77,1.75-1.16
				c0.23-0.14,0.42-0.29,0.6-0.43h-3.6c-1.69,4.25-6.51,8.46-9.93,15.45c-1.92,3.93-1.76,8.31-1.26,11.4
				c1.31,0.37,2.61,0.76,3.93,1.09C250.47,103.59,256.96,104.83,260.15,101.47z"/>
			<path style="fill:#F69679;" d="M262.87,61.81c-1.08,0.03-2.63,0.11-3.35,0.35c-1.18,0.38,0.4,2.38-1.96,2.74
				c-2.36,0.37-1.43-2.67-2.72-3.37c-1.29-0.7-3.8-0.77-3.8-0.77s-1.59,2.62-0.9,6c0.69,3.38,3.29,7.28,3.29,7.28h4.53
				c0.37-0.47,0.64-1.02,0.98-1.75C260.52,68.87,262.57,65.63,262.87,61.81z"/>
			<path style="fill:#DE785C;" d="M269.15,105.43c-0.19-2.48-0.74-8.58-1.91-14.93c-1.52-8.25-6.38-15.87-6.38-15.87h-3.5
				c-0.18,0.15-0.37,0.29-0.6,0.43c-0.62,0.39-1.2,0.59-1.75,1.16c-1.77,1.84-2.54,4.49,0.6,3.91c0.87-0.16,2.6-1.17,3.48-0.64
				c0.51,0.31,0.49,3.21,0.54,3.69c0.15,1.54,0.27,3.02,0.58,4.53c0.92,4.45,3.55,9.94-0.07,13.76c-3.19,3.36-9.68,2.12-13.65,1.12
				c-1.32-0.33-2.62-0.72-3.93-1.09c0.34,2.06,0.83,3.55,0.97,3.94H269.15z"/>
			<path style="fill:#DE785C;" d="M263.59,67.92c-0.11-2.25,0.45-6.13,0.45-6.13s-0.49,0-1.17,0.01c-0.3,3.82-2.35,7.07-3.94,10.48
				c-0.34,0.73-0.61,1.28-0.98,1.75h3.62C261.57,74.04,263.7,70.17,263.59,67.92z"/>
		</g>
		<path style="fill:#FFC200;" d="M261.57,75.8h-8.15c-0.47,0-0.85-0.4-0.85-0.88l0,0c0-0.49,0.38-0.88,0.85-0.88h8.15
			c0.47,0,0.85,0.4,0.85,0.88l0,0C262.42,75.4,262.04,75.8,261.57,75.8z"/>
		<rect x="247.98" y="91.17" style="fill:#FFFFFF;" width="16.72" height="6.79"/>
		<rect x="249.6" y="92.35" style="fill:#4D4D4D;" width="13.4" height="0.88"/>
	</g>
	<g>
		<rect x="205.37" y="67.46" style="fill:#FFC200;" width="30.84" height="38.12"/>
		<rect x="205.37" y="67.46" style="fill:#F4A300;" width="9.66" height="38.12"/>
		<rect x="216.84" y="69.01" style="fill:#4D4D4D;" width="17.69" height="1.63"/>
		<rect x="216.84" y="80.59" style="fill:#4D4D4D;" width="17.69" height="1.63"/>
		<g>
			<path style="fill:#FFFFFF;" d="M221.29,90.96c0,0-4.38-2.35-4.48,0.24C216.73,93.35,219.61,92.44,221.29,90.96z"/>
			<path style="fill:#FFFFFF;" d="M221.09,91.23c0,0-4.52,2.03-2.64,3.74C220.01,96.39,221.14,93.51,221.09,91.23z"/>
			<path style="fill:#FFFFFF;" d="M221.02,91.19c0,0-4.43-2.23-2.48-3.86C220.16,85.99,221.17,88.91,221.02,91.19z"/>
			<path style="fill:#FFFFFF;" d="M220.63,90.96c0,0,4.38-2.35,4.48,0.24C225.19,93.35,222.32,92.44,220.63,90.96z"/>
			<path style="fill:#FFFFFF;" d="M220.84,91.23c0,0,4.52,2.03,2.64,3.74C221.92,96.39,220.79,93.51,220.84,91.23z"/>
			<path style="fill:#FFFFFF;" d="M220.9,91.19c0,0,4.43-2.23,2.48-3.86C221.77,85.99,220.76,88.91,220.9,91.19z"/>
			<ellipse style="fill:#FFE6A1;" cx="220.86" cy="91.14" rx="1.34" ry="1.39"/>
			<ellipse style="fill:#FFFFFF;" cx="220.63" cy="90.89" rx="0.6" ry="0.62"/>
		</g>
		<g>
			<path style="fill:#FFFFFF;" d="M228.48,88.97c0,0,0.51-0.67,0.78,0.16c0.03,0.09,0.06,0.18,0.08,0.28
				c0.33,1.34,0.31,3.85-1.01,3.93C226.38,93.45,227.16,90.64,228.48,88.97z"/>
			<path style="fill:#FFFFFF;" d="M229.03,89.2c0,0,0.66,2.9,1.59,3.28c1.03,0.43,1.68-0.36,1.63-1.29
				c-0.03-0.62-2.45-2.74-2.45-2.74L229.03,89.2z"/>
			<path style="fill:#FFFFFF;" d="M229.49,87.5c0,0-0.39,0.75,0.45,0.68c0.09-0.01,0.18-0.02,0.28-0.03
				c1.32-0.21,3.54-1.23,3.09-2.51C232.65,83.74,230.45,85.59,229.49,87.5z"/>
			<path style="fill:#FFFFFF;" d="M230.28,88c0,0,2.27-0.58,2.99,0.15c0.79,0.81,0.35,1.74-0.5,2.06c-0.57,0.21-2.81-1.13-2.81-1.13
				L230.28,88z"/>
			<g>
				<path style="fill:#FFE6A1;" d="M227.82,87.1c-0.7,0.81-0.39,1.65,0.55,2.51c1.9,0.18,1.99-2.01,1.99-2.01
					S228.79,85.98,227.82,87.1z"/>
			</g>
			<path style="fill:#FFFFFF;" d="M228.88,87.96c0.01,0.26-0.18,0.49-0.44,0.5c-0.26,0.02-0.47-0.19-0.49-0.45
				c-0.01-0.26,0.18-0.49,0.44-0.5C228.64,87.5,228.86,87.7,228.88,87.96z"/>
		</g>
		<g>
			<path style="fill:#FFFFFF;" d="M221.08,99.07c0,0,0.68,0.49-0.11,0.82c-0.08,0.03-0.17,0.07-0.26,0.1
				c-1.27,0.42-3.7,0.54-3.85-0.81C216.63,97.17,219.39,97.81,221.08,99.07z"/>
			<path style="fill:#FFFFFF;" d="M220.89,99.66c0,0-2.76,0.84-3.09,1.83c-0.35,1.09,0.44,1.71,1.34,1.61
				c0.6-0.07,2.51-2.68,2.51-2.68L220.89,99.66z"/>
			<path style="fill:#FFFFFF;" d="M222.56,100.04c0,0-0.74-0.36-0.63,0.5c0.01,0.09,0.03,0.19,0.05,0.29
				c0.28,1.35,1.39,3.58,2.6,3.05C226.38,103.07,224.46,100.91,222.56,100.04z"/>
			<path style="fill:#FFFFFF;" d="M222.12,100.87c0,0,0.69,2.31,0.02,3.09c-0.74,0.86-1.66,0.46-2.02-0.4
				c-0.24-0.57,0.93-2.96,0.93-2.96L222.12,100.87z"/>
			<g>
				<path style="fill:#FFE6A1;" d="M222.85,98.28c-0.82-0.68-1.62-0.31-2.4,0.71c-0.07,1.97,2.06,1.94,2.06,1.94
					S223.99,99.23,222.85,98.28z"/>
			</g>
			<path style="fill:#FFFFFF;" d="M222.08,99.42c-0.25,0.03-0.48-0.16-0.51-0.42c-0.03-0.26,0.15-0.5,0.41-0.53
				c0.25-0.03,0.48,0.16,0.51,0.42C222.52,99.16,222.33,99.39,222.08,99.42z"/>
		</g>
		<g>
			<path style="fill:#FFFFFF;" d="M230.47,99.23c0,0-4.38-2.35-4.48,0.24C225.91,101.61,228.79,100.7,230.47,99.23z"/>
			<path style="fill:#FFFFFF;" d="M230.27,99.5c0,0-4.52,2.03-2.64,3.74C229.19,104.65,230.32,101.78,230.27,99.5z"/>
			<path style="fill:#FFFFFF;" d="M230.2,99.45c0,0-4.43-2.23-2.48-3.86C229.34,94.25,230.35,97.17,230.2,99.45z"/>
			<path style="fill:#FFFFFF;" d="M229.81,99.23c0,0,4.38-2.35,4.48,0.24C234.37,101.61,231.5,100.7,229.81,99.23z"/>
			<path style="fill:#FFFFFF;" d="M230.02,99.5c0,0,4.52,2.03,2.64,3.74C231.1,104.65,229.97,101.78,230.02,99.5z"/>
			<path style="fill:#FFFFFF;" d="M230.08,99.45c0,0,4.43-2.23,2.48-3.86C230.95,94.25,229.94,97.17,230.08,99.45z"/>
			<path style="fill:#FFE6A1;" d="M231.38,99.41c0,0.77-0.6,1.39-1.34,1.39c-0.74,0-1.34-0.62-1.34-1.39c0-0.77,0.6-1.39,1.34-1.39
				C230.78,98.02,231.38,98.64,231.38,99.41z"/>
			<ellipse style="fill:#FFFFFF;" cx="229.81" cy="99.15" rx="0.6" ry="0.62"/>
		</g>
		<rect x="216.84" y="71.93" style="fill:#FFFFFF;" width="17.61" height="6.72"/>
	</g>
	<rect x="201.06" y="105.43" style="fill:#435989;" width="98.94" height="4.98"/>
</g>
<g>
	<g>
		<g>
			<path style="fill:#FF5855;" d="M281.26,146.95v7.96c0,0.08,0,0.16,0.01,0.24h9.7c0.01-0.08,0.01-0.16,0.01-0.24v-7.96
				c0-0.81-0.12-1.61-0.32-2.32h-9.03C281.39,145.38,281.26,146.2,281.26,146.95z"/>
			<path style="fill:#F44040;" d="M288.43,141.99h-4.63c-0.92,0-1.73,1.2-2.18,2.64h9.03C290.22,143.12,289.38,141.99,288.43,141.99
				z"/>
			<path style="fill:#F44040;" d="M283.8,157.54h4.63c1.32,0,2.41-1.05,2.53-2.39h-9.7C281.39,156.48,282.48,157.54,283.8,157.54z"
				/>
		</g>
		<path style="fill:#FFC200;" d="M287.14,132.25c0.16-1.13,1.88-4.57-1.02-4.57c-2.9,0-1.18,3.44-1.02,4.57
			c0.16,1.13-0.63,2.35-0.63,2.35h1.65h1.65C287.76,134.6,286.98,133.38,287.14,132.25z"/>
		<polygon style="fill:#26A587;" points="289.03,134.29 283.21,134.29 281.65,142.4 284.94,142.4 287.29,142.4 290.58,142.4 		"/>
		<rect x="282.83" y="147.01" style="fill:#FFFFFF;" width="6.58" height="5.42"/>
	</g>
	<g>
		<path style="fill:#E6E7E8;" d="M246.22,143.4v-2.72c0-2.78-1.05-4.4-2.34-4.4h-4.21c-1.28,0-2.34,1.73-2.34,4.4v2.72H246.22z"/>
		<path style="fill:#3BB295;" d="M237.34,141.44v13.31c0,1.33,1.05,2.41,2.34,2.41h4.21c1.28,0,2.34-1.08,2.34-2.41v-13.31H237.34z"
			/>
		<rect x="240.39" y="140.46" style="fill:#1F9374;" width="5.84" height="12.36"/>
		<g>
			<rect x="236.68" y="134" style="fill:#4D4D4D;" width="10.19" height="2.72"/>
			<rect x="238.17" y="134" style="fill:#ABAFB2;" width="1.31" height="2.72"/>
			<rect x="241.14" y="134" style="fill:#ABAFB2;" width="1.31" height="2.72"/>
			<rect x="244.1" y="134" style="fill:#ABAFB2;" width="1.31" height="2.72"/>
		</g>
		<rect x="241.42" y="141.48" style="fill:#4D4D4D;" width="4.8" height="1.01"/>
	</g>
	<g>
		<path style="fill:#E6E7E8;" d="M233.63,143.4v-2.72c0-2.78-1.05-4.4-2.34-4.4h-4.21c-1.28,0-2.34,1.73-2.34,4.4v2.72H233.63z"/>
		<path style="fill:#FFC200;" d="M224.74,141.44v13.31c0,1.33,1.05,2.41,2.34,2.41h4.21c1.28,0,2.34-1.08,2.34-2.41v-13.31H224.74z"
			/>
		<rect x="227.79" y="140.46" style="fill:#F4A300;" width="5.84" height="12.36"/>
		<g>
			<rect x="224.09" y="134" style="fill:#4D4D4D;" width="10.19" height="2.72"/>
			<rect x="225.58" y="134" style="fill:#ABAFB2;" width="1.31" height="2.72"/>
			<rect x="228.54" y="134" style="fill:#ABAFB2;" width="1.31" height="2.72"/>
			<rect x="231.51" y="134" style="fill:#ABAFB2;" width="1.31" height="2.72"/>
		</g>
		<rect x="228.82" y="141.48" style="fill:#4D4D4D;" width="4.8" height="1.01"/>
	</g>
	<g>
		<path style="fill:#FFC200;" d="M278.15,145.11c-2.94-2.6-11.49-2.29-13.19-2.26c-1.7-0.04-10.25-0.35-13.19,2.26
			c-2.51,2.22-1.51,5.84,2.38,8.37c4.14,2.69,9.49,3.04,10.8,3.09c1.31-0.04,6.67-0.39,10.8-3.09
			C279.66,150.95,280.66,147.33,278.15,145.11z"/>
		<rect x="259.33" y="155.69" style="fill:#4D4D4D;" width="11.27" height="1.48"/>
		<rect x="256.38" y="139.64" style="fill:#4D4D4D;" width="17.16" height="3.69"/>
		<ellipse style="fill:#FFFFFF;" cx="264.96" cy="148.04" rx="6.16" ry="2.79"/>
		<rect x="256.38" y="139.64" style="fill:#ABAFB2;" width="17.16" height="1.09"/>
		<rect x="261.29" y="146.67" style="fill:#4D4D4D;" width="7.34" height="0.87"/>
		<rect x="261.29" y="148.79" style="fill:#4D4D4D;" width="7.34" height="0.87"/>
	</g>
	<rect x="221.04" y="157.16" style="fill:#435989;" width="78.96" height="4.98"/>
</g>
<g>
	<g>
		<g>
			<rect x="213.65" y="18.27" style="fill:#E6E7E8;" width="6.99" height="7.35"/>
			<g>
				<polygon style="fill:#FFC200;" points="221.39,8.16 218.37,8.16 215.92,8.16 212.91,8.16 213.66,15.3 220.63,15.3 				"/>
				<polygon style="fill:#F4A300;" points="215.92,17.93 218.37,17.93 217.15,17.67 				"/>
				<polygon style="fill:#FFC200;" points="220.46,16.97 220.63,15.3 213.66,15.3 213.84,16.97 215.92,17.41 215.92,17.93 
					217.15,17.67 218.37,17.93 218.37,17.41 				"/>
			</g>
			<path style="fill:#F4A300;" d="M220.44,18.89h-6.59c-0.52,0-0.95-0.43-0.95-0.95v-0.03c0-0.52,0.43-0.95,0.95-0.95h6.59
				c0.52,0,0.95,0.43,0.95,0.95v0.03C221.39,18.47,220.96,18.89,220.44,18.89z"/>
			<path style="fill:#E6E7E8;" d="M220.86,48.3h-7.42c-1.03,0-1.87-0.84-1.87-1.87v-19.1c0-1.03,0.84-1.87,1.87-1.87h7.42
				c1.03,0,1.87,0.84,1.87,1.87v19.1C222.73,47.46,221.89,48.3,220.86,48.3z"/>
			<path style="fill:#FFE18D;" d="M214.73,45.86c0,0.61-0.48,1.1-1.06,1.1c-0.59,0-1.06-0.49-1.06-1.1c0-0.61,0.48-1.1,1.06-1.1
				C214.25,44.77,214.73,45.26,214.73,45.86z"/>
			<ellipse style="fill:#FFE18D;" cx="213.65" cy="39.85" rx="1.06" ry="1.1"/>
			<ellipse style="fill:#FFE18D;" cx="216.67" cy="45.92" rx="1.06" ry="1.1"/>
			<path style="fill:#FFE18D;" d="M218.37,42.16c0,0.61-0.48,1.1-1.06,1.1c-0.59,0-1.06-0.49-1.06-1.1c0-0.61,0.48-1.1,1.06-1.1
				C217.9,41.06,218.37,41.55,218.37,42.16z"/>
			<path style="fill:#FFE18D;" d="M218.37,28.33c0,0.61-0.48,1.1-1.06,1.1c-0.59,0-1.06-0.49-1.06-1.1c0-0.61,0.48-1.1,1.06-1.1
				C217.9,27.23,218.37,27.72,218.37,28.33z"/>
			<ellipse style="fill:#FFE18D;" cx="213.66" cy="28.33" rx="1.06" ry="1.1"/>
			<path style="fill:#FFE18D;" d="M214.71,32c0,0.61-0.48,1.1-1.06,1.1c-0.59,0-1.06-0.49-1.06-1.1c0-0.61,0.48-1.1,1.06-1.1
				C214.24,30.9,214.71,31.39,214.71,32z"/>
			<path style="fill:#FFE18D;" d="M221.71,35.96c0,0.61-0.48,1.1-1.06,1.1c-0.59,0-1.06-0.49-1.06-1.1c0-0.61,0.48-1.1,1.06-1.1
				C221.23,34.87,221.71,35.36,221.71,35.96z"/>
			<path style="fill:#FFE18D;" d="M221.09,39.11c0,0.61-0.48,1.1-1.06,1.1c-0.59,0-1.06-0.49-1.06-1.1s0.48-1.1,1.06-1.1
				C220.61,38.01,221.09,38.5,221.09,39.11z"/>
			<path style="fill:#FFE18D;" d="M221.39,46.23c0,0.61-0.48,1.1-1.06,1.1c-0.59,0-1.06-0.49-1.06-1.1c0-0.61,0.48-1.1,1.06-1.1
				C220.91,45.14,221.39,45.63,221.39,46.23z"/>
			<polygon style="fill:#FFE18D;" points="215.88,43.34 213.26,44.22 212.6,42.13 215.22,41.25 			"/>
			<polygon style="fill:#FFE18D;" points="218.31,38.97 215.69,39.85 215.03,37.77 217.65,36.89 			"/>
			<polygon style="fill:#FFE18D;" points="219.62,44.24 218.97,41.47 221.03,40.95 221.69,43.71 			"/>
			<polygon style="fill:#FFE18D;" points="219.93,29.97 219.27,27.2 221.33,26.68 221.99,29.45 			"/>
			<polygon style="fill:#FFFFFF;" points="216.61,35.26 215.95,32.49 218.01,31.97 218.67,34.73 			"/>
			<polygon style="fill:#FFE18D;" points="211.94,36.18 213.9,34.18 215.39,35.75 213.42,37.74 			"/>
			<rect x="213.65" y="28.62" style="fill:#FFC200;" width="9.08" height="7.02"/>
			<rect x="214.61" y="29.51" style="fill:#4D4D4D;" width="7.42" height="0.88"/>
			<rect x="213.65" y="24.34" style="fill:#F4A300;" width="6.98" height="1.13"/>
		</g>
		<g>
			<rect x="228.15" y="28.01" style="fill:#E6E7E8;" width="6.99" height="4.25"/>
			<g>
				<polygon style="fill:#FFC200;" points="235.89,17.64 232.87,17.64 230.42,17.64 227.41,17.64 228.16,24.78 235.13,24.78 				"/>
				<polygon style="fill:#FFC200;" points="234.96,26.45 235.13,24.78 228.16,24.78 228.34,26.45 230.42,26.89 230.42,27.41 
					231.65,27.15 232.87,27.41 232.87,26.89 				"/>
			</g>
			<path style="fill:#F4A300;" d="M234.96,28.37h-6.62c-0.51,0-0.93-0.43-0.93-0.96l0,0c0-0.53,0.42-0.96,0.93-0.96h6.62
				c0.51,0,0.93,0.43,0.93,0.96l0,0C235.89,27.94,235.47,28.37,234.96,28.37z"/>
			<path style="fill:#E6E7E8;" d="M237.23,42.5v-9.01c0-0.76-0.6-1.38-1.34-1.38h-8.48c-0.74,0-1.34,0.62-1.34,1.38v9.01H237.23z"/>
			<path style="fill:#E6E7E8;" d="M226.07,41.71v5.21c0,0.76,0.6,1.38,1.34,1.38h8.48c0.74,0,1.34-0.62,1.34-1.38v-5.21H226.07z"/>
			<path style="fill:#FFE18D;" d="M229.21,46.49c0,0.61-0.48,1.1-1.06,1.1c-0.59,0-1.06-0.49-1.06-1.1c0-0.61,0.48-1.1,1.06-1.1
				C228.74,45.4,229.21,45.89,229.21,46.49z"/>
			<path style="fill:#FFE18D;" d="M232.87,34.96c0,0.61-0.48,1.1-1.06,1.1c-0.59,0-1.06-0.49-1.06-1.1c0-0.61,0.48-1.1,1.06-1.1
				C232.4,33.87,232.87,34.36,232.87,34.96z"/>
			<path style="fill:#FFE18D;" d="M229.23,34.96c0,0.61-0.48,1.1-1.06,1.1c-0.59,0-1.06-0.49-1.06-1.1c0-0.61,0.48-1.1,1.06-1.1
				C228.75,33.87,229.23,34.36,229.23,34.96z"/>
			<ellipse style="fill:#FFFFFF;" cx="228.15" cy="38.63" rx="1.06" ry="1.1"/>
			<path style="fill:#FFE18D;" d="M236.21,42.6c0,0.61-0.48,1.1-1.06,1.1c-0.59,0-1.06-0.49-1.06-1.1c0-0.61,0.48-1.1,1.06-1.1
				C235.73,41.5,236.21,41.99,236.21,42.6z"/>
			<path style="fill:#FFE18D;" d="M235.59,45.74c0,0.61-0.48,1.1-1.06,1.1c-0.59,0-1.06-0.49-1.06-1.1s0.48-1.1,1.06-1.1
				C235.12,44.65,235.59,45.14,235.59,45.74z"/>
			<polygon style="fill:#FFE18D;" points="232.81,45.61 230.19,46.49 229.53,44.41 232.15,43.53 			"/>
			<polygon style="fill:#FFE18D;" points="234.43,36.61 233.77,33.84 235.83,33.32 236.49,36.08 			"/>
			<polygon style="fill:#FFFFFF;" points="231.11,41.9 230.45,39.13 232.51,38.61 233.17,41.37 			"/>
			<polygon style="fill:#FFE18D;" points="226.44,42.81 228.4,40.82 229.89,42.39 227.92,44.38 			"/>
			<rect x="226.07" y="35.26" style="fill:#FFC200;" width="9.08" height="7.02"/>
			<rect x="227.02" y="36.15" style="fill:#4D4D4D;" width="7.42" height="0.88"/>
			<rect x="228.15" y="30.98" style="fill:#F4A300;" width="6.98" height="1.13"/>
		</g>
		<g>
			<path style="fill:#E6E7E8;" d="M208.28,25.03h-0.87h-0.83h-0.87c-0.52,0-0.94,0.44-0.94,0.97v21.34c0,0.53,0.42,0.97,0.94,0.97
				h0.87h0.83h0.87c0.52,0,0.94-0.44,0.94-0.97V25.99C209.22,25.46,208.8,25.03,208.28,25.03z"/>
			<path style="fill:#F4A300;" d="M209.08,26.49h-4.17c-0.47,0-0.85-0.39-0.85-0.88l0,0c0-0.48,0.38-0.88,0.85-0.88h4.17
				c0.47,0,0.85,0.39,0.85,0.88l0,0C209.93,26.1,209.55,26.49,209.08,26.49z"/>
			<path style="fill:#FFE18D;" d="M207.61,46.49c0,0.61-0.48,1.1-1.06,1.1c-0.59,0-1.06-0.49-1.06-1.1c0-0.61,0.48-1.1,1.06-1.1
				C207.13,45.4,207.61,45.89,207.61,46.49z"/>
			<path style="fill:#FFE18D;" d="M208.67,43.7c0,0.61-0.48,1.1-1.06,1.1c-0.59,0-1.06-0.49-1.06-1.1s0.48-1.1,1.06-1.1
				C208.19,42.6,208.67,43.09,208.67,43.7z"/>
			<path style="fill:#FFE18D;" d="M207.61,38.01c0,0.61-0.48,1.1-1.06,1.1c-0.59,0-1.06-0.49-1.06-1.1s0.48-1.1,1.06-1.1
				C207.13,36.91,207.61,37.4,207.61,38.01z"/>
			<path style="fill:#FFE18D;" d="M208.67,31.23c0,0.61-0.48,1.1-1.06,1.1c-0.59,0-1.06-0.49-1.06-1.1c0-0.61,0.48-1.1,1.06-1.1
				C208.19,30.13,208.67,30.62,208.67,31.23z"/>
			<path style="fill:#FFE18D;" d="M207.61,28.23c0,0.61-0.48,1.1-1.06,1.1c-0.59,0-1.06-0.49-1.06-1.1c0-0.61,0.48-1.1,1.06-1.1
				C207.13,27.13,207.61,27.63,207.61,28.23z"/>
			<polygon style="fill:#FFE18D;" points="208.63,41.55 206.01,42.43 205.35,40.35 207.98,39.47 			"/>
			<polygon style="fill:#FFE18D;" points="207.35,36.62 205.26,34.78 206.63,33.11 208.73,34.95 			"/>
			<rect x="204.91" y="18.89" style="fill:#FFC200;" width="4.31" height="5.85"/>
			<rect x="204.91" y="23.26" style="fill:#FFC200;" width="4.31" height="1.49"/>
		</g>
	</g>
	<g>
		<g>
			<g>
				<rect x="249.11" y="2.92" style="fill:#F44040;" width="33.18" height="45.57"/>
			</g>
			<g>
				<rect x="242.12" y="2.92" style="fill:#FF5855;" width="6.99" height="45.57"/>
			</g>
			<g>
				<g>
					<rect x="242.12" y="5.31" style="fill:#FFE18D;" width="6.99" height="1.2"/>
				</g>
				<g>
					<rect x="242.12" y="8.25" style="fill:#FFE18D;" width="6.99" height="1.2"/>
				</g>
				<g>
					<rect x="242.12" y="11.3" style="fill:#FFE18D;" width="6.99" height="1.2"/>
				</g>
			</g>
			<g>
				<g>
					<rect x="242.12" y="39.12" style="fill:#FFE18D;" width="6.99" height="1.2"/>
				</g>
				<g>
					<rect x="242.12" y="42.06" style="fill:#FFE18D;" width="6.99" height="1.2"/>
				</g>
				<g>
					<rect x="242.12" y="45.11" style="fill:#FFE18D;" width="6.99" height="1.2"/>
				</g>
			</g>
			<g>
				<rect x="251.07" y="4.72" style="fill:#FFE18D;" width="29.46" height="41.59"/>
			</g>
			<g>
				<g>
					<rect x="252.93" y="6.51" style="fill:#FFFFFF;" width="25.63" height="1.74"/>
				</g>
				<g>
					<rect x="252.93" y="41.88" style="fill:#FFFFFF;" width="25.63" height="1.57"/>
				</g>
				<g>
					<rect x="252.98" y="38.94" style="fill:#FFFFFF;" width="25.63" height="1.57"/>
				</g>
			</g>
			<g>
				<g>
					<g>
						<g>
							<path style="fill:#FFFFFF;" d="M274.38,33.98c-1.67-2.53-4.75-7.71-5.81-9.5c-0.21-0.36-0.36-0.81-0.36-1.37
								c0-2.3,0-8.81,0-8.81h-2.18h-2.15c0,0,0,6.86,0,9.15c0,0.3-0.07,0.51-0.2,0.72c-0.83,1.41-4.21,7.11-5.99,9.81
								c-0.78,1.17,0.32,2.52,1.27,2.52h7.08h7.08C274.06,36.49,275.16,35.15,274.38,33.98z"/>
						</g>
						<g>
							<path style="fill:#FFFFFF;" d="M263.56,14.51h2.52h2.52c0.37,0,0.66-0.31,0.66-0.69c0-0.38-0.3-0.69-0.66-0.69h-2.52h-2.52
								c-0.37,0-0.66,0.31-0.66,0.69C262.9,14.2,263.2,14.51,263.56,14.51z"/>
						</g>
					</g>
					<g>
						<path style="fill:#DC4437;" d="M273.23,33.76c-1.71-2.58-5.37-8.88-5.37-8.88h-1.81h-1.81c0,0-3.64,6.23-5.35,8.81
							c-0.65,0.98-0.1,1.77,0.69,1.77h6.47h6.56C273.4,35.46,273.88,34.75,273.23,33.76z"/>
					</g>
				</g>
				<g>
					<path style="fill:#FBCB43;" d="M267.75,24.71c-0.14-0.25-0.21-0.36-0.26-0.67c-0.08-0.47-0.03-0.86-0.03-1.56
						c0-2.05,0-7.97,0-7.97h-1.27h-0.31h-1.27c0,0,0,5.93,0,7.97c0,0.7,0.05,1.08-0.03,1.56c-0.05,0.3-0.12,0.42-0.26,0.67
						c-0.11,0.2-0.53,0.91-0.67,1.15h2.23h0.31h2.23C268.28,25.61,267.86,24.9,267.75,24.71z"/>
				</g>
				<g>
					<g>
						<path style="fill:#FFFFFF;" d="M266.04,15.95c0,0.32-0.25,0.58-0.57,0.58l0,0c-0.31,0-0.57-0.26-0.57-0.58l0,0
							c0-0.32,0.25-0.58,0.57-0.58l0,0C265.79,15.36,266.04,15.63,266.04,15.95L266.04,15.95z"/>
					</g>
				</g>
				<g>
					<g>
						<path style="fill:#FFFFFF;" d="M270.19,10.83c0,0.61-0.48,1.1-1.07,1.1l0,0c-0.59,0-1.07-0.49-1.07-1.1l0,0
							c0-0.61,0.48-1.1,1.07-1.1l0,0C269.71,9.73,270.19,10.22,270.19,10.83L270.19,10.83z"/>
					</g>
				</g>
				<g>
					<g>
						<path style="fill:#FFFFFF;" d="M262.73,11.15c0,0.53-0.41,0.95-0.92,0.95l0,0c-0.51,0-0.92-0.43-0.92-0.95l0,0
							c0-0.53,0.41-0.95,0.92-0.95l0,0C262.32,10.2,262.73,10.63,262.73,11.15L262.73,11.15z"/>
					</g>
				</g>
				<g>
					<g>
						<path style="fill:#FFFFFF;" d="M275.63,13.14c0,0.53-0.41,0.95-0.92,0.95l0,0c-0.51,0-0.92-0.43-0.92-0.95l0,0
							c0-0.53,0.41-0.95,0.92-0.95l0,0C275.21,12.18,275.63,12.61,275.63,13.14L275.63,13.14z"/>
					</g>
				</g>
				<g>
					<g>
						<path style="fill:#FFFFFF;" d="M272.07,16.53c0,0.52-0.4,0.93-0.9,0.93l0,0c-0.5,0-0.9-0.42-0.9-0.93l0,0
							c0-0.52,0.4-0.93,0.9-0.93l0,0C271.67,15.6,272.07,16.02,272.07,16.53L272.07,16.53z"/>
					</g>
				</g>
			</g>
		</g>
		<g>
			<g>
				<g>
					<path style="fill:#5674A8;" d="M263.77,2.92c0-1.61,1.15-2.34,2.31-2.66c-0.69-0.15-1.55-0.24-2.64-0.24c0,0-4.6-0.31-4.6,2.91
						c0,1.74,2.88,1.57,5.54,1.04C264,3.74,263.77,3.4,263.77,2.92z"/>
				</g>
			</g>
			<g>
				<rect x="262.69" y="2.92" style="fill:#F4A300;" width="33.18" height="45.57"/>
			</g>
			<g>
				<rect x="255.69" y="2.92" style="fill:#FFC200;" width="6.99" height="45.57"/>
			</g>
			<g>
				<g>
					<rect x="255.69" y="5.31" style="fill:#26A587;" width="6.99" height="1.2"/>
				</g>
				<g>
					<rect x="255.69" y="8.25" style="fill:#26A587;" width="6.99" height="1.2"/>
				</g>
				<g>
					<rect x="255.69" y="11.3" style="fill:#26A587;" width="6.99" height="1.2"/>
				</g>
			</g>
			<g>
				<g>
					<rect x="255.69" y="39.12" style="fill:#26A587;" width="6.99" height="1.2"/>
				</g>
				<g>
					<rect x="255.69" y="42.06" style="fill:#26A587;" width="6.99" height="1.2"/>
				</g>
				<g>
					<rect x="255.69" y="45.11" style="fill:#26A587;" width="6.99" height="1.2"/>
				</g>
			</g>
			<g>
				<rect x="264.65" y="4.72" style="fill:#FFE18D;" width="29.46" height="41.59"/>
			</g>
			<g>
				<g>
					<rect x="266.51" y="6.51" style="fill:#F4A300;" width="25.63" height="1.74"/>
				</g>
				<g>
					<rect x="266.51" y="41.88" style="fill:#F4A300;" width="25.63" height="1.57"/>
				</g>
			</g>
			<g>
				<path style="fill:#435989;" d="M268.81,0.01c-1.26,0-5.04,0-5.04,0c4.38,0,4.16,2.91,4.16,2.91v15.26h4.93V2.92
					C272.86,2.92,272.58,0.01,268.81,0.01z"/>
			</g>
		</g>
		<g>
			<g>
				<path style="fill:#4DC5AC;" d="M274.73,17.38c0,0-1.54,4.52-0.58,8.22c0.96,3.7,4.44,6.63,4.44,6.63L274.73,17.38z"/>
				<path style="fill:#26A587;" d="M274.73,17.38c0,0,3.52,3.12,4.48,6.82c0.96,3.7-0.62,8.03-0.62,8.03L274.73,17.38z"/>
			</g>
			<g>
				<path style="fill:#4DC5AC;" d="M266.74,21.14c0,0,0.86,4.71,3.48,7.41s7.05,3.46,7.05,3.46L266.74,21.14z"/>
				<path style="fill:#26A587;" d="M266.74,21.14c0,0,4.56,0.88,7.18,3.59c2.62,2.71,3.35,7.28,3.35,7.28L266.74,21.14z"/>
			</g>
			<g>
				<path style="fill:#4DC5AC;" d="M283.23,17.38c0,0,1.54,4.52,0.58,8.22s-4.44,6.63-4.44,6.63L283.23,17.38z"/>
				<path style="fill:#26A587;" d="M283.23,17.38c0,0-3.52,3.12-4.48,6.82c-0.96,3.7,0.62,8.03,0.62,8.03L283.23,17.38z"/>
			</g>
			<g>
				<path style="fill:#4DC5AC;" d="M291.01,21.14c0,0-0.86,4.71-3.48,7.41c-2.62,2.71-7.05,3.46-7.05,3.46L291.01,21.14z"/>
				<path style="fill:#26A587;" d="M291.01,21.14c0,0-4.56,0.88-7.18,3.59c-2.62,2.71-3.35,7.28-3.35,7.28L291.01,21.14z"/>
			</g>
			<g>
				<g>
					<path style="fill:#FFC200;" d="M266.11,26.03c0,0,2.01,4.32,5.22,6.23c3.21,1.91,7.68,1.46,7.68,1.46L266.11,26.03z"/>
					<path style="fill:#F4A300;" d="M266.11,26.03c0,0,4.63-0.36,7.84,1.55c3.21,1.91,5.06,6.14,5.06,6.14L266.11,26.03z"/>
				</g>
				<g>
					<path style="fill:#FFC200;" d="M271.47,20.38c0,0-0.35,4.78,1.5,8.09s5.95,5.22,5.95,5.22L271.47,20.38z"/>
					<path style="fill:#F4A300;" d="M271.47,20.38c0,0,4.18,2.07,6.04,5.39s1.41,7.93,1.41,7.93L271.47,20.38z"/>
				</g>
				<g>
					<path style="fill:#F4A300;" d="M286.34,20.38c0,0,0.35,4.78-1.5,8.09c-1.85,3.31-5.95,5.22-5.95,5.22L286.34,20.38z"/>
					<path style="fill:#FFC200;" d="M286.34,20.38c0,0-4.18,2.07-6.04,5.39c-1.85,3.31-1.41,7.93-1.41,7.93L286.34,20.38z"/>
				</g>
				<g>
					<path style="fill:#F4A300;" d="M291.7,26.03c0,0-2.01,4.32-5.22,6.23c-3.21,1.91-7.68,1.46-7.68,1.46L291.7,26.03z"/>
					<path style="fill:#FFC200;" d="M291.7,26.03c0,0-4.63-0.36-7.84,1.55c-3.21,1.91-5.06,6.14-5.06,6.14L291.7,26.03z"/>
				</g>
				<g>
					<path style="fill:#FFC200;" d="M278.92,18.42c0,0-2.62,3.96-2.62,7.78s2.62,7.59,2.62,7.59V18.42z"/>
					<path style="fill:#F4A300;" d="M278.92,18.42c0,0,2.62,3.96,2.62,7.78s-2.62,7.59-2.62,7.59V18.42z"/>
				</g>
			</g>
		</g>
	</g>
	<rect x="201.06" y="48.4" style="fill:#435989;" width="98.94" height="4.98"/>
</g>
<g>
	<g>
		<g>
			<path style="fill:#E6E7E8;" d="M64.44,46.18H52.8c-0.97,0-1.76-0.79-1.76-1.76V26.24c0-0.97,0.79-1.76,1.76-1.76h11.64
				c0.97,0,1.76,0.79,1.76,1.76v18.18C66.2,45.39,65.41,46.18,64.44,46.18z"/>
			<path style="fill:#ABAFB2;" d="M65.12,20.9H52.13c-0.37,0-0.66-0.31-0.66-0.69l0,0c0-0.38,0.3-0.69,0.66-0.69h12.99
				c0.37,0,0.66,0.31,0.66,0.69l0,0C65.78,20.59,65.48,20.9,65.12,20.9z"/>
			<rect x="52.89" y="20.9" style="fill:#E6E7E8;" width="11.46" height="3.58"/>
			<rect x="52.89" y="21.64" style="fill:#ABAFB2;" width="11.46" height="0.7"/>
			<rect x="52.89" y="23.14" style="fill:#ABAFB2;" width="11.46" height="0.7"/>
			<g>
				<path style="fill:#ABAFB2;" d="M63.1,13.9h-8.96c-1.5,0-2.72,1.27-2.72,2.81h14.4C65.82,15.17,64.6,13.9,63.1,13.9z"/>
				<path style="fill:#E6E7E8;" d="M54.14,19.52h8.96c1.5,0,2.72-1.27,2.72-2.81h-14.4C51.42,18.26,52.64,19.52,54.14,19.52z"/>
			</g>
			<path style="fill:#3BB295;" d="M52.35,33.8v10.31c0,0.39,0.31,0.71,0.69,0.71h11.17c0.38,0,0.69-0.32,0.69-0.71V33.8H52.35z"/>
			<path style="fill:#26A587;" d="M53.24,40.52c0,0-0.19,2.06,0.47,2.82c0.66,0.76,2.47,0.46,2.47,0.46L53.24,40.52z"/>
			<path style="fill:#26A587;" d="M62.4,43.76c0,0,1.62-1.21,1.73-2.23c0.11-1.02-1.31-2.21-1.31-2.21L62.4,43.76z"/>
			<path style="fill:#26A587;" d="M53.49,39.57c0,0,1.62-1.21,1.73-2.23c0.11-1.02-1.31-2.21-1.31-2.21L53.49,39.57z"/>
			<path style="fill:#26A587;" d="M57.91,34.07c0,0-0.13,2.06,0.56,2.8c0.69,0.74,2.49,0.38,2.49,0.38L57.91,34.07z"/>
			<path style="fill:#26A587;" d="M55.62,38.14c0,0-0.54,1.98-0.12,3.33c0.42,1.35,1.75,0.94,1.75,0.94s-1.18-1.24-0.92-2.27
				C56.58,39.11,55.62,38.14,55.62,38.14z"/>
			<path style="fill:#26A587;" d="M57.9,43.76c0,0,1.99,0.1,3.17-0.62c1.18-0.72,0.5-1.97,0.5-1.97s-0.91,1.47-1.94,1.44
				C58.6,42.58,57.9,43.76,57.9,43.76z"/>
			<path style="fill:#26A587;" d="M57.71,37.98c0,0-0.22-2.05-1.1-3.13c-0.88-1.09-1.96-0.19-1.96-0.19s1.55,0.7,1.68,1.75
				C56.47,37.46,57.71,37.98,57.71,37.98z"/>
			<path style="fill:#26A587;" d="M62.36,37.23c0,0-1.83,0.82-2.58,2c-0.75,1.19,0.4,1.99,0.4,1.99s0.19-1.73,1.12-2.18
				C62.24,38.61,62.36,37.23,62.36,37.23z"/>
			<path style="fill:#26A587;" d="M57,38.4c0,0,0.57,0.79,0.48,2.35c-0.08,1.37,2.06,1.06,2.06,1.06s-1.04-1.19-1.06-2.23
				C58.45,38.14,57,38.4,57,38.4z"/>
			<path style="fill:#26A587;" d="M60.27,34.87c0,0,0.93,0.21,1.85,1.45c0.81,1.09,2.23-0.59,2.23-0.59s-1.54-0.2-2.22-0.97
				C61.21,33.69,60.27,34.87,60.27,34.87z"/>
			<rect x="52.9" y="26.83" style="fill:#3BB295;" width="11.45" height="5.31"/>
			<rect x="53.77" y="27.99" style="fill:#4D4D4D;" width="9.5" height="0.81"/>
		</g>
		<g>
			<g>
				<path style="fill:#E6E7E8;" d="M45.82,46.18H34.18c-0.97,0-1.76-0.79-1.76-1.76V26.24c0-0.97,0.79-1.76,1.76-1.76h11.64
					c0.97,0,1.76,0.79,1.76,1.76v18.18C47.58,45.39,46.79,46.18,45.82,46.18z"/>
				<path style="fill:#ABAFB2;" d="M46.5,20.9H33.51c-0.37,0-0.66-0.31-0.66-0.69l0,0c0-0.38,0.3-0.69,0.66-0.69H46.5
					c0.37,0,0.66,0.31,0.66,0.69l0,0C47.16,20.59,46.86,20.9,46.5,20.9z"/>
				<rect x="34.27" y="20.9" style="fill:#E6E7E8;" width="11.46" height="3.58"/>
				<rect x="34.27" y="21.64" style="fill:#ABAFB2;" width="11.46" height="0.7"/>
				<rect x="34.27" y="23.14" style="fill:#ABAFB2;" width="11.46" height="0.7"/>
				<g>
					<path style="fill:#ABAFB2;" d="M44.48,13.9h-8.96c-1.5,0-2.72,1.27-2.72,2.81h14.4C47.2,15.17,45.98,13.9,44.48,13.9z"/>
					<path style="fill:#E6E7E8;" d="M35.52,19.52h8.96c1.5,0,2.72-1.27,2.72-2.81H32.8C32.8,18.26,34.03,19.52,35.52,19.52z"/>
				</g>
				<path style="fill:#FFC200;" d="M33.73,33.8v10.31c0,0.39,0.31,0.71,0.69,0.71h11.17c0.38,0,0.69-0.32,0.69-0.71V33.8H33.73z"/>
				<path style="fill:#F4A300;" d="M43.78,43.76c0,0,1.62-1.21,1.73-2.23c0.11-1.02-1.31-2.21-1.31-2.21L43.78,43.76z"/>
				<path style="fill:#F4A300;" d="M34.87,39.57c0,0,1.62-1.21,1.73-2.23c0.11-1.02-1.31-2.21-1.31-2.21L34.87,39.57z"/>
				<path style="fill:#F4A300;" d="M39.29,34.07c0,0-0.13,2.06,0.56,2.8c0.69,0.74,2.49,0.38,2.49,0.38L39.29,34.07z"/>
				<path style="fill:#F4A300;" d="M37,38.14c0,0-0.54,1.98-0.12,3.33c0.42,1.35,1.75,0.94,1.75,0.94s-1.18-1.24-0.92-2.27
					C37.96,39.11,37,38.14,37,38.14z"/>
				<path style="fill:#F4A300;" d="M43.74,37.23c0,0-1.83,0.82-2.58,2c-0.75,1.19,0.4,1.99,0.4,1.99s0.19-1.73,1.12-2.18
					C43.62,38.61,43.74,37.23,43.74,37.23z"/>
				<rect x="34.28" y="26.83" style="fill:#FFC200;" width="11.45" height="5.31"/>
				<rect x="35.15" y="27.99" style="fill:#4D4D4D;" width="9.5" height="0.81"/>
			</g>
			<path style="fill:#F4A300;" d="M35.88,40.85c0,0.41-0.32,0.75-0.72,0.75c-0.4,0-0.73-0.34-0.73-0.75c0-0.41,0.32-0.75,0.73-0.75
				C35.55,40.1,35.88,40.44,35.88,40.85z"/>
			<path style="fill:#F4A300;" d="M38.62,35.71c0,0.41-0.32,0.75-0.72,0.75c-0.4,0-0.72-0.34-0.72-0.75s0.32-0.75,0.72-0.75
				C38.3,34.96,38.62,35.29,38.62,35.71z"/>
			<path style="fill:#F4A300;" d="M39.9,38.14c0,0.41-0.32,0.75-0.72,0.75c-0.4,0-0.73-0.34-0.73-0.75c0-0.41,0.32-0.75,0.73-0.75
				C39.58,37.39,39.9,37.73,39.9,38.14z"/>
			<path style="fill:#F4A300;" d="M43.05,35.12c0,0.41-0.32,0.75-0.73,0.75c-0.4,0-0.72-0.34-0.72-0.75c0-0.41,0.32-0.75,0.72-0.75
				C42.73,34.37,43.05,34.71,43.05,35.12z"/>
			<path style="fill:#F4A300;" d="M45.38,35.71c0,0.41-0.32,0.75-0.73,0.75c-0.4,0-0.72-0.34-0.72-0.75s0.32-0.75,0.72-0.75
				C45.05,34.96,45.38,35.29,45.38,35.71z"/>
			<path style="fill:#F4A300;" d="M43.38,42.47c0,0.41-0.32,0.75-0.73,0.75c-0.4,0-0.72-0.34-0.72-0.75c0-0.41,0.32-0.75,0.72-0.75
				C43.05,41.72,43.38,42.05,43.38,42.47z"/>
			<path style="fill:#F4A300;" d="M40.07,40.52c0,0.41-0.32,0.75-0.72,0.75c-0.4,0-0.73-0.34-0.73-0.75s0.32-0.75,0.73-0.75
				C39.75,39.77,40.07,40.1,40.07,40.52z"/>
			<ellipse style="fill:#F4A300;" cx="36.45" cy="43.21" rx="0.73" ry="0.75"/>
			<path style="fill:#F4A300;" d="M40.63,43.21c0,0.41-0.32,0.75-0.72,0.75c-0.4,0-0.72-0.34-0.72-0.75s0.32-0.75,0.72-0.75
				C40.3,42.47,40.63,42.8,40.63,43.21z"/>
		</g>
		<g>
			<g>
				<path style="fill:#E6E7E8;" d="M83.05,46.18H71.42c-0.97,0-1.76-0.79-1.76-1.76V26.24c0-0.97,0.79-1.76,1.76-1.76h11.64
					c0.97,0,1.76,0.79,1.76,1.76v18.18C84.82,45.39,84.02,46.18,83.05,46.18z"/>
				<path style="fill:#ABAFB2;" d="M83.73,20.9H70.74c-0.37,0-0.66-0.31-0.66-0.69l0,0c0-0.38,0.3-0.69,0.66-0.69h12.99
					c0.37,0,0.66,0.31,0.66,0.69l0,0C84.39,20.59,84.1,20.9,83.73,20.9z"/>
				<rect x="71.51" y="20.9" style="fill:#E6E7E8;" width="11.46" height="3.58"/>
				<rect x="71.51" y="21.64" style="fill:#ABAFB2;" width="11.46" height="0.7"/>
				<rect x="71.51" y="23.14" style="fill:#ABAFB2;" width="11.46" height="0.7"/>
				<g>
					<path style="fill:#ABAFB2;" d="M81.71,13.9h-8.96c-1.5,0-2.72,1.27-2.72,2.81h14.4C84.44,15.17,83.21,13.9,81.71,13.9z"/>
					<path style="fill:#E6E7E8;" d="M72.76,19.52h8.96c1.5,0,2.72-1.27,2.72-2.81h-14.4C70.03,18.26,71.26,19.52,72.76,19.52z"/>
				</g>
				<path style="fill:#FF7676;" d="M70.96,33.8v10.31c0,0.39,0.31,0.71,0.69,0.71h11.17c0.38,0,0.69-0.32,0.69-0.71V33.8H70.96z"/>
				<rect x="71.51" y="26.83" style="fill:#FF7676;" width="11.45" height="5.31"/>
				<rect x="72.39" y="27.99" style="fill:#4D4D4D;" width="9.5" height="0.81"/>
			</g>
			<polygon style="fill:#FF5855;" points="75.62,38.12 74.82,38.66 72.39,34.8 73.19,34.26 			"/>
			<polygon style="fill:#FF5855;" points="72.77,44.29 71.96,43.77 74.31,39.86 75.13,40.38 			"/>
			<polygon style="fill:#FF5855;" points="79.58,41.23 78.68,40.91 80.11,36.55 81.02,36.87 			"/>
			<polygon style="fill:#FF5855;" points="79.28,43.85 78.7,43.05 82.29,40.3 82.86,41.1 			"/>
			<polygon style="fill:#FF5855;" points="82.98,38.13 82.09,38.5 80.78,35.06 81.67,34.7 			"/>
			<path style="fill:#FF5855;" d="M79.41,36.3c0,0-1.31-1.55-2.63-1.93c-1.32-0.38-1.72,0.99-1.72,0.99s1.66-0.34,2.35,0.45
				C78.1,36.6,79.41,36.3,79.41,36.3z"/>
			<path style="fill:#FF5855;" d="M78.66,40.21c0,0-0.22-2.05-1.1-3.13c-0.88-1.09-1.96-0.19-1.96-0.19s1.55,0.7,1.68,1.75
				C77.42,39.69,78.66,40.21,78.66,40.21z"/>
			<path style="fill:#FF5855;" d="M72.99,36.6c0,0-1.26,1.59-1.4,3c-0.14,1.41,1.24,1.58,1.24,1.58s-0.6-1.63,0.03-2.46
				C73.5,37.88,72.99,36.6,72.99,36.6z"/>
			<path style="fill:#FF5855;" d="M74.56,44.1c0,0,1.81-0.87,2.52-2.08c0.71-1.21-0.45-1.98-0.45-1.98s-0.14,1.74-1.06,2.21
				C74.64,42.72,74.56,44.1,74.56,44.1z"/>
		</g>
		<g>
			<g>
				<path style="fill:#E6E7E8;" d="M27.33,46.18H15.69c-0.97,0-1.76-0.79-1.76-1.76V26.24c0-0.97,0.79-1.76,1.76-1.76h11.64
					c0.97,0,1.76,0.79,1.76,1.76v18.18C29.09,45.39,28.3,46.18,27.33,46.18z"/>
				<path style="fill:#ABAFB2;" d="M28,20.9H15.01c-0.37,0-0.66-0.31-0.66-0.69l0,0c0-0.38,0.3-0.69,0.66-0.69H28
					c0.37,0,0.66,0.31,0.66,0.69l0,0C28.67,20.59,28.37,20.9,28,20.9z"/>
				<rect x="15.78" y="20.9" style="fill:#E6E7E8;" width="11.46" height="3.58"/>
				<rect x="15.78" y="21.64" style="fill:#ABAFB2;" width="11.46" height="0.7"/>
				<rect x="15.78" y="23.14" style="fill:#ABAFB2;" width="11.46" height="0.7"/>
				<g>
					<path style="fill:#ABAFB2;" d="M25.99,13.9h-8.96c-1.5,0-2.72,1.27-2.72,2.81h14.4C28.71,15.17,27.49,13.9,25.99,13.9z"/>
					<path style="fill:#E6E7E8;" d="M17.03,19.52h8.96c1.5,0,2.72-1.27,2.72-2.81h-14.4C14.31,18.26,15.53,19.52,17.03,19.52z"/>
				</g>
				<path style="fill:#FF7676;" d="M15.24,33.8v10.31c0,0.39,0.31,0.71,0.69,0.71H27.1c0.38,0,0.69-0.32,0.69-0.71V33.8H15.24z"/>
				<rect x="15.78" y="26.83" style="fill:#FF7676;" width="11.45" height="5.31"/>
				<rect x="16.66" y="27.99" style="fill:#4D4D4D;" width="9.5" height="0.81"/>
			</g>
			<polygon style="fill:#FF5855;" points="19.9,38.12 19.09,38.66 16.66,34.8 17.46,34.26 			"/>
			<polygon style="fill:#FF5855;" points="17.05,44.29 16.23,43.77 18.59,39.86 19.4,40.38 			"/>
			<polygon style="fill:#FF5855;" points="23.86,41.23 22.95,40.91 24.39,36.55 25.29,36.87 			"/>
			<polygon style="fill:#FF5855;" points="23.55,43.85 22.98,43.05 26.56,40.3 27.13,41.1 			"/>
			<polygon style="fill:#FF5855;" points="27.26,38.13 26.37,38.5 25.06,35.06 25.95,34.7 			"/>
			<path style="fill:#FF5855;" d="M23.68,36.3c0,0-1.31-1.55-2.63-1.93c-1.32-0.38-1.72,0.99-1.72,0.99s1.66-0.34,2.35,0.45
				C22.37,36.6,23.68,36.3,23.68,36.3z"/>
			<path style="fill:#FF5855;" d="M22.94,40.21c0,0-0.22-2.05-1.1-3.13c-0.88-1.09-1.96-0.19-1.96-0.19s1.55,0.7,1.68,1.75
				C21.7,39.69,22.94,40.21,22.94,40.21z"/>
			<path style="fill:#FF5855;" d="M17.27,36.6c0,0-1.26,1.59-1.4,3c-0.14,1.41,1.24,1.58,1.24,1.58s-0.6-1.63,0.03-2.46
				C17.77,37.88,17.27,36.6,17.27,36.6z"/>
			<path style="fill:#FF5855;" d="M18.84,44.1c0,0,1.81-0.87,2.52-2.08c0.71-1.21-0.45-1.98-0.45-1.98s-0.14,1.74-1.06,2.21
				C18.92,42.72,18.84,44.1,18.84,44.1z"/>
		</g>
	</g>
	<rect y="46.3" style="fill:#435989;" width="98.94" height="4.98"/>
</g>
</svg>
