<?xml version="1.0" encoding="utf-8"?>
<!-- Generator: Adobe Illustrator 25.1.0, SVG Export Plug-In . SVG Version: 6.00 Build 0)  -->
<svg version="1.1" id="Layer_1" xmlns="http://www.w3.org/2000/svg" xmlns:xlink="http://www.w3.org/1999/xlink" x="0px" y="0px"
	 viewBox="0 0 300 265" style="enable-background:new 0 0 300 265;" xml:space="preserve">
<g>
	<path style="fill:#FFC0BB;" d="M156.48,38.54l-0.12-6.04l-9.1,1.73l-0.49,4.07C147.39,38.91,151.07,42.11,156.48,38.54z"/>
	<path style="fill:#FC8D84;" d="M156.48,37.8l-0.12-5.3l-9.22,2.71l-0.25,1.97C148.86,37.92,152.8,38.78,156.48,37.8z"/>
	<path style="fill:#F99893;" d="M162.63,21.52c-0.49,1.48,0.12,3.08,1.47,3.45c1.35,0.37,2.83-0.49,3.32-2.1
		c0.49-1.48-0.12-3.08-1.47-3.45C164.72,19.05,163.12,20.04,162.63,21.52z"/>
	<path style="fill:#FFC0BB;" d="M162.87,30.15c0.37-0.62,0.61-1.36,0.86-2.1c0.61-1.97,0.86-3.95,0.86-5.8c0-0.37,0-0.74,0.12-1.11
		c0.12-1.48,0-3.08-0.49-4.69c-1.72-5.18-7.01-8.76-12.91-8.76c-7.99,0-14.01,6.29-13.4,13.32c-0.86-0.37-1.84-0.37-2.58,0
		c-1.47,0.74-1.97,2.84-0.86,4.56c0.98,1.73,3.07,2.59,4.67,1.85c0.25-0.12,0.37-0.25,0.61-0.37c1.23,5.92,7.01,10.24,13.4,9.62
		c3.2-0.25,5.9-1.6,7.87-3.7c0.12-0.12,0.25-0.25,0.37-0.37C162.01,31.75,162.51,31.01,162.87,30.15z"/>
	<path style="fill:#333333;" d="M150.95,21.27c0.12,0.62-0.37,1.11-1.11,1.23c-0.61,0-1.23-0.37-1.23-0.99
		c-0.12-0.62,0.37-1.11,1.11-1.23C150.34,20.28,150.83,20.78,150.95,21.27z"/>
	<path style="fill:#333333;" d="M160.17,20.9c0.12,0.62-0.37,1.11-1.11,1.23c-0.61,0-1.23-0.37-1.23-0.99
		c-0.12-0.62,0.37-1.11,1.11-1.23C159.56,19.91,160.05,20.28,160.17,20.9z"/>
	<path style="fill:#333333;" d="M152.18,19.05c-0.61-0.12-1.11-0.25-1.72-0.37c-0.61-0.12-1.11-0.12-1.6,0
		c-0.49,0.12-1.11,0.25-1.6,0.37l-0.25,0.12c-0.12,0-0.12,0.12-0.25,0.12l-0.37,0.25c-0.25,0.12-0.49,0.25-0.74,0.37
		c0.12-0.25,0.37-0.49,0.49-0.74c0.25-0.25,0.37-0.49,0.74-0.62c0.49-0.37,1.11-0.62,1.84-0.62c0.61-0.12,1.35,0,1.97,0.12
		C151.2,18.31,151.69,18.68,152.18,19.05z"/>
	<path style="fill:#333333;" d="M155.99,18.68c0.37-0.49,0.86-0.86,1.47-1.11c0.61-0.25,1.23-0.37,1.84-0.37
		c0.61,0,1.35,0.25,1.84,0.49c0.25,0.12,0.49,0.37,0.74,0.49c0.25,0.25,0.37,0.49,0.61,0.62c-0.25-0.12-0.49-0.25-0.86-0.37
		l-0.37-0.12c-0.12,0-0.12,0-0.25-0.12h-0.25c-0.49-0.25-1.11-0.25-1.6-0.25c-0.49,0-1.11,0-1.6,0.12
		C157.1,18.31,156.48,18.56,155.99,18.68z"/>
	<path style="fill:#FFFFFF;" d="M158.82,28.05c-0.37,1.36-2.09,2.34-4.18,2.22c-2.09,0-3.69-1.11-4.06-2.34L158.82,28.05z"/>
	<polygon style="fill:#1E1E1E;" points="122.31,113.89 114.45,263.11 131.04,264.72 159.8,111.55 	"/>
	<path style="fill:#FFFFFF;" d="M143.33,41c0,0-1.84,77.82-1.35,77.82c0.61,0,16.35,2.84,16.35,2.84l4.92-6.41l-0.86-71.53
		L154.27,41l-2.83-0.74h-3.69L143.33,41z"/>
	<polygon style="fill:#282828;" points="157.22,101.68 152.18,44.09 150.58,44.09 145.67,101.68 151.44,107.97 	"/>
	<path style="fill:#424444;" d="M149.72,43.72l0.37,0.37c0.74,0.62,1.84,0.62,2.58,0l0.74-0.49l-1.84-2.84L150.21,41L149.72,43.72z"
		/>
	<path style="fill:#F7B5B2;" d="M224.57,6.23c0,0.25,0.37,0.37,0.49,0.12c1.35-1.36,5.9-5.55,6.27-5.18
		c0.49,0.37-3.32,4.07-3.07,4.56c0.25,0.49,3.93-3.33,4.42-2.96c0.49,0.37-2.95,3.82-2.83,4.07c0.12,0.25,3.81-2.59,4.3-2.59
		c0.49,0.12-3.07,3.58-3.07,3.95c0.12,0.37,3.44-1.36,3.56-1.11c0.12,0.25,0.37,0.37-6.02,6.17l-2.58,2.22l-3.07,0.74l-2.21-2.96
		c0,0,1.84-10.61,2.21-10.73C223.47,2.28,223.71,2.53,224.57,6.23z"/>
	<path style="fill:#E8EFF9;" d="M156.48,38.17c0,0-2.58,1.48-4.92,1.97c-2.34-0.62-4.92-1.97-4.92-1.97l-3.32,2.71
		c0.49,2.59,5.78,4.44,5.78,4.44l2.34-4.44l1.84,4.44c0,0,4.06-1.11,6.51-3.45L156.48,38.17z"/>
	<g>
		<path style="fill:#282828;" d="M227.89,16.21c0,0-1.97-4.81-8.73-5.3c0,0-13.15,32.06-60.72,29.35
			c0.25,10.98,1.6,61.54,2.46,77.08c8.36-0.86,15.61-1.85,15.61-1.85s-3.81-42.67-1.11-54.26C175.29,61.23,217.08,61.6,227.89,16.21
			z"/>
		<path style="fill:#282828;" d="M144.07,40.39c-6.15,1.36-44.12,10.11-51.62,23.43c-8.11,14.68,13.4,42.05,22.49,43.53
			c0,0,3.69-3.33,5.53-11.72c0,0-9.34-9.87-10.57-22.94c0,0,9.46-4.07,13.64-5.3l-3.44,53.77c0,0,9.96,3.95,18.8,4.69
			c1.47,0.12,3.44,0.12,5.65,0L144.07,40.39z"/>
	</g>
	<polygon style="fill:#424444;" points="144.07,40.39 131.16,51.36 137.55,55.68 131.16,62.46 144.07,118.7 	"/>
	<polygon style="fill:#424444;" points="158.6,48.53 170.92,59.1 164.76,63.26 170.92,69.79 160.97,122.77 	"/>
	<path style="fill:#F3FDFF;" d="M273.33,212.89c0,3.68-3.1,6.66-6.91,6.66s-6.91-2.97-6.91-6.66c0-3.68,3.1-6.66,6.91-6.66
		S273.33,209.35,273.33,212.89z"/>
	<rect x="130.82" y="100.75" style="fill:#FF5B7E;" width="71.37" height="163.69"/>
	<polygon style="fill:#E03268;" points="111.24,264.43 130.82,264.43 130.82,100.75 111.24,111.93 	"/>
	<polygon style="fill:#CE205F;" points="116.9,114.62 122.4,114.62 122.4,111.93 119.72,111.51 	"/>
	<path style="fill:#54A9D4;" d="M183.44,85.88h-2.12v-8.35c0.83-0.42,1.18-1.56,0.83-2.55l-2.12-4.96
		c-0.35,0.42-0.83,0.85-1.42,1.13c-0.59,0.28-1.18,0.42-1.77,0.57l2.12,4.96c0.24,0.57,0.83,0.99,1.3,1.13v8.07h-14.98v-9.35
		c1.18-0.71,1.77-2.41,1.18-3.82l-2.95-7.22c-0.59,0.71-1.3,1.27-2.12,1.7c-0.83,0.42-1.65,0.71-2.48,0.71l2.95,7.22
		c0.47,1.13,1.42,1.7,2.36,1.7v9.06h-12.62v-3.82c0.71-0.42,0.94-1.27,0.59-2.12l-1.65-3.96c-0.35,0.42-0.71,0.71-1.18,0.99
		c-0.47,0.28-0.94,0.42-1.42,0.42l1.65,3.96c0.12,0.42,0.47,0.71,0.83,0.85v3.82h-2.83c-2.95,0-5.19,2.69-5.19,5.95l28.43-0.99
		l17.46,0.99C188.63,88.57,186.27,85.88,183.44,85.88z"/>
	<rect x="130.82" y="89.98" style="fill:#E03268;" width="76.33" height="10.76"/>
	<polygon style="fill:#CE205F;" points="106.64,114.62 130.82,100.75 130.82,89.98 106.64,104.57 	"/>
	<path style="fill:#FEB546;" d="M165.5,56.43c1.77,4.39,0.12,9.63-3.66,11.61c-3.89,2.12-8.49,0.14-10.26-4.25
		s-0.12-9.63,3.66-11.61C159.13,50.2,163.74,52.18,165.5,56.43z"/>
	<path style="fill:#FEB546;" d="M151.82,71.01c0.94,2.41,0.12,5.24-2.01,6.37s-4.6,0.14-5.66-2.27c-0.94-2.41-0.12-5.24,2.01-6.37
		C148.28,67.47,150.76,68.6,151.82,71.01z"/>
	<path style="fill:#FEB546;" d="M181.31,63.65c1.3,2.97,0.12,6.66-2.6,8.07s-5.9,0.14-7.08-2.97c-1.3-2.97-0.12-6.66,2.6-8.07
		C176.95,59.26,180.13,60.67,181.31,63.65z"/>
	<polygon style="fill:#FFC0BB;" points="66.73,260.31 66.73,256.61 62.34,255.48 61.35,255.9 61.21,260.31 62.48,264.15 	"/>
	<path style="fill:#04B2A1;" d="M62.77,141.62c0,0-5.81,6.54-19.41,7.68s-3.4,7.96-3.4,7.96s16.43,2.27,22.1-1.42
		C67.87,152.14,62.77,141.62,62.77,141.62z"/>
	<polygon style="fill:#1E1E1E;" points="57.1,185.26 60.22,257.61 67.58,257.61 73.96,203.03 65.6,178.43 	"/>
	<polygon style="fill:#FFC0BB;" points="94.6,259.76 94.6,256.08 90.23,254.95 89.24,255.37 89.1,259.76 90.51,263.58 	"/>
	<path style="fill:#282828;" d="M36.7,137.92L2.14,145.6c-1.42,0.28-2.27,1.56-1.84,2.84l11.9,47.76c0.28,1.28,1.7,2.13,2.97,1.85
		l34.57-7.68c1.42-0.28,2.27-1.56,1.84-2.84l-11.9-47.76C39.39,138.49,37.98,137.64,36.7,137.92z"/>
	<polygon style="fill:#FFFFFF;" points="36.84,140.62 3.13,148.16 14.32,192.93 47.89,185.4 	"/>
	<path style="fill:#4D5296;" d="M11.91,147.45l18.27-4.12v-0.14c-0.71-2.84-3.68-4.55-6.66-3.98l-7.51,1.71
		c-2.97,0.71-4.82,3.55-4.11,6.4V147.45z"/>
	<polygon style="fill:#CFE4FF;" points="19.98,151.14 35,147.73 34.72,146.59 19.7,149.86 	"/>
	<polygon style="fill:#CFE4FF;" points="21.12,155.69 36.13,152.42 35.85,151.14 20.83,154.41 	"/>
	<polygon style="fill:#CFE4FF;" points="22.25,160.24 37.27,156.97 36.98,155.69 21.97,159.1 	"/>
	<polygon style="fill:#CFE4FF;" points="23.38,164.93 38.4,161.52 38.12,160.24 23.1,163.65 	"/>
	<polygon style="fill:#CFE4FF;" points="24.66,169.48 39.53,166.07 39.25,164.93 24.23,168.2 	"/>
	<polygon style="fill:#CFE4FF;" points="25.79,174.03 40.67,170.76 40.38,169.48 25.37,172.75 	"/>
	<polygon style="fill:#CFE4FF;" points="26.93,178.58 41.8,175.31 41.52,174.03 26.5,177.44 	"/>
	<polygon style="fill:#CFE4FF;" points="28.06,183.27 42.93,179.86 42.65,178.58 27.63,181.99 	"/>
	<polygon style="fill:#CFE4FF;" points="10.21,161.66 18.57,159.81 16.3,150.57 7.94,152.56 	"/>
	<polygon style="fill:#CFE4FF;" points="13.19,173.74 21.68,171.9 19.42,162.66 10.92,164.65 	"/>
	<polygon style="fill:#CFE4FF;" points="16.16,185.83 24.66,183.98 22.39,174.74 13.89,176.73 	"/>
	<path style="fill:#FFC0BB;" d="M37.83,166.07c0.14,0.14,0.14,0.28-0.14,0.28c-1.27,0.28-5.38,1.42-5.24,1.71
		c0,0.43,3.68-0.43,3.82-0.14c0.28,0.28-3.4,1-3.26,1.42c0.14,0.43,3.26-0.43,3.4-0.28c0.14,0.14-2.83,1.28-2.97,1.56
		c-0.14,0.28,3.26-0.57,3.4-0.28c0.14,0.14-1.98,1.42-1.84,1.56c0.14,0.14,0.14,0.28,5.81-1.28l2.27-0.71l1.42-1.42l-1.13-2.27
		c0,0-7.08-2.56-7.37-2.42C35.85,164.22,35.85,164.5,37.83,166.07z"/>
	<path style="fill:#282828;" d="M60.22,185.54l28.47,72.07l6.94-0.57c0,0-8.64-66.1-13.88-72.35c-5.24-6.25-16.57-4.98-16.57-4.98
		L60.22,185.54z"/>
	<path style="fill:#07085B;" d="M76.08,129.25c0,0,1.56-7.53-2.97-10.09c-4.39-2.56-8.92-2.13-12.04-0.43
		c-3.12,1.71-4.67,7.68-3.12,10.95l10.2-3.55L76.08,129.25z"/>
	<path style="fill:#FFC0BB;" d="M63.48,141.62c0,0,3.54,1.99,6.23,0l0,0L69,136.79l-5.52-1.14V141.62L63.48,141.62z"/>
	<path style="fill:#FC8D84;" d="M63.48,138.92l0.14-3.13l5.52,1.56l0.14,1.14C68.01,138.92,65.74,139.49,63.48,138.92z"/>
	<path style="fill:#F99893;" d="M59.79,129.11c0.28,0.85-0.14,1.85-0.85,2.13c-0.85,0.28-1.7-0.28-1.98-1.28
		c-0.28-0.85,0.14-1.85,0.85-2.13C58.66,127.69,59.51,128.26,59.79,129.11z"/>
	<path style="fill:#FFC0BB;" d="M59.65,134.37c-0.14-0.43-0.42-0.85-0.57-1.28c-0.42-1.14-0.42-2.42-0.57-3.41c0-0.28,0-0.43,0-0.71
		c-0.14-0.85,0-1.85,0.28-2.84c0.99-3.13,4.25-5.26,7.65-5.26c4.82,0,8.36,3.7,7.93,7.96c0.57-0.28,1.13-0.28,1.56,0
		c0.85,0.43,1.13,1.71,0.57,2.7c-0.57,0.99-1.84,1.56-2.83,1.14c-0.14,0-0.28-0.14-0.28-0.28c-0.71,3.55-4.11,6.11-8.07,5.83
		c-1.84-0.14-3.54-1-4.67-2.27c-0.14-0.14-0.14-0.14-0.28-0.28C60.22,135.22,59.93,134.8,59.65,134.37z"/>
	<path style="fill:#333333;" d="M66.87,128.97c0,0.28,0.28,0.71,0.57,0.71c0.42,0,0.71-0.28,0.71-0.57c0-0.28-0.28-0.71-0.57-0.71
		C67.16,128.4,66.87,128.68,66.87,128.97z"/>
	<path style="fill:#333333;" d="M61.35,128.83c0,0.28,0.28,0.71,0.57,0.71c0.42,0,0.71-0.28,0.71-0.57s-0.28-0.71-0.57-0.71
		C61.63,128.12,61.35,128.4,61.35,128.83z"/>
	<path style="fill:#07085B;" d="M66.17,127.69c0.42-0.14,0.71-0.14,0.99-0.28c0.28,0,0.71,0,0.99,0c0.28,0,0.57,0.14,0.99,0.28h0.14
		h0.14l0.28,0.14c0.14,0.14,0.28,0.14,0.42,0.28c-0.14-0.14-0.14-0.28-0.28-0.43c-0.14-0.14-0.28-0.28-0.42-0.43
		c-0.28-0.28-0.71-0.28-1.13-0.43c-0.42,0-0.85,0-1.13,0.14C66.73,127.26,66.31,127.4,66.17,127.69z"/>
	<path style="fill:#07085B;" d="M63.76,127.4c-0.28-0.28-0.57-0.43-0.85-0.71c-0.28-0.14-0.71-0.28-1.13-0.14
		c-0.42,0-0.85,0.14-1.13,0.28c-0.14,0.14-0.28,0.14-0.42,0.28c-0.14,0.14-0.28,0.28-0.28,0.43c0.14,0,0.28-0.14,0.42-0.28
		l0.28-0.14h0.14h0.14c0.28-0.14,0.57-0.14,0.99-0.14c0.28,0,0.71,0,0.99,0.14C63.19,127.26,63.48,127.4,63.76,127.4z"/>
	<path style="fill:#F99893;" d="M64.89,127.4c0.14,0.43,0.14,0.85,0.14,1.42c0,0.28,0,0.43-0.14,0.71
		c-0.14,0.28-0.14,0.43-0.42,0.71l-0.14,0.14h-0.14c0,0-0.14,0-0.14,0.14l-0.14,0.14c0,0.14,0,0.28,0.14,0.43
		c0.28,0.28,0.71,0.57,1.13,0.71c-0.42,0-0.99-0.14-1.42-0.43c-0.14-0.14-0.28-0.43-0.28-0.85c0-0.14,0-0.14,0.14-0.14l0.14-0.14
		l0.14-0.14l0,0l0,0c0.14-0.14,0.28-0.28,0.28-0.57c0.14-0.14,0.14-0.43,0.14-0.57C64.75,128.4,64.75,127.97,64.89,127.4z"/>
	<path style="fill:#FFFFFF;" d="M62.77,132.81c0.28,0.85,1.27,1.42,2.55,1.42s2.27-0.57,2.41-1.42H62.77z"/>
	<path style="fill:#07085B;" d="M74.38,129.11c0.42-0.43,0.85-0.43,0.85-0.43l-0.28-2.42l-0.85-1.42c0,0-3.26-3.7-3.4-3.84
		c-0.14-0.14-2.55-1.28-2.69-1.28c-0.14,0-3.4,0.57-3.4,0.57s-5.81-0.85-4.67,1.99c1.13,2.84,5.38,4.12,5.52,3.98
		c-0.71-0.57-0.85-2.42-0.85-2.42C67.72,126.69,73.53,128.68,74.38,129.11z"/>
	<path style="fill:#02CCC0;" d="M42.23,163.65c2.83,0.57,9.35,0.28,14.31,0c0-3.84,0.14-7.53,0.57-10.09
		c1.27-9.1,5.67-11.94,5.67-11.94c4.39,0.57,7.51-1.71,7.51-1.71c5.95,0,9.35,3.13,9.35,3.13c9.07,7.39,2.27,22.6,2.27,22.6
		l2.55,20.04c-5.67,1.85-28.62,0.71-28.62,0.71s1.13-6.4,0.99-12.94c-7.22-0.43-14.45-1.42-14.45-1.42
		C41.94,170.47,42.23,163.65,42.23,163.65z"/>
	<path style="fill:#CAF0FF;" d="M72.54,150.15c0,2.99-1.42,5.97-3.54,7.96c-1.13,0.99-2.41,1.85-3.68,2.56
		c-1.42,0.71-2.83,1.28-4.39,1.71c-0.14,0-0.42,0.14-0.57,0.14l-0.57,0.14c-0.42,0.14-0.71,0.14-1.13,0.28l-1.13,0.14l-0.57,0.14
		l-0.57,0.14c-0.71,0.14-1.56,0.28-2.27,0.28l-1.13,0.14c-0.42,0-0.85,0-1.13,0c-3.12,0.14-6.23,0.14-9.49,0
		c3.12,0.43,6.37,0.57,9.49,0.57c3.12-0.14,6.37-0.43,9.49-1.28c1.56-0.43,2.97-0.99,4.39-1.71c1.42-0.71,2.69-1.71,3.82-2.84
		c0.57-0.57,0.99-1.14,1.42-1.85s0.85-1.28,1.13-1.99c0.28-0.71,0.42-1.42,0.57-2.13C72.68,151.71,72.68,150.86,72.54,150.15z"/>
	<path style="fill:#CAF0FF;" d="M42.23,172.04c3.4,0.71,6.94,1.28,10.48,1.56c3.54,0.28,7.08,0.43,10.62,0.14s7.08-0.71,10.48-1.85
		c1.7-0.57,3.26-1.42,4.67-2.42s2.69-2.27,3.4-3.84c-0.85,1.42-2.12,2.7-3.54,3.55c-1.42,1-2.97,1.71-4.67,2.13
		c-1.7,0.57-3.4,0.85-5.1,1.14c-1.7,0.28-3.4,0.43-5.24,0.57c-3.54,0.28-7.08,0.14-10.48,0c-1.7-0.14-3.54-0.28-5.24-0.43
		C45.77,172.46,43.93,172.32,42.23,172.04z"/>
	<path style="fill:#333333;" d="M141.98,3.88c0,0,4.3-3.08,13.4-1.73c9.1,1.23,10.45,6.04,10.45,12.83l-0.74,5.55
		c0,0-2.7-0.12-5.16-7.03c0,0-5.65,5.18-7.74,4.44c-2.21-0.86,1.23-4.69,1.23-4.69s-9.22,8.39-15.36,7.89c0,0-4.3-10.98,0.61-14.43
		c0,0-3.44-0.12-3.56-0.74c-0.12-0.62,1.72-1.48,5.04-0.86c0,0-1.97-4.69-0.61-5.06C140.75-0.56,141.98,3.88,141.98,3.88z"/>
	<path style="fill:#F99893;" d="M155.75,20.28c0.37,0.49,0.74,1.11,0.98,1.73c0.25,0.62,0.61,1.23,0.74,1.85
		c0.12,0.37,0.25,0.62,0.25,0.99c0,0.12,0,0.12,0,0.25v0.12c0,0,0,0.12-0.12,0.12c0,0,0,0-0.12,0.12l0,0c0,0-0.12,0-0.12,0.12
		c-0.12,0-0.12,0.12-0.25,0.12c-0.25,0.12-0.61,0.37-0.98,0.49c-0.37,0.12-0.61,0.25-0.98,0.25c0.61-0.25,1.23-0.62,1.72-0.99
		c0.12,0,0.12-0.12,0.12-0.12l0.12-0.12l0,0l0,0c0-0.12,0-0.25,0-0.37c0-0.25-0.12-0.62-0.25-0.86c-0.25-0.62-0.49-1.23-0.61-1.85
		C156.24,21.52,155.99,20.9,155.75,20.28z"/>
	<path style="fill:#FEB546;" d="M167.86,188.11L167.86,188.11c-8.61,0-15.69-7.93-15.69-17.7v-69.38h31.26v69.38
		C183.55,180.04,176.48,188.11,167.86,188.11z"/>
	<rect x="93.31" y="242.34" style="fill:#E03268;" width="138.73" height="22.23"/>
	<rect x="93.31" y="242.34" style="fill:#C4205B;" width="37.4" height="22.23"/>
	<path style="fill:#07085B;" d="M281.37,135.15c0,0,3.1-2.83-0.42-5.95c0,0,2.12-3.82-2.26-4.96c0,0-0.71-6.37-6.91-4.53
		c0,0-4.8-4.67-8.75-1.56c0,0-4.23-1.27-5.93,3.4c0,0-4.52,1.56-2.68,6.8c0,0-3.81,3.68-0.85,8.21c0,0-0.99,5.95,5.93,5.52
		c0.42,1.56,2.96,2.12,4.52,1.7c0,0,2.26,2.27,6.07,0c0.42,0.42,3.1,2.27,4.66,0.57c0,0,5.22,0.99,4.66-3.4
		C279.4,141.1,282.78,138.98,281.37,135.15z"/>
	<polygon style="fill:#FFC0BB;" points="254.42,203.55 255.27,260.04 256.82,264.15 261.33,260.04 265.71,202.13 	"/>
	<path style="fill:#FFC0BB;" d="M281.51,205.53h-11.43c0,0,5.36,54.23,5.36,54.52c0,0.28,1.98,2.83,1.98,2.83l4.09-2.83V205.53z"/>
	<polygon style="fill:#FFC0BB;" points="254.42,203.55 255.27,260.04 256.82,264.15 261.33,260.04 265.71,202.13 	"/>
	<path style="fill:#FFC0BB;" d="M281.51,205.53h-11.43c0,0,5.36,54.23,5.36,54.52c0,0.28,1.98,2.83,1.98,2.83l4.09-2.83V205.53z"/>
	<path style="fill:#282828;" d="M251.6,251.41c3.25,1.27,8.33,2.41,13.83,1.27l0.99-45.03l0.71-7.93c0.56,0.42,0.99,0.71,0.99,0.71
		l2.82,51.54c0,0,6.21,2.12,13.69,0.85c0-3.12-1.98-50.41-1.98-52.53c-0.14-15.86-5.36-18.12-5.36-18.12l-8.75-2.12l-1.98,0.28
		c-3.1-0.99-8.61-1.98-10.87,1.56c-3.25,5.1-3.1,21.1-3.1,21.1S251.6,249.28,251.6,251.41z"/>
	<path style="fill:#FFC0BB;" d="M258.51,165.88l-8.18-3.68l0.71,8.35c0,0-15.66-6.8-16.37-7.36c-0.28-0.28-0.56-0.85-0.85-1.56
		s-0.56-1.56-0.71-2.27c-0.28-1.13-1.27-2.12-1.69-2.41c-0.14-0.14-0.56-0.85-0.71-1.27c-0.14-0.28-0.42-0.28-0.42,0l-0.14,0.57
		c-0.14,0.57,0.14,0.99,0.28,1.27l-0.28-0.14l-0.42,3.54l0.42,3.12l2.4,1.7c0,0,21.73,14.87,23.71,12.89
		C258.65,176.64,258.51,165.88,258.51,165.88z"/>
	<path style="fill:#224887;" d="M256.68,148.46c0,0-1.69,0.42-4.09,3.26s-4.66,10.76-4.66,10.76l7.76,4.11l5.08-9.63L256.68,148.46z
		"/>
	<path style="opacity:0.5;fill:#F3FDFF;enable-background:new    ;" d="M278.83,194.2c-0.85,0.28-1.69,0.57-2.4,0.99
		c-0.85,0.28-1.55,0.71-2.4,0.99c-0.85,0.42-1.55,0.71-2.4,1.13c-0.71,0.42-1.55,0.71-2.26,1.13v-0.14
		c0.56-0.14,1.13-0.14,1.69-0.28c0.56,0,1.13-0.14,1.69-0.14c0.56,0,1.13,0,1.69,0.14h0.42l0.42,0.14h0.28h0.28l0.42,0.14
		l-0.42-0.14h-0.28h-0.28h-0.42h-0.42c-0.14,0-0.28,0-0.42,0c-0.14,0-0.28,0-0.42,0h-0.42c-0.14,0-0.28,0-0.42,0
		c-0.56,0-1.13,0-1.69,0.14c-0.56,0-1.13,0.14-1.69,0.28l-0.56,0.14l0.42-0.28c0.71-0.42,1.55-0.85,2.26-1.13
		c0.85-0.42,1.55-0.71,2.4-1.13c0.85-0.28,1.55-0.71,2.4-0.99c0.42-0.14,0.85-0.28,1.27-0.42
		C277.99,194.48,278.41,194.34,278.83,194.2z"/>
	<path style="opacity:0.5;fill:#F3FDFF;enable-background:new    ;" d="M255.69,193.92c0.42,0.14,0.85,0.28,1.27,0.42
		c0.42,0.14,0.85,0.28,1.27,0.42c0.85,0.28,1.55,0.71,2.4,0.99c0.85,0.42,1.55,0.71,2.4,1.13c0.85,0.42,1.55,0.71,2.26,1.13
		l0.42,0.28l-0.56-0.14c-0.56-0.14-1.13-0.14-1.69-0.28c-0.56,0-1.13-0.14-1.69-0.14c-0.14,0-0.28,0-0.42,0h-0.42
		c-0.14,0-0.28,0-0.42,0c-0.14,0-0.28,0-0.42,0h-0.42h-0.42h-0.28h-0.28l-0.42,0.14l0.42-0.14h0.28h0.28l0.42-0.14h0.42
		c0.56,0,1.13-0.14,1.69-0.14s1.13,0,1.69,0.14c0.56,0,1.13,0.14,1.69,0.28v0.14c-0.71-0.42-1.55-0.85-2.26-1.13
		c-0.71-0.42-1.55-0.71-2.4-1.13c-0.85-0.42-1.55-0.71-2.4-0.99C257.38,194.48,256.54,194.2,255.69,193.92z"/>
	<path style="opacity:0.5;fill:#DAEEF7;enable-background:new    ;" d="M257.38,184.71c0.71,0.14,1.41,0.28,2.12,0.28
		c0.71,0.14,1.41,0.14,2.12,0.28c1.41,0.14,2.82,0.28,4.37,0.28c0.71,0,1.41,0,2.12,0c0.71,0,1.41,0,2.12-0.14
		c0.71,0,1.41-0.14,2.12-0.28c0.71-0.14,1.41-0.28,2.12-0.42c-0.71,0.14-1.41,0.28-2.12,0.42c-0.71,0.14-1.41,0.14-2.12,0.28
		c-0.71,0-1.41,0.14-2.12,0.14c-0.71,0-1.41,0-2.12,0c-1.41,0-2.96-0.14-4.37-0.28c-0.71-0.14-1.41-0.14-2.12-0.28
		C258.93,185,258.09,184.86,257.38,184.71z"/>
	<path style="fill:#F3FDFF;" d="M273.75,187.26c0,0.14,0.14,0.14,0.14,0.28l0.14,0.28l0.28,0.42l0.42,0.71l1.27,1.98
		c0.14,0.28,1.69,2.97,2.12,3.54c-0.42-0.57-0.99-0.99-1.41-1.7c-0.14-0.28-0.42-0.57-0.56-0.85c-0.14-0.28-0.28-0.57-0.56-0.85
		c-0.28-0.57-0.71-1.27-0.99-1.84c-0.14-0.28-0.28-0.57-0.42-0.99c0-0.14-0.14-0.28-0.14-0.42
		C273.89,187.55,273.75,187.4,273.75,187.26z"/>
	<path style="fill:#3660AC;" d="M289.13,157.67c-3.53-4.11-7.62-8.5-11.29-10.2c-1.41-0.71-4.66-0.85-6.49-1.13
		c0,0-4.94-0.57-9.74,0c-2.68,0.85-7.2,2.41-7.2,3.96c-0.28,7.36-0.42,13.03-0.28,17.42c0,0-0.14,15.72,0,19.12
		c0,0,17.92,3.68,27.24,1.42c0,0,1.55-20.53-0.71-26.05l0.99,1.13C281.37,163.33,285.04,162.48,289.13,157.67z"/>
	<path style="fill:#FFC0BB;" d="M288.57,158.23c-2.4,2.83-5.08,4.25-6.49,4.81l8.75,9.91l-15.95,16.28l2.82,4.67
		c2.26-0.99,2.68-4.81,2.68-4.81S300,176.64,300,173.67C300,169.42,288.57,158.23,288.57,158.23z"/>
	<path style="fill:#FBF9EB;" d="M288.71,158.09c-0.14,0.14-0.28,0.28-0.42,0.42l-0.42,0.42l-0.14,0.28l-0.28,0.14l-0.42,0.42
		c-0.14,0.14-0.28,0.28-0.42,0.42c-0.28,0.28-0.56,0.42-0.99,0.71c-0.71,0.42-1.41,0.85-2.12,1.27l-0.28,0.14
		c-0.14,0-0.14,0.14-0.28,0.14c-0.14,0.14-0.42,0.14-0.56,0.28c-0.14,0-0.14,0.14-0.28,0.14c-0.14,0-0.14,0.14-0.28,0.14
		s-0.28,0.14-0.42,0.14l-0.99-1.13l-1.13-1.27c-0.71-0.85-1.41-1.56-2.12-2.41c-0.71-0.85-1.41-1.56-2.26-2.41
		c-0.71-0.85-1.55-1.56-2.26-2.27c0.71,0.85,1.41,1.7,1.98,2.55c0.71,0.85,1.41,1.7,2.12,2.41c0.71,0.85,1.41,1.7,2.12,2.41
		l1.13,1.27l1.13,1.27l0.14,0.14h0.14c0.28,0,0.42-0.14,0.56-0.14c0.14,0,0.42-0.14,0.56-0.28c0.14-0.14,0.42-0.14,0.56-0.28
		c0.14,0,0.14-0.14,0.28-0.14l0.28-0.14c0.71-0.42,1.41-0.85,2.12-1.42l0.42-0.42c0.14-0.14,0.28-0.28,0.42-0.42
		c0.14-0.14,0.28-0.28,0.42-0.42l0.42-0.42l0.14-0.28l0.14-0.28l0.42-0.42c0.28-0.28,0.42-0.71,0.71-0.99L288.71,158.09z"/>
	<path style="fill:#FFC0BB;" d="M263.45,146.2c0,0,3.53,1.98,6.35,0l0,0l-0.71-4.96l-5.5-1.13L263.45,146.2L263.45,146.2z"/>
	<path style="fill:#FC8D84;" d="M263.45,143.51l0.14-3.26l5.64,1.7l0.14,1.13C268.11,143.51,265.71,144.07,263.45,143.51z"/>
	<path style="fill:#F99893;" d="M259.5,132.32c0.14,0.99-0.42,1.84-1.27,1.98c-0.85,0.14-1.69-0.57-1.83-1.56
		c-0.14-0.99,0.42-1.84,1.27-1.98C258.51,130.62,259.36,131.33,259.5,132.32z"/>
	<path style="fill:#FFC0BB;" d="M258.37,137.42c-0.14-0.42-0.28-0.85-0.28-1.27c-0.14-1.27,0-2.41,0.14-3.54
		c0-0.28,0-0.42,0.14-0.71c0.14-0.99,0.28-1.84,0.85-2.83c1.55-2.97,5.08-4.53,8.61-3.96c4.8,0.85,7.62,5.1,6.49,9.2
		c0.56-0.14,1.13,0,1.55,0.28c0.85,0.57,0.85,1.84,0,2.83s-2.12,1.27-2.96,0.57c-0.14-0.14-0.28-0.14-0.28-0.28
		c-1.41,3.4-5.22,5.38-9.03,4.53c-1.83-0.42-3.39-1.56-4.37-2.97c0-0.14-0.14-0.14-0.14-0.28
		C258.79,138.55,258.51,137.99,258.37,137.42z"/>
	<path style="fill:#333333;" d="M266.98,133.31c-0.14,0.28,0.14,0.71,0.56,0.85c0.42,0.14,0.71-0.14,0.85-0.42
		c0.14-0.28-0.14-0.71-0.56-0.85C267.54,132.75,267.12,132.89,266.98,133.31z"/>
	<path style="fill:#333333;" d="M261.05,132.18c-0.14,0.28,0.14,0.71,0.56,0.85c0.42,0.14,0.71-0.14,0.85-0.42
		c0.14-0.28-0.14-0.71-0.56-0.85C261.47,131.61,261.19,131.76,261.05,132.18z"/>
	<path style="fill:#07085B;" d="M266.56,131.9c0.42,0,0.71,0,1.13,0c0.28,0,0.71,0,0.99,0.14s0.56,0.28,0.85,0.42h0.14
		c0,0,0,0,0.14,0.14l0.14,0.14c0.14,0.14,0.28,0.28,0.42,0.28c0-0.14-0.14-0.28-0.28-0.42s-0.14-0.28-0.28-0.42
		c-0.28-0.28-0.56-0.42-0.99-0.57c-0.42-0.14-0.85-0.14-1.13-0.14C267.26,131.47,266.84,131.61,266.56,131.9z"/>
	<path style="fill:#07085B;" d="M263.73,131.33c-0.14-0.28-0.42-0.57-0.71-0.85c-0.28-0.14-0.71-0.28-1.13-0.42
		c-0.42,0-0.85,0-1.13,0.14c-0.14,0-0.28,0.14-0.56,0.28c-0.14,0.14-0.28,0.28-0.42,0.28c0.14,0,0.42-0.14,0.56-0.14h0.28h0.14h0.14
		c0.28,0,0.71,0,0.99,0s0.71,0.14,0.99,0.28C263.17,130.91,263.45,131.05,263.73,131.33z"/>
	<path style="fill:#F99893;" d="M264.86,131.47c0,0.42,0,0.99-0.14,1.42c0,0.28-0.14,0.42-0.28,0.71c-0.14,0.28-0.28,0.42-0.42,0.57
		h-0.14h-0.14c0,0-0.14,0-0.14,0.14c-0.14,0-0.14,0.14-0.14,0.14c-0.14,0.14,0,0.28,0,0.57c0.14,0.42,0.56,0.71,0.99,0.85
		c-0.56,0-0.99-0.28-1.41-0.71c-0.14-0.28-0.28-0.57-0.14-0.85c0-0.14,0-0.14,0.14-0.14l0.14-0.14l0.14-0.14l0,0l0,0
		c0.14-0.14,0.28-0.28,0.42-0.42c0.14-0.14,0.14-0.42,0.28-0.57C264.58,132.32,264.72,131.9,264.86,131.47z"/>
	<path style="fill:#FFFFFF;" d="M261.76,136.43c0.14,0.85,0.99,1.56,2.26,1.7c1.27,0.14,2.4-0.28,2.68-0.99L261.76,136.43z"/>
	<polygon points="227.47,111.37 232.97,229.46 234.1,229.46 228.59,111.37 	"/>
	<path style="fill:#FFC0BB;" d="M228.03,160.78c0-0.14,0-0.71,0-0.85c0-0.28,0.28-0.57,0.71-0.71l0.42-0.14v0.85l0,0
		c0,0.57,0,0.57,0.85,0.99c1.27,0.57,0.71,1.13,0.71,1.13s-0.42,0.42-1.98-0.28C228.88,161.92,228.17,161.49,228.03,160.78z"/>
	<path style="fill:#FFC0BB;" d="M227.89,161.49c0-0.14,0-0.71,0-0.71c0-0.28,0.28-0.57,0.56-0.57l0.42-0.14v0.71l0,0
		c0,0.57,0,0.57,0.85,0.85c1.27,0.57,0.71,1.13,0.71,1.13s-0.28,0.42-1.83-0.28C228.74,162.48,228.03,162.2,227.89,161.49z"/>
	<path style="fill:#FFC0BB;" d="M228.17,162.48c0-0.14,0-0.57,0-0.71c0-0.28,0.28-0.42,0.56-0.57l0.28-0.14v0.71l0,0
		c0,0.57,0,0.42,0.71,0.71c0.99,0.42,0.56,0.99,0.56,0.99s-0.28,0.42-1.55-0.28C228.74,163.33,228.17,162.91,228.17,162.48z"/>
	<path style="fill:#FFC0BB;" d="M228.31,159.79c0-0.14,0-0.71,0-0.85c0-0.28,0.28-0.57,0.71-0.71l0.42-0.14v0.85l0,0
		c0,0.57,0,0.57,0.85,0.99c1.27,0.57,0.71,1.13,0.71,1.13s-0.42,0.42-1.98-0.28C229.16,160.93,228.45,160.5,228.31,159.79z"/>
	<path style="fill:#F99893;" d="M229.44,159.08c0,0.14,0,0.28,0,0.42c0,0.14,0.14,0.28,0.28,0.28c0.28,0.14,0.56,0.14,0.85,0.28
		c0,0,0.14,0,0.14,0.14l0.14,0.14c0.14,0.14,0.28,0.28,0.28,0.42c0,0.14,0,0.28,0,0.42c0,0,0,0,0,0.14c0,0,0,0-0.14,0.14
		c-0.14,0-0.14,0-0.28,0.14c-0.14,0-0.28,0-0.42,0c-0.14,0-0.28,0-0.42-0.14c-0.28-0.14-0.56-0.14-0.85-0.28
		c-0.28-0.14-0.42-0.42-0.56-0.57c0-0.14-0.14-0.28-0.14-0.42v-0.14v-0.14v0.14v0.14c0,0.14,0.14,0.28,0.14,0.42
		c0.14,0.28,0.42,0.42,0.56,0.57c0.28,0.14,0.56,0.28,0.85,0.28c0.28,0.14,0.56,0.14,0.85,0.14h0.14l0,0c0,0,0,0,0-0.14
		c0-0.14,0-0.28,0-0.42c0-0.14-0.14-0.28-0.28-0.28l-0.14-0.14l-0.14-0.14c-0.28-0.14-0.56-0.28-0.85-0.42l-0.14-0.14l-0.14-0.14
		C229.44,159.37,229.44,159.23,229.44,159.08z"/>
	<path style="fill:#F99893;" d="M230.57,161.35c0.14,0.14,0.28,0.28,0.28,0.57c0,0.14,0,0.28-0.14,0.28c0,0,0,0,0,0.14
		c0,0,0,0-0.14,0h-0.14c-0.28,0-0.42,0-0.71,0s-0.42-0.14-0.71-0.28c-0.14,0-0.14-0.14-0.28-0.14c-0.14,0-0.14-0.14-0.28-0.14
		c-0.14-0.14-0.28-0.28-0.42-0.57c0-0.14-0.14-0.14-0.14-0.28v-0.14v-0.14c0-0.14,0-0.42,0.14-0.57c0,0.14,0,0.42,0,0.57v0.14v0.14
		c0,0.14,0,0.14,0.14,0.28c0.14,0.14,0.28,0.28,0.42,0.42c0.14,0,0.14,0.14,0.28,0.14c0.14,0,0.14,0.14,0.28,0.14
		c0.14,0.14,0.42,0.14,0.56,0.28c0.28,0,0.42,0.14,0.71,0c0.14,0,0.28,0,0.28-0.14s0.14-0.14,0.14-0.28c0-0.14,0-0.14-0.14-0.28
		C230.71,161.49,230.71,161.35,230.57,161.35z"/>
	<path style="fill:#F99893;" d="M230.57,162.34c0.14,0.14,0.14,0.28,0,0.42c0,0,0,0.14-0.14,0.14h-0.14c-0.14,0-0.14,0-0.28,0
		c-0.28,0-0.71,0-0.99-0.14c-0.14,0-0.28-0.14-0.42-0.14c-0.14,0-0.28-0.14-0.42-0.28c-0.14-0.14-0.28-0.28-0.28-0.42
		c-0.14-0.14-0.14-0.28-0.14-0.42c0,0.28,0.28,0.57,0.42,0.71c0.14,0.14,0.28,0.14,0.42,0.28c0.14,0,0.28,0.14,0.42,0.14
		s0.28,0.14,0.42,0.14s0.28,0,0.42,0s0.14,0,0.28,0c0,0,0,0,0.14,0c0,0,0,0,0-0.14C230.57,162.62,230.71,162.48,230.57,162.34z"/>
	<path style="fill:#F99893;" d="M230.29,162.91c0.14,0.14,0.14,0.28,0.14,0.42s0,0.14,0,0.28l0,0l0,0h-0.14c-0.14,0-0.28,0-0.42,0
		s-0.28,0-0.42-0.14c-0.14,0-0.28-0.14-0.42-0.14c0,0-0.14,0-0.14-0.14l-0.14-0.14c-0.28-0.14-0.42-0.42-0.42-0.71
		c0,0.28,0.28,0.42,0.42,0.71l0.14,0.14c0,0,0.14,0,0.14,0.14c0.14,0,0.28,0.14,0.42,0.14c0.14,0,0.28,0.14,0.42,0.14s0.28,0,0.42,0
		c0,0,0,0,0.14,0l0,0l0,0v-0.14v-0.14C230.29,163.05,230.29,162.91,230.29,162.91z"/>
	<g>
		<ellipse style="fill:#FF5B7E;" cx="229.3" cy="120" rx="21.87" ry="23.22"/>
		<ellipse style="fill:#CCF6FE;" cx="229.3" cy="120" rx="20.04" ry="21.24"/>
		<rect x="226.9" y="135.44" style="fill:#FFC0BB;" width="5.22" height="5.52"/>
		<path style="fill:#F99893;" d="M232.12,138.84v-3.26h-5.22v2.83C228.03,138.98,229.72,139.26,232.12,138.84z"/>
		<path style="fill:#FFC0BB;" d="M240.31,125.67c-0.56-0.28-1.13-0.28-1.69,0.14c0.14-5.38-3.95-10.05-9.31-9.77
			c-5.36-0.14-9.45,4.39-9.31,9.77c-0.56-0.28-1.27-0.42-1.69-0.14c-0.99,0.57-1.41,2.12-0.71,3.54c0.71,1.42,1.98,2.12,3.1,1.56
			c0.14-0.14,0.28-0.14,0.42-0.28c0.56,4.53,4.09,7.93,8.33,7.79c4.23,0,7.76-3.26,8.33-7.79c0.14,0.14,0.28,0.14,0.42,0.28
			c0.99,0.57,2.4-0.14,3.1-1.56C241.72,127.65,241.44,126.09,240.31,125.67z"/>
		<path style="fill:#333333;" d="M222.95,113.63c0,0,2.68-2.41,8.61-1.98c5.93,0.42,7.06,3.68,7.48,8.35l-0.28,5.52
			c0,0-1.55-1.7-3.53-6.37c0,0-3.39,3.96-4.8,3.54c-1.41-0.42,0.56-3.26,0.56-3.26s-6.77,6.23-10.87,6.23c0,0-2.12-7.22,0.85-9.91
			c0,0-2.26,0.14-2.4-0.28c-0.14-0.42,1.13-1.13,3.25-0.85c0,0-1.55-3.12-0.71-3.54C221.82,110.66,222.95,113.63,222.95,113.63z"/>
		<path style="fill:#FFFFFF;" d="M232.69,132.04c-0.28,1.13-1.41,1.98-2.82,1.98s-2.68-0.71-2.96-1.84L232.69,132.04z"/>
		<path style="fill:#FFC0BB;" d="M228.74,140.53l-1.83,0.42l0,0c0.85,0.14,1.55,0.14,2.4,0.14c0.99,0,1.83-0.14,2.82-0.14l0,0
			l-0.28-0.28C231.84,140.82,228.74,140.53,228.74,140.53z"/>
	</g>
	<path style="fill:#07085B;" d="M274.6,125.24l0.28,4.67l-11.57-2.69c0,0-1.27,1.13-1.41,0.99c-0.14,0-1.69-0.57-1.55-0.85
		c0-0.14,4.09-5.24,4.09-5.24s3.81,0.85,4.23,0.85C268.67,123.26,274.6,125.24,274.6,125.24z"/>
	<path style="fill:#FF5B7E;" d="M274.6,132.75c0,0-5.93-4.96-15.81-2.97c0,0,0,0,0-0.14c-0.28-1.42,0.56-2.69,1.98-2.97
		c2.26-0.57,7.2-0.99,13.41,2.97C275.3,130.34,275.45,131.76,274.6,132.75C274.6,132.61,274.6,132.61,274.6,132.75z"/>
	<rect x="139.67" y="211.62" style="opacity:0.5;fill:#E03268;enable-background:new    ;" width="53.79" height="4.11"/>
	<rect x="139.67" y="223.09" style="opacity:0.5;fill:#E03268;enable-background:new    ;" width="53.79" height="4.11"/>
	<g>
		<path style="fill:#FFFFFF;" d="M54.83,265h12.18c0.28,0,0.57-0.28,0.57-0.57l0,0c0-0.28-0.28-0.57-0.57-0.57H54.83
			c-0.28,0-0.57,0.28-0.57,0.57l0,0C54.27,264.72,54.55,265,54.83,265z"/>
		<path style="fill:#333333;" d="M67.16,259.74l0.42,3.55c0,0.43-0.14,0.85-0.57,0.85h-11.9c-0.28,0-0.57-0.14-0.71-0.57
			c-0.14-0.28-0.14-0.85,0.28-1.56c0.99-1.42,4.39-1.71,6.09-2.84c0.14,0,0.28-0.14,0.28-0.14h5.38
			C66.87,259.17,67.02,259.46,67.16,259.74z"/>
	</g>
	<g>
		<path style="fill:#FFFFFF;" d="M82.88,265h12.18c0.28,0,0.57-0.28,0.57-0.57l0,0c0-0.28-0.28-0.57-0.57-0.57H82.88
			c-0.28,0-0.57,0.28-0.57,0.57l0,0C82.32,264.72,82.6,265,82.88,265z"/>
		<path style="fill:#333333;" d="M95.07,259.74l0.42,3.55c0,0.43-0.14,0.85-0.57,0.85h-11.9c-0.28,0-0.57-0.14-0.71-0.57
			c-0.14-0.28-0.14-0.85,0.28-1.56c0.99-1.42,4.39-1.71,6.09-2.84c0.14,0,0.28-0.14,0.28-0.14h5.38
			C94.78,259.17,95.07,259.46,95.07,259.74z"/>
	</g>
	<g>
		<path style="fill:#FFFFFF;" d="M268.25,265h13.55c0.42,0,0.71-0.28,0.71-0.71l0,0c0-0.42-0.28-0.71-0.71-0.71h-13.55
			c-0.42,0-0.71,0.28-0.71,0.71l0,0C267.54,264.72,267.83,265,268.25,265z"/>
		<path style="fill:#333333;" d="M281.94,259.19l0.56,3.96c0,0.42-0.28,0.99-0.56,0.99h-13.27c-0.28,0-0.71-0.14-0.85-0.57
			c-0.14-0.42-0.28-0.99,0.42-1.84c1.13-1.56,4.94-1.98,6.91-3.26c0.14-0.14,0.28-0.14,0.42-0.14h5.93
			C281.51,258.34,281.8,258.77,281.94,259.19z"/>
		<g>
			<path style="fill:#FFFFFF;" d="M276.01,260.75L276.01,260.75c0.14,0,0.14-0.14,0.14-0.28c-0.28-0.57-1.13-1.84-2.68-1.56
				c-0.14,0-0.14,0.14-0.14,0.28l0,0c0,0.14,0.14,0.14,0.14,0.14c1.55-0.28,2.12,0.99,2.4,1.42
				C275.73,260.75,275.87,260.75,276.01,260.75z"/>
		</g>
		<g>
			<path style="fill:#FFFFFF;" d="M274.6,261.32L274.6,261.32c0.14,0,0.14-0.14,0.14-0.28c-0.28-0.57-1.13-1.84-2.68-1.56
				c-0.14,0-0.14,0.14-0.14,0.28l0,0c0,0.14,0.14,0.14,0.14,0.14c1.55-0.28,2.12,0.99,2.4,1.42
				C274.46,261.32,274.46,261.32,274.6,261.32z"/>
		</g>
		<g>
			<path style="fill:#FFFFFF;" d="M273.33,261.74L273.33,261.74c0.14,0,0.14-0.14,0.14-0.28c-0.28-0.57-1.13-1.84-2.68-1.56
				c-0.14,0-0.14,0.14-0.14,0.28l0,0c0,0.14,0.14,0.14,0.14,0.14c1.55-0.28,2.12,0.99,2.4,1.42
				C273.05,261.74,273.19,261.74,273.33,261.74z"/>
		</g>
	</g>
	<g>
		<path style="fill:#FFFFFF;" d="M248.49,265h13.55c0.42,0,0.71-0.28,0.71-0.71l0,0c0-0.42-0.28-0.71-0.71-0.71h-13.55
			c-0.42,0-0.71,0.28-0.71,0.71l0,0C247.79,264.72,248.07,265,248.49,265z"/>
		<path style="fill:#333333;" d="M262.18,259.19l0.56,3.96c0,0.42-0.28,0.99-0.56,0.99h-13.27c-0.28,0-0.71-0.14-0.85-0.57
			s-0.28-0.99,0.42-1.84c1.13-1.56,4.94-1.98,6.91-3.26c0.14-0.14,0.28-0.14,0.42-0.14h5.93
			C261.76,258.34,262.04,258.77,262.18,259.19z"/>
		<g>
			<path style="fill:#FFFFFF;" d="M256.25,260.75L256.25,260.75c0.14,0,0.14-0.14,0.14-0.28c-0.28-0.57-1.13-1.84-2.68-1.56
				c-0.14,0-0.14,0.14-0.14,0.28l0,0c0,0.14,0.14,0.14,0.14,0.14c1.55-0.28,2.12,0.99,2.4,1.42
				C255.97,260.75,256.11,260.75,256.25,260.75z"/>
		</g>
		<g>
			<path style="fill:#FFFFFF;" d="M254.84,261.32L254.84,261.32c0.14,0,0.14-0.14,0.14-0.28c-0.28-0.57-1.13-1.84-2.68-1.56
				c-0.14,0-0.14,0.14-0.14,0.28l0,0c0,0.14,0.14,0.14,0.14,0.14c1.55-0.28,2.12,0.99,2.4,1.42
				C254.7,261.32,254.7,261.32,254.84,261.32z"/>
		</g>
		<g>
			<path style="fill:#FFFFFF;" d="M253.57,261.74L253.57,261.74c0.14,0,0.14-0.14,0.14-0.28c-0.28-0.57-1.13-1.84-2.68-1.56
				c-0.14,0-0.14,0.14-0.14,0.28l0,0c0,0.14,0.14,0.14,0.14,0.14c1.55-0.28,2.12,0.99,2.4,1.42
				C253.43,261.74,253.43,261.74,253.57,261.74z"/>
		</g>
	</g>
</g>
</svg>
