<?xml version="1.0" encoding="utf-8"?>
<!-- Generator: Adobe Illustrator 25.1.0, SVG Export Plug-In . SVG Version: 6.00 Build 0)  -->
<svg version="1.1" id="_x31_" xmlns="http://www.w3.org/2000/svg" xmlns:xlink="http://www.w3.org/1999/xlink" x="0px" y="0px"
	 viewBox="0 0 300 265" style="enable-background:new 0 0 300 265;" xml:space="preserve">
<g>
	<defs>
		<rect id="SVGID_1_" width="300" height="265"/>
	</defs>
	<clipPath id="SVGID_2_">
		<use xlink:href="#SVGID_1_"  style="overflow:visible;"/>
	</clipPath>
	<g style="clip-path:url(#SVGID_2_);">
		<path style="fill:#31ABC0;" d="M299.8,82.1c-0.01-27.36-0.01-54.73,0.01-82.1H0v265h300C299.86,204.03,299.83,143.06,299.8,82.1z"
			/>
		<linearGradient id="SVGID_3_" gradientUnits="userSpaceOnUse" x1="150" y1="213.4882" x2="150" y2="17.822">
			<stop  offset="0" style="stop-color:#00ABCC"/>
			<stop  offset="0.1418" style="stop-color:#00A7C9"/>
			<stop  offset="0.2956" style="stop-color:#009ABF"/>
			<stop  offset="0.455" style="stop-color:#0084AF"/>
			<stop  offset="0.6183" style="stop-color:#006698"/>
			<stop  offset="0.7846" style="stop-color:#003E7B"/>
			<stop  offset="0.951" style="stop-color:#000F58"/>
			<stop  offset="1" style="stop-color:#00004D"/>
		</linearGradient>
		<path style="opacity:0.4;fill:url(#SVGID_3_);" d="M299.8,82.1c-0.01-27.36-0.01-54.73,0.01-82.1H0v265h300
			C299.86,204.03,299.83,143.06,299.8,82.1z"/>
		<g>
			<path style="opacity:0.1;fill:#D7FFFF;" d="M299.8,86.86c-31.23-7.65-60.92-15.98-91.61-16.25c-50.3-0.44-66.46,7.16-122.6,11.57
				C29.46,86.6,0.95,81.65,0.95,81.65v9.72c0,0,48.28,0,85.55-4.86s95.2-8.39,122.6-7.95c17.28,0.28,53.16,7.94,90.71,14.11
				C299.8,90.73,299.8,88.8,299.8,86.86z"/>
			<path style="opacity:0.1;fill:#D7FFFF;" d="M217.83,70.95c0,0-42.09-4.87-95.3-3.21S22.17,60.78,0.95,50.18v9.61
				c0,0,26.27,12.26,74.43,11.92S165.65,67.37,217.83,70.95z"/>
			<path style="opacity:0.1;fill:#D7FFFF;" d="M299.8,28.94c-40.86-0.16-55.99,4.45-88.68,5.01c-39.07,0.66-79.82-10.27-126.64-9.94
				c-27.62,0.2-83.53,4.31-83.53,4.31v11.26c24.25-7.29,42.77-10.27,70.39-11.92c16.97-1.02,61.3,1.66,79.15,3.64
				c17.85,1.99,38.4,7.95,56.92,8.28s46.82-7.95,63.66-9.28c7.14-0.56,18.27-0.77,28.73-0.81C299.8,29.31,299.8,29.13,299.8,28.94z"
				/>
			<path style="opacity:0.1;fill:#D7FFFF;" d="M299.82,127.49c-14.73-1.2-29.25-1.94-42.68-1.55c-41.54,1.23-68.81,4.56-110.77,7.4
				c-41.95,2.85-62.53,1.24-62.53,1.24c43.21,5.4,87.89,2.11,132.65-1.92c23.99-2.16,45.07-4.83,83.32-2.63
				C299.82,129.19,299.82,128.34,299.82,127.49z"/>
			<path style="opacity:0.1;fill:#D7FFFF;" d="M299.87,187.3c-5.23,0.7-10.75,1.18-16.68,1.34c-36.04,0.99-72.41-5.63-72.41-5.63
				c45.36,12.13,68.6,11.63,89.1,7.53C299.87,189.46,299.87,188.38,299.87,187.3z"/>
		</g>
		<path style="opacity:0.2;fill:#D7FFFF;" d="M197.64,118.75h48.84c0,0-13.47-2.82-14.65-2.15c-1.18,0.66-4.38,1.49-5.22,0.83
			s3.03-2.32,0.34-3.64c-2.69-1.32-4.88,2.32-6.06,2.32c-1.18,0-1.18-2.65-5.05-2.32c-3.87,0.33-2.36,2.48-3.7,2.82
			c-1.35,0.33-3.87-0.07-4.88,0.26C206.23,117.19,197.64,118.75,197.64,118.75z"/>
		<path style="opacity:0.4;fill:#D7FFFF;" d="M61.74,64.48h63.82c0,0-9.26-1.99-12.8-2.32c-3.54-0.33-4.38,1.66-6.57,1.16
			s6.23-4.8,0.17-6.79c-6.06-1.99-5.73,4.8-7.75,4.64c-2.02-0.17,0-4.47-5.39-4.14c-5.39,0.33-2.53,4.64-4.38,4.8
			C87,62,86.85,58.05,82.13,59.05c-4.72,0.99-1.03,4.11-3.05,4.44C77.06,63.82,78.75,61.5,61.74,64.48z"/>
		<path style="opacity:0.4;fill:#D7FFFF;" d="M299.8,47.14c-0.2-0.02-0.38-0.03-0.55-0.05c-4.38-0.33-9.32,0.99-11.79,0.55
			c-2.47-0.44,5.16-5.96-4.27-8.39c-9.43-2.43-6.51,5.52-10.33,5.3c-3.82-0.22,0-9.28-9.21-7.95c-9.21,1.33-1.8,9.72-5.39,9.72
			c-3.59,0-3.82-5.52-8.98-4.86c-5.16,0.66-3.82,5.74-6.51,5.74c-2.69,0-3.59-1.33-6.74-1.1c-3.14,0.22-25.04,3.31-25.04,3.31h88.8
			C299.8,48.65,299.8,47.89,299.8,47.14z"/>
		<g>
			<defs>
				<filter id="Adobe_OpacityMaskFilter" filterUnits="userSpaceOnUse" x="40.98" y="22.52" width="65.85" height="35.41">
					<feColorMatrix  type="matrix" values="1 0 0 0 0  0 1 0 0 0  0 0 1 0 0  0 0 0 1 0"/>
				</filter>
			</defs>
			<mask maskUnits="userSpaceOnUse" x="40.98" y="22.52" width="65.85" height="35.41" id="SVGID_4_">
				<g style="filter:url(#Adobe_OpacityMaskFilter);">
					<g>
						<linearGradient id="SVGID_5_" gradientUnits="userSpaceOnUse" x1="48.5971" y1="57.4759" x2="103.6076" y2="21.9203">
							<stop  offset="0" style="stop-color:#FFFFFF"/>
							<stop  offset="0.1146" style="stop-color:#FBFBFB"/>
							<stop  offset="0.2389" style="stop-color:#EEEEEE"/>
							<stop  offset="0.3678" style="stop-color:#D8D8D8"/>
							<stop  offset="0.4998" style="stop-color:#B9B9B9"/>
							<stop  offset="0.6343" style="stop-color:#929292"/>
							<stop  offset="0.7709" style="stop-color:#626262"/>
							<stop  offset="0.9065" style="stop-color:#2B2B2B"/>
							<stop  offset="1" style="stop-color:#000000"/>
						</linearGradient>
						<path style="fill:url(#SVGID_5_);" d="M100.78,28.43c2.64,0.1,2.72-5.91,2.72-5.91c-1.35,3.31-9.42,2.1-10.1,3.64
							c-0.68,1.55,7.07,5.96,5.05,6.96s-25.3-8.53-26.61-5.13c-0.68,1.76,3.49,5.28,6.99,8.53l-1.56-1.43c0,0,4.48,5.7,3.66,6.44
							c-1.35,1.21-25.45-5.1-28.35-5.47c-3.54-0.44-4.21,0.78-4.21,0.78l0.02,0c-3.01-0.47-5.18-0.58-5.85-0.07
							c-3.03,2.32,6.4,10.93,6.06,14.24c-0.34,3.31-7.63,2.8-7.63,2.8s12.34,5.15,13.69,3.5c1.35-1.66-1.29-4.47-1.01-6.13
							c0.37-2.2,30.78,5.36,36.12,3.92c-0.78,0.46-2.01,0.82-3.95,0.77c-5.05-0.11-29.86-5.3-31.09-4.39
							c-0.96,0.71,2.19,4.33,1.42,5.43c-0.97,1.38-4.57,0.47-4.57,0.47s4.57,1.42,5.35-0.3c0.55-1.2-1.47-4.03-1.04-4.75
							c0.67-1.12,24.26,3.59,29.82,3.86c5.56,0.28,5.4-2.81,5.4-2.81s-0.01,0.05-0.03,0.13c0.85-4.4-7.56-14.63-6.96-16.11
							c0.67-1.66,21.23,6.15,22.57,2.84C108.05,36.93,98.15,28.33,100.78,28.43z M82.46,43.24c-2.79,1.19-22-4.31-32.8-6.19
							c0,0,0.3-0.39,3.16-0.22c2.86,0.17,27.06,6.74,28.97,5.41c1.32-0.92-2.94-5.71-2.94-5.71C82.06,39.51,84.72,42.28,82.46,43.24
							z"/>
						<linearGradient id="SVGID_6_" gradientUnits="userSpaceOnUse" x1="50.699" y1="60.9721" x2="105.8821" y2="25.305">
							<stop  offset="0" style="stop-color:#FFFFFF"/>
							<stop  offset="0.1146" style="stop-color:#FBFBFB"/>
							<stop  offset="0.2389" style="stop-color:#EEEEEE"/>
							<stop  offset="0.3678" style="stop-color:#D8D8D8"/>
							<stop  offset="0.4998" style="stop-color:#B9B9B9"/>
							<stop  offset="0.6343" style="stop-color:#929292"/>
							<stop  offset="0.7709" style="stop-color:#626262"/>
							<stop  offset="0.9065" style="stop-color:#2B2B2B"/>
							<stop  offset="1" style="stop-color:#000000"/>
						</linearGradient>
						<path style="fill:url(#SVGID_6_);" d="M96.47,31.76c-0.38,0.12-2.02-0.33-3.07,0.08c0,0,2.99,0.87,3.54,0.75
							c0.55-0.12,0.38-0.91-0.38-1.61C96.56,30.97,96.85,31.63,96.47,31.76z"/>
					</g>
				</g>
			</mask>
			<g style="opacity:0.4;mask:url(#SVGID_4_);">
				<path style="fill:#D7FFFF;" d="M40.98,53.81c0,0,7.29,0.52,7.63-2.8c0.34-3.31-9.09-11.92-6.06-14.24
					c3.03-2.32,36.18,8.06,39.91,6.47c4.71-2-11.92-11.86-10.61-15.25s24.59,6.13,26.61,5.13s-5.73-5.41-5.05-6.96
					c0.68-1.55,8.76-0.33,10.1-3.64c0,0-0.08,6.02-2.72,5.91c-2.64-0.1,7.27,8.5,5.92,11.81c-1.35,3.31-21.9-4.5-22.57-2.84
					c-0.67,1.66,9.94,14.27,6.24,17.41c-2.91,2.47-36.32-5.95-36.71-3.64c-0.28,1.66,2.36,4.47,1.01,6.13
					C53.32,58.96,40.98,53.81,40.98,53.81z"/>
				<path style="fill:#D7FFFF;" d="M49.66,37.04c0,0,0.3-0.39,3.16-0.22s27.06,6.74,28.97,5.41c1.32-0.92-2.94-5.71-2.94-5.71
					l-1.56-1.44c0,0,4.48,5.7,3.66,6.44c-1.35,1.21-25.45-5.1-28.35-5.47c-3.54-0.44-4.21,0.78-4.21,0.78L49.66,37.04z"/>
				<path style="fill:#D7FFFF;" d="M51.58,57.38c0,0,3.61,0.92,4.57-0.47c0.77-1.1-2.38-4.72-1.42-5.43
					c1.23-0.91,26.04,4.28,31.09,4.39c5.05,0.11,5.29-2.48,5.29-2.48s0.15,3.09-5.4,2.81c-5.56-0.28-29.15-4.98-29.82-3.86
					c-0.43,0.71,1.58,3.55,1.04,4.75C56.14,58.8,51.58,57.38,51.58,57.38z"/>
				<path style="fill:#D7FFFF;" d="M93.4,31.84c0,0,2.99,0.87,3.54,0.75c0.55-0.12,0.38-0.91-0.38-1.61c0,0,0.29,0.66-0.08,0.79
					C96.09,31.88,94.45,31.43,93.4,31.84z"/>
			</g>
			<path style="fill:#EDDEBB;" d="M-23.56,151.4c0,0,201.32-8.4,203.28-4.36c1.96,4.04-50.97,63.62-50.97,63.62l-144.03,3.97
				L-23.56,151.4z"/>
			<polygon style="fill:#EDDEBB;" points="-22.08,89.34 18,86.4 19.56,81.72 63.6,78.5 66.72,96.88 87.52,98.55 102.53,150.35 
				-24.17,150.8 			"/>
			<polygon style="fill:#EDDEBB;" points="34.33,91.41 32.81,91.53 30.18,57.18 31.7,57.07 			"/>
			<polygon style="fill:#EDDEBB;" points="41.48,81.93 39.09,52.11 46.82,55.5 53.79,81.52 			"/>
			<polygon style="fill:#2B94BE;" points="94.78,129.73 98.18,140.74 -18.41,144.14 -18,134.53 			"/>
			<polygon style="fill:#2B94BE;" points="89.6,112.31 93,123.32 -23.59,126.72 -23.17,117.12 			"/>
			<path style="fill:#B82F3F;" d="M128.74,210.66c0,0,12.77-14.37,25.53-29.47l-173.04,6.85l3.48,26.6L128.74,210.66z"/>
			<polygon style="opacity:0.4;fill:#9E6D6A;" points="18,86.4 16,91.7 -22.26,94.6 -22.08,89.34 			"/>
			<polygon style="opacity:0.4;fill:#9E6D6A;" points="64.27,82.41 18.23,85.7 17.69,87.22 64.57,84.21 			"/>
			<polygon style="opacity:0.4;fill:#9E6D6A;" points="-22.89,113.07 90.23,107.89 89.51,105.4 -22.81,110.83 			"/>
			<polygon style="opacity:0.4;fill:#9E6D6A;" points="39.55,57.92 43.34,59.57 45.93,79.62 41.34,80.13 			"/>
			<polygon style="fill:#EDDEBB;" points="19.15,78.13 19.04,77.4 40.95,75.79 41.07,76.53 			"/>
			<polygon style="fill:#EDDEBB;" points="21.33,77.98 21.7,82.06 22.38,82.06 22,77.93 			"/>
			<polygon style="fill:#EDDEBB;" points="24.73,77.43 25.09,81.51 25.78,81.51 25.4,77.38 			"/>
			<polygon style="fill:#EDDEBB;" points="28.13,77.27 28.5,81.36 29.18,81.36 28.81,77.22 			"/>
			<g>
				<ellipse style="opacity:0.4;fill:#9E6D6A;" cx="49.53" cy="170.56" rx="6.08" ry="5.98"/>
				<ellipse style="fill:#E5D1C2;" cx="50.18" cy="169.54" rx="6.08" ry="5.98"/>
				<path style="fill:#2B94BE;" d="M54.26,169.54c0,2.21-1.83,4.01-4.08,4.01s-4.08-1.8-4.08-4.01c0-2.21,1.83-4.01,4.08-4.01
					S54.26,167.32,54.26,169.54z"/>
				<path style="fill:#1D80AA;" d="M50.18,165.53c-1.38,0-2.6,0.68-3.34,1.71c0.59-0.32,1.25-0.52,1.97-0.52
					c2.25,0,4.08,1.8,4.08,4.01c0,0.86-0.28,1.64-0.74,2.3c1.25-0.68,2.11-1.98,2.11-3.49C54.26,167.32,52.43,165.53,50.18,165.53z"
					/>
			</g>
			<g>
				<ellipse style="opacity:0.4;fill:#9E6D6A;" cx="82.04" cy="168.76" rx="6.08" ry="5.98"/>
				<ellipse style="fill:#E5D1C2;" cx="82.69" cy="167.74" rx="6.08" ry="5.98"/>
				<path style="fill:#2B94BE;" d="M86.77,167.74c0,2.21-1.83,4.01-4.08,4.01c-2.25,0-4.08-1.79-4.08-4.01
					c0-2.21,1.83-4.01,4.08-4.01C84.94,163.74,86.77,165.53,86.77,167.74z"/>
				<path style="fill:#1D80AA;" d="M82.69,163.74c-1.38,0-2.6,0.68-3.34,1.71c0.59-0.32,1.25-0.52,1.97-0.52
					c2.25,0,4.08,1.8,4.08,4.01c0,0.86-0.28,1.64-0.74,2.3c1.25-0.68,2.11-1.98,2.11-3.49C86.77,165.53,84.94,163.74,82.69,163.74z"
					/>
			</g>
			<g>
				<ellipse style="opacity:0.4;fill:#9E6D6A;" cx="17.02" cy="172.5" rx="6.08" ry="5.98"/>
				<ellipse style="fill:#E5D1C2;" cx="17.67" cy="171.48" rx="6.08" ry="5.98"/>
				<path style="fill:#2B94BE;" d="M21.75,171.48c0,2.21-1.83,4.01-4.08,4.01c-2.25,0-4.08-1.8-4.08-4.01
					c0-2.21,1.83-4.01,4.08-4.01C19.92,167.47,21.75,169.27,21.75,171.48z"/>
				<path style="fill:#1D80AA;" d="M17.67,167.47c-1.38,0-2.6,0.68-3.34,1.71c0.59-0.32,1.25-0.52,1.97-0.52
					c2.25,0,4.08,1.8,4.08,4.01c0,0.86-0.28,1.64-0.74,2.3c1.25-0.68,2.11-1.98,2.11-3.49C21.75,169.27,19.92,167.47,17.67,167.47z"
					/>
			</g>
			<g>
				<ellipse style="opacity:0.4;fill:#9E6D6A;" cx="114.55" cy="166.97" rx="6.08" ry="5.98"/>
				<ellipse style="fill:#E5D1C2;" cx="115.2" cy="165.95" rx="6.08" ry="5.98"/>
				<path style="fill:#2B94BE;" d="M119.28,165.95c0,2.21-1.83,4.01-4.08,4.01s-4.08-1.79-4.08-4.01s1.83-4.01,4.08-4.01
					S119.28,163.74,119.28,165.95z"/>
				<path style="fill:#1D80AA;" d="M115.2,161.94c-1.38,0-2.6,0.68-3.34,1.71c0.59-0.32,1.25-0.52,1.97-0.52
					c2.25,0,4.08,1.8,4.08,4.01c0,0.86-0.28,1.64-0.74,2.3c1.25-0.68,2.11-1.98,2.11-3.49C119.28,163.74,117.45,161.94,115.2,161.94
					z"/>
			</g>
			<g>
				<polygon style="fill:#EDDEBB;" points="88.73,144.27 79.38,111.55 81.14,111.06 90.48,143.78 				"/>
				<polygon style="fill:#EDDEBB;" points="78.81,144.27 69.47,111.55 71.22,111.06 80.56,143.78 				"/>
				<polygon style="fill:#EDDEBB;" points="68.89,144.27 59.55,111.55 61.3,111.06 70.65,143.78 				"/>
				<polygon style="fill:#EDDEBB;" points="58.97,144.27 49.63,111.55 51.39,111.06 60.73,143.78 				"/>
				<polygon style="fill:#EDDEBB;" points="49.06,144.27 39.71,111.55 41.47,111.06 50.81,143.78 				"/>
				<polygon style="fill:#EDDEBB;" points="39.14,144.27 29.8,111.55 31.55,111.06 40.89,143.78 				"/>
				<polygon style="fill:#EDDEBB;" points="29.22,144.27 19.88,111.55 21.63,111.06 30.98,143.78 				"/>
				<polygon style="fill:#EDDEBB;" points="19.31,144.27 10.41,113.6 12.17,113.11 21.06,143.78 				"/>
				<polygon style="fill:#EDDEBB;" points="9.39,144.27 0.5,113.6 2.25,113.11 11.14,143.78 				"/>
				
					<rect x="-25.65" y="119.03" transform="matrix(0.9993 -0.0377 0.0377 0.9993 -4.5015 1.3317)" style="fill:#EDDEBB;" width="117.36" height="1.79"/>
				
					<rect x="-20.47" y="136.27" transform="matrix(0.9993 -0.0377 0.0377 0.9993 -5.1432 1.5376)" style="fill:#EDDEBB;" width="117.36" height="1.79"/>
			</g>
			<path style="opacity:0.2;fill:#AB7171;" d="M-1.24,150.5l-4.33-38.22l41.39-1.89c0,0,4.45,19.66,10.72,38.37L-1.24,150.5z"/>
			<polygon style="opacity:0.4;fill:#9E6D6A;" points="66.72,96.88 52.76,95.88 52.16,91.25 65.61,90.34 			"/>
			<path style="opacity:0.3;fill:#AB7171;" d="M160.72,145.94c-36.86-0.09-120.76,2.95-161.97,4.55
				c-2.06,16.21-3.12,57.08,1.57,63.7l44.23-1.22c0,0-13.75-57.19-10.56-60.1C36.74,150.38,133.54,146.88,160.72,145.94z"/>
			<polygon style="opacity:0.2;fill:#AB7171;" points="-3.22,109.85 -6.31,88.18 18,86.4 19.56,81.72 23.6,81.43 29.45,108.3 			"/>
		</g>
		<g>
			<path style="fill:#2E9AA8;" d="M299.9,208.19H0v30.72h299.95C299.93,228.67,299.91,218.43,299.9,208.19z"/>
			<path style="fill:#24909E;" d="M299.9,208.19H0v1.66h299.9C299.9,209.29,299.9,208.74,299.9,208.19z"/>
			<linearGradient id="SVGID_7_" gradientUnits="userSpaceOnUse" x1="149.9735" y1="238.5805" x2="149.9735" y2="211.161">
				<stop  offset="0" style="stop-color:#2EC381"/>
				<stop  offset="0.9961" style="stop-color:#004D78"/>
			</linearGradient>
			<path style="opacity:0.5;fill:url(#SVGID_7_);" d="M299.9,208.19H0v30.72h299.95C299.93,228.67,299.91,218.43,299.9,208.19z"/>
			<g style="opacity:0.2;">
				<ellipse style="fill:#2093AD;" cx="175.84" cy="226.54" rx="72.65" ry="1.55"/>
				<ellipse style="fill:#2093AD;" cx="17.2" cy="228.86" rx="72.65" ry="1.55"/>
				<path style="fill:#2093AD;" d="M299.92,219.35c-5.31-0.03-10.91-0.04-16.7-0.04c-33.96,0-61.49,0.49-61.49,1.1
					c0,0.61,27.53,1.1,61.49,1.1c5.79,0,11.39-0.01,16.7-0.04C299.92,220.77,299.92,220.06,299.92,219.35z"/>
				<ellipse style="fill:#2093AD;" cx="5.02" cy="214.4" rx="61.49" ry="1.1"/>
				<path style="fill:#2093AD;" d="M162.28,220.68c0,0.61-27.53,1.1-61.49,1.1s-61.49-0.49-61.49-1.1s27.53-1.1,61.49-1.1
					S162.28,220.07,162.28,220.68z"/>
				<ellipse style="fill:#2093AD;" cx="158.05" cy="213.48" rx="76.53" ry="1.1"/>
			</g>
		</g>
		<g>
			<path style="fill:#1B95B2;" d="M130.93,208.19c0,0-12.37-13.76-28.9-12.62c-16.53,1.14-3.64,7.65-9.41,8.98
				c-5.77,1.33-10.86-5.3-21.03-4.64c-10.18,0.66-6.93,8.28-10.52,8.28c-3.59,0-15.95-5.96-23.75-4.31s-12.89,4.31-17.98,4.31
				S3.83,203.35,0,203.55v4.64H130.93z"/>
			<g>
				<path style="fill:#63C8E0;" d="M28.11,208.19h1.69c1.96-0.27,2.54-1.44,2.54-1.44c3.84,1.21,4.18-0.33,7.8-1.77
					c2.61-1.04,11.4,1.09,16.99,2.35c-5.34-1.58-13.89-4.72-19.82-3.46c-7.8,1.66-12.89,4.31-17.98,4.31c5.2,0,6.67-0.44,6.67-0.44
					C26.8,207.99,27.5,208.12,28.11,208.19z"/>
				<path style="fill:#63C8E0;" d="M61.63,208.19c2.37,0,2.94-2.43,4.07-3.2c1.13-0.77,2.26,1.99,5.99,1.32
					c3.73-0.66,1.02-4.64,2.37-4.42s2.71,4.31,4.52,4.09c1.81-0.22-1.02-4.75,2.71-3.64c3.73,1.1,6.45,5.41,12.55,4.31
					c1.7-0.31,1.47-3.2,1.81-3.42c0.34-0.22,1.92,3.42,5.09,2.1c3.17-1.32-0.9-5.41,0.45-6.18s2.94,2.43,4.3,1.1
					c1.07-1.05-5.43-4.2,2.26-3.64c10.06,0.11,23.15,11.59,23.15,11.59s-12.37-13.76-28.9-12.62c-16.53,1.14-3.64,7.65-9.41,8.98
					c-5.77,1.33-10.86-5.3-21.03-4.64c-9.91,0.65-7.09,7.89-10.25,8.26C61.44,208.18,61.55,208.19,61.63,208.19z"/>
				<path style="fill:#63C8E0;" d="M0,203.55v0.88c4.35,0.21,13.4,3.48,18.71,3.73C13.44,207.81,3.68,203.36,0,203.55z"/>
			</g>
			<path style="fill:#63C8E0;" d="M123.65,202.77c0,0,1.31,3.43-4.23,2.22c-5.54-1.21-6.42-3.65-10.74-3.31
				c-4.3,0.33-3.08,3.93-7.41,4.58c-2.79,0.42-6.33-4.14-6.33-4.14s2.32,5.76,6.9,5.47c4.3-0.28,3-4.69,6.62-5.58
				c3.62-0.88,9.56,5.36,12.27,5.41c2.71,0.06,4.29-1.68,3.59-4.21L123.65,202.77z"/>
			<path style="fill:#63C8E0;" d="M105.42,203.29c0,0,1.33-3.88,4.56-4.27c3.22-0.39,5.37-0.22,5.71-0.83l0.9,0.33
				c0,0-0.23,0.61-2.49,0.72c-2.26,0.11-3.62-0.28-5.15,0.44c-1.53,0.72-1.7,2.54-1.7,2.54L105.42,203.29z"/>
			<path style="fill:#63C8E0;" d="M79.27,204.55c0,0,0.12-0.5,1.05-0.08s0.68,1.32,1.53,1.32c0.85,0,1.08-1.74,2.46-1.41
				s4.52,3.28,9.56,2.26c0,0-3.3,0.05-5.74-0.94s-3.4-2.46-4.46-2.27c-1.06,0.2-1.06,1.52-1.82,1.36c-0.76-0.17-1.27-1.24-2.97-0.83
				L79.27,204.55z"/>
			<path style="fill:#63C8E0;" d="M64.23,206.39c0,0,1.11-0.92,1.78-0.99c1.55-0.17,1.82,0.21,2.52,0.44
				c1.65,0.56,2.17,1.83,4.3,1.35c2.46-0.55,0.2-4.75,0.94-5.24c-0.29,1.07,2.25,5.27-0.77,5.9c-2.49,0.52-3.26-1.06-4.64-1.79
				C67.51,205.61,66.01,205.77,64.23,206.39z"/>
			<path style="fill:#63C8E0;" d="M86.57,205.49c0,0,0.96,1.37,2.01,1.76c0.68,0.25,3.3,0.79,4.72-0.52l-0.37-0.03
				c-0.82,0.85-3.53,0.38-4.21,0.14c-0.85-0.3-1.78-1.3-1.78-1.3L86.57,205.49z"/>
		</g>
		<g>
			<path style="fill:#C98A5A;" d="M299.95,238.5H0V265h300C299.98,256.17,299.96,247.33,299.95,238.5z"/>
			<path style="fill:#D89E68;" d="M299.95,242.16c-25.68-0.18-53.32-0.2-80.79-0.18c-98.39,0.07-195.4-0.9-195.4,6.84
				c0,7.74,96.44,11.58,195.4,11.46c27.59-0.03,55.21-0.43,80.82-1.1C299.97,253.5,299.96,247.83,299.95,242.16z"/>
			<g>
				<path style="fill:#B27349;" d="M299.96,245.62H0v0.99h299.96C299.96,246.28,299.96,245.95,299.96,245.62z"/>
				<path style="fill:#B27349;" d="M299.97,255.56H0v0.99h299.98C299.98,256.22,299.98,255.89,299.97,255.56z"/>
			</g>
		</g>
		<g>
			<g>
				<path style="fill:#FCEDD6;" d="M299.94,234.57H-0.26v4.49h300.21C299.94,237.57,299.94,236.07,299.94,234.57z"/>
				<path style="fill:#FCEDD6;" d="M299.88,195.57H-6.93v2.42h306.81C299.88,197.18,299.88,196.37,299.88,195.57z"/>
				<path style="fill:#FCEDD6;" d="M299.85,165.65H-6.93v2.42h306.78C299.85,167.26,299.85,166.45,299.85,165.65z"/>
				<path style="fill:#FCEDD6;" d="M299.93,230.09H-6.93v2.42h306.86C299.94,231.7,299.93,230.89,299.93,230.09z"/>
				<g>
					<rect x="8.17" y="159.81" style="fill:#FCEDD6;" width="2.81" height="76.49"/>
					<rect x="31.68" y="159.81" style="fill:#FCEDD6;" width="2.81" height="76.49"/>
					<rect x="55.2" y="159.81" style="fill:#FCEDD6;" width="2.81" height="76.49"/>
					<rect x="78.72" y="159.81" style="fill:#FCEDD6;" width="2.81" height="76.49"/>
					<rect x="102.23" y="159.81" style="fill:#FCEDD6;" width="2.81" height="76.49"/>
					<rect x="125.75" y="159.81" style="fill:#FCEDD6;" width="2.81" height="76.49"/>
					<rect x="172.78" y="159.81" style="fill:#FCEDD6;" width="2.81" height="76.49"/>
					<rect x="153.7" y="159.81" style="fill:#FCEDD6;" width="2.81" height="76.49"/>
					<rect x="196.64" y="159.81" style="fill:#FCEDD6;" width="2.81" height="76.49"/>
					<rect x="220.16" y="159.81" style="fill:#FCEDD6;" width="2.81" height="76.49"/>
					<rect x="243.68" y="159.81" style="fill:#FCEDD6;" width="2.81" height="76.49"/>
					<rect x="267.19" y="159.81" style="fill:#FCEDD6;" width="2.81" height="76.49"/>
					<rect x="290.71" y="159.81" style="fill:#FCEDD6;" width="2.81" height="76.49"/>
				</g>
				<path style="fill:#C98A5A;" d="M299.85,158.4H-6.93v4.49h306.78C299.85,161.39,299.85,159.89,299.85,158.4z"/>
				<path style="fill:#C98A5A;" d="M299.85,158.4H-6.93v2.09h306.78C299.85,159.79,299.85,159.09,299.85,158.4z"/>
			</g>
		</g>
	</g>
</g>
<g>
	<g>
		<g>
			<g>
				<ellipse style="fill:#F4BE84;" cx="116.04" cy="91.17" rx="8.43" ry="6.07"/>
				<ellipse style="fill:#F4BE84;" cx="111.48" cy="120.13" rx="7.15" ry="5.15"/>
				<path style="fill:#F4BE84;" d="M124.2,92.68c-2.97,9.87-5.38,25.23-5.57,27.44h-14.3c0,0,0.06-22.12,3.6-30.63L124.2,92.68z"/>
				<g>
					<path style="fill:#F4BE84;" d="M114.42,146.13c0,1.47-1.66,2.67-3.71,2.67c-2.05,0-3.71-1.2-3.71-2.67s1.66-2.67,3.71-2.67
						C112.76,143.46,114.42,144.65,114.42,146.13z"/>
					<path style="fill:#F4BE84;" d="M114.42,146.13c0.73,1.94,5.9,3.04,7.43,4.2c1.53,1.16,0.38,3.1,0.38,3.1s0.53,1.72,0.45,2.71
						c-0.09,0.99-1.49,1.31-3.17,0.65c-1.68-0.66-1.86,0.93-3.78,0.96c-1.92,0.03-2.75-1.07-4.74-0.11
						c-1.99,0.96-3.88-10.89-3.88-10.89L114.42,146.13z"/>
				</g>
				<g>
					<ellipse style="fill:#F4BE84;" cx="111.48" cy="120.13" rx="7.15" ry="5.15"/>
					<path style="fill:#F4BE84;" d="M114.42,146.13c0,1.47-1.66,2.67-3.71,2.67c-2.05,0-3.71-1.2-3.71-2.67s1.66-2.67,3.71-2.67
						C112.76,143.46,114.42,144.65,114.42,146.13z"/>
					<path style="fill:#F4BE84;" d="M114.42,146.13c-0.42-3.43,1.53-10.13,2.87-16.41c1.29-6.05,1.34-9.59,1.34-9.59h-14.3
						c0,0,1.85,23.32,2.78,26.61L114.42,146.13z"/>
				</g>
			</g>
			<g>
				<g>
					<ellipse style="fill:#F4BE84;" cx="169.04" cy="94.06" rx="7.52" ry="5.9"/>
					<ellipse style="fill:#F4BE84;" cx="173.11" cy="122.22" rx="6.38" ry="5.01"/>
					<path style="fill:#F4BE84;" d="M161.76,95.54c2.65,9.59,4.8,24.52,4.97,26.67h12.75c0,0-0.06-21.5-3.21-29.77L161.76,95.54z"/>
				</g>
				<g>
					<path style="fill:#F4BE84;" d="M178.68,147.19c0.46,1.39,2.27,2.22,4.03,1.86c1.77-0.36,2.83-1.78,2.37-3.17
						c-0.46-1.39-2.27-2.22-4.03-1.86C179.28,144.39,178.22,145.81,178.68,147.19z"/>
					<path style="fill:#F4BE84;" d="M178.68,147.19c-0.03,1.95-4.14,3.9-5.1,5.26c-0.96,1.36,0.64,2.99,0.64,2.99
						s0.08,1.71,0.46,2.63c0.38,0.91,1.7,0.97,2.94,0.05c1.24-0.91,1.89,0.55,3.56,0.24c1.67-0.31,2.04-1.49,4.05-0.94
						c2.01,0.55-0.05-10.93-0.05-10.93L178.68,147.19z"/>
				</g>
				<g>
					<path style="fill:#F4BE84;" d="M166.94,123.48c0.89,2.68,4.37,4.28,7.78,3.58c3.41-0.7,5.45-3.43,4.57-6.1
						c-0.89-2.68-4.37-4.28-7.78-3.58C168.1,118.07,166.05,120.8,166.94,123.48z"/>
					<path style="fill:#F4BE84;" d="M178.68,147.19c0.46,1.39,2.27,2.22,4.03,1.86c1.77-0.36,2.83-1.78,2.37-3.17
						c-0.46-1.39-2.27-2.22-4.03-1.86C179.28,144.39,178.22,145.81,178.68,147.19z"/>
					<path style="fill:#F4BE84;" d="M178.68,147.19c-0.71-3.3-4.48-9.26-7.6-14.93c-3-5.46-4.15-8.78-4.15-8.78l12.34-2.52
						c0,0,5.68,22.26,5.91,25.52L178.68,147.19z"/>
				</g>
			</g>
			<g>
				<path style="fill:#E8CDC2;" d="M120.63,113.86c3.3-13.1,4.4-37.3-4.8-37.6c-2.9-0.1-11.9,16.5-12.6,33.4L120.63,113.86z"/>
				<polygon style="fill:#FFF4E3;" points="102.73,108.46 102.33,111.26 121.13,115.36 121.63,112.76 				"/>
				<path style="fill:#E0BDBA;" d="M110.93,110.26l10,2.3c0,0,2.2-12.5,2.1-18.8c0,0-3.2,13.8-5.3,15.5
					C116.33,110.26,110.93,110.26,110.93,110.26z"/>
			</g>
			<path style="fill:#403433;" d="M133.02,250.37c-1.25-1.18-2.36-0.19-2.36-0.19l-0.47-0.27c-0.69,1.03-2.01,2.27-2.18,2.87
				c-0.32,1.15,0.25,2.49,2.1,2.49c1.8,0,3.54-1.1,3.74-2c0.12-0.54-0.07-1.99-0.13-3.07L133.02,250.37z"/>
			<path style="fill:#403433;" d="M130.18,249.91l0.52-2.79l3.17,0.46l-0.17,2.61c0,0-0.6,1.17-2.26,1.2
				C129.78,251.43,130.18,249.91,130.18,249.91z"/>
			<g>
				<path style="fill:#F4E3D3;" d="M163.43,112.66c-4-12.9-6.4-37,2.7-37.8c2.8-0.3,12.8,15.9,14.4,32.6L163.43,112.66z"/>
				<polygon style="fill:#FFF4E3;" points="180.93,106.26 181.43,109.16 162.93,114.16 162.33,111.66 				"/>
				<path style="fill:#E8CDC2;" d="M172.83,108.56l-9.9,2.8c0,0-4.1-16-3.1-18.6c6.9,8.9,6,14.2,8.1,15.7
					C169.43,109.46,172.83,108.56,172.83,108.56z"/>
			</g>
			<g id="right_leg_10_">
				<path style="fill:#403433;" d="M172,252.96c-0.82-0.38-3.36-1.12-5.24-2.48c-0.21-0.15-0.46-0.2-0.69-0.16
					c0,0-0.13,0.02-0.13,0.02c0,0-0.07,1.15-1.28,1.55c-0.81,0.27-2.18-0.44-2.18-0.44l0.16,3.04h9.79c0.19-0.1,0.22-0.32,0.22-0.32
					S173.05,253.45,172,252.96z"/>
				<polygon style="fill:#403433;" points="162.3,249.32 162.48,251.46 163.24,252.85 165.61,252.07 165.95,250.48 165.81,248.01 
									"/>
				<path id="shin_right_8_" style="fill:#F3E2D3;" d="M166.63,249.56h-5.2c0,0-8.7-27.6-9.3-34.5c-0.3-3.5-0.6-15.1,0.8-20.3
					c1.4-5.2,12.5-7.7,13-0.4C166.23,204.66,165.83,221.66,166.63,249.56z"/>
				<g id="hip_right_8_">
					<path style="fill:#F3E2D3;" d="M165.53,136.46c0,0,0.4,29,0.2,56.8c0,5.4-9.5,9.6-13,1.5c-1.7-12.9-5.5-36.3-5.5-36.3
						s-9.3-14.3-0.4-23.2C152.83,129.26,164.23,127.86,165.53,136.46z"/>
				</g>
			</g>
			<g id="left_leg_10_">
				<path id="shin_left_2_" style="fill:#F3E2D3;" d="M129.23,193.06c0,0-3,16.2-3.8,22.2s4.1,34.2,4.1,34.2h4.7
					c2.3-14.5,6.6-26.9,7.3-33.7c0.8-7.7,1.1-23,1.1-23C142.83,188.06,131.53,185.96,129.23,193.06z"/>
				<path style="fill:#F3E2D3;" d="M124.83,149.26c0.1,5.9,4.8,37.5,4.3,43.2c-0.3,3.6,10.2,9.8,13.3,1.3
					c3.2-13.9,4.9-35.2,4.9-35.2s9.3-13,0.5-21.6c-9.3-6.9-19.9-11.9-21.8-2.3C125.43,137.86,124.73,143.36,124.83,149.26z"/>
			</g>
			<path style="fill:#F4E3D3;" d="M114.23,77.36c2.8-4.1,27.9-11.2,27.9-11.2s22.1,5.1,24.8,9.3c1.1,1.7,2.1,13.5,1.2,19
				c-1.1,6.9-3.7,18.6-3.6,24.4c0.1,6.3,1,14.4,1,15.8c0,0.7-0.1,3.9-15.3,4.8c-8.3,0.4-24.4-1-25.2-4.1c-0.2-0.6,2.4-10.8,1.4-15.4
				c-0.9-4.5-6.5-13-9.6-20.8C114.03,91.26,113.23,78.96,114.23,77.36z"/>
			<path style="fill:#E8CDC2;" d="M134.23,133.16c-1.5-1.2,0.4-14.9,1.4-17.9c0.9-3,26.5-10.5,26-10.9c-0.4-0.4-23.3,1.6-26.8-0.4
				c-3.5-2.1-7.9-22.3-7.8-23.7c0.1-1.4,10-6.6,10-6.6l-2.6-5.2c-7.6,2.5-18.4,6.3-20.1,8.9c-1.1,1.6-0.3,14,2.8,21.7
				c3,7.7,8.6,16.2,9.6,20.8c0.9,4.5-1.6,14.7-1.4,15.4c0.8,3.1,16.9,4.5,25.2,4.1c8-0.4,11.9-1.5,13.7-2.6l0,0
				C149.83,139.76,135.63,134.46,134.23,133.16z"/>
			<g>
				<path style="fill:#D8BDBC;" d="M147.43,77.46l-1.5-1.4l0.8-1.5l-11.5-6.7c-1.6,0.7-3.8,1.3-5.9,2.2l13.1,12l2.6-4.5l0.7,0.6
					l0.1,11.7c0,0-0.1,9.8-0.5,14.3c0,0,4.8,8.6,5.6,8.6c0.8,0.1,2.9-7.1,2.9-7.1l-6.6-14.9L147.43,77.46z"/>
				<path style="fill:#D8BDBC;" d="M155.53,69.86c-1.6-0.6-3.2-1.1-4.8-1.6l-3.9,6.3l6.7,6.1l2.2-10.6L155.53,69.86z"/>
			</g>
			<path style="fill:#3A3C49;" d="M151.73,110.66c0.7,0,3-7.6,3-7.6s-3.2-16.9-6.5-25.5c-0.3-1.1-2-1.4-2,0.2
				c1.6,13.5,0.7,26.1,0.7,26.1S151.03,110.76,151.73,110.66z"/>
			<polygon style="fill:#3A3C49;" points="143.03,73.46 149.63,72.96 148.23,77.56 146.23,77.76 143.73,75.46 			"/>
			<path style="fill:#32343F;" d="M151.53,109.06c-0.3,0-3.1-4.9-3.1-4.9c0.7-6.5-1.4-25.8-1.4-25.8l1.2-0.8l-1.4-0.2l-0.9-1.2
				l1.5-3.1l-3.2,0.3l-0.5,1.7l0.1,0.3l2.6,2.3c1.6,13.5,0.7,26.1,0.7,26.1s4.1,6.9,4.8,6.8c0.7,0,3-7.6,3-7.6
				S151.83,109.06,151.53,109.06z"/>
			<polygon style="fill:#D69356;" points="152.03,70.46 148.03,73.36 132.33,70.26 132.53,55.26 150.83,58.96 			"/>
			<polygon style="fill:#FFF4E3;" points="129.03,68.16 131.73,63.36 146.73,73.16 142.43,80.66 			"/>
			<polygon style="fill:#FFF4E3;" points="146.83,73.16 153.43,79.26 155.63,68.66 152.13,64.56 			"/>
			<path style="fill:#E9CDC3;" d="M130.23,249.56c0,0-4-27.5-3.6-32.5c0.5-7.4,4.4-21.2,4.5-24.1c0.1-2.9-3.1-36.3-3.5-41
				c-0.4-4.7,1.4-12.8,1.4-12.8l-3.8-0.8c0,0.2,0.1,0.5,0.1,0.7c0,0,0,0,0.1,0c-0.3,2.9-0.6,6.4-0.5,10.1c0.1,5.9,4.8,37.5,4.3,43.2
				c0,0.2,0,0.4,0.1,0.6l0,0c0,0-3,16.2-3.8,22.2c-0.8,6.1,4.1,34.2,4.1,34.2h0.6V249.56z"/>
			<path style="fill:#E9CDC3;" d="M142.23,157.86l12.4-2.9l-4.2,3.3c0,0,5.1,34.8,5.2,36.1s-1.9,14.4-1,21.3c0.9,6.9,9.1,34,9.1,34
				h-2.3c0,0-8.8-27.3-9.1-33.1c-0.4-5.7-0.9-12,0.6-21.7l-5.4-36.3c0,0-2.2,25.7-4.7,34.3c0,0-0.3,13.9-1.1,23s-6,21.8-7.3,33.7
				h-1.6c0,0,1.3-8.8,2.2-14.1c0.8-5.3,3.8-14.5,4.3-19.3s1-23.3,1-23.3l4.7-33.3L142.23,157.86z"/>
			<path style="fill:#E0BDBA;" d="M129.13,120.56c-0.1-2.6-0.4-3.4-2.4-10.7c-2-7.2-3.7-16.1-3.7-16.1l-3.2,11.2
				c2.7,5.3,6.2,11.6,6.8,14.7c0.9,4.5-1.6,14.7-1.4,15.4c0.2,0.8,1.3,1.4,3,2C128.43,132.86,129.13,122.66,129.13,120.56z"/>
			<path style="fill:#D8BDBC;" d="M126.33,74.46l-0.2,0.4c0,0-10.1,4-15.3,7.2c0,0,1.4-2.5,2.1-3.6
				C113.03,78.46,122.93,73.36,126.33,74.46z"/>
			<g>
				<polygon style="fill:#32343F;" points="126.23,74.56 113.13,79.06 112.93,78.56 126.23,73.96 				"/>
				<polygon style="fill:#3A3C49;" points="126.23,73.96 112.93,78.56 113.03,74.96 123.93,71.26 				"/>
				<polygon style="fill:#FFBA40;" points="114.83,77.86 113.63,78.26 113.63,74.76 114.63,74.46 				"/>
				<polygon style="fill:#FFBA40;" points="116.53,77.26 115.33,77.76 114.93,74.26 115.93,73.96 				"/>
				<polygon style="fill:#FFBA40;" points="118.23,76.76 117.03,77.16 116.33,73.86 117.33,73.46 				"/>
				<polygon style="fill:#FFBA40;" points="119.93,76.16 118.73,76.56 117.73,73.36 118.73,72.96 				"/>
				<g>
					<polygon style="fill:#FFBA40;" points="121.23,75.06 120.23,74.96 122.13,73.06 123.13,73.06 					"/>
					<polygon style="fill:#FFBA40;" points="121.13,75.06 121.83,74.46 118.83,74.16 118.13,74.76 					"/>
					<polygon style="fill:#FFBA40;" points="120.23,72.96 119.63,73.46 122.53,73.66 123.13,73.16 					"/>
					<polygon style="fill:#FFBA40;" points="120.13,72.96 121.03,72.96 119.03,74.86 118.13,74.76 					"/>
				</g>
			</g>
			<g>
				<polygon style="fill:#32343F;" points="158.53,74.06 170.83,78.16 171.13,77.66 158.53,73.46 				"/>
				<polygon style="fill:#3A3C49;" points="158.53,73.46 171.13,77.66 171.03,74.26 160.63,70.86 				"/>
				<polygon style="fill:#FFBA40;" points="169.23,77.06 170.43,77.36 170.43,74.06 169.43,73.76 				"/>
				<polygon style="fill:#FFBA40;" points="167.63,76.46 168.83,76.86 169.13,73.66 168.13,73.36 				"/>
				<polygon style="fill:#FFBA40;" points="166.03,75.96 167.23,76.36 167.73,73.16 166.83,72.86 				"/>
				<polygon style="fill:#FFBA40;" points="164.43,75.46 165.63,75.86 166.43,72.76 165.53,72.46 				"/>
				<g>
					<polygon style="fill:#FFBA40;" points="163.23,74.46 164.13,74.36 162.33,72.56 161.43,72.66 					"/>
					<polygon style="fill:#FFBA40;" points="163.23,74.46 162.63,73.86 165.43,73.56 166.03,74.16 					"/>
					<polygon style="fill:#FFBA40;" points="164.13,72.46 164.73,72.96 161.93,73.16 161.43,72.66 					"/>
					<polygon style="fill:#FFBA40;" points="164.13,72.46 163.33,72.46 165.23,74.26 166.03,74.16 					"/>
				</g>
			</g>
			<g>
				<path style="fill:#CCC3D1;" d="M153.03,21.06c0,0,2.8,1.7,2.5,4.5c-0.3,2.7-0.9,8.7-0.6,12.5l-5.9-4.7L153.03,21.06z"/>
				<path style="fill:#231F20;" d="M123.03,41.26c2.5,8.2,9.2,16.2,12.9,15.2s4.4-16.8,1.9-25s-5.8-10.1-9.1-7.4
					C125.83,26.56,120.43,33.16,123.03,41.26z"/>
				<path style="fill:#F4BE84;" d="M130.83,49.06c3.2,19.2,15.6,17.4,19.6,16.4c6.2-1.6,7.7-7.3,5-19.6c-1.5-11.8,2-20.5-12.3-18.8
					C131.13,28.36,128.43,35.06,130.83,49.06z"/>
				<path style="fill:#E2A36A;" d="M139.23,27.66c-5.1,3.4-6.5,8.4-5.1,19.9c2.1,17,10.1,17.7,15.5,18c-4.5,1-15.8,1.6-18.8-16.6
					C128.73,36.76,130.53,30.06,139.23,27.66z"/>
				<path style="fill:#E2A36A;" d="M127.03,50.96c0.1,1.9,1.7,3.4,3.7,3.3c2-0.1,3.6-1.6,3.5-3.5s-1.7-3.4-3.7-3.3
					C128.53,47.56,127.03,49.06,127.03,50.96z"/>
				<path style="fill:#231F20;" d="M141.73,29.86c0,0-7.3,0.7-8.5,7.4c-1.3,7.1,0.5,12.6,0.5,12.6l-1.2,0.2c0,0-0.2-2-2.4-2.7
					C128.33,40.86,126.53,29.66,141.73,29.86z"/>
				<path style="fill:#231F20;" d="M135.93,41.86c0,0,2.9-2,6.7-3.9l-1.1-2.4c0,0-3.5,1.1-6.3,4.6L135.93,41.86z"/>
				<path style="fill:#231F20;" d="M155.23,40.06c0,0-1.5-0.9-5.5-2.3l0.8-2.4c0,0,2.8,0.6,5.3,3.1L155.23,40.06z"/>
				<g>
					<path style="fill:#FFE5CC;" d="M142.93,42.86c0,0,0.2,2.6-0.5,3.3c-0.7,0.6-2.6,0.9-3.8-1
						C138.53,45.06,140.93,42.66,142.93,42.86z"/>
					<path style="fill:#946246;" d="M139.93,44.86c0,0.9,0.7,1.7,1.6,1.6c0.8,0,1.5-0.8,1.5-1.8s-0.7-1.7-1.6-1.6
						C140.53,43.16,139.93,43.96,139.93,44.86z"/>
					<g>
						<path style="fill:#875634;" d="M138.23,45.46c0,0,1.3-1.7,5-2.4l0.1-1c0,0-3.4,0.6-5.3,3.1L138.23,45.46z"/>
					</g>
				</g>
				<g>
					<path style="fill:#FFE5CC;" d="M153.63,41.56c0,0,0.2,2.4-0.5,3s-2.4,0.8-3.5-0.9C149.63,43.66,151.83,41.46,153.63,41.56z"/>
					<path style="fill:#946246;" d="M150.93,43.46c0,0.9,0.7,1.5,1.4,1.5c0.8,0,1.4-0.7,1.3-1.6c0-0.9-0.7-1.5-1.4-1.5
						C151.53,41.86,150.93,42.56,150.93,43.46z"/>
					<g>
						<path style="fill:#875634;" d="M149.33,43.96c0,0,1.3-1.8,4.5-2.2l0.1-0.9c0,0-3.1,0.5-4.8,2.8L149.33,43.96z"/>
					</g>
				</g>
				<g>
					<path style="fill:#231F20;" d="M133.03,46.46c0,0,1.4,8.6,15.9,6.5c0,0,6.6-1.4,6.9-5.1c0,0,1.7,7.8,3.5,14
						c0,0-1.2,5.5-8.1,7.4c-6.2,1.8-16.8-0.8-19.2-15.2c0,0,0.9-1.3,0.6-3.9L133.03,46.46z"/>
					<path style="fill:#231F20;" d="M159.23,61.76c0,0-1.1,5.4-8.1,7.4s-16.8-0.8-19.2-15.2c0,0,0.8-1,0.6-3.9
						c0,0,3.1,20.3,18.3,17.9C150.83,67.96,155.33,66.86,159.23,61.76z"/>
				</g>
				<path style="fill:#F4E3D3;" d="M115.43,37.46c0,0-2.9-0.9,10.3-12.3c14.2-12.4,12.5-16.1,26.7-15
					C157.83,10.56,115.43,37.46,115.43,37.46z"/>
				<path style="fill:#D69356;" d="M129.63,48.86c0.4-0.2,0.9-0.3,1.3-0.2c-0.1,0-0.2,0-0.3,0.1c-1,0.6-1.4,1.8-0.8,2.8
					c0.3,0.6,0.9,0.9,1.5,0.9c-1,0.4-2,0.1-2.5-0.8C128.23,50.76,128.63,49.46,129.63,48.86z"/>
				<g>
					<path style="fill:#9B6237;" d="M153.03,54.26l-9,1.2c0,0,2.1,3.8,5.1,3.3S153.03,54.26,153.03,54.26z"/>
					<polygon style="fill:#F9E8CA;" points="151.73,54.96 144.83,55.86 145.53,56.66 151.33,55.96 					"/>
				</g>
				<path style="fill:#D8BDBC;" d="M122.73,40.46c0,0-7.3,0-7.4-2.9c-0.1-3.3,5.6-4.9,10.6-9.6c5-4.7,10.5-20.1,24.4-18.1
					c14.7,2,5.4,17.9,5.4,17.9s-7.3-3.8-14.7-2C133.73,27.36,122.73,40.46,122.73,40.46z"/>
				<path style="fill:#3A3C49;" d="M124.83,45.86c-0.9-1.8-1.6-3.6-2.1-5.4c0,0,6.4-18.5,23.7-18.7c0,0,8.3,0,9.4,6l-0.9,5.6
					c0,0-2-5.8-9.6-5.3C131.33,28.76,124.83,45.86,124.83,45.86z"/>
				<path style="fill:#231F20;" d="M149.23,52.56c0,0-1.6-2.5-4.8-1.4c-2.3,0.8-4.3,6.4-7.2,3.9c0,0,1.8,3.5,6.5,1.9
					C148.33,55.16,149.23,52.56,149.23,52.56z"/>
				<path style="fill:#231F20;" d="M149.03,52.66c0,0,0.7-2.4,3.4-2.2c2,0.1,5,4.4,6.2,1.3c0,0-0.1,3.8-4.1,3.5
					C150.53,54.96,149.03,52.66,149.03,52.66z"/>
				<path style="fill:#D69356;" d="M148.13,40.06c0,0-0.8,1.7-0.7,3.6c0.1,1.9,1.1,3.2,2.4,3.4c1.7,0.3,2.4,0.8,2.3,1.7
					c0,0.9-0.6,1.6-1.8,2c-1.1,0.4-2.7,0.5-2.7,0.3c0,0,3.6-0.3,3.5-2.2c-0.1-0.8-1.3-0.7-2.5-1.3
					C145.83,46.16,146.53,41.46,148.13,40.06z"/>
				<path style="fill:#231F20;" d="M130.53,47.46l-2.3-5.7c0,0,4.8-8.5,10.7-11.2l-3.6,1.2c0,0-6.9,5-10.5,14.2c0,0,1.4,2.8,2.4,4.1
					C127.23,49.96,128.23,47.56,130.53,47.46z"/>
				<path style="fill:#333132;" d="M148.63,51.86c-0.2,0.4-1.2,2.7-5.5,4.3c-3.2,1.2-5.1-0.2-5.9-1.1c0.2,0.4,2.1,3.4,6.5,1.8
					c4.7-1.7,5.5-4.3,5.5-4.3S149.03,52.26,148.63,51.86z"/>
				<path style="fill:#333132;" d="M154.83,54.46c-3.5-0.3-5.1-2-5.4-2.5c-0.2,0.4-0.3,0.7-0.3,0.7s1.5,2.3,5.5,2.6
					c2.9,0.2,3.8-1.8,4-2.8C158.13,53.36,157.13,54.66,154.83,54.46z"/>
				<path style="fill:#CEB3B3;" d="M115.73,38.06c-0.1-3.3,5.6-4.9,10.6-9.6c5-4.7,10.5-20.1,24.4-18.1c3.9,0.5,6.1,2.1,7.2,4
					c-1-2.2-3.3-4-7.5-4.5c-13.9-1.9-19.4,13.4-24.4,18.1s-10.7,6.3-10.6,9.6c0,0.4,0.2,0.7,0.4,1
					C115.73,38.36,115.73,38.26,115.73,38.06z"/>
				<g>
					<path style="fill:#3A3C49;" d="M152.43,20.06c-0.5,2.4-2.6,4.1-4.8,3.6c-2.1-0.4-3.5-2.8-3-5.2s2.6-4.1,4.8-3.6
						C151.53,15.26,152.93,17.56,152.43,20.06z"/>
					<g>
						<polygon style="fill:#FFBA40;" points="148.73,20.96 147.63,20.76 148.73,16.56 149.43,16.66 						"/>
						<polygon style="fill:#FFBA40;" points="150.33,18.26 149.23,17.96 148.43,17.76 147.33,17.56 147.33,17.26 148.53,17.26 
							149.33,17.46 150.33,17.86 						"/>
						<path style="fill:#FFBA40;" d="M149.23,15.66c-0.2,0-0.4,0.2-0.5,0.4c-0.1,0.3,0,0.6,0.2,0.6s0.4-0.2,0.5-0.4
							C149.53,15.96,149.43,15.66,149.23,15.66z M149.13,16.56c-0.1,0-0.2-0.2-0.2-0.4c0-0.2,0.2-0.3,0.3-0.3s0.2,0.2,0.2,0.4
							S149.23,16.56,149.13,16.56z"/>
						<path style="fill:#FFBA40;" d="M150.63,20.16c-0.1,0.2-0.7,0.6-0.7,0.6h0.4c-0.8,1-1.6,0.7-1.6,0l-0.5-0.1l0,0l-0.5-0.1
							c-0.3,0.7-1.1,0.6-1.5-0.6l0.3,0.1c0,0-0.4-0.6-0.4-0.8c0,0-0.4,0.5-0.4,0.9l0.2-0.2c0,0.3-0.2,1.2,0.8,1.8c0.8,0.5,1,0.9,1,1
							l0,0l0,0l0,0l0,0c0-0.1,0.3-0.4,1.3-0.5c1.1-0.1,1.4-1.1,1.4-1.3l0.1,0.3C150.83,20.76,150.63,20.16,150.63,20.16z
							 M146.13,19.76L146.13,19.76L146.13,19.76L146.13,19.76z M150.43,20.66L150.43,20.66L150.43,20.66L150.43,20.66z"/>
					</g>
				</g>
				<path style="fill:#FFBA40;" d="M144.13,24.36c-12.3,1.1-19.3,14.2-20.9,17.7c0.2,0.5,0.4,1,0.6,1.5c0.9-2,7.8-16.8,20.8-18
					c6-0.5,9.4,1.8,11,3.5l0.2-1.2C153.93,26.16,150.23,23.76,144.13,24.36z"/>
				<path style="fill:#32343F;" d="M135.33,31.66c0,0,5.5-8.4,21.8-5.2c12.4,2.4-2.2,6.8-2.2,6.8S150.33,25.96,135.33,31.66z"/>
				<path style="opacity:0.2;fill:#32343F;enable-background:new    ;" d="M128.73,30.36c-4.2,4.9-6,10.1-6,10.1
					c0.5,1.8,1.2,3.6,2.1,5.4c0,0,2.1-5.4,6.4-10.3C129.93,33.46,129.23,31.66,128.73,30.36z"/>
			</g>
			<g>
				<path style="fill:#32343F;" d="M165.43,135.26c-0.6,1.2-3.3,3.3-15.2,4c-7.7,0.4-22.1-0.8-24.8-3.5c-0.6,1.3-0.6,2.2-0.3,3.4
					c0,0,7.9,3.9,24.5,3.3c15.1-0.6,16.1-4.2,16.1-4.2C166.03,136.96,165.93,136.26,165.43,135.26L165.43,135.26z"/>
				<path style="fill:#FFD67B;" d="M147.23,138.36l0.1,5.2l8-0.3l-0.1-5.2L147.23,138.36z M153.83,142.36l-5,0.2l-0.1-3.2l5-0.2
					L153.83,142.36z"/>
				
					<rect x="127.97" y="138.92" transform="matrix(0.1281 -0.9918 0.9918 0.1281 -25.1095 250.778)" style="fill:#3A3C49;" width="4.2" height="1.5"/>
				
					<rect x="138.88" y="140.32" transform="matrix(0.0287 -0.9996 0.9996 0.0287 -4.079 277.9352)" style="fill:#3A3C49;" width="4.2" height="1.5"/>
				
					<rect x="159.72" y="137.85" transform="matrix(0.9893 -0.1457 0.1457 0.9893 -18.6786 24.8747)" style="fill:#3A3C49;" width="1.5" height="4.2"/>
			</g>
		</g>
	</g>
</g>
</svg>
