<?xml version="1.0" encoding="utf-8"?>
<!-- Generator: Adobe Illustrator 25.1.0, SVG Export Plug-In . SVG Version: 6.00 Build 0)  -->
<svg version="1.1" id="Layer_1" xmlns="http://www.w3.org/2000/svg" xmlns:xlink="http://www.w3.org/1999/xlink" x="0px" y="0px"
	 viewBox="0 0 300 265" style="enable-background:new 0 0 300 265;" xml:space="preserve">
<style type="text/css">
	.st0{fill:#DDE9F1;}
	.st1{fill:#F9F6FA;}
	.st2{fill:#F8F8F8;}
	.st3{fill:#002039;}
	.st4{fill:#19334F;}
	.st5{fill:#D14833;}
	.st6{fill:#FFFFFF;}
	.st7{fill:#276883;}
	.st8{fill:#EFBE40;}
	.st9{fill:none;stroke:#19334F;stroke-width:0.9898;stroke-linecap:round;stroke-linejoin:round;stroke-miterlimit:10;}
	.st10{fill:#87888C;}
	.st11{opacity:0.5;fill:#87888C;enable-background:new    ;}
	.st12{fill:#27405A;}
	.st13{opacity:0.2;fill:#276883;enable-background:new    ;}
	.st14{opacity:0.5;fill:#276883;enable-background:new    ;}
	.st15{fill:#83C6FF;}
	.st16{fill:#F9E9BF;}
	.st17{fill:#FFAC92;}
	.st18{opacity:0.5;fill:#EFBE40;enable-background:new    ;}
	.st19{fill:#FF926F;}
	.st20{opacity:0.5;}
</style>
<g id="BACKGROUND">
	<g>
		<g>
			<g>
				<path class="st0" d="M299.7,163.7c0,0.4-0.1,0.8-0.1,1.2c-0.1,0.8-0.2,1.5-0.4,2.3c-0.1,0.9-0.3,1.7-0.5,2.5
					c-0.3,1.3-0.6,2.5-1,3.7c-0.4,1.4-1,2.7-1.5,4.1c-4.1,9.8-11.2,17.8-19.7,21.5c-7.7,3.4-15.9,3.3-24.1,1.7c-5-1-10-2.6-14.8-4.4
					c-8.6-3.2-17.1-6.9-25.9-8.8c-4.2-0.9-8.4-1.4-12.7-1.2c-13.7,0.6-26.6,8.1-40,11.6c-32.6,8.4-65.9-7.6-99.2-7.6
					c-8.9,0-17.8,1.1-26.7-0.1c-8.9-1.2-17.9-5-23.8-13.1c-3.2-4.4-5.3-9.8-6.5-15.6c0-0.2-0.1-0.4-0.1-0.6
					c-1.1-5.4-1.5-11.2-1.5-16.8c0.1-8.4,1-16.8,1.4-25.1c0.2-3.3,0.2-6.7,0.1-10c0-1.3-0.1-2.7-0.2-4c-0.2-2.4-0.3-4.8-0.6-7.2
					C0.3,82-2.2,66.2,3.8,52.8C11.4,35.5,29.9,30.6,46,31.2c12.3,0.5,24.6,3.1,36.8,1.4c10.3-1.4,18.5-9.8,27.1-16.2
					c6.2-4.7,12.7-8.9,19.6-11.9C142.1-1,156.6-2.2,168.8,5c11,6.5,19,19,30.1,25.3c10.9,6.2,23.6,5.4,35.5,3.5
					c11.9-1.9,24-4.9,35.9-2.9s24,10.5,27.9,24.5c4.5,16.4-3.3,33.8-3.9,51c-0.2,5.6,0.4,11.2,1.2,16.7c0.1,0.7,0.2,1.3,0.3,2
					c0.8,5.1,1.9,10.3,2.7,15.4c0,0.1,0,0.3,0.1,0.4C299.7,148.4,300.5,156.1,299.7,163.7z"/>
			</g>
		</g>
		<g>
			<path class="st0" d="M299.7,163.7c-0.1,1.2-0.3,2.3-0.5,3.4c-2.6,14.3-11.5,26.8-22.8,31.8c-12.5,5.4-26.2,2-38.9-2.7
				c-12.6-4.7-25.4-10.6-38.6-10.1c-13.7,0.6-26.6,8.1-40,11.6c-32.6,8.4-65.9-7.6-99.2-7.6c-8.9,0-17.8,1.1-26.7-0.1
				c-8.9-1.2-17.9-5-23.8-13.1c-3.2-4.4-5.3-9.8-6.5-15.6c-1.2-5.6-1.6-11.6-1.6-17.4c0.1-8.4,1-16.8,1.4-25.1
				c9,1.6,17.3,5.8,26.1,8c16.6,4.3,35.2,1.6,49.6-7.4c8.4-5.2,15.5-12,24.6-16c9-4,18-2.6,26.7,1.5c6.4,3,12.5,6.8,19.3,9
				c7.4,2.3,15.4,1.9,22.9,0.2c7.6-1.7,14.9-4.6,22.4-6.9c17.5-5.4,36.9-7,52.8,3.3c8.4,5.5,9.4,15.4,15.9,22.3
				c6.4,6.7,17,7.6,26.6,7.5c3-0.1,6-0.1,9-0.1c0,0.1,0,0.3,0.1,0.4C299.7,148.4,300.5,156.1,299.7,163.7z"/>
		</g>
	</g>
</g>
<g id="OBJECTS">
	<g>
		<g>
			<path class="st1" d="M202.4,70.1c-2,0.6-2.4,1.3-3.6-0.9c-1-1.9-1.7-3.6-3.2-5c-2.1-1.9-4.6-3-6.5-0.3c-0.9,1.3-1.6,3-2.6,4.1
				c-1.1,1.2-2.7-0.1-4.1-0.3c-1.9-0.3-2.9,0.6-3.6,1.9c-0.9,1.4-2.3,2.3-3.8,2.3c-0.1,0-0.2,0-0.3,0c-1.2,0.1-2.9,1.2-2.1,2.8
				c1.4,2.7,6.1,1.6,8.3,1.7c6.4,0.3,12.7,0.5,19,0.5c1.8,0,6-0.1,6.7-2.5C207.5,71.6,204.4,69.5,202.4,70.1z"/>
		</g>
		<g>
			<path class="st1" d="M150.9,31.8c-2.9,0.9-3.6,1.9-5.3-1.3c-1.5-2.8-2.5-5.3-4.8-7.4c-3.1-2.8-6.8-4.5-9.6-0.5
				c-1.4,1.9-2.4,4.4-3.9,6c-1.7,1.8-4.1-0.1-6.1-0.5c-2.8-0.5-4.2,0.9-5.4,2.8c-1.3,2.1-3.4,3.4-5.6,3.5c-0.1,0-0.3,0-0.4,0
				c-1.8,0.2-4.4,1.8-3.1,4.2c2.1,3.9,9,2.4,12.3,2.6c9.5,0.5,18.9,0.8,28.3,0.8c2.6,0,8.9-0.1,10-3.7
				C158.6,34,153.9,30.9,150.9,31.8z"/>
		</g>
		<g>
			<path class="st1" d="M260,52.8c-2.4,0.7-2.9,1.5-4.2-1c-1.2-2.3-2-4.2-3.8-5.9c-2.5-2.2-5.5-3.6-7.7-0.4
				c-1.1,1.5-1.9,3.5-3.1,4.8c-1.4,1.4-3.2-0.1-4.9-0.4c-2.2-0.4-3.4,0.7-4.3,2.2c-1,1.7-2.7,2.7-4.5,2.8c-0.1,0-0.2,0-0.4,0
				c-1.4,0.2-3.5,1.4-2.4,3.4c1.6,3.2,7.2,1.9,9.8,2.1c7.6,0.4,15.1,0.6,22.7,0.6c2.1,0,7.1-0.1,8-2.9
				C266.1,54.6,262.3,52.1,260,52.8z"/>
		</g>
		<g>
			<path class="st2" d="M65.4,59.8c-1.2-3.9-4.7,0-6.5-1.2c-1.8-1.1-1.8-3.4-2.5-5.5c-0.7-2.2-2.2-3.6-4-3.7
				c-3.9-0.3-2.8,5.6-5.6,7.2c-1.6,0.9-2.6,0.4-4.2,0c-1.3-0.3-2.9,0.2-3.6,1.7c-0.8,2-0.8,2.8-2.8,2.7c-1.2-0.1-2.4,0.1-3.2,1.4
				c-1.1,1.6-0.6,3.6,1,4c0.5,0.2,23.7-0.3,27.8-0.3c0.7,0,1.3-0.2,2-0.5C65.1,64.8,66.4,63.2,65.4,59.8z"/>
		</g>
	</g>
	<g>
		<g>
			<rect x="17" y="127.1" class="st3" width="17.5" height="38.2"/>
			<path class="st4" d="M21.6,160.9L21.6,160.9c-1.1,0-2-1.1-2-2.4v-24.9c0-1.3,0.9-2.4,2-2.4l0,0c1.1,0,2,1.1,2,2.4v24.9
				C23.7,159.9,22.8,160.9,21.6,160.9z"/>
			<path class="st4" d="M29.4,160.9L29.4,160.9c-1.1,0-2-1.1-2-2.4v-24.9c0-1.3,0.9-2.4,2-2.4l0,0c1.1,0,2,1.1,2,2.4v24.9
				C31.4,159.9,30.5,160.9,29.4,160.9z"/>
		</g>
		<g>
			<rect x="52" y="127.1" class="st3" width="17.5" height="38.2"/>
			<path class="st4" d="M56.6,160.9L56.6,160.9c-1.1,0-2-1.1-2-2.4v-24.9c0-1.3,0.9-2.4,2-2.4l0,0c1.1,0,2,1.1,2,2.4v24.9
				C58.7,159.9,57.8,160.9,56.6,160.9z"/>
			<path class="st4" d="M64.4,160.9L64.4,160.9c-1.1,0-2-1.1-2-2.4v-24.9c0-1.3,0.9-2.4,2-2.4l0,0c1.1,0,2,1.1,2,2.4v24.9
				C66.4,159.9,65.5,160.9,64.4,160.9z"/>
		</g>
		<rect x="11.3" y="123.9" class="st5" width="62.5" height="3.1"/>
		<rect x="11.3" y="106.6" class="st5" width="62.5" height="3.1"/>
		<rect x="13.1" y="109.7" class="st3" width="58.4" height="14.3"/>
		<polygon class="st5" points="13.1,109.7 71.6,109.7 71.6,123.9 		"/>
		<rect x="27.3" y="114" class="st6" width="8.3" height="5"/>
		<rect x="49.2" y="114" class="st6" width="8.3" height="5"/>
		<rect x="61.7" y="114" class="st6" width="8.3" height="5"/>
		<rect x="15.8" y="114" class="st6" width="8.3" height="5"/>
		<g>
			<rect x="54.6" y="107.4" class="st7" width="0.8" height="16.5"/>
			<rect x="59.5" y="107.4" class="st7" width="0.8" height="16.5"/>
			<rect x="54.6" y="110.4" class="st7" width="5.7" height="0.6"/>
			<rect x="54.6" y="113.3" class="st7" width="5.7" height="0.6"/>
			<rect x="54.6" y="116.2" class="st7" width="5.7" height="0.6"/>
			<rect x="54.6" y="119.1" class="st7" width="5.7" height="0.6"/>
			<rect x="54.6" y="122" class="st7" width="5.7" height="0.6"/>
		</g>
		<g>
			<rect x="17.9" y="92.2" class="st8" width="49.2" height="14.3"/>
			<polygon class="st8" points="17.9,92.2 67.2,92.2 67.2,106.6 			"/>
			<rect x="27.3" y="96.2" class="st6" width="8.3" height="5"/>
			<rect x="50.5" y="96.2" class="st6" width="8.3" height="5"/>
			<rect x="39.7" y="96.5" class="st3" width="5.8" height="10"/>
			<rect x="39.7" y="114.1" class="st6" width="5.8" height="10"/>
		</g>
		<g>
			<rect x="26.5" y="77.7" class="st5" width="32.2" height="14.5"/>
			<polygon class="st5" points="26.5,77.9 58.7,77.9 58.7,92.2 			"/>
			<rect x="29.9" y="81.9" class="st6" width="5.4" height="5"/>
			<rect x="50.1" y="81.9" class="st6" width="5.4" height="5"/>
			<rect x="39.7" y="82.2" class="st3" width="5.8" height="10"/>
		</g>
		<g>
			<g>
				<polygon class="st9" points="130.1,59.5 124.9,57.8 66.8,90.6 68.3,94.3 				"/>
				<g>
					<line class="st9" x1="70" y1="88.8" x2="68.3" y2="94.3"/>
				</g>
				<g>
					<line class="st9" x1="70" y1="88.8" x2="74.9" y2="90.7"/>
					<line class="st9" x1="73.3" y1="86.9" x2="71.6" y2="92.5"/>
				</g>
				<g>
					<line class="st9" x1="73.3" y1="86.9" x2="78.1" y2="88.8"/>
					<line class="st9" x1="76.5" y1="85.1" x2="74.9" y2="90.7"/>
				</g>
				<g>
					<line class="st9" x1="76.5" y1="85.1" x2="81.4" y2="87"/>
					<line class="st9" x1="79.8" y1="83.2" x2="78.1" y2="88.8"/>
				</g>
				<g>
					<line class="st9" x1="79.8" y1="83.2" x2="84.6" y2="85.2"/>
					<line class="st9" x1="83" y1="81.4" x2="81.4" y2="87"/>
				</g>
				<g>
					<line class="st9" x1="83" y1="81.4" x2="87.9" y2="83.3"/>
					<line class="st9" x1="86.3" y1="79.6" x2="84.6" y2="85.2"/>
				</g>
				<g>
					<line class="st9" x1="86.3" y1="79.6" x2="91.1" y2="81.5"/>
					<line class="st9" x1="89.6" y1="77.7" x2="87.9" y2="83.3"/>
				</g>
				<g>
					<line class="st9" x1="89.6" y1="77.7" x2="94.4" y2="79.7"/>
					<line class="st9" x1="92.8" y1="75.9" x2="91.1" y2="81.5"/>
				</g>
				<g>
					<line class="st9" x1="92.8" y1="75.9" x2="97.7" y2="77.8"/>
					<line class="st9" x1="96.1" y1="74.1" x2="94.4" y2="79.7"/>
				</g>
				<g>
					<line class="st9" x1="96.1" y1="74.1" x2="100.9" y2="76"/>
					<line class="st9" x1="99.3" y1="72.2" x2="97.7" y2="77.8"/>
				</g>
				<g>
					<line class="st9" x1="99.3" y1="72.2" x2="104.2" y2="74.2"/>
					<line class="st9" x1="102.6" y1="70.4" x2="100.9" y2="76"/>
				</g>
				<g>
					<line class="st9" x1="102.6" y1="70.4" x2="107.4" y2="72.3"/>
					<line class="st9" x1="105.8" y1="68.6" x2="104.2" y2="74.2"/>
				</g>
				<g>
					<line class="st9" x1="105.8" y1="68.6" x2="110.7" y2="70.5"/>
					<line class="st9" x1="109.1" y1="66.7" x2="107.4" y2="72.3"/>
				</g>
				<g>
					<line class="st9" x1="109.1" y1="66.7" x2="113.9" y2="68.7"/>
					<line class="st9" x1="112.3" y1="64.9" x2="110.7" y2="70.5"/>
				</g>
				<g>
					<line class="st9" x1="112.3" y1="64.9" x2="117.2" y2="66.8"/>
					<line class="st9" x1="115.6" y1="63.1" x2="113.9" y2="68.7"/>
				</g>
				<g>
					<line class="st9" x1="115.6" y1="63.1" x2="120.4" y2="65"/>
					<line class="st9" x1="118.8" y1="61.2" x2="117.2" y2="66.8"/>
				</g>
				<g>
					<line class="st9" x1="118.8" y1="61.2" x2="123.7" y2="63.2"/>
					<line class="st9" x1="122.1" y1="59.4" x2="120.4" y2="65"/>
				</g>
				<g>
					<line class="st9" x1="122.1" y1="59.4" x2="126.9" y2="61.3"/>
				</g>
			</g>
			<g>
				<ellipse class="st7" cx="67.4" cy="92.2" rx="3.4" ry="3.9"/>
				<path class="st4" d="M69.5,92.2c0,1.3-0.9,2.4-2.1,2.4c-1.2,0-2.1-1.1-2.1-2.4c0-1.3,0.9-2.4,2.1-2.4S69.5,90.9,69.5,92.2z"/>
			</g>
			<g>
				<rect x="126.8" y="61.5" class="st4" width="0.5" height="26.7"/>
				<rect x="121.4" y="97.7" class="st4" width="11.3" height="1"/>
				<g>
					<rect x="117.4" y="85.2" class="st5" width="18.8" height="12.4"/>
					<g>
						<rect x="118.2" y="86" class="st5" width="1.1" height="10.9"/>
						<rect x="119.8" y="86" class="st5" width="1.1" height="10.9"/>
						<rect x="121.4" y="86" class="st5" width="1.1" height="10.9"/>
						<rect x="123" y="86" class="st5" width="1.1" height="10.9"/>
						<rect x="124.6" y="86" class="st5" width="1.1" height="10.9"/>
						<rect x="126.3" y="86" class="st5" width="1.1" height="10.9"/>
						<rect x="127.9" y="86" class="st5" width="1.1" height="10.9"/>
						<rect x="129.5" y="86" class="st5" width="1.1" height="10.9"/>
						<rect x="131.1" y="86" class="st5" width="1.1" height="10.9"/>
						<rect x="132.8" y="86" class="st5" width="1.1" height="10.9"/>
						<rect x="134.4" y="86" class="st5" width="1.1" height="10.9"/>
					</g>
				</g>
				<g>
					<ellipse class="st7" cx="127.2" cy="59" rx="3.4" ry="3.9"/>
					<ellipse class="st4" cx="127.2" cy="59" rx="2.1" ry="2.4"/>
				</g>
			</g>
		</g>
		<g>
			<rect x="18.8" y="90" class="st7" width="0.8" height="16.6"/>
			<rect x="23.7" y="90" class="st7" width="0.8" height="16.6"/>
			<rect x="18.8" y="93.1" class="st7" width="5.7" height="0.6"/>
			<rect x="18.8" y="95.9" class="st7" width="5.7" height="0.6"/>
			<rect x="18.8" y="98.8" class="st7" width="5.7" height="0.6"/>
			<rect x="18.8" y="101.7" class="st7" width="5.7" height="0.6"/>
			<rect x="18.8" y="104.6" class="st7" width="5.7" height="0.6"/>
		</g>
	</g>
	<g>
		<g>
			<polygon class="st4" points="288.7,150.6 278.8,161.4 275.4,165.2 97.4,165.2 96,161.4 94.1,155.8 94.1,150.6 108.5,150.6 
				112.6,155.8 231.5,155.8 252.7,150.6 			"/>
			<rect x="124.7" y="145.7" class="st10" width="96.4" height="10.1"/>
			<polygon class="st11" points="124.7,145.7 221,155.8 221,145.7 			"/>
			<g>
				<rect x="133.1" y="148" class="st6" width="4.8" height="5.6"/>
				<rect x="126.8" y="148" class="st6" width="4.8" height="5.6"/>
				<rect x="139.4" y="148" class="st6" width="4.8" height="5.6"/>
				<rect x="145.6" y="148" class="st6" width="4.8" height="5.6"/>
				<rect x="151.9" y="148" class="st6" width="4.8" height="5.6"/>
				<rect x="158.2" y="148" class="st6" width="4.8" height="5.6"/>
				<rect x="164.5" y="148" class="st6" width="4.8" height="5.6"/>
				<rect x="170.8" y="148" class="st6" width="4.8" height="5.6"/>
				<rect x="177.1" y="148" class="st6" width="4.8" height="5.6"/>
				<rect x="183.3" y="148" class="st6" width="4.8" height="5.6"/>
				<rect x="189.6" y="148" class="st6" width="4.8" height="5.6"/>
				<rect x="195.9" y="148" class="st6" width="4.8" height="5.6"/>
				<rect x="202.2" y="148" class="st6" width="4.8" height="5.6"/>
				<rect x="208.5" y="148" class="st6" width="4.8" height="5.6"/>
				<rect x="214.7" y="148" class="st6" width="4.8" height="5.6"/>
			</g>
			<rect x="186.9" y="136.1" class="st7" width="23.9" height="9.6"/>
			<rect x="210.9" y="120.5" class="st12" width="10.2" height="25.2"/>
			<rect x="212.1" y="120.5" class="st4" width="1.1" height="25.2"/>
			<rect x="214.4" y="120.5" class="st4" width="1.1" height="25.2"/>
			<rect x="216.7" y="120.5" class="st4" width="1.1" height="25.2"/>
			<rect x="219" y="120.5" class="st4" width="1.1" height="25.2"/>
			<polygon class="st13" points="210.9,120.5 221.1,120.5 221.1,145.7 			"/>
			<polygon class="st7" points="219,120.5 206.2,107.3 203.4,107.3 211.4,120.5 			"/>
			<rect x="202.2" y="106.8" class="st12" width="13.3" height="1.8"/>
			<rect x="219.9" y="107.7" class="st12" width="1.2" height="12.8"/>
			<rect x="204.2" y="93.9" class="st12" width="0.9" height="12.9"/>
			<g>
				<rect x="221" y="128.8" class="st7" width="2.7" height="27"/>
				<rect x="221" y="130.4" class="st8" width="2.7" height="3.2"/>
				<rect x="221" y="135.3" class="st5" width="2.7" height="1.6"/>
			</g>
			<rect x="174.6" y="138.8" class="st4" width="12.4" height="6.9"/>
			<g>
				<g>
					<polygon class="st9" points="172.7,97.3 174.3,97.3 174.3,134.3 164.4,134.3 					"/>
					<polyline class="st9" points="165.4,129.9 174.3,123.4 168.2,117.4 174.3,110.2 170.7,105.9 174.3,101.7 172.7,97.3 					"/>
					<polyline class="st9" points="174.3,129.9 166.9,123.4 174.3,116.9 169.8,110.4 174.3,105.8 171.9,100.9 174.3,97.3 					"/>
					<rect x="173.3" y="89.6" class="st12" width="0.5" height="7.7"/>
				</g>
				<rect x="164.2" y="133.8" class="st7" width="10.3" height="11.9"/>
			</g>
			<rect x="145.1" y="142.3" class="st7" width="5.3" height="3.4"/>
			<polygon class="st5" points="278.8,161.4 275.4,165.2 97.4,165.2 96,161.4 			"/>
			<polygon class="st14" points="186.9,136.1 210.9,136.1 210.9,145.7 			"/>
			<polygon class="st14" points="164.2,133.8 174.6,133.8 174.6,145.7 			"/>
			<g>
				<rect x="125" y="133.5" class="st5" width="18.8" height="12.4"/>
				<g>
					<rect x="125.7" y="134.3" class="st5" width="1.1" height="10.9"/>
					<rect x="127.4" y="134.3" class="st5" width="1.1" height="10.9"/>
					<rect x="129" y="134.3" class="st5" width="1.1" height="10.9"/>
					<rect x="130.6" y="134.3" class="st5" width="1.1" height="10.9"/>
					<rect x="132.2" y="134.3" class="st5" width="1.1" height="10.9"/>
					<rect x="133.9" y="134.3" class="st5" width="1.1" height="10.9"/>
					<rect x="135.5" y="134.3" class="st5" width="1.1" height="10.9"/>
					<rect x="137.1" y="134.3" class="st5" width="1.1" height="10.9"/>
					<rect x="138.7" y="134.3" class="st5" width="1.1" height="10.9"/>
					<rect x="140.3" y="134.3" class="st5" width="1.1" height="10.9"/>
					<rect x="142" y="134.3" class="st5" width="1.1" height="10.9"/>
				</g>
			</g>
			<g>
				<rect x="144.4" y="121.2" class="st8" width="18.8" height="12.4"/>
				<g>
					<rect x="145.1" y="121.9" class="st8" width="1.1" height="10.9"/>
					<rect x="146.8" y="121.9" class="st8" width="1.1" height="10.9"/>
					<rect x="148.4" y="121.9" class="st8" width="1.1" height="10.9"/>
					<rect x="150" y="121.9" class="st8" width="1.1" height="10.9"/>
					<rect x="151.6" y="121.9" class="st8" width="1.1" height="10.9"/>
					<rect x="153.2" y="121.9" class="st8" width="1.1" height="10.9"/>
					<rect x="154.9" y="121.9" class="st8" width="1.1" height="10.9"/>
					<rect x="156.5" y="121.9" class="st8" width="1.1" height="10.9"/>
					<rect x="158.1" y="121.9" class="st8" width="1.1" height="10.9"/>
					<rect x="159.7" y="121.9" class="st8" width="1.1" height="10.9"/>
					<rect x="161.4" y="121.9" class="st8" width="1.1" height="10.9"/>
				</g>
			</g>
			<g>
				<rect x="125" y="121.2" class="st7" width="18.8" height="12.4"/>
				<g>
					<rect x="125.8" y="121.9" class="st7" width="1.1" height="10.9"/>
					<rect x="127.4" y="121.9" class="st7" width="1.1" height="10.9"/>
					<rect x="129" y="121.9" class="st7" width="1.1" height="10.9"/>
					<rect x="130.6" y="121.9" class="st7" width="1.1" height="10.9"/>
					<rect x="132.2" y="121.9" class="st7" width="1.1" height="10.9"/>
					<rect x="133.9" y="121.9" class="st7" width="1.1" height="10.9"/>
					<rect x="135.5" y="121.9" class="st7" width="1.1" height="10.9"/>
					<rect x="137.1" y="121.9" class="st7" width="1.1" height="10.9"/>
					<rect x="138.7" y="121.9" class="st7" width="1.1" height="10.9"/>
					<rect x="140.4" y="121.9" class="st7" width="1.1" height="10.9"/>
					<rect x="142" y="121.9" class="st7" width="1.1" height="10.9"/>
				</g>
			</g>
			<g>
				<rect x="144.5" y="133.5" class="st7" width="18.8" height="12.4"/>
				<g>
					<rect x="145.3" y="134.3" class="st7" width="1.1" height="10.9"/>
					<rect x="146.9" y="134.3" class="st7" width="1.1" height="10.9"/>
					<rect x="148.5" y="134.3" class="st7" width="1.1" height="10.9"/>
					<rect x="150.1" y="134.3" class="st7" width="1.1" height="10.9"/>
					<rect x="151.8" y="134.3" class="st7" width="1.1" height="10.9"/>
					<rect x="153.4" y="134.3" class="st7" width="1.1" height="10.9"/>
					<rect x="155" y="134.3" class="st7" width="1.1" height="10.9"/>
					<rect x="156.6" y="134.3" class="st7" width="1.1" height="10.9"/>
					<rect x="158.2" y="134.3" class="st7" width="1.1" height="10.9"/>
					<rect x="159.9" y="134.3" class="st7" width="1.1" height="10.9"/>
					<rect x="161.5" y="134.3" class="st7" width="1.1" height="10.9"/>
				</g>
			</g>
		</g>
		<g>
			<g>
				<path class="st15" d="M215,104.4c-0.1,0-0.2-0.1-0.2-0.2V75c0-0.1,0.1-0.2,0.2-0.2h50.4c0.1,0,0.2,0.1,0.2,0.2s-0.1,0.2-0.2,0.2
					h-50.2v28.9C215.2,104.3,215.1,104.4,215,104.4z"/>
			</g>
			<g>
				<path class="st15" d="M281.7,68.1c0-5-3.6-8.9-7.9-8.7c-3.9,0.2-7.1,4-7.2,8.4c-0.1,2.4,0.8,4.7,2.1,6.3c1.4,1.6,2.1,3.8,2.1,6
					l0,0h6.6l0,0c0-2.3,0.8-4.4,2.2-6C280.9,72.5,281.7,70.4,281.7,68.1z"/>
				<path class="st15" d="M279,81.3c0,0.3-0.1,0.6-0.3,0.8s-0.4,0.3-0.7,0.3h-7.7c-0.6,0-1-0.5-1-1.2c0-0.3,0.1-0.6,0.3-0.8
					c0.2-0.2,0.4-0.3,0.7-0.3h7.7C278.5,80.1,279,80.7,279,81.3z"/>
				<path class="st15" d="M279,83.7c0,0.3-0.1,0.6-0.3,0.8s-0.4,0.3-0.7,0.3h-7.8c-0.5,0-1-0.5-1-1.2c0-0.3,0.1-0.6,0.3-0.8
					c0.2-0.2,0.4-0.3,0.7-0.3h7.7C278.5,82.5,279,83,279,83.7z"/>
				<path class="st15" d="M278,84.8c-0.1,2.4-1.8,4.2-3.9,4.2c-2.1,0-3.8-1.9-3.9-4.2H278z"/>
			</g>
			<g>
				<path class="st15" d="M161.7,138h-9.9c-0.1,0-0.2-0.1-0.2-0.2V84.1c0-0.1,0.1-0.2,0.2-0.2s0.2,0.1,0.2,0.2v53.4h9.7
					c0.1,0,0.2,0.1,0.2,0.2S161.8,138,161.7,138z"/>
			</g>
			<path class="st15" d="M282.1,126v-2.9h-2.9c-0.1-0.8-0.4-1.5-0.8-2.2l2.1-2.4l-1.8-2l-2.1,2.4c-0.6-0.4-1.2-0.7-1.9-0.9v-3.4
				h-2.5v3.4c-0.7,0.2-1.3,0.5-1.9,0.9l-2.1-2.4l-1.8,2l2.1,2.4c-0.4,0.7-0.6,1.4-0.8,2.2H265v2.9h2.9c0.1,0.8,0.4,1.5,0.8,2.2
				l-2.1,2.4l1.8,2l2.1-2.4c0.6,0.4,1.2,0.7,1.9,0.9v3.4h2.5v-3.4c0.7-0.2,1.3-0.5,1.9-0.9l2.1,2.4l1.8-2l-2.1-2.4
				c0.4-0.7,0.6-1.4,0.8-2.2H282.1z M273.5,129.3c-2.2,0-4.1-2.1-4.1-4.7c0-2.6,1.8-4.7,4.1-4.7c2.2,0,4.1,2.1,4.1,4.7
				C277.6,127.2,275.8,129.3,273.5,129.3z"/>
			<g>
				<path class="st15" d="M262.4,125.3h-39.7c-0.1,0-0.2-0.1-0.2-0.2s0.1-0.2,0.2-0.2h39.7c0.1,0,0.2,0.1,0.2,0.2
					S262.5,125.3,262.4,125.3z"/>
			</g>
			<g>
				<g>
					<path class="st15" d="M151.8,84.1c-6.3,0-11.4-5.9-11.4-13.1s5.1-13.1,11.4-13.1c6.3,0,11.4,5.9,11.4,13.1S158,84.1,151.8,84.1
						z M151.8,58.8c-5.8,0-10.6,5.5-10.6,12.2s4.7,12.2,10.6,12.2s10.6-5.5,10.6-12.2C162.3,64.2,157.6,58.8,151.8,58.8z"/>
				</g>
				<g>
					<path class="st15" d="M151.8,80.5c-4.6,0-8.3-4.3-8.3-9.6c0-5.3,3.7-9.6,8.3-9.6c4.6,0,8.3,4.3,8.3,9.6
						C160.1,76.2,156.3,80.5,151.8,80.5z M151.8,62.3c-4.1,0-7.5,3.9-7.5,8.6c0,4.8,3.4,8.6,7.5,8.6s7.5-3.9,7.5-8.6
						C159.3,66.2,155.9,62.3,151.8,62.3z"/>
				</g>
				<g>
					<path class="st15" d="M151.8,75.6c-2.2,0-4-2.1-4-4.7c0-2.6,1.8-4.7,4-4.7s4,2.1,4,4.7C155.8,73.5,154,75.6,151.8,75.6z
						 M151.8,67.2c-1.8,0-3.2,1.7-3.2,3.7c0,2.1,1.4,3.7,3.2,3.7S155,73,155,71C155,68.9,153.6,67.2,151.8,67.2z"/>
				</g>
				<g>
					<path class="st15" d="M153.9,71c0,1.4-1,2.5-2.1,2.5c-1.2,0-2.1-1.1-2.1-2.5s1-2.5,2.1-2.5C153,68.5,153.9,69.6,153.9,71z"/>
				</g>
				<g>
					<rect x="151.4" y="58.3" class="st15" width="0.7" height="11.5"/>
				</g>
				<g>
					<path class="st15" d="M146,75.2c0,0.9-0.6,1.7-1.4,1.7s-1.4-0.7-1.4-1.7s0.6-1.7,1.4-1.7S146,74.2,146,75.2z"/>
				</g>
			</g>
		</g>
	</g>
	<g>
		<g>
			<path class="st15" d="M299.5,164.9c-0.1,0.8-0.2,1.5-0.4,2.3c-0.1,0.9-0.3,1.7-0.5,2.5c-0.3,1.3-0.6,2.5-1,3.7
				c-0.4,1.4-1,2.7-1.5,4.1c-4.1,9.8-11.2,17.8-19.7,21.5c-7.7,3.4-15.9,3.3-24.1,1.7c-3.3-0.9-6.6-2-9.8-3.2
				c-10.2-3.8-20.4-8.3-30.9-10c-4.2-0.9-8.4-1.4-12.7-1.2c-13.7,0.6-26.6,8.1-40,11.6c-32.6,8.4-65.9-7.6-99.2-7.6
				c-8.9,0-17.8,1.1-26.7-0.1c-8.9-1.2-17.9-5-23.8-13.1c-3.2-4.4-5.3-9.8-6.5-15.6c0-0.2-0.1-0.4-0.1-0.6
				c19.1,0.3,73.1,1.2,130.6,2C202.1,163.9,275.8,164.9,299.5,164.9z"/>
		</g>
		<g>
			<path class="st15" d="M299.5,164.9c-0.1,0.8-0.2,1.5-0.4,2.3c-0.1,0.9-0.3,1.7-0.5,2.5c-3.6,0.1-7.2,0.2-10.9,0.5
				c1.9,2.3,6.9,2.4,9.5,3.1c0.1,0,0.2,0.1,0.3,0.1c-0.4,1.4-1,2.7-1.5,4.1c-0.8-0.1-1.6-0.2-2.2-0.2c-5.6-0.2-11.3,0.2-16.9-0.1
				c-35.9-1.7-71.7-3.5-107.6-3.5c-16.4,0-32.7,0.4-49.1,0.4c-9.5,0-19,0.4-28.5-0.4c-5.2-0.4-10.2-1-15.4-1.7
				c-2.4-0.3-6.2,0.1-7.8-2.1c2.6-3.8,11.8-2.8,15.6-3.2c6.3-0.6,12.6-0.8,19-0.8c6.1,0,12.3,0.1,18.4-0.3c2.7-0.1,9.9,0.1,11.7-2.7
				C202.1,163.9,275.8,164.9,299.5,164.9z"/>
		</g>
	</g>
	<g>
		<g>
			<g>
				<path class="st3" d="M88.5,128.7c-0.2-2.4-3.8-9.6-6.1-5.4l0,0c-0.2,1-0.1,2.1,0.4,3c1.2,2.4,2.6,7.1,2.8,9
					c0.2,2.6,0.4,6.7-0.8,9.1C88.2,140.2,88.9,133.4,88.5,128.7z"/>
			</g>
			<g>
				<path class="st3" d="M86.1,124c-1-2.6-1.9-5.4-3.6-7.6l0.9,1.9c-1.8-3-9.5-3.6-12.4-3.2c-2,0.2-4,1.3-5.5,2.7
					c-2.8,2.5-3.7,4.7-4.9,8.6c-1.5,4.6-1.4,8.3,0,13c1.1,3.8,2.8,7.7,6.3,9.5c4.3,2.2,10.1,1.8,14-0.8c4.1-2.7,6.6-8.1,6.9-13.4
					C88,130.9,87.6,127.5,86.1,124z"/>
			</g>
			<path class="st4" d="M95.3,265H76.5l-1.9-10l-2.2-11.9l-2.7-14.2h20.1c0,0,0.8,5.1,1.9,12.5c0.5,3.5,1.1,7.5,1.8,11.8
				C94.1,257,94.7,261,95.3,265z"/>
			<path class="st12" d="M78.2,265H56.8c-1-3.5-2.4-8.2-3.8-11.4c-0.1-0.2-0.2-0.4-0.2-0.6c-1-2.6-1.2-6-1.1-9.5
				c0-1,0.1-2.1,0.2-3.1c0-0.1,0-0.2,0-0.4c0-0.2,0-0.4,0.1-0.6c1-7.9,3.3-15.2,3.3-15.2l12.2-0.9l2-0.1l4.3-0.3l0.6,5.9l1,10.1
				l0.4,3.8l1.3,12.1L78.2,265z"/>
			<g>
				<g>
					<path class="st5" d="M66.9,167.1c0.7-3.3,2.4-5.6,4-8.5c1.1-2,1.7-4.1,4.6-4.3c0.3,0,0.8,0,1.2,0.1c3.1,0.7,5.7,2.6,7.3,5.1
						c2,3.1,3.5,6.7,5,9.8c2.2,4.8,3.5,9.8,4.6,14.9c1,4.8,0.6,9.3,0.9,14.1c0.4,7.1,1.1,14.2,1.8,21.3c0.5,5,1.2,10,1.5,14.9
						c-1.9-0.7-4.2-0.4-6.2-0.5c-3.1-0.1-6.3-0.2-9.3-0.7c-2.2-0.4-4.5-0.3-6.4-1.3c-3.9-2.1-4.4-6.7-5.3-10.4
						c-3.3-13.8-5-28.4-4.8-42.5C65.7,175.1,66.1,170.9,66.9,167.1z"/>
				</g>
				<path class="st16" d="M50.4,245.5c4.1,1.2,8.5,1.9,12.9,2.2c10.4,0.8,20.9-0.3,27.7-1.1c2.9-0.4,4.6-0.6,4.6-0.6l-5.9-38.2
					c0,0,1.2-15.2,1.4-16.8l0.2-1.4c0.9-7.8-0.6-15.6-4.5-22.5c-1.1-2-2.3-4-3.5-5.8c-1.1-1.7-2.2-3.2-3.2-4.3c0,0,0,0,0,0
					c-2-2.2-4.9-3.8-7.5-5c-3.5-1.6-6.4-2.4-6.4-2.4s-1.6,1.1-3.6,3.1c-2.1,2-4.6,4.9-6.5,8.6c-1.2,2.3-2.2,4.9-2.6,7.7
					c-0.3,1.6-0.2,4.8,0,8.7c0.5,7,0.7,14,0.7,20.9c0,12.9-0.8,25.8-2.6,38.7C51.3,240,50.9,242.7,50.4,245.5z"/>
				<path class="st17" d="M63.5,151.9c1.5,1.5,4.6,4.5,8.3,6.6c1.4,0.8,3,1.4,4.6,1.7c0.9,0.2,1.6-0.6,1.4-1.5
					c-0.3-1.2-0.7-2.8-1.5-4.4c-0.2-0.2-0.3-0.3-0.4-0.4c-0.2-0.2-0.5-0.3-0.7-0.4c-0.1,0-0.1-0.1-0.2-0.1l1.3-6.2l-2.2-1.8
					l-5.4-4.3l-1.1,3.7l-0.4,1.5l-1.2,4.2c0.3-0.9,0.2-0.9,0.2-0.9C65.9,149.8,64.8,150.6,63.5,151.9z"/>
				<path class="st6" d="M66.1,150c2.6,4.4,9.2,9.3,11.4,8.4c-0.1-2.3-2.5-5-2.5-5l0.1-0.7l2.4,1.9c1.1,0.8,1.9,2,2.2,3.3
					c0.6,2.6,0.7,4.9,0.7,4.9c-7.5,0.1-14.2-4.5-17.4-10.4L66.1,150z"/>
				<g>
					<g>
						<path class="st5" d="M51.6,237.2c4.7,0.1,9.5,0,14.2-0.3c5.1-0.2,12.3,0.2,16.7-2.5c0.2-5.8-0.5-11.7-0.5-17.6
							c0-2.1,0-4.2-0.1-6.3c0-1.3-0.1-2.5-0.2-3.7c-0.2-3.4-0.5-6.8-0.9-10.2c-0.1-1.2-0.3-2.5-0.5-3.7c-0.5-3.7-1.2-7.4-2.1-11
							c-2.1-8.8-5.8-16.7-8.3-25.6c-0.8-2.9-0.7-6-3.8-6.8l0,0c0,0,0,0-0.1,0c-0.1,0.1-0.5,0.4-1.1,0.9c-0.6,0.5-1.5,1.2-2.5,2.2
							c-0.2,0.2-0.5,0.5-0.7,0.7c-1.9,1.9-4.1,4.6-5.8,7.9c-1.2,2.3-2.2,4.9-2.6,7.7c-0.3,1.6-0.2,4.8,0,8.7
							c0.4,5.1,0.6,10.2,0.7,15.4c0,1.3,0,2.5,0,3.8c0,0.6,0,1.2,0,1.8c0,3,0,6.1-0.2,9.1c0,1.3-0.1,2.5-0.1,3.8
							C53.6,220.1,52.8,228.7,51.6,237.2z"/>
					</g>
					<g>
						<path class="st8" d="M54.1,196.1c0,1.3,0,2.7,0,4c4.4,0,8.9,0,13.3,0c4.5,0,9,0.3,13.4-0.1c-0.1-1.3-0.3-2.7-0.5-4
							c-1.6,0.2-3.3,0.2-4.9,0.2c-2.2-15.6-4.9-31.2-10.5-45.9c-0.6,0.5-1.5,1.3-2.5,2.3c-0.2,0.2-0.5,0.5-0.7,0.8
							c5,13.7,7.5,28.2,9.6,42.7c-2,0-3.9-0.1-5.9-0.1L54.1,196.1L54.1,196.1z"/>
						<path class="st8" d="M53.9,215.9c2.6,0,5.2,0,7.7,0c6.8,0,13.6-0.2,20.3-0.9c0-1.3-0.1-2.7-0.2-4c-6.7,0.7-13.4,0.9-20.2,0.9
							c-2.4,0-5,0-7.5,0C54,213.2,54,214.6,53.9,215.9z"/>
					</g>
				</g>
			</g>
			<path class="st18" d="M63.3,247.7c-4.4-0.3-8.8-1-12.9-2.2c2.6-15.5,3.8-31.2,3.8-46.9c0-7-0.2-14-0.7-20.9
				c-0.3-3.9-0.3-7.1-0.1-8.7c0.5-2.9,1.4-5.4,2.6-7.7l13.1,3.8C69.2,165,70.4,220.1,63.3,247.7z"/>
			<path class="st19" d="M67.1,144.7c0,0,0.2,0.2,0.3,0.7c1.7,8.9,7.7,7.9,7.6,7.9l1.3-6.2l-2.2-1.8l-6.5-0.6L67.1,144.7z"/>
			<path class="st17" d="M59.7,135.6c0.5,2.9,2.7,3.9,4.7,4.6c0.1,0.2,0.1,0.3,0.2,0.5c1,2.2,2.5,4.3,4.2,6c2.3,2.3,5.1,3.7,7.7,3.4
				c4.3-0.5,7.8-3.7,9.6-7.8c0.1-0.2,0.2-0.4,0.3-0.6c0.7-1.7,1-3.5,1-5.2c-0.1-16.1-5.4-19.4-11.8-19.2
				c-4.8,0.2-10.1,7.2-11.8,13.6c-0.6-0.4-1.3-0.7-1.8-0.6C60.1,130.4,59.3,133.3,59.7,135.6z"/>
			<g>
				<g>
					<path class="st3" d="M87,123.9c-0.7-1.2-1.6-2.5-2.2-3.5c-1.2-2.1-3.3-3.4-4.7-5.3c-1.1,0-2.2,0-3.4,0c-1.2,0-2.3,0.4-3.5,0.6
						c-4.1,0.8-7.7,3.4-9.5,7.4c-0.6,1.3-1.7,4.3-0.9,6c-0.1,1.7,0.3,3.4,0.7,5.2c0.3,1.8,2.9,5.9,4,7.8c-0.6-2.8,0.7-11.5,1.9-13.1
						c2.1-2.8,9.4,1.7,16.6-1.8C87.3,126.6,87.7,125,87,123.9z"/>
				</g>
			</g>
			<path class="st3" d="M74.2,135.4c0,0.7,0.5,1.3,1.2,1.4s1.2-0.6,1.2-1.3c0-0.7-0.5-1.3-1.2-1.4C74.8,134.1,74.3,134.7,74.2,135.4
				z"/>
			<path class="st3" d="M82.6,135.4c0,0.7,0.5,1.3,1.2,1.4c0.7,0,1.2-0.6,1.2-1.3c0-0.7-0.5-1.3-1.2-1.4
				C83.1,134.1,82.6,134.7,82.6,135.4z"/>
			<g>
				<path class="st3" d="M71.4,132.8c0.2,0,0.3-0.1,0.4-0.2c1.3-2.3,3.4-1.3,3.5-1.3c0.2,0.1,0.4,0,0.6-0.2c0.1-0.2,0-0.4-0.2-0.6
					c-1-0.5-3.2-0.8-4.6,1.6c-0.1,0.2,0,0.4,0.2,0.6C71.2,132.8,71.3,132.8,71.4,132.8z"/>
			</g>
			<g>
				<path class="st3" d="M78.4,143.4c-0.1-0.1-0.2-0.2-0.4-0.3c-2.6-0.1-2.7-2.4-2.7-2.5c0-0.2-0.2-0.4-0.4-0.4s-0.4,0.2-0.4,0.4
					c0,1.1,0.8,3.2,3.5,3.3c0.2,0,0.4-0.2,0.4-0.4C78.5,143.5,78.5,143.5,78.4,143.4z"/>
			</g>
			<g>
				<path class="st3" d="M82.5,131.1c0.1,0.1,0.2,0.1,0.4,0.1c2.1-0.8,2.9,1,2.9,1.1c0.1,0.2,0.3,0.3,0.5,0.2
					c0.2-0.1,0.3-0.3,0.2-0.5c-0.4-0.9-1.6-2.3-3.8-1.5c-0.2,0.1-0.3,0.3-0.2,0.4C82.5,131,82.5,131.1,82.5,131.1z"/>
			</g>
			<g>
				<path class="st3" d="M82.1,141.5c0.3-0.1,0.5-0.2,0.7-0.4c0.6-0.6,0.5-1.7-0.3-2.9l-2.1-4c-0.1-0.2-0.3-0.2-0.4-0.1
					c-0.2,0.1-0.2,0.3-0.1,0.4l2.1,4c0.7,1.1,0.7,1.8,0.4,2.2c-0.3,0.3-0.9,0.4-1.5,0c-0.2-0.1-0.4,0-0.4,0.1
					c-0.1,0.2,0,0.3,0.1,0.4C81.1,141.6,81.6,141.6,82.1,141.5z"/>
			</g>
			<g>
				<path class="st3" d="M109.9,217.2h-22c-2.6,0-4.6-2.3-4.2-4.9l5-34.1c0.3-2.1,2.1-3.6,4.2-3.6h22c2.6,0,4.6,2.3,4.2,4.9l-5,34.1
					C113.8,215.7,112,217.2,109.9,217.2z"/>
				<path class="st4" d="M111.7,218h-22c-2.6,0-4.6-2.3-4.2-4.9l5-34.1c0.3-2.1,2.1-3.6,4.2-3.6h22c2.6,0,4.6,2.3,4.2,4.9l-5,34.1
					C115.6,216.5,113.8,218,111.7,218z"/>
				<path class="st17" d="M92.1,203.3c0.8,0.2,5-0.1,5-0.1c2.5-0.2,2.2,0.4,2.2,0.4c-0.3,1.1-6.9,1.5-6.9,1.5l3.7-0.1
					c2.6-0.3,2,0.6,2,0.6c-0.4,0.8-5.1,1.3-5.1,1.3c-6.9,0.6-8-1.9-8-1.9s-32.1-0.2-34.6-6.4c-0.9-2.3-0.5-4.9,0-7.3
					c1.5-7.6,5.5-28,6-29c0.8-1.8,2.5-3.3,4.6-3.9c1.2-0.3,2.4-0.3,3.5-0.1c0.3,0.1,0.5,0.1,0.8,0.2c1.9,0.7,3.3,2.2,4,4.1
					c0.6,1.6,0.5,3.3-0.1,4.9l-8.7,24.3l25.4,6.3c0,0,0,0,0,0l0.3-2.1c0.7-4.2,2.1-2.4,2.1-2.4c-0.6,3.7,0,4.5,0,4.5
					c2.3,0.8,9,0.2,9,0.2c1.5,0,1.2,0.9,1.2,0.9c-0.4,0.9-6.4,1.6-6.4,1.6c1.5,0.4,6-0.2,6-0.2c1.4-0.1,1.2,0.8,1.2,0.8
					C99.2,202.2,92.1,203.3,92.1,203.3z"/>
				<path class="st19" d="M85.9,198.2c-1-0.2-17.4-2.9-25.6-4c-2.5-0.4-4.1-2.8-3.5-5.2l7.6-30.7c0.3,0.1,0.5,0.1,0.8,0.2
					c1.9,0.7,3.3,2.2,4,4.1c0.6,1.6,0.5,3.3-0.1,4.9l-8.7,24.3L85.9,198.2z"/>
				<path class="st8" d="M65.7,181.4c0,0-4.9-1.9-9-3.6c-2.8-1.1-5.1-2.2-5.1-2.4c3.2-22.4,13.6-16.8,13.6-16.8
					c0.1,0,0.3,0.1,0.4,0.2C75.8,162.8,65.7,181.4,65.7,181.4z"/>
				<path class="st18" d="M65.7,158.7c-2.7,1.8-6.3,6.7-9,19.1c-2.8-1.1-5.1-2.2-5.1-2.4c3.2-22.4,13.6-16.8,13.6-16.8
					C65.4,158.6,65.6,158.6,65.7,158.7z"/>
				<path class="st17" d="M120.3,200l0.2,3.5c0.1,2.5-1.9,4.7-4.4,4.7c-1,0-2.2-0.1-3.6-0.4c0,0-4.6-1.1-4.9-1.9c0,0-0.6-0.9,2-0.4
					l3.7,0.5c0,0-6.6-1.1-6.7-2.3c0,0-0.3-0.6,2.2-0.2c0,0,4.1,0.8,5,0.7c0,0-6.9-1.9-6.9-2.6c0,0-0.1-0.9,1.3-0.7
					c0,0,4.4,1.1,5.9,0.9c0,0-5.9-1.3-6.2-2.3c0,0-0.2-0.9,1.3-0.8c0,0,6.6,1.4,8.9,0.8c0,0,0.5-2.4,0.9-4.7c0,0,1.3-1.4,1.5,2.9
					L120.3,200z"/>
			</g>
			<g>
				<path class="st8" d="M88.2,125c-0.2,1.3-12.3,4.5-27.6,1.4c0,0,0.6-3.4,0.8-5c0.1-0.4,0.1-0.7,0.1-0.7c0.4-2.8,1-3.9,2.6-5.9v0
					c0.4-0.5,0.9-1,1.4-1.5c1.6-1.5,3.5-2.5,5.6-3.1c1.7-0.5,3.6-0.6,5.5-0.4c2.1,0.3,3.9,0.9,5.6,1.9c0.4,0.3,0.8,0.5,1.2,0.8
					c1.8,1.4,3,3.2,3.9,5.6c0,0.1,0.1,0.2,0.1,0.3C88.2,120.6,88.5,122.5,88.2,125z"/>
				<g class="st20">
					<path class="st8" d="M87.4,118.5c-1.2,0.8-2.5,0.5-3.1-1.2c-0.6-1.6-0.9-3.1-0.9-4.7c1.8,1.4,3,3.2,3.9,5.6
						C87.4,118.3,87.4,118.4,87.4,118.5z"/>
				</g>
				<path class="st18" d="M76.2,120c-0.4,1.4-1.6,2.5-3.2,2.8c-3.3,0.6-8.4,1-11.7-1.4c0.1-0.4,0.1-0.7,0.1-0.7
					c0.4-2.8,1-3.9,2.6-5.9v0c0.4-0.5,0.9-1,1.4-1.5c3.1-0.6,10.1-0.8,11,5.5C76.4,119.3,76.3,119.7,76.2,120z"/>
				<path class="st16" d="M62.6,126.9c0,0,15.1,4,23.4,2.1c0,0,3.8-1,4.3-2.5c0.3-1-2.1-2.1-2.1-2.1
					C84.3,126.8,74.2,127.1,62.6,126.9z"/>
			</g>
		</g>
	</g>
</g>
</svg>
