<?xml version="1.0" encoding="utf-8"?>
<!-- Generator: Adobe Illustrator 25.1.0, SVG Export Plug-In . SVG Version: 6.00 Build 0)  -->
<svg version="1.1" id="Layer_1" xmlns="http://www.w3.org/2000/svg" xmlns:xlink="http://www.w3.org/1999/xlink" x="0px" y="0px"
	 viewBox="0 0 300 265" style="enable-background:new 0 0 300 265;" xml:space="preserve">
<style type="text/css">
	.st0{fill:#FFFFFF;stroke:#263238;stroke-miterlimit:10;}
	.st1{fill:#263238;stroke:#263238;stroke-miterlimit:10;}
	.st2{fill:#FF0000;stroke:#263238;stroke-linecap:round;stroke-miterlimit:10;}
	.st3{fill:#FFFFFF;stroke:#263238;stroke-linecap:round;stroke-miterlimit:10;}
	.st4{fill:none;stroke:#263238;stroke-miterlimit:10;}
	.st5{fill:#ED145B;stroke:#263238;stroke-miterlimit:10;}
	.st6{fill:#263238;}
	.st7{fill:#006FB8;stroke:#263238;stroke-miterlimit:10;}
	.st8{fill:#FFF200;stroke:#263238;stroke-miterlimit:10;}
	.st9{fill:#83BA3B;stroke:#263238;stroke-miterlimit:10;}
	.st10{fill:#EAEAEA;}
	.st11{fill:#F0C63D;}
	.st12{fill:#FFFFFF;}
	.st13{fill:#3E4950;}
	.st14{fill:#DADADA;}
	.st15{fill:none;stroke:#CCCCCC;stroke-miterlimit:10;}
	.st16{fill:#8DC63F;stroke:#263238;stroke-miterlimit:10;}
	.st17{fill:#8C5AAA;stroke:#263238;stroke-miterlimit:10;}
	.st18{fill:none;stroke:#263238;stroke-width:3;stroke-miterlimit:10;}
	.st19{fill:#92E3A9;stroke:#263238;stroke-linecap:round;stroke-miterlimit:10;}
	.st20{fill:#92E364;stroke:#263238;stroke-linecap:round;stroke-miterlimit:10;}
	.st21{fill:#FFFF64;stroke:#263238;stroke-linecap:round;stroke-miterlimit:10;}
	.st22{fill:#FF64FF;stroke:#263238;stroke-linecap:round;stroke-miterlimit:10;}
	.st23{fill:#FFC8AA;stroke:#263238;stroke-linecap:round;stroke-miterlimit:10;}
	.st24{fill:#969696;}
	.st25{fill:#FFF200;}
	.st26{fill:#FF0000;}
	.st27{fill:#00B4FF;stroke:#263238;stroke-width:0.5;stroke-miterlimit:10;}
	.st28{fill:none;stroke:#FFFFFF;stroke-linecap:round;stroke-miterlimit:10;}
	.st29{fill:#5C5C5C;}
	.st30{fill:#FFFFFF;stroke:#263238;stroke-width:0.25;stroke-linecap:round;stroke-linejoin:round;stroke-miterlimit:10;}
	.st31{fill:none;stroke:#263238;stroke-width:0.25;stroke-linecap:round;stroke-linejoin:round;stroke-miterlimit:10;}
	.st32{fill:#C8FFFF;stroke:#263238;stroke-width:0.25;stroke-linecap:round;stroke-linejoin:round;stroke-miterlimit:10;}
	.st33{fill:#FFBEAA;}
	.st34{fill:#FFBEAA;stroke:#263238;stroke-width:0.25;stroke-linecap:round;stroke-linejoin:round;stroke-miterlimit:10;}
	.st35{fill:#FFFFFF;stroke:#263238;stroke-linecap:round;stroke-linejoin:round;stroke-miterlimit:10;}
	.st36{fill:#FFFFFF;stroke:#263238;stroke-width:2;stroke-linecap:round;stroke-linejoin:round;stroke-miterlimit:10;}
	.st37{fill:#FFBEAA;stroke:#263238;stroke-width:0.25;stroke-miterlimit:10;}
	.st38{fill:none;stroke:#FFFFFF;stroke-linecap:round;stroke-linejoin:round;stroke-miterlimit:10;}
	.st39{fill:none;stroke:#263238;stroke-width:0.5;stroke-linecap:round;stroke-linejoin:round;stroke-miterlimit:10;}
</style>
<g id="Window">
	<g>
		<path class="st0" d="M235.1,0H9.4C4.2,0,0,4.2,0,9.4v204.7h244.5V9.4C244.5,4.2,240.3,0,235.1,0z"/>
		<path class="st1" d="M239.2,0H5.3C2.4,0,0,2.2,0,5v4.5h244.5V5C244.5,2.2,242.1,0,239.2,0z"/>
		<path class="st2" d="M224.6,4.5c0,1.1-0.9,2-2.1,2c-1.2,0-2.1-0.9-2.1-2s0.9-2,2.1-2C223.7,2.5,224.6,3.4,224.6,4.5z"/>
		<path class="st3" d="M231.7,4.5c0,1.1-0.9,2-2.1,2c-1.2,0-2.1-0.9-2.1-2s0.9-2,2.1-2S231.7,3.4,231.7,4.5z"/>
		<path class="st3" d="M238.7,4.5c0,1.1-0.9,2-2.1,2c-1.2,0-2.1-0.9-2.1-2s0.9-2,2.1-2S238.7,3.4,238.7,4.5z"/>
	</g>
</g>
<g id="Dividing_lines">
	<g>
		<line class="st4" x1="46.7" y1="154.8" x2="235.9" y2="154.8"/>
		<line class="st4" x1="233.6" y1="86.7" x2="235.9" y2="86.7"/>
		<line class="st4" x1="46.7" y1="86.7" x2="230.9" y2="86.7"/>
		<line class="st4" x1="140.6" y1="150.9" x2="140.6" y2="90.5"/>
	</g>
</g>
<g id="Charts_4">
	<g>
		<g>
			<g>
				<g>
					<g>
						<path class="st0" d="M62.5,177.8h14.1c0,7.4-6.3,13.5-14.1,13.5s-14.1-6-14.1-13.5c0-7.4,6.3-13.5,14.1-13.5l0,0V177.8z"/>
					</g>
				</g>
				<g>
					<g>
						<path class="st5" d="M62.5,177.8v-13.5c7.8,0,14.1,6,14.1,13.5l0,0H62.5z"/>
					</g>
				</g>
			</g>
			<ellipse class="st3" cx="62.5" cy="177.8" rx="9.5" ry="9"/>
			<g>
				<path class="st6" d="M60.2,176.1c0,1.7-2,2.3-2,3.6v0.1h2v0.6h-2.6V180c0-1.8,2-2.2,2-3.8c0-0.6-0.2-0.9-0.7-0.9
					s-0.7,0.3-0.7,0.8v0.5h-0.6v-0.5c0-0.9,0.4-1.4,1.3-1.4C59.8,174.7,60.2,175.3,60.2,176.1z"/>
				<path class="st6" d="M61.5,177.1c0.2-0.3,0.5-0.5,0.9-0.5c0.8,0,1.1,0.5,1.1,1.4v1.1c0,0.9-0.4,1.4-1.3,1.4
					c-0.9,0-1.3-0.6-1.3-1.4v-0.4h0.6v0.4c0,0.5,0.2,0.8,0.7,0.8s0.7-0.3,0.7-0.8V178c0-0.5-0.2-0.8-0.7-0.8c-0.4,0-0.6,0.2-0.7,0.6
					v0.1h-0.6l0.2-3.2h2.4v0.6h-1.8L61.5,177.1z"/>
				<path class="st6" d="M65.8,175.6v1.8c0,0.6-0.3,0.9-0.9,0.9s-0.9-0.4-0.9-0.9v-1.8c0-0.5,0.3-0.9,0.9-0.9
					C65.5,174.7,65.8,175.1,65.8,175.6z M64.5,175.6v1.9c0,0.3,0.1,0.5,0.4,0.5s0.4-0.2,0.4-0.5v-1.9c0-0.3-0.1-0.5-0.4-0.5
					S64.5,175.3,64.5,175.6z M67.8,174.7l-2.4,5.7H65l2.4-5.7H67.8z M68.7,177.8v1.8c0,0.6-0.3,0.9-0.9,0.9s-0.9-0.4-0.9-0.9v-1.8
					c0-0.5,0.3-0.9,0.9-0.9C68.5,176.8,68.7,177.2,68.7,177.8z M67.5,177.7v1.8c0,0.3,0.1,0.5,0.4,0.5s0.4-0.2,0.4-0.5v-1.8
					c0-0.3-0.1-0.5-0.4-0.5S67.5,177.4,67.5,177.7z"/>
			</g>
		</g>
		<g>
			<line class="st4" x1="54.2" y1="195.1" x2="71.7" y2="195.1"/>
			<line class="st4" x1="65" y1="197.3" x2="71.7" y2="197.3"/>
			<line class="st4" x1="54.2" y1="197.3" x2="62.9" y2="197.3"/>
			<line class="st4" x1="54.2" y1="199.6" x2="71.7" y2="199.6"/>
			<line class="st4" x1="60" y1="201.9" x2="71.7" y2="201.9"/>
			<line class="st4" x1="54.2" y1="201.9" x2="58.1" y2="201.9"/>
		</g>
	</g>
	<g>
		<g>
			<g>
				<g>
					<g>
						<path class="st0" d="M114.9,177.8l8.3,10.9c-6.3,4.4-15.1,3-19.7-3c-4.6-6-3.2-14.4,3.1-18.8c2.5-1.7,5.2-2.6,8.3-2.6V177.8z"
							/>
					</g>
				</g>
				<g>
					<g>
						<path class="st7" d="M114.9,177.8v-13.5c7.8,0,14.1,6,14.1,13.5c0,4.5-2,8.3-5.8,10.9L114.9,177.8z"/>
					</g>
				</g>
			</g>
			<ellipse class="st3" cx="114.9" cy="177.9" rx="9.5" ry="9"/>
			<g>
				<path class="st6" d="M112.2,179.3v1.1h-0.6v-1.1h-1.9v-0.6l1.9-4h0.7v4h0.5v0.6H112.2z M110.2,178.7h1.3v-2.8L110.2,178.7z"/>
				<path class="st6" d="M113.1,176.1c0-0.9,0.5-1.4,1.4-1.4s1.4,0.6,1.4,1.4v2.9c0,0.9-0.5,1.4-1.4,1.4s-1.4-0.6-1.4-1.4V176.1z
					 M113.8,179.1c0,0.5,0.2,0.8,0.7,0.8s0.7-0.3,0.7-0.8v-3c0-0.5-0.2-0.8-0.7-0.8s-0.7,0.3-0.7,0.8V179.1z"/>
				<path class="st6" d="M118.2,175.6v1.8c0,0.6-0.3,0.9-0.9,0.9s-0.9-0.4-0.9-0.9v-1.8c0-0.5,0.3-0.9,0.9-0.9
					C117.9,174.7,118.2,175.1,118.2,175.6z M116.9,175.6v1.9c0,0.3,0.1,0.5,0.4,0.5s0.4-0.2,0.4-0.5v-1.9c0-0.3-0.1-0.5-0.4-0.5
					S116.9,175.3,116.9,175.6z M120.2,174.7l-2.4,5.7h-0.4l2.4-5.7H120.2z M121.1,177.8v1.8c0,0.6-0.3,0.9-0.9,0.9s-0.9-0.4-0.9-0.9
					v-1.8c0-0.5,0.3-0.9,0.9-0.9C120.9,176.8,121.1,177.2,121.1,177.8z M119.8,177.7v1.8c0,0.3,0.1,0.5,0.4,0.5s0.4-0.2,0.4-0.5
					v-1.8c0-0.3-0.1-0.5-0.4-0.5C120,177.2,119.8,177.4,119.8,177.7z"/>
			</g>
		</g>
		<g>
			<line class="st4" x1="106.3" y1="195.1" x2="123.8" y2="195.1"/>
			<line class="st4" x1="117.1" y1="197.3" x2="123.8" y2="197.3"/>
			<line class="st4" x1="106.3" y1="197.3" x2="115" y2="197.3"/>
			<line class="st4" x1="106.3" y1="199.6" x2="123.8" y2="199.6"/>
			<line class="st4" x1="112.1" y1="201.9" x2="123.8" y2="201.9"/>
			<line class="st4" x1="106.3" y1="201.9" x2="110.2" y2="201.9"/>
		</g>
	</g>
	<g>
		<g>
			<g>
				<g>
					<g>
						<path class="st0" d="M167.4,177.8L154,182c-2.4-7.1,1.6-14.7,9.1-17c1.5-0.5,2.8-0.7,4.4-0.7v13.5H167.4z"/>
					</g>
				</g>
				<g>
					<g>
						<path class="st8" d="M167.4,177.8v-13.5c7.8,0,14.1,6,14.1,13.5c0,7.4-6.3,13.5-14.1,13.5c-6.2,0-11.5-3.6-13.4-9.3
							L167.4,177.8z"/>
					</g>
				</g>
			</g>
			<ellipse class="st3" cx="167.4" cy="177.8" rx="9.5" ry="9"/>
			<g>
				<path class="st6" d="M164,175.3h-2v-0.6h2.7v0.6l-1.5,5.1h-0.7L164,175.3z"/>
				<path class="st6" d="M165.3,176.1c0-0.9,0.5-1.4,1.4-1.4s1.4,0.6,1.4,1.4v2.9c0,0.9-0.5,1.4-1.4,1.4s-1.4-0.6-1.4-1.4V176.1z
					 M165.9,179.1c0,0.5,0.2,0.8,0.7,0.8s0.7-0.3,0.7-0.8v-3c0-0.5-0.2-0.8-0.7-0.8s-0.7,0.3-0.7,0.8V179.1z"/>
				<path class="st6" d="M170.3,175.6v1.8c0,0.6-0.3,0.9-0.9,0.9c-0.6,0-0.9-0.4-0.9-0.9v-1.8c0-0.5,0.3-0.9,0.9-0.9
					C170.1,174.7,170.3,175.1,170.3,175.6z M169.1,175.6v1.9c0,0.3,0.1,0.5,0.4,0.5c0.3,0,0.4-0.2,0.4-0.5v-1.9
					c0-0.3-0.1-0.5-0.4-0.5C169.2,175.1,169.1,175.3,169.1,175.6z M172.3,174.7l-2.4,5.7h-0.4l2.4-5.7H172.3z M173.3,177.8v1.8
					c0,0.6-0.3,0.9-0.9,0.9c-0.6,0-0.9-0.4-0.9-0.9v-1.8c0-0.5,0.3-0.9,0.9-0.9C173,176.8,173.3,177.2,173.3,177.8z M172,177.7v1.8
					c0,0.3,0.1,0.5,0.4,0.5c0.3,0,0.4-0.2,0.4-0.5v-1.8c0-0.3-0.1-0.5-0.4-0.5S172,177.4,172,177.7z"/>
			</g>
		</g>
		<g>
			<line class="st4" x1="158.4" y1="195.1" x2="175.9" y2="195.1"/>
			<line class="st4" x1="169.2" y1="197.3" x2="175.9" y2="197.3"/>
			<line class="st4" x1="158.4" y1="197.3" x2="167.1" y2="197.3"/>
			<line class="st4" x1="158.4" y1="199.6" x2="175.9" y2="199.6"/>
			<line class="st4" x1="164.2" y1="201.9" x2="175.9" y2="201.9"/>
			<line class="st4" x1="158.4" y1="201.9" x2="162.3" y2="201.9"/>
		</g>
	</g>
	<g>
		<g>
			<g>
				<g>
					<g>
						<path class="st0" d="M219.9,177.8l-11.4-7.9c2.8-3.6,6.7-5.6,11.4-5.6V177.8z"/>
					</g>
				</g>
				<g>
					<g>
						<path class="st9" d="M219.9,177.8v-13.5c7.8,0,14.1,6,14.1,13.5c0,7.4-6.3,13.5-14.1,13.5s-14.1-6-14.1-13.5
							c0-3,0.9-5.5,2.7-7.9L219.9,177.8z"/>
					</g>
				</g>
			</g>
			<ellipse class="st3" cx="219.9" cy="177.8" rx="9.5" ry="9"/>
			<g>
				<path class="st6" d="M218.1,176.1v0.2c0,0.6-0.2,1-0.7,1.2c0.5,0.2,0.7,0.6,0.7,1.2v0.4c0,0.9-0.5,1.4-1.4,1.4s-1.4-0.5-1.4-1.4
					v-0.4c0-0.6,0.2-1,0.7-1.2c-0.5-0.2-0.7-0.6-0.7-1.2v-0.2c0-0.9,0.5-1.4,1.4-1.4C217.6,174.7,218.1,175.2,218.1,176.1z
					 M216,176.1v0.3c0,0.6,0.3,0.8,0.8,0.8s0.8-0.2,0.8-0.8v-0.3c0-0.6-0.3-0.9-0.8-0.9C216.3,175.3,216,175.5,216,176.1z
					 M216,178.6v0.5c0,0.6,0.3,0.9,0.8,0.9s0.7-0.3,0.8-0.9v-0.5c0-0.6-0.3-0.8-0.8-0.8C216.2,177.8,216,178,216,178.6z"/>
				<path class="st6" d="M219.4,177.1c0.2-0.3,0.5-0.5,0.9-0.5c0.8,0,1.1,0.5,1.1,1.4v1.1c0,0.9-0.4,1.4-1.3,1.4
					c-0.9,0-1.3-0.6-1.3-1.4v-0.4h0.6v0.4c0,0.5,0.2,0.8,0.7,0.8s0.7-0.3,0.7-0.8V178c0-0.5-0.2-0.8-0.7-0.8c-0.4,0-0.6,0.2-0.7,0.6
					v0.1h-0.6l0.2-3.2h2.4v0.6h-1.8L219.4,177.1z"/>
				<path class="st6" d="M223.7,175.6v1.8c0,0.6-0.3,0.9-0.9,0.9c-0.6,0-0.9-0.4-0.9-0.9v-1.8c0-0.5,0.3-0.9,0.9-0.9
					C223.4,174.7,223.7,175.1,223.7,175.6z M222.4,175.6v1.9c0,0.3,0.1,0.5,0.4,0.5c0.3,0,0.4-0.2,0.4-0.5v-1.9
					c0-0.3-0.1-0.5-0.4-0.5C222.6,175.1,222.4,175.3,222.4,175.6z M225.7,174.7l-2.4,5.7h-0.4l2.4-5.7H225.7z M226.7,177.8v1.8
					c0,0.6-0.3,0.9-0.9,0.9c-0.6,0-0.9-0.4-0.9-0.9v-1.8c0-0.5,0.3-0.9,0.9-0.9C226.4,176.8,226.7,177.2,226.7,177.8z M225.4,177.7
					v1.8c0,0.3,0.1,0.5,0.4,0.5c0.3,0,0.4-0.2,0.4-0.5v-1.8c0-0.3-0.1-0.5-0.4-0.5S225.4,177.4,225.4,177.7z"/>
			</g>
		</g>
		<g>
			<line class="st4" x1="211.4" y1="195.1" x2="228.9" y2="195.1"/>
			<line class="st4" x1="222.2" y1="197.3" x2="228.9" y2="197.3"/>
			<line class="st4" x1="211.4" y1="197.3" x2="220.1" y2="197.3"/>
			<line class="st4" x1="211.4" y1="199.6" x2="228.9" y2="199.6"/>
			<line class="st4" x1="217.2" y1="201.9" x2="228.9" y2="201.9"/>
			<line class="st4" x1="211.4" y1="201.9" x2="215.3" y2="201.9"/>
		</g>
	</g>
</g>
<g id="Charts_3">
	<g>
		<g>
			<polygon class="st10" points="154.3,146 154.3,140.2 154.3,134.4 154.3,122.9 154.3,111.4 154.3,105.6 154.3,99.8 154.4,105.6 
				154.4,111.4 154.4,122.9 154.4,134.4 154.4,140.2 			"/>
			<polygon class="st10" points="161.5,146 161.4,140.2 161.4,134.4 161.4,122.9 161.4,111.4 161.4,105.6 161.5,99.8 161.5,105.6 
				161.5,111.4 161.5,122.9 161.5,134.4 161.5,140.2 			"/>
			<polygon class="st10" points="168.6,146 168.6,140.2 168.6,134.4 168.5,122.9 168.6,111.4 168.6,105.6 168.6,99.8 168.6,105.6 
				168.6,111.4 168.7,122.9 168.6,134.4 168.6,140.2 			"/>
			<polygon class="st10" points="175.7,146 175.7,140.2 175.7,134.4 175.7,122.9 175.7,111.4 175.7,105.6 175.7,99.8 175.8,105.6 
				175.8,111.4 175.8,122.9 175.8,134.4 175.8,140.2 			"/>
			<polygon class="st10" points="182.8,146 182.8,140.2 182.8,134.4 182.8,122.9 182.8,111.4 182.8,105.6 182.8,99.8 182.9,105.6 
				182.9,111.4 182.9,122.9 182.9,134.4 182.9,140.2 			"/>
			<polygon class="st10" points="190,146 189.9,140.2 189.9,134.4 189.9,122.9 189.9,111.4 189.9,105.6 190,99.8 190,105.6 
				190,111.4 190,122.9 190,134.4 190,140.2 			"/>
			<polygon class="st10" points="197.1,146 197.1,140.2 197.1,134.4 197,122.9 197.1,111.4 197.1,105.6 197.1,99.8 197.1,105.6 
				197.1,111.4 197.2,122.9 197.1,134.4 197.1,140.2 			"/>
			<polygon class="st10" points="204.2,146 204.2,140.2 204.2,134.4 204.2,122.9 204.2,111.4 204.2,105.6 204.2,99.8 204.3,105.6 
				204.3,111.4 204.3,122.9 204.3,134.4 204.3,140.2 			"/>
			<polygon class="st10" points="211.3,146 211.3,140.2 211.3,134.4 211.3,122.9 211.3,111.4 211.3,105.6 211.3,99.8 211.4,105.6 
				211.4,111.4 211.4,122.9 211.4,134.4 211.4,140.2 			"/>
			<polygon class="st10" points="218.5,146 218.4,140.2 218.4,134.4 218.4,122.9 218.4,111.4 218.4,105.6 218.5,99.8 218.5,105.6 
				218.5,111.4 218.5,122.9 218.5,134.4 218.5,140.2 			"/>
			<polygon class="st10" points="225.6,146 225.6,140.2 225.5,134.4 225.5,122.9 225.5,111.4 225.6,105.6 225.6,99.8 225.6,105.6 
				225.6,111.4 225.7,122.9 225.6,134.4 225.6,140.2 			"/>
			<polygon class="st10" points="232.7,146 232.7,140.2 232.7,134.4 232.7,122.9 232.7,111.4 232.7,105.6 232.7,99.8 232.7,105.6 
				232.8,111.4 232.8,122.9 232.8,134.4 232.7,140.2 			"/>
			<polygon class="st10" points="147.2,99.8 169.4,99.7 191.7,99.7 213.9,99.7 236.1,99.8 213.9,99.9 191.7,100 169.4,99.9 			"/>
			<polygon class="st10" points="147.2,111 169.4,110.9 191.7,110.8 213.9,110.9 236.1,111 213.9,111.1 191.7,111.1 169.4,111.1 			
				"/>
			<polygon class="st10" points="147.2,122.2 169.4,122.1 191.7,122 213.9,122.1 236.1,122.2 213.9,122.3 191.7,122.3 169.4,122.3 
							"/>
			<polygon class="st10" points="147.2,133.4 169.4,133.3 191.7,133.2 213.9,133.3 236.1,133.4 213.9,133.5 191.7,133.5 
				169.4,133.5 			"/>
		</g>
		<g>
			<path class="st11" d="M147.2,122.2l7.1-5.7l0,0l0,0l7.1-0.9l0,0l0,0l7.1,6.4l0,0l7.1,2.9l0,0l7.1-1.4l0,0
				c2.4-2.9,4.7-5.8,7.1-8.6l0,0l0,0l7.1-1.2l0,0l0,0l7.1,3.3h-0.1l7.1-6.1l0,0l0,0l7.1,1.7l0,0l7.1-3.9l0,0l0,0h2.7h-2.7l0,0
				l-7.1,4.1l0,0l0,0l-7.1-1.6l0,0l-7.1,6.2l0,0l0,0l-7.1-3.3l0,0l-7.1,1.3l0,0c-2.4,2.9-4.8,5.7-7.1,8.6l0,0l0,0l-7.1,1.4l0,0l0,0
				l-7.1-2.9l0,0l0,0l-7.1-6.5l0,0l-7.1,0.7l0,0L147.2,122.2z"/>
			<g>
				<path class="st12" d="M154.9,116.6c0,0.7-0.3,1.3-0.6,1.3s-0.6-0.6-0.6-1.3c0-0.7,0.3-1.3,0.6-1.3
					C154.7,115.2,154.9,115.8,154.9,116.6z"/>
				<path class="st11" d="M154.3,118.2c-0.4,0-0.7-0.7-0.7-1.6s0.3-1.6,0.7-1.6s0.7,0.7,0.7,1.6
					C155.1,117.5,154.7,118.2,154.3,118.2z M154.3,115.5c-0.3,0-0.5,0.5-0.5,1c0,0.6,0.2,1,0.5,1s0.5-0.5,0.5-1
					S154.6,115.5,154.3,115.5z"/>
			</g>
			<g>
				<ellipse class="st12" cx="161.5" cy="115.8" rx="0.6" ry="1.3"/>
				<path class="st11" d="M161.5,117.4c-0.4,0-0.7-0.7-0.7-1.6s0.3-1.6,0.7-1.6s0.7,0.7,0.7,1.6
					C162.2,116.7,161.9,117.4,161.5,117.4z M161.5,114.8c-0.3,0-0.5,0.5-0.5,1c0,0.6,0.2,1,0.5,1s0.5-0.5,0.5-1
					C161.9,115.2,161.7,114.8,161.5,114.8z"/>
			</g>
			<g>
				<ellipse class="st12" cx="175.7" cy="125.1" rx="0.6" ry="1.3"/>
				<path class="st11" d="M175.7,126.7c-0.4,0-0.7-0.7-0.7-1.6s0.3-1.6,0.7-1.6s0.7,0.7,0.7,1.6S176.1,126.7,175.7,126.7z
					 M175.7,124c-0.3,0-0.5,0.5-0.5,1c0,0.6,0.2,1,0.5,1s0.5-0.5,0.5-1S176,124,175.7,124z"/>
			</g>
			<g>
				<ellipse class="st12" cx="189.9" cy="115.2" rx="0.6" ry="1.3"/>
				<path class="st11" d="M189.9,116.9c-0.4,0-0.7-0.7-0.7-1.6s0.3-1.6,0.7-1.6s0.7,0.7,0.7,1.6S190.3,116.9,189.9,116.9z
					 M189.9,114.2c-0.3,0-0.5,0.5-0.5,1s0.2,1,0.5,1s0.5-0.5,0.5-1S190.2,114.2,189.9,114.2z"/>
			</g>
			<g>
				<path class="st12" d="M204.8,117.3c0,0.7-0.3,1.3-0.6,1.3s-0.6-0.6-0.6-1.3c0-0.7,0.3-1.3,0.6-1.3
					C204.5,115.9,204.8,116.5,204.8,117.3z"/>
				<path class="st11" d="M204.2,118.9c-0.4,0-0.7-0.7-0.7-1.6s0.3-1.6,0.7-1.6s0.7,0.7,0.7,1.6
					C204.9,118.2,204.6,118.9,204.2,118.9z M204.2,116.2c-0.3,0-0.5,0.5-0.5,1c0,0.6,0.2,1,0.5,1s0.5-0.5,0.5-1
					S204.5,116.2,204.2,116.2z"/>
			</g>
			<g>
				<ellipse class="st12" cx="182.8" cy="123.7" rx="0.6" ry="1.3"/>
				<path class="st11" d="M182.8,125.4c-0.4,0-0.7-0.7-0.7-1.6s0.3-1.6,0.7-1.6s0.7,0.7,0.7,1.6
					C183.6,124.6,183.2,125.4,182.8,125.4z M182.8,122.7c-0.3,0-0.5,0.5-0.5,1c0,0.6,0.2,1,0.5,1s0.5-0.5,0.5-1
					S183.1,122.7,182.8,122.7z"/>
			</g>
			<g>
				<ellipse class="st12" cx="197.1" cy="113.9" rx="0.6" ry="1.3"/>
				<path class="st11" d="M197.1,115.5c-0.4,0-0.7-0.7-0.7-1.6s0.3-1.6,0.7-1.6s0.7,0.7,0.7,1.6S197.5,115.5,197.1,115.5z
					 M197.1,112.8c-0.3,0-0.5,0.5-0.5,1s0.2,1,0.5,1s0.5-0.5,0.5-1S197.3,112.8,197.1,112.8z"/>
			</g>
			<g>
				<ellipse class="st12" cx="218.5" cy="112.5" rx="0.6" ry="1.3"/>
				<path class="st11" d="M218.5,114.2c-0.4,0-0.7-0.7-0.7-1.6s0.3-1.6,0.7-1.6s0.7,0.7,0.7,1.6
					C219.2,113.4,218.9,114.2,218.5,114.2z M218.5,111.5c-0.3,0-0.5,0.5-0.5,1c0,0.6,0.2,1,0.5,1s0.5-0.5,0.5-1
					C218.9,112,218.7,111.5,218.5,111.5z"/>
			</g>
			<g>
				<path class="st12" d="M226.2,108.6c0,0.7-0.3,1.3-0.6,1.3s-0.6-0.6-0.6-1.3c0-0.7,0.3-1.3,0.6-1.3
					C225.9,107.3,226.2,107.9,226.2,108.6z"/>
				<path class="st11" d="M225.6,110.3c-0.4,0-0.7-0.7-0.7-1.6s0.3-1.6,0.7-1.6s0.7,0.7,0.7,1.6S226,110.3,225.6,110.3z
					 M225.6,107.6c-0.3,0-0.5,0.5-0.5,1c0,0.6,0.2,1,0.5,1s0.5-0.5,0.5-1S225.8,107.6,225.6,107.6z"/>
			</g>
			<g>
				<ellipse class="st12" cx="211.3" cy="110.9" rx="0.6" ry="1.3"/>
				<path class="st11" d="M211.3,112.6c-0.4,0-0.7-0.7-0.7-1.6s0.3-1.6,0.7-1.6s0.7,0.7,0.7,1.6S211.7,112.6,211.3,112.6z
					 M211.3,109.9c-0.3,0-0.5,0.5-0.5,1s0.2,1,0.5,1s0.5-0.5,0.5-1S211.6,109.9,211.3,109.9z"/>
			</g>
			<g>
				<ellipse class="st12" cx="168.6" cy="122.2" rx="0.6" ry="1.3"/>
				<path class="st11" d="M168.6,123.8c-0.4,0-0.7-0.7-0.7-1.6s0.3-1.6,0.7-1.6s0.7,0.7,0.7,1.6C169.3,123.1,169,123.8,168.6,123.8z
					 M168.6,121.1c-0.3,0-0.5,0.5-0.5,1c0,0.6,0.2,1,0.5,1s0.5-0.5,0.5-1S168.9,121.1,168.6,121.1z"/>
			</g>
		</g>
		<g>
			<path class="st13" d="M147.2,133.4l7.1-2.1l0,0l7.1-11.1l0,0l0,0l7.1-6l0,0l0,0l7.1,5.4l0,0l0,0l7.1,10h-0.1
				c2.4-2.1,4.7-4.3,7.1-6.4h0.1v0.1l7.1,8l-0.1,0.1l7.1-18.9v-0.1l0.1,0.1l7.1,6l0,0l7.1-2l0,0l0,0l7.1,0.8l0,0l2.7-2l-2.7,2.1l0,0
				l0,0l-7.1-0.6l0,0l-7.1,2l0,0l0,0l-7.1-6l0.1-0.1l-7.1,18.9l-0.1,0.1l-0.1-0.1l-7.1-7.9h0.1c-2.4,2.1-4.8,4.2-7.1,6.3l-0.1,0.1
				l-0.1-0.1l-7.1-10l0,0l-7.1-5.4h0.1l-7.1,6l0,0l-7.1,11l0,0l0,0L147.2,133.4z"/>
			<g>
				<ellipse class="st12" cx="154.3" cy="131.5" rx="0.6" ry="1.3"/>
				<path class="st13" d="M154.3,133.1c-0.4,0-0.7-0.7-0.7-1.6c0-0.9,0.3-1.6,0.7-1.6s0.7,0.7,0.7,1.6
					C155.1,132.4,154.7,133.1,154.3,133.1z M154.3,130.4c-0.3,0-0.5,0.5-0.5,1c0,0.6,0.2,1,0.5,1s0.5-0.5,0.5-1
					S154.6,130.4,154.3,130.4z"/>
			</g>
			<g>
				<ellipse class="st12" cx="161.5" cy="120.4" rx="0.6" ry="1.3"/>
				<path class="st13" d="M161.5,122.1c-0.4,0-0.7-0.7-0.7-1.6s0.3-1.6,0.7-1.6s0.7,0.7,0.7,1.6S161.9,122.1,161.5,122.1z
					 M161.5,119.4c-0.3,0-0.5,0.5-0.5,1c0,0.6,0.2,1,0.5,1s0.5-0.5,0.5-1C161.9,119.9,161.7,119.4,161.5,119.4z"/>
			</g>
			<g>
				<ellipse class="st12" cx="175.7" cy="120" rx="0.6" ry="1.3"/>
				<path class="st13" d="M175.7,121.6c-0.4,0-0.7-0.7-0.7-1.6s0.3-1.6,0.7-1.6s0.7,0.7,0.7,1.6S176.1,121.6,175.7,121.6z
					 M175.7,118.9c-0.3,0-0.5,0.5-0.5,1c0,0.6,0.2,1,0.5,1s0.5-0.5,0.5-1S176,118.9,175.7,118.9z"/>
			</g>
			<g>
				<ellipse class="st12" cx="189.9" cy="123.7" rx="0.6" ry="1.3"/>
				<path class="st13" d="M189.9,125.4c-0.4,0-0.7-0.7-0.7-1.6s0.3-1.6,0.7-1.6s0.7,0.7,0.7,1.6
					C190.7,124.6,190.3,125.4,189.9,125.4z M189.9,122.7c-0.3,0-0.5,0.5-0.5,1c0,0.6,0.2,1,0.5,1s0.5-0.5,0.5-1
					S190.2,122.7,189.9,122.7z"/>
			</g>
			<g>
				<ellipse class="st12" cx="204.2" cy="112.5" rx="0.6" ry="1.3"/>
				<path class="st13" d="M204.2,114.2c-0.4,0-0.7-0.7-0.7-1.6s0.3-1.6,0.7-1.6s0.7,0.7,0.7,1.6
					C204.9,113.4,204.6,114.2,204.2,114.2z M204.2,111.5c-0.3,0-0.5,0.5-0.5,1c0,0.6,0.2,1,0.5,1s0.5-0.5,0.5-1
					S204.5,111.5,204.2,111.5z"/>
			</g>
			<g>
				<ellipse class="st12" cx="182.8" cy="129.7" rx="0.6" ry="1.3"/>
				<path class="st13" d="M182.8,131.3c-0.4,0-0.7-0.7-0.7-1.6s0.3-1.6,0.7-1.6s0.7,0.7,0.7,1.6S183.2,131.3,182.8,131.3z
					 M182.8,128.6c-0.3,0-0.5,0.5-0.5,1c0,0.6,0.2,1,0.5,1s0.5-0.5,0.5-1S183.1,128.6,182.8,128.6z"/>
			</g>
			<g>
				<ellipse class="st12" cx="197.1" cy="131.2" rx="0.6" ry="1.3"/>
				<path class="st13" d="M197.1,132.8c-0.4,0-0.7-0.7-0.7-1.6s0.3-1.6,0.7-1.6s0.7,0.7,0.7,1.6S197.5,132.8,197.1,132.8z
					 M197.1,130.2c-0.3,0-0.5,0.5-0.5,1c0,0.6,0.2,1,0.5,1s0.5-0.5,0.5-1C197.6,130.6,197.3,130.2,197.1,130.2z"/>
			</g>
			<g>
				<path class="st12" d="M219.1,116.6c0,0.7-0.3,1.3-0.6,1.3s-0.6-0.6-0.6-1.3c0-0.7,0.3-1.3,0.6-1.3S219.1,115.8,219.1,116.6z"/>
				<path class="st13" d="M218.5,118.2c-0.4,0-0.7-0.7-0.7-1.6s0.3-1.6,0.7-1.6s0.7,0.7,0.7,1.6S218.9,118.2,218.5,118.2z
					 M218.5,115.5c-0.3,0-0.5,0.5-0.5,1c0,0.6,0.2,1,0.5,1s0.5-0.5,0.5-1C218.9,116,218.7,115.5,218.5,115.5z"/>
			</g>
			<g>
				<path class="st12" d="M226.2,117.3c0,0.7-0.3,1.3-0.6,1.3s-0.6-0.6-0.6-1.3c0-0.7,0.3-1.3,0.6-1.3
					C225.9,115.9,226.2,116.5,226.2,117.3z"/>
				<path class="st13" d="M225.6,118.9c-0.4,0-0.7-0.7-0.7-1.6s0.3-1.6,0.7-1.6s0.7,0.7,0.7,1.6C226.3,118.2,226,118.9,225.6,118.9z
					 M225.6,116.2c-0.3,0-0.5,0.5-0.5,1c0,0.6,0.2,1,0.5,1s0.5-0.5,0.5-1S225.8,116.2,225.6,116.2z"/>
			</g>
			<g>
				<ellipse class="st12" cx="211.3" cy="118.6" rx="0.6" ry="1.3"/>
				<path class="st13" d="M211.3,120.3c-0.4,0-0.7-0.7-0.7-1.6s0.3-1.6,0.7-1.6s0.7,0.7,0.7,1.6
					C212.1,119.5,211.7,120.3,211.3,120.3z M211.3,117.6c-0.3,0-0.5,0.5-0.5,1s0.2,1,0.5,1s0.5-0.5,0.5-1S211.6,117.6,211.3,117.6z"
					/>
			</g>
			<g>
				<ellipse class="st12" cx="168.6" cy="114.5" rx="0.6" ry="1.3"/>
				<path class="st13" d="M168.6,116.1c-0.4,0-0.7-0.7-0.7-1.6s0.3-1.6,0.7-1.6s0.7,0.7,0.7,1.6S169,116.1,168.6,116.1z
					 M168.6,113.4c-0.3,0-0.5,0.5-0.5,1c0,0.6,0.2,1,0.5,1s0.5-0.5,0.5-1S168.9,113.4,168.6,113.4z"/>
			</g>
		</g>
		<g>
			<path class="st14" d="M147.2,97.4v23v23l-0.1-0.2l22.2-0.1h11.1h11.1l22.2,0.1c7.4,0,14.8,0.1,22.2,0.2
				c-7.4,0.1-14.8,0.2-22.2,0.2l-22.2,0.1h-11.1h-11.1l-22.2-0.1H147v-0.2v-23L147.2,97.4z"/>
			<path class="st14" d="M146.6,99.8c0.2-0.2,0.4-0.3,0.7-0.3c0.2,0,0.4,0.1,0.7,0.3c-0.2,0.2-0.4,0.3-0.7,0.3
				C147,100.1,146.8,100,146.6,99.8z"/>
			<path class="st14" d="M146.6,111c0.2-0.2,0.4-0.3,0.7-0.3c0.2,0,0.4,0.1,0.7,0.3c-0.2,0.2-0.4,0.3-0.7,0.3S146.8,111.2,146.6,111
				z"/>
			<path class="st14" d="M146.6,122.2c0.2-0.2,0.4-0.3,0.7-0.3c0.2,0,0.4,0.1,0.7,0.3c-0.2,0.2-0.4,0.3-0.7,0.3
				S146.8,122.4,146.6,122.2z"/>
			<path class="st14" d="M146.6,133.4c0.2-0.2,0.4-0.3,0.7-0.3c0.2,0,0.4,0.1,0.7,0.3c-0.2,0.2-0.4,0.3-0.7,0.3
				S146.8,133.6,146.6,133.4z"/>
		</g>
		<g>
			<path class="st14" d="M152.6,148.2L152.6,148.2c0,0.2,0.1,0.3,0.2,0.3c0.1,0,0.2-0.2,0.2-0.3v-0.8l0,0l0,0v0.8
				c0,0.2-0.1,0.4-0.2,0.4C152.7,148.6,152.6,148.4,152.6,148.2L152.6,148.2z"/>
			<path class="st14" d="M153.4,148.2h-0.3v0.3l0,0l0,0c0,0,0,0,0-0.1l0.2-1.2l0,0l0,0l0.2,1.2c0,0,0,0,0,0.1l0,0l0,0L153.4,148.2z
				 M153.1,148.1h0.2l-0.1-0.7L153.1,148.1z"/>
			<path class="st14" d="M153.6,147.5v1l0,0l0,0v-1.1l0,0l0,0l0.3,1.1v-1l0,0l0,0v1.2l0,0l0,0l0,0L153.6,147.5z"/>
			<path class="st14" d="M154.2,147.4C154.2,147.3,154.2,147.3,154.2,147.4C154.2,147.3,154.2,147.3,154.2,147.4v0.7
				c0,0.2,0.1,0.4,0.2,0.4c0.1,0,0.2-0.2,0.2-0.4v-0.7l0,0l0,0v0.7c0,0.3-0.1,0.5-0.2,0.5c-0.1,0-0.2-0.2-0.2-0.5V147.4z"/>
			<path class="st14" d="M155.1,148.2h-0.3v0.3l0,0l0,0c0,0,0,0,0-0.1l0.2-1.2l0,0l0,0l0.2,1.2c0,0,0,0,0,0.1l0,0l0,0L155.1,148.2z
				 M154.8,148.1h0.2l-0.1-0.7L154.8,148.1z"/>
			<path class="st14" d="M155.6,148.3c0-0.1,0-0.1,0-0.2l-0.1-0.1l0,0h-0.1v0.5l0,0l0,0v-1.2l0,0l0,0l0,0h0.2c0.1,0,0.2,0.2,0.2,0.4
				c0,0.1,0,0.3-0.1,0.3l0,0C155.6,148,155.6,148.1,155.6,148.3c0,0.1,0,0.1,0,0.1l0,0l0,0c0,0,0,0,0,0.1l0,0l0,0c0,0,0,0,0-0.1
				C155.6,148.4,155.6,148.4,155.6,148.3z M155.4,147.4h-0.1v0.5h0.1l0,0c0.1,0,0.1-0.1,0.1-0.3
				C155.6,147.5,155.5,147.4,155.4,147.4z"/>
			<path class="st14" d="M155.9,148l-0.2-0.6c0,0,0,0,0-0.1l0,0L155.9,148l0.2-0.6l0,0c0,0,0,0,0,0.1L155.9,148v0.6l0,0l0,0V148z"/>
		</g>
		<g>
			<path class="st14" d="M159.6,147.4C159.6,147.3,159.6,147.3,159.6,147.4L159.6,147.4h0.3l0,0l0,0H159.6v0.5h0.2l0,0l0,0h-0.2v0.5
				l0,0l0,0V147.4z"/>
			<path class="st14" d="M160.1,147.4C160.1,147.3,160.1,147.3,160.1,147.4L160.1,147.4h0.3l0,0l0,0H160.1v0.5h0.2l0,0l0,0h-0.2v0.5
				h0.3l0,0l0,0h-0.3l0,0l0,0l0,0V147.4z"/>
			<path class="st14" d="M160.5,147.4C160.5,147.3,160.5,147.3,160.5,147.4L160.5,147.4h0.1c0.1,0,0.1,0.1,0.1,0.3
				c0,0.1,0,0.2-0.1,0.2c0.1,0,0.1,0.2,0.1,0.3c0,0.2-0.1,0.4-0.2,0.4h-0.2l0,0l0,0l0,0v-1.2H160.5z M160.7,147.8
				c0.1,0,0.1-0.1,0.1-0.2c0-0.1,0-0.2-0.1-0.2h-0.1v0.4H160.7z M160.7,148.5c0.1,0,0.1-0.1,0.1-0.3c0-0.1-0.1-0.3-0.1-0.3h-0.1v0.5
				h0.1V148.5z"/>
			<path class="st14" d="M161.3,148.3c0-0.1,0-0.1,0-0.2l-0.1-0.1l0,0H161v0.5l0,0l0,0v-1.2l0,0l0,0l0,0h0.2c0.1,0,0.2,0.2,0.2,0.4
				c0,0.1,0,0.3-0.1,0.3l0,0C161.3,148,161.3,148.1,161.3,148.3c0,0.1,0,0.1,0,0.1l0,0l0,0c0,0,0,0,0,0.1l0,0l0,0c0,0,0,0,0-0.1
				C161.3,148.4,161.3,148.4,161.3,148.3z M161.2,147.4H161v0.5h0.1l0,0c0.1,0,0.1-0.1,0.1-0.3C161.3,147.5,161.2,147.4,161.2,147.4
				z"/>
			<path class="st14" d="M161.5,147.4C161.5,147.3,161.5,147.3,161.5,147.4C161.5,147.3,161.5,147.3,161.5,147.4v0.7
				c0,0.2,0.1,0.4,0.2,0.4c0.1,0,0.2-0.2,0.2-0.4v-0.7l0,0l0,0v0.7c0,0.3-0.1,0.5-0.2,0.5c-0.1,0-0.2-0.2-0.2-0.5V147.4z"/>
			<path class="st14" d="M162.4,148.2h-0.3v0.3l0,0l0,0c0,0,0,0,0-0.1l0.2-1.2l0,0l0,0l0.2,1.2c0,0,0,0,0,0.1l0,0l0,0L162.4,148.2z
				 M162.1,148.1h0.2l-0.1-0.7L162.1,148.1z"/>
			<path class="st14" d="M162.8,148.3c0-0.1,0-0.1,0-0.2l-0.1-0.1l0,0h-0.1v0.5l0,0l0,0v-1.2l0,0l0,0l0,0h0.2c0.1,0,0.2,0.2,0.2,0.4
				c0,0.1,0,0.3-0.1,0.3l0,0C162.8,148,162.9,148.1,162.8,148.3c0,0.1,0,0.1,0,0.1l0,0l0,0c0,0,0,0,0,0.1l0,0l0,0c0,0,0,0,0-0.1
				C162.9,148.4,162.8,148.4,162.8,148.3z M162.7,147.4h-0.1v0.5h0.1l0,0c0.1,0,0.1-0.1,0.1-0.3
				C162.9,147.5,162.8,147.4,162.7,147.4z"/>
			<path class="st14" d="M163.2,148l-0.2-0.6c0,0,0,0,0-0.1l0,0L163.2,148l0.2-0.6l0,0c0,0,0,0,0,0.1L163.2,148v0.6l0,0l0,0V148z"/>
		</g>
		<g>
			<path class="st14" d="M167.7,147.5l-0.2,0.6l0,0l0,0l0,0l-0.2-0.6v1l0,0l0,0v-1.2l0,0l0,0l0,0l0.2,0.6l0.2-0.6l0,0l0,0l0,0v1.2
				l0,0l0,0V147.5z"/>
			<path class="st14" d="M168.2,148.2h-0.3v0.3l0,0l0,0c0,0,0,0,0-0.1l0.2-1.2l0,0l0,0l0.2,1.2c0,0,0,0,0,0.1l0,0l0,0L168.2,148.2z
				 M168,148.1h0.2l-0.1-0.7L168,148.1z"/>
			<path class="st14" d="M168.7,148.3c0-0.1,0-0.1,0-0.2l-0.1-0.1l0,0h-0.1v0.5l0,0l0,0v-1.2l0,0l0,0l0,0h0.2c0.1,0,0.2,0.2,0.2,0.4
				c0,0.1,0,0.3-0.1,0.3l0,0C168.7,148,168.7,148.1,168.7,148.3c0,0.1,0,0.1,0,0.1l0,0l0,0c0,0,0,0,0,0.1l0,0l0,0c0,0,0,0,0-0.1
				C168.7,148.4,168.7,148.4,168.7,148.3z M168.6,147.4h-0.1v0.5h0.1l0,0c0.1,0,0.1-0.1,0.1-0.3
				C168.7,147.5,168.6,147.4,168.6,147.4z"/>
			<path class="st14" d="M169.2,147.3c0.1,0,0.1,0.1,0.2,0.1c0,0,0,0,0,0.1l0,0C169.3,147.4,169.2,147.4,169.2,147.3
				c-0.1,0.1-0.3,0.3-0.3,0.6s0.1,0.5,0.3,0.5c0.1,0,0.1,0,0.2-0.1l0,0c0,0,0,0,0,0.1s-0.1,0.1-0.2,0.1c-0.2,0-0.3-0.3-0.3-0.6
				S169,147.3,169.2,147.3z"/>
			<path class="st14" d="M169.8,148h-0.3v0.5l0,0l0,0v-1.2l0,0l0,0v0.5L169.8,148v-0.6l0,0l0,0v1.2l0,0l0,0V148z"/>
		</g>
		<g>
			<path class="st14" d="M175,148.2h-0.3v0.3l0,0l0,0c0,0,0,0,0-0.1l0.2-1.2l0,0l0,0l0.2,1.2c0,0,0,0,0,0.1l0,0l0,0L175,148.2z
				 M174.8,148.1h0.2l-0.1-0.7L174.8,148.1z"/>
			<path class="st14" d="M175.2,147.4C175.2,147.3,175.2,147.3,175.2,147.4L175.2,147.4h0.2c0.1,0,0.2,0.2,0.2,0.4s-0.1,0.4-0.2,0.4
				h-0.1v0.5l0,0l0,0L175.2,147.4L175.2,147.4L175.2,147.4z M175.4,147.9c0.1,0,0.1-0.1,0.1-0.3c0-0.1-0.1-0.3-0.1-0.3h-0.1v0.5h0.1
				V147.9z"/>
			<path class="st14" d="M176,148.3c0-0.1,0-0.1,0-0.2l-0.1-0.1l0,0h-0.1v0.5l0,0l0,0v-1.2l0,0l0,0l0,0h0.2c0.1,0,0.2,0.2,0.2,0.4
				c0,0.1,0,0.3-0.1,0.3l0,0C176,148,176,148.1,176,148.3c0,0.1,0,0.1,0,0.1l0,0l0,0c0,0,0,0,0,0.1l0,0l0,0c0,0,0,0,0-0.1
				C176,148.4,176,148.4,176,148.3z M175.9,147.4h-0.1v0.5h0.1l0,0c0.1,0,0.1-0.1,0.1-0.3C176,147.5,175.9,147.4,175.9,147.4z"/>
			<path class="st14" d="M176.2,147.4C176.2,147.3,176.2,147.3,176.2,147.4C176.2,147.3,176.2,147.3,176.2,147.4v1.2l0,0l0,0V147.4z
				"/>
			<path class="st14" d="M176.5,148.6L176.5,148.6C176.4,148.6,176.4,148.5,176.5,148.6v-1.2l0,0l0,0V148.6l0.3-0.1l0,0l0,0h-0.3
				V148.6z"/>
		</g>
		<g>
			<path class="st14" d="M182.6,147.5l-0.2,0.6l0,0l0,0l0,0l-0.2-0.6v1l0,0l0,0v-1.2l0,0l0,0l0,0l0.2,0.6l0.2-0.6l0,0l0,0l0,0v1.2
				l0,0l0,0V147.5z"/>
			<path class="st14" d="M183.1,148.2h-0.3v0.3l0,0l0,0c0,0,0,0,0-0.1l0.2-1.2l0,0l0,0l0.2,1.2c0,0,0,0,0,0.1l0,0l0,0L183.1,148.2z
				 M182.8,148.1h0.2l-0.1-0.7L182.8,148.1z"/>
			<path class="st14" d="M183.4,148l-0.2-0.6c0,0,0,0,0-0.1l0,0L183.4,148l0.2-0.6l0,0c0,0,0,0,0,0.1L183.4,148v0.6l0,0l0,0V148z"/>
		</g>
		<g>
			<path class="st14" d="M189,148.2L189,148.2c0,0.2,0.1,0.3,0.2,0.3c0.1,0,0.2-0.2,0.2-0.3v-0.8l0,0l0,0v0.8c0,0.2-0.1,0.4-0.2,0.4
				C189,148.6,189,148.4,189,148.2C188.9,148.2,188.9,148.2,189,148.2z"/>
			<path class="st14" d="M189.5,147.4C189.5,147.3,189.5,147.3,189.5,147.4C189.5,147.3,189.5,147.3,189.5,147.4v0.7
				c0,0.2,0.1,0.4,0.2,0.4c0.1,0,0.2-0.2,0.2-0.4v-0.7l0,0l0,0v0.7c0,0.3-0.1,0.5-0.2,0.5c-0.1,0-0.2-0.2-0.2-0.5V147.4z"/>
			<path class="st14" d="M190.1,147.5v1l0,0l0,0v-1.1l0,0l0,0l0.3,1.1v-1l0,0l0,0v1.2l0,0l0,0l0,0L190.1,147.5z"/>
			<path class="st14" d="M190.6,147.4C190.6,147.3,190.7,147.3,190.6,147.4L190.6,147.4h0.3l0,0l0,0H190.6v0.5h0.2l0,0l0,0h-0.2v0.5
				h0.3l0,0l0,0h-0.3l0,0l0,0l0,0V147.4z"/>
		</g>
		<g>
			<path class="st14" d="M196.2,148.2L196.2,148.2c0,0.2,0.1,0.3,0.2,0.3c0.1,0,0.2-0.2,0.2-0.3v-0.8l0,0l0,0v0.8
				c0,0.2-0.1,0.4-0.2,0.4C196.3,148.6,196.2,148.4,196.2,148.2L196.2,148.2z"/>
			<path class="st14" d="M196.7,147.4C196.7,147.3,196.7,147.3,196.7,147.4C196.7,147.3,196.7,147.3,196.7,147.4v0.7
				c0,0.2,0.1,0.4,0.2,0.4c0.1,0,0.2-0.2,0.2-0.4v-0.7l0,0l0,0v0.7c0,0.3-0.1,0.5-0.2,0.5c-0.1,0-0.2-0.2-0.2-0.5V147.4z"/>
			<path class="st14" d="M197.3,148.6L197.3,148.6C197.3,148.6,197.3,148.5,197.3,148.6v-1.2l0,0l0,0V148.6l0.3-0.1l0,0l0,0h-0.3
				V148.6z"/>
			<path class="st14" d="M197.8,148l-0.2-0.6c0,0,0,0,0-0.1l0,0L197.8,148l0.2-0.6l0,0c0,0,0,0,0,0.1L197.8,148v0.6l0,0l0,0V148z"/>
		</g>
		<g>
			<path class="st14" d="M202.9,148.2h-0.3v0.3l0,0l0,0c0,0,0,0,0-0.1l0.2-1.2l0,0l0,0l0.2,1.2c0,0,0,0,0,0.1l0,0l0,0L202.9,148.2z
				 M202.6,148.1h0.2l-0.1-0.7L202.6,148.1z"/>
			<path class="st14" d="M203.1,147.4C203.1,147.3,203.1,147.3,203.1,147.4C203.1,147.3,203.1,147.3,203.1,147.4v0.7
				c0,0.2,0.1,0.4,0.2,0.4c0.1,0,0.2-0.2,0.2-0.4v-0.7l0,0l0,0v0.7c0,0.3-0.1,0.5-0.2,0.5c-0.1,0-0.2-0.2-0.2-0.5V147.4z"/>
			<path class="st14" d="M204,148L204,148C204,147.9,204,147.9,204,148l0.2-0.1l0,0l0,0v0.4l0,0l0,0c0,0.1-0.1,0.1-0.2,0.1
				c-0.2,0-0.3-0.3-0.3-0.6s0.1-0.6,0.3-0.6c0.1,0,0.1,0.1,0.2,0.1c0,0,0,0,0,0.1l0,0c0-0.1-0.1-0.1-0.2-0.1c-0.1,0-0.2,0.2-0.2,0.5
				s0.1,0.5,0.2,0.5c0.1,0,0.1,0,0.1-0.1V148H204z"/>
			<path class="st14" d="M204.4,147.4C204.4,147.3,204.4,147.3,204.4,147.4C204.4,147.3,204.4,147.3,204.4,147.4v0.7
				c0,0.2,0.1,0.4,0.2,0.4c0.1,0,0.2-0.2,0.2-0.4v-0.7l0,0l0,0v0.7c0,0.3-0.1,0.5-0.2,0.5c-0.1,0-0.2-0.2-0.2-0.5V147.4z"/>
			<path class="st14" d="M205,148.3L205,148.3c0.1,0.1,0.1,0.2,0.2,0.2c0,0,0.1,0,0.1-0.1s0-0.1,0-0.2c0-0.1,0-0.1,0-0.2l-0.1-0.1
				l0,0c-0.1,0-0.1-0.1-0.1-0.1c0-0.1-0.1-0.1-0.1-0.2c0-0.1,0-0.2,0.1-0.2c0-0.1,0.1-0.1,0.1-0.1c0.1,0,0.1,0.1,0.2,0.1
				c0,0,0,0,0,0.1l0,0c0-0.1-0.1-0.1-0.2-0.1c0,0-0.1,0-0.1,0.1c0,0,0,0.1,0,0.2c0,0.1,0,0.1,0,0.2l0.1,0.1l0,0
				c0.1,0,0.1,0.1,0.1,0.1c0,0.1,0.1,0.1,0.1,0.2c0,0.1,0,0.2-0.1,0.3c0,0.1-0.1,0.1-0.1,0.1C205.1,148.6,205,148.5,205,148.3
				C205,148.4,205,148.3,205,148.3z"/>
			<path class="st14" d="M205.7,147.4h-0.2l0,0l0,0h0.4l0,0l0,0H205.7v1.1l0,0l0,0V147.4z"/>
		</g>
		<g>
			<path class="st14" d="M209.1,148.3L209.1,148.3c0.1,0.1,0.1,0.2,0.2,0.2c0,0,0.1,0,0.1-0.1s0-0.1,0-0.2c0-0.1,0-0.1,0-0.2
				l-0.1-0.1l0,0c-0.1,0-0.1-0.1-0.1-0.1c0-0.1-0.1-0.1-0.1-0.2c0-0.1,0-0.2,0.1-0.2c0-0.1,0.1-0.1,0.1-0.1c0.1,0,0.1,0.1,0.2,0.1
				c0,0,0,0,0,0.1l0,0c0-0.1-0.1-0.1-0.2-0.1c0,0-0.1,0-0.1,0.1c0,0,0,0.1,0,0.2c0,0.1,0,0.1,0,0.2l0.1,0.1l0,0
				c0.1,0,0.1,0.1,0.1,0.1c0,0.1,0.1,0.1,0.1,0.2c0,0.1,0,0.2-0.1,0.3c0,0.1-0.1,0.1-0.1,0.1C209.2,148.6,209.2,148.5,209.1,148.3
				C209.1,148.4,209.1,148.3,209.1,148.3z"/>
			<path class="st14" d="M209.7,147.4C209.7,147.3,209.7,147.3,209.7,147.4L209.7,147.4h0.3l0,0l0,0H209.7v0.5h0.2l0,0l0,0h-0.2v0.5
				h0.3l0,0l0,0h-0.3l0,0l0,0l0,0V147.4z"/>
			<path class="st14" d="M210.1,147.4C210.1,147.3,210.2,147.3,210.1,147.4L210.1,147.4h0.2c0.1,0,0.2,0.2,0.2,0.4s-0.1,0.4-0.2,0.4
				h-0.1v0.5l0,0l0,0L210.1,147.4L210.1,147.4L210.1,147.4z M210.3,147.9c0.1,0,0.1-0.1,0.1-0.3c0-0.1-0.1-0.3-0.1-0.3h-0.1v0.5h0.1
				V147.9z"/>
			<path class="st14" d="M210.7,147.4h-0.2l0,0l0,0h0.4l0,0l0,0H210.7v1.1l0,0l0,0V147.4z"/>
			<path class="st14" d="M211.1,147.4C211.1,147.3,211.1,147.3,211.1,147.4L211.1,147.4h0.3l0,0l0,0H211.1v0.5h0.2l0,0l0,0h-0.2v0.5
				h0.3l0,0l0,0h-0.3l0,0l0,0l0,0V147.4z"/>
			<path class="st14" d="M212,147.5l-0.2,0.6l0,0l0,0l0,0l-0.2-0.6v1l0,0l0,0v-1.2l0,0l0,0l0,0l0.2,0.6l0.2-0.6l0,0l0,0l0,0v1.2l0,0
				l0,0V147.5z"/>
			<path class="st14" d="M212.3,147.4C212.3,147.3,212.3,147.3,212.3,147.4L212.3,147.4h0.1c0.1,0,0.1,0.1,0.1,0.3
				c0,0.1,0,0.2-0.1,0.2c0.1,0,0.1,0.2,0.1,0.3c0,0.2-0.1,0.4-0.2,0.4h-0.2l0,0l0,0l0,0v-1.2H212.3z M212.4,147.8
				c0.1,0,0.1-0.1,0.1-0.2c0-0.1,0-0.2-0.1-0.2h-0.1v0.4H212.4z M212.4,148.5c0.1,0,0.1-0.1,0.1-0.3c0-0.1-0.1-0.3-0.1-0.3h-0.1v0.5
				h0.1V148.5z"/>
			<path class="st14" d="M212.7,147.4C212.7,147.3,212.7,147.3,212.7,147.4L212.7,147.4h0.3l0,0l0,0H212.7v0.5h0.2l0,0l0,0h-0.2v0.5
				h0.3l0,0l0,0h-0.3l0,0l0,0l0,0V147.4z"/>
			<path class="st14" d="M213.5,148.3c0-0.1,0-0.1,0-0.2l-0.1-0.1l0,0h-0.1v0.5l0,0l0,0v-1.2l0,0l0,0l0,0h0.2c0.1,0,0.2,0.2,0.2,0.4
				c0,0.1,0,0.3-0.1,0.3l0,0C213.5,148,213.5,148.1,213.5,148.3c0,0.1,0,0.1,0,0.1l0,0l0,0c0,0,0,0,0,0.1l0,0l0,0c0,0,0,0,0-0.1
				C213.5,148.4,213.5,148.4,213.5,148.3z M213.4,147.4h-0.1v0.5h0.1l0,0c0.1,0,0.1-0.1,0.1-0.3
				C213.5,147.5,213.4,147.4,213.4,147.4z"/>
		</g>
		<g>
			<path class="st14" d="M216.9,147.3c0.1,0,0.3,0.3,0.3,0.6c0,0.4-0.1,0.6-0.3,0.6c-0.1,0-0.3-0.3-0.3-0.6
				C216.6,147.6,216.7,147.3,216.9,147.3z M216.9,148.5c0.1,0,0.2-0.2,0.2-0.5s-0.1-0.5-0.2-0.5c-0.1,0-0.2,0.2-0.2,0.5
				C216.7,148.2,216.8,148.5,216.9,148.5z"/>
			<path class="st14" d="M217.6,147.3c0.1,0,0.1,0.1,0.2,0.1c0,0,0,0,0,0.1l0,0C217.7,147.4,217.6,147.4,217.6,147.3
				c-0.1,0.1-0.2,0.3-0.2,0.6s0.1,0.5,0.2,0.5c0.1,0,0.1,0,0.2-0.1l0,0c0,0,0,0,0,0.1s-0.1,0.1-0.2,0.1c-0.2,0-0.3-0.3-0.3-0.6
				S217.4,147.3,217.6,147.3z"/>
			<path class="st14" d="M218,147.4h-0.2l0,0l0,0h0.4l0,0l0,0H218v1.1l0,0l0,0V147.4z"/>
			<path class="st14" d="M218.6,147.3c0.1,0,0.3,0.3,0.3,0.6c0,0.4-0.1,0.6-0.3,0.6c-0.1,0-0.3-0.3-0.3-0.6S218.5,147.3,218.6,147.3
				z M218.6,148.5c0.1,0,0.2-0.2,0.2-0.5s-0.1-0.5-0.2-0.5c-0.1,0-0.2,0.2-0.2,0.5C218.4,148.2,218.5,148.5,218.6,148.5z"/>
			<path class="st14" d="M219,147.4C219,147.3,219,147.3,219,147.4L219,147.4h0.1c0.1,0,0.1,0.1,0.1,0.3c0,0.1,0,0.2-0.1,0.2
				c0.1,0,0.1,0.2,0.1,0.3c0,0.2-0.1,0.4-0.2,0.4l0,0l0,0l0,0l0,0L219,147.4L219,147.4z M219.2,147.8c0.1,0,0.1-0.1,0.1-0.2
				c0-0.1,0-0.2-0.1-0.2h-0.1v0.4H219.2z M219.2,148.5c0.1,0,0.1-0.1,0.1-0.3c0-0.1-0.1-0.3-0.1-0.3h-0.1v0.5h0.1V148.5z"/>
			<path class="st14" d="M219.5,147.4C219.5,147.3,219.5,147.3,219.5,147.4L219.5,147.4h0.3l0,0l0,0H219.5v0.5h0.2l0,0l0,0h-0.2v0.5
				h0.3l0,0l0,0h-0.3l0,0l0,0l0,0V147.4z"/>
			<path class="st14" d="M220.2,148.3c0-0.1,0-0.1,0-0.2l-0.1-0.1l0,0H220v0.5l0,0l0,0v-1.2l0,0l0,0l0,0h0.2c0.1,0,0.2,0.2,0.2,0.4
				c0,0.1,0,0.3-0.1,0.3l0,0C220.2,148,220.3,148.1,220.2,148.3c0,0.1,0,0.1,0,0.1l0,0l0,0c0,0,0,0,0,0.1l0,0l0,0c0,0,0,0,0-0.1
				C220.3,148.4,220.2,148.4,220.2,148.3z M220.1,147.4H220v0.5h0.1l0,0c0.1,0,0.1-0.1,0.1-0.3C220.3,147.5,220.2,147.4,220.1,147.4
				z"/>
		</g>
		<g>
			<path class="st14" d="M223.5,147.5v1l0,0l0,0v-1.1l0,0l0,0l0.3,1.1v-1l0,0l0,0v1.2l0,0l0,0l0,0L223.5,147.5z"/>
			<path class="st14" d="M224.3,147.3c0.1,0,0.3,0.3,0.3,0.6c0,0.4-0.1,0.6-0.3,0.6c-0.1,0-0.3-0.3-0.3-0.6S224.2,147.3,224.3,147.3
				z M224.3,148.5c0.1,0,0.2-0.2,0.2-0.5s-0.1-0.5-0.2-0.5c-0.1,0-0.2,0.2-0.2,0.5C224.1,148.2,224.2,148.5,224.3,148.5z"/>
			<path class="st14" d="M224.9,148.5L224.9,148.5L224.9,148.5l-0.2-1.2c0,0,0,0,0-0.1l0,0l0.2,1.1l0.2-1.1l0,0c0,0,0,0,0,0.1
				L224.9,148.5C224.9,148.5,224.9,148.6,224.9,148.5L224.9,148.5C224.9,148.6,224.9,148.6,224.9,148.5
				C224.9,148.6,224.9,148.6,224.9,148.5C224.9,148.6,224.9,148.6,224.9,148.5C224.9,148.6,224.9,148.5,224.9,148.5z"/>
			<path class="st14" d="M225.3,147.4C225.3,147.3,225.3,147.3,225.3,147.4L225.3,147.4h0.3l0,0l0,0H225.3v0.5h0.2l0,0l0,0h-0.2v0.5
				h0.3l0,0l0,0h-0.3l0,0l0,0l0,0V147.4z"/>
			<path class="st14" d="M226.2,147.5L226,148l0,0l0,0l0,0l-0.2-0.6v1l0,0l0,0v-1.2l0,0l0,0l0,0l0.2,0.6l0.2-0.6l0,0l0,0l0,0v1.2
				l0,0l0,0V147.5z"/>
			<path class="st14" d="M226.4,147.4C226.4,147.3,226.4,147.3,226.4,147.4L226.4,147.4h0.1c0.1,0,0.1,0.1,0.1,0.3
				c0,0.1,0,0.2-0.1,0.2c0.1,0,0.1,0.2,0.1,0.3c0,0.2-0.1,0.4-0.2,0.4h-0.2l0,0l0,0l0,0v-1.2H226.4z M226.6,147.8
				c0.1,0,0.1-0.1,0.1-0.2c0-0.1,0-0.2-0.1-0.2h-0.1v0.4H226.6z M226.6,148.5c0.1,0,0.1-0.1,0.1-0.3c0-0.1-0.1-0.3-0.1-0.3h-0.1v0.5
				h0.1V148.5z"/>
			<path class="st14" d="M226.9,147.4C226.9,147.3,226.9,147.3,226.9,147.4L226.9,147.4h0.3l0,0l0,0H226.9v0.5h0.2l0,0l0,0h-0.2v0.5
				h0.3l0,0l0,0h-0.3l0,0l0,0l0,0V147.4z"/>
			<path class="st14" d="M227.6,148.3c0-0.1,0-0.1,0-0.2l-0.1-0.1l0,0h-0.1v0.5l0,0l0,0v-1.2l0,0l0,0l0,0h0.2c0.1,0,0.2,0.2,0.2,0.4
				c0,0.1,0,0.3-0.1,0.3l0,0C227.6,148,227.7,148.1,227.6,148.3c0,0.1,0,0.1,0,0.1l0,0l0,0c0,0,0,0,0,0.1l0,0l0,0c0,0,0,0,0-0.1
				C227.6,148.4,227.6,148.4,227.6,148.3z M227.5,147.4h-0.1v0.5h0.1l0,0c0.1,0,0.1-0.1,0.1-0.3
				C227.7,147.5,227.6,147.4,227.5,147.4z"/>
		</g>
		<g>
			<path class="st14" d="M230.7,148.6L230.7,148.6C230.7,148.6,230.7,148.5,230.7,148.6v-1.2l0,0l0,0h0.1c0.2,0,0.3,0.3,0.3,0.6
				s-0.1,0.6-0.3,0.6L230.7,148.6L230.7,148.6z M230.8,148.5c0.1,0,0.2-0.2,0.2-0.5s-0.1-0.5-0.2-0.5h-0.1L230.8,148.5L230.8,148.5z
				"/>
			<path class="st14" d="M231.2,147.4C231.2,147.3,231.2,147.3,231.2,147.4L231.2,147.4h0.3l0,0l0,0H231.2v0.5h0.2l0,0l0,0h-0.2v0.5
				h0.3l0,0l0,0h-0.3l0,0l0,0l0,0V147.4z"/>
			<path class="st14" d="M232,147.3c0.1,0,0.1,0.1,0.2,0.1c0,0,0,0,0,0.1l0,0C232.1,147.4,232,147.4,232,147.3
				c-0.1,0.1-0.3,0.3-0.3,0.6s0.1,0.5,0.3,0.5c0.1,0,0.1,0,0.2-0.1l0,0c0,0,0,0,0,0.1s-0.1,0.1-0.2,0.1c-0.2,0-0.3-0.3-0.3-0.6
				S231.8,147.3,232,147.3z"/>
			<path class="st14" d="M232.3,147.4C232.3,147.3,232.3,147.3,232.3,147.4L232.3,147.4h0.3l0,0l0,0H232.3v0.5h0.2l0,0l0,0h-0.2v0.5
				h0.3l0,0l0,0h-0.3l0,0l0,0l0,0V147.4z"/>
			<path class="st14" d="M233.2,147.5L233,148l0,0l0,0l0,0l-0.2-0.6v1l0,0l0,0v-1.2l0,0l0,0l0,0l0.2,0.6l0.2-0.6l0,0l0,0l0,0v1.2
				l0,0l0,0V147.5z"/>
			<path class="st14" d="M233.4,147.4C233.4,147.3,233.5,147.3,233.4,147.4L233.4,147.4h0.1c0.1,0,0.1,0.1,0.1,0.3
				c0,0.1,0,0.2-0.1,0.2c0.1,0,0.1,0.2,0.1,0.3c0,0.2-0.1,0.4-0.2,0.4h-0.2l0,0l0,0l0,0v-1.2H233.4z M233.6,147.8
				c0.1,0,0.1-0.1,0.1-0.2c0-0.1,0-0.2-0.1-0.2h-0.1v0.4H233.6z M233.6,148.5c0.1,0,0.1-0.1,0.1-0.3c0-0.1-0.1-0.3-0.1-0.3h-0.1v0.5
				h0.1V148.5z"/>
			<path class="st14" d="M233.9,147.4C233.9,147.3,233.9,147.3,233.9,147.4L233.9,147.4h0.3l0,0l0,0H233.9v0.5h0.2l0,0l0,0H234v0.5
				h0.3l0,0l0,0H234l0,0l0,0l0,0v-1H233.9z"/>
			<path class="st14" d="M234.7,148.3c0-0.1,0-0.1,0-0.2l-0.1-0.1l0,0h-0.1v0.5l0,0l0,0v-1.2l0,0l0,0l0,0h0.2c0.1,0,0.2,0.2,0.2,0.4
				c0,0.1,0,0.3-0.1,0.3l0,0C234.7,148,234.7,148.1,234.7,148.3c0,0.1,0,0.1,0,0.1l0,0l0,0c0,0,0,0,0,0.1l0,0l0,0c0,0,0,0,0-0.1
				C234.7,148.4,234.7,148.4,234.7,148.3z M234.6,147.4h-0.1v0.5h0.1l0,0c0.1,0,0.1-0.1,0.1-0.3
				C234.7,147.5,234.6,147.4,234.6,147.4z"/>
		</g>
	</g>
</g>
<g id="Charts_2">
	<g>
		<g>
			<g>
				<g>
					<line class="st15" x1="46.8" y1="143.6" x2="134.4" y2="143.6"/>
					<line class="st15" x1="46.8" y1="133" x2="134.4" y2="133"/>
					<line class="st15" x1="46.8" y1="122.4" x2="134.4" y2="122.4"/>
					<line class="st15" x1="46.8" y1="111.8" x2="134.4" y2="111.8"/>
					<path class="st15" d="M67.7,104.3H51.4c-1.6,0-2.9-1.3-2.9-2.9v-5.7c0-1.6,1.3-2.9,2.9-2.9h16.3c1.6,0,2.9,1.3,2.9,2.9v5.7
						C70.6,103,69.3,104.3,67.7,104.3z"/>
					<path class="st15" d="M94.4,104.3H78.1c-1.6,0-2.9-1.3-2.9-2.9v-5.7c0-1.6,1.3-2.9,2.9-2.9h16.3c1.6,0,2.9,1.3,2.9,2.9v5.7
						C97.4,103,96.1,104.3,94.4,104.3z"/>
				</g>
			</g>
		</g>
		<g>
			<path d="M53.6,95.1v-0.6h1v0.6c0.9,0.2,1.3,0.8,1.3,1.8v0.2h-1.2v-0.3c0-0.5-0.2-0.7-0.6-0.7c-0.4,0-0.6,0.2-0.6,0.7
				c0,1.5,2.4,1.6,2.4,3.7c0,1-0.5,1.7-1.3,1.8v0.5h-1v-0.5c-0.9-0.2-1.3-0.8-1.3-1.8V100h1.2v0.6c0,0.5,0.2,0.7,0.6,0.7
				c0.4,0,0.6-0.2,0.6-0.7c0-1.5-2.4-1.6-2.4-3.7C52.3,96,52.8,95.3,53.6,95.1z"/>
		</g>
		<g>
			<path d="M90.7,96.6c0-0.6,0.3-1,1-1c0.6,0,1,0.3,1,1v1.9c0,0.6-0.3,1-1,1c-0.6,0-1-0.3-1-1V96.6z M91.3,98.6
				c0,0.2,0.1,0.4,0.3,0.4c0.2,0,0.3-0.1,0.3-0.4v-2.1c0-0.2-0.2-0.4-0.3-0.4c-0.2,0-0.3,0.1-0.3,0.4V98.6z M94.1,95.7h0.6l-2.5,6
				h-0.6L94.1,95.7z M93.8,98.8c0-0.6,0.3-1,1-1s1,0.3,1,1v1.9c0,0.6-0.3,1-1,1c-0.6,0-1-0.3-1-1V98.8z M94.5,100.8
				c0,0.2,0.1,0.4,0.3,0.4c0.2,0,0.3-0.1,0.3-0.4v-2.1c0-0.2-0.2-0.4-0.3-0.4c-0.2,0-0.3,0.1-0.3,0.4V100.8z"/>
		</g>
		<g>
			<g>
				<g>
					<rect x="115.8" y="98.5" class="st16" width="14.7" height="45.1"/>
				</g>
			</g>
			<g>
				<g>
					<rect x="99.5" y="106.4" class="st7" width="14.7" height="37.2"/>
				</g>
			</g>
			<g>
				<g>
					<rect x="83.1" y="122.4" class="st8" width="14.7" height="21.2"/>
				</g>
			</g>
			<g>
				<g>
					<rect x="50.5" y="122.4" class="st17" width="14.7" height="21.2"/>
				</g>
			</g>
			<g>
				<g>
					<rect x="66.8" y="130.3" class="st5" width="14.7" height="13.3"/>
				</g>
			</g>
		</g>
		<line class="st15" x1="68.2" y1="148.8" x2="79.9" y2="148.8"/>
		<line class="st15" x1="52.1" y1="148.8" x2="63.9" y2="148.8"/>
		<line class="st15" x1="84.7" y1="148.8" x2="96.5" y2="148.8"/>
		<line class="st15" x1="101.3" y1="148.8" x2="113" y2="148.8"/>
		<line class="st15" x1="116.7" y1="148.8" x2="128.4" y2="148.8"/>
	</g>
</g>
<g id="Charts_1">
	<g>
		<polyline class="st18" points="70,56.1 104.8,53.8 139.2,62.4 174,47.7 209.1,33.7 		"/>
		<g>
			<ellipse class="st19" cx="139.2" cy="62.4" rx="10.4" ry="9.9"/>
			<g>
				<path class="st6" d="M135.9,62c0.1-0.2,0.4-0.4,0.7-0.4c0.6,0,0.9,0.4,0.9,1.1v0.9c0,0.7-0.3,1.1-1.1,1.1
					c-0.7,0-1.1-0.5-1.1-1.1v-0.3h0.5v0.3c0,0.4,0.2,0.7,0.6,0.7s0.6-0.2,0.6-0.7v-0.9c0-0.4-0.2-0.7-0.6-0.7
					c-0.3,0-0.5,0.2-0.5,0.5v0.1h-0.5l0.1-2.5h1.9v0.5H136L135.9,62z"/>
				<path class="st6" d="M137.9,61.2c0-0.7,0.4-1.1,1.1-1.1c0.7,0,1.1,0.4,1.1,1.1v2.3c0,0.7-0.4,1.1-1.1,1.1
					c-0.7,0-1.1-0.5-1.1-1.1V61.2z M138.5,63.6c0,0.4,0.2,0.7,0.6,0.7c0.4,0,0.6-0.2,0.6-0.7v-2.4c0-0.4-0.2-0.7-0.6-0.7
					c-0.4,0-0.6,0.2-0.6,0.7V63.6z"/>
				<path class="st6" d="M141.9,60.9v1.4c0,0.4-0.2,0.7-0.7,0.7s-0.7-0.3-0.7-0.7v-1.4c0-0.4,0.2-0.7,0.7-0.7
					C141.7,60.1,141.9,60.4,141.9,60.9z M140.9,60.8v1.5c0,0.2,0.1,0.4,0.3,0.4s0.3-0.2,0.3-0.4v-1.5c0-0.2-0.1-0.4-0.3-0.4
					C141,60.4,140.9,60.6,140.9,60.8z M143.5,60.2l-1.9,4.5h-0.3l1.9-4.5C143.2,60.2,143.5,60.2,143.5,60.2z M144.3,62.5V64
					c0,0.4-0.2,0.7-0.7,0.7s-0.7-0.3-0.7-0.7v-1.4c0-0.4,0.2-0.7,0.7-0.7C144.1,61.8,144.3,62.1,144.3,62.5z M143.2,62.5V64
					c0,0.2,0.1,0.4,0.3,0.4s0.3-0.2,0.3-0.4v-1.5c0-0.2-0.1-0.4-0.3-0.4S143.2,62.3,143.2,62.5z"/>
			</g>
		</g>
		<g>
			<ellipse class="st20" cx="70" cy="56.1" rx="11.5" ry="11"/>
			<g>
				<path class="st6" d="M67.4,54.1h-1.8v-0.5H68v0.5l-1.4,4.5H66L67.4,54.1z"/>
				<path class="st6" d="M68.5,54.8c0-0.8,0.4-1.3,1.2-1.3c0.8,0,1.2,0.5,1.2,1.3v2.6c0,0.8-0.4,1.3-1.2,1.3c-0.8,0-1.2-0.5-1.2-1.3
					V54.8z M69.1,57.4c0,0.5,0.2,0.7,0.6,0.7s0.6-0.3,0.6-0.7v-2.6c0-0.5-0.2-0.7-0.6-0.7s-0.6,0.3-0.6,0.7V57.4z"/>
				<path class="st6" d="M73,54.4V56c0,0.5-0.2,0.8-0.8,0.8s-0.8-0.3-0.8-0.8v-1.6c0-0.5,0.2-0.8,0.8-0.8S73,53.9,73,54.4z
					 M71.8,54.4V56c0,0.3,0.1,0.5,0.4,0.5s0.4-0.2,0.4-0.5v-1.6c0-0.3-0.1-0.5-0.4-0.5S71.8,54.1,71.8,54.4z M74.7,53.6l-2.1,5h-0.4
					l2.1-5H74.7z M75.5,56.2v1.6c0,0.5-0.2,0.8-0.8,0.8c-0.5,0-0.8-0.3-0.8-0.8v-1.6c0-0.5,0.2-0.8,0.8-0.8S75.5,55.8,75.5,56.2z
					 M74.4,56.2v1.6c0,0.3,0.1,0.5,0.4,0.5s0.4-0.2,0.4-0.5v-1.6c0-0.3-0.1-0.5-0.4-0.5S74.4,56,74.4,56.2z"/>
			</g>
		</g>
		<g>
			<ellipse class="st21" cx="174" cy="47.7" rx="13.6" ry="12.9"/>
			<g>
				<path class="st6" d="M171.7,46.2v3c0,0.9-0.4,1.5-1.4,1.5c-0.9,0-1.4-0.6-1.4-1.5v-0.1h0.6v0.2c0,0.5,0.2,0.8,0.7,0.8
					s0.8-0.3,0.8-0.9v-1.3c-0.2,0.4-0.5,0.6-1,0.6c-0.8,0-1.2-0.5-1.2-1.4v-0.9c0-0.9,0.5-1.5,1.4-1.5
					C171.2,44.7,171.7,45.3,171.7,46.2z M169.5,46.2v0.9c0,0.5,0.2,0.9,0.7,0.9s0.7-0.3,0.7-0.9v-0.9c0-0.5-0.2-0.9-0.7-0.9
					C169.8,45.3,169.5,45.6,169.5,46.2z"/>
				<path class="st6" d="M172.3,46.2c0-0.9,0.5-1.5,1.4-1.5c1,0,1.4,0.6,1.4,1.5v3c0,0.9-0.5,1.5-1.4,1.5s-1.4-0.6-1.4-1.5V46.2z
					 M173,49.3c0,0.5,0.2,0.9,0.7,0.9s0.7-0.3,0.7-0.9v-3.1c0-0.5-0.2-0.9-0.7-0.9s-0.7,0.3-0.7,0.9V49.3z"/>
				<path class="st6" d="M177.5,45.7v1.9c0,0.6-0.3,1-0.9,1c-0.6,0-0.9-0.4-0.9-1v-1.9c0-0.6,0.3-1,0.9-1S177.5,45.1,177.5,45.7z
					 M176.2,45.7v1.9c0,0.3,0.1,0.5,0.4,0.5c0.3,0,0.4-0.2,0.4-0.5v-1.9c0-0.3-0.1-0.5-0.4-0.5C176.3,45.1,176.2,45.4,176.2,45.7z
					 M179.6,44.8l-2.4,5.9h-0.4l2.4-5.9H179.6z M180.6,47.9v1.9c0,0.6-0.3,1-0.9,1c-0.6,0-0.9-0.4-0.9-1v-1.9c0-0.6,0.3-0.9,0.9-0.9
					S180.6,47.3,180.6,47.9z M179.3,47.9v1.9c0,0.3,0.1,0.5,0.4,0.5c0.3,0,0.4-0.2,0.4-0.5v-1.9c0-0.3-0.1-0.5-0.4-0.5
					C179.4,47.3,179.3,47.6,179.3,47.9z"/>
			</g>
		</g>
		<g>
			<ellipse class="st22" cx="104.8" cy="53.8" rx="13.9" ry="13.3"/>
			<g>
				<path class="st6" d="M99,51.5c-0.2,0.1-0.5,0.2-0.9,0.3v-0.6c0.7,0,0.9-0.4,1.1-0.8h0.5v6.1H99V51.5z"/>
				<path class="st6" d="M100.7,51.9c0-0.9,0.5-1.5,1.5-1.5s1.5,0.6,1.5,1.5V55c0,0.9-0.5,1.5-1.5,1.5s-1.5-0.6-1.5-1.5V51.9z
					 M101.4,55c0,0.5,0.2,0.9,0.8,0.9c0.5,0,0.8-0.3,0.8-0.9v-3.2c0-0.6-0.2-0.9-0.8-0.9c-0.5,0-0.8,0.3-0.8,0.9V55z"/>
				<path class="st6" d="M104.2,51.9c0-0.9,0.5-1.5,1.5-1.5s1.5,0.6,1.5,1.5V55c0,0.9-0.5,1.5-1.5,1.5s-1.5-0.6-1.5-1.5V51.9z
					 M104.9,55c0,0.5,0.2,0.9,0.8,0.9c0.5,0,0.8-0.3,0.8-0.9v-3.2c0-0.6-0.2-0.9-0.8-0.9c-0.5,0-0.8,0.3-0.8,0.9V55z"/>
				<path class="st6" d="M109.6,51.3v1.9c0,0.6-0.3,1-0.9,1s-0.9-0.4-0.9-1v-1.9c0-0.6,0.3-1,0.9-1
					C109.3,50.3,109.6,50.7,109.6,51.3z M108.3,51.3v2c0,0.3,0.1,0.5,0.5,0.5c0.3,0,0.5-0.2,0.5-0.5v-2c0-0.3-0.1-0.6-0.5-0.6
					S108.3,51,108.3,51.3z M111.7,50.4l-2.5,6.1h-0.4l2.5-6.1H111.7z M112.7,53.6v1.9c0,0.6-0.3,1-0.9,1s-0.9-0.4-0.9-1v-1.9
					c0-0.6,0.3-1,0.9-1C112.5,52.6,112.7,53,112.7,53.6z M111.4,53.6v2c0,0.3,0.1,0.6,0.5,0.6c0.3,0,0.5-0.2,0.5-0.6v-2
					c0-0.3-0.1-0.5-0.5-0.5C111.5,53,111.4,53.2,111.4,53.6z"/>
			</g>
		</g>
		<g>
			<ellipse class="st23" cx="208.5" cy="34.8" rx="17.1" ry="16.3"/>
			<g>
				<path class="st6" d="M201.4,32c-0.3,0.2-0.7,0.3-1.1,0.3v-0.7c0.8,0,1.1-0.5,1.3-1h0.6v7.5h-0.9L201.4,32L201.4,32z"/>
				<path class="st6" d="M207.1,32.5c0,2.3-2.6,3.1-2.7,4.8v0.1h2.6v0.8h-3.4v-0.6c0-2.4,2.6-2.9,2.6-5c0-0.8-0.3-1.2-0.9-1.2
					c-0.6,0-0.9,0.4-0.9,1.1v0.7h-0.8v-0.6c0-1.1,0.5-1.9,1.8-1.9C206.5,30.6,207.1,31.3,207.1,32.5z"/>
				<path class="st6" d="M207.8,32.5c0-1.1,0.6-1.9,1.8-1.9s1.8,0.7,1.8,1.9v3.8c0,1.1-0.6,1.9-1.8,1.9s-1.8-0.7-1.8-1.9V32.5z
					 M208.7,36.4c0,0.7,0.3,1.1,0.9,1.1c0.6,0,0.9-0.4,0.9-1.1v-3.9c0-0.7-0.3-1.1-0.9-1.1c-0.6,0-0.9,0.4-0.9,1.1V36.4z"/>
				<path class="st6" d="M214.4,31.8v2.4c0,0.7-0.4,1.2-1.1,1.2c-0.8,0-1.1-0.5-1.1-1.2v-2.4c0-0.7,0.4-1.2,1.1-1.2
					S214.4,31.1,214.4,31.8z M212.7,31.8v2.4c0,0.4,0.2,0.7,0.6,0.7c0.4,0,0.6-0.3,0.6-0.7v-2.4c0-0.4-0.2-0.7-0.6-0.7
					S212.7,31.4,212.7,31.8z M217,30.7l-3.1,7.5h-0.5l3.1-7.5H217z M218.2,34.6v2.3c0,0.7-0.3,1.2-1.1,1.2s-1.1-0.5-1.1-1.2v-2.3
					c0-0.7,0.4-1.2,1.1-1.2C217.9,33.4,218.2,33.9,218.2,34.6z M216.6,34.6V37c0,0.4,0.2,0.7,0.6,0.7c0.4,0,0.6-0.3,0.6-0.7v-2.4
					c0-0.4-0.2-0.7-0.6-0.7C216.7,33.9,216.6,34.2,216.6,34.6z"/>
			</g>
		</g>
		<g>
			<g>
				<line class="st4" x1="60.7" y1="71.1" x2="78.2" y2="71.1"/>
				<line class="st4" x1="71.5" y1="73.3" x2="78.2" y2="73.3"/>
				<line class="st4" x1="60.7" y1="73.3" x2="69.3" y2="73.3"/>
				<line class="st4" x1="60.7" y1="75.6" x2="78.2" y2="75.6"/>
				<line class="st4" x1="66.5" y1="77.9" x2="78.2" y2="77.9"/>
				<line class="st4" x1="60.7" y1="77.9" x2="64.6" y2="77.9"/>
			</g>
			<g>
				<line class="st4" x1="96.6" y1="71.1" x2="114.2" y2="71.1"/>
				<line class="st4" x1="107.5" y1="73.3" x2="114.2" y2="73.3"/>
				<line class="st4" x1="96.6" y1="73.3" x2="105.3" y2="73.3"/>
				<line class="st4" x1="96.6" y1="75.6" x2="114.2" y2="75.6"/>
				<line class="st4" x1="102.5" y1="77.9" x2="114.2" y2="77.9"/>
				<line class="st4" x1="96.6" y1="77.9" x2="100.5" y2="77.9"/>
			</g>
			<g>
				<line class="st4" x1="129.8" y1="76.7" x2="147.4" y2="76.7"/>
				<line class="st4" x1="140.6" y1="78.9" x2="147.4" y2="78.9"/>
				<line class="st4" x1="129.8" y1="78.9" x2="138.5" y2="78.9"/>
				<line class="st4" x1="129.8" y1="81.2" x2="147.4" y2="81.2"/>
				<line class="st4" x1="135.7" y1="83.5" x2="147.4" y2="83.5"/>
				<line class="st4" x1="129.8" y1="83.5" x2="133.7" y2="83.5"/>
			</g>
			<g>
				<line class="st4" x1="166" y1="63.8" x2="183.5" y2="63.8"/>
				<line class="st4" x1="176.8" y1="66.1" x2="183.5" y2="66.1"/>
				<line class="st4" x1="166" y1="66.1" x2="174.7" y2="66.1"/>
				<line class="st4" x1="166" y1="68.4" x2="183.5" y2="68.4"/>
				<line class="st4" x1="171.8" y1="70.7" x2="183.5" y2="70.7"/>
				<line class="st4" x1="166" y1="70.7" x2="169.9" y2="70.7"/>
			</g>
			<g>
				<line class="st4" x1="199.8" y1="54.5" x2="217.3" y2="54.5"/>
				<line class="st4" x1="210.6" y1="56.8" x2="217.3" y2="56.8"/>
				<line class="st4" x1="199.8" y1="56.8" x2="208.5" y2="56.8"/>
				<line class="st4" x1="199.8" y1="59.1" x2="217.3" y2="59.1"/>
				<line class="st4" x1="205.6" y1="61.4" x2="217.3" y2="61.4"/>
				<line class="st4" x1="199.8" y1="61.4" x2="203.7" y2="61.4"/>
			</g>
		</g>
	</g>
	<g>
		<path class="st6" d="M53.7,16.7V16H55v0.7c1.1,0.2,1.6,1,1.6,2.3v0.3h-1.5v-0.4c0-0.7-0.3-0.9-0.8-0.9s-0.8,0.3-0.8,0.9
			c0,1.9,3,2,3,4.7c0,1.3-0.6,2.1-1.7,2.3v0.7h-1.3v-0.7c-1.1-0.2-1.7-1-1.7-2.3V23h1.5v0.7c0,0.7,0.3,0.9,0.8,0.9s0.8-0.2,0.8-0.9
			c0-1.9-3-2-3-4.7C52,17.7,52.6,16.9,53.7,16.7z"/>
		<path class="st6" d="M59.9,17.8c-0.5,0-0.8,0.3-0.8,0.9v1h-1.5v-0.9c0-1.5,0.8-2.3,2.3-2.3s2.3,0.9,2.3,2.3c0,2.9-3.1,4-3.1,5.6
			c0,0.1,0,0.1,0,0.2H62V26h-4.4v-1.1c0-2.7,3-3.2,3-5.9C60.7,18.1,60.4,17.8,59.9,17.8z"/>
		<path class="st6" d="M66.1,18.9c0-0.8-0.3-1.1-0.8-1.1s-0.8,0.3-0.8,0.9v0.6H63v-0.5c0-1.5,0.8-2.3,2.3-2.3c1.5,0,2.3,0.9,2.3,2.3
			V19c0,1-0.3,1.6-1.1,1.9c0.8,0.3,1.1,1,1.1,2v0.7c0,1.5-0.8,2.3-2.3,2.3S63,25,63,23.6v-0.8h1.5v0.9c0,0.7,0.3,0.9,0.8,0.9
			s0.8-0.2,0.8-1.1v-0.7c0-0.9-0.3-1.2-1-1.2h-0.5v-1.3h0.6c0.6,0,0.9-0.2,0.9-1C66.1,19.3,66.1,18.9,66.1,18.9z"/>
		<path class="st6" d="M70.2,24.5V26h-1.5v-1.4h1.5V24.5z"/>
		<path class="st6" d="M70.9,22.9l2.8-6.3h1.7v6.3h0.7v1.3h-0.7V26h-1.5v-1.7h-3V22.9z M73.9,22.9v-3.5l-1.6,3.5H73.9z"/>
		<path class="st6" d="M78.2,22.9v0.9c0,0.7,0.3,0.9,0.8,0.9s0.8-0.2,0.8-0.9v-2.1c0-0.7-0.3-0.9-0.8-0.9s-0.8,0.3-0.8,0.9V22h-1.5
			l0.3-5.4h4.1V18h-2.7l-0.1,2.2c0.3-0.4,0.7-0.7,1.3-0.7c1.1,0,1.7,0.8,1.7,2.1v2.1c0,1.5-0.8,2.3-2.3,2.3s-2.3-0.9-2.3-2.3v-0.8
			C76.7,22.9,78.2,22.9,78.2,22.9z"/>
		<path class="st6" d="M82.3,18.9c0-1.6,0.8-2.4,2.3-2.4s2.3,0.9,2.3,2.3V19h-1.5v-0.3c0-0.7-0.3-0.9-0.8-0.9s-0.9,0.3-0.9,1.1v1.7
			c0.3-0.5,0.7-0.8,1.4-0.8c1.1,0,1.7,0.8,1.7,2.1v1.7c0,1.5-0.8,2.3-2.3,2.3s-2.3-0.9-2.3-2.3v-4.7C82.2,18.9,82.3,18.9,82.3,18.9z
			 M83.8,22.1v1.7c0,0.7,0.3,0.9,0.8,0.9s0.8-0.2,0.8-0.9v-1.7c0-0.7-0.3-0.9-0.8-0.9C84.1,21.2,83.8,21.5,83.8,22.1z"/>
		<path class="st6" d="M87.9,26v-1.4h1.5v1.3l-0.7,1.5h-0.6l0.4-1.3h-0.6C87.9,26.1,87.9,26,87.9,26z"/>
		<path class="st6" d="M95,23.6c0,1.6-0.8,2.4-2.3,2.4s-2.3-0.9-2.3-2.3v-0.2h1.5v0.3c0,0.7,0.3,0.9,0.8,0.9s0.9-0.3,0.9-1.1v-1.7
			c-0.3,0.5-0.7,0.8-1.4,0.8c-1.1,0-1.7-0.8-1.7-2.1v-1.7c0-1.5,0.8-2.3,2.3-2.3s2.3,0.9,2.3,2.3v4.7C95.1,23.6,95,23.6,95,23.6z
			 M93.5,20.4v-1.7c0-0.7-0.3-0.9-0.8-0.9s-0.8,0.2-0.8,0.9v1.7c0,0.7,0.3,0.9,0.8,0.9C93.2,21.4,93.5,21.1,93.5,20.4z"/>
		<path class="st6" d="M95.9,18.9c0-1.5,0.8-2.3,2.3-2.3s2.3,0.9,2.3,2.3v4.9c0,1.5-0.8,2.3-2.3,2.3s-2.3-0.9-2.3-2.3V18.9z
			 M97.4,23.8c0,0.7,0.3,0.9,0.8,0.9s0.8-0.3,0.8-0.9v-5c0-0.7-0.3-0.9-0.8-0.9s-0.8,0.3-0.8,0.9V23.8z"/>
	</g>
	<g>
		<line class="st4" x1="51.7" y1="31" x2="101.6" y2="31"/>
		<line class="st4" x1="82.5" y1="33.3" x2="101.6" y2="33.3"/>
		<line class="st4" x1="51.7" y1="33.3" x2="76.4" y2="33.3"/>
		<line class="st4" x1="71.3" y1="35.5" x2="101.6" y2="35.5"/>
		<line class="st4" x1="51.7" y1="35.5" x2="67.1" y2="35.5"/>
	</g>
</g>
<g id="Information_Tags">
	<g>
		<rect x="7.4" y="15.2" class="st24" width="31.6" height="189.8"/>
		<g>
			<g>
				<g>
					<g>
						<rect x="26.2" y="62.7" class="st25" width="4.9" height="12.9"/>
					</g>
				</g>
				<g>
					<g>
						<rect x="20.8" y="66.4" class="st25" width="4.9" height="9.2"/>
					</g>
				</g>
				<g>
					<g>
						<rect x="15.4" y="71.6" class="st25" width="4.9" height="4"/>
					</g>
				</g>
			</g>
			<polygon class="st26" points="24.7,59.5 26,60.3 24.5,62.6 21.6,60.9 18,67.4 15.4,65.6 15.3,65.6 15.3,67.8 15.7,67.4 
				18.5,69.2 22.1,62.7 24.9,64.3 27.1,60.9 28.4,61.7 28.5,57.5 			"/>
		</g>
		<g>
			<ellipse class="st3" cx="23" cy="28.5" rx="10.5" ry="10"/>
			<path class="st27" d="M14.5,34.3c1.9,2.5,5,4.2,8.5,4.2c3.8,0,7.1-2,9-4.9c-1.7-2.9-4.9-4.8-8.6-4.8C19.4,28.8,16,31,14.5,34.3z"
				/>
			<ellipse class="st27" cx="23" cy="24" rx="3.8" ry="3.6"/>
		</g>
		<g>
			<line class="st28" x1="12.8" y1="49.9" x2="34.9" y2="49.9"/>
			<line class="st28" x1="12.8" y1="84.8" x2="34.9" y2="84.8"/>
			<line class="st28" x1="12.8" y1="119.7" x2="34.9" y2="119.7"/>
			<line class="st28" x1="12.8" y1="154.6" x2="34.9" y2="154.6"/>
		</g>
		<g>
			<polygon class="st29" points="25.5,94.9 15.9,94.9 15.9,111.7 30,111.7 30,99 			"/>
			<line class="st4" x1="18.5" y1="101.1" x2="27.3" y2="101.1"/>
			<line class="st4" x1="18.5" y1="104.8" x2="27.3" y2="104.8"/>
			<line class="st4" x1="18.5" y1="108.5" x2="27.3" y2="108.5"/>
			<polyline class="st4" points="25.4,95.4 25.4,99.3 29.3,99.3 			"/>
		</g>
		<g>
			<ellipse class="st29" cx="23.2" cy="138.3" rx="7.6" ry="7.3"/>
			<polyline class="st4" points="23.2,133.9 23.2,138.3 28.3,138.3 			"/>
		</g>
		<g>
			<rect x="15.6" y="165.2" class="st29" width="14.5" height="14.7"/>
			<path class="st6" d="M18.5,172.3h-2.1v-2h2.1V172.3z M22,170.4h-2.1v2H22V170.4z M25.5,170.4h-2.1v2h2.1V170.4z M29,170.4h-2.1v2
				H29V170.4z M18.5,173.6h-2.1v2h2.1V173.6z M22,173.6h-2.1v2H22V173.6z M25.5,173.6h-2.1v2h2.1V173.6z M29,173.6h-2.1v2H29V173.6z
				 M18.5,176.8h-2.1v2h2.1V176.8z M22,176.8h-2.1v2H22V176.8z M25.5,176.8h-2.1v2h2.1V176.8z M29,176.8h-2.1v2H29V176.8z"/>
		</g>
	</g>
</g>
<g id="Character">
	<g>
		<path d="M299.2,261.5c-1.4-0.4-8.7-4.7-8.7-4.7s0.2-1.9,0-2.5s-2-1.9-2-1.9s-1.6-14.2-1.6-20.9c0-6.8-1.4-16.1-1.6-16.9
			c-0.2-0.8-5.7-54.9-5.7-54.9l-1.8-13.8l-18.1,0.8l-18.1-0.8l-1.8,13.8c0,0-5.5,54.1-5.7,54.9c-0.2,0.8-1.6,10.1-1.6,16.9
			c0,6.8-1.6,20.9-1.6,20.9s-1.8,1.4-2,1.9c-0.2,0.6,0,2.5,0,2.5s-7.3,4.3-8.7,4.7c-1.4,0.4-0.8,1.6,0.8,2.3
			c1.6,0.8,5.3,1.2,6.9,1.2s4.1-2.7,4.7-3.1c0.6-0.4,0.4,1.9,0.4,1.9s1.4,0,2.2-0.4s2.2,0.4,2.4-1.9s0.2-4.7,0.2-4.7
			s1.4-1.4,1.8-2.5s1.2-4.5,1.2-4.5l12.8-49.3l6.1-26.9l6.1,26.9l12.8,49.3c0,0,0.8,3.3,1.2,4.5s1.8,2.5,1.8,2.5s0,2.3,0.2,4.7
			c0.2,2.3,1.6,1.6,2.4,1.9c0.8,0.4,2.2,0.4,2.2,0.4s-0.2-2.3,0.4-1.9s3,3.1,4.7,3.1c1.6,0,5.3-0.4,6.9-1.2
			C300,263.1,300.6,261.9,299.2,261.5z"/>
		<g>
			<path class="st30" d="M232.7,102.3c0,0-11.2,37-11.6,37.9c-0.5,0.9,2.4,0.5,5.2,0.9c2.7,0.5,6.6-1.5,7.1-2.3s4.5-12.8,4.5-12.8
				L232.7,102.3z"/>
			<g>
				<line class="st31" x1="233.2" y1="114.3" x2="232.7" y2="113.2"/>
				<line class="st31" x1="236.8" y1="122.8" x2="233.7" y2="115.6"/>
				<path class="st30" d="M232.9,134c0.5,0.4,0.9,0.6,0.9,0.6"/>
				<path class="st30" d="M224.7,132.3c0,0,3-1,3.7-1c0.4,0,2.1,1.1,3.5,2"/>
			</g>
		</g>
		<g>
			<path class="st30" d="M284.4,100.2c0,0,12.8,32.5,13.1,33.8c0.3,1.2,0.6,2,0.5,3.4c-0.2,1.4-2.4,2.3-2.9,2.3s-4-2.2-5.5-2.8
				s-5.8-2.6-5.8-2.6l-2.3-6.9L284.4,100.2z"/>
			<g>
				<line class="st31" x1="285.1" y1="110.7" x2="285.3" y2="109.9"/>
				<line class="st31" x1="282.1" y1="122.2" x2="284.8" y2="112"/>
				<line class="st31" x1="289.9" y1="128" x2="284.7" y2="131.1"/>
			</g>
		</g>
		<path class="st30" d="M250.9,93.1l-18.3,9.3l7.9,40.1c0,0-0.6,3.7-0.2,4.5c0.5,0.8,1.3,1.2,1.3,1.2h35.7c0,0,2.4-2.2,2.4-2.6
			c0-0.5,0-2,0-2l4.5-43.3l-18.1-6.9L250.9,93.1z"/>
		<polygon class="st32" points="255,94.9 257.4,101.4 254.2,140.6 259.3,148.3 263.6,140 259.1,101.4 261.9,95.6 257.9,91.3 		"/>
		<polygon class="st30" points="250.7,89.6 250.2,94 254,99.9 256.9,93.4 		"/>
		<polygon class="st30" points="259.4,93.5 261.7,100.4 266.3,93.3 264.2,89.1 		"/>
		<g>
			<path class="st33" d="M246.2,75.1c0,0-2.3-1.9-2.5,1.2c-0.3,3.1,3.4,4.7,3.4,4.7L246.2,75.1z"/>
			<path class="st33" d="M266.9,73.2c0,0,1.4-2,2.4-0.4s0.1,4-0.6,5.5S267,80,267,80L266.9,73.2z"/>
			<g>
				<path class="st34" d="M245.6,70.4c0,0,1.4,10.2,2,13.5c0.6,3.2,2.7,5.2,3.9,6.3c1.3,1.1,3.7,3.1,5.9,3.1c2.3,0,4.5-1.2,5.1-1.9
					c0.6-0.7,4.2-6.1,4.5-7.5c0.3-1.5,0-6.3,0-7.4s-0.3-6.2-0.3-6.2s0-3.8-1.4-6.2c-1.4-2.4-6.1-2.6-12.7-1.3
					c-6.6,1.2-7.3,2.4-7.3,3.6C245.3,67.6,245.6,70.4,245.6,70.4z"/>
				<path class="st35" d="M258.3,77.5c0,0,2.5,0.4,4.2-0.5"/>
				<path class="st35" d="M248.8,78.3c0,0,2.1,0.5,3.5-0.3"/>
				<path class="st36" d="M257.2,74.7c0,0,2.1-1.5,5.2-0.8"/>
				<path class="st36" d="M252.6,75.5c0,0-2.5-0.9-4.4-0.3"/>
			</g>
			<path class="st6" d="M242.9,70c2.8,1.7,9.3,2,13.7-0.3c4.4-2.3,6.9-6.9,6.9-6.9s0,1.1,0.5,2.5c0.4,1.3,1,1.7,1.4,2.2
				c0.3,0.5,0.5,2.1,0.4,4c0.4,0,0.9,0,1.3,0c0-1.6,0-2.8,0-2.8s1.2-5.1,1.1-6.7c-0.1-1.7-1.7-3-1.7-3s-1-2.1-2.4-2.6
				c-1.4-0.5-5.2-2.4-10.7-1.7c-5.5,0.7-9.2,5.9-9.2,5.9s-1-0.3-1.7,0.9c-0.7,1.2-0.1,3.8-0.1,3.8s-1.9,0.2-2.7,0.3
				C238.8,65.7,240.1,68.3,242.9,70z"/>
			<path class="st37" d="M253.8,77.3c0,0,0.6,5.2,1,6.1c0.4,0.8,1.3,0.8,1.3,0.8l1.8-1.7"/>
			<path class="st38" d="M255,86.7c0,0,1.8,0.7,4.2-0.4"/>
		</g>
		<g>
			<polygon class="st35" points="271,139 270.3,134.3 274.7,135 			"/>
			<g>
				<path class="st37" d="M259,124.5c0,0-2.6-0.3-4-0.8c-1.5-0.5-2.4,0.2-1.3,1.5c1.1,1.4,5.2,2,5.7,2c0,0,0.8,4,3.1,4.8
					c2.3,0.8,3.6,0.8,3.6,0.8s1.1,1.5,2.6,1.7s4.9,2.5,4.9,2.5l1.6-3.5l-3.6-2.8l-3.6-5.9l-3.4-1.1l-2.9-0.9L259,124.5z"/>
				<g>
					<path class="st37" d="M268.1,128.7l-1.5,1.4c0,0,0.2,0.6,0.2,1.2s-1.1,0.6-1.9,0.6s-1.8-0.2-2.4-0.6c-0.6-0.5-3.2-2.6-3.2-2.6
						l2.7-4.6l-2.4,1.5c0,0-1.1,2-2.1,2.9c-1,0.9-1.3-0.2-1.3-0.2s1-2.9,1.6-3.7c0.6-0.8,2.9-2.6,2.9-2.6s0.8-0.2,1.9,0
						s3.4,1.4,4.4,2s1.8,1.9,1.9,2.5c0.2,0.6,0.2,1.1,0.2,1.1"/>
					<path class="st37" d="M263.9,131.8c0,0-0.5-1.1-0.2-1.9c0.3-0.8,2.4-3.7,2.4-3.7"/>
					<path class="st37" d="M262.4,131.3c0,0-0.3-0.3-0.5-0.7c-0.4-0.5-0.1-1.1-0.1-1.6c0-0.9,2.4-4.7,2.4-4.7"/>
				</g>
			</g>
			<path class="st30" d="M294.3,130.6c0,0,4,5.9,3.9,7.4c-0.2,1.5-1.1,4.9-2.6,4.9s-7.9-0.8-12.5-1.5c-4.5-0.8-7.6-1.1-7.6-1.1
				L271,139l3.1-7.1l2.9,0.6c0,0,2.2-0.5,4.3-0.7c2.1-0.2,9.1-1.8,9.1-1.8"/>
			<path class="st39" d="M277,133.2c0,0,0.2,2.7-1.3,4.9"/>
		</g>
		<g>
			<path class="st30" d="M223.1,135.3c0,0-2.7,6.3-2.9,6.8s0.5,3.4,3.1,2.8s16.3-2,18.1-2.3s4.5-0.8,4.5-0.8s1.9,0,3.6,0
				s6.1,0,7.1-0.3s2.9-0.9,3.9-1.2s3.1-1.5,3.2-2c0.2-0.5-0.5-0.9-2.1-0.8c-1.6,0.2-6.6,0.3-6.6,0.3s4.5-1.7,6-2.3s1-1.2,1-1.2
				s-1.6,0-2.7,0.5s-12.3,1.9-12.3,1.9l-1.3-1.1c0,0,0.6-1.5,0.6-2.8s-0.6-2.2-1.5-1.9c-0.8,0.3-1.1,2.2-1.3,2.8s-1,3.1-1,3.1
				l-0.3,1.4c0,0-6.6-1.2-8.6-2c-1.9-0.8-6-1.9-6.6-1.7s-1.9,1.9-2.3,2.6"/>
			<path class="st39" d="M237.6,137.5c0,0-1.1,2.3,0.2,3.7"/>
			<path class="st6" d="M239.9,129.4l4.9,9.5c0.2,0.4,0.6,0.6,1,0.6l17.9,0.2c0.8,0,1.3-0.7,1-1.4l-3.9-9.7c-0.2-0.4-0.6-0.7-1-0.7
				h-19C240.1,127.9,239.5,128.7,239.9,129.4z"/>
			<g>
				<path class="st37" d="M261.6,137.5c-1.6,0.2-6.6,0.3-6.6,0.3s4.5-1.7,6-2.3s1-1.2,1-1.2s-1.6,0-2.7,0.5s-12.3,1.9-12.3,1.9
					l-1.3-1.1c0,0,0.6-1.5,0.6-2.8s-0.6-2.2-1.5-1.9c-0.8,0.3-1.1,2.2-1.3,2.8s-1,3.1-1,3.1l-0.3,1.4c0,0-0.7-0.1-1.7-0.3
					c-0.2,0.8-0.4,2,0.1,3.3c0.2,0.6,0.4,1.1,0.6,1.6c0.1,0,0.1,0,0.2,0c1.8-0.3,4.5-0.8,4.5-0.8s1.9,0,3.6,0s6.1,0,7.1-0.3
					s2.9-0.9,3.9-1.2s3.1-1.5,3.2-2C263.9,137.8,263.2,137.3,261.6,137.5z"/>
				<path class="st37" d="M263.1,138.5c0,0-3.4,1.5-3.8,1.5c-0.5,0-6.2,0.6-6.2,0.6"/>
			</g>
		</g>
	</g>
</g>
<g>
	<g>
		<path d="M76.1,99.7l1.9-4.1h0.8l-1.8,4h2.8v0.7h-3.6v-0.6H76.1z M78.6,98h0.8v3.3h-0.8V98z"/>
		<path d="M82.7,98.5L82.7,98.5c-0.1,0.2-0.2,0.3-0.3,0.4C82.3,99,82.1,99,81.9,99c-0.3,0-0.5-0.1-0.7-0.2s-0.4-0.3-0.5-0.6
			c-0.1-0.2-0.2-0.5-0.2-0.9l0,0c0-0.4,0.1-0.7,0.2-0.9c0.1-0.3,0.3-0.5,0.5-0.6s0.5-0.2,0.8-0.2s0.6,0.1,0.8,0.2
			c0.2,0.1,0.4,0.3,0.5,0.6s0.2,0.6,0.2,0.9l0,0c0,0.2,0,0.4-0.1,0.6s-0.1,0.5-0.2,0.7v0.1c0,0,0,0.1-0.1,0.1l-1.2,2.4H81L82.7,98.5
			z M82.7,98c0.1-0.2,0.2-0.4,0.2-0.7l0,0c0-0.3-0.1-0.5-0.2-0.7s-0.3-0.2-0.6-0.2c-0.2,0-0.4,0.1-0.6,0.2c-0.1,0.2-0.2,0.4-0.2,0.7
			l0,0c0,0.3,0.1,0.5,0.2,0.7s0.3,0.2,0.6,0.2C82.4,98.3,82.6,98.2,82.7,98z"/>
		<path d="M84.7,100.5h0.8v0.8h-0.8V100.5z"/>
		<path d="M87.3,101.2c-0.3-0.1-0.5-0.3-0.6-0.5s-0.2-0.5-0.2-0.8v-0.1c0-0.3,0.1-0.5,0.2-0.8s0.3-0.4,0.6-0.6
			c-0.2-0.1-0.4-0.3-0.5-0.5s-0.2-0.4-0.2-0.6v-0.1c0-0.3,0.1-0.6,0.2-0.8s0.3-0.4,0.6-0.5c0.2-0.1,0.5-0.2,0.8-0.2s0.6,0.1,0.8,0.2
			c0.2,0.1,0.4,0.3,0.6,0.5s0.2,0.5,0.2,0.8v0.1c0,0.2-0.1,0.5-0.2,0.7s-0.3,0.4-0.5,0.5c0.2,0.1,0.4,0.3,0.6,0.6s0.2,0.5,0.2,0.8
			v0.1c0,0.3-0.1,0.6-0.2,0.8s-0.3,0.4-0.6,0.5s-0.6,0.2-0.9,0.2S87.6,101.3,87.3,101.2z M88.7,100.5c0.1-0.1,0.2-0.2,0.3-0.3
			c0.1-0.1,0.1-0.3,0.1-0.5v-0.1c0-0.2,0-0.3-0.1-0.5c-0.1-0.1-0.2-0.2-0.3-0.3c-0.1-0.1-0.3-0.1-0.5-0.1s-0.3,0-0.5,0.1
			s-0.2,0.2-0.3,0.3c-0.1,0.1-0.1,0.3-0.1,0.5v0.1c0,0.2,0,0.3,0.1,0.4s0.2,0.2,0.3,0.3c0.1,0.1,0.3,0.1,0.5,0.1
			S88.6,100.6,88.7,100.5z M88.6,97.9c0.1-0.1,0.2-0.2,0.3-0.3c0.1-0.1,0.1-0.3,0.1-0.4v-0.1c0-0.2,0-0.3-0.1-0.4s-0.2-0.2-0.3-0.3
			c-0.1-0.1-0.3-0.1-0.4-0.1s-0.3,0-0.4,0.1s-0.2,0.2-0.3,0.3c-0.1,0.1-0.1,0.3-0.1,0.4v0.1c0,0.2,0,0.3,0.1,0.4s0.2,0.2,0.3,0.3
			c0.1,0.1,0.3,0.1,0.4,0.1S88.5,98,88.6,97.9z"/>
	</g>
</g>
<g>
	<g>
		<path d="M59.8,98.8V99c-0.1,0.1-0.2,0.2-0.4,0.3s-0.3,0.1-0.6,0.1s-0.6-0.1-0.9-0.2c-0.2-0.2-0.4-0.4-0.6-0.7s-0.2-0.6-0.2-1l0,0
			c0-0.4,0.1-0.8,0.2-1.1c0.1-0.3,0.4-0.5,0.6-0.7c0.3-0.2,0.6-0.2,1-0.2s0.7,0.1,1,0.2s0.5,0.4,0.6,0.7c0.1,0.3,0.2,0.7,0.2,1.1
			l0,0c0,0.2,0,0.5-0.1,0.8s-0.2,0.5-0.3,0.8c0,0,0,0.1-0.1,0.1c0,0,0,0.1-0.1,0.1l-1.4,2.9h-1L59.8,98.8z M59.9,98.2
			c0.2-0.2,0.2-0.5,0.2-0.9l0,0c0-0.4-0.1-0.6-0.2-0.8c-0.2-0.2-0.4-0.3-0.7-0.3s-0.5,0.1-0.7,0.3c-0.2,0.2-0.2,0.5-0.2,0.8l0,0
			c0,0.4,0.1,0.7,0.2,0.9c0.2,0.2,0.4,0.3,0.7,0.3S59.7,98.4,59.9,98.2z"/>
		<path d="M62.2,101.2h1v1h-1V101.2z"/>
		<path d="M65.4,102c-0.3-0.2-0.6-0.4-0.7-0.7c-0.2-0.3-0.3-0.6-0.3-1v-0.1c0-0.3,0.1-0.7,0.3-1c0.2-0.3,0.4-0.5,0.7-0.7
			c-0.2-0.1-0.4-0.3-0.6-0.6s-0.2-0.5-0.2-0.8v-0.2c0-0.4,0.1-0.7,0.2-0.9c0.2-0.3,0.4-0.5,0.7-0.6c0.3-0.1,0.6-0.2,1-0.2
			s0.7,0.1,1,0.2s0.5,0.4,0.7,0.6c0.2,0.3,0.2,0.6,0.2,0.9v0.2c0,0.3-0.1,0.5-0.2,0.8c-0.1,0.2-0.3,0.4-0.6,0.6
			c0.3,0.2,0.5,0.4,0.7,0.7c0.2,0.3,0.3,0.6,0.3,1v0.1c0,0.4-0.1,0.7-0.3,1c-0.2,0.3-0.4,0.5-0.7,0.7c-0.3,0.2-0.7,0.2-1.1,0.2
			S65.7,102.2,65.4,102z M67.1,101.2c0.2-0.1,0.3-0.2,0.4-0.4c0.1-0.2,0.1-0.3,0.1-0.5v-0.1c0-0.2,0-0.4-0.1-0.5
			c-0.1-0.2-0.2-0.3-0.4-0.4c-0.2-0.1-0.4-0.1-0.6-0.1s-0.4,0-0.6,0.1s-0.3,0.2-0.4,0.4s-0.1,0.3-0.1,0.6v0.1c0,0.2,0,0.4,0.1,0.5
			s0.2,0.3,0.4,0.4c0.2,0.1,0.4,0.1,0.6,0.1C66.7,101.3,66.9,101.3,67.1,101.2z M67,98.1c0.1-0.1,0.3-0.2,0.3-0.4
			c0.1-0.2,0.1-0.3,0.1-0.5v-0.1c0-0.2,0-0.4-0.1-0.5s-0.2-0.3-0.3-0.3c-0.1-0.1-0.3-0.1-0.5-0.1s-0.4,0-0.5,0.1s-0.3,0.2-0.3,0.3
			c-0.1,0.1-0.1,0.3-0.1,0.5v0.1c0,0.2,0,0.4,0.1,0.5s0.2,0.3,0.3,0.4c0.1,0.1,0.3,0.1,0.5,0.1S66.9,98.2,67,98.1z"/>
	</g>
</g>
</svg>
