<?xml version="1.0" encoding="utf-8"?>
<!-- Generator: Adobe Illustrator 25.1.0, SVG Export Plug-In . SVG Version: 6.00 Build 0)  -->
<svg version="1.1" id="Objects" xmlns="http://www.w3.org/2000/svg" xmlns:xlink="http://www.w3.org/1999/xlink" x="0px" y="0px"
	 viewBox="0 0 300 265" style="enable-background:new 0 0 300 265;" xml:space="preserve">
<style type="text/css">
	.st0{fill:#2C73B5;}
	.st1{fill:#775020;}
	.st2{fill:#A7C3EA;}
	.st3{fill:#2D1A14;}
	.st4{fill:#75D3CC;}
	.st5{fill:#2C625B;}
	.st6{fill:#68BCB4;}
	.st7{fill:#EFD1BD;}
	.st8{fill:#D2B7A6;}
	.st9{fill:#47403D;}
	.st10{fill:#524B48;}
	.st11{fill:#DABEAC;}
	.st12{fill:#FFF56D;}
	.st13{fill:#C99781;}
	.st14{fill:#4E6C8C;}
	.st15{fill:#633E00;}
	.st16{fill:#3D5874;}
	.st17{fill:#1E120D;}
	.st18{fill:none;stroke:#5B5B5F;stroke-width:4;stroke-miterlimit:10;}
	.st19{fill:#845B36;}
	.st20{fill:#D3A289;}
	.st21{fill:#A71C20;}
	.st22{fill:#EC1946;}
	.st23{opacity:0.2;fill:#650E81;enable-background:new    ;}
	.st24{fill:#EFCEB9;}
	.st25{fill:#F4D4C3;}
	.st26{fill:#F49AC1;}
	.st27{fill:#566B51;}
	.st28{fill:#758B69;}
	.st29{fill:#E5C0AC;}
	.st30{fill:#314E66;}
</style>
<g>
	<g>
		<path class="st0" d="M111,131.3h-9.4H88.1H21c-2.7,0-4.9-2.2-4.9-4.9c0-1.3,0.5-2.6,1.4-3.4c0.8-0.8,2-1.4,3.2-1.4
			c-1.2,1-1.4,1.8-1.1,2.2c0.4,0.6,7.7-1.9,9.9-1s32.8,5.3,34.9-0.4c6.9,0.4,14.6,0.6,22.7,0.6c16.5,0.1,34.8-0.3,51.3-1
			c3.4-0.1,6.7-0.3,9.9-0.4H196c0.9,0.2,1.8,0.4,2.5,0.5c1.6,0.8,2.7,2.4,2.7,4.3c0,1.3-0.5,2.6-1.4,3.4s-2.1,1.4-3.4,1.4h-68.3
			L111,131.3L111,131.3z"/>
		<path class="st1" d="M53.7,96.2c0.3,0.6,2.5,5.3,5,7.4c0,0-3.1,0.3-6.5-0.6c-3-0.8-6.3-2.5-8-6.1c-1.3-2.7-2-6-2.6-9.4
			c-1-6.3-1.3-13-3.3-17.5c-3.1-7-10.7-9.5-13.4-7.2L24.6,63c-0.2-0.4-0.5-0.7-0.9-1c-0.8-0.6-2-1.5-3.1-1.8l0.1-0.2
			c0,0,1.8-11,15.9-8C50.7,55,56,75.8,56.5,85.5c0,0.8,0.1,1.5,0.2,2.2c0.9,8.4,4,13.2,3.2,13.2C59,101,55.3,99.5,53.7,96.2z"/>
		<path class="st1" d="M16.5,80c0,0.2,1.1,4.3-0.6,5.8c-1.8,1.6-5.1-1.1-5.1-1.1s0.5,6-0.4,7.8c-0.1,0.2-0.2,0.3-0.4,0.4
			c-1.4,0.9-4.6,0-8.8-10.2s5-15.6,9.8-17.2c2.6-0.9,4.9-1,6.4-0.9c1,0.1,1.5,0.2,1.5,0.2s2.7-1,6.1-0.1c2.6,0.7,5.7,2.6,8.2,7.2
			c0,0,1,1.6,0.9,3.2v0c-0.8-0.5-1.7-0.7-2.3-0.5c-1.5,0.5-2,1.9-2.2,2.8c-3.8,0-8.5-6.9-8.5-6.9s2.3,5.2,0.6,8.2
			C20.1,81.6,16.8,80.1,16.5,80z"/>
		<path class="st2" d="M25.2,64.6l-0.1,0.2c-3.4-0.9-6.1,0.1-6.1,0.1s-0.6-0.1-1.5-0.2c-0.2-0.5-0.6-2.5,1.6-4.3
			c0.4-0.3,1-0.4,1.5-0.3c1.1,0.3,2.4,1.2,3.1,1.8c0.4,0.3,0.6,0.6,0.9,1C25.1,63.8,25.2,64.6,25.2,64.6z"/>
		<path class="st3" d="M109.3,21.3c-3.7,0-11.8-14.9-11.8-14.9s-4,6.3-8.1,8.9c-4.1,2.6-6.4,1-6.4,1s-0.7,1.6-1.8,2.9
			c-0.8,1-1.9,1.9-3.3,1.9c-3.1,0.1-1.7-5.3-1.7-5.3s-1.8,0.1-2.8-2.7c-1-2.8,6.1-11.6,12.3-12.9C92-1,96.3,2.2,96.3,2.2
			s7.3-3.9,10.7,0.2c3.4,4,5.5,14.3,4.6,18c-0.8,0.2-1.3,0.8-1.7,1.2L109.3,21.3z"/>
		<path class="st4" d="M122.3,90.5l-0.5,0.1c-5.9,1.5-19.6,1-19.6,1l0,0c4.3-5.6,11.1-15.2,14.3-26.4l0-0.2c1.1,0.1,2.1,0.2,2.8,0.1
			c0.9-0.1,1.9-2,2.7-4.7C121.8,65.8,121.2,80.8,122.3,90.5z"/>
		<path class="st4" d="M122,60.3c-0.8,2.7-1.8,4.6-2.7,4.7c-0.7,0.1-1.7,0.1-2.8-0.1c-3-0.3-6.9-1.5-8.9-3.3
			c-2.2,8.9-13,29.4-14.6,29.7c-0.1,0-0.1,0-0.2,0.1v0c-4.4-8.1-5.6-25.1-5.6-26.3h0c0-0.1,0-0.1,0-0.2l-0.4,0
			c-1.9,0.5-5.9-0.4-8.6-1.4c-1.4-0.5-2.5-1.1-2.7-1.6c-0.7-1.3,5.3-17.5,7.8-20.9c2.4-3.2,6.9-2.6,7.3-2.5c0,0,0,0,0,0
			c1.9,1.8,4,2.9,6.5,3c0.3,0,0.6,0,0.9,0c0.7,0.7,3.5,3.7,6.7,1.8c3.6-2.1,4.5-3.9,4.5-3.9s3.6-6,9.9-2.6
			C124.7,39.9,124.1,53.1,122,60.3z"/>
		<path class="st5" d="M132.2,169.6c0.1,0.9,0.1,1.5,0.1,1.7c-0.2,2-13.2,8.4-13.5,7.3s3.5-7.5,3.5-7.5h0
			C122.4,171.1,129.9,171.8,132.2,169.6z"/>
		<path class="st5" d="M99.7,174.5L99.7,174.5c0,1.3,0,2.1-0.1,2.3c-0.2,1.1-15.7,2.6-15.5,1.3s5.3-4.6,5.3-4.6S97,176.3,99.7,174.5
			z"/>
		<path class="st6" d="M122.3,90.5c0.4,3.2,1,5.9,1.8,7.3c-1.8-0.8-4-2-7.4-3.5c-7.2-3.1-16.7,0.4-16.7,0.4l-0.2-0.2
			c0.7-0.8,1.5-1.8,2.4-3l0,0c0,0,13.7,0.4,19.6-1L122.3,90.5z"/>
		<path class="st7" d="M148.3,121.6c-3.2,0.1-6.5,0.3-9.9,0.4l0-0.3c-2.4-6.3,1.9-17.9,1.9-17.9c0,0,0,0,0,0
			c17.3,2.6,47.4,7.3,50.4,8.5c0.7,0.3,1.5,0.7,2.2,1.2c3.8,2.5,8.1,7,7.5,8.3c-0.2,0.3-0.9,0.4-1.8,0.3c-0.6-0.3-1.4-0.5-2.2-0.5
			H196c-3.1-0.8-6.7-2.2-6.7-2.2S171.6,120.6,148.3,121.6z"/>
		<path class="st8" d="M192.9,113.4l-0.1,0.1c-0.8-0.5-1.6-0.9-2.2-1.2c-3-1.2-33.1-6-50.4-8.5c-0.3-1.2,1.1-3.2,1.1-3.2l0-0.2
			c16.3,2.2,43.4,6.5,46.8,8.5C190.4,110.3,192.9,113.4,192.9,113.4z"/>
		<path class="st9" d="M124.2,97.8c1.9,0.9,3.3,1.3,5,1.3c0.9,0,5.7,0.5,12.2,1.4l0,0.2c0,0-1.4,1.9-1.1,3.2
			c-6.4-0.9-11.1-1.6-11.9-1.6c-3-0.1-8.1-4.3-15.5-5.1c-6.6-0.7-10.4,1.9-12,3.3l-1.2,0c0,0,0.1-0.1,0.1-0.1c0.2-0.6-2.1-2-2.1-2
			s3.5,0.7,3.3-0.1c-0.2-0.7-2.7-1.2-2.7-1.2L98,96.8c0.1-0.1,0.2-0.3,0.3-0.4c0.2-0.2,0.7-0.9,1.5-1.8l0.2,0.2
			c0,0,9.5-3.5,16.7-0.4C120.1,95.8,122.4,97,124.2,97.8z"/>
		<path class="st10" d="M100.8,100.3c1.6-1.4,5.4-3.9,12-3.3c7.4,0.7,12.5,5,15.5,5.1c0.8,0,5.5,0.7,11.9,1.6c0,0,0,0,0,0
			c0,0-4.3,11.6-1.9,17.9l0,0.3c-16.5,0.6-34.7,1.1-51.3,1v-0.6c0,0,1.4-16.1,6.2-20.8l0-0.2c2.3,0.4,4.9,0.8,5.1,0.5
			c0.3-0.5-2.7-2.1-2.7-2.1s3.3,0.8,3.8,0.5L100.8,100.3z"/>
		<path class="st6" d="M128.1,131.5c0,0,3.6,30.4,4.1,38.1c-2.3,2.1-9.8,1.4-9.8,1.4h0L111,131.3h17.1L128.1,131.5L128.1,131.5z"/>
		<path class="st7" d="M85.8,95.1c2.5-1.7,5.8-3.2,7-3.6c0.1,0,0.2,0,0.2-0.1c1.6-0.3,12.5-20.9,14.6-29.7c2.1,1.8,5.9,3,8.9,3.3
			l0,0.2c-3.2,11.2-9.9,20.8-14.3,26.4c-0.9,1.2-1.8,2.2-2.4,3c-0.8,1-1.3,1.6-1.5,1.8c-0.1,0.1-0.2,0.3-0.3,0.4
			c-1.1,1.1-3.8,1.8-5.2,2.1c-0.7,0.2-1.8,0.9-3,1.7c-1.5,1-3,1.9-3.7,1.7c-1.2-0.4,2.4-4.4,2.4-4.5c-0.1-0.2-4,4-4.7,3
			c-0.7-1.1,2.5-3.8,2.4-3.8c-0.1,0-4.1,3.7-3.7,1.3c0.1-0.6,0.7-1.3,1.5-2C84.6,95.9,85.1,95.5,85.8,95.1z"/>
		<path class="st7" d="M111.7,29.5l0,0.2c0,0-0.8,2.3-2.5,4.9c-2.1,3.1-5.8,6.6-11.4,6.8c-0.3,0-0.6,0-0.9,0c-2.5,0-4.7-1.2-6.5-3
			c0,0,0,0,0,0c-6.3-6-9.2-19.2-9.2-19.2l-0.1,0c1.2-1.4,1.8-2.9,1.8-2.9s2.3,1.6,6.4-1c4.1-2.6,8.1-8.9,8.1-8.9s8.1,14.9,11.8,14.9
			l0.6,0.3c0.4-0.5,0.9-1,1.7-1.2c0.5-0.2,1.1-0.2,1.8,0C116,21.2,116.1,29.2,111.7,29.5z"/>
		<path class="st7" d="M109.2,34.6L109.2,34.6c0,0.2-0.1,4.7-0.1,4.7s-0.9,1.8-4.5,3.9c-3.2,1.8-6.1-1.1-6.7-1.8
			C103.5,41.2,107.1,37.7,109.2,34.6z"/>
		<path class="st6" d="M88.1,131.3h13.5c0,0-1.3,34-1.8,43.2h-0.1c-2.7,1.8-10.2-1-10.2-1L88.1,131.3z"/>
		<path class="st11" d="M100.8,98.2c0.1,0.7-3.3,0.1-3.3,0.1s2.3,1.4,2.1,2c0,0,0,0.1-0.1,0.1c-0.6,0.4-3.8-0.5-3.8-0.5
			s2.9,1.6,2.7,2.1c-0.2,0.3-2.8-0.1-5.1-0.5c-1.8-0.3-3.5-0.7-3.5-0.7l-0.1-0.1c1.2-0.8,2.3-1.5,3-1.7c1.3-0.3,4.1-1,5.2-2.1
			l0.1,0.1C98.1,96.9,100.7,97.4,100.8,98.2z"/>
		<path class="st12" d="M93.3,101.4l0,0.2c-4.8,4.7-6.2,20.8-6.2,20.8v0.6c-8.1-0.1-15.8-0.2-22.7-0.6c2.1-5.7-12.2-19.3-12.2-19.3
			l0,0c3.4,0.9,6.5,0.6,6.5,0.6c-2.5-2.1-4.7-6.9-5-7.4c1.7,3.3,5.3,4.8,6.2,4.8c0.8,0-2.4-4.9-3.2-13.2l0.3,0c0,0,4.3-1.1,9.3,0.9
			c5,2,13.5,7.4,17.8,7.7l0,0c-0.8,0.7-1.4,1.4-1.5,2c-0.4,2.4,3.6-1.3,3.7-1.3c0.1,0-3.2,2.7-2.4,3.8c0.7,1.1,4.6-3.2,4.7-3
			c0.1,0.2-3.5,4.1-2.4,4.5c0.7,0.2,2.2-0.7,3.7-1.7l0.1,0.1C89.9,100.8,91.5,101.1,93.3,101.4z"/>
		<path class="st11" d="M87.1,65.1L87.1,65.1c0.1,1.2,1.3,18.2,5.7,26.3v0c-1.2,0.3-4.5,1.9-7,3.6c-6.1-8.8-8-30.7-7.8-31.3l0.1-0.2
			c2.7,1,6.7,1.9,8.6,1.4l0.4,0C87.1,65,87.1,65.1,87.1,65.1z"/>
		<path class="st7" d="M20.8,121.6c0.8-0.7,1.9-1.4,3.6-2.1c2.5-1,20-1.6,20-1.6l0,0C41,114.8,33.1,107,34.1,101
			c0.3-1.8,1-3,1.9-3.7c3-2.4,8.2-0.3,8.2-0.3c1.7,3.6,5,5.3,8,6.1l0,0c0,0,14.3,13.6,12.2,19.3c-2.1,5.7-32.7,1.3-34.9,0.4
			s-9.4,1.6-9.9,1C19.4,123.4,19.6,122.6,20.8,121.6z"/>
		<path class="st7" d="M29.7,77.4c0.2-0.9,0.7-2.3,2.2-2.8c0.7-0.2,1.5,0,2.3,0.5c1.5,0.9,2.8,2.8,1.9,4.7l0.2,0.1
			c0,0,2.5,5.6,5.2,7.6c0.5,3.4,1.2,6.7,2.6,9.4c0,0-5.2-2.1-8.2,0.3l-0.1-0.2l-1.1-0.4l-0.2-0.2c-1.1,1.6-2.3,3-3.7,4.1
			c-4.4,3.7-19.9-8-19.9-8l-0.4,0c0.9-1.8,0.4-7.8,0.4-7.8s3.3,2.7,5.1,1.1c1.7-1.5,0.6-5.6,0.6-5.8c0.2,0.1,3.6,1.7,5.3-1.2
			c1.8-3-0.6-8.2-0.6-8.2S25.9,77.4,29.7,77.4z"/>
	</g>
	<g>
		<g>
			<path class="st13" d="M29.5,78.2c-0.1-1.2,0.3-2.6,1.4-3.5c0.3-0.2,0.6-0.4,0.9-0.5c0.4-0.1,0.8-0.1,1.1-0.1
				c0.7,0.1,1.3,0.4,1.8,0.8c1,0.8,1.9,1.9,2.1,3.2c0.1,0.7-0.1,1.4-0.4,1.9c-0.3,0.6-0.8,1-1.3,1.3c-0.1,0-0.1,0-0.2,0
				c0-0.1,0-0.1,0-0.2c0.8-0.8,1.4-1.9,1.1-2.9c-0.2-1-1-1.9-1.8-2.5c-0.4-0.3-0.9-0.5-1.4-0.6c-0.2,0-0.5-0.1-0.7,0
				c-0.2,0.1-0.5,0.2-0.7,0.3c-0.9,0.5-1.4,1.6-1.6,2.8v0c0,0.1-0.1,0.2-0.2,0.1C29.5,78.3,29.5,78.2,29.5,78.2z"/>
		</g>
		<g>
			<path class="st13" d="M90.6,38.4c1.7,1.5,3.8,2.5,6,2.6c1.1,0,2.2-0.1,3.3-0.3c1.1-0.2,2.1-0.6,3.1-1.1c2-1,3.7-2.5,5.2-4.2
				c1.4-1.7,2.6-3.7,3.5-5.8v0c0-0.1,0.1-0.1,0.2-0.1c0.1,0,0.1,0.1,0.1,0.1c-0.7,2.2-1.7,4.3-3.1,6.2c-1.4,1.9-3.2,3.5-5.3,4.6
				c-2.1,1.1-4.5,1.5-6.9,1.4c-1.2-0.1-2.4-0.5-3.4-1.1c-1-0.6-2-1.3-2.7-2.2c-0.1-0.1-0.1-0.2,0-0.2C90.4,38.3,90.5,38.3,90.6,38.4
				z"/>
		</g>
		<g>
			<path class="st13" d="M109.1,22.5c0.3-0.7,0.7-1.3,1.3-1.9c0.6-0.5,1.4-0.8,2.2-0.8c0.4,0,0.8,0,1.2,0.3c0.2,0.1,0.4,0.2,0.6,0.4
				c0.2,0.1,0.3,0.3,0.4,0.5c0.5,0.7,0.7,1.5,0.8,2.2c0.1,0.8,0.1,1.5,0,2.3c-0.1,0.8-0.3,1.5-0.7,2.2c-0.4,0.7-0.9,1.3-1.6,1.7
				c-0.7,0.3-1.5,0.4-2.2,0.3c-0.1,0-0.1-0.1-0.1-0.1c0-0.1,0.1-0.1,0.1-0.1h0c0.7,0,1.4-0.2,1.9-0.5c0.5-0.4,0.9-0.9,1.2-1.5
				c0.5-1.2,0.7-2.6,0.4-3.9c-0.1-0.7-0.3-1.3-0.6-1.8c-0.3-0.5-0.8-0.8-1.4-0.8c-1.2-0.2-2.4,0.8-3.2,1.9l0,0
				c-0.1,0.1-0.2,0.1-0.2,0C109.1,22.6,109.1,22.6,109.1,22.5z"/>
		</g>
		<g>
			<path class="st14" d="M108.9,39.3c0.8-1.3,2-2.4,3.4-3.1c1.4-0.7,3.1-0.9,4.6-0.5c0.4,0.1,0.8,0.2,1.1,0.3l1.1,0.5
				c0.3,0.2,0.7,0.5,1,0.7c0.3,0.2,0.6,0.6,0.8,0.8c1,1.2,1.7,2.7,2.1,4.2c0.8,3,1,6.1,0.8,9.1s-0.6,6.1-1.4,9.1
				c-0.4,1.5-0.9,3-1.8,4.3c-0.3,0.3-0.6,0.7-1.1,0.9c-0.5,0.1-0.8,0.1-1.3,0.1c-0.8,0-1.6-0.1-2.3-0.2c-1.5-0.2-3-0.6-4.5-1.1
				c-1.4-0.5-2.9-1.2-4.1-2.2c-0.6-0.5-1.1-1.2-1.4-2c-0.1-0.2-0.1-0.4-0.2-0.6c0-0.2,0-0.5,0.1-0.7c0.1-0.4,0.2-0.8,0.3-1.1
				c0.5-1.5,1-2.9,1.6-4.3c1.1-2.8,2.5-5.5,3.4-8.4v0c0-0.1,0.1-0.1,0.2-0.1c0.1,0,0.1,0.1,0.1,0.2c-0.4,1.5-1,2.9-1.5,4.3l-1.6,4.2
				c-0.5,1.4-1.1,2.8-1.5,4.2c-0.1,0.3-0.2,0.7-0.2,1.1c-0.1,0.2,0,0.3,0,0.5c0,0.2,0.1,0.3,0.1,0.5c0.2,0.6,0.7,1.2,1.2,1.6
				c1.1,0.9,2.5,1.5,3.9,2c1.4,0.5,2.8,0.8,4.3,1c0.7,0.1,1.5,0.2,2.2,0.2c0.3,0,0.8,0,1-0.1c0.2,0,0.4-0.3,0.6-0.5
				c0.8-1.1,1.3-2.6,1.7-4c0.8-2.9,1.2-5.8,1.4-8.8c0.2-3,0-6-0.7-8.9c-0.4-1.4-1-2.8-1.9-3.9c-0.2-0.2-0.5-0.5-0.7-0.8
				c-0.3-0.2-0.6-0.4-0.9-0.6l-1-0.5l-1-0.3c-1.4-0.4-2.9-0.2-4.2,0.3c-1.3,0.6-2.5,1.6-3.3,2.8l0,0c-0.1,0.1-0.2,0.1-0.2,0
				C108.9,39.4,108.9,39.3,108.9,39.3z"/>
		</g>
		<g>
			<path class="st14" d="M88.6,47.5c-0.1,2-0.2,4-0.4,6l-0.4,6c-0.2,2-0.2,4-0.3,6c0,1,0,2,0,3c0,1,0.1,2,0.3,2.9v0
				c0,0.1,0,0.1-0.1,0.2c-0.1,0-0.1,0-0.1-0.1c-0.7-1.9-0.8-4-0.9-6c-0.1-2,0-4,0.1-6c0.1-2,0.3-4,0.5-6c0.2-2,0.5-4,0.9-6
				c0-0.1,0.1-0.2,0.2-0.1C88.5,47.4,88.6,47.5,88.6,47.5z"/>
		</g>
		<g>
			<path class="st13" d="M45.9,119.4c-2.4-1.8-4.5-3.8-6.5-6c-2-2.2-3.8-4.6-5-7.4c-0.5-1.4-0.9-3-0.8-4.5c0.1-1.5,0.7-3.1,1.9-4.2
				c1.2-1.1,2.9-1.4,4.4-1.4c1.5,0.1,3,0.4,4.4,1c0.1,0,0.1,0.1,0.1,0.2c0,0.1-0.1,0.1-0.2,0.1h0c-1.4-0.4-2.8-0.7-4.3-0.7
				c-1.4,0-2.8,0.4-3.8,1.4c-1,0.9-1.4,2.3-1.5,3.7c-0.1,1.4,0.2,2.8,0.8,4.1c1.1,2.6,2.8,5,4.7,7.2c0.9,1.1,1.9,2.2,3,3.2
				c1,1.1,2.1,2.1,3.2,3.1l0,0c0.1,0.1,0.1,0.2,0,0.2C46,119.4,46,119.4,45.9,119.4z"/>
		</g>
		<g>
			<path class="st13" d="M34,75.1c-0.3,0-0.3,0-0.3,0H34c0.1,0,0.2,0,0.3,0h0.4c0,0,0,0-0.3,0H34z"/>
		</g>
		<g>
			<path class="st15" d="M25.6,58.7c0.8-0.8,1.8-1.2,2.9-1.6c1-0.3,2.2-0.5,3.3-0.4c2.2,0.1,4.3,1.1,6.1,2.3
				c0.9,0.7,1.7,1.3,2.5,2.1c0.4,0.4,0.8,0.7,1.1,1.2c0.4,0.4,0.7,0.9,1,1.4c1.1,1.9,1.8,4,2.5,6c1.3,4.1,2.2,8.3,3.2,12.4
				c0.5,2.1,1,4.1,1.7,6.2c0.3,1,0.7,2,1.1,3c0.4,0.9,1,1.9,1.8,2.4l0,0c0.1,0,0.1,0.1,0,0.2c0,0.1-0.1,0.1-0.2,0.1
				c-1-0.5-1.6-1.5-2.1-2.5c-0.5-1-0.9-2-1.2-3c-0.7-2-1.3-4.1-1.9-6.2c-1.1-4.1-2.1-8.3-3.4-12.3c-0.7-2-1.4-4-2.4-5.8
				c-0.5-0.9-1.2-1.7-1.9-2.4c-0.7-0.8-1.5-1.4-2.3-2.1c-1.7-1.3-3.6-2.2-5.6-2.4c-2-0.3-4.2,0.4-5.9,1.6l0,0c-0.1,0-0.2,0-0.2,0
				C25.5,58.9,25.5,58.8,25.6,58.7z"/>
		</g>
		<g>
			<path class="st13" d="M31.2,78.7c-0.2-0.6-0.1-1.3,0.2-1.8c0.2-0.3,0.4-0.6,0.8-0.7c0.3-0.2,0.7-0.1,1,0c0.1,0,0.1,0.1,0.1,0.2
				c0,0,0,0.1-0.1,0.1l0,0c-0.5,0.3-0.7,0.6-0.9,1c-0.2,0.4-0.4,0.9-0.8,1.4l0,0C31.5,78.9,31.4,78.9,31.2,78.7
				C31.3,78.8,31.3,78.8,31.2,78.7z"/>
		</g>
		<g>
			<path class="st13" d="M21.1,98.8c1,0.4,2,0.9,3.1,1.2c1,0.4,2.1,0.7,3.2,0.8c1,0.1,2.1,0.1,2.9-0.4c0.8-0.6,1.6-1.4,2.3-2.2
				c1.5-1.6,2.6-3.5,3.6-5.5c0.5-1,0.9-2,1.1-3.1c0.3-1.1,0.4-2.2,0.3-3.2v0c0-0.1,0-0.1,0.1-0.1c0.1,0,0.1,0,0.1,0.1
				c0.5,2.3-0.2,4.6-1,6.7c-0.9,2.1-2.1,4.1-3.6,5.8c-0.4,0.4-0.8,0.8-1.2,1.2c-0.2,0.2-0.4,0.4-0.6,0.6c-0.2,0.2-0.4,0.4-0.7,0.6
				c-1.1,0.7-2.5,0.6-3.6,0.4c-2.3-0.5-4.3-1.5-6.3-2.6c-0.1-0.1-0.1-0.2-0.1-0.2C20.9,98.8,21,98.7,21.1,98.8z"/>
		</g>
		<g>
			<path class="st16" d="M99.8,101c2.5-2.8,6.1-4.2,9.7-4.4c3.7-0.2,7.3,0.6,10.6,1.9c1.7,0.7,3.3,1.5,4.9,2.2
				c0.8,0.4,1.6,0.7,2.4,0.9c0.8,0.2,1.7,0.2,2.6,0.4c3.5,0.5,7.1,1.1,10.6,1.6l-0.1,0.5c-3.5-0.4-7.1-0.8-10.6-1.3
				c-0.9-0.1-1.7-0.2-2.7-0.4c-0.9-0.2-1.8-0.6-2.6-0.9c-1.6-0.7-3.2-1.5-4.9-2.2c-3.2-1.3-6.7-2.1-10.2-1.9
				c-1.7,0.1-3.5,0.4-5.1,1.1c-1.6,0.6-3.2,1.6-4.3,2.8L99.8,101z"/>
		</g>
	</g>
	<g>
		<path class="st13" d="M109.7,25.2c-0.1-0.8,0.2-1.5,0.7-2.1c0.3-0.3,0.7-0.5,1.1-0.6c0.4-0.1,0.9,0,1.2,0.2c0.1,0,0.1,0.1,0,0.2
			c0,0-0.1,0-0.1,0.1h0c-0.7,0.1-1.1,0.4-1.5,0.8c-0.4,0.4-0.7,1-1.2,1.5l0,0c-0.1,0.1-0.2,0.1-0.2,0
			C109.8,25.3,109.8,25.2,109.7,25.2z"/>
	</g>
	<g>
		<path class="st13" d="M90.6,20.1c0.3,1,0.6,2.2,0.8,3.3c0.3,1.1,0.5,2.2,0.8,3.2c0.1,0.5,0.3,1.1,0.5,1.6c0.2,0.5,0.4,1,0.7,1.2
			c0,0,0.1,0,0.2,0.1c0.1,0,0.2,0,0.4,0c0.2,0,0.5,0,0.8-0.1c0.5-0.1,1-0.4,1.5-0.7l0,0c0.1,0,0.1,0,0.2,0c0,0,0,0.1,0,0.1
			c-0.4,0.5-0.9,0.8-1.4,1.1c-0.3,0.1-0.6,0.2-0.9,0.3c-0.2,0-0.3,0-0.5,0c-0.2,0-0.3,0-0.6-0.1c-0.4-0.2-0.6-0.5-0.7-0.8
			c-0.2-0.3-0.3-0.5-0.4-0.8c-0.2-0.5-0.4-1.1-0.6-1.6c-0.3-1.1-0.6-2.2-0.7-3.4c-0.2-1.1-0.3-2.2-0.3-3.4c0-0.1,0.1-0.2,0.2-0.2
			C90.5,20,90.5,20,90.6,20.1L90.6,20.1z"/>
	</g>
	<g>
		<path class="st17" d="M93.6,31.7c0.8,0.1,1.6,0.1,2.4,0c0.8-0.1,1.6-0.2,2.3-0.5c0.7-0.3,1.3-0.7,1.8-1.3c0.6-0.5,0.9-1.3,1.3-2
			l0,0c0.1-0.1,0.2-0.2,0.3-0.1c0.1,0.1,0.2,0.2,0.1,0.3c-0.2,0.8-0.5,1.7-1.1,2.4c-0.6,0.7-1.3,1.3-2.1,1.6
			c-0.8,0.3-1.7,0.5-2.6,0.5c-0.9,0-1.7-0.1-2.6-0.4c-0.1,0-0.2-0.2-0.2-0.3C93.4,31.8,93.5,31.7,93.6,31.7L93.6,31.7z"/>
	</g>
	<path class="st17" d="M100.1,22.7c0.3,0.8,0.2,1.6-0.3,1.8c-0.4,0.2-1.1-0.3-1.4-1.1s-0.2-1.6,0.3-1.8
		C99.2,21.4,99.8,21.9,100.1,22.7z"/>
	<path class="st17" d="M89.2,26.9c0.3,0.8,0.2,1.6-0.3,1.8c-0.4,0.2-1.1-0.3-1.4-1.1c-0.3-0.8-0.2-1.6,0.3-1.8
		C88.3,25.6,88.9,26.1,89.2,26.9z"/>
	<path class="st3" d="M86.8,22.4c-0.6,0.3-1.6,1.3-1,2c0.2,0.3,0.5,0.4,0.9,0.2c0.5-0.3,0.5-0.8,0.8-1.2c0.3-0.3,0.8-0.4,1.1-0.8
		c0,0,0-0.1,0-0.1C88.4,21.9,87.3,22.1,86.8,22.4z"/>
	<path class="st3" d="M99.2,16.6c-0.9-0.2-1.9-0.1-2.7,0.5c-0.7,0.6,0.2,1.4,0.9,1.1c0.7-0.3,1.4-0.3,2.2-0.3c0.2,0,1.3,0.1,1.2-0.4
		C100.8,17,99.7,16.8,99.2,16.6z"/>
	<line class="st18" x1="35.8" y1="131.3" x2="35.8" y2="197"/>
	<line class="st18" x1="181.6" y1="131.3" x2="181.6" y2="197"/>
	<g>
		<path class="st19" d="M18.1,83.4c-0.1-0.8,3-2.2,5-0.9c0.3,0.2-1.3,0.2-2.5,0.6C19.6,83.4,18.3,84.9,18.1,83.4z"/>
		<path class="st19" d="M12.5,88c-0.6-0.1-1.9,2.3-0.9,4c0.1,0.3,0.2-1.1,0.5-2C12.5,89.2,13.7,88.2,12.5,88z"/>
		<g>
			<path class="st20" d="M14.8,86.7c1.6,1.5,3,3.2,4.3,4.9c0.2,0.2,0.3,0.4,0.5,0.7c0.1,0.1,0.1,0.2,0.2,0.4l0.1,0.1l0,0.1l0,0.1
				c0,0.1,0,0.1,0,0.2c0,0.2-0.1,0.2-0.1,0.2l0,0l0,0.1c-0.2,0.4-0.3,1-0.2,1.3c0,0.1,0,0.1,0.1,0.1c0.1,0.1,0.1,0.1,0.2,0.2
				c0.2,0.1,0.4,0.1,0.6,0.1c0.5,0,1-0.2,1.2-0.6l0,0c0-0.1,0.1-0.1,0.2-0.1c0,0,0.1,0.1,0.1,0.1c-0.1,0.7-0.8,1-1.4,1.1
				c-0.3,0.1-0.6,0.1-1-0.1c-0.2-0.1-0.3-0.1-0.5-0.2c-0.1-0.1-0.1-0.1-0.2-0.2c-0.1-0.1-0.1-0.2-0.1-0.3c-0.2-0.8,0-1.3,0.1-1.9
				l0-0.1l0-0.1c0,0,0-0.1,0,0.1c0,0.1,0,0.1,0,0.2c0,0,0,0,0,0v0l0-0.1c0-0.1-0.1-0.2-0.2-0.3c-0.1-0.2-0.3-0.4-0.5-0.6
				c-1.3-1.7-2.6-3.5-3.8-5.3c-0.1-0.1,0-0.2,0.1-0.2C14.7,86.7,14.8,86.7,14.8,86.7z"/>
		</g>
		<g>
			<path class="st17" d="M26.9,90.2c0.5,0.8,0.8,1.7,0.8,2.7s-0.4,1.9-0.9,2.7c-0.3,0.4-0.5,0.8-1,1.1c-0.4,0.3-0.9,0.6-1.3,0.7
				c-1,0.2-1.9,0.1-2.8-0.2c-0.1,0-0.1-0.1-0.1-0.2c0-0.1,0.1-0.1,0.1-0.1h0c0.9,0.1,1.7,0,2.5-0.3c0.8-0.3,1.2-0.8,1.7-1.5
				c0.4-0.7,0.7-1.4,0.8-2.2c0.1-0.8,0-1.7-0.2-2.5l0,0c0-0.1,0-0.2,0.1-0.2C26.8,90.2,26.9,90.2,26.9,90.2z"/>
		</g>
	</g>
	<g>
		<g>
			<path class="st17" d="M23.3,83.7c0.5,0.4,0.8,1,0.9,1.6c0.2,0.6,0.1,1.4-0.3,2c-0.3,0.6-0.9,1.1-1.6,1.3
				c-0.7,0.2-1.4,0.1-1.9-0.3c-0.1,0-0.1-0.1,0-0.2c0,0,0.1-0.1,0.1-0.1h0c0.5,0.1,1.1,0,1.5-0.2c0.4-0.2,0.8-0.6,1-1
				c0.5-0.8,0.3-1.9-0.1-3l0,0c0-0.1,0-0.2,0.1-0.2C23.2,83.7,23.3,83.7,23.3,83.7z"/>
		</g>
		<g>
			<path class="st17" d="M25.5,84.5c0,0.4-0.3,0.7-0.6,0.9c-0.2,0.1-0.4,0.2-0.6,0.2c-0.2,0-0.5,0-0.7-0.2c-0.1-0.1-0.1-0.1,0-0.2
				l0,0l0,0c0.1-0.1,0.2-0.2,0.3-0.3s0.2-0.2,0.3-0.3c0.2-0.2,0.5-0.3,0.9-0.3h0C25.4,84.3,25.5,84.4,25.5,84.5
				C25.5,84.5,25.5,84.5,25.5,84.5z"/>
		</g>
		<g>
			<path class="st17" d="M26.4,86.2c-0.2,0.5-0.6,0.9-1.1,1c-0.3,0.1-0.6,0.1-0.9,0c-0.3-0.1-0.5-0.3-0.6-0.5c0-0.1,0-0.2,0-0.2
				c0,0,0,0,0.1,0h0c0.5,0,0.8-0.1,1.1-0.2c0.3-0.1,0.7-0.2,1.1-0.3l0,0C26.3,86,26.4,86.1,26.4,86.2C26.4,86.2,26.4,86.2,26.4,86.2
				z"/>
		</g>
	</g>
	<g>
		<g>
			<path class="st17" d="M13.7,94.5c0.9,0.2,1.7,0.2,2.3-0.2c0.3-0.2,0.5-0.5,0.7-0.8c0.1-0.3,0.2-0.7,0.1-1.2v0
				c0-0.1,0-0.1,0.1-0.2c0,0,0.1,0,0.1,0c0.4,0.4,0.5,0.9,0.4,1.5c-0.1,0.6-0.5,1.1-0.9,1.4c-0.5,0.3-1.1,0.4-1.6,0.3
				c-0.5-0.1-1-0.3-1.4-0.7c-0.1-0.1-0.1-0.2,0-0.2C13.6,94.5,13.6,94.5,13.7,94.5L13.7,94.5z"/>
		</g>
		<g>
			<path class="st17" d="M14.1,96.3c-0.1-0.4,0-0.6,0.1-0.8c0.1-0.1,0.1-0.2,0.2-0.2c0.1-0.1,0.2-0.1,0.3-0.2l0.1-0.1
				c0.1-0.1,0.1-0.1,0.2,0c0.2,0.1,0.2,0.4,0.2,0.6c0,0.2-0.1,0.3-0.1,0.5c-0.1,0.3-0.4,0.5-0.8,0.5C14.2,96.5,14.1,96.4,14.1,96.3
				L14.1,96.3z"/>
		</g>
		<g>
			<path class="st17" d="M15.5,96.8c0-0.4,0-0.7,0.1-0.9c0.1-0.2,0.1-0.4,0.2-0.8v0c0-0.1,0.1-0.1,0.2-0.1c0,0,0,0,0,0
				c0.2,0.1,0.4,0.2,0.5,0.5c0.1,0.2,0.1,0.5,0.1,0.7c-0.1,0.5-0.4,0.8-0.8,1c-0.1,0-0.2,0-0.2-0.1C15.5,96.9,15.5,96.9,15.5,96.8
				L15.5,96.8z"/>
		</g>
	</g>
</g>
<g>
	<path class="st21" d="M158.6,222.9c0-18.3-15.4-33.2-34.3-33.2S90,204.6,90,222.9s15.4,33.2,34.3,33.2S158.6,241.3,158.6,222.9z"/>
	<path class="st22" d="M151.2,202.4c-4-4.9-9.3-8.6-15.5-10.8c-8.2,2.2-17.1,2.1-25.8,1.1c-11.8,5.2-20,16.8-20,30.2
		c0,8.4,3.2,16,8.4,21.8c2.7,1,5.4,1.6,8.3,1.9C132.7,250.1,151.6,226.7,151.2,202.4z"/>
	<path class="st23" d="M151.2,202.4c0.4,24.3-18.5,47.7-44.5,44.2c-2.9-0.2-5.6-0.9-8.3-1.9c6.3,7,15.5,11.4,25.8,11.4
		c18.9,0,34.3-14.9,34.3-33.2C158.6,215.2,155.8,208.1,151.2,202.4z"/>
	<path class="st23" d="M135.8,191.6c-3.6-1.2-7.5-1.9-11.5-1.9c-5.1,0-9.9,1.1-14.3,3C118.7,193.8,127.6,193.8,135.8,191.6z"/>
	<g>
		<g>
			<path class="st3" d="M275.9,221.1c-0.8,0.5-9.5,6.6-9.9,14.2c0,0-4.6-0.1-5.6,2.8c0.3,0.6,0.4,1.4,0.2,2
				c-0.8,3.9-6.9,4.7-8.7,0.8c-0.1-0.1-0.1-0.2-0.1-0.4l-0.3,0.1c-1.6-0.1-1.8,1.8-1.8,1.8c3.9,4.2,8,6.1,12,6.6h4.1
				c5.1-0.5,9.9-2.9,13.8-5.1c6.7-3.8,7.9-12.1,8.1-14.4c0-0.4,0-0.6,0-0.6c1.8-2.7,1.7-6.9,1.1-10.6c-0.7-3.8-4.9-9.5-9.9-8.8
				c-0.8,0.1-1.5,0.6-1.9,1.2C275.2,213.1,275.6,218.6,275.9,221.1z"/>
			<path class="st24" d="M240.1,237.8L240.1,237.8c2,0.7,4.1,2.2,4.4,5l0.8-0.1c0.8-0.3,4.3-0.3,4.3-0.3s0.2-1.9,1.8-1.8l0.3-0.1
				c0,0.1,0.1,0.2,0.1,0.4c1.9,3.9,8,3.1,8.7-0.8c0.1-0.6,0-1.4-0.2-2c1-2.8,5.6-2.8,5.6-2.8c0.3-7.7,9.1-13.7,9.9-14.2
				c-0.3-2.5-0.8-8,1-10.4l0,0c-4.5-3.3-16.2-2.6-16.2-2.6s-1.6-2.6-2.5-2.8c-0.9-0.1-2.6,3-2.6,3s-1.2,0.3-2.9,0.9
				c-0.7,0.2-1.5,0.5-2.3,0.8c-3.3,1.3-7.1,3.1-8.4,5.1c-1.6,2.7,1.6,9.7,3.7,13.6l-7.5-0.7C238.2,227.9,236.8,234.7,240.1,237.8z
				 M250.4,210.1c0,0.2,0.1,0.4,0.1,0.7C250.4,210.6,250.4,210.4,250.4,210.1z"/>
			<path class="st17" d="M258.6,214.9c0,0.6,0.9,1.1,2.1,1.2s2.2-0.3,2.2-0.9c0-0.6-0.9-1.1-2.1-1.2
				C259.6,213.9,258.6,214.3,258.6,214.9z"/>
			<g>
				<path class="st17" d="M262.5,215.3c-0.5-0.6-0.5-1.3-0.3-2c0.1-0.3,0.3-0.6,0.5-0.9c0.2-0.2,0.5-0.4,0.9-0.5
					c0.1,0,0.1,0,0.2,0.1c0,0,0,0.1,0,0.1v0c-0.2,0.6-0.5,1-0.6,1.5c-0.1,0.5-0.2,1-0.3,1.6l0,0c0,0.1-0.1,0.2-0.2,0.1
					C262.5,215.3,262.5,215.3,262.5,215.3z"/>
			</g>
			<path class="st3" d="M265.9,219.3c0.2,0.6,2.1-0.7,3.1-2.5c0.6-1.1,1-3.1,0.1-3.5c-0.9-0.4-1.1,1.2-1.8,2.9
				C266.8,217.6,265.8,218.9,265.9,219.3z"/>
			<g>
				<path class="st17" d="M252.9,209.4c0,0.8,0,1.6,0.1,2.4c0.1,0.8,0.2,1.6,0.5,2.3c0.4,1.5,1.3,2.9,2.4,4.1c0.1,0.1,0,0.1,0,0.2
					c0,0-0.1,0-0.1,0c-1.5-0.9-2.6-2.4-3.1-4.1c-0.5-1.7-0.6-3.5,0.1-5.1c0-0.1,0.1-0.1,0.2-0.1
					C252.9,209.3,252.9,209.3,252.9,209.4L252.9,209.4z"/>
			</g>
			<path class="st3" d="M287.4,217.9c0,0,6-2.1,7.6,3.6s-1.2,12.4-1.2,12.4s6.4,2.6,6.2,10.7c-0.2,8.1-4.5,11.4-7.9,10.7
				c0,0,1,10-12.4,9.3c-13.3-0.7-14.5-9.1-14.5-9.1s-6.7,6.4-10.9,2.6c-4.3-3.8-3.1-15.9-3.1-15.9s11.2,9.8,26.4,2.4
				C287.2,239.9,287.4,217.9,287.4,217.9z"/>
		</g>
	</g>
	<g>
		<path class="st24" d="M244.7,229.6c0,0,3.4,6.1,1.7,9.8c-1.5-0.9-3.4-1.5-5.9-1.6l0-0.6c-4.3-2.9-3.3-9.1-3.3-9.1l0-0.2
			L244.7,229.6z"/>
		<path class="st25" d="M165.7,250.4c1.6-1.1,3.3-2,4.5-2.4c2.2-0.6,5.2,0.5,7.9,1.1c0.8,0.2,1.6,0.3,2.3,0.3
			c2.9,0,42.5-8.9,53.8-11.1c2.4-0.5,4.5-0.6,6.3-0.5c2.5,0.1,4.4,0.7,5.9,1.6c2.3,1.4,3.5,3.4,4.2,5.3c1.4,4,0.2,10.5-8.4,11.6
			c-8.6,1.1-21.8-0.8-32.1-0.6c-10.3,0.2-36.7-2.4-40-1.7c-3.3,0.6-7.3,1.1-7.9,0.1C161.8,253.5,163.6,251.9,165.7,250.4
			C165.7,250.4,165.7,250.4,165.7,250.4z"/>
		<path class="st26" d="M240.6,237.3l0,0.6c-1.8-0.1-3.9,0.1-6.3,0.5c-11.3,2.2-50.9,11.1-53.8,11.1c-0.7,0-1.5-0.1-2.3-0.3l0.2-1.1
			c-1.3-14.3,3.7-22.5,7.6-26.7c2.4-2.5,4.3-3.6,4.3-3.6c1.8,0.9,3.8,1.4,6,1.7c8.5,1.3,18.5-1,22.3-1.4c4.8-0.5,18.1,9.8,18.1,9.8
			l0.7,0.1l0,0.2C237.2,228.2,236.3,234.4,240.6,237.3z"/>
		<path class="st27" d="M190.2,217.7c0,0-2,1.1-4.3,3.6l-0.3-0.3c-1.3-5.1,6.6-32.3,4.2-44.6l-1.4-3.9c0,0,7.6,0.7,9.8,4.5
			s-3.6,39.1-1.9,41.9l-0.1,0.5C194.1,219.1,192,218.6,190.2,217.7z"/>
		<path class="st28" d="M189.8,176.4c2.4,12.3-5.5,39.6-4.2,44.6l0.3,0.3c-3.9,4.2-8.9,12.5-7.6,26.7l-0.2,1.1
			c-2.6-0.6-5.7-1.7-7.9-1.1c-1.2,0.3-3,1.3-4.5,2.4c0,0,0,0,0,0c-0.8-0.1-6.6-1.4-9.9-11.2c-3.6-10.5,13.8-45.2,12.4-48.6
			c-0.3-0.8-3.3-1-7.8-1c-1.9-8.6,2.1-17.8,3-19.8c12.3-1,22.8-0.7,25.1,2.7C189.1,173.6,189.5,174.9,189.8,176.4z"/>
		<path class="st24" d="M124.8,175.3c8.8-1.6,24.7-4.3,38.5-5.4c-0.9,2-4.9,11.1-3,19.8c-15.1,0.1-46.9,3.5-50.5,2.4
			c-4.8-1.4,1.4-25,4.3-25.5c1.5-0.2,2.5,2.4,3.2,5.1c0.6,2.5,0.9,4.9,0.9,4.9S120.7,176.1,124.8,175.3z"/>
		<path class="st29" d="M123.2,164.5c1.9,0,1.7,9,1.7,10.9c-4.1,0.8-6.7,1.3-6.7,1.3s-0.3-2.4-0.9-4.9l0.4-0.1
			C117.7,171.6,121,164.5,123.2,164.5z"/>
	</g>
	<g>
		<g>
			<path class="st30" d="M190.1,217.9c-0.4-0.2-0.8-0.4-1.2-0.6c-0.4-0.2-0.7-0.5-1.1-0.8c-0.3-0.3-0.6-0.6-0.9-1
				c-0.3-0.4-0.6-0.7-0.7-1.2c-0.1-0.1,0-0.3,0.1-0.4c0.1,0,0.2,0,0.3,0.1l0,0c0.6,0.6,1.2,1.1,1.9,1.7l0.9,0.9
				c0.3,0.3,0.6,0.6,0.9,0.9v0c0.1,0.1,0.1,0.3,0,0.4C190.3,218,190.2,218,190.1,217.9z"/>
		</g>
	</g>
	<path class="st20" d="M116.3,188.9c-1.3-0.1-3.1-0.2-3.4-1.7c-0.1-0.5-0.8-0.3-0.8,0.1c-0.1,1,0.4,1.8,1.3,2.2
		c1,0.5,2.1,0.5,3.1-0.1C116.7,189.3,116.6,189,116.3,188.9z"/>
	<path class="st20" d="M245.2,239.2c-6.7-2.8-15-1.5-21.4,1.6c0,0,0,0.1,0,0.1c4.5-0.4,8.7-2,13.2-2.5c7.5-0.7,14.2,4.5,13.1,12.2
		c-0.1,0.5,0.7,1,0.9,0.4C253.3,246,250,241.1,245.2,239.2z"/>
	<path class="st20" d="M249.5,233.7c-1.2-2.1-3-3.8-4.3-5.9c-1.5-2.5-2.3-5.6-3.3-8.4c0-0.1-0.1,0-0.1,0c0.7,2.6,1.1,5.4,2.2,7.8
		c1.2,2.6,3.1,4.7,5,6.8C249.3,234.3,249.6,234,249.5,233.7z"/>
	<path class="st20" d="M258.5,237.3c-0.2-0.2-0.5-0.1-0.5,0.2c0.1,0.5,0.2,1.1,0,1.6c-0.1,0.6-0.6,0.7-1.1,1.1
		c-0.3,0.2-0.3,0.6,0.1,0.8c0.9,0.3,1.7-0.4,2-1.1C259.4,239,259,238,258.5,237.3z"/>
</g>
</svg>
