<?xml version="1.0" encoding="utf-8"?>
<!-- Generator: Adobe Illustrator 25.1.0, SVG Export Plug-In . SVG Version: 6.00 Build 0)  -->
<svg version="1.1" id="Layer_1" xmlns="http://www.w3.org/2000/svg" xmlns:xlink="http://www.w3.org/1999/xlink" x="0px" y="0px"
	 viewBox="0 0 300 265" style="enable-background:new 0 0 300 265;" xml:space="preserve">
<style type="text/css">
	.st0{display:none;}
	.st1{display:inline;}
	.st2{fill:#407BFF;}
	.st3{opacity:0.9;fill:#FFFFFF;enable-background:new    ;}
	.st4{fill:#646464;}
	.st5{opacity:0.3;fill:#FFFFFF;enable-background:new    ;}
	.st6{opacity:0.2;enable-background:new    ;}
	.st7{opacity:0.5;fill:#FFFFFF;enable-background:new    ;}
	.st8{fill:#263238;}
	.st9{opacity:0.6;fill:#FFFFFF;enable-background:new    ;}
	.st10{opacity:0.9;}
	.st11{opacity:0.3;}
	.st12{fill:#FFFFFF;}
	.st13{opacity:0.2;}
	.st14{opacity:0.4;fill:#FFFFFF;enable-background:new    ;}
	.st15{opacity:0.7;fill:#FFFFFF;enable-background:new    ;}
	.st16{opacity:0.2;fill:#FFFFFF;enable-background:new    ;}
	.st17{fill:#505050;}
	.st18{opacity:0.3;fill:#505050;enable-background:new    ;}
	.st19{opacity:0.4;fill:#505050;enable-background:new    ;}
	.st20{opacity:0.2;fill:#505050;enable-background:new    ;}
	.st21{opacity:0.1;fill:#505050;enable-background:new    ;}
	.st22{fill:#808080;}
	.st23{opacity:0.5;fill:#808080;enable-background:new    ;}
	.st24{opacity:0.2;fill:#808080;enable-background:new    ;}
	.st25{opacity:0.5;enable-background:new    ;}
	.st26{opacity:0.1;enable-background:new    ;}
	.st27{opacity:0.4;enable-background:new    ;}
	.st28{opacity:0.3;enable-background:new    ;}
	.st29{opacity:0.3;fill:#407BFF;enable-background:new    ;}
	.st30{opacity:0.5;}
	.st31{opacity:0.4;}
	.st32{fill:#FF8B7B;}
	.st33{opacity:0.6;enable-background:new    ;}
	.st34{opacity:0.2;fill:#646464;enable-background:new    ;}
	.st35{fill:#C0C0C0;}
	.st36{fill:#FF5652;}
	.st37{fill:#1A2E35;}
	.st38{opacity:0.2;fill:#1A2E35;enable-background:new    ;}
	.st39{fill:#BFA5FF;}
	.st40{opacity:0.1;fill:#FFFFFF;enable-background:new    ;}
	.st41{opacity:0.1;}
</style>
<g id="Background_Simple" class="st0">
	<g class="st1">
		<path class="st2" d="M286.2,173.1c-5.2,33.8,16.3,83.4-26.7,102.2c-57.4,25.1-93.4-38.5-139.9-50.1
			c-35.6-8.9-97.1,55.7-141.4,14.7c-44.4-41.1,30.3-97,33.1-130.4c2.8-33-59-90.6-9.4-125.7c48.6-34.4,104,31.3,150,43.6
			c40.9,10.9,140.1-40.9,169.7,9.9C349.5,85.3,291.2,140.6,286.2,173.1z"/>
		<path class="st3" d="M286.2,173.1c-5.2,33.8,16.3,83.4-26.7,102.2c-57.4,25.1-93.4-38.5-139.9-50.1
			c-35.6-8.9-97.1,55.7-141.4,14.7c-44.4-41.1,30.3-97,33.1-130.4c2.8-33-59-90.6-9.4-125.7c48.6-34.4,104,31.3,150,43.6
			c40.9,10.9,140.1-40.9,169.7,9.9C349.5,85.3,291.2,140.6,286.2,173.1z"/>
	</g>
</g>
<g id="Character_Model">
	<g>
		<g>
			<rect x="122.1" y="26.8" class="st4" width="52.3" height="67.3"/>
			<rect x="124.1" y="29.2" class="st3" width="48.4" height="62.6"/>
		</g>
		<g>
			<path class="st2" d="M129.5,25.5c-0.1,0-0.6,0-0.8,0c-1.2,0-2.1,1.1-2.1,2.5s0.9,2.5,2.1,2.5c0.1,0,0.6,0,0.8,0
				c1.2,0,2.1-1.1,2.1-2.5S130.7,25.5,129.5,25.5z"/>
			<path class="st5" d="M129.5,25.5c-0.1,0-0.6,0-0.8,0c-1.2,0-2.1,1.1-2.1,2.5s0.9,2.5,2.1,2.5c0.1,0,0.6,0,0.8,0
				c1.2,0,2.1-1.1,2.1-2.5S130.7,25.5,129.5,25.5z"/>
			<path class="st6" d="M130.8,28c0,1.4-0.9,2.5-2.1,2.5s-2.1-1.1-2.1-2.5s0.9-2.5,2.1-2.5S130.8,26.6,130.8,28z"/>
		</g>
		<g>
			<path class="st2" d="M174.1,43.7c-0.1,0-0.6,0-0.8,0c-1.2,0-2.1,1.1-2.1,2.5s0.9,2.5,2.1,2.5c0.1,0,0.6,0,0.8,0
				c1.2,0,2.1-1.1,2.1-2.5C176.2,44.8,175.3,43.7,174.1,43.7z"/>
			<path class="st5" d="M174.1,43.7c-0.1,0-0.6,0-0.8,0c-1.2,0-2.1,1.1-2.1,2.5s0.9,2.5,2.1,2.5c0.1,0,0.6,0,0.8,0
				c1.2,0,2.1-1.1,2.1-2.5C176.2,44.8,175.3,43.7,174.1,43.7z"/>
			<path class="st6" d="M175.5,46.2c0,1.4-0.9,2.5-2.1,2.5s-2.1-1.1-2.1-2.5s0.9-2.5,2.1-2.5C174.5,43.7,175.5,44.8,175.5,46.2z"/>
		</g>
		<g>
			<g>
				<path class="st2" d="M125.5,32.4v57.7h26.4V32.4H125.5z M146.7,32.8h4.9v5.9h-4.9V32.8z M146.7,39.2h4.9v5.9h-4.9V39.2z
					 M146.7,45.6h4.9v5.9h-4.9V45.6z M146.7,52h4.9v5.9h-4.9V52z M146.7,58.4h4.9v5.9h-4.9V58.4z M146.7,64.8h4.9v5.9h-4.9V64.8z
					 M146.7,71.1h4.9V77h-4.9V71.1z M146.7,77.5h4.9v5.9h-4.9V77.5z M130.7,83.4h-4.9v-5.9h4.9V83.4z M130.7,77h-4.9v-5.9h4.9V77z
					 M130.7,70.6h-4.9v-5.9h4.9V70.6z M130.7,64.2h-4.9v-5.9h4.9V64.2z M130.7,57.9h-4.9V52h4.9V57.9z M130.7,51.5h-4.9v-5.9h4.9
					V51.5z M130.7,45.1h-4.9v-5.9h4.9V45.1z M135.9,83.4H131v-5.9h4.9V83.4z M141.1,45.6v5.9h-4.9v-5.9H141.1z M141.1,52v5.9h-4.9
					V52H141.1z M141.1,58.4v5.9h-4.9v-5.9H141.1z M141.1,64.8v5.9h-4.9v-5.9H141.1z M141.1,71.1V77h-4.9v-5.9H141.1z M141.1,45.1
					h-4.9v-5.9h4.9V45.1z M135.9,45.1H131v-5.9h4.9V45.1z M135.9,51.5H131v-5.9h4.9V51.5z M135.9,57.9H131V52h4.9V57.9z M135.9,64.2
					H131v-5.9h4.9V64.2z M135.9,70.6H131v-5.9h4.9V70.6z M135.9,77H131v-5.9h4.9V77z M136.3,77.5h4.9v5.9h-4.9V77.5z M141.5,77.5
					h4.9v5.9h-4.9V77.5z M141.5,71.1h4.9V77h-4.9V71.1z M141.5,64.8h4.9v5.9h-4.9V64.8z M141.5,58.4h4.9v5.9h-4.9V58.4z M141.5,52
					h4.9v5.9h-4.9V52z M141.5,45.6h4.9v5.9h-4.9V45.6z M141.5,39.2h4.9v5.9h-4.9V39.2z M141.5,32.8h4.9v5.9h-4.9V32.8z M136.3,32.8
					h4.9v5.9h-4.9V32.8z M131.1,32.8h4.9v5.9h-4.9V32.8z M125.8,32.8h4.9v5.9h-4.9C125.8,38.7,125.8,32.8,125.8,32.8z M130.7,89.8
					h-4.9v-5.9h4.9V89.8z M135.9,89.8H131v-5.9h4.9V89.8z M141.1,89.8h-4.9v-5.9h4.9V89.8z M146.4,89.8h-4.9v-5.9h4.9V89.8z
					 M151.6,89.8h-4.9v-5.9h4.9V89.8z"/>
				<path class="st7" d="M125.5,32.4v57.7h26.4V32.4H125.5z M146.7,32.8h4.9v5.9h-4.9V32.8z M146.7,39.2h4.9v5.9h-4.9V39.2z
					 M146.7,45.6h4.9v5.9h-4.9V45.6z M146.7,52h4.9v5.9h-4.9V52z M146.7,58.4h4.9v5.9h-4.9V58.4z M146.7,64.8h4.9v5.9h-4.9V64.8z
					 M146.7,71.1h4.9V77h-4.9V71.1z M146.7,77.5h4.9v5.9h-4.9V77.5z M130.7,83.4h-4.9v-5.9h4.9V83.4z M130.7,77h-4.9v-5.9h4.9V77z
					 M130.7,70.6h-4.9v-5.9h4.9V70.6z M130.7,64.2h-4.9v-5.9h4.9V64.2z M130.7,57.9h-4.9V52h4.9V57.9z M130.7,51.5h-4.9v-5.9h4.9
					V51.5z M130.7,45.1h-4.9v-5.9h4.9V45.1z M135.9,83.4H131v-5.9h4.9V83.4z M141.1,45.6v5.9h-4.9v-5.9H141.1z M141.1,52v5.9h-4.9
					V52H141.1z M141.1,58.4v5.9h-4.9v-5.9H141.1z M141.1,64.8v5.9h-4.9v-5.9H141.1z M141.1,71.1V77h-4.9v-5.9H141.1z M141.1,45.1
					h-4.9v-5.9h4.9V45.1z M135.9,45.1H131v-5.9h4.9V45.1z M135.9,51.5H131v-5.9h4.9V51.5z M135.9,57.9H131V52h4.9V57.9z M135.9,64.2
					H131v-5.9h4.9V64.2z M135.9,70.6H131v-5.9h4.9V70.6z M135.9,77H131v-5.9h4.9V77z M136.3,77.5h4.9v5.9h-4.9V77.5z M141.5,77.5
					h4.9v5.9h-4.9V77.5z M141.5,71.1h4.9V77h-4.9V71.1z M141.5,64.8h4.9v5.9h-4.9V64.8z M141.5,58.4h4.9v5.9h-4.9V58.4z M141.5,52
					h4.9v5.9h-4.9V52z M141.5,45.6h4.9v5.9h-4.9V45.6z M141.5,39.2h4.9v5.9h-4.9V39.2z M141.5,32.8h4.9v5.9h-4.9V32.8z M136.3,32.8
					h4.9v5.9h-4.9V32.8z M131.1,32.8h4.9v5.9h-4.9V32.8z M125.8,32.8h4.9v5.9h-4.9C125.8,38.7,125.8,32.8,125.8,32.8z M130.7,89.8
					h-4.9v-5.9h4.9V89.8z M135.9,89.8H131v-5.9h4.9V89.8z M141.1,89.8h-4.9v-5.9h4.9V89.8z M146.4,89.8h-4.9v-5.9h4.9V89.8z
					 M151.6,89.8h-4.9v-5.9h4.9V89.8z"/>
			</g>
			<g>
				<polygon class="st8" points="140.1,42 137.6,42 138,36.7 139.7,36.7 				"/>
				<polygon class="st7" points="140.1,42 137.6,42 138,36.7 139.7,36.7 				"/>
				<polygon class="st2" points="139.8,40.3 137.9,40.3 137.2,35.6 140.5,35.6 				"/>
				<polygon class="st7" points="139.8,40.3 137.9,40.3 137.2,35.6 140.5,35.6 				"/>
				<polygon class="st2" points="137.5,33.3 140.1,33.3 140.5,35.6 137.2,35.6 				"/>
				<polygon class="st5" points="137.5,33.3 140.1,33.3 140.5,35.6 137.2,35.6 				"/>
				<g>
					<polygon class="st2" points="135.5,52.7 142.1,52.7 142.4,57.8 135.3,57.8 					"/>
					<polygon class="st5" points="135.5,52.7 142.1,52.7 142.4,57.8 135.3,57.8 					"/>
				</g>
				<g>
					<polygon class="st2" points="137.7,69.6 135.1,69.6 134.7,75.1 135.1,85.8 136.6,85.8 138,74.2 					"/>
					<polygon class="st5" points="137.7,69.6 135.1,69.6 134.7,75.1 135.1,85.8 136.6,85.8 138,74.2 					"/>
				</g>
				<g>
					<polygon class="st2" points="135.3,57.8 135.1,69.6 137.7,69.6 138.8,57.8 					"/>
					<polygon class="st7" points="135.3,57.8 135.1,69.6 137.7,69.6 138.8,57.8 					"/>
				</g>
				<g>
					<polygon class="st2" points="140,69.6 142.6,69.6 143,75.1 142.6,85.8 141.1,85.8 139.6,74.2 					"/>
					<polygon class="st5" points="140,69.6 142.6,69.6 143,75.1 142.6,85.8 141.1,85.8 139.6,74.2 					"/>
				</g>
				<g>
					<polygon class="st2" points="142.4,57.8 142.6,69.6 140,69.6 138.9,57.8 					"/>
					<polygon class="st7" points="142.4,57.8 142.6,69.6 140,69.6 138.9,57.8 					"/>
				</g>
				<g>
					<polygon class="st2" points="142.1,52.7 135.5,52.7 134.9,41.2 142.8,41.2 					"/>
					<polygon class="st5" points="142.1,52.7 135.5,52.7 134.9,41.2 142.8,41.2 					"/>
					<polygon class="st5" points="135.5,52.7 138.8,47 142.1,52.7 					"/>
				</g>
				<g>
					<polygon class="st8" points="132.5,88 135.1,85.8 136.6,85.8 135.7,89.3 					"/>
					<polygon class="st7" points="132.5,88 135.1,85.8 136.6,85.8 135.7,89.3 					"/>
					<rect x="132.5" y="88" class="st8" width="3.1" height="1.3"/>
					<rect x="132.5" y="88" class="st5" width="3.1" height="1.3"/>
				</g>
				<g>
					<polygon class="st8" points="145.2,88 142.6,85.8 141.1,85.8 142,89.3 					"/>
					<polygon class="st7" points="145.2,88 142.6,85.8 141.1,85.8 142,89.3 					"/>
					<rect x="142" y="88" class="st8" width="3.1" height="1.3"/>
					<rect x="142" y="88" class="st5" width="3.1" height="1.3"/>
				</g>
				<g>
					<polygon class="st2" points="133.8,50.2 131.9,50.2 133.4,41.2 135.7,41.2 					"/>
					<polygon class="st8" points="133.8,50.2 131.9,50.2 131.4,53.2 131.3,58.8 132.9,58.8 133.8,53.2 					"/>
					<polygon class="st8" points="132.9,58.8 131.3,58.8 131,61 131.6,62.1 132.6,61.5 133.2,60.5 					"/>
					<polygon class="st7" points="133.8,50.2 131.9,50.2 133.4,41.2 135.7,41.2 					"/>
					<polygon class="st9" points="133.8,50.2 131.9,50.2 131.4,53.2 131.3,58.8 132.9,58.8 133.8,53.2 					"/>
					<polygon class="st7" points="132.9,58.8 131.3,58.8 131,61 131.6,62.1 132.6,61.5 133.2,60.5 					"/>
					<g>
						<polygon class="st8" points="135.9,44.2 133.3,44.2 132.9,40.7 136.3,40.7 						"/>
						<polygon class="st8" points="132.9,40.7 131.3,44.2 132.5,44.9 133.3,44.2 						"/>
						<polygon class="st7" points="135.9,44.2 133.3,44.2 132.9,40.7 136.3,40.7 						"/>
						<polygon class="st9" points="132.9,40.7 131.3,44.2 132.5,44.9 133.3,44.2 						"/>
					</g>
				</g>
				<g>
					<polygon class="st2" points="143.6,50.2 145.5,50.2 144,41.2 141.7,41.2 					"/>
					<polygon class="st7" points="143.6,50.2 145.5,50.2 144,41.2 141.7,41.2 					"/>
					<polygon class="st8" points="143.6,50.2 145.5,50.2 146,53.2 146.1,58.8 144.5,58.8 143.7,53.2 					"/>
					<polygon class="st9" points="143.6,50.2 145.5,50.2 146,53.2 146.1,58.8 144.5,58.8 143.7,53.2 					"/>
					<polygon class="st8" points="144.5,58.8 146.1,58.8 146.4,61 145.8,62.1 144.8,61.5 144.2,60.5 					"/>
					<polygon class="st7" points="144.5,58.8 146.1,58.8 146.4,61 145.8,62.1 144.8,61.5 144.2,60.5 					"/>
					<g>
						<polygon class="st8" points="141.5,44.2 144.1,44.2 144.5,40.7 141.1,40.7 						"/>
						<polygon class="st7" points="141.5,44.2 144.1,44.2 144.5,40.7 141.1,40.7 						"/>
						<polygon class="st8" points="144.5,40.7 146.1,44.2 144.9,44.9 144.1,44.2 						"/>
						<polygon class="st9" points="144.5,40.7 146.1,44.2 144.9,44.9 144.1,44.2 						"/>
					</g>
				</g>
			</g>
		</g>
		<g>
			<g>
				<g class="st10">
					<rect x="166" y="41.2" class="st8" width="2.9" height="1"/>
					<rect x="155.8" y="41.2" class="st8" width="2.6" height="1"/>
					<rect x="160" y="41.2" class="st8" width="3.1" height="1"/>
					<rect x="163.5" y="41.2" class="st8" width="1.9" height="1"/>
				</g>
				<g class="st10">
					<g>
						<rect x="155.8" y="39" class="st8" width="2.6" height="1"/>
						<rect x="160" y="39" class="st8" width="1.5" height="1"/>
						<rect x="165" y="39" class="st8" width="2.6" height="1"/>
						<rect x="162" y="39" class="st8" width="2.6" height="1"/>
					</g>
					<g>
						<rect x="160" y="43.3" class="st8" width="2.1" height="1"/>
						<rect x="162.6" y="43.3" class="st8" width="2.9" height="1"/>
						<rect x="166" y="43.3" class="st8" width="2.1" height="1"/>
						<rect x="155.8" y="43.3" class="st8" width="2.6" height="1"/>
					</g>
				</g>
			</g>
			<g class="st11">
				<g class="st10">
					<rect x="166" y="41.2" class="st12" width="2.9" height="1"/>
					<rect x="155.8" y="41.2" class="st12" width="2.6" height="1"/>
					<rect x="160" y="41.2" class="st12" width="3.1" height="1"/>
					<rect x="163.5" y="41.2" class="st12" width="1.9" height="1"/>
				</g>
				<g class="st10">
					<g>
						<rect x="155.8" y="39" class="st12" width="2.6" height="1"/>
						<rect x="160" y="39" class="st12" width="1.5" height="1"/>
						<rect x="165" y="39" class="st12" width="2.6" height="1"/>
						<rect x="162" y="39" class="st12" width="2.6" height="1"/>
					</g>
					<g>
						<rect x="160" y="43.3" class="st12" width="2.1" height="1"/>
						<rect x="162.6" y="43.3" class="st12" width="2.9" height="1"/>
						<rect x="166" y="43.3" class="st12" width="2.1" height="1"/>
						<rect x="155.8" y="43.3" class="st12" width="2.6" height="1"/>
					</g>
				</g>
			</g>
		</g>
	</g>
</g>
<g id="Gun_Model">
	<g>
		<g>
			<rect x="157.9" y="55.2" class="st4" width="39.5" height="29.8"/>
			<rect x="159.7" y="57.4" class="st3" width="35.9" height="25.5"/>
		</g>
		<g>
			<g>
				<g>
					<path class="st8" d="M184.4,74.4h-5.6c-1.1,0-2.1-0.8-2.5-2.1l-1.2-3.7l1.1-0.5l1.2,3.7c0.2,0.7,0.8,1.2,1.5,1.2h5.6v1.4H184.4
						z"/>
				</g>
				<polygon class="st8" points="180.6,68.4 180,71.3 181,71.3 182.4,68.4 				"/>
			</g>
			<g class="st13">
				<g>
					<path class="st12" d="M184.4,74.4h-5.6c-1.1,0-2.1-0.8-2.5-2.1l-1.2-3.7l1.1-0.5l1.2,3.7c0.2,0.7,0.8,1.2,1.5,1.2h5.6v1.4
						H184.4z"/>
				</g>
				<polygon class="st12" points="180.6,68.4 180,71.3 181,71.3 182.4,68.4 				"/>
			</g>
			<polygon class="st8" points="189.9,79 185.2,79 182.4,68.4 187.1,68.4 			"/>
			<polygon class="st14" points="189.9,79 185.2,79 182.4,68.4 187.1,68.4 			"/>
			<path class="st2" d="M186.7,77.9L186.7,77.9c-0.3,0-0.5-0.2-0.6-0.5l-1.3-5.1c-0.1-0.5,0.2-1,0.6-1l0,0c0.3,0,0.5,0.2,0.6,0.5
				l1.3,5.1C187.4,77.4,187.1,77.9,186.7,77.9z"/>
			<polygon class="st8" points="190.4,81 184.7,81 185.2,79 189.9,79 			"/>
			<polygon class="st15" points="190.4,81 184.7,81 185.2,79 189.9,79 			"/>
			<g>
				<rect x="164.8" y="62.6" class="st8" width="1.3" height="5.1"/>
				<rect x="164.8" y="62.6" class="st16" width="1.3" height="5.1"/>
			</g>
			<g>
				<polygon class="st8" points="166.1,59.3 166.1,61.6 169.1,61.6 169.1,60.5 167.3,59.3 				"/>
				<polygon class="st15" points="166.1,59.3 166.1,61.6 169.1,61.6 169.1,60.5 167.3,59.3 				"/>
			</g>
			<g>
				<rect x="166.1" y="61.6" class="st8" width="20.2" height="5.1"/>
				<rect x="166.1" y="61.6" class="st9" width="20.2" height="5.1"/>
			</g>
			<g>
				<rect x="166.1" y="66.7" class="st8" width="23.2" height="2.5"/>
				<rect x="166.1" y="66.7" class="st14" width="23.2" height="2.5"/>
				<g>
					<polygon class="st8" points="189.3,66.7 186.3,66.7 186.3,61.6 189.3,63.6 					"/>
					<polygon class="st15" points="189.3,66.7 186.3,66.7 186.3,61.6 189.3,63.6 					"/>
				</g>
			</g>
			<polygon class="st2" points="169.3,65.5 168.3,65.5 168.9,63 169.9,63 			"/>
			<polygon class="st2" points="170.9,65.5 169.9,65.5 170.4,63 171.4,63 			"/>
			<polygon class="st2" points="172.4,65.5 171.4,65.5 172,63 173,63 			"/>
			<polygon class="st2" points="173.9,65.5 173,65.5 173.5,63 174.5,63 			"/>
			<path class="st2" d="M188.2,66.7c0,2-1.4,3.7-3.1,3.7c-1.7,0-3.1-1.6-3.1-3.7c0-2,1.4-3.7,3.1-3.7S188.2,64.7,188.2,66.7z"/>
			<path class="st7" d="M188.2,66.7c0,2-1.4,3.7-3.1,3.7c-1.7,0-3.1-1.6-3.1-3.7c0-2,1.4-3.7,3.1-3.7S188.2,64.7,188.2,66.7z"/>
			<path class="st2" d="M186.8,66.7c0,1.1-0.7,2-1.7,2s-1.7-0.9-1.7-2s0.7-2,1.7-2C186,64.7,186.8,65.6,186.8,66.7z"/>
			<polygon class="st3" points="184.7,67.8 184.2,67.1 185.5,65.6 186.1,66.2 			"/>
		</g>
		<g>
			<path class="st2" d="M165.2,53.8c-0.1,0-0.6,0-0.8,0c-1.2,0-2.1,1.1-2.1,2.5s0.9,2.5,2.1,2.5c0.1,0,0.6,0,0.8,0
				c1.2,0,2.1-1.1,2.1-2.5C167.3,54.9,166.3,53.8,165.2,53.8z"/>
			<path class="st5" d="M165.2,53.8c-0.1,0-0.6,0-0.8,0c-1.2,0-2.1,1.1-2.1,2.5s0.9,2.5,2.1,2.5c0.1,0,0.6,0,0.8,0
				c1.2,0,2.1-1.1,2.1-2.5C167.3,54.9,166.3,53.8,165.2,53.8z"/>
			<path class="st6" d="M166.5,56.3c0,1.4-0.9,2.5-2.1,2.5s-2.1-1.1-2.1-2.5s0.9-2.5,2.1-2.5S166.5,54.9,166.5,56.3z"/>
		</g>
		<g>
			<path class="st2" d="M192.8,53.8c-0.1,0-0.6,0-0.8,0c-1.2,0-2.1,1.1-2.1,2.5s0.9,2.5,2.1,2.5c0.1,0,0.6,0,0.8,0
				c1.2,0,2.1-1.1,2.1-2.5C194.9,54.9,193.9,53.8,192.8,53.8z"/>
			<path class="st5" d="M192.8,53.8c-0.1,0-0.6,0-0.8,0c-1.2,0-2.1,1.1-2.1,2.5s0.9,2.5,2.1,2.5c0.1,0,0.6,0,0.8,0
				c1.2,0,2.1-1.1,2.1-2.5C194.9,54.9,193.9,53.8,192.8,53.8z"/>
			<path class="st6" d="M194.1,56.3c0,1.4-0.9,2.5-2.1,2.5s-2.1-1.1-2.1-2.5s0.9-2.5,2.1-2.5S194.1,54.9,194.1,56.3z"/>
		</g>
	</g>
</g>
<g id="Desk">
	<g>
		<g>
			<path class="st17" d="M236.2,258.2L236.2,258.2c0.8,0,1.5-0.7,1.5-1.5v-90h-3v90C234.7,257.6,235.3,258.2,236.2,258.2z"/>
			<path class="st18" d="M236.2,258.2L236.2,258.2c0.8,0,1.5-0.7,1.5-1.5v-90h-3v90C234.7,257.6,235.3,258.2,236.2,258.2z"/>
			<path class="st17" d="M235.5,243v-0.6c0-0.8-0.7-1.5-1.5-1.5h-51.9v3.6H234C234.8,244.5,235.5,243.8,235.5,243z"/>
			<path class="st19" d="M235.5,243v-0.6c0-0.8-0.7-1.5-1.5-1.5h-51.9v3.6H234C234.8,244.5,235.5,243.8,235.5,243z"/>
			<path class="st17" d="M182.7,258.2L182.7,258.2c0.8,0,1.5-0.7,1.5-1.5v-90h-3v90C181.2,257.6,181.9,258.2,182.7,258.2z"/>
			<rect x="234.7" y="166.7" class="st20" width="3" height="3.3"/>
			<rect x="181.2" y="166.7" class="st20" width="3" height="3.3"/>
		</g>
		<g>
			<rect x="112.7" y="160.5" class="st17" width="125" height="6.2"/>
			<rect x="112.7" y="160.5" class="st18" width="125" height="6.2"/>
			<rect x="180.8" y="160.5" class="st21" width="56.9" height="6.2"/>
			<g>
				<rect x="106.2" y="157" class="st22" width="137.9" height="3.9"/>
				<rect x="106.2" y="157" class="st23" width="137.9" height="3.9"/>
				<rect x="180.8" y="157" class="st24" width="63.4" height="3.9"/>
			</g>
		</g>
		<path class="st18" d="M184.2,166.7h-3v90.1c0,0.8,0.5,1.5,1.2,1.5h0.6c0.7,0,1.2-0.6,1.2-1.5"/>
		<g>
			<path class="st17" d="M168,258.2L168,258.2c0.8,0,1.5-0.7,1.5-1.5v-90h-3v90C166.5,257.6,167.1,258.2,168,258.2z"/>
			<path class="st18" d="M168,258.2L168,258.2c0.8,0,1.5-0.7,1.5-1.5v-90h-3v90C166.5,257.6,167.1,258.2,168,258.2z"/>
			<path class="st17" d="M167.3,243v-0.6c0-0.8-0.7-1.5-1.5-1.5h-51.9v3.6h51.9C166.6,244.5,167.3,243.8,167.3,243z"/>
			<path class="st19" d="M167.3,243v-0.6c0-0.8-0.7-1.5-1.5-1.5h-51.9v3.6h51.9C166.6,244.5,167.3,243.8,167.3,243z"/>
			<path class="st17" d="M114.6,258.2L114.6,258.2c0.8,0,1.5-0.7,1.5-1.5v-90h-3v90C113.1,257.6,113.7,258.2,114.6,258.2z"/>
			<rect x="166.5" y="166.7" class="st20" width="3" height="3.3"/>
			<rect x="113.1" y="166.7" class="st20" width="3" height="3.3"/>
		</g>
		<path class="st18" d="M116.1,166.7h-3v90.1c0,0.8,0.5,1.5,1.2,1.5h0.6c0.7,0,1.2-0.6,1.2-1.5"/>
	</g>
</g>
<g id="Device">
	<g>
		<g>
			<polygon class="st8" points="143,152.9 163.1,152.9 163.1,157.6 122.9,157.6 122.9,155.2 			"/>
			<polygon class="st15" points="143,152.9 163.1,152.9 163.1,157.6 122.9,157.6 122.9,155.2 			"/>
			<polygon class="st25" points="143,157.6 163.1,157.6 163.1,152.9 143,155.2 			"/>
		</g>
		<g>
			<rect x="207.7" y="194.4" class="st8" width="23.6" height="63.8"/>
			<rect x="207.7" y="194.4" class="st5" width="23.6" height="63.8"/>
			<rect x="188.1" y="194.4" class="st8" width="23.6" height="63.8"/>
			<rect x="188.1" y="194.4" class="st15" width="23.6" height="63.8"/>
			<polygon class="st14" points="202.9,212.8 196.9,212.8 188.1,194.4 211.7,194.4 			"/>
			<polygon class="st14" points="202.9,221.1 196.9,221.1 188.1,258.2 211.7,258.2 			"/>
			<rect x="196.9" y="212.8" class="st15" width="5.9" height="8.3"/>
			<g>
				<g>
					<path class="st2" d="M199.9,219.7c-0.6,0-1.1-0.3-1.5-0.8s-0.6-1.1-0.6-1.8s0.2-1.3,0.6-1.8l0.6,0.7c-0.2,0.3-0.4,0.7-0.4,1.1
						s0.1,0.8,0.4,1.1c0.5,0.6,1.4,0.6,1.9,0c0.2-0.3,0.4-0.7,0.4-1.1s-0.1-0.8-0.4-1.1l0.6-0.7c0.4,0.5,0.6,1.1,0.6,1.8
						s-0.2,1.3-0.6,1.8C201,219.4,200.4,219.7,199.9,219.7z"/>
				</g>
				<g>
					<rect x="199.5" y="214.2" class="st2" width="0.8" height="2.4"/>
				</g>
			</g>
		</g>
		<g>
			<g>
				<rect x="128.5" y="142.3" class="st8" width="2.7" height="12.6"/>
				<rect x="128.5" y="142.3" class="st5" width="2.7" height="12.6"/>
				<path class="st8" d="M133,152.4h-6.4c-0.3,0-0.6,0.1-0.8,0.2l-5.1,2.5c-0.8,0.4-1.3,1.3-1.3,2.4l0,0h20.9l0,0c0-1-0.5-2-1.3-2.4
					l-5.1-2.5C133.6,152.4,133.3,152.4,133,152.4z"/>
				<path class="st7" d="M133,152.4h-6.4c-0.3,0-0.6,0.1-0.8,0.2l-5.1,2.5c-0.8,0.4-1.3,1.3-1.3,2.4l0,0h20.9l0,0c0-1-0.5-2-1.3-2.4
					l-5.1-2.5C133.6,152.4,133.3,152.4,133,152.4z"/>
				<rect x="128.5" y="142.3" class="st26" width="2.7" height="4.6"/>
				<rect x="109.9" y="108.7" class="st8" width="39.8" height="35.3"/>
				<rect x="109.9" y="108.7" class="st7" width="39.8" height="35.3"/>
				<g>
					<polygon class="st8" points="149.7,144 151.2,142.4 151.2,110.2 149.7,108.7 					"/>
					<polygon class="st5" points="149.7,144 151.2,142.4 151.2,110.2 149.7,108.7 					"/>
				</g>
				<rect x="111.4" y="111" class="st27" width="36.6" height="30.6"/>
			</g>
			<g>
				<path class="st2" d="M133,128.7c-0.7,0.9-1.9,0.4-2-0.9c-0.2-2.7-0.5-4.3-0.1-5.7c0.7-2,2.6-3,4.3-2.2s2.5,3.1,1.8,5.1
					L133,128.7z"/>
				<path class="st2" d="M133,128.1c-0.7,0.9-1.9,0.4-2-0.9c-0.2-2.7-0.5-4.3-0.1-5.7c0.7-2,2.6-3,4.3-2.2s2.5,3.1,1.8,5.1
					L133,128.1z"/>
				<path class="st5" d="M133,128.1c-0.7,0.9-1.9,0.4-2-0.9c-0.2-2.7-0.5-4.3-0.1-5.7c0.7-2,2.6-3,4.3-2.2s2.5,3.1,1.8,5.1
					L133,128.1z"/>
				<path class="st2" d="M145,128.7c0.7,0.9,1.9,0.4,2-0.9c0.2-2.7,0.5-4.3,0.1-5.7c-0.7-2-2.6-3-4.3-2.2s-2.5,3.1-1.8,5.1
					L145,128.7z"/>
				<path class="st5" d="M144.9,128.1c0.7,0.9,1.9,0.4,2-0.9c0.2-2.7,0.5-4.3,0.1-5.7c-0.7-2-2.6-3-4.3-2.2s-2.5,3.1-1.8,5.1
					L144.9,128.1z"/>
				<g>
					<g>
						<rect x="134" y="123.4" class="st2" width="9.9" height="3.3"/>
						<rect x="134" y="123.4" class="st5" width="9.9" height="3.3"/>
						<rect x="134" y="119.2" class="st2" width="9.9" height="5.7"/>
						<rect x="134" y="119.2" class="st9" width="9.9" height="5.7"/>
					</g>
				</g>
				<path class="st2" d="M137,124.4c-0.7,2-2.6,3-4.3,2.2s-2.5-3.1-1.8-5.1s2.6-3,4.3-2.2C136.9,120.1,137.7,122.4,137,124.4z"/>
				<path class="st15" d="M137,124.4c-0.7,2-2.6,3-4.3,2.2s-2.5-3.1-1.8-5.1s2.6-3,4.3-2.2C136.9,120.1,137.7,122.4,137,124.4z"/>
				<path class="st2" d="M135.9,122.9c0,1.3-0.9,2.3-1.9,2.3s-1.9-1-1.9-2.3s0.9-2.3,1.9-2.3S135.9,121.6,135.9,122.9z"/>
				<path class="st28" d="M135.9,122.9c0,1.3-0.9,2.3-1.9,2.3s-1.9-1-1.9-2.3s0.9-2.3,1.9-2.3S135.9,121.6,135.9,122.9z"/>
				<path class="st2" d="M140.9,124.4c0.7,2,2.6,3,4.3,2.2s2.5-3.1,1.8-5.1s-2.6-3-4.3-2.2C141,120.1,140.2,122.4,140.9,124.4z"/>
				<path class="st15" d="M140.9,124.4c0.7,2,2.6,3,4.3,2.2s2.5-3.1,1.8-5.1s-2.6-3-4.3-2.2C141,120.1,140.2,122.4,140.9,124.4z"/>
				<rect x="138.1" y="121.2" class="st2" width="1.7" height="0.6"/>
				<g>
					<path class="st2" d="M143,122.1c0.1,0.3-0.1,0.7-0.4,0.7s-0.6-0.2-0.6-0.5c-0.1-0.3,0.1-0.7,0.4-0.7
						C142.7,121.5,142.9,121.7,143,122.1z"/>
					<path class="st2" d="M144.2,121.7c0.1,0.3-0.1,0.7-0.4,0.7s-0.6-0.2-0.6-0.5c-0.1-0.3,0.1-0.7,0.4-0.7S144.2,121.4,144.2,121.7
						z"/>
					<path class="st2" d="M143.3,124.1c0.1,0.3-0.1,0.7-0.4,0.7s-0.6-0.2-0.6-0.5c-0.1-0.3,0.1-0.7,0.4-0.7S143.3,123.7,143.3,124.1
						z"/>
					<path class="st2" d="M144.6,123.7c0.1,0.3-0.1,0.7-0.4,0.7s-0.6-0.2-0.6-0.5c-0.1-0.3,0.1-0.7,0.4-0.7
						C144.2,123.1,144.5,123.3,144.6,123.7z"/>
					<path class="st2" d="M145.5,121.4c0.1,0.3-0.1,0.7-0.4,0.7s-0.6-0.2-0.6-0.5c-0.1-0.3,0.1-0.7,0.4-0.7S145.4,121.1,145.5,121.4
						z"/>
					<path class="st2" d="M145.8,123.4c0.1,0.3-0.1,0.7-0.4,0.7s-0.6-0.2-0.6-0.5c-0.1-0.3,0.1-0.7,0.4-0.7
						C145.5,122.8,145.8,123,145.8,123.4z"/>
				</g>
				<path class="st29" d="M135.1,122.9c0,0.8-0.5,1.4-1.1,1.4s-1.1-0.6-1.1-1.4s0.5-1.4,1.1-1.4S135.1,122.1,135.1,122.9z"/>
			</g>
			<g>
				<rect x="113.1" y="114.5" class="st8" width="16.7" height="23.2"/>
				<rect x="113.1" y="114.5" class="st7" width="16.7" height="23.2"/>
				<rect x="113.6" y="116.2" width="15.7" height="20.7"/>
				<g>
					<rect x="115.7" y="118.4" class="st2" width="2.3" height="0.9"/>
					<rect x="118.4" y="118.4" class="st2" width="2.3" height="0.9"/>
					<rect x="123.9" y="118.4" class="st2" width="2.3" height="0.9"/>
					<rect x="124.7" y="120.3" class="st2" width="2.6" height="0.9"/>
					<rect x="119.6" y="122.3" class="st2" width="1.7" height="0.9"/>
					<rect x="121.7" y="122.3" class="st2" width="2.6" height="0.9"/>
					<rect x="124.7" y="122.3" class="st2" width="1.8" height="0.9"/>
					<rect x="118.7" y="126.1" class="st2" width="3.2" height="0.9"/>
					<rect x="122.3" y="126.1" class="st2" width="2" height="0.9"/>
					<rect x="122.3" y="130" class="st2" width="2.6" height="0.9"/>
					<rect x="125.3" y="130" class="st2" width="2" height="0.9"/>
					<rect x="115.7" y="133.8" class="st2" width="2.6" height="0.9"/>
					<g>
						<g>
							<rect x="118" y="120.3" class="st2" width="4.1" height="0.9"/>
							<rect x="118.2" y="124.2" class="st2" width="3" height="0.9"/>
							<rect x="124.7" y="126.1" class="st2" width="2.6" height="0.9"/>
							<rect x="118.1" y="128.1" class="st2" width="2.6" height="0.9"/>
							<rect x="121.1" y="128.1" class="st2" width="2.6" height="0.9"/>
							<rect x="115.7" y="130" class="st2" width="2.6" height="0.9"/>
							<rect x="121.7" y="131.9" class="st2" width="2" height="0.9"/>
							<rect x="124.2" y="131.9" class="st2" width="3.2" height="0.9"/>
							<rect x="118.7" y="133.8" class="st2" width="3.2" height="0.9"/>
						</g>
						<g class="st30">
							<rect x="118" y="120.3" class="st12" width="4.1" height="0.9"/>
							<rect x="118.2" y="124.2" class="st12" width="3" height="0.9"/>
							<rect x="124.7" y="126.1" class="st12" width="2.6" height="0.9"/>
							<rect x="118.1" y="128.1" class="st12" width="2.6" height="0.9"/>
							<rect x="121.1" y="128.1" class="st12" width="2.6" height="0.9"/>
							<rect x="115.7" y="130" class="st12" width="2.6" height="0.9"/>
							<rect x="121.7" y="131.9" class="st12" width="2" height="0.9"/>
							<rect x="124.2" y="131.9" class="st12" width="3.2" height="0.9"/>
							<rect x="118.7" y="133.8" class="st12" width="3.2" height="0.9"/>
						</g>
					</g>
					<g>
						<g>
							<rect x="121.2" y="118.4" class="st2" width="2.3" height="0.9"/>
							<rect x="122.6" y="120.3" class="st2" width="1.7" height="0.9"/>
							<rect x="115.7" y="122.3" class="st2" width="3.5" height="0.9"/>
							<rect x="121.7" y="124.2" class="st2" width="3.1" height="0.9"/>
							<rect x="125.3" y="124.2" class="st2" width="2" height="0.9"/>
							<rect x="115.7" y="126.1" class="st2" width="2.6" height="0.9"/>
							<rect x="124.2" y="128.1" class="st2" width="2.6" height="0.9"/>
							<rect x="118.7" y="130" class="st2" width="3.2" height="0.9"/>
							<rect x="119.3" y="131.9" class="st2" width="2" height="0.9"/>
							<rect x="122.3" y="133.8" class="st2" width="2.6" height="0.9"/>
						</g>
						<g class="st31">
							<rect x="121.2" y="118.4" width="2.3" height="0.9"/>
							<rect x="122.6" y="120.3" width="1.7" height="0.9"/>
							<rect x="115.7" y="122.3" width="3.5" height="0.9"/>
							<rect x="121.7" y="124.2" width="3.1" height="0.9"/>
							<rect x="125.3" y="124.2" width="2" height="0.9"/>
							<rect x="115.7" y="126.1" width="2.6" height="0.9"/>
							<rect x="124.2" y="128.1" width="2.6" height="0.9"/>
							<rect x="118.7" y="130" width="3.2" height="0.9"/>
							<rect x="119.3" y="131.9" width="2" height="0.9"/>
							<rect x="122.3" y="133.8" width="2.6" height="0.9"/>
						</g>
					</g>
					<rect x="125.3" y="133.8" class="st2" width="1.4" height="0.9"/>
				</g>
			</g>
		</g>
		<g>
			<g>
				<g>
					<rect x="210.4" y="142.3" class="st8" width="2.7" height="12.6"/>
					<rect x="210.4" y="142.3" class="st5" width="2.7" height="12.6"/>
					<path class="st8" d="M214.9,152.4h-6.4c-0.3,0-0.6,0.1-0.8,0.2l-5.1,2.5c-0.8,0.4-1.3,1.3-1.3,2.4l0,0h20.9l0,0
						c0-1-0.5-2-1.3-2.4l-5.1-2.5C215.5,152.4,215.2,152.4,214.9,152.4z"/>
					<path class="st7" d="M214.9,152.4h-6.4c-0.3,0-0.6,0.1-0.8,0.2l-5.1,2.5c-0.8,0.4-1.3,1.3-1.3,2.4l0,0h20.9l0,0
						c0-1-0.5-2-1.3-2.4l-5.1-2.5C215.5,152.4,215.2,152.4,214.9,152.4z"/>
					<rect x="210.4" y="142.3" class="st26" width="2.7" height="4.6"/>
					<rect x="191.8" y="108.7" class="st8" width="39.8" height="35.3"/>
					<rect x="191.8" y="108.7" class="st7" width="39.8" height="35.3"/>
					<g>
						<polygon class="st8" points="231.7,144 233.1,142.4 233.1,110.2 231.7,108.7 						"/>
						<polygon class="st5" points="231.7,144 233.1,142.4 233.1,110.2 231.7,108.7 						"/>
					</g>
					<rect x="193.5" y="110.6" class="st2" width="36.6" height="30.6"/>
					<rect x="193.5" y="110.6" class="st9" width="36.6" height="30.6"/>
				</g>
				<g>
					<path class="st2" d="M226.1,110.5h-0.2H222h-0.2h-3.9h-0.2h-3.9h-0.2h-3.9h-0.2h-3.9h-0.2h-3.9h-0.2h-3.9h-0.2h-4.1v5.1v0.2
						v4.9v0.2v4.9v0.2v4.9v0.2v4.9v0.2v5.1h4.1h0.2h3.9h0.2h3.9h0.2h3.9h0.2h3.9h0.2h3.9h0.2h3.9h0.2h3.9h0.2h4.1v-5.1V136v-4.9
						v-0.2V126v-0.2v-4.9v-0.2v-4.9v-0.2v-5.1C230.1,110.5,226.1,110.5,226.1,110.5z M222,110.7h3.9v4.9H222V110.7z M225.9,120.7
						H222v-4.9h3.9V120.7z M225.9,125.8H222v-4.9h3.9V125.8z M225.9,130.9H222V126h3.9V130.9z M225.9,136.1H222v-4.9h3.9V136.1z
						 M197.6,131.1h3.9v4.9h-3.9V131.1z M197.6,126h3.9v4.9h-3.9V126z M197.6,120.9h3.9v4.9h-3.9V120.9z M197.6,115.8h3.9v4.9h-3.9
						V115.8z M221.8,120.7h-3.9v-4.9h3.9V120.7z M221.8,125.8h-3.9v-4.9h3.9V125.8z M221.8,130.9h-3.9V126h3.9V130.9z M201.7,126
						h3.9v4.9h-3.9V126z M201.7,120.9h3.9v4.9h-3.9V120.9z M217.8,125.8h-3.9v-4.9h3.9V125.8z M213.7,125.8h-3.9v-4.9h3.9V125.8z
						 M209.6,125.8h-3.9v-4.9h3.9V125.8z M205.7,126h3.9v4.9h-3.9V126z M209.8,126h3.9v4.9h-3.9V126z M213.9,126h3.9v4.9h-3.9V126z
						 M217.8,120.7h-3.9v-4.9h3.9V120.7z M213.7,120.7h-3.9v-4.9h3.9V120.7z M209.6,120.7h-3.9v-4.9h3.9V120.7z M205.6,120.7h-3.9
						v-4.9h3.9V120.7z M201.7,131.1h3.9v4.9h-3.9V131.1z M205.7,131.1h3.9v4.9h-3.9V131.1z M209.8,131.1h3.9v4.9h-3.9V131.1z
						 M213.9,131.1h3.9v4.9h-3.9V131.1z M217.9,131.1h3.9v4.9h-3.9V131.1z M217.9,110.7h3.9v4.9h-3.9V110.7z M213.9,110.7h3.9v4.9
						h-3.9V110.7z M209.8,110.7h3.9v4.9h-3.9V110.7z M205.7,110.7h3.9v4.9h-3.9V110.7z M201.7,110.7h3.9v4.9h-3.9V110.7z
						 M197.6,110.7h3.9v4.9h-3.9V110.7z M193.5,110.7h3.9v4.9h-3.9V110.7z M193.5,115.8h3.9v4.9h-3.9V115.8z M193.5,120.9h3.9v4.9
						h-3.9V120.9z M193.5,126h3.9v4.9h-3.9V126z M193.5,131.1h3.9v4.9h-3.9V131.1z M197.4,141.2h-3.9v-4.9h3.9V141.2z M201.5,141.2
						h-3.9v-4.9h3.9V141.2z M205.6,141.2h-3.9v-4.9h3.9V141.2z M209.6,141.2h-3.9v-4.9h3.9V141.2z M213.7,141.2h-3.9v-4.9h3.9V141.2
						z M217.8,141.2h-3.9v-4.9h3.9V141.2z M221.8,141.2h-3.9v-4.9h3.9V141.2z M225.9,141.2H222v-4.9h3.9V141.2z M230,141.2h-3.9
						v-4.9h3.9V141.2z M230,136.1h-3.9v-4.9h3.9V136.1z M230,130.9h-3.9V126h3.9V130.9z M230,125.8h-3.9v-4.9h3.9V125.8z M230,120.7
						h-3.9v-4.9h3.9V120.7z M226.1,115.6v-4.9h3.9v4.9H226.1z"/>
				</g>
				<path class="st12" d="M224.4,114.2h-5.1l-1.2,2.5h-2.5v-1.3h-9.4v6.7h-3.1c-1.3,0-2.4,1.3-2.4,2.8s1.1,2.8,2.4,2.8h3.1v7.4h5.1
					v4.5h2.8v0.1h4.2v-3.3H214v-1.2h1.5v-12.8h2.5l1.2,2.5h5.1l2.6-5.3L224.4,114.2z"/>
				<path class="st8" d="M218.5,139.9h-4.7v-0.1H211v-4.5h-5.1V128h-2.8c-1.4,0-2.6-1.4-2.6-3.1s1.2-3.1,2.6-3.1h2.8V115h9.9v1.3
					h2.1l1.2-2.5h5.4l2.7,5.6l-2.7,5.6h-5.4l-1.2-2.5h-2.1v12.8h-1.5v0.6h4.2L218.5,139.9L218.5,139.9z M214.3,139.4h3.8v-2.7h-4.2
					v-1.8h1.5v-12.8h2.9l1.2,2.5h4.8l2.4-5l-2.4-5h-4.8l-1.2,2.5h-2.9v-1.3h-8.9v6.7h-3.3c-1.2,0-2.1,1.1-2.1,2.6
					c0,1.4,0.9,2.6,2.1,2.6h3.3v7.4h5.1v4.5L214.3,139.4L214.3,139.4L214.3,139.4z"/>
				<g>
					<path class="st8" d="M214.3,131.3h-2.4v-7h2.4V131.3z M212.4,130.7h1.4v-5.9h-1.4V130.7z"/>
				</g>
				<g>
					<path class="st8" d="M223.2,121.3h-2.7v-3.2h2.7V121.3z M221,120.7h1.7v-2.1H221V120.7z"/>
				</g>
			</g>
			<g>
				<polygon class="st2" points="208.7,119.7 208.2,116.8 212.1,119.7 				"/>
				<polygon class="st15" points="208.7,119.7 208.2,116.8 212.1,119.7 				"/>
				<polygon class="st2" points="208.7,119.7 208.2,122.6 212.1,119.7 				"/>
				<polygon class="st28" points="208.7,119.7 208.2,122.6 212.1,119.7 				"/>
			</g>
			<g>
				<g>
					<rect x="195.4" y="132.2" class="st8" width="13.9" height="7.2"/>
					<rect x="195.4" y="132.2" class="st7" width="13.9" height="7.2"/>
					<rect x="195.8" y="133.6" width="13.1" height="5.1"/>
				</g>
				<g>
					<rect x="197.6" y="134.8" class="st2" width="1.9" height="0.7"/>
					<rect x="200.7" y="134.8" class="st2" width="1.1" height="0.7"/>
					<rect x="204.4" y="134.8" class="st2" width="1.9" height="0.7"/>
					<rect x="205.1" y="136.4" class="st2" width="2.1" height="0.7"/>
					<rect x="197.6" y="136.4" class="st2" width="1.9" height="0.7"/>
					<rect x="200.7" y="136.4" class="st2" width="2.3" height="0.7"/>
					<rect x="202.1" y="134.8" class="st2" width="1.9" height="0.7"/>
					<rect x="203.3" y="136.4" class="st2" width="1.4" height="0.7"/>
				</g>
			</g>
		</g>
		<g>
			<g>
				<rect x="167.3" y="139.7" class="st8" width="3.2" height="15"/>
				<rect x="167.3" y="139.7" class="st8" width="3.2" height="15"/>
				<path class="st8" d="M172.8,151.6h-7.6c-0.3,0-0.7,0.1-1,0.2l-6.1,3c-1,0.5-1.6,1.6-1.6,2.8l0,0h24.8l0,0c0-1.2-0.6-2.4-1.6-2.8
					l-6.1-3C173.4,151.7,173.1,151.6,172.8,151.6z"/>
				<rect x="167.3" y="139.7" class="st26" width="3.2" height="4.2"/>
				<rect x="145.3" y="99.6" class="st8" width="47.4" height="42"/>
				<rect x="145.3" y="99.6" class="st16" width="47.4" height="42"/>
				<polygon class="st8" points="192.6,141.7 194.5,139.8 194.5,101.5 192.6,99.6 				"/>
				<g>
					<g>
						<g>
							<polygon class="st2" points="176.9,113.9 161,113.9 147.3,102.5 190.6,102.5 							"/>
							<polygon class="st5" points="176.9,113.9 161,113.9 147.3,102.5 190.6,102.5 							"/>
						</g>
						<g>
							<polygon class="st2" points="176.9,127.3 161,127.3 147.3,138.8 190.6,138.8 							"/>
							<polygon class="st7" points="176.9,127.3 161,127.3 147.3,138.8 190.6,138.8 							"/>
						</g>
						<g>
							<polygon class="st2" points="176.9,127.3 176.9,113.9 190.6,102.5 190.6,138.8 							"/>
							<polygon class="st16" points="176.9,127.3 176.9,113.9 190.6,102.5 190.6,138.8 							"/>
						</g>
						<g>
							<polygon class="st2" points="161,127.3 161,113.9 147.3,102.5 147.3,138.8 							"/>
							<polygon class="st16" points="161,127.3 161,113.9 147.3,102.5 147.3,138.8 							"/>
						</g>
						<g>
							<rect x="161" y="113.9" class="st2" width="16" height="13.4"/>
							<rect x="161" y="113.9" class="st15" width="16" height="13.4"/>
						</g>
					</g>
					<path class="st2" d="M190.6,138.8v-3.3c-1.3-1.2-3.1-2.5-4.2-0.9c-1,1.5-1.3,2.9-1.2,4.2H190.6z"/>
					<path class="st32" d="M183.8,138.8h2.6l1.1-4.8c0,0-2.2-3.7-6.1-5.4c-3.9-1.8-3.1,6.1-1.8,7.4
						C180.3,136.8,182.2,137.9,183.8,138.8z"/>
					<g>
						<polygon class="st8" points="184.9,138.8 184,129.6 182.2,129.6 181.4,138.8 						"/>
						<polygon class="st16" points="184.9,138.8 184,129.6 182.2,129.6 181.4,138.8 						"/>
						<polygon class="st8" points="183.2,138.8 182.4,129.6 180.6,129.6 179.8,138.8 						"/>
						<polygon class="st14" points="183.2,138.8 182.4,129.6 180.6,129.6 179.8,138.8 						"/>
					</g>
					<path class="st32" d="M181.3,129.1c0,0,0.9,0.7,1.2,4.2s-0.8,3.7-1.6,3.2c-0.8-0.4-1.4-0.7-1.4-0.7S178.2,128.3,181.3,129.1z"
						/>
					<path class="st32" d="M184.1,138.6l0.3,0.2h0.9l-0.4-6.6c0,0-2.1-2.4-2.3,1.2C182.4,136.9,184.1,138.6,184.1,138.6z"/>
					<g>
						<polygon class="st8" points="186.6,124.6 178.3,119.5 176.1,119.5 175.4,122.3 175.4,124.6 182.5,131.7 187.6,131.7 
							187.6,128.5 						"/>
						<polygon class="st7" points="186.6,124.6 178.3,119.5 176.1,119.5 175.4,122.3 175.4,124.6 182.5,131.7 187.6,131.7 
							187.6,128.5 						"/>
						<polygon class="st28" points="186.6,124.6 183.5,124.6 182.5,128.5 182.5,131.7 187.6,131.7 187.6,128.5 						"/>
						<polygon class="st26" points="186.1,125.6 183.9,125.6 183.2,128.4 183.2,129.1 186.9,129.1 186.9,128.4 						"/>
						<polygon class="st2" points="183.9,125.6 183.2,128.4 183.2,128.6 186.4,128.6 186.4,127.9 185.8,125.6 						"/>
						<polygon class="st6" points="183.9,125.6 183.2,128.4 183.2,128.6 186.4,128.6 186.4,127.9 185.8,125.6 						"/>
						<polygon class="st7" points="183.5,124.6 186.6,124.6 178.3,119.5 176.1,119.5 						"/>
						<polygon class="st6" points="175.4,122.3 175.4,124.6 182.5,131.7 182.5,128.5 						"/>
						<g>
							<polygon class="st2" points="177.6,123.8 178.2,121.4 178.6,121.7 178,124 							"/>
							<polygon class="st2" points="177,123.2 177.6,121 177.9,121.2 177.3,123.5 							"/>
							<polygon class="st2" points="176.4,122.7 177,120.6 177.3,120.8 176.7,123 							"/>
						</g>
						<g>
							<polygon class="st8" points="178.3,119.2 177.6,117.6 177.3,117.6 177,118.7 177,119.7 177.9,120.2 178.4,120.2 178.4,119.8 
															"/>
							<polygon class="st7" points="178.3,119.2 177.6,117.6 177.3,117.6 177,118.7 177,119.7 177.9,120.2 178.4,120.2 178.4,119.8 
															"/>
							<polygon class="st6" points="178.3,119.2 178.1,119.2 177.9,119.8 177.9,120.2 178.4,120.2 178.4,119.8 							"/>
							<polygon class="st7" points="178.1,119.2 178.3,119.2 178.3,119.2 177.6,117.6 177.3,117.6 							"/>
						</g>
					</g>
					<g>
						<path class="st2" d="M172.5,120.4h-1.2c-0.1-1.3-1-2.3-2-2.4v-1.5h-0.5v1.5c-1.1,0.1-1.9,1.2-2,2.4h-1.2v0.6h1.2
							c0.1,1.3,1,2.3,2,2.4v1.5h0.5v-1.5c1.1-0.1,1.9-1.2,2-2.4h1.2V120.4z M169.2,123v-1.4h-0.5v1.4c-0.9-0.1-1.6-1-1.7-2.1h1.1
							v-0.6H167c0.1-1.1,0.8-1.9,1.7-2.1v1.4h0.5v-1.4c0.9,0.1,1.6,1,1.7,2.1h-1.1v0.6h1.1C170.8,122,170.1,122.9,169.2,123z"/>
						<path class="st6" d="M172.5,120.4h-1.2c-0.1-1.3-1-2.3-2-2.4v-1.5h-0.5v1.5c-1.1,0.1-1.9,1.2-2,2.4h-1.2v0.6h1.2
							c0.1,1.3,1,2.3,2,2.4v1.5h0.5v-1.5c1.1-0.1,1.9-1.2,2-2.4h1.2V120.4z M169.2,123v-1.4h-0.5v1.4c-0.9-0.1-1.6-1-1.7-2.1h1.1
							v-0.6H167c0.1-1.1,0.8-1.9,1.7-2.1v1.4h0.5v-1.4c0.9,0.1,1.6,1,1.7,2.1h-1.1v0.6h1.1C170.8,122,170.1,122.9,169.2,123z"/>
					</g>
				</g>
			</g>
			<g>
				<g class="st10">
					<rect x="157.5" y="107.1" class="st12" width="1.7" height="0.6"/>
					<rect x="151.4" y="107.1" class="st12" width="1.6" height="0.6"/>
					<rect x="153.9" y="107.1" class="st12" width="1.8" height="0.6"/>
					<rect x="156" y="107.1" class="st12" width="1.2" height="0.6"/>
				</g>
				<g class="st10">
					<g>
						<rect x="151.4" y="105.8" class="st12" width="1.6" height="0.6"/>
						<rect x="153.9" y="105.8" class="st12" width="0.9" height="0.6"/>
						<rect x="156.9" y="105.8" class="st12" width="1.6" height="0.6"/>
						<rect x="155.1" y="105.8" class="st12" width="1.6" height="0.6"/>
					</g>
					<g>
						<rect x="153.9" y="108.4" class="st12" width="1.2" height="0.6"/>
						<rect x="155.4" y="108.4" class="st12" width="1.7" height="0.6"/>
						<rect x="157.5" y="108.4" class="st12" width="1.2" height="0.6"/>
						<rect x="151.4" y="108.4" class="st12" width="1.6" height="0.6"/>
					</g>
				</g>
			</g>
		</g>
	</g>
	<g id="Keyboard">
	</g>
	<g id="Computer">
	</g>
</g>
<g id="Character">
	<g>
		<g>
			<g>
				<path class="st8" d="M107.6,99.3c0,0,5.3,1.8,5.2-1.9s-4.6,0.2-5.8-0.8C105.8,95.6,107.6,99.3,107.6,99.3z"/>
				<path class="st33" d="M107.6,99.3c0,0,5.3,1.8,5.2-1.9s-4.6,0.2-5.8-0.8C105.8,95.6,107.6,99.3,107.6,99.3z"/>
			</g>
			<g>
				<polygon class="st32" points="128.9,238 128.3,251.9 124.1,252.3 123,238.1 				"/>
				<g>
					<path class="st2" d="M129.1,251.9c-0.1,0-0.1-0.1-0.1-0.1v-0.1c0.1-0.1,1.6-1.3,2.4-1.1c0.1,0,0.3,0.1,0.4,0.3
						c0.1,0.2,0.1,0.4,0,0.6c-0.2,0.3-0.8,0.5-1.3,0.5C130,252,129.5,251.9,129.1,251.9z M129.4,251.7c0.9,0.1,2-0.1,2.2-0.4
						c0-0.1,0.1-0.1,0-0.3c-0.1-0.1-0.1-0.1-0.2-0.2c-0.1,0-0.1,0-0.2,0C130.5,250.9,129.9,251.2,129.4,251.7z"/>
					<path class="st2" d="M129,251.9l-0.1-0.1c0-0.1,0-1.6,0.6-2.2c0.2-0.2,0.4-0.3,0.6-0.3c0.3,0,0.4,0.2,0.4,0.3
						c0.1,0.6-0.9,1.9-1.4,2.2C129.1,251.9,129.1,251.9,129,251.9L129,251.9z M130.1,249.6c-0.1,0-0.3,0.1-0.4,0.2
						c-0.3,0.5-0.5,1.1-0.5,1.7c0.5-0.4,1.2-1.4,1.2-1.8C130.3,249.6,130.3,249.5,130.1,249.6L130.1,249.6L130.1,249.6z"/>
					<path class="st8" d="M128.5,251.1l-5,0.4c-0.2,0-0.3,0.2-0.4,0.4l-0.6,5c-0.1,0.4,0.2,0.9,0.6,0.9c0.1,0,0.1,0,0.1,0
						c1.8-0.2,3.4-0.4,5.6-0.6c2.6-0.2,2,0.2,5.1,0c1.9-0.1,2.1-2.7,1.3-2.8c-3.7-0.2-4.1-1.5-5.6-3
						C129.3,251.2,128.9,251.1,128.5,251.1z"/>
				</g>
				<polygon class="st26" points="128.5,247.3 123.7,247.3 123.3,241.7 128.8,241.6 				"/>
				<path class="st2" d="M83.7,176.6c0,0-2.5,14.6,7.8,17.4s29.2-0.2,29.2-0.2s-2.2,7.9,2.6,50.9h5.7c0,0,5.3-48.3,1.9-55.8
					S106.7,177.7,83.7,176.6z"/>
				<path d="M83.7,176.6c0,0-2.5,14.6,7.8,17.4s29.2-0.2,29.2-0.2s-2.2,7.9,2.6,50.9h5.7c0,0,5.3-48.3,1.9-55.8
					S106.7,177.7,83.7,176.6z"/>
				<path class="st34" d="M130.4,188c0.2,0.3,0.3,0.5,0.4,0.8c1.7,3.8,1.2,18.1,0.3,31.3c-4.2-16-4-20.1-4-20.1s-2.8-0.2-6.9-0.5
					c0.1-4.5,0.5-5.9,0.5-5.9S127.2,186.2,130.4,188z"/>
				<g>
					<polygon class="st35" points="129.5,242.7 129.2,245.4 123,245.4 122.7,242.8 					"/>
				</g>
			</g>
			<g>
				<polygon class="st32" points="147.1,251.2 143.3,252 141.8,245.8 140.4,239.9 139.7,237.2 145.3,235.5 145.6,237.6 146.3,244.4 
									"/>
				<g>
					<path class="st2" d="M147.6,251.6l-0.1-0.1c0-0.1,0-0.1,0.1-0.1s1.7-1,2.5-0.7c0.1,0.1,0.3,0.2,0.3,0.3c0.1,0.2,0.1,0.4,0,0.6
						c-0.2,0.3-0.8,0.4-1.4,0.3C148.5,251.8,148.1,251.7,147.6,251.6z M148,251.4c0.9,0.2,2,0.3,2.2-0.1c0,0,0.1-0.1,0-0.3
						c0-0.1-0.1-0.2-0.2-0.2c-0.1,0-0.1,0-0.2-0.1C149.1,250.9,148.5,251.1,148,251.4z"/>
					<path class="st2" d="M147.5,251.6c0,0-0.1-0.1,0-0.1c0-0.1,0.2-1.5,0.8-2.1c0.2-0.2,0.4-0.2,0.6-0.2c0.3,0.1,0.4,0.2,0.4,0.4
						c0.1,0.6-1.1,1.7-1.7,2C147.7,251.6,147.6,251.6,147.5,251.6C147.6,251.6,147.6,251.6,147.5,251.6z M148.9,249.4
						c-0.1,0-0.3,0-0.4,0.1c-0.4,0.4-0.6,1-0.7,1.6c0.6-0.4,1.4-1.2,1.4-1.6C149.1,249.6,149.1,249.5,148.9,249.4L148.9,249.4
						L148.9,249.4z"/>
					<path class="st8" d="M147.2,250.8l-5-0.4c-0.2,0-0.4,0.1-0.4,0.4l-1.2,4.8c-0.1,0.4,0.1,0.9,0.4,1c0.1,0,0.1,0,0.1,0
						c1.8,0.1,3.4,0.1,5.7,0.3c2.6,0.2,2,0.5,5.1,0.9c1.9,0.2,2.4-2.4,1.6-2.5c-3.6-0.8-3.9-2.2-5.2-3.9
						C147.9,251,147.6,250.8,147.2,250.8z"/>
				</g>
				<polygon class="st26" points="146.4,244.4 146.3,244.4 141.8,245.8 140.4,239.9 145.6,237.6 145.6,237.6 				"/>
			</g>
			<path d="M86.8,177.4c0,0-1.3,16.4,9.2,16.1s32.2,1.4,32.2,1.4s-0.5,8.4,12.6,48.7l5.5-1.6c0,0-3.9-50-8.7-56.3
				C132.8,179.4,109.4,172,86.8,177.4z"/>
			<polygon class="st35" points="146.8,240 147,242.9 140.4,244.9 139.5,242.2 			"/>
			<path class="st36" d="M111.4,106.5l2,3.4c0,0-0.9,0.9-2.3,0.4L111.4,106.5z"/>
			<path class="st37" d="M110.7,104c0.1,0,0.1,0,0.2-0.1c0.3-0.5,0.8-0.8,1.2-0.8c0.1,0,0.2-0.1,0.2-0.2s-0.1-0.2-0.2-0.2
				c-0.6,0-1.2,0.3-1.6,0.9C110.5,103.8,110.5,103.9,110.7,104L110.7,104C110.6,104,110.6,104,110.7,104z"/>
			<path class="st37" d="M112.5,106c0,0.4-0.2,0.8-0.4,0.8s-0.5-0.3-0.5-0.8c0-0.4,0.2-0.8,0.4-0.8
				C112.2,105.2,112.4,105.5,112.5,106z"/>
			<path class="st32" d="M98,104.1c0.1,6,0,8.5,2.4,11.7c3.7,3.3,9.7,3.3,11.1-2.5c1.2-5.3,0.9-14.1-3.9-16.8c-3.4-1.9-7.4-0.1-9,4
				C98.1,101.6,97.9,102.8,98,104.1z"/>
			<path class="st38" d="M105.6,118v-0.3c0.1-0.7,0.5-1.9,1.1-1.7l2.1,1.3C107.8,117.8,106.7,118,105.6,118z"/>
			<polygon class="st32" points="105.7,116.5 104.3,125.4 97.4,124.3 99.7,115.1 			"/>
			<g>
				<path class="st2" d="M105.5,121.6l2.3-1.6c0,0-7.4-2.9-10.6-1.8s-1.8,2.9-1.8,2.9L105.5,121.6z"/>
				<path class="st28" d="M105.5,121.6l2.3-1.6c0,0-7.4-2.9-10.6-1.8s-1.8,2.9-1.8,2.9L105.5,121.6z"/>
			</g>
			<g>
				<path class="st32" d="M97.1,134.2c0,0,3.2,14.9,4.5,16.3c0.8,0.9,14.9-1,14.9-1l3.9-1.7c0.7-0.3,1.4-0.1,1.9,0.4
					c1.2,1.2,3.2,3.4,3.2,4.7c0,0.5-0.6,1.5-1,1.7c-0.8,0.3-3.1-1.7-3.1-1.7l-5.1,0.5c0,0-12.7,4.6-16.4,4.1
					c-4.3-0.5-8.3-19.2-8.3-19.2L97.1,134.2z"/>
				<path class="st26" d="M97.1,134.2c0,0,3.2,14.9,4.5,16.3c0.8,0.9,14.9-1,14.9-1l3.9-1.7c0.7-0.3,1.4-0.1,1.9,0.4
					c1.2,1.2,3.2,3.4,3.2,4.7c0,0.5-0.6,1.5-1,1.7c-0.8,0.3-3.1-1.7-3.1-1.7l-5.1,0.5c0,0-12.7,4.6-16.4,4.1
					c-4.3-0.5-8.3-19.2-8.3-19.2L97.1,134.2z"/>
				<path class="st2" d="M92.1,123.2c0,0,3.7,0.5,6.4,15.2c0,0-3.4,1.1-6.1,4.1c0,0-2.2-6.7-2.4-10.4
					C89.7,127.3,92.1,123.2,92.1,123.2z"/>
				<path class="st28" d="M92.1,123.2c0,0,3.7,0.5,6.4,15.2c0,0-3.4,1.1-6.1,4.1c0,0-2.2-6.7-2.4-10.4
					C89.7,127.3,92.1,123.2,92.1,123.2z"/>
			</g>
			<path class="st39" d="M112.1,125.8c0,0-4,33.3-4.4,50.7c0,0-9.1,1.3-24.5,1.5c0,0-2.3-53.9,12.2-56.9
				C109,118.3,112.1,125.8,112.1,125.8z"/>
			<path class="st6" d="M108.2,128.9l2.9,5.7c-0.3,2.7-0.6,5.9-1,9.4c-3.2-8.1-2.7-15.1-2.7-15.1L108.2,128.9z"/>
			<g>
				<path class="st32" d="M112.9,127c0,0,5.9,15.6,7.4,16.9c1,0.8,12.1-0.5,12.1-0.5s3.5-3.3,4.9-3.1c1.6,0.2,4.7,3.2,5,5.1
					c0.1,0.5-0.4,1.7-0.8,1.9c-0.8,0.4-2.5-1.1-3.4-1.2c-1.4,0-4,1.1-5.3,1.5c-4.2,1.3-9.4,3.8-13.3,4c-4.6,0.2-11.7-19.3-11.7-19.3
					L112.9,127z"/>
				<path class="st39" d="M108.7,122.3c0,0,3.9-0.2,8.7,14.6c0,0-3.4,1.8-5.8,5.4c0,0-3.2-6.6-3.8-10.3
					C106.8,127,108.7,122.3,108.7,122.3z"/>
			</g>
			<path class="st8" d="M104.3,116.1c0,0,3.2-2.8,3.6-7.9c0,0,0.6-1.8,0.8-3.6c0.2-1.7,0.1-5.6,0.1-5.6s1.6,0.2,1.6-1.7
				c0,0,0.6-3.1-1-5.2s-2.8,1.4-2.8,1.4s-1.3-4-2.8-3.4s-1.4,3.1-1.4,3.1s-3.6-2.3-4.4-0.4s1,3,1,3s-4.1-0.2-3.7,1.8
				c0.4,2.1,1.8,1.9,1.8,1.9s-2.1,0-2.2,2.1s1.5,1.2,1.8,3.8c0.2,2.3,0.7,5.9,2.3,9c0.3,0.6,0.9,1,1.5,1
				C101.2,115.6,102.5,115.7,104.3,116.1z"/>
			<path class="st32" d="M108.2,105.8c0.4,1.1,0.3,2.4-0.1,3.5c-0.6,1.5-1.2,1.1-1.9-0.2c-0.6-1.2-1.1-3.3-0.1-4.4
				C107,103.8,107.7,104.4,108.2,105.8z"/>
			<g>
				<g>
					<g>
						<path class="st2" d="M106.2,96.1c-0.7-1.8-1.8-4-3.3-5.2c0,0-1.9,1.6-2.1,1.7c-0.1-0.1,2.6,2.6,3.2,4.6
							c1.2,3.5,1.2,7.8,1.2,7.8l2.3-0.6C107.5,104.3,107.8,100,106.2,96.1z"/>
					</g>
					<g class="st28">
						<path d="M106.2,96.1c-0.7-1.8-1.8-4-3.3-5.2c0,0-1.9,1.6-2.1,1.7c-0.1-0.1,2.6,2.6,3.2,4.6c1.2,3.5,1.2,7.8,1.2,7.8l2.3-0.6
							C107.5,104.3,107.8,100,106.2,96.1z"/>
					</g>
				</g>
				<g>
					<path class="st2" d="M108.9,102.3L108.9,102.3c2,1.6,2.5,4.8,1.2,7.1c-1.3,2.4-4,3-5.9,1.5c-1.1-0.8-2.1-3.9-0.8-6.3
						C104.8,102.2,106.9,100.7,108.9,102.3z"/>
					<path class="st28" d="M109.5,104.1c1.2,1,1.3,3.2,0.3,5.1c-1,1.8-2.8,2.6-3.9,1.6s-0.9-3.2,0.1-5.1
						C106.8,103.8,108.3,103.1,109.5,104.1z"/>
					<polygon class="st8" points="105.3,107.5 110.3,106.8 110,107.6 105.6,108.3 					"/>
				</g>
			</g>
		</g>
		<g>
			<path class="st8" d="M77.1,243.2c4-0.8,9.8-1.9,12.4-2.1c0.6-0.1,1.3-0.1,2.1-0.1v-24.4h5V241c0.8,0,1.5,0.1,2.1,0.1
				c2.6,0.2,8.5,1.3,12.4,2.1c2.3,0.4,3.9,2.8,3.9,5.6v1.2h-4.8l-0.7-1.7c0,0-9.1-1.9-12.1-2.2c-1.7-0.1-5.1-0.1-6.8,0
				c-3.1,0.3-12.1,2.2-12.1,2.2l-0.7,1.7H73v-1.2C73.1,246.1,74.8,243.7,77.1,243.2z"/>
			<path class="st8" d="M71.8,254.1c0,2.3,1.5,4.1,3.4,4.1s3.4-1.8,3.4-4.1c0-2.3-1.5-4.1-3.4-4.1C73.3,250.1,71.8,251.9,71.8,254.1
				z"/>
			<path class="st7" d="M73.4,254.1c0,1.1,0.8,2,1.7,2c0.9,0,1.7-0.9,1.7-2s-0.8-2-1.7-2C74.2,252.1,73.4,253,73.4,254.1z"/>
			<path class="st8" d="M109.7,254.1c0,2.3,1.5,4.1,3.4,4.1s3.4-1.8,3.4-4.1c0-2.3-1.5-4.1-3.4-4.1
				C111.2,250.1,109.7,251.9,109.7,254.1z"/>
			<path class="st7" d="M111.3,254.1c0,1.1,0.8,2,1.7,2c0.9,0,1.7-0.9,1.7-2s-0.8-2-1.7-2C112.1,252.1,111.3,253,111.3,254.1z"/>
			<rect x="91.6" y="216.6" class="st26" width="5" height="7.4"/>
			<path class="st8" d="M93.7,220.1h0.8c2,0,3.6-1.6,3.6-3.6v-19.8h-8v19.8C90.1,218.5,91.7,220.1,93.7,220.1z"/>
			<path class="st5" d="M93.7,220.1h0.8c2,0,3.6-1.6,3.6-3.6v-19.8h-8v19.8C90.1,218.5,91.7,220.1,93.7,220.1z"/>
			<rect x="90.1" y="196.7" class="st6" width="8" height="5.7"/>
			<path class="st8" d="M67.1,191.9c4.8-1.5,9.7-2.3,14.6-2.4c5.1-0.1,24,0,28.5,0c5.5,0,10.9,0.8,16.2,2.4c3.3,1,2.3,6.8-0.7,6.9
				c-0.3,0-57.5,0-57.7,0C64.8,198.9,63.7,192.9,67.1,191.9z"/>
			<g>
				<path class="st8" d="M57.6,142.2c1.5,0,2.7-1.3,2.8-3l0.7-7.5c0.2-1.7,1.4-3,2.8-3h4.5h3h4.5c1.3,0,2.5,1.1,2.8,2.6l1.6,8.2
					c0.3,1.6,1.4,2.7,2.8,2.7H84c1.4,0,2.7,1.3,2.8,3l4.5,47.1c0.2,2-1.1,3.8-2.8,3.8H84H66.7h-4.5c-1.5,0-2.7-1.3-2.8-3L54.8,146
					C54.6,144,55.9,142.2,57.6,142.2z"/>
				<path class="st5" d="M57.6,142.2c1.5,0,2.7-1.3,2.8-3l0.7-7.5c0.2-1.7,1.4-3,2.8-3h4.5h3h4.5c1.3,0,2.5,1.1,2.8,2.6l1.6,8.2
					c0.3,1.6,1.4,2.7,2.8,2.7H84c1.4,0,2.7,1.3,2.8,3l4.5,47.1c0.2,2-1.1,3.8-2.8,3.8H84H66.7h-4.5c-1.5,0-2.7-1.3-2.8-3L54.8,146
					C54.6,144,55.9,142.2,57.6,142.2z"/>
				<path class="st8" d="M60.5,139.2l0.7-7.5c0.2-1.7,1.4-3,2.8-3h7.5c1.3,0,2.5,1.1,2.8,2.6l1.6,8.2c0.3,1.6,1.4,2.7,2.8,2.7h0.9
					c1.4,0,2.7,1.3,2.8,3l4.5,47.1c0.2,2-1.1,3.8-2.8,3.8H62.2c-1.5,0-2.7-1.3-2.8-3L54.8,146c-0.2-2,1.1-3.8,2.8-3.8l0,0
					C59.1,142.2,60.3,140.9,60.5,139.2z"/>
				<path class="st40" d="M60.5,139.2l0.7-7.5c0.2-1.7,1.4-3,2.8-3h7.5c1.3,0,2.5,1.1,2.8,2.6l1.6,8.2c0.3,1.6,1.4,2.7,2.8,2.7h0.9
					c1.4,0,2.7,1.3,2.8,3l4.5,47.1c0.2,2-1.1,3.8-2.8,3.8H62.2c-1.5,0-2.7-1.3-2.8-3L54.8,146c-0.2-2,1.1-3.8,2.8-3.8l0,0
					C59.1,142.2,60.3,140.9,60.5,139.2z"/>
			</g>
			<path class="st5" d="M124.9,198.6c-9.6-2.9-19.8-2.9-29.4,0c-3.6,1.1-5.2-5.6-1.6-6.8c10.6-3.2,21.9-3.2,32.5,0
				C130.1,193,128.5,199.7,124.9,198.6L124.9,198.6z"/>
			<g>
				<path class="st8" d="M109.7,196.2L109.7,196.2c0.7,0,1.3-0.7,1.3-1.6v-17.9c0-0.9-0.6-1.6-1.3-1.6l0,0c-0.7,0-1.3,0.7-1.3,1.6
					v17.9C108.3,195.5,108.9,196.2,109.7,196.2z"/>
				<path class="st7" d="M109.7,196.2L109.7,196.2c0.7,0,1.3-0.7,1.3-1.6v-17.9c0-0.9-0.6-1.6-1.3-1.6l0,0c-0.7,0-1.3,0.7-1.3,1.6
					v17.9C108.3,195.5,108.9,196.2,109.7,196.2z"/>
				<path class="st6" d="M109.7,175.2c0.7,0,1.3,0.7,1.3,1.6v4.6h-2.6v-4.6C108.3,175.9,108.9,175.2,109.7,175.2z"/>
				<g>
					<path class="st8" d="M123.4,178.7c-10.2,0-17.2,0-27.5,0c-2.5,0-2.5-4.7,0-4.7c10.2,0,17.2,0,27.5,0
						C125.9,174,125.9,178.7,123.4,178.7L123.4,178.7z"/>
				</g>
				<g class="st41">
					<path class="st12" d="M123.4,178.7c-10.2,0-17.2,0-27.5,0c-2.5,0-2.5-4.7,0-4.7c10.2,0,17.2,0,27.5,0
						C125.9,174,125.9,178.7,123.4,178.7L123.4,178.7z"/>
				</g>
				<g>
					<path class="st8" d="M123.4,178.7c-10.2,0-12.7,0-22.9,0c-2.5,0-2.5-4.7,0-4.7c10.2,0,12.7,0,22.9,0
						C125.9,174,125.9,178.7,123.4,178.7L123.4,178.7z"/>
				</g>
				<g class="st11">
					<path class="st12" d="M123.4,178.7c-10.2,0-12.7,0-22.9,0c-2.5,0-2.5-4.7,0-4.7c10.2,0,12.7,0,22.9,0
						C125.9,174,125.9,178.7,123.4,178.7L123.4,178.7z"/>
				</g>
			</g>
			<path class="st26" d="M92.6,242.1h3.1l2.3,4.1c-0.2,0-0.3,0-0.5-0.1c-1.7-0.1-5.1-0.1-6.8,0c-0.2,0-0.3,0-0.5,0.1L92.6,242.1z"/>
			<path class="st8" d="M90.6,254.1c0,2.3,1.5,4.1,3.4,4.1s3.4-1.8,3.4-4.1c0-2.3-1.5-4.1-3.4-4.1S90.6,251.9,90.6,254.1z"/>
			<path class="st7" d="M92.3,254.1c0,1.1,0.8,2,1.7,2c0.9,0,1.7-0.9,1.7-2s-0.8-2-1.7-2C93.1,252.1,92.3,253,92.3,254.1z"/>
			<polygon class="st8" points="92.6,249.7 95.6,249.7 96.3,241.4 91.9,241.4 			"/>
			<polygon class="st16" points="92.6,249.7 95.6,249.7 96.3,241.4 91.9,241.4 			"/>
		</g>
	</g>
</g>
</svg>
