<?xml version="1.0" encoding="utf-8"?>
<!-- Generator: Adobe Illustrator 25.1.0, SVG Export Plug-In . SVG Version: 6.00 Build 0)  -->
<svg version="1.1" id="Layer_1" xmlns="http://www.w3.org/2000/svg" xmlns:xlink="http://www.w3.org/1999/xlink" x="0px" y="0px"
	 viewBox="0 0 300 265" style="enable-background:new 0 0 300 265;" xml:space="preserve">
<style type="text/css">
	.st0{fill:#232051;}
	.st1{fill:#05051E;}
	.st2{fill:#B3BBC1;}
	.st3{fill:#00DFBF;}
	.st4{fill:#94999C;}
	.st5{opacity:0.15;enable-background:new    ;}
	.st6{opacity:0.35;fill:#375A64;enable-background:new    ;}
	.st7{fill:none;stroke:#FFFFFF;stroke-width:1.0239;stroke-miterlimit:10;}
	.st8{opacity:0.35;}
	.st9{fill:#375A64;}
	.st10{opacity:0.4;fill:none;stroke:#FFFFFF;stroke-width:1.0239;stroke-miterlimit:10;enable-background:new    ;}
	.st11{fill:#979F93;}
	.st12{fill:#9D0958;}
	.st13{opacity:0.35;fill:#4D0228;enable-background:new    ;}
	.st14{opacity:0.25;fill:#4D0228;enable-background:new    ;}
	.st15{opacity:0.2;}
	.st16{opacity:0.1;}
	.st17{fill:#000617;}
	.st18{fill:#FFC195;}
	.st19{fill:#001838;}
	.st20{fill:#00061D;}
	.st21{fill:#E7D500;}
	.st22{fill:#020312;}
	.st23{fill:#FFB280;}
	.st24{fill:#030512;}
	.st25{fill:#C76668;}
	.st26{fill:#FF9090;}
	.st27{fill:#D2D3D1;}
	.st28{fill:#424242;}
	.st29{opacity:0.71;fill:#303030;enable-background:new    ;}
	.st30{opacity:0.4;fill:#FFFFFF;enable-background:new    ;}
</style>
<g>
	<path class="st0" d="M97.16,119.77c1.24,9.1,1.58,38.48,1.19,46.8c-0.38,8.32-0.04,14.8-4.59,15.56c-1.68,0.28-5.56,0.27-6.38-1.53
		c-0.97-2.16-2.51-12.11-3.6-17.94C81.74,151.82,79,133.83,79,133.83S84.97,121.52,97.16,119.77z"/>
	<path id="XMLID_101_" class="st1" d="M115.14,231.04c0.27,0.62,0.15,1.76-0.21,2.47c-0.37,0.71-4.21,2.73-9.31,2.24
		c-5.09-0.5-8.54-2.66-10.44-4c-1.91-1.35-3.93-1.65-6.45-1.87s-5.8-1.58-6.32-2.78s0.18-3.21,0.18-3.21L115.14,231.04z"/>
	<path id="XMLID_100_" class="st0" d="M95.98,217.11c0.44-0.16,0.9-0.29,1.37-0.36c0.55-0.08,1.13-0.08,1.66,0.1
		c1.42,0.47,1.6,2.11,2.62,3.02c1.21,1.08,1.64,1.34,3.04,2.15c1.64,0.95,2.18,1.29,3.88,2.11c1.73,0.84,4.05,1.39,5.39,2.36
		c1.96,1.41,2.12,4.81-0.2,6.08c-2,1.1-7.22,2.19-12.6,0.49c-2.93-0.93-6.12-4.19-10-4.6c-2.46-0.27-7.11-1.1-8.65-3.02
		c-0.5-0.76-0.03-2.13,0.17-2.91c0.09-0.34,0.19-0.68,0.29-1.02c0.07-0.24,0.11-0.61,0.28-0.79c0.35-0.37,1.09-0.21,1.51-0.14
		c1.46,0.27,2.98,0.39,4.42,0.03C91.64,219.98,93.62,217.99,95.98,217.11z"/>
	<path class="st2" d="M105.63,233.9c3.6,0.24,6.68-0.54,8.11-1.33c1.93-1.06,2.14-3.59,1.02-5.23c-1.71,2.26-4.37,2.09-5.78,2.59
		c-0.58,0.21-0.34,1.31-0.46,2.48C108.43,233.38,107.29,233.75,105.63,233.9z"/>
	<path class="st2" d="M91.19,177.17c-3.36-0.47-4.06,1.49-4.5,4.16s-3.9,37.68-4.05,39.52s3.1,3.89,6.36,4.56
		c3.34,0.68,5.1-6.76,8.24-7.7c2.52-0.76,2.66,0.81,4.39,2.17l-4.66-41.55L91.19,177.17z"/>
	<path class="st3" d="M94.56,172.02c-4.2-0.08-5.63,4.29-5.49,6.9s1.64,6.25,5.62,5.93C100.06,184.43,99.41,172.29,94.56,172.02z"/>
	<path class="st4" d="M94.56,172.02c-4.2-0.08-5.63,4.29-5.49,6.9s1.64,6.25,5.62,5.93C100.06,184.43,99.41,172.29,94.56,172.02z"/>
	<path class="st0" d="M90.76,188.66l-0.09-0.03c-2.25-0.69-3.66-1.5-4.52-2.66c-0.03,0.28-0.06,0.57-0.09,0.88
		c1.16,1.24,2.78,1.9,4.43,2.4l0.09,0.03c1.08,0.33,1.22,0.37,0.98,5.1c-0.42,8.29-1.52,17.12-2.11,20.75
		c-0.1,0.59-0.31,0.99-0.63,1.19c-0.33,0.21-0.79,0.23-1.37,0.07c-1.49-0.42-3.37-1.13-4.22-1.46c-0.02,0.23-0.04,0.45-0.07,0.67
		c0.92,0.35,2.69,1.01,4.11,1.41c0.31,0.09,0.61,0.13,0.88,0.13c0.39,0,0.73-0.09,1.02-0.28c0.49-0.31,0.8-0.86,0.92-1.64
		c0.59-3.64,1.7-12.5,2.12-20.82C92.44,189.57,92.34,189.14,90.76,188.66z"/>
	<path class="st2" d="M66,125.38c2.97,0,7.72,1.8,10.56,5.46c2.83,3.66,2.61,8.98,2.61,8.98c2.5,0.89,7.09-0.94,9.58-3.22
		c3.1-2.85,5.61-5.73,7.24-9.29c0.83-1.81,1.51-3.69,1.85-5.65c0.33-1.89,0.12-4.42-0.17-6.07c-1.31-7.39-12.15-7.82-17.75-7.83
		c-17.21-0.04-17.36,4-18.84,8.66c-1.24,3.92-2.06,11.48-0.23,11.79C61.54,126.58,63.29,125.38,66,125.38z"/>
	<path class="st5" d="M63.23,113.64c-0.68,2.11,2.37,8.66,16.33,8.68c13.41,0.02,17.08-4.65,16.34-7.69
		c-0.74-3.05-4.05-6.39-15.98-6.39C70.09,108.24,64.54,109.57,63.23,113.64z"/>
	<path class="st0" d="M116.24,101.96c-2.71,0-5.15-0.42-7.05-1.36c-6.89-3.42-9.25-8.92-13.53-18.92c-0.77-1.8-1.62-3.78-2.58-5.95
		c-1.5-3.04-2.36-4.02-2.67-4.31c-0.07,0.01-0.17,0.02-0.3,0.05c-2.3,0.43-4.5-1.08-4.93-3.37s1.08-4.5,3.37-4.93
		c5.93-1.11,9.04,2.59,12.15,8.92c0.02,0.05,0.05,0.1,0.07,0.15c0.99,2.24,1.86,4.27,2.65,6.12c4.11,9.6,5.6,12.73,9.51,14.67
		c3.75,1.86,16.93-1.32,22.12-6.12c1.71-1.59,4.39-1.48,5.97,0.23c1.59,1.71,1.48,4.39-0.23,5.97
		C135.54,97.98,124.61,101.96,116.24,101.96z"/>
	<g>
		<path class="st0" d="M144.19,81.38c-0.05,0-0.1,0-0.16-0.01c-0.71-0.09-1.22-0.73-1.14-1.45c0.22-1.84,0.39-3.06,1.14-4.76
			c0.96-2.2,2.87-3.59,3.65-4.08c0.61-0.39,1.41-0.21,1.79,0.4c0.39,0.61,0.21,1.41-0.4,1.79c-0.92,0.59-2.11,1.67-2.66,2.93
			c-0.57,1.3-0.72,2.18-0.94,4.03C145.4,80.9,144.84,81.38,144.19,81.38z"/>
	</g>
	<g>
		<path class="st0" d="M145.87,84.77c-0.2,0-0.4-0.05-0.6-0.15c-0.64-0.33-0.89-1.11-0.56-1.75c0.85-1.65,1.44-2.73,2.73-4.06
			c1.67-1.73,3.95-2.36,4.85-2.55c0.7-0.15,1.39,0.3,1.54,1s-0.3,1.39-1,1.54c-1.07,0.23-2.56,0.82-3.52,1.82
			c-0.99,1.02-1.43,1.8-2.29,3.45C146.8,84.52,146.34,84.77,145.87,84.77z"/>
	</g>
	<circle class="st2" cx="141.56" cy="86.51" r="7.25"/>
	<g>
		<path class="st0" d="M137.09,85.71c-0.17,0-0.34-0.03-0.51-0.11c-2.27-0.97-3.21-3.22-2.78-6.69c0.09-0.71,0.75-1.21,1.45-1.13
			c0.71,0.09,1.22,0.74,1.13,1.45c-0.36,2.91,0.47,3.66,1.22,3.98c0.66,0.28,0.97,1.05,0.68,1.71
			C138.07,85.42,137.59,85.71,137.09,85.71z"/>
	</g>
	<g>
		<path class="st0" d="M140.65,81.51c-0.56,0-1.08-0.37-1.25-0.93c-0.56-1.89-0.66-3.06-0.65-4.83c0.01-2.49,1.33-4.6,1.73-5.18
			c0.41-0.59,1.22-0.74,1.81-0.33c0.59,0.41,0.74,1.22,0.33,1.81c-0.61,0.89-1.27,2.34-1.27,3.72c-0.01,1.57,0.07,2.48,0.54,4.08
			c0.2,0.69-0.19,1.41-0.88,1.62C140.9,81.49,140.77,81.51,140.65,81.51z"/>
	</g>
	<path class="st0" d="M79.17,139.82c-1.15,10.85-7.5,38.63-10.31,41.3s-7.36,2.67-8.67-2.81s-0.28-44.48,0.66-50.11
		c0.95-5.63,6.57-6.5,11.9-4.24C78.1,126.23,81.51,130.23,79.17,139.82z"/>
	<path class="st1" d="M51.09,233.84c-0.08,1.1-0.03,2.32,0.44,3.08c0.46,0.75,1.78,1.49,2.2,2.7c0.4,1.14,0.11,2.73,0.4,4.09
		c0.25,1.2,0.92,3.64,4.31,5.72c3.4,2.08,8.82,1.79,12.21,1.37c3.4-0.42,5.8-1.89,6.04-3.73s-0.58-3.87-0.58-3.87L51.09,233.84z"/>
	<path class="st0" d="M51.55,227.89c-0.36,3.18-0.76,4.67-0.42,6.18c0.34,1.5,1.89,2.2,2.99,3.83c1.1,1.64-0.71,5.52,3.17,8.56
		s7.81,3.19,12.72,2.82c2.8-0.21,4.57-1.04,5.4-1.8c1.73-1.59,1.62-4.85,0.11-6.36c-0.78-0.78-2.04-1.98-2.74-2.88
		c-0.86-1.1-1.71-2.13-2.76-3.73c-1.92-2.9-2.26-9.74-3.52-11.17C65.22,221.9,53.49,219.37,51.55,227.89z"/>
	<path class="st2" d="M76.1,246.61c-0.02-0.53-0.1-1.09-0.16-1.5c-0.29-1.84-1.3-2.32-3.1-2.32c-1.8,0-7.73,0.25-7.73,2.39
		c0,3.27-2.86,3.72-4.74,3.11c2.93,1.25,6.01,1.26,9.64,0.99c2.8-0.21,4.57-1.04,5.4-1.8C75.72,247.2,75.94,246.94,76.1,246.61z"/>
	<path class="st2" d="M60.19,178.32c-1.8,0.33-2.17,3.19-2.96,7.81c-0.78,4.62-6.67,41.12-6.54,43.07c0.13,1.96,1.92,4.73,3.43,6.06
		c1.5,1.33,3.61,0.18,4.74-3.98c1.49-5.48,6.87-6.19,8.35-2.64c2.05,4.91,2.8,5.87,2.8,5.87s0.96-11.61,0.86-24.31
		c-0.07-8.71-0.09-20.08-0.09-26.22c0-3.92-0.59-4.61-1.42-4.86C67.02,178.39,60.19,178.32,60.19,178.32z"/>
	<path class="st3" d="M65.37,174.53c-5.56-0.92-8.88,11.67-1.81,12.69C70.22,188.18,72,175.63,65.37,174.53z"/>
	<path class="st4" d="M65.37,174.53c-5.56-0.92-8.88,11.67-1.81,12.69C70.22,188.18,72,175.63,65.37,174.53z"/>
	<g>
		<path class="st0" d="M70.51,226.47c-0.93-0.62-1.8-1.5-1.96-2.62c-0.36-2.69-0.5-14.4,0-22.13c0.44-6.77,0.61-8.42,2.23-9.12
			c0-0.23,0-0.46,0-0.69c-2.29,0.85-2.43,2.84-2.88,9.77c-0.52,8.01-0.37,19.54,0,22.26c0.2,1.5,1.4,2.58,2.56,3.29
			C70.49,226.98,70.5,226.72,70.51,226.47z"/>
		<path class="st0" d="M56.66,189.6c-0.04,0.22-0.07,0.45-0.11,0.69c3.61,2.18,3.43,4.11,2.93,9.34c-0.06,0.63-0.13,1.31-0.19,2.04
			c-0.67,7.71-2.66,19.44-3.44,22.62c-0.09,0.38-0.31,0.64-0.66,0.79c-0.87,0.38-2.41,0.07-3.97-0.46
			c-0.03,0.23-0.06,0.45-0.09,0.66c1.07,0.36,2.17,0.62,3.09,0.62c0.46,0,0.88-0.07,1.23-0.22c0.54-0.24,0.88-0.65,1.03-1.23
			c0.89-3.6,2.83-15.45,3.46-22.72c0.06-0.73,0.13-1.4,0.19-2.03C60.65,194.32,60.85,192.06,56.66,189.6z"/>
	</g>
	<path class="st4" d="M89.61,103.71c-4.75-1.55-9.59-7.34-9.59-7.34s6.86-11.73,12.79-7.36C98.74,93.38,98.28,106.54,89.61,103.71z"
		/>
	<path class="st0" d="M92.7,95.22c1.16,7.59-0.27,15.74-1.76,20.37c-0.63,2.21-5.85,3.65-11.93,3.65s-10.62-2.2-11.37-4.31
		s2.31-6.68-2.43-21.45c0,0,7.15-11.1,17.08-8.72C92.22,87.12,92.7,95.22,92.7,95.22z"/>
	<path class="st2" d="M76.46,60.79c-10.04,0.43-18.36,3.84-20.62,8.24c-2.26,4.41-0.84,13.39,2.08,20.18
		c2.01,4.67,5.93,13.22,9.35,15.49c3.42,2.27,8.77,2.55,11.47-1.92c2.7-4.47,7.09-14.47,12.03-9.83c4.47,4.21,4.03,8.76,3.1,9.86
		c-0.24,0.29-0.5,0.51-0.77,0.69l-0.04,1.02c0.87-0.15,1.77-0.58,2.71-1.57c2.98-3.19,4.02-13.69,2.74-24.64
		C97.22,67.36,92.95,60.08,76.46,60.79z"/>
	<path class="st0" d="M57.73,69.16c2.4-2.56,6.19-0.83,8.13,2.43c2.4,4.03,3.13,10.43,0.95,13.75c-2.23,3.41-6.52,1.97-8.76-1.82
		C55.39,79.01,55.7,71.33,57.73,69.16z"/>
	<path class="st0" d="M98.93,83.44c-1.02-0.69-2.31-1.23-3.88-1.59c-1.87-0.43-3.99-0.58-6.21-0.53
		c-0.82-7.74-3.14-13.53-5.29-15.41l-0.43,0.49c1.76,1.54,4.24,6.99,5.09,14.95c-6.55,0.29-13.77,2.38-17.46,4.89
		c-1.98,1.34-3.61,2.85-4.89,4.46c-0.87-3.18-1.3-5.69-1.4-6.34l-0.64,0.1c0.11,0.69,0.57,3.44,1.55,6.88
		c-1.68,2.33-2.62,4.87-2.75,7.49c0.22,0.37,0.43,0.74,0.66,1.1c-0.1-2.69,0.7-5.34,2.33-7.77c1.42,4.75,3.79,10.56,7.49,14.12
		c0.29-0.02,0.57-0.06,0.85-0.11c-3.97-3.53-6.44-9.76-7.86-14.68c1.28-1.71,2.96-3.3,5.04-4.71c3.63-2.46,10.73-4.52,17.16-4.79
		c0.28,2.95,0.32,6.23,0.03,9.77c0.21,0.01,0.42,0.04,0.64,0.1c0.28-3.51,0.23-6.84-0.05-9.89c2.14-0.05,4.2,0.1,6,0.52
		c1.71,0.39,3.07,0.99,4.07,1.78C98.96,84,98.94,83.72,98.93,83.44z"/>
	<path class="st0" d="M43.55,112.92c-0.62,0-1.25-0.05-1.89-0.16c-7.13-1.21-14.47-8.81-18.59-14.95c-1.3-1.94-0.78-4.56,1.15-5.86
		c1.94-1.3,4.56-0.78,5.86,1.15c4.49,6.69,10.04,10.83,12.98,11.33c0.33,0.06,0.74,0.08,0.9-0.04c1.38-1.04,4.56-7.88,7.7-22.45
		C53.6,72.9,54.49,68.78,60,68c2.32-0.33,4.45,1.28,4.78,3.59c0.3,2.12-1.03,4.1-3.04,4.66c-0.49,1.27-1.17,4.41-1.82,7.46
		c-4.94,22.97-9.42,26.32-10.88,27.43C47.47,112.32,45.6,112.92,43.55,112.92z"/>
	<g>
		<path class="st0" d="M23.38,84.93c-0.52,0-1-0.31-1.21-0.82l-0.12-0.29c-0.58-1.45-0.97-2.41-1.32-4.02
			c-0.46-2.09-0.31-4.15,0.38-5.63c0.31-0.65,1.08-0.93,1.73-0.62s0.93,1.08,0.62,1.73c-0.17,0.36-0.69,1.71-0.2,3.97
			c0.3,1.4,0.62,2.18,1.19,3.6l0.12,0.29c0.27,0.67-0.06,1.42-0.72,1.69C23.7,84.9,23.54,84.93,23.38,84.93z"/>
	</g>
	<g>
		<path class="st0" d="M28.37,86.93c-0.25,0-0.51-0.07-0.73-0.23c-0.59-0.41-0.74-1.22-0.34-1.81c0.5-0.73,1.04-1.97-0.03-4.34
			c-0.3-0.65,0-1.42,0.65-1.72c0.65-0.29,1.42,0,1.72,0.65c1.19,2.64,1.12,4.96-0.2,6.88C29.19,86.73,28.79,86.93,28.37,86.93z"/>
	</g>
	<ellipse class="st2" cx="23.75" cy="90.24" rx="7.25" ry="7.25"/>
	<g>
		<path class="st0" d="M19.5,86.13c-0.28,0-0.55-0.09-0.79-0.27c-1.09-0.84-2.06-2.01-3.04-3.7c-1.06-1.83-1.48-3.72-1.23-5.48
			c0.1-0.71,0.77-1.2,1.47-1.1c0.71,0.1,1.2,0.76,1.1,1.47c-0.17,1.17,0.14,2.48,0.91,3.8c0.8,1.39,1.56,2.32,2.37,2.94
			c0.57,0.44,0.68,1.25,0.24,1.82C20.28,85.96,19.89,86.13,19.5,86.13z"/>
	</g>
	<g>
		<path class="st0" d="M18.64,90.9c-0.13,0-0.27-0.02-0.4-0.06c-1.99-0.65-3.04-1.19-4.33-2.25c-1.6-1.32-2.46-2.98-3.03-4.28
			c-0.29-0.66,0.01-1.42,0.67-1.71s1.42,0.01,1.71,0.67c0.48,1.1,1.13,2.36,2.3,3.32c1.02,0.84,1.81,1.24,3.48,1.79
			c0.68,0.22,1.06,0.96,0.83,1.64C19.7,90.56,19.19,90.9,18.64,90.9z"/>
	</g>
	<path class="st0" d="M65.51,39.96c0.21,2.77,1.13,6.04,3.03,8.89c1.64,2.47,3.13,4.58,3.13,7.15s0,6.51,0,6.51S76.23,69,82.82,67.9
		c6.81-1.14,0.08-5.85,0.08-5.85V56.4c0,0,0.82-7.08-3.64-11.6C74.79,40.28,65.51,39.96,65.51,39.96z"/>
	<g id="XMLID_97_">
		<g id="XMLID_98_">
			<path class="st2" d="M65.48,42.04c-0.96-5.3,0.62-10.86,6.96-14.89c6.34-4.02,20.12-1.09,21.69,8.79
				c1.37,8.57,0.51,13.1-0.79,17.79c-0.81,2.93-2.47,5.35-5.19,5.49c-2.58,0.13-6.81-0.15-9.9-1.46c-1.25-0.53-2.31-1.51-3.35-5
				C73.6,48.4,72.08,42.39,65.48,42.04z"/>
		</g>
	</g>
	<path class="st0" d="M78.8,40.48c-3.99-0.49-3.36,1.24-2.62,3.75c0.76,2.61,3.01,4.96,9.23,5.15c4.14,0.13,7.13-0.6,9.24-2.06
		c0.25-2.35,0.27-5.02-0.1-8.37c-1.07,0.72-2.92,1.36-4.68,1.6C86,41.07,82.88,40.99,78.8,40.48z"/>
	<path class="st0" d="M94.26,36.85c-0.04-0.3-0.08-0.59-0.13-0.9c0-0.02-0.01-0.04-0.01-0.07c-0.55,1.04-1.53,1.54-2.55,1.85
		c-0.93-4.36-2.72-7.72-5.36-10.03c-0.85-0.74-1.73-1.32-2.62-1.78c-1.2-0.29-2.42-0.46-3.63-0.5c-2.47,0.6-4.58,1.71-6.29,3.36
		c-0.32,0.3-0.61,0.62-0.89,0.95c-1.5,0.02-2.88,0.28-4.18,0.64c-0.26,0.3-0.51,0.6-0.74,0.91c1.37-0.47,2.82-0.81,4.41-0.89
		c-3.15,4.16-3.56,9.55-3.52,12.43c0.23,0.11,0.45,0.23,0.66,0.35c-0.08-2.78,0.23-8.57,3.7-12.8c1.36,0.01,2.81,0.22,4.38,0.71
		c4.68,1.45,5.67,3.34,6.72,5.33l0.25,0.47c0.79,1.48,2.55,1.93,4.24,1.93c0.85,0,1.68-0.12,2.36-0.27
		c0.32,1.73,0.52,3.61,0.58,5.65c0.25,9.09-1.66,12.83-3.31,14.37c-0.34,0.31-0.67,0.54-0.97,0.7c0.27,0,0.54-0.01,0.79-0.02
		c0.15-0.01,0.3-0.03,0.44-0.05c0.05-0.05,0.1-0.08,0.16-0.13c1.76-1.62,3.8-5.52,3.54-14.89c-0.06-2.09-0.26-4.01-0.6-5.79
		C92.63,38.1,93.58,37.67,94.26,36.85z M85.03,36.57l-0.25-0.46c-1.11-2.12-2.17-4.13-7.1-5.65c-1.43-0.44-2.76-0.66-4.02-0.71
		c0.15-0.16,0.3-0.33,0.46-0.49c1.96-1.88,4.46-3.04,7.47-3.49c1.4,0.49,2.84,1.26,4.19,2.43c2.54,2.22,4.27,5.47,5.16,9.7
		C89.19,38.29,86.04,38.46,85.03,36.57z"/>
	<path class="st2" d="M83.47,45.88c0.59-0.04,1.02-1.37,2.21-1.59c1.2-0.22,1.84,1.36,2.42,1.32c0.58-0.05-0.19-2.76-2.44-2.64
		C83.73,43.07,82.99,45.91,83.47,45.88z"/>
	<path class="st2" d="M92.51,44.59c0.52-0.07,0.82-1.27,1.87-1.53c1.05-0.27,1.71,1.1,2.21,1.03c0.51-0.07-0.33-2.43-2.31-2.2
		C92.58,42.09,92.09,44.65,92.51,44.59z"/>
	<g id="Screen_4_">
		<path id="XMLID_8_" class="st6" d="M142.19,60.64c4.89-3.19,8.94-6.71,12.14-10.48c6.03-7.03,9.12-14.86,9.25-22.68V72.8v1.14
			c-0.2,12.01-7.34,24-21.39,33.16c-8.66,5.65-18.96,9.58-29.9,11.79V72.42C123.22,70.22,133.53,66.28,142.19,60.64z"/>
		<path id="XMLID_7_" class="st7" d="M142.19,60.64c4.89-3.19,8.94-6.71,12.14-10.48c6.03-7.03,9.12-14.86,9.25-22.68V72.8v1.14
			c-0.2,12.01-7.34,24-21.39,33.16c-8.66,5.65-18.96,9.58-29.9,11.79V72.42C123.22,70.22,133.53,66.28,142.19,60.64z"/>
	</g>
	<g id="Screen_1_">
		<g class="st8">
			<path id="XMLID_6_" class="st9" d="M3,50.8v59.86c22.92,10.58,56.68,11.32,78.45,6.95c13.46-2.7,24.61-7.65,34.7-13.46
				c2.59-1.49,4.98-3.06,7.15-4.71V39.61c-2.17,1.62-4.56,3.19-7.15,4.69c-10.08,5.84-22.08,9.87-34.8,12.15
				C64.34,59.51,26.3,59.27,3,50.8z"/>
		</g>
		<g>
			<path id="XMLID_5_" class="st10" d="M3,50.8v59.86c22.92,10.58,56.68,11.32,78.45,6.95c13.46-2.7,24.61-7.65,34.7-13.46
				c2.59-1.49,4.98-3.06,7.15-4.71V39.61c-2.17,1.62-4.56,3.19-7.15,4.69c-10.08,5.84-22.08,9.87-34.8,12.15
				C64.34,59.51,26.3,59.27,3,50.8z"/>
		</g>
	</g>
	<path class="st11" d="M224.19,62.17c-7.37,0-9.58,2.58-12.52,6.78s-12.92,20.08-12.92,20.08l-14.15,5.43l1.86,8.25
		c0,0,11.97-2.39,18.1-3.64c2-0.41,2.9-1.17,3.85-2.61c0.78-1.2,8.65-13.57,8.65-13.57L224.19,62.17z"/>
	<polygon class="st12" points="176.02,81.52 202.5,90.86 209.79,122.37 209.19,123 184.02,113.59 175.43,82.15 	"/>
	<polygon class="st13" points="201.91,91.49 209.19,123 209.79,122.37 202.5,90.86 	"/>
	<polygon id="XMLID_86_" class="st14" points="175.43,82.15 201.91,91.49 209.19,123 184.02,113.59 	"/>
	<g id="XMLID_84_" class="st15">
		<path id="XMLID_85_" d="M187.96,107.19c-0.25,0.62-2.27,1.98-5.21,1.74l-0.5-1.82L187.96,107.19z"/>
	</g>
	<g id="XMLID_82_" class="st16">
		<path id="XMLID_83_" d="M183.41,88.6c0,0-0.1-0.47-0.22-1.06c-0.12-0.58,1.43-0.28,3.47,0.68l4.78,1.45
			c2.04,0.96,3.96,1.68,4.08,2.26l0.22,1.06L183.41,88.6z"/>
	</g>
	<g id="XMLID_80_">
		<path id="XMLID_81_" class="st17" d="M181.83,83.82c-0.08-0.36,0.53-0.29,1.37-0.07l1.52,0.52c0,0-0.62-1.53,2.99-0.55
			c3.97,1.08,4.06,3.06,4.06,3.06s0.45,0.22,1.91,0.7c1.32,0.43,1.46,0.69,1.57,1.06l0.2,0.67l-13.5-4.75
			C181.95,84.45,181.91,84.19,181.83,83.82z"/>
	</g>
	<g id="XMLID_78_">
		<path id="XMLID_79_" class="st17" d="M183.25,85.85c1.25,0.57,1.77,0.84,1.96,1.74c0.21,1.03,0.26,1.46,0.26,1.46l7.03,2.77
			c0,0-0.38-1.51-0.47-2.02c-0.09-0.5,0.84-0.51,2.05,0.05l-0.29-1.26l-10.93-4.06L183.25,85.85z"/>
	</g>
	<g id="XMLID_76_">
		<path id="XMLID_77_" class="st17" d="M183.04,88.62c0,0-0.1-0.47-0.22-1.06c-0.12-0.58,1.43-0.28,3.47,0.68l4.78,1.45
			c2.04,0.96,3.96,1.68,4.08,2.26l0.22,1.06L183.04,88.62z"/>
	</g>
	<g id="XMLID_74_">
		<path id="XMLID_75_" class="st18" d="M178.37,92.93c0,0,0.94,3.46,1.18,4.33c0.25,0.88,4.58,2.87,6.75,3.15
			c4.15,0.52,4.62,1.42,3.62,4.37c-0.92,2.72-3.62,3.74-7.37,3.3c-1.76-0.21-4.19-1.77-5.14-4.49c-1.22-3.47-0.56-7.18-1.04-9.21
			C175.9,92.34,177.32,91.72,178.37,92.93z"/>
	</g>
	<polygon id="XMLID_72_" class="st18" points="252.29,233.52 244.34,233.52 242.75,219.44 252.29,219.44 	"/>
	<polygon id="XMLID_71_" class="st18" points="225.61,219.9 217.14,220.24 217.19,205.66 226.78,205.42 	"/>
	<path id="XMLID_70_" class="st19" d="M251.91,119.56c0.15,7.72,1.79,58.79,1.79,58.79c0.17,1.95,0.87,5.55,1.01,12.58
		c0.21,10.2-1.93,34.42-1.93,34.42c-0.47,2.2-8.7,3.1-9.79,1.11c0,0-4.49-35.13-5.77-45.23c-1.11-8.81-4.78-37.63-4.78-37.63
		l-2.84,28.29c0,0,0.21,3.88-0.22,9.92c-0.33,4.67-2.68,32.23-2.68,32.23c-0.04,1.72-8.59,3.14-10.03,0.6c0,0-2.7-40.23-2.79-44.51
		c-0.09-4.89,0.59-51.12,0.59-51.12L251.91,119.56z"/>
	<path id="XMLID_69_" class="st20" d="M243.88,229.47c0,0-0.13-1.2-0.14-1.2c-0.44-0.01-0.63,0.5-0.81,1.55
		c-0.48,2.82-1.32,4.85-2.11,6.48c-1.35,2.78-2.14,3.93-4.8,7.28c-0.63,0.79-2.06,2.06-2.55,2.94c-0.5,0.88-0.67,3.35,0.17,3.91
		c3.1,2.07,7.82,2.13,11.15,1.15c2.57-0.75,4.3-2.4,4.84-5.44s0.83-4.91,2.37-7.21c0.57-0.84,1.48-1.52,1.87-2.46
		c0.69-1.69,0.14-3.59-0.3-5.27c-0.38-1.45-0.79-3.05-1.29-2.92c0,0.18,0,0.9,0,0.9c-0.6,0.66-2.69,1.32-4.55,1.39
		C246.54,230.61,243.87,230.39,243.88,229.47z"/>
	<path id="XMLID_68_" class="st20" d="M217.14,217.94c-0.21,0.14-0.69,0.7-1.53,1.49c-0.75,0.7-1.48,1.2-2.73,2.14
		c-1.98,1.47-3.75,2.57-6.08,3.87c-2.51,1.4-4.78,2.26-7.78,3.64c-0.31,0.14-0.61,0.31-0.84,0.56c-0.19,0.21-0.3,0.48-0.36,0.75
		c-0.25,1.12,0.38,2.3,1.28,3c0.9,0.71,2.04,1.04,3.16,1.32c2.53,0.64,5.33,0.84,7.86,0.19c2.23-0.58,4.35-1.71,6.29-2.96
		c1.65-1.06,3.42-2.05,5.38-2.35c1.69-0.26,3.77-0.19,5.23-1.21c1.62-1.13,0.96-3.53,0.48-5.59c-0.52-2.25-0.65-5.68-1.68-5.6
		l-0.07,0.9c-0.08,0.97-2.43,1.43-4.26,1.45c-1.51,0.01-4.37-0.37-4.36-1.08C217.14,218.46,217.15,217.94,217.14,217.94z"/>
	<path id="XMLID_67_" class="st17" d="M231.58,132.79c0,0-4.46-1.5-8.68-5.58c0,0,1.38,4.04,7.06,7.37l-0.37,35.24l2.86-26.23
		L231.58,132.79z"/>
	<g id="XMLID_64_">
		<path id="XMLID_65_" class="st21" d="M239.2,61.74c1.44,0.35,5.92,0.95,9.64,2.26c2.52,0.89,4.21,2.88,4.69,3.59
			c2.7,3.94,0.26,12.69-1.72,29.18c0.15,10.65,0.46,23.88,0.46,23.88c-4.9,3.57-27.73,5.99-38.03-1.53c0,0,0.52-31.01,1.65-38.82
			c1.45-9.92,6.35-18.15,11.96-18.76L239.2,61.74z"/>
	</g>
	<path id="XMLID_63_" class="st22" d="M236.69,38.16c-0.14,5.75-4.91,10.29-10.65,10.15c-5.75-0.14-10.29-4.91-10.16-10.65
		c0.14-5.75,4.91-10.29,10.65-10.16C232.28,27.64,236.83,32.41,236.69,38.16z"/>
	<path id="XMLID_62_" class="st22" d="M244.09,45.74c0,0-1.87,7.88-2.58,9.17s-2.11,1.62-2.11,1.62l0.25-5.57L244.09,45.74z"/>
	<path id="XMLID_61_" class="st22" d="M242.25,34.34c0,0,1.82-0.27,3.2,1.21c1.35,1.45,0.47,5.88-1.36,10.18l-3.18,0.29
		L242.25,34.34z"/>
	<path id="XMLID_60_" class="st18" d="M239.96,46c0.63,0.4,1.57-0.81,2.37-1.61c0.8-0.8,3.4-1.86,4.61,0.86
		c1.24,2.78-1.28,6.35-3.31,6.93c-3.5,1.01-3.97-1.23-3.97-1.23l-0.6,14.2l0,0c-2.48,3.03-8.32,3.2-11.21,2.61
		c-2.31-0.47-2.35-2.11-0.07-4.62l0.11-4.07c0,0-3.16,0.4-4.69,0.13c-2.55-0.46-4.12-2.51-4.82-5.3c-1.07-4.26-1.33-9.01-0.26-16.8
		c1.32-9.57,12.54-9.39,18.47-5.46C242.5,35.58,239.96,46,239.96,46z"/>
	<path id="XMLID_59_" class="st22" d="M239.93,47.08c0.32,0.01,1.59-1.98,2.4-2.68c1.12-0.97-0.08-10.06-0.08-10.06
		s1.42-2.53-0.64-4.9c-1.47-1.69-3.52-3.76-10.36-3.12c-4.88,0.46-10.21,1.85-14.44-0.35c-0.7,2.65-0.26,5.63,2.35,7.8
		c0,0,1.53,1.04,5.59,1.63s10.42,0.15,11.29,0.06c1.19-0.13,1.41,1.02,1.97,4.16C238.5,42.36,238.85,47.03,239.93,47.08z"/>
	<path id="XMLID_58_" class="st22" d="M242.22,35.04l3.9-1.97c-0.52-1.12-1.81-1.58-2.89-1.03
		C242.16,32.58,241.7,33.93,242.22,35.04z"/>
	<path id="XMLID_57_" class="st23" d="M227.88,59.07c0,0,5.74-1.01,7.76-2.03c1.35-0.68,2.48-1.88,2.82-2.66
		c0,0-0.41,1.69-1.64,3.18c-1.5,1.83-8.98,3.14-8.98,3.14L227.88,59.07z"/>
	<path id="XMLID_55_" class="st24" d="M229.8,44.61c0.03,0.66,0.57,1.16,1.2,1.13c0.63-0.03,1.12-0.59,1.08-1.25
		c-0.03-0.66-0.57-1.16-1.2-1.13C230.25,43.39,229.77,43.95,229.8,44.61z"/>
	<path id="XMLID_54_" d="M230.54,40.3l2.51,1.22c0.32-0.72,0.02-1.58-0.67-1.92C231.69,39.27,230.86,39.58,230.54,40.3z"/>
	<path id="XMLID_53_" class="st25" d="M229.72,51.92l-4.15,1.14c0.29,1.19,1.46,1.89,2.6,1.58
		C229.32,54.33,230.01,53.11,229.72,51.92z"/>
	<path class="st26" d="M229.72,52.99c-0.23-0.13-0.5-0.22-0.79-0.22c-0.89,0-1.61,0.72-1.61,1.61c0,0.11,0.01,0.21,0.03,0.31
		c0.27,0.04,0.55,0.02,0.83-0.05C228.97,54.42,229.54,53.76,229.72,52.99z"/>
	<path id="XMLID_52_" d="M218.69,41.36l2.67-0.91c-0.23-0.75-1.01-1.16-1.74-0.9C218.88,39.8,218.47,40.61,218.69,41.36z"/>
	<path id="XMLID_51_" class="st24" d="M219.72,44.14c-0.06,0.65,0.4,1.23,1.03,1.29s1.19-0.43,1.25-1.08s-0.4-1.23-1.03-1.29
		C220.34,43.01,219.78,43.49,219.72,44.14z"/>
	<polygon id="XMLID_50_" class="st23" points="226.19,43.64 225.78,50.52 222.19,49.27 	"/>
	<path class="st27" d="M239.21,61.28l-0.11,2.66c0,0-2.59,11.25-3.34,17.15c-1.05,8.22-0.85,31.41-0.29,46.14
		c0.41,10.72,2.01,30.55,2.01,30.55s2.65,0.53,9.04-0.52c5.44-0.9,8.19-2.51,9.36-3.21c0,0-1.01-30.14-1.77-40.66
		c-0.7-9.71-0.68-15.04-0.68-15.04l2.29-22.15c0,0-0.29-12.01-5.68-13.27C244.58,61.63,239.21,61.28,239.21,61.28z"/>
	<path class="st18" d="M252.72,134.61c1.11-1.88,1.16-3.28,2.83-4.96c0.62-0.63,1.05-1.16,1.51-2.51c0.51-1.5,0.48-3.08,0.6-4.72
		l9.66,0.45c-0.07,3.02-0.46,7.5-1.19,10.69c-1.84,8.07-3.61,11.47-7.08,12.25c-5.53,1.25-6.9-1.13-4.95-5.13
		c1.44-2.95,1.77-5.27,1.77-5.27c-0.97,1-1.41,1.46-2.07,1.84c-1.31,0.76-2.32,0.16-2.63-0.29
		C250.94,136.62,251.85,136.09,252.72,134.61z"/>
	<path class="st11" d="M250.04,62.9c0,0,5.23,0.25,8.11,2.84c2.88,2.6,4.41,9.54,6.28,16.49s3.52,13.72,4.01,18.56
		c0.41,4.04-0.94,25.32-0.94,25.32s-5.88,1.24-10.4-1.24l-0.19-23.64l-7.47-23.69C249.46,77.54,247.02,70.46,250.04,62.9z"/>
	<g>
		<path class="st27" d="M227.84,61.28c-0.88,0.08-3.65,0.4-5.33,0.94c-1.86,0.6-2.95,2.13-4.17,4.76
			c-1.79,3.85-3.47,7.79-4.44,25.66c-0.94,17.2-1.54,61.67-1.54,61.67s2.81,1.36,5.81,1.18c0,0,0.43-53.4,1.09-65.55
			c0.75-13.87,3.03-20.81,5.67-24.82c1.28-2.1,2.43-2.91,2.92-3.08L227.84,61.28L227.84,61.28z"/>
	</g>
	<path id="XMLID_45_" class="st28" d="M217.3,48.21c0.81,0.88,1.96,1.38,3.15,1.38l0.44-0.01c1.89,0,2.8-1.14,3.56-2.91
		c0.22-0.51,0.67-1.36,1.25-1.36s1.03,0.85,1.25,1.36c0.77,1.77,2.48,2.91,4.37,2.9h2.51c1.17,0,2.3-0.5,3.08-1.36
		c0.79-0.86,1.19-2.03,1.08-3.19v-0.05c-0.12-1.29-0.26-2.9-0.44-3.83c-0.66-3.38-4.67-4.01-11.87-4c-7.19,0.01-8.43,0.66-9.08,4.03
		c-0.17,0.91-0.31,2.46-0.42,3.71v0.08C216.08,46.14,216.49,47.33,217.3,48.21z M217.46,45.06c0.1-1.2,0.24-2.8,0.4-3.66
		c0.4-2.09,0.1-2.97,7.81-2.98c7.71-0.01,10.2,0.87,10.6,2.95c0.17,0.89,0.31,2.52,0.42,3.75c0.15,1.7-1.19,3.16-2.89,3.16h-2.51
		c-1.4,0-2.63-0.85-3.19-2.13c-0.46-1.06-1.23-2.13-2.43-2.13c-1.21,0.01-1.96,1.07-2.43,2.14c-0.55,1.28-0.98,2.14-2.38,2.14
		l-0.44,0.01C218.69,48.3,217.31,46.8,217.46,45.06z"/>
	<path id="XMLID_44_" class="st29" d="M217.46,45.06c-0.15,1.75,1.23,3.25,2.98,3.25l0.44-0.01c1.4,0,1.83-0.85,2.38-2.14
		c0.46-1.07,1.22-2.13,2.43-2.14c1.21,0,1.97,1.07,2.43,2.13c0.55,1.28,1.79,2.13,3.19,2.13h2.51c1.7-0.01,3.04-1.47,2.89-3.16
		c-0.11-1.23-0.25-2.86-0.42-3.75c-0.4-2.09-2.9-2.97-10.6-2.95c-7.71,0.01-7.41,0.89-7.81,2.98
		C217.71,42.26,217.57,43.86,217.46,45.06z"/>
	<path id="XMLID_35_" class="st30" d="M262.27,25.26c0.07-0.46,0.45-0.62,0.9-0.36l22.82,13.15c0.25,0.15,0.48,0.4,0.64,0.68
		l5.08-2.9c-0.16-0.27-0.38-0.51-0.63-0.65l-22.82-13.15c-0.5-0.29-1.32-0.29-1.83-0.01l-3.26,1.83
		C262.72,24.11,262.33,24.71,262.27,25.26z"/>
</g>
</svg>
