<?xml version="1.0" encoding="utf-8"?>
<!-- Generator: Adobe Illustrator 25.1.0, SVG Export Plug-In . SVG Version: 6.00 Build 0)  -->
<svg version="1.1" xmlns="http://www.w3.org/2000/svg" xmlns:xlink="http://www.w3.org/1999/xlink" x="0px" y="0px"
	 viewBox="0 0 300 265" style="enable-background:new 0 0 300 265;" xml:space="preserve">
<g id="Background_Complete">
	<g>
		<g>
			<g>
				<g>
					<rect x="112.03" y="0.11" style="fill:#FFFFFF;" width="65.61" height="114.76"/>
				</g>
			</g>
			<g>
				<g>
					<g>
						<path style="fill:#E0E0E0;" d="M177.64,114.87c0-0.93-0.04-47.54-0.1-114.76l0.1,0.1c-20.21,0-42.39,0-65.6,0.01h-0.01
							l0.11-0.11c-0.01,43.85-0.02,84.04-0.03,114.76l-0.08-0.08C152.3,114.84,176.96,114.87,177.64,114.87
							c-0.68,0-25.34,0.03-65.61,0.08l-0.08,0v-0.08c-0.01-30.72-0.02-70.91-0.03-114.76V0h0.11h0.01c23.21,0,45.39,0.01,65.6,0.01
							h0.1l0,0.1C177.68,67.34,177.64,113.94,177.64,114.87z"/>
					</g>
				</g>
			</g>
		</g>
		<g>
			<g>
				<path style="fill:#00FFFF;" d="M150.82,23.88v3.05h-11.19V12.99h10.93v3.05h-7.03v2.35h6.19v2.95h-6.19v2.55H150.82z"/>
			</g>
		</g>
		<g>
			<g>
				<path style="fill:#FF00FF;" d="M134.35,34.95v3.07h5.37v2.16h-5.37v4.23h-2.69V32.8h8.78v2.16H134.35z"/>
			</g>
		</g>
		<g>
			<g>
				<path style="fill:#FFFF00;" d="M130.29,50.08h-2.89v-1.7h7.87v1.7h-2.89v7.33h-2.09V50.08z"/>
			</g>
			<g>
				<path style="fill:#00E000;" d="M139.47,52.89c0-2.68,2.09-4.67,4.94-4.67c2.84,0,4.94,1.97,4.94,4.67c0,2.7-2.1,4.67-4.94,4.67
					C141.56,57.56,139.47,55.57,139.47,52.89z M147.24,52.89c0-1.72-1.21-2.89-2.83-2.89c-1.61,0-2.83,1.17-2.83,2.89
					c0,1.72,1.21,2.89,2.83,2.89C146.03,55.78,147.24,54.61,147.24,52.89z"/>
			</g>
			<g>
				<path style="fill:#FF0000;" d="M161.89,55.7v1.7H154v-1.35l4.95-5.97h-4.85v-1.7h7.6v1.35l-4.94,5.97H161.89z"/>
			</g>
		</g>
		<g>
			<g>
				<path style="fill:#007B76;" d="M126.35,60.01h1.31v4.58h2.83v1.07h-4.14V60.01z"/>
			</g>
			<g>
				<path style="fill:#7B00FF;" d="M140.69,62.06c0,1.26-0.94,2.04-2.45,2.04h-1.14v1.56h-1.31v-5.65h2.45
					C139.74,60.01,140.69,60.79,140.69,62.06z M139.36,62.06c0-0.62-0.4-0.98-1.2-0.98h-1.07v1.96h1.07
					C138.96,63.04,139.36,62.67,139.36,62.06z"/>
			</g>
			<g>
				<path style="fill:#FF7D00;" d="M150.63,64.61v1.05h-4.37v-5.65h4.27v1.05h-2.97v1.23h2.62v1.02h-2.62v1.31H150.63z"/>
			</g>
			<g>
				<path style="fill:#966400;" d="M156.24,60.01h2.57c1.85,0,3.12,1.11,3.12,2.83c0,1.71-1.27,2.83-3.12,2.83h-2.57V60.01z
					 M158.74,64.59c1.12,0,1.86-0.67,1.86-1.75s-0.73-1.75-1.86-1.75h-1.19v3.5H158.74z"/>
			</g>
		</g>
		<g>
			<g>
				<path style="fill:#00FFFF;" d="M129.8,71.93c0,0.93-0.7,1.51-1.82,1.51h-0.84v1.15h-0.97v-4.18h1.81
					C129.1,70.41,129.8,70.99,129.8,71.93z M128.82,71.93c0-0.46-0.3-0.73-0.89-0.73h-0.79v1.45h0.79
					C128.52,72.65,128.82,72.39,128.82,71.93z"/>
			</g>
			<g>
				<path style="fill:#FF00FF;" d="M138.86,73.82v0.78h-3.24v-4.18h3.16v0.78h-2.2v0.91h1.94v0.75h-1.94v0.97H138.86z"/>
			</g>
			<g>
				<path style="fill:#0000FF;" d="M142.75,72.51c0-1.26,0.97-2.16,2.27-2.16c0.72,0,1.33,0.26,1.72,0.74l-0.62,0.57
					c-0.28-0.32-0.63-0.49-1.05-0.49c-0.78,0-1.34,0.55-1.34,1.34c0,0.79,0.56,1.34,1.34,1.34c0.42,0,0.77-0.17,1.05-0.5l0.62,0.57
					c-0.39,0.48-1,0.75-1.73,0.75C143.72,74.67,142.75,73.77,142.75,72.51z"/>
			</g>
			<g>
				<path style="fill:#FFFF00;" d="M151.74,71.19v1.11h1.94v0.78h-1.94v1.52h-0.97v-4.18h3.16v0.78H151.74z"/>
			</g>
			<g>
				<path style="fill:#00FF00;" d="M157.97,70.41h1.9c1.37,0,2.31,0.82,2.31,2.09c0,1.27-0.94,2.09-2.31,2.09h-1.9V70.41z
					 M159.83,73.8c0.83,0,1.37-0.5,1.37-1.3c0-0.8-0.54-1.3-1.37-1.3h-0.88v2.59H159.83z"/>
			</g>
		</g>
		<g>
			<g>
				<path style="fill:#006400;" d="M128.95,82.46v0.68h-2.83v-3.66h2.77v0.68h-1.92v0.79h1.7v0.66h-1.7v0.85H128.95z"/>
			</g>
			<g>
				<path style="fill:#E07C00;" d="M132.58,79.48h1.66c1.2,0,2.02,0.72,2.02,1.83c0,1.11-0.82,1.83-2.02,1.83h-1.66V79.48z
					 M134.2,82.44c0.73,0,1.2-0.43,1.2-1.13c0-0.7-0.48-1.14-1.2-1.14h-0.77v2.27H134.2z"/>
			</g>
			<g>
				<path style="fill:#FF0000;" d="M140.71,80.16v0.97h1.69v0.68h-1.69v1.33h-0.85v-3.66h2.77v0.68H140.71z"/>
			</g>
			<g>
				<path style="fill:#455A64;" d="M145.93,81.31c0-1.1,0.85-1.89,1.99-1.89c0.63,0,1.16,0.23,1.51,0.65l-0.54,0.5
					c-0.25-0.28-0.55-0.43-0.92-0.43c-0.69,0-1.17,0.48-1.17,1.17c0,0.69,0.49,1.17,1.17,1.17c0.37,0,0.67-0.15,0.92-0.43l0.54,0.5
					c-0.35,0.42-0.87,0.65-1.51,0.65C146.78,83.2,145.93,82.41,145.93,81.31z"/>
			</g>
			<g>
				<path style="fill:#FF9A6C;" d="M155.92,82.45v0.69h-3.2v-0.55l2.01-2.42h-1.97v-0.69h3.08v0.55l-2,2.42H155.92z"/>
			</g>
			<g>
				<path style="fill:#7A4A45;" d="M162.59,80.81c0,0.82-0.61,1.32-1.59,1.32h-0.74v1.01h-0.85v-3.66H161
					C161.98,79.48,162.59,79.99,162.59,80.81z M161.73,80.81c0-0.4-0.26-0.64-0.78-0.64h-0.69v1.27h0.69
					C161.47,81.44,161.73,81.21,161.73,80.81z"/>
			</g>
		</g>
		<g>
			<g>
				<path style="fill:#0000E0;" d="M157.24,37.44c0,2.59-1.94,4.2-5.04,4.2h-2.34v3.2h-2.69V33.23h5.03
					C155.3,33.23,157.24,34.83,157.24,37.44z M154.52,37.44c0-1.28-0.83-2.02-2.47-2.02h-2.19v4.03h2.19
					C153.69,39.45,154.52,38.7,154.52,37.44z"/>
			</g>
		</g>
		<g>
			<g>
				<rect x="123.91" y="87.1" style="fill:#E0E0E0;" width="41.85" height="2.3"/>
			</g>
		</g>
		<g>
			<g>
				<g>
					<path style="fill:#E0E0E0;" d="M123.63,95.1c14.04,0,28.09,0,42.13,0"/>
				</g>
			</g>
			<g>
				<g>
					<g>
						<path style="fill:#E0E0E0;" d="M165.76,95.1c0,0.06-9.43,0.11-21.07,0.11c-11.64,0-21.07-0.05-21.07-0.11
							c0-0.06,9.43-0.11,21.07-0.11C156.33,94.99,165.76,95.03,165.76,95.1z"/>
					</g>
				</g>
			</g>
		</g>
		<g>
			<g>
				<g>
					<path style="fill:#E0E0E0;" d="M123.63,100.13c14.04,0,28.09,0,42.13,0"/>
				</g>
			</g>
			<g>
				<g>
					<g>
						<path style="fill:#E0E0E0;" d="M165.76,100.13c0,0.06-9.43,0.11-21.07,0.11c-11.64,0-21.07-0.05-21.07-0.11
							c0-0.06,9.43-0.11,21.07-0.11C156.33,100.02,165.76,100.07,165.76,100.13z"/>
					</g>
				</g>
			</g>
		</g>
	</g>
</g>
<g id="Character_2">
	<g>
		<g>
			<g>
				<g>
					<g>
						<path d="M257.09,127.57c-0.31-3.41-1.37-20.04-1.65-22.56c-0.38-3.4-1.77-6.75-4.11-8.97c-2.34-2.22-5.86-3.04-8.55-1.4l0,0
							c-1.8,0.61-3.16,2.25-3.58,4.3c-5.25,25.23-3.19,51.71-4.91,77.62c8.23,1.07,19.19-0.09,27.44-1
							C260.89,154.99,259.12,149.73,257.09,127.57z"/>
					</g>
				</g>
			</g>
		</g>
		<g>
			<g>
				<g>
					<g>
						<g>
							<path style="fill:#455A64;" d="M255.07,162.88c-0.02,0-0.05-0.23-0.09-0.66c-0.04-0.5-0.09-1.13-0.16-1.91
								c-0.12-1.74-0.28-4.12-0.48-7.02c-0.36-6-0.84-14.16-1.37-23.17c-0.24-4.52-0.48-8.83-0.69-12.76
								c-0.1-1.96-0.2-3.82-0.29-5.57c-0.08-1.74-0.19-3.36-0.49-4.78c-0.54-2.9-2.11-4.76-3.41-5.47c-1.32-0.74-2.2-0.54-2.18-0.63
								c0-0.01,0.05-0.02,0.15-0.03c0.1-0.01,0.25-0.03,0.45-0.02c0.39,0.01,0.99,0.11,1.68,0.47c0.69,0.36,1.46,0.98,2.14,1.91
								c0.69,0.93,1.23,2.21,1.55,3.67c0.33,1.46,0.46,3.11,0.57,4.85c0.11,1.75,0.22,3.61,0.34,5.57
								c0.23,3.93,0.47,8.24,0.73,12.76c0.47,9.01,0.9,17.17,1.21,23.18c0.13,2.91,0.23,5.29,0.31,7.03
								c0.02,0.78,0.04,1.41,0.06,1.91C255.09,162.64,255.09,162.87,255.07,162.88z"/>
						</g>
					</g>
				</g>
			</g>
		</g>
	</g>
	<g>
		<g>
			<g>
				<path style="fill:#FF725E;" d="M270.45,264.43l-2.83-40.06l-9.17-51.84c-0.62-9.74-6.27-12.6-13.23-15.38
					c-4.73-1.89-9.07-3.42-9.07-3.42l-8.85-2.22c0,0-9.41,10.2-14.6,17.51l-4.74,22.55l-2.68,23.27
					c-1.2,10.41,1.84,20.88,8.28,28.51l3.01,3.57l-8.85,17.7L270.45,264.43z"/>
			</g>
		</g>
		<g>
			<g>
				<g>
					<path style="fill:#FF725E;" d="M245.87,198.29c9.7,12.23,24.69,29.49,24.69,29.49l-0.35,1.69l-37,9.35l-0.99,25.88
						c0,0,45.45-10.24,53.01-12.21c12.04-3.14,19.45-19.85,11.06-34.77c-6.08-10.82-24.84-35.5-32.08-46.15
						c-2.2-3.24-8.47-11.72-15.97-12.36"/>
				</g>
			</g>
			<g>
				<g>
					<g>
						<path style="fill:#263238;" d="M248.24,159.2c0,0,0.23,0.02,0.68,0.08c0.22,0.04,0.5,0.06,0.83,0.13
							c0.33,0.09,0.7,0.19,1.13,0.3c1.69,0.51,4.1,1.75,6.73,4.06c1.32,1.15,2.68,2.57,4.06,4.25c1.4,1.66,2.71,3.65,4.17,5.74
							c2.93,4.17,6.34,8.85,10.1,14.04c3.75,5.19,7.87,10.87,12.18,17.07c2.15,3.1,4.35,6.34,6.49,9.77
							c1.06,1.72,2.14,3.48,3.01,5.42c0.86,1.93,1.54,4.01,1.95,6.18c0.4,2.17,0.54,4.44,0.38,6.71c-0.16,2.27-0.65,4.53-1.42,6.69
							c-1.56,4.31-4.38,8.18-8.1,10.66c-0.93,0.62-1.91,1.13-2.93,1.58c-1.02,0.41-2.09,0.74-3.15,0.99
							c-2.13,0.53-4.28,1.04-6.45,1.55c-4.34,1.01-8.74,2.03-13.2,3.06c-11.22,2.55-22.11,5.02-32.45,7.37l-0.17,0.04l0.01-0.19
							c0.35-9.02,0.68-17.67,1-25.88l0-0.11l0.09-0.02c13.99-3.52,26.49-6.67,37.01-9.32l-0.07,0.08c0.13-0.61,0.24-1.15,0.35-1.69
							l0.02,0.1c-7.81-9.05-13.99-16.43-18.19-21.55c-2.1-2.56-3.71-4.56-4.8-5.93c-0.54-0.68-0.95-1.2-1.23-1.55
							c-0.27-0.35-0.41-0.54-0.41-0.54s0.15,0.17,0.43,0.52c0.28,0.35,0.7,0.86,1.24,1.53c1.11,1.35,2.73,3.33,4.84,5.89
							c4.23,5.1,10.43,12.45,18.25,21.48l0.04,0.04l-0.01,0.06c-0.11,0.53-0.22,1.07-0.35,1.69l-0.01,0.07l-0.06,0.01
							c-10.51,2.67-23.01,5.83-37,9.38l0.1-0.13c-0.31,8.2-0.64,16.86-0.98,25.88l-0.16-0.15c10.34-2.35,21.22-4.83,32.45-7.38
							c4.45-1.03,8.86-2.05,13.2-3.06c2.17-0.51,4.32-1.02,6.45-1.55c1.07-0.25,2.11-0.57,3.12-0.97c1-0.44,1.97-0.94,2.89-1.56
							c3.67-2.44,6.45-6.26,7.99-10.51c0.76-2.13,1.24-4.36,1.4-6.6c0.16-2.24,0.02-4.48-0.37-6.63c-0.4-2.15-1.07-4.2-1.92-6.12
							c-0.85-1.92-1.93-3.67-2.98-5.39c-2.13-3.43-4.33-6.66-6.47-9.77c-4.3-6.2-8.41-11.89-12.15-17.09
							c-3.75-5.19-7.15-9.89-10.07-14.07c-1.45-2.1-2.76-4.09-4.14-5.75c-1.37-1.67-2.72-3.09-4.03-4.25c-2.61-2.32-5-3.57-6.68-4.1
							c-0.42-0.12-0.8-0.22-1.12-0.32c-0.32-0.08-0.61-0.1-0.83-0.14C248.47,159.25,248.24,159.2,248.24,159.2z"/>
					</g>
				</g>
			</g>
		</g>
		<g>
			<g>
				<g>
					<path style="fill:#263238;" d="M244.81,162.88c0.01,0.02-0.2,0.27-0.6,0.7c-0.2,0.21-0.44,0.48-0.7,0.82
						c-0.26,0.33-0.58,0.69-0.87,1.13c-0.31,0.43-0.65,0.91-0.97,1.45c-0.35,0.52-0.65,1.13-0.99,1.76
						c-0.64,1.28-1.24,2.74-1.73,4.34c-0.47,1.61-0.76,3.19-0.93,4.64c-0.06,0.73-0.14,1.42-0.14,2.07c-0.03,0.65-0.02,1.26,0,1.81
						c0,0.56,0.07,1.05,0.1,1.49c0.03,0.44,0.08,0.82,0.13,1.12c0.09,0.61,0.13,0.96,0.11,0.96c-0.02,0-0.09-0.33-0.21-0.94
						c-0.06-0.3-0.13-0.68-0.17-1.12c-0.05-0.44-0.13-0.94-0.14-1.5c-0.03-0.56-0.06-1.17-0.04-1.83c-0.01-0.66,0.06-1.36,0.12-2.1
						c0.16-1.47,0.45-3.07,0.92-4.7c0.49-1.62,1.11-3.1,1.77-4.39c0.35-0.63,0.67-1.24,1.03-1.76c0.33-0.54,0.68-1.02,1.01-1.44
						c0.31-0.44,0.64-0.79,0.91-1.11c0.27-0.33,0.52-0.58,0.74-0.78C244.56,163.08,244.8,162.86,244.81,162.88z"/>
				</g>
			</g>
		</g>
		<g>
			<g>
				<g>
					<path style="fill:#263238;" d="M277.76,232.63c-0.02,0.04-0.48-0.15-1.22-0.47c-0.74-0.32-1.76-0.76-2.9-1.21
						c-1.14-0.45-2.18-0.84-2.93-1.11c-0.75-0.28-1.22-0.45-1.21-0.49c0.01-0.04,0.49,0.06,1.26,0.29c0.77,0.22,1.83,0.58,2.97,1.03
						c1.14,0.46,2.16,0.93,2.88,1.3C277.34,232.33,277.77,232.59,277.76,232.63z"/>
				</g>
			</g>
		</g>
		<g>
			<g>
				<g>
					<path style="fill:#FFBF9D;" d="M229.76,243.62c-0.3,0.13-22.1,1.28-22.1,1.28l-10.54,3.98l-7.53,6.54c0,0-0.48,1.89,0.66,2.43
						c1.14,0.54,3.01,0,3.01,0s0.54,1.01,1.81,1.08c1.26,0.07,7.11-0.88,7.11-0.88s-0.43,2.16,1.2,2.09
						c1.63-0.07,8.98-2.23,8.98-2.23s14.81,0,15.36-0.61c0.54-0.61,0.9-1.28,0.9-1.28l3.86,2.04l0.58-15.05L229.76,243.62z"/>
				</g>
			</g>
			<g>
				<g>
					<g>
						<path style="fill:#FF9A6C;" d="M202.47,257.53c-0.01-0.05,0.66-0.23,1.65-0.76c1-0.51,2.28-1.44,3.73-2.42
							c1.45-0.98,2.91-1.65,4.02-1.84c0.55-0.1,1.01-0.11,1.32-0.09c0.31,0.03,0.48,0.07,0.48,0.09c0,0.06-0.69-0.04-1.77,0.21
							c-1.08,0.24-2.48,0.92-3.92,1.89c-1.44,0.97-2.76,1.88-3.79,2.35c-0.52,0.24-0.95,0.4-1.25,0.48
							C202.64,257.52,202.47,257.55,202.47,257.53z"/>
					</g>
				</g>
			</g>
			<g>
				<g>
					<g>
						<path style="fill:#FF9A6C;" d="M193.54,258.07c0,0.02-0.21-0.22-0.17-0.74c0.03-0.25,0.12-0.56,0.33-0.85
							c0.21-0.28,0.52-0.52,0.87-0.72c1.43-0.74,3.4-1.72,5.61-2.75c2.21-1.03,4.24-1.87,5.74-2.42c0.75-0.27,1.35-0.48,1.78-0.61
							c0.42-0.13,0.66-0.19,0.67-0.17c0.01,0.02-0.22,0.12-0.63,0.29c-0.46,0.19-1.05,0.42-1.74,0.7c-1.47,0.6-3.49,1.47-5.69,2.5
							c-2.17,1.03-4.14,1.96-5.63,2.67c-0.35,0.18-0.64,0.39-0.84,0.64c-0.2,0.25-0.3,0.52-0.34,0.75
							C193.4,257.81,193.57,258.06,193.54,258.07z"/>
					</g>
				</g>
			</g>
			<g>
				<g>
					<g>
						<path style="fill:#FF9A6C;" d="M190.92,254.08c-0.03-0.08,3.16-1.49,7.11-3.15c3.95-1.66,7.18-2.94,7.2-2.87
							c0.03,0.08-3.15,1.49-7.11,3.15C194.17,252.88,190.95,254.16,190.92,254.08z"/>
					</g>
				</g>
			</g>
		</g>
		<g style="opacity:0.3;">
			<g>
				<g>
					<path d="M246.01,198.31c-0.28,2.36,0.53,5.42,1.62,7.47c1.09,2.05,2.56,3.79,4.03,5.52c3.54,4.17,7.62,7.53,12.57,9.09
						C258.08,212.65,252.16,206.06,246.01,198.31z"/>
				</g>
			</g>
		</g>
		<g style="opacity:0.3;">
			<g>
				<g>
					<path d="M222.03,158.37c0.26,35.55,1.17,71.08,2.73,106.59h-6.75l-0.57-102.09L222.03,158.37z"/>
				</g>
			</g>
		</g>
	</g>
	<g>
		<g>
			<g>
				<g>
					<g>
						<g>
							<g>
								<path d="M232.86,105.76c-0.89-2.61-0.54-5.51-0.89-8.28c-0.77-6.08-5.14-10.96-10.2-13.34c-4.7-2.21-10.45-1.74-16.13,0.31
									c-3.89,1.4-7.55,3.85-10.15,7.38c-3.44,4.69-4.66,11.32-3.15,17.15l27.79-4.49c2.6,2.41,5.26,4.87,8.41,6.22
									c0.93,0.4,1.92,0.69,2.9,0.52c0.98-0.17,1.93-0.92,2.16-1.99C233.86,108.05,233.24,106.89,232.86,105.76z"/>
							</g>
						</g>
					</g>
				</g>
			</g>
		</g>
		<g>
			<g>
				<g>
					<g>
						<g>
							<g>
								<path d="M215.59,82.58c6.08-1.15,11.43,1.48,16.55,5.33c5.12,3.85,8.98,9.65,11.2,16.09c2.34,6.79,2.93,16.6,1.11,23.59
									c-1.81,6.99-6.22,12.09-11.91,14.34c-8.37,3.31-18.03,2.9-25.1-3.1s-11.11-15.92-11.43-25.84
									c-0.23-6.84,1.24-13.84,4.66-19.51C204.09,87.8,209.54,83.57,215.59,82.58"/>
							</g>
						</g>
					</g>
				</g>
			</g>
			<g>
				<g>
					<g>
						<g>
							<path style="fill:#FFBF9D;" d="M206.54,157.16l4.3,1.2l1.53,20.16l22.06-25.22l-0.71-48.65c-0.04-2.63-1.88-4.79-4.22-4.97
								l-24.25-5.79c-7.72-0.59-12.48,10.23-12.68,18.9c-0.22,9.63-0.15,21.39,1.11,28.52c2.53,14.32,12.45,15.74,12.45,15.74"/>
						</g>
					</g>
				</g>
			</g>
			<g>
				<g>
					<g>
						<g>
							<g>
								<g>
									<g>
										<g>
											<g>
												<g>
													<g>
														<g>
															<g>
																<g>
																	<g>
																		<g>
																			<g>
																				<g>
																					<g>
																						<g>
																							<g>
																								<g>
																									<g>
																										<path style="fill:#263238;" d="M195.23,122.58c0,0.98,0.74,1.78,1.65,1.8c0.91,0.02,1.65-0.76,1.65-1.74
																											c0-0.98-0.74-1.78-1.65-1.8C195.97,120.82,195.23,121.6,195.23,122.58z"/>
																									</g>
																								</g>
																							</g>
																						</g>
																					</g>
																				</g>
																			</g>
																		</g>
																	</g>
																</g>
															</g>
														</g>
													</g>
												</g>
											</g>
										</g>
									</g>
								</g>
							</g>
							<g>
								<g>
									<g>
										<g>
											<g>
												<g>
													<g>
														<g>
															<g>
																<g>
																	<g>
																		<g>
																			<g>
																				<g>
																					<g>
																						<g>
																							<g>
																								<g>
																									<g>
																										<g>
																											<path style="fill:#263238;" d="M194.85,117.96c0.21,0.23,1.43-0.86,3.2-0.93
																												c1.77-0.1,3.11,0.87,3.3,0.62c0.09-0.11-0.13-0.54-0.71-0.98c-0.57-0.44-1.54-0.84-2.65-0.79
																												c-1.11,0.05-2.02,0.55-2.54,1.04C194.91,117.41,194.74,117.85,194.85,117.96z"/>
																										</g>
																									</g>
																								</g>
																							</g>
																						</g>
																					</g>
																				</g>
																			</g>
																		</g>
																	</g>
																</g>
															</g>
														</g>
													</g>
												</g>
											</g>
										</g>
									</g>
								</g>
							</g>
						</g>
						<g>
							<g>
								<g>
									<g>
										<g>
											<g>
												<g>
													<g>
														<g>
															<g>
																<g>
																	<g>
																		<g>
																			<g>
																				<g>
																					<g>
																						<g>
																							<g>
																								<g>
																									<g>
																										<path style="fill:#263238;" d="M211.24,122.58c0,0.98,0.74,1.78,1.65,1.8c0.91,0.02,1.65-0.76,1.65-1.74
																											c0-0.98-0.74-1.78-1.65-1.8C211.98,120.82,211.24,121.6,211.24,122.58z"/>
																									</g>
																								</g>
																							</g>
																						</g>
																					</g>
																				</g>
																			</g>
																		</g>
																	</g>
																</g>
															</g>
														</g>
													</g>
												</g>
											</g>
										</g>
									</g>
								</g>
							</g>
							<g>
								<g>
									<g>
										<g>
											<g>
												<g>
													<g>
														<g>
															<g>
																<g>
																	<g>
																		<g>
																			<g>
																				<g>
																					<g>
																						<g>
																							<g>
																								<g>
																									<g>
																										<g>
																											<path style="fill:#263238;" d="M211.71,117.49c0.21,0.23,1.43-0.86,3.21-0.93
																												c1.77-0.1,3.11,0.87,3.3,0.62c0.09-0.11-0.13-0.54-0.72-0.98c-0.57-0.44-1.54-0.85-2.65-0.79
																												c-1.11,0.05-2.02,0.55-2.54,1.04C211.78,116.95,211.61,117.39,211.71,117.49z"/>
																										</g>
																									</g>
																								</g>
																							</g>
																						</g>
																					</g>
																				</g>
																			</g>
																		</g>
																	</g>
																</g>
															</g>
														</g>
													</g>
												</g>
											</g>
										</g>
									</g>
								</g>
							</g>
						</g>
						<g>
							<g>
								<g>
									<g>
										<g>
											<g>
												<g>
													<g>
														<g>
															<g>
																<g>
																	<g>
																		<g>
																			<g>
																				<g>
																					<g>
																						<g>
																							<g>
																								<g>
																									<g>
																										<path style="fill:#263238;" d="M206.36,132.61c0-0.11-1.11-0.28-2.9-0.46c-0.46-0.03-0.89-0.12-0.98-0.46
																											c-0.12-0.36,0.05-0.92,0.25-1.52c0.39-1.25,0.79-2.55,1.21-3.92c1.68-5.58,2.87-10.17,2.67-10.24
																											c-0.2-0.07-1.73,4.39-3.4,9.98c-0.4,1.38-0.79,2.69-1.15,3.94c-0.15,0.58-0.43,1.25-0.17,2
																											c0.13,0.37,0.48,0.64,0.77,0.71c0.29,0.09,0.55,0.08,0.77,0.09
																											C205.24,132.76,206.36,132.73,206.36,132.61z"/>
																									</g>
																								</g>
																							</g>
																						</g>
																					</g>
																				</g>
																			</g>
																		</g>
																	</g>
																</g>
															</g>
														</g>
													</g>
												</g>
											</g>
										</g>
									</g>
								</g>
							</g>
						</g>
						<g>
							<g>
								<g>
									<g>
										<g>
											<g>
												<g>
													<g>
														<g>
															<g>
																<g>
																	<g>
																		<g>
																			<g>
																				<g>
																					<g>
																						<g>
																							<g>
																								<g>
																									<path style="fill:#FF9A6C;" d="M207.73,136.89c0.76-0.87,1.47-1.08,2.59-1c0.77,0.06,1.15,0.49,1.64,1.18
																										c0.49,0.68,0.56,2.06,0.16,2.75c-0.45,0.77-1.45,0.99-2.31,0.76c-0.86-0.23-1.46-0.52-2.17-1.12
																										c-0.2-0.16-0.34-0.54-0.4-0.8C207.04,137.85,207.59,137.09,207.73,136.89"/>
																								</g>
																							</g>
																						</g>
																					</g>
																				</g>
																			</g>
																		</g>
																	</g>
																</g>
															</g>
														</g>
													</g>
												</g>
											</g>
										</g>
									</g>
								</g>
							</g>
						</g>
					</g>
				</g>
				<g>
					<g>
						<g>
							<g>
								<g>
									<g>
										<g>
											<g>
												<g>
													<g>
														<g>
															<g>
																<g>
																	<g>
																		<g>
																			<g>
																				<g>
																					<g>
																						<path style="fill:#263238;" d="M210.4,111.18c0.19,0.53,1.96,0.2,4.05,0.4c2.1,0.15,3.8,0.76,4.06,0.26
																							c0.12-0.24-0.19-0.73-0.89-1.23c-0.69-0.49-1.78-0.95-3.04-1.05c-1.26-0.1-2.39,0.17-3.14,0.55
																							C210.68,110.49,210.31,110.93,210.4,111.18z"/>
																					</g>
																				</g>
																			</g>
																		</g>
																	</g>
																</g>
															</g>
														</g>
													</g>
												</g>
											</g>
										</g>
									</g>
								</g>
							</g>
						</g>
					</g>
				</g>
				<g>
					<g>
						<g>
							<g>
								<g>
									<g>
										<g>
											<g>
												<g>
													<g>
														<g>
															<g>
																<g>
																	<g>
																		<g>
																			<g>
																				<g>
																					<g>
																						<path style="fill:#263238;" d="M195.07,112.98c0.33,0.44,1.54-0.08,3.01-0.17c1.47-0.14,2.73,0.19,3-0.3
																							c0.12-0.23-0.09-0.68-0.65-1.08c-0.55-0.4-1.46-0.71-2.47-0.64c-1.01,0.08-1.87,0.52-2.37,1.01
																							C195.08,112.29,194.92,112.76,195.07,112.98z"/>
																					</g>
																				</g>
																			</g>
																		</g>
																	</g>
																</g>
															</g>
														</g>
													</g>
												</g>
											</g>
										</g>
									</g>
								</g>
							</g>
						</g>
					</g>
				</g>
				<g>
					<g>
						<g>
							<g>
								<g>
									<g>
										<path d="M237.31,101.57c-2.51-8.27-13.47-19.56-21.24-18.79l-12.29,8.61c0.83,4.73,4.17,8.79,8.31,10.1
											c2.21,0.7,4.86,0.85,6.2,2.94c1.37,2.13,0.64,5.3,1.92,7.5c1.77,3.05,6.47,2.81,7.82,6.12c0.59,1.45,0.32,3.2,0.93,4.63
											c0.81,1.91,5.22,4.27,7.01,3.59c1.79-0.68,1.74-4.12,2.3-5.93c0.96-3.1,0.51-4.69,0.15-6.4
											C237.57,109.89,238.5,105.52,237.31,101.57z"/>
									</g>
								</g>
							</g>
						</g>
					</g>
				</g>
				<g>
					<g>
						<g>
							<g>
								<g>
									<g>
										<g>
											<g>
												<g>
													<path style="fill:#FFBF9D;" d="M230.68,128.09c-0.03-1.07,0.99-3.65,1.93-3.86c2.51-0.55,7.08-0.51,7.36,6.67
														c0.39,9.82-8.5,8.23-8.53,7.95C231.42,138.64,230.79,131.8,230.68,128.09z"/>
												</g>
											</g>
										</g>
									</g>
								</g>
							</g>
						</g>
					</g>
				</g>
				<g>
					<g>
						<g>
							<g>
								<g>
									<g>
										<g>
											<g>
												<g>
													<g>
														<path style="fill:#FF9A6C;" d="M233.97,135.01c0.04-0.03,0.16,0.11,0.42,0.23c0.26,0.12,0.69,0.18,1.14-0.03
															c0.91-0.43,1.63-2.11,1.6-3.89c-0.01-0.9-0.21-1.74-0.52-2.43c-0.3-0.71-0.73-1.19-1.2-1.26
															c-0.47-0.1-0.79,0.23-0.88,0.51c-0.11,0.28-0.04,0.47-0.09,0.49c-0.02,0.03-0.19-0.15-0.14-0.56
															c0.03-0.2,0.12-0.43,0.32-0.63c0.2-0.2,0.51-0.31,0.84-0.29c0.68,0.02,1.31,0.69,1.66,1.44
															c0.38,0.76,0.62,1.71,0.64,2.71c0.02,1.98-0.81,3.88-2.06,4.35c-0.61,0.21-1.13,0.03-1.41-0.19
															C234,135.25,233.94,135.03,233.97,135.01z"/>
													</g>
												</g>
											</g>
										</g>
									</g>
								</g>
							</g>
						</g>
					</g>
				</g>
			</g>
			<g>
				<g>
					<g>
						<g>
							<g>
								<g>
									<path style="fill:#FF725E;" d="M245.26,114.66c0.06,0.01,0.3-1.1,0.33-2.95c0.04-1.84-0.2-4.41-1-7.09
										c-0.81-2.68-2-4.89-3.02-6.33c-1.02-1.45-1.81-2.18-1.85-2.13c-0.16,0.13,2.78,3.39,4.32,8.67
										C245.65,110.08,245.06,114.67,245.26,114.66z"/>
								</g>
							</g>
						</g>
					</g>
				</g>
			</g>
			<g>
				<g>
					<g>
						<g>
							<g>
								<path d="M206.33,88.43c-0.81,4-6.25,9.12-8.63,12.23c-4.55,5.93-5.21,7.11-5.17,25.01c-2.14-4.59-4.03-12.91-3.86-18.08
									c0.17-5.17,1.88-10.36,5.1-14.08C196.98,89.78,201.75,87.68,206.33,88.43"/>
							</g>
						</g>
					</g>
				</g>
			</g>
			<g>
				<g>
					<g>
						<g>
							<path style="fill:#455A64;" d="M241.78,101.45c0.01,0.04-0.52,0.18-1.49,0.41c-0.48,0.12-1.08,0.25-1.78,0.34
								c-0.7,0.1-1.49,0.25-2.37,0.3c-1.76,0.19-3.88,0.21-6.22,0.06c-2.34-0.19-4.9-0.59-7.53-1.29c-2.63-0.74-5.06-1.71-7.22-2.74
								c-2.14-1.08-4-2.2-5.49-3.27c-0.76-0.5-1.4-1.05-1.98-1.5c-0.58-0.44-1.05-0.87-1.43-1.22c-0.76-0.7-1.18-1.11-1.15-1.14
								c0.02-0.03,0.48,0.31,1.28,0.95c0.4,0.33,0.88,0.72,1.48,1.14c0.59,0.42,1.24,0.94,2.01,1.41c1.5,1.02,3.36,2.09,5.49,3.13
								c2.14,1,4.55,1.94,7.15,2.67c2.6,0.7,5.13,1.11,7.44,1.33c2.31,0.18,4.41,0.19,6.16,0.06c0.88-0.02,1.67-0.15,2.36-0.22
								c0.7-0.06,1.29-0.16,1.78-0.24C241.23,101.48,241.77,101.41,241.78,101.45z"/>
						</g>
					</g>
				</g>
			</g>
			<g>
				<g>
					<g>
						<g>
							<path style="fill:#455A64;" d="M242.69,108.5c0.01,0.04-0.36,0.14-1.02,0.28c-0.66,0.15-1.63,0.29-2.83,0.4
								c-2.4,0.22-5.76,0.16-9.38-0.64c-3.62-0.81-6.75-2.18-8.9-3.4c-1.07-0.61-1.92-1.15-2.48-1.57
								c-0.56-0.41-0.87-0.65-0.85-0.69c0.05-0.09,1.32,0.77,3.49,1.89c2.17,1.12,5.27,2.4,8.84,3.2c3.57,0.78,6.88,0.91,9.26,0.8
								C241.2,108.65,242.67,108.4,242.69,108.5z"/>
						</g>
					</g>
				</g>
			</g>
			<g>
				<g>
					<g>
						<g>
							<g>
								<path style="fill:#455A64;" d="M244.93,108.74c0.03-0.01,0.15,0.51,0.28,1.47c0.14,0.95,0.26,2.35,0.35,4.07
									c0.08,1.73,0.11,3.79,0.02,6.07c-0.11,2.28-0.28,4.8-0.81,7.38c-1.13,5.2-3.89,9.07-6.29,10.99
									c-1.2,0.98-2.27,1.57-3.02,1.93c-0.75,0.36-1.18,0.51-1.19,0.47c-0.02-0.04,0.39-0.26,1.11-0.69
									c0.72-0.42,1.75-1.06,2.89-2.06c1.15-0.99,2.38-2.4,3.45-4.24c1.04-1.86,2.09-4.02,2.56-6.55c0.52-2.52,0.71-5.01,0.84-7.26
									c0.12-2.26,0.12-4.31,0.09-6.02c-0.04-1.71-0.11-3.1-0.19-4.06C244.94,109.28,244.89,108.75,244.93,108.74z"/>
							</g>
						</g>
					</g>
				</g>
			</g>
		</g>
		<g>
			<g>
				<g>
					<path style="fill:#263238;" d="M211.68,134.7c0.11,0.01,0.18,0.51,0.03,1.3c-0.14,0.78-0.54,1.85-1.31,2.77
						c-0.77,0.92-1.72,1.42-2.42,1.6c-0.71,0.18-1.16,0.08-1.17-0.04c-0.01-0.13,0.39-0.27,0.98-0.58c0.59-0.31,1.35-0.82,2.01-1.61
						C211.15,136.55,211.44,134.65,211.68,134.7z"/>
				</g>
			</g>
		</g>
		<g>
			<g>
				<g>
					<path d="M243.95,156.93c2.62-6.71,0.86-13.5,1.99-20.41l-10.43,4.34c-1.36,10.98-5.91,21.14-8.03,31.96
						c-2.13,10.82-1.18,23.65,6.39,30.77c3.08-2.21,6.16-4.42,9.25-6.63c-5.72-3.54-8.86-13.81-7.26-20.91
						C237.46,168.96,241.33,163.64,243.95,156.93z"/>
				</g>
			</g>
			<g>
				<g>
					<g>
						<path style="fill:#455A64;" d="M248.97,121.96c0,0,0.02,0.07,0.05,0.21c0.03,0.15,0.07,0.36,0.13,0.61
							c0.06,0.27,0.12,0.6,0.16,1.01c0.03,0.2,0.05,0.42,0.08,0.65c0.01,0.23,0.03,0.48,0.05,0.74c0.15,2.09-0.09,5.19-1.19,8.75
							c-0.54,1.78-1.28,3.67-2.23,5.61c-0.95,1.94-2.09,3.91-3.22,6.04c-2.28,4.24-4.68,8.98-6.81,14.17
							c-1.09,2.58-2.15,5.11-2.99,7.63c-0.85,2.51-1.47,5.02-1.73,7.47c-0.29,2.45-0.45,4.8-0.29,6.98
							c0.13,2.19,0.63,4.17,1.31,5.88c0.67,1.71,1.47,3.15,2.22,4.37c0.75,1.22,1.46,2.23,2.05,3.04c0.58,0.8,1.04,1.42,1.36,1.87
							c0.15,0.2,0.27,0.36,0.35,0.49c0.08,0.11,0.12,0.17,0.11,0.17c0,0-0.05-0.05-0.13-0.15c-0.09-0.12-0.22-0.27-0.37-0.47
							c-0.33-0.41-0.81-1.02-1.4-1.83c-0.6-0.81-1.32-1.8-2.09-3.02c-0.77-1.22-1.59-2.66-2.27-4.38c-0.69-1.71-1.21-3.73-1.35-5.94
							c-0.17-2.21-0.02-4.58,0.27-7.04c0.26-2.47,0.88-5.01,1.73-7.54c0.85-2.53,1.91-5.07,3-7.65c2.14-5.2,4.55-9.94,6.84-14.18
							c1.13-2.13,2.28-4.1,3.23-6.02c0.95-1.92,1.69-3.8,2.24-5.56c1.11-3.53,1.37-6.59,1.26-8.67c-0.01-0.26-0.02-0.51-0.03-0.74
							c-0.02-0.23-0.05-0.44-0.07-0.64c-0.04-0.4-0.08-0.74-0.13-1.01c-0.04-0.26-0.07-0.46-0.1-0.62
							C248.98,122.04,248.97,121.97,248.97,121.96z"/>
					</g>
				</g>
			</g>
		</g>
	</g>
</g>
<g id="Character_1">
	<g>
		<g>
			<g>
				<path style="fill:#FFBF9D;" d="M93.49,120.24c0,0,1.42,18.69,1.75,20.93c0.33,2.24,6.01,9.66,6.01,9.66v9.06l15.46,6.19
					l-1.61-18.84c0,0,1.84-5.7,1.59-8.69c-0.25-2.99-2.84-21.4-2.84-21.4l-4.34-6.73c0,0-1.08-3.08-3.17-1.87
					c-2.09,1.21-1.24,3.64-1.24,3.64s0.07-5.61-2.6-5.79c-2.67-0.19-2.75,2.06-2.75,3.36c0,1.31-0.67,5.7-0.67,5.7
					s-0.25-6.26-1.25-6.82c-1-0.56-1.92-0.37-2.75,1.03c-0.83,1.4-1.42,2.62-1.17,4.95c0.25,2.34,0.42,4.95,0.42,4.95L93.49,120.24z
					"/>
			</g>
		</g>
		<g>
			<g>
				<g>
					<path style="fill:#FF9A6C;" d="M109.52,141.81c-0.01,0-0.04-0.1-0.08-0.29c-0.05-0.22-0.1-0.5-0.17-0.83
						c-0.21-0.7-0.49-1.74-1.18-2.83c-0.16-0.28-0.37-0.54-0.56-0.83c-0.21-0.28-0.45-0.54-0.69-0.82
						c-0.52-0.52-1.09-1.06-1.78-1.49c-0.67-0.45-1.42-0.84-2.24-1.11c-0.81-0.27-1.7-0.46-2.59-0.39l-0.16,0.01l0.01-0.18
						c0.01-0.16,0.02-0.33,0.03-0.5c0.09-2.1-0.28-4.09-0.69-5.85c-0.22-0.88-0.4-1.73-0.7-2.46c-0.29-0.73-0.66-1.37-1.05-1.9
						c-0.78-1.06-1.66-1.64-2.3-1.92c-0.64-0.27-1.03-0.31-1.02-0.34c0-0.01,0.1,0,0.28,0.02c0.18,0.02,0.45,0.08,0.78,0.21
						c0.66,0.24,1.58,0.82,2.41,1.89c0.41,0.53,0.79,1.18,1.11,1.93c0.32,0.75,0.51,1.61,0.74,2.49c0.43,1.77,0.81,3.79,0.72,5.94
						c-0.01,0.18-0.02,0.35-0.03,0.52l-0.15-0.17c0.95-0.07,1.86,0.13,2.69,0.41c0.84,0.28,1.61,0.7,2.29,1.16
						c0.7,0.45,1.28,1.01,1.8,1.55c0.24,0.29,0.48,0.57,0.69,0.85c0.19,0.3,0.4,0.57,0.56,0.86c0.68,1.13,0.93,2.21,1.12,2.92
						c0.05,0.34,0.09,0.62,0.13,0.85C109.52,141.71,109.53,141.81,109.52,141.81z"/>
				</g>
			</g>
		</g>
	</g>
	<g>
		<g>
			<g>
				<rect x="134.03" y="217.52" style="fill:#E0E0E0;" width="2.64" height="9.85"/>
			</g>
		</g>
		<g>
			<g>
				<path style="fill:#455A64;" d="M137.81,220.85h-4.91v-17.2c0-1.35,1.09-2.44,2.44-2.44h0.03c1.35,0,2.44,1.09,2.44,2.44V220.85z
					"/>
			</g>
		</g>
		<g>
			<g>
				<rect x="144.43" y="139.78" style="fill:#455A64;" width="7.96" height="34.96"/>
			</g>
		</g>
		<g>
			<g>
				<g>
					<rect x="104.34" y="99.27" style="fill:#E0E0E0;" width="52.83" height="2.68"/>
				</g>
			</g>
			<g>
				<g>
					<g>
						<path style="fill:#263238;" d="M157.17,101.94c0,0,0-0.06-0.01-0.17c0-0.12-0.01-0.28-0.01-0.49c0-0.45-0.01-1.11-0.02-2.01
							l0.04,0.04c-6.4,0.06-27.65,0.11-52.83,0.11h0h0h0h0h0l0.14-0.15c0,0.92,0,1.83,0,2.68l-0.14-0.15
							c14.69,0.02,27.87,0.05,37.4,0.06c4.76,0.02,8.61,0.04,11.28,0.05c1.33,0.01,2.36,0.02,3.07,0.02c0.34,0,0.61,0.01,0.8,0.01
							C157.07,101.93,157.17,101.94,157.17,101.94s-0.09,0.01-0.26,0.01c-0.19,0-0.45,0.01-0.78,0.01
							c-0.71,0.01-1.73,0.01-3.04,0.02c-2.66,0.01-6.5,0.03-11.25,0.05c-9.55,0.02-22.77,0.04-37.5,0.06l-0.14,0v-0.15
							c0-0.85,0-1.76,0-2.68l0.14-0.15h0h0h0h0c25.18,0,46.43,0.05,52.83,0.11l0.04,0l0,0.04c-0.01,0.91-0.02,1.58-0.02,2.04
							c0,0.21-0.01,0.37-0.01,0.48C157.18,101.89,157.17,101.94,157.17,101.94z"/>
					</g>
				</g>
			</g>
		</g>
		<g>
			<g>
				<rect x="117.79" y="115.84" style="fill:#455A64;" width="4.71" height="11.33"/>
			</g>
		</g>
		<g>
			<g>
				<rect x="119.7" y="111.02" style="fill:#263238;" width="21.27" height="1.41"/>
			</g>
		</g>
		<g>
			<g>
				<rect x="92.05" y="110.78" style="fill:#263238;" width="5.08" height="9.31"/>
			</g>
		</g>
		<g>
			<g>
				<rect x="104.84" y="110.78" style="fill:#263238;" width="13.04" height="9.31"/>
			</g>
		</g>
		<g>
			<g>
				<rect x="106.2" y="120.09" style="fill:#263238;" width="11.69" height="6.09"/>
			</g>
		</g>
		<g>
			<g>
				<rect x="117.88" y="110.78" style="fill:#455A64;" width="2.58" height="2.89"/>
			</g>
		</g>
		<g>
			<g>
				<rect x="122.33" y="113.67" style="fill:#263238;" width="18.64" height="16.64"/>
			</g>
		</g>
		<g>
			<g>
				<rect x="140.97" y="106.39" style="fill:#263238;" width="3.73" height="28.9"/>
			</g>
		</g>
		<g>
			<g>
				<rect x="124.53" y="130.31" style="fill:#263238;" width="14.92" height="9.82"/>
			</g>
		</g>
		<g>
			<g>
				<rect x="126.34" y="140.13" style="fill:#263238;" width="11.59" height="2.37"/>
			</g>
		</g>
		<g>
			<g>
				<g>
					<path style="fill:#263238;" d="M178.23,205.7H157.9c-4.75,0-9.2-2.37-12.2-6.5l-6.6-9.07l-5.89-9.39
						c-1.78-2.83-2.76-6.15-2.85-9.61c-0.5-19.12-0.74-29.19-0.71-29.93l4.67,0.22l0-0.02c-0.02,0.86,0.25,11.92,0.71,29.58
						c0.06,2.43,0.76,4.76,2,6.75l5.79,9.23l6.49,8.93c2.11,2.9,5.23,4.56,8.58,4.56h20.33V205.7z"/>
				</g>
			</g>
		</g>
		<g>
			<g>
				<rect x="142.83" y="137.18" style="fill:#263238;" width="11.35" height="3.43"/>
			</g>
		</g>
		<g>
			<g>
				<rect x="139.45" y="142.5" style="fill:#263238;" width="17.97" height="10.76"/>
			</g>
		</g>
		<g>
			<g>
				<rect x="152.39" y="165.87" style="fill:#263238;" width="10.15" height="22.14"/>
			</g>
		</g>
		<g>
			<g>
				<polygon style="fill:#263238;" points="144.43,174.43 144.43,176.98 152.55,186.07 152.39,174.56 				"/>
			</g>
		</g>
		<g>
			<g>
				<path style="fill:#263238;" d="M162.55,185.61c0.34-0.12,8.51-9.51,8.51-9.51v-1.22h-8.51V185.61z"/>
			</g>
		</g>
		<g>
			<g>
				<polygon style="fill:#263238;" points="169.92,174.89 162.55,174.89 162.55,122.21 166.93,115.67 169.92,116.01 				"/>
			</g>
		</g>
		<g>
			<g>
				<polygon style="fill:#263238;" points="144.7,109.5 158.48,112.43 158.48,128.2 144.7,131.47 				"/>
			</g>
		</g>
		<g>
			<g>
				<path style="fill:#263238;" d="M153.79,112.69c0-0.17-0.23-6.65-0.23-6.65h1.94l2.98,6.39l-3.56,2.21L153.79,112.69z"/>
			</g>
		</g>
		<g>
			<g>
				<rect x="122.76" y="98.22" style="fill:#263238;" width="31.71" height="5.04"/>
			</g>
		</g>
		<g>
			<g>
				<rect x="153.11" y="96.13" style="fill:#263238;" width="2.66" height="7.91"/>
			</g>
		</g>
		<g>
			<g>
				<rect x="148.51" y="104.04" style="fill:#455A64;" width="8.07" height="3.03"/>
			</g>
		</g>
		<g>
			<g>
				<path style="fill:#263238;" d="M104.84,103.5L104.84,103.5c-0.49,0-0.88-0.39-0.88-0.87v-4.05c0-0.48,0.39-0.87,0.87-0.87h0.01
					c0.48,0,0.87,0.39,0.87,0.87v4.05C105.72,103.11,105.33,103.5,104.84,103.5z"/>
			</g>
		</g>
		<g>
			<g>
				<rect x="157.17" y="89.77" style="fill:#263238;" width="1.37" height="16.27"/>
			</g>
		</g>
		<g style="opacity:0.3;">
			<g>
				<polygon points="221.7,165.53 221.99,104.04 215.82,103.26 217.53,171.03 				"/>
			</g>
		</g>
		<g>
			<g>
				<g>
					<rect x="215.12" y="90.71" style="fill:#E0E0E0;" width="4.81" height="134.74"/>
				</g>
			</g>
			<g>
				<g>
					<g>
						<path style="fill:#263238;" d="M219.93,225.45c0,0-0.01-0.24-0.01-0.7c0-0.46-0.01-1.15-0.01-2.04c0-1.79-0.01-4.42-0.02-7.82
							c-0.01-6.79-0.02-16.61-0.04-28.77c-0.01-24.31-0.03-57.97-0.06-95.42l0.14,0.15c-1.52,0-3.16,0-4.81,0h-0.01l0.14-0.15
							c-0.05,64.7-0.09,119.12-0.1,134.74l-0.04-0.04c1.65,0.01,2.84,0.02,3.64,0.02C219.55,225.44,219.93,225.45,219.93,225.45
							s-0.37,0.01-1.16,0.02c-0.8,0.01-2,0.01-3.66,0.02l-0.04,0l0-0.04c-0.01-15.62-0.05-70.04-0.1-134.74l0-0.15h0.14h0.01
							c1.65,0,3.29,0,4.81,0h0.14l0,0.15c-0.02,37.5-0.04,71.2-0.06,95.53c-0.02,12.15-0.03,21.95-0.04,28.73
							c-0.01,3.38-0.02,6-0.02,7.78c0,0.88-0.01,1.56-0.01,2.02C219.94,225.22,219.93,225.45,219.93,225.45z"/>
					</g>
				</g>
			</g>
		</g>
		<g>
			<g>
				<path style="fill:#263238;" d="M201.36,156.03c0,0,7.67,3.1,7.96,10.85c0.28,7.75,0.8,17.06,0.8,17.06h5.71l-0.64-28.74
					l-7.13-0.79L201.36,156.03z"/>
			</g>
		</g>
		<g>
			<g>
				<rect x="202.65" y="183.21" style="fill:#263238;" width="17.2" height="7.56"/>
			</g>
		</g>
		<g>
			<g>
				<rect x="210.74" y="253.39" style="fill:#263238;" width="13.59" height="2.85"/>
			</g>
		</g>
		<g>
			<g>
				<path style="fill:#263238;" d="M111.65,248.27c0.72-0.43,16.77-19.11,16.77-19.11h61.4v29.79H111.1L111.65,248.27z"/>
			</g>
		</g>
		<g>
			<g>
				<rect x="150.73" y="225.2" style="fill:#E0E0E0;" width="12.68" height="3.96"/>
			</g>
		</g>
		<g>
			<g>
				<polygon style="fill:#263238;" points="167.35,225.51 147.28,225.51 147.28,219.91 154.46,215.97 159.22,215.97 167.35,219.91 
									"/>
			</g>
		</g>
		<g>
			<g>
				<rect x="154.46" y="209.35" style="fill:#263238;" width="4.51" height="7.57"/>
			</g>
		</g>
		<g>
			<g>
				<polygon style="fill:#263238;" points="162.81,213.07 151.9,213.07 151.9,208.34 162.81,208.34 178.23,212.2 178.23,219.93 				
					"/>
			</g>
		</g>
		<g>
			<g>
				<rect x="177.96" y="184.25" style="fill:#263238;" width="11.87" height="50.86"/>
			</g>
		</g>
		<g>
			<g>
				<polygon style="fill:#263238;" points="177.96,192.59 155.81,192.59 152.39,188.01 177.96,188.01 				"/>
			</g>
		</g>
		<g>
			<g>
				<rect x="128.35" y="226.79" style="fill:#263238;" width="13.91" height="3.11"/>
			</g>
		</g>
		<g>
			<g>
				<rect x="96.76" y="110.24" style="fill:#455A64;" width="8.54" height="10.44"/>
			</g>
		</g>
		<g>
			<g>
				<rect x="90.56" y="109.9" style="fill:#263238;" width="2.59" height="11.06"/>
			</g>
		</g>
		<g>
			<g>
				<g>
					<path style="fill:#455A64;" d="M93.12,121.05c-0.08,0-0.14-2.42-0.14-5.41c0-2.99,0.06-5.41,0.14-5.41s0.14,2.42,0.14,5.41
						C93.26,118.63,93.19,121.05,93.12,121.05z"/>
				</g>
			</g>
		</g>
		<g>
			<g>
				<g>
					<path style="fill:#455A64;" d="M118.13,120.09c0,0.08-2.87,0.15-6.42,0.15c-3.55,0-6.42-0.07-6.42-0.15s2.87-0.15,6.42-0.15
						C115.26,119.93,118.13,120,118.13,120.09z"/>
				</g>
			</g>
		</g>
		<g>
			<g>
				<g>
					<path style="fill:#455A64;" d="M140.97,130.3c0,0.08-4.12,0.15-9.21,0.15c-5.09,0-9.21-0.07-9.21-0.15
						c0-0.08,4.12-0.15,9.21-0.15C136.85,130.14,140.97,130.21,140.97,130.3z"/>
				</g>
			</g>
		</g>
		<g>
			<g>
				<g>
					<path style="fill:#455A64;" d="M139.55,140.13c0,0.08-3.39,0.15-7.56,0.15c-4.18,0-7.56-0.07-7.56-0.15
						c0-0.08,3.39-0.15,7.56-0.15C136.17,139.97,139.55,140.04,139.55,140.13z"/>
				</g>
			</g>
		</g>
		<g>
			<g>
				<g>
					<path style="fill:#455A64;" d="M137.93,142.51c0,0.08-2.57,0.15-5.74,0.15c-3.17,0-5.74-0.07-5.74-0.15
						c0-0.08,2.57-0.15,5.74-0.15C135.36,142.36,137.93,142.43,137.93,142.51z"/>
				</g>
			</g>
		</g>
		<g>
			<g>
				<g>
					<path style="fill:#455A64;" d="M127.52,142.48c-0.08,0-0.14-0.52-0.14-1.17c0-0.65,0.06-1.17,0.14-1.17
						c0.08,0,0.14,0.52,0.14,1.17C127.65,141.95,127.59,142.48,127.52,142.48z"/>
				</g>
			</g>
		</g>
		<g>
			<g>
				<g>
					<path style="fill:#455A64;" d="M128.71,142.48c-0.08,0-0.14-0.52-0.14-1.17c0-0.65,0.06-1.17,0.14-1.17
						c0.08,0,0.14,0.52,0.14,1.17C128.84,141.95,128.78,142.48,128.71,142.48z"/>
				</g>
			</g>
		</g>
		<g>
			<g>
				<g>
					<path style="fill:#455A64;" d="M129.89,142.48c-0.08,0-0.14-0.52-0.14-1.17c0-0.65,0.06-1.17,0.14-1.17
						c0.08,0,0.14,0.52,0.14,1.17C130.03,141.95,129.97,142.48,129.89,142.48z"/>
				</g>
			</g>
		</g>
		<g>
			<g>
				<g>
					<path style="fill:#455A64;" d="M131.08,142.48c-0.08,0-0.14-0.52-0.14-1.17c0-0.65,0.06-1.17,0.14-1.17
						c0.08,0,0.14,0.52,0.14,1.17C131.22,141.95,131.16,142.48,131.08,142.48z"/>
				</g>
			</g>
		</g>
		<g>
			<g>
				<g>
					<path style="fill:#455A64;" d="M132.27,142.48c-0.08,0-0.14-0.52-0.14-1.17c0-0.65,0.06-1.17,0.14-1.17
						c0.08,0,0.14,0.52,0.14,1.17C132.41,141.95,132.34,142.48,132.27,142.48z"/>
				</g>
			</g>
		</g>
		<g>
			<g>
				<g>
					<path style="fill:#455A64;" d="M133.46,142.48c-0.08,0-0.14-0.52-0.14-1.17c0-0.65,0.06-1.17,0.14-1.17
						c0.08,0,0.14,0.52,0.14,1.17C133.59,141.95,133.53,142.48,133.46,142.48z"/>
				</g>
			</g>
		</g>
		<g>
			<g>
				<g>
					<path style="fill:#455A64;" d="M134.64,142.48c-0.08,0-0.14-0.52-0.14-1.17c0-0.65,0.06-1.17,0.14-1.17
						c0.08,0,0.14,0.52,0.14,1.17C134.78,141.95,134.72,142.48,134.64,142.48z"/>
				</g>
			</g>
		</g>
		<g>
			<g>
				<g>
					<path style="fill:#455A64;" d="M135.83,142.48c-0.08,0-0.14-0.52-0.14-1.17c0-0.65,0.06-1.17,0.14-1.17
						c0.08,0,0.14,0.52,0.14,1.17C135.97,141.95,135.91,142.48,135.83,142.48z"/>
				</g>
			</g>
		</g>
		<g>
			<g>
				<g>
					<path style="fill:#455A64;" d="M137.02,142.48c-0.08,0-0.14-0.52-0.14-1.17c0-0.65,0.06-1.17,0.14-1.17
						c0.08,0,0.14,0.52,0.14,1.17C137.16,141.95,137.1,142.48,137.02,142.48z"/>
				</g>
			</g>
		</g>
		<g>
			<g>
				<g>
					<path style="fill:#455A64;" d="M140.97,135.29c-0.08,0-0.14-6.5-0.14-14.51c0-8.02,0.06-14.51,0.14-14.51
						c0.08,0,0.14,6.5,0.14,14.51C141.1,128.8,141.04,135.29,140.97,135.29z"/>
				</g>
			</g>
		</g>
		<g>
			<g>
				<g>
					<path style="fill:#455A64;" d="M144.7,135.29c-0.08,0-0.14-6.5-0.14-14.51c0-8.02,0.06-14.51,0.14-14.51
						c0.08,0,0.14,6.5,0.14,14.51C144.83,128.8,144.77,135.29,144.7,135.29z"/>
				</g>
			</g>
		</g>
		<g>
			<g>
				<g>
					<path style="fill:#455A64;" d="M144.66,133.87c0,0.08-0.82,0.15-1.83,0.15c-1.01,0-1.83-0.07-1.83-0.15
						c0-0.08,0.82-0.15,1.83-0.15C143.84,133.72,144.66,133.79,144.66,133.87z"/>
				</g>
			</g>
		</g>
		<g>
			<g>
				<g>
					<path style="fill:#455A64;" d="M144.66,132.57c0,0.08-0.82,0.15-1.83,0.15c-1.01,0-1.83-0.07-1.83-0.15
						c0-0.08,0.82-0.15,1.83-0.15C143.84,132.41,144.66,132.48,144.66,132.57z"/>
				</g>
			</g>
		</g>
		<g>
			<g>
				<g>
					<path style="fill:#455A64;" d="M144.66,131.14c0,0.08-0.82,0.15-1.83,0.15c-1.01,0-1.83-0.07-1.83-0.15
						c0-0.08,0.82-0.15,1.83-0.15C143.84,130.99,144.66,131.06,144.66,131.14z"/>
				</g>
			</g>
		</g>
		<g>
			<g>
				<g>
					<path style="fill:#455A64;" d="M144.66,129.71c0,0.08-0.82,0.15-1.83,0.15c-1.01,0-1.83-0.07-1.83-0.15
						c0-0.08,0.82-0.15,1.83-0.15C143.84,129.56,144.66,129.63,144.66,129.71z"/>
				</g>
			</g>
		</g>
		<g>
			<g>
				<g>
					<path style="fill:#455A64;" d="M144.66,128.29c0,0.08-0.82,0.15-1.83,0.15c-1.01,0-1.83-0.07-1.83-0.15
						c0-0.08,0.82-0.15,1.83-0.15C143.84,128.13,144.66,128.2,144.66,128.29z"/>
				</g>
			</g>
		</g>
		<g>
			<g>
				<g>
					<path style="fill:#455A64;" d="M144.66,126.86c0,0.08-0.82,0.15-1.83,0.15c-1.01,0-1.83-0.07-1.83-0.15
						c0-0.08,0.82-0.15,1.83-0.15C143.84,126.7,144.66,126.77,144.66,126.86z"/>
				</g>
			</g>
		</g>
		<g>
			<g>
				<g>
					<path style="fill:#455A64;" d="M144.66,125.43c0,0.08-0.82,0.15-1.83,0.15c-1.01,0-1.83-0.07-1.83-0.15s0.82-0.15,1.83-0.15
						C143.84,125.28,144.66,125.35,144.66,125.43z"/>
				</g>
			</g>
		</g>
		<g>
			<g>
				<g>
					<path style="fill:#455A64;" d="M144.66,124c0,0.08-0.82,0.15-1.83,0.15c-1.01,0-1.83-0.07-1.83-0.15
						c0-0.08,0.82-0.15,1.83-0.15C143.84,123.85,144.66,123.92,144.66,124z"/>
				</g>
			</g>
		</g>
		<g>
			<g>
				<g>
					<path style="fill:#455A64;" d="M144.66,122.58c0,0.08-0.82,0.15-1.83,0.15c-1.01,0-1.83-0.07-1.83-0.15
						c0-0.08,0.82-0.15,1.83-0.15C143.84,122.42,144.66,122.49,144.66,122.58z"/>
				</g>
			</g>
		</g>
		<g>
			<g>
				<g>
					<path style="fill:#455A64;" d="M144.66,121.15c0,0.08-0.82,0.15-1.83,0.15c-1.01,0-1.83-0.07-1.83-0.15s0.82-0.15,1.83-0.15
						C143.84,120.99,144.66,121.06,144.66,121.15z"/>
				</g>
			</g>
		</g>
		<g>
			<g>
				<g>
					<path style="fill:#455A64;" d="M144.66,119.72c0,0.08-0.82,0.15-1.83,0.15c-1.01,0-1.83-0.07-1.83-0.15s0.82-0.15,1.83-0.15
						C143.84,119.57,144.66,119.64,144.66,119.72z"/>
				</g>
			</g>
		</g>
		<g>
			<g>
				<g>
					<path style="fill:#455A64;" d="M144.66,118.29c0,0.08-0.82,0.15-1.83,0.15c-1.01,0-1.83-0.07-1.83-0.15
						c0-0.08,0.82-0.15,1.83-0.15C143.84,118.14,144.66,118.21,144.66,118.29z"/>
				</g>
			</g>
		</g>
		<g>
			<g>
				<g>
					<path style="fill:#455A64;" d="M144.66,116.87c0,0.08-0.82,0.15-1.83,0.15c-1.01,0-1.83-0.07-1.83-0.15s0.82-0.15,1.83-0.15
						C143.84,116.71,144.66,116.78,144.66,116.87z"/>
				</g>
			</g>
		</g>
		<g>
			<g>
				<g>
					<path style="fill:#455A64;" d="M144.66,115.44c0,0.08-0.82,0.15-1.83,0.15c-1.01,0-1.83-0.07-1.83-0.15s0.82-0.15,1.83-0.15
						C143.84,115.29,144.66,115.35,144.66,115.44z"/>
				</g>
			</g>
		</g>
		<g>
			<g>
				<g>
					<path style="fill:#455A64;" d="M144.66,114.01c0,0.08-0.82,0.15-1.83,0.15c-1.01,0-1.83-0.07-1.83-0.15
						c0-0.08,0.82-0.15,1.83-0.15C143.84,113.86,144.66,113.93,144.66,114.01z"/>
				</g>
			</g>
		</g>
		<g>
			<g>
				<g>
					<path style="fill:#455A64;" d="M144.66,112.58c0,0.08-0.82,0.15-1.83,0.15c-1.01,0-1.83-0.07-1.83-0.15
						c0-0.08,0.82-0.15,1.83-0.15C143.84,112.43,144.66,112.5,144.66,112.58z"/>
				</g>
			</g>
		</g>
		<g>
			<g>
				<g>
					<path style="fill:#455A64;" d="M144.66,111.16c0,0.08-0.82,0.15-1.83,0.15c-1.01,0-1.83-0.07-1.83-0.15
						c0-0.08,0.82-0.15,1.83-0.15C143.84,111,144.66,111.07,144.66,111.16z"/>
				</g>
			</g>
		</g>
		<g>
			<g>
				<g>
					<path style="fill:#455A64;" d="M144.66,109.73c0,0.08-0.82,0.15-1.83,0.15c-1.01,0-1.83-0.07-1.83-0.15
						c0-0.08,0.82-0.15,1.83-0.15C143.84,109.58,144.66,109.64,144.66,109.73z"/>
				</g>
			</g>
		</g>
		<g>
			<g>
				<g>
					<path style="fill:#455A64;" d="M144.66,108.3c0,0.08-0.82,0.15-1.83,0.15c-1.01,0-1.83-0.07-1.83-0.15
						c0-0.08,0.82-0.15,1.83-0.15C143.84,108.15,144.66,108.22,144.66,108.3z"/>
				</g>
			</g>
		</g>
		<g>
			<g>
				<g>
					<path style="fill:#455A64;" d="M144.66,106.87c0,0.08-0.82,0.15-1.83,0.15c-1.01,0-1.83-0.07-1.83-0.15
						c0-0.08,0.82-0.15,1.83-0.15C143.84,106.72,144.66,106.79,144.66,106.87z"/>
				</g>
			</g>
		</g>
		<g>
			<g>
				<rect x="161.31" y="153.52" style="fill:#263238;" width="9.81" height="3.45"/>
			</g>
		</g>
		<g>
			<g>
				<rect x="159.67" y="149.55" style="fill:#263238;" width="12.9" height="3.97"/>
			</g>
		</g>
		<g>
			<g>
				<rect x="161.56" y="135.75" style="fill:#455A64;" width="9.36" height="6.29"/>
			</g>
		</g>
		<g>
			<g>
				<rect x="161.31" y="130.69" style="fill:#455A64;" width="9.81" height="1.55"/>
			</g>
		</g>
		<g>
			<g>
				<g>
					<path style="fill:#455A64;" d="M142.45,229.16c0,0.08-3.16,0.15-7.05,0.15c-3.89,0-7.05-0.07-7.05-0.15
						c0-0.08,3.16-0.15,7.05-0.15C139.3,229.01,142.45,229.07,142.45,229.16z"/>
				</g>
			</g>
		</g>
		<g>
			<g>
				<g>
					<path style="fill:#455A64;" d="M129.27,229.18c-0.08,0-0.14-0.52-0.14-1.15c0-0.64,0.06-1.15,0.14-1.15
						c0.08,0,0.14,0.52,0.14,1.15C129.41,228.67,129.35,229.18,129.27,229.18z"/>
				</g>
			</g>
		</g>
		<g>
			<g>
				<g>
					<path style="fill:#455A64;" d="M130.35,229.18c-0.08,0-0.14-0.52-0.14-1.15c0-0.64,0.06-1.15,0.14-1.15
						c0.08,0,0.14,0.52,0.14,1.15C130.49,228.67,130.43,229.18,130.35,229.18z"/>
				</g>
			</g>
		</g>
		<g>
			<g>
				<g>
					<path style="fill:#455A64;" d="M131.44,229.18c-0.08,0-0.14-0.52-0.14-1.15c0-0.64,0.06-1.15,0.14-1.15
						c0.08,0,0.14,0.52,0.14,1.15C131.57,228.67,131.51,229.18,131.44,229.18z"/>
				</g>
			</g>
		</g>
		<g>
			<g>
				<g>
					<path style="fill:#455A64;" d="M132.52,229.18c-0.08,0-0.14-0.52-0.14-1.15c0-0.64,0.06-1.15,0.14-1.15
						c0.08,0,0.14,0.52,0.14,1.15C132.66,228.67,132.6,229.18,132.52,229.18z"/>
				</g>
			</g>
		</g>
		<g>
			<g>
				<g>
					<path style="fill:#455A64;" d="M133.6,229.18c-0.08,0-0.14-0.52-0.14-1.15c0-0.64,0.06-1.15,0.14-1.15
						c0.08,0,0.14,0.52,0.14,1.15C133.74,228.67,133.68,229.18,133.6,229.18z"/>
				</g>
			</g>
		</g>
		<g>
			<g>
				<g>
					<path style="fill:#455A64;" d="M134.69,229.18c-0.08,0-0.14-0.52-0.14-1.15c0-0.64,0.06-1.15,0.14-1.15s0.14,0.52,0.14,1.15
						C134.82,228.67,134.76,229.18,134.69,229.18z"/>
				</g>
			</g>
		</g>
		<g>
			<g>
				<g>
					<path style="fill:#455A64;" d="M135.77,229.18c-0.08,0-0.14-0.52-0.14-1.15c0-0.64,0.06-1.15,0.14-1.15
						c0.08,0,0.14,0.52,0.14,1.15C135.91,228.67,135.84,229.18,135.77,229.18z"/>
				</g>
			</g>
		</g>
		<g>
			<g>
				<g>
					<path style="fill:#455A64;" d="M136.85,229.18c-0.08,0-0.14-0.52-0.14-1.15c0-0.64,0.06-1.15,0.14-1.15
						c0.08,0,0.14,0.52,0.14,1.15C136.99,228.67,136.93,229.18,136.85,229.18z"/>
				</g>
			</g>
		</g>
		<g>
			<g>
				<g>
					<path style="fill:#455A64;" d="M137.93,229.18c-0.08,0-0.14-0.52-0.14-1.15c0-0.64,0.06-1.15,0.14-1.15
						c0.08,0,0.14,0.52,0.14,1.15C138.07,228.67,138.01,229.18,137.93,229.18z"/>
				</g>
			</g>
		</g>
		<g>
			<g>
				<g>
					<path style="fill:#455A64;" d="M139.02,229.18c-0.08,0-0.14-0.52-0.14-1.15c0-0.64,0.06-1.15,0.14-1.15
						c0.08,0,0.14,0.52,0.14,1.15C139.15,228.67,139.09,229.18,139.02,229.18z"/>
				</g>
			</g>
		</g>
		<g>
			<g>
				<g>
					<path style="fill:#455A64;" d="M140.1,229.18c-0.08,0-0.14-0.52-0.14-1.15c0-0.64,0.06-1.15,0.14-1.15
						c0.08,0,0.14,0.52,0.14,1.15C140.24,228.67,140.18,229.18,140.1,229.18z"/>
				</g>
			</g>
		</g>
		<g>
			<g>
				<g>
					<path style="fill:#455A64;" d="M141.18,229.18c-0.08,0-0.14-0.52-0.14-1.15c0-0.64,0.06-1.15,0.14-1.15
						c0.08,0,0.14,0.52,0.14,1.15C141.32,228.67,141.26,229.18,141.18,229.18z"/>
				</g>
			</g>
		</g>
		<g>
			<g>
				<g>
					<path style="fill:#455A64;" d="M142.27,229.18c-0.08,0-0.14-0.52-0.14-1.15c0-0.64,0.06-1.15,0.14-1.15
						c0.08,0,0.14,0.52,0.14,1.15C142.4,228.67,142.34,229.18,142.27,229.18z"/>
				</g>
			</g>
		</g>
		<g>
			<g>
				<g>
					<path style="fill:none;stroke:#4E585D;stroke-miterlimit:10;" d="M147.31,220.03"/>
				</g>
			</g>
		</g>
		<g>
			<g>
				<g>
					<path style="fill:#455A64;" d="M167.35,219.93c0,0.08-4.48,0.15-10,0.15c-5.52,0-10-0.07-10-0.15c0-0.08,4.47-0.15,10-0.15
						C162.87,219.78,167.35,219.85,167.35,219.93z"/>
				</g>
			</g>
		</g>
		<g>
			<g>
				<g>
					<path style="fill:#455A64;" d="M148.49,225.5c-0.08,0-0.14-1.21-0.14-2.71c0-1.5,0.06-2.71,0.14-2.71s0.14,1.21,0.14,2.71
						C148.63,224.29,148.57,225.5,148.49,225.5z"/>
				</g>
			</g>
		</g>
		<g>
			<g>
				<g>
					<path style="fill:#455A64;" d="M150.46,225.5c-0.08,0-0.14-1.21-0.14-2.71c0-1.5,0.06-2.71,0.14-2.71
						c0.08,0,0.14,1.21,0.14,2.71C150.6,224.29,150.53,225.5,150.46,225.5z"/>
				</g>
			</g>
		</g>
		<g>
			<g>
				<g>
					<path style="fill:#455A64;" d="M152.43,225.5c-0.08,0-0.14-1.21-0.14-2.71c0-1.5,0.06-2.71,0.14-2.71
						c0.08,0,0.14,1.21,0.14,2.71C152.56,224.29,152.5,225.5,152.43,225.5z"/>
				</g>
			</g>
		</g>
		<g>
			<g>
				<g>
					<path style="fill:#455A64;" d="M154.39,225.5c-0.08,0-0.14-1.21-0.14-2.71c0-1.5,0.06-2.71,0.14-2.71
						c0.08,0,0.14,1.21,0.14,2.71C154.53,224.29,154.47,225.5,154.39,225.5z"/>
				</g>
			</g>
		</g>
		<g>
			<g>
				<g>
					<path style="fill:#455A64;" d="M156.36,225.5c-0.08,0-0.14-1.21-0.14-2.71c0-1.5,0.06-2.71,0.14-2.71
						c0.08,0,0.14,1.21,0.14,2.71C156.5,224.29,156.44,225.5,156.36,225.5z"/>
				</g>
			</g>
		</g>
		<g>
			<g>
				<g>
					<path style="fill:#455A64;" d="M158.33,225.5c-0.08,0-0.14-1.21-0.14-2.71c0-1.5,0.06-2.71,0.14-2.71
						c0.08,0,0.14,1.21,0.14,2.71C158.46,224.29,158.4,225.5,158.33,225.5z"/>
				</g>
			</g>
		</g>
		<g>
			<g>
				<g>
					<path style="fill:#455A64;" d="M160.3,225.5c-0.08,0-0.14-1.21-0.14-2.71c0-1.5,0.06-2.71,0.14-2.71
						c0.08,0,0.14,1.21,0.14,2.71C160.43,224.29,160.37,225.5,160.3,225.5z"/>
				</g>
			</g>
		</g>
		<g>
			<g>
				<g>
					<path style="fill:#455A64;" d="M162.26,225.5c-0.08,0-0.14-1.21-0.14-2.71c0-1.5,0.06-2.71,0.14-2.71
						c0.08,0,0.14,1.21,0.14,2.71C162.4,224.29,162.34,225.5,162.26,225.5z"/>
				</g>
			</g>
		</g>
		<g>
			<g>
				<g>
					<path style="fill:#455A64;" d="M164.23,225.5c-0.08,0-0.14-1.21-0.14-2.71c0-1.5,0.06-2.71,0.14-2.71
						c0.08,0,0.14,1.21,0.14,2.71C164.37,224.29,164.31,225.5,164.23,225.5z"/>
				</g>
			</g>
		</g>
		<g>
			<g>
				<g>
					<path style="fill:#455A64;" d="M166.2,225.5c-0.08,0-0.14-1.21-0.14-2.71c0-1.5,0.06-2.71,0.14-2.71
						c0.08,0,0.14,1.21,0.14,2.71C166.33,224.29,166.27,225.5,166.2,225.5z"/>
				</g>
			</g>
		</g>
		<g>
			<g>
				<g>
					<path style="fill:#455A64;" d="M178.08,184.6c0.08,0,0.14,10.03,0.14,22.4c0,12.37-0.06,22.4-0.14,22.4
						c-0.08,0-0.14-10.03-0.14-22.4C177.94,194.63,178,184.6,178.08,184.6z"/>
				</g>
			</g>
		</g>
		<g>
			<g>
				<g>
					<path style="fill:#455A64;" d="M171.47,174.45c0,0.08-6.07,0.15-13.56,0.15c-7.49,0-13.56-0.07-13.56-0.15
						c0-0.08,6.07-0.15,13.56-0.15C165.4,174.3,171.47,174.37,171.47,174.45z"/>
				</g>
			</g>
		</g>
		<g>
			<g>
				<g>
					<path style="fill:#455A64;" d="M171.39,156.98c0,0.08-2.26,0.15-5.05,0.15c-2.79,0-5.05-0.07-5.05-0.15
						c0-0.08,2.26-0.15,5.05-0.15C169.13,156.82,171.39,156.89,171.39,156.98z"/>
				</g>
			</g>
		</g>
		<g>
			<g>
				<g>
					<path style="fill:#455A64;" d="M172.56,153.52c0,0.08-2.88,0.15-6.43,0.15c-3.55,0-6.43-0.07-6.43-0.15
						c0-0.08,2.88-0.15,6.43-0.15C169.68,153.37,172.56,153.44,172.56,153.52z"/>
				</g>
			</g>
		</g>
		<g>
			<g>
				<g>
					<path style="fill:#455A64;" d="M162.67,156.91c-0.08,0-0.14-0.74-0.14-1.66c0-0.92,0.06-1.66,0.14-1.66
						c0.08,0,0.14,0.74,0.14,1.66C162.81,156.17,162.75,156.91,162.67,156.91z"/>
				</g>
			</g>
		</g>
		<g>
			<g>
				<g>
					<path style="fill:#455A64;" d="M164.2,156.91c-0.08,0-0.14-0.74-0.14-1.66c0-0.92,0.06-1.66,0.14-1.66
						c0.08,0,0.14,0.74,0.14,1.66C164.33,156.17,164.27,156.91,164.2,156.91z"/>
				</g>
			</g>
		</g>
		<g>
			<g>
				<g>
					<path style="fill:#455A64;" d="M165.73,156.91c-0.08,0-0.14-0.74-0.14-1.66c0-0.92,0.06-1.66,0.14-1.66
						c0.08,0,0.14,0.74,0.14,1.66C165.86,156.17,165.8,156.91,165.73,156.91z"/>
				</g>
			</g>
		</g>
		<g>
			<g>
				<g>
					<path style="fill:#455A64;" d="M167.25,156.91c-0.08,0-0.14-0.74-0.14-1.66c0-0.92,0.06-1.66,0.14-1.66
						c0.08,0,0.14,0.74,0.14,1.66C167.39,156.17,167.33,156.91,167.25,156.91z"/>
				</g>
			</g>
		</g>
		<g>
			<g>
				<g>
					<path style="fill:#455A64;" d="M168.78,156.91c-0.08,0-0.14-0.74-0.14-1.66c0-0.92,0.06-1.66,0.14-1.66
						c0.08,0,0.14,0.74,0.14,1.66C168.92,156.17,168.86,156.91,168.78,156.91z"/>
				</g>
			</g>
		</g>
		<g>
			<g>
				<g>
					<path style="fill:#455A64;" d="M170.31,156.91c-0.08,0-0.14-0.74-0.14-1.66c0-0.92,0.06-1.66,0.14-1.66
						c0.08,0,0.14,0.74,0.14,1.66C170.45,156.17,170.39,156.91,170.31,156.91z"/>
				</g>
			</g>
		</g>
		<g>
			<g>
				<g>
					<path style="fill:#455A64;" d="M172.47,149.52c0,0.08-2.85,0.15-6.37,0.15c-3.52,0-6.37-0.07-6.37-0.15
						c0-0.08,2.85-0.15,6.37-0.15C169.62,149.36,172.47,149.43,172.47,149.52z"/>
				</g>
			</g>
		</g>
		<g>
			<g>
				<g>
					<path style="fill:none;stroke:#4E585D;stroke-miterlimit:10;" d="M168.64,149.13"/>
				</g>
			</g>
		</g>
		<g>
			<g>
				<rect x="109.38" y="256" style="fill:#455A64;" width="119.58" height="8.76"/>
			</g>
		</g>
		<g>
			<g>
				<path style="fill:#455A64;" d="M156.36,257.25v-14.98c0-3.65,2.19-6.62,4.89-6.62h31.29c2.7,0,4.89,2.96,4.89,6.62v18.37
					L156.36,257.25z"/>
			</g>
		</g>
		<g>
			<g>
				<rect x="181.02" y="97.06" style="fill:#455A64;" width="40.97" height="8.81"/>
			</g>
		</g>
		<g>
			<g>
				<rect x="188.87" y="149.89" style="fill:#455A64;" width="30.98" height="6.07"/>
			</g>
		</g>
		<g>
			<g>
				<rect x="213.78" y="222.79" style="fill:#263238;" width="7.5" height="30.6"/>
			</g>
		</g>
	</g>
	<g>
		<g>
			<g>
				<path style="fill:#E0E0E0;" d="M34.37,139.28l-4.25,6.86c0,0-20.05,12.94-25.18,19.73c-7.49,9.92-4.69,22.77-2.55,48.27
					c0.81,9.67,3.15,50.55,3.15,50.55H24.4l59.23-0.19l-1.77-32.01l4.03-33.16l-4.53-1.17l-0.73-35.82l-8.82-4.92l-5.94-10.17
					l-27.86-11.09L34.37,139.28z"/>
			</g>
		</g>
		<g>
			<g>
				<polygon style="fill:#FFFFFF;" points="66.91,149.27 38.13,138.6 37.92,137.18 37.6,140.69 72.81,208.28 				"/>
			</g>
		</g>
		<g>
			<g>
				<path style="fill:#E0E0E0;" d="M99.63,158.04l0.52,30.59l-19.54-26.3l0.44,55.7c0,0,20.06,10.82,30.98,9.77
					c10.92-1.06,11.73-7.87,11.75-15.23c0.01-4.42-0.9-48.46-0.9-48.46L99.63,158.04z"/>
			</g>
		</g>
		<g>
			<g>
				<g>
					<path style="fill:#263238;" d="M100.4,187.48c0.01,0,0.01,0.1,0,0.29c-0.01,0.23-0.03,0.5-0.04,0.83
						c-0.02,0.36-0.05,0.8-0.06,1.31c-0.01,0.51-0.05,1.09-0.04,1.74c-0.02,1.29,0.04,2.82,0.17,4.52c0.15,1.69,0.38,3.55,0.74,5.47
						c0.37,1.92,0.84,3.72,1.32,5.33c0.5,1.61,1.01,3.03,1.5,4.2c0.23,0.59,0.47,1.11,0.67,1.57c0.2,0.46,0.38,0.85,0.53,1.17
						c0.14,0.29,0.25,0.54,0.34,0.74c0.08,0.17,0.11,0.26,0.1,0.27c-0.01,0.01-0.06-0.08-0.15-0.24c-0.11-0.19-0.23-0.43-0.39-0.71
						c-0.17-0.31-0.37-0.69-0.58-1.15c-0.21-0.46-0.47-0.97-0.71-1.56c-0.51-1.16-1.04-2.59-1.56-4.2c-0.5-1.62-0.98-3.43-1.35-5.36
						c-0.36-1.94-0.59-3.81-0.72-5.51c-0.12-1.71-0.15-3.25-0.11-4.55c0-0.65,0.05-1.23,0.08-1.74c0.02-0.51,0.07-0.95,0.11-1.31
						c0.04-0.33,0.07-0.6,0.09-0.83C100.37,187.58,100.39,187.48,100.4,187.48z"/>
				</g>
			</g>
		</g>
		<g>
			<g>
				<g>
					<path style="fill:#263238;" d="M73.13,256.82c0,0-0.01-0.12-0.01-0.35c0-0.24,0-0.59,0.01-1.03c0.01-0.92,0.03-2.25,0.06-3.96
						c0.03-1.72,0.07-3.82,0.11-6.26c0.02-1.22,0.05-2.53,0.07-3.91c0.01-0.69,0.03-1.4,0.04-2.13c0-0.73,0-1.48,0-2.25
						c0.01-3.07,0.02-6.44,0.03-10.05c0-1.81,0.01-3.68,0.01-5.6c0-1.93,0.05-3.91-0.05-5.93c-0.05-1.01-0.1-2.04-0.36-3.02
						c-0.25-0.99-0.73-1.88-1.36-2.66c-0.62-0.79-1.33-1.52-2.01-2.3c-0.68-0.77-1.37-1.56-2.06-2.34
						c-2.76-3.17-5.45-6.63-8.13-10.24c-4.43-5.99-8.51-11.89-12.58-17.11l-0.06-0.07l0.04-0.09c1.15-2.61,2.13-5.21,3.05-7.71
						l0.12,0.19c-2.44,0.07-4.74,0.72-6.75,1.77l-0.09,0.05l-0.05-0.09c-4.2-7.56-7.56-13.9-9.79-18.39
						c-1.12-2.25-1.94-4.03-2.48-5.27c-0.54-1.23-0.77-1.91-0.77-1.91s0.08,0.16,0.22,0.48c0.13,0.32,0.34,0.79,0.62,1.4
						c0.55,1.22,1.4,3,2.53,5.23c2.26,4.47,5.64,10.78,9.87,18.33l-0.14-0.05c2.03-1.07,4.37-1.74,6.84-1.82l0.19-0.01l-0.07,0.19
						c-0.92,2.51-1.89,5.11-3.05,7.74l-0.02-0.16c4.08,5.22,8.17,11.12,12.6,17.11c2.67,3.61,5.36,7.06,8.11,10.23
						c0.69,0.79,1.38,1.57,2.06,2.34c0.68,0.77,1.38,1.51,2.02,2.31c0.65,0.79,1.16,1.75,1.41,2.77c0.27,1.02,0.32,2.07,0.37,3.08
						c0.09,2.04,0.03,4.02,0.03,5.95c-0.01,1.93-0.02,3.79-0.03,5.6c-0.02,3.61-0.04,6.98-0.06,10.06c0,0.77-0.01,1.52-0.01,2.25
						c-0.02,0.73-0.03,1.44-0.05,2.14c-0.03,1.38-0.06,2.69-0.09,3.91c-0.06,2.44-0.11,4.54-0.16,6.26
						c-0.05,1.71-0.08,3.04-0.11,3.96c-0.02,0.44-0.03,0.79-0.04,1.03C73.14,256.7,73.13,256.82,73.13,256.82z"/>
				</g>
			</g>
		</g>
		<g>
			<g>
				<g>
					<path style="fill:none;stroke:#4E585D;stroke-width:0.05;stroke-miterlimit:10;" d="M81.67,232.45"/>
				</g>
			</g>
		</g>
		<g>
			<g>
				<g>
					<path style="fill:none;stroke:#4E585D;stroke-width:0.05;stroke-miterlimit:10;" d="M85.79,199.29"/>
				</g>
			</g>
		</g>
		<g>
			<g>
				<g>
					<path style="fill:#263238;" d="M80.18,169.96c0,0,0.01,0.05,0.02,0.14c0.01,0.11,0.02,0.25,0.03,0.42
						c0.02,0.39,0.05,0.92,0.09,1.61c0.07,1.42,0.17,3.45,0.29,5.96c0.22,5.08,0.53,12.12,0.88,20.07L81.38,198
						c1.19,0.3,2.44,0.63,3.71,0.95c0.25,0.06,0.5,0.13,0.73,0.19l0.12,0.03l-0.02,0.14c-1.05,8.7-1.99,16.53-2.67,22.22
						c-0.35,2.81-0.64,5.1-0.84,6.7c-0.1,0.77-0.18,1.38-0.24,1.82c-0.03,0.19-0.05,0.35-0.07,0.47c-0.02,0.11-0.03,0.16-0.03,0.16
						c0,0,0-0.06,0.01-0.16c0.01-0.12,0.03-0.28,0.04-0.47c0.05-0.44,0.11-1.05,0.19-1.82c0.18-1.61,0.44-3.89,0.75-6.71
						c0.66-5.69,1.57-13.53,2.59-22.23l0.11,0.17c-0.23-0.06-0.48-0.12-0.73-0.19c-1.27-0.33-2.52-0.65-3.71-0.95l-0.1-0.03l0-0.12
						c-0.31-7.96-0.59-15-0.79-20.07c-0.09-2.51-0.16-4.54-0.21-5.96c-0.02-0.68-0.03-1.22-0.04-1.61c0-0.17,0-0.31,0-0.42
						C80.17,170.01,80.18,169.96,80.18,169.96z"/>
				</g>
			</g>
		</g>
		<g>
			<g>
				<g>
					<path style="fill:#263238;" d="M71.8,157.41c0,0,0.03,0.04,0.07,0.11c0.05,0.09,0.11,0.21,0.18,0.35
						c0.16,0.33,0.38,0.78,0.66,1.36c0.57,1.21,1.39,2.93,2.4,5.07l0.05,0.1l-0.09,0.05c-0.95,0.49-2.02,1.04-3.16,1.64l0.02-0.21
						c1.17,0.87,2.46,1.84,3.83,2.87l0.06,0.04l0,0.08c-0.14,3.62-0.3,7.69-0.46,11.98c-0.33,7.96-0.63,15.16-0.85,20.4
						c-0.12,2.59-0.22,4.69-0.29,6.18c-0.04,0.71-0.07,1.27-0.09,1.68c-0.01,0.18-0.02,0.32-0.03,0.44
						c-0.01,0.1-0.02,0.15-0.02,0.15c0,0-0.01-0.05-0.01-0.15c0-0.12,0-0.26,0-0.44c0.01-0.41,0.02-0.97,0.04-1.68
						c0.05-1.49,0.12-3.59,0.2-6.18c0.2-5.24,0.47-12.44,0.77-20.4c0.17-4.28,0.34-8.35,0.49-11.97l0.05,0.12
						c-1.37-1.04-2.65-2.01-3.81-2.9l-0.16-0.12l0.18-0.09c1.15-0.58,2.22-1.12,3.18-1.6l-0.04,0.14c-0.98-2.16-1.77-3.89-2.33-5.12
						c-0.26-0.59-0.47-1.05-0.62-1.38c-0.06-0.15-0.11-0.26-0.15-0.36C71.81,157.46,71.8,157.42,71.8,157.41z"/>
				</g>
			</g>
		</g>
		<g>
			<g>
				<g>
					<path style="fill:#263238;" d="M64.79,167.92c-0.01,0.01-0.15-0.06-0.41-0.2c-0.26-0.15-0.64-0.37-1.12-0.67
						c-0.95-0.61-2.28-1.54-3.77-2.81l0.19-0.11c0.03,2.01-0.14,4.38-0.63,6.85c-0.18,0.89-0.39,1.76-0.62,2.58l-0.06,0.22
						l-0.15-0.15c-2.13-2.08-3.99-3.91-5.37-5.26c-0.64-0.64-1.17-1.17-1.56-1.57c-0.36-0.37-0.56-0.58-0.54-0.6
						c0.01-0.01,0.22,0.17,0.61,0.52c0.41,0.38,0.95,0.89,1.62,1.5c1.39,1.33,3.28,3.13,5.43,5.18l-0.22,0.07
						c0.23-0.81,0.43-1.67,0.61-2.55c0.49-2.44,0.66-4.79,0.66-6.78l0-0.28l0.19,0.17c1.46,1.29,2.77,2.25,3.69,2.89
						c0.44,0.3,0.8,0.54,1.08,0.74C64.66,167.81,64.79,167.9,64.79,167.92z"/>
				</g>
			</g>
		</g>
		<g>
			<g>
				<polygon style="fill:#FFFFFF;" points="100.88,158.35 100.82,153.26 117.55,155.97 118.22,162.9 				"/>
			</g>
		</g>
		<g>
			<g style="opacity:0.3;">
				<g>
					<path d="M6.68,209.35c0,0,18.97,50.98,25.83,54.55c4.76,2.48,10.94,0.16,20.28-0.98c10.08-1.23,30.75-8.91,30.75-8.91
						s-50.53-3.25-50.77-4.61C32.53,248.05,6.68,209.35,6.68,209.35z"/>
				</g>
			</g>
			<g>
				<g>
					<path style="fill:#E0E0E0;" d="M33.26,177.23c0.18,1.66,18.9,50.47,18.9,50.47s8.65-0.94,14.58-1.86
						c7.81-1.21,31.88-6.36,31.88-6.36l6.64,28.75c0,0-17.43,5.04-35.13,9.14c-17.09,3.96-31.9,8.18-36.23,6.19
						c-9.16-4.22-24.42-49.28-28.21-56.56c-3.74-7.18-12.28-36.84,5.4-43.34C28.78,157.16,33.26,177.23,33.26,177.23z"/>
				</g>
			</g>
			<g>
				<g>
					<g>
						<path style="fill:#263238;" d="M4.34,167.34c0,0-0.15,0.23-0.47,0.66c-0.08,0.11-0.16,0.23-0.26,0.36
							c-0.09,0.14-0.18,0.3-0.29,0.47c-0.1,0.17-0.22,0.35-0.34,0.55c-0.11,0.21-0.22,0.43-0.34,0.66
							c-0.98,1.86-2.01,4.92-2.37,9.02c-0.38,4.09-0.08,9.19,1.08,14.89c0.59,2.85,1.38,5.86,2.55,8.9
							c0.56,1.53,1.41,2.96,2.06,4.56c0.68,1.58,1.34,3.22,2.02,4.9c2.7,6.73,5.59,14.12,8.92,21.95c1.67,3.91,3.44,7.93,5.4,11.99
							c1.97,4.05,4.08,8.19,6.7,12.06c0.66,0.96,1.36,1.9,2.13,2.77c0.77,0.87,1.61,1.68,2.59,2.22c0.5,0.26,1.01,0.42,1.57,0.42
							l0.83,0.02l0.84-0.04c1.12-0.05,2.25-0.18,3.38-0.33c4.52-0.61,9.1-1.52,13.75-2.51c9.3-1.99,18.88-4.34,28.67-6.83
							c7.66-1.97,15.18-3.94,22.44-5.97l-0.09,0.18c-2.3-9.95-4.52-19.57-6.63-28.75l0.15,0.11c-8.66,1.79-16.92,3.45-24.68,4.93
							c-3.88,0.73-7.64,1.45-11.28,1.97c-3.65,0.45-7.15,0.88-10.51,1.3l-0.07,0.01l-0.03-0.08c-5.93-15.51-10.7-28.11-13.95-36.85
							c-1.62-4.37-2.88-7.77-3.69-10.09c-0.42-1.16-0.71-2.05-0.91-2.65c-0.18-0.61-0.26-0.92-0.26-0.92s0.03,0.08,0.07,0.23
							c0.05,0.16,0.12,0.38,0.21,0.68c0.21,0.59,0.51,1.48,0.94,2.64c0.84,2.31,2.1,5.7,3.74,10.06
							c3.28,8.72,8.08,21.31,14.03,36.81l-0.1-0.07c3.35-0.42,6.86-0.86,10.5-1.32c3.63-0.52,7.39-1.25,11.27-1.98
							c7.76-1.49,16.01-3.16,24.68-4.96l0.12-0.02l0.03,0.13c2.12,9.18,4.35,18.8,6.65,28.75l0.03,0.15l-0.13,0.04
							c-7.29,2.04-14.79,4.01-22.46,5.98c-9.79,2.5-19.38,4.85-28.68,6.83c-4.65,0.98-9.24,1.9-13.77,2.5
							c-1.13,0.15-2.26,0.27-3.39,0.33l-0.85,0.04l-0.85-0.02c-0.57,0-1.15-0.17-1.66-0.45c-1.02-0.57-1.88-1.4-2.66-2.28
							c-0.78-0.88-1.48-1.83-2.15-2.8c-2.64-3.9-4.74-8.05-6.72-12.11c-1.96-4.07-3.73-8.09-5.4-12.01
							c-3.33-7.83-6.21-15.24-8.89-21.97c-0.67-1.68-1.33-3.32-2.01-4.9c-0.65-1.59-1.49-3.03-2.06-4.58
							c-1.17-3.06-1.95-6.09-2.54-8.94c-1.15-5.72-1.44-10.83-1.04-14.94c0.38-4.11,1.43-7.18,2.43-9.04
							c0.12-0.23,0.24-0.45,0.35-0.66c0.12-0.2,0.24-0.38,0.34-0.55c0.11-0.17,0.2-0.32,0.29-0.47c0.1-0.13,0.19-0.25,0.27-0.36
							C4.17,167.55,4.34,167.34,4.34,167.34z"/>
					</g>
				</g>
			</g>
			<g>
				<g>
					<g>
						<path style="fill:#263238;" d="M4.74,166.61c-0.01-0.01,0.08-0.08,0.24-0.22c0.17-0.13,0.41-0.34,0.74-0.56
							c0.65-0.47,1.64-1.07,2.94-1.64c1.29-0.57,2.9-1.07,4.73-1.3c1.82-0.24,3.87-0.18,5.95,0.31c2.08,0.51,3.97,1.39,5.55,2.44
							c1.58,1.05,2.87,2.24,3.84,3.35c0.97,1.11,1.66,2.11,2.09,2.84c0.22,0.35,0.37,0.65,0.47,0.85c0.1,0.2,0.15,0.3,0.15,0.31
							c-0.02,0.01-0.25-0.39-0.71-1.09c-0.45-0.7-1.15-1.67-2.13-2.75c-0.98-1.08-2.26-2.24-3.83-3.26
							c-1.57-1.02-3.43-1.88-5.48-2.38c-2.05-0.48-4.06-0.54-5.87-0.33c-1.81,0.22-3.4,0.68-4.68,1.22
							c-1.29,0.54-2.28,1.1-2.95,1.54C5.12,166.37,4.76,166.64,4.74,166.61z"/>
					</g>
				</g>
			</g>
		</g>
		<g>
			<g>
				<g>
					<path style="fill:#263238;" d="M51.86,228.03c0.03,0.03-0.44,0.7-1.19,1.8c-0.75,1.09-1.78,2.62-2.85,4.34
						c-1.08,1.73-2,3.33-2.66,4.49c-0.66,1.17-1.06,1.89-1.1,1.87c-0.02-0.01,0.06-0.21,0.22-0.55c0.16-0.34,0.4-0.83,0.71-1.43
						c0.62-1.2,1.52-2.82,2.6-4.56c1.08-1.73,2.13-3.24,2.93-4.3c0.4-0.53,0.72-0.95,0.96-1.24
						C51.7,228.17,51.84,228.02,51.86,228.03z"/>
				</g>
			</g>
		</g>
		<g>
			<g>
				<g>
					<path style="fill:#263238;" d="M118.22,162.9c-0.01,0-0.04-0.17-0.08-0.49c-0.04-0.36-0.1-0.83-0.17-1.4
						c-0.13-1.25-0.32-2.97-0.54-5.03l0.1,0.11c-2.17-0.34-4.76-0.75-7.54-1.2c-3.54-0.59-6.76-1.12-9.19-1.53l0.12-0.11
						c0,1.54,0,2.8,0,3.73c-0.01,0.41-0.01,0.75-0.01,1.02c-0.01,0.23-0.01,0.35-0.02,0.35c-0.01,0-0.02-0.12-0.03-0.35
						c-0.01-0.27-0.02-0.6-0.04-1.01c-0.02-0.93-0.05-2.19-0.09-3.73l0-0.13l0.12,0.02c2.44,0.38,5.66,0.89,9.2,1.45
						c2.78,0.46,5.37,0.89,7.54,1.25l0.09,0.01l0.01,0.1c0.18,2.06,0.33,3.78,0.44,5.04c0.04,0.58,0.08,1.04,0.1,1.41
						C118.23,162.72,118.24,162.9,118.22,162.9z"/>
				</g>
			</g>
		</g>
		<g>
			<g>
				<g>
					<path style="fill:#263238;" d="M71.55,207.2c-0.01,0-0.04-0.13-0.1-0.39c-0.06-0.29-0.14-0.67-0.24-1.14
						c-0.21-1-0.49-2.44-0.84-4.23c-0.69-3.57-1.59-8.52-2.51-14c-0.92-5.48-1.68-10.46-2.2-14.06c-0.26-1.8-0.46-3.26-0.59-4.28
						c-0.06-0.48-0.11-0.87-0.14-1.17c-0.03-0.27-0.04-0.41-0.03-0.41c0.01,0,0.04,0.14,0.09,0.4c0.05,0.29,0.11,0.68,0.19,1.16
						c0.17,1.04,0.4,2.49,0.68,4.26c0.57,3.6,1.36,8.56,2.28,14.04c0.92,5.48,1.79,10.43,2.43,14.01c0.31,1.77,0.57,3.21,0.75,4.24
						c0.08,0.48,0.14,0.86,0.19,1.16C71.54,207.06,71.56,207.2,71.55,207.2z"/>
				</g>
			</g>
		</g>
	</g>
	<g>
		<g>
			<g>
				<path style="fill:#FFBF9D;" d="M106.1,219.1l12.19-10.72c0,0,12.45-2.74,15.33-2.68c2.88,0.06,9.61,1.7,9.61,1.7
					s1.47,3.96-2.67,3.66l-3.32,0.24l7.04,1.52c0,0,1.11,3.86-2.91,3.9c-4.02,0.04-7.6-0.68-7.6-0.68l-7.23,2.35l15.22,0.84
					c0,0,3.05,0.22,1.92,2.87c-0.45,1.05-6.05,1.53-6.05,1.53s1.67,2.93-0.95,3.75c-2.66,0.83-12.88,3.98-12.88,3.98
					s-12.43,4.82-12.7,4.75c-0.05-0.01-7.44,4.23-7.44,4.23l-4.64-19.15L106.1,219.1z"/>
			</g>
		</g>
		<g>
			<g>
				<g>
					<path style="fill:#FF9A6C;" d="M144.03,212.76c0,0.02-0.3-0.02-0.83-0.11c-0.58-0.11-1.34-0.25-2.26-0.41
						c-0.97-0.19-2.1-0.41-3.34-0.65c-0.63-0.13-1.29-0.26-1.97-0.39c-0.68-0.12-1.39-0.13-2.12-0.1c-2.93,0.19-5.53,0.94-7.39,1.49
						c-0.93,0.28-1.68,0.54-2.19,0.72c-0.52,0.18-0.8,0.27-0.81,0.25c-0.01-0.02,0.27-0.15,0.78-0.37c0.51-0.21,1.25-0.5,2.17-0.81
						c1.85-0.61,4.46-1.4,7.43-1.59c0.74-0.04,1.47-0.02,2.17,0.1c0.68,0.14,1.34,0.28,1.97,0.41c1.24,0.27,2.37,0.51,3.34,0.72
						c0.91,0.21,1.67,0.38,2.24,0.51C143.75,212.65,144.04,212.73,144.03,212.76z"/>
				</g>
			</g>
		</g>
		<g>
			<g>
				<g>
					<path style="fill:#FF9A6C;" d="M123.79,225.2c0-0.02,0.18-0.07,0.5-0.15c0.33-0.08,0.8-0.19,1.39-0.31
						c1.18-0.25,2.82-0.58,4.64-0.93l0.01,0l0.01,0c0.1,0,0.2-0.01,0.31-0.01c1.92-0.09,3.66-0.15,4.92-0.18
						c0.63-0.01,1.14-0.02,1.49-0.02c0.35,0,0.55,0.01,0.55,0.04c0,0.02-0.19,0.05-0.54,0.08c-0.35,0.03-0.86,0.07-1.49,0.12
						c-1.26,0.08-3,0.18-4.92,0.27c-0.11,0-0.21,0.01-0.31,0.01l0.02,0c-1.83,0.35-3.47,0.64-4.66,0.84
						c-0.59,0.1-1.07,0.17-1.41,0.22C123.98,225.2,123.8,225.22,123.79,225.2z"/>
				</g>
			</g>
		</g>
	</g>
	<g>
		<g>
			<g>
				<g>
					<g>
						<g>
							<g>
								<g>
									<g>
										<g>
											<g>
												<path d="M51.32,73.72c1.45-4.91,4.93-7.16,9.38-8.55c4.45-1.39,9.49-0.15,13,3.21c2.35,2.25,4.12,5.41,6.98,6.73
													c4.71,2.17,10.53-1.5,15.01,1.21c2.65,1.6,4.05,5.42,3.16,8.64c-0.89,3.22-3.97,5.49-6.96,5.14
													c3.07,1.48,3.79,6.54,1.8,9.55c-1.99,3.01-5.8,3.95-9.05,3.06c-3.24-0.89-5.99-3.3-8.34-5.95
													c-2.35-2.65-4.43-5.62-6.97-8.05c-2.54-2.43-5.66-4.35-9-4.36c-4.52-0.01-8.58,3.55-10.82,7.95
													c-2.24,4.4-2.96,9.54-3.47,14.57c-0.5,5.03-0.84,10.16-2.42,14.9c-0.19,0.56-0.46,1.18-0.97,1.32
													c-0.74,0.21-1.32-0.7-1.65-1.48c-3.67-8.78-5.79-18.37-6.18-28.06c-0.23-5.63,0.17-10.91,3.15-15.45
													C40.95,73.56,48.07,70.53,51.32,73.72"/>
											</g>
										</g>
									</g>
								</g>
							</g>
						</g>
					</g>
				</g>
				<g>
					<g>
						<g>
							<g>
								<g>
									<g>
										<g>
											<g>
												<g>
													<g>
														<g>
															<g>
																<g>
																	<g>
																		<g>
																			<g>
																				<g>
																					<g>
																						<g>
																							<g>
																								<g>
																									<path style="fill:#FFBF9D;" d="M67.05,148.25C67.05,148.25,66.99,148.68,67.05,148.25
																										c0,0,12.96,0.12,15.19-14.01c1.08-6.83,2.27-21.09,3.22-34c1.02-13.87-7.66-26.29-19.93-28.53l-1.22-0.22
																										c-13.28-1.55-21.87,10.21-22.89,25.11l-3.83,41.93v2.17l26.99,25.39L67.05,148.25"/>
																								</g>
																							</g>
																						</g>
																					</g>
																				</g>
																			</g>
																		</g>
																	</g>
																</g>
															</g>
														</g>
													</g>
												</g>
											</g>
										</g>
										<g>
											<g>
												<g>
													<g>
														<g>
															<g>
																<g>
																	<g>
																		<g>
																			<g>
																				<g>
																					<g>
																						<g>
																							<g>
																								<g>
																									<path style="fill:#FF9A6C;" d="M67.05,148.25c0,0-8.04-0.94-15.66-8.47c0,0,2.08,13.1,14.87,14.14
																										L67.05,148.25z"/>
																								</g>
																							</g>
																						</g>
																					</g>
																				</g>
																			</g>
																		</g>
																	</g>
																</g>
															</g>
														</g>
													</g>
												</g>
											</g>
										</g>
									</g>
								</g>
							</g>
							<g>
								<g>
									<g>
										<g>
											<g>
												<g>
													<g>
														<g>
															<g>
																<g>
																	<g>
																		<g>
																			<g>
																				<g>
																					<g>
																						<g>
																							<g>
																								<g>
																									<g>
																										<g>
																											<g>
																												<path style="fill:#263238;" d="M81.1,112.44c-0.12,1.07-1.03,1.84-2.04,1.72
																													c-1-0.12-1.72-1.09-1.59-2.16c0.12-1.07,1.04-1.84,2.04-1.72C80.51,110.4,81.22,111.37,81.1,112.44z"/>
																											</g>
																										</g>
																									</g>
																								</g>
																							</g>
																						</g>
																					</g>
																				</g>
																			</g>
																		</g>
																	</g>
																</g>
															</g>
														</g>
													</g>
													<g>
														<g>
															<g>
																<g>
																	<g>
																		<g>
																			<g>
																				<g>
																					<g>
																						<g>
																							<g>
																								<g>
																									<g>
																										<g>
																											<g>
																												<g>
																													<path style="fill:#263238;" d="M81.87,107.66c-0.24,0.26-1.58-0.96-3.54-1.05
																														c-1.96-0.12-3.45,0.94-3.65,0.66c-0.1-0.12,0.15-0.59,0.8-1.08c0.64-0.48,1.71-0.92,2.94-0.85
																														c1.22,0.07,2.23,0.63,2.81,1.17C81.8,107.05,81.99,107.55,81.87,107.66z"/>
																												</g>
																											</g>
																										</g>
																									</g>
																								</g>
																							</g>
																						</g>
																					</g>
																				</g>
																			</g>
																		</g>
																	</g>
																</g>
															</g>
														</g>
													</g>
												</g>
												<g>
													<g>
														<g>
															<g>
																<g>
																	<g>
																		<g>
																			<g>
																				<g>
																					<g>
																						<g>
																							<g>
																								<g>
																									<g>
																										<g>
																											<g>
																												<g>
																													<path style="fill:#263238;" d="M63.53,109.16c-0.26,0.24-1.57-1.09-3.59-1.34
																														c-2.02-0.28-3.62,0.65-3.81,0.36c-0.09-0.13,0.19-0.58,0.89-1.01c0.69-0.43,1.83-0.78,3.09-0.61
																														c1.26,0.17,2.27,0.81,2.82,1.4C63.49,108.55,63.66,109.05,63.53,109.16z"/>
																												</g>
																											</g>
																										</g>
																									</g>
																								</g>
																							</g>
																						</g>
																					</g>
																				</g>
																			</g>
																		</g>
																	</g>
																</g>
															</g>
														</g>
													</g>
												</g>
												<g>
													<g>
														<g>
															<g>
																<g>
																	<g>
																		<g>
																			<g>
																				<g>
																					<g>
																						<g>
																							<g>
																								<g>
																									<g>
																										<g>
																											<g>
																												<path style="fill:#263238;" d="M67.27,121.02c0.01-0.13,1.25-0.14,3.25-0.06
																													c0.5,0.03,0.99,0.01,1.13-0.35c0.18-0.38,0.06-1.02-0.09-1.71c-0.27-1.43-0.55-2.93-0.85-4.5
																													c-1.16-6.39-1.91-11.62-1.68-11.67c0.23-0.05,1.35,5.09,2.51,11.49c0.27,1.57,0.54,3.08,0.78,4.51
																													c0.1,0.67,0.31,1.44-0.06,2.23c-0.19,0.39-0.6,0.63-0.93,0.66c-0.33,0.05-0.61,0.01-0.86-0.02
																													C68.48,121.35,67.26,121.14,67.27,121.02z"/>
																											</g>
																										</g>
																									</g>
																								</g>
																							</g>
																						</g>
																					</g>
																				</g>
																			</g>
																		</g>
																	</g>
																</g>
															</g>
														</g>
													</g>
												</g>
											</g>
										</g>
									</g>
									<g>
										<g>
											<g>
												<g>
													<g>
														<g>
															<g>
																<g>
																	<g>
																		<g>
																			<g>
																				<g>
																					<g>
																						<g>
																							<g>
																								<path style="fill:#263238;" d="M64.61,96.97c-0.25,0.56-1.84-0.02-3.81-0.06c-1.97-0.1-3.63,0.37-3.8-0.21
																									c-0.08-0.27,0.28-0.78,0.99-1.24c0.71-0.46,1.78-0.82,2.96-0.78c1.18,0.04,2.2,0.48,2.85,0.99
																									C64.43,96.17,64.72,96.7,64.61,96.97z"/>
																							</g>
																						</g>
																					</g>
																				</g>
																			</g>
																		</g>
																	</g>
																</g>
															</g>
														</g>
													</g>
												</g>
											</g>
										</g>
									</g>
									<g>
										<g>
											<g>
												<g>
													<g>
														<g>
															<g>
																<g>
																	<g>
																		<g>
																			<g>
																				<g>
																					<g>
																						<g>
																							<g>
																								<path style="fill:#263238;" d="M81.93,100.26c-0.41,0.43-1.68-0.33-3.28-0.65
																									c-1.6-0.38-3.02-0.21-3.26-0.79c-0.1-0.28,0.19-0.73,0.85-1.09c0.65-0.36,1.69-0.56,2.79-0.32
																									c1.1,0.24,1.99,0.87,2.48,1.47C82.01,99.51,82.12,100.05,81.93,100.26z"/>
																							</g>
																						</g>
																					</g>
																				</g>
																			</g>
																		</g>
																	</g>
																</g>
															</g>
														</g>
													</g>
												</g>
											</g>
										</g>
									</g>
								</g>
							</g>
						</g>
					</g>
				</g>
				<g>
					<g>
						<g>
							<g>
								<g>
									<g>
										<g>
											<g>
												<g>
													<g>
														<g>
															<g>
																<g>
																	<g>
																		<g>
																			<g>
																				<path style="fill:#FFBF9D;" d="M40.92,107.26c-0.2-0.14-8.26-4.47-9.4,5.26c-1.14,9.73,7.82,9,7.86,8.72
																					C39.43,120.97,40.92,107.26,40.92,107.26z"/>
																			</g>
																		</g>
																	</g>
																</g>
															</g>
														</g>
													</g>
												</g>
											</g>
										</g>
									</g>
								</g>
							</g>
						</g>
					</g>
					<g>
						<g>
							<g>
								<g>
									<g>
										<g>
											<g>
												<g>
													<g>
														<g>
															<g>
																<g>
																	<g>
																		<g>
																			<g>
																				<g>
																					<path style="fill:#FF9A6C;" d="M37.16,117.17c-0.03-0.04-0.17,0.1-0.44,0.19c-0.26,0.09-0.7,0.12-1.13-0.14
																						c-0.87-0.51-1.45-2.26-1.29-4.02c0.08-0.89,0.35-1.71,0.71-2.36c0.35-0.67,0.82-1.11,1.29-1.13
																						c0.47-0.05,0.76,0.31,0.84,0.6c0.08,0.29,0.01,0.47,0.05,0.5c0.02,0.03,0.21-0.14,0.18-0.55
																						c-0.01-0.2-0.09-0.44-0.27-0.66c-0.19-0.22-0.48-0.36-0.81-0.37c-0.68-0.05-1.36,0.55-1.76,1.28
																						c-0.43,0.72-0.75,1.64-0.84,2.63c-0.17,1.97,0.51,3.93,1.72,4.52c0.59,0.27,1.12,0.14,1.41-0.05
																						C37.12,117.4,37.19,117.19,37.16,117.17z"/>
																				</g>
																			</g>
																		</g>
																	</g>
																</g>
															</g>
														</g>
													</g>
												</g>
											</g>
										</g>
									</g>
								</g>
							</g>
						</g>
					</g>
				</g>
				<g>
					<g>
						<g>
							<path d="M87.54,87.09c-0.72-2.99-2.4-5.58-4.3-7.82c-4.11-4.83-9.51-8.35-15.37-9.53C62,68.56,55.7,69.82,50.79,73.59
								c-3.93,3.02-6.87,7.51-8.65,12.46c-1.78,4.95-2.45,10.34-2.38,15.68c0.03,2.34,0.24,4.81,1.42,6.74
								c0.74,1.21,2.17,2.18,3.32,1.48c0.68-0.41,1.03-1.26,1.33-2.05c2.76-7.16,5.57-14.89,4.18-22.53c2-2.11,4.26-4,6.85-5.03
								c2.59-1.03,5.56-1.13,8.03,0.24c3.66,2.03,5.42,6.67,8.06,10.15c3.78,4.98,9.81,7.7,15.62,7.06L87.54,87.09z"/>
						</g>
					</g>
				</g>
			</g>
			<g>
				<g>
					<g>
						<g>
							<g>
								<g>
									<g>
										<path style="fill:#FF9A6C;" d="M67.56,127.24c-0.35,0.84-0.7,1.7-1.25,2.4c-0.55,0.7-1.32,1.23-2.15,1.22
											c-0.88-0.01-1.7-0.65-2.16-1.5c-0.45-0.85-0.57-1.89-0.48-2.87c0.08-0.89,0.5-1.93,1.3-1.99c0.33-0.02,0.65,0.14,0.95,0.3
											c1.36,0.72,2.71,1.44,4.07,2.15"/>
									</g>
								</g>
							</g>
						</g>
					</g>
				</g>
				<g>
					<g>
						<g>
							<g>
								<g>
									<g>
										<g>
											<path style="fill:#263238;" d="M65.7,130.97c-0.01-0.15-0.95,0.21-2.21-0.45c-0.61-0.32-1.26-0.92-1.59-1.81
												c-0.33-0.89-0.35-2.06,0.1-3.05c0.1-0.25,0.25-0.47,0.4-0.67c0.17-0.18,0.14-0.18,0.32-0.14
												c0.17,0.06,0.43,0.22,0.65,0.34c0.23,0.12,0.45,0.24,0.67,0.36c0.87,0.46,1.66,0.86,2.33,1.19
												c1.34,0.66,2.18,1.01,2.23,0.91c0.05-0.1-0.72-0.64-2-1.44c-0.64-0.4-1.4-0.85-2.26-1.35c-0.21-0.12-0.43-0.25-0.66-0.38
												c-0.24-0.13-0.42-0.26-0.74-0.4c-0.16-0.06-0.39-0.11-0.62-0.02c-0.23,0.09-0.37,0.24-0.48,0.38
												c-0.2,0.27-0.38,0.54-0.51,0.86c-0.55,1.24-0.51,2.66-0.06,3.74c0.46,1.1,1.29,1.76,2.02,2.05
												c0.74,0.31,1.38,0.28,1.8,0.19C65.51,131.16,65.72,131.02,65.7,130.97z"/>
										</g>
									</g>
								</g>
							</g>
						</g>
					</g>
				</g>
			</g>
		</g>
		<g>
			<g>
				<g>
					<g>
						<path style="fill:#455A64;" d="M98.04,79.08c0.02,0,0.03,0.23,0.02,0.67c-0.04,0.43-0.11,1.09-0.39,1.87
							c-0.52,1.55-1.92,3.67-4.43,4.85c-2.5,1.21-5.94,0.97-9.17-0.62c-3.28-1.55-6.24-4.4-9.41-7.12
							c-3.15-2.71-6.55-4.92-9.98-5.23c-3.42-0.36-6.46,0.98-8.63,2.54c-2.2,1.57-3.64,3.36-4.54,4.64
							c-0.89,1.3-1.28,2.11-1.33,2.07c-0.02-0.01,0.07-0.22,0.26-0.6c0.17-0.39,0.48-0.93,0.9-1.62c0.86-1.34,2.28-3.21,4.5-4.87
							c2.18-1.64,5.31-3.09,8.89-2.75c3.6,0.3,7.11,2.58,10.28,5.31c3.19,2.74,6.1,5.56,9.28,7.08c3.12,1.57,6.41,1.84,8.81,0.74
							c2.42-1.08,3.81-3.07,4.37-4.53C98.05,80.03,97.96,79.07,98.04,79.08z"/>
					</g>
				</g>
			</g>
		</g>
		<g>
			<g>
				<g>
					<g>
						<path style="fill:#455A64;" d="M36.1,91.12c-0.06-0.02,0.19-1.04,0.95-2.5c0.74-1.46,2.05-3.33,3.9-4.89
							c0.92-0.78,1.88-1.39,2.79-1.86c0.91-0.47,1.83-0.73,2.62-0.66c0.79,0.07,1.38,0.42,1.7,0.75c0.32,0.33,0.41,0.59,0.38,0.61
							c-0.05,0.09-0.65-0.89-2.1-0.91c-1.41-0.02-3.27,1.12-5.05,2.58c-1.78,1.5-3.09,3.26-3.9,4.62
							C36.57,90.22,36.19,91.16,36.1,91.12z"/>
					</g>
				</g>
			</g>
		</g>
		<g>
			<g>
				<g>
					<g>
						<path style="fill:#455A64;" d="M36.38,99.92c-0.06-0.03,0.26-1.02,1.1-2.44c0.83-1.42,2.23-3.22,4.13-4.72
							c1.91-1.49,3.89-2.36,5.37-2.75c1.48-0.39,2.42-0.39,2.42-0.32c0.01,0.11-0.9,0.26-2.32,0.76c-1.41,0.49-3.3,1.39-5.15,2.83
							c-1.84,1.45-3.24,3.14-4.13,4.46C36.91,99.05,36.46,99.97,36.38,99.92z"/>
					</g>
				</g>
			</g>
		</g>
	</g>
	<g style="opacity:0.3;">
		<g>
			<path d="M31.44,150.05l0.54,1.16l10.99,23.52l4.98-2.67l-2.84,4.87l26.69,36.27l1.77,8.49c0,0,0.17-9.73-0.76-10.78
				c-2.26-2.57-25.81-33.35-25.81-33.35l3.05-7.73l-6.8,1.8L31.44,150.05z"/>
		</g>
	</g>
	<g style="opacity:0.3;">
		<g>
			<polygon points="82.37,193.63 80.62,174.43 81.25,198.15 85.88,199.32 83.34,219.15 85.45,220.27 87.11,198.66 			"/>
		</g>
	</g>
	<g>
		<g>
			<path style="fill:#FF725E;" d="M82.27,198.22l1.09-9.32c0.1-0.81,0.81-1.34,1.51-1.12l0,0c0.58,0.18,0.95,0.81,0.87,1.47
				l-1.12,9.62L82.27,198.22z"/>
		</g>
	</g>
</g>
</svg>
