<svg xmlns="http://www.w3.org/2000/svg" viewBox="0 0 36 37.487">
  <defs/>
  <g fill="#f58862">
    <path d="M26.859 5.418h.513v.513a.732.732 0 001.464 0v-.513h.512a.732.732 0 100-1.464h-.512v-.513a.732.732 0 00-1.464 0v.513h-.513a.732.732 0 100 1.464zM4.419 23.501h-.513v-.513a.732.732 0 10-1.464 0v.513h-.513a.732.732 0 000 1.464h.513v.513a.732.732 0 001.464 0v-.513h.513a.732.732 0 000-1.464zM35.266 24.745h-.513v-.513a.732.732 0 10-1.464 0v.513h-.512a.732.732 0 100 1.464h.512v.513a.732.732 0 101.464 0v-.513h.513a.732.732 0 000-1.464z"/>
    <path d="M27.352 21.788l7.333-5.3a3.163 3.163 0 00-1.854-5.726H23.78L21.01 2.19a3.163 3.163 0 00-6.02 0l-2.77 8.568H3.17a3.163 3.163 0 00-1.854 5.726l7.333 5.3-2.805 8.577a3.131 3.131 0 001.342 3.672v2.722a.732.732 0 00.732.732h6.788a.732.732 0 100-1.464H8.65v-2.282a4.013 4.013 0 014.009-4.009h2.775l1.9 4.173a.732.732 0 001.333 0l1.9-4.173h2.777a4.013 4.013 0 014.009 4.009v2.282h-6.058a.732.732 0 000 1.464h6.789a.732.732 0 00.732-.732v-2.722a3.131 3.131 0 001.342-3.672zm-12.808-.279h5.07a3.972 3.972 0 001.845-.453V22.7a3.554 3.554 0 01-3.458 3.859 3.462 3.462 0 01-3.457-3.459v-1.59zm7.605-4a2.537 2.537 0 01-2.534 2.534h-5.071v-1.09a2.536 2.536 0 012.534-2.534h5.066zM18 31.835l-1.363-2.994v-1.013a4.915 4.915 0 002.726 0v1.012zm10.6.4a5.482 5.482 0 00-5.256-3.967h-2.516v-1.159a5.373 5.373 0 002.1-4.411v-2.947a3.975 3.975 0 00.689-2.241v-1.823a.732.732 0 00-.732-.732h-5.8a4 4 0 00-4 4V23.1a4.919 4.919 0 002.1 4.026v1.143h-2.527a5.482 5.482 0 00-5.262 3.971 1.637 1.637 0 01-.162-1.422l2.973-9.082a.732.732 0 00-.267-.821L2.175 15.3a1.7 1.7 0 011-3.075h9.579a.732.732 0 00.7-.507l2.93-9.077a1.7 1.7 0 013.233 0l2.933 9.075a.732.732 0 00.7.507h9.584a1.7 1.7 0 011 3.075l-7.766 5.616a.732.732 0 00-.267.821l2.973 9.082a1.637 1.637 0 01-.162 1.422z"/>
    <path d="M18 36.023a.733.733 0 10.518.215.738.738 0 00-.518-.215z"/>
  </g>
</svg>
