<svg xmlns="http://www.w3.org/2000/svg" viewBox="0 0 35 39.744">
  <defs/>
  <g data-name="Group 3345">
    <g data-name="Group 3344">
      <path fill="#f58862" d="M29.167 6.999h-2.333a1.167 1.167 0 000 2.333h2.333a1.167 1.167 0 100-2.333z" data-name="Path 57784"/>
    </g>
  </g>
  <g data-name="Group 3347">
    <g data-name="Group 3346">
      <path fill="#f58862" d="M17.377 2.978L16.211.644a1.167 1.167 0 00-2.087 1.044l1.169 2.333a1.167 1.167 0 102.087-1.044z" data-name="Path 57785"/>
    </g>
  </g>
  <g data-name="Group 3349">
    <g data-name="Group 3348">
      <path fill="#f58862" d="M25.022.123a1.169 1.169 0 00-1.568.521l-1.167 2.333a1.167 1.167 0 102.087 1.044l1.167-2.333a1.167 1.167 0 00-.519-1.565z" data-name="Path 57786"/>
    </g>
  </g>
  <g data-name="Group 3351">
    <g data-name="Group 3350">
      <path fill="#f58862" d="M12.833 6.999H10.5a1.167 1.167 0 000 2.333h2.333a1.167 1.167 0 100-2.333z" data-name="Path 57787"/>
    </g>
  </g>
  <g data-name="Group 3353">
    <g data-name="Group 3352">
      <path fill="#f58862" d="M5.833 18.744H1.167A1.167 1.167 0 000 19.911v18.665a1.167 1.167 0 001.167 1.167h4.667a1.167 1.167 0 001.167-1.167V19.911a1.167 1.167 0 00-1.168-1.167z" data-name="Path 57788"/>
    </g>
  </g>
  <g data-name="Group 3355">
    <g data-name="Group 3354">
      <path fill="#f58862" d="M34.976 21.836a3.669 3.669 0 00-3.718-3.093h-9.1c.773-1.384 1.188-5.3 1.169-6.9a4.858 4.858 0 00-4.87-4.768h-.963a1.166 1.166 0 00-1.167 1.167c0 2.7-1.05 7.567-3.032 9.549a12.923 12.923 0 01-3.968 2.564v17.506a27.254 27.254 0 009.623 1.882h7.632a3.547 3.547 0 003.5-4.79 3.5 3.5 0 002.333-4.667 3.5 3.5 0 001.686-5.71 3.493 3.493 0 00.875-2.74z" data-name="Path 57789"/>
    </g>
  </g>
</svg>
