<?xml version="1.0" encoding="utf-8"?>
<!-- Generator: Adobe Illustrator 25.1.0, SVG Export Plug-In . SVG Version: 6.00 Build 0)  -->
<svg version="1.1" id="Layer_1" xmlns="http://www.w3.org/2000/svg" xmlns:xlink="http://www.w3.org/1999/xlink" x="0px" y="0px"
	 viewBox="0 0 300 265" style="enable-background:new 0 0 300 265;" xml:space="preserve">
<style type="text/css">
	.st0{fill:#FFFFFF;}
	.st1{fill:#AA7455;}
	.st2{fill:#063305;}
	.st3{fill:#0E440C;}
	.st4{fill:#DFE6FF;}
	.st5{fill:#81AFF4;}
	.st6{fill:none;stroke:#FFFFFF;stroke-width:0.5;stroke-miterlimit:10;}
	.st7{fill:#6893E0;}
	.st8{fill:#E3E3E5;}
	.st9{fill:url(#SVGID_1_);}
	.st10{fill:#5EC1CA;}
	.st11{fill:#A6D0F4;}
	.st12{fill:#969696;}
	.st13{fill:#1E0617;}
	.st14{fill:#354C6D;}
	.st15{fill:#355390;}
	.st16{fill:#9F2214;}
	.st17{fill:#F9BD95;}
	.st18{fill:#EFB08E;}
	.st19{fill:#010611;}
	.st20{fill:#DE6972;}
	.st21{fill:#C6CDC7;}
	.st22{fill:#BCBCBC;}
	.st23{fill:#B3FFF0;}
	.st24{fill:#C0C9ED;}
	.st25{fill:#EE008F;}
	.st26{fill:#6E8EC5;}
	.st27{fill:#E7FF00;}
	.st28{fill:#335CDF;}
	.st29{fill:#FF7699;}
	.st30{fill:none;stroke:#C0C9ED;stroke-width:3;stroke-miterlimit:10;}
	.st31{fill:#94AFE0;}
	.st32{fill:#7E2A71;}
	.st33{fill:#565656;}
	.st34{fill:#383838;}
	.st35{fill:#7895A4;}
	.st36{fill:#7884DE;}
	.st37{fill:#3A2808;}
	.st38{fill:#5A3B00;}
	.st39{fill:#6D5217;}
	.st40{fill:url(#SVGID_2_);}
	.st41{fill:#CF7ACA;}
	.st42{fill:url(#SVGID_3_);}
	.st43{fill:#FE7F20;}
	.st44{fill:url(#SVGID_4_);}
	.st45{fill:#5EC1EF;}
	.st46{opacity:0.64;fill:#FFFFFF;enable-background:new    ;}
	.st47{fill:#5C4A56;}
	.st48{fill:#E5AEFF;}
</style>
<g id="Layer_1_1_">
	<g>
		<rect class="st0" width="300" height="265"/>
	</g>
</g>
<g id="Layer_2_1_">
	<g>
		<g>
			<rect x="159.61" y="61.02" class="st1" width="117.81" height="73.43"/>
			<rect x="161.42" y="62.83" class="st2" width="114.18" height="69.8"/>
			<rect x="162.83" y="64.84" class="st3" width="111.36" height="67.78"/>
			<g>
				<g>
					<rect x="245.34" y="71.2" class="st0" width="21.48" height="30.87"/>
					<rect x="247.76" y="74.22" class="st4" width="15.89" height="6.35"/>
					<rect x="247.76" y="82.39" class="st5" width="15.89" height="1.82"/>
					<rect x="247.76" y="85.32" class="st5" width="15.89" height="1.82"/>
					<rect x="247.76" y="88.25" class="st5" width="15.89" height="1.82"/>
					<rect x="247.76" y="91.62" class="st4" width="7.04" height="7.49"/>
					<rect x="255.86" y="91.55" class="st4" width="7.72" height="1.13"/>
					<rect x="255.86" y="93.97" class="st4" width="7.72" height="1.13"/>
				</g>
				<g>
					<rect x="256.84" y="104.79" class="st0" width="9.83" height="13.01"/>
					<rect x="257.85" y="106.4" class="st4" width="7.77" height="5.85"/>
				</g>
				<g>
					<rect x="209.13" y="71.1" class="st6" width="33.49" height="16.95"/>
					<g>
						<rect x="211.15" y="73.62" class="st0" width="3.73" height="0.81"/>
						<rect x="211.15" y="75.66" class="st0" width="12.1" height="0.81"/>
						<rect x="211.15" y="77.38" class="st0" width="12.1" height="0.81"/>
						<rect x="211.15" y="79.09" class="st0" width="12.1" height="0.81"/>
						<rect x="211.15" y="80.81" class="st0" width="6.88" height="0.81"/>
					</g>
					<rect x="211.22" y="83" class="st7" width="9.83" height="3.4"/>
					<rect x="225.07" y="73.54" class="st4" width="15.28" height="7.11"/>
					<rect x="225.29" y="83.61" class="st4" width="1.66" height="1.66"/>
					<rect x="229.38" y="83.61" class="st4" width="1.66" height="1.66"/>
					<rect x="233.47" y="83.61" class="st4" width="1.66" height="1.66"/>
					<rect x="237.55" y="83.61" class="st4" width="1.66" height="1.66"/>
				</g>
				<g>
					<rect x="208.73" y="92.08" class="st0" width="11.8" height="2.42"/>
					<polyline class="st6" points="219.87,93.84 223.76,97.73 241.91,97.73 					"/>
				</g>
				<g>
					<rect x="208.73" y="100.65" class="st0" width="11.8" height="2.42"/>
					<polyline class="st6" points="219.87,102.42 223.76,106.3 241.91,106.3 					"/>
				</g>
				<g>
					<rect x="177.26" y="72.56" class="st0" width="2.8" height="0.81"/>
					<rect x="177.26" y="74.6" class="st0" width="9.08" height="0.81"/>
					<rect x="177.26" y="76.32" class="st0" width="9.08" height="0.81"/>
					<rect x="177.26" y="78.03" class="st0" width="9.08" height="0.81"/>
					<rect x="177.26" y="79.75" class="st0" width="5.16" height="0.81"/>
				</g>
				<rect x="188.91" y="72.71" class="st7" width="15.58" height="8.62"/>
				<g>
					<g>
						<path class="st0" d="M195.72,94.89h-0.36v-2.7c0-1.55-1.26-2.82-2.8-2.83l-0.07,0.01c-1.76,0-3.19-1.43-3.19-3.19v-2.7h0.36
							v2.7c0,1.55,1.26,2.82,2.8,2.83l0.07-0.01c1.76,0,3.19,1.43,3.19,3.19V94.89z"/>
						<path class="st0" d="M189.65,94.89h-0.36v-2.7c0-1.76,1.43-3.19,3.19-3.19l0.07,0.01c1.55-0.02,2.8-1.28,2.8-2.83v-2.7h0.36
							v2.7c0,1.76-1.43,3.19-3.19,3.19l-0.07-0.01c-1.55,0.02-2.8,1.28-2.8,2.83V94.89z"/>
					</g>
					<g>
						<rect x="190.36" y="83.98" class="st7" width="4.23" height="0.58"/>
						<rect x="190.36" y="85.2" class="st7" width="4.23" height="0.58"/>
						<rect x="190.36" y="86.41" class="st7" width="4.23" height="0.58"/>
					</g>
					<g>
						<rect x="190.36" y="91.18" class="st7" width="4.23" height="0.58"/>
						<rect x="190.36" y="92.39" class="st7" width="4.23" height="0.58"/>
						<rect x="190.36" y="93.61" class="st7" width="4.23" height="0.58"/>
					</g>
				</g>
				<path class="st7" d="M203.03,88.6h-3.13c-0.55,0-1-0.45-1-1v-3.13c0-0.55,0.45-1,1-1h3.13c0.55,0,1,0.45,1,1v3.13
					C204.04,88.15,203.59,88.6,203.03,88.6z"/>
				<path class="st4" d="M203.03,97.37h-3.13c-0.55,0-1-0.45-1-1v-3.13c0-0.55,0.45-1,1-1h3.13c0.55,0,1,0.45,1,1v3.13
					C204.04,96.92,203.59,97.37,203.03,97.37z"/>
				<path class="st4" d="M203.03,106.15h-3.13c-0.55,0-1-0.45-1-1v-3.13c0-0.55,0.45-1,1-1h3.13c0.55,0,1,0.45,1,1v3.12
					C204.04,105.7,203.59,106.15,203.03,106.15z"/>
			</g>
		</g>
		<path class="st8" d="M156.63,105c0,0,4.43,4.4-3.81,16.17c-8.24,11.77-15.73,20.54-15.73,20.54l-8.84-6.34
			c0,0,11.95-24.99,15.55-29.19C147.39,101.96,154.65,102.7,156.63,105z"/>
		<g>
			
				<linearGradient id="SVGID_1_" gradientUnits="userSpaceOnUse" x1="99.4907" y1="150.1174" x2="99.4907" y2="123.8145" gradientTransform="matrix(1 0 0 -1 0 264)">
				<stop  offset="0" style="stop-color:#FFFFFF"/>
				<stop  offset="1" style="stop-color:#CCFFFF"/>
			</linearGradient>
			<path class="st9" d="M99.49,132.95L99.49,132.95c-1.17,0-2.12-0.95-2.12-2.12v-16.95h4.24v16.95
				C101.61,132.01,100.66,132.95,99.49,132.95z"/>
			<path class="st10" d="M99.49,132.22L99.49,132.22c-0.81,0-1.48-0.66-1.48-1.48v-11.8h2.95v11.8
				C100.96,131.56,100.3,132.22,99.49,132.22z"/>
			<rect x="97.37" y="113.89" class="st11" width="4.24" height="1.01"/>
			<path class="st0" d="M101.42,114.47h-3.9c-0.27,0-0.49-0.22-0.49-0.49l0,0c0-0.27,0.22-0.49,0.49-0.49h3.9
				c0.27,0,0.49,0.22,0.49,0.49l0,0C101.91,114.25,101.69,114.47,101.42,114.47z"/>
		</g>
		<path class="st12" d="M135.8,224.62c0,0,23-5.14,69.3,3.03c0,0-28.44-78.68-29.65-78.68s-34.8,1.51-34.8,1.51L135.8,224.62z"/>
		<path class="st13" d="M152.83,251.44c0,0,1.15,9.34,1.15,10.26h-17.3c0,0-4.27,0,1.73-3.58c2.76-1.65,6.57-1.61,7.73-3.92
			c1.15-2.31,1.38-3.58,1.38-3.58L152.83,251.44z"/>
		<path class="st14" d="M142.85,155.73c0,0,0.69,73.12,3.46,95.73l7.27,0.35c0,0,7.27-79.69,7.5-90.07s0-11.07,0-11.07
			L142.85,155.73z"/>
		<path class="st13" d="M176.31,261.84h12.78c-0.06-4.04-2.25-12.11-2.25-12.11l-5.02,1.21c0,0,0.52,2.94-1.9,5.71
			C178.12,258.71,176.7,260.78,176.31,261.84z"/>
		<path class="st15" d="M177.91,154.58l9.92,96.88h-7.15c0,0-11.99-44.98-13.84-51.9c-1.85-6.92-15.22-44.52-15.22-44.52
			L177.91,154.58z"/>
		<path class="st15" d="M142.85,156.31c0,0,0.35,8.65,14.36,7.78l3.63-10.03L142.85,156.31z"/>
		<path class="st16" d="M155.08,98.99c0,0-7.15,3.46-9.69,7.84c-2.54,4.38-8.77,27.68-3,50.4c3.23,1.85,27.1,3.46,36.79-2.31
			c1.38-2.54,3.11-25.03,5.65-36.56s2.08-18.22-2.31-19.38c-4.38-1.15-12.92-3-12.92-3L155.08,98.99z"/>
		<path class="st17" d="M163.61,85.73l-7.96,12.46c0,0-0.35,5.71,6.92,3.11c5.54-2.42,8.13-4.67,8.13-4.67l-3.98-15.92L163.61,85.73
			z"/>
		<path class="st18" d="M157.09,95.93c6.46-0.77,10.11-4.3,11.81-6.53l-0.94-3.76l-4.37,0.12L157.09,95.93z"/>
		<path class="st17" d="M153.47,75.27c0,0-1.78,11.01,0.49,16.84c1.78,2.59,9.72,0.32,13.6-3.89c3.89-4.21,5.02-11.34,3.24-15.71
			c-1.78-4.37-10.04-4.53-12.63-3.56C155.58,69.92,153.64,73.49,153.47,75.27z"/>
		<path class="st17" d="M167.28,83.98c0,0,2.61-2.85,3.68-0.71c1.07,2.14-4.39,5.22-4.51,3.68S167.28,83.98,167.28,83.98z"/>
		<path class="st19" d="M160.43,81.94c0,0.44-0.36,0.8-0.8,0.8s-0.8-0.36-0.8-0.8s0.36-0.8,0.8-0.8S160.43,81.5,160.43,81.94z"/>
		<path class="st19" d="M155.03,81.81c0,0.44-0.36,0.8-0.8,0.8s-0.8-0.36-0.8-0.8s0.36-0.8,0.8-0.8
			C154.68,81.01,155.03,81.37,155.03,81.81z"/>
		<path class="st18" d="M156.35,82.81c0,0-1.67,3.48-1.46,3.76c0.21,0.28,1.46,0,2.16-0.49s-0.91-0.77-0.91-0.77
			S157.26,82.54,156.35,82.81z"/>
		<g>
			<path class="st20" d="M155.84,88.52l3.57-0.23c0,0-0.09,1.67-1.86,1.67C155.79,89.96,155.84,88.52,155.84,88.52z"/>
			<path class="st0" d="M157.23,88.94c0.64-0.05,1.01-0.33,1.23-0.59l-2.33,0.15C156.23,88.73,156.5,89,157.23,88.94z"/>
		</g>
		<path class="st19" d="M159.3,79.57c0,0,1.16-0.37,2.14,0.26c0.21-0.05,0.05-0.63-0.51-0.77C160.37,78.92,159.11,78.99,159.3,79.57
			z"/>
		<path class="st19" d="M153.78,79.47c0,0,1.16-0.37,2.14,0.26c0.21-0.05,0.05-0.63-0.51-0.77
			C154.84,78.82,153.59,78.89,153.78,79.47z"/>
		<path class="st19" d="M166.36,73.47c0,0-8.02,3.03-13.16,0.76c0.61-3.93,5.75-7.72,13.16-5.9c4.09,1.06,4.84,3.48,4.84,3.48
			s1.51,0,1.97,3.18c0.45,3.18-2.47,7.94-2.47,7.94s-1.92-0.23-2.82,2.19l-1.21-0.15c0,0,0.66-2.07,1.26-3.73
			C168.53,79.57,165.61,78.31,166.36,73.47z"/>
		<path class="st8" d="M170.55,96.16c0,0-6.71,70.86,10.24,133.8l27.84-1.21c0,0-18.96-60.52-21.79-76.66
			c-2.82-16.14-2.82-52.85-2.82-52.85S175.8,96.37,170.55,96.16z"/>
		<path class="st8" d="M156.18,97.22c0,0-19.77,61.43-15.53,130.72h-9.08c0,0,1.02-98.8,13.52-122.63
			C145.09,105.32,149.92,101.16,156.18,97.22z"/>
		<path class="st8" d="M183.09,99.02c0,0,6.23,0.46,7.61,14.76s1.38,25.83,1.38,25.83l-10.84,0.92c0,0-7.15-26.76-7.15-32.29
			C174.1,102.71,180.1,98.56,183.09,99.02z"/>
		<path class="st21" d="M169.35,141.51l5.63-17.51l-3.78-6.05l4.09-2.57c-0.65-5.58-3.63-16.26-4.47-19.2
			c-0.09-0.01-0.18-0.01-0.27-0.01C170.55,96.16,168.78,114.83,169.35,141.51z"/>
		<path class="st21" d="M146.9,113.87l3.13,2.93l-4.24,5.14l0.61,17.2c4.39-23.77,9.78-41.91,9.78-41.91S147.6,112.15,146.9,113.87z
			"/>
		<path class="st22" d="M185.57,141.69l-16.28-7.14c0,0,8.07,10.89,16.7,11.38C185.84,144.57,185.7,143.15,185.57,141.69z"/>
		<g>
			<path class="st17" d="M163.62,124.1c0,0,26.76,7.61,28.14,12.92s-5.07,8.53-10.38,5.77c-5.31-2.77-19.61-15.45-19.61-15.45
				L163.62,124.1z"/>
		</g>
		<path class="st8" d="M163.64,129.9l3.03-6.05c0,0,18.31,6.81,21.48,9.08c3.18,2.27,4.84,4.24,3.48,8.17
			c-1.36,3.93-8.17,4.09-11.95,1.51C175.9,140.04,163.64,129.9,163.64,129.9z"/>
		<path class="st21" d="M181.59,106.5c0,0-1.82,11.9-0.81,22.19C180.79,128.69,178.57,118.61,181.59,106.5z"/>
		<path class="st21" d="M181.04,129.6c0,0,5.3,2.42,7.41,7.26C188.45,136.86,187.39,130.96,181.04,129.6z"/>
		<g>
			<path class="st17" d="M107.74,125.51c0,0,26.76,7.61,28.14,12.92s-5.07,8.53-10.38,5.77c-5.31-2.77-19.61-15.45-19.61-15.45
				L107.74,125.51z"/>
		</g>
		<path class="st8" d="M108.36,131.72l3.03-6.05c0,0,18.31,6.81,21.48,9.08c3.18,2.27,4.84,4.24,3.48,8.17s-8.17,4.09-11.95,1.51
			C120.62,141.86,108.36,131.72,108.36,131.72z"/>
		<path class="st17" d="M107.74,125.51l-3.56-5.29l-6.81-0.76c0,0,0.79,3.48,3.33,3.48c0,0-0.15,4.24,1.06,5.98l4.13-0.18
			L107.74,125.51z"/>
		<path class="st17" d="M160.62,115.44c0,0,1.16,1.07,1.32,2.37c0.17,1.3-0.35,3.6-0.35,3.6l-2.59-2.72L160.62,115.44z"/>
		
			<rect x="140.74" y="113.05" transform="matrix(0.1082 -0.9941 0.9941 0.1082 15.4461 259.4638)" class="st23" width="23.2" height="16.14"/>
		<path class="st17" d="M163.62,124.1l-2.9-6.3l-6.46-0.81c0,0-1.21,3.13,2.32,4.34c0,0-0.91,3.92,5.19,6L163.62,124.1z"/>
		<path class="st24" d="M241.65,144.59v-14.08h-3.83v14.08c-3.24,0.85-5.63,3.79-5.63,7.29c0,4.17,3.38,7.55,7.55,7.55
			s7.55-3.38,7.55-7.55C247.28,148.38,244.88,145.44,241.65,144.59z"/>
		<rect x="237.81" y="130.51" class="st11" width="3.83" height="1.21"/>
		<path class="st0" d="M242.05,131.32h-4.64c-0.45,0-0.81-0.36-0.81-0.81l0,0c0-0.45,0.36-0.81,0.81-0.81h4.64
			c0.45,0,0.81,0.36,0.81,0.81l0,0C242.86,130.95,242.49,131.32,242.05,131.32z"/>
		<g>
			<path class="st25" d="M240.12,151.99c-3-1.1-5.32-1.13-6.69-0.97c-0.04,0.29-0.07,0.58-0.07,0.87c0,3.51,2.85,6.35,6.35,6.35
				s6.35-2.85,6.35-6.35c0-0.02,0-0.04,0-0.05C244.83,152.49,242.85,152.99,240.12,151.99z"/>
		</g>
		<g>
			<rect x="234.74" y="158.85" class="st26" width="10.29" height="1.51"/>
			<rect x="236.08" y="161.02" class="st26" width="7.6" height="0.76"/>
			<g>
				<rect x="236.08" y="160.01" class="st26" width="0.68" height="2.95"/>
				<rect x="243" y="160.01" class="st26" width="0.68" height="2.95"/>
			</g>
		</g>
		<path class="st24" d="M258.55,156.18l0.08-0.03l1.43-1.43h-3.3h-0.95h-6.52l1.43,1.43l0,0c-2.03,0.35-3.57,2.12-3.57,4.24v3.76
			h14.79v-3.76C261.95,158.32,260.49,156.6,258.55,156.18z"/>
		<rect x="248.14" y="160.16" class="st27" width="12.62" height="3.63"/>
		<path class="st24" d="M70.79,156.18l0.08-0.03l1.43-1.43H69h-0.95h-6.52l1.43,1.43l0,0c-2.03,0.35-3.57,2.12-3.57,4.24v3.76h14.79
			v-3.76C74.19,158.32,72.73,156.6,70.79,156.18z"/>
		<rect x="60.38" y="160.16" class="st10" width="12.62" height="3.63"/>
		<path class="st24" d="M111.58,158.3l0.05-0.02l0.94-0.94h-2.17h-0.63h-4.28l0.94,0.94l0,0c-1.33,0.23-2.34,1.39-2.34,2.79v2.47
			h9.72v-2.47C113.81,159.71,112.86,158.58,111.58,158.3z"/>
		<rect x="104.74" y="160.92" class="st28" width="8.29" height="2.39"/>
		<polygon class="st24" points="197.53,146.85 195.56,146.85 197.53,148.82 197.53,163.79 211.45,163.79 211.45,146.85 		"/>
		<rect x="198.74" y="155.22" class="st29" width="11.2" height="7.36"/>
		<path class="st0" d="M200.2,161.27L200.2,161.27c-0.25,0-0.45-0.2-0.45-0.45v-11.4c0-0.25,0.2-0.45,0.45-0.45l0,0
			c0.25,0,0.45,0.2,0.45,0.45v11.4C200.66,161.07,200.45,161.27,200.2,161.27z"/>
		<g>
			<rect x="165.3" y="159.15" class="st26" width="30.26" height="4.64"/>
			<rect x="163.64" y="160.37" class="st0" width="30.26" height="4.64"/>
			<rect x="168.48" y="158.35" class="st11" width="25.42" height="1.11"/>
		</g>
		<path class="st30" d="M66.4,156.33v-10.35c0-0.61,0.24-1.19,0.67-1.61l15.77-15.77c0.89-0.89,2.34-0.89,3.23,0l0,0
			c0.89,0.89,0.89,2.34,0,3.23l-5.59,5.59c-0.43,0.43-0.67,1.01-0.67,1.61v1.51c0,1.26,1.02,2.28,2.28,2.28h10.39
			c0.61,0,1.19,0.24,1.61,0.67l2.6,2.6c0.43,0.43,1.01,0.67,1.61,0.67h3.66c0.61,0,1.19,0.24,1.61,0.67l4.36,4.36
			c0.43,0.43,0.67,1.01,0.67,1.61v1.93"/>
		<g>
			<rect x="86.07" y="144.83" class="st31" width="1.01" height="18.86"/>
			<rect x="85.27" y="141.4" class="st26" width="2.72" height="3.63"/>
		</g>
		<rect x="99.39" y="148.03" class="st31" width="1.01" height="15.66"/>
		<rect x="98.58" y="145.18" class="st26" width="2.72" height="3.02"/>
		<path class="st24" d="M58.16,161.21l-6.71-8.48v-19.01h-5.18v19.01l-6.71,8.48c-0.41,0.52-0.04,1.29,0.62,1.29h17.36
			C58.2,162.5,58.57,161.73,58.16,161.21z"/>
		<rect x="46.27" y="133.72" class="st11" width="5.18" height="1.65"/>
		<rect x="45.72" y="132.91" class="st0" width="6.28" height="1.75"/>
		<path class="st30" d="M204.19,142.41V118.1c0-2.95,2.39-5.35,5.35-5.35l0,0c2.95,0,5.35,2.39,5.35,5.35v16.74
			c0,2.95,2.39,5.35,5.35,5.35h0.81c2.95,0,5.35-2.39,5.35-5.35v-16.95c0-2.95,2.39-5.35,5.35-5.35h2.82c2.95,0,5.35,2.39,5.35,5.35
			v8.17"/>
		<g>
			<rect x="219.82" y="141.96" class="st31" width="1.01" height="21.74"/>
			<rect x="219.02" y="138.53" class="st26" width="2.72" height="3.63"/>
		</g>
		<g>
			<path class="st32" d="M55.88,160.43l-2.7-3.41c-1.91,1.54-3.94,1.13-6.58,0.12c-0.75-0.29-1.34-0.4-1.8-0.39l-2.92,3.69
				c-0.31,0.39-0.03,0.97,0.47,0.97h13.06C55.92,161.4,56.19,160.82,55.88,160.43z"/>
		</g>
		<rect x="124.3" y="121.88" class="st26" width="0.91" height="38.58"/>
		<rect x="120.44" y="159.79" class="st31" width="9.23" height="3.4"/>
		<rect x="117.64" y="161.07" class="st26" width="14.83" height="2.12"/>
		<rect x="231.56" y="177.51" class="st33" width="8.47" height="10.09"/>
		<rect x="226.61" y="169.54" class="st34" width="19.06" height="6.05"/>
		<rect x="231.05" y="175.6" class="st33" width="10.19" height="3.73"/>
		<polygon class="st34" points="231.04,179.38 216.83,262.14 218.24,262.14 234.45,179.38 		"/>
		<polygon class="st34" points="241.22,179.38 255.43,262.14 254.02,262.14 237.81,179.38 		"/>
		<rect x="220.26" y="244.29" class="st34" width="31.47" height="1.51"/>
		<rect x="54.43" y="177.51" class="st33" width="8.47" height="10.09"/>
		<rect x="49.49" y="169.54" class="st34" width="19.06" height="6.05"/>
		<rect x="53.93" y="175.6" class="st33" width="10.19" height="3.73"/>
		<polygon class="st34" points="53.92,179.38 39.71,262.14 41.12,262.14 57.33,179.38 		"/>
		<polygon class="st34" points="64.1,179.38 78.31,262.14 76.9,262.14 60.69,179.38 		"/>
		<rect x="43.14" y="244.29" class="st34" width="31.47" height="1.51"/>
		<rect x="27.74" y="162.58" class="st21" width="239.66" height="3.63"/>
		<rect x="36.52" y="166.22" class="st21" width="222.11" height="4.54"/>
		<rect x="36.52" y="166.22" class="st35" width="222.11" height="0.91"/>
		<path class="st24" d="M120.07,138.86L120.07,138.86c-1.17,0-2.12-0.95-2.12-2.12v-16.95h4.24v16.95
			C122.18,137.91,121.24,138.86,120.07,138.86z"/>
		<path class="st36" d="M120.07,138.12L120.07,138.12c-0.81,0-1.48-0.66-1.48-1.48v-11.8h2.95v11.8
			C121.54,137.46,120.88,138.12,120.07,138.12z"/>
		<rect x="117.95" y="119.79" class="st11" width="4.24" height="1.01"/>
		<path class="st0" d="M121.99,120.37h-3.9c-0.27,0-0.49-0.22-0.49-0.49l0,0c0-0.27,0.22-0.49,0.49-0.49h3.9
			c0.27,0,0.49,0.22,0.49,0.49l0,0C122.49,120.15,122.27,120.37,121.99,120.37z"/>
		<g>
			<rect x="117.64" y="127.1" class="st26" width="7.26" height="0.53"/>
			<g>
				<path class="st31" d="M126.12,127.48c0,0.79-0.64,1.44-1.44,1.44c-0.79,0-1.44-0.64-1.44-1.44s0.64-1.44,1.44-1.44
					C125.47,126.05,126.12,126.69,126.12,127.48z"/>
				<circle class="st26" cx="124.68" cy="127.48" r="0.68"/>
			</g>
			<rect x="117.64" y="134.9" class="st26" width="7.26" height="0.53"/>
			<g>
				<path class="st31" d="M126.12,135.27c0,0.79-0.64,1.44-1.44,1.44c-0.79,0-1.44-0.64-1.44-1.44c0-0.79,0.64-1.44,1.44-1.44
					C125.47,133.84,126.12,134.48,126.12,135.27z"/>
				<path class="st26" d="M125.36,135.27c0,0.38-0.3,0.68-0.68,0.68c-0.38,0-0.68-0.3-0.68-0.68c0-0.38,0.3-0.68,0.68-0.68
					C125.06,134.59,125.36,134.9,125.36,135.27z"/>
			</g>
		</g>
		<g>
			<path class="st37" d="M73.57,95.33V79.14c0-4.16,3.37-7.54,7.54-7.54h53.92c4.16,0,7.54,3.37,7.54,7.54v16.2
				c0,4.16-3.37,7.54-7.54,7.54H81.1C76.94,102.87,73.57,99.5,73.57,95.33z"/>
			<path class="st38" d="M72.66,94.12v-16.2c0-4.16,3.37-7.54,7.54-7.54h53.92c4.16,0,7.54,3.37,7.54,7.54v16.2
				c0,4.16-3.37,7.54-7.54,7.54H80.19C76.03,101.66,72.66,98.29,72.66,94.12z"/>
			<path class="st39" d="M135.31,99.84H78.99c-2.5,0-4.52-2.02-4.52-4.52V76.73c0-2.5,2.02-4.52,4.52-4.52h56.32
				c2.5,0,4.52,2.02,4.52,4.52v18.59C139.84,97.82,137.81,99.84,135.31,99.84z"/>
			<path class="st38" d="M134.89,75.05H79.42c-1.39,0-2.52,1.13-2.52,2.52v22.25c0.1,0.01,0.2,0.03,0.3,0.03h59.92
				c0.1,0,0.2-0.02,0.3-0.03V77.57C137.41,76.18,136.29,75.05,134.89,75.05z"/>
			<g>
				<g>
					
						<linearGradient id="SVGID_2_" gradientUnits="userSpaceOnUse" x1="82.4058" y1="176.8641" x2="82.4058" y2="163.3461" gradientTransform="matrix(1 0 0 -1 0 264)">
						<stop  offset="0" style="stop-color:#FFFFFF"/>
						<stop  offset="1" style="stop-color:#CCFFFF"/>
					</linearGradient>
					<path class="st40" d="M86.95,99.19l-3.28-4.15v-9.29h-2.53v9.29l-3.28,4.15c-0.2,0.26-0.02,0.63,0.31,0.63h8.48
						C86.97,99.82,87.15,99.44,86.95,99.19z"/>
					<rect x="81.13" y="85.75" class="st11" width="2.53" height="0.81"/>
					<rect x="80.87" y="85.35" class="st0" width="3.07" height="0.85"/>
				</g>
				<g>
					<path class="st41" d="M85.83,98.8l-1.32-1.67c-0.94,0.75-1.93,0.55-3.22,0.06C80.92,97.05,80.63,97,80.41,97l-1.43,1.8
						c-0.15,0.19-0.02,0.47,0.23,0.47h6.38C85.85,99.28,85.99,98.99,85.83,98.8z"/>
				</g>
			</g>
			<g>
				
					<linearGradient id="SVGID_3_" gradientUnits="userSpaceOnUse" x1="92.488" y1="176.8641" x2="92.488" y2="163.3461" gradientTransform="matrix(1 0 0 -1 0 264)">
					<stop  offset="0" style="stop-color:#FFFFFF"/>
					<stop  offset="1" style="stop-color:#CCFFFF"/>
				</linearGradient>
				<path class="st42" d="M97.03,99.19l-3.28-4.15v-9.29h-2.53v9.29l-3.28,4.15c-0.2,0.26-0.02,0.63,0.31,0.63h8.48
					C97.05,99.82,97.24,99.44,97.03,99.19z"/>
				<rect x="91.22" y="85.75" class="st11" width="2.53" height="0.81"/>
				<rect x="90.95" y="85.35" class="st0" width="3.07" height="0.85"/>
			</g>
			<g>
				<path class="st43" d="M95.92,98.8l-1.32-1.67c-0.94,0.75-1.93,0.55-3.22,0.06C91.01,97.05,90.72,97,90.5,97l-1.43,1.8
					c-0.15,0.19-0.02,0.47,0.23,0.47h6.38C95.94,99.28,96.07,98.99,95.92,98.8z"/>
			</g>
			<g>
				<g>
					
						<linearGradient id="SVGID_4_" gradientUnits="userSpaceOnUse" x1="106.0855" y1="181.9616" x2="100.6386" y2="154.324" gradientTransform="matrix(1 0 0 -1 0 264)">
						<stop  offset="0" style="stop-color:#FFFFFF"/>
						<stop  offset="1" style="stop-color:#CCFFFF"/>
					</linearGradient>
					<polygon class="st44" points="98.28,82.85 96.31,82.85 98.28,84.82 98.28,99.79 112.2,99.79 112.2,82.85 					"/>
					<rect x="99.49" y="91.22" class="st45" width="11.2" height="7.36"/>
				</g>
				<path class="st0" d="M100.95,97.27L100.95,97.27c-0.25,0-0.45-0.2-0.45-0.45v-11.4c0-0.25,0.2-0.45,0.45-0.45l0,0
					c0.25,0,0.45,0.2,0.45,0.45v11.4C101.4,97.07,101.2,97.27,100.95,97.27z"/>
			</g>
			<g>
				<path class="st46" d="M137.11,72.21h-37.02v27.63h37.02c1.5,0,2.72-1.22,2.72-2.72V74.93
					C139.84,73.43,138.62,72.21,137.11,72.21z"/>
				<polygon class="st46" points="106.61,99.84 114.08,99.84 126.09,72.21 118.62,72.21 				"/>
			</g>
		</g>
		<g>
			<rect x="45.63" y="92.08" class="st47" width="22.09" height="32.08"/>
			<rect x="49.56" y="96.47" class="st0" width="4.34" height="0.81"/>
			<rect x="49.56" y="98.51" class="st0" width="14.07" height="0.81"/>
			<rect x="49.56" y="100.22" class="st48" width="14.07" height="0.81"/>
			<rect x="49.56" y="101.94" class="st48" width="14.07" height="0.81"/>
			<rect x="49.56" y="103.65" class="st48" width="8" height="0.81"/>
			<g>
				<polygon class="st6" points="52.7,107.11 50.66,107.11 49.64,108.87 50.66,110.64 52.7,110.64 53.71,108.87 				"/>
				<polygon class="st6" points="57.08,111.5 55.05,111.5 54.03,113.26 55.05,115.02 57.08,115.02 58.1,113.26 				"/>
			</g>
			<path class="st48" d="M62.6,120.98h-9.59c-0.49,0-0.88-0.39-0.88-0.88v-0.81c0-0.49,0.39-0.88,0.88-0.88h9.59
				c0.49,0,0.88,0.39,0.88,0.88v0.81C63.48,120.58,63.09,120.98,62.6,120.98z"/>
		</g>
	</g>
</g>
</svg>
