<?xml version="1.0" encoding="utf-8"?>
<!-- Generator: Adobe Illustrator 25.1.0, SVG Export Plug-In . SVG Version: 6.00 Build 0)  -->
<svg version="1.1" id="OBJECTS" xmlns="http://www.w3.org/2000/svg" xmlns:xlink="http://www.w3.org/1999/xlink" x="0px" y="0px"
	 viewBox="0 0 300 265" style="enable-background:new 0 0 300 265;" xml:space="preserve">
<style type="text/css">
	.st0{fill:#9FB5FE;}
	.st1{fill:#84A0EF;}
	.st2{fill:#EFEBEA;}
	.st3{fill:#D1DAFF;}
	.st4{fill:#E9B49D;}
	.st5{fill:#DD8947;}
	.st6{fill:#EBC162;}
	.st7{fill:#FFFFFF;}
	.st8{fill:#7BE0F1;}
	.st9{fill:#3F3E3E;}
	.st10{fill:#E0A02F;}
	.st11{fill:#DB9387;}
	.st12{fill:#D17E74;}
	.st13{fill:#ECB344;}
	.st14{fill:#272425;}
	.st15{fill:#797979;}
	.st16{fill:#B1B1B1;}
	.st17{fill:#3732A7;}
	.st18{fill:#B6C9FF;}
	.st19{fill:#4E4E4E;}
	.st20{fill:#5E5E5E;}
	.st21{fill:#D1422F;}
	.st22{fill:#D6634F;}
	.st23{fill:#DC925B;}
	.st24{fill:#E4D3D5;}
	.st25{fill:#59C7D3;}
	.st26{fill:#E0DEDF;}
	.st27{fill:#C85D6F;}
	.st28{fill:#ECCD7C;}
	.st29{fill:#FEFBF7;}
	.st30{fill:#EFE1DF;}
	.st31{fill:#A54A59;}
	.st32{fill:#4E5A68;}
	.st33{fill:#3D444D;}
	.st34{fill:#8C5233;}
	.st35{fill:#BB6C4E;}
	.st36{fill:#E6FFFF;}
	.st37{fill:#C8EBEA;}
	.st38{fill:#BE6573;}
	.st39{fill:#E16878;}
	.st40{fill:none;}
	.st41{fill:#505050;}
	.st42{fill:#CBCBCB;}
	.st43{fill:#6D7797;}
	.st44{fill:#98999B;}
	.st45{fill:#E2AC42;}
	.st46{fill:#D78C1B;}
	.st47{fill:#C8FFFF;}
	.st48{fill:#87735B;}
	.st49{fill:#AB9575;}
</style>
<g>
	<g>
		<g>
			<path class="st0" d="M209.4,258.4c0-3.5,2.5-6.3,5.6-6.3H7c-3.1,0-5.6,2.8-5.6,6.3c0,3.5,2.5,6.3,5.6,6.3h208
				C211.9,264.7,209.4,261.9,209.4,258.4z"/>
			<path class="st1" d="M294.4,252h-66.9H215c-3.1,0-5.6,2.8-5.6,6.3c0,3.5,2.5,6.3,5.6,6.3h12.6h66.9c3.1,0,5.6-2.8,5.6-6.3
				C300,254.9,297.5,252,294.4,252z"/>
		</g>
		<g>
			<path class="st2" d="M202.2,145.9l31.9,8.2v50.5c0,6.4,1.4,12.8,4,18.7l3.8,8.6c2.8,6.4,4.7,13.2,5.5,20.1l0,0h-67.5l4.5-16
				c2-7,2.1-14.4,0.4-21.4l-0.7-3.1c-0.8-3.2-3-5.9-6.1-7.3l-0.2-0.1c-5.7-2.5-8.8-8.8-7.4-14.8l7.3-31.3L202.2,145.9z"/>
			<path class="st3" d="M238,223.3l4.3,8.8l-23,8.8c-4,1.5-8.5,0.5-11.4-2.5l-2.7-2.8l-1.2,0.3c-5.7,1.3-11.7-0.1-16.3-3.7l-2.3-1.8
				v-7.1H238z"/>
			<g>
				<path class="st3" d="M225,204.1c-2.1,1.2-4.5,2.5-7.2,3.8c-2.6,1.3-5.5,2.5-8.4,3.5c-2.9,1-5.9,1.9-8.8,2.5
					c-2.9,0.7-5.6,1.1-8,1.5c2.4,0.2,5.2,0.2,8.2-0.2c3-0.4,6.1-1.1,9.1-2.2c3-1.1,5.9-2.4,8.5-4C221.1,207.5,223.3,205.7,225,204.1
					L225,204.1L225,204.1z"/>
			</g>
			<g>
				<path class="st3" d="M225.3,211.4c-3.7,1-8.4,2.3-13.3,3.3c-4.8,1-9.7,1.7-13.5,2.2c3.8,0.4,8.9,0.1,13.8-0.9
					C217.3,215.1,222,213.3,225.3,211.4L225.3,211.4L225.3,211.4z"/>
			</g>
			<g>
				<path class="st3" d="M232.3,241c-2.8,0.3-5.9,0.7-9.3,0.9c-3.4,0.2-6.9,0.3-10.5,0.2c-3.6-0.1-7.1-0.4-10.5-0.8
					c-3.3-0.4-6.5-0.9-9.2-1.4c2.5,1.1,5.6,2.1,9,2.8c3.4,0.7,7,1.2,10.7,1.3c3.7,0.1,7.3-0.2,10.7-0.7
					C226.6,242.8,229.7,242,232.3,241L232.3,241L232.3,241z"/>
			</g>
			<g>
				<path class="st3" d="M229.1,248.2c-3.6,0-8.2-0.1-12.7-0.8c-4.5-0.6-9-1.7-12.4-2.7c1.6,0.9,3.4,1.7,5.5,2.4
					c2.1,0.7,4.4,1.2,6.7,1.6c2.3,0.3,4.7,0.4,6.9,0.3C225.4,249,227.4,248.6,229.1,248.2L229.1,248.2L229.1,248.2z"/>
			</g>
		</g>
		<path class="st3" d="M214.3,150l-26.3,2.9c-4.1,3.4-7.3,9.2-7.3,9.2l6,3l-8.9,7.9c3.6,20,13.9,33.5,18,38.8l3.8,0.5
			c5.8-4.1,22.1-17.6,25.3-33.5l-9-8.6l9.8-5.7C225,162.9,220.8,153.9,214.3,150z"/>
		<g>
			<path d="M201.9,139.4c0.5-3,0.4-6.1-0.4-9.1l-11.2,14.5l1.5,3.6l0.9,2.1c2.1-0.3,4.1-1.5,5.6-3
				C200.3,145.3,201.4,142.4,201.9,139.4z"/>
			<path class="st4" d="M209.4,159.2l-0.3-11.3l-1.9-4.5l-5.5-13.2l-0.2,0.2c0.7,3,0.9,6.1,0.4,9.1c-0.5,2.9-1.6,5.9-3.6,8
				c-1.5,1.6-3.5,2.7-5.6,3l1.5,3.6l-0.9,5.2c-0.3,1.8-0.6,3.7-0.8,5.6c-0.1,3.1,0,6.2,0.4,9.3c2.4,0.7,4.9,1.2,7.4,1.5
				c2.8,0,5.5-0.2,8.2-0.6C209.2,169.8,209.5,164.5,209.4,159.2z"/>
			<path d="M192.5,164.8c-0.4,3.4-0.6,6.8-0.6,10.2c2.8,0.4,5.6,0.6,8.4,0.6c-2.5-0.3-5-0.8-7.4-1.5
				C192.6,171,192.5,167.9,192.5,164.8z"/>
		</g>
		<g>
			<polygon class="st5" points="106,212.2 111.1,214.3 114.6,216.5 115.7,214.7 113.4,212.6 			"/>
			<polygon class="st6" points="112,210.1 106,212.2 113.4,212.6 			"/>
		</g>
		<path class="st7" d="M223.8,164.2c0,0-4.9-14.9-16.7-20.9l1.9,4.5l0.3,11.3c0.1,5.3-0.1,10.6-0.8,15.8c-0.9,7-2.5,13.9-4.8,20.6
			l-6.4,18.7c0,0,19.8-18.1,25.9-35.5l-9.5-8.8L223.8,164.2z"/>
		<path class="st7" d="M191.9,175c0-5.3,0.5-10.5,1.4-15.7l0.9-5.2l-1.5-3.6l-0.9-2.1c-5.4,5.6-9.5,12.8-9.5,12.8l6.1,3.7l-8.7,8.3
			c2.7,18.9,17.6,41.1,17.6,41.1l-3.8-20C192.4,188,191.9,181.5,191.9,175z"/>
		<path class="st8" d="M208.6,175c-5.5,0.8-11.1,0.8-16.7-0.1c-0.1,6.5,0.5,13,1.7,19.4l3.8,20l6.4-18.7
			C206.1,188.9,207.7,182,208.6,175z"/>
		<g>
			<g>
				<path class="st9" d="M191.8,84.7c-3.6-1.2-7.5-1.7-11.2-0.7c-1.9,0.5-3.7,1.5-5.2,2.8c2,4.6,6.6,7.8,11.9,7.8
					c4.8,0,9.1-2.7,11.3-6.6C196.4,86.7,194.2,85.5,191.8,84.7z"/>
				<path d="M191.8,84.7c2.4,0.8,4.6,2,6.8,3.3c1.1-1.9,1.7-4.1,1.7-6.4c0-7.2-5.8-13-13-13c-7.2,0-13,5.8-13,13
					c0,1.8,0.4,3.6,1.1,5.2c1.5-1.3,3.3-2.2,5.2-2.8C184.2,83,188.2,83.5,191.8,84.7z"/>
			</g>
			<path d="M166.5,139c-4.8-5.1-9.1-10.9-11.4-17.5c-2.3-6.6-2.4-14.2,0.7-20.5c2.9-5.8,8.5-10.1,14.8-11.7c6.3-1.7,13.1-0.8,19,2.1
				c3.1-2.5,8.1-2.2,11.3,0.2c2.6,2,3.9,5.2,4.7,8.3c2.6,9.5,1.6,20-2.6,28.9C192.3,134.9,178.9,138.3,166.5,139z"/>
			<g>
				<path class="st10" d="M166.1,143.3c0.7-0.8,0.7-3.1-1.2-2.8l-0.7,1.7L166.1,143.3z"/>
				<circle class="st11" cx="163.8" cy="136.2" r="6"/>
				<path class="st12" d="M160.4,136.8c0.3,1.9,2.2,3.2,4.1,2.9c1.9-0.3,3.2-2.2,2.9-4.1c-0.3-1.9-2.2-3.2-4.1-2.9
					C161.3,133,160,134.9,160.4,136.8z"/>
				<path class="st13" d="M166.1,143.3c-0.7-0.6-1.1-1.5-1.2-2.4c0-0.2-0.2-0.4-0.5-0.4c-0.1,0-0.3,0-0.4,0c-0.2,0-0.3,0.1-0.4,0.3
					c-0.1,0.5-0.1,1,0,1.5c0.1,0.4,0.4,0.8,0.7,1.2c0.2,0.3,0.6,0.4,0.9,0.3C165.8,143.7,166.1,143.3,166.1,143.3z"/>
			</g>
			<path class="st4" d="M201.6,125.6c-3.3-1.5-12.6-6.7-16.1-19.8c-1.9,5.4-5.4,10.2-9.9,13.7c-3.7,2.9-8.1,4.8-12.7,5.6l1.6,9.2
				c1.8,10.3,11.6,17.3,22,15.5h0c10.3-1.8,17.3-11.6,15.5-22L201.6,125.6z"/>
			<g>
				<path class="st10" d="M208.1,134.6c0.7-0.8,0.8-3.1-1.2-2.8l-0.8,1.6L208.1,134.6z"/>
				<circle class="st4" cx="206.3" cy="127.2" r="6"/>
				<path class="st11" d="M209.9,127.2c0,2-1.6,3.5-3.5,3.5s-3.5-1.6-3.5-3.5c0-2,1.6-3.5,3.5-3.5S209.9,125.3,209.9,127.2z"/>
				<path class="st13" d="M208.1,134.6c-0.7-0.6-1.1-1.5-1.2-2.4c0-0.2-0.2-0.4-0.5-0.4c-0.1,0-0.3,0-0.4,0c-0.2,0-0.3,0.1-0.4,0.3
					c-0.1,0.5-0.1,1,0,1.5c0.1,0.4,0.4,0.8,0.7,1.2c0.2,0.3,0.6,0.4,0.9,0.3C207.8,135,208.1,134.6,208.1,134.6z"/>
			</g>
			<g>
				<path d="M171,122.2c-2.1,0.4-3.8,1.8-4.4,3.6c3.1-1.3,6.5-1.8,9.8-1.7C175.1,122.7,173.1,121.8,171,122.2z"/>
			</g>
			<g>
				<path d="M186.8,119.5c-2.3,0.4-4.2,2-4.9,3.9c3.5-1.3,7.2-1.9,10.9-1.9C191.4,119.9,189.2,119,186.8,119.5z"/>
			</g>
			<path class="st14" d="M189.1,124.9l-1.1,0.2c-0.3-0.2-0.6-0.4-1-0.4c-0.9,0-1.6,0.7-1.6,1.6c0,0.9,0.7,1.6,1.6,1.6
				c0.9,0,1.6-0.7,1.6-1.6c0-0.1,0-0.2,0-0.4l0.7-0.9C189.4,125,189.3,124.8,189.1,124.9z"/>
			<path class="st14" d="M168,127l1.1,0.1c0.2-0.3,0.6-0.5,0.9-0.5c0.9-0.1,1.7,0.5,1.9,1.3c0.1,0.9-0.5,1.7-1.3,1.9
				c-0.9,0.1-1.7-0.5-1.9-1.3c0-0.1,0-0.2,0-0.4l-0.8-0.7C167.8,127.2,167.9,127,168,127z"/>
			<path class="st11" d="M179.8,135.6c-1.5,0.3-3,0.4-4.4,0.4c0.4,0.9,1.3,1.5,2.2,1.5C178.6,137.4,179.4,136.5,179.8,135.6z"/>
			<path class="st7" d="M189,138.2c-4.1,1.5-8.4,2.3-12.8,2.2c1.5,2.3,4.2,3.7,6.9,3.3C185.8,143.3,188.2,140.7,189,138.2z"/>
			<g>
				<path class="st9" d="M173.2,109.3c3.8-1.9,6.5-5.2,7.7-9l-19.5,9.6C165.1,111.3,169.4,111.2,173.2,109.3z"/>
			</g>
			<g>
				<path class="st9" d="M176.3,98.4c2.3,0,4.4-1,5.8-2.5l-11.7,0.1C171.9,97.5,174,98.4,176.3,98.4z"/>
			</g>
			<g>
				<path class="st9" d="M193.2,104.6c1.6,2.3,3.9,3.7,6.5,4.1l-7.9-11.6C191.2,99.6,191.6,102.3,193.2,104.6z"/>
			</g>
		</g>
		<g>
			<g>
				<path class="st15" d="M174.3,135.1c-1.2-1.3-2.8-1.9-3.5-1.2l-3.2,2.9c0.7-0.7,2.3-0.1,3.5,1.2c1.2,1.3,1.6,2.9,0.9,3.6l3.2-2.9
					C175.9,138,175.5,136.4,174.3,135.1z"/>
				<path class="st16" d="M171.1,138c-1.2-1.3-2.8-1.9-3.5-1.2l-2.2,2c0.7-0.7,2.3-0.1,3.5,1.2c1.2,1.3,1.6,2.9,0.9,3.6l2.2-2
					C172.7,141,172.3,139.3,171.1,138z"/>
				<path class="st15" d="M168.9,140c-1.2-1.3-2.8-1.9-3.5-1.2l-4.1,3.8l4.4,4.8l4.1-3.8C170.5,143,170.1,141.4,168.9,140z"/>
			</g>
			<g>
				<path class="st15" d="M190.6,135.1c-1.2-1.3-2.8-1.9-3.5-1.2l-3.2,2.9c0.7-0.7,2.3-0.1,3.5,1.2c1.2,1.3,1.6,2.9,0.9,3.6l3.2-2.9
					C192.2,138,191.8,136.4,190.6,135.1z"/>
				<path class="st16" d="M187.4,138c-1.2-1.3-2.8-1.9-3.5-1.2l-2.2,2c0.7-0.7,2.3-0.1,3.5,1.2c1.2,1.3,1.6,2.9,0.9,3.6l2.2-2
					C189,141,188.6,139.3,187.4,138z"/>
				<path class="st15" d="M185.2,140c-1.2-1.3-2.8-1.9-3.5-1.2l-4.1,3.8l4.4,4.8l4.1-3.8C186.8,143,186.4,141.4,185.2,140z"/>
			</g>
			<path class="st17" d="M157.7,143.3l-7.3,6.7h29.7v18.6l7.2-6.6c0.8-0.7,1.2-1.7,1.2-2.8v-14c0-1.6-1.3-2.9-2.9-2.9h-25.3
				C159.3,142.2,158.4,142.6,157.7,143.3z"/>
			<path class="st17" d="M180.1,171.9v14.8c-3.2,5.6-13.9,7.3-13.9,7.3v-22.1H180.1z"/>
			<path class="st0" d="M145.7,150h37.8l-21.3,20.3c-2.8,2.7-4.4,6.4-4.4,10.3v56.3h-36.4v-58.4c0-4,1.7-7.8,4.6-10.5L145.7,150z"/>
			<path class="st1" d="M183.5,150v18.8l-11.9,10.8c-1.1,1-1.7,2.4-1.7,3.9v53.5h-12.1v-56.3c0-3.9,1.6-7.6,4.4-10.3L183.5,150z"/>
			<rect x="113.3" y="236.9" class="st18" width="52.7" height="15.1"/>
			<rect x="166" y="236.9" class="st0" width="22.3" height="15.1"/>
			<path class="st19" d="M160.8,240.4h-1.6c0.5,0,1,0.4,1,1v6.2c0,0.5-0.4,1-1,1h1.6c0.5,0,1-0.4,1-1v-6.2
				C161.8,240.9,161.3,240.4,160.8,240.4z"/>
			<path class="st20" d="M159.2,240.4h-8.5h-1.6c-0.5,0-1,0.4-1,1v6.2c0,0.5,0.4,1,1,1h1.6h8.5c0.5,0,1-0.4,1-1v-6.2
				C160.1,240.9,159.7,240.4,159.2,240.4z"/>
			<g>
				<polygon class="st21" points="158,242.3 158,247 156.3,245.4 157.4,244.3 				"/>
				<polygon class="st22" points="155.7,242.3 158,242.3 157.4,244.3 155.1,244.3 				"/>
				<polygon class="st23" points="154,245.4 156.3,245.4 157.4,244.3 155.1,244.3 				"/>
				<polygon class="st22" points="158,247 155.7,247 154,245.4 156.3,245.4 				"/>
			</g>
			<g>
				<polygon class="st21" points="153,247 153,242.3 151.3,243.8 152.5,245 				"/>
				<polygon class="st23" points="150.7,247 153,247 152.5,245 150.1,245 				"/>
				<polygon class="st22" points="149,243.8 151.3,243.8 152.5,245 150.1,245 				"/>
				<polygon class="st23" points="153,242.3 150.7,242.3 149,243.8 151.3,243.8 				"/>
			</g>
			<g>
				<path class="st19" d="M128.6,240.8h-1.5c1.3,0,2.4,1.1,2.4,2.4v3.3c0,1.3-1.1,2.4-2.4,2.4h1.5c1.3,0,2.4-1.1,2.4-2.4v-3.3
					C131,241.9,129.9,240.8,128.6,240.8z"/>
				<path class="st20" d="M127.1,240.8h-3.8h-1.5c-1.3,0-2.4,1.1-2.4,2.4v3.3c0,1.3,1.1,2.4,2.4,2.4h1.5h3.8c1.3,0,2.4-1.1,2.4-2.4
					v-3.3C129.5,241.9,128.4,240.8,127.1,240.8z"/>
			</g>
			<path class="st17" d="M114,187.4c-0.8,0-1.5,1.4-1.5,3.2c0,1.7,0.7,3.2,1.5,3.2h7.4v-6.3H114z"/>
			<path class="st17" d="M117,213.5c-2.5,0-4.6,4.3-4.6,9.6s2.1,9.6,4.6,9.6h4.4v-19.2H117z"/>
			<path class="st17" d="M117.7,181.5c-0.4,0-0.8,0.7-0.8,1.6s0.3,1.6,0.8,1.6h3.7v-3.2H117.7z"/>
			<rect x="169.9" y="208.8" class="st17" width="23.5" height="5.6"/>
		</g>
		<path class="st3" d="M223.8,175l0.1,4.4c0.3,10.1,2.6,20.1,6.9,29.2l2.8,5.8L223.8,175z"/>
		<g>
			<path class="st24" d="M218.4,224.2c-0.8-5.2-3.5-9.3-6.3-9.7c-0.3,0-0.6,0-0.9,0c-3.1,0.5-4.9,5.6-4.1,11.4
				c0.9,5.8,4.1,10.1,7.3,9.7C217.5,235.1,219.3,230,218.4,224.2z"/>
			<g>
				<path class="st4" d="M216,219.2l-14.6,1.3l0.5,10l12.9,0.9c1.1-1.6,1.9-3.4,2.2-5.3C217.3,223.8,217,221.4,216,219.2z"/>
				<path d="M219.6,218.9l-3.6,0.3c1,2.2,1.3,4.6,1,6.9c-0.3,1.9-1.1,3.7-2.2,5.3l6.4,0.4L219.6,218.9z"/>
			</g>
			<g>
				<path class="st6" d="M169.5,215l4.9-2.3c0.5-0.3,1.1-0.4,1.7-0.4l5.8-0.3c0.8,0,1.6,0.1,2.3,0.5l12.7,6.9h4.5
					c0.9,0,1.8,0.5,2.3,1.3l0,0c2.1,3.3,2.1,7.5-0.1,10.7l0,0c-0.7,1-2.1,1.4-3.2,0.8l-2.5-1.4L194,231c-3.1,0.3-6.3-0.5-8.8-2.5
					l0,0l-10.8,1c-0.6,0.1-1.2-0.4-1.3-1l0,0c-0.2-0.7,0.3-1.4,1-1.5l5.8-0.8l-8.7,0.4c-0.6,0-1.2-0.4-1.3-1.1l0,0
					c-0.1-0.6,0.3-1.3,0.9-1.5l4.5-1.3l5.2-0.6l-6.2-0.1l-4.6,0.8c-0.8,0.1-1.5-0.4-1.7-1.1l0,0c-0.2-0.7,0.2-1.4,0.9-1.7l4.8-1.9
					l6.3-1.1l-4.2-0.4l-5.1,1.4c-0.9,0.3-1.8-0.3-2-1.2l0,0C168.4,216,168.8,215.3,169.5,215z"/>
				<path class="st5" d="M185,212.8l3.6,14.3l-0.8-1.2C185.1,222.1,184.1,217.4,185,212.8L185,212.8z"/>
				<path class="st5" d="M179.8,226.2l-0.6-0.2c-2.4-0.7-4.9-0.7-7.2,0.2l-0.9,0.3L179.8,226.2z"/>
				<path class="st5" d="M180.3,222.1l-2.5-0.6c-2.4-0.5-4.9-0.3-7.1,0.7l-1.2,0.6l4.6-0.8L180.3,222.1z"/>
				<path class="st5" d="M179.8,216.9l-4.2-0.4l-5.1,1.4l3.4-2c0.9-0.6,2.1-0.6,3.1-0.2L179.8,216.9z"/>
				<path class="st5" d="M176,229.4l3.3-0.9c1.8-0.5,3.7-0.5,5.6,0l0.3,0.1L176,229.4z"/>
			</g>
			<g>
				<path class="st2" d="M253.2,216.8l-12.1-55.7c-0.8-3.5-3.5-6.3-7-7.1l0,0c-4.1,4-7,9-8.5,14.5l-1.7,6.4l9.8,39.4l-21.6,0.1
					c2.8,0.4,5.5,4.4,6.3,9.7c0.9,5.8-0.9,10.9-4.1,11.4l28-3.4C249.7,231.2,254.8,224.1,253.2,216.8z"/>
				<path class="st3" d="M233.7,214.4h14.1l-3.3-1.9C240.9,210.4,236.3,211.2,233.7,214.4L233.7,214.4z"/>
			</g>
			<g>
				<g>
					<path class="st3" d="M236.3,157.5c-1.3,0.7-2.7,1.6-4,2.8c-1.3,1.2-2.6,2.7-3.7,4.3c-1.1,1.6-1.9,3.4-2.5,5.1
						c-0.6,1.7-0.9,3.4-1,4.8c0.5-1.4,1-2.9,1.8-4.5c0.7-1.6,1.6-3.2,2.6-4.8c1-1.6,2.2-3,3.4-4.3
						C234,159.6,235.2,158.4,236.3,157.5L236.3,157.5L236.3,157.5z"/>
				</g>
				<g>
					<path class="st3" d="M225.3,174.5L225.3,174.5L225.3,174.5c1.2-1.3,2.7-3,4.4-4.4c1.6-1.5,3.4-2.8,4.9-3.8
						c-1.7,0.4-3.9,1.5-5.6,3C227.2,170.8,225.9,172.8,225.3,174.5z"/>
				</g>
				<g>
					<path class="st3" d="M241,184.4c-1.9,3-3.9,7.2-5.2,11.7c-1.3,4.5-1.9,9.1-1.8,12.6c0.8-3.4,1.8-7.9,3.1-12.3
						C238.3,192,239.8,187.8,241,184.4L241,184.4L241,184.4z"/>
				</g>
				<g>
					<path class="st3" d="M233.6,181.5c-0.9,3-1.6,7.1-1.6,11.3c-0.1,4.1,0.5,8.3,1.3,11.3c-0.1-3.2-0.2-7.2-0.2-11.3
						C233.1,188.7,233.4,184.7,233.6,181.5L233.6,181.5L233.6,181.5z"/>
				</g>
			</g>
		</g>
		<g>
			<path class="st5" d="M113,222.1c0.1-0.8,0-1.5-0.3-2.3c-0.4,0.7-0.6,1.4-0.5,2.2c-1,0-2.1-0.2-3.1-0.2c-0.1-0.1-0.2-0.3-0.3-0.5
				c-0.4-0.8-0.4-1.7-0.2-2.6c-0.7,0.3-1.2,1.1-1.2,2c0,1.1,0.9,2.1,2,2.2l3.2,0.2l2.5-0.2c0.8-0.1,1.4-0.7,1.4-1.5
				c-0.3,0.2-0.6,0.4-0.9,0.6C114.8,222.2,113.8,222.3,113,222.1z"/>
			<path class="st6" d="M115.4,219.9l-2.1-0.7l-3.5-0.5c-0.4-0.1-0.9,0-1.3,0.2c-0.2,0.8-0.1,1.8,0.2,2.6c0.1,0.2,0.2,0.3,0.3,0.5
				c1,0,2.1,0.2,3.1,0.2c-0.1-0.8,0.2-1.5,0.5-2.2c0.3,0.7,0.4,1.5,0.3,2.3c0.8,0.2,1.8,0.1,2.5-0.2c0.3-0.1,0.6-0.3,0.9-0.6
				c0,0,0,0,0,0C116.5,220.7,116.1,220.1,115.4,219.9z"/>
		</g>
		<g>
			<path class="st6" d="M113.5,226.3c-0.3-0.8-0.4-1.7-0.3-2.5c0.4,0.7,0.8,1.5,0.8,2.2c0.8-0.1,1.6-0.5,2.2-1.1
				c0.1-0.1,0.2-0.2,0.3-0.3c0-0.3,0-0.5-0.2-0.8l0,0c-0.3-0.5-0.7-0.7-1.3-0.7h-2.5l-3.2-0.2v1.1c0,0.6,0.2,1.2,0.6,1.7
				C111.1,226.1,112.3,226.4,113.5,226.3z"/>
			<path class="st5" d="M116.2,224.9c-0.6,0.6-1.4,1-2.2,1.1c-0.1-0.8-0.5-1.6-0.8-2.2c-0.1,0.8,0,1.7,0.3,2.5
				c-1.2,0.1-2.4-0.1-3.5-0.6c0.4,0.5,1,0.9,1.7,1.1l0.7,0.1c0.7,0.2,1.5,0,2.1-0.4l1.3-0.8c0.4-0.3,0.7-0.7,0.7-1.2
				C116.4,224.7,116.3,224.8,116.2,224.9z"/>
		</g>
		<g>
			<path class="st5" d="M112.7,218.6c-0.5-0.2-1.1-0.6-1.5-0.9c0.3-0.6,0.5-1.3,0.5-2c-0.5,0.4-0.9,1-1.2,1.6l-3.6-2
				c0.2-0.6,0.4-1.2,0.6-1.9c-0.5,0.4-0.9,0.9-1.1,1.6c-0.5-0.3-0.8-0.8-1-1.3c-0.1-0.3-0.1-0.7-0.1-1c-0.2,0.2-0.4,0.6-0.5,0.9
				c-0.1,0.8,0.2,1.5,0.9,1.9l6.8,4c0.9,0.5,2,0.2,2.6-0.7l0,0c0.1-0.1,0.1-0.2,0.2-0.4c-0.3,0.2-0.6,0.4-0.9,0.4
				C113.8,218.9,113.2,218.8,112.7,218.6z"/>
			<path class="st6" d="M114.3,216.1l-6.9-3.8c-0.8-0.4-1.7-0.2-2.2,0.4c0,0.3,0,0.7,0.1,1c0.2,0.5,0.5,1,1,1.3
				c0.2-0.6,0.6-1.2,1.1-1.6c-0.2,0.6-0.4,1.2-0.6,1.9l3.6,2c0.3-0.6,0.6-1.2,1.2-1.6c-0.1,0.6-0.3,1.4-0.5,2c0.5,0.3,1,0.7,1.5,0.9
				c0.5,0.2,1.1,0.4,1.7,0.3c0.3-0.1,0.7-0.2,0.9-0.4C115.6,217.6,115.2,216.6,114.3,216.1z"/>
		</g>
		<g>
			<path class="st5" d="M114.5,213.2c-0.6-0.6-1-1.3-1.4-2c-0.3-0.5-0.6-1-0.9-1.4c-0.3-0.5-0.6-1-0.7-1.5c-0.1-0.6,0.1-1.2,0.4-1.7
				c0.2-0.4,0.5-0.7,0.8-1h0c-0.8,0-1.6,0.4-2,1.2c-0.4,0.7-0.4,1.6,0.1,2.3l2.9,4.7c0.6,0.9,1.8,1.3,2.7,0.7c0,0,0.1-0.1,0.1-0.1
				c0,0,0,0-0.1,0C115.8,214.2,115.1,213.7,114.5,213.2z"/>
			<path class="st6" d="M117.4,211.8l-2-4.9c-0.4-0.9-1.2-1.4-2.1-1.4h-0.5c-0.3,0.3-0.6,0.7-0.8,1c-0.3,0.5-0.5,1.1-0.4,1.7
				c0.1,0.6,0.4,1,0.7,1.5c0.3,0.5,0.6,1,0.9,1.4c0.4,0.7,0.8,1.4,1.4,2c0.6,0.6,1.2,1.1,2,1.2c0,0,0,0,0.1,0
				C117.5,213.9,117.8,212.8,117.4,211.8z"/>
		</g>
		<g>
			<path class="st25" d="M208,178.6c0-0.1,0-0.2,0-0.3c-3,0.1-6.7,0.2-10.4,0c-2-0.1-3.9-0.3-5.8-0.5c0,0.3,0,0.6,0,0.9
				c1.8,0.4,3.8,0.7,5.7,0.8C201.4,179.8,205.1,179.4,208,178.6z"/>
			<path class="st25" d="M197.1,189.6c0,1.1,0.2,2.4,0.6,3.7c0.4,1.3,1.1,2.6,1.9,3.8c0.8,1.1,1.7,2.1,2.7,3l0.4-1.2
				c-0.7-0.8-1.3-1.7-2-2.6C199.2,194.1,198,191.6,197.1,189.6z"/>
			<path class="st25" d="M196.4,197.7c0.5,1.5,1.8,3.3,3.4,4.7c0.4,0.4,0.9,0.7,1.4,1l0.3-0.9c-0.4-0.3-0.7-0.6-1.1-0.9
				C198.9,200.3,197.5,198.8,196.4,197.7z"/>
		</g>
		<g>
			<path class="st3" d="M219.3,232.3c0.7-1.1,1.3-2.5,1.6-4c0.3-1.6,0.4-3.3,0.2-5c-0.2-1.7-0.7-3.3-1.5-4.8
				c-0.7-1.4-1.7-2.6-2.6-3.5c0.7,1.1,1.4,2.3,2,3.8c0.6,1.4,1,3,1.2,4.6c0.2,1.6,0.2,3.2,0,4.8C220,229.7,219.7,231.1,219.3,232.3
				L219.3,232.3L219.3,232.3z"/>
		</g>
		<g>
			<g>
				<path class="st26" d="M142.5,175.8h-16.2c-0.7,0-1.2-0.5-1.2-1.2c0-0.7,0.5-1.2,1.2-1.2h16.2c0.7,0,1.2,0.5,1.2,1.2
					C143.7,175.2,143.1,175.8,142.5,175.8z"/>
			</g>
			<g>
				<path class="st26" d="M153.4,175.8h-6c-0.7,0-1.2-0.5-1.2-1.2c0-0.7,0.5-1.2,1.2-1.2h6c0.7,0,1.2,0.5,1.2,1.2
					C154.5,175.2,154,175.8,153.4,175.8z"/>
			</g>
		</g>
		<g>
			<g>
				<path class="st27" d="M221.9,240.4c-3.2,0-5.8,2.6-5.8,5.8c0,3.2,2.6,5.8,5.8,5.8h40.5v-11.7H221.9z"/>
				<g>
					<path class="st28" d="M226.1,246.2c0-3.2,2.6-5.8,5.8-5.8h-2.6c-3.2,0-5.8,2.6-5.8,5.8c0,3.2,2.6,5.8,5.8,5.8h2.6
						C228.7,252,226.1,249.4,226.1,246.2z"/>
					<path class="st28" d="M245.2,246.2c0-3.2,2.6-5.8,5.8-5.8h-2.6c-3.2,0-5.8,2.6-5.8,5.8c0,3.2,2.6,5.8,5.8,5.8h2.6
						C247.8,252,245.2,249.4,245.2,246.2z"/>
				</g>
				<path class="st29" d="M255.3,246.2c0,2.4,2,4.4,4.4,4.4h29.7v-8.8h-29.7C257.3,241.8,255.3,243.8,255.3,246.2z"/>
				<g>
					<g>
						<path class="st30" d="M270.7,244.2h-15.1c-0.3,0-0.5-0.2-0.5-0.5c0-0.3,0.2-0.5,0.5-0.5h15.1c0.3,0,0.5,0.2,0.5,0.5
							C271.2,244,271,244.2,270.7,244.2z"/>
					</g>
					<g>
						<path class="st30" d="M277.1,244.2h-3.3c-0.3,0-0.5-0.2-0.5-0.5c0-0.3,0.2-0.5,0.5-0.5h3.3c0.3,0,0.5,0.2,0.5,0.5
							C277.5,244,277.3,244.2,277.1,244.2z"/>
					</g>
					<g>
						<path class="st30" d="M264.6,246.3h-9.9c-0.3,0-0.5-0.2-0.5-0.5c0-0.3,0.2-0.5,0.5-0.5h9.9c0.3,0,0.5,0.2,0.5,0.5
							C265.1,246,264.9,246.3,264.6,246.3z"/>
					</g>
					<g>
						<path class="st30" d="M282.8,246.3h-14.1c-0.3,0-0.5-0.2-0.5-0.5c0-0.3,0.2-0.5,0.5-0.5h14.1c0.3,0,0.5,0.2,0.5,0.5
							C283.3,246,283.1,246.3,282.8,246.3z"/>
					</g>
					<g>
						<path class="st30" d="M286.5,246.3h-1c-0.3,0-0.5-0.2-0.5-0.5c0-0.3,0.2-0.5,0.5-0.5h1c0.3,0,0.5,0.2,0.5,0.5
							C287,246,286.7,246.3,286.5,246.3z"/>
					</g>
					<g>
						<path class="st30" d="M273.7,248.9h-18.4c-0.3,0-0.5-0.2-0.5-0.5c0-0.3,0.2-0.5,0.5-0.5h18.4c0.3,0,0.5,0.2,0.5,0.5
							C274.2,248.7,274,248.9,273.7,248.9z"/>
					</g>
				</g>
				<path class="st31" d="M289.4,250.6h-29.7c-2.4,0-4.4-2-4.4-4.4s2-4.4,4.4-4.4h29.7c0.4,0,0.7-0.3,0.7-0.7s-0.3-0.7-0.7-0.7
					h-29.7c-3.2,0-5.8,2.6-5.8,5.8c0,3.2,2.6,5.8,5.8,5.8h29.7c0.4,0,0.7-0.3,0.7-0.7C290.1,250.9,289.8,250.6,289.4,250.6z"/>
			</g>
			<g>
				<path class="st32" d="M240.6,213.5c-2.4,0-4.4,2-4.4,4.4c0,2.4,2,4.4,4.4,4.4h30.6v-8.8H240.6z"/>
				<path class="st29" d="M265.9,217.9c0,1.8,1.5,3.3,3.3,3.3h22.4v-6.7h-22.4C267.3,214.6,265.9,216.1,265.9,217.9z"/>
				<g>
					<g>
						<path class="st30" d="M277.5,216.4h-11.4c-0.2,0-0.4-0.2-0.4-0.4c0-0.2,0.2-0.4,0.4-0.4h11.4c0.2,0,0.4,0.2,0.4,0.4
							C277.9,216.3,277.7,216.4,277.5,216.4z"/>
					</g>
					<g>
						<path class="st30" d="M282.3,216.4h-2.5c-0.2,0-0.4-0.2-0.4-0.4c0-0.2,0.2-0.4,0.4-0.4h2.5c0.2,0,0.4,0.2,0.4,0.4
							C282.6,216.3,282.5,216.4,282.3,216.4z"/>
					</g>
					<g>
						<path class="st30" d="M272.9,218h-7.5c-0.2,0-0.4-0.2-0.4-0.4c0-0.2,0.2-0.4,0.4-0.4h7.5c0.2,0,0.4,0.2,0.4,0.4
							C273.2,217.8,273.1,218,272.9,218z"/>
					</g>
					<g>
						<path class="st30" d="M286.6,218H276c-0.2,0-0.4-0.2-0.4-0.4c0-0.2,0.2-0.4,0.4-0.4h10.6c0.2,0,0.4,0.2,0.4,0.4
							C287,217.8,286.8,218,286.6,218z"/>
					</g>
					<g>
						<path class="st30" d="M289.4,218h-0.8c-0.2,0-0.4-0.2-0.4-0.4c0-0.2,0.2-0.4,0.4-0.4h0.8c0.2,0,0.4,0.2,0.4,0.4
							C289.7,217.8,289.6,218,289.4,218z"/>
					</g>
					<g>
						<path class="st30" d="M279.8,220h-13.9c-0.2,0-0.4-0.2-0.4-0.4c0-0.2,0.2-0.4,0.4-0.4h13.9c0.2,0,0.4,0.2,0.4,0.4
							C280.1,219.9,280,220,279.8,220z"/>
					</g>
				</g>
				<path class="st33" d="M291.6,221.3h-22.4c-1.8,0-3.3-1.5-3.3-3.3c0-1.8,1.5-3.3,3.3-3.3h22.4c0.3,0,0.5-0.2,0.5-0.5
					c0-0.3-0.2-0.5-0.5-0.5h-22.4c-2.4,0-4.4,2-4.4,4.4c0,2.4,2,4.4,4.4,4.4h22.4c0.3,0,0.5-0.2,0.5-0.5
					C292.1,221.5,291.9,221.3,291.6,221.3z"/>
			</g>
			<g>
				<g>
					<g>
						<path class="st34" d="M263.5,222.4H299c0.5,0,1,0.4,1,1c0,0.5-0.4,1-1,1h-35.6c-0.5,0-1-0.4-1-1
							C262.5,222.8,263,222.4,263.5,222.4z"/>
					</g>
					<g>
						<path class="st34" d="M263.5,239.4H299c0.5,0,1,0.4,1,1s-0.4,1-1,1h-35.6c-0.5,0-1-0.4-1-1S263,239.4,263.5,239.4z"/>
					</g>
					
						<rect x="263.5" y="224.3" transform="matrix(-1 -1.224647e-16 1.224647e-16 -1 562.1064 463.6678)" class="st30" width="35.1" height="15.1"/>
				</g>
				<path class="st7" d="M224.4,228.6v6.6c0,2.4,1.9,4.3,4.3,4.3h34.8v-15.1h-34.8C226.3,224.3,224.4,226.2,224.4,228.6z"/>
				<g>
					<g>
						<path class="st30" d="M239.6,227.3h-15.8c-0.3,0-0.5-0.2-0.5-0.5c0-0.3,0.2-0.5,0.5-0.5h15.8c0.3,0,0.5,0.2,0.5,0.5
							C240.1,227.1,239.9,227.3,239.6,227.3z"/>
					</g>
					<g>
						<path class="st30" d="M251,227.3h-7.6c-0.3,0-0.5-0.2-0.5-0.5c0-0.3,0.2-0.5,0.5-0.5h7.6c0.3,0,0.5,0.2,0.5,0.5
							C251.5,227.1,251.3,227.3,251,227.3z"/>
					</g>
					<g>
						<path class="st30" d="M252.2,230.7h-17.3c-0.3,0-0.5-0.2-0.5-0.5c0-0.3,0.2-0.5,0.5-0.5h17.3c0.3,0,0.5,0.2,0.5,0.5
							C252.6,230.5,252.4,230.7,252.2,230.7z"/>
					</g>
					<g>
						<path class="st30" d="M242,234.3h-15c-0.3,0-0.5-0.2-0.5-0.5c0-0.3,0.2-0.5,0.5-0.5h15c0.3,0,0.5,0.2,0.5,0.5
							C242.5,234.1,242.3,234.3,242,234.3z"/>
					</g>
					<g>
						<path class="st30" d="M257.6,234.3h-6.8c-0.3,0-0.5-0.2-0.5-0.5c0-0.3,0.2-0.5,0.5-0.5h6.8c0.3,0,0.5,0.2,0.5,0.5
							C258.1,234.1,257.9,234.3,257.6,234.3z"/>
					</g>
					<g>
						<path class="st30" d="M247.3,237.6h-23.5c-0.3,0-0.5-0.2-0.5-0.5c0-0.3,0.2-0.5,0.5-0.5h23.5c0.3,0,0.5,0.2,0.5,0.5
							C247.8,237.4,247.6,237.6,247.3,237.6z"/>
					</g>
				</g>
				<path class="st35" d="M228.7,241.3h34.8c0.5,0,1-0.4,1-1s-0.4-1-1-1h-34.8c-2.4,0-4.3-1.9-4.3-4.3v-6.6c0-2.4,1.9-4.3,4.3-4.3
					h34.8c0.5,0,1-0.4,1-1c0-0.5-0.4-1-1-1h-34.8c-3.4,0-6.2,2.8-6.2,6.2v6.6C222.5,238.5,225.2,241.3,228.7,241.3z"/>
			</g>
		</g>
		<g>
			<g>
				<path class="st36" d="M19.8,184v-16.5H32v16.5c0,3.1,1.8,5.9,4.6,7.3c7.7,4,12.8,12.1,12.5,21.4c-0.4,12.1-10.2,22-22.3,22.5
					c-13.3,0.5-24.2-10.1-24.2-23.2c0-9,5.1-16.8,12.5-20.6C18,190,19.8,187.1,19.8,184z"/>
				<path class="st37" d="M19.2,167.5h13.3c1,0,1.8-0.8,1.8-1.8l0,0c0-1-0.8-1.8-1.8-1.8H19.2c-1,0-1.8,0.8-1.8,1.8l0,0
					C17.5,166.7,18.3,167.5,19.2,167.5z"/>
				<path class="st38" d="M30.4,214.3c-2.4,0.6-4.8,1.1-7.2,1.4c-5.7,0.6-11.5-0.3-16.7-2.7c0,0,0,0,0,0
					C13.3,211.7,23.7,212.1,30.4,214.3z"/>
				<path class="st39" d="M23.2,215.7c2.4-0.3,4.8-0.8,7.2-1.4c1.6-0.4,3.2-0.8,4.8-1.1c3.3-0.6,6.8-0.9,10.1-0.1
					c-0.6,10.2-9,18.3-19.4,18.3c-10.4,0-18.9-8.2-19.4-18.5C11.7,215.4,17.5,216.3,23.2,215.7z"/>
				<path class="st39" d="M34.1,206.6c0,0.6,0.5,1.1,1.1,1.1c0.6,0,1.1-0.5,1.1-1.1c0-0.6-0.5-1.1-1.1-1.1
					C34.6,205.5,34.1,206,34.1,206.6z"/>
				<path class="st39" d="M26.6,208.2c0,0.7,0.6,1.3,1.3,1.3c0.7,0,1.3-0.6,1.3-1.3c0-0.7-0.6-1.3-1.3-1.3
					C27.2,206.9,26.6,207.4,26.6,208.2z"/>
				<path class="st39" d="M21.7,203.3c0,0.5,0.4,1,1,1c0.5,0,1-0.4,1-1c0-0.5-0.4-1-1-1C22.2,202.3,21.7,202.8,21.7,203.3z"/>
				<path class="st39" d="M27.2,199.7c0,1,0.8,1.8,1.8,1.8s1.8-0.8,1.8-1.8s-0.8-1.8-1.8-1.8S27.2,198.7,27.2,199.7z"/>
				<path class="st39" d="M19.6,196.5c0,0.6,0.5,1,1,1c0.6,0,1-0.5,1-1s-0.5-1.1-1-1.1C20.1,195.4,19.6,195.9,19.6,196.5z"/>
				<path class="st39" d="M15.7,206.6c0,0.6,0.5,1.1,1.1,1.1c0.6,0,1.1-0.5,1.1-1.1c0-0.6-0.5-1.1-1.1-1.1
					C16.2,205.5,15.7,206,15.7,206.6z"/>
				<circle class="st39" cx="25.5" cy="193.2" r="1.1"/>
				<circle class="st38" cx="35.6" cy="218.8" r="1.4"/>
				<path class="st38" d="M32.4,223.5c0,0.5,0.4,0.9,0.9,0.9c0.5,0,0.9-0.4,0.9-0.9c0-0.5-0.4-0.9-0.9-0.9
					C32.8,222.6,32.4,223,32.4,223.5z"/>
				<path class="st38" d="M26.8,219.3c0,0.8,0.7,1.5,1.5,1.5c0.8,0,1.5-0.7,1.5-1.5s-0.7-1.5-1.5-1.5
					C27.5,217.8,26.8,218.5,26.8,219.3z"/>
				<path class="st38" d="M25.7,224.8c0,0.7,0.6,1.3,1.3,1.3c0.7,0,1.3-0.6,1.3-1.3c0-0.7-0.6-1.3-1.3-1.3
					C26.3,223.5,25.7,224,25.7,224.8z"/>
				<path class="st38" d="M18.9,226.2c0,0.8,0.7,1.5,1.5,1.5c0.8,0,1.5-0.7,1.5-1.5c0-0.8-0.7-1.5-1.5-1.5
					C19.5,224.8,18.9,225.4,18.9,226.2z"/>
				<path class="st38" d="M20.3,220.3c0,0.4,0.3,0.7,0.7,0.7c0.4,0,0.7-0.3,0.7-0.7c0-0.4-0.3-0.7-0.7-0.7
					C20.6,219.5,20.3,219.9,20.3,220.3z"/>
				<path class="st38" d="M12.9,220.7c0,0.8,0.6,1.4,1.4,1.4c0.8,0,1.4-0.6,1.4-1.4c0-0.8-0.6-1.4-1.4-1.4
					C13.5,219.3,12.9,219.9,12.9,220.7z"/>
			</g>
			<path class="st40" d="M34.6,213C34.6,213,34.6,213,34.6,213C34.6,213,34.6,213,34.6,213C34.6,213,34.6,213,34.6,213z"/>
			<polygon class="st40" points="34.6,213 34.6,213 34.6,213 			"/>
			<g>
				<path class="st41" d="M88.9,247c0.6,0,1-0.5,1-1V118.5c0-0.6-0.5-1-1-1c-0.6,0-1,0.5-1,1v127.4C87.9,246.5,88.4,247,88.9,247z"
					/>
			</g>
			<polygon class="st42" points="80.5,252 97.3,252 90.6,245.9 87.2,245.9 			"/>
			<g>
				<path class="st41" d="M13.4,174.3h83.9c0.6,0,1-0.5,1-1c0-0.6-0.5-1-1-1H13.4c-0.6,0-1,0.5-1,1
					C12.4,173.9,12.8,174.3,13.4,174.3z"/>
			</g>
			<path class="st43" d="M85.3,173.3c0,2,1.7,3.7,3.7,3.7c2,0,3.7-1.7,3.7-3.7c0-2-1.7-3.7-3.7-3.7
				C86.9,169.6,85.3,171.3,85.3,173.3z"/>
			<g>
				<polygon class="st44" points="17.6,248.4 34.1,248.4 37.5,252 14.3,252 				"/>
				<polygon class="st42" points="22.7,244.7 29.1,244.7 32.4,248.4 19.4,248.4 				"/>
				<g>
					<g>
						<path class="st45" d="M19.1,233.6c2.2-0.1,4.4,1.2,5.3,3.2c0.4-1.1,0.4-2.5,0-3.6c0.9,0.1,1.7,0.5,2.3,1.1
							c0.6,0.6,0.9,1.4,1,2.3c0.9-0.9,2.4-1.2,3.6-1c-0.7,0.2-1.1,1-1.2,1.7c-0.1,0.7,0.1,1.5,0.1,2.2c0,1.3-0.5,2.5-1.4,3.4
							c-0.9,0.9-2.2,1.3-3.4,1.3c-1.7-0.1-3.6-1-4.2-2.6c-0.3-0.9-0.3-1.9-0.2-2.9c0.1-1,0.2-1.9,0-2.9
							C20.9,234.8,20,233.9,19.1,233.6z"/>
						<path class="st46" d="M22.2,237.9c-0.1,1.2-0.1,2.4,0.4,3.4c0.6,1.2,2.1,2,3.4,1.8c1.4-0.1,2.6-1.1,3-2.5
							c0.3-0.9,0.2-1.9,0.1-2.8c-0.2,0.7-0.7,1.2-1.3,1.6c-0.2-1-0.8-2-1.7-2.6c0,1.1-0.8,2.3-1.8,2.7c-0.2-1.2-1-2.2-2.1-2.6
							C22.3,237.1,22.2,237.7,22.2,237.9z"/>
					</g>
					<path class="st45" d="M22.8,226c0.7,0.3,1.2,0.9,1.5,1.6c0.3,0.7,0.4,1.4,0.7,2.1c0.2,0.7,0.5,1.4,1.1,1.9c-1.2,0-2.2-1-2.7-2
						C22.9,228.5,22.8,227.1,22.8,226z"/>
					<path class="st45" d="M30.3,233.9c0.7-1.7,2.5-2.8,4.2-2.8c-0.3,0.8-0.8,1.5-1.5,2C32.3,233.5,31.2,234,30.3,233.9z"/>
					<path class="st45" d="M18.7,233.1c-0.2-0.7-0.8-1.1-1.4-1.4c-0.6-0.3-1.2-0.7-1.5-1.4c-0.3,0.7-0.2,1.8,0.4,2.4
						C16.7,233.4,18,233.4,18.7,233.1z"/>
				</g>
			</g>
			<g>
				<path class="st2" d="M29.5,146.1c-0.3,0-0.5,0-0.7,0.1c0.2-0.7,0.3-1.4,0.3-2.1c0-1-0.2-2-0.6-2.8c3.1-0.5,5.5-3.3,5.5-6.6
					c0-3.7-3-6.7-6.7-6.7c-1.4,0-2.7,0.4-3.7,1.1c-1.2-3.9-4.9-6.8-9.3-6.8c-5.4,0-9.7,4.4-9.7,9.7s4.4,9.7,9.7,9.7
					c0.1,0,0.2,0,0.4,0c-0.2,0.7-0.4,1.5-0.4,2.3c0,4.1,3.3,7.4,7.4,7.4c0.8,0,1.6-0.1,2.4-0.4c0,0.2,0,0.3,0,0.5
					c0,1.4,0.6,2.7,1.5,3.7c-1.5,0.2-2.7,1.5-2.7,3.1c0,1.7,1.4,3.1,3.1,3.1c1.7,0,3.1-1.4,3.1-3.1c0-0.5-0.1-1-0.3-1.4
					c0.3,0,0.5,0.1,0.8,0.1c3,0,5.4-2.4,5.4-5.4C34.9,148.5,32.5,146.1,29.5,146.1z"/>
				<path class="st2" d="M36,114.7c0,3.4-2.8,6.2-6.2,6.2c-3.4,0-6.2-2.8-6.2-6.2c0-3.4,2.8-6.2,6.2-6.2
					C33.2,108.6,36,111.3,36,114.7z"/>
				<path class="st2" d="M6.2,117.8c0,1.7-1.4,3.1-3.1,3.1c-1.7,0-3.1-1.4-3.1-3.1c0-1.7,1.4-3.1,3.1-3.1
					C4.8,114.7,6.2,116.1,6.2,117.8z"/>
			</g>
			<g>
				<path class="st36" d="M76.9,173.9l-11.5-25.3c-1.7-3.7-2.5-7.6-2.5-11.7v-13.2H52.7v13.2c0,4-0.9,8-2.5,11.7l-11.5,25.3
					c-2,4.3,1.2,9.2,5.9,9.2h26.3C75.7,183.1,78.8,178.2,76.9,173.9z"/>
				<path class="st47" d="M62.8,120.9h-10c-0.8,0-1.4,0.6-1.4,1.4l0,0c0,0.8,0.6,1.4,1.4,1.4h10c0.8,0,1.4-0.6,1.4-1.4l0,0
					C64.2,121.5,63.6,120.9,62.8,120.9z"/>
				<g>
					<path class="st5" d="M47.4,160.6c2.6,1.6,5.7,2.3,8.7,1.9c1.8-0.2,3.5-0.8,5.2-1.6C58.2,160.2,51.9,158.9,47.4,160.6z"/>
					<path class="st6" d="M74.7,174.9l-7.5-16.6c-0.6,0.2-1.3,0.5-1.9,0.8c-1.3,0.6-2.7,1.3-4,1.9c-1.7,0.7-3.4,1.3-5.2,1.6
						c-3,0.4-6.1-0.3-8.7-1.9c0,0,0,0,0,0l-6.5,14.3c-0.6,1.3-0.5,2.7,0.3,3.9c0.8,1.2,2,1.9,3.5,1.9h26.3c1.4,0,2.7-0.7,3.5-1.9
						C75.2,177.6,75.3,176.2,74.7,174.9z"/>
					<path class="st5" d="M52.9,167c0,0.7-0.5,1.2-1.2,1.2c-0.7,0-1.2-0.5-1.2-1.2c0-0.7,0.5-1.2,1.2-1.2
						C52.4,165.8,52.9,166.3,52.9,167z"/>
					<path class="st5" d="M58.8,170.8c0,0.7-0.6,1.3-1.3,1.3c-0.7,0-1.3-0.6-1.3-1.3c0-0.7,0.6-1.3,1.3-1.3
						C58.2,169.5,58.8,170.1,58.8,170.8z"/>
					<path class="st5" d="M60.4,166.2c0,0.4-0.4,0.8-0.8,0.8c-0.4,0-0.8-0.4-0.8-0.8c0-0.4,0.4-0.8,0.8-0.8
						C60,165.4,60.4,165.7,60.4,166.2z"/>
					<path class="st5" d="M66.1,169c0,0.8-0.6,1.4-1.4,1.4s-1.4-0.6-1.4-1.4c0-0.8,0.6-1.4,1.4-1.4S66.1,168.2,66.1,169z"/>
					<path class="st5" d="M53.3,173.7c0,0.8-0.6,1.4-1.4,1.4c-0.8,0-1.4-0.6-1.4-1.4s0.6-1.4,1.4-1.4
						C52.7,172.3,53.3,172.9,53.3,173.7z"/>
					<path class="st5" d="M60.7,176.3c0,0.7-0.5,1.2-1.2,1.2s-1.2-0.5-1.2-1.2c0-0.7,0.5-1.2,1.2-1.2S60.7,175.6,60.7,176.3z"/>
				</g>
			</g>
			<g>
				<g>
					<path class="st41" d="M49.6,130.8h47.7c0.5,0,1-0.4,1.1-0.9c0.1-0.6-0.4-1.1-1-1.1H49.7c-0.5,0-1,0.4-1.1,0.9
						C48.5,130.2,49,130.8,49.6,130.8z"/>
				</g>
				<path class="st43" d="M85.3,129.7c0,2,1.7,3.7,3.7,3.7c2,0,3.7-1.7,3.7-3.7c0-2-1.7-3.7-3.7-3.7C86.9,126,85.3,127.7,85.3,129.7
					z"/>
			</g>
			<path class="st41" d="M111.4,210.1c0-2.2-1.8-4-4-4c-2.2,0-4,1.8-4,4c0,1.9,1.3,3.4,3,3.9v33.8c0,0.5,0.4,1,1,1c0.5,0,1-0.4,1-1
				V214C110.1,213.6,111.4,212,111.4,210.1z M107.4,212.2c-1.2,0-2.1-0.9-2.1-2.1c0-1.2,0.9-2.1,2.1-2.1c1.2,0,2.1,0.9,2.1,2.1
				C109.5,211.3,108.5,212.2,107.4,212.2z"/>
			<g>
				<g>
					<path class="st36" d="M57,202.9l1.2,3.1c0.3,0.7,0.4,1.5,0.4,2.2v28c0,3.3,2.6,6.2,5.9,6.2c3.4,0.1,6.2-2.7,6.2-6v-28.2
						c0-0.8,0.1-1.5,0.4-2.2l1.2-3.1H57z"/>
					<path class="st8" d="M66.2,221.6c-1.1-0.1-2.2-0.4-3.3-0.5c-0.6-0.1-1.3-0.1-1.9,0.1v15.2c0,2,1.6,3.7,3.7,3.7
						c2,0,3.7-1.6,3.7-3.7v-14.9C67.6,221.6,66.9,221.7,66.2,221.6z"/>
				</g>
				<g>
					<path class="st36" d="M74.6,202.9l1.2,3.1c0.3,0.7,0.4,1.5,0.4,2.2v28c0,3.3,2.6,6.2,5.9,6.2c3.4,0.1,6.2-2.7,6.2-6v-28.2
						c0-0.8,0.1-1.5,0.4-2.2l1.2-3.1H74.6z"/>
					<path class="st39" d="M83.7,221.6c-1.1-0.1-2.2-0.4-3.3-0.5c-0.6-0.1-1.3-0.1-1.9,0.1v15.2c0,2,1.6,3.7,3.7,3.7
						c2,0,3.7-1.6,3.7-3.7v-14.9C85.1,221.6,84.4,221.7,83.7,221.6z"/>
				</g>
				<g>
					<path class="st36" d="M92.1,202.9l1.2,3.1c0.3,0.7,0.4,1.5,0.4,2.2v28c0,3.3,2.6,6.2,5.9,6.2c3.4,0.1,6.2-2.7,6.2-6v-28.2
						c0-0.8,0.1-1.5,0.4-2.2l1.2-3.1H92.1z"/>
					<path class="st6" d="M101.2,221.6c-1.1-0.1-2.2-0.4-3.3-0.5c-0.6-0.1-1.3-0.1-1.9,0.1v15.2c0,2,1.6,3.7,3.7,3.7
						c2,0,3.7-1.6,3.7-3.7v-14.9C102.7,221.6,101.9,221.7,101.2,221.6z"/>
				</g>
			</g>
			<path class="st41" d="M113.5,209.2H58.8c-0.4-1.7-2-3-3.9-3c-1.9,0-3.4,1.3-3.9,3h-3.3c-0.5,0-1,0.4-1,1s0.4,1,1,1h3.3
				c0.4,1.4,1.5,2.6,2.9,2.9v33.8c0,0.5,0.4,1,1,1s1-0.4,1-1V214c1.4-0.4,2.6-1.5,2.9-2.9h54.7c0.5,0,1-0.4,1-1
				S114.1,209.2,113.5,209.2z M55,212.2c-1.2,0-2.1-0.9-2.1-2.1c0-1.2,0.9-2.1,2.1-2.1c1.2,0,2.1,0.9,2.1,2.1
				C57,211.3,56.1,212.2,55,212.2z"/>
			<path class="st48" d="M65.9,247H44c-1.8,0-3.3,1.5-3.3,3.3v1.7h28.6v-1.7C69.3,248.5,67.8,247,65.9,247z"/>
			<path class="st49" d="M117.7,247H63.1c-1.8,0-3.3,1.5-3.3,3.3v1.7H121v-1.7C121,248.5,119.5,247,117.7,247z"/>
		</g>
	</g>
</g>
</svg>
