<?xml version="1.0" encoding="utf-8"?>
<!-- Generator: Adobe Illustrator 25.1.0, SVG Export Plug-In . SVG Version: 6.00 Build 0)  -->
<svg version="1.1" id="OBJECTS" xmlns="http://www.w3.org/2000/svg" xmlns:xlink="http://www.w3.org/1999/xlink" x="0px" y="0px"
	 viewBox="0 0 300 265" style="enable-background:new 0 0 300 265;" xml:space="preserve">
<style type="text/css">
	.st0{fill:#282026;}
	.st1{fill:#FFB33A;}
	.st2{fill:#FFC299;}
	.st3{fill:#1A1A1A;}
	.st4{fill:#FF6379;}
	.st5{fill:#FFFFFF;}
	.st6{fill:#332632;}
	.st7{fill:#372632;}
	.st8{fill:#EFA573;}
	.st9{fill:#00665E;}
	.st10{display:none;fill:#DBDBDB;}
	.st11{fill:#82D992;}
	.st12{fill:none;stroke:#EFA573;stroke-width:0.6553;stroke-linecap:round;stroke-linejoin:round;stroke-miterlimit:10;}
	.st13{fill:#919191;}
	.st14{fill:#41C69B;}
	.st15{fill:url(#SVGID_1_);}
	.st16{fill:#F7931E;}
	.st17{fill:#333333;}
	.st18{fill:#ED1D24;}
	.st19{fill:#F29981;}
	.st20{fill:#ED1C24;}
	.st21{fill:#FFBFA9;}
	.st22{fill:none;stroke:#DB7665;stroke-width:0.4655;stroke-linecap:round;stroke-linejoin:round;stroke-miterlimit:10;}
	.st23{fill:none;}
	.st24{fill:#3CC599;}
	.st25{fill:#FF9FAF;}
</style>
<g>
	<g>
		<g>
			<g>
				<g>
					<g>
						<path class="st0" d="M94.5,256.9L94.5,256.9c-0.4,0.1-1-0.1-1.3-0.6l-28.3-64.8l6.7-3L95,255.4C95.3,256,95,256.6,94.5,256.9z
							"/>
						<path class="st0" d="M2.8,256.9L2.8,256.9c0.4,0.1,1-0.1,1.3-0.6l28.3-64.8l-6.7-3L2.2,255.4C1.9,256,2.2,256.6,2.8,256.9z"/>
					</g>
				</g>
				<path class="st1" d="M89.8,208.8c1.3-3.6,1.6-7.4,1.7-11.1c0.3-7.1,1-16.6-1.4-23.4c-1.8-5.1-7.8-8.6-12.7-10.3
					c-8.5-2.9-17.8-3.3-26.9-3.1c-8.4,0.1-16.6,0.7-24.9,1.6c-5.7,0.7-15.6,0.6-19.8,4.7c-2.4,2.4-3.7,5.7-4.4,8.8
					c-2.4,10.1-1.6,20.6,0,30.8c0.4,2.9,1,5.9,3,8.1c5.8,6.9,18.6,7.7,27.3,8.7c11.1,1.3,22.3,1.1,33.4-0.4
					C75.9,221.7,86.1,219,89.8,208.8z"/>
			</g>
			<g>
				<path class="st2" d="M91.6,227.5c-0.3,1.1-0.9,2.4-1.3,3.6c-1.4,4-2.6,8-3.3,12.1c-0.3,1.7-0.3,4.7-2.6,4.6
					c-1.7-0.1-3.1-1.3-4.8-1.6c-1-0.1-2.3-0.4-2.8-1.4c-0.6-1.1,0-2.4,0.1-3.4c0.3-1.9,0.3-3.7,0.4-5.4c0.3-3.7,0.7-7.3,1-11
					c0.1-2.3,0.7-5,2.8-6c1.3-0.6,2.7-0.3,4.1,0.1c1.8,0.6,5.8,1.4,6.8,3.3c0.6,1,0,3-0.3,4.1C91.8,226.7,91.6,227.2,91.6,227.5z"/>
				<path class="st2" d="M135.3,224.2c0.1,0.4,0.1,0.9,0,1.3c-0.1,0.3-0.3,0.6-0.6,0.9c-2.3,2.3-5.7,3.9-8.8,3.1
					c-0.3,0-0.4-0.1-0.6-0.3c-0.1-0.3-0.1-0.6-0.1-0.9c0.1-3.6-0.9-7.1-2.1-10.4s-3-6.6-4-10c-0.3-0.7-0.4-1.6-0.1-2.4
					c0.1-0.6,0.6-0.9,1-1.3c2-1.7,4.7-2.3,7.4-2.3c1.4,0,2.8,0.1,4,0.7c2.8,1.7,2.3,6.3,2.6,9.1C134,216,134.6,220.2,135.3,224.2z"
					/>
				<g>
					<path class="st1" d="M77,239.4c-0.1,0.1-4.4,11.7-3.8,12.7c0.6,0.9,28,12.4,28,12.4s2.1-2.3-0.7-4.7c-3-2.4-13.9-9.4-12.5-17.4
						L77,239.4z"/>
					<path class="st3" d="M73.2,252c0.6,0.9,28,12.4,28,12.4s1-1.1,0.7-2.6c-7.5-3.4-22.7-10-28.3-12.4
						C73.3,250.9,73,251.9,73.2,252z"/>
					<path class="st4" d="M88.1,242.3l-4.4-1.1c-0.6,2.9-1.4,11.7,11.8,14.7C91.5,252.4,87.1,247.6,88.1,242.3z"/>
					<path class="st5" d="M81,247.4c-0.6,1.3-2,1.9-3.1,1.3c-1.3-0.6-1.8-2-1.3-3.1c0.6-1.3,2-1.9,3.1-1.3
						C81,244.7,81.5,246.1,81,247.4z"/>
				</g>
				<path class="st6" d="M102.7,156.9c-6.7-3.3-13.5,3.6-13.5,3.6c-7.4,16.8-10.5,43.8-11.9,61.7c5,3.4,10.8,5.3,16.8,6.3
					c6.3-19.6,16.2-51.1,17.5-55.1C113.2,167.7,109.4,160.1,102.7,156.9z"/>
				<g>
					<path class="st7" d="M33.2,82.2c-3.1,1-6.4,1.4-9.7,1.3c-3-0.1-6.1-0.6-8.8-1.7c-2.4-1-3.4-4.3-4.3-6.7c-1.1-2.9-1.7-6-2-9
						c-0.1-1.3,0.3-2.1,0.6-3.4c0.4-1.7,0.3-3.6,0.4-5.3c0.3-2,0.6-3.9,1.1-5.7c0.6-1.9,1.1-3.6,2-5.3c0.7-1.6,1.7-3,2.8-4.3
						c1.4-1.9,3-3.7,5-5.1c4.5-3,10.7-3,15.5-0.4c2.7,1.4,3.7,4.1,5,6.9c1.3,2.9,2.4,5.9,3.3,8.8c2,7,4.7,17.3-0.1,23.5
						c-1,1.3-2.3,2.3-3.6,3.1C38,80.3,35.6,81.4,33.2,82.2z"/>
				</g>
				<path class="st2" d="M32.1,66.2l2,11.8c0,0.1-0.1,0.4-0.1,0.6c-0.6,1.4-1.7,2.4-3.1,3c-1.4,0.4-2.8,0.4-4.3,0.3
					c-0.7-0.1-6-1.7-6.3-1.3c1.6-3.4,1.7-7.4,1.3-11.1c-0.1-1.9-0.1-3.4-0.1-5.3c0-0.1,0.3-2.6,0.1-2.7
					C21.6,61.5,32.1,66.2,32.1,66.2z"/>
				<path class="st8" d="M33.5,74.9l-1.4-8.7l-11.1-5l0.9,11.6C24.7,75.7,29.8,76.2,33.5,74.9z"/>
				<path class="st9" d="M33.8,77.4c-1,0.6-1.7,1.9-2.1,2.9c-1.6,3-1.6,6.4-0.3,9.6c2.3,5.1,19.6,34.4,27.2,33.5
					c7.5-0.9,9.4-9-1.6-24.1c-3.3-4.6-6.5-9.3-10.1-13.7c-3-3.7-6.8-7.1-11.7-8.3C34.6,77.2,34.2,77.3,33.8,77.4z"/>
				<path class="st2" d="M85.2,90.6c-0.1,0.1-0.4,0.3-0.6,0.4c-0.6,0.6-0.9,1.4-1.3,2c-0.1,0.3-2,2.9-2.3,2.7c-1.6-1-3-2.3-4.3-3.6
					c-0.1-0.1-0.1-0.1-0.1-0.3c0-0.1,0-0.1,0-0.3c0.6-1.4,1-2.7,1.4-4.1c0.1-0.7,0.3-1.3,0.4-2c0.4-1.9,0.7-4.1,1.7-5.7
					c1-1.7,1.6-3.4,1.7-5.4c0-0.4,0.1-1,0.6-1c0.3,0,0.6,0.3,0.7,0.6c0.9,1.9,0.6,4,0.1,6c1.7-2.3,3.8-4.1,6-6.1
					c0.3-0.3,0.7-0.6,1-0.7c0.4-0.1,0.9-0.3,1.3,0c0.4,0.1,0.6,0.7,0.4,1.1c0.4-0.4,1.1-0.7,1.6-0.3c0.3,0.3,0.4,0.7,0.3,1
					c0,0.4-0.3,0.7-0.4,1c0.4,0.4,0.4,1,0.3,1.6c-0.1,0.6-0.6,1.1-1,1.6c-0.4,0.7-0.9,1.4-1.3,2c0.1,0,0.4-0.1,0.6-0.1
					c0.3,0,0.4,0.3,0.6,0.6c0,0.3,0,0.6-0.1,0.7c-0.3,1-0.7,1.9-1.1,2.7c-0.7,1.6-1.8,3.1-3.3,4.3C87.2,89.3,86.2,89.9,85.2,90.6z"
					/>
				<path class="st9" d="M53.7,120.8c0,0-2-8.4,5.3-14.6c2.8-2.4,5.4-5,8-7.6c1.3-1.3,2.6-2.7,4-4c0.6-0.6,1.1-1.3,1.7-1.7
					c0.7-0.4,1.6-0.4,2.4-0.7c1.4-0.4,2.1-2.1,2.6-3.7c1.8,1.4,3.6,2.9,5.4,4.4c0.1,0.1,0.3,0.1,0.3,0.4c0.1,0.4-0.4,0.7-0.9,1
					c-0.6,0.6-0.4,1.4-0.3,2.1c0.6,3.3-1,6-2.3,8.8c-1.3,2.7-2.6,5.3-4.1,7.7c-2.7,4.3-6.4,9-11.5,10.4
					C60.5,124.5,56.7,123.3,53.7,120.8z"/>
				<path class="st10" d="M53.7,120.8c0,0-2-8.4,5.3-14.6c2.8-2.4,5.4-5,8-7.6c1.3-1.3,2.6-2.7,4-4c0.6-0.6,1.1-1.3,1.7-1.7
					c0.7-0.4,1.6-0.4,2.4-0.7c1.4-0.4,2.1-2.1,2.6-3.7c1.8,1.4,3.6,2.9,5.4,4.4c0.1,0.1,0.3,0.1,0.3,0.4c0.1,0.4-0.4,0.7-0.9,1
					c-0.6,0.6-0.4,1.4-0.3,2.1c0.6,3.3-1,6-2.3,8.8c-1.3,2.7-2.6,5.3-4.1,7.7c-2.7,4.3-6.4,9-11.5,10.4
					C60.5,124.5,56.7,123.3,53.7,120.8z"/>
				<path class="st7" d="M117.9,209.9c0.9,0,1.8,0,2.8-0.1c3.3-0.1,6.7-1,9.8-2.3c1.3-0.6,2.8-1.3,4.3-1.9
					c-3.3-24.8-11.1-66.5-25.7-68.1c-20.8-2.1-56.6,1.6-56.6,1.6l-37,11c-1.1,0.3,0.3,9.4,0.4,10.3c0.9,3.6,2.6,8.3,5.5,10.6
					c8,6,21.9,3.9,31.1,3.4c12.1-0.6,24-2.1,35.8-4.7c5.3-1.1,10.5-2.4,15.6-3.9c3.3,9.7,7.1,18.8,10,28.8
					C115.5,199.8,116.7,204.9,117.9,209.9z"/>
				<path class="st9" d="M11.5,82.2c0,0,0.1-4.1,9.2-3.3c9.1,0.9,12.5-1.6,12.5-1.6c2.7-1.9,6.4,1.9,8.1,3.6c3.3,3.1,5.7,7.3,8,11.1
					c1,1.7,2,3.6,2.4,5.6c1.4,6.9-3.3,12.3-2.8,18.7c0.6,7.3,2.1,17,6.4,23.1c0.1,0.1,0.3,0.4,0.3,0.7c0,0.1-0.1,0.1-0.3,0.3
					c-7.2,4.9-15.8,7.3-24.3,8.7c-1.3,0.3-16.6,3.3-16.8,1.4c-1.1-12-2.6-24-4.4-35.8C8.9,109,8.2,104,8.6,98.3
					C9,92.9,9.9,87.4,11.5,82.2z"/>
				<g>
					<path class="st5" d="M42.4,117.1c-2.6,0-5.3-0.4-7.4-1.9c-2-1.3-3.3-3.3-4.5-5.3c-2.8-4.3-5.7-8.6-7.8-13.4
						c-1.6-3.6-2.6-7.3-4.3-10.7c-1.1-2.4-2.7-4.6-4.5-6.4c-2.3,1-2.3,2.6-2.3,2.6C10,87.3,9.2,92.7,8.8,98.1
						C8.3,103.9,9,109,9.9,114.6c0.7,4.4,1.3,8.7,1.8,13.1l0,0c1,4.1,2.1,8.3,4.1,12c1,2,2.4,3.9,4.4,4.9c1.8,0.9,4,1,6,1
						c5.5,0,11.2-0.4,15.8-3.6c0.7,1,2.1,1.3,3.3,1.1c1.3-0.3,2.3-0.9,3.4-1.4c2.3-1,4.5-1.4,6.5-2.3l0,0c-4.3-6-6-15.6-6.4-22.7
						C46,117,43.6,117.1,42.4,117.1z"/>
					<path class="st5" d="M34.1,77c6.7,5.6,12.1,12.7,15.4,20.8c0.6,1.3,1,2.7,2,3.7c0.1,0.1,0.3,0.3,0.4,0.3
						c0.1-1.4,0.1-2.7-0.1-4.3c-0.4-2-1.4-3.9-2.4-5.6c-2.3-3.9-4.7-8-8-11.1C39.7,79.4,36.6,76.3,34.1,77z"/>
				</g>
				<path class="st2" d="M36.2,91.7c-0.7-4.6-1.3-9.1-2-13.6c0-0.3-0.1-0.7-0.4-1c-0.4-0.3-0.6,0-0.9,0.1c-1,0.7-2.3,1-3.6,1.3
					c-3,0.6-5.8,0.4-8.8,0.3c0.6,0.3,1.3,0.9,1.8,1.3c0.7,0.4,1.4,1,2.3,1.4c1.1,0.7,2.3,1.6,3.3,2.4c1,0.7,2,1.3,3,2.1
					c1,0.9,1.8,1.7,2.8,2.7c0.4,0.4,0.9,1,1.3,1.4C35.3,90.7,36.2,91.4,36.2,91.7z"/>
				<path class="st9" d="M10.2,80.6c0,0-7,3.1-5.7,12.4c0.9,6.4,10.5,45.1,18.3,47.4c7.8,2.3,11.7-5.6,4.7-26.4
					C20.6,93,16.3,79,10.2,80.6z"/>
				<polygon class="st11" points="49.7,98 43.9,140.7 68.7,128.4 73.7,86 				"/>
				<g>
					<path class="st1" d="M124.8,227.2c0,0.1,2.7,12.3,3.7,12.7c1,0.4,30.3-5,30.3-5s0.6-3.1-3.1-3.6c-3.7-0.4-16.8-0.3-19.9-7.8
						L124.8,227.2z"/>
					<path class="st3" d="M128.5,239.9c1,0.4,30.3-5,30.3-5s0.3-1.6-0.9-2.6c-8.2,1.3-24.5,4.1-30.4,5.1
						C127.9,238.7,128.2,239.7,128.5,239.9z"/>
					<path class="st4" d="M135.6,223.6l-4.3,1.4c1,2.7,5.1,10.6,17.9,5.9C143.9,230.2,137.7,228.5,135.6,223.6z"/>
					<path class="st5" d="M132.4,231.6c0.3,1.3-0.7,2.6-2,2.9c-1.3,0.3-2.6-0.7-2.8-2s0.7-2.6,2-2.9
						C131,229.4,132.3,230.3,132.4,231.6z"/>
				</g>
				<g>
					<g>
						<path class="st2" d="M39.9,46.9c0.1,1.7,0.6,3.4,0.9,5c0.3,1.4,0.3,2.7,0.3,4.3c-0.1,3.3-1.1,6.4-2.6,9.3
							c-1.3,2.9-3.4,6.3-6.5,7.3c-3.6,1.1-8.1-1.9-10.8-4c-0.3,0-0.9-0.7-1-0.9c-0.3-0.3-0.6-0.7-0.9-1c-0.4-0.7-0.9-1.4-1.3-2.3
							c-0.7-1.6-1.3-3.3-1.7-5c0-0.1,0-0.3-0.1-0.3c-0.1-0.1-0.3-0.1-0.4-0.1c-1.3-0.4-2.7-1.4-3.4-2.6c-0.9-1.1-1.3-2.7-1-4.3
							c0-0.1,0-0.3,0.1-0.4c0.1-0.6,0.4-1,1-1.1c0.7-0.3,1.4,0,2,0.4s1.4,0.6,1.8,1.1c-0.6-1.6-0.4-3.1-0.3-4.9
							c0.1-2.7,0.4-5.7,2.1-7.8c0.6-0.9,1.4-1.4,2.3-2c0.7-0.6,1.4-1.1,2.3-1.4c2.3-1,5-0.9,7.4-0.4c0.6,0,1.1,0.6,1.6,0.7
							c0.6,0.3,1.3,0.6,1.8,1c1.1,0.7,2.3,1.6,3.1,2.6C38.5,41.6,39.7,44.2,39.9,46.9z"/>
					</g>
					<g>
						<path class="st7" d="M15.2,82.7c0,0.6,0,1,0,1.6c-3.6-1.1-8.7-2.7-10.2-6.4c-0.7-1.6-0.7-3.3-0.6-5c0.3-6.4,1.3-12.8,2.8-19
							c1.7-6.6,5-13.7,10.2-18.1c3.3-2.7,8.1-4.3,12.1-2.6c0.4,0.1,0.9,0.4,1.3,0.6c0.1,0,0.3,0,0.4,0c1.8-0.1,3.7,0.7,5.1,2
							c1.1,1.1,2.4,2.6,3.1,4c0.7,1.3,0.9,3.1,0.9,4.6c0,1.7,0.4,3.4,0.3,5.1c0,0-3.8-2.4-4.3-2.9c-1-0.6-1.8-1.1-2.6-2
							c-0.3-0.3-1.8-2-1.7-2.3c-1,2-3,3.3-4.7,4.4c-1.6,1.1-3.3,2.1-5,3.1c-0.9,0.4-1.6,0.9-2.1,1.6c-0.7,0.9-0.9,1.9-1.1,3
							c-1.8,10.7,0.3,21.4,7.4,30c-2.8-0.3-5.5-0.4-8.4-0.7c-0.4,0-0.9-0.1-1.1-0.3c-0.3-0.3-0.3-0.6-0.4-0.9
							c-0.3-1.1-0.6-2.4-0.9-3.6C15.3,80.3,15.2,81.4,15.2,82.7z"/>
					</g>
					<g>
						<g>
							<g>
								<g>
									<g>
										<path class="st7" d="M36.6,48.5C36.5,48.5,36.5,48.5,36.6,48.5c-0.4,0.1-2,1.3-1.4,1.7c0.1,0,0.1,0.1,0.3,0
											c0.4,0,0.7-0.1,1.1-0.3c1-0.3,2.1-0.1,3.1,0.3c0.1,0,0.3,0.1,0.4,0.1c0.1,0,0.3-0.1,0.4-0.3c0-0.1,0-0.3,0-0.4
											c0-0.1-0.1-0.3-0.3-0.3l0,0C39.3,48.3,37.8,48,36.6,48.5z"/>
									</g>
									<g>
										<path class="st7" d="M28.1,48.3L28.1,48.3c0.4,0.1,2,1.3,1.4,1.7c-0.1,0-0.1,0-0.3,0c-0.4,0-0.7-0.1-1.1-0.3
											c-1-0.3-2.1-0.1-3.1,0.1c-0.1,0-0.3,0.1-0.4,0.1c-0.1,0-0.3-0.1-0.4-0.3c0-0.1,0-0.3,0-0.4c0.1-0.1,0.1-0.3,0.3-0.3l0,0
											C25.2,48,26.8,47.9,28.1,48.3z"/>
									</g>
								</g>
							</g>
							<g>
								<g>
									<g>
										<path class="st7" d="M25.5,54.6c0.1,0.4,0.4,1,0.9,1.1c0.6,0.1,1.1-0.3,1.4-0.9c0.3-0.7,0.4-1.4,0-2.1s-1.1-1-1.8-0.6
											c-0.6,0.4-0.6,1.1-0.6,1.9C25.5,54.2,25.5,54.5,25.5,54.6z"/>
									</g>
									<g>
										<path class="st7" d="M36.3,54.8c0.1,0.4,0.4,1,0.9,1.1c0.6,0.1,1.1-0.3,1.4-0.9c0.3-0.7,0.4-1.4,0-2.1
											c-0.4-0.7-1.1-1-1.8-0.6c-0.6,0.4-0.6,1.1-0.6,1.9C36.2,54.5,36.3,54.6,36.3,54.8z"/>
									</g>
								</g>
							</g>
						</g>
					</g>
				</g>
				<path class="st8" d="M32.1,58.3c0-0.3,0-0.6,0-1c0.1,1,2.1,2.3,1,3.4c-0.6,0.6-1.8,0.6-2.6,0.3c0.4-0.1,0.6-0.4,0.9-0.9
					C31.8,59.8,31.9,59,32.1,58.3z"/>
				<path class="st12" d="M28.1,64.3c0.9,0.7,2.7,1.1,3.7,1.1c1.1,0,2.3-0.4,3.3-1.1"/>
				<g>
					<g>
						<path class="st5" d="M26.5,50.5c2.1,0.1,3.8,1.9,3.7,4c-0.1,2.1-1.8,3.9-4,3.7c-2.1-0.1-3.8-1.9-3.7-4
							C22.5,52,24.4,50.3,26.5,50.5 M26.5,49.9c-2.4-0.1-4.4,1.9-4.5,4.1c-0.1,2.4,1.8,4.4,4.1,4.6c2.4,0.1,4.4-1.9,4.5-4.1
							C30.8,52,28.9,50,26.5,49.9L26.5,49.9z"/>
					</g>
					<g>
						<path class="st5" d="M37.6,50.9c2.1,0.1,3.8,1.9,3.7,4c-0.1,2.1-1.8,3.9-4,3.7c-2.1-0.1-3.8-1.9-3.7-4
							C33.6,52.5,35.5,50.8,37.6,50.9 M37.6,50.3c-2.4-0.1-4.4,1.9-4.5,4.1c-0.1,2.4,1.8,4.4,4.1,4.6c2.4,0.1,4.4-1.9,4.5-4.1
							C41.9,52.5,40,50.5,37.6,50.3L37.6,50.3z"/>
					</g>
					<g>
						<polygon class="st5" points="22.3,54 19.3,53 19.4,52.6 22.4,53.6 						"/>
					</g>
					<g>
						<path class="st5" d="M30.7,54.3l-0.1-0.4c0.1,0,1.7-0.9,2.8,0.1l-0.3,0.4C32.2,53.6,30.7,54.3,30.7,54.3z"/>
					</g>
				</g>
				<g>
					<path class="st2" d="M58.7,116.3c2-2.9,3.4-6.1,4.7-9.4c0-0.1,0.1-0.3,0.1-0.4c0.3-0.1,0.6,0,0.7,0.3c0.1,0.3,0.1,0.6,0.1,0.9
						c0,1.1-0.1,2.3-0.1,3.3c0,0.3,0,0.7,0.3,0.9c0.1,0.1,0.3,0.1,0.4,0.1c2.3,0,4.5-1.1,5.8-3.1c0.6,0.4,0.4,1.4,0.3,2.1
						c-0.1,1.1,0.1,2.3,0.4,3.4c0.3,1.1,0.3,2.3-0.3,3.3c-0.6,1-1.7,1.4-2.8,1.9c-1.7,0.7-3.4,1.4-5.3,1.9c-1.3,0.4-2.6,0.7-3.7,1.4
						c-0.3,0.1-0.6,0.4-0.9,0.3c-0.1,0-0.3-0.1-0.3-0.3c-0.7-0.9-1.3-2-1.3-3.1s0.3-2.4,1-3.3"/>
				</g>
				<g>
					<path class="st9" d="M52.4,117.1c1.3-0.6,2.3-0.6,3.4,0.3c0.7-0.6,1.4-0.9,2.3-1.1c0.3-0.1,0.4-0.1,0.7-0.1
						c0.3,0.1,0.4,0.4,0.6,0.6c1,2,1.7,4,2.3,6c0,0.1,0.1,0.3,0,0.4c0,0.1-0.1,0.1-0.3,0.1c-1,0.3-1.8,0.6-2.8,0.9
						c0.1,0.9-0.1,1.9-0.7,2.6c-0.7,1-1.8,1.9-2.8,2.6c-5.5,3.9-11.2,7.1-17.3,10c-3,1.4-6.1,2.7-9.4,2.4c-3.3-0.1-6.7-2.3-7.2-5.6
						c-1.3-7,6.1-9.4,11.2-11.1C38.9,123,45.7,120.3,52.4,117.1z"/>
				</g>
			</g>
		</g>
		<g>
			<g>
				<path class="st1" d="M89.8,67.5c-1.2,3.1-4.1,4.6-6.5,3c-2.4-1.6-3.5-5.4-2.3-8.6c1.2-3.1,4.1-4.6,6.5-3
					C89.9,60.5,90.8,64.3,89.8,67.5z"/>
				<g>
					<path class="st5" d="M82.5,65.2c-0.3,0.1-0.9,0.1-1.1,0.6c0.4-0.7,1-1.3,1.6-1.4s1.2,0,1.7,0.4c1.2,0.9,2,3,1.4,4.9
						c0-0.1-0.1-0.6-0.1-0.7c0-0.3-0.1-0.4-0.2-0.7c-0.1-0.4-0.3-0.9-0.5-1.3c-0.3-0.6-0.8-1.1-1.3-1.6C83.7,65.2,83.1,65,82.5,65.2
						C82.6,65.2,82.6,65.2,82.5,65.2z"/>
					<g>
						<path class="st5" d="M85.1,63c-0.1-0.3-0.2-0.7-0.4-1c0.3-0.1,0.5-0.3,0.9-0.6c0.2-0.1,0.1-0.6-0.1-0.4
							c-0.3,0.1-0.5,0.4-0.9,0.6c-0.1-0.4-0.2-0.7-0.4-1.1c-0.1-0.3-0.4-0.1-0.3,0.1c0.1,0.4,0.2,0.7,0.4,1.1
							c-0.3,0.1-0.5,0.3-0.9,0.4c-0.2,0.1-0.1,0.6,0.1,0.4c0.3-0.1,0.5-0.3,0.9-0.4c0.1,0.4,0.3,0.7,0.4,1.1
							C84.9,63.6,85.2,63.3,85.1,63z"/>
						<path class="st5" d="M86.7,64.5c0.3,0,0.5,0,0.9,0c0-0.4,0-0.9,0-1.3c0-0.3,0.3-0.3,0.3,0c0,0.4,0,0.9,0,1.3
							c0.3,0,0.6,0,0.9,0c0.2,0,0.2,0.4,0,0.4c-0.3,0-0.6,0-1,0c0,0.4,0,0.9,0,1.1c0,0.3-0.3,0.3-0.3,0c0-0.4,0-0.9,0-1.1
							c-0.3,0-0.6,0-1,0C86.4,64.9,86.5,64.5,86.7,64.5z"/>
					</g>
				</g>
			</g>
			<g>
				<path class="st1" d="M181.4,96c-1,4.6-4.5,7.4-8.1,6.1c-3.5-1.3-5.6-6-4.6-10.7c1-4.6,4.5-7.4,8.1-6.1
					C180.3,86.7,182.3,91.4,181.4,96z"/>
				<g>
					<path class="st5" d="M171.4,95.4c-0.4,0.3-1.2,0.6-1.3,1.1c0.4-1.1,1-2,1.9-2.3c0.8-0.3,1.6-0.3,2.4,0c1.7,0.9,3.3,3.4,2.8,5.9
						c0-0.1-0.2-0.7-0.2-0.9c-0.1-0.3-0.2-0.6-0.3-0.9c-0.2-0.6-0.5-1-1-1.4c-0.5-0.7-1.3-1.3-2-1.6C173,95,172.2,95,171.4,95.4
						C171.5,95.3,171.5,95.3,171.4,95.4z"/>
					<g>
						<path class="st5" d="M174.4,91.7c-0.2-0.4-0.4-0.9-0.8-1.3c0.3-0.3,0.6-0.7,1-1c0.2-0.3,0-0.7-0.2-0.6c-0.3,0.3-0.6,0.7-1,1
							c-0.2-0.4-0.4-0.9-0.8-1.3c-0.2-0.3-0.5,0-0.4,0.3c0.2,0.4,0.5,1,0.8,1.4c-0.3,0.3-0.6,0.6-1,0.9c-0.2,0.3,0,0.7,0.2,0.6
							c0.3-0.3,0.6-0.6,1-0.9c0.2,0.4,0.5,0.9,0.8,1.3C174.2,92.4,174.7,92,174.4,91.7z"/>
						<path class="st5" d="M176.8,93.1c0.4-0.1,0.8-0.1,1.2-0.3c-0.1-0.6-0.1-1.1-0.2-1.6c0-0.4,0.4-0.6,0.4-0.1
							c0.1,0.6,0.1,1.1,0.2,1.7c0.4-0.1,0.8-0.1,1.2-0.3c0.3-0.1,0.4,0.6,0.1,0.6c-0.4,0.1-0.9,0.3-1.3,0.3c0.1,0.6,0.1,1,0.2,1.6
							c0.1,0.4-0.4,0.6-0.4,0.1c-0.1-0.6-0.2-1-0.2-1.6c-0.4,0.1-0.9,0.1-1.2,0.3C176.5,93.7,176.5,93.1,176.8,93.1z"/>
					</g>
				</g>
			</g>
			<g>
				<g>
					<path class="st13" d="M43.8,49c-0.1,0-0.2,0-0.3-0.1c-0.2-0.3-0.2-0.6,0-0.9c0.3-0.4,0.6-0.9,1-1.3c0.2-0.3,0.4-0.3,0.6,0
						s0.2,0.6,0,0.9c-0.3,0.4-0.6,0.9-1,1.3C44,49,43.9,49,43.8,49z"/>
				</g>
				<g>
					<path class="st13" d="M159,70.3c-0.2,0-0.4-0.3-0.4-0.6c0-0.3,0.2-0.6,0.4-0.6c0.9,0,1.8-0.1,2.8-0.3c0.2,0,0.4,0.3,0.5,0.6
						c0,0.3-0.2,0.6-0.4,0.7C160.9,70.3,160,70.3,159,70.3L159,70.3z M156.2,70.3L156.2,70.3c-1,0-1.9-0.1-2.9-0.3
						c-0.2,0-0.4-0.3-0.4-0.7c0-0.3,0.2-0.6,0.5-0.6c0.9,0.1,1.8,0.3,2.8,0.3c0.2,0,0.4,0.3,0.4,0.6C156.6,70,156.4,70.3,156.2,70.3
						z M164.6,69.7c-0.2,0-0.4-0.3-0.4-0.6c0-0.3,0.1-0.6,0.4-0.7c1-0.1,1.8-0.4,2.8-0.6c0.2,0,0.5,0.1,0.5,0.4s-0.1,0.7-0.3,0.7
						C166.6,69.3,165.6,69.6,164.6,69.7L164.6,69.7z M150.6,69.6C150.6,69.6,150.5,69.6,150.6,69.6c-0.4-0.1-0.8-0.1-1.1-0.3
						c-0.6-0.1-1.2-0.4-1.7-0.6c-0.2-0.1-0.4-0.4-0.3-0.7c0.1-0.3,0.3-0.6,0.5-0.4c0.5,0.1,1.2,0.4,1.7,0.6c0.3,0.1,0.6,0.1,1,0.3
						c0.2,0,0.4,0.4,0.3,0.7C151,69.3,150.8,69.6,150.6,69.6z M170.1,68.5c-0.2,0-0.4-0.1-0.4-0.4c0-0.3,0.1-0.7,0.3-0.7
						c0.9-0.3,1.8-0.6,2.7-0.7c0.2-0.1,0.5,0.1,0.5,0.4c0.1,0.3-0.1,0.7-0.3,0.7C172.1,67.9,171.2,68.2,170.1,68.5
						C170.2,68.5,170.2,68.5,170.1,68.5z M145.1,67.6H145c-0.9-0.4-1.8-0.9-2.7-1.3c-0.2-0.1-0.3-0.4-0.2-0.7s0.3-0.4,0.5-0.3
						c0.9,0.4,1.7,0.9,2.6,1.1c0.2,0.1,0.3,0.4,0.3,0.7C145.5,67.5,145.3,67.6,145.1,67.6z M175.6,66.9c-0.2,0-0.4-0.1-0.4-0.4
						c-0.1-0.3,0.1-0.7,0.3-0.7l2.7-0.9c0.2-0.1,0.5,0.1,0.5,0.4c0.1,0.3-0.1,0.7-0.3,0.7L175.6,66.9
						C175.7,66.7,175.7,66.9,175.6,66.9z M139.9,65c-0.1,0-0.1,0-0.2,0c-0.9-0.4-1.7-1-2.6-1.6c-0.2-0.1-0.3-0.6-0.2-0.9
						s0.4-0.4,0.6-0.3c0.9,0.6,1.7,1,2.6,1.6c0.2,0.1,0.3,0.4,0.2,0.9C140.3,64.9,140,65,139.9,65z M134.7,61.9c-0.1,0-0.1,0-0.2,0
						c-0.9-0.6-1.6-1.1-2.5-1.7c-0.2-0.1-0.3-0.6-0.2-0.9s0.4-0.4,0.6-0.3c0.9,0.6,1.6,1.1,2.5,1.7c0.2,0.1,0.3,0.6,0.2,0.9
						C135.1,61.8,135,61.9,134.7,61.9z M129.9,58.3c-0.1,0-0.1,0-0.2-0.1c-0.9-0.6-1.6-1.3-2.4-1.9c-0.2-0.1-0.3-0.6-0.1-0.9
						c0.1-0.3,0.4-0.4,0.6-0.1c0.8,0.7,1.6,1.3,2.4,1.9c0.2,0.1,0.3,0.6,0.2,0.9C130.1,58.2,130,58.3,129.9,58.3z M125,54.5
						c-0.1,0-0.2,0-0.2-0.1c-0.8-0.6-1.5-1.3-2.2-1.9l-0.2-0.1c-0.2-0.1-0.3-0.6-0.1-0.9c0.1-0.3,0.4-0.4,0.6-0.1l0.2,0.1
						c0.8,0.6,1.5,1.3,2.2,1.9c0.2,0.1,0.3,0.6,0.1,0.9C125.4,54.3,125.1,54.5,125,54.5z M120.3,50.3c-0.1,0-0.2,0-0.2-0.1
						c-0.8-0.7-1.5-1.4-2.4-2.1c-0.2-0.1-0.2-0.6-0.1-0.9c0.1-0.3,0.4-0.3,0.6-0.1c0.8,0.7,1.5,1.4,2.3,2.1c0.2,0.1,0.2,0.6,0.1,0.9
						C120.6,50.3,120.5,50.3,120.3,50.3z M115.7,46.1c-0.1,0-0.2,0-0.2-0.1l-2.3-2.1c-0.2-0.1-0.2-0.6-0.1-0.9
						c0.1-0.3,0.4-0.3,0.6-0.1l2.3,2.1c0.2,0.1,0.2,0.6,0.1,0.9C116,46.1,115.9,46.1,115.7,46.1z M46.8,45.2c-0.1,0-0.2,0-0.3-0.1
						c-0.2-0.3-0.1-0.6,0-0.9c0.8-0.9,1.4-1.7,2.2-2.4c0.2-0.1,0.5-0.1,0.6,0.1c0.1,0.3,0.1,0.7-0.1,0.9c-0.8,0.7-1.4,1.6-2.2,2.4
						C47,45.2,46.9,45.2,46.8,45.2z M111.1,41.8c-0.1,0-0.2,0-0.2-0.1c-0.8-0.7-1.5-1.4-2.4-2.1c-0.2-0.1-0.2-0.6-0.1-0.9
						c0.1-0.3,0.4-0.3,0.6-0.1c0.8,0.7,1.5,1.4,2.4,2.1c0.2,0.1,0.2,0.6,0.1,0.9C111.3,41.8,111.2,41.8,111.1,41.8z M51.3,40.5
						c-0.1,0-0.3-0.1-0.3-0.3c-0.1-0.3-0.1-0.7,0.1-0.9c0.8-0.7,1.5-1.4,2.4-2.1c0.2-0.1,0.5-0.1,0.6,0.1s0.1,0.7-0.1,0.9
						c-0.8,0.7-1.5,1.4-2.3,2.1C51.4,40.5,51.3,40.5,51.3,40.5z M106.4,37.6c-0.1,0-0.2,0-0.2-0.1c-0.8-0.7-1.6-1.3-2.4-2
						c-0.2-0.1-0.3-0.6-0.1-0.9c0.1-0.3,0.4-0.4,0.6-0.1c0.9,0.6,1.6,1.3,2.4,2c0.2,0.1,0.3,0.6,0.1,0.9
						C106.7,37.6,106.6,37.6,106.4,37.6z M55.9,36.5c-0.1,0-0.3-0.1-0.4-0.3c-0.1-0.3-0.1-0.7,0.2-0.9c0.9-0.6,1.6-1.3,2.5-1.9
						c0.2-0.1,0.5,0,0.6,0.3s0,0.7-0.2,0.9c-0.9,0.6-1.6,1.1-2.5,1.9C56.1,36.5,56,36.5,55.9,36.5z M101.5,33.9
						c-0.1,0-0.1,0-0.2-0.1c-0.9-0.6-1.7-1.1-2.5-1.7c-0.2-0.1-0.3-0.6-0.2-0.9s0.4-0.4,0.6-0.3c0.9,0.6,1.7,1.1,2.5,1.7
						c0.2,0.1,0.3,0.6,0.2,0.9C101.8,33.8,101.7,33.9,101.5,33.9z M61,33.1c-0.2,0-0.3-0.1-0.4-0.3c-0.1-0.3,0-0.7,0.2-0.9
						c0.9-0.6,1.7-1,2.6-1.4c0.2-0.1,0.5,0,0.6,0.3s0,0.7-0.2,0.9c-0.9,0.4-1.7,1-2.6,1.4C61.1,33.1,61,33.1,61,33.1z M96.5,30.6
						c-0.1,0-0.1,0-0.2,0c-0.9-0.4-1.7-0.9-2.6-1.3c-0.2-0.1-0.3-0.4-0.3-0.7c0.1-0.3,0.3-0.4,0.5-0.4c0.9,0.4,1.8,0.9,2.7,1.3
						c0.2,0.1,0.3,0.4,0.2,0.9C96.8,30.5,96.7,30.6,96.5,30.6z M66.1,30.2c-0.2,0-0.3-0.1-0.4-0.4c-0.1-0.3,0-0.7,0.3-0.7
						c0.9-0.4,1.8-0.7,2.7-1.1c0.2-0.1,0.5,0.1,0.5,0.4c0.1,0.3-0.1,0.7-0.3,0.7c-0.9,0.3-1.8,0.7-2.7,1.1
						C66.2,30.2,66.2,30.2,66.1,30.2z M91.2,28.4h-0.1c-0.9-0.3-1.8-0.6-2.7-0.7c-0.2,0-0.4-0.4-0.3-0.7c0-0.3,0.3-0.6,0.5-0.4
						c1,0.1,1.8,0.4,2.8,0.7c0.2,0.1,0.4,0.4,0.3,0.7C91.5,28.2,91.4,28.4,91.2,28.4z M71.5,28.2c-0.2,0-0.4-0.1-0.4-0.4
						c-0.1-0.3,0.1-0.7,0.3-0.7c1-0.3,1.8-0.6,2.8-0.7c0.2,0,0.5,0.1,0.5,0.6c0,0.3-0.1,0.7-0.4,0.7C73.5,27.8,72.6,27.9,71.5,28.2
						C71.6,28.2,71.6,28.2,71.5,28.2z M77.1,27.1c-0.2,0-0.4-0.3-0.4-0.6c0-0.3,0.1-0.6,0.4-0.7c1-0.1,1.9-0.1,2.8-0.3
						c0.2,0,0.4,0.3,0.4,0.6c0,0.3-0.2,0.6-0.4,0.6C79.1,26.9,78.1,26.9,77.1,27.1L77.1,27.1z M85.6,27.1L85.6,27.1
						c-1-0.1-1.9-0.1-2.8-0.3c-0.2,0-0.4-0.3-0.4-0.6c0-0.3,0.2-0.6,0.4-0.6c1,0,1.9,0.1,2.8,0.3c0.2,0,0.4,0.3,0.4,0.7
						C86,26.8,85.8,27.1,85.6,27.1z"/>
				</g>
				<g>
					<path class="st13" d="M181.2,65.2c-0.2,0-0.4-0.1-0.4-0.4c-0.1-0.3,0.1-0.7,0.3-0.7c0.4-0.1,0.9-0.3,1.4-0.4
						c0.2-0.1,0.5,0.1,0.5,0.4c0,0.3-0.1,0.7-0.3,0.7C182.2,64.9,181.8,65,181.2,65.2L181.2,65.2z"/>
				</g>
			</g>
			<g>
				<g>
					<path class="st13" d="M180.1,76c-0.1,0-0.3-0.1-0.4-0.3c-0.1-0.3-0.1-0.7,0.1-0.9l0.3-0.3c0.2-0.3,0.5-0.4,0.8-0.7
						c0.2-0.1,0.5-0.1,0.6,0.1c0.1,0.3,0.1,0.7-0.1,0.9c-0.2,0.3-0.5,0.4-0.8,0.7l-0.3,0.3C180.3,75.9,180.2,76,180.1,76z"/>
				</g>
				<g>
					<path class="st13" d="M159.9,84.2h-0.4c-0.2,0-0.4-0.3-0.4-0.6c0-0.3,0.2-0.6,0.4-0.6h0.4c0.8,0,1.5,0,2.3-0.1
						c0.2,0,0.4,0.3,0.4,0.6c0,0.3-0.2,0.6-0.4,0.6C161.4,84.2,160.6,84.2,159.9,84.2z M156.6,84L156.6,84c-1-0.1-1.8-0.3-2.8-0.4
						c-0.2,0-0.4-0.3-0.4-0.7c0-0.3,0.3-0.6,0.5-0.6c0.9,0.1,1.8,0.3,2.7,0.4c0.2,0,0.4,0.3,0.4,0.7C157.1,83.7,156.9,84,156.6,84z
						 M164.8,83.7c-0.2,0-0.4-0.3-0.4-0.6c0-0.3,0.1-0.6,0.4-0.7c0.9-0.1,1.8-0.4,2.7-0.6c0.2-0.1,0.5,0.1,0.5,0.4
						c0,0.3-0.1,0.7-0.3,0.7C166.8,83.3,165.8,83.6,164.8,83.7L164.8,83.7z M151.3,83C151.1,83,151.1,83,151.3,83
						c-1-0.3-1.9-0.6-2.8-0.9c-0.2-0.1-0.4-0.4-0.3-0.7c0.1-0.3,0.3-0.6,0.5-0.4c0.9,0.3,1.7,0.6,2.7,0.9c0.2,0,0.4,0.4,0.3,0.7
						C151.6,82.7,151.5,83,151.3,83z M170.2,82.2c-0.2,0-0.4-0.1-0.4-0.4c-0.1-0.3,0.1-0.7,0.3-0.7c0.9-0.3,1.7-0.7,2.6-1.1
						c0.2-0.1,0.5,0,0.6,0.3c0.1,0.3,0,0.7-0.2,0.9c-0.9,0.4-1.7,0.9-2.6,1.1C170.2,82.2,170.2,82.2,170.2,82.2z M145.9,81.2h-0.1
						c-0.9-0.3-1.7-0.7-2.6-1.1c-0.2-0.1-0.3-0.4-0.3-0.7c0.1-0.3,0.3-0.4,0.5-0.4c0.9,0.4,1.7,0.7,2.6,1.1c0.2,0.1,0.4,0.4,0.3,0.7
						C146.3,81,146.1,81.2,145.9,81.2z M175.3,79.6c-0.2,0-0.3-0.1-0.4-0.3c-0.1-0.3,0-0.7,0.2-0.9c0.8-0.6,1.6-1.1,2.4-1.7
						c0.2-0.1,0.5,0,0.6,0.3s0,0.7-0.2,0.9c-0.8,0.6-1.6,1.1-2.5,1.7C175.4,79.6,175.4,79.6,175.3,79.6z M140.7,78.9
						c-0.1,0-0.1,0-0.2,0c-0.9-0.4-1.7-0.9-2.6-1.4c-0.2-0.1-0.3-0.4-0.2-0.9c0.1-0.3,0.3-0.4,0.6-0.3c0.9,0.4,1.6,1,2.5,1.4
						c0.2,0.1,0.3,0.4,0.2,0.9C141.1,78.7,140.9,78.9,140.7,78.9z M135.7,75.9c-0.1,0-0.1,0-0.2,0c-0.9-0.6-1.6-1-2.5-1.6
						c-0.2-0.1-0.3-0.6-0.2-0.9c0.1-0.3,0.4-0.4,0.6-0.3c0.9,0.6,1.6,1,2.5,1.6c0.2,0.1,0.3,0.6,0.2,0.9
						C136,75.7,135.8,75.9,135.7,75.9z M130.8,72.7c-0.1,0-0.1,0-0.2,0c-0.9-0.6-1.6-1.1-2.5-1.7c-0.2-0.1-0.3-0.6-0.2-0.9
						c0.1-0.3,0.4-0.4,0.6-0.3c0.9,0.6,1.6,1.1,2.5,1.7c0.2,0.1,0.3,0.6,0.2,0.9C131.1,72.6,131,72.7,130.8,72.7z M53.1,70.9
						c-0.1,0-0.3-0.1-0.3-0.3c-0.1-0.3-0.1-0.7,0.1-0.9c0.8-0.7,1.5-1.4,2.3-2.1c0.2-0.1,0.5-0.1,0.6,0.1c0.1,0.3,0.1,0.7-0.1,0.9
						c-0.8,0.7-1.5,1.4-2.3,2.1C53.3,70.9,53.2,70.9,53.1,70.9z M125.9,69.3c-0.1,0-0.1,0-0.2,0l-2.5-1.7c-0.2-0.1-0.3-0.6-0.2-0.9
						c0.1-0.3,0.4-0.4,0.6-0.3l2.5,1.7c0.2,0.1,0.3,0.6,0.2,0.9C126.2,69.2,126.1,69.3,125.9,69.3z M57.6,66.7
						c-0.1,0-0.3-0.1-0.4-0.3c-0.1-0.3-0.1-0.7,0.1-0.9c0.8-0.7,1.5-1.3,2.3-2c0.2-0.1,0.5-0.1,0.6,0.1c0.1,0.3,0.1,0.7-0.1,0.9
						c-0.8,0.7-1.5,1.3-2.3,2C57.8,66.7,57.7,66.7,57.6,66.7z M121,66c-0.1,0-0.1,0-0.2,0c-0.9-0.6-1.6-1.1-2.5-1.7
						c-0.2-0.1-0.3-0.6-0.2-0.9c0.1-0.3,0.4-0.4,0.6-0.3c0.9,0.6,1.6,1.1,2.5,1.7c0.2,0.1,0.3,0.6,0.2,0.9
						C121.4,65.9,121.3,66,121,66z M62.3,62.7c-0.1,0-0.3-0.1-0.4-0.3c-0.1-0.3-0.1-0.7,0.1-0.9c0.8-0.6,1.6-1.3,2.4-1.9
						c0.2-0.1,0.5,0,0.6,0.3c0.1,0.3,0,0.7-0.2,0.9c-0.8,0.6-1.6,1.1-2.4,1.9H62.3z M116.2,62.7c-0.1,0-0.1,0-0.2,0
						c-0.8-0.6-1.6-1-2.4-1.6c-0.2-0.1-0.3-0.6-0.2-0.9c0.1-0.3,0.3-0.4,0.5-0.3c0.9,0.6,1.6,1.1,2.5,1.6c0.2,0.1,0.3,0.6,0.2,0.9
						C116.5,62.6,116.3,62.7,116.2,62.7z M111.2,59.5c-0.1,0-0.1,0-0.2,0c-0.8-0.6-1.6-1-2.5-1.6c-0.2-0.1-0.3-0.6-0.2-0.9
						c0.1-0.3,0.4-0.4,0.6-0.3c0.9,0.6,1.6,1,2.5,1.6c0.2,0.1,0.3,0.6,0.2,0.9C111.6,59.3,111.4,59.5,111.2,59.5z M67,59.2
						c-0.2,0-0.3-0.1-0.4-0.3c-0.1-0.3,0-0.7,0.2-0.9c0.9-0.6,1.6-1.1,2.5-1.7c0.2-0.1,0.5,0,0.6,0.3s0,0.7-0.2,0.9
						c-0.9,0.6-1.6,1-2.5,1.6C67.1,59.2,67,59.2,67,59.2z M106.3,56.5c-0.1,0-0.1,0-0.2,0c-0.9-0.4-1.6-1-2.5-1.4
						c-0.2-0.1-0.3-0.4-0.2-0.9c0.1-0.3,0.3-0.4,0.6-0.3c0.9,0.4,1.7,1,2.5,1.4c0.2,0.1,0.3,0.4,0.2,0.9
						C106.6,56.3,106.5,56.5,106.3,56.5z M72,56c-0.2,0-0.3-0.1-0.4-0.4c-0.1-0.3,0-0.7,0.2-0.9c0.9-0.4,1.7-1,2.6-1.4
						c0.2-0.1,0.5,0,0.5,0.3c0.1,0.3,0,0.7-0.2,0.7c-0.9,0.4-1.7,0.9-2.5,1.3C72.1,56,72,56,72,56z M101.2,53.6h-0.1
						c-0.9-0.4-1.7-0.9-2.6-1.1c-0.2-0.1-0.4-0.4-0.3-0.7c0.1-0.3,0.3-0.6,0.5-0.4c0.9,0.3,1.7,0.7,2.6,1.1c0.2,0.1,0.3,0.4,0.3,0.7
						C101.5,53.5,101.4,53.6,101.2,53.6z M77,53.5c-0.2,0-0.3-0.1-0.4-0.4c-0.1-0.3,0.1-0.7,0.3-0.7c0.9-0.4,1.7-0.7,2.7-1
						c0.2-0.1,0.5,0.1,0.5,0.4c0.1,0.3-0.1,0.7-0.3,0.7c-0.9,0.3-1.7,0.6-2.6,1C77.1,53.5,77.1,53.5,77,53.5z M82.3,51.8
						c-0.2,0-0.4-0.1-0.4-0.4c0-0.3,0.1-0.7,0.3-0.7c0.9-0.3,1.8-0.4,2.7-0.6c0.2,0,0.4,0.1,0.5,0.6c0,0.3-0.1,0.6-0.4,0.7
						C84.3,51.3,83.3,51.5,82.3,51.8C82.4,51.8,82.4,51.8,82.3,51.8z M95.9,51.6L95.9,51.6c-1-0.3-1.9-0.6-2.8-0.7
						c-0.2,0-0.4-0.3-0.4-0.7c0-0.3,0.2-0.6,0.5-0.6c0.9,0.1,1.8,0.4,2.7,0.7c0.2,0.1,0.4,0.4,0.3,0.7
						C96.3,51.3,96.1,51.6,95.9,51.6z M87.8,50.8c-0.2,0-0.4-0.3-0.4-0.6c0-0.3,0.2-0.6,0.4-0.7c0.9-0.1,1.7-0.1,2.7-0.1h0.1
						c0.2,0,0.4,0.3,0.4,0.6c0,0.3-0.2,0.6-0.4,0.6h-0.1C89.5,50.6,88.7,50.8,87.8,50.8L87.8,50.8z"/>
				</g>
				<g>
					<path class="st13" d="M49.9,74.2c-0.1,0-0.3-0.1-0.3-0.3c-0.1-0.3-0.1-0.7,0.1-0.9l1.1-1.1c0.2-0.1,0.5-0.1,0.6,0.1
						c0.1,0.3,0.1,0.7-0.1,0.9L50.2,74C50,74.2,49.9,74.2,49.9,74.2z"/>
				</g>
			</g>
			<path class="st4" d="M65.1,27.2c0-0.1,0.1-0.3,0.2-0.6c0.6-1.3,2-1.1,3-0.4c0.6,0.4,1.2,1,1.7,1.7c-0.1-1.6-0.1-4.9,1.3-5.6
				c0.6-0.4,1.5,0,2,0.7c1.1,1.4,1.5,3.6,1.4,5.4c-0.1,1.4-0.4,2.7-1,3.9c-0.2,0.6-0.4,1.1-0.8,1.7c-0.5,1-0.8,1-1.7,0.9
				c-1.6-0.3-3.2-1.1-4.5-2.6c-0.6-0.7-1.3-1.6-1.6-2.6C64.8,29.1,64.8,28.1,65.1,27.2z"/>
			<path class="st4" d="M95.1,16.5c0.1-0.1,0.2-0.1,0.3-0.3c0.9-0.4,1.7,0.4,2.2,1.3c0.3,0.6,0.4,1.3,0.5,2c0.4-1.1,1.5-3.3,2.6-3
				c0.5,0.1,1,0.9,1.1,1.7c0.2,1.6-0.1,3.1-0.9,4.4c-0.5,0.9-1.2,1.6-1.8,2c-0.3,0.3-0.6,0.6-1.1,0.7c-0.6,0.4-0.9,0.1-1.4-0.4
				c-1-1.1-1.7-2.6-2.2-4.1c-0.2-0.9-0.3-1.7-0.2-2.6C94.4,17.6,94.6,16.9,95.1,16.5z"/>
			<path class="st4" d="M176.1,55.3c0-0.1,0.1-0.3,0.2-0.3c0.5-0.7,1.4-0.4,2,0c0.4,0.3,0.6,0.9,1,1.3c0-1.1,0.3-3.1,1.2-3.6
				c0.5-0.1,1,0.3,1.3,0.7c0.6,1,0.8,2.6,0.5,3.9c-0.2,0.9-0.5,1.7-1,2.4c-0.2,0.3-0.4,0.7-0.6,1c-0.4,0.6-0.5,0.6-1.2,0.3
				c-1.1-0.4-2-1.1-2.8-2.3c-0.4-0.6-0.8-1.1-0.9-1.9C175.7,56.6,175.8,55.9,176.1,55.3z"/>
			<path class="st4" d="M126.6,50.9c0.1-0.1,0.2-0.3,0.3-0.4c1-1,2.3-0.1,3,0.9c0.5,0.7,0.9,1.6,1.2,2.4c0.2-1.6,1.2-4.7,2.7-4.7
				c0.8,0,1.4,0.7,1.7,1.7c0.6,1.9,0.5,4.1-0.1,5.9c-0.4,1.3-1.2,2.3-1.9,3.3c-0.4,0.4-0.8,0.9-1.2,1.3c-0.8,0.7-1,0.6-1.8,0
				c-1.5-1-2.8-2.6-3.7-4.6c-0.4-1-0.9-2-0.9-3.1C125.9,52.6,126.1,51.6,126.6,50.9z"/>
			<g>
				<g>
					<g>
						<path class="st14" d="M61.6,31.2c-0.4-0.3-0.9-0.4-1.2-0.7c-0.4-0.1-0.9-0.4-1.3-0.6c-0.4-0.1-0.9-0.4-1.3-0.6
							c-0.4-0.1-0.9-0.3-1.3-0.4c0.3,0.4,0.8,0.7,1.2,1s0.8,0.6,1.2,0.9c0.4,0.3,0.8,0.6,1.2,0.9c0.3,0.1,0.5,0.3,0.9,0.4
							c-0.2,0.9-0.5,1.7-0.8,2.6c-0.2,1-0.5,2.1-0.6,3.3c0.5-0.9,1-1.9,1.3-2.9c0.4-1,0.8-2,1.1-3l0.2-0.6L61.6,31.2z"/>
					</g>
					<g>
						<path class="st14" d="M115.1,44.6c-0.2-0.6-0.4-1-0.6-1.6c-0.2-0.6-0.4-1-0.6-1.6c-0.2-0.6-0.4-1-0.8-1.6
							c-0.2-0.4-0.5-1-0.8-1.4c0.1,0.6,0.2,1.1,0.3,1.7c0.1,0.6,0.3,1.1,0.4,1.7c0.1,0.6,0.3,1.1,0.5,1.6c0.1,0.4,0.2,0.7,0.3,1
							c-0.6,0.4-1.2,0.9-1.8,1.3c-0.8,0.6-1.4,1.1-2.2,1.9c0.9-0.3,1.6-0.6,2.4-1c0.8-0.4,1.5-0.9,2.3-1.3l0.4-0.3L115.1,44.6z"/>
					</g>
					<g>
						<path class="st14" d="M169.2,67.9c-0.4-0.3-0.8-0.6-1.2-0.9c-0.4-0.3-0.8-0.6-1.2-0.7c-0.4-0.3-0.9-0.4-1.2-0.7
							c-0.4-0.1-0.9-0.4-1.3-0.6c0.3,0.4,0.8,0.7,1.1,1.1c0.3,0.3,0.8,0.7,1.1,1c0.3,0.3,0.8,0.6,1.2,1c0.2,0.1,0.5,0.4,0.8,0.6
							c-0.3,0.9-0.6,1.6-0.9,2.4c-0.3,1-0.6,2-0.9,3.1c0.5-0.9,1.1-1.7,1.5-2.7c0.4-1,0.9-1.9,1.3-2.9l0.2-0.6L169.2,67.9z"/>
					</g>
					<g>
						<path class="st14" d="M134.9,73.2c0.4-0.1,0.9-0.3,1.3-0.4c0.4-0.1,0.9-0.3,1.3-0.3c0.4-0.1,0.9-0.1,1.3-0.3
							c0.4,0,0.9-0.1,1.4-0.1c-0.4,0.3-0.9,0.6-1.2,0.7c-0.4,0.3-0.9,0.4-1.3,0.6c-0.4,0.1-0.9,0.3-1.3,0.6
							c-0.3,0.1-0.5,0.1-0.9,0.3c0.1,0.9,0.3,1.7,0.4,2.7c0.1,1.1,0.2,2.1,0.3,3.3c-0.4-1-0.6-2-1-3.1c-0.3-1-0.5-2.1-0.8-3.1
							l-0.1-0.6L134.9,73.2z"/>
					</g>
					<g>
						<path class="st14" d="M98.5,51.5c0.4-0.1,0.9-0.3,1.3-0.4c0.4-0.1,0.9-0.3,1.3-0.4c0.4-0.1,0.9-0.3,1.3-0.3
							c0.4-0.1,0.9-0.1,1.4-0.1c-0.4,0.3-0.9,0.6-1.2,0.9c-0.4,0.3-0.9,0.4-1.3,0.7s-0.9,0.4-1.3,0.6c-0.3,0.1-0.5,0.3-0.9,0.3
							c0.2,0.9,0.3,1.7,0.5,2.7c0.2,1.1,0.3,2.1,0.3,3.3c-0.4-1-0.8-2-1.1-3s-0.5-2.1-0.9-3.1L98,51.9L98.5,51.5z"/>
					</g>
					<g>
						<path class="st14" d="M56.8,66c0.1-0.6,0.2-1.1,0.4-1.7c0.1-0.6,0.3-1.1,0.4-1.7c0.1-0.6,0.3-1.1,0.5-1.7
							c0.2-0.6,0.3-1.1,0.5-1.6c0,0.6-0.1,1.1-0.1,1.9c-0.1,0.6-0.1,1.1-0.2,1.7c-0.1,0.6-0.2,1.1-0.3,1.7c-0.1,0.4-0.1,0.7-0.2,1.1
							c0.6,0.3,1.3,0.6,1.9,0.9c0.8,0.4,1.6,0.9,2.4,1.3c-0.9,0-1.7-0.3-2.5-0.4c-0.9-0.1-1.6-0.4-2.5-0.7l-0.4-0.1V66z"/>
					</g>
				</g>
			</g>
			<g>
				<path class="st1" d="M132.1,85.6c1.9,3.1,1.5,7.8-0.9,10.4c-2.4,2.6-5.9,2-7.9-1.1c-1.9-3.1-1.5-7.8,0.9-10.4
					C126.7,81.9,130.1,82.4,132.1,85.6z"/>
				<g>
					<path class="st5" d="M126.7,94.1c-0.1,0.6-0.3,1.3-0.1,1.7c-0.4-1-0.5-1.9-0.2-2.9c0.2-0.9,0.6-1.6,1.2-2.1
						c1.3-1.1,3.3-1.3,4.4,0.4c-0.1-0.1-0.4-0.1-0.5-0.1c-0.2,0-0.4-0.1-0.6-0.1c-0.4,0-0.9,0-1.2,0.1c-0.6,0.1-1.3,0.6-1.8,1
						C127.3,92.6,126.9,93.4,126.7,94.1C126.8,94.1,126.8,94.1,126.7,94.1z"/>
					<g>
						<path class="st5" d="M126.3,89.7c-0.3,0-0.6,0-1,0c0-0.4,0-1,0-1.4c0-0.3-0.4-0.3-0.4,0c0,0.4,0,1,0,1.4c-0.3,0-0.6,0-1.1,0
							c-0.2,0-0.3,0.6-0.1,0.6c0.3,0,0.8,0,1.1,0c0,0.4,0,0.9,0,1.4c0,0.3,0.4,0.3,0.4,0c0-0.4,0-0.9,0-1.4c0.3,0,0.8,0,1.1,0
							C126.7,90.2,126.6,89.7,126.3,89.7z"/>
						<path class="st5" d="M128.2,88.2c0.1-0.4,0.3-0.9,0.4-1.1c-0.3-0.1-0.6-0.4-1-0.6c-0.2-0.1-0.1-0.6,0.2-0.4
							c0.3,0.3,0.6,0.4,1,0.7c0.1-0.4,0.3-0.9,0.4-1.3c0.1-0.3,0.4-0.1,0.3,0.1c-0.1,0.4-0.3,0.9-0.4,1.3c0.3,0.1,0.6,0.4,1,0.6
							c0.2,0.1,0.1,0.6-0.2,0.4c-0.3-0.1-0.6-0.4-1-0.6c-0.1,0.4-0.3,0.9-0.5,1.3C128.4,88.9,128.1,88.4,128.2,88.2z"/>
					</g>
				</g>
			</g>
			<g>
				<g>
					
						<radialGradient id="SVGID_1_" cx="35.4317" cy="248.5014" r="8.9138" gradientTransform="matrix(0.7614 0 0 -1.0074 15.0902 265)" gradientUnits="userSpaceOnUse">
						<stop  offset="0" style="stop-color:#FFFFFF"/>
						<stop  offset="8.510865e-02" style="stop-color:#FFEDD8"/>
						<stop  offset="0.2082" style="stop-color:#FFD5A7"/>
						<stop  offset="0.3345" style="stop-color:#FFC17D"/>
						<stop  offset="0.462" style="stop-color:#FFB05B"/>
						<stop  offset="0.591" style="stop-color:#FFA340"/>
						<stop  offset="0.7222" style="stop-color:#FF9A2D"/>
						<stop  offset="0.8568" style="stop-color:#FF9522"/>
						<stop  offset="1" style="stop-color:#FF931E"/>
					</radialGradient>
					<path class="st15" d="M48.3,17.4c-1.2,4.9-5,7.6-8.4,6.1c-3.5-1.4-5.3-6.6-4.1-11.4s5-7.6,8.4-6.1
						C47.7,7.4,49.5,12.5,48.3,17.4z"/>
					<path class="st14" d="M35.8,26.2l-0.2,0.7c-0.3,1.6,0.2,3.1,1.4,3.7l1.7,0.7c1.2,0.4,2.4-0.3,2.8-1.9l0.2-0.7L35.8,26.2z"/>
					<g>
						<g>
							<g>
								<path class="st1" d="M37.8,21.6c0.2-1.3,0.5-2.6,0.8-3.9c0.1-0.6,0.2-1.3,0.3-1.9c0.1-0.4,0.2-1,0.5-1.3
									c0.3-0.3,0.6-0.1,0.9,0.1c0.2,0.4,0.2,0.9,0.2,1.4c0,0.3-0.1,0.4-0.2,0.7c0,0.1-0.1,0.1-0.2,0.3l-0.1,0.1c0.1,0,0,0,0,0
									c0-0.1,0-0.3-0.1-0.4c0-0.1,0-0.3,0-0.4c0-0.3,0-0.6,0.1-0.9c0.1-0.4,0.4-0.9,0.8-1c0.3-0.1,0.8,0,1,0.3
									c0.5,0.6,0.4,1.7,0.2,2.4c0.1,0.1,0.1,0.4,0,0.6l-0.2,0.1c0,0,0,0,0.1,0l0,0c0,0,0-0.1,0-0.3c-0.1-0.4,0.1-1,0.3-1.4
									c0.2-0.4,0.4-0.7,0.6-1c0.2-0.1,0.8-0.4,1,0c0.1,0.3,0.1,0.6,0.1,0.9c0,0.3,0,0.7-0.1,1c-0.1,0.7-0.2,1.4-0.4,2
									c-0.3,1.4-0.6,2.9-1,4.3c-0.1,0.6,0.4,0.7,0.5,0.3c0.4-1.7,0.9-3.4,1.2-5.3c0.1-0.9,0.3-1.6,0.3-2.4c0-0.7-0.1-1.4-0.6-1.7
									c-1.1-0.4-1.9,0.9-2.4,2c-0.2,0.6-0.3,1.4-0.1,2c0.3,0.9,1,0.4,1.3-0.1c0.5-1,0.8-2.7,0.2-3.7c-0.6-1.1-1.9-1.1-2.6-0.1
									c-0.4,0.6-0.5,1.3-0.5,2.1c0,0.6,0.1,1.7,0.8,1.4c0.5-0.1,0.9-1,1-1.6c0.1-0.7,0.1-1.4-0.2-2c-0.3-0.6-1-0.7-1.4-0.6
									c-0.5,0.3-0.9,1-1,1.7c-0.2,1-0.4,1.9-0.5,2.9c-0.2,1-0.3,2-0.5,3C37.4,21.8,37.8,21.9,37.8,21.6L37.8,21.6z"/>
							</g>
						</g>
					</g>
					<polygon class="st14" points="37.1,21.1 43.1,23.6 41.9,28.7 35.9,26.1 					"/>
					<g>
						<g>
							<polygon class="st11" points="42.6,23.5 36,25.6 35.8,26.2 36.6,26.5 42.8,24.4 43.1,23.6 							"/>
							<polygon class="st11" points="42.2,27.1 39.8,27.8 41.1,28.4 42,28.1 							"/>
							<polygon class="st11" points="37.6,26.8 38.8,27.4 42.4,26.2 42.6,25.2 							"/>
							<polygon class="st11" points="36.9,21.9 36.7,22.9 39.4,22.1 38.1,21.5 							"/>
							<polygon class="st11" points="36.5,23.8 36.2,24.8 41.7,23.1 40.4,22.5 							"/>
						</g>
					</g>
				</g>
				<g>
					<g>
						<g>
							<path class="st16" d="M33,21.1c0.3-0.1,0.5-0.3,0.9-0.6c0.1-0.1,0.2-0.1,0.3-0.3c0.1-0.1,0.2-0.1,0.2-0.3
								c0.1-0.1,0.2-0.1,0.2-0.3c0-0.1,0.1-0.3,0.1-0.4c0-0.1-0.1-0.3-0.1-0.4c-0.1-0.3-0.4-0.4-0.6-0.3c-0.1,0-0.2,0.1-0.3,0.3
								c0,0,0,0-0.1,0.1l-0.1,0.1c-0.1,0.1-0.2,0.3-0.3,0.4l0.1-0.1c-0.2,0.1-0.3,0.4-0.5,0.6s-0.3,0.6-0.2,0.9
								C32.5,20.9,32.8,21.2,33,21.1L33,21.1z"/>
						</g>
						<g>
							<path class="st16" d="M31,12.9c0.1,0,0.2,0,0.3,0c0.1,0-0.1,0,0,0h0.1c0.2,0,0.4,0,0.6,0.1h-0.1c0.3,0,0.6,0.1,0.9,0.1
								c0.2,0,0.5-0.3,0.5-0.6v-0.1c0-0.3-0.2-0.7-0.4-0.7c-0.2,0-0.4,0-0.5,0s-0.3,0-0.4,0c-0.3,0-0.6,0.1-1,0.3
								c-0.2,0-0.3,0.4-0.3,0.6C30.7,12.8,30.8,12.9,31,12.9L31,12.9z"/>
						</g>
						<g>
							<path class="st16" d="M33.6,5.7c0.2,0.3,0.4,0.4,0.6,0.7c0.1,0.1,0.2,0.3,0.3,0.3c0.2,0.1,0.3,0.3,0.5,0.4c0.1,0,0.2,0,0.2,0
								c0.1,0,0.2-0.1,0.2-0.3c0-0.1,0.1-0.1,0.1-0.3c0-0.1,0-0.3-0.1-0.4c-0.1-0.1-0.2-0.4-0.4-0.6c-0.1-0.1-0.2-0.1-0.3-0.3
								c-0.2-0.1-0.4-0.3-0.8-0.4c-0.2-0.1-0.4,0-0.5,0.1C33.5,5.2,33.5,5.5,33.6,5.7L33.6,5.7z"/>
						</g>
						<g>
							<path class="st16" d="M39.6,0.8c0.1,0.4,0.1,1,0.2,1.4c0,0.3,0.1,0.4,0.1,0.7c0,0.1,0,0.3,0.1,0.3c0.1,0.3,0.1,0.3,0.3,0.4
								c0.1,0.1,0.2,0.1,0.4,0.1c0.1,0,0.2-0.1,0.3-0.3c0.1-0.1,0.1-0.4,0.1-0.6c0-0.1,0-0.4-0.1-0.6C41,2.1,41,1.9,40.9,1.7
								c-0.1-0.6-0.3-1-0.5-1.4C40.3,0,39.9,0,39.8,0.1C39.6,0.2,39.5,0.5,39.6,0.8L39.6,0.8z"/>
						</g>
						<g>
							<path class="st16" d="M46.4,3.8c0.2-0.4,0.3-0.9,0.5-1.3c0.1-0.3,0.2-0.4,0.3-0.7c0-0.1,0.1-0.3,0.1-0.3s0-0.1,0.1-0.1
								c0-0.1,0.1-0.3,0.1-0.4c0-0.1,0-0.3-0.1-0.4c-0.1-0.3-0.3-0.3-0.4-0.3c-0.3,0-0.6,0.6-0.8,0.9s-0.2,0.4-0.2,0.7
								c-0.1,0.6-0.2,1-0.3,1.6c0,0.3,0.1,0.6,0.3,0.7C46,4.2,46.3,4.1,46.4,3.8L46.4,3.8z"/>
						</g>
						<g>
							<path class="st16" d="M49.1,8.5c0.3-0.1,0.8-0.1,1.1-0.3c0.4-0.1,0.9-0.3,1.2-0.4c0.2-0.1,0.2-0.4,0.2-0.7
								c-0.1-0.3-0.2-0.4-0.4-0.4c-0.2,0-0.4,0.1-0.6,0.1S50.2,6.9,50,7.1c-0.3,0.1-0.8,0.3-1.1,0.6c-0.2,0.1-0.3,0.4-0.3,0.7
								C48.7,8.4,48.9,8.5,49.1,8.5L49.1,8.5z"/>
						</g>
						<g>
							<path class="st16" d="M50.8,15.5c0.3,0,0.6,0,1,0c0,0,0,0,0.1,0c-0.1,0-0.1,0,0,0H52c0.1,0,0.2,0,0.3,0c-0.1,0,0,0,0,0
								c0.1,0,0.1,0,0.2,0s0.3-0.1,0.3-0.1c0.1-0.1,0.2-0.4,0.1-0.7c-0.1-0.1-0.2-0.3-0.3-0.3c-0.1,0-0.2,0-0.3-0.1
								c-0.2,0-0.4,0-0.5,0c-0.3,0-0.6,0-1,0.1c-0.1,0-0.2,0-0.3,0.1c-0.1,0.1-0.1,0.3-0.1,0.4C50.4,15.2,50.6,15.5,50.8,15.5
								L50.8,15.5z"/>
						</g>
						<g>
							<path class="st16" d="M49,20.4c0.1,0.1,0.3,0.3,0.4,0.4c0,0-0.1,0-0.1-0.1c0.2,0.1,0.3,0.3,0.5,0.4l-0.1-0.1
								c0.1,0.1,0.3,0.3,0.4,0.4c0.1,0,0.1,0.1,0.2,0.1c0.1,0.3,0.2,0.3,0.3,0.3s0.2,0,0.2,0c0.1,0,0.2-0.1,0.2-0.3
								c0.1-0.3,0.1-0.4,0-0.7c-0.1-0.1-0.1-0.3-0.2-0.4c-0.1-0.1-0.1-0.1-0.2-0.1c-0.1-0.1-0.3-0.3-0.5-0.4c-0.3-0.3-0.6-0.4-1-0.4
								c-0.2-0.1-0.4,0.1-0.5,0.4C48.8,19.9,48.9,20.2,49,20.4L49,20.4z"/>
						</g>
						<g>
							<path class="st16" d="M45,24.4c0.1,0.3,0.1,0.6,0.2,0.7s0.1,0.4,0.2,0.6s0.1,0.4,0.2,0.6c0.1,0.3,0.2,0.4,0.3,0.7
								c0.2,0.3,0.5,0.3,0.8,0.1c0.2-0.3,0.3-0.6,0.2-1c-0.1-0.3-0.2-0.6-0.3-0.7c-0.1-0.1-0.2-0.4-0.3-0.6
								c-0.1-0.1-0.2-0.3-0.3-0.6c-0.1-0.3-0.2-0.4-0.4-0.6c-0.1-0.1-0.4-0.3-0.5,0C45,23.8,45,24.1,45,24.4L45,24.4z"/>
						</g>
					</g>
				</g>
			</g>
		</g>
		<g>
			<g>
				<g>
					<path class="st0" d="M289.9,253.1L289.9,253.1c-0.4,0.1-1-0.1-1.3-0.6l-29.1-66.6l6.9-3.1l24.1,68.8
						C290.8,252.2,290.5,253,289.9,253.1z"/>
					<path class="st0" d="M195.6,253.1L195.6,253.1c0.4,0.1,1-0.1,1.3-0.6l29.1-66.6l-6.9-3.1l-24.1,68.8
						C194.8,252.2,195.1,253,195.6,253.1z"/>
				</g>
			</g>
			<path class="st1" d="M245.6,94.6c2.3-3.5,5.6-6.5,9.1-8.8c5.1-3.2,11-4.8,16.9-4.8c5.4,0,12.1,0.6,16.5,4
				c10.5,8.1,9.3,23,9.1,34.8c-0.4,15.7-2.6,31.2-6.7,46.3c-1.6,6.2-3.7,12.5-8,17.2c-5.6,6-14,8.2-22.1,9.7
				c-8,1.3-16.2,2.1-24.4,2.6c-6.9,0.6-14,1.2-20.7-0.1c-12.1-2.2-24.4-9.8-25.3-23.3c-0.6-9.4,4.8-18.8,13-23.3
				c3.4-1.9,7.2-3.1,10.7-4.8c8.2-4.4,13.7-12.3,18.1-20.4c3.8-7,7.3-14.1,10.1-21.6C242.8,99.4,244.1,96.9,245.6,94.6z"/>
			<g>
				<g>
					<g>
						<g>
							<path d="M176.7,246.2c0.1,0-2.9,6.5-10.2,7.9c-7.3,1.6-8.9,1.3-8.2,5.3h32.1c0,0,1-4.1-0.4-13.9L176.7,246.2z"/>
						</g>
						<g>
							<path class="st1" d="M167.7,259.6h22.5c0,0,0.9-3.5-0.1-11.9c-2.8,1.5-6.9,3.5-10.1,3.5c-5.4,0.1-11.8,5.6-11.8,5.6
								S168,258.1,167.7,259.6z"/>
						</g>
						<g>
							<path class="st17" d="M190.4,259.6c0,0,0.4-2.1,0.3-6.6c-4.1,0.3-11.5,2.3-14.2,3.1c-2.6,0.7-13,1-18.3,1.2
								c-0.1,0.6-0.1,1.3,0,2.3H190.4z"/>
						</g>
					</g>
				</g>
				<g>
					<g>
						<g>
							<path d="M232.9,246.4c0.1,0-2.3,6.6-9.5,8.7c-7.2,2.1-8.8,1.9-7.9,5.9l32.1-2.5c0,0,0.6-4.3-1.6-13.8L232.9,246.4z"/>
						</g>
						<g>
							<path class="st1" d="M225.2,260.3l22.5-1.8c0,0,0.6-3.7-1.2-11.7c-2.6,1.8-6.6,4-9.8,4.3c-5.3,0.4-11.4,6.5-11.4,6.5
								S225.3,258.8,225.2,260.3z"/>
						</g>
						<g>
							<path class="st17" d="M247.7,258.6c0,0,0.3-2.1-0.3-6.6c-4.1,0.6-11.2,3.2-13.9,4.1c-2.5,0.9-12.9,2.1-18.1,2.5
								c-0.1,0.6,0,1.3,0.1,2.3L247.7,258.6z"/>
						</g>
					</g>
				</g>
				<path class="st18" d="M238.9,155.7c0,0-49.2,1-55.1,9.1c-5.8,8.1-7.9,58.5-7.5,81.4c0,0,5.6,3.8,12.7,0c0,0,11.2-31.2,12.6-59.1
					C201.6,187.1,244.9,191.7,238.9,155.7z"/>
				<path class="st19" d="M195.6,135.1c0,0-0.7,8.4-2.3,9.4c-1.6,1-25.6-18.3-27.8-18.8c-2.2-0.6-4.4,2.6-4.7,5.1
					c0,0,22.9,27.6,33.7,28.6c10.8,0.9,15.5-7,16.5-22.9L195.6,135.1z"/>
				<path class="st14" d="M201.1,102.3c0,0-4.2,3.4-5.8,15.4c-1.6,12.2-2.8,19.8-2.8,19.8s9.2,6,18.7,3.4c0,0,5.6-14.2,3.8-26.4
					C213.2,102.3,206.2,98.2,201.1,102.3z"/>
				<path class="st14" d="M200,110.7c0,0-2.8-7.9,3.8-10.3c4.5-1.6,8.2-4.7,12.6-6.6c3.1-1.3,7.5-0.7,10.7-0.3
					c12.9,1.8,22.9,11.1,31,20.8c8.3,10,14.8,22.3,15.8,35.5c0,0-23.1,16.4-48.9,10.9c0,0-5-19.5-13.6-27.3
					C203,125.5,200,110.7,200,110.7z"/>
				<path class="st20" d="M274,149.9c0,0,6,28.9-10.7,32c-16.7,3.1-33,2.6-33,2.6s10.8,11.3,15.9,61c0,0-6.3,3.8-12.7,0.7
					c0,0-28-69.8-27-79.6C207.6,156.8,274,149.9,274,149.9z"/>
				<path class="st0" d="M186.2,64.5c0,0-6,7,4.8,12.2l4.1-8.5L186.2,64.5z"/>
				<path class="st5" d="M243.6,154.7c-1.9-2.1-3.8-4.3-5.6-6.5c-1-1.3-2-2.6-2.5-4.1c-0.9-3.1,0.4-6.3,1.6-9.2
					c2-4.8,3.8-9.7,4.4-15c1-8.4-1.3-17-6.1-23.8c-0.1-0.1-0.1-0.3-0.3-0.4c-2.5-1-5.1-1.8-7.9-2.1c-3.2-0.4-7.7-1-10.7,0.3
					c-4.4,1.9-8,5-12.6,6.6c-6.6,2.5-3.8,10.3-3.8,10.3s2.9,14.7,11.4,22.6c6.9,6.3,11.4,20.1,13,25.2
					C230.9,157.8,237.3,156.5,243.6,154.7z"/>
				<path class="st21" d="M201.8,94.6c0.4,1,0.9,2.1,1.2,3.2c0.3,0.9,0.7,1.9,1,2.8c0.3,0.7,1,1.9,1,2.8c0,0.1-0.1,0.4-0.3,0.4
					c-0.1,0-0.1,0-0.1,0.1v0.1c0.3,0.4,0.4,0.9,0.7,1.3c0.3,0.6,0.6,1,0.9,1.5c1,1.3,2.5,2.2,4.2,2.5c1.6,0.1,3.9-0.9,5.3-1.9
					c1-0.7,1.8-1.9,2.3-2.9c0.7-1.3,1.5-2.8,2-4.1c0.4-1.2,1-2.9,0.4-4.3c-3.7,1.8-4.7-3.4-5.4-5.9c-0.1-0.3-1.5-4.1-1.3-4.3
					C213.9,85.9,201.8,94.6,201.8,94.6z"/>
				<path class="st19" d="M214.6,88.6l-0.7-2.6l-12,8.7l3.1,8.1C211.4,99.7,213.8,92.5,214.6,88.6z"/>
				<path class="st21" d="M202.1,61.9c-8.8,0-12.9,11-11.8,16.9c0.6,3.4,0.4,6.7,1.3,10.1c1,3.7,3.4,7.8,7.5,8.4
					c1.8,0.1,3.4-0.1,5-0.6c1.5-0.4,2.9-0.9,4.1-1.8c3.2-2.3,4.7-6.3,5.4-10c0.9-4,1.2-7.8,0.3-11.9C212.6,67,208.7,61.9,202.1,61.9
					z"/>
				<path class="st0" d="M184.7,64.9c1.6,3.2,8.6,5.3,11,5.3c6,0,1.3-5.3,1.3-5.3c1.2,1.3,2.3,2.2,3.9,3.1c1.6,0.9,3.5,1.5,5.3,1.9
					c0.7,0.1,2.5,0,2.8,0.6c0.3,0.4,0.1,1.5,0.3,1.9c0.1,0.7,0.1,1.5,0.3,2.1c0,0.4,0.1,0.7,0.1,1.2c0.4,1.9,1.2,3.4,2.3,4.8
					c1.2,1.5,1,3.8,1.6,5.6c0.6,1.6,1.2,3.2,1.8,4.8c0.6,1.3,0.9,2.6,1.5,4c2.5-1.8,3.8-4.5,3.5-7.6c-0.3-3.7,0.4-7.5,0.4-11.3
					c0.1-4,0-8.8-2.6-11.9c-0.6-0.6-1.3-1.2-2-1.6c-0.4-0.1-1-0.3-1.3-0.4c-0.6-0.4-0.6-1.2-0.9-1.8c-1.3-2.8-3.7-5.1-6.6-6.5
					c-3.4-1.6-7.3-2.1-10.8-1.3c-1.9,0.4-3.7,1-5,2.5c-1.3,1.3-2,3.5-1.2,5.3c-1.9,0-4.1,0.1-5.1,1.6
					C184.3,62.9,184.1,63.9,184.7,64.9z"/>
				<path class="st21" d="M212,83.4v-6.9c0,0,1-4.4,3.4-2.8C217.7,75.2,215.2,83.4,212,83.4z"/>
				<path class="st0" d="M200.3,72c0.1,0.9,1,1.3,1.8,1.8c1,0.4,2.2,0.7,3.2,0.6c0.3,0,0.9,0,1-0.4c0.1-0.4-0.4-0.7-0.7-0.9
					c-0.9-0.3-1.8-0.3-2.6-0.7c-0.6-0.3-1-0.6-1.6-1c-0.1,0-0.3-0.1-0.4-0.1C200.5,71.4,200.3,71.7,200.3,72z"/>
				<path class="st19" d="M195.6,83.7c0.3,1.2,1.9,0.4,2.6,0.1h0.1c0-0.1,0-0.1-0.1-0.1c-0.6-0.1-0.9-0.7-1-1.3
					c-0.1-0.6,0-1.2,0-1.8c-0.4,0.6-0.7,1.3-1.2,1.9C195.8,82.8,195.5,83.3,195.6,83.7z"/>
				<path class="st22" d="M196.2,89.1c0,0,2.6-1.8,5.7-0.3"/>
				<path class="st0" d="M204.4,77.6c0,0.9-0.4,1.5-1,1.5c-0.6,0-1-0.7-1-1.5c0-0.9,0.4-1.5,1-1.5C204,76.1,204.4,76.8,204.4,77.6z"
					/>
				<path class="st0" d="M195.2,72.9c0.1,0.9-0.6,1.5-1.2,2.1c-0.7,0.6-1.8,1-2.6,1.2c-0.3,0-0.7,0.1-0.9-0.1
					c-0.3-0.4,0.1-0.7,0.4-1c0.7-0.4,1.5-0.7,2.2-1.2c0.4-0.4,0.7-0.9,1.2-1.3c0.1-0.1,0.1-0.1,0.3-0.1
					C194.9,72.3,195.2,72.6,195.2,72.9z"/>
				<path class="st0" d="M191.7,78.4c0,0.9,0.4,1.5,1,1.5c0.6,0,1-0.7,1-1.5c0-0.9-0.4-1.5-1-1.5C192.1,77,191.7,77.7,191.7,78.4z"
					/>
				<path class="st21" d="M224.7,154.7c-0.6,1.5-1.5,2.9-2.3,4.1c-1.9,2.3-5,4.1-8,3.1c-2.3-0.7-2.8-4-2.9-6.2
					c-0.1-2.5,0.4-5.1,1-7.5c1.5-6.9,2.9-13.8,4.5-20.5c0.6-2.8,1.9-12.8,6.1-11c2.3,0.9,7.7,2.3,9.2,4.7c1.5,2.2,0.3,7-0.1,9.5
					c-1.2,7.6-3.8,15-6.7,22.1C225.2,153.4,225,154.1,224.7,154.7z"/>
				<path class="st14" d="M218.4,110c0.6-2.5,1.3-5,2.6-7.3c1.3-2.3,3.4-4.4,6-5.3c3.2-1,6,0.3,7.7,2.8c1.2,1.6,1.6,3.7,1.8,5.6
					c1.2,9.8-0.9,19.2-3.1,28.7c-0.3,1.5-10.2-1.3-11.5-1.6c-2.8-0.6-6-1.9-8.8-2.1c-0.1-3.8,1.8-7.9,2.8-11.6
					c0.7-3.1,1.6-6.2,2.3-9.1C218.3,110.1,218.3,110,218.4,110z"/>
				<path class="st21" d="M216,149c1.5-0.1,2.8,0,4.1,0.6c2.8,1.5,3.4,5.6,1.8,8.4c-1.6,2.8-4.7,4.3-7.7,5.3
					c-4.5,1.5-9.3,2.1-14,2.6c-6.6,0.7-13,1.5-19.6,2.2c-0.3,0-0.7,0-1-0.1c-1.8-1-0.6-5.1,0.3-6.3c1-1.2,2.5-1.8,3.9-2.3
					c6-2.5,12-4.8,18.3-6.7c3.1-1,6.3-1.9,9.5-2.6C212.9,149.6,214.3,149.1,216,149z"/>
				<path class="st21" d="M183.8,167.6c-1.5,2.2-2.8,4.4-3.9,6.6c-0.1,0.3-0.3,0.4-0.3,0.7c0,0.3,0,0.6,0,0.9
					c0.1,0.9,0.3,1.8,0.4,2.5c0.1,0.4,0.1,1-0.1,1.5c-0.3,0.4-0.9,0.7-1.2,0.3c0.4,1,0.6,2.2,0.6,3.4c0,0.3,0,0.6-0.3,0.6
					c-0.1,0-0.3,0-0.4-0.1c-1.8-1-2.9-2.8-3.9-4.4c-0.6-0.9-1-1.9-1.3-2.9c-0.4-2.1,0.3-4.4,0.7-6.5c0.6-2.3,1.5-5.7,3.4-7.3
					c0.6-0.4,4.1-3.4,4.7-1.9c0.6,1.5,1.2,2.8,1.8,4.3C184.3,166.1,184.3,166.9,183.8,167.6z"/>
				<path class="st19" d="M159.7,131.4c0.3,0.1,0.6,0.1,0.9,0.3c0.9,0.3,1.5,1.2,2.3,1.6c0.3,0.1,3.4,2.2,3.7,1.9
					c1.2-1.8,2.3-3.7,3.1-5.7c0-0.1,0.1-0.3,0.1-0.4s-0.1-0.3-0.1-0.3c-1.2-1.3-2.3-2.6-3.4-4c-0.4-0.6-0.9-1.3-1.3-2.1
					c-1.2-1.9-2.5-4.3-4.4-5.6c-1.9-1.5-3.2-3.1-4.1-5.4c-0.1-0.4-0.6-1-1-0.9c-0.3,0.1-0.4,0.6-0.4,0.9c-0.1,2.3,1.2,4.5,2.3,6.6
					c-2.8-1.9-6-2.9-9.1-4.3c-0.4-0.1-1-0.4-1.5-0.4s-1,0.1-1.3,0.4c-0.3,0.4-0.3,1,0,1.3c-0.6-0.3-1.6-0.3-1.9,0.3
					c-0.3,0.4-0.1,0.9,0.1,1.3c0.3,0.4,0.6,0.6,0.9,0.9c-0.3,0.6-0.1,1.3,0.3,1.9c0.4,0.6,1.2,0.9,1.8,1.3c0.7,0.6,1.6,1.2,2.3,1.6
					c-0.3,0-0.4,0-0.7,0c-0.3,0.1-0.4,0.4-0.3,0.7c0.1,0.3,0.3,0.6,0.4,0.7c0.7,0.9,1.6,1.8,2.3,2.5c1.5,1.5,3.4,2.6,5.4,3.2
					C157.2,130.8,158.5,130.9,159.7,131.4z"/>
			</g>
			<path class="st23" d="M213.5,187.9c-1.9-4.3-2-9.1-1-13.6c2.6-11.9,12.4-21.1,23.4-26.1c11-5.1,23.2-6.6,35.2-8.2
				c1.6-0.1,3.2-0.4,4.8,0c4.4,1.2,6.1,6.7,5.8,11.3c-0.4,7.6-4.2,14.7-8.8,21c-5.8,8.1-13.1,15.3-21.9,19.9
				C239.8,198.1,220.3,202.8,213.5,187.9z"/>
			<path class="st1" d="M246.2,156.2c3.8-6.7,10.8-11.1,18.3-13.3c5.4-1.6,11-2.1,16.5-2.3c2.3-0.1,4.2,0,6.6,0.3
				c1.6,0.3,5.1-0.4,6.3,0.4c0.6,0.4,0.4,1.3,0.3,2.1c-2.5,8.2-5,16.3-8.5,24.2c-1.3,3.1-3.2,4.8-5.1,7.3c-2.5,3.4-4.4,6.7-7.7,9.4
				c-8.5,7-21,7.5-31.4,7c-0.4,0-1.2-0.1-1.3-0.6c0-0.1,0-0.3,0-0.6c0.7-5.9,1.9-11.7,2.5-17.5C243.1,166.7,243.4,161.3,246.2,156.2
				z"/>
			<path class="st0" d="M239,195.3l5.7,68.2c0,0.6,0.4,0.9,1,0.9c0.6,0,1.2-0.4,1.2-1.2l-0.6-68.6
				C243.9,194.9,241.4,195.2,239,195.3z"/>
		</g>
		<g>
			<g>
				<g>
					<g>
						<path class="st24" d="M273.6,251c0,0-19.3-16.6-11.4-42.8C262.2,208.2,269.9,223.9,273.6,251z"/>
					</g>
					<path class="st11" d="M277.4,207.2c0,0-11.4,17.1-4,43.1C273.6,250.2,283.7,232,277.4,207.2z"/>
					<g>
						<path class="st24" d="M290.9,210.1c0,0-18.8,15.4-17.5,40.1C273.6,250.2,288.9,231.7,290.9,210.1z"/>
					</g>
					<path class="st11" d="M250.3,225c0,0,17.1,10.3,23.3,25.1C273.6,250.2,255.1,243.6,250.3,225z"/>
					<path class="st11" d="M299.7,220.6c0,0-25.9,17-25,30.1C274.7,250.9,293.6,237.9,299.7,220.6z"/>
				</g>
			</g>
			<path class="st25" d="M295,239.2v14v0.1c-0.1,6.4-5.3,11.7-11.8,11.7h-18.3c-6.4,0-11.7-5.3-11.8-11.7v-0.1v-14H295z"/>
			<rect x="253.3" y="243" class="st4" width="41.8" height="6.4"/>
			<path class="st4" d="M295,251.2v2.1v0.1h-41.8v-0.1v-2.1H295z"/>
		</g>
	</g>
</g>
</svg>
