<?xml version="1.0" encoding="utf-8"?>
<!-- Generator: Adobe Illustrator 25.1.0, SVG Export Plug-In . SVG Version: 6.00 Build 0)  -->
<svg version="1.1" xmlns="http://www.w3.org/2000/svg" xmlns:xlink="http://www.w3.org/1999/xlink" x="0px" y="0px"
	 viewBox="0 0 300 265" style="enable-background:new 0 0 300 265;" xml:space="preserve">
<style type="text/css">
	.st0{fill:#022A44;}
	.st1{fill:#352F6C;}
	.st2{fill:#A4B0BC;}
	.st3{fill:#92A1AD;}
	.st4{fill:#C7D3DD;}
	.st5{fill:#708491;}
	.st6{fill:#FFD255;}
	.st7{fill:#7D95C9;}
	.st8{fill:#2070B4;}
	.st9{fill:#FAA701;}
	.st10{fill:#FFFFFF;}
	.st11{fill:#E8E9EB;}
	.st12{fill:#E7A988;}
	.st13{fill:#D88568;}
	.st14{fill:#22619C;}
	.st15{fill:#27B2E4;}
	.st16{fill:#292666;}
	.st17{fill:#98A9D8;}
</style>
<g id="BACKGROUND_1_">
</g>
<g id="OBJECTS">
	<g>
		<g>
			<g>
				<g>
					<g>
						<path class="st0" d="M221.3,250.9c1.5,0,2.5-1.9,2-3.7c-1.6-5.1-6.2-8.7-10.5-10.3c-7.6-3-15.8-2.9-23.7-3.4
							c-8-0.5-16.2-1.6-23.2-6.5c-2.3-1.6-4.4-3.7-6.2-6.2v-62h-11.6v62c-1.8,2.5-3.9,4.6-6.2,6.2c-7,4.9-15.2,6-23.2,6.5
							c-8,0.5-16.1,0.4-23.7,3.4c-4.3,1.7-8.9,5.2-10.5,10.3c-0.6,1.8,0.5,3.7,2,3.7c1.1,0,2.1,0,3.2,0l-0.2,0
							c0.1-1.7,1.2-3,2.3-3.7c1.2-0.7,2.5-1.9,3.8-2c6.4-0.7,110.4-0.7,116.7,0c1.3,0.1,2.6,1.3,3.8,2c1.2,0.7,2.2,2.1,2.3,3.7
							l-0.2,0L221.3,250.9z"/>
					</g>
				</g>
				<g>
					<g>
						<path class="st1" d="M154.3,226.6L154.3,226.6c-1.9,0-3.4-1.9-3.4-4.3v-18c0-2.4,1.5-4.3,3.3-4.3h0.1c1.8,0,3.3,1.9,3.3,4.3
							v18C157.6,224.7,156.2,226.6,154.3,226.6z"/>
					</g>
				</g>
				<g>
					<g>
						<g>
							<path class="st0" d="M274.9,219.1c-81.6-15.7-164-15.7-245.5,0c-2.2,0.4-4.1-1.7-4.1-4.6V22.7c0-2.8,2-5,4.1-4.6
								c81.6,15.7,164,15.7,245.5,0c2.2-0.4,4.1,1.7,4.1,4.6v191.8C279,217.4,277.1,219.6,274.9,219.1z"/>
						</g>
					</g>
				</g>
				<g>
					<g>
						<g>
							<path class="st2" d="M272.3,217.9c-81.2-16.2-163.3-16.2-244.5,0c0-65.1,0-130.1,0-195.2C109,39,191,39,272.3,22.8
								C272.3,87.8,272.3,152.9,272.3,217.9z"/>
						</g>
					</g>
				</g>
				<g>
					<g>
						<rect x="205.3" y="31.3" class="st3" width="57.8" height="44"/>
					</g>
				</g>
				<g>
					<g>
						<g>
							<path class="st4" d="M29.9,21.1c0,65.1,0,130.1,0,195.2c6.5-1.3,13-2.5,19.4-3.6L87.2,29.8C68.1,27.8,49,24.9,29.9,21.1z"/>
						</g>
					</g>
				</g>
				<g>
					<g>
						<g>
							<path class="st3" d="M71,161.7c-6.7,0.7-13.9-0.7-20.1-4c-9.3-5.2-14.8-15.9-21-25.4c0,28,0,55.9,0,83.9
								c81.2-16.2,163.3-16.2,244.5,0c0-51.8,0-103.7,0-155.5c-58.8,32.4-117.3,61.8-177.1,91.7C88.5,157,80.3,161,71,161.7z"/>
						</g>
					</g>
				</g>
				<g>
					<g>
						<rect x="100.2" y="32.2" class="st5" width="102.6" height="132.1"/>
					</g>
				</g>
				<g>
					<g>
						<rect x="29.6" y="59.8" class="st3" width="68.5" height="72.6"/>
					</g>
				</g>
				<g>
					<g>
						<rect x="205.5" y="86.4" class="st5" width="68.8" height="75.9"/>
					</g>
				</g>
			</g>
			<g>
				<g>
					<g>
						<g>
							<rect x="209" y="80.1" class="st1" width="91" height="77.6"/>
						</g>
					</g>
					<g>
						<g>
							<g>
								<g>
									<g>
										<path class="st6" d="M227.9,89.3c-5.8,0-10.4,6-10.4,13.4s4.7,13.4,10.4,13.4c5.8,0,10.4-6,10.4-13.4
											S233.6,89.3,227.9,89.3z M227.9,110.9c-3.5,0-6.3-3.6-6.3-8.1c0-4.5,2.8-8.1,6.3-8.1c3.5,0,6.3,3.6,6.3,8.1
											C234.2,107.2,231.4,110.9,227.9,110.9z"/>
									</g>
								</g>
								<g>
									<g>
										<path class="st7" d="M227.9,110.9c-3.4,0-6.2-3.5-6.3-7.9h-4.1c0.1,7.3,4.7,13.2,10.4,13.2c5.7,0,10.3-5.9,10.4-13.2h-4.1
											C234.1,107.4,231.3,110.9,227.9,110.9z"/>
									</g>
								</g>
								<g>
									<g>
										<path class="st8" d="M233,91l-1.8,4.8c1.8,1.4,3,4,3,7c0,0.1,0,0.2,0,0.2h4.1c0-0.1,0-0.2,0-0.2
											C238.3,97.7,236.2,93.3,233,91z"/>
									</g>
								</g>
							</g>
							<g>
								<g>
									<g>
										<path class="st6" d="M252.5,89.3c-5.8,0-10.4,6-10.4,13.4s4.7,13.4,10.4,13.4c5.8,0,10.4-6,10.4-13.4
											S258.3,89.3,252.5,89.3z M252.5,110.9c-3.5,0-6.3-3.6-6.3-8.1c0-4.5,2.8-8.1,6.3-8.1c3.5,0,6.3,3.6,6.3,8.1
											C258.9,107.2,256,110.9,252.5,110.9z"/>
									</g>
								</g>
								<g>
									<g>
										<path class="st6" d="M252.5,94.6c1.9,0,3.5,1,4.7,2.7l3-3.6c-1.9-2.7-4.7-4.4-7.7-4.4c-2.1,0-4,0.8-5.6,2.1l2.5,4.2
											C250.4,95,251.4,94.6,252.5,94.6z"/>
									</g>
								</g>
								<g>
									<g>
										<path class="st7" d="M262.9,102.2c-0.1-3.3-1.1-6.3-2.7-8.5l-3,3.6c0.9,1.3,1.5,3.1,1.6,5H262.9z"/>
									</g>
								</g>
								<g>
									<g>
										<path class="st7" d="M249.5,95.6l-2.5-4.2c-2.8,2.3-4.7,6.3-4.8,10.8c0,0.2,0,0.3,0,0.5c0,3.5,1,6.7,2.7,9.1l3-3.6
											c-1-1.5-1.7-3.4-1.7-5.5c0-0.2,0-0.3,0-0.5C246.4,99.4,247.7,96.9,249.5,95.6z"/>
									</g>
								</g>
								<g>
									<g>
										<path class="st8" d="M263,102.7c0-0.2,0-0.3,0-0.5h-4.1c0,0.2,0,0.3,0,0.5c0,2.2-0.7,4.1-1.7,5.6l2.5,4.2
											C261.7,110.1,263,106.6,263,102.7z"/>
									</g>
								</g>
							</g>
							<g>
								<g>
									<path class="st6" d="M277.2,89.3c-5.8,0-10.4,6-10.4,13.4s4.7,13.4,10.4,13.4c5.8,0,10.4-6,10.4-13.4
										S282.9,89.3,277.2,89.3z M277.2,110.9c-3.5,0-6.3-3.6-6.3-8.1c0-4.5,2.8-8.1,6.3-8.1c3.5,0,6.3,3.6,6.3,8.1
										C283.5,107.2,280.7,110.9,277.2,110.9z"/>
								</g>
							</g>
							<g>
								<g>
									<path class="st7" d="M283.5,102.7c0,2.9-1.2,5.5-3,6.9l2.9,3.9c2.6-2.4,4.2-6.4,4.2-10.8c0-4-1.3-7.5-3.4-10l-3,3.7
										C282.6,98,283.5,100.2,283.5,102.7z"/>
								</g>
							</g>
						</g>
						<g>
							<g>
								<g>
									<rect x="214.5" y="140.9" class="st9" width="11.7" height="2.2"/>
								</g>
							</g>
							<g>
								<g>
									<rect x="214.5" y="145.8" class="st2" width="6" height="0.9"/>
								</g>
							</g>
							<g>
								<g>
									<rect x="221.5" y="145.8" class="st2" width="3.8" height="0.9"/>
								</g>
							</g>
							<g>
								<g>
									<polygon class="st2" points="223.2,148.2 223.2,148.8 222.8,148.8 222.8,148.2 216.6,148.2 216.6,149.1 225.8,149.1 
										225.8,148.2 									"/>
								</g>
							</g>
							<g>
								<g>
									<rect x="214.5" y="148.2" class="st2" width="1.6" height="0.9"/>
								</g>
							</g>
							<g>
								<g>
									<rect x="226.2" y="148.2" class="st2" width="1.5" height="0.9"/>
								</g>
							</g>
							<g>
								<g>
									<rect x="214.5" y="150.6" class="st2" width="12.2" height="0.9"/>
								</g>
							</g>
							<g>
								<g>
									<rect x="214.5" y="153" class="st2" width="8.9" height="0.9"/>
								</g>
							</g>
							<g>
								<g>
									<rect x="224" y="153" class="st2" width="3.7" height="0.9"/>
								</g>
							</g>
						</g>
						<g>
							<g>
								<g>
									<g>
										<rect x="224" y="120.4" class="st3" width="7.3" height="2.2"/>
									</g>
								</g>
								<g>
									<g>
										<rect x="224" y="124.5" class="st6" width="7.3" height="0.6"/>
									</g>
								</g>
								<g>
									<g>
										<rect x="224" y="127.1" class="st6" width="7.3" height="0.6"/>
									</g>
								</g>
							</g>
							<g>
								<g>
									<g>
										<rect x="248.9" y="120.4" class="st3" width="7.3" height="2.2"/>
									</g>
								</g>
								<g>
									<g>
										<rect x="248.9" y="124.5" class="st6" width="7.3" height="0.6"/>
									</g>
								</g>
								<g>
									<g>
										<rect x="248.9" y="127.1" class="st6" width="7.3" height="0.6"/>
									</g>
								</g>
							</g>
							<g>
								<g>
									<g>
										<rect x="273.8" y="120.4" class="st3" width="7.3" height="2.2"/>
									</g>
								</g>
								<g>
									<g>
										<rect x="273.8" y="124.5" class="st6" width="7.3" height="0.6"/>
									</g>
								</g>
								<g>
									<g>
										<rect x="273.8" y="127.1" class="st6" width="7.3" height="0.6"/>
									</g>
								</g>
							</g>
						</g>
					</g>
				</g>
				<g>
					<g>
						<g>
							<rect x="102.2" y="12.9" class="st10" width="99" height="143.2"/>
						</g>
					</g>
					<g>
						<g>
							<g>
								<g>
									<rect x="120.6" y="17.6" class="st11" width="25.2" height="3.7"/>
								</g>
							</g>
							<g>
								<g>
									<rect x="182.5" y="17.6" class="st11" width="11.1" height="3.7"/>
								</g>
							</g>
							<g>
								<g>
									<rect x="182.5" y="26.2" class="st11" width="11.1" height="1.2"/>
								</g>
							</g>
						</g>
						<g>
							<g>
								<g>
									<g>
										<path class="st6" d="M117.5,94.3c-4,0-7.3,4.2-7.3,9.5c0,5.2,3.3,9.5,7.3,9.5s7.3-4.2,7.3-9.5
											C124.9,98.6,121.6,94.3,117.5,94.3z M117.5,109.5c-2.5,0-4.4-2.6-4.4-5.7c0-3.2,2-5.7,4.4-5.7c2.5,0,4.4,2.6,4.4,5.7
											C122,107,120,109.5,117.5,109.5z"/>
									</g>
								</g>
								<g>
									<g>
										<path class="st6" d="M117.5,100c-1.6,0-2.9,1.7-2.9,3.8c0,2.1,1.3,3.8,2.9,3.8c1.6,0,2.9-1.7,2.9-3.8
											C120.5,101.7,119.2,100,117.5,100z M117.5,107.1c-1.4,0-2.6-1.5-2.6-3.3c0-1.8,1.2-3.3,2.6-3.3c1.4,0,2.6,1.5,2.6,3.3
											C120.1,105.6,119,107.1,117.5,107.1z"/>
									</g>
								</g>
							</g>
							<g>
								<g>
									<g>
										<path class="st6" d="M133.8,94.3c-4,0-7.3,4.2-7.3,9.5c0,5.2,3.3,9.5,7.3,9.5c4,0,7.3-4.2,7.3-9.5
											C141.1,98.6,137.8,94.3,133.8,94.3z M133.8,109.5c-2.5,0-4.4-2.6-4.4-5.7c0-3.2,2-5.7,4.4-5.7c2.5,0,4.4,2.6,4.4,5.7
											C138.2,107,136.2,109.5,133.8,109.5z"/>
									</g>
								</g>
								<g>
									<g>
										<path class="st6" d="M133.8,100c-1.6,0-2.9,1.7-2.9,3.8c0,2.1,1.3,3.8,2.9,3.8c1.6,0,2.9-1.7,2.9-3.8
											C136.7,101.7,135.4,100,133.8,100z M133.8,107.1c-1.4,0-2.6-1.5-2.6-3.3c0-1.8,1.2-3.3,2.6-3.3c1.4,0,2.6,1.5,2.6,3.3
											C136.4,105.6,135.2,107.1,133.8,107.1z"/>
									</g>
								</g>
							</g>
						</g>
						<g>
							<g>
								<g>
									<polygon class="st6" points="112.5,132.9 112.3,132.4 137.4,119.2 142.8,122.3 149.6,109.8 154.1,113.5 159,104.4 
										159.4,104.7 154.2,114.3 149.7,110.6 143,123.1 137.4,119.9 									"/>
								</g>
							</g>
							<g>
								<g>
									<g>
										<rect x="120" y="125.9" class="st7" width="4.4" height="22.7"/>
									</g>
								</g>
								<g>
									<g>
										<rect x="127.1" y="129.4" class="st7" width="4.4" height="19.2"/>
									</g>
								</g>
								<g>
									<g>
										<rect x="134.3" y="125.3" class="st7" width="4.4" height="23.3"/>
									</g>
								</g>
								<g>
									<g>
										<rect x="141.4" y="131.7" class="st7" width="4.4" height="16.8"/>
									</g>
								</g>
								<g>
									<g>
										<rect x="148.5" y="115.9" class="st7" width="4.4" height="32.7"/>
									</g>
								</g>
								<g>
									<g>
										<rect x="155.6" y="112.7" class="st7" width="4.4" height="35.8"/>
									</g>
								</g>
							</g>
						</g>
						<g>
							<g>
								<g>
									<g>
										<g>
											<rect x="121.7" y="33" class="st11" width="5.7" height="56.3"/>
										</g>
									</g>
									<g>
										<g>
											<rect x="130" y="33" class="st11" width="5.7" height="56.3"/>
										</g>
									</g>
									<g>
										<g>
											<rect x="138.3" y="33" class="st11" width="5.7" height="56.3"/>
										</g>
									</g>
									<g>
										<g>
											<rect x="146.7" y="33" class="st11" width="5.7" height="56.3"/>
										</g>
									</g>
									<g>
										<g>
											<rect x="155" y="33" class="st11" width="5.7" height="56.3"/>
										</g>
									</g>
									<g>
										<g>
											<rect x="163.3" y="33" class="st11" width="5.7" height="56.3"/>
										</g>
									</g>
									<g>
										<g>
											<rect x="171.6" y="33" class="st11" width="5.7" height="56.3"/>
										</g>
									</g>
									<g>
										<g>
											<rect x="180" y="33" class="st11" width="5.7" height="56.3"/>
										</g>
									</g>
									<g>
										<g>
											<rect x="188.3" y="33" class="st11" width="5.7" height="56.3"/>
										</g>
									</g>
								</g>
								<g>
									<g>
										<g>
											<rect x="123.5" y="36.8" class="st10" width="0.7" height="52.2"/>
										</g>
									</g>
									<g>
										<g>
											<rect x="131.8" y="36.8" class="st10" width="0.7" height="52.2"/>
										</g>
									</g>
									<g>
										<g>
											<rect x="140.2" y="36.8" class="st10" width="0.7" height="52.2"/>
										</g>
									</g>
									<g>
										<g>
											<rect x="148.6" y="36.8" class="st10" width="0.7" height="52.2"/>
										</g>
									</g>
									<g>
										<g>
											<rect x="157" y="36.8" class="st10" width="0.7" height="52.2"/>
										</g>
									</g>
									<g>
										<g>
											<rect x="165.4" y="36.8" class="st10" width="0.7" height="52.2"/>
										</g>
									</g>
									<g>
										<g>
											<rect x="173.8" y="36.8" class="st10" width="0.7" height="52.2"/>
										</g>
									</g>
									<g>
										<g>
											<rect x="182.2" y="36.8" class="st10" width="0.7" height="52.2"/>
										</g>
									</g>
									<g>
										<g>
											<rect x="190.6" y="36.8" class="st10" width="0.7" height="52.2"/>
										</g>
									</g>
									<g>
										<g>
											<rect x="122.5" y="62.9" class="st9" width="2.6" height="26"/>
										</g>
									</g>
									<g>
										<g>
											<rect x="130.9" y="62.9" class="st9" width="2.6" height="26"/>
										</g>
									</g>
									<g>
										<g>
											<rect x="139.3" y="71.4" class="st9" width="2.6" height="17.6"/>
										</g>
									</g>
									<g>
										<g>
											<rect x="147.7" y="53.8" class="st9" width="2.6" height="35.1"/>
										</g>
									</g>
									<g>
										<g>
											<rect x="147.7" y="53.8" class="st6" width="2.6" height="7.3"/>
										</g>
									</g>
									<g>
										<g>
											<rect x="156.1" y="48.4" class="st9" width="2.6" height="40.6"/>
										</g>
									</g>
									<g>
										<g>
											<rect x="164.4" y="62.9" class="st9" width="2.6" height="26"/>
										</g>
									</g>
									<g>
										<g>
											<rect x="172.8" y="52.2" class="st9" width="2.6" height="36.7"/>
										</g>
									</g>
									<g>
										<g>
											<rect x="172.8" y="52.2" class="st6" width="2.6" height="2.5"/>
										</g>
									</g>
									<g>
										<g>
											<rect x="181.2" y="56.3" class="st9" width="2.6" height="32.7"/>
										</g>
									</g>
									<g>
										<g>
											<rect x="189.6" y="62.9" class="st9" width="2.6" height="26"/>
										</g>
									</g>
								</g>
							</g>
							<g>
								<g>
									<g>
										<rect x="113.5" y="86.7" class="st11" width="5.4" height="2"/>
									</g>
								</g>
								<g>
									<g>
										<rect x="113.5" y="78.4" class="st11" width="5.4" height="2"/>
									</g>
								</g>
								<g>
									<g>
										<rect x="113.5" y="70.1" class="st11" width="5.4" height="2"/>
									</g>
								</g>
								<g>
									<g>
										<rect x="113.5" y="61.7" class="st11" width="5.4" height="2"/>
									</g>
								</g>
								<g>
									<g>
										<rect x="113.5" y="53.4" class="st11" width="5.4" height="2"/>
									</g>
								</g>
								<g>
									<g>
										<rect x="113.5" y="45.1" class="st11" width="5.4" height="2"/>
									</g>
								</g>
								<g>
									<g>
										<rect x="113.5" y="36.8" class="st11" width="5.4" height="2"/>
									</g>
								</g>
							</g>
							<g>
								<g>
									<g>
										<rect x="121.7" y="30.3" class="st2" width="5.7" height="0.8"/>
									</g>
								</g>
								<g>
									<g>
										<rect x="130" y="30.3" class="st2" width="5.7" height="0.8"/>
									</g>
								</g>
								<g>
									<g>
										<rect x="138.3" y="30.3" class="st2" width="5.7" height="0.8"/>
									</g>
								</g>
								<g>
									<g>
										<rect x="146.7" y="30.3" class="st2" width="5.7" height="0.8"/>
									</g>
								</g>
								<g>
									<g>
										<rect x="155" y="30.3" class="st2" width="5.7" height="0.8"/>
									</g>
								</g>
								<g>
									<g>
										<rect x="163.3" y="30.3" class="st2" width="5.7" height="0.8"/>
									</g>
								</g>
								<g>
									<g>
										<rect x="171.6" y="30.3" class="st2" width="5.7" height="0.8"/>
									</g>
								</g>
								<g>
									<g>
										<rect x="180" y="30.3" class="st2" width="5.7" height="0.8"/>
									</g>
								</g>
								<g>
									<g>
										<rect x="188.3" y="30.3" class="st2" width="5.7" height="0.8"/>
									</g>
								</g>
							</g>
						</g>
					</g>
				</g>
				<g>
					<g>
						<g>
							<rect y="53.9" class="st10" width="93.4" height="72.6"/>
						</g>
					</g>
					<g>
						<g>
							<g>
								<g>
									<ellipse class="st9" cx="78.2" cy="79.5" rx="14" ry="18"/>
								</g>
							</g>
							<g>
								<g>
									<path class="st6" d="M78.2,61.4c-3.9,0-7.4,2.1-9.9,5.4l9.3,12.9l6.5-16.7C82.3,62,80.3,61.4,78.2,61.4z"/>
								</g>
							</g>
							<g>
								<g>
									<path class="st1" d="M90.2,70.2c-1.4-3.1-3.6-5.6-6.2-7.2l-6.5,16.7l0.1,0.2L90.2,70.2z"/>
								</g>
							</g>
							<g>
								<g>
									<path class="st7" d="M68.3,66.9c-2.5,3.3-4,7.7-4,12.7c0,3.4,0.7,6.5,2,9.2l11.1-8.6l0.2-0.4L68.3,66.9z"/>
								</g>
							</g>
							<g>
								<g>
									<polygon class="st9" points="77.6,79.7 77.4,80.2 77.7,79.9 									"/>
								</g>
							</g>
							<g>
								<g>
									<path class="st1" d="M87.3,93.2l-9.6-13.3l-0.3,0.2l-5.9,15.1c2,1.5,4.3,2.3,6.8,2.3C81.7,97.5,84.9,95.9,87.3,93.2z"/>
								</g>
							</g>
							<g>
								<g>
									<path class="st11" d="M66.3,88.7c1.3,2.7,3.1,5,5.2,6.5l5.9-15.1L66.3,88.7z"/>
								</g>
							</g>
							<g>
								<g>
									<path class="st7" d="M90.2,70.2l-12.6,9.7l9.6,13.3c3-3.3,4.9-8.3,4.9-13.8C92.2,76.1,91.5,72.9,90.2,70.2z"/>
								</g>
							</g>
							<g>
								<g>
									<ellipse class="st10" cx="78.2" cy="79.5" rx="9.8" ry="12.6"/>
								</g>
							</g>
							<g>
								<g>
									<path class="st9" d="M78.2,90.4c-4.7,0-8.5-4.9-8.5-10.9c0-6,3.8-10.9,8.5-10.9c4.7,0,8.5,4.9,8.5,10.9
										C86.7,85.5,82.9,90.4,78.2,90.4z M78.2,69.2c-4.4,0-8,4.6-8,10.3s3.6,10.3,8,10.3c4.4,0,8-4.6,8-10.3S82.6,69.2,78.2,69.2z
										"/>
								</g>
							</g>
						</g>
						<g>
							<g>
								<g>
									<rect x="77.9" y="101.5" class="st9" width="4.1" height="1.2"/>
								</g>
							</g>
							<g>
								<g>
									<rect x="77.9" y="104.8" class="st2" width="6.1" height="1.2"/>
								</g>
							</g>
							<g>
								<g>
									<rect x="84.9" y="104.8" class="st2" width="3" height="1.2"/>
								</g>
							</g>
							<g>
								<g>
									<rect x="88.2" y="104.8" class="st2" width="1.9" height="1.2"/>
								</g>
							</g>
							<g>
								<g>
									<rect x="77.9" y="108.1" class="st2" width="2.9" height="1.2"/>
								</g>
							</g>
							<g>
								<g>
									<rect x="81.6" y="108.1" class="st2" width="7.5" height="1.2"/>
								</g>
							</g>
							<g>
								<g>
									<rect x="86.6" y="111.4" class="st2" width="3.5" height="1.2"/>
								</g>
							</g>
							<g>
								<g>
									<rect x="77.9" y="111.4" class="st2" width="8.4" height="1.2"/>
								</g>
							</g>
							<g>
								<g>
									<rect x="77.9" y="114.6" class="st2" width="5.3" height="1.2"/>
								</g>
							</g>
							<g>
								<g>
									<rect x="84" y="114.6" class="st2" width="2.3" height="1.2"/>
								</g>
							</g>
							<g>
								<g>
									<rect x="86.6" y="114.6" class="st2" width="1.3" height="1.2"/>
								</g>
							</g>
						</g>
						<g>
							<g>
								<g>
									<rect x="10.8" y="111.9" class="st9" width="10.6" height="0.8"/>
								</g>
							</g>
							<g>
								<g>
									<rect x="10.8" y="114.1" class="st2" width="12.8" height="0.8"/>
								</g>
							</g>
							<g>
								<g>
									<rect x="15.6" y="116.4" class="st2" width="7.9" height="0.8"/>
								</g>
							</g>
							<g>
								<g>
									<rect x="10.8" y="116.4" class="st2" width="3.7" height="0.8"/>
								</g>
							</g>
							<g>
								<g>
									<rect x="10.8" y="118.6" class="st2" width="12.8" height="0.8"/>
								</g>
							</g>
							<g>
								<g>
									<rect x="10.8" y="120.9" class="st2" width="12.8" height="0.8"/>
								</g>
							</g>
						</g>
						<g>
							<g>
								<g>
									<g>
										<g>
											<rect x="10.5" y="65.7" class="st0" width="0.5" height="40.4"/>
										</g>
									</g>
									<g>
										<g>
											<rect x="19.4" y="65.7" class="st0" width="0.5" height="40.4"/>
										</g>
									</g>
									<g>
										<g>
											<rect x="28.3" y="65.7" class="st0" width="0.5" height="40.4"/>
										</g>
									</g>
									<g>
										<g>
											<rect x="37.2" y="65.7" class="st0" width="0.5" height="40.4"/>
										</g>
									</g>
									<g>
										<g>
											<rect x="46.1" y="65.7" class="st0" width="0.5" height="40.4"/>
										</g>
									</g>
									<g>
										<g>
											<rect x="55" y="65.7" class="st0" width="0.5" height="40.4"/>
										</g>
									</g>
								</g>
								<g>
									<g>
										<rect x="9.3" y="81.7" class="st2" width="2.9" height="24.3"/>
									</g>
								</g>
								<g>
									<g>
										<rect x="18.3" y="90.1" class="st2" width="2.9" height="16"/>
									</g>
								</g>
								<g>
									<g>
										<rect x="27.1" y="83.1" class="st2" width="2.9" height="23"/>
									</g>
								</g>
								<g>
									<g>
										<rect x="36" y="74.3" class="st2" width="2.9" height="31.8"/>
									</g>
								</g>
								<g>
									<g>
										<rect x="44.9" y="87.7" class="st2" width="2.9" height="18.4"/>
									</g>
								</g>
								<g>
									<g>
										<rect x="4.7" y="106.8" class="st11" width="52.3" height="0.5"/>
									</g>
								</g>
								<g>
									<g>
										<polygon class="st6" points="58.3,74.5 55.2,67.6 52.1,74.5 53.8,74.5 53.8,106.1 56.7,106.1 56.7,74.5 										"/>
									</g>
								</g>
							</g>
							<g>
								<g>
									<g>
										<path class="st11" d="M8.4,104.1c0,0.3-0.2,0.5-0.4,0.5H5c-0.2,0-0.4-0.2-0.4-0.5l0,0c0-0.3,0.2-0.5,0.4-0.5h3
											C8.2,103.6,8.4,103.8,8.4,104.1L8.4,104.1z"/>
									</g>
								</g>
								<g>
									<g>
										<path class="st11" d="M8.4,97.4c0,0.3-0.2,0.5-0.4,0.5H5c-0.2,0-0.4-0.2-0.4-0.5l0,0c0-0.3,0.2-0.5,0.4-0.5h3
											C8.2,96.9,8.4,97.1,8.4,97.4L8.4,97.4z"/>
									</g>
								</g>
								<g>
									<g>
										<path class="st11" d="M8.4,90.6c0,0.3-0.2,0.5-0.4,0.5H5c-0.2,0-0.4-0.2-0.4-0.5l0,0c0-0.3,0.2-0.5,0.4-0.5h3
											C8.2,90.2,8.4,90.4,8.4,90.6L8.4,90.6z"/>
									</g>
								</g>
								<g>
									<g>
										<path class="st11" d="M8.4,83.9c0,0.3-0.2,0.5-0.4,0.5H5c-0.2,0-0.4-0.2-0.4-0.5l0,0c0-0.3,0.2-0.5,0.4-0.5h3
											C8.2,83.4,8.4,83.6,8.4,83.9L8.4,83.9z"/>
									</g>
								</g>
								<g>
									<g>
										<path class="st11" d="M8.4,77.2c0,0.3-0.2,0.5-0.4,0.5H5c-0.2,0-0.4-0.2-0.4-0.5l0,0c0-0.3,0.2-0.5,0.4-0.5h3
											C8.2,76.7,8.4,76.9,8.4,77.2L8.4,77.2z"/>
									</g>
								</g>
								<g>
									<g>
										<path class="st11" d="M8.4,70.5c0,0.3-0.2,0.5-0.4,0.5H5c-0.2,0-0.4-0.2-0.4-0.5l0,0C4.7,70.2,4.8,70,5,70h3
											C8.2,70,8.4,70.2,8.4,70.5L8.4,70.5z"/>
									</g>
								</g>
								<g>
									<g>
										<path class="st11" d="M8.4,63.7c0,0.3-0.2,0.5-0.4,0.5H5c-0.2,0-0.4-0.2-0.4-0.5l0,0c0-0.3,0.2-0.5,0.4-0.5h3
											C8.2,63.3,8.4,63.5,8.4,63.7L8.4,63.7z"/>
									</g>
								</g>
							</g>
						</g>
					</g>
				</g>
				<g>
					<g>
						<g>
							<rect x="209" y="20.8" class="st10" width="58.4" height="49.8"/>
						</g>
					</g>
					<g>
						<g>
							<g>
								<g>
									<g>
										<rect x="214.7" y="43.9" class="st7" width="5" height="18.2"/>
									</g>
								</g>
								<g>
									<g>
										<rect x="221" y="49.4" class="st7" width="5" height="12.7"/>
									</g>
								</g>
								<g>
									<g>
										<rect x="227.3" y="36.8" class="st7" width="5" height="25.4"/>
									</g>
								</g>
								<g>
									<g>
										<rect x="233.6" y="43.9" class="st7" width="5" height="18.2"/>
									</g>
								</g>
								<g>
									<g>
										<rect x="239.9" y="36.8" class="st7" width="5" height="25.4"/>
									</g>
								</g>
								<g>
									<g>
										<rect x="246.2" y="38.8" class="st7" width="5" height="23.4"/>
									</g>
								</g>
								<g>
									<g>
										<rect x="252.5" y="33.7" class="st7" width="5" height="28.4"/>
									</g>
								</g>
							</g>
							<g>
								<g>
									<g>
										<rect x="214.7" y="60.3" class="st8" width="5" height="1.8"/>
									</g>
								</g>
								<g>
									<g>
										<rect x="221" y="54.8" class="st8" width="5" height="7.3"/>
									</g>
								</g>
								<g>
									<g>
										<rect x="227.3" y="58.5" class="st8" width="5" height="3.6"/>
									</g>
								</g>
								<g>
									<g>
										<rect x="233.6" y="54.8" class="st8" width="5" height="7.3"/>
									</g>
								</g>
								<g>
									<g>
										<rect x="239.9" y="50.5" class="st8" width="5" height="11.7"/>
									</g>
								</g>
								<g>
									<g>
										<rect x="246.2" y="54.8" class="st8" width="5" height="7.3"/>
									</g>
								</g>
								<g>
									<g>
										<rect x="252.5" y="43.9" class="st8" width="5" height="18.2"/>
									</g>
								</g>
							</g>
						</g>
						<g>
							<g>
								<g>
									<rect x="255.8" y="23" class="st9" width="7.9" height="1.5"/>
								</g>
							</g>
							<g>
								<g>
									<rect x="255.8" y="26.4" class="st2" width="4.1" height="0.6"/>
								</g>
							</g>
							<g>
								<g>
									<rect x="260.5" y="26.4" class="st2" width="2.6" height="0.6"/>
								</g>
							</g>
							<g>
								<g>
									<polygon class="st2" points="261.7,28 261.7,28.4 261.4,28.4 261.4,28 257.2,28 257.2,28.6 263.5,28.6 263.5,28 									
										"/>
								</g>
							</g>
							<g>
								<g>
									<rect x="255.8" y="28" class="st2" width="1.1" height="0.6"/>
								</g>
							</g>
							<g>
								<g>
									<rect x="263.7" y="28" class="st2" width="1" height="0.6"/>
								</g>
							</g>
						</g>
						<g>
							<g>
								<g>
									<path class="st9" d="M218.7,32.7h-3.1c-0.3,0-0.5-0.3-0.5-0.6v0c0-0.3,0.2-0.6,0.5-0.6h3.1c0.3,0,0.5,0.3,0.5,0.6v0
										C219.2,32.4,219,32.7,218.7,32.7z"/>
								</g>
							</g>
							<g>
								<g>
									<path class="st9" d="M225,32.7h-3.1c-0.3,0-0.5-0.3-0.5-0.6v0c0-0.3,0.2-0.6,0.5-0.6h3.1c0.3,0,0.5,0.3,0.5,0.6v0
										C225.5,32.4,225.3,32.7,225,32.7z"/>
								</g>
							</g>
							<g>
								<g>
									<path class="st9" d="M231.3,32.7h-3.1c-0.3,0-0.5-0.3-0.5-0.6v0c0-0.3,0.2-0.6,0.5-0.6h3.1c0.3,0,0.5,0.3,0.5,0.6v0
										C231.8,32.4,231.6,32.7,231.3,32.7z"/>
								</g>
							</g>
							<g>
								<g>
									<path class="st9" d="M237.6,32.7h-3.1c-0.3,0-0.5-0.3-0.5-0.6v0c0-0.3,0.2-0.6,0.5-0.6h3.1c0.3,0,0.5,0.3,0.5,0.6v0
										C238.1,32.4,237.9,32.7,237.6,32.7z"/>
								</g>
							</g>
							<g>
								<g>
									<path class="st9" d="M244,32.7h-3.1c-0.3,0-0.5-0.3-0.5-0.6v0c0-0.3,0.2-0.6,0.5-0.6h3.1c0.3,0,0.5,0.3,0.5,0.6v0
										C244.5,32.4,244.2,32.7,244,32.7z"/>
								</g>
							</g>
							<g>
								<g>
									<path class="st9" d="M250.3,32.7h-3.1c-0.3,0-0.5-0.3-0.5-0.6v0c0-0.3,0.2-0.6,0.5-0.6h3.1c0.3,0,0.5,0.3,0.5,0.6v0
										C250.8,32.4,250.5,32.7,250.3,32.7z"/>
								</g>
							</g>
							<g>
								<g>
									<path class="st9" d="M256.5,32.7h-3.1c-0.3,0-0.5-0.3-0.5-0.6v0c0-0.3,0.2-0.6,0.5-0.6h3.1c0.3,0,0.5,0.3,0.5,0.6v0
										C257,32.4,256.7,32.7,256.5,32.7z"/>
								</g>
							</g>
						</g>
					</g>
				</g>
			</g>
		</g>
		<g>
			<g>
				<g>
					<g>
						<g>
							<g>
								<g>
									<path class="st12" d="M126.7,127.4c0.2,1.6-0.1,3.3-0.9,4.5c-0.5,3-2.3,5.5-4.5,6.1c-2.1-1.2-3.5-4.2-3.4-7.2
										c0.1-3,1.8-5.9,4-6.7c1.2-0.5,2.6-0.3,3.5,0.9L126.7,127.4z"/>
								</g>
							</g>
						</g>
						<g>
							<g>
								<g>
									<path class="st13" d="M123.2,123.9c-0.5,0-0.9,0.1-1.4,0.2c-2.2,0.8-3.8,3.6-4,6.7c-0.1,3,1.3,6.1,3.4,7.2
										c0.2-0.1,0.4-0.1,0.6-0.2C121.1,133,121,127.8,123.2,123.9z"/>
								</g>
							</g>
						</g>
						<g>
							<g>
								<g>
									<path class="st12" d="M113.1,140c-0.2-0.3,0-0.9,0.2-1.2c1.7-3,2.9-6.2,3.4-9.8c1.7,0.9,3.5,1.3,5.3,1.7
										c-0.8,4-1.3,8.1-1.6,12.2c-2.3-0.8-4.6-1.7-6.9-2.5C113.3,140.2,113.2,140.2,113.1,140z"/>
								</g>
							</g>
						</g>
						<path class="st1" d="M128.2,127c1-0.4,1.8-1.6,2-3c-0.7,0.5-1.5,0.6-2.3,0.4c0.2,0,0.4-0.1,0.6-0.3c-0.9-0.1-1.7-0.7-2.4-1.4
							c-0.7-0.7-1.4-1.5-2.1-2.1c-0.8-0.6-1.7-1.1-2.5-0.9c-0.1,0-0.2,0.1-0.3,0.1c-0.5-0.1-1-0.1-1.5,0.1c-1.7,0.6-2.9,2.7-3.3,4.9
							c-0.4,2.2-0.6,4.9-0.1,7.1c1.7,1.1,4.3,1,6.2,0.3c0.3-0.1,0.5-0.2,0.8-0.4c0.1-0.4,0.1-0.9,0.2-1.4c0.1-0.5,0.2-1.1,0.5-1.5
							c0.3-0.4,0.8-0.6,1.1-0.3c0.2,0.2,0.3,0.6,0.3,0.9c0,0.2,0,0.3,0,0.5c0.4-0.4,0.7-0.8,1-1.3c1.3,0.1,2.6-0.7,3.2-2
							C129,127,128.6,127.1,128.2,127z"/>
						<g>
							<g>
								<path class="st13" d="M124.4,130.6c0.1-0.1,0.2-0.2,0.2-0.3c0.2-0.2,0.3-0.5,0.2-0.8c-0.1-0.3-0.4-0.5-0.6-0.4
									c-0.2,0.1-0.3,0.4-0.3,0.7c0,0.3,0.1,0.6,0.2,0.9c-0.1-0.1-0.2-0.1-0.3,0c-0.1,0.1-0.1,0.3-0.1,0.4c0,0.1,0.1,0.2,0.2,0.3
									c0.1,0.1,0.1,0.2,0.1,0.3c0,0.1-0.1,0.1-0.1,0.2c0,0.1,0,0.2,0,0.2c0,0,0.1,0,0.1,0c0.2-0.2,0.4-0.5,0.4-0.9
									C124.3,131,124.3,130.8,124.4,130.6z"/>
							</g>
						</g>
						<g>
							<g>
								<path class="st8" d="M123.5,123c0.2,0.2,0.2,0.6,0.3,0.8c0.2,0.3,0.5,0.2,0.8,0.2c0.5,0,1,0.4,1.4,0.8
									c0.4,0.5,0.6,1,0.9,1.6c0.2-0.4,0.4-0.7,0.5-1.1c-1.8-1.4-3.7-2.8-5.5-4.1c0.1,0.6,0.2,1.2,0.3,1.8c0,0.1,0,0.2,0.1,0.3
									c0.1,0.2,0.4,0.1,0.6-0.1C123.1,123,123.3,122.8,123.5,123z"/>
							</g>
						</g>
					</g>
					<g>
						<g>
							<g>
								<path class="st0" d="M102.7,249.8c-0.4-0.3-1.1-0.4-1.6-0.5c-0.5-0.1-0.9-0.3-1.3-0.6c-0.4-0.3-0.7-1-0.6-1.6
									c-1.3-0.1-2.2-0.7-3.3-1.4c0,1.2-0.6,2.2-0.8,3.4c-0.1,0.3-0.1,0.6,0,0.9c-0.1,0.8-0.1,1.6,0.1,2.3c1,0.8,2.3,1.1,3.5,0.9
									c0-0.3,0.1-0.5,0.1-0.7c0.6-0.2,1.1-0.3,1.7-0.2c0.6,0.1,0.9,0.3,1.3,0.2c0.3,0,0.5-0.3,0.9-0.4c0.3-0.2,0.7-0.7,0.8-1.1
									C103.3,250.4,103.1,250.1,102.7,249.8z"/>
							</g>
						</g>
						<g>
							<g>
								<path class="st11" d="M98.9,248.2c-0.9-0.6-1.9-1.1-2.9-1.4c-0.1,0.3-0.3,0.5-0.3,0.8c-0.1,0.3,0,0.6,0.1,0.9
									c0.1,0.2,0.4,0.4,0.6,0.4C97.2,249.2,98.2,248.9,98.9,248.2z"/>
							</g>
						</g>
						<g>
							<g>
								<g>
									<path class="st8" d="M97.3,233.7c-0.5,1.5-1.1,6.9-1.7,8.9c-0.5,1.5-0.9,2.3-0.2,3.7c0.7,1.3,2.9,2.8,4.1,2.1
										c3.2-10.7,7-21.1,10-31.8c3-10.8,5.2-22.1,5-33.5c-4.8-2-9.6-3.9-14.4-5.9c-4.5,13.9-1.5,18-1.1,28.2
										C99.3,215.5,100.1,224.2,97.3,233.7z"/>
								</g>
							</g>
						</g>
						<g>
							<g>
								<g>
									<path class="st14" d="M114.4,183c-3.5-1.4-7-2.9-10.6-4.3c-4.8,13.8-0.4,29.3-1.3,43.6c-0.6,9.1-2.3,17.8-4.8,26
										c0.6,0.3,1.3,0.3,1.7,0.1c3.2-10.7,7-21.1,10-31.8C112.4,205.8,114.5,194.5,114.4,183z"/>
								</g>
							</g>
						</g>
						<g>
							<g>
								<g>
									<path class="st0" d="M103.5,178.6c3.6,1.5,7.3,3,10.9,4.5c0.2,11.4-2,22.8-5,33.5c-1.9,7-4.2,13.9-6.5,20.8
										c0.4-2.5,0.6-5.1,0.9-7.5C106.7,212.1,96.5,195.3,103.5,178.6z"/>
								</g>
							</g>
						</g>
					</g>
					<g>
						<g>
							<g>
								<path class="st0" d="M117.5,256.2c-0.2-0.7-0.8-1.1-1.4-1.2c-0.6-0.1-1.2,0-1.7,0c-2.3,0-4.5-1.5-6.8-1c0,1.3-0.2,2.5,0,3.8
									c0,0.2,0.1,0.5,0.1,0.7c0,0.6,0.1,1.3,0.2,1.9c0,0.3,0.1,0.7,0.2,0.9c0.2,0.3,0.5,0.5,0.8,0.6c1.2,0.4,2.6,0.1,3.7-0.8
									c0.1-0.1,0.3-0.2,0.3-0.4c0-0.1,0.1-0.3,0.1-0.4c0.3-0.2,0.7-0.4,1-0.5c0.8-0.3,1.2-0.4,1.9-0.9
									C116.7,258.4,117.8,257.2,117.5,256.2z"/>
							</g>
						</g>
						<g>
							<g>
								<path class="st11" d="M113.1,255.7c0.2-0.1,0.4,0.1,0.4,0.4c0,0.2-0.1,0.5-0.2,0.7c-0.1,0.2-0.3,0.3-0.5,0.3
									c-0.8,0.3-1.7,0.4-2.6,0.4c-0.5,0-1,0-1.5-0.3c-0.5-0.2-0.9-0.7-1-1.4c-0.1-0.6,0.1-1.4,0.6-1.6L113.1,255.7z"/>
							</g>
						</g>
						<g>
							<g>
								<g>
									<path class="st8" d="M100.8,179.7l0.3-4.2c4.4,2.6,9.5,5.5,14.4,6.4c0,13.7,1,25.3,0.7,37.8c-0.3,11.6-1.9,24.2-3.2,36.4
										c-2.2,0.7-3.7,0.9-5.6-1c-0.1-10.3-0.6-18.4-0.1-23c0.5-4.5-1.2-15.8-2.3-20.2C101.8,198.2,98.6,196,100.8,179.7z"/>
								</g>
							</g>
						</g>
						<g>
							<g>
								<g>
									<path class="st14" d="M110.6,217.9c-0.9-12.5-5.4-26.1-2.8-38.8c-2.3-1.1-4.6-2.4-6.7-3.7l-0.3,4.2
										c-2.2,16.4,0.9,18.5,4.2,32.4c1.1,4.4,2.7,15.7,2.3,20.2c-0.5,4.6,0,12.6,0.1,23c0.9,0.9,1.7,1.3,2.6,1.4
										C110.8,243.8,111.4,230.9,110.6,217.9z"/>
								</g>
							</g>
						</g>
						<g>
							<g>
								<g>
									<path class="st15" d="M111.9,255.8c3.6-23.1,2.3-47.1,0.7-69.7l0.4-0.1c1.3,23,2.7,46.7-0.8,69.7
										C112.1,255.7,112.1,255.8,111.9,255.8z"/>
								</g>
							</g>
						</g>
					</g>
					<g>
						<g>
							<path class="st0" d="M109.9,138.8c-1.6-0.4-3.3,1.2-3.9,3.2c-0.6,2-0.5,4.3-0.1,6.4c0.9,5.9,2.8,11.4,5.5,16.3
								c1,1.9,2.2,3.8,3.6,5.3c3.6,3.8,8.4,4.8,13,5.7c0.4-1.3,0.9-2.5,1.3-3.8c-5.2-3.6-9.4-9.3-12-16.1c-1.8-4.7-2.8-9.9-3.8-15
								L109.9,138.8z"/>
						</g>
					</g>
					<g>
						<g>
							<polygon class="st0" points="134.9,181.9 125.7,181.9 129.4,162.1 138.6,162.1 							"/>
						</g>
					</g>
					<g>
						<g>
							<polygon class="st10" points="134.4,178.8 126.7,178.8 129.9,162.1 137.6,162.1 							"/>
						</g>
					</g>
					<g>
						<g>
							<path class="st4" d="M129.9,162.1l-2.9,15.4c2.5-3.8,5.3-6.6,9-6.7l1.7-8.7H129.9z"/>
						</g>
					</g>
					<g>
						<g>
							<g>
								<path class="st1" d="M110.5,138.6c1-0.8,1.9-2.1,2.4-3.5c3.7,0.3,7.3,3.2,9,7.5c-1.5-0.8-3.1-1.5-4.6-2.3
									c-1.9-0.9-3.9-1.9-6-1.9L110.5,138.6z"/>
							</g>
						</g>
						<g>
							<g>
								<g>
									<g>
										<path class="st1" d="M117.2,190.6c0.1-2-0.5-6.3-0.2-12.9c0.1-5.3,0.3-3.3,0.4-5c0.2-4,1.2-5.3,2.8-8.8
											c1.2-2.7,3-7.2,4.2-9.8c1.2-2.6,1.9-6.1,0.6-8.7c-0.8-1.6-2.1-2.6-3.4-3.5c-1.9-1.3-3.9-2.4-6-3.2c-2.3-1-5-1.6-7,0.1
											c-1.3,1.2-2.9,3.5-3.7,5.2c-4.5,9.8-3.9,13.4-6.3,30.3c-0.2,1.4-3.7,11-4.2,14.1c1.1,0.6,2.3,1.1,3.5,1.5
											c0.5-4.1,1.4-8,2.6-11.6c0,4.6-1,7.8-0.8,12.1C105.3,191.8,111.3,191.5,117.2,190.6z"/>
									</g>
								</g>
							</g>
						</g>
						<g>
							<g>
								<path class="st16" d="M111.6,138.9c2.6,0.2,5.1,0.9,7.6,2c-2.1-1.9-4.7-2.9-7.3-3c-0.2,0-0.4,0-0.6,0.1
									c-0.2,0.1-0.3,0.4-0.2,0.7C111.3,138.8,111.4,138.9,111.6,138.9z"/>
							</g>
						</g>
						<g>
							<g>
								<path class="st14" d="M110.3,138.3c-1.6,0.6-2.9,2.1-3.7,3.9C107.8,140.9,109,139.6,110.3,138.3z"/>
							</g>
						</g>
						<g>
							<g>
								<path class="st14" d="M122.6,144.5c-0.7,1.2-1.4,2.4-2.1,3.7C120.8,146.6,121.6,145.3,122.6,144.5z"/>
							</g>
						</g>
						<g>
							<g>
								<g>
									<g>
										<path class="st16" d="M114.2,191c1-0.1,2-0.3,3.1-0.4c0.1-2-0.5-6.3-0.2-12.9c0.1-5.3,0.3-3.3,0.4-5
											c0.2-4,1.2-5.3,2.8-8.8c1.2-2.7,3-7.2,4.2-9.8c1.1-2.4,1.8-5.6,0.9-8.1C112.7,154.6,112.9,173.5,114.2,191z"/>
									</g>
								</g>
							</g>
						</g>
					</g>
					<g>
						<g>
							<g>
								<path class="st12" d="M130.7,146.7c0.7-0.5,1.5-0.9,2.3-1.2c-0.4-1-0.6-2.2-0.5-3.3c0-0.7,0.1-1.4-0.2-1.9
									c-0.2-0.3-0.5-0.4-0.8-0.5c-0.6-0.2-1.3-0.4-1.9-0.6c-0.6-0.2-0.8,0.1-1.2-0.7c-0.1-0.3-0.7-1.1-0.9-1.4
									c-0.2-0.3-0.6-1.4-1-0.9c-0.2,0.2,0.2,1.3,0.3,1.6c0.3,0.8,0.5,1.6,0.8,2.4c0.2,0.6,0.3,1.1-0.1,1.5
									c-0.1,0.2-0.5,0.2-0.6,0.3c-0.2,0.1-0.1,0.9,0,1.1c0,0.1,0.1,0.2,0.2,0.3C128.4,144.7,129.6,145.7,130.7,146.7z"/>
							</g>
						</g>
						<g>
							<g>
								<g>
									<path class="st17" d="M133.7,145.7c-0.2-0.6-0.5-1.2-0.7-1.8c-1.1,0-2.2,0.5-3,1.4c-0.1,0.2-0.3,0.3-0.2,0.6
										c0,0.1,0,0.2,0.1,0.3c0.3,0.8,0.6,1.6,1,2.4c0.9-1.3,1.8-1.9,3.1-2.3L133.7,145.7z"/>
								</g>
							</g>
						</g>
						<g>
							<g>
								<g>
									<path class="st1" d="M137.7,169.8c0.8-0.4,1.4-1.4,1.7-2.5c0.5-2.1,0.3-4.4-0.2-6.4c-0.5-2.1-1.3-4-2-6
										c-0.9-2.7-1.5-5.6-2.5-8.3c-0.2-0.6-0.5-1.2-0.9-1.5c-0.6-0.3-1.3,0.1-2,0.2c-0.5,0.1-0.9,0.7-1.4,1
										c-0.3,0.2-0.5,0.7-0.4,1.1c0.8,3.9,1.4,7.6,1.7,11.6c0.2,2.1,0.3,4.3,0.9,6.3c0.6,2,1.7,3.8,3.3,4.5
										C136.5,170,137.1,170.1,137.7,169.8z"/>
								</g>
							</g>
						</g>
						<g>
							<g>
								<g>
									<path class="st16" d="M130.3,146.3c-0.3,0.2-0.5,0.7-0.4,1.1c0.8,3.9,1.4,7.6,1.7,11.6c0.2,2.1,0.3,4.3,0.9,6.3
										c0.6,2,1.7,3.8,3.3,4.5c0,0,0.1,0,0.1,0c-0.4-8.4-2.2-16.6-4.7-24.3C130.9,145.8,130.6,146.1,130.3,146.3z"/>
								</g>
							</g>
						</g>
						<g>
							<g>
								<g>
									<path class="st1" d="M120,152c0.3-2.8,1.6-5.5,3.4-7.1c0.4-0.3,0.8-0.7,1.3-0.6c0.4,0.1,0.7,0.4,0.9,0.8
										c3.4,4.3,6,9.6,9.5,13.8c0.9,1.2,2,2.3,2.7,3.6c0.8,1.3,1.3,3,1.2,4.7c-0.1,1.7-1.1,3.3-2.4,3.5c-1,0.2-2-0.5-2.8-1.2
										c-1.5-1.3-2.8-2.9-4.1-4.4c-2.2-2.5-4.6-4.6-7.1-6.5c-0.8-0.6-1.6-1.2-2.1-2.1C119.9,155.1,119.8,153.5,120,152z"/>
								</g>
							</g>
						</g>
						<g>
							<g>
								<path class="st14" d="M136,159.9c1.4,1.5,2.2,3.9,2.1,6.3c0.3-1.2,0.2-2.5-0.1-3.7C137.6,161.3,136.9,160.4,136,159.9z"/>
							</g>
						</g>
						<g>
							<g>
								<g>
									<path class="st16" d="M135.6,169c-4-7.8-11.1-10.8-15.5-17.4c0,0.1-0.1,0.3-0.1,0.4c-0.2,1.5-0.1,3.1,0.6,4.3
										c0.5,1,1.4,1.5,2.1,2.1c2.5,1.9,4.9,4.1,7.1,6.5c1.4,1.5,2.6,3.1,4.1,4.4c0.7,0.7,1.6,1.3,2.5,1.3
										C136.1,170.2,135.8,169.6,135.6,169z"/>
								</g>
							</g>
						</g>
					</g>
				</g>
			</g>
			<g>
				<g>
					<path class="st16" d="M100.7,175.8c0.4-11.2,2.8-22.3,7.1-32.1C103.3,153.3,100.9,164.6,100.7,175.8z"/>
				</g>
			</g>
		</g>
	</g>
</g>
</svg>
