<?xml version="1.0" encoding="utf-8"?>
<!-- Generator: Adobe Illustrator 25.1.0, SVG Export Plug-In . SVG Version: 6.00 Build 0)  -->
<svg version="1.1" id="Layer_1" xmlns="http://www.w3.org/2000/svg" xmlns:xlink="http://www.w3.org/1999/xlink" x="0px" y="0px"
	 viewBox="0 0 300 265" style="enable-background:new 0 0 300 265;" xml:space="preserve">
<g>
	<g>
		<path style="fill:#A7BFC2;" d="M146.22,57.52C68.46,57.52,5.4,129.76,5.4,218.84h281.74C287.14,129.76,224.08,57.52,146.22,57.52z
			"/>
		<path style="fill:#8BA9AC;" d="M10.4,213.84c1.12-40,15.2-77.45,40-105.72c25.61-29.39,59.69-45.51,95.82-45.51
			s70.2,16.12,95.82,45.51c24.8,28.37,38.88,65.71,40,105.72v5H10.4V213.84z"/>
		<g>
			<g>
				<path style="fill:#68807E;" d="M280.2,192.72v26.02h-1.84v-36.33C279.08,185.88,279.69,189.35,280.2,192.72z"/>
				<path style="fill:#68807E;" d="M275.3,169.76v49.08h-1.84v-54.9C274.18,165.88,274.69,167.82,275.3,169.76z"/>
				<path style="fill:#68807E;" d="M270.4,155.07v63.67h-1.84v-68.06C269.18,152.11,269.79,153.64,270.4,155.07z"/>
				<path style="fill:#68807E;" d="M265.4,143.74v75.1h-1.73v-78.78C264.28,141.29,264.89,142.52,265.4,143.74z"/>
				<path style="fill:#68807E;" d="M260.5,134.25v84.59h-1.84v-87.76C259.28,132.11,259.89,133.23,260.5,134.25z"/>
				<path style="fill:#68807E;" d="M255.61,126.09v92.76h-1.84v-95.51C254.38,124.25,254.99,125.17,255.61,126.09z"/>
				<path style="fill:#68807E;" d="M250.61,118.84v100h-1.84V116.39C249.48,117.21,250.1,118.03,250.61,118.84z"/>
				<path style="fill:#68807E;" d="M245.71,112.41v106.43h-1.84V110.27C244.48,110.99,245.1,111.7,245.71,112.41z"/>
				<path style="fill:#68807E;" d="M240.81,106.6v112.25h-1.84V104.66C239.59,105.27,240.2,105.99,240.81,106.6z"/>
				<path style="fill:#68807E;" d="M235.91,101.39v117.45h-1.84V99.56C234.69,100.17,235.3,100.78,235.91,101.39z"/>
				<path style="fill:#68807E;" d="M230.91,96.6v122.25h-1.84V94.97C229.79,95.58,230.3,96.09,230.91,96.6z"/>
				<path style="fill:#68807E;" d="M226.01,92.31v126.53h-1.84V90.78C224.79,91.29,225.4,91.8,226.01,92.31z"/>
				<path style="fill:#68807E;" d="M221.12,88.33v130.51h-1.84V87.01C219.89,87.41,220.5,87.92,221.12,88.33z"/>
				<path style="fill:#68807E;" d="M216.12,84.76v134.08h-1.84V83.54C214.99,83.94,215.5,84.35,216.12,84.76z"/>
				<path style="fill:#68807E;" d="M211.22,81.5v137.35h-1.84V80.37C209.99,80.78,210.61,81.19,211.22,81.5z"/>
				<path style="fill:#68807E;" d="M206.32,78.54v140.31h-1.84V77.62C205.1,77.92,205.71,78.23,206.32,78.54z"/>
				<path style="fill:#68807E;" d="M201.32,75.88v142.96h-1.84V74.97C200.2,75.27,200.81,75.58,201.32,75.88z"/>
				<path style="fill:#68807E;" d="M196.42,73.54v145.31h-1.84V72.72C195.2,73.03,195.81,73.23,196.42,73.54z"/>
				<path style="fill:#68807E;" d="M191.52,71.39v147.45h-1.84V70.68C190.3,70.88,190.91,71.19,191.52,71.39z"/>
				<path style="fill:#68807E;" d="M186.52,69.56v149.29h-1.84V68.94C185.4,69.15,186.01,69.35,186.52,69.56z"/>
				<path style="fill:#68807E;" d="M181.63,67.92v150.92h-1.84V67.31C180.4,67.52,181.01,67.72,181.63,67.92z"/>
				<path style="fill:#68807E;" d="M176.73,66.5v152.35h-1.84V65.99C175.5,66.19,176.12,66.29,176.73,66.5z"/>
				<path style="fill:#68807E;" d="M171.83,65.27v153.57h-1.84V64.96C170.61,65.07,171.22,65.17,171.83,65.27z"/>
				<path style="fill:#68807E;" d="M166.83,64.35v154.49h-1.84V64.05C165.71,64.15,166.22,64.25,166.83,64.35z"/>
				<path style="fill:#68807E;" d="M161.93,63.54v155.21h-1.84V63.33C160.71,63.43,161.32,63.54,161.93,63.54z"/>
				<path style="fill:#68807E;" d="M157.03,63.03v155.82h-1.84V62.92C155.81,62.92,156.42,63.03,157.03,63.03z"/>
				<path style="fill:#68807E;" d="M152.03,62.72v156.12h-1.84V62.62C150.91,62.62,151.52,62.62,152.03,62.72z"/>
				<path style="fill:#68807E;" d="M147.14,62.52v156.23h-1.84V62.52c0.31,0,0.61,0,0.92,0C146.52,62.52,146.83,62.52,147.14,62.52z
					"/>
				<path style="fill:#68807E;" d="M142.24,62.62v156.23h-1.84V62.72C141.01,62.62,141.63,62.62,142.24,62.62z"/>
				<path style="fill:#68807E;" d="M137.24,62.92v155.92h-1.84V63.03C136.12,63.03,136.73,62.92,137.24,62.92z"/>
				<path style="fill:#68807E;" d="M132.34,63.33v155.51h-1.84V63.54C131.12,63.54,131.73,63.43,132.34,63.33z"/>
				<path style="fill:#68807E;" d="M127.44,64.05v154.8h-1.84V64.35C126.22,64.25,126.83,64.15,127.44,64.05z"/>
				<path style="fill:#68807E;" d="M122.54,64.96v153.88h-1.84V65.27C121.32,65.17,121.93,65.07,122.54,64.96z"/>
				<path style="fill:#68807E;" d="M117.54,65.99v152.86h-1.84V66.5C116.32,66.29,116.93,66.19,117.54,65.99z"/>
				<path style="fill:#68807E;" d="M112.65,67.31v151.53h-1.84V67.92C111.42,67.72,112.03,67.52,112.65,67.31z"/>
				<path style="fill:#68807E;" d="M107.75,68.94v149.9h-1.84V69.56C106.52,69.35,107.14,69.15,107.75,68.94z"/>
				<path style="fill:#68807E;" d="M102.75,70.68v148.16h-1.84V71.39C101.63,71.19,102.14,70.88,102.75,70.68z"/>
				<path style="fill:#68807E;" d="M97.85,72.72v146.12h-1.84V73.54C96.63,73.23,97.24,73.03,97.85,72.72z"/>
				<path style="fill:#68807E;" d="M92.95,74.97v143.78h-1.84V75.88C91.73,75.58,92.34,75.27,92.95,74.97z"/>
				<path style="fill:#68807E;" d="M87.95,77.62v141.23h-1.84V78.54C86.83,78.23,87.34,77.92,87.95,77.62z"/>
				<path style="fill:#68807E;" d="M83.05,80.37v138.47h-1.84V81.5C81.83,81.19,82.44,80.78,83.05,80.37z"/>
				<path style="fill:#68807E;" d="M78.16,83.54v135.31h-1.84V84.76C76.93,84.35,77.54,83.94,78.16,83.54z"/>
				<path style="fill:#68807E;" d="M73.16,87.01v131.84h-1.84V88.33C72.03,87.92,72.65,87.41,73.16,87.01z"/>
				<path style="fill:#68807E;" d="M68.26,90.78v128.06h-1.84V92.31C67.03,91.8,67.65,91.29,68.26,90.78z"/>
				<path style="fill:#68807E;" d="M63.36,94.97v123.78h-1.84V96.6C62.14,96.09,62.75,95.58,63.36,94.97z"/>
				<path style="fill:#68807E;" d="M58.46,99.66v119.18h-1.84V101.39C57.24,100.78,57.85,100.17,58.46,99.66z"/>
				<path style="fill:#68807E;" d="M53.46,104.66v114.18h-1.84V106.6C52.24,105.99,52.85,105.27,53.46,104.66z"/>
				<path style="fill:#68807E;" d="M48.56,110.27v108.57h-1.84V112.41C47.34,111.7,47.95,110.99,48.56,110.27z"/>
				<path style="fill:#68807E;" d="M43.67,116.39v102.45h-1.84v-100C42.44,118.03,43.05,117.21,43.67,116.39z"/>
				<path style="fill:#68807E;" d="M38.67,123.33v95.51h-1.84v-92.76C37.44,125.17,38.05,124.25,38.67,123.33z"/>
				<path style="fill:#68807E;" d="M33.77,131.09v87.76h-1.84v-84.59C32.54,133.23,33.16,132.11,33.77,131.09z"/>
				<path style="fill:#68807E;" d="M28.87,140.07v78.78h-1.84v-75.1C27.65,142.52,28.26,141.29,28.87,140.07z"/>
				<path style="fill:#68807E;" d="M23.87,150.68v68.16h-1.84v-63.67C22.65,153.64,23.26,152.11,23.87,150.68z"/>
				<path style="fill:#68807E;" d="M18.97,163.84v54.9h-1.84v-49.08C17.75,167.82,18.36,165.88,18.97,163.84z"/>
				<path style="fill:#68807E;" d="M14.07,182.52v36.33h-1.84v-26.02C12.75,189.35,13.36,185.88,14.07,182.52z"/>
			</g>
		</g>
	</g>
	<g>
		<rect x="101.22" y="145.27" style="fill:#2B4041;" width="90.1" height="73.57"/>
		<rect x="101.22" y="145.27" style="fill:#183435;" width="90.1" height="5"/>
		<rect x="101.22" y="145.27" style="fill:#183435;" width="4.39" height="73.57"/>
	</g>
	<g>
		<g>
			<g>
				<rect x="194.08" y="145.27" style="fill:#A7BFC2;" width="33.57" height="19.59"/>
				<rect x="196.91" y="148.08" style="fill:#677877;" width="27.96" height="13.98"/>
			</g>
			<g>
				<rect x="230.4" y="145.27" style="fill:#A7BFC2;" width="33.57" height="19.59"/>
				<rect x="233.25" y="148.07" style="fill:#677877;" width="27.96" height="13.98"/>
			</g>
		</g>
		<g>
			<g>
				<rect x="28.46" y="145.27" style="fill:#A7BFC2;" width="33.57" height="19.59"/>
				<rect x="31.3" y="148.07" style="fill:#677877;" width="27.96" height="13.98"/>
			</g>
			<g>
				<rect x="64.79" y="145.27" style="fill:#A7BFC2;" width="33.57" height="19.59"/>
				<rect x="67.64" y="148.06" style="fill:#677877;" width="27.96" height="13.98"/>
			</g>
		</g>
	</g>
</g>
<g>
	<g>
		<g>
			<polygon style="fill-rule:evenodd;clip-rule:evenodd;fill:#353939;" points="80.07,219.33 80.4,219.66 78.09,222.74 
				77.76,222.52 			"/>
		</g>
		<g>
			<polygon style="fill-rule:evenodd;clip-rule:evenodd;fill:#353939;" points="81.18,224.29 80.96,224.73 77.65,222.63 
				77.87,222.19 			"/>
		</g>
		<g>
			<polygon style="fill-rule:evenodd;clip-rule:evenodd;fill:#353939;" points="79.96,212.72 81.29,212.72 81.4,223.29 
				80.07,223.29 			"/>
		</g>
		<g>
			<polygon style="fill-rule:evenodd;clip-rule:evenodd;fill:#505352;" points="79.63,218.12 81.73,218.12 81.73,218.56 
				79.63,218.56 			"/>
		</g>
		<g>
			<polygon style="fill-rule:evenodd;clip-rule:evenodd;fill:#505352;" points="79.74,219.77 81.73,219.88 81.73,221.75 
				79.74,221.64 			"/>
		</g>
		<g>
			<path style="fill-rule:evenodd;clip-rule:evenodd;fill:#353939;" d="M82.28,221.31c1.65,0,2.97,1.54,2.97,3.31
				s-1.32,3.2-2.97,3.2s-2.97-1.54-2.97-3.31S80.62,221.31,82.28,221.31z"/>
		</g>
		<g>
			<path style="fill-rule:evenodd;clip-rule:evenodd;fill:#505352;" d="M82.28,222.63c0.99,0,1.76,0.88,1.76,1.98
				s-0.77,1.87-1.76,1.87c-0.99,0-1.76-0.88-1.76-1.98S81.29,222.63,82.28,222.63z"/>
		</g>
		<g>
			<path style="fill-rule:evenodd;clip-rule:evenodd;fill:#353939;" d="M82.28,223.29c0.66,0,1.21,0.55,1.21,1.32
				c0,0.66-0.55,1.32-1.21,1.21c-0.66,0-1.21-0.55-1.21-1.32C81.18,223.85,81.62,223.18,82.28,223.29z"/>
		</g>
		<g>
			<path style="fill-rule:evenodd;clip-rule:evenodd;fill:#505352;" d="M82.28,223.85c0.33,0,0.55,0.33,0.55,0.66
				c0,0.33-0.22,0.66-0.55,0.66s-0.55-0.33-0.55-0.66C81.73,224.18,81.95,223.85,82.28,223.85z"/>
		</g>
	</g>
	<g>
		<polygon style="fill-rule:evenodd;clip-rule:evenodd;fill:#778062;" points="75.67,216.9 91.09,217.23 91.2,220.87 75.67,220.54 
					"/>
	</g>
	<g>
		<g>
			<path style="fill-rule:evenodd;clip-rule:evenodd;fill:#353939;" d="M170.09,219.77c-2.31,0.77-3.64,3.64-2.75,6.17
				c0.77,2.53,3.42,3.97,5.73,3.2c2.31-0.77,3.64-3.64,2.75-6.17C174.94,220.32,172.41,218.89,170.09,219.77z"/>
		</g>
		<g>
			<path style="fill-rule:evenodd;clip-rule:evenodd;fill:#505352;" d="M170.64,221.64c-1.43,0.44-2.09,2.09-1.65,3.64
				c0.44,1.54,1.98,2.42,3.42,1.87c1.43-0.44,2.09-2.09,1.65-3.64C173.62,221.97,172.07,221.2,170.64,221.64z"/>
		</g>
		<g>
			<path style="fill-rule:evenodd;clip-rule:evenodd;fill:#353939;" d="M170.97,222.52c-0.99,0.33-1.43,1.43-1.1,2.42
				c0.33,0.99,1.32,1.65,2.31,1.32c0.99-0.33,1.43-1.43,1.1-2.42C172.85,222.74,171.85,222.19,170.97,222.52z"/>
		</g>
		<g>
			<path style="fill-rule:evenodd;clip-rule:evenodd;fill:#505352;" d="M171.19,223.52c-0.44,0.11-0.66,0.66-0.55,1.21
				c0.11,0.55,0.66,0.77,1.1,0.66c0.44-0.11,0.66-0.66,0.55-1.21C172.18,223.63,171.74,223.29,171.19,223.52z"/>
		</g>
	</g>
	<g>
		<g>
			<path style="fill-rule:evenodd;clip-rule:evenodd;fill:#353939;" d="M159.84,219.55c-2.31,0.77-3.64,3.64-2.75,6.17
				c0.77,2.53,3.42,3.97,5.73,3.2c2.31-0.77,3.64-3.64,2.75-6.17C164.8,220.1,162.27,218.78,159.84,219.55z"/>
		</g>
		<g>
			<path style="fill-rule:evenodd;clip-rule:evenodd;fill:#505352;" d="M160.51,221.42c-1.43,0.44-2.09,2.09-1.65,3.64
				c0.44,1.54,1.98,2.42,3.42,1.87c1.43-0.44,2.09-2.09,1.65-3.64C163.37,221.86,161.83,220.98,160.51,221.42z"/>
		</g>
		<g>
			<path style="fill-rule:evenodd;clip-rule:evenodd;fill:#353939;" d="M160.73,222.41c-0.99,0.33-1.43,1.43-1.1,2.42
				c0.33,0.99,1.32,1.65,2.31,1.32c0.99-0.33,1.43-1.43,1.1-2.42C162.71,222.63,161.72,222.08,160.73,222.41z"/>
		</g>
		<g>
			<path style="fill-rule:evenodd;clip-rule:evenodd;fill:#505352;" d="M161.06,223.29c-0.44,0.11-0.66,0.66-0.55,1.21
				s0.66,0.77,1.1,0.66c0.44-0.11,0.66-0.66,0.55-1.21S161.5,223.18,161.06,223.29z"/>
		</g>
	</g>
	<g>
		<g>
			<path style="fill-rule:evenodd;clip-rule:evenodd;fill:#353939;" d="M149.71,219.33c-2.31,0.77-3.64,3.64-2.75,6.17
				c0.77,2.53,3.42,3.97,5.73,3.2c2.31-0.77,3.64-3.64,2.75-6.17C154.67,219.99,152.02,218.56,149.71,219.33z"/>
		</g>
		<g>
			<path style="fill-rule:evenodd;clip-rule:evenodd;fill:#505352;" d="M150.26,221.31c-1.43,0.44-2.09,2.09-1.65,3.64
				c0.44,1.54,1.98,2.42,3.42,1.87c1.43-0.44,2.09-2.09,1.65-3.64C153.23,221.64,151.69,220.76,150.26,221.31z"/>
		</g>
		<g>
			<path style="fill-rule:evenodd;clip-rule:evenodd;fill:#353939;" d="M150.59,222.19c-0.99,0.33-1.43,1.43-1.1,2.42
				s1.32,1.65,2.31,1.32c0.99-0.33,1.43-1.43,1.1-2.42C152.57,222.41,151.47,221.86,150.59,222.19z"/>
		</g>
		<g>
			<path style="fill-rule:evenodd;clip-rule:evenodd;fill:#505352;" d="M150.92,223.18c-0.44,0.11-0.66,0.66-0.55,1.21
				c0.11,0.55,0.66,0.77,1.1,0.66c0.44-0.11,0.66-0.66,0.55-1.21C151.8,223.29,151.36,222.96,150.92,223.18z"/>
		</g>
	</g>
	<g>
		<g>
			<path style="fill-rule:evenodd;clip-rule:evenodd;fill:#353939;" d="M139.46,219.22c-2.31,0.77-3.64,3.64-2.75,6.17
				c0.77,2.53,3.42,3.97,5.73,3.2c2.31-0.77,3.64-3.64,2.75-6.17C144.42,219.77,141.89,218.34,139.46,219.22z"/>
		</g>
		<g>
			<path style="fill-rule:evenodd;clip-rule:evenodd;fill:#505352;" d="M140.12,221.09c-1.43,0.44-2.09,2.09-1.65,3.64
				c0.44,1.54,1.98,2.42,3.42,1.87c1.43-0.44,2.09-2.09,1.65-3.64C142.99,221.42,141.55,220.65,140.12,221.09z"/>
		</g>
		<g>
			<path style="fill-rule:evenodd;clip-rule:evenodd;fill:#353939;" d="M140.34,221.97c-0.99,0.33-1.43,1.43-1.1,2.42
				c0.33,0.99,1.32,1.65,2.31,1.32c0.99-0.33,1.43-1.43,1.1-2.42C142.33,222.3,141.33,221.64,140.34,221.97z"/>
		</g>
		<g>
			<path style="fill-rule:evenodd;clip-rule:evenodd;fill:#505352;" d="M140.67,222.96c-0.44,0.11-0.66,0.66-0.55,1.21
				s0.66,0.77,1.1,0.66c0.44-0.11,0.66-0.66,0.55-1.21S141.11,222.74,140.67,222.96z"/>
		</g>
	</g>
	<g>
		<path style="fill-rule:evenodd;clip-rule:evenodd;fill:#989E8A;" d="M98.8,179.44c30.85,0.55,61.7,1.1,92.44,1.65
			c18.07-0.99,37.68-3.42,57.07-1.54c20.82,1.98,45.39-4.3,45.39-0.44c0,4.41-56.63,26-91.01,38.01
			c-7.82,1.21-15.65,2.53-23.47,3.75c-31.62-0.66-63.13-1.32-94.76-1.98c-16.53-0.11-25.56-3.75-31.18-8.92
			c-5.18-4.41-3.75-8.15,0.66-11.68c2.86-1.98,5.62-3.75,8.48-5.73C70.27,183.41,82.06,178.23,98.8,179.44z"/>
	</g>
	<g>
		<path style="fill-rule:evenodd;clip-rule:evenodd;fill:#535C3D;" d="M293.05,180.1c-6.61,6.39-57.73,25.67-90.24,37.02
			c-7.82,1.21-15.65,2.53-23.47,3.75c-31.62-0.66-63.13-1.32-94.76-1.98c-16.53-0.11-25.56-3.75-31.18-8.92
			c-0.66-0.55-1.21-1.1-1.65-1.65c7.71,1.65,14.43,0.11,18.07-3.09c10.8-9.7,20.49-18.4,37.24-17.19
			c49.25,0.88,84.62,3.31,137.95-1.43C255.26,185.72,277.85,181.54,293.05,180.1z"/>
	</g>
	<g>
		<path style="fill-rule:evenodd;clip-rule:evenodd;fill:#778062;" d="M293.05,180.1c-0.55,0.55-1.54,1.21-2.86,1.98
			c-26.44,9.92-71.62,23.8-95.42,29.64c-25.78,6.28-78.67,2.64-118.22,1.76c-10.91-0.11-18.51-1.65-24.13-4.19
			c-0.33-0.33-0.55-0.55-0.88-0.88c6.94-0.66,11.9-3.97,14.65-7.16c7.93-9.14,23.91-14.32,40.55-13.11
			c49.25,0.88,84.62,3.31,137.95-1.43C255.26,185.72,277.85,181.54,293.05,180.1z"/>
	</g>
	<g>
		<path style="fill-rule:evenodd;clip-rule:evenodd;fill:#989E8A;" d="M181.55,184.84c18.29-5.07,36.58-10.14,54.87-15.09
			c4.41-2.31,7.49-5.4,9.15-9.26c6.94-13.11,13.88-26.22,20.71-39.33c0.77-1.43,2.09-2.2,3.64-2.2c1.87,0,3.97,0.11,6.17,0.11
			c0.11,0,0.22,0,0.33,0l18.18,0.33c1.32,0,2.42,1.21,2.42,2.64l0,0c0,1.43-1.1,2.2-2.42,2.64l-3.42,0.99l-6.17,53.99
			C250.52,181.43,216.04,183.08,181.55,184.84z"/>
	</g>
	<g>
		<path style="fill-rule:evenodd;clip-rule:evenodd;fill:#778062;" d="M296.91,121.16c0.11,0.22,0.11,0.55,0.11,0.88l0,0
			c0,1.43-1.1,2.2-2.42,2.64l-3.42,0.99l-6.17,53.99l-85.06,4.19l39.55-12.56c4.3-2.31,7.27-5.4,8.81-9.26
			c6.5-13.11,13-26.22,19.5-39.33c0.66-1.43,1.98-2.2,3.53-2.2c1.87,0,3.97,0.11,6.17,0.11c0.11,0,0.22,0,0.33,0l18.18,0.33
			C296.36,121.05,296.58,121.05,296.91,121.16z"/>
	</g>
	<g>
		<path style="fill-rule:evenodd;clip-rule:evenodd;fill:#4E5738;" d="M296.91,122.92c-0.33,0.88-1.21,1.43-2.31,1.76l-3.2,0.88
			l-17.96-0.55C282.81,124.68,293.49,124.68,296.91,122.92z"/>
	</g>
	<g>
		<path style="fill-rule:evenodd;clip-rule:evenodd;fill:#535C3D;" d="M201.05,217.35l-21.82,3.53l-45.5-0.99l-16.2-31.51
			c24.68,0.55,46.28,1.32,69.19,1.21L201.05,217.35z"/>
	</g>
	<g>
		<path style="fill-rule:evenodd;clip-rule:evenodd;fill:#989E8A;" d="M164.58,192.77c-23.36-1.65-46.5,2.2-70.19-13.44
			c6.5-1.1,13.99-3.2,24.46-2.75c18.73,1.54,34.6,2.75,53.33,4.3C169.87,186.38,167.12,187.05,164.58,192.77z"/>
	</g>
	<g>
		<path style="fill-rule:evenodd;clip-rule:evenodd;fill:#778062;" d="M164.58,192.77c-21.71-1.54-43.08,1.65-65.01-10.36
			c5.29-2.42,8.7-4.52,20.6-4.3l51.34,4.08C169.32,186.6,166.9,187.6,164.58,192.77z"/>
	</g>
	<g>
		<path style="fill-rule:evenodd;clip-rule:evenodd;fill:#535C3D;" d="M164.58,192.77c-19.39-1.32-38.56,1.1-58.07-6.94
			c6.5-2.75,13.77-5.62,20.93-4.74c15.98,0.88,26.77,3.86,41.21,5.29C167.34,188.04,166.01,189.69,164.58,192.77z"/>
	</g>
	<g>
		<path style="fill-rule:evenodd;clip-rule:evenodd;fill:#778062;" d="M187.17,185.72c-18.18,1.1-24.9,6.61-31.95,8.15
			c-9.81-1.1-19.5-2.09-29.31-3.2c4.3-3.31,14.87-5.29,29.86-6.5C165.68,185.72,177.36,184.29,187.17,185.72z"/>
	</g>
	<g>
		<path style="fill-rule:evenodd;clip-rule:evenodd;fill:#535C3D;" d="M179.35,185.83c-13,1.87-18.84,6.06-24.9,7.49l-26-2.86
			c5.07-2.64,14.87-4.41,28.21-5.4C163.7,186.16,171.74,185.61,179.35,185.83z"/>
	</g>
	<g>
		<path style="fill-rule:evenodd;clip-rule:evenodd;fill:#26574D;" d="M76.55,193.55l-0.22-1.76l1.32-3.53h2.97l2.86,6.39
			C81.29,194.32,78.86,193.88,76.55,193.55L76.55,193.55z M76,189.69l0.66-1.54h-0.88L76,189.69z M70.49,188.04h0.99l-0.77,1.43
			L70.49,188.04L70.49,188.04z M75.89,188.15l-3.42-0.11l-1.54,2.97l0.22,1.54c1.1,0.11,2.31,0.33,3.53,0.44l1.43-3.53L75.89,188.15
			L75.89,188.15z M76.33,191.78l0.22,1.76c-0.33,0-0.55-0.11-0.88-0.11L76.33,191.78z M67.18,188.04l3.31,0.11l0.22,1.43l-1.65,2.97
			c-2.31-0.11-4.52-0.11-6.5,0.22l0,0C63.88,191.01,65.42,189.47,67.18,188.04L67.18,188.04z M70.82,191.12l-0.77,1.54
			c0.33,0,0.66,0.11,0.99,0.11L70.82,191.12z"/>
	</g>
	<g>
		<path style="fill-rule:evenodd;clip-rule:evenodd;fill:#2E685D;" d="M75.78,193.33L75.78,193.33l0.77-1.98
			c2.64,0.77,4.74,1.87,6.06,3.2C80.4,194.21,78.09,193.77,75.78,193.33L75.78,193.33z M75.45,191.12L75.45,191.12L75.45,191.12
			L75.45,191.12z M70.27,190.24l-0.22,0.33v-0.33H70.27L70.27,190.24z M75.45,191.12c-1.32-0.33-2.64-0.55-4.19-0.77l-0.99,1.87
			v0.44c1.43,0.11,2.86,0.33,4.3,0.55L75.45,191.12L75.45,191.12L75.45,191.12z M75.78,193.33L75.78,193.33L75.78,193.33
			L75.78,193.33z M70.05,190.57l-1.1,1.98c-2.31-0.11-4.52-0.11-6.5,0.22l0,0c0.77-0.88,1.54-1.76,2.31-2.53
			c0.99-0.11,1.98-0.11,3.09-0.11c0.77,0,1.43,0,2.2,0.11V190.57L70.05,190.57z M70.27,192.22l-0.22,0.33h0.22V192.22z"/>
	</g>
	<g>
		<path style="fill-rule:evenodd;clip-rule:evenodd;fill:#989E8A;" d="M118.75,189.58c12.34-0.22,24.13,1.32,35.59,3.75
			c1.32,0.22,2.31,1.21,2.42,2.64c0,1.43,0,2.75,0,4.19c0,1.43-1.1,2.31-2.31,2.53c-11.24,1.87-23.03,2.42-35.59,1.65
			c-1.32-0.11-2.31-1.21-2.42-2.64c0-3.2,0-6.39-0.11-9.59C116.43,190.79,117.42,189.69,118.75,189.58z"/>
	</g>
	<g>
		<path style="fill-rule:evenodd;clip-rule:evenodd;fill:#778062;" d="M129.1,189.8c8.59,0.55,17.08,1.76,25.23,3.53
			c1.32,0.22,2.31,1.21,2.42,2.64c0,1.43,0,2.75,0,4.19c0,1.43-1.1,2.31-2.31,2.53c-5.73,0.99-11.68,1.54-17.85,1.87L129.1,189.8z"
			/>
	</g>
	<g>
		<path style="fill-rule:evenodd;clip-rule:evenodd;fill:#535C3D;" d="M156.54,194.98c0.11,0.33,0.22,0.66,0.22,0.99
			c0,1.43,0,2.75,0,4.19c0,1.43-1.1,2.31-2.31,2.53c-10.91,1.87-22.48,2.42-34.71,1.65c-0.11-0.22-0.11-0.55-0.11-0.88
			c0-3.2,0-6.39-0.11-9.59c0-1.43,0.99-2.53,2.31-2.53C133.84,191.23,145.3,192.66,156.54,194.98z"/>
	</g>
	<g>
		<path style="fill-rule:evenodd;clip-rule:evenodd;fill:#778062;" d="M156.54,194.98c0.11,0.33,0.22,0.66,0.22,0.99l0,0l0,0l0,0
			l0,0l0,0l0,0l0,0l0,0l0,0l0,0l0,0l0,0l0,0l0,0l0,0l0,0l0,0l0,0l0,0l0,0l0,0l0,0l0,0l0,0l0,0l0,0l0,0l0,0l0,0l0,0l0,0l0,0l0,0l0,0
			l0,0l0,0l0,0l0,0l0,0l0,0l0,0l0,0l0,0l0,0l0,0l0,0l0,0l0,0l0,0l0,0l0,0l0,0l0,0l0,0l0,0l0,0l0,0l0,0l0,0l0,0l0,0l0,0l0,0l0,0l0,0
			l0,0l0,0l0,0l0,0c0,1.43-0.33,3.31-1.54,3.53c-11.02,1.76-23.36,2.53-35.59,1.87l-0.11-9.59c0-1.43,0.99-2.53,2.31-2.53
			C133.84,191.23,145.3,192.66,156.54,194.98z"/>
	</g>
	<g>
		<path style="fill-rule:evenodd;clip-rule:evenodd;fill:#535C3D;" d="M156.54,194.98c0.11,0.33,0.22,0.66,0.22,0.99l0,0l0,0l0,0
			l0,0l0,0l0,0l0,0l0,0l0,0l0,0l0,0l0,0l0,0l0,0l0,0l0,0l0,0l0,0l0,0l0,0l0,0l0,0l0,0l0,0l0,0l0,0l0,0l0,0l0,0l0,0l0,0l0,0l0,0l0,0
			l0,0l0,0l0,0l0,0l0,0l0,0l0,0l0,0l0,0l0,0l0,0l0,0l0,0l0,0l0,0l0,0l0,0l0,0l0,0l0,0l0,0l0,0l0,0l0,0l0,0l0,0l0,0l0,0l0,0l0,0l0,0
			l0,0l0,0l0,0l0,0c0,1.43-1.1,2.31-2.42,2.53c-6.06,0.99-12.34,1.65-18.73,1.87l-5.62-11.02
			C139.02,192,147.83,193.22,156.54,194.98z"/>
	</g>
	<g>
		<path style="fill-rule:evenodd;clip-rule:evenodd;fill:#6D6E71;" d="M152.57,193c0.55,0.11,1.21,0.22,1.76,0.33
			c1.32,0.22,2.31,1.21,2.42,2.64c0,1.43,0,2.75,0,4.19c0,1.43-1.1,2.31-2.31,2.53c-0.55,0.11-1.21,0.22-1.76,0.33L152.57,193z"/>
	</g>
	<g>
		<path style="fill-rule:evenodd;clip-rule:evenodd;fill:#778062;" d="M213.06,186.16c-18.18,1.1-24.9,6.61-31.95,8.15
			c-9.81-1.1-19.5-2.09-29.31-3.2c4.3-3.31,14.87-5.29,29.86-6.5C191.47,186.16,203.15,184.73,213.06,186.16z"/>
	</g>
	<g>
		<path style="fill-rule:evenodd;clip-rule:evenodd;fill:#535C3D;" d="M204.14,186.83c-13,1.87-18.84,6.06-24.9,7.49l-26-2.86
			c5.07-2.64,14.87-4.41,28.21-5.4C188.49,187.16,196.53,186.6,204.14,186.83z"/>
	</g>
	<g>
		<path style="fill-rule:evenodd;clip-rule:evenodd;fill:#989E8A;" d="M117.2,214.7c20.49-6.83,55.64-6.28,75.14,2.2
			C174.94,225.61,130.43,222.08,117.2,214.7z"/>
	</g>
	<g>
		<path style="fill-rule:evenodd;clip-rule:evenodd;fill:#778062;" d="M129.66,211.73c20.27-3.42,46.72-1.76,62.58,5.29
			c-11.02,5.51-32.94,6.06-51.01,3.86C138.03,216.02,134.28,212.61,129.66,211.73z"/>
	</g>
	<g>
		<path style="fill-rule:evenodd;clip-rule:evenodd;fill:#989E8A;" d="M147.95,190.13c12.34-0.22,24.13,1.32,35.59,3.75
			c1.32,0.22,2.31,1.21,2.42,2.64c0,1.43,0,2.75,0,4.19c0,1.43-1.1,2.31-2.31,2.53c-11.24,1.87-23.03,2.42-35.59,1.65
			c-1.32-0.11-2.31-1.21-2.42-2.64c0-3.2,0-6.39-0.11-9.59C145.63,191.23,146.62,190.13,147.95,190.13z"/>
	</g>
	<g>
		<path style="fill-rule:evenodd;clip-rule:evenodd;fill:#778062;" d="M161.94,190.68c7.38,0.66,14.54,1.76,21.6,3.2
			c1.32,0.22,2.31,1.21,2.42,2.64c0,1.43,0,2.75,0,4.19c0,1.43-1.1,2.31-2.31,2.53c-4.63,0.77-9.48,1.32-14.32,1.65L161.94,190.68z"
			/>
	</g>
	<g>
		<path style="fill-rule:evenodd;clip-rule:evenodd;fill:#535C3D;" d="M185.74,195.53c0.11,0.33,0.22,0.66,0.22,0.99
			c0,1.43,0,2.75,0,4.19c0,1.43-1.1,2.31-2.31,2.53c-10.91,1.87-22.48,2.42-34.71,1.65c-0.11-0.22-0.11-0.55-0.11-0.88
			c0-3.2,0-6.39-0.11-9.59c0-1.43,0.99-2.53,2.31-2.53C163.04,191.78,174.5,193.22,185.74,195.53z"/>
	</g>
	<g>
		<path style="fill-rule:evenodd;clip-rule:evenodd;fill:#778062;" d="M185.74,195.53c0.11,0.33,0.22,0.66,0.22,0.99l0,0l0,0l0,0
			l0,0l0,0l0,0l0,0l0,0l0,0l0,0l0,0l0,0l0,0l0,0l0,0l0,0l0,0l0,0l0,0l0,0l0,0l0,0l0,0l0,0l0,0l0,0l0,0l0,0l0,0l0,0l0,0l0,0l0,0l0,0
			l0,0l0,0l0,0l0,0l0,0l0,0l0,0l0,0l0,0l0,0l0,0l0,0l0,0l0,0l0,0l0,0l0,0l0,0l0,0l0,0l0,0l0,0l0,0l0,0l0,0l0,0l0,0l0,0l0,0l0,0l0,0
			l0,0l0,0l0,0l0,0c0,1.43-0.22,3.97-1.43,4.19c-11.35,1.98-23.47,2.64-35.7,1.98l-0.11-10.47c0-1.43,0.99-2.53,2.31-2.53
			C163.04,191.78,174.5,193.22,185.74,195.53z"/>
	</g>
	<g>
		<path style="fill-rule:evenodd;clip-rule:evenodd;fill:#535C3D;" d="M185.74,195.53c0.11,0.33,0.22,0.66,0.22,0.99l0,0l0,0l0,0
			l0,0l0,0l0,0l0,0l0,0l0,0l0,0l0,0l0,0l0,0l0,0l0,0l0,0l0,0l0,0l0,0l0,0l0,0l0,0l0,0l0,0l0,0l0,0l0,0l0,0l0,0l0,0l0,0l0,0l0,0l0,0
			l0,0l0,0l0,0l0,0l0,0l0,0l0,0l0,0l0,0l0,0l0,0l0,0l0,0l0,0l0,0l0,0l0,0l0,0l0,0l0,0l0,0l0,0l0,0l0,0l0,0l0,0l0,0l0,0l0,0l0,0l0,0
			l0,0l0,0l0,0l0,0c0,1.43-0.66,3.2-1.87,3.42c-4.96,0.77-10.03,1.43-15.32,1.76l-5.95-11.57
			C170.64,192.77,178.24,193.99,185.74,195.53z"/>
	</g>
	<g>
		<path style="fill-rule:evenodd;clip-rule:evenodd;fill:#2F2534;" d="M181.77,193.55c0.55,0.11,1.21,0.22,1.76,0.33
			c1.32,0.22,2.31,1.21,2.42,2.64c0,1.43,0,2.75,0,4.19c0,1.43-1.1,2.31-2.31,2.53c-0.55,0.11-1.21,0.22-1.76,0.33L181.77,193.55z"
			/>
	</g>
	<g>
		<path style="fill-rule:evenodd;clip-rule:evenodd;fill:#6F686B;" d="M185.74,195.53c0.11,0.33,0.22,0.55,0.22,0.99
			c0,1.43,0,2.75,0,4.19c0,0.33-0.11,0.66-0.22,0.99c-0.55,0.33-1.43,0.55-2.31,0.66c-0.55,0-1.1,0.11-1.65,0.11v-7.71l1.65,0.22
			C184.3,194.98,185.19,195.2,185.74,195.53z"/>
	</g>
	<g>
		<path style="fill-rule:evenodd;clip-rule:evenodd;fill:#918A8D;" d="M185.96,196.3c0,0.11,0,0.11,0,0.22v2.31
			c-0.77,0.11-1.65,0.11-2.64,0.11h-1.43v-2.86l1.43,0.11C184.19,196.19,185.19,196.19,185.96,196.3z"/>
	</g>
	<g>
		<polygon style="fill-rule:evenodd;clip-rule:evenodd;fill:#4E5738;" points="286.88,163.8 269.03,129.2 286.77,129.97 
			290.74,130.19 		"/>
	</g>
	<g>
		<path style="fill-rule:evenodd;clip-rule:evenodd;fill:#989E8A;" d="M273.11,127.22c9.03,0.11,26.77,2.42,26.88,4.74l-26.88-0.44
			C267.93,131.4,267.93,127.11,273.11,127.22z"/>
	</g>
	<g>
		<path style="fill-rule:evenodd;clip-rule:evenodd;fill:#778062;" d="M299.99,131.96L299.99,131.96l-26.44-0.44
			c-0.22-1.1,1.1-2.31,3.86-2.31C283.8,129.31,294.15,130.41,299.99,131.96z"/>
	</g>
	<g>
		<path style="fill:#E6E7E8;" d="M92.63,196.63h-1.65c0.11-1.43,0.22-2.75,0.55-3.86c0.33-1.21,0.55-2.09,0.77-2.86
			s0.44-1.32,0.55-1.65c0.11-0.33,0.22-0.55,0.22-0.77c0.11-0.22,0.11-0.33,0.11-0.33l-2.86-0.11v-1.43l4.41,0.11v1.21
			c0,0.22-0.11,0.44-0.22,0.77c-0.11,0.33-0.22,0.66-0.44,1.21C93.3,191.45,92.85,193.99,92.63,196.63z"/>
	</g>
	<g>
		<path style="fill:#E6E7E8;" d="M96.71,196.74v-8.92c-0.11,0.22-0.33,0.33-0.55,0.44c-0.22,0.11-0.44,0.11-0.66,0.11v-1.21
			c0.33,0,0.66-0.22,0.88-0.44c0.33-0.22,0.55-0.55,0.66-0.88h1.21l0.11,11.02L96.71,196.74z"/>
	</g>
	<g>
		<path style="fill:#E6E7E8;" d="M101.78,196.96c-1.32,0-1.98-0.77-1.98-2.31v-1.32h1.43v1.21c0,0.55,0.11,0.77,0.22,0.99
			c0.11,0,0.22,0.11,0.33,0.11l0,0c0.33,0,0.55-0.33,0.55-1.1v-2.75c0-0.44,0-0.66-0.11-0.88c-0.11-0.22-0.22-0.33-0.44-0.33
			c-0.44,0-0.55,0.33-0.55,1.1l-1.32-0.11v-5.62l3.75,0.11v1.54h-2.31v2.2c0.11-0.11,0.22-0.22,0.44-0.33
			c0.22-0.11,0.44-0.11,0.66-0.11c0.55,0,0.99,0.33,1.21,0.88c0.22,0.55,0.33,1.43,0.33,2.64c0,1.21,0,2.09-0.11,2.53
			c-0.11,0.44-0.22,0.88-0.33,1.1C103.1,196.74,102.55,196.96,101.78,196.96z"/>
	</g>
	<g>
		<path style="fill-rule:evenodd;clip-rule:evenodd;fill:#D1D3D4;" d="M92.63,196.63h-1.65c0.11-1.43,0.22-2.75,0.55-3.86
			c0.33-1.21,0.55-2.09,0.77-2.86l0.33-1.1c0.55-0.11,1.1-0.11,1.65-0.22l-0.11,0.44C93.3,191.45,92.85,193.99,92.63,196.63
			L92.63,196.63z M95.39,188.37h0.44C95.72,188.37,95.61,188.37,95.39,188.37L95.39,188.37L95.39,188.37z M96.71,188.26
			c0.55,0,0.99-0.11,1.54-0.11l0.11,8.59h-1.54L96.71,188.26L96.71,188.26z M99.8,188.04c0.44,0,0.99,0,1.43,0v1.54
			c0.11-0.11,0.22-0.22,0.44-0.33c0.22-0.11,0.44-0.11,0.66-0.11c0.55,0,0.99,0.33,1.21,0.88s0.33,1.43,0.33,2.64
			c0,1.21,0,2.09-0.11,2.53c-0.11,0.44-0.22,0.88-0.33,1.1c-0.33,0.44-0.77,0.66-1.54,0.66c-1.32,0-1.98-0.77-1.98-2.31v-1.32h1.43
			v1.21c0,0.55,0.11,0.77,0.22,0.99c0.11,0,0.22,0.11,0.33,0.11l0,0c0.33,0,0.55-0.33,0.55-1.1v-2.75c0-0.44,0-0.66-0.11-0.88
			c-0.11-0.22-0.22-0.33-0.44-0.33c-0.44,0-0.55,0.33-0.55,1.1l-1.32-0.11L99.8,188.04z"/>
	</g>
	<g>
		<path style="fill:#8B927C;" d="M96.05,214.04L96.05,214.04l-5.51-0.11c-0.22,0-0.44-0.11-0.55-0.33
			c-0.11-0.22-0.22-0.44-0.22-0.77l-0.11-12.01c0-0.55,0.33-0.99,0.77-0.99l5.4,0.11c0.44,0,0.77,0.44,0.77,1.1l0.11,12.01
			C96.82,213.6,96.49,214.04,96.05,214.04z M90.43,200.05c-0.33,0-0.55,0.44-0.55,0.88l0.11,12.01c0,0.22,0.11,0.44,0.22,0.66
			c0.11,0.22,0.33,0.22,0.44,0.22l5.4,0.11c0.33,0,0.66-0.44,0.66-0.88l-0.11-12.01c0-0.44-0.33-0.88-0.66-0.88L90.43,200.05
			C90.54,200.05,90.43,200.05,90.43,200.05z"/>
	</g>
	<g>
		<path style="fill:#4E5738;" d="M95.94,213.82C95.83,213.82,95.83,213.82,95.94,213.82l-5.51-0.11c-0.44,0-0.77-0.44-0.77-1.1
			l-0.11-12.01c0-0.55,0.33-0.99,0.77-0.99l5.4,0.11c0.22,0,0.44,0.11,0.55,0.33c0.11,0.22,0.22,0.44,0.22,0.77l0.11,12.01
			C96.6,213.27,96.27,213.71,95.94,213.82z M90.21,199.72c-0.33,0-0.55,0.44-0.55,0.88l0.11,12.01c0,0.44,0.33,0.88,0.66,0.88
			l5.4,0.11c0.33,0,0.66-0.44,0.66-0.88l-0.11-12.01c0-0.22-0.11-0.44-0.22-0.66c-0.11-0.22-0.33-0.22-0.44-0.22L90.21,199.72
			C90.32,199.72,90.32,199.72,90.21,199.72z"/>
	</g>
	<g>
		<path style="fill-rule:evenodd;clip-rule:evenodd;fill:#8B927C;" d="M93.08,202.03c0.77,0,1.43,0.77,1.43,1.54
			c0,0.88-0.66,1.54-1.43,1.54c-0.77,0-1.43-0.77-1.43-1.54C91.64,202.69,92.3,202.03,93.08,202.03z"/>
	</g>
	<g>
		<path style="fill-rule:evenodd;clip-rule:evenodd;fill:#26574D;" d="M93.08,201.81c0.77,0,1.43,0.77,1.43,1.54
			c0,0.88-0.66,1.54-1.43,1.54c-0.77,0-1.43-0.77-1.43-1.54C91.64,202.47,92.19,201.81,93.08,201.81z"/>
	</g>
	<g>
		<path style="fill-rule:evenodd;clip-rule:evenodd;fill:#2E685D;" d="M94.4,203.02c0,0.11,0.11,0.33,0.11,0.44
			c0,0.88-0.66,1.54-1.43,1.54c-0.44,0-0.88-0.22-1.1-0.55c0-0.11-0.11-0.33-0.11-0.44c0-0.88,0.66-1.54,1.43-1.54
			C93.74,202.36,94.18,202.58,94.4,203.02z"/>
	</g>
	<g>
		<g>
			<path style="fill-rule:evenodd;clip-rule:evenodd;fill:#8B927C;" d="M108.28,191.23c0.77,0,1.43,0.77,1.43,1.54
				c0,0.88-0.66,1.54-1.43,1.54c-0.77,0-1.43-0.77-1.43-1.54S107.51,191.23,108.28,191.23z"/>
		</g>
		<g>
			<path style="fill-rule:evenodd;clip-rule:evenodd;fill:#26574D;" d="M108.28,191.12c0.77,0,1.43,0.77,1.43,1.54
				c0,0.88-0.66,1.54-1.43,1.54c-0.77,0-1.43-0.77-1.43-1.54C106.85,191.78,107.4,191.12,108.28,191.12z"/>
		</g>
		<g>
			<path style="fill-rule:evenodd;clip-rule:evenodd;fill:#2E685D;" d="M109.6,192.22c0,0.11,0.11,0.33,0.11,0.44
				c0,0.88-0.66,1.54-1.43,1.54c-0.44,0-0.88-0.22-1.1-0.55c0-0.11-0.11-0.33-0.11-0.44c0-0.88,0.66-1.54,1.43-1.54
				C108.94,191.67,109.38,191.89,109.6,192.22z"/>
		</g>
	</g>
	<g>
		<path style="fill:#8B927C;" d="M202.26,213.05L202.26,213.05l-5.51-0.11c-0.22,0-0.44-0.11-0.55-0.33s-0.22-0.44-0.22-0.77
			l-0.11-12.01c0-0.55,0.33-0.99,0.77-0.99l5.4,0.11c0.22,0,0.33,0.11,0.55,0.22c0.22,0.22,0.33,0.44,0.33,0.77l0.11,12.01
			C203.04,212.61,202.7,213.05,202.26,213.05z M196.64,199.06c-0.33,0-0.55,0.44-0.55,0.88l0.11,12.01c0,0.22,0.11,0.44,0.22,0.66
			c0.11,0.22,0.33,0.22,0.44,0.22l5.4,0.11c0.33,0,0.66-0.44,0.66-0.88l-0.11-12.01c0-0.22-0.11-0.55-0.22-0.66
			s-0.22-0.22-0.44-0.22L196.64,199.06L196.64,199.06z"/>
	</g>
	<g>
		<path style="fill:#4E5738;" d="M202.04,212.72L202.04,212.72l-5.51-0.11c-0.22,0-0.44-0.11-0.55-0.33
			c-0.11-0.22-0.22-0.44-0.22-0.77l-0.11-12.01c0-0.55,0.33-0.99,0.77-0.99l5.4,0.11c0.44,0,0.77,0.44,0.77,1.1l0.11,12.01
			C202.82,212.28,202.48,212.72,202.04,212.72z M196.42,198.72c-0.33,0-0.55,0.44-0.55,0.88l0.11,12.01c0,0.22,0.11,0.44,0.22,0.66
			c0.11,0.22,0.33,0.22,0.44,0.22l5.4,0.11c0.33,0,0.66-0.44,0.66-0.88l-0.11-12.01c0-0.44-0.33-0.88-0.66-0.88L196.42,198.72
			C196.53,198.72,196.42,198.72,196.42,198.72z"/>
	</g>
	<g>
		<path style="fill-rule:evenodd;clip-rule:evenodd;fill:#8B927C;" d="M199.29,201.04c0.77,0,1.43,0.77,1.43,1.54
			c0,0.77-0.66,1.54-1.43,1.54c-0.77,0-1.43-0.77-1.43-1.54C197.86,201.7,198.52,200.93,199.29,201.04z"/>
	</g>
	<g>
		<path style="fill-rule:evenodd;clip-rule:evenodd;fill:#26574D;" d="M199.18,200.82c0.77,0,1.43,0.77,1.43,1.54
			c0,0.88-0.66,1.54-1.43,1.54c-0.77,0-1.43-0.77-1.43-1.54C197.75,201.48,198.41,200.82,199.18,200.82z"/>
	</g>
	<g>
		<path style="fill-rule:evenodd;clip-rule:evenodd;fill:#2E685D;" d="M200.61,201.92c0,0.11,0.11,0.33,0.11,0.44
			c0,0.88-0.66,1.54-1.43,1.54c-0.44,0-0.88-0.22-1.1-0.55c0-0.11-0.11-0.33-0.11-0.44c0-0.88,0.66-1.54,1.43-1.54
			C199.95,201.37,200.28,201.59,200.61,201.92z"/>
	</g>
	<g>
		<g>
			<polygon style="fill:#989E8A;" points="277.74,162.59 286.66,162.7 286.55,163.14 277.74,163.03 			"/>
		</g>
		<g>
			<polygon style="fill:#4E5738;" points="277.74,162.14 286.88,162.25 286.66,162.7 277.74,162.59 			"/>
		</g>
	</g>
	<g>
		<g>
			<polygon style="fill:#989E8A;" points="279.28,152.23 287.98,152.34 287.76,152.78 279.28,152.67 			"/>
		</g>
		<g>
			<polygon style="fill:#4E5738;" points="279.28,151.68 288.09,151.9 287.98,152.34 279.28,152.23 			"/>
		</g>
	</g>
	<g>
		<g>
			<polygon style="fill:#989E8A;" points="280.27,143.3 288.87,143.52 288.76,143.96 280.27,143.74 			"/>
		</g>
		<g>
			<polygon style="fill:#4E5738;" points="280.27,142.86 289.09,143.08 288.87,143.52 280.27,143.3 			"/>
		</g>
	</g>
	<g>
		<path style="fill:#989E8A;" d="M290.08,134.93l-4.85-0.11l0,0c-0.22,0-2.86,0-3.09,0.22c-0.22,0.22-0.44,0.44-0.55,0.66
			l-4.96,35.37l0,0v0.11c-0.11,0.22,0,0.44,0.11,0.55l0,0c0.11,0.11,0.33,0.22,0.55,0.33l0,0h0.11l8.59,0.11l-0.11,0.44l-8.48-0.11
			h-0.11c-0.33,0-0.55-0.22-0.77-0.44l0,0c-0.11-0.22-0.22-0.55-0.11-0.88v-0.11l0,0l4.96-35.37c0.11-0.33,0.44-0.77,0.66-0.99
			c0.33-0.22,3.09-0.33,3.42-0.33l0,0l4.85,0.11L290.08,134.93z"/>
	</g>
	<g>
		<path style="fill:#4E5738;" d="M290.19,134.49l-5.29-0.11l0,0c-0.22,0-2.86,0-3.09,0.22c-0.22,0.22-0.44,0.44-0.55,0.66
			l-4.96,35.37l0,0v0.11c-0.11,0.22,0,0.44,0.11,0.55c0.11,0.11,0.33,0.22,0.55,0.33h0.11l0,0l8.92,0.11l-0.11,0.44l-8.92-0.11l0,0
			h-0.11c-0.33,0-0.55-0.22-0.77-0.44c-0.11-0.22-0.22-0.55-0.11-0.88v-0.11l0,0l4.96-35.37c0.11-0.33,0.44-0.77,0.66-0.99
			c0.33-0.22,3.09-0.33,3.42-0.33l0,0l5.29,0.11L290.19,134.49z"/>
	</g>
	<g>
		<path style="fill-rule:evenodd;clip-rule:evenodd;fill:#535C3D;" d="M242.7,189.47c-21.49-2.53-44.84-7.05-66.22-10.58
			c-17.41-2.86-39.22-3.97-54.76-2.86c-14.98,1.1-11.68,7.05-4.96,7.49l99.93,10.8L242.7,189.47z"/>
	</g>
	<g>
		<path style="fill-rule:evenodd;clip-rule:evenodd;fill:#778062;" d="M244.79,189.36c-21.82-3.31-46.94-6.94-68.31-10.47
			c-17.41-2.86-39.22-3.97-54.76-2.86c-14.98,1.1-12.01,6.06-5.29,6.61l99.82,10.69L244.79,189.36z"/>
	</g>
	<g>
		<path style="fill-rule:evenodd;clip-rule:evenodd;fill:#989E8A;" d="M242.7,189.47c-21.49-2.53-44.84-7.05-66.22-10.58
			c-17.41-2.86-39.22-3.97-54.76-2.86c-5.29,0.33-10.14,1.43-11.46,2.53l109.63,14.1l13.22-1.32L242.7,189.47z"/>
	</g>
	<g>
		<path style="fill-rule:evenodd;clip-rule:evenodd;fill:#535C3D;" d="M218.02,190.46c8.59-0.99,23.8-1.87,26.11-0.66
			c-0.11,0.88-17.08,4.74-26.11,4.63C213.5,194.43,213.28,191.01,218.02,190.46z"/>
	</g>
	<g>
		<path style="fill:#989E8A;" d="M109.93,213.93L109.93,213.93c-0.44,0-0.77-0.33-0.88-0.88l-0.77-6.94c0-0.44,0.22-0.77,0.66-0.88
			h0.11l21.38,0.33c0.22,0,0.44,0.11,0.66,0.33c0.11,0.22,0.22,0.44,0.22,0.66l-0.33,3.09c0,0.33-0.33,0.66-0.77,0.66L109.93,213.93
			z M109.05,205.45c-0.33,0-0.66,0.33-0.55,0.66l0.77,6.94c0,0.44,0.33,0.66,0.66,0.66l20.16-3.53c0.22,0,0.66-0.11,0.66-0.55
			l0.33-3.09c0-0.22,0-0.44-0.11-0.55c-0.11-0.11-0.33-0.22-0.55-0.22L109.05,205.45L109.05,205.45z"/>
	</g>
	<g>
		<path style="fill:#4E5738;" d="M110.15,213.71L110.15,213.71c-0.44,0-0.77-0.33-0.88-0.88l-0.77-6.94c0-0.44,0.22-0.77,0.66-0.88
			h0.11l21.38,0.33c0.22,0,0.44,0.11,0.66,0.33c0.11,0.22,0.22,0.44,0.22,0.66l-0.33,3.09c0,0.33-0.33,0.66-0.77,0.66L110.15,213.71
			z M109.27,205.23c-0.33,0-0.66,0.33-0.55,0.66l0.77,6.94c0,0.44,0.33,0.66,0.66,0.66l20.27-3.42c0.22,0,0.66-0.11,0.66-0.55
			l0.33-3.09c0-0.22,0-0.44-0.11-0.55s-0.33-0.22-0.55-0.22L109.27,205.23L109.27,205.23z"/>
	</g>
	<g>
		<g>
			<path style="fill-rule:evenodd;clip-rule:evenodd;fill:#5C6645;" d="M279.5,176.58c0.22,0,0.44,0.22,0.44,0.55
				c0,0.22-0.22,0.44-0.44,0.44c-0.22,0-0.44-0.22-0.44-0.55C279.06,176.8,279.28,176.58,279.5,176.58z"/>
		</g>
		<g>
			<path style="fill-rule:evenodd;clip-rule:evenodd;fill:#989E8A;" d="M279.39,176.36c0.22,0,0.44,0.22,0.44,0.55
				c0,0.22-0.22,0.44-0.44,0.44s-0.44-0.22-0.44-0.55C278.95,176.58,279.17,176.36,279.39,176.36z"/>
		</g>
	</g>
	<g>
		<g>
			<path style="fill-rule:evenodd;clip-rule:evenodd;fill:#5C6645;" d="M282.26,176.58c0.22,0,0.44,0.22,0.44,0.55
				c0,0.22-0.22,0.44-0.44,0.44c-0.22,0-0.44-0.22-0.44-0.55C281.7,176.8,281.92,176.58,282.26,176.58z"/>
		</g>
		<g>
			<path style="fill-rule:evenodd;clip-rule:evenodd;fill:#989E8A;" d="M282.03,176.36c0.22,0,0.44,0.22,0.44,0.55
				c0,0.22-0.22,0.44-0.44,0.44c-0.22,0-0.44-0.22-0.44-0.55C281.59,176.58,281.81,176.36,282.03,176.36z"/>
		</g>
	</g>
	<g>
		<g>
			<path style="fill-rule:evenodd;clip-rule:evenodd;fill:#5C6645;" d="M258.13,176.14c0.22,0,0.44,0.22,0.44,0.55
				c0,0.22-0.22,0.44-0.44,0.44c-0.22,0-0.44-0.22-0.44-0.55C257.68,176.36,257.91,176.14,258.13,176.14z"/>
		</g>
		<g>
			<path style="fill-rule:evenodd;clip-rule:evenodd;fill:#989E8A;" d="M258.02,176.03c0.22,0,0.44,0.22,0.44,0.55
				c0,0.22-0.22,0.44-0.44,0.44c-0.22,0-0.44-0.22-0.44-0.55C257.57,176.25,257.8,176.03,258.02,176.03z"/>
		</g>
	</g>
	<g>
		<g>
			<path style="fill-rule:evenodd;clip-rule:evenodd;fill:#5C6645;" d="M205.57,200.93c0.22,0,0.44,0.22,0.44,0.55
				c0,0.22-0.22,0.44-0.44,0.44c-0.22,0-0.44-0.22-0.44-0.55C205.13,201.15,205.35,200.93,205.57,200.93z"/>
		</g>
		<g>
			<path style="fill-rule:evenodd;clip-rule:evenodd;fill:#989E8A;" d="M205.46,200.82c0.22,0,0.44,0.22,0.44,0.55
				c0,0.22-0.22,0.44-0.44,0.44c-0.22,0-0.44-0.22-0.44-0.55C205.02,201.04,205.24,200.82,205.46,200.82z"/>
		</g>
	</g>
	<g>
		<g>
			<path style="fill-rule:evenodd;clip-rule:evenodd;fill:#5C6645;" d="M208.32,201.04c0.22,0,0.44,0.22,0.44,0.55
				c0,0.22-0.22,0.44-0.44,0.44c-0.22,0-0.44-0.22-0.44-0.55C207.88,201.26,207.99,201.04,208.32,201.04z"/>
		</g>
		<g>
			<path style="fill-rule:evenodd;clip-rule:evenodd;fill:#989E8A;" d="M208.1,200.82c0.22,0,0.44,0.22,0.44,0.55
				c0,0.22-0.22,0.44-0.44,0.44c-0.22,0-0.44-0.22-0.44-0.55C207.66,201.04,207.88,200.82,208.1,200.82z"/>
		</g>
	</g>
	<g>
		<g>
			<path style="fill-rule:evenodd;clip-rule:evenodd;fill:#5C6645;" d="M151.69,200.82c0.22,0,0.44,0.22,0.44,0.55
				c0,0.22-0.22,0.44-0.44,0.44s-0.44-0.22-0.44-0.55C151.25,201.04,151.47,200.82,151.69,200.82z"/>
		</g>
		<g>
			<path style="fill-rule:evenodd;clip-rule:evenodd;fill:#989E8A;" d="M151.58,200.6c0.22,0,0.44,0.22,0.44,0.55
				c0,0.22-0.22,0.44-0.44,0.44c-0.22,0-0.44-0.22-0.44-0.55C151.14,200.82,151.36,200.6,151.58,200.6z"/>
		</g>
	</g>
	<g>
		<g>
			<path style="fill-rule:evenodd;clip-rule:evenodd;fill:#5C6645;" d="M154.45,200.82c0.22,0,0.44,0.22,0.44,0.55
				c0,0.22-0.22,0.44-0.44,0.44s-0.44-0.22-0.44-0.55C154,201.04,154.23,200.82,154.45,200.82z"/>
		</g>
		<g>
			<path style="fill-rule:evenodd;clip-rule:evenodd;fill:#989E8A;" d="M154.34,200.71c0.22,0,0.44,0.22,0.44,0.55
				c0,0.22-0.22,0.44-0.44,0.44c-0.22,0-0.44-0.22-0.44-0.55C153.89,200.93,154.12,200.71,154.34,200.71z"/>
		</g>
	</g>
	<g>
		<g>
			<path style="fill-rule:evenodd;clip-rule:evenodd;fill:#5C6645;" d="M157.2,200.93c0.22,0,0.44,0.22,0.44,0.55
				c0,0.22-0.22,0.44-0.44,0.44s-0.44-0.22-0.44-0.55C156.76,201.15,156.98,200.93,157.2,200.93z"/>
		</g>
		<g>
			<path style="fill-rule:evenodd;clip-rule:evenodd;fill:#989E8A;" d="M157.09,200.71c0.22,0,0.44,0.22,0.44,0.55
				c0,0.22-0.22,0.44-0.44,0.44c-0.22,0-0.44-0.22-0.44-0.55C156.65,200.93,156.87,200.71,157.09,200.71z"/>
		</g>
	</g>
	<g>
		<g>
			<path style="fill-rule:evenodd;clip-rule:evenodd;fill:#5C6645;" d="M159.95,200.93c0.22,0,0.44,0.22,0.44,0.55
				c0,0.22-0.22,0.44-0.44,0.44s-0.44-0.22-0.44-0.55C159.51,201.15,159.73,200.93,159.95,200.93z"/>
		</g>
		<g>
			<path style="fill-rule:evenodd;clip-rule:evenodd;fill:#989E8A;" d="M159.84,200.71c0.22,0,0.44,0.22,0.44,0.55
				c0,0.22-0.22,0.44-0.44,0.44c-0.22,0-0.44-0.22-0.44-0.55C159.4,200.93,159.62,200.71,159.84,200.71z"/>
		</g>
	</g>
	<g>
		<g>
			<g>
				<path style="fill-rule:evenodd;clip-rule:evenodd;fill:#5C6645;" d="M122.38,200.27c0.22,0,0.44,0.22,0.44,0.55
					c0,0.22-0.22,0.44-0.44,0.44c-0.22,0-0.44-0.22-0.44-0.55C121.94,200.49,122.16,200.27,122.38,200.27z"/>
			</g>
			<g>
				<path style="fill-rule:evenodd;clip-rule:evenodd;fill:#989E8A;" d="M122.27,200.05c0.22,0,0.44,0.22,0.44,0.55
					c0,0.22-0.22,0.44-0.44,0.44s-0.44-0.22-0.44-0.55C121.83,200.27,121.94,200.05,122.27,200.05z"/>
			</g>
		</g>
		<g>
			<g>
				<path style="fill-rule:evenodd;clip-rule:evenodd;fill:#5C6645;" d="M125.14,200.27c0.22,0,0.44,0.22,0.44,0.55
					c0,0.22-0.22,0.44-0.44,0.44c-0.22,0-0.44-0.22-0.44-0.55C124.7,200.49,124.92,200.27,125.14,200.27z"/>
			</g>
			<g>
				<path style="fill-rule:evenodd;clip-rule:evenodd;fill:#989E8A;" d="M125.03,200.16c0.22,0,0.44,0.22,0.44,0.55
					c0,0.22-0.22,0.44-0.44,0.44s-0.44-0.22-0.44-0.55C124.59,200.38,124.81,200.16,125.03,200.16z"/>
			</g>
		</g>
		<g>
			<g>
				<path style="fill-rule:evenodd;clip-rule:evenodd;fill:#5C6645;" d="M127.89,200.38c0.22,0,0.44,0.22,0.44,0.55
					c0,0.22-0.22,0.44-0.44,0.44c-0.22,0-0.44-0.22-0.44-0.55C127.45,200.6,127.67,200.38,127.89,200.38z"/>
			</g>
			<g>
				<path style="fill-rule:evenodd;clip-rule:evenodd;fill:#989E8A;" d="M127.78,200.16c0.22,0,0.44,0.22,0.44,0.55
					c0,0.22-0.22,0.44-0.44,0.44s-0.44-0.22-0.44-0.55C127.34,200.38,127.56,200.16,127.78,200.16z"/>
			</g>
		</g>
		<g>
			<g>
				<path style="fill-rule:evenodd;clip-rule:evenodd;fill:#5C6645;" d="M130.65,200.38c0.22,0,0.44,0.22,0.44,0.55
					c0,0.22-0.22,0.44-0.44,0.44c-0.22,0-0.44-0.22-0.44-0.55C130.21,200.6,130.43,200.38,130.65,200.38z"/>
			</g>
			<g>
				<path style="fill-rule:evenodd;clip-rule:evenodd;fill:#989E8A;" d="M130.54,200.27c0.22,0,0.44,0.22,0.44,0.55
					c0,0.22-0.22,0.44-0.44,0.44c-0.22,0-0.44-0.22-0.44-0.55C130.1,200.49,130.32,200.27,130.54,200.27z"/>
			</g>
		</g>
	</g>
	<g>
		<path style="fill:#535C3D;" d="M177.47,219.11c-6.83,0.99-14.87,1.21-23.58,0.88c-13.66-0.66-26.66-2.86-34.05-5.95v-0.11
			c7.38,3.09,20.38,5.29,34.05,5.95c14.87,0.66,27.99-0.77,36.03-3.86v0.11C186.62,217.35,182.32,218.34,177.47,219.11z"/>
	</g>
	<g>
		<g>
			<path style="fill-rule:evenodd;clip-rule:evenodd;fill:#5C6645;" d="M99.47,210.62c0.22,0,0.44,0.22,0.44,0.55
				c0,0.22-0.22,0.44-0.44,0.44c-0.22,0-0.44-0.22-0.44-0.55C98.91,210.84,99.14,210.62,99.47,210.62z"/>
		</g>
		<g>
			<path style="fill-rule:evenodd;clip-rule:evenodd;fill:#989E8A;" d="M99.25,210.4c0.22,0,0.44,0.22,0.44,0.55
				c0,0.22-0.22,0.44-0.44,0.44c-0.22,0-0.44-0.22-0.44-0.55C98.8,210.62,99.02,210.4,99.25,210.4z"/>
		</g>
	</g>
	<g>
		<g>
			<path style="fill-rule:evenodd;clip-rule:evenodd;fill:#5C6645;" d="M103.32,210.62c0.22,0,0.44,0.22,0.44,0.55
				c0,0.33-0.22,0.44-0.44,0.44c-0.22,0-0.44-0.22-0.44-0.55C102.88,210.84,103.1,210.62,103.32,210.62z"/>
		</g>
		<g>
			<path style="fill-rule:evenodd;clip-rule:evenodd;fill:#989E8A;" d="M103.21,210.51c0.22,0,0.44,0.22,0.44,0.55
				c0,0.22-0.22,0.44-0.44,0.44c-0.22,0-0.44-0.22-0.44-0.55C102.77,210.73,102.99,210.51,103.21,210.51z"/>
		</g>
	</g>
	<g>
		<g>
			<path style="fill-rule:evenodd;clip-rule:evenodd;fill:#5C6645;" d="M81.18,200.71c0.22,0,0.44,0.22,0.44,0.55
				c0,0.22-0.22,0.44-0.44,0.44c-0.22,0-0.44-0.22-0.44-0.55C80.73,200.93,80.96,200.71,81.18,200.71z"/>
		</g>
		<g>
			<path style="fill-rule:evenodd;clip-rule:evenodd;fill:#989E8A;" d="M81.07,200.49c0.22,0,0.44,0.22,0.44,0.55
				c0,0.22-0.22,0.44-0.44,0.44c-0.22,0-0.44-0.22-0.44-0.55C80.62,200.71,80.73,200.49,81.07,200.49z"/>
		</g>
	</g>
	<g>
		<g>
			<path style="fill-rule:evenodd;clip-rule:evenodd;fill:#5C6645;" d="M110.59,206.44c0.22,0,0.44,0.22,0.44,0.55
				c0,0.22-0.22,0.44-0.44,0.44c-0.22,0-0.44-0.22-0.44-0.55S110.37,206.33,110.59,206.44z"/>
		</g>
		<g>
			<path style="fill-rule:evenodd;clip-rule:evenodd;fill:#989E8A;" d="M110.48,206.22c0.22,0,0.44,0.22,0.44,0.55
				c0,0.22-0.22,0.44-0.44,0.44c-0.22,0-0.44-0.22-0.44-0.55C110.04,206.44,110.15,206.22,110.48,206.22z"/>
		</g>
	</g>
	<g>
		<path style="fill:#778062;" d="M231.35,187.82c-8.81-0.99-15.2-0.66-18.95-0.22c-4.52,0.55-7.82,1.65-8.81,2.97l-0.11-0.11
			c0.99-1.32,4.19-2.42,8.92-2.97c3.75-0.44,10.03-0.77,18.95,0.22V187.82z"/>
	</g>
	<g>
		<path style="fill:#778062;" d="M177.14,187.71l-0.11-0.11c0.99-1.54,4.52-2.97,9.37-3.86c5.51-0.88,12.34-0.99,19.28-0.22v0.11
			c-6.94-0.77-13.77-0.66-19.28,0.22C181.66,184.73,178.13,186.16,177.14,187.71z"/>
	</g>
	<g>
		<path style="fill:#778062;" d="M151.03,184.51l-0.11-0.11c0.99-1.65,4.52-3.09,9.37-4.08c5.51-1.1,12.34-1.32,19.28-0.77v0.11
			c-6.94-0.55-13.77-0.33-19.28,0.77C155.55,181.43,152.02,182.86,151.03,184.51z"/>
	</g>
	<g>
		<path style="fill:#778062;" d="M124.15,180.65l-0.11-0.11c0.99-1.54,4.52-3.09,9.37-3.97c5.51-0.99,12.34-1.21,19.28-0.55v0.11
			c-6.94-0.66-13.77-0.44-19.28,0.55C128.66,177.68,125.14,179.11,124.15,180.65z"/>
	</g>
</g>
<g>
	<g>
		<g>
			<path style="fill:#0D0105;" d="M23.1,258.76c0,0,0.42,1.5,0,3.58c0,0-6.58,0.08-8.58,0.75c-2,0.58-1.75,1.33-5.49,1.58
				c-3.75,0.25-8.66-0.25-8.66-0.25s-1.17-2,0.75-3.41c1.91-1.42,10.82-3.58,10.82-3.58l0.42-1.08l10.49,0.42L23.1,258.76z"/>
			<polygon style="fill:#2D2D2D;" points="23.1,262.25 22.85,265 16.36,265 15.77,263.25 11.94,265 0.62,265 0.29,264.08 
				11.7,264.08 15.69,262.25 			"/>
		</g>
		<g>
			<path style="fill:#0D0105;" d="M48.49,258.76c0,0-0.42,1.5,0,3.58c0,0,6.58,0.08,8.58,0.75c2,0.58,1.75,1.33,5.49,1.58
				c3.75,0.25,8.66-0.25,8.66-0.25s1.17-2-0.75-3.41c-1.91-1.42-10.82-3.58-10.82-3.58l-0.42-1.08l-10.49,0.42L48.49,258.76z"/>
			<polygon style="fill:#2D2D2D;" points="48.49,262.25 48.83,265 55.32,265 55.82,263.25 59.65,265 70.97,265 71.39,264.08 
				59.98,264.08 55.99,262.25 			"/>
		</g>
		<path style="fill:#54694F;" d="M23.93,186.82c0,0-6.08,24.81-6.58,31.22l-2.16,12.57c0,0-4.5,22.65-2.91,26.14
			c0,0,3.25,4.33,10.99,2.5c0,0,5.74-19.48,4.41-26.56l2.25-12.99l5.91-23.56l4,2.58c0,0,2.41,18.82,3.58,22.15L45,231.78
			c0,0,1.67,23.56,3.25,26.56c0,0,7.83,2.58,11.32-0.92c0,0,0.08-24.39-1.58-27.47l-1.25-10.91c0,0,0.17-16.4-1.91-23.98l-0.42-8.74
			L23.93,186.82z"/>
		<path style="fill:#486142;" d="M27.68,145.19c0,0-1.58,0.5-3.33,5.83s-8.83,34.88-6.33,44.13l3.66,1c0,0,4.66-18.9,5.99-24.98
			C29.01,165.09,31.84,151.19,27.68,145.19z"/>
		<path style="fill:#54694F;" d="M54.41,144.53c0,0,15.57,8.99,16.82,23.15c1.25,14.15-12.32,19.65-12.82,19.65
			c-0.42,0-2.25-2.16-1-6.16c0,0,7.74-6.49,6.91-11.32c-0.75-4.75-10.99-10.57-10.99-10.57S53.49,146.19,54.41,144.53z"/>
		<path style="fill:#54694F;" d="M37.59,140.78c0,0,4.33-0.75,7.66,0.25v0.83h-7.99L37.59,140.78z"/>
		<path style="fill:#54694F;" d="M41.75,141.36c0,0,7.33,0.33,12.66,3.25l-1.08,14.65c0,0-0.67,23.89-0.08,27.56H23.93
			c0,0,4.33-19.4,5.08-28.97c0.75-9.57-1.42-12.66-1.42-12.66S33.34,141.45,41.75,141.36z"/>
		<path style="fill:#2D3F54;" d="M36.51,141.53c0,0,7.08-0.67,11.24,0.42c0,0-3.33,4.83-6.66,4.66
			C37.67,146.44,36.51,141.53,36.51,141.53z"/>
		<g>
			<path style="fill:#FEC09B;" d="M34.09,125.04c0,0-3.08-0.5-2.91,1.58c0.25,2.16,2.75,1.42,2.75,1.42L34.09,125.04z"/>
			<path style="fill:#FA9480;" d="M34.01,125.96l-0.08,1.33c0,0-1.25,0-1.25-0.83C32.68,125.63,34.01,125.96,34.01,125.96z"/>
		</g>
		<path style="fill:#FEC09B;" d="M43.75,114.97c-4.83-1-7.41-1.25-9.08,4.08c-1.67,5.33-2.75,17.4,1.25,18.57s9.82,3,13.65-3.33
			c3.25-5.41,2.16-14.24,0.42-16.15C48.25,116.14,43.75,114.97,43.75,114.97z"/>
		<g>
			<path style="fill:#FEC09B;" d="M51.24,127.96c0,0,3.16,0.08,2.5,2.16c-0.67,2.08-2.91,0.83-2.91,0.83L51.24,127.96z"/>
			<path style="fill:#FA9480;" d="M51.16,128.79l-0.17,1.33c0,0,1.17,0.25,1.42-0.58C52.49,128.71,51.16,128.79,51.16,128.79z"/>
		</g>
		<path style="fill:#453924;" d="M47.83,120.55c0,0-7.99,4.66-11.49,4.33s-3.83-0.92-4-2.75c0,0-2.83,0.67-3.08-1.42
			c-0.25-2.08,1.75-2.16,1.75-2.16s-1.33-0.58-1.17-2.25c0.25-2.5,9.91-4.16,17.9-1.42s5.66,12.16,3.83,13.07
			C51.58,127.96,48.25,125.71,47.83,120.55z"/>
		<g>
			<path style="fill:#41444D;" d="M35.84,125.46c-0.5-0.08-0.92,0.17-1.08,0.67c-0.08,0.5,0.17,0.92,0.67,1.08
				c0.5,0.08,0.92-0.17,1.08-0.67C36.59,126.13,36.34,125.63,35.84,125.46z"/>
			<path style="fill:#41444D;" d="M45.5,126.63c-0.5-0.08-0.92,0.17-1.08,0.67c-0.08,0.5,0.17,0.92,0.67,1.08
				c0.5,0.08,0.92-0.17,1.08-0.67C46.25,127.21,46,126.79,45.5,126.63z"/>
			<path style="fill:#FA9480;" d="M39.67,130.96l-1.75-1.08C37.92,129.87,37.59,131.79,39.67,130.96z"/>
		</g>
		<g>
			<path style="fill:#FA9480;" d="M41.42,135.7c-0.75,0-1.33-0.17-1.33-0.17c-0.08,0-0.17-0.17-0.08-0.25
				c0-0.08,0.17-0.17,0.25-0.08c0,0,1.75,0.5,2.91-0.25c0.58-0.42,1-1.08,1.17-1.91c0-0.08,0.08-0.17,0.17-0.17
				c0.08,0,0.17,0.08,0.17,0.17c-0.17,1-0.58,1.75-1.33,2.16C42.67,135.62,42,135.7,41.42,135.7z"/>
		</g>
		<path style="fill:#FEC09B;" d="M39.09,137.45v4.25c0,0,1,2.5,5.33,0v-4.25H39.09z"/>
		<path style="fill:#72806B;" d="M22.1,156.35c0,0,2.25-1.08,3.41,1.17c0,0-1.33,9.91-2.08,10.32c-0.75,0.33-3.08,1-3.5,0.33
			C19.52,167.59,21.02,158.01,22.1,156.35z"/>
		<path style="fill:#657660;" d="M20.94,160.01c0,0,2,1.33,4.16,0.58l-0.08,0.5c0,0-2.25,0.42-4.16-0.75L20.94,160.01z"/>
		<path style="fill:#72806B;" d="M60.48,149.11c0,0-2.41,2.41-2.5,4.16c-0.08,1.75,7.16,6.83,8.24,6.58c1-0.25,2.08-1.67,2.08-1.67
			S67.31,153.44,60.48,149.11z"/>
		<path style="fill:#657660;" d="M63.9,151.69c0,0-2.08,3.83-4,4.16l0.25,0.25c0,0,3.41-0.75,4.16-4L63.9,151.69z"/>
		<path style="fill:#FEC09B;" d="M18.27,194.98c0,0-1.25,5.33,1.5,7.41l1.91-6.33L18.27,194.98z"/>
		<path style="fill:#B8AF9D;" d="M47.75,141.95c0,0,2.41-0.25,4.91,1.75c0,0-4.41,13.99,0,34.14l0.67,5.91c0,0-4.33,0.92-5.58-2.91
			C46.5,177.08,43.83,149.11,47.75,141.95z"/>
		<polygon style="fill:#396C7A;" points="46.08,148.86 51.49,149.36 50.91,154.27 45.66,154.43 		"/>
		<polygon style="fill:#657660;" points="40.92,146.61 38.42,185.49 39.09,185.49 41.33,146.61 		"/>
		<path style="fill:#72806B;" d="M41.08,146.61c0,0,4.08-3.75,4.25-5.66c0,0,1.58,0.25,2.66,0.92c1.33,0.83-1.91,7.49-4,7.41
			C41.92,149.27,41.08,146.61,41.08,146.61z"/>
		<path style="fill:#72806B;" d="M41.08,146.61c0,0-3-1.17-3.5-5.83c0,0-3.08,0.08-3.41,1.08c-0.33,1,0.92,7.24,3.41,7.49
			C40.17,149.52,41.08,146.61,41.08,146.61z"/>
		<path style="fill:#B8AF9D;" d="M28.35,144.78c0,0,2.75-2.33,5.25-2.16c0,0,0.83,14.49-0.08,23.31c-1,9.57-3.16,15.32-9.08,16.57
			c0,0-1-3.5,0.67-5.58c0,0,3.25-5.16,3.91-12.16C29.76,157.85,28.35,144.78,28.35,144.78z"/>
		<polygon style="fill:#396C7A;" points="28.85,149.77 33.92,149.36 33.92,155.35 29.18,155.68 		"/>
		<polygon style="fill:#D6CCBC;" points="53.24,160.85 43.58,161.43 44,166.34 53.16,165.67 		"/>
		<polygon style="fill:#D6CCBC;" points="37.75,162.09 37.75,166.84 27.85,166.84 28.51,162.26 		"/>
		<path style="fill:#2D2D2D;" d="M43.58,161.84c0,0-2.58-0.5-2.75,0.67c-0.17,1.17,0.17,3.75,0.83,3.75s2.25-0.25,2.25-0.33
			C43.92,166.01,43.58,161.84,43.58,161.84z"/>
		<polygon style="fill:#2D2D2D;" points="37.75,163.09 41.83,162.93 41.83,165.42 37.75,165.59 		"/>
		<polygon style="fill:#B8AF9D;" points="54.16,183.24 41.33,183.82 41.33,189.15 54.16,188.9 		"/>
		<path style="fill:#FEC09B;" d="M57.9,186.99c0,0-4.33,1-5.25,0.42s-3.16-3-2-5.99c0,0,0.83,2.5,3,2.66
			c2.08,0.17,3.25-1.33,3.25-1.33C56.99,184.32,57.15,185.82,57.9,186.99z"/>
		<g>
			<path style="fill:#EAEADF;" d="M68.14,175.5c-0.17,1-0.42,1.91-0.75,2.83c-1,2.5-2.66,4.5-5.25,5.08c0,0-0.08-12.82-1.5-14.65
				c0,0-8.91,0.25-10.49,1.08c0,0-0.08-4,2.08-5.49c1.75-1.25,10.57-1.58,14.32,3c0.5,0.58,0.92,1.25,1.17,2
				c0.25,0.67,0.42,1.33,0.5,2.08C68.39,172.67,68.39,174.17,68.14,175.5z"/>
			<path style="fill:#878B63;" d="M67.81,169.34c-1.08,1.67-3.08,3.25-3.08,3.25c-0.83-0.08-0.75-1.42-0.75-1.42
				c1.5-0.67,2.33-2.91,2.66-3.83C67.06,167.92,67.48,168.59,67.81,169.34z"/>
			<path style="fill:#878B63;" d="M68.14,175.5c-0.17,1-0.42,1.91-0.75,2.83c-1.17,0.5-2.33,0.67-2.33,0.67
				c-0.5-0.33-0.33-1.67-0.33-1.67C65.9,177.16,67.23,176.25,68.14,175.5z"/>
			<path style="fill:#878B63;" d="M50.08,175.25c0,0.17-0.58,6.49,2.33,8.49l5-4.66l-0.33-2L50.08,175.25z"/>
			<path style="fill:#3F3628;" d="M50.08,169.84c0,0-0.75,1-0.58,3.33s1.25,3.83,3.5,3.91s3.41,0.67,3.33,1.75
				c-0.08,1.08-3.16,2.41-3.66,3.58c-0.5,1.17-0.58,2.16,0.5,2.33c1.08,0.17,5.16,0.58,8.99-1.42c0,0,0.67-10.07-1.5-14.65
				C60.57,168.75,52.16,168.67,50.08,169.84z"/>
			<path style="fill:#9A9E79;" d="M55.41,178.5c0.58,1.25-1.5,1.83-1.58,0.5S54.91,177.41,55.41,178.5z"/>
		</g>
		<path style="fill:#B8AF9D;" d="M36.17,183.82l-0.42,5.66l-12.82-0.67c0,0-0.08-3.91,0.67-5.16L36.17,183.82z"/>
		<polygon style="fill:#2D2D2D;" points="36.09,185.49 41.33,185.49 41.33,188.07 35.84,188.24 		"/>
		<path style="fill:#B8AF9D;" d="M54.57,188.82c0,0-11.66,5.83-14.74,9.82c0,0-1.08,4.41,0.58,4.91l14.49-8.16
			C54.99,195.4,55.49,191.73,54.57,188.82z"/>
		<path style="fill:#B8AF9D;" d="M35.76,196.81c0,0-8.99-6.91-12.74-7.91c0,0-1.17,3.91-1,6.08c0,0,10.74,8.16,12.24,8.16
			C34.26,203.14,36.17,198.23,35.76,196.81z"/>
		<polygon style="fill:#72806B;" points="43.5,220.87 56.82,218.96 58.07,229.87 45.08,231.78 		"/>
		<polygon style="fill:#72806B;" points="29.93,219.71 17.36,217.96 15.19,230.61 27.68,232.7 		"/>
	</g>
</g>
</svg>
