<svg xmlns="http://www.w3.org/2000/svg" viewBox="0 0 36.648 44.493">
  <defs/>
  <g fill="#f58862" data-name="Group 4063" transform="translate(-10.352 -1.42)">
    <path d="M23.247 42.672a2.42 2.42 0 001.436 3.1 2.622 2.622 0 00.834.139 2.44 2.44 0 002.269-1.574l2.5-6.807-3.241-5.185z" data-name="Path 57695"/>
    <path d="M45.337 19.055l-3.612-.787a2.452 2.452 0 01-1.343-.834c-3.7-4.631-4.4-4.909-5.372-4.955l-3.473-.232c-.509-.046-1.111-.046-6.02 1.852a6.567 6.567 0 00-3.01 2.362l-2.686 3.936a1.681 1.681 0 00-.324.787 2.072 2.072 0 00-2.038.972l-.459.742-1.621-.972a1.125 1.125 0 00-1.528.37l-3.338 5.465a1.125 1.125 0 00.37 1.528l8.567 5.14a1.125 1.125 0 001.528-.37l3.334-5.464a1.125 1.125 0 00-.37-1.528l-1.621-.972.463-.741a1.986 1.986 0 000-2.084 5.551 5.551 0 00.556-.509l2.686-3.936a2.677 2.677 0 011.065-.834c.417-.139.741-.278 1.111-.417l-1.621 5.557a6.616 6.616 0 00.787 5.511l9.91 16.115a2.425 2.425 0 002.038 1.158 2.218 2.218 0 001.3-.37 2.407 2.407 0 00.787-3.334l-8.058-12.92 3.332-9.73c.139.185.278.324.417.509a6.419 6.419 0 003.751 2.315l3.612.787a2.086 2.086 0 002.5-1.621 2.169 2.169 0 00-1.62-2.496zm-23.988 5.464l-.463.741-2.454-1.482.463-.741a.429.429 0 01.556-.139l1.806 1.111c.143.052.185.325.092.51z" data-name="Path 57696"/>
    <circle cx="4.677" cy="4.677" r="4.677" data-name="Ellipse 720" transform="rotate(-83.8 20.36878287 -10.68113248)"/>
  </g>
</svg>
