<?xml version="1.0" encoding="utf-8"?>
<!-- Generator: Adobe Illustrator 25.1.0, SVG Export Plug-In . SVG Version: 6.00 Build 0)  -->
<svg version="1.1" id="layer" xmlns="http://www.w3.org/2000/svg" xmlns:xlink="http://www.w3.org/1999/xlink" x="0px" y="0px"
	 viewBox="0 0 450 450" style="enable-background:new 0 0 450 450;" xml:space="preserve">
<style type="text/css">
	.st0{opacity:0.7;}
	.st1{fill:#808080;}
	.st2{fill:#FFB463;}
	.st3{fill:#EFEFF0;}
	.st4{fill:#000F24;}
	.st5{fill:#003D58;}
	.st6{opacity:0.6;fill:#006991;enable-background:new    ;}
	.st7{fill:#E5E5E5;}
	.st8{fill:#FFFFFF;}
	.st9{opacity:0.3;fill:#FFFFFF;enable-background:new    ;}
	.st10{opacity:0.7;fill:#808080;enable-background:new    ;}
	.st11{fill:#755D4C;}
	.st12{fill:#A8876D;}
	.st13{fill:#C694D9;}
	.st14{fill:#455A64;}
	.st15{fill:#263238;}
	.st16{fill:#F5F5F5;}
	.st17{fill:#E0E0E0;}
	.st18{fill:none;stroke:#000000;stroke-width:0.5;stroke-miterlimit:10;}
	.st19{fill:#FBC0A4;}
	.st20{fill:#F8E8D8;}
	.st21{opacity:0.5;fill:url(#SVGID_1_);}
	.st22{fill:#3E3533;}
	.st23{fill:#181418;}
	.st24{fill:#330E00;}
	.st25{fill:url(#SVGID_2_);}
	.st26{fill:url(#SVGID_3_);}
	.st27{fill:#F69D7D;}
	.st28{fill:#F84511;}
	.st29{fill:#F6876E;}
	.st30{fill:url(#SVGID_4_);}
</style>
<g>
	<g>
		<g>
			<g>
				<g>
					<g class="st0">
						<polygon class="st1" points="431.2,209.9 431.2,206.5 375.9,206.5 375.9,209.9 372.1,224.2 372.1,231.9 434.4,231.9 
							434.4,224.2 						"/>
						<polygon class="st1" points="435.9,198.6 435.9,200.8 433.3,200.8 433.3,197.5 422.4,197.5 422.4,185.4 384.5,185.4 
							384.5,197.5 373.7,197.5 373.7,199.2 371.7,197.8 366.4,200.6 363.8,197.5 360.7,199.4 363.9,203.2 364.3,203.8 371.6,200 
							373.7,201.5 373.7,205.3 376.2,205.3 375.9,206.5 375.9,206.5 431.2,206.5 431.2,206.5 431,205.3 433.3,205.3 433.3,202 
							435.9,202 435.9,204.2 438.2,204.2 438.2,198.6 						"/>
					</g>
					<g>
						<rect x="372.9" y="196.8" class="st2" width="59.6" height="7.7"/>
						<rect x="383.6" y="184.7" class="st3" width="38" height="20.5"/>
						<rect x="371.3" y="223.5" class="st4" width="62.3" height="7.8"/>
						<polygon class="st5" points="430.4,209.3 375.1,209.3 371.3,223.5 433.6,223.5 						"/>
						<path class="st5" d="M430.4,205.7h-55.3l1.4-5.4h15.1c0.6,2.3,5.6,4.1,11.6,4.1c6,0,11-1.8,11.6-4.1h14.3L430.4,205.7z"/>
						<polygon class="st6" points="423.7,209.3 381.7,209.3 378.9,221.2 426.1,221.2 						"/>
						<rect x="375.1" y="205.7" class="st4" width="55.4" height="3.5"/>
						<g>
							<g>
								<path class="st4" d="M388.1,210.7c-0.1,0.6-0.8,1.1-1.8,1.1s-1.6-0.5-1.5-1.1c0.1-0.6,0.9-1.1,1.8-1.1
									C387.5,209.6,388.2,210.1,388.1,210.7z"/>
								<path class="st4" d="M392.7,210.7c-0.1,0.6-0.8,1.1-1.8,1.1s-1.6-0.5-1.5-1.1c0.1-0.6,0.8-1.1,1.8-1.1
									C392.1,209.6,392.7,210.1,392.7,210.7z"/>
								<path class="st4" d="M397.3,210.7c0,0.6-0.8,1.1-1.7,1.1s-1.6-0.5-1.6-1.1s0.8-1.1,1.7-1.1
									C396.6,209.6,397.4,210.1,397.3,210.7z"/>
								<path class="st4" d="M402,210.7c0,0.6-0.8,1.1-1.7,1.1s-1.7-0.5-1.6-1.1c0-0.6,0.8-1.1,1.7-1.1
									C401.2,209.6,402,210.1,402,210.7z"/>
								<path class="st4" d="M406.5,210.7c0,0.6-0.7,1.1-1.6,1.1s-1.7-0.5-1.7-1.1s0.8-1.1,1.6-1.1
									C405.8,209.6,406.5,210.1,406.5,210.7z"/>
								<path class="st4" d="M411.2,210.7c0.1,0.6-0.7,1.1-1.6,1.1s-1.7-0.5-1.7-1.1s0.7-1.1,1.6-1.1
									C410.3,209.6,411.2,210.1,411.2,210.7z"/>
								<path class="st4" d="M415.8,210.7c0.1,0.6-0.6,1.1-1.5,1.1c-0.9,0-1.7-0.5-1.8-1.1c-0.1-0.6,0.7-1.1,1.5-1.1
									C414.9,209.6,415.7,210.1,415.8,210.7z"/>
								<path class="st4" d="M420.4,210.7c0.1,0.6-0.6,1.1-1.5,1.1c-0.9,0-1.7-0.5-1.8-1.1s0.6-1.1,1.5-1.1
									C419.6,209.6,420.3,210.1,420.4,210.7z"/>
								<path class="st4" d="M385.4,213.5c-0.1,0.6-0.9,1.1-1.9,1.1s-1.6-0.5-1.5-1.1c0.1-0.6,0.9-1.1,1.9-1.1
									C384.8,212.3,385.5,212.8,385.4,213.5z"/>
								<path class="st4" d="M390.1,213.5c-0.1,0.6-0.8,1.1-1.9,1.1c-0.9,0-1.6-0.5-1.6-1.1c0.1-0.6,0.9-1.1,1.9-1.1
									C389.5,212.3,390.2,212.8,390.1,213.5z"/>
								<path class="st4" d="M394.9,213.5c0,0.6-0.8,1.1-1.8,1.1s-1.7-0.5-1.6-1.1c0.1-0.6,0.8-1.1,1.8-1.1
									C394.2,212.3,394.9,212.8,394.9,213.5z"/>
								<path class="st4" d="M399.6,213.5c0,0.6-0.8,1.1-1.8,1.1c-0.9,0-1.7-0.5-1.7-1.1s0.8-1.1,1.8-1.1
									C398.8,212.3,399.6,212.8,399.6,213.5z"/>
								<path class="st4" d="M404.3,213.5c0,0.6-0.8,1.1-1.7,1.1s-1.7-0.5-1.7-1.1s0.8-1.1,1.7-1.1
									C403.6,212.3,404.3,212.8,404.3,213.5z"/>
								<path class="st4" d="M409,213.5c0,0.6-0.7,1.1-1.7,1.1c-0.9,0-1.7-0.5-1.8-1.1c0-0.6,0.8-1.1,1.7-1.1
									C408.2,212.3,409,212.8,409,213.5z"/>
								<path class="st4" d="M413.7,213.5c0.1,0.6-0.7,1.1-1.6,1.1c-0.9,0-1.8-0.5-1.8-1.1s0.7-1.1,1.6-1.1
									C412.9,212.3,413.7,212.8,413.7,213.5z"/>
								<path class="st4" d="M418.5,213.5c0.1,0.6-0.6,1.1-1.6,1.1c-0.9,0-1.8-0.5-1.8-1.1c-0.1-0.6,0.7-1.1,1.6-1.1
									C417.5,212.3,418.4,212.8,418.5,213.5z"/>
								<path class="st4" d="M423.2,213.5c0.1,0.6-0.6,1.1-1.5,1.1c-0.9,0-1.8-0.5-1.9-1.1c-0.1-0.6,0.6-1.1,1.5-1.1
									C422.3,212.3,423.1,212.8,423.2,213.5z"/>
								<path class="st4" d="M387.5,216.2c-0.1,0.6-0.9,1.1-1.9,1.1s-1.7-0.5-1.6-1.1s0.9-1.1,1.9-1.1
									C386.8,215.1,387.6,215.6,387.5,216.2z"/>
								<path class="st4" d="M392.3,216.2c-0.1,0.6-0.8,1.1-1.9,1.1c-0.9,0-1.7-0.5-1.6-1.1c0.1-0.6,0.8-1.1,1.9-1.1
									C391.6,215.1,392.3,215.6,392.3,216.2z"/>
								<path class="st4" d="M397.1,216.2c0,0.6-0.8,1.1-1.8,1.1s-1.7-0.5-1.7-1.1s0.8-1.1,1.8-1.1S397.1,215.6,397.1,216.2z"/>
								<path class="st4" d="M402,216.2c0,0.6-0.8,1.1-1.8,1.1c-0.9,0-1.7-0.5-1.7-1.1s0.8-1.1,1.8-1.1
									C401.2,215.1,402,215.6,402,216.2z"/>
								<path class="st4" d="M406.8,216.2c0,0.6-0.8,1.1-1.7,1.1s-1.8-0.5-1.8-1.1s0.8-1.1,1.7-1.1S406.7,215.6,406.8,216.2z"/>
								<path class="st4" d="M411.5,216.2c0.1,0.6-0.7,1.1-1.7,1.1c-0.9,0-1.8-0.5-1.8-1.1s0.8-1.1,1.7-1.1S411.5,215.6,411.5,216.2
									z"/>
								<path class="st4" d="M416.3,216.2c0.1,0.6-0.7,1.1-1.6,1.1s-1.8-0.5-1.9-1.1c-0.1-0.6,0.7-1.1,1.6-1.1
									C415.5,215.1,416.3,215.6,416.3,216.2z"/>
								<path class="st4" d="M421.2,216.2c0.1,0.6-0.6,1.1-1.6,1.1c-0.9,0-1.8-0.5-1.9-1.1c-0.1-0.6,0.7-1.1,1.6-1.1
									S421.1,215.6,421.2,216.2z"/>
								<path class="st4" d="M384.7,219c-0.1,0.6-0.9,1.1-1.9,1.1s-1.7-0.5-1.6-1.1c0.1-0.6,0.9-1.1,1.9-1.1
									C384,217.8,384.8,218.3,384.7,219z"/>
								<path class="st4" d="M389.6,219c-0.1,0.6-0.9,1.1-1.9,1.1s-1.7-0.5-1.6-1.1s0.9-1.1,1.9-1.1S389.7,218.3,389.6,219z"/>
								<path class="st4" d="M394.5,219c0,0.6-0.8,1.1-1.9,1.1c-1,0-1.8-0.5-1.7-1.1c0.1-0.6,0.8-1.1,1.9-1.1
									C393.8,217.8,394.6,218.3,394.5,219z"/>
								<path class="st4" d="M399.4,219c0,0.6-0.8,1.1-1.8,1.1c-1,0-1.8-0.5-1.7-1.1c0-0.6,0.8-1.1,1.8-1.1
									C398.7,217.8,399.4,218.3,399.4,219z"/>
								<path class="st4" d="M404.3,219c0,0.6-0.8,1.1-1.8,1.1c-1,0-1.8-0.5-1.8-1.1s0.8-1.1,1.8-1.1
									C403.6,217.8,404.3,218.3,404.3,219z"/>
								<path class="st4" d="M409.3,219c0,0.6-0.8,1.1-1.7,1.1c-1,0-1.8-0.5-1.8-1.1s0.8-1.1,1.7-1.1
									C408.5,217.8,409.2,218.3,409.3,219z"/>
								<path class="st4" d="M414.2,219c0.1,0.6-0.7,1.1-1.7,1.1c-1,0-1.8-0.5-1.9-1.1c0-0.6,0.7-1.1,1.7-1.1
									C413.3,217.8,414.1,218.3,414.2,219z"/>
								<path class="st4" d="M419.1,219c0.1,0.6-0.7,1.1-1.6,1.1c-1,0-1.9-0.5-1.9-1.1c-0.1-0.6,0.7-1.1,1.6-1.1
									C418.2,217.8,419,218.3,419.1,219z"/>
								<path class="st4" d="M424,219c0.1,0.6-0.6,1.1-1.6,1.1s-1.9-0.5-1.9-1.1c-0.1-0.6,0.7-1.1,1.6-1.1
									C423.1,217.8,423.9,218.3,424,219z"/>
							</g>
						</g>
						<g>
							<g>
								<path class="st7" d="M388.1,210.1c-0.1,0.6-0.8,1.1-1.8,1.1s-1.6-0.5-1.5-1.1c0.1-0.6,0.9-1.1,1.8-1.1
									C387.5,209,388.2,209.5,388.1,210.1z"/>
								<path class="st7" d="M392.7,210.1c-0.1,0.6-0.8,1.1-1.8,1.1s-1.6-0.5-1.5-1.1c0.1-0.6,0.8-1.1,1.8-1.1
									C392.1,209,392.7,209.5,392.7,210.1z"/>
								<path class="st7" d="M397.3,210.1c0,0.6-0.8,1.1-1.7,1.1s-1.6-0.5-1.6-1.1s0.8-1.1,1.7-1.1
									C396.6,209,397.4,209.5,397.3,210.1z"/>
								<path class="st7" d="M402,210.1c0,0.6-0.8,1.1-1.7,1.1s-1.7-0.5-1.6-1.1c0-0.6,0.8-1.1,1.7-1.1
									C401.2,209,402,209.5,402,210.1z"/>
								<path class="st7" d="M406.5,210.1c0,0.6-0.7,1.1-1.6,1.1s-1.7-0.5-1.7-1.1s0.8-1.1,1.6-1.1
									C405.8,209,406.5,209.5,406.5,210.1z"/>
								<path class="st7" d="M411.2,210.1c0.1,0.6-0.7,1.1-1.6,1.1s-1.7-0.5-1.7-1.1s0.7-1.1,1.6-1.1
									C410.3,209,411.2,209.5,411.2,210.1z"/>
								<path class="st7" d="M415.8,210.1c0.1,0.6-0.6,1.1-1.5,1.1c-0.9,0-1.7-0.5-1.8-1.1c-0.1-0.6,0.7-1.1,1.5-1.1
									C414.9,209,415.7,209.5,415.8,210.1z"/>
								<path class="st7" d="M420.4,210.1c0.1,0.6-0.6,1.1-1.5,1.1c-0.9,0-1.7-0.5-1.8-1.1s0.6-1.1,1.5-1.1
									C419.6,209,420.3,209.5,420.4,210.1z"/>
								<path class="st7" d="M385.4,212.9c-0.1,0.6-0.9,1.1-1.9,1.1s-1.6-0.5-1.5-1.1c0.1-0.6,0.9-1.1,1.9-1.1
									C384.8,211.7,385.5,212.2,385.4,212.9z"/>
								<path class="st7" d="M390.1,212.9c-0.1,0.6-0.8,1.1-1.9,1.1c-0.9,0-1.6-0.5-1.6-1.1c0.1-0.6,0.9-1.1,1.9-1.1
									C389.5,211.7,390.2,212.2,390.1,212.9z"/>
								<path class="st7" d="M394.9,212.9c0,0.6-0.8,1.1-1.8,1.1s-1.7-0.5-1.6-1.1c0.1-0.6,0.8-1.1,1.8-1.1
									C394.2,211.7,394.9,212.2,394.9,212.9z"/>
								<path class="st7" d="M399.6,212.9c0,0.6-0.8,1.1-1.8,1.1c-0.9,0-1.7-0.5-1.7-1.1s0.8-1.1,1.8-1.1
									C398.8,211.7,399.6,212.2,399.6,212.9z"/>
								<path class="st7" d="M404.3,212.9c0,0.6-0.8,1.1-1.7,1.1s-1.7-0.5-1.7-1.1s0.8-1.1,1.7-1.1
									C403.6,211.7,404.3,212.2,404.3,212.9z"/>
								<path class="st7" d="M409,212.9c0,0.6-0.7,1.1-1.7,1.1c-0.9,0-1.7-0.5-1.8-1.1c-0.1-0.6,0.8-1.1,1.7-1.1
									C408.2,211.7,409,212.2,409,212.9z"/>
								<path class="st7" d="M413.7,212.9c0.1,0.6-0.7,1.1-1.6,1.1c-0.9,0-1.8-0.5-1.8-1.1s0.7-1.1,1.6-1.1
									C412.9,211.7,413.7,212.2,413.7,212.9z"/>
								<path class="st7" d="M418.5,212.9c0.1,0.6-0.6,1.1-1.6,1.1c-0.9,0-1.8-0.5-1.8-1.1c-0.1-0.6,0.7-1.1,1.6-1.1
									C417.5,211.7,418.4,212.2,418.5,212.9z"/>
								<path class="st7" d="M423.2,212.9c0.1,0.6-0.6,1.1-1.5,1.1c-0.9,0-1.8-0.5-1.9-1.1c-0.1-0.6,0.6-1.1,1.5-1.1
									C422.3,211.7,423.1,212.2,423.2,212.9z"/>
								<path class="st7" d="M387.5,215.6c-0.1,0.6-0.9,1.1-1.9,1.1s-1.7-0.5-1.6-1.1s0.9-1.1,1.9-1.1
									C386.8,214.5,387.6,215,387.5,215.6z"/>
								<path class="st7" d="M392.3,215.6c-0.1,0.6-0.8,1.1-1.9,1.1c-0.9,0-1.7-0.5-1.6-1.1c0.1-0.6,0.8-1.1,1.9-1.1
									C391.6,214.5,392.3,215,392.3,215.6z"/>
								<path class="st7" d="M397.1,215.6c0,0.6-0.8,1.1-1.8,1.1s-1.7-0.5-1.7-1.1s0.8-1.1,1.8-1.1S397.1,215,397.1,215.6z"/>
								<path class="st7" d="M402,215.6c0,0.6-0.8,1.1-1.8,1.1c-0.9,0-1.7-0.5-1.7-1.1s0.8-1.1,1.8-1.1
									C401.2,214.5,402,215,402,215.6z"/>
								<path class="st7" d="M406.8,215.6c0,0.6-0.8,1.1-1.7,1.1s-1.8-0.5-1.8-1.1s0.8-1.1,1.7-1.1S406.7,215,406.8,215.6z"/>
								<path class="st7" d="M411.5,215.6c0.1,0.6-0.7,1.1-1.7,1.1c-0.9,0-1.8-0.5-1.8-1.1s0.8-1.1,1.7-1.1S411.5,215,411.5,215.6z"
									/>
								<path class="st7" d="M416.3,215.6c0.1,0.6-0.7,1.1-1.6,1.1s-1.8-0.5-1.9-1.1c-0.1-0.6,0.7-1.1,1.6-1.1
									C415.5,214.5,416.3,215,416.3,215.6z"/>
								<path class="st7" d="M421.2,215.6c0.1,0.6-0.6,1.1-1.6,1.1c-0.9,0-1.8-0.5-1.9-1.1c-0.1-0.6,0.7-1.1,1.6-1.1
									S421.1,215,421.2,215.6z"/>
								<path class="st7" d="M384.7,218.4c-0.1,0.6-0.9,1.1-1.9,1.1s-1.7-0.5-1.6-1.1c0.1-0.6,0.9-1.1,1.9-1.1
									C384,217.2,384.8,217.7,384.7,218.4z"/>
								<path class="st7" d="M389.6,218.4c-0.1,0.6-0.9,1.1-1.9,1.1s-1.7-0.5-1.6-1.1s0.9-1.1,1.9-1.1S389.7,217.7,389.6,218.4z"/>
								<path class="st7" d="M394.5,218.4c0,0.6-0.8,1.1-1.9,1.1c-1,0-1.8-0.5-1.7-1.1c0.1-0.6,0.8-1.1,1.9-1.1
									C393.8,217.2,394.6,217.7,394.5,218.4z"/>
								<path class="st7" d="M399.4,218.4c0,0.6-0.8,1.1-1.8,1.1c-1,0-1.8-0.5-1.7-1.1c0-0.6,0.8-1.1,1.8-1.1
									C398.7,217.2,399.4,217.7,399.4,218.4z"/>
								<path class="st7" d="M404.3,218.4c0,0.6-0.8,1.1-1.8,1.1c-1,0-1.8-0.5-1.8-1.1s0.8-1.1,1.8-1.1
									C403.6,217.2,404.3,217.7,404.3,218.4z"/>
								<path class="st7" d="M409.3,218.4c0,0.6-0.8,1.1-1.7,1.1c-1,0-1.8-0.5-1.8-1.1s0.8-1.1,1.7-1.1
									C408.5,217.2,409.2,217.7,409.3,218.4z"/>
								<path class="st7" d="M414.2,218.4c0.1,0.6-0.7,1.1-1.7,1.1c-1,0-1.8-0.5-1.9-1.1c0-0.6,0.7-1.1,1.7-1.1
									C413.3,217.2,414.1,217.7,414.2,218.4z"/>
								<path class="st7" d="M419.1,218.4c0.1,0.6-0.7,1.1-1.6,1.1c-1,0-1.9-0.5-1.9-1.1c-0.1-0.6,0.7-1.1,1.6-1.1
									C418.2,217.2,419,217.7,419.1,218.4z"/>
								<path class="st7" d="M424,218.4c0.1,0.6-0.6,1.1-1.6,1.1s-1.9-0.5-1.9-1.1c-0.1-0.6,0.7-1.1,1.6-1.1
									C423.1,217.2,423.9,217.7,424,218.4z"/>
							</g>
						</g>
						<rect x="435" y="197.8" class="st2" width="2.4" height="5.7"/>
						<rect x="432.5" y="200" class="st8" width="2.5" height="1.2"/>
						<g>
							<polygon class="st3" points="363.5,203 362.4,201.6 370.8,197.2 374.5,199.5 373.2,200.9 370.8,199.3 							"/>
						</g>
						<polygon class="st2" points="366.4,200.9 363.3,202.7 359.9,198.7 363,196.8 						"/>
						<rect x="374.4" y="197.8" class="st9" width="56.9" height="1.3"/>
						<polygon class="st7" points="414.6,221.9 390.6,221.9 391.1,220.4 414.3,220.4 						"/>
						<rect x="390.6" y="221.9" class="st4" width="23.9" height="0.7"/>
						<path class="st5" d="M413.5,201.2c-1.6,1.6-5.6,2.7-10.2,2.7c-4.6,0-8.5-1.1-10.1-2.6l2.7-1.1l0,0c1.4,0.8,4.1,1.4,7.4,1.4
							c3.2,0,5.9-0.6,7.4-1.4L413.5,201.2z"/>
					</g>
				</g>
				<g>
					<polygon class="st10" points="322.6,25.5 311.5,25.5 309.2,25.5 309.2,91.2 309.2,98.9 311.5,98.9 321,98.9 321,103.5 
						327.6,100.4 334.2,103.5 334.2,98.9 379.3,98.9 379.3,96.4 379.3,91.2 379.3,25.5 					"/>
					<g>
						<rect x="308" y="24.5" class="st11" width="70.2" height="73.4"/>
						<rect x="310.3" y="24.5" class="st8" width="67.8" height="70.9"/>
						<rect x="308" y="24.5" class="st11" width="70.2" height="65.8"/>
						<path class="st12" d="M321.5,90.3h-9.5l0,0c-1,2.1-1.5,4.3-1.5,6.6v1h-2.3V24.5h13.3V90.3z"/>
						<polygon class="st13" points="333.1,102.5 326.5,99.4 319.8,102.5 319.8,92.4 333.1,92.4 						"/>
						<g>
							<g>
								<path class="st2" d="M340.3,37.5v0.3h-1.6v8.6h0.5c2,0,2.8-1.1,3.7-2.8h0.3l-0.3,3.1h-8.2v-0.3h0.9v-8.6h-0.9v-0.3H340.3z"
									/>
								<path class="st2" d="M349.3,43.7h-3.1l-1.2,2.9h1.1v0.2h-2.4v-0.2h0.7l4-9h1.2l3.9,9h0.7v0.2h-5v-0.2h1.1L349.3,43.7z
									 M346.3,43.4h2.8l-1.3-3.4L346.3,43.4z"/>
								<path class="st2" d="M360,40.3l-0.9-2.5h-0.9v-0.3h4.8v0.2h-0.9l2.4,6.2l1.8-6.2h-1.5v-0.2h3.1v0.2h-1l-2.9,9h-1.3l-2.3-6
									l-2.1,6H357l-3.9-9h-0.7v-0.2h5v0.2h-1.1l2.6,6.3L360,40.3z"/>
							</g>
							<g>
								<path class="st2" d="M367.4,50.2h-34.4c-2.6,0-4.7-1.7-4.7-4V38c0-2.2,2.2-4,4.7-4h34.4c2.6,0,4.7,1.7,4.7,4v8.2
									C372.2,48.5,370,50.2,367.4,50.2z M333.1,35.7c-1.6,0-2.9,1.1-2.9,2.5v8.2c0,1.3,1.3,2.5,2.9,2.5h34.4
									c1.6,0,2.9-1.1,2.9-2.5v-8.2c0-1.3-1.3-2.5-2.9-2.5H333.1z"/>
							</g>
						</g>
						<path class="st8" d="M367.7,72.2c0.1-0.1,0.1-0.3,0.1-0.4c0,0,0-0.1,0-0.2v-0.1c0-0.1,0-0.2,0-0.3h-1.7l-3.3-8.8
							c1.7-0.7,1.7-2.5,1.7-2.5c-3.3,2-6.5-0.5-9.1-1.4c-1.5-0.6-3.1,0-4.1,0.6c0.5-1.1,0.5-2.4-1.2-2.6c-1.7,0.2-1.7,1.4-1.2,2.6
							c-1-0.6-2.6-1.1-4.1-0.6c-2.7,1-5.9,3.4-9.1,1.4c0,0,0,1.7,1.7,2.5l-3.3,8.8h-1.7c0,0.1,0,0.2,0,0.3v0.1c0,0.1,0,0.1,0,0.2
							c0.5,1.8,2.9,3.3,5.6,3.3c2.9,0,5.2-1.4,5.6-3.3c0,0,0-0.1,0-0.2v-0.1c0-0.1,0-0.2,0-0.3H342l-2.3-8.6
							c0.8-0.1,1.7-0.3,2.9-0.7c0,0,2.3-1.2,5.2,0.2c0.1,0.3,0.2,0.7,0.3,1.3l0,0c0.4,2,0.9,5.4,0.2,10c-0.3,0.2-0.4,0.4-0.4,0.7
							c0,0.1,0,0.2,0,0.2c-1.7,0.3-3.1,1-3.7,2.1c-0.5,0.1-1,0.4-1.2,0.9l-0.1,0.2c-0.6,0.1-1,0.4-1.2,0.8l-0.4,0.9H358l-0.4-0.9
							c-0.2-0.5-0.7-0.8-1.2-0.8l-0.1-0.2c-0.2-0.4-0.6-0.8-1.2-0.9c-0.6-0.9-2-1.7-3.7-2.1c0-0.1,0-0.2,0-0.2
							c0-0.3-0.2-0.5-0.4-0.7c-0.6-4.5-0.2-7.9,0.2-10c0.1-0.5,0.2-0.9,0.3-1.3c3-1.5,5.2-0.2,5.2-0.2c1.1,0.4,2.1,0.6,2.9,0.7
							l-2.3,8.6h-1.6c0,0.1,0,0.2,0,0.3v0.1c0,0.1,0,0.1,0,0.1c0.5,1.8,2.9,3.3,5.6,3.3C364.9,75.1,367.1,73.9,367.7,72.2
							L367.7,72.2L367.7,72.2z M337.9,62.5c0.2,0.1,0.5,0.1,0.8,0.1l-0.6,8.6h-3.5L337.9,62.5z M342,71.2h-3.6l0.6-8.6
							c0.2,0,0.4,0,0.7,0L342,71.2z M362.6,62.5l3.3,8.7h-3.5l-0.6-8.6C362.1,62.6,362.4,62.6,362.6,62.5z M360.8,62.6
							c0.2,0,0.4,0,0.7,0l0.6,8.6h-3.6L360.8,62.6z"/>
					</g>
				</g>
			</g>
		</g>
	</g>
</g>
<g id="Character">
	<g>
		<g>
			<g>
				<g>
					<g>
						<polygon class="st14" points="80,92.9 80.6,120.1 73.1,120.1 73.1,95.8 74.9,93.7 						"/>
					</g>
				</g>
			</g>
			<g>
				<g>
					<g>
						<g>
							<g>
								<rect x="44.2" y="117.5" class="st14" width="65.5" height="17.2"/>
							</g>
						</g>
					</g>
					<g>
						<g>
							<g>
								<g>
									<path class="st15" d="M55,117.7c0,0-0.2,0-0.5,0c-0.3,0-0.6,0-1.1,0s-1.1,0.1-1.6,0.3c-0.6,0.1-1.3,0.4-1.9,0.7
										c-0.6,0.3-1.3,0.5-1.9,0.7c-0.6,0.1-1.1,0.3-1.8,0.3c-0.5,0-1,0-1.1,0c-0.3,0-0.5-0.1-0.5-0.1s0.2,0,0.5,0
										c0.3,0,0.6,0,1.1,0s1.1-0.1,1.6-0.3c0.6-0.1,1.3-0.4,1.9-0.7c0.6-0.3,1.3-0.5,1.9-0.7c0.6-0.1,1.1-0.3,1.6-0.3s1,0,1.1,0
										C54.8,117.6,55,117.7,55,117.7z"/>
								</g>
							</g>
						</g>
					</g>
					<g>
						<g>
							<g>
								<g>
									<path class="st15" d="M48.1,122.1c0,0-0.2,0-0.6,0.1c-0.3,0-0.8,0.1-1.5,0.3c-0.5,0.1-1,0.4-1.3,0.5
										c-0.3,0.1-0.5,0.3-0.5,0.3s0,0,0.2-0.1c0.2,0,0.2-0.1,0.3-0.1c0.3-0.1,0.8-0.4,1.3-0.5c0.5-0.1,1.1-0.3,1.5-0.3
										c0.2,0,0.3,0,0.5,0C47.9,122.1,48.1,122.1,48.1,122.1z"/>
								</g>
							</g>
						</g>
					</g>
					<g>
						<g>
							<g>
								<g>
									<path class="st15" d="M60.8,117.5c0,0-0.2,0-0.3,0c-0.2,0-0.5,0.1-0.8,0.1c-0.3,0.1-0.6,0.3-1.1,0.5
										c-0.3,0.3-0.8,0.5-1.3,0.8c-0.5,0.3-0.8,0.5-1.3,0.7c-0.5,0.1-0.8,0.3-1.1,0.4c-0.3,0-0.6,0-0.8,0s-0.3,0-0.3,0
										s0.2,0,0.3,0c0.2,0,0.5,0,0.8-0.1c0.3,0,0.8-0.1,1.1-0.4c0.5-0.1,0.8-0.4,1.3-0.7c0.5-0.3,0.8-0.5,1.3-0.8
										c0.3-0.3,0.8-0.4,1.1-0.5c0.3-0.1,0.6-0.1,0.8-0.1C60.7,117.5,60.8,117.5,60.8,117.5z"/>
								</g>
							</g>
						</g>
					</g>
					<g>
						<g>
							<g>
								<g>
									<path class="st15" d="M69,120.4c0,0,0-0.1,0-0.4c0-0.3,0-0.5-0.3-1c-0.3-0.5-0.6-0.7-1.3-0.8c-0.6-0.1-1.3-0.1-2.1,0.1
										c-1.5,0.3-2.8,0.8-3.6,1.2c-0.5,0.1-0.8,0.4-1,0.5c-0.2,0-0.2,0.1-0.3,0.1h-0.2c0,0,0,0,0.2,0c0,0,0.2-0.1,0.3-0.1
										c0.2-0.1,0.6-0.3,1-0.5c0.8-0.4,2.1-1,3.6-1.2c0.8-0.1,1.5-0.3,2.1-0.1c0.6,0.1,1.1,0.5,1.3,1c0.3,0.4,0.3,0.7,0.3,1
										C69,120.3,69,120.4,69,120.4z"/>
								</g>
							</g>
						</g>
					</g>
					<g>
						<g>
							<g>
								<g>
									<path class="st15" d="M66.3,120.3c0,0-0.2-0.1-0.3-0.3c-0.2-0.1-0.6-0.1-1-0.1c-0.5,0-0.8,0.1-1,0.1
										c-0.3,0-0.5,0.1-0.5,0.1s0.2,0,0.5-0.1c0.3-0.1,0.6-0.1,1-0.1c0.5,0,0.8,0.1,1,0.1C66.2,120.1,66.2,120.1,66.3,120.3
										L66.3,120.3z"/>
								</g>
							</g>
						</g>
					</g>
					<g>
						<g>
							<g>
								<g>
									<path class="st15" d="M48.2,124.1c0,0-0.2,0-0.6,0.1c-0.3,0-1,0.1-1.5,0.4c-0.5,0.3-1,0.5-1.3,0.7
										c-0.3,0.3-0.5,0.4-0.5,0.4s0,0,0.2-0.1c0-0.1,0.2-0.1,0.3-0.3c0.3-0.3,0.6-0.5,1.3-0.8c0.5-0.3,1.1-0.4,1.5-0.4
										c0.2,0,0.3,0,0.5,0C48.2,124.1,48.2,124.1,48.2,124.1z"/>
								</g>
							</g>
						</g>
					</g>
					<g>
						<g>
							<g>
								<g>
									<path class="st15" d="M50.3,134.7L50.3,134.7c0.3-0.1,0.5-0.1,0.6-0.1c0.3-0.1,1-0.3,1.5-0.7c0.3-0.1,0.5-0.4,0.6-0.8
										c0.2-0.3,0.2-0.7,0-1.1c-0.2-0.8-0.6-1.6-1.5-2.2c-0.8-0.7-1.8-1-2.8-1.1c-1-0.1-1.8-0.1-2.6-0.1c-0.8,0-1.3,0.1-1.8,0.1
										c-0.2,0-0.3,0-0.5,0.1c-0.2,0-0.2,0-0.2,0s0,0,0.2,0c0.2,0,0.3,0,0.5-0.1c0.3,0,1-0.1,1.8-0.1c0.8,0,1.6,0,2.6,0.1
										c1,0.1,1.9,0.5,2.8,1.1c0.8,0.7,1.5,1.5,1.5,2.3c0,0.4,0,0.8,0,1.2c-0.2,0.4-0.5,0.7-0.6,0.8c-0.6,0.4-1.1,0.5-1.5,0.7
										C50.5,134.7,50.3,134.7,50.3,134.7z"/>
								</g>
							</g>
						</g>
					</g>
					<g>
						<g>
							<g>
								<g>
									<path class="st15" d="M46.9,132.9c0,0-0.2-0.1-0.5-0.3c-0.2,0-0.5-0.1-0.6,0c-0.3,0-0.5,0.3-0.6,0.5
										c-0.2,0.3-0.2,0.7,0.2,1c0.3,0.3,0.8,0.3,1.3,0.3c1-0.1,1.9-0.7,2.6-1.4c0.3-0.4,0.5-0.8,0.3-1.2c0-0.4-0.3-0.8-0.8-1
										c-0.5-0.1-1-0.1-1.3-0.1c-0.5,0-0.8,0.1-1.1,0.1c-0.6,0.1-1.3,0.4-1.6,0.5c-0.2,0.1-0.3,0.1-0.5,0.1s-0.2,0-0.2,0
										s0.2-0.1,0.5-0.3c0.3-0.1,1-0.4,1.6-0.5c0.3-0.1,0.8-0.1,1.1-0.1c0.5,0,1,0,1.3,0.1c0.5,0.1,0.8,0.5,0.8,1
										c0.2,0.4,0,1-0.3,1.4c-0.6,0.8-1.6,1.4-2.6,1.4c-0.5,0-1,0-1.3-0.3s-0.3-0.7-0.3-1c0.2-0.3,0.5-0.5,0.6-0.5
										c0.3,0,0.5,0,0.8,0C46.6,132.7,46.8,132.7,46.9,132.9C46.9,132.8,46.9,132.9,46.9,132.9z"/>
								</g>
							</g>
						</g>
					</g>
					<g>
						<g>
							<g>
								<g>
									<path class="st15" d="M73.7,131.3c0,0-0.3,0.1-0.8,0.3c-0.5,0.1-1.3,0.3-2.3,0.3c-1,0.1-2.1,0-3.4,0
										c-1.3,0-2.6-0.1-4.1-0.1c-1.5,0-2.8,0.1-4.1,0.4c-1.1,0.3-2.3,0.7-3.1,1.1c-0.8,0.4-1.5,0.8-1.8,1.1
										c-0.2,0.1-0.3,0.3-0.5,0.3c-0.2,0.1-0.2,0.1-0.2,0.1s0.2-0.1,0.6-0.4c0.5-0.3,1-0.7,1.8-1.1c0.8-0.4,1.8-0.8,3.1-1.1
										c1.1-0.3,2.6-0.5,4.1-0.5c1.5,0,2.8,0.1,4.1,0.1c1.3,0.1,2.4,0.1,3.2,0c1,0,1.6-0.1,2.3-0.3c0.3,0,0.5-0.1,0.6-0.1
										C73.3,131.4,73.7,131.3,73.7,131.3z"/>
								</g>
							</g>
						</g>
					</g>
					<g>
						<g>
							<g>
								<g>
									<path class="st15" d="M77.8,133.2c0,0-0.2,0-0.3,0s-0.5,0-1,0c-0.5,0-1,0-1.5,0c-0.3,0-0.6,0-1-0.1c-0.2,0-0.3-0.3-0.2-0.4
										c0.2-0.1,0.3-0.3,0.5-0.3c1.5-0.3,3.2-0.4,5.2-0.4c0.3,0,0.5,0,0.8,0.1c0.2,0.1,0.3,0.4,0.2,0.7c-0.2,0.1-0.3,0.3-0.6,0.4
										l-0.3,0.1l-0.3,0.1c-1,0.4-2.1,0.5-3.2,0.5c-2.3,0-4.4-0.4-6.3-0.8c-1.9-0.3-3.7-0.5-5.2-0.4c-1.5,0.1-2.6,0.5-3.4,0.8
										c-0.3,0.1-0.6,0.3-0.8,0.4C60.1,134,60,134,60,134s0.2,0,0.3-0.1c0.2-0.1,0.5-0.3,0.8-0.4c0.6-0.4,1.9-0.7,3.4-0.8
										c1.5-0.1,3.2,0,5.2,0.4c1.9,0.3,4.1,0.8,6.3,0.7c1.1,0,2.3-0.1,3.2-0.5l0.3-0.1l0.3-0.1c0.2-0.1,0.5-0.3,0.5-0.4
										c0.2-0.1,0.2-0.4-0.2-0.5c-0.2-0.1-0.5-0.1-0.6-0.1c-1.9,0-3.7,0.1-5.2,0.4c-0.2,0-0.3,0.1-0.5,0.3c0,0.1,0,0.3,0.2,0.3
										c0.3,0.1,0.6,0.1,1,0.1c0.6,0,1.1,0,1.5,0c0.3,0,0.6,0,1,0C77.8,133.2,77.8,133.2,77.8,133.2z"/>
								</g>
							</g>
						</g>
					</g>
					<g>
						<g>
							<g>
								<g>
									<path class="st15" d="M89.7,131.4L89.7,131.4c-0.2,0-0.3,0.1-0.3,0.1c-0.3,0-0.6,0.1-1,0.3c-0.8,0.3-1.9,0.8-3.2,1.4
										c-0.6,0.3-1.3,0.5-1.8,0.7c-0.5,0.1-1.1,0.4-1.5,0.4c-1,0.1-1.5,0.1-1.5,0.1s0,0,0.2,0c0.2,0,0.2,0,0.3,0
										c0.1,0,0.3,0,0.5,0c0.2,0,0.3,0,0.6-0.1c0.5-0.1,1-0.3,1.5-0.4c0.5-0.3,1.1-0.4,1.8-0.7c1.3-0.5,2.4-1.1,3.2-1.4
										C89.1,131.6,89.7,131.4,89.7,131.4z"/>
								</g>
							</g>
						</g>
					</g>
					<g>
						<g>
							<g>
								<g>
									<path class="st15" d="M100,132L100,132c-0.3,0-0.3,0-0.5,0c-0.2,0-0.3,0-0.6-0.1c-0.3,0-0.5,0-0.8,0c-0.6,0-1.5,0-2.3,0
										c-0.8,0-1.8,0.1-2.8,0.4c-1,0.1-1.8,0.4-2.6,0.7c-0.8,0.3-1.5,0.5-1.9,0.8c-0.3,0.1-0.5,0.3-0.6,0.4
										c-0.2,0.1-0.3,0.3-0.5,0.3c-0.2,0.1-0.2,0.1-0.3,0.3l-0.2,0.1c0,0,0.6-0.4,1.6-1c0.5-0.3,1.1-0.5,1.9-0.8
										c0.8-0.3,1.6-0.5,2.6-0.8c1-0.1,1.8-0.3,2.8-0.4c0.8,0,1.6,0,2.3,0C99.2,131.9,100,132,100,132z"/>
								</g>
							</g>
						</g>
					</g>
					<g>
						<g>
							<g>
								<g>
									<path class="st15" d="M109.1,124c0,0,0,0-0.2,0.1c-0.2,0.1-0.3,0.1-0.5,0.3c-0.5,0.3-1.1,0.5-1.8,1.2
										c-0.3,0.3-0.6,0.7-1,1.1c-0.2,0.4-0.3,1-0.3,1.5s0.3,1.1,0.5,1.6c0,0.3,0.2,0.5,0,1c0,0.3-0.3,0.5-0.5,0.8
										c-0.6,0.4-1.3,0.5-1.9,0.8s-1.3,0.4-1.9,0.5c-0.3,0.1-0.6,0.1-0.8,0.3c-0.3,0.1-0.5,0.3-0.5,0.5c-0.2,0.3,0,0.4,0.2,0.7
										c0.2,0.1,0.5,0.1,0.6,0.3c1,0,1.8-0.1,2.3-0.1c0.3,0,0.5,0,0.6-0.1c0.2,0,0.2,0,0.2,0s-0.3,0-0.8,0.1
										c-0.5,0.1-1.3,0.1-2.3,0.1c-0.2,0-0.5,0-0.6-0.3c-0.2-0.1-0.2-0.4-0.2-0.7c0.2-0.3,0.3-0.4,0.6-0.5
										c0.3-0.1,0.6-0.3,0.8-0.3c0.6-0.1,1.3-0.4,1.9-0.7c0.6-0.3,1.3-0.4,1.9-0.8c0.3-0.3,0.5-0.5,0.5-0.8s0-0.5,0-0.8
										c-0.2-0.5-0.3-1.1-0.5-1.6c-0.2-0.5,0-1.1,0.3-1.5c0.2-0.4,0.6-0.8,1-1.1c0.6-0.5,1.5-1,1.8-1.2c0.2-0.1,0.3-0.1,0.5-0.3
										C108.9,124,109.1,124,109.1,124z"/>
								</g>
							</g>
						</g>
					</g>
					<g>
						<g>
							<g>
								<g>
									<path class="st15" d="M109.1,134.9L109.1,134.9c-0.2-0.1-0.2-0.3-0.2-0.3c-0.2-0.1-0.3-0.4-0.5-0.8
										c-0.3-0.7-0.8-1.8-0.8-2.9c0-1.2,0.5-2.2,1-2.9c0.3-0.3,0.5-0.5,0.8-0.7c0.2-0.1,0.3-0.1,0.3-0.1s-0.2,0.1-0.3,0.3
										c-0.1,0.2-0.5,0.4-0.6,0.7c-0.5,0.5-1,1.6-1,2.9c0,1.3,0.5,2.2,0.8,2.9c0.2,0.4,0.3,0.7,0.5,0.8
										C108.9,134.6,109.1,134.7,109.1,134.9L109.1,134.9z"/>
								</g>
							</g>
						</g>
					</g>
					<g>
						<g>
							<g>
								<g>
									<path class="st15" d="M73.4,122.2c0,0,0.3-0.3,0.5-0.8c0.2-0.3,0.2-0.5,0.2-1c0-0.4-0.2-0.7-0.5-1.1
										c-0.6-0.7-1.5-1.1-1.9-1.4c-0.3-0.1-0.5-0.3-0.6-0.3c-0.2,0-0.3-0.1-0.3-0.1l0,0H71c0.2,0,0.5,0.1,0.6,0.3
										c0.6,0.3,1.5,0.7,1.9,1.4c0.3,0.4,0.5,0.8,0.5,1.1c0,0.4,0,0.7-0.2,1c-0.2,0.3-0.3,0.4-0.3,0.5
										C73.6,122.2,73.4,122.2,73.4,122.2z"/>
								</g>
							</g>
						</g>
					</g>
					<g>
						<g>
							<g>
								<g>
									<path class="st15" d="M109.7,122.9c0,0-0.2,0-0.3-0.1c-0.1-0.1-0.5-0.3-1-0.4c-0.8-0.4-2.1-0.7-3.7-0.8
										c-1.6-0.1-3.6,0.1-5.8,0.5c-1.1,0.1-2.3,0.4-3.4,0.5c-1.1,0.1-2.4,0.3-3.7,0.4c-2.6,0.1-5,0.1-7.2-0.1
										c-1.1-0.1-2.1-0.3-3.1-0.5c-1-0.3-1.8-0.7-2.4-1.1c-0.6-0.4-1.1-1-1.5-1.4c-0.3-0.4-0.6-0.8-1-1.1
										c-0.3-0.3-0.6-0.4-0.8-0.5c-0.2,0-0.2-0.1-0.2-0.1h-0.2c0,0,0.2,0,0.3,0.1c0.1,0.1,0.5,0.3,0.8,0.5
										c0.3,0.3,0.6,0.7,1.1,1.1c0.3,0.4,0.8,1,1.5,1.4c0.6,0.4,1.5,0.8,2.4,1.1c1,0.3,1.9,0.4,3.1,0.5c2.1,0.3,4.5,0.3,7.2,0.1
										c1.3-0.1,2.4-0.3,3.7-0.4c1.1-0.1,2.3-0.4,3.4-0.5c2.1-0.4,4.1-0.5,5.8-0.5c1.6,0.1,2.9,0.5,3.7,0.8c0.5,0.1,0.6,0.4,1,0.5
										C109.5,122.9,109.7,122.9,109.7,122.9z"/>
								</g>
							</g>
						</g>
					</g>
					<g>
						<g>
							<g>
								<g>
									<path class="st15" d="M94.9,119.5c0,0-0.8,0-2.3,0.1c-0.6,0-1.6,0-2.6,0s-2.1-0.3-3.2-0.5h-0.2h0.2c2.9-0.5,6.6-0.7,10.2,0
										c0.3,0,0.6,0.1,0.8,0.3c0.2,0.1,0.2,0.3,0,0.4c0,0.1-0.2,0.3-0.3,0.4c-0.3,0.1-0.5,0.3-0.8,0.3s-0.6,0.1-0.8,0.1
										c-1.1,0.1-2.3,0.3-3.4,0.4c-2.1,0.1-4.2,0-5.8-0.4c-1.6-0.4-2.8-1.1-3.4-1.5c-0.3-0.3-0.6-0.5-0.8-0.7
										c-0.2-0.1-0.2-0.3-0.2-0.3s0.2,0.1,0.2,0.3c0.2,0.1,0.5,0.4,0.8,0.7c0.6,0.5,1.8,1.1,3.4,1.5c1.6,0.4,3.6,0.5,5.7,0.4
										c1.1-0.1,2.3-0.1,3.4-0.4c0.3,0,0.6-0.1,0.8-0.1c0.3,0,0.6-0.1,0.8-0.3c0.2-0.1,0.3-0.4,0.2-0.7c-0.2-0.1-0.5-0.3-0.8-0.3
										c-3.7-0.7-7.4-0.5-10.2,0l0,0c1.1,0.4,2.3,0.5,3.2,0.5c1,0.1,1.8,0,2.6,0c0.6,0,1.3,0,1.6,0
										C94.7,119.5,94.9,119.5,94.9,119.5z"/>
								</g>
							</g>
						</g>
					</g>
					<g>
						<g>
							<g>
								<g>
									<path class="st15" d="M109.5,119.9c0,0-0.6,0-1.6,0s-2.3-0.1-3.7-0.4c-1.5-0.3-2.8-0.8-3.6-1.2c-0.8-0.4-1.3-0.7-1.3-0.7
										s0,0,0.2,0c0.2,0,0.2,0.1,0.3,0.1c0.2,0.1,0.6,0.3,1,0.5c0.8,0.4,2.1,0.8,3.6,1.1c1.5,0.3,2.8,0.4,3.7,0.4
										c0.5,0,0.8,0,1.1,0C109.2,119.9,109.4,119.9,109.5,119.9L109.5,119.9z"/>
								</g>
							</g>
						</g>
					</g>
					<g>
						<g>
							<g>
								<g>
									<path class="st15" d="M109.5,118.4c0,0,0,0-0.2,0s-0.3,0-0.5,0c-0.5,0-1,0-1.6,0c-0.6,0-1.3-0.1-1.6-0.3
										c-0.2,0-0.3-0.1-0.5-0.1c-0.2,0-0.2,0-0.2,0s0,0,0.2,0c0.2,0,0.3,0,0.5,0.1c0.5,0.1,1,0.1,1.6,0.1c0.6,0,1.3,0,1.6,0
										c0.2,0,0.3,0,0.5,0C109.5,118.4,109.5,118.4,109.5,118.4z"/>
								</g>
							</g>
						</g>
					</g>
				</g>
				<g>
					<g>
						<g>
							<g>
								<g>
									<rect x="49.7" y="120.8" class="st16" width="54.1" height="11"/>
								</g>
							</g>
						</g>
						<g>
							<g>
								<g>
									<g>
										<g>
											<path class="st17" d="M103.8,122.6c0,0,0,0,0,0.1c0,0.1-0.2,0.3-0.2,0.4c-0.2,0.1-0.2,0.4-0.3,0.5
												c-0.2,0.3-0.3,0.5-0.6,0.8c-0.2,0.3-0.5,0.5-0.8,1c-0.3,0.3-0.6,0.7-1,1c-0.8,0.7-1.6,1.4-2.6,2c-1,0.7-1.9,1.1-2.9,1.6
												c-0.5,0.1-1,0.4-1.5,0.5c-0.2,0.1-0.5,0.1-0.6,0.3c-0.2,0-0.5,0.1-0.6,0.1c-0.3,0.1-0.8,0.1-1.1,0.3
												c-0.3,0.2-0.6,0.1-0.8,0.1s-0.3,0-0.5,0.1c-0.2,0-0.2,0-0.2,0s0,0,0.2,0c0.2,0,0.3,0,0.5-0.1c0.2,0,0.5-0.1,0.8-0.1
												c0.3-0.1,0.6-0.1,1-0.3c0.2,0,0.3-0.1,0.6-0.1c0.2,0,0.5-0.1,0.6-0.3c0.5-0.1,1-0.4,1.5-0.5c1-0.4,1.9-1,2.9-1.6
												c1-0.7,1.8-1.4,2.6-2c0.3-0.3,0.6-0.7,1-1c0.3-0.3,0.5-0.7,0.8-1c0.2-0.3,0.5-0.5,0.6-0.8c0.1-0.3,0.3-0.4,0.5-0.5
												C103.6,123,103.6,122.9,103.8,122.6L103.8,122.6z"/>
										</g>
									</g>
								</g>
							</g>
							<g>
								<g>
									<g>
										<g>
											<path class="st17" d="M103.6,129.3L103.6,129.3c-0.2,0-0.2,0-0.3,0s-0.5,0-0.8,0.1c-0.6,0.1-1.6,0.3-2.8,0.7
												c-1,0.3-1.9,0.7-2.6,1.1c-0.3,0.1-0.5,0.3-0.6,0.4l-0.2,0.1l0,0l0,0l0.2-0.1c0.2-0.1,0.3-0.3,0.6-0.4
												c0.6-0.3,1.5-0.7,2.6-1.1c1-0.3,1.9-0.5,2.8-0.7c0.3,0,0.6-0.1,0.8-0.1C103.3,129.3,103.4,129.3,103.6,129.3L103.6,129.3
												z"/>
										</g>
									</g>
								</g>
							</g>
							<g>
								<g>
									<g>
										<g>
											<path class="st17" d="M95.7,126c0,0-0.2,0-0.3,0.1s-0.5,0.3-1,0.3c-0.2,0-0.5-0.1-0.8-0.3c-0.2-0.1-0.3-0.4-0.2-0.7
												c0.2-0.3,0.3-0.5,0.6-0.7c0.3-0.3,0.6-0.4,1-0.7c0.6-0.4,1.5-0.8,2.4-1.1c0.5-0.1,1-0.3,1.5-0.3c0.3,0,0.5,0,0.8,0
												s0.5,0.1,0.8,0.3c0.2,0.1,0.3,0.4,0.3,0.7c0,0.3-0.2,0.5-0.3,0.7c-0.3,0.4-0.6,0.8-1.1,1.2c-0.5,0.4-0.8,0.7-1.3,1.1
												c-0.5,0.3-1,0.7-1.6,1c-1.1,0.5-2.3,1-3.4,1.2c-0.6,0.1-1.1,0.3-1.8,0.3c-0.7,0-1.1,0-1.6-0.3c-0.5-0.3-1-0.5-1-1.1
												c0-0.4,0.2-0.8,0.3-1.2c0.5-0.8,0.8-1.5,1.5-2c1-1.1,2.1-1.9,2.8-2.5c0.8-0.5,1.3-0.7,1.3-0.7s-0.2,0-0.3,0.1
												c-0.1,0.1-0.5,0.3-0.8,0.5c-0.8,0.5-1.8,1.2-2.8,2.5c-0.5,0.5-1,1.2-1.3,2c-0.2,0.4-0.3,0.8-0.3,1.2c0,0.4,0.5,0.8,1,1
												c0.5,0.3,1.1,0.3,1.6,0.1c0.6,0,1.1-0.1,1.8-0.3c1.1-0.3,2.3-0.7,3.4-1.2c0.5-0.3,1.1-0.5,1.6-1c0.5-0.3,1-0.7,1.3-1.1
												c0.3-0.4,0.8-0.8,1.1-1.2c0.2-0.3,0.3-0.4,0.3-0.7c0-0.3-0.2-0.4-0.3-0.7c-0.5-0.3-1-0.4-1.5-0.3c-0.5,0-1,0.1-1.5,0.3
												c-1,0.3-1.8,0.7-2.4,1.1c-0.3,0.3-0.6,0.4-1,0.7c-0.3,0.3-0.5,0.4-0.6,0.7c-0.2,0.3,0,0.5,0.2,0.7
												c0.2,0.1,0.5,0.3,0.6,0.3c0.5,0,0.8-0.1,1-0.3C95.7,126,95.7,126,95.7,126z"/>
										</g>
									</g>
								</g>
							</g>
							<g>
								<g>
									<g>
										<g>
											<path class="st17" d="M89.9,121.2c0,0,0,0.1,0,0.5c0,0.3-0.2,0.8-0.5,1.4c-0.3,0.5-0.8,1.2-1.5,1.8
												c-0.6,0.5-1.5,1.2-2.3,1.8c-0.8,0.5-1.8,1.1-2.4,1.6c-0.8,0.5-1.3,1.1-1.8,1.5c-0.5,0.4-0.8,1-1,1.2
												c-0.2,0.1-0.2,0.3-0.2,0.4s0,0.1,0,0.1s0-0.1,0.3-0.5c0.2-0.3,0.5-0.7,1-1.2c0.5-0.5,1.1-1,1.8-1.5
												c0.8-0.5,1.6-1.1,2.4-1.6c0.8-0.5,1.6-1.1,2.3-1.8c0.6-0.5,1.1-1.2,1.5-1.8c0.3-0.5,0.5-1.1,0.5-1.4c0-0.1,0-0.3,0-0.4
												C89.9,121.4,89.9,121.2,89.9,121.2z"/>
										</g>
									</g>
								</g>
							</g>
							<g>
								<g>
									<g>
										<g>
											<path class="st17" d="M65.7,131.6c0,0,1.3-0.4,3.7-0.8c1.1-0.1,2.6-0.4,4.1-0.5c0.8-0.1,1.6-0.3,2.4-0.4
												c0.8-0.1,1.6-0.4,2.4-0.8c0.8-0.3,1.6-0.7,2.3-1.1c0.6-0.4,1.3-0.8,1.9-1.2c1.1-0.8,2.1-1.8,2.8-2.6
												c0.6-0.8,1.1-1.5,1.5-2c0.2-0.3,0.3-0.4,0.3-0.5c0-0.1,0.2-0.1,0.2-0.1s-0.2,0.3-0.5,0.8c-0.3,0.5-0.8,1.2-1.5,2
												c-0.6,0.8-1.6,1.6-2.8,2.6c-0.6,0.4-1.3,0.8-1.9,1.2c-0.6,0.4-1.5,0.8-2.3,1.1c-0.8,0.3-1.6,0.5-2.4,0.8
												c-0.8,0.1-1.6,0.4-2.4,0.4c-1.5,0.3-2.9,0.4-4.1,0.5c-1.2,0.1-2.1,0.4-2.8,0.5c-0.3,0.1-0.5,0.1-0.6,0.1
												C65.7,131.6,65.7,131.6,65.7,131.6z"/>
										</g>
									</g>
								</g>
							</g>
							<g>
								<g>
									<g>
										<g>
											<path class="st17" d="M59.7,128.8C59.7,128.8,59.7,128.6,59.7,128.8c0-0.1,0-0.3,0-0.4c0.2-0.3,0.3-0.7,0.8-1
												c0.5-0.4,1.1-0.7,2.1-1c0.8-0.3,1.9-0.4,3.1-0.4c0.6,0,1.1,0,1.8,0.1c0.3,0,0.6,0.1,1,0.3c0.3,0.1,0.6,0.3,0.8,0.5
												c0.2,0.3,0.3,0.5,0.2,0.8c0,0.3-0.3,0.5-0.6,0.7c-0.3,0.1-0.6,0.4-1,0.4c-0.3,0.1-0.6,0.3-1,0.4c-1.5,0.5-2.9,1-4.5,1.2
												c-0.8,0.1-1.6,0.3-2.4,0.3c-0.5,0-0.8,0-1.3,0.1c-0.5,0-0.8,0-1.3-0.1c-0.5-0.1-0.8-0.4-1-0.7c-0.2-0.3-0.3-0.7-0.3-1.1
												c0-0.7,0.3-1.4,1-1.9c0.5-0.5,1.1-1,1.8-1.4c0.6-0.4,1.3-0.7,1.9-1c1.3-0.5,2.8-0.8,4.1-1.1c1.3-0.3,2.6-0.3,3.7-0.4
												s2.1-0.1,3.1-0.1c1-0.1,1.6-0.3,2.1-0.7c0.5-0.3,0.8-0.7,1-1c0-0.1,0.2-0.3,0.2-0.3c0-0.1,0-0.1,0-0.1s0,0.1-0.2,0.4
												c-0.2,0.3-0.5,0.5-1,1c-0.5,0.3-1.3,0.5-2.1,0.7c-1,0.1-1.9,0.1-3.1,0.1c-1.1,0.1-2.4,0.1-3.7,0.4
												c-1.3,0.3-2.8,0.5-4.1,1.1c-0.6,0.3-1.3,0.5-1.9,1c-0.6,0.4-1.3,0.8-1.8,1.4s-1,1.2-0.8,1.9c0,0.4,0.2,0.7,0.3,1
												c0.2,0.3,0.6,0.5,1,0.7c0.5,0.1,0.8,0.1,1.3,0.1s0.8,0,1.3-0.1c0.8-0.1,1.6-0.1,2.4-0.3c1.6-0.3,3.1-0.7,4.5-1.2
												c0.6-0.3,1.5-0.4,1.9-0.8c0.3-0.1,0.5-0.4,0.5-0.7c0-0.3,0-0.5-0.2-0.8c-0.3-0.4-1.1-0.7-1.6-0.7
												c-0.6-0.1-1.1-0.1-1.8-0.1c-1.1,0-2.1,0.1-3.1,0.4c-0.8,0.3-1.6,0.5-2.1,1c-0.5,0.5-0.8,0.7-0.8,1
												C59.9,128.5,59.7,128.5,59.7,128.8C59.7,128.6,59.7,128.8,59.7,128.8z"/>
										</g>
									</g>
								</g>
							</g>
							<g>
								<g>
									<g>
										<g>
											<path class="st17" d="M66,121.1c0,0-0.2,0.1-0.6,0.3c-0.5,0.3-1.1,0.5-1.9,0.8c-0.8,0.3-1.9,0.7-3.1,1.1
												c-1.1,0.4-2.4,0.8-3.6,1.5c-1.3,0.5-2.3,1.2-3.1,2c-0.8,0.8-1.3,1.6-1.8,2.3c-0.3,0.7-0.5,1.4-0.5,1.8c0,0.3,0,0.4,0,0.5
												s0,0.1,0,0.1s0,0,0-0.1s0-0.3,0-0.5c0-0.4,0.2-1.1,0.5-1.8c0.3-0.7,0.8-1.5,1.8-2.3c0.8-0.8,1.9-1.5,3.1-2
												c1.3-0.5,2.4-1.1,3.6-1.5c1.1-0.4,2.1-0.7,3.1-1.1c0.8-0.3,1.5-0.5,1.9-0.8c0.2-0.1,0.3-0.1,0.5-0.3H66z"/>
										</g>
									</g>
								</g>
							</g>
							<g>
								<g>
									<g>
										<g>
											<path class="st17" d="M50.3,124.1L50.3,124.1c0.2,0,0.3,0,0.3,0c0.2,0,0.5-0.1,1-0.1c0.8-0.1,1.8-0.4,2.9-1
												c1.1-0.4,2.1-1,2.6-1.4c0.3-0.3,0.5-0.4,0.8-0.5l0.2-0.1l0,0l0,0l-0.2,0.1c-0.2,0.1-0.5,0.3-0.6,0.5
												c-0.6,0.4-1.6,1-2.6,1.4c-1.1,0.4-2.1,0.7-2.9,0.8c-0.3,0.1-0.6,0.1-1,0.1C50.7,124.1,50.5,124.1,50.3,124.1L50.3,124.1z
												"/>
										</g>
									</g>
								</g>
							</g>
						</g>
					</g>
				</g>
				<g>
					<g>
						<path class="st15" d="M64.1,124.1v0.1c-0.3,0-0.5,0-0.5,0.1c-0.2,0-0.2,0.3-0.2,0.4v2.9c0,0.4-0.2,0.8-0.5,1.1
							c-0.3,0.3-0.6,0.4-1.3,0.4c-0.3,0-0.6-0.1-1-0.3c-0.2-0.1-0.3-0.4-0.3-0.5s0-0.3,0.2-0.4c0.2-0.1,0.3-0.1,0.3-0.1
							c0.2,0,0.3,0,0.3,0.1c0.2,0.1,0.2,0.1,0.2,0.3c0,0.1,0,0.3-0.2,0.3c0,0.1-0.2,0.1-0.2,0.1s0,0.1,0.2,0.1h0.2
							c0.2,0,0.3,0,0.5-0.1c0-0.1,0-0.1,0-0.4v-3.7c0-0.1,0-0.3-0.2-0.4c-0.2,0-0.3,0-0.5-0.1v0.1H64.1z"/>
					</g>
					<g>
						<path class="st15" d="M67,124.1v0.1c-0.3,0-0.5,0-0.6,0.1c-0.2,0.1-0.2,0.3-0.2,0.4v2.2c0,0.3,0,0.5,0.2,0.8s0.5,0.5,1,0.5
							c0.6,0,1-0.1,1.1-0.5c0.2-0.1,0.2-0.5,0.2-0.8v-2c0-0.3,0-0.4-0.2-0.5s-0.3-0.1-0.6-0.1v-0.1h1.6v0.1c-0.3,0-0.5,0.1-0.5,0.1
							s-0.2,0.1-0.2,0.4v2c0,0.5-0.2,1-0.5,1.2c-0.3,0.3-0.8,0.4-1.5,0.4c-0.8,0-1.5-0.3-1.8-0.7c-0.2-0.3-0.3-0.5-0.3-1v-2.2
							c0-0.3,0-0.4-0.2-0.4c0,0-0.3-0.1-0.5-0.1l0,0h3V124.1z"/>
					</g>
					<g>
						<path class="st15" d="M70.2,127h0.2c0.2,0.5,0.3,0.8,0.6,1.1c0.3,0.3,0.6,0.3,1,0.3c0.4,0,0.6-0.1,0.8-0.3
							c0.2-0.1,0.2-0.3,0.2-0.5c0-0.1,0-0.4-0.2-0.4c-0.2-0.1-0.3-0.1-0.6-0.3l-0.5-0.3c-0.5-0.3-0.8-0.4-1-0.7
							c-0.2-0.1-0.3-0.4-0.3-0.8c0-0.3,0.2-0.7,0.3-1c0.3-0.3,0.6-0.4,1.3-0.4c0.3,0,0.5,0,0.8,0.1c0.3,0.1,0.5,0.1,0.5,0.1
							c0.2,0,0.2,0,0.2,0v-0.1h0.2v1.4h-0.3c-0.2-0.3-0.3-0.5-0.5-0.8c-0.3-0.3-0.5-0.4-1-0.4c-0.3,0-0.5,0-0.6,0.1
							c-0.2,0.1-0.2,0.3-0.2,0.4c0,0.3,0,0.4,0.2,0.4c0.2,0.1,0.5,0.3,1,0.4l0.6,0.3c0.3,0.1,0.5,0.3,0.6,0.4c0.3,0.3,0.5,0.5,0.5,1
							c0,0.3-0.2,0.7-0.5,1c-0.3,0.3-0.8,0.4-1.5,0.4c-0.2,0-0.3,0-0.5,0s-0.3,0-0.5-0.1h-0.2c0,0,0,0-0.2,0s0,0-0.2,0h-0.2v0.1H70
							V127L70.2,127L70.2,127z"/>
					</g>
					<g>
						<path class="st15" d="M74.4,124.1h4.7v1.4h-0.2c0-0.4-0.3-0.8-0.6-1c-0.2-0.1-0.5-0.1-0.8-0.1v3.4c0,0.3,0,0.4,0.2,0.4
							c0.2,0.1,0.3,0.1,0.6,0.1v0.1h-2.8v-0.1c0.3,0,0.5,0,0.6-0.1c0.1-0.1,0.2-0.3,0.2-0.4v-3.4c-0.3,0-0.6,0-0.8,0.1
							c-0.3,0.1-0.6,0.5-0.6,1h-0.2L74.4,124.1z"/>
					</g>
					<g>
						<path class="st15" d="M79.4,128.3c0.2,0,0.3,0,0.5,0c0.2,0,0.2-0.1,0.2-0.4v-3.1c0-0.1,0-0.3-0.2-0.4c-0.2,0-0.3,0-0.5-0.1
							v-0.1h2.8v0.1c-0.2,0-0.5,0-0.5,0.1c-0.2,0-0.2,0.1-0.2,0.4v3.1c0,0.1,0,0.3,0.2,0.4c0.2,0,0.3,0.1,0.5,0.1v0.1h-2.8V128.3z"
							/>
					</g>
					<g>
						<path class="st15" d="M86.5,124.2c0.3,0.1,0.5,0.1,0.5,0.1c0.2,0,0.2,0,0.2-0.1l0.2-0.1h0.1v1.5h-0.2
							c-0.2-0.3-0.3-0.5-0.6-0.8c-0.3-0.4-0.8-0.5-1.3-0.5s-0.8,0.1-1.1,0.5c-0.2,0.4-0.3,0.8-0.3,1.5c0,0.4,0,0.8,0.2,1.1
							c0.2,0.5,0.6,0.8,1.3,0.8c0.3,0,0.8-0.1,1.1-0.3c0.2-0.1,0.5-0.3,0.6-0.5l0.2,0.1c-0.3,0.3-0.6,0.5-0.8,0.7
							c-0.5,0.3-0.8,0.3-1.3,0.3c-0.8,0-1.5-0.1-1.9-0.5c-0.6-0.4-0.8-1-0.8-1.6c0-0.7,0.3-1.2,0.8-1.8c0.5-0.4,1.1-0.7,1.9-0.7
							C85.8,124,86.2,124.1,86.5,124.2z"/>
					</g>
					<g>
						<path class="st15" d="M88.1,128.5v-0.1c0.2,0,0.3,0,0.5-0.1c0.2,0,0.2-0.1,0.2-0.4v-3.1c0-0.1,0-0.3-0.2-0.4
							c-0.2,0-0.2,0-0.5-0.1l0,0h4.5v1.4h-0.1c-0.2-0.4-0.3-0.7-0.5-0.8c-0.2-0.1-0.6-0.3-1.3-0.3c-0.2,0-0.3,0-0.5,0
							c0,0-0.2,0.1-0.2,0.3v1.5c0.5,0,0.8,0,1-0.1c0.2-0.1,0.3-0.4,0.3-0.8h0.2v2.2h-0.2c0-0.4-0.2-0.7-0.3-0.8
							c-0.1-0.1-0.5-0.3-1-0.3v1.6c0,0.1,0,0.3,0.2,0.3c0.2,0,0.3,0.1,0.5,0.1c0.5,0,1-0.1,1.1-0.3c0.3-0.1,0.6-0.4,0.8-1h0.2
							l-0.3,1.4h-4.4V128.5z"/>
					</g>
				</g>
			</g>
			<g>
				<g>
					<g>
						<polygon class="st14" points="72,43.1 73.7,24.4 78.4,24.4 80.5,43.1 						"/>
					</g>
				</g>
				<g>
					<g>
						<path class="st14" d="M115.7,47.7c2.1,0.5,4.2-1.2,3.2-3c-0.5-0.8-1.5-1.4-3.4-1.5c-5.4-0.3-67.6-0.8-78.9-1
							c-1.5,0-3.1,0.5-3.6,1.8c-0.2,0.4,0,1.4,0.5,1.6c1.5,1,2.6,0.5,4.5-0.7c2.4-1.5,31.2,0.7,34.5,1.5h6.7c0,0,5.4-1.5,24.7-1.5
							c11.3,0,9.2,1.4,11.1,2.5L115.7,47.7z"/>
					</g>
				</g>
				<g>
					<g>
						<ellipse class="st14" cx="76.2" cy="20.2" rx="6.9" ry="5.7"/>
					</g>
				</g>
			</g>
			<g>
				<g>
					<g>
						<g>
							<g>
								<path class="st15" d="M45.6,45c0.3,1.2,2.1,6.1,5.2,15.7c3.2,9.9,7.9,23.7,13.1,39.5l0.2,0.3h-0.3c-5.2,0-10.6,0-16.2,0
									c-5.7,0-11.5,0-16.8,0h-0.3l0.2-0.3c4.4-15.8,8.4-29.6,11.1-39.5C43.9,51.1,45.3,46.2,45.6,45c-0.3,1.2-1.6,6.3-4.2,15.9
									c-2.6,9.9-6.3,23.7-10.6,39.4l-0.3-0.3c5.4,0,11.1,0,16.8,0c5.5,0,11,0,16.2,0l-0.3,0.3c-5-15.7-9.3-29.4-12.6-39.4
									C47.6,51.3,46,46.2,45.6,45z"/>
							</g>
						</g>
					</g>
				</g>
				<g>
					<g>
						<g>
							<path class="st14" d="M26.3,99.1H69c0,0-2.1,13.3-21.4,13.2C28.4,112.3,26.3,99.1,26.3,99.1z"/>
						</g>
					</g>
				</g>
				<g>
					<g>
						<g>
							<g>
								<path class="st8" d="M52.3,110.4c0,0-0.3,0.1-1,0.3c-0.6,0.1-1.5,0.1-2.6,0.3c-1.1,0-2.4,0-3.9-0.3
									c-1.5-0.3-3.1-0.5-4.7-1.1c-1.6-0.5-3.1-1.2-4.2-1.9c-1.1-0.7-2.3-1.5-3.1-2.2c-0.8-0.7-1.3-1.2-1.6-1.6s-0.5-0.7-0.5-0.7
									c0.2,0,1,0.8,2.4,2.2c0.8,0.7,1.8,1.4,3.1,2c1.1,0.7,2.6,1.4,4.2,1.8c1.6,0.5,3.1,0.8,4.5,1.1c1.5,0.3,2.8,0.3,3.9,0.3
									C50.8,110.4,52.3,110.2,52.3,110.4z"/>
							</g>
						</g>
					</g>
				</g>
			</g>
			<g>
				<g>
					<g>
						<g>
							<g>
								<path class="st15" d="M109.7,45c0.3,1.2,2.1,6.1,5.2,15.7c3.2,9.9,7.9,23.7,13.1,39.5l0.2,0.3h-0.4c-5.2,0-10.6,0-16.2,0
									c-5.7,0-11.5,0-16.8,0h-0.3l0.2-0.3c4.4-15.8,8.4-29.6,11.1-39.5C108.1,51.1,109.4,46.2,109.7,45c-0.3,1.2-1.6,6.3-4.2,15.9
									c-2.6,9.9-6.3,23.7-10.6,39.4l-0.3-0.3c5.4,0,11.1,0,16.8,0c5.5,0,11,0,16.2,0l-0.3,0.3c-5-15.7-9.3-29.4-12.6-39.4
									C111.8,51.3,110.2,46.2,109.7,45z"/>
							</g>
						</g>
					</g>
				</g>
				<g>
					<g>
						<g>
							<path class="st14" d="M90.5,99.1h42.6c0,0-2.1,13.3-21.4,13.2C92.5,112.3,90.5,99.1,90.5,99.1z"/>
						</g>
					</g>
				</g>
				<g>
					<g>
						<g>
							<g>
								<path class="st8" d="M116.4,110.4c0,0-0.3,0.1-1,0.3c-0.6,0.1-1.5,0.1-2.6,0.3c-1.1,0-2.4,0-3.9-0.3
									c-1.5-0.3-3.1-0.5-4.7-1.1c-1.6-0.5-3.1-1.2-4.2-1.9c-1.1-0.7-2.3-1.5-3.1-2.2c-0.8-0.7-1.3-1.2-1.6-1.6s-0.5-0.7-0.5-0.7
									c0.2,0,1,0.8,2.4,2.2c0.8,0.7,1.8,1.4,3.1,2c1.1,0.7,2.6,1.4,4.2,1.8c1.6,0.5,3.1,0.8,4.5,1.1c1.5,0.3,2.8,0.3,3.9,0.3
									C115.1,110.4,116.4,110.2,116.4,110.4z"/>
							</g>
						</g>
					</g>
				</g>
			</g>
		</g>
	</g>
</g>
<path class="st18" d="M152.8,78.7c0,0,0-0.3,0-1.1c0-0.8,0-2-0.3-3.7c-0.3-3.1-0.9-7.7-2.3-13.6c-0.9-2.8-1.7-5.9-3.1-9.4
	c-1.5-3.4-3.1-6.9-5.1-10.5c-4.3-7.1-10.6-14.7-19.2-21.3c-4.3-3.1-9.2-6.2-14.7-8.5S96.9,6.4,90.6,5.3c-6.3-1.2-12.9-1.7-19.5-1.2
	c-3.4,0.3-6.9,0.8-10.3,1.4c-3.4,0.8-6.9,1.7-10,2.8c-13.6,4.8-26.2,13.7-35.3,26.1c-2.3,3.1-4.3,6.2-6.3,9.9
	c-0.9,1.7-1.7,3.4-2.6,5.3c-0.9,1.8-1.5,3.8-2,5.5c-2.5,7.4-3.7,15.6-4,23.5c0,8.3,1.5,16.1,4,23.6c0.6,2,1.5,3.7,2,5.3
	c0.9,1.7,1.7,3.7,2.6,5.3c1.7,3.4,3.7,6.9,6.3,9.9c9.2,12.5,21.8,21.3,35.2,26.1c3.4,1.1,6.9,2.3,10,2.8c3.4,0.6,6.9,1.1,10.3,1.4
	c6.9,0.6,13.5,0,19.5-1.1c6.3-1.1,12-3.1,17.5-5.3c5.4-2.3,10.3-5.3,14.7-8.5c8.6-6.6,14.9-13.9,19.2-21.3c2.3-3.7,4-7.1,5.1-10.5
	c1.5-3.4,2.3-6.6,3.1-9.4c1.5-5.6,2-10.5,2.3-13.6c0.3-1.7,0-2.8,0.3-3.7C152.8,79,152.8,78.7,152.8,78.7s0,0.3,0,1.1v3.7
	c-0.3,3.1-0.6,7.7-2,13.6c-0.9,2.8-1.7,5.9-3.1,9.4c-1.5,3.4-3.1,7.1-5.1,10.5c-4.3,7.4-10.6,14.7-19.5,21.3
	c-4.3,3.1-9.2,6.2-14.7,8.5c-5.4,2.5-11.2,4.2-17.5,5.3c-6.3,1.1-12.9,1.7-19.8,1.1c-3.4-0.3-6.9-0.8-10.3-1.4
	c-3.4-0.8-6.9-1.7-10.3-2.8c-13.6-4.7-26.5-13.8-35.6-26c-2.3-3.1-4.3-6.6-6.3-9.9c-0.9-1.7-1.7-3.4-2.6-5.3c-0.9-1.7-1.5-3.7-2-5.6
	c-2.5-7.8-3.7-15.7-4-23.9c0-8.3,1.5-16.1,4-23.8c0.6-2,1.5-3.7,2-5.6C6.9,47,7.8,45,8.6,43.4c1.7-3.4,4-6.9,6.3-9.9
	c9.1-12.7,22-21.5,35.5-26.3c3.4-1.1,6.9-2.3,10.3-2.8S67.6,3.3,71,3c6.9-0.6,13.5,0,19.8,1.1s12,3.1,17.5,5.3
	c5.4,2.5,10.3,5.3,14.7,8.5c8.6,6.6,14.9,14.2,19.5,21.3c2.3,3.7,4,7.1,5.1,10.5c1.5,3.4,2.3,6.6,3.1,9.4c1.5,5.6,2,10.5,2,13.6v3.7
	L152.8,78.7L152.8,78.7z"/>
<path class="st18" d="M400.6,59.6c0,0,0-0.2,0-0.9c0-0.7,0-1.5-0.2-2.9c-0.2-2.5-0.7-6.1-1.7-10.7c-0.7-2.3-1.3-4.7-2.4-7.4
	c-1.1-2.7-2.4-5.3-3.9-8.2c-3.2-5.5-8-11.6-14.5-16.7c-3.2-2.5-6.8-4.9-11-6.7c-4-1.7-8.4-3.4-13.1-4.2c-4.7-0.9-9.6-1.3-14.6-0.9
	c-2.6,0.2-5.2,0.7-7.7,1.1c-2.6,0.7-5.2,1.3-7.5,2.3c-10.1,3.8-19.6,10.7-26.5,20.5c-1.7,2.5-3.2,4.9-4.7,7.8
	c-0.7,1.3-1.3,2.7-1.9,4.2c-0.7,1.3-1.1,2.9-1.5,4.2c-1.9,5.7-2.8,12.2-3,18.5c0,6.5,1.1,12.7,3,18.5c0.4,1.5,1.1,2.9,1.5,4.2
	c0.7,1.3,1.3,2.9,1.9,4.2c1.3,2.7,2.8,5.3,4.7,7.8c6.8,9.8,16.4,16.7,26.5,20.5c2.6,0.9,5.2,1.7,7.5,2.3c2.6,0.4,5.2,0.9,7.7,1.1
	c5.2,0.4,10.1,0,14.6-0.9c4.7-0.9,9.1-2.5,13.1-4.2s7.7-4.2,11-6.7c6.5-5.1,11.2-10.9,14.5-16.7c1.7-2.9,3-5.5,3.9-8.2
	c1.1-2.7,1.7-5.1,2.4-7.4c1.1-4.4,1.5-8.2,1.7-10.7c0.2-1.3,0-2.3,0.2-2.9C400.6,59.8,400.6,59.6,400.6,59.6s0,0.2,0,0.9v2.9
	c-0.2,2.5-0.4,6.1-1.5,10.7c-0.7,2.3-1.3,4.7-2.4,7.4c-1.1,2.7-2.4,5.5-3.9,8.2c-3.2,5.7-8,11.6-14.6,16.7c-3.2,2.5-6.8,4.9-11,6.7
	c-4,2.1-8.4,3.4-13.1,4.2c-4.7,0.9-9.6,1.3-14.8,0.9c-2.6-0.2-5.2-0.7-7.7-1.1c-2.6-0.7-5.2-1.3-7.7-2.3
	c-10.1-3.8-19.8-10.9-26.7-20.5c-1.7-2.5-3.2-5.1-4.7-7.8c-0.7-1.3-1.3-2.7-1.9-4.2c-0.7-1.3-1.1-2.9-1.5-4.4
	c-1.9-6.1-2.8-12.2-3-18.7c0-6.5,1.1-12.7,3-18.7c0.4-1.5,1.1-2.9,1.5-4.4c0.7-1.3,1.3-2.9,1.9-4.2c1.3-2.7,3-5.3,4.7-7.8
	c6.8-9.8,16.6-16.7,26.7-20.5c2.6-0.9,5.2-1.7,7.7-2.3c2.6-0.4,5.2-0.9,7.7-1.1c5.2-0.4,10.1,0,14.8,0.9s9.1,2.5,13.1,4.2
	c4,2.1,7.7,4.2,11,6.7c6.5,5.1,11.2,11.2,14.6,16.7c1.7,2.9,3,5.5,3.9,8.2c1.1,2.7,1.7,5.1,2.4,7.4c1.1,4.4,1.5,8.2,1.5,10.7v2.9
	V59.6z"/>
<path class="st18" d="M449.4,206.8c0,0,0-0.2,0-0.7s0-1.2-0.2-2.3c-0.2-2-0.5-4.9-1.4-8.6c-0.5-1.8-1.1-3.8-2-6s-2-4.4-3.3-6.7
	c-2.8-4.5-6.8-9.3-12.2-13.5c-2.8-2-5.8-4-9.2-5.4c-3.5-1.4-7.1-2.7-11.1-3.4s-8.2-1.1-12.4-0.7c-2.2,0.2-4.4,0.5-6.6,0.9
	c-2.2,0.5-4.4,1.1-6.4,1.8c-8.5,3-16.5,8.6-22.3,16.5c-1.4,2-2.8,4-4,6.3c-0.5,1.1-1.1,2.1-1.6,3.4c-0.5,1.1-0.9,2.3-1.2,3.4
	c-1.6,4.7-2.4,9.9-2.6,14.9c0,5.2,0.9,10.2,2.6,14.9c0.4,1.2,0.9,2.3,1.2,3.4c0.5,1.1,1.1,2.3,1.6,3.4c1.1,2.1,2.4,4.4,4,6.3
	c5.8,7.9,13.8,13.5,22.3,16.5c2.2,0.7,4.4,1.4,6.4,1.8c2.2,0.4,4.4,0.7,6.6,0.9c4.4,0.4,8.5,0,12.4-0.7c4-0.7,7.6-2,11.1-3.4
	c3.5-1.4,6.6-3.4,9.2-5.4c5.4-4.2,9.4-8.8,12.2-13.5c1.4-2.3,2.6-4.5,3.3-6.7c0.9-2.1,1.4-4.2,2-6c0.9-3.6,1.2-6.7,1.4-8.6
	c0.2-1.1,0-1.8,0.2-2.3C449.4,207,449.4,206.8,449.4,206.8s0,0.2,0,0.7v2.3c-0.2,2-0.4,4.9-1.2,8.6c-0.5,1.8-1.1,3.8-2,6
	s-2,4.5-3.3,6.7c-2.8,4.7-6.8,9.3-12.4,13.5c-2.8,2-5.8,4-9.2,5.4c-3.5,1.6-7.1,2.7-11.1,3.4c-4,0.7-8.2,1.1-12.5,0.7
	c-2.2-0.2-4.4-0.5-6.6-0.9c-2.2-0.5-4.4-1.1-6.6-1.8c-8.5-3-16.7-8.8-22.6-16.5c-1.4-2-2.8-4.2-4-6.3c-0.5-1.1-1.1-2.1-1.6-3.4
	c-0.5-1.1-0.9-2.3-1.2-3.6c-1.6-4.9-2.4-9.9-2.6-15.1c0-5.2,0.9-10.2,2.6-15.1c0.4-1.2,0.9-2.3,1.2-3.6c0.5-1.1,1.1-2.3,1.6-3.4
	c1.1-2.1,2.6-4.4,4-6.3c5.8-7.9,14-13.5,22.6-16.5c2.2-0.7,4.4-1.4,6.6-1.8c2.2-0.4,4.4-0.7,6.6-0.9c4.4-0.4,8.5,0,12.5,0.7
	c4,0.7,7.6,2,11.1,3.4c3.5,1.6,6.6,3.4,9.2,5.4c5.4,4.2,9.4,9,12.4,13.5c1.4,2.3,2.6,4.5,3.3,6.7c0.9,2.1,1.4,4.2,2,6
	c0.9,3.6,1.2,6.7,1.2,8.6v2.3V206.8z"/>
<polygon class="st14" points="73.1,95.8 72.5,45.7 80.2,45.7 80,92.8 "/>
<g>
	<g id="XMLID_4526_">
		<path class="st19" d="M297.7,213.8c1.6,7.5,4.8,7.7,9.4,51.4c0.9,12.4,6.8,24.7,7.1,37.2c0.3,12.8-0.7,25,2.7,37.3
			c0.7,2.4,1.9,10.3,1,12.7c-0.9,2.5-4.8-1.4-6.1,0.5c-1.9,2.6-0.7,5.2-5.2,5.3c-3.6,0.1-4.7-0.9-5.1-5.1c-0.9,2.1-6.7,3.3-8.8,2.4
			c-2.1-0.9-3.2-3.7-2.2-5.8c-1.2,0.7-2.6,1-3.9,0.9c-1.7-0.2,1.4-10.9,1.9-11.8c2.1-4.1,4.9-5.6,9.2-7.1
			c12-4.1-14.1-45.4-12.9-70.5c0.4-9.2-5.6-30-5.7-30.4C277.3,223.4,297.7,213.8,297.7,213.8z"/>
	</g>
	<polygon class="st20" points="296.6,316 297.6,323.9 317.7,323.1 317.1,314.7 	"/>
	<path d="M281.7,144c7.7,3.6,16.7,9.1,18.2,13c1.2,3.1,1.5,3.6,9.3,82.9l10.8,77.7l-27.1,2l-9.3-70.9L281.7,144z"/>
	<linearGradient id="SVGID_1_" gradientUnits="userSpaceOnUse" x1="296.812" y1="234.7513" x2="337.3398" y2="195.7822">
		<stop  offset="0" style="stop-color:#302624;stop-opacity:0.5"/>
		<stop  offset="0.9947" style="stop-color:#302624;stop-opacity:0"/>
	</linearGradient>
	<path class="st21" d="M281.7,144c7.7,3.6,16.7,9.1,18.2,13c1.2,3.1,1.5,3.6,9.3,82.9l10.8,77.7l-27.1,2l-9.3-70.9L281.7,144z"/>
	<path class="st22" d="M195.8,83c0,0,4.5-0.2,6.5-2.6c1.9-2.4-4.4-21.8-4.4-21.8s6-5.2,6.1-12.5c0.1-7.3-4.8-11.1-12.3-10.6
		c-7.5,0.5-18.4,10.5-18.4,10.5l5.5,2.8c0,0,1.8,16.6,4.1,20.9C185.2,73.8,195.8,83,195.8,83z"/>
	<path class="st22" d="M181.2,50.6c2.2,10.4,9.5,35.9,9.5,35.9l6.5-7.4l-3.3-32L181.2,50.6z"/>
	<path d="M289.9,450c0,0,0.1,0,0.3,0c3.6,0,6.9,0,7.5,0c0,0,0.2,0,0.4,0c2.7,0,4.8,0,5.3,0c0,0,0.2,0,0.4,0
		c-1.9-25.9-3.4-47-3.7-50.6c-0.9-10.3-9.8-124-9.8-124l-96.8-9.8c0,0,0.4,147.7,2,155.4c0.4,2.1,1.2,13.5,2,29c0.3,0,0.5,0,0.6,0
		c0.1,0,0.5,0,1.1,0c1.8,0,3.1,0,3.5,0c0.1,0,1.1,0,2.5,0c0.7,0,1.2,0,1.6,0c2.5,0,4.7,0,5.1,0c0.1,0,1.6,0,3.5,0c1.3,0,2.3,0,2.7,0
		c2.3,0,4.2,0,4.7,0c0.1,0,1.2,0,2.7,0c1.5,0,2.7,0,3,0c0.1,0,0.8,0,1.7,0c2.2,0,4,0,4.5,0c0.1,0,0.6,0,1.4,0
		c0.2-14.5,0.4-24.4,0.4-24.3c0,0.5,1.8-100.2,1.8-100.2l5.3,1.5l15.7,82.7l6.2,40.3c0.1,0,0.2,0,0.2,0c0.1,0,1.2,0,2.8,0
		c3.2,0,5.9,0,6.5,0c0.1,0,2,0,4.6,0c2,0,3.7,0,4.5,0C287.2,450,289.4,450,289.9,450z"/>
	<path class="st23" d="M293.1,306.3c-19.5,6.8-63.6,16.8-99.5,2.1c-0.1-9.2,0.1-21.4,0.1-27.9l97.8,8.5
		C291.9,294.7,292.5,298.4,293.1,306.3z"/>
	<g id="XMLID_4524_">
		<path id="XMLID_4525_" class="st24" d="M287.2,265.2c-0.8-2.8-1.4-4.5-1.4-4.5l-86.3,3.5c0,0-0.3,1.8-0.8,4.8c0.4,0.6,0.8,1,0.8,1
			C238,285.7,265.9,285.8,287.2,265.2z"/>
	</g>
	<path d="M180.5,191.8l15.1,55.6l-7.7,51.9c0,0,68.3,26,111.2-2l-8.8-116.1L180.5,191.8z"/>
	<g id="XMLID_4521_">
		<g id="XMLID_4522_">
			<path id="XMLID_4523_" d="M279.6,143c9.2,3.9,22,11.6,10.7,38.3l-3.9,82.1c0,0,4.4,12.7,1.6,15.3c-21.3,20.6-49.2,20.6-87.8,4.9
				c0,0-2-2.6-2.3-3.6c-1.4-5.6,3.3-21.2,3.3-21.2l-21.6-67c0,0-21.2-28.9-7.2-39.4C194.6,135.9,243.4,127.7,279.6,143z"/>
		</g>
	</g>
	<linearGradient id="SVGID_2_" gradientUnits="userSpaceOnUse" x1="235.6954" y1="203.9127" x2="242.6859" y2="284.8036">
		<stop  offset="0" style="stop-color:#302624;stop-opacity:0.5"/>
		<stop  offset="0.9947" style="stop-color:#302624;stop-opacity:0"/>
	</linearGradient>
	<path class="st25" d="M299.1,297.3l-5.1-67.4c-9.9,11.7-17.9,25.1-23.2,39.4c-22.8-11.8-42.7-29.1-57.6-49.9
		c5.6,15,11.2,30,16.9,45.1c-14.6-17.1-37.5-63.3-52.1-80.4l17.7,63.2l-7.7,51.9C187.9,299.3,256.3,325.3,299.1,297.3z"/>
	<path class="st23" d="M254.4,133c0,0,8.5-0.4,10.1,0.6c1.5,1,5.4,12.1,6.2,13.9s-10.3,12.2-10.3,12.2s9.2,15.1,8.8,16.3
		c-0.4,1.2-16.6,67-16.6,67s-39.4-58.8-40.2-61.7c-0.8-2.9,3.8-18.1,3.8-18.1s-11.7-8.6-12.4-10.5c-0.7-1.9-2.2-13.9,0-15.4
		c1.4-0.9,9.2-2.7,9.2-2.7L254.4,133z"/>
	<path class="st20" d="M212.8,137.4L212.8,137.4c0,0,12.1,31.2,22.7,58.7c8.4,21.6,17.6-1,17.6-1l2.6-61.9c-0.6,0-1.8-0.2-2.4-0.2
		L212.8,137.4z"/>
	<linearGradient id="SVGID_3_" gradientUnits="userSpaceOnUse" x1="240.3864" y1="151.1563" x2="271.5902" y2="236.3889">
		<stop  offset="0" style="stop-color:#CFD4D8"/>
		<stop  offset="1" style="stop-color:#CFD4D8;stop-opacity:0"/>
	</linearGradient>
	<path class="st26" d="M252.8,152.9c2.4-0.6,2.5-8.2,2.5-8.2l0.5-11.5c0-0.1-0.1-0.1-0.1-0.2c-0.6,0-1.7-0.2-2.3-0.2l-37.4,4.1
		c0.1,0.4-1.4,3.6-1.1,4.4c2.2,6.4,9.2,15.6,10.6,15.8c1.6,0.3,5.8-4.5,6.4-6.1c0.9,0.8,2.3,3.1,3.2,3.9c0.5,11.2,0.1,25.8-0.1,39.4
		c6.5,16.7,12.5,32.3,15.1,39.1c0.5,0.6,0.9,1.2,1.4,1.8l1.4-33.1c-4.2-16-8.4-31.9-12.7-47.9c1.3-1.8,3.1-3.2,4.4-5
		C246.9,151.4,249.7,152.9,252.8,152.9z"/>
	<g id="XMLID_4519_">
		<g id="XMLID_4520_">
			<path class="st19" d="M244.1,139.2c-3.6,2.1-11.1,3.2-15.2,3.3c-6.1,0.2-3.6-3.4-5.6-3.9l-19.6-45.4l35.5,16l0.1,1.5L244.1,139.2
				z"/>
		</g>
	</g>
	<g id="XMLID_4515_">
		<g>
			<g id="XMLID_9_">
				<path class="st27" d="M234.4,125.1c-3.9-0.5-7.4-1.6-10.9-3.2c-3.4-1.5-6.6-3.3-9.7-5.3l-10.1-23.4l35.5,16l0.1,1.5l2.6,15
					C239.3,125.6,236.8,125.4,234.4,125.1z"/>
			</g>
		</g>
	</g>
	<path class="st28" d="M253.2,195.1l-12.6-42.7l5.5-6.2l-9.4-5.7l-7.2,6.6l6.7,5.9c0,0-1.6,19.8-0.6,43.1
		c8.4,21.6,15.9,40.9,15.9,40.9L253.2,195.1z"/>
	<g id="XMLID_4513_">
		<g id="XMLID_4514_">
			<path class="st20" d="M218.3,127.1c0,0,14.3,13.7,18,13.1c3.7-0.6,5.6-14.4,5.6-14.4s13,3.8,14.6,5.6c1.6,1.8-2.3,19.7-4,20.5
				c-3.6,1.8-14.5-10.3-16.5-8.8c-2,1.5-7.6,11.9-9.4,11.7c-1.9-0.2-16.6-14.7-15.7-20.1C211.6,129.5,218.3,127.1,218.3,127.1z"/>
		</g>
	</g>
	<path class="st19" d="M190.8,69.1c0,0-12.3-2.8-10.6,11.9c1.7,14.7,12.3,14.9,15.4,15.6c0,0,5.8,26.1,38,23.6
		c32.2-2.5,26.9-27.4,26.7-44C260.2,59.7,262,31,241,28.8C219.7,26.7,189,28.1,190.8,69.1z"/>
	<g>
		<path class="st29" d="M242.9,96.9c0.1,0.2-0.7,1-2.3,1.7c-0.8,0.3-1.8,0.6-3,0.8c-1.2,0.1-2.4,0.2-3.8,0c-1.3-0.2-2.6-0.5-3.7-1
			c-1.1-0.4-2-1-2.7-1.5c-1.4-1.1-2-2-1.8-2.2c0.2-0.3,1.2,0.3,2.6,0.8c0.7,0.3,1.6,0.6,2.6,0.9c1,0.3,2.1,0.5,3.3,0.7
			c1.2,0.1,2.3,0.2,3.3,0.1c1,0,2-0.1,2.7-0.3C241.8,96.9,242.8,96.7,242.9,96.9z"/>
	</g>
	<g>
		<path class="st27" d="M237.5,92.2c0-0.3,1-0.6,1.6-2c0.3-0.7,0.4-1.5,0.2-2.4c-0.2-1-0.7-2-1.2-3.2c-2.2-4.9-3.6-9-3.1-9.3
			c0.6-0.3,2.8,3.5,5.1,8.4c0.6,1.2,1.1,2.5,1.2,3.9c0.1,0.7,0,1.3-0.1,2c-0.2,0.6-0.4,1.1-0.7,1.6c-0.6,0.9-1.4,1.3-2,1.4
			C237.8,92.5,237.5,92.3,237.5,92.2z"/>
	</g>
	<g>
		<path class="st22" d="M228.1,66c-0.2,0.3-1.1-0.1-2.5-0.5c-1.4-0.4-3.4-0.7-5.6-0.5c-2.1,0.2-4,0.9-5.4,1.6
			c-0.7,0.3-1.2,0.6-1.6,0.8c-0.4,0.2-0.7,0.3-0.8,0.2c-0.1-0.1,0-0.4,0.2-0.8c0.3-0.4,0.7-0.9,1.3-1.5c1.3-1.1,3.4-2.2,6.1-2.5
			c2.6-0.2,4.9,0.5,6.4,1.3C227.7,65,228.3,65.8,228.1,66z"/>
	</g>
	<g>
		<path class="st22" d="M240.6,65.5c-0.2-0.2,0.3-1.2,1.5-2.2c1.2-1.1,3.4-2.2,6-2.5c2.7-0.3,5,0.5,6.4,1.3c0.7,0.4,1.3,0.8,1.6,1.2
			c0.3,0.3,0.4,0.6,0.3,0.7c-0.1,0.1-0.4,0.1-0.8,0c-0.4-0.1-1-0.3-1.7-0.5c-1.4-0.4-3.4-0.7-5.6-0.5c-2.2,0.2-4.1,0.9-5.4,1.6
			C241.6,65.2,240.8,65.7,240.6,65.5z"/>
	</g>
	<path class="st22" d="M225.1,76.5c0.1,2.4-1.7,4.4-4.1,4.5c-2.4,0.1-4.4-1.7-4.5-4.1s1.7-4.4,4.1-4.5
		C222.9,72.3,225,74.1,225.1,76.5z"/>
	<path class="st22" d="M249.7,75.4c0.1,2.4-1.7,4.4-4.1,4.5c-2.4,0.1-4.4-1.7-4.5-4.1c-0.1-2.4,1.7-4.4,4.1-4.5
		C247.6,71.2,249.6,73,249.7,75.4z"/>
	
		<linearGradient id="SVGID_4_" gradientUnits="userSpaceOnUse" x1="-1400.5433" y1="83.3956" x2="-1394.0897" y2="79.7816" gradientTransform="matrix(-1 0 0 1 -1208.3676 0)">
		<stop  offset="0" style="stop-color:#F69D7D"/>
		<stop  offset="1" style="stop-color:#F69D7D;stop-opacity:0.6"/>
	</linearGradient>
	<path class="st30" d="M184.5,75.6c-1.1,3.9,0.5,8,2,11.7c0.5,1.1,1,2.3,2,3c1,0.7,2.6,0.6,3.1-0.5c0.5-1-0.2-2.2-0.8-3.2
		c-0.6-1-0.9-2.5,0.1-3.1c0.5-0.3,1-0.3,1.5-0.5c1-0.5,1-2,0.8-3.2c-0.4-1.6-1-3.1-1.7-4.5c-0.8-1.4-2-2.8-3.6-2.8
		C186.1,72.4,184.9,74,184.5,75.6z"/>
	<g>
		<path class="st22" d="M190.8,69.1c0,0,5,3.7,6.4,11.9h3.7V66.9c0,0,11.2-3.1,7-19.6c-4.3-16.5-21-0.1-21-0.1L190.8,69.1z"/>
	</g>
	<path class="st19" d="M170,286.7c1.9-4.1,4-8.1,6.4-12c1.4,1.1,2.8,2.1,4,3.1c4.3,3.3,7.3,5.5,7.9,5.8c2.7,1.5,13.8,1.1,14.3,8.4
		c0,0,3.2,3.6,5.8,7c2.7,3.4-7.2,3.8-7.3,8.1c-0.1,4.2-7.2,2.2-8.2,6.5c-1,4.3-1.2,3.9-4.8,4c-3.6,0.1-7.1-2.6-7.7-8.6
		c0,0-7.4-0.2-9.1-6.8c-0.1-0.2-0.1-0.4-0.1-0.6C170.5,296.4,175.6,291,170,286.7z"/>
	<path class="st20" d="M163.4,285l4.3,4.5c0,0,8.9-4.9,13.5-14.8l-4.8-6L163.4,285z"/>
	<path d="M162.3,288.7c9.7-5.8,18.2-19.7,18.2-19.7l-25.9-39.5l28.7-36.8l-10.7-40.3c-17.2,14.3-55.9,66.7-57.1,80.8
		C115,238.1,162.3,288.7,162.3,288.7z"/>
	<path class="st22" d="M222.9,43.1c0,0-12,8.6-27,1.8c-15-6.8-15-16.9-15-16.9s13.1-0.5,22.1-10.4c8.9-9.9,34.9-19.9,54.5-6.3
		c19.6,13.6,13.4,33.6,1.7,36.9c-11.7,3.4-18.4-4.8-21.4-3C234.9,47.1,230.2,49,222.9,43.1z"/>
</g>
</svg>
