<svg enable-background="new 0 0 300 265" viewBox="0 0 300 265" xmlns="http://www.w3.org/2000/svg" xmlns:xlink="http://www.w3.org/1999/xlink"><defs><clipPath id="a"><path d="m41.6 176 97-56.3c-3.3-1.9-5.9-6.4-5.9-10.2l-97 56.3c0 3.7 2.7 8.3 5.9 10.2z"/></clipPath><linearGradient id="b" gradientTransform="matrix(-1 0 0 1 -18.7001 0)" gradientUnits="userSpaceOnUse" x1="-150.4122" x2="-32.9781" y1="132.4906" y2="117.7753"><stop offset="0"/><stop offset=".0991254" stop-color="#0a0800"/><stop offset=".267" stop-color="#241e00"/><stop offset=".483" stop-color="#504100"/><stop offset=".736" stop-color="#8b7100"/><stop offset=".9291" stop-color="#bd9a00"/></linearGradient><linearGradient id="c" gradientTransform="matrix(-1 0 0 1 446.5495 0)" gradientUnits="userSpaceOnUse" x1="303.0486" x2="343.738" y1="55.4151" y2="160.3117"><stop offset=".070884" stop-color="#bd9a00"/><stop offset=".264" stop-color="#8b7100"/><stop offset=".517" stop-color="#504100"/><stop offset=".733" stop-color="#241e00"/><stop offset=".9009" stop-color="#0a0800"/><stop offset="1"/></linearGradient><clipPath id="d"><use xlink:href="#p"/></clipPath><clipPath id="e"><use xlink:href="#q"/></clipPath><clipPath id="f"><use xlink:href="#r"/></clipPath><clipPath id="g"><use xlink:href="#s"/></clipPath><clipPath id="h"><use xlink:href="#t"/></clipPath><clipPath id="i"><use xlink:href="#u"/></clipPath><clipPath id="j"><use xlink:href="#v"/></clipPath><clipPath id="k"><use xlink:href="#w"/></clipPath><clipPath id="l"><path d="m253.4 133.5.1.1c.1.1.1.1.1.2l-.1-.1c0-.1 0-.1-.1-.2z"/></clipPath><clipPath id="m"><path d="m253.5 131.3.1.1s-.1-.1-.1-.1l-.1-.1s.1.1.1.1z"/></clipPath><clipPath id="n"><path d="m251.4 131.6-.1-.1c.2.2.5.6 1.1.5h.1c.5-.1.8-.7.8-.8l.1.1c0 .2-.3.7-.8.8h-.1c-.5.1-.9-.3-1.1-.5z"/></clipPath><clipPath id="o"><path d="m251.7 134.7-.1-.1c-.3-.3-.5-.8-.5-1.4-.1-.6 0-1.4.3-1.8l.1.1c-.2.4-.3 1.2-.3 1.8s.2 1.1.5 1.4z"/></clipPath><path id="p" d="m127.7 184.3.1 2c0 1.6 1 3.2 3.1 4.4 4.2 2.4 11 2.4 15.3 0 2.1-1.2 3.2-2.8 3.2-4.5l-.1-2c0 1.6-1.1 3.2-3.2 4.5-4.2 2.4-11.1 2.4-15.3 0-2.1-1.3-3.1-2.8-3.1-4.4z"/><path id="q" d="m133.2 182.3v1.5c0 .8.5 1.6 1.5 2.1 2.1 1.2 5.4 1.2 7.5 0 1-.6 1.6-1.4 1.6-2.2v-1.5c0 .8-.5 1.6-1.6 2.2-2.1 1.2-5.4 1.2-7.5 0-1-.5-1.5-1.3-1.5-2.1z"/><path id="r" d="m131.8 158.2.1 2c0 1 .7 2 2 2.8 2.7 1.5 7 1.5 9.7 0 1.3-.8 2-1.8 2-2.8l-.1-2c0 1-.7 2-2 2.8-2.7 1.5-7 1.5-9.7 0-1.4-.8-2-1.8-2-2.8z"/><path id="s" d="m135.6 151.4v7.5c0 .4.3.9.9 1.2 1.2.7 3.1.7 4.3 0 .6-.3.9-.8.9-1.2v-7.5c0 .4-.3.9-.9 1.2-1.2.7-3.1.7-4.3 0-.6-.3-.9-.8-.9-1.2z"/><path id="t" d="m134.3 143.5-.6.3h.1l.6-.3s0 0-.1 0z"/><path id="u" d="m135.7 148.9.6-.3s.1-.1.1-.1l-.6.3c-.1 0-.1 0-.1.1z"/><path id="v" d="m135.7 145.1.6-.3c0-.1-.1-.3-.2-.3l-.6.3c.1.1.2.2.2.3z"/><path id="w" d="m257 155.2v3.2c0 .3-.2.5-.5.7-.7.4-1.8.4-2.4 0-.3-.2-.5-.5-.5-.7v-3.2c0 .3.2.5.5.7.7.4 1.8.4 2.4 0 .3-.2.5-.4.5-.7z"/></defs><path d="m149.4 4.4v108.8l131.3 75.9v-108.8z" fill="#336469"/><path d="m280.7 189.1 2.8-1.6v-108.8l-2.8 1.6z" fill="#274f54"/><path d="m283.5 78.7-2.8 1.6-134.4-77.7 2.8-1.6z" fill="#4b8990"/><path d="m17.6 189.1 131.8-75.9v-108.8l-131.8 75.9z" fill="#e5e7ec"/><path d="m14.5 187.3 3.1 1.8v-108.8l-3.1-1.8z" fill="#d9d9d9"/><path d="m146.3 2.6 3.1 1.8-131.8 75.9-3.1-1.8z" fill="#f7f7f7"/><path d="m280.7 185.7-131.8 75.9-52.9-30.6-1.1-.6-2.1-1.3-11.4-6.6-1.1-.6-2.1-1.2-1.6-1 86.3-49.7.6-.3 27.2-15.7 2.2-1.3 14.1-8.1.5-.3.8-.5z" fill="#4a4a4a"/><path d="m17.6 185.7 59 34 131.7-75.9-58.9-34-89.6 51.7-.5.3z" fill="#fff"/><path d="m17.6 185.7v3.4l131.3 75.9v-3.4z" fill="#2e2e2e"/><path d="m280.7 185.6v3.5l-131.8 75.9v-3.4z" fill="#1a1a1a"/><g enable-background="new"><g clip-path="url(#a)" enable-background="new"><path d="m41.6 176 97-56.3c-3.3-1.9-5.9-6.4-5.9-10.2l-97 56.3c0 3.7 2.7 8.3 5.9 10.2z" fill="#62aa18"/></g><path d="m91 204.5 97-56.4-49.4-28.5-97 56.4z" fill="#67b019"/><path d="m91 205.9 96.9-56.3.1-1.5-97 56.4z" fill="#4d8513"/><path d="m35.7 165.8 97-56.3.2-84.3-97 56.3z" fill="#4d8513"/><path d="m35.9 81.5 97-56.3-1.2-.7-97 56.3z" fill="#67b019"/><path d="m34.7 80.8-.2 84.3c0 4.5 3.2 10 7.1 12.3l49.4 28.5v-1.4l-49.4-28.5c-3.3-1.9-5.9-6.4-5.9-10.2l.2-84.3z" fill="#6dba1a"/></g><path d="m127.3 199.2c.1-.1.1-.2.2-.2 0 0-.1.1-.2.2z" fill="#ffc89f"/><path d="m127 199.7c0-.1.1-.1.1-.2 0 .1 0 .2-.1.2z" fill="#ffc89f"/><path d="m136.5 139h.2c-.1.1-.2 0-.2 0z" fill="#1a1a1a"/><path d="m135.9 138.9c.1 0 .2.1.3.1-.1 0-.2-.1-.3-.1z" fill="#1a1a1a"/><path d="m136.1 136.3v-.5.5c-.1 0-.1 0 0 0z" fill="#1a1a1a"/><path d="m136.9 139.1h.2.1c-.2 0-.3 0-.3 0z" fill="#1a1a1a"/><path d="m135.5 136.1.6-5.4z" fill="#1a1a1a"/><path d="m135.1 143.7 1.7-3.6z" fill="#1a1a1a"/><path d="m134.9 141.2.2-2.2z" fill="#1a1a1a"/><path d="m138.1 139c-.1 0-.1 0-.2 0z" fill="#1a1a1a"/><path d="m273 84-28.3-16.4v16.1l28.3 16.4z" fill="#1a1c1f"/><path d="m245.8 69.5v13.5l26.1 15.2v-13.5z" fill="#d9e1ed"/><path d="m247.5 70.5v11.8l24.4 14.2v1.7l-26.1-15.2v-13.5z" fill="#24272b"/><path d="m247.5 82.3-1.7.7 26.1 15.2v-1.7z" fill="#323a44"/><path d="m229.2 58.7-28.3-16.4v16.1l28.3 16.4z" fill="#1a1c1f"/><path d="m202 44.2v13.5l26 15.2v-13.5z" fill="#d9e1ed"/><path d="m203.7 45.2v11.8l24.3 14.2v1.7l-26-15.2v-13.5z" fill="#24272b"/><path d="m203.7 57-1.7.7 26 15.2v-1.7z" fill="#323a44"/><path d="m186.3 33.9-28.3-16.4v16.1l28.3 16.4z" fill="#1a1c1f"/><path d="m159.1 19.4v13.5l26 15.2v-13.5z" fill="#d9e1ed"/><path d="m160.8 20.4v11.8l24.3 14.2v1.7l-26-15.2v-13.5z" fill="#24272b"/><path d="m160.8 32.2-1.7.7 26 15.2v-1.7z" fill="#323a44"/><path d="m36 197.1c-2 2.8-4 4.1-5.9 3.8-1-.1-1.9-.7-2.6-1.7-.7-1.2-1-2.6-.6-3.9.6-2.2 2.8-4 5.5-4.5.6-.1 1.2-.2 1.9-.2 1.1 0 2.3.2 3.3.6.1.3.2.6.2.9.3 1.8-.7 3.5-1.8 5zm42.5-23.9c-2.5-.3-5.4-.5-7.9.6-2.8 1.2-4.8 3.6-6.6 5.8l-6.7 8.3c-1.7 2.1-3.6 3.7-6 5.1-2 1.2-5 2.7-7.6 1.3-.7-.4-1.2-.9-1.8-1.4-.4-.3-.7-.6-1.1-.9-.8-.6-1.6-1-2.5-1.3-.4-.8-1.1-1.6-1.9-2.2-1.7-1.1-4.1-1.4-6-.7-1.1.4-2 1-3 1.5-.6.3-1.2.7-1.8 1-1 .5-3 1.3-4.7.5-.9-4.1 3.2-7.6 5-8.9 2.2-1.6 4.6-3 7-4.4 4.2-2.4 8.5-4.9 11.7-8.7 2.1-2.5 3.6-5.4 4.8-7.9 1.6-3.3 3.3-7.3 4.7-11.7 1.9-6.2 2.9-13.2 1.3-20-.3-1.4-.8-3-1.9-4.2-.5-.6-1.2-1.1-2-1.4v.7c.6.3 1.1.6 1.5 1.1 1 1.1 1.4 2.6 1.7 3.9 1.5 6.6.6 13.4-1.2 19.5-1.3 4.4-3.1 8.4-4.7 11.8-1.2 2.5-2.6 5.4-4.7 7.8-3.1 3.7-7.4 6.1-11.5 8.5-2.4 1.4-4.8 2.8-7.1 4.4-1.9 1.4-6.4 5.2-5.3 9.8v.1l.1.1c2 1 4.2.2 5.4-.4.6-.3 1.2-.7 1.8-1 .9-.6 1.9-1.1 2.9-1.5 1.7-.6 3.8-.3 5.4.7.6.4 1 .8 1.4 1.3-1.6-.5-3.3-.5-4.9-.2-3 .6-5.3 2.5-6 5-.4 1.4-.2 3.1.7 4.4.7 1.1 1.8 1.9 3 2h.6c2 0 4-1.4 6-4.2 1.1-1.6 2.2-3.4 2-5.4 0-.2-.1-.4-.1-.6.6.3 1.2.6 1.8 1 .4.3.7.6 1.1.9.6.5 1.2 1 2 1.4 2.8 1.6 6 0 8.2-1.3 2.5-1.5 4.5-3.2 6.2-5.3l6.7-8.3c1.7-2.1 3.7-4.5 6.3-5.6 2.4-1 5.2-.8 7.6-.5 1.6.2 3.6.5 5.7 1.1l.8-.5c-2.4-.5-4.7-.8-6.4-1.1z" fill="#1a2225"/><path d="m72.8 127.5 33 44.7 43.9-26.9-14.8-55.4-83-6.1 20.8 13.2z" fill="url(#b)"/><path d="m38.1 172.4v1.5l10.1 5.9v-1.5z" fill="#272727"/><path d="m46.6 176.8v.6l-8.5-5 1.1-.6 8.5 5z" fill="#2c2c2c"/><path d="m48.9 161.9-11.3 12.7 3-2.4 8.9-10.3z" fill="#1a1a1a"/><path d="m48.9 161.9-11.3 12.7-1.1-1 11.6-13.2z" fill="#333"/><path d="m50 178.5 12.7-2v.2h.7v1.2l-13.4 2.1z" fill="#212121"/><path d="m50 177.6 12.7-1.9v.8l-12.7 2z" fill="#2c2c2c"/><path d="m48.5 161.2 15.1 17.1-2.9-2.5-12.9-14.6z" fill="#1a1a1a"/><path d="m48.5 161.2 15.1 17.1 1.2-1.1-15.5-17.5z" fill="#333"/><g enable-background="new"><path d="m45.8 186.8v1.5l3.9-8.2v-1.5z" fill="#1a1a1a"/><path d="m44.4 186.5v1.5l1.4.3v-1.5z" fill="#262626"/><path d="m48.9 180.3-3.1 6.5-1.4-.3 2.9-6.2z" fill="#2c2c2c"/></g><g enable-background="new"><g enable-background="new"><path d="m46.2 178.1v.6.2-.6c0-.1 0-.1 0-.2z" fill="#aaa"/><path d="m46.2 178.3v.6c0 .2.2.4.4.7v-.6c-.3-.3-.4-.5-.4-.7z" fill="#d4d4d4"/><path d="m46.5 178.9v.6c.1.1.3.2.5.4.5.3 1.2.5 1.8.5v-.6c-.7 0-1.3-.2-1.8-.5-.2-.1-.3-.2-.5-.4z" fill="#ebebeb"/><path d="m48.8 179.8v.6c.4 0 .8 0 1.1-.1v-.6c-.3.1-.7.1-1.1.1z" fill="#d4d4d4"/><path d="m50 179.7v.6c.4-.1.8-.2 1.1-.4.6-.3.9-.8.9-1.2v-.6c0 .4-.3.9-.9 1.2-.3.2-.7.3-1.1.4z" fill="#aaa"/></g><path d="m47 176.9c-1.1.7-1.1 1.7 0 2.4s3 .7 4.1 0 1.1-1.7 0-2.4c-1.1-.6-2.9-.6-4.1 0z" fill="#a3a3a3"/></g><g enable-background="new"><g enable-background="new" fill="#1a1a1a"><path d="m47.7 116.3v62.1.1z"/><path d="m47.7 116.4v62.1c0 .1.1.2.2.3v-62.1c-.1-.1-.1-.2-.2-.3z"/><path d="m47.9 116.6v62.1l.2.2c.2.1.5.2.8.2v-62.1c-.3 0-.6-.1-.8-.2-.1 0-.1-.1-.2-.2z"/><path d="m49 117v62.1h.5v-62.1c-.2 0-.4 0-.5 0z"/><path d="m49.5 117v62.1c.2 0 .4-.1.5-.2.3-.1.4-.3.4-.5v-62.1c0 .2-.1.4-.4.5-.2.1-.3.2-.5.2z"/></g><path d="m48.1 115.7c-.5.3-.5.8 0 1.1s1.3.3 1.9 0c.5-.3.5-.8 0-1.1s-1.4-.3-1.9 0z" fill="#333"/></g><g enable-background="new"><path d="m59 128.9-15-9.5-.1-24.4 15.1 9.6z" fill="#1a1a1a"/><path d="m59 104.6-15.1-9.6 8-11.2 20.8 13.2z" fill="#808080"/><path d="m72.7 97 .1 30.5-13.8 1.4v-24.3z" fill="#2e2e2e"/></g><g enable-background="new"><path d="m49.3 127.8-9.3-5.9-.1-18.1 9.3 5.9z" fill="#1a1a1a"/><path d="m49.2 109.7-9.3-5.9 4.9-6.9 12.9 8.1z" fill="#808080"/><path d="m57.7 105v22l-8.4.8-.1-18.1z" fill="#2e2e2e"/></g><path d="m49 159.6-3.3 29.4 1-3.7 2.3-19.4z" fill="#333"/><path d="m48.8 161.4-3.1 27.7-1.6-.2 3.7-31.8z" fill="#1a1a1a"/><path d="m165.8 78.4c1.9.4 3.7-1.2 3.8-2.3.1-1.6-.1-2.1-1.6-2.5-3.5-1-8.6-1.4-12.5-1.5-1.1 0-1.4.2-1.6 2.1-.3 1.4 10.7 3.9 11.9 4.2z" fill="#d13a3a"/><path d="m178.8 71.5c1.6-1.1 1.4-3.7.5-4.7-1.2-1.3-3.6-.8-5 .1-3.5 2.4-5.7 4.3-8.5 7.1-2.7 3.4-1.5 1.8-.7 3.8 1.3 3 12.7-5.6 13.7-6.3z" fill="#d13a3a"/><g enable-background="new"><path d="m159.4 133.4v1.5l3.8-8.2v-1.5z" fill="#1a1a1a"/><path d="m158 133.2v1.5l1.4.2v-1.5z" fill="#262626"/><path d="m162.4 127-3 6.4-1.4-.2 2.9-6.2z" fill="#2c2c2c"/></g><g enable-background="new"><g enable-background="new"><path d="m159.7 124.7v.6.2-.6s0-.1 0-.2z" fill="#aaa"/><path d="m159.7 124.9v.6c0 .2.2.4.4.7v-.6c-.2-.2-.3-.5-.4-.7z" fill="#d4d4d4"/><path d="m160.1 125.6v.6c.1.1.3.2.5.4.5.3 1.2.5 1.8.5v-.6c-.7 0-1.3-.2-1.8-.5-.2-.2-.4-.3-.5-.4z" fill="#ebebeb"/><path d="m162.4 126.4v.6c.4 0 .8 0 1.1-.1v-.6c-.3.1-.7.1-1.1.1z" fill="#d4d4d4"/><path d="m163.5 126.3v.6c.4-.1.8-.2 1.1-.4.6-.3.9-.8.9-1.2v-.6c0 .4-.3.9-.9 1.2-.3.2-.6.3-1.1.4z" fill="#aaa"/></g><path d="m160.6 123.5c-1.1.7-1.1 1.7 0 2.4s3 .7 4.1 0 1.1-1.7 0-2.4c-1.2-.6-3-.6-4.1 0z" fill="#a3a3a3"/></g><g enable-background="new"><g enable-background="new" fill="#1a1a1a"><path d="m161.3 62.8v62.1.1-62.2c0 .1 0 .1 0 0z"/><path d="m161.3 62.9v62.1c0 .1.1.2.2.3v-62.1c-.1-.1-.2-.2-.2-.3z"/><path d="m161.5 63.2v62.1l.2.2c.2.1.5.2.8.2v-62.1c-.3 0-.6-.1-.8-.2-.1-.1-.2-.1-.2-.2z"/><path d="m162.5 63.6v62.1h.5v-62.1c-.1 0-.3 0-.5 0z"/><path d="m163 63.6v62.1c.2 0 .4-.1.5-.2.3-.2.4-.3.4-.5v-62.1c0 .2-.1.4-.4.5-.1.1-.3.1-.5.2z"/></g><path d="m161.7 62.3c-.5.3-.5.8 0 1.1s1.3.3 1.9 0c.5-.3.5-.8 0-1.1-.6-.3-1.4-.3-1.9 0z" fill="#333"/></g><path d="m166.7 57.1v8.3l-7.3-4.4v-8.3z" fill="#1a1a1a"/><path d="m164.5 49.8-5.1 2.9 7.3 4.4 5-2.9z" fill="#4d4d4d"/><path d="m166.7 57.1v8.3l5-2.9v-8.3z" fill="#2e2e2e"/><g enable-background="new"><path d="m166.7 76.6-14.5-9.1-.1-15.7 14.5 9.2z" fill="#1a1a1a"/><path d="m166.6 61-14.5-9.2 7.3-1 11.6 7.2z" fill="#666"/><path d="m171 58 .1 9.4-4.4 9.2-.1-15.6z" fill="#1a1a1a"/></g><g enable-background="new"><path d="m160.6 89.1-21.6-13.7-.1-23.3 21.6 13.7z" fill="#1a1a1a"/><path d="m139.8 53.9 19.8 12.5-19.7 8.4z" fill="#e6e6e6"/><path d="m159.6 66.4v20.9l-19.7-12.5z" fill="#fff"/><path d="m159.6 66.4-10.7-6.8.1 11.3 10.6 6.7z" fill="#ccc"/><path d="m160.5 65.8-21.6-13.7 14.1-.7 15.1 9.5z" fill="#808080"/><path d="m168.1 60.9.1 16.3-7.6 11.9-.1-23.3z" fill="#2e2e2e"/></g><path d="m151.6 119.1.1 1.5 10.1 5.9v-1.5z" fill="#272727"/><path d="m160.1 123.4v.6l-8.5-4.9 1.1-.6 8.5 4.9z" fill="#2c2c2c"/><path d="m162.4 108.5-11.2 12.7 2.9-2.4 9-10.3z" fill="#1a1a1a"/><path d="m162.4 108.5-11.2 12.7-1.2-1 11.6-13.2z" fill="#333"/><path d="m163.6 125.1 12.6-1.9v.1h.8v1.2l-13.4 2.1z" fill="#212121"/><path d="m163.6 124.2 12.6-1.9v.9l-12.6 1.9z" fill="#2c2c2c"/><path d="m162 107.8 15.2 17.1-3-2.5-12.8-14.6z" fill="#1a1a1a"/><path d="m162 107.8 15.2 17.1 1.1-1-15.5-17.6z" fill="#333"/><path d="m162.5 106.2-3.3 29.5 1-3.7 2.3-19.5z" fill="#333"/><path d="m162.3 108-3.1 27.7-1.5-.2 3.6-31.8z" fill="#1a1a1a"/><g enable-background="new"><path d="m159.4 133.4v1.5l3.8-8.2v-1.5z" fill="#1a1a1a"/><path d="m158 133.2v1.5l1.4.2v-1.5z" fill="#262626"/><path d="m162.4 127-3 6.4-1.4-.2 2.9-6.2z" fill="#2c2c2c"/></g><g enable-background="new"><g enable-background="new"><path d="m159.7 124.7v.6.2-.6s0-.1 0-.2z" fill="#aaa"/><path d="m159.7 124.9v.6c0 .2.2.4.4.7v-.6c-.2-.2-.3-.5-.4-.7z" fill="#d4d4d4"/><path d="m160.1 125.6v.6c.1.1.3.2.5.4.5.3 1.2.5 1.8.5v-.6c-.7 0-1.3-.2-1.8-.5-.2-.2-.4-.3-.5-.4z" fill="#ebebeb"/><path d="m162.4 126.4v.6c.4 0 .8 0 1.1-.1v-.6c-.3.1-.7.1-1.1.1z" fill="#d4d4d4"/><path d="m163.5 126.3v.6c.4-.1.8-.2 1.1-.4.6-.3.9-.8.9-1.2v-.6c0 .4-.3.9-.9 1.2-.3.2-.6.3-1.1.4z" fill="#aaa"/></g><path d="m160.6 123.5c-1.1.7-1.1 1.7 0 2.4s3 .7 4.1 0 1.1-1.7 0-2.4c-1.2-.6-3-.6-4.1 0z" fill="#a3a3a3"/></g><g enable-background="new"><g enable-background="new" fill="#1a1a1a"><path d="m161.3 62.8v62.1.1-62.2c0 .1 0 .1 0 0z"/><path d="m161.3 62.9v62.1c0 .1.1.2.2.3v-62.1c-.1-.1-.2-.2-.2-.3z"/><path d="m161.5 63.2v62.1l.2.2c.2.1.5.2.8.2v-62.1c-.3 0-.6-.1-.8-.2-.1-.1-.2-.1-.2-.2z"/><path d="m162.5 63.6v62.1h.5v-62.1c-.1 0-.3 0-.5 0z"/><path d="m163 63.6v62.1c.2 0 .4-.1.5-.2.3-.2.4-.3.4-.5v-62.1c0 .2-.1.4-.4.5-.1.1-.3.1-.5.2z"/></g><path d="m161.7 62.3c-.5.3-.5.8 0 1.1s1.3.3 1.9 0c.5-.3.5-.8 0-1.1-.6-.3-1.4-.3-1.9 0z" fill="#333"/></g><g enable-background="new"><path d="m166.7 76.6-14.5-18.4-.1-15.7 14.5 9.2z" fill="#1a1a1a"/><path d="m166.6 51.7-14.5-9.2 7.3-1 11.6 7.3z" fill="#666"/><path d="m171 48.8.1 18.6-4.4 9.2-.1-24.9z" fill="#1a1a1a"/></g><g enable-background="new"><path d="m160.6 89.1-21.6-13.7-.1-32.6 21.6 13.7z" fill="#1a1a1a"/><path d="m139.8 44.6 19.8 12.5-10.6 13.8-9.1 3.9z" fill="#e6e6e6"/><path d="m159.6 57.1v30.2l-19.7-12.5 9.1-3.9z" fill="#fff"/><path d="m159.6 57.1-10.7-6.8.1 20.6 10.6 6.7z" fill="#ccc"/><path d="m160.5 56.5-21.6-13.7 14.1-.7 15.1 9.5z" fill="#808080"/><path d="m168.1 51.6.1 25.6-7.6 11.9-.1-32.6z" fill="#2e2e2e"/></g><path d="m151.6 119.1.1 1.5 10.1 5.9v-1.5z" fill="#272727"/><path d="m160.1 123.4v.6l-8.5-4.9 1.1-.6 8.5 4.9z" fill="#2c2c2c"/><path d="m162.4 108.5-11.2 12.7 2.9-2.4 9-10.3z" fill="#1a1a1a"/><path d="m162.4 108.5-11.2 12.7-1.2-1 11.6-13.2z" fill="#333"/><path d="m163.6 125.1 12.6-1.9v.1h.8v1.2l-13.4 2.1z" fill="#212121"/><path d="m163.6 124.2 12.6-1.9v.9l-12.6 1.9z" fill="#2c2c2c"/><path d="m162 107.8 15.2 17.1-3-2.5-12.8-14.6z" fill="#1a1a1a"/><path d="m162 107.8 15.2 17.1 1.1-1-15.5-17.6z" fill="#333"/><path d="m162.5 106.2-3.3 29.5 1-3.7 2.3-19.5z" fill="#333"/><path d="m162.3 108-3.1 27.7-1.5-.2 3.6-31.8z" fill="#1a1a1a"/><path d="m159.6 57.1-.1 32.2-23.8 91.3-67.5-36.1 71.6-99.9z" fill="url(#c)"/><path d="m194.8 126.4-5 .1c0 .8.5 1.8.6 3.2.1 1.9-.4 4.2 1.1 5.1.5.3 1.1.3 1.7.1 1.4-.5 2.9-2.7 2.5-5.1-.4-1.7-.9-2.5-.9-3.4z" fill="#141414"/><path d="m171.9 134.7c.9.8 4 .9 5.6-.8.2-.2.3-.5.9-1 .4-.3.8-.3 1.1-.3.7 0 2.1-.5 2.1-1.6 0-.9-.2-1.6-.5-2.1-.7-1.3-2.1-1.4-3.1-1-2.2 2.3-8.1 5-6.1 6.8z" fill="#141414"/><path d="m175.6 129.8c.7.4 1.7.5 2.5.6.9.1 2 .2 2.9-.1 1.3-.4 1.2-2.1 1.5-3.2.3-1.6.5-3.2.7-4.8.2-1.9.5-3.8.4-5.6-.1-2.6-.8-5.2-.8-7.9 0-1.1.1-2.2.2-3.3.2-1.6.1-5 .3-6.5.2-1.3.3-2.7.3-4 0-.5 0-.9-.1-1.4s-.3-1.6-.9-1.6c-.3 0-.7.2-1 .3-.9.3-1.9.6-2.8.9-1.3.4-2.8 1.1-4.1 1.5-.5 8.2.8 13.7.7 18.3-.1 4.8-.5 16.4.2 16.8z" fill="#024670"/><path d="m182.8 108.7c0-1.1.1-2.2.2-3.3.2-1.6.1-5 .3-6.5.2-1.3.3-2.7.3-4 0-.5 0-.9-.1-1.4s-.3-1.6-.9-1.6c-.3 0-.7.2-1 .3-.9.3-1.9.6-2.8.9-1.3.4-2.8 1.1-4.1 1.5-.1 1.1-.1 2.2-.1 3.2 2.9 2 6.2 3.8 6.6 7.7.2 1.6-.1 3.2.3 4.8.5 2.5 1.4 4.8.8 7.3-.7 3.3-.2 6.4-.7 9.6-.2 1.2-.7 2.2-1.3 3.2.3 0 .5-.1.7-.1 1.3-.4 1.2-2.1 1.5-3.2.3-1.6.5-3.2.7-4.8.2-1.9.5-3.8.4-5.6-.1-2.8-.8-5.4-.8-8z" fill="#023150"/><path d="m180.6 93.8c0 .4.2.7.3 1.1.1.7-4.2.8-4.2 1.5.1.9 3.1 2.6 5.4 6.5 1.5 2.5 2.3 7.5 2.8 8.5 1.4 3.5 2.7 7.1 3.4 10.9.2 1.1.4 2.2.6 3.4.1.7.2 1.3.4 1.9.3.6.7 1.1 1.4 1.4.4.1.8.1 1.1.1 1.2 0 2.5-.1 3.5-.8 1-.6.9-2.4.9-3.3-.1-3.9-.5-8-2.3-11.5-.4-.8-.9-1.5-1.2-2.3-1.2-3-.2-6.4-.4-9.6-.1-1.3-.4-5.6-1.7-6.4-.5-.3-1.3-.2-1.8-.3-.7-.1-1.4-.2-2.1-.3-1.1-.1-2.2-.3-3.4-.4-.8-.2-1.9-.6-2.7-.4z" fill="#085785"/><path d="m196.2 124.9c-.1-3.9-.5-8-2.3-11.5-.4-.8-.9-1.5-1.2-2.3-1.2-3-.2-6.4-.4-9.6-.1-1.3-.4-5.6-1.7-6.4-.5-.3-1.3-.2-1.8-.3-.7-.1-1.4-.2-2.1-.3-1.1-.1-2.2-.3-3.4-.4-.8-.1-1.9-.4-2.7-.3h-.1c.1.4.3.7.4 1.1.1.7-4.2.8-4.2 1.5 0 .5 1 1.3 2.3 2.6 1.6.6 2.6.7 3.9.6 2.5-.3 4.8-1.6 7.2-1.1 1.5.4 1.5 2 1.4 3.4-.2 3.3-1.3 6.8.5 9.9 1.2 2.1 2.8 4 2.9 6.4.2 3.3.5 6.8.2 10.2.1 0 .1-.1.2-.1.9-.7.9-2.4.9-3.4z" fill="#024670"/><path d="m190 85.6c3.2-11.9 3.4-13.8 3.3-14 0-.1.2-1.6-2.6-2.9-.3-.1-.6-.3-1-.5-1-.5-2.4-1.2-4.2-1.9-.6-.3-4.4-.8-7.1-.5-.3 0-.6.1-.9.2-.8.2-1.7.1-1.9.6-1.4 2.7-.6 9.2-.5 12.7 0 2.1-.6 11.3-.7 16.8 1.1 1.5 3.7 2.1 5.5 2.5 3.9.6 8-1 11.3-3-.4-3.4-1.6-8.5-1.2-10z" fill="#eb4e4e"/><path d="m190 85.6c2.2-8.1 3-11.6 3.2-13-.1.1-.1.1-.2.2-3.9 3.5-9.2 4-13.7 6-1 .5-2.2.5-3.4.9-.2.1-.5.2-.8.3 0 .4 0 1-.1 1.7 3.6 2.1 8.4-1 12-2.8 1-.6 2.2-2.1 2.9-1.7 1.3.7-.6 2.6-.7 4.1-.6 4-.7 7.8-.7 11.9 0 .9-.3 2-1 2.7-.6.6-1 1.3-1.3 2 1.8-.6 3.5-1.4 5-2.3-.4-3.4-1.6-8.5-1.2-10z" fill="#d13a3a"/><path d="m184.5 68.3c1.2-.3 2.2-1.1 1.9-2-.7-1.7-.3-4.7-.3-4.7l-4.6.3c-.2 0-.7 3.7-.7 5s2.3 1.7 3.7 1.4z" fill="#f5c2a6"/><path d="m179.4 66.8c.4.6 1.3.6 2.1.5 1-.1 2.4-.9 3.1-1.5s2.4-2.9 2.7-3.9c0-.2-.2-.4-.2-.6.4-2.7-2.3-3.4-4.2-4.8-2-1.5-4.5-1.1-4.7 2.1-.2 3.1 0 6.5 1.2 8.2z" fill="#ffd6bf"/><path d="m178.2 59.1c.2 0-.2-2.1 2.4-1.6 1.5.2 2.8.4 3.2 1 .4.5.1.8 0 1.7-.2 2.1.8 3.1 1.9 3.1.7 0 1.6-.3 2.1-1.2.4-.8.8-1.6 1-2.5 1.1-4.1-2.3-4.9-2.3-4.9s-2-2.4-5.6-1.1c-3.7 1.3-3 5.5-2.7 5.5z" fill="#2b0d04"/><path d="m189.1 57.6c-1.8 0-4.1-.4-5.2.9.3.5.1.8 0 1.7-.2 1.9.6 2.9 1.6 3.1 0 .1.1.1.1.2.1.2.1.5.3.6.3.3.8-.4 1-.6s.3-.4.5-.6c.1-.1.2-.3.3-.4s.2-.2.3-.4c.4-.8.8-1.6 1-2.5.1-.8.1-1.5.1-2z" fill="#eeb04a"/><path d="m186.6 54.7s-2-2.4-5.6-1.1c-3.8 1.3-3.1 5.4-2.8 5.4.2 0-.2-2.1 2.4-1.6 1.5.2 2.8.4 3.2 1 1.1-1.3 3.4-.9 5.2-.9-.2-2.3-2.4-2.8-2.4-2.8z" fill="#eeb04a"/><path d="m185 63.8c.4.3 1.1 0 1.6-.6s.6-1.4.2-1.7-1.1 0-1.6.6c-.5.7-.6 1.4-.2 1.7z" fill="#ffd6bf"/><path d="m185.5 63.2c.2.1.5 0 .8-.3.2-.3.3-.7.1-.8s-.5 0-.8.3-.3.7-.1.8z" fill="#f5c2a6"/><path d="m191.3 75.2c2-.9 2.4-3.6 1.7-4.7-1-1.5-3.5-1.3-5.2-.5-4.2 2-7 3.7-10.7 6.2-3.6 3.2-2 1.7-1.7 3.9.6 3 14.6-4.3 15.9-4.9z" fill="#f97d7d"/><path d="m164.1 73.1c-.4-.5-1.1-.9-1.8-1.1s-1.4-.4-2-.4c-.1 0-.2 0-.2 0-.1.1-.1.2 0 .2.1.2.2.3.4.4s.3.1.5.2c.6.2 1.2.7 1.7 1.1.4.3 1 .9 1.6.8.6-.2.1-.9-.2-1.2z" fill="#ffc6a6"/><path d="m164.5 73.7c-.2-.2-.3-.5-.6-.6-.2-.1-.4-.2-.6-.3-1.2-.4-2.5-.7-3.8-.9-.1 0-.3 0-.4 0-.1.1-.1.3 0 .4s.2.2.3.4c-.2-.1-.3-.2-.5-.2s-.4 0-.4.2c-.1.1-.1.3 0 .5.1.1.2.3.3.4-.1 0-.2 0-.3 0s-.2.1-.2.2v.2c.2.4.5.6.9.8-.1 0-.2.1-.2.2s0 .2.1.3c.3.5.8.9 1.4 1 .6.2 1.2.2 1.7.2.6 0 1.2 0 1.8.1.2 0 .4.1.5-.1.1-.1.1-.1.1-.2.1-.2.1-.4.2-.6.1-.4.3-.8.1-1.2 0-.2-.2-.5-.4-.8z" fill="#ffd6bf"/><path d="m176 80.7c1.9.4 3.7-1.2 3.8-2.3.1-1.6-1.5-2.2-3.1-2.7-3.5-1-7.2-1.3-11.1-1.4-1.1 0-1.4.2-1.6 2.1-.1 1.4 10.8 4 12 4.3z" fill="#f97d7d"/><ellipse cx="182.9" cy="132.7" fill="#a6c1e8" opacity=".3" rx="16.3" ry="9.4"/><path d="m98.7 149.6c0 .4 0 .8-.2 1.3-.1.4-.3.8-.7 1-.5.3-1.2.2-1.8.1-.7-.1-1.5-.4-2.1-.8-.2-.2-.5-.3-.6-.6-.1-.2-.2-.4-.2-.7 0-.7.2-1.4.5-2.1.3-.6.8-1.2 1.3-1.7.8-1 1.6-1.9 2.4-2.9-.1.1.7.1.7.1.3 0 .5.1.8.3.4.4.4.8.3 1.3-.2 1.6-.3 3.2-.4 4.7z" fill="#1c1c1c"/><path d="m128 82.6c-.8-.4-1.8-.4-2.6.1-.1.1-.2.1-.3.2s-.1.3-.1.4c-.1 1.1-.2 2.2-.2 3.3 0 .2 0 .4.1.6.1.3.4.5.7.7.4.2.7.4 1.1.5s.9 0 1.2-.3c.2-.2.4-.4.5-.7.3-.5.6-1.1.9-1.6.2-.4.7-1 .7-1.4s-.5-.8-.8-1c-.3-.3-.9-.8-1.2-.8z" fill="#1c1c1c"/><path d="m131.7 85c.2 0 .5-.1.6-.3 0-.2-.1-.3-.3-.4-.3-.2-.5-.3-.8-.3-.3-.1-.6 0-.9-.1 0 0 0 0-.1 0 0 0 0 0 0-.1s0-.1 0-.2c0 0 .1-.1.1-.1.1-.1.3-.1.5-.1h.6c.3 0 .7-.1.8-.4.1-.2-.1-.5-.3-.6s-.4-.1-.7-.1c-.4 0-.9 0-1.3 0 .2.1.6.1.8-.1s.3-.4.4-.7c0-.1 0-.2 0-.2-.1-.2-.4-.2-.7-.2-.9.1-1.9.3-2.8.4-.2 0-.4.1-.6.2s-.3.2-.4.4c-.2.3-.5.6-.7.9.5.1 1 .2 1.4.4.6.1 1.1.3 1.6.6s.6.7.9 1.2c.3-.2.6-.3 1-.3.2-.1.5.1.9.1z" fill="#1c1c1c"/><path d="m125 85.1c-.5-.4-.3-.8-.4-1.5 0-.3 0-.6.2-.8.3-.3.7-.3 1.1-.1.3.1.6.3.9.5.1.1.3.2.4.3s.1.3 0 .4c-.2.2-.7 0-.9.2-.2.1-.1.4-.1.6.1.2.2.4.1.6s-.4.3-.6.3c-.3-.2-.5-.4-.7-.5z" fill="#272727"/><path d="m108.8 97.5c-.2 3.7 1.8 4 3.1 4.3 1.9.4 3.9.1 5.7-.1.9-.1 1.9-.2 2.8-.2 1.4-.1 5.4-.5 5.9-.6 1.2-1 .8-2.7.1-4.3-.4-.9-1-.7-2-1-.9 0-8.5-.9-9.8-1-1 0-3.9-.2-4.9 0-1.2.4-.8 1.3-.9 2.9z" fill="#1c1c1c"/><path d="m123.1 100.1c.4.4 1.6.9 2.5.9.7 0 1.7-.3 2.1-.7 1.4-1.7.7-5.3.7-7.6 0-1.3-.1-2.5-.3-3.8 0-.6 0-1.3-.4-1.9-.2-.3-1 .4-1.3.2s-.7-.3-1.1-.1c-.4.1-.5-.3-.5 0 0 1-.4 2.8-.7 3.8-.6 2.6-1.1 5.9-.8 6.7.6 1.5-.5.5-.7 1.3 0 .3.1.8.5 1.2z" fill="#1c1c1c"/><path d="m99.5 141.4c.2-.6.6-1.1.8-1.7s.4-1.3.5-1.9c.2-1 .2-2-.2-2.9-.3-.7-.9-1.6-1.7-1.9-.4-.2-.9-.4-1.3-.5-.5-.1-1-.2-1.5-.3-.3 0-.5 0-.8 0s-.5.1-.8.3c-.2.3-.4.6-.6.9-.2.4-.2.8-.3 1.2s-.1.8-.1 1.2c0 .3.1.6.1.9.1.4.2.8.3 1.1.1.5.2.9.3 1.3.2.9.5 1.8.7 2.7.3 1.5.3 3.2-.4 4.6-.1.1-.1.2-.1.3 0 .5.6.6.9.6.4.1.9.1 1.3.1.6 0 1.2 0 1.6-.4.3-.3.4-.6.5-1 .2-.8.5-1.6.5-2.4.3-.6 0-1.4.3-2.2z" fill="#1c1c1c"/><path d="m94.6 134.5c.1.1.1.3.2.4.1.3.3.5.5.7.3.4.7.7 1.2 1 .3.2.5.4.9.4.3.1.7 0 1.1-.1.9-.2 1.8-.5 2.3-1.2.3-.5.4-1.1.5-1.6.3-2.6.8-5.3 2.2-7.6.7-1.2 1.7-2.4 1.7-3.9 0-.9-.4-1.7-.9-2.5-.7-1.1-1.7-2-2.9-2.4-1-.3-2-.2-3 .1-.8.2-1.5-.2-2.2-.5-.5-.2-1.4-2.5-1.9-2.1-.3.2-.5 2.6-.7 3-.1.5-.3 1-.4 1.5-.2 1-.2 1.9-.1 2.9.1 1.1.3 2.1.5 3.1s.1 1.9.1 2.9c-.2 1.9.1 4.1.9 5.9z" fill="#272727"/><path d="m114.6 140c.2.6.9 1 1.5 1 .4 0 .7-.1 1-.2.6-.2 1.2-.5 1.9-.5.4 0 .8.1 1.2.1.9.2 1.7.4 2.6.5.3 0 .8.2 1.1 0 .4-.1.8-.4 1-.8.2-.3.3-.8.3-1.2-.1-.5-.3-.8-.6-1.2s-.9-.6-1.4-.7c-.7-.2-1.5-.2-2.2-.1-.4 0-.8.1-1.2.1-.3 0-.7-.1-1-.2-.5-.1-.7-.3-1.1-.6s-.8-.6-1.2-.5c-.7.1-1.8.8-1.9 1.5-.2.9-.3 2.1 0 2.8z" fill="#272727"/><path d="m126.6 124.2c.3-.6-3 1-3.2.3-.2-.5-.6-1.2-1.2-1-.4-.8-.8-1.9-1.4-2.6-.4.6-1 1.2-1.5 1.7-.6.7-1.2 1.3-1.8 2 .1 0 .1-.1.2-.1-1.1 2-1.6 4.2-1.5 6.4 0 1 .2 2.1-.1 3.1-.1.5-.4 1-.6 1.5-.5 1-1.4 2.2-.8 3.3.2.4.6.8 1.1 1 .6.2 1 .1 1.5.1.3-.1.4-.2.6-.5.3-.5.5-1 .8-1.5.3-.6.6-1.2.9-1.8 1.1-2.2 6-10.1 7-11.9z" fill="#272727"/><path d="m120.5 125.8c-1.1-.1-2.1-.6-3.3-.7.1-.3.2-.5.4-.8-.1 0-.1.1-.2.1.6-.7 1.2-1.3 1.8-2 .5-.5 1.1-1.1 1.5-1.7.6.8.9 1.8 1.4 2.6.6-.1 1 .5 1.2 1s1.9-.2 2.7-.4c.1.1.1.2.2.3-1.3 2-3.7 1.9-5.7 1.6z" fill="#1c1c1c"/><path d="m102.4 123.5c.1.1.3.1.5.2 2.9.6 6 .9 9 .9h2.5c1.8 0 3.7 0 5.5.4.9.2 1.7.5 2.6.6s1.8 0 2.7-.4c.4-.1.8-.3 1.1-.6s.6-.7.6-1.1c.1-.6-.2-1.1-.5-1.6-1-1.6-2.8-2.7-4.4-3.7-1.1-.6-2.4-1.1-3.6-1.5-1.7-.6-3.5-1.2-5.3-1.6-3.4-.8-10.5-.8-11.4-.9-.7-.1.2 1.8-.2 2.4-.6.9-.2 2.2.3 3.1.4.7.6 1.6.6 2.4 0 .3-.1.7-.1 1-.1.2 0 .4.1.4z" fill="#272727"/><path d="m106.3 120.9c-.3-2.1-.9-4.4-.6-6.6.9 0 1.9.1 2.8.2-.8 2.6-.8 5.4-1 8-.1.6-.6 1.2-1.2 1.8h-.1c.2-1.1.2-2.2.1-3.4z" fill="#1c1c1c"/><path d="m98.9 122.9c.6.4 1.2.7 1.9.8 1.5.4 3 .2 4.5-.1 2.1-.3 1.3-2.1 1.6-5.1.1-1.5.6-3.1.6-3.4.4-1.5 1.1-3.9 2.1-6.1.5-1.1 1.2-2 1.7-3.1.5-1.2 1-2.5 1.2-3.8.3-1.8.2-3.8-.5-5.5-.3-.7-.7-1.6-1.4-2s-1.6-.3-2.4-.4c-1.5-.2-3-.1-4.4.2-2 .6-4 1.7-5.9 2.8-.8.5-1.6 1-2.4 1.5-1.7 1.2-1.8 3-1.7 4.9.1 2 0 4 .4 6 .2 1.2.1 2.5 0 3.8-.1 1.2-.4 2.4-.2 3.6.1.6.2 1.3.5 1.9.4.8 1.2 1.4 1.9 2 .8.8 1.6 1.5 2.5 2z" fill="#272727"/><path d="m99.3 101.3c-2.3-2.9-2.7-3.1-3.9-2.4-1.7.9-4.2 3.8-5.5 5.1-.6.7-1.3 1.4-2 2-1 1-2.7 3.3-3.1 3.7-.2 1.5-.7 1.3.9 2.1.9.4 1.7 2.1 2.6 1.7.6-.6 7.4-5.2 8.4-6.1.7-.6 1.6-1.3 2.2-2.1.9-1.1 1.4-2.7.4-4z" fill="#272727"/><path d="m89.3 106.3c.1-3.1.3-4.4.9-6.1.2-.7-1.5-.3-2.2-.1-.3.1-1.6-.2-1.6.1 0 1.1-1 3.7-1.3 5-.6 2.3-2.2 5.5-1.2 7.4.5.9 3 1.8 4.5.9 1.2-.6.9-6.5.9-7.2z" fill="#1c1c1c"/><path d="m90.7 95.3c.2.2.3.5.4.8.2.7.2 1.5 0 2.3-.2.5-.4 1-.7 1.5-.2.4-.6.7-.7 1.2-.3 1.1-.7 2.2-1 3.3-.1.2-.1.4-.2.6-.2.3-.5.5-.9.6s-.7 0-1.1 0c-.4-.1-.2-4.1-.1-4.6 0-.4-.1-.8-.2-1.1-.2-.9-.5-1.9-.6-2.8 0-.2 0-.4 0-.6.1-.4.4-.8.5-1.2s.1-.7.2-1.1c.2-.5.7-.6 1.1-.7.2-.1.4-.1.7-.1.3-.1.5-.2.8-.3.3 0 .7.1.9.3.3.3.3.7.3 1.1.2.1.4.5.6.8z" fill="#1c1c1c"/><path d="m89.8 100.6c2.2-2.1 3-4.3 3.2-6.1 0-.3 0-.7 0-1-.1-.3-.3-.7-.6-.7-.2 0-.5.2-.6.3-.4.6-.4 1.4-.7 2.1-.1.3-.3.6-.6.9z" fill="#1c1c1c"/><path d="m90.2 91.4c.4.2.8.4.8.8 0 .2 0 .4-.2.5s-.4 0-.6-.1-.4-.2-.6 0c.2.2.4.5.4.8v.2c0 .1-.1.1-.2.1-.2 0-.5 0-.7-.1 0 .2.1.4.2.6 0 .2-.1.5-.3.5-.1 0-.2 0-.2-.1-.1-.1-.8-.5-.8-.2v.1c.1.2.3.3.3.5v.1.1c-.1.2-.6.1-.7 0-.1 0-.3-.1-.5 0-.1.1-.2.3-.3.5-.1.3-.3.5-.5.7-.1.2-.3.3-.5.4-.1 0-.2.1-.3 0-.1 0-.1-.2-.2-.3-.2-.4 0-.8 0-1.2s.1-.9.1-1.3c0-.2 0-.4 0-.6s.1-.4.3-.5c.2-.2.5-.2.8-.4.2-.2.2-.5.5-.7.2-.1.4-.1.5-.2.2-.1.3-.4.5-.5s.4-.1.6-.1c.7 0 1.2.2 1.6.4z" fill="#272727"/><path d="m102.1 97.9c-1.3-.3-2.4-1.2-2-2.1.7-1.8.3-5.1.3-5.1l5 .3c.2 0 .7 4 .7 5.4-.1 1.3-2.6 1.8-4 1.5z" fill="#1c1c1c"/><path d="m99.1 88.5c.2-.6.6-1.1 1.1-1.6.2-.2.4-.3.6-.5h.6c1 .1 4.5-.5 5.4 0 1.4.7 1 1.2 1.7 2.7-.1.4-.7 2-.8 2.4-.2.8-.4 1.7-.6 2.5-.2.5-.4 1-.6 1.5-.1.1-.1.2-.2.3-.5.6-1.1 1.2-1.8 1.5-1.1.5-2.2.2-3-.6-1.5-1.5-2.7-5.4-3-7.4-.1-.5.5.6.5.2 0-.3 0-.6.1-1z" fill="#272727"/><path d="m99 87.6c.2-.6.6-1.1 1.1-1.6.2-.2.4-.3.6-.5h.6c1 .1 4.5-.5 5.4 0 1.4.7.5 2.5 1.2 4-.1.4-.2.8-.3 1.2-.2.8-.4 1.7-.6 2.5-.2.5-.4 1-.6 1.5-.1.1-.1.2-.2.3-.5.6-1.1 1.2-1.8 1.5-1.1.5-2.2.2-3-.6-1.5-1.5-2.2-3.9-2.5-5.9-.1-.5 0-.9 0-1.3s0-.7.1-1.1z" fill="#ffd6bf"/><path d="m108.2 89.9c-.1.3-.9 1.9-.8 1.7.1-1-.1-1.8-.5-2.3-.2-.3-.6-.5-.9-.7-1.1-.5-2.4-.8-3.6-.6-3.2.5-3.3 3.1-3.3 3.1l-.7-1.7c-2.1-9.3 12.8-8.3 9.8.5z" fill="#272727"/><path d="m105.6 87.6c0 .4.3.8.8.8.2 0 .4-.1.6-.3.1-.1.2-.3.2-.5 0-.4-.3-.7-.7-.7-.1 0-.2 0-.3.1-.4 0-.6.3-.6.6z" fill="#c2ccdb"/><path d="m105.9 87.4c0 .4.3.7.7.7.1 0 .2 0 .3-.1s.2-.3.2-.5c0-.4-.3-.7-.7-.7-.1 0-.2 0-.3.1s-.2.3-.2.5z" fill="#e1e6ec"/><path d="m108.5 102.5c0 .4.3.8.8.8.2 0 .4-.1.6-.3.1-.1.2-.3.2-.5 0-.4-.3-.7-.7-.7-.1 0-.2 0-.3.1-.4 0-.6.3-.6.6z" fill="#c2ccdb"/><path d="m108.8 102.3c0 .4.3.7.7.7.1 0 .2 0 .3-.1s.2-.3.2-.5c0-.4-.3-.7-.7-.7-.1 0-.2 0-.3.1-.2.1-.2.3-.2.5z" fill="#e1e6ec"/><path d="m113.4 97.7c0 .4.3.8.8.8.2 0 .4-.1.6-.3.1-.1.2-.3.2-.5 0-.4-.3-.7-.7-.7-.1 0-.2 0-.3.1-.4 0-.6.3-.6.6z" fill="#c2ccdb"/><path d="m113.7 97.5c0 .4.3.7.7.7.1 0 .2 0 .3-.1s.2-.3.2-.5c0-.4-.3-.7-.7-.7-.1 0-.2 0-.3.1-.2.1-.2.3-.2.5z" fill="#e1e6ec"/><path d="m95.1 100.6c0 .4.3.8.8.8.2 0 .4-.1.6-.3.1-.1.2-.3.2-.5 0-.4-.3-.7-.7-.7-.1 0-.2 0-.3.1-.4 0-.6.3-.6.6z" fill="#c2ccdb"/><path d="m95.4 100.4c0 .4.3.7.7.7.1 0 .2 0 .3-.1s.2-.3.2-.5c0-.4-.3-.7-.7-.7-.1 0-.2 0-.3.1-.2.2-.2.3-.2.5z" fill="#e1e6ec"/><path d="m85.3 112.6c0 .4.3.8.8.8.2 0 .4-.1.6-.3.1-.1.2-.3.2-.5 0-.4-.3-.7-.7-.7-.1 0-.2 0-.3.1-.4 0-.6.2-.6.6z" fill="#c2ccdb"/><path d="m85.6 112.3c0 .4.3.7.7.7.1 0 .2 0 .3-.1s.2-.3.2-.5c0-.4-.3-.7-.7-.7-.1 0-.2 0-.3.1-.1.2-.2.4-.2.5z" fill="#e1e6ec"/><path d="m87.2 100.6c0 .4.3.8.8.8.2 0 .4-.1.6-.3.1-.1.2-.3.2-.5 0-.4-.3-.7-.7-.7-.1 0-.2 0-.3.1-.4 0-.6.3-.6.6z" fill="#c2ccdb"/><path d="m87.5 100.4c0 .4.3.7.7.7.1 0 .2 0 .3-.1s.2-.3.2-.5c0-.4-.3-.7-.7-.7-.1 0-.2 0-.3.1-.1.2-.2.3-.2.5z" fill="#e1e6ec"/><path d="m124 98.3c0 .4.3.8.8.8.2 0 .4-.1.6-.3.1-.1.2-.3.2-.5 0-.4-.3-.7-.7-.7-.1 0-.2 0-.3.1-.4 0-.6.2-.6.6z" fill="#c2ccdb"/><path d="m124.3 98c0 .4.3.7.7.7.1 0 .2 0 .3-.1s.2-.3.2-.5c0-.4-.3-.7-.7-.7-.1 0-.2 0-.3.1-.1.2-.2.4-.2.5z" fill="#e1e6ec"/><path d="m125.5 88.7c0 .4.3.8.8.8.2 0 .4-.1.6-.3.1-.1.2-.3.2-.5 0-.4-.3-.7-.7-.7-.1 0-.2 0-.3.1-.4 0-.6.3-.6.6z" fill="#c2ccdb"/><path d="m125.8 88.5c0 .4.3.7.7.7.1 0 .2 0 .3-.1s.2-.3.2-.5c0-.4-.3-.7-.7-.7-.1 0-.2 0-.3.1-.2.1-.2.3-.2.5z" fill="#e1e6ec"/><path d="m98.1 106.3c0 .4.3.8.8.8.2 0 .4-.1.6-.3.1-.1.2-.3.2-.5 0-.4-.3-.7-.7-.7-.1 0-.2 0-.3.1-.4 0-.6.3-.6.6z" fill="#c2ccdb"/><path d="m98.4 106c0 .4.3.7.7.7.1 0 .2 0 .3-.1s.2-.3.2-.5c0-.4-.3-.7-.7-.7-.1 0-.2 0-.3.1-.2.2-.2.4-.2.5z" fill="#e1e6ec"/><path d="m103.1 99c0 .4.3.8.8.8.2 0 .4-.1.6-.3.1-.1.2-.3.2-.5 0-.4-.3-.7-.7-.7-.1 0-.2 0-.3.1-.4 0-.6.3-.6.6z" fill="#c2ccdb"/><path d="m103.4 98.8c0 .4.3.7.7.7.1 0 .2 0 .3-.1s.2-.3.2-.5c0-.4-.3-.7-.7-.7-.1 0-.2 0-.3.1-.2.1-.2.3-.2.5z" fill="#e1e6ec"/><path d="m102.3 110.4c0 .4.3.8.8.8.2 0 .4-.1.6-.3.1-.1.2-.3.2-.5 0-.4-.3-.7-.7-.7-.1 0-.2 0-.3.1-.4.1-.6.3-.6.6z" fill="#c2ccdb"/><path d="m102.6 110.2c0 .4.3.7.7.7.1 0 .2 0 .3-.1s.2-.3.2-.5c0-.4-.3-.7-.7-.7-.1 0-.2 0-.3.1-.2.2-.2.3-.2.5z" fill="#e1e6ec"/><path d="m103.3 119.6c0 .4.3.8.8.8.2 0 .4-.1.6-.3.1-.1.2-.3.2-.5 0-.4-.3-.7-.7-.7-.1 0-.2 0-.3.1-.4 0-.6.3-.6.6z" fill="#c2ccdb"/><path d="m103.6 119.4c0 .4.3.7.7.7.1 0 .2 0 .3-.1s.2-.3.2-.5c0-.4-.3-.7-.7-.7-.1 0-.2 0-.3.1-.1.2-.2.3-.2.5z" fill="#e1e6ec"/><path d="m108.5 95.2c0 .4.3.8.8.8.2 0 .4-.1.6-.3.1-.1.2-.3.2-.5 0-.4-.3-.7-.7-.7-.1 0-.2 0-.3.1-.4 0-.6.3-.6.6z" fill="#c2ccdb"/><path d="m108.8 95c0 .4.3.7.7.7.1 0 .2 0 .3-.1s.2-.3.2-.5c0-.4-.3-.7-.7-.7-.1 0-.2 0-.3.1-.2.2-.2.3-.2.5z" fill="#e1e6ec"/><path d="m96.6 121.2c0 .4.3.8.8.8.2 0 .4-.1.6-.3.1-.1.2-.3.2-.5 0-.4-.3-.7-.7-.7-.1 0-.2 0-.3.1-.4 0-.6.3-.6.6z" fill="#c2ccdb"/><path d="m96.9 121c0 .4.3.7.7.7.1 0 .2 0 .3-.1s.2-.3.2-.5c0-.4-.3-.7-.7-.7-.1 0-.2 0-.3.1-.2.1-.2.3-.2.5z" fill="#e1e6ec"/><path d="m96.7 135.8c0 .4.3.8.8.8.2 0 .4-.1.6-.3.1-.1.2-.3.2-.5 0-.4-.3-.7-.7-.7-.1 0-.2 0-.3.1-.4 0-.6.3-.6.6z" fill="#c2ccdb"/><path d="m97 135.6c0 .4.3.7.7.7.1 0 .2 0 .3-.1s.2-.3.2-.5c0-.4-.3-.7-.7-.7-.1 0-.2 0-.3.1s-.2.3-.2.5z" fill="#e1e6ec"/><path d="m96.3 146.2c0 .4.3.8.8.8.2 0 .4-.1.6-.3.1-.1.2-.3.2-.5 0-.4-.3-.8-.7-.8-.1 0-.2 0-.3.1-.4.1-.6.3-.6.7z" fill="#c2ccdb"/><path d="m96.6 145.9c0 .4.3.7.7.7.1 0 .2 0 .3-.1s.2-.3.2-.5c0-.4-.3-.8-.7-.8-.1 0-.2 0-.3.1-.2.3-.2.5-.2.6z" fill="#e1e6ec"/><path d="m115.3 138.7c0 .4.3.8.8.8.2 0 .4-.1.6-.3.1-.1.2-.3.2-.5 0-.4-.3-.7-.7-.7-.1 0-.2 0-.3.1-.5 0-.6.3-.6.6z" fill="#c2ccdb"/><path d="m115.6 138.5c0 .4.3.7.7.7.1 0 .2 0 .3-.1s.2-.3.2-.5c0-.4-.3-.7-.7-.7-.1 0-.2 0-.3.1-.2.1-.2.3-.2.5z" fill="#e1e6ec"/><path d="m108.2 116.5c0 .4.3.8.8.8.2 0 .4-.1.6-.3.1-.1.2-.3.2-.5 0-.4-.3-.7-.7-.7-.1 0-.2 0-.3.1-.4 0-.6.3-.6.6z" fill="#c2ccdb"/><path d="m108.5 116.3c0 .4.3.7.7.7.1 0 .2 0 .3-.1s.2-.3.2-.5c0-.4-.3-.7-.7-.7-.1 0-.2 0-.3.1-.2.2-.2.3-.2.5z" fill="#e1e6ec"/><path d="m124.2 122c0 .4.3.8.8.8.2 0 .4-.1.6-.3.1-.1.2-.3.2-.5 0-.4-.3-.7-.7-.7-.1 0-.2 0-.3.1-.4 0-.6.2-.6.6z" fill="#c2ccdb"/><path d="m124.5 121.7c0 .4.3.7.7.7.1 0 .2 0 .3-.1s.2-.3.2-.5c0-.4-.3-.7-.7-.7-.1 0-.2 0-.3.1-.1.2-.2.4-.2.5z" fill="#e1e6ec"/><path d="m123.3 139.1c0 .4.3.8.8.8.2 0 .4-.1.6-.3.1-.1.2-.3.2-.5 0-.4-.3-.7-.7-.7-.1 0-.2 0-.3.1-.4 0-.6.3-.6.6z" fill="#c2ccdb"/><path d="m123.6 138.9c0 .4.3.7.7.7.1 0 .2 0 .3-.1s.2-.3.2-.5c0-.4-.3-.7-.7-.7-.1 0-.2 0-.3.1-.1.2-.2.3-.2.5z" fill="#e1e6ec"/><path d="m99.1 87.6c0 .4.3.8.8.8.2 0 .4-.1.6-.3.1-.1.2-.3.2-.5 0-.4-.3-.7-.7-.7-.1 0-.2 0-.3.1-.4 0-.6.3-.6.6z" fill="#c2ccdb"/><path d="m99.4 87.4c0 .4.3.7.7.7.1 0 .2 0 .3-.1s.2-.3.2-.5c0-.4-.3-.7-.7-.7-.1 0-.2 0-.3.1s-.2.3-.2.5z" fill="#e1e6ec"/><path d="m102.3 83.9c0 .4.3.8.8.8.2 0 .4-.1.6-.3.1-.1.2-.3.2-.5 0-.4-.3-.7-.7-.7-.1 0-.2 0-.3.1-.4 0-.6.3-.6.6z" fill="#c2ccdb"/><path d="m102.6 83.7c0 .4.3.7.7.7.1 0 .2 0 .3-.1s.2-.3.2-.5c0-.4-.3-.7-.7-.7-.1 0-.2 0-.3.1s-.2.3-.2.5z" fill="#e1e6ec"/><ellipse cx="109" cy="146.8" fill="#a6c1e8" opacity=".3" rx="16.3" ry="9.4"/><g enable-background="new"><path d="m201.9 141v1.2l19 11v-1.2z" fill="#999"/><path d="m220.9 152v1.2l2.6-1.5-.1-1.2z" fill="#d9d9d9"/><path d="m201.9 141 19 11 2.5-1.5-18.9-11z" fill="#eee"/></g><g enable-background="new"><path d="m193.3 145.9v1.2l19 11.1v-1.2z" fill="#999"/><path d="m212.3 157v1.2l2.6-1.5v-1.2z" fill="#d9d9d9"/><path d="m193.3 145.9 19 11.1 2.6-1.5-19-11.1z" fill="#eee"/></g><g enable-background="new"><path d="m183.8 151.4v1.2l19 11v-1.1z" fill="#999"/><path d="m202.8 162.5v1.1l2.6-1.5v-1.1z" fill="#d9d9d9"/><path d="m183.8 151.4 19 11.1 2.6-1.5-19-11.1z" fill="#eee"/></g><g enable-background="new"><path d="m174.2 157v1.2l19 11v-1.2z" fill="#999"/><path d="m193.2 168v1.2l2.6-1.5v-1.2z" fill="#d9d9d9"/><path d="m174.2 157 19 11 2.6-1.5-19-11z" fill="#eee"/></g><g enable-background="new"><path d="m164.7 162.4v1.2l19 11.1v-1.2z" fill="#999"/><path d="m183.7 173.5v1.2l2.6-1.5v-1.2z" fill="#d9d9d9"/><path d="m164.7 162.4 19 11.1 2.6-1.5-19-11.1z" fill="#eee"/></g><g enable-background="new"><path d="m175.7 173.1v1.2l2 1.2v-1.2z" fill="#999"/><path d="m177.7 174.3v1.2l46.1-26.6v-1.2z" fill="#d9d9d9"/><path d="m175.7 173.1 2 1.2 46.1-26.6-2-1.2z" fill="#f8f9fc"/></g><g enable-background="new"><path d="m161.6 165v1.2l2.1 1.2v-1.2z" fill="#999"/><path d="m163.7 166.2v1.2l46.1-26.6v-1.2z" fill="#d9d9d9"/><path d="m161.6 165 2.1 1.2 46.1-26.6-2-1.2z" fill="#f8f9fc"/></g><g enable-background="new"><path d="m155.7 167.6v1.2l19 11v-1.1z" fill="#999"/><path d="m174.7 178.7v1.1l2.6-1.5v-1.1z" fill="#d9d9d9"/><path d="m155.7 167.6 19 11.1 2.6-1.5-19-11.1z" fill="#eee"/></g><g enable-background="new"><path d="m147.1 172.6v1.2l19 11v-1.2z" fill="#999"/><path d="m166.1 183.6v1.2l2.6-1.5v-1.2z" fill="#d9d9d9"/><path d="m147.1 172.6 19 11 2.6-1.5-19-11z" fill="#eee"/></g><g enable-background="new"><path d="m137.6 178.1v1.1l19 11.1v-1.2z" fill="#999"/><path d="m156.6 189.1v1.2l2.6-1.5v-1.2z" fill="#d9d9d9"/><path d="m137.6 178.1 19 11 2.6-1.5-19-11z" fill="#eee"/></g><g enable-background="new"><path d="m128 183.6v1.2l19 11.1v-1.2z" fill="#999"/><path d="m147 194.7v1.2l2.6-1.5v-1.2z" fill="#d9d9d9"/><path d="m128 183.6 19 11.1 2.6-1.5-19-11.1z" fill="#eee"/></g><g enable-background="new"><path d="m118.6 189.1v1.2l19 11v-1.2z" fill="#999"/><path d="m137.6 200.1v1.2l2.6-1.5v-1.2z" fill="#d9d9d9"/><path d="m118.6 189.1 19 11 2.6-1.5-19-11z" fill="#eee"/></g><g enable-background="new"><path d="m129.5 199.8v1.2l2.1 1.1-.1-1.1z" fill="#999"/><path d="m131.5 201 .1 1.1 46.1-26.6v-1.2z" fill="#d9d9d9"/><path d="m129.5 199.8 2 1.2 46.2-26.7-2-1.2z" fill="#f8f9fc"/></g><g enable-background="new"><path d="m115.5 191.7v1.2l2 1.1v-1.1z" fill="#999"/><path d="m117.5 192.9v1.1l46.2-26.6v-1.2z" fill="#d9d9d9"/><path d="m115.5 191.7 2 1.2 46.2-26.7-2.1-1.2z" fill="#f8f9fc"/></g><g enable-background="new"><path d="m109.6 194.3v1.1l19 11.1v-1.2z" fill="#999"/><path d="m128.6 205.3v1.2l2.6-1.5v-1.2z" fill="#d9d9d9"/><path d="m109.6 194.3 19 11 2.6-1.5-19-11z" fill="#eee"/></g><g enable-background="new"><path d="m101 199.2v1.2l19 11v-1.2z" fill="#999"/><path d="m120 210.2v1.2l2.6-1.5v-1.2z" fill="#d9d9d9"/><path d="m101 199.2 19 11 2.6-1.5-19-11z" fill="#eee"/></g><g enable-background="new"><path d="m91.5 204.7v1.2l19 11v-1.2z" fill="#999"/><path d="m110.5 215.7v1.2l2.6-1.5v-1.2z" fill="#d9d9d9"/><path d="m91.5 204.7 19 11 2.6-1.5-19-11z" fill="#eee"/></g><g enable-background="new"><path d="m81.9 210.3v1.2l19 11v-1.2z" fill="#999"/><path d="m100.9 221.3v1.2l2.6-1.5v-1.2z" fill="#d9d9d9"/><path d="m81.9 210.3 19 11 2.6-1.5-19-11z" fill="#eee"/></g><g enable-background="new"><path d="m131.6 202.1-33.4 19.3-1-.6 34.3-19.8z" fill="#d9d9d9"/><path d="m131.5 201-34.3 19.8-2.1-1.2 34.4-19.8z" fill="#f8f9fc"/></g><g enable-background="new"><path d="m117.5 194-33.3 19.3-1-.6 34.3-19.8z" fill="#d9d9d9"/><path d="m117.5 192.9-34.3 19.8-2.1-1.2 34.4-19.8z" fill="#f8f9fc"/></g><ellipse cx="159.3" cy="206.4" fill="#a6c1e8" opacity=".3" rx="15.2" ry="8.8"/><path d="m132.7 198.4c0-1.1.7-2.5 1.6-3 .4-.2.7-.2 1-.1l.3.1s0 0-.1 0c.2.2.3.6.3 1.1 0 1.1-.7 2.5-1.6 3-.3.2-.5.2-.7.2v.1l-.2-.1c-.3-.2-.6-.6-.6-1.3z" fill="#333"/><path d="m134.6 199.8c-.9.5-1.6 0-1.6-1.2s.7-2.5 1.6-3 1.6 0 1.6 1.2-.7 2.5-1.6 3z" fill="#292929"/><path d="m134.6 199.6c-.8.4-1.4 0-1.4-1.1 0-1 .6-2.2 1.4-2.7.8-.4 1.4 0 1.4 1.1 0 1-.6 2.2-1.4 2.7z" fill="#fafafa"/><path d="m134.6 196.4c-.5.3-1 1.2-1 1.9s.4 1.1 1 .7c.5-.3 1-1.1 1-1.9 0-.7-.5-1-1-.7z" fill="#333"/><path d="m152.4 186.4c0-1.1.7-2.5 1.6-3 .4-.2.7-.2 1-.1l.3.1s0 0-.1 0c.2.2.3.6.3 1.1 0 1.1-.7 2.5-1.6 3-.3.2-.5.2-.7.2v.1l-.2-.1c-.4-.1-.6-.6-.6-1.3z" fill="#333"/><path d="m154.3 187.8c-.9.5-1.6 0-1.6-1.2 0-1.1.7-2.5 1.6-3s1.6 0 1.6 1.2c-.1 1.2-.8 2.5-1.6 3z" fill="#292929"/><path d="m154.3 187.6c-.8.4-1.4 0-1.4-1.1s.6-2.2 1.4-2.7c.8-.4 1.4 0 1.4 1.1 0 1-.7 2.2-1.4 2.7z" fill="#fafafa"/><path d="m154.3 184.4c-.5.3-1 1.2-1 1.9s.4 1.1 1 .7c.5-.3 1-1.1 1-1.9-.1-.7-.5-1-1-.7z" fill="#333"/><path d="m118 190.8c0-1.1.7-2.5 1.6-3 .4-.2.7-.2 1-.1l.3.1s0 0-.1 0c.2.2.3.6.3 1.1 0 1.1-.7 2.5-1.6 3-.3.2-.5.2-.7.2v.1l-.2-.1c-.3-.1-.6-.6-.6-1.3z" fill="#333"/><path d="m119.9 192.2c-.9.5-1.6 0-1.6-1.2 0-1.1.7-2.5 1.6-3s1.6 0 1.6 1.2-.7 2.5-1.6 3z" fill="#292929"/><path d="m119.9 192c-.8.4-1.4 0-1.4-1.1 0-1 .6-2.2 1.4-2.7.8-.4 1.4 0 1.4 1.1 0 1-.6 2.2-1.4 2.7z" fill="#fafafa"/><path d="m119.9 188.8c-.5.3-1 1.2-1 1.9s.4 1.1 1 .7c.5-.3 1-1.1 1-1.9s-.4-1-1-.7z" fill="#333"/><g enable-background="new"><path d="m118.6 188.2v1.5l13.9 8.1v-1.6z" fill="#2e2e2e"/><path d="m132.5 196.2v1.6l24-13.9v-1.6z" fill="#1a1a1a"/><path d="m118.6 188.2 13.9 8 24-13.9-13.8-8z" fill="#333"/></g><g enable-background="new"><g enable-background="new"><use fill="#f8f9fc" xlink:href="#p"/><g clip-path="url(#d)" fill="#d9d9d9"><path d="m130.8 188.7c1.4.8 3.1 1.4 4.9 1.6 1.8.3 3.6.3 5.4 0s3.5-.8 5-1.6c.3-.2.6-.3.8-.5l.1 2c-.2.2-.5.4-.8.5-1.4.8-3.1 1.4-5 1.6-1.8.3-3.7.3-5.4 0-1.8-.3-3.5-.8-4.9-1.6-2.1-1.2-3.1-2.8-3.1-4.4l-.1-2c0 1.6 1 3.1 3.1 4.4z"/><path d="m146.9 188.1c1.2-.9 1.9-1.9 2.2-2.9.1-.3.1-.7.1-1l.1 2c0 .3 0 .7-.1 1-.3 1-1 2.1-2.2 2.9z"/></g></g><path d="m130.8 179.8c-4.2 2.4-4.3 6.4 0 8.8 4.2 2.4 11 2.4 15.3 0 4.2-2.4 4.3-6.4 0-8.8-4.2-2.4-11-2.4-15.3 0z" fill="#eee"/></g><path d="m134.1 181-1.2.7-1.6-.2-.5-1 1.2-.7 1.7.3z" fill="#f8f9fc"/><path d="m136.6 178.5 1.3.7-.1.1h.1l-.4.8h-.1v.1l-1.6.2-1.2-.7.4-.9z" fill="#f8f9fc"/><path d="m141.7 178.7.5 1h-.1.1l-1.2.7-1.7-.3-.4-.9 1.2-.7z" fill="#f8f9fc"/><path d="m144.7 179.7 1.2.7-.4.9v.1h-.1l-1.5.2h-.1l-1.2-.7.5-.9z" fill="#f8f9fc"/><path d="m146.9 183.7v.1l-1.5-.3h-.1l-.4-1 1.2-.7 1.6.3.4.9z" fill="#f8f9fc"/><path d="m146 186.2-1.1-.6v-.1l.4-.9 1.7-.3 1.2.7-.4 1-1.7.2z" fill="#f8f9fc"/><path d="m142.8 187.2 1.2-.7 1.6.3.5.9-1.2.7-1.7-.2v-.1l-.4-.8z" fill="#f8f9fc"/><path d="m139.5 188.1 1.7-.3 1.2.7-.5 1-1.6.2-1.2-.7h-.1z" fill="#f8f9fc"/><path d="m134.8 188.5 1.1-.6h.1l1.6.2.4 1-1.2.7-1.6-.3-.5-.9z" fill="#f8f9fc"/><path d="m131.5 186.9 1.5-.3h.1l1.2.7-.5 1-1.6.2-1.2-.6.4-1z" fill="#f8f9fc"/><path d="m130 184.5 1.6.2v.1l.5.9-1.2.7-1.7-.2-.4-1z" fill="#f8f9fc"/><path d="m130.9 182 1.1.7-.4 1-1.7.2-1.2-.7.5-.9 1.6-.3z" fill="#f8f9fc"/><g enable-background="new"><g enable-background="new"><use fill="#1a4b6c" xlink:href="#q"/><g clip-path="url(#e)" enable-background="new"><path d="m133.2 182.3v1.5c0 .8.5 1.6 1.5 2.1.7.4 1.5.7 2.4.8v-1.5c-.9-.1-1.7-.4-2.4-.8-1-.5-1.5-1.3-1.5-2.1z" fill="#cdcdcd"/><path d="m137.1 185.2v1.5c.9.1 1.8.1 2.7 0v-1.5c-.9.2-1.8.2-2.7 0z" fill="#dedede"/><path d="m139.8 185.2v1.5c.9-.1 1.7-.4 2.4-.8.1-.1.3-.2.4-.3v-1.5c-.1.1-.3.2-.4.3-.7.5-1.5.7-2.4.8z" fill="#e7e8e8"/><path d="m143.7 182.8c0-.2.1-.3.1-.5v1.5c0 .2 0 .3-.1.5-.1.5-.5 1-1.1 1.4v-1.5c.6-.4.9-.9 1.1-1.4z" fill="#cdcdcd"/></g></g><path d="m134.8 180.1c-2.1 1.2-2.1 3.1 0 4.3s5.4 1.2 7.5 0 2.1-3.1 0-4.3-5.5-1.2-7.5 0z" fill="#c5c5c5"/></g><path d="m142.8 157.3v24.5c-.1.5-.5 1.1-1.2 1.5-1.6.9-4.3 1-5.9 0-.7-.4-1.1-.9-1.2-1.4v-24.6z" fill="#1a1a1a"/><path d="m138.7 157.3h2.6v26.1c-.7.4-1.7.6-2.6.6z" fill="#2e2e2e"/><g enable-background="new"><g enable-background="new"><use fill="#1a4b6c" xlink:href="#r"/><g clip-path="url(#f)" enable-background="new"><path d="m131.8 158.2.1 2c0 1 .7 2 2 2.8.9.5 2 .9 3.1 1l-.1-2c-1.1-.2-2.2-.5-3.1-1-1.4-.8-2-1.8-2-2.8z" fill="#cdcdcd"/><path d="m136.8 162 .1 2c1.1.2 2.3.2 3.4 0l-.1-2c-1.1.2-2.2.2-3.4 0z" fill="#dedede"/><path d="m140.3 162 .1 2c1.1-.2 2.2-.5 3.1-1 .2-.1.4-.2.5-.3l-.1-2c-.2.1-.3.2-.5.3-.9.5-2 .8-3.1 1z" fill="#e7e8e8"/><path d="m145.3 158.8c.1-.2.1-.4.1-.6l.1 2c0 .2 0 .4-.1.6-.2.7-.7 1.3-1.4 1.8l-.1-2c.8-.5 1.3-1.1 1.4-1.8z" fill="#cdcdcd"/></g></g><path d="m133.8 155.4c-2.7 1.5-2.7 4 0 5.6 2.7 1.5 7 1.5 9.7 0s2.7-4 0-5.6-7-1.6-9.7 0z" fill="#c5c5c5"/></g><path d="m143.6 157.9 13.1.6-1 .5-13.1-.6z" fill="#1a1a1a"/><path d="m143.6 157.9 13.1.6v-1.1l-13.1-.6z" fill="#4a4a4a"/><g enable-background="new" fill="#262626"><g enable-background="new"><use xlink:href="#s"/><g clip-path="url(#g)" enable-background="new"><path d="m135.6 151.4v7.5c0 .4.3.9.9 1.2.4.2.9.4 1.4.5v-7.5c-.5-.1-1-.2-1.4-.5-.6-.3-.9-.8-.9-1.2z"/><path d="m137.8 153.1v7.5c.5.1 1 .1 1.5 0v-7.5c-.4 0-1 0-1.5 0z"/><path d="m139.3 153.1v7.5c.5-.1 1-.2 1.4-.5.1 0 .2-.1.2-.1v-7.5c-.1.1-.1.1-.2.1-.4.2-.8.4-1.4.5z"/><path d="m141.6 151.7c0-.1 0-.2 0-.3v7.5.3c-.1.3-.3.6-.6.8v-7.5c.3-.3.5-.5.6-.8z"/></g></g><path d="m136.5 150.2c-1.2.7-1.2 1.8 0 2.5s3.1.7 4.3 0 1.2-1.8 0-2.5-3.1-.7-4.3 0z"/><path d="m137 152.3s.1 0 .1.1c0 0 .1 0 .1.1.8.3 1.9.3 2.7 0 0 0 .1 0 .1-.1 0 0 .1 0 .1-.1.8-.5.9-1.2.2-1.7 0 0-.1-.1-.1-.1s-.1-.1-.1-.1c-.9-.5-2.4-.5-3.3 0 0 0-.1.1-.1.1s-.1.1-.1.1c-.5.5-.4 1.3.4 1.7z"/><path d="m137.1 152.4s.1 0 .1.1l1.4-.8.1-.1 1.7-1s-.1-.1-.1-.1l-1.8 1-.1.1z"/><path d="m136.8 150.6 1.7 1 .1.1 1.4.8s.1 0 .1-.1l-1.4-.8-.1-.1-1.8-1z"/><path d="m136.5 150.8c.1-.1.2-.1.2-.2.9-.5 2.4-.5 3.3 0 .7.4.8 1 .5 1.5.6-.5.6-1.2-.2-1.7-.9-.5-2.4-.5-3.3 0-.2.2-.4.3-.5.4z"/></g><path d="m138.2 157.5-3 11.2-1.4-.3 3-11.5z" fill="#333"/><path d="m137.6 157.7-2.6 10.4-1.4-.3 2.8-10.7z" fill="#4a4a4a"/><path d="m135.2 168.7-.2-.6-1.4-.3.2.6z" fill="#808080"/><path d="m141.4 144v-.1s0 0 .1-.1c.2-.1.3-.1.5-.1-.1-.1-.1-.2 0-.3s.2-.1.3-.1h1.1c-.1 0-.1-.1-.1-.1.1-.1.1-.1.2-.1.6 0 1.3.2 1.8.4.6.2 1.2.3 1.7.6.1 0 .1.1.2.1 0 0 .1 0 .1.1.1.1.2.2.4.3.2.2.5.4.8.6.1.1 4.3 1.1 7.6 1.9v4l-8.1-3.1c-.3.1-.6.1-1 .2s-.6.2-1 .1-.8 0-1.2-.2c-.2 0-.3-.1-.5-.2-.3-.1-.5-.4-.7-.6-.1-.1-.2-.2-.1-.3 0-.1.2-.1.3-.1.3 0 .6 0 .9.1.2 0 .4.1.6.1-.3-.3-.8-.4-1.2-.5-.5-.2-.9-.4-1.4-.7-.2-.1-.4-.2-.6-.4-.1-.1-.3-.3-.4-.4s-.1-.2-.2-.3c0-.1 0-.3.1-.3 0-.1-.1-.3-.2-.5z" fill="#b3826b"/><path d="m143.8 160.8v1.2l10.1-5.9v-1.1z" fill="#2e2e2e"/><path d="m125.2 150.1 6 3.5.9.5 11.7 6.7 10.1-5.8-18.6-10.8z" fill="#808080"/><path d="m125.2 150.1 18.6 10.7v1.2l-18.6-10.7z" fill="#262626"/><path d="m144.6 142.2v5.7l-.7-.4v-5.7z" fill="#1c1c1c"/><path d="m151.2 137.7-7.3 4.1.7.4 7.2-4.2z" fill="#999"/><path d="m151.8 138-7.2 4.2v5.7l7.3-4.2z" fill="#595959"/><path d="m151.3 143.4v-4.4l-6.1 3.5v4.4z" fill="#1c1c1c"/><g enable-background="new"><path d="m128 132.1c0 .1.1.2.2.1s.2-.2.2-.3-.1-.2-.2-.1c-.1 0-.2.1-.2.3z" fill="#969224"/><path d="m128.5 134.8c.3.2.7.1 1.1-.1.9-.5 1.6-1.8 1.7-2.8 0-.5-.2-.9-.5-1.1-.1 0-.2-.1-.2-.1-.1 0-.2-.1-.2-.1-.1 0-.3-.1-.6-.1s-.5.1-.6.1-.4.1-.5.2-.2.1-.2.2c-.1.1-.2.1-.3.3 0 0-.2.2-.3.5 0 0-.1.2-.2.3s-.1.2-.1.3c0 0 0 .1-.1.3v.3c0-.3.2-.6.6-.8 0-.1.1-.2.2-.3s.2 0 .2.1-.1.2-.2.3-.2 0-.2-.1c-.4.2-.6.5-.6.8 0 .1 0 .3.1.6.1.2.1.4.2.6s.2.3.3.4l.2.2c0-.1.1-.1.2 0z" fill="#969224"/><path d="m127.4 132.9v.3c0 .1 0 .2.1.3 0 .1 0 .2.1.2 0 .1.1.2.1.3.1.2.2.3.3.4s.2.2.3.2c.1.1.2.1.2.1-.3-.2-.5-.6-.5-1.1-.4-.1-.6-.4-.6-.7z" fill="#f39c12"/><path d="m130.8 130.8c-.1 0-.2-.1-.3-.1s-.2-.1-.2-.1c-.2-.1-.5-.1-.6-.1-.3 0-.5.1-.6.1-.3.1-.4.2-.6.3 0 0-.2.1-.2.2 0 0-.1.1-.1.1-.1.1-.1.1-.2.2 0 0-.1.1-.1.2-.1.1-.1.2-.2.3s-.2.3-.2.5c-.1.2-.1.4-.1.6 0 .3.2.6.6.8 0-1 .8-2.3 1.7-2.8.4-.3.8-.4 1.1-.2z" fill="#f39c12"/><path d="m132.6 137.2c.3.2.7.2 1.1-.1.9-.5 1.6-1.8 1.7-2.8 0-.5-.2-.9-.5-1.1l-4.2-2.4c.3.2.5.6.5 1.1 0 1-.8 2.3-1.7 2.8-.4.2-.8.3-1.1.1 1.3.7 3 1.7 4.2 2.4z" fill="#969224"/><path d="m134.8 137.2c.2-.1.4-.2.5-.3s.3-.3.4-.5c0 0 .1-.2.2-.3s.1-.2.1-.3c0 0 0-.1.1-.3 0-.1 0-.2 0-.3 0 0 0-.3-.1-.6-.1-.2-.1-.4-.2-.6-.1-.1-.2-.3-.3-.4s-.1-.1-.2-.2-.2-.1-.3-.2c.3.2.5.6.5 1.1 0 1-.8 2.3-1.7 2.8-.4.2-.8.3-1.1.1.1 0 .1.1.2.1s.2.1.2.1c.1 0 .2.1.3.1h.3.3c.1 0 .2 0 .3-.1.1 0 .2 0 .2-.1.1 0 .2 0 .3-.1z" fill="#969224"/><path d="m128.5 134.8 4.2 2.4c-.3-.2-.5-.6-.5-1.1l-4.2-2.4c0 .6.2.9.5 1.1z" fill="#f39c12"/><path d="m135.1 136.2c0 .1.1.2.2.1s.2-.2.2-.3-.1-.2-.2-.1c-.2 0-.2.2-.2.3z" fill="#fdb813"/><path d="m134.9 133.2-4.2-2.4c-.3-.2-.7-.2-1.1.1-.9.5-1.6 1.8-1.7 2.8l4.2 2.4c0-1 .8-2.3 1.7-2.8.4-.2.9-.2 1.1-.1z" fill="#f39c12"/><path d="m132.6 137.2c.1 0 .2.1.3.1s.2.1.2.1c.2 0 .2 0 .4.1h.3.3c.2 0 .2-.1.4-.1.1-.1.3-.1.3-.2 0 0 .1-.1.2-.2.2-.2.3-.3.5-.5.1-.2.2-.4.3-.6 0-.1.1-.2.1-.4 0-.1 0-.3 0-.3 0-.2 0-.3 0-.3 0-.1 0-.2-.1-.4 0-.1-.1-.4-.4-.7-.1-.1-.2-.2-.2-.3 0 0-.1-.1-.1-.1-.1 0-.2-.1-.2-.1-.3-.2-.7-.1-1.1.1-.9.5-1.6 1.8-1.7 2.8.8.5 2.1.5 2.9 0 0-.1.1-.2.2-.3s.2 0 .2.1-.1.2-.2.3-.2 0-.2-.1c-.8.5-2.1.4-2.9 0 0 .5.2.8.5 1z" fill="#fdb813"/></g><g enable-background="new"><path d="m117.5 144.5-3-1.7c0 .2.1.3.2.4l3 1.7c-.2-.1-.2-.2-.2-.4z" fill="#1a1a1a"/><path d="m125.1 131.9-3-1.7c-.1-.1-.3-.1-.4 0l3 1.7c.2-.1.3-.1.4 0z" fill="#6c6c6c"/><path d="m117.4 136.8-2.9-1.7v7.7l3 1.7z" fill="#1a1a1a"/><path d="m124.7 131.9-3-1.7-6.6 3.8 2.9 1.8z" fill="#808080"/><g enable-background="new"><path d="m118 135.8-3-1.7c-.1.1-.2.1-.3.2l3 1.7c.2-.1.2-.2.3-.2z" fill="#2e2e2e"/><path d="m117.8 136-3-1.7c-.1.2-.2.3-.3.5l3 1.7c0-.2.1-.4.3-.5z" fill="#2e2e2e"/><path d="m117.5 136.5-3-1.7v.3l3 1.7c-.1-.1-.1-.2 0-.3z" fill="#1a1a1a"/></g><g fill="#212121"><path d="m118 135.8c-.3.2-.6.7-.6 1.1v7.7c0 .4.3.5.6.3l6.7-3.8c.3-.2.6-.7.6-1.1v-7.7c0-.4-.3-.5-.6-.3z"/><path d="m124.5 140.5c.2-.1.3-.4.3-.6v-7.4l-6.5 3.7c-.2.1-.3.4-.3.6v7.4z"/></g></g><g enable-background="new"><path d="m131.5 139.4-8-4.6c-.5-.3-1.2-.3-2 .2l8 4.6c.8-.5 1.5-.5 2-.2z" fill="#252525"/><g enable-background="new"><path d="m129.5 139.6-8-4.6c-.2.1-.3.2-.5.3l8 4.6c.1-.1.3-.2.5-.3z" fill="#808080"/><path d="m129 139.9-8-4.6c-.3.3-.7.6-1 1l8 4.6c.3-.4.6-.7 1-1z" fill="#808080"/><path d="m128 140.9-8-4.6c-.8 1.1-1.4 2.4-1.4 3.7v.4l8 4.6c0-.1 0-.3 0-.4 0-1.3.6-2.7 1.4-3.7z" fill="#252525"/><g fill="#1a1a1a"><path d="m126.7 144.9-8-4.6c0 .4.1.7.3.9l8 4.6c-.2-.2-.3-.5-.3-.9z"/><path d="m127 145.9-8-4.6c.1.2.3.4.5.5l8 4.6c-.2-.1-.4-.3-.5-.5z"/></g></g><path d="m129.5 139.6c-1.6.9-2.9 3.1-2.9 5 0 1.8 1.3 2.6 2.9 1.6 1.6-.9 2.9-3.1 2.9-5 0-1.8-1.3-2.6-2.9-1.6z" fill="#1a1a1a"/></g><g enable-background="new"><path d="m134.9 139.6-5.9-3.4c-.7-.4-1.6-.3-2.7.3l5.9 3.4c1.1-.6 2-.7 2.7-.3z" fill="#2e2e2e"/><g enable-background="new"><path d="m132.2 139.9-5.9-3.4c-.2.1-.5.3-.7.5l5.9 3.4c.2-.2.5-.3.7-.5z" fill="#6c6c6c"/><path d="m131.5 140.4-5.9-3.4c-.5.4-.9.8-1.3 1.3l5.9 3.4c.5-.5.9-1 1.3-1.3z" fill="#6c6c6c"/><path d="m130.3 141.7-5.9-3.4c-1.1 1.4-1.8 3.2-1.8 4.8v.5l5.9 3.4c0-.2 0-.3 0-.5-.1-1.6.7-3.4 1.8-4.8z" fill="#2e2e2e"/><g fill="#1a1a1a"><path d="m128.5 147-5.9-3.4c.1.5.2.9.4 1.2l5.9 3.4c-.2-.3-.4-.7-.4-1.2z"/><path d="m128.9 148.3-5.9-3.4c.2.3.4.5.7.7l5.9 3.4c-.3-.2-.5-.5-.7-.7z"/></g></g><path d="m132.2 139.9c-2.1 1.2-3.8 4.2-3.8 6.6s1.7 3.4 3.8 2.2 3.8-4.2 3.8-6.6-1.7-3.4-3.8-2.2z" fill="#2e2e2e"/></g><g enable-background="new"><path d="m140.2 148.7 7.7-4.5-1.3-3.1-7.7 4.5z" fill="#2e2e2e"/><path d="m138.9 145.6 7.7-4.5-11.3-6.5-7.7 4.5z" fill="#808080"/><path d="m144 150.9 7.7-4.5-3.8-2.2-7.7 4.5z" fill="#808080"/><path d="m144 160.2 7.7-4.5v-9.3l-7.7 4.5z" fill="#2e2e2e"/><path d="m127.6 139.1v11.6l5.5 3.2 5.8 3.3 5.1 3v-9.3l-3.8-2.2-1.3-3.1z" fill="#1a1a1a"/></g><path d="m146.5 148.8v.4l3.1-1.8v-.4z" fill="#2e2e2e"/><path d="m146.7 145.4 2.9 1.6-3.1 1.8-2.9-1.6z" fill="#999"/><path d="m143.6 147.2 2.9 1.6v.4l-2.9-1.7z" fill="#262626"/><path d="m134 141.5v.3l3.1-1.8v-.3z" fill="#2e2e2e"/><path d="m134.2 138 2.9 1.7-3.1 1.8-2.9-1.7z" fill="#999"/><path d="m131.1 139.8 2.9 1.7v.3l-2.9-1.6z" fill="#262626"/><g enable-background="new"><path d="m134.3 141 1.4-.8v-3.5l-1.4.8z" fill="#0a0c0d"/><g enable-background="new" fill="#0a0c0d"><path d="m134.3 137.5 1.4-.8c0-.1 0-.2 0-.2l-1.4.8z"/><path d="m134.4 137.2 1.4-.8s0-.1.1-.1c0 0 .1-.1.1-.1l-1.4.8s-.1 0-.1.1c-.1 0-.1.1-.1.1z"/></g><path d="m135.1 134.8 1.4-.8c-.3-.2-.6-.3-.8-.3-.3-.1-.5-.1-.7 0-.1 0-.3.1-.4.2l-1.4.8c.1-.1.3-.1.4-.2h.7c.2.1.5.2.8.3z" fill="#2e2e2e"/><path d="m146.9 148.3 1.5-.8v-3.5l-1.4.8z" fill="#2e2e2e"/><path d="m144.3 140.1 1.4-.8-9.2-5.3-1.4.8z" fill="#737373"/><g enable-background="new"><path d="m147 144.8 1.4-.8c0-.1 0-.2 0-.3l-1.4.8c-.1.1 0 .2 0 .3z" fill="#2e2e2e"/><path d="m146.9 144.5 1.4-.8c0-.2-.1-.5-.1-.7-.1-.3-.2-.7-.3-1-.2-.4-.3-.7-.6-1l-1.4.8c.2.3.4.7.6 1 .1.3.3.7.3 1 .1.2.1.5.1.7z" fill="#2e2e2e"/><g fill="#737373"><path d="m145.9 141.8 1.4-.8c-.2-.3-.4-.6-.6-.8s-.3-.3-.5-.4l-1.4.8c.2.1.3.3.5.4.2.2.4.5.6.8z"/><path d="m144.8 140.5 1.4-.8c-.2-.2-.4-.3-.6-.4l-1.4.8c.3.1.4.3.6.4z"/></g></g></g><path d="m132.4 139.9v-3.5c0-.4.1-.8.2-1.1.2-.4.5-.7 1-.8h.7c.3.1.5.2.8.3l9.2 5.3c.4.2.7.5 1.1.9.5.5.9 1.1 1.2 1.8.1.3.3.7.3 1 .1.3.1.7.1 1v3.5l-1.9-1.1v-3.5c0-.1 0-.3-.1-.4-.1-.2-.2-.4-.3-.6-.1-.1-.1-.2-.2-.2-.1-.1-.1-.1-.2-.2l-9.2-5.3c-.1-.1-.2-.1-.3-.1s-.3 0-.3.1c0 0-.1.1-.1.2v.2 3.5c-.1.1-2-1-2-1z" fill="#1a1a1a"/><g enable-background="new"><path d="m148.8 151-1-.7c-.3-.2-.7-.1-1.1.1l1 .7c.4-.2.8-.2 1.1-.1z" fill="#808080"/><g enable-background="new"><path d="m147.6 151.2-1-.7c-.1.1-.2.1-.3.2l1 .7c.1-.1.2-.2.3-.2z" fill="#808080"/><path d="m147.4 151.4-1-.7c-.2.2-.4.3-.5.5l1 .7c.1-.2.3-.4.5-.5z" fill="#808080"/><g fill="#1a1a1a"><path d="m146.8 151.9-1-.7c-.5.6-.8 1.4-.8 2v.2l1 .7c0-.1 0-.1 0-.2 0-.6.3-1.4.8-2z"/><path d="m146 154.2-1-.7c0 .2.1.4.2.5l1 .7c-.1-.1-.1-.3-.2-.5z"/><path d="m146.2 154.7-1-.7.3.3 1 .7c-.1-.1-.2-.2-.3-.3z"/></g></g><path d="m147.6 151.2c-.9.5-1.6 1.8-1.6 2.8s.7 1.4 1.6.9 1.6-1.8 1.6-2.8c.1-1-.7-1.5-1.6-.9z" fill="#212121"/></g><path d="m130.7 142.2c0 .3-.2.4-.5.3-.3-.2-.5-.5-.5-.9 0-.3.2-.4.5-.3.2.1.5.5.5.9z" fill="#c41220"/><path d="m129.8 141.2c-.1.1-.1.2-.1.3 0 .3.2.7.5.9.1.1.3.1.4 0-.1.1-.2.1-.4 0-.3-.2-.5-.5-.5-.9 0-.1 0-.2.1-.3z" fill="#737373"/><path d="m129.3 141.4c0 .3-.2.4-.5.3-.3-.2-.5-.5-.5-.9 0-.3.2-.4.5-.3s.5.5.5.9z" fill="#5f861d"/><path d="m128.5 140.5c-.1.1-.1.2-.1.3 0 .3.2.7.5.9.1.1.3.1.4 0-.1.1-.2.1-.4 0-.3-.2-.5-.5-.5-.9-.1-.2 0-.3.1-.3z" fill="#737373"/><path d="m131.9 152.3-3.3-1.9c-.2-.1-.4-.5-.4-.8v-6.6c0-.3.2-.5.4-.3l3.3 1.9c.2.1.4.5.4.8v6.6c0 .3-.2.4-.4.3z" fill="#262626"/><path d="m128.5 142.6c-.1.1-.1.2-.1.3v6.6c0 .3.2.7.4.8l3.3 1.9h.2c-.1.1-.2.1-.3 0l-3.3-1.9c-.2-.1-.4-.5-.4-.8v-6.5c-.1-.3 0-.4.2-.4z" fill="#737373"/><path d="m143 153.8v4.6l-.9-.5v-4.6z" fill="#3b3b3b"/><path d="m142.7 153-.6.3.9.5.5-.3z" fill="#888"/><path d="m143.5 153.5-.5.3v4.6l.5-.3z" fill="#2e2e2e"/><path d="m141.1 152.7v4.6l-.8-.5v-4.6z" fill="#3b3b3b"/><path d="m140.8 151.9-.5.3.8.5.5-.3z" fill="#888"/><path d="m141.6 152.4-.5.3v4.6l.5-.3z" fill="#2e2e2e"/><g enable-background="new"><g enable-background="new"><path d="m141.2 148.3v.3.1-.4c0 .1 0 .1 0 0z" fill="#767a7c"/><path d="m141.2 148.4v.3c0 .1.1.1.2.2s.3.1.4.1v-.3c-.2 0-.3 0-.4-.1s-.1-.1-.2-.2z" fill="#8e9295"/><path d="m141.8 148.7v.3c.1 0 .3 0 .4-.1s.2-.2.2-.2v-.3c0 .1-.1.2-.2.2s-.2.1-.4.1z" fill="#767a7c"/></g><path d="m141.4 148.1c-.2.1-.2.3 0 .5.2.1.6.1.8 0s.2-.3 0-.5c-.2-.1-.6-.1-.8 0z" fill="#a3a8ab"/></g><g enable-background="new"><g enable-background="new"><path d="m142.7 149.1v.3.1z" fill="#767a7c"/><path d="m142.7 149.2v.3c0 .1.1.1.2.2s.3.1.4.1v-.3c-.2 0-.3 0-.4-.1s-.2-.2-.2-.2z" fill="#8e9295"/><path d="m143.3 149.4v.3c.1 0 .3 0 .4-.1s.2-.2.2-.2v-.3c0 .1-.1.2-.2.2-.1.1-.3.1-.4.1z" fill="#767a7c"/></g><path d="m142.9 148.8c-.2.1-.2.3 0 .5.2.1.6.1.8 0s.2-.3 0-.5c-.2-.1-.6-.1-.8 0z" fill="#a3a8ab"/></g><use fill="#808080" xlink:href="#t"/><path clip-path="url(#h)" d="m133.9 143.9.6-.3c-.1 0-.1 0-.1 0l-.6.3c0-.1 0-.1.1 0z" fill="#808080"/><path d="m135.5 144.8.6-.3-1.7-1-.5.4z" fill="#808080"/><use fill="#2e2e2e" xlink:href="#u"/><path clip-path="url(#i)" d="m135.7 148.9.6-.3s.1-.1.1-.1l-.6.3c-.1 0-.1 0-.1.1z" fill="#2e2e2e"/><path d="m135.7 148.7.6-.3v-3.6l-.6.3z" fill="#2e2e2e"/><use fill="#808080" xlink:href="#v"/><path clip-path="url(#j)" d="m135.7 145.1.6-.3c0-.1-.1-.3-.2-.3l-.6.3c.1.1.2.2.2.3z" fill="#808080"/><path d="m133.9 143.9c-.1-.1-.2 0-.2.1v3.6c0 .1.1.3.2.3l1.6 1c.1.1.2 0 .2-.1v-3.6c0-.1-.1-.3-.2-.3z" fill="#3b3b3b"/><path d="m139.5 150.3c-.1-.7-.5-1.4-1-1.9-.5-.6-1-1.1-1.6-1.5-.1 0-.1-.1-.2-.1s-.1.1-.1.2c0 .2 0 .4.2.5.1.2.3.3.4.4.5.5.7 1.2.9 1.9.2.5.4 1.4 1 1.5.6.3.5-.6.4-1z" fill="#ffc6a6"/><path d="m139.6 151.1c0-.3 0-.6-.2-.9-.1-.2-.2-.4-.4-.5-.9-1-1.9-1.9-2.9-2.8-.1-.1-.2-.2-.4-.2s-.3.2-.3.4.1.3.1.5c-.1-.1-.2-.3-.3-.4s-.3-.1-.5-.1c-.2.1-.2.3-.2.4 0 .2 0 .3.1.5-.1-.1-.2-.1-.3-.1s-.2 0-.3.1v.2c0 .4.1.8.3 1.2-.1 0-.2 0-.3.1s-.1.2-.1.3c0 .6.3 1.2.7 1.6.4.5.9.8 1.5 1.1.5.3 1.1.6 1.5 1 .1.1.3.2.5.2.1 0 .1-.1.2-.1.2-.1.3-.3.5-.4.3-.3.7-.6.8-1s0-.8 0-1.1z" fill="#ffd6bf"/><path d="m145.3 205.6c.1.8.6 1.6 1.2 2.2s1.4.9 2.2 1.2c1.9.7 6 2.9 7.3.1.2-.5.3-1 .2-1.4-.1-.7-.5-1.3-.9-1.9-.7-1-1.7-1.3-2.8-1.2-1.2.1-2.3-.5-3.3-.9-.9-.3-1.9-.6-2.8-.2-.5.3-.9.8-1 1.4-.1.2-.2.5-.1.7z" fill="#141414"/><path d="m170.8 205.6c.3.1.6.3.9.4.5.3 1 .9 1.2 1.5.3.9-.1 2-.9 2.5-1.5 1-2.8-.5-4.1-1.3-.8-.5-1.7-.7-2.6-1.1-.9-.3-1.7-.8-2.2-1.6-.8-1.2.2-2.2 1.3-2.5.7-.2 1.5-.1 2.3.1.4.1.8.3 1.3.5.4.2.6.2 1 .2.5.1 1.1.9 1.8 1.3-.1 0-.1 0 0 0z" fill="#141414"/><path d="m167.1 205c-.6-9.7-.6-10-3.6-19.3-.7-2.3-.6-3.8-.6-6.3-.1-11.4.5-6 .2-10.9-.1-2.1 1.2-4.1 3.3-4.2 1.9-.1 3.3 1.3 4.1 2.8 1 1.9 1.9 3.8 2 6.1.2 3.3-1 6.6-.8 10 .1 1.4.2 3.7.4 5 1.1 5.5 2.3 16 1.5 18.6-.6 1.8-1.7 2.8-5 .7-.5-.3-1-.6-1.3-1.2-.1-.4-.2-.8-.2-1.3z" fill="#024670"/><path d="m168.1 199.1c-.1-.8-.4-1.6-.5-2.4-.5-3-.6-5.7-1.6-8.5-.4-1.3-.6-3 .1-4.1.4-.6 1.4-.8 1.7-1.6 1.1-2.4 2-4.7 2.8-7.3.2-.9 1.1-1.2 1.9-1.6 0-.1 0-.3 0-.4-.1-2.2-1-4.1-2-6.1-.8-1.6-2.3-2.9-4.1-2.8-2.1.1-3.4 2.1-3.3 4.2.3 4.9-.3-.5-.2 10.9 0 2.5-.1 4 .6 6.3 3 9.4 2.9 9.6 3.6 19.3 0 .4.1.8.3 1.2s.5.7.9.9c.2-2.6.2-5.3-.2-8z" fill="#023150"/><path d="m155.7 175.2c1.1-2.2 2.7-6.2 5.8-5.5 1.6.4 3.9.7 4.8 1.8 1.3 1.5 5.6 4.6-.5 11-2.4 2.5-4 4.4-5.9 8.7-.3.7-.8 1.5-.9 2.2s0 1.4 0 2.1c-.3 3.6-1.7 11.5-2.7 12.3-1.3 1-4.5-1.4-4.9-2.1-.9-1.6.7-8 .9-10.6.4-3.4-.9-11 3.4-19.9z" fill="#085785"/><path d="m166.2 171.5c-.9-1.1-3.2-1.4-4.8-1.8-3.1-.8-4.7 3.3-5.8 5.5-.4.8-.7 1.6-1 2.4.7.5 1.4.9 2.2 1.2 1.3.4 2.5.9 3.9.6 1.7-.4 3.1-1.6 4.5-1.3 1 .2.7 1.9.1 2.6-1.8 2.1-3.3 3.9-4.9 6.1-3.4 4.9-2.7 10.3-3.7 15.9-.4 1.9-1 3.7-2 5.3.6.1 1.1.1 1.4-.1 1-.8 2.4-8.7 2.7-12.3 0-.7-.1-1.4 0-2.1s.6-1.5.9-2.2c1.8-4.3 3.5-6.2 5.9-8.7 6.3-6.5 1.9-9.6.6-11.1z" fill="#024670"/><path d="m154.5 161.7v.1c.3 1.1.5 2.2.6 3.3.2 1.6.3 3.1.3 4.7 0 .8 0 1.6-.1 2.4 0 .7-.3 1.5-.3 2.2 0 .3 0 .6.1.9.1.4.4.7.8 1 .8.6 1.8 1 2.9 1.1 1 .1 2.1 0 3.1-.2 2.5-.4 4.9-1.1 7.2-2.1 1.1-.5 2.2-1.1 3.1-2 1.8-1.9-1.2-6.1-1.3-8-.4-8.2 1-11.8.7-15-.2-1.8-.9-3.7-2.3-4.8-1.7-1.3-4.1-1.2-6.2-.9-2.3.4-4.6.9-6.8 1.9-1.8.8-4.2 2.2-4.5 4.4-.1.9.1 1.9.3 2.8.4 1.8.9 3.6 1.5 5.3.3.9.7 1.9.9 2.9z" fill="#333"/><path d="m170.8 165c-.4-8.2 1-11.8.7-15-.2-1.8-.9-3.7-2.3-4.8-.5-.4-1.1-.7-1.8-.8 0 .1.1.1.1.2 1.9 3.8 2.5 8.1 1.7 12.4-.9 4.3-.3 8.3 1.2 12.4.5 1.5.4 3.2 0 4.9.6-.4 1.2-.8 1.7-1.3 1.8-1.9-1.2-6.1-1.3-8z" fill="#202020"/><path d="m155.3 142.6c.2.2.3.5.5.7s.2.5.3.8c.1.2.1.4.2.6s.1.5.1.7c.1.4.3.9.6 1.2.4.4.9.6 1.5.6.6.1 1.2-.1 1.8-.2s1.2-.3 1.8-.6c.5-.2 1-.5 1.3-1 .2-.4.3-.9.2-1.3s-.3-.9-.5-1.2c-.4-.6-1-1.1-1.3-1.8-.2-.3-.2-.7-.3-1s-.2-.6-.1-1z" fill="#ffd6bf"/><path d="m152.4 142.9c.1 0 .1 0 0 0 .3.6.7 1 1.1 1.5.2.2.4.5.6.7.4.3.9.4 1.4.3.3 0 .4-.2.7-.3.2-.1.5-.1.7-.3.5-.4 2.7-.3 2.8-.9 0-.1 0-.3 0-.4 0-1.6-1.4-3.9-1.8-5.4-.4-1.4-1.4-2.5-2.6-3.4-1-.7-2.2-1.2-3.4-1.4-.1 0-.5.9-.6 1-.2.3-.4.5-.5.9-.1.5-.2 1-.2 1.5 0 .7.1 1.4.4 2.1.6 1.3.8 2.8 1.4 4.1z" fill="#ffd6bf"/><path d="m150.2 136c.2.3.5.4.8.5s.5.2.8.4c.3.1.5.3.6.6v.5c-.1.5-.2.9-.3 1.4 0 .3-.1.5 0 .8s.3.5.6.5h.2c.1-.1.1-.2.1-.3 0-.2.1-.4.1-.6.1-.2.1-.4.3-.5s.4-.1.5-.1c.4 0 .7.2 1 .5s.4.6.5 1c0 .1 0 .2.1.3 1.5 2.1 4.7 1.5 6 0 1.1-1.3 1-5.6.6-6.8-.5-1.5-1.3-2.6-2.5-3.4-2.1-1.3-4.2-1.1-6.1-.3-4 1.6-3.8 4.8-3.3 5.5z" fill="#1d232b"/><path d="m153.1 139.7c-.1.9.4 1.6 1 1.6s1.2-.6 1.3-1.5-.4-1.6-1-1.6c-.7 0-1.2.7-1.3 1.5z" fill="#ffd6bf"/><path d="m153.7 139.8c0 .4.2.7.5.8.3 0 .6-.3.6-.7s-.2-.7-.5-.8c-.3 0-.5.3-.6.7z" fill="#f5c2a6"/><path d="m151.7 149.3c-1.5 1.4-2.3 3.4-2.9 5.3-.5 1.4-.9 2.8-1.4 4.2-.5 1.8-1.1 3.5-1.2 5.4 0 .6.1 1.4.6 1.7.4.3 1 .2 1.4 0 .8-.3 1.5-1 2.1-1.6 2.7-2.6 5.2-5.6 6.2-9.3.4-1.4.6-2.8.1-4.2-.4-1.1-1.2-2-2.3-2.4-.9-.5-1.7 0-2.6.9z" fill="#474747"/><path d="m139.5 158.8c2.5 4 7.2 8.3 8.6 7.1.2-.1-.6-1.1-.4-1 0-2 0-3.9-.2-5.9-2.2-3.1-4.7-4.4-6.7-6.9-.7-.9-1.1-1-1.8-.7-3.2 1.5-2.8 2.2.5 7.4z" fill="#474747"/><ellipse cx="222.3" cy="188.3" fill="#a6c1e8" opacity=".3" rx="16.3" ry="9.4"/><path d="m224.6 176.6-2.9 20.9 1.2-.7 2.8-20.2z" fill="#211f26"/><path d="m238.9 171.2h-1.3l2.6 16.1 1.2-.7z" fill="#211f26"/><path d="m223.5 176.6-2.8 20.3 1 .6 2.9-20.9z" fill="#2b2730"/><path d="m237.6 171.2h-.9l2.5 15.5 1 .6z" fill="#2b2730"/><path d="m209.4 170.3-2.5 18.6 1.2-.7 2.4-17.9z" fill="#211f26"/><path d="m208.3 170.3-2.4 18 1 .6 2.5-18.6z" fill="#2b2730"/><g enable-background="new"><path d="m213.9 166.6-2.7 1.6-3.6.1v2.7c0 .3.2.6.5.8l15.4 8.9 1.3.7c.3.2.7.2 1 0l1.9-1.1v-13.7z" fill="#df3939"/><path d="m220.3 160.1c-.1.1-.2.2-.3.3l-12 6.9c-.7.4-.7 1.4 0 1.8l16.6 9.6c.3.2.7.2 1 0l13.4-7.8z" fill="#ff5c5c"/><path d="m239.2 171v2.6c-.2.1-12.8 7.5-12.8 7.5v-2.6c0-.1 12.8-7.5 12.8-7.5z" fill="#df3939"/></g><path d="m253.6 179.7c.3-.4.5-.9.7-1.3.2-.6.1-1-.2-1.4-.6-.1-1.3.1-2.2.3-.6.2-1.3.4-1.9.6-2.7.9-5.8.9-5.8.9s-.4 1.5-.3 2.7c0 .5.2.9.4 1.2.3.3 1.3.4 2.6.1.8-.2 1.7-.7 2.6-.8 1.8-.4 3.1-1.3 4.1-2.3z" fill="#252735"/><path d="m232.5 160.7c-3.5-1.5-7.3.8-11.1 2.5v7l13.9-4.2s.1-.1.1-.1c-.1-2.4-1-4.4-2.9-5.2z" fill="#085785"/><path d="m234.4 159.1c-1.9-.8-5-.5-6.8.6l-6.2 2.2v1.2c3.8-1.6 7.6-3.9 11.1-2.5 1.9.8 2.7 2.8 3 5.3 1.7-1.2 1.5-5.8-1.1-6.8z" fill="#023150"/><path d="m241.7 164.4c-.6-1-1.1-2.1-2.2-2.5-1.2-.5-1.8-.4-1.8-.4-.7 0-3.1.7-3.6.9-.4.1-1.5.5-2 .9l-6.4 3-7.5 3.5c-1 2.4-.4 4.2 1 5.3 1.8 1.4 4.9 1.6 7.3.1h.1c1.6-.9 4.6-3 7.2-4.8.6-.4 1.2-.8 1.8-1.2l8.2 11c1.1.4 4.6-.7 5.1-1.7-.1-.1-4.8-10.1-7.2-14.1z" fill="#085785"/><path d="m248.8 178.4s-4.7-9.9-7.1-13.9c-.6-1-1.1-2.1-2.2-2.5-1.2-.5-1.8-.4-1.8-.4-.7 0-3.1.7-3.6.9-.4.1-1.5.5-2 .9l-6.4 3-7.5 3.5c-.8 1.8-.6 3.2.1 4.3 3.5-2 6.9-3.8 10.5-6.2 4.1-2.8 9.6-4.8 12.8-.2 2.5 3.7 3.8 7.8 5.9 11.8.6-.5 1.2-.9 1.3-1.2z" fill="#024670"/><path d="m211.7 145.4 22.6-13.1-2.2-1.3-22.6 13.1z" fill="#8a4b32"/><g enable-background="new"><path d="m234.3 134-22.6 13.2v13.2 7.7l22.6-13.1v-13.2z" fill="#cccee1"/><path d="m211.7 147.2-2.2-1.3v13.2 7.7l2.2 1.3v-13.2z" fill="#eaeaf2"/></g><g enable-background="new"><path d="m249.7 168.5 22.6-13.1-2.2-1.3-22.6 13.1z" fill="#8a4b32"/><path d="m247.5 167.2v21.7l2.2 1.3v-21.7z" fill="#eaeaf2"/></g><g enable-background="new"><path d="m272.3 154-22.6 13.1v2 20.9l22.6-13.2v-21.7.1z" fill="#cccee1"/><path d="m272.3 154.2-22.6 13.1-40.2-23.2 22.6-13.1 12.6 7.2 12 7 4 2.3.5.3z" fill="#5e556a"/><path d="m209.5 144.1v2.1l40.2 23.2v-2.1z" fill="#eaeaf2"/></g><path d="m251.1 147.8v.2l1.3-1-.2-.1z" fill="#ccc"/><path d="m252.2 146.9.9-.7c.4-.3.6-.9.6-1.4l-.1-5.3h.3v5.3c0 .6-.3 1.1-.7 1.5l-.8.7-1.3 1v-.2z" fill="#ccbaba"/><path d="m244.7 144.2 6.3 3.6 2-1.6c.4-.3.6-.8.6-1.3v-2.1l-5.7-3.5v2.2.1c0 .5-.2.9-.6 1.2 0 0-.1 0-.1.1-.3.2-1.3.7-2.5 1.3z" fill="#f2f2f2"/><path d="m248 141.6 5.7 3.3v-4.7c-.4-.4-.7-.7-.7-.6-.1.1-3.7-.9-5-1.1v3.1c0-.1 0 0 0 0z" fill="#e0d7d7"/><path d="m251.1 147.8-6.4-3.6v.1l6.4 3.7z" fill="#f2eae6"/><path d="m247.3 142.9 5.8 3.3c.4-.3.6-.8.6-1.3l-5.7-3.3c0 .5-.2.9-.7 1.3.1-.1 0 0 0 0z" fill="#e9e5e5"/><path d="m212.9 135.8h27.6l.9-15.5h-28.5z" fill="#999"/><path d="m212.9 120.8h27.6v15.6h-27.6z" fill="#f0f0f0"/><path d="m213.5 121.4h26.4v14.4h-26.4z" fill="#153c57"/><g enable-background="new"><path d="m263.9 150 .9-.5v-15.7l-.9.6z" fill="#888"/><path d="m263.9 134.4.9-.6-23.4-13.5-.9.5z" fill="#999"/><path d="m240.5 120.8v15.7l23.4 13.5v-15.6z" fill="#fcfcfc"/><path d="m263.3 134.7-22.2-12.8v14.2l22.2 12.9z" fill="#153c57"/></g><g enable-background="new"><path d="m266.1 162.2h1.2v-15.7h-1.1z" fill="#fcfcfc"/><path d="m266.2 146.5h1.1l-2.5-12.7-.9.6z" fill="#d7d7d7"/><path d="m263.9 134.4v15.6l2.2 12.2.1-15.7z" fill="#858585"/><path d="m265.9 146.6-1.7-10-.1 13.4 1.8 10z" fill="#102a3d"/></g><path d="m262.5 135.6v8.5l-3.8 1.5-16.4-9.5c-.3-.2-.5-.6-.5-1v-11.5c0-.3.2-.5.5-.3l19.6 11.3c.4.2.6.7.6 1z" fill="#cadce0" opacity=".2"/><path d="m248.9 130.5c0 .4-.2.5-.5.3l-5.3-3.1c-.3-.2-.5-.6-.5-1v-2.3c0-.4.2-.5.5-.3l5.3 3.1c.3.2.5.6.5 1z" fill="#d7e0e9" opacity=".5"/><path d="m248.9 134.6c0 .4-.2.5-.5.3l-5.3-3.1c-.3-.2-.5-.6-.5-1v-2.3c0-.4.2-.5.5-.3l5.3 3.1c.3.2.5.6.5 1z" fill="#d7e0e9" opacity=".5"/><path d="m248.9 138.6c0 .4-.2.5-.5.3l-5.3-3.1c-.3-.2-.5-.6-.5-1v-2.2c0-.4.2-.5.5-.3l5.3 3.1c.3.2.5.6.5 1z" fill="#d7e0e9" opacity=".5"/><path d="m258.8 145.6-16.4-9.5c-.3-.2-.6-.6-.6-1v-11.5c0-.4.3-.5.6-.3l19.6 11.3c.3.2.6.6.6 1v8.5zm-16.5-22.3c-.3-.2-.5 0-.5.3v11.5c0 .3.2.8.5.9l16.4 9.5 3.8-1.5v-8.5c0-.3-.2-.8-.5-.9z" fill="#fff"/><path d="m243.2 136.7-.9-.5c-.3-.2-.6-.7-.6-1.1v-1.2l.1.1v1.2c0 .3.2.7.5.8l.9.5z" fill="#fff"/><path d="m258.8 145.7-1.9-1.2v-.1l1.8 1.1 3.8-1.5v-1.4l.1.1v1.4z" fill="#fff"/><path d="m262.6 137.2-.1-.1v-1.6c0-.3-.2-.7-.5-.8l-1.2-.7v-.1l1.2.7c.3.2.6.7.6 1.1z" fill="#fff"/><path d="m241.8 124.8-.1-.1v-1.2c0-.4.3-.5.6-.4l1.2.7v.1l-1.2-.7c-.3-.2-.5 0-.5.3z" fill="#fff"/><path d="m261.9 135.3-3.2-1.8v1l3.2 1.8z" fill="#fff" opacity=".2"/><path d="m249.8 129.6-.4-.8.4-.5.6.4.3.8-.3.4z" fill="#fff" opacity=".2"/><path d="m258.8 144.3-.3-.8.3-.4.6.3.3.9-.3.4z" fill="#fff" opacity=".2"/><g fill="#fff" opacity=".5"><path d="m256.4 132.3c.1.1.2.1.2.2 0 0 .1.1.1.1s.1.1.1.1.1.1.1.1c.1.1.1.1.1.1l-.2.5s0 0-.1-.1c0 0 0-.1-.1-.1 0 0-.1-.1-.1-.1s-.1-.1-.1-.1-.1-.1-.1-.1-.1-.1-.1-.1z"/><path d="m258.9 135.9s0 .1.1.2v.1s0 0-.1-.1c0 0-.1 0-.1-.1 0 0-.1 0-.1-.1-.1 0-.1-.1-.2-.1 0 0 0 0-.1 0s0-.1-.1-.1v-.1s0 0 0 0h.1s.1.1.2.1c0 0 .1 0 .1.1 0 0 0 0 .2.1-.1 0 0 0 0 0z"/><path d="m258.6 135.4c0 .1 0 .1 0 0 .1.1.1.1.1.1 0 .1.1.1.1.1s0 0-.1-.1c0 0-.1-.1-.2-.1-.1-.1-.3-.1-.3-.1s0 0 0 0 0-.1-.1-.1c0-.1-.1-.1-.1-.1s.1.1.3.1c.1.1.2.1.3.2z"/><path d="m258.3 134.9s0 .1.1.1c0 0 0 .1.1.1s0 0 0 0 0 0-.1 0c0 0-.1-.1-.2-.1h-.1-.1s0-.1-.1-.1 0 0 .1 0h.1c.1-.1.1 0 .2 0z"/><path d="m259.8 139.7v.1l-.5-.3v-.1z"/><path d="m259.8 139.5v.1l-.5-.2v-.1z"/><path d="m259.8 139.4-.5-.2v-.1z"/><path d="m259.8 139.2v.1l-.5-.2v-.1z"/><path d="m259.7 139v.1l-.4-.2v-.1z"/><path d="m259.7 138.9v.1l-.4-.2v-.1z"/><path d="m259.7 138.7v.1l-.4-.2-.1-.1z"/><path d="m259.7 138.5c0 .1 0 .1 0 0l-.4-.1z"/><path d="m257.9 134.2v.1l-.3.2v-.1z"/><path d="m257.8 134c0 .1 0 .1 0 0l-.2.3z"/><path d="m257.6 133.9h.1l-.3.3v-.1z"/><path d="m257.5 133.7.1.1-.3.3v-.1z"/><path d="m257.4 133.5.1.1-.3.3z"/><path d="m257.3 133.4.1.1-.3.3v-.1z"/><path d="m257.2 133.3-.2.4z"/><path d="m257.1 133.1v.1l-.2.3z"/><path d="m259.4 138c-.1 0-.1 0 0 0-.1.1 0 .2 0 .2s0 0 .1.1h.1s0 0 0-.1c-.1-.1-.2-.2-.2-.2z"/><path d="m259.3 137.7c-.1 0-.1 0 0 0 0 .2 0 .2.1.2 0 0 .1 0 .1-.1-.1-.1-.2-.1-.2-.1z"/><path d="m259.2 137.3s-.1 0-.1.1.1.1.1.1.1 0 .1-.1c0 0-.1-.1-.1-.1z"/><path d="m259.1 137s-.1.1 0 .1c0 .1.1.1.1.1s.1 0 0-.1c0-.1-.1-.1-.1-.1z"/><path d="m258.9 136.6s-.1.1 0 .1c0 .1.1.1.1.1s.1-.1 0-.1c0 0 0-.1-.1-.1z"/><path d="m258.8 136.3s-.1.1 0 .1c0 0 0 .1.1.1h.1v-.1c-.1-.1-.2-.2-.2-.1z"/><path d="m250.8 131.2.2-.2c.1 0 .1-.1.1-.1l.4.7s-.1.1-.1.1-.1.1-.1.1z"/><path d="m253.3 130.6c.1 0 .1 0 0 0h.1.1s-.1.1-.1.2 0 .1-.1.1v.1s0 0 0 0 0 0-.1 0-.1 0-.1 0 0 0 0-.1c0 0 0-.1.1-.2.1 0 .1-.1.1-.1z"/><path d="m252.9 130.6h.1.1s0 0 0 0v.1s0 .1-.1.2c0 .1 0 .1-.1.2v.1s0 0-.1 0h-.1s0 0 0-.1c0 0 0-.1 0-.2.2-.2.2-.2.2-.3z"/><path d="m252.6 130.5c.1 0 .1 0 0 0h.1.1s0 0 0 .1v.1.1c0 .1-.1.3-.1.3s0 0 0 0 0 0-.1 0h-.1s0-.1 0-.3v-.1c.1 0 .1-.1.1-.2z"/><path d="m256.3 132.3c0 .1.1.1 0 0l-.1.5z"/><path d="m256.2 132.2-.1.5-.1-.1z"/><path d="m256 132.1c.1 0 .1 0 0 0l-.1.5z"/><path d="m255.9 132h.1l-.1.5-.1-.1z"/><path d="m255.8 131.8v.1l-.1.5v-.1z"/><path d="m255.6 131.7.1.1-.1.5v-.1z"/><path d="m255.5 131.6.1.1-.1.5-.1-.1z"/><path d="m255.3 131.5.1.1v.5l-.1-.1z"/><path d="m252.1 130.6.3.6h-.1z"/><path d="m252 130.6.3.6h-.1z"/><path d="m251.8 130.6s.1 0 0 0c.1 0 .1 0 0 0l.3.6z"/><path d="m251.7 130.7h.1l.3.5-.1.1z"/><path d="m251.6 130.7h.1l.3.6h-.1z"/><path d="m251.5 130.8.1-.1.3.6h-.1z"/><path d="m251.4 130.8h.1l.3.6h-.1z"/><path d="m251.3 130.9c.1 0 .1-.1 0 0l.4.5z"/><path d="m255 131.6c0 .1 0 .1.1.2h.1c0-.2-.1-.3-.2-.2 0-.1 0-.1 0 0z"/><path d="m254.7 131.4c0 .1 0 .1.1.2s0 0 0-.1v-.1s0 0-.1 0c0-.1 0-.1 0 0z"/><path d="m254.4 131.3c0 .1 0 .1.1.2h.1s0 0 0-.1v-.1c0-.1-.1-.1-.2 0 .1-.1 0-.1 0 0z"/><path d="m254.2 131.1c0 .1.1.1.1.1s.1 0 .1-.1c-.1.1-.1 0-.2 0 0-.1 0 0 0 0z"/><path d="m253.9 131c0 .1.1.1.1.1s.1 0 .1-.1c0 0-.1 0-.2 0 0-.1 0 0 0 0z"/><path d="m253.6 131c.1.1.1.1.1.1s.1 0 .1-.1-.1-.1-.2 0c.1-.1 0-.1 0 0 0-.1 0-.1 0 0z"/><path d="m250.8 138s0 0-.1-.1c0 0 0 0 0-.1 0 0 0 0 0-.1 0 0 0-.1-.1-.1 0 0 0-.1-.1-.1v-.1c0-.1 0-.1 0-.1h.5v.1.1s0 .1.1.1c0 0 0 .1.1.1v.1.1.1z"/><path d="m249.9 134v-.1-.1s0 0 0 0v.1c0 .1.1.1.1.2 0 0 0 .1.1.1 0 0 0 .1.1.1 0 .1.1.1.1.1s0 .1 0 .1 0 0-.1-.1c0-.1-.1-.1-.1-.2-.1.1-.1 0-.2-.2 0 .1 0 .1 0 0z"/><path d="m249.9 134.5v-.1-.1s0 0 .1.1c0 0 0 .1.1.1 0 0 0 .1.1.1.1.1.2.3.2.3s0 0 0 0v.1.1s-.1-.1-.2-.3c-.1-.1-.2-.1-.3-.3z"/><path d="m249.9 135v-.3s.1.1.2.3c0 0 .1.1.1.1s0 .1.1.1c0 .1.1.1.1.1s0 .1 0 .1v.1s0 0-.1-.1c0-.1-.1-.1-.2-.2 0 0 0-.1-.2-.2.1 0 .1 0 0 0z"/><path d="m250.8 131.3.4.5z"/><path d="m250.7 131.4c0-.1 0-.1 0 0l.4.5z"/><path d="m250.6 131.5.1-.1.4.5-.1.1z"/><path d="m250.6 131.6v-.1l.4.5v.1z"/><path d="m250.5 131.7v-.1l.4.5z"/><path d="m250.4 131.8.1-.1.4.5h-.1z"/><path d="m250.4 131.9c0-.1 0-.1 0 0l.4.4z"/><path d="m250.3 132v-.1l.5.5h-.1z"/><path d="m250.1 135.7.4.1v.1z"/><path d="m250.1 135.9h.4z"/><path d="m250.2 136.1-.1-.1.5.1v.1z"/><path d="m250.2 136.3c0-.1 0-.1 0 0h.4z"/><path d="m250.3 136.5-.1-.1h.5v.1z"/><path d="m250.3 136.6h.4v.1z"/><path d="m250.4 136.8-.1-.1h.5v.1z"/><path d="m250.4 137v-.1h.4v.1z"/><path d="m250.4 132.5h.1s0-.1-.1-.2c0 0-.1-.1-.1 0s0 .1.1.2c-.1 0 0 0 0 0z"/><path d="m250.3 132.8s.1 0 0 0h.1s0-.1-.1-.2h-.1s0 0 .1.2c0-.1 0-.1 0 0z"/><path d="m250.2 133h.1s0-.1-.1 0c.1-.1.1-.2 0-.2 0 0 0 0-.1 0 .1.1.1.2.1.2z"/><path d="m250.2 133.3h.1v-.1s0-.1-.1-.1c0 0 0 0-.1 0 0 .1 0 .2.1.2z"/><path d="m250.1 133.6c.1 0 .1 0 0 0 .1-.1.1-.2 0-.2h-.1c.1.1.1.2.1.2z"/><path d="m250.1 133.9c.1 0 .1 0 0 0 .1-.1.1-.2 0-.2h-.1c0 .1.1.2.1.2z"/><path d="m256.4 143.3c-.1 0-.1 0 0 0-.1 0-.2-.1-.3-.1s-.1 0-.2-.1l-.1-.7s.1 0 .2.1h.2z"/><path d="m253.3 141.4s-.1-.1-.1-.1-.1-.1-.1-.1 0 0 .1 0h.2.1l.2.2h-.1-.1c-.1 0-.1 0-.2 0z"/><path d="m253.7 141.8c-.1 0-.1-.1 0 0-.1-.1-.1-.1-.1-.1-.1-.1-.1-.1-.1-.1s0 0 .1 0h.1c.1 0 .2-.1.2-.1s0 0 0 0 0 0 .1.1c.1 0 .1.1.1.1s-.1 0-.2.1c-.1 0-.2 0-.2 0z"/><path d="m254 142.1s-.1 0-.1-.1c0 0-.1 0-.1-.1s0 0 0 0h.1s.1 0 .1-.1h.1s.1 0 .1.1c0 0 .1 0 .1.1s0 0 0 0-.1 0-.1.1c0-.1-.1 0-.2 0z"/><path d="m250.9 138h-.1l.4-.1z"/><path d="m251 138.2-.1-.1.4-.1v.1z"/><path d="m251 138.4c0-.1 0-.1 0 0l.3-.2z"/><path d="m251.1 138.6v-.1l.3-.2.1.1z"/><path d="m251.2 138.7.3-.2.1.1z"/><path d="m251.3 138.9v-.1l.3-.1z"/><path d="m251.4 139.1v-.1l.3-.2v.1z"/><path d="m251.5 139.2.3-.3z"/><path d="m254.7 142.5h-.1v-.5h.1z"/><path d="m254.8 142.6h-.1v-.5h.1z"/><path d="m254.9 142.7v-.1-.5.1z"/><path d="m255.1 142.8-.1-.1v-.5h.1z"/><path d="m255.2 142.8h-.1v-.5h.1z"/><path d="m255.3 142.9-.1-.6z"/><path d="m255.5 143-.1-.1v-.5z"/><path d="m255.6 143-.1-.6z"/><path d="m251.9 139.6s0-.1 0-.2-.1-.1-.1-.1v.2c.1.1.1.1.1.1z"/><path d="m252.2 139.9s0-.1 0-.2-.1-.1-.1 0v.2z"/><path d="m252.4 140.2s0-.1 0-.2-.1-.1-.1 0v.2z"/><path d="m252.6 140.5c0-.1 0-.1 0 0 0-.1 0-.1 0-.1 0-.1-.1-.1-.1 0v.2c0-.2 0-.1.1-.1-.1 0 0 0 0 0z"/><path d="m252.9 140.7s0-.1 0-.2-.1-.1-.1 0v.2c0 .1.1.1.1 0z"/><path d="m253.1 141s0-.1 0-.2c0 0 0 0-.1 0v.1.1c.1.1.1.1.1 0z"/><path d="m259.8 139.8v.1.1.1.1.2.1l-.6-.4s0 0 0-.1 0-.1 0-.2c0 0 0 0 0-.1 0 0 0 0 0-.1v-.1c0-.1 0-.1 0-.1z"/><path d="m258.8 142.6s0 .1 0 0c-.1.1-.1.1-.1.1s0-.2 0-.3c0 0 0 0 0-.1 0 0 0 0 0-.1v-.1c0-.1 0-.1 0-.1s0 0 0 0 .1-.1.1-.1 0 0 0 .1v.1.1.1z"/><path d="m259 142.3s0 .1 0 0c-.1.1-.1.1-.1.1s0 0 0 0 0 0 0-.1 0-.1 0-.2v-.1s0 0 0-.1c0-.1 0-.1 0-.1s0 0 .1-.1 0 0 0 .1v.1.1c0 .1 0 .2.1.2-.1.1-.1.1-.1.1z"/><path d="m259.2 142.1c0 .1 0 .1 0 0-.1.1-.1.2-.1.2s0 0 0-.1v-.1s0 0 0-.1c0 0 0 0 0-.1 0-.2-.1-.3-.1-.3s0 0 0 0 0 0 0-.1v-.1s.1.2.1.3v.1.1.1c.1 0 .1.1.1.1z"/><path d="m256.4 143.2-.2-.5h.1z"/><path d="m256.5 143.3-.2-.6z"/><path d="m256.7 143.3h-.1l-.1-.6z"/><path d="m256.8 143.3c-.1 0-.1 0 0 0l-.2-.6z"/><path d="m256.9 143.3-.2-.6z"/><path d="m257.1 143.3h-.1l-.2-.6h.1z"/><path d="m257.2 143.3h-.1l-.2-.6h.1z"/><path d="m257.3 143.3h-.1l-.2-.6h.1z"/><path d="m259.5 141.6-.4-.4z"/><path d="m259.5 141.4v.1l-.4-.4v-.1z"/><path d="m259.6 141.3c-.1.1-.1.1 0 0l-.4-.3z"/><path d="m259.6 141.2-.5-.4h.1z"/><path d="m259.6 141v.1l-.4-.4z"/><path d="m259.7 140.9v.1l-.5-.4v-.1z"/><path d="m259.7 140.8-.5-.3v-.1z"/><path d="m259.7 140.6v.1l-.4-.4z"/><path d="m257.5 143c0-.1-.1-.1 0 0-.1-.1-.1-.1-.1-.1s-.1.1 0 .1c0 .1.1.1.1.1s0 0 0-.1z"/><path d="m257.7 142.9c-.1-.1-.1-.1-.1-.1v.1c0 .1.1.1.1.1s0 0 0-.1z"/><path d="m257.9 142.8c0-.1-.1-.1-.1-.1v.1.1s0 .1.1.1h.1c-.1-.1-.1-.1-.1-.2z"/><path d="m258.1 142.7c0-.1-.1-.1-.1-.1v.1.1s0 .1.1.1h.1c-.1-.1 0-.1-.1-.2z"/><path d="m258.3 142.6c0-.1-.1-.1-.1-.1v.1c0 .1.1.1.1.1s0 0 0-.1z"/><path d="m258.5 142.5c0-.1-.1-.1 0 0-.1-.1-.1-.1-.1-.1v.2c0 .1.1.1.1.1 0-.1 0-.1 0-.2z"/></g><path d="m222.4 126.1h-6.7c-.7 0-1.2-.6-1.2-1.2v-1.5c0-.7.6-1.2 1.2-1.2h6.7c.7 0 1.2.6 1.2 1.2v1.5c0 .7-.6 1.2-1.2 1.2z" fill="#d7e0e9" opacity=".5"/><path d="m222.4 130.7h-6.7c-.7 0-1.2-.6-1.2-1.2v-1.5c0-.7.6-1.2 1.2-1.2h6.7c.7 0 1.2.6 1.2 1.2v1.5c0 .7-.6 1.2-1.2 1.2z" fill="#d7e0e9" opacity=".5"/><path d="m222.4 135.4h-6.7c-.7 0-1.2-.6-1.2-1.2v-1.5c0-.7.6-1.2 1.2-1.2h6.7c.7 0 1.2.6 1.2 1.2v1.5c0 .6-.6 1.2-1.2 1.2z" fill="#d7e0e9" opacity=".5"/><path d="m234.9 135h-6.3c-2.2 0-4-1.8-4-4v-4.9c0-2.2 1.8-4 4-4h6.3c2.2 0 4 1.8 4 4v4.9c0 2.2-1.8 4-4 4z" fill="#d7e0e9" opacity=".5"/><path d="m247.3 161.7c0 .1 0 .1.1.2l.9.5v-.2s0-.1.1-.1l-.3-.2s0 0 0-.1v-.4s0 0 .1-.1l3.4-1.8h.2l.8.5c0-.1 0-.1 0-.2h.1l.6.4v.3l.4.3v.1.2l.4-.2c.1 0 .1-.1.1-.2v.4c0 .1 0 .1-.1.2l-4.1 2.2c-.2.1-.4.1-.6 0 0 0-2.1-1.3-2-1.4-.1-.1-.1-.3-.1-.4z" fill="#f2f2f2"/><path d="m248 161.4 3.4-1.8h.2l1.9 1.2c.1 0 .1.1 0 .1l-3.5 1.8c-.1 0-.2 0-.2 0l-1.9-1.2c.1 0 .1-.1.1-.1z" fill="#0e375b"/><path d="m248 161.5 3.4-1.8h.2l1.9 1.2c.1 0 .1.1 0 .1l-3.5 1.8c-.1 0-.2 0-.2 0l-1.9-1.2c.1 0 .1-.1.1-.1z" fill="#489f97"/><path d="m248.7 162.1c-.1-.1-.3-.1-.3 0-.1.1-.1.1 0 .2l.3.2c.1.1.3.1.3 0 .1-.1.1-.1 0-.2z" fill="#282a2e"/><path d="m254.1 160.6c.2.1.2.3 0 .4l-4.1 2.2c-.2.1-.4.1-.6 0l-1.9-1.2c-.2-.1-.2-.3 0-.4l4.1-2.2c.2-.1.4-.1.6 0zm-6.1.8c-.1 0-.1.1 0 .1l1.9 1.2h.2l3.5-1.8c.1 0 .1-.1 0-.1l-1.9-1.2c-.1 0-.2 0-.2 0zm.3.9.3.2c.1.1.3.1.3 0 .1-.1.1-.1 0-.2l-.4-.2c-.1-.1-.3-.1-.3 0s0 .2.1.2zm4.9-2.1-.6-.4h-.1v.1l.6.4s.1 0 .1-.1c.1.1.1 0 0 0z" fill="#f2f2f2"/><path d="m252.7 159.8h-.1v.1l.6.4h.1v-.1z" fill="#282a2e"/><path d="m225.7 144.2 5-2.9c.3-.2.9-.2 1.2 0l14.7 8.5c.3.2.3.5 0 .7l-5 2.9c-.3.2-.9.2-1.2 0l-14.7-8.5c-.3-.2-.3-.5 0-.7z" fill="#50475c"/><path d="m224.8 143.1c0 .1.1.3.3.4l.4.3v-.6l.9-.5.9.5-.5.3-.4-.2-.4.2.4.2.9-.5.4-.2c0-.1.1-.2.2-.4l-.3-.2v-.6l.9-.5.2.1v-.2l.9-.5.2.1v-.2l.9-.5.9.5v.1l.1-.1.9.5v.1l.1-.1.9.5v.1l.1-.1.9.5v.1l.1-.1.9.5v.1l.1-.1.9.5v.1l.1-.1.9.5v.1l.1-.1.9.5v.1l.1-.1.9.5v.1l.1-.1.9.5v.1l.1-.1.9.5v.1l.1-.1.9.5v.1l.1-.1.9.5v.1l.1-.1.9.5v.5l.4-.3.9.5v.5l.4-.2c.2-.1.2-.2.2-.3v.6c0 .1-.1.3-.2.3l-5 2.9c-.3.2-.9.2-1.2 0l-14.7-8.5c-.2-.1-.3-.2-.3-.4-.3.8-.3.6-.3.4z" fill="#e4e4ed"/><path d="m225 142.8 5-2.9c.3-.2.9-.2 1.2 0l14.7 8.5c.3.2.3.5 0 .7l-5 2.9c-.3.2-.9.2-1.2 0l-14.7-8.5c-.3-.2-.3-.5 0-.7z" fill="#fff"/><path d="m240.3 151.8c-.2 0-.3 0-.4-.1l-14.7-8.5 5-2.9c.1-.1.3-.1.4-.1.2 0 .3 0 .4.1l14.7 8.5-5 2.9s-.2.1-.4.1z" fill="#f2f2f2"/><g fill="#4d4d4d"><path d="m230.8 140.5-.8.4.8.5.9-.5z"/><path d="m231.8 141-.9.5.9.5.8-.5z"/><path d="m232.7 141.5-.8.5.8.5.8-.5z"/><path d="m230.8 141.6-.9.5.8.4.9-.4z"/><path d="m228.8 141.6-.8.5.8.5.8-.5z"/><path d="m233.6 142.1-.8.5.8.4.9-.5z"/><path d="m229.7 142.2-.8.5.8.4.8-.4z"/><path d="m234.6 142.6-.9.5.9.5.8-.5z"/><path d="m230.7 142.7-.9.5.8.5.9-.5z"/><path d="m235.5 143.1-.8.5.8.5.8-.5z"/><path d="m233 142.9-.8.5 2.3 1.3.8-.5z"/><path d="m237.4 144.2-.9.5.9.5.8-.5z"/><path d="m235.4 144.3-.8.5.8.4.8-.4z"/><path d="m231.9 143.5-.9.6-.6.3-.3.2 1.4.8.8-.5-.4-.3 1-.5z"/><path d="m238.3 144.8-.8.4.8.5.8-.5z"/><path d="m236.3 144.8-.8.5.8.5.9-.5z"/><path d="m235 145.2-.8.5.8.5.8-.5z"/><path d="m239.2 145.3-.8.5.8.5.9-.5z"/><path d="m237.3 145.4-.9.4.9.5.8-.5z"/><path d="m235.9 145.8-.8.5.8.4.9-.5z"/><path d="m240.2 145.8-.9.5.8.5.9-.5z"/><path d="m238.2 145.9-.8.5.8.5.8-.5z"/><path d="m231.9 145.8-.8.5 1.6.9.8-.5z"/><path d="m236.9 146.3-.9.5.8.5.9-.5z"/><path d="m241.1 146.4-.8.5.8.4.8-.5z"/><path d="m239.1 146.4-.8.5.8.5.9-.5z"/><path d="m237.8 146.8-.8.5.8.5.8-.5z"/><path d="m242 146.9-.8.5.8.5.8-.5z"/><path d="m240.1 147-.9.5.9.4.8-.5z"/><path d="m238.7 147.4-.8.4.8.5.8-.5z"/><path d="m243 147.5-.9.4.8.5.9-.5z"/><path d="m241 147.5-.8.5.8.5.8-.5z"/><path d="m239.6 147.9-.8.5.8.5.8-.5z"/><path d="m244.2 148.2-.8.5.8.4.8-.5z"/><path d="m240.6 148.4-.9.5.8.5.9-.5z"/><path d="m233.6 146.8-.8.5 4 2.3.8-.5z"/><path d="m242 148.1-.9.5 2.1 1.1.8-.5z"/><path d="m241.5 149-.9.4 1.5.9.9-.5z"/><path d="m237.7 149.2-.8.5 1.4.8.8-.5z"/><path d="m239.3 150.1-.8.5 1.6.9.8-.5z"/><path d="m229.8 141-.8.5.8.5.8-.5z"/><path d="m231.7 142.1-.9.5.9.5.8-.5z"/><path d="m226.9 142.9-.9.5.8.4.9-.4z"/><path d="m227.8 143.4-.1.1-.7.4.8.5.8-.5-.1-.1z"/><path d="m228.7 142.9-.1.1-.7.4.8.4.8-.4-.1-.1z"/><path d="m236.4 143.7-.8.5.8.4.9-.4z"/><path d="m228.7 143.9-.8.5.8.5.8-.5z"/><path d="m233.2 144.2-.9.5.9.4.8-.5z"/><path d="m234.1 144.7-.8.5.8.5.8-.5z"/><path d="m230 144.7-.8.5 1.7 1 .8-.5z"/><path d="m239 148.7-.8.5.8.5.8-.5z"/><path d="m238.9 148.7-.8-.5-.8.5.8.5z"/><path d="m238 148.1-.8-.4-.9.4.9.5z"/><path d="m237.1 147.6-.8-.5-.9.5.8.5z"/><path d="m236.1 147.1-.8-.5-.8.5.8.4z"/><path d="m235.2 146.5-.8-.4-.8.4.8.5z"/><path d="m234.3 146-.8-.5-.9.5.9.5z"/><path d="m233.4 145.5-.8-.5-.9.5.8.5z"/><path d="m242 150.4-2.1-1.1-.8.4 2 1.2z"/></g><path d="m233.3 142.4c.6-.1.5-.4.3-.6-.1-.1-.2-.1-.3-.1-3-.8-3-.7-5.5.6-.1 0-.2 0-.2 0l-5.5-.1v3.7c2.4-.5 5.5-1.2 5.5-1.2.4.2.6.2 1 .3 1.6.2 3.7-.2 3.7-.6 0-.3-.2-.5-.5-.5-.6-.1-.8.2-1.8-.2.4-.6 1.1-.9 1.7-.8s1.3.5 1.9.4c1.2.1 0-.6-.3-.9z" fill="#ffd6bf"/><path d="m226.5 175.1c-2.7 1.7-7.7 1.4-10.9-.4-.2-.1-.3-.2-.4-.3-.1 0-.1-.1-.2-.1-1.2-.8-2-1.9-2.2-4.4-.1-1.1 0-2.4.3-3.8h13l.4 7.6z" fill="#085785"/><path d="m220.9 144.9c-.1-.1-1.7-2.4-2.6-3.5-.7-.8-1.5-1.4-2.6-1.7-2.1-.7-4.1 1.4-4.1 3.2 0 1 .5 1.9 1.2 2.6.9 1 2.2 3 4.2 4.4 1.7-1.2 3.2-3.1 3.9-5z" fill="#3178a8"/><path d="m223.2 138.1v.3 2.7s-.2.4-.6.7c-.1 0-.1 0-.2 0-1.9-.2-4.2.1-4.3.1v-4.2h.2l3.5.3z" fill="#ffd6bf"/><path d="m228.7 158.7c0 2.6.4 9.7.5 11.9 0 .4-.2.9-.6 1.1-1.1.6-2 1-3.1 1.2-.5.1-1 .1-1.6.2-2.2.2-4.6.1-6.8-.3-1.6-.3-3.2-.9-4.4-1.9-.3-.2-.5-.6-.5-1-.1-2.4 1.2-9.1 1.2-11.7 0-4.5-2.5-9.1-2.4-11.6.1-2.1-.2-6.2 6-6.9.9-.1 3.4.4 6 1.3 2.8 1 5.5 2.8 5.8 6 0 0 1.3-.1 1 1.4-.3 2.4-.8 5.8-1 8.3 0 .8-.1 1.5-.1 2z" fill="#42a4e6"/><path d="m229.2 170.7c-.1-2.2-.5-9.3-.5-11.9 0-.5.1-1.2.1-2 .2-2.5.7-5.9 1-8.3.2-1.6-1-1.4-1-1.4-.2-2-1.4-3.5-3-4.6-.7-.1-1.4.3-2.1.5-2.8 2-.6 6.4-.2 7 5 6.6 3.8 14.7 3.7 22.3v.2c.5-.2.9-.4 1.4-.7.4-.3.6-.7.6-1.1z" fill="#3178a8"/><path d="m225.8 130.6c.6 3.1.8 6.4-.7 7.9-.5.5-1.2.6-2 .6-.2 0-.3 0-.5 0-.9-.1-1.8-.4-2.3-.7-.8-.4-2-3.1-2.4-4-1.1-3 1.2-3.5 2.9-5.2 1.8-1.8 4.4-1.7 5 1.4z" fill="#ffd6bf"/><path d="m223.7 125.5c-.9-.5-2-.8-3-.9-1.2-.2-2.3-.2-3.4.3-1.8.9-3.1 2.6-3.7 4.5-.3 1-.4 2-.4 3 0 .7.4 1.3.6 2 .8 1.3 3 3.7 3.1 3.7.4.3 1.1.5 1.6.6.8.2 1.3-.5 1.7-1.1.3-.6.4-1.3.5-2 .1-.4.1-1.1.4-1.4.5-.5 1.3.1 1.9-.2.9-.5.7-1.7.7-2.6 0-.5.1-1 .5-1.4.6-.6 1.3-.5 1.7-1.4.4-.8-.3-2-2.2-3.1z" fill="#b62c2c"/><path d="m213.3 132.7c.1.6.4 1.2.6 1.8.8 1.3 3 3.7 3.1 3.7.4.3 1.1.5 1.6.6.8.2 1.3-.5 1.7-1.1.3-.6.4-1.3.5-2 .1-.4.1-1.1.4-1.4.5-.5 1.3.1 1.9-.2.9-.5.7-1.7.7-2.6 0-.3 0-.5.1-.7-3.6-.5-8-.3-10.6 1.9z" fill="#951616"/><path d="m222.3 134.4c.4.7.3 1.5-.2 1.8s-1.2 0-1.6-.7-.3-1.5.2-1.8c.4-.3 1.2.1 1.6.7z" fill="#ffd6bf"/><path d="m221.8 134.7c.2.3.2.7-.1.9s-.6 0-.8-.4c-.2-.3-.2-.7.1-.9.2-.1.6.1.8.4z" fill="#f5c2a6"/><path d="m252.9 154.2-6 3.5-6.1-3.5 6.1-3.5z" fill="#ff5c5c"/><path d="m244.8 155.6c.2.2.4.3.6.3.4.1.8 0 1.2-.2.8-.2 1.5-.5 2.2-.9.3-.2.6-.4.8-.7.1-.2.1-.5-.1-.6-.1-.1-.2-.1-.4-.1-.9 0-1.8.3-2.7.6-.2.1-.4.2-.6.3-.3.2-.6.5-.8.8z" fill="#df3939"/><path d="m246.7 153.6-.4.2v2l2.8-1.6v-.6z" fill="#f2f2f2"/><path d="m248.9 154.3c-1.1.3-1.7.6-2.2 1.2-.4.4-.9.6-1.4.3-.4-.2-.6-.5-.6-.9 0-.1 0-.3.1-.4.4-.9 1.4-1.7 2.4-2 .7-.2 1.7-.1 2.1.6 0 0 0 .1.1.1v.1c.1.4.2.8-.5 1z" fill="#f2f2f2"/><path d="m245.6 153.9c-.2.2-.3.5-.4.7-.1.3.1.8.5.7.3 0 .6-.2.9-.4.4-.3.8-.6 1.1-.9.2-.2.6-.5.5-.8-.4-1.1-2.3.2-2.6.7z" fill="#fff"/><path d="m249.3 153.3c-.7-.2-1.4-.1-2.1.2.6-.5 1.3-.6 2-.4.1.1.1.1.1.2 0-.1 0 0 0 0z" fill="#f2f2f2"/><path d="m257 157.9c.8.4.8 1.2 0 1.6s-2 .4-2.8 0-.8-1.2 0-1.6c.8-.5 2-.5 2.8 0z" fill="#50475c"/><g enable-background="new"><path d="m256.3 158.4-.2-.1c0-.1.1-.1.1-.2.1-.1.1-.2.1-.3l.2.1c0 .1-.1.2-.1.3 0 0 0 .1-.1.2z" fill="#0c93bd"/><path d="m257.5 155.7.2.1v.5c-.2.7-.5 1.2-1 1.5l-.2-.1c.5-.3.9-.8 1-1.5 0-.3 0-.5 0-.5z" fill="#be2323"/><path d="m257.7 155.3.2.1c-.1-.1-.3 0-.5.1l-.2-.1c.2-.1.4-.2.5-.1z" fill="#ff5c5c"/><path d="m256.9 156.2-.2-.1c0-.1 0-.3.1-.4l.2.1c-.1.1-.1.2-.1.4z" fill="#0fb4e7"/><path d="m256.9 155.7-.2-.1c.1 0 .4-.2.5-.2l.2.1c-.1 0-.4.2-.5.2z" fill="#ff5c5c"/><path d="m257.4 155.5c.4-.2.8-.3.6.7-.2 1.1-.8 1.7-1.4 2-.1.1-.2.1-.3.1 0-.1.1-.1.1-.2.1-.1.1-.2.1-.3.5-.3.9-.8 1-1.5.1-.3.1-.5 0-.5 0 0-.1 0-.3.1-.1.1-.5.2-.5.3 0-.1 0-.3.1-.4.2-.1.5-.3.6-.3z" fill="#df3939"/></g><g enable-background="new"><use fill="#df3939" xlink:href="#w"/><g clip-path="url(#k)" enable-background="new" fill="#df3939"><path d="m257 155.2v3.2c0 .3-.2.5-.5.7s-.6.3-1 .3v-3.2c.4 0 .7-.1 1-.3s.5-.4.5-.7z"/><path d="m255.5 156.2v3.2c-.5 0-1.1-.1-1.5-.3-.3-.2-.5-.5-.5-.7v-3.2c0 .3.2.5.5.7.5.3 1 .4 1.5.3z"/></g><path d="m256.5 154.5c.7.4.7 1 0 1.4s-1.8.4-2.4 0c-.7-.4-.7-1 0-1.4.6-.4 1.7-.4 2.4 0z" fill="#ff5c5c"/><path d="m256.3 154.6c.6.3.6.9 0 1.2s-1.5.3-2 0c-.6-.3-.6-.9 0-1.2.5-.3 1.4-.3 2 0z" fill="#f1f2f2"/><path d="m254.2 155.8c.6.3 1.5.3 2 0 .2-.1.3-.3.4-.4-.1-.2-.2-.3-.4-.4-.6-.3-1.5-.3-2 0-.2.1-.3.3-.4.4.1.1.2.3.4.4z" fill="#4f221d"/></g><path d="m254.1 154.5c0-.3.1-.5.2-.8s.1-.6 0-.8c.2.5.5.9.6 1.5v.5c0 .2-.1.7-.4.4-.3-.2-.4-.5-.4-.8z" fill="#474747"/><path d="m254.5 152.7c0 .2.2.4.4.6s.3.4.4.6c.1.3.1.7-.1 1-.1.1-.1.2-.2.3v.4c0-.1 0-.2.1-.2.1-.1.2-.1.2-.2.2-.1.2-.4.3-.6s.1-.4.1-.6c0-.1-.1-.2-.2-.3-.2-.2-.5-.4-.7-.7-.1-.1-.1-.2-.2-.3 0-.1 0-.3-.1-.4.1-.3 0 .2 0 .4z" fill="#474747"/><path d="m255.8 153.5c.1.2.2.3.3.4s.1.3.1.5 0 .4-.1.6-.3.3-.4.5c.1 0 .2-.1.3-.1s.1 0 .2-.1.2-.3.2-.5c0-.3.1-.6-.1-.9-.1-.2-.3-.3-.4-.4s-.2-.2-.2-.3c0 .1 0 .2.1.3z" fill="#474747"/><path d="m242.1 153.3c.8-.3 3.5-1 4.3-1.3 0 0 .7-.1 1-.1h.3c.1 0 .2.1.2.2s0 .2-.1.2c-.1.1-.1.1-.2.1-.3.1-.7.2-1 .3-.8.2-1.6.3-2.4.5z" fill="#f5c2a6"/><path d="m248.1 154.6c-.1 0-.1-.1-.2-.1-.4-.1-.3-.1-.7-.1-.1 0-.9 0-1-.1 0-.1 0-.1.1-.2.1 0 .9-.1 1-.1.4 0 .7 0 1-.1.1 0 .2-.1.2-.2s-.1-.2-.1-.3c-.1-.1-.2-.1-.3-.1-.4 0-1.6.1-2 .1 0-.1.9-.3 1-.4.2-.1 1.1-.2 1.3-.2s.4 0 .5-.2c0-.1.1-.1 0-.2 0 0 0-.1-.1-.1-.3-.2-3.7 0-4.1.1-1.6.5-2.2.7-3.3.7-.3 0-6.3-1.3-7.8-2-1.2-.6-3.8-5.6-4.7-6.6-.7-.8-1.3-1.7-2.3-2.1-2.1-.7-3.7 1.7-3.6 3.5 0 1 .4 1.9 1 2.6 1.6 1.6 4.4 6.6 8.4 7.4 3.4.6 7.8.4 10.4-.1 0 0 1.4.3 2.8-.2.5-.2.8-.6 1.3-.7.5 0 .5.1 1-.1s.1-.1.1-.1c.2.1.2 0 .1-.1z" fill="#ffd6bf"/><path d="m232.1 148c-.1-.1-2.2-2.3-3.1-3.4-.7-.8-1.3-1.7-2.3-2.1-2.1-.7-4 1.5-3.9 3.4.1 3.3 3.1 6.2 5.1 7.7 1.5-1.3 3.6-3.7 4.2-5.6z" fill="#42a4e6"/><path d="m205.3 147.3c.2-2 2.2-2.3 2.9-2l12.4 6.9c.3.2.5.6.5 1l.7 4.4h-15.4z" fill="#eb6262"/><path d="m221.1 152.8 5.6 28.2-1.7 1.3-17.5-18.7-1.1-6z" fill="#df3939"/><path d="m224.7 181.3s-3.5-19.5-4.8-26.7c-.1-.4-.3-1-.6-1.2l-12.4-6.9c-.6-.4-1.5 0-1.6.8l2.3 24c-.1-.1 17.1 10.4 17.1 10z" fill="#ff5c5c"/><path d="m253.3 139.5v-.4c-.1 0-.3-.1-.4-.2v.4c0 .1.1.2.2.2h.1z" fill="#6a667f"/><path d="m253.3 139.5v-.4c-.1.1 0 .2 0 .4-.2 0-.3-.1-.4-.2 0 .1.1.2.2.2h.1z" fill="#6a667f" opacity=".2"/><path d="m253 139.1c-.1-.1-.2-.2-.2-.2 0-.1 0-.1.1-.1h.1.1c.1.1.2.2.2.2 0 .1 0 .1-.1.1 0 .1-.1.1-.2 0z" fill="#78738e"/><path d="m256.7 138.7c-.2-.3-.4-.5-.6-.6-.1-.1-.3-.1-.4-.2-.1 0-.1 0-.1.1s.1.1.1 0h.1c.1 0 .1.1.2.1.1.1.2.1.4.3.1.1.2.3.3.5h.2c-.1-.1-.2-.2-.2-.2z" fill="#0d0d0d"/><g enable-background="new"><g clip-path="url(#l)" enable-background="new"><path d="m253.6 133.8-.1-.1c0-.1 0-.1-.1-.2l.1.1c.1.1.1.1.1.2z" fill="#444152"/></g><g clip-path="url(#m)" enable-background="new"><path d="m253.5 131.3-.1-.1s.1.1.1.1l.1.1s-.1-.1-.1-.1z" fill="#444152"/></g><g clip-path="url(#n)" enable-background="new"><path d="m251.4 131.6-.1-.1c.2.2.5.6 1.1.5h.1c.5-.1.8-.7.8-.8l.1.1c0 .2-.3.7-.8.8h-.1c-.5.1-.9-.3-1.1-.5z" fill="#444152"/></g><g clip-path="url(#o)" enable-background="new"><path d="m251.7 134.7-.1-.1c-.3-.3-.5-.8-.5-1.4-.1-.6 0-1.4.3-1.8l.1.1c-.2.4-.3 1.2-.3 1.8s.2 1.1.5 1.4z" fill="#444152"/></g><path d="m253.5 131.3c.7.6.4 2 .2 2.5 0-.2-.4-.6-.8-.5-.1 0-.3.1-.4.2s-.3.3-.4.5-.3.5-.3.8c-.3-.3-.5-.8-.6-1.4s0-1.4.3-1.8c.1.2.5.7 1.1.6h.1c.4-.2.7-.8.8-.9z" fill="#59556c"/><g fill="#6a667f"><path d="m251.6 134.6c-.2-.3-.4-.8-.4-1.2-.1-.5 0-1.2.2-1.7.1.2.3.3.5.4s.4.2.7.1h.1c.4-.1.7-.5.8-.8.1.1.2.2.2.4.2.6 0 1.3-.1 1.8-.1-.1-.2-.2-.3-.3s-.3-.1-.5-.1c-.1 0-.3.1-.4.2-.2.2-.3.3-.4.5-.2.1-.3.4-.4.7z"/><path d="m253.5 131.4c-.1.1-.2.3-.3.5-.1.4-.2.8-.2 1.3.1 0 .2 0 .3.1 0-.7.1-1.3.2-1.9z" opacity=".5"/><path d="m253.5 133.5s.1.1 0 0c.2-.2.3-.8.3-1.3-.1.4-.2.9-.3 1.3z" opacity=".5"/><path d="m252 132.2c-.1.7-.3 1.4-.3 2.1.1-.2.1-.3.2-.5 0 0 0-.1.1-.1.1-.5.2-1 .2-1.5-.1 0-.1 0-.2 0z" opacity=".5"/><path d="m251.7 131.9c-.2.6-.3 1.1-.4 1.8 0 .2.1.3.1.4.1-.7.3-1.4.4-2.1 0 0-.1 0-.1-.1z" opacity=".5"/></g></g><path d="m253.8 136c0-.1-.1-.3-.1-.5 0 0 0-.1-.1-.1v-.1s0 0 0-.1c-.1-.2-.2-.3-.3-.4s-.4-.5-.4-.5v.3.2c.1.3.3.5.4.8.1.1.1.2.2.3l.3.3h.1.1c-.2 0-.2-.1-.2-.2 0 .1 0 .1 0 0z" fill="#e9c2b0"/><path d="m254.4 135.6c0 .1-.1.2-.1.2s-.2.2-.2.2c0 .1-.2.1-.2.1-.1 0-.1 0-.2-.1-.1-.1-.2-.3-.3-.4.1 0 .2-.1.2-.1s0-.1.1-.1c.1-.2.2-.5.3-.7 0-.1.1-.1.2-.2.2-.1.5.2.5.3 0 .4-.2.7-.3.8z" fill="#e9c2b0"/><path d="m254.7 134.9c0-.1 0-.1 0 0-.1-.1-.3-.5-.5-.4 0 .2 0 .5.1.8 0 .1.1.3.1.4v.1c0-.1.1-.1.1-.2s.2-.4.2-.7z" fill="#deb29e"/><path d="m254.1 133.6c-.1-.2-.3-.3-.3-.5-.1-.2-.1-.5 0-.6s.3-.2.4-.2c.2 0 .4 0 .6.1-.2 0-.3.1-.4.2s-.1.1-.2.3c0 .1 0 .2.1.4.1.1.2.2.2.3 0 0 .1.1.1.1 0 .1.1.1.1.2s0 .1-.1.1c-.1.1-.2.2-.3.1.1-.2 0-.4-.2-.5z" fill="#f0fafc"/><path d="m254.4 132.5c.1-.1.3-.2.4-.2h-.1c-.2 0-.5.1-.6.3s0 .5.2.7v.1c-.1-.1-.3-.3-.4-.2v.1c.1.1.1.2.2.3s.2.3.4.4c.1.1.2 0 .3-.1 0 0 .1-.1.1-.1 0-.1 0-.1-.1-.2 0-.1-.1-.1-.1-.1-.1-.1-.2-.2-.2-.3-.1-.1-.1-.3-.1-.4-.1-.2-.1-.2 0-.3z" fill="#e5ebec" opacity=".7"/><path d="m254.5 136.8c0 .1-.1.2 0 .4s.2.3.3.4.3.2.4.3.3.1.4.1.2-.1.2-.2c0-.2-.1-.5-.1-.6 0-.3.2-.5.2-.8 0-.1 0-.2 0-.3s0-.1 0-.2c-.1-.2-.4-.5-.6-.6-.1-.1-.2-.2-.3-.2s-.5-.3-.6-.4c-.1 0-.2-.1-.3 0 0 .2 0 .6.1.8.1.3.4 1 .3 1.3z" fill="#e9c2b0"/><path d="m254.4 135.1c.1 0 .1 0 .2.1.1 0 .1 0 .2.1 0 .1.1.2.1.2v.4c0 .1-.1.2-.2.2s-.1 0-.2-.1c0-.1-.1-.1-.1-.2 0-.2-.1-.3-.1-.5 0-.1 0-.2 0-.2z" fill="#ffd6bf" opacity=".3"/><path d="m254.9 135.8c0 .1 0 .3.1.5s.2.3.3.3c0 0 .1 0 .1-.1s.1-.1.1-.2 0-.2 0-.3-.1-.2-.2-.3-.2-.2-.3-.2-.1-.1-.2 0c.1.1.1.2.1.3z" fill="#ffd6bf" opacity=".3"/><path d="m254.3 135.5c0-.2 0 .1 0 0z" fill="#deb29e"/><path d="m255.9 135.8c-.1-.1-.3-.2-.4 0s0 .5 0 .8c.1.4 0 .9-.4.8-.2-.1-.5-.3-.6-.5v.3c.1.2.2.3.3.4s.3.2.4.3.3.1.4.1.2-.1.2-.2c0-.2-.1-.5-.1-.6 0-.3.2-.5.2-.8 0-.1 0-.2 0-.3.1-.1.1-.2 0-.3z" fill="#deb29e" opacity=".2"/><path d="m255.2 137.3c-.1 0-.2-.1-.3-.1 0-.1 0-.2 0-.2v-.1c.1.1.2.2.3.1 0 0 0 0 0-.1-.1-.1-.2-.1-.3-.1 0-.1 0-.2 0-.3 0 .1-.1.2-.1.3 0 0-.1-.1-.1-.1s-.1-.1-.1-.1c0 .1.2.2.2.3v.4c-.1-.1-.2-.1-.2-.2.1.1.2.2.2.2 0 .1 0 .2.1.3 0 .1.1.1.1 0s-.1-.2-.1-.3c.1 0 .2.1.3 0 .1.1 0 0 0 0z" fill="#deb29e"/><path d="m254.7 138.7c.3-.2.6-.5.6-1.1-.1 0-.3-.1-.5-.3-.1-.1-.2-.2-.2-.3 0 0-.1-.1-.1-.1h-.1v.1c-.1 0-.2.1-.2.2-.1 0-.2.2-.2.3s-.1.2-.1.3v.4c0 .1.1.3.1.4 0 0 0 0 0-.1.1.1.1.3.2.4v-.1c.1.1.1.3.2.4v-.1c0 .1 0 .1.1.2-.1.1-.5.7-.6 1 .1.1.4.1.5.2 0-.1.6-.8.7-1-.2-.4-.1-.4-.4-.8z" fill="#191919"/><path d="m254.7 138.7c.3-.2.6-.5.6-1.1-.1 0-.3-.1-.5-.3-.1-.1-.2-.2-.2-.3 0 0-.1-.1-.1-.1 0 .1.1.2 0 .3-.4.5-.2 1.5.4 2.4 0 .4-.2.7-.4.9h.1c0-.1.6-.8.7-1-.4-.4-.3-.4-.6-.8z" fill="#191919" opacity=".2"/><path d="m255.2 135.4c-.1 0-.2-.1-.3-.2 0-.1-.1-.1-.1-.2s0-.2 0-.3v-.1h.2.3v.4c0 .1 0 .3.1.4s-.2 0-.2 0z" fill="#e9c2b0"/><path d="m255.4 135c-.1.1-.1.1 0 0-.2.1-.4.1-.5.1-.1 0-.1.1-.2.1s-.1 0-.2-.1l-.1-.2s0-.1.1-.1c.1-.1.3-.1.4-.2.1 0 .2 0 .2-.1h.3z" fill="#deb29e" opacity=".2"/><path d="m255.5 141.7c0-.1.1-.4.1-.4.3.2.3.2.3.2s0 .3-.1.3c0 .1-.3 0-.3-.1z" fill="#0d1c28"/><path d="m254 140.7c0-.1 0-.1 0 0 0-.1.1-.5.1-.5.3.2.4.3.4.3s0 .4-.1.4c-.1-.1-.4-.2-.4-.2z" fill="#0d0d0d"/><path d="m256.4 140.5-.8-1.1c.3-.2.3-1.2.1-1.8 0-.1-.6.1-1-.3s0 0-.1.1c0 0-.1.1-.1.1-.1.1-.1.2-.1.3-.1.1-.1.2-.1.3v.1c0 .2 0 .4.1.6 0 .2.1.4.2.6 0 0 0 0 0-.1.1.1.1.3.2.4v.1c0 .1.1.3.2.4h.1s0 0 0-.1c.2.2.4.4.4.5-.1.3-.3 1.5-.3 1.6 0 0 .3 0 .4.1.2-.2.7-1.5.8-1.8z" fill="#232323"/><path d="m256.4 140.5-.8-1.1c.3-.2.3-1.2.1-1.8 0-.1-.4 0-.8-.2.2.2.5.4.6.3.1.4 0 .8-.2.9v.2c.1.2.2.3.2.6.1.3.4.7.5 1 .3.8-.2 1.2-.3 1.7h.1s.5-1.3.6-1.6z" fill="#202020" opacity=".1"/><path d="m254.4 133.7c0-.1-.1-.2-.1-.2s-.1-.1-.1-.1-.1-.1-.1-.1h-.1v.2c0 .1 0 .1.1.2 0 0 .1.1.1.1.1 0 .1 0 .1-.1.2.1.2 0 .1 0z" fill="#191919"/><path d="m255.4 134.3c-.1-.2-.2-.3-.3-.5-.3-.4-.5-.3-.6-.3 0 0-.1 0-.1.1 0 0-.1.1-.1.2v.2.1.1c0 .1 0 .1-.1.2 0 .1-.1.1-.1.2 0 0-.1.2.1.5 0 .1.1.1.2.1h.2.1c.1 0 .2 0 .4-.1.1 0 .1 0 .2-.1 0 0 .1-.1.1-.1.1-.2.1-.4 0-.6z" fill="#232323"/><path d="m255.4 134.3c-.1-.2-.2-.3-.3-.5 0 0-.1-.1-.1-.1.1.1.2.3.2.5.1.3.1.7-.1.7s-.4.1-.6.2h-.1.1.2.1c.1 0 .2 0 .4-.1.1 0 .1 0 .2-.1 0 0 .1-.1.1-.1 0-.1 0-.3-.1-.5z" fill="#191919" opacity=".4"/><path d="m254.8 134.4h.2.2c0 .1-.1.1-.1.2 0 0 0 .1-.1.1s-.1 0-.2-.1c-.1 0-.1-.1 0-.2-.1.1 0 0 0 0z" fill="#191919" opacity=".4"/><path d="m256.2 137.8c0 .1 0 .2-.1.3v.1.1c0 .1-.1.2-.1.3v.1s0 .1-.1.1c0 0 0 0 0-.1 0 0-.1-.1-.1-.1s-.1-.1-.1-.1v-.1s0 0 0-.1v-.1c0-.1 0-.2 0-.3s0-.4.1-.8c.1 0 .2.1.3.2.1.4.1.4.1.5z" fill="#e9c2b0"/><path d="m256.5 134.6c-.1-.5-.4-.9-.6-1.4.1.2.2.5.3.7s.1.5 0 .7c0 .1-.1.1-.1.2 0 0-.1 0-.2-.1-.2-.1-.4-.2-.5-.4-.1 0-.1.1-.1.2s0 .2.1.3c.2.1.3.3.5.4.1.1.3.2.4.2s.3 0 .3-.1 0-.4-.1-.7z" fill="#f0fafc"/><path d="m256.5 134.6c-.1-.2-.2-.5-.3-.7.1.4.2.7.2 1.1-.1.6-.7 0-1.1-.4 0 .1 0 .2.1.3.2.1.3.3.5.4.1.1.3.2.4.2s.3 0 .3-.1c0-.2 0-.5-.1-.8z" fill="#e5ebec" opacity=".7"/><path d="m255.8 134.7s-.3-.2-.4-.3c0-.1 0-.1.1-.1-.1 0-.1.1-.1.2s0 .2.1.3l.2.2c-.1 0 .1-.1.1-.3z" fill="#e5ebec" opacity=".7"/><path d="m255.8 134.7c-.1-.1-.2-.1-.2-.2 0 0-.1 0-.1-.1 0 0 0 0-.1 0-.1.2.1.2.1.2s.1 0 .1.1h.2c-.1.2-.1.1 0 0z" fill="#232323"/><path d="m253.2 139-.3-.1-.7-7.7.3.1z" fill="#231913"/><path d="m254.8 134.5s-.1.1 0 .1c0 0 .1.1.1 0s.1-.1 0-.1z" fill="#c03739"/><path d="m254.9 134.6c0-.1 0-.1 0 0-.1-.1-.1-.1 0 0-.1 0 0 0 0 0z" fill="#241414"/><path d="m252.6 134s-.1-.1-.1-.1v.1.1c-.1 0 0 .1 0 .1s-.1 0-.1.1c0 0 0 .1.1.1 0 0-.1 0 0 .1h.1s0 0 0-.1.1 0 .1-.1 0-.1 0-.2c-.1 0-.1-.1-.1-.1z" fill="#f7d4c3"/><path d="m252.8 134.4c.1 0 .1 0 0 0 0-.1 0-.1 0-.1v-.1c0-.1-.1-.1-.1-.1h-.1v.1c.1.1.2.2.2.2z" fill="#f7d4c3"/><path d="m255.3 142.4c0-.1 0-.1 0 0 0-.1.1-.5.1-.5.3.2.4.3.4.3s0 .4-.1.4c-.1-.1-.3-.2-.4-.2z" fill="#0d0d0d"/><path d="m252.5 131.3c0-.1-.1-.1-.2-.2-.1 0-.1 0-.1 0s.1.1.2.2.1.1.1 0z" fill="#352217"/><path d="m256.2 137v.8h-.1s0 0-.1 0-.2-.1-.3-.2c0 0 0-.1 0-.2-.1-.4-.3-1.3-.2-1.6 0-.1.2-.1.3 0s.2.2.2.3c.2.4.2.7.2.9z" fill="#e9c2b0"/><path d="m256 139.2c-.1 0-.1.1-.1.1s0 0-.1 0c0 0 0 .1-.1 0 0 0-.1-.1-.1-.1s-.1 0-.1-.1v-.1-.1s0 0-.1 0c0 0 0 0 0-.1 0 0 0 0 0-.1.1 0 .1-.1.2-.1h.1s.1 0 .1.1v.1.1c.2 0 .2.2.2.3z" fill="#e9c2b0"/><path d="m255.4 134.6c.1 0 .2.1.3.1 0 0-.1 0-.1.1h-.1c-.1 0-.2 0-.1-.2-.1 0 0 0 0 0z" fill="#191919"/><path d="m254.4 134.7c.1.1.1.2.1.3s0 .2-.1.2-.2-.1-.2-.2c-.1-.1-.1-.2-.1-.3 0-.2.2-.1.3 0z" fill="#191919"/><path d="m254.2 134.8s.1 0 0 0c.1-.1 0-.1 0-.1 0-.1 0 0 0 .1z" fill="#060606" opacity=".4"/><path d="m254.3 134.8c0 .1 0 .1 0 0 0 .1 0 .1.1.1 0 0 0 0-.1-.1z" fill="#060606" opacity=".4"/><path d="m256.6 138.9v.2c.1.6-.2.8-.6.8-.2 0-.5-.1-.7-.3s-.4-.4-.7-.5c-.4-.2-.8-.3-1 .1-.1.2-.1.5.1.7s.4.1.5 0v-.1c-.1 0-.1.1-.3.1s-.3-.3-.3-.4c0-.3.2-.4.4-.4s.5.1.7.2.5.4.7.5c.4.3.9.4 1.1.1.2-.2.3-.6.1-1.1.1.1.1.1 0 .1z" fill="#0d0d0d"/><path d="m254.2 139.7c0-.1 0-.1 0 0 .1-.1.2-.1.2-.1h.1s0 0-.1 0c0 .1 0 .2-.1.2 0 0-.1 0-.2 0 .1 0 .1-.1.1-.1z" fill="#0d0d0d"/><path d="m253.2 139c0-.1-.1-.1-.2-.2-.1 0-.1 0-.1 0 0 .1.1.1.2.2 0 .1.1.1.1 0z" fill="#231913"/><path d="m256.2 137v.8c0 .1 0 .2-.1.3v.1.1c0 .1-.1.2-.1.3v.1c.1.1.1.3 0 .4v.1s0 0-.1 0 0 0-.1 0c0 0 0 .1-.1 0 0 0-.1-.1-.1-.1s-.1 0-.1-.1h.1c.1 0 .2-.1.2-.2s0-.1.1-.1c.1-.3.2-.6.2-.9 0-.1 0-.1 0-.2 0-.3 0-.6 0-1 0-.1 0-.3-.1-.4 0-.1-.1-.2-.2-.3.1.1.2.2.2.3.2.3.2.6.2.8z" fill="#deb29e"/><path d="m254.9 132.3c-.1 0-.2.1-.3.1h-.1s-.1-.1-.1-.1v-.1h.1.3c0 .1 0 .1.1.1z" fill="#6a667f"/><path d="m254.7 132.3c-.1 0-.2 0-.4 0h.1z" fill="#6a667f" opacity=".4"/><path d="m254.4 132.4s0 .1 0 0c.1.1.2.1.2.1.1 0 .2-.1.3-.1-.2-.1-.4-.1-.5 0z" fill="#59556c"/><path d="m256.2 134s.1 0 0 0c0-.1-.2-.7-.3-.8 0 .3.2.8.3.8z" fill="#6a667f"/><path d="m255.8 133.2c.1.3.3.8.3.8 0-.2-.1-.5-.3-.8z" fill="#6a667f" opacity=".4"/><ellipse cx="143" cy="233.8" fill="#a6c1e8" opacity=".3" rx="16.3" ry="9.4"/><path d="m125.4 232.8 1.3.8 20.5-4.1-1.3-.7z" fill="#552a11"/><path d="m125.4 232.8 1.5-.8 20.5-4-1.5.8z" fill="#7a3c18"/><path d="m147.2 244-1.3.8-18.3-26.1 1.3-.8z" fill="#7a3c18"/><path d="m145.9 244.8-1.8-1.3-18.3-26.1 1.8 1.3z" fill="#552a11"/><path d="m146.8 216.4v.2h-1.8l13.9 19.7 1.3-.7z" fill="#7a3c18"/><path d="m145 216.6h-.9l13 18.5 1.8 1.2z" fill="#552a11"/><path d="m126.6 219.6v1.2l-1.7-1v-1.2z" fill="#7a3c18"/><path d="m138.6 210.8-13.7 7.8 1.7 1 13.7-7.8z" fill="#9e4f1f"/><path d="m140.3 211.8-13.7 7.8v1.2l13.7-7.8z" fill="#552a11"/><path d="m144 230v.7l-17.3-9.9v-1.2z" fill="#771212"/><path d="m140.4 211.8-13.7 7.8 17.3 10.4 13.7-8.3z" fill="#eb4e4e"/><path d="m157.7 221.7-13.7 8.3v.7l13.7-7.8z" fill="#202024"/><g enable-background="new"><path d="m149.4 218.8v.2l-10.7 6.2v-.1z" fill="#bfbfbf"/><path d="m138.7 225.1v.1l-8-4.6v-.2z" fill="#bfbfbf"/><path d="m149.4 218.8-10.7 6.3-8-4.7 10.6-6.2z" fill="#ebebeb"/></g><g enable-background="new"><path d="m149.4 218.2v.2l-10.7 6.2v-.2z" fill="#bfbfbf"/><path d="m138.7 224.4v.2l-8-4.7v-.2z" fill="#bfbfbf"/><path d="m149.4 218.2-10.7 6.2-8-4.7 10.6-6.2z" fill="#f4f5f2"/></g><g enable-background="new"><path d="m147.5 217v.1l-10.6 6.3v-.2z" fill="#bfbfbf"/><path d="m136.9 223.2v.2l-8.1-4.7v-.2z" fill="#bfbfbf"/><path d="m147.5 217-10.6 6.2-8.1-4.7 10.7-6.2z" fill="#ebebeb"/></g><g enable-background="new"><path d="m146.3 216.8v.2l-10.7 6.2v-.2z" fill="#bfbfbf"/><path d="m135.6 223v.2l-8-4.7v-.2z" fill="#bfbfbf"/><path d="m146.3 216.8-10.7 6.2-8-4.7 10.6-6.2z" fill="#e3e3e3"/></g><g enable-background="new"><path d="m147.5 215.5v.2l-10.6 6.2v-.2z" fill="#bfbfbf"/><path d="m136.9 221.7v.2l-8.1-4.7v-.2z" fill="#bfbfbf"/><path d="m147.5 215.5-10.6 6.2-8.1-4.7 10.7-6.2z" fill="#f4f5f2"/></g><path d="m145.4 230.5v1.2l-1.7-1v-1.2z" fill="#7a3c18"/><path d="m157.4 221.7-13.7 7.8 1.7 1 13.7-7.8z" fill="#9e4f1f"/><path d="m159.1 222.7-13.7 7.8v1.2l13.7-7.8z" fill="#552a11"/><path d="m157.6 218.9-.8-.4.7-.5.8.5z" fill="#9e4f1f"/><path d="m158.3 222.9v-4.4l-.7.4v4.4z" fill="#552a11"/><path d="m157.6 223.3v-4.4l-.8-.4v4.4z" fill="#7a3c18"/><path d="m147.4 225.1v.8l-3.8-2.2v-.7z" fill="#7a3c18"/><path d="m155.7 216.1-12.1 6.9 3.8 2.1 12.1-6.8z" fill="#9e4f1f"/><path d="m159.5 218.3-12.1 6.8v.8l12.1-6.9z" fill="#552a11"/><path d="m128 214.9v.8l-3.8-2.2v-.7z" fill="#7a3c18"/><path d="m136.2 205.9-12 6.9 3.8 2.1 12-6.8z" fill="#9e4f1f"/><path d="m140 208.1-12 6.8v.8l12-6.9z" fill="#552a11"/><path d="m126.6 198.1-1.2-.6 1.1-.7 1.2.7z" fill="#9e4f1f"/><path d="m127.7 218.6v-21.1l-1.1.6v21.1z" fill="#552a11"/><path d="m126.6 219.2v-21.1l-1.2-.6v21.1z" fill="#7a3c18"/><path d="m145.4 209-1.1-.6 1.1-.6 1.2.6z" fill="#9e4f1f"/><path d="m146.6 229.5v-21.1l-1.2.6v21.1z" fill="#552a11"/><path d="m145.4 230.1v-21.1l-1.1-.6v21.1z" fill="#7a3c18"/><path d="m144.9 209.6-18.3-10.3.7-.4 18.4 10.4z" fill="#eb4e4e"/><path d="m145.7 216.8v-7.5l-.8.3v7.6z" fill="#771212"/><path d="m144.9 217.2v-7.6l-18.3-10.3v7.5z" fill="#e62c2c"/><path d="m182.1 61.4c0 .2-.1.3-.3.3s-.3-.1-.3-.3.1-.3.3-.3c.1 0 .2.1.3.3z" fill="#263238"/><path d="m179.2 60.9c0 .2-.1.3-.2.3-.2 0-.3-.1-.3-.3s.1-.3.2-.3.2.1.3.3z" fill="#263238"/><path d="m183.5 61.3c-.1.1-.6-.5-1.5-.6-.8-.2-1.5.2-1.6 0 0-.1.1-.2.4-.4s.8-.3 1.3-.2.9.4 1.2.6c.2.3.2.5.2.6z" fill="#1a2e35"/><path d="m179.8 60.7c-.1 0-.2-.4-.6-.5-.4-.2-.7 0-.7-.1 0 0 .1-.1.2-.2.2-.1.4-.1.6 0s.4.3.4.5c.1.1.1.3.1.3z" fill="#1a2e35"/><path d="m180.4 64.4s-.3 0-.7 0c-.1 0-.2 0-.3-.1 0-.1 0-.2 0-.3.1-.3.1-.6.2-.9.2-1.2.4-2.3.4-2.3-.1 0-.3 1-.5 2.2-.1.3-.1.6-.2.9 0 .1-.1.3 0 .4 0 .1.1.1.2.1h.2z" fill="#1a2e35"/><path d="m178.9 65.1c.1 0 .2.4.7.5s.9-.1.9 0c0 0-.1.1-.2.2-.2.1-.5.1-.7 0-.3-.1-.5-.3-.6-.4-.1-.2-.1-.3-.1-.3z" fill="#1a2e35"/><path d="m105.8 90.1c-.1.1-.4-.2-1-.2-.5 0-1 .3-1 .2 0 0 0-.1.2-.3.2-.1.5-.2.8-.2s.6.1.8.3c.2.1.3.2.2.2z" fill="#1a2e35"/><path d="m103.4 93.2s-.2 0-.4 0c-.1 0-.1 0-.2-.1 0-.1 0-.2 0-.3 0-.2.1-.4.1-.7.1-1 .2-1.7.2-1.7s-.2.8-.3 1.7c0 .2-.1.5-.1.7v.3c0 .1.1.1.1.1h.1z" fill="#1a2e35"/><path d="m105.1 90.6c0 .2-.1.3-.3.3s-.3-.1-.3-.3.1-.3.3-.3.3.2.3.3z" fill="#263238"/><path d="m102.6 90c-.1.1-.5-.2-1-.1-.5 0-.9.4-1 .3 0 0 0-.2.2-.3s.4-.3.8-.3c.3 0 .6.1.8.2s.3.2.2.2z" fill="#1a2e35"/><path d="m102.3 94.1c.1 0 .4.3.9.3s.9-.4.9-.3c0 0 0 .1-.2.3-.2.1-.4.3-.8.3-.3 0-.6-.1-.7-.3-.1-.1-.1-.3-.1-.3z" fill="#1a2e35"/><path d="m101.9 90.6c0 .2-.1.3-.3.3s-.3-.1-.3-.3.1-.3.3-.3.3.2.3.3z" fill="#263238"/></svg>