<?xml version="1.0" encoding="utf-8"?>
<!-- Generator: Adobe Illustrator 25.1.0, SVG Export Plug-In . SVG Version: 6.00 Build 0)  -->
<svg version="1.1" id="Layer_1" xmlns="http://www.w3.org/2000/svg" xmlns:xlink="http://www.w3.org/1999/xlink" x="0px" y="0px"
	 viewBox="0 0 300 265" style="enable-background:new 0 0 300 265;" xml:space="preserve">
<style type="text/css">
	.st0{fill:#E6E6E7;}
	.st1{fill:#4B4B70;}
	.st2{fill:#3C3C3B;}
	.st3{fill:url(#SVGID_1_);}
	.st4{fill:url(#SVGID_2_);}
	.st5{fill:#575756;}
	.st6{fill:url(#SVGID_3_);}
	.st7{fill:url(#SVGID_4_);}
	.st8{fill:#78ABCE;}
	.st9{fill:#8BB8DC;}
	.st10{fill:#878787;}
	.st11{fill:#706F6F;}
	.st12{fill:#F0F1F1;}
	.st13{fill:#BE1E2C;}
	.st14{fill:#A0CFE6;}
	.st15{fill:#F7CF9C;}
	.st16{fill:#221F1F;}
	.st17{fill:#936037;}
	.st18{fill:#7D4E24;}
	.st19{fill:#9D9D9C;}
	.st20{fill:#EA5B0C;}
	.st21{fill:#FFFFFF;}
	.st22{fill:#C3DFED;}
	.st23{fill:#629ABF;}
	.st24{fill:#00983A;}
	.st25{fill:#B17F4A;}
	.st26{fill:#D60B52;}
	.st27{fill:#FFC200;}
	.st28{fill:#4DC5AC;}
	.st29{fill:#26A587;}
	.st30{fill:#F4A300;}
	.st31{fill:#C9FFFE;}
	.st32{fill:#ABAFB2;}
	.st33{fill:#3BB295;}
	.st34{fill:#4D4D4D;}
	.st35{fill:#FF7676;}
	.st36{fill:#FF5855;}
	.st37{fill:#B4C8FF;}
	.st38{fill:#FF9255;}
	.st39{fill:#FF7936;}
	.st40{fill:#68C191;}
	.st41{fill:#FFC8FF;}
	.st42{fill:#D3FFBF;}
	.st43{fill:#FFFF82;}
	.st44{fill:#C8C8C8;}
	.st45{fill:#414042;}
	.st46{fill:#353535;}
	.st47{fill:#EFEBEA;}
	.st48{opacity:0.4;fill:#D0D1D3;enable-background:new    ;}
	.st49{opacity:0.4;fill:#A9A9A9;enable-background:new    ;}
	.st50{fill:#F4B7AC;}
	.st51{fill:#C0C0C0;}
	.st52{opacity:0.5;fill:#E07F86;enable-background:new    ;}
	.st53{fill:#86C7EE;}
	.st54{fill:#D0D1D3;}
	.st55{fill:#59595B;}
	.st56{fill:#808083;}
	.st57{fill:#BABCBE;}
	.st58{fill:#D47280;}
</style>
<g>
	<path class="st0" d="M234.2,0c-0.8,0-1.6,0.6-1.6,1.4c0,0.7,0.7,1.4,1.6,1.4c0.8,0,1.6-0.6,1.6-1.4C235.8,0.5,235.1,0,234.2,0z"/>
	<path class="st1" d="M234.2,0.5c-0.4,0-0.8,0.3-0.8,0.7s0.4,0.7,0.8,0.7c0.4,0,0.8-0.3,0.8-0.7C235.1,1,234.8,0.5,234.2,0.5z"/>
</g>
<rect x="45.7" y="218.1" class="st2" width="229.3" height="9.4"/>
<g>
	<g>
		<g>
			
				<radialGradient id="SVGID_1_" cx="195.7824" cy="73.2837" r="4.0471" gradientTransform="matrix(1 0 0 -1 0 265)" gradientUnits="userSpaceOnUse">
				<stop  offset="0.5744" style="stop-color:#161412"/>
				<stop  offset="0.7977" style="stop-color:#161412"/>
				<stop  offset="1" style="stop-color:#161412"/>
			</radialGradient>
			<rect x="191.4" y="188.2" class="st3" width="8.9" height="7.2"/>
			
				<radialGradient id="SVGID_2_" cx="195.7824" cy="47.6834" r="3.3981" gradientTransform="matrix(1 0 0 -1 0 265)" gradientUnits="userSpaceOnUse">
				<stop  offset="0.5744" style="stop-color:#161412"/>
				<stop  offset="0.7977" style="stop-color:#161412"/>
				<stop  offset="1" style="stop-color:#161412"/>
			</radialGradient>
			<rect x="191.4" y="215.5" class="st4" width="8.9" height="3.6"/>
			<rect x="192.6" y="195.4" class="st5" width="6.2" height="20.2"/>
			<rect x="167.7" y="219" class="st5" width="56" height="4"/>
			
				<radialGradient id="SVGID_3_" cx="167.767" cy="41.206" r="3.9646" gradientTransform="matrix(1 0 0 -1 0 265)" gradientUnits="userSpaceOnUse">
				<stop  offset="0.5744" style="stop-color:#161412"/>
				<stop  offset="0.7977" style="stop-color:#161412"/>
				<stop  offset="1" style="stop-color:#161412"/>
			</radialGradient>
			<path class="st6" d="M167.7,220.1c-2.3,0-4.2,1.7-4.2,3.7s1.9,3.7,4.2,3.7c2.3,0,4.2-1.7,4.2-3.7
				C172,221.7,170.1,220.1,167.7,220.1z"/>
			
				<radialGradient id="SVGID_4_" cx="223.7956" cy="41.206" r="3.9646" gradientTransform="matrix(1 0 0 -1 0 265)" gradientUnits="userSpaceOnUse">
				<stop  offset="0.5744" style="stop-color:#161412"/>
				<stop  offset="0.7977" style="stop-color:#161412"/>
				<stop  offset="1" style="stop-color:#161412"/>
			</radialGradient>
			<path class="st7" d="M223.8,220.1c-2.3,0-4.2,1.7-4.2,3.7s1.9,3.7,4.2,3.7s4.2-1.7,4.2-3.7C228,221.7,226.1,220.1,223.8,220.1z"
				/>
		</g>
		<path class="st8" d="M196.2,99c-14.9,0-33.2,7.5-33.2,19.6s9.6,56.6,9.6,56.6l49,0.6c0,0,7-45.2,7-56.2
			C228.6,106.5,211,99,196.2,99z"/>
		<path class="st9" d="M195.6,170.8c-19.4,0-35,0-35,9.3c0,5.1,15.7,9.3,35,9.3s35-4.1,35-9.3C230.6,170.8,215,170.8,195.6,170.8z"
			/>
	</g>
	<rect x="58.8" y="145.6" class="st10" width="93.7" height="81.9"/>
	<rect x="239.1" y="145.6" class="st11" width="22.8" height="81.9"/>
	<g>
		<g>
			<polygon class="st12" points="258,137 258.2,137.4 258.5,137.1 258.6,136.2 258.1,136.1 			"/>
			<polygon class="st13" points="257.7,136.5 258.8,136.6 259.1,135.3 257.7,135.2 			"/>
			<path class="st9" d="M262.1,105.6h-0.2c-0.7-0.1-1.5,0.4-1.5,1.1l-2.5,21.2c-0.1,0.6-0.5,7.4-0.2,7.6c0.1,0.1,1.3,0.2,1.6,0.1
				c0.2-0.1,1.6-7,1.6-7.5l2.5-21.2C263.4,106.2,262.8,105.7,262.1,105.6z"/>
			<path class="st14" d="M260.4,106.6l-2.5,21.2c-0.1,0.6-0.5,7.4-0.2,7.6c0.1,0.1,0.4,0.1,0.7,0.2l3.6-30.1h-0.1
				C261.1,105.5,260.5,106,260.4,106.6z"/>
			<path class="st8" d="M263.2,107.4l-3.1-0.3c-0.2,0-0.3,0.1-0.3,0.2s-0.1,0.2,0.1,0.2l3.3,0.3c0.2,0,0.3-0.1,0.3-0.2
				C263.6,107.5,263.4,107.4,263.2,107.4z"/>
			<path class="st8" d="M259.5,107.8c0,0.3-0.8,8-0.7,8.3c0.1,0.2,0.5-0.1,0.5-0.5c0-0.3-0.1-0.5-0.1-0.5l0.8-7.4l0.2-0.5
				C260.2,107.2,259.6,107,259.5,107.8z"/>
		</g>
		<g>
			<g>
				<path class="st9" d="M249.5,108c0-0.1-0.2-0.2-0.3-0.1l-1.6,0.5c-0.1,0-0.2,0.2-0.2,0.3l0.5,1.4c0,0.1,0.2,0.2,0.3,0.1l1.6-0.5
					c0.1,0,0.2-0.2,0.2-0.3L249.5,108z"/>
				<polygon class="st15" points="260.3,137.8 260.4,134.9 258.2,135.5 				"/>
				<polygon class="st16" points="260.3,137.8 260.4,136.8 259.6,137 				"/>
				<polygon class="st14" points="247.9,110 258.2,135.5 260.4,134.9 250,109.4 				"/>
				<polygon class="st12" points="247.7,109.6 247.9,110 250,109.4 249.8,109 				"/>
				<polygon class="st9" points="249,109.7 259.2,135.2 260.4,134.9 250,109.4 				"/>
			</g>
		</g>
		<g>
			<rect x="249.9" y="120.5" class="st17" width="16" height="18.2"/>
			<rect x="258" y="120.5" class="st18" width="8" height="18.2"/>
		</g>
	</g>
	<g>
		<g>
			<path class="st2" d="M49.3,88.8c-2,0-3.5,1.4-3.5,3.2v24.1v3.1v5.9c0,1.7,1.6,3.2,3.5,3.2h45.3L67.7,88.8H49.3z"/>
			<path class="st5" d="M108.4,88.8H67.7l26.9,39.4h13.8c1.9,0,3.5-1.4,3.5-3.2v-5.9l0,0V91.9C112,90.2,110.4,88.8,108.4,88.8z"/>
		</g>
		<path class="st5" d="M78.6,113.5c-3.4,0-6,2.4-6,5.4v17.4c0,3,2.8,3.6,6,3.6c3.4,0,6-0.6,6-3.6v-17.4
			C84.6,116,82,113.5,78.6,113.5z"/>
		<path class="st11" d="M92.4,134.9H72.7h-2.5h-4.9c-1.4,0-2.5,1.1-2.5,2.2v4h32.2v-4C94.9,135.9,93.7,134.9,92.4,134.9z"/>
	</g>
	<rect x="45.7" y="138.6" class="st19" width="229.3" height="6.9"/>
</g>
<g>
	<rect x="134.1" y="49.5" class="st10" width="26.4" height="8.5"/>
	<rect x="60.1" y="49.5" class="st10" width="26.4" height="8.5"/>
	<g>
		<rect x="95.3" y="4.3" class="st20" width="13.2" height="40"/>
		<polygon class="st21" points="97.1,8.8 97.1,28.1 106.7,28.1 106.7,8.8 101.9,11.5 		"/>
		<path class="st22" d="M101.9,30.7c-1.9,0-3.5,1.4-3.5,3.1c0,1.7,1.6,3.1,3.5,3.1s3.5-1.4,3.5-3.1
			C105.4,32.1,103.8,30.7,101.9,30.7z"/>
		<path class="st23" d="M101.9,31.3c-1.6,0-2.9,1.2-2.9,2.5c0,1.4,1.3,2.5,2.9,2.5c1.6,0,2.9-1.2,2.9-2.5S103.5,31.3,101.9,31.3z"/>
	</g>
	<g>
		<rect x="82.1" y="4.3" class="st24" width="13.2" height="40"/>
		<polygon class="st21" points="84,8.8 84,28.1 93.4,28.1 93.4,8.8 88.7,11.5 		"/>
		<path class="st22" d="M88.7,30.7c-1.9,0-3.5,1.4-3.5,3.1c0,1.7,1.6,3.1,3.5,3.1c1.9,0,3.5-1.4,3.5-3.1
			C92.2,32.1,90.7,30.7,88.7,30.7z"/>
		<path class="st23" d="M88.7,31.3c-1.6,0-2.9,1.2-2.9,2.5c0,1.4,1.3,2.5,2.9,2.5c1.6,0,2.9-1.2,2.9-2.5S90.2,31.3,88.7,31.3z"/>
	</g>
	<g>
		<rect x="68.9" y="4.3" class="st25" width="13.2" height="40"/>
		<polygon class="st21" points="70.8,8.8 70.8,28.1 80.2,28.1 80.2,8.8 75.5,11.5 		"/>
		<path class="st22" d="M75.5,30.7c-1.9,0-3.5,1.4-3.5,3.1c0,1.7,1.6,3.1,3.5,3.1c1.9,0,3.5-1.4,3.5-3.1
			C79,32.1,77.4,30.7,75.5,30.7z"/>
		<path class="st23" d="M75.5,31.3c-1.6,0-2.9,1.2-2.9,2.5c0,1.4,1.3,2.5,2.9,2.5s2.9-1.2,2.9-2.5C78.3,32.4,77,31.3,75.5,31.3z"/>
	</g>
	<g>
		<rect x="55.7" y="4.3" class="st26" width="13.2" height="40"/>
		<polygon class="st21" points="57.5,8.8 57.5,28.1 67.1,28.1 67.1,8.8 62.3,11.5 		"/>
		<path class="st22" d="M62.3,30.7c-1.9,0-3.5,1.4-3.5,3.1c0,1.7,1.6,3.1,3.5,3.1s3.5-1.4,3.5-3.1C65.8,32.1,64.2,30.7,62.3,30.7z"
			/>
		<path class="st23" d="M62.3,31.3c-1.6,0-2.9,1.2-2.9,2.5c0,1.4,1.3,2.5,2.9,2.5s2.9-1.2,2.9-2.5S63.9,31.3,62.3,31.3z"/>
	</g>
	<rect x="45.7" y="44.3" class="st11" width="127.4" height="5.2"/>
</g>
<g>
	<rect x="214" y="2" class="st27" width="40.9" height="36.7"/>
	<rect x="215.9" y="3.9" class="st21" width="37.1" height="32.9"/>
	<g>
		<g>
			<path class="st28" d="M229.9,15.9c0,0-1.6,4.7-0.6,8.4c1.1,3.8,4.7,6.8,4.7,6.8L229.9,15.9z"/>
			<path class="st29" d="M229.9,15.9c0,0,3.7,3.2,4.8,7c1.1,3.8-0.6,8.2-0.6,8.2L229.9,15.9z"/>
		</g>
		<g>
			<path class="st28" d="M221.5,19.7c0,0,1,4.8,3.7,7.5c2.8,2.8,7.4,3.5,7.4,3.5L221.5,19.7z"/>
			<path class="st29" d="M221.5,19.7c0,0,4.8,1,7.5,3.7c2.8,2.8,3.5,7.4,3.5,7.4L221.5,19.7z"/>
		</g>
		<g>
			<path class="st28" d="M238.9,15.9c0,0,1.6,4.7,0.6,8.4c-1.1,3.8-4.7,6.8-4.7,6.8L238.9,15.9z"/>
			<path class="st29" d="M238.9,15.9c0,0-3.7,3.2-4.8,7c-1.1,3.8,0.6,8.2,0.6,8.2L238.9,15.9z"/>
		</g>
		<g>
			<path class="st28" d="M247,19.7c0,0-1,4.8-3.7,7.5c-2.8,2.8-7.4,3.5-7.4,3.5L247,19.7z"/>
			<path class="st29" d="M247,19.7c0,0-4.8,1-7.5,3.7s-3.5,7.4-3.5,7.4L247,19.7z"/>
		</g>
		<g>
			<g>
				<path class="st27" d="M220.9,24.7c0,0,2.1,4.4,5.5,6.4c3.4,1.9,8,1.5,8,1.5L220.9,24.7z"/>
				<path class="st30" d="M220.9,24.7c0,0,4.9-0.3,8.3,1.6c3.4,1.9,5.3,6.2,5.3,6.2L220.9,24.7z"/>
			</g>
			<g>
				<path class="st27" d="M226.5,19c0,0-0.3,4.9,1.6,8.3s6.2,5.3,6.2,5.3L226.5,19z"/>
				<path class="st30" d="M226.5,19c0,0,4.4,2.1,6.4,5.5s1.5,8,1.5,8L226.5,19z"/>
			</g>
			<g>
				<path class="st30" d="M242.2,19c0,0,0.3,4.9-1.6,8.3s-6.2,5.3-6.2,5.3L242.2,19z"/>
				<path class="st27" d="M242.2,19c0,0-4.4,2.1-6.4,5.5s-1.5,8-1.5,8L242.2,19z"/>
			</g>
			<g>
				<path class="st30" d="M247.8,24.7c0,0-2.1,4.4-5.5,6.4c-3.4,1.9-8,1.5-8,1.5L247.8,24.7z"/>
				<path class="st27" d="M247.8,24.7c0,0-4.9-0.3-8.3,1.6s-5.3,6.2-5.3,6.2L247.8,24.7z"/>
			</g>
			<g>
				<path class="st27" d="M234.3,17c0,0-2.8,4-2.8,7.9s2.8,7.7,2.8,7.7V17z"/>
				<path class="st30" d="M234.3,17c0,0,2.8,4,2.8,7.9s-2.8,7.7-2.8,7.7V17z"/>
			</g>
		</g>
	</g>
	<rect x="218.4" y="6.4" class="st27" width="31.3" height="1.6"/>
	<rect x="218.4" y="9.9" class="st27" width="31.3" height="1.6"/>
</g>
<g>
	<g>
		<g>
			<path class="st31" d="M151.3,44.3h-7.8c-1.1,0-1.9-0.8-1.9-1.9V30.1c0-1.1,0.8-1.9,1.9-1.9h7.8c1.1,0,1.9,0.8,1.9,1.9v12.3
				C153.2,43.5,152.4,44.3,151.3,44.3z"/>
			<path class="st32" d="M152.4,25.6h-10c-0.3,0-0.5-0.2-0.5-0.5l0,0c0-0.3,0.2-0.5,0.5-0.5h10c0.3,0,0.5,0.2,0.5,0.5l0,0
				C152.9,25.3,152.6,25.6,152.4,25.6z"/>
			<rect x="143.1" y="25.6" class="st31" width="8.8" height="2.6"/>
			<rect x="143.1" y="26.2" class="st32" width="8.8" height="0.5"/>
			<rect x="143.1" y="27.2" class="st32" width="8.8" height="0.5"/>
			<g>
				<path class="st32" d="M150.8,20.5h-6.9c-1.2,0-2.1,1-2.1,2.1h11C152.9,21.4,152,20.5,150.8,20.5z"/>
				<path class="st31" d="M144,24.6h6.9c1.2,0,2.1-1,2.1-2.1h-11C141.9,23.6,142.9,24.6,144,24.6z"/>
			</g>
			<path class="st33" d="M142.7,35.2v7.6c0,0.3,0.2,0.5,0.5,0.5h8.6c0.3,0,0.5-0.2,0.5-0.5v-7.6H142.7z"/>
			<path class="st29" d="M143.3,40.1c0,0-0.1,1.5,0.3,2.1c0.5,0.5,1.9,0.3,1.9,0.3L143.3,40.1z"/>
			<path class="st29" d="M150.3,42.5c0,0,1.3-0.8,1.4-1.7c0.1-0.7-1-1.6-1-1.6L150.3,42.5z"/>
			<path class="st29" d="M143.5,39.4c0,0,1.3-0.8,1.4-1.7c0.1-0.7-1-1.6-1-1.6L143.5,39.4z"/>
			<path class="st29" d="M146.9,35.4c0,0-0.1,1.5,0.4,2.1c0.5,0.5,1.9,0.3,1.9,0.3L146.9,35.4z"/>
			<path class="st29" d="M145.1,38.3c0,0-0.4,1.5-0.1,2.4c0.3,1,1.4,0.7,1.4,0.7s-1-1-0.7-1.7C145.8,39.1,145.1,38.3,145.1,38.3z"/>
			<path class="st29" d="M146.9,42.5c0,0,1.5,0.1,2.4-0.4c0.8-0.5,0.4-1.5,0.4-1.5s-0.7,1.1-1.5,1.1
				C147.4,41.6,146.9,42.5,146.9,42.5z"/>
			<path class="st29" d="M146.7,38.2c0,0-0.2-1.5-0.8-2.3c-0.6-0.8-1.5-0.1-1.5-0.1s1.2,0.5,1.3,1.3
				C145.7,37.8,146.7,38.2,146.7,38.2z"/>
			<path class="st29" d="M150.3,37.7c0,0-1.4,0.6-2,1.5c-0.5,0.8,0.3,1.5,0.3,1.5s0.1-1.3,0.8-1.6C150.2,38.7,150.3,37.7,150.3,37.7
				z"/>
			<path class="st29" d="M146.1,38.6c0,0,0.4,0.6,0.3,1.7c-0.1,1.1,1.6,0.7,1.6,0.7s-0.7-0.8-0.8-1.7
				C147.3,38.3,146.1,38.6,146.1,38.6z"/>
			<path class="st29" d="M148.7,35.9c0,0,0.7,0.1,1.4,1.1c0.6,0.8,1.7-0.4,1.7-0.4s-1.2-0.1-1.7-0.7
				C149.4,35.1,148.7,35.9,148.7,35.9z"/>
			<rect x="143.1" y="30" class="st33" width="8.8" height="3.9"/>
			<rect x="143.7" y="30.8" class="st34" width="7.3" height="0.6"/>
		</g>
		<g>
			<g>
				<path class="st31" d="M137.1,44.3h-7.8c-1.1,0-1.9-0.8-1.9-1.9V30.1c0-1.1,0.8-1.9,1.9-1.9h7.8c1.1,0,1.9,0.8,1.9,1.9v12.3
					C138.9,43.5,138.1,44.3,137.1,44.3z"/>
				<path class="st32" d="M138.1,25.6h-10c-0.3,0-0.5-0.2-0.5-0.5l0,0c0-0.3,0.2-0.5,0.5-0.5h10c0.3,0,0.5,0.2,0.5,0.5l0,0
					C138.6,25.3,138.4,25.6,138.1,25.6z"/>
				<rect x="128.8" y="25.6" class="st31" width="8.8" height="2.6"/>
				<rect x="128.8" y="26.2" class="st32" width="8.8" height="0.5"/>
				<rect x="128.8" y="27.2" class="st32" width="8.8" height="0.5"/>
				<g>
					<path class="st32" d="M136.6,20.5h-6.9c-1.2,0-2.1,1-2.1,2.1h11C138.7,21.4,137.8,20.5,136.6,20.5z"/>
					<path class="st31" d="M129.7,24.6h6.9c1.2,0,2.1-1,2.1-2.1h-11C127.7,23.6,128.6,24.6,129.7,24.6z"/>
				</g>
				<path class="st27" d="M128.4,35.2v7.6c0,0.3,0.2,0.5,0.5,0.5h8.6c0.3,0,0.5-0.2,0.5-0.5v-7.6H128.4z"/>
				<path class="st30" d="M136.1,42.5c0,0,1.3-0.8,1.4-1.7c0.1-0.7-1-1.6-1-1.6L136.1,42.5z"/>
				<path class="st30" d="M129.3,39.4c0,0,1.3-0.8,1.4-1.7c0.1-0.7-1-1.6-1-1.6L129.3,39.4z"/>
				<path class="st30" d="M132.6,35.4c0,0-0.1,1.5,0.4,2.1c0.5,0.5,1.9,0.3,1.9,0.3L132.6,35.4z"/>
				<path class="st30" d="M130.9,38.3c0,0-0.4,1.5-0.1,2.4c0.3,1,1.4,0.7,1.4,0.7s-1-1-0.7-1.7C131.6,39.1,130.9,38.3,130.9,38.3z"
					/>
				<path class="st30" d="M136.1,37.7c0,0-1.4,0.6-2,1.5c-0.5,0.8,0.3,1.5,0.3,1.5s0.1-1.3,0.8-1.6C136,38.7,136.1,37.7,136.1,37.7z
					"/>
				<rect x="128.8" y="30" class="st27" width="8.8" height="3.9"/>
				<rect x="129.5" y="30.8" class="st34" width="7.3" height="0.6"/>
			</g>
			<path class="st30" d="M130.1,40.4c0,0.3-0.2,0.5-0.5,0.5s-0.5-0.2-0.5-0.5c0-0.3,0.2-0.5,0.5-0.5C129.7,39.8,130.1,40,130.1,40.4
				z"/>
			<path class="st30" d="M132.2,36.5c0,0.3-0.2,0.5-0.5,0.5s-0.5-0.2-0.5-0.5c0-0.3,0.2-0.5,0.5-0.5C131.9,36,132.2,36.2,132.2,36.5
				z"/>
			<path class="st30" d="M133.1,38.3c0,0.3-0.2,0.5-0.5,0.5s-0.5-0.2-0.5-0.5c0-0.3,0.2-0.5,0.5-0.5C132.9,37.8,133.1,38,133.1,38.3
				z"/>
			<path class="st30" d="M135.6,36.1c0,0.3-0.2,0.5-0.5,0.5s-0.5-0.2-0.5-0.5s0.2-0.5,0.5-0.5C135.2,35.6,135.6,35.8,135.6,36.1z"/>
			<path class="st30" d="M137.3,36.5c0,0.3-0.2,0.5-0.5,0.5c-0.3,0-0.5-0.2-0.5-0.5c0-0.3,0.2-0.5,0.5-0.5
				C137,36,137.3,36.2,137.3,36.5z"/>
			<path class="st30" d="M135.8,41.5c0,0.3-0.2,0.5-0.5,0.5c-0.3,0-0.5-0.2-0.5-0.5c0-0.3,0.2-0.5,0.5-0.5
				C135.6,41,135.8,41.3,135.8,41.5z"/>
			<path class="st30" d="M133.2,40.1c0,0.3-0.2,0.5-0.5,0.5c-0.3,0-0.5-0.2-0.5-0.5s0.2-0.5,0.5-0.5C133,39.6,133.2,39.8,133.2,40.1
				z"/>
			<circle class="st30" cx="130.5" cy="42.2" r="0.5"/>
			<path class="st30" d="M133.7,42.2c0,0.3-0.2,0.5-0.5,0.5s-0.5-0.2-0.5-0.5s0.2-0.5,0.5-0.5C133.4,41.5,133.7,41.8,133.7,42.2z"/>
		</g>
		<g>
			<g>
				<path class="st31" d="M165.5,44.3h-7.8c-1.1,0-1.9-0.8-1.9-1.9V30.1c0-1.1,0.8-1.9,1.9-1.9h7.8c1.1,0,1.9,0.8,1.9,1.9v12.3
					C167.4,43.5,166.6,44.3,165.5,44.3z"/>
				<path class="st32" d="M166.6,25.6h-10c-0.3,0-0.5-0.2-0.5-0.5l0,0c0-0.3,0.2-0.5,0.5-0.5h10c0.3,0,0.5,0.2,0.5,0.5l0,0
					C167.1,25.3,166.9,25.6,166.6,25.6z"/>
				<rect x="157.3" y="25.6" class="st31" width="8.8" height="2.6"/>
				<rect x="157.3" y="26.2" class="st32" width="8.8" height="0.5"/>
				<rect x="157.3" y="27.2" class="st32" width="8.8" height="0.5"/>
				<g>
					<path class="st32" d="M165.1,20.5h-6.9c-1.2,0-2.1,1-2.1,2.1h11C167.1,21.4,166.2,20.5,165.1,20.5z"/>
					<path class="st31" d="M158.2,24.6h6.9c1.2,0,2.1-1,2.1-2.1h-11C156.1,23.6,157.1,24.6,158.2,24.6z"/>
				</g>
				<path class="st35" d="M156.8,35.2v7.6c0,0.3,0.2,0.5,0.5,0.5h8.6c0.3,0,0.5-0.2,0.5-0.5v-7.6H156.8z"/>
				<rect x="157.3" y="30" class="st35" width="8.8" height="3.9"/>
				<rect x="157.9" y="30.8" class="st34" width="7.3" height="0.6"/>
			</g>
			
				<rect x="158.8" y="35.4" transform="matrix(0.8381 -0.5455 0.5455 0.8381 5.5615 92.8357)" class="st36" width="0.7" height="3.4"/>
			
				<rect x="157.1" y="40.9" transform="matrix(0.5284 -0.849 0.849 0.5284 39.8263 154.2861)" class="st36" width="3.4" height="0.7"/>
			
				<rect x="162" y="38.5" transform="matrix(0.3218 -0.9468 0.9468 0.3218 74.1828 181.3487)" class="st36" width="3.4" height="0.7"/>
			
				<rect x="162.6" y="40.9" transform="matrix(0.8027 -0.5964 0.5964 0.8027 7.8095 106.131)" class="st36" width="3.4" height="0.7"/>
			
				<rect x="164.8" y="35.9" transform="matrix(0.9303 -0.3668 0.3668 0.9303 -2.1686 63.1869)" class="st36" width="0.7" height="2.8"/>
			<path class="st36" d="M163.3,37c0,0-1-1.2-2-1.4c-1.1-0.3-1.3,0.7-1.3,0.7s1.3-0.2,1.8,0.3C162.3,37.2,163.3,37,163.3,37z"/>
			<path class="st36" d="M162.8,39.9c0,0-0.2-1.5-0.8-2.3c-0.6-0.8-1.5-0.1-1.5-0.1s1.2,0.5,1.3,1.3
				C161.8,39.5,162.8,39.9,162.8,39.9z"/>
			<path class="st36" d="M158.4,37.2c0,0-1,1.2-1.1,2.2c-0.1,1.1,1,1.2,1,1.2s-0.4-1.2,0-1.8C158.7,38.1,158.4,37.2,158.4,37.2z"/>
			<path class="st36" d="M159.6,42.8c0,0,1.4-0.6,1.9-1.6c0.5-0.8-0.3-1.5-0.3-1.5s-0.1,1.3-0.8,1.6
				C159.7,41.7,159.6,42.8,159.6,42.8z"/>
		</g>
		<g>
			<g>
				<path class="st31" d="M123,44.3h-7.8c-1.1,0-1.9-0.8-1.9-1.9V30.1c0-1.1,0.8-1.9,1.9-1.9h7.8c1.1,0,1.9,0.8,1.9,1.9v12.3
					C124.9,43.5,124,44.3,123,44.3z"/>
				<path class="st32" d="M124,25.6h-10c-0.3,0-0.5-0.2-0.5-0.5l0,0c0-0.3,0.2-0.5,0.5-0.5h10c0.3,0,0.5,0.2,0.5,0.5l0,0
					C124.6,25.3,124.3,25.6,124,25.6z"/>
				<rect x="114.7" y="25.6" class="st31" width="8.8" height="2.6"/>
				<rect x="114.7" y="26.2" class="st32" width="8.8" height="0.5"/>
				<rect x="114.7" y="27.2" class="st32" width="8.8" height="0.5"/>
				<g>
					<path class="st32" d="M122.4,20.5h-6.9c-1.2,0-2.1,1-2.1,2.1h11C124.6,21.4,123.6,20.5,122.4,20.5z"/>
					<path class="st31" d="M115.7,24.6h6.9c1.2,0,2.1-1,2.1-2.1h-11.1C113.5,23.6,114.5,24.6,115.7,24.6z"/>
				</g>
				<path class="st35" d="M114.3,35.2v7.6c0,0.3,0.2,0.5,0.5,0.5h8.6c0.3,0,0.5-0.2,0.5-0.5v-7.6H114.3z"/>
				<rect x="114.7" y="30" class="st35" width="8.8" height="3.9"/>
				<rect x="115.3" y="30.8" class="st34" width="7.3" height="0.6"/>
			</g>
			
				<rect x="116.2" y="35.4" transform="matrix(0.8381 -0.5455 0.5455 0.8381 -1.3692 69.5762)" class="st36" width="0.7" height="3.4"/>
			
				<rect x="114.5" y="40.9" transform="matrix(0.5284 -0.849 0.849 0.5284 19.7425 118.1542)" class="st36" width="3.4" height="0.7"/>
			
				<rect x="119.3" y="38.5" transform="matrix(0.3218 -0.9468 0.9468 0.3218 45.2771 140.9366)" class="st36" width="3.4" height="0.7"/>
			
				<rect x="120" y="40.9" transform="matrix(0.8027 -0.5964 0.5964 0.8027 -0.6007 80.7451)" class="st36" width="3.4" height="0.7"/>
			
				<rect x="122.2" y="35.9" transform="matrix(0.9303 -0.3668 0.3668 0.9303 -5.132 47.5741)" class="st36" width="0.7" height="2.8"/>
			<path class="st36" d="M120.7,37c0,0-1-1.2-2-1.4c-1.1-0.3-1.3,0.7-1.3,0.7s1.3-0.2,1.8,0.3C119.7,37.2,120.7,37,120.7,37z"/>
			<path class="st36" d="M120.1,39.9c0,0-0.2-1.5-0.8-2.3c-0.6-0.8-1.5-0.1-1.5-0.1s1.2,0.5,1.3,1.3
				C119.2,39.5,120.1,39.9,120.1,39.9z"/>
			<path class="st36" d="M115.8,37.2c0,0-1,1.2-1.1,2.2c-0.1,1.1,1,1.2,1,1.2s-0.4-1.2,0-1.8C116.2,38.1,115.8,37.2,115.8,37.2z"/>
			<path class="st36" d="M117,42.8c0,0,1.4-0.6,1.9-1.6c0.5-0.8-0.3-1.5-0.3-1.5s-0.1,1.3-0.8,1.6C117,41.7,117,42.8,117,42.8z"/>
		</g>
	</g>
</g>
<g>
	<g>
		<g>
			<rect x="133.9" y="114.5" class="st37" width="5.8" height="5.9"/>
		</g>
	</g>
	<g>
		<g>
			<g>
				<polygon class="st38" points="140.3,106.3 137.8,106.3 135.8,106.3 133.2,106.3 133.9,112.1 139.7,112.1 				"/>
			</g>
		</g>
		<g>
			<g>
				<polygon class="st30" points="135.8,114.3 137.8,114.3 136.7,114 				"/>
			</g>
		</g>
		<g>
			<g>
				<polygon class="st39" points="139.5,113.4 139.7,112.1 133.9,112.1 134,113.4 135.8,113.8 135.8,114.3 136.7,114 137.8,114.3 
					137.8,113.8 				"/>
			</g>
		</g>
	</g>
	<g>
		<g>
			<path class="st40" d="M139.5,115H134c-0.4,0-0.7-0.3-0.7-0.7l0,0c0-0.4,0.3-0.7,0.7-0.7h5.5c0.4,0,0.7,0.3,0.7,0.7l0,0
				C140.3,114.7,139.9,115,139.5,115z"/>
		</g>
	</g>
	<g>
		<g>
			<path class="st37" d="M139.7,138.6H134c-1,0-1.8-0.7-1.8-1.8V122c0-1,0.7-1.8,1.8-1.8h5.7c1,0,1.8,0.7,1.8,1.8v14.8
				C141.4,137.9,140.6,138.6,139.7,138.6z"/>
		</g>
	</g>
	<g>
		<g>
			<path class="st40" d="M134.7,136.7c0,0.5-0.4,0.8-0.8,0.8c-0.5,0-0.8-0.4-0.8-0.8c0-0.5,0.4-0.8,0.8-0.8
				C134.4,135.9,134.7,136.2,134.7,136.7z"/>
		</g>
	</g>
	<g>
		<g>
			<circle class="st40" cx="133.9" cy="131.8" r="0.8"/>
		</g>
	</g>
	<g>
		<g>
			<path class="st40" d="M137.3,136.7c0,0.5-0.4,0.8-0.8,0.8c-0.4,0-0.8-0.4-0.8-0.8c0-0.5,0.4-0.8,0.8-0.8
				C136.8,135.9,137.3,136.3,137.3,136.7z"/>
		</g>
	</g>
	<g>
		<g>
			<path class="st40" d="M137.8,133.7c0,0.5-0.4,0.8-0.8,0.8c-0.5,0-0.8-0.4-0.8-0.8c0-0.5,0.4-0.8,0.8-0.8
				C137.4,132.8,137.8,133.2,137.8,133.7z"/>
		</g>
	</g>
	<g>
		<g>
			<path class="st40" d="M137.8,122.6c0,0.5-0.4,0.8-0.8,0.8c-0.5,0-0.8-0.4-0.8-0.8c0-0.4,0.4-0.8,0.8-0.8
				C137.4,121.7,137.8,122.1,137.8,122.6z"/>
		</g>
	</g>
	<g>
		<g>
			<circle class="st40" cx="133.9" cy="122.6" r="0.8"/>
		</g>
	</g>
	<g>
		<g>
			<path class="st40" d="M134.7,125.6c0,0.5-0.4,0.8-0.8,0.8c-0.5,0-0.8-0.4-0.8-0.8c0-0.5,0.4-0.8,0.8-0.8
				C134.4,124.6,134.7,125.1,134.7,125.6z"/>
		</g>
	</g>
	<g>
		<g>
			<circle class="st40" cx="139.7" cy="128.8" r="0.8"/>
		</g>
	</g>
	<g>
		<g>
			<circle class="st40" cx="139.2" cy="131.3" r="0.8"/>
		</g>
	</g>
	<g>
		<g>
			<path class="st40" d="M140.3,137c0,0.5-0.4,0.8-0.8,0.8c-0.5,0-0.8-0.4-0.8-0.8c0-0.5,0.4-0.8,0.8-0.8
				C139.9,136.1,140.3,136.5,140.3,137z"/>
		</g>
	</g>
	<g>
		<g>
			
				<rect x="133.2" y="133.3" transform="matrix(0.9509 -0.3094 0.3094 0.9509 -34.9256 48.1706)" class="st40" width="2.3" height="1.8"/>
		</g>
	</g>
	<g>
		<g>
			
				<rect x="135.3" y="129.8" transform="matrix(0.9509 -0.3094 0.3094 0.9509 -33.7472 48.6225)" class="st40" width="2.3" height="1.8"/>
		</g>
	</g>
	<g>
		<g>
			
				<rect x="138.5" y="132.9" transform="matrix(0.9711 -0.2385 0.2385 0.9711 -27.9463 37.1218)" class="st40" width="1.8" height="2.3"/>
		</g>
	</g>
	<g>
		<g>
			
				<rect x="138.7" y="121.5" transform="matrix(0.9711 -0.2385 0.2385 0.9711 -25.2149 36.8451)" class="st40" width="1.8" height="2.3"/>
		</g>
	</g>
	<g>
		<g>
			
				<rect x="135.9" y="125.7" transform="matrix(0.9711 -0.2385 0.2385 0.9711 -26.3136 36.3015)" class="st21" width="1.8" height="2.3"/>
		</g>
	</g>
	<g>
		<g>
			
				<rect x="132.7" y="127.8" transform="matrix(0.7138 -0.7003 0.7003 0.7138 -51.8362 130.5735)" class="st40" width="2.3" height="1.8"/>
		</g>
	</g>
	<g>
		<g>
			<rect x="133.9" y="122.8" class="st38" width="7.5" height="5.6"/>
		</g>
	</g>
	<g>
		<g>
			<rect x="134.6" y="123.6" class="st21" width="6.1" height="0.7"/>
		</g>
	</g>
	<g>
		<g>
			<rect x="133.9" y="119.3" class="st40" width="5.8" height="1"/>
		</g>
	</g>
</g>
<g>
	<g>
		<g>
			<rect x="114.7" y="122.4" class="st41" width="5.8" height="3.4"/>
		</g>
	</g>
	<g>
		<g>
			<g>
				<polygon class="st38" points="114.1,113.9 116.5,113.9 118.5,113.9 121.1,113.9 120.4,119.8 114.7,119.8 				"/>
			</g>
		</g>
		<g>
			<g>
				<polygon class="st39" points="114.8,121 114.7,119.8 120.4,119.8 120.3,121 118.5,121.5 118.5,121.9 117.6,121.7 116.5,121.9 
					116.5,121.5 				"/>
			</g>
		</g>
	</g>
	<g>
		<g>
			<path class="st40" d="M114.8,122.6h5.5c0.4,0,0.7-0.3,0.7-0.7l0,0c0-0.4-0.3-0.7-0.7-0.7h-5.5c-0.4,0-0.7,0.3-0.7,0.7l0,0
				C114.1,122.3,114.4,122.6,114.8,122.6z"/>
		</g>
	</g>
	<g>
		<g>
			<path class="st41" d="M112.9,133.9v-7.2c0-0.6,0.5-1.2,1.2-1.2h7c0.6,0,1.2,0.5,1.2,1.2v7.2H112.9z"/>
		</g>
	</g>
	<g>
		<g>
			<path class="st41" d="M122.2,133.3v4.2c0,0.6-0.5,1.2-1.2,1.2H114c-0.6,0-1.2-0.5-1.2-1.2v-4.2H122.2z"/>
		</g>
	</g>
	<g>
		<g>
			<circle class="st40" cx="120.4" cy="137.2" r="0.8"/>
		</g>
	</g>
	<g>
		<g>
			<circle class="st40" cx="117.5" cy="127.9" r="0.8"/>
		</g>
	</g>
	<g>
		<g>
			<path class="st40" d="M119.6,127.9c0,0.5,0.4,0.8,0.8,0.8c0.5,0,0.8-0.4,0.8-0.8s-0.4-0.8-0.8-0.8
				C120,127.1,119.6,127.4,119.6,127.9z"/>
		</g>
	</g>
	<g>
		<g>
			<path class="st21" d="M119.6,130.9c0,0.5,0.4,0.8,0.8,0.8c0.5,0,0.8-0.4,0.8-0.8c0-0.5-0.4-0.8-0.8-0.8
				C120,130,119.6,130.3,119.6,130.9z"/>
		</g>
	</g>
	<g>
		<g>
			<path class="st40" d="M113.8,134.1c0,0.5,0.4,0.8,0.8,0.8c0.5,0,0.8-0.4,0.8-0.8c0-0.5-0.4-0.8-0.8-0.8
				C114.2,133.2,113.8,133.6,113.8,134.1z"/>
		</g>
	</g>
	<g>
		<g>
			<path class="st40" d="M114.3,136.6c0,0.5,0.4,0.8,0.8,0.8c0.5,0,0.8-0.4,0.8-0.8s-0.4-0.8-0.8-0.8
				C114.7,135.7,114.3,136.1,114.3,136.6z"/>
		</g>
	</g>
	<g>
		<g>
			
				<rect x="117.1" y="134.9" transform="matrix(0.3094 -0.9509 0.9509 0.3094 -47.8739 206.1525)" class="st40" width="1.8" height="2.3"/>
		</g>
	</g>
	<g>
		<g>
			
				<rect x="113.5" y="127" transform="matrix(0.2385 -0.9711 0.9711 0.2385 -36.8588 208.785)" class="st40" width="2.3" height="1.8"/>
		</g>
	</g>
	<g>
		<g>
			
				<rect x="116.2" y="131.3" transform="matrix(0.2385 -0.9711 0.9711 0.2385 -39.0019 214.6717)" class="st21" width="2.3" height="1.8"/>
		</g>
	</g>
	<g>
		<g>
			
				<rect x="119.5" y="132.9" transform="matrix(0.7003 -0.7138 0.7138 0.7003 -59.5839 126.1476)" class="st40" width="1.8" height="2.3"/>
		</g>
	</g>
	<g>
		<g>
			<rect x="114.6" y="128.1" class="st38" width="7.5" height="5.6"/>
		</g>
	</g>
	<g>
		<g>
			<rect x="115.2" y="128.9" class="st21" width="6.1" height="0.7"/>
		</g>
	</g>
	<g>
		<g>
			<rect x="114.7" y="124.7" class="st40" width="5.8" height="1"/>
		</g>
	</g>
</g>
<g>
	<g>
		<g>
			<path class="st42" d="M128.1,120h-0.7h-0.7h-0.7c-0.4,0-0.7,0.3-0.7,0.7v17.2c0,0.4,0.3,0.7,0.7,0.7h0.7h0.7h0.7
				c0.4,0,0.7-0.3,0.7-0.7v-17.2C128.9,120.3,128.6,120,128.1,120z"/>
		</g>
	</g>
	<g>
		<g>
			<path class="st40" d="M128.8,121.1h-3.5c-0.4,0-0.7-0.3-0.7-0.7l0,0c0-0.4,0.3-0.7,0.7-0.7h3.5c0.4,0,0.7,0.3,0.7,0.7l0,0
				C129.5,120.8,129.2,121.1,128.8,121.1z"/>
		</g>
	</g>
	<g>
		<g>
			<circle class="st40" cx="126.7" cy="137.2" r="0.8"/>
		</g>
	</g>
	<g>
		<g>
			<path class="st40" d="M128.5,134.9c0,0.5-0.4,0.8-0.8,0.8c-0.5,0-0.8-0.4-0.8-0.8c0-0.5,0.4-0.8,0.8-0.8
				C128,134.1,128.5,134.5,128.5,134.9z"/>
		</g>
	</g>
	<g>
		<g>
			<path class="st40" d="M127.6,130.3c0,0.5-0.4,0.8-0.8,0.8c-0.5,0-0.8-0.4-0.8-0.8c0-0.5,0.4-0.8,0.8-0.8S127.6,129.9,127.6,130.3
				z"/>
		</g>
	</g>
	<g>
		<g>
			<path class="st40" d="M128.5,124.9c0,0.5-0.4,0.8-0.8,0.8c-0.5,0-0.8-0.4-0.8-0.8c0-0.5,0.4-0.8,0.8-0.8
				C128,124,128.5,124.4,128.5,124.9z"/>
		</g>
	</g>
	<g>
		<g>
			<path class="st40" d="M127.6,122.5c0,0.5-0.4,0.8-0.8,0.8c-0.5,0-0.8-0.4-0.8-0.8c0-0.5,0.4-0.8,0.8-0.8
				C127.2,121.7,127.6,122,127.6,122.5z"/>
		</g>
	</g>
	<g>
		<g>
			
				<rect x="125.9" y="131.8" transform="matrix(0.9509 -0.3094 0.3094 0.9509 -34.8302 45.8339)" class="st40" width="2.3" height="1.8"/>
		</g>
	</g>
	<g>
		<g>
			
				<rect x="126.3" y="126.7" transform="matrix(0.6488 -0.7609 0.7609 0.6488 -52.6183 141.6583)" class="st40" width="1.8" height="2.3"/>
		</g>
	</g>
	<g>
		<g>
			<rect x="125.4" y="115" class="st38" width="3.6" height="4.7"/>
		</g>
	</g>
	<g>
		<g>
			<rect x="125.4" y="118.5" class="st39" width="3.6" height="1.2"/>
		</g>
	</g>
</g>
<g>
	<g>
		<g>
			<rect x="163.3" y="114.5" class="st43" width="5.8" height="5.9"/>
		</g>
	</g>
	<g>
		<g>
			<g>
				<polygon class="st38" points="169.8,106.3 167.3,106.3 165.2,106.3 162.8,106.3 163.4,112.1 169.1,112.1 				"/>
			</g>
		</g>
		<g>
			<g>
				<polygon class="st30" points="165.2,114.3 167.3,114.3 166.3,114 				"/>
			</g>
		</g>
		<g>
			<g>
				<polygon class="st39" points="169,113.4 169.1,112.1 163.4,112.1 163.5,113.4 165.2,113.8 165.2,114.3 166.3,114 167.3,114.3 
					167.3,113.8 				"/>
			</g>
		</g>
	</g>
	<g>
		<g>
			<path class="st40" d="M169,115h-5.5c-0.4,0-0.7-0.3-0.7-0.7l0,0c0-0.4,0.3-0.7,0.7-0.7h5.5c0.4,0,0.7,0.3,0.7,0.7l0,0
				C169.8,114.7,169.4,115,169,115z"/>
		</g>
	</g>
	<g>
		<g>
			<path class="st43" d="M169.1,138.6h-5.7c-1,0-1.8-0.7-1.8-1.8V122c0-1,0.7-1.8,1.8-1.8h5.7c1,0,1.8,0.7,1.8,1.8v14.8
				C170.9,137.9,170.1,138.6,169.1,138.6z"/>
		</g>
	</g>
	<g>
		<g>
			<path class="st40" d="M164.3,136.7c0,0.5-0.4,0.8-0.8,0.8c-0.5,0-0.8-0.4-0.8-0.8c0-0.5,0.4-0.8,0.8-0.8S164.3,136.2,164.3,136.7
				z"/>
		</g>
	</g>
	<g>
		<g>
			<circle class="st40" cx="163.3" cy="131.8" r="0.8"/>
		</g>
	</g>
	<g>
		<g>
			<path class="st40" d="M166.7,136.7c0,0.5-0.4,0.8-0.8,0.8c-0.5,0-0.8-0.4-0.8-0.8c0-0.5,0.4-0.8,0.8-0.8
				C166.4,135.9,166.7,136.3,166.7,136.7z"/>
		</g>
	</g>
	<g>
		<g>
			<path class="st40" d="M167.3,133.7c0,0.5-0.4,0.8-0.8,0.8c-0.5,0-0.8-0.4-0.8-0.8c0-0.5,0.4-0.8,0.8-0.8
				C166.9,132.8,167.3,133.2,167.3,133.7z"/>
		</g>
	</g>
	<g>
		<g>
			<path class="st40" d="M167.3,122.6c0,0.5-0.4,0.8-0.8,0.8c-0.5,0-0.8-0.4-0.8-0.8c0-0.4,0.4-0.8,0.8-0.8
				C166.9,121.7,167.3,122.1,167.3,122.6z"/>
		</g>
	</g>
	<g>
		<g>
			<circle class="st40" cx="163.4" cy="122.6" r="0.8"/>
		</g>
	</g>
	<g>
		<g>
			<path class="st40" d="M164.3,125.6c0,0.5-0.4,0.8-0.8,0.8c-0.5,0-0.8-0.4-0.8-0.8c0-0.5,0.4-0.8,0.8-0.8
				C163.8,124.6,164.3,125.1,164.3,125.6z"/>
		</g>
	</g>
	<g>
		<g>
			<path class="st40" d="M170.1,128.8c0,0.5-0.4,0.8-0.8,0.8s-0.8-0.4-0.8-0.8c0-0.5,0.4-0.8,0.8-0.8S170.1,128.2,170.1,128.8z"/>
		</g>
	</g>
	<g>
		<g>
			<circle class="st40" cx="168.6" cy="131.3" r="0.8"/>
		</g>
	</g>
	<g>
		<g>
			<path class="st40" d="M169.8,137c0,0.5-0.4,0.8-0.8,0.8c-0.5,0-0.8-0.4-0.8-0.8c0-0.5,0.4-0.8,0.8-0.8
				C169.3,136.1,169.8,136.5,169.8,137z"/>
		</g>
	</g>
	<g>
		<g>
			
				<rect x="162.7" y="133.3" transform="matrix(0.9509 -0.3094 0.3094 0.9509 -33.4864 57.2787)" class="st40" width="2.3" height="1.8"/>
		</g>
	</g>
	<g>
		<g>
			
				<rect x="164.7" y="129.8" transform="matrix(0.9509 -0.3094 0.3094 0.9509 -32.3088 57.7306)" class="st40" width="2.3" height="1.8"/>
		</g>
	</g>
	<g>
		<g>
			
				<rect x="168.1" y="132.9" transform="matrix(0.9711 -0.2385 0.2385 0.9711 -27.0908 44.166)" class="st40" width="1.8" height="2.3"/>
		</g>
	</g>
	<g>
		<g>
			
				<rect x="168.3" y="121.4" transform="matrix(0.9711 -0.2385 0.2385 0.9711 -24.3606 43.8888)" class="st40" width="1.8" height="2.3"/>
		</g>
	</g>
	<g>
		<g>
			
				<rect x="165.4" y="125.7" transform="matrix(0.9711 -0.2385 0.2385 0.9711 -25.4502 43.3298)" class="st21" width="1.8" height="2.3"/>
		</g>
	</g>
	<g>
		<g>
			
				<rect x="162.2" y="127.8" transform="matrix(0.7138 -0.7003 0.7003 0.7138 -43.3623 151.2387)" class="st40" width="2.3" height="1.8"/>
		</g>
	</g>
	<g>
		<g>
			<rect x="163.3" y="122.8" class="st38" width="7.5" height="5.6"/>
		</g>
	</g>
	<g>
		<g>
			<rect x="164.1" y="123.6" class="st21" width="6.1" height="0.7"/>
		</g>
	</g>
	<g>
		<g>
			<rect x="163.3" y="119.3" class="st40" width="5.8" height="1"/>
		</g>
	</g>
</g>
<g>
	<g>
		<g>
			<rect x="151.3" y="122.3" class="st21" width="5.8" height="3.4"/>
		</g>
	</g>
	<g>
		<g>
			<g>
				<polygon class="st38" points="157.7,113.9 155.3,113.9 153.2,113.9 150.7,113.9 151.3,119.8 157.2,119.8 				"/>
			</g>
		</g>
		<g>
			<g>
				<polygon class="st39" points="156.9,121 157.2,119.8 151.3,119.8 151.4,121 153.2,121.5 153.2,121.9 154.2,121.7 155.3,121.9 
					155.3,121.5 				"/>
			</g>
		</g>
	</g>
	<g>
		<g>
			<path class="st40" d="M156.9,122.6h-5.5c-0.4,0-0.7-0.3-0.7-0.7l0,0c0-0.4,0.3-0.7,0.7-0.7h5.5c0.4,0,0.7,0.3,0.7,0.7l0,0
				C157.7,122.3,157.4,122.6,156.9,122.6z"/>
		</g>
	</g>
	<g>
		<g>
			<path class="st21" d="M158.9,133.9v-7.2c0-0.6-0.5-1.2-1.2-1.2h-7c-0.6,0-1.2,0.5-1.2,1.2v7.2H158.9z"/>
		</g>
	</g>
	<g>
		<g>
			<path class="st21" d="M149.5,133.3v4.2c0,0.6,0.5,1.2,1.2,1.2h7.1c0.6,0,1.2-0.5,1.2-1.2v-4.2H149.5z"/>
		</g>
	</g>
	<g>
		<g>
			<circle class="st40" cx="151.3" cy="137.2" r="0.8"/>
		</g>
	</g>
	<g>
		<g>
			<circle class="st40" cx="154.3" cy="127.9" r="0.8"/>
		</g>
	</g>
	<g>
		<g>
			<circle class="st40" cx="151.3" cy="127.9" r="0.8"/>
		</g>
	</g>
	<g>
		<g>
			<path class="st21" d="M152.2,130.9c0,0.5-0.4,0.8-0.8,0.8c-0.5,0-0.8-0.4-0.8-0.8c0-0.5,0.4-0.8,0.8-0.8
				C151.8,130,152.2,130.3,152.2,130.9z"/>
		</g>
	</g>
	<g>
		<g>
			<path class="st40" d="M158,134.1c0,0.5-0.4,0.8-0.8,0.8c-0.5,0-0.8-0.4-0.8-0.8c0-0.5,0.4-0.8,0.8-0.8
				C157.6,133.2,158,133.6,158,134.1z"/>
		</g>
	</g>
	<g>
		<g>
			<path class="st40" d="M157.5,136.6c0,0.5-0.4,0.8-0.8,0.8c-0.5,0-0.8-0.4-0.8-0.8s0.4-0.8,0.8-0.8
				C157.1,135.7,157.5,136.1,157.5,136.6z"/>
		</g>
	</g>
	<g>
		<g>
			
				<rect x="152.7" y="135.1" transform="matrix(0.9509 -0.3094 0.3094 0.9509 -34.526 54.2831)" class="st40" width="2.3" height="1.8"/>
		</g>
	</g>
	<g>
		<g>
			
				<rect x="156.2" y="126.7" transform="matrix(0.9711 -0.2385 0.2385 0.9711 -25.9739 41.1609)" class="st40" width="1.8" height="2.3"/>
		</g>
	</g>
	<g>
		<g>
			
				<rect x="153.5" y="131.1" transform="matrix(0.9711 -0.2385 0.2385 0.9711 -27.0846 40.6306)" class="st21" width="1.8" height="2.3"/>
		</g>
	</g>
	<g>
		<g>
			
				<rect x="150.2" y="133.2" transform="matrix(0.7138 -0.7003 0.7003 0.7138 -50.5861 144.369)" class="st40" width="2.3" height="1.8"/>
		</g>
	</g>
	<g>
		<g>
			<rect x="149.5" y="128.1" class="st38" width="7.5" height="5.6"/>
		</g>
	</g>
	<g>
		<g>
			<rect x="150.4" y="128.9" class="st21" width="6.1" height="0.7"/>
		</g>
	</g>
	<g>
		<g>
			<rect x="151.3" y="124.7" class="st40" width="5.8" height="1"/>
		</g>
	</g>
</g>
<g>
	<g>
		<g>
			<path class="st44" d="M146.7,120h-0.7h-0.7h-0.7c-0.4,0-0.7,0.3-0.7,0.7v17.2c0,0.4,0.3,0.7,0.7,0.7h0.7h0.7h0.7
				c0.4,0,0.7-0.3,0.7-0.7v-17.2C147.5,120.3,147.1,120,146.7,120z"/>
		</g>
	</g>
	<g>
		<g>
			<path class="st40" d="M147.4,121.1h-3.5c-0.4,0-0.7-0.3-0.7-0.7l0,0c0-0.4,0.3-0.7,0.7-0.7h3.5c0.4,0,0.7,0.3,0.7,0.7l0,0
				C148.1,120.8,147.7,121.1,147.4,121.1z"/>
		</g>
	</g>
	<g>
		<g>
			<circle class="st40" cx="145.3" cy="137.2" r="0.8"/>
		</g>
	</g>
	<g>
		<g>
			<path class="st40" d="M147,134.9c0,0.5-0.4,0.8-0.8,0.8c-0.5,0-0.8-0.4-0.8-0.8c0-0.5,0.4-0.8,0.8-0.8
				C146.7,134.1,147,134.5,147,134.9z"/>
		</g>
	</g>
	<g>
		<g>
			<path class="st40" d="M146.1,130.3c0,0.5-0.4,0.8-0.8,0.8c-0.5,0-0.8-0.4-0.8-0.8c0-0.5,0.4-0.8,0.8-0.8
				C145.7,129.5,146.1,129.9,146.1,130.3z"/>
		</g>
	</g>
	<g>
		<g>
			<path class="st40" d="M147,124.9c0,0.5-0.4,0.8-0.8,0.8c-0.5,0-0.8-0.4-0.8-0.8c0-0.5,0.4-0.8,0.8-0.8
				C146.7,124,147,124.4,147,124.9z"/>
		</g>
	</g>
	<g>
		<g>
			<path class="st40" d="M146.1,122.5c0,0.5-0.4,0.8-0.8,0.8c-0.5,0-0.8-0.4-0.8-0.8c0-0.5,0.4-0.8,0.8-0.8
				C145.7,121.7,146.1,122,146.1,122.5z"/>
		</g>
	</g>
	<g>
		<g>
			
				<rect x="144.5" y="131.8" transform="matrix(0.9509 -0.3094 0.3094 0.9509 -33.9102 51.5974)" class="st40" width="2.3" height="1.8"/>
		</g>
	</g>
	<g>
		<g>
			
				<rect x="144.8" y="126.7" transform="matrix(0.6488 -0.7609 0.7609 0.6488 -46.1325 155.7798)" class="st40" width="1.8" height="2.3"/>
		</g>
	</g>
	<g>
		<g>
			<rect x="143.9" y="115" class="st38" width="3.6" height="4.7"/>
		</g>
	</g>
	<g>
		<g>
			<rect x="143.9" y="118.5" class="st39" width="3.6" height="1.2"/>
		</g>
	</g>
</g>
<g>
	<g>
		<path class="st45" d="M197,248.1l-0.3,2.6c0,0-6.3,3.1-7.3,3.1c-1,0-13.4-2.4-11.7,9.4l30.8-1l-0.7-14.5L197,248.1z"/>
		<path class="st45" d="M218.8,260.7c0,1,0,2.8,0,2.8s12,4,17.7-1c0,0,0.1-1-0.2-2.6c-0.3-2-1.3-4.8-4.1-7.3l-1.1-6.4l-9.1,2.2v3.7
			c0,0-2.9,6.6-3.1,8.2C218.8,260.5,218.8,260.5,218.8,260.7z"/>
		<polygon class="st46" points="228.6,139.8 232.9,248.4 220.2,249.6 209.1,161.2 209.1,249.6 194.8,249.6 191,140.2 		"/>
		<path class="st46" d="M218.8,260.7c0,1,0,2.8,0,2.8s12,4,17.7-1c0,0,0.1-1-0.2-2.6c-8,4.3-16.9,0.7-17.5,0.4
			C218.8,260.5,218.8,260.5,218.8,260.7z"/>
		<polygon class="st46" points="208.4,262.2 208.2,259.3 177.5,260.8 177.6,263.3 		"/>
	</g>
	<path class="st47" d="M240.3,190.4l-12.5,1l-17.1,1.5l-2.6-10.4l-2.1,9.9l-22.3-0.7l4.5-83.2l-1.6-22.6c0,0,9.7-10.2,22-12.3
		c20.6,1.5,28.1,11.2,28.1,11.2s-1.1,17.9-5,28.3c-0.1,0.2-0.1,0.7-0.2,1.2c0,0.7,0,1.6,0,2.6l0,0c0,0.7,0.1,1.3,0.1,2.1
		c0,0,0,0,0,0.1c1.1,17.3,7.8,64.3,8.7,70.7c0,0.2,0,0.4,0.1,0.6C240.3,190.4,240.3,190.4,240.3,190.4z"/>
	<path class="st48" d="M231.5,87.3L231.5,87.3L231.5,87.3z"/>
	<path class="st48" d="M231.3,116.8L231.3,116.8C231.3,116.8,231.3,116.7,231.3,116.8L231.3,116.8
		C231.4,116.8,231.4,116.8,231.3,116.8z"/>
	<path class="st49" d="M227.8,191.5c0,0,6.6-18.1-1.7-76.4c-2.9-20.3,3-27.1,3.2-27.7c0,0.1-0.1,1-1.1,6.4
		c-0.8,4.7,0.4,15.5,0.9,20.5c0.1,1.6,1.9,2.6,2.1,2.6c0,0.2,0,1,0.1,2.1c0,0,0,0,0,0.1c1.1,17.3,7.8,64.3,8.7,70.7
		c0,0.2,0,0.4,0.1,0.6c0,0.1,0,0.2,0,0.2L227.8,191.5z"/>
	<g>
		<path class="st50" d="M234.8,150.3c0,0,18.1-17.5,18.5-21.4c0.3-3.8-7.6-19.6-7.6-19.6l-11.1,1l8.4,18.3l-12.5,18"/>
		<path class="st50" d="M230.5,146.7c0,0-9,4.7-8.9,6s2.5,0.4,4.1-0.4c0,0-2,7.1-1.1,9.5c0.3,1,2.5,0.6,2.9-1.2c0,0,4.9-0.9,5.7-2.4
			c1.9-2.6,1.8-4.4,1.6-8.5L230.5,146.7z"/>
		<path class="st47" d="M237,86.6c0,0,19.2,38.4,18.5,42c-0.6,3.6-16.9,24.2-16.9,24.2l-9-9.4l9-16.4l-10.1-15.3
			C228.6,111.8,222.7,89.5,237,86.6z"/>
	</g>
	<g>
		<path class="st50" d="M188.2,111.4l-6.2,18.3l9.2,18c0,0,8,3.9,8.1,5.3s-3-0.1-4.4-0.8c0,0,2.7,4.8,2.1,9.2
			c-0.1,1.1-1.7,1-2.2-0.7c0,0-3.6,0-4.4-1.2c-1.8-2.1-1.9-3.9-2.2-8.1c0,0-13.2-17.5-13.4-21.4c-0.2-3.8,5.5-19.6,5.5-19.6
			L188.2,111.4z"/>
		<path class="st47" d="M186.6,87.6c0,0-13.9,38.4-13.6,42c0.4,3.6,12.3,24.2,12.3,24.2l6.5-9.4l-6.5-16.4l7.3-15.3
			C192.7,112.8,196.9,90.5,186.6,87.6z"/>
	</g>
	<polygon class="st51" points="220.2,168.2 227.2,169.9 234.4,168.2 234.4,154.8 220.2,154.8 	"/>
	<polygon class="st51" points="186.9,168.2 193.5,169.9 200.1,168.2 200.1,154.8 186.9,154.8 	"/>
	<polygon class="st51" points="208.4,185.3 208.5,173.7 208.6,162.2 208.5,139.1 208.2,116 208.1,104.5 207.7,92.9 207.6,104.5 
		207.5,116 207.6,139.1 208,162.2 208.2,173.7 	"/>
	<path class="st51" d="M237.6,126.6l-3.5-5.3c2,2.1,2.7,2.5,3.9,1.6c3.6-2.7,8,0,11.8,2.4C242.8,123.2,239,123.6,237.6,126.6z"/>
	<path class="st51" d="M188,94.6l-0.9,29.8l-1.8,3.7l5.2,13c0,0-3.7-10.3-8.5-11.4s-4.8-1.1-4.8-1.1l5.4-0.6L188,94.6z"/>
	<g>
		<path class="st50" d="M218.9,74.6l-0.8,3.4c0,0-0.3,0.8-0.8,2.1c-1.7,4.3-5.6,13.9-9.4,18.3c-3.9-8.2-5.3-14.6-5.7-17.8
			c-0.2-1.7,0.1-2.5,0.1-2.5s-0.2-2.9-0.2-3.6s0-5.8,0-5.8l6.8,1.1l8.4-7.8c0,0-0.1,0.6-0.1,1.6c-0.1,1.3-0.1,3.2,0,5
			c0.1,1,0.3,2,0.6,2.9C218.3,73.1,218.9,74.6,218.9,74.6z"/>
		<path class="st52" d="M217.8,71.2c-5.3,10.8-13,6.3-15.6,4.5v-5.4l6.8,1.1l8.3-8.1c-0.1,1.3-0.1,3.2,0,5
			C217.4,69.2,217.6,70.2,217.8,71.2z"/>
	</g>
	<g>
		<path class="st53" d="M218.5,80.1c-1.2,3.4-3.8,9.5-6.6,14.8c-1.3,2.5-2.8,4.7-4.3,6.4c-0.9-1.8-1.6-3.7-2.2-5.5
			c-2.5-7.5-2.8-14.3-3.2-17.4c4.7,3.5,10.6,3.6,16.2-4.6L218.5,80.1z"/>
		<polygon class="st54" points="203.6,86.4 208.6,80.6 213.3,86.7 212.5,88.8 208.6,82.1 204.3,89.2 		"/>
		<path class="st55" d="M209.3,85.9l1.1-2.8c-1.6-1.3-2.2-1.2-3.7,0c0.2,1.1,0.4,1.9,1,2.9l0,0l-2.2,9.4c0.6,1.8,1.3,3.6,2.2,5.5
			c1.5-1.7,2.8-3.9,4.3-6.4L209.3,85.9z"/>
	</g>
	<g>
		<polygon class="st51" points="218.6,73.4 207.6,101.2 220.5,89 218,84.1 223.5,81.7 221.4,76.1 		"/>
		<path class="st51" d="M202.2,74.3c0.2,8.3,2.4,17.5,5.3,26.6L195.6,89l3.8-4.6l-4.5-2.1l3.9-5.8L202.2,74.3z"/>
	</g>
	<g>
		<g>
			<g>
				<path class="st56" d="M196.1,109.2c-0.4-0.2-0.8-0.4-1.1-0.8c-2-1.8-3-5.6-3.1-11.2c-0.1-4.3,0.4-8,0.4-8l0.4,0.1
					c0,0.1-2,14.8,2.5,18.8c1,1,2.5,1.2,4,0.8l0.1,0.4C198.1,109.7,197.1,109.6,196.1,109.2z"/>
			</g>
			<g>
				<path class="st56" d="M191.4,108.1c-0.6-0.2-1.2-0.7-1.9-1.2l0.3-0.3c1.7,1.3,3.1,1.8,4.5,1.2c5-2,6.6-16.9,6.6-17h0.4
					c0,0-0.3,3.8-1.5,7.8c-1.3,5.5-3.2,8.6-5.5,9.5C193.5,108.6,192.5,108.5,191.4,108.1z"/>
			</g>
			<g>
				<path class="st55" d="M192.3,89.6c-0.1-0.1-0.2-0.2-0.2-0.4s0.2-4.1,2.4-5.9c0.9-0.8,2-1,3.2-0.9c1.2,0.2,2.2,0.8,2.9,1.7
					c1.7,2.4,1,6.3,1,6.4c0,0.2-0.2,0.3-0.4,0.3s-0.3-0.2-0.3-0.4c0,0,0.7-3.7-0.8-5.7c-0.6-0.8-1.3-1.2-2.4-1.3
					c-1-0.1-1.9,0.1-2.6,0.7c-1.9,1.6-2.1,5.4-2.1,5.4c0,0.2-0.2,0.4-0.4,0.4C192.4,89.7,192.4,89.6,192.3,89.6z"/>
			</g>
			<path class="st57" d="M201.8,109c0,0.6-0.6,1-1.3,1s-1.5-0.3-1.5-0.9c0-0.6,0.6-1,1.3-1S201.8,108.4,201.8,109z"/>
			<path class="st57" d="M190.1,106.8c-0.3,0.4-1.1,0.3-1.7-0.2s-0.8-1.2-0.4-1.7c0.3-0.4,1.1-0.3,1.7,0.2S190.5,106.4,190.1,106.8z
				"/>
			<g>
				<path class="st55" d="M197.4,83c-0.2-0.1-0.2-0.2-0.2-0.4c0-0.2,1.2-8.9,5.2-8.9c0.1,0,0,0.8,0,0.8c-3.2,0.4-4.3,8.2-4.3,8.2
					C197.9,83,197.6,83.1,197.4,83C197.4,83.1,197.4,83.1,197.4,83z"/>
			</g>
		</g>
		<g>
			<rect x="221.6" y="105.2" class="st56" width="0.6" height="2.7"/>
			<path class="st57" d="M224.2,109.5c0,1.5-1.1,2.6-2.6,2.6c-1.5,0-2.6-1.1-2.6-2.6s1.1-2.6,2.6-2.6
				C223.1,106.9,224.2,108.2,224.2,109.5z"/>
			<circle class="st56" cx="220.5" cy="109.1" r="1.6"/>
			<path class="st55" d="M221.5,105.6c0-0.7,0-5.5,0.6-15.1c0.4-8-2.6-15-3.7-17.1l-0.3-1.2c0-0.4,5.4,5.6,4.8,18.4
				c-0.4,9.5-0.6,14.9-0.6,15C222.2,105.8,221.5,105.6,221.5,105.6z"/>
		</g>
	</g>
	<g>
		<path class="st50" d="M197.3,57.4c-0.3,9.5,4.7,17.5,11.2,17.7c6.5,0.2,11.9-7.4,12.2-16.9c0.3-9.5-4.7-17.5-11.2-17.7
			C203.1,40.3,197.6,47.9,197.3,57.4z"/>
		<path class="st45" d="M215,49.9c0,0-6.8,3.9-8.6,2.5c-1.9-1.5-1.3-3.6-1.3-3.6s-8.9,4.8-11.8,1.8c-2.9-3,2.7-4.9,2.7-4.9
			s-2.9-1.2-2-5.5c1-5.2,8.4-4.5,10.9-3.7c0,0-0.1-3.1,2.7-4.4c2.8-1.2,10.5,4.6,12.1,9.2c0,0,2.9-1.3,4.1,1.1c1.2,2.6-0.7,5-0.7,5
			s1.3,0.7,1.5,1.8c0,2.1-2,3.8-2,8.5c0,0-2.8,1.3-2.8,5.3c0,0-2-6.6-0.1-10.6C219.4,52.4,215.1,52.9,215,49.9z"/>
		<g>
			<path class="st50" d="M198.3,59.9c0,0-2.1-5.3-5.5-4.1c-3.5,1.1,0.1,10,5.4,8.3L198.3,59.9z"/>
			<path class="st58" d="M193.8,58.2c2.5,0,3.8,2.2,3.8,2.4c0.1,0.1,0,0.2-0.1,0.2h-0.1c-0.1,0-0.1,0-0.2-0.1c0,0-0.6-0.9-1.5-1.5
				c-0.9,0.6-0.4,1.9-0.4,2c0,0.1,0,0.2-0.1,0.2c0,0,0,0-0.1,0c-0.1,0-0.1-0.1-0.2-0.1c0-0.1-0.4-1.6,0.4-2.4
				c-0.4-0.2-1-0.4-1.6-0.4c0,0,0,0-0.1,0s-0.2-0.1-0.2-0.2C193.6,58.3,193.7,58.2,193.8,58.2z"/>
		</g>
		<g>
			<path class="st50" d="M219.4,64.1c3.5,1.3,6.4-2,6.9-4.8c0.3-1.5,0-2.7-1.1-3.1c-2.4-1-4.3,1.3-5.2,2.8
				C219.7,59.6,219.4,64.1,219.4,64.1z"/>
			<path class="st58" d="M224.2,58.7c-2.5-0.1-3.9,2-3.9,2.1c-0.1,0.1,0,0.2,0.1,0.3h0.1c0.1,0,0.1,0,0.2-0.1c0,0,0.6-0.8,1.5-1.3
				c0.8,0.6,0.3,2,0.3,2c0,0.1,0,0.2,0.1,0.2c0,0,0,0,0.1,0c0.1,0,0.1,0,0.2-0.1c0-0.1,0.6-1.6-0.3-2.4c0.4-0.2,1-0.3,1.7-0.3
				c0,0,0,0,0.1,0c0.1,0,0.2-0.1,0.2-0.2C224.3,58.8,224.3,58.7,224.2,58.7z"/>
		</g>
		<polygon class="st45" points="195.9,51.2 197.3,58 198.7,60.8 199,49.8 		"/>
		<path class="st45" d="M204.9,60.2c0,1.3-0.3,2.4-0.7,2.4s-0.7-1-0.7-2.4c0-1.3,0.3-2.4,0.7-2.4S204.9,58.9,204.9,60.2z"/>
		<path class="st45" d="M213.6,60.2c0,1.3-0.3,2.4-0.7,2.4c-0.3,0-0.7-1-0.7-2.4c0-1.3,0.3-2.4,0.7-2.4
			C213.3,57.9,213.6,58.9,213.6,60.2z"/>
		<g>
			<g>
				<g>
					<path class="st58" d="M216.5,62.2c0,0.2,0.6,0.3,1.1,0.2c0.6-0.1,1-0.2,1-0.4c0-0.2-0.6-0.3-1.1-0.2
						C216.9,61.8,216.4,62,216.5,62.2z"/>
					<path class="st58" d="M216.2,63.4c0-0.2,0.6-0.2,1.1-0.1c0.6,0.1,1,0.3,1,0.6s-0.6,0.2-1.1,0.1
						C216.7,63.8,216.2,63.6,216.2,63.4z"/>
				</g>
				<g>
					<path class="st58" d="M201.3,62.9c0-0.2-0.6-0.3-1.1-0.2c-0.6,0.1-1,0.2-1,0.4c0,0.2,0.6,0.3,1.1,0.2
						C200.9,63.4,201.3,63.1,201.3,62.9z"/>
					<path class="st58" d="M201.5,61.8c0,0.2-0.6,0.2-1.1,0.1c-0.6-0.1-1-0.3-1-0.6c0-0.2,0.6-0.2,1.1-0.1
						C201,61.3,201.5,61.6,201.5,61.8z"/>
				</g>
			</g>
			<g>
				<g>
					<path class="st58" d="M208.4,64.8C208.5,64.8,208.5,64.8,208.4,64.8c0.3,0,1.1-0.2,1.2-2.1c0.2-3-0.2-4.7-0.2-4.7
						c0-0.1-0.1-0.2-0.2-0.1c-0.1,0-0.2,0.1-0.1,0.2c0,0,0.4,1.7,0.2,4.6c-0.1,1.2-0.4,1.7-0.8,1.7c-0.4,0-1.1-0.8-1.5-2.1
						c0-0.1-0.1-0.2-0.2-0.1c-0.1,0-0.2,0.1-0.1,0.2C206.9,63.8,207.7,64.8,208.4,64.8z"/>
				</g>
				<g>
					<path class="st58" d="M208.5,68.2c3.1,0.1,5-2.2,5-2.4c0.1-0.1,0.1-0.2,0-0.3c-0.1-0.1-0.2-0.1-0.3,0c0,0-1.9,2.2-4.8,2.1
						c-2.9-0.1-4.1-2.4-4.1-2.5c0-0.1-0.2-0.1-0.2-0.1c-0.1,0-0.1,0.2-0.1,0.2C204,65.7,205.4,68.1,208.5,68.2z"/>
				</g>
				<g>
					<g>
						<path class="st45" d="M202.6,55.7c0.7-0.2,1.5-0.1,2.2,0.3c0.3,0.1,0.7,0,0.8-0.2c0.1-0.3,0-0.7-0.2-0.8
							c-1.1-0.6-2.1-0.7-3.1-0.3c-1.6,0.6-2.4,2.7-2,2.8C200.2,57.5,201.6,56.1,202.6,55.7z"/>
					</g>
					<g>
						<path class="st45" d="M216.9,58.1c0.3-0.1-0.2-2.4-1.7-3c-0.9-0.4-2-0.4-3.1,0c-0.3,0.1-0.4,0.4-0.3,0.8
							c0.1,0.3,0.4,0.4,0.8,0.3c0.9-0.3,1.6-0.3,2.2,0C215.8,56.6,216.9,58.1,216.9,58.1z"/>
					</g>
				</g>
			</g>
		</g>
	</g>
</g>
</svg>
