<?xml version="1.0" encoding="utf-8"?>
<!-- Generator: Adobe Illustrator 25.1.0, SVG Export Plug-In . SVG Version: 6.00 Build 0)  -->
<svg version="1.1" id="layer" xmlns="http://www.w3.org/2000/svg" xmlns:xlink="http://www.w3.org/1999/xlink" x="0px" y="0px"
	 viewBox="0 0 300 265" style="enable-background:new 0 0 300 265;" xml:space="preserve">
<style type="text/css">
	.st0{fill:#00AEEF;}
	.st1{fill:#EC008C;}
	.st2{fill:#F27380;}
	.st3{fill:#8DC63F;}
	.st4{fill:#F7941D;}
	.st5{fill:#0072BC;}
	.st6{fill:#FF7661;}
	.st7{fill:#ED1C24;}
	.st8{fill:#FFF200;}
	.st9{fill:#6F4A24;}
	.st10{fill:#FFBE9D;}
	.st11{fill:#263238;}
	.st12{fill:#EB996E;}
	.st13{fill:#E8505B;}
	.st14{fill:#455A64;}
	.st15{fill:#868636;}
	.st16{fill:#FAFAFA;}
	.st17{fill:#B2B247;}
	.st18{opacity:0.2;}
	.st19{fill:#DBCCCC;}
	.st20{opacity:0.4;enable-background:new    ;}
	.st21{fill:#666666;}
	.st22{fill:#E0E0E0;}
	.st23{opacity:0.4;}
</style>
<g>
	<g>
		<g>
			<g>
				<g>
					<g>
						<path class="st0" d="M270.6,18.9c0.2,0.6-0.1,1.2-0.7,1.4c-0.6,0.2-1.2-0.1-1.4-0.7c-0.1-0.3-0.1-0.6,0.1-0.8
							c0.1-0.3,0.4-0.5,0.6-0.5c0.1,0,0.2-0.1,0.3-0.1c0.2,0,0.3,0,0.5,0.1C270.4,18.4,270.6,18.6,270.6,18.9z"/>
						<path class="st0" d="M275.9,16l0.7,2.3l-1.4,0.4c-0.2,0.1-0.3,0.2-0.3,0.4c0,0.4,0,0.7-0.1,1.1c0,0.2,0.1,0.4,0.2,0.5l1.4,0.6
							l-1.1,2.1l-1.3-0.7c-0.2-0.1-0.4-0.1-0.5,0.1c-0.2,0.3-0.5,0.5-0.8,0.7c-0.2,0.1-0.2,0.3-0.2,0.5l0.4,1.4l-2.3,0.7l-0.4-1.4
							c-0.1-0.2-0.2-0.3-0.4-0.3l0,0c-0.4,0-0.7,0-1.1-0.1c-0.2,0-0.4,0.1-0.5,0.2l-0.7,1.3l-2.1-1.1l0.7-1.3
							c0.1-0.2,0.1-0.4-0.1-0.5c-0.3-0.3-0.5-0.5-0.7-0.8c-0.1-0.2-0.3-0.2-0.5-0.2l-1.4,0.4l-0.7-2.3l1.4-0.4
							c0.2-0.1,0.3-0.2,0.3-0.4c0-0.4,0-0.7,0.1-1.1c0-0.2-0.1-0.4-0.2-0.5l-1.3-0.7l1.1-2.1l1.3,0.7c0.2,0.1,0.4,0.1,0.5-0.1
							c0.2-0.3,0.5-0.5,0.8-0.7c0.2-0.1,0.2-0.3,0.2-0.5l-0.4-1.4l2.3-0.7l0.4,1.4c0.1,0.2,0.2,0.3,0.4,0.3c0.4,0,0.7,0,1.1,0.1
							c0.2,0,0.4-0.1,0.5-0.2l0.7-1.3l2.1,1.1l-0.7,1.3c-0.1,0.2-0.1,0.4,0.1,0.5c0.3,0.2,0.5,0.5,0.7,0.8c0.1,0.2,0.3,0.2,0.5,0.2
							L275.9,16z M272.9,21c0.5-0.9,0.5-1.9,0.2-2.8c-0.3-1-1-1.7-1.8-2.2c-0.9-0.5-1.9-0.5-2.8-0.2c-2,0.6-3,2.7-2.4,4.7
							c0.3,1,1,1.7,1.8,2.2c0.5,0.3,1.1,0.4,1.7,0.4c0.4,0,0.8-0.1,1.1-0.2C271.7,22.5,272.5,21.9,272.9,21z"/>
						<path class="st0" d="M258.3,20c0.5-0.4,0.8-1,0.9-1.7s-0.1-1.3-0.6-1.8c-0.4-0.5-1-0.8-1.7-0.9c-0.7-0.1-1.3,0.1-1.8,0.6
							c-0.5,0.4-0.8,1-0.9,1.7c-0.1,0.7,0.1,1.3,0.6,1.8c0.4,0.5,1,0.8,1.7,0.9c0.1,0,0.2,0,0.2,0C257.3,20.6,257.8,20.4,258.3,20z
							 M259.6,16.8c0.1,0.2,0.1,0.4,0.2,0.6c0,0.2,0.2,0.3,0.4,0.4l0.7,0.1l-0.1,1.1l-0.7-0.1c-0.2,0-0.4,0.1-0.5,0.3
							c-0.1,0.2-0.2,0.4-0.3,0.6c-0.1,0.2-0.1,0.4,0,0.5l0.5,0.5l-0.9,0.7l-0.5-0.5c-0.1-0.2-0.3-0.2-0.5-0.1s-0.4,0.1-0.6,0.2
							c-0.2,0-0.3,0.2-0.4,0.4l-0.1,0.7l-1.1-0.1l0.1-0.7c0-0.2-0.1-0.4-0.3-0.5c-0.2-0.1-0.4-0.2-0.6-0.3c-0.2-0.1-0.4-0.1-0.5,0
							l-0.5,0.4l-0.7-0.9l0.5-0.4c0.2-0.1,0.2-0.3,0.1-0.5c-0.1-0.2-0.1-0.4-0.2-0.6c0-0.2-0.2-0.3-0.4-0.4l-0.7-0.1l0.1-1.1
							l0.7,0.1c0.2,0,0.4-0.1,0.5-0.3c0.1-0.2,0.2-0.4,0.3-0.6c0.1-0.2,0.1-0.4,0-0.5l-0.5-0.5l0.9-0.7l0.5,0.5
							c0.1,0.2,0.3,0.2,0.5,0.1c0.2-0.1,0.4-0.1,0.6-0.2c0.2,0,0.3-0.2,0.4-0.4l0.1-0.7l1.1,0.1l-0.1,0.7c0,0.2,0.1,0.4,0.3,0.5
							c0.2,0.1,0.4,0.2,0.6,0.3c0.2,0.1,0.4,0.1,0.5,0l0.5-0.4l0.7,0.9l-0.5,0.5C259.5,16.4,259.5,16.6,259.6,16.8z"/>
					</g>
					<g>
						<path d="M269.6,20.1c0.6-0.2,0.9-0.8,0.7-1.4c-0.1-0.3-0.3-0.5-0.5-0.6c-0.2-0.1-0.3-0.1-0.5-0.1c-0.1,0-0.2,0-0.3,0.1
							c-0.3,0.1-0.5,0.3-0.6,0.5c-0.1,0.3-0.2,0.6-0.1,0.8C268.4,19.9,269.1,20.3,269.6,20.1z M271.2,18.3c0.3,1-0.3,2.2-1.3,2.5
							c-0.2,0.1-0.4,0.1-0.6,0.1c-0.8,0-1.6-0.5-1.9-1.4c-0.2-0.5-0.1-1,0.1-1.5s0.7-0.8,1.2-1c0.5-0.2,1-0.1,1.5,0.1
							C270.7,17.4,271,17.8,271.2,18.3z"/>
						<path d="M271.8,20.3c0.3-0.7,0.4-1.4,0.2-2.2c-0.2-0.7-0.7-1.3-1.4-1.7c-0.4-0.2-0.9-0.3-1.3-0.3c-0.3,0-0.6,0-0.9,0.1
							c-1.5,0.5-2.3,2.1-1.8,3.6c0.2,0.7,0.7,1.3,1.4,1.7c0.7,0.3,1.4,0.4,2.2,0.2C270.9,21.5,271.5,21,271.8,20.3z M272.9,17.8
							c0.3,0.9,0.2,2-0.2,2.8c-0.5,0.9-1.2,1.5-2.2,1.8c-0.4,0.1-0.8,0.2-1.1,0.2c-0.6,0-1.2-0.1-1.7-0.4c-0.9-0.5-1.5-1.2-1.8-2.2
							c-0.6-2,0.5-4.1,2.4-4.7c1-0.3,2-0.2,2.8,0.2C271.9,16.1,272.6,16.9,272.9,17.8z"/>
						<path d="M276.4,18l-0.7-2.3l-1.4,0.4c-0.2,0.1-0.4,0-0.5-0.2c-0.2-0.3-0.4-0.6-0.7-0.8c-0.1-0.1-0.2-0.3-0.1-0.5l0.7-1.3
							l-2.1-1.1l-0.7,1.3c-0.1,0.2-0.3,0.3-0.5,0.2c-0.3-0.1-0.7-0.1-1.1-0.1c-0.2,0-0.4-0.1-0.4-0.3l-0.4-1.4l-2.3,0.7l0.4,1.4
							c0.1,0.2,0,0.4-0.2,0.5c-0.3,0.2-0.6,0.4-0.8,0.7c-0.1,0.1-0.4,0.2-0.5,0.1l-1.3-0.7l-1.1,2.1l1.3,0.7
							c0.2,0.1,0.3,0.3,0.2,0.5c-0.1,0.3-0.1,0.7-0.1,1.1c0,0.2-0.1,0.4-0.3,0.4l-1.4,0.4l0.7,2.3l1.4-0.4c0.2-0.1,0.4,0,0.5,0.2
							c0.2,0.3,0.4,0.6,0.7,0.8c0.1,0.1,0.2,0.3,0.1,0.5l-0.7,1.3l2.1,1.1l0.7-1.3c0.1-0.2,0.3-0.3,0.5-0.2c0.3,0.1,0.7,0.1,1.1,0.1
							l0,0c0.2,0,0.4,0.1,0.4,0.3l0.4,1.4l2.3-0.7l-0.4-1.4c-0.1-0.2,0-0.4,0.2-0.5c0.3-0.2,0.6-0.4,0.8-0.7
							c0.1-0.1,0.4-0.2,0.5-0.1l1.3,0.7l1.1-2.1l-1.3-0.7c-0.2-0.1-0.3-0.3-0.2-0.5c0.1-0.4,0.1-0.7,0.1-1.1c0-0.2,0.1-0.4,0.3-0.4
							L276.4,18z M276.9,21.5l-1.1,2.2c-0.1,0.2-0.3,0.4-0.5,0.4c-0.2,0.1-0.5,0-0.7-0.1l-1-0.5c-0.1,0.1-0.3,0.3-0.5,0.4l0.3,1.1
							c0.1,0.4-0.1,0.9-0.6,1.1l-2.3,0.7c-0.1,0-0.2,0-0.3,0c-0.4,0-0.7-0.2-0.8-0.6l-0.4-1.1c-0.2,0-0.4,0-0.6,0l-0.5,1
							c-0.1,0.2-0.3,0.4-0.5,0.4c-0.2,0.1-0.5,0-0.7-0.1l-2.2-1.1c-0.4-0.2-0.6-0.7-0.4-1.2l0.5-1c-0.1-0.1-0.3-0.3-0.4-0.5
							l-1.1,0.3c-0.4,0.1-0.9-0.1-1.1-0.6l-0.7-2.3c-0.1-0.5,0.1-0.9,0.6-1.1l1.1-0.3c0-0.2,0-0.4,0-0.6l-1-0.5
							c-0.2-0.1-0.3-0.3-0.4-0.5c-0.1-0.2-0.1-0.5,0.1-0.7l1.1-2.2c0.2-0.4,0.7-0.6,1.2-0.4l1,0.5c0.1-0.1,0.3-0.3,0.5-0.4l-0.3-1.1
							c-0.1-0.5,0.1-0.9,0.6-1.1l2.3-0.7c0.2-0.1,0.4,0,0.7,0.1c0.2,0.1,0.4,0.3,0.4,0.5l0.3,1.1c0.2,0,0.4,0,0.6,0l0.5-1
							c0.2-0.4,0.7-0.6,1.2-0.4l2.2,1.1c0.4,0.2,0.6,0.7,0.4,1.2l-0.5,1c0.1,0.1,0.3,0.3,0.4,0.5l1.1-0.3c0.2-0.1,0.5,0,0.7,0.1
							s0.4,0.3,0.4,0.5l0.7,2.3c0.1,0.2,0,0.4-0.1,0.7c-0.1,0.2-0.3,0.4-0.5,0.4l-1.1,0.3c0,0.2,0,0.4,0,0.6l1,0.5
							c0.2,0.1,0.3,0.3,0.4,0.5C277,21.1,277,21.3,276.9,21.5z"/>
						<path d="M255.3,16.5c-0.3,0.3-0.5,0.6-0.6,1.1c0,0.4,0.1,0.8,0.4,1.1c0.3,0.3,0.6,0.5,1.1,0.6c0.4,0,0.8-0.1,1.1-0.4
							c0.3-0.3,0.5-0.6,0.6-1.1c0-0.4-0.1-0.8-0.4-1.1c-0.3-0.3-0.6-0.5-1.1-0.6h-0.1C256,16.2,255.6,16.3,255.3,16.5z M258.3,16.2
							c0.4,0.5,0.6,1.1,0.6,1.8c-0.1,0.7-0.4,1.2-0.9,1.7c-0.4,0.4-1,0.6-1.6,0.6c-0.1,0-0.2,0-0.2,0c-0.7-0.1-1.2-0.4-1.7-0.9
							c-0.4-0.5-0.6-1.2-0.6-1.8c0.1-0.7,0.4-1.2,0.9-1.7c0.5-0.4,1.1-0.6,1.8-0.6C257.3,15.3,257.9,15.6,258.3,16.2z"/>
						<path d="M260.4,18.7l0.1-1.1l-0.7-0.1c-0.2,0-0.4-0.2-0.4-0.4c0-0.2-0.1-0.4-0.2-0.6s0-0.4,0.1-0.5l0.5-0.5l-0.7-0.9l-0.5,0.4
							c-0.2,0.1-0.4,0.1-0.5,0c-0.2-0.1-0.4-0.2-0.6-0.3c-0.2-0.1-0.3-0.3-0.3-0.5l0.1-0.7l-1.1-0.1v0.9c0,0.2-0.2,0.4-0.4,0.4
							c-0.2,0-0.4,0.1-0.6,0.2c-0.2,0.1-0.4,0-0.5-0.1l-0.5-0.5l-0.9,0.7l0.5,0.5c0.1,0.2,0.1,0.4,0,0.5c-0.1,0.2-0.2,0.4-0.3,0.6
							c-0.1,0.2-0.3,0.3-0.5,0.3l-0.7-0.1l-0.1,1.1l0.7,0.1c0.2,0,0.4,0.2,0.4,0.4c0,0.2,0.1,0.4,0.2,0.6s0,0.4-0.1,0.5l-0.5,0.4
							l0.7,0.9l0.6-0.5c0.2-0.1,0.4-0.1,0.5,0c0.2,0.1,0.4,0.2,0.6,0.3c0.2,0.1,0.3,0.3,0.3,0.5l-0.1,0.7l1.1,0.1l0.1-0.7
							c0-0.2,0.2-0.4,0.4-0.4c0.2,0,0.4-0.1,0.6-0.2c0.2-0.1,0.4,0,0.5,0.1l0.5,0.5l0.9-0.7l-0.5-0.5c-0.1-0.2-0.1-0.4,0-0.5
							c0.1-0.2,0.2-0.4,0.3-0.6c0.1-0.2,0.3-0.3,0.5-0.3L260.4,18.7z M260.7,15.1c0.2,0.3,0.2,0.7-0.1,1l-0.5,0.4v0.1l0.6,0.1
							c0.2,0,0.4,0.1,0.5,0.3c0.1,0.1,0.2,0.3,0.2,0.5l-0.1,1.5c0,0.2-0.1,0.4-0.2,0.5c-0.1,0.1-0.3,0.2-0.5,0.2l-0.6-0.1
							c0,0,0,0.1-0.1,0.1l0.4,0.4c0.2,0.3,0.2,0.7-0.1,1l-1.2,1c-0.3,0.2-0.7,0.2-1-0.1l-0.4-0.4h-0.1l-0.1,0.6
							c0,0.2-0.1,0.4-0.3,0.5c-0.1,0.1-0.3,0.2-0.4,0.2c0,0,0,0-0.1,0l-1.5-0.1c-0.2,0-0.4-0.1-0.5-0.3c-0.1-0.1-0.2-0.3-0.2-0.5
							l0.1-0.6c0,0-0.1,0-0.1-0.1l-0.4,0.4c-0.1,0.1-0.3,0.2-0.5,0.2c-0.2,0-0.4-0.1-0.5-0.3l-1-1.2c-0.2-0.3-0.2-0.7,0.1-1l0.5-0.4
							v-0.1l-0.6-0.1c-0.2,0-0.4-0.1-0.5-0.3c-0.1-0.1-0.2-0.3-0.2-0.5l0.1-1.5c0-0.2,0.1-0.4,0.3-0.5c0.1-0.1,0.3-0.2,0.5-0.2
							l0.6,0.1c0,0,0-0.1,0.1-0.1l-0.4-0.5c-0.2-0.3-0.2-0.7,0.1-1l1.2-1c0.3-0.2,0.7-0.2,1,0.1l0.4,0.4h0.1l0.1-0.6
							c0-0.2,0.1-0.4,0.3-0.5c0.1-0.1,0.3-0.2,0.5-0.2l1.5,0.1c0.4,0,0.7,0.4,0.6,0.8l-0.1,0.6c0,0,0.1,0,0.1,0.1l0.4-0.4
							c0.3-0.2,0.7-0.2,1,0.1L260.7,15.1z"/>
						<path d="M273.9,30.6c2.8-0.6,4.9-2.7,4.9-5.1c0-0.2,0-0.5-0.1-0.7c0,0,0,0,0-0.1v-0.1c0,0,0,0,0-0.1v-0.1c0,0,0,0,0.1-0.1
							c0,0,0,0,0.1-0.1c1.2-0.9,1.8-2.2,1.8-3.5c0-0.5-0.1-1-0.3-1.5c0-0.1,0-0.1,0-0.2s0-0.1,0-0.2c0.2-0.6,0.3-1.3,0.3-2
							c0-3.7-2.9-7-6.8-7.2h-0.1h-0.1c-0.1,0-0.1-0.1-0.2-0.1l0,0c-1-1.1-2.4-1.7-3.9-1.7c-0.9,0-1.7,0.2-2.5,0.6
							c-0.1,0-0.1,0-0.2,0.1l0,0l0,0c-0.1,0-0.2,0-0.2,0c-0.8-0.4-1.8-0.6-2.7-0.6c-1.7,0-3.4,0.7-4.5,2l0,0l-0.1,0.1h-0.1h-0.1l0,0
							H259l0,0c-0.5-0.2-1-0.2-1.6-0.2c-1.5,0-2.9,0.6-3.9,1.7c0,0.1-0.1,0.1-0.2,0.1c0,0,0,0-0.1,0H253c-3.2,0.2-5.8,2.9-5.8,6.2
							c0,3.4,2.8,6.2,6.2,6.2c0.1,0,0.3,0,0.4,0l0,0h0.1h0.1c0,0,0,0,0.1,0c0,0,0.1,0,0.1,0.1l0,0c1,1.1,2.4,1.7,3.9,1.7
							c0.9,0,1.8-0.2,2.6-0.7h0.1c0,0,0,0,0.1,0c0.1,0,0.1,0,0.2,0l0,0c0,0,0.1,0,0.1,0.1l0,0l0.1,0.1l0,0l0,0l0,0l0,0
							c1,1.5,2.6,2.4,4.3,2.4l0,0h0.1c0,0,0,0,0.1,0c0,0,0.1,0,0.1,0.1l0,0l0,0c0.4,0.5,0.9,1,1.5,1.4l0,0c0,0,0,0,0.1,0.1l0.1,0.1
							l0,0c2.7,4.5,5,6.2,5.6,5.9c0.3-0.2,0.7-1.3-0.1-4.3l0,0l0,0v-0.1v-0.1v-0.1v-0.1c0,0,0,0,0.1-0.1c0,0,0-0.1,0.1-0.1h0.1
							C273.9,30.6,273.9,30.6,273.9,30.6L273.9,30.6L273.9,30.6z M274.7,31.4c0.5,2,0.7,4.3-0.6,5c-0.2,0.1-0.4,0.1-0.6,0.1
							c-1.8,0-4.3-3.1-6.3-6.3c-0.6-0.4-1.1-0.9-1.5-1.4c-1.9-0.1-3.6-1-4.7-2.5c-0.8,0.4-1.7,0.6-2.6,0.6c-1.7,0-3.3-0.7-4.5-1.9
							c-0.1,0-0.2,0-0.3,0c-3.9,0-7.3-3.2-7.3-7.3c0-3.7,2.8-6.9,6.6-7.2c1.2-1.2,2.8-2,4.5-2c0.5,0,1.1,0.1,1.6,0.2
							c1.3-1.3,3.1-2.1,5.2-2.1c1,0,2,0.2,3,0.6c0.9-0.4,1.8-0.6,2.7-0.6c1.7,0,3.3,0.7,4.5,1.9c4.2,0.4,7.5,3.9,7.5,8.2
							c0,0.7-0.1,1.4-0.3,2.1c0.2,0.5,0.3,1.1,0.3,1.7c0,1.6-0.7,3-1.9,4.1c0,0.2,0.1,0.4,0.1,0.6C279.9,28.1,277.8,30.6,274.7,31.4
							z"/>
					</g>
				</g>
				<g>
					<g>
						<path class="st1" d="M145.6,60.2h-9.5c0.4-1,1.3-1.8,2.7-2.3c0.3-0.1,0.5-0.3,0.5-0.7c0-0.3-0.1-0.5-0.3-0.7
							c-1.2-0.8-2-2.2-2-3.8c0-2.3,1.7-4.3,3.8-4.3s3.8,2,3.8,4.3c0,1.6-0.8,3-2,3.8c-0.3,0.1-0.4,0.4-0.3,0.7
							c0,0.3,0.3,0.5,0.5,0.7C144.3,58.2,145.2,59.2,145.6,60.2z"/>
						<path class="st1" d="M136.2,76.4h-9.5c0.4-1,1.3-1.8,2.7-2.3c0.3-0.1,0.5-0.3,0.5-0.7c0-0.3-0.1-0.5-0.3-0.7
							c-1.2-0.8-2-2.2-2-3.8c0-2.3,1.7-4.3,3.8-4.3c2.1,0,3.8,2,3.8,4.3c0,1.6-0.8,3-2,3.8c-0.3,0.1-0.4,0.4-0.3,0.7
							c0,0.3,0.3,0.5,0.5,0.7C134.8,74.4,135.8,75.3,136.2,76.4z"/>
						<path class="st1" d="M126.7,60.2h-9.5c0.4-1,1.3-1.8,2.7-2.3c0.3-0.1,0.5-0.3,0.5-0.7c0-0.3-0.1-0.5-0.3-0.7
							c-1.2-0.8-2-2.2-2-3.8c0-2.3,1.7-4.3,3.8-4.3s3.8,2,3.8,4.3c0,1.6-0.8,3-2,3.8c-0.3,0.1-0.4,0.4-0.3,0.7
							c0,0.3,0.3,0.5,0.5,0.7C125.4,58.2,126.4,59.2,126.7,60.2z"/>
					</g>
					<g>
						<path d="M154.2,76.1c-0.4-1-1.3-1.8-2.7-2.3c-0.3-0.1-0.5-0.3-0.5-0.7c0-0.3,0.1-0.5,0.3-0.7c1.2-0.8,2-2.2,2-3.8
							c0-2.3-1.7-4.3-3.8-4.3s-3.8,2-3.8,4.3c0,1.6,0.8,3,2,3.8c0.3,0.1,0.4,0.4,0.3,0.7c0,0.3-0.3,0.5-0.5,0.7
							c-1.4,0.4-2.5,1.3-2.7,2.3H154.2z M152.9,72.8c1.7,0.9,2.7,2.3,2.7,3.9c0,0.4-0.3,0.7-0.7,0.7h-11.2c-0.4,0-0.7-0.3-0.7-0.7
							c0-1.6,1-3.1,2.7-3.9c-1-1-1.6-2.6-1.6-4.2c0-3.3,2.3-5.7,5.2-5.7c2.9,0,5.2,2.6,5.2,5.7C154.6,70.2,153.9,71.8,152.9,72.8z"
							/>
						<path d="M137.9,57.6c-1.4,0.4-2.5,1.3-2.7,2.3h9.5c-0.4-1-1.3-1.8-2.7-2.3c-0.3-0.1-0.5-0.3-0.5-0.7c0-0.3,0.1-0.5,0.3-0.7
							c1.2-0.8,2-2.2,2-3.8c0-2.3-1.7-4.3-3.8-4.3c-2.1,0-3.8,2-3.8,4.3c0,1.6,0.8,3,2,3.8c0.3,0.1,0.4,0.4,0.3,0.7
							C138.4,57.2,138.2,57.5,137.9,57.6z M133.6,60.6c0-1.6,1-3.1,2.7-3.9c-1-1-1.6-2.6-1.6-4.2c0-3.1,2.3-5.7,5.2-5.7
							c2.9,0,5.2,2.6,5.2,5.7c0,1.6-0.7,3.1-1.6,4.2c1.7,0.9,2.7,2.3,2.7,3.9c0,0.4-0.3,0.7-0.7,0.7h-11.2
							C133.9,61.2,133.6,61,133.6,60.6z"/>
						<path d="M135.7,37c0,1.6-0.7,3.1-1.6,4.2c1.7,0.9,2.7,2.3,2.7,3.9c0,0.4-0.3,0.7-0.7,0.7H125c-0.4,0-0.7-0.3-0.7-0.7
							c0-1.6,1-3.1,2.7-3.9c-1-1-1.6-2.6-1.6-4.2c0-3.3,2.3-5.7,5.2-5.7C133.3,31.1,135.7,33.7,135.7,37z M135.3,44.4
							c-0.4-1-1.3-1.8-2.7-2.3c-0.3-0.1-0.5-0.3-0.5-0.7c0-0.3,0.1-0.5,0.3-0.7c1.2-0.8,2-2.2,2-3.8c0-2.3-1.7-4.3-3.8-4.3
							s-3.8,2-3.8,4.3c0,1.6,0.8,3,2,3.8c0.3,0.1,0.4,0.4,0.3,0.7c0,0.3-0.3,0.5-0.5,0.7c-1.4,0.4-2.5,1.3-2.7,2.3H135.3z"/>
						<path d="M135.3,76.1c-0.4-1-1.3-1.8-2.7-2.3c-0.3-0.1-0.5-0.3-0.5-0.7c0-0.3,0.1-0.5,0.3-0.7c1.2-0.8,2-2.2,2-3.8
							c0-2.3-1.7-4.3-3.8-4.3s-3.8,2-3.8,4.3c0,1.6,0.8,3,2,3.8c0.3,0.1,0.4,0.4,0.3,0.7c0,0.3-0.3,0.5-0.5,0.7
							c-1.4,0.4-2.5,1.3-2.7,2.3H135.3z M130.5,62.9c2.9,0,5.2,2.6,5.2,5.7c0,1.6-0.7,3.1-1.7,4.2c1.7,0.9,2.7,2.3,2.7,3.9
							c0,0.4-0.3,0.7-0.7,0.7h-11.2c-0.4,0-0.7-0.3-0.7-0.7c0-1.6,1-3.1,2.7-3.9c-1-1-1.6-2.6-1.6-4.2
							C125.3,65.5,127.6,62.9,130.5,62.9z"/>
						<path d="M124.9,52.5c0-2.3-1.7-4.3-3.8-4.3s-3.8,2-3.8,4.3c0,1.6,0.8,3,2,3.8c0.3,0.1,0.4,0.4,0.3,0.7c0,0.3-0.3,0.5-0.5,0.7
							c-1.4,0.4-2.5,1.3-2.7,2.3h9.5c-0.4-1-1.3-1.8-2.7-2.3c-0.3-0.1-0.5-0.3-0.5-0.7c0-0.3,0.1-0.5,0.3-0.7
							C124.1,55.5,124.9,54.1,124.9,52.5z M124.7,56.7c1.7,0.9,2.7,2.3,2.7,3.9c0,0.4-0.3,0.7-0.7,0.7h-11.2c-0.4,0-0.7-0.3-0.7-0.7
							c0-1.6,1-3.1,2.7-3.9c-1-1-1.6-2.6-1.6-4.2c0-3.1,2.3-5.7,5.2-5.7s5.2,2.6,5.2,5.7C126.3,54.1,125.8,55.5,124.7,56.7z"/>
						<path d="M106.5,68.7c0-3.3,2.3-5.7,5.2-5.7c2.9,0,5.2,2.6,5.2,5.7c0,1.6-0.7,3.1-1.6,4.2c1.7,0.9,2.7,2.3,2.7,3.9
							c0,0.4-0.3,0.7-0.7,0.7h-11.3c-0.4,0-0.7-0.3-0.7-0.7c0-1.6,1-3.1,2.7-3.9C107.1,71.8,106.5,70.2,106.5,68.7z M115.5,68.7
							c0-2.3-1.7-4.3-3.8-4.3s-3.8,2-3.8,4.3c0,1.6,0.8,3,2,3.8c0.3,0.1,0.4,0.4,0.3,0.7c0,0.3-0.3,0.5-0.5,0.7
							c-1.4,0.4-2.5,1.3-2.7,2.3h9.5c-0.4-1-1.3-1.8-2.7-2.3c-0.3-0.1-0.5-0.3-0.5-0.7c0-0.3,0.1-0.5,0.3-0.7
							C114.7,71.7,115.5,70.2,115.5,68.7z"/>
					</g>
				</g>
				<g>
					<path class="st2" d="M165.2,115.7c0,1,0.7,1.9,1.6,1.9c0.9,0,1.6-0.9,1.6-1.9c0-1-0.7-1.9-1.6-1.9
						C166,113.8,165.2,114.7,165.2,115.7z M180.3,107.4c-1.5-0.8-3.3-1.2-5.1-1.2c-1.4,0-2.7,0.3-4,0.8c0,0,0,0-0.1,0c0,0,0,0-0.1,0
						c0,0,0,0-0.1,0c0,0,0,0-0.1,0c-0.1,0.1-0.1,0.2-0.1,0.3v1.3c0,0.2,0.1,0.3,0.2,0.3h0.1h0.1c0.1,0,0.1,0,0.2,0h0.1
						c1.2-0.4,2.5-0.7,3.9-0.7c1.7,0,3.3,0.4,4.8,1.1c0.1,0,0.1,0.1,0.2,0.1c0.2,0,0.3-0.1,0.3-0.3V109v-0.1l0,0v-1.3l0,0
						C180.6,107.6,180.5,107.5,180.3,107.4z M163.5,104.8c1.5,0.9,3.3,2.5,3.8,4.7c0.1,0.3,0.3,0.3,0.5,0.3c0.3-0.1,0.3-0.3,0.3-0.5
						c-0.1-0.4-0.3-0.9-0.4-1.3c2.1-1.6,4.7-2.6,7.5-2.6c5.1,0,9.4,3,10.7,7.1c0.3,0.9,0.4,1.7,0.4,2.7c0,1.9-0.6,3.7-1.7,5.2
						l-0.1,0.1l0,0c-0.1,0-0.1,0.1-0.2,0.2c-0.6,1.3-2.7,5.4-3.3,6.4h-3.4c-0.1-0.5-0.1-1.3-0.1-2l0,0v-0.1c0,0,0,0,0-0.1V125
						c0,0,0-0.1-0.1-0.1c0,0,0,0-0.1-0.1h-0.1c0,0,0,0-0.1,0h-0.1h-0.1c-1.2,0.2-2.5,0.2-3.6,0c-0.3,0-0.4,0.1-0.5,0.3v0.1v0.1v1.8
						h-3.2c-0.2-1.6-0.3-2.7-0.5-3.4c0-0.2-0.2-0.3-0.3-0.3c0,0,0,0-0.1,0c-0.8-0.3-1.5-0.5-2.3-0.8c-1.7-0.6-3.4-1.2-4.6-1.5
						c-0.2-0.4-0.7-1.6-0.5-3.3l0.3,0.1c0.3,0.1,0.5,0.2,0.8,0.2l0,0c1.5,0,1.7-1.7,1.8-3.3c0.1-1.1,0.2-2.2,0.6-3
						c0.1-0.2,0.1-0.4-0.2-0.6l0,0C163.6,108.8,163.4,106.7,163.5,104.8z"/>
					<g>
						<path d="M187.1,109.9c0.2-0.3,0.3-0.6,0.3-0.9c0-0.2-0.1-0.3-0.1-0.4c-0.1-0.1-0.2-0.1-0.2-0.1l0,0c-0.1,0-0.2,0.3-0.2,0.4
							C186.9,109.3,186.9,109.6,187.1,109.9z M186.2,111.2l0.3-0.4c0.1-0.1,0.1-0.2,0.2-0.3c-0.4-0.4-0.6-1-0.6-1.6
							c0-0.5,0.3-1.1,0.8-1.3c0.3-0.1,0.9,0,1.1,0.3c0.2,0.3,0.3,0.6,0.3,0.9c0,0.5-0.2,1-0.4,1.5c0.3,0.2,0.6,0.2,0.9,0.2
							c0.3,0,0.4,0.1,0.5,0.3c0,0.3-0.1,0.4-0.3,0.5c-0.5,0.1-1.1,0-1.5-0.3c-0.1,0.1-0.1,0.2-0.2,0.3l-0.7,0.9
							C186.4,111.8,186.3,111.5,186.2,111.2z"/>
						<path d="M186.2,111.2c0.1,0.3,0.3,0.6,0.3,0.9l0,0c-0.1,0.1-0.2,0.2-0.3,0.2c-0.1,0-0.2,0-0.3-0.1s-0.1-0.2-0.2-0.3
							c0-0.1,0-0.3,0.1-0.3L186.2,111.2z"/>
						<path d="M186.9,114.8c0,2.1-0.7,4-1.9,5.7l-0.1,0.1c0.1-0.2,0-0.4-0.3-0.5c-0.2-0.1-0.3-0.1-0.4,0c0,0,0-0.1,0.1-0.1
							c1.1-1.5,1.7-3.4,1.7-5.2c0-0.9-0.2-1.8-0.4-2.7h0.2c0,0.1,0.1,0.2,0.2,0.3c0.1,0.1,0.2,0.1,0.3,0.1c0.1,0,0.3-0.1,0.3-0.2
							l0,0C186.7,113,186.9,113.8,186.9,114.8z"/>
						<path d="M184.5,120.1c0.2,0.1,0.3,0.3,0.3,0.5c-0.1,0.1-0.2,0.1-0.3,0.1c-0.1,0-0.2,0-0.3-0.1c-0.2-0.1-0.2-0.3-0.2-0.5l0,0
							C184.3,120.1,184.5,120,184.5,120.1z"/>
						<path d="M180.3,107.4L180.3,107.4c0-0.2-0.1-0.3-0.3-0.3c0,0-0.1,0-0.1-0.1C180.1,107,180.3,107.2,180.3,107.4z"/>
						<path d="M180.3,107.5c0,0.1,0,0.2-0.1,0.2c-0.1,0.2-0.3,0.3-0.3,0.3c-0.1,0-0.2,0-0.2-0.1c-0.1,0-0.2-0.1-0.3-0.1v-0.3
							c0-0.3,0.2-0.4,0.4-0.4h0.1c0,0,0.1,0,0.1,0.1C180.2,107.1,180.3,107.3,180.3,107.5z"/>
						<path d="M180.3,108.8c0,0.2-0.2,0.3-0.4,0.3s-0.4-0.2-0.4-0.4V108c0.2,0.1,0.4,0.2,0.6,0.3
							C180.2,108.4,180.3,108.6,180.3,108.8L180.3,108.8z"/>
						<path d="M179.8,107.9c0.2,0,0.3-0.1,0.3-0.3c0-0.1,0.1-0.1,0.1-0.2v1.3l0,0c0-0.2-0.1-0.3-0.3-0.3c-0.2-0.1-0.4-0.2-0.6-0.3
							v-0.3c0.1,0,0.2,0.1,0.3,0.1C179.7,107.8,179.7,107.9,179.8,107.9z"/>
						<path d="M178.3,98.2c0-2.2-1.5-4.1-3.5-4.1h1.7c0.3,0,0.6,0,0.9,0.1c1,0.9,1.8,2.3,1.8,3.9c0,1.6-0.7,3.1-1.8,3.9
							c-0.3,0.1-0.5,0.1-0.9,0.1h-1.7C176.7,102.3,178.3,100.4,178.3,98.2z"/>
						<path d="M184.5,120.7c0.1,0,0.2,0,0.3-0.1c0,0,0,0,0,0.1c-0.7,1.5-3.3,6.5-3.3,6.7s-0.3,0.3-0.3,0.3H177
							c-0.3,0-0.4-0.2-0.4-0.3c-0.1-0.4-0.1-1.2-0.2-2c0.2,0,0.3,0,0.5-0.1c0.2,0,0.3-0.2,0.3-0.4c0,0.7,0.1,1.5,0.1,2h3.5
							c0.5-1,2.7-5.1,3.3-6.4c0-0.1,0.1-0.2,0.2-0.2C184.2,120.3,184.3,120.5,184.5,120.7C184.4,120.7,184.5,120.7,184.5,120.7z"/>
						<path d="M176.3,124.8c0-0.2,0.2-0.3,0.3-0.4h0.1h0.1h0.1h0.1c0,0,0,0,0.1,0.1c0,0,0,0.1,0.1,0.1v0.1c0,0,0,0,0,0.1v0.1l0,0
							c0,0.2-0.2,0.4-0.3,0.4c-0.2,0-0.3,0-0.5,0.1C176.3,125.1,176.3,125,176.3,124.8z"/>
						<path d="M177.2,124.7C177.2,124.6,177.2,124.6,177.2,124.7C177.2,124.6,177.2,124.6,177.2,124.7z"/>
						<path d="M177.2,124.6C177.2,124.6,177.2,124.5,177.2,124.6C177.2,124.5,177.2,124.6,177.2,124.6z"/>
						<path d="M177.1,124.5C177.1,124.5,177,124.5,177.1,124.5C177,124.5,177,124.5,177.1,124.5z"/>
						<path d="M177,124.5C177,124.5,177,124.4,177,124.5C177,124.4,177,124.5,177,124.5z"/>
						<path d="M176.9,124.4L176.9,124.4L176.9,124.4z"/>
						<path d="M180.9,98.2c0,2.7-2,5-4.4,5h-1.7c0.9,0,1.9-0.3,2.6-0.9c1.5-0.4,2.7-2.1,2.7-3.9s-1.1-3.5-2.7-3.9
							c-0.7-0.6-1.6-0.9-2.6-0.9h1.7C178.9,93.2,180.9,95.5,180.9,98.2z"/>
						<path d="M173.4,124.9v0.3c-0.2,0-0.3,0-0.5-0.1c-0.2,0-0.3-0.2-0.3-0.3s0.2-0.3,0.4-0.3C173.2,124.5,173.4,124.7,173.4,124.9z
							"/>
						<path d="M173,124.4c1.2,0.2,2.5,0.2,3.6,0c-0.2,0-0.3,0.2-0.3,0.4c0,0.2,0,0.3,0,0.5c-0.5,0.1-0.9,0.1-1.5,0.1
							c-0.5,0-0.9,0-1.5-0.1V125c0-0.3-0.2-0.4-0.4-0.4c-0.2,0-0.3,0.2-0.4,0.3v-0.1C172.6,124.5,172.8,124.4,173,124.4z"/>
						<path d="M171.3,107v0.3c-0.1,0-0.2,0.1-0.3,0.1c-0.3,0.1-0.4,0-0.5-0.3c0-0.1,0-0.1,0-0.2s0-0.2,0.1-0.3c0,0,0,0,0.1,0
							c0,0,0,0,0.1,0c0,0,0,0,0.1,0c0,0,0,0,0.1,0h0.1C171.2,106.5,171.3,106.8,171.3,107z"/>
						<path d="M174.8,93.2c0.9,0,1.8,0.3,2.6,0.9c-0.3-0.1-0.5-0.1-0.9-0.1h-1.7c-1.9,0-3.5,1.8-3.5,4.1c0,2.2,1.5,4.1,3.5,4.1h1.7
							c0.3,0,0.6,0,0.9-0.1c-0.7,0.6-1.6,0.9-2.6,0.9c-2.4,0-4.4-2.2-4.4-5C170.4,95.5,172.4,93.2,174.8,93.2L174.8,93.2z"/>
						<path d="M174.8,107.1c1.5,0,3.2,0.3,4.5,0.9v0.7c0,0.3,0.2,0.4,0.4,0.4c0.2,0,0.3-0.2,0.4-0.3v0.1c-0.1,0.2-0.3,0.3-0.3,0.3
							s-0.2,0-0.2-0.1c-1.5-0.8-3.1-1.1-4.8-1.1c-1.3,0-2.6,0.3-3.9,0.7H171c0.2,0,0.3-0.2,0.3-0.4v-0.6
							C172.4,107.3,173.6,107.1,174.8,107.1z"/>
						<path d="M171.3,108.2c0,0.2-0.2,0.3-0.3,0.4h-0.1h-0.1h-0.1h-0.1c-0.1-0.1-0.2-0.2-0.2-0.3c0-0.2,0.1-0.3,0.3-0.4
							c0.2-0.1,0.3-0.2,0.6-0.2L171.3,108.2L171.3,108.2z"/>
						<path d="M170.9,108.7C170.9,108.7,171,108.7,170.9,108.7L170.9,108.7C170.8,108.7,170.9,108.7,170.9,108.7z"/>
						<path d="M174.8,105.8c1.8,0,3.5,0.4,5.1,1.2h-0.1c-0.3,0-0.4,0.2-0.4,0.4v0.3c-1.4-0.7-2.9-1-4.5-1c-1.2,0-2.4,0.2-3.5,0.6
							V107c0-0.3-0.2-0.4-0.4-0.4h-0.1C172.1,106.1,173.5,105.8,174.8,105.8z"/>
						<path d="M170.7,108.7C170.7,108.7,170.8,108.7,170.7,108.7C170.8,108.7,170.7,108.7,170.7,108.7z"/>
						<path d="M170.7,106.6L170.7,106.6L170.7,106.6z"/>
						<path d="M170.6,108.6C170.6,108.7,170.7,108.7,170.6,108.6C170.7,108.7,170.6,108.7,170.6,108.6z"/>
						<path d="M170.6,106.6L170.6,106.6L170.6,106.6z"/>
						<path d="M170.6,106.6C170.6,106.7,170.6,106.7,170.6,106.6C170.6,106.7,170.6,106.7,170.6,106.6z"/>
						<path d="M171.3,107.6c-0.2,0.1-0.3,0.1-0.6,0.2c-0.2,0.1-0.3,0.3-0.3,0.4V107c0,0.1,0,0.1,0,0.2c0.1,0.3,0.3,0.3,0.5,0.3
							c0.1,0,0.2-0.1,0.3-0.1L171.3,107.6L171.3,107.6z"/>
						<path d="M168.8,123.3c0.3,0.7,0.4,1.8,0.5,3.4h3.2V125v-0.1c0,0.2,0.2,0.3,0.3,0.3s0.3,0,0.5,0.1v1.9c0,0.3-0.2,0.4-0.4,0.4
							h-4c-0.3,0-0.4-0.2-0.4-0.4c-0.2-1.5-0.3-2.7-0.5-3.4h0.1c0.1,0,0.1,0,0.2,0c0.2,0,0.3-0.1,0.4-0.3c0.1-0.2,0-0.4-0.2-0.5
							C168.7,123.1,168.8,123.2,168.8,123.3z"/>
						<path d="M168.1,123.8c0-0.1,0-0.2-0.1-0.2c-0.1-0.3,0.1-0.4,0.3-0.5c0.1,0,0.2,0,0.3,0c0.2,0.1,0.3,0.3,0.2,0.5
							c-0.1,0.2-0.3,0.3-0.4,0.3C168.2,123.9,168.2,123.9,168.1,123.8C168.2,123.9,168.1,123.9,168.1,123.8z"/>
						<path d="M185.7,111.7c-0.1,0.1-0.1,0.3-0.1,0.3h-0.2c-1.3-4.1-5.6-7.1-10.7-7.1c-2.7,0-5.4,0.9-7.5,2.6
							c-0.1-0.3-0.3-0.5-0.4-0.8c2.1-1.7,5-2.7,7.9-2.7c5.2,0,9.6,3,11.3,7.1L185.7,111.7z"/>
						<path d="M167,106.8c0.2,0.3,0.3,0.5,0.4,0.8c-0.1,0.1-0.1,0.1-0.2,0.2c-0.2,0.2-0.4,0.1-0.6-0.1c-0.2-0.2-0.1-0.4,0.1-0.6
							C166.8,107,166.9,106.9,167,106.8z"/>
						<path d="M167.2,115.3c0-0.6-0.3-1-0.8-1s-0.8,0.5-0.8,1c0,0.5,0.3,1,0.8,1C166.9,116.4,167.2,115.9,167.2,115.3z M168.1,115.3
							c0,1-0.7,1.9-1.6,1.9c-0.9,0-1.6-0.9-1.6-1.9c0-1,0.7-1.9,1.6-1.9C167.4,113.4,168.1,114.2,168.1,115.3z"/>
						<path d="M164.4,110.7c0.1,0.2,0,0.4-0.2,0.6c-0.1,0-0.2,0.1-0.2,0.1c-0.2,0-0.3-0.1-0.3-0.3v-0.1c0-0.1,0.1-0.2,0.2-0.3
							C163.9,110.6,164.2,110.6,164.4,110.7L164.4,110.7C164.4,110.6,164.4,110.7,164.4,110.7z"/>
						<path d="M167.8,108.8c0.1,0.3-0.1,0.4-0.3,0.5c-0.3,0.1-0.4-0.1-0.5-0.3c-0.5-2.2-2.2-3.9-3.8-4.7c-0.1,1.9,0.1,4,1.2,6.3
							c-0.2-0.1-0.4-0.1-0.6,0.2c-0.1,0.1-0.1,0.2-0.2,0.3c-1.4-2.7-1.4-5.2-1.3-7.4c0-0.2,0.1-0.3,0.2-0.3s0.3-0.1,0.4,0
							c1.4,0.6,3,1.8,4,3.5c-0.1,0.1-0.2,0.2-0.3,0.3c-0.2,0.2-0.2,0.4-0.1,0.6c0.2,0.2,0.4,0.2,0.6,0.1c0.1-0.1,0.1-0.1,0.2-0.2
							C167.6,108,167.7,108.4,167.8,108.8z"/>
						<path d="M168.2,123.1c-0.3,0.1-0.3,0.3-0.3,0.5c0,0.1,0,0.1,0.1,0.2c-0.7-0.3-1.5-0.5-2.2-0.8c-1.8-0.6-3.6-1.2-4.8-1.6
							c-0.1,0-0.2-0.1-0.3-0.2c-0.1-0.1-1.1-1.9-0.7-4.5c0-0.1,0.1-0.3,0.2-0.3c0.1-0.1,0.3-0.1,0.3-0.1l0.8,0.3
							c0.2,0.1,0.3,0.1,0.5,0.1l0,0c0.7,0,0.9-0.9,0.9-2.6c0.1-1,0.2-2.2,0.6-3.1v0.1c0.1,0.2,0.3,0.3,0.3,0.3s0.2,0,0.2-0.1
							c0.2-0.1,0.3-0.3,0.2-0.6c0,0,0-0.1-0.1-0.1c0.2,0.1,0.3,0.3,0.2,0.6c-0.4,0.8-0.5,1.9-0.6,3c-0.2,1.6-0.3,3.3-1.8,3.3l0,0
							c-0.3,0-0.5-0.1-0.8-0.2l-0.3-0.1c-0.2,1.7,0.3,2.9,0.5,3.3c1.2,0.3,2.9,0.9,4.6,1.5c0.8,0.3,1.5,0.5,2.3,0.8c0,0,0,0,0.1,0
							C168.4,123.1,168.3,123.1,168.2,123.1z"/>
					</g>
				</g>
				<g>
					<path class="st3" d="M129.2,130.8c3.8,0,6.9,3.1,6.9,6.9c0,3.8-3.1,6.9-6.9,6.9c-3.7,0-6.9-3.1-6.9-6.9c0-0.3,0-0.6,0.1-1
						c0-0.3-0.1-0.5-0.4-0.6c-0.3-0.1-0.5,0-0.7,0.3l-4.6,8.8h-4.3l9.7-18.3c0.1-0.2,0.1-0.5-0.1-0.7s-0.5-0.1-0.7,0
						c-1.2,1.1-2.8,1.7-4.4,1.7c-3.6,0-6.7-3-6.7-6.7c0-3.6,3-6.7,6.7-6.7c3.6,0,6.7,3,6.7,6.7c0,0.3,0,0.6-0.1,0.9
						c0,0.3,0.1,0.5,0.4,0.6c0.3,0.1,0.5,0,0.7-0.3l4.2-8h4.3l-9.2,17.4c-0.1,0.2-0.1,0.5,0.1,0.7c0.2,0.2,0.5,0.2,0.7,0
						C125.9,131.5,127.5,130.8,129.2,130.8z M132.6,137.7c0-1.8-1.5-3.2-3.2-3.2c-1.8,0-3.2,1.5-3.2,3.2c0,1.8,1.5,3.2,3.2,3.2
						C131,141.1,132.6,139.5,132.6,137.7z M119.8,121.2c0-1.7-1.4-3.2-3.2-3.2c-1.7,0-3.2,1.4-3.2,3.2c0,1.7,1.4,3.2,3.2,3.2
						C118.4,124.5,119.8,123.1,119.8,121.2z"/>
					<g>
						<path d="M125.2,137.4c0-1.8,1.5-3.2,3.2-3.2c1.8,0,3.2,1.5,3.2,3.2c0,1.8-1.5,3.2-3.2,3.2
							C126.6,140.7,125.2,139.1,125.2,137.4z M126.3,137.4c0,1.2,1,2.1,2.1,2.1c1.2,0,2.1-1,2.1-2.1c0-1.2-1-2.1-2.1-2.1
							C127.2,135.2,126.3,136.2,126.3,137.4z"/>
						<path d="M112.6,120.9c0-1.7,1.4-3.2,3.2-3.2c1.7,0,3.2,1.4,3.2,3.2c0,1.7-1.4,3.2-3.2,3.2
							C114.1,124.1,112.6,122.7,112.6,120.9z M113.8,120.9c0,1.1,0.9,2,2.1,2c1.1,0,2-0.9,2-2s-0.9-2.1-2-2.1
							C114.7,118.8,113.8,119.8,113.8,120.9z"/>
						<path d="M109.1,120.9c0,3.7,3,6.7,6.7,6.7c1.6,0,3.2-0.6,4.4-1.7c0.2-0.2,0.5-0.2,0.7,0s0.3,0.5,0.1,0.7l-9.7,18.3h4.3
							l4.6-8.8c0.1-0.2,0.4-0.3,0.7-0.3c0.3,0.1,0.4,0.3,0.4,0.6c0,0.4-0.1,0.7-0.1,1c0,3.8,3.1,6.9,6.9,6.9c3.7,0,6.9-3.1,6.9-6.9
							c0-3.8-3.1-6.9-6.9-6.9c-1.7,0-3.3,0.6-4.6,1.8c-0.2,0.2-0.5,0.2-0.7,0c-0.2-0.2-0.3-0.5-0.1-0.7l9.2-17.4h-4.3l-4.2,8
							c-0.1,0.2-0.4,0.3-0.7,0.3c-0.3-0.1-0.4-0.3-0.4-0.6c0-0.3,0.1-0.6,0.1-0.9c0-3.6-3-6.7-6.7-6.7
							C112.1,114.3,109.1,117.2,109.1,120.9z M108,120.9c0-4.3,3.5-7.8,7.8-7.8c3.8,0,7.1,2.8,7.7,6.6l3.3-6.3
							c0.1-0.2,0.3-0.3,0.5-0.3h5.7c0.2,0,0.4,0.1,0.5,0.3c0.1,0.2,0.1,0.4,0,0.5l-8.6,16.2c1.1-0.5,2.2-0.8,3.5-0.8
							c4.4,0,8,3.6,8,8.1s-3.6,8-8,8c-4,0-7.4-2.9-8-6.9l-3.7,7.1c-0.1,0.2-0.3,0.3-0.5,0.3h-5.7c-0.2,0-0.4-0.1-0.5-0.3
							c-0.1-0.2-0.1-0.4,0-0.5l9.1-17.2c-1,0.5-2.1,0.7-3.3,0.7C111.5,128.7,108,125.2,108,120.9z"/>
					</g>
				</g>
				<g>
					<g>
						<path class="st4" d="M90.4,234.8l-12.7,8l8-12.7C87.5,231.5,89.1,233,90.4,234.8z"/>
						<path class="st4" d="M75,245.5l11,14.2c-3.1,2.2-6.8,3.4-10.5,3.4c-9.9,0-18-8.1-18-18c0-9.7,7.7-17.7,17.4-18v18v0.1
							C74.9,245.2,74.9,245.4,75,245.5C74.9,245.4,74.9,245.5,75,245.5L75,245.5z"/>
					</g>
					<g>
						<path d="M96.2,235.1c1.9,3.1,3,6.7,3,10.4c0,6-2.8,11.6-7.5,15.2c-0.1,0.1-0.2,0.1-0.4,0.1c0,0,0,0-0.1,0
							c-0.2,0-0.4-0.1-0.5-0.2l-11.5-14.8c-0.1-0.1-0.1-0.4-0.1-0.5c0-0.2,0.1-0.4,0.4-0.5l15.8-9.9C95.6,234.6,96,234.7,96.2,235.1
							z M97.9,245.4c0-3.1-0.8-6.3-2.4-9.1l-14.6,9.2l10.5,13.7C95.5,255.8,97.8,250.8,97.9,245.4z"/>
						<path d="M91,234.5c0.1,0.1,0.1,0.4,0.1,0.5c0,0.1-0.1,0.4-0.2,0.5L75.8,245l-0.4-0.4v-2.1l3.5-5.4c0,0.2,0.2,0.5,0.5,0.5
							c0.1,0,0.1,0,0.2,0c0.2,0,0.5-0.1,0.6-0.4l5.4-8.6C87.6,230.2,89.6,232.2,91,234.5z M76.7,242.6l12.7-8
							c-1.2-1.8-2.9-3.4-4.7-4.7L76.7,242.6z"/>
						<path d="M89.8,220.6c0.4,0.2,0.4,0.6,0.2,1l-4.6,7.3c-0.1-0.1-0.2-0.2-0.5-0.2c-0.1-0.1-0.4-0.1-0.5-0.1s-0.4,0.1-0.5,0.2
							l-5.3,8.3v-0.1v-18.7c0-0.4,0.4-0.7,0.7-0.7C83,217.5,86.7,218.5,89.8,220.6z M80.1,234.6l8.3-13.3c-2.5-1.5-5.4-2.3-8.3-2.4
							V234.6z"/>
						<path d="M86.7,259.2c0.2,0.2,0.1,0.7-0.1,1c-3.4,2.7-7.5,4.1-11.9,4.1c-10.6,0-19.4-8.7-19.4-19.4c0-10.6,8.7-19.4,19.4-19.4
							c0.4,0,0.7,0.2,0.7,0.7v16.3l-1.2,1.9c-0.1,0.1-0.1,0.2-0.1,0.4v-18c-9.7,0.4-17.4,8.3-17.4,18c0,9.9,8.1,18,18,18
							c3.7,0,7.4-1.2,10.5-3.4l-11.1-14.3c0,0,0,0,0,0.1c0.1,0.1,0.4,0.2,0.5,0.2s0.2,0,0.4-0.1l0.6-0.4L86.7,259.2z"/>
						<path d="M85.3,228.7l-5.4,8.6c-0.1,0.2-0.4,0.4-0.6,0.4c-0.1,0-0.1,0-0.2,0c-0.2-0.1-0.5-0.2-0.5-0.5l0,0l5.3-8.3
							c0.1-0.1,0.2-0.2,0.5-0.2c0.1,0,0.4,0,0.5,0.1C85.1,228.6,85.2,228.6,85.3,228.7z"/>
						<path d="M75.3,244.5l0.4,0.4l-0.6,0.4c-0.1,0.1-0.2,0.1-0.4,0.1c-0.1,0-0.4-0.1-0.5-0.2c0,0,0,0,0-0.1l0,0v-0.1
							c0-0.1,0-0.1-0.1-0.2v-0.1c0-0.1,0-0.2,0.1-0.4l1.2-1.9v2.3H75.3z"/>
						<path d="M74,245.1C74.1,245.1,74.1,245.1,74,245.1C74.1,245.1,74.1,245.1,74,245.1z"/>
						<path d="M74,244.8v0.1C74,244.9,74,244.9,74,244.8z"/>
					</g>
				</g>
				<g>
					<g>
						<path class="st5" d="M79.7,90.5c1,2.1,1.6,4.5,1.6,6.9c0,8.5-7,15.5-15.5,15.5s-15.5-7-15.5-15.5s7-15.5,15.5-15.5
							c2.5,0,6.4,1,8.8,2.5l-1.5,1.8c-1.3-0.7-4.3-2.4-7.3-2.4c-7.5,0-13.4,6-13.4,13.4c0,7.5,6.1,13.4,13.4,13.4
							c7.5,0,13.4-6,13.4-13.4c0-1.9-0.4-3.9-1.3-5.7L79.7,90.5z"/>
						<path class="st5" d="M75.1,93.8c0.4,1.2,0.7,2.4,0.7,3.7c0,5.5-4.5,9.9-9.9,9.9c-5.5,0-9.9-4.5-9.9-9.9c0-5.5,4.5-9.9,9.9-9.9
							c1.8,0,3.6,0.4,5.1,1.5l-1.6,1.6c-1-0.6-2.4-0.9-3.6-0.9c-4.3,0-7.8,3.4-7.8,7.8c0,4.3,3.4,7.8,7.8,7.8s7.8-3.4,7.8-7.8
							c0-0.9-0.1-1.6-0.4-2.4L75.1,93.8z"/>
						<path class="st5" d="M68.2,98.5l1-1.2c0,1.9-1.6,3.4-3.4,3.4c-1.9,0-3.4-1.6-3.4-3.4c0-1.9,1.6-3.4,3.4-3.4c0.1,0,0.4,0,0.6,0
							l-1.5,1.5c-0.4,0.4-0.6,0.9-0.6,1.5s0.3,1.2,0.7,1.6c0.4,0.4,1,0.6,1.6,0.6C67.3,99.2,67.9,98.9,68.2,98.5z"/>
						<polygon class="st5" points="87.2,81.1 81.4,85.3 72.3,92 80.3,84.3 81.7,82.9 85.3,79.3 						"/>
					</g>
					<g>
						<path d="M92.3,82.5c0.1,0.1,0.3,0.3,0.3,0.4c0,0.1-0.1,0.4-0.3,0.4l-8.2,3.3h-0.1h-0.1l-2.4-0.7l1-0.7l1.5,0.4l6.9-2.8
							l-3.3-1.5l0.3-0.1c0.1-0.1,0.1-0.3,0.1-0.4c0-0.1,0-0.3-0.1-0.4l0,0L92.3,82.5z"/>
						<path d="M87.8,80.5c0.1,0.1,0.1,0.3,0.1,0.4c0,0.1-0.1,0.3-0.1,0.4l-0.3,0.1l-5.2,3.7l-1,0.7l-0.3-0.1c-0.1,0-0.3-0.1-0.3-0.4
							c0-0.1,0-0.4,0.1-0.4l5.8-4.2l0.4-0.4C87.3,80.4,87.5,80.4,87.8,80.5L87.8,80.5L87.8,80.5z"/>
						<path d="M85.3,78.1l2.5,2.4h-0.1c-0.1-0.1-0.3,0-0.4,0L86.8,81l-1.9-1.8l-3.7,3.6l4-3.9c0.1-0.1,0.1-0.3,0.1-0.4L85.3,78.1z"
							/>
						<path d="M85.3,78.3c0,0.1,0,0.3-0.1,0.4l-4,3.9l-1.3,1.2C79.6,84,79.6,84,79.4,84h-0.1c-0.1,0-0.3-0.3-0.3-0.4v-0.3l0.9-0.9
							l4.3-4.2l0.1-0.1c0.1-0.1,0.4-0.1,0.7,0l0.1,0.1V78.3z"/>
						<path d="M84.1,73.4l1.2,4.8L85.1,78c-0.1-0.1-0.4-0.1-0.7,0l-0.1,0.1l-0.7-3.3l-3.7,6.4l0.1,1.2L79,83.4l-0.3-2.1
							c0-0.1,0-0.3,0-0.3l4.5-7.8c0.1-0.1,0.3-0.3,0.6-0.3C83.9,73.1,84.1,73.2,84.1,73.4z"/>
						<path d="M79.9,89.4c1.3,2.4,1.9,5.2,1.9,7.9c0,9.1-7.5,16.6-16.6,16.6s-16.6-7.5-16.6-16.6s7.5-16.6,16.6-16.6
							c2.8,0,7.5,1.2,9.9,3.1c0.1,0.1,0.1,0.1,0.1,0.3c0,0.1,0,0.3-0.1,0.4L73,87.3c-0.1,0.1-0.4,0.3-0.7,0.1
							c-0.9-0.6-4.2-2.4-7.2-2.4c-6.9,0-12.4,5.5-12.4,12.4c0,6.9,5.5,12.4,12.4,12.4c6.9,0,12.4-5.5,12.4-12.4
							c0-1.9-0.4-3.9-1.3-5.7c-0.1-0.3,0-0.4,0.1-0.6l2.5-1.8c0.1-0.1,0.3-0.1,0.4-0.1C79.7,89.1,79.9,89.2,79.9,89.4z M80.9,97.3
							c0-2.4-0.6-4.8-1.6-6.9l-1.8,1.2c0.9,1.8,1.3,3.7,1.3,5.7c0,7.5-6,13.4-13.4,13.4s-13.4-6-13.4-13.4c0-7.5,6.1-13.4,13.4-13.4
							c2.8,0,6,1.6,7.3,2.4l1.5-1.8c-2.4-1.5-6.3-2.5-8.8-2.5c-8.5,0-15.5,7-15.5,15.5s7,15.5,15.5,15.5
							C73.9,112.8,80.9,105.8,80.9,97.3z"/>
						<path d="M81.2,86.1l-10.2,7.3l-4.8,3.4c-0.1,0-0.1,0.1-0.3,0.1c-0.1,0-0.3,0-0.4-0.1s-0.1-0.4,0-0.7l4.2-4.2l9-8.7v0.3
							c0,0.1,0.1,0.3,0.3,0.4h0.1c0.1,0,0.3,0,0.3-0.1l-8.1,7.8l9.1-6.7c-0.1,0.1-0.3,0.3-0.1,0.4c0,0.1,0.1,0.3,0.3,0.4L81.2,86.1z
							"/>
						<path d="M75.2,92.5c0.7,1.5,1,3.1,1,4.6c0,6-4.9,10.9-10.9,10.9s-10.9-4.9-10.9-10.9c0-6,4.9-10.9,10.9-10.9
							c2.2,0,4.3,0.7,6.3,1.9c0.1,0.1,0.1,0.1,0.1,0.3c0,0.1,0,0.3-0.1,0.4l-2.2,2.4c-0.1,0.1-0.4,0.1-0.6,0.1
							c-1-0.6-2.2-0.9-3.4-0.9c-3.7,0-6.7,3-6.7,6.7c0,3.7,3,6.7,6.7,6.7c3.7,0,6.7-3,6.7-6.7c0-0.9-0.1-1.6-0.4-2.4
							c-0.1-0.3,0-0.4,0.1-0.6l2.7-1.8c0.1-0.1,0.3-0.1,0.4,0C74.9,92.3,75.1,92.3,75.2,92.5z M75.2,97.3c0-1.3-0.3-2.5-0.7-3.7
							l-1.9,1.3c0.3,0.7,0.4,1.6,0.4,2.4c0,4.3-3.4,7.8-7.8,7.8s-7.8-3.4-7.8-7.8c0-4.3,3.4-7.8,7.8-7.8c1.2,0,2.4,0.3,3.6,0.9
							l1.6-1.6c-1.5-0.9-3.3-1.5-5.1-1.5c-5.5,0-9.9,4.5-9.9,9.9c0,5.5,4.5,9.9,9.9,9.9C70.8,107,75.2,102.6,75.2,97.3z"/>
						<path d="M69.7,95.8c0.1,0.4,0.1,0.9,0.1,1.2c0,2.5-2.1,4.5-4.5,4.5c-2.4,0-4.5-2.1-4.5-4.5c0-2.5,2.1-4.5,4.5-4.5
							c0.6,0,1.2,0.1,1.8,0.3c0.1,0,0.3,0.1,0.3,0.3c0,0.1,0,0.3-0.1,0.4l-2.1,2.1c-0.1,0.1-0.3,0.4-0.3,0.7s0.1,0.6,0.4,0.9
							c0.4,0.4,1.2,0.4,1.6,0l1.8-1.9c0.1-0.1,0.3-0.1,0.4-0.1C69.4,95.5,69.6,95.6,69.7,95.8z M68.8,97l-1,1.2
							c-0.4,0.4-0.9,0.6-1.5,0.6c-0.6,0-1.2-0.3-1.6-0.6c-0.4-0.4-0.7-1-0.7-1.6c0-0.6,0.1-1,0.6-1.5l1.5-1.5c-0.1,0-0.4,0-0.6,0
							c-1.9,0-3.4,1.6-3.4,3.4c0,1.9,1.6,3.4,3.4,3.4C67.2,100.6,68.8,98.9,68.8,97z"/>
					</g>
				</g>
				<g>
					<g>
						<path class="st6" d="M98.9,165.9l-3.5,4.5c-0.1,0.1-0.2,0.2-0.4,0.2l0,0c-0.1,0-0.3-0.1-0.4-0.1l-2.8-2.6c0-0.1,0-0.4,0-0.5
							c0-0.3,0-0.6,0.1-0.9l2.7,2.6c0.1,0.1,0.1,0.1,0.2,0.1c0.1,0,0.1-0.1,0.2-0.1l3.1-4.1C98.6,165.2,98.8,165.6,98.9,165.9z"/>
						<path class="st6" d="M97.9,153.4h-3.1v0.7c0,0.9-0.7,1.5-1.5,1.5c-0.9,0-1.5-0.7-1.5-1.5v-0.7H86v0.7c0,0.9-0.7,1.5-1.5,1.5
							c-0.9,0-1.5-0.7-1.5-1.5v-0.7h-3.1c-0.3,0-0.6,0.2-0.6,0.6v15.6c0,0.3,0.2,0.6,0.6,0.6H89c-0.1-0.1-0.1-0.4-0.2-0.5h-8.6
							c-0.1,0-0.4-0.1-0.4-0.4v-12.9c0-0.2,0.1-0.4,0.4-0.4h4.2h8.8h4.2c0.2,0,0.4,0.1,0.4,0.4v4c0.3,0.1,0.5,0.1,0.7,0.3v-6.8
							C98.4,153.7,98.2,153.4,97.9,153.4z"/>
					</g>
					<g>
						<path d="M93.4,151.9v1.6c0,0.3-0.2,0.6-0.6,0.6c-0.3,0-0.6-0.2-0.6-0.6v-1.6c0-0.3,0.2-0.6,0.6-0.6
							C93.1,151.4,93.4,151.6,93.4,151.9z"/>
						<path d="M95.1,159.8v-2h-2v2H95.1z M95.5,160.5h-2.6c-0.2,0-0.4-0.1-0.4-0.4v-2.6c0-0.1,0.1-0.4,0.4-0.4h2.6
							c0.1,0,0.4,0.1,0.4,0.4v2.6C95.8,160.3,95.6,160.5,95.5,160.5z"/>
						<path d="M91.6,166.3c-0.1,0.3-0.1,0.6-0.1,0.9c0,0.1,0,0.3,0,0.5l2.8,2.6c0.1,0.1,0.2,0.1,0.4,0.1l0,0c0.1,0,0.3-0.1,0.4-0.2
							l3.5-4.5c-0.1-0.4-0.4-0.7-0.6-1l-3.1,4.1c-0.1,0.1-0.1,0.1-0.2,0.1s-0.2,0-0.2-0.1L91.6,166.3z M99.3,165.7
							c0.1,0.1,0,0.2-0.1,0.3l-3.7,4.7c-0.2,0.3-0.5,0.4-0.9,0.4h-0.1c-0.3,0-0.6-0.1-0.8-0.3l-2.9-2.7c-0.1-0.1-0.1-0.1-0.1-0.2
							c0-0.2-0.1-0.4-0.1-0.5c0-0.1,0-0.1,0-0.1c0-0.5,0.1-1.1,0.3-1.6c0.1-0.1,0.1-0.1,0.2-0.2c0.1,0,0.2,0,0.3,0.1l2.9,2.7
							l3.2-4.1c0.1-0.1,0.1-0.1,0.2-0.1c0.1,0,0.1,0,0.2,0.1C98.6,164.5,99,165,99.3,165.7z"/>
						<path d="M95.2,161.6c3.1,0,5.6,2.6,5.6,5.6c0,3.1-2.6,5.6-5.6,5.6c-3.1,0-5.6-2.6-5.6-5.6C89.6,164.1,92.1,161.6,95.2,161.6z
							 M100.2,167.2c0-0.6-0.1-1.2-0.3-1.7c-0.7-1.9-2.5-3.2-4.7-3.2c-2.7,0-5,2.2-5,5c0,0.1,0,0.1,0,0.2c0.1,2.6,2.3,4.8,5,4.8
							C98,172.2,100.2,169.9,100.2,167.2z"/>
						<path d="M91.3,159.8v-2h-2v2H91.3z M92,157.5v2.6c0,0.1-0.1,0.4-0.4,0.4H89c-0.1,0-0.4-0.1-0.4-0.4v-2.6
							c0-0.1,0.1-0.4,0.4-0.4h2.6C91.8,157.1,92,157.3,92,157.5z"/>
						<path d="M89.3,162.8c0.3-0.4,0.7-0.8,1.1-1.2h-1.1V162.8z M89,161h2.5c0.1,0,0.3,0.1,0.3,0.2c0.1,0.1,0,0.3-0.1,0.4
							c-1,0.6-1.8,1.5-2.3,2.6c-0.1,0.1-0.1,0.1-0.3,0.1h-0.1c-0.1,0-0.2-0.1-0.2-0.3v-2.6C88.6,161.1,88.8,161,89,161z"/>
						<path d="M87.3,159.8v-2h-2v2H87.3z M84.6,160.1v-2.6c0-0.1,0.1-0.4,0.4-0.4h2.7c0.1,0,0.4,0.1,0.4,0.4v2.6
							c0,0.1-0.1,0.4-0.4,0.4H85C84.7,160.5,84.6,160.3,84.6,160.1z"/>
						<path d="M87.3,163.7v-2h-2v2H87.3z M84.6,164v-2.6c0-0.1,0.1-0.4,0.4-0.4h2.7c0.1,0,0.4,0.1,0.4,0.4v2.6
							c0,0.1-0.1,0.4-0.4,0.4H85C84.7,164.3,84.6,164.2,84.6,164z"/>
						<path d="M87.3,167.6v-2h-2v2H87.3z M87.6,168.2h-2.7c-0.1,0-0.4-0.1-0.4-0.4v-2.6c0-0.2,0.1-0.4,0.4-0.4h2.7
							c0.1,0,0.4,0.1,0.4,0.4v2.6C87.9,168.1,87.8,168.2,87.6,168.2z"/>
						<path d="M84.5,151.9v1.6c0,0.3-0.2,0.6-0.6,0.6c-0.3,0-0.6-0.2-0.6-0.6v-1.6c0-0.3,0.2-0.6,0.6-0.6
							C84.3,151.4,84.5,151.6,84.5,151.9z"/>
						<path d="M83.4,163.7v-2h-2v2H83.4z M84.1,161.4v2.6c0,0.1-0.1,0.4-0.4,0.4h-2.6c-0.2,0-0.4-0.1-0.4-0.4v-2.6
							c0-0.1,0.1-0.4,0.4-0.4h2.6C83.9,161,84.1,161.1,84.1,161.4z"/>
						<path d="M83.4,167.6v-2h-2v2H83.4z M84.1,165.2v2.6c0,0.1-0.1,0.4-0.4,0.4h-2.6c-0.2,0-0.4-0.1-0.4-0.4v-2.6
							c0-0.2,0.1-0.4,0.4-0.4h2.6C83.9,164.9,84.1,165,84.1,165.2z"/>
						<path d="M85.6,153.8c0,0.9-0.7,1.5-1.5,1.5c-0.9,0-1.5-0.7-1.5-1.5v-0.7h-3.1c-0.3,0-0.6,0.2-0.6,0.6v15.6
							c0,0.3,0.2,0.6,0.6,0.6h9.1c-0.1-0.1-0.1-0.4-0.2-0.5h-8.5c-0.1,0-0.4-0.1-0.4-0.4v-12.8c0-0.2,0.1-0.4,0.4-0.4h4.2h8.8H97
							c0.2,0,0.4,0.1,0.4,0.4v4c0.3,0.1,0.5,0.1,0.7,0.3v-6.8c0-0.3-0.2-0.6-0.6-0.6h-3.1v0.7c0,0.9-0.7,1.5-1.5,1.5
							c-0.9,0-1.5-0.7-1.5-1.5v-0.7h-5.6L85.6,153.8L85.6,153.8z M84.1,154.8c0.5,0,0.9-0.4,0.9-0.9v-1c0-0.2,0.1-0.4,0.4-0.4h6.3
							c0.1,0,0.4,0.1,0.4,0.4v1c0,0.5,0.4,0.9,0.9,0.9c0.5,0,0.9-0.4,0.9-0.9v-1c0-0.2,0.1-0.4,0.4-0.4h3.5c0.7,0,1.2,0.5,1.2,1.2
							v7.3c0,0.1-0.1,0.2-0.1,0.3c-0.1,0.1-0.2,0.1-0.3,0c-0.4-0.2-0.9-0.4-1.3-0.5c-0.1-0.1-0.2-0.1-0.2-0.3v-3.9h-9.3h-7.5v12.1
							h7.5h0.9c0.1,0,0.3,0.1,0.3,0.2c0.1,0.4,0.2,0.8,0.4,1.1c0.1,0.1,0.1,0.2,0,0.3c-0.1,0.1-0.1,0.1-0.3,0.1h-9.6
							c-0.7,0-1.2-0.5-1.2-1.2v-15.6c0-0.7,0.5-1.2,1.2-1.2h3.5c0.1,0,0.4,0.1,0.4,0.4v1C83.1,154.3,83.6,154.8,84.1,154.8z"/>
					</g>
				</g>
				<g>
					<g>
						<path class="st7" d="M207,39.7c0.1,0.5,0.4,2.2,0.7,3.7c-0.5,0.4-2.3,1.6-5,1.6c-2.7,0-4.3-1.2-4.9-1.6
							c0.2-1.6,0.5-3.2,0.7-3.7c0.4-0.2,1.9-0.9,4.2-0.8C204.8,38.9,206.4,39.4,207,39.7z"/>
						<path class="st7" d="M195,39.6c0.1,0.5,0.4,2.2,0.7,3.7c-0.5,0.4-2.3,1.6-5,1.6c-2.7,0-4.3-1.2-4.9-1.6
							c0.2-1.6,0.5-3.2,0.7-3.7c0.4-0.2,1.9-0.9,4.2-0.8C192.8,38.8,194.5,39.4,195,39.6z"/>
						<path class="st7" d="M207.4,27.1c-0.1-0.1-0.2-0.2-0.2-0.4v-0.2V11.5c0-0.2,0.1-0.3,0.2-0.4c0.1-0.1,0.2-0.2,0.2-0.4
							c0-0.3-0.2-0.5-0.5-0.5h-22c-0.3,0-0.5,0.2-0.5,0.5c0,0.2,0.1,0.3,0.2,0.4c0.1,0.1,0.2,0.2,0.2,0.4v9.3h0.2v-9.1
							c0-0.3,0.2-0.5,0.5-0.5h20.9c0.3,0,0.5,0.2,0.5,0.5v14.9c0,0.3-0.2,0.5-0.5,0.5h-20.9c-0.3,0-0.5-0.2-0.5-0.5v-0.4H185v0.5
							c0,0.2-0.1,0.3-0.2,0.4c-0.1,0.1-0.2,0.2-0.2,0.4c0,0.3,0.2,0.5,0.5,0.5h22c0.3,0,0.5-0.2,0.5-0.5
							C207.7,27.2,207.5,27.1,207.4,27.1z"/>
					</g>
					<g>
						<path d="M202.2,37.5c0.4,0,0.7,0,1,0.1c-0.4,0.2-0.7,0.3-1,0.3c-0.3,0-0.7-0.1-1.1-0.3C201.4,37.5,201.8,37.5,202.2,37.5z"/>
						<path d="M202.8,24.1v-6.5l-1.7,1.3v5.2H202.8z M203.8,16.6v8c0,0.3-0.2,0.5-0.5,0.5h-2.6c-0.3,0-0.5-0.2-0.5-0.5v-5.9
							c0-0.1,0.1-0.3,0.2-0.4l2.4-1.9l0.2-0.2c0.1-0.1,0.3-0.1,0.5-0.1C203.7,16.3,203.8,16.4,203.8,16.6z"/>
						<path d="M204.3,34.8c0.1-0.3,0.1-0.4,0.1-0.4l0,0c-0.2-0.1-0.3-0.2-0.3-0.4v-0.1c0-0.3,0.1-1,0-1.3c0-0.1,0-0.1,0-0.1
							c-0.2,0-0.3-0.1-0.3-0.2c-0.2-0.4-0.8-0.5-1.2-0.6c-0.6-0.1-1-0.1-1.3,0.1c-0.1,0.1-0.2,0.2-0.2,0.3c0,0.1,0,0.2-0.1,0.2
							c-0.1,0.2-0.3,0.3-0.5,0.2l0,0c-0.1,0.4,0,1.1,0,1.3v0.1c0,0.2-0.1,0.4-0.3,0.5H200c0,0,0,0,0,0.1s0,0.2,0.1,0.3
							c0.1,0.3,0.2,0.4,0.2,0.4c0.2,0,0.4,0.1,0.4,0.3c0.5,1.4,1.2,1.4,1.5,1.4c0.3,0,1,0,1.5-1.4c0.1-0.2,0.2-0.3,0.4-0.3
							C204.2,35.1,204.3,35,204.3,34.8z M205.2,33.9c0.2,0.3,0.2,0.7,0,1.1c-0.2,0.6-0.5,0.9-0.7,1c-0.3,0.8-0.8,1.3-1.2,1.5
							c-0.3,0-0.7-0.1-1-0.1c-0.4,0-0.8,0-1.1,0c-0.4-0.2-0.9-0.7-1.2-1.5c-0.3-0.1-0.5-0.4-0.7-1c-0.1-0.2-0.1-0.4-0.1-0.6
							c0-0.2,0-0.4,0.1-0.5s0.1-0.2,0.3-0.3c0-0.3,0-0.9,0-1.3c0-0.4,0.2-0.6,0.4-0.7c0.1-0.1,0.2-0.1,0.2-0.1
							c0.1-0.2,0.2-0.4,0.4-0.6c0.5-0.4,1.2-0.4,2.1-0.2c0.4,0.1,1.2,0.3,1.7,0.9c0.2,0.1,0.4,0.2,0.6,0.6c0.2,0.4,0.1,1,0.1,1.4
							C205.1,33.7,205.2,33.8,205.2,33.9z"/>
						<path d="M199,24.1v-4.3h-1.7v4.3C197.3,24.1,199,24.1,199,24.1z M200,19.3v5.4c0,0.3-0.2,0.5-0.5,0.5h-2.6
							c-0.3,0-0.5-0.2-0.5-0.5v-5.4c0-0.3,0.2-0.5,0.5-0.5h2.6C199.8,18.8,200,19,200,19.3z"/>
						<path d="M207.2,38.9c0.2,0.5,0.7,3.7,0.8,4.3c0,0.1,0,0.3-0.1,0.4c-0.1,0.1-2.1,2-5.8,2c-3.6,0-5.7-1.9-5.7-2
							c-0.1-0.1-0.2-0.2-0.1-0.4c0.1-0.6,0.6-3.8,0.8-4.3c0-0.1,0.1-0.2,0.2-0.2c0.1,0,1.4-0.8,3.7-1c0.4,0.2,0.8,0.3,1.1,0.3
							c0.3,0,0.7-0.1,1-0.3c2.2,0.2,3.7,0.9,3.7,0.9C207.1,38.7,207.2,38.8,207.2,38.9z M207.1,43.1c-0.2-1.5-0.5-3.2-0.7-3.7
							c-0.5-0.2-2.2-0.8-4.2-0.8c-2.3-0.1-3.8,0.6-4.2,0.8c-0.1,0.5-0.4,2.2-0.7,3.7c0.5,0.4,2.1,1.6,4.9,1.6
							C204.8,44.6,206.6,43.5,207.1,43.1z"/>
						<path d="M193,21.2l2.6-1.7c0.1-0.1,0.3-0.1,0.5,0c0.1,0.1,0.2,0.2,0.2,0.4v4.6c0,0.3-0.2,0.5-0.5,0.5h-2.6
							c-0.3,0-0.5-0.2-0.5-0.5v-2.9C192.8,21.5,192.9,21.3,193,21.2z M195.4,24.1v-3.3l-1.7,1.1v2.2
							C193.7,24.1,195.4,24.1,195.4,24.1z"/>
						<polygon points="195.7,17.7 191.8,20.3 189.6,20.3 189.6,19.3 191.7,19.3 191.8,19.2 195.7,16.6 198.2,16.6 200.8,14.4 
							200.2,13.7 203.2,13 202.3,15.8 201.6,15.1 198.3,17.7 						"/>
						<path d="M190.2,37.5c0.4,0,0.7,0,1,0.1c-0.4,0.2-0.7,0.3-1,0.3c-0.3,0-0.7-0.1-1.1-0.3C189.4,37.5,189.8,37.5,190.2,37.5z"/>
						<path d="M189.3,21.7h2.7c0.1,0,0.2,0.1,0.3,0.1c0.1,0.1,0.1,0.2,0.1,0.3v2.4c0,0.3-0.2,0.5-0.5,0.5h-2.7
							c-0.3,0-0.5-0.2-0.5-0.5v-2.4C188.9,21.9,189.1,21.7,189.3,21.7z M191.6,22.6h-1.8v1.5h1.8V22.6z"/>
						<path d="M191.5,32.2c-0.2-0.4-0.8-0.5-1.2-0.6c-0.6-0.1-1.1-0.1-1.3,0.1c-0.1,0.1-0.2,0.2-0.2,0.3l0,0c0,0.1,0,0.2-0.1,0.3
							c-0.1,0.1-0.3,0.2-0.4,0.2l0,0l0,0c-0.1,0.4,0,1.1,0,1.3v0.1c0,0.2-0.1,0.4-0.3,0.5h-0.1c0,0,0,0,0,0.1s0,0.2,0.1,0.3
							c0.1,0.3,0.2,0.4,0.2,0.4c0.2,0,0.4,0.1,0.4,0.3c0.5,1.4,1.2,1.4,1.5,1.4s1,0,1.5-1.4c0.1-0.2,0.3-0.3,0.5-0.3
							c0,0,0.1-0.1,0.2-0.4c0.1-0.3,0.1-0.4,0.1-0.4l0,0c-0.2-0.1-0.4-0.3-0.3-0.5c0,0,0,0,0-0.1c0-0.3,0.1-1,0-1.2
							c0-0.1,0-0.1,0-0.1C191.7,32.4,191.6,32.3,191.5,32.2z M192.5,36c-0.3,0.8-0.8,1.3-1.2,1.5c-0.3,0-0.7-0.1-1-0.1
							c-0.4,0-0.8,0-1.1,0c-0.4-0.2-0.9-0.7-1.2-1.5c-0.3-0.1-0.5-0.4-0.7-1c-0.1-0.2-0.1-0.4-0.1-0.6c0-0.2,0-0.4,0.1-0.5
							s0.1-0.2,0.3-0.3c0-0.3,0-0.9,0-1.3c0-0.4,0.2-0.6,0.4-0.7c0.1-0.1,0.2-0.1,0.2-0.1c0.1-0.2,0.2-0.4,0.4-0.6
							c0.5-0.4,1.2-0.4,2.1-0.2c0.4,0.1,1.2,0.3,1.7,0.9c0.2,0.1,0.4,0.2,0.6,0.6c0.2,0.4,0.1,1,0.1,1.4c0.1,0.1,0.2,0.2,0.2,0.3
							c0.2,0.3,0.2,0.7,0,1.1C193.1,35.7,192.8,35.9,192.5,36z"/>
						<path d="M195.9,43.6c-0.1,0.1-2.1,2-5.8,2c-3.6,0-5.7-1.9-5.7-2c-0.1-0.1-0.2-0.2-0.1-0.4c0.1-0.6,0.6-3.8,0.8-4.3
							c0-0.1,0.1-0.2,0.2-0.2c0.1,0,1.4-0.8,3.7-1c0.4,0.2,0.8,0.3,1.1,0.3c0.3,0,0.7-0.1,1-0.3c2.2,0.2,3.7,0.9,3.7,0.9
							c0.1,0,0.2,0.1,0.2,0.2c0.2,0.5,0.7,3.7,0.8,4.3C196.1,43.3,196.1,43.5,195.9,43.6z M190.1,44.7c2.7,0,4.4-1.2,5-1.6
							c-0.2-1.5-0.5-3.1-0.7-3.7c-0.5-0.2-2.2-0.8-4.2-0.8c-2.3,0-3.8,0.6-4.2,0.8c-0.1,0.5-0.4,2.2-0.7,3.7
							C185.8,43.5,187.4,44.6,190.1,44.7z"/>
						<path d="M185.4,25H184h0.1h1.1C185.3,24.9,185.3,24.9,185.4,25z"/>
						<path d="M184,21.4h1.4h-0.1h-1.1C184.1,21.4,184,21.4,184,21.4z"/>
						<path d="M206.7,9c0.8,0,1.4,0.6,1.4,1.4c0,0.4-0.1,0.7-0.4,1v14.8c0.3,0.3,0.4,0.6,0.4,1c0,0.8-0.6,1.4-1.4,1.4h-22
							c-0.8,0-1.4-0.6-1.4-1.4c0-0.4,0.1-0.7,0.4-1v-0.8c0-0.2,0.1-0.4,0.3-0.4h1.4c0.2,0.1,0.3,0.2,0.3,0.4v0.4h17.6h2.3V11.9h-2.4
							h-17.5V21c0,0.1-0.1,0.2-0.1,0.3c-0.1,0.1-0.1,0.1-0.2,0.1H184c-0.2-0.1-0.3-0.2-0.3-0.4v-9.5c-0.3-0.3-0.4-0.6-0.4-1
							c0-0.8,0.6-1.4,1.4-1.4C184.7,9,206.7,9,206.7,9z M207.1,10.5c0-0.3-0.2-0.5-0.5-0.5h-22c-0.3,0-0.5,0.2-0.5,0.5
							c0,0.2,0.1,0.3,0.2,0.4c0.1,0.1,0.2,0.2,0.2,0.4v9.2h0.2v-9.1c0-0.3,0.2-0.5,0.5-0.5h20.9c0.3,0,0.5,0.2,0.5,0.5v14.9
							c0,0.3-0.2,0.5-0.5,0.5h-20.9c-0.3,0-0.5-0.2-0.5-0.5v-0.4h-0.1v0.5c0,0.2-0.1,0.3-0.2,0.4c-0.1,0.1-0.2,0.2-0.2,0.4
							c0,0.3,0.2,0.5,0.5,0.5h22c0.3,0,0.5-0.2,0.5-0.5c0-0.2-0.1-0.3-0.2-0.4c-0.1-0.1-0.2-0.2-0.2-0.4v-0.2v-15
							c0-0.2,0.1-0.3,0.2-0.4C207,10.8,207.1,10.7,207.1,10.5z"/>
						<path d="M174,14.9h1.8h0.1c-0.4,0.2-0.7,0.2-1,0.2c-0.3,0-0.7-0.1-1-0.2C173.9,14.9,173.9,14.9,174,14.9z"/>
						<path d="M177.3,11.8c0.1-0.4,0.1-0.5,0.1-0.5h-0.1c-0.2-0.1-0.3-0.2-0.3-0.4v-0.1c0.1-0.4,0.1-1.1,0-1.5l-0.1-0.1
							c-0.1,0-0.3-0.1-0.4-0.2c-0.2-0.4-1-0.6-1.3-0.7c-0.7-0.2-1.2-0.1-1.5,0.1c-0.2,0.1-0.2,0.3-0.2,0.4c0,0.1-0.1,0.2-0.1,0.3
							c-0.1,0.1-0.3,0.2-0.4,0.1c0,0,0,0,0,0.1c-0.1,0.5,0,1.4,0,1.5c0,0,0,0,0,0.1c0,0.2-0.1,0.4-0.3,0.5h-0.1c0,0-0.1,0.1,0.1,0.5
							c0.1,0.4,0.3,0.5,0.3,0.5l0,0c0.2,0,0.3,0.1,0.4,0.3c0.5,1.6,1.4,1.6,1.7,1.6s1.2,0,1.7-1.6c0.1-0.2,0.3-0.3,0.5-0.3
							C177.1,12.3,177.2,12.2,177.3,11.8z M178.2,10.8c0.2,0.3,0.2,0.7,0,1.2c-0.2,0.7-0.5,1-0.8,1.1c-0.4,1-0.9,1.5-1.5,1.7h-0.1
							H174h-0.1c-0.5-0.3-1.1-0.8-1.5-1.7c-0.3-0.1-0.6-0.4-0.8-1.1c-0.2-0.5-0.1-0.9,0-1.2c0.1-0.1,0.1-0.2,0.3-0.3
							c0-0.4,0-1,0-1.5c0-0.4,0.2-0.6,0.4-0.7c0.1-0.1,0.2-0.1,0.3-0.1c0.1-0.2,0.2-0.4,0.5-0.6c0.5-0.4,1.3-0.5,2.3-0.2
							c0.5,0.1,1.4,0.3,1.8,1c0.2,0.1,0.5,0.3,0.6,0.7c0.2,0.5,0.2,1.2,0.1,1.6C178,10.6,178.1,10.7,178.2,10.8z"/>
						<path d="M174.9,16.2l0.2-0.4h-0.3L174.9,16.2z M185.8,22.3h-3.4c-0.2,0-0.4-0.1-0.4-0.3l-2-5.1l-1.1-0.5l-1.5-0.5l-1.1,3.7
							c-0.1,0.2-0.2,0.3-0.5,0.3c-0.2,0-0.4-0.2-0.4-0.4l-0.5-2.4l-0.5,2.4c0,0.2-0.2,0.4-0.4,0.4c-0.2,0-0.4-0.1-0.5-0.3l-1.1-3.7
							l-4,1.3c-0.1,1.2-0.1,6.9,0,10.7c0.2,0,0.4,0.2,0.4,0.5v0.4h0.7v-0.4c0-0.2,0.2-0.4,0.4-0.5v-9.1c0-0.2,0.2-0.4,0.4-0.5
							l0.4-0.1c0.1,0,0.3,0,0.4,0.1c0.1,0.1,0.2,0.2,0.2,0.4v24.7c0.2,0,0.4,0.2,0.4,0.5v0.8h2V44c0-0.2,0.2-0.4,0.4-0.5V30
							c0-0.3,0.2-0.5,0.5-0.5h0.7c0.3,0,0.5,0.2,0.5,0.5v13.5c0.2,0,0.4,0.2,0.4,0.5v0.7h2V44c0-0.2,0.2-0.4,0.4-0.5V20.3
							c0-0.3,0.2-0.5,0.5-0.5h0.2c0.2,0,0.4,0.1,0.4,0.3l1.1,3.8h5.1c0-0.1,0.1-0.2,0.1-0.2c0.1-0.1,0.2-0.1,0.3-0.1h0.2v-0.9h-0.2
							C186.1,22.7,185.9,22.6,185.8,22.3z M182.7,21.4h1.2h0.1h1.1h0.1h0.9c0.2,0,0.4,0.2,0.5,0.4c0.4,0,0.7,0.4,0.7,0.7v1.3
							c0,0.2-0.1,0.4-0.2,0.5c-0.1,0.1-0.3,0.2-0.4,0.2c0,0.2-0.2,0.4-0.5,0.4h-0.9h-0.1h-1.1H184h-3.5c-0.2,0-0.4-0.1-0.4-0.3
							l-0.5-1.8v21.1c0,0.2-0.2,0.4-0.4,0.5v0.3c0,0.5-0.4,0.9-0.9,0.9h-2c-0.5,0-0.9-0.4-0.9-0.9v-0.3c-0.1,0-0.2-0.1-0.3-0.1
							c-0.1,0.1-0.2,0.1-0.3,0.2v0.2c0,0.5-0.4,0.9-0.9,0.9h-2c-0.5,0-0.9-0.4-0.9-0.9v-0.3c-0.2,0-0.4-0.2-0.4-0.5V29.4
							c-0.1,0.2-0.4,0.4-0.6,0.4h-1.1c-0.4,0-0.7-0.4-0.7-0.8v-0.1c-0.2,0-0.4-0.2-0.4-0.5c-0.1-4.1-0.1-11.1,0.1-11.7
							c0.1-0.1,0.2-0.2,0.3-0.3l4.9-1.6c0.1,0,0.2,0,0.4,0c0.1,0.1,0.2,0.2,0.2,0.3l0.7,2.3l0.2-0.9l-0.5-1c-0.1-0.1-0.1-0.3,0-0.4
							c0.1-0.1,0.1-0.2,0.3-0.2c0.4,0.2,0.7,0.2,1,0.2c0.3,0,0.7-0.1,1-0.2c0.1,0,0.2,0.1,0.3,0.2c0.1,0.1,0.1,0.3,0,0.4l-0.5,1
							l0.2,0.9l0.7-2.3c0-0.1,0.1-0.2,0.2-0.3c0.1-0.1,0.2-0.1,0.4,0l2,0.7l1.3,0.5c0.1,0,0.2,0.1,0.3,0.3L182.7,21.4z"/>
					</g>
				</g>
			</g>
			<g>
				<g>
					<g>
						<rect x="35.2" y="180.9" class="st8" width="8.8" height="24.8"/>
						<rect x="7.9" y="197.1" class="st8" width="8.8" height="8.6"/>
					</g>
					<g>
						<path d="M62,210.4v1.3c0,0.9-0.7,1.6-1.6,1.6H2.2c-0.9,0-1.6-0.7-1.6-1.6v-1.3c0-0.9,0.7-1.6,1.6-1.6h58.2
							C61.2,208.8,62,209.6,62,210.4z M60.3,211.7v-1.3H2v1.3H60.3z"/>
						<path d="M58.5,155.8c0.1,0.3,0.1,0.5-0.1,0.8l-7.8,10.7c-0.1,0.3-0.4,0.3-0.7,0.3c-0.1,0-0.3,0-0.3,0
							c-0.4-0.1-0.5-0.5-0.5-0.9l0.8-4.6l-17.1,7.6l-0.7,8.2c0,0.4-0.1,0.8-0.4,1.2c-0.3,0.3-0.5,0.5-0.9,0.8l-22.6,8.4
							c-0.3,0.1-0.5,0.1-0.8,0.1c-0.9,0-1.7-0.5-2.1-1.5c-0.4-1.2,0.1-2.4,1.3-2.8l21.2-7.8l0.7-8.1c0-0.8,0.5-1.5,1.3-1.9l18.3-8.1
							l-4.1-2.7c-0.3-0.3-0.4-0.5-0.3-0.9c0.1-0.4,0.5-0.5,0.8-0.5l13.3,1.5C58.3,155.3,58.4,155.6,58.5,155.8z M51.4,163.5l5-6.8
							l-8.5-0.9l2.5,1.6c0.3,0.1,0.4,0.4,0.4,0.8c0,0.3-0.3,0.5-0.5,0.7l-19.6,8.6c-0.3,0.1-0.3,0.3-0.4,0.5l-0.8,8.6
							c0,0.3-0.3,0.5-0.5,0.7l-21.8,8c-0.3,0.1-0.5,0.4-0.4,0.8c0.1,0.3,0.4,0.4,0.8,0.4l22.6-8.4c0.3-0.1,0.4-0.3,0.4-0.5l0.8-8.8
							c0-0.3,0.3-0.5,0.5-0.7l18.8-8.4c0.3-0.1,0.5-0.1,0.8,0.1c0.3,0.1,0.4,0.5,0.3,0.8L51.4,163.5z"/>
						<path d="M58.7,170.3v35c0,0.7-0.5,1.3-1.3,1.3h-9.3c-0.7,0-1.3-0.5-1.3-1.3v-35c0-0.7,0.5-1.3,1.3-1.3h2h7.4
							C58,169,58.7,169.6,58.7,170.3z M56.9,205.1v-34.4h-8.8v34.4H56.9z"/>
						<path d="M44.6,179.8v25.5c0,0.7-0.5,1.3-1.3,1.3H34c-0.7,0-1.3-0.5-1.3-1.3v-25.5c0-0.3,0.1-0.5,0.3-0.7
							c0.3-0.4,0.7-0.5,1.1-0.5h9.3C44.1,178.5,44.6,179.2,44.6,179.8z M43,205.1v-24.8h-8.8v24.8H43z"/>
						<path d="M30.9,187.8v17.5c0,0.7-0.5,1.3-1.3,1.3h-9.3c-0.7,0-1.3-0.5-1.3-1.3v-17.5c0-0.7,0.5-1.3,1.3-1.3h9.3
							C30.4,186.5,30.9,187.1,30.9,187.8z M29.4,205.1v-16.8h-8.8v16.8H29.4z"/>
						<path d="M17.4,196v9.3c0,0.7-0.5,1.3-1.3,1.3H6.8c-0.7,0-1.3-0.5-1.3-1.3V196c0-0.7,0.5-1.3,1.3-1.3h9.3
							c0.4,0,0.7,0.1,0.9,0.4C17.1,195.4,17.4,195.6,17.4,196z M15.7,205.1v-8.6H6.9v8.6H15.7z"/>
					</g>
				</g>
				<g>
					<g>
						<polygon class="st9" points="60.8,2.8 60.8,4.8 60.6,4.8 42,4.8 41.9,4.8 41.9,2.8 						"/>
						<path class="st9" d="M83.4,31.4v23.4H18.9V31.4l8.8,1.3V39c0,0.5,0.4,1,1,1h3.9c0.5,0,1-0.4,1-1v-5.4l17.7,2.9h0.1h0.1
							L69,33.5V39c0,0.5,0.4,1,1,1h3.9c0.5,0,1-0.4,1-1v-6.3L83.4,31.4z"/>
					</g>
					<g>
						<polygon points="82.6,28.7 82.6,30.5 73.7,32 73.7,30.2 						"/>
						<path d="M83.5,30.4l-1.1,0.1v-1.8V9.9H59.7c0.5,0,1-0.4,1-1V8h22.8c0.5,0,1,0.4,1,1v20.5C84.4,29.9,84,30.3,83.5,30.4z"/>
						<polygon points="73.7,30.2 73.7,32 71.9,32.3 71.9,30.4 						"/>
						<polygon points="71.9,30.4 71.9,32.3 69.9,32.6 69.9,30.8 						"/>
						<polygon points="69.9,30.8 69.9,32.6 68.1,32.9 68.1,31.1 						"/>
						<path d="M68.1,31.1v-4.8c0-0.5,0.4-1,1-1h3.9c0.5,0,1,0.4,1,1v3.9l-1.8,0.2v-3.3h-2.2v3.6L68.1,31.1z"/>
						<path d="M68.1,38.4v-5.4l1.8-0.2v4.8h2.1v-5.1l1.8-0.2v6.3c0,0.5-0.4,1-1,1h-3.9C68.4,39.2,68.1,38.8,68.1,38.4z"/>
						<path d="M60.7,8.1v1c0,0.5-0.4,1-1,1s-1-0.4-1-1v-1H60.7z"/>
						<rect x="58.9" y="5.9" width="1.8" height="2.2"/>
						<path d="M60.7,4.9v1h-1.8v-1c0-0.5,0.4-1,1-1S60.7,4.5,60.7,4.9z"/>
						<path d="M41.2,4.1h18.6c-0.5,0-1,0.4-1,1v1H42.1V4.9C42.1,4.5,41.7,4.1,41.2,4.1z"/>
						<path d="M59.7,9.9H41.2c0.5,0,1-0.4,1-1V8h16.8v1C58.9,9.5,59.3,9.9,59.7,9.9z"/>
						<path d="M50.2,35.8h-0.1l-17.6-2.9v-1.8L50.3,34l17.9-2.9v1.8l-17.6,2.9C50.3,35.8,50.3,35.8,50.2,35.8z"/>
						<path d="M42.1,8.1v1c0,0.5-0.4,1-1,1c-0.5,0-1-0.4-1-1v-1H42.1z"/>
						<rect x="40.3" y="5.9" width="1.8" height="2.2"/>
						<path d="M42.1,4.9v1h-1.8v-1c0-0.5,0.4-1,1-1C41.7,4.1,42.1,4.5,42.1,4.9z"/>
						<path d="M61.8,1.1v3.9c0,0.5-0.4,1-1,1h-0.2v-1c0-0.5-0.4-1-1-1h0.2V1.9H41V4h0.2c-0.5,0-1,0.4-1,1v1h-0.2c-0.5,0-1-0.4-1-1
							V1.1c0-0.5,0.4-1,1-1H61C61.4,0.2,61.8,0.6,61.8,1.1z"/>
						<polygon points="32.5,31.1 32.5,32.9 30.7,32.6 30.7,30.8 						"/>
						<polygon points="30.7,30.8 30.7,32.6 28.6,32.3 28.6,30.4 						"/>
						<polygon points="28.6,30.4 28.6,32.3 26.8,32 26.8,30.2 						"/>
						<path d="M26.8,26.3c0-0.5,0.4-1,1-1h3.9c0.5,0,1,0.4,1,1v4.8l-1.8-0.2v-3.6h-2.1v3.3l-1.8-0.2v-4H26.8z"/>
						<path d="M26.8,38.4v-6.3l1.8,0.2v5.2h2.1v-4.8l1.8,0.2v5.4c0,0.5-0.4,1-1,1h-3.9C27.2,39.2,26.8,38.8,26.8,38.4z"/>
						<polygon points="26.8,30.2 26.8,32 18,30.5 18,28.7 						"/>
						<path d="M16.2,29.4V8.9c0-0.5,0.4-1,1-1h23.2v1c0,0.5,0.4,1,1,1H18v18.8v1.8l-1.1-0.1C16.6,30.3,16.2,29.9,16.2,29.4z"/>
						<path d="M82.6,53.9V30.5l1.1-0.1c0.5-0.1,0.7-0.5,0.7-0.8v25.3c0,0.5-0.4,1-1,1H17c-0.5,0-1-0.4-1-1V29.5
							c0,0.5,0.4,0.8,0.7,0.8l1.1,0.1v23.4H82.6z"/>
					</g>
				</g>
			</g>
		</g>
	</g>
</g>
<g>
	<path d="M279.8,94.3c3.8-1,6.8-5.1,6.5-9c-0.1-1.9-0.9-3.6-0.7-5.3c0.1-2.8,2-5.2,3.4-7.7s2.4-5.7,0.7-8c-1.1-1.6-3-2.1-4.2-3.6
		c-1.2-1.2-1.9-3.1-2.6-4.7c-0.7-1.7-1.6-3.4-3.1-4.2c-1.6-0.9-4-0.4-4.6,1.1"/>
	<path d="M263.1,48.6c2.8-1.7,3.4-5.8,2-8.8c-1.6-3-4.7-4.7-7.9-5.2c-4.7-0.7-9.5,0.9-13,4.3c-1.9,1.9-3.2,4.2-5.7,5.1
		c-2.1,0.7-4.6,0.1-6.7,0.4c-3,0.4-5.5,2.6-7.1,5.1c-1.6,2.7-2.1,5.7-2.6,8.7c-0.3,2.8-0.6,5.8-2.4,7.8s-4.8,2.4-7.1,3.8
		c-4.3,2.7-5.8,9.2-2.8,13.4c1,1.2,2.2,2.6,2.2,4.2c0.1,1.4-0.9,2.8-1.2,4.2c-1.1,3.7,1.9,8,5.7,8.2c2,0.1,4-0.7,5.7,0.3
		c1.7,0.9,2.4,3,3.4,4.6c2.1,3.1,6.7,4.2,10,2.6c1.4-0.7,2.7-1.9,4.3-1.7c1.6,0.1,2.8,1.4,4.3,1.7c2,0.4,4-1.1,5.1-2.8
		c1.2-1.7,2-3.7,3.6-5.1c2-1.9,4.8-2.2,7.3-3.1c5.7-2,10.3-6.3,12.4-12c2.2-5.5,2-12-0.7-17.3"/>
	<g>
		<g>
			<g>
				<g>
					<g>
						<g>
							<path class="st10" d="M269.1,52.3c2.2,0.3,4,2.2,4,4.6l0,0l-2.7,60c-0.1,7.1-10.4,11-18,10.9l0,0c-7.7-0.1-7.9-4-7.9-10.8
								c-0.1-11.3-0.1-15.5-0.1-15.4c0,0-9.5-1.7-11.5-14.2c-1-6.2-0.7-16.5-0.1-25c0.4-7.7,5.5-16.8,13-16.1L269.1,52.3z"/>
						</g>
					</g>
				</g>
			</g>
		</g>
	</g>
	<g>
		<g>
			<g>
				<g>
					<g>
						<g>
							<g>
								<path class="st11" d="M235.5,70.5c0,0.9,0.7,1.6,1.6,1.7c0.9,0,1.6-0.6,1.7-1.4c0-0.9-0.7-1.6-1.6-1.7
									C236.4,68.9,235.6,69.6,235.5,70.5z"/>
							</g>
						</g>
					</g>
				</g>
			</g>
		</g>
		<g>
			<g>
				<g>
					<g>
						<g>
							<g>
								<g>
									<path class="st11" d="M235.1,67.6c0.1,0.1,1.4-0.7,3.1-0.7s3,0.9,3.2,0.7c0.1-0.1-0.1-0.4-0.7-0.9
										c-0.6-0.4-1.4-0.9-2.6-0.9c-1.1,0-2,0.4-2.6,0.9C235.1,67.3,234.9,67.5,235.1,67.6z"/>
								</g>
							</g>
						</g>
					</g>
				</g>
			</g>
		</g>
	</g>
	<g>
		<g>
			<g>
				<g>
					<g>
						<g>
							<g>
								<path class="st11" d="M252.7,70.5c0,0.9,0.7,1.6,1.6,1.7c0.9,0,1.6-0.6,1.7-1.4c0-0.9-0.7-1.6-1.6-1.7
									C253.6,68.9,252.9,69.6,252.7,70.5z"/>
							</g>
						</g>
					</g>
				</g>
			</g>
		</g>
		<g>
			<g>
				<g>
					<g>
						<g>
							<g>
								<g>
									<path class="st11" d="M252,68c0.1,0.1,1.4-0.7,3.1-0.7s3,0.9,3.2,0.7c0.1-0.1-0.1-0.4-0.7-0.9s-1.4-0.9-2.6-0.9
										s-2,0.4-2.6,0.9C252.1,67.5,251.9,67.9,252,68z"/>
								</g>
							</g>
						</g>
					</g>
				</g>
			</g>
		</g>
	</g>
	<g>
		<g>
			<g>
				<g>
					<g>
						<g>
							<g>
								<path class="st12" d="M245.7,80.9c0-0.1-1.1-0.3-2.8-0.6c-0.4,0-0.9-0.1-1-0.4c-0.1-0.3,0.1-0.9,0.3-1.2
									c0.4-1.1,0.9-2.2,1.2-3.4c1.9-4.8,3.1-8.8,3-8.9c-0.1-0.1-1.9,3.8-3.7,8.7c-0.4,1.1-0.9,2.2-1.2,3.4
									c-0.1,0.6-0.4,1.1-0.3,1.7c0.1,0.3,0.4,0.6,0.7,0.7c0.3,0.1,0.6,0.1,0.7,0.1C244.7,81,245.7,81,245.7,80.9z"/>
							</g>
						</g>
					</g>
				</g>
			</g>
		</g>
	</g>
	<g>
		<g>
			<g>
				<g>
					<g>
						<g>
							<path class="st12" d="M244.4,101.5c0,0,8.4,0.6,16.8-4.6c0,0-4.2,8.9-16.8,7.8V101.5z"/>
						</g>
					</g>
				</g>
			</g>
		</g>
	</g>
	<g>
		<g>
			<g>
				<g>
					<g>
						<g>
							<path class="st13" d="M246.4,85.1c0.6-0.9,1.7-1.2,2.8-1.1c0.7,0.1,1.6,0.4,2,1.1c0.4,0.6,0.6,1.6,0.1,2.1
								c-0.4,0.7-1.4,0.9-2.2,0.6c-0.9-0.3-1.6-0.9-2.2-1.2c-0.1-0.1-0.4-0.3-0.6-0.6C246.3,85.6,246.3,85.2,246.4,85.1"/>
						</g>
					</g>
				</g>
			</g>
		</g>
	</g>
	<g>
		<g>
			<g>
				<g>
					<g>
						<g>
							<g>
								<path class="st11" d="M250.7,82.1c-0.3,0-0.3,1.9-1.9,3.2c-1.6,1.2-3.7,1.1-3.7,1.4c0,0.1,0.4,0.4,1.2,0.4c0.9,0,2-0.3,3-1
									c1-0.9,1.4-2,1.4-2.7C251.1,82.6,250.9,82.1,250.7,82.1z"/>
							</g>
						</g>
					</g>
				</g>
			</g>
		</g>
	</g>
	<g>
		<g>
			<g>
				<g>
					<g>
						<g>
							<path d="M251.1,64.9c0.1,0.4,1.9,0.3,4,0.6c2,0.1,3.7,0.9,4,0.4c0.1-0.1-0.1-0.7-0.9-1.1c-0.7-0.4-1.7-0.9-3-1
								c-1.2-0.1-2.2,0-3.1,0.4C251.6,64.4,251.1,64.7,251.1,64.9z"/>
						</g>
					</g>
				</g>
			</g>
		</g>
	</g>
	<g>
		<g>
			<g>
				<g>
					<g>
						<g>
							<path d="M235.6,62.6c0.3,0.4,1.6,0,3,0c1.4,0,2.7,0.3,3-0.1c0.1-0.1,0-0.6-0.6-1c-0.6-0.4-1.4-0.7-2.4-0.7
								c-1,0-1.9,0.4-2.4,0.9C235.6,61.9,235.5,62.4,235.6,62.6z"/>
						</g>
					</g>
				</g>
			</g>
		</g>
	</g>
	<path d="M260.9,48.2c2.8-2,6.7-2.8,9.9-1.9c3.2,0.9,6.1,4,6.2,7.4c0.1,2.2-0.9,4.7,0.1,6.7c1,2,3.2,2.7,4.8,4.1
		c2.6,2.1,3.4,6.2,1.7,9.2c-1.4,2.6-4.2,4.3-4.6,7.2c-0.3,2.7,2,5,2.6,7.7c0.6,3-1,5.9-3.2,7.9c-2.2,2-5.2,3-8,4.1
		c-2.2,0.9-4.6,1.6-6.9,1.1c-2.7-0.6-4.8-3.2-5.1-5.9c-0.4-2.7,0.7-5.5,2.6-7.7c1.6-1.9,3.8-3.2,4.2-5.7c0.6-3.7-3.8-6.7-3.6-10.4
		c0.1-2,1.6-3.6,2.6-5.1c1-1.6,2.1-3.6,1.4-5.3c-0.9-2.2-4-3-5.8-4.7c-1.6-1.4-2.1-3.8-1.6-5.8c0.6-2,2.4-3.6,4.6-4"/>
	<path d="M262.4,45.3c0,2.6-1.1,5.1-3.1,6.7s-4.6,2.2-7.1,1.9c-2-0.3-4-1.2-5.7-0.3c-1.7,1.1-1.9,3.7-3.4,5.1c-2.2,2-5.8,0.1-8.4,1
		c-2.1,0.7-3.6,2.7-5,4.6c-1.4,1.7-3.6,3.4-5.8,2.8c0.1-2,0.3-4,0.9-5.8c0.6-1.9,1.7-3.7,3.2-4.8c0.9-0.6,2-1,2.8-1.6
		c1.9-1.4,2.2-4,3.4-6.1c1.4-2.7,4.2-4.6,7.2-4.8c2.4-0.3,5,0.4,7.4-0.1c1.9-0.4,3.4-1.6,5.1-2c3.6-0.7,6.8,1.9,9.3,4.3"/>
	<g>
		<path class="st14" d="M285.2,75.6c0,0,0.4-0.4,0.3-1.4c-0.1-1-0.9-2.2-2.6-3c-0.9-0.3-1.7-0.6-2.7-0.7c-1-0.3-2.1-0.6-3.1-1.2
			c-1-0.7-1.6-2.1-1.6-3.4c-0.1-1.2,0.1-2.7,0.1-4c0-0.7,0-1.2-0.1-2c-0.1-0.6-0.4-1.1-0.7-1.7c-0.7-1-2-1.4-3-1.7
			c-1.1-0.4-2.1-0.7-3.1-1.2c-0.9-0.6-1.7-1.2-2.2-1.9c-1.2-1.2-1.9-2.7-2.2-3.7c-0.1-0.4-0.3-0.9-0.3-1.1c0-0.3-0.1-0.4,0-0.4
			c0,0,0.1,0.6,0.6,1.4c0.4,0.9,1.1,2.1,2.2,3.4c1.2,1.2,3,2.4,5.2,3c1.1,0.4,2.4,0.9,3.2,1.9c0.4,0.6,0.7,1.1,0.9,1.9
			c0.1,0.7,0.1,1.4,0.1,2.1c-0.1,1.4-0.3,2.7-0.1,4c0,1.2,0.6,2.4,1.4,3.1c0.9,0.7,2,1,3,1.2c1,0.3,2,0.4,2.8,0.9
			c0.9,0.3,1.6,0.9,2,1.4c0.4,0.6,0.6,1.2,0.7,1.7c0,0.6-0.1,0.9-0.3,1.1C285.3,75.4,285.2,75.6,285.2,75.6z"/>
	</g>
	<g>
		<path class="st14" d="M211.4,83.2c0,0-0.1,0-0.1-0.1c-0.1-0.1-0.3-0.3-0.4-0.4c-0.3-0.6-0.3-1.6,0.3-2.6c0.3-0.4,0.7-1,1.4-1.2
			c0.6-0.3,1.2-0.6,2-0.9c0.7-0.3,1.6-0.6,2.1-1.2c0.6-0.6,1-1.4,1.2-2.4c0.3-1,0.3-2,0.4-3.1s0.6-2.2,1.2-3.2c1.4-2,3.8-3,5.7-4.8
			c0.9-0.9,1.6-2.1,2-3.4c0.4-1.2,0.7-2.7,0.9-4.1c0.4-2.8,0.9-5.9,2.7-8.4c0.9-1.2,2.2-2.1,3.8-2.4c1.6-0.3,3-0.1,4.3,0.1
			c1.4,0.1,2.8,0.4,4.1,0.3c1.2-0.1,2.6-0.9,3.4-1.7c1.7-1.9,2.7-4.3,4.8-5.7c2-1.2,4.3-1.4,6.3-0.9s3.4,1.9,4.2,3.2
			c0.9,1.4,1.1,2.8,1.1,4c0,1.2-0.1,2-0.4,2.6c-0.1,0.6-0.4,0.9-0.4,0.9s0.1-0.3,0.3-0.9c0.1-0.6,0.4-1.4,0.3-2.6
			c-0.1-1.1-0.3-2.4-1.1-3.8c-0.9-1.2-2.1-2.6-4.1-3.1c-1.9-0.6-4.1-0.3-6.1,0.9c-1,0.6-1.7,1.6-2.4,2.6c-0.7,1-1.4,2.1-2.2,3.1
			c-0.4,0.4-1,1-1.6,1.2c-0.6,0.3-1.2,0.6-2,0.6c-1.4,0.1-2.8,0-4.2-0.3c-1.4-0.1-2.8-0.4-4.2-0.1c-1.4,0.3-2.7,1.1-3.6,2.2
			c-0.9,1.1-1.4,2.6-1.9,4c-0.4,1.4-0.6,2.8-0.7,4.2c-0.3,1.4-0.4,2.8-1,4.1c-0.4,1.2-1.1,2.6-2.1,3.6c-1.9,1.9-4.2,3-5.7,4.7
			c-0.7,0.9-1,2-1.2,3c-0.3,1-0.3,2.1-0.4,3.1c-0.3,1-0.7,1.9-1.2,2.6c-0.7,0.6-1.6,1-2.2,1.2c-0.7,0.3-1.4,0.6-2,0.9
			c-0.6,0.3-1,0.7-1.2,1.1c-0.6,0.9-0.6,1.9-0.3,2.4C211.1,83.2,211.4,83.2,211.4,83.2z"/>
	</g>
	<path class="st15" d="M180.6,170.4l22.2-2.1c0,0,13.7-36.3,30.5-45.2l10.9,19.2l-23.4,44.3h-45.6L180.6,170.4z"/>
	<g>
		<path class="st16" d="M189.3,180.6c-0.1,0,0.7-1.7,1.9-3.7c1.1-2,2.1-3.4,2.2-3.4s-0.7,1.7-1.9,3.7
			C190.7,179.1,189.4,180.7,189.3,180.6z"/>
	</g>
	<g>
		<path class="st16" d="M205.2,180.1c-0.1,0.1-1.2-1.2-2.7-3c-1.4-1.7-2.4-3.2-2.4-3.4c0.1-0.1,1.2,1.2,2.7,3
			C204.2,178.5,205.3,180,205.2,180.1z"/>
	</g>
	<g>
		<path class="st16" d="M207.9,171.8c-0.1,0-0.3-1.2-0.3-3c0-1.8,0.1-3,0.3-3c0.1,0,0.3,1.2,0.3,3
			C208.1,170.5,208,171.8,207.9,171.8z"/>
	</g>
	<g>
		<path class="st16" d="M200.1,184.8c-0.1,0.1-1-0.4-2.1-1.1c-1.1-0.7-2-1.4-1.9-1.6c0.1-0.1,1,0.4,2.1,1.1
			C199.4,183.9,200.2,184.7,200.1,184.8z"/>
	</g>
	<g>
		<path class="st16" d="M212.7,151.5c0.1,0-0.6,1.9-1.6,4.1c-1,2.1-1.9,4-2,3.8c-0.1,0,0.6-1.9,1.6-4.1
			C211.7,153,212.6,151.3,212.7,151.5z"/>
	</g>
	<g>
		<path class="st16" d="M221.8,136.6c0.1,0.1-0.7,0.9-1.9,1.7c-1.1,0.9-2,1.4-2.1,1.2c-0.1-0.1,0.7-0.9,1.9-1.7
			C220.8,137.2,221.8,136.6,221.8,136.6z"/>
	</g>
	<path class="st17" d="M255.1,183.8l11.4-46.7c2-8.2,9.9-13.3,18.1-11.9l0,0c8.4,1.6,14.1,9.5,12.7,18.1l-7.1,45.6
		c-1.7,9.5-9.3,17-18.8,18.5l-9.2,1.4L255.1,183.8z"/>
	<g>
		<path class="st11" d="M291.2,122.3c0,0.1-1.2-1.4-4.1-2.1c-1.4-0.3-3.1-0.4-5,0s-3.7,1.4-5.3,2.8c-3.4,2.8-5.2,6.5-6.5,9.2
			c-0.6,1.2-1.1,2.4-1.4,3.1c-0.3,0.7-0.6,1.1-0.6,1.1s0.1-0.4,0.4-1.2c0.3-0.7,0.7-1.9,1.2-3.2c0.6-1.2,1.2-3,2.4-4.6
			c1-1.7,2.4-3.4,4.1-4.8c1.7-1.4,3.7-2.4,5.5-2.8c1.9-0.4,3.7-0.3,5.1,0c1.4,0.4,2.4,1,3.1,1.6c0.3,0.3,0.6,0.4,0.7,0.6
			C291.1,122.3,291.2,122.3,291.2,122.3z"/>
	</g>
	<g>
		<path class="st11" d="M226.3,132.8c0,0-0.1,0.1-0.3,0.4c-0.3,0.3-0.6,0.7-1,1.1c-0.9,1-2.1,2.6-3.4,4.6c-2.7,3.8-6.2,9.5-7.8,16.8
			c-1.6,7.1-1.7,13.9-2,18.5c-0.1,2.4-0.3,4.3-0.3,5.7c0,0.6-0.1,1.1-0.1,1.6c0,0.3,0,0.6-0.1,0.6c0,0,0-0.1,0-0.6
			c0-0.4,0-0.9,0-1.6c0-1.4,0.1-3.4,0.1-5.7c0.1-4.8,0.1-11.4,1.9-18.6s5.2-13,8-16.8c1.4-2,2.7-3.4,3.6-4.3c0.4-0.6,0.9-0.9,1-1.1
			C226.1,132.8,226.2,132.8,226.3,132.8z"/>
	</g>
	<path class="st17" d="M299.8,132.7c-1.2-8.3-5.8-10.3-10.5-13c-1.6-0.9-9-2.8-15-4.2c-0.6-3.7-1.6-10-1.9-11.4
		c-0.3-2-30.1,2.8-30.5,3.7c-0.3,0.4-1,8-1.4,13l-7.2,2.6l-9.3,12l-4.8,6.9c-2.8,4.1-5,8.4-6.1,13.3c-1.1,5.3-1.4,10.4-1.4,16.1
		l-1.4,30.6l62.4,17.8l4.8-31.1l16.1-22.2C295.1,157.8,301.3,142.9,299.8,132.7z"/>
	<g>
		<path class="st11" d="M246.4,121.5c0,0-0.3-0.9-0.4-2.1c-0.1-1.2-0.4-3.1-0.7-5.2c-0.1-1-0.3-2-0.3-2.8c-0.1-0.9-0.1-1.7-0.1-2.4
			c0-0.7,0.1-1.2,0.4-1.6c0.3-0.3,0.4-0.4,0.4-0.4s-0.1,0.1-0.3,0.4c-0.1,0.3-0.3,0.9-0.3,1.4c0,0.7,0.1,1.4,0.3,2.2
			c0.1,0.9,0.3,1.9,0.3,2.8c0.3,2,0.4,3.8,0.6,5.2C246.5,120.7,246.5,121.5,246.4,121.5z"/>
	</g>
	<g>
		<path class="st11" d="M254.5,119.7c0,0-0.3-0.7-0.7-2c-0.3-1.2-0.7-3-0.9-5c-0.1-2-0.1-3.7,0-5c0.1-1.2,0.3-2,0.3-2
			c0.1,0-0.1,3.1,0.3,6.9C253.7,116.6,254.6,119.7,254.5,119.7z"/>
	</g>
	<g>
		<path class="st11" d="M269.2,117.4c-0.1,0,0.6-3.1-0.1-6.9c-0.6-3.8-2.2-6.5-2.1-6.7c0,0,0.6,0.6,1.1,1.7s1.2,2.8,1.6,4.8
			c0.3,2,0.3,3.7,0.1,5C269.6,116.8,269.2,117.6,269.2,117.4z"/>
	</g>
	<g>
		<path class="st16" d="M226.9,144.8c-0.1,0,1-1.9,2.4-4c1.6-2,3-3.6,3-3.6c0.1,0.1-1.1,1.7-2.7,3.8
			C228.2,143.3,226.9,144.8,226.9,144.8z"/>
	</g>
	<g>
		<path class="st16" d="M240.8,133.3c-0.1,0.1-1.2-1.2-2.6-2.8c-1.2-1.7-2.2-3.1-2.1-3.1c0.1-0.1,1.2,1.2,2.6,2.8
			C240,131.8,241,133.3,240.8,133.3z"/>
	</g>
	<g>
		<path class="st16" d="M255.6,126.1c0.1,0.1-1.2,1.4-3,3c-1.7,1.6-3,3-3.1,2.8c-0.1-0.1,1-1.6,2.7-3.2
			C254,127.1,255.6,126,255.6,126.1z"/>
	</g>
	<g>
		<path class="st16" d="M251.5,117.2c-0.1,0.1-1.1-0.7-2.2-1.7c-1.1-1.1-2.1-2-2-2.1c0.1-0.1,1.1,0.7,2.2,1.7
			C250.6,116.2,251.6,117.2,251.5,117.2z"/>
	</g>
	<g>
		<path class="st16" d="M264.4,110.2c0,0.1-1.4,0.6-3.1,0.9c-1.7,0.4-3.1,0.6-3.2,0.4c0-0.1,1.4-0.6,3.1-0.9
			C262.8,110.4,264.4,110.1,264.4,110.2z"/>
	</g>
	<g>
		<path class="st16" d="M266.8,130.8c-0.1,0-0.3-1.4-0.4-3.2c-0.1-1.9,0-3.2,0.1-3.2c0.1,0,0.3,1.4,0.4,3.2
			C267.1,129.3,267,130.8,266.8,130.8z"/>
	</g>
	<g>
		<path class="st16" d="M262.1,140.7c-0.1,0-0.9-1.7-1.6-3.8c-0.7-2.1-1.2-3.8-1.1-4c0.1,0,0.9,1.7,1.6,3.8
			C261.8,138.9,262.4,140.7,262.1,140.7z"/>
	</g>
	<g>
		<path class="st16" d="M249.5,147.6c-0.1,0-1-1.7-1.7-4c-0.9-2.2-1.4-4.1-1.2-4.1c0.1,0,1,1.7,1.7,4
			C249,145.8,249.6,147.6,249.5,147.6z"/>
	</g>
	<g>
		<path class="st16" d="M237.5,155.6c-0.1,0-0.6-1.7-1-4c-0.4-2.1-0.7-4-0.6-4s0.6,1.7,1,4C237.4,153.8,237.6,155.6,237.5,155.6z"/>
	</g>
	<g>
		<path class="st16" d="M223.2,155.8c-0.1,0-1-1.4-2-3.4c-1-2-1.6-3.6-1.6-3.7c0.1,0,1,1.4,2,3.4
			C222.6,154.2,223.4,155.8,223.2,155.8z"/>
	</g>
	<g>
		<path class="st16" d="M223,165.1c0,0.1-1.6,1.1-3.7,2.1c-2.1,1-4,1.9-4,1.7c0-0.1,1.6-1.1,3.7-2.1
			C221.1,165.7,222.8,165,223,165.1z"/>
	</g>
	<g>
		<path class="st16" d="M223.1,179.7c-0.1,0-0.9-1.4-1.2-3.4c-0.6-2-0.7-3.6-0.6-3.6c0.1,0,0.6,1.6,1,3.6
			C222.8,178.1,223.2,179.7,223.1,179.7z"/>
	</g>
	<g>
		<path class="st16" d="M220.1,190c-0.1,0.1-1.4-1-3-2.4c-1.6-1.4-2.8-2.7-2.7-2.8c0.1-0.1,1.4,1,3,2.4
			C219,188.6,220.3,189.9,220.1,190z"/>
	</g>
	<g>
		<path class="st16" d="M238.9,182.9c0,0.1-2.1,0.7-4.6,1.9s-4.3,2.2-4.3,2.1c-0.1-0.1,1.7-1.4,4.2-2.6
			C236.6,183.2,238.9,182.8,238.9,182.9z"/>
	</g>
	<g>
		<path class="st16" d="M233.4,177.9c-0.1,0-0.7-1.4-1.4-3.2c-0.6-1.9-1-3.2-0.9-3.4c0.1,0,0.7,1.4,1.4,3.2
			C233.1,176.3,233.5,177.9,233.4,177.9z"/>
	</g>
	<g>
		<path class="st16" d="M244.6,165.3c0.1,0.1-1,2.1-2.6,4.6c-1.6,2.4-2.8,4.2-3,4.2c-0.1-0.1,1-2.1,2.6-4.6
			C243.2,167,244.4,165.3,244.6,165.3z"/>
	</g>
	<g>
		<path class="st16" d="M256.6,166.6c-0.1,0.1-1.6-1.7-3.1-4.2s-2.4-4.7-2.2-4.7c0.1,0,1.2,2,2.7,4.6
			C255.2,164.5,256.7,166.5,256.6,166.6z"/>
	</g>
	<g>
		<path class="st16" d="M263.7,154.6c0,0.1-1.6,0.6-3.6,0.6c-2,0.1-3.6-0.1-3.6-0.3c0-0.1,1.6-0.1,3.6-0.1
			C262,154.7,263.7,154.4,263.7,154.6z"/>
	</g>
	<g>
		<path class="st16" d="M280.7,141.1c0,0.1-2,1.2-4.6,2.4c-2.6,1.2-4.7,2.1-4.7,2s2-1.2,4.6-2.4S280.7,140.8,280.7,141.1z"/>
	</g>
	<g>
		<path class="st16" d="M281.8,132.4c-0.1,0,0.6-1.9,1.6-3.8c1-2,2-3.7,2-3.7c0.1,0-0.6,1.9-1.6,3.8
			C282.9,130.8,282,132.4,281.8,132.4z"/>
	</g>
	<g>
		<path class="st16" d="M292.7,139.2c-0.1,0-0.7-1.9-1.4-4.2s-1.4-4.2-1.2-4.2c0.2,0,1,1.7,1.7,4.1
			C292.5,137.2,292.8,139.2,292.7,139.2z"/>
	</g>
	<g>
		<path class="st16" d="M294.3,148.3c0,0.1-1.7,0.9-4.1,1.6c-2.2,0.6-4.2,0.9-4.2,0.7c0-0.1,1.9-0.6,4.1-1.1
			C292.5,148.6,294.3,148,294.3,148.3z"/>
	</g>
	<g>
		<path class="st16" d="M275.9,159c-0.1,0,0.3-2.2,0.4-5.1s-0.1-5.1,0-5.1s0.6,2.2,0.4,5.1C276.6,156.9,276,159,275.9,159z"/>
	</g>
	<g>
		<path class="st16" d="M272.2,170.4c-0.1,0.1-1.7-1.2-3.4-3.4c-1.7-2-2.7-4-2.7-4c0.1-0.1,1.2,1.7,3,3.7
			C270.8,168.8,272.2,170.4,272.2,170.4z"/>
	</g>
	<g>
		<path class="st16" d="M290.7,168c0,0.1-1.7,1-3.8,1.9s-4,1.6-4.1,1.4c0-0.1,1.7-1,3.8-1.9C288.9,168.6,290.7,167.8,290.7,168z"/>
	</g>
	<g>
		<path class="st16" d="M284.1,189.3c-0.1,0-0.3-2.2-0.1-5.1c0-2.8,0.1-5.1,0.3-5.1c0.1,0,0.3,2.2,0.1,5.1
			C284.3,187,284.2,189.3,284.1,189.3z"/>
	</g>
	<g>
		<path class="st16" d="M269.8,188c-0.1,0,0.1-2.4,0.9-5.2c0.8-2.8,1.6-5.1,1.7-5.1s-0.6,2.2-1.2,5.1
			C270.3,185.8,269.9,188,269.8,188z"/>
	</g>
	<g>
		<path class="st16" d="M270.6,193.7c0,0.1-2.2,0.4-5.1,0.9c-2.8,0.4-5.1,1-5.1,0.9c0-0.1,2.1-0.9,5-1.2
			C268.1,193.6,270.6,193.6,270.6,193.7z"/>
	</g>
	<g>
		<path class="st16" d="M254.7,190c-0.1-0.1,1.1-1.6,2.7-3.2c1.6-1.7,3-3,3.1-2.8c0.1,0.1-1.1,1.6-2.7,3.2
			C256.1,188.9,254.7,190.1,254.7,190z"/>
	</g>
	<g>
		<path class="st16" d="M244.4,200c-0.1,0-0.6-1.7-1.2-3.7s-1.4-3.6-1.2-3.7c0.1,0,1,1.4,1.7,3.6C244.4,198.3,244.6,200,244.4,200z"
			/>
	</g>
	<g>
		<path class="st16" d="M260.9,205.8c0,0.1-2.1-0.7-4.7-1.9c-2.6-1.2-4.6-2.1-4.3-2.2c0-0.1,2.1,0.7,4.7,1.9S261,205.6,260.9,205.8z
			"/>
	</g>
	<g>
		<path class="st16" d="M232.2,204.1c-0.1,0,0.3-1.6,0.9-3.4c0.6-1.9,1.2-3.2,1.2-3.2c0.1,0-0.3,1.6-0.9,3.4
			C232.9,202.7,232.3,204.1,232.2,204.1z"/>
	</g>
	<g>
		<path class="st16" d="M251.1,207.3c0,0.1-2.7-0.3-5.9-0.4c-3.2-0.1-5.9,0-5.9-0.1s2.7-0.4,5.9-0.3
			C248.5,206.6,251.1,207.2,251.1,207.3z"/>
	</g>
	<g>
		<path class="st11" d="M255.1,180c0,0,0-0.1,0-0.4c0-0.3,0-0.6,0.1-1c0.1-0.4,0.4-1,1-1.4c0.6-0.4,1.4-0.6,2.2-0.4l-0.1,0.1
			c1-3.6,2.7-8.8,4.2-14.5c1.6-5.5,2.6-10.4,3.2-14.1c0.3-1.7,0.6-3.2,0.9-4.3c0.1-1,0.3-1.6,0.4-1.6c0,0,0,0.6-0.1,1.6
			c-0.1,1-0.4,2.6-0.7,4.3c-0.6,3.7-1.6,8.8-3.1,14.1c-1.6,5.8-3.2,11-4.3,14.5v0.1h-0.1c-0.7-0.1-1.6,0-2,0.3
			c-0.6,0.3-0.9,0.9-1,1.2C255.1,179.6,255.1,180,255.1,180z"/>
	</g>
	<g>
		<path class="st11" d="M275.8,193c-0.1,0-0.7-1.2-1.9-3.1c-1.1-1.9-3-4.3-5.5-6.7c-2.6-2.2-5.1-4-7.1-5c-2-1-3.2-1.4-3.2-1.6
			c0,0,0.3,0,1,0.3c0.6,0.1,1.4,0.6,2.4,1c2,1,4.7,2.6,7.2,4.8s4.3,4.8,5.5,6.8c0.6,1,1,1.9,1.1,2.4
			C275.6,192.6,275.8,193,275.8,193z"/>
	</g>
	<g class="st18">
		<path d="M258.7,176.1c3.6,0.3,6.3,0.6,9.8,1.9c3.2,1.2,6.3,3.7,7.7,6.9c0.3,0.9,0.4,1.9-0.1,2.4c-0.4,0.4-1.1,0.4-1.7,0.3
			s-1.1-0.6-1.6-1c-2-1.9-4.1-3.6-6.2-5.3c-2.1-1.8-5.1-3.7-7.9-4.1"/>
	</g>
	<g>
		<path class="st11" d="M252,170.2c0,0-0.3,0.3-1,0.6c-0.7,0.3-1.6,0.7-2.8,1.1c-2.4,0.7-6.1,1.1-9.9,0.1s-6.8-3.1-8.7-5
			c-0.9-0.9-1.6-1.7-2-2.2c-0.4-0.6-0.6-1-0.6-1c0.1,0,1,1.2,2.8,3.1c1.9,1.7,4.8,3.8,8.4,4.8c3.7,1,7.3,0.7,9.8,0
			C250.6,170.9,252,170.1,252,170.2z"/>
	</g>
	<g class="st18">
		<path d="M227.7,164.5c1.6,3.4,3.4,6.8,6.3,9c1.7,1.2,3.7,2.4,5.8,2.4c3.1,0,5.7-2.1,8-4.1C240.3,173,231.7,169.7,227.7,164.5"/>
	</g>
	<g>
		<path class="st11" d="M261.8,119c-0.1,0,0-3.2-0.3-7.1c-0.4-4-1.1-6.9-1-7.1c0,0,0.3,0.7,0.7,2c0.3,1.2,0.7,3,0.9,5
			c0.1,2,0.1,3.8,0.1,5.1C261.9,118.2,261.8,119,261.8,119z"/>
	</g>
	<path class="st19" d="M152.7,243c0,0-10,2.1-18.9,0.9c-8.3-1.2-27.1,0-27.1,11.1c0,12.4,25,9.3,34.7,7.3c9.8-2,19.5-3.8,19.5-3.8
		L152.7,243z"/>
	<g>
		<path class="st11" d="M130.2,259c-0.1,0-0.7-1.9-1.2-4.3c-0.6-2.6-0.9-4.3-0.7-4.3s0.7,1.9,1.2,4.3C130,257,130.4,259,130.2,259z"
			/>
	</g>
	<g>
		<path class="st11" d="M133.6,259.1c-0.1,0-0.6-2-0.9-4.3c-0.3-2.6-0.6-4.6-0.4-4.6c0.1,0,0.6,2,0.9,4.3
			C133.5,257.1,133.7,259.1,133.6,259.1z"/>
	</g>
	<g>
		<path class="st11" d="M136.8,257.9c-0.1,0-0.4-1.7-0.7-3.8c-0.3-2.1-0.4-4-0.3-4s0.4,1.7,0.7,3.8
			C136.8,256,136.9,257.9,136.8,257.9z"/>
	</g>
	<g>
		<path class="st11" d="M142,256.6c-0.1,0-0.9-1.4-1.2-3.4c-0.4-2-0.6-3.6-0.4-3.6c0.1,0,0.4,1.6,0.9,3.4
			C141.6,255,142.2,256.5,142,256.6z"/>
	</g>
	<g>
		<path class="st11" d="M143.2,252.1c0,0,0.4-0.1,1.2-0.1s2.1,0.1,3.6,0.7c0.4,0.1,0.7,0.3,1.1,0.6c0.3,0.3,0.7,0.7,0.7,1.2
			c0,1.1-1.1,1.9-2.2,1.7c-1.1-0.1-2-1-2.6-1.9c-0.7-0.9-1.2-2-1.6-3.1c-0.6-2.2-0.1-4.7,1.1-6.3c0.1-0.1,0.4-0.4,0.7-0.4
			c0.3,0,0.6,0,0.9,0.3c0.4,0.4,0.6,0.9,0.6,1.4c0.1,0.9,0,1.9-0.1,2.6c-0.4,1.6-1.1,2.6-1.7,3.2c-0.3,0.3-0.6,0.6-0.7,0.7
			c-0.1,0.1-0.3,0.1-0.3,0.1s0.3-0.3,0.9-1c0.6-0.7,1.2-1.7,1.6-3.1c0.1-0.7,0.1-1.6,0-2.4c0-0.4-0.3-0.9-0.6-1.1
			c-0.3-0.3-0.7-0.1-1,0.1c-1.1,1.6-1.6,3.8-1,6.1c0.3,1.1,0.7,2.1,1.4,3c0.7,0.9,1.4,1.6,2.2,1.7c0.9,0.1,1.9-0.4,1.9-1.2
			c0-0.4-0.3-0.7-0.6-1c-0.3-0.3-0.7-0.4-1-0.6c-1.4-0.6-2.6-0.7-3.4-0.9C143.6,252.1,143.2,252.1,143.2,252.1z"/>
	</g>
	<g>
		<path class="st11" d="M159.7,257c0,0-0.1,0-0.3,0.1c-0.1,0-0.4,0.1-0.7,0.1c-0.7,0.1-1.7,0.4-3,0.7c-2.6,0.6-6.2,1.2-10.8,2.2
			c-4.6,0.9-10,1.9-16.1,2.7c-3,0.4-6.3,0.9-9.5,0.4c-1.7-0.1-3.4-0.4-5.1-1c-0.9-0.3-1.7-0.6-2.4-1.1c-0.9-0.4-1.6-1-2.1-1.7l0,0
			c-0.3-0.3-0.7-0.7-0.9-1c-1-1.7-1.1-3.7-0.6-5.3c0.6-1.9,1.9-3.2,3.2-4.2c1.4-1,3-1.7,4.6-2.2c0.9-0.3,1.6-0.6,2.4-0.7
			c0.9-0.1,1.6-0.4,2.4-0.4c6.2-1,12-0.4,16.6-0.4c2.4,0,4.6,0,6.3-0.1c1.9-0.1,3.6-0.4,4.8-0.6c0.7-0.1,1.2-0.3,1.7-0.4
			c0.4-0.1,0.9-0.3,1.2-0.4c0.3-0.1,0.6-0.1,0.7-0.3c0.1,0,0.3,0,0.3,0s-0.1,0-0.3,0.1c-0.1,0-0.4,0.1-0.7,0.3
			c-0.3,0.1-0.7,0.3-1.2,0.4s-1.1,0.3-1.7,0.4c-1.2,0.3-3,0.6-4.8,0.7c-1.8,0.1-4.1,0.3-6.5,0.1c-4.8,0-10.4-0.4-16.6,0.6
			c-0.9,0.1-1.6,0.3-2.2,0.4c-0.9,0.1-1.6,0.4-2.2,0.7c-1.6,0.6-3.1,1.2-4.3,2.2c-1.4,1-2.6,2.4-3,4c-0.6,1.6-0.4,3.6,0.4,5.1
			c0.3,0.4,0.6,0.7,0.9,1l0,0l0,0c0.6,0.6,1.2,1.1,2,1.6c0.7,0.4,1.6,0.7,2.4,1c1.6,0.6,3.2,0.9,5,1c3.2,0.3,6.5,0,9.5-0.4
			c6.1-0.9,11.4-1.9,16.1-2.7c4.6-0.9,8.2-1.6,10.8-2.1c1.2-0.3,2.2-0.4,3-0.6C159.4,257.1,159.6,257,159.7,257
			C159.7,257,159.7,257,159.7,257z"/>
	</g>
	<g>
		<path class="st11" d="M123.2,263.1c-0.1,0-0.1-1-0.3-2.6c-0.1-1.6-0.3-3.8-0.6-6.2c-0.3-2.4-0.7-4.6-1-6.1
			c-0.3-1.6-0.6-2.6-0.4-2.6c0.1,0,0.4,1,0.7,2.6c0.4,1.6,0.9,3.7,1.1,6.2c0.3,2.4,0.4,4.7,0.4,6.2
			C123.3,262.1,123.3,263.1,123.2,263.1z"/>
	</g>
	<polygon class="st20" points="149.6,243.6 155.9,259.7 160.7,258.7 151.4,243 	"/>
	<path class="st11" d="M232.2,199.8c-1,0.2-66.5-18.2-93.1-25.7c-6.9-2-14.4-0.9-20.4,3.1l-0.3,0.3c-8.9,5.8-13.3,16.6-10.9,27.1
		l0,0c1.6,6.7,5.7,12.3,11.3,15.8c17.5,10.8,54.5,33.4,55.6,33.1c1.6-0.6,47.6-1.9,47.6-1.9l-55.5-40.2l26.4,17.2L232.2,199.8
		L232.2,199.8z"/>
	<path class="st10" d="M177.3,179.7l14-7.2l13.7,8.7l51.1,1.7l7.3,25.1l-73.9-17.3c0,0-13.4,1.1-14.4-1.9
		C174.1,185.7,177.3,179.7,177.3,179.7z"/>
	<path class="st11" d="M219.3,220l-6.9,22.8l0.9,6.9l0,0c12.5,12.7,32.5,14.1,46.6,3.1l0,0c8.7-6.7,13.5-17,13.5-27.9l-0.1-23.9
		L219.3,220z"/>
	<g>
		<path class="st14" d="M178.3,220.1c-0.1,0.1-8-5.8-17.8-13.1s-17.6-13.4-17.5-13.5c0.1-0.1,8,5.8,17.8,13.1
			C170.6,213.9,178.3,220,178.3,220.1z"/>
	</g>
	<g>
		<path class="st12" d="M190.3,177c0,0.1-3,1.2-6.8,2.4c-3.8,1.2-6.9,2.1-6.9,2c0-0.1,3-1.2,6.8-2.4
			C187.2,177.7,190.3,176.9,190.3,177z"/>
	</g>
	<g>
		<path class="st12" d="M191.4,181.2c0,0-0.9,0.1-2.4,0.4c-1.4,0.3-3.6,0.6-5.7,1.1c-2.2,0.6-4.2,1.1-5.7,1.6s-2.2,0.7-2.2,0.7
			s0.9-0.4,2.2-1c1.4-0.6,3.4-1.1,5.7-1.7c2.2-0.6,4.2-0.9,5.8-1C190.4,181.2,191.4,181.2,191.4,181.2z"/>
	</g>
	<g>
		<path class="st12" d="M190.3,185.2c0,0.1-3.4,1-7.7,1.9s-7.8,1.4-7.8,1.2c0-0.1,3.4-1,7.7-1.9C186.8,185.7,190.2,185,190.3,185.2z
			"/>
	</g>
	<path class="st21" d="M172.2,146.1l12.9,42.6c0.1,0.4,0.6,0.9,1.1,0.9l35,2.7c0.7,0,1.1,0.6,1.1,1.2v2.2c0,0.7-0.6,1.2-1.2,1.2
		l-95.7-1.9c-0.6,0-1-0.3-1.1-0.9l-16.8-44.5c-0.3-0.9,0.3-1.7,1.1-1.7l62.5-3C171.6,145.2,172,145.5,172.2,146.1z"/>
	<path class="st22" d="M145.3,164.5c-0.7,0.1-1.7,1.1-1.9,2.1c-0.1,1,0.4,2.1,1.2,2.7c1,0.7,2.4,0.9,3.6,0.1c1-0.7,1.6-2.1,1-3.6
		C148.7,164.6,146.5,163.7,145.3,164.5"/>
	<path class="st11" d="M160.7,258.7l-10.2-16.8l74.4-58.7c4.7-3.8,10.3-6.2,16.2-6.7l0,0c18.5-1.7,34.1,13.9,32.5,32.5l-1.1,14.4
		l-49.4,16L160.7,258.7z"/>
	<g>
		<path class="st14" d="M256.1,219c0,0,0,0-0.1,0.1c-0.1,0.1-0.4,0.3-0.6,0.6c-0.6,0.4-1.4,1.1-2.4,1.9c-0.6,0.4-1.1,0.9-1.7,1.4
			c-0.6,0.6-1.4,1-2.1,1.6c-0.7,0.6-1.6,1.1-2.4,1.7c-0.4,0.3-0.9,0.6-1.4,1c-0.4,0.3-1,0.6-1.6,0.9c-2,1.2-4.2,2.7-6.7,3.8
			c-1.2,0.7-2.6,1.4-3.8,2c-1.2,0.6-2.7,1.2-4.1,2c-5.7,2.6-12,5.2-18.8,7.7c-13.5,4.7-26.1,8.2-35.2,10.9c-2.2,0.7-4.2,1.2-6.1,1.9
			c-1.9,0.6-3.4,1-4.6,1.4c-1.2,0.4-2.1,0.7-2.8,1c-0.3,0.1-0.6,0.1-0.7,0.3c-0.1,0-0.3,0.1-0.3,0c0,0,0.1,0,0.3-0.1
			c0.1-0.1,0.4-0.1,0.7-0.3c0.7-0.3,1.7-0.6,2.8-1c1.2-0.4,2.8-1,4.6-1.6c1.9-0.6,3.8-1.2,6.1-2c9-2.8,21.4-6.2,35-11
			c6.8-2.2,13.1-5,18.8-7.4c1.4-0.7,2.8-1.2,4.1-2c1.2-0.7,2.6-1.4,3.8-2c2.4-1.2,4.7-2.7,6.7-3.8c0.6-0.3,1-0.6,1.6-0.9
			c0.4-0.3,1-0.6,1.4-0.9c0.9-0.6,1.7-1.1,2.6-1.7c0.7-0.6,1.6-1,2.1-1.4c0.7-0.4,1.2-1,1.7-1.2c1-0.9,1.9-1.4,2.4-1.9
			c0.3-0.1,0.4-0.3,0.7-0.4C256,219,256.1,219,256.1,219z"/>
	</g>
	<g>
		<path class="st14" d="M257.9,226.7c0,0-0.3,0.1-0.7,0.4c-0.6,0.3-1.2,0.6-2.1,0.9c-1.9,0.7-4.3,1.6-7.3,2.1c-3,0.6-5.5,1-7.4,1.1
			c-1,0-1.7,0.1-2.2,0.1s-0.9,0-0.9,0c0-0.1,1.1-0.1,3.1-0.4c2-0.3,4.6-0.6,7.4-1.2c2.8-0.6,5.5-1.4,7.3-2
			C256.7,227.1,257.8,226.7,257.9,226.7z"/>
	</g>
	<g>
		<path class="st14" d="M222,186c0.1,0.1-15.8,12.7-35.5,28.1s-35.7,28-35.8,27.9c-0.1-0.1,15.8-12.7,35.5-28.2
			C205.9,198.3,222,185.9,222,186z"/>
	</g>
	<g>
		<path class="st19" d="M217.7,248.4c-3.6-2-7.7-0.9-11,0.4c-2.2,0.7-4.7,2-6.9,1.2c-1.7-0.4-3-1.9-4.2-3
			c-5.1-4.8-12.3-7.3-19.2-6.9c-2,0.1-4,1-5.2,2.4c-3.6,3.8-0.9,8.8,2.2,12c5.5,5.7,13,9.3,20.9,10.2c6.5,0.7,15.5-0.3,22.2-3.1
			c4.1-1.7,6.2-6.7,4.1-10.5C219.8,249.9,218.8,249,217.7,248.4z"/>
		<g class="st23">
			<path class="st19" d="M217.7,251.4c-3.6-2-7.7-0.9-11,0.4c-2.2,0.7-4.7,2-6.9,1.2c-1.7-0.4-3-1.9-4.2-3
				c-5.1-4.8-12.3-7.3-19.2-6.9c-2,0.1-4,1-5.2,2.4c-0.9,0.9-1.2,1.7-1.4,2.7c0.6,2.2,2.1,4.6,3.8,6.2c5.5,5.7,13,9.3,20.9,10.2
				c6.5,0.7,15.5-0.3,22.2-3.1c2.4-1,4.2-3.2,4.7-5.7c-0.1-0.6-0.4-1.2-0.7-1.9C219.8,253,218.8,252.1,217.7,251.4z"/>
		</g>
	</g>
	<g>
		<path class="st11" d="M221.1,256c0,0,0-0.9-0.9-2.1c-0.4-0.6-1-1.2-1.9-1.9c-0.9-0.6-2-1.1-3.2-1.2c-2.7-0.3-5.7,0.9-9.2,1.7
			c-1.7,0.4-3.6,1.1-5.5,0.9c-1-0.1-2-0.4-2.8-1c-0.9-0.6-1.7-1.1-2.4-1.9c-3-3-6.3-4.7-9.8-5.8c-1.7-0.6-3.2-1-4.8-1.1
			c-1.6-0.1-3-0.3-4.3,0c-1.2,0.1-2.4,0.6-3.4,1.1c-0.9,0.6-1.6,1.1-2,1.7c-1,1.1-1.2,2-1.2,2s0.3-0.9,1.1-2c0.4-0.6,1.1-1.2,2-1.9
			c1-0.6,2.1-1,3.4-1.2c1.4-0.3,2.8-0.3,4.3,0c1.6,0.1,3.2,0.6,5,1.1c1.7,0.6,3.4,1.2,5.1,2.2c0.9,0.4,1.7,1,2.6,1.7
			c0.9,0.6,1.6,1.2,2.2,2c0.7,0.7,1.6,1.2,2.4,1.9c0.9,0.6,1.7,0.9,2.7,1c1.9,0.3,3.7-0.4,5.3-0.9c3.4-0.9,6.5-2,9.3-1.7
			c2.7,0.4,4.6,2.1,5.3,3.4c0.4,0.7,0.6,1.2,0.7,1.6C221.1,255.8,221.1,256,221.1,256z"/>
	</g>
	<g>
		<path class="st11" d="M221.1,256c0,0,0-0.9-0.9-2.1c-0.4-0.6-1-1.2-1.9-1.9c-0.9-0.6-2-1.1-3.2-1.2c-2.7-0.3-5.7,0.9-9.2,1.7
			c-1.7,0.4-3.6,1.1-5.5,0.9c-1-0.1-2-0.4-2.8-1c-0.9-0.6-1.7-1.1-2.4-1.9c-3-3-6.3-4.7-9.8-5.8c-1.7-0.6-3.2-1-4.8-1.1
			c-1.6-0.1-3-0.3-4.3,0c-1.2,0.1-2.4,0.6-3.4,1.1c-0.9,0.6-1.6,1.1-2,1.7c-1,1.1-1.2,2-1.2,2s0.3-0.9,1.1-2c0.4-0.6,1.1-1.2,2-1.9
			c1-0.6,2.1-1,3.4-1.2c1.4-0.3,2.8-0.3,4.3,0c1.6,0.1,3.2,0.6,5,1.1c1.7,0.6,3.4,1.2,5.1,2.2c0.9,0.4,1.7,1,2.6,1.7
			c0.9,0.6,1.6,1.2,2.2,2c0.7,0.7,1.6,1.2,2.4,1.9c0.9,0.6,1.7,0.9,2.7,1c1.9,0.3,3.7-0.4,5.3-0.9c3.4-0.9,6.5-2,9.3-1.7
			c2.7,0.4,4.6,2.1,5.3,3.4c0.4,0.7,0.6,1.2,0.7,1.6C221.1,255.8,221.1,256,221.1,256z"/>
	</g>
	<g>
		<path class="st11" d="M176.9,255c0,0,0.7-0.6,1.9-1.2c1.1-0.7,2.8-1.7,4.7-2.6c1.9-0.9,3.7-1.6,5-2c1.2-0.4,2.1-0.7,2.1-0.6
			c0,0.1-0.7,0.4-2,1c-1.3,0.6-3,1.2-4.8,2.1c-1.9,0.9-3.6,1.7-4.8,2.4C177.7,254.8,176.9,255.3,176.9,255z"/>
	</g>
	<g>
		<path class="st11" d="M178,258.7c0-0.1,3.1-1.7,6.9-3.7c4-1.9,7.1-3.4,7.2-3.2c0,0.1-3.1,1.7-6.9,3.7
			C181.3,257.4,178.2,258.9,178,258.7z"/>
	</g>
	<g>
		<path class="st11" d="M192.9,260.3c-0.1,0.1-3.8-2.1-8.4-5.1c-4.7-3-8.3-5.3-8.2-5.5c0.1-0.1,3.8,2.1,8.4,5.1
			C189.2,257.7,192.9,260.1,192.9,260.3z"/>
	</g>
	<g>
		<path class="st11" d="M195,256.5c0,0-0.7-0.4-1.9-1.2s-2.7-2-4.3-3.1c-1.7-1.1-3.2-2.2-4.6-3.1c-1.1-0.7-1.9-1.2-1.9-1.2
			s0.9,0.3,2,1c1.2,0.7,2.8,1.7,4.6,3c1.8,1.3,3.2,2.4,4.3,3.2C194.4,255.9,195,256.5,195,256.5z"/>
	</g>
</g>
</svg>
