<?xml version="1.0" encoding="utf-8"?>
<!-- Generator: Adobe Illustrator 25.1.0, SVG Export Plug-In . SVG Version: 6.00 Build 0)  -->
<svg version="1.1" id="Layer_1" xmlns="http://www.w3.org/2000/svg" xmlns:xlink="http://www.w3.org/1999/xlink" x="0px" y="0px"
	 viewBox="0 0 300 265" style="enable-background:new 0 0 300 265;" xml:space="preserve">
<style type="text/css">
	.st0{clip-path:url(#SVGID_2_);}
	.st1{fill:url(#SVGID_3_);}
	.st2{opacity:0.5;fill:#5A4742;}
	.st3{fill:#5A4742;}
	.st4{opacity:0.7;fill:#BDB3BB;}
	.st5{fill:url(#SVGID_4_);}
	.st6{opacity:0.6;}
	.st7{fill:#BDB3BB;}
	.st8{opacity:0.2;}
	.st9{fill:#FFFFFF;}
	.st10{fill:#778697;}
	.st11{opacity:0.4;fill:#556371;}
	.st12{fill:url(#SVGID_5_);}
	.st13{opacity:0.6;fill:#91CECC;}
	.st14{opacity:0.4;fill:#91CECC;}
	.st15{fill:#DFDFDF;}
	.st16{opacity:0.2;fill:#BDB3BB;}
	.st17{opacity:0.4;fill:#BDB3BB;}
	.st18{opacity:0.2;fill:#FFFFFF;}
	.st19{fill:url(#SVGID_6_);}
	.st20{fill:url(#SVGID_7_);}
	.st21{fill:#FFFFFF;stroke:#263238;stroke-linecap:round;stroke-linejoin:round;stroke-miterlimit:10;}
	.st22{fill:#263238;stroke:#263238;stroke-linecap:round;stroke-linejoin:round;stroke-miterlimit:10;}
	.st23{fill:#FABEAF;stroke:#263238;stroke-linecap:round;stroke-linejoin:round;stroke-miterlimit:10;}
	.st24{fill:none;stroke:#263238;stroke-linecap:round;stroke-linejoin:round;stroke-miterlimit:10;}
	.st25{fill:none;stroke:#FFFFFF;stroke-linecap:round;stroke-linejoin:round;stroke-miterlimit:10;}
	.st26{fill:#92E3A9;stroke:#263238;stroke-linecap:round;stroke-linejoin:round;stroke-miterlimit:10;}
	.st27{fill:#008BAA;stroke:#263238;stroke-linecap:round;stroke-linejoin:round;stroke-miterlimit:10;}
	.st28{fill:#905745;stroke:#263238;stroke-linecap:round;stroke-linejoin:round;stroke-miterlimit:10;}
	.st29{stroke:#263238;stroke-linecap:round;stroke-linejoin:round;stroke-miterlimit:10;}
	.st30{fill:#905745;stroke:#263238;stroke-width:1.0001;stroke-linecap:round;stroke-linejoin:round;stroke-miterlimit:10.0002;}
	.st31{fill:#00001F;stroke:#263238;stroke-linecap:round;stroke-linejoin:round;stroke-miterlimit:10;}
	.st32{fill:#263238;}
	.st33{fill:#FF2229;stroke:#263238;stroke-linecap:round;stroke-linejoin:round;stroke-miterlimit:10;}
	.st34{fill:#96C9DD;stroke:#263238;stroke-linecap:round;stroke-linejoin:round;stroke-miterlimit:10;}
</style>
<g>
	<defs>
		<rect id="SVGID_1_" width="300" height="265"/>
	</defs>
	<clipPath id="SVGID_2_">
		<use xlink:href="#SVGID_1_"  style="overflow:visible;"/>
	</clipPath>
	<g class="st0">
		<g>
			<linearGradient id="SVGID_3_" gradientUnits="userSpaceOnUse" x1="150" y1="233.6092" x2="150" y2="2.2534">
				<stop  offset="0" style="stop-color:#BBBBBE"/>
				<stop  offset="0.2895" style="stop-color:#CBCBCD"/>
				<stop  offset="0.6802" style="stop-color:#DADADA"/>
				<stop  offset="1" style="stop-color:#DFDFDF"/>
			</linearGradient>
			<rect x="-0.5" y="6.6" class="st1" width="301.1" height="225.3"/>
			<rect x="-0.5" y="188.1" class="st2" width="301.1" height="37.1"/>
			<rect x="-0.5" y="224.3" class="st3" width="301.1" height="7.7"/>
			<path class="st4" d="M300.5,92.2c0,0-35.5-30.1-152.5-30.1S-0.5,92.2-0.5,92.2V49.9h301.1V92.2z"/>
			<g>
				<linearGradient id="SVGID_4_" gradientUnits="userSpaceOnUse" x1="150" y1="53.1289" x2="150" y2="-0.6144">
					<stop  offset="0" style="stop-color:#BEBEC0"/>
					<stop  offset="0.2157" style="stop-color:#BBBBBE"/>
					<stop  offset="0.4023" style="stop-color:#C4C4C7"/>
					<stop  offset="1" style="stop-color:#DFDFDF"/>
				</linearGradient>
				<rect x="-0.5" y="0.4" class="st5" width="301.1" height="52.3"/>
				<g class="st6">
					<rect x="-0.5" y="39.1" class="st7" width="301.1" height="3.8"/>
					<rect x="43.3" y="-6.6" class="st7" width="2.7" height="47.3"/>
					<rect x="153" y="-6.6" class="st7" width="2.7" height="47.3"/>
					<rect x="262.7" y="-6.6" class="st7" width="2.7" height="47.3"/>
					<path class="st7" d="M91,23.9h17c0,0-3.3,5.4-8.3,5.4S91,23.9,91,23.9z"/>
					<path class="st7" d="M201,23.9h17c0,0-3.3,5.4-8.3,5.4S201,23.9,201,23.9z"/>
				</g>
				<g class="st8">
					<path class="st9" d="M161.5,31.9V-5.6H257C227.4,11.3,196.2,24.9,161.5,31.9z"/>
					<path class="st9" d="M271.5,31.9V-5.6H367C337.4,11.3,306.2,24.9,271.5,31.9z"/>
					<path class="st9" d="M51.5,31.9V-5.6H147C117.4,11.3,86.2,24.9,51.5,31.9z"/>
					<path class="st9" d="M-57.2,31.9V-5.6h95.5C8.7,11.3-22.6,24.9-57.2,31.9z"/>
				</g>
			</g>
		</g>
		<g>
			<rect x="-0.5" y="231.9" class="st10" width="301.1" height="34.7"/>
			<path class="st11" d="M300.5,231.8H-0.5v21.4c0,0,35.4-10.7,150.4-10.7s150.7,10.7,150.7,10.7V231.8z"/>
		</g>
		<g>
			<g>
				<g>
					<ellipse class="st4" cx="34.1" cy="104.6" rx="13.7" ry="26.7"/>
					<linearGradient id="SVGID_5_" gradientUnits="userSpaceOnUse" x1="33.4244" y1="144.5892" x2="33.4244" y2="61.7584">
						<stop  offset="0" style="stop-color:#47BAC4"/>
						<stop  offset="1" style="stop-color:#79CECC"/>
					</linearGradient>
					<ellipse class="st12" cx="33.4" cy="103.2" rx="10.3" ry="20"/>
					<path class="st13" d="M43.4,98.1c-1.2-8.6-5.2-14.9-10-14.9c-4.8,0-8.8,6.4-10,14.9H43.4z"/>
					<path class="st14" d="M33.4,83.1c-5.7,0-10.3,9-10.3,20c0,11.1,4.6,20,10.3,20s10.3-9,10.3-20C43.7,92.1,39.1,83.1,33.4,83.1z
						 M33.4,118.2c-4.3,0-7.7-6.7-7.7-15s3.5-15,7.7-15c4.3,0,7.7,6.7,7.7,15S37.7,118.2,33.4,118.2z"/>
					<g>
						<path class="st15" d="M43.2,95.4c-1.6-7.6-5.4-12.9-9.8-12.9c-4.4,0-8.2,5.3-9.8,12.9H43.2z"/>
						<path class="st16" d="M43.2,95.4c-1.6-7.6-5.4-12.9-9.8-12.9c-4.4,0-8.2,5.3-9.8,12.9H43.2z"/>
						<g>
							<path class="st15" d="M37.5,95.4c-0.6-2.3-2.2-4-4-4c-1.8,0-3.4,1.6-4,4H37.5z"/>
							<path class="st17" d="M33.4,91.5c-0.3,0-0.6,0.1-0.9,0.2c1.5-0.1,2.6,1.9,2.9,3.8h2C36.8,93.1,35.2,91.5,33.4,91.5z"/>
						</g>
						<path class="st17" d="M34.5,82.7c-0.4-0.1-0.7-0.1-1.1-0.1c-4.4,0-8.2,5.3-9.8,12.9h2.1C27.2,88.5,30.5,83.5,34.5,82.7z"/>
					</g>
					<path class="st15" d="M33.4,77.9c-7.2,0-13,11.3-13,25.3s5.8,25.3,13,25.3s13-11.3,13-25.3S40.6,77.9,33.4,77.9z M33.4,123.2
						c-5.7,0-10.3-9-10.3-20c0-11.1,4.6-20,10.3-20s10.3,9,10.3,20C43.7,114.3,39.1,123.2,33.4,123.2z"/>
					<path class="st18" d="M29.3,104.5c-0.8-2.2-1.2-4.5-1.3-6.7c-0.4,1.6-0.7,3.5-0.7,5.4c0,6.5,2.7,11.8,6.1,11.8c1.5,0,3-1.1,4-3
						C34.5,112.6,31.2,109.6,29.3,104.5z"/>
				</g>
				<g>
					<ellipse class="st4" cx="127.3" cy="104.6" rx="13.7" ry="26.7"/>
					<linearGradient id="SVGID_6_" gradientUnits="userSpaceOnUse" x1="126.6088" y1="144.5892" x2="126.6088" y2="61.7584">
						<stop  offset="0" style="stop-color:#47BAC4"/>
						<stop  offset="1" style="stop-color:#79CECC"/>
					</linearGradient>
					<ellipse class="st19" cx="126.6" cy="103.2" rx="10.3" ry="20"/>
					<path class="st13" d="M136.6,98.1c-1.2-8.6-5.2-14.9-10-14.9c-4.8,0-8.8,6.4-10,14.9H136.6z"/>
					<path class="st14" d="M126.6,83.1c-5.7,0-10.3,9-10.3,20c0,11.1,4.6,20,10.3,20c5.7,0,10.3-9,10.3-20
						C136.9,92.1,132.3,83.1,126.6,83.1z M126.6,118.2c-4.3,0-7.7-6.7-7.7-15s3.5-15,7.7-15c4.3,0,7.7,6.7,7.7,15
						S130.9,118.2,126.6,118.2z"/>
					<g>
						<path class="st15" d="M136.4,95.4c-1.6-7.6-5.4-12.9-9.8-12.9c-4.4,0-8.2,5.3-9.8,12.9H136.4z"/>
						<path class="st16" d="M136.4,95.4c-1.6-7.6-5.4-12.9-9.8-12.9c-4.4,0-8.2,5.3-9.8,12.9H136.4z"/>
						<g>
							<path class="st15" d="M130.6,95.4c-0.6-2.3-2.2-4-4-4c-1.8,0-3.4,1.6-4,4H130.6z"/>
							<path class="st17" d="M126.6,91.5c-0.3,0-0.6,0.1-0.9,0.2c1.5-0.1,2.6,1.9,2.9,3.8h2C130,93.1,128.4,91.5,126.6,91.5z"/>
						</g>
						<path class="st17" d="M127.7,82.7c-0.4-0.1-0.7-0.1-1.1-0.1c-4.4,0-8.2,5.3-9.8,12.9h2.1C120.4,88.5,123.7,83.5,127.7,82.7z"
							/>
					</g>
					<path class="st15" d="M126.6,77.9c-7.2,0-13,11.3-13,25.3s5.8,25.3,13,25.3c7.2,0,13-11.3,13-25.3S133.8,77.9,126.6,77.9z
						 M126.6,123.2c-5.7,0-10.3-9-10.3-20c0-11.1,4.6-20,10.3-20c5.7,0,10.3,9,10.3,20C136.9,114.3,132.3,123.2,126.6,123.2z"/>
					<path class="st18" d="M122.5,104.5c-0.8-2.2-1.2-4.5-1.3-6.7c-0.4,1.6-0.7,3.5-0.7,5.4c0,6.5,2.7,11.8,6.1,11.8
						c1.5,0,3-1.1,4-3C127.7,112.6,124.3,109.6,122.5,104.5z"/>
				</g>
				<g>
					<ellipse class="st4" cx="220.5" cy="104.6" rx="13.7" ry="26.7"/>
					<linearGradient id="SVGID_7_" gradientUnits="userSpaceOnUse" x1="219.7932" y1="144.5892" x2="219.7932" y2="61.7584">
						<stop  offset="0" style="stop-color:#47BAC4"/>
						<stop  offset="1" style="stop-color:#79CECC"/>
					</linearGradient>
					<ellipse class="st20" cx="219.8" cy="103.2" rx="10.3" ry="20"/>
					<path class="st13" d="M229.7,98.1c-1.2-8.6-5.2-14.9-10-14.9c-4.8,0-8.8,6.4-10,14.9H229.7z"/>
					<path class="st14" d="M219.8,83.1c-5.7,0-10.3,9-10.3,20c0,11.1,4.6,20,10.3,20c5.7,0,10.3-9,10.3-20
						C230.1,92.1,225.5,83.1,219.8,83.1z M219.8,118.2c-4.3,0-7.7-6.7-7.7-15s3.5-15,7.7-15c4.3,0,7.7,6.7,7.7,15
						S224.1,118.2,219.8,118.2z"/>
					<g>
						<path class="st15" d="M229.6,95.4c-1.6-7.6-5.4-12.9-9.8-12.9c-4.4,0-8.2,5.3-9.8,12.9H229.6z"/>
						<path class="st16" d="M229.6,95.4c-1.6-7.6-5.4-12.9-9.8-12.9c-4.4,0-8.2,5.3-9.8,12.9H229.6z"/>
						<g>
							<path class="st15" d="M223.8,95.4c-0.6-2.3-2.2-4-4-4c-1.8,0-3.4,1.6-4,4H223.8z"/>
							<path class="st17" d="M219.8,91.5c-0.3,0-0.6,0.1-0.9,0.2c1.5-0.1,2.6,1.9,2.9,3.8h2C223.2,93.1,221.6,91.5,219.8,91.5z"/>
						</g>
						<path class="st17" d="M220.9,82.7c-0.4-0.1-0.7-0.1-1.1-0.1c-4.4,0-8.2,5.3-9.8,12.9h2.1C213.6,88.5,216.9,83.5,220.9,82.7z"
							/>
					</g>
					<path class="st15" d="M219.8,77.9c-7.2,0-13,11.3-13,25.3s5.8,25.3,13,25.3c7.2,0,13-11.3,13-25.3S227,77.9,219.8,77.9z
						 M219.8,123.2c-5.7,0-10.3-9-10.3-20c0-11.1,4.6-20,10.3-20c5.7,0,10.3,9,10.3,20C230.1,114.3,225.5,123.2,219.8,123.2z"/>
					<path class="st18" d="M215.7,104.5c-0.8-2.2-1.2-4.5-1.3-6.7c-0.4,1.6-0.7,3.5-0.7,5.4c0,6.5,2.7,11.8,6.1,11.8
						c1.5,0,3-1.1,4-3C220.9,112.6,217.5,109.6,215.7,104.5z"/>
				</g>
			</g>
		</g>
	</g>
</g>
<g id="Character_2">
	<g>
		<path class="st21" d="M249.7,108.4l-17.9,8.8l-0.6,8.8l19.9-15.3C250.9,110.8,251.2,108.7,249.7,108.4z"/>
		<path class="st22" d="M231,115.1c0,0-2.8,1.6-3.3,3.2c-0.4,1.6,0,3.4,0,4.1s-2.4,2.1-4.4,5c-2,2.9-5.5,13.8-5.5,13.8
			s15.1-19.4,15.2-20.3c0.1-0.9-0.3-3.7-0.3-4.7S231,115.1,231,115.1z"/>
		<g>
			<path class="st23" d="M232.2,72.8c2.9-0.1-13.2-1.4-7.8,2c2.7,1.7,4.2,1.7,4.2,1.7s-3.5,1-1.8,2.4s2.8,1.4,2.8,1.4
				s-3.3,5.1-3.3,6s0.2,3.2,0.2,3.2s-5.3,4.3-5,4.9c0.2,0.6,1.9,2.4,1.9,2.4s-1.6,7.3-0.8,9.2c0.9,1.9,5.3,2.5,6.5,2.6
				c1.3,0.1,3.1,4.6,3.1,4.6l17.4-4.8v-5.7c0,0,5.7-5.6,8.9-9.8c3.2-4.2,3.2-11.7,0.1-15s-8.4-6.8-20.7-8.2
				C225.6,68.3,232.2,72.8,232.2,72.8z"/>
			<path class="st24" d="M228.9,90.6c0,0,2-0.3,2.8,1.4"/>
			<path d="M238.9,105c3.4-3.9,4-8.8,4.4-10.9s3.4-2.3,4.6-0.4c1.2,2-0.1,4.7-1.2,5.4c-1.1,0.6-1.8,1.3-1.5,1.8
				c0.2,0.5,2.1,1,3.1,1.1c0.4,0,1.1,0.1,1.7,0.2c1.5-1.5,5.7-5.8,8.4-9.3c3.2-4.2,3.2-11.7,0.1-15s-8.4-6.8-20.7-8.2
				c-12.2-1.4-5.7,3-5.7,3c2.9-0.1-13.2-1.4-7.8,2c2.7,1.7,4.2,1.7,4.2,1.7s-3.5,1-1.8,2.4c1.5,1.2,2.5,1.4,2.7,1.4h0.1l8.4,0.8
				c0,0-3.2,2.8-3,3.9s3,3.3,3.5,3.9c0.5,0.7,0.4,2.7,0.4,2.7s-1.9,9.5-3.4,10.6s-4,0-4.5-0.7s-1-2.7-3.2-3.7c-2.4-1-4.5-1-4.5-1
				s-1.6,7.3-0.8,9.2c0.9,1.9,5.3,2.5,6.5,2.6C229.2,108.6,235.5,108.9,238.9,105z"/>
			<path class="st25" d="M224.2,100.4c0,0,2.3,0.6,4.2-0.3"/>
			<path class="st24" d="M228.9,87.4c0,0,2.8-0.6,4.2,1.6"/>
		</g>
		<polygon class="st21" points="249.9,105.9 231,112.7 230.4,119.3 251.3,108.7 		"/>
		<g>
			<path d="M141.3,248.8l-5.8,3.9c0,0-10.6,2.4-12.2,3c-1.6,0.6-2.6,4.2-1,5.7s4.8,2,11.9,2.4c7,0.4,26.4,0.3,26.4,0.3
				s1.3-6.9,1-10.2s0-6,0-6l-15.8-1.2L141.3,248.8z"/>
			<path d="M160.6,264.1c0,0,0.4-2,0.6-4.4c-9,0.1-23.6,3-29.9,1.7c-4.1-0.8-7.5-1.8-9.8-2.6c-0.1,1,0.1,1.9,0.9,2.6
				c1.6,1.5,4.8,2,11.9,2.4C141.3,264.2,160.6,264.1,160.6,264.1z"/>
			<path class="st26" d="M173.8,182.5c0,0-17.4-0.6-20,6.6c-2.6,7.2-8.7,51.3-8.7,51.3s-2.3,1.5-2.6,2.7s-1.3,5.7-1.3,5.7l16.1,3.9
				l6.4-9.9l7.1-31.2l3.9-9.6l28.3,0.6L173.8,182.5z"/>
			<path d="M158.7,248.3l-7.4,7.1c0,0-10.1,5.1-10.7,6.2c-0.6,1-0.4,1.9,0.6,2.6s33.4,0,33.4,0s0.6-0.3,0.8-2.5s-1.6-7.5-1.6-7.5
				L158.7,248.3z"/>
			<path d="M140.4,261.8c-0.4,0.9-0.2,1.7,0.9,2.3c1.1,0.7,33.4,0,33.4,0s0.5-0.3,0.8-2.3C165.7,261.8,145.9,261.7,140.4,261.8z"/>
		</g>
		<path class="st27" d="M188.5,227.1h-3.3c-3.1,0-5.9-2.1-6.5-4.9l-3.9-17.7c-0.5-2.6,0.8-5.2,3.2-6.4l0,0c1.3-0.6,2.8-0.8,4.2-0.6
			l48.9,9.2l-9.4,18.5L188.5,227.1z"/>
		<path class="st26" d="M208.2,182c0,0-30.6,0-36.4,0.6s-13.8,2.6-15,8.5c-1.1,5.9,3.6,50.5,3.6,50.5s-3.1,0.1-2.8,3.2
			c0.3,3.1,0,4.6,0,4.6s14.1,4.8,16.2,4.7c0,0,0.1-6.5,0.1-8.1s-0.1-2.9-0.1-2.9l4.3-40.5c0,0,46.5,7.2,53.6,7.2
			c7.1,0,12.3-0.6,14.7-5.4c2.4-4.8,2.8-19.5,2.8-19.5L208.2,182z"/>
		<path class="st26" d="M251.3,107.6c0,0-24.9,18.7-25.4,20.4c-0.4,1.8-11.4,15.4-12.1,19.1c-0.8,3.7-1.7,14.8-2.4,16.5
			c-0.6,1.6-2.4,14.5-2.7,16s-4.1,2.9-4.1,2.9s17.7,10,24.8,11.3s12.9-0.3,16.1-0.3c3.1,0,3.4-0.4,3.4-0.4s8.4-42,10.1-50.8
			c1.7-8.8,3.1-12.8,1.4-18.1c-1.7-5.3-3.6-9.5-4.6-10.6C254.9,112.6,252.6,107.9,251.3,107.6z"/>
		<path class="st26" d="M254,110.7c-1-1.5-1.9-2.9-2.7-3.1c0,0-24.9,18.7-25.4,20.4c-0.4,1.8-11.4,15.4-12.1,19.1
			c-0.3,1.3-0.5,3.6-0.9,6.1c0.6-1.2,1.6-3,2.1-4.6c0.8-2.4,17.2-18.8,17.2-18.8l-1-2.8l4.4,0.1L254,110.7z"/>
		<path class="st21" d="M166.9,147.2c0,0-0.5-0.8,0.9-2.3c1.4-1.6,1.4-1.6,1.4-1.6s2.5,6.8,4.7,9.9c2.3,3.1,2.3,3.1,2.3,3.1
			S168.3,149.1,166.9,147.2z"/>
		<path class="st21" d="M193.5,161.2l-10.2-11.9c0,0-2.6,3.4-9,1.8c-4.9-1.2-7.3-3.9-7.3-3.9l14.8,22.4c0,0,6.5,3,14.7-1.1
			C198.4,167.6,193.5,161.2,193.5,161.2z"/>
		<g>
			<path class="st23" d="M208.2,167.9l-6.4-2.9c0,0-3.6-5.7-4.6-5.9c-1-0.1-7,0.7-7.6,1.2c-0.6,0.4-2.3,3.4-2.4,4.1
				c-0.1,0.7,2.7,1.5,2.7,1.5s1.6,6.6,2,7.2c0.4,0.6,1.9,0.9,3.8,0.9c1.8,0,2-0.7,2-0.7s4,1.6,5.7,1.6s4.6-0.3,4.6-0.3L208.2,167.9z
				"/>
			<line class="st24" x1="190" y1="165.9" x2="195.7" y2="163.4"/>
			<line class="st24" x1="190" y1="163.2" x2="192.3" y2="164.6"/>
			<line class="st24" x1="191.1" y1="168.7" x2="196.1" y2="166.3"/>
			<line class="st24" x1="191.4" y1="171.6" x2="196.7" y2="169.3"/>
		</g>
		<path class="st26" d="M243.1,132.8c0,0-6,6.2-5.8,9.3c0.1,3.1-2,24.5-2,24.5l-27.8,0.3l-1.4,9.7c0,0,11.8,2.6,25.5,4.3
			c13.7,1.6,17.1,0.7,18.1-1.2s10.7-43.9,10.7-46.4s-5.5-6-5.5-6"/>
		<g>
			<path class="st27" d="M248.3,182.8c0,0,11.7-53.3,14.6-65.1c2.9-11.9-0.9-14.9,5-16s15.7,0.3,19.9,1.8c4.2,1.4,3.2,7.9,2.1,13.9
				c-1.1,5.9-4.4,18.9-5.6,21.8c-1.2,2.9-3.2,2.6-4.4,6.6s-12.6,49.7-12.6,49.7l-20.5-6.2L248.3,182.8z"/>
			<path class="st21" d="M263.7,183.5l-70.8-4.9c-1.5-0.1-3,0.8-3.4,2.2l-2.7,8.3l80.6,6.4L263.7,183.5z"/>
			<g>
				<path class="st28" d="M191.1,227.8c0,0-3.2,13.5-4,21.6c-0.8,8.1-2,13,1.1,14.3s48.5,0,48.5,0s8.8,0.7,8.8-4.3
					c0-5.9-1.9-8.2-0.2-20.6c1-6.7,2.3-12,2.3-12h-55L191.1,227.8z"/>
				<path class="st21" d="M218.1,230.8c0,0-12.6,4.5-20.3,16.1c-5.6,8.5-7.7,13.2-1.2,14.5c6.5,1.3,15-2.3,21.4-2.5
					s11.9,3.5,15.9,1.3s-0.3-11.5,1.7-19.3C237.5,233.1,237.5,226.5,218.1,230.8z"/>
				<path class="st28" d="M206.7,253.3c1.7,2.4,8.1,1.1,14.1-2.9s9.4-9.3,7.7-11.7s-8.1-1.1-14.1,2.9S205,250.8,206.7,253.3z"/>
			</g>
			<path class="st21" d="M266.3,191.8l-34.7-2.9L221,209.1l-32.6-0.9c-3.3-0.1-5.8,2.7-5.2,5.7L186,226c0.4,2,2.4,3.5,4.6,3.5h61.3
				c2.1,0,4.1-1.3,4.8-3.2l10.6-30.9L266.3,191.8z"/>
			<path class="st29" d="M263.7,183.5c0,0,4.2-11.4,6.8-13.4c1.3-1.1,8.8-2.4,12.1-3.2c1.2-0.3,2.4,0.5,2.6,1.6l0,0
				c0.1,0.9-0.4,1.8-1.4,2l-9.6,2.6c-1.2,0.4-2.1,1.2-2.5,2.4l-5.9,14.9L263.7,183.5z"/>
		</g>
	</g>
</g>
<g id="Seat">
	<g>
		<path class="st27" d="M49.9,227.3h-3.3c-3.1,0-5.9-2.1-6.5-4.9l-3.9-17.7c-0.5-2.6,0.8-5.2,3.2-6.4l0,0c1.3-0.6,2.8-0.8,4.2-0.6
			l48.9,9.2l-9.4,18.5L49.9,227.3z"/>
		<path class="st27" d="M109.7,183c0,0,11.7-53.3,14.6-65.1c2.9-11.9-0.9-14.9,5-16s15.7,0.3,19.9,1.8c4.2,1.4,3.2,7.9,2.1,13.9
			c-1.1,5.9-4.4,18.9-5.6,21.8c-1.2,2.9-3.2,2.6-4.4,6.6s-12.6,49.7-12.6,49.7l-20.5-6.2L109.7,183z"/>
		<path class="st21" d="M125.2,183.6l-70.8-4.9c-1.5-0.1-3,0.8-3.4,2.2l-2.7,8.3l80.6,6.4L125.2,183.6z"/>
		<path class="st28" d="M52.5,227.9c0,0-3.2,13.5-4,21.6c-0.6,8.2-2,13,1.1,14.3s48.5,0,48.5,0s8.8,0.7,8.8-4.3
			c0-5.9-1.9-8.2-0.2-20.6c1-6.7,2.3-12,2.3-12H54.1L52.5,227.9z"/>
		<path class="st21" d="M79.5,230.9c0,0-12.6,4.5-20.3,16.1c-5.6,8.5-7.7,13.2-1.2,14.5s15-2.3,21.4-2.5s11.9,3.5,15.9,1.3
			S95,248.8,97,241C99.1,233.3,99.1,226.6,79.5,230.9z"/>
		
			<ellipse transform="matrix(0.8336 -0.5523 0.5523 0.8336 -122.8007 84.5678)" class="st30" cx="79" cy="246.1" rx="13.1" ry="5.4"/>
		<path class="st21" d="M127.8,192l-34.7-2.9l-10.6,20.2l-32.6-0.9c-3.3-0.1-5.8,2.7-5.2,5.7l2.8,12.1c0.4,2,2.4,3.5,4.6,3.5h61.3
			c2.1,0,4.1-1.3,4.8-3.2l10.6-30.9L127.8,192z"/>
		<rect x="142.3" y="167.4" class="st21" width="37.9" height="2.6"/>
		<path class="st29" d="M125.2,183.6c0,0,4.2-11.4,6.8-13.4c1.3-1.1,8.8-2.4,12.1-3.2c1.2-0.3,2.4,0.5,2.6,1.6l0,0
			c0.1,0.9-0.4,1.8-1.4,2l-9.6,2.6c-1.2,0.4-2.1,1.2-2.5,2.4l-5.9,14.9L125.2,183.6z"/>
	</g>
</g>
<g id="Character_1">
	<g>
		<path d="M102.8,21.3c0,0-5.9-3-11.3-2.9s-13.1,8.5-14.8,15.5c-1.7,7,1.5,12.6,2.8,17.2c1.4,4.6,1.8,9.7,0.1,11.1
			c-1.7,1.4-3.8-0.2-3.8-0.2s-0.2,4.6,2.7,7c2.9,2.4,12.2,0.3,18.9-4.8c6.7-5.2,6-13.4,5.4-19.6s0.2-14.5,1.4-16.6
			S105,21.9,102.8,21.3z"/>
		<g>
			<path class="st23" d="M56.8,185c0,0-0.3,8.8-0.3,9.9c0,1.1-4.5,9.5-6,16.7s-1.1,31.8-1.1,33.2s0.2,3.9-0.4,5.9
				c-1.1,3.5,0.3,6.9,0.4,8c0.1,1.1,0.4,3.2,0.4,3.2l0.1,1.9h2.6l0.3-4.2c0,0,3.3,2.8,5.2,3.5c1.8,0.7,2.1,0.4,4.7,1s7.9,0.1,9-0.3
				s0.4-1.7-1.1-2.7c-1.4-0.9-1.4-1-3.9-2.5c-4.4-2.7-8.9-8.3-9.7-9.2c-0.8-0.8,0-3,0.4-5.2c0.4-2.3,4.4-22.9,7.6-28.9
				c3.2-6.1,7.1-17.1,8.1-19.6c0.9-2.5,1.2-7.6,1.2-7.6L56.8,185z"/>
			<path class="st29" d="M70.6,261.2c-1.1-0.7-1.3-0.9-2.4-1.6l-3,1.8c0,0-4.1,1.1-11.2-4.9c-2-1.7-3.9-4-5.2-5.8l0,0
				c-1.1,3.5,0.3,6.9,0.4,8c0.1,1.1,0.4,3.2,0.4,3.2l0.1,1.9h2.6l0.3-4.2c0,0,3.3,2.8,5.2,3.5s2.1,0.4,4.7,1s7.9,0.1,9-0.3
				C72.8,263.5,72.1,262.1,70.6,261.2z"/>
		</g>
		<g>
			<path class="st23" d="M83.1,188.9c0,0,0.4,3.4-1.4,10s-1.7,13.6,0.6,21.3c2.3,7.8,4.1,17.9,5,22.7s0.6,5.9,0.6,5.9
				s-2.5,2.8-1.9,4.8s1.1,9.8,1.1,9.8h2.5l1.2-6.2c0,0,1.7,0.1,3.2,1.8c1.5,1.7,1.9,3.2,5.9,4.1c4,0.8,7.8,0.7,9.1,0.1
				c1.2-0.6,0.6-1.4-1.1-2.1s-2.5-1-3.3-2c-0.9-1-9.1-9.9-9.7-11.3c-0.6-1.4,0.1-16.4,0.8-25c0.6-8.6,1.8-18.5,2.5-20.9
				c0.6-2.4,1.4-8.8,2.1-10.7c0.8-2,1.8-5.6,1.8-5.6L83.1,188.9z"/>
			<path class="st29" d="M91.9,253.2c-1.4-1.7-2.9-3.2-4-4.3c-0.4,0.5-2.4,2.9-1.9,4.7c0.4,2,1.1,9.8,1.1,9.8h2.5l1.2-6.2
				c0,0,1.7,0.1,3.2,1.8c1.5,1.7,1.9,3.2,5.9,4.1c4,0.8,7.8,0.7,9.1,0.1c1.2-0.6,0.6-1.4-1.1-2.1s-2.5-1-3.3-2l-1.8,0.8
				C102.6,260.2,96.4,258.7,91.9,253.2z"/>
		</g>
		<path class="st31" d="M67.9,112.1c0,0-6.2,5-9.8,13.8c-3.4,8.8-4.6,33.4-4.6,33.4l-2.4,29.5c0,0,11.4,5.4,28.7,4.1
			c17.4-1.3,27-4.7,27-4.7s-0.4-26.3-2.4-39.9c-1.8-13.6-2-17.5-2-18.1s0.2-3.3,0.2-3.3l-1.2-6.8c0,0,1.2,1.5-10.6-1.9
			s-19.6-8-19.6-8L67.9,112.1z"/>
		<path class="st31" d="M99.4,55.5c0,0-12.3,8.8-14.5,12.5c-2.3,3.7-7.4,13.4-8.7,17.7c-1.4,4.3-2.9,17.6-2.9,17.6l-7.6,9.2
			c0,0,1,4,10.4,10.4c9.4,6.4,15.6,6.6,15.6,6.6l4.4-6v6c0,0,1.8-0.6,4.1-1.4c2.3-0.8,2.8-1.4,2.8-1.4l0.2-5.8c0,0,6-10.3,10-15.8
			s4.4-11.2,5.3-16.5S117.7,77.1,117,75c-0.8-2.1-1.8-5-2.8-6.6s-3.1-4.8-3.1-4.8S101.1,56.4,99.4,55.5z"/>
		<path class="st21" d="M98.3,61c0.3,0.6,11.8,24.6,11.8,24.6l3.6,15.9c0,0,4-9.3,3.8-16.1c-0.1-6.9-5.3-16.6-5.6-17.1
			c-0.2-0.5,0-1.7-2-4.5c-2-2.7-11.6-7-11.6-7S96.7,57.8,98.3,61z"/>
		<polygon class="st21" points="110.6,68.9 106.8,76.4 98.3,61 100.3,59 		"/>
		<path class="st21" d="M111.7,64.9c0,0,2.5,2.4,3.4,4c1,1.6,1.9,3.2,1.9,3.2l-4-0.3L111.7,64.9z"/>
		<polygon class="st21" points="106.3,61.5 110.6,68.9 113.8,78.5 111.7,64.9 		"/>
		<g>
			<path class="st23" d="M133.1,34.7c0,0-0.5,4.8-1.1,7.6c-0.5,2.9-2,3.4-1.8,4.8c0.2,1.4,2.1,4.6,1.5,5.8c-0.8,1.2-3.9,1.5-3.9,1.5
				s-6,6.6-7.6,7.3s-6-1-6-1l-2.4,4.2l-12.5-9.4l2.7-6.8c0,0-4.4-5.1-0.9-12.1c3.4-7,13.6-8.7,20.3-7.8
				C127.9,29.7,133.1,34.7,133.1,34.7z"/>
			<path class="st32" d="M127.7,46.8c-0.3,1-0.9,1.7-1.3,1.6c-0.3-0.1-0.4-1-0.1-2s0.9-1.7,1.3-1.6
				C127.9,44.9,128.1,45.8,127.7,46.8z"/>
			<path class="st24" d="M130.6,43.4c0,0-0.6-1.8-2.5-1.5c0,0-1.7,0.3-1.9,0.7"/>
			<path class="st24" d="M125.8,55.3c0,0-3.4,0.1-4.1-2.5"/>
			<path d="M108.1,41.8c0,0,1.5,1.4,8.2-0.5c6.8-1.9,11.5-5.9,13.6-5.9c2.1,0,3.3,1.2,5.2-0.5c1.8-1.7-2-5.4-7.1-10.7
				c-5.2-5.3-14.4-4.8-18.8-2.5c-4.4,2.2-12.3,9-12.3,14.8s0.5,12.9,4.4,14.3s6.2-3.1,6.3-4.1C107.8,45.5,106.5,43.3,108.1,41.8z"/>
			<path class="st23" d="M110.4,43.7c0,0-0.9-4.9-4.5-3.6c-3.6,1.4-2,7.5-0.9,9.2s4,0.5,4,0.5"/>
		</g>
		<path class="st21" d="M104.3,25c0,0,2.4-2.4,1.7-3.9s-2.9-1-4.8,1c-1.8,2.1-1.5,7.1-1.5,7.1L104.3,25z"/>
		<polygon class="st33" points="113.5,62.4 100.7,52.3 98.4,56.9 109.6,68 		"/>
		<path class="st33" d="M103.5,56.7c0,0-5.3-3.4-8.4-3.2s-5.6,4-6.8,7.4c-1.2,3.4-3.5,7.1-3.5,7.1s6.4-0.7,9.9-1.7s4.3-3.5,5-5.4
			C100.5,59,103.5,56.7,103.5,56.7z"/>
		<path class="st33" d="M103.5,56.7c0,0-4.5,5.2-4.6,8.9s2.3,10.3,2.3,10.3s5.7-3,6.2-8.8S103.5,56.7,103.5,56.7z"/>
		<path class="st23" d="M155.5,106.1l-10.9,4l-6.9,0.7l-0.3,5.2l10.7,0.3c0,0,3.3,0.2,6.2-0.1c2.9-0.3,6.2-1.1,6.2-1.1l-0.5-9H155.5
			z"/>
		<polygon class="st21" points="113.8,101.6 117.5,108.1 138.5,110.1 138.2,117.1 107,114.4 105.9,103.3 		"/>
		<path class="st21" d="M159.7,120l8.7,1.1l6.2-3.2c0,0-3.3-1.5-9.7-2.9s-13.1,0.1-13.1,0.1L159.7,120z"/>
		<g>
			<path class="st23" d="M136.4,115.5l7.5,1.1c0,0,3.1-1,4.3-1.1s3.2-0.2,4.5,0.5s7.5,2.3,7.4,2.9s-0.3,1.1-0.3,1.1l5.7,0.7
				c0,0-0.9,0.7-4,1.7s-4.8,1.3-6,1.7c-1.2,0.5-8.2-1.8-10-2.3s-8.7-0.5-9.2-0.5C135.8,121.4,136.4,115.5,136.4,115.5z"/>
			<path class="st24" d="M149.5,118.6c0,0,3.4,0.8,4,0.9c0.5,0.1,4,0.9,6.2,0.5"/>
		</g>
		<path class="st21" d="M109.3,106.2c0,0-8.3-25.6-9.9-30.2s-5.6-6.5-10.2-5.7s-8.2,6.3-4.6,15.1c3.4,8.8,11.1,30.6,11.7,31.7
			c0.6,1.1,3.8,2.1,3.8,2.1s36.2,4.2,37.1,4.1s1.8-7.8,1.8-7.8L109.3,106.2z"/>
		<g>
			<path class="st21" d="M168.5,100.9h-14.1v12.8c0,1.4,1.3,2.6,2.8,2.6h8.5c1.5,0,2.8-1.2,2.8-2.6V100.9z"/>
			<path class="st34" d="M167.2,103.4h-11.5v8c0,1,0.9,1.8,1.9,1.8h7.7c1.1,0,1.9-0.8,1.9-1.8L167.2,103.4L167.2,103.4z"/>
		</g>
		<path class="st23" d="M151.3,109.1c0,0,1.6,0.8,4.4,0.8s5.8-0.6,5.4,0.6c-0.3,1.1-1.8,1.9-4.1,1.9s-4.9,0.3-5.7,0.5
			c-0.8,0.1-1.8,1.1-4.5,0.5"/>
	</g>
</g>
</svg>
