<?xml version="1.0" encoding="utf-8"?>
<!-- Generator: Adobe Illustrator 25.1.0, SVG Export Plug-In . SVG Version: 6.00 Build 0)  -->
<svg version="1.1" id="Capa_1" xmlns="http://www.w3.org/2000/svg" xmlns:xlink="http://www.w3.org/1999/xlink" x="0px" y="0px"
	 viewBox="0 0 300 265" style="enable-background:new 0 0 300 265;" xml:space="preserve">
<style type="text/css">
	.st0{fill:#B2B2B2;}
	.st1{fill:none;stroke:#B2B2B2;stroke-width:1.1997;stroke-miterlimit:10;}
	.st2{fill:#F7DAA2;}
	.st3{fill:#ECE8D0;}
	.st4{fill:#88311E;}
	.st5{fill:#D1C0BE;}
	.st6{fill:#FFDE00;}
	.st7{fill:#605F5F;}
	.st8{fill:#DCDCDC;}
	.st9{fill:#6D6D6D;}
	.st10{fill:#936037;}
	.st11{fill:#95B340;}
	.st12{fill:#C7D5C5;}
	.st13{fill:#A6BA3D;}
	.st14{fill:#69943B;}
	.st15{fill:#7F9F3D;}
	.st16{fill:#597F32;}
	.st17{fill:#F9BB8D;}
	.st18{fill:#AA9D3C;}
	.st19{fill:#352E35;}
	.st20{fill:#7D4E24;}
	.st21{fill:#C0A437;}
	.st22{fill:#717933;}
	.st23{fill:#4F1B04;}
	.st24{fill:#7B8B3E;}
	.st25{fill:#EBDFDA;}
	.st26{fill:#3B1200;}
	.st27{fill:#FFFFFF;}
	.st28{fill:#EEC52A;}
	.st29{fill:#23292B;}
	.st30{fill:#C6C6C6;}
	.st31{fill:#EDEDED;}
	.st32{fill:#D8D8D8;}
	.st33{fill:#F8BAA0;}
	.st34{fill:#030404;}
	.st35{fill:#D6D6D6;}
	.st36{fill:#3B4449;}
	.st37{fill:#DEDEDE;}
	.st38{fill:#A05A31;}
	.st39{fill:#C1834E;}
	.st40{fill:#EBE1DE;}
	.st41{opacity:0.5;fill:#C7A79A;enable-background:new    ;}
	.st42{fill:#E9D2CE;}
	.st43{fill:#411A00;}
	.st44{fill:#AD938E;}
	.st45{fill:#D3A695;}
	.st46{fill:#DFD4D5;}
</style>
<g>
	<g>
		<g>
			<rect x="196.9" y="179.5" class="st0" width="1.2" height="15"/>
			<rect x="196.9" y="126.1" class="st0" width="2.7" height="15"/>
			<rect x="157" y="126.1" class="st0" width="1.9" height="51.1"/>
			<path class="st1" d="M177.6,117.3h19.3v81.2H158v-97.5C167,100.9,174.6,107.7,177.6,117.3z"/>
			<line class="st1" x1="193.7" y1="198.7" x2="193.7" y2="117.3"/>
			<line class="st1" x1="190.5" y1="198.7" x2="190.5" y2="117.3"/>
			<line class="st1" x1="187.4" y1="198.7" x2="187.4" y2="117.3"/>
			<line class="st1" x1="184.3" y1="198.7" x2="184.3" y2="117.3"/>
			<line class="st1" x1="181.2" y1="198.7" x2="181.2" y2="117.3"/>
			<line class="st1" x1="177.7" y1="198.7" x2="177.7" y2="117.3"/>
			<line class="st1" x1="174.4" y1="198.7" x2="174.5" y2="110.8"/>
			<line class="st1" x1="171.7" y1="198.7" x2="171.7" y2="107.2"/>
			<line class="st1" x1="168.6" y1="198.7" x2="168.6" y2="104.4"/>
			<line class="st1" x1="165.5" y1="198.7" x2="165.5" y2="102.9"/>
			<line class="st1" x1="162.4" y1="198.7" x2="162.4" y2="101.4"/>
			<line class="st1" x1="160" y1="198.7" x2="160" y2="101.4"/>
			<line class="st1" x1="196.9" y1="122.7" x2="158" y2="122.7"/>
			<line class="st1" x1="174.2" y1="110.8" x2="158" y2="110.8"/>
			<line class="st1" x1="196.9" y1="160.6" x2="158" y2="160.6"/>
			<line class="st1" x1="196.9" y1="191.2" x2="158" y2="191.2"/>
		</g>
		<g>
			<g>
				<rect x="98.3" y="76.8" class="st2" width="9" height="94.9"/>
				<rect x="98.3" y="76.8" class="st3" width="4.5" height="94.9"/>
				<rect x="98.3" y="76.8" class="st3" width="2.2" height="94.9"/>
				<rect x="95.3" y="69.6" class="st2" width="114.9" height="7.3"/>
				<rect x="95.3" y="73.2" class="st3" width="114.9" height="3.6"/>
				<rect x="95.3" y="75.1" class="st3" width="114.9" height="1.8"/>
				<rect x="95.3" y="38.8" class="st2" width="114.9" height="30.8"/>
				<rect x="95.3" y="54.2" class="st3" width="114.9" height="15.4"/>
				<rect x="95.3" y="61.9" class="st3" width="114.9" height="7.8"/>
				<rect x="97" y="162.1" class="st4" width="11.9" height="39.3"/>
				<rect x="97" y="162.1" class="st5" width="5.9" height="39.3"/>
				<rect x="97" y="162.1" class="st5" width="3" height="39.3"/>
				<rect x="199.6" y="76.8" class="st2" width="9" height="94.9"/>
				<rect x="199.6" y="76.8" class="st3" width="4.5" height="94.9"/>
				<rect x="199.6" y="76.8" class="st3" width="2.2" height="94.9"/>
				<rect x="198.1" y="162.1" class="st4" width="11.9" height="39.3"/>
				<rect x="198.1" y="162.1" class="st5" width="5.9" height="39.3"/>
				<rect x="198.1" y="162.1" class="st5" width="3" height="39.3"/>
				<path class="st4" d="M184,61.4c0,2.4-1.4,4.3-3.2,4.3h-56.2c-1.8,0-3.2-2-3.2-4.3V46.7c0-2.4,1.4-4.3,3.2-4.3h56.2
					c1.8,0,3.2,2,3.2,4.3V61.4z"/>
				<g>
					<path class="st6" d="M142.3,47.9h-5c-0.2,0-0.4-0.1-0.7-0.3c-0.2-0.3-0.2-0.5-0.2-0.9c0-0.3,0.1-0.5,0.2-0.9s0.3-0.3,0.7-0.3
						h6.5c0.2,0,0.4,0.1,0.7,0.3c0.2,0.1,0.2,0.5,0.2,0.9c0,0.3-0.1,0.5-0.2,0.9l-6.1,12.5h5.4c0.2,0,0.4,0.1,0.7,0.3
						c0.2,0.1,0.2,0.5,0.2,0.9c0,0.3-0.1,0.5-0.2,0.9c-0.2,0.3-0.3,0.3-0.7,0.3h-7c-0.2,0-0.4-0.1-0.7-0.3c-0.2-0.3-0.2-0.5-0.2-0.9
						c0-0.3,0-0.4,0.1-0.8L142.3,47.9z"/>
					<path class="st6" d="M155.2,48.1c1.2,1.6,1.9,3.6,1.9,6c0,2.4-0.7,4.3-1.9,6c-1.2,1.6-2.7,2.5-4.4,2.5s-3.2-0.9-4.4-2.5
						c-1.2-1.6-1.9-3.6-1.9-6c0-2.4,0.7-4.3,1.9-6c1.2-1.6,2.7-2.5,4.4-2.5S154,46.4,155.2,48.1z M150.8,48.1
						c-1.2,0-2.3,0.5-3.2,1.8c-0.9,1.1-1.3,2.6-1.3,4.3c0,1.6,0.4,3,1.3,4.3c0.9,1.1,1.9,1.8,3.2,1.8c1.2,0,2.3-0.5,3.2-1.8
						c0.9-1.1,1.3-2.6,1.3-4.3c0-1.6-0.4-3-1.3-4.3C153.1,48.7,152,48.1,150.8,48.1z"/>
					<path class="st6" d="M169.7,48.1c1.2,1.6,1.9,3.6,1.9,6c0,2.4-0.7,4.3-1.9,6c-1.2,1.6-2.7,2.5-4.4,2.5s-3.2-0.9-4.4-2.5
						c-1.2-1.6-1.9-3.6-1.9-6c0-2.4,0.7-4.3,1.9-6c1.2-1.6,2.7-2.5,4.4-2.5S168.5,46.4,169.7,48.1z M165.3,48.1
						c-1.2,0-2.3,0.5-3.2,1.8c-0.9,1.1-1.3,2.6-1.3,4.3c0,1.6,0.4,3,1.3,4.3c0.9,1.1,1.9,1.8,3.2,1.8c1.2,0,2.3-0.5,3.2-1.8
						c0.9-1.1,1.3-2.6,1.3-4.3c0-1.6-0.4-3-1.3-4.3C167.5,48.7,166.5,48.1,165.3,48.1z"/>
				</g>
			</g>
		</g>
		<g>
			<rect x="108.7" y="179.5" class="st0" width="1.2" height="15"/>
			<rect x="107.4" y="126" class="st0" width="2.7" height="15"/>
			<rect x="148" y="126" class="st0" width="1.9" height="51.1"/>
			<path class="st1" d="M129.4,117.3h-19.3v81.2H149v-97.5C140,100.9,132.2,107.7,129.4,117.3z"/>
			<line class="st1" x1="113.3" y1="198.7" x2="113.3" y2="117.3"/>
			<line class="st1" x1="116.4" y1="198.7" x2="116.4" y2="117.3"/>
			<line class="st1" x1="119.5" y1="198.7" x2="119.5" y2="117.3"/>
			<line class="st1" x1="122.7" y1="198.7" x2="122.7" y2="117.3"/>
			<line class="st1" x1="125.8" y1="198.7" x2="125.8" y2="117.3"/>
			<line class="st1" x1="129.3" y1="198.7" x2="129.3" y2="117.3"/>
			<line class="st1" x1="132.5" y1="198.7" x2="132.4" y2="110.7"/>
			<line class="st1" x1="135.1" y1="198.7" x2="135.1" y2="107.1"/>
			<line class="st1" x1="138.3" y1="198.7" x2="138.3" y2="104.4"/>
			<line class="st1" x1="141.5" y1="198.7" x2="141.5" y2="102.9"/>
			<line class="st1" x1="144.6" y1="198.7" x2="144.6" y2="101.4"/>
			<line class="st1" x1="146.9" y1="198.7" x2="146.9" y2="101.4"/>
			<line class="st1" x1="109.9" y1="122.7" x2="149" y2="122.7"/>
			<line class="st1" x1="132.8" y1="110.7" x2="149" y2="110.7"/>
			<line class="st1" x1="109.9" y1="160.6" x2="149" y2="160.6"/>
			<line class="st1" x1="109.9" y1="191.2" x2="149" y2="191.2"/>
		</g>
	</g>
	<g>
		<path class="st7" d="M14,245.5c0,0-14.5-52-13.8-52.5s5.2-18.9,5.2-18.9s4.5-7.6,6.1-8.8s14.6-3,17.1-5.5
			c2.6-2.5,8.5-32.3,10.2-34.4c1.6-2.1,9.5-14.3,12.8-16.8c3.2-2.4,13.3,0,15,0.3s15.3,17.4,17,16.9c1.7-0.3,14.4-1.6,16.1-0.9
			c0.7,0.3,8.2,12.8,16.6,26.9c2.2,3.8,10.6,8.5,12.9,12.3c9.7,16.4,12.4,30.9,12.4,30.9L14,245.5z"/>
		<path class="st8" d="M3.8,194.5c0.7-3.3,2.1-5.9,3.4-8.6c2.1-4.3,2.3-6.8,1.8-11.8c-0.1-0.5,0.1-1.4,0.7-1.5
			c1.1-0.1,1.8-0.3,2.9,0c2,0.8,1.7-0.3,2.9-2.1c1.9-2.6,4.1-3.8,6.8-4.4c2.3-0.5,4.1-1.3,4.1-4.9c-4.5,1.8-13.6,3.3-14.9,4.1
			c-1.6,1.1-6.1,8.8-6.1,8.8s-4.6,18.3-5.3,18.8c-0.3,0.3,2,7.4,4.1,13.6C4.1,202.5,2.9,198.4,3.8,194.5z"/>
		<path class="st8" d="M37.7,136.5c2-3.8,5.2-6.6,6.8-10.6c2-5.4,8.9-7.4,12.4-10.4c3.5-3,4.5-2.1,6.9,2.3c3.1,5.9,6,5.5,10.9,4.1
			c1-0.3,2.1-0.5,3.1-0.9c-4.5-5-10.3-11.6-11.3-11.9c-1.7-0.3-11.8-2.6-15-0.3c-3.2,2.4-11.2,14.8-12.8,16.8
			c-0.9,1.3-3.3,11.8-5.7,20.8C34.9,143.3,36,139.6,37.7,136.5z"/>
		<polygon class="st8" points="21.8,184.3 32.2,172.6 34.3,165.5 44.2,154.2 35.3,167.5 35.1,176 		"/>
		<path class="st8" d="M54.9,158.1c2.3-1.6,0.9-7.8,3.5-9.6c1.1-0.8,3,0.4,3.9-0.9c0.7-0.9,0.8-4,1.3-5.3c0.9-2.4,1.8-2.3,3.4-2.5
			c0.8-0.1,0.6,0,1.2-0.4s1-1.3,1.6-1.8c1-1.1,2-2.4,3.2-2.6c1.2-0.4,2.1-0.1,3.3-1c1.6-1.1,1.8-1,3.2,0.1c1.2,0.9,2.4,1.4,3.7,2.1
			c2.6,1.4,5,3.5,7.5,4.9c-2.2-0.5-4.3-0.9-6.5-1.6c-1.7-0.8-3.7-2-5.4-2.3c-1-0.1-1.3,0.1-2.3,0.8c-0.3,0.1-0.8,1-1,1
			c-0.4,0-1-1-1.4-1.1c-2.2-0.5-3,1.6-4.7,2.9c0.6,1.5,2.2,3.9,1.7,5.5c-2.1-0.3-2.2-5.9-4.8-3c-1.7,2-0.9,5.9-3.5,6.5
			c1.3,2.1-1.2,1.8-1.9,1.8c-1.1,0-2.1,0.1-2.8,1.6c-0.8,1.5,0.3,7.4-2.2,6.3L54.9,158.1z"/>
		<path class="st8" d="M9.6,207.1c0.8-2.9-0.7-7.1,2.2-9c1.2-0.9,2.3-0.8,2.8-2.4c0.4-1.4-0.3-3.6,0.4-4.9c0.9-1.5,2.3-0.1,3.3-0.5
			c0.7-0.3,1.8-2.3,2.4-2.8c3.5-2.9,9.3,1.1,13.1,2.4c0.9,0.3,1.8,0.8,2.6,0.9c-1.3,0.9-4.3-0.1-5.8-0.4c-1.3-0.3-2.7-0.9-4-0.9
			c-0.8,0-2.6,0-3.1,1.1c-0.4,1,0.4,2.6-0.1,3.9c-1.1-0.3-1.1-2.9-2.2-3c-0.7-0.1-2,1.8-2.7,2c-1.1,0.4-2-0.1-2.4,1.6
			c-0.3,1.3,0.4,2.4-0.4,3.6c0.8,0.3,1.4-0.5,2.1,0.4c0.3,0.5,0,2,0.1,2.1c0.9,1.1,2.7-1.5,3.4,0.4c-0.8,1-1.8,2.8-2.8,3
			c0-1.5-1.2-1.6-1.4-2.9c-1.3,0.8-2,0.1-2.6-1.5c-0.9,0.9-3.1,1.4-3.4,2.4c-0.8,1.8,0.6,2.9-1,4.8L9.6,207.1z"/>
		<path class="st8" d="M43.1,143.8c-0.3-1.8,0.4-4.1,0.6-6.1c0.1-2-0.3-2.5,0.9-3.5c2.2-2.1,5,0.5,6.5-2.1c0.9-1.5,1.3-4,2.8-4.8
			c1.1-0.5,2,0.8,3.3,0.9c1.8,0.1,1.7,0.9,3.1,2c1.7,1.4,3.9,1.1,5.7,2.6c-2,0.1-5.7-2.5-7.2-1c-0.8-1-1.8-0.5-2.8-0.8
			c-0.9-0.1-0.9-0.8-1.6-0.3c-0.4,0.3-0.8,1.5-1.4,2c1.3,2.9,0.2,4.9-1.7,2.3c-0.9,0.9-1.7,1-2.7,0.8c0.8,2.8-0.2,5,0.8,7.6
			c0.9,2.5,2.9,5.4,0.2,7.1c1.2-1.8-1.3-4.4-1.8-6.3c-0.4-2-0.3-4.3-0.8-6.3c-1.9,0.8-1,1.6-1.6,3.9c-0.3,1.1-1,2.8-1.8,3.4
			L43.1,143.8z"/>
		<path class="st9" d="M63.8,119.1c-1.1-1.6-2.2-3.8-4-4c-2.1-0.4-4.5,1.6-5.4,4c-0.1,0.3,0,0.4,0.2,0.4c1.8-0.4,3.1-2.8,5-2.3
			c1.1,0.4,2.1,2.5,2.9,3.5C63.4,121.7,64.6,120.2,63.8,119.1z"/>
		<path class="st9" d="M94.9,127.3c-2.9-0.1-5.4-0.8-8.3-0.5c-2,0.1-4.1,1.5-6,0c-2.8-2.3-3.7-4.8-7.1-3.4c-0.3,0.1-0.2,0.8,0.1,0.8
			c2.2-0.1,3.4,0.1,5.2,2.4c0.9,1.1,1.8,2.1,3,2.4c4.1,1.4,9-0.3,13.2-0.3C95.4,128.6,95.4,127.5,94.9,127.3z"/>
		<path class="st9" d="M73.8,139.8c-0.7-0.5-2-0.3-2.1,1c0,0.3,0,0.8,0.3,0.8c0.2,0,0.3,0.1,0.6,0.1s0.4,0.1,0.7,0.3
			C74.1,142,74.7,140.5,73.8,139.8z"/>
		<path class="st9" d="M85.9,141.7c-0.4-0.5-1.1-0.8-1.7-1c-0.9-0.4-1.9-0.9-2.8-1.3c-1.2-0.4-3-1.3-4.1-0.3
			c-0.4,0.4-0.2,1.4,0.3,1.3c1.6-0.5,3,0.1,4.4,0.9c1,0.4,2.7,1.6,3.7,1.1C86,142.3,86,141.8,85.9,141.7z"/>
		<path class="st9" d="M70.1,147c-0.6-1-1.3-2-2.1-2.5c-0.2-0.1-0.6,0-0.7,0.4c-0.2,1.4-0.8,2.8-1.9,3.3c-0.3,0.1-0.2,0.8,0.1,0.5
			c1.2-0.1,1.8-1.3,2.3-2.5c0.4,0.9,0.9,1.5,1.4,2.1C69.9,149.1,70.6,147.7,70.1,147z"/>
		<path class="st9" d="M60.4,152.8c-0.6,0-1.1,0.4-1.6,1c-0.3,0.5-0.2,1.1,0,1.8c0.1,0.4,0.7,0.3,0.7-0.1l0,0
			c-0.1,0.3,0.1-0.1,0.2-0.1c0.2-0.1,0.6-0.1,0.8-0.3c0.3-0.1,0.6-0.5,0.6-1C61.3,153.3,60.8,152.8,60.4,152.8z"/>
		<path class="st9" d="M58.9,128.5c-1.7-1.1-4.2-3.5-6.2-2.6c-1.1,0.4-1.6,2.5-2,3.8c-1.1,2.9-3,0.8-4.5,1.4
			c-0.2,0.1-0.3,0.5-0.1,0.8c1.6,1.1,4.3,1.8,5.4-0.5c1.1-2.1,1.6-5.9,4-4.3c1.1,0.8,2,1.6,3.2,2C58.9,128.7,59,128.6,58.9,128.5z"
			/>
		<path class="st9" d="M40.4,154.8c-3.1,3.4-6.1,7.9-8.9,11.8c-0.6,0.9-1,1.8-1.3,2.8c-0.9,2.9-2.1,4.4-3.7,6.5
			c-0.1,0.3,0,0.5,0.2,0.5c2.2-0.9,3.5-2.6,4.3-5.5c0.9-3.5,3.1-5.3,5.1-7.5c1.9-2.1,3.4-5.3,4.5-8.1
			C40.7,155.1,40.5,154.7,40.4,154.8z"/>
		<path class="st9" d="M34.4,186c-3.9-0.4-7.9-0.5-11.6-1.4c-1.3-0.3-3.2-1-4,1c-1.4,3-3.9,1.8-5.2,3.8c-1.4,2.1-0.9,5.3-2.1,7.5
			c-0.1,0.3,0.1,0.4,0.2,0.4c0.9-0.5,1.4-0.8,1.4-2.1c0-6,2.8-4.9,5.3-6.8c1.7-1.3,3.1-2.4,5.4-2.1c3.5,0.4,7.1,1.3,10.6,1
			C35,187.1,35,186.1,34.4,186z"/>
		<path class="st9" d="M20.9,199.1c-0.2-0.4-0.8-0.8-0.9-1.3c-0.2-0.5-0.7-0.5-1-0.4c-0.8,0.4-0.8-0.1-1-1c-0.1-0.3-0.3-0.5-0.6-0.4
			c-0.3,0.1-0.4,0.3-0.7,0.5s0,0.8,0.2,0.8l0,0c0,0.5,0.2,1.4,0.4,1.6c0.4,0.5,0.9,0.8,1.4,0.5c0.2,0.4,0.4,0.8,0.8,1.1
			C20.4,201.6,21.5,200.2,20.9,199.1z"/>
		<path class="st9" d="M45.8,139.5c0.2,2.5,0.6,5.6,1.6,7.8c0.3,0.8,1.3,0.3,1.1-0.5c-0.2-1.3-0.6-2.5-0.8-3.9
			c-0.2-1.4-0.3-2.8-0.7-4C46.7,137.8,45.7,138.7,45.8,139.5z"/>
		<polygon class="st8" points="122.9,158.6 104.2,167.8 87.1,189.6 100.4,165.2 105.1,161.3 97.9,140.3 110.9,156.3 116.1,152.1 		
			"/>
		<path class="st9" d="M117.9,166.7c-2.7-1.3-6.3,1.3-8.8,2.5c-2.4,1.3-4.7,3.5-5.3,6.9c-0.1,0.3,0.3,0.8,0.4,0.4
			c1.9-3,4-4.8,6.9-5.5c2.3-0.8,5.3-0.3,7-2.8C118.6,167.7,118.4,167,117.9,166.7z"/>
	</g>
	<g>
		<path class="st10" d="M41.4,150.7h-7.1c0,0,1.9,65.1,0,77.4c2.4,0,4.3,0,7.1,0C39.2,218,41.4,150.7,41.4,150.7z"/>
		<path class="st11" d="M61.7,128.8c-0.2-1.8-1.1-3.3-2.2-3.9c0.9-0.8,1.4-2.3,1.3-3.8c-0.1-1.3-0.7-2.4-1.6-2.8
			c2.3-2.6,3.5-6.8,3.1-11.4c-0.6-5.1-3.1-9.1-6.4-10.4c0.7-1.1,1-2.5,0.8-3.9c-0.2-2.1-1.3-3.6-2.7-4.1c0.1-0.4,0.1-1,0.1-1.4
			c-0.2-1.8-1.4-3-2.8-2.8c-0.1,0-0.2,0.1-0.3,0.1c0.4-1.8,0.7-3.9,0.4-6.1c-0.6-5.9-3.9-10.1-7.7-10.6c0.1-0.8,0.1-1.3,0-2
			c-0.2-2.5-1.4-4.6-3-5.5c0.3-1,0.6-2,0.4-3c-0.3-2.8-2.2-4.8-4.2-4.3c-2,0.4-3.4,2.9-3.2,5.6c0.1,1.1,0.4,2.1,1,2.8
			c-0.1,0.1-0.2,0.3-0.3,0.4c-0.4-0.3-1-0.5-1.7-0.5c-2.1,0-3.8,2.3-3.8,5c0,1.1,0.3,2.1,0.8,3c-1.4,1.3-2.4,3.5-2.4,6.1
			c0,0.8,0.1,1.3,0.2,2c-3.8,1.3-6.5,6.3-6.5,12.1c0,2.1,0.3,4.1,1,6c-0.1,0-0.2,0-0.3,0c-1.3,0-2.4,1.5-2.4,3.4
			c0,0.5,0.1,1,0.2,1.4c-1.3,0.9-2.2,2.5-2.2,4.6c0,1.5,0.4,2.8,1.2,3.8c-3.1,1.8-5.3,6.3-5.3,11.5c0,4.6,1.7,8.5,4.2,10.6
			c-0.8,0.8-1.2,1.8-1.2,3c0,1.5,0.7,2.9,1.7,3.5c-1.1,0.9-1.8,2.5-1.8,4.3c0,2.5,1.3,4.4,3,5c-1.2,1.5-1.9,3.6-1.9,5.6
			c0,4.4,3,8.1,6.9,9c-0.2,0.5-0.3,1.3-0.3,2c0,2.8,1.7,5,3.8,5c1,0,1.9-0.5,2.7-1.4c0,0.3,0,0.4,0,0.8c0,2.1,1.2,3.8,2.8,3.8
			c0,2.8,1.7,5.1,3.8,5.1s3.8-2.3,3.8-5.1v-0.1c0.2,0.1,0.4,0.1,0.7,0.1c1.6,0,2.8-1.6,2.8-3.8c0-0.1,0-0.1,0-0.3
			c0.8,0.3,1.7,0.5,2.4,0.5c4.8,0,8.5-5.5,8.5-12.4c0-1.6-0.2-3.3-0.7-4.8c4.5-1,7.8-5.6,7.2-10.5c-0.2-2.1-1.1-4-2.4-5.3
			C60.9,133.6,62,131.3,61.7,128.8z"/>
		<path class="st12" d="M41.2,165.3c-0.9-1.1-2-2.4-2.2-4c-0.4-2.3,0.1-3.8-1.9-3.6c-4.3,0.1-6.1-5.4-3.9-9.3
			c-1.6-1.8-2.3-3.8-2.4-6.9c0-3.3,2.7-4.3,1.3-6.8c-2-3.8-0.2-7.9,2.3-10.1c-2.8-1.3-5.3-2.6-6-6.9c-0.4-2.6,0.7-4.8,2.2-5.9
			c-1.4-3.4-4-10-0.3-10.9c0.7-0.1,1.4-3.6,1.9-4.3c0.9-1.3,1.8-2.5,3-3.4c1.7-1.1,3.3-1.6,5-2c-1.6-2.8-2-6.6-0.8-9.8
			c-1.7-0.4-3.5-1.3-4-3.6c-0.3-1.8,0.2-2.4-1-3.6c-0.7-0.8-1.2-1.8-1.6-2.8c-1-3.3-0.9-6.9-0.2-10.4c-1.9,0.3-3.3,2.4-3.3,5
			c0,1.1,0.3,2.1,0.8,3c-1.4,1.3-2.4,3.5-2.4,6.1c0,0.8,0.1,1.3,0.2,2c-3.8,1.3-6.5,6.3-6.5,12.1c0,2.1,0.3,4.1,1,6
			c-0.1,0-0.2,0-0.3,0c-1.3,0-2.4,1.5-2.4,3.4c0,0.5,0.1,1,0.2,1.4c-1.3,0.9-2.2,2.5-2.2,4.6c0,1.5,0.4,2.8,1.2,3.8
			c-3.1,1.8-5.3,6.3-5.3,11.5c0,4.6,1.7,8.5,4.2,10.6c-0.8,0.8-1.2,1.8-1.2,3c0,1.5,0.7,2.9,1.7,3.5c-1.1,0.9-1.8,2.5-1.8,4.3
			c0,2.5,1.3,4.4,3,5c-1.2,1.5-1.9,3.6-1.9,5.6c0,4.4,3,8.1,6.9,9c-0.2,0.5-0.3,1.3-0.3,2c0,2.8,1.7,5,3.8,5c1,0,1.9-0.5,2.7-1.4
			c0,0.3,0,0.4,0,0.8c0,2.1,1.2,3.8,2.8,3.8c0,2.8,1.7,5.1,3.8,5.1s3.8-2.3,3.8-5.1v-0.1c0.2,0.1,0.4,0.1,0.7,0.1
			c1.4,0,2.7-1.5,2.8-3.4C42.9,167,42,166.2,41.2,165.3z"/>
		<path class="st13" d="M48.2,164.7c6.3,4,7.1-9.3,5.3-14.5c2.1-0.3,3.8-1.5,4.9-3.8c1.6-3,0.8-4.3,0.6-7.3
			c-0.2-2.8,1.1-4.1,1.4-7.1c0.2-2.6-0.8-5.3-1.8-7.5c2.1-2,0.6-4.9,0.9-7.1c0.1-1,1-2.4,1.2-3.5c0.2-1.4,0.1-3,0.2-4.4
			c0.2-3,0.3-4.9-1-7.5c-1.1-2.3-2.7-3-3.1-5.1c-0.7-3.4,0.1-4.6-2-7.4c-0.9-1.3-1-0.3-1.7-2.1c-0.4-1.3-0.3-3-0.6-4.4
			c-0.3-2.8-1.1-5-2.2-7.5c-0.6-1.1-0.9-2.5-1.7-3.4c-1.1-1.1-1.7-0.4-2.8-1.1c-0.2-0.1-1,0-1.2,0c0-2.4-2.3-7.6-4.3-7.1
			c0.1-1.5,1.2-5.4,0-6.4c-1.9-1.5-3.1,2.6-3.5,4.3c-1.7,5.6-0.6,8.8,3.2,11.3c-1.8,4.9,2.3,6.4,2.6,9.8c0.1,1.4-1,4-0.7,5.9
			c0.3,2.3,1.9,3.5,2.8,5.1c-3.1,2.3-6.7,3.3-9.7,6.1c-3.8,3.6-3.4,8.5,0.4,11.3c-2,0.1-3.2,3.9-2.4,6.5c0.9,2.9,3.8,2.1,4.8,4.1
			c1.2,2.6-1.4,5.1-2,7.1c-1,3.4,0.1,4.6,1,7.5c0.8,2.6,0.6,1.1-0.2,3.8c-0.4,1.5-1.4,1.8-0.7,3.8c0.6,1.3,1.9,0.9,2.2,1.8
			c0.7,1.8-0.1,2.4-0.4,4c-0.8,4.1,0,3.3,2.4,4.8c2.3,1.5,1.6,2.9,2.8,5.5c0.7,1.4,1.8,2.1,2.9,2.6L48.2,164.7z"/>
	</g>
	<g>
		<path class="st10" d="M72.1,141.6h-8.8c0,0,2.4,54.6,0,64.8c3,0,5.3,0,8.8,0C69.2,197.9,72.1,141.6,72.1,141.6z"/>
		<path class="st11" d="M97.3,115c-0.2-2.3-1.3-3.9-2.8-4.9c1.1-1,1.8-2.6,1.7-4.4c-0.1-1.5-0.9-2.8-1.9-3.5
			c2.8-3.3,4.4-8.4,3.9-13.8c-0.7-6.3-3.9-11.1-8-12.6c0.8-1.3,1.2-2.9,1-4.8c-0.2-2.5-1.6-4.4-3.3-5.1c0.1-0.5,0.2-1.1,0.1-1.6
			c-0.2-2.3-1.8-3.8-3.4-3.5c-0.1,0-0.3,0.1-0.4,0.1c0.6-2.3,0.8-4.8,0.6-7.4c-0.8-7.1-4.8-12.4-9.5-13c0.1-0.9,0.1-1.5,0-2.4
			c-0.3-3-1.8-5.5-3.8-6.8c0.4-1.1,0.7-2.4,0.6-3.8c-0.3-3.4-2.7-5.6-5.2-5.3c-2.6,0.4-4.3,3.6-4,6.9c0.1,1.4,0.7,2.5,1.3,3.5
			c-0.1,0.1-0.2,0.3-0.3,0.4c-0.6-0.4-1.3-0.8-2-0.8c-2.6,0-4.7,2.8-4.7,6.1c0,1.4,0.3,2.6,0.9,3.6c-1.8,1.5-3,4.3-3,7.4
			c0,0.9,0.1,1.5,0.2,2.4c-4.7,1.5-8.2,7.5-8.2,14.8c0,2.6,0.4,5,1.3,7.3c-0.1,0-0.3,0-0.4,0c-1.7,0-3,1.8-3,4
			c0,0.5,0.1,1.1,0.3,1.6c-1.7,1-2.8,3-2.8,5.6c0,1.8,0.6,3.4,1.6,4.4c-3.9,2.3-6.7,7.6-6.7,14c0,5.5,2.1,10.4,5.2,12.9
			c-0.9,0.9-1.4,2.3-1.4,3.8c0,1.8,0.9,3.5,2.1,4.1c-1.3,1.1-2.2,3-2.2,5.3c0,2.9,1.6,5.4,3.7,6c-1.4,2-2.3,4.3-2.3,6.9
			c0,5.4,3.7,10,8.5,11c-0.2,0.8-0.3,1.5-0.3,2.4c0,3.5,2.1,6.1,4.7,6.1c1.2,0,2.4-0.8,3.2-1.8c0,0.3-0.1,0.5-0.1,0.9
			c0,2.5,1.6,4.6,3.4,4.6c0,3.5,2.1,6.1,4.7,6.1s4.7-2.8,4.7-6.1v-0.1c0.2,0.1,0.6,0.1,0.9,0.1c1.9,0,3.4-2.1,3.4-4.6
			c0-0.1,0-0.3,0-0.3c1,0.4,2,0.8,3.1,0.8c5.9,0,10.6-6.8,10.6-15.1c0-2-0.3-3.9-0.8-5.6c5.7-1.3,9.7-6.9,9-12.9
			c-0.2-2.6-1.3-4.9-3-6.5C96.2,120.6,97.5,117.8,97.3,115z"/>
		<path class="st12" d="M71.7,159.2c-1.1-1.4-2.4-2.9-2.8-5c-0.4-2.6,0.1-4.6-2.3-4.4c-5.3,0.3-7.5-6.6-4.9-11.3
			c-1.9-2.3-3-4.6-3-8.4c0-3.9,3.3-5.3,1.7-8.4c-2.6-4.6-0.3-9.8,2.8-12.4c-3.4-1.5-6.5-3.3-7.4-8.4c-0.6-3.4,0.9-5.6,2.8-7.1
			c-1.8-4-4.9-12.1-0.4-13.1c0.8-0.1,1.8-4.4,2.3-5.3c1-1.5,2.2-3,3.7-4c2.1-1.3,4.1-2.1,6.2-2.3c-1.9-3.5-2.4-8-0.9-11.9
			c-2.1-0.4-4.3-1.5-4.9-4.3c-0.4-2.3,0.2-2.8-1.2-4.3c-0.8-0.9-1.6-2.3-2-3.5c-1.2-3.9-1.1-8.5-0.2-12.8c-2.3,0.4-4.1,2.9-4.1,6.1
			c0,1.4,0.3,2.6,0.9,3.6c-1.8,1.5-3,4.3-3,7.4c0,0.9,0.1,1.5,0.2,2.4c-4.7,1.5-8.2,7.5-8.2,14.8c0,2.6,0.4,5,1.3,7.3
			c-0.1,0-0.3,0-0.4,0c-1.7,0-3,1.8-3,4c0,0.5,0.1,1.1,0.3,1.6c-1.7,1-2.8,3-2.8,5.6c0,1.8,0.6,3.4,1.6,4.4c-3.9,2.3-6.7,7.6-6.7,14
			c0,5.5,2.1,10.4,5.2,12.9c-0.9,0.9-1.4,2.3-1.4,3.8c0,1.8,0.9,3.5,2.1,4.1c-1.3,1.1-2.2,3-2.2,5.3c0,2.9,1.6,5.4,3.7,6
			c-1.4,2-2.3,4.3-2.3,6.9c0,5.4,3.7,10,8.5,11c-0.2,0.8-0.3,1.5-0.3,2.4c0,3.5,2.1,6.1,4.7,6.1c1.2,0,2.4-0.8,3.2-1.8
			c0,0.3-0.1,0.5-0.1,0.9c0,2.5,1.6,4.6,3.4,4.6c0,3.5,2.1,6.1,4.7,6.1c2.6,0,4.7-2.8,4.7-6.1v-0.1c0.2,0.1,0.6,0.1,0.9,0.1
			c1.8,0,3.2-1.8,3.4-4.1C73.9,161.3,72.7,160.5,71.7,159.2z"/>
		<path class="st13" d="M80.4,158.6c7.9,4.9,8.8-11.4,6.7-17.8c2.6-0.3,4.7-1.8,6-4.6c1.9-3.6,0.9-5.3,0.7-8.8
			c-0.2-3.5,1.4-5.1,1.8-8.6c0.3-3.3-0.9-6.5-2.2-9.1c2.7-2.5,0.7-5.9,1-8.6c0.1-1.3,1.2-2.9,1.6-4.1c0.3-1.6,0.2-3.8,0.3-5.4
			c0.3-3.8,0.4-6-1.2-9.1c-1.4-2.6-3.3-3.8-3.9-6.3c-0.8-4.1,0.1-5.6-2.6-8.9c-1.2-1.4-1.3-0.3-2.1-2.5c-0.6-1.5-0.4-3.8-0.7-5.4
			c-0.4-3.5-1.3-6.1-2.8-9.1c-0.7-1.4-1.1-3-2-4c-1.3-1.4-2-0.5-3.4-1.4c-0.3-0.1-1.2,0-1.6,0c0-2.8-2.9-9.3-5.3-8.8
			c0.2-1.8,1.6-6.5,0-7.8c-2.4-1.8-3.8,3.4-4.4,5.3c-2.1,6.9-0.7,10.6,4,13.8c-2.2,6,2.9,7.8,3.2,11.8c0.1,1.8-1.2,4.9-0.9,7.1
			c0.4,2.8,2.3,4.1,3.4,6.3c-3.9,2.6-8.2,3.9-12,7.4c-4.7,4.4-4.2,10.3,0.6,13.6c-2.6,0.1-4,4.8-3,7.9c1.1,3.6,4.7,2.6,5.9,5
			c1.6,3.3-1.8,6.3-2.6,8.6c-1.3,4,0.2,5.5,1.2,9.1c0.9,3.3,0.8,1.3-0.2,4.6c-0.6,1.8-1.9,2.1-0.9,4.6c0.7,1.5,2.3,1.1,2.8,2.3
			c0.9,2.1-0.2,2.9-0.6,4.9c-1,5.1,0,3.9,3.1,5.9c2.9,2,1.9,3.6,3.3,6.6c0.8,1.6,2.1,2.6,3.5,3.3L80.4,158.6z"/>
	</g>
	<path class="st14" d="M174.3,229.2c-1.1-0.9-2.1-2.4-3.2-3.3c-1.1-0.9-4-3.3-4.1-3.8c0.1,0-0.8-3.6-2-4.4c-1.1-0.9-1.4-5.5-2.2-7.3
		c-0.9-1.8-0.6-4.3-1.8-5.6c-0.6-0.9-1.2-0.8-1.9-1c-0.6-0.3-1-0.5-1.6-1c-1.4-1-2.1-1.6-3.3,0.5c-0.6,1-1.3,2.9-2.2,3.9
		c-0.3-0.5-0.8-2.3-1-2.8c-0.3-0.8-0.8-1-1-1.6c0.1-1.1,0.3-2.1,0.3-3c0.2-2.4,0.2-4-1.1-5c-0.6-0.4-1.3,0-1.8-0.4
		c-0.4-0.4-0.8-2.3-1.1-2.9c-0.3-0.8-0.9-1-1.1-2c-0.2-1,0.3-2.4,0-3c-0.8-2-2.9-0.9-4-0.3c-2.3,1.3-1.8,0.4-2.6-2.6
		c-0.7-2.5-1.6-2.8-2.9-3.5c-0.2-4-2.1-9.8-3.8-11.4c-1.4-1.5-2.3-1.1-3.2-3.5c-0.3-1-0.1-2-0.6-2.9c-0.8-1.5-1.9-1.4-2.9-1.8
		c-2.9-1.3-5.5-3.4-8.3-4.6c-1.2-0.5-2.8-1.4-4-0.1s-0.7,3.5-1.7,5.3c-1.4,2.5-3-0.3-4.8,0.4c-1.2,0.5-1,1.3-1.6,2.4
		c-0.9,1.5-0.3,1.3-1.8,1.8c-1.9,0.5-3.1,0.3-4.4,3.3c-1.4,3.3-0.9,4.3-3.2,2.3c-1.1-1-3.2-2.8-4.4-0.9c-0.4,0.8-0.1,2.5-0.4,3.5
		c-0.3,1.1-1,1.1-1.6,2c-0.4,0.8-1.2,2.5-1.8,2.9c-0.6,0.4-1.3-0.3-2.1,0c-1.7,0.8-1.9,2.6-2,5.3c-0.1,1,0,2.3-0.1,3.5
		c-0.4,0.9-0.9,1-1.4,1.6c-0.4,0.5-1.1,2.3-1.7,2.8c-0.8-1.4-1.3-3.6-1.8-4.9c-1-2.8-1.8-2.3-3.5-1.5c-0.7,0.3-2.4,2.9-3.1,3
		c-0.8,0.1-0.8,3-1.6,3.8c-1.4,1.3-4,0.8-5.2,2.5c-1.2,1.6-2,7.8-3.3,8.4c-1.4,0.5-2.4,6-2.4,6c-0.2,0.5-3.2-3.5-4.7-2.9
		c-1.4,0.5-1.2,3.3-2.7,3.8c-2-2.9-5.5,0.1-4.8,4.9c0.6,7.3,3.7,6,7,6.6c1.2,0.3,2.4,0.5,3.8,0.8c0.8,0.1,2.8,1.8,3.5,2
		c1,0.1,1.9-0.8,2.7,0.5c1.6,2.5,0.4,1.3,3,1.4c1.3,0,2.9-1,4.4-0.5c1.7,0.5,3.1,2.8,4.8,3.4c1.8,0.5,3-1.5,4.4-0.8
		c0.7,0.4,1.3,1.8,1.9,2.5c0.8,0.8,1.2,0.5,2,1.1c0.7,0.5,1.6,2.4,2.1,2.5c0.7,0.1,1-1.6,1.8-1.4c0.7,0.1,1,1.8,1.7,2.3
		c0.9,0.4,1.2-0.3,2-0.5c0.7-0.3,1.4-1,2.1-1.4c0.4,1.5,1.3,2.8,2.3,3.8c0.1,1.8,0.1,3.9,0.8,4.6c0.8,0.9,3.3-1.5,3.9-2.6
		c0,0,0,0,0-0.1c0.4,0,0.9,0,1.2,0c0.2,0.4,0.7,0.5,1,0.9c0.8,1,1.7,1.5,2.6,1.8c0.8,1.1,1.9,2,3.2,2.5c1.8,0.8,3.5,0.4,5-0.5
		c0.2,0.1,0.6,0.3,0.9,0.4c0.4,0.1,0.8,0.3,1.2,0.3c0.3,0.8,0.8,1.4,1.3,1.8c1.2,2.3,3.1,3.5,4.9,3.5c0.9,0.5,2.1,1,3.4,0.9
		c3.2-0.3,7.5-5.3,8-10.3c0.9,0.1,1.7,1.4,2.3,2c0.6,0.4,0.8,1.1,1.7,1c0.6-0.1,1.1-1.5,1.7-1.5c0.7,0,0.8,1.5,1.3,1.6
		c0.6,0.1,1.6-1.4,2.2-1.6c0.7-0.3,1.1,0,1.9-0.5c0.7-0.4,1.3-1.5,2-1.6c1.4-0.3,2.1,1.6,3.8,1.6c1.6,0,3-1.6,4.5-1.8
		c1.4-0.1,2.7,1.1,3.8,1.5c2.2,0.5,1.7-1.5,3.2-3.4c0.8-0.9,3.2-1.1,4.1-1c0.7,0,1.2,0.5,1.9,0.8c1.1,0.1,2.2-0.8,3.3-0.5
		c2.9,0.1,5.4,2.1,6.9-4C177.4,230.1,175.6,230.2,174.3,229.2z"/>
	<path class="st14" d="M104.3,218.7c-0.9-0.4-1.7-1.3-2.7-1.6c-0.9-0.3-3.1-1.4-3.2-1.8c0,0-1-2.5-1.9-2.8s-1.7-3.8-2.4-4.8
		c-0.8-1.1-1-2.9-1.9-3.8c-0.6-0.4-0.9-0.1-1.4-0.3c-0.4,0-0.8-0.3-1.2-0.4c-1.1-0.4-1.7-0.8-2.2,1.1c-0.2,0.9-0.6,2.4-1,3.3
		c-0.3-0.3-0.8-1.4-1.1-1.8c-0.3-0.4-0.7-0.5-0.9-1c0-0.9-0.1-1.6-0.1-2.3c-0.1-1.8-0.3-3-1.3-3.4c-0.4-0.1-0.9,0.3-1.2,0.1
		c-0.3-0.3-0.8-1.4-1.1-1.8c-0.3-0.4-0.8-0.5-1-1.3c-0.2-0.5-0.1-1.8-0.3-2.3c-0.8-1.3-2.1,0-2.7,0.8c-1.4,1.4-1.1,0.8-2-1.4
		c-0.8-1.6-1.4-1.6-2.4-2c-0.7-2.8-2.7-6.5-4-7.4c-1.1-0.8-1.8-0.3-2.6-1.8c-0.3-0.8-0.3-1.4-0.8-2c-0.8-1-1.4-0.5-2.2-0.8
		c-2.1-0.3-4.1-1.3-6.2-1.5c-0.9-0.1-2.1-0.3-2.8,0.9s-0.1,2.6-0.6,4.1c-0.7,2.1-2.1,0.4-3.2,1.4c-0.8,0.8-0.4,1.1-0.8,2.1
		c-0.4,1.4-0.1,1-1,1.6c-1.2,0.9-2.1,1-2.6,3.4c-0.6,2.6-0.1,3.4-2,2.4c-0.9-0.4-2.6-1.3-3.1,0.3c-0.2,0.8,0.2,1.8,0.1,2.6
		c-0.1,0.9-0.6,1.1-0.8,1.6c-0.2,0.5-0.6,2.1-0.8,2.5c-0.3,0.4-1,0.1-1.4,0.4c-1,0.9-1,2.3-0.8,4.3c0.1,0.8,0.2,1.6,0.3,2.5
		c-0.2,0.8-0.6,0.9-0.8,1.5c-0.2,0.5-0.4,2-0.8,2.4c-0.7-0.9-1.3-2.4-1.8-3.3c-1-1.8-1.4-1.3-2.7-0.4c-0.4,0.3-1.3,2.6-1.8,2.9
		c-0.6,0.3-0.1,2.4-0.6,3c-0.9,1.3-2.7,1.4-3.3,2.9c-0.7,1.4-0.3,6-1.2,6.8c-0.9,0.8-1,4.9-0.9,4.9c-0.1,0.4-2.7-1.8-3.5-1.1
		c-0.9,0.8-0.4,2.5-1.3,3.4c-1.8-1.6-3.8,1.3-2.7,4.6c1.3,5.1,3.2,3.5,5.5,3.4c0.9-0.1,1.8-0.1,2.7-0.3c0.6-0.1,2.1,0.8,2.7,0.8
		c0.7-0.1,1.2-1,1.9-0.3c1.3,1.4,0.4,0.9,2.2,0.3c0.9-0.3,1.9-1.4,3-1.4c1.2,0,2.4,1.3,3.7,1.4c1.3,0,1.9-1.6,3-1.5
		c0.6,0.1,1.1,1,1.7,1.4s0.9,0.1,1.4,0.4s1.3,1.4,1.8,1.3c0.4-0.1,0.4-1.4,1-1.4c0.4,0,0.9,1.1,1.4,1.3c0.7,0.1,0.8-0.4,1.3-0.9
		c0.8-0.8,1.6-2.5,2.6-1.4c0.8,1,0.9,4.6,1.8,5.3c0.6,0.4,2.1-1.8,2.3-2.8c0.7-2.1,0.2-6.5,0.8-8.8c0.1,0.1,0.1,0.3,0.2,0.3
		c0.4,0.3,1.2-0.8,1.8-1.6c1.4,0.3,3.1,1.5,4.2,0.1c1.2-1.5,2.3-0.1,4.1,1.3c1.1,0.8,2.4-0.8,3.5-1.5c0.7,0.5,1.4,1.3,1.8,0.9
		c0.1-0.1,0.1-0.1,0.1-0.3c0.9,1.6,1.3,5.5,2.2,7.1c0.4,0.8,2,2.3,2.4,1.5c0.7-0.9,0.1-4,0.7-5c0.7-1.4,1.7,0,2.4,0.4
		c0.4,0.1,0.7,0.8,1.2,0.3c0.3-0.3,0.6-1.3,1-1.4c0.4-0.1,0.7,1,1.1,0.9c0.4-0.1,0.9-1.3,1.3-1.6s0.8-0.3,1.2-0.9
		c0.3-0.4,0.7-1.4,1.1-1.6c0.9-0.5,1.7,0.8,2.8,0.3c1-0.4,1.9-1.8,2.9-2.3c1-0.4,1.9,0.3,2.8,0.3c1.6-0.1,0.9-1.5,1.8-3
		c0.4-0.9,2.1-1.5,2.7-1.6c0.4-0.1,0.9,0.1,1.3,0.1c0.8-0.1,1.4-1,2.2-1.1c2-0.5,4,0.3,4.2-4.4C106.5,218.7,105.3,219.2,104.3,218.7
		z"/>
	<g>
		<path class="st7" d="M169.3,208.4c0,0,6.5-52.4,7.3-52.4s11.4-12.4,11.4-12.4s6.8-3.5,8.5-3.5c1.8,0,13.8,6.6,16.9,6.3
			c3.1-0.5,19.4-21.6,21.5-22.3c2.1-0.9,13.5-6,17.2-6s11.6,8.5,13,9.6c1.3,1.3,7,24,8.5,24.8c1.6,0.9,13.2,7.6,14.3,9.5
			c0.4,0.8,2.4,15.8,4.5,32.9c0.6,4.5,6.1,13.6,6.7,18.3c2.3,19.6-0.6,33.6-0.6,33.6L169.3,208.4z"/>
		<path class="st8" d="M179.2,159.5c1.8-2.3,4-3.5,6.2-4.9c3.4-2.3,4.5-4.1,5.9-8.8c0.2-0.5,0.7-1.1,1.1-0.9
			c1.1,0.5,1.7,0.9,2.4,1.9c1.4,1.9,1.6,0.9,3.2,0.1c2.7-1.1,5-0.5,7.5,0.5c2.2,1,4,1.4,5.3-1.4c-4.7-1.4-13.1-5.9-14.5-5.9
			c-1.8,0-8.5,3.5-8.5,3.5s-10.6,12.4-11.4,12.4c-0.4,0-1,7.4-1.4,13.9C176.6,166.5,176.9,162.1,179.2,159.5z"/>
		<path class="st8" d="M230.1,132.5c3.1-1.9,7-2.3,9.8-4.6c3.7-3.3,10.4-0.5,14.6-0.9c4.2-0.3,4.8,1.3,5.1,6.1
			c0.6,6.9,3.2,8.4,8,10.4c1,0.4,2,0.9,3,1.4c-2.1-7-4.7-16.1-5.5-17c-1.3-1.3-9.3-9.6-13-9.6s-15.1,5.1-17.2,6
			c-1.2,0.4-7.2,7.6-12.6,13.8C225,136.5,227.4,134.1,230.1,132.5z"/>
		<polygon class="st8" points="198.6,162.3 211.9,159.1 216.4,154.5 229.1,151.3 216.4,156.8 213.2,163.7 		"/>
		<path class="st8" d="M237.1,161.3c2.7,0.1,3.7-5.9,6.5-5.8c1.2,0.1,2.4,2.3,3.7,1.6c0.9-0.3,2.2-2.9,3.1-3.6c1.7-1.4,2.3-0.9,4,0
			c0.7,0.4,0.4,0.4,1.2,0.4c0.6,0,1.4-0.4,2-0.5c1.2-0.3,2.6-0.8,3.8-0.1c1.2,0.4,1.9,1.3,3.2,1.4c1.8,0.1,1.9,0.3,2.8,2.1
			c0.7,1.4,1.7,2.8,2.4,4.1c1.7,2.8,3.1,6,4.8,8.8c-1.7-1.9-3.4-3.5-5.1-5.4c-1.2-1.5-2.4-3.9-3.9-5.3c-0.8-0.9-1.2-0.8-2.2-0.9
			c-0.3,0-1,0.3-1.2,0.1c-0.4-0.3-0.4-1.4-0.9-1.9c-1.8-1.9-3.2-0.4-5.1-0.5c-0.1,1.5,0.4,4.6-0.7,5.8c-1.8-1.4,0.2-6.3-3.1-5.6
			c-2.2,0.5-2.9,4.1-5.4,3.3c0.3,2.6-1.8,0.9-2.3,0.4c-1-0.8-1.9-1.3-3-0.4c-1.2,0.9-2.4,6.4-4.2,3.8L237.1,161.3z"/>
		<path class="st8" d="M179.6,173.5c1.7-2,2-6.3,5.2-6.1c1.3,0.1,2.2,0.9,3.3-0.3c0.9-1,1-3.3,2.2-3.8c1.3-0.8,2,1.4,3.1,1.5
			c0.7,0.1,2.3-0.9,3.2-0.9c4.1-0.3,7.8,6.9,10.4,10.1c0.7,0.9,1.2,1.6,1.9,2.4c-1.4-0.3-3.7-2.8-4.9-4c-1.1-1.1-2-2.4-3.2-3.4
			c-0.7-0.5-2.2-1.5-3.1-1.1c-0.8,0.5-0.7,2.4-1.6,3.3c-0.8-1,0.1-3.1-0.8-3.9c-0.6-0.5-2.3,0.3-3.1,0c-1-0.4-1.7-1.4-2.8-0.1
			c-0.7,0.9-0.4,2.3-1.7,2.8c0.6,0.9,1.4,0.4,1.7,1.6c0.1,0.9-0.7,1.5-0.7,1.6c0.3,1.4,2.9,0.4,2.9,2.5c-1,0.3-2.6,1.3-3.5,0.9
			c0.6-1.4-0.4-2.1-0.1-3.4c-1.4-0.3-1.8-1.3-1.7-2.9c-1,0.1-3.2-0.9-3.9-0.3c-1.3,1.1-0.7,2.8-2.6,3.4L179.6,173.5z"/>
		<path class="st8" d="M232,141.8c0.4-1.6,2-3.3,2.8-4.8s0.7-2.3,2-2.4c2.7-0.3,4.1,3.6,6.4,2.4c1.3-0.8,2.7-2.5,4.2-2.1
			c1.2,0.3,1.6,1.9,2.6,2.8c1.6,1.4,1.1,1.6,2,3.6c1,2.1,3,3.4,3.9,5.8c-1.8-1.3-4-5.8-5.9-5.3c-0.3-1.4-1.3-1.5-2.2-2.4
			c-0.7-0.8-0.6-1.1-1.2-1.3c-0.4,0-1.2,0.9-2,0.8c0.1,3.4-1.7,4.1-2.2,0.9c-1.1,0.1-1.8-0.3-2.6-1.3c-0.3,2.8-2,4.1-2.1,6.9
			c-0.1,2.6,0.6,6.4-2.4,6.1c1.7-0.9,0.4-4.5,0.8-6.3c0.3-1.9,1.3-3.9,1.7-5.8c-1.9-0.8-1.4,0.9-2.8,2.3c-0.7,0.9-1.9,1.6-2.8,1.5
			L232,141.8z"/>
		<path class="st9" d="M259.1,134.5c-0.4-2.1-0.6-4.5-2-5.9c-1.7-1.5-4.5-1.4-6.2,0c-0.1,0.1-0.1,0.4,0,0.5c1.7,0.9,3.8-0.4,5.2,1.4
			c0.9,1.1,0.9,3.4,1.2,4.6C257.8,136.3,259.4,136,259.1,134.5z"/>
		<path class="st9" d="M283.2,161c-2.4-1.9-4.4-4-7-5.8c-1.8-1.3-4.1-1.4-5.2-3.8c-1.7-3.8-1.4-6.3-5-7.3c-0.3-0.1-0.6,0.5-0.2,0.8
			c2,1.4,3,2.3,3.7,5.1c0.3,1.4,0.9,2.8,1.7,3.9c3.1,3.8,8,5.4,11.5,8.1C283.2,162.2,283.7,161.2,283.2,161z"/>
		<path class="st9" d="M260.3,158c-0.3-1-1.7-1.4-2.2-0.5c-0.1,0.3-0.2,0.5,0,0.9c0.1,0.1,0.3,0.3,0.4,0.4c0.2,0.1,0.2,0.4,0.4,0.5
			C259.7,160,260.7,159,260.3,158z"/>
		<path class="st9" d="M270,167.1c-0.1-0.8-0.7-1.3-1.1-1.9c-0.7-1-1.3-1.9-2-2.8c-0.9-1.3-2.1-2.9-3.5-2.8c-0.6,0-0.7,1.1-0.1,1.3
			c1.6,0.4,2.6,2,3.5,3.5c0.7,1,1.8,3.1,2.9,3.3C269.9,167.6,270,167.3,270,167.1z"/>
		<path class="st9" d="M254.4,161.6c-0.2-1.3-0.4-2.4-0.9-3.4c-0.1-0.3-0.6-0.4-0.8-0.1c-0.8,1-1.8,1.6-2.8,1.4
			c-0.3-0.1-0.4,0.4-0.1,0.5c1.1,0.5,2,0,2.9-0.8c0.1,1,0.2,1.9,0.4,2.6C253.5,163.3,254.5,162.6,254.4,161.6z"/>
		<path class="st9" d="M243.8,160.5c-0.4-0.3-1.1-0.4-1.7-0.1c-0.6,0.3-0.6,0.9-0.7,1.4c0,0.5,0.4,0.8,0.7,0.3l0,0
			c-0.2,0.1,0.1,0,0.2,0c0.2,0,0.6,0.1,0.8,0.3c0.3,0.1,0.7,0,0.9-0.4C244.3,161.3,244.2,160.6,243.8,160.5z"/>
		<path class="st9" d="M251.5,139.1c-1.1-2-2.4-5.6-4.4-6.1c-1.2-0.4-2.2,1.1-3.1,1.9c-2,1.6-2.8-1.4-4.4-1.6
			c-0.2,0-0.4,0.3-0.3,0.5c0.9,1.9,3.1,4.1,4.9,3.1c1.7-1.1,3.5-3.9,5.1-1.1c0.7,1.4,1.1,2.6,2.1,3.8
			C251.4,139.3,251.5,139.2,251.5,139.1z"/>
		<path class="st9" d="M225.5,149.6c-4,0.9-8.1,2.8-12.1,4.1c-0.8,0.3-1.6,0.9-2.1,1.4c-1.8,1.9-3.4,2.4-5.5,3.1
			c-0.2,0.1-0.2,0.5,0,0.5c2.2,0.8,4.1,0,5.8-2c2.1-2.3,4.7-2.4,7.2-3.1c2.4-0.8,5-2.1,7-4C225.9,150,225.8,149.5,225.5,149.6z"/>
		<path class="st9" d="M208.9,171.7c-3.2-2.8-6.5-5.4-9.7-8.5c-1.1-1.1-2.4-2.8-3.9-1.6c-2.3,1.5-4-1-6-0.1s-2.7,3.9-4.5,4.9
			c-0.2,0.1-0.1,0.4,0.1,0.4c1,0.1,1.4,0.4,2-0.9c2.2-4.9,4.2-2.4,7.2-2.4c1.9,0,3.5,0,5.4,1.6c2.9,2.5,5.8,5.6,8.9,7.4
			C209,173,209.5,172,208.9,171.7z"/>
		<path class="st9" d="M192.4,174.2c-0.1-0.5-0.3-1.1-0.3-1.5c0.1-0.5-0.4-1-0.8-1c-0.9-0.1-0.6-0.8-0.4-1.4c0-0.3-0.1-0.8-0.3-0.8
			c-0.3-0.1-0.6,0-0.8,0s-0.2,0.8,0,0.8l0,0c-0.2,0.5-0.3,1.3-0.2,1.6c0.2,0.8,0.6,1.1,1,1.4c0,0.5,0.1,1,0.2,1.4
			C191,176,192.6,175.5,192.4,174.2z"/>
		<path class="st9" d="M236,140.2c-0.7,2.3-1.6,5-1.6,7.4c0,0.9,1,1.1,1.2,0.3c0.2-1.3,0.4-2.5,0.8-3.8c0.3-1.3,0.8-2.5,0.9-3.9
			C237.4,139.3,236.3,139.3,236,140.2z"/>
		<polygon class="st8" points="296.2,204.7 276.5,200.4 253.5,207.7 274.1,195.7 279.6,195.5 281,173.6 286.5,195.1 292.4,194.9 		
			"/>
		<path class="st9" d="M288.8,208.1c-1.8-2.8-6-2.9-8.5-3.5c-2.6-0.4-5.3,0-7.2,2.4c-0.2,0.3,0,0.9,0.2,0.5c2.8-1.4,5.2-1.4,8.1-0.3
			c2.2,0.9,4.8,3.3,7.1,2.1C289,209.4,289.1,208.6,288.8,208.1z"/>
	</g>
	<g>
		<path class="st10" d="M218.3,128.5h-7.1c0,0,1.9,65.1,0,77.4c2.4,0,4.3,0,7.1,0C216.1,195.7,218.3,128.5,218.3,128.5z"/>
		<path class="st11" d="M238.6,106.4c-0.2-1.8-1-3.3-2.2-3.9c0.9-0.8,1.4-2.3,1.3-3.8c-0.1-1.3-0.7-2.4-1.6-2.8
			c2.3-2.6,3.5-6.8,3.1-11.4c-0.6-5.1-3.1-9.1-6.4-10.4c0.7-1.1,1-2.5,0.8-3.9c-0.2-2.1-1.3-3.6-2.7-4.1c0.1-0.4,0.1-1,0.1-1.4
			c-0.2-1.8-1.4-3-2.8-2.8c-0.1,0-0.2,0.1-0.3,0.1c0.4-1.8,0.7-3.9,0.4-6.1c-0.6-5.9-3.9-10.1-7.7-10.6c0.1-0.8,0.1-1.3,0-2
			c-0.2-2.5-1.4-4.6-3-5.5c0.3-1,0.6-2,0.4-3c-0.3-2.8-2.1-4.8-4.2-4.3c-2,0.4-3.4,2.9-3.2,5.6c0.1,1.1,0.4,2.1,1,2.8
			c-0.1,0.1-0.2,0.3-0.3,0.4c-0.4-0.3-1-0.5-1.7-0.5c-2.1,0-3.8,2.3-3.8,5c0,1.1,0.3,2.1,0.8,3c-1.4,1.3-2.4,3.5-2.4,6.1
			c0,0.8,0.1,1.3,0.2,2c-3.8,1.3-6.5,6.3-6.5,12.1c0,2.1,0.3,4.1,1,6c-0.1,0-0.2,0-0.3,0c-1.3,0-2.4,1.5-2.4,3.4
			c0,0.5,0.1,1,0.2,1.4c-1.3,0.9-2.2,2.5-2.2,4.6c0,1.5,0.4,2.8,1.2,3.8c-3.1,1.8-5.3,6.3-5.3,11.5c0,4.6,1.7,8.5,4.2,10.6
			c-0.8,0.8-1.2,1.8-1.2,3c0,1.5,0.7,2.9,1.7,3.5c-1.1,0.9-1.8,2.5-1.8,4.3c0,2.5,1.3,4.4,3,5c-1.2,1.5-1.9,3.6-1.9,5.6
			c0,4.4,3,8.1,6.9,9c-0.2,0.5-0.3,1.3-0.3,2c0,2.8,1.7,5.1,3.8,5.1c1,0,1.9-0.5,2.7-1.4c0,0.3,0,0.4,0,0.8c0,2.1,1.2,3.8,2.8,3.8
			c0,2.8,1.7,5.1,3.8,5.1s3.8-2.3,3.8-5.1v-0.1c0.2,0.1,0.4,0.1,0.7,0.1c1.6,0,2.8-1.6,2.8-3.8c0-0.1,0-0.1,0-0.3
			c0.8,0.4,1.7,0.5,2.4,0.5c4.8,0,8.5-5.5,8.5-12.4c0-1.6-0.2-3.3-0.7-4.8c4.5-1,7.8-5.6,7.2-10.5c-0.2-2.1-1.1-4-2.4-5.3
			C237.8,111.2,239,109,238.6,106.4z"/>
		<path class="st12" d="M218.1,143c-0.9-1.1-2-2.4-2.2-4c-0.4-2.3,0.1-3.8-1.9-3.6c-4.3,0.1-6.1-5.4-3.9-9.3
			c-1.6-1.8-2.3-3.8-2.4-6.9c0-3.3,2.7-4.3,1.3-6.8c-2-3.8-0.2-7.9,2.3-10.1c-2.8-1.3-5.3-2.6-6-6.9c-0.4-2.6,0.7-4.8,2.2-5.9
			c-1.4-3.4-4-10-0.3-10.9c0.7-0.1,1.4-3.6,1.9-4.3c0.9-1.3,1.8-2.5,3-3.4c1.7-1.1,3.3-1.6,5-2c-1.6-2.8-2-6.6-0.8-9.8
			c-1.7-0.4-3.5-1.3-4-3.6c-0.3-1.8,0.2-2.4-1-3.6c-0.7-0.8-1.2-1.8-1.6-2.8c-1-3.3-0.9-6.9-0.2-10.4c-1.9,0.3-3.3,2.4-3.3,5
			c0,1.1,0.3,2.1,0.8,3c-1.4,1.3-2.4,3.5-2.4,6.1c0,0.8,0.1,1.3,0.2,2c-3.8,1.3-6.5,6.3-6.5,12.1c0,2.1,0.3,4.1,1,6
			c-0.1,0-0.2,0-0.3,0c-1.3,0-2.4,1.5-2.4,3.4c0,0.5,0.1,1,0.2,1.4c-1.3,0.9-2.2,2.5-2.2,4.6c0,1.5,0.4,2.8,1.2,3.8
			c-3.1,1.8-5.3,6.3-5.3,11.5c0,4.6,1.7,8.5,4.2,10.6c-0.8,0.8-1.2,1.8-1.2,3c0,1.5,0.7,2.9,1.7,3.5c-1.1,0.9-1.8,2.5-1.8,4.3
			c0,2.5,1.3,4.4,3,5c-1.2,1.5-1.9,3.6-1.9,5.6c0,4.4,3,8.1,6.9,9c-0.2,0.5-0.3,1.3-0.3,2c0,2.8,1.7,5.1,3.8,5.1
			c1,0,1.9-0.5,2.7-1.4c0,0.3,0,0.4,0,0.8c0,2.1,1.2,3.8,2.8,3.8c0,2.8,1.7,5.1,3.8,5.1s3.8-2.3,3.8-5.1V149
			c0.2,0.1,0.4,0.1,0.7,0.1c1.4,0,2.7-1.5,2.8-3.4C219.9,144.6,218.9,144,218.1,143z"/>
		<path class="st13" d="M225.1,142.5c6.3,4,7.1-9.3,5.3-14.5c2.1-0.3,3.8-1.5,4.9-3.8c1.6-3,0.8-4.3,0.6-7.3
			c-0.2-2.8,1.2-4.1,1.4-7.1c0.2-2.6-0.8-5.3-1.8-7.5c2.1-2,0.6-4.9,0.9-7.1c0.1-1,1-2.4,1.2-3.5c0.2-1.4,0.1-3,0.2-4.4
			c0.2-3,0.3-4.9-1-7.5c-1.1-2.3-2.7-3-3.1-5.1c-0.7-3.4,0.1-4.6-2-7.4c-0.9-1.3-1-0.3-1.7-2.1c-0.4-1.3-0.3-3-0.6-4.4
			c-0.3-2.8-1.1-5-2.2-7.5c-0.6-1.1-0.9-2.5-1.7-3.4c-1.1-1.1-1.7-0.4-2.8-1.1c-0.2-0.1-1,0-1.2,0c0-2.4-2.3-7.6-4.3-7.1
			c0.1-1.5,1.2-5.4,0-6.4c-1.9-1.5-3.1,2.6-3.5,4.3c-1.7,5.6-0.6,8.8,3.2,11.3c-1.8,4.9,2.3,6.4,2.6,9.8c0.1,1.4-1,4-0.7,5.9
			c0.3,2.3,1.9,3.5,2.8,5.1c-3.1,2.3-6.7,3.3-9.7,6.1c-3.8,3.6-3.4,8.5,0.4,11.3c-2.1,0.1-3.2,3.9-2.4,6.5c0.9,2.9,3.8,2.1,4.8,4.1
			c1.2,2.6-1.4,5.1-2,7.1c-1,3.4,0.1,4.6,1,7.5c0.8,2.6,0.6,1.1-0.2,3.8c-0.4,1.5-1.4,1.8-0.7,3.8c0.6,1.3,1.9,0.9,2.2,1.8
			c0.7,1.8-0.1,2.4-0.4,4c-0.8,4.1,0,3.3,2.4,4.8c2.3,1.5,1.6,2.9,2.8,5.5c0.7,1.4,1.8,2.1,2.9,2.6L225.1,142.5z"/>
	</g>
	<g>
		<path class="st10" d="M249.1,119.2h-8.8c0,0,2.4,54.6,0,64.8c3,0,5.3,0,8.8,0C246.2,175.6,249.1,119.2,249.1,119.2z"/>
		<path class="st11" d="M274.2,92.6c-0.2-2.3-1.3-3.9-2.8-4.9c1.1-1,1.8-2.6,1.7-4.4c-0.1-1.5-0.9-2.8-1.9-3.5
			c2.8-3.3,4.4-8.4,3.9-13.8c-0.7-6.3-3.9-11.1-8-12.6c0.8-1.3,1.2-2.9,1-4.8c-0.2-2.5-1.6-4.4-3.3-5.1c0.1-0.5,0.2-1.1,0.1-1.6
			c-0.2-2.3-1.8-3.8-3.4-3.5c-0.1,0-0.3,0.1-0.4,0.1c0.6-2.3,0.8-4.8,0.6-7.4c-0.8-7.1-4.8-12.4-9.5-13c0.1-0.9,0.1-1.5,0-2.4
			c-0.3-3-1.8-5.5-3.8-6.8c0.4-1.1,0.7-2.4,0.6-3.8c-0.3-3.4-2.7-5.6-5.2-5.3c-2.6,0.4-4.3,3.6-4,6.9c0.1,1.4,0.7,2.5,1.3,3.5
			c-0.1,0.1-0.2,0.3-0.3,0.4c-0.6-0.4-1.3-0.8-2-0.8c-2.6,0-4.7,2.8-4.7,6.1c0,1.4,0.3,2.6,0.9,3.6c-1.8,1.5-3,4.3-3,7.4
			c0,0.9,0.1,1.5,0.2,2.4c-4.7,1.5-8.2,7.5-8.2,14.8c0,2.6,0.4,5,1.3,7.3c-0.1,0-0.3,0-0.4,0c-1.7,0-3,1.8-3,4
			c0,0.5,0.1,1.1,0.3,1.6c-1.7,1-2.8,3-2.8,5.5c0,1.8,0.6,3.4,1.6,4.4c-3.9,2.3-6.7,7.6-6.7,14c0,5.5,2.1,10.4,5.2,12.9
			c-0.9,0.9-1.4,2.3-1.4,3.8c0,1.8,0.9,3.5,2.1,4.1c-1.3,1.1-2.2,3-2.2,5.3c0,2.9,1.6,5.4,3.7,6c-1.4,2-2.3,4.3-2.3,6.9
			c0,5.4,3.7,10,8.5,11c-0.2,0.8-0.3,1.5-0.3,2.4c0,3.5,2.1,6.1,4.7,6.1c1.2,0,2.4-0.8,3.2-1.8c0,0.3-0.1,0.5-0.1,0.9
			c0,2.5,1.6,4.6,3.4,4.6c0,3.5,2.1,6.1,4.7,6.1c2.6,0,4.7-2.8,4.7-6.1v-0.1c0.2,0.1,0.6,0.1,0.9,0.1c1.9,0,3.4-2.1,3.4-4.6
			c0-0.1,0-0.3,0-0.3c1,0.4,2,0.8,3.1,0.8c5.9,0,10.6-6.8,10.6-15.1c0-2-0.3-3.9-0.8-5.6c5.7-1.3,9.7-6.9,9-12.9
			c-0.2-2.6-1.3-4.9-3-6.5C273.1,98.3,274.5,95.6,274.2,92.6z"/>
		<path class="st12" d="M248.6,136.8c-1.1-1.4-2.4-2.9-2.8-5c-0.4-2.6,0.1-4.6-2.3-4.4c-5.3,0.3-7.5-6.6-4.9-11.3
			c-1.9-2.3-3-4.6-3-8.4c0-3.9,3.3-5.3,1.7-8.4c-2.6-4.6-0.3-9.8,2.8-12.4c-3.4-1.5-6.5-3.3-7.4-8.4c-0.6-3.4,0.9-5.6,2.8-7.1
			c-1.8-4-4.9-12.1-0.4-13.1c0.8-0.1,1.8-4.4,2.3-5.3c1-1.5,2.2-3,3.7-4c2.1-1.3,4.1-2.1,6.2-2.3c-1.9-3.5-2.4-8-0.9-11.9
			c-2.1-0.4-4.3-1.5-4.9-4.3c-0.4-2.3,0.2-2.8-1.2-4.3c-0.8-0.9-1.6-2.3-2-3.5c-1.2-3.9-1.1-8.5-0.2-12.8c-2.3,0.4-4.1,2.9-4.1,6.1
			c0,1.4,0.3,2.6,0.9,3.6c-1.8,1.5-3,4.3-3,7.4c0,0.9,0.1,1.5,0.2,2.4c-4.7,1.5-8.2,7.5-8.2,14.8c0,2.6,0.4,5,1.3,7.3
			c-0.1,0-0.3,0-0.4,0c-1.7,0-3,1.8-3,4c0,0.5,0.1,1.1,0.3,1.6c-1.7,1-2.8,3-2.8,5.5c0,1.8,0.6,3.4,1.6,4.4c-3.9,2.3-6.7,7.6-6.7,14
			c0,5.5,2.1,10.4,5.2,12.9c-0.9,0.9-1.4,2.3-1.4,3.8c0,1.8,0.9,3.5,2.1,4.1c-1.3,1.1-2.2,3-2.2,5.3c0,2.9,1.6,5.4,3.7,6
			c-1.4,2-2.3,4.3-2.3,6.9c0,5.4,3.7,10,8.5,11c-0.2,0.8-0.3,1.5-0.3,2.4c0,3.5,2.1,6.1,4.7,6.1c1.2,0,2.4-0.8,3.2-1.8
			c0,0.3-0.1,0.5-0.1,0.9c0,2.5,1.6,4.6,3.4,4.6c0,3.5,2.1,6.1,4.7,6.1c2.6,0,4.7-2.8,4.7-6.1v-0.1c0.2,0.1,0.6,0.1,0.9,0.1
			c1.8,0,3.2-1.8,3.4-4.1C250.8,139,249.6,138.1,248.6,136.8z"/>
		<path class="st13" d="M257.4,136.3c7.9,4.9,8.8-11.4,6.7-17.8c2.6-0.3,4.7-1.8,6-4.6c1.9-3.6,0.9-5.3,0.7-8.8
			c-0.2-3.5,1.4-5.1,1.8-8.6c0.3-3.3-0.9-6.5-2.2-9.1c2.7-2.5,0.7-5.9,1-8.6c0.1-1.3,1.2-2.9,1.6-4.1c0.3-1.6,0.2-3.8,0.3-5.4
			c0.3-3.8,0.4-6-1.2-9.1c-1.4-2.6-3.3-3.8-3.9-6.3c-0.8-4.1,0.1-5.6-2.6-8.9c-1.2-1.4-1.3-0.3-2.1-2.5c-0.6-1.5-0.4-3.8-0.7-5.4
			c-0.4-3.5-1.3-6.1-2.8-9.1c-0.7-1.4-1.1-3-2-4c-1.3-1.4-2-0.5-3.3-1.4c-0.3-0.1-1.2,0-1.6,0c0-2.8-2.9-9.3-5.3-8.8
			c0.2-1.8,1.6-6.5,0-7.8c-2.4-1.8-3.8,3.4-4.4,5.3c-2.1,6.9-0.7,10.6,4,13.8c-2.2,6,2.9,7.8,3.2,11.8c0.1,1.8-1.2,4.9-0.9,7.1
			c0.4,2.8,2.3,4.1,3.4,6.3c-3.9,2.6-8.2,3.9-12,7.4c-4.7,4.4-4.2,10.3,0.6,13.6c-2.6,0.1-4,4.8-3,7.9c1.1,3.6,4.7,2.6,5.9,5
			c1.6,3.3-1.8,6.3-2.6,8.6c-1.3,4,0.2,5.5,1.2,9.1c0.9,3.3,0.8,1.3-0.2,4.6c-0.6,1.8-1.9,2.1-0.9,4.6c0.7,1.5,2.3,1.1,2.8,2.3
			c0.9,2.1-0.2,2.9-0.6,4.9c-1,5.1,0,3.9,3.1,5.9c2.9,2,1.9,3.6,3.3,6.6c0.8,1.6,2.1,2.6,3.5,3.3L257.4,136.3z"/>
	</g>
	<path class="st14" d="M281.2,238.5c-1.1-0.9-2.1-2.4-3.2-3.3c-1.1-0.9-4-3.3-4.1-3.8c0.1,0-0.8-3.6-2-4.4c-1.1-0.9-1.4-5.5-2.2-7.3
		c-0.9-1.8-0.6-4.3-1.8-5.6c-0.6-0.9-1.2-0.8-1.9-1c-0.6-0.3-1-0.5-1.6-1c-1.4-1-2.1-1.6-3.3,0.5c-0.6,1-1.3,2.9-2.2,3.9
		c-0.3-0.5-0.8-2.3-1-2.8c-0.3-0.8-0.8-1-1-1.6c0.1-1.1,0.3-2.1,0.3-3c0.2-2.4,0.2-4-1.1-5c-0.6-0.4-1.3,0-1.8-0.4
		c-0.4-0.4-0.8-2.3-1.1-2.9c-0.3-0.8-0.9-1-1.1-2s0.3-2.4,0-3c-0.8-2-2.9-0.9-4-0.3c-2.3,1.3-1.8,0.4-2.6-2.6
		c-0.7-2.5-1.6-2.8-2.9-3.5c-0.2-4-2.1-9.8-3.8-11.4c-1.4-1.5-2.3-1.1-3.2-3.5c-0.3-1-0.1-2-0.6-2.9c-0.8-1.5-1.9-1.4-2.9-1.8
		c-2.9-1.3-5.5-3.4-8.3-4.6c-1.2-0.5-2.8-1.4-4-0.1s-0.7,3.5-1.7,5.3c-1.4,2.5-3-0.3-4.8,0.4c-1.2,0.5-1,1.4-1.6,2.4
		c-0.9,1.5-0.3,1.3-1.8,1.8c-1.9,0.5-3.1,0.3-4.4,3.3c-1.4,3.3-0.9,4.3-3.2,2.3c-1.1-1-3.2-2.8-4.4-0.9c-0.4,0.8-0.1,2.5-0.4,3.5
		c-0.3,1.1-1,1.1-1.6,2c-0.4,0.8-1.2,2.5-1.8,2.9s-1.3-0.3-2.1,0c-1.7,0.8-1.9,2.6-2,5.3c-0.1,1,0,2.3-0.1,3.5
		c-0.4,0.9-0.9,1-1.4,1.6c-0.4,0.5-1.1,2.3-1.7,2.8c-0.8-1.4-1.3-3.6-1.8-4.9c-1-2.8-1.8-2.3-3.5-1.5c-0.7,0.3-2.4,2.9-3.1,3
		c-0.8,0.1-0.8,3-1.6,3.8c-1.4,1.3-4,0.8-5.2,2.5c-1.2,1.6-2,7.8-3.3,8.4c-1.4,0.5-2.4,6-2.4,6c-0.2,0.5-3.2-3.5-4.7-2.9
		c-1.4,0.5-1.2,3.3-2.7,3.8c-2-2.9-5.5,0.1-4.8,4.9c0.6,7.3,3.7,6,7,6.6c1.2,0.3,2.4,0.5,3.8,0.8c0.8,0.1,2.8,1.8,3.5,2
		c1,0.1,1.9-0.8,2.7,0.5c1.6,2.5,0.4,1.3,3,1.4c1.3,0,2.9-1,4.4-0.5c1.7,0.5,3.1,2.8,4.8,3.4c1.8,0.5,3-1.5,4.4-0.8
		c0.7,0.4,1.3,1.8,1.9,2.5c0.8,0.8,1.2,0.5,2,1.1c0.7,0.5,1.6,2.4,2.1,2.5c0.7,0.1,1-1.6,1.8-1.4c0.7,0.1,1,1.8,1.7,2.3
		c0.9,0.4,1.2-0.3,2-0.5c0.7-0.3,1.4-1,2.1-1.4c0.4,1.5,1.3,2.8,2.3,3.8c0.1,1.8,0.1,3.9,0.8,4.6c0.8,0.9,3.3-1.5,3.9-2.6
		c0,0,0,0,0-0.1c0.4,0,0.9,0,1.2,0c0.2,0.4,0.7,0.5,1,0.9c0.8,1,1.7,1.5,2.6,1.8c0.8,1.1,1.9,2,3.2,2.5c1.8,0.8,3.5,0.4,5-0.5
		c0.2,0.1,0.6,0.3,0.9,0.4c0.4,0.1,0.8,0.3,1.2,0.3c0.3,0.8,0.8,1.4,1.3,1.8c1.2,2.3,3.1,3.5,4.9,3.5c0.9,0.5,2.1,1,3.4,0.9
		c3.2-0.3,7.5-5.3,8-10.3c0.9,0.1,1.7,1.4,2.3,2c0.6,0.4,0.8,1.1,1.7,1c0.6-0.1,1.1-1.5,1.7-1.5c0.7,0,0.8,1.5,1.3,1.6
		c0.6,0.1,1.6-1.4,2.2-1.6c0.7-0.3,1.1,0,1.9-0.5c0.7-0.4,1.3-1.5,2-1.6c1.4-0.3,2.1,1.6,3.8,1.6c1.6,0,3-1.6,4.5-1.8
		c1.4-0.1,2.7,1.1,3.8,1.5c2.2,0.5,1.7-1.5,3.2-3.4c0.8-0.9,3.2-1.1,4.1-1c0.7,0,1.2,0.5,1.9,0.8c1.1,0.1,2.2-0.8,3.3-0.5
		c2.9,0.1,5.4,2.1,6.9-4C284.3,239.4,282.6,239.5,281.2,238.5z"/>
	<path class="st14" d="M211.2,228c-0.9-0.4-1.7-1.3-2.7-1.6c-0.9-0.3-3.1-1.4-3.2-1.8c0,0-1-2.5-1.9-2.8s-1.7-3.8-2.4-4.8
		c-0.8-1.1-1-2.9-1.9-3.8c-0.6-0.4-0.9-0.1-1.4-0.3c-0.4-0.1-0.8-0.3-1.2-0.4c-1.1-0.4-1.7-0.8-2.2,1.1c-0.2,0.9-0.6,2.4-1,3.3
		c-0.3-0.3-0.8-1.4-1.1-1.8c-0.3-0.4-0.7-0.5-0.9-1c0-0.9-0.1-1.6-0.1-2.3c-0.1-1.8-0.3-3-1.3-3.4c-0.4-0.1-0.9,0.3-1.2,0.1
		c-0.3-0.3-0.8-1.4-1.1-1.8c-0.3-0.4-0.8-0.5-1-1.3c-0.2-0.5-0.1-1.8-0.3-2.3c-0.8-1.3-2.1,0-2.7,0.8c-1.4,1.4-1.1,0.8-2-1.4
		c-0.8-1.6-1.4-1.6-2.4-2c-0.7-2.8-2.7-6.5-4-7.4c-1.1-0.9-1.8-0.3-2.6-1.8c-0.3-0.8-0.3-1.4-0.8-2c-0.8-1-1.4-0.5-2.2-0.8
		c-2.1-0.3-4.1-1.3-6.2-1.5c-0.9-0.1-2.1-0.3-2.8,0.9s-0.1,2.6-0.6,4.1c-0.7,2.1-2.1,0.4-3.2,1.4c-0.8,0.8-0.4,1.1-0.8,2.1
		c-0.4,1.4-0.1,1-1,1.6c-1.2,0.9-2.1,1-2.6,3.4c-0.6,2.6-0.1,3.4-2,2.4c-0.9-0.4-2.6-1.3-3.1,0.3c-0.2,0.8,0.2,1.8,0.1,2.6
		c-0.1,0.9-0.6,1.1-0.8,1.6s-0.6,2.1-0.8,2.5c-0.3,0.4-1,0.1-1.4,0.4c-1,0.9-1,2.3-0.8,4.3c0.1,0.8,0.2,1.6,0.3,2.5
		c-0.2,0.8-0.6,0.9-0.8,1.5c-0.2,0.5-0.4,2-0.8,2.4c-0.7-0.9-1.3-2.4-1.8-3.3c-1-1.8-1.4-1.3-2.7-0.4c-0.4,0.3-1.3,2.6-1.8,2.9
		c-0.6,0.3-0.1,2.4-0.6,3c-0.9,1.3-2.7,1.4-3.3,2.9c-0.7,1.4-0.3,6.1-1.2,6.8c-0.9,0.8-1,4.9-0.9,4.9c-0.1,0.4-2.7-1.8-3.5-1.1
		c-0.9,0.8-0.4,2.5-1.3,3.4c-1.8-1.6-3.8,1.3-2.7,4.6c1.3,5.1,3.2,3.5,5.5,3.4c0.9-0.1,1.8-0.1,2.7-0.3c0.6-0.1,2.1,0.8,2.7,0.8
		c0.7-0.1,1.2-1,1.9-0.3c1.3,1.4,0.4,0.9,2.2,0.3c0.9-0.3,1.9-1.4,3-1.4c1.2,0,2.4,1.3,3.7,1.4c1.3,0,1.9-1.6,3-1.5
		c0.6,0.1,1.1,1,1.7,1.4c0.6,0.4,0.9,0.1,1.4,0.4c0.6,0.3,1.3,1.4,1.8,1.3c0.4-0.1,0.4-1.4,1-1.4c0.4,0,0.9,1.1,1.4,1.3
		c0.7,0.1,0.8-0.4,1.3-0.9c0.8-0.8,1.6-2.5,2.7-1.4c0.8,1,0.9,4.6,1.8,5.3c0.6,0.4,2.1-1.8,2.3-2.8c0.7-2.1,0.2-6.5,0.8-8.8
		c0.1,0.1,0.1,0.3,0.2,0.3c0.4,0.3,1.2-0.8,1.8-1.6c1.4,0.3,3.1,1.5,4.2,0.1c1.2-1.5,2.3-0.1,4.1,1.3c1.1,0.8,2.4-0.8,3.5-1.5
		c0.7,0.5,1.4,1.3,1.8,0.9c0.1-0.1,0.1-0.1,0.1-0.3c0.9,1.6,1.3,5.5,2.2,7.1c0.4,0.8,2,2.3,2.4,1.5c0.7-0.9,0.1-4,0.7-5
		c0.7-1.3,1.7,0,2.4,0.4c0.4,0.1,0.7,0.8,1.2,0.3c0.3-0.3,0.6-1.4,1-1.4c0.4-0.1,0.7,1,1.1,0.9c0.4-0.1,0.9-1.3,1.3-1.6
		c0.4-0.4,0.8-0.3,1.2-0.9c0.3-0.4,0.7-1.4,1.1-1.6c0.9-0.5,1.7,0.8,2.8,0.4c1-0.4,1.9-1.8,2.9-2.3c1-0.4,1.9,0.3,2.8,0.3
		c1.6-0.1,0.9-1.5,1.8-3c0.4-0.9,2.1-1.5,2.7-1.6c0.4-0.1,0.9,0.1,1.3,0.1c0.8-0.1,1.4-1,2.2-1.1c2-0.5,4,0.3,4.2-4.4
		C213.4,227.9,212.2,228.4,211.2,228z"/>
	<ellipse class="st15" cx="156.7" cy="243.9" rx="143.1" ry="21.1"/>
	<path class="st16" d="M105,238.6c0,1.1,3,2.1,6.7,2.1s6.7-1,6.7-2.1s-3-2.1-6.7-2.1S105,237.4,105,238.6z"/>
	<ellipse class="st16" cx="179.6" cy="241" rx="6.7" ry="2.1"/>
	<path class="st16" d="M203.7,254.2c0,1.1,3,2.1,6.7,2.1s6.7-1,6.7-2.1c0-1.1-3-2.1-6.7-2.1C206.7,252,203.7,253,203.7,254.2z"/>
	<path class="st16" d="M195.3,241.5c0,1.1,4.3,2.1,9.8,2.1c5.3,0,9.8-1,9.8-2.1s-4.3-2.1-9.8-2.1S195.3,240.4,195.3,241.5z"/>
	<path class="st16" d="M230.3,252.9c0,1.1,4.3,2.1,9.8,2.1c5.3,0,9.8-1,9.8-2.1c0-1.1-4.3-2.1-9.8-2.1
		C234.6,250.6,230.3,251.6,230.3,252.9z"/>
	<ellipse class="st16" cx="92.4" cy="239.7" rx="4" ry="1.4"/>
	<g>
		<path class="st17" d="M122.7,166c-6.7-9-11.9-24.6-11.9-24.6l3.7-1.1c0,0,4,15,10.8,25C126.6,165.7,125,169.2,122.7,166z"/>
		<g>
			<path class="st17" d="M124.8,169.6c-0.6-0.8-1.8-3.5-1.8-3.5s0.2-2.6,1.1-2.1c0.3,0.1,3.4-0.5,3.7-0.5c0.3-0.1,0.3,1-0.1,1.4
				c-0.2,0.1-0.7,0.1-0.9,0.3c-0.1,0,0.4,1.1,0.6,1.4c0.2,0.3-0.3,1-0.9,2.1C125.7,170.2,125,169.8,124.8,169.6z"/>
			<path class="st17" d="M126.5,168.6c-0.4,0.1,0.8-1.8,0.7-1.1c-0.1,0.3,1.4,2,1.9,2.4c0.7,0.8,0.3,1.4-0.3,0.9
				C127.8,170,126.7,168.5,126.5,168.6z"/>
			<path class="st17" d="M125.7,169.5c-0.3,0.1,0.7-1.4,0.7-0.9c-0.1,0.4,1.3,2.1,2,2.6c0.6,0.4,0.1,1-0.4,0.4
				C127.1,171,125.9,169.5,125.7,169.5z"/>
			<path class="st17" d="M127.5,166.5c0,0-0.8,1.1-0.4,1.1c0.1-0.1,1.6,1.4,2.1,2c0.4,0.4,1-0.4,0.3-1
				C128.6,167.8,127.5,166.5,127.5,166.5z"/>
			<path class="st17" d="M124.8,169.6c-0.4-0.8,0.9-0.3,0.9-0.1c0.1,0.3,0.8,1.1,1.2,1.8c0.3,0.4,0,0.8-0.2,0.4
				C126.1,171.1,125.3,170.3,124.8,169.6z"/>
		</g>
		<path class="st17" d="M110.3,232.5c-0.9-4.8,0.9-57.4,0.9-57.4l-8.8,1.4l2.8,17.9l-0.8,11.5l2,23.9
			C106.4,229.6,109,235.1,110.3,232.5z"/>
		<path class="st18" d="M103.3,193.1l-1.6-19l9-9.6c0,0,1.2,17.5,0.3,27.1L103.3,193.1z"/>
		<g>
			<path class="st19" d="M115.2,238.6c-1.1,0.8-8.4,0.1-8.7,0.1c-0.3-0.3-0.4-2-0.4-2l9.9,0.5C116.1,237.2,116.2,238.1,115.2,238.6z
				"/>
			<path class="st20" d="M115.4,238.1c-1.2,0.4-7.5,0.3-8.3,0c-0.6-0.1-1.1-0.9-1-2.4c0.1-1.3,0.3-3.3,0.3-4.4
				c0-2.8-1.6-5.4-1.3-10.5c0.8,0,5.7-0.1,5.7-0.1s-0.8,9.9-0.6,11.8c0.1,0.8,3.8,2.4,4.8,2.8C116.3,235.6,116.6,237.6,115.4,238.1z
				"/>
		</g>
		<path class="st17" d="M94.6,235.2c-0.4-4.9,7.9-57.5,7.9-57.5l-9.4-0.4l1.4,18.9l-3,10.9l-0.2,19.1
			C91.2,226.2,95.2,241.1,94.6,235.2z"/>
		<g>
			<path class="st19" d="M94.2,240.6c-0.8,0.3-3.1,0.1-4.1-0.8c-0.6-0.4-0.2-2-0.2-2l4.9,0.8C95,238.6,95.2,240.2,94.2,240.6z"/>
			<path class="st20" d="M90,238c0-1.6,1.4-4.3,1.6-5.6c0.2-2.6-0.6-4.8-0.2-10.1c0.8,0.1,5.1,0.8,5.1,0.8s-1.2,8.6-1.2,10.5
				c0,0.8,0,4.4-0.2,5.6C94.6,240.2,90,239.5,90,238z"/>
		</g>
		<path class="st21" d="M94,165.2c0.4-6,1.8-10.9,1.8-10.9c0.3,0,9.3-4.1,9.3-4.1s3.8,4.6,4.9,6.1c0,0,0.9,2.4,0.9,8.4
			c0,6.1-6.1,10.9-7.7,11C97.3,175.3,93.5,171.1,94,165.2z"/>
		<path class="st22" d="M104.1,91.9c9.1,0,16.4,7.5,16.4,10s-4.3,1-8.8,2.1c0-0.3-0.1-1.1-0.1-1.5c0-3.5-2.7-6.4-7.9-6.4
			s-8.7,3.8-8.7,7.3c0,0.3-7.5,0.5-7.5-1.5C87.7,99.8,95,91.9,104.1,91.9z"/>
		<path class="st23" d="M101.1,119c4.2,1.1,9.7-8,11.1-11.6c1.6-4,1.7-12.1,1.7-12.1s-17.7-5-18.4,0.1c-0.1,1.1-0.8,4-0.9,5
			C93.9,109.5,98.4,118.3,101.1,119z"/>
		<path class="st24" d="M112.7,128.1c-0.1-1.1-3.2-3.8-3.2-3.8l0.7,18l1.7,4.1l4.1-2.8C115.9,144,112.8,129.3,112.7,128.1z"/>
		<path class="st18" d="M93.5,162.8l2.2-8.6c0,0-0.8-11-0.8-13.1c0-5.6,0.8-15.8,2.3-16.6c1.6-0.8,2.2-1.4,2.2-1.4l3.7,3.3l3.3-2.6
			c0,0,1.3,0,2.9,0.9c1.6,0.8,3.2,10,2.3,17.4c-0.2,2.3-0.7,12.9-0.7,12.9l0.7,8l-3.1,2.8l-2.6-5.9l-2.1,6.3L93.5,162.8z"/>
		<path class="st17" d="M106.5,123.7c-0.1,3.8-0.4,8.5-0.4,8.5s-4.3-5.1-6.2-8.5c1.2-0.3,1.8-4.4,0.8-7.1s6.1-0.5,5.2,0.8
			C105,118.6,105.3,123.5,106.5,123.7z"/>
		<path class="st25" d="M105.7,122.7c-2.1-1.1-3.1-4.4-3.1-7.5c1.7,0.3,3.8,1.3,3.2,2C105.2,118.2,105.2,121.2,105.7,122.7z"/>
		<path class="st17" d="M97.2,109.3c0,5.6,4.9,11.4,9,11.4c2.6,0,4.8-4.9,5.8-9.9c1.2-6.5,0.4-15.4,0.4-15.4c0-3.3-2-5.9-4.5-5.9
			h-6.5c-2.6,0-4.5,2.6-4.5,5.9L97.2,109.3z"/>
		<path class="st17" d="M99,107.4c0,1.5-0.4,2.8-1.7,2.8c-1.2,0-2.3-1.6-2.3-3.3c0-1.5,0.3-3.4,1.8-2.4
			C97.7,105.3,99,105.9,99,107.4z"/>
		<path class="st23" d="M112.9,94.6c0.4,2.9,0.7,5.5,0.7,5.5l-0.9,3c0,0,0.1-3.3-1.9-4.1c-2-1-11.2-0.8-12.2,2.1
			c-0.7,1.6,0.3,6.4,0.3,6.4l-0.8,0.5c0,0-1-1.4-1.8-5c-0.4-2.1-0.2-5.9,0-8.5h16.6C112.9,94.4,112.9,94.6,112.9,94.6z"/>
		<polygon class="st25" points="106.3,109.1 107.3,110.7 107.2,105.3 		"/>
		<path class="st26" d="M102.1,104.3c0,0.5,0.3,1,0.8,1c0.4,0,0.8-0.4,0.8-1s-0.3-1-0.8-1S102.1,103.7,102.1,104.3z"/>
		<path class="st26" d="M109,104.3c0,0.5,0.3,1,0.8,1c0.4,0,0.8-0.4,0.8-1s-0.3-1-0.8-1S109,103.7,109,104.3z"/>
		<path class="st27" d="M104.5,113c0,2.4,1.4,2.8,2.1,2.8c0.8,0,2.4-0.4,2.4-2.8H104.5z"/>
		<path class="st21" d="M100.4,195.9l4.5-24.6l-10.8-7c0,0-2.1,15.8-1.7,30L100.4,195.9z"/>
		<path class="st21" d="M94.8,95.1c0.1-1.8,1-11,9.2-11s9,9.1,9,11H94.8z"/>
		<path class="st28" d="M112.6,92.6c0.2,1.1,0.2,2.1,0.3,2.5H94.8c0-0.4,0.1-1.3,0.3-2.4c0.1-0.4,2.4-2.6,7.4-2.6
			S112.6,92.2,112.6,92.6z"/>
		<path class="st21" d="M104.1,91.9c9.1,0,16.4,7.5,16.4,10c-1-0.5-11.1-2.3-16.2-2.3s-14,0.5-16.5,2.3
			C87.7,99.8,95,91.9,104.1,91.9z"/>
		<polygon class="st24" points="99.5,123.1 101.5,129.2 106.1,132.2 101,121.6 		"/>
		<polygon class="st24" points="108.8,123.7 107.4,130.3 106.1,132.2 106.5,123.1 		"/>
		<g>
			<path class="st24" d="M106,159.7c0,0-0.1-1.6-0.1-4.3c0-1.3-0.1-2.8-0.1-4.4s0-3.4,0-5.1c0-1.6,0-3.5,0-5.1s0.1-3.3,0.1-4.4
				c0.1-2.6,0.1-4.3,0.1-4.3s0.1,1.6,0.1,4.3c0,1.3,0.1,2.8,0.1,4.4s0,3.4,0,5.1c0,1.6,0,3.5,0,5.1s-0.1,3.3-0.1,4.4
				C106.1,158.1,106,159.7,106,159.7z"/>
		</g>
		<path class="st17" d="M85.5,162.1c1.3-12.5,7.5-27.6,7.5-27.6l2.9,3.3c0,0-6.5,13.3-8.3,26.6C88,166.1,85.1,166.6,85.5,162.1z"/>
		<g>
			<path class="st17" d="M84.7,166.7c0.1-1.1,1-3.9,1-3.9s1.7-1.4,2-0.1c0.1,0.5,2.3,3.4,2.6,3.5c0.3,0.3-0.3,1-0.9,0.8
				c-0.2-0.1-0.4-0.5-0.7-0.8c-0.1-0.1-0.4,1.1-0.4,1.5s-0.8,0.3-1.8,0.3C84.9,167.8,84.5,167,84.7,166.7z"/>
			<path class="st17" d="M86.2,167.7c-0.3-0.4,1.6-0.1,1.1,0c-0.2,0.1-0.3,2.6-0.3,3.5c0,1.3-0.7,1.1-0.7,0.1
				C86.2,170,86.4,168,86.2,167.7z"/>
			<path class="st17" d="M85.2,167.5c-0.2-0.3,1.2-0.1,1,0.3c-0.3,0.1-0.4,2.8-0.3,3.6c0,0.9-0.4,0.8-0.6-0.3
				C85.2,169.8,85.4,167.7,85.2,167.5z"/>
			<path class="st17" d="M88.1,167.3c0,0-1.2-0.1-0.9,0.1c0.2,0.1,0.1,2.5,0.1,3.5c0,0.8,0.9,0.8,0.8-0.3
				C88,169.5,88.1,167.3,88.1,167.3z"/>
			<path class="st17" d="M84.7,166.7c0.1-1,0.7,0.8,0.6,1s-0.2,1.5-0.3,2.4c-0.1,0.5-0.4,0.4-0.4,0
				C84.5,169.1,84.5,167.5,84.7,166.7z"/>
		</g>
		<path class="st24" d="M95,127.6c1.2-3.3,2.3-3.3,2.3-3.3s3.2,3.3,1,8.9c-1.8,4.4-4.1,9.6-4.1,9.6l-3.3-2.9
			C90.9,140.1,94.1,129.8,95,127.6z"/>
		<path class="st23" d="M103.3,101.8c-0.1,0.3-1.7-0.3-2.9,0.8c-0.2,0.3-0.6-0.5-0.3-1c0.8-1.1,3.1-1.5,3.3-1.3
			C103.6,100.4,103.4,101.3,103.3,101.8z"/>
		<path class="st23" d="M108.2,101.7c0.1,0.3,1.7-0.3,2.9,0.8c0.2,0.3,0.6-0.5,0.3-1c-0.8-1.1-3.1-1.5-3.3-1.3
			C107.8,100.2,108.1,101.2,108.2,101.7z"/>
	</g>
	<g>
		<path class="st14" d="M55.9,253.1c0,1.3-4.3,2.1-9.7,2.1s-9.7-1-9.7-2.1c0-1.3,4.3-2.1,9.7-2.1S55.9,252,55.9,253.1z"/>
		<path class="st14" d="M46.3,250.6c0,1.3-4.3,2.1-9.7,2.1s-9.7-1-9.7-2.1c0-1.3,4.3-2.1,9.7-2.1C42.1,248.5,46.3,249.5,46.3,250.6z
			"/>
		<path class="st14" d="M85.5,254.4c0,1.3-4.3,2.1-9.7,2.1c-5.3,0-9.7-1-9.7-2.1c0-1.3,4.3-2.1,9.7-2.1
			C81.3,252.2,85.5,253.2,85.5,254.4z"/>
		<path class="st14" d="M88.1,247.4c0,0.8-2.1,1.4-4.8,1.4c-2.7,0-4.8-0.5-4.8-1.4c0-0.8,2.1-1.4,4.8-1.4S88.1,246.6,88.1,247.4z"/>
		<g>
			<path class="st29" d="M92.4,143c2.7-0.1,4.4-5,4.4-5s-1.2-1.5-3.1-3c-0.2-0.1-0.9,0.1-0.9,0.1s-0.1-0.9-0.3-1
				c-0.7-0.4-1.3-0.9-2-1.3c-0.2-0.1-0.9,2-0.9,2s0.2-2.3,0.1-2.4c-0.2-0.1-0.3-0.1-0.6-0.3c-0.1,0-0.3,0.9-0.3,0.9s-0.1-1-0.2-1
				c-2.1-0.8-4.3-0.9-6.8,0c-0.1,0-0.3,1.3-0.3,1.3s-0.4-1-0.5-1c-2.2,1-3.9,2.9-5.1,5.3c-0.1,0.1,0.1,0.8,0.1,0.8s-0.3-0.1-0.4-0.1
				c-1,2.1-1.8,4.4-2.3,7.1c0,0.1,1.2,1.1,1.2,1.1s-1.4-0.4-1.4-0.3c0,0.3-0.1,0.5-0.1,0.9c0,0.1,0.6,0.5,0.6,0.8
				c0,0.3-0.7,0-0.8,0.1c-1.6,10-0.3,20.9-0.3,20.9l11-26.6C83.3,142,89.8,143.1,92.4,143z"/>
			<path class="st30" d="M31.9,247.9c-0.2,2.3,1.9,3.4,2.3,0.8c0.4-2.6,3.4-16.1,5-22.4c9-3.8,12.2-13.5,12.2-13.5
				s-14-25.5-15.2-18.1c-2,12.3,1,20.8,1,20.8s-2.3,5-3.1,7.8C33.2,225.9,32.1,245.1,31.9,247.9z"/>
			<path class="st29" d="M34.7,245.5c-0.3,1.4-0.6,2.5-0.7,3c-0.4,2.6-2.6,1.5-2.3-0.8c0-0.5,0.1-1.6,0.2-3.3L34.7,245.5z"/>
			<path class="st31" d="M36.3,200.5L36.3,200.5c0.8,3.6,2.3,6.9,4.2,8.9c0.6,0.5,1.7,1.1,3.2,1.5c1.1,0.3,2.4,0.5,3.9,0.9l0,0
				c1.2,0.1,2.4,0.3,3.8,0.4c1.4,0.1,2.9,0.3,4.3,0.3c1.3,0,2.7,0.1,4.1,0.1c0.9,0,1.9,0,2.8,0l0,0c5.9,0,11.6-0.4,15.6-1l0,0
				c0.6-0.1,1.1-0.1,1.7-0.3c2-0.4,3.3-0.9,3.8-1.3c0.6-1,1.1-2.4,1.6-4.1c0.1-0.5,0.3-1.3,0.4-2c0.2-1.1,0.4-2.3,0.6-3.5
				c0.1-0.5,0.1-1.1,0.2-1.6c0.2-2.3,0.6-4.6,0.7-7.3c0-0.5,0.1-1.1,0.1-1.6c0.1-2.3,0.2-4.4,0.3-6.6c0-0.8,0.1-1.5,0.1-2.3
				c0.1-2.1,0.1-4,0.2-6c0-0.9,0-1.6,0-2.4c0-1.4,0-2.6,0-3.9c0-0.5,0-1.1,0-1.6c0-1.4,0-2.6,0-3.9c0-0.9,0-1.5,0-2.3
				c0-0.5,0-1.1,0-1.6c0-1.5,0-2.5,0-2.5s0.7,1.1,1.9,2c0.3,0.3,0.8,0.5,1.2,0.8l0,0c1.1,0.5,2.4,0.8,4.1,0c0,0,0.1,0.1,0.3,0.4
				c0.8,0.9,2.8,2.6,4.1,4c1.8,1.8,5.3-2.5,4.8-3.8c-0.2-0.4-1.7-3.5-3.8-7.1c-0.3-0.5-0.7-1.1-1-1.8c-0.6-1-1.2-2-1.9-3
				c-0.3-0.5-0.8-1.1-1.1-1.6c-1-1.4-2.1-2.9-3.2-4.1c-0.3-0.4-0.7-0.9-1-1.1c-1.4-1.5-3-2.8-4.4-3.5c-0.4-0.3-0.8-0.4-1.2-0.5
				c-0.7-0.3-1.2-0.3-1.8-0.3c-0.8,0-1.4,0.3-2.1,0.8c-0.6,0.3-1,0.9-1.6,1.4c-1.3,1.5-2.4,3.8-3.4,6.3c-0.4,1.1-0.8,2.3-1.2,3.4
				c-0.2,0.9-0.6,1.8-0.8,2.6c-0.3,1.4-0.7,2.6-1,4c-0.6,2.5-1,4.9-1.4,6.9l0,0c-0.3,1.6-0.6,3-0.7,4.1c-0.2,1.3-0.2,2-0.2,2
				l-1.6,2.4l-1.9,2.8l-1.2,1.8c0,0-0.3,0-0.9,0.1c-0.7,0.1-1.8,0.3-3.2,0.5c-1.3,0.3-2.8,0.5-4.4,1c-0.9,0.3-1.9,0.4-2.9,0.8
				c-1.2,0.3-2.4,0.8-3.7,1c-1,0.3-2.1,0.8-3.1,1c-1.8,0.8-3.4,1.4-5,2.1c-0.8,0.4-1.4,0.9-2.1,1.3c-1.1,0.8-2.2,1.5-3,2.4
				c-0.3,0.3-0.7,0.8-0.9,1c-0.8,1-1.4,2.3-1.8,3.5c-0.3,1.1-0.7,2.3-0.8,3.4C35.6,195.7,35.7,198.2,36.3,200.5z"/>
			<path class="st29" d="M102.2,156c1.3,2.4,2.1,4,2.2,4.4c0.6,1.3-3,5.5-4.8,3.8c-0.6-0.5-1.2-1.3-1.9-1.8
				C96.9,161.6,100.5,157,102.2,156z"/>
			<path class="st32" d="M85.5,170.5c0.3,6.8,0.4,13.8,1.8,20.4c1.1-15.4,0.8-33.8,0.8-33.8s2.7,4.4,7.1,2.8c0,0,2.7,2.6,4.5,4.3
				c1,1,2.4,0.1,3.4-1c-0.9,0-1.9-0.1-2.8-0.8c-2.3-1.3-3.4-4.8-6-5.5c-2.1-0.8-3.7-0.9-5.3-2.8c-0.2-0.3-0.4-0.5-0.7-1
				c-0.4-0.9-0.8-1.6-1-2.6c-0.2-0.8-0.3-1.5-0.6-2.3c-0.2,1.1-0.3,2.4-0.4,3.5c-0.1,1.3-0.1,2.4-0.2,3.6c0,0.8-0.1,1.3-0.1,2
				C85.7,161.8,85.3,166,85.5,170.5z"/>
			<path class="st31" d="M81.7,137.3c-1.2-1.8-4-3.6-4.5-3.3c-0.6,0.5-0.3,5.5,2.3,7.3c1.4,1,3,0.9,3,0.9S83,139.1,81.7,137.3z"/>
			<path class="st27" d="M77.2,134.1c0.8-0.1,3.2,1.5,4.4,3.3c0.4,0.8,0.7,1.6,0.8,2.5C81.3,137.1,79.4,135.1,77.2,134.1z"/>
			<path class="st33" d="M77.1,134.5c-0.6,0.4,0.2,4.8,1.6,6c1,0.9,2.7,1.3,3.3,0.8C79.8,139.2,77.7,134.1,77.1,134.5z"/>
			<path class="st31" d="M43.8,210.1c2.7,1.6,9.9,3,17.6,3.8l3.7,0.3c2.9,0.1,5.8,0.1,8.4,0l0,0c1.3,0,2.6-0.1,3.7-0.3
				c2.4,1.4,8.5,5.3,8.5,7.8c0,3-3.9,13.1-5,16c-1,2.5,0.7,3.8,1.8,1.4c0.9-1.8,8.4-14.9,8.5-18.6c0.1-2.6-3.4-9-5.5-12.6l0,0
				c0,0,0-0.1-0.1-0.1l0,0c0.1-1,0.2-1.8,0.3-2.8c0.1-0.8,0.1-1.4,0.2-2.3c-5.8-0.4-11.4-1.8-17.2-1.8c-5.3-0.1-10.6,0.3-16-0.3l0,0
				c-0.9-0.1-1.8-0.1-2.7-0.3c0,0,0,0-0.1,0c-4-0.5-8.5-2-11.3-6.1c-0.2-0.4-0.4-0.9-0.7-1.3C37.2,198.4,38.8,206.9,43.8,210.1z"/>
			<path class="st29" d="M81.9,234.7c0.6,0.8,1.2,1.3,1.9,1.8c-0.6,1.1-1,2-1.2,2.3c-1.1,2.4-2.8,1.1-1.8-1.4
				C81,236.9,81.4,235.9,81.9,234.7z"/>
			<path class="st31" d="M66.7,208.1c0.2,2.3,0.6,5,0.9,8c0.1,0.5,0.1,1.1,0.2,1.6c0.2,1.6,0.4,3.3,0.7,5c0.1,0.5,0.1,1.1,0.2,1.6
				c0.1,1.1,0.3,2.3,0.4,3.4c0.1,0.5,0.1,1.1,0.2,1.6c0.2,2,0.6,3.9,0.8,5.6c0.1,0.5,0.1,1.1,0.2,1.8c0.2,1.3,0.3,2.4,0.6,3.6
				c0.1,0.5,0.1,1,0.2,1.5c0.1,1,0.3,2,0.4,2.8c0.1,0.9,0.2,1.5,0.3,2.3c0.4,2.9,0.7,4.9,0.8,5.4c0.3,2.4,2.7,2.4,2.6,0
				c0-0.5-0.2-2.9-0.4-6.3c0-0.5-0.1-1.1-0.1-1.8c-0.6-10-1.6-26.6-1.1-35.8C74,195.5,65.5,196.7,66.7,208.1z"/>
			<path class="st31" d="M71.8,229c-0.2-5.4-0.1-11,1.6-15.6c0,14.1,1.7,37,1.8,39.1c0,1.1-0.4,1.6-1,1.8
				C72.6,245.9,72.1,237.4,71.8,229z"/>
			<path class="st29" d="M72,248.5c0.2,2.1,0.4,3.5,0.6,3.9c0.3,2.4,2.7,2.4,2.6,0c0-0.4-0.1-1.8-0.2-3.9H72z"/>
			<path class="st31" d="M43.4,215.1c0.4,0.9,0.7,1.3,0.7,1.3s-0.2,0.9-0.4,2c-0.2,1-0.4,2.1-0.7,3.4c-0.1,0.8-0.3,1.4-0.4,2.1
				c-0.2,1.1-0.3,2.3-0.4,2.9c0,0.1,0,0.3,0,0.5c0,0.5,0,1.4,0.1,2.4c0.1,1.3,0.2,2.9,0.3,4.8c0.1,0.8,0.1,1.5,0.2,2.3
				c0.1,1.1,0.2,2.3,0.3,3.4c0.1,0.9,0.1,1.5,0.2,2.4c0.1,1.3,0.2,2.5,0.3,3.8c0.1,0.9,0.1,1.5,0.2,2.3c0.1,1.5,0.3,2.8,0.3,3.4
				c0.2,2.3,2.3,2.6,2.3,0c0-2.6,0.7-16.8,1-23.3c4.8-3.8,7.2-8.8,8.4-12.4c0.3-1,0.6-1.8,0.8-2.5c0.3-1.3,0.4-2.1,0.4-2.1
				s-3.3-2.6-7.1-5.3c-2-1.4-4-2.6-5.9-3.6c-3.3-1.8-5.8-2.4-5.2,0.4C40.1,208,42.3,212.9,43.4,215.1z"/>
			<path class="st29" d="M46.6,248.2c0,1.5-0.1,2.6-0.1,3.3c0,2.6-2.2,2.3-2.3,0c0-0.5-0.1-1.6-0.3-3.3H46.6z"/>
			<path class="st34" d="M101.6,158.8c0,0.8-0.2,1.4-0.2,1.4s-0.3-0.5-0.3-1.3c0-0.3,0.1-1,0.2-1C101.4,158,101.6,158.5,101.6,158.8
				z"/>
			<path class="st29" d="M91.9,147.2c0,0.4,0.2,0.9,0.6,0.9c0.3,0,0.6-0.4,0.6-0.9c0-0.4-0.2-0.9-0.6-0.9
				C92.1,146.6,91.9,146.8,91.9,147.2z"/>
			<path class="st35" d="M82,141.1c0,0-1.3,1-2.3,0.4c-0.1,0-0.2-0.1-0.3-0.1c-1.6-1-2.3-3.4-2.6-5C78,138.8,79.7,140.7,82,141.1z"
				/>
			<path class="st36" d="M91.1,159.7c1.1,0.5,2.4,0.8,4.1,0c0,0,0.1,0.1,0.3,0.4c0.7-0.8,1.2-1.4,1.7-2c0.8-1.1,2.6-3,3.3-5
				c-0.3-0.5-0.7-1.1-1-1.8c-1.1,1-2,3-2.8,4c-1,1.3-2,2.5-3.2,3.3C92.8,159.2,91.9,159.3,91.1,159.7z"/>
			<path class="st36" d="M87.8,159.6c0.1,0,0.2,0,0.3,0c0-1.5,0-2.5,0-2.5s0.7,1.1,1.9,2c1.9-0.9,3.8-2.6,5-4.3c1-1.4,1.6-3,2.2-4.8
				c0.2-0.5,0.4-1,0.7-1.5c-0.3-0.5-0.8-1.1-1.1-1.6c-0.9,1.3-1.6,3.6-2.1,4.8c-1.8,3.3-4.3,4.3-6.9,5.6
				C86.7,157.8,86.8,159.5,87.8,159.6z"/>
			<path class="st36" d="M86.3,155.6c0.8-0.5,1.6-1.4,2.2-2.3c0.9-1.3,1.7-2.6,2.3-3.9c1-1.8,1.9-4.3,2.4-6.6
				c-0.3-0.4-0.7-0.9-1-1.1c-1.2,1.1-1.7,3.8-2.4,5.3c-0.7,1.4-1.4,2.6-2.2,3.8c0,0,0,0-0.1,0.1c-0.3,0.4-0.6,0.9-0.9,1.1
				C86.4,153.1,86.4,154.3,86.3,155.6z"/>
			<path class="st36" d="M84.8,150.6c2.8-3.3,3.7-7.9,3.1-12.5c-0.4-0.3-0.8-0.4-1.2-0.5C86.5,141.5,86.2,147.1,84.8,150.6z"/>
			<path class="st36" d="M76.6,149c1.3,2.4,2.8,4.6,4.2,6.6c1.9,2.6,4.4,6.8,7.3,7.9c0-0.9,0-1.5,0-2.3c-0.9-1-1.8-1.8-2.7-2.8
				c-1.3-1.8-2.7-3.6-3.9-5.5c-0.4-0.9-1-1.6-1.4-2.5c0.2,0,0.3-0.1,0.6-0.3c1.6-1.5,2.3-3.8,2.3-6.3c0-1.4,0.1-4.1-0.4-5.9
				c0.4,5.5-3.5,10.3-3.5,10.3c-0.4-0.9-0.9-1.6-1.3-2.6C77.3,146.7,76.9,147.8,76.6,149z"/>
			<path class="st36" d="M74.8,155.6c0.7,1.1,1.3,2.1,2.1,3c1.4,2,3.2,3.6,4.8,5.4c1.7,2.1,4,4.9,6.4,4.8c0-0.5,0-1.1,0-1.6
				c-2.9-1.8-4.9-5-7.2-7.9c-1.9-2.4-3.3-5.3-5.1-7.8C75.5,153,75.1,154.3,74.8,155.6z"/>
			<path class="st36" d="M72.7,166.7c1.9,2.5,4,4.8,6.4,6c2.2,1.3,6,3,8.8,2.5c0-0.9,0-1.6,0-2.4c-3.2-0.3-6.5-1.6-9.3-4
				c-2.1-1.8-3.8-3.9-5.3-6.3C73,164.2,72.8,165.7,72.7,166.7z"/>
			<path class="st36" d="M69,173.7c1.4,1.5,3,3,4.7,4.3c2.2,1.6,4.4,2.5,6.8,3.5c1.4,0.5,5,2.6,7.3,2.1c0-0.8,0.1-1.5,0.1-2.3
				c-2.8,0-5.3-2.3-8-3.4c-3.4-1.4-6.2-4-9-6.9L69,173.7z"/>
			<path class="st36" d="M63.7,176.2c0.7,0.9,1.2,1.6,1.9,2.5c0.2,0.4,0.3,0.8,0.4,0.9c0.7,1.3,1.4,2.6,2.2,3.8c2,3,4,6.1,6.3,8.6
				c2.2,2.4,4.5,4.3,7,6.1c1.6,1.1,3.1,2.3,4.9,2.5c0.1-0.5,0.1-1.1,0.2-1.6c-4.5-3.3-8.9-6.9-12.5-11.8c4,2.5,8.9,4.8,13.3,4.6
				c0-0.5,0.1-1.1,0.1-1.6c-1.9-1-3.9-1.5-5.8-2.4c-2.7-1.1-5.3-2.5-7.8-4.3c-2.7-2.1-4.8-4.9-6.9-7.8
				C66.2,175.8,65.1,176,63.7,176.2z"/>
			<path class="st36" d="M56.4,177.8c0.6,1.1,1.1,2.1,1.7,3.3c2.6,4.6,5.2,9.1,8.3,13c3,3.8,6.2,7.1,10,9.3c2.6,1.5,6,2.9,9,2.5
				c0.1-0.5,0.3-1.3,0.4-2c-3.3-1.1-6.5-1.6-9.7-4c-3.4-2.5-6.3-6.1-9-9.9c-2.8-4-5.3-8.5-7.8-12.9
				C58.4,177.3,57.4,177.5,56.4,177.8z"/>
			<path class="st36" d="M79.1,215c0.7,0.4,1.4,1,2.2,1.5c1.4-1,2.8-2.5,3.5-4.1c0.2-0.4-0.2-1.1-0.6-0.9
				C82.7,213,81,214.2,79.1,215z"/>
			<path class="st36" d="M84.1,218.9c0.4,0.4,0.9,1,1.2,1.4c0.9-0.9,1.6-1.8,2-2.6c0.1-0.4-0.1-1-0.4-0.9
				C85.9,217.4,85.1,218.1,84.1,218.9C84.2,218.9,84.1,218.9,84.1,218.9z"/>
			<path class="st36" d="M84.9,225.9c0.1,0,0.3-0.1,0.4-0.1c1-0.4,1.9-1,2.7-2c0.1-0.3,0-0.8-0.2-0.8c-0.8,0-1.6,0.4-2.3,0.8l0,0
				C85.3,224.4,85.1,225.1,84.9,225.9z"/>
			<path class="st36" d="M83.3,230.6c1.1-0.1,2.2-0.5,2.8-1.5c0.1-0.3-0.1-0.8-0.3-0.8c-0.6-0.1-1.1,0-1.7,0l0,0
				C83.9,229.1,83.7,230,83.3,230.6z"/>
			<path class="st36" d="M82.1,234.2c0.4,0.1,0.9,0.1,1.2,0.1c0.6,0,1.1,0.1,1.7,0c0.2-0.5,0.6-1,0.8-1.5c-0.9-0.3-1.8-0.1-2.7-0.4
				c-0.1,0-0.2-0.1-0.3-0.1C82.6,233,82.3,233.7,82.1,234.2z"/>
			<path class="st36" d="M71.6,244.7c0.1,0.9,0.2,1.5,0.3,2.3c1,0,2.1-0.4,2.9-0.9c0-0.5-0.1-1.1-0.1-1.8c-0.9,0.1-1.9,0.4-2.8,0.4
				C71.8,244.7,71.7,244.7,71.6,244.7z"/>
			<path class="st36" d="M70.9,240.5c0.1,0.5,0.1,1,0.2,1.5c0.7,0,1.4,0.1,2.1-0.1c0.3-0.1,0.3-0.8,0-0.9
				C72.5,240.7,71.7,240.6,70.9,240.5z"/>
			<path class="st36" d="M70.1,235.2c0.1,0.5,0.1,1.1,0.2,1.8c0.7,0,1.2,0,1.9-0.1c0.4-0.1,0.4-1.3,0-1.4
				C71.6,235.2,70.9,235.2,70.1,235.2z"/>
			<path class="st36" d="M69.1,227.9c0.1,0.5,0.1,1.1,0.2,1.6c0.8-0.1,1.4-0.3,2.1-0.5c0.6-0.3,0.4-1.3-0.1-1.3
				C70.6,227.6,69.9,227.7,69.1,227.9z"/>
			<path class="st36" d="M68.5,222.9c0.1,0.5,0.1,1.1,0.2,1.6c1.3-0.3,2.7-0.9,3.3-1.3c0.3-0.3,0.1-0.8-0.1-0.9
				C70.7,222.4,69.6,222.9,68.5,222.9z"/>
			<path class="st36" d="M67.6,216.2c0.1,0.5,0.1,1.1,0.2,1.6c0.2,0,0.4,0,0.7-0.1c0.9-0.1,1.8-0.3,2.6-0.9c0.3-0.3,0.1-1-0.2-1
				C69.7,216,68.7,216.2,67.6,216.2L67.6,216.2z"/>
			<path class="st36" d="M73.8,214.1c1.2,0,2.3-0.1,3.4-0.3c0,0,0.1,0,0.2,0.1c0.2-0.1,0.3-0.3,0.6-0.4c1.1-1,2.2-2.1,2.9-3.5
				c0.1-0.3-0.1-0.4-0.2-0.4c-1.1,0.8-2,2-3.1,2.6c-1.1,0.9-2.3,0.9-3.4,1.5C73.9,214,73.8,214,73.8,214.1z"/>
			<path class="st36" d="M49.6,179.8c0.9,4.1,3.4,8.1,5.2,11.6c2,3.6,4,7.3,6.3,10.5c2.3,3.5,6.1,8.9,10,8.5c0.3,0,0.4-0.8,0.1-0.8
				c-2.2-0.5-4.2-3.4-5.8-5.4c-1.4-2-2.8-3.9-4-6c-0.7-1.1-1.3-2.4-2.1-3.5c2.4,3.4,5,6.4,8.1,8.6c3,2,6.7,5.1,10,4.6
				c0.3,0,0.4-0.8,0.1-0.9c-2.1-0.5-3.9-2.1-5.7-3.5c-1.6-1.3-3.3-2.3-4.9-3.5c-3.2-2.8-5.7-6.4-8-10.4c-2.2-3.6-4.3-7.4-6.3-11.1
				C51.7,179.2,50.6,179.5,49.6,179.8z"/>
			<path class="st36" d="M42.4,183.2c1.8,5.3,3.7,10.3,6.3,14.9c0.4,0.8,0.8,1.4,1.2,2.1c2.1,3.5,4.4,6.8,7,9.6c0.9,1,1.8,2,2.8,2.9
				c0.6,0.4,1.1,1,1.7,1.3l3.7,0.3c0-0.1-0.1-0.1-0.2-0.3c-0.8-0.3-1.6-0.8-2.3-1.3l0,0c-2.7-1.8-4.9-5-6.9-7.8c-1-1.4-2-2.9-3-4.4
				l0,0c-1.4-2.3-2.7-4.4-3.8-6.8c-1.8-3.8-3.1-7.6-4.4-11.5C43.8,182.3,43.1,182.7,42.4,183.2z"/>
			<path class="st36" d="M36.3,200.5L36.3,200.5c1,2.8,2.3,5,4.4,7.3c1,1.1,2,2.3,3,3.3c2.1,2.1,4.4,3.8,7.1,4.4
				c0.3,0.1,0.6-0.5,0.2-0.9c-1.2-0.9-2.3-1.8-3.4-2.9l0,0c-1.9-2-3.5-4.1-5.3-6.1c-1.4-1.6-3-3.5-3.9-5.9c-0.7-2-1-4-1.8-5.9
				c-0.1-0.4-0.4-0.5-0.7-0.8C35.6,195.7,35.7,198.2,36.3,200.5z"/>
			<path class="st36" d="M44.1,216.4c0,0-0.2,0.9-0.4,2c0.8,0.4,1.6,0.9,2.3,1.1c1.3,0.3,3.1,0.1,3.7-1.8c0-0.1,0-0.4-0.1-0.4
				c-0.8-0.3-1.7-0.1-2.4-0.4c-0.8-0.3-1.6-0.8-2.3-1.1c-0.4-0.3-0.8-0.5-1.2-0.9C43.7,216,44.1,216.4,44.1,216.4z"/>
			<path class="st36" d="M42.5,223.7c0.1,0,0.2,0,0.3,0c1.4,0,2.9-0.3,4.1-1.3c0.2-0.1,0.1-0.9-0.1-0.9c-1.2,0.1-2.4,0.3-3.5,0
				c-0.1,0-0.2,0-0.3-0.1C42.7,222.4,42.6,223.1,42.5,223.7z"/>
			<path class="st36" d="M42,227.1c0,0.5,0,1.4,0.1,2.4c0.1,0,0.1,0,0.2,0c1.4-0.3,2.4-0.9,3.5-1.8c0.3-0.3,0.1-1.3-0.3-1
				C44.5,227.4,43.2,227.4,42,227.1z"/>
			<path class="st36" d="M42.4,234.2c0.1,0.8,0.1,1.5,0.2,2.3c1-0.3,1.7-0.8,2.4-1.5c0.6-0.5,0.1-1.6-0.6-1.1
				C43.9,234.2,43.2,234.2,42.4,234.2z"/>
			<path class="st36" d="M42.9,239.7c0.1,0.9,0.1,1.5,0.2,2.4c0.2-0.1,0.4-0.3,0.7-0.4c0.6-0.3,1.1-0.5,1.6-1
				c0.4-0.3,0.3-1.4-0.2-1.3S43.7,239.6,42.9,239.7z"/>
			<path class="st36" d="M43.6,245.9c0.1,0.9,0.1,1.5,0.2,2.3c0.7-0.1,1.3-0.9,1.9-1.4c0.4-0.5,0.2-1.6-0.4-1.4
				C44.7,245.5,44.2,245.6,43.6,245.9z"/>
			<path class="st31" d="M32.5,212.1h0.8c0,0-0.9-11.9,3.3-17.3c1-1.3,1.8-1.6,1.8-1.6s0-4.8-1.8-2.9
				C31.6,195.9,32.5,212.1,32.5,212.1z"/>
			<path class="st31" d="M33,212.1c0.2-3,0.2-6.3,0.3-9.4c0.1-3.3,1.6-7.8,4.1-8.8c-0.2,0.3-0.6,0.5-0.8,0.9
				c-4.2,5.3-3.3,17.3-3.3,17.3H33L33,212.1z"/>
			<path class="st29" d="M31.1,213.5c0.7-1.5,1.3-2,1.7-1.8c0.4,0.1,0.9,0.9,0.9,2.6c0,1.8-0.1,3.3-0.3,3.3c-0.1,0-0.2-0.3-0.2-0.9
				c-0.1,1.3-0.3,2.1-0.6,2.1c-0.1,0-0.2-0.8-0.2-1.8c-0.3,1.1-0.6,2-0.8,1.8c-0.2,0-0.1-1.1,0.1-2.6c-0.6,1.4-1,2.4-1.1,2.3
				c-0.1-0.1,0-1.1,0.3-2.4c-0.2,0.4-0.4,0.5-0.6,0.5C30.1,216.4,30.4,215,31.1,213.5z"/>
			<path class="st36" d="M36.7,190c2.1,4.1,4.5,7.9,7,11.8c0.1,0.3,0.2,0.4,0.4,0.8c2.2,3.5,4.5,6.9,7.3,9.9l0.1,0.1
				c1.3,1.4,2.8,2.8,4.4,3.4c0.3-1,0.6-1.8,0.8-2.5c-0.3-0.3-0.7-0.5-0.9-0.9c-1.7-1.5-3.3-3-4.8-5.1c-0.3-0.4-0.7-1-1-1.4
				c-1.7-2.5-3.2-5-4.8-7.5c-2.3-3.8-4.7-7.5-6.5-11.6c0-0.1-0.1-0.1-0.1-0.3C37.7,187.6,37.2,188.7,36.7,190z"/>
			<path class="st37" d="M45.1,233.5c-0.2-2.6-0.6-5.9,0.1-8.5c0.7-2.8,2.4-3.8,4.3-4.9c3.1-1.8,5.1-4.8,7.3-7.8
				c-0.7,3-2.9,10.5-9.3,15.5c-0.2,4.4-0.7,12.5-0.9,17.9C46.2,241.7,45.3,237.4,45.1,233.5z"/>
			<path class="st31" d="M73.5,214.1L73.5,214.1c0.2,0,0.2,0,0.3,0c1.2,0,2.3-0.1,3.4-0.3c0,0,0.1,0,0.2,0.1
				c0.4,0.3,1.1,0.8,1.7,1.1l0,0c0.7,0.4,1.4,1,2.2,1.5c1,0.8,2,1.5,2.8,2.4c0.4,0.4,0.9,1,1.2,1.4c0.3,0.4,0.4,1,0.4,1.4
				c0,0.5-0.1,1.3-0.3,2.3l0,0c-0.1,0.8-0.3,1.4-0.6,2.1l0,0c-0.2,0.9-0.4,1.6-0.8,2.5l0,0c-0.2,0.8-0.4,1.5-0.8,2.3
				c-0.2,0.5-0.4,1.1-0.6,1.6c-0.2,0.8-0.4,1.3-0.7,1.8c-0.6,1.4-1,2.6-1.3,3.4c-1,2.5,0.7,3.8,1.8,1.4c0.2-0.5,1.2-2.4,2.4-4.4
				c0.2-0.5,0.6-1,0.8-1.5c2.4-4.6,5.2-10.3,5.3-12.5c0.1-2.6-3.4-9-5.5-12.6l0,0l-0.1-0.1l0,0c0.1-1,0.2-1.8,0.3-2.8
				c0.1-0.8,1.1-8.9,1.1-9.6c-0.6,0-2.6,8.8-6,13.1C78.1,211.9,73.7,210.6,73.5,214.1z"/>
		</g>
	</g>
	<g>
		<path class="st38" d="M211.2,237.1c0.1,1.6-1.3,2.5-1.7,0.5c-0.3-2-2.6-11.9-3.7-16.5c-6.7-2.8-9-10-9-10s10.3-18.8,11.2-13.3
			c1.4,9-0.7,15.4-0.7,15.4s1.7,3.6,2.2,5.6C210.2,220.9,211,235.1,211.2,237.1z"/>
		<path class="st29" d="M209,235.4c0.2,1,0.3,1.8,0.4,2.3c0.3,2,1.9,1.1,1.7-0.5c0-0.4-0.1-1.3-0.2-2.4L209,235.4z"/>
		<path class="st39" d="M207.7,194.4c-1.8-5.1-4-5.3-7.7-6.4c-3.9-1.3-9.8,0.8-17.5,0.8s-8.4-18.8-8.4-18.8l-6.5,0.3
			c0,0-3.2,26.1,5.4,39.3c0.2,0.4,1.3,0.8,2.8,1c0.3,0.1,0.8,0.1,1.2,0.1c6.7,1,13.8,1.1,20.5,0.4c2.2-0.3,5.5-0.3,7.4-2.1
			c1.4-1.4,2.6-3.9,3.1-6.5C208.3,200.4,207.9,195.1,207.7,194.4z"/>
		<path class="st40" d="M167.5,185.1c0.7-0.4,1.2-0.5,1.9-0.5c2.1-0.1,3.8-1.6,4.3-4.3c0.6-2.5,0.6-5,0.4-7.5
			c-0.1-1.1-0.2-2-0.2-2.5c0-0.1,0-0.3,0-0.4l-6.5,0.3c0,0-0.9,7.1-0.4,15.6C167.2,185.5,167.3,185.2,167.5,185.1z"/>
		<path class="st41" d="M182.5,190.9c2.8,1,6.3,1.6,9.2,0.4c1.9-0.9,3.5-2.3,5-3.9c-3.7,0-8.4,1.1-14.3,1.1c-2.4,0-4.1-1.8-5.3-4.3
			C178.1,187.4,180.2,190,182.5,190.9z"/>
		<path class="st40" d="M192.9,211c-2-3.5-5.3-2-7.5,0.3c2.6,0.1,5.1,0.1,7.7,0C192.9,211.1,192.9,211.1,192.9,211z"/>
		<path class="st39" d="M171.3,203.7c0.1,0.5,0.1,1.1,0.2,1.6c0.1,0.8,0.2,1.4,0.2,2.1l0,0c0,0,0,0-0.1,0.1l0,0
			c-1.6,2.8-4.2,7.4-4.1,9.3c0.1,2.8,5.8,12.4,6.3,13.8c0.8,1.8,2,0.9,1.3-1c-0.9-2.1-3.7-9.6-3.7-11.8c0-1.8,4.4-4.6,6.3-5.6
			c0.9,0.1,1.8,0.1,2.7,0.3l0,0c0.6,0,1.1,0,1.7,0C182.1,212.4,174.8,203.5,171.3,203.7z"/>
		<path class="st29" d="M174.3,227.5c-0.4,0.5-0.9,1-1.3,1.4c0.4,0.9,0.8,1.4,0.9,1.6c0.8,1.8,2,0.9,1.3-1
			C175,229.1,174.6,228.2,174.3,227.5z"/>
		<path class="st39" d="M185.5,207.9c-0.2,1.6-0.4,3.6-0.7,5.9c0,0.4-0.1,0.9-0.1,1.3c-0.1,1.1-0.3,2.4-0.4,3.6
			c-0.1,0.4-0.1,0.9-0.2,1.3c-0.1,0.9-0.2,1.6-0.3,2.4c0,0.4-0.1,0.9-0.1,1.3c-0.2,1.4-0.4,2.8-0.6,4.1c-0.1,0.4-0.1,0.9-0.2,1.3
			c-0.1,1-0.2,1.8-0.3,2.6c0,0.4-0.1,0.8-0.1,1.1c-0.1,0.8-0.2,1.4-0.3,2.1c-0.1,0.5-0.1,1.1-0.2,1.6c-0.3,2.1-0.6,3.6-0.6,4
			c-0.2,1.8-2,1.6-1.9,0c0-0.4,0.1-2.1,0.3-4.6c0-0.4,0-0.9,0.1-1.3c0.4-7.4,1.1-19.8,0.9-26.4C180.2,198.6,186.4,199.5,185.5,207.9
			z"/>
		<path class="st31" d="M181.7,223.1c0.1-4,0.1-8.1-1.2-11.6c0,10.4-1.2,27.4-1.2,28.9c0,0.9,0.3,1.3,0.8,1.3
			C181.2,235.6,181.5,229.5,181.7,223.1z"/>
		<path class="st29" d="M181.5,237.6c-0.2,1.5-0.3,2.5-0.4,2.9c-0.2,1.8-2,1.6-1.9,0c0-0.3,0.1-1.4,0.2-2.9H181.5z"/>
		<path class="st39" d="M202.7,212.9c-0.3,0.5-0.4,1-0.4,1s0.1,0.5,0.3,1.5c0.1,0.8,0.3,1.5,0.6,2.4c0.1,0.5,0.2,1.1,0.3,1.5
			c0.1,0.9,0.3,1.6,0.3,2.3c0,0.1,0,0.3,0,0.4c0,0.4,0,1-0.1,1.8c-0.1,1-0.1,2.1-0.2,3.5c0,0.5-0.1,1.1-0.1,1.6
			c-0.1,0.9-0.1,1.6-0.2,2.5c0,0.5-0.1,1.1-0.2,1.6c-0.1,1-0.2,2-0.2,2.8c-0.1,0.5-0.1,1.1-0.2,1.6c-0.1,1.1-0.2,2-0.2,2.4
			c-0.1,1.6-1.8,2-1.8,0s-0.4-12.4-0.8-17.3c-3.4-2.8-5.3-6.5-6.2-9.1c-0.2-0.8-0.4-1.3-0.6-1.8c-0.2-1-0.3-1.5-0.3-1.5
			s2.4-2,5.2-3.9c1.4-1,3-2,4.3-2.6c2.4-1.3,4.3-1.6,3.9,0.3C205.1,207.7,203.6,211.4,202.7,212.9z"/>
		<path class="st29" d="M200.4,237.4c0,1.1,0.1,2,0.1,2.4c0,2,1.7,1.6,1.8,0c0-0.4,0.1-1.3,0.2-2.4H200.4z"/>
		<path class="st39" d="M210.8,210.6h-0.7c0,0,0.7-8.8-2.4-12.8c-0.8-1-1.3-1.3-1.3-1.3s0-3.5,1.3-2.1
			C211.3,198.7,210.8,210.6,210.8,210.6z"/>
		<path class="st42" d="M210.3,210.6c0.2-2.3,0.1-4.6,0-6.8c-0.1-2.4-1.4-5.9-3.3-6.5c0.2,0.1,0.3,0.4,0.6,0.8
			c3.1,3.9,2.4,12.8,2.4,12.8h0.3V210.6z"/>
		<path class="st29" d="M211.8,211.6c-0.4-1.1-1-1.4-1.2-1.4c-0.3,0.1-0.7,0.8-0.7,2c0,1.4,0.1,2.4,0.3,2.4c0.1,0,0.1-0.3,0.2-0.5
			c0.1,1,0.2,1.5,0.3,1.5s0.2-0.5,0.2-1.4c0.2,0.9,0.4,1.4,0.6,1.4s0.1-0.9-0.1-2c0.4,1.1,0.8,1.6,0.9,1.6c0.1-0.1,0-0.9-0.2-1.8
			c0.2,0.3,0.3,0.4,0.3,0.4S212.2,212.9,211.8,211.6z"/>
		<path class="st40" d="M201.5,226.6c0.1-2,0.4-4.3-0.1-6.3c-0.6-2.1-1.8-2.8-3.2-3.6c-2.3-1.4-3.8-3.5-5.4-5.6
			c0.4,2.3,2.1,7.8,6.9,11.4c0.2,3.4,0.4,9.1,0.7,13.1C200.6,232.6,201.2,229.4,201.5,226.6z"/>
		<path class="st40" d="M180.5,212.2L180.5,212.2c-0.1,0-0.2,0-0.3,0c-0.9,0-1.8-0.1-2.6-0.1c0,0-0.1,0-0.1,0.1
			c-0.3,0.3-0.8,0.4-1.2,0.9l0,0c-0.6,0.3-1.1,0.8-1.7,1.1c-0.8,0.5-1.4,1.1-2.1,1.6c-0.3,0.4-0.7,0.8-0.9,1.1
			c-0.2,0.4-0.3,0.8-0.3,1c0,0.4,0.1,1,0.2,1.6l0,0c0.1,0.4,0.2,1,0.4,1.5l0,0c0.2,0.5,0.3,1.3,0.6,1.8l0,0c0.2,0.5,0.3,1.1,0.6,1.6
			c0.1,0.4,0.3,0.9,0.4,1.3c0.2,0.4,0.3,1,0.6,1.4c0.4,1.1,0.8,2,1,2.5c0.8,1.8-0.4,2.8-1.3,1c-0.2-0.4-0.9-1.6-1.8-3.4
			c-0.2-0.4-0.4-0.8-0.7-1.1c-1.8-3.4-3.9-7.5-4-9.3c-0.1-2,2.6-6.6,4.1-9.3l0,0l0.1-0.1l0,0c-0.1-0.8-3.3-6.5-4.2-15.5
			c0.4,0,2.4,9.6,7.8,15.1C177.5,209.1,180.3,209.7,180.5,212.2z"/>
		<g>
			<polygon class="st43" points="159.6,156.1 165.3,161.3 167.3,157.7 161.2,154.8 159.6,148.2 157.1,145.7 158.9,149 			"/>
			<polygon class="st43" points="182.1,156.1 176.4,161.3 174.4,157.7 180.5,154.8 182.1,148.2 184.6,145.7 182.8,149 			"/>
			<polygon class="st44" points="182.1,156.1 176.4,161.3 174.4,157.7 176.7,159.8 177.4,159.3 176.4,158.2 177.9,158.8 
				178.5,158.2 177.9,157.3 179.2,157.7 180.1,156.8 179.5,156.3 180.6,156.5 181.4,155.6 182.4,148.8 184.6,145.7 182.8,149 			"/>
			<polygon class="st44" points="159.6,156.1 165.3,161.3 167.3,157.7 165,159.8 164.3,159.3 165.3,158.2 163.9,158.8 163.2,158.2 
				163.7,157.3 162.5,157.7 161.6,156.8 162.2,156.3 161.1,156.5 160.3,155.6 159.3,148.8 157.1,145.7 158.9,149 			"/>
			<g>
				<path class="st39" d="M180.9,161.5c0,0.5-2.2,2.1-4,1c-1-0.5-1.8-2.6-1.8-2.6s0.1,0,0.2-0.1l0,0c0.4-0.1,1.6-0.5,2.3-0.1
					C178.9,159.8,180.7,160.7,180.9,161.5L180.9,161.5C180.9,161.3,180.9,161.3,180.9,161.5z"/>
				<path class="st45" d="M180.9,161.3c-1.3-1.1-3.9-1.8-5.5-1.6c0.4-0.1,1.6-0.5,2.3-0.1C178.9,159.8,180.7,160.7,180.9,161.3z"/>
				<path class="st33" d="M180.8,161.5c0,0.4-2.1,1.5-3.2,1.1c-0.8-0.3-1.7-1.4-1.7-2C178.4,162.2,180.8,161,180.8,161.5z"/>
				<path class="st35" d="M176,160.6c0,0,0.1,1.1,0.8,1.6c0.1,0,0.1,0.1,0.2,0.1c1.1,0.8,2.3,0.4,3.2-0.1
					C178.6,162.5,177.1,162,176,160.6z"/>
			</g>
			<g>
				<path class="st39" d="M160.2,161.7c0,0.5,2.2,2.1,4,1c1-0.5,1.8-2.6,1.8-2.6s-0.1,0-0.2-0.1l0,0c-0.4-0.1-1.6-0.5-2.3-0.1
					C162.3,160.3,160.5,161,160.2,161.7L160.2,161.7L160.2,161.7z"/>
				<path class="st45" d="M160.2,161.6c1.3-1.1,3.9-1.8,5.5-1.6c-0.4-0.1-1.6-0.5-2.3-0.1C162.3,160.3,160.5,161,160.2,161.6z"/>
				<path class="st33" d="M160.4,161.8c0,0.4,2.1,1.5,3.2,1.1c0.8-0.3,1.7-1.4,1.7-2C162.8,162.5,160.4,161.5,160.4,161.8z"/>
				<path class="st35" d="M165.2,161c0,0-0.1,1.1-0.8,1.6c-0.1,0-0.1,0.1-0.2,0.1c-1.1,0.8-2.3,0.4-3.2-0.1
					C162.5,162.8,164.2,162.3,165.2,161z"/>
			</g>
			<path class="st39" d="M176.7,161.3c0,0,0,0.3,0,0.9c0,1,0,2.8-0.2,4c-0.2,2.4-2.2,10.1-2.8,13.1l0,0c0,0.1,0,0.3-0.1,0.3
				c-0.8,3.9-4.9,2.9-5.3,0c-0.4-2.6-2.6-11.9-2.9-13.8c-0.2-1.4-0.3-2.9-0.3-3.8c0-0.5,0-0.9,0-0.9l1.9-3.5c0.9-0.4,1.8-1.1,4-1.1
				c1.6,0,3.4,1,3.4,1L176.7,161.3z"/>
			<path class="st41" d="M173.4,158.1c1.3,1,2.4,2.3,3.1,3.9c0.1,0.3,0.1,0.4,0.2,0.8c0-0.1,0-0.3,0-0.4c0-0.5,0-0.9,0-0.9l-2.3-3.6
				c0,0-1.9-1-3.4-1c-1.3,0-2.1,0.1-2.8,0.4C169.9,157.3,172,157,173.4,158.1z"/>
			<path class="st43" d="M171.2,181.2c0,0.1-0.3,0.1-0.4,0c-0.1-0.8-1.3-1.4-1.2-2.1c0-0.3,0.7-0.4,1.4-0.4s1.3,0.1,1.4,0.4
				C172.4,179.6,171.2,180.6,171.2,181.2z"/>
			<path class="st33" d="M168.3,179.7c-0.4-2.6-2.6-11.9-2.9-13.8c-0.2-1.4-0.3-2.9-0.3-3.8c0.2-0.1,2.6-0.8,3.5,3.6
				C169.7,170.5,168.3,179.7,168.3,179.7z"/>
			<path class="st33" d="M176.7,162.2c0,1,0,2.8-0.2,4c-0.2,2.4-2.2,10.1-2.8,13.1c-0.2-1.6-1.2-9.4-0.3-13.5
				C174.3,162.2,176.1,162.1,176.7,162.2z"/>
			<path class="st43" d="M175.3,166.6c0,0.4-0.2,0.8-0.6,0.8c-0.3,0-0.6-0.3-0.6-0.8c0-0.4,0.2-0.8,0.6-0.8S175.3,166.1,175.3,166.6
				z"/>
			<path class="st43" d="M168.4,166.6c0,0.4-0.2,0.8-0.6,0.8c-0.3,0-0.6-0.3-0.6-0.8c0-0.4,0.2-0.8,0.6-0.8
				C168.1,165.8,168.4,166.1,168.4,166.6z"/>
			<path class="st46" d="M167.7,172.6c-0.8-4.3-1.8-9.3-1.2-13.9l-1.4,2.6c0,0,0,0.3,0,0.9c0,0.9,0.1,2.4,0.3,3.8
				c0.3,1.8,2.4,11.1,2.9,13.8c0.2,1.6,1.8,2.8,3.1,2.5C169.1,180.2,168.3,175.6,167.7,172.6z"/>
		</g>
	</g>
	<g>
		<path class="st38" d="M244.8,249.1c0.1,1.6-1.3,2.5-1.7,0.5c-0.3-2-2.6-11.9-3.7-16.5c-6.7-2.8-9-10-9-10s10.3-18.8,11.2-13.3
			c1.4,9-0.7,15.4-0.7,15.4s1.7,3.6,2.2,5.6C243.8,233,244.6,247.1,244.8,249.1z"/>
		<path class="st29" d="M242.6,247.4c0.2,1,0.3,1.8,0.4,2.3c0.3,2,1.9,1.1,1.7-0.5c0-0.4-0.1-1.3-0.2-2.4L242.6,247.4z"/>
		<path class="st39" d="M241.3,206.4c-1.8-5.1-4-5.3-7.7-6.4c-3.9-1.3-9.8,0.8-17.5,0.8s-8.4-18.8-8.4-18.8l-6.5,0.3
			c0,0-3.2,26.1,5.4,39.3c0.2,0.4,1.3,0.8,2.8,1c0.3,0.1,0.8,0.1,1.2,0.1c6.7,1,13.8,1.1,20.5,0.4c2.2-0.3,5.5-0.3,7.4-2.1
			c1.4-1.4,2.6-3.9,3.1-6.5C242,212.4,241.5,207.1,241.3,206.4z"/>
		<path class="st40" d="M201.1,197.2c0.7-0.4,1.2-0.5,1.9-0.5c2.1-0.1,3.8-1.6,4.3-4.3c0.6-2.5,0.6-5,0.4-7.5
			c-0.1-1.1-0.2-2-0.2-2.5c0-0.1,0-0.3,0-0.4l-6.5,0.3c0,0-0.9,7.1-0.4,15.6C200.8,197.5,200.9,197.4,201.1,197.2z"/>
		<path class="st41" d="M216.1,202.9c2.8,1,6.3,1.6,9.2,0.4c1.9-0.9,3.5-2.3,5-3.9c-3.7,0-8.4,1.1-14.3,1.1c-2.4,0-4.1-1.8-5.3-4.3
			C211.8,199.5,213.8,202.1,216.1,202.9z"/>
		<path class="st40" d="M226.5,223c-2-3.5-5.3-2-7.5,0.3c2.6,0.1,5.1,0.1,7.7,0C226.5,223.1,226.5,223.1,226.5,223z"/>
		<path class="st39" d="M204.9,215.6c0,0.5,0.1,1.1,0.2,1.6c0.1,0.8,0.1,1.4,0.2,2.1l0,0c0,0,0,0,0,0.1l0,0
			c-1.6,2.8-4.2,7.4-4.1,9.3c0.1,2.8,5.8,12.4,6.3,13.8c0.8,1.8,2,0.9,1.3-1c-0.9-2.1-3.7-9.6-3.7-11.8c0-1.8,4.4-4.6,6.3-5.6
			c0.9,0.1,1.8,0.1,2.7,0.3l0,0c0.6,0,1.1,0,1.7,0C215.7,224.4,208.5,215.5,204.9,215.6z"/>
		<path class="st29" d="M207.9,239.5c-0.4,0.5-0.9,1-1.3,1.4c0.4,0.9,0.8,1.4,0.9,1.6c0.8,1.8,2,0.9,1.3-1
			C208.6,241.1,208.2,240.4,207.9,239.5z"/>
		<path class="st39" d="M219.1,220c-0.2,1.6-0.4,3.6-0.7,5.9c0,0.4-0.1,0.9-0.1,1.3c-0.1,1.1-0.3,2.4-0.4,3.6
			c-0.1,0.4-0.1,0.9-0.2,1.3c-0.1,0.9-0.2,1.6-0.3,2.4c0,0.4-0.1,0.9-0.1,1.3c-0.2,1.4-0.4,2.8-0.6,4.1c-0.1,0.4-0.1,0.9-0.2,1.3
			c-0.1,1-0.2,1.8-0.3,2.6c0,0.4-0.1,0.8-0.1,1.1c-0.1,0.8-0.2,1.4-0.3,2.1c-0.1,0.5-0.1,1.1-0.2,1.6c-0.3,2.1-0.6,3.6-0.6,4
			c-0.2,1.8-2,1.6-1.9,0c0-0.4,0.1-2.1,0.3-4.6c0-0.4,0-0.9,0.1-1.3c0.4-7.4,1.1-19.8,0.9-26.4C213.8,210.6,220,211.5,219.1,220z"/>
		<path class="st31" d="M215.3,235.2c0.1-4,0.1-8.1-1.2-11.6c0,10.4-1.2,27.4-1.2,28.9c0,0.9,0.3,1.3,0.8,1.3
			C214.8,247.7,215.1,241.5,215.3,235.2z"/>
		<path class="st29" d="M215.1,249.6c-0.2,1.5-0.3,2.5-0.4,2.9c-0.2,1.8-2,1.6-1.9,0c0-0.3,0.1-1.4,0.2-2.9H215.1z"/>
		<path class="st39" d="M236.3,225c-0.3,0.5-0.4,1-0.4,1s0.1,0.5,0.3,1.5c0.1,0.8,0.3,1.5,0.6,2.4c0.1,0.5,0.2,1.1,0.3,1.5
			c0.1,0.9,0.3,1.6,0.3,2.3c0,0.1,0,0.3,0,0.4c0,0.4,0,1-0.1,1.8c-0.1,1-0.1,2.1-0.2,3.5c0,0.5-0.1,1.1-0.1,1.6
			c-0.1,0.9-0.1,1.6-0.2,2.5c-0.1,0.5-0.1,1.1-0.2,1.6c-0.1,1-0.2,2-0.2,2.8c-0.1,0.5-0.1,1.1-0.2,1.6c-0.1,1.1-0.2,2-0.2,2.4
			c-0.1,1.6-1.8,2-1.8,0c0-2-0.4-12.4-0.8-17.3c-3.4-2.8-5.3-6.5-6.2-9.1c-0.2-0.8-0.4-1.3-0.6-1.8c-0.2-1-0.3-1.5-0.3-1.5
			s2.4-2,5.2-3.9c1.4-1,3-2,4.3-2.6c2.4-1.3,4.3-1.6,3.9,0.3C238.7,219.9,237.2,223.4,236.3,225z"/>
		<path class="st29" d="M234,249.5c0,1.1,0.1,2,0.1,2.4c0,2,1.7,1.6,1.8,0c0-0.4,0.1-1.3,0.2-2.4H234z"/>
		<path class="st39" d="M244.4,222.7h-0.7c0,0,0.7-8.8-2.4-12.8c-0.8-1-1.3-1.3-1.3-1.3s0-3.5,1.3-2.1
			C245.1,210.9,244.4,222.7,244.4,222.7z"/>
		<path class="st42" d="M243.9,222.7c0.2-2.3,0.1-4.6,0-6.8c-0.1-2.4-1.4-5.9-3.3-6.5c0.2,0.1,0.3,0.4,0.6,0.8
			c3.1,3.9,2.4,12.8,2.4,12.8h0.3V222.7z"/>
		<path class="st29" d="M245.4,223.7c-0.4-1.1-1-1.4-1.2-1.4c-0.3,0.1-0.7,0.8-0.7,2c0,1.4,0.1,2.4,0.3,2.4c0.1,0,0.1-0.3,0.2-0.5
			c0.1,1,0.2,1.5,0.3,1.5s0.2-0.5,0.2-1.4c0.2,0.9,0.4,1.4,0.6,1.4s0.1-0.9-0.1-2c0.4,1.1,0.8,1.6,0.9,1.6c0.1-0.1,0-0.9-0.2-1.8
			c0.2,0.3,0.3,0.4,0.3,0.4C246.1,225.9,245.8,225,245.4,223.7z"/>
		<path class="st40" d="M235.1,238.6c0.1-2,0.4-4.3-0.1-6.3c-0.6-2.1-1.8-2.8-3.2-3.6c-2.3-1.4-3.8-3.5-5.4-5.6
			c0.4,2.3,2.1,7.8,6.9,11.4c0.2,3.4,0.4,9.1,0.7,13.1C234.2,244.6,234.9,241.5,235.1,238.6z"/>
		<path class="st40" d="M214.1,224.2L214.1,224.2c-0.1,0-0.2,0-0.3,0c-0.9,0-1.8-0.1-2.6-0.1c0,0-0.1,0-0.1,0.1
			c-0.3,0.3-0.8,0.4-1.2,0.9l0,0c-0.6,0.3-1.1,0.8-1.7,1.1c-0.8,0.5-1.4,1.1-2.1,1.6c-0.3,0.4-0.7,0.8-0.9,1.1
			c-0.2,0.4-0.3,0.8-0.3,1c0,0.4,0.1,1,0.2,1.6l0,0c0.1,0.4,0.2,1,0.4,1.5l0,0c0.2,0.5,0.3,1.3,0.6,1.8l0,0c0.2,0.5,0.3,1.1,0.6,1.6
			c0.1,0.4,0.3,0.9,0.4,1.3c0.2,0.4,0.3,1,0.6,1.4c0.4,1.1,0.8,2,1,2.5c0.8,1.8-0.4,2.8-1.3,1c-0.2-0.4-0.9-1.6-1.8-3.4
			c-0.2-0.4-0.4-0.8-0.7-1.1c-1.8-3.4-3.9-7.5-4-9.3c-0.1-2,2.6-6.6,4.1-9.3l0,0v-0.1l0,0c-0.1-0.8-3.3-6.5-4.2-15.5
			c0.4,0,2.4,9.6,7.8,15.1C211.1,221.2,213.9,221.7,214.1,224.2z"/>
		<g>
			<polygon class="st43" points="193.3,168.2 198.9,173.3 200.9,169.7 194.8,167 193.3,160.3 190.7,157.8 192.5,161 			"/>
			<polygon class="st43" points="215.7,168.2 210,173.3 208,169.7 214.1,167 215.7,160.3 218.2,157.8 216.4,161 			"/>
			<polygon class="st44" points="215.7,168.2 210,173.3 208,169.7 210.3,172 211,171.3 210,170.3 211.6,170.8 212.1,170.3 
				211.6,169.5 212.8,169.7 213.7,169 213.1,168.3 214.2,168.3 215,167.7 216,160.8 218.2,157.8 216.4,161 			"/>
			<polygon class="st44" points="193.3,168.2 198.9,173.3 200.9,169.7 198.6,172 197.9,171.3 198.9,170.3 197.5,170.8 196.8,170.3 
				197.4,169.5 196.1,169.7 195.3,169 195.8,168.3 194.8,168.3 193.9,167.7 192.9,160.8 190.7,157.8 192.5,161 			"/>
			<g>
				<path class="st39" d="M214.7,173.5c0,0.5-2.2,2.1-4,1c-1-0.5-1.8-2.6-1.8-2.6s0.1,0,0.2-0.1l0,0c0.4-0.1,1.6-0.5,2.3-0.1
					C212.6,172,214.3,172.8,214.7,173.5L214.7,173.5C214.6,173.3,214.6,173.3,214.7,173.5z"/>
				<path class="st45" d="M214.6,173.3c-1.3-1.1-3.9-1.8-5.5-1.6c0.4-0.1,1.6-0.5,2.3-0.1C212.6,172,214.3,172.8,214.6,173.3z"/>
				<path class="st33" d="M214.4,173.5c0,0.4-2.1,1.5-3.2,1.1c-0.8-0.3-1.7-1.4-1.7-2C212,174.2,214.4,173.1,214.4,173.5z"/>
				<path class="st35" d="M209.6,172.6c0,0,0.1,1.1,0.8,1.6c0.1,0,0.1,0.1,0.2,0.1c1.1,0.8,2.3,0.4,3.2-0.1
					C212.2,174.5,210.7,174.1,209.6,172.6z"/>
			</g>
			<g>
				<path class="st39" d="M193.8,173.7c0,0.5,2.2,2.1,4,1c1-0.5,1.8-2.6,1.8-2.6s-0.1,0-0.2-0.1l0,0c-0.4-0.1-1.6-0.5-2.3-0.1
					C195.9,172.3,194.1,173.1,193.8,173.7L193.8,173.7L193.8,173.7z"/>
				<path class="st45" d="M193.8,173.6c1.3-1.1,3.9-1.8,5.5-1.6c-0.4-0.1-1.6-0.5-2.3-0.1C195.9,172.3,194.1,173.1,193.8,173.6z"/>
				<path class="st33" d="M194,173.8c0,0.4,2.1,1.5,3.2,1.1c0.8-0.3,1.7-1.4,1.7-2C196.4,174.6,194,173.3,194,173.8z"/>
				<path class="st35" d="M198.8,173.1c0,0-0.1,1.1-0.8,1.6c-0.1,0-0.1,0.1-0.2,0.1c-1.1,0.8-2.3,0.4-3.2-0.1
					C196.1,174.8,197.8,174.5,198.8,173.1z"/>
			</g>
			<path class="st39" d="M210.3,173.3c0,0,0,0.3,0,0.9c0,1,0,2.8-0.2,4c-0.2,2.4-2.2,10.1-2.8,13.1l0,0c0,0.1,0,0.3-0.1,0.3
				c-0.8,3.9-4.9,2.9-5.3,0c-0.4-2.6-2.6-11.9-2.9-13.8c-0.2-1.4-0.3-2.9-0.3-3.8c0-0.5,0-0.9,0-0.9l1.9-3.5c0.9-0.4,1.8-1.1,4-1.1
				c1.6,0,3.4,1,3.4,1L210.3,173.3z"/>
			<path class="st41" d="M207,170.2c1.3,1,2.4,2.3,3.1,3.9c0.1,0.3,0.1,0.4,0.2,0.8c0-0.1,0-0.3,0-0.4c0-0.5,0-0.9,0-0.9L208,170
				c0,0-1.9-1-3.4-1c-1.3,0-2.1,0.1-2.8,0.4C203.5,169.5,205.6,169.1,207,170.2z"/>
			<path class="st43" d="M204.8,193.4c0,0.1-0.3,0.1-0.4,0c-0.1-0.8-1.3-1.4-1.2-2.1c0-0.3,0.7-0.4,1.4-0.4s1.3,0.1,1.4,0.4
				C206,191.6,204.9,192.6,204.8,193.4z"/>
			<path class="st33" d="M201.9,191.9c-0.4-2.6-2.6-11.9-2.9-13.8c-0.2-1.4-0.3-2.9-0.3-3.8c0.2-0.1,2.6-0.8,3.5,3.6
				C203.4,182.5,201.9,191.9,201.9,191.9z"/>
			<path class="st33" d="M210.3,174.3c0,1,0,2.8-0.2,4c-0.2,2.4-2.2,10.1-2.8,13.1c-0.2-1.6-1.2-9.4-0.3-13.5
				C207.9,174.2,209.7,174.2,210.3,174.3z"/>
			<path class="st43" d="M208.9,178.6c0,0.4-0.2,0.8-0.6,0.8s-0.6-0.3-0.6-0.8c0-0.5,0.2-0.8,0.6-0.8
				C208.7,178,208.9,178.2,208.9,178.6z"/>
			<path class="st43" d="M202,178.6c0,0.4-0.2,0.8-0.6,0.8s-0.6-0.3-0.6-0.8c0-0.5,0.2-0.8,0.6-0.8S202,178.2,202,178.6z"/>
			<path class="st46" d="M201.4,184.7c-0.8-4.3-1.8-9.3-1.2-13.9l-1.4,2.6c0,0,0,0.3,0,0.9c0,0.9,0.1,2.4,0.3,3.8
				c0.3,1.8,2.4,11.1,2.9,13.8c0.2,1.6,1.8,2.8,3.1,2.5C202.7,192.4,201.9,187.5,201.4,184.7z"/>
		</g>
	</g>
</g>
</svg>
