<svg xmlns="http://www.w3.org/2000/svg" viewBox="0 0 35.333 30.75">
  <defs/>
  <g fill="#f58862" data-name="Group 4064">
    <path d="M3.048 18.841h8.963l-.389 1.687a19.746 19.746 0 00-.145 6.987c.434 2.168 2.457 2.65 3.228 3.132s1.927-.867 1.927-.867.048-.482-.1-3.9 7.14-10.312 7.14-10.312l.193-.145s.241-12.287 0-13.107C23.576 1.449 21.311.87 21.311.87H5.602a6.313 6.313 0 00-2.409 1.735 2.776 2.776 0 00-.337 2.506 4.094 4.094 0 00-1.349 1.494 5.733 5.733 0 000 2.795 3.512 3.512 0 00-1.108 1.542 4.8 4.8 0 00.385 2.361 5.187 5.187 0 00-.771 2.506c-.242 1.876 3.035 3.032 3.035 3.032z" data-name="Path 57791"/>
    <path d="M26.563 1.638V15.13a1.491 1.491 0 001.253 1.638h6.264c.723 0 1.253-.723 1.253-1.638V1.638A1.491 1.491 0 0034.08 0h-6.264c-.675 0-1.253.771-1.253 1.638z" data-name="Path 57792"/>
  </g>
</svg>
