<?xml version="1.0" encoding="utf-8"?>
<!-- Generator: Adobe Illustrator 25.1.0, SVG Export Plug-In . SVG Version: 6.00 Build 0)  -->
<svg version="1.1" xmlns="http://www.w3.org/2000/svg" xmlns:xlink="http://www.w3.org/1999/xlink" x="0px" y="0px"
	 viewBox="0 0 300 265" style="enable-background:new 0 0 300 265;" xml:space="preserve">
<style type="text/css">
	.st0{fill:#C6C9FF;}
	.st1{fill:#C6C9FF;stroke:#8386CC;stroke-width:2;stroke-miterlimit:10;}
	.st2{fill:none;stroke:#8386CC;stroke-width:2;stroke-miterlimit:10;}
	.st3{fill:#8386CC;}
	.st4{opacity:0.5;fill:#C6C9FF;}
	.st5{fill:#1A1829;}
	.st6{fill:#949494;}
	.st7{fill:#3E3C50;}
	.st8{fill:#463F82;}
	.st9{fill:none;stroke:#1A1829;stroke-width:1.5573;stroke-linecap:round;stroke-linejoin:round;stroke-miterlimit:10;}
	.st10{fill:#FFFFFF;}
	.st11{fill:#5950A3;}
	.st12{fill:#342D6D;}
	.st13{fill:#776CD4;}
	.st14{fill:#5E55AA;}
	.st15{fill:#DE5959;}
	.st16{fill:#FF9973;}
	.st17{fill:none;stroke:#383849;stroke-width:1.0283;stroke-linecap:round;stroke-linejoin:round;stroke-miterlimit:10;}
	.st18{fill:#0F0F0F;}
	.st19{fill:#383849;}
	.st20{fill:none;stroke:#383849;stroke-width:1.5573;stroke-linecap:round;stroke-linejoin:round;stroke-miterlimit:10;}
	.st21{fill:#ED714B;}
	.st22{fill:none;stroke:#ED714B;stroke-width:1.0419;stroke-linecap:round;stroke-linejoin:round;stroke-miterlimit:10;}
	.st23{fill:none;stroke:#383849;stroke-width:0.9282;stroke-linecap:round;stroke-linejoin:round;stroke-miterlimit:10;}
	.st24{fill:none;stroke:#FFFFFF;stroke-width:1.0189;stroke-linecap:round;stroke-linejoin:round;stroke-miterlimit:10;}
	.st25{fill:none;stroke:#CCCCCC;stroke-width:1.1652;stroke-linecap:round;stroke-linejoin:round;stroke-miterlimit:10;}
	.st26{fill:#FFD970;}
	.st27{fill:none;stroke:#1A1A2E;stroke-width:1.0458;stroke-linecap:round;stroke-linejoin:round;stroke-miterlimit:10;}
	.st28{fill:#EC6E4B;}
	.st29{fill:#D67622;}
	.st30{fill:none;stroke:#1A1A2E;stroke-width:1.0458;stroke-linejoin:round;stroke-miterlimit:10;}
	.st31{fill:#1A1A2E;}
	.st32{fill:none;stroke:#1A1A2E;stroke-width:4.6719;stroke-linecap:round;stroke-linejoin:round;stroke-miterlimit:10;}
	.st33{fill:#403F55;}
	.st34{fill:none;stroke:#1A1A2E;stroke-width:1.0347;stroke-linecap:round;stroke-linejoin:round;stroke-miterlimit:10;}
	.st35{fill:none;stroke:#FFFFFF;stroke-width:0.7786;stroke-miterlimit:10;stroke-dasharray:4.6719;}
	.st36{fill:none;stroke:#FFFFFF;stroke-width:0.7786;stroke-miterlimit:10;}
	.st37{fill:none;stroke:#FFFFFF;stroke-width:0.7786;stroke-miterlimit:10;stroke-dasharray:4.6122,4.6122;}
	.st38{fill:none;stroke:#1A1A2E;stroke-width:1.5573;stroke-linecap:round;stroke-linejoin:round;stroke-miterlimit:10;}
	.st39{fill:none;stroke:#1A1A2E;stroke-width:1.0659;stroke-linecap:round;stroke-linejoin:round;stroke-miterlimit:10;}
	.st40{fill:none;stroke:#ED714B;stroke-width:1.2623;stroke-linecap:round;stroke-linejoin:round;stroke-miterlimit:10;}
	.st41{fill:none;stroke:#FFFFFF;stroke-width:1.5573;stroke-linecap:round;stroke-linejoin:round;stroke-miterlimit:10;}
	.st42{fill:none;stroke:#1A1A2E;stroke-width:1.5573;stroke-linecap:round;stroke-miterlimit:10;}
	.st43{fill:none;stroke:#FFFFFF;stroke-width:1.2344;stroke-linecap:round;stroke-linejoin:round;stroke-miterlimit:10;}
	.st44{fill:none;stroke:#CCCCCC;stroke-width:1.4117;stroke-linecap:round;stroke-linejoin:round;stroke-miterlimit:10;}
</style>
<g id="BACKGROUND:">
	<rect class="st0" width="300" height="265"/>
	<rect x="1" y="206" class="st1" width="298" height="6"/>
	<g>
		<path class="st0" d="M196.7,247.7c-0.1,0-0.2,0-0.2,0c-0.3-0.1-0.7,0.1-0.7,0.6c-0.1,0.4,0.1,0.9,0.4,1c0.1,0,0.2,0,0.2,0
			c0.3,0.1,0.7-0.1,0.7-0.6C197.2,248.3,197,247.8,196.7,247.7z"/>
		<path class="st0" d="M201.1,254c-0.3,0-0.6,0.3-0.6,0.8v0.3c0,0.4,0.3,0.8,0.6,0.8c0.3,0,0.6-0.3,0.6-0.8v-0.3
			C201.7,254.4,201.4,254,201.1,254z"/>
		<path class="st0" d="M202.8,244.5l-0.2-0.9c-0.1-0.4-0.4-0.7-0.7-0.6c-0.3,0.1-0.5,0.6-0.4,1l0.2,0.9c0.1,0.4,0.4,0.7,0.7,0.6
			C202.7,245.4,202.9,244.9,202.8,244.5z"/>
		<path class="st0" d="M265.5,250.8l-0.2-0.3c-0.2-0.3-0.6-0.3-0.8,0c-0.2,0.3-0.2,0.8,0,1.1c0.1,0.1,0.2,0.2,0.2,0.3
			c0.2,0.3,0.6,0.3,0.8,0C265.7,251.6,265.7,251.1,265.5,250.8z"/>
		<path class="st0" d="M278.6,247.7c-0.2-0.3-0.6-0.3-0.8,0c-0.2,0.2-0.3,0.4-0.5,0.6c-0.2,0.3-0.2,0.8,0,1.1c0.2,0.3,0.6,0.3,0.8,0
			l0.5-0.6C278.9,248.5,278.9,248,278.6,247.7z"/>
		<path class="st0" d="M284.6,239.5c-0.3,0-0.6,0.3-0.6,0.8v0.3c0,0.4,0.3,0.8,0.6,0.8c0.3,0,0.6-0.3,0.6-0.8v-0.3
			C285.2,239.9,284.9,239.5,284.6,239.5z"/>
		<path class="st0" d="M286.4,232.8l-0.2-0.3c-0.2-0.3-0.6-0.3-0.8,0c-0.2,0.3-0.2,0.8,0,1.1l0.2,0.3c0.2,0.3,0.6,0.3,0.8,0
			C286.7,233.6,286.7,233.1,286.4,232.8z"/>
		<path class="st0" d="M286.3,252.7c-0.8,0-0.8,1.6,0,1.6C287,254.3,287,252.7,286.3,252.7z"/>
		<path class="st0" d="M89.7,243.9c-0.8,0-0.8,1.6,0,1.6C90.5,245.5,90.5,243.9,89.7,243.9z"/>
		<path class="st0" d="M95.6,248.3c-0.8,0-0.8,1.6,0,1.6C96.4,249.9,96.4,248.3,95.6,248.3z"/>
		<path class="st0" d="M101.8,250.5c-0.8,0-0.8,1.6,0,1.6C102.6,252.1,102.6,250.5,101.8,250.5z"/>
		<path class="st0" d="M104.9,244.2c-0.8,0-0.8,1.6,0,1.6C105.7,245.8,105.7,244.2,104.9,244.2z"/>
		<path class="st0" d="M14.6,240c0-0.2-0.1-0.3-0.2-0.4c0-0.2-0.1-0.4-0.2-0.5c-0.2-0.3-0.6-0.3-0.8,0c-0.3,0.4-0.3,0.9-0.1,1.4
			c0.2,0.5,0.5,0.6,0.9,0.6C14.5,240.9,14.7,240.4,14.6,240z"/>
		<path class="st0" d="M22.1,247.6c-0.2-0.3-0.6-0.3-0.8,0l-0.2,0.3c-0.2,0.3-0.2,0.8,0,1.1c0.2,0.3,0.6,0.3,0.8,0l0.2-0.3
			C22.3,248.4,22.3,247.9,22.1,247.6z"/>
		<path class="st0" d="M27.6,243c-0.8,0-0.8,1.6,0,1.6C28.4,244.5,28.4,243,27.6,243z"/>
		<path class="st0" d="M36.6,243.6c-0.8,0-0.8,1.6,0,1.6C37.4,245.2,37.4,243.6,36.6,243.6z"/>
		<path class="st0" d="M18.3,240.1c-0.8,0-0.8,1.6,0,1.6C19.1,241.7,19.1,240.1,18.3,240.1z"/>
		<path class="st0" d="M5,225c-0.8,0-0.8,1.6,0,1.6C5.8,226.6,5.8,225,5,225z"/>
		<path class="st0" d="M12.8,218.4c-0.3,0-0.6,0.3-0.6,0.8v0.3c0,0.4,0.3,0.8,0.6,0.8c0.3,0,0.6-0.3,0.6-0.8v-0.3
			C13.4,218.7,13.2,218.3,12.8,218.4z"/>
		<path class="st0" d="M16.4,224c-0.8,0-0.8,1.6,0,1.6C17.2,225.6,17.2,224,16.4,224z"/>
		<path class="st0" d="M10,223.1H9.7c-0.3,0-0.6,0.4-0.6,0.8c0,0.4,0.3,0.8,0.6,0.8H10c0.3,0,0.6-0.4,0.6-0.8
			C10.6,223.5,10.3,223.1,10,223.1z"/>
		<path class="st0" d="M95.2,217.4c-0.3,0-0.6,0.3-0.6,0.8v0.3c0,0.4,0.3,0.8,0.6,0.8c0.3,0,0.6-0.3,0.6-0.8v-0.3
			C95.8,217.8,95.5,217.4,95.2,217.4z"/>
		<path class="st0" d="M99.4,224c-0.2-0.3-0.6-0.3-0.8,0l-0.2,0.3c-0.2,0.3-0.2,0.8,0,1.1c0.2,0.3,0.6,0.3,0.8,0
			c0.1-0.1,0.2-0.2,0.2-0.3C99.6,224.8,99.6,224.3,99.4,224z"/>
		<path class="st0" d="M101.6,218.4c-0.8,0-0.8,1.6,0,1.6C102.4,220,102.4,218.4,101.6,218.4z"/>
		<path class="st0" d="M197.5,218h-0.2c-0.3,0-0.6,0.4-0.6,0.8c0,0.4,0.3,0.8,0.6,0.8h0.2c0.3,0,0.6-0.4,0.6-0.8
			C198.1,218.4,197.8,218,197.5,218z"/>
		<path class="st0" d="M203,226.6c-0.8,0-0.8,1.6,0,1.6C203.7,228.1,203.7,226.6,203,226.6z"/>
		<path class="st0" d="M207,218.9c-0.2-0.3-0.6-0.3-0.8,0l-0.2,0.3c-0.2,0.3-0.2,0.8,0,1.1c0.2,0.3,0.6,0.3,0.8,0l0.2-0.3
			C207.2,219.7,207.2,219.2,207,218.9z"/>
		<path class="st0" d="M208.7,225.3c-0.8,0-0.8,1.6,0,1.6C209.5,226.9,209.5,225.3,208.7,225.3z"/>
		<path class="st0" d="M275.8,217.1c-0.8,0-0.8,1.6,0,1.6C276.6,218.7,276.6,217.1,275.8,217.1z"/>
		<path class="st0" d="M286.3,217.1H286c-0.3,0-0.6,0.4-0.6,0.8c0,0.4,0.3,0.8,0.6,0.8h0.2c0.3,0,0.6-0.4,0.6-0.8
			C286.8,217.5,286.6,217.1,286.3,217.1z"/>
		<path class="st0" d="M291.5,219.6h-0.2c-0.3,0-0.6,0.4-0.6,0.8c0,0.4,0.3,0.8,0.6,0.8h0.2c0.3,0,0.6-0.4,0.6-0.8
			C292.1,220,291.8,219.6,291.5,219.6z"/>
		<path class="st0" d="M280.8,224.7c-0.8,0-0.8,1.6,0,1.6C281.6,226.3,281.6,224.7,280.8,224.7z"/>
	</g>
	<line class="st2" x1="0" y1="212.1" x2="300" y2="212.1"/>
	<g>
		<g>
			<polygon class="st3" points="99.1,137.6 28.1,137.6 22.9,137.6 22.9,161.8 22.9,212.1 28.1,212.1 28.1,161.8 99.1,161.8 
				99.1,212.1 104.3,212.1 104.3,161.8 104.3,137.6 			"/>
		</g>
		<polygon class="st1" points="108.1,137.6 19.7,137.6 14.4,137.6 14.4,161.8 14.4,212.1 19.7,212.1 19.7,161.8 108.1,161.8 
			108.1,212.1 113.4,212.1 113.4,161.8 113.4,137.6 		"/>
		<rect x="14.4" y="137.6" class="st3" width="99" height="4.7"/>
		<rect x="9" y="128.3" class="st1" width="109.7" height="9.2"/>
	</g>
	<g>
		<rect x="43.9" y="44.7" class="st1" width="35.2" height="52"/>
		<g>
			<rect x="46" y="48.3" class="st3" width="31" height="44.8"/>
			<path class="st3" d="M76,49.3v42.8H47V49.3H76 M78,47.3h-2H47h-2v2v42.8v2h2h29h2v-2V49.3V47.3L78,47.3z"/>
		</g>
		<path class="st4" d="M75.6,83.9c-0.5,0-1.2,0.1-1.5,0.1c-3.2,0.1-6.4,0.1-9.7,0.2c-0.4,0-1,0.1-1.1,0.7c-0.1,0.4,0.2,0.8,0.3,1.2
			c0.2,0.9-0.3,1.8-0.9,2.2c-0.6,0.4-1.3,0.3-2,0.3c-2.6-0.2-5.3-0.4-7.9-0.7c-1.3-0.1-2.6-0.2-3.9-0.3c-0.9-0.1-1.8-0.6-1.9,0.8
			c-0.1,0.5,0,1.1,0,1.6c0,0.7,0,1.5,0,2.2h29c0-2,0.1-4.1,0.1-6.1c0-0.4,0.3-1.6,0.1-2C76.1,83.9,75.9,83.9,75.6,83.9z"/>
		<path class="st0" d="M51.2,67.6c1-0.9,2.4-2,3.7-1.7c1.3,0.3,2.4,2.2,3.3,3.4c0.7,1,1.4,2,2.1,3c0.4,0.5,1.1,1.9,1.6,1.7
			c0.4-0.1,1.2-1.3,1.5-1.7c0.4-0.4,0.7-0.9,1.1-1.3c0.4-0.5,0.9-0.9,1.4-1.2c1.6-0.8,3.3,0.8,4.6,1.9c2,1.7,3.8,3.7,5.6,5.7V49.3
			H47v23.4C48.3,70.8,49.6,69,51.2,67.6z"/>
		<g>
			<path class="st3" d="M65.7,56.8c0,1.9-1.2,3.5-2.6,3.5s-2.6-1.6-2.6-3.5c0-1.9,1.2-3.5,2.6-3.5S65.7,54.9,65.7,56.8z"/>
		</g>
		<g>
			<path class="st3" d="M58.4,59.6c-0.1-0.6-0.3-1.3-0.7-1.6c-0.6-0.6-1.6-0.6-2.2,0.1c0.3-1.4-0.1-3.1-1-4c-0.9-0.9-2.2-1-3.2-0.2
				c-0.9,0.8-1.4,2.5-1.2,3.9c-0.3-1.4-1.9,0.5-1.1,1.8H58.4z"/>
		</g>
		<g>
			<path class="st3" d="M74,67.5c-0.1-0.6-0.3-1.3-0.7-1.6c-0.6-0.6-1.6-0.6-2.2,0.1c0.3-1.4-0.1-3.1-1-4c-0.9-0.9-2.2-1-3.2-0.2
				c-0.9,0.8-1.4,2.5-1.2,3.9c-0.3-1.4-1.9,0.5-1.1,1.8H74z"/>
		</g>
	</g>
	<g>
		<g>
			<g>
				<path class="st2" d="M20.5,81.2C19,66.7,20.9,51.7,26,38.8"/>
				<path class="st1" d="M27.9,34.2c0,1.4-1.9,4.3-1.9,4.3s-1.9-2.9-1.9-4.3s0.9-2.6,1.9-2.6C27.1,31.6,27.9,32.8,27.9,34.2z"/>
				<path class="st1" d="M29.2,41c-1.1,0-3.2-2.6-3.2-2.6s2.2-2.6,3.2-2.6c1.1,0,1.9,1.1,1.9,2.6C31.1,39.9,30.3,41,29.2,41z"/>
				<path class="st1" d="M24.1,42.7c0-1.4,1.9-4.3,1.9-4.3s1.9,2.9,1.9,4.3c0,1.4-0.9,2.6-1.9,2.6C24.9,45.3,24.1,44.1,24.1,42.7z"
					/>
				<path class="st1" d="M22.8,35.9c1.1,0,3.2,2.6,3.2,2.6S23.8,41,22.8,41c-1.1,0-1.9-1.1-1.9-2.6C20.9,37,21.7,35.9,22.8,35.9z"/>
				<path class="st3" d="M27.1,38.8c0,0.8-0.5,1.4-1.1,1.4c-0.6,0-1.1-0.6-1.1-1.4c0-0.8,0.5-1.4,1.1-1.4
					C26.6,37.4,27.1,38,27.1,38.8z"/>
			</g>
			<g>
				<path class="st2" d="M21.2,80.9c0.2-10.8,2.6-21.6,7-30.8"/>
				<path class="st1" d="M30.5,45.8c0,1.4-1.9,4.3-1.9,4.3s-1.9-2.9-1.9-4.3c0-1.4,0.9-2.6,1.9-2.6C29.6,43.3,30.5,44.4,30.5,45.8z"
					/>
				<path class="st1" d="M31.8,52.7c-1.1,0-3.2-2.6-3.2-2.6s2.2-2.6,3.2-2.6c1.1,0,1.9,1.1,1.9,2.6C33.7,51.5,32.9,52.7,31.8,52.7z"
					/>
				<path class="st1" d="M26.6,54.4c0-1.4,1.9-4.3,1.9-4.3s1.9,2.9,1.9,4.3c0,1.4-0.9,2.6-1.9,2.6C27.5,56.9,26.6,55.8,26.6,54.4z"
					/>
				<path class="st1" d="M25.4,47.5c1.1,0,3.2,2.6,3.2,2.6s-2.2,2.6-3.2,2.6c-1.1,0-1.9-1.1-1.9-2.6C23.4,48.7,24.3,47.5,25.4,47.5z
					"/>
				<path class="st3" d="M29.6,50.4c0,0.8-0.5,1.4-1.1,1.4c-0.6,0-1.1-0.6-1.1-1.4c0-0.8,0.5-1.4,1.1-1.4
					C29.2,49,29.6,49.6,29.6,50.4z"/>
			</g>
			<g>
				<path class="st2" d="M19,77.5c0.5-10.5-1.5-21.3-3.8-27.4"/>
				<path class="st1" d="M17.1,45.5c0,1.4-1.9,4.3-1.9,4.3s-1.9-2.9-1.9-4.3c0-1.4,0.9-2.6,1.9-2.6S17.1,44.1,17.1,45.5z"/>
				<path class="st1" d="M18.4,52.4c-1.1,0-3.2-2.6-3.2-2.6s2.2-2.6,3.2-2.6c1.1,0,1.9,1.1,1.9,2.6C20.3,51.2,19.5,52.4,18.4,52.4z"
					/>
				<path class="st1" d="M13.3,54.1c0-1.4,1.9-4.3,1.9-4.3s1.9,2.9,1.9,4.3c0,1.4-0.9,2.6-1.9,2.6S13.3,55.5,13.3,54.1z"/>
				<path class="st1" d="M12,47.2c1.1,0,3.2,2.6,3.2,2.6S13,52.4,12,52.4S10,51.2,10,49.8C10,48.4,10.9,47.2,12,47.2z"/>
				<ellipse class="st3" cx="15.2" cy="50.1" rx="1.1" ry="1.4"/>
			</g>
			<g>
				<path class="st2" d="M18.5,81.9c-0.8-5.1-2.6-9.9-5.3-13.8"/>
				<path class="st1" d="M15.2,63.9c0,1.4-1.9,4.3-1.9,4.3s-1.9-2.9-1.9-4.3c0-1.4,0.9-2.6,1.9-2.6S15.2,62.4,15.2,63.9z"/>
				<path class="st1" d="M16.5,70.7c-1.1,0-3.2-2.6-3.2-2.6s2.2-2.6,3.2-2.6s1.9,1.1,1.9,2.6S17.5,70.7,16.5,70.7z"/>
				<path class="st1" d="M11.3,72.4c0-1.4,1.9-4.3,1.9-4.3s1.9,2.9,1.9,4.3c0,1.4-0.9,2.6-1.9,2.6S11.3,73.8,11.3,72.4z"/>
				<path class="st1" d="M10,65.6c1.1,0,3.2,2.6,3.2,2.6s-2.2,2.6-3.2,2.6c-1.1,0-1.9-1.1-1.9-2.6S9,65.6,10,65.6z"/>
				<path class="st3" d="M14.3,68.4c0,0.8-0.5,1.4-1.1,1.4s-1.1-0.6-1.1-1.4c0-0.8,0.5-1.4,1.1-1.4S14.3,67.7,14.3,68.4z"/>
			</g>
		</g>
		<g>
			<path class="st1" d="M23.7,87.7c1.2-2.6,2-6.5,2.3-11H14.6c0.3,4.5,1.2,8.4,2.3,11c0.9,1.9,0.9,4.3,0,6.2
				c-1.5,3.3-2.5,8.7-2.5,14.8c0,10,2.6,18.2,5.8,18.2c3.2,0,5.8-8.1,5.8-18.2c0-6.1-1-11.5-2.5-14.8C22.8,92,22.8,89.6,23.7,87.7z"
				/>
			<g>
				<path class="st3" d="M17.5,91.2c2.7-3.6,5.4-7.1,8.1-10.7c0.2-1.2,0.3-2.5,0.4-3.8h-4.2c-2,2.7-4,5.3-6,8c0.3,1.1,0.7,2.2,1.1,3
					C17.4,88.7,17.6,89.9,17.5,91.2z"/>
			</g>
			<g>
				<path class="st3" d="M17.2,124.3c0.9,1.7,1.9,2.7,3,2.7c2.8,0,5.1-6.1,5.7-14.2L17.2,124.3z"/>
			</g>
			<g>
				<path class="st3" d="M25.7,101.8c-0.4-3.2-1.1-5.9-2-7.9c0,0,0,0,0,0c-3.1,4-6.1,8.1-9.2,12.1c0,0.9-0.1,1.8-0.1,2.7
					c0,2.6,0.2,5.1,0.5,7.4L25.7,101.8z"/>
			</g>
			<rect x="17.2" y="124.2" class="st1" width="5.7" height="4.1"/>
		</g>
	</g>
	<g>
		<g>
			<g>
				<path class="st2" d="M103.9,81.2c-1.5-14.4,0.4-29.5,5.5-42.4"/>
				<path class="st1" d="M111.3,34.2c0,1.4-1.9,4.3-1.9,4.3s-1.9-2.9-1.9-4.3s0.9-2.6,1.9-2.6C110.5,31.6,111.3,32.8,111.3,34.2z"/>
				<path class="st1" d="M112.6,41c-1.1,0-3.2-2.6-3.2-2.6s2.2-2.6,3.2-2.6c1.1,0,1.9,1.1,1.9,2.6C114.6,39.9,113.7,41,112.6,41z"/>
				<path class="st1" d="M107.5,42.7c0-1.4,1.9-4.3,1.9-4.3s1.9,2.9,1.9,4.3c0,1.4-0.9,2.6-1.9,2.6
					C108.3,45.3,107.5,44.1,107.5,42.7z"/>
				<path class="st1" d="M106.2,35.9c1.1,0,3.2,2.6,3.2,2.6s-2.2,2.6-3.2,2.6c-1.1,0-1.9-1.1-1.9-2.6
					C104.3,37,105.1,35.9,106.2,35.9z"/>
				<path class="st3" d="M110.5,38.8c0,0.8-0.5,1.4-1.1,1.4c-0.6,0-1.1-0.6-1.1-1.4c0-0.8,0.5-1.4,1.1-1.4
					C110,37.4,110.5,38,110.5,38.8z"/>
			</g>
			<g>
				<path class="st2" d="M104.6,80.9c0.2-10.8,2.6-21.6,7-30.8"/>
				<path class="st1" d="M113.9,45.8c0,1.4-1.9,4.3-1.9,4.3s-1.9-2.9-1.9-4.3c0-1.4,0.9-2.6,1.9-2.6S113.9,44.4,113.9,45.8z"/>
				<path class="st1" d="M115.2,52.7c-1.1,0-3.2-2.6-3.2-2.6s2.2-2.6,3.2-2.6c1.1,0,1.9,1.1,1.9,2.6
					C117.1,51.5,116.3,52.7,115.2,52.7z"/>
				<path class="st1" d="M110.1,54.4c0-1.4,1.9-4.3,1.9-4.3s1.9,2.9,1.9,4.3c0,1.4-0.9,2.6-1.9,2.6S110.1,55.8,110.1,54.4z"/>
				<path class="st1" d="M108.8,47.5c1.1,0,3.2,2.6,3.2,2.6s-2.2,2.6-3.2,2.6s-1.9-1.1-1.9-2.6C106.8,48.7,107.7,47.5,108.8,47.5z"
					/>
				<path class="st3" d="M113,50.4c0,0.8-0.5,1.4-1.1,1.4s-1.1-0.6-1.1-1.4c0-0.8,0.5-1.4,1.1-1.4S113,49.6,113,50.4z"/>
			</g>
			<g>
				<path class="st2" d="M102.4,77.5c0.5-10.5-1.5-21.3-3.8-27.4"/>
				<path class="st1" d="M100.5,45.5c0,1.4-1.9,4.3-1.9,4.3s-1.9-2.9-1.9-4.3c0-1.4,0.9-2.6,1.9-2.6C99.7,43,100.5,44.1,100.5,45.5z
					"/>
				<path class="st1" d="M101.8,52.4c-1.1,0-3.2-2.6-3.2-2.6s2.2-2.6,3.2-2.6s1.9,1.1,1.9,2.6C103.7,51.2,102.9,52.4,101.8,52.4z"/>
				<path class="st1" d="M96.7,54.1c0-1.4,1.9-4.3,1.9-4.3s1.9,2.9,1.9,4.3c0,1.4-0.9,2.6-1.9,2.6C97.5,56.6,96.7,55.5,96.7,54.1z"
					/>
				<path class="st1" d="M95.4,47.2c1.1,0,3.2,2.6,3.2,2.6s-2.2,2.6-3.2,2.6c-1.1,0-1.9-1.1-1.9-2.6C93.4,48.4,94.3,47.2,95.4,47.2z
					"/>
				<ellipse class="st3" cx="98.6" cy="50.1" rx="1.1" ry="1.4"/>
			</g>
			<g>
				<path class="st2" d="M101.9,81.9c-0.8-5.1-2.6-9.9-5.3-13.8"/>
				<path class="st1" d="M98.6,63.9c0,1.4-1.9,4.3-1.9,4.3s-1.9-2.9-1.9-4.3c0-1.4,0.9-2.6,1.9-2.6C97.7,61.3,98.6,62.4,98.6,63.9z"
					/>
				<path class="st1" d="M99.9,70.7c-1.1,0-3.2-2.6-3.2-2.6s2.2-2.6,3.2-2.6c1.1,0,1.9,1.1,1.9,2.6S100.9,70.7,99.9,70.7z"/>
				<path class="st1" d="M94.7,72.4c0-1.4,1.9-4.3,1.9-4.3s1.9,2.9,1.9,4.3c0,1.4-0.9,2.6-1.9,2.6C95.6,74.9,94.7,73.8,94.7,72.4z"
					/>
				<path class="st1" d="M93.4,65.6c1.1,0,3.2,2.6,3.2,2.6s-2.2,2.6-3.2,2.6c-1.1,0-1.9-1.1-1.9-2.6S92.4,65.6,93.4,65.6z"/>
				<path class="st3" d="M97.7,68.4c0,0.8-0.5,1.4-1.1,1.4c-0.6,0-1.1-0.6-1.1-1.4c0-0.8,0.5-1.4,1.1-1.4
					C97.3,67,97.7,67.7,97.7,68.4z"/>
			</g>
		</g>
		<g>
			<path class="st1" d="M107.1,87.7c1.2-2.6,2-6.5,2.3-11H98c0.3,4.5,1.2,8.4,2.3,11c0.9,1.9,0.9,4.3,0,6.2
				c-1.5,3.3-2.5,8.7-2.5,14.8c0,10,2.6,18.2,5.8,18.2c3.2,0,5.8-8.1,5.8-18.2c0-6.1-1-11.5-2.5-14.8
				C106.2,92,106.2,89.6,107.1,87.7z"/>
			<g>
				<path class="st3" d="M100.9,91.2c2.7-3.6,5.4-7.1,8.1-10.7c0.2-1.2,0.3-2.5,0.4-3.8h-4.2c-2,2.7-4,5.3-6,8
					c0.3,1.1,0.7,2.2,1.1,3C100.8,88.7,101,89.9,100.9,91.2z"/>
			</g>
			<g>
				<path class="st3" d="M100.6,124.3c0.9,1.7,1.9,2.7,3,2.7c2.8,0,5.1-6.1,5.7-14.2L100.6,124.3z"/>
			</g>
			<g>
				<path class="st3" d="M109.1,101.8c-0.4-3.2-1.1-5.9-2-7.9c0,0,0,0,0,0c-3.1,4-6.1,8.1-9.2,12.1c0,0.9-0.1,1.8-0.1,2.7
					c0,2.6,0.2,5.1,0.5,7.4L109.1,101.8z"/>
			</g>
			<rect x="100.6" y="124.2" class="st1" width="5.7" height="4.1"/>
		</g>
	</g>
	<g>
		<rect x="175.6" y="14.7" class="st1" width="90.9" height="197.3"/>
		<rect x="181.4" y="22.2" class="st1" width="79.3" height="189.9"/>
	</g>
</g>
<g id="OBJECTS">
	<g>
		<g>
			<ellipse class="st0" cx="65.8" cy="233.8" rx="47.1" ry="4.5"/>
			<g>
				<g>
					<path class="st5" d="M77.7,181.9c11.5,0,20.9,11.5,20.9,25.8c0,14.2-9.4,25.8-20.9,25.8c-11.5,0-20.9-11.5-20.9-25.8
						C56.8,193.4,66.1,181.9,77.7,181.9 M77.7,179.1c-6.4,0-12.4,3-16.9,8.5c-4.3,5.3-6.7,12.4-6.7,19.9c0,7.5,2.4,14.6,6.7,19.9
						c4.5,5.5,10.5,8.5,16.9,8.5c6.4,0,12.4-3,16.9-8.5c4.3-5.3,6.7-12.4,6.7-19.9c0-7.5-2.4-14.6-6.7-19.9
						C90.1,182.2,84.1,179.1,77.7,179.1L77.7,179.1z"/>
					<path class="st6" d="M74.3,230.5c-10.3,0-18.8-10.2-18.8-22.8c0-12.6,8.4-22.8,18.8-22.8c10.3,0,18.8,10.2,18.8,22.8
						C93,220.2,84.6,230.5,74.3,230.5z M74.3,187.4c-8.9,0-16.1,9.1-16.1,20.2c0,11.1,7.2,20.2,16.1,20.2s16.1-9.1,16.1-20.2
						C90.4,196.5,83.2,187.4,74.3,187.4z"/>
				</g>
			</g>
			<g>
				<g>
					<path class="st6" d="M106.8,226.2h-0.2c-1.1,0-2-0.9-2-2v-35.9c0-2.3-1.9-4.2-4.2-4.2H93v2.1h7.5c1.2,0,2.1,1,2.1,2.1v35.9
						c0,2.2,1.8,4,4,4h0.2V226.2z"/>
				</g>
				<path class="st7" d="M100,228.8c0-3,1.9-5.5,4.2-5.5c2.3,0,4.2,2.5,4.2,5.5s-1.9,5.5-4.2,5.5C101.9,234.3,100,231.8,100,228.8z"
					/>
				<path class="st5" d="M104.2,224.2c2,0,3.7,2,3.7,4.6c0,2.5-1.7,4.6-3.7,4.6c-2,0-3.7-2-3.7-4.6
					C100.5,226.3,102.1,224.2,104.2,224.2 M104.2,221.5c-3.5,0-6.4,3.3-6.4,7.3s2.9,7.3,6.4,7.3c3.5,0,6.4-3.3,6.4-7.3
					S107.7,221.5,104.2,221.5L104.2,221.5z"/>
				<g>
					<path class="st8" d="M95.8,188.9H69.2c-1.4,0-2.6-1.3-2.6-2.8v-12.9c0-2,1.5-3.6,3.3-3.6h21.6c1.6,0,2.9,1.2,3.3,2.8l2.8,14
						C97.9,187.7,97,188.9,95.8,188.9z"/>
					<line class="st9" x1="68.8" y1="169.7" x2="68.8" y2="182.5"/>
					<path class="st9" d="M90.6,171c0.9,0,1.8,0.6,2.2,1.4c0.5,0.8,0.7,1.7,0.8,2.6c0.6,3,1.1,5.9,1.7,8.9"/>
				</g>
			</g>
			<g>
				<rect x="30" y="149.5" class="st10" width="9" height="2.3"/>
				<path class="st5" d="M30.7,153h-4.3c-1.3,0-2.3-1.1-2.3-2.3l0,0c0-1.3,1.1-2.3,2.3-2.3h4.3c1.3,0,2.3,1.1,2.3,2.3l0,0
					C33,151.9,32,153,30.7,153z"/>
				<path class="st11" d="M65.2,186.7H39.3c-2.1,0-3.8-1.7-3.8-3.8v-33.6c0-1.7,1.4-3.1,3.1-3.1h27.4c1.7,0,3.1,1.4,3.1,3.1v33.6
					C69,185,67.3,186.7,65.2,186.7z"/>
				<path class="st12" d="M40,182.9v-33.6c0-1.7,1.4-3.1,3.1-3.1h-4.5c-1.7,0-3.1,1.4-3.1,3.1v33.6c0,2.1,1.7,3.8,3.8,3.8h4.5
					C41.7,186.7,40,185,40,182.9z"/>
				<path class="st9" d="M48.2,159.3c3,3.5,6,7,9,10.4"/>
				<path class="st9" d="M50.8,157.4c2.1,2.5,4.3,5.1,6.4,7.6"/>
				<path class="st9" d="M52.1,155.6c1.5,1.9,3.1,3.7,4.6,5.6"/>
				<g>
					<g>
						<path class="st5" d="M40.7,171c0-7.3,0-14.6,0-21.9c0-1-1.6-1-1.6,0c0,7.3,0,14.6,0,21.9C39.2,172,40.7,172,40.7,171L40.7,171
							z"/>
					</g>
				</g>
			</g>
			<path class="st5" d="M79.8,206.1c0-2.1-1.3-3.8-3-3.8c-1.7,0-3,1.7-3,3.8c0,2.1,1.4,3.8,3,3.8C78.4,209.9,79.8,208.2,79.8,206.1z
				"/>
			<polygon class="st5" points="78.5,206.9 70.7,188.5 68.3,188.5 76.2,206.9 			"/>
			<polygon class="st5" points="44.6,189 42.2,189 36.4,206.8 38.8,206.8 			"/>
			<rect x="34.7" y="205" class="st5" width="42.9" height="2.1"/>
			<path class="st5" d="M40,206.1c0-2.1-1.4-3.8-3-3.8c-1.7,0-3,1.7-3,3.8c0,2.1,1.4,3.8,3,3.8C38.7,209.9,40,208.2,40,206.1z"/>
			<polygon class="st5" points="40,187.9 38.8,193.8 71.4,193.8 90.4,192.1 90.4,187.9 			"/>
			<g>
				<rect x="74.3" y="219.4" class="st13" width="35.6" height="3.7"/>
				<rect x="74.3" y="219.4" class="st12" width="15" height="3.7"/>
			</g>
			<g>
				<g>
					<path class="st10" d="M78,226.2h-0.2c-1.1,0-2-0.9-2-2v-33.8c0-2.3-1.9-4.2-4.2-4.2h-9v2.1h9c1.2,0,2.1,1,2.1,2.1v33.8
						c0,2.2,1.8,4,4,4H78V226.2z"/>
					<g>
						<path class="st7" d="M71.4,229.8c0-3.3,2-6,4.5-6s4.5,2.7,4.5,6c0,3.3-2,6-4.5,6S71.4,233.1,71.4,229.8z"/>
						<path class="st5" d="M76,224.9c2.2,0,4,2.2,4,5c0,2.7-1.8,5-4,5c-2.2,0-4-2.2-4-5C72,227.1,73.8,224.9,76,224.9 M76,221.9
							c-3.8,0-7,3.5-7,7.9c0,4.4,3.1,7.9,7,7.9c3.8,0,7-3.5,7-7.9C82.9,225.5,79.8,221.9,76,221.9L76,221.9z"/>
					</g>
					<path class="st13" d="M66.4,191.6h-25c-1.4,0-2.6-1.3-2.6-2.8v-12.9c0-2,1.5-3.6,3.3-3.6h20c1.6,0,2.9,1.2,3.3,2.8l2.8,14
						C68.5,190.4,67.6,191.6,66.4,191.6z"/>
				</g>
				<path class="st14" d="M42.7,177.3c-1.3,0-2.6,0.1-3.9,0.4v11.1c0,1.5,1.2,2.8,2.6,2.8h21C58.6,183.1,51.2,177.3,42.7,177.3z"/>
				<g>
					<path class="st5" d="M42.7,177.3c12.5,0,22.6,12.5,22.6,27.9c0,15.4-10.1,27.9-22.6,27.9c-12.5,0-22.6-12.5-22.6-27.9
						C20.1,189.8,30.2,177.3,42.7,177.3 M42.7,174.4c-6.9,0-13.4,3.3-18.3,9.3c-4.7,5.8-7.3,13.5-7.3,21.6s2.6,15.8,7.3,21.6
						c4.8,6,11.3,9.3,18.3,9.3s13.4-3.3,18.3-9.3c4.7-5.8,7.3-13.5,7.3-21.6s-2.6-15.8-7.3-21.6C56.2,177.7,49.7,174.4,42.7,174.4
						L42.7,174.4z"/>
					<path class="st10" d="M39,230c-11.2,0-20.3-11.1-20.3-24.8c0-13.7,9.1-24.8,20.3-24.8c11.2,0,20.3,11.1,20.3,24.8
						C59.3,218.9,50.2,230,39,230z M39,183.3c-9.6,0-17.5,9.8-17.5,21.9c0,12.1,7.8,21.9,17.5,21.9c9.6,0,17.5-9.8,17.5-21.9
						C56.5,193.1,48.7,183.3,39,183.3z"/>
				</g>
				<g>
					<g>
						<path class="st5" d="M42.2,173.1c3.5,0,7,0,10.5,0c1.8,0,3.7,0,5.5,0c0.6,0,1.2,0,1.8,0c1.1,0,2.4-0.2,3.4,0.4
							c1.4,0.9,1.5,3.1,1.8,4.6c0.4,2,0.8,4,1.2,6c0.2,1,1.7,0.6,1.5-0.4c-0.4-1.8-0.7-3.7-1.1-5.5c-0.3-1.6-0.5-3.5-1.4-4.8
							c-1.4-2.1-4-1.7-6.2-1.7c-3.9,0-7.8,0-11.7,0c-1.8,0-3.5,0-5.3,0C41.2,171.6,41.2,173.1,42.2,173.1L42.2,173.1z"/>
					</g>
				</g>
				<path class="st9" d="M63.8,175.8c0.5,2.2,1.1,4.4,1.6,6.6"/>
			</g>
		</g>
		<g>
			<ellipse class="st0" cx="149.9" cy="238.3" rx="30.9" ry="4.9"/>
			<g>
				<g>
					<path class="st15" d="M187.3,110.4c-2.3-8.6-3.6-18.9-8.5-26.5c-0.5-0.8-1.1-1.5-1.8-2.1c-0.8-0.5-1.7-0.8-2.6-0.6
						c-0.9,0.2-1.6,1-2,1.8c-0.4,0.8-0.5,1.8-0.5,2.7c-0.6,8.5,3,17.2,4.9,25.4c0.9,3.7,5.1,5.6,8.4,3.8
						C186.9,114.1,187.7,112.2,187.3,110.4z"/>
				</g>
				<g>
					<path class="st16" d="M201.5,113.8c0.6,0.1,1.3-0.1,1.9-0.2c0.6-0.1,1.2-0.6,1.8-0.8c1.3-0.6,2.3-0.1,3.7-0.5
						c1.4-0.4,1.9-0.6,3.1-1.4c0.4,0.4,0.4,1,0.1,1.5c-0.3,0.5-0.6,0.8-1.7,1.3c-0.5,0.2-0.5,0-0.8,0.5c0.4,1.3,2.6,3.7,3.1,4.1
						c0.6,0.5,1.2,0.6,1.9,0.9c0.3,0.1,0.7,0.3,0.9,0.6c0.2,0.2,0.3,0.6,0.1,0.9c-0.2,0.3-0.8,0.2-1.1,0.1c-0.5-0.2-1.9-0.4-1.9-0.4
						s-0.4-0.3-0.8-0.7c-0.3-0.4-0.7-0.6-1-1.1c1.8,1.9,1.8,1.9,3.5,2.5c0.5,0.2,0.9,0.4,1.2,0.8c0.1,0.3,0.1,0.5-0.2,0.7
						c-0.3,0.2-0.6,0.1-0.8,0c-0.9-0.3-2.1-0.8-2.8-0.9c-1-0.7-1.4-1-2.3-2.1c0,0.1,0.8,1,1.5,1.6c0.5,0.4,1.7,0.9,2.5,1.4
						c0.2,0.1,0.5,0.3,0.5,0.6c0,0.3-0.3,0.5-0.6,0.6c-0.3,0-0.6-0.1-0.8-0.2c-0.5-0.3-1.2-0.3-1.7-0.6c-1.1-0.6-1.8-1.4-2.8-2.3
						c0.5,0.5,0.7,0.9,1.1,1.4c0.5,0.6,1.5,0.8,1.7,1.3c0.2,0.3,0.1,0.8-0.2,0.9c-0.3,0.1-0.7-0.4-0.9-0.4c-1.2-0.4-2.2-1.6-2.9-2.6
						c-0.7-0.8-2.8-3.2-5.4-3.2L201.5,113.8z"/>
					<path class="st15" d="M201.7,122.1l-21.8-7c-1.8-0.6-2.9-2.3-2.8-4.1l0,0c0.3-3.8,4-6.4,7.7-5.2l19.6,6.2L201.7,122.1z"/>
					<path class="st17" d="M188,106.8c-2.2-0.6-4.6-0.4-6.6,0.7"/>
					<path class="st17" d="M188.1,106.9c-1.7,0-3.5,0.7-4.8,1.7"/>
					<path class="st17" d="M188.2,106.7c4.7,1.8,11.6,3.5,16.2,5.3"/>
				</g>
			</g>
			<g>
				<g>
					<g>
						<path class="st18" d="M137.9,224c0,0,5.6,8.1,4,9.2c-1.6,1.1-11.9-9.7-11.9-9.7l3.4-3.3L137.9,224z"/>
						<path class="st16" d="M141.7,210.7l4.3,7.3l-8.1,6c0,0,0.7,2.2-0.2,2.3c-0.9,0.1-5.1-5.4-5.1-5.4L141.7,210.7z"/>
					</g>
					<g>
						<path class="st10" d="M173.7,136.3l1.9,40.7c-0.6,4.7-1.3,9.2-4.5,12.7l-22.7,30.5l-13.2-10.2c0,0,21-26.8,23.8-37.5
							c3.1-11.7-2.4-48.3-2.4-48.3l8.3,1.8c1.7,0.4,3.3,1.1,4.7,2.2l0,0C172,130.1,173.5,133.1,173.7,136.3z"/>
					</g>
					<g>
						<path class="st19" d="M173.7,136.3c-0.1-3.2-1.7-6.2-4.2-8.2c-1.4-1.1-3-1.8-4.7-2.2l-8.3-1.8c0,0,2.9,25.9,2.9,26.7
							c0.5,7.5,0.7,14.9-0.1,19.7c-0.3,12.1-0.8,24.1-1,36.2l12.7-17.1c3.1-3.5,3.9-8,4.5-12.7L173.7,136.3z"/>
					</g>
				</g>
				<g>
					<g>
						<path class="st18" d="M170.4,233.2c0,0,9.3,3.3,8.6,5.1c-0.7,1.8-15.3-0.9-15.3-0.9l0.8-4.7L170.4,233.2z"/>
						<path class="st16" d="M165.6,220.9c0-0.9,0.1-1.9,0.1-2.9c3.5,0.3,5.9,0.4,9.4,0.3c-1,3.5-2.1,7-3.2,10.3c0,0,0,0,0,0
							l-1.4,4.5c0,0,1.8,1.4,1.2,2c-0.6,0.6-7.3-1.4-7.3-1.4L165.6,220.9z"/>
					</g>
					<g>
						<g>
							<path class="st10" d="M175.4,120.9c0,0,9.5,29.2,8.7,55.4c-0.5,15.8-6.8,44.4-6.8,44.4l-16.4-0.7l2.9-37.4
								c0,0-0.9-17.2-1.3-23c-0.4-5.6-7.7-20.5-9-34.2c-0.3-3.6,2.7-6.6,6.2-6.2L175.4,120.9z"/>
						</g>
						<path class="st20" d="M165,143.2c2.5-1.2,4-4,3.7-6.8"/>
						<g>
							<path class="st19" d="M154.2,130.6c3.2,2.8,8.1,4.2,11.9,5c4.4,1,8.8,0.4,13.1-0.9c-2-8.4-3.8-13.9-3.8-13.9l-15.8-1.7
								c-3.6-0.4-6.6,2.6-6.2,6.2C153.6,127.1,153.8,128.9,154.2,130.6z"/>
						</g>
					</g>
				</g>
			</g>
			<g>
				<path class="st19" d="M180.9,73c0.1,2.1,0.2,4.2,0.6,6.2c-1.8,1.3-4.2,1.7-6.3,1.9c-2.5,0.2-5.1,0.2-7.6-0.1
					c-3.9-0.5-7.2-1.8-10.1-4c-0.1-0.1,1.8-6.1,1.9-6.9c0.9-4.9,0-11.1,2.4-15.5c3.1-5.6,10.6-7.9,17-4.6c0,0,0,0,0.1,0
					c3.4,1.8,5,5.9,3.7,9.6c-0.4,1.3-0.9,2.5-1.2,3.8C180.8,66.5,180.8,69.8,180.9,73z"/>
				<g>
					<g>
						<path class="st16" d="M166.2,75.2c0.5-3.3,0.3-6.7-0.4-10c0.7-0.8,1.8-1.2,2.8-1.2c2.1,0,4.2,1.2,5.4,3.2
							c1.1,1.8,1.5,4.3,1,6.5c-0.3,1.3-0.5,7-0.5,7s0.8,0.6,0.8,0.6c1.1,0.9,1.7,2.3,1.6,3.7c-0.2,1.6-1.1,2.6-2.5,3.3
							c-3.1,1.7-7.3,1.8-10.4-0.1c-1.5-0.9-2.8-2.2-2.7-4.1C161.6,79.4,164.2,82,166.2,75.2z"/>
					</g>
					<path class="st21" d="M165.9,65.8c1.9-1.4,4.7-0.8,6.5,0.6c2.2,1.7,3.2,4.5,3.1,7.2c-0.1,2.2-0.5,4.4-0.6,6.6
						c0,0.3-0.1,0.6-0.1,1c-2.6-1.2-4.8-3.4-6.7-5.4c-0.6-0.7-1.2-1.5-1.7-2.3C166.6,70.8,166.4,68.3,165.9,65.8z"/>
				</g>
				<g>
					<path class="st16" d="M162.1,57.7c-0.2,2.4,0.2,4.9,0.7,7.3c1.1,5.4,5.9,10.3,11.3,11.5c0.5,0.1,1.1,0.2,1.6,0.1
						c1.1-0.1,2.1-0.7,2.9-1.5c1.9-2,2.9-4.7,3.5-7.4c0.7-3.2,1-6.4,0.6-9.8c-0.3-2.6-1.8-5-3.7-6.7c-3.7-3.2-9.5-4-13.3-1
						C163.4,52,162.3,54.9,162.1,57.7z"/>
					<path class="st19" d="M175.5,58.4c-0.8,0.7-1.8,1.2-2.8,1.6c-0.8,0.3-1.7,0.5-2.5,0.8c-1.1,0.5-1.5,1.2-2,2.2
						c-0.4,0.8-1,1.7-2.1,1.3c-0.3-0.1-0.6-0.4-0.9-0.4c-0.4,0-0.7,0.4-1,0.7c-0.8,1-1.6,2.1-2.4,3.1c0.1-0.1-0.8-2.1-0.9-2.3
						c-1.7-5.5-0.5-12.6,4.6-16c4.2-2.9,9.7-1.8,13.5,1.3C179.2,53.6,177.7,56.5,175.5,58.4z"/>
					<path class="st19" d="M177.6,49.2c3.5,0.4,6,3.7,6.7,7c0.3,1.4,0.3,2.9,0.1,4.4c-0.2,1.5-1,2.8-1.8,4.2c0-1.9,0-3.2-1-4.9
						c-0.9-1.5-2-2.9-2.9-4.4c-1.1-1.9-1.7-4.1-1.7-6.3C177.2,49.2,177.4,49.2,177.6,49.2z"/>
				</g>
				<g>
					<g>
						<g>
							<path class="st19" d="M173.8,65.2c1.2,0,1.2-1.9,0-1.9C172.6,63.3,172.6,65.2,173.8,65.2L173.8,65.2z"/>
						</g>
						<g>
							<path class="st19" d="M181,66.3c1.2,0,1.2-1.9,0-1.9C179.8,64.4,179.8,66.3,181,66.3L181,66.3z"/>
						</g>
					</g>
					<path class="st22" d="M178.8,63.1c-0.8,0.8-0.4,1.6-0.1,2.5c0.3,0.9,0.4,1.8,0.6,2.8c0.1,0.5,0.2,0.7-0.1,1
						c-0.3,0.3-1,0.4-1.4,0.6"/>
					<path class="st22" d="M178.4,72c-1.1,0.6-2.6,0.4-3.5-0.4"/>
					<path class="st23" d="M182.7,62.3c-0.8-0.5-1.9-0.6-2.8-0.1"/>
					<path class="st23" d="M175.9,61.7c-1.2-1-3.1-1.3-4.6-0.6"/>
				</g>
				<g>
					<g>
						<path class="st24" d="M169.4,73.9l-5-5c-0.1-0.1-0.2-0.2-0.2-0.4l-0.6-4.9c-0.1-0.6,0.7-1,1.1-0.6l4.7,4.2"/>
						<path class="st10" d="M175.1,78l0.6,0.1c1.1,0.1,2.3,0,3.4-0.4c2.2-1,2.7-2.7,3.1-5.7l0.4-3.3c0.1-0.6-0.4-1.1-1-1.2L170,66.1
							c-0.6-0.1-1.2,0.3-1.3,0.9l-0.4,3.3C167.8,74,170.9,77.5,175.1,78z"/>
						<line class="st25" x1="181.2" y1="69.4" x2="172.2" y2="68.3"/>
						<line class="st25" x1="181" y1="71.2" x2="172" y2="70.1"/>
						<line class="st25" x1="180.7" y1="73.1" x2="171.8" y2="72"/>
						<line class="st25" x1="180.5" y1="75" x2="171.5" y2="73.8"/>
					</g>
					<g>
						<path class="st16" d="M166.2,65c-0.3-1-1.3-1.9-2.3-2.3c-1.8-0.7-2.7,1.1-2.3,2.6c0.4,2,2,4.5,4.3,4.2"/>
						<path class="st22" d="M162.6,65.3c-0.2-0.4,0-1,0.4-1c1-0.1,1.5,1.3,1.6,2c-0.4-0.1-0.7,0.4-0.5,0.8c0.2,0.4,0.6,0.6,1,0.6"/>
					</g>
				</g>
			</g>
			<g>
				<path class="st15" d="M180.5,98c0.1-0.7-2.2-11.5-3-14.1c-0.2-0.7-0.8-3-1.2-1.5c-0.3,1.1-0.4,1.9-1.4,2.6
					c-1.2,0.9-2.8,1-4.3,0.7c-2.8-0.6-5.2-2.5-6.5-5c-0.4-0.7-0.4-1-1.2-0.7c-0.6,0.3-1.2,0.6-1.8,0.8c-1.1,0.5-2.1,1.1-3.2,1.6
					c-1.5,0.7-2.6,2.3-2.8,4.2c0.5,5.2,0.8,10.4,0.9,15.5c0.1,8.8-2,17.3-3.7,25.9c8.4,5.4,19.3,6.7,28.7,3.4
					c-0.9-1.4-1.2-3-1.7-4.6c-1.1-3.5-3.3-8-2.7-11.7C177.4,110.6,180.4,98.8,180.5,98z"/>
				<path class="st19" d="M176.6,115c0.1-0.8,0.4-1.9,0.6-3.1c-4.5-2.9-10.4-4-13.4-8.8c-1.7-2.7-2.3-5.9-3.2-8.9
					c-0.1-0.3-0.2-0.6-0.3-0.9c-1.3-2.1-3.1-3.8-4.5-5.8c0,0,0,0.1,0,0.1c-0.1,0.5-0.2,0.9-0.2,1.4c0.9,6.5,1.3,13.2,2,19.7
					c0.1,0.7,0.2,1.4,0.2,2.1c0.1,1.6,0.3,3.2,1.2,4.5c1.1,1.7,3.2,2.5,5,3.3c3.3,1.3,6.7,2.2,10.2,2.8c1.1,0.2,2.2,0.3,3.3,0.4
					C176.8,119.6,176.2,117.2,176.6,115z"/>
				<path class="st17" d="M178.3,86.2c0,0,2.3,8.8,2.2,11.8c-0.2,4.3-3.7,13.2-4,16.8c-0.3,4.1,4,15.8,4,15.8"/>
				<path class="st17" d="M176.2,84.7c-0.7,3.2-5.6,3.2-8.8,0.8"/>
			</g>
		</g>
		<g>
			<ellipse class="st0" cx="210.9" cy="238.5" rx="29.6" ry="4.9"/>
			<g>
				<g>
					<path class="st26" d="M235.5,150.9c-2.4-1.4-3.5-4.4-2.5-7.1l10-28l0.7,0.2c5.5,1.8,8.5,7.7,6.7,13.1l-6.2,18.5
						C242.9,151.3,238.7,152.9,235.5,150.9L235.5,150.9z"/>
					<path class="st26" d="M241.1,140.4l18.2,8.7c3,1.4,4.2,5,2.8,8h0c-1.4,3-5,4.2-8,2.8l-18.2-8.7c-3-1.4-4.2-5-2.8-8l0,0
						C234.6,140.3,238.2,139,241.1,140.4z"/>
					<path class="st27" d="M245.8,142.6c-4.4,0.3-5.8,1-5.8,1"/>
					<path class="st27" d="M245.8,142.6c-0.5-1.3-3.6-2-5.6-0.8"/>
					<path class="st16" d="M265.1,161.8c1.4-1.6,2.9-3.3,4.5-4.6c-0.7-0.4-1.3-0.8-1.5-1.2c0,0,0,0,0-0.1c-0.1-0.2-0.1-0.6,0-0.9
						c0,0,0,0,0,0c0-0.1,0.1-0.2,0.1-0.2c0.2-0.4,1.5-0.4,2.2-1c0.7-0.6,0-1.2,0-1.2s-2,0.9-3.6,0.8c-1.6,0-2.4,1.2-3.2,1.4
						c-0.2,0.1-0.6,0.1-1.6-0.3c-1.5-0.6-3,0.9-2.6,2.6c0,0,0,0,0,0.1c0.2,0.8,0.7,1.4,1.4,1.6c0.5,0.1,1.3,0.5,1.6,0.9
						C262.9,160.5,263.7,161,265.1,161.8z"/>
					<path class="st28" d="M268.3,156.2c-0.1-0.1-0.1-0.1-0.2-0.2c0,0,0,0,0-0.1c-0.1-0.2-0.1-0.5,0-0.7c-0.6,0.8-1.9,2.4-3.6,2.5
						C264.5,157.7,266.5,158.5,268.3,156.2z"/>
					<g>
						<path class="st29" d="M260.3,152.2l-2.5,6.7c-0.3,0.9,0.1,1.9,1,2.3l1.8,0.7l3.7-10l-1.8-0.7
							C261.7,150.8,260.7,151.3,260.3,152.2z"/>
						<line class="st30" x1="260.6" y1="151.4" x2="264.2" y2="152.5"/>
						<line class="st30" x1="260" y1="153.1" x2="263.6" y2="154.1"/>
						<line class="st30" x1="259.4" y1="154.7" x2="263" y2="155.8"/>
						<line class="st30" x1="258.8" y1="156.3" x2="262.4" y2="157.4"/>
						<line class="st30" x1="258.2" y1="158" x2="261.8" y2="159.1"/>
						<line class="st30" x1="257.6" y1="159.6" x2="261.2" y2="160.7"/>
					</g>
					<g>
						<path class="st31" d="M241.7,119.2l-8.8,24.7c-0.9,2.5,0,5.3,2.2,6.9c0,0,0.1,0.1,0.1,0.1l11.3-26L241.7,119.2z"/>
					</g>
				</g>
				<g>
					<path class="st32" d="M266.5,165.6v-4.1c0-1.9,1.6-3.5,3.5-3.5l0,0c1.9,0,3.5,1.6,3.5,3.5v77.7"/>
					<g>
						<g>
							<path class="st16" d="M265.6,160.6c0.4,0.2,0.7,0.4,1,0.6c-0.1-0.1-0.2-0.2-0.3-0.2c0.3,0.3,0.7,0.6,0.9,0.9
								c-0.1-0.1-0.2-0.2-0.2-0.3c0,0.1,0.1,0.1,0.1,0.2c0.1,0.2,0.2,0.3,0.4,0.4c0.2,0.1,0.3,0.2,0.5,0.3c0.2,0.1,0.4,0.1,0.6,0
								c0.2,0,0.4-0.1,0.6-0.2c0.3-0.2,0.6-0.5,0.7-0.9c0.1-0.4,0.1-0.9-0.2-1.2c-0.3-0.5-0.7-0.9-1.2-1.3c-0.5-0.4-0.9-0.7-1.5-1
								c-0.2-0.1-0.4-0.2-0.6-0.2c-0.2,0-0.4,0-0.6,0c-0.2,0-0.4,0.1-0.5,0.3c-0.2,0.1-0.3,0.3-0.4,0.4c-0.2,0.4-0.3,0.8-0.2,1.2
								c0.1,0.1,0.1,0.2,0.2,0.4C265.2,160.3,265.4,160.4,265.6,160.6L265.6,160.6z"/>
						</g>
					</g>
					<g>
						<g>
							<path class="st16" d="M266,158.4c0.7,0.8,1.5,1.6,2.2,2.4c0.3,0.3,0.7,0.5,1.1,0.5c0.4,0,0.8-0.2,1.1-0.5
								c0.3-0.3,0.5-0.7,0.5-1.1c0-0.4-0.2-0.8-0.5-1.1c-0.7-0.8-1.5-1.6-2.2-2.4c-0.3-0.3-0.7-0.5-1.1-0.5c-0.4,0-0.8,0.2-1.1,0.5
								c-0.3,0.3-0.5,0.7-0.5,1.1C265.6,157.7,265.7,158.1,266,158.4L266,158.4z"/>
						</g>
					</g>
					<g>
						<g>
							<path class="st16" d="M267.9,157.4C267.9,157.4,267.9,157.4,267.9,157.4c0,0-0.1-0.1-0.2-0.2c0.2,0.2,0.5,0.4,0.7,0.7
								c-0.1-0.1-0.2-0.2-0.2-0.3c0.2,0.3,0.4,0.6,0.5,0.9c-0.1-0.1-0.1-0.2-0.2-0.4c0.1,0.3,0.2,0.6,0.3,0.9c0-0.1,0-0.3-0.1-0.4
								c0,0.1,0,0.2,0,0.4c0,0.4,0.2,0.8,0.5,1.1c0.3,0.3,0.7,0.5,1.1,0.5c0.4,0,0.8-0.2,1.1-0.5c0.3-0.3,0.5-0.7,0.5-1.1
								c0-0.9-0.3-1.7-0.7-2.4c-0.2-0.4-0.4-0.7-0.7-1c-0.3-0.3-0.6-0.6-0.9-0.8c-0.3-0.2-0.9-0.3-1.2-0.2c-0.4,0.1-0.8,0.4-0.9,0.7
								c-0.2,0.4-0.3,0.8-0.2,1.2c0.1,0.1,0.1,0.2,0.2,0.4C267.4,157.1,267.6,157.3,267.9,157.4L267.9,157.4z"/>
						</g>
					</g>
					<g>
						<g>
							<path class="st16" d="M269,161.2c-0.1-0.3-0.3-0.5-0.5-0.7c-0.2-0.2-0.5-0.4-0.7-0.6c-0.3-0.2-0.5-0.3-0.8-0.4
								c-0.3-0.1-0.6-0.1-0.9-0.2c-0.2,0-0.4,0-0.6,0.1c-0.2,0.1-0.4,0.2-0.5,0.3c-0.2,0.1-0.3,0.3-0.3,0.5
								c-0.1,0.2-0.1,0.4-0.1,0.6c0,0.1,0,0.3,0.1,0.4c0.1,0.3,0.2,0.5,0.4,0.7c0.1,0.1,0.2,0.2,0.3,0.2c0.2,0.1,0.5,0.2,0.8,0.2
								c0,0,0.1,0,0.1,0c-0.1,0-0.3,0-0.4-0.1c0.2,0,0.3,0.1,0.5,0.1c-0.1-0.1-0.2-0.1-0.4-0.2c0.2,0.1,0.3,0.2,0.4,0.3
								c-0.1-0.1-0.2-0.2-0.3-0.2c0.1,0.1,0.3,0.2,0.4,0.4c-0.1-0.1-0.2-0.2-0.2-0.3c0.1,0.1,0.1,0.2,0.2,0.3
								c0.1,0.2,0.2,0.3,0.4,0.4c0.2,0.1,0.3,0.2,0.5,0.3c0.2,0.1,0.4,0.1,0.6,0c0.2,0,0.4-0.1,0.6-0.2c0.3-0.2,0.6-0.5,0.7-0.9
								c0-0.1,0-0.3,0.1-0.4C269.2,161.7,269.1,161.4,269,161.2L269,161.2z"/>
						</g>
					</g>
				</g>
			</g>
			<g>
				<g>
					<g>
						<path class="st31" d="M226.3,230.6c0,0,12.5,4.4,11.6,6.9c-0.9,2.4-20.2-1-20.2-1l0.6-6.5L226.3,230.6z"/>
						<path class="st16" d="M226.7,214.2l-0.4,16.3c0,0,2.5,1.9,1.6,2.7s-9.5-3.4-9.5-3.4l-1.5-17.1L226.7,214.2z"/>
					</g>
					<g>
						<g>
							<g>
								<path class="st33" d="M210.6,221.8c3.1,2.5,10.3,4.5,14.4,4c1.1-0.1,2.1-0.4,3.2-0.7c6.8-19.6,6.1-41.2,6.1-41.2
									s-5.2-15-11.4-29.7c-1.4-3.4-4.6-5.6-8.3-5.8c-0.2,0-0.3,0-0.5,0c-7.4-0.5-12.4,7.3-9,13.8c6.1,11.6,12.4,22.5,12.4,22.5
									S216.5,205.3,210.6,221.8z"/>
							</g>
						</g>
					</g>
					<g>
						<g>
							<g>
								<path class="st31" d="M217.5,184.6c0,0-0.8,16.8-5.3,32.2c3-8.1,5.9-16.3,8-24.7c0.9-3.7,1.5-7.6,0.4-11.3
									c-1-3.6-2.8-7-4-10.5c-2.4-7-5-14-8.1-20.7c-4,2.4-5.9,7.8-3.5,12.4C211.2,173.7,217.5,184.6,217.5,184.6z"/>
							</g>
						</g>
					</g>
					<path class="st34" d="M217.7,184.2c2.1,1.5,5.3,1.4,7.6,0.3"/>
					<path class="st34" d="M217.3,184.2c1.7,3,5.2,3.9,8.5,3.3"/>
					<polyline class="st35" points="212.6,164.8 221.2,186.2 212.8,223.1 					"/>
				</g>
				<g>
					<g>
						<path class="st31" d="M194.6,230.6c0,0,12.5,4.4,11.6,6.9c-0.9,2.4-20.2-1-20.2-1l0.6-6.5L194.6,230.6z"/>
						<path class="st16" d="M201.8,214.2l-7.2,16.3c0,0,2.5,1.9,1.6,2.7c-0.9,0.9-9.5-3.4-9.5-3.4l5.3-17.1L201.8,214.2z"/>
					</g>
					<g>
						<g>
							<g>
								<path class="st33" d="M183.7,217.9c0,0,0,0.1,0,0.1c2.4,3.2,8.8,7,12.8,7.4c1.1,0.1,2.1,0.2,3.2,0.1c0,0,0.1,0,0.1,0
									c11.4-17,16.3-37.7,16.4-38.2c0,0,0,0,0,0c0-0.4-1.2-16-3.4-31.5c-0.5-3.7-3.1-6.7-6.6-7.8c-0.1,0-2.2-1.8-2.3-1.8
									c-7.1-2.3-10.5,8.4-8.9,15.7c2.8,12.4,4.6,21.3,4.8,21.9c0,0,0,0,0,0.1C199.5,184.7,193.4,203.8,183.7,217.9z"/>
							</g>
						</g>
					</g>
					<g>
						<g>
							<line class="st36" x1="199.9" y1="151.2" x2="200.2" y2="153.5"/>
							<polyline class="st37" points="200.7,158.1 203.7,184.6 189.1,217.1 							"/>
							<line class="st36" x1="188.2" y1="219.2" x2="187.2" y2="221.3"/>
						</g>
					</g>
					<path class="st34" d="M199.9,183.5c2.1,1.8,5.2,2.2,7.6,0.9"/>
					<path class="st34" d="M199.7,183.9c0.6,2.1,2.6,3.8,4.8,3.9"/>
				</g>
				<path class="st31" d="M208,158.8c5.2,1.7,10.4,3,15.6,4.1c0.5-1.5,0.8-3.1,0.9-4.8c-0.2-0.6-0.5-1.2-0.7-1.7
					c-3.7-0.7-7.4-1.4-11.1-2.7c-5-1.7-9.7-4-14.5-6.2c-1.7,1.6-2.8,4.2-3.3,7.1C199.4,155.8,203.7,157.3,208,158.8z"/>
			</g>
			<g>
				<g>
					<path class="st29" d="M226.6,150c-9.4-2.4-17.7-6.5-26.8-9.9c-1.3-0.5-2.2,0.7-2.8,2.3c-0.8,2.1-1.9,5.7-1.9,8.3
						c9.9,3.6,19.1,8.8,29.2,11.7c0.8-2.5,1.8-7,2.6-9.1C227.5,151.8,227.8,150.3,226.6,150z"/>
					<g>
						<g>
							<path class="st31" d="M197.5,151.6c0.5-3.9,1.7-7.7,3.1-11.4c0.3-0.9-1.1-1.3-1.4-0.4c-1.5,3.8-2.6,7.7-3.1,11.8
								C195.9,152.6,197.4,152.5,197.5,151.6L197.5,151.6z"/>
						</g>
					</g>
					<g>
						<g>
							<path class="st31" d="M201.2,153.4c0.8-4,2-7.9,3.4-11.8c0.3-0.9-1.1-1.3-1.4-0.4c-1.4,3.8-2.6,7.8-3.4,11.8
								C199.6,153.9,201,154.3,201.2,153.4L201.2,153.4z"/>
						</g>
					</g>
					<g>
						<g>
							<path class="st31" d="M204.7,155.1c1-3.9,2-7.8,3.5-11.6c0.3-0.9-1.1-1.3-1.4-0.4c-1.5,3.8-2.5,7.7-3.5,11.6
								C203,155.6,204.4,156,204.7,155.1L204.7,155.1z"/>
						</g>
					</g>
					<g>
						<g>
							<path class="st31" d="M208.1,156c1.1-3.8,2.2-7.6,3.5-11.3c0.3-0.9-1.1-1.3-1.4-0.4c-1.4,3.7-2.5,7.5-3.5,11.3
								C206.4,156.6,207.8,157,208.1,156L208.1,156z"/>
						</g>
					</g>
					<g>
						<g>
							<path class="st31" d="M211.2,157.5c1.1-3.7,2.1-7.4,3.5-11c0.3-0.9-1.1-1.3-1.4-0.4c-1.4,3.6-2.4,7.3-3.5,11
								C209.5,158,210.9,158.4,211.2,157.5L211.2,157.5z"/>
						</g>
					</g>
					<g>
						<g>
							<path class="st31" d="M214.2,158.8c1.1-3.8,2.1-7.7,3.5-11.4c0.3-0.9-1.1-1.3-1.4-0.4c-1.4,3.7-2.4,7.6-3.5,11.4
								C212.6,159.3,214,159.7,214.2,158.8L214.2,158.8z"/>
						</g>
					</g>
					<g>
						<g>
							<path class="st31" d="M217.2,160.1c1.2-4.1,2.1-8.2,3.7-12.1c0.4-0.9-1.1-1.3-1.4-0.4c-1.6,3.9-2.5,8.1-3.7,12.1
								C215.6,160.6,217,161,217.2,160.1L217.2,160.1z"/>
						</g>
					</g>
					<g>
						<g>
							<path class="st31" d="M220.3,161.2c1.1-4,1.9-8.1,3.4-11.9c0.3-0.9-1.1-1.3-1.4-0.4c-1.4,3.9-2.3,8-3.4,11.9
								C218.6,161.7,220,162.1,220.3,161.2L220.3,161.2z"/>
						</g>
					</g>
					<g>
						<g>
							<path class="st31" d="M223.3,162.1c1-4,1.5-8.2,3.3-12c0.4-0.8-0.9-1.6-1.3-0.7c-1.9,3.9-2.4,8.2-3.5,12.3
								C221.7,162.6,223.1,163,223.3,162.1L223.3,162.1z"/>
						</g>
					</g>
				</g>
				<path class="st26" d="M226.3,109.7c1.8-0.2,3.5-0.1,5.3,0.2c7.6,1.5,15,10.3,14.6,18.2c-0.2,2.9-1.3,6.1-3.4,8.3
					c-2.2,2.4-5,4.1-7,6.8c-2.2,3-3.8,6.5-4.8,10.1c-0.6,2-1,4.1-2.6,5.4c-1.4,1.2-3.5,1.5-5.4,1.1c-1.9-0.4-3.5-1.3-5.2-2.2
					c-5.2-2.9-10.3-5.7-15.5-8.6c-1.7-0.9-3.5-1.9-4.6-3.5c-1.3-1.8-1.7-4.2-1.3-6.5c0.3-2.2,1.3-4.3,2.3-6.3
					c4.4-8.6,10.7-16.6,19.5-20.7C220.8,110.7,223.5,109.9,226.3,109.7z"/>
				<g>
					<g>
						<path class="st31" d="M221.2,122.1C221.2,122.1,221.4,122.1,221.2,122.1c0,0,0.1,0,0.1,0.1c0.1,0,0.2,0.1,0.2,0.1
							c0.2,0.1,0.3,0.2,0.5,0.3c0.1,0.1,0.2,0.1,0.2,0.2c-0.1-0.1,0,0,0,0c0,0,0.1,0.1,0.1,0.1c0.2,0.1,0.3,0.3,0.5,0.4
							c0.7,0.6,1.4,1.1,2.2,1.4c0.4,0.1,0.9-0.2,1-0.5c0.1-0.4-0.1-0.8-0.5-1c0,0-0.2-0.1-0.1,0c0.1,0.1,0,0-0.1,0
							c-0.1,0-0.2-0.1-0.2-0.1c-0.2-0.1-0.3-0.2-0.5-0.3c-0.1-0.1-0.2-0.1-0.2-0.2c0.1,0.1,0,0,0,0c0,0-0.1-0.1-0.1-0.1
							c-0.2-0.1-0.3-0.3-0.5-0.4c-0.7-0.6-1.4-1.1-2.2-1.4c-0.4-0.1-0.9,0.2-1,0.5C220.5,121.5,220.8,121.9,221.2,122.1L221.2,122.1
							z"/>
					</g>
				</g>
				<path class="st31" d="M212.4,122.7c2.7-0.3,5.4-0.6,8.1-0.7c2.3,0,4.7,0,7-0.3c1.4-0.1,5.4-0.3,5.8-2.2c0.3-1.5-2.5-3.2-3.5-3.9
					c-1.9-1.3-4-2.4-6.2-3.4c-1-0.5-2.1-1-3.1-1.3c-0.7,0.3-1.5,0.6-2.2,0.9c-5.6,2.6-10.2,6.8-13.9,11.7
					C207,123.3,209.7,123,212.4,122.7z"/>
				<path class="st38" d="M217.6,121.7c2.2,0.1,7.2,0.5,9.4,0.5"/>
				<g>
					<g>
						<g>
							<g>
								<path class="st31" d="M245.6,133.6c-3.9,3.2-7.9,6.4-10.9,10.5c-1.5,2.1-2.6,4.3-3.4,6.7c-0.2,0.7-0.5,1.3-0.6,2
									c-0.2,0.6-0.2,1.3-0.3,2c-0.2,1.1-0.6,2.2-1.4,3c-1.7,1.9-4.3,2.1-6.6,1.7c-0.7-0.1-0.9,0.9-0.3,1c2.2,0.3,4.6,0.3,6.5-1
									c0.9-0.6,1.6-1.4,2.1-2.3c0.6-1.1,0.7-2.2,0.9-3.5c0.2-1.4,0.8-2.9,1.4-4.2c0.5-1.2,1.1-2.4,1.8-3.5c1.3-2.1,2.9-4,4.7-5.7
									c2.2-2.1,4.6-4.1,7-6C246.8,133.9,246.1,133.2,245.6,133.6L245.6,133.6z"/>
							</g>
						</g>
					</g>
				</g>
			</g>
			<g>
				<path class="st26" d="M196.3,111.8c0.8-2.8,3.4-4.6,6.3-4.4l24.3,2.1c3.2,0.3,6,2.3,7.1,5.3l0,0c1.4,3.6-1.5,7.4-5.3,7l-27-2.5
					C197.8,119.2,195.2,115.5,196.3,111.8L196.3,111.8z"/>
				<g>
					<path class="st26" d="M205.9,116.4l-9.6,18.2c-1.6,3-5.2,4.1-8.2,2.6l0,0c-3-1.6-4.1-5.2-2.6-8.2l9.6-18.2
						c1.6-3,5.2-4.1,8.2-2.6l0,0C206.3,109.8,207.4,113.4,205.9,116.4z"/>
					<path class="st39" d="M203.7,120.5c1.3-2.2-0.5-5.6-0.5-5.6"/>
					<path class="st39" d="M203.7,120.5c1.7-1,1.1-4.8,1.1-4.8"/>
					<path class="st16" d="M181.8,141.4c0.5-0.5,1.3-1.2,1.3-1.2c0.9-1.5,1.5-2.3,2.4-2.8c0.4-0.3,0.8-1.1,1-1.6
						c0.2-0.7,0.9-1.2,1.7-1.3c0,0,0,0,0.1,0c1.8-0.3,3.3,1.3,2.6,2.8c-0.4,1-0.4,1.3-0.4,1.6c0.2,0.9,1.4,1.7,1.3,3.3
						c-0.1,1.6,0.7,3.7,0.7,3.7s-0.7,0.6-1.3-0.1c-0.6-0.7-0.6-2-1-2.3c-0.1-0.1-0.1-0.1-0.2-0.1c0,0,0,0,0,0
						c-0.3-0.1-0.6-0.2-0.9-0.1c0,0,0,0-0.1,0c-0.9,0.5-1.9,2.4-2.2,3.4c-0.4,1.3-1.1,3-1.9,2.4c-0.8-0.6,0.7-2.2,1.4-5l0,0
						c0-0.2-2.4,2.3-3.4,4c-0.6,1.1-1.6,0.2-1.3-0.4c0.2-0.4,2.6-4.2,2.8-4.5l0,0c-2.2,1.7-3.3,3.5-4.1,3.2
						c-0.6-0.2-0.4-1.1,0.3-1.7c0.3-0.2,2.1-2.2,2.6-2.7c-2,1-2.6,1.9-3.2,1.6C179.6,143.2,181.1,142.1,181.8,141.4z"/>
					<g>
						<path class="st29" d="M192.9,135.5l-6.7-2.5c-0.9-0.3-1.9,0.1-2.3,1l-0.7,1.8l10,3.7l0.7-1.8
							C194.3,136.8,193.8,135.8,192.9,135.5z"/>
						<line class="st30" x1="193.7" y1="135.8" x2="192.6" y2="139.3"/>
						<line class="st30" x1="192" y1="135.2" x2="191" y2="138.7"/>
						<line class="st30" x1="190.4" y1="134.6" x2="189.3" y2="138.1"/>
						<line class="st30" x1="188.8" y1="133.9" x2="187.7" y2="137.5"/>
						<line class="st30" x1="187.1" y1="133.3" x2="186" y2="136.9"/>
						<line class="st30" x1="185.5" y1="132.7" x2="184.4" y2="136.3"/>
					</g>
				</g>
			</g>
			<g>
				<path class="st10" d="M249,120.5l0.6,1.2c1.6,2.9,0.6,4.7-0.8,7.3l-4.7,8.1l-1-7.6l-7.3,2.1l-0.7-9.4l-6.3,0.5l5.6-6.8
					c2.7-2.3,4.8-2.5,8.5-0.9l0,0C245.5,116.1,247.7,118.1,249,120.5z"/>
				<g>
					<g>
						<g>
							<path class="st16" d="M247.4,126.5c-2.9,0.9-10.3,3.6-10.3,3.6s1.5-9.4,1.6-13.3c1.1-1.1,2.2-2.1,3.3-3.2
								c0,0,0.1-0.1,0.1-0.1c1.3-1.4,2.3-3.1,3.2-4.7c0.5-0.9,1-1.9,1.4-2.9c0.1-0.3,0.7-2.6,0.9-2.6c1.3-0.3,2.7,0.2,3.9,0.9
								c2.4,1.5,3.9,4.2,4.1,7.1c0.2,2.6-0.9,5.3-2.8,7.2C250.5,120.7,248.7,123.5,247.4,126.5z"/>
						</g>
					</g>
					<path class="st21" d="M251.5,104.2c2.4,1.5,3.9,4.2,4.1,7.1c0.2,2.6-0.9,5.3-2.8,7.2c-2.3,2.1-4,4.9-5.3,7.8
						c-3.8-3-6-7.5-6.2-11.9c0.2-0.2,0.5-0.5,0.7-0.7c0,0,0.1-0.1,0.1-0.1c1.3-1.4,2.3-3.1,3.2-4.7c0.5-0.9,1-1.9,1.4-2.9
						c0.1-0.3,0.7-2.6,0.9-2.6C249,103.1,250.4,103.5,251.5,104.2z"/>
				</g>
			</g>
			<g>
				<g>
					<g>
						<path class="st16" d="M245.1,101.9c-4.2,7.7-3.1,18.2,3.6,24.1c1,0.9,2,1.6,3.2,2.3c0.6,0.3,1.2,0.6,1.8,0.7
							c1.4,0.3,2.8-0.1,4-0.7c3-1.7,5.2-4.6,6.9-7.6c2-3.5,3.5-7.3,4.3-11.5c0.6-3.2-0.3-6.6-2.1-9.4c-2.4-3.7-6.8-5.8-11.2-5.5
							C250.9,94.6,247.3,97.8,245.1,101.9z"/>
					</g>
					<path class="st10" d="M252.5,105.5c0.3-1.1,1-2.1,1.4-3.1c5,0.1,9.9,1.7,13.9,4.5c0.7,0.5,1.3,1,2.1,1.1c1.2,0.1,2.3-0.7,3-1.7
						c1.1-1.7,1.1-4,0.2-5.8c-1-1.8-2.9-3-4.9-3.1c-0.8,0-1.6,0.1-2.4-0.1c-1.2-0.3-2-1.4-2.9-2.3c-2.7-2.6-6.4-2.8-9.9-2.5
						c-3.6,0.3-6.9,2.5-9,5.3c-1.7,2.3-2.7,5-3.2,7.8c-0.1,0.8-0.8,3.3-0.2,4c0.7,0.9,2.2-0.3,2.9-0.7c0.7-0.4,1.9-0.8,2.3,0
						c0.5,0.9,0.5,2.3,0.5,3.2c0.7,0.1,1.3,0.2,2,0.3c-0.2,0,0.8-2.4,0.9-2.6c0.5-0.9,1.1-1.7,1.9-2.4c0.8-0.7,1.1-0.8,1.3-1.7
						C252.5,105.6,252.5,105.6,252.5,105.5z"/>
				</g>
				<g>
					<path class="st40" d="M261.5,113.6c-1.2,0.7-0.9,1.8-0.9,2.9c0,1.2,0.4,2.5,0.3,3.4c0,0.4-0.3,1-0.8,1.3
						c-0.5,0.2-1.4,0.2-1.9,0.3"/>
					<path class="st41" d="M266.5,113.8c-0.9-0.9-2.1-1.2-3.3-1"/>
					<path class="st41" d="M258.5,110.7c-1.2-1.6-3.4-2.5-5.4-2"/>
					<path class="st40" d="M267.7,112.5c-1-0.8-1.8-1.3-3-1.5"/>
					<path class="st40" d="M259,108.6c-1.4-1-3.1-1.5-4.8-1.5"/>
					<path class="st40" d="M256.4,114.1c-0.8,1-2.3,1.2-3.3,0.5"/>
					<path class="st40" d="M257.4,106.2c-1-0.5-2.1-0.8-3.3-0.7"/>
					<path class="st40" d="M268.1,110.5c-0.5-0.5-1.1-0.9-1.8-1.1"/>
					<path class="st40" d="M261.6,116c0,1.2,0.8,2.3,2,2.6"/>
					<path class="st42" d="M253.1,112c1.2,0.2,2.3,0.6,3.4,1.1"/>
					<path class="st42" d="M262.2,115c1,0.1,1.9,0.5,2.7,1.2"/>
				</g>
				<g>
					<g>
						<path class="st43" d="M246.8,122.5l-4.1-7.8c-0.1-0.2-0.1-0.4-0.1-0.5l1.1-6.1c0.1-0.8,1.1-0.9,1.5-0.3l4.1,6.7"/>
						<path class="st10" d="M251.7,129l0.7,0.3c1.3,0.6,2.7,0.9,4.2,0.7c3-0.3,4.7-1.8,6.3-5.3l1.7-3.8c0.3-0.7-0.1-1.5-0.8-1.8
							l-13.3-5.9c-0.7-0.3-1.6-0.1-1.9,0.6l-1.7,3.8C244.9,122,246.8,126.9,251.7,129z"/>
						<line class="st44" x1="262.6" y1="121.3" x2="252.2" y2="116.7"/>
						<line class="st44" x1="261.6" y1="123.5" x2="251.3" y2="118.9"/>
						<line class="st44" x1="260.7" y1="125.6" x2="250.3" y2="121"/>
						<line class="st44" x1="259.7" y1="127.8" x2="249.4" y2="123.2"/>
					</g>
					<g>
						<path class="st16" d="M246.2,110.6c0-1.3-0.9-2.8-1.9-3.6c-1.8-1.3-3.3,0.3-3.9,2c-0.9,2.3,0.4,5.5,1.4,7.5
							c0.3,0.6,0.8,1.1,1.5,1.3c0.7,0.2,1.4-0.1,1.7-0.7"/>
						<path class="st40" d="M241.8,109.7c-0.1-0.5,0.4-1.1,0.8-1.1c1.2,0.2,1.3,2.1,1.2,3c-0.5-0.3-0.9,0.3-0.9,0.7
							c0.1,0.5,0.5,0.9,0.9,1.1"/>
					</g>
				</g>
			</g>
		</g>
		<g>
			<g>
				<path class="st15" d="M171.2,110.1l-6.8-25.2c-0.7-2.8-3.9-4.1-6.4-2.7c-1.4,0.8-2.6,2.1-2.9,4.4l5.6,24.2
					c0.9,3.7,5.1,5.6,8.4,3.8l0,0C170.7,113.7,171.6,111.9,171.2,110.1z"/>
				<path class="st17" d="M165.7,89.5c2,8.4,4.7,17,4.7,17"/>
				<line class="st17" x1="166.9" y1="89.4" x2="166.1" y2="91.3"/>
			</g>
			<g>
				<path class="st16" d="M185.3,113.5c0.6,0.1,1.3-0.1,1.9-0.2c0.6-0.1,1.2-0.6,1.8-0.8c1.3-0.6,2.3-0.1,3.7-0.5
					c1.4-0.4,1.9-0.6,3.1-1.4c0.4,0.4,0.4,1,0.1,1.5c-0.3,0.5-0.6,0.8-1.7,1.3c-0.5,0.2-0.5,0-0.8,0.5c0.4,1.3,2.6,3.7,3.1,4.1
					c0.6,0.5,1.2,0.6,1.9,0.9c0.3,0.1,0.7,0.3,0.9,0.6c0.2,0.2,0.3,0.6,0.1,0.9c-0.2,0.3-0.8,0.2-1.1,0.1c-0.5-0.2-1.9-0.4-1.9-0.4
					s-0.4-0.3-0.8-0.7c-0.3-0.4-0.7-0.6-1-1.1c1.8,1.9,1.8,1.9,3.5,2.5c0.5,0.2,0.9,0.4,1.2,0.8c0.1,0.3,0.1,0.5-0.2,0.7
					c-0.3,0.2-0.6,0.1-0.8,0c-0.9-0.3-2.1-0.8-2.8-0.9c-1-0.7-1.4-1-2.3-2.1c0,0.1,0.8,1,1.5,1.6c0.5,0.4,1.7,0.9,2.5,1.4
					c0.2,0.1,0.5,0.3,0.5,0.6c0,0.3-0.3,0.5-0.6,0.6c-0.3,0-0.6-0.1-0.8-0.2c-0.5-0.3-1.2-0.3-1.7-0.6c-1.1-0.6-1.8-1.4-2.8-2.3
					c0.5,0.5,0.7,0.9,1.1,1.4c0.5,0.6,1.5,0.8,1.7,1.3c0.2,0.3,0.1,0.8-0.2,0.9c-0.3,0.1-0.7-0.4-0.9-0.4c-1.2-0.4-2.2-1.6-2.9-2.6
					c-0.7-0.8-2.8-3.2-5.4-3.2L185.3,113.5z"/>
				<path class="st15" d="M185.6,121.8l-21.8-7c-1.8-0.6-2.9-2.3-2.8-4.1l0,0c0.3-3.8,4-6.4,7.7-5.2l19.6,6.2L185.6,121.8z"/>
				<path class="st17" d="M171.8,106.5c-2.2-0.6-4.6-0.4-6.6,0.7"/>
				<path class="st17" d="M171.9,106.6c-1.7,0-3.5,0.7-4.8,1.7"/>
				<path class="st17" d="M172.1,106.4c4.7,1.8,11.6,3.5,16.2,5.3"/>
			</g>
		</g>
	</g>
</g>
</svg>
