<?xml version="1.0" encoding="utf-8"?>
<!-- Generator: Adobe Illustrator 25.1.0, SVG Export Plug-In . SVG Version: 6.00 Build 0)  -->
<svg version="1.1" id="Слой_1" xmlns="http://www.w3.org/2000/svg" xmlns:xlink="http://www.w3.org/1999/xlink" x="0px" y="0px"
	 viewBox="0 0 300 265" style="enable-background:new 0 0 300 265;" xml:space="preserve">
<style type="text/css">
	.st0{fill:#939598;}
	.st1{fill:#231F20;}
	.st2{fill:#FFFFFF;}
	.st3{fill:url(#SVGID_1_);}
	.st4{fill:#757575;}
	.st5{fill:#DFE1E8;}
	.st6{fill:#26A69A;}
	.st7{fill:#C0CA33;}
	.st8{fill:#F4511E;}
	.st9{fill:#FFA000;}
	.st10{fill:#0288D1;}
	.st11{opacity:0.2;fill:#757575;enable-background:new    ;}
	.st12{opacity:0.2;}
	.st13{opacity:0.25;fill:#757575;enable-background:new    ;}
	.st14{opacity:0.25;}
	.st15{fill:#EEF0F7;}
	.st16{fill:#D9C7C1;}
	.st17{fill:#EEA987;}
	.st18{fill:#E8734D;}
	.st19{fill:#C78D71;}
	.st20{fill:#EDDAD3;}
	.st21{fill:#5073AB;}
	.st22{fill:#323657;}
	.st23{fill:#FDFAEE;}
	.st24{fill:#E78660;}
	.st25{fill:#633837;}
	.st26{fill:#321413;}
	.st27{fill:#CE7959;}
	.st28{fill:#884627;}
	.st29{fill:#F5F7FF;}
	.st30{fill:#949494;}
	.st31{fill:#FFBF55;}
	.st32{fill:#F3F3F3;}
	.st33{fill:#BDAFAA;}
	.st34{fill:#706865;}
	.st35{fill:#B5DEFF;}
	.st36{fill:#EEA886;}
	.st37{fill:#DB9C7C;}
	.st38{fill:#4DA8F2;}
	.st39{fill:#EFAA88;}
	.st40{fill:#424773;}
	.st41{fill:#292C47;}
	.st42{fill:#E2D2CA;}
</style>
<g>
	<g>
		<g>
			<rect x="145.2" y="165.9" class="st0" width="32.1" height="95.5"/>
		</g>
		<g>
			<path class="st1" d="M40.4,211.8h241.7c9.9,0,17.9-8,17.9-17.9V38.3c0-9.9-8-17.9-17.9-17.9H40.4c-9.9,0-17.9,8-17.9,17.9v155.6
				C22.4,203.8,30.5,211.8,40.4,211.8z"/>
		</g>
		<g>
			<rect x="33.3" y="0" class="st2" width="255.8" height="181.8"/>
		</g>
		<g>
			
				<linearGradient id="SVGID_1_" gradientUnits="userSpaceOnUse" x1="33.3203" y1="255.0175" x2="289.1468" y2="255.0175" gradientTransform="matrix(1 0 0 -1 0 266)">
				<stop  offset="0" style="stop-color:#FF9F55"/>
				<stop  offset="1" style="stop-color:#FFD255"/>
			</linearGradient>
			<polygon class="st3" points="33.3,22 289.1,22 289.1,0 33.3,0 			"/>
		</g>
		<g>
			<path class="st4" d="M152.3,195.6c0,4.8,4,8.8,9,8.8s9-3.9,9-8.8c0-4.8-4-8.8-9-8.8C156.3,186.8,152.3,190.7,152.3,195.6z"/>
		</g>
		<g>
			<g>
				<g>
					<path class="st5" d="M112.5,44.1h83.4c1.8,0,3.3-1.5,3.3-3.3v0c0-1.8-1.5-3.3-3.3-3.3h-83.4c-1.8,0-3.3,1.5-3.3,3.3v0
						C109.3,42.6,110.7,44.1,112.5,44.1z"/>
				</g>
			</g>
		</g>
		<g>
			<g>
				<g>
					<path class="st5" d="M112.5,55.8h83.4c1.8,0,3.3-1.5,3.3-3.3v0c0-1.8-1.5-3.3-3.3-3.3h-83.4c-1.8,0-3.3,1.5-3.3,3.3v0
						C109.3,54.4,110.7,55.8,112.5,55.8z"/>
				</g>
			</g>
		</g>
		<g>
			<g>
				<g>
					<path class="st5" d="M112.5,67.6h83.4c1.8,0,3.3-1.5,3.3-3.3v0c0-1.8-1.5-3.3-3.3-3.3h-83.4c-1.8,0-3.3,1.5-3.3,3.3v0
						C109.3,66.1,110.7,67.6,112.5,67.6z"/>
				</g>
			</g>
		</g>
		<g>
			<g>
				<g>
					<g>
						<path class="st5" d="M155.6,169H59.7c-8,0-14.5-6.4-14.5-14.2v-57c0-7.8,6.5-14.2,14.5-14.2h95.9c8,0,14.5,6.4,14.5,14.2v57
							C170.1,162.7,163.6,169,155.6,169z M59.7,85.4c-7,0-12.7,5.6-12.7,12.4v57c0,6.8,5.7,12.4,12.7,12.4h95.9
							c7,0,12.7-5.6,12.7-12.4v-57c0-6.8-5.7-12.4-12.7-12.4C155.6,85.4,59.7,85.4,59.7,85.4z"/>
					</g>
				</g>
			</g>
		</g>
		<g>
			<g>
				<g>
					<path class="st6" d="M55.3,158.4l-0.9-0.5c0.1-0.2,2.6-5.3,7.2-10.1c6.1-6.4,12.9-9.2,19.6-8c2.1,0.4,4.8,1.3,7.6,2.2
						c4.7,1.6,10.1,3.4,15.2,3.6c5.8,0.2,10.1-1.8,13.2-6.1c0.8-1.2,1.7-2.4,2.6-3.8c3.6-5.3,7.7-11.4,14.1-16.2
						c7.5-5.5,16.8-8.2,28.4-8.2v1c-25.6,0-34.5,13.3-41.7,24c-0.9,1.3-1.8,2.6-2.6,3.8c-7.4,10.3-20.2,6-29.6,2.8
						c-2.8-0.9-5.4-1.8-7.4-2.2c-6.5-1.1-12.8,1.5-18.7,7.7C57.9,153.2,55.4,158.3,55.3,158.4z"/>
				</g>
				<g>
					<path class="st7" d="M55.3,158.6l-1-0.1c0-0.2,0.4-4.5,2.3-9.8c1.8-4.9,5.1-11.5,11.4-15.1c7.2-4.2,16.7-3.6,28,1.8
						c0.7,0.4,1.5,0.7,2.4,1.1c6,2.8,14.1,6.7,22.6,9c9.9,2.6,18,2.3,24.1-1c0.5-0.3,1-0.6,1.6-0.9c4.1-2.3,9.8-5.6,16.3-3.9l-0.3,1
						c-6.1-1.6-11.5,1.5-15.5,3.8c-0.6,0.3-1.1,0.6-1.6,0.9c-6.3,3.4-14.7,3.7-24.8,1.1c-8.6-2.3-16.8-6.2-22.8-9
						c-0.8-0.4-1.6-0.8-2.3-1.1c-11-5.2-20.1-5.8-27.1-1.8C57,141.1,55.3,158.4,55.3,158.6z"/>
				</g>
				<g>
					<path class="st8" d="M54.7,159.1l-1-0.3c0.1-0.3,2.1-7.6,8.9-14.9c4-4.3,8.7-7.8,14.2-10.3c6.8-3.1,14.7-4.7,23.4-4.7
						c8.7,0,17,1,33.8,6l0.2,0c6.9,2.1,19.8,6,27.7-4.2l0.8,0.6c-3.6,4.6-8.7,7-15,7.1c-5.3,0.1-10.4-1.5-13.8-2.5l-0.2,0
						c-16.5-5-24.7-6-33.2-6c-0.1,0-0.2,0-0.2,0c-19.5,0-30.8,8-36.9,14.6C56.7,151.7,54.7,159,54.7,159.1z"/>
				</g>
				<g>
					<path class="st9" d="M54.6,158.9l-1-0.3c0.1-0.3,3-8.5,11.1-15.3c4.7-4,10.3-6.7,16.6-8c7.8-1.6,16.6-1.1,26.2,1.6
						c1,0.3,2.1,0.6,3.3,0.9c7.3,2.1,18.2,5.2,28.3,5.9c11.8,0.9,19.6-1.8,23.2-8l0.9,0.5c-3.8,6.5-12,9.4-24.2,8.5
						c-10.1-0.8-21.2-3.9-28.5-6c-1.2-0.3-2.3-0.7-3.3-0.9c-21.4-5.9-34.6,0.1-41.8,6.3C57.5,150.7,54.7,158.8,54.6,158.9z"/>
				</g>
				<g>
					<path class="st10" d="M55.1,158.5l-1-0.1c0-0.1,0.8-7.8,3.6-17c2.7-8.5,7.7-19.9,16.8-26.2c7.1-5,15.7-6.2,25.4-3.6
						c3.5,0.9,8.1,3,13.3,5.4c14.2,6.5,31.8,14.6,39.6,4.2c2.6-3.4,9.3-14.6,9.3-14.7l0.9,0.5c-0.3,0.5-6.8,11.3-9.4,14.8
						c-3.7,4.9-9.7,6.5-18.4,4.6c-7.3-1.6-15.4-5.3-22.6-8.6c-5-2.3-9.7-4.5-13.2-5.4c-9.4-2.5-17.7-1.3-24.5,3.4
						c-8.8,6.2-13.8,17.4-16.4,25.7C55.8,150.7,55.1,158.4,55.1,158.5z"/>
				</g>
				<circle class="st10" cx="162.4" cy="106.9" r="2"/>
				<circle class="st6" cx="162.5" cy="112" r="2"/>
				<circle class="st8" cx="162.5" cy="131" r="2"/>
				<circle class="st9" cx="162.5" cy="135.9" r="2"/>
				<circle class="st7" cx="162.5" cy="140.2" r="2"/>
				<circle class="st6" cx="135.7" cy="119" r="2"/>
				<circle class="st6" cx="99.4" cy="145.5" r="2"/>
				<circle class="st8" cx="83.4" cy="131.8" r="2"/>
				<circle class="st10" cx="99.4" cy="112.2" r="2"/>
				<circle class="st8" cx="135.3" cy="135.8" r="2"/>
				<circle class="st7" cx="135.5" cy="147.5" r="2"/>
			</g>
			<g>
				<g>
					<g>
						<path class="st11" d="M52,150.1v0.2h-1v-0.2h0.4v-1.3c0,0,0,0-0.1,0.1c0,0-0.1,0-0.1,0.1c0,0-0.1,0-0.1,0.1s-0.1,0-0.1,0v-0.2
							c0,0,0.1,0,0.2,0c0.1,0,0.1-0.1,0.2-0.1c0,0,0.1-0.1,0.1-0.1c0,0,0,0,0.1-0.1h0.2v1.5L52,150.1L52,150.1z"/>
					</g>
					<g>
						<path class="st11" d="M50.8,140.9c0-0.1,0-0.1,0-0.2c0-0.1,0-0.1,0.1-0.2s0.1-0.1,0.2-0.2c0.1-0.1,0.1-0.1,0.2-0.2
							c0,0,0.1-0.1,0.2-0.1c0.1,0,0.1-0.1,0.2-0.1c0.1,0,0.1-0.1,0.1-0.1s0-0.1,0-0.2c0,0,0-0.1,0-0.1c0,0,0-0.1-0.1-0.1
							c0,0-0.1,0-0.1-0.1c0,0-0.1,0-0.2,0c-0.1,0-0.1,0-0.2,0c0,0-0.1,0-0.1,0.1c0,0-0.1,0-0.1,0.1c0,0,0,0-0.1,0.1l-0.1-0.1
							c0,0,0,0,0.1-0.1c0,0,0.1-0.1,0.1-0.1c0.1,0,0.1-0.1,0.2-0.1c0.1,0,0.2,0,0.2,0c0.1,0,0.2,0,0.2,0c0.1,0,0.1,0.1,0.2,0.1
							c0,0,0.1,0.1,0.1,0.2c0,0.1,0,0.1,0,0.2c0,0.1,0,0.2-0.1,0.2c0,0.1-0.1,0.1-0.1,0.2c-0.1,0-0.1,0.1-0.2,0.1
							c-0.1,0-0.1,0-0.1,0.1c-0.1,0-0.2,0.1-0.2,0.1s-0.1,0.1-0.1,0.1c0,0-0.1,0.1-0.1,0.1c0,0,0,0.1,0,0.2h1v0.1H50.8z"/>
					</g>
					<g>
						<path class="st11" d="M51.6,130.9c0.1,0,0.2,0.1,0.3,0.2c0.1,0.1,0.1,0.2,0.1,0.4c0,0.1,0,0.2,0,0.2c0,0.1-0.1,0.1-0.1,0.2
							c-0.1,0-0.1,0.1-0.2,0.1c-0.1,0-0.2,0-0.3,0c-0.2,0-0.3,0-0.4-0.1c-0.1-0.1-0.2-0.1-0.2-0.2l0.1-0.1c0,0.1,0.1,0.2,0.2,0.2
							c0.1,0,0.2,0.1,0.3,0.1c0.1,0,0.3,0,0.3-0.1c0.1-0.1,0.1-0.2,0.1-0.3c0-0.1,0-0.2-0.1-0.3c-0.1-0.1-0.2-0.1-0.4-0.1h-0.1v-0.2
							h0.1c0.2,0,0.3,0,0.3-0.1c0.1-0.1,0.1-0.2,0.1-0.3c0-0.1,0-0.1,0-0.2c0,0,0-0.1-0.1-0.1c0,0-0.1-0.1-0.1-0.1c0,0-0.1,0-0.2,0
							c-0.1,0-0.2,0-0.3,0.1c-0.1,0-0.2,0.1-0.2,0.2l-0.1-0.1c0,0,0.1-0.1,0.1-0.1c0,0,0.1-0.1,0.1-0.1c0.1,0,0.1,0,0.2-0.1
							c0.1,0,0.1,0,0.2,0c0.1,0,0.2,0,0.2,0s0.1,0.1,0.2,0.1c0.1,0,0.1,0.1,0.1,0.2c0,0.1,0,0.1,0,0.2c0,0.1,0,0.1,0,0.2
							c0,0.1,0,0.1-0.1,0.1c0,0-0.1,0.1-0.1,0.1C51.8,130.9,51.7,130.9,51.6,130.9z"/>
					</g>
					<g>
						<path class="st11" d="M51.7,122.7v-0.5h-1V122l1-1.4h0.1v1.3h0.3v0.2h-0.3v0.5L51.7,122.7L51.7,122.7z M50.9,122h0.8v-1
							L50.9,122z"/>
					</g>
					<g>
						<path class="st11" d="M51.4,112.1c0.1,0,0.2,0,0.3,0c0.1,0,0.2,0.1,0.2,0.1c0.1,0.1,0.1,0.1,0.1,0.2c0,0.1,0,0.2,0,0.3
							c0,0.1,0,0.2-0.1,0.3c0,0.1-0.1,0.2-0.2,0.2c-0.1,0.1-0.1,0.1-0.2,0.1c-0.1,0-0.2,0-0.3,0c-0.1,0-0.1,0-0.2,0
							c-0.1,0-0.1,0-0.2-0.1c-0.1,0-0.1-0.1-0.2-0.1s-0.1-0.1-0.1-0.2l0.1-0.1c0.1,0.1,0.1,0.2,0.2,0.2c0.1,0.1,0.2,0.1,0.3,0.1
							c0.1,0,0.1,0,0.2,0c0.1,0,0.1-0.1,0.2-0.1c0,0,0.1-0.1,0.1-0.2c0-0.1,0-0.1,0-0.2s0-0.1,0-0.2c0-0.1-0.1-0.1-0.1-0.2
							c0,0-0.1-0.1-0.2-0.1c-0.1,0-0.1,0-0.2,0c-0.1,0-0.2,0-0.3,0.1c-0.1,0-0.2,0.1-0.2,0.2h-0.2c0,0,0,0,0-0.1c0,0,0-0.1,0-0.1
							c0-0.1,0-0.1,0-0.2c0-0.1,0-0.1,0-0.2c0-0.2,0.1-0.4,0.1-0.6h1v0.2h-0.9l-0.1,0.8c0-0.1,0.1-0.1,0.2-0.1
							C51.3,112.1,51.4,112.1,51.4,112.1z"/>
					</g>
					<g class="st12">
						<path class="st4" d="M52.2,103c0,0.1,0,0.2-0.1,0.3c0,0.1-0.1,0.2-0.2,0.2c-0.1,0.1-0.1,0.1-0.2,0.2c-0.1,0-0.2,0.1-0.3,0.1
							s-0.2,0-0.3-0.1c-0.1,0-0.2-0.1-0.2-0.2c-0.1-0.1-0.1-0.2-0.2-0.3s-0.1-0.2-0.1-0.4c0-0.2,0-0.4,0.1-0.6
							c0-0.2,0.1-0.3,0.2-0.4c0.1-0.1,0.2-0.2,0.2-0.2c0.1,0,0.2-0.1,0.3-0.1c0.1,0,0.3,0,0.4,0.1s0.2,0.2,0.2,0.3l-0.1,0.1
							c0-0.1-0.1-0.2-0.2-0.2c-0.1-0.1-0.2-0.1-0.3-0.1c-0.1,0-0.2,0-0.2,0.1c-0.1,0-0.1,0.1-0.2,0.2c0,0.1-0.1,0.2-0.1,0.3
							c0,0.1,0,0.2,0,0.4c0-0.1,0.1-0.2,0.2-0.3c0.1-0.1,0.2-0.1,0.4-0.1c0.1,0,0.2,0,0.3,0.1c0.1,0,0.2,0.1,0.2,0.2
							c0.1,0.1,0.1,0.1,0.2,0.2S52.2,102.9,52.2,103z M51.4,103.6c0.1,0,0.1,0,0.2,0c0.1,0,0.1-0.1,0.2-0.1c0,0,0.1-0.1,0.1-0.2
							c0-0.1,0-0.1,0-0.2s0-0.1,0-0.2s-0.1-0.1-0.1-0.2c0,0-0.1-0.1-0.2-0.1c-0.1,0-0.1,0-0.2,0s-0.1,0-0.2,0
							c-0.1,0-0.1,0.1-0.2,0.1s-0.1,0.1-0.1,0.2c0,0.1,0,0.1,0,0.2s0,0.1,0,0.2c0,0.1,0.1,0.1,0.1,0.2c0,0,0.1,0.1,0.2,0.1
							C51.3,103.6,51.4,103.6,51.4,103.6z"/>
					</g>
				</g>
				<g>
					<g>
						<path class="st11" d="M52.2,161.4c0,0.1,0,0.2-0.1,0.4c0,0.1-0.1,0.2-0.2,0.3c-0.1,0.1-0.1,0.1-0.2,0.2
							c-0.1,0-0.2,0.1-0.3,0.1s-0.2,0-0.3-0.1c-0.1,0-0.2-0.1-0.2-0.2s-0.1-0.2-0.2-0.3c0-0.1-0.1-0.2-0.1-0.4c0-0.1,0-0.2,0.1-0.4
							c0-0.1,0.1-0.2,0.2-0.3c0.1-0.1,0.1-0.1,0.2-0.2c0.1,0,0.2-0.1,0.3-0.1s0.2,0,0.3,0.1c0.1,0,0.2,0.1,0.2,0.2s0.1,0.2,0.2,0.3
							C52.1,161.1,52.2,161.2,52.2,161.4z M52,161.4c0-0.1,0-0.2,0-0.3s-0.1-0.2-0.1-0.2c0-0.1-0.1-0.1-0.2-0.1c-0.1,0-0.1,0-0.2,0
							c-0.1,0-0.2,0-0.2,0c-0.1,0-0.1,0.1-0.2,0.1c0,0.1-0.1,0.1-0.1,0.2c0,0.1,0,0.2,0,0.3c0,0.1,0,0.2,0,0.3
							c0,0.1,0.1,0.2,0.1,0.2c0,0.1,0.1,0.1,0.2,0.1c0.1,0,0.1,0,0.2,0s0.2,0,0.2,0c0.1,0,0.1-0.1,0.2-0.1c0-0.1,0.1-0.1,0.1-0.2
							C51.9,161.6,52,161.5,52,161.4z"/>
					</g>
					<g>
						<path class="st11" d="M64,162v0.2h-1V162h0.4v-1.3c0,0,0,0-0.1,0.1c0,0-0.1,0-0.1,0.1c0,0-0.1,0-0.1,0.1c0,0-0.1,0-0.1,0v-0.2
							c0,0,0.1,0,0.2,0c0.1,0,0.1-0.1,0.2-0.1c0,0,0.1-0.1,0.1-0.1c0,0,0,0,0.1-0.1h0.2v1.5H64z"/>
					</g>
					<g>
						<path class="st11" d="M71.8,162.2c0-0.1,0-0.1,0-0.2c0-0.1,0-0.1,0.1-0.2c0-0.1,0.1-0.1,0.2-0.2c0.1-0.1,0.1-0.1,0.2-0.2
							c0.1,0,0.1-0.1,0.2-0.1c0.1,0,0.1-0.1,0.2-0.1c0.1,0,0.1-0.1,0.1-0.1c0,0,0-0.1,0-0.2c0,0,0-0.1,0-0.1c0,0,0-0.1-0.1-0.1
							c0,0-0.1,0-0.1-0.1c0,0-0.1,0-0.2,0s-0.1,0-0.2,0c0,0-0.1,0-0.1,0.1c0,0-0.1,0-0.1,0.1c0,0,0,0-0.1,0.1l-0.1-0.1
							c0,0,0,0,0.1-0.1c0,0,0.1-0.1,0.1-0.1c0.1,0,0.1-0.1,0.2-0.1c0.1,0,0.2,0,0.2,0c0.1,0,0.2,0,0.2,0c0.1,0,0.1,0.1,0.2,0.1
							c0,0,0.1,0.1,0.1,0.2c0,0.1,0,0.1,0,0.2c0,0.1,0,0.2-0.1,0.2c0,0.1-0.1,0.1-0.1,0.2c-0.1,0-0.1,0.1-0.2,0.1
							c-0.1,0-0.1,0-0.1,0.1c-0.1,0-0.2,0.1-0.2,0.1c-0.1,0-0.1,0.1-0.1,0.1c0,0-0.1,0.1-0.1,0.1c0,0,0,0.1,0,0.2h1v0.2L71.8,162.2
							L71.8,162.2z"/>
					</g>
					<g>
						<path class="st11" d="M81.7,161.5c0.1,0,0.2,0.1,0.3,0.2c0.1,0.1,0.1,0.2,0.1,0.4c0,0.1,0,0.2,0,0.2c0,0.1-0.1,0.1-0.1,0.2
							c-0.1,0-0.1,0.1-0.2,0.1s-0.2,0-0.3,0c-0.2,0-0.3,0-0.4-0.1c-0.1-0.1-0.2-0.1-0.2-0.2l0.1-0.1c0,0.1,0.1,0.2,0.2,0.2
							c0.1,0,0.2,0.1,0.3,0.1c0.1,0,0.3,0,0.3-0.1c0.1-0.1,0.1-0.2,0.1-0.3c0-0.1,0-0.2-0.1-0.3c-0.1-0.1-0.2-0.1-0.4-0.1h-0.1v-0.2
							h0.1c0.2,0,0.3,0,0.3-0.1c0.1-0.1,0.1-0.2,0.1-0.3c0-0.1,0-0.1,0-0.2c0,0,0-0.1-0.1-0.1c0,0-0.1-0.1-0.1-0.1c0,0-0.1,0-0.2,0
							c-0.1,0-0.2,0-0.3,0.1c-0.1,0-0.2,0.1-0.2,0.2l-0.1-0.1c0,0,0.1-0.1,0.1-0.1c0,0,0.1-0.1,0.1-0.1c0.1,0,0.1,0,0.2-0.1
							c0.1,0,0.1,0,0.2,0c0.1,0,0.2,0,0.2,0s0.1,0.1,0.2,0.1c0.1,0,0.1,0.1,0.1,0.2c0,0.1,0,0.1,0,0.2c0,0.1,0,0.1,0,0.2
							c0,0.1,0,0.1-0.1,0.1c0,0-0.1,0.1-0.1,0.1C81.8,161.5,81.7,161.5,81.7,161.5z"/>
					</g>
					<g>
						<path class="st11" d="M90.7,162.6v-0.5h-1v-0.2l1-1.4h0.1v1.3h0.3v0.2h-0.3v0.5L90.7,162.6L90.7,162.6z M89.9,161.9h0.8v-1
							L89.9,161.9z"/>
					</g>
					<g>
						<path class="st11" d="M99.4,161.3c0.1,0,0.2,0,0.3,0c0.1,0,0.2,0.1,0.2,0.1c0.1,0.1,0.1,0.1,0.1,0.2c0,0.1,0,0.2,0,0.3
							c0,0.1,0,0.2-0.1,0.3c0,0.1-0.1,0.2-0.2,0.2c-0.1,0.1-0.1,0.1-0.2,0.1c-0.1,0-0.2,0-0.3,0c-0.1,0-0.1,0-0.2,0
							c-0.1,0-0.1,0-0.2-0.1c-0.1,0-0.1-0.1-0.2-0.1c0,0-0.1-0.1-0.1-0.2l0.1-0.1c0.1,0.1,0.1,0.2,0.2,0.2c0.1,0.1,0.2,0.1,0.3,0.1
							c0.1,0,0.1,0,0.2,0c0.1,0,0.1-0.1,0.2-0.1c0,0,0.1-0.1,0.1-0.2c0-0.1,0-0.1,0-0.2c0-0.1,0-0.1,0-0.2s-0.1-0.1-0.1-0.2
							c0,0-0.1-0.1-0.2-0.1c-0.1,0-0.1,0-0.2,0c-0.1,0-0.2,0-0.3,0.1s-0.2,0.1-0.2,0.2h-0.2c0,0,0,0,0-0.1c0,0,0-0.1,0-0.1
							c0-0.1,0-0.1,0-0.2c0-0.1,0-0.1,0-0.2c0-0.2,0.1-0.4,0.1-0.6h1v0.2h-0.9l-0.1,0.8c0-0.1,0.1-0.1,0.2-0.1
							C99.3,161.3,99.3,161.3,99.4,161.3z"/>
					</g>
					<g>
						<path class="st11" d="M109.2,161.5c0,0.1,0,0.2-0.1,0.3c0,0.1-0.1,0.2-0.2,0.2c-0.1,0.1-0.1,0.1-0.2,0.2s-0.2,0.1-0.3,0.1
							c-0.1,0-0.2,0-0.3-0.1s-0.2-0.1-0.2-0.2c-0.1-0.1-0.1-0.2-0.2-0.3c0-0.1-0.1-0.2-0.1-0.4c0-0.2,0-0.4,0.1-0.6
							c0-0.2,0.1-0.3,0.2-0.4c0.1-0.1,0.2-0.2,0.2-0.2c0.1,0,0.2-0.1,0.3-0.1c0.1,0,0.3,0,0.4,0.1c0.1,0.1,0.2,0.2,0.2,0.3l-0.1,0.1
							c0-0.1-0.1-0.2-0.2-0.2c-0.1-0.1-0.2-0.1-0.3-0.1c-0.1,0-0.2,0-0.2,0.1c-0.1,0-0.1,0.1-0.2,0.2c0,0.1-0.1,0.2-0.1,0.3
							c0,0.1,0,0.2,0,0.4c0-0.1,0.1-0.2,0.2-0.3c0.1-0.1,0.2-0.1,0.4-0.1c0.1,0,0.2,0,0.3,0.1c0.1,0,0.2,0.1,0.2,0.2
							c0.1,0.1,0.1,0.1,0.2,0.2C109.2,161.4,109.2,161.4,109.2,161.5z M108.4,162.1c0.1,0,0.1,0,0.2,0c0.1,0,0.1-0.1,0.2-0.1
							c0,0,0.1-0.1,0.1-0.2c0-0.1,0-0.1,0-0.2c0-0.1,0-0.1,0-0.2c0-0.1-0.1-0.1-0.1-0.2c0,0-0.1-0.1-0.2-0.1c-0.1,0-0.1,0-0.2,0
							s-0.1,0-0.2,0c-0.1,0-0.1,0.1-0.2,0.1c0,0-0.1,0.1-0.1,0.2c0,0.1,0,0.1,0,0.2c0,0.1,0,0.1,0,0.2c0,0.1,0.1,0.1,0.1,0.2
							c0,0,0.1,0.1,0.2,0.1C108.3,162.1,108.4,162.1,108.4,162.1z"/>
					</g>
					<g>
						<path class="st11" d="M117.9,160.7h-1.1v-0.2h1.4l-1.1,2.1h-0.2L117.9,160.7z"/>
					</g>
					<g>
						<path class="st11" d="M127.1,161.7c0,0.1,0,0.2-0.1,0.2c0,0.1-0.1,0.1-0.2,0.2c-0.1,0-0.1,0.1-0.2,0.1c-0.1,0-0.2,0-0.3,0
							c-0.1,0-0.2,0-0.3,0c-0.1,0-0.2-0.1-0.2-0.1s-0.1-0.1-0.2-0.2c0-0.1,0-0.2,0-0.2c0-0.1,0-0.1,0-0.2c0-0.1,0.1-0.1,0.1-0.2
							c0,0,0.1-0.1,0.1-0.1c0,0,0.1-0.1,0.2-0.1c0,0-0.1,0-0.1-0.1c0,0-0.1-0.1-0.1-0.1c0,0-0.1-0.1-0.1-0.1c0,0,0-0.1,0-0.1
							c0-0.1,0-0.2,0.1-0.2c0-0.1,0.1-0.1,0.2-0.2s0.1-0.1,0.2-0.1c0.1,0,0.2,0,0.2,0c0.1,0,0.2,0,0.2,0c0.1,0,0.1,0.1,0.2,0.1
							c0.1,0,0.1,0.1,0.2,0.2c0,0.1,0.1,0.1,0.1,0.2c0,0,0,0.1,0,0.1c0,0,0,0.1-0.1,0.1c0,0-0.1,0.1-0.1,0.1c0,0-0.1,0-0.1,0.1
							c0.1,0,0.1,0,0.2,0.1c0,0,0.1,0.1,0.1,0.1c0,0,0.1,0.1,0.1,0.2C127.1,161.5,127.1,161.6,127.1,161.7z M126.9,161.6
							c0-0.1,0-0.1,0-0.2c0-0.1-0.1-0.1-0.1-0.1c0,0-0.1-0.1-0.2-0.1c-0.1,0-0.1,0-0.2,0c-0.1,0-0.1,0-0.2,0s-0.1,0-0.2,0.1
							c0,0-0.1,0.1-0.1,0.1c0,0.1,0,0.1,0,0.2c0,0.1,0,0.1,0,0.2c0,0.1,0.1,0.1,0.1,0.1c0,0,0.1,0.1,0.2,0.1c0.1,0,0.1,0,0.2,0
							c0.1,0,0.1,0,0.2,0c0.1,0,0.1,0,0.2-0.1c0,0,0.1-0.1,0.1-0.1C126.9,161.8,126.9,161.7,126.9,161.6z M126,160.7
							c0,0.1,0,0.1,0,0.2c0,0,0.1,0.1,0.1,0.1c0,0,0.1,0.1,0.1,0.1c0.1,0,0.1,0,0.2,0c0,0,0.1,0,0.2,0c0.1,0,0.1,0,0.1-0.1
							c0,0,0.1-0.1,0.1-0.1c0,0,0-0.1,0-0.2s0-0.1,0-0.2c0,0-0.1-0.1-0.1-0.1c0,0-0.1-0.1-0.1-0.1c-0.1,0-0.1,0-0.2,0s-0.1,0-0.2,0
							c-0.1,0-0.1,0-0.1,0.1c0,0-0.1,0.1-0.1,0.1C126,160.6,126,160.6,126,160.7z"/>
					</g>
					<g>
						<path class="st11" d="M134.7,161.3c0-0.1,0-0.2,0.1-0.3c0-0.1,0.1-0.2,0.2-0.2c0.1-0.1,0.1-0.1,0.2-0.2s0.2-0.1,0.3-0.1
							c0.1,0,0.2,0,0.3,0.1c0.1,0,0.2,0.1,0.2,0.2c0.1,0.1,0.1,0.2,0.2,0.3c0,0.1,0.1,0.2,0.1,0.4c0,0.2,0,0.4-0.1,0.6
							c0,0.2-0.1,0.3-0.2,0.4c-0.1,0.1-0.2,0.2-0.2,0.2c-0.1,0-0.2,0.1-0.3,0.1c-0.1,0-0.3,0-0.4-0.1c-0.1-0.1-0.2-0.2-0.2-0.3
							l0.1-0.1c0,0.1,0.1,0.2,0.2,0.2c0.1,0.1,0.2,0.1,0.3,0.1c0.1,0,0.2,0,0.2-0.1c0.1,0,0.1-0.1,0.2-0.2c0-0.1,0.1-0.2,0.1-0.3
							c0-0.1,0-0.2,0-0.4c0,0.1-0.1,0.2-0.2,0.3c-0.1,0.1-0.2,0.1-0.4,0.1c-0.1,0-0.2,0-0.3-0.1c-0.1,0-0.2-0.1-0.2-0.2
							c-0.1-0.1-0.1-0.1-0.2-0.2C134.7,161.5,134.7,161.4,134.7,161.3z M135.4,160.7c-0.1,0-0.1,0-0.2,0c-0.1,0-0.1,0.1-0.2,0.1
							c0,0-0.1,0.1-0.1,0.2c0,0.1,0,0.1,0,0.2c0,0.1,0,0.1,0,0.2c0,0.1,0.1,0.1,0.1,0.2c0,0,0.1,0.1,0.2,0.1c0.1,0,0.1,0,0.2,0
							c0.1,0,0.1,0,0.2,0c0.1,0,0.1-0.1,0.2-0.1c0,0,0.1-0.1,0.1-0.2c0-0.1,0-0.1,0-0.2c0-0.1,0-0.1,0-0.2c0-0.1-0.1-0.1-0.1-0.2
							c0,0-0.1-0.1-0.2-0.1C135.5,160.7,135.5,160.7,135.4,160.7z"/>
					</g>
					<g>
						<path class="st11" d="M144.1,162v0.2h-1V162h0.4v-1.3c0,0,0,0-0.1,0.1c0,0-0.1,0-0.1,0.1c0,0-0.1,0-0.1,0.1c0,0-0.1,0-0.1,0
							v-0.2c0,0,0.1,0,0.2,0s0.1-0.1,0.2-0.1c0,0,0.1-0.1,0.1-0.1c0,0,0,0,0.1-0.1h0.2v1.5H144.1z"/>
						<path class="st11" d="M145.8,161.4c0,0.1,0,0.2-0.1,0.4c0,0.1-0.1,0.2-0.2,0.3c-0.1,0.1-0.1,0.1-0.2,0.2
							c-0.1,0-0.2,0.1-0.3,0.1s-0.2,0-0.3-0.1c-0.1,0-0.2-0.1-0.2-0.2c-0.1-0.1-0.1-0.2-0.2-0.3c0-0.1-0.1-0.2-0.1-0.4
							c0-0.1,0-0.2,0.1-0.4c0-0.1,0.1-0.2,0.2-0.3c0.1-0.1,0.1-0.1,0.2-0.2c0.1,0,0.2-0.1,0.3-0.1s0.2,0,0.3,0.1
							c0.1,0,0.2,0.1,0.2,0.2c0.1,0.1,0.1,0.2,0.2,0.3S145.8,161.2,145.8,161.4z M145.6,161.4c0-0.1,0-0.2,0-0.3s-0.1-0.2-0.1-0.2
							c0-0.1-0.1-0.1-0.2-0.1c-0.1,0-0.1,0-0.2,0c-0.1,0-0.2,0-0.2,0c-0.1,0-0.1,0.1-0.2,0.1c0,0.1-0.1,0.1-0.1,0.2s0,0.2,0,0.3
							c0,0.1,0,0.2,0,0.3c0,0.1,0.1,0.2,0.1,0.2c0,0.1,0.1,0.1,0.2,0.1c0.1,0,0.1,0,0.2,0s0.2,0,0.2,0c0.1,0,0.1-0.1,0.2-0.1
							c0-0.1,0.1-0.1,0.1-0.2C145.5,161.6,145.6,161.5,145.6,161.4z"/>
					</g>
					<g>
						<path class="st11" d="M153.3,162v0.2h-1V162h0.4v-1.3c0,0,0,0-0.1,0.1c0,0-0.1,0-0.1,0.1c0,0-0.1,0-0.1,0.1c0,0-0.1,0-0.1,0
							v-0.2c0,0,0.1,0,0.2,0c0.1,0,0.1-0.1,0.2-0.1c0,0,0.1-0.1,0.1-0.1c0,0,0,0,0.1-0.1h0.2v1.5H153.3z"/>
						<path class="st11" d="M154.6,162v0.2h-1V162h0.4v-1.3c0,0,0,0-0.1,0.1c0,0-0.1,0-0.1,0.1c0,0-0.1,0-0.1,0.1c0,0-0.1,0-0.1,0
							v-0.2c0,0,0.1,0,0.2,0c0.1,0,0.1-0.1,0.2-0.1c0,0,0.1-0.1,0.1-0.1c0,0,0,0,0.1-0.1h0.2v1.5H154.6z"/>
					</g>
					<g>
						<g>
							<rect x="54.4" y="102.6" class="st13" width="107.9" height="0.3"/>
						</g>
						<g>
							<rect x="54.4" y="112" class="st13" width="107.9" height="0.3"/>
						</g>
						<g>
							<rect x="54.4" y="121.3" class="st13" width="107.9" height="0.3"/>
						</g>
						<g>
							<rect x="54.4" y="130.6" class="st13" width="107.9" height="0.3"/>
						</g>
						<g>
							<rect x="54.4" y="139.9" class="st13" width="107.9" height="0.3"/>
						</g>
						<g>
							<rect x="54.4" y="149.2" class="st13" width="107.9" height="0.3"/>
						</g>
						<g>
							<g>
								<rect x="153.2" y="93.5" class="st13" width="0.3" height="65.1"/>
							</g>
							<g>
								<rect x="144.2" y="93.5" class="st13" width="0.3" height="65.1"/>
							</g>
							<g>
								<rect x="135.3" y="93.5" class="st13" width="0.3" height="65.1"/>
							</g>
							<g>
								<rect x="126.3" y="93.5" class="st13" width="0.3" height="65.1"/>
							</g>
							<g>
								<rect x="117.3" y="93.5" class="st13" width="0.3" height="65.1"/>
							</g>
							<g>
								<rect x="108.3" y="93.5" class="st13" width="0.3" height="65.1"/>
							</g>
							<g>
								<rect x="99.3" y="93.5" class="st13" width="0.3" height="65.1"/>
							</g>
							<g>
								<rect x="90.3" y="93.5" class="st13" width="0.3" height="65.1"/>
							</g>
							<g>
								<rect x="81.3" y="93.5" class="st13" width="0.3" height="65.1"/>
							</g>
							<g>
								<rect x="72.3" y="93.5" class="st13" width="0.3" height="65.1"/>
							</g>
							<g>
								<rect x="63.3" y="93.5" class="st13" width="0.3" height="65.1"/>
							</g>
							<g class="st14">
								<polygon class="st4" points="162.4,159.1 54,159.1 54,93.5 54.9,93.5 54.9,158.2 162.4,158.2 								"/>
							</g>
						</g>
					</g>
					<path class="st4" d="M55.9,158.6c0,0.8-0.7,1.5-1.5,1.5c-0.8,0-1.5-0.7-1.5-1.5s0.7-1.5,1.5-1.5
						C55.2,157.1,55.9,157.8,55.9,158.6z"/>
				</g>
			</g>
		</g>
		<rect x="88.9" y="257.7" class="st1" width="144.6" height="7.2"/>
		<g>
			<path class="st15" d="M260.4,102.4c0,7.5-4.1,14-10.3,17.6c-1.2,0.7-2.6,1.3-3.9,1.8c-0.1,0-0.2,0.1-0.4,0.1
				c-1.9,0.6-4,0.9-6.2,0.9c-3.3,0-6.5-0.8-9.3-2.1c-6.8-3.3-11.6-10.2-11.6-18.2c0-11.2,9.3-20.4,20.8-20.4
				C251.1,82,260.4,91.1,260.4,102.4z"/>
		</g>
		<g>
			<path class="st15" d="M268.1,43c0,14.6-12.1,26.5-27.1,26.5c-15,0-27.1-11.9-27.1-26.5S226,16.5,241,16.5
				C255.9,16.5,268.1,28.4,268.1,43z"/>
			<g>
				<g>
					<path class="st16" d="M258.6,57.6l-2,7c-3.6,2.5-7.8,4.1-12.3,4.7c-0.8,0.1-1.6,0.2-2.4,0.2c-0.3,0-0.6,0-0.9,0
						c-0.9,0-1.7,0-2.6-0.1c-1-0.1-1.9-0.2-2.8-0.4c-4.1-0.8-7.9-2.5-11.1-4.9c-0.4-2.3-0.8-4.9-1.2-7.3c2-0.7,8.3-2.8,12.3-4.2
						c0.1,0,0.1,0,0.2-0.1c0.1,0,0.2-0.1,0.3-0.1c0.2-0.1,0.5-0.2,0.7-0.2c0.2-0.1,0.4-0.1,0.6-0.2c0.8-0.3,1.4-0.5,1.6-0.5l0,0
						c0.1,0,0.1,0,0.1,0h0l5.4,0.4l0.9,0.1l0.3,0c0,0,0,0,0.1,0c0.3,0.1,1.3,0.3,2.5,0.7l0,0C251.5,53.6,256.7,55.4,258.6,57.6z"/>
				</g>
				<g>
					<path class="st17" d="M242.4,29.9c0,0,6.4,1.1,5.4,10.9s-6.8,9-7.2,9c-0.4,0-5.7,0.1-6-11.9C234.6,37.8,234.5,28.9,242.4,29.9z
						"/>
				</g>
				<g>
					<path class="st17" d="M245.2,46.9c0,0-0.2,4.1,0.2,4.9c0.4,0.9-5.2,3.7-8.6,0.5c0,0,0.7-4.4,0.5-6
						C237,44.8,245.2,46.9,245.2,46.9z"/>
				</g>
				<g>
					<path class="st17" d="M247.9,38c0,0,0.7-0.7,1,0c0.2,0.8-1.1,4.1-1.1,4.2c0,0-0.1,0.3-0.3,0.1C247.3,42.2,247.9,38,247.9,38z"
						/>
				</g>
				<g>
					<path class="st17" d="M234.6,37.7c0,0-0.7-0.8-1,0c-0.3,0.7,0.8,4.1,0.9,4.3c0,0,0.2,0.3,0.4,0.2
						C235.1,42,234.6,37.7,234.6,37.7z"/>
				</g>
				<g>
					<path class="st18" d="M248.3,37.2c-0.2,1.4-0.4,2.3-0.4,2.3l-0.9,1.2c0,0,0.1-2.7-0.1-3.1c-0.1-0.2-0.1-0.4-0.2-0.7
						c-0.1-0.5-0.2-1.1-0.3-1.2c-0.1-0.3-5.5-1.8-10.3,0.3c0,0,0,0.4,0,0.9c0,0.5-0.1,1.1-0.3,1.2c-0.5,0.2-0.3,3.1-0.3,3.1
						l-0.8-0.8c0,0-0.2-1.5-0.4-3.3c0,0,0,0,0,0c0-0.4-0.1-0.8-0.1-1.3c-0.1-1.8,0.1-5,2.4-6.9c1.6-0.7,4.1-1.2,8.4,0
						c0,0,1,0.1,1.2,0.3C248.8,32.1,248.3,37.2,248.3,37.2z"/>
				</g>
				<path class="st19" d="M237.7,48.5c0,0,1,1.4,3.4,1.3c2.4-0.1,3.4-1.3,3.4-1.3s-1.1,2.3-3.4,2.3
					C238.8,50.8,237.7,48.5,237.7,48.5z"/>
				<path class="st17" d="M236.1,52.4c0,0,1.7,2.9,5,3.2c2.1,0.2,3.9-2.4,4.7-3.7C245.8,52,241.2,50,236.1,52.4z"/>
				<path class="st20" d="M245.2,51.1c0,0-1.3,1.7-4.1,3.5l1.8,2.6l3-5.2L245.2,51.1z"/>
				<path class="st20" d="M236.9,51.5c0,0,1.7,2.1,4.2,3.1l-1.9,2.7l-3.3-4.7L236.9,51.5z"/>
				<path class="st21" d="M241.1,54.6l1.5,2.2c0,0-1.6,0.9-3-0.1L241.1,54.6z"/>
				<path class="st22" d="M260.3,57.2c-0.3,0.9-0.6,2.2-1.7,5.8c-0.3,0.3-0.6,0.5-1,0.8c-0.4,0.3-0.7,0.6-1.1,0.8
					c-3.6,2.5-7.8,4.1-12.3,4.7c0.4-9.2,1.5-17.3,1.5-17.3c0.9,0.2,1.7,0.4,2.5,0.7l0,0c6.9,1.9,10.4,3.6,11.5,4.3c0,0,0,0,0,0
					C260.2,57.1,260.3,57.2,260.3,57.2z"/>
				<path class="st22" d="M235.6,69c-4.1-0.8-7.9-2.5-11.1-4.9c-1-0.7-1.9-1.5-2.7-2.3c-0.2-0.2-0.3-0.3-0.5-0.5
					c-0.5-2-0.8-3.3-0.8-3.3l0,0c0,0,3.3-2.1,15.2-5.3c0,0,0,0,0,0C235.7,52.9,235.7,60.3,235.6,69z"/>
				<path class="st21" d="M242,57c-0.1,2.4-0.1,7.1-0.1,12.4c-0.3,0-0.6,0-0.9,0c-0.9,0-1.7,0-2.6-0.1c0.5-6.6,1.4-10.7,1.8-12.3
					c0.1-0.5,0.2-0.8,0.2-0.8l1.6,0.3C242,56.7,242,56.8,242,57z"/>
				<g>
					<path class="st22" d="M261.7,60c-0.9,1.1-1.9,2.1-3,3c-0.3,0.3-0.6,0.5-1,0.8l2.6-6.6C261,57.7,261.5,59.5,261.7,60z"/>
				</g>
				<g>
					<path class="st22" d="M221.7,61.7c-0.2-0.2-0.3-0.3-0.5-0.5c-0.6-0.6-1.2-1.3-1.7-2c0.3-0.7,0.6-1.2,0.9-1.4l0,0L221.7,61.7z"
						/>
				</g>
			</g>
			<g>
				<path class="st23" d="M245.3,41.4c0,0.7-0.6,1.3-1.4,1.3c-0.8,0-1.4-0.6-1.4-1.3c0-0.7,0.6-1.3,1.4-1.3
					C244.7,40.1,245.3,40.6,245.3,41.4z"/>
				<path class="st24" d="M244.4,42.3c-0.3,0-0.5,0.1-0.7,0.1c-0.4,0-0.8-0.2-1-0.5c0.2,0.5,0.7,0.8,1.3,0.8c0.6,0,1.1-0.3,1.3-0.8
					C245,42.1,244.7,42.3,244.4,42.3z"/>
				<g>
					<path class="st25" d="M244.7,41.4c0,0.4-0.4,0.8-0.8,0.8s-0.8-0.4-0.8-0.8s0.4-0.8,0.8-0.8S244.7,41,244.7,41.4z"/>
					<path class="st26" d="M244.4,41.4c0,0.3-0.2,0.5-0.5,0.5s-0.5-0.2-0.5-0.5c0-0.3,0.2-0.5,0.5-0.5
						C244.2,40.9,244.4,41.2,244.4,41.4z"/>
				</g>
				<path class="st24" d="M243,41c0.3-0.1,0.7-0.2,1-0.1c0.5,0,0.9,0.2,1.3,0.5c0-0.7-0.3-1.5-1.4-1.5c-1-0.1-1.3,0.8-1.4,1.5
					C242.7,41.1,242.8,41,243,41z"/>
			</g>
			<g>
				<path class="st23" d="M237.1,41.4c0,0.7,0.6,1.3,1.4,1.3s1.4-0.6,1.4-1.3c0-0.7-0.6-1.3-1.4-1.3S237.1,40.6,237.1,41.4z"/>
				<path class="st24" d="M238,42.3c0.3,0,0.5,0.1,0.7,0.1c0.4,0,0.8-0.2,1-0.5c-0.2,0.5-0.7,0.8-1.3,0.8c-0.6,0-1.1-0.3-1.3-0.8
					C237.4,42.1,237.7,42.3,238,42.3z"/>
				<g>
					<path class="st25" d="M237.7,41.4c0,0.4,0.4,0.8,0.8,0.8s0.8-0.4,0.8-0.8s-0.4-0.8-0.8-0.8C238.1,40.6,237.7,41,237.7,41.4z"/>
					<path class="st26" d="M238,41.4c0,0.3,0.2,0.5,0.5,0.5s0.5-0.2,0.5-0.5c0-0.3-0.2-0.5-0.5-0.5C238.2,40.9,238,41.2,238,41.4z"
						/>
				</g>
				<path class="st24" d="M239.4,41c-0.3-0.1-0.7-0.2-1-0.1c-0.5,0-0.9,0.2-1.3,0.5c0-0.7,0.3-1.5,1.4-1.5c1-0.1,1.3,0.8,1.4,1.5
					C239.8,41.1,239.6,41,239.4,41z"/>
			</g>
			<g>
				<path class="st27" d="M241,45.3c-0.2,0-0.4,0-0.6-0.1c-0.3-0.1-0.5-0.3-0.5-0.6c-0.1-0.3,1-5,1-5c0-0.1,0-0.1,0.1-0.2
					c0.1,0,0.1,0,0.2,0.1c0,0.1-1,4.8-1,5c0,0.1,0.2,0.3,0.4,0.4c0.3,0.1,0.7,0.1,0.9,0c0.1,0,0.1,0,0.2,0c0,0.1,0,0.1,0,0.2
					C241.5,45.3,241.3,45.3,241,45.3z"/>
			</g>
			<path class="st28" d="M242.5,37.5c0,0,1.9-0.1,2.3,0.1c0.5,0.2,1.4,1,1.4,1.3c-0.1,0.3-1.6-0.4-1.8-0.4c-0.2,0-2,0.1-2.1-0.1
				C242.2,38.1,242.2,37.5,242.5,37.5z"/>
			<path class="st28" d="M239.9,37.5c0,0-1.9-0.2-2.3,0c-0.5,0.2-1.4,0.9-1.4,1.2c0.1,0.3,1.6-0.3,1.8-0.3c0.2,0,2,0.2,2.1-0.1
				C240.3,38.1,240.3,37.6,239.9,37.5z"/>
			<path class="st27" d="M244,45.8c-0.2,0-0.2-0.2-0.2-0.2c0-0.1-0.1-0.1-0.2-0.1c-0.1,0-0.1,0.1-0.1,0.2c0,0,0,0.1,0.1,0.2
				c-2.3,1.9-4.6,0.2-5,0c0-0.1,0.1-0.1,0.1-0.2c0-0.1,0-0.1-0.1-0.2c-0.1,0-0.1,0-0.2,0.1c0,0-0.1,0.2-0.2,0.2
				c-0.1,0-0.1,0.1-0.1,0.1c0,0.1,0.1,0.1,0.1,0.1h0c0.1,0,0.1,0,0.2-0.1c0.2,0.1,1.3,1,2.8,1c0.8,0,1.7-0.2,2.6-1
				c0,0,0.1,0,0.2,0.1h0c0.1,0,0.1,0,0.1-0.1C244.1,45.8,244.1,45.8,244,45.8z"/>
			<g>
				<path class="st27" d="M241.2,47.7c-0.7,0-1.2-0.4-1.2-0.4c0,0,0-0.1,0-0.1c0,0,0.1,0,0.1,0c0,0,1,0.7,2.1,0c0,0,0.1,0,0.1,0
					c0,0,0,0.1,0,0.1C241.9,47.6,241.5,47.7,241.2,47.7z"/>
			</g>
		</g>
		<path class="st29" d="M76.6,15.1H47.9c-2.1,0-3.9-1.7-3.9-3.9v-0.6c0-2.1,1.7-3.9,3.9-3.9h28.7c2.1,0,3.9,1.7,3.9,3.9v0.6
			C80.5,13.4,78.8,15.1,76.6,15.1z"/>
		<g>
			<ellipse class="st15" cx="239.6" cy="150.9" rx="20.8" ry="20.4"/>
			<g>
				<path class="st30" d="M239.6,159c-0.6,0-1-0.5-1-1v-14.2c0-0.6,0.5-1,1-1s1,0.5,1,1V158C240.6,158.5,240.1,159,239.6,159z"/>
			</g>
			<g>
				<path class="st30" d="M246.8,151.9h-14.5c-0.6,0-1-0.5-1-1c0-0.6,0.5-1,1-1h14.5c0.6,0,1,0.5,1,1
					C247.9,151.5,247.4,151.9,246.8,151.9z"/>
			</g>
		</g>
		<g>
			<g>
				<path class="st31" d="M194,103.6h-9.2c-2.9,0-5.2-2.3-5.2-5.2v-8.7c0-2.9,2.3-5.2,5.2-5.2h9.2c2.9,0,5.2,2.3,5.2,5.2v8.7
					C199.2,101.3,196.9,103.6,194,103.6z"/>
			</g>
			<g>
				<g>
					<g>
						<path class="st32" d="M188.8,98.3l-4.9-4.2c-0.4-0.3-0.4-1-0.1-1.3c0.4-0.4,1-0.4,1.4-0.1l3.5,3l5-5.4c0.4-0.4,1-0.4,1.4-0.1
							c0.4,0.4,0.4,1,0.1,1.3L188.8,98.3z"/>
					</g>
				</g>
			</g>
		</g>
		<g>
			<g>
				<path class="st31" d="M194,128.1h-9.2c-2.9,0-5.2-2.3-5.2-5.2v-8.7c0-2.9,2.3-5.2,5.2-5.2h9.2c2.9,0,5.2,2.3,5.2,5.2v8.7
					C199.2,125.8,196.9,128.1,194,128.1z"/>
			</g>
			<g>
				<g>
					<g>
						<path class="st32" d="M188.8,122.8l-4.9-4.2c-0.4-0.3-0.4-1-0.1-1.3c0.4-0.4,1-0.4,1.4-0.1l3.5,3l5-5.4c0.4-0.4,1-0.4,1.4-0.1
							c0.4,0.4,0.4,1,0.1,1.3L188.8,122.8z"/>
					</g>
				</g>
			</g>
		</g>
		<g>
			<g>
				<path class="st31" d="M194,152.6h-9.2c-2.9,0-5.2-2.3-5.2-5.2v-8.7c0-2.9,2.3-5.2,5.2-5.2h9.2c2.9,0,5.2,2.3,5.2,5.2v8.7
					C199.2,150.2,196.9,152.6,194,152.6z"/>
			</g>
		</g>
		<path class="st5" d="M55.9,39.6h33.5c3.8,0,6.8,3,6.8,6.8v11.2c0,3.8-3.1,6.8-6.8,6.8H55.9c-3.8,0-6.8-3-6.8-6.8V46.4
			C49.1,42.6,52.2,39.6,55.9,39.6z"/>
		<path class="st33" d="M94.4,211.8H42.4c-4.3,0-7.8-3.5-7.8-7.8v-98.7c0-4.3,3.5-7.8,7.8-7.8h51.9c4.3,0,7.8,3.5,7.8,7.8V204
			C102.2,208.3,98.7,211.8,94.4,211.8z"/>
		<path class="st2" d="M92.6,207.4H44.2c-4.3,0-7.7-3.5-7.7-7.7v-92.6c0-4.3,3.5-7.7,7.7-7.7h48.4c4.3,0,7.7,3.5,7.7,7.7v92.6
			C100.3,203.9,96.9,207.4,92.6,207.4z"/>
		<rect x="58.3" y="96.7" class="st34" width="20.1" height="4.4"/>
		<g>
			<g>
				<g>
					<g>
						<path class="st35" d="M88,203.1H47.2c-3.3,0-6-2.6-6-5.9v-22.8c0-3.2,2.7-5.9,6-5.9H88c3.3,0,6,2.6,6,5.9v22.8
							C94,200.4,91.4,203.1,88,203.1z M47.2,169.3c-2.9,0-5.2,2.3-5.2,5.1v22.8c0,2.8,2.3,5.1,5.2,5.1H88c2.9,0,5.2-2.3,5.2-5.1
							v-22.8c0-2.8-2.3-5.1-5.2-5.1H47.2z"/>
					</g>
				</g>
			</g>
		</g>
		<g>
			<g>
				<path class="st22" d="M51.4,148L51.4,148C51.4,148.1,51.4,148.1,51.4,148z"/>
			</g>
		</g>
		<g>
			<path class="st35" d="M86.9,145.6c-3.7,0-6.7-2.9-6.7-6.5c0-3.6,3-6.5,6.7-6.5s6.7,2.9,6.7,6.5C93.5,142.7,90.5,145.6,86.9,145.6
				z M86.9,133.3c-3.2,0-5.9,2.6-5.9,5.8c0,3.2,2.6,5.8,5.9,5.8s5.9-2.6,5.9-5.8C92.8,135.9,90.1,133.3,86.9,133.3z"/>
		</g>
		<g>
			<path class="st35" d="M86.9,160.6c-3.7,0-6.7-2.9-6.7-6.5c0-3.6,3-6.5,6.7-6.5s6.7,2.9,6.7,6.5C93.5,157.7,90.5,160.6,86.9,160.6
				z M86.9,148.3c-3.2,0-5.9,2.6-5.9,5.8c0,3.2,2.6,5.8,5.9,5.8s5.9-2.6,5.9-5.8C92.8,150.9,90.1,148.3,86.9,148.3z"/>
		</g>
		<g>
			<path class="st35" d="M56.8,139.4c-0.6,0-1.1,0-1.7-0.1c-0.6-0.1-1.2-0.1-1.8-0.3c-2.5-0.5-5-1.6-7.1-3.1c-0.6-0.5-1.2-1-1.7-1.5
				c-0.1-0.1-0.2-0.2-0.3-0.3c-0.4-0.4-0.7-0.8-1.1-1.3c-2.4-3-3.6-6.5-3.6-10.3c0-9.3,7.7-16.9,17.3-16.9v0.8
				c-9.1,0-16.5,7.2-16.5,16.1c0,3.6,1.2,7,3.4,9.8c0.3,0.4,0.7,0.8,1,1.2c0.1,0.1,0.2,0.2,0.3,0.3c0.5,0.5,1.1,1,1.7,1.4
				c2,1.5,4.3,2.5,6.7,3c0.6,0.1,1.1,0.2,1.7,0.3c0.5,0,1.1,0.1,1.6,0.1c0.2,0,0.4,0,0.5,0c0.5,0,1-0.1,1.5-0.1
				c2.7-0.3,5.3-1.3,7.5-2.8c0.2-0.2,0.5-0.3,0.7-0.5c0.2-0.1,0.4-0.3,0.6-0.5c0.7-0.6,1.3-1.2,1.8-1.8c2.5-2.9,3.9-6.6,3.9-10.4
				c0-0.8-0.1-1.6-0.2-2.4l0.8-0.1c0.1,0.8,0.2,1.6,0.2,2.5c0,4-1.4,7.8-4,10.9c-0.6,0.7-1.2,1.3-1.9,1.9c-0.2,0.2-0.4,0.3-0.6,0.5
				c-0.2,0.2-0.5,0.3-0.7,0.5c-2.3,1.6-5,2.6-7.8,3c-0.5,0.1-1,0.1-1.6,0.1C57.2,139.4,57,139.4,56.8,139.4z"/>
		</g>
		<path class="st35" d="M68.9,131.4c-0.1-0.1-0.1-0.1-0.2-0.2c0,0,0,0-0.1-0.1c0,0,0,0,0,0l0,0c-3.2-1.7-9-3.2-9-3.2
			c-0.2-0.4-0.2-1.7-0.1-2.5c0.6-0.7,1.1-1.8,1.5-3.4c0.1,0.1,0.2-0.1,0.2-0.1c-0.1-0.1,0.8-2.2,0.7-2.6c-0.1-0.3-0.3-0.2-0.4-0.2
			c0-0.1,0-0.2,0.1-0.4c0,0,0.3-3.2-1.3-4.9c-0.2-0.2-0.8-0.2-0.8-0.2c-2.6-0.8-4.2-0.4-5.2,0c-1.5,1.2-1.6,3.2-1.5,4.3
			c0,0.3,0.1,0.5,0.1,0.8c0,0,0,0,0,0c0,0.1,0,0.2,0,0.3c-0.1-0.1-0.3-0.1-0.4,0.1c-0.2,0.5,0.5,2.5,0.5,2.7c0,0,0.1,0.2,0.2,0.1
			l0,0c0.3,1.8,0.9,2.9,1.4,3.6c-0.1,1-0.2,2.3-0.3,2.6l0,0c-1.3,0.4-8.1,2.2-10.2,3.5c-0.2,0.1-0.4,0.4-0.6,0.9
			c0.3,0.4,0.7,0.8,1.1,1.2c0.1,0.1,0.2,0.2,0.3,0.3c0.5,0.5,1.1,1,1.7,1.5c2,1.5,4.3,2.6,6.9,3.1c0.6,0.1,1.2,0.2,1.8,0.3
			c0.5,0,1.1,0.1,1.6,0.1c0.2,0,0.4,0,0.6,0c0.5,0,1-0.1,1.5-0.1c2.8-0.3,5.5-1.4,7.7-2.9c0.2-0.2,0.5-0.3,0.7-0.5
			c0.2-0.2,0.4-0.3,0.6-0.5c0.7-0.6,1.3-1.2,1.9-1.9C69.4,132.3,69.1,131.8,68.9,131.4z"/>
		<g>
			<g>
				<path class="st22" d="M60.9,150.7L60.9,150.7C60.9,150.7,60.9,150.7,60.9,150.7z"/>
			</g>
		</g>
		<g>
			<g>
				<g>
					<path class="st35" d="M43.1,147.5h27.5c1,0,1.8-0.8,1.8-1.8v0c0-1-0.8-1.8-1.8-1.8H43.1c-1,0-1.8,0.8-1.8,1.8v0
						C41.3,146.7,42.1,147.5,43.1,147.5z"/>
				</g>
			</g>
		</g>
		<g>
			<g>
				<g>
					<path class="st35" d="M43.1,154.1h27.5c1,0,1.8-0.8,1.8-1.8v0c0-1-0.8-1.8-1.8-1.8H43.1c-1,0-1.8,0.8-1.8,1.8v0
						C41.3,153.3,42.1,154.1,43.1,154.1z"/>
				</g>
			</g>
		</g>
		<g>
			<g>
				<g>
					<path class="st35" d="M43.1,160.6h27.5c1,0,1.8-0.8,1.8-1.8v0c0-1-0.8-1.8-1.8-1.8H43.1c-1,0-1.8,0.8-1.8,1.8v0
						C41.3,159.8,42.1,160.6,43.1,160.6z"/>
				</g>
			</g>
		</g>
		<path class="st35" d="M89.5,129.9h-5.3c-1.9,0-3.4-1.5-3.4-3.4v-18.9c0-1.9,1.5-3.4,3.4-3.4h5.3c1.9,0,3.4,1.5,3.4,3.4v18.9
			C92.9,128.4,91.4,129.9,89.5,129.9z"/>
		<g>
			<g>
				<g>
					<g>
						<path class="st36" d="M5.3,187.3c0,0,0.6,0.9,0.6,1.7c0.1,0.6,0.6,1.5,0.8,2c0.2,0.5,0.9,2.7,0.9,3.3c0,0.2-0.5,1.7-0.4,2.2
							c0.1,0.5,0.3,1.4-0.1,1.5s-0.9-0.7-0.9-0.7s0,0.4-0.3,0.6c-0.7,0.3-1.1,0-1.1,0s-0.3,0.5-0.6,0.5c-0.7,0.1-1.1-0.1-1.1-0.1
							s-0.3,0.3-0.8,0.3c-0.6,0-0.9-0.6-0.9-0.6s-0.8,0.2-1-0.2c-0.2-0.4-0.2-0.8-0.3-1.1c-0.1-0.3,0-3.4,1-5.6
							c1.1-2.2-0.3-4.3-0.3-4.3L5.3,187.3z"/>
					</g>
				</g>
			</g>
			<g>
				<g>
					<path class="st37" d="M6.4,196.9c0,0,0.1-2.7-0.7-3.3c-0.7-0.6-0.8,0.4-0.8,0.4s0.1-1-0.7-1.1s-0.8,1-0.8,1s-0.1-0.8-1-0.6
						s-0.6,1.1-0.6,1.1s-0.8-0.9-1.3,0c-0.9,1.5,0,3.3,0,3.3s0.3,0.4,1,0.2c0,0,0.5,1.1,1.7,0.3c0,0,1.2,0.7,1.7-0.4
						C4.8,197.8,6.2,198.4,6.4,196.9z"/>
				</g>
			</g>
			<path class="st22" d="M14.8,147.9c0,0-4.8,15.6-6.4,21.4c-0.5,1.8-1.7,19-1.9,19.7c-0.2,0.7-6.3,1.6-6.3,1.6s0.7-21.6,0.8-22.7
				c0.1-1.2,6.7-25.3,8.6-26.1c1.4-0.6,2.2-0.1,4,1.2C16.2,144.9,14.8,147.9,14.8,147.9z"/>
			<g>
				<polygon class="st38" points="62,126.9 61.5,126.1 72.5,119.1 73,119.8 				"/>
			</g>
			<path class="st39" d="M74.2,123.1c0,0-0.1,0.6-0.3,0.8c0,0-0.4,0.4-0.6,0.7c-0.1,0.1-0.1,0.2-0.2,0.2c-0.1,0.3-0.4,0.9-0.9,1.4
				c-0.5,0.5-2.6,2.2-2.6,2.2l-1.8-1.4l-1.8-0.8c0,0,1-4.3,1.4-4.8c0-0.1,0.1-0.1,0.1-0.2c0.4-0.4,0.9-0.6,1.1-0.8
				c0.1-0.1,1-0.7,1.3-0.6c0.5,0.1,0.7,0.4,0.8,0.7c0,0,0.9,0.3,1.2,0.8c0,0,0.8,0.2,1.1,1C73.3,122.3,74.1,122.6,74.2,123.1z"/>
			<g>
				<g>
					<path class="st40" d="M10.9,254.4c0,0-0.4,3-0.5,3.4c-0.1,0.4-4.8-0.3-4.8-0.3l-0.4-3.5C5.2,254.1,10.3,254,10.9,254.4z"/>
				</g>
			</g>
			<g>
				<g>
					<path d="M10.5,257.5c0,0,1.5,1.8,3,2.6s3.8,1.1,4.6,1.9c0.6,0.6,2.3,3.1-3.8,3s-9.1,0.4-9.7-0.6c-0.7-1,0.9-7.1,0.9-7.1
						S7,257.8,10.5,257.5z"/>
				</g>
			</g>
			<g>
				<g>
					<path class="st40" d="M45.3,254.4c0,0-0.4,3-0.5,3.4c0,0.4-4.8-0.3-4.8-0.3l-0.4-3.5C39.6,254.1,44.7,254,45.3,254.4z"/>
				</g>
			</g>
			<g>
				<g>
					<path d="M44.9,257.5c0,0,1.5,1.8,3,2.6s6.9,1.4,7.8,2.2c0.6,0.6,1.7,2.9-6.9,2.7c-6.1-0.2-9,0.4-9.7-0.6c-0.7-1,1-7.1,1-7.1
						S41.3,257.8,44.9,257.5z"/>
				</g>
			</g>
			<g>
				<g>
					<path class="st41" d="M14.9,178.3c0,0-4.5,7-4.2,13.3s-1.6,13.2-2.3,19.9c-0.8,7.4-3.8,24.8-4,28.8c-0.1,3.9,0.5,16.5,0.5,16.5
						l6.2,0.1c0,0,5.2-30.5,6.5-33.6c1.4-3.1,8-25.3,8.2-27.8S14.9,178.3,14.9,178.3z"/>
				</g>
			</g>
			<g>
				<g>
					<path class="st41" d="M38.6,179.3c0,0,3.4,17.4,3.8,21.2c0.5,3.9,0.8,18.8,1,21.2c0.2,2.4,2.1,31.6,2.7,35.3h-7.9
						c0,0-6.1-21.3-6.1-31.4s-4.7-21.9-7.7-28.5s-10-6.8-11.8-19.1C12.6,178,36.1,175.4,38.6,179.3z"/>
				</g>
			</g>
			<g>
				<g>
					<path class="st36" d="M22.4,119.4c0,0,6-2.2,8.9,2.3c2.8,4.5,2.5,13.5-0.5,14.6s-7.6,0.5-9.2-2.3c-1.6-2.8-3-6.9-2.9-9.6
						C18.7,121.7,20.8,120.2,22.4,119.4z"/>
				</g>
			</g>
			<g>
				<g>
					<path class="st36" d="M30.1,136.6c0,0-0.2,1.6,0.2,2.4c0.4,0.8-7.8,0.8-7.8,0.8s-0.7-4.3-1.9-7.9
						C19.2,128.2,30.1,136.6,30.1,136.6z"/>
				</g>
			</g>
			<g>
				<g>
					<path d="M20.5,131.9c0,0,0.6,0.9,2.9,0.6s5.2-3.4,6.1-3.7c1-0.3,1-0.9,1-0.9l0.6,0.9l1,0.1c0,0-0.9-2.7,0.5-3.8
						c1.4-1.1-1.5-8.8-8.9-6.2c0,0-5.7,1.5-5.5,4.7C18.4,126.6,19.2,130.3,20.5,131.9z"/>
				</g>
			</g>
			<g>
				<g>
					<path class="st42" d="M30.7,138.9c0,0,0-1.5-0.7-1.6c-0.7-0.1-7.7-0.8-8.5-0.5v1.8C21.5,138.5,23.1,139.5,30.7,138.9z"/>
				</g>
			</g>
			<g>
				<g>
					<path class="st36" d="M30.3,126.7c-0.1-0.5-1.5-2.1-2-0.4c-0.5,1.6,0.8,3.8,1.5,3.6C30.6,129.7,30.7,128,30.3,126.7z"/>
				</g>
			</g>
			<g>
				<g>
					<path class="st22" d="M42.3,141.1c-4.8-0.6-11.6-2.3-11.6-2.3l-9.3-0.4c0,0-8.5,1.8-11.9,3.3c-0.3,0.1-0.3,7.4-1.2,9.3l2.8,5.7
						c0,0,1.6,11.4,1.9,16.4c0.1,2.3-3.3,21.8-3.3,21.8s3.7,1.1,10,1.8s22.1-0.2,22.3-1c0.1-0.7-3.1-27.2-3.2-28.6
						c-0.2-2.1,0.7-13.3,0.7-13.3c1.5-1.1,14.3-6.9,17.8-10c0.9-0.8,4.9-4.6,6-5.9c4-4.6,7.2-8.6,7.6-9.4c0.4-0.5-4.3-3-4.8-3.2
						c-0.4-0.1-5.8,6.7-7.8,8.9c-0.9,1-4.8,3.7-4.8,3.7S45.3,141.3,42.3,141.1z"/>
				</g>
			</g>
			<g>
				<g>
					<path d="M20.7,120c0,0-7.7,0.6-0.2,11.9L20.7,120z"/>
				</g>
			</g>
			<polygon class="st5" points="73,119.8 73.6,118.9 72.5,119.1 			"/>
		</g>
	</g>
</g>
</svg>
