<?xml version="1.0" encoding="utf-8"?>
<!-- Generator: Adobe Illustrator 25.1.0, SVG Export Plug-In . SVG Version: 6.00 Build 0)  -->
<svg version="1.1" xmlns="http://www.w3.org/2000/svg" xmlns:xlink="http://www.w3.org/1999/xlink" x="0px" y="0px"
	 viewBox="0 0 300 265" style="enable-background:new 0 0 300 265;" xml:space="preserve">
<style type="text/css">
	.st0{fill:#646464;}
	.st1{fill:#C7D2D7;}
	.st2{fill:#99A3B0;}
	.st3{fill:#3A385F;}
	.st4{fill:#DFDEF2;}
	.st5{fill:#BCBAEA;}
	.st6{fill:#5F6094;}
	.st7{fill:#6C6EA3;}
	.st8{fill:#CFCDF2;}
	.st9{fill:#CFCDF1;}
	.st10{fill:#52969E;}
	.st11{fill:#87D38C;}
	.st12{fill:#888AC6;}
	.st13{opacity:0.5;fill:#FFFFFF;}
	.st14{fill:#90B56A;}
	.st15{fill:#638574;}
	.st16{fill:#456179;}
	.st17{fill:#F2C9AD;}
	.st18{fill:#422C4F;}
	.st19{fill:#654059;}
	.st20{fill:#EFEBEA;}
	.st21{fill:#EBA58E;}
	.st22{fill:#D1FAF5;}
	.st23{fill:#BCF0EB;}
	.st24{fill:#93E3EF;}
	.st25{fill:#FFFFFF;}
	.st26{fill:#7DD3E9;}
	.st27{fill:#5FA5CC;}
	.st28{fill:#62B29A;}
	.st29{opacity:0.5;}
	.st30{fill:#495375;}
	.st31{fill:#797C99;}
	.st32{fill:#CC6164;}
	.st33{fill:#74C7EB;}
	.st34{fill:#99DCFC;}
	.st35{fill:#5FBFE0;}
	.st36{fill:#F7DD8C;}
	.st37{fill:#C5EFFF;}
	.st38{fill:#898BC6;}
</style>
<g id="BACKGROUND">
</g>
<g id="OBJECTS">
	<g>
		<g>
			<g>
				<polygon class="st0" points="279.5,15.5 287.2,6.7 197.4,6.7 205.2,15.5 				"/>
				<polygon class="st0" points="205.2,15.5 197.4,6.7 197.4,173 205.2,164.2 				"/>
				<polygon class="st0" points="205.2,164.2 197.4,173 287.2,173 279.5,164.2 				"/>
				<polygon class="st0" points="279.5,15.5 279.5,164.2 287.2,173 287.2,6.7 				"/>
			</g>
			<g>
				<polygon class="st0" points="177.1,15.5 184.9,6.7 95.1,6.7 102.8,15.5 				"/>
				<polygon class="st0" points="102.8,15.5 95.1,6.7 95.1,173 102.8,164.2 				"/>
				<polygon class="st0" points="102.8,164.2 95.1,173 184.9,173 177.1,164.2 				"/>
				<polygon class="st0" points="177.1,15.5 177.1,164.2 184.9,173 184.9,6.7 				"/>
			</g>
		</g>
		<g>
			<path class="st1" d="M170.8,129.3l-25.1,71.6l-52.6,12.9l9.1,29.1l48.7-10.3c8.6-1.8,15.8-8.5,19.2-17.7l21.5-59.2L170.8,129.3z"
				/>
			<path class="st2" d="M170.8,129.3l-25.1,71.6l-17.6,4.3l11.6,17.2c3.1,4.6,7.3,8,12,10c8.3-2,15.2-8.6,18.5-17.6l21.5-59.2
				L170.8,129.3z"/>
		</g>
		<g>
			<rect x="41.8" y="235.5" class="st3" width="88.5" height="11"/>
			<g>
				<path class="st4" d="M84,132.6H63.7c-13.5,0-24.5,12.5-24.5,27.9V180c0,15.4,11,27.9,24.5,27.9h8v15.4h-8.8
					c-20,0-36.2-18.5-36.2-41.2v-23.4c0-22.8,16.2-41.2,36.2-41.2h32.9L84,132.6z"/>
				<path class="st5" d="M34.7,159.2v22.1c0,17.5,12.4,31.6,27.8,31.6h9h0.1v-5h-8c-13.5,0-24.5-12.5-24.5-27.9v-19.5
					c0-15.4,11-27.9,24.5-27.9H84l3.9-5H62.5C47.2,127.6,34.7,141.7,34.7,159.2z"/>
			</g>
			<g>
				<g>
					<polygon class="st4" points="103.2,159.5 87.1,146.8 112,106.1 128,118.8 					"/>
					<polygon class="st3" points="128.8,113.1 116.4,103.3 113.8,107.6 126.2,117.4 					"/>
					<polygon class="st3" points="101.3,158.1 89,148.3 86.3,152.6 98.7,162.4 					"/>
					<polygon class="st6" points="130.4,102.7 124.4,98 119.6,105.8 125.6,110.5 					"/>
				</g>
				<g>
					<path class="st7" d="M109.4,110.3l-28.3,12.8c-4.6,2.1-4.7,9.4-0.2,11.6l10.4,5.3L109.4,110.3z"/>
					<path class="st3" d="M87.3,128.9c0,2-1.5,3.7-3.3,3.7s-3.3-1.7-3.3-3.7c0-2,1.5-3.7,3.3-3.7S87.3,126.8,87.3,128.9z"/>
				</g>
				<path class="st5" d="M106.3,141.5l16.4-26.9l5.3,4.2l-24.8,40.7l-16.1-12.7l1.6-2.6l3.4,1.7C97.1,148.6,103.1,146.7,106.3,141.5
					z"/>
			</g>
			<g>
				<rect x="60.1" y="198.3" class="st3" width="56" height="6.3"/>
				<g>
					<rect x="62.4" y="173.2" class="st3" width="51.4" height="4.3"/>
					<rect x="65.5" y="177.4" class="st6" width="45.2" height="7"/>
					<rect x="69.1" y="184.4" class="st3" width="38.1" height="4.5"/>
				</g>
				<g>
					<path class="st4" d="M104.4,201.3H90.8c-2.5,0-4.4-2.3-4.4-5.1v-15.4c0-2.8,3-4.2,4.7-2.2l15.2,17.3
						C108.1,197.9,106.9,201.3,104.4,201.3z"/>
					<ellipse class="st3" cx="93.2" cy="194.2" rx="3.6" ry="4.1"/>
				</g>
			</g>
			<g>
				<path class="st6" d="M103.6,238.2H77.2c-3,0-5.5-2.8-5.5-6.3v-28.6c0-5.5,5.8-8.3,9.3-4.5l26.4,28.6
					C110.9,231.3,108.5,238.2,103.6,238.2z"/>
				<ellipse class="st3" cx="83.7" cy="224.8" rx="8.4" ry="9.6"/>
				<ellipse class="st5" cx="83.7" cy="224.8" rx="6.3" ry="7.1"/>
			</g>
		</g>
		<rect y="246.5" class="st0" width="300" height="18.2"/>
		<g>
			<path class="st8" d="M29.9,195.8H18.5c-1.6,0-2.8-1.3-2.8-2.8v0c0-1.6,1.3-2.8,2.8-2.8h11.4c1.6,0,2.8,1.3,2.8,2.8v0
				C32.7,194.5,31.5,195.8,29.9,195.8z"/>
			<path class="st9" d="M44.4,236.2l-11.8-18.9c-1.4-2.2-2.1-4.9-2.1-7.6v-14h-6.3h-6.3v14c0,2.7-0.7,5.4-2.1,7.6L4,236.2
				c-1.6,2.6-1.3,6.1,0.6,8.3c1.1,1.2,2.5,1.9,4,1.9h15.6h15.6c1.5,0,3-0.7,4-1.9C45.8,242.3,46,238.8,44.4,236.2z"/>
			<g>
				<path class="st10" d="M19.7,226.3c0.9,0.4,1.7,0.8,2.6,1.1c2.6,1.1,5.2,2.2,8,2.1c2.1-0.1,4.2-0.8,5.9-2.1
					C31.5,222.7,24.3,224.4,19.7,226.3z"/>
				<path class="st11" d="M42.6,237.7l-6.4-10.3c0,0,0,0,0,0c-1.8,1.3-3.8,2.1-5.9,2.1c-2.8,0.1-5.4-1-8-2.1
					c-0.9-0.4-1.7-0.8-2.6-1.1c-1.7-0.7-3.5-1.4-5.3-1.6c-0.2,0-0.3,0-0.5,0l-8.1,13c-1,1.6-0.8,3.7,0.4,5.1
					c0.7,0.7,1.5,1.2,2.4,1.2h31.2c0.9,0,1.8-0.4,2.4-1.2C43.4,241.4,43.6,239.3,42.6,237.7z"/>
			</g>
			<rect x="17.9" y="195.8" class="st12" width="12.6" height="3.3"/>
			<g>
				<path class="st13" d="M16.7,244.6c-0.8-2.2-0.8-5.8-0.2-8.3l4.5-18.9c0.5-2.2,0.8-4.9,0.8-7.6v-14h-2.1v14
					c0,2.7-0.5,5.4-1.5,7.6l-8.5,18.9c-1.2,2.6-1,6.1,0.4,8.3c0.8,1.2,1.8,1.9,2.9,1.9h5.3C17.6,246.5,17.1,245.8,16.7,244.6z"/>
				<path class="st13" d="M38.8,236.2l-8.5-18.9c-1-2.2-1.5-4.9-1.5-7.6v-14h-1.2v14c0,2.7,0.4,5.4,1.1,7.6l6.2,18.9
					c0.8,2.6,0.7,6.1-0.3,8.3c-0.6,1.2-1.3,1.9-2.1,1.9h3c1.1,0,2.1-0.7,2.9-1.9C39.7,242.3,39.9,238.8,38.8,236.2z"/>
			</g>
			<g>
				<path class="st14" d="M6.8,114.4L6.8,114.4L6.8,114.4c-0.1,10.8,7.3,19.6,16.7,20.1c0.1-1.9,0.1-3.7,0.2-5.4
					C21.6,120.7,14.8,114.5,6.8,114.4z"/>
				<path class="st15" d="M6.7,132.7L6.7,132.7L6.7,132.7c-0.1,10.7,7.2,19.5,16.4,20.1c0-2.2,0.1-4.4,0.1-6.5
					C20.9,138.5,14.4,132.8,6.7,132.7z"/>
				<path class="st14" d="M23,164.4c-2.4-7.7-8.9-13.2-16.4-13.3h0v0c-0.1,10.7,7.2,19.4,16.4,20.1c0-1.2,0-2.5,0-3.8
					C23,166.4,23,165.4,23,164.4z"/>
				<path class="st15" d="M6.4,169.5c-0.1,10.7,7.3,19.5,16.5,20.1c0-2.1,0-4.4,0-6.7C20.6,175.1,14.1,169.5,6.4,169.5z"/>
				<path class="st15" d="M41.9,114.7L41.9,114.7L41.9,114.7c-8.1-0.1-14.9,6.1-17,14.5c0,1.6,0.1,3.4,0.1,5.4
					C34.4,134.2,41.9,125.4,41.9,114.7z"/>
				<path class="st14" d="M41.8,133L41.8,133L41.8,133c-7.7-0.1-14.3,5.5-16.7,13.4c0,2.1,0,4.3,0,6.5
					C34.4,152.4,41.8,143.7,41.8,133z"/>
				<path class="st15" d="M25.1,171.2c9.2-0.6,16.6-9.2,16.6-19.9l0,0h0c-7.6-0.1-14.1,5.4-16.6,13c0,1,0,2.1,0,3.1
					C25.1,168.7,25.1,170,25.1,171.2z"/>
				<path class="st14" d="M41.6,169.7L41.6,169.7L41.6,169.7c-7.6-0.1-14.2,5.4-16.6,13.2c0,2.3-0.1,4.6-0.1,6.7
					C34.1,189.1,41.6,180.4,41.6,169.7z"/>
				<path class="st15" d="M24.3,119.6c0.1,0,0.2,1,0.3,2.8c6.5-7.8,6.5-20.2-0.2-27.9h0l0,0c-6.8,7.6-7,20-0.5,27.9
					C24.1,120.6,24.2,119.6,24.3,119.6z"/>
				<path class="st12" d="M24.7,199.1h-1.6c0.1,5.4,0.2,16.7,0.3,26c0.3-0.1,0.6-0.1,0.8-0.2C24.4,215.6,24.5,204.4,24.7,199.1z"/>
				<path class="st16" d="M24.1,228.2c0-1.1,0-2.2,0.1-3.4c-0.3,0.1-0.6,0.1-0.8,0.2c0,1,0,1.9,0,2.9
					C23.7,228,23.9,228.1,24.1,228.2z"/>
				<path class="st10" d="M23.8,239.2c0.1,0,0.3-4.7,0.4-11c-0.2-0.1-0.5-0.2-0.7-0.3C23.5,234.4,23.6,239.2,23.8,239.2z"/>
				<path class="st16" d="M24.9,189.6c0-2.1,0.1-4.4,0.1-6.7c0-3.7,0.1-7.6,0.1-11.7c0-1.2,0-2.5,0-3.8c0-1,0-2.1,0-3.1
					c0-4,0-7.8,0-11.5c0-2.2,0-4.4,0-6.5c0-4.4-0.1-8.3-0.1-11.8c0-1.9-0.1-3.7-0.1-5.4c-0.1-2.9-0.2-5.2-0.2-6.8
					c-0.1-1.8-0.2-2.8-0.3-2.8c-0.1,0-0.3,1-0.4,2.8c-0.1,1.6-0.2,3.9-0.3,6.8c-0.1,1.6-0.1,3.4-0.2,5.4c-0.1,3.5-0.2,7.5-0.3,11.8
					c0,2.1-0.1,4.3-0.1,6.5c0,3.7-0.1,7.5-0.1,11.5c0,1,0,2.1,0,3.1c0,1.3,0,2.5,0,3.8c0,4.1,0,8,0,11.7c0,2.3,0,4.6,0,6.7
					c0,0.2,0,0.4,0,0.5h1.9C24.9,189.9,24.9,189.8,24.9,189.6z"/>
				<path class="st6" d="M24.7,195.8H23c0,1.1,0,2.3,0,3.3h1.6C24.7,198,24.7,196.9,24.7,195.8z"/>
				<path class="st12" d="M24.9,190.1H23c0,2,0,3.8,0,5.6h1.7C24.8,194,24.8,192.1,24.9,190.1z"/>
			</g>
		</g>
		<g>
			<g>
				<path class="st17" d="M164.3,107.8c2.8,2.5,4.9,6.6,4.9,6.6l15.7-14.6l-8.2-11.6L164.3,107.8z"/>
				<path class="st18" d="M174.7,98c0.5-2.6,0.8-5.3,0.9-8l-11.3,17.8c1.4,1.3,2.7,3,3.6,4.4C171.4,108.5,173.7,103.4,174.7,98z"/>
			</g>
			<g>
				<g>
					<ellipse class="st19" cx="186.7" cy="33" rx="15.7" ry="17.9"/>
					<path class="st18" d="M171.3,29.6c-0.2,1.1-0.3,2.3-0.3,3.5c0,9.9,7,17.9,15.7,17.9c1,0,2.1-0.1,3-0.3c-0.7-5.1-2.8-9.9-6-13.6
						C180.5,33,176,30.4,171.3,29.6z"/>
				</g>
				<path class="st19" d="M134.2,73.8c-4.6-3.1-9.6-6.8-11.1-12.6c-1-3.8-0.3-8.2,2-11.3c2.2-3.1,5.8-4.9,9.3-4.5
					c5.3-9.4,14.4-15.8,24.2-15.9s19.6,5.8,25.1,15.1c3.9,6.7,5.7,15.2,4.1,23.1s-6.6,14.9-13.3,17.6c1.1,2.2-0.1,6.2-2.1,7.5
					c-2,1.2-4.5,0.8-6.4-0.4c-1.9-1.2-3.4-3.2-4.8-5.3c-2.5-3.8-4.6-8-6.3-12.4C148.4,75,139.9,77.7,134.2,73.8z"/>
				<path class="st17" d="M167.8,79.4c-3.1-0.8-5.9-2.7-7.9-5.4c-2-2.7-3.4-6.3-3.5-9.9c-7.7,3.4-16.7,2.8-24.2-1.3
					c-0.5,3.8-0.1,8,0.2,11.6c0.4,4.9,1.4,9.8,2.9,14.4c1.7,5.2,3.9,10.1,6.8,14.5c1.6,2.4,3.3,4.7,5.5,6.4c2.2,1.7,4.8,2.8,7.5,2.5
					c4-0.4,7.3-3.5,10.3-6.5c4.3-4.3,8.7-8.7,10.9-14.7c0.2-0.6,0.4-1.2,0.6-1.9c-1-0.2-1.9-0.4-2.9-0.8
					C170.7,87,167.8,83.4,167.8,79.4z"/>
				<g>
					<path class="st19" d="M143.2,69.3c-2,0.4-3.5,2.4-4.3,5.1l9.9-2.2C147.2,70.1,145.2,68.9,143.2,69.3z"/>
				</g>
				<ellipse class="st18" cx="145.1" cy="80.3" rx="2.1" ry="2.4"/>
				<g>
					<g>
						<path class="st20" d="M163.5,90l-0.7-1.7c3.5-2,6.8-4.6,9.6-7.8l1.2,1.4C170.5,85.2,167.2,87.9,163.5,90z"/>
					</g>
					<g>
						<path class="st20" d="M168.1,100.7l-0.9-1.6c3.8-2.7,6.9-6.7,8.8-11.3l1.5,0.8C175.5,93.5,172.2,97.8,168.1,100.7z"/>
					</g>
					<g>
						<path class="st20" d="M164.9,86.9c-0.2-0.5-0.4-1-0.5-1.6c-9.6,1.6-20,1.3-29.8,1.3c-0.3,0.8-0.5,1.6-0.6,2.3
							C144.3,89.7,154.7,89,164.9,86.9z"/>
						<path class="st20" d="M164.9,86.9C154.7,89,144.3,89.7,134,89c-0.6,3.1-0.2,6.4,1.1,9.2c1.7,3.6,3.8,7.1,6.4,9.7
							c4,4.1,9.5,6.7,14.8,5.6c2.9-0.6,5.5-2.1,7.8-4.1c2.3-2,4.4-4.3,6.4-6.7C168.6,97.5,166.7,92.2,164.9,86.9z"/>
					</g>
				</g>
				<g>
					<path class="st17" d="M171,83.2c-0.1-2.8,0.8-5.6,2.4-7.8c1.3-1.8,3-3.2,5-3.5c2-0.3,4.2,0.8,5,2.9c0.5,1.3,0.4,2.9,0.2,4.3
						c-0.4,2.7-1.1,5.3-2.6,7.4c-1.4,1.9-4,3.8-6.3,3.4C172.5,89.6,171.2,85.4,171,83.2z"/>
					<path class="st21" d="M180,75.9c-1.6,0.4-3.1,1.5-4.1,3c-1,1.5-1.4,3.5-1.3,5.4c0.1,0.8,0.3,1.6,0.9,2c0.8,0.6,2-0.1,2.5-1
						c0.6-0.9,0.8-2.1,0.6-3.2c-0.2-1.1-0.7-2.1-1.5-2.7C177.8,78.3,178.9,76.8,180,75.9z"/>
				</g>
			</g>
			<polygon class="st22" points="185.9,98.9 167,116.5 171.5,131.5 191.7,106.5 			"/>
			<g>
				<polygon class="st23" points="167.7,118.9 162.5,123.2 170.8,129.3 				"/>
				<polygon class="st24" points="162.5,123.2 165.6,132 168.5,127.6 				"/>
			</g>
			<g>
				<path class="st1" d="M162.5,192.1c6.6,23.4,6.8,54.3,6.8,54.3h20.3C187.4,225.7,176.4,205.8,162.5,192.1z"/>
				<path class="st25" d="M170.8,129.3l-8.3,62.8c10.7,22.4,14.5,54.3,14.5,54.3h78c-7.8-13.4-12.3-29.9-15.5-45.6
					c-2.9-14-3.8-28.6-7.8-42.3c-6.2-20.9-22.6-42.3-40-52l-20.2,25L170.8,129.3z"/>
				<g>
					<polygon class="st1" points="165.2,172.2 162.5,192.1 165.2,172.2 					"/>
					<path class="st2" d="M168.8,233l1-0.4c1.6-0.7,3.2-1.6,4.6-2.7c-2.2-11.1-6-25.8-11.8-37.8C166.4,205.7,168,221.8,168.8,233z"
						/>
					<path class="st1" d="M182.1,217.9l22.7-80.9l-39.7,35.1l-2.6,19.9c5.8,12,9.5,26.7,11.8,37.8
						C178,227.1,180.7,222.9,182.1,217.9z"/>
				</g>
				<polygon class="st1" points="191.7,106.5 180.6,127.6 165.2,172.2 170.6,131.3 170.8,129.3 				"/>
				<g>
					<g>
						<path class="st1" d="M183.7,232c4.3-2.5,9-6,13.5-10.6c4.5-4.6,8.7-10.2,12.2-16.3c3.5-6.1,6.2-12.8,8.1-19.3
							c1.8-6.5,2.8-12.9,3-18.4c-1.7,5.2-3.7,11-6.2,16.9c-2.5,6-5.4,12.1-8.7,17.9c-3.3,5.8-7,11.4-10.8,16.4
							C191,223.7,187.1,228.1,183.7,232z"/>
					</g>
					<g>
						<path class="st1" d="M195.1,233.8c3.3-1.4,7-3.5,10.6-6.4c3.6-2.9,7.1-6.5,10.2-10.5c3.1-4.1,5.6-8.6,7.6-13.1
							c1.9-4.5,3.2-9,3.9-12.9c-1.7,3.5-3.8,7.5-6.1,11.5c-2.3,4-5,8.1-7.9,12c-2.9,3.9-6.1,7.5-9.2,10.8
							C201,228.4,197.9,231.3,195.1,233.8z"/>
					</g>
					<g>
						<path class="st1" d="M232.4,228.8c-5.1,2.3-11.7,5.3-18.4,7.7c-6.7,2.5-13.5,4.5-18.8,6.1c2.8,0.2,5.9,0,9.3-0.5
							c3.4-0.5,6.9-1.5,10.3-2.8c3.4-1.3,6.8-2.9,9.8-4.7C227.6,232.8,230.3,230.8,232.4,228.8z"/>
					</g>
				</g>
			</g>
			<g>
				<g>
					<path class="st25" d="M174.5,130.1l-15.1,57.6l-18.5-30.5L122,182.9l25,37.7c3.4,5.2,8.8,8.2,14.5,8.2l0,0
						c7.5,0,14.3-5.3,17-13.3l25.2-74.2c3.2-9.5-1.2-20.1-9.7-23.2h0C185.7,115.1,176.9,120.5,174.5,130.1z"/>
					<path class="st1" d="M159.3,187.7l9.5,15.7c0.2-13.6-2.5-16.3-9.1-17.4L159.3,187.7z"/>
				</g>
				<g>
					<g>
						<path class="st26" d="M139.1,153.5L126,168.5l-2.2-8c-6.6-0.2-14.7-5.1-14.7-5.1l0,0c-0.9,1.4-2.8,1.5-3.8,0.1l-5.1-7.4
							c-0.8-1.2-0.9-2.8-0.1-4l4.6-7.4l-3.9-4c-0.7-0.7-0.7-1.8-0.1-2.6l1.4-1.7c0.4-0.5,1.1-0.7,1.7-0.4l5.4,2.4l-3.7-3
							c-0.8-0.7-1-2-0.3-2.9l1.4-1.9c0.5-0.7,1.3-0.9,2-0.5l11.5,5.6c1.3,0.6,2.4,1.6,3.2,2.9l11.4,17.5L139.1,153.5z"/>
					</g>
					<path class="st27" d="M109.1,155.5c-3.5-3.1-6.7-9.2-6.7-9.2C103.6,153.1,106.8,156.4,109.1,155.5z"/>
					<g>
						<path class="st27" d="M124.9,159.3c1.7-0.5,3.7-1.9,5.2-3.7c1.6-1.8,2.7-4.2,3-6.1c-1.4,1.2-2.9,2.9-4.4,4.7
							C127.3,155.8,125.9,157.6,124.9,159.3z"/>
					</g>
				</g>
				<polygon class="st17" points="137.9,154.9 139.9,158.5 129.6,172.5 127.6,166.6 				"/>
				<polygon class="st18" points="137.9,154.9 127.6,166.6 128.4,169 138.3,155.6 				"/>
				<g>
					<g>
						<path class="st2" d="M132.9,186.6l-0.9,0.8l0.3,0.4c-0.1,0.8,0.1,1.8,0.7,2.7c0.6,0.9,1.4,1.4,2.1,1.4l0.3,0.4l0.9-0.8
							c0.9-0.8,0.9-2.5-0.1-3.9C135.3,186.3,133.8,185.8,132.9,186.6z"/>
						<path class="st1" d="M135.3,188.5c0.9,1.4,0.9,3.1,0.1,3.9c-0.9,0.8-2.4,0.3-3.3-1c-0.9-1.4-0.9-3.1-0.1-3.9
							C132.9,186.6,134.4,187.1,135.3,188.5z"/>
					</g>
					<g>
						<path class="st2" d="M138.4,194.8l-0.9,0.8l0.3,0.4c-0.1,0.8,0.1,1.8,0.7,2.7c0.6,0.9,1.4,1.4,2.1,1.4l0.3,0.4l0.9-0.8
							c0.9-0.8,0.9-2.5-0.1-3.9C140.8,194.4,139.3,194,138.4,194.8z"/>
						<path class="st1" d="M140.8,196.6c0.9,1.4,0.9,3.1,0.1,3.9c-0.9,0.8-2.4,0.3-3.3-1c-0.9-1.4-0.9-3.1-0.1-3.9
							C138.4,194.8,139.9,195.2,140.8,196.6z"/>
					</g>
				</g>
			</g>
		</g>
		<g>
			<g>
				<g>
					<rect x="217.3" y="196.3" class="st8" width="12" height="1.7"/>
					<path class="st9" d="M223.3,237.8L223.3,237.8c-2.8,0-5.2-2.6-5.2-5.9V198h10.3v33.9C228.5,235.2,226.2,237.8,223.3,237.8z"/>
					<path class="st28" d="M223.3,235.9c-1.9,0-3.5-1.8-3.5-4V211h7v20.9C226.8,234.1,225.2,235.9,223.3,235.9z"/>
					<g class="st29">
						<path class="st25" d="M221.7,236.3V198h-2.2v36.1c0,2.1,1.5,3.7,3.3,3.7h0.3C222.3,237.8,221.7,237.1,221.7,236.3z"/>
						<g>
							<path class="st25" d="M226.1,198v36.6c0,1.4-0.8,2.5-1.8,3c-0.2,0.1-0.4,0.2-0.7,0.2h0.3c1.8,0,3.3-1.7,3.3-3.7V198H226.1z"
								/>
						</g>
					</g>
					<rect x="218.2" y="198" class="st12" width="10.3" height="2.4"/>
				</g>
				<g>
					<rect x="231.4" y="196.3" class="st8" width="12" height="1.7"/>
					<path class="st9" d="M237.4,237.8L237.4,237.8c-2.9,0-5.2-2.3-5.2-5.1V198h10.3v34.6C242.5,235.5,240.2,237.8,237.4,237.8z"/>
					<path class="st11" d="M237.4,235.9c-1.9,0-3.5-1.8-3.5-4V211h7v20.9C240.9,234.1,239.3,235.9,237.4,235.9z"/>
					<g class="st29">
						<path class="st25" d="M235.7,236.3V198h-2.2v36.1c0,2.1,1.5,3.7,3.3,3.7h0.3C236.3,237.8,235.7,237.1,235.7,236.3z"/>
						<g>
							<path class="st25" d="M240.2,198v36.6c0,1.4-0.8,2.5-1.8,3c-0.2,0.1-0.4,0.2-0.7,0.2h0.3c1.8,0,3.3-1.7,3.3-3.7V198H240.2z"
								/>
						</g>
					</g>
					<rect x="232.2" y="198" class="st12" width="10.3" height="2.4"/>
				</g>
				<g>
					<rect x="245.4" y="196.3" class="st8" width="12" height="1.7"/>
					<path class="st9" d="M251.4,237.8L251.4,237.8c-2.8,0-5.2-2.6-5.2-5.9V198h10.3v33.9C256.6,235.2,254.3,237.8,251.4,237.8z"/>
					<path class="st10" d="M251.4,235.9c-1.9,0-3.5-1.8-3.5-4V211h7v20.9C254.9,234.1,253.3,235.9,251.4,235.9z"/>
					<g class="st29">
						<path class="st25" d="M249.8,236.3V198h-2.2v36.1c0,2.1,1.5,3.7,3.3,3.7h0.3C250.4,237.8,249.8,237.1,249.8,236.3z"/>
						<g>
							<path class="st25" d="M254.2,198v36.6c0,1.4-0.8,2.5-1.8,3c-0.2,0.1-0.4,0.2-0.7,0.2h0.3c1.8,0,3.3-1.7,3.3-3.7V198H254.2z"
								/>
						</g>
					</g>
					<rect x="246.3" y="198" class="st12" width="10.3" height="2.4"/>
				</g>
				<g>
					<rect x="259.5" y="196.3" class="st8" width="12" height="1.7"/>
					<path class="st9" d="M265.5,237.8L265.5,237.8c-2.8,0-5.2-2.6-5.2-5.9V198h10.3v33.9C270.6,235.2,268.3,237.8,265.5,237.8z"/>
					<path class="st28" d="M265.5,235.9c-1.9,0-3.5-1.8-3.5-4V211h7v20.9C269,234.1,267.4,235.9,265.5,235.9z"/>
					<g class="st29">
						<path class="st25" d="M263.8,236.3V198h-2.2v36.1c0,2.1,1.5,3.7,3.3,3.7h0.3C264.4,237.8,263.8,237.1,263.8,236.3z"/>
						<g>
							<path class="st25" d="M268.2,198v36.6c0,1.4-0.8,2.5-1.8,3c-0.2,0.1-0.4,0.2-0.7,0.2h0.3c1.8,0,3.3-1.7,3.3-3.7V198H268.2z"
								/>
						</g>
					</g>
					<rect x="260.3" y="198" class="st12" width="10.3" height="2.4"/>
				</g>
			</g>
			<rect x="203.1" y="242.9" class="st30" width="82.6" height="3.6"/>
			<g>
				<rect x="210.1" y="193.6" class="st31" width="2.4" height="49.3"/>
				<rect x="276.3" y="193.6" class="st31" width="2.4" height="49.3"/>
				<rect x="212.5" y="202" class="st30" width="63.8" height="2.7"/>
			</g>
		</g>
		<g>
			<ellipse class="st20" cx="73.9" cy="52.8" rx="46.3" ry="52.8"/>
			<g>
				<g>
					<g>
						<polygon class="st32" points="245.4,96.7 244.8,97.4 229.7,80.3 230.4,79.5 						"/>
						<polygon class="st32" points="251.1,98.1 250.4,98.9 228.5,73.8 229.1,73.1 						"/>
						<polygon class="st32" points="254.6,97.1 254,97.9 229.3,69.8 230,69.1 						"/>
						<polygon class="st32" points="257.1,94.9 256.5,95.7 231.3,67 231.9,66.2 						"/>
						<polygon class="st32" points="259,92.1 258.4,92.8 233.8,64.8 234.4,64 						"/>
						<polygon class="st32" points="259.9,88 259.3,88.8 237.3,63.8 238,63 						"/>
						<polygon class="st32" points="258.7,81.6 258,82.3 243,65.2 243.6,64.4 						"/>
					</g>
					<g>
						<polygon class="st32" points="236.4,106.9 237.1,106.2 222,89 221.4,89.8 						"/>
						<polygon class="st32" points="237.7,113.4 238.3,112.6 216.4,87.6 215.7,88.4 						"/>
						<polygon class="st32" points="236.8,117.4 237.4,116.7 212.8,88.6 212.2,89.4 						"/>
					</g>
					<g>
						<polygon class="st32" points="267,72.1 266.4,72.8 251.3,55.7 252,54.9 						"/>
						<polygon class="st32" points="272.7,73.5 272,74.3 250.1,49.2 250.7,48.5 						"/>
						<polygon class="st32" points="276.2,72.5 275.6,73.3 250.9,45.2 251.6,44.5 						"/>
					</g>
					<path class="st33" d="M250.6,63.7c0.6,1.6,1.3,3.2,2.1,4.8c0.3,0.6,0.6,1.2,0.8,1.8c4.3,9.7,4.6,17.9,0.8,22.3
						c-3.8,4.4-11.1,4-19.5-0.9c-0.5-0.3-1.1-0.6-1.6-1c-1.4-0.9-2.8-1.7-4.2-2.4c-9.3-4.8-16.2-3.7-20.5,1.2l3.9,4.5
						c3.8-4.4,11.1-4,19.5,0.9c0.5,0.3,1.1,0.6,1.6,1c1.4,0.9,2.8,1.7,4.2,2.4c9.3,4.8,16,3.5,20.3-1.4c4.3-4.9,5.4-12.5,1.3-23.2
						c-0.6-1.6-1.3-3.2-2.1-4.8c-0.3-0.6-0.6-1.2-0.8-1.8c-4.3-9.7-4.6-17.9-0.8-22.3l-3.9-4.5C247.4,45.2,246.4,53,250.6,63.7z"/>
					<path class="st34" d="M259.1,73.4c-1.4-0.7-2.8-1.5-4.2-2.4c-0.5-0.3-1.1-0.7-1.6-1c-8.5-4.9-15.7-5.3-19.5-0.9
						c-3.8,4.4-3.5,12.6,0.8,22.3c0.3,0.6,0.5,1.2,0.8,1.8c0.8,1.6,1.5,3.2,2.1,4.8c4.2,10.6,3.3,18.5-1.1,23.4l-3.9-4.5
						c3.8-4.4,3.5-12.6-0.8-22.3c-0.3-0.6-0.5-1.2-0.8-1.8c-0.8-1.6-1.5-3.2-2.1-4.8c-4.2-10.6-3-18.2,1.3-23.2
						c4.3-4.9,11-6.2,20.3-1.4c1.4,0.7,2.8,1.5,4.2,2.4c0.5,0.3,1.1,0.7,1.6,1c8.5,4.9,15.7,5.3,19.5,0.9l3.9,4.5
						C275.4,77.1,268.5,78.1,259.1,73.4z"/>
				</g>
			</g>
			<g>
				<polygon class="st32" points="56.5,33.4 43.2,33.4 36.5,46.6 43.2,59.8 56.5,59.8 63.2,46.6 				"/>
				<path class="st35" d="M57.5,31.5H42.2l-7.7,15.1l7.7,15.1h15.3l7.7-15.1L57.5,31.5z M43.2,59.8l-6.7-13.2l6.7-13.2h13.4
					l6.7,13.2l-6.7,13.2H43.2z"/>
				<polygon class="st11" points="104.7,33.4 91.3,33.4 84.6,46.6 91.3,59.8 104.7,59.8 111.3,46.6 				"/>
				<path class="st35" d="M105.6,31.5H90.3l-7.7,15.1l7.7,15.1h15.3l7.7-15.1L105.6,31.5z M91.3,59.8l-6.7-13.2l6.7-13.2h13.4
					l6.7,13.2l-6.7,13.2H91.3z"/>
				<polygon class="st36" points="80.6,50.1 67.2,50.1 60.6,63.3 67.2,76.4 80.6,76.4 87.3,63.3 				"/>
				<path class="st35" d="M66.3,48.2l-7.7,15.1l7.7,15.1h15.3l7.7-15.1l-7.7-15.1H66.3z M67.2,76.4l-6.7-13.2l6.7-13.2h13.4
					l6.7,13.2l-6.7,13.2H67.2z"/>
			</g>
			<g>
				<path class="st37" d="M75.5,29.4c0,1.7-1.2,3-2.7,3c-1.5,0-2.7-1.4-2.7-3c0-1.7,1.2-3,2.7-3C74.3,26.4,75.5,27.8,75.5,29.4z"/>
				<ellipse class="st37" cx="63.4" cy="21.1" rx="1.4" ry="1.6"/>
				<ellipse class="st37" cx="56.1" cy="17" rx="2.3" ry="2.6"/>
				<ellipse class="st37" cx="73.9" cy="13.2" rx="1" ry="1.2"/>
				<ellipse class="st37" cx="91.6" cy="22.1" rx="2.2" ry="2.5"/>
				<path class="st37" d="M77,95.2c0,1.3-0.9,2.3-2.1,2.3c-1.1,0-2.1-1-2.1-2.3c0-1.3,0.9-2.3,2.1-2.3C76.1,92.9,77,93.9,77,95.2z"
					/>
				<ellipse class="st37" cx="64.5" cy="92.8" rx="1.1" ry="1.2"/>
				<path class="st37" d="M54.7,78.3c0,1.9-1.4,3.5-3.1,3.5s-3.1-1.6-3.1-3.5c0-1.9,1.4-3.5,3.1-3.5S54.7,76.3,54.7,78.3z"/>
				<ellipse class="st37" cx="43.1" cy="79" rx="1.1" ry="1.2"/>
				<ellipse class="st37" cx="92.3" cy="82.4" rx="1.8" ry="2.1"/>
				<ellipse class="st37" cx="101.4" cy="75.2" rx="3.4" ry="3.9"/>
			</g>
			<g>
				<ellipse class="st35" cx="34.6" cy="19.6" rx="6.2" ry="7.1"/>
				<ellipse class="st35" cx="109.5" cy="14.8" rx="3.8" ry="4.3"/>
				<path class="st35" d="M131.8,23.5c0,1.3-0.9,2.4-2.1,2.4c-1.2,0-2.1-1.1-2.1-2.4c0-1.3,0.9-2.4,2.1-2.4
					C130.9,21.1,131.8,22.2,131.8,23.5z"/>
				<path class="st35" d="M127.6,9.7c0,1.6-1.2,2.9-2.6,2.9c-1.4,0-2.6-1.3-2.6-2.9c0-1.6,1.2-2.9,2.6-2.9
					C126.5,6.7,127.6,8,127.6,9.7z"/>
				<path class="st37" d="M237.6,18.3c0,2.2-1.5,3.9-3.4,3.9c-1.9,0-3.4-1.8-3.4-3.9c0-2.2,1.5-3.9,3.4-3.9
					C236,14.4,237.6,16.1,237.6,18.3z"/>
				<path class="st35" d="M250.8,24.7c0,1.4-1,2.5-2.2,2.5c-1.2,0-2.2-1.1-2.2-2.5c0-1.4,1-2.5,2.2-2.5
					C249.8,22.2,250.8,23.3,250.8,24.7z"/>
				<path class="st37" d="M272.3,16.9c0,2.4-1.7,4.3-3.8,4.3c-2.1,0-3.8-1.9-3.8-4.3s1.7-4.3,3.8-4.3
					C270.6,12.6,272.3,14.5,272.3,16.9z"/>
				<path class="st35" d="M220.4,32.7c0,1-0.7,1.7-1.5,1.7c-0.8,0-1.5-0.8-1.5-1.7c0-1,0.7-1.7,1.5-1.7
					C219.7,30.9,220.4,31.7,220.4,32.7z"/>
				<ellipse class="st35" cx="255.9" cy="127.1" rx="6.6" ry="7.5"/>
				<ellipse class="st35" cx="272.8" cy="146.8" rx="3.5" ry="4"/>
				<path class="st38" d="M281.5,119.7c0,1.3-0.9,2.3-2,2.3c-1.1,0-2-1-2-2.3s0.9-2.3,2-2.3C280.6,117.4,281.5,118.4,281.5,119.7z"
					/>
				<path class="st35" d="M19.8,77.9c0,2.5-1.8,4.5-3.9,4.5c-2.2,0-3.9-2-3.9-4.5s1.8-4.5,3.9-4.5C18,73.4,19.8,75.4,19.8,77.9z"/>
			</g>
		</g>
	</g>
</g>
</svg>
