<?xml version="1.0" encoding="utf-8"?>
<!-- Generator: Adobe Illustrator 25.1.0, SVG Export Plug-In . SVG Version: 6.00 Build 0)  -->
<svg version="1.1" id="Layer_1" xmlns="http://www.w3.org/2000/svg" xmlns:xlink="http://www.w3.org/1999/xlink" x="0px" y="0px"
	 viewBox="0 0 500 500" style="enable-background:new 0 0 500 500;" xml:space="preserve">
<style type="text/css">
	.st0{fill:#A6D6EC;}
	.st1{fill:#BCB9AD;}
	.st2{fill:#998C6A;}
	.st3{fill:#A59A76;}
	.st4{fill:#CCCAC2;}
	.st5{opacity:0.4;fill:#5D5D5D;enable-background:new    ;}
	.st6{opacity:0.2;enable-background:new    ;}
	.st7{fill:#CCCCCC;}
	.st8{opacity:0.6;fill:#00AEEF;enable-background:new    ;}
	.st9{fill:url(#SVGID_1_);}
	.st10{opacity:0.2;fill:#5D5D5D;enable-background:new    ;}
	.st11{fill:#1A96C1;}
	.st12{fill:#F9BEA0;}
	.st13{opacity:0.2;fill:#441A02;enable-background:new    ;}
	.st14{fill:#441A02;}
	.st15{fill:#DBD4BD;}
	.st16{fill:#BCB49F;}
	.st17{opacity:0.4;}
	.st18{fill:#FFFFFF;}
	.st19{fill:#27AAE1;}
	.st20{fill:#7CBAB5;}
	.st21{opacity:0.1;enable-background:new    ;}
	.st22{fill:#73ADA8;}
	.st23{opacity:0.2;fill:#FFFFFF;enable-background:new    ;}
	.st24{fill:#C9C09F;}
	.st25{opacity:0.7;}
	.st26{opacity:0.2;}
	.st27{fill:#DBDAD5;}
	.st28{fill:#B7AB88;}
	.st29{fill:#381402;}
	.st30{fill:#C8F2F2;}
	.st31{fill:#EDEAEF;}
	.st32{fill:#D05945;}
	.st33{fill:#C8FFFF;}
	.st34{fill:#0099CC;}
	.st35{fill:#C8FEFE;}
	.st36{fill:#EAB096;}
	.st37{opacity:0.2;fill:#190902;enable-background:new    ;}
	.st38{fill:#077F9B;}
	.st39{fill:#EAAE94;}
	.st40{fill:#E0A58C;}
	.st41{fill:#190902;}
	.st42{fill:#CE5259;}
	.st43{fill:#E16567;}
	.st44{opacity:0.1;}
	.st45{fill:#6B3928;}
	.st46{fill:#7F4730;}
	.st47{fill:#B6BABD;}
	.st48{fill:#7C8387;}
	.st49{fill:#C8CACC;}
	.st50{opacity:0.4;fill:#FFFFFF;enable-background:new    ;}
	.st51{fill:#669900;}
	.st52{fill:#993333;}
	.st53{fill:#C44D4D;}
</style>
<g id="Objects">
	<path class="st0" d="M469.8,417.9v0.4C469.8,418.2,469.8,418,469.8,417.9L469.8,417.9z"/>
	<g>
		<g>
			<g>
				<path class="st1" d="M300,13h-72.5c-0.2,0-0.5-0.3-0.5-0.5v-1.7c0-0.3,0.2-0.5,0.5-0.5H300c0.2,0,0.5,0.3,0.5,0.5v1.7
					C300.4,12.7,300.2,13,300,13z"/>
				<g>
					<g>
						<path class="st2" d="M242.9,403l-9.1,1.8c-0.2,0-0.4-0.1-0.4-0.3l-0.6-3.5c0-0.3,0.1-0.4,0.2-0.4l9.1-1.8
							c0.2,0,0.4,0.1,0.4,0.3l0.6,3.5C243.2,402.7,243,403,242.9,403z"/>
						<path class="st3" d="M236,407.8h-3.9c-0.4,0-0.7-0.4-0.7-0.8v-27.4h5.3V407C236.7,407.4,236.4,407.8,236,407.8z"/>
						<path class="st4" d="M235,371.6c1.9,0,3.4,1.7,3.4,3.8V398c0,1-0.7,1.8-1.6,1.8h-5.3c-0.9,0-1.6-0.8-1.6-1.8v-22.6
							c0-2.1,1.5-3.8,3.4-3.8H235z"/>
						<path class="st4" d="M239.2,392.2h-10.3c-0.4,0-0.7-0.4-0.7-0.8v-18.2c0-0.9,0.7-1.7,1.5-1.7h8.8c0.8,0,1.5,0.8,1.5,1.7v18.2
							C240,391.9,239.7,392.2,239.2,392.2z"/>
						<g>
							<ellipse class="st4" cx="234" cy="414.3" rx="10.9" ry="12.1"/>
							<ellipse class="st3" cx="234" cy="414.3" rx="7.1" ry="7.9"/>
							<ellipse class="st2" cx="234" cy="414.3" rx="4.2" ry="4.7"/>
						</g>
						<rect x="229.7" y="392.2" class="st5" width="8.7" height="1.6"/>
					</g>
					<g>
						<path class="st2" d="M302.2,403l-9.1,1.8c-0.2,0-0.4-0.1-0.4-0.3l-0.6-3.5c0-0.3,0.1-0.4,0.2-0.4l9.1-1.8
							c0.2,0,0.4,0.1,0.4,0.3l0.6,3.5C302.4,402.7,302.3,403,302.2,403z"/>
						<path class="st3" d="M295.3,407.8h-3.9c-0.4,0-0.7-0.4-0.7-0.8v-27.4h5.3V407C296,407.4,295.7,407.8,295.3,407.8z"/>
						<path class="st4" d="M294.3,371.6c1.9,0,3.4,1.7,3.4,3.8V398c0,1-0.7,1.8-1.6,1.8h-5.3c-0.9,0-1.6-0.8-1.6-1.8v-22.6
							c0-2.1,1.5-3.8,3.4-3.8H294.3z"/>
						<path class="st4" d="M298.5,392.2h-10.3c-0.4,0-0.7-0.4-0.7-0.8v-18.2c0-0.9,0.7-1.7,1.5-1.7h8.8c0.8,0,1.5,0.8,1.5,1.7v18.2
							C299.3,391.9,298.9,392.2,298.5,392.2z"/>
						<g>
							<ellipse class="st4" cx="293.3" cy="414.3" rx="10.9" ry="12.1"/>
							<ellipse class="st3" cx="293.3" cy="414.3" rx="7.1" ry="7.9"/>
							<ellipse class="st2" cx="293.3" cy="414.3" rx="4.2" ry="4.7"/>
						</g>
						<rect x="289" y="392.2" class="st5" width="8.7" height="1.6"/>
					</g>
					<path class="st4" d="M299.3,373.3v9.5h-71.1v-9.5c0-2.1,1.5-3.8,3.4-3.8h64.3C297.8,369.6,299.3,371.2,299.3,373.3z"/>
					<rect x="239.8" y="380.2" class="st5" width="47.7" height="2.6"/>
					<rect x="260" y="13" class="st4" width="7.4" height="356.6"/>
					<rect x="260" y="13" class="st6" width="3.7" height="356.6"/>
				</g>
				<g>
					<path class="st1" d="M222.9,30.7c-4.7,0-8.4-4.1-8.4-9.3V1.3c0-0.6,0.5-1.3,1.2-1.3c0.6,0,1.2,0.5,1.2,1.3v20.1
						c0,3.8,2.8,6.9,6.2,6.9s6.2-3.1,6.2-6.9V10.1c0-0.6,0.5-1.3,1.2-1.3c0.6,0,1.2,0.5,1.2,1.3v11.3
						C231.4,26.6,227.5,30.7,222.9,30.7z"/>
				</g>
				<g>
					<path class="st1" d="M303.5,30.7c4.7,0,8.4-4.1,8.4-9.3V1.3c0-0.6-0.5-1.3-1.2-1.3c-0.6,0-1.2,0.5-1.2,1.3v20.1
						c0,3.8-2.8,6.9-6.2,6.9s-6.2-3.1-6.2-6.9V10.1c0-0.6-0.5-1.3-1.2-1.3c-0.6,0-1.2,0.5-1.2,1.3v11.3
						C295,26.6,298.8,30.7,303.5,30.7z"/>
				</g>
				<g>
					<rect x="219.5" y="78.2" class="st7" width="6.8" height="2.3"/>
					<rect x="220.7" y="80.5" class="st7" width="4.4" height="5.2"/>
					<g>
						<path class="st7" d="M235.8,78.2h-25.7c-0.5,0-0.9-0.4-0.9-1V34c0-0.5,0.4-1,0.9-1h25.7c0.5,0,0.9,0.4,0.9,1v43.2
							C236.6,77.8,236.3,78.2,235.8,78.2z"/>
						<path class="st8" d="M234.2,39.5v32c0,1.4-1.1,2.5-2.2,2.5h-7.8v11.5h-2.3V74h-7.8c-1.3,0-2.2-1.2-2.2-2.5v-32
							c0-1.4,1.1-2.5,2.2-2.5h18C233.1,37.1,234.2,38.3,234.2,39.5z"/>
						<path class="st7" d="M226.2,33.1h-6.7v-4.8c0-0.8,0.6-1.4,1.3-1.4h4c0.7,0,1.3,0.6,1.3,1.4L226.2,33.1L226.2,33.1z"/>
					</g>
					<g>
						<path class="st7" d="M218.3,40.6h-7.1c-0.1,0-0.1-0.1-0.1-0.1V40c0-0.1,0.1-0.1,0.1-0.1h7.1c0.1,0,0.1,0.1,0.1,0.1v0.5
							C218.4,40.6,218.3,40.6,218.3,40.6z"/>
						<path class="st7" d="M218.3,44h-7.1c-0.1,0-0.1-0.1-0.1-0.1v-0.5c0-0.1,0.1-0.1,0.1-0.1h7.1c0.1,0,0.1,0.1,0.1,0.1v0.5
							L218.3,44z"/>
						<path class="st7" d="M218.3,47.2h-7.1c-0.1,0-0.1-0.1-0.1-0.1v-0.5c0-0.1,0.1-0.1,0.1-0.1h7.1c0.1,0,0.1,0.1,0.1,0.1v0.5
							C218.4,47.2,218.3,47.2,218.3,47.2z"/>
						<path class="st7" d="M218.3,50.6h-7.1c-0.1,0-0.1-0.1-0.1-0.1V50c0-0.1,0.1-0.1,0.1-0.1h7.1c0.1,0,0.1,0.1,0.1,0.1v0.5
							C218.4,50.4,218.3,50.6,218.3,50.6z"/>
						<path class="st7" d="M218.3,53.8h-7.1c-0.1,0-0.1-0.1-0.1-0.1v-0.5c0-0.1,0.1-0.1,0.1-0.1h7.1c0.1,0,0.1,0.1,0.1,0.1v0.5
							C218.4,53.8,218.3,53.8,218.3,53.8z"/>
						<path class="st7" d="M218.3,57.2h-7.1c-0.1,0-0.1-0.1-0.1-0.1v-0.5c0-0.1,0.1-0.1,0.1-0.1h7.1c0.1,0,0.1,0.1,0.1,0.1v0.5
							L218.3,57.2z"/>
						<path class="st7" d="M218.3,60.4h-7.1c-0.1,0-0.1-0.1-0.1-0.1v-0.5c0-0.1,0.1-0.1,0.1-0.1h7.1c0.1,0,0.1,0.1,0.1,0.1v0.5
							C218.4,60.4,218.3,60.4,218.3,60.4z"/>
						<path class="st7" d="M218.3,63.8h-7.1c-0.1,0-0.1-0.1-0.1-0.1V63c0-0.1,0.1-0.1,0.1-0.1h7.1c0.1,0,0.1,0.1,0.1,0.1v0.5
							C218.4,63.7,218.3,63.8,218.3,63.8z"/>
						<path class="st7" d="M218.3,67h-7.1c-0.1,0-0.1-0.1-0.1-0.1v-0.5c0-0.1,0.1-0.1,0.1-0.1h7.1c0.1,0,0.1,0.1,0.1,0.1v0.5
							L218.3,67z"/>
						<path class="st7" d="M218.3,70.4h-7.1c-0.1,0-0.1-0.1-0.1-0.1v-0.5c0-0.1,0.1-0.1,0.1-0.1h7.1c0.1,0,0.1,0.1,0.1,0.1v0.5
							L218.3,70.4z"/>
					</g>
				</g>
			</g>
			
				<linearGradient id="SVGID_1_" gradientUnits="userSpaceOnUse" x1="187.7121" y1="315.2" x2="269.7653" y2="315.2" gradientTransform="matrix(1 0 0 -1 0 499)">
				<stop  offset="0" style="stop-color:#C3C7E6"/>
				<stop  offset="0.2956" style="stop-color:#C0C3E2"/>
				<stop  offset="0.6068" style="stop-color:#B6B9D5"/>
				<stop  offset="0.9242" style="stop-color:#A5A7C0"/>
				<stop  offset="1" style="stop-color:#A0A2BA"/>
			</linearGradient>
			<path class="st9" d="M226,283.4l-0.4-1.1c0.2-0.1,24.1-5.7,23.1-16.7c-0.7-8.6-10.4-12.4-25.1-18.2c-4.2-1.6-8.9-3.5-13.8-5.6
				c-12.6-5.5-20.8-15.6-22-27.1c-1.1-9.8,3.3-18.9,11.6-24.3c10.3-6.7,21.3-9.2,31.9-11.6c10.5-2.4,20.6-4.7,27.7-11
				s10.5-15.9,9.2-25.7c-1.1-8.2-5.4-15-11.7-18.5c-3.2-1.8-7.1-2.9-11-3.1c2.8,4.7,4.6,9.3,4,13.2c-0.4,2.9-2,5.1-4.7,6.6
				c-5.8,3.3-11.7,1.8-14.8-1.1c-3.4-3.2-4.7-8.9,0.4-14.5c3.2-3.6,7.9-5.2,13-5.3c-3.7-5.7-8.8-11.2-13-14.9
				c-11.5-10.1-8.3-19.9-8.1-20.3l1.2,0.3c0,0.1-3.2,9.6,7.8,19.3c4.3,3.8,9.7,9.6,13.4,15.6c4.3,0.1,8.8,1.3,12.4,3.3
				c6.7,3.7,11.1,10.7,12.3,19.3c1.4,10.1-2.2,20.1-9.6,26.6c-7.4,6.6-17.5,8.9-28.3,11.3c-10.5,2.4-21.4,4.9-31.4,11.4
				c-7.9,5.1-12,13.9-11.1,23.3c1.2,11.1,9.1,20.8,21.3,26.2c4.9,2.1,9.6,4,13.8,5.6c14.5,5.7,25,9.8,25.8,19.1
				C251.1,277.5,227,283.1,226,283.4z M244.1,120.5c-4.9,0-9.6,1.5-12.6,4.9c-4.9,5.5-3.3,10.5-0.5,13.1c2.8,2.6,7.9,3.9,13.2,0.9
				c2.3-1.3,3.7-3.3,4.1-5.8C248.8,129.8,247,125.2,244.1,120.5z"/>
			<g>
				<g>
					<g>
						<g>
							<path class="st2" d="M93.9,408.5l-10.3,2.1c-0.2,0-0.4-0.1-0.4-0.3l-0.7-4c0-0.3,0.1-0.4,0.2-0.4l10.3-2.1
								c0.2,0,0.4,0.1,0.4,0.3l0.7,4C94.1,408.2,94,408.3,93.9,408.5z"/>
							<path class="st3" d="M86.2,413.8h-4.4c-0.4,0-0.7-0.4-0.7-0.8v-48.2h6V413C87,413.4,86.6,413.8,86.2,413.8z"/>
							<path class="st4" d="M88.7,355.7v47.1c0,1.2-0.8,2.1-1.9,2.1h-6c-1.1,0-1.9-0.9-1.9-2.1v-47.1H88.7z"/>
							<path class="st4" d="M89.8,396.4H78.1c-0.4,0-0.7-0.4-0.7-0.8v-39.8h13.2v39.8C90.5,396,90.3,396.4,89.8,396.4z"/>
							<g>
								<ellipse class="st4" cx="83.9" cy="421" rx="12.2" ry="13.5"/>
								<ellipse class="st3" cx="83.9" cy="421" rx="7.9" ry="8.8"/>
								<path class="st2" d="M88.7,421c0,2.9-2.1,5.3-4.8,5.3c-2.6,0-4.8-2.3-4.8-5.3c0-2.9,2.1-5.3,4.8-5.3
									C86.6,415.7,88.7,418.2,88.7,421z"/>
							</g>
							<rect x="79.1" y="396.4" class="st5" width="9.7" height="1.7"/>
						</g>
						<path class="st10" d="M89.7,409.2l3.7-0.8c0.5-0.1,0.8-0.5,0.7-1l-0.5-2.9c-0.1-0.5-0.5-0.9-0.9-0.8l-5.6,1.2v-0.1l0,0
							c1.1,0,1.9-0.9,1.9-2.1V398v-1.7l0,0c0.9,0,1.8-0.9,1.8-2.1v-38.6H77.4v38.6c0,1,0.8,1.9,1.8,2.1l0,0v1.7v4.7
							c0,1.2,0.8,2.1,1.9,2.1v3.2c-5.3,1.4-9.1,6.7-9.1,13c0,7.4,5.4,13.5,12.2,13.5c6.7,0,12.2-6,12.2-13.5
							C96.1,416,93.4,411.6,89.7,409.2z"/>
					</g>
					<polygon class="st2" points="49.2,397 81.1,391.2 87,391.2 54.9,397.2 					"/>
					<polygon class="st3" points="49.2,393 81.1,387.1 87,387.2 54.9,393.2 					"/>
					<g>
						<path class="st2" d="M62.1,414.3l-10.3,2.1c-0.2,0-0.4-0.1-0.4-0.3l-0.7-4c0-0.3,0.1-0.4,0.2-0.4l10.3-2.1
							c0.2,0,0.4,0.1,0.4,0.3l0.7,4C62.4,414,62.3,414.3,62.1,414.3z"/>
						<path class="st3" d="M54.5,419.6H50c-0.4,0-0.7-0.4-0.7-0.8v-48.2h6v48.2C55.2,419.2,54.8,419.6,54.5,419.6z"/>
						<path class="st4" d="M57.1,361.6v47.1c0,1.2-0.8,2.1-1.9,2.1h-6c-1.1,0-1.9-0.9-1.9-2.1v-47.1H57.1z"/>
						<path class="st4" d="M58.1,402.2H46.4c-0.4,0-0.7-0.4-0.7-0.8v-39.8h13.2v39.8C58.8,401.8,58.5,402.2,58.1,402.2z"/>
						<g>
							<ellipse class="st4" cx="52.1" cy="426.9" rx="12.2" ry="13.5"/>
							<ellipse class="st3" cx="52.1" cy="426.9" rx="7.9" ry="8.8"/>
							<ellipse class="st2" cx="52.1" cy="426.9" rx="4.8" ry="5.3"/>
						</g>
						<rect x="47.3" y="402.2" class="st5" width="9.7" height="1.7"/>
					</g>
					<polygon class="st2" points="87,387.2 87,391.2 58.8,396.5 58.8,392.4 68.7,390.6 81.7,388.1 					"/>
				</g>
				<polyline class="st2" points="68.7,390.7 425.7,389.7 425.7,393.7 68.7,394.7 				"/>
				<polygon class="st3" points="431.3,387.6 424.5,389.9 87,390.6 68.7,390.6 68.7,390.6 81.7,388.1 87,388.1 				"/>
				<g>
					<g>
						<g>
							<path class="st2" d="M446,408.5l-10.3,2.1c-0.2,0-0.4-0.1-0.4-0.3l-0.7-4c0-0.3,0.1-0.4,0.2-0.4l10.3-2.1
								c0.2,0,0.4,0.1,0.4,0.3l0.7,4C446.3,408.2,446.2,408.3,446,408.5z"/>
							<path class="st3" d="M438.4,413.8H434c-0.4,0-0.7-0.4-0.7-0.8v-48.2h6V413C439.1,413.4,438.7,413.8,438.4,413.8z"/>
							<path class="st4" d="M441,355.7v47.1c0,1.2-0.8,2.1-1.9,2.1h-6c-1.1,0-1.9-0.9-1.9-2.1v-47.1H441z"/>
							<path class="st4" d="M442,396.4h-11.7c-0.4,0-0.7-0.4-0.7-0.8v-39.8h13.2v39.8C442.7,396,442.4,396.4,442,396.4z"/>
							<g>
								<ellipse class="st4" cx="436.2" cy="421" rx="12.2" ry="13.5"/>
								<ellipse class="st3" cx="436.2" cy="421" rx="7.9" ry="8.8"/>
								<ellipse class="st2" cx="436.2" cy="421" rx="4.8" ry="5.3"/>
							</g>
							<rect x="431.3" y="396.4" class="st5" width="9.7" height="1.7"/>
						</g>
						<path class="st10" d="M441.8,409.2l3.7-0.8c0.5-0.1,0.8-0.5,0.7-1l-0.5-2.9c-0.1-0.5-0.5-0.9-0.9-0.8l-5.6,1.2v-0.1l0,0
							c1.1,0,1.9-0.9,1.9-2.1V398v-1.7l0,0c0.9,0,1.8-0.9,1.8-2.1v-38.6h-13.2v38.6c0,1,0.8,1.9,1.8,2.1l0,0v1.7v4.7
							c0,1.2,0.8,2.1,1.9,2.1v3.2c-5.3,1.4-9.1,6.7-9.1,13c0,7.4,5.4,13.5,12.2,13.5c6.7,0,12.2-6,12.2-13.5
							C448.2,416,445.6,411.6,441.8,409.2z"/>
					</g>
					<polygon class="st2" points="401.5,397 433.3,391.2 439.1,391.2 407.1,397.2 					"/>
					<polygon class="st3" points="401.5,393 433.3,387.1 439.1,387.2 407.1,393.2 					"/>
					<g>
						<path class="st2" d="M414.3,414.3l-10.3,2.1c-0.2,0-0.4-0.1-0.4-0.3l-0.7-4c0-0.3,0.1-0.4,0.2-0.4l10.3-2.1
							c0.2,0,0.4,0.1,0.4,0.3l0.7,4C414.5,414,414.4,414.3,414.3,414.3z"/>
						<path class="st3" d="M406.6,419.6h-4.4c-0.4,0-0.7-0.4-0.7-0.8v-48.2h6v48.2C407.3,419.2,407.1,419.6,406.6,419.6z"/>
						<path class="st4" d="M409.2,361.6v47.1c0,1.2-0.8,2.1-1.9,2.1h-6c-1.1,0-1.9-0.9-1.9-2.1v-47.1H409.2z"/>
						<path class="st4" d="M410.2,402.2h-11.7c-0.4,0-0.7-0.4-0.7-0.8v-39.8H411v39.8C410.9,401.8,410.7,402.2,410.2,402.2z"/>
						<g>
							<ellipse class="st4" cx="404.4" cy="426.9" rx="12.2" ry="13.5"/>
							<ellipse class="st3" cx="404.4" cy="426.9" rx="7.9" ry="8.8"/>
							<ellipse class="st2" cx="404.4" cy="426.9" rx="4.8" ry="5.3"/>
						</g>
						<rect x="399.6" y="402.2" class="st5" width="9.7" height="1.7"/>
					</g>
					<polygon class="st2" points="439.1,387.2 439.1,391.2 410.9,396.5 410.9,392.4 					"/>
				</g>
				<g>
					<path class="st11" d="M127.7,235.7c0-0.1,0-0.3,0-0.3c-0.7-9.6,3.3-19.1,9.2-23.9c6.2-5.1,16.1-6.2,23.5-6.5
						c27.6-1,47.2-0.9,47.2-0.9l0.5,53.3c0,0.8-6.4,0.8-7,0.8c-9.7,0.4-19.4,0.4-29.1,0.1c-12.2-0.4-27.5,1.3-37.6-8.6
						C130.9,246.5,128.1,241.1,127.7,235.7z"/>
					<g>
						<path class="st12" d="M137.1,220.6c-0.1,0.6-0.2,1.2-0.2,1.7c-0.6,2.9-2,7.8-4.2,9.7c-0.1,0.1-0.1,0.1-0.2,0.3
							c-1.2,0.9-2.9,0.4-4.3,0.4c-2.6-0.1-5.1-0.3-7.6-0.4c-0.6,0-1.2-0.1-1.9-0.1c0,0-0.1,0-0.2,0s-0.1,0-0.2,0l-9.4-0.4l-3.9-0.1
							l0.7-18.3c0.5-1.7,0.9-3.1,1.3-4.1l2.2,0.4l1.2,0.1h0.1h0.1l17.8,2.9c0,0,2.3,0.4,4.1,0.6c1.2,0.1,2.2,0.4,2.2,0.4
							C137.2,213.8,137.5,217.7,137.1,220.6z"/>
						<path class="st13" d="M132.7,231.8c-0.1,0.1-0.1,0.1-0.2,0.3c-1.2,0.9-2.9,0.4-4.3,0.4c-2.6-0.1-5.1-0.3-7.6-0.4
							c-0.6,0-1.2-0.1-1.9-0.1c0,0-0.1,0-0.2,0s-0.1,0-0.2,0c-2,0-9.2,0-9.4-0.4c-0.2-1-0.6-2.6-0.9-4.3c0.1-4,0.4-8.2,0.5-12.2
							c0.1-1.6-0.4-4.4,0.8-5.8c0.1-0.1,0.9,0.1,1.2,0.1h0.1h0.1l17.8,2.9c0,0,2.3,0.4,4.1,0.6c0,0.3,0,0.5-0.1,0.8
							c-0.1,0.9-0.5,1.8-0.8,2.7c-0.7,1.9-1.3,4-1.3,6.1c0,1.8,0.4,3.4,1.1,5.1C131.8,229.1,132.1,230.5,132.7,231.8z"/>
					</g>
					<path class="st12" d="M132,211c-0.8,2.3-2,4.9-3.5,6.6c-1.2,1.3-2.6,2.2-3.9,3.4c-2.8,2.7-4.2,7-7.4,9.2
						c-3.2,2.2-7.5,2.2-11.1,2.3c-6.2,0.1-12.4,0-18.5,0c-4.6,0-9.5-4.4-12.5-7.9c-3.9-4.4-6.4-10.4-6.7-16.6c0-0.3,0-0.6,0-0.9
						c0-5.4,1.6-10.9,4.8-15.2c3.3-4.4,7.8-7.3,12.7-8.8c2.8-0.9,5.7-1.4,8.5-1.6c1.5-0.1,2.9-0.3,4.4,0.4c0.6,0.3,1.2,0.6,1.8,1
						c0.6,0.3,1.3,0.1,2,0.3c0.6,0.1,1.3,0.4,1.6,0.9c0.2,0.3,0.4,0.8,0.7,1c0.6,0.6,1.9,0.6,2.7,0.8c1.1,0.1,2.2,0.1,3.3,0.1
						c1.9-0.1,3.7-0.6,5.5-0.4c0.9,0.1,1.3,0.3,1.5,1.3c0.5,2.3-0.6,5.7,1.6,7.3c0.1,0.1,0.1,0.1,0.2,0.1c0.6,0.4,1.3,0.5,2,0.5
						c0.7,0,1.4,0,2.1,0.3c0.6,0.3,1.2,1.2,0.7,1.8c0.9-0.3,2.1-0.5,2.7,0.4c0.2,0.4,0.4,0.9,0.4,1.3c0.1,1.3,0.7,3,1.8,3.8
						c1.2,0.9,2.5,0.6,3.3,2.3c0.9,1.8,0.1,3.9-0.5,5.7C132.1,210.6,132.1,210.8,132,211z"/>
					<path class="st14" d="M114.8,222.6c1.8,2.1,3.4,4.4,5.4,6.4c0.8,0.9,3.3,2.3,1.3,3c-2.6,0.8-5.7,0.6-8.4,0.6
						c-2.7,0-5.4,0-7.9,0c-4.9-0.1-9.9-0.1-14.8-0.3c-1.9,0-3.9-0.1-5.7-0.5c-1.8-0.4-3.5-1.3-5.1-2.2c-1.8-1-3.5-2.1-4.9-3.6
						c-1.4-1.6-2.5-3.6-2.5-5.8c0.2,1.3,0.5,2.6,0.6,4c-3-1.8-5.1-5.3-6.2-8.9c-1.1-3.6-1.2-7.7-0.9-11.5c-0.8,1.4-1.5,2.9-2,4.5
						c0.4-3.2,0.8-6.5,1.9-9.5s2.9-5.8,5.4-7.4c-1.4,0.6-2.8,1-4.3,1c2.9-1.8,6-3.8,7.7-6.9c1.2-2.1,1.6-4.5,3.2-6.4
						c0.6-0.6,1.3-1,2.1-1.3c1.1-0.4,2.1-0.8,3.2-1c1.1-0.3,2.2-0.4,3.3-0.4c0.4,0,2.9,0,3,0.4c-0.5-1-1.2-1.9-2.1-2.5
						c2.8,0.4,5.7,0.8,7.9,2.7c-0.2-1.6-0.7-3-1.4-4.4c1.9,2.1,3.5,4.8,3.3,7.8c1.4,0,2.7,1.3,3,2.9c-0.2-0.8-1.1-1.4-1.9-1.3
						c0.5,2.3,0.1,4.8-1.2,6.7c0.7-1.9,0.8-4.3,0.1-6.2c-0.1,0.9-0.1,1.8-0.2,2.7c-0.1,0.8-0.6,1.7-0.9,2.5c-0.7,1.4-1.5,2.7-2.3,4
						c-0.8,1.2-1.8,2.5-2.1,3.9c-0.4,1.4,0.4,3.4,1.6,3.6c1.5,0.4,3.5,0,5,0.1c1.5,0.1,3.2,0.5,4.2,1.9c0.7,0.9,1.1,2.2,1.6,3.2
						c1.5,2.5,4.7,2.7,7.4,2.7c0.6,0,1.2,0,1.8,0.3c0.6,0.3,0.9,0.9,0.9,1.6c-0.2,1-1.5,1.3-2.5,1.2c-1.6-0.1-3.4,0-5,0.1
						c-1.3,0.1-2.6,0.4-3.4,1.4s-0.7,2.7,0,3.9c0.7,1.2,1.8,1.9,2.9,2.5c0.9,0.4,1.9,0.8,2.8,0.9c0.9,0.3,2,0.3,2.9,0.6
						C112.7,220.3,113.7,221.5,114.8,222.6z"/>
					<g>
						<path class="st15" d="M142,258.8H43.4c-3.6,0-6.7-3.2-6.7-7.4v-11.7c0-4,2.9-7.4,6.7-7.4H142c3.6,0,6.7,3.2,6.7,7.4v11.7
							C148.7,255.6,145.7,258.8,142,258.8z"/>
						<path class="st16" d="M142,254.3H43.4c-3.6,0-6.7-3.2-6.7-7.4v4.5c0,4,2.9,7.4,6.7,7.4H142c3.6,0,6.7-3.2,6.7-7.4v-4.5
							C148.7,251,145.7,254.3,142,254.3z"/>
						<g class="st17">
							<path class="st18" d="M148.7,239.8v4.5c0-4-2.9-7.4-6.7-7.4H43.4c-3.6,0-6.7,3.2-6.7,7.4v-4.5c0-4,2.9-7.4,6.7-7.4H142
								C145.7,232.4,148.7,235.7,148.7,239.8z"/>
						</g>
					</g>
					<path class="st19" d="M195.2,232.5c0,0-0.8,11.3-1.5,20.4c-0.1,2.1-0.4,4.1-0.5,5.8c-0.2,3.4-0.5,5.6-0.5,5.6
						c0,0.5-4.4-0.1-4.8-0.1c-6.5-0.6-13.2-1.4-19.8-2.3c-8.7-1.3-18.4,0-26-5.7c-3.3-2.5-5.5-5.6-7.1-9.1c-1.3-2.7-2.2-5.8-2.9-8.9
						c-0.6-2.3,0-5.2,1.4-7c2-2.6,5.1-1.8,7.9-1.8c9.1,0,18.2,0.1,27.4,0.1c8.5,0.1,17.1,0.3,25.6,0.4
						C194.9,230,195.1,232.5,195.2,232.5z"/>
					<path class="st20" d="M450.4,203.4l-3.2,18.9l-6,36.6H169.2v-46.2c0-5.2,3.7-9.3,8.4-9.3h239.3c3.6,0,6.7-3.2,6.7-7.4v-1.2
						c0-4.7,3.4-8.4,7.6-8.4h11.7c4.2,0,7.6,3.8,7.6,8.4V203.4L450.4,203.4z"/>
					<path class="st21" d="M432.8,186.5c-0.9,0.9-2.1,1.7-3,2.6c-1.4,1.3-1.9,2.6-2.3,4.5c-0.7,2.9-1.3,5.7-1.6,8.7
						c-0.4,2.7-0.4,5.6-1.4,8.3c-1.2,3-3.9,4.9-6.2,6.2c0,0,4-7.9,0.8-10c-1.8-1.2-5.6-2.5-8.8-3.4h6.4c3.6,0,6.7-3.2,6.7-7.4v-1.2
						c0-4.7,3.4-8.4,7.6-8.4L432.8,186.5L432.8,186.5z"/>
					<path class="st22" d="M447,223.3c-2,5.7-4.8,11-8.8,15.3c-10.4,11.2-26.3,12.6-40.8,13.1c-8.9,0.4-17.8,0.6-26.7,0.9
						c-4.8,0.1-32.3-2.9-34.4-7.8l-4.8-11.3c-2.2-5.3-7.1-8.7-12.4-8.7H156.2v5.1h152.4l0,0c5.4,0,10.4,3.6,12.2,9.3
						c1.6,5.3,0.5,10.2-2.1,13.9c-34.5,0.6-69,0.5-103.5-0.4c-7.2,0-14.5,0-21.6,0c-8.2-0.1-16.4-0.3-24.6-0.4
						c-6.3-0.1-12.6-0.4-19.1-0.6c-2.6-0.1-5.1-0.3-7.6-0.9c-2.6-0.8-4.9-2.2-7.4-3.8c1.6,3.5,4.3,6.1,7.1,9.1
						c5.4,5.6,50.9,2.6,50.9,2.6h248.1l6-36.6C447.3,222.6,447.2,222.9,447,223.3z"/>
					<path class="st23" d="M404.4,210.7H155.8c-0.9,0-1.6-0.8-1.6-1.8l0,0c0-1,0.7-1.8,1.6-1.8h248.5c0.9,0,1.6,0.8,1.6,1.8l0,0
						C406.1,209.9,405.3,210.7,404.4,210.7z"/>
				</g>
				<g>
					<path class="st24" d="M446.3,315.5H43.7c-3.9,0-7-3.5-7-7.8v-31.9c0-9.3,6.8-16.9,15.2-16.9H438c8.4,0,15.2,7.5,15.2,16.9v31.9
						C453.4,312,450.2,315.5,446.3,315.5z"/>
					<g class="st25">
						<path class="st3" d="M453.4,300.3v7.3c0,4.3-3.2,7.8-7,7.8H43.7c-3.9,0-7-3.5-7-7.8v-7.3c0,4.3,3.2,7.8,7,7.8h402.6
							C450.2,308.2,453.4,304.7,453.4,300.3z"/>
					</g>
					<g class="st26">
						<path class="st18" d="M453.4,275.8v7c0-9.3-6.9-17-15.3-17H51.9c-8.4,0-15.3,7.7-15.3,17v-7c0-9.3,6.8-16.9,15.3-16.9H438
							C446.6,258.8,453.4,266.3,453.4,275.8z"/>
					</g>
				</g>
				<g>
					<g>
						<rect x="119.5" y="220.4" class="st4" width="6" height="91.3"/>
					</g>
					<g>
						<g>
							<rect x="191.4" y="220.4" class="st4" width="6" height="91.3"/>
						</g>
						<g>
							<rect x="269.8" y="220.4" class="st4" width="6" height="91.3"/>
						</g>
					</g>
					<g>
						<rect x="369.5" y="220.4" class="st4" width="6" height="91.3"/>
					</g>
					<g>
						<path class="st27" d="M415.1,217.2H74.9c-12.2,0-22,10.9-22,24.4v70.2h6v-65.1l0,0v-5.1c0-9.9,7.2-17.8,16-17.8h340.2
							c8.9,0,16,8,16,17.8v23.1l0,0v47.2h6v-70.2C437.1,228.1,427.3,217.2,415.1,217.2z"/>
					</g>
				</g>
				<rect x="15.9" y="311.7" class="st3" width="438.9" height="49.8"/>
				<polygon class="st10" points="43,353.6 43,311.7 15.9,311.7 15.9,361.6 454.8,361.6 454.8,353.6 				"/>
				<g>
					<path class="st28" d="M32,323.7H20.5V200.6c0-1.4,1.1-2.5,2.2-2.5h7c1.3,0,2.2,1.2,2.2,2.5v123.1H32z"/>
					<path class="st3" d="M34.7,368.1h-17c-1.1,0-2-0.9-2-2.2v-128c0-1,0.8-1.9,1.8-1.9H35c0.9,0,1.8,0.9,1.8,1.9v128
						C36.7,367.1,35.8,368.1,34.7,368.1z"/>
				</g>
				<g>
					<path class="st28" d="M469.6,350.1H458V227c0-1.4,1.1-2.5,2.2-2.5h7c1.3,0,2.2,1.2,2.2,2.5v123.1H469.6z"/>
					<path class="st3" d="M472.3,368.1h-17c-1.1,0-2-0.9-2-2.2V264.4c0-1,0.8-1.9,1.8-1.9h17.4c0.9,0,1.8,0.9,1.8,1.9v101.5
						C474.2,367.1,473.4,368.1,472.3,368.1z"/>
					<path class="st10" d="M35.1,363.8h-11c-2.7,0-4.9-2.5-4.9-5.4V236.6c0-0.1,0-0.4,0-0.5c-2,0.5-3.4,2.5-3.4,4.7v121.8
						c0,3,2.2,5.4,4.9,5.4h11c2.5,0,4.4-1.9,4.8-4.5C36.1,363.7,35.7,363.8,35.1,363.8z"/>
					<path class="st10" d="M472.7,363.8h-11c-2.7,0-4.9-2.5-4.9-5.4v-95.3c0-0.1,0-0.4,0-0.5c-2,0.5-3.4,2.5-3.4,4.7v95.3
						c0,3,2.2,5.4,4.9,5.4h11c2.5,0,4.4-1.9,4.8-4.5C473.7,363.7,473.1,363.8,472.7,363.8z"/>
				</g>
				<path class="st4" d="M479.2,351h-5v-71h5c0.9,0,1.8,0.9,1.8,1.9v67.2C481,350.1,480.2,351,479.2,351z"/>
				<g class="st26">
					<path class="st18" d="M446.7,318.7H55.3c-0.8,0-1.5-0.8-1.5-1.7l0,0c0-0.9,0.7-1.7,1.5-1.7h391.4c0.8,0,1.5,0.8,1.5,1.7l0,0
						C448.2,317.9,447.5,318.7,446.7,318.7z"/>
				</g>
			</g>
		</g>
	</g>
	<g>
		<path class="st29" d="M460.6,71.6c1.7-0.5,5.8-2.8,7.2-0.9c1.5,2-0.5,5.2-1.1,7.2c-0.9,2.7-1.7,5.2-2.2,8
			c-0.9,4.7-0.9,9.5,0.5,13.8c-1.4-0.7-2.8-1.3-4.3-2c-0.3,4.2-3.8,7.3-7.4,8.6c1.1-1.7,2-3.5,2.4-5.7c0,0.5-0.6,1-1.1,1.3
			c-1.7,1-2.4,3.3-2.2,5.3c0.3,2.1,1.4,3.9,2.8,5.3c-2.3-1.3-4.7-2.7-7-3.9c-0.6-0.4-1.4-0.9-1.9-1.4c-0.6-0.7-1.1-1.7-1.4-2.7
			c-1.7-4.7-1.7-9.7-1.7-14.7c0-1.1,0-2.3,0.3-3.4c0.4-1.8,1.3-3.4,2.4-4.8C449.8,77,455.1,73.5,460.6,71.6z"/>
		<path class="st29" d="M411.9,71.6c-1.7-0.5-5.8-2.8-7.2-0.9c-1.5,2,0.5,5.2,1.1,7.2c0.9,2.7,1.7,5.2,2.2,8
			c0.9,4.7,0.9,9.5-0.5,13.8c1.4-0.7,2.8-1.3,4.3-2c0.3,4.2,3.8,7.3,7.4,8.6c-1.1-1.7-2-3.5-2.4-5.7c0,0.5,0.6,1,1.1,1.3
			c1.7,1,2.4,3.3,2.2,5.3c-0.3,2.1-1.4,3.9-2.8,5.3c2.3-1.3,4.7-2.7,7-3.9c0.6-0.4,1.4-0.9,1.9-1.4c0.6-0.7,1.1-1.7,1.4-2.7
			c1.7-4.7,1.7-9.7,1.7-14.7c0-1.1,0-2.3-0.3-3.4c-0.4-1.8-1.3-3.4-2.4-4.8C422.7,77,417.4,73.5,411.9,71.6z"/>
		<g>
			<g>
				<g>
					<path class="st12" d="M439.9,281.1c0.3,5.2,0.4,10.4,0.6,15.5c0.5,12.9,1,26.1,1.5,39c0.4,11.1-0.4,22.2-0.4,33.3
						c0.1,16.5,3.1,32.7,3.6,49.2c0.4,13.7,1.3,27.2,1.3,40.9c0,4.7-1,8.7-1.4,13.3c-0.3,2.9-1.3,5.7-1.4,8.6c-0.3,6.5,0.5,19,9,19
						s9.5-0.9,13.3-8c2.2-4.1,1.3-9.1,0.4-16c-0.3-1.8-0.6-3.2-1.4-4.9c-0.1-0.4-0.4-0.9-0.5-1.3c-2.4-6.5-0.6-15.8-0.5-22.7
						c0.3-10.1,0.4-20.3,1-30.3c0.3-4.2,0-8.2,0.8-12.4c2.8-16.2,4.8-32.7,5.2-49.2c0.4-16.7,3.2-33.6,5.5-50
						c0.8-5.7,1.5-11.1,2.3-16.7c0.4-3.2,0.6-5.3,0.8-6.3l0,0c0-0.4,0.1-0.5,0.1-0.5h-39.8V281.1z"/>
					<g>
						<path class="st18" d="M452.7,499.7c8.5,0,9.5-0.9,13.3-8c2.2-4.1,1.3-9.1,0.4-16c-2,2.9-3.7,6.1-6.9,7.5
							c-2.5,1.1-5.5,1.1-8,0.1c-1.1-0.4-2.4-1.1-3.3-2.1c-0.9-1.3-1.7-2.8-2.2-4.3c-0.3-0.9-0.5-1.8-1-2.5c0-0.1-0.1-0.1-0.1-0.3
							c-0.5,3.3-1.1,2.9-1.3,6.6C443.4,487.2,444.2,499.7,452.7,499.7z"/>
						<path class="st6" d="M452.7,497.2c8.5,0,9.5-0.9,13.3-8c0.8-1.5,1.1-3.3,1.3-5.1c0.1,2.9-0.1,5.3-1.3,7.6
							c-3.8,7.2-4.8,8-13.3,8c-8.3,0-9.3-11.8-9-18.4C443.8,488.1,445.5,497.2,452.7,497.2z"/>
					</g>
				</g>
				<g>
					<path class="st12" d="M397.6,287L397.6,287c0,0.4,0.1,0.7,0.1,1.1c0.6,5.7,1.4,11.1,2.3,16.7c2,14.2,4.3,28.6,5.2,43.2
						c0.1,2.3,0.3,4.7,0.3,7c0.4,16.5,2.4,32.9,5.2,49.2c0.8,4.2,0.5,8.2,0.8,12.4c0.6,10.1,0.8,20.1,1,30.3
						c0.1,7,1.9,16.2-0.5,22.7c-0.1,0.4-0.4,0.9-0.5,1.3c-0.8,1.7-1.1,2.9-1.4,4.9c-0.9,6.7-1.7,11.8,0.4,16c3.8,7.2,4.8,8,13.3,8
						s9.3-12.5,9-19c-0.1-2.9-1.1-5.7-1.4-8.6c-0.4-4.5-1.4-8.6-1.4-13.3c0-13.7,0.8-27.2,1.3-40.8c0.5-16.5,3.4-32.6,3.6-49.2
						c0-7.1-0.3-13.9-0.4-20.9c-0.1-4.1-0.1-8.2,0-12.4c0.5-12.9,1-26.1,1.5-39c0.3-5.2,0.4-10.4,0.6-15.7h-38.9c0,0.3,0,0.4,0,0.7
						l0,0C397.6,283.4,397.6,285.2,397.6,287z"/>
					<g>
						<path class="st18" d="M423.7,499.7c-8.5,0-9.5-0.9-13.3-8c-2.2-4.1-1.3-9.1-0.4-16c2,2.9,3.7,6.1,6.9,7.5
							c2.5,1.1,5.5,1.1,8,0.1c1.1-0.4,2.4-1.1,3.3-2.1c0.9-1.3,1.7-2.8,2.2-4.3c0.3-0.9,0.5-1.8,1-2.5c0-0.1,0.1-0.1,0.1-0.3
							c0.5,3.3,1.1,2.9,1.3,6.6C433.2,487.2,432.4,499.7,423.7,499.7z"/>
						<path class="st6" d="M423.7,497.2c-8.5,0-9.5-0.9-13.3-8c-0.8-1.5-1.1-3.3-1.3-5.1c-0.1,2.9,0.1,5.3,1.3,7.6
							c3.8,7.2,4.8,8,13.3,8c8.3,0,9.3-11.8,9-18.4C432.8,488.1,431.1,497.2,423.7,497.2z"/>
					</g>
				</g>
				<g>
					<path class="st21" d="M439.9,281.1c0,0,1.7,40.4,2.7,67c0,1.5,0.1,2.9,0.1,4.3h27.8c0.1-1.4,0.4-2.8,0.6-4.3h2.9
						c0,0,0.4-2.5,1-6.7c0.1-0.7,0.3-1.5,0.4-2.4c0.1-0.7,0.1-1.3,0.3-2c1.7-11.7,3.8-30.9,3.9-47.6c0-0.5,0-1.3,0-1.8
						c0-2,0-3.9-0.1-5.7l0,0c0-0.4,0.1-0.5,0.1-0.5h-39.8V281.1z"/>
					<path class="st21" d="M398.8,291.3v0.5c0,17.2,2.3,37.2,4.1,49.5c0.1,0.7,0.1,1.4,0.3,2c0.1,0.9,0.3,1.7,0.4,2.4
						c0.1,0.9,0.3,1.7,0.4,2.4h1.3c0.3,1.4,0,2.9,0.3,4.3h2.5c0-2.3,0-4.5,0.1-6.6c0-2,0.5-3.4,0.9-5.2c0.6-3.2,1-6.3,1.4-9.5
						c0.1-0.7,0.3-1.4,0.4-2.1c0-0.3,0.1-0.5,0.3-0.9c0.6,3.3,1.3,6.5,1.9,9.7c0,0,0,0,0,0.1c0.1,0.5,0.3,1.1,0.4,1.7
						c0.4,1.3,0.9,2.5,1.1,3.8c0.3,0.9,0.4,1.7,0.6,2.4c0.3,0.9,0.4,1.7,0.6,2.4c0.5,2,0.9,3.5,1.1,4.3h17.7c0-1.4,0.1-2.8,0.1-4.3
						c1-26.5,2.7-67,2.7-67h-38.3C399,284,398.8,287.5,398.8,291.3z"/>
				</g>
			</g>
			<g>
				<g>
					<path class="st30" d="M397.6,287L397.6,287v0.4c0,17.2,2.3,37.2,4.1,49.5c0.1,0.7,0.1,1.4,0.3,2c0.1,0.9,0.3,1.7,0.4,2.4
						c0.6,4.1,1,6.6,1,6.7h3.3c0-2.3,0-4.5,0.1-6.6c0-2,0.5-3.4,0.9-5.2c0.6-3.2,1-6.3,1.4-9.5c0.1-1,0.3-2.1,0.6-3.2
						c0.4,1.7,0.6,3.5,1,5.2c0.3,1.5,0.6,2.9,0.9,4.5c0.3,1.5,0.9,2.8,1.3,4.3c0,0,0,0,0,0.1c0.1,0.4,0.3,0.7,0.3,1.1
						c0,0.1,0.1,0.3,0.1,0.5c0.1,0.7,0.3,1.3,0.5,2c0.8,3.2,1.4,5.5,1.7,6.7h58.6c0,0,0.4-2.5,1-6.7c0.1-0.7,0.3-1.5,0.4-2.4
						c0.1-0.7,0.1-1.3,0.3-2c1.7-11.7,3.8-30.9,3.9-47.6c0-0.5,0-1.3,0-1.8c0-2,0-3.9-0.1-5.7l0,0c0-0.3,0-0.4,0-0.5
						c0-0.5,0-1.1-0.1-1.7c0-1-0.1-1.8-0.1-2.8c-0.1-2.8-0.4-5.3-0.8-7.6c-0.1-0.7-0.1-1.4-0.3-2.1c-0.3-1.8-0.6-3.5-0.9-5.1
						c-0.3-1.1-0.5-2.3-0.8-3.2c-0.1-0.4-0.3-1-0.4-1.4c-0.1-0.4-0.3-0.7-0.3-1.1l0,0c-0.3-1.1-0.6-2-0.9-2.7c0-0.1-0.1-0.4-0.3-0.5
						c0-0.1-0.1-0.3-0.1-0.4v-5.7v-1.5v-1c-0.3-0.5-0.5-1.1-0.8-1.8c0-0.1,0-0.1-0.1-0.3c-0.3-0.9-0.5-1.7-0.8-2.4
						c-0.1-0.5-0.4-1.3-0.5-1.8l-3.8-0.4l-30.9-3.5l-32.4,3.8l-3.7,0.4l0.1,7.5v1v0.7v5.3c-1.4,3.8-3.9,12.4-4.4,27.7
						c0,0.3,0,0.4,0,0.7l0,0C397.6,283.4,397.6,285.2,397.6,287z"/>
					<path class="st6" d="M402,238.7l0.1,7.5v1v0.7c0.4,0,0.8,0.1,1.3,0.1c1.4,0.1,2.8,0,4.2-0.1c5.3-0.4,10.7-0.1,16,0.7
						c1.7,0.3,3.2,0.7,4.7,1c1.9,0.3,3.9,0.7,5.8,1c3.8,0.7,7.8,1.4,11.6,2.1c6.6,1.3,13.1,2.9,19.7,4.3c2.4,0.4,4.8,1,7.1,2.1
						c2.8,1.4,4.8,3.5,6.6,6.2c0.4-5.1-4.2-7.9-4.2-12.7v-5.7v-1.3v-1c-0.3-0.5-0.5-1.1-0.8-1.8c0-0.1,0-0.1-0.1-0.3
						c-0.3-0.9-0.5-1.7-0.8-2.4c-0.1-0.5-0.4-1.3-0.5-1.8l-3.8-0.4c-9.7-1.1-19.3-2.3-29-3.4c-0.6,0-1.3-0.1-1.9-0.1l-32.4,3.8
						L402,238.7z"/>
				</g>
				<path class="st31" d="M415.5,122.2c0-1.5,0.3-3.2,0.8-4.5h39.5c0.5,1.4,0.8,2.9,0.8,4.5c0,6.2-3.9,11.5-9.8,14.7
					c-2,1.1-4.3,1.8-6.9,2.3c-1.3,0.3-2.7,0.3-3.9,0.3c-0.6,0-1.3,0-1.9-0.1c-2.2-0.1-4.2-0.5-6.1-1.3
					C420.6,135.5,415.5,129.4,415.5,122.2z"/>
				<path class="st32" d="M434,139.4c0.6,0,1.3,0.1,1.9,0.1c1.4,0,2.7-0.1,3.9-0.3l-0.9-8.6h-4.1L434,139.4z"/>
				<path class="st6" d="M439.3,132.2c-0.6,0.3-1.4,0.3-2.3,0.3c-0.8,0-1.5-0.1-2.2-0.3l0.1-1.7h4.1L439.3,132.2z"/>
				<path class="st32" d="M431.8,129.4c1.1,1.4,3.1,2.4,5.2,2.4c2.3,0,4.2-1,5.3-2.4c-1.5-2.4-5.3-3.8-5.3-3.8
					S433.3,127,431.8,129.4z"/>
				<g>
					<path class="st33" d="M462.5,143.8c0,0.3,0,0.5,0,1v0.1c0,0.4,0.1,1,0.1,1.4c0.4,2.7,1,5.7,2,8.5c0.4,1.1,0.8,2.4,1.3,3.5
						c0,0.1,0.1,0.3,0.3,0.5c0.8,1.8,1.5,3.8,2.3,5.5l0,0c0.8,1.8,1.7,3.5,2.4,5.1c0.5,1,1,2,1.4,2.8c0.9,1.7,1.5,2.9,2,3.8l0,0
						c0.4,0.7,0.6,1,0.6,1l0.9-0.1l1.4-0.3l0.5-0.1h0.1l11.9-2.8l2.9-0.7c0-1,0-1.8-0.1-2.7c-0.6-16.2-4.3-27.1-8.8-38.6
						c-1.8-4.5-4.7-7.5-7.8-9.6c-1-0.7-2-1.3-3.1-1.7c-1.4-0.7-2.8-1.3-3.9-1.7l0,0c-1.5-0.4-2.7-0.7-3.4-0.9
						c-0.4,0-0.6-0.1-0.6-0.1l0,0c0,0.4-0.8,5.9-1.4,13.2c-0.1,2.1-0.4,4.5-0.5,7l0,0c-0.1,1.4-0.3,2.9-0.3,4.5
						C462.5,142.8,462.5,143.2,462.5,143.8z"/>
					<path class="st33" d="M383,173.1l2.9,0.7l7.6,1.8l3.8,1l1,0.3l1.4,0.3l0.9,0.1c0,0,0.3-0.5,0.8-1.4c0.8-1.3,1.9-3.5,3.2-6.2
						c3.7-7.6,8.6-19.5,8.3-27.4c-0.6-12.2-2.2-23.8-2.2-24.6l0,0l0,0l0,0l0,0c-0.1,0-0.3,0-0.6,0.1c-0.6,0.1-1.9,0.4-3.4,0.9l0,0
						c-0.3,0.1-0.6,0.1-0.9,0.3c-1.5,0.5-3.2,1.3-4.8,2.3c-1,0.5-2,1.3-2.9,2.1c-2.4,2-4.6,4.7-6,8.4
						C387.1,144,383.2,155.4,383,173.1z"/>
					<path class="st34" d="M471.3,173.8l0.4,4.5c0,0.7,0.6,1.3,1.3,1.1l2.5-0.3h0.5l13.6-1.4l4.1-0.4c0.6,0,1.1-0.7,1-1.4l-0.4-4.5
						c0-0.7-0.6-1.3-1.3-1.1h-0.6l-13.1,1.4l-7,0.7c0,0,0,0-0.1,0C471.7,172.6,471.3,173.1,471.3,173.8z"/>
					<path class="st34" d="M380.9,176.1c0,0.7,0.4,1.3,1,1.4l3.8,0.4h0.1l10,1.1h0.3l2.8,0.3h0.3h0.3h0.4h0.1l1.5,0.1l1,0.1
						c0.6,0,1.1-0.4,1.3-1.1l0.4-4.5c0-0.7-0.4-1.3-0.9-1.4c0,0,0,0-0.1,0H403l-6.9-0.7l-4.2-0.4l0,0l-8.8-1h-0.1h-0.5
						c-0.6,0-1.1,0.4-1.3,1.1L380.9,176.1z"/>
					<path class="st21" d="M462.5,142.4c0,0.4,0,1,0,1.4c0,0.1,0,0.4,0,0.5s0,0.3,0,0.3v0.1c0,0.4,0.1,1,0.1,1.4
						c0.4,2.9,1.1,5.8,2,8.5c0.4,1.1,0.8,2.4,1.3,3.5c0,0.1,0.1,0.3,0.3,0.5c0.6,1.7,1.7,3.5,2.3,5.5l0,0c0.8,1.8,1.7,3.5,2.4,5.1
						c0.5,1,1,2,1.4,2.8c-0.6,0.1-1,0.7-0.9,1.4l0.4,4.5c0,0.7,0.6,1.3,1.3,1.1l2.5-0.3h0.5c0,0,0.1-0.1,0.1-0.3
						c0.4-0.5,0.8-1.1,1-1.7c0.1-0.1,0.3-0.4,0.3-0.5c0.8-1.5,1.4-3.3,1.8-4.8c0.8-2.7,1.1-5.5,1.1-8.4c0-0.1,0-0.4,0-0.5v-0.1
						c0-0.3,0-0.4,0-0.7c0-1.1-0.1-2.3-0.4-3.5c-1-4.5-2.8-8.6-4.1-13.2c-1.4-5.1-2.2-10.3-3.2-15.3c-0.3-1.3-0.5-2.5-1.4-3.4
						c-1-0.9-2.5-0.9-3.7-0.3c-1.4,0.7-3.3,2.7-4.4,4.7c-0.5,0.9-0.8,1.8-0.9,2.5c-0.1,1.1,0.3,2.3,0.3,3.4c0,0.3,0,0.5,0,1l0,0
						C462.8,139.3,462.6,140.8,462.5,142.4z"/>
					<path class="st21" d="M391.1,163.6c0,2.4,0.3,5.2,0.9,7.7c0,0.1,0,0.1,0,0.3c0.3,1,0.6,1.8,1,2.7c0.3,0.5,0.5,1,0.8,1.4
						c0.6,1.1,1.4,2.3,2.2,3.3c0,0.1,0.1,0.1,0.3,0.3l2.8,0.3h0.3c-0.1-0.1-0.1-0.1-0.3-0.3h0.5h0.4h0.1l1.5,0.1l0,0
						c0-0.5,0-1,0.1-1.5c0.1-1.7,0.8-3.4,1.5-5.1c0-0.1,0.1-0.1,0.1-0.3c0.1-0.3,0.3-0.5,0.4-0.9c0.4-0.7,0.6-1.3,0.9-2
						c3.7-7.6,8.6-19.5,8.3-27.4c-0.3-4.1-0.6-8.2-0.9-12.4c0-0.1,0-0.3,0-0.4c-0.1-1,0.5-2.8-0.3-3.5l0,0c-1-1-3.8-0.9-5-0.5
						c-2.3,0.7-3.9,2.8-4.8,5.2c-0.9,2.4-1.3,4.9-2,7.3c-0.9,3.2-2.8,5.7-3.7,8.6C392.9,151.6,391.1,157.5,391.1,163.6z"/>
					<path class="st35" d="M394.1,163.6c0,4.5,1,8.7,2.9,12.3c0.1,0.1,0.3,0.4,0.4,0.5c0.5,1,1,1.8,1.7,2.7c0.3,0.4,0.6,0.9,0.9,1.1
						c5.2,6.5,7.9,15.1,8.1,23.7c0.1,3.7-0.1,7.3-0.9,10.9c-0.5,2.1-1,4.1-1.4,6.2c-0.4,1.7-2,5.5-1.7,7.2c0.8,3.5,1.3,7.1,1.5,10.1
						c0.3,2.3,0.5,4.3,0.6,6.1c0,0.9,0.3,1.8,0.5,2.5H431c1.9,0,3.7,0,5.6,0l1-6.6l0.6-4.5l0.9,4.7l1.1,6.5c10.7,0,21.4-0.1,32,0
						c0.9,0,1.8,0,2.5,0h0.5c0-0.7-0.1-1.4-0.5-2.1c-0.3-0.5-0.5-1.1-0.8-1.8c-0.3-0.9-0.6-1.8-0.9-2.7c-0.1-0.5-0.4-1.3-0.5-1.8
						c-1.8-6.5-3.3-14.1-3.6-20.8c-0.3-5.9-1.4-11.7-1.5-17.6c-0.1-4.2,0.4-8.5,1.4-12.5c1.1-4.2,3.2-7.6,5.1-11.4
						c2.5-4.8,3.4-10.5,2.9-16.1c-0.5-5.7-2.8-10.5-3.7-16.1c-0.6-4.2-1-8.6-1-12.9c0-3.5,0.5-7.2,0.4-10.8
						c-1.4-0.7-2.8-1.3-4.1-1.7c-1.5-0.4-2.7-0.7-3.4-0.9c-0.4,0-0.6-0.1-0.6-0.1s-54,0-54.1,0c-0.1,0-0.3,0-0.6,0.1
						c-0.6,0.1-1.9,0.4-3.4,0.9c-0.3,0.1-0.6,0.1-0.9,0.3c-1.5,0.5-3.2,1.3-4.8,2.3c-0.1,1.5,0.3,3.4,0.4,4.5
						c0.5,6.5,0.1,12.9-1.9,19.1C397.4,150.9,394.1,156.7,394.1,163.6z"/>
					<path class="st33" d="M400.1,246.8h6.7c-0.3-0.9-0.5-1.7-0.5-2.5c-0.3-4.1-0.9-10-2.2-16.2c-0.8,3.4-1.7,7-2.3,10
						C400.7,243.1,400,246.8,400.1,246.8z"/>
					<path class="st31" d="M449.8,130c1.1-1.5,2.2-3.2,3.2-4.7c0.9-1.5,1.5-3.4,2.5-4.9c1-1.5,1.1-2.7-0.6-3.7
						c-1.5-0.9-3.1-1.4-4.6-2c-1.4-0.4-2.8-0.7-4.1-1.4c-1.4-0.7-3.1-0.9-4.4-1c-1.8-0.1-3.4-0.3-5.2-0.3c-2.2,0-4.3,0.3-6.4,0.7
						c-2.5,0.7-5,1.7-7.4,2.8c-1.5,0.5-3.1,1.3-3.9,2.7c-0.1,0.1-0.3,0.3-0.3,0.5c0,0.1,0,0.4,0.1,0.5c1.1,2.9,2.4,5.9,3.9,8.6
						c0.8,1.4,1.7,2.7,2.5,3.9c0.9,1.3,1.8,2.5,2.9,3.7c0.9,0.9,2,1.4,3.2,1.4c0.4,0,0.9,0,1.3-0.3c0.4-0.3,0.6-0.7,0.9-1.1
						c0.5-0.7,1-1.1,1.7-1.7c0.4-0.4,0.9-0.7,1.4-0.9c0.6-0.1,1.3,0,1.8,0.3c1,0.5,1.9,1.4,2.9,2.3c1.4,1.1,4.2,2.3,5.2,0
						c0.4-1,0.6-1.7,1.1-2.5C448.1,132.1,449,130.9,449.8,130z"/>
				</g>
				<g>
					<path class="st36" d="M403.5,73.2c0.5,1.3,1,2,1.9,2.8c0.6,0.5,1.4,1,2,1.4c0.4,0.3,0.8,0.4,1.1,0.7c0.5,0.3,0.9,0.4,1.4,0.5
						c0.4,0.1,0.8,0.1,1.1,0.1c0.6-0.1,1.3-0.5,1.8-1.1s0.8-1.3,1.1-1.8l-3.3-16.3c-0.6-1.1-2.4-1.4-3.6-1.3
						c-2.9,0.4-4.3,4.5-4.7,7.2C402.4,68.1,402.7,70.8,403.5,73.2z"/>
					<path class="st37" d="M406.7,73.2c-0.3-0.1-0.4-0.4-0.4-0.9c0-0.4,0.3-0.9,0.4-1.3c0.1-0.4,0.3-0.9,0-1.3
						c-0.1-0.3-0.5-0.3-0.8-0.4c-0.3-0.1-0.6-0.3-0.6-0.7c0-0.1,0-0.3,0.1-0.3c0.1-0.3,0.3-0.5,0.4-0.9c0.3-0.4,0.5-0.7,0.8-1.1
						c0.3-0.4,0.5-0.7,0.6-1.3c0.1-0.4,0-1-0.3-1.3c-0.4-0.4-1.1-0.4-1.7,0c-0.5,0.4-0.6,1-0.8,1.7c-0.1,0.9-0.1,1.7,0.1,2.4
						c-0.4-0.9-0.8-1.7-0.6-2.7c0-1,0.4-1.8,0.9-2.5c0.8-1,2.5-1.4,3.4-0.4c0.4,0.4,0.5,0.9,0.8,1.3c0.3,0.5,0.5,1.3,0.5,1.8
						c0,0.9-0.3,1.5-0.6,2.3c-0.4,0.8-0.8,1.3-0.5,2.1c0.1,0.4,0.4,0.9,0.6,1.3c0.1,0.4,0.3,0.7,0.3,1.1c0,0.3,0,0.5-0.1,0.9
						c-0.3,0.4-0.8,0.4-1.1,0.4C407.7,73.4,407.1,73.4,406.7,73.2z"/>
				</g>
				<g>
					<path class="st36" d="M458.8,75.8c0.4,0.5,0.8,1.3,1.1,1.8c0.5,0.5,1,1,1.8,1.1c0.1,0,0.1,0,0.3,0c0.6,0.1,1.4-0.1,2-0.5
						c0.1,0,0.3-0.1,0.4-0.1c1.1-0.7,2.3-1.3,3.3-2.1c0.9-0.9,1.5-1.5,1.9-2.8c0.9-2.4,1.1-5.1,0.8-7.7c-0.4-2.8-1.8-7-4.7-7.2
						c-1.1-0.1-2.8,0.3-3.6,1.3L458.8,75.8z"/>
					<path class="st37" d="M466.3,73.2c0.3-0.1,0.4-0.4,0.4-0.9c0-0.4-0.3-0.9-0.4-1.3c-0.1-0.4-0.3-0.9,0-1.3
						c0.1-0.3,0.5-0.3,0.8-0.4c0.3-0.1,0.6-0.3,0.6-0.7c0-0.1,0-0.3-0.1-0.3c-0.1-0.3-0.3-0.5-0.4-0.9c-0.3-0.4-0.5-0.7-0.8-1.1
						c-0.3-0.4-0.5-0.7-0.6-1.3c-0.1-0.4,0-1,0.3-1.3c0.4-0.4,1.1-0.4,1.7,0c0.5,0.4,0.6,1,0.8,1.7c0.1,0.9,0.1,1.7-0.1,2.4
						c0.4-0.9,0.8-1.7,0.6-2.7c0-1-0.4-1.8-0.9-2.5c-0.8-1-2.5-1.4-3.4-0.4c-0.4,0.4-0.5,0.9-0.8,1.3c-0.3,0.5-0.5,1.3-0.5,1.8
						c0,0.9,0.3,1.5,0.6,2.3c0.4,0.8,0.8,1.3,0.5,2.1c-0.1,0.4-0.4,0.9-0.6,1.3c-0.1,0.4-0.3,0.7-0.3,1.1c0,0.3,0,0.5,0.1,0.9
						c0.3,0.4,0.8,0.4,1.1,0.4C465.3,73.4,465.9,73.4,466.3,73.2z"/>
				</g>
				<g>
					<path class="st38" d="M450.6,110c0,0-14.4-9.7-27.6,0c0,0,11.8,16,13.9,17.1C436.7,127,448.3,115.7,450.6,110z"/>
					<ellipse class="st12" cx="436.8" cy="114.1" rx="11.1" ry="12.9"/>
					<g>
						<path class="st12" d="M425.8,80v33.6h22.1V78.8H430C428.3,79.1,426.8,79.5,425.8,80z"/>
						<path class="st13" d="M425.8,83.3V101c3.4,2.7,8.5,4.7,13.5,5.2c3.3,0.3,6.4,2,8.6,3.7v-28H430
							C428.3,82.5,426.8,82.9,425.8,83.3z"/>
					</g>
				</g>
				<path class="st39" d="M460.1,53.4c0.8-1.1,2.4-1.4,3.6-1.1c2.9,0.5,4.1,4.7,4.4,7.5c0.3,2.5,0,5.3-1,7.7c-0.5,1.3-1,2-2,2.7
					c-1,0.9-2.2,1.4-3.3,2c-0.8,0.4-1.8,0.9-2.7,0.5c-0.6-0.1-1.3-0.5-1.7-1.1c-0.5-0.5-0.8-1.3-1.1-1.8"/>
				<g>
					<path class="st12" d="M410.4,73.8c-0.1,6.2,2,10.5,5.3,14.7c1,1.3,2.2,2.5,3.4,3.9c1.9,2,3.6,4.3,5.6,6.3
						c1.8,1.7,4.7,2.9,7.5,3.8c1.8,0.5,3.7,0.9,5.2,0.9c0.9,0,2.2-0.3,3.6-0.9c3.9-1.5,9-5.2,12.5-8.4c0.8-0.7,1.5-1.4,2.2-2.1
						c4.1-4.3,6-8.9,6.2-16.2l1-29.6c0.3-8.2-3.4-15.7-9.3-19.9c-3.1-2.1-6.6-3.5-10.4-3.7l-10.7-0.4c-11.3-0.4-20.7,9.3-21.2,21.9
						L410.4,73.8z"/>
				</g>
				<path class="st40" d="M458.8,62c0.1,0.1,0.1,0.4,0.3,0.5C459,62.3,458.8,62.1,458.8,62z"/>
				<g>
					<g>
						<g>
							<g>
								<path class="st41" d="M420.7,66.8c-0.1,2.5,1.4,4.5,3.2,4.7c1.8,0.2,3.4-1.8,3.4-4.3c0.1-2.5-1.4-4.5-3.2-4.7
									C422.3,62.3,420.8,64.3,420.7,66.8z"/>
								<path class="st18" d="M422,64.8c0,0.5,0.4,1,0.9,1c0.5,0,0.9-0.4,0.9-1c0-0.5-0.4-1-0.9-1C422.3,63.9,422,64.3,422,64.8z"/>
							</g>
							<path class="st41" d="M429.5,60.4c0,0-6.4-2-8.6-1.8c-2.9,0.3-4.7,1.3-4.7,1.3s3.6-4.1,6.1-3.7c2.5,0.5,6.2,1.4,6.2,1.4
								S430.6,58.1,429.5,60.4z"/>
						</g>
						<g>
							<g>
								<path class="st41" d="M445.4,67.8c-0.1,2.5,1.4,4.5,3.2,4.7c1.8,0.2,3.4-1.8,3.4-4.3c0.1-2.5-1.4-4.5-3.2-4.7
									C447,63.4,445.5,65.4,445.4,67.8z"/>
								<path class="st18" d="M446.6,65.8c0,0.5,0.4,1,0.9,1c0.5,0,0.9-0.4,0.9-1c0-0.5-0.4-1-0.9-1C447,64.8,446.6,65.3,446.6,65.8
									z"/>
							</g>
							<path class="st41" d="M443.8,60.9c0,0,6.5-1.4,8.6-1.1c2.9,0.5,4.7,1.7,4.7,1.7s-3.2-4.3-5.8-4.1c-2.7,0.3-6.2,0.9-6.2,0.9
								S442.8,58.6,443.8,60.9z"/>
						</g>
					</g>
					<path class="st40" d="M437.1,74.8c0.4,0.5,0.8,1.3,1.1,1.8c0.4,0.4,0.9,1,0.5,1.7c-0.1,0.3-0.4,0.5-0.8,0.7
						c-0.9,0.4-1.7,0.9-2.5,0.4c-0.5-0.1-1-0.5-1.4-0.9L437.1,74.8z"/>
					<g>
						<g>
							<path class="st42" d="M426.8,86c0,2,0.6,3.8,1.8,5.2c1.5,1.8,3.7,3.2,6.2,3.2c2.5,0.1,4.8-1,6.4-2.7c1.3-1.4,2-3.2,2.2-5.1
								c-0.3,0.1-0.6,0.3-0.9,0.3c-2.2,0.7-4.7,1-7.5,1c-2.7-0.1-5.2-0.7-7.4-1.5C427.4,86.3,427.2,86.2,426.8,86z"/>
							<path class="st43" d="M428.7,91.3c1.5,1.8,3.7,3.2,6.2,3.2c2.5,0.1,4.8-1,6.4-2.7c-1.4-1.8-3.7-3.2-6.2-3.2
								S430.2,89.5,428.7,91.3z"/>
						</g>
						<path class="st18" d="M427.8,86.4v1c0,1.1,0.8,2.1,1.8,2.1l11.1,0.4c1,0,1.9-0.9,1.9-2v-1.1c-2.2,0.7-4.7,1-7.5,1
							C432.4,87.8,429.8,87.2,427.8,86.4z"/>
					</g>
				</g>
				<g>
					<path class="st34" d="M436.7,127c0,0,3.8,1.5,5.3,4.3c0.3,0.5,0.5,1,0.6,1.5c0,0.1,0,0.4,0,0.5c0.1,4.1,13.6-15.7,13.6-15.7
						s-3.7-5.2-5.7-8l-10.3,13.4L436.7,127z"/>
					<path class="st34" d="M418.7,118.1c0,0,11.9,19.8,12.1,15.7c0-0.1,0-0.4,0-0.5c0.1-0.5,0.3-1.1,0.6-1.5
						c1.5-2.8,5.2-4.3,5.2-4.3l-3.6-3.7l-10.3-13.4C421,113.4,418.7,118.1,418.7,118.1z"/>
				</g>
				<path class="st14" d="M463.7,61.4c-0.4,0.5-0.5,1.3-0.6,1.8c-0.1,0.9-0.3,1.8-0.3,2.8c0,0.5,0.1,1.1,0.1,1.7
					c0,1.5-1.1,2.8-1.4,4.3c-0.1,1.4,0.1,2.7,0.5,3.9c-0.9-1.1-1.8-2.3-2.4-3.5c-1-2-1.3-3.9-0.9-6.1c0.3-1.8,1.3-3.7,0.9-5.5
					c-0.3-1-0.9-2-1.3-2.9c-0.9-1.8-1.3-4.2-0.3-6.1c-0.4,1.7-0.8,3.4-1.1,5.1c-3.2-0.1-6.5-0.4-9.7-0.5c-0.3-1.3-0.5-2.5-0.6-3.7
					c-0.3,1.3-0.4,2.4-0.6,3.7c-3.8-0.3-7.5-0.7-11.3-1c-0.1-1.8-0.3-3.7-0.3-5.5c-0.1,0.4-0.3,1-0.5,1.4c-0.3-1.5-0.5-3.2-0.8-4.7
					c-0.5,2.9-1.1,5.8-1.7,8.7c-4.4-0.7-9-0.4-13.3,0.9c0-1.3,0-2.7-0.1-3.9c-0.4,1.1-0.9,2.1-1.3,3.3c-0.4-1.8-0.6-3.7-1-5.5
					c-1.8,9-3.4,18.2-5.2,27.2c-0.3-2.9-0.5-5.8-0.9-8.6c-0.3-1.4-0.4-2.8-1-3.9c-0.6-1.3-1.7-2.3-2.9-2.3c-1.3-0.1-2.5,1-2.5,2.4
					c0-1.1-0.9-2.8-1.1-4.1c-0.4-1.4-0.6-2.9-0.9-4.3c-0.4-2.8-0.6-5.7-0.6-8.5c0.3-10.4,3.8-21.4,11.9-27.4
					c6.2-4.5,12.8-5.8,20.2-5.8c5,0,9.5,0,14.4,1.5c5.8,1.8,11.6,4.9,16,9.7c4.6,5.1,7.9,12.9,8,20.1c0,2.9-0.3,5.9-0.9,8.7
					c-0.5,2.3-0.4,4.5-1.3,6.6c-0.5-0.5-1.1-1.1-1.9-1.4s-1.5-0.3-2.3,0.1C464.3,60.4,463.9,60.7,463.7,61.4z"/>
				<path class="st34" d="M436.8,136.6c0,0.9,0.6,1.7,1.5,1.7c0.8,0,1.5-0.7,1.5-1.7c0-0.9-0.6-1.7-1.5-1.7
					C437.5,135.1,436.8,135.7,436.8,136.6z"/>
				<path class="st34" d="M435.9,146.6c0,0.9,0.6,1.7,1.5,1.7c0.8,0,1.5-0.7,1.5-1.7c0-0.9-0.6-1.7-1.5-1.7
					C436.6,144.9,435.9,145.7,435.9,146.6z"/>
				<path class="st34" d="M435.3,159.2c0,0.9,0.6,1.7,1.5,1.7c0.9,0,1.5-0.7,1.5-1.7c0-0.9-0.6-1.7-1.5-1.7
					C435.9,157.5,435.3,158.3,435.3,159.2z"/>
			</g>
			<path class="st33" d="M416.4,33.4c11.2-3.8,26.1-3.8,37.2,0c0.8,0.3,1.4-0.3,1.8-1c4.2-7.3,6.6-15.1,6.7-26.1
				c0-0.9-0.1-1.7-0.9-2c-17-5.9-35.5-5.9-52.5,0c-0.8,0.3-1,1.1-0.9,2c0.6,10,1.5,16.7,6.7,26.1C415,33.3,415.6,33.6,416.4,33.4z"
				/>
			<path class="st21" d="M429,12.9h3.8V8.6c0-0.7,0.5-1.1,1-1.1h3.4c0.6,0,1,0.5,1,1.1v4.2h3.8c0.6,0,1,0.5,1,1.1v3.8
				c0,0.7-0.5,1.1-1,1.1h-3.8v4.2c0,0.7-0.5,1.1-1,1.1h-3.4c-0.6,0-1-0.5-1-1.1v-4.2H429c-0.6,0-1-0.5-1-1.1V14
				C427.9,13.2,428.3,12.9,429,12.9z"/>
			<path class="st21" d="M413.5,30.6c0.4,0.7,0.6,1.3,1,2c0.4,0.7,1,1.3,1.8,1c11.1-3.8,26.1-3.8,37.2,0c0.8,0.3,1.4-0.3,1.8-1
				c4.2-7.3,6.6-15.1,6.7-26.1c0-0.9-0.1-1.7-0.9-2c-0.8-0.3-1.5-0.5-2.3-0.7c-0.1,10.3-2.4,17.6-6.2,24.8c-0.4,0.7-1,1.3-1.8,1
				C439.6,26,424.6,26.5,413.5,30.6C413.7,30.5,413.6,30.6,413.5,30.6z"/>
			<path class="st34" d="M428.2,11.5h3.8V7.2c0-0.7,0.5-1.1,1-1.1h3.4c0.6,0,1,0.5,1,1.1v4.2h3.8c0.6,0,1,0.5,1,1.1v3.8
				c0,0.7-0.5,1.1-1,1.1h-3.8v4.2c0,0.7-0.5,1.1-1,1.1H433c-0.6,0-1-0.5-1-1.1v-4.2h-3.8c-0.6,0-1-0.5-1-1.1v-3.8
				C427.2,11.9,427.6,11.5,428.2,11.5z"/>
			<path class="st34" d="M428.2,11.5h3.8V7.2c0-0.7,0.5-1.1,1-1.1h3.4c0.6,0,1,0.5,1,1.1v4.2h3.8c0.6,0,1,0.5,1,1.1v3.8
				c0,0.7-0.5,1.1-1,1.1h-3.8v4.2c0,0.7-0.5,1.1-1,1.1H433c-0.6,0-1-0.5-1-1.1v-4.2h-3.8c-0.6,0-1-0.5-1-1.1v-3.8
				C427.2,11.9,427.6,11.5,428.2,11.5z"/>
			<path class="st34" d="M475.1,341.3h-61.4c0.8,3.2,1.4,5.5,1.7,6.7h58.6C474.1,348,474.5,345.5,475.1,341.3z"/>
			<path class="st34" d="M402.3,341.3c0.6,4.1,1,6.6,1,6.6l0,0h3.3l0.1-6.7h-4.4V341.3z"/>
			<path class="st34" d="M475.7,336.7h-63c0.1,0.7,0.3,1.4,0.5,2h62.3C475.5,338.1,475.6,337.5,475.7,336.7z"/>
			<path class="st34" d="M401.6,336.7c0.1,0.7,0.1,1.4,0.3,2h4.8v-2H401.6z"/>
			<path class="st34" d="M448.9,213.2v2.9c0,0.9,0.6,1.5,1.4,1.5h17.5c-0.1-2-0.3-3.9-0.5-5.9h-17
				C449.5,211.7,448.9,212.5,448.9,213.2z"/>
			<path class="st34" d="M408.1,217.8h17.2c0.8,0,1.4-0.7,1.4-1.5v-2.9c0-0.9-0.6-1.5-1.4-1.5h-15.9c-0.1,1.1-0.4,2.3-0.6,3.4
				C408.5,216,408.2,216.9,408.1,217.8z"/>
			<g class="st44">
				<path d="M435.8,187.3c0.1,1,0.4,2.1,0.5,3.3c1.3,8.4,1.3,38.8,1.3,49.9l0.6-4.5l0.9,4.7c0-11,0-41.6-1.3-50.2
					c-0.1-1.1-0.4-2.1-0.5-3.3c-1.4-8.9-2.8-17.2-2-32c0.9-16.5,2.2-27.6,2.2-27.7l-1.5-0.3c0,0.1-1.3,11.3-2.2,27.9
					C433,169.9,434.3,178.3,435.8,187.3z"/>
			</g>
			<g>
				<g>
					<g>
						<path class="st45" d="M488.1,269.5l9.2-41.2c0.4-1.1-0.1-2.3-1.1-2.7l-16.4-6.5l-13.3-5.3l-19.1-7.6c-1-0.4-2,0.1-2.4,1.3
							l-9.2,41.2c-0.4,1.1,0.1,2.3,1.1,2.7l48.8,19.4C486.5,271.2,487.7,270.6,488.1,269.5z"/>
					</g>
					<g>
						<path class="st46" d="M487.9,269.5l11.9-37.4c0.4-1.1-0.1-2.3-1.1-2.7l-16.4-6.5l-13.3-5.3l-19.1-7.6c-1-0.4-2,0.1-2.4,1.3
							l-11.9,37.4c-0.4,1.1,0.1,2.3,1.1,2.7l48.8,19.4C486.5,271.2,487.7,270.6,487.9,269.5z"/>
					</g>
				</g>
				<g>
					<path class="st12" d="M468.9,261.9c0,0.3,0,1-0.1,1.4c-0.1,0.4-0.4,0.5-0.5,1c0,0.4-0.1,1,0,1.4c0.3,0.9,0.9,1.4,1.7,1.8
						c1.3,0.7,2.5,1.5,3.8,1.8c1.5,0.3,2.8-0.1,4.2-0.5c0.9-0.3,1.9-0.7,2.4-1.5c0.4-0.5,0.5-1.4,0.6-2.1c0-0.7,0-1.5-0.1-2.3
						c-0.1-1-0.3-2-0.4-3.2c-0.1-1-0.4-1.8-0.3-2.8c0.1-0.7,0.3-1.4,0.3-2.1c0.5-3.4,1.1-6.7,1.8-10.1c1.9-10.8,9-26.2,7.9-39.1
						c-0.8-9.6-0.6-20.9-0.8-27.6V178l-14.1,1.3c-0.9,18.4,2.3,31,2.3,31c-4.7,9.7-4.3,26.7-3.8,35.2c0.3,3.2-1,5.9-3.1,7.3
						c-1,0.7-1.9,1.5-2.3,2.5c-0.6,1.5-1.3,3.3-0.6,4.8c0,0.1,0.1,0.3,0.3,0.4c0.1,0.3,0.3,0.5,0.4,0.9l0,0
						C468.7,261.5,468.9,261.6,468.9,261.9z"/>
				</g>
				<path class="st21" d="M468.9,261.9c0,0.3,0,1-0.1,1.4c-0.1,0.4-0.4,0.5-0.5,1c0,0.4-0.1,1,0,1.4c0.3,0.9,0.9,1.4,1.7,1.8
					c1.3,0.7,2.5,1.5,3.8,1.8c1.5,0.3,2.8-0.1,4.2-0.5c0.9-0.3,1.9-0.7,2.4-1.5c0.4-0.5,0.5-1.4,0.6-2.1c-0.5,0.3-1,0.4-1.5,0.7
					c-0.4,0.1-0.6,0.3-1,0.4c-0.8,0.1-1.5,0.1-2.2,0.1c-1.3,0-2.7-0.1-3.7-0.9c-0.1-0.1-0.4-0.3-0.4-0.4c-0.1-0.1-0.1-0.4-0.1-0.5
					c-0.3-1.4-0.1-2.7-0.5-4.1c-0.5-2.1,0.8-4.1,2.8-6.5c2-2.3,1.5-5.8,1.1-13.5c-0.5-7.7,1.7-19.4,3.2-24.7c1.5-5.3,6-4.3,6-4.3
					s-1.8-1-4.1-3.4c-2.3-2.4-3.3-17.3-2.7-21.9c0.4-3.8,9.2-7.2,11.9-8v-0.1l-14.1,1.5c-0.9,18.4,2.3,31,2.3,31
					c-4.7,9.7-4.3,26.7-3.8,35.2c0.3,3.2-1,5.9-3.1,7.3c-1,0.7-1.9,1.5-2.3,2.5c-0.6,1.5-1.3,3.3-0.6,4.8c0,0.1,0.1,0.3,0.3,0.4
					c0.1,0.3,0.4,0.5,0.4,0.9l0,0C468.7,261.5,468.9,261.6,468.9,261.9z"/>
			</g>
			<g>
				<g>
					<path class="st12" d="M341,248.1c0.4,1,1.4,2.9,2.4,3.3c1.1,0.4,2.3,0.4,3.3,0.3c5.6-1,9.8-9.1,9.8-9.1s1.3-1.5,8.5-8.9
						c7.2-7.5,21.1-15.3,27.1-26.7c4.3-8.4,3.1-20.9,4.2-27.6v-0.1l-14.1-1.5c0,0,0,0,0,0.1c-4.1,17.7-2.8,24.8-2.8,24.8
						c-9,4.8-17.7,19-21.6,26.1c-1.4,2.5-3.9,4.1-6.4,3.9c-1.1,0-2.3,0-3.2,0.5c-1.3,0.9-2.8,1.8-3.1,3.5c-0.1,0.7,0,1.4-0.3,2.1
						c-0.1,0.3-0.4,0.5-0.6,0.7c-1.1,1.3-2.4,2.5-3.1,3.9C340.5,244.8,340.3,246.3,341,248.1z"/>
				</g>
			</g>
		</g>
		<path class="st21" d="M341,248.1c0.4,1,1.4,2.9,2.4,3.3c1.1,0.4,2.3,0.4,3.3,0.3c5.6-1,9.8-9.1,9.8-9.1s1.3-1.5,8.5-8.9
			c7.2-7.5,21.1-15.3,27.1-26.7c4.3-8.4,3.1-20.9,4.2-27.6v-0.1l-14.1-1.5c0,0,0,0,0,0.1c1.5,0.4,11.4,3.7,10.7,7.9
			c-0.9,4.5-4.6,21-4.6,21s-4.8-3.2-6.4-3.2c0,0,6.1,4.1,3.6,7.5c-2.5,3.5-7.1,7.9-10.9,11.1c-3.8,3.2-11.4,9.3-12.6,11
			c-1.1,1.7-4.3,1.8-4.8,1.7c-0.5-0.1-0.5-0.1-0.5-0.1s0.3,1.8-0.4,2.5c-0.6,0.9-1.5,2.1-2.7,4.2c-1,2.1-2.9,5.2-4.8,6.3
			c-1.1,0.7-1.8,0.7-3.1,0.3c-1.7-0.5-3.3-1.5-4.1-3.3c-0.3-0.5-0.4-1-0.4-1.5C340.5,244.8,340.3,246.3,341,248.1z"/>
	</g>
	<g>
		<rect x="1.9" y="336" class="st47" width="122.3" height="152.1"/>
		<g>
			<rect x="119.4" y="341.8" class="st48" width="6.7" height="50.2"/>
			<rect x="126" y="338.2" class="st49" width="9.2" height="57.2"/>
			<rect x="119.4" y="404.1" class="st48" width="6.7" height="83.4"/>
			<rect x="126" y="398.2" class="st49" width="9.2" height="95.2"/>
			<polygon class="st21" points="23.5,480.7 23.5,344.2 109.1,344.2 109.1,336 23.5,336 17.1,336 1.9,336 1.9,488.1 124.3,488.1 
				124.3,480.7 			"/>
			<rect x="1.9" y="336" class="st49" width="15.1" height="163.9"/>
			<rect x="109.1" y="336" class="st49" width="15.1" height="163.9"/>
			<rect y="319.3" class="st47" width="147.8" height="16.7"/>
			<rect y="319.3" class="st50" width="147.8" height="3"/>
			<rect x="1.9" y="336" class="st6" width="122.5" height="3.6"/>
		</g>
	</g>
	<g>
		<path class="st51" d="M26.5,245.2c0.2,0.4,0.6,0.6,0.9,0.9C27.1,245.9,26.8,245.6,26.5,245.2z"/>
		<path class="st51" d="M29.2,237c0.2,0.4,0.6,0.6,0.9,0.9C29.8,237.7,29.5,237.3,29.2,237z"/>
		<path class="st51" d="M63.9,257c-1.8,0.9-3,2.3-4.3,3.9c-2.1,2.6-4.1,5.4-5.8,8.4c0.1-0.6,0.1-1.4,0.2-2.1
			c0.2-1.8,0.6-3.6,0.9-5.6c1.9-8.4,5-16.5,9.6-23.6c-1.1,1.2-2,2.3-3,3.5c-1.1,1.3-2.1,2.6-3.2,3.9c-2.6,3.4-4.7,7-6.4,10.9
			c-1.8,4-2.9,8.2-4,12.4c0-0.8,0-1.7,0-2.5c0-1.8,0.1-3.8,0.4-5.6c0.8-8.7,3-17.1,6.7-24.9c-0.8,1.3-1.8,2.6-2.6,3.9
			c-0.9,1.4-1.9,2.9-2.7,4.3c-2.1,3.6-3.9,7.7-5,11.8c-0.5,1.7-0.9,3.5-1.3,5.3c-1.6-5.3-3.7-10.5-6.3-15.3
			c-1.2-2.2-2.5-4.5-4.3-6.1c-0.8-0.6-1.8-1.3-2.6-1.9c4.4,4.8,6.3,11.9,7.9,18.5c1.1,4.4,2.2,8.8,2.7,13.2
			c-1.6-5.4-3.7-10.6-6.3-15.6c-1.2-2.2-2.5-4.5-4.3-6.1c-0.8-0.6-1.8-1.3-2.6-1.9c4.4,4.8,6.3,11.9,7.9,18.5
			c1.8,6.9,3.5,14,2.9,21.1l5.5-2.3c0-0.3-0.1-0.5-0.1-0.6l4.8,1.6c0-0.4,0-0.8,0-1.2l2.6,1.3l0.7,0.5v-0.1l0.6,0.3
			c0.1-1.7,0.4-3.4,0.5-5.2c1.1-3.8,2.8-7.5,4.4-11c2.5-5.3,5.1-10.9,9.9-13.6C66.2,256.2,65,256.5,63.9,257z"/>
	</g>
	<g>
		<polygon class="st52" points="62.3,319.4 31.3,319.4 27.7,282.8 65.9,282.8 		"/>
		<path class="st21" d="M34.8,312.4l-1.5-17c-0.2-2.3,1.4-4.3,3.5-4.3H65l0.8-8.3H27.7l3.5,36.6h31.1l0.4-3.5H38.3
			C36.5,315.9,35,314.3,34.8,312.4z"/>
		<path class="st53" d="M66.9,288.3H26.8c-0.8,0-1.5-0.8-1.5-1.7v-7.1c0-0.9,0.7-1.7,1.5-1.7H67c0.8,0,1.5,0.8,1.5,1.7v7.1
			C68.4,287.5,67.7,288.3,66.9,288.3z"/>
		<path class="st23" d="M66.9,277.9H26.8c-0.8,0-1.5,0.8-1.5,1.7v1.8c0-0.9,0.7-1.7,1.5-1.7H67c0.8,0,1.5,0.8,1.5,1.7v-1.8
			C68.4,278.5,67.7,277.9,66.9,277.9z"/>
	</g>
	<path class="st37" d="M113.6,212.9c-0.1-0.3-0.4-0.3-0.7-0.3c-0.4,0-0.7,0.3-0.9,0.5c-0.4,0.3-0.7,0.4-1.1,0.1
		c-0.2-0.1-0.4-0.5-0.5-0.8s-0.4-0.6-0.6-0.5c-0.1,0-0.2,0-0.2,0.1c-0.2,0.1-0.5,0.3-0.7,0.5c-0.4,0.3-0.6,0.6-0.8,0.9
		c-0.2,0.3-0.6,0.5-0.9,0.6c-0.4,0.1-0.8,0-1.1-0.3c-0.4-0.4-0.4-1.2-0.1-1.7c0.4-0.5,0.8-0.8,1.3-0.9c0.6-0.1,1.3-0.3,2,0
		c-0.7-0.3-1.4-0.6-2.2-0.5c-0.8,0.1-1.5,0.5-2.1,1c-0.8,0.9-1.1,2.7-0.1,3.6c0.4,0.3,0.7,0.5,1.2,0.6c0.5,0.3,1.1,0.4,1.5,0.4
		c0.7,0,1.3-0.4,1.9-0.8c0.6-0.4,1.1-0.8,1.8-0.6c0.4,0.1,0.7,0.4,1.1,0.5c0.4,0.1,0.6,0.3,0.9,0.3c0.2,0,0.5,0,0.7-0.3
		c0.4-0.3,0.4-0.8,0.2-1.3C114,213.8,114,213.2,113.6,212.9z"/>
	<g>
		<path class="st41" d="M103.5,184.4c0,0-2.8,5.4-3.2,7.5c-0.5,2.7-0.1,4.7-0.1,4.7s-2.3-4.1-1.4-6.4c0.9-2.2,2.3-5.3,2.3-5.3
			S102.1,182.8,103.5,184.4z"/>
	</g>
</g>
</svg>
