<?xml version="1.0" encoding="utf-8"?>
<!-- Generator: Adobe Illustrator 25.1.0, SVG Export Plug-In . SVG Version: 6.00 Build 0)  -->
<svg version="1.1" id="_x31__1_" xmlns="http://www.w3.org/2000/svg" xmlns:xlink="http://www.w3.org/1999/xlink" x="0px" y="0px"
	 viewBox="0 0 300 265" style="enable-background:new 0 0 300 265;" xml:space="preserve">
<style type="text/css">
	.st0{fill:#CDD9E0;}
	.st1{fill:#E4F4FF;}
	.st2{fill:#597D89;}
	.st3{fill:#7D919E;}
	.st4{fill:#61DDFF;}
	.st5{fill:#705D4A;}
	.st6{fill:#59493B;}
	.st7{fill:#655448;}
	.st8{fill:#5E4D3F;}
	.st9{fill:#826E5B;}
	.st10{fill:#8F7967;}
	.st11{fill:#4A3D2E;}
	.st12{fill:#4A3B2D;}
	.st13{fill:#61737B;}
	.st14{fill:#6A7E87;}
	.st15{fill:#6F858D;}
	.st16{fill:#789099;}
	.st17{fill:#035B73;}
	.st18{fill:#B1B1B2;}
	.st19{fill:#E2E6E8;}
	.st20{fill:#CCE0E2;}
	.st21{fill:#E4F0F2;}
	.st22{fill:#3B3C3D;}
	.st23{fill:#616D6C;}
	.st24{fill:#FFFFFF;}
	.st25{fill:#F9ED32;}
	.st26{fill:#474F5C;}
	.st27{fill:#EA5F21;}
	.st28{fill:#F9773D;}
	.st29{opacity:0.42;fill:url(#SVGID_1_);enable-background:new    ;}
	.st30{fill:#3C4A58;}
	.st31{fill:#DEAD8E;}
	.st32{fill:#2198DD;}
	.st33{fill:#FEC29E;}
	.st34{fill:#404040;}
	.st35{fill:#2EA8ED;}
	.st36{fill:#9AA4AF;}
	.st37{fill:#2C3A48;}
	.st38{fill:#7D4C2E;}
	.st39{fill:#8D5C3E;}
	.st40{fill:#34495E;}
	.st41{fill:#303030;}
	.st42{fill:#383838;}
	.st43{fill:#414042;}
	.st44{fill:#4D4D4D;}
	.st45{fill:#FECE57;}
	.st46{fill:#D13F4A;}
	.st47{fill:#B6CBE0;}
	.st48{fill:#DCEDFF;}
	.st49{fill:#BFD4E2;}
	.st50{fill:#AFCAD8;}
	.st51{fill:#D0E3F5;}
	.st52{fill:#CADDED;}
	.st53{fill:#ACBAC8;}
	.st54{fill:#7C8A98;}
	.st55{fill:#3E9F00;}
	.st56{fill:#E72318;}
	.st57{fill:#F7423E;}
	.st58{fill:#F1A9A0;}
	.st59{fill:#48A80B;}
	.st60{fill:#7AD935;}
	.st61{fill:#57B442;}
	.st62{fill:#FED45C;}
	.st63{fill:#9BEA5E;}
	.st64{fill:#94DB56;}
	.st65{fill:#58B51C;}
	.st66{fill:#61BC26;}
	.st67{fill:#FF9000;}
	.st68{fill:#F67301;}
	.st69{fill:#F64747;}
	.st70{fill:#4A7655;}
	.st71{fill:#EF7A2B;}
	.st72{fill:#F9A43E;}
	.st73{fill:#50A53C;}
	.st74{fill:#398C03;}
	.st75{fill:#874A21;}
	.st76{fill:#BBED9A;}
	.st77{fill:#FECC3D;}
	.st78{fill:#F9D987;}
	.st79{fill:#A0733F;}
	.st80{fill:#966929;}
	.st81{fill:#34B67A;}
	.st82{fill:#E57368;}
	.st83{fill:#5D6C75;}
	.st84{fill:#536168;}
	.st85{fill:#EFEBEA;}
	.st86{fill:#CCCCCC;}
</style>
<g id="_x31_">
	<g id="_x34_">
		<path class="st0" d="M79.3,200.1L79.3,200.1L79.3,200.1L79.3,200.1z"/>
		<path class="st0" d="M66.9,253.8c1.6-0.1,3.2-0.8,3.6-1.6l0,0v-0.3l0,0l0,0l8.5-51.6c0-1.3-10.4-3.4-11.4-1.6
			c-0.1,0.1-0.1-0.3-0.1-0.4l-4,53.7v0.3v0.3l0,0C63.8,253.4,65.3,253.9,66.9,253.8z"/>
	</g>
	<g id="_x35_">
		<path class="st1" d="M86.8,205.7L86.8,205.7C86.8,205.8,86.8,205.8,86.8,205.7L86.8,205.7z"/>
		<path class="st1" d="M71.1,252.5c1.5,0,2.7-0.4,3.1-1.2l0,0l0.1-0.3l0,0l0,0l12.4-45.1c0.1-1.2-8.2-3.8-9.2-2.3
			c-0.1,0.1,0-0.3,0-0.4l-9,47.5v0.1v0.3l0,0C68.6,251.9,69.7,252.5,71.1,252.5z"/>
	</g>
	<g id="_x36_">
		<path class="st2" d="M242.5,61.9v19.3c0,0.5-1,1.1-2,1.1h-12c-1.1,0-2-0.5-2-1.1V61.9c0-0.5,1-1.1,2-1.1h12
			C241.5,60.9,242.5,61.4,242.5,61.9z"/>
		<path class="st3" d="M242.5,79.5v1.9c0,0.5-1,1.1-2,1.1h-12c-1.1,0-2-0.5-2-1.1v-1.9H242.5z"/>
		<path class="st4" d="M240.6,70.7c0,3.4-2.9,5.8-6,5.8c-3.5,0-6-2.7-6-5.8c0-3.4,2.9-5.8,6-5.8C237.8,64.7,240.6,67.2,240.6,70.7z"
			/>
		<path class="st3" d="M239.7,70.7c0,2.9-2.4,5.2-5.3,5.2c-2.9,0-5.3-2.4-5.3-5.2c0-2.9,2.4-5.2,5.3-5.2
			C237.4,65.5,239.7,67.8,239.7,70.7z"/>
		<path class="st4" d="M235.9,70.7c0,0.9-0.8,1.6-1.8,1.6s-1.8-0.6-1.8-1.6c0-0.9,0.8-1.6,1.8-1.6C235.3,69,235.9,69.8,235.9,70.7z"
			/>
	</g>
	<g id="_x31_1">
		<g>
			<g id="_x31_6_5_">
				<rect x="78.7" y="82.4" class="st5" width="194.8" height="11.4"/>
				<g id="_x33__7_">
					<g>
						<polygon class="st6" points="81.7,93.4 81.7,96.2 81.7,203.9 136.9,203.9 136.9,202.5 136.9,93.4 						"/>
					</g>
					<rect x="81.7" y="203.9" class="st7" width="55.3" height="3.4"/>
					<rect x="78.7" y="207.2" class="st5" width="61" height="10.9"/>
					<g>
						<polygon class="st8" points="120.4,170.8 83.1,170.8 83.1,201.6 135.4,201.6 135.4,199.8 135.4,170.8 						"/>
						<g>
							<polygon class="st9" points="121.7,167 84.3,167 84.3,193.3 134.1,193.3 134.1,191.1 134.1,167 							"/>
						</g>
					</g>
					<g>
						<polygon class="st8" points="101.3,133.9 83.1,133.9 83.1,164.7 117.1,164.7 135.4,164.7 135.4,133.9 						"/>
						<g>
							<polygon class="st10" points="134.1,162.4 134.1,136 102.4,136 116,162.4 							"/>
							<polygon class="st10" points="84.3,162.4 116,162.4 102.4,136 84.3,136 							"/>
							<polygon class="st9" points="102.4,136 84.3,136 84.3,162.4 116,162.4 134.1,162.4 134.1,136 							"/>
						</g>
					</g>
					<g>
						<polygon class="st7" points="83.9,100.4 83.1,100.4 83.1,131.2 99.9,131.2 135.4,131.2 135.4,100.4 						"/>
						<g>
							<polygon class="st10" points="134.1,128.8 134.1,102.5 84.9,102.5 98.6,128.8 							"/>
							<polygon class="st10" points="84.3,128.8 98.6,128.8 84.9,102.5 84.3,102.5 							"/>
							<polygon class="st9" points="84.9,102.5 84.3,102.5 84.3,128.8 98.6,128.8 134.1,128.8 134.1,102.5 							"/>
							<g>
								<rect x="103.4" y="178.1" class="st11" width="12" height="4.2"/>
								<polygon class="st11" points="103.4,147.3 103.4,151.4 110.5,151.4 115.2,151.4 115.2,147.3 108.2,147.3 								"/>
								<rect x="103.4" y="113.8" class="st11" width="12" height="4.2"/>
							</g>
						</g>
					</g>
				</g>
				<g>
					<rect x="234.5" y="91.1" class="st12" width="34.3" height="106.3"/>
					<rect x="231.6" y="91.1" class="st5" width="4.5" height="127.2"/>
					<rect x="266.5" y="91.1" class="st5" width="4.5" height="127.2"/>
					<rect x="234.5" y="193.7" class="st5" width="32.2" height="7.7"/>
				</g>
			</g>
			<g id="_x31_7_4_">
				<polygon class="st13" points="263.7,101.5 237.9,101.5 237.9,101.5 263.7,189.9 				"/>
				<polygon class="st14" points="237.9,101.5 237.9,192.4 263.7,192.4 263.7,189.9 				"/>
				<polygon class="st15" points="261.3,148.1 261.3,107.1 240.3,107.1 240.3,109.6 251.5,148.1 				"/>
				<polygon class="st16" points="251.5,148.1 240.3,109.6 240.3,148.1 				"/>
				<polygon class="st16" points="252.5,151.3 240.3,151.3 240.3,187.3 261.3,187.3 261.3,181.9 				"/>
				<polygon class="st15" points="261.3,151.3 252.5,151.3 261.3,181.9 				"/>
				<polygon class="st14" points="242.5,116.9 242,114.9 242,116.9 				"/>
				<polygon class="st13" points="260,116.9 260,111.7 242,111.7 242,114.9 242.5,116.9 				"/>
				<rect x="245.6" y="180.6" class="st14" width="10.5" height="5.1"/>
				<rect x="248.8" y="153.3" class="st14" width="3.9" height="1.9"/>
				<rect x="248.8" y="153.3" class="st14" width="3.9" height="1.9"/>
				<rect x="248.8" y="153.3" class="st14" width="3.9" height="1.9"/>
			</g>
		</g>
	</g>
	<path id="_x31_3" class="st17" d="M80.9,224.3L80.9,224.3h-3l0,0h-3l0,0h-3l0,0h-3l0,0h-2.8l0,0h-3l0,0h-3l0,0h-3l0,0h-3l0,0h-3.9
		l0,0H50l0,0l0.3,1.6l0.3,2.1l2.2,4l-1.2,3.7l0.7,4.4l1.9,3.3l-1.2,3l0.5,3.7l1.8,2.7l-1.1,2.5l0.4,3.2l1.6,2.3l-1.1,2.1l0.1,1v0.3
		l0.1,0.5h24l0.1-0.5V264l0.3-1.6l-0.8-1.7l1.2-1.7l0.5-4.4l-0.8-1.9l1.3-2l0.7-5.3L81,243l1.5-2.3l0.8-6.1l-0.9-2.7L84,229l0.4-3.2
		l0.1-1.6v-0.1L80.9,224.3L80.9,224.3z M64.5,252.8l-1.5,2.7l-1.6-2.7l1.5-2.9L64.5,252.8z M60.8,243.3l1.6-3.6l1.8,3.6l-1.6,3.3
		L60.8,243.3z M63.5,248.2l1.6-3.2l1.6,3.2l-1.6,3L63.5,248.2z M65.9,243.3l1.6-3.6l1.6,3.6l-1.6,3.3L65.9,243.3z M67.6,249.9
		l1.6,2.9l-1.6,2.7l-1.6-2.7L67.6,249.9z M68.4,248.2L70,245l1.6,3.2l-1.6,3.1L68.4,248.2z M72.4,249.9l1.5,2.9l-1.6,2.7l-1.5-2.7
		L72.4,249.9z M70.9,243.3l1.8-3.3l1.6,3.3l-1.8,3.3L70.9,243.3z M70.1,241.6l-1.6-3.6l1.8-3.8l1.6,3.8L70.1,241.6z M67.6,236
		l-1.8-4l1.8-4.2l1.8,4.2L67.6,236z M66.7,237.9l-1.6,3.6l-1.8-3.6l1.6-3.8L66.7,237.9z M62.3,236l-1.9-4l1.6-4.2l2,4.2L62.3,236z
		 M61.4,237.9l-1.6,3.6l-1.9-3.6l1.5-3.8L61.4,237.9z M61.9,248.2l-1.5,3l-1.8-3l1.5-3.2L61.9,248.2z M62.4,256.9l-1.3,2.5l-1.6-2.5
		l1.3-2.7L62.4,256.9z M63.2,258.2l1.6,2.4l-1.3,2.3l-1.6-2.3L63.2,258.2z M63.8,256.9l1.5-2.7l1.6,2.7l-1.5,2.5L63.8,256.9z
		 M67.6,258.2l1.5,2.4l-1.5,2.3l-1.5-2.3L67.6,258.2z M68.4,256.9l1.6-2.7l1.5,2.7l-1.6,2.5L68.4,256.9z M72,258.2l1.3,2.4l-1.6,2.3
		l-1.3-2.3L72,258.2z M72.8,256.9l1.6-2.7l1.3,2.7l-1.6,2.5L72.8,256.9z M73.3,248.2l1.8-3.2l1.5,3.2l-1.8,3L73.3,248.2z
		 M73.8,237.9l1.9-3.8l1.5,3.8l-1.9,3.6L73.8,237.9z M73.1,236l-1.6-4l2-4.2l1.6,4.2L73.1,236z M70.4,229.7l-1.6-4h3.4L70.4,229.7z
		 M64.7,229.7l-1.8-4h3.4L64.7,229.7z M59.2,229.7l-1.9-4h3.4L59.2,229.7z M58.3,232l-1.5,4l-2.2-4l1.5-4.2L58.3,232z M59.2,243.3
		l-1.5,3.3l-1.9-3.3l1.3-3.6L59.2,243.3z M59.9,252.8l-1.3,2.7l-1.8-2.7l1.3-2.9L59.9,252.8z M60.4,260.8l-1.2,2.3l-1.5-2.3l1.2-2.4
		L60.4,260.8z M61.2,261.9l1.3,1.9h-2.2L61.2,261.9z M65.4,261.9l1.2,1.9h-2.2L65.4,261.9z M69.7,261.9l1.1,1.9h-2.3L69.7,261.9z
		 M73.8,261.9l1.1,1.9h-2.2L73.8,261.9z M74.7,260.8l1.6-2.4l1.2,2.4l-1.6,2.3L74.7,260.8z M75.2,252.8l1.8-2.9l1.3,2.9l-1.8,2.7
		L75.2,252.8z M76,243.3l1.9-3.6l1.3,3.6l-1.9,3.3L76,243.3z M76.8,232l2.2-4.2l1.5,4.2l-2.2,4L76.8,232z M76.2,229.7l-1.5-4h3.4
		L76.2,229.7z M51.3,225.9h3.4l-1.3,4L51.3,225.9z M52.6,237.9l1.3-3.8l2.2,3.8l-1.3,3.6L52.6,237.9z M54,248.2l1.3-3.2l1.8,3.2
		l-1.3,3L54,248.2z M55,256.9l1.2-2.7l1.8,2.7l-1.2,2.5L55,256.9z M57.1,261.9l1.3,1.9h-2.2L57.1,261.9z M79,263.8h-2.2l1.3-1.9
		L79,263.8z M80.1,256.9l-1.8,2.5l-1.2-2.5l1.8-2.7L80.1,256.9z M81.2,248.2l-1.9,3l-1.3-3l1.9-3.2L81.2,248.2z M82.6,237.9
		l-2.2,3.6l-1.3-3.6l2.2-3.8L82.6,237.9z M81.7,229.7l-1.3-4h3.4L81.7,229.7z"/>
	<g id="_x31_5">
		<g>
			<g>
				<polygon class="st18" points="185,63.5 176.2,62.2 167.4,63.5 167,67 185.6,67 				"/>
				<polygon class="st19" points="185.6,67 167,67 165,77.9 187.3,77.9 				"/>
				<path class="st20" d="M197,81.5l-1.1-1.9c-1.3-0.9-8.4-1.4-8.4-1.4l0,0v-0.5h-22.3v0.5l0,0c0,0-7.3,0.5-8.4,1.4l-1.1,1.9
					c-0.5,0.1,0,0.9,0.6,0.9h20.2h20.2C197,82.4,197.4,81.7,197,81.5z"/>
			</g>
			<g>
				<path class="st21" d="M223.4,0h-94.1c-0.1,0-0.5,0.1-0.5,0.5v63c0,0.1,0.1,0.5,0.5,0.5h94.1c0.1,0,0.5-0.1,0.5-0.5v-63
					C223.8,0.4,223.6,0,223.4,0z"/>
				<rect x="133.9" y="4.6" class="st22" width="84.8" height="54.9"/>
			</g>
		</g>
		<polygon class="st22" points="194.6,5.6 134.9,5.6 134.9,6.1 134.9,57.9 181.4,57.9 194.6,57.9 217.3,57.9 217.3,5.6 		"/>
		<g>
			<g>
				<rect x="136.9" y="8.3" class="st23" width="76.2" height="5.3"/>
				<g>
					<rect x="138.7" y="14.7" class="st23" width="3.2" height="35.9"/>
					<rect x="198.4" y="18.5" class="st23" width="11.5" height="12.1"/>
					<rect x="142.8" y="16.8" class="st23" width="11.5" height="8.2"/>
					<rect x="142.8" y="26.3" class="st23" width="11.5" height="8.2"/>
					<rect x="198.4" y="32.1" class="st23" width="11.5" height="21.1"/>
					<g>
						<rect x="139.3" y="15.3" class="st18" width="2.3" height="1.5"/>
						<rect x="139.3" y="17.3" class="st18" width="2.3" height="1.5"/>
						<rect x="139.3" y="19.3" class="st18" width="2.3" height="1.5"/>
						<rect x="139.3" y="21.6" class="st18" width="2.3" height="1.5"/>
						<rect x="139.3" y="23.6" class="st18" width="2.3" height="1.5"/>
						<rect x="139.3" y="25.7" class="st18" width="2.3" height="1.5"/>
						<rect x="139.3" y="27.7" class="st18" width="2.3" height="1.5"/>
						<rect x="139.3" y="30.1" class="st18" width="2.3" height="1.5"/>
						<rect x="139.3" y="32.1" class="st18" width="2.3" height="1.5"/>
						<rect x="139.3" y="34" class="st18" width="2.3" height="1.5"/>
						<rect x="139.3" y="36" class="st18" width="2.3" height="1.5"/>
						<rect x="139.3" y="38.3" class="st18" width="2.3" height="1.5"/>
						<rect x="139.3" y="40.5" class="st18" width="2.3" height="1.5"/>
						<rect x="139.3" y="42.5" class="st18" width="2.3" height="1.5"/>
						<rect x="139.3" y="44.5" class="st18" width="2.3" height="1.5"/>
						<rect x="139.3" y="46.6" class="st18" width="2.3" height="1.5"/>
					</g>
					<rect x="198.4" y="18.5" class="st18" width="11.6" height="1.9"/>
					<rect x="198.4" y="32.1" class="st18" width="11.5" height="2"/>
					<g>
						<rect x="138.7" y="10.6" class="st18" width="9.1" height="1.5"/>
						<rect x="148.9" y="10.6" class="st18" width="9.1" height="1.5"/>
						<rect x="159.1" y="10.6" class="st18" width="9.1" height="1.5"/>
						<rect x="169" y="10.6" class="st18" width="9.1" height="1.5"/>
						<rect x="179.4" y="10.6" class="st18" width="9.1" height="1.5"/>
						<rect x="189.4" y="10.6" class="st18" width="9.1" height="1.5"/>
					</g>
					<rect x="158.8" y="19.8" class="st24" width="27.6" height="29.2"/>
				</g>
			</g>
			<g>
				<path class="st25" d="M177.5,26.8c0.8,1.5,0.1,3.7-1.3,4.6c-1.4,0.9-3.5,0.1-4.3-1.4s-0.1-3.7,1.3-4.6
					C174.9,24.5,176.8,25.3,177.5,26.8z"/>
				<polygon class="st26" points="174.7,27.6 176.2,30.8 176.6,30.1 180,32.2 180.5,31.6 180.9,30.8 177.5,28.7 178.1,27.7 				"/>
			</g>
		</g>
	</g>
	<g id="_x31_8">
		<path class="st27" d="M107.7,72.2c-0.5-0.9-1.4-1.1-2.9-1.1c-0.8,0-1.3,0.5-2.3,0.9v-2c0-1-0.4-1.5-1.3-1.5h-6.6v14h6
			c0.5,0,1.1-0.4,1.1-0.9l0.1-2.1c2.5-0.9,3.3-1.9,4.2-3C107.4,75.2,108.6,73.4,107.7,72.2z M105.6,75.7c-0.5,0.9-1.1,1.5-1.8,2
			c-0.1,0.1-0.6,0.5-1.4,0.6l0.1-4.6c0-0.1,0.4-0.4,0.5-0.5c0.6-0.6,2-1.9,3.2-0.9c0.5,0.5,0.4,1.1,0.1,1.9
			C106,74.8,105.9,75.2,105.6,75.7z"/>
		<path class="st28" d="M89.4,68.3c-0.8,0-1.4,0.9-1.3,1.5l0.5,11.8c0,0.5,0.5,0.9,1.1,0.9H95v-14h-5.5L89.4,68.3L89.4,68.3z"/>
		<g>
			<path class="st24" d="M95,67.1c0,0,5-2.5,2.9-5.8c-2.3-3.4-1.4-4.4-1.4-4.4s-4.5,2.1-2.4,4C96.1,63,95.9,64.7,95,67.1z"/>
		</g>
		<path class="st24" d="M92.1,66.7c0,0,2-1.4,1.1-3.2c-0.8-1.9-0.5-2.4-0.5-2.4s-1.9,1-1.1,2.1C92.7,64.5,92.6,65.6,92.1,66.7z"/>
		<path class="st24" d="M100.1,67.5c0,0,2-1.4,1.1-3.2c-0.8-1.9-0.5-2.4-0.5-2.4s-1.9,1-1.1,2.1C100.5,65.1,100.5,66.1,100.1,67.5z"
			/>
	</g>
	<g id="_x32_7_1_">
		<linearGradient id="SVGID_1_" gradientUnits="userSpaceOnUse" x1="232.1179" y1="136.4292" x2="282.6833" y2="197.7207">
			<stop  offset="0" style="stop-color:#F9ED32"/>
			<stop  offset="0.1807" style="stop-color:#C4BA27"/>
			<stop  offset="0.4801" style="stop-color:#716B17"/>
			<stop  offset="0.726" style="stop-color:#34310A"/>
			<stop  offset="0.9056" style="stop-color:#0E0E03"/>
			<stop  offset="1" style="stop-color:#000000"/>
		</linearGradient>
		<polygon class="st29" points="208.8,161.2 234.8,206.8 282.1,206.2 289.5,193.9 294.5,154.2 266.1,110.5 		"/>
		<g>
			<path class="st30" d="M202,240h2.7c0.3,0,0.5-0.3,0.5-0.5V109.2h-3.8v130.2C201.6,239.6,201.7,240,202,240z"/>
			<path class="st30" d="M175,234l1.6,1.9c0.1,0.3,0.5,0.3,0.8,0l27.5-24.5l-2.2-2.7l-27.5,24.5C174.9,233.4,174.9,233.7,175,234z"
				/>
			<path class="st30" d="M232.3,234l-1.6,1.9c-0.1,0.3-0.5,0.3-0.8,0l-27.5-24.5l2.2-2.7l27.5,24.5
				C232.4,233.4,232.4,233.7,232.3,234z"/>
			<g>
				<path class="st30" d="M258.1,104.2l5,3.8l-56,48.7l-2.6-6c-3.9-9.1,0.4-21.8,9.2-29.3l15.4-13.4
					C237.9,100.4,250.4,98.5,258.1,104.2z"/>
				<polygon class="st30" points="206.5,159.5 265,108.8 267.6,112.1 209,162.8 				"/>
			</g>
			<g>
				<path class="st30" d="M199.3,108.2l13.5,21.3l17.6-17.2l-19-16c-2.3-1.9-6.5-1-9.4,1.9l0,0C198.7,101.2,197.7,105.7,199.3,108.2
					z"/>
				<path class="st30" d="M198.5,99.5c0.8,1.3,2.7,1.3,4.4,0.1c1.6-1.3,2.3-3.2,1.5-4.4c-0.8-1.3-2.7-1.3-4.4-0.1
					S197.8,98.4,198.5,99.5z"/>
			</g>
			<path class="st30" d="M208.2,171.4c0,2.5-2,4.9-4.6,4.9s-4.6-2.1-4.6-4.9c0-2.7,2-4.9,4.6-4.9S208.2,168.9,208.2,171.4z"/>
			<path class="st30" d="M207.6,122.7c0,2.5-2,4.9-4.6,4.9s-4.6-2.1-4.6-4.9s2-4.9,4.6-4.9C205.5,117.9,207.6,120.1,207.6,122.7z"/>
			<path class="st30" d="M208.4,211.5c0,2.5-2,4.9-4.6,4.9s-4.6-2.1-4.6-4.9c0-2.7,2-4.9,4.6-4.9
				C206.3,206.6,208.4,208.7,208.4,211.5z"/>
		</g>
	</g>
	<g id="_x32_8">
		<g>
			<path class="st31" d="M124.8,112.7c0.4,1,1.6,6.7-0.9,11.5c-0.8,1.6-1.5,1.9-2.3,2.7c4.3,2.7,8.5,5.4,12.8,8.2h1.9l0.5-4.1
				l4.4-7.9L124.8,112.7z"/>
			<path class="st31" d="M149.7,113.4c0,0,1.6,12,0.3,17.2c3.8,1.6,5.9,0.3,5.9,0.3l-0.7-10.6L149.7,113.4z"/>
			<path class="st32" d="M149.7,130.1c0,0,7.1,0.5,7.7,0.4c0,0-5,24.3-5.3,24.5c-0.5,0.1-4.4,0-7.9-8.3
				C146.3,143.8,149.7,130.1,149.7,130.1z"/>
			<path class="st32" d="M133.3,153.7c0,0-5.7,11.8-8.6,25.4c-2.8,0.1-20.3,1.7-20.3,1.7l14.4-32.3l3.4-5.3L133.3,153.7z"/>
			<g>
				<g>
					<path class="st33" d="M141.6,106.2c0.1,0,1.3,4.9,1.5,5.3c-1.9,0,2.3,5.7,1.6,6.7c-0.3,0.4-0.9,0.5-1.2,1
						c-0.3,0.4-0.1,1-0.1,1.6c0,0.5-0.4,1.2-0.9,1c0,0.7,0.1,1.4,0.1,2c0,0.3,0,0.5,0,0.8c-0.4,3-5.1,0.8-6.7,0.4
						c-1.5-0.4-2.8-0.8-4.2-1.4c-0.4-0.1-1.6-0.4-1.9-0.8c-0.4-0.7-0.8-1.3-1.2-1.9c-0.5-1-1.2-2-1.9-2.7c-0.4-0.4-0.9-0.7-1.3-1.3
						s-0.5-1.6-0.3-2.1c0.1-0.3,0.3-0.4,0.3-0.8s-0.1-0.8-0.1-1.2c-0.1-1-0.3-2-0.4-3l1.6-3.8l3.5-1.6L141.6,106.2z"/>
					<path class="st34" d="M137.2,111.6c1.3,0.3,2.4,0.4,3.1,0.5c0.8,0.1,1.3,0.3,2,0.3c0.8,0,1.6,0,2-0.1c-0.3,0.4-0.7,1-0.9,1.4
						c-0.4,0.1-0.9,0.1-1.6,0.1c-1.2,0-1.9-0.4-2.6-0.7C138.7,112.7,138,112.3,137.2,111.6z"/>
					<path class="st34" d="M143.2,102.2c-0.1-0.1-0.3-0.4-0.4-0.5c0.4-0.3,0.8-0.4,1.2-0.7c-1.2-1-2.4-2.3-3.9-3.2
						c-1.1-0.5-2.3-0.7-3.5-1.2c-0.8-0.1-5-1.7-5.3,0c0.1-0.5,0.1-1.3,0.3-1.7c-0.1,1-4.2,1.7-4.8,1.9c-1.2,0.7-1.8,1.9-3,2.5
						c-0.5,0.3-1.6,0.3-1.8,0.5c-0.5,0.5-1.2,5.6-0.4,5.8c-0.8-0.3-1.5-0.5-2.2-0.7c0.5,1.2,1.1,2.4,1.1,3.7c0,1.6-0.4,2.5,0,4.2
						c0.8,2.9,2,7,4.4,8.7c0.4,0.3,2.2-1.9,2.2-2.1c0.1-1.2-0.7-3.7-1.2-4.6c-0.8-1.7-1.1-5.6,1.6-5.3c0.8,0,1.3,0.5,1.6,1.3
						c0.4,0.7,0.4,1.4,0.4,2.1s0,1.4,0.4,1.9s1.2,0.7,1.6,0.1c0.1-0.1-0.1-1.2,0-1.3c0-0.5,0.3-1.2,0.5-1.7c0.5-0.8,1.2-1.6,2.2-1.7
						c-0.4-1.2-0.8-2.1-1.2-3.3c1.3,0.7,2.6,1.6,3.9,1.7c1.1,0.1,2-0.4,3.2-0.3c1.6,0.1,3.2,1.2,4.7,1.7c-0.1,0-0.5-1-0.4-1.2
						c0.1-0.4,0.9-0.4,1.3-0.4c0.5,0,1.2-0.3,1.3-0.8c0-0.3-0.1-0.5-0.3-0.8C145.5,105.5,144.5,103.8,143.2,102.2z"/>
				</g>
				<path class="st34" d="M127.8,119.2l3.8,4l9.3,2.1l2.4-1.2c0.1,0.4,0.3,1,0.1,1.7c0,1.4-0.5,2.4-0.9,2.9
					c-1.9-0.5-3.8-1.3-5.7-1.7l-6.9-3.3L127.8,119.2z"/>
				<path class="st34" d="M139.3,122.1c1.1-1.6,2.7-2.4,4.6-2.4c0,0.5-0.1,1.2-0.1,1.6c-1.5,0.1-2.3-0.4-3.4,1
					c-0.3,0.4-1.6,4.1-0.8,4.2c-0.4,0-0.8,0-1.3-0.1C138.3,124.7,138.5,123.3,139.3,122.1z"/>
			</g>
			<path class="st35" d="M143,139.7l-5.4-9.4c0,0-5-7.1-13.6-7.1c-8.2,1.6-13.9,8.2-18,15.2c-3.5,6-4,13.1-5.1,20
				c-2.3,17.1-3,22.2-3,22.2l8.6,0.5c0,0,14.3-28.7,15.1-33.4c8.6,6.2,16.2,12,21.7,16c1.3-6.1,2.6-12.4,3.2-18.6L143,139.7z"/>
		</g>
		<g>
			<path class="st36" d="M171,230.4c-0.3,0-0.4,0-0.5-0.1s-0.1-0.4-0.1-0.4s0.9,1.7,1.1,3.8c0.1,3,0,4.5,0.9,5.6
				c0.8,1,2.4,1,3.1,1.3c1.6,0.7,3.2,0.4,5.3,0c3-0.5,6.1-1.7,8.6-3.2c-1.3-1.4-3.1-1.7-4.7-2.5c-3.1-1.7-7.3-6.1-7.7-9.7
				c-1.6,1-1.3,2.7-2.7,3.7C174,228.9,171.9,230.1,171,230.4z"/>
			<path class="st37" d="M171.3,238.2c0,1,0.1,1.7,0.3,2.7c0.4,1.7,0.9,3.6,1.6,5.3c2.2,0,4.4,0,6.5-0.8c0.8-0.3,1.3-1,1.9-1.3
				c2.4-1.2,3.9-0.3,6.2-0.1c3.5,0.3,7-0.4,10.4-1.4c1.5-0.4,4.8-0.7,5.8-1.7c1.5-1.4-0.9-2.5-2.2-2.4c-1.8,0.1-3.2,0.5-5,0.5
				c-1.6,0-3.5-0.7-5-1.4c-0.5-0.3-5.9-3-6.1-2.7c-0.7,0.8-1.1,1.4-2,1.7c-0.9,0.4-1.8,0.7-2.8,1c-1.9,0.4-4,0.7-5.8,0
				c-1.2-0.4-2.4-1-3.5-1.7C171.3,236.6,171.3,237.3,171.3,238.2z"/>
			<path class="st38" d="M171.3,209.2l-9.4-22.6l-7.9-3l-11.9-2.5l-21.4-2.1c-1.1,0.4-2,1-3.1,1.3L106,196l5.1,4.5l20.6-2.4
				c0,0,15.5-1.7,16.4-1.7c0.9,0.1,6.1,13.1,6.1,13.1l15.1,25l11.2-4L171.3,209.2z"/>
		</g>
		<g>
			<g>
				<path class="st30" d="M154.6,131.9c0,0.5-0.1,1.3-0.1,1.7L153.8,253c0,4,1.1,7.3,2.3,7.3c2.7,0,2.3-3.2,2.3-7.1l0.7-119.4
					c0-0.7,0-1.4-0.1-1.9H154.6L154.6,131.9z"/>
				<g>
					<path class="st30" d="M152.7,131.9l-19.1,105.6c-0.7,3.6-0.3,7.7,0.9,9.3s2.6,0,3.2-3.6l19.4-106.8c0.3-1.6,0.4-3,0.3-4.5
						H152.7L152.7,131.9L152.7,131.9z"/>
					<path class="st30" d="M178.9,239.2l-18.1-107.4h-4.6c-0.1,1.6,0,3,0.3,4.5l18.3,108.3c0.7,3.6,1.5,4.2,3.2,3.8
						C179.7,248,179.6,242.9,178.9,239.2z"/>
				</g>
			</g>
			<path class="st30" d="M161.6,129h-9c-1.2,0-2.2,1.2-2.2,2.4v1.4c0,1.4,0.9,2.4,2.2,2.4h9c1.2,0,2.2-1.2,2.2-2.4v-1.4
				C163.7,130.1,162.6,129,161.6,129z"/>
		</g>
		<g id="_x31_6_1_">
			<path id="_x31__8_" class="st17" d="M127.8,205.4H93.1c-1.6-19.3-13.3-47.2-15.8-52.8c-0.1-0.4-0.7-0.4-0.8,0
				c-0.4,0.8-0.9,2.1-1.6,3.6c6.7,10.2,11.9,51.6,11.9,51.6v44.1h4.4v-41.1h33.5v40.4h4.4V211h0.5v-3.2
				C129.6,206.6,128.7,205.4,127.8,205.4z"/>
			<g id="_x32__1_">
				<path class="st36" d="M134.4,231.2c-0.8,0.7-3.2,6.6-5,8.1c-1.3,1.3-3.8,2.3-4,3.4c-0.3,1,0.7,0.8,1.1,1.7
					c2.3,5.8,6.9,10.8,12.3,13.2c-0.8-0.3-3.8-9.3-3.8-10.7c0-3.3,4.7-8.8,6.6-11.1C134.9,232.6,135.4,230,134.4,231.2z"/>
				<path class="st39" d="M98,180.1l-2.3,11.2c-0.4,2.1-0.3,4.4,0.5,6.4l3.1,7.8c7.7,0.8,15.2,0.3,22.8,0.8
					c5.4,0.4,22.1,1.4,22.1,1.4l-1.6,3.4c0,0-11.2,22.1-13.6,25.9l7.9,8.8l18.7-28.4l4.3-13.4c0.5-1.7,0.3-3.7-0.9-5.1l-3.5-4.5
					l-23.3-8.2l-5.9-4.1l-1.8-3.7L98,180.1z"/>
				<path class="st40" d="M125.7,241.7c-0.1,0.1,3,5.7,3.2,6.2c1.3,2,2.6,3.3,4.8,4.1c1.1,0.4,2.4,0.1,2.4,0.1s2,3.8,3,4.6
					c2.2,2.1,5,4,8.1,4.9c0.7,0.1,1.3,0.4,1.6,1c1.6,3.3-5.9,2-7,1.7c-2-0.4-4.3-0.8-6.3-1.3c-1.3-0.3-3.4-2.1-4.4-3.2
					c-1.5-1.3-3-2.4-4.2-4c-0.5-0.5-0.8-1.6-1.5-1.9c-0.5-0.3-1.2-0.3-1.6-0.5c-1.2-0.7-4.4-4.5-4.4-4.5s0.3-1.2,0.5-1.7
					C121.6,244.9,123.4,243.3,125.7,241.7z"/>
				<path class="st38" d="M114.8,181.2l9.4,3.6l-10.9,5.3c0,0,16.4-3.3,25-3.6c-4-1.2-14.3-7.9-14.3-7.9S118.2,178.4,114.8,181.2z"
					/>
			</g>
		</g>
		<g>
			<g>
				<polygon class="st41" points="156.8,125 160.7,113.3 163.1,114.2 159.3,125.9 				"/>
				<polygon class="st42" points="181.5,120.9 172.7,117.6 169.5,116.7 165.9,115.2 163,114.2 162.4,116 181,122.6 				"/>
				<polygon class="st41" points="181,122.6 162.4,116 161.4,119.3 179.9,125.7 				"/>
				<polygon class="st42" points="179.9,125.7 161.4,119.3 160.3,122.7 178.7,129.2 				"/>
				<polygon class="st41" points="160.3,122.7 159.3,125.8 162,127 165.7,128.3 168.8,129.4 177.6,132.5 178.7,129.2 				"/>
				<path class="st43" d="M152.5,105.8l-5,15.3c-0.3,0.7-0.5,1.3-0.7,1.3l-1.6-0.5c-0.1,0-0.1-0.8,0.1-1.7l4.7-13.6
					c0.3-0.8,0.7-1.6,0.8-1.4L152.5,105.8z"/>
				<path class="st42" d="M156.2,105.2v0.3l-3.5-1.4l-6.3,19.3c-0.3,1,0.1,1.9,1.1,2.1l9.4,3.4c1.2,0.4,2.4,0,2.7-1.2
					c0,0,5.7-18,5.5-18.2c0.9,0.4,1.8,0.5,1.8,0.4l0.7-2.9l-9-3.4C157.5,103.3,156.4,104.1,156.2,105.2z"/>
				<path class="st41" d="M152.9,107.4l-1.8,5.3l-2.1-0.8c-0.3-0.1-0.4-0.4-0.3-0.7l1.5-4.4c0.1-0.3,0.4-0.4,0.7-0.3L152.9,107.4z"
					/>
				<path class="st44" d="M155.9,111.6c-1.2-0.4-2.4,0.3-2.8,1.4l-2.3,7.3c-0.4,1.3,0.3,2.5,1.5,3c1.2,0.4,2.4-0.3,2.8-1.4l2.3-7.3
					C157.8,113.4,157.1,112,155.9,111.6z"/>
				<polygon class="st42" points="172.3,131.8 176.9,117.9 181.7,119.7 177.2,133.5 				"/>
				<polygon class="st43" points="176.7,135.5 182.5,117.8 186.6,119.3 180.8,137.1 				"/>
				<path class="st44" d="M186.5,119.3c0.1-0.4,0.5-0.7,1.1-0.8l7-0.7c0.7,0,1.2,0.5,1.1,1l-0.7,1.9l-9,0.4L186.5,119.3z"/>
				<path class="st41" d="M180.7,137.3l2.6-7.8l7.9,3.3l0,0c-0.1,0.5-0.5,1-1.1,1.2c-1.3,0.5-2,1.2-2.6,1.4
					c-0.4,0.3-0.5,0.7-0.4,1.2c0.3,0.7,0.5,1.7,1.2,2.7c0.3,0.5,0.4,1.2,0.1,1.7l-0.9,2.7c-0.1,0.5-0.9,0.5-1.5,0.1l-5.1-5.1
					C180.7,138,180.5,137.7,180.7,137.3z"/>
				<path class="st43" d="M184.2,126.6l7.9,1.3c0.3,0.5,0.3,1,0.1,1.6c0,0-0.7,2.1-1.2,3.4l-7.9-3.3L184.2,126.6z"/>
				<path class="st41" d="M185.8,121.2l9-0.4l-0.3,1c-0.1,0.4-0.4,0.7-0.8,1l-2.3,1.7c-0.4,0.3-0.5,0.7-0.4,1.2l0.8,2.1
					c0,0,0,0.1,0.1,0.1l-7.9-1.3L185.8,121.2z"/>
			</g>
			<g>
				<polygon class="st41" points="160.1,105 160.7,103 164.9,104.6 164.2,106.6 				"/>
				<path class="st41" d="M168.2,98.5l-0.8,2.3l-0.8,2.1l-0.4,1.3c-0.3,0.7-0.9,1-1.5,0.8l-3.9-1.4c-0.7-0.3-0.9-1-0.8-1.6l1.9-5.8
					L168.2,98.5z"/>
				<path class="st34" d="M176.8,91.7l-8.9-4.5c-0.7-0.3-1.5-0.1-1.6,0.5l-0.9,1.7l10,5.4L176.8,91.7z"/>
				<polygon class="st42" points="165.1,89.3 163,93.3 173,99 175,94.8 				"/>
				<polygon class="st45" points="178,92.2 176.8,91.7 173,99 174.2,99.6 				"/>
				<path class="st44" d="M169,97.1c-0.7,2.1-3,3.3-5,2.4c-2-0.7-3.1-3.2-2.3-5.3c0.7-2.1,3-3.3,5-2.4
					C168.6,92.7,169.6,95.1,169,97.1z"/>
				<path class="st43" d="M167.9,96.7c-0.5,1.6-1.9,2.1-3.4,1.7c-1.5-0.5-2-2-1.6-3.6s1.9-2.1,3.4-1.7
					C167.6,93.7,168.3,95.4,167.9,96.7z"/>
				<polygon class="st46" points="167.4,100.8 166.5,102.9 165.5,102.5 166.1,100.4 				"/>
			</g>
		</g>
		<g>
			<path class="st33" d="M160.9,133.1l0.1-4l-0.3-2.4c0.4-1.6,1.1-2.9,1.5-4.2c0.4-1.7,0.9-3.6,1.2-5.4c0.1-0.7,0.4-1.4,0.5-2.1
				c0-0.4,0-0.7-0.1-1s-0.7-0.7-0.9-0.5c-0.3,0-0.7,0.7-0.9,0.8c-0.3,0.4-0.7,1-0.7,1.6c0.1-0.8,0.3-1.6,0.4-2.3
				c0.3-1.3,0.3-2-0.1-3.3c-0.3-0.5-0.7-1.2-1.3-0.8c-0.5,0.3-0.7,1.3-0.9,1.7c-0.4,1.2-0.8,2-1.1,3.2c0.3-1.4,0.5-2.5,0.8-4
				c0.3-1.2,0.8-3.8-0.8-4.4c-1.2-0.4-1.3,1-1.5,1.7c-0.4,1.7-0.9,3.4-1.1,5.1l0.9-11c-0.1-0.5-0.5-1-0.9-1.2h-0.3
				c-0.7-0.1-1.2,1.2-1.2,1.7l-1.1,10.4l-0.3,2.4l-1.3-2.4c-0.1-0.7-0.3-1.4-0.4-2.1c-0.1-0.4-0.1-1-0.3-1.3c-0.3-0.4-1.5-2-1.9-1.7
				c-0.5,0.3,0,2,0.1,2.4l1.5,7.4l1.9,7.8l0.1,5.1l-0.3,2.3l8.2,0.4L160.9,133.1z"/>
			<path class="st35" d="M152,132.1l-1.6,9.3c-1.1,2.5-1.6,7.1-1.6,7.1l-2.6-4c-0.5,6.1-1.9,12.4-3.2,18.6c2.4,1.7,4.6,3.2,5.9,3.8
				c0.9,0,1.6-0.3,2-0.5c0,0,0.5-0.3,0.9-0.5c4.7-3.7,6.9-11.8,6.9-11.8c2.8-10.8,3-21.3,3-21.3L152,132.1z"/>
		</g>
	</g>
	<g id="_x32_9">
		<path class="st30" d="M34.8,29.6v233.9c0,0.7,0.4,1.3,0.8,1.3H41c0.4,0,0.8-0.7,0.8-1.3V29.6H34.8L34.8,29.6z"/>
		<path class="st30" d="M35.4,186.7L0.5,259.8c-0.3,0.3-0.1,1.3,0.4,1.6l3.7,3.2c0.3,0.5,0.8,0.2,1.1-0.5L40.6,191L35.4,186.7z"/>
		<path class="st30" d="M77.3,261.2l-3.5,3.2c-0.3,0.5-0.8,0.2-1.1-0.3l-35.3-68.7l4.8-4.3l35.3,68.7
			C77.8,260.4,77.8,260.9,77.3,261.2z"/>
		<ellipse class="st30" cx="39.1" cy="193.8" rx="8.7" ry="11.9"/>
		<g>
			<polygon class="st47" points="32.4,33.9 113.7,74.3 114.6,71 33.8,31.5 			"/>
			<g>
				<path class="st48" d="M111.7,74.5l1.3-4.2l4.1,1.9c0.7,0.3,1.1,1.6,0.6,2.6l0,0c-0.3,1.1-1.3,1.8-1.8,1.4L111.7,74.5z"/>
				<g>
					<path class="st1" d="M116.3,69.6c10.1-44-14.1-68.9-15.2-69.6c-0.4,1.1-1,2.7-2.1,4.2c-1.3,1.6-2.3,2.3-3,2.6
						c4.5,4.5,16.6,17.9,19.8,42.2C116.6,55.1,116.7,62,116.3,69.6z"/>
					<path class="st49" d="M113.8,77.2C101.1,97.7,83.5,108,64.7,108c0.4,1.4,1.3,3.2,1.5,5.3c0.1,1.3,0.3,2.3,0.3,3.2
						c2.5,0.3,15.1,0.2,31.8-15C103.8,95.9,109,89.4,113.8,77.2z"/>
					<path class="st50" d="M113.8,77.2c0.3-0.7,0.4-1.4,0.8-2.3c-10.1,8.6-25.8,14.4-43.3,11.4c0.3,0.5,2.3,4.8,0.7,10.9
						c-2,7.2-7,10.7-7.3,10.9c5.2,0.2,15.8-0.5,27.9-8.3C100.4,94.8,107.6,87.4,113.8,77.2z"/>
					<path class="st51" d="M116.3,69.6c2.1-27.3-4.5-46.9-20.4-63c1.1,1.3,0.4,7.5-1.4,13.6c-2,6.1-4.8,9.3-5.9,10.4
						c6.2,4.5,14.6,12.4,21.1,25.9c2.5,5.6,4.4,11.2,5.8,16.6C115.6,72.1,115.9,70.8,116.3,69.6z"/>
					<path class="st49" d="M115.2,73.4C115.3,73.2,115.3,73.2,115.2,73.4l-34.6-17c0.1,2.3,0.6,8.8-1.7,16.1
						c-2.3,7.7-6.2,12.4-7.5,13.9c6.2,1.3,15.1,1.4,25.2-1.6c7-2.1,13.1-5.6,18-9.6C114.9,74.5,115.1,73.8,115.2,73.4z"/>
					<path class="st52" d="M115.3,73.1c-3.2-13.9-9.9-30.1-26.7-42.5c1.7,1.3,0.1,7.7-1.7,13.6c-2,6.7-5.1,10.7-6.3,12.3
						C93.8,63,105.2,68.4,115.3,73.1C115.2,73.1,115.2,73.1,115.3,73.1z"/>
				</g>
			</g>
		</g>
		<g>
			<path class="st30" d="M61.7,38.3l-5.8-2.7c-3-1.6-6.5,0.3-7.7,4.2c-1.3,3.8,0.3,8,3.4,9.6l5.8,2.7L61.7,38.3z"/>
			<path class="st53" d="M57.1,50.8c-0.6,1.9,0.1,4,1.7,4.8l0,0c3.1,1.4,7-1.6,8.7-6.9s0.3-10.9-2.8-12.4l0,0
				c-1.5-0.7-3.2,0.2-3.8,2.1L57.1,50.8z"/>
			<polygon class="st54" points="42,40.7 44,33.9 50.7,37.2 48.7,43.9 			"/>
		</g>
		<path class="st30" d="M38.6,24.6c-3.4,0-6.1,3.7-6.1,8.2V43c0,4.5,2.7,8.2,6.1,8.2s6.1-3.7,6.1-8.2V32.9
			C44.5,28.3,41.7,24.6,38.6,24.6z"/>
	</g>
	<g id="_x33_2">
		<g id="_x31_2_5_">
			<g id="_x31_2_6_">
				<g>
					<path class="st55" d="M239.1,183.3c-0.4,0.7,1.1,1.6,1.6,2c-0.5,0-1.2-0.7-1.6-1c-0.4-0.3-1.1-0.4-1.6-0.4
						c0.1,0.3,0.4,0.4,0.5,0.7c-0.5-0.3-0.9,0-1.5-0.1c0.3,0.5,1.1,1.2,1.6,1.4c-0.1,0-0.4,0-0.7,0c0.8,0.5,1.5,0.8,2.2,0.8
						c-0.3,0-0.4,0-0.7,0.1c-0.1,0.1-0.3,0.4-0.7,0.3c0.5,0.3,0.9,0.4,1.6,0.4c-0.1,0-0.4,0-0.5,0.1c0.5,0.4,1.2,0.1,1.8,0.1
						c0.9,0,2.2,0.1,2.8,0.7c1.1,1-1.1,0-1.6-0.1c-0.7-0.3-1.1-0.3-1.6-0.4c0.1,0.1,0.4,0.3,0.5,0.4c-0.3-0.1-0.7-0.1-0.9-0.1
						c-0.3,0.1-0.3,0.4-0.7,0.3c0.4,0.1,0.8,0.5,1.3,0.5c-0.1,0.1-0.4,0.1-0.7,0.1c0.5,0.1,0.7,0.4,1.3,0.4c0.4,0,0.8,0,1.3,0.1
						c-0.5,0-0.8,0.3-1.2,0.3c0.8,0.1,1.2,0.4,1.9,0.4c1.1,0,2-0.1,3.2,0.1c0.8,0.1,1.8,0.3,2.4,0.5c-0.3,0-0.7,0-0.9,0.1
						c-1.2,0-2.2-0.4-3.4-0.7c0.1,0.1,0.4,0.3,0.5,0.4c-0.7-0.3-1.3-0.4-2-0.4c0.3,0.1,0.5,0.4,0.8,0.5c-0.8-0.1-2.2-0.4-2.6,0.1
						c0.1,0.1,0.3,0.1,0.4,0.3c-0.3,0-0.5,0.1-0.8,0.1c0.4,0.3,0.8,0.5,1.3,0.5c-0.1,0-0.3,0.1-0.4,0.3c0.7,0.1,1.1,0.4,1.6,0.3
						c-0.3,0.1-0.7,0.1-0.7,0.4c0.7,0.1,1.3,0.3,1.9,0.1c0.8-0.1,1.6-0.5,2.4-0.4c0,0.8-2.2,0.4-2.6,0.8c0.1,0,0.3,0.1,0.5,0.1
						c-0.4,0.1-0.5,0.3-0.5,0.7c0.4,0.1,0.5,0.3,0.9,0c-0.3,0.3,0.4,0.4,0.7,0.3c0.4-0.1,0.5-0.7,1.1-0.8c-0.1,0.1-0.9,0.8-0.3,1
						c0.7,0.1,1.5-0.8,1.8-1.2c0.7-0.5,1.8-0.8,3-1c0.4,0,0.7-0.1,1.1,0c0.5,0,0.9,0.3,1.5,0.4c0.1-0.1,0.1-0.3,0-0.4
						s-0.3-0.1-0.4-0.3c-0.7-0.4-1.2-0.8-1.5-1.4c-0.5-0.8-0.3-1.3,0.1-2c0.1-0.3,1.3-1.7,0.8-2.1s-1.1,0.5-1.3,0.8
						c0-0.5,0.7-0.8,0.8-1.4c0-0.3-0.4-1-0.7-0.4c0.1-0.4-0.1-0.7-0.5-1c-0.4,0.3-0.7,0.5-0.7,1c-0.1-0.1-0.3-0.3-0.4-0.4
						c-0.5,0.8,1.3,2.4,0.1,2.9c-0.5-0.7-0.5-1.7-0.7-2.4c-0.1-0.7-0.7-1.4-1.3-1.9c-0.3,0.3-0.1,0.7-0.1,1c-0.3-0.8-0.8-1-1.3-1.7
						c-0.1,0.1-0.1,0.4,0,0.5c-0.3-0.5-0.9-0.7-1.5-1c0.1,0.3,0.3,0.7,0.4,0.8c-0.1-0.1-0.4-0.1-0.5-0.3c-0.1,0.3,0.1,1.2,0.5,1.4
						c-0.3,0-0.5,0-0.7-0.1c0,0,0.4,0.5,0.5,0.5c0.1,0.1,0.4,0.3,0.5,0.4c0.4,0.4,0.8,0.7,1.3,1.2c-0.3,0-0.4-0.1-0.7-0.1
						c0.1,0,1.5,1.6,1.6,1.7c0.5,0.4,0.8,1,1.1,1.6c-1.1-0.5-1.8-1.4-2.6-2.1c-0.4-0.5-0.7-1.3-1.2-1.7c-0.1-0.1-2-1.9-1.9-1.9
						c-0.3,0.3-0.1,0.8,0,1.3c-0.5-0.5-0.7-1.3-1.2-1.7c-0.5-0.5-0.9-0.1-0.5,0.1c-0.5-0.3-1.1-0.3-1.6-0.5c0,0.4,0.3,0.8,0.9,1.2
						c-0.3-0.1-0.4-0.1-0.7-0.1c0.5,0.8,1.3,1.6,1.8,2.3c-0.8-0.3-1.3-0.8-1.6-1.6c-0.4-0.5-0.9-1.3-1.6-1.4
						c0.1,0.1,0.1,0.4,0.3,0.5C240.1,183.6,239.5,183.6,239.1,183.3z"/>
				</g>
				<g>
					<path class="st56" d="M260.8,154.6l7,10.1c0.7,1,0.5,2.3-0.4,3s-2,0.5-2.7-0.4l-7.5-9.5c-0.9-1.2-0.7-2.7,0.3-3.6
						C258.4,153.2,259.7,153.3,260.8,154.6C260.7,154.6,260.7,154.6,260.8,154.6z"/>
					<path class="st56" d="M253.9,160.7l8.8,8.2c0.9,0.8,0.9,2.1,0.1,3s-1.9,1-2.7,0.3l-9.3-7.7c-1.1-0.8-1.3-2.4-0.4-3.6
						C251.3,160,252.7,159.8,253.9,160.7L253.9,160.7z"/>
					<path class="st57" d="M258.1,157.3l7.9,10.1c0.7,0.8,0.4,2-0.4,2.9s-1.9,0.8-2.6,0.3l-9.3-8.8c-1.3-1.3-1.5-3.4-0.3-4.6
						C254.8,155.8,256.6,155.9,258.1,157.3C258,157.1,258,157.1,258.1,157.3z"/>
					<path class="st58" d="M252.2,162.8C252.3,162.8,252.3,162.8,252.2,162.8c0.8,1,1.6,1.9,2.2,2.5c0.5,0.5,1.1,0.7,1.6,1.2
						c0.4,0.3,1.1,0.7,0.7,1.4c-0.4,0.8-1.1,0-1.6-0.3c-0.5-0.4-1.1-0.8-1.6-1.3c-0.9-0.7-2.6-1.6-3-2.5c-0.1-0.5,0.1-1.3,0.7-1.3
						C251.8,162.4,252.1,162.6,252.2,162.8z"/>
					<path class="st59" d="M250,154.2c0.5,0.8,1.2,1.6,1.6,2.4c0.3,1,0.1,2-0.4,2.7c-0.5,0.8-1.5,1.4-2.3,1.4c1.2,0.5,2.3,0,3.2-0.7
						c0.4,0.8,0.8,1.7,1.3,2.4c-0.1-0.4,0.1-1.6,0.1-1.9c0-0.8,0.1-1.7,0.1-2.4c-1.5-1.9-3.4-3.8-3.8-6.1
						C249.2,152.2,249.6,153.3,250,154.2z"/>
					<path class="st55" d="M257.6,153.2c-1.5,0.5-1.9,2.4-3.5,2.4c-1.9,0-3.2-2-3.4-4c-0.4,0-0.7,0-0.8,0.1c0.4,2.3,2.3,4.1,3.8,6.1
						v-0.1c0.8-0.1,1.6-0.1,2.3-0.4c0.4-0.1,1.3-0.8,1.6-0.7c-0.5-0.1-1.1-0.4-1.6-0.5C256.6,155.1,257.2,154.2,257.6,153.2z"/>
				</g>
				<g>
					<path class="st60" d="M245.9,163.6l10.4,31.6c-0.1,0-0.1,0-0.3,0c-0.4-0.1-0.8-0.1-1.2-0.3h-0.1h-0.1c-0.1,0-0.4-0.1-0.5-0.1
						c-2.2-0.7-4.2-1.7-5.9-3.2c-1.5-1.2-2.6-2.4-3.5-4s-1.6-1.7-3.4-2.3c-0.7-0.3-2.6-3-0.9-3.2c-1.3,0-2.6-0.8-2.8-1.9
						c-0.3-1.3,0.5-2.5,1.6-3.2c-1.1-0.5-1.6-1.7-1.3-2.9s1.3-2.1,2.6-2.5c-2-2.1,1.1-4,3.2-4.1C243.8,166,244.7,164.5,245.9,163.6
						C245.9,163.7,245.9,163.7,245.9,163.6z"/>
					<path class="st61" d="M261,174.7c1.5-1.2,1.6,2.4,1.2,3c-1.1,1.7-1.5,2.3-1.3,4.1c0.1,1.9,0,3.6-0.5,5.4
						c-0.7,2.3-1.6,4.6-3.1,6.7c-0.4,0.5-0.7,1-1.1,1.6l-10.4-31.6c0,0,0,0,0.1,0c1.6-0.1,3,0.4,3.8,1.6c1.8-1.3,5.3-1.9,5,1.3
						c1.2-0.5,2.6-0.4,3.5,0.4c0.9,0.7,1.2,2,0.7,3.2c1.3-0.3,2.7,0.3,3.2,1.4C262.4,172.3,262,173.7,261,174.7z"/>
					<path class="st62" d="M253.9,193.2l0.9,1.7h-0.1C254.5,194.3,254.2,193.7,253.9,193.2z"/>
					<path class="st63" d="M246.7,166l9.6,29.5c-0.1,0-0.1,0-0.3,0c-0.4-0.1-0.8-0.1-1.2-0.3c-0.5-2.3-1.8-4.4-3.5-6.1
						c-1.8-1.7-3.9-3.3-6.1-4.9c1.3,0.4,2.6,0.7,3.9,1.2c-2.3-2.9-5.3-5.4-8.5-7.7c2,0.3,4,0.4,6.1,0.7c-1.6-1.7-3.2-3.4-4.8-5.3
						c1.3,0.3,2.7,0.5,4,0.8c-0.4-1.7-0.7-3.2-1.1-4.9c0.5,0.5,1.2,1,1.6,1.6C246.1,169.3,246.1,167.4,246.7,166z"/>
					<path class="st64" d="M246.7,166l9.6,29.5l0.1-0.1c0.3-0.3,0.5-0.7,0.7-1c-0.9-2.1-1.2-4.6-0.8-7.1c0.4-2.5,1.2-5.1,1.9-7.7
						c-0.8,1.2-1.6,2.3-2.4,3.4c0.1-3.8,0.9-7.8,2.2-11.5c-1.5,1.6-3,3-4.4,4.5c0.3-2.4,0.5-4.9,0.8-7.3c-0.9,1.2-1.8,2.1-2.7,3.3
						c-0.7-1.6-1.3-3-1.9-4.4c-0.1,0.7-0.3,1.6-0.5,2.1C248.8,168.1,248,166.8,246.7,166z"/>
				</g>
				<g>
					<g>
						<path class="st63" d="M273.1,166.4c0,0-0.1,4.5-0.5,5c-0.4-1.4-2.6-3.7-3.9-4.6v0.1v1.9c0.1,0.1,0.3,0.1,0.3,0.3
							c0.8,0.8,1.5,1.7,1.8,2.9c0.5,1.9,1.2,4.1,1.2,5.8h2.4v-11.2L273.1,166.4L273.1,166.4z"/>
						<path class="st60" d="M275.5,166.4c0,0,0.1,4.5,0.5,5c0.4-1.4,2.6-3.7,3.9-4.6v0.1v1.9c-0.1,0.1-0.3,0.1-0.3,0.3
							c-0.8,0.8-1.5,1.7-1.8,2.9c-0.5,1.9-1.2,4.1-1.2,5.8h-2.3v-11.2L275.5,166.4L275.5,166.4z"/>
					</g>
					<g>
						<path class="st59" d="M272,167c0,1.7-1.3,3-2.8,3c-1.6,0-2.8-1.4-2.8-3s1.3-3,2.8-3C270.8,163.9,272,165.3,272,167z"/>
						<path class="st65" d="M270.5,166.5c0,1.2-0.9,2-1.9,2s-1.9-1-1.9-2c0-1.2,0.9-2,1.9-2C269.7,164.5,270.5,165.6,270.5,166.5z"
							/>
					</g>
					<g>
						<path class="st59" d="M282,164.5c0,2.1-1.6,4-3.8,4c-2,0-3.8-1.7-3.8-4c0-2.1,1.6-4,3.8-4C280.2,160.4,282,162.4,282,164.5z"
							/>
						<path class="st65" d="M280.1,164.1c0,1.6-1.2,2.7-2.6,2.7s-2.6-1.3-2.6-2.7s1.2-2.7,2.6-2.7S280.1,162.6,280.1,164.1z"/>
					</g>
					<g>
						<path class="st59" d="M275.5,164.9c0,2.3-1.8,4.1-3.9,4.1s-3.9-1.9-3.9-4.1c0-2.3,1.8-4.1,3.9-4.1
							C273.7,160.8,275.5,162.6,275.5,164.9z"/>
						<path class="st65" d="M273.5,164.5c0,1.6-1.2,2.9-2.7,2.9s-2.7-1.3-2.7-2.9c0-1.6,1.2-2.9,2.7-2.9S273.5,162.8,273.5,164.5z"
							/>
					</g>
					<g>
						<path class="st59" d="M278.2,165.4c0,1.7-1.3,3-2.8,3c-1.6,0-2.8-1.4-2.8-3s1.3-3,2.8-3C276.8,162.3,278.2,163.6,278.2,165.4z
							"/>
						<path class="st66" d="M276.7,164.9c0,1.2-0.9,2-1.9,2s-1.9-1-1.9-2c0-1.2,0.9-2,1.9-2S276.7,163.9,276.7,164.9z"/>
					</g>
					<g>
						<path class="st59" d="M282.8,167.7c0,1.7-1.3,3-2.8,3c-1.6,0-2.8-1.4-2.8-3s1.3-3,2.8-3C281.6,164.5,282.8,166,282.8,167.7z"
							/>
						<path class="st66" d="M281.4,167.3c0,1.2-0.9,2-1.9,2c-0.9,0-1.9-1-1.9-2c0-1.2,0.9-2,1.9-2S281.4,166.1,281.4,167.3z"/>
					</g>
				</g>
				<g>
					<g>
						<g>
							<path class="st59" d="M287.5,163.9L287.5,163.9c0.1-0.4-0.4-0.7-0.7-0.4l-2,2.5c-0.1,0.3-0.5,0.1-0.7-0.1l-0.3-1
								c-0.1-0.4-0.7-0.3-0.7,0.1l-0.5,6.4l0.8,0.7l4.6-7.9C287.8,164.5,287.3,164.3,287.5,163.9z"/>
						</g>
						<g>
							<path class="st55" d="M289.5,170.9l-1.3-0.4c-0.3-0.1-0.3-0.4-0.1-0.7l2.6-2.3c0.3-0.3,0.1-0.7-0.3-0.7l-1.3,0.1
								c-0.3,0-0.5-0.3-0.4-0.5l1.9-3.6c0.3-0.4-0.3-0.7-0.5-0.4l-2.2,1.9l0,0l-4.6,7.9l1.6,1.4l4.4-2.1
								C289.9,171.4,289.8,171,289.5,170.9z"/>
						</g>
					</g>
					<g>
						<path class="st67" d="M283.7,172.1c-0.3-0.3-0.7-0.4-1.1-0.5c-1.6-0.4-3.2,0.4-4.3,1.7c-1.1,1.3-1.6,2.9-2.2,4.5
							c-2.2,6.4-4.4,12.7-6.6,19.2L283.7,172.1z"/>
					</g>
					<g>
						<path class="st68" d="M283.7,172.1c0.4,0.1,0.7,0.4,0.9,0.7c1.1,1.3,1.2,3.2,0.7,4.9s-1.6,2.9-2.7,4.1
							c-4.3,5.1-8.5,10.1-12.9,15.2L283.7,172.1z"/>
					</g>
					<g>
						<path class="st68" d="M280.7,174.7l-1.6-1c-0.1-0.1-0.1-0.3-0.1-0.4c0.1-0.1,0.3-0.1,0.4-0.1l1.6,1c0.1,0.1,0.1,0.3,0.1,0.4
							C281,174.8,280.9,174.8,280.7,174.7z"/>
					</g>
					<g>
						<path class="st68" d="M280.1,178l-1.6-1c-0.1-0.1-0.1-0.3-0.1-0.4c0.1-0.1,0.3-0.1,0.4-0.1l1.6,1c0.1,0.1,0.1,0.3,0.1,0.4
							C280.5,178,280.2,178,280.1,178z"/>
					</g>
					<g>
						<path class="st68" d="M277.4,180.9l-1.2-0.7c-0.1-0.1-0.1-0.3-0.1-0.4c0.1-0.1,0.3-0.1,0.4-0.1l1.2,0.7
							c0.1,0.1,0.1,0.3,0.1,0.4C277.8,180.9,277.5,181.1,277.4,180.9z"/>
					</g>
					<g>
						<path class="st68" d="M276,184.8l-1.3-0.8c-0.1-0.1-0.1-0.3-0.1-0.4c0.1-0.1,0.3-0.1,0.4-0.1l1.3,0.8c0.1,0.1,0.1,0.3,0.1,0.4
							C276.3,184.8,276.2,184.9,276,184.8z"/>
					</g>
					<g>
						<path class="st67" d="M284.3,176.2l-1.5-1c-0.1-0.1-0.1-0.3-0.1-0.4c0.1-0.1,0.3-0.1,0.4-0.1l1.5,1c0.1,0.1,0.1,0.3,0.1,0.4
							C284.5,176.2,284.4,176.4,284.3,176.2z"/>
					</g>
					<g>
						<path class="st67" d="M283.6,178.7l-1.6-1c-0.1-0.1-0.1-0.3-0.1-0.4c0.1-0.1,0.3-0.1,0.4-0.1l1.6,1c0.1,0.1,0.1,0.3,0.1,0.4
							C283.8,178.7,283.7,178.7,283.6,178.7z"/>
					</g>
					<g>
						<path class="st67" d="M281,181.7l-1.5-1c-0.1-0.1-0.1-0.3-0.1-0.4c0.1-0.1,0.3-0.1,0.4-0.1l1.5,1c0.1,0.1,0.1,0.3,0.1,0.4
							C281.4,181.7,281.2,182,281,181.7z"/>
					</g>
					<g>
						<path class="st67" d="M278.5,184.6l-0.8-0.5c-0.1-0.1-0.1-0.3-0.1-0.4c0.1-0.1,0.3-0.1,0.4-0.1l0.8,0.5
							c0.1,0.1,0.1,0.3,0.1,0.4C278.7,184.6,278.6,184.6,278.5,184.6z"/>
					</g>
					<g>
						<path class="st67" d="M276,187.7l-0.7-0.4c-0.1-0.1-0.1-0.3-0.1-0.4c0.1-0.1,0.3-0.1,0.4-0.1l0.7,0.4c0.1,0.1,0.1,0.3,0.1,0.4
							S276.2,187.8,276,187.7z"/>
					</g>
				</g>
				<g>
					<path class="st69" d="M258,169.4c0.9-0.7,2-1.4,3.1-1.6c1.2-0.1,2,1,3.2,1c0.5,0,0.1,0,0.7-0.4c3.6-2.4,8.9,1.3,9,5.6
						c0.1,2.3-0.9,4.5-2.7,5.8c-0.9,0.8-2,1.3-3.1,1.7c-1.6,0.5-3.4,0.5-5,0.5c-1.2,0-2.7-0.5-3.8-1.2c-2.3-1.2-4-3.4-4.2-6.1
						C255.2,172.7,256.2,170.6,258,169.4z"/>
					<path class="st55" d="M263.4,168.9c-0.5-1.4-1.5-1.6-1.8-2.4c0.3,0.1,1.8,0.8,2.7,2.1c0.4,0,0.1-0.3,0.4-0.4
						c0.5-0.7,1.6-1.7,1.6-2c0.1,1.2-0.1,1.6-0.7,2.1c1.6,0,2.3-0.1,4.3,1c-1.8,0.3-2.2-0.1-4,0.1c0.9,1,1.6,1.7,1.6,3.6
						c-1.3-3.3-2.8-2.5-2.8-2.5s-2,1.6-2.6,2.4c-0.1-1,0.4-2,1.1-2.9c-1.3-0.7-1.9-1.3-3.6-1.3C260.7,168,261.9,168.2,263.4,168.9z"
						/>
					<path class="st70" d="M264.7,164.3c0-0.1,0.1-0.3,0.3-0.3c0,0,0,0,0.1,0s0.3,0.1,0.3,0.3l0,0c0.1,1,0,4.4-0.1,5.1
						c-0.1,0.3-0.3,0.7-0.7,0.4c-0.3-0.3-0.1-1.3-0.1-1.6C264.5,167.7,264.7,165.3,264.7,164.3z"/>
					<path class="st58" d="M258.3,170.1c0,0-3,7.5,6.5,10.6c0,0-6.1,0.3-7.9-4.2C255.2,171.7,258.3,170.1,258.3,170.1z"/>
				</g>
				<g>
					<path class="st67" d="M255.2,177.9c-5.3,0-9.7,4.5-9.7,10.2c0,5.6,4.3,10.2,9.7,10.2c0,0,0,0,0.1,0L255.2,177.9
						C255.3,177.9,255.3,177.9,255.2,177.9z"/>
					<path class="st71" d="M265,188.2c0-5.6-4.3-10.1-9.6-10.2v20.5C260.7,198.3,265,193.9,265,188.2z"/>
					<ellipse class="st72" cx="251.1" cy="182.1" rx="1.2" ry="1.3"/>
					<ellipse class="st72" cx="253.3" cy="185.7" rx="1.2" ry="1.3"/>
					<ellipse class="st67" cx="258.4" cy="183.3" rx="1.2" ry="1.3"/>
					<ellipse class="st67" cx="257.2" cy="180.4" rx="1.2" ry="1.3"/>
					<ellipse class="st72" cx="249.4" cy="184.4" rx="1.2" ry="1.3"/>
					<ellipse class="st72" cx="253.3" cy="180.4" rx="1.2" ry="1.3"/>
				</g>
				<g>
					<g>
						<path class="st61" d="M272.5,180.8c-0.1-0.1-0.1-0.1-0.3-0.3l-10.1,14.4c0.1,0,0.1,0,0.3,0c2,2.9,4.7,2.7,7.5,2
							C275.9,195.7,282.8,186.3,272.5,180.8z"/>
						<path class="st60" d="M258.5,188.2c0.3,3,1.6,6.4,3.9,6.9l10.1-14.4C265,173,258.1,181.7,258.5,188.2z"/>
						<path class="st73" d="M273.1,182c-0.1,0.3-0.8,0.1-1.3-0.3s-0.8-1-0.7-1.3c0.1-0.3,0.8-0.1,1.2,0.3
							C272.9,181.1,273.2,181.6,273.1,182z"/>
						<g>
							<path class="st55" d="M271.9,180.9L271.9,180.9l1.6-9.4C266.6,176.4,271.3,180.9,271.9,180.9z"/>
							<path class="st74" d="M273.6,171.4L273.6,171.4l-1.6,9.5C275.4,180.4,276.8,173.7,273.6,171.4z"/>
						</g>
						<path class="st75" d="M278.5,177.8c-4.7-0.5-6.6,3.2-6.6,3.2c0-0.1,0,0.3,0.1,0.4c0,0.1,0.3,0.1,0.7,0.1
							c1.9-2.4,4.4-2.7,6.3-2.4C278.7,178.7,278.6,178.3,278.5,177.8z"/>
						<path class="st75" d="M263.1,195.7c-0.1,0.1-0.4-0.1-0.7-0.3c-0.3-0.1-0.5-0.3-0.4-0.5c0.1-0.1,0.5,0.1,0.7,0.3
							C262.8,195.5,263.2,195.6,263.1,195.7z"/>
					</g>
					<path class="st76" d="M264.3,180.4c0.4-0.3,0.9-0.5,1.3-0.5c0.5,0,1.1,0.3,1.2,0.7c0.3,0.5,0,1.3-0.5,1.7s-1.1,0.5-1.6,0.8
						c-1.3,0.7-2.3,1.7-3,3.2C261.5,184.1,262.4,181.6,264.3,180.4z"/>
				</g>
				<g>
					<path class="st77" d="M250.9,171.1c-5.3-1-8.9-4.9-9.2-8.8c0.1,0,0.1-0.1,0.3-0.1h0.1l0,0c0,0,0,0,0.1,0h0.1c0.1,0,0.1,0,0.3,0
						c0,0,0,0,0.1,0l0,0c0,0,0,0,0.1,0h0.1c1.6,2.1,4.3,3.7,7.8,3.8c5.4,0.1,11.3-2.9,13.9-7.8h0.1h0.1c0,0,0,0,0.1,0l0,0
						c0,0,0,0,0.1,0h0.1c0,0,0,0,0.1,0c0,0,0,0,0.1,0l0,0c0,0,0,0,0.1,0s0.1,0.1,0.3,0.1c0,0,0,0,0.1,0c0,0,0,0,0.1,0c0,0,0,0,0.1,0
						l0,0c0,0,0,0,0.1,0c0.1,0.1,0.1,0.1,0.3,0.3c0,0.4,0.1,0.7,0.1,1.2C266.6,167.7,258.4,172.3,250.9,171.1z"/>
					<path class="st62" d="M250.7,168.5c-4.6-0.4-7.8-3.3-8.8-6.6h0.1l0,0c0,0,0,0,0.1,0h0.1c0.1,0,0.1,0,0.3,0c0,0,0,0,0.1,0l0,0
						c0,0,0,0,0.1,0h0.1c1.6,2.1,4.3,3.7,7.8,3.8c5.4,0.1,11.3-2.9,13.9-7.8h0.1h0.1c0,0,0,0,0.1,0l0,0c0,0,0,0,0.1,0h0.1
						c0,0,0,0,0.1,0c0,0,0,0,0.1,0l0,0c0,0,0,0,0.1,0s0.1,0.1,0.3,0.1c0,0,0,0,0.1,0c0,0,0,0,0.1,0c0,0,0,0,0.1,0l0,0c0,0,0,0,0.1,0
						C264.5,165.3,257.3,169.4,250.7,168.5z"/>
					<path class="st78" d="M250,167c-3.9-0.4-6.7-2.3-8.2-5c0,0,0,0,0.1,0h0.1c0.1,0,0.1,0,0.3,0c0,0,0,0,0.1,0l0,0c0,0,0,0,0.1,0
						h0.1c1.6,2.1,4.3,3.7,7.8,3.8c5.4,0.1,11.3-2.9,13.9-7.8h0.1h0.1c0,0,0,0,0.1,0l0,0c0,0,0,0,0.1,0h0.1
						C263.1,164,256.4,167.7,250,167z"/>
					<path class="st79" d="M265.9,156.1L265.9,156.1l-0.4-0.1c-0.3-0.1-0.7,0-0.8,0.4l-0.5,1.7l0.7,0.4l0.1,0.1
						C265.7,157.9,266.1,157,265.9,156.1z"/>
					<path class="st80" d="M266.6,156.9c0.1-0.3-0.1-0.7-0.4-0.8h-0.1c0.1,1-0.3,1.7-0.8,2.4l0.8,0.4L266.6,156.9z"/>
				</g>
				<g>
					<path class="st56" d="M235.8,177.4c0,0,0-0.8,1.3-2.7s2.4-0.5,2.4-0.5c2.6,4,8.8,5.6,8.8,5.6l6.1,1.7c0.1,0,0.3,0.1,0.1,0.3
						c0,0-1.6,0.7-2.8,1c-0.1,0-0.1,0-0.3,0c-5.5,0.3-13.6-3.7-14.8-4.2C235.6,177.8,235.8,177.4,235.8,177.4z"/>
					<path class="st81" d="M236,176.6c0-0.1,0-0.3,0-0.5c-0.1-0.3-0.3-0.5-0.3-0.8c-0.3-0.7-0.7-1.3-0.9-2c-0.1-0.7-0.3-1.4,0-2
						c0.3-0.7,1.2-1.4,1.9-1.3c0.1,0,0.1,0,0.3,0.1c0.3,0.1,0.1,0.4,0,0.7c0,0-0.5-0.1-0.7-0.1c-0.3,0-0.5,0.1-0.7,0.3
						c-0.5,0.5-0.5,1.4-0.3,2c0.1,0.4,0.5,0.8,0.8,1.2c0.5,0.3,0.9,0,1.5-0.1c0.1,0,0.4-0.1,0.5-0.1c0,0.1-0.3,0.4-0.4,0.5
						c-0.1,0.1-0.4,0.3-0.4,0.5c0,0.1,0.1,0.4,0.3,0.5c-0.1,0.1-0.5-0.1-0.8,0.1c0,0.1,0,0.3,0,0.4c0,0.1,0,0.3-0.1,0.5
						c-0.1-0.1-0.3-0.3-0.4-0.3c0,0-0.4,0.7-0.5,0.8C236,176.8,236,176.7,236,176.6z"/>
					<path class="st82" d="M238.5,174.2c0.1,0,0.4,0.1,0.5,0.3c1.8,1.7,3.4,3.3,5.4,4.4c1.1,0.5,2.2,0.8,3.2,1.2
						c0.9,0.3,4.2,1.2,5.7,1.4c0.1,0,0.1,0,0.3,0c0.1,0,0.3,0,0.4,0s0.1,0,0.1,0c-0.1,0-0.4,0.1-0.5,0.1s-0.3,0-0.3,0
						c-1.6,0.1-3.1,0-4.6-0.4c-1.6-0.4-3.1-0.8-4.6-1.6c-1.3-0.5-2.6-1.3-3.8-2c-0.7-0.5-2.7-1.9-2.3-3
						C238.1,174.3,238.3,174.2,238.5,174.2z"/>
				</g>
			</g>
		</g>
		<g id="_x36__2_">
			<g>
				<g>
					<polygon class="st83" points="295,247.6 289.1,202.5 285.1,203.1 290.7,247.6 					"/>
					<polygon class="st83" points="240.2,247.6 245.7,203.1 241.7,202.5 235.9,247.6 					"/>
					<path class="st84" d="M296.1,248.2c0-0.1,0-0.3,0-0.3c0-1.7-0.8-3-1.8-3h-3.6c-0.9,0-1.8,1.4-1.8,3c0,0.1,0,0.3,0,0.3H296.1z"
						/>
					<path class="st84" d="M241.4,248.2c0-0.1,0-0.3,0-0.3c0-1.7-0.8-3-1.8-3H236c-0.9,0-1.8,1.4-1.8,3c0,0.1,0,0.3,0,0.3H241.4z"/>
				</g>
				<path class="st53" d="M236.3,200.7L236.3,200.7c0,1.7,1.8,3.3,4.2,3.3h50.1c2.2,0,4-1.6,4-3.3v-0.1L236.3,200.7L236.3,200.7z"/>
				<path class="st85" d="M291.1,197.7h-51.2c-1.9,0-3.6,1.3-3.6,2.9l0,0h58.3l0,0C294.6,199,293,197.7,291.1,197.7z"/>
			</g>
			<path class="st85" d="M288,196.9c-0.1,1.3,1.2,2.3,2.4,2l0,0c2.7-0.3,4.7-2.1,5-4.5c0,0,5-45.6,4-48.7c-0.1-0.5-0.8-1-1.5-1.2
				l0,0c-1.9-0.3-4,1-4.6,2.5C292.6,149.7,288,196.9,288,196.9z"/>
		</g>
		<g>
			<path class="st24" d="M279.7,188.6h-39.5c-0.4,1.3,0,2.4,1.2,3.8h37.2C279.7,191,280.2,189.8,279.7,188.6z"/>
			<path class="st86" d="M241.4,192.3c1.3,1.6,3.4,3.2,5.9,4.9c8.3,0.8,16.8,0.8,25.3,0c2.6-1.7,4.7-3.3,5.9-4.9H241.4z"/>
		</g>
	</g>
</g>
</svg>
