<svg xmlns="http://www.w3.org/2000/svg" viewBox="0 0 343.396 265.382">
  <defs/>
  <g data-name="Group 4056">
    <path fill="#878787" d="M103.039 129.57h24.598v24.691h-24.598z" data-name="Rectangle 1217"/>
    <path fill="#878787" d="M282.009 129.57h24.598v24.691h-24.598z" data-name="Rectangle 1218"/>
    <g data-name="Group 3324">
      <path fill="#878787" d="M317.97 75.629v31.174c25.622 0 25.426-15.587 25.426-15.587s.196-15.587-25.426-15.587z" data-name="Path 57697"/>
      <path fill="#423d1c" d="M332.757 48.798H212.815v84.84h119.943V91.216z" data-name="Path 57698"/>
      <path fill="#2b2812" d="M122.975 131.216v8.99a1.794 1.794 0 01-1.908 1.646H81.901a1.793 1.793 0 01-1.907-1.646v-1.2h1.778a.4.4 0 00.422-.364v-.735a.4.4 0 00-.422-.364h-.22a.224.224 0 01-.238-.205v-3.894a.224.224 0 00-.238-.206h-3.338a.224.224 0 00-.238.206v3.894a.224.224 0 01-.238.205h-.22a.4.4 0 00-.422.364v.728a.4.4 0 00.422.364h1.779v1.2a2.9 2.9 0 003.08 2.659h39.166a2.9 2.9 0 003.081-2.659v-8.99z" data-name="Path 57699"/>
      <g data-name="Group 3316" transform="translate(102.158 27.893)">
        <g data-name="Group 3314">
          <path fill="#b2b2b2" d="M1.761 28.152H0v-17.89c0-4.227 3.984-7.666 8.881-7.666h71.2v1.52h-71.2c-3.926 0-7.12 2.757-7.12 6.146z" data-name="Path 57700"/>
        </g>
        <rect width="6.454" height="3.672" fill="#706f6f" data-name="Rectangle 1219" rx=".769" transform="translate(76.852 1.519)"/>
        <g data-name="Group 3315" transform="translate(78.172)">
          <rect width="6.088" height="10.889" fill="#878787" data-name="Rectangle 1220" rx="1.489" transform="translate(3.117)"/>
          <path fill="#302d14" d="M1.907 11.333h8.508v12.105H1.907z" data-name="Rectangle 1221"/>
          <rect width="12.322" height="4.97" fill="#9d9d9c" data-name="Rectangle 1222" rx="1.456" transform="translate(0 7.344)"/>
          <path fill="#b2b2b2" d="M2.384 7.344h7.554v4.97H2.384z" data-name="Rectangle 1223"/>
        </g>
      </g>
      <g data-name="Group 3317">
        <path fill="#757575" d="M316.507 38.732h-2.1v4.333h1.349a.7.7 0 01.747.645v5.41h4.315v-7.216a3.455 3.455 0 00-3.679-3.175z" data-name="Path 57701"/>
        <path fill="#757575" d="M307.363 38.403h6.161v4.991h-6.161z" data-name="Rectangle 1224"/>
        <path fill="#454545" d="M314.746 43.075l-1.222.32v-4.991l1.222.32z" data-name="Path 57702"/>
      </g>
      <path fill="#2b2812" d="M298.317 45.684h6.797v5.254h-6.797z" data-name="Rectangle 1225"/>
      <rect width="81.752" height="14.794" fill="#b2b2b2" data-name="Rectangle 1226" rx="3.441" transform="translate(228.591 32.705)"/>
      <path fill="#575756" d="M54.52 69.908h58.821v42.616H54.52z" data-name="Rectangle 1227"/>
      <rect width="56.82" height="44.32" fill="#9d9d9c" data-name="Rectangle 1228" rx=".621" transform="translate(62.804 69.056)"/>
      <path fill="#575756" d="M204.049 46.004a49.335 49.335 0 00-13.679-1.924h-31.245a23.5 23.5 0 00-6.341.866c-3.861 1.085-8.374 2.459-8.374 2.459h-4.694v87.622h4.694s4.514 1.375 8.374 2.459a23.476 23.476 0 006.341.866h31.245a49.319 49.319 0 0013.679-1.924c3.35-.969 7.147-2.084 9.353-2.793V48.798c-2.206-.709-6.003-1.825-9.353-2.794z" data-name="Path 57703"/>
      <path fill="#3c3c3b" d="M39.029 109.192l2.479 67.362a.939.939 0 001.717.535c2.009-3.033 3.586-15.434 6.992-67.9z" data-name="Path 57704"/>
      <path fill="#9d9d9c" d="M.005 91.216c0 5.052 17.518 22.248 56.986 22.315a.234.234 0 00.233-.233V69.134a.233.233 0 00-.233-.233C17.518 68.968.005 86.163.005 91.216z" data-name="Path 57705"/>
      <path fill="#ba2720" d="M14.151 77.951C4.526 82.951 0 88.651 0 91.216s4.526 8.268 14.151 13.265z" data-name="Path 57706"/>
      <path fill="#3c3c3b" d="M39.497 107.733c3.655-11.527 1.428-28.852.742-33.42-.125-.83.681-1.4 1.231-.868 1.2 1.156 3.327 4.562 6.934 13.805a9.908 9.908 0 01.45 5.654c-.586 2.694-2.051 6.975-5.617 13.1a12.517 12.517 0 01-2.437 3.019c-.726.544-1.605-.335-1.303-1.29z" data-name="Path 57707"/>
      <path fill="#575756" d="M40.239 74.313c.686 4.568 2.913 21.893-.742 33.42a1.236 1.236 0 00.023.835c8.669-13.517.719-34.255.719-34.255z" data-name="Path 57708"/>
      <path fill="#3c3c3b" d="M40.243 71.534a1.409 1.409 0 01-1.165-1.5l2.431-69.022a.932.932 0 011.717-.569c1.988 3.2 3.553 16.158 6.887 70.56a1.379 1.379 0 01-1.446 1.541z" data-name="Path 57709"/>
      <path fill="#423d1c" d="M139.715 47.405h-6.793a3.249 3.249 0 01-1.587-.4 45.2 45.2 0 00-5.385-2.347 9.114 9.114 0 00-3.152-.575c-10.261-.055-31.585 2.058-31.585 2.058s-7.569.236-23.139 4.126a2.1 2.1 0 00-1.7 1.951l-.008 39 .008 39a2.1 2.1 0 001.7 1.951c15.57 3.891 23.139 4.126 23.139 4.126s21.324 2.113 31.585 2.058a9.117 9.117 0 003.152-.575 45.027 45.027 0 005.385-2.347 3.25 3.25 0 011.587-.4h6.793V91.216zm-48.5 43.811z" data-name="Path 57710"/>
      <path fill="#878787" d="M91.436 46.318v89.8a.312.312 0 00.084.206c.585.057 2 .193 3.953.369a.307.307 0 00.071-.185V45.925a.306.306 0 00-.071-.185c-1.956.176-3.368.312-3.953.369a.313.313 0 00-.084.209z" data-name="Path 57711" style="mix-blend-mode:multiply;isolation:isolate"/>
      <path fill="#2b2812" d="M92.593 136.902l-3.3-.39a.369.369 0 01-.348-.344v-89.8a.369.369 0 01.348-.344l3.3-.39a.386.386 0 01.457.344v90.582a.386.386 0 01-.457.342z" data-name="Path 57712"/>
      <path fill="#c6c6c6" d="M131.336 47.003a45.229 45.229 0 00-5.385-2.347c-.142-.053-.289-.095-.433-.141v93.4c.145-.046.291-.088.433-.141a45.026 45.026 0 005.385-2.347 3.249 3.249 0 011.586-.4h6.793V47.405h-6.793a3.248 3.248 0 01-1.586-.402z" data-name="Path 57713" style="mix-blend-mode:multiply;isolation:isolate"/>
      <path fill="#ededed" d="M152.784 137.488a23.253 23.253 0 003.245.661V44.288a23.186 23.186 0 00-3.245.66c-3.861 1.085-8.374 2.459-8.374 2.459h-4.694v87.622h4.694s4.513 1.373 8.374 2.459z" data-name="Path 57714" style="mix-blend-mode:multiply;isolation:isolate"/>
      <path fill="#b2b2b2" d="M194.479 44.257v93.919a49.067 49.067 0 009.57-1.748c3.35-.969 7.146-2.084 9.353-2.793V48.798c-2.207-.709-6-1.825-9.353-2.794a49.019 49.019 0 00-9.57-1.747z" data-name="Path 57715" style="mix-blend-mode:multiply;isolation:isolate"/>
      <rect width="4.498" height="89.081" fill="#1d1d1b" data-name="Rectangle 1229" rx="1.053" transform="translate(138.035 46.675)"/>
      <rect width="6.766" height="89.081" fill="#2b2812" data-name="Rectangle 1230" rx="1.569" transform="translate(325.992 46.675)"/>
      <rect width="7.041" height="91.063" fill="#292611" data-name="Rectangle 1231" rx="2.182" transform="translate(249.91 45.684)"/>
      <rect width="7.041" height="91.063" fill="#292611" data-name="Rectangle 1232" rx="3.521" transform="translate(258.118 45.684)"/>
      <rect width="7.041" height="91.063" fill="#292611" data-name="Rectangle 1233" rx="2.182" transform="translate(266.326 45.684)"/>
      <path fill="#878787" d="M228.591 36.693h81.752v1.963h-81.752z" data-name="Rectangle 1234" style="mix-blend-mode:multiply;isolation:isolate"/>
      <path fill="#878787" d="M237.612 40.176a2.273 2.273 0 00-2.42 2.089 2.273 2.273 0 002.42 2.089 2.273 2.273 0 002.42-2.089 2.273 2.273 0 00-2.42-2.089zm0 3.347a1.369 1.369 0 01-1.458-1.258 1.369 1.369 0 011.458-1.258 1.369 1.369 0 011.457 1.258 1.369 1.369 0 01-1.457 1.258z" data-name="Path 57716" style="mix-blend-mode:multiply;isolation:isolate"/>
      <rect width="31.025" height="9.117" fill="#302d14" data-name="Rectangle 1235" rx="3.765" transform="translate(246.126 104.668)"/>
      <rect width="4.254" height="3.672" fill="#b2b2b2" data-name="Rectangle 1236" rx="1.61" style="mix-blend-mode:multiply;isolation:isolate" transform="translate(250.961 107.39)"/>
      <rect width="4.254" height="3.672" fill="#b2b2b2" data-name="Rectangle 1237" rx="1.61" style="mix-blend-mode:multiply;isolation:isolate" transform="translate(259.511 107.39)"/>
      <path fill="#1d1d1b" d="M284.821 63.179a2.158 2.158 0 00-2.3-1.984 2.158 2.158 0 00-2.3 1.984 2.159 2.159 0 002.3 1.984 2.158 2.158 0 002.3-1.984z" data-name="Path 57717"/>
      <path fill="#1d1d1b" d="M306.251 129.57a2.159 2.159 0 00-2.3-1.984 2.158 2.158 0 00-2.3 1.984 2.158 2.158 0 002.3 1.984 2.159 2.159 0 002.3-1.984z" data-name="Path 57718"/>
      <rect width="4.254" height="3.672" fill="#b2b2b2" data-name="Rectangle 1238" rx="1.61" style="mix-blend-mode:multiply;isolation:isolate" transform="translate(268.062 107.39)"/>
      <g data-name="Group 3318">
        <path fill="#dadada" d="M292.254 101.611h-5.487c-2.636 0-4.781-1.851-4.781-4.127V63.22a.551.551 0 01.587-.506.551.551 0 01.587.506v34.264a3.392 3.392 0 003.608 3.114h5.487a.551.551 0 01.587.507.551.551 0 01-.588.506z" data-name="Path 57719"/>
      </g>
      <g data-name="Group 3319">
        <path fill="#dadada" d="M287.409 138.423h-2.993c-2.636 0-4.781-1.852-4.781-4.127v-23.872c0-2.276 2.145-4.128 4.781-4.128h6.074a.551.551 0 01.587.507.551.551 0 01-.587.506h-6.074a3.393 3.393 0 00-3.608 3.115v23.872a3.392 3.392 0 003.608 3.115h2.993a.551.551 0 01.587.507.551.551 0 01-.587.505z" data-name="Path 57720"/>
      </g>
      <g data-name="Group 3320">
        <path fill="#dadada" d="M303.993 130.077h-16.048c-2.636 0-4.782-1.852-4.782-4.127v-9.828c0-2.276 2.145-4.127 4.782-4.127h2.553a.551.551 0 01.587.507.551.551 0 01-.587.506h-2.553a3.393 3.393 0 00-3.608 3.114v9.828a3.393 3.393 0 003.608 3.115h16.048a.551.551 0 01.587.506.551.551 0 01-.587.506z" data-name="Path 57721"/>
      </g>
      <g data-name="Group 3322" transform="translate(288.293 97.011)">
        <rect width="18.972" height="12.458" fill="#b2b2b2" data-name="Rectangle 1239" rx="1.971" transform="translate(14.522 3.563)"/>
        <g fill="#b2b2b2" data-name="Group 3321" transform="translate(0 2.047)">
          <rect width="7.921" height="4.094" data-name="Rectangle 1240" rx=".926"/>
          <rect width="7.921" height="4.094" data-name="Rectangle 1241" rx=".926" transform="translate(0 5.698)"/>
          <rect width="7.921" height="4.094" data-name="Rectangle 1242" rx=".926" transform="translate(0 11.396)"/>
        </g>
        <rect width="19.216" height="19.584" fill="#dadada" data-name="Rectangle 1243" rx="2.47" transform="translate(4.645)"/>
      </g>
      <path fill="#1d1d1b" d="M290.909 133.629v2.319a.493.493 0 01-.525.454h-2.873v2.871h4.5a2.159 2.159 0 002.3-1.984v-3.66z" data-name="Path 57722"/>
      <path fill="#3c3c3b" d="M289.173 140.206h-1.663a.322.322 0 01-.342-.3v-4.136a.322.322 0 01.342-.3h1.663a.321.321 0 01.342.3v4.136a.321.321 0 01-.342.3z" data-name="Path 57723"/>
      <rect width="26.991" height="12.324" fill="#615a29" data-name="Rectangle 1244" rx="6.162" transform="translate(292.938 66.175)"/>
      <g fill="#575756" data-name="Group 3323" style="mix-blend-mode:multiply;isolation:isolate">
        <path d="M299.16 69.298a1.378 1.378 0 00-1.467-1.266 1.378 1.378 0 00-1.467 1.266 1.378 1.378 0 001.467 1.266 1.378 1.378 0 001.467-1.266z" data-name="Path 57724"/>
        <path d="M316.641 69.298a1.378 1.378 0 00-1.467-1.266 1.378 1.378 0 00-1.467 1.266 1.378 1.378 0 001.467 1.266 1.378 1.378 0 001.467-1.266z" data-name="Path 57725"/>
        <path d="M299.16 75.376a1.378 1.378 0 00-1.467-1.266 1.378 1.378 0 00-1.467 1.266 1.378 1.378 0 001.467 1.266 1.378 1.378 0 001.467-1.266z" data-name="Path 57726"/>
        <path d="M316.641 75.376a1.378 1.378 0 00-1.467-1.266 1.378 1.378 0 00-1.467 1.266 1.377 1.377 0 001.467 1.266 1.377 1.377 0 001.467-1.266z" data-name="Path 57727"/>
      </g>
    </g>
    <g data-name="Group 3330">
      <g data-name="Group 3325">
        <path fill="#3c3c3b" d="M317.568 154.262h22.285v111.121h-22.285z" data-name="Rectangle 1245"/>
        <path fill="#878787" d="M319.341 154.262h3.545v111.121h-3.545z" data-name="Rectangle 1246" style="mix-blend-mode:multiply;isolation:isolate"/>
        <path fill="#706f6f" d="M317.568 154.262h3.545v111.121h-3.545z" data-name="Rectangle 1247"/>
        <path fill="#706f6f" d="M336.308 154.262h3.545v111.121h-3.545z" data-name="Rectangle 1248"/>
      </g>
      <g data-name="Group 3326">
        <path fill="#3c3c3b" d="M66.362 154.262h22.285v111.121H66.362z" data-name="Rectangle 1249"/>
        <path fill="#878787" d="M68.135 154.262h3.545v111.121h-3.545z" data-name="Rectangle 1250" style="mix-blend-mode:multiply;isolation:isolate"/>
        <path fill="#706f6f" d="M66.362 154.262h3.545v111.121h-3.545z" data-name="Rectangle 1251"/>
        <path fill="#706f6f" d="M85.102 154.262h3.545v111.121h-3.545z" data-name="Rectangle 1252"/>
      </g>
      <path fill="#878787" d="M322.882 154.261h-5.318v12.849h20.9a1.382 1.382 0 00.981-.407 1.381 1.381 0 00.406-.981v-11.461h-16.969z" data-name="Path 57728" style="mix-blend-mode:multiply;isolation:isolate"/>
      <path fill="#878787" d="M67.749 167.11h20.9v-12.849H66.364v11.461a1.38 1.38 0 00.406.981 1.382 1.382 0 00.979.407z" data-name="Path 57729" style="mix-blend-mode:multiply;isolation:isolate"/>
      <g data-name="Group 3329">
        <g data-name="Group 3328" transform="translate(66.362 144.385)">
          <rect width="273.491" height="19.753" fill="#3c3c3b" data-name="Rectangle 1253" rx="2.695"/>
          <path fill="#b2b2b2" d="M272.103 2.026H1.387A1.387 1.387 0 000 3.414v1.588h273.491V3.411a1.388 1.388 0 00-1.388-1.385z" data-name="Path 57730" style="mix-blend-mode:multiply;isolation:isolate"/>
          <path fill="#706f6f" d="M272.103 0H1.387A1.388 1.388 0 000 1.388v1.588h273.491V1.388A1.388 1.388 0 00272.103 0z" data-name="Path 57731"/>
          <path fill="#706f6f" d="M272.103 19.753H1.387A1.388 1.388 0 010 18.365v-1.588h273.491v1.588a1.388 1.388 0 01-1.388 1.388z" data-name="Path 57732"/>
          <g fill="#878787" data-name="Group 3327" transform="translate(29.938 8.273)">
            <circle cx="1.604" cy="1.604" r="1.604" data-name="Ellipse 721" style="mix-blend-mode:multiply;isolation:isolate"/>
            <circle cx="1.604" cy="1.604" r="1.604" data-name="Ellipse 722" style="mix-blend-mode:multiply;isolation:isolate" transform="translate(14.096)"/>
            <path d="M52.285 1.603a1.6 1.6 0 00-1.6-1.6 1.6 1.6 0 00-1.6 1.6 1.6 1.6 0 001.6 1.6 1.6 1.6 0 001.6-1.6z" data-name="Path 57733" style="mix-blend-mode:multiply;isolation:isolate"/>
            <circle cx="1.604" cy="1.604" r="1.604" data-name="Ellipse 723" style="mix-blend-mode:multiply;isolation:isolate" transform="translate(63.174)"/>
            <circle cx="1.604" cy="1.604" r="1.604" data-name="Ellipse 724" style="mix-blend-mode:multiply;isolation:isolate" transform="translate(98.155)"/>
            <path d="M115.459 1.603a1.6 1.6 0 00-1.6-1.6 1.6 1.6 0 00-1.6 1.6 1.6 1.6 0 001.6 1.6 1.6 1.6 0 001.6-1.6z" data-name="Path 57734" style="mix-blend-mode:multiply;isolation:isolate"/>
            <circle cx="1.604" cy="1.604" r="1.604" data-name="Ellipse 725" style="mix-blend-mode:multiply;isolation:isolate" transform="translate(196.311)"/>
            <path d="M213.612 1.603a1.6 1.6 0 00-1.6-1.6 1.6 1.6 0 00-1.6 1.6 1.6 1.6 0 001.6 1.6 1.6 1.6 0 001.6-1.6z" data-name="Path 57735" style="mix-blend-mode:multiply;isolation:isolate"/>
          </g>
        </g>
        <path fill="#dda54a" d="M232.985 151.289h27.73v1.825h-27.73z" data-name="Rectangle 1254"/>
        <path fill="#dda54a" d="M232.985 155.409h27.73v1.825h-27.73z" data-name="Rectangle 1255"/>
        <path fill="#dda54a" d="M276.712 154.261l-2.743-1.583v.6h-8.064v1.974h8.064v.6z" data-name="Path 57736"/>
      </g>
    </g>
    <g data-name="Group 3333">
      <g data-name="Group 3331">
        <path fill="#3c3c3b" d="M114.934 246.426H241.6v16.022a2.934 2.934 0 01-2.934 2.934H114.934a2.934 2.934 0 01-2.934-2.934V249.36a2.934 2.934 0 012.934-2.934z" data-name="Rectangle 1256"/>
      </g>
      <path fill="#fff" d="M113.52 248.57a.625.625 0 01.624-.625h127.451v-1.52H113.51a1.511 1.511 0 00-1.511 1.511v15.935a1.511 1.511 0 001.511 1.511h.009z" data-name="Path 57737" opacity=".2"/>
      <g data-name="Group 3332">
        <path fill="#2b2b2b" d="M159.552 229.672h78.909a3.134 3.134 0 013.134 3.134v13.62h-85.177v-13.62a3.134 3.134 0 013.134-3.134z" data-name="Rectangle 1257"/>
      </g>
      <path fill="#fff" d="M157.515 231.546a.916.916 0 01.85-.97h82.816a1.265 1.265 0 01.236.027 1.5 1.5 0 00-1.334-.931h-82.155a1.628 1.628 0 00-1.511 1.724v15.03h1.1z" data-name="Path 57738" opacity=".1"/>
      <path fill="#dda54a" d="M211.966 254.662h19.5v2.532h-19.5z" data-name="Rectangle 1258"/>
    </g>
    <g fill="#c6c6c6" data-name="Group 3334">
      <path d="M198.424 154.77a10.847 10.847 0 00-.908-4.872 1.066 1.066 0 001.121.405c1.841-.288.817-3.5-.251-5.918h-3.339a29.706 29.706 0 012.085 4.659 20.982 20.982 0 00-3.17-4.659h-62.748a32.027 32.027 0 01.212 3.474c0 1.437-.525 2.732-.565 4.155-.115 4 .372 8.091.534 12.124h25.6q.272-2.208.545-4.414 1.773.542 3.539 1.111c2.013.651 5.06-.043 6.638 1.434a2.551 2.551 0 01.74 1.869h26.937c1.009-2.842 2.822-6.384 3.03-9.368z" data-name="Path 57739" style="mix-blend-mode:multiply;isolation:isolate"/>
      <path d="M200.364 148.281a3.36 3.36 0 00.957 1.3 1.161 1.161 0 001.609-.286c.08-.168-.038-2.017.007-2a1.085 1.085 0 001.4-.844 2.42 2.42 0 00-.192-1.164c-.107-.306-.227-.6-.349-.9h-5.4c.663 1.301 1.318 2.607 1.968 3.894z" data-name="Path 57740" style="mix-blend-mode:multiply;isolation:isolate"/>
    </g>
    <g fill="#c6c6c6" data-name="Group 3335">
      <path d="M199.397 137.494a18.22 18.22 0 00-2.01-2.04 19.4 19.4 0 00-2-1.515 5.455 5.455 0 001.07-1.329 3.187 3.187 0 00.22-.508c.034-.1.054-.2.079-.3.015-.067.036-.134.047-.2a3.483 3.483 0 00.045-.417v-.074a3.965 3.965 0 00-.011-.486c-.207-2.468-2.571-5.1-4.13-6.513a7.75 7.75 0 00-.693-1.947 2.574 2.574 0 00-1.61-1.185l-1.295-2.2a4.1 4.1 0 00-.866-1.141c-.451-.369-.951-.423-1.328-.832a5.624 5.624 0 01-.833-1.461c-.122-.273-.24-.539-.362-.765-1.318-2.452-2.9-4.6-4.278-6.962l5.194-3.96a2.522 2.522 0 003.058.006l5.944-4.531a2.525 2.525 0 00.706-3.173 1.058 1.058 0 00-.138-.245l-.606-.855a2.553 2.553 0 00-3.578-.482l-5.906 4.5a2.543 2.543 0 00-.839 2.9l-4.942 3.768c-.121-.249-.246-.492-.36-.748a61.419 61.419 0 01-3.441-9.945 57.909 57.909 0 001.586-14.337c.017-13.38-9.189-24.96-10.018-25.605a15.586 15.586 0 00-1.575-1.059q-.142-.08-.272-.141l-.035-.016a1.92 1.92 0 00-.222-.089h-.012a.671.671 0 00-.173-.031h-.032a.151.151 0 00-.108.042c.567-.675.491-1.622.879-2.4a.3.3 0 00-.172-.411c-.585-.194-1.186-.375-1.77-.587.009-.016.016-.035.025-.05.322-.537 1.224-.407 1.738-.381a9.021 9.021 0 004.568-.943 1.085 1.085 0 00.515-.943 4.521 4.521 0 00-.173-1.111c-.113-.527-.138-.812.258-1.152a4.239 4.239 0 001.113-1.185.869.869 0 00.091-.373h-13.623a23.763 23.763 0 00-3.447.258c-.431.063-.861.134-1.287.221-.061.012-.121.027-.182.04-.479.1-.955.215-1.425.347-3.53.991-7.595 2.222-8.267 2.426a5.207 5.207 0 01-.689 1.356 6.63 6.63 0 01-2.385 2.018c-2.135 1.106-4.488 1.853-6.511 3.171-1.945 1.267-3.1 3.617-4.288 5.58-3.347 5.53-2.853 12.013-4.66 18.039a67.165 67.165 0 00-2.463 9.337c-.408 2.744-.632 5.577-1.178 8.269-.465 2.289-1.59 4.559-1.132 6.956a9.519 9.519 0 004.646 6.193 31.778 31.778 0 003.721 1.819 5.751 5.751 0 00.6.23c-.017.62-.046 1.239-.082 1.857a100.626 100.626 0 01-1.4 11.217c-.667 3.876.055 7.759-1.042 11.678a5.559 5.559 0 00-.293 1.517 2 2 0 00.1.58 35.527 35.527 0 003.877-1.763 3.25 3.25 0 011.587-.4h5.112v.188a.542.542 0 00.542.542h3.414a.542.542 0 00.542-.542v-.188h1.876s4.514 1.375 8.375 2.459c.471.132.947.246 1.426.348l.18.04c.426.087.856.158 1.287.221a23.686 23.686 0 003.447.258h28.321l.078-.023c0 .008 0 .015.006.023h2.84c1.374 0 2.745-.063 4.109-.176q1.729-.143 3.438-.406c.154-.023.307-.048.46-.073.3-.049.6-.1.9-.152l.14-.027zm-23.5-3.206l-.065-.029-.024-.011a22.94 22.94 0 00.569-2.807 30.276 30.276 0 012.1 2.376 13.216 13.216 0 011 2c-1.205-.481-2.403-.977-3.58-1.529z" data-name="Path 57741" style="mix-blend-mode:multiply;isolation:isolate"/>
      <path d="M147.637 32.009h26.851a2.817 2.817 0 00.1-1.309c-.01-.07-.023-.14-.033-.21h-27.037c.037.494.07 1.004.119 1.519z" data-name="Path 57742" style="mix-blend-mode:multiply;isolation:isolate"/>
    </g>
    <g data-name="Group 3340">
      <path fill="#2b2b2b" d="M121.855 230.252a11.513 11.513 0 00-1.728 3.044c-.857 2.255-1.932 4.821-1.5 7.282a5.056 5.056 0 01-.474 2.058.59.59 0 00.335.742c3.827 1.545 7.807 2.606 11.859 1.972a.6.6 0 00.46-.373c.185-.473.374-.934.374-.934s.509.883.832 1.5c.155.3 9.7 1.127 11.668 1.161a55.243 55.243 0 005.89-.2q1.472-.131 2.935-.351.705-.107 1.405-.234c.589-.107.76-.007.814-.543a3.868 3.868 0 01-.236-1.056c.18-1.851.594-6.114-3.381-6.973-2.48-.537-4.108-.547-6.922-2.19-3.184-1.859-6.467-3.206-7.875-6.593a.593.593 0 00-.526-.373q-5.129-.152-10.258-.3c-1.536-.046-2.412.877-3.393 2.029-.102.107-.193.218-.279.332z" data-name="Path 57743"/>
      <path fill="#1d1d1b" d="M154.716 245.377a3.87 3.87 0 01-.236-1.056c-.006.06-1.958.135-2.149.146q-1.007.062-2.015.11c-2.389.113-4.782.165-7.173.11-1.718-.039-3.436-.133-5.144-.327a29.17 29.17 0 01-3.437-.576 13.458 13.458 0 01-2.051-.639c-.44-.182-1.066-.681-1.521-.679-.128 0-.27.038-.4.05-.272.025-.546.041-.82.049-.583.018-1.167 0-1.75-.034a35.284 35.284 0 01-6.385-1.085c-1.013-.256-2.027-.533-3.017-.868a1.338 1.338 0 01.014.262c0 .028 0 .058-.007.088-.005.067-.013.136-.025.208-.005.032-.01.065-.017.1-.016.08-.035.161-.057.244-.006.022-.01.044-.017.066-.029.106-.062.213-.1.32l-.03.091c-.028.082-.055.163-.084.244l-.069.2c-.023.065-.046.128-.068.19-.007.019-.012.036-.019.054a.588.588 0 00.328.733l.143.058.332.131.416.161.339.127.414.151.341.12q.208.072.417.141l.34.112c.141.045.282.089.424.132l.337.1c.144.042.288.082.432.122.11.03.22.061.331.09.15.04.3.076.451.112.105.026.21.052.315.076.159.036.32.07.479.1.1.02.193.042.29.06.184.036.368.067.553.1.073.012.146.027.219.038q.387.061.777.107l.083.008c.231.026.462.048.694.066.085.006.171.009.256.014.174.011.348.021.523.027h.778c.109 0 .217-.007.325-.011.153-.006.305-.011.458-.021.113-.007.226-.017.339-.027.149-.013.3-.026.446-.044.116-.013.232-.029.348-.045.1-.014.2-.03.3-.045a.6.6 0 00.423-.362l.027-.068.031-.081c.019-.049.038-.1.057-.142l.017-.043.072-.181.015-.036.045-.113.028-.068.022-.055.03-.075.029-.072s.072.124.178.312c.177.313.452.8.654 1.192a11.084 11.084 0 002.44.4c.176.013.312.024.382.034.2.027.4.047.6.073 2.808.293 6.542.593 7.989.646l.257.007q.737.013 1.474.008 2.211-.015 4.417-.208 1.471-.131 2.935-.351.7-.106 1.406-.234c.147-.026.268-.04.368-.054.307-.044.413-.088.453-.49z" data-name="Path 57744"/>
      <path fill="#facea7" d="M155.265 57.249a10.746 10.746 0 01-.086-4.575 6.74 6.74 0 01.481-1.873c.322-.536 1.224-.406 1.738-.381a9.016 9.016 0 004.568-.944 1.086 1.086 0 00.515-.943 4.564 4.564 0 00-.173-1.111c-.113-.527-.138-.812.258-1.152a4.236 4.236 0 001.113-1.185c.234-.448-.078-.917.185-1.383a2.023 2.023 0 00.378-.724 2.347 2.347 0 00-.135-.671 1.651 1.651 0 01.187-1.133c.293-.494.885-.542 1.31-.925 1.114-1-.011-1.978-.48-3-.5-1.095-.974-2.433-.262-3.549.159-.249.36-.469.5-.726a2.6 2.6 0 00.245-1.641c-.239-1.651-.593-3.294-.853-4.952a11 11 0 00-1.618-4.572c-1.646-2.4-4.322-3.762-6.939-4.837a12.084 12.084 0 00-9.226-.44 11.278 11.278 0 00-6.01 5.6 19.059 19.059 0 00-.77 13.893c.753 2.51.6 4.916.742 7.466a31.886 31.886 0 01-.806 8.293c3.695 3.83 9.826 5.811 15.138 5.465z" data-name="Path 57745"/>
      <path fill="#991f1f" d="M177.107 115.976a5.6 5.6 0 00.833 1.461c.377.409.877.462 1.328.832a4.1 4.1 0 01.866 1.14l1.294 2.2a2.574 2.574 0 011.611 1.185 7.8 7.8 0 01.694 1.947c1.992 1.8 5.317 5.606 3.746 8.5a6.622 6.622 0 01-1.661 1.856c-.065.054-.13.108-.2.161a20.5 20.5 0 01-7.46 3.818 13.254 13.254 0 01-4.136.684 2.621 2.621 0 01-1.259-.721 9.408 9.408 0 01-1.509-1.38c-.848-.968-1.056-2.208-1.759-3.211-.782-1.116-1.921-2.012-2.717-3.155a20.3 20.3 0 01-3.115-7.009 30.115 30.115 0 01-.168-10.77c.414-3.082.591-6.055.955-9.113a49.391 49.391 0 011.026-5.737c.291-1.209 1.828-4.128 1.585-5.253a61.465 61.465 0 003.932 12.019c1.6 3.584 3.924 6.391 5.745 9.779.128.229.243.494.369.767z" data-name="Path 57746"/>
      <path fill="#302300" d="M164.363 26.2c2.611.581-.527-4.872-1.2-5.611-5.414-5.964-16.075-7.864-21.746-1.233a13.15 13.15 0 00-2.89 7.376 23.761 23.761 0 00-.01 4.084 18.645 18.645 0 00.505 3.858c.225.731.6 1.4.795 2.154a16.619 16.619 0 00.562 3.074c.435.922 1.136-.3 1.4-.8a19.667 19.667 0 002.328-8.19c.067-1.161.143-2.538 1.135-3.145 1.64-1 3.645.358 4.235 1.927a9.25 9.25 0 01.277 3.957c-.025.31 3.1.08 3.362.08a13.452 13.452 0 01.169-3 4.229 4.229 0 011.48-2.443 3.39 3.39 0 001-.845c.671-1.123-.568-2.2.746-3.256 1.936-1.558 4.627.073 6.3 1.2a4.741 4.741 0 001.552.813z" data-name="Path 57747"/>
      <path fill="#991f1f" d="M121.008 229.276q-.058-.1-.11-.209a4.409 4.409 0 01-.524-2.906c.3-.952 1.336-1.479 1.564-2.551.305-1.434-1.011-1.379-1.263-2.28-.23-.823.7-1.723.818-2.538.257-1.752-.758-3.482-.87-5.213a46.821 46.821 0 01.583-9.955c.877-5.877.359-11.575.749-17.46q.657-9.89.505-19.812c-.068-4.541-.71-9.179-.581-13.706.041-1.423.566-2.718.566-4.155a40.712 40.712 0 00-.559-6.1c-.256-1.666-.394-3.663.908-4.733a4.763 4.763 0 013.078-.745 63.7 63.7 0 0114.309 1.623c3.563.819 8.121.661 9.493 4.815a14.823 14.823 0 01.18 6.367c-1.617 13.776-3.585 27.6-4.584 41.432-.205 2.832-.148 5.642-.245 8.471a47.7 47.7 0 01-1.6 8.617c-.332 1.484-.051 3.12-.183 4.65-.183 2.129-.385 4.256-.577 6.384-.1 1.851-.335 3.705-.5 5.551s.1 4.565-.567 6.275c-.939 2.413-5.107 1.706-7.34 1.741-3.582.055-11.204.057-13.25-3.563z" data-name="Path 57748"/>
      <g data-name="Group 3336">
        <path fill="#3c3c3b" d="M148.855 209.599a.463.463 0 01.522-.291l12.434 1.717a47.332 47.332 0 015.161 1.2 24.425 24.425 0 01.782 2.387 15.007 15.007 0 001.231 2.309 15.113 15.113 0 003.552 3.817c1.74 1.312 6.482 3.211 5.312 6.131a3.092 3.092 0 01-.726 1.03c-1.669 1.636-4.642 1.359-6.778 1.318a23.5 23.5 0 01-7.618-1.362 17.29 17.29 0 01-7.881-5.486.488.488 0 00-.353-.182 16.472 16.472 0 01-6.346-2 2.639 2.639 0 01-1.43-3.008z" data-name="Path 57749"/>
        <path fill="#1d1d1b" d="M177.685 227.203a7.393 7.393 0 01-4.518.92c-3.915-.33-7.938-.689-11.454-2.444a22.139 22.139 0 01-4.027-2.669c-1.081-.876-2.181-2.3-3.631-2.507a15.573 15.573 0 01-4.175-1.192 7.1 7.1 0 01-2.969-2.178.187.187 0 00-.318.011c-.222.409-.491 1.134-.815 1.86a.575.575 0 00.107.63 11.779 11.779 0 002.837 2.171 12.549 12.549 0 003.343 1.225q.442.1.889.164c.154.024.308.047.463.064a.886.886 0 00.432.009.852.852 0 00.242-.18 5.069 5.069 0 00.591-.577 4.116 4.116 0 01.094.615l.094.649a24.725 24.725 0 0010.269 5.37 24.009 24.009 0 005.868.669c.775-.007 1.55-.028 2.321-.1a12.489 12.489 0 002.2-.36 7.805 7.805 0 00.929-.329c.253-.108.492-.228.729-.356a.771.771 0 00.344-.528 7.1 7.1 0 00.155-.937z" data-name="Path 57750"/>
      </g>
      <path fill="#b2b2b2" d="M187.478 133.242a3.472 3.472 0 00.384-1.988c0-.013-.007-.027-.012-.04a1.142 1.142 0 00-.236-.393c-.879-.958-3.361-.492-4.406-.2a15.015 15.015 0 00-4.369 2.22 34.373 34.373 0 00-4.58 3.78c-.444.436-1.826 1.468-1.706 2.134a.57.57 0 00.075.166c.048.037.091.079.14.115a2.618 2.618 0 001.258.721 13.247 13.247 0 004.136-.684 20.5 20.5 0 007.46-3.818c.066-.053.131-.107.2-.161a6.62 6.62 0 001.656-1.852z" data-name="Path 57751" style="mix-blend-mode:multiply;isolation:isolate"/>
      <g fill="#deb794" data-name="Group 3337">
        <path d="M189.26 144.682c-.45-.988-.884-1.8-1.09-2.169.361.716.726 1.444 1.09 2.169z" data-name="Path 57752"/>
        <path d="M195.172 145.918a25.051 25.051 0 00-4.752-7.793 18.22 18.22 0 00-2.01-2.04 19.452 19.452 0 00-2-1.515l-.013-.009a11.1 11.1 0 01-2.155-1.9c-.367-.415-.818-1.47-1.261-1.968a15.451 15.451 0 00-4.14 2.147 34.37 34.37 0 00-2.771 2.134 8.482 8.482 0 012.478 3.982 8.143 8.143 0 01.332 2.562c-.105 2.751 1.695 5.359 3.7 7.231.344.321.938 1.283 1.521 1.026.711-.314.231-1.931.075-2.441-.259-.846-.379-1.955-1.12-2.541l.719-1.293c.186-.335.407-1.087.774-.89.28.15.581.844.753 1.114q.386.606.738 1.232a29.806 29.806 0 012.236 5.049 1.154 1.154 0 001.384.925c1.926-.3.715-3.8-.4-6.252-.364-.725-.729-1.453-1.091-2.169.207.364.641 1.181 1.091 2.169.71 1.415 1.421 2.832 2.127 4.229a3.354 3.354 0 00.957 1.3 1.16 1.16 0 001.609-.286c.079-.168-.038-2.016.007-2a1.085 1.085 0 001.4-.844 2.42 2.42 0 00-.188-1.159z" data-name="Path 57753"/>
      </g>
      <path fill="#cc2929" d="M174.036 206.666a39.789 39.789 0 001.067-5.192c.442-3.313.887-6.621 1.163-9.941.235-2.822 1.627-5.338 2.737-7.954 1.251-2.951 2.5-5.9 3.694-8.877q1.945-4.862 3.672-9.806c1-2.862 2.866-6.466 3.077-9.495.375-5.362-4.43-11.211-8.532-14.026-4.346-2.981-9.375-4.278-14.06-6.484q-3.729-1.757-7.586-3.223c-2.277-.862-4.521-2.391-6.991-2.649-3-.313-6.417 1.55-9.235 2.482-1.877.621-21.533 6.456-21.452 7.1a43.187 43.187 0 002.3 10.142c1.007 2.81 2.083 3.647 4.407 5.317 4.656 3.345 9.783 3.408 15.151 4.83 2.912.772 5.788 1.654 8.654 2.581 2.014.651 5.06-.044 6.638 1.434 1.956 1.831-.449 6.219-1.325 8.175a62.369 62.369 0 00-5.054 18.688c-.619 5.675-3.024 10.7-4.51 16.135-1.054 3.849 3.362 7.292 6.693 8.648a39.539 39.539 0 009.688 2.573c2.525.335 5.369.307 7.267-1.391 1.846-1.651 1.206-4.5 1.844-6.639.247-.835.479-1.635.693-2.428z" data-name="Path 57754"/>
      <path fill="#cc2929" d="M162.718 17.977a15.952 15.952 0 011.215 2.4c.307.751.826 1.648.079 2.308a2.2 2.2 0 01-.474.309c-.12.06-.244.113-.367.164a20.6 20.6 0 01-7.138 1.252c-2.3.1-4.611.225-6.9.5a62.466 62.466 0 00-8.375 1.651 4.337 4.337 0 00-1.533.608 1.647 1.647 0 00-.724 1.394c-.125-2.167-.523-4.392-.43-6.561a11.588 11.588 0 011.977-4.857c1.193-1.744 8.508-4.321 10.8-4.506 2.22-.18 4.714-.293 6.786.733a12.708 12.708 0 015.084 4.605z" data-name="Path 57755"/>
      <path fill="#b2b2b2" d="M166.919 134.92l-.064-.029q-3.729-1.757-7.586-3.223c-2.277-.862-4.521-2.391-6.991-2.649-3-.313-6.417 1.55-9.235 2.482-1.877.621-21.533 6.456-21.452 7.1q.127 1.241.328 2.474c.067.412 3.3.335 3.7.327a26.857 26.857 0 005.412-.708 78.509 78.509 0 0010.32-3.432 45.769 45.769 0 0112.259-3.279 34.578 34.578 0 015.814.077c1.917.17 3.581 1.3 5.565 1.246a5.825 5.825 0 001.93-.386z" data-name="Path 57756" style="mix-blend-mode:multiply;isolation:isolate"/>
      <path fill="#cc2929" d="M168.895 81.142a33.541 33.541 0 00-3.331-16.785 30.106 30.106 0 00-5.562-6.946c-.91-.906-2.035-1.674-2.893-2.617-.568-.625.085-2.178.464-2.947a.3.3 0 00-.173-.409 14.2 14.2 0 01-3.735-1.548 15.215 15.215 0 00-3.789-1.866c-1.658-.571-3.151-1.179-4.8-1.862a25.556 25.556 0 00-3.806-1.182 14.467 14.467 0 00-3.046-.767 1.11 1.11 0 00-.7.138 5.01 5.01 0 00-.713.816c-.349.4-.678.856-1.064 1.219-.3.28-.277.278-.116.675a1.2 1.2 0 01-.084.9 5.2 5.2 0 01-.706 1.4 6.631 6.631 0 01-2.385 2.018c-2.135 1.106-4.488 1.854-6.511 3.171-1.945 1.267-3.1 3.617-4.288 5.581-3.347 5.53-2.854 12.012-4.66 18.039a67.08 67.08 0 00-2.463 9.337c-.408 2.744-.632 5.577-1.178 8.27-.465 2.289-1.591 4.559-1.132 6.957a9.521 9.521 0 004.646 6.193 31.725 31.725 0 003.721 1.819 5.618 5.618 0 00.6.23 92.129 92.129 0 01-1.484 13.076c-.667 3.875.055 7.759-1.042 11.678a5.579 5.579 0 00-.293 1.516 1.621 1.621 0 00.629 1.349c.749.5 3.826 0 4.812.033a36.5 36.5 0 0013.723-2.233c4.663-1.577 9.246-3.575 14.131-4.183a17.761 17.761 0 018.146.759c.781.272 6.78 2.711 6.819 2.606 1.955-6.415.68-13.3-.317-19.935-1.702-11.384 2.23-23.116 2.58-34.5z" data-name="Path 57757"/>
      <path fill="#991f1f" d="M163.067 22.085a4.788 4.788 0 011.173-.22c.4-.014 4.063 1.324 4.953 1.629 1.713.586 3.423 1.181 5.139 1.761a.449.449 0 01.3.5c-.279 1.534-2.549 1.914-3.855 2.02-1.986.161-9.669-1.654-11.553-2.1a19.843 19.843 0 01-2.359-.651 1.925 1.925 0 01-1.046-.607c3.813-.837 4.585-1.505 6.878-2.218.122-.039.242-.077.37-.114z" data-name="Path 57758"/>
      <g data-name="Group 3338">
        <path fill="#c6c6c6" d="M154.692 117.205a11.668 11.668 0 001.3-5.038 10.8 10.8 0 00-.527-4.146 11.4 11.4 0 01.027 2.064 11.663 11.663 0 01-1.3 5.039c-.269.425-2.516 3.658-2.522 3.656-2.679-.562-5.391-.941-8.087-1.409-2.117-.367-3.937-1.225-6.019-1.59a52.339 52.339 0 01-6.253-1.394 13.869 13.869 0 01-3.489-1.338 9.054 9.054 0 00-2.929-1.415c-1.3-.3-2.489-.271-3.693-.662-.017.62-.046 1.24-.082 1.859 1.405.634 2.765.537 4.275.885a9.043 9.043 0 012.929 1.415 13.853 13.853 0 003.489 1.337 52.2 52.2 0 006.252 1.395c2.083.365 3.9 1.223 6.02 1.59 2.7.468 5.408.847 8.088 1.409.005.001 2.253-3.232 2.521-3.657z" data-name="Path 57759"/>
      </g>
      <path fill="#c6c6c6" d="M138.633 82.836c-1.6 3.845-1.4 7.765-3.541 11.513a2.14 2.14 0 00.23 2.282 5.8 5.8 0 001.869 1l10.976 4.247c1.315.509 2.86.915 4.227 1.494-.06-.046-.118-.1-.18-.14a21.843 21.843 0 00-4.236-2.021 20.127 20.127 0 01-3.847-2.412c-1.088-.767-2.459-1.16-3.488-2a1.989 1.989 0 01-.739-1.736.924.924 0 01.04-.135c.27-.711 1.04-.431 1.365-.886.565-.79-.868-2.234-1.272-2.853a3.641 3.641 0 01-.507-.988 1.227 1.227 0 01.151-1.065c.714-.929 1.135.226 1.556.606a.753.753 0 001.022.051c-.6-2.179-.349-4.545-.363-6.8a26.057 26.057 0 00-.9-8.047 9.108 9.108 0 00-.517-1.264 24.047 24.047 0 01-1.846 9.154z" data-name="Path 57760" style="mix-blend-mode:multiply;isolation:isolate"/>
      <g data-name="Group 3339" transform="translate(150.502 94.093)">
        <rect width="2.317" height="29.572" fill="#878787" data-name="Rectangle 1259" rx=".718" transform="matrix(.606 .795 -.795 .606 28.342 6.38)"/>
        <rect width="3.476" height="13.63" fill="#2d2d2d" data-name="Rectangle 1260" rx="1.692" transform="rotate(52.676 -13.76619738 20.44524015)"/>
        <path fill="#706f6f" d="M26.585 9.612l-.429-.614a2.553 2.553 0 01.483-3.578l5.906-4.5a2.553 2.553 0 013.578.482l.606.855c.855 1.122-1.112 2.446-2.234 3.3l-4.644 4.077c-1.122.852-2.412 1.097-3.266-.022z" data-name="Path 57761"/>
        <path fill="#9d9d9c" d="M36.59283296 2.0672682a2.6 2.6 0 01-.49043525 3.64410116l-5.82969633 4.44666894a2.6 2.6 0 01-3.64410116-.49043524 2.6 2.6 0 01.49123035-3.64470764l5.82890123-4.44606246a2.6 2.6 0 013.64410116.49043524z" data-name="Rectangle 1261"/>
        <path fill="#575756" d="M33.839 4.875l-.758-1.077a.333.333 0 01.081-.466l1.077-.759c.151-.106.4.081.969.367l.255.791a.334.334 0 01-.081.466l-.808 1.161c-.83-.529-.626-.333-.735-.483z" data-name="Path 57762"/>
        <rect width="1.985" height="1.985" fill="#706f6f" data-name="Rectangle 1262" rx=".649" transform="matrix(.576 .818 -.818 .576 35.176 2.788)"/>
      </g>
      <path fill="#facea7" d="M170.939 110.845a24.069 24.069 0 00-1.736-2.12c-.3-.3-.8-1.022-.007-.981a1.706 1.706 0 001.156-.379 1.706 1.706 0 00.6-1.058.557.557 0 00-.057-.4c-.077-.113-.1-.187-.193-.09a8.965 8.965 0 01-3.993.036c-1.176-.256-2.273-.992-3.488-1.04a4.762 4.762 0 00-1.95.49l-3.8 1.555a7.649 7.649 0 01-2.09.514 11.567 11.567 0 01.113 2.711 11.667 11.667 0 01-1.3 5.039c-.055.085-.191.288-.371.552.214.1.429.195.636.307 1.108.6 2.114 1.378 3.244 1.936a8.062 8.062 0 005.717.736 1.762 1.762 0 00.767-.524c.131-.149.212-.341.387-.444.227-.134.544-.134.788-.251a1.812 1.812 0 00.648-.508 7 7 0 01.487-.668c.285-.284.745-.269 1.1-.447a2.523 2.523 0 00.912-.783c.254-.356.266-.843.55-1.175.408-.476.964-.173 1.5-.311a1.4 1.4 0 001.065-1.042 2.233 2.233 0 00-.685-1.655z" data-name="Path 57763"/>
      <path fill="#c6c6c6" d="M156.672 54.562l.349.073a1.045 1.045 0 01-.121-.42l-.132-.028c-2.8-.591-5.6-1.236-8.4-1.838-1.389-.3-2.773-.629-4.136-1.018s-2.7-.881-4.018-1.4c-.66-.273-1.343-.5-1.99-.769a5.05 5.05 0 01-1.741-1.126 3.966 3.966 0 01-.865-1.505.267.267 0 00-.053.337l.005.015c.019.051.043.109.073.183a.777.777 0 01.037.15c.37 1.909 3.7 3.126 5.223 3.761a19.687 19.687 0 003.455 1.19c1.17.329 2.357.6 3.55.834 1.612.318 3.234.575 4.855.843 1.31.212 2.608.453 3.909.718z" data-name="Path 57764" style="mix-blend-mode:multiply;isolation:isolate"/>
    </g>
  </g>
</svg>
