<?xml version="1.0" encoding="utf-8"?>
<!-- Generator: Adobe Illustrator 25.1.0, SVG Export Plug-In . SVG Version: 6.00 Build 0)  -->
<svg version="1.1" id="Layer_1" xmlns="http://www.w3.org/2000/svg" xmlns:xlink="http://www.w3.org/1999/xlink" x="0px" y="0px"
	 viewBox="0 0 300 265" style="enable-background:new 0 0 300 265;" xml:space="preserve">
<style type="text/css">
	.st0{fill:#37474F;}
	.st1{fill:#455A64;}
	.st2{fill:#263238;}
	.st3{fill:#E0E0E0;}
	.st4{fill:#FAFAFA;}
	.st5{fill:#EBEBEB;}
	.st6{fill:#696969;}
	.st7{opacity:0.2;fill:#FFFFFF;enable-background:new    ;}
	.st8{opacity:0.15;enable-background:new    ;}
	.st9{fill:#FFFFFF;}
	.st10{opacity:0.3;enable-background:new    ;}
	.st11{opacity:0.2;}
	.st12{fill:#B16668;}
	.st13{fill:#BA68C8;}
	.st14{opacity:0.55;fill:#FFFFFF;enable-background:new    ;}
	.st15{opacity:0.65;fill:#FFFFFF;enable-background:new    ;}
	.st16{opacity:0.5;fill:#37474F;enable-background:new    ;}
	.st17{opacity:0.9;}
	.st18{opacity:0.85;}
	.st19{opacity:0.35;enable-background:new    ;}
	.st20{fill:#8DC63F;}
	.st21{opacity:0.2;enable-background:new    ;}
	.st22{fill:#40009D;}
	.st23{fill:#BE2400;}
	.st24{opacity:0.4;fill:#FFFFFF;enable-background:new    ;}
	.st25{fill:#ED1C24;}
	.st26{fill:#C82300;}
	.st27{fill:#CD2F00;}
	.st28{fill:#00AEEF;}
	.st29{opacity:0.25;fill:#FFFFFF;enable-background:new    ;}
	.st30{fill:#FFBDA7;}
	.st31{opacity:0.4;enable-background:new    ;}
	.st32{opacity:0.3;fill:#BA68C8;enable-background:new    ;}
	.st33{fill:#2E3192;}
	.st34{fill:#F0997A;}
	.st35{fill:#F28F8F;}
</style>
<g id="Device">
	<g id="Laptop_4_">
		<g>
			<path id="XMLID_398_" class="st0" d="M6.6,201.9c0,2.2,2,4.9,4.6,6.1l107.5,49.9c2.5,1.2,6.6,1.2,9.1,0l167.7-77.8
				c2.5-1.2,4.6-3.9,4.6-6.1s-2-4.9-4.6-6.1L187.9,118c-2.5-1.2-6.6-1.2-9.1,0L11.3,195.8C8.7,197,6.6,199.7,6.6,201.9z"/>
			<path id="XMLID_397_" class="st1" d="M11.3,200.1l107.5,49.8c2.5,1.2,6.6,1.2,9.1,0l167.7-77.8c2.5-1.2,2.5-3.1,0-4.2L188.1,118
				c-2.5-1.2-6.6-1.2-9.1,0L11.3,195.8C8.7,197,8.7,198.9,11.3,200.1z"/>
			<path id="XMLID_395_" class="st2" d="M123.3,250.8v8c-1.6,0-3.4-0.3-4.6-0.9l-107.5-50c-2.5-1.2-4.6-3.9-4.6-6.1
				c0-2.1,1.7-4.6,4.1-5.9c-2,1.2-1.9,2.9,0.5,4l107.5,49.9C119.9,250.5,121.6,250.8,123.3,250.8z"/>
		</g>
		<g>
			<path id="XMLID_394_" class="st0" d="M2.2,196c-2.4-1.1-2.2-2.9-2.2-5.3V85.1c0-2.3,2-5.2,4.6-6.3L172.3,0.9
				c2.5-1.2,6.2-1.2,8.3,0.2c2.2,1.4,2.7,2.6,2.7,5v105.5c0,2.3-2,5.2-4.6,6.3L11.3,195.8C8.7,197,4.6,197.1,2.2,196z"/>
			<path id="XMLID_393_" class="st1" d="M183.5,6.1c0-2.3-2-3.3-4.6-2.1L11.2,81.7C10,82.3,8.8,83.3,8,84.4l-6.5-3l0,0
				c0.9-1.2,2-2.2,3.2-2.7L172.3,0.9c2.5-1.2,6.2-1.2,8.3,0.2C183,2.5,183.5,3.7,183.5,6.1z"/>
			<path id="XMLID_391_" class="st2" d="M10.7,196.1C8.2,197,4.6,197,2.4,196c-2.4-1.1-2.2-2.9-2.2-5.3V85c0-1.2,0.5-2.5,1.4-3.6
				l6.5,3l0,0c-0.9,1.2-1.4,2.4-1.4,3.6v105.5C6.6,195.9,8.5,196.9,10.7,196.1z"/>
		</g>
		<g>
			<path id="XMLID_390_" d="M13.7,86l161.2-74.9c1.5-0.7,2.7-0.1,2.7,1.3v98.1c0,1.4-1.2,3.1-2.7,3.8L13.7,189.2
				c-1.5,0.7-2.7,0.1-2.7-1.3v-98C10.9,88.5,12.2,86.7,13.7,86z"/>
		</g>
		<path class="st2" d="M13.7,86c-1.5,0.7-2.7,2.4-2.7,3.8v96.4l159.5-74c1.5-0.7,2.7-2.4,2.7-3.8V12L13.7,86z"/>
		<g>
			<path id="XMLID_389_" class="st2" d="M25.4,196.5L179.5,125c1.2-0.6,3.1-0.6,4.4,0l5.6,2.5c1.2,0.6,1.2,1.4,0,2L35.4,201
				c-1.2,0.6-3.1,0.6-4.4,0l-5.6-2.5C24.1,197.9,24.1,197,25.4,196.5z"/>
			<g id="XMLID_278_">
				<path id="XMLID_388_" class="st2" d="M40.5,203.6l154-71.5c1.2-0.6,3-0.6,4-0.2l40,18.6c1,0.5,0.9,1.3-0.4,1.8L84.3,223.7
					c-1.2,0.6-3,0.6-4,0.2l-40.3-18.5C39.2,204.9,39.3,204.1,40.5,203.6z"/>
				<path id="XMLID_279_" class="st1" d="M174,162.1l4.9-2.2c0.2-0.1,0.2-0.2,0-0.3l-4.6-2.1c-0.1-0.1-0.5-0.1-0.7,0l-4.9,2.2
					c-0.2,0.1-0.2,0.2,0,0.3l4.6,2.1C173.4,162.2,173.8,162.2,174,162.1z M166.9,154.4l-4.9,2.2c-0.2,0.1-0.2,0.2,0,0.3l4.6,2.1
					c0.1,0.1,0.5,0.1,0.7,0l4.9-2.2c0.2-0.1,0.2-0.2,0-0.3l-4.6-2.1C167.4,154.3,167.2,154.3,166.9,154.4z M151.4,161.6l-8.1,3.8
					c-0.2,0.1-0.2,0.2,0,0.3l4.6,2.1c0.1,0.1,0.5,0.1,0.7,0l8.1-3.8c0.2-0.1,0.2-0.2,0-0.3l-4.6-2.1
					C151.9,161.5,151.5,161.5,151.4,161.6z M160,157.6l-4.9,2.2c-0.2,0.1-0.2,0.2,0,0.3l4.6,2.1c0.1,0.1,0.5,0.1,0.7,0l4.9-2.2
					c0.2-0.1,0.2-0.2,0-0.3l-4.6-2.1C160.4,157.5,160.2,157.5,160,157.6z M141,166.5l-4.9,2.2c-0.2,0.1-0.2,0.2,0,0.3l4.6,2.1
					c0.1,0.1,0.5,0.1,0.7,0l4.9-2.2c0.2-0.1,0.2-0.2,0-0.3l-4.6-2.1C141.5,166.4,141.3,166.4,141,166.5z M134,169.7l-4.9,2.2
					c-0.2,0.1-0.2,0.2,0,0.3l4.6,2.1c0.1,0.1,0.5,0.1,0.7,0l4.9-2.2c0.2-0.1,0.2-0.2,0-0.3l-4.6-2.1
					C134.5,169.6,134.1,169.6,134,169.7z M152,178.4l4.9-2.2c0.2-0.1,0.2-0.2,0-0.3l-4.6-2.1c-0.1-0.1-0.5-0.1-0.7,0l-4.9,2.2
					c-0.2,0.1-0.2,0.2,0,0.3l4.6,2.1C151.5,178.5,151.7,178.5,152,178.4z M145,181.7l4.9-2.2c0.2-0.1,0.2-0.2,0-0.3l-4.6-2.1
					c-0.1-0.1-0.5-0.1-0.7,0l-4.9,2.2c-0.2,0.1-0.2,0.2,0,0.3l4.6,2.1C144.5,181.9,144.8,181.8,145,181.7z M137.8,185l4.9-2.2
					c0.2-0.1,0.2-0.2,0-0.3l-4.6-2.1c-0.1-0.1-0.5-0.1-0.7,0l-4.9,2.2c-0.2,0.1-0.2,0.2,0,0.3l4.6,2.1
					C137.3,185.1,137.7,185.1,137.8,185z M130.8,188.2l4.9-2.2c0.2-0.1,0.2-0.2,0-0.3l-4.6-2.1c-0.1-0.1-0.5-0.1-0.7,0l-4.9,2.2
					c-0.2,0.1-0.2,0.2,0,0.3l4.6,2.1C130.3,188.4,130.7,188.3,130.8,188.2z M166.9,165.4l4.9-2.2c0.2-0.1,0.2-0.2,0-0.3l-4.6-2.1
					c-0.1-0.1-0.5-0.1-0.7,0l-4.9,2.2c-0.2,0.1-0.2,0.2,0,0.3l4.6,2.1C166.4,165.5,166.8,165.5,166.9,165.4z M159,175.1l10.8-5
					c0.2-0.1,0.2-0.2,0-0.3l-11.2-5.2c-0.1-0.1-0.5-0.1-0.7,0l-5.5,2.6c-0.2,0.1-0.2,0.2,0,0.3l5.8,2.7c0.1,0.1,0.1,0.2,0,0.3
					l-4.5,2.1c-0.2,0.1-0.2,0.2,0,0.3l4.6,2.1C158.5,175.3,158.8,175.2,159,175.1z M126.9,173l-4.9,2.2c-0.2,0.1-0.2,0.2,0,0.3
					l4.6,2.1c0.1,0.1,0.5,0.1,0.7,0l4.9-2.2c0.2-0.1,0.2-0.2,0-0.3l-4.6-2.1C127.4,172.9,127.1,172.9,126.9,173z M119.8,176.2
					l-4.9,2.2c-0.2,0.1-0.2,0.2,0,0.3l4.6,2.1c0.1,0.1,0.5,0.1,0.7,0l4.9-2.2c0.2-0.1,0.2-0.2,0-0.3l-4.6-2.1
					C120.3,176.1,120,176.1,119.8,176.2z M80.7,211.2c0.1,0.1,0.5,0.1,0.7,0l4.9-2.2c0.2-0.1,0.2-0.2,0-0.3l-4.6-2.1
					c-0.1-0.1-0.5-0.1-0.7,0l-4.9,2.2c-0.2,0.1-0.2,0.2,0,0.3L80.7,211.2z M63.4,202.4l-4.9,2.2c-0.2,0.1-0.2,0.2,0,0.3l4.6,2.1
					c0.1,0.1,0.5,0.1,0.7,0l4.9-2.2c0.2-0.1,0.2-0.2,0-0.3l-4.6-2.1C63.9,202.3,63.6,202.3,63.4,202.4z M72.4,208.9
					c0.1,0.1,0.5,0.1,0.7,0l4.9-2.2c0.2-0.1,0.2-0.2,0-0.3l-4.6-2.1c-0.1-0.1-0.5-0.1-0.7,0l-4.9,2.2c-0.2,0.1-0.2,0.2,0,0.3
					L72.4,208.9z M91.8,212.5l4.9-2.2c0.2-0.1,0.2-0.2,0-0.3l-4.6-2.1c-0.1-0.1-0.5-0.1-0.7,0l-4.9,2.2c-0.2,0.1-0.2,0.2,0,0.3
					l4.6,2.1C91.3,212.6,91.7,212.6,91.8,212.5z M84.1,215.8c0.1,0.1,0.5,0.1,0.7,0l4.9-2.2c0.2-0.1,0.2-0.2,0-0.3l-4.6-2.1
					c-0.1-0.1-0.5-0.1-0.7,0l-4.9,2.2c-0.2,0.1-0.2,0.2,0,0.3L84.1,215.8z M70.5,199.2l-4.9,2.2c-0.2,0.1-0.2,0.2,0,0.3l4.6,2.1
					c0.1,0.1,0.5,0.1,0.7,0l4.9-2.2c0.2-0.1,0.2-0.2,0-0.3l-4.6-2.1C71,199.1,70.8,199.1,70.5,199.2z M105.7,182.8l-5,2.2
					c-0.2,0.1-0.2,0.2,0,0.3l4.6,2.1c0.1,0.1,0.5,0.1,0.7,0l4.9-2.2c0.2-0.1,0.2-0.2,0-0.3l-4.6-2.1
					C106.3,182.7,106,182.7,105.7,182.8z M77.5,195.9l-4.9,2.2c-0.2,0.1-0.2,0.2,0,0.3l4.6,2.1c0.1,0.1,0.5,0.1,0.7,0l4.9-2.2
					c0.2-0.1,0.2-0.2,0-0.3l-4.6-2.1C78,195.8,77.7,195.8,77.5,195.9z M112.8,179.5l-4.9,2.2c-0.2,0.1-0.2,0.2,0,0.3l4.6,2.1
					c0.1,0.1,0.5,0.1,0.7,0l4.9-2.2c0.2-0.1,0.2-0.2,0-0.3l-4.6-2.1C113.3,179.4,112.9,179.4,112.8,179.5z M98.6,186.1l-4.9,2.2
					c-0.2,0.1-0.2,0.2,0,0.3l4.6,2.1c0.1,0.1,0.5,0.1,0.7,0l4.9-2.2c0.2-0.1,0.2-0.2,0-0.3l-4.6-2.1C99.1,186,98.9,186,98.6,186.1z
					 M91.7,189.3l-4.9,2.2c-0.2,0.1-0.2,0.2,0,0.3l4.6,2.1c0.1,0.1,0.5,0.1,0.7,0l4.9-2.2c0.2-0.1,0.2-0.2,0-0.3l-4.6-2.1
					C92.2,189.2,91.8,189.2,91.7,189.3z M84.7,192.6l-4.9,2.2c-0.2,0.1-0.2,0.2,0,0.3l4.6,2.1c0.1,0.1,0.5,0.1,0.7,0l4.9-2.2
					c0.2-0.1,0.2-0.2,0-0.3l-4.6-2.1C85.2,192.5,84.8,192.5,84.7,192.6z M116.8,194.7l4.9-2.2c0.2-0.1,0.2-0.2,0-0.3l-4.6-2.1
					c-0.1-0.1-0.5-0.1-0.7,0l-4.9,2.2c-0.2,0.1-0.2,0.2,0,0.3l4.6,2.1C116.2,194.9,116.5,194.8,116.8,194.7z M182.6,147.1l-4.9,2.2
					c-0.2,0.1-0.2,0.2,0,0.3l4.6,2.1c0.1,0.1,0.5,0.1,0.7,0l4.9-2.2c0.2-0.1,0.2-0.2,0-0.3l-4.6-2.1
					C183.1,147,182.7,147,182.6,147.1z M174,151.1l-4.9,2.2c-0.2,0.1-0.2,0.2,0,0.3l4.6,2.1c0.1,0.1,0.5,0.1,0.7,0l4.9-2.2
					c0.2-0.1,0.2-0.2,0-0.3l-4.6-2.1C174.5,151,174.1,151,174,151.1z M189.6,143.9l-4.9,2.2c-0.2,0.1-0.2,0.2,0,0.3l4.6,2.1
					c0.1,0.1,0.5,0.1,0.7,0l4.9-2.2c0.2-0.1,0.2-0.2,0-0.3l-4.6-2.1C190.1,143.8,189.8,143.8,189.6,143.9z M150.6,173l4.9-2.2
					c0.2-0.1,0.2-0.2,0-0.3l-4.6-2.1c-0.1-0.1-0.5-0.1-0.7,0l-4.9,2.2c-0.2,0.1-0.2,0.2,0,0.3l4.6,2.1
					C150.1,173.1,150.4,173.1,150.6,173z M197.3,140.6c-0.1-0.1-0.5-0.1-0.7,0l-4.9,2.2c-0.2,0.1-0.2,0.2,0,0.3l4.6,2.1
					c0.1,0.1,0.5,0.1,0.7,0l4.9-2.2c0.2-0.1,0.2-0.2,0-0.3L197.3,140.6z M123.9,191.5l4.9-2.2c0.2-0.1,0.2-0.2,0-0.3l-4.6-2.1
					c-0.1-0.1-0.5-0.1-0.7,0l-4.9,2.2c-0.2,0.1-0.2,0.2,0,0.3l4.6,2.1C123.4,191.6,123.6,191.6,123.9,191.5z M210.2,151.4l4.9-2.2
					c0.2-0.1,0.2-0.2,0-0.3l-4.6-2.1c-0.1-0.1-0.5-0.1-0.7,0l-4.9,2.2c-0.2,0.1-0.2,0.2,0,0.3l4.6,2.1
					C209.7,151.5,210.1,151.5,210.2,151.4z M196.5,151.7l4.9-2.2c0.2-0.1,0.2-0.2,0-0.3l-4.6-2.1c-0.1-0.1-0.5-0.1-0.7,0l-4.9,2.2
					c-0.2,0.1-0.2,0.2,0,0.3l4.6,2.1C196,151.8,196.4,151.7,196.5,151.7z M204,143.6c-0.1-0.1-0.5-0.1-0.7,0l-4.9,2.2
					c-0.2,0.1-0.2,0.2,0,0.3l4.6,2.1c0.1,0.1,0.5,0.1,0.7,0l4.9-2.2c0.2-0.1,0.2-0.2,0-0.3L204,143.6z M205.3,142.9l11.2,5.2
					c0.1,0.1,0.5,0.1,0.7,0l4.9-2.2c0.2-0.1,0.2-0.2,0-0.3l-11.2-5.2c-0.1-0.1-0.5-0.1-0.7,0l-4.9,2.2
					C205.2,142.7,205.2,142.9,205.3,142.9z M189.1,150.2l-4.9,2.2c-0.2,0.1-0.2,0.2,0,0.3l4.6,2.1c0.1,0.1,0.5,0.1,0.7,0l4.9-2.2
					c0.2-0.1,0.2-0.2,0-0.3l-4.6-2.1C189.7,150.1,189.3,150.2,189.1,150.2z M136.1,174.8l-4.9,2.2c-0.2,0.1-0.2,0.2,0,0.3l4.6,2.1
					c0.1,0.1,0.5,0.1,0.7,0l4.9-2.2c0.2-0.1,0.2-0.2,0-0.3l-4.6-2.1C136.6,174.7,136.2,174.7,136.1,174.8z M202.5,154.7
					c0.1,0.1,0.5,0.1,0.7,0l4.9-2.2c0.2-0.1,0.2-0.2,0-0.3l-4.6-2.1c-0.1-0.1-0.5-0.1-0.7,0l-4.9,2.2c-0.2,0.1-0.2,0.2,0,0.3
					L202.5,154.7z M143.2,171.6l-4.9,2.2c-0.2,0.1-0.2,0.2,0,0.3l4.6,2.1c0.1,0.1,0.5,0.1,0.7,0l4.9-2.2c0.2-0.1,0.2-0.2,0-0.3
					l-4.6-2.1C143.7,171.5,143.4,171.5,143.2,171.6z M87.9,207.9c0.1,0.1,0.5,0.1,0.7,0l4.9-2.2c0.2-0.1,0.2-0.2,0-0.3l-4.6-2.1
					c-0.1-0.1-0.5-0.1-0.7,0l-4.9,2.2c-0.2,0.1-0.2,0.2,0,0.3L87.9,207.9z M79.6,201l-4.9,2.2c-0.2,0.1-0.2,0.2,0,0.3l4.6,2.1
					c0.1,0.1,0.5,0.1,0.7,0l4.9-2.2c0.2-0.1,0.2-0.2,0-0.3l-4.6-2.1C80.1,200.9,79.9,200.9,79.6,201z M95.6,204.6l4.9-2.2
					c0.2-0.1,0.2-0.2,0-0.3l-4.6-2.1c-0.1-0.1-0.5-0.1-0.7,0l-4.9,2.2c-0.2,0.1-0.2,0.2,0,0.3l4.6,2.1
					C95.2,204.7,95.4,204.7,95.6,204.6z M102.7,201.3l4.9-2.2c0.2-0.1,0.2-0.2,0-0.3l-4.6-2.1c-0.1-0.1-0.5-0.1-0.7,0l-4.9,2.2
					c-0.2,0.1-0.2,0.2,0,0.3l4.6,2.1C102.1,201.5,102.5,201.4,102.7,201.3z M109.7,198.1l4.9-2.2c0.2-0.1,0.2-0.2,0-0.3l-4.6-2.1
					c-0.1-0.1-0.5-0.1-0.7,0l-4.9,2.2c-0.2,0.1-0.2,0.2,0,0.3l4.6,2.1C109.2,198.2,109.6,198.2,109.7,198.1z M86.8,197.8L82,200
					c-0.2,0.1-0.2,0.2,0,0.3l4.6,2.1c0.1,0.1,0.5,0.1,0.7,0l4.9-2.2c0.2-0.1,0.2-0.2,0-0.3l-4.6-2.1
					C87.3,197.7,86.9,197.7,86.8,197.8z M93.8,194.4l-4.9,2.2c-0.2,0.1-0.2,0.2,0,0.3l4.6,2.1c0.1,0.1,0.5,0.1,0.7,0l4.9-2.2
					c0.2-0.1,0.2-0.2,0-0.3l-4.6-2.1C94.3,194.3,94,194.3,93.8,194.4z M122,181.4l-4.9,2.2c-0.2,0.1-0.2,0.2,0,0.3l4.6,2.1
					c0.1,0.1,0.5,0.1,0.7,0l4.9-2.2c0.2-0.1,0.2-0.2,0-0.3l-4.6-2.1C122.5,181.3,122.3,181.3,122,181.4z M114.9,184.7l-4.9,2.2
					c-0.2,0.1-0.2,0.2,0,0.3l4.6,2.1c0.1,0.1,0.5,0.1,0.7,0l4.9-2.2c0.2-0.1,0.2-0.2,0-0.3l-4.6-2.1
					C115.4,184.6,115.1,184.6,114.9,184.7z M129,178.1l-4.9,2.2c-0.2,0.1-0.2,0.2,0,0.3l4.6,2.1c0.1,0.1,0.5,0.1,0.7,0l4.9-2.2
					c0.2-0.1,0.2-0.2,0-0.3l-4.6-2.1C129.6,178,129.2,178,129,178.1z M100.7,191.2l-4.9,2.2c-0.2,0.1-0.2,0.2,0,0.3l4.6,2.1
					c0.1,0.1,0.5,0.1,0.7,0l4.9-2.2c0.2-0.1,0.2-0.2,0-0.3l-4.6-2.1C101.2,191.1,101,191.1,100.7,191.2z M108,187.9l-4.9,2.2
					c-0.2,0.1-0.2,0.2,0,0.3l4.6,2.1c0.1,0.1,0.5,0.1,0.7,0l4.9-2.2c0.2-0.1,0.2-0.2,0-0.3l-4.6-2.1
					C108.5,187.8,108.1,187.8,108,187.9z M98.9,209.2l4.9-2.2c0.2-0.1,0.2-0.2,0-0.3l-4.6-2.1c-0.1-0.1-0.5-0.1-0.7,0l-4.9,2.2
					c-0.2,0.1-0.2,0.2,0,0.3l4.6,2.1C98.4,209.3,98.6,209.3,98.9,209.2z M61.7,207.8l-4.6-2.1c-0.1-0.1-0.5-0.1-0.7,0l-4.9,2.2
					c-0.2,0.1-0.2,0.2,0,0.3l4.6,2.1c0.1,0.1,0.5,0.1,0.7,0l4.9-2.2C61.8,208,61.8,207.9,61.7,207.8z M70.9,209.6l-4.6-2.1
					c-0.1-0.1-0.5-0.1-0.7,0l-7.3,3.4c-0.2,0.1-0.2,0.2,0,0.3l4.6,2.1c0.1,0.1,0.5,0.1,0.7,0l7.3-3.4
					C71,209.8,71.1,209.7,70.9,209.6z M54.9,203.6l-4.6-2.1c-0.1-0.1-0.5-0.1-0.7,0l-5.8,2.7c-0.2,0.1-0.2,0.2,0,0.3l4.6,2.1
					c0.1,0.1,0.5,0.1,0.7,0l5.8-2.7C55,203.8,55,203.7,54.9,203.6z M59.3,201.5c0.1,0.1,0.5,0.1,0.7,0l4.9-2.2
					c0.2-0.1,0.2-0.2,0-0.3l-4.6-2.1c-0.1-0.1-0.5-0.1-0.7,0l-4.9,2.2c-0.2,0.1-0.2,0.2,0,0.3L59.3,201.5z M79.4,211.9l-4.6-2.1
					c-0.1-0.1-0.5-0.1-0.7,0l-9.2,4.3c-0.2,0.1-0.2,0.2,0,0.3l4.6,2.1c0.1,0.1,0.5,0.1,0.7,0l9.2-4.3
					C79.5,212.1,79.5,212,79.4,211.9z M82.6,216.5l-4.6-2.1c-0.1-0.1-0.5-0.1-0.7,0l-5.8,2.7c-0.2,0.1-0.2,0.2,0,0.3l4.6,2.1
					c0.1,0.1,0.5,0.1,0.7,0l5.8-2.7C82.7,216.7,82.7,216.6,82.6,216.5z M111.8,177.1c0.1,0.1,0.5,0.1,0.7,0l4.9-2.2
					c0.2-0.1,0.2-0.2,0-0.3l-4.6-2.1c-0.1-0.1-0.5-0.1-0.7,0l-4.9,2.2c-0.2,0.1-0.2,0.2,0,0.3L111.8,177.1z M97.6,183.7
					c0.1,0.1,0.5,0.1,0.7,0l4.9-2.2c0.2-0.1,0.2-0.2,0-0.3l-4.6-2.1c-0.1-0.1-0.5-0.1-0.7,0l-4.9,2.2c-0.2,0.1-0.2,0.2,0,0.3
					L97.6,183.7z M66.4,198.2c0.1,0.1,0.5,0.1,0.7,0L72,196c0.2-0.1,0.2-0.2,0-0.3l-4.6-2.1c-0.1-0.1-0.5-0.1-0.7,0l-4.9,2.2
					c-0.2,0.1-0.2,0.2,0,0.3L66.4,198.2z M104.7,180.5c0.1,0.1,0.5,0.1,0.7,0l4.9-2.2c0.2-0.1,0.2-0.2,0-0.3l-4.6-2.1
					c-0.1-0.1-0.5-0.1-0.7,0l-4.9,2.2c-0.2,0.1-0.2,0.2,0,0.3L104.7,180.5z M90.7,187c0.1,0.1,0.5,0.1,0.7,0l4.9-2.2
					c0.2-0.1,0.2-0.2,0-0.3l-4.6-2.1c-0.1-0.1-0.5-0.1-0.7,0l-4.9,2.2c-0.2,0.1-0.2,0.2,0,0.3L90.7,187z M86.1,216.7
					c-0.1-0.1-0.5-0.1-0.7,0l-7.3,3.4c-0.2,0.1-0.2,0.2,0,0.3l4.6,2.1c0.1,0.1,0.5,0.1,0.7,0l7.3-3.4c0.2-0.1,0.2-0.2,0-0.3
					L86.1,216.7z M80.5,191.6c0.1,0.1,0.5,0.1,0.7,0l4.9-2.2c0.2-0.1,0.2-0.2,0-0.3l-4.6-2.1c-0.1-0.1-0.5-0.1-0.7,0l-4.9,2.2
					c-0.2,0.1-0.2,0.2,0,0.3L80.5,191.6z M73.5,194.9c0.1,0.1,0.5,0.1,0.7,0l4.9-2.2c0.2-0.1,0.2-0.2,0-0.3l-4.6-2.1
					c-0.1-0.1-0.5-0.1-0.7,0l-4.9,2.2c-0.2,0.1-0.2,0.2,0,0.3L73.5,194.9z M216.5,156.1c-0.1-0.1-0.5-0.1-0.7,0l-11.9,5.5
					c-0.2,0.1-0.2,0.2,0,0.3l4.6,2.1c0.1,0.1,0.5,0.1,0.7,0l11.9-5.5c0.2-0.1,0.2-0.2,0-0.3L216.5,156.1z M201.1,163.3
					c-0.1-0.1-0.5-0.1-0.7,0l-4.9,2.2c-0.2,0.1-0.2,0.2,0,0.3l4.6,2.1c0.1,0.1,0.5,0.1,0.7,0l4.9-2.2c0.2-0.1,0.2-0.2,0-0.3
					L201.1,163.3z M106,205.9l4.9-2.2c0.2-0.1,0.2-0.2,0-0.3l-4.6-2.1c-0.1-0.1-0.5-0.1-0.7,0l-4.9,2.2c-0.2,0.1-0.2,0.2,0,0.3
					l4.6,2.1C105.5,206,105.7,206,106,205.9z M186.9,169.9c-0.1-0.1-0.5-0.1-0.7,0l-4.9,2.2c-0.2,0.1-0.2,0.2,0,0.3l4.6,2.1
					c0.1,0.1,0.5,0.1,0.7,0l4.9-2.2c0.2-0.1,0.2-0.2,0-0.3L186.9,169.9z M223.6,152.8c-0.1-0.1-0.5-0.1-0.7,0L218,155
					c-0.2,0.1-0.2,0.2,0,0.3l4.6,2.1c0.1,0.1,0.5,0.1,0.7,0l4.9-2.2c0.2-0.1,0.2-0.2,0-0.3L223.6,152.8z M235.3,151.7l-11.2-5.2
					c-0.1-0.1-0.5-0.1-0.7,0l-4.9,2.2c-0.2,0.1-0.2,0.2,0,0.3l11.2,5.2c0.1,0.1,0.5,0.1,0.7,0l4.9-2.2
					C235.4,152,235.4,151.8,235.3,151.7z M160.7,182.1c-0.1-0.1-0.5-0.1-0.7,0l-5.8,2.7c-0.2,0.1-0.2,0.2,0,0.3l4.6,2.1
					c0.1,0.1,0.5,0.1,0.7,0l5.8-2.7c0.2-0.1,0.2-0.2,0-0.3L160.7,182.1z M178.4,173.8c-0.1-0.1-0.5-0.1-0.7,0l-7.3,3.4
					c-0.2,0.1-0.2,0.2,0,0.3l4.6,2.1c0.1,0.1,0.5,0.1,0.7,0l7.3-3.4c0.2-0.1,0.2-0.2,0-0.3L178.4,173.8z M144.3,189.7
					c-0.1-0.1-0.5-0.1-0.7,0l-39.7,18.4c-0.2,0.1-0.2,0.2,0,0.3l4.6,2.1c0.1,0.1,0.5,0.1,0.7,0l39.7-18.4c0.2-0.1,0.2-0.2,0-0.3
					L144.3,189.7z M102.5,209.1c-0.1-0.1-0.5-0.1-0.7,0l-5.8,2.7c-0.2,0.1-0.2,0.2,0,0.3l4.6,2.1c0.1,0.1,0.5,0.1,0.7,0l5.8-2.7
					c0.2-0.1,0.2-0.2,0-0.3L102.5,209.1z M152.5,185.9c-0.1-0.1-0.5-0.1-0.7,0l-5.8,2.7c-0.2,0.1-0.2,0.2,0,0.3l4.6,2.1
					c0.1,0.1,0.5,0.1,0.7,0l5.8-2.7c0.2-0.1,0.2-0.2,0-0.3L152.5,185.9z M94.2,212.9c-0.1-0.1-0.5-0.1-0.7,0l-5.8,2.7
					c-0.2,0.1-0.2,0.2,0,0.3l4.6,2.1c0.1,0.1,0.5,0.1,0.7,0l5.8-2.7c0.2-0.1,0.2-0.2,0-0.3L94.2,212.9z M168.8,178.3
					c-0.1-0.1-0.5-0.1-0.7,0l-5.8,2.7c-0.2,0.1-0.2,0.2,0,0.3l4.6,2.1c0.1,0.1,0.5,0.1,0.7,0l5.8-2.7c0.2-0.1,0.2-0.2,0-0.3
					L168.8,178.3z M193.9,166.6c-0.1-0.1-0.5-0.1-0.7,0l-4.9,2.2c-0.2,0.1-0.2,0.2,0,0.3l4.6,2.1c0.1,0.1,0.5,0.1,0.7,0l4.9-2.2
					c0.2-0.1,0.2-0.2,0-0.3L193.9,166.6z M209.8,157.7l4.9-2.2c0.2-0.1,0.2-0.2,0-0.3l-4.6-2.1c-0.1-0.1-0.5-0.1-0.7,0l-4.9,2.2
					c-0.2,0.1-0.2,0.2,0,0.3l4.6,2.1C209.2,157.8,209.6,157.8,209.8,157.7z M181.1,158.8l4.9-2.2c0.2-0.1,0.2-0.2,0-0.3l-4.6-2.1
					c-0.1-0.1-0.5-0.1-0.7,0l-4.9,2.2c-0.2,0.1-0.2,0.2,0,0.3l4.6,2.1C180.6,158.9,180.8,158.9,181.1,158.8z M162.3,179.7l14.2-6.5
					c0.2-0.1,0.2-0.2,0-0.3l-4.6-2.1c-0.1-0.1-0.5-0.1-0.7,0l-14.2,6.5c-0.2,0.1-0.2,0.2,0,0.3l4.6,2.1
					C161.8,179.8,162.2,179.8,162.3,179.7z M202.1,161c0.1,0.1,0.5,0.1,0.7,0l4.9-2.2c0.2-0.1,0.2-0.2,0-0.3l-4.6-2.1
					c-0.1-0.1-0.5-0.1-0.7,0l-4.9,2.2c-0.2,0.1-0.2,0.2,0,0.3L202.1,161z M196.1,157.9l4.9-2.2c0.2-0.1,0.2-0.2,0-0.3l-4.6-2.1
					c-0.1-0.1-0.5-0.1-0.7,0l-4.9,2.2c-0.2,0.1-0.2,0.2,0,0.3l4.6,2.1C195.5,158,195.9,158,196.1,157.9z M155.2,183.1l4.9-2.2
					c0.2-0.1,0.2-0.2,0-0.3l-4.6-2.1c-0.1-0.1-0.5-0.1-0.7,0l-4.9,2.2c-0.2,0.1-0.2,0.2,0,0.3l4.6,2.1
					C154.7,183.2,155,183.2,155.2,183.1z M186.4,168.3c0.1,0.1,0.5,0.1,0.7,0l4.9-2.2c0.2-0.1,0.2-0.2,0-0.3l-4.6-2.1
					c-0.1-0.1-0.5-0.1-0.7,0l-4.9,2.2c-0.2,0.1-0.2,0.2,0,0.3L186.4,168.3z M120,199.4l4.9-2.2c0.2-0.1,0.2-0.2,0-0.3l-4.6-2.1
					c-0.1-0.1-0.5-0.1-0.7,0l-4.9,2.2c-0.2,0.1-0.2,0.2,0,0.3l4.6,2.1C119.4,199.5,119.8,199.5,120,199.4z M127.1,196.2l4.9-2.2
					c0.2-0.1,0.2-0.2,0-0.3l-4.6-2.1c-0.1-0.1-0.5-0.1-0.7,0l-4.9,2.2c-0.2,0.1-0.2,0.2,0,0.3l4.6,2.1
					C126.6,196.3,126.9,196.3,127.1,196.2z M112.9,202.7l4.9-2.2c0.2-0.1,0.2-0.2,0-0.3l-4.6-2.1c-0.1-0.1-0.5-0.1-0.7,0l-4.9,2.2
					c-0.2,0.1-0.2,0.2,0,0.3l4.6,2.1C112.4,202.8,112.8,202.8,112.9,202.7z M141.2,189.6l4.9-2.2c0.2-0.1,0.2-0.2,0-0.3l-4.6-2.1
					c-0.1-0.1-0.5-0.1-0.7,0l-4.9,2.2c-0.2,0.1-0.2,0.2,0,0.3l4.6,2.1C140.7,189.7,141,189.7,141.2,189.6z M134.1,192.8l4.9-2.2
					c0.2-0.1,0.2-0.2,0-0.3l-4.6-2.1c-0.1-0.1-0.5-0.1-0.7,0l-4.9,2.2c-0.2,0.1-0.2,0.2,0,0.3l4.6,2.1
					C133.6,192.9,133.8,192.9,134.1,192.8z M148.3,186.3l4.9-2.2c0.2-0.1,0.2-0.2,0-0.3l-4.6-2.1c-0.1-0.1-0.5-0.1-0.7,0l-4.9,2.2
					c-0.2,0.1-0.2,0.2,0,0.3l4.6,2.1C147.8,186.4,148,186.4,148.3,186.3z M186.7,140.8c0.1,0.1,0.5,0.1,0.7,0l4.9-2.2
					c0.2-0.1,0.2-0.2,0-0.3l-1.2-0.6c-0.1-0.1-0.5-0.1-0.7,0l-4.9,2.2c-0.2,0.1-0.2,0.2,0,0.3L186.7,140.8z M151.6,158.6
					c0.1,0.1,0.5,0.1,0.7,0l4.9-2.2c0.2-0.1,0.2-0.2,0-0.3l-4.6-2.1c-0.1-0.1-0.5-0.1-0.7,0l-4.9,2.2c-0.2,0.1-0.2,0.2,0,0.3
					L151.6,158.6z M165.8,152.1c0.1,0.1,0.5,0.1,0.7,0l4.9-2.2c0.2-0.1,0.2-0.2,0-0.3l-4.6-2.1c-0.1-0.1-0.5-0.1-0.7,0l-4.9,2.2
					c-0.2,0.1-0.2,0.2,0,0.3L165.8,152.1z M143,162.6c0.1,0.1,0.5,0.1,0.7,0l4.9-2.2c0.2-0.1,0.2-0.2,0-0.3L144,158
					c-0.1-0.1-0.5-0.1-0.7,0l-4.9,2.2c-0.2,0.1-0.2,0.2,0,0.3L143,162.6z M158.6,155.4c0.1,0.1,0.5,0.1,0.7,0l4.9-2.2
					c0.2-0.1,0.2-0.2,0-0.3l-4.6-2.1c-0.1-0.1-0.5-0.1-0.7,0L154,153c-0.2,0.1-0.2,0.2,0,0.3L158.6,155.4z M129,169.2
					c0.1,0.1,0.5,0.1,0.7,0l4.9-2.2c0.2-0.1,0.2-0.2,0-0.3l-4.6-2.1c-0.1-0.1-0.5-0.1-0.7,0l-4.9,2.2c-0.2,0.1-0.2,0.2,0,0.3
					L129,169.2z M135.9,165.9c0.1,0.1,0.5,0.1,0.7,0l4.9-2.2c0.2-0.1,0.2-0.2,0-0.3l-4.6-2.1c-0.1-0.1-0.5-0.1-0.7,0l-4.9,2.2
					c-0.2,0.1-0.2,0.2,0,0.3L135.9,165.9z M172.5,147.3c0.1,0.1,0.5,0.1,0.7,0l4.9-2.2c0.2-0.1,0.2-0.2,0-0.3l-1.2-0.6
					c-0.1-0.1-0.5-0.1-0.7,0l-4.9,2.2c-0.2,0.1-0.2,0.2,0,0.3L172.5,147.3z M193.7,137.6c0.1,0.1,0.5,0.1,0.7,0l4.9-2.2
					c0.2-0.1,0.2-0.2,0-0.3l-1.2-0.6c-0.1-0.1-0.5-0.1-0.7,0l-4.9,2.2c-0.2,0.1-0.2,0.2,0,0.3L193.7,137.6z M203.5,142
					c0.1,0.1,0.5,0.1,0.7,0l4.9-2.2c0.2-0.1,0.2-0.2,0-0.3l-4.6-2.1c-0.1-0.1-0.5-0.1-0.7,0l-4.9,2.2c-0.2,0.1-0.2,0.2,0,0.3
					L203.5,142z M216.8,154.5l4.9-2.2c0.2-0.1,0.2-0.2,0-0.3l-4.6-2.1c-0.1-0.1-0.5-0.1-0.7,0l-4.9,2.2c-0.2,0.1-0.2,0.2,0,0.3
					l4.6,2.1C216.3,154.6,216.5,154.6,216.8,154.5z M179.7,144.1c0.1,0.1,0.5,0.1,0.7,0l4.9-2.2c0.2-0.1,0.2-0.2,0-0.3l-1.2-0.6
					c-0.1-0.1-0.5-0.1-0.7,0l-4.9,2.2c-0.2,0.1-0.2,0.2,0,0.3L179.7,144.1z M121.9,172.4c0.1,0.1,0.5,0.1,0.7,0l4.9-2.2
					c0.2-0.1,0.2-0.2,0-0.3l-4.6-2.1c-0.1-0.1-0.5-0.1-0.7,0l-4.9,2.2c-0.2,0.1-0.2,0.2,0,0.3L121.9,172.4z"/>
			</g>
			<g>
				<polygon id="XMLID_277_" class="st2" points="142.2,204.7 143.2,205.2 171,218.1 220.5,195.1 221.5,194.6 192.7,181.3 				"/>
				<polygon class="st0" points="219.9,195.4 192.7,182.8 143.8,205.5 171,218.1 				"/>
			</g>
		</g>
	</g>
</g>
<g id="Window">
	<g id="Window_2_">
		<g id="Window_3_">
			<path id="XMLID_425_" class="st3" d="M28.7,199.1c0,0-0.5,0.3-1.4,0.3c-0.7,0.1-1.5,0-2-0.3c-0.9-0.4-1.6-1.5-1.6-2.4v-89.2
				l3.4,1.5v89.2c0,0.6,0.4,1,1,1C28.1,199.3,28.4,199.3,28.7,199.1z"/>
			<g id="XMLID_422_">
				<g id="XMLID_423_">
					<path class="st4" d="M28,198.8c-0.4,0-0.4-0.3-0.4-0.5v-97l4.6-2.1c0.6-0.3,1.1-1.4,2-4c0.4-1.2,1.1-3.1,1.5-3.4l42.7-20
						c0.2,0.2,0.9,1.1,1.4,1.7c1,1.4,1.6,2.2,2.4,2.2c0.1,0,0.4,0,0.5-0.1l108.6-50.4v96.4c0,0.7-0.6,1.7-1.5,2l-161.2,75
						C28.2,198.8,28.1,198.8,28,198.8z"/>
					<path class="st5" d="M190.4,26.2v6.3v89.2c0,0.6-0.5,1.3-1.1,1.6L28.2,198.2v-96.6l4.2-2c0.9-0.4,1.2-1.4,2.2-4.3
						c0.4-1.1,1-2.7,1.2-3.2l42-19.5c0.2,0.4,0.7,0.9,1,1.3c1,1.4,1.7,2.5,3,2.5c0.2,0,0.5-0.1,0.7-0.2L190.4,26.2 M191.7,24.5
						L82.1,75.4H82c-1,0-2.7-4-3.7-4h-0.1l-42.9,20c-1,0.5-2.4,6.9-3.4,7.3L27,101v97.3c0,0.6,0.4,1,1,1c0.2,0,0.5-0.1,0.7-0.2
						l161.2-74.9c1-0.5,1.7-1.6,1.7-2.5V32.6V24.5L191.7,24.5z"/>
				</g>
			</g>
			<g>
				<path id="XMLID_421_" class="st6" d="M25.2,105.4c-0.9-0.4-1.6-1.5-1.6-2.4v-7.9c0-0.9,0.7-2,1.7-2.5l161.2-74.9
					c1-0.5,2.5-0.5,3.5-0.1c0.9,0.4,1.6,1.5,1.6,2.4v7.9c0,0.9-0.7,2-1.7,2.5l-161.3,75C27.7,105.8,26.2,105.9,25.2,105.4z"/>
				<path id="XMLID_420_" class="st7" d="M191.7,19.9c-0.1-0.7-0.9-1-1.7-0.6L28.7,94.2c-0.5,0.2-0.9,0.6-1.2,1.1l-3.4-1.5
					c0.4-0.4,0.7-0.8,1.2-1.1l161.2-74.9c1-0.5,2.5-0.5,3.5-0.1C190.9,18.1,191.5,19.1,191.7,19.9z"/>
				<path id="XMLID_419_" class="st8" d="M27.5,95.3c-0.4,0.4-0.5,0.9-0.5,1.4v12.4l-3.4-1.5V95.2c0-0.1,0-0.1,0-0.2s0-0.2,0.1-0.4
					c0.1-0.3,0.2-0.6,0.5-0.9L27.5,95.3z"/>
				<path id="XMLID_418_" class="st6" d="M191.7,20.2v4.3L82.1,75.4c-1,0.4-49.4,22.9-50.4,23.4l-4.9,2.3v-4.3c0-0.9,0.7-2,1.7-2.5
					l161.2-74.9C190.9,18.9,191.7,19.3,191.7,20.2z"/>
				<g id="XMLID_414_">
					<path id="XMLID_417_" class="st9" d="M187.3,22.6c0.7-0.3,1.2-0.1,1.2,0.6c0,0.6-0.6,1.4-1.2,1.8c-0.7,0.3-1.2,0.1-1.2-0.6
						C185.9,23.7,186.6,22.9,187.3,22.6z"/>
					<path id="XMLID_416_" class="st9" d="M182.7,24.7c0.7-0.3,1.2-0.1,1.2,0.6c0,0.6-0.6,1.4-1.2,1.8c-0.7,0.3-1.2,0.1-1.2-0.6
						S182.1,25,182.7,24.7z"/>
					<path id="XMLID_415_" class="st9" d="M178.1,26.9c0.7-0.3,1.2-0.1,1.2,0.6c0,0.6-0.6,1.4-1.2,1.8c-0.7,0.3-1.2,0.1-1.2-0.6
						S177.4,27.2,178.1,26.9z"/>
				</g>
			</g>
			<g>
				<g>
					<path id="XMLID_413_" class="st3" d="M30.6,99.3c0.6-0.3,0.7-0.7,1.1-1.5l0.6-1.8c0.2-0.7,0.5-1.2,1.1-1.5l26.4-12.3
						c0.6-0.3,1.1-0.3,1.5,0.3l0.7,1.2c0.4,0.5,0.5,0.8,1.1,0.5l20.4-9.5l108-50.1v8.1L26.9,109.2v-8.1L30.6,99.3"/>
					<polygon id="XMLID_412_" class="st3" points="27,101 27,109.1 23.5,107.6 23.5,99.4 					"/>
					<polygon id="XMLID_411_" class="st8" points="27,101 27,109.1 23.5,107.6 23.5,99.4 					"/>
				</g>
				<g>
					<path id="XMLID_410_" class="st10" d="M33.2,101.7l-2,0.9l0.7-1.2c0.1-0.1,0.1-0.2,0-0.3c0-0.1-0.1,0-0.2,0.1l-1.1,1.7l0,0
						c0,0,0,0,0,0.1l0,0v0.1v0.1l0,0l0,0l0,0l1.1,0.7h0.1l0.1-0.1c0-0.1,0-0.2,0-0.3l-0.7-0.5l2-0.9c0.1,0,0.1-0.2,0.1-0.3
						C33.3,101.7,33.3,101.6,33.2,101.7z"/>
					<path id="XMLID_409_" class="st10" d="M35,100.9l2-0.9l-0.7-0.5c-0.1,0-0.1-0.2,0-0.3c0-0.1,0.1-0.2,0.2-0.1l1.1,0.7l0,0l0,0
						l0,0c0,0,0,0,0,0.1v0.1l0,0c0,0,0,0,0,0.1l0,0l-1.1,1.7l-0.1,0.1h-0.1c0-0.1,0-0.2,0-0.3l0.7-1.2l-2,0.9c-0.1,0-0.1,0-0.1-0.1
						C34.7,101,34.8,100.9,35,100.9z"/>
					<path id="XMLID_408_" class="st10" d="M41.7,96.1c0-0.1-0.1-0.1-0.1,0l-0.2,0.6c-0.5,0-1,0.3-1.5,1c-0.5,0.9-0.5,1.9,0,2.3
						c0.2,0.2,0.6,0.2,0.9,0c0.4-0.2,0.6-0.5,0.9-0.9c0.1-0.1,0.1-0.2,0-0.3c-0.1,0-0.1,0-0.2,0.1c-0.4,0.6-1,0.9-1.4,0.6
						c-0.4-0.3-0.4-1.1,0-1.7c0.2-0.5,0.6-0.7,1-0.7l-0.2,0.4c0,0.1,0,0.2,0.1,0.2l0.9-0.4c0,0,0.1-0.1,0.1-0.2L41.7,96.1z"/>
					<path id="XMLID_407_" class="st10" d="M60.1,84.3l0.6-1.1c0.1-0.1,0.1-0.3,0-0.3c-0.1-0.1-0.2,0-0.2,0.1l-0.6,1.1l-0.6-0.5
						c-0.1-0.1-0.2,0-0.2,0.1c-0.1,0.1-0.1,0.3,0,0.3l0.6,0.5L59,85.6c-0.1,0.1-0.1,0.3,0,0.3h0.1l0.1-0.1l0.6-1.1l0.6,0.5h0.1
						l0.1-0.1c0.1-0.1,0.1-0.3,0-0.3L60.1,84.3z"/>
					<path id="XMLID_406_" class="st4" d="M45.3,97.4v-1.9c0-0.6,0.5-1.3,1.1-1.6l136.7-63.5c0.6-0.3,1.1-0.1,1.1,0.5v1.9
						c0,0.6-0.5,1.3-1.1,1.6L46.4,98C45.8,98.3,45.3,98,45.3,97.4z"/>
					<g id="XMLID_405_">
						<path class="st3" d="M181.6,34.6C181.5,34.6,181.5,34.6,181.6,34.6c-0.2-0.1-0.2-0.1-0.2-0.3l0.1-0.8l-0.5-0.3
							c-0.1,0-0.1-0.1-0.1-0.2c0-0.1,0.1-0.3,0.2-0.3l0.7-0.4l0,0l0.2-0.8c0-0.1,0.2-0.3,0.4-0.3s0.2,0,0.2,0.1l0.2,0.4l0.6-0.2
							c0.1,0,0.2,0,0.2,0.1c0.1,0.1,0.1,0.2,0,0.4l-0.5,0.8l0,0l0.1,0.7c0,0.1,0,0.3-0.1,0.3c-0.1,0.1-0.1,0.1-0.2,0.1l-0.6-0.1
							l-0.6,0.7C181.7,34.6,181.6,34.6,181.6,34.6z M181.2,33l0.5,0.3c0.1,0.1,0.1,0.2,0.1,0.3l-0.1,0.5l0.4-0.4
							c0.1-0.1,0.2-0.1,0.2-0.1l0.6,0.1c0,0,0,0,0-0.1l-0.1-0.7c0-0.1,0-0.2,0-0.2l0.5-0.7l-0.5,0.1c-0.1,0-0.2,0-0.4-0.1l-0.2-0.3
							l-0.2,0.7c0,0.1-0.1,0.2-0.1,0.2L181.2,33L181.2,33z"/>
					</g>
					<g id="XMLID_396_" class="st11">
						<g id="XMLID_403_">
							<path id="XMLID_404_" d="M185.7,30.1c-0.1,0-0.2-0.1-0.4-0.2c-0.1-0.2,0-0.4,0.1-0.4l3.4-1.5c0.2-0.1,0.5,0,0.5,0.1
								c0.1,0.2,0,0.4-0.1,0.4l-3.4,1.5C185.8,30.1,185.8,30.1,185.7,30.1z"/>
						</g>
						<g id="XMLID_401_">
							<path id="XMLID_402_" d="M185.7,31.7c-0.1,0-0.2-0.1-0.4-0.2c-0.1-0.2,0-0.4,0.1-0.4l3.4-1.5c0.2-0.1,0.5,0,0.5,0.1
								c0.1,0.2,0,0.4-0.1,0.4l-3.4,1.5C185.8,31.6,185.8,31.7,185.7,31.7z"/>
						</g>
						<g id="XMLID_399_">
							<path id="XMLID_400_" d="M185.7,33.2c-0.1,0-0.2-0.1-0.4-0.2c-0.1-0.2,0-0.4,0.1-0.4l3.4-1.5c0.2-0.1,0.5,0,0.5,0.1
								c0.1,0.2,0,0.4-0.1,0.4l-3.4,1.5C185.8,33.2,185.8,33.2,185.7,33.2z"/>
						</g>
					</g>
				</g>
			</g>
		</g>
		<g>
			<g>
				<path class="st12" d="M57.6,100.5l0.4-2.8c0-0.1,0-0.2,0.1-0.2l0.1-0.1l0.9-0.4h0.1v0.1c0,0,0,0,0,0.1l-0.9,5.3
					c0,0.1,0,0.2-0.1,0.3c0,0.1-0.1,0.2-0.2,0.2l-0.5,0.2c-0.1,0-0.1,0-0.2,0c0,0-0.1-0.1-0.1-0.2l-0.5-1.5l-0.5,2
					c0,0.1,0,0.2-0.1,0.3c0,0.1-0.1,0.1-0.2,0.2l-0.5,0.2c-0.1,0-0.1,0-0.2,0c0,0-0.1-0.1-0.1-0.2L54,99.4c0,0,0,0,0-0.1v-0.1
					c0,0,0-0.1,0.1-0.1l0.9-0.4h0.1l0.1,0.1l0.4,2.5l0.4-1.6c0,0,0-0.1,0-0.2s0.1-0.1,0.1-0.2l0.6-0.3c0.1,0,0.1,0,0.1,0v0.1
					L57.6,100.5z"/>
				<path class="st12" d="M62.9,99.4C63.1,99.4,63.1,99.4,62.9,99.4c0.1,0,0.1,0.1,0.1,0.1v0.8c0,0.1,0,0.1,0,0.2s-0.1,0.1-0.1,0.1
					l-3,1.4h-0.1v-0.1v-5c0-0.1,0-0.1,0-0.2s0.1-0.1,0.1-0.1l3-1.4h0.1v0.1v0.8c0,0.1,0,0.1,0,0.2s-0.1,0.1-0.1,0.1l-2,0.9v0.8
					l1.9-0.8h0.1v0.1v0.8c0,0.1,0,0.1,0,0.2s-0.1,0.1-0.1,0.1l-1.9,0.8v0.9L62.9,99.4z"/>
				<path class="st12" d="M64.2,100.2C64.2,100.2,63.9,100.2,64.2,100.2c-0.1,0-0.1-0.1-0.1-0.1V95c0-0.1,0-0.1,0-0.2
					s0.1-0.1,0.1-0.1l2-0.9c0.2-0.1,0.5-0.2,0.7-0.2s0.4,0.1,0.5,0.2s0.2,0.2,0.2,0.4s0.1,0.4,0.1,0.5c0,0.2,0,0.3,0,0.4
					s0,0.2-0.1,0.3c0,0.1-0.1,0.2-0.1,0.2c0,0.1-0.1,0.1-0.1,0.2c0.1,0.1,0.2,0.2,0.4,0.3c0.1,0.2,0.1,0.4,0.1,0.6s0,0.4-0.1,0.7
					c0,0.2-0.1,0.4-0.2,0.7c-0.1,0.2-0.2,0.4-0.5,0.6c-0.1,0.2-0.4,0.3-0.6,0.5L64.2,100.2z M66.5,95.2c0-0.1,0-0.2-0.1-0.3
					c-0.1-0.1-0.1,0-0.2,0l-1,0.5v0.9l1-0.5c0.1-0.1,0.2-0.1,0.2-0.3C66.5,95.5,66.5,95.4,66.5,95.2z M65.2,98.5l1-0.5
					c0.1-0.1,0.2-0.2,0.2-0.3c0.1-0.1,0.1-0.3,0.1-0.4s0-0.2-0.1-0.3c-0.1-0.1-0.1-0.1-0.2,0l-1,0.5V98.5z"/>
			</g>
			<g>
				<path class="st1" d="M70.3,91.8c0.2-0.1,0.5-0.2,0.6-0.2c0.2,0,0.4,0.1,0.5,0.1c0.1,0.1,0.2,0.2,0.4,0.3
					c0.1,0.1,0.1,0.3,0.1,0.4v0.1l-0.1,0.1l-0.2,0.1h-0.1c0,0,0,0-0.1-0.1c0,0,0-0.1-0.1-0.2c0-0.1-0.1-0.1-0.2-0.1
					s-0.1-0.1-0.2-0.1c-0.1,0-0.2,0-0.4,0.1c-0.1,0.1-0.2,0.1-0.4,0.2c-0.1,0.1-0.2,0.2-0.2,0.3c-0.1,0.1-0.1,0.2-0.2,0.3
					c0,0.1-0.1,0.3-0.1,0.4s0,0.2,0.1,0.3c0,0.1,0.1,0.1,0.2,0.1c0.1,0,0.2,0,0.4,0s0.4,0,0.6-0.1c0.2,0,0.5,0,0.6,0
					c0.1,0,0.2,0.1,0.4,0.1c0.1,0.1,0.1,0.2,0.2,0.3c0,0.1,0.1,0.3,0.1,0.5s0,0.5-0.1,0.7s-0.2,0.5-0.4,0.7s-0.4,0.4-0.5,0.6
					c-0.2,0.2-0.5,0.3-0.7,0.4c-0.2,0.1-0.5,0.2-0.6,0.2c-0.2,0-0.4,0-0.5-0.1c-0.1-0.1-0.2-0.2-0.4-0.3c-0.1-0.1-0.1-0.3-0.1-0.4
					v-0.1c0,0,0-0.1,0.1-0.1l0.2-0.1h0.1c0,0,0,0,0.1,0.1c0,0.1,0.1,0.1,0.1,0.2s0.1,0.1,0.2,0.1s0.2,0,0.4,0c0.1,0,0.2,0,0.5-0.1
					c0.1-0.1,0.2-0.2,0.4-0.3c0.1-0.1,0.2-0.2,0.4-0.3c0.1-0.1,0.1-0.3,0.2-0.4c0-0.1,0.1-0.3,0.1-0.4s0-0.2-0.1-0.3
					c-0.2,0.1-0.4,0.1-0.5,0.1s-0.2,0-0.5,0c-0.1,0-0.4,0-0.6,0.1c-0.2,0-0.4,0-0.5,0s-0.2-0.1-0.4-0.2c-0.1-0.1-0.1-0.2-0.2-0.3
					c0-0.1,0-0.3,0-0.5s0-0.4,0.1-0.6s0.1-0.4,0.2-0.6s0.2-0.4,0.5-0.6C69.9,92,70,91.9,70.3,91.8z"/>
				<path class="st1" d="M73,96.1L73,96.1c-0.1-0.1-0.1-0.1-0.1-0.2v-5c0-0.1,0-0.1,0-0.2s0.1-0.1,0.1-0.1l0.2-0.1h0.1v0.1v5.1
					c0,0.1,0,0.1,0,0.2S73.3,96,73.3,96L73,96.1z"/>
				<path class="st1" d="M77.2,88.6C77.4,88.6,77.4,88.6,77.2,88.6c0.1,0,0.1,0.1,0.1,0.1V89c0,0.1,0,0.1,0,0.2s-0.1,0.1-0.1,0.1
					L76,89.8v4.6c0,0.1,0,0.1,0,0.2s-0.1,0.1-0.1,0.1l-0.2,0.1h-0.1v-0.1v-4.6l-1.2,0.5h-0.1v-0.1v-0.3c0-0.1,0-0.1,0-0.2
					s0.1-0.1,0.1-0.1L77.2,88.6z"/>
				<path class="st1" d="M80.8,91.7C81,91.7,81,91.7,80.8,91.7c0.1,0,0.1,0.1,0.1,0.1v0.3c0,0.1,0,0.1,0,0.2s-0.1,0.1-0.1,0.1
					l-2.6,1.2h-0.1v-0.1v-5.1c0-0.1,0-0.1,0-0.2s0.1-0.1,0.1-0.1l2.5-1.2h0.1V87v0.3c0,0.1,0,0.1,0,0.2s-0.1,0.1-0.1,0.1l-2.1,1v1.7
					l2-0.9h0.1v0.1v0.3c0,0.1,0,0.1,0,0.2s-0.1,0.1-0.1,0.1l-2,0.9v1.7L80.8,91.7z"/>
			</g>
		</g>
		<g>
			<path class="st2" d="M120.8,70.1L110.1,75c-0.5,0.2-0.9,0.7-0.9,1.1s0.4,0.5,0.9,0.3l10.7-4.9c0.5-0.2,0.9-0.7,0.9-1.1
				C121.8,70,121.3,69.9,120.8,70.1z"/>
			<path class="st1" d="M136.6,62.8l-8.3,3.9c-0.5,0.2-0.9,0.7-0.9,1.1s0.4,0.5,0.9,0.3l8.3-3.9c0.5-0.2,0.9-0.7,0.9-1.1
				C137.4,62.8,137.1,62.6,136.6,62.8z"/>
			<path class="st1" d="M151,56.1l-6.8,3.2c-0.5,0.2-0.9,0.7-0.9,1.1c0,0.4,0.4,0.5,0.9,0.3l6.8-3.2c0.5-0.2,0.9-0.7,0.9-1.1
				C151.9,56.1,151.5,55.9,151,56.1z"/>
			<path class="st1" d="M169,47.8l-10.7,4.9c-0.5,0.2-0.9,0.7-0.9,1.1c0,0.4,0.4,0.5,0.9,0.3l10.7-4.9c0.5-0.2,0.9-0.7,0.9-1.1
				C169.9,47.7,169.5,47.6,169,47.8z"/>
		</g>
		<g>
			<polygon class="st1" points="27,159.6 191.7,83.1 191.7,43.2 27,119.7 			"/>
			<g>
				<g>
					<path class="st4" d="M53.2,113.3l28.5-13.2c0.9-0.4,1.5-0.1,1.5,0.7v0.2c0,0.8-0.7,1.7-1.5,2.1l-28.5,13.2
						c-0.9,0.4-1.5,0.1-1.5-0.7v-0.8C51.6,114.1,52.4,113.7,53.2,113.3z"/>
					<g>
						<path class="st13" d="M53.2,118.6l18.5-8.7c0.9-0.4,1.5-0.1,1.5,0.7v0.2c0,0.8-0.7,1.7-1.5,2.1l-18.5,8.7
							c-0.9,0.4-1.5,0.1-1.5-0.7v-0.8C51.6,119.5,52.4,119.1,53.2,118.6z"/>
						<path class="st14" d="M53.2,118.6l18.5-8.7c0.9-0.4,1.5-0.1,1.5,0.7v0.2c0,0.8-0.7,1.7-1.5,2.1l-18.5,8.7
							c-0.9,0.4-1.5,0.1-1.5-0.7v-0.8C51.6,119.5,52.4,119.1,53.2,118.6z"/>
					</g>
				</g>
				<g>
					<g>
						<g>
							<path class="st3" d="M51.6,128.3c-0.1,0-0.1,0-0.2-0.1c-0.1-0.1,0-0.2,0.1-0.3l54.6-25.3c0.1-0.1,0.2,0,0.4,0.1
								c0.1,0.1,0,0.2-0.1,0.3l-54.6,25.4C51.7,128.3,51.7,128.3,51.6,128.3z"/>
						</g>
						<g>
							<path class="st3" d="M51.6,131c-0.1,0-0.1,0-0.2-0.1c-0.1-0.1,0-0.2,0.1-0.3l20-9.4c0.1-0.1,0.2,0,0.4,0.1
								c0.1,0.1,0,0.2-0.1,0.3l-20,9.4C51.7,131,51.7,131,51.6,131z"/>
						</g>
						<g>
							<path class="st3" d="M74.6,120.4c-0.1,0-0.1,0-0.2-0.1s0-0.2,0.1-0.3l11.6-5.3c0.1-0.1,0.2,0,0.4,0.1c0.1,0.1,0,0.2-0.1,0.3
								l-11.6,5.3C74.8,120.4,74.6,120.4,74.6,120.4z"/>
						</g>
						<g>
							<path class="st3" d="M88.9,113.7c-0.1,0-0.1,0-0.2-0.1s0-0.2,0.1-0.3l17.3-8.1c0.1-0.1,0.2,0,0.4,0.1c0.1,0.1,0,0.2-0.1,0.3
								l-17.3,8.1C89.1,113.7,89.1,113.7,88.9,113.7z"/>
						</g>
						<g>
							<path class="st3" d="M51.6,133.6c-0.1,0-0.1,0-0.2-0.1c-0.1-0.1,0-0.2,0.1-0.3l8.6-4c0.1-0.1,0.2,0,0.4,0.1
								c0.1,0.1,0,0.2-0.1,0.3l-8.6,4C51.7,133.6,51.7,133.6,51.6,133.6z"/>
						</g>
						<g>
							<path class="st3" d="M63.1,128.3c-0.1,0-0.1,0-0.2-0.1c-0.1-0.1,0-0.2,0.1-0.3l20-9.4c0.1-0.1,0.2,0,0.4,0.1
								c0.1,0.1,0,0.2-0.1,0.3l-20,9.4C63.2,128.3,63.2,128.3,63.1,128.3z"/>
						</g>
						<g>
							<path class="st3" d="M86.2,117.6c-0.1,0-0.1,0-0.2-0.1s0-0.2,0.1-0.3l20-9.4c0.1-0.1,0.2,0,0.4,0.1c0.1,0.1,0,0.2-0.1,0.3
								l-20,9.4C86.2,117.6,86.2,117.6,86.2,117.6z"/>
						</g>
					</g>
					<g>
						<g>
							<path class="st3" d="M51.6,136.4c-0.1,0-0.1,0-0.2-0.1c-0.1-0.1,0-0.2,0.1-0.3l54.6-25.4c0.1-0.1,0.2,0,0.4,0.1
								c0.1,0.1,0,0.2-0.1,0.3l-54.6,25.4C51.7,136.4,51.7,136.4,51.6,136.4z"/>
						</g>
						<g>
							<path class="st3" d="M51.6,139c-0.1,0-0.1,0-0.2-0.1c-0.1-0.1,0-0.2,0.1-0.3l20-9.4c0.1-0.1,0.2,0,0.4,0.1
								c0.1,0.1,0,0.2-0.1,0.3l-20,9.4C51.7,139,51.7,139,51.6,139z"/>
						</g>
						<g>
							<path class="st3" d="M74.6,128.3c-0.1,0-0.1,0-0.2-0.1s0-0.2,0.1-0.3l11.6-5.3c0.1-0.1,0.2,0,0.4,0.1c0.1,0.1,0,0.2-0.1,0.3
								l-11.6,5.3C74.8,128.3,74.6,128.3,74.6,128.3z"/>
						</g>
						<g>
							<path class="st3" d="M88.9,121.7c-0.1,0-0.1,0-0.2-0.1s0-0.2,0.1-0.3l17.3-8.1c0.1-0.1,0.2,0,0.4,0.1c0.1,0.1,0,0.2-0.1,0.3
								l-17.3,8.1C89.1,121.7,89.1,121.7,88.9,121.7z"/>
						</g>
						<g>
							<path class="st3" d="M51.6,141.7c-0.1,0-0.1,0-0.2-0.1c-0.1-0.1,0-0.2,0.1-0.3l8.6-4c0.1-0.1,0.2,0,0.4,0.1
								c0.1,0.1,0,0.2-0.1,0.3l-8.6,4C51.7,141.7,51.7,141.7,51.6,141.7z"/>
						</g>
						<g>
							<path class="st3" d="M63.1,136.4c-0.1,0-0.1,0-0.2-0.1c-0.1-0.1,0-0.2,0.1-0.3l20-9.4c0.1-0.1,0.2,0,0.4,0.1
								c0.1,0.1,0,0.2-0.1,0.3l-20,9.4C63.2,136.4,63.2,136.4,63.1,136.4z"/>
						</g>
						<g>
							<path class="st3" d="M86.2,125.7c-0.1,0-0.1,0-0.2-0.1s0-0.2,0.1-0.3l20-9.4c0.1-0.1,0.2,0,0.4,0.1c0.1,0.1,0,0.2-0.1,0.3
								l-20,9.4C86.2,125.7,86.2,125.7,86.2,125.7z"/>
						</g>
					</g>
				</g>
			</g>
			<g>
				<path class="st0" d="M170.1,58.2V88c0,0.6-0.5,1.3-1.1,1.6l-57.5,26.8c0,0-0.1,0.1-0.2,0.1l0,0c-0.5,0.2-1-0.1-1-0.6V86
					c0-0.3,0.1-0.6,0.4-0.9c0.2-0.3,0.5-0.5,0.9-0.7L169,57.6c0.5-0.2,1-0.1,1.1,0.3v-0.1c0,0.1,0,0.1,0,0.2V58.2z"/>
				<polygon class="st1" points="113.7,112.1 166.9,87.3 166.9,80.2 152.5,78.3 142.3,88.4 145,90.9 128.6,82.9 113.7,102.3 				"/>
				<path class="st1" d="M161.3,66.2c1.6-0.7,2.9-0.2,2.9,1.3s-1.2,3.2-2.9,4c-1.6,0.7-2.9,0.1-2.9-1.3
					C158.3,68.7,159.7,66.9,161.3,66.2z"/>
			</g>
		</g>
		<g>
			<g>
				<path class="st13" d="M84.7,141.2v22.3c0,0.4-0.4,0.9-0.9,1.2l-31.1,14.4c0,0-0.1,0-0.1,0.1l0,0c-0.4,0.1-0.7-0.1-0.7-0.4v-22.4
					c0-0.2,0.1-0.4,0.2-0.7c0.1-0.2,0.4-0.4,0.6-0.5l31.1-14.4c0.4-0.2,0.7-0.1,0.7,0.2c0,0,0,0,0-0.1v0.1
					C84.7,141.1,84.7,141.2,84.7,141.2z"/>
				<path class="st15" d="M84.7,141.2v22.3c0,0.4-0.4,0.9-0.9,1.2l-31.1,14.4c0,0-0.1,0-0.1,0.1l0,0c-0.4,0.1-0.7-0.1-0.7-0.4v-22.4
					c0-0.2,0.1-0.4,0.2-0.7c0.1-0.2,0.4-0.4,0.6-0.5l31.1-14.4c0.4-0.2,0.7-0.1,0.7,0.2c0,0,0,0,0-0.1v0.1
					C84.7,141.1,84.7,141.2,84.7,141.2z"/>
				<polygon class="st9" points="54.2,176.1 82.2,163 82.2,157.2 76.2,154.4 70.4,161.1 72.1,162.9 61.6,156.8 54.2,168.7 				"/>
				<path class="st9" d="M71.3,149.8c1.1-0.5,2.1-0.1,2.1,1s-0.9,2.4-2.1,2.9c-1.1,0.5-2.1,0.1-2.1-1
					C69.3,151.7,70.2,150.4,71.3,149.8z"/>
			</g>
			<g>
				<path class="st13" d="M170.1,101.5v22.3c0,0.4-0.4,0.9-0.9,1.2l-31.1,14.4c0,0-0.1,0-0.1,0.1l0,0c-0.4,0.1-0.7-0.1-0.7-0.4
					v-22.4c0-0.2,0.1-0.4,0.2-0.7c0.1-0.2,0.4-0.4,0.6-0.5l31.1-14.4c0.4-0.2,0.7-0.1,0.7,0.2c0,0,0,0,0-0.1v0.1
					C170.1,101.4,170.1,101.4,170.1,101.5z"/>
				<path class="st15" d="M170.1,101.5v22.3c0,0.4-0.4,0.9-0.9,1.2l-31.1,14.4c0,0-0.1,0-0.1,0.1l0,0c-0.4,0.1-0.7-0.1-0.7-0.4
					v-22.4c0-0.2,0.1-0.4,0.2-0.7c0.1-0.2,0.4-0.4,0.6-0.5l31.1-14.4c0.4-0.2,0.7-0.1,0.7,0.2c0,0,0,0,0-0.1v0.1
					C170.1,101.4,170.1,101.4,170.1,101.5z"/>
				<polygon class="st9" points="139.7,136.4 167.8,123.4 167.8,117.5 161.8,114.6 155.8,121.5 157.6,123.3 147.1,117.1 139.7,129 
									"/>
				<path class="st9" d="M156.7,110.1c1.1-0.5,2.1-0.1,2.1,1s-0.9,2.4-2.1,2.9c-1.1,0.5-2.1,0.1-2.1-1
					C154.7,111.9,155.6,110.6,156.7,110.1z"/>
			</g>
			<g>
				<path class="st13" d="M127.4,121.4v22.3c0,0.4-0.4,0.9-0.9,1.2l-31,14.4c0,0-0.1,0-0.1,0.1l0,0c-0.4,0.1-0.7-0.1-0.7-0.4v-22.4
					c0-0.2,0.1-0.4,0.2-0.7c0.1-0.2,0.4-0.4,0.6-0.5l31.1-14.4c0.4-0.2,0.7-0.1,0.7,0.2c0,0,0,0,0-0.1v0.1
					C127.4,121.3,127.4,121.4,127.4,121.4z"/>
				<path class="st15" d="M127.4,121.4v22.3c0,0.4-0.4,0.9-0.9,1.2l-31,14.4c0,0-0.1,0-0.1,0.1l0,0c-0.4,0.1-0.7-0.1-0.7-0.4v-22.4
					c0-0.2,0.1-0.4,0.2-0.7c0.1-0.2,0.4-0.4,0.6-0.5l31.1-14.4c0.4-0.2,0.7-0.1,0.7,0.2c0,0,0,0,0-0.1v0.1
					C127.4,121.3,127.4,121.4,127.4,121.4z"/>
				<polygon class="st9" points="97,156.2 125.1,143.2 125.1,137.4 118.9,134.5 113.2,141.3 114.9,143.1 104.4,137 97,148.8 				"/>
				<path class="st9" d="M114.1,129.9c1.1-0.5,2.1-0.1,2.1,1s-0.9,2.4-2.1,2.9c-1.1,0.5-2.1,0.1-2.1-1
					C111.9,131.8,112.9,130.4,114.1,129.9z"/>
			</g>
		</g>
	</g>
</g>
<g id="Ad_3">
	<g id="Ad_11_">
		<g id="Speech_Bubble_4_">
			<g id="XMLID_71_">
				<g id="XMLID_73_">
					<path class="st5" d="M183.7,44.3c0-0.1,0-0.1,0.1-0.2l0,0C183.8,44.2,183.8,44.2,183.7,44.3z"/>
					<path class="st16" d="M246.1,15.5c-0.1-0.2-0.2-0.3-0.4-0.3c-0.1,0-0.2,0-0.4,0.1l-60.9,28.3c-0.2,0.1-0.4,0.3-0.6,0.5
						l-2.4-1.1c0.1-0.2,0.4-0.4,0.5-0.5l60.9-28.3c0.5-0.2,1.1-0.2,1.6,0l0.9,0.4C245.8,14.8,246.1,15.1,246.1,15.5z"/>
				</g>
				<g id="XMLID_72_" class="st17">
					<path class="st2" d="M184.5,101.9c-0.4,0.2-1.2,0.2-1.6,0l-0.9-0.4c-0.5-0.2-0.9-0.7-0.9-1.1V43.7c0-0.2,0.1-0.5,0.2-0.7
						l2.4,1.1c-0.1,0.2-0.2,0.4-0.2,0.6v56.8C183.6,101.9,184,102.1,184.5,101.9z"/>
				</g>
			</g>
			<g class="st18">
				<path class="st0" d="M245.8,15.2c-0.1,0-0.2,0-0.4,0.1l-60.9,28.3c-0.5,0.2-0.7,0.7-0.7,1.1v56.8c0,0.3,0.1,0.5,0.5,0.5
					c0.1,0,0.2,0,0.4-0.1l60.9-28.3c0.5-0.2,0.7-0.7,0.7-1.1V15.7C246.1,15.4,246,15.2,245.8,15.2L245.8,15.2z"/>
			</g>
			<g>
				<path class="st1" d="M245.6,15.8v56.8c0,0.2-0.2,0.6-0.5,0.7l-60.9,28.3V44.8c0-0.2,0.2-0.6,0.5-0.7L245.6,15.8 M245.8,15.2
					c-0.1,0-0.2,0-0.4,0.1l-60.9,28.3c-0.5,0.2-0.7,0.7-0.7,1.1v56.8c0,0.3,0.1,0.5,0.5,0.5c0.1,0,0.2,0,0.4-0.1l60.9-28.3
					c0.5-0.2,0.7-0.7,0.7-1.1V15.7C246.1,15.4,246,15.2,245.8,15.2L245.8,15.2z"/>
			</g>
		</g>
		<path id="Shadow_5_" class="st19" d="M239.6,69.5V21.8c0-0.8-0.7-1.2-1.6-0.8l-49.3,22.8c-0.9,0.4-1.6,1.4-1.6,2.3v47.7
			c0,0.8,0.7,1.2,1.6,0.8l49.3-22.8C238.8,71.4,239.6,70.3,239.6,69.5z"/>
		<g id="Video_1_">
			<g>
				<path class="st20" d="M241.2,70.3V22.6c0-0.8-0.7-1.2-1.6-0.8l-49.3,22.8c-0.9,0.4-1.6,1.4-1.6,2.3v47.7c0,0.8,0.7,1.2,1.6,0.8
					l49.3-22.8C240.4,72.1,241.2,71.1,241.2,70.3z"/>
				<path class="st21" d="M241.2,70.3V22.6c0-0.8-0.7-1.2-1.6-0.8l-49.3,22.8c-0.9,0.4-1.6,1.4-1.6,2.3v47.7c0,0.8,0.7,1.2,1.6,0.8
					l49.3-22.8C240.4,72.1,241.2,71.1,241.2,70.3z"/>
			</g>
			<path class="st4" d="M206.3,68.7V53.6c0-1.5,1.5-2.8,3.5-2.9l17.2-0.6c1.9-0.1,2.5,0.8,1.1,2l-19.4,17.4
				C207.5,70.5,206.3,70.2,206.3,68.7z"/>
			<g id="Bar_1_">
				<g>
					<path class="st22" d="M196.6,87.9l39.4-18.2c0.6-0.3,1-0.1,1,0.4s-0.5,1.1-1,1.4l-39.4,18.2c-0.6,0.3-1,0.1-1-0.4
						C195.5,88.8,196,88.2,196.6,87.9z"/>
					<path class="st4" d="M196.6,87.9l30.8-14.2c0.6-0.3,1-0.1,1,0.4s-0.5,1.1-1,1.4l-30.8,14.2c-0.6,0.3-1,0.1-1-0.4
						C195.5,88.8,196,88.2,196.6,87.9z"/>
				</g>
				<g id="XMLID_68_">
					<path id="XMLID_70_" class="st4" d="M191.9,90v1.8c0,0.1-0.1,0.2-0.1,0.2l-0.4,0.2c-0.1,0-0.1,0-0.1-0.1v-1.8
						c0-0.1,0.1-0.2,0.1-0.2l0.4-0.2C191.8,89.9,191.9,89.9,191.9,90z"/>
					<path id="XMLID_69_" class="st4" d="M193.4,89.3v1.8c0,0.1-0.1,0.2-0.1,0.2l-0.4,0.2c-0.1,0-0.1,0-0.1-0.1v-1.8
						c0-0.1,0.1-0.2,0.1-0.2l0.4-0.2C193.3,89.2,193.4,89.2,193.4,89.3z"/>
				</g>
				<g>
					<path class="st4" d="M217.3,35.2c0.2-0.1,0.5-0.2,0.6-0.2c0.2,0,0.4,0,0.5,0.1s0.2,0.2,0.2,0.3c0.1,0.1,0.1,0.2,0.1,0.4
						c0,0.1,0,0.1,0,0.2l-0.1,0.1l-0.4,0.2c-0.1,0-0.1,0-0.1,0s0,0-0.1-0.1c0-0.1-0.1-0.2-0.2-0.2s-0.2,0-0.5,0.1
						c-0.1,0-0.2,0.1-0.2,0.2c-0.1,0.1-0.1,0.1-0.2,0.2c-0.1,0.1-0.1,0.2-0.1,0.2c0,0.1,0,0.2,0,0.3s0,0.2,0,0.2
						c0,0.1,0.1,0.1,0.1,0.1c0.1,0,0.2,0,0.4,0c0.1,0,0.2-0.1,0.5-0.1s0.4-0.1,0.6-0.1c0.1,0,0.2,0,0.4,0.1s0.1,0.2,0.2,0.3
						c0,0.1,0.1,0.3,0.1,0.5s0,0.4-0.1,0.6s-0.1,0.4-0.4,0.6c-0.1,0.2-0.2,0.4-0.5,0.5c-0.2,0.2-0.4,0.3-0.6,0.4
						c-0.2,0.1-0.4,0.2-0.6,0.2s-0.4,0-0.5,0s-0.2-0.1-0.4-0.3c-0.1-0.1-0.1-0.3-0.1-0.5c0-0.1,0-0.1,0-0.2l0.1-0.1l0.4-0.2
						c0.1,0,0.1,0,0.1,0s0,0,0.1,0.1c0,0,0,0.1,0.1,0.1l0.1,0.1c0.1,0,0.1,0,0.2,0c0.1,0,0.2-0.1,0.4-0.1c0.1-0.1,0.2-0.1,0.4-0.2
						s0.2-0.1,0.2-0.2c0.1-0.1,0.1-0.2,0.2-0.3c0-0.1,0.1-0.2,0.1-0.3s0-0.2-0.1-0.2c0,0-0.1-0.1-0.2-0.1s-0.2,0-0.4,0.1
						c-0.1,0-0.4,0.1-0.5,0.1c-0.1,0-0.4,0-0.5,0c-0.1,0-0.2-0.1-0.4-0.1c-0.1-0.1-0.1-0.2-0.2-0.3c0-0.1-0.1-0.3-0.1-0.5
						s0-0.4,0.1-0.6c0.1-0.2,0.1-0.4,0.2-0.6c0.1-0.2,0.2-0.4,0.5-0.5C216.7,35.4,217,35.3,217.3,35.2z"/>
					<path class="st4" d="M220.1,37.4v1.2c0,0.1,0,0.1,0,0.2c0,0.1-0.1,0.1-0.1,0.1l-0.4,0.2h-0.1V39v-4.5c0-0.1,0-0.1,0-0.2
						s0.1-0.1,0.1-0.1L220,34h0.1v0.1v2.2l0.9-1.4c0,0,0-0.1,0.1-0.1l0.1-0.1l0.6-0.3h0.1v0.1c0,0,0,0,0,0.1v0.1l-1.2,1.9l1.4,1l0,0
						c0,0,0,0,0,0.1v0.1c0,0,0,0.1-0.1,0.1l-0.5,0.3h-0.1h-0.1L220.1,37.4z"/>
					<path class="st4" d="M223.3,32.4L223.3,32.4c0.1,0,0.1,0.1,0.1,0.1V33c0,0.1,0,0.1,0,0.2s-0.1,0.1-0.1,0.1l-0.5,0.2h-0.1v-0.1
						v-0.5c0-0.1,0-0.1,0-0.2s0.1-0.1,0.1-0.1L223.3,32.4z M223.4,37.1c0,0.1,0,0.1,0,0.2c0,0.1-0.1,0.1-0.1,0.1l-0.4,0.2h-0.1v-0.1
						v-3.2c0-0.1,0-0.1,0-0.2c0-0.1,0.1-0.1,0.1-0.1l0.4-0.2h0.1v0.1V37.1z"/>
					<path class="st4" d="M225.6,36.3c-0.1,0.1-0.2,0.1-0.2,0.1c-0.1,0-0.1,0-0.2,0c-0.1,0-0.1,0-0.1-0.1l-0.1-0.1v1.5
						c0,0.1,0,0.1,0,0.2s-0.1,0.1-0.1,0.1l-0.4,0.2h-0.1v-0.1v-4.6c0-0.1,0-0.1,0-0.2c0-0.1,0.1-0.1,0.1-0.1l0.4-0.2h0.1v0.1v0.2
						c0-0.1,0.1-0.1,0.1-0.2s0.1-0.1,0.1-0.2c0.1-0.1,0.1-0.1,0.2-0.2c0.1-0.1,0.2-0.1,0.2-0.2c0.1-0.1,0.4-0.1,0.5-0.1
						s0.2,0.1,0.4,0.2c0.1,0.1,0.2,0.2,0.2,0.4s0.1,0.4,0.1,0.6c0,0.1,0,0.1,0,0.2c0,0.1,0,0.2,0,0.2c0,0.2,0,0.4-0.1,0.7
						c0,0.2-0.1,0.4-0.2,0.6c-0.1,0.2-0.2,0.4-0.4,0.5C226,36.1,225.9,36.2,225.6,36.3z M226.2,34.4c0-0.1,0-0.3,0-0.4
						c0-0.3-0.1-0.5-0.2-0.5c-0.1-0.1-0.2-0.1-0.5,0c-0.1,0.1-0.4,0.2-0.5,0.4s-0.2,0.4-0.2,0.7c0,0.1,0,0.2,0,0.3s0,0.2,0,0.3
						c0,0.2,0.1,0.4,0.2,0.5c0.1,0.1,0.2,0.1,0.5,0c0.1-0.1,0.4-0.2,0.5-0.4C226.1,34.9,226.1,34.7,226.2,34.4z"/>
					<path class="st4" d="M230.6,29.1h0.1c0,0,0,0.1,0.1,0.1l1.4,3.7l0,0c0,0.1,0,0.1,0,0.2c0,0.1-0.1,0.1-0.1,0.1l-0.4,0.2
						c-0.1,0-0.1,0-0.1,0v-0.1l-0.2-0.7l-2,0.9l-0.2,0.9v0.1c0,0.1-0.1,0.1-0.1,0.1l-0.4,0.2h-0.1v-0.1c0,0,0,0,0-0.1l1.4-5
						c0-0.1,0-0.2,0.1-0.2c0-0.1,0.1-0.1,0.1-0.1L230.6,29.1z M230.8,32l-0.6-1.7l-0.6,2.3L230.8,32z"/>
					<path class="st4" d="M233.7,28.8c0.1-0.1,0.2-0.1,0.2-0.1c0.1,0,0.1,0,0.2,0c0.1,0,0.1,0,0.1,0.1l0.1,0.1v-1.5
						c0-0.1,0-0.1,0-0.2s0.1-0.1,0.1-0.1l0.4-0.2h0.1V27v4.5c0,0.1,0,0.1,0,0.2s-0.1,0.1-0.1,0.1l-0.4,0.2h-0.1v-0.1v-0.2
						c0,0.1-0.1,0.1-0.1,0.2s-0.1,0.1-0.1,0.2c-0.1,0.1-0.1,0.1-0.2,0.2c-0.1,0.1-0.2,0.1-0.2,0.2c-0.1,0.1-0.4,0.1-0.5,0.1
						c-0.1,0-0.2-0.1-0.4-0.2c-0.1-0.1-0.2-0.2-0.2-0.4s-0.1-0.4-0.1-0.6c0-0.1,0-0.1,0-0.2s0-0.2,0-0.2c0-0.2,0-0.4,0.1-0.7
						c0-0.2,0.1-0.4,0.2-0.6c0.1-0.2,0.2-0.4,0.4-0.5C233.3,29,233.5,28.9,233.7,28.8z M233.2,30.7c0,0.1,0,0.3,0,0.4
						c0,0.3,0.1,0.5,0.2,0.5c0.1,0.1,0.2,0.1,0.5,0c0.1-0.1,0.4-0.2,0.5-0.4c0.1-0.2,0.2-0.4,0.2-0.7c0-0.1,0-0.2,0-0.3s0-0.2,0-0.3
						c0-0.2-0.1-0.4-0.2-0.5c-0.1-0.1-0.2-0.1-0.5,0c-0.1,0.1-0.4,0.2-0.5,0.4C233.3,30.2,233.2,30.4,233.2,30.7z"/>
					<path class="st4" d="M237.7,29.6c0-0.1,0-0.1,0-0.1h-0.1c-0.1,0-0.1,0-0.2,0c-0.1,0-0.2,0-0.4,0.1c-0.1,0-0.2,0-0.4,0
						c-0.1,0-0.2-0.1-0.2-0.1c-0.1-0.1-0.1-0.1-0.1-0.3c0-0.1,0-0.2,0-0.4c0-0.1,0-0.3,0.1-0.4c0-0.2,0.1-0.3,0.2-0.5
						c0.1-0.1,0.2-0.3,0.4-0.4s0.2-0.2,0.5-0.3c0.1-0.1,0.4-0.1,0.5-0.2c0.1,0,0.2,0,0.4,0c0.1,0,0.1,0.1,0.2,0.2
						c0,0.1,0.1,0.2,0.1,0.3c0,0,0,0.1,0,0.2s-0.1,0.1-0.1,0.1l-0.4,0.2h-0.1c0,0,0,0-0.1,0h-0.1c0,0-0.1,0-0.2,0.1
						c-0.1,0.1-0.2,0.1-0.2,0.2c-0.1,0.1-0.1,0.2-0.1,0.3c0,0.1,0,0.1,0,0.1s0,0,0.1,0c0,0,0.1,0,0.2,0s0.2,0,0.4-0.1
						c0.4-0.1,0.6,0,0.7,0.1c0.1,0.1,0.2,0.3,0.2,0.6c0,0.1,0,0.3-0.1,0.4c0,0.2-0.1,0.3-0.2,0.5c-0.1,0.2-0.2,0.3-0.4,0.4
						s-0.4,0.2-0.5,0.3c-0.2,0.1-0.4,0.1-0.5,0.2c-0.1,0-0.2,0-0.4,0s-0.1-0.1-0.2-0.2c-0.1-0.1-0.1-0.2-0.1-0.3c0,0,0-0.1,0-0.2
						s0.1-0.1,0.1-0.1l0.4-0.2h0.1c0,0,0,0,0.1,0.1h0.1c0.1,0,0.1,0,0.2-0.1l0.1-0.1l0.1-0.1l0.1-0.1
						C237.7,29.7,237.7,29.7,237.7,29.6z"/>
				</g>
			</g>
		</g>
		<g id="x_6_">
			<path id="XMLID_67_" class="st23" d="M248.9,13.9l-1.5-0.7l0,0l0,0l0,0c-0.6-0.3-1.5-0.2-2.5,0.2c-2,0.9-3.5,3.1-3.5,4.9
				c0,0.9,0.4,1.5,1,1.8l0,0l0,0l0,0l1.4,0.6l0.4-0.4c0.4-0.1,0.6-0.2,1-0.3c2-0.9,3.5-3.1,3.5-4.9c0-0.3,0-0.5-0.1-0.7L248.9,13.9z
				"/>
			<path id="XMLID_66_" class="st7" d="M248.9,13.9l-1.5-0.7l0,0l0,0l0,0c-0.6-0.3-1.5-0.2-2.5,0.2c-2,0.9-3.5,3.1-3.5,4.9
				c0,0.9,0.4,1.5,1,1.8l0,0l0,0l0,0l1.4,0.6l0.4-0.4c0.4-0.1,0.6-0.2,1-0.3c2-0.9,3.5-3.1,3.5-4.9c0-0.3,0-0.5-0.1-0.7L248.9,13.9z
				"/>
			<path id="XMLID_65_" class="st23" d="M241.5,17.3c-0.1,0.3-0.1,0.6-0.1,1c0,0.9,0.4,1.5,1,1.8l0,0l0,0l0,0l1.4,0.6l0.4-0.4
				c0.4-0.1,0.6-0.2,1-0.3c0.4-0.2,0.6-0.3,1-0.6L241.5,17.3z"/>
			<path id="XMLID_64_" class="st23" d="M246.3,14c-2,0.9-3.5,3.1-3.5,4.9s1.6,2.5,3.5,1.6c2-0.9,3.5-3.1,3.5-4.9
				C249.9,13.9,248.3,13.1,246.3,14z"/>
			<path id="XMLID_63_" class="st24" d="M246.3,14c-2,0.9-3.5,3.1-3.5,4.9s1.6,2.5,3.5,1.6c2-0.9,3.5-3.1,3.5-4.9
				C249.9,13.9,248.3,13.1,246.3,14z"/>
			<path id="XMLID_62_" class="st4" d="M246.8,17.2l1-1.6c0.1-0.2,0.1-0.4,0-0.5c-0.1-0.1-0.4-0.1-0.5,0.1l-1,1.6l-1-0.7
				c-0.1-0.1-0.2,0-0.4,0.2c-0.1,0.2-0.1,0.4,0,0.5l1,0.7l-1,1.6c-0.1,0.2-0.1,0.4,0,0.5c0.2,0.1,0.4,0,0.5-0.1l1-1.6l0.9,0.7
				c0,0,0.1,0,0.2,0c0.1,0,0.1-0.1,0.2-0.2c0.1-0.2,0.1-0.4,0-0.5L246.8,17.2z"/>
		</g>
	</g>
</g>
<g id="Ad_2">
	<g id="Ad_9_">
		<g id="Speech_Bubble_3_">
			<g id="XMLID_106_">
				<g id="XMLID_108_">
					<path class="st5" d="M37.4,125.4c0-0.1,0-0.1,0.1-0.2l0,0C37.6,125.3,37.4,125.3,37.4,125.4z"/>
					<path class="st16" d="M99.9,96.6c-0.1-0.2-0.2-0.3-0.4-0.3c-0.1,0-0.2,0-0.4,0.1l-60.9,28.3c-0.2,0.1-0.4,0.3-0.6,0.5l-2.4-1.1
						c0.1-0.2,0.4-0.4,0.5-0.5l60.9-28.3c0.5-0.2,1.1-0.2,1.6,0l0.9,0.4C99.5,95.8,99.8,96.2,99.9,96.6z"/>
				</g>
				<g id="XMLID_107_" class="st17">
					<path class="st2" d="M38.1,223.7c-0.4,0.2-1.2,0.2-1.6,0l-0.9-0.4c-0.5-0.2-0.9-0.7-0.9-1.1v-97.4c0-0.2,0.1-0.5,0.2-0.7
						l2.4,1.1c-0.1,0.2-0.2,0.4-0.2,0.6v97.5C37.3,223.7,37.7,223.9,38.1,223.7z"/>
				</g>
			</g>
			<g class="st18">
				<path class="st0" d="M99.5,96.3c-0.1,0-0.2,0-0.4,0.1l-60.9,28.3c-0.5,0.2-0.7,0.7-0.7,1.1v97.5c0,0.3,0.1,0.5,0.5,0.5
					c0.1,0,0.2,0,0.4-0.1l60.9-28.3c0.5-0.2,0.7-0.7,0.7-1.1V96.8C99.9,96.5,99.8,96.3,99.5,96.3L99.5,96.3z"/>
			</g>
			<g>
				<path class="st1" d="M99.4,96.8v97.4c0,0.2-0.2,0.6-0.5,0.7l-61.1,28.4v-97.4c0-0.2,0.2-0.6,0.5-0.7L99.4,96.8 M99.5,96.3
					c-0.1,0-0.2,0-0.4,0.1l-60.9,28.3c-0.5,0.2-0.7,0.7-0.7,1.1v97.5c0,0.3,0.1,0.5,0.5,0.5c0.1,0,0.2,0,0.4-0.1l60.9-28.3
					c0.5-0.2,0.7-0.7,0.7-1.1V96.8C99.9,96.5,99.8,96.3,99.5,96.3L99.5,96.3z"/>
			</g>
		</g>
		<path id="Shadow_4_" class="st19" d="M93.2,191.3v-88.5c0-0.8-0.7-1.2-1.6-0.8l-49.3,22.9c-0.9,0.4-1.6,1.4-1.6,2.3v88.5
			c0,0.8,0.7,1.2,1.6,0.8l49.3-22.8C92.4,193.2,93.2,192.2,93.2,191.3z"/>
		<g id="Ad_10_">
			<g>
				<path class="st25" d="M94.9,192.1v-88.5c0-0.8-0.7-1.2-1.6-0.8L44,125.6c-0.9,0.4-1.6,1.4-1.6,2.3v88.5c0,0.8,0.7,1.2,1.6,0.8
					l49.3-22.8C94.2,194,94.9,192.9,94.9,192.1z"/>
				<path class="st7" d="M94.9,192.1v-88.5c0-0.8-0.7-1.2-1.6-0.8L44,125.6c-0.9,0.4-1.6,1.4-1.6,2.3v88.5c0,0.8,0.7,1.2,1.6,0.8
					l49.3-22.8C94.2,194,94.9,192.9,94.9,192.1z"/>
			</g>
			<g id="Text_5_">
				<path class="st24" d="M42.3,216.5c0,0.8,0.7,1.2,1.6,0.8l49.3-22.8c0.9-0.4,1.6-1.4,1.6-2.3v-41.6l-52.5,40.6V216.5z"/>
				<g>
					<g>
						<path class="st0" d="M52.5,172.1c0.1-0.1,0.1-0.1,0.1,0c0,0,0.1,0.1,0.1,0.2v1.3c0,0.1,0,0.2-0.1,0.3c0,0.1-0.1,0.2-0.1,0.2
							l-2.7,2.1l-0.1,1.7l2.6-2c0.1-0.1,0.1-0.1,0.1,0c0,0,0.1,0.1,0,0.2v1.3c0,0.1,0,0.2-0.1,0.3c0,0.1-0.1,0.2-0.1,0.2l-2.6,2
							l-0.1,2.6c0,0.1,0,0.2-0.1,0.3c0,0.1-0.1,0.2-0.1,0.2l-1.2,0.9c-0.1,0.1-0.1,0.1-0.1,0c0,0-0.1-0.1-0.1-0.2l0.4-8
							c0-0.1,0-0.2,0.1-0.3c0-0.1,0.1-0.2,0.1-0.2L52.5,172.1z"/>
					</g>
					<g>
						<path class="st0" d="M53.6,179.5c-0.1,0.1-0.1,0.1-0.1,0c0,0-0.1-0.1-0.1-0.2l0.4-8c0-0.1,0-0.2,0.1-0.3
							c0-0.1,0.1-0.2,0.1-0.2l1.2-0.9c0.1-0.1,0.1-0.1,0.1,0c0,0,0.1,0.1,0.1,0.2l-0.4,8c0,0.1,0,0.2-0.1,0.3c0,0.1-0.1,0.2-0.1,0.2
							L53.6,179.5z"/>
					</g>
					<g>
						<path class="st0" d="M60.8,173.9c-0.1,0.1-0.2,0.1-0.2,0.1s-0.1,0-0.1-0.1l-2.1-2.4l-0.1,4.1c0,0.1,0,0.2-0.1,0.3
							c0,0.1-0.1,0.2-0.1,0.2l-1.2,0.9c-0.1,0.1-0.1,0.1-0.1,0c0,0-0.1-0.1-0.1-0.2l0.4-8c0-0.1,0-0.2,0.1-0.3
							c0-0.1,0.1-0.2,0.1-0.2l0.7-0.6c0.1-0.1,0.2-0.1,0.2-0.1s0.1,0,0.1,0.1l2.1,2.6l0.1-4.1c0-0.1,0-0.2,0.1-0.3
							c0-0.1,0.1-0.2,0.1-0.2l1.2-0.9c0.1-0.1,0.1-0.1,0.1,0c0,0,0.1,0.1,0.1,0.2l-0.4,8c0,0.1,0,0.2-0.1,0.3c0,0.1-0.1,0.2-0.1,0.2
							L60.8,173.9z"/>
					</g>
					<g>
						<path class="st0" d="M67.2,160.8c0.1-0.1,0.2-0.1,0.2-0.1s0.1,0.1,0.1,0.2l1.7,6.1c0.1,0.2,0,0.4-0.1,0.6l-1.1,0.9
							c-0.1,0.1-0.2,0.1-0.2,0.1l-0.1-0.1l-0.2-0.8l-2.5,1.9l-0.2,1.2c0,0.1,0,0.2-0.1,0.3c0,0.1-0.1,0.2-0.2,0.3l-1.4,1
							c-0.1,0.1-0.1,0.1-0.1,0s0-0.2,0-0.3l2.4-9.3c0-0.1,0.1-0.2,0.1-0.4c0.1-0.1,0.1-0.3,0.2-0.4L67.2,160.8z M65.5,167.3l1.5-1.2
							l-0.6-2.3L65.5,167.3z"/>
					</g>
					<g>
						<path class="st0" d="M74.8,161.3c0.1-0.1,0.1-0.1,0.1,0c0,0,0.1,0.1,0.1,0.2v1.3c0,0.1,0,0.2-0.1,0.3c0,0.1-0.1,0.2-0.1,0.2
							l-4.4,3.3c-0.1,0.1-0.1,0.1-0.1,0c0,0-0.1-0.1-0.1-0.2l0.4-8c0-0.1,0-0.2,0.1-0.3c0-0.1,0.1-0.2,0.1-0.2L72,157
							c0.1-0.1,0.1-0.1,0.1,0c0,0,0.1,0.1,0.1,0.2l-0.2,6.2L74.8,161.3z"/>
					</g>
				</g>
				<g>
					<g>
						<path class="st9" d="M59.8,183.9c0-0.5,0.1-0.9,0.2-1.4c0.1-0.5,0.2-1,0.5-1.4c0.2-0.5,0.5-0.9,0.9-1.4
							c0.4-0.4,0.7-0.9,1.2-1.2c0.4-0.3,0.7-0.5,1.1-0.6c0.4-0.1,0.6-0.1,0.9,0s0.5,0.3,0.6,0.5c0.1,0.3,0.2,0.6,0.2,1.1
							c0,0.3,0,0.7,0,1.1s0,0.7-0.1,1.1c0,0.5-0.1,0.9-0.2,1.4s-0.2,1-0.5,1.4c-0.2,0.5-0.5,0.9-0.9,1.4c-0.4,0.4-0.7,0.9-1.2,1.2
							c-0.4,0.3-0.7,0.5-1.1,0.6c-0.4,0.1-0.6,0.1-0.9,0s-0.5-0.3-0.6-0.6s-0.2-0.6-0.2-1.1c0-0.3,0-0.7,0-1.1
							C59.8,184.6,59.8,184.3,59.8,183.9z M63.9,182.9c0-0.2,0-0.3,0-0.5s0-0.4,0-0.6c0-0.2,0-0.4,0-0.5c0-0.2,0-0.3,0-0.5
							s0-0.4-0.1-0.5c0-0.1-0.1-0.2-0.2-0.3c-0.1,0-0.2-0.1-0.4,0c-0.1,0-0.2,0.1-0.5,0.3c-0.2,0.1-0.4,0.3-0.5,0.5
							c-0.1,0.2-0.2,0.4-0.4,0.6c-0.1,0.2-0.1,0.4-0.2,0.6c0,0.2-0.1,0.4-0.1,0.6c0,0.1,0,0.3,0,0.5s0,0.4,0,0.5c0,0.2,0,0.4,0,0.5
							c0,0.2,0,0.3,0,0.5c0,0.4,0.1,0.6,0.2,0.8c0.1,0.1,0.5,0,0.9-0.3c0.4-0.3,0.7-0.7,0.9-1.1C63.7,183.7,63.8,183.3,63.9,182.9z"
							/>
					</g>
					<g>
						<path class="st9" d="M71.5,171.9c0.1-0.1,0.1-0.1,0.1,0c0,0,0.1,0.1,0.1,0.2v1.3c0,0.1,0,0.2-0.1,0.3c0,0.1-0.1,0.2-0.1,0.2
							l-2.7,2.1l-0.1,1.7l2.6-2c0.1-0.1,0.1-0.1,0.1,0c0,0,0.1,0.1,0,0.2v1.3c0,0.1,0,0.2-0.1,0.3c0,0.1-0.1,0.2-0.1,0.2l-2.6,2
							l-0.1,2.6c0,0.1,0,0.2-0.1,0.3c0,0.1-0.1,0.2-0.1,0.2l-1.2,0.9c-0.1,0.1-0.1,0.1-0.1,0c0,0-0.1-0.1-0.1-0.2l0.4-8
							c0-0.1,0-0.2,0.1-0.3c0-0.1,0.1-0.2,0.1-0.2L71.5,171.9z"/>
					</g>
					<g>
						<path class="st9" d="M77.4,167.4c0.1-0.1,0.1-0.1,0.1,0c0,0,0.1,0.1,0.1,0.2v1.3c0,0.1,0,0.2-0.1,0.3c0,0.1-0.1,0.2-0.1,0.2
							l-2.7,2.1l-0.1,1.7l2.6-2c0.1-0.1,0.1-0.1,0.1,0c0,0,0.1,0.1,0,0.2v1.3c0,0.1,0,0.2-0.1,0.3c0,0.1-0.1,0.2-0.1,0.2l-2.6,2
							l-0.1,2.6c0,0.1,0,0.2-0.1,0.3c0,0.1-0.1,0.2-0.1,0.2l-1.2,0.9c-0.1,0.1-0.1,0.1-0.1,0c0,0-0.1-0.1-0.1-0.2l0.4-8
							c0-0.1,0-0.2,0.1-0.3c0-0.1,0.1-0.2,0.1-0.2L77.4,167.4z"/>
					</g>
					<g>
						<path class="st9" d="M83.1,169.4c0.1-0.1,0.1-0.1,0.1,0c0,0,0.1,0.1,0.1,0.2v1.3c0,0.1,0,0.2-0.1,0.3c0,0.1-0.1,0.2-0.1,0.2
							l-4.5,3.4c-0.1,0.1-0.1,0.1-0.1,0c0,0-0.1-0.1-0.1-0.2l0.4-8c0-0.1,0-0.2,0.1-0.3c0-0.1,0.1-0.2,0.1-0.2l4.4-3.3
							c0.1-0.1,0.1-0.1,0.1,0c0,0,0.1,0.1,0.1,0.2v1.3c0,0.1,0,0.2-0.1,0.3c0,0.1-0.1,0.2-0.1,0.2l-2.9,2.2v1.3l2.7-2.1
							c0.1-0.1,0.1-0.1,0.1,0c0,0,0.1,0.1,0.1,0.2v1.3c0,0.1,0,0.2-0.1,0.3c0,0.1-0.1,0.2-0.1,0.2l-2.7,2.1v1.4L83.1,169.4z"/>
					</g>
					<g>
						<path class="st9" d="M87.4,159.7c0.4-0.3,0.7-0.5,1-0.6c0.4-0.1,0.6-0.2,0.9-0.1c0.2,0,0.4,0.2,0.6,0.4
							c0.1,0.2,0.2,0.6,0.1,1.1c0,0.6-0.1,1.2-0.4,1.7c-0.2,0.5-0.5,1-0.9,1.5l1,2v0.1c0,0.1,0,0.2-0.1,0.2c0,0.1-0.1,0.1-0.1,0.2
							l-1.1,0.9c-0.1,0.1-0.2,0.1-0.2,0.1l-0.1-0.1l-0.9-1.8l-1,0.7l-0.1,2.6c0,0.1,0,0.2-0.1,0.3c0,0.1-0.1,0.2-0.1,0.2l-1.2,0.9
							c-0.1,0.1-0.1,0.1-0.1,0c0,0-0.1-0.1-0.1-0.2l0.4-8c0-0.1,0-0.2,0.1-0.3c0-0.1,0.1-0.2,0.1-0.2L87.4,159.7z M86.3,164.1l1-0.8
							c0.2-0.2,0.5-0.4,0.6-0.7c0.1-0.3,0.2-0.6,0.2-0.9s-0.1-0.5-0.2-0.5c-0.1,0-0.4,0.1-0.6,0.3l-1,0.8V164.1z"/>
					</g>
				</g>
				<g id="XMLID_99_">
					<g id="XMLID_100_">
						<g id="XMLID_105_">
							<g>
								<g>
									<path class="st9" d="M55.8,150.2c-0.1,0.1-0.2,0.1-0.4,0.1c-0.1,0-0.1-0.2-0.1-0.3l0.1-2.3l-5.7,4.4
										c-0.1,0.1-0.2,0.1-0.4,0.1c-0.1,0-0.1-0.2-0.1-0.3l0.1-2.4c0-0.4,0.1-0.8,0.2-1.1l5.5-12.5c0.1-0.2,0.2-0.4,0.2-0.5
										c0.1-0.1,0.2-0.2,0.4-0.3l3-2.3c0.1-0.1,0.2-0.1,0.4-0.1c0.1,0,0.1,0.2,0.1,0.3l-0.4,8.7l1.4-1c0.1-0.1,0.2-0.1,0.4-0.1
										c0.1,0.1,0.1,0.2,0.1,0.3l-0.1,2.4c0,0.2-0.1,0.3-0.1,0.5c-0.1,0.2-0.2,0.3-0.4,0.4l-1.4,1l-0.1,2.3c0,0.2,0,0.3-0.1,0.5
										c-0.1,0.2-0.2,0.3-0.4,0.4L55.8,150.2z M55.7,144l0.1-4.1l-2.6,6L55.7,144z"/>
								</g>
								<g>
									<path class="st9" d="M67.4,125.9c0.9-0.6,1.5-1,2.1-1.2s1.1-0.1,1.5,0.1c0.4,0.2,0.7,0.6,1,1.2s0.4,1.2,0.4,2
										c0,0.6,0,1.3,0,2s-0.1,1.4-0.1,2c-0.1,0.8-0.2,1.7-0.4,2.5c-0.1,0.9-0.5,1.7-0.9,2.5c-0.4,0.8-0.9,1.6-1.5,2.4
										c-0.6,0.8-1.4,1.6-2.4,2.3c-0.7,0.6-1.5,1-2.1,1.1c-0.6,0.2-1.1,0.1-1.5-0.1c-0.4-0.2-0.7-0.6-1-1.1s-0.4-1.2-0.4-2
										c0-0.6,0-1.2,0-1.9s0.1-1.4,0.1-2c0.1-0.8,0.2-1.7,0.4-2.5c0.1-0.9,0.5-1.7,0.9-2.5s0.9-1.6,1.5-2.4
										C65.7,127.4,66.4,126.6,67.4,125.9z M69,134.4c0.1-1.3,0.1-2.6,0.1-3.8c0-0.4,0-0.7-0.1-0.9c0-0.3-0.1-0.5-0.2-0.6
										c-0.1-0.1-0.2-0.2-0.5-0.1c-0.2,0-0.5,0.2-0.9,0.5c-0.4,0.3-0.6,0.5-0.9,0.9c-0.2,0.3-0.4,0.6-0.6,1
										c-0.1,0.3-0.2,0.7-0.4,1.1c-0.1,0.4-0.1,0.7-0.1,1.1c-0.1,1.3-0.1,2.5-0.1,3.8c0,0.4,0,0.7,0.1,0.9c0,0.3,0.1,0.5,0.2,0.6
										s0.2,0.2,0.5,0.1c0.2,0,0.5-0.2,0.9-0.5c0.4-0.3,0.6-0.6,0.9-0.9c0.2-0.3,0.4-0.6,0.6-1c0.1-0.3,0.2-0.7,0.4-1.1
										C68.9,135.1,69,134.7,69,134.4z"/>
								</g>
								<g>
									<path class="st9" d="M79.4,120c0,0.6,0,1.2-0.1,1.7c0,0.5-0.1,0.9-0.2,1.3s-0.2,0.9-0.5,1.3c-0.2,0.4-0.5,0.8-0.7,1.2
										c-0.4,0.4-0.7,0.8-1.2,1.2c-0.4,0.3-0.7,0.5-1.1,0.6c-0.4,0.1-0.6,0.1-0.9,0c-0.2-0.1-0.4-0.3-0.5-0.6
										c-0.1-0.3-0.2-0.6-0.2-1.1c0-0.3,0-0.6,0-0.8c0-0.3,0-0.6,0.1-0.9c0-0.5,0.1-0.9,0.2-1.3c0.1-0.4,0.2-0.9,0.5-1.3
										c0.2-0.4,0.5-0.8,0.7-1.2c0.4-0.4,0.7-0.8,1.2-1.2c0.4-0.3,0.7-0.5,1.1-0.6s0.6-0.1,0.9,0c0.2,0.1,0.4,0.3,0.6,0.6
										C79.2,119.2,79.4,119.6,79.4,120z M77.4,133.2c-0.1,0.2-0.1,0.4-0.2,0.5c-0.1,0.1-0.2,0.3-0.4,0.4l-1.6,1.2
										c-0.1,0.1-0.2,0.1-0.4,0.1c-0.1-0.1,0-0.3,0-0.5l9.1-21.2c0.1-0.2,0.1-0.4,0.2-0.5s0.2-0.3,0.4-0.4l1.6-1.2
										c0.1-0.1,0.2-0.1,0.4-0.1c0.1,0.1,0,0.3,0,0.5L77.4,133.2z M75.9,124.1c0,0.4,0,0.6,0.1,0.7c0.1,0.1,0.2,0.1,0.5-0.1
										c0.2-0.2,0.4-0.4,0.5-0.7c0.1-0.3,0.1-0.6,0.2-1c0-0.3,0-0.5,0-0.8c0-0.2,0-0.5,0-0.7c0-0.4-0.1-0.6-0.1-0.7
										c-0.1-0.1-0.2-0.1-0.5,0.1s-0.4,0.4-0.5,0.7s-0.1,0.6-0.2,1c0,0.3,0,0.5,0,0.8C75.9,123.6,75.9,123.8,75.9,124.1z
										 M87.6,121.4c0,0.6,0,1.2-0.1,1.7c0,0.5-0.1,0.9-0.2,1.3s-0.2,0.9-0.5,1.3c-0.2,0.4-0.5,0.8-0.7,1.2
										c-0.4,0.4-0.7,0.8-1.2,1.2c-0.4,0.3-0.7,0.5-1.1,0.6c-0.4,0.1-0.6,0.1-0.9,0s-0.4-0.3-0.6-0.6c-0.1-0.3-0.2-0.6-0.2-1.1
										c0-0.3,0-0.6,0-0.8c0-0.3,0-0.6,0.1-0.9c0-0.5,0.1-0.9,0.2-1.3s0.2-0.9,0.5-1.3c0.2-0.4,0.5-0.8,0.7-1.2
										c0.4-0.4,0.7-0.8,1.2-1.2c0.4-0.3,0.7-0.5,1.1-0.6c0.4-0.1,0.6-0.1,0.9,0c0.2,0.1,0.4,0.3,0.5,0.6
										C87.4,120.6,87.6,121,87.6,121.4z M84.1,125.5c0,0.4,0,0.6,0.1,0.7c0.1,0.1,0.2,0.1,0.5-0.1s0.4-0.4,0.5-0.7
										c0.1-0.3,0.1-0.6,0.2-1c0-0.3,0-0.5,0-0.8c0-0.2,0-0.5,0-0.7c0-0.4-0.1-0.6-0.1-0.7c-0.1-0.1-0.2-0.1-0.5,0.1
										s-0.4,0.4-0.5,0.7c-0.1,0.3-0.1,0.6-0.2,1c0,0.3,0,0.5,0,0.8C84.1,125,84.1,125.2,84.1,125.5z"/>
								</g>
							</g>
							<g>
								<g>
									<path class="st9" d="M65.8,148.1c0-0.5,0.1-1.1,0.2-1.6c0.1-0.5,0.4-1.1,0.6-1.6c0.2-0.5,0.6-1,1-1.5
										c0.4-0.5,0.9-1,1.5-1.4c0.5-0.4,0.9-0.6,1.2-0.7c0.4-0.1,0.7-0.1,1,0s0.5,0.3,0.6,0.6c0.1,0.3,0.2,0.7,0.2,1.2
										c0,0.4,0,0.8,0,1.2s0,0.8-0.1,1.2c0,0.5-0.1,1.1-0.2,1.6s-0.4,1.1-0.6,1.6s-0.6,1-1,1.5s-0.9,1-1.5,1.4
										c-0.5,0.4-0.9,0.6-1.2,0.7c-0.4,0.1-0.7,0.1-1,0c-0.2-0.1-0.5-0.3-0.6-0.6c-0.1-0.3-0.2-0.7-0.2-1.2c0-0.4,0-0.8,0-1.2
										C65.8,148.9,65.8,148.5,65.8,148.1z M70.4,146.9c0-0.2,0-0.4,0-0.6c0-0.2,0-0.4,0-0.6c0-0.2,0-0.4,0-0.6c0-0.2,0-0.4,0-0.5
										c0-0.2,0-0.4-0.1-0.5c0-0.1-0.1-0.2-0.2-0.3s-0.2-0.1-0.4,0c-0.1,0-0.4,0.1-0.6,0.3s-0.4,0.4-0.6,0.6
										c-0.1,0.2-0.2,0.4-0.4,0.6c-0.1,0.2-0.2,0.5-0.2,0.7c-0.1,0.2-0.1,0.5-0.1,0.7s0,0.3,0,0.5s0,0.4,0,0.6c0,0.2,0,0.4,0,0.6
										c0,0.2,0,0.4,0,0.5c0,0.4,0.1,0.7,0.4,0.9c0.2,0.1,0.5,0,1-0.3s0.7-0.7,1-1.2C70.2,147.9,70.3,147.4,70.4,146.9z"/>
								</g>
								<g>
									<path class="st9" d="M78.9,134.7c0.1-0.1,0.1-0.1,0.2,0c0,0,0.1,0.1,0.1,0.2v1.4c0,0.1,0,0.2-0.1,0.3
										c0,0.1-0.1,0.2-0.2,0.3l-3.1,2.4l-0.1,1.9l3-2.2c0.1-0.1,0.1-0.1,0.2,0c0,0,0.1,0.1,0.1,0.2v1.4c0,0.1,0,0.2-0.1,0.3
										c0,0.1-0.1,0.2-0.2,0.3l-3,2.2l-0.1,2.9c0,0.1,0,0.2-0.1,0.3c0,0.1-0.1,0.2-0.2,0.3l-1.4,1.1c-0.1,0.1-0.1,0.1-0.2,0
										c0,0-0.1-0.1-0.1-0.2l0.4-8.9c0-0.1,0-0.2,0.1-0.3c0-0.1,0.1-0.2,0.2-0.3L78.9,134.7z"/>
								</g>
								<g>
									<path class="st9" d="M85.4,129.6c0.1-0.1,0.1-0.1,0.2,0c0,0,0.1,0.1,0.1,0.2v1.4c0,0.1,0,0.2-0.1,0.3
										c0,0.1-0.1,0.2-0.2,0.3l-3.1,2.4l-0.1,1.9l3-2.2c0.1-0.1,0.1-0.1,0.2,0c0,0,0.1,0.1,0.1,0.2v1.4c0,0.1,0,0.2-0.1,0.3
										c0,0.1-0.1,0.2-0.2,0.3l-3,2.2l-0.1,2.9c0,0.1,0,0.2-0.1,0.3c0,0.1-0.1,0.2-0.2,0.3l-1.4,1.1c-0.1,0.1-0.1,0.1-0.2,0
										c0,0-0.1-0.1-0.1-0.2l0.4-8.9c0-0.1,0-0.2,0.1-0.3c0-0.1,0.1-0.2,0.2-0.3L85.4,129.6z"/>
								</g>
							</g>
						</g>
						<g id="XMLID_101_">
							<g id="XMLID_104_">
								<g>
									<path class="st4" d="M51.7,164.1L51.7,164.1c-0.1,0-0.2-0.1-0.2-0.3v-6.1c0-0.1,0-0.2,0.1-0.3s0.1-0.2,0.2-0.2l4.2-0.4
										c0.1,0,0.2,0.1,0.2,0.2c0,0.1,0,0.2-0.1,0.3l-4.2,6.5c0,0.1-0.1,0.1-0.1,0.2l0,0C51.9,164.1,51.7,164.1,51.7,164.1z
										 M51.9,157.6L51.9,157.6c0,0.1,0,0.1,0,0.2v6l4.2-6.4v-0.1L51.9,157.6L51.9,157.6z"/>
								</g>
							</g>
							<g id="XMLID_103_">
								<g>
									<path class="st4" d="M55,161.4C55,161.4,54.9,161.4,55,161.4c-0.1,0-0.2-0.1-0.2-0.3v-6.2c0-0.2,0.1-0.4,0.4-0.4l0,0
										l4.4-0.4c0.1,0,0.1,0,0.2,0.1c0.1,0.1,0.1,0.3,0,0.4l-4.4,6.6C55.1,161.4,55.1,161.4,55,161.4z M54.9,161.1L54.9,161.1
										L54.9,161.1z M55.1,154.9v0.1v6l4.2-6.5c0,0,0,0,0-0.1L55.1,154.9z"/>
								</g>
							</g>
							<g id="XMLID_102_">
								<g>
									<path class="st4" d="M58.6,158.6L58.6,158.6c-0.1,0-0.2-0.1-0.2-0.3v-6.1c0-0.1,0-0.2,0.1-0.3c0.1-0.1,0.1-0.2,0.2-0.2
										l4.2-0.4c0.1,0,0.2,0.1,0.2,0.2c0,0.1,0,0.2-0.1,0.3l-4.2,6.5c0,0.1-0.1,0.1-0.1,0.2l0,0C58.7,158.6,58.6,158.6,58.6,158.6
										z M58.7,152L58.7,152c0,0.1,0,0.1,0,0.2v6l4.2-6.4v-0.1L58.7,152L58.7,152z"/>
								</g>
							</g>
						</g>
					</g>
				</g>
				<g>
					<g>
						<path class="st0" d="M58,197.4v-2.5l-0.5,0.2c0,0,0,0-0.1,0V195v-0.1c0-0.1,0-0.1,0-0.2c0,0,0-0.1,0.1-0.1l1.4-0.6
							c0,0,0,0,0.1,0v0.1v0.1c0,0.1,0,0.1,0,0.2c0,0,0,0.1-0.1,0.1l-0.5,0.2v2.5c0,0.1,0,0.2-0.1,0.2l-0.1,0.1
							C58,197.5,58,197.5,58,197.4z"/>
					</g>
					<g>
						<path class="st0" d="M59.2,196.8v-2.9c0-0.1,0-0.2,0.1-0.2l0.1-0.1c0.1-0.1,0.1,0,0.1,0v1.2l0.7-0.3v-1.2c0-0.1,0-0.2,0.1-0.2
							l0.1-0.1c0.1-0.1,0.1,0,0.1,0v2.9c0,0.1,0,0.2-0.1,0.2l-0.1,0.1c-0.1,0.1-0.1,0-0.1,0V195l-0.7,0.3v1.2c0,0.1,0,0.2-0.1,0.2
							l-0.1,0.1C59.3,196.9,59.2,196.9,59.2,196.8z"/>
					</g>
					<g>
						<path class="st0" d="M61.4,195.8v-2.9c0-0.1,0-0.2,0.1-0.2l0.1-0.1c0.1-0.1,0.1,0,0.1,0.1v2.9c0,0.1,0,0.2-0.1,0.2l-0.1,0.1
							C61.4,195.9,61.4,195.9,61.4,195.8z"/>
					</g>
					<g>
						<path class="st0" d="M62.4,195.3c-0.1,0-0.2,0-0.2,0s0,0,0-0.1c0,0,0,0,0-0.1s0-0.2,0-0.2c0-0.1,0-0.1,0.1-0.2c0,0,0,0,0.1,0
							l0,0c0.1,0,0.2,0,0.4,0c0.1,0,0.1-0.1,0.2-0.2c0.1-0.1,0.1-0.2,0.1-0.3s0-0.2-0.1-0.2c0,0-0.1-0.1-0.2-0.1
							c-0.1,0-0.2-0.1-0.2-0.1c-0.1,0-0.1-0.1-0.1-0.2c0-0.1-0.1-0.2-0.1-0.4c0-0.3,0.1-0.5,0.2-0.7c0.1-0.2,0.4-0.4,0.5-0.5
							c0.1,0,0.1-0.1,0.2-0.1c0.1,0,0.1,0,0.2,0c0,0,0,0,0,0.1s0,0.1,0,0.2c0,0.1,0,0.1-0.1,0.2c0,0,0,0-0.1,0c-0.1,0-0.1,0-0.2,0.1
							c-0.1,0-0.1,0.1-0.2,0.2c0,0.1-0.1,0.2-0.1,0.3s0,0.2,0,0.2l0.1,0.1c0,0,0.1,0,0.2,0.1c0.1,0,0.2,0.1,0.4,0.2
							c0.1,0.1,0.1,0.3,0.1,0.5s0,0.3-0.1,0.5c0,0.2-0.1,0.3-0.2,0.5c-0.1,0.1-0.2,0.2-0.4,0.3C62.7,195.2,62.6,195.3,62.4,195.3z"
							/>
					</g>
					<g>
						<path class="st0" d="M64.8,194.2l-0.5-2.7l0,0l0,0c0-0.1,0-0.1,0.1-0.2h0.1c0.1-0.1,0.2,0,0.2,0l0.2,1.7v0.4v0.2
							c0-0.1,0-0.4,0.1-0.7l0.2-2v-0.1c0,0,0,0,0.1-0.1l0.1-0.1h0.1l0,0l0.2,1.7c0,0.1,0,0.2,0,0.3s0,0.1,0,0.2l0.1-0.7l0.2-1.9
							c0-0.1,0.1-0.1,0.2-0.2h0.1c0.1-0.1,0.2-0.1,0.2,0v0.1l-0.5,3.1c0,0.1,0,0.1-0.1,0.2l-0.2,0.1c-0.1,0-0.1,0-0.1,0l-0.2-1.6
							v-0.5v0.5l-0.2,1.8c0,0.1,0,0.1-0.1,0.2l-0.2,0.1C64.8,194.3,64.8,194.3,64.8,194.2z"/>
					</g>
					<g>
						<path class="st0" d="M67.3,193.1V193v-2.8c0-0.1,0-0.1,0-0.1s0-0.1,0.1-0.1l1-0.5c0,0,0,0,0.1,0v0.1v0.1c0,0.1,0,0.1,0,0.2
							c0,0,0,0.1-0.1,0.1l-0.7,0.3v0.8l0.6-0.3c0,0,0,0,0.1,0v0.1v0.1c0,0.1,0,0.1,0,0.2c0,0,0,0.1-0.1,0.1l-0.6,0.3v0.8l0.7-0.3
							c0,0,0,0,0.1,0v0.1v0.1c0,0.1,0,0.1,0,0.2c0,0,0,0.1-0.1,0.1L67.3,193.1L67.3,193.1z"/>
					</g>
					<g>
						<path class="st0" d="M68.9,192.4v-0.1v-2.8c0-0.1,0-0.1,0-0.1s0-0.1,0.1-0.1l1-0.5c0,0,0,0,0.1,0v0.1v0.1c0,0.1,0,0.1,0,0.2
							c0,0,0,0.1-0.1,0.1l-0.7,0.3v0.8l0.6-0.3c0,0,0,0,0.1,0v0.1v0.1c0,0.1,0,0.1,0,0.2c0,0,0,0.1-0.1,0.1l-0.6,0.3v0.8l0.7-0.3
							c0,0,0,0,0.1,0v0.1v0.1c0,0.1,0,0.1,0,0.2c0,0,0,0.1-0.1,0.1L68.9,192.4L68.9,192.4z"/>
					</g>
					<g>
						<path class="st0" d="M72.1,190.8c0,0,0,0.1-0.1,0.1l-0.1,0.1h-0.1c0,0,0,0-0.1,0l-0.6-1.1l0,0v1.4c0,0.1-0.1,0.2-0.2,0.2
							l-0.1,0.1c-0.1,0.1-0.1,0-0.1,0v-2.9c0-0.1,0-0.2,0.1-0.2l0.1-0.1c0.1-0.1,0.2,0,0.2,0v1.3l0,0l0.6-1.7v-0.1
							c0,0,0.1,0,0.1-0.1l0.1-0.1c0.1-0.1,0.1-0.1,0.1,0v0.1l-0.6,1.7L72.1,190.8L72.1,190.8z"/>
					</g>
					<g>
						<path class="st0" d="M72.8,189c0-1.1,0.2-1.7,0.9-2s0.9,0.1,0.9,1.2s-0.2,1.7-0.9,2S72.8,190.1,72.8,189z M74,189.3
							c0.1-0.2,0.1-0.5,0.1-0.9s0-0.7-0.1-0.8s-0.1-0.2-0.4-0.1c-0.1,0.1-0.2,0.2-0.4,0.4c-0.1,0.2-0.1,0.5-0.1,0.9s0,0.7,0.1,0.8
							c0.1,0.1,0.1,0.2,0.4,0.1C73.8,189.6,73.9,189.5,74,189.3z"/>
					</g>
					<g>
						<path class="st0" d="M74.9,189.5v-2.9c0-0.1,0-0.2,0.1-0.2h0.1h0.1c0,0,0,0,0.1,0.1l0.7,1.3c0,0.1,0.1,0.1,0.1,0.3l0,0
							c0-0.1,0-0.2,0-0.3v-1.6c0-0.1,0-0.2,0.1-0.2h0.1c0.1-0.1,0.1,0,0.1,0v2.9c0,0.1,0,0.2-0.1,0.2h-0.1h-0.1c0,0,0,0-0.1-0.1
							l-0.7-1.4c0,0,0-0.1-0.1-0.2l0,0c0,0.1,0,0.2,0,0.3v1.6c0,0.1,0,0.2-0.1,0.2H75C75,189.6,74.9,189.5,74.9,189.5z"/>
					</g>
					<g>
						<path class="st0" d="M77.1,188.5v-0.1v-2.8c0-0.1,0-0.2,0.1-0.2l0.1-0.1c0.1,0,0.1,0,0.1,0s0,0,0,0.1v2.5l0.6-0.3
							c0,0,0,0,0.1,0v0.1v0.1c0,0.1,0,0.1,0,0.2c0,0,0,0.1-0.1,0.1L77.1,188.5C77.1,188.6,77.1,188.6,77.1,188.5z"/>
					</g>
					<g>
						<path class="st0" d="M78.7,187.7v-1.2l-0.6-1.3v-0.1c0-0.1,0.1-0.1,0.2-0.2l0.1-0.1h0.1l0,0l0.4,1l0.4-1.3v-0.1
							c0,0,0.1,0,0.1-0.1l0.1-0.1c0.1-0.1,0.2-0.1,0.2,0v0.1l-0.6,1.8v1.2c0,0.1,0,0.2-0.1,0.2l-0.1,0.1
							C78.7,187.8,78.7,187.8,78.7,187.7z"/>
					</g>
				</g>
				<g id="XMLID_97_">
					<g id="XMLID_98_">
						<path class="st0" d="M75.2,196.9L61.9,203c-0.1,0.1-0.2,0-0.2-0.2v-3.6c0-0.2,0.1-0.4,0.2-0.5l13.3-6.1c0.1-0.1,0.2,0,0.2,0.2
							v3.6C75.6,196.6,75.5,196.8,75.2,196.9z"/>
					</g>
					<g>
						<g>
							<path class="st9" d="M64.3,200.9L64.3,200.9v-2v-0.1c0,0,0,0,0.1-0.1l0.5-0.2c0.1-0.1,0.2-0.1,0.4,0c0.1,0.1,0.1,0.2,0.1,0.3
								s0,0.2,0,0.3s-0.1,0.2-0.1,0.3l0,0c0.1,0,0.1,0,0.2,0.1c0,0.1,0.1,0.2,0.1,0.3c0,0.2,0,0.4-0.1,0.5c-0.1,0.2-0.2,0.3-0.4,0.4
								L64.3,200.9L64.3,200.9z M64.8,199.4l0.1-0.1c0-0.1,0-0.1,0-0.2c0-0.1,0-0.2,0-0.2h-0.1l-0.2,0.1v0.6L64.8,199.4z
								 M64.8,200.4c0.1-0.1,0.2-0.2,0.2-0.4c0-0.1,0-0.2,0-0.2h-0.1l-0.2,0.1v0.6L64.8,200.4z"/>
						</g>
						<g>
							<path class="st9" d="M65.7,200.1c-0.1-0.1-0.1-0.2-0.1-0.4v-1.5c0-0.1,0-0.1,0.1-0.1h0.1c0.1,0,0.1,0,0.1,0v1.4
								c0,0.1,0,0.2,0.1,0.2h0.1c0.1,0,0.1-0.1,0.1-0.2c0-0.1,0.1-0.2,0.1-0.3v-1.4c0-0.1,0-0.1,0.1-0.1h0.1c0.1,0,0.1,0,0.1,0v1.5
								c0,0.2,0,0.4-0.1,0.5c-0.1,0.2-0.2,0.3-0.4,0.4C65.9,200.2,65.8,200.2,65.7,200.1z"/>
						</g>
						<g>
							<path class="st9" d="M67.3,199.4v-0.8l-0.4-0.9c0,0,0,0,0-0.1c0,0,0-0.1,0.1-0.1h0.1h0.1l0,0l0.2,0.7l0.2-0.9c0,0,0,0,0-0.1
								c0,0,0,0,0.1,0H68c0.1,0,0.1,0,0.1,0s0,0,0,0.1l-0.4,1.3v0.9c0,0.1,0,0.1-0.1,0.1h-0.1C67.4,199.5,67.3,199.5,67.3,199.4z"/>
						</g>
						<g>
							<path class="st9" d="M68.5,198.9v-2c0-0.1,0-0.1,0.1-0.1h0.1c0,0,0,0,0.1,0l0,0l0.5,0.9c0,0,0,0.1,0.1,0.2l0,0
								c0-0.1,0-0.2,0-0.2v-1.1c0-0.1,0-0.1,0.1-0.1l0,0c0.1,0,0.1,0,0.1,0v2c0,0.1,0,0.1-0.1,0.1l0,0c0,0,0,0-0.1,0l0,0l-0.5-0.9
								c0,0,0-0.1-0.1-0.2l0,0c0,0.1,0,0.1,0,0.2v1.1c0,0.1,0,0.1-0.1,0.1l0,0C68.7,198.9,68.5,198.9,68.5,198.9z"/>
						</g>
						<g>
							<path class="st9" d="M70,197.2c0-0.7,0.2-1.2,0.6-1.4s0.6,0.1,0.6,0.8s-0.2,1.2-0.6,1.4S70,197.9,70,197.2z M70.9,197.4
								c0-0.1,0.1-0.3,0.1-0.6s0-0.5-0.1-0.5c0-0.1-0.1-0.1-0.2-0.1s-0.1,0.1-0.2,0.3c0,0.1-0.1,0.3-0.1,0.6s0,0.5,0.1,0.6
								c0,0.1,0.1,0.1,0.2,0.1C70.8,197.6,70.8,197.5,70.9,197.4z"/>
						</g>
						<g>
							<path class="st9" d="M71.8,197.4l-0.4-1.8l0,0l0,0c0,0,0-0.1,0.1-0.1l0,0c0.1,0,0.1,0,0.1,0l0.1,1.2v0.3v0.1
								c0-0.1,0-0.3,0-0.5l0.1-1.4c0,0,0,0,0-0.1c0,0,0,0,0.1,0h0.1c0,0,0,0,0.1,0l0,0l0.1,1.2c0,0,0,0.1,0,0.2c0,0,0,0.1,0,0.2
								v-0.5l0.1-1.3c0-0.1,0-0.1,0.1-0.1l0,0c0.1,0,0.1,0,0.1,0l0,0l-0.4,2.2c0,0,0,0.1-0.1,0.1l-0.1,0.1c-0.1,0-0.1,0-0.1,0
								l-0.1-1.1v-0.3v0.4l-0.2,1.3c0,0,0,0.1-0.1,0.1L71.8,197.4C71.8,197.5,71.8,197.5,71.8,197.4z"/>
						</g>
					</g>
				</g>
			</g>
		</g>
		<g id="x_5_">
			<path id="XMLID_96_" class="st26" d="M102.6,95l-1.5-0.7l0,0l0,0l0,0c-0.6-0.3-1.5-0.2-2.5,0.2c-2,0.9-3.5,3.1-3.5,4.9
				c0,0.9,0.4,1.5,1,1.8l0,0l0,0l0,0l1.4,0.6l0.4-0.4c0.4-0.1,0.6-0.2,1-0.3c2-0.9,3.5-3.1,3.5-4.9c0-0.3,0-0.5-0.1-0.7L102.6,95z"
				/>
			<path id="XMLID_95_" class="st7" d="M102.6,95l-1.5-0.7l0,0l0,0l0,0c-0.6-0.3-1.5-0.2-2.5,0.2c-2,0.9-3.5,3.1-3.5,4.9
				c0,0.9,0.4,1.5,1,1.8l0,0l0,0l0,0l1.4,0.6l0.4-0.4c0.4-0.1,0.6-0.2,1-0.3c2-0.9,3.5-3.1,3.5-4.9c0-0.3,0-0.5-0.1-0.7L102.6,95z"
				/>
			<path id="XMLID_94_" class="st26" d="M95.2,98.4C95,98.7,95,99,95,99.4c0,0.9,0.4,1.5,1,1.8l0,0l0,0l0,0l1.4,0.6l0.4-0.4
				c0.4-0.1,0.6-0.2,1-0.3c0.4-0.2,0.6-0.3,1-0.6L95.2,98.4z"/>
			<path id="XMLID_93_" class="st26" d="M100,95.1c-2,0.9-3.5,3.1-3.5,4.9s1.6,2.5,3.5,1.6c2-0.9,3.5-3.1,3.5-4.9
				C103.6,94.9,101.9,94.2,100,95.1z"/>
			<path id="XMLID_92_" class="st24" d="M100,95.1c-2,0.9-3.5,3.1-3.5,4.9s1.6,2.5,3.5,1.6c2-0.9,3.5-3.1,3.5-4.9
				C103.6,94.9,101.9,94.2,100,95.1z"/>
			<path id="XMLID_91_" class="st4" d="M100.5,98.3l1-1.6c0.1-0.2,0.1-0.4,0-0.5s-0.4-0.1-0.5,0.1l-1,1.6l-1-0.7
				c-0.1-0.1-0.2,0-0.4,0.2c-0.1,0.2-0.1,0.4,0,0.5l1,0.7l-1,1.6c-0.1,0.2-0.1,0.4,0,0.5c0.2,0.1,0.4,0,0.5-0.1l1-1.6l0.9,0.7
				c0,0,0.1,0,0.2,0s0.1-0.1,0.2-0.2c0.1-0.2,0.1-0.4,0-0.5L100.5,98.3z"/>
		</g>
	</g>
</g>
<g id="Ad_1">
	<g id="Ad_7_">
		<g id="Speech_Bubble_2_">
			<g id="XMLID_41_">
				<g id="XMLID_43_">
					<path class="st5" d="M183.7,109.5c0-0.1,0-0.1,0.1-0.2l0,0C183.8,109.4,183.8,109.5,183.7,109.5z"/>
					<path class="st16" d="M246.1,80.7c-0.1-0.2-0.2-0.3-0.4-0.3c-0.1,0-0.2,0-0.4,0.1l-60.9,28.3c-0.2,0.1-0.4,0.3-0.6,0.5
						l-2.4-1.1c0.1-0.2,0.4-0.4,0.5-0.5l60.9-28.3c0.5-0.2,1.1-0.2,1.6,0l0.9,0.4C245.8,80,246.1,80.4,246.1,80.7z"/>
				</g>
				<g id="XMLID_42_" class="st17">
					<path class="st2" d="M184.5,163.3c-0.4,0.2-1.2,0.2-1.6,0l-0.9-0.4c-0.5-0.2-0.9-0.7-0.9-1.1v-52.9c0-0.2,0.1-0.5,0.2-0.7
						l2.4,1.1c-0.1,0.2-0.2,0.4-0.2,0.6v52.9C183.6,163.3,184,163.6,184.5,163.3z"/>
				</g>
			</g>
			<g class="st18">
				<path class="st0" d="M245.8,80.5c-0.1,0-0.2,0-0.4,0.1l-60.9,28.3c-0.5,0.2-0.7,0.7-0.7,1.1v52.9c0,0.3,0.1,0.5,0.5,0.5
					c0.1,0,0.2,0,0.4-0.1l60.9-28.3c0.5-0.2,0.7-0.7,0.7-1.1v-53C246.1,80.7,246,80.5,245.8,80.5L245.8,80.5z"/>
			</g>
			<g>
				<path class="st1" d="M245.6,81v52.9c0,0.2-0.2,0.6-0.5,0.7l-60.9,28.3V110c0-0.2,0.2-0.6,0.5-0.7L245.6,81 M245.8,80.5
					c-0.1,0-0.2,0-0.4,0.1l-60.9,28.3c-0.5,0.2-0.7,0.7-0.7,1.1v52.9c0,0.3,0.1,0.5,0.5,0.5c0.1,0,0.2,0,0.4-0.1l60.9-28.3
					c0.5-0.2,0.7-0.7,0.7-1.1v-53C246.1,80.7,246,80.5,245.8,80.5L245.8,80.5z"/>
			</g>
		</g>
		<path id="Shadow_2_" class="st19" d="M239.6,131V87c0-0.8-0.7-1.2-1.6-0.8L188.7,109c-0.9,0.4-1.6,1.4-1.6,2.3v44
			c0,0.8,0.7,1.2,1.6,0.8l49.3-22.8C238.8,132.8,239.6,131.8,239.6,131z"/>
		<g id="x_4_">
			<path id="XMLID_40_" class="st27" d="M248.9,79.1l-1.5-0.7l0,0l0,0l0,0c-0.6-0.3-1.5-0.2-2.5,0.2c-2,0.9-3.5,3.1-3.5,4.9
				c0,0.9,0.4,1.5,1,1.8l0,0l0,0l0,0l1.4,0.6l0.4-0.4c0.4-0.1,0.6-0.2,1-0.3c2-0.9,3.5-3.1,3.5-4.9c0-0.3,0-0.5-0.1-0.7L248.9,79.1z
				"/>
			<path id="XMLID_39_" class="st7" d="M248.9,79.1l-1.5-0.7l0,0l0,0l0,0c-0.6-0.3-1.5-0.2-2.5,0.2c-2,0.9-3.5,3.1-3.5,4.9
				c0,0.9,0.4,1.5,1,1.8l0,0l0,0l0,0l1.4,0.6l0.4-0.4c0.4-0.1,0.6-0.2,1-0.3c2-0.9,3.5-3.1,3.5-4.9c0-0.3,0-0.5-0.1-0.7L248.9,79.1z
				"/>
			<path id="XMLID_38_" class="st27" d="M241.5,82.6c-0.1,0.3-0.1,0.6-0.1,1c0,0.9,0.4,1.5,1,1.8l0,0l0,0l0,0l1.4,0.6l0.4-0.4
				c0.4-0.1,0.6-0.2,1-0.3c0.4-0.2,0.6-0.3,1-0.6L241.5,82.6z"/>
			<path id="XMLID_37_" class="st27" d="M246.3,79.3c-2,0.9-3.5,3.1-3.5,4.9s1.6,2.5,3.5,1.6c2-0.9,3.5-3.1,3.5-4.9
				C249.9,79.1,248.3,78.4,246.3,79.3z"/>
			<path id="XMLID_36_" class="st24" d="M246.3,79.3c-2,0.9-3.5,3.1-3.5,4.9s1.6,2.5,3.5,1.6c2-0.9,3.5-3.1,3.5-4.9
				C249.9,79.1,248.3,78.4,246.3,79.3z"/>
			<path id="XMLID_35_" class="st4" d="M246.8,82.4l1-1.6c0.1-0.2,0.1-0.4,0-0.5c-0.1-0.1-0.4-0.1-0.5,0.1l-1,1.6l-1-0.7
				c-0.1-0.1-0.2,0-0.4,0.2c-0.1,0.2-0.1,0.4,0,0.5l1,0.7l-1,1.6c-0.1,0.2-0.1,0.4,0,0.5c0.2,0.1,0.4,0,0.5-0.1l1-1.6l0.9,0.7
				c0,0,0.1,0,0.2,0c0.1,0,0.1-0.1,0.2-0.2c0.1-0.2,0.1-0.4,0-0.5L246.8,82.4z"/>
		</g>
		<g id="Ad_8_">
			<g>
				<path class="st28" d="M241.2,131.7v-44c0-0.8-0.7-1.2-1.6-0.8l-49.3,22.9c-0.9,0.4-1.6,1.4-1.6,2.3v44c0,0.8,0.7,1.2,1.6,0.8
					l49.3-22.8C240.4,133.6,241.2,132.6,241.2,131.7z"/>
				<path class="st29" d="M241.2,131.7v-44c0-0.8-0.7-1.2-1.6-0.8l-49.3,22.9c-0.9,0.4-1.6,1.4-1.6,2.3v44c0,0.8,0.7,1.2,1.6,0.8
					l49.3-22.8C240.4,133.6,241.2,132.6,241.2,131.7z"/>
			</g>
			<g id="Text_1_">
				<g id="XMLID_32_">
					<path id="XMLID_33_" class="st9" d="M214.2,141.1c-10.3,4.7-18.5-0.3-18.5-11.3s8.3-23.8,18.5-28.6
						c10.3-4.7,18.5,0.3,18.5,11.3C232.7,123.5,224.5,136.4,214.2,141.1z"/>
				</g>
				<g>
					<g>
						<path class="st1" d="M205.3,132.7c0.2,0.4,0.7,0.4,1.5-0.1c0.6-0.4,0.9-0.8,0.9-1.2c-0.1-0.6-0.9-0.1-1.7,0.3
							c-0.9,0.4-2.1,0.7-2.4-0.7c-0.2-1.3,0.6-2.6,2.1-3.6c1.4-0.9,2.4-1,3-0.1l-1.4,1.4c-0.2-0.4-0.6-0.4-1.4,0.1
							c-0.6,0.4-0.7,0.8-0.7,1.1c0.1,0.5,0.7,0.2,1.7-0.2c1-0.4,2.1-0.7,2.4,0.6s-0.6,2.6-2.1,3.7c-1.1,0.8-2.5,1.3-3.1,0.1
							L205.3,132.7z"/>
						<path class="st1" d="M211.7,129.5l-0.2,1.3l-1.6,1.1l1.2-8.2l1.7-1.2l3.7,4.7l-1.6,1.1l-0.6-0.8L211.7,129.5z M212.9,125.7
							c-0.2-0.4-0.5-0.7-0.5-0.7l0,0c0,0-0.1,0.5-0.1,1.2l-0.2,1.6l1.7-1.1L212.9,125.7z"/>
						<path class="st1" d="M216.2,120.6l1.6-1l1,5l2.9-1.9l0.2,1.4l-4.5,3L216.2,120.6z"/>
						<path class="st1" d="M221.5,117l4.7-3.1l0.2,1.4l-3.2,2.1l0.2,1.1l2.4-1.5l0.2,1.3l-2.4,1.5l0.2,1.2l3.2-2.1l0.2,1.4l-4.7,3.2
							L221.5,117z"/>
					</g>
				</g>
				<g>
					<g>
						<path class="st1" d="M208.3,118.1c1-0.4,2-0.1,2.2,1.2c0.2,1.5-0.6,3.6-3.1,5.3l-4.4,2.9l-1.9-10l4.4-2.9
							c1.9-1.2,3.2-0.8,3.6,0.6C209.5,116.3,208.8,117.5,208.3,118.1L208.3,118.1z M206,119c0.6-0.4,1-1.1,0.9-1.7s-0.6-0.7-1.2-0.2
							l-1.5,1l0.4,2L206,119z M207,122.9c0.9-0.6,1.2-1.3,1.1-2s-0.7-0.8-1.5-0.3l-1.7,1.1l0.4,2.3L207,122.9z"/>
						<path class="st1" d="M210.4,111.5l2.4-1.6l1.9,10l-2.4,1.6L210.4,111.5z"/>
						<path class="st1" d="M224.1,113.7c-0.1-0.6-0.1-0.6-0.1-0.7l0,0c-0.5,0.9-1.5,2-2.6,2.8c-2.9,1.9-5.6,1.3-6.1-1.7
							c-0.6-3,1.2-6.6,4.2-8.7c2.2-1.5,4.2-1.4,5.2-0.2l-2.2,2.2c-0.5-0.4-1.4-0.5-2.6,0.3c-1.6,1.1-2.5,3-2.1,4.7
							c0.4,1.8,1.7,2.1,3.5,1c1.4-0.9,2.1-2.1,2.4-2.7l-0.1-0.5l-2.5,1.7l-0.4-2.2l4.7-3.2l1.1,5.8L224.1,113.7z"/>
					</g>
				</g>
				<g>
					<g>
						<path class="st12" d="M205.6,138.6L205.6,138.6l0.4-0.3v0.1c0,0.2,0.2,0.2,0.4,0.1c0.2-0.1,0.4-0.4,0.2-0.6
							c0-0.2-0.2-0.2-0.4-0.1c-0.4,0.3-0.7,0.2-0.9-0.2c-0.1-0.4,0.1-0.8,0.6-1.1c0.4-0.3,0.7-0.2,0.9,0.2v0.1l-0.4,0.2v-0.1
							c0-0.2-0.2-0.2-0.4-0.1c-0.2,0.1-0.4,0.4-0.2,0.6c0,0.2,0.2,0.2,0.4,0.1c0.4-0.3,0.7-0.2,0.7,0.2c0.1,0.4-0.1,0.8-0.5,1.1
							C206.1,139,205.7,139,205.6,138.6z"/>
						<path class="st12" d="M208.7,135.5l0.2,1.6l-0.4,0.2l-0.2-1.5c0-0.2-0.2-0.3-0.4-0.1c-0.2,0.1-0.4,0.4-0.2,0.6l0.2,1.5
							l-0.4,0.2l-0.6-3l0.4-0.2l0.1,1c0.1-0.2,0.2-0.4,0.4-0.5C208.3,135,208.6,135,208.7,135.5z"/>
						<path class="st12" d="M209.3,136.1l-0.1-0.9c-0.1-0.4,0.1-0.9,0.6-1.2c0.4-0.3,0.7-0.2,0.9,0.3l0.1,0.9
							c0.1,0.4-0.1,0.9-0.6,1.2C209.7,136.6,209.5,136.5,209.3,136.1z M210.4,135.4l-0.1-0.9c0-0.2-0.2-0.3-0.5-0.1
							c-0.2,0.2-0.4,0.4-0.2,0.6l0.1,0.9c0,0.2,0.2,0.3,0.5,0.1C210.3,135.8,210.4,135.6,210.4,135.4z"/>
						<path class="st12" d="M212.4,132.9l0.1,0.9c0.1,0.5-0.1,0.9-0.5,1.1c-0.1,0.1-0.4,0.2-0.5,0.1l0.1,0.9l-0.4,0.2l-0.5-2.9
							l0.4-0.2v0.1c0.1-0.2,0.2-0.3,0.4-0.5C212.1,132.4,212.3,132.5,212.4,132.9z M212.2,133.1c0-0.2-0.2-0.3-0.5-0.1
							s-0.4,0.4-0.2,0.6l0.1,0.9c0,0.2,0.2,0.3,0.5,0.1s0.4-0.4,0.2-0.6L212.2,133.1z"/>
						<path class="st12" d="M215.3,132c0.1,0.4-0.1,0.9-0.6,1.2c-0.4,0.3-0.7,0.2-0.9-0.2l-0.1-0.9c-0.1-0.4,0.1-0.9,0.6-1.2
							c0.4-0.3,0.7-0.2,0.9,0.3l0,0l-0.4,0.2v-0.1c0-0.2-0.2-0.3-0.5-0.1s-0.4,0.4-0.2,0.6l0.1,0.9c0,0.2,0.2,0.3,0.5,0.1
							c0.2-0.2,0.4-0.4,0.2-0.6v-0.1L215.3,132L215.3,132z"/>
						<path class="st12" d="M215.3,129.4l0.4-0.2l0.6,3l-0.4,0.2L215.3,129.4z"/>
						<path class="st12" d="M217,130.6l0.1,0.4c0,0.2,0.2,0.3,0.5,0.1s0.4-0.4,0.2-0.6v-0.1l0.4-0.2l0,0c0.1,0.4-0.1,0.9-0.6,1.2
							c-0.4,0.3-0.7,0.2-0.9-0.2l-0.1-0.9c-0.1-0.4,0.1-0.9,0.6-1.2c0.4-0.3,0.7-0.2,0.9,0.3l0.1,0.5L217,130.6z M216.8,130.1v0.2
							l0.7-0.5v-0.2c0-0.2-0.2-0.3-0.5-0.1C216.8,129.6,216.7,129.8,216.8,130.1z"/>
						<path class="st12" d="M219.8,128.2l0.2,1.5l-0.4,0.2v-0.2c-0.1,0.2-0.2,0.4-0.5,0.5c-0.4,0.3-0.6,0.2-0.7-0.2
							c0-0.3,0.1-0.6,0.2-0.8c0.2-0.3,0.7-0.6,0.6-0.9l0,0c0-0.2-0.2-0.3-0.5-0.1c-0.2,0.2-0.4,0.4-0.2,0.6v0.1l-0.4,0.2V129
							c-0.1-0.4,0.1-0.9,0.6-1.2C219.4,127.7,219.7,127.8,219.8,128.2z M219.7,129.2l-0.1-0.4c-0.1,0.2-0.4,0.4-0.5,0.5
							c-0.1,0.2-0.2,0.3-0.2,0.5s0.2,0.2,0.4,0.1C219.5,129.8,219.7,129.5,219.7,129.2z"/>
						<path class="st12" d="M221,126.6v0.3l-0.1,0.1c-0.2,0.1-0.4,0.4-0.2,0.6l0.2,1.5l-0.4,0.2l-0.4-2.2l0.4-0.2v0.2
							C220.6,126.9,220.8,126.8,221,126.6L221,126.6z"/>
						<path class="st12" d="M222.8,126.2l0.2,1.5l-0.4,0.2v-0.2c-0.1,0.2-0.2,0.4-0.5,0.5c-0.4,0.3-0.6,0.2-0.7-0.2
							c0-0.3,0.1-0.6,0.2-0.8c0.2-0.3,0.7-0.6,0.6-0.9l0,0c0-0.2-0.2-0.3-0.5-0.1c-0.2,0.2-0.4,0.4-0.2,0.6v0.1l-0.4,0.2V127
							c-0.1-0.4,0.1-0.9,0.6-1.2C222.4,125.7,222.6,125.8,222.8,126.2z M222.6,127.3l-0.1-0.4c-0.1,0.2-0.4,0.4-0.5,0.5
							c-0.1,0.2-0.2,0.3-0.2,0.5c0,0.2,0.2,0.2,0.4,0.1C222.5,127.8,222.6,127.5,222.6,127.3z"/>
						<path class="st12" d="M224.6,124.9l0.2,1.5l-0.4,0.2l-0.1-1.5c0-0.2-0.2-0.3-0.4-0.1c-0.2,0.1-0.4,0.4-0.2,0.6l0.2,1.5
							l-0.4,0.2l-0.4-2.2l0.4-0.2v0.1c0.1-0.2,0.2-0.4,0.4-0.5C224.3,124.4,224.6,124.5,224.6,124.9z"/>
						<path class="st12" d="M226.7,124.5c0.1,0.4-0.1,0.9-0.6,1.2c-0.4,0.3-0.7,0.2-0.9-0.2l-0.1-0.9c-0.1-0.4,0.1-0.9,0.6-1.2
							c0.4-0.3,0.7-0.2,0.9,0.3l0,0l-0.4,0.2v-0.1c0-0.2-0.2-0.3-0.5-0.1c-0.2,0.2-0.4,0.4-0.2,0.6l0.1,0.9c0,0.2,0.2,0.3,0.5,0.1
							c0.2-0.2,0.4-0.4,0.2-0.6v-0.1L226.7,124.5L226.7,124.5z"/>
						<path class="st12" d="M227.4,123.7l0.1,0.4c0,0.2,0.2,0.3,0.5,0.1c0.2-0.2,0.4-0.4,0.2-0.6v-0.1l0.4-0.2l0,0
							c0.1,0.4-0.1,0.9-0.6,1.2c-0.4,0.3-0.7,0.2-0.9-0.2l-0.1-0.9c-0.1-0.4,0.1-0.9,0.6-1.2c0.4-0.3,0.7-0.2,0.9,0.3l0.1,0.5
							L227.4,123.7z M227.2,123.2v0.2l0.7-0.5v-0.2c0-0.2-0.2-0.3-0.5-0.1C227.2,122.7,227.2,123,227.2,123.2z"/>
					</g>
				</g>
				<g>
					<g>
						<g>
							<polyline id="XMLID_30_" class="st0" points="232.1,130.2 224,139.7 226.6,134.3 232.1,130.2 							"/>
						</g>
						<g id="XMLID_23_">
							<polygon id="XMLID_26_" class="st2" points="213.6,136.1 231.1,124.6 232.1,130.2 214.9,142.6 							"/>
						</g>
					</g>
					<g>
						<g>
							<path class="st9" d="M215.3,139.3v-0.1l0.5-0.3v0.1c0,0.2,0.1,0.2,0.4,0.1c0.1-0.1,0.2-0.3,0.2-0.4v-0.3
								c0-0.2-0.1-0.2-0.4-0.1c-0.5,0.3-0.7,0.2-0.9-0.3l-0.1-0.4c-0.1-0.4,0.1-0.9,0.6-1.2c0.5-0.3,0.7-0.2,0.9,0.3v0.1l-0.5,0.3
								V137c0-0.2-0.1-0.2-0.4-0.1c-0.1,0.1-0.2,0.3-0.2,0.5l0.1,0.4c0,0.2,0.1,0.2,0.4,0.1c0.5-0.3,0.7-0.2,0.9,0.3v0.3
								c0.1,0.4-0.1,0.9-0.6,1.2C215.8,139.9,215.4,139.8,215.3,139.3z"/>
							<path class="st9" d="M217,135.7l0.5-0.3l0.2,1.5l0.5-0.3l-0.2-1.5l0.5-0.3l0.6,3l-0.5,0.3l-0.2-1l-0.5,0.3l0.2,1l-0.5,0.3
								L217,135.7z"/>
							<path class="st9" d="M219.4,136.7l-0.2-1.7c-0.1-0.4,0.1-0.9,0.6-1.2c0.5-0.3,0.7-0.2,0.9,0.2l0.2,1.7
								c0.1,0.4-0.1,0.9-0.6,1.2C219.9,137.2,219.5,137.1,219.4,136.7z M220.5,136l-0.2-1.7c0-0.2-0.1-0.2-0.4-0.1
								c-0.1,0.1-0.2,0.3-0.2,0.4l0.2,1.7c0,0.2,0.1,0.2,0.4,0.1C220.4,136.3,220.5,136.2,220.5,136z"/>
							<path class="st9" d="M221.1,132.9l0.7-0.5c0.5-0.3,0.7-0.2,0.9,0.2l0.1,0.4c0.1,0.4-0.1,0.9-0.6,1.2l-0.2,0.2l0.2,1.2
								l-0.5,0.3L221.1,132.9z M222.1,133.7c0.1-0.1,0.2-0.3,0.2-0.4l-0.1-0.4c0-0.2-0.1-0.2-0.2-0.1l-0.2,0.2l0.1,0.9L222.1,133.7z
								"/>
							<path class="st9" d="M225.4,130l0.6,3l-0.4,0.2l-1-1.3l0.4,1.8l-0.5,0.3l-0.6-3l0.4-0.2l1,1.3l-0.4-1.8L225.4,130z"/>
							<path class="st9" d="M226.5,131.9l-0.2-1.7c-0.1-0.4,0.1-0.9,0.6-1.2c0.5-0.3,0.7-0.2,0.9,0.2l0.2,1.7
								c0.1,0.4-0.1,0.9-0.6,1.2C226.9,132.5,226.5,132.4,226.5,131.9z M227.5,131.3l-0.2-1.7c0-0.2-0.1-0.2-0.4-0.1
								c-0.1,0.1-0.2,0.3-0.2,0.4l0.2,1.7c0,0.2,0.1,0.2,0.4,0.1C227.4,131.6,227.5,131.4,227.5,131.3z"/>
							<path class="st9" d="M230.3,126.7l0.1,3.3l-0.5,0.3l-0.6-1.5v2l-0.5,0.3l-1-2.8l0.5-0.3l0.6,1.8v-2.2l0.4-0.3l0.7,1.8
								L230,127L230.3,126.7z"/>
						</g>
					</g>
				</g>
			</g>
		</g>
	</g>
</g>
<g id="Character">
	<g id="Character_1_">
		<g id="Bottom_1_">
			<g>
				<g>
					<path class="st30" d="M180.7,225.6l5.5-8.5l12.6,5c-6.5,5-13.6,11.2-15.2,13.4c0,0-6.7-1.3-7.7-4
						C174.8,228.8,178.9,226.6,180.7,225.6z"/>
					<g>
						<path class="st2" d="M173,228.9c-0.6,0.4-1.1,0.8-1.5,1.3c-0.5,0.5-0.4,3-0.7,4.2s-0.7,1.5-1.5,2.9c-0.7,1.6-2.2,3.1-0.7,7.2
							c1.5,4.2,4.1,6.2,6.2,7.2c1.1,0.5,2.6,0.5,2.6,0.5s2.9-0.8,2.5-2.2C179.5,248.8,173,228.9,173,228.9z"/>
						<path id="XMLID_57_" class="st13" d="M185.4,233.6c-0.1,0.4-0.9,1.1-1.1,1.4c-1,1.2-1.5,2.7-1.9,4.1c-1.7,6.5,1.4,10-3,12.4
							c-1.2,0.6-3.9,0.4-7.8-3.7c-2-2.1-3.1-6.5-2.2-8.5c0.9-2,2-3.2,2.5-4.7s0.4-4.3,1.4-5.6c0.6-0.8,1.6-1.3,2.6-1.7
							c0.7-0.4,2.5-0.9,3.2-1.2c0.9-0.4,1.2-0.8,1.7-0.3l-0.9,0.9c-1.5,1.6-1.1,1.8-1,2.7c0,0.9-0.4,1.8-0.6,2.7
							c1-1,1.5-1.9,2.6-1.7c1,0.2,1.2,0.1,2.9,1.3C185.4,232.9,185.4,233.2,185.4,233.6z"/>
						<path id="XMLID_56_" class="st31" d="M185.4,233.6c-0.1,0.4-0.9,1.1-1.1,1.4c-1,1.2-1.5,2.7-1.9,4.1c-1.7,6.5,1.4,10-3,12.4
							c-1.2,0.6-3.9,0.4-7.8-3.7c-2-2.1-3.1-6.5-2.2-8.5c0.9-2,2-3.2,2.5-4.7s0.4-4.3,1.4-5.6c0.6-0.8,1.6-1.3,2.6-1.7
							c0.7-0.4,2.5-0.9,3.2-1.2c0.9-0.4,1.2-0.8,1.7-0.3l-0.9,0.9c-1.5,1.6-1.1,1.8-1,2.7c0,0.9-0.4,1.8-0.6,2.7
							c1-1,1.5-1.9,2.6-1.7c1,0.2,1.2,0.1,2.9,1.3C185.4,232.9,185.4,233.2,185.4,233.6z"/>
						<path class="st10" d="M171.4,247.8c-2-2.1-3.1-6.5-2.2-8.5c0.2-0.7,0.6-1.3,1-1.9c0,0.1-0.1,0.3-0.1,0.4
							c0,0.3-0.1,0.5-0.1,0.8c-0.1,1-0.1,2.1,0.4,3c0.5,0.8,1.5,2.9,2.9,2.9c0.7,0,1.5-0.6,1.7-1.3c0.1-0.3,0.4-1.1,0.4-1.1
							s2,0.4,3.6,1.2c2,1.1,1.9,1.3,1.9,1.3c-0.1,0.4-0.2,1-0.1,1.4c0.1,0.4,0.4,1.1,0.7,1.4c0.1,0.1,0.4,0.2,0.5,0.3
							c-0.1,1.5-0.6,2.7-2.5,3.7C178,252.2,175.4,252,171.4,247.8z"/>
						<g>
							<path class="st0" d="M182.3,239.1c-0.5,2-0.6,3.8-0.6,5.2c-0.7,1.7-1.5,1.6-1.5,0.7c-0.1-0.9,1.4-4.5,2.5-7.4
								C182.7,238.2,182.5,238.7,182.3,239.1z"/>
							<path class="st0" d="M177.5,228.6c-0.1-0.8,0.2-1.7,0.9-2.4c0.2-0.1,0.4-0.1,0.5-0.2c0.9-0.4,1.2-0.8,1.7-0.3l-0.9,0.9
								c-1.5,1.6-1.1,1.8-1,2.7c0,0.9-0.4,1.8-0.6,2.7c-0.9,2.8-1.6,3.8-2.1,6.5c-0.4,2.7,0.2,4.5-0.2,4.6c-0.5,0.1-1.4-0.2-1.6-2.3
								c-0.1-2.2,1.1-5.8,2-7.5C177,231.6,177.6,229.7,177.5,228.6z"/>
						</g>
						<g>
							<g>
								<path class="st5" d="M174.9,242.4l0.1,0.1c2.4,0.4,3.6,0.9,5.3,2.6c0.1,0.1,0.4,0.1,0.5,0c0.1-0.1,0.1-0.3,0-0.4
									c-1.9-1.8-3.2-2.3-5.7-2.8c-0.1,0-0.4,0.1-0.4,0.2S174.9,242.3,174.9,242.4z"/>
							</g>
							<g>
								<path class="st5" d="M175.4,240l0.1,0.1c2.4,0.5,3.7,1,5.6,2.8c0.1,0.1,0.4,0.1,0.5,0s0.1-0.3,0-0.4c-2-1.9-3.4-2.5-6-3
									c-0.1,0-0.4,0.1-0.4,0.2C175.2,239.9,175.2,240,175.4,240z"/>
							</g>
							<g>
								<path class="st5" d="M175.4,237.6l0.1,0.1c2.6,0.5,4.2,1.2,6.2,3.2c0.1,0.1,0.4,0.1,0.5,0s0.1-0.3,0-0.4
									c-2.1-2-3.9-2.8-6.6-3.4c-0.2,0-0.4,0.1-0.5,0.2C175.2,237.4,175.2,237.5,175.4,237.6z"/>
							</g>
							<g>
								<path class="st5" d="M175.9,235.5l0.1,0.1c2.6,0.5,4.1,1.2,6.1,3.1c0.1,0.1,0.4,0.1,0.5,0c0.1-0.1,0.1-0.3,0-0.4
									c-2.1-2-3.7-2.7-6.5-3.3c-0.2,0-0.4,0.1-0.5,0.2C175.7,235.3,175.7,235.4,175.9,235.5z"/>
							</g>
							<g>
								<path class="st5" d="M176.9,233.4l0.1,0.1c2.6,0.5,4.1,1.2,6.1,3.1c0.1,0.1,0.4,0.1,0.5,0c0.1-0.1,0.1-0.3,0-0.4
									c-2.1-2-3.7-2.7-6.5-3.3c-0.2,0-0.4,0.1-0.5,0.2C176.7,233.2,176.7,233.4,176.9,233.4z"/>
							</g>
						</g>
					</g>
				</g>
				<g>
					<path d="M167.3,194.3c0,0,29.9-0.4,40.7,0.4c11.1,0.8,11.4,7.5,8.1,11.5c-6.1,7.4-25,22.3-25,22.3s-6.7-2.1-8.1-6.6l4.4-7.5
						l-21.8,0.9l-3.6-2.5L167.3,194.3z"/>
					<path class="st10" d="M194,220.9c-2.1-2.6-3.6-3.3-7.7-4.7l-3.4,5.7c1.4,4.4,8.1,6.6,8.1,6.6s2.1-1.7,5.2-4.2
						C195.6,223.1,194.9,221.9,194,220.9z"/>
					<path class="st10" d="M189.7,207.1c-1.6,1.6-2.9,3-4.1,4.3c-1.1,1.3-4.5,1.8-7.6,1.1c-4-0.9-8.3-2.9-10.9-4
						c2.6-3.4,0.4-7.6,0.4-7.6c0.2,2.9-0.7,5.4-2.2,6.8l-1.6,1.3l0.4,4.5l1.4,1.6l22.1-0.8c4.6-7,6-10.2,10.9-11.4
						C198.4,203,194.3,202.5,189.7,207.1z"/>
				</g>
			</g>
			<g>
				<g>
					<path class="st30" d="M200.2,251.9l-8.7-9.1l10.3-5.9c3.9,5.8,7.6,11.5,10.3,13.7c0,0-2.4,4.9-6,5
						C202.2,255.7,200.9,253.6,200.2,251.9z"/>
					<g>
						<path class="st2" d="M202,257.2c0.2,0.6,0.6,1,1.1,1.5c0.5,0.5,3.5,1.1,4.9,1.7c1.2,0.6,1.5,1,3.1,1.9c1.7,1,3.1,2.5,8.5,2.5
							c5.5-0.1,8.5-1.5,10.4-2.9c1-0.7,1.4-1.9,1.4-1.9s-0.2-2.4-2-2.5C227.5,257.5,202,257.2,202,257.2z"/>
						<path id="XMLID_55_" class="st13" d="M210.8,248.8c0.5,0.2,1.1,0.9,1.4,1.3c1.1,1.1,2.9,1.9,4.5,2.6
							c7.3,3.1,12.3,1.5,14.1,5.6c0.4,1.2-0.5,3.1-6.6,5.1c-3.1,1-8.6,0.7-10.8-0.5c-2.1-1.2-3.4-2.4-5-3.2s-5.1-1.4-6.3-2.6
							c-0.7-0.7-1.1-1.6-1.4-2.5c-0.2-0.7-0.9-3.1-0.9-3.1c1.5,1.5,3.1,1.1,4.1,1.3c1.1,0.2,2.1,0.8,3.1,1.2c-1-1.1-1.9-1.6-1.4-2.5
							c0.5-0.8,0.5-0.9,2.4-1.8C209.8,248.8,210.4,248.6,210.8,248.8z"/>
						<path id="XMLID_54_" class="st31" d="M210.8,248.8c0.5,0.2,1.1,0.9,1.4,1.3c1.1,1.1,2.9,1.9,4.5,2.6
							c7.3,3.1,12.3,1.5,14.1,5.6c0.4,1.2-0.5,3.1-6.6,5.1c-3.1,1-8.6,0.7-10.8-0.5c-2.1-1.2-3.4-2.4-5-3.2s-5.1-1.4-6.3-2.6
							c-0.7-0.7-1.1-1.6-1.4-2.5c-0.2-0.7-0.9-3.1-0.9-3.1c1.5,1.5,3.1,1.1,4.1,1.3c1.1,0.2,2.1,0.8,3.1,1.2c-1-1.1-1.9-1.6-1.4-2.5
							c0.5-0.8,0.5-0.9,2.4-1.8C209.8,248.8,210.4,248.6,210.8,248.8z"/>
						<path class="st10" d="M224.3,263.4c-3.1,1-8.6,0.7-10.8-0.5c-0.7-0.4-1.4-0.8-2-1.3c0.1,0.1,0.2,0.1,0.4,0.2
							c0.2,0.1,0.6,0.2,0.9,0.3c1.1,0.4,2.5,0.7,3.6,0.5c1.1-0.1,3.9-0.4,4.2-1.4c0.2-0.6-0.2-1.3-1-1.7c-0.4-0.2-1.2-0.6-1.2-0.6
							s1-1.5,2.4-2.4c1.9-1.2,2.1-1.1,2.1-1.1c0.4,0.2,1.1,0.4,1.6,0.4c0.5,0,1.5,0,1.9-0.2c0.2-0.1,0.4-0.2,0.5-0.3
							c1.7,0.5,3.1,1.2,3.7,2.9C231.2,259.5,230.2,261.5,224.3,263.4z"/>
						<g>
							<path class="st0" d="M216.7,252.6c2.2,1,4.4,1.5,6.1,1.9c1.7,1,1.5,1.5,0.5,1.4c-1.1-0.2-5-2.3-8.2-4
								C215.5,252.1,216.2,252.4,216.7,252.6z"/>
							<path class="st0" d="M202.7,253.5c-1-0.1-1.9-0.1-2.6-0.6c-0.5-0.3-0.7-1.3-0.6-1.8l0.9,0.8c1.5,0.7,2.6,0.6,3.6,0.8
								c1.1,0.2,2.1,0.8,3.1,1.2c3.1,1.4,4.1,2.3,7.2,3.3c3.1,1.1,5.5,1,5.5,1.4s-0.6,1.1-3.2,0.6s-6.6-2.4-8.5-3.5
								C206.2,254.7,204.2,253.7,202.7,253.5z"/>
						</g>
						<g>
							<g>
								<path class="st5" d="M218.7,259.2l0.1-0.1c1.1-1.7,2-2.5,4.5-3.4c0.1-0.1,0.2-0.2,0.1-0.4c-0.1-0.1-0.2-0.2-0.5-0.1
									c-2.6,0.9-3.6,1.9-4.9,3.7c-0.1,0.1,0,0.3,0.1,0.4C218.4,259.3,218.5,259.3,218.7,259.2z"/>
							</g>
							<g>
								<path class="st5" d="M215.9,258.3l0.1-0.1c1.2-1.7,2.2-2.6,4.9-3.6c0.2-0.1,0.2-0.2,0.1-0.4c-0.1-0.1-0.2-0.2-0.5-0.1
									c-2.7,1-3.9,2-5.2,3.8c-0.1,0.1,0,0.3,0.1,0.4C215.7,258.3,215.8,258.3,215.9,258.3z"/>
							</g>
							<g>
								<path class="st5" d="M212.9,257.6l0.1-0.1c1.4-1.9,2.6-3,5.5-4c0.1-0.1,0.2-0.2,0.2-0.4c-0.1-0.2-0.2-0.2-0.5-0.2
									c-3,1.1-4.4,2.2-5.8,4.3c-0.1,0.1,0,0.3,0.1,0.4S212.8,257.7,212.9,257.6z"/>
							</g>
							<g>
								<path class="st5" d="M210.6,256.6l0.1-0.1c1.4-1.9,2.5-2.9,5.3-3.9c0.1-0.1,0.2-0.2,0.1-0.4c-0.1-0.1-0.2-0.2-0.5-0.1
									c-3,1.1-4.2,2.2-5.7,4.2c-0.1,0.1,0,0.3,0.1,0.4C210.3,256.6,210.4,256.6,210.6,256.6z"/>
							</g>
							<g>
								<path class="st5" d="M208.3,255.3l0.1-0.1c1.4-1.9,2.5-2.9,5.3-3.9c0.1-0.1,0.2-0.2,0.1-0.4c-0.1-0.1-0.2-0.2-0.5-0.1
									c-3,1.1-4.2,2.2-5.7,4.2c-0.1,0.1,0,0.3,0.1,0.4C208.1,255.3,208.3,255.3,208.3,255.3z"/>
							</g>
						</g>
					</g>
				</g>
				<path d="M206.2,243.2c-2.7,3.3-9.7,5.8-9.7,5.8s-2.6-2.2-8.7-7c-4.4-3.4-8-6.7-10.4-10.7c-7.8-1.8-21.6-4.1-35.6-9.8
					c-10-4-12.9-11-13.6-19.6c-0.9-10.6,39.1-7.4,39.1-7.4c-1.2,6,0.5,11.5-3.7,14.7c0,0,17.3,6.7,23,9.2c2.6,1.1,3.5,1.1,6.3,5
					C199.8,232.2,206.2,243.2,206.2,243.2z"/>
				<path class="st32" d="M198.6,248.2c0.1-0.1,0.4-0.2,0.5-0.2c-3.2-2.9-11.6-10.6-13.9-13.8c-0.9-1.1-1.5-2-2-2.9
					c-1.4-2-2.2-3.3-4-3.8c-0.4-0.1-1.4-0.3-2.7-0.7c-7.2-1.7-26.2-6.2-32.8-9.7c-0.2-0.1-0.4-0.2-0.5-0.3c2.5-1.7,2.6-5.2,1.1-7.5
					c-1.6-2.4-2.6-7.1-1.2-9.4l-0.5-0.2c-1.5,2.5-0.2,7.5,1.4,9.8c1.5,2.1,1.2,5.5-1.1,7c-6.1-3.7-8.7-9.7-7.6-17.2l-0.6-0.1
					c-1.2,8.3,1.9,14.6,9,18.3c6.5,3.4,25.7,8.1,33,9.8c1.4,0.3,2.4,0.6,2.7,0.7c1.6,0.4,2.4,1.7,3.6,3.6c0.6,0.9,1.2,1.8,2,2.9
					C187.2,237.7,195.5,245.4,198.6,248.2z"/>
			</g>
		</g>
		<g id="Top_1_">
			<g id="Arm_4_">
				<path id="Arm_6_" class="st30" d="M154.1,156.4c6.2-0.3,11.6,2.7,12.2,6.6c0.7,4.1-1.9,16.4-1.9,16.4l11.3,6.3l-6,6.6
					c0,0-10.8-3.8-14.6-5.2c-5.7-2.2-4.9-3.6-4.7-9.3C150.5,172.2,153.4,159.5,154.1,156.4z"/>
				<path class="st33" d="M154.1,156.3c1.4-0.1,3.5,0,4.7,0.4c1.4,0.3,4.1,1.3,5.6,2.8c1.4,1.5,2.1,2.7,2,6.1
					c-0.1,3.4-1.4,10.5-1.4,10.5h-9.2L154.1,156.3z"/>
			</g>
			<g id="Chest_1_">
				<g>
					<path id="XMLID_53_" class="st33" d="M164.9,169.2c-1-9.3-4.9-12.4-10.8-12.8c-0.1,0-8.2,0.3-12.9,0.9
						c-5.6,0.8-12.3,3.3-14.2,4.3c-2.9,1.4-3.9,4.6-4,11.2c-0.1,4.6,0.2,10.8,1.4,18.9c0.7,5.3,1.7,10.3,3.9,16.4
						c8.1,2.2,40.4-5.5,40.2-13.8c-0.9-1.9-2.2-4.1-2.9-8C164.9,179.5,165.3,172.1,164.9,169.2z"/>
					<path id="XMLID_52_" class="st31" d="M164.9,169.2c-1-9.3-4.9-12.4-10.8-12.8c-0.1,0-8.2,0.3-12.9,0.9
						c-5.6,0.8-12.3,3.3-14.2,4.3c-2.9,1.4-3.9,4.6-4,11.2c-0.1,4.6,0.2,10.8,1.4,18.9c0.7,5.3,1.7,10.3,3.9,16.4
						c8.1,2.2,40.4-5.5,40.2-13.8c-0.9-1.9-2.2-4.1-2.9-8C164.9,179.5,165.3,172.1,164.9,169.2z"/>
				</g>
				<g id="Head_1_">
					<path class="st2" d="M137.9,153.7c-0.2-2.6-3.2-5.4-4.4-7.8c-1.1-2.2-1.9-3.9-1.5-5.9c0.2-1.2,1.2-2.7,2.4-3
						c-0.9-4.5,3.5-6.3,5.6-6.6c0.9-0.1,2.2-0.3,3.1-0.5c1.2-0.3,1.6-1.1,2.6-1.7c1.7-1,4.5-0.9,5.5,0.9c1.2-1.1,2.7-1,4.4-0.5
						c1.6,0.4,2.2,1.6,2,2.8c2.4-0.9,4.4,0.5,4.5,1.6c0.1,0.8-0.2,1.5,0.4,2.2c0.6,0.9,2,0.9,2.5,0.3c0.1,1.1-0.5,2-2,1.8
						c0.5,0.6,0.5,1.5,0.2,2.2c-0.5,1-1.7,1.5-2.7,1.5c-0.2,0.6-0.2,1.2-0.9,1.7c-0.5,0.5-1.1,1-1.9,1.2c-2.4,0.8-5,0.9-7.6,1.2
						c-1,0.1-2,0.2-3,0.3c-0.1,0-1.1,0-1.2,0.1C145.9,145.6,137.9,153.7,137.9,153.7z"/>
					<g id="XMLID_47_">
						<path class="st30" d="M134.5,150.2c2.1,1.2,3.7,0.1,3.7,0.1l-0.9,8.4c1.4,3.7,9,4.7,11.9,3.9c2.9-0.8,2.6-2.2,1-4.3l0.4-1.4
							c0,0,2.2,0.2,3.7,0.1c2.5-0.1,4.5-1.6,5.3-3.7c1-2.2,1.5-5.8,1.1-8.6c-0.1-0.7-0.1-1.4,0-2.1c0.4-1.8,0.1-2.9-0.4-4.5
							c-2.6-1.9-8.7-2.9-15-0.4c0.4,2.8-1.1,5-3.7,5.9c0,0.8,0,2.7-1.5,2.6c-1.1-0.1-1.1-1.2-2.1-2.3c-1.1-1.1-3.7-1.5-4.9-0.1
							C131.5,145.8,132.1,148.8,134.5,150.2z"/>
						<path class="st34" d="M150.5,156.9c-3.9-0.6-6.8-1.1-8.6-3.5c-1.1-1.5-2-3.9-2-3.9s0.1,2.8,1.2,4.8c0.9,1.5,3.1,2.9,9.2,3.7
							L150.5,156.9z"/>
					</g>
					<g id="XMLID_22_">
						<path id="XMLID_44_" class="st2" d="M150.1,145.1c0,0.5-0.5,0.9-1.1,0.9s-1.1-0.4-1.1-0.9s0.5-0.9,1.1-0.9
							C149.8,144.1,150.2,144.6,150.1,145.1z"/>
						<path id="XMLID_31_" class="st2" d="M148.8,141.8l-2.2,1.1c-0.4-0.5-0.1-1.2,0.5-1.5C147.5,141.1,148.4,141.2,148.8,141.8z"/>
						<path id="XMLID_29_" class="st2" d="M159.2,142.8l-2.2-1.2c0.4-0.5,1.2-0.7,1.9-0.3C159.5,141.6,159.7,142.2,159.2,142.8z"/>
						<path id="XMLID_27_" class="st2" d="M158.7,144.9c-0.1,0.5-0.6,0.9-1.2,0.8s-1-0.5-1-1c0.1-0.5,0.6-0.9,1.2-0.8
							C158.3,143.9,158.8,144.4,158.7,144.9z"/>
						<path id="XMLID_25_" class="st12" d="M152.2,151.9c0,0.3-0.4,0.6-0.9,0.5c-0.4,0-0.7-0.3-0.6-0.7c0-0.3,0.4-0.6,0.9-0.5
							C152,151.2,152.2,151.5,152.2,151.9z"/>
						<path class="st35" d="M152,152.3c-0.2-0.4-0.6-0.7-1.1-0.8c0,0.1-0.1,0.1-0.1,0.2c0,0.3,0.2,0.6,0.6,0.7
							C151.6,152.4,151.7,152.4,152,152.3z"/>
						<path class="st34" d="M157.1,148.1l-3.9,1.3l-1.1-6.1C153.6,143,155.3,145.8,157.1,148.1z"/>
					</g>
				</g>
			</g>
			<g id="Laptop_2_">
				<g id="XMLID_21_">
					<path class="st0" d="M208.7,202.7v0.4c0,0.6-0.4,1.2-1,1.5L170.8,223c-0.4,0.2-0.7,0.2-1,0.3c-0.4,0-0.7-0.1-1.1-0.2l-20.9-9
						c-0.6-0.3-1.1-0.8-1.1-1.5V212l0,0l0,0c0,0.1,0,0.1,0.1,0.2l22.9,9.9L208.7,202.7z"/>
					<path class="st2" d="M169.8,222.1v1.1c0.4,0,0.7-0.1,1-0.3l36.9-18.4c0.6-0.3,1-0.9,1-1.5v-0.4L169.8,222.1z"/>
					<path class="st1" d="M208.7,202.7l-22.6-9.8c-0.4-0.2-0.9-0.2-1.2,0l-37.9,19c-0.1,0.1-0.1,0.3,0,0.4l22.9,9.9L208.7,202.7z"/>
					<polygon class="st0" points="169.5,220.6 157.2,215.4 191.7,198.2 204.1,203.4 					"/>
					<polygon class="st2" points="204.1,203.4 203.6,203.6 191.7,198.6 157.7,215.6 157.2,215.4 191.7,198.2 					"/>
					<polygon class="st2" points="162.9,205.3 163.2,205.4 169.2,207.9 179.5,202.8 179.7,202.7 173.4,200.1 					"/>
					<polygon class="st0" points="163.2,205.4 169.2,207.9 179.5,202.8 173.4,200.3 					"/>
				</g>
				<path class="st30" d="M199.5,198.6c-1.2-1.4-2.7-2.6-3.9-4.1c-1-1-2.4-1.7-3.6-2.5c-3.7-2.1-4.6-2-9.3-3.2
					c-2.9-0.7-4.9-1.7-6.8-3l-6,6.6c0.6,0.3,1.4,0.6,2,0.9c1,0.5,2.4,2.4,4.7,3.1c3.1,0.9,6.8,0.3,7.2,1c0,0.5,0.1,0.9,0.2,1.4
					c-0.4-0.1-1.2-0.4-1.9-0.4s-1.4,0.5-1.2,0.9c0.1,0.3,0.5,0.4,1,0.7c0.2,0.2,1.2,0.8,1.4,0.9c0.2,0.1,1.7,0.5,3,0.4
					c0.4-0.1,0.9-0.3,1-0.7c0,0,0.4,0.1,0.6,0.2c0.4,0.1,1,0.1,1.2-0.1c0.4-0.2,0.4-0.5,0.4-0.5c0.4-0.1,1.1-0.1,1.5-0.3
					c0.7-0.3,0.7-1,0.9-1.6c0.1-0.7,0.1-1.4,0.1-2.1c2.1,1,3.7,2.9,6.3,3.3C199.4,199.7,200.5,199.4,199.5,198.6z"/>
				<g id="Arm_2_">
					<g>
						<path class="st30" d="M116.5,190.9c0.6-8.1,1.2-15.4,2.4-21.3c0.6-3.3,4.4-6.4,8.3-7.6c5.7,2.5,5.3,11.9,5,14.2l-2.2,14.3
							c0,0,5,2.6,10.3,5c4.4,2,7.3,3.7,12.3,3.7c5,0,6.8-0.3,9.5,0.4c1.4,0.3,4.6,1.1,5.7,1.5c1.1,0.3,3.2,1.7,5.1,2.5
							c1.7,0.9-0.1,1.7-1.5,1.5c-1.7-0.2-2.7-0.7-4-1.1c-1.1-0.4-2.2-0.5-3.4-0.7c0.4,0.6,1,2.3,1.1,3c0.1,0.6,0.4,1.2-0.2,1.7
							c-0.2,0.3-1,0.5-1.4,0.6c0,0,0,0.3-0.2,0.6c-0.2,0.3-0.9,0.3-1.2,0.4c-0.2,0-0.7,0-0.7,0c0,0.4-0.4,0.7-0.6,0.9
							c-1,0.5-2.7,0.4-3,0.4c-0.1,0-1.4-0.4-1.6-0.5c-0.5-0.2-0.9-0.2-1.1-0.4c-0.2-0.3,0.2-1,0.9-1.1c0.6-0.2,1.5-0.1,1.9-0.1
							c-0.2-0.4-0.5-0.8-0.7-1.2c-0.6-0.6-4.2,0.4-7.6,0.2c-2.5-0.1-4.6-1.8-5.7-2.1c-7.5-1.9-13.3-3.2-21-6.1
							C115.5,196.7,116.3,195.1,116.5,190.9z"/>
					</g>
					<g>
						<path class="st34" d="M164.8,203.4c-0.5-0.7-1.2-1.6-2-1.7c0.5,0.3,1.1,1.3,1.2,1.6C164.3,203.3,164.6,203.3,164.8,203.4z"/>
					</g>
					<g>
						<path class="st34" d="M163.6,208.5c0-0.6,0-1.1-0.1-1.6s-0.2-1.1-0.5-1.6c-0.2-0.5-0.4-1.1-0.7-1.5c-0.4-0.5-0.7-1-1.4-1.2
							c0.2,0.2,0.5,0.4,0.6,0.6c0.2,0.2,0.4,0.5,0.5,0.7c0.2,0.5,0.5,1,0.6,1.5c0.2,0.5,0.4,1,0.6,1.6
							C163.3,207.5,163.6,208,163.6,208.5z"/>
					</g>
					<path class="st34" d="M161.4,209.4c0-0.5-0.1-1.1-0.2-1.6c-0.1-0.5-0.4-1.1-0.5-1.6c-0.2-0.5-0.5-1-0.7-1.5
						c-0.4-0.5-0.6-1-1.2-1.3c0.2,0.2,0.4,0.4,0.5,0.7c0.1,0.2,0.2,0.5,0.4,0.7c0.2,0.5,0.5,1,0.6,1.5
						C160.8,207.4,161.2,208.4,161.4,209.4z"/>
					<path class="st34" d="M155.8,208.6c0.2,0,0.6,0,0.9,0s0.5,0.1,0.9,0.2l-0.1-0.2c0,0.1,0,0.2,0.1,0.3c0,0.1,0.1,0.2,0.2,0.2
						c0.1,0.1,0.4,0.2,0.6,0.2c-0.1-0.1-0.2-0.3-0.4-0.4c0-0.1-0.1-0.1-0.1-0.2c0-0.1,0-0.1,0-0.2v-0.1h-0.1c-0.2,0-0.5-0.1-0.7-0.1
						C156.5,208.4,156.1,208.4,155.8,208.6z"/>
					<path class="st33" d="M127.4,161.4c-2.6,0.9-7.2,3.1-8.6,8.2c-1.4,5-2.1,15.1-2.1,15.1s2.1,1.6,7.6,2c5.5,0.4,7-0.6,7-0.6
						s1-7,1.5-10.3C133.1,172.6,133.7,163.4,127.4,161.4z"/>
				</g>
				<g id="XMLID_1_">
					<path class="st2" d="M170.4,222.4c0.7,0.2,1.5,0.1,2.1-0.2l36.7-18.3c0.6-0.3,1.1-0.9,1.1-1.5l3.2-19.7c0-0.1,0-0.2,0-0.3
						c0-0.5-0.4-1.1-0.7-1.4l-38.2,19.1c-0.5,0.2-0.7,0.6-0.9,1.1L170.4,222.4z"/>
					<path class="st1" d="M169.8,222.1l0.2,0.1c0.1,0,0.2,0.1,0.4,0.1l3.5-21.3c0.1-0.4,0.4-0.8,0.9-1.1l38.2-19.1
						c-0.1-0.1-0.4-0.2-0.5-0.3l-38.2,19.1c-0.5,0.2-0.7,0.6-0.9,1.1L169.8,222.1z"/>
					<path class="st0" d="M174.3,200.4l-0.6-0.3c-0.1,0.2-0.2,0.4-0.4,0.7l-3.5,21.4l0.2,0.1c0.1,0,0.2,0.1,0.4,0.1l3.5-21.3
						C174,200.8,174.1,200.6,174.3,200.4z"/>
					<path class="st13" d="M190.7,203.7c0.2-1.3,1.9-3.1,3.6-4c1.7-0.9,3-0.5,2.7,0.8c-0.2,1.3-1.9,3.1-3.6,4
						C191.8,205.4,190.4,205,190.7,203.7z"/>
				</g>
			</g>
		</g>
	</g>
</g>
</svg>
