<?xml version="1.0" encoding="utf-8"?>
<!-- Generator: Adobe Illustrator 25.1.0, SVG Export Plug-In . SVG Version: 6.00 Build 0)  -->
<svg version="1.1" id="Layer_1" xmlns="http://www.w3.org/2000/svg" xmlns:xlink="http://www.w3.org/1999/xlink" x="0px" y="0px"
	 viewBox="0 0 300 265" style="enable-background:new 0 0 300 265;" xml:space="preserve">
<g>
	<g>
		<g>
			<g>
				<g>
					<path style="fill:#754E28;" d="M177.79,229.22h8.49c0,0,0.86-0.8,0.47-1.75c-0.39-0.95-0.47-1.82-0.47-1.82
						c0.71-6.56-1.1-13.77-1.18-15.52c-0.08-0.95,0.31-1.68,0.63-2.11c0.31-0.36,0.55-0.58,0.55-0.58
						c6.52-3.13,10.38-7.36,12.65-10.71c2.2-3.28,2.91-5.83,2.91-5.83s-0.16-0.22-0.47-0.58c-1.65-1.75-6.92-7.07-11-7.21
						c-2.12-0.07-4.48,3.35-6.6,7.51c-2.67,5.39-4.87,11.95-5.42,13.55c-1.02,2.84,3.54,20.48,3.54,20.48s-0.08,0.73-2.36,1.75
						c-1.18,0.51-2.12,0.22-2.59,0.95C176.62,227.55,177.4,229.22,177.79,229.22z"/>
					<path style="fill:#553716;" d="M185.73,208.02c0.31-0.36,0.55-0.58,0.55-0.58c6.52-3.13,10.38-7.36,12.65-10.71
						c0.94-2.11,1.73-4.3,2.36-6.41c-1.65-1.75-6.92-7.07-11-7.21c-2.12-0.07-4.48,3.35-6.6,7.51
						C183.77,190.6,182.9,202.63,185.73,208.02z"/>
					<path style="fill:#956338;" d="M168.05,211.15c0.31-0.8,0.55-3.13,1.02-4.66c-0.16-3.35,0.39-6.63,0.71-8.23
						c0.63-3.21,1.57-9.76,1.57-9.76c-0.16-2.7-0.31-5.76-0.47-8.96c-0.39-9.11-0.55-18.58-0.55-18.58s5.82,3.86,6.92,8.23
						c0.86,3.28,0.47,10.27-0.16,16.39c-0.24,2.11-0.47,4.15-0.71,5.83c-0.55,3.64-2.12,10.93-3.54,16.39
						c-0.16,1.38-0.31,4.01-0.31,5.17c0,1.68-1.1,2.7-2.36,2.62C168.99,215.38,167.5,212.39,168.05,211.15z"/>
					<path style="fill:#553716;" d="M170.33,160.87c0,0,0.16,9.47,0.55,18.58c1.49,2.04,3.77,4.59,6.29,5.98
						c0.63-6.05,1.02-13.12,0.16-16.39C176.14,164.74,170.33,160.87,170.33,160.87z"/>
					<path style="fill:#916035;" d="M163.25,151.33c0.08-0.36,0.24-0.73,0.39-1.09c0.16-0.22,0.31-0.44,0.47-0.66
						c0.71-0.66-0.16-0.8,1.1-2.04c0,0-0.86-1.82-0.71-3.06l0,0c0-0.15,0.08-0.29,0.16-0.44c1.02-1.97,3.14-4.44,6.92-3.42
						c3.46,0.87,4.95,6.12,4.72,10.71c0.16,0.07,1.41,0.44,3.3,1.24c3.54,1.53,9.2,4.52,14.07,9.62c5.27,5.46,9.51,13.41,8.96,24.41
						c-0.31,5.25-2.36,7.43-5.34,7.43c-5.03,0.07-12.73-6.05-18.71-13.7c-0.16-0.22-0.31-0.36-0.47-0.58
						c-5.11-6.63-8.8-14.43-8.49-20.26l0,0c-2.36,0.22-4.4-0.51-5.58-2.26c-0.39-0.51-0.63-1.17-0.79-1.89
						C163.17,154.32,162.94,152.71,163.25,151.33z"/>
					<path style="fill:#CE9D72;" d="M178.74,180.26c5.97,7.65,13.6,13.7,18.71,13.7l0,0C191.47,172.9,178.74,180.26,178.74,180.26z"
						/>
					<path style="fill:#956338;" d="M202.79,183.1c0,0,1.26,7.14,0.63,23.9c0,0-0.24,1.68,0.71,2.91c1.02,1.24,3.93,5.68,4.56,11
						c0,0,1.57,2.04,1.41,2.99s-2.2,1.09-4.01,4.08c0,0-0.31,1.31-1.26,1.31c-0.47,0-1.34,0-2.04,0c-1.1,0-1.26-1.53-0.79-1.68
						c0.47-0.15,1.02-0.8,1.34-1.31c0.86-1.31,2.59-4.44,2.04-5.25c-0.55-0.87-8.49-8.02-9.43-9.84c-0.86-1.82-6.13-18.8-3.46-25.14
						C193.67,183.24,202.79,183.1,202.79,183.1z"/>
					<path style="fill:#CD9D72;" d="M163.41,155.34c0.16,0.73,0.47,1.38,0.79,1.89c1.89,0.22,4.24-0.87,4.48-5.46
						c0.08-1.82-1.1-3.21-1.57-5.25c-0.39-2.04-2.59-2.04-2.59-2.04l0,0c-0.24,1.24,0.71,3.06,0.71,3.06
						c-1.26,1.24-0.39,1.38-1.1,2.04c-0.16,0.15-0.31,0.36-0.47,0.66l-0.39,1.09C162.94,152.71,163.17,154.32,163.41,155.34z"/>
					<g>
						<path style="fill:#F1A34F;" d="M199.41,209.48c0,0,0.16-0.07,0.39-0.36c0.31-0.44,0.63-1.46,0.47-3.72
							c-0.08-1.68,0.79-7.87,3.14-9.91c1.81-1.6,4.32-5.25,4.24-7c0-0.36-0.16-0.66-0.47-0.8c-0.24-0.15-0.55-0.15-0.86,0
							C204.36,188.78,192.81,196,199.41,209.48z"/>
						<path style="fill:#E58435;" d="M199.8,209.11c0.31-0.44,0.63-1.46,0.47-3.72c-0.08-1.68,0.79-7.87,3.14-9.91
							c1.81-1.6,4.32-5.25,4.24-7c-2.04,1.75-7.31,6.49-7.86,8.6C199.33,199.2,199.25,206.42,199.8,209.11z"/>
					</g>
					<path style="fill:#956338;" d="M178.03,161.53c0,0,3.46-5.9,7.23-2.26c2.2,2.04,5.5,8.53,7.86,13.99
						c0.55,1.24,1.02,2.4,1.41,3.5c1.18,3.13,3.22,9.84,4.56,15.23l0,0c0,0,3.22,1.38,4.01,2.04c0.79,0.66,0.63,5.1-0.16,5.9
						c-0.71,0.73-4.48,1.09-5.03,0.44s-1.81-5.39-1.89-5.46l0,0c-1.57-2.33-2.99-4.88-3.46-6.34c-0.94-3.06-3.22-8.89-3.22-8.89
						c-5.9-5.98-8.88-10.06-10.38-12.75C176.77,162.55,178.03,161.53,178.03,161.53z"/>
					<path style="fill:#553716;" d="M179.05,166.78c0,0,9.51,0.36,14.07,6.41c-2.36-5.46-5.66-11.88-7.86-13.99
						c-3.77-3.57-7.23,2.26-7.23,2.26S176.77,162.55,179.05,166.78z"/>
				</g>
				<g>
					<path style="fill:#956338;" d="M38.04,197.45c-0.31,0.87-1.34,2.99-2.67,5.54c-3.3,6.19-8.49,15.01-8.72,15.74
						c-0.39,0.95,3.22,8.45,2.91,8.74c-0.31,0.29-1.57-0.15-1.97-0.44c-0.39-0.29-1.02-2.19-2.91-3.06
						c-1.89-0.87-2.52-1.24-2.52-1.24c-0.08-1.31,1.26-3.42,1.26-3.42c0.63-6.7,3.46-16.76,4.95-19.09
						c1.49-2.33,1.73-5.83,1.73-5.83c-0.08-1.6-0.16-3.21-0.24-4.81c-0.71-16.91,0.24-31.41,0.24-31.41s8.88-1.24,11.16,0
						C43.47,159.2,38.99,194.32,38.04,197.45z"/>
					<path style="fill:#553716;" d="M38.04,197.45c-0.31,0.87-1.34,2.99-2.67,5.54c-2.52-3.21-4.32-8.6-5.58-13.55
						c-0.71-16.91,0.24-31.41,0.24-31.41s8.88-1.24,11.16,0C43.47,159.2,38.99,194.32,38.04,197.45z"/>
					<path style="fill:#956338;" d="M60.13,166.12l-1.49,3.79c-1.18-0.95-2.28-1.82-3.38-2.7l0,0c-5.34-4.23-9.75-7.58-10.53-10.27
						c-0.86-2.84-1.57-27.98-1.57-27.98c1.57-6.05,6.92-3.28,7.78,0.8c0.94,4.08-0.94,20.04-1.49,21.35
						c-0.39,1.09,7.23,10.71,9.83,13.99C59.81,165.68,60.13,166.12,60.13,166.12z"/>
					<path style="fill:#956338;" d="M50.38,144.92c-1.18,5.17-2.28,9.69-2.67,11.8c-0.16,1.02-0.47,2.11-0.86,3.35
						c-0.47,1.53-1.1,3.13-1.81,4.66c-1.1,2.4-2.36,4.74-3.69,6.56c0,0,0,0.07-0.08,0.07c-1.49,1.97-2.91,3.28-4.09,3.21
						c-0.16,0-0.24,0-0.39-0.07c-1.97-0.36-4.72-2.26-6.45-6.78c-0.31-0.73-0.55-1.53-0.71-2.48c-0.16-0.66-0.31-1.38-0.39-2.19l0,0
						l0,0c-0.39-2.91-0.47-6.41,0.08-10.78c0-0.07,0-0.07,0-0.15c0.08-0.66,0.16-1.38,0.31-2.11c0.86-5.39,2.52-10.49,4.4-14.94
						c0.08-0.22,0.24-0.51,0.31-0.73c0.39-1.02,0.86-1.97,1.34-2.84c3.69-7.58,7.7-12.75,8.72-14.06c0.16-0.22,0.24-0.29,0.24-0.29
						s1.81-1.82,5.27,0.36c0.63,0.36,1.26,0.87,1.97,1.53c0.63,0.58,1.02,1.6,1.26,2.91c0,0,0,0,0,0.07
						C54.08,127.14,52.19,136.9,50.38,144.92z"/>
					<path style="fill:#956338;" d="M29.32,163.06c0,0,4.01,20.55,15.88,34.54c0,0,1.02,2.33,0,10.06
						c-1.02,7.65,3.69,18.14,3.69,18.14l-0.39,3.42h8.41c0,0-0.86-2.04-3.3-2.48s-2.04-2.7-1.89-4.15
						c0.16-1.46,2.52-24.34,1.02-29.07c-1.49-4.74-6.6-30.02-9.59-32.5C40.09,158.61,31.44,158.18,29.32,163.06z"/>
					<path style="fill:#553716;" d="M47.55,131.58c0,0.66-1.18,27.47-7.47,34.9l-2.36-20.55L47.55,131.58z"/>
					<path style="fill:#FFB27D;" d="M40.72,163.64c-0.55,1.89-1.49,3.57-2.99,3.86c0.24,0.87,0.55,1.75,0.79,2.7
						c0.16,0.51,0.08,1.17-0.16,1.6c-0.16,0.22-0.31,0.58-0.47,0.87c-0.39,0.73-0.79,1.53-1.02,1.89c-0.55,0.87-0.24,3.42,0.24,4.15
						c0.47,0.73,3.3-1.46,3.62-2.04c0.16-0.29,0.39-2.4,0.55-4.3c0.16-1.53,0.24-2.91,0.24-2.91S41.11,166.99,40.72,163.64z"/>
					<path style="fill:#E8945B;" d="M61.86,170.49c-0.71-1.89-1.73-4.37-1.73-4.37s-0.31-0.36-0.86-1.09l0,0
						c-1.1,2.48-3.93,2.11-4.01,2.11c0.86,0.73,1.81,1.46,2.75,2.19c0.39,0.29,0.63,0.87,0.63,1.53c0,0.07,0,0.15,0,0.22
						c0,1.09,0,2.55,0,3.28c-0.08,1.17,1.26,2.91,1.97,3.06c0.63,0.15,1.97-4.15,1.97-4.88C62.49,172.24,62.25,171.44,61.86,170.49z
						"/>
					<path style="fill:#553716;" d="M43.23,135.44l-5.58,10.06l0.39,11.51l0.08,1.89l0.31,7.94l0.08,2.19c-0.08,0-0.24,0-0.31-0.07
						c-1.41-0.66-3.62-4.81-5.66-9.33c-0.31-0.73-0.63-1.46-0.94-2.26c-0.79-1.82-1.49-3.64-2.12-5.25
						c0.08-0.66,0.16-1.38,0.31-2.11c0.86-5.39,2.52-10.49,4.4-14.94c0.08-0.22,0.24-0.51,0.31-0.73c1.97-1.53,3.93-2.33,5.74-2.84
						c1.1-0.29,2.12-0.44,2.91-0.51c1.57-0.15,2.59,0.07,2.59,0.07L43.23,135.44z"/>
					<path style="fill:#956338;" d="M49.52,132.53c-1.02,4.08-9.2,14.86-10.14,15.37c-0.39,0.22-0.16,3.42,0.24,7.29l0,0
						c0.63,6.27,2.12,14.28,2.12,14.28s-0.94,0.87-1.73,1.6c-0.86,0.73-1.81,0.73-1.81,0.73c-0.94-3.42-1.57-7.36-2.36-10.27
						c-1.81-6.19-3.07-11.08-2.67-13.41c0.55-2.99,10.53-23.39,10.53-23.39C47.47,121.45,50.54,128.45,49.52,132.53z"/>
					<path style="fill:#FFB27D;" d="M56.04,121.45c-0.08,0-0.08,0-0.16,0.07c-0.24,0.07-0.55,0.15-0.94,0.22
						c-0.63,0.07-1.34,0.07-2.12,0c-3.22-0.29-7.62-1.89-9.43-6.92c-1.41-3.86-1.26-20.04,8.96-13.63c1.65,1.02,2.59,2.04,3.22,3.06
						c1.18,1.82,1.02,3.5,1.73,4.74C59.26,112.64,58.16,120.65,56.04,121.45z"/>
					<path style="fill:#553716;" d="M52.66,122.04c0,0-9.2-2.26-16.98,9.55c4.24-8.74,8.96-14.35,8.96-14.35s1.81-1.82,5.27,0.36
						L52.66,122.04z"/>
					<path style="fill:#956338;" d="M55.96,122.33c-3.38,1.53-10.93-2.26-12.73-7.29c-1.41-3.93-1.34-20.4,9.04-13.84
						c1.65,1.02,2.67,2.11,3.22,3.06l0,0c0,0-3.07-0.73-3.54,1.68c-0.39,2.4,1.81,3.28,1.49,4.59c-0.31,1.24-1.41,5.17,2.28,6.78
						c0.86,0.44,2.52,0.07,2.36,1.6C57.77,120.58,56.51,122.04,55.96,122.33z"/>
				</g>
				<g>
					<path style="fill:#E8945B;" d="M76.79,227.18c1.49-0.36,4.17-1.68,4.79-4.52c0.47-2.04,0.94-14.72,0.71-20.99
						c-0.31-8.38-3.14-18.22-3.93-33.66c-0.63-11.37,1.26-20.99,1.26-20.99l12.1-1.09c0,0-2.91,44.38-2.28,47.8
						c2.52,14.65-3.62,26.74-3.85,29.88c0.08,1.17,0.24,5.17-0.39,5.61H75.14C75.14,229.22,75.22,227.55,76.79,227.18z"/>
					<path style="fill:#FFB27D;" d="M96.05,194.76c-6.6-15.67-16.51-46.34-16.51-46.34l14.93-6.19c0,0,0.71,8.89,0.86,13.33
						c0.16,4.52,4.64,26.3,6.37,27.98c5.5,5.17,4.24,29.95,4.87,32.94l0.39,0.73c0,0,1.73,2.33,1.41,4.08
						c-0.31,1.68-1.89,2.77-2.12,4.88c-0.24,2.04-1.1,3.21-1.81,3.21c-0.79,0-3.69,0-3.69,0s-0.55-1.46,0.79-1.89
						c1.34-0.44,1.89-2.84,1.81-5.1c-0.08-1.02,0-2.26,0-3.28C103.12,215.09,101.39,207.44,96.05,194.76z"/>
					<path style="fill:#FFB27D;" d="M76.16,111.54c1.26-6.41,4.4-11.37,5.9-13.48l0.79-0.87c0.24-0.29,0.47-0.58,0.79-0.87l0,0l0,0
						c0.16-0.15,0.24-0.29,0.39-0.36c0.16-0.15,0.24-0.44,0.24-0.73c-0.08-0.87-0.16-1.68-0.24-2.33c-0.16-1.82-0.16-2.91-0.16-2.91
						l2.44-2.84l2.28-2.7c-0.16,4.95,1.26,8.23,2.28,9.98c1.65,3.06,2.99,7.65,3.46,12.17c0.39,3.42,0.63,7.21,0.55,11.22
						c0,1.46,0,2.99-0.08,4.44c-0.31,8.09,0.08,16.54,0.31,20.62c0.08,1.17-6.45,5.76-9.27,6.19c-3.38,0.51-5.5-2.7-5.82-4.66
						C80.02,143.75,74.2,121.38,76.16,111.54z"/>
					<path style="fill:#956238;" d="M78.76,144.92c0,0-3.38,21.06-1.81,21.2c1.65,0.22,8.8,0,9.43-9.18
						C86.7,151.77,78.76,144.92,78.76,144.92z"/>
					<path style="fill:#E8945B;" d="M88.74,87.28c0,0-1.57,4.3-4.64,5.54c-0.16-1.82-0.16-2.91-0.16-2.91l2.44-2.84L88.74,87.28z"/>
					<path style="fill:#754E28;" d="M95.19,144.55c0,0,6.52,30.82,6.52,31.84s-16.82-4.59-19.73-6.05
						c-2.91-1.38-3.46-23.9-3.22-25.5C78.99,143.24,95.19,144.55,95.19,144.55z"/>
					<path style="fill:#E8945B;" d="M82.84,89.83c0,0,6.05,1.46,6.6-4.01c0.55-5.46,1.73-9.04-2.12-10.2
						c-3.85-1.17-4.79,0.8-5.27,2.55C81.51,79.92,81.27,89.25,82.84,89.83z"/>
					<path style="fill:#553716;" d="M95.19,142.8c0,0-14.7,2.4-15.8-1.68l-0.63,3.72c0,0,7.78,6.12,16.74,1.02L95.19,142.8z"/>
					<path style="fill:#E8945B;" d="M64.61,143.82c0.86-0.73,3.46-1.68,3.46-1.68s4.79-9.33,5.74-10.71s5.9-20.55,5.9-20.55
						s2.04,14.14,0.94,18.65c-1.02,4.52-11,14.28-11,14.28s-1.26,1.02-1.57,2.04c-0.31,1.02-2.12,1.02-2.59,0.87
						c-0.47-0.15-2.44,2.7-2.52,1.89C62.8,147.9,63.74,144.55,64.61,143.82z"/>
					<path style="fill:#231F20;" d="M83.95,72.05c4.64-0.51,6.29,0.29,7.07,1.53c-0.08-0.58-0.39-0.87-0.39-0.87
						c0.71,0.22,0.86,1.24,0.94,1.82c0.31,0,0.55,0.22,0.55,0.22c-0.31,0-0.39,0.07-0.47,0.22c0,0.15,0.08,0.22,0.08,0.36
						c0.39,1.38,0.24,8.31-0.71,9.76c-0.94,1.53-2.2,2.91-2.2,2.91l0,0c-1.89,4.01-4.87,2.04-5.9,1.89
						c-1.1-0.15-1.81-4.01-1.18-5.03c0.63-1.02,1.81,0.51,3.07,0.44c0.94-0.07,1.65-2.62,1.97-3.72c0-0.07,0.08-0.15,0.08-0.29
						c-0.39-0.8-0.63-3.06-1.89-3.21c-1.49-0.15-3.46,1.75-4.24,1.02C79.86,78.53,77.81,72.78,83.95,72.05z M88.66,83.71
						L88.66,83.71c0-0.07,0-0.22,0-0.29c0.16-1.09,0.16-2.7-0.55-2.26c-0.47,0.29-0.63,0.51-0.86,0.51c0,0.07,0,0.07,0,0.07
						C87.33,83.71,88.11,85.17,88.66,83.71z"/>
					<path style="fill:#754E28;" d="M76.24,138.21c2.2,0,18.94,0.15,18.94-4.15c0-0.29,0-0.58,0-1.02
						c-0.08-2.77-0.24-8.82-0.47-14.79c-0.31-8.02-0.63-15.96-0.63-15.96s-1.73-8.53-3.69-8.89c-2.04-0.36-14.46,9.4-14.93,21.86
						C75.22,122.04,74.04,138.21,76.24,138.21z"/>
					<g>
						<path style="fill:#233862;" d="M114.68,188.05L114.68,188.05c0.24-0.36,0.39-1.17,0.16-1.53L59.11,98.21
							c-0.24-0.36-0.71-0.44-0.94-0.07l-0.08,0.15c-0.24,0.36-0.31,1.02,0,1.38l55.65,88.31
							C113.97,188.42,114.44,188.49,114.68,188.05z"/>
						<path style="fill:#97BDFF;" d="M57.61,98.72c0.24-0.07,0.39-0.22,0.63-0.51c0.79-1.09,0.08-2.4,0.08-2.4l-4.17-3.86
							c0,0,2.2,6.27,2.28,6.49C56.44,98.5,56.99,98.94,57.61,98.72z"/>
						<path style="fill:#85ABF7;" d="M57.61,98.72c0.08-0.51,0-1.82-0.08-1.97c0-0.22-3.46-4.88-3.46-4.88s2.2,6.27,2.28,6.49
							C56.44,98.5,56.99,98.94,57.61,98.72z"/>
						<path style="fill:#F1A34F;" d="M57.77,99.67c-0.39-0.44-0.79-0.95-0.79-0.95c1.18-0.95,1.49-2.19,1.49-2.19
							c0.63,0.87,0.86,2.11,0.86,2.11s-0.94,1.31-1.1,1.46c0.31,1.17,1.02,3.28,1.02,3.72c0,0.58-0.71,0.95-0.71,0.95
							c-0.39-1.09-0.47-3.5-0.47-4.74c-0.08-0.07-0.16-0.15-0.24-0.22c-0.08,0.29-0.16,0.73-0.16,1.09c0.08,0.8-0.31,0.29-0.39,0.36
							s-0.31,0-0.24-0.22C57.14,101.05,57.22,100.32,57.77,99.67z"/>
					</g>
					<path style="fill:#956238;" d="M95.19,133.04c-0.08-2.77-0.24-8.82-0.47-14.79c-3.54-4.52-6.92-8.23-6.92-8.23
						S86.7,128.01,95.19,133.04z"/>
					<path style="fill:#E8945B;" d="M86.93,100.1c1.02-1.97,2.99-2.04,4.17-0.29c3.38,5.17,13.6,21.13,13.28,24.63
						c-0.31,4.23-3.77,10.64-12.73,21.5c-0.31,2.84-0.94,2.33-0.94,2.33l-1.02-1.38c0,0-0.63,1.09-1.34,0.66
						c-0.63-0.44-0.79-2.91-0.55-3.21c0.16-0.29,2.12,0.44,2.12,0.44s7.55-18.87,7.15-19.97c-0.39-1.09-10.38-11.44-11.32-14.21
						C85.2,108.7,85.36,103.09,86.93,100.1z"/>
				</g>
				<g>
					<path style="fill:#E8945B;" d="M136.69,116.5c0,0,10.77,15.88,11.16,15.16c0.39-0.8,4.24-11.8,4.79-13.41h2.12
						c0,0-1.18,19.38-5.66,23.24c0,0-11.79-5.32-12.97-10.13C135.04,126.55,136.69,116.5,136.69,116.5z"/>
					<g>
						<path style="fill:#F1A34F;" d="M160.66,119.27c-0.16,0.66-0.63,1.17-1.34,1.02l-23.11-5.03c-1.34-0.22-2.83-0.66-4.32-1.17
							c-6.21-2.19-11.71-1.82-11-8.23c0-0.22,0.08-0.44,0.08-0.66c1.18-7.58,5.97-2.99,12.42-0.73c1.49,0.51,2.91,1.17,4.24,1.82
							l22.4,11.22C160.58,117.74,160.74,118.54,160.66,119.27z"/>
						<path style="fill:#E58435;" d="M160.66,119.27c-0.16,0.66-0.63,1.17-1.34,1.02l-23.11-5.03c-1.34-0.22-2.83-0.66-4.32-1.17
							c-6.21-2.19-11.71-1.82-11-8.23c2.2-2.04,6.37,0.8,11.48,2.11c1.57,0.44,3.14,0.95,4.48,1.53L160.66,119.27z"/>
						<path style="fill:#2B478B;" d="M155.31,119.34l-0.08-4.08c0,0,0-1.17,1.57-0.22c1.57,0.95,0.24,4.44,0.16,4.74
							C156.73,120.43,155.31,119.78,155.31,119.34z"/>
					</g>
					<path style="fill:#E8945B;" d="M123.4,156.87c0,0,0.71,33.66,0,37.38c-0.79,3.64-3.77,10.71-4.09,27.62c0,0,0,2.19-0.31,3.13
						c-0.31,0.95-0.79,3.5-0.31,4.23h9.83c0,0,0.08-2.04-3.22-3.72c0,0-2.04-0.36-1.41-3.35c0.55-2.99,8.33-23.03,8.72-26.81
						c0.39-3.79,6.21-35.34,1.89-38.55C130.08,153.73,123.4,156.87,123.4,156.87z"/>
					<path style="fill:#FFB27D;" d="M139.36,146.96c-1.81,12.97-2.2,11.29-3.85,13.19c-4.87,5.54-12.26,0-12.26,0
						c-0.55-6.41-0.79-12.02-0.71-16.83c0.08-3.79,0.24-7.07,0.63-10.06c1.73-15.81,6.76-20.04,6.76-20.04s4.64-3.21,7.39,0.15
						C147.3,125.39,141.4,132.16,139.36,146.96z"/>
					<path style="fill:#FFB27D;" d="M123.4,156.72c0,0-1.18,13.26,15.25,34.03c0,0,1.65,3.06,2.04,6.49
						c0.39,3.42,1.57,14.14,8.49,25.87c0,0-0.16,3.86,0,4.88c0.16,1.02,0.16,1.02,0.16,1.02h10.14c0,0-0.39-3.35-2.99-4.3
						c-2.52-0.95-4.72-3.21-6.68-13.48c-1.97-10.27-1.97-24.77-3.85-27.91c-1.89-3.13-6.6-29.58-12.03-31.48
						C128.43,150.09,123.4,156.72,123.4,156.72z"/>
					<path style="fill:#FFB27D;" d="M151.54,113.22c0,0-1.02,2.84,0.71,3.5c1.73,0.66,2.91-1.68,2.91-1.68S153.35,113,151.54,113.22
						z"/>
					<path style="fill:#FFB27D;" d="M138.65,106.73c-0.08,1.82-0.47,4.95-0.94,7.07c-0.24,1.09-0.55,1.89-0.86,2.19
						c-1.02,1.09-8.72-0.22-8.02-1.46c1.49-2.77,2.91-9.62,2.91-9.62s6.29-0.58,6.84,0.36C138.57,105.5,138.65,106.01,138.65,106.73
						z"/>
					<path style="fill:#E8945B;" d="M138.65,106.73c-0.08,1.82-0.47,4.95-0.94,7.07c-2.28-0.87-5.74-5.39-6.21-5.25
						C131.5,108.56,135.51,106.95,138.65,106.73L138.65,106.73z"/>
					<path style="fill:#FFB27D;" d="M138.26,91.5c0,0,5.27,10.13,2.12,17.12c0,0-9.35,4.66-10.93-4.01
						C127.8,95.88,131.89,86.84,138.26,91.5z"/>
					<path style="fill:#754E28;" d="M122.62,151.62c0,0-1.26,6.49-0.16,12.1c1.1,5.61,0.16,11.44,0.16,11.44s8.65,4.74,19.1-6.05
						c0,0-3.46-10.64-3.3-12.39c0.16-1.82,0.08-4.44,0.08-4.44L122.62,151.62z"/>
					<path style="fill:#231F20;" d="M141.4,100.03c-0.79-0.87-3.93,2.48-4.87,3.21c-1.02,0.73-3.38,0-3.38,0
						c-0.86-1.68-2.04-1.89-1.34-3.21c0.86-1.6,2.04-1.31,2.36-0.51c0.39,0.8,5.34-2.99,4.24-8.74c0,0-2.52-9.11-12.26,0.8
						c-6.68,6.78,5.27,17.05,5.27,17.05c2.67,2.48,8.02,1.31,8.88,0C141.32,107.32,142.19,100.9,141.4,100.03z"/>
					<path style="fill:#553716;" d="M122.54,145.79c0,0,6.52,3.72,16.82,1.17l-0.79,5.25c0,0-9.04,4.37-15.88-0.58L122.54,145.79z"
						/>
					<path style="fill:#E8945B;" d="M135.27,124.44c0,0-5.5,16.32-12.73,18.95c0.08-3.79,0.24-7.07,0.63-10.06
						C126.7,128.81,133.07,124.51,135.27,124.44z"/>
					<path style="fill:#FFB27D;" d="M131.03,116.72c0,0-15.64,14.28-16.27,17.34s-0.79,19.09-0.71,23.03c0,0-0.47,4.88-0.24,5.98
						c0.31,1.09,1.73,3.93,2.59,3.13c0.86-0.87,0.63-5.61,1.02-5.68c0.39-0.07,0.55,1.53,0.71,1.09s0-2.11-1.49-3.86
						c0,0,2.44-19.75,2.99-20.11c2.59-1.75,15.33-11.08,15.33-11.08S138.81,114.68,131.03,116.72z"/>
					<path style="fill:#E8945B;" d="M140.14,126.63c-0.24,0-0.39,0.29-0.39,0.66s0.16,0.66,0.39,0.66c0.24,0,0.39-0.29,0.39-0.66
						C140.62,126.92,140.38,126.63,140.14,126.63z"/>
				</g>
				<rect x="7.78" y="238.99" style="fill:#2B478B;" width="220.32" height="25.94"/>
				<path style="fill:#81ACEA;" d="M232.58,238.99H3.22C1.49,238.99,0,237.68,0,236v-4.08c0-1.6,1.41-2.99,3.22-2.99h229.43
					c1.73,0,3.22,1.31,3.22,2.99V236C235.8,237.68,234.39,238.99,232.58,238.99z"/>
				<g>
					<g>
						<g>
							<path style="fill:#ED1C24;" d="M189.11,217.27c-14.7,0-23.66-13.48-24.05-14.14l3.07-4.3l-1.49,2.19l1.49-2.19
								c0,0,2.28,3.42,6.21,6.56c5.19,4.23,10.85,6.05,16.66,5.54c14.07-1.24,20.36-12.24,20.44-12.39l3.22,3.93
								c-0.31,0.51-7.55,13.26-23.42,14.65C190.53,217.27,189.82,217.27,189.11,217.27z"/>
						</g>
						<g>
							<path style="fill:#739AF0;" d="M215.92,186.81v76.44c0,0.95-0.55,1.75-1.26,1.75h-2.36l0,0c-0.71,0-1.26-0.8-1.26-1.75
								v-76.44c0-0.95,0.55-1.75,1.26-1.75l0,0h2.36C215.29,185.07,215.92,185.87,215.92,186.81z"/>
							<path style="opacity:0.5;fill:#4A75CB;enable-background:new    ;" d="M213.48,186.81v76.44c0,0.95-0.55,1.75-1.26,1.75
								s-1.26-0.8-1.26-1.75v-76.44c0-0.95,0.55-1.75,1.26-1.75S213.48,185.87,213.48,186.81z"/>
						</g>
					</g>
					<g>
						<g>
							<path style="fill:#ED1C24;" d="M142.27,217.27c-14.7,0-23.66-13.48-24.05-14.14l3.07-4.3l-1.49,2.19l1.49-2.19
								c0,0,2.28,3.42,6.21,6.56c5.19,4.23,10.85,6.05,16.66,5.54c14.07-1.24,20.36-12.24,20.44-12.39l3.22,3.93
								c-0.31,0.51-7.55,13.26-23.42,14.65C143.68,217.27,142.97,217.27,142.27,217.27z"/>
						</g>
						<g>
							<path style="fill:#739AF0;" d="M169.07,186.81v76.44c0,0.95-0.55,1.75-1.26,1.75h-2.36l0,0c-0.71,0-1.26-0.8-1.26-1.75
								v-76.44c0-0.95,0.55-1.75,1.26-1.75l0,0h2.36C168.44,185.07,169.07,185.87,169.07,186.81z"/>
							<path style="opacity:0.5;fill:#4A75CB;enable-background:new    ;" d="M166.63,186.81v76.44c0,0.95-0.55,1.75-1.26,1.75
								c-0.71,0-1.26-0.8-1.26-1.75v-76.44c0-0.95,0.55-1.75,1.26-1.75S166.63,185.87,166.63,186.81z"/>
						</g>
					</g>
					<g>
						<g>
							<path style="fill:#ED1C24;" d="M94.63,217.27c-14.7,0-23.66-13.48-24.05-14.14l3.07-4.3l-1.49,2.19l1.49-2.19
								c0,0,2.28,3.42,6.21,6.56c5.19,4.23,10.85,6.05,16.66,5.54c14.07-1.24,20.36-12.24,20.44-12.39l3.22,3.93
								c-0.31,0.51-7.55,13.26-23.42,14.65C96.05,217.27,95.34,217.27,94.63,217.27z"/>
						</g>
						<g>
							<path style="fill:#739AF0;" d="M121.44,186.81v76.44c0,0.95-0.55,1.75-1.26,1.75h-2.36l0,0c-0.71,0-1.26-0.8-1.26-1.75
								v-76.44c0-0.95,0.55-1.75,1.26-1.75l0,0h2.36C120.81,185.07,121.44,185.87,121.44,186.81z"/>
							<path style="opacity:0.5;fill:#4A75CB;enable-background:new    ;" d="M119,186.81v76.44c0,0.95-0.55,1.75-1.26,1.75
								c-0.71,0-1.26-0.8-1.26-1.75v-76.44c0-0.95,0.55-1.75,1.26-1.75S119,185.87,119,186.81z"/>
						</g>
					</g>
					<g>
						<g>
							<path style="fill:#ED1C24;" d="M47,216.54c-14.7,0-23.66-13.48-24.05-14.14l3.07-4.3l-1.49,2.19l1.49-2.19
								c0,0,2.28,3.42,6.21,6.56c5.19,4.23,10.85,6.05,16.66,5.54c14.07-1.24,20.36-12.24,20.44-12.39l3.22,3.93
								c-0.31,0.51-7.55,13.26-23.42,14.65C48.34,216.47,47.71,216.54,47,216.54z"/>
						</g>
						<g>
							<path style="fill:#739AF0;" d="M26.1,186.52v76.44c0,0.95-0.55,1.75-1.26,1.75h-2.36c-0.71,0-1.26-0.8-1.26-1.75v-76.44
								c0-0.95,0.55-1.75,1.26-1.75h2.36C25.47,184.77,26.1,185.58,26.1,186.52z"/>
							<path style="opacity:0.5;fill:#4A75CB;enable-background:new    ;" d="M23.97,186.52v76.44c0,0.95-0.55,1.75-1.26,1.75h-0.24
								c-0.71,0-1.26-0.8-1.26-1.75v-76.44c0-0.95,0.55-1.75,1.26-1.75h0.24C23.42,184.77,23.97,185.58,23.97,186.52z"/>
							<path style="fill:#739AF0;" d="M73.81,186.52v76.44c0,0.95-0.55,1.75-1.26,1.75h-2.36l0,0c-0.71,0-1.26-0.8-1.26-1.75v-76.44
								c0-0.95,0.55-1.75,1.26-1.75l0,0h2.36C73.18,184.77,73.81,185.58,73.81,186.52z"/>
							<path style="opacity:0.5;fill:#4A75CB;enable-background:new    ;" d="M71.37,186.52v76.44c0,0.95-0.55,1.75-1.26,1.75
								s-1.26-0.8-1.26-1.75v-76.44c0-0.95,0.55-1.75,1.26-1.75C70.74,184.77,71.37,185.58,71.37,186.52z"/>
						</g>
					</g>
				</g>
			</g>
		</g>
	</g>
</g>
<path style="fill:#3E3533;" d="M83.32,81.3c0,0.29-0.24,0.58-0.63,0.58c-0.31,0-0.63-0.22-0.63-0.58c0-0.29,0.24-0.58,0.63-0.58
	C83,80.72,83.32,80.94,83.32,81.3z"/>
<g>
	<path style="fill:#3E3533;" d="M83.79,79.99c0,0-0.16,0-0.31-0.07c-0.16-0.07-0.39-0.07-0.71-0.07c-0.24,0-0.47,0.07-0.71,0.22
		c-0.08,0.07-0.16,0.07-0.24,0.07c-0.08,0-0.08,0-0.08,0v-0.07c0-0.07,0.08-0.07,0.16-0.15c0.16-0.15,0.39-0.29,0.79-0.29
		c0.31,0,0.63,0.07,0.79,0.15C83.71,79.85,83.79,79.92,83.79,79.99z"/>
</g>
<path style="fill:#3E3533;" d="M140.14,97.63c0,0.29-0.24,0.58-0.63,0.58c-0.31,0-0.63-0.22-0.63-0.58c0-0.29,0.24-0.58,0.63-0.58
	C139.83,97.04,140.14,97.33,140.14,97.63z"/>
<g>
	<path style="fill:#3E3533;" d="M139.99,96.1c0,0.07-0.16,0.07-0.39,0.07c-0.24,0-0.55,0.07-0.86,0.22
		c-0.31,0.15-0.55,0.36-0.71,0.51c-0.08,0.07-0.16,0.15-0.16,0.22c-0.08,0.07-0.08,0.07-0.08,0.07s0-0.07,0-0.15
		s0.08-0.15,0.08-0.29c0.16-0.22,0.39-0.44,0.79-0.66c0.39-0.15,0.71-0.22,1.02-0.15C139.91,95.95,140.07,96.02,139.99,96.1z"/>
</g>
<path style="fill:#3E3533;" d="M56.36,108.56c0,0.29-0.24,0.58-0.63,0.58c-0.31,0-0.63-0.22-0.63-0.58c0-0.29,0.24-0.58,0.63-0.58
	C56.04,107.97,56.28,108.19,56.36,108.56z"/>
<path style="fill:#3E3533;" d="M166.32,148.56c0,0.29-0.24,0.58-0.63,0.58c-0.31,0-0.63-0.22-0.63-0.58c0-0.29,0.24-0.58,0.63-0.58
	C166,147.98,166.32,148.2,166.32,148.56z"/>
<g>
	<path style="fill:#2B478B;" d="M237.24,149.32c-0.02,0-0.05,0-0.07-0.01l-54.92-8.2c-0.27-0.04-0.46-0.29-0.42-0.56
		c0.04-0.27,0.29-0.46,0.56-0.42l54.92,8.2c0.27,0.04,0.46,0.29,0.42,0.56C237.69,149.14,237.48,149.32,237.24,149.32z"/>
	<g>
		<polygon style="fill:#FFB27D;" points="280.86,248.08 278.57,257.69 275.16,257.67 275.03,248.08 		"/>
		<polygon style="fill:#FFB27D;" points="252.11,248.49 245.62,257.69 243.09,254.44 247,247.22 		"/>
		<path d="M268.99,121.83c1.18-0.67,2.59-0.74,3.58-0.69c-0.25-0.26-0.76-0.36-0.76-0.36c0.61-0.09,1.98,0.52,1.98,0.52
			c8.53-3.29,9.87,9.27,9.69,12.19c-0.18,2.92,2.87,3.87,7.3,6.17c8.47,4.39,9.21,10.26,9.21,10.26c-0.07,0.04-0.13,0.08-0.21,0.13
			c-0.42-0.71-1.28-2.05-2.01-2.25c0.03,0.06,0.86,1.84,1.17,2.86c-2.5,1.9-7.17,6.11-10.43,9.09c0.01-0.58-0.01-1.41-0.22-1.85
			l-0.4,2.42c-1.74,1.6-2.94,2.73-2.94,2.73c0.22-2.36-10.66-14.8-16.34-18.53c-1.38-2.03-1.87-5.63-1.91-5.91
			c0.24,2.85,0.73,4.45,1.16,5.35C263.06,139.54,265.86,123.6,268.99,121.83z"/>
		<path style="fill:#FFB27D;" d="M268.95,144.71c-0.03,0.01,2.74,1.45,4.82,0.88c1.96-0.53,3.24-3.07,3.21-3.08
			c-0.83-0.16-1.07-1.3-1.05-6.2l-0.37,0.07l-6.31,1.25c0,0,0.14,1.98,0.15,3.85C269.41,143.06,269.31,144.55,268.95,144.71z"/>
		<path d="M276.09,123.88c0,0-3.11-3.31-7.02-0.17C269.07,123.71,271.34,123.32,276.09,123.88z"/>
		<path style="fill:#D68D5D;" d="M269.26,137.63c0,0,0.14,1.98,0.15,3.85c3.53-0.1,5.39-3.32,6.16-5.1L269.26,137.63z"/>
		<path d="M276.21,135.7c0,0,1.85-2.92,2.29-5.42c0.32-1.78-0.59-8.4-7.24-7.44c0,0-1.93,0.19-3.74,1.42
			c-1.44,0.97-3.52,3.08-1.2,8.85l0.6,1.95L276.21,135.7z"/>
		<path d="M244.12,251.92l3.34,0.1l3.62,0.11c0,0,8.36-9.3,13.04-24.22c0.11-0.35,0.22-0.7,0.35-1.05
			c2.57-7.48,7.88-16.87,10.69-25.37c0.45-1.35,0.85-2.63,1.21-3.83c0.11-0.39,0.23-0.77,0.33-1.14c2.07-7.18,2.66-11.89,3.21-16.92
			l-20.24,0.16C259.68,179.75,256.41,214.13,244.12,251.92z"/>
		<path style="fill:#E7F1FD;" d="M262.51,168.12c0.05,9.63-1.41,13.76-1.41,13.76s8.67,4.4,18.96,1.16
			c0.12-0.04,8.53-1.96,8.53-1.96c-0.17-0.39-1.71-6.88-1.87-7.24c-2.17-4.67-3.83-6.72-4.08-8.15c-0.48-2.68-0.49-5.45-0.25-8.07
			c0.63-6.92,2.5-12.67,2.5-12.67c-2.81-0.64-5.51-1.73-8.43-2.83c-0.67,0.84-2.65,1.68-4.43,1.64c-2.05-0.05-2.69-0.91-2.62-1.89
			c-2.19,1.22-3.92,2.37-3.92,2.37c-1.86,3.23-5.63,6.36-5.9,11.31C259.51,156.79,262.51,167.86,262.51,168.12z"/>
		<path style="fill:#5F9AA8;" d="M279.92,169.2c0.88,1.25,2.58,8.86,6.8,9.82c-2.17-5.42-3.83-7.8-4.08-9.47
			c-0.48-3.11-0.49-6.33-0.25-9.37c-1.41-2.48-2.47-4.17-2.47-4.17c-0.11-0.4-2.24-7-2.93-1.1
			C276.31,160.8,278.93,167.8,279.92,169.2z"/>
		<path style="fill:#FFB27D;" d="M268.08,139.4c0,0,8.35,0.14,8.35-5.06c0.01-5.2,1.09-8.69-4.24-8.99
			c-5.33-0.31-6.37,1.68-6.79,3.41C264.97,130.49,265.91,139.23,268.08,139.4z"/>
		<path d="M265.65,125.87c1.29-1.56,2.26-1.22,2.81-0.75c1.8-2.7,9.48,1.31,9.48,1.31c0.56,3.73,1.28,5.76,1.28,5.76
			s-1.52,0.94-5.03,0.04c-2.76-0.71-4.76-4.64-5.49-6.28c-0.5,0.44-1.54,1.46-1.86,2.46c-0.42,1.32-0.6,4.05-1.4,3.96
			C265.43,132.36,263.71,128.21,265.65,125.87z"/>
		<path style="fill:#FFB27D;" d="M278.69,257.15c0,0-0.28,1.9,0.44,3.94c0,0,0.56,2.55-1.95,2.6s-3.13-0.19-2.84-1.75
			c0.28-1.56,0.82-4.26,0.82-4.26L278.69,257.15z"/>
		<path style="fill:#82B378;" d="M274.1,264.93C274.1,264.93,274.1,264.94,274.1,264.93l5.2,0.01c0.01,0,0.01-0.01,0.01-0.01
			c0.28-1.33-0.18-3.84-0.18-3.84c-2.84,2.72-4.62-0.07-4.62-0.07C274.04,262.19,274.1,264.93,274.1,264.93z"/>
		<path style="fill:#FFB27D;" d="M237.05,262.31c0,0,4.63-5.25,6.05-7.87l3.44,1.76l-7.69,7.22l-1.8-0.24L237.05,262.31z"/>
		<path style="fill:#82B378;" d="M234.21,264.93h6.42c0.57-0.51,1.1-1.54,1.76-2.88c0.38-0.77,1.23-1.2,2.1-1.43v4.31h1.33
			l1.23-4.58c0.82-1.54,0.2-2.94-0.37-4.16c-0.67,0-2.61,0.48-6.03,4.41c-1.12,1.29-2.36,1.75-3.6,1.71
			c-0.02,0.01-0.03,0.02-0.05,0.03C235.05,263.23,234.41,264.32,234.21,264.93z"/>
		<path style="fill:#A8D29F;" d="M234.52,148.03c0,0,5.48,3.06,7.44,3.95c0.7,0.31,1.96,0.9,3.25,1.5c0.78,0.36,1.57,0.73,2.25,1.05
			c1.15,0.54,2.52,0.24,3.35-0.72c2.97-3.46,10.65-10.97,18.58-11.92l0.03-0.01c0,0,0,0,0,0.01c0,0,0.01,0,0.01,0l-0.04,0.09
			c-0.45,1.11-4.79,11.97-4.93,14.26c-0.14,2.41-0.57,39.49-0.57,39.49s0.28,1.7-2.98,0.99c-3.27-0.71-4.12-1.42-4.12-1.42
			s3.13-22.87,2.27-30.83c-0.17-1.56-0.02-3.32,0.33-5.13c-4.83,2.93-10.53,4.23-10.53,4.23s-2.12-0.93-5.42-2.97
			c-1.39-0.86-2.99-2.23-4.57-3.68c-1.91-1.75-5.2-5.98-5.2-5.98L234.52,148.03z"/>
		<path style="fill:#191919;" d="M247.47,252.02l3.62,0.11c0,0,8.36-9.3,13.04-24.22c0.11-0.35,0.22-0.7,0.35-1.05
			c2.57-7.48,7.88-16.87,10.69-25.37c0.45-1.35,0.85-2.63,1.21-3.83c0.11-0.39,0.23-0.77,0.33-1.14l-2.98-2.26
			c0,0-8.95,14.49-11.72,28.13C259.6,234.22,249.96,248.48,247.47,252.02z"/>
		<path d="M273.41,223.65c-0.05,6.63,0.28,21.88,1.15,28.19h3.2c1.77,0,2.65-0.03,2.65-0.03c2.17-10.97,3.71-20.05,4.83-27.88
			c0.92-6.42,1.74-11.93,2.37-16.66c0.63-4.77,1.07-8.76,1.23-12.14c0.02-0.53,0.04-1.05,0.05-1.55c0.01-0.5,0.01-0.99,0.01-1.47
			l-17.49-1.7C271.64,202.03,273.44,219.79,273.41,223.65z"/>
		<path style="fill:#191919;" d="M277.76,251.84c1.77,0,2.65-0.03,2.65-0.03c2.17-10.97,3.71-20.05,4.83-27.88
			c0.92-6.42,1.74-11.93,2.37-16.66c0.63-4.77,1.07-8.76,1.23-12.14l-6.42,3.77c0,0,4.1,1.44,2.53,12.38
			C283.4,222.23,279.94,250.29,277.76,251.84z"/>
		<path style="fill:#A8D29F;" d="M276.94,195.03c0,0,1.23,4.45,5.49,3.88c4.26-0.57,10.32-3.13,10.32-3.13s-1.82-5.75-4.09-13.31
			c-2.74-9.15-6.14-20.95-7.73-28.39c-0.45-2.09-0.76-3.83-0.87-5.07l-3.61-6.86c0,0-5.2,11.83-5.48,14.82
			C270.69,159.94,276.94,195.03,276.94,195.03z"/>
		<path style="fill:#FFB27D;" d="M261.72,160.28c2.05,0.27,2.84,1.36,3.09,2.83c0.14,0.79,0.55,1.58,0.89,2.13
			c2.04,0.11,6.91,0.37,11,0.63l0.34,5.36c-3.36-0.42-7.48-1.27-12.23-2.9c-0.36-0.06-0.82-0.29-1.39-0.76
			c-2.94-2.41-4.61-6.45-4.62-7.02C258.79,159.99,259.67,160.01,261.72,160.28z"/>
		<path style="fill:#82B378;" d="M277.13,163.2c0.19,4.83,1.33,14.21,11.46,19.22c0.03,0.01,0.05,0.03,0.08,0.04
			c-2.74-9.15-6.14-20.95-7.73-28.39C279.07,156.86,277.02,160.55,277.13,163.2z"/>
		<path style="fill:#A8D29F;" d="M276.45,142.14c0,0,8.67,0.61,10.75,5.26c2.08,4.64,2.75,20.08,0.09,24.62
			c0,0-3.65,1.04-10.11-0.17c-0.08-0.01-0.16-0.03-0.24-0.05c0,0-2.06-5.04-0.21-6.04c0,0,5.45,0.28,4.88-1.52
			C281.05,162.45,276.45,142.14,276.45,142.14z"/>
		<g>
			<path style="fill:#FFB27D;" d="M228.64,144.39c4.66-0.6,6.17,4.22,6.17,4.22l-0.94,2.39c-1.44,0.2-2.96-0.22-4.12-1.88
				c-1.16-1.66-1.48-1.02-2.21-2.26C226.54,145.18,228.11,144.56,228.64,144.39z"/>
			<path style="fill:#FFB27D;" d="M241.96,151.98c0.7,0.31,1.96,0.9,3.25,1.5c-0.69,1.22-1.55,3.45-1.78,7.13
				c-1.39-0.86-3.18-2.29-4.71-3.79c-2.46-2.41-5.06-5.87-5.06-5.87l0.87-2.91C234.52,148.03,240,151.1,241.96,151.98z"/>
		</g>
	</g>
</g>
<g>
	<path d="M267.39,132.66c-0.1,0.22-0.36,0.32-0.58,0.22c-0.22-0.1-0.32-0.36-0.22-0.58c0.1-0.22,0.36-0.32,0.58-0.22
		C267.4,132.18,267.49,132.44,267.39,132.66z"/>
	<path d="M271.88,132.63c-0.1,0.22-0.35,0.31-0.57,0.21c-0.22-0.1-0.31-0.35-0.21-0.57c0.1-0.22,0.35-0.31,0.57-0.21
		C271.88,132.16,271.98,132.42,271.88,132.63z"/>
	<g>
		<path style="fill:#2C2858;" d="M272.88,132.55c-0.05-0.02-0.09-0.06-0.11-0.1c-0.36-0.7-1.25-0.8-1.26-0.8
			c-0.13-0.01-0.22-0.13-0.2-0.25s0.13-0.22,0.25-0.2c0.05,0,1.15,0.13,1.62,1.05c0.06,0.11,0.01,0.25-0.1,0.31
			C273.02,132.58,272.95,132.58,272.88,132.55z"/>
	</g>
	<g>
		<path style="fill:#2C2858;" d="M266.07,131.92c-0.02-0.01-0.04-0.02-0.06-0.04c-0.09-0.09-0.1-0.23-0.01-0.32
			c0.67-0.72,1.54-0.46,1.58-0.45c0.12,0.04,0.19,0.16,0.15,0.29c-0.04,0.12-0.16,0.19-0.28,0.15c-0.03-0.01-0.64-0.18-1.11,0.33
			C266.26,131.94,266.16,131.96,266.07,131.92z"/>
	</g>
	<path style="fill:#DE623C;" d="M268.63,133.5c-0.32,0.36-0.6,0.72-0.91,0.93c-0.1,0.07-0.13,0.22-0.07,0.32
		c0.27,0.45,1.04,0.79,1.51,0.97c0.07,0.03,0.12-0.06,0.06-0.11c-0.48-0.39-0.69-0.68-0.78-0.84c-0.04-0.08-0.05-0.18-0.01-0.26
		c0.09-0.19,0.26-0.58,0.38-0.91C268.86,133.5,268.71,133.41,268.63,133.5z"/>
</g>
<path style="fill:#FFFFFF;" d="M267.83,137.2c-0.08-0.09-0.01-0.24,0.11-0.23c0.31,0.02,0.82,0.04,1.31,0.02
	c0.49-0.03,0.99-0.11,1.3-0.16c0.12-0.02,0.21,0.11,0.14,0.22c-0.21,0.32-0.64,0.8-1.39,0.84
	C268.56,137.93,268.07,137.49,267.83,137.2z"/>
</svg>
