<?xml version="1.0" encoding="utf-8"?>
<!-- Generator: Adobe Illustrator 25.1.0, SVG Export Plug-In . SVG Version: 6.00 Build 0)  -->
<svg version="1.1" id="Layer_1" xmlns="http://www.w3.org/2000/svg" xmlns:xlink="http://www.w3.org/1999/xlink" x="0px" y="0px"
	 viewBox="0 0 150 150" style="enable-background:new 0 0 150 150;" xml:space="preserve">
<circle style="fill:#F7D5C9;" cx="75" cy="75" r="75"/>
<g>
	<path style="fill:#EF7E5C;" d="M56.53,68.31l3.05-3.34c2.51-2.75,3.79-6.31,3.6-10.02c-0.19-3.71-1.82-7.12-4.6-9.61l-5.15-4.61
		c-2.58-2.32-5.92-3.59-9.4-3.59c-3.96,0-7.75,1.66-10.4,4.57l-3.05,3.34c-0.39,0.43-0.77,0.9-1.12,1.4l-0.14,0.15
		c-2.88,2.44-5.33,8.37-3.91,15.64c6.55,33.81,35.3,59.57,69.91,62.64c4.54,0.41,8.81-0.52,12.05-2.49c1.3-0.74,2.44-1.66,3.42-2.73
		l3.05-3.34c5.18-5.68,4.74-14.48-0.99-19.62l-5.15-4.61c-2.58-2.31-5.92-3.59-9.4-3.59c-3.96,0-7.75,1.67-10.4,4.57l-3.05,3.34
		c-1.3,1.43-2.27,3.07-2.89,4.88l-0.27,0.81l-0.8-0.31c-13.6-5.32-24.69-15.4-31.22-28.38l-0.43-0.86l0.93-0.28
		C52.62,71.57,54.81,70.19,56.53,68.31z"/>
	<path style="fill:#EF7E5C;" d="M73.65,28.24c0,1.79,1.46,3.24,3.27,3.24c22.91,0,41.55,18.47,41.55,41.16
		c0,1.79,1.46,3.24,3.27,3.24c1.8,0,3.27-1.45,3.27-3.24C125,46.37,103.43,25,76.92,25C75.11,25,73.65,26.45,73.65,28.24z"/>
	<path style="fill:#EF7E5C;" d="M73.12,44.08c0,1.79,1.46,3.24,3.27,3.24c14.38,0,26.08,11.59,26.08,25.84
		c0,1.79,1.46,3.24,3.27,3.24c1.8,0,3.27-1.45,3.27-3.24c0-17.82-14.63-32.31-32.62-32.31C74.58,40.85,73.12,42.3,73.12,44.08z"/>
</g>
</svg>
