<?xml version="1.0" encoding="utf-8"?>
<!-- Generator: Adobe Illustrator 25.1.0, SVG Export Plug-In . SVG Version: 6.00 Build 0)  -->
<svg version="1.1" id="Layer_1" xmlns="http://www.w3.org/2000/svg" xmlns:xlink="http://www.w3.org/1999/xlink" x="0px" y="0px"
	 viewBox="0 0 50 50" style="enable-background:new 0 0 50 50;" xml:space="preserve">
<style type="text/css">
	.st0{fill:#117BB8;}
	.st1{fill:#FFFFFF;}
</style>
<g id="XMLID_1560_">
	<path id="XMLID_1566_" class="st0" d="M44,50H6c-3.3,0-6-2.7-6-6V6c0-3.3,2.7-6,6-6h38c3.3,0,6,2.7,6,6v38C50,47.3,47.3,50,44,50z"
		/>
	<g id="XMLID_1561_">
		<g id="XMLID_1563_">
			<rect id="XMLID_1565_" x="13.7" y="19.4" class="st1" width="5.2" height="16.7"/>
			<path id="XMLID_1564_" class="st1" d="M16.2,17.2c1.7,0,3.1-1.4,3.1-3.1s-1.4-3.1-3.1-3.1c-1.7,0-3.1,1.4-3.1,3.1
				S14.5,17.2,16.2,17.2z"/>
		</g>
		<path id="XMLID_1562_" class="st1" d="M27.1,27.4c0-2.3,1.1-3.7,3.2-3.7c1.9,0,2.8,1.3,2.8,3.7c0,2.4,0,8.8,0,8.8h5.1
			c0,0,0-6.1,0-10.6c0-4.5-2.5-6.6-6.1-6.6c-3.5,0-5,2.8-5,2.8v-2.3h-5v16.7h5C27.1,36.1,27.1,29.9,27.1,27.4z"/>
	</g>
</g>
</svg>
