<?xml version="1.0" encoding="utf-8"?>
<!-- Generator: Adobe Illustrator 25.1.0, SVG Export Plug-In . SVG Version: 6.00 Build 0)  -->
<svg version="1.1" id="Layer_1" xmlns="http://www.w3.org/2000/svg" xmlns:xlink="http://www.w3.org/1999/xlink" x="0px" y="0px"
	 viewBox="0 0 50 50" style="enable-background:new 0 0 50 50;" xml:space="preserve">
<style type="text/css">
	.st0{fill:url(#XMLID_2_);}
	.st1{fill:#FFFFFF;}
</style>
<g id="XMLID_1621_">
	<radialGradient id="XMLID_2_" cx="-1.251" cy="50.166" r="92.445" gradientUnits="userSpaceOnUse">
		<stop  offset="0" style="stop-color:#F5EC53"/>
		<stop  offset="0.2412" style="stop-color:#E48244"/>
		<stop  offset="0.3974" style="stop-color:#D15767"/>
		<stop  offset="0.4888" style="stop-color:#C84278"/>
		<stop  offset="1" style="stop-color:#192CFA"/>
	</radialGradient>
	<path id="XMLID_1630_" class="st0" d="M44,50H6c-3.3,0-6-2.7-6-6V6c0-3.3,2.7-6,6-6h38c3.3,0,6,2.7,6,6v38C50,47.3,47.3,50,44,50z"
		/>
	<g id="XMLID_1622_">
		<path id="XMLID_1627_" class="st1" d="M25,13.8c3.7,0,4.1,0,5.5,0.1c1.8,0.1,2.5,0.5,3,0.7c0.2,0.1,0.3,0.2,0.5,0.3
			c0.9,0.7,1.3,1.3,1.6,2.1c0.2,0.5,0.4,1.2,0.5,2.5c0.1,1.4,0.1,1.9,0.1,5.5c0,3.7,0,4.1-0.1,5.5c-0.1,1.9-0.5,2.5-0.7,3
			c-0.1,0.2-0.2,0.3-0.3,0.5c-0.7,0.9-1.3,1.3-2.1,1.6c-0.5,0.2-1.2,0.4-2.5,0.5c-1.4,0.1-1.9,0.1-5.5,0.1s-4.1,0-5.5-0.1
			c-1.9-0.1-2.5-0.5-3-0.7c-0.2-0.1-0.3-0.2-0.5-0.3c-0.9-0.7-1.3-1.3-1.6-2.1c-0.2-0.5-0.4-1.2-0.5-2.5c-0.1-1.4-0.1-1.9-0.1-5.5
			c0-3.7,0-4.1,0.1-5.5c0.1-1.8,0.5-2.5,0.7-3c0.1-0.2,0.2-0.3,0.3-0.5c0.7-0.9,1.3-1.3,2.1-1.6c0.5-0.2,1.2-0.4,2.5-0.5
			C20.9,13.8,21.3,13.8,25,13.8 M25,11.3c-3.7,0-4.2,0-5.7,0.1c-1.5,0.1-2.5,0.3-3.3,0.6c-0.9,0.4-1.7,0.8-2.4,1.6
			c-0.8,0.8-1.2,1.5-1.6,2.4c-0.3,0.9-0.6,1.9-0.6,3.3c-0.1,1.5-0.1,1.9-0.1,5.7c0,3.7,0,4.2,0.1,5.7c0.1,1.5,0.3,2.5,0.6,3.3
			c0.4,0.9,0.8,1.7,1.6,2.4c0.8,0.8,1.5,1.2,2.4,1.6c0.9,0.3,1.9,0.6,3.3,0.6c1.5,0.1,1.9,0.1,5.7,0.1c3.7,0,4.2,0,5.7-0.1
			c1.5-0.1,2.5-0.3,3.3-0.6c0.9-0.4,1.7-0.8,2.4-1.6c0.8-0.8,1.2-1.5,1.6-2.4c0.3-0.9,0.6-1.9,0.6-3.3c0.1-1.5,0.1-1.9,0.1-5.7
			c0-3.7,0-4.2-0.1-5.7c-0.1-1.5-0.3-2.5-0.6-3.3c-0.4-0.9-0.8-1.7-1.6-2.4c-0.8-0.8-1.5-1.2-2.4-1.6c-0.9-0.3-1.9-0.6-3.3-0.6
			C29.2,11.3,28.7,11.3,25,11.3"/>
		<path id="XMLID_1624_" class="st1" d="M25,18c-5.2,0-9.1,5.7-5.8,11.2c0.4,0.7,1,1.3,1.7,1.7C26.4,34.1,32,30.2,32,25
			C32,21.1,28.9,18,25,18 M25,29.6c-3.5,0-6.1-3.9-3.6-7.6c0.2-0.2,0.4-0.4,0.6-0.6c3.7-2.5,7.6,0.1,7.6,3.6
			C29.6,27.5,27.5,29.6,25,29.6"/>
		<path id="XMLID_1623_" class="st1" d="M34,17.7c0,0.9-0.7,1.6-1.6,1.6c-0.9,0-1.6-0.7-1.6-1.6c0-0.9,0.7-1.6,1.6-1.6
			C33.2,16,34,16.8,34,17.7"/>
	</g>
</g>
</svg>
