<?xml version="1.0" encoding="utf-8"?>
<!-- Generator: Adobe Illustrator 25.1.0, SVG Export Plug-In . SVG Version: 6.00 Build 0)  -->
<svg version="1.1" id="Layer_1" xmlns="http://www.w3.org/2000/svg" xmlns:xlink="http://www.w3.org/1999/xlink" x="0px" y="0px"
	 viewBox="0 0 50 50" style="enable-background:new 0 0 50 50;" xml:space="preserve">
<style type="text/css">
	.st0{fill:#3E5C9A;}
	.st1{fill:#FFFFFF;}
</style>
<g id="XMLID_1631_">
	<path id="XMLID_1633_" class="st0" d="M44,50H6c-3.3,0-6-2.7-6-6V6c0-3.3,2.7-6,6-6h38c3.3,0,6,2.7,6,6v38C50,47.3,47.3,50,44,50z"
		/>
	<path id="XMLID_1632_" class="st1" d="M21.2,40.1h6.1V24.9h4.2l0.5-5.1h-4.7c0,0,0-1.9,0-2.9c0-1.2,0.2-1.7,1.4-1.7
		c0.9,0,3.3,0,3.3,0V9.9c0,0-3.5,0-4.2,0c-4.5,0-6.6,2-6.6,5.8c0,3.3,0,4.1,0,4.1H18v5.2h3.2V40.1z"/>
</g>
</svg>
