<svg xmlns="http://www.w3.org/2000/svg" id="Layer_1" x="0" y="0" version="1.1" viewBox="0 0 140 60" xml:space="preserve">
  <defs/>
  <style>
    .st1{fill:none;stroke:#ef9b84;stroke-width:.25;stroke-miterlimit:10}
  </style>
  <path id="Layer_2_1_" fill="#f58862" d="M0 0h140v60H0z"/>
  <path d="M125.3 8.8l3.6-2.2" class="st1"/>
  <circle cx="22.7" cy="45.2" r="1.6" class="st1"/>
  <path d="M20.5 23.2h4.4v4h-4.4z" class="st1" transform="rotate(-40.905 22.725 25.245)"/>
  <path d="M10.6 19.1l3.3 3.3M13.9 19.1l-3.3 3.3M39 10.2s-.2 2-2 2-2.1-2-2.1-2M11.1 60c.2-.5.8-.9 1.8-.4 1.6.8 2.6-1.2 2.4-2.2-.2-1 0-1.8 1.4-1.2s1.8-.3 1.8-.3M.3 8l5.6-1-3.7-4.2zM2.6 53.4l3-4.8-5.6-.2zM26.5 13.5l-4.3-3.7-1 5.5z" class="st1"/>
  <ellipse cx="128.9" cy="15.9" class="st1" rx="3.1" ry="3"/>
  <path d="M30.5 60c.1-.3.1-.5.1-.8 0-1.7-1.4-3-3.1-3-1.7 0-3.1 1.4-3.1 3 0 .3 0 .5.1.8" class="st1"/>
  <circle cx="20" cy="2.8" r="1.6" class="st1"/>
  <path d="M6 38.7L9.3 42M9.3 38.7L6 42" class="st1"/>
  <path d="M11 7.8h4.4v4H11z" class="st1" transform="rotate(-4.439 13.145 9.85)"/>
  <path d="M0 32.8l.7 1.5 3.6-1.9-2-3.9L0 29.7M29.5 20.8l.4-4.2M27.3 5.2s1.1-.1 1.4-.9 1.7-1.7 2.4 0 2.7.8 3.3 0 1.2-1.3 1.9 0 1.6 1 1.6 1M13.8 47s1.6 1.2.6 2.8c-.9 1.5-2.8.7-2.8.7M54.1 46.7s1.2 1.6 0 2.8c-1.3 1.3-2.9 0-2.9 0M35.1 41.3l-.2-5.7-4.7 3z" class="st1"/>
  <path d="M42.6 30.2h4v4.4h-4z" class="st1" transform="rotate(-37.777 44.63 32.37)"/>
  <path d="M54.6 7.7l.8 4.2" class="st1"/>
  <circle cx="46.2" cy="23.2" r="1.6" class="st1"/>
  <path d="M18 35.9s1 .4 1.6-.3c.6-.7 2.3-.8 2.1 1-.1 1.8 2.1 1.9 3 1.4.9-.5 1.6-.7 1.7.8.1 1.5 1 1.6 1 1.6M35.7 54.4l1.2-5.5-5.3 1.7zM37.8 0l-.1.2 3.4 2.7L43.5 0M38.8 43.9l4.3-.6M58.6 14.1l4.4 1.6M61.6 12.7L60 17.1M70.3 0l-2.7 1.7" class="st1"/>
  <circle cx="113" cy="37.8" r="1.6" class="st1"/>
  <path d="M87.3 55.7h4v4.4h-4z" class="st1" transform="matrix(.0732 -.9973 .9973 .0732 25.01 142.674)"/>
  <path d="M122.5 33.2l-3.3-3.3M119.2 33.2l3.3-3.3M64.8 43.3s-1.6 1.2-2.8-.2.1-2.9.1-2.9M73 5.5s-1 .3-1.1 1.2-1.3 2-2.3.5-2.8-.3-3.2.7-.8 1.5-1.8.4-1.7-.6-1.7-.6M137.1 20.9l-4.9 2.9 4.9 2.7z" class="st1"/>
  <circle cx="92.1" cy="46.5" r="3.1" class="st1" transform="matrix(1 -.0028 .0028 1 -.13 .258)"/>
  <circle cx="34.4" cy="28.2" r="3.1" class="st1" transform="matrix(1 -.0028 .0028 1 -.079 .096)"/>
  <circle cx="64.7" cy="23.7" r="1.6" class="st1"/>
  <path d="M81.1 53.3l-4.6-.3M78.7 55.5l.3-4.6M53.1 40.3l-3.3-3.2M49.8 40.3l3.3-3.2" class="st1"/>
  <path d="M115.4 8.6h4V13h-4z" class="st1" transform="rotate(-65.871 117.382 10.79)"/>
  <path d="M70.3 44h4v4.4h-4z" class="st1" transform="rotate(-50.795 72.345 46.151)"/>
  <path d="M87.2 18.4l-2.4-3.5M59.7 26.2s-.9-.6-1.7-.1-2.4.3-1.9-1.4-1.7-2.3-2.6-1.9c-.9.4-1.7.4-1.5-1.1.2-1.5-.7-1.7-.7-1.7M101.2 34.9s-1.8-.7-1.4-2.5c.5-1.8 2.5-1.5 2.5-1.5M44.7 11.7l5.7.7-2.2-5.1z" class="st1"/>
  <path d="M81.6 34.1h4v4.4h-4z" class="st1" transform="rotate(-67.238 83.606 36.242)"/>
  <circle cx="64.7" cy="51.9" r="1.6" class="st1"/>
  <path d="M45.7 49s-.4 1 .2 1.6.7 2.3-1.1 2.1c-1.8-.2-2 2-1.5 2.9.5.9.6 1.6-.9 1.7-1.5 0-1.6.9-1.6.9M58.1 30.6l-.7 5.6 5.1-2.1zM41 19.9l-4.3-1.6M38 21.3l1.7-4.4M51.5 0c0 1.7 1.4 3 3.1 3 1.7 0 3.1-1.4 3.1-3M11.2 34.2L15 30l-5.5-1.1z" class="st1"/>
  <circle cx="4.3" cy="19.9" r="1.6" class="st1"/>
  <path d="M72.9 60c1-.5 1.8-1.5 1.7-2.7 0-1.7-1.4-3-3.2-3-1.7 0-3.1 1.4-3.1 3.1 0 1.2.7 2.2 1.8 2.7" class="st1"/>
  <path d="M54 54.9h4.4v4H54z" class="st1" transform="rotate(-40.905 56.218 56.905)"/>
  <path d="M69.5 16.1h4v4.4h-4z" class="st1" transform="rotate(-38.684 71.523 18.272)"/>
  <circle cx="69.4" cy="32.9" r="3.1" class="st1" transform="matrix(1 -.0028 .0028 1 -.092 .194)"/>
  <path d="M84.2 45.9s-.8-.8-1.6-.4-2.4-.2-1.6-1.8c.8-1.6-1.2-2.6-2.2-2.4s-1.8 0-1.2-1.4-.3-1.8-.3-1.8M74.7 27.4l3.6 2.3" class="st1"/>
  <circle cx="79.7" cy="12.2" r="3.1" class="st1" transform="matrix(1 -.0028 .0028 1 -.034 .223)"/>
  <path d="M79.3 22.9l4.3 1.6M82.3 21.5l-1.7 4.3M78 4.6l5.6.7L81.4.2zM97.1 56.6l5.3 1.9-1.1-5.5z" class="st1"/>
  <circle cx="87.6" cy="9.1" r="1.6" class="st1"/>
  <circle cx="92.1" cy="25.4" r="3.1" class="st1" transform="matrix(1 -.0028 .0028 1 -.07 .258)"/>
  <path d="M94.8 36.8l-4.3-1.7M91.8 38.1l1.7-4.3" class="st1"/>
  <circle cx="101" cy="42" r="1.6" class="st1"/>
  <path d="M99.7 1.7s-1.1.1-1.4.9-1.7 1.6-2.3-.1-2.7-.9-3.3-.1c-.6.8-1.2 1.3-1.9-.1s-1.6-1-1.6-1" class="st1"/>
  <path d="M92.3 11.7h4.4v4h-4.4z" class="st1" transform="rotate(-40.905 94.505 13.742)"/>
  <path d="M102.3 19.8l-5.1 2.6 4.6 3zM101 10.4V5.8M98.7 8.1h4.6M107.3 4.3l5.4 1.8-1.1-5.5z" class="st1"/>
  <path d="M107.8 27.4h4.4v4h-4.4z" class="st1" transform="rotate(-40.905 109.97 29.409)"/>
  <circle cx="108.7" cy="13.7" r="3.1" class="st1" transform="matrix(1 -.0028 .0028 1 -.038 .304)"/>
  <path d="M107.9 41.5l-1.2-4.1M108 21.9s1.1.2 1.6-.5 2.2-1.1 2.3.7c.1 1.8 2.3 1.6 3.1 1s1.5-.9 1.8.6 1.2 1.4 1.2 1.4M124.1 22s1.3 1.5 0 2.8-2.9.1-2.9.1" class="st1"/>
  <circle cx="120.8" cy="41.3" r="3.1" class="st1" transform="matrix(1 -.0028 .0028 1 -.115 .339)"/>
  <path d="M123 4.4l-4.3-1.7M120 5.7l1.7-4.3" class="st1"/>
  <g>
    <path d="M108.9 49.7l-4.4-1.6M105.9 51.1l1.6-4.4" class="st1"/>
  </g>
  <path d="M113 55.1s-.2 2-2 2-2.1-2-2.1-2" class="st1"/>
  <path d="M115.4 48.9h4v4.4h-4z" class="st1" transform="rotate(-33.688 117.376 51.072)"/>
  <path d="M130.4 53.4s-.9.6-.8 1.5c.2.9-.7 2.3-2.1 1.1s-2.8.6-2.8 1.6c-.1 1-.4 1.7-1.7.9s-1.8-.1-1.8-.1M136.1 0c.2.4.3.9.3 1.3 0 1.7-1.4 3.1-3.1 3.1-1.7 0-3.1-1.4-3.1-3 0-.5.1-1 .3-1.4" class="st1"/>
  <circle cx="130.1" cy="31.2" r="1.6" class="st1"/>
  <path d="M133.4 37h4.4v4h-4.4z" class="st1" transform="matrix(1 -.0028 .0028 1 -.109 .38)"/>
  <g>
    <path d="M133.9 46l-4.5 1.1M132.3 48.8l-1.2-4.5" class="st1"/>
  </g>
  <path d="M139.3 7.9l-3 4.8h3M140.1 55.6l-4.6 1 3.1 3.6" class="st1"/>
</svg>