<?xml version="1.0" encoding="utf-8"?>
<!-- Generator: Adobe Illustrator 25.1.0, SVG Export Plug-In . SVG Version: 6.00 Build 0)  -->
<svg version="1.1" id="Layer_1" xmlns="http://www.w3.org/2000/svg" xmlns:xlink="http://www.w3.org/1999/xlink" x="0px" y="0px"
	 viewBox="0 0 50 50" style="enable-background:new 0 0 50 50;" xml:space="preserve">
<g>
	<circle style="fill:#F7D5C9;" cx="25" cy="25" r="25"/>
	<g>
		<path style="fill:#EF7E5C;" d="M32.76,15.54c-0.95,0-1.72,0.77-1.72,1.72c0,0.95,0.77,1.72,1.72,1.72c0.95,0,1.72-0.77,1.72-1.72
			C34.48,16.31,33.71,15.54,32.76,15.54z"/>
		<path style="fill:#EF7E5C;" d="M25.12,17.75c-3.98,0-7.22,3.24-7.22,7.22c0,3.98,3.24,7.22,7.22,7.22c3.98,0,7.22-3.24,7.22-7.22
			C32.34,20.98,29.1,17.75,25.12,17.75z M25.12,29.59c-2.55,0-4.62-2.07-4.62-4.62s2.07-4.62,4.62-4.62c2.55,0,4.62,2.07,4.62,4.62
			S27.67,29.59,25.12,29.59z"/>
		<path style="fill:#EF7E5C;" d="M30.85,39.62h-11.7c-4.85,0-8.8-3.95-8.8-8.8v-11.7c0-4.86,3.95-8.8,8.8-8.8h11.7
			c4.85,0,8.81,3.95,8.81,8.8v11.7C39.66,35.67,35.71,39.62,30.85,39.62z M19.15,13.07c-3.33,0-6.05,2.71-6.05,6.05v11.7
			c0,3.33,2.71,6.05,6.05,6.05h11.7c3.33,0,6.05-2.71,6.05-6.05v-11.7c0-3.33-2.71-6.05-6.05-6.05H19.15z"/>
	</g>
</g>
</svg>
