<?xml version="1.0" encoding="utf-8"?>
<!-- Generator: Adobe Illustrator 25.1.0, SVG Export Plug-In . SVG Version: 6.00 Build 0)  -->
<svg version="1.1" id="Layer_1" xmlns="http://www.w3.org/2000/svg" xmlns:xlink="http://www.w3.org/1999/xlink" x="0px" y="0px"
	 viewBox="0 0 50 50" style="enable-background:new 0 0 50 50;" xml:space="preserve">
<style type="text/css">
	.st0{fill:url(#SVGID_1_);}
	.st1{fill:#FFFFFF;}
</style>
<linearGradient id="SVGID_1_" gradientUnits="userSpaceOnUse" x1="42.6777" y1="7.3224" x2="7.3223" y2="42.6777">
	<stop  offset="0" style="stop-color:#007BB8"/>
	<stop  offset="1" style="stop-color:#0044E9"/>
</linearGradient>
<circle class="st0" cx="25" cy="25" r="25"/>
<path class="st1" d="M14.5,20.3h4.8v15.6h-4.8V20.3z M16.9,12.6c1.5,0,2.8,1.3,2.8,2.8c0,1.5-1.3,2.8-2.8,2.8
	c-1.6,0-2.8-1.3-2.8-2.8C14.1,13.9,15.4,12.6,16.9,12.6"/>
<path class="st1" d="M22.4,20.3H27v2.1h0.1c0.6-1.2,2.2-2.5,4.6-2.5c4.9,0,5.8,3.2,5.8,7.4v8.5h-4.8v-7.6c0-1.8,0-4.1-2.5-4.1
	c-2.5,0-2.9,2-2.9,4v7.7h-4.8V20.3z"/>
</svg>
