<svg xmlns="http://www.w3.org/2000/svg" viewBox="0 0 98.813 92.414">
  <defs/>
  <path fill="#f58862" d="M95.113 64.1c-1.9-.1-5.8 2-6.9 2.5a121.344 121.344 0 00-12.6 7.3 3.508 3.508 0 01-.8.5 15.663 15.663 0 01-5 2.1c-10.1 2.2-24.8 2.4-24.8 2.4h-.9a1.221 1.221 0 01-1.3-1 1.244 1.244 0 011.1-1.4l21.9-2.1a4.765 4.765 0 004.1-5.1 4.64 4.64 0 00-5-4.1l-19.5-.2a19.1 19.1 0 01-4.7-.7c-12.5-3.7-19.6-.2-23.4 1.4a4.513 4.513 0 00-4.2-2.2l-8.4.6a4.928 4.928 0 00-4.7 5.2l1.4 18.6a4.961 4.961 0 005.4 4.5l8.4-.6a4.286 4.286 0 003.8-2.7l36.9 1.6a20.081 20.081 0 0011.6-2l1.1-.6 27.8-16.1a4.68 4.68 0 002.4-3.7 3.9 3.9 0 00-3.7-4.2zM9.813 88a2.818 2.818 0 01-2.9-2.8 2.883 2.883 0 012.9-2.8 2.8 2.8 0 110 5.6zm64.2-21a127.267 127.267 0 0111.8-5.6 4.735 4.735 0 014.6.4 30.9 30.9 0 00-3.2 1.4c-3.3 1.7-9.1 4.8-12 6.8l-.9.6V69a10.621 10.621 0 00-.4-1.9zm8.8-7.5c-2.3 1-6.6 2.5-8.7 3.7l-1.4.8c-.1.1-.3.2-.4.3a10.038 10.038 0 00-2.2-1.9c1.9-1 6.2-2.4 8.2-3.2a4.3 4.3 0 014.5.3zm-53-46.4l3.1 3.1a22.844 22.844 0 00-3.5 8.5h-4.4a1.9 1.9 0 00-1.9 1.9v5.3a1.9 1.9 0 001.9 1.9h4.4a23.552 23.552 0 003.5 8.5l-3.1 3.1a1.818 1.818 0 000 2.7l3.7 3.7a1.818 1.818 0 002.7 0l3.1-3.1a22.844 22.844 0 008.5 3.5v4.4a1.9 1.9 0 001.9 1.9h5.3a1.9 1.9 0 001.9-1.9v-4.4a23.552 23.552 0 008.5-3.5l3.1 3.1a1.818 1.818 0 002.7 0l3.7-3.7a1.818 1.818 0 000-2.7l-3.1-3.1a22.844 22.844 0 003.5-8.5h4.4a1.9 1.9 0 001.9-1.9v-5.3a1.9 1.9 0 00-1.9-1.9h-4.3a23.552 23.552 0 00-3.5-8.5l3.1-3.1a1.818 1.818 0 000-2.7l-3.7-3.7a1.818 1.818 0 00-2.7 0l-3.2 3.1a22.844 22.844 0 00-8.5-3.5V1.9a1.9 1.9 0 00-1.9-1.9h-5.3a1.9 1.9 0 00-1.9 1.9v4.3a23.552 23.552 0 00-8.5 3.5l-3.1-3.1a1.818 1.818 0 00-2.7 0l-3.7 3.7a2.128 2.128 0 000 2.8zm22.6.8a15.4 15.4 0 11-15.4 15.4 15.407 15.407 0 0115.4-15.4zm-6.3 19.6l-3.6-3.7 3.8-3.8 3.6 3.7 8.7-8.6 3.8 3.8-8.7 8.6-3.8 3.8z" data-name="Path 60451"/>
</svg>
