<svg xmlns="http://www.w3.org/2000/svg" viewBox="0 0 35.51 47.466">
  <defs/>
  <g fill="#f58862" data-name="Group 4055" transform="translate(-860.529 -982)">
    <path d="M870.327 1009.948v-4.1h-3.3v1.316h-3.2v-1.32h-3.297v4.1a.957.957 0 00.957.957h7.886a.956.956 0 00.954-.953z" data-name="Path 57226"/>
    <circle cx="3.692" cy="3.692" r="3.692" data-name="Ellipse 712" transform="translate(871.659 982)"/>
    <path d="M869.758 1019.843l4.992-6.158a1.834 1.834 0 00.4-1.02l.408-5.417 3.647 2.95 1.118 7.33a1.838 1.838 0 001.82 1.557 1.78 1.78 0 00.279-.022 1.837 1.837 0 001.54-2.093l-1.227-8.035a1.836 1.836 0 00-.66-1.152l-4.429-3.58c0-.021.007-.039.007-.059l.09-5.739 1.368 1.434a1.677 1.677 0 00.792.461l5.307 1.336a1.739 1.739 0 00.4.05 1.654 1.654 0 00.4-3.259l-4.846-1.219-3.348-3.51.006-.349a3.062 3.062 0 00-3.014-3.109 3.118 3.118 0 00-2.83 1.807l-4.467 4.592a1.672 1.672 0 00-.294.412l-2.653 5.3a1.59 1.59 0 00-.116.427h-2.962a.957.957 0 00-.957.957v1.591h9.8v-1.589a.957.957 0 00-.955-.957h-1.327l2.011-4.02 1.578-1.623-.108 6.913a3.038 3.038 0 00.464 1.657l-.461 6.108-4.631 5.713a1.837 1.837 0 00.27 2.584 1.842 1.842 0 002.585-.268z" data-name="Path 57227"/>
    <path d="M895.273 1016.705h-8.809a.764.764 0 00-.765.765v2.98h-8.21a.764.764 0 00-.765.765v2.981h-8.207a.764.764 0 00-.765.765v3.744a.7655.7655 0 001.531 0v-2.983h8.207a.766.766 0 00.765-.767v-2.98h8.21a.766.766 0 00.765-.767v-2.98h8.043a.765.765 0 100-1.529z" data-name="Path 57228"/>
  </g>
</svg>
