<svg width="50" height="50" viewBox="0 0 50 50" fill="none" xmlns="http://www.w3.org/2000/svg">
<rect width="50" height="50" rx="6" fill="url(#paint0_linear)"/>
<path d="M25 50C38.8071 50 50 38.8071 50 25C50 11.1929 38.8071 0 25 0C11.1929 0 0 11.1929 0 25C0 38.8071 11.1929 50 25 50Z" fill="url(#paint1_linear)"/>
<path d="M38.8 16.4002C37.9 16.8002 37 17.0002 36 17.2002C36.4 17.1002 37.1 16.3002 37.4 16.0002C37.8 15.5002 38.1 14.9002 38.3 14.3002V14.2002C38.2 14.2002 38.2 14.2002 38.2 14.2002C37.2 14.8002 36.1 15.2002 34.9 15.5002C34.8 15.5002 34.7 15.5002 34.7 15.4002C34.6 15.3002 34.5 15.2002 34.4 15.1002C33.9 14.7002 33.4 14.4002 32.8 14.1002C32 13.8002 31.2 13.7002 30.4 13.7002C29.6 13.8002 28.8 14.0002 28.1 14.4002C27.4 14.8002 26.7 15.3002 26.2 15.9002C25.7 16.5002 25.3 17.3002 25.1 18.1002C24.9 18.9002 24.9 19.7002 25 20.4002C25 20.5002 25 20.5002 24.9 20.5002C20.4 19.8002 16.7 18.2002 13.7 14.8002C13.6 14.7002 13.5 14.7002 13.4 14.8002C12.1 16.8002 12.7 20.0002 14.4 21.5002C14.6 21.7002 14.8 21.9002 15.1 22.1002C15 22.1002 13.9 22.0002 12.9 21.5002C12.8 21.4002 12.7 21.5002 12.7 21.6002C12.7 21.8002 12.7 22.0002 12.7 22.2002C13 24.2002 14.3 26.1002 16.3 26.8002C16.5 26.9002 16.8 27.0002 17 27.0002C16.6 27.1002 16.1 27.2002 14.9 27.1002C14.7 27.1002 14.7 27.1002 14.7 27.3002C15.6 29.8002 17.7 30.6002 19.2 31.0002C19.4 31.0002 19.6 31.0002 19.8 31.1002C19.3 31.9002 17.6 32.4002 16.7 32.7002C15.2 33.2002 13.6 33.4002 12.1 33.3002C11.9 33.3002 11.8 33.3002 11.7 33.3002C11.6 33.3002 11.7 33.4002 11.8 33.5002C12.1 33.7002 12.4 33.9002 12.8 34.1002C13.8 34.6002 14.8 35.0002 15.9 35.3002C21.5 36.8002 27.7 35.7002 31.9 31.6002C35.2 28.3002 36.3 23.8002 36.3 19.3002C36.3 19.1002 36.5 19.0002 36.6 18.9002C37.5 18.3002 38.1 17.5002 38.8 16.6002C38.9 16.4002 38.9 16.2002 38.9 16.2002C38.9 16.4002 38.9 16.4002 38.8 16.4002Z" fill="white"/>
<defs>
<linearGradient id="paint0_linear" x1="7" y1="50" x2="46.5" y2="6" gradientUnits="userSpaceOnUse">
<stop stop-color="#0080FF"/>
<stop offset="1" stop-color="#00CCFF"/>
</linearGradient>
<linearGradient id="paint1_linear" x1="42.6777" y1="7.3223" x2="7.3223" y2="42.6777" gradientUnits="userSpaceOnUse">
<stop stop-color="#00CCFF"/>
<stop offset="1" stop-color="#0080FF"/>
</linearGradient>
</defs>
</svg>
