<svg width="50" height="50" viewBox="0 0 50 50" fill="none" xmlns="http://www.w3.org/2000/svg">
<rect width="50" height="50" rx="6" fill="url(#paint0_linear)"/>
<path d="M25 50C38.8071 50 50 38.8071 50 25C50 11.1929 38.8071 0 25 0C11.1929 0 0 11.1929 0 25C0 38.8071 11.1929 50 25 50Z" fill="url(#paint1_linear)"/>
<path d="M11.5 39.1L13.6 31.3C12.4 29.2 11.8 26.8 11.8 24.4C11.8 16.5 18.2 10 26.2 10C34.1 10 40.6 16.4 40.6 24.4C40.6 32.3 34.2 38.8 26.2 38.8C23.8 38.8 21.5 38.2 19.4 37.1L11.5 39.1ZM19.7 34.1L20.2 34.4C22 35.5 24.1 36 26.1 36C32.5 36 37.7 30.8 37.7 24.4C37.7 18 32.5 12.8 26.1 12.8C19.7 12.8 14.5 18 14.5 24.4C14.5 26.5 15.1 28.6 16.2 30.4L16.5 30.9L15.3 35.2L19.7 34.1Z" fill="white"/>
<path fill-rule="evenodd" clip-rule="evenodd" d="M31.5 26.3998C30.9 25.9998 30.1 25.6998 29.4 25.8998C28.9 26.0998 28.5 26.9998 28.2 27.3998C28 27.5998 27.8 27.6998 27.5 27.4998C25.5 26.6998 24 25.3998 22.9 23.4998C22.7 23.1998 22.7 22.9998 23 22.6998C23.3 22.2998 23.8 21.8998 23.8 21.2998C23.9 20.7998 23.6 20.0998 23.4 19.6998C23.1 19.0998 22.8 18.1998 22.2 17.8998C21.6 17.5998 20.9 17.7998 20.4 18.1998C19.5 18.8998 19.1 19.9998 19.1 21.0998C19.1 21.3998 19.1 21.6998 19.2 21.9998C19.4 22.6998 19.7 23.3998 20.1 23.9998C20.4 24.4998 20.7 24.8998 21 25.3998C22.1 26.8998 23.4 28.0998 25 29.0998C25.8 29.5998 26.6 29.9998 27.5 30.2998C28.5 30.5998 29.3 30.9998 30.4 30.7998C31.5 30.5998 32.6 29.8998 33 28.8998C33.1 28.5998 33.2 28.1998 33.1 27.8998C32.9 27.1998 32 26.7998 31.5 26.3998Z" fill="white"/>
<defs>
<linearGradient id="paint0_linear" x1="50" y1="17" x2="12" y2="50" gradientUnits="userSpaceOnUse">
<stop stop-color="#00FB73"/>
<stop offset="1" stop-color="#00B25B"/>
</linearGradient>
<linearGradient id="paint1_linear" x1="42.6777" y1="7.3223" x2="7.3224" y2="42.6777" gradientUnits="userSpaceOnUse">
<stop stop-color="#00FB73"/>
<stop offset="1" stop-color="#00B25B"/>
</linearGradient>
</defs>
</svg>
