<svg width="50" height="50" viewBox="0 0 50 50" fill="none" xmlns="http://www.w3.org/2000/svg">
<rect width="50" height="50" rx="6" fill="url(#paint0_linear)"/>
<path d="M25 50C38.8071 50 50 38.8071 50 25C50 11.1929 38.8071 0 25 0C11.1929 0 0 11.1929 0 25C0 38.8071 11.1929 50 25 50Z" fill="url(#paint1_linear)"/>
<path d="M38.4 21.3999C38.4 18.0999 35.7 15.3999 32.4 15.3999H17C13.7 15.3999 11 18.0999 11 21.3999V28.4999C11 31.7999 13.7 34.4999 17 34.4999H32.4C35.7 34.4999 38.4 31.7999 38.4 28.4999V21.3999ZM29.4 25.4999L22.5 28.8999C22.2 28.9999 21.3 28.8999 21.3 28.4999V21.4999C21.3 21.1999 22.2 20.9999 22.5 21.0999L29.1 24.6999C29.3 24.8999 29.6 25.2999 29.4 25.4999Z" fill="white"/>
<defs>
<linearGradient id="paint0_linear" x1="34.5" y1="7.6443e-07" x2="-7.59959e-08" y2="31.5" gradientUnits="userSpaceOnUse">
<stop stop-color="#FF0000"/>
<stop offset="1" stop-color="#9B0000"/>
</linearGradient>
<linearGradient id="paint1_linear" x1="42.6777" y1="7.3223" x2="7.3224" y2="42.6777" gradientUnits="userSpaceOnUse">
<stop stop-color="#FF0000"/>
<stop offset="1" stop-color="#9B0000"/>
</linearGradient>
</defs>
</svg>
